<?xml version="1.0" encoding="UTF-8" standalone="no"?>
<svg width="253px" height="164px" viewBox="0 0 253 164" version="1.1" xmlns="http://www.w3.org/2000/svg" xmlns:xlink="http://www.w3.org/1999/xlink">
    <!-- Generator: Sketch 3.6.1 (26313) - http://www.bohemiancoding.com/sketch -->
    <title>LOGO BIG Copy 2</title>
    <desc>Created with Sketch.</desc>
    <defs>
        <path d="M136.046652,11.9808527 L146.537552,1.48995225 C148.525927,-0.498422348 151.75292,-0.496262431 153.744601,1.49541894 L250.857718,98.6085358 C252.846207,100.597025 252.847118,103.831652 250.852623,105.826148 L240.372285,116.306486 L136.046652,11.9808527 Z M229.436377,127.242393 L194.303772,162.374997 C192.300697,164.378072 189.077841,164.371775 187.08616,162.380093 L126.394752,101.688688 L65.661398,162.422043 C63.6684304,164.41501 60.4361712,164.414188 58.4420673,162.420084 L1.494444,105.472461 C-0.497900362,103.480117 -0.500536629,100.246153 1.49248573,98.2531305 L97.7996102,1.94600606 C99.7925777,-0.046961487 103.024837,-0.0461395609 105.018941,1.94796432 L124.916159,21.8451829 L124.907658,21.8536849 L229.436377,127.242393 Z M94.117452,96.242745 C101.58087,88.7793269 101.441297,76.5391621 93.8057066,68.9035717 C86.1701162,61.2679813 73.9299514,61.1284081 66.4665332,68.5918263 C59.0031151,76.0552444 59.1426883,88.2954093 66.7782786,95.9309996 C74.413869,103.56659 86.6540338,103.706163 94.117452,96.242745 Z M88.2838345,88.2505514 L86.5429759,86.5096928 C88.1583718,84.2858415 87.9203726,81.9886097 86.4837418,80.5519789 C84.9795048,79.0477419 83.1942654,79.0076149 80.5298749,80.2522761 C78.471877,81.1609693 77.4549012,81.4004743 76.7619381,80.7075112 C76.1872857,80.1328589 76.0151084,79.0881253 77.236687,77.8665467 C78.4233635,76.6798703 79.5799483,76.3007562 80.1846922,76.0678462 L79.1009309,74.0417242 C78.2720703,74.3297355 77.2681489,74.8266108 76.134925,75.8922285 L74.5630819,74.3203853 L73.1320897,75.7513774 L74.7884406,77.4077283 C73.3301048,79.4745195 73.398539,81.6370886 74.8520714,83.090621 C76.4239146,84.6624642 78.4218649,84.2870617 80.8964914,83.0969522 C82.6442161,82.2619106 83.7451501,82.1412659 84.5057194,82.9018352 C85.3169933,83.7131091 85.0905427,84.9874551 83.9911219,86.0868759 C82.9266033,87.1513945 81.5944081,87.7737251 80.5250788,88.0655835 L81.6426432,90.1255085 C82.6765206,89.902905 84.0801691,89.107712 85.213393,88.0420942 L86.8528423,89.6815436 L88.2838345,88.2505514 Z" id="path-1"></path>
    </defs>
    <g id="Page-1" stroke="none" stroke-width="1" fill="none" fill-rule="evenodd">
        <g id="Artboard-24-Copy" transform="translate(-66.000000, -120.000000)">
            <g id="LOGO-BIG-Copy-2" transform="translate(66.000000, 120.000000)">
                <g id="Mask-2-Copy-9">
                    <use fill="none" xlink:href="#path-1"></use>
                    <use fill="none" xlink:href="#path-1"></use>
                    <use fill="#6E7F90" fill-rule="evenodd" xlink:href="#path-1"></use>
                </g>
            </g>
        </g>
    </g>
</svg>