<?xml version="1.0" encoding="UTF-8" standalone="no"?>
<svg width="2694px" height="512px" viewBox="0 0 2694 512" version="1.1" xmlns="http://www.w3.org/2000/svg" xmlns:xlink="http://www.w3.org/1999/xlink">
    <!-- Generator: Sketch 3.6.1 (26313) - http://www.bohemiancoding.com/sketch -->
    <title>1Password</title>
    <desc>Created with Sketch.</desc>
    <defs></defs>
    <g id="Page-1" stroke="none" stroke-width="1" fill="none" fill-rule="evenodd">
        <g id="1Password">
            <g id="Page-1">
                <g id="_x31_Password">
                    <g id="_x31_password-black">
                        <path d="M142.3,77.2491228 L90.1,77.2491228 L1.3,132.14191 L9.2,177.952437 C51.4,163.780117 57.5,162.382846 57.5,170.467057 L57.5,363.490058 C57.5,371.873684 56.4,374.069396 48.5,374.668226 L0.2,378.560624 L0.2,422.674464 L197.3,422.674464 L197.3,378.560624 L151.3,374.668226 C142.9,374.069396 142.3,372.472515 142.3,363.490058 L142.3,77.2491228 L142.3,77.2491228 Z M328.4,78.945809 L361.5,78.945809 C401.3,78.945809 434.5,88.4272904 434.5,142.122417 C434.5,205.299025 393.5,213.682651 356.5,213.682651 L328.4,213.682651 L328.4,78.945809 L328.4,78.945809 Z M369.4,273.465887 C464.3,273.465887 523.2,234.3423 523.2,137.132164 C523.2,72.8576998 491.8,18.0647173 387.9,18.0647173 L197.6,18.0647173 L197.6,62.7773879 L233,66.6697856 C240.9,67.268616 242,69.4643275 242,77.8479532 L242,363.390253 C242,371.773879 240.9,373.470565 233,374.568421 L197.6,378.460819 L197.6,422.574659 L417.7,422.574659 L417.7,378.460819 L337.4,373.969591 C329,372.871735 328.4,371.773879 328.4,362.791423 L328.4,273.465887 L369.4,273.465887 L369.4,273.465887 Z M683.9,348.918519 C671,358.4 651.9,369.079142 632.8,369.079142 C614.3,369.079142 600.8,360.695517 600.8,338.339181 C600.8,315.982846 612.6,307.59922 645.7,305.403509 L683.9,302.608967 L683.9,348.918519 L683.9,348.918519 Z M941.9,242.127096 C907.7,234.3423 876.8,229.252242 876.8,206.396881 C876.8,188.531774 892.5,177.852632 920.6,177.852632 C935.8,177.852632 949.2,180.048343 956.5,182.34386 C960.4,183.441715 961.6,185.737232 962.1,190.128655 L967.7,219.17193 L1027.8,223.064327 L1027.8,142.022612 C1012.1,135.834698 968.8,125.854191 924.5,125.854191 C859.9,125.854191 800.4,154.398441 800.4,223.663158 C800.4,296.920078 862.2,306.900585 909.3,315.284211 C937.9,320.274464 960.4,327.061209 960.4,349.417544 C960.4,370.077193 943.6,378.460819 913.8,378.460819 C892.5,378.460819 877.3,375.067446 870.6,372.871735 C865.5,371.773879 864.4,369.478363 863.9,364.488109 L858.3,332.650292 L798.2,328.159064 L798.2,377.762183 L775.4,373.969591 C767,372.871735 766.4,371.773879 766.4,362.791423 L766.4,227.05653 C766.4,148.809357 732.1,125.854191 646.8,125.854191 C595.1,125.854191 526.1,136.433528 526.1,211.88616 L605.3,218.573099 C605.3,185.038596 619.3,181.146199 646.3,181.146199 C681.1,181.146199 683.9,199.011306 683.9,225.260039 L683.9,256 L619.3,260.491228 C549.1,264.982456 514.3,290.632359 514.3,346.523197 C514.3,381.155556 525.5,429.261598 596.3,429.261598 C641.2,429.261598 669.3,412.494347 690.6,391.834698 L693.4,392.433528 L699,422.574659 L802.3,422.574659 L802.3,411.296686 C818,418.382846 863.2,429.261598 909.4,429.261598 C980.7,429.261598 1036.3,401.316179 1036.3,333.149318 C1036.3,267.876803 986.3,252.207407 941.9,242.127096 L941.9,242.127096 Z M2573.6,339.437037 C2558.4,352.311891 2537.7,363.490058 2518.6,363.490058 C2483.2,363.490058 2467.5,333.348928 2467.5,279.054971 C2467.5,229.352047 2483.8,190.727485 2525.3,190.727485 C2541.6,190.727485 2559.5,198.013255 2573.6,207.494737 L2573.6,339.437037 L2573.6,339.437037 Z M2666.8,374.568421 C2658.4,373.470565 2657.8,372.37271 2657.8,363.989084 L2657.8,0.698635478 L2544.9,0.698635478 L2538.7,46.0101365 L2569.6,56.5894737 C2574.7,58.2861598 2576.9,62.1785575 2576.9,67.7676413 L2576.9,152.701754 C2555.6,137.032359 2530.3,125.854191 2497.7,125.854191 C2435.4,125.854191 2378.7,168.37115 2378.7,280.651852 C2378.7,387.34347 2421.4,429.261598 2487.6,429.261598 C2528.6,429.261598 2556.1,413.592203 2579.7,390.736842 L2583.6,391.335673 L2589.2,422.674464 L2693.6,422.674464 L2693.6,378.560624 L2666.8,374.568421 L2666.8,374.568421 Z M1721.3,180.647173 L1723.1,180.347758 C1728.4,169.069786 1734.5,158.191033 1741.5,148.010916 L1741.5,131.54308 L1623.6,131.54308 L1616.3,177.952437 L1648.3,181.345809 L1606.2,338.339181 L1602.8,338.339181 L1554.6,138.729045 L1469.8,138.729045 L1419.8,338.239376 L1415.9,338.239376 L1371,181.246004 L1402.4,177.852632 L1402.4,131.443275 L1260.4,131.443275 L1259,138.62924 C1238.8,132.740741 1202.9,125.854191 1166.2,125.854191 C1101.6,125.854191 1042.1,154.398441 1042.1,223.663158 C1042.1,296.920078 1103.9,306.900585 1151,315.284211 C1179.6,320.274464 1202.1,327.061209 1202.1,349.417544 C1202.1,370.077193 1185.3,378.460819 1155.5,378.460819 C1134.2,378.460819 1119,375.067446 1112.3,372.871735 C1107.2,371.773879 1106.1,369.478363 1105.6,364.488109 L1100,332.650292 L1039.9,328.159064 L1039.9,409.20078 C1050,415.887719 1100,429.361404 1151.1,429.361404 C1222.4,429.361404 1278,401.415984 1278,333.249123 C1278,267.876803 1228,252.207407 1183.7,242.127096 C1149.5,234.3423 1118.6,229.252242 1118.6,206.396881 C1118.6,188.531774 1134.3,177.852632 1162.4,177.852632 C1177.6,177.852632 1191,180.048343 1198.3,182.34386 C1202.2,183.441715 1203.4,185.737232 1203.9,190.128655 L1209.5,219.17193 L1269.6,223.064327 L1269.6,180.647173 L1275.1,181.844834 C1281.8,183.54152 1284.7,184.639376 1286.9,191.326316 L1357.6,422.674464 L1458.7,422.674464 L1503.1,235.440156 L1506.5,235.440156 L1550.3,422.674464 L1639,422.674464 L1708,191.825341 C1710.1,184.639376 1713.5,181.844834 1721.3,180.647173 L1721.3,180.647173 Z M2301.9,194.619883 C2306.4,194.619883 2308.1,195.717739 2309.2,200.807797 L2314.8,230.449903 L2382.2,232.645614 L2382.2,130.94425 C2372.1,128.149708 2346.3,125.953996 2333.4,125.953996 C2297.5,125.953996 2272.8,147.711501 2254.2,176.25575 L2250.8,176.25575 L2244.1,131.54308 L2145.3,131.54308 L2139.7,172.562963 C2140.6,174.359454 2141.6,176.155945 2142.4,177.952437 L2169.4,187.433918 C2175,189.130604 2176.7,193.023002 2176.7,199.210916 L2176.7,362.991033 C2176.7,371.374659 2175.6,373.071345 2167.7,374.169201 L2142.4,377.562573 L2142.4,422.874074 L2326,422.874074 L2326,378.161404 L2270.4,373.670175 C2262,373.071345 2261.4,371.474464 2261.4,362.492008 L2261.4,214.181676 C2269.9,206.995712 2287.3,194.619883 2301.9,194.619883 L2301.9,194.619883 Z" id="Fill-1" fill="#010202"></path>
                        <g id="app-icon" transform="translate(1693.000000, 34.931774)">
                            <path d="M238.9,54.3937622 C340.9,54.3937622 423.6,136.932554 423.6,238.733723 C423.6,340.534893 340.9,423.073684 238.9,423.073684 C136.9,423.073684 54.2,340.534893 54.2,238.733723 C54.2,136.932554 136.9,54.3937622 238.9,54.3937622" id="color" fill="#198CFF"></path>
                            <g id="lock">
                                <g id="Chrome">
                                    <path d="M8,238.733723 C8,365.985185 111.4,469.083821 238.9,469.083821 C366.4,469.083821 469.8,365.88538 469.8,238.633918 C469.8,111.382456 366.4,8.18401559 238.9,8.18401559 C111.4,8.18401559 8,111.482261 8,238.733723 L8,238.733723 Z M54.2,238.733723 C54.2,340.534893 136.9,423.073684 238.9,423.073684 C340.9,423.073684 423.6,340.534893 423.6,238.733723 C423.6,136.932554 340.9,54.3937622 238.9,54.3937622 C136.9,54.3937622 54.2,136.932554 54.2,238.733723 L54.2,238.733723 Z" id="chrome" fill="#FFFFFF"></path>
                                    <path d="M0.3,238.733723 C0.3,370.276803 107.1,476.868616 238.9,476.868616 C370.7,476.868616 477.5,370.276803 477.5,238.733723 C477.5,107.190643 370.7,0.598830409 238.9,0.598830409 C107.1,0.598830409 0.3,107.190643 0.3,238.733723 L0.3,238.733723 L0.3,238.733723 Z M8,238.733723 L8,238.733723 C8,111.482261 111.3,8.28382066 238.9,8.28382066 C366.5,8.28382066 469.8,111.482261 469.8,238.733723 C469.8,365.985185 366.5,469.183626 238.9,469.183626 C111.3,469.183626 8,365.985185 8,238.733723 L8,238.733723 L8,238.733723 Z M61.9,238.733723 C61.9,336.243275 141.1,415.388694 238.9,415.388694 C336.7,415.388694 415.9,336.34308 415.9,238.733723 C415.9,141.224172 336.7,62.0787524 238.9,62.0787524 C141.1,62.0787524 61.9,141.124366 61.9,238.733723 L61.9,238.733723 L61.9,238.733723 Z M54.2,238.733723 L54.2,238.733723 C54.2,136.932554 136.9,54.3937622 238.9,54.3937622 C340.9,54.3937622 423.6,136.932554 423.6,238.733723 C423.6,340.534893 340.9,423.073684 238.9,423.073684 C136.9,423.073684 54.2,340.534893 54.2,238.733723 L54.2,238.733723 L54.2,238.733723 Z" id="chrome_1_" fill="#000000" opacity="0.5"></path>
                                    <path d="M318.3,431.357505 C388.6,401.515789 437.8,332.051462 437.8,251.209357 C437.8,143.020663 349.7,55.3918129 241.1,55.3918129 C132.4,55.3918129 44.4,143.120468 44.4,251.209357 C44.4,358.99883 132,446.527875 240.2,447.026901 L239.2,447.026901 C125.2,447.026901 32.7,355.006628 32.7,241.528265 C32.7,128.049903 125.1,35.9298246 239.1,35.9298246 C353.1,35.9298246 445.6,127.950097 445.6,241.42846 C445.6,327.061209 393,400.417934 318.3,431.357505 L318.3,431.357505 Z M235.1,449.322417 C362.5,449.322417 465.7,346.523197 465.7,219.77076 C465.7,207.993762 464.8,196.316569 463.1,185.038596 C467.4,202.504483 469.7,220.768811 469.7,239.631969 C469.7,366.384405 366.4,469.183626 239.1,469.183626 C123.6,469.183626 27.9,384.648733 11.1,274.364133 C35.7,374.768031 126.6,449.322417 235.1,449.322417 L235.1,449.322417 Z" id="chrome-shadows" fill-opacity="0.1" fill="#000000"></path>
                                </g>
                                <path d="M238.9,100.503704 C315.4,100.503704 377.4,162.382846 377.4,238.733723 C377.4,315.0846 315.4,376.963743 238.9,376.963743 C162.4,376.963743 100.4,315.0846 100.4,238.733723 C100.3,162.382846 162.4,100.503704 238.9,100.503704 L238.9,100.503704 L238.9,100.503704 Z" id="inside" fill="#F3F3F3"></path>
                                <path d="M238.9,100.503704 L238.9,100.503704 L238.9,100.503704 C162.4,100.503704 100.4,162.382846 100.4,238.733723 C100.4,315.0846 162.4,376.963743 238.9,376.963743 C315.4,376.963743 377.4,315.0846 377.4,238.733723 C377.4,162.382846 315.4,100.503704 238.9,100.503704 L238.9,100.503704 L238.9,100.503704 Z M238.9,92.8187135 L238.9,92.8187135 C319.7,92.8187135 385.1,158.191033 385.1,238.733723 C385.1,319.376218 319.6,384.648733 238.9,384.648733 C158.2,384.648733 92.7,319.276413 92.7,238.733723 C92.6,158.091228 158.1,92.8187135 238.9,92.8187135 L238.9,92.8187135 L238.9,92.8187135 Z" id="inside_1_" fill-opacity="0.25" fill="#000000"></path>
                                <g id="Fill-12" transform="translate(177.000000, 176.654971)">
                                    <path d="M123.4,62.0787524 C123.4,96.0124756 95.8,123.558674 61.8,123.558674 C27.8,123.558674 0.2,96.0124756 0.2,62.0787524 C0.2,28.1450292 27.8,0.598830409 61.8,0.598830409 C95.8,0.598830409 123.4,28.1450292 123.4,62.0787524 L123.4,62.0787524 Z" id="path-1" fill-opacity="0.05" fill="#000000"></path>
                                    <path d="M123.4,62.0787524 C123.4,96.0124756 95.8,123.558674 61.8,123.558674 C27.8,123.558674 0.2,96.0124756 0.2,62.0787524 C0.2,28.1450292 27.8,0.598830409 61.8,0.598830409 C95.8,0.598830409 123.4,28.1450292 123.4,62.0787524 L123.4,62.0787524 Z" id="path-1_1_"></path>
                                </g>
                                <path d="M292.7,238.733723 L292.7,238.733723 C292.7,208.991813 268.6,184.938791 238.8,184.938791 C209,184.938791 184.9,208.991813 184.9,238.733723 C184.9,268.475634 209,292.528655 238.8,292.528655 C268.6,292.42885 292.7,268.375828 292.7,238.733723 L292.7,238.733723 L292.7,238.733723 Z M300.4,238.733723 C300.4,272.667446 272.8,300.213645 238.8,300.213645 C204.8,300.213645 177.2,272.667446 177.2,238.733723 C177.2,204.8 204.8,177.253801 238.8,177.253801 C272.8,177.253801 300.4,204.8 300.4,238.733723 L300.4,238.733723 L300.4,238.733723 Z" id="Fill-12_1_" fill-opacity="0.15" fill="#000000"></path>
                                <path d="M300.4,238.733723 L300.4,238.733723 C300.4,204.8 272.8,177.253801 238.8,177.253801 C204.8,177.253801 177.2,204.8 177.2,238.733723 C177.2,272.667446 204.8,300.213645 238.8,300.213645 C272.8,300.213645 300.4,272.667446 300.4,238.733723 L300.4,238.733723 L300.4,238.733723 Z M308.1,238.733723 L308.1,238.733723 C308.1,276.959064 277.1,307.898635 238.8,307.898635 C200.5,307.898635 169.5,276.959064 169.5,238.733723 C169.5,200.508382 200.5,169.568811 238.8,169.568811 C277.1,169.568811 308.1,200.508382 308.1,238.733723 L308.1,238.733723 L308.1,238.733723 Z" id="Fill-12_2_" fill="#FFFFFF"></path>
                            </g>
                            <path d="M269.6,253.504873 L269.6,146.51384 L208,146.51384 L208,346.223782 L269.6,346.223782 L269.6,282.049123 L254.2,267.776998 L269.6,253.504873 L269.6,253.504873 Z M208.1,210.688499 L208.1,239.232749 L223.5,224.960624 L208.1,210.688499 L208.1,210.688499 Z" id="keyhole-highlight" fill="#FFFFFF"></path>
                            <path d="M269.6,245.819883 L269.6,138.82885 L208,138.82885 L208,338.538791 L269.6,338.538791 L269.6,274.364133 L254.2,260.092008 L269.6,245.819883 L269.6,245.819883 Z M208.1,203.003509 L208.1,231.547758 L223.5,217.275634 L208.1,203.003509 L208.1,203.003509 Z" id="keyhole" fill="#4C4C4C"></path>
                            <path d="M261.9,249.11345 L261.9,154.19883 L215.7,154.19883 L215.7,338.538791 L261.9,338.538791 L261.9,284.644055 L250.4,269.97271 L250.4,262.187914 L261.9,249.11345 L261.9,249.11345 Z M215.8,243.424561 L227.3,230.549708 L227.3,222.764912 L215.8,209.590643 L215.8,243.424561 L215.8,243.424561 Z" id="keyhole-center" fill="#7F7F7F"></path>
                        </g>
                    </g>
                </g>
            </g>
        </g>
    </g>
</svg>