<?xml version="1.0" encoding="UTF-8" standalone="no"?>
<svg width="350px" height="70px" viewBox="0 0 350 70" version="1.1" xmlns="http://www.w3.org/2000/svg" xmlns:xlink="http://www.w3.org/1999/xlink">
    <!-- Generator: Sketch 3.6.1 (26313) - http://www.bohemiancoding.com/sketch -->
    <title>1password-rgb-black</title>
    <desc>Created with Sketch.</desc>
    <defs>
        <path id="path-1" d="M39,31 C39,35.4182239 35.4182761,39 31,39 C26.5817239,39 23,35.4182239 23,31 C23,26.5817761 26.5817239,23 31,23 C35.4182761,23 39,26.5817761 39,31 Z"></path>
    </defs>
    <g id="Page-1" stroke="none" stroke-width="1" fill="none" fill-rule="evenodd">
        <g id="1Password" transform="translate(-80.000000, -72.000000)">
            <g id="1password-black" transform="translate(80.000000, 72.000000)">
                <path d="M18.4566184,10.4299897 L11.6794984,10.4299897 L0.145656131,17.5758108 C0.145656131,17.5758108 1.1692403,23.5427313 1.1692403,23.5427315 C6.65329017,21.6933844 7.44067098,21.5214181 7.44067098,22.5636832 L7.44067111,47.6911427 C7.44067111,48.7821565 7.2953048,49.0728469 6.27329071,49.1453346 L0.000289830508,49.6557071 L0.000289830508,55.4036853 L25.6070087,55.4036853 L25.6070087,49.6557071 L19.6247404,49.1453346 C18.5300432,49.0728469 18.4566184,48.8546441 18.4566184,47.6911427 L18.4566184,10.4299897 Z M42.6374125,10.6554789 L46.9427767,10.6554789 C52.1210803,10.6554789 56.4264445,11.891468 56.4264445,18.8769147 C56.4264445,27.0990902 51.1005496,28.190104 46.2856617,28.190104 L42.6374125,28.190104 L42.6374125,10.6554789 Z M47.9633075,35.975874 C60.2942264,35.975874 67.9533988,30.882504 67.9533988,18.2223065 C67.9533988,9.85515558 63.8690508,2.72399383 50.3707514,2.72399383 L25.639197,2.72399383 L25.639197,8.54519941 L30.2352937,9.0540926 C31.2558245,9.1265803 31.4026741,9.41875008 31.4026741,10.5097638 L31.4026741,47.6907729 C31.4026741,48.7825263 31.2558245,49.000729 30.2352937,49.1457044 L25.639197,49.6553373 L25.639197,55.4033155 L54.2377917,55.4033155 L54.2377917,49.6553373 L43.8055346,49.0732167 C42.7108373,48.9275017 42.6374125,48.7825263 42.6374125,47.6175455 L42.6374125,35.975874 L47.9633075,35.975874 Z M88.8277771,45.7992879 C87.150873,47.035277 84.6700042,48.4184605 82.1891355,48.4184605 C79.7816915,48.4184605 78.030621,47.3274468 78.030621,44.4161043 C78.030621,41.5055015 79.5629004,40.4144878 83.8660396,40.1237973 L88.8277771,39.7598795 L88.8277771,45.7992879 Z M122.365859,31.9016218 C117.915871,30.8823561 113.902722,30.2277479 113.902722,27.2446574 C113.902722,24.9161751 115.946009,23.5337313 119.594258,23.5337313 C121.56412,23.5337313 123.31519,23.8251614 124.26378,24.1158518 C124.773303,24.2615669 124.920153,24.5522573 124.992094,25.1343779 L125.721893,28.9185313 L133.528656,29.4274245 L133.528656,18.8767668 C131.48537,18.0771832 125.867259,16.7664873 120.103782,16.7664873 C111.71407,16.7664873 103.981472,20.4781531 103.981472,29.5006519 C103.981472,39.0327836 112.007027,40.3420001 118.134662,41.4330138 C121.854852,42.0883618 124.773303,42.9611728 124.773303,45.8717756 C124.773303,48.5641756 122.58465,49.6551894 118.719094,49.6551894 C115.946009,49.6551894 113.976147,49.2187839 113.100983,48.9273537 C112.444609,48.7823784 112.297018,48.4909482 112.225818,47.83634 L111.495278,43.6890084 L103.688515,43.1068878 L103.688515,49.5664289 L100.720372,49.0730688 C99.6264166,48.9273537 99.5529918,48.7823784 99.5529918,47.6181372 L99.5529918,29.9370574 C99.5529918,19.7510571 95.1022613,16.7664873 84.0128892,16.7664873 C77.3008228,16.7664873 68.325937,18.1496709 68.325937,27.9717533 L78.6135695,28.8460437 C78.6135695,24.4797696 80.4380649,23.9708764 83.9394644,23.9708764 C88.4636197,23.9708764 88.8277771,26.298619 88.8277771,29.7188547 L88.8277771,33.7212109 L80.4380649,34.3025918 C71.3185545,34.8847123 66.7943992,38.2317206 66.7943992,45.5078578 C66.7943992,50.0198468 68.2547372,56.2767183 77.4461891,56.2767183 C83.2830911,56.2767183 86.9313402,54.0939511 89.7029416,51.401551 L90.067099,51.4740387 L90.7976388,55.4031676 L104.222513,55.4031676 L104.222513,53.9334426 C106.268767,54.8528528 112.135335,56.2767183 118.134662,56.2767183 C127.401022,56.2767183 134.623354,52.6382798 134.623354,43.7614961 C134.623354,35.2486301 128.129337,33.2108383 122.365859,31.9016218 Z M334.388987,44.5621892 C332.419126,46.2360632 329.719466,47.6909948 327.238597,47.6909948 C322.641017,47.6909948 320.599955,43.7618659 320.599955,36.7039315 C320.599955,30.2281177 322.715183,25.2072354 328.114503,25.2072354 C330.22899,25.2072354 332.564492,26.1532738 334.388987,27.3907423 L334.388987,44.5621892 Z M346.49889,49.1459263 C345.404935,49.0009509 345.33151,48.8552359 345.33151,47.7634825 L345.33151,0.468221186 L330.666572,0.468221186 L329.864832,6.36191446 L333.87798,7.745098 C334.534354,7.96330075 334.82657,8.47219395 334.82657,9.20002956 L334.82657,20.2595805 C332.053485,18.2217887 328.770877,16.7668572 324.538937,16.7668572 C316.439958,16.7668572 309.073001,22.2973723 309.073001,36.9221343 C309.073001,50.8190606 314.617687,56.2763484 323.226191,56.2763484 C328.552085,56.2763484 332.12691,54.2385566 335.190727,51.2554661 L335.701734,51.3286935 L336.430791,55.4035374 L350.00029,55.4035374 L350.00029,49.6555592 L346.49889,49.1459263 Z M223.642339,23.8976491 L223.873738,23.8525292 C224.562003,22.3805852 225.361518,20.9715132 226.270057,19.6401066 L226.270057,17.4950626 L210.947262,17.4950626 L210.000156,23.5337313 L214.158671,23.9708764 L208.68741,44.4161043 L208.249827,44.4161043 L201.974602,18.4403613 L190.957171,18.4403613 L184.465379,44.4161043 L183.954372,44.4161043 L178.11747,23.9708764 L182.203301,23.5337313 L182.203301,17.4950626 L163.744748,17.4950626 L163.560815,18.4248282 C160.933096,17.6622281 156.272475,16.7664873 151.506537,16.7664873 C143.116825,16.7664873 135.384227,20.4781531 135.384227,29.5006519 C135.384227,39.0327836 143.409041,40.3420001 149.537417,41.4330138 C153.257607,42.0883618 156.176058,42.9611728 156.176058,45.8717756 C156.176058,48.5641756 153.987406,49.6551894 150.121849,49.6551894 C147.348764,49.6551894 145.378902,49.2187839 144.503738,48.9273537 C143.847364,48.7823784 143.699773,48.4909482 143.628573,47.83634 L142.898034,43.6890084 L135.09127,43.1068878 L135.09127,53.6575456 C136.404758,54.5303566 142.898034,56.2767183 149.537417,56.2767183 C158.803777,56.2767183 166.026109,52.6390195 166.026109,43.7614961 C166.026109,35.2486301 159.532092,33.2108383 153.768615,31.9016218 C149.318626,30.8830958 145.305477,30.2277479 145.305477,27.2446574 C145.305477,24.9161751 147.348764,23.5337313 150.997013,23.5337313 C152.966875,23.5337313 154.717945,23.8251614 155.666535,24.1158518 C156.176058,24.2615669 156.322908,24.5522573 156.39485,25.1343779 L157.124648,28.9185313 L164.931411,29.4274245 L164.931411,23.8917317 L165.641185,24.0433641 C166.516349,24.2615669 166.882732,24.4072819 167.173464,25.2808326 L176.366399,55.4031676 L189.499058,55.4031676 L195.262535,31.0288108 L195.700117,31.0288108 L201.39017,55.4031676 L212.918607,55.4031676 L221.891268,25.3533203 C222.184226,24.4072819 222.621808,24.0433641 223.642339,23.8976491 Z M299.08285,25.7170162 C299.667282,25.7170162 299.886073,25.8619916 300.03144,26.5173395 L300.76198,30.3739807 L309.515849,30.6646711 L309.515849,17.422353 C308.202361,17.0584352 304.846328,16.7670051 303.169424,16.7670051 C298.499902,16.7670051 295.289235,19.6051202 292.881791,23.3153066 L292.444209,23.3153066 L291.568303,17.4948407 L278.728602,17.4948407 L277.999545,22.8404383 C278.118953,23.0734344 278.242811,23.3034719 278.356286,23.5401664 L281.865844,24.7709778 C282.594159,24.9891806 282.81295,25.4988135 282.81295,26.2983971 L282.81295,47.6179153 C282.81295,48.7089291 282.667583,48.9271318 281.647053,49.0728469 L278.362219,49.5099921 L278.362219,55.4036853 L302.220093,55.4036853 L302.220093,49.5824798 L294.998502,49.0010989 C293.903805,48.9271318 293.83038,48.7089291 293.83038,47.5454276 L293.83038,28.2637012 C294.925078,27.3176628 297.186414,25.7170162 299.08285,25.7170162 Z" id="Fill-1" fill="#010202"></path>
                <g id="app-icon" transform="translate(220.000000, 5.000000)">
                    <path d="M31,7 C44.2547239,7 55,17.7452761 55,31 C55,44.2552238 44.2547239,55 31,55 C17.7452761,55 7,44.2552238 7,31 C7,17.7452761 17.7452761,7 31,7" id="color" fill="#198CFF"></path>
                    <g id="lock">
                        <g id="Chrome">
                            <path d="M1,31 C1,47.5690788 14.4314385,61 31,61 C47.5685615,61 61,47.5690788 61,31 C61,14.4314385 47.5685615,1 31,1 C14.4314385,1 1,14.4314385 1,31 Z M7,31 C7,44.2552238 17.7452761,55 31,55 C44.2547239,55 55,44.2552238 55,31 C55,17.7452761 44.2547239,7 31,7 C17.7452761,7 7,17.7452761 7,31 Z" id="chrome" fill="#FFFFFF"></path>
                            <path d="M0,31 C0,48.1213814 13.8791531,62 31,62 C48.1208469,62 62,48.1213814 62,31 C62,13.8791531 48.1208469,0 31,0 C13.8791531,0 0,13.8791531 0,31 L0,31 Z M1,31 L1,31 C1,14.4332523 14.4295951,1 31,1 C47.5704049,1 61,14.4332523 61,31 C61,47.5670777 47.5705748,61 31,61 C14.4294252,61 1,47.5670777 1,31 L1,31 Z M8,30.9979191 C8,43.6996927 18.2975563,53.9958382 31,53.9958382 C43.7024437,53.9958382 54,43.6996927 54,30.9979191 C54,18.2966246 43.7024437,8 31,8 C18.2975563,8 8,18.2966246 8,30.9979191 L8,30.9979191 Z M7,31 L7,31 C7,17.7470124 17.7435015,7 31,7 C44.2564985,7 55,17.7470124 55,31 C55,44.2533049 44.256661,55 31,55 C17.743339,55 7,44.2533049 7,31 L7,31 Z" id="chrome" fill="#000000" opacity="0.5"></path>
                            <path d="M41.3195702,56.0777316 C50.4488574,52.1865706 56.8475592,43.1506151 56.8475592,32.6222147 C56.8475592,18.5404225 45.4022862,7.12443149 31.2831253,7.12443149 C17.1644707,7.12443149 5.71869145,18.5404225 5.71869145,32.6222147 C5.71869145,46.6626063 17.0971425,58.0488089 31.1580874,58.1164637 C31.1150582,58.1169686 31.0730414,58.119998 31.0300121,58.119998 C16.2122588,58.119998 4.20001221,46.1390389 4.20001221,31.3599982 C4.20001221,16.5809576 16.2122588,4.59999847 31.0300121,4.59999847 C45.8477655,4.59999847 57.8600121,16.5809576 57.8600121,31.3599982 C57.8600121,42.5028455 51.0305115,52.051261 41.3195702,56.0777316 Z M30.5119332,58.4197413 C47.0646461,58.4197413 60.4832368,45.03672 60.4832368,28.52852 C60.4832368,26.9891221 60.3659333,25.4770386 60.1411447,24 C60.6982071,26.2784326 60.9999924,28.6563308 60.9999924,31.1053494 C60.9999924,47.6140648 47.5814017,60.9960554 31.0286887,60.9960554 C16.0195245,60.9960554 3.58793679,49.9929937 1.3999939,35.6338695 C4.59767709,48.7107634 16.4153592,58.4197413 30.5119332,58.4197413 Z" id="chrome-shadows" fill-opacity="0.100000001" fill="#000000"></path>
                        </g>
                        <path d="M31,13 C40.941,13 49,21.059 49,31 C49,40.9415 40.941,49 31,49 C21.059,49 13,40.9415 13,31 C13,21.059 21.059,13 31,13 L31,13 Z" id="inside" fill="#F3F3F3"></path>
                        <path d="M31,13 L31,13 L31,13 C21.059,13 13,21.059 13,31 C13,40.9415 21.059,49 31,49 C40.941,49 49,40.9415 49,31 C49,21.059 40.941,13 31,13 L31,13 Z M31,12 L31,12 C41.4932847,12 50,20.5067153 50,31 C50,41.4936164 41.4934531,50 31,50 C20.5065469,50 12,41.4936164 12,31 C12,20.5067153 20.5067153,12 31,12 L31,12 Z" id="inside" fill-opacity="0.25" fill="#000000"></path>
                        <g id="Fill-12">
                            <use fill-opacity="0.05" fill="#000000" fill-rule="evenodd" xlink:href="#path-1"></use>
                            <use fill="none" xlink:href="#path-1"></use>
                        </g>
                        <path d="M38,31 L38,31 C38,27.1340418 34.8659723,24 31,24 C27.1340277,24 24,27.1340418 24,31 C24,34.8659582 27.1340277,38 31,38 C34.8659723,38 38,34.8659582 38,31 L38,31 Z M39,31 C39,35.4182239 35.4182761,39 31,39 C26.5817239,39 23,35.4182239 23,31 C23,26.5817761 26.5817239,23 31,23 C35.4182761,23 39,26.5817761 39,31 L39,31 Z" id="Fill-12" fill-opacity="0.15" fill="#000000"></path>
                        <path d="M39,31 L39,31 C39,26.5817761 35.4182761,23 31,23 C26.5817239,23 23,26.5817761 23,31 C23,35.4182239 26.5817239,39 31,39 C35.4182761,39 39,35.4182239 39,31 L39,31 Z M40,31 L40,31 C40,35.9705257 35.9705438,40 31,40 C26.0294562,40 22,35.9705257 22,31 C22,26.0294743 26.0294562,22 31,22 C35.9705438,22 40,26.0294743 40,31 L40,31 Z" id="Fill-12" fill="#FFFFFF"></path>
                    </g>
                    <path d="M35,32.9294336 L35,19 L27,19 L27,45 L35,45 L35,36.6420612 L33.0008751,34.7855153 L35,32.9294336 Z M27,27.3579387 L27,31.0714949 L28.999625,29.2144847 L27,27.3579387 Z" id="keyhole-highlight" fill="#FFFFFF"></path>
                    <path d="M35,31.9294336 L35,18 L27,18 L27,44 L35,44 L35,35.6420612 L33.0008751,33.7855153 L35,31.9294336 Z M27,26.3579387 L27,30.0714949 L28.999625,28.2144847 L27,26.3579387 Z" id="keyhole" fill="#4C4C4C"></path>
                    <path d="M33.9996249,32.3579387 L33.9996249,20 L28,20 L28,44 L33.9996249,44 L33.9996249,36.9880102 C33.99925,36.9875327 32.500375,35.0787588 32.500375,35.0787588 C32.500375,35.0787588 32.500375,34.0712449 32.500375,34.0712449 L33.9996249,32.3579387 Z M28,31.6196524 L29.499625,29.9429557 L29.499625,28.9287551 L28,27.2150204 L28,31.6196524 Z" id="keyhole-center" fill="#7F7F7F"></path>
                </g>
            </g>
        </g>
    </g>
</svg>