<?xml version="1.0" encoding="utf-8"?>
<!-- Generator: Adobe Illustrator 16.0.0, SVG Export Plug-In . SVG Version: 6.00 Build 0)  -->
<!DOCTYPE svg PUBLIC "-//W3C//DTD SVG 1.1//EN" "http://www.w3.org/Graphics/SVG/1.1/DTD/svg11.dtd">
<svg version="1.1" id="Layer_1" xmlns="http://www.w3.org/2000/svg" xmlns:xlink="http://www.w3.org/1999/xlink" x="0px" y="0px"
	 width="469.086px" height="469.091px" viewBox="0 0 469.086 469.091" enable-background="new 0 0 469.086 469.091"
	 xml:space="preserve">
<path display="none" fill-rule="evenodd" clip-rule="evenodd" fill="#CB2128" d="M238.203,363.388
	c7.744,6.764,16.868,12.031,27.382,15.785c10.524,3.768,20.752,5.647,30.716,5.647c24.7,0,45.733-8.84,63.062-26.519
	c7.041-7.175,12.669-14.981,16.852-23.412h-44.666v-29.734h25.92h27.307h30.581c-2.354,28.406-13.829,53.263-34.419,74.578
	c-23.235,24.062-51.449,36.111-84.637,36.111c-20.661,0-40.207-5.451-58.649-16.359c-13.146-7.784-24.417-15.524-33.814-26.914
	H49.664c-0.419-14.86,4.05-42.956,13.423-60.062c9.375-17.11,31.033-46.149,55.986-67.849
	c29.173-25.303,48.266-45.323,57.286-60.051c9.02-14.717,13.528-28.946,13.528-42.653c0-15.836-4.615-29.337-13.84-40.509
	c-8.263-9.998-19.62-19.215-48.241-18.61H84.962l20.804-31.606h276.293l-73.028,121.517c30.231,3.378,55.582,16.633,76.057,39.759
	c19.107,21.58,29.299,46.681,30.58,75.308h-30.482c-1.318-22.531-9.928-41.896-25.822-58.102
	C342.034,212.046,321,203.208,296.3,203.208c-16.229,0-35.824,3.947-49.096,11.836l79.254-132.206H202.991
	c13.969,13.941,21.472,27.275,20.696,58.791c-0.479,19.738-7.037,43.555-17.48,60.311c-10.443,16.757-30.268,38.355-59.49,64.791
	c-18.623,16.652-33.133,32.163-40.598,47.255c-6.255,12.638-8.689,20.075-8.369,26.864l122.469,0.01c0,0,0.521,0.896,0.898,1.588
	C227.068,353.366,234.476,360.115,238.203,363.388z M234.546-63.031C70.197-63.031-63.03,70.201-63.03,234.547
	c0,164.354,133.228,297.575,297.577,297.575c164.352,0,297.57-133.222,297.57-297.575C532.117,70.201,398.898-63.031,234.546-63.031
	z"/>
<path fill-rule="evenodd" clip-rule="evenodd" fill="#CB222F" d="M237.567,336.295c6.108,5.333,13.304,9.488,21.595,12.448
	c8.3,2.972,16.365,4.454,24.225,4.454c19.48,0,36.067-6.971,49.734-20.913c5.552-5.66,9.991-11.816,13.29-18.464h-35.227v-23.45
	h20.442h21.535h24.117c-1.857,22.403-10.906,42.004-27.144,58.816c-18.325,18.976-40.576,28.479-66.749,28.479
	c-16.296,0-31.71-4.299-46.254-12.901c-10.368-6.14-19.256-12.245-26.668-21.225H88.875c-0.33-11.723,3.194-33.88,10.586-47.369
	c7.394-13.494,24.475-36.396,44.154-53.509c23.007-19.956,38.065-35.745,45.178-47.359c7.114-11.606,10.669-22.828,10.669-33.638
	c0-12.489-3.639-23.137-10.915-31.947c-6.517-7.885-15.473-15.154-38.046-14.677h-33.787l16.407-24.926h217.898l-57.593,95.833
	c23.842,2.665,43.834,13.118,59.98,31.356c15.07,17.02,23.107,36.815,24.118,59.391h-24.04c-1.041-17.77-7.83-33.04-20.364-45.821
	c-13.667-13.934-30.254-20.903-49.734-20.903c-12.8,0-28.254,3.113-38.72,9.335L307.17,115.04h-97.373
	c11.017,10.995,16.934,21.511,16.321,46.366c-0.377,15.566-5.549,34.35-13.786,47.564c-8.235,13.215-23.871,30.249-46.917,51.097
	c-14.687,13.132-26.13,25.365-32.018,37.268c-4.933,9.967-6.853,15.832-6.6,21.187l96.585,0.008c0,0,0.411,0.707,0.708,1.252
	C228.786,328.39,234.627,333.713,237.567,336.295z M234.684,0C105.07,0,0,105.073,0,234.684
	c0,129.617,105.07,234.683,234.684,234.683c129.616,0,234.678-105.065,234.678-234.683C469.362,105.073,364.299,0,234.684,0z"/>
</svg>
