<?xml version="1.0" encoding="UTF-8" standalone="no"?>
<svg width="404px" height="404px" viewBox="0 0 404 404" version="1.1" xmlns="http://www.w3.org/2000/svg" xmlns:xlink="http://www.w3.org/1999/xlink">
    <!-- Generator: Sketch 3.6.1 (26313) - http://www.bohemiancoding.com/sketch -->
    <title>23g</title>
    <desc>Created with Sketch.</desc>
    <defs></defs>
    <g id="Page-1" stroke="none" stroke-width="1" fill="none" fill-rule="evenodd">
        <g id="23g" transform="translate(-54.000000, -54.000000)" fill="#CB222F">
            <path d="M258.630325,343.301575 C263.868677,347.87527 270.040121,351.438687 277.15066,353.977246 C284.268918,356.526097 291.185635,357.797092 297.926539,357.797092 C314.633005,357.797092 328.858372,351.818613 340.579484,339.861655 C345.340998,335.007518 349.14798,329.728 351.977273,324.026533 L321.765843,324.026533 L321.765843,303.91531 L339.29734,303.91531 L357.766218,303.91531 L378.449474,303.91531 C376.856871,323.128603 369.096255,339.938841 355.170198,354.357173 C339.454285,370.631397 320.37135,378.781374 297.924824,378.781374 C283.949025,378.781374 270.729648,375.094459 258.256402,367.717199 C249.364583,362.451404 241.742044,357.215625 235.385353,349.514184 L131.108878,349.514184 C130.825863,339.460288 133.848121,320.45797 140.187658,308.889514 C146.528911,297.316771 161.177943,277.675524 178.055075,262.999049 C197.786372,245.884355 210.700436,232.34337 216.800697,222.382955 C222.901816,212.4294 225.95066,202.805173 225.95066,193.534285 C225.95066,182.823451 222.829776,173.691497 216.589722,166.135853 C211.000603,159.373508 203.319745,153.139457 183.960657,153.548543 L154.984201,153.548543 L169.055196,132.171471 L355.929193,132.171471 L306.536201,214.359906 C326.983611,216.645467 344.129179,225.610184 357.976335,241.251484 C370.90069,255.848201 377.793394,272.824817 378.660449,292.186479 L358.043229,292.186479 C357.150446,276.946546 351.328054,263.850667 340.578626,252.889407 C328.857514,240.93931 314.632147,234.962546 297.925682,234.962546 C286.948127,234.962546 273.694446,237.632322 264.71858,242.968442 L318.32335,153.548543 L234.814178,153.548543 C244.262593,162.97809 249.337139,171.996838 248.811417,193.313018 C248.488094,206.662754 244.052476,222.772315 236.988248,234.104925 C229.925735,245.438392 216.515966,260.047116 196.751223,277.926807 C184.155337,289.189092 174.341575,299.680375 169.291899,309.888643 C165.061253,318.436556 163.41462,323.466506 163.631598,328.059069 L246.464965,328.06593 C246.464965,328.06593 246.817447,328.672268 247.072161,329.139672 C251.099551,336.522077 256.108918,341.087196 258.630325,343.301575 L258.630325,343.301575 Z M256.157802,54.8877722 C144.998057,54.8877722 54.8877722,145.00063 54.8877722,256.157802 C54.8877722,367.320121 144.998057,457.426975 256.157802,457.426975 C367.319263,457.426975 457.422687,367.320978 457.422687,256.157802 C457.422687,145.00063 367.318405,54.8877722 256.157802,54.8877722 L256.157802,54.8877722 Z" id="Shape"></path>
        </g>
    </g>
</svg>