<?xml version="1.0" encoding="UTF-8" standalone="no"?>
<svg width="1129px" height="512px" viewBox="0 0 1129 512" version="1.1" xmlns="http://www.w3.org/2000/svg" xmlns:xlink="http://www.w3.org/1999/xlink">
    <!-- Generator: Sketch 3.6.1 (26313) - http://www.bohemiancoding.com/sketch -->
    <title>3LTLB</title>
    <desc>Created with Sketch.</desc>
    <defs></defs>
    <g id="Page-1" stroke="none" stroke-width="1" fill="none" fill-rule="evenodd">
        <g id="3LTLB" transform="translate(564.800000, 255.900000) scale(1, -1) translate(-564.800000, -255.900000) translate(0.300000, -0.100000)" fill="#000000">
            <path d="M540.511562,505.234545 C540.511562,492.911751 543.16942,487.596036 548.968381,487.596036 C551.867862,487.596036 557.183577,484.938178 560.566305,481.797074 C566.123643,476.722983 570.231241,475.998112 604.783388,473.340255 C626.046248,471.648891 647.067485,469.715904 651.658329,469.232657 L660.115149,467.782916 L659.390278,479.864087 C658.907032,486.629542 659.631902,494.119868 661.081642,496.777725 C664.46437,502.818311 662.773006,504.026428 647.792355,505.717791 C641.268523,506.442662 628.945729,508.134025 620.247286,509.342143 C611.548844,510.55026 590.044361,511.758377 572.647475,511.758377 L540.511562,511.758377 L540.511562,505.234545 L540.511562,505.234545 Z" id="Shape"></path>
            <path d="M464.400189,503.059934 C457.876357,501.36857 450.144408,499.677206 447.48655,499.677206 C443.862199,499.677206 441.204342,496.052855 436.85512,485.663049 C433.472393,478.172723 428.639924,468.74941 425.982067,464.883436 L421.391222,457.876357 L428.398301,459.326097 C432.264276,460.292591 449.177914,463.433695 466.333176,466.333176 C483.246815,469.47428 497.019349,472.857008 497.019349,474.065125 C497.019349,477.447853 480.10571,506.925908 478.172723,506.684285 C477.206229,506.684285 471.165644,504.992921 464.400189,503.059934 L464.400189,503.059934 Z" id="Shape"></path>
            <path d="M355.428032,472.857008 C351.320434,471.648891 331.265691,462.225578 310.727702,451.835772 C251.04672,421.874469 210.453988,392.638037 162.612553,345.521472 C115.495989,298.888155 82.3935819,252.738084 52.4322794,191.607362 C23.9207173,133.134497 8.94006607,85.7763096 0.724870222,26.8201982 L0,21.2628598 L55.3317603,21.2628598 C97.3742331,21.2628598 110.663521,21.9877301 111.388391,24.4039641 C142.799434,133.376121 189.674375,209.729118 264.819254,273.517697 C295.02218,298.888155 313.143936,310.969325 354.703162,332.957055 C373.791411,343.105238 388.288815,352.286928 393.121284,357.844266 C410.034922,377.174139 432.264276,384.181218 454.976876,377.657386 C468.991034,373.549788 474.789995,373.791411 503.059934,379.348749 C525.772534,383.697971 605.025012,382.973101 634.261444,378.140632 C694.425672,367.992449 747.824445,348.9042 800.498348,317.976404 C858.971213,283.907504 916.960831,227.850873 954.412459,169.378008 C968.66824,147.148655 993.313827,98.3407268 997.421425,84.0849457 C999.112789,78.0443605 1001.2874,72.2453988 1002.01227,70.7956583 C1003.70363,68.3794243 1012.16045,40.351109 1015.05993,28.0283152 C1016.02643,23.4374705 1018.20104,21.2628598 1021.34214,21.2628598 C1027.62435,21.2628598 1027.38273,21.9877301 1019.16753,56.2982539 C984.615385,197.406324 883.375177,317.00991 749.999056,374.516281 C731.635677,382.731477 724.870222,384.181218 710.614441,384.664464 C694.908919,384.906088 692.251062,385.630958 683.794243,392.396413 C660.840019,411.001416 563.707409,418.491741 489.770647,407.377065 C306.861727,380.07362 134.342614,270.134969 48.8079283,126.127419 C40.1094856,111.630014 33.1024068,100.756961 33.1024068,101.723454 C33.1024068,105.831052 50.9825389,146.665408 62.8220859,169.619632 C89.1590373,221.085418 121.053327,264.336008 165.753657,308.794714 C221.085418,363.884851 282.21614,405.202454 347.937706,432.022652 C359.777253,436.85512 361.710241,438.546484 361.710241,444.103823 C361.710241,447.48655 363.159981,455.94337 365.092968,462.950448 C368.475696,476.481359 368.475696,476.722983 355.428032,472.857008 L355.428032,472.857008 Z" id="Shape"></path>
            <path d="M817.170363,448.936291 C816.20387,447.48655 809.680038,442.654082 802.189712,437.821614 L788.900425,429.364795 L816.20387,415.350637 C928.317131,358.81076 1014.09344,272.067957 1072.08306,156.571968 C1090.44644,120.086833 1103.97735,81.1854648 1116.05852,30.4445493 C1117.74988,23.1958471 1119.19962,21.2628598 1123.79047,21.2628598 C1129.10618,21.2628598 1129.10618,21.2628598 1126.44832,38.9013686 C1123.54884,56.2982539 1112.67579,101.481831 1108.56819,113.079755 C1092.86267,156.813591 1089.72157,164.062294 1075.94903,192.815479 C1061.93487,221.568664 1051.06182,239.932043 1027.62435,273.75932 C998.629542,315.801793 945.472393,369.200566 900.530439,401.819726 C883.133554,414.625767 848.82303,436.85512 846.648419,436.85512 C845.681925,436.85512 839.64134,440.237848 833.359132,444.103823 C820.069844,452.077395 819.344974,452.319018 817.170363,448.936291 L817.170363,448.936291 Z" id="Shape"></path>
            <path d="M416.075507,368.958943 C387.805569,354.944785 376.449269,325.225106 387.322322,293.089193 C391.188296,281.974516 408.101935,261.67815 418.008495,256.362435 C421.874469,254.429448 421.874469,253.462954 418.491741,245.247758 C413.41765,232.683341 413.900897,210.937235 419.941482,197.647947 C433.230769,168.169891 457.876357,156.571968 490.01227,164.787164 C525.289287,173.968853 544.860783,196.923077 535.195847,218.185937 C531.813119,225.434639 529.396885,225.917886 527.222275,219.394054 C523.3563,207.312883 490.253893,187.983011 473.098631,187.983011 C456.184993,187.983011 440.479471,207.79613 442.170835,227.367626 C443.620576,242.831524 448.21142,247.422369 483.005191,265.785748 C517.074092,283.424257 520.698443,287.531855 515.382728,300.096272 C513.44974,304.92874 510.791883,308.794714 509.583766,308.794714 C508.375649,308.794714 492.911751,301.062765 475.031619,291.639453 L442.654082,274.725814 L434.197263,279.316659 C429.606418,281.974516 422.599339,288.498348 418.491741,294.29731 C408.585182,308.069844 408.101935,326.91647 417.283624,336.581406 C431.056159,351.803681 450.144408,353.011798 468.02454,339.964134 L477.689476,332.957055 L477.689476,343.588485 C477.689476,355.911279 471.165644,365.817839 459.326097,370.650307 C447.728174,375.482775 427.431807,374.757905 416.075507,368.958943 L416.075507,368.958943 Z" id="Shape"></path>
            <path d="M564.673903,169.378008 C564.673903,89.6422841 564.190656,79.494101 560.324681,72.0037754 C554.767343,60.6474752 547.518641,57.5063709 526.739028,57.5063709 C493.878244,57.5063709 489.770647,63.0637093 489.770647,107.76404 C489.770647,149.806513 486.387919,156.571968 464.641812,156.571968 L454.010382,156.571968 L453.043889,114.287872 L452.319018,72.0037754 L445.553563,65.4799434 L439.029731,58.714488 L370.650307,57.9896177 C333.198679,57.5063709 299.129778,57.9896177 294.780557,58.714488 C276.175555,62.0972157 262.644644,82.6352053 260.711656,109.697027 C259.261916,131.684757 264.336008,147.390278 277.383672,162.37093 L287.290231,173.485606 L274.725814,173.485606 C248.872109,173.485606 233.408211,157.538462 228.33412,126.127419 C222.051911,84.5681925 241.381784,42.0424729 272.792827,28.5115621 C281.974516,24.6455875 292.122699,22.7126003 310.244455,21.7461067 C327.64134,21.0212364 335.131666,19.571496 335.131666,17.6385087 C335.131666,11.5979235 345.279849,2.17461067 353.011798,0.483246815 C363.401605,-1.44974044 374.516281,4.34922133 378.382256,13.5309108 L381.281737,20.5379896 L414.625767,21.7461067 C444.345446,22.7126003 448.936291,23.4374705 458.601227,28.7531855 L469.47428,34.7937706 L481.313827,28.7531855 C492.428504,22.9542237 495.811232,22.4709769 526.014158,22.4709769 C556.217084,22.4709769 559.599811,22.9542237 570.472865,28.5115621 L582.312412,34.5521472 L594.635205,28.5115621 L606.957999,22.4709769 L746.616328,21.7461067 C867.186409,21.0212364 887.241151,21.5044832 892.07362,24.6455875 C907.537518,34.7937706 906.329401,95.4412459 889.899009,131.684757 C872.502124,169.136385 842.057574,187.983011 798.082114,187.983011 C781.410099,187.983011 776.094384,187.016517 765.462954,181.700802 C749.999056,173.968853 731.394054,155.847098 721.729118,138.933459 L714.480415,126.369042 L714.480415,183.875413 C714.480415,255.637565 713.755545,257.812176 687.418594,258.053799 L678.236904,258.053799 L678.236904,157.780085 L678.236904,57.5063709 L649.242095,57.5063709 C616.864559,57.5063709 607.199622,60.4058518 603.333648,71.0372817 C601.883908,74.4200094 600.917414,112.113261 600.917414,157.538462 C600.917414,207.554507 599.95092,240.656914 598.50118,245.247758 C595.360076,253.946201 587.386503,258.053799 574.338839,258.053799 L564.673903,258.053799 L564.673903,169.378008 L564.673903,169.378008 Z M830.218027,141.349693 C848.09816,129.510146 860.17933,104.381312 864.286928,71.5205286 L865.736668,57.5063709 L791.558282,57.5063709 L717.138273,57.5063709 L721.004247,70.3124115 C725.836715,87.22605 739.367626,112.838131 749.999056,125.160925 C754.589901,130.47664 764.013214,138.208589 771.020293,142.316187 C782.134969,148.840019 785.03445,149.564889 801.706465,148.840019 C816.92874,148.115149 821.519585,146.907032 830.218027,141.349693 L830.218027,141.349693 Z" id="Shape"></path>
        </g>
    </g>
</svg>