<?xml version="1.0" encoding="UTF-8" standalone="no"?>
<svg width="493px" height="510px" viewBox="0 0 493 510" version="1.1" xmlns="http://www.w3.org/2000/svg" xmlns:xlink="http://www.w3.org/1999/xlink">
    <!-- Generator: Sketch 3.6.1 (26313) - http://www.bohemiancoding.com/sketch -->
    <title>4chan</title>
    <desc>Created with Sketch.</desc>
    <defs></defs>
    <g id="Page-1" stroke="none" stroke-width="1" fill="none" fill-rule="evenodd">
        <g id="4chan" transform="translate(-1.000000, -1.000000)">
            <g id="#006701ff" transform="translate(283.607843, 0.000000)" fill="#006701">
                <path d="M26.7796078,16.5145098 C38.9521569,-0.100392157 65.3803922,-3.7145098 81.3678431,9.36156863 C93.9419608,19.174902 101.396078,33.5560784 108.8,47.3098039 C113.141961,39.5294118 119.617255,32.1505882 128.803137,30.3937255 C141.402353,27.6580392 153.34902,35.0368627 162.359216,43.1184314 C185.072941,65.0792157 193.857255,100.542745 183.190588,130.409412 C174.531765,155.306667 154.202353,174.356078 131.865098,187.331765 C101.295686,205.728627 66.1333333,213.835294 31.6988235,221.515294 C12.774902,185.047843 2.71058824,143.836863 1.8572549,102.751373 C2.23372549,72.7090196 7.42901961,40.5835294 26.7796078,16.5145098 L26.7796078,16.5145098 Z M47.4854902,19.4509804 C33.1796078,26.7545098 26.1521569,42.3403922 21.9858824,57.0478431 C13.3270588,90.8047059 15.7866667,126.745098 24.4956863,160.225882 C28.3356863,175.510588 33.7819608,190.268235 39.3788235,204.975686 C56.0188235,203.218824 71.9058824,197.772549 87.692549,192.501961 C115.852549,182.086275 143.36,165.596863 159.498039,139.52 C170.164706,122.252549 172.8,101.069804 168.985098,81.3176471 C164.86902,67.0117647 156.41098,51.4509804 140.624314,48.1129412 C128.853333,45.9294118 120.470588,56.5458824 114.898824,65.305098 C113.844706,68.5427451 112.740392,71.7552941 111.61098,74.9678431 C110.531765,77.6533333 109.452549,80.3639216 108.373333,83.0494118 C100.894118,63.372549 92.5113725,43.2690196 77.5780392,27.9592157 C69.8227451,20.6305882 58.0517647,15.1341176 47.4854902,19.4509804 L47.4854902,19.4509804 Z" id="Shape"></path>
            </g>
            <g id="#61a54dff" transform="translate(298.666667, 17.568627)" fill="#61A54D">
                <path d="M32.4266667,1.88235294 C42.9929412,-2.4345098 54.7639216,3.06196078 62.5192157,10.3905882 C77.452549,25.7003922 85.8352941,45.8039216 93.3145098,65.4807843 C94.3937255,62.7952941 95.4729412,60.0847059 96.5521569,57.3992157 C98.56,61.0384314 100.417255,64.8031373 103.002353,68.0909804 C116.153725,69.9231373 129.480784,67.3380392 142.657255,68.8188235 C151.29098,74.0894118 153.926275,85.0823529 149.709804,94.092549 C148.103529,90.88 146.547451,87.692549 144.966275,84.505098 C139.64549,86.8141176 133.898039,87.9184314 128.075294,87.5670588 C94.5694118,86.8141176 61.0133333,87.9686275 27.507451,87.1152941 C21.3584314,87.3411765 14.3058824,84.9819608 8.85960784,88.6713725 C7.15294118,95.3223529 8.65882353,102.174118 9.51215686,108.825098 C10.4156863,114.798431 11.2690196,120.796863 12.2729412,126.745098 C13.5780392,133.822745 15.0086275,140.850196 16.7905882,147.827451 C14.3560784,146.070588 11.9215686,144.338824 9.43686275,142.657255 C0.727843137,109.176471 -1.73176471,73.2360784 6.92705882,39.4792157 C11.0933333,24.7717647 18.1207843,9.18588235 32.4266667,1.88235294 L32.4266667,1.88235294 Z M38.4752941,5.99843137 C22.2870588,10.867451 16.8156863,28.1098039 11.2188235,42.1647059 C9.16078431,48.9160784 8.2572549,55.9686275 7.52941176,62.9960784 C6.19921569,66.4094118 8.8345098,69.8227451 12.3984314,69.3458824 C37.3207843,66.9364706 62.3937255,69.3960784 87.3411765,67.7145098 C85.8603922,62.2682353 84.3796078,56.8219608 82.8737255,51.3756863 L81.5435294,51.6266667 C75.9968627,41.9388235 72.96,30.72 65.305098,22.3121569 C58.5788235,14.1803922 49.9952941,5.19529412 38.4752941,5.99843137 L38.4752941,5.99843137 Z" id="Shape"></path>
            </g>
            <g id="#91c66eff" transform="translate(97.882353, 22.588235)" fill="#91C66E">
                <path d="M239.259608,0.978823529 C250.779608,0.175686275 259.363137,9.16078431 266.089412,17.292549 C273.744314,25.7003922 276.781176,36.9192157 282.327843,46.6070588 C261.396078,50.7733333 239.937255,46.8329412 218.804706,48.8909804 C218.227451,46.9835294 217.625098,45.0760784 217.047843,43.1686275 C216.32,45.1262745 214.91451,49.0666667 214.186667,51.0243137 C213.258039,46.4313725 212.48,41.7882353 212.003137,37.145098 C217.6,23.0901961 223.071373,5.84784314 239.259608,0.978823529 L239.259608,0.978823529 Z" id="Shape"></path>
                <path d="M8.50823529,323.764706 C30.3184314,308.530196 54.2117647,295.579608 80.012549,288.803137 C88.9223529,303.711373 95.4729412,320.175686 101.12,336.64 C96.1003922,335.711373 91.4572549,333.628235 87.3160784,330.666667 C76.4235294,335.761569 64.2258824,333.025882 52.6556863,333.552941 C42.0894118,333.95451 31.5482353,332.900392 21.0070588,333.076078 C14.2054902,334.130196 7.60470588,336.238431 0.752941176,337.041569 C4.11607843,333.101176 6.9772549,328.759216 8.50823529,323.764706 L8.50823529,323.764706 Z" id="Shape"></path>
                <path d="M198.901961,304.966275 C220.436078,301.226667 241.568627,294.826667 263.504314,293.621961 C283.833725,292.417255 304.64,292.291765 324.417255,297.763137 C340.254118,301.678431 357.019608,307.476078 367.585882,320.627451 C372.379608,325.722353 370.17098,333.076078 369.79451,339.275294 C368.740392,338.17098 366.632157,335.937255 365.578039,334.807843 C348.385882,332.649412 331.018039,333.352157 313.72549,333.327059 C289.430588,333.477647 265.135686,333.101176 240.865882,333.352157 C229.998431,333.552941 218.955294,331.821176 208.288627,334.657255 C206.105098,332.724706 203.921569,330.817255 201.763137,328.884706 C200.131765,321.003922 199.203137,312.997647 198.901961,304.966275 L198.901961,304.966275 Z" id="Shape"></path>
            </g>
            <g id="#006600ff" transform="translate(0.000000, 25.098039)" fill="#006600">
                <path d="M56.2447059,18.572549 C80.0878431,0.401568627 114.221176,-3.78980392 141.352157,9.36156863 C162.30902,19.0243137 178.321569,36.9443137 189.69098,56.6713725 C208.288627,88.7466667 216.545882,125.44 222.393725,161.706667 C176.087843,182.161569 124.360784,192.853333 73.8886275,185.072941 C51.9529412,181.007059 29.465098,173.352157 13.5780392,157.038431 C3.61411765,146.974118 -1.73176471,131.011765 4.61803922,117.63451 C13.2015686,98.4094118 32.8784314,88.2698039 50.7482353,79.2847059 C41.8133333,74.2901961 34.2337255,65.7819608 34.0329412,55.014902 C34.2086275,39.9560784 44.5992157,27.1058824 56.2447059,18.572549 L56.2447059,18.572549 Z M58.4031373,35.7647059 C50.7482353,43.2941176 50.572549,57.1231373 58.252549,64.6776471 C66.0831373,72.934902 76.8752941,77.1513725 87.3662745,80.8909804 C65.907451,87.692549 43.4698039,96.2760784 27.9843137,113.342745 C19.9529412,121.675294 17.1419608,136.081569 24.8470588,145.518431 C36.4423529,160.326275 55.6423529,166.450196 73.4117647,169.98902 C118.462745,177.493333 165.320784,169.386667 207.10902,151.667451 C201.712941,118.061176 191.498039,84.4047059 171.444706,56.4705882 C159.673725,41.3615686 144.589804,28.1098039 126.067451,22.1615686 C103.504314,14.3058824 75.2188235,17.6439216 58.4031373,35.7647059 L58.4031373,35.7647059 Z" id="Shape"></path>
                <path d="M91.6580392,307.225098 C119.767843,286.167843 152.771765,272.464314 186.403137,262.952157 L188.335686,263.077647 C215.516863,307.375686 233.913725,359.002353 231.178039,411.557647 C229.521569,432.740392 224.577255,455.002353 210.622745,471.692549 C201.738039,482.509804 186.277647,488.257255 172.8,483.212549 C154.127059,476.586667 141.201569,460.147451 131.363137,443.708235 C126.619608,450.836078 122.553725,459.846275 113.66902,462.556863 C100.040784,467.526275 85.7098039,460.348235 75.1937255,451.865098 C50.547451,431.460392 39.0023529,396.047059 48.3890196,365.251765 C55.014902,341.283137 72.2572549,321.957647 91.6580392,307.225098 L91.6580392,307.225098 Z M84.9317647,334.757647 C80.7654902,339.174902 77.1513725,344.06902 73.9890196,349.264314 C59.5827451,373.50902 57.3490196,406.688627 74.0643137,430.381176 C81.4431373,440.897255 95.0713725,450.484706 108.222745,444.461176 C120.57098,436.856471 124.084706,421.471373 126.443922,408.169412 C138.315294,427.369412 148.329412,449.430588 168.156863,461.879216 C178.246275,468.831373 194.258824,468.655686 201.888627,458.11451 C215.491765,440.922353 217.650196,417.756863 217.298824,396.599216 C215.215686,354.936471 201.512157,314.227451 180.22902,278.512941 C145.267451,290.359216 109.076078,305.694118 84.9317647,334.757647 L84.9317647,334.757647 Z" id="Shape"></path>
            </g>
            <g id="#6aad56ff" transform="translate(20.078431, 42.666667)" fill="#6AAD56">
                <path d="M38.3247059,18.1960784 C55.1403922,0.0752941176 83.4258824,-3.2627451 105.98902,4.59294118 C124.511373,10.5411765 139.595294,23.7929412 151.366275,38.9019608 C171.419608,66.8360784 181.63451,100.492549 187.030588,134.098824 C145.242353,151.818039 98.3843137,159.924706 53.3333333,152.420392 C35.5639216,148.881569 16.3639216,142.757647 4.76862745,127.949804 C-2.93647059,118.512941 -0.125490196,104.106667 7.90588235,95.7741176 C23.3913725,78.707451 45.8290196,70.1239216 67.2878431,63.3223529 C56.7968627,59.5827451 46.0047059,55.3662745 38.1741176,47.1090196 C30.4941176,39.5545098 30.6698039,25.7254902 38.3247059,18.1960784 L38.3247059,18.1960784 Z M43.6454902,21.0823529 C39.0776471,24.7717647 37.145098,31.1466667 38.8517647,36.7686275 C40.96,44.4988235 48.8407843,48.5647059 55.5921569,51.6266667 C66.3592157,53.5341176 77.0007843,48.7654902 87.8682353,49.7443137 C105.010196,50.6478431 122.352941,48.0376471 139.319216,51.3756863 C140.222745,50.5223529 142.054902,48.8407843 142.983529,47.987451 C145.543529,49.4431373 148.128627,50.8988235 150.713725,52.3294118 C141.95451,29.9419608 120.19451,14.4313725 97.4807843,8.43294118 C79.0588235,5.62196078 57.4745098,7.07764706 43.6454902,21.0823529 L43.6454902,21.0823529 Z M76.0972549,61.6658824 C76.3984314,63.6486275 76.6745098,65.6313725 76.9756863,67.6141176 C62.72,69.3207843 49.4431373,75.3192157 36.9192157,82.0956863 C31.0211765,85.1827451 25.574902,89.0729412 19.8776471,92.5364706 C14.4564706,97.0541176 10.0392157,102.575686 6.4,108.599216 C3.56392157,127.472941 23.1905882,137.738039 38.2745098,142.431373 C84.8564706,156.084706 135.052549,147.551373 179.752157,131.036863 C178.748235,124.109804 177.568627,117.207843 176.313725,110.33098 C174.581961,104.658824 172.850196,99.0117647 170.942745,93.3898039 C170.164706,90.4031373 169.386667,87.4164706 168.608627,84.4047059 C165.37098,77.8541176 162.936471,70.7513725 158.293333,65.0290196 C144.414118,59.5576471 129.731765,64.8784314 115.425882,63.6988235 C102.299608,63.1968627 88.9223529,65.305098 76.0972549,61.6658824 L76.0972549,61.6658824 Z" id="Shape"></path>
            </g>
            <g id="#5ca553ff" transform="translate(396.549020, 47.686275)" fill="#5CA553">
                <path d="M1.95764706,17.6188235 C7.52941176,8.85960784 15.9121569,-1.75686275 27.6831373,0.426666667 C43.4698039,3.76470588 51.9278431,19.3254902 56.0439216,33.6313725 C54.2117647,33.1043137 50.547451,32.025098 48.7152941,31.4980392 C45.3019608,21.8101961 41.8133333,9.48705882 30.2682353,6.95215686 C20.6807843,3.7145098 12.3231373,11.1686275 6.2745098,17.6188235 L1.95764706,17.6188235 L1.95764706,17.6188235 Z" id="Shape"></path>
            </g>
            <g id="#91c56eff" transform="translate(57.725490, 47.686275)" fill="#91C56E">
                <path d="M5.99843137,16.0627451 C19.827451,2.05803922 41.4117647,0.602352941 59.8337255,3.41333333 C82.547451,9.41176471 104.307451,24.9223529 113.066667,47.3098039 C110.481569,45.8792157 107.896471,44.4235294 105.336471,42.9678431 C104.407843,43.8211765 102.575686,45.5027451 101.672157,46.3560784 C84.7058824,43.0180392 67.3631373,45.6282353 50.2211765,44.7247059 C39.3537255,43.7458824 28.7121569,48.5145098 17.945098,46.6070588 C11.1937255,43.545098 3.31294118,39.4792157 1.20470588,31.7490196 C-0.501960784,26.1270588 1.43058824,19.7521569 5.99843137,16.0627451 L5.99843137,16.0627451 Z" id="Shape"></path>
            </g>
            <g id="#8cc269ff" transform="translate(401.568627, 52.705882)" fill="#8CC269">
                <path d="M1.25490196,12.5992157 C7.30352941,6.14901961 15.6611765,-1.30509804 25.2486275,1.93254902 C36.7937255,4.46745098 40.2823529,16.7905882 43.6956863,26.4784314 C31.0964706,19.9278431 17.0666667,24.7215686 3.7145098,22.3121569 C2.93647059,19.0494118 2.13333333,15.8117647 1.25490196,12.5992157 L1.25490196,12.5992157 Z" id="Shape"></path>
            </g>
            <g id="#7ab55bff" transform="translate(303.686275, 57.725490)" fill="#7AB55B">
                <path d="M2.50980392,22.8392157 C3.23764706,15.8117647 4.14117647,8.75921569 6.19921569,2.00784314 C6.67607843,6.65098039 7.45411765,11.2941176 8.3827451,15.8870588 C9.11058824,13.9294118 10.5160784,9.98901961 11.2439216,8.03137255 C11.8211765,9.93882353 12.4235294,11.8462745 13.0007843,13.7537255 C34.1333333,11.6956863 55.5921569,15.6360784 76.5239216,11.4698039 L77.8541176,11.2188235 C79.36,16.665098 80.8407843,22.1113725 82.3215686,27.5576471 C57.3741176,29.2392157 32.3011765,26.7796078 7.37882353,29.1890196 C3.81490196,29.6658824 1.17960784,26.252549 2.50980392,22.8392157 L2.50980392,22.8392157 Z" id="Shape"></path>
            </g>
            <g id="#76b258ff" transform="translate(306.196078, 65.254902)" fill="#76B258">
                <path d="M92.3105882,0.0501960784 L96.627451,0.0501960784 C97.5058824,3.2627451 98.3090196,6.50039216 99.0870588,9.76313725 C112.439216,12.172549 126.46902,7.37882353 139.068235,13.9294118 C140.900392,14.4564706 144.564706,15.5356863 146.396863,16.0627451 C150.211765,35.814902 147.576471,56.9976471 136.909804,74.265098 C120.771765,100.341961 93.2643137,116.831373 65.1043137,127.247059 C49.3176471,132.517647 33.4305882,137.963922 16.7905882,139.720784 C11.1937255,125.013333 5.74745098,110.255686 1.90745098,94.9709804 C4.39215686,96.652549 6.82666667,98.3843137 9.26117647,100.141176 C12.7247059,111.184314 16.2133333,122.202353 20.48,132.969412 C60.0345098,126.494118 101.145098,110.883137 126.770196,78.5819608 C127.272157,77.9294118 128.301176,76.5992157 128.828235,75.9466667 C133.571765,69.8729412 136.683922,62.7701961 139.143529,55.5168627 C140.197647,52.48 141.201569,49.4431373 142.180392,46.4062745 C146.396863,37.3960784 143.761569,26.4031373 135.127843,21.132549 C121.951373,19.6517647 108.624314,22.2368627 95.4729412,20.4047059 C92.8878431,17.1168627 91.0305882,13.3521569 89.0227451,9.71294118 C90.1521569,6.50039216 91.2564706,3.28784314 92.3105882,0.0501960784 L92.3105882,0.0501960784 Z" id="Shape"></path>
            </g>
            <g id="#479437ff" transform="translate(306.196078, 100.392157)" fill="#479437">
                <path d="M120.545882,4.74352941 C126.368627,5.09490196 132.116078,3.99058824 137.436863,1.68156863 C139.018039,4.86901961 140.574118,8.05647059 142.180392,11.2690196 C141.201569,14.3058824 140.197647,17.3427451 139.143529,20.3796078 C106.214902,18.0705882 73.1607843,20.1286275 40.1819608,19.3505882 C29.6407843,19.7019608 17.292549,16.64 8.96,25.0227451 C8.65882353,23.8180392 8.03137255,21.4337255 7.70509804,20.2290196 C5.79764706,22.1364706 3.89019608,24.0690196 1.9827451,26.0015686 C1.12941176,19.3505882 -0.376470588,12.4988235 1.33019608,5.84784314 C6.77647059,2.15843137 13.8290196,4.51764706 19.9780392,4.29176471 C53.4839216,5.14509804 87.04,3.99058824 120.545882,4.74352941 L120.545882,4.74352941 Z" id="Shape"></path>
            </g>
            <g id="#4f983cff" transform="translate(55.215686, 102.901961)" fill="#4F983C">
                <path d="M40.96,1.43058824 C53.785098,5.06980392 67.1623529,2.96156863 80.2886275,3.46352941 C94.5945098,4.64313725 109.276863,-0.677647059 123.156078,4.79372549 C127.799216,10.5160784 130.233725,17.6188235 133.471373,24.1694118 C109.402353,19.6768627 84.6054902,23.2909804 60.2352941,22.2117647 C40.7592157,20.6807843 21.2831373,21.8854902 1.78196078,21.8603922 C14.3058824,15.0839216 27.5827451,9.0854902 41.8384314,7.37882353 C41.5372549,5.39607843 41.2611765,3.41333333 40.96,1.43058824 L40.96,1.43058824 Z" id="Shape"></path>
            </g>
            <g id="#1f7b18ff" transform="translate(306.196078, 120.470588)" fill="#1F7B18">
                <path d="M1.9827451,5.92313725 C3.89019608,3.99058824 5.79764706,2.05803922 7.70509804,0.150588235 C8.03137255,1.35529412 8.65882353,3.73960784 8.96,4.94431373 C9.36156863,6.55058824 10.1898039,9.78823529 10.5913725,11.3945098 C29.5905882,9.43686275 48.7152941,10.6666667 67.7898039,10.4407843 C86.0109804,10.5411765 104.232157,9.98901961 122.428235,11.2941176 C122.026667,14.0298039 121.650196,16.7654902 121.273725,19.5011765 C123.607843,17.9701961 125.967059,16.4392157 128.326275,14.9333333 C128.451765,16.3639216 128.702745,19.2752941 128.828235,20.7309804 C128.301176,21.3835294 127.272157,22.7137255 126.770196,23.3662745 C123.783529,23.8431373 120.796863,24.2698039 117.810196,24.6713725 C116.505098,23.5921569 115.2,22.5129412 113.92,21.4337255 C112.991373,22.3372549 111.10902,24.1192157 110.180392,25.0227451 C89.3992157,27.0054902 68.5176471,25.0478431 47.6862745,25.6752941 C33.3301961,26.2776471 19.0243137,25.1482353 4.74352941,23.8431373 C3.73960784,17.894902 2.88627451,11.8964706 1.9827451,5.92313725 L1.9827451,5.92313725 Z" id="Shape"></path>
            </g>
            <g id="#338727ff" transform="translate(313.725490, 117.960784)" fill="#338727">
                <path d="M1.43058824,7.45411765 C9.76313725,-0.928627451 22.1113725,2.13333333 32.652549,1.78196078 C65.6313725,2.56 98.6854902,0.501960784 131.614118,2.81098039 C129.15451,10.0643137 126.042353,17.1670588 121.298824,23.2407843 C121.173333,21.785098 120.922353,18.8737255 120.796863,17.4431373 C118.437647,18.9490196 116.078431,20.48 113.744314,22.0109804 C114.120784,19.2752941 114.497255,16.5396078 114.898824,13.8039216 C96.7027451,12.4988235 78.4815686,13.0509804 60.2603922,12.9505882 C41.1858824,13.1764706 22.0611765,11.9466667 3.06196078,13.9043137 C2.66039216,12.2980392 1.83215686,9.06039216 1.43058824,7.45411765 L1.43058824,7.45411765 Z" id="Shape"></path>
            </g>
            <g id="#348828ff" transform="translate(37.647059, 122.980392)" fill="#348828">
                <path d="M19.3505882,1.78196078 C38.8517647,1.80705882 58.3278431,0.602352941 77.8039216,2.13333333 C102.174118,3.21254902 126.97098,-0.401568627 151.04,4.09098039 C151.818039,7.1027451 152.596078,10.0894118 153.374118,13.0760784 C152.244706,13.2266667 149.960784,13.5027451 148.806275,13.6533333 C148.128627,12.9254902 146.748235,11.52 146.04549,10.7921569 C145.819608,12.0972549 145.342745,14.6572549 145.116863,15.9372549 C110.20549,13.0509804 75.1184314,15.5105882 40.1317647,14.5066667 C27.507451,13.3772549 14.0047059,19.1498039 2.30901961,12.2227451 C8.00627451,8.75921569 13.452549,4.86901961 19.3505882,1.78196078 L19.3505882,1.78196078 Z" id="Shape"></path>
            </g>
            <g id="#1d7715ff" transform="translate(25.098039, 133.019608)" fill="#1D7715">
                <path d="M158.59451,0.752941176 C159.297255,1.48078431 160.677647,2.88627451 161.355294,3.61411765 C162.509804,3.46352941 164.793725,3.18745098 165.923137,3.03686275 C167.830588,8.65882353 169.562353,14.3058824 171.294118,19.9780392 C164.517647,17.4431373 157.289412,17.5184314 150.186667,18.0203922 C110.983529,17.3929412 71.7552941,18.1207843 32.5521569,17.8196078 C22.1615686,17.894902 11.7709804,19.225098 1.38039216,18.2462745 C5.01960784,12.2227451 9.43686275,6.70117647 14.8580392,2.18352941 C26.5537255,9.11058824 40.0564706,3.33803922 52.6807843,4.46745098 C87.667451,5.47137255 122.75451,3.01176471 157.665882,5.89803922 C157.891765,4.61803922 158.368627,2.05803922 158.59451,0.752941176 L158.59451,0.752941176 Z" id="Shape"></path>
            </g>
            <g id="#026701ff" transform="translate(25.098039, 140.549020)" fill="#026701">
                <path d="M395.018039,1.35529412 C396.298039,2.4345098 397.603137,3.51372549 398.908235,4.59294118 C401.894902,4.19137255 404.881569,3.76470588 407.868235,3.28784314 C382.243137,35.5890196 341.132549,51.2 301.578039,57.6752941 C297.311373,46.9082353 293.822745,35.8901961 290.359216,24.8470588 C288.577255,17.8698039 287.146667,10.8423529 285.841569,3.76470588 C300.122353,5.06980392 314.428235,6.19921569 328.784314,5.59686275 C349.615686,4.96941176 370.497255,6.92705882 391.278431,4.94431373 C392.207059,4.04078431 394.089412,2.25882353 395.018039,1.35529412 L395.018039,1.35529412 Z" id="Shape"></path>
                <path d="M150.186667,10.4909804 C157.289412,9.98901961 164.517647,9.91372549 171.294118,12.4486275 C172.54902,19.3254902 173.728627,26.227451 174.732549,33.1545098 C130.032941,49.6690196 79.8368627,58.2023529 33.254902,44.5490196 C18.1709804,39.8556863 -1.45568627,29.5905882 1.38039216,10.7168627 C11.7709804,11.6956863 22.1615686,10.3654902 32.5521569,10.2901961 C71.7552941,10.5913725 110.983529,9.86352941 150.186667,10.4909804 L150.186667,10.4909804 Z" id="Shape"></path>
                <path d="M299.369412,277.709804 C305.418039,275.626667 309.408627,279.717647 312.294902,284.461176 C314.302745,282.428235 315.080784,278.186667 318.544314,278.412549 C332.825098,277.534118 347.156078,278.512941 361.461961,278.111373 C373.935686,277.50902 386.534902,281.675294 398.883137,278.462745 C402.647843,281.876078 406.78902,285.716078 407.617255,291.011765 C407.943529,298.716863 402.823529,305.418039 396.523922,309.258039 C379.783529,319.899608 357.948235,319.87451 339.877647,312.796863 C322.836078,306.070588 309.584314,292.542745 299.369412,277.709804 L299.369412,277.709804 Z" id="Shape"></path>
                <path d="M109.703529,291.087059 C112.38902,292.492549 115.099608,293.923137 117.785098,295.378824 C119.767843,293.948235 121.775686,292.492549 123.758431,291.061961 C122.955294,295.353725 122.127059,299.670588 121.399216,303.962353 C124.486275,299.971765 127.021176,295.579608 129.229804,291.036863 C129.907451,293.019608 130.635294,295.002353 131.338039,296.985098 C146.04549,294.14902 161.229804,294.123922 175.887059,297.336471 C177.894902,295.68 179.927843,293.998431 181.985882,292.341961 C183.567059,297.863529 184.771765,303.535686 184.545882,309.308235 C181.76,320.426667 178.823529,332.574118 170.415686,340.906667 C162.43451,348.28549 150.412549,345.323922 142.807843,339.024314 C128.100392,327.303529 118.186667,310.738824 109.803922,294.174118 L109.703529,291.087059 L109.703529,291.087059 Z" id="Shape"></path>
            </g>
            <g id="#006601ff" transform="translate(273.568627, 293.647059)" fill="#006601">
                <path d="M1.53098039,20.48 C44.4737255,5.74745098 90.4784314,-2.93647059 135.830588,3.81490196 C159.648627,7.47921569 183.667451,15.2094118 202.440784,30.8203922 C214.613333,41.1607843 223.849412,58.252549 217.323922,74.214902 C208.76549,94.2682353 187.758431,105.035294 168.181961,111.786667 C174.180392,117.132549 181.007059,122.62902 182.964706,130.836078 C185.675294,141.552941 180.530196,152.646275 173.527843,160.602353 C151.416471,185.574902 113.066667,193.656471 82.3466667,181.258039 C57.7254902,171.545098 39.8054902,150.111373 28.134902,126.97098 C11.6454902,93.9168627 4.86901961,56.972549 1.53098039,20.48 L1.53098039,20.48 Z M15.9372549,31.8996078 C17.894902,42.8423529 18.7482353,53.9858824 21.734902,64.7529412 L21.1576471,65.6815686 L22.3623529,66.6603922 C24.1945098,80.6901961 29.2392157,94.067451 34.8611765,106.992941 C46.9835294,135.378824 69.6219608,161.455686 100.643137,168.884706 C118.78902,172.448627 139.419608,170.967843 154.403137,159.121569 C162.032941,153.675294 166.851765,143.385098 164.367059,134.14902 C158.343529,120.596078 144.163137,113.543529 130.911373,108.8 C152.018824,103.956078 173.377255,96.3764706 190.218039,82.3717647 C200.106667,74.4156863 205.502745,59.4823529 198.073725,48.1129412 C185.775686,29.9921569 163.087059,23.6172549 142.832941,19.0996078 C100.492549,11.9466667 56.1192157,16.9662745 15.9372549,31.8996078 L15.9372549,31.8996078 Z" id="Shape"></path>
            </g>
            <g id="#66ab5dff" transform="translate(60.235294, 301.176471)" fill="#66AB5D">
                <path d="M24.6964706,58.6792157 C48.8407843,29.6156863 85.0321569,14.2807843 119.993725,2.4345098 C141.276863,38.1490196 154.980392,78.8580392 157.063529,120.520784 C157.414902,141.678431 155.256471,164.843922 141.653333,182.036078 C134.023529,192.577255 118.01098,192.752941 107.921569,185.800784 C88.0941176,173.352157 78.08,151.29098 66.2086275,132.09098 C63.8494118,145.392941 60.3356863,160.778039 47.987451,168.382745 C34.8360784,174.406275 21.2078431,164.818824 13.8290196,154.302745 C-2.88627451,130.610196 -0.65254902,97.4305882 13.7537255,73.1858824 C17.6941176,74.0643137 21.6345098,74.9427451 25.6,75.6454902 C22.2117647,76.6243137 18.8486275,77.7035294 15.4854902,78.7576471 C15.9372549,80.8156863 16.4141176,82.8737255 16.8658824,84.9317647 C14.7576471,87.5168627 12.9505882,90.2776471 11.3443137,93.1890196 C8.35764706,103.755294 7.62980392,114.773333 6.75137255,125.69098 C7.40392157,126.092549 8.73411765,126.895686 9.41176471,127.297255 C9.86352941,129.756863 10.3654902,132.241569 10.9427451,134.701176 C14.9082353,145.468235 20.6556863,156.762353 31.2470588,162.283922 C36.9945098,165.546667 45.0007843,164.86902 49.5435294,159.87451 C54.9898039,153.72549 57.3239216,145.593725 59.1560784,137.763137 C60.2352941,131.438431 61.6407843,124.109804 69.772549,124.586667 C71.4039216,127.548235 73.0603922,130.534902 74.6666667,133.546667 C83.0494118,150.111373 92.9631373,166.676078 107.670588,178.396863 C115.275294,184.696471 127.297255,187.658039 135.278431,180.279216 C143.686275,171.946667 146.622745,159.799216 149.408627,148.680784 C151.215686,138.465882 151.592157,128.025098 150.989804,117.684706 C150.412549,110.908235 149.709804,104.131765 148.555294,97.4305882 C147.777255,91.8337255 145.468235,86.6384314 141.000784,83.0243137 C141.176471,80.0376471 141.427451,77.0509804 141.753725,74.0894118 C142.556863,71.8807843 143.410196,69.6721569 144.263529,67.4886275 C143.661176,66.5098039 142.431373,64.5521569 141.82902,63.5733333 C140.749804,61.7662745 139.720784,59.9090196 138.767059,58.0517647 C133.12,41.587451 126.569412,25.1231373 117.659608,10.214902 C91.8588235,16.9913725 67.9654902,29.9419608 46.1552941,45.1764706 C38.7011765,49.6941176 33.6062745,56.8470588 28.2603922,63.4980392 C27.3568627,62.2933333 25.574902,59.8839216 24.6964706,58.6792157 L24.6964706,58.6792157 Z" id="Shape"></path>
            </g>
            <g id="#68ac5eff" transform="translate(288.627451, 308.705882)" fill="#68AC5E">
                <path d="M0.878431373,16.8407843 C41.0603922,1.90745098 85.4337255,-3.11215686 127.774118,4.04078431 C148.028235,8.55843137 170.716863,14.9333333 183.014902,33.0541176 C190.443922,44.4235294 185.047843,59.3568627 175.159216,67.3129412 C158.318431,81.3176471 136.96,88.8972549 115.852549,93.7411765 C129.104314,98.4847059 143.284706,105.537255 149.308235,119.090196 C151.792941,128.326275 146.974118,138.616471 139.344314,144.062745 C124.360784,155.90902 103.730196,157.389804 85.5843137,153.825882 C54.5631373,146.396863 31.9247059,120.32 19.8023529,91.9341176 C20.6305882,90.1270588 22.2619608,86.5631373 23.0901961,84.7811765 C25.3490196,90.8298039 27.8839216,96.8282353 31.0964706,102.475294 C32.5772549,104.884706 34.1835294,107.243922 35.84,109.552941 C46.054902,124.385882 59.3066667,137.913725 76.3482353,144.64 C94.4188235,151.717647 116.254118,151.742745 132.99451,141.101176 C139.294118,137.261176 144.414118,130.56 144.087843,122.854902 C143.259608,117.559216 139.118431,113.719216 135.353725,110.305882 C127.548235,104.683922 118.638431,100.843922 109.628235,97.6815686 C110.406275,95.0713725 111.209412,92.4360784 112.012549,89.8258824 C118.989804,87.4164706 125.916863,84.8815686 132.944314,82.6478431 C141.578039,80.8658824 149.333333,76.6243137 156.912941,72.307451 C164.743529,67.7145098 176.489412,65.7568627 178.296471,55.2658824 L179.049412,53.1576471 C179.425882,46.9584314 181.63451,39.6047059 176.840784,34.5098039 C166.27451,21.3584314 149.50902,15.5607843 133.672157,11.6454902 C113.894902,6.17411765 93.0886275,6.29960784 72.7592157,7.50431373 C50.8235294,8.70901961 29.6909804,15.1090196 8.15686275,18.8486275 C8.45803922,26.88 9.38666667,34.8862745 11.0180392,42.7670588 C9.93882353,44.4988235 7.75529412,47.9623529 6.67607843,49.6941176 C3.68941176,38.9270588 2.83607843,27.7835294 0.878431373,16.8407843 L0.878431373,16.8407843 Z" id="Shape"></path>
            </g>
            <g id="#80ba61ff" transform="translate(87.843137, 346.352941)" fill="#80BA61">
                <path d="M0.65254902,18.3215686 C5.99843137,11.6705882 11.0933333,4.51764706 18.547451,0 C17.0164706,4.9945098 14.1552941,9.33647059 10.7921569,13.2768627 C17.6439216,12.4737255 24.2447059,10.3654902 31.0462745,9.31137255 C41.587451,9.13568627 52.1286275,10.1898039 62.694902,9.78823529 C74.265098,9.26117647 86.4627451,11.9968627 97.3552941,6.90196078 C101.496471,9.86352941 106.139608,11.9466667 111.159216,12.8752941 C112.112941,14.732549 113.141961,16.5898039 114.221176,18.3968627 C94.6196078,19.3505882 75.0180392,20.505098 55.3913725,20.2039216 C38.1239216,20.48 20.6807843,18.8235294 3.58901961,22.1615686 C2.86117647,21.2078431 1.38039216,19.3003922 0.65254902,18.3215686 L0.65254902,18.3215686 Z" id="Shape"></path>
            </g>
            <g id="#76b25aff" transform="translate(293.647059, 351.372549)" fill="#76B25A">
                <path d="M5.99843137,0.100392157 C8.15686275,2.03294118 10.3403922,3.94039216 12.5239216,5.87294118 C23.1905882,3.03686275 34.2337255,4.76862745 45.1011765,4.56784314 C69.3709804,4.31686275 93.6658824,4.69333333 117.960784,4.5427451 C135.253333,4.56784314 152.621176,3.86509804 169.813333,6.02352941 C170.867451,7.15294118 172.975686,9.38666667 174.029804,10.4909804 L173.276863,12.5992157 C164.668235,19.9027451 153.047843,15.7364706 142.958431,15.7113725 C107.871373,14.5317647 72.7341176,15.8117647 37.6470588,15.0086275 C31.8494118,14.732549 26.1521569,15.8870588 20.7058824,17.8196078 C17.3176471,17.0917647 13.9043137,16.3388235 10.5160784,15.5356863 C7.78039216,13.3019608 5.04470588,11.1184314 2.28392157,8.93490196 L1.07921569,7.95607843 L1.65647059,7.02745098 C2.73568627,5.29568627 4.91921569,1.83215686 5.99843137,0.100392157 L5.99843137,0.100392157 Z" id="Shape"></path>
            </g>
            <g id="#70af59ff" transform="translate(72.784314, 358.901961)" fill="#70AF59">
                <path d="M1.20470588,15.4603922 C4.36705882,10.265098 7.98117647,5.37098039 12.147451,0.95372549 C13.0258824,2.15843137 14.8078431,4.56784314 15.7113725,5.77254902 C16.4392157,6.75137255 17.92,8.65882353 18.6478431,9.61254902 C35.7396078,6.2745098 53.1827451,7.93098039 70.4501961,7.65490196 C90.0768627,7.95607843 109.678431,6.80156863 129.28,5.84784314 C129.882353,6.82666667 131.112157,8.78431373 131.71451,9.76313725 C130.861176,11.9466667 130.007843,14.1552941 129.204706,16.3639216 C103.830588,18.8737255 78.2807843,16.9662745 52.8062745,17.5184314 C39.5545098,18.2462745 26.2023529,15.1341176 13.0509804,17.92 C9.0854902,17.2172549 5.14509804,16.3388235 1.20470588,15.4603922 L1.20470588,15.4603922 Z" id="Shape"></path>
            </g>
            <g id="#64a750ff" transform="translate(293.647059, 358.901961)" fill="#64A750">
                <path d="M2.28392157,1.4054902 C5.04470588,3.58901961 7.78039216,5.77254902 10.5160784,8.00627451 C13.9043137,8.80941176 17.3176471,9.56235294 20.7058824,10.2901961 C26.1521569,8.35764706 31.8494118,7.20313725 37.6470588,7.47921569 C72.7341176,8.28235294 107.871373,7.00235294 142.958431,8.18196078 C153.047843,8.20705882 164.668235,12.3733333 173.276863,5.06980392 C171.469804,15.5607843 159.723922,17.5184314 151.893333,22.1113725 C148.956863,20.6556863 146.296471,18.3215686 142.933333,18.0203922 C101.446275,16.7152941 59.7584314,19.5513725 18.3466667,16.4141176 C16.0878431,17.0164706 14.0047059,18.0454902 12.0721569,19.4760784 C13.6031373,23.1403922 15.1090196,26.8047059 16.5396078,30.5192157 C16.9160784,31.5482353 17.6941176,33.5560784 18.0705882,34.585098 C17.2423529,36.3670588 15.6109804,39.9309804 14.7827451,41.7380392 C9.16078431,28.812549 4.11607843,15.4352941 2.28392157,1.4054902 L2.28392157,1.4054902 Z" id="Shape"></path>
            </g>
            <g id="#60a54bff" transform="translate(75.294118, 373.960784)" fill="#60A54B">
                <path d="M10.5411765,2.86117647 C23.692549,0.0752941176 37.0447059,3.18745098 50.2964706,2.45960784 C75.7709804,1.90745098 101.320784,3.81490196 126.694902,1.30509804 C126.368627,4.26666667 126.117647,7.25333333 125.941961,10.24 C113.568627,13.9043137 100.567843,12.2729412 87.8682353,12.4737255 C59.1811765,12.1976471 30.4941176,13.0258824 1.80705882,12.147451 C1.35529412,10.0894118 0.878431373,8.03137255 0.426666667,5.97333333 C3.78980392,4.91921569 7.15294118,3.84 10.5411765,2.86117647 L10.5411765,2.86117647 Z" id="Shape"></path>
            </g>
            <g id="#50993dff" transform="translate(303.686275, 373.960784)" fill="#50993D">
                <path d="M8.30745098,1.35529412 C49.7192157,4.49254902 91.4070588,1.65647059 132.894118,2.96156863 C136.257255,3.2627451 138.917647,5.59686275 141.854118,7.05254902 C134.27451,11.3694118 126.519216,15.6109804 117.88549,17.3929412 C110.707451,11.6956863 101.24549,13.2517647 92.7623529,13.1262745 C70.1992157,13.7286275 47.6360784,12.8501961 25.0729412,13.6282353 C19.9027451,13.8792157 14.732549,13.1764706 9.73803922,11.8211765 C8.90980392,12.7247059 7.30352941,14.5568627 6.50039216,15.4603922 C5.06980392,11.7458824 3.56392157,8.08156863 2.03294118,4.4172549 C3.9654902,2.98666667 6.04862745,1.95764706 8.30745098,1.35529412 L8.30745098,1.35529412 Z" id="Shape"></path>
            </g>
            <g id="#549a40ff" transform="translate(70.274510, 384.000000)" fill="#549A40">
                <path d="M92.8878431,2.4345098 C105.587451,2.23372549 118.588235,3.86509804 130.961569,0.200784314 C135.42902,3.81490196 137.738039,9.01019608 138.516078,14.6070588 C136.583529,13.3019608 134.600784,11.7207843 132.116078,12.1976471 C103.178039,13.8541176 74.1647059,12.5490196 45.1764706,12.9254902 C30.5443137,12.4737255 15.5356863,14.8580392 1.30509804,10.3654902 C2.91137255,7.45411765 4.71843137,4.69333333 6.82666667,2.10823529 C35.5137255,2.98666667 64.2007843,2.15843137 92.8878431,2.4345098 L92.8878431,2.4345098 Z" id="Shape"></path>
            </g>
            <g id="#398a2bff" transform="translate(308.705882, 384.000000)" fill="#398A2B">
                <path d="M4.71843137,1.78196078 C9.71294118,3.1372549 14.8831373,3.84 20.0533333,3.58901961 C42.6164706,2.81098039 65.1796078,3.68941176 87.7427451,3.08705882 C96.2258824,3.21254902 105.687843,1.65647059 112.865882,7.35372549 C105.838431,9.58745098 98.9113725,12.1223529 91.9341176,14.5317647 C91.1309804,17.1419608 90.3278431,19.7772549 89.5498039,22.387451 C70.6258824,21.0823529 51.6266667,21.9105882 32.6776471,21.7098039 C25.4494118,22.6133333 16.3639216,21.0321569 11.0180392,27.1811765 C7.8054902,21.5341176 5.27058824,15.5356863 3.01176471,9.48705882 C2.63529412,8.45803922 1.8572549,6.45019608 1.48078431,5.42117647 C2.28392157,4.51764706 3.89019608,2.6854902 4.71843137,1.78196078 L4.71843137,1.78196078 Z" id="Shape"></path>
            </g>
            <g id="#3e8e2fff" transform="translate(65.254902, 394.039216)" fill="#3E8E2F">
                <path d="M6.32470588,0.32627451 C20.5552941,4.81882353 35.5639216,2.4345098 50.1960784,2.88627451 C79.1843137,2.50980392 108.197647,3.81490196 137.135686,2.15843137 C139.620392,1.68156863 141.603137,3.2627451 143.535686,4.56784314 C144.690196,11.2690196 145.392941,18.0454902 145.970196,24.8219608 C143.686275,24.345098 141.402353,23.8682353 139.118431,23.3913725 C138.541176,21.0070588 137.963922,18.6478431 137.386667,16.2886275 C133.822745,18.7482353 129.882353,20.9066667 125.389804,20.505098 C86.3121569,20.6054902 47.2094118,19.2501961 8.18196078,21.3082353 C8.05647059,17.894902 7.93098039,14.4815686 7.83058824,11.0682353 C5.44627451,18.6227451 4.51764706,26.5286275 4.39215686,34.4345098 C3.7145098,34.0329412 2.38431373,33.2298039 1.73176471,32.8282353 C2.61019608,21.9105882 3.33803922,10.892549 6.32470588,0.32627451 L6.32470588,0.32627451 Z" id="Shape"></path>
            </g>
            <g id="#207c19ff" transform="translate(67.764706, 404.078431)" fill="#207C19">
                <path d="M1.88235294,24.3952941 C2.00784314,16.4894118 2.93647059,8.58352941 5.32078431,1.02901961 C5.42117647,4.44235294 5.54666667,7.85568627 5.67215686,11.2690196 C44.6996078,9.21098039 83.8023529,10.5662745 122.88,10.4658824 C127.372549,10.867451 131.312941,8.70901961 134.876863,6.24941176 C135.454118,8.60862745 136.031373,10.9678431 136.608627,13.3521569 C138.892549,13.8290196 141.176471,14.3058824 143.460392,14.7827451 C144.062745,25.1231373 143.686275,35.5639216 141.879216,45.7788235 C142.105098,40.0062745 140.900392,34.3341176 139.319216,28.812549 C137.261176,30.4690196 135.228235,32.1505882 133.220392,33.8070588 C118.563137,30.5945098 103.378824,30.6196078 88.6713725,33.4556863 C87.9686275,31.4729412 87.2407843,29.4901961 86.5631373,27.507451 C84.3545098,32.0501961 81.8196078,36.4423529 78.732549,40.4329412 C79.4603922,36.1411765 80.2886275,31.8243137 81.0917647,27.532549 C79.1090196,28.9631373 77.1011765,30.4188235 75.1184314,31.8494118 C72.4329412,30.3937255 69.7223529,28.9631373 67.0368627,27.5576471 L67.1372549,30.6447059 C65.5309804,27.6329412 63.8745098,24.6462745 62.2431373,21.6847059 C54.1113725,21.2078431 52.7058824,28.5364706 51.6266667,34.8611765 C50.547451,33.6815686 48.3890196,31.3223529 47.334902,30.1427451 C35.8901961,28.9380392 24.32,29.9168627 12.825098,29.1137255 C9.38666667,28.5866667 6.29960784,30.2180392 3.41333333,31.7992157 C2.83607843,29.3396078 2.33411765,26.854902 1.88235294,24.3952941 L1.88235294,24.3952941 Z" id="Shape"></path>
            </g>
            <g id="#177612ff" transform="translate(318.745098, 404.078431)" fill="#177612">
                <path d="M0.978823529,7.1027451 C6.32470588,0.95372549 15.4101961,2.53490196 22.6384314,1.63137255 C41.587451,1.83215686 60.5866667,1.00392157 79.5105882,2.30901961 C88.5207843,5.47137255 97.4305882,9.31137255 105.236078,14.9333333 C92.8878431,18.1458824 80.2886275,13.9796078 67.814902,14.5819608 C53.5090196,14.9835294 39.1780392,14.0047059 24.8972549,14.8831373 C21.4337255,14.6572549 20.6556863,18.8988235 18.6478431,20.9317647 C15.7615686,16.1882353 11.7709804,12.0972549 5.72235294,14.1803922 C4.06588235,11.8713725 2.45960784,9.51215686 0.978823529,7.1027451 L0.978823529,7.1027451 Z" id="Shape"></path>
            </g>
            <g id="#026703ff" transform="translate(70.274510, 431.686275)" fill="#026703">
                <path d="M0.903529412,4.19137255 C3.78980392,2.61019608 6.87686275,0.978823529 10.3152941,1.50588235 C21.8101961,2.30901961 33.3803922,1.33019608 44.825098,2.53490196 C45.8792157,3.7145098 48.0376471,6.07372549 49.1168627,7.25333333 C47.2847059,15.0839216 44.9505882,23.2156863 39.5043137,29.3647059 C34.9615686,34.3592157 26.9552941,35.0368627 21.2078431,31.7741176 C10.6164706,26.252549 4.86901961,14.9584314 0.903529412,4.19137255 L0.903529412,4.19137255 Z" id="Shape"></path>
            </g>
        </g>
    </g>
</svg>