<?xml version="1.0" encoding="UTF-8" ?>
<!DOCTYPE svg PUBLIC "-//W3C//DTD SVG 1.1//EN" "http://www.w3.org/Graphics/SVG/1.1/DTD/svg11.dtd">
<svg width="213pt" height="213pt" viewBox="0 0 213 213" version="1.1" xmlns="http://www.w3.org/2000/svg">
<g id="#ffffffff">
</g>
<g id="#006701ff">
<path fill="#006701" opacity="1.00" d=" M 129.67 12.58 C 134.52 5.96 145.05 4.52 151.42 9.73 C 156.43 13.64 159.40 19.37 162.35 24.85 C 164.08 21.75 166.66 18.81 170.32 18.11 C 175.34 17.02 180.10 19.96 183.69 23.18 C 192.74 31.93 196.24 46.06 191.99 57.96 C 188.54 67.88 180.44 75.47 171.54 80.64 C 159.36 87.97 145.35 91.20 131.63 94.26 C 124.09 79.73 120.08 63.31 119.74 46.94 C 119.89 34.97 121.96 22.17 129.67 12.58 M 137.92 13.75 C 132.22 16.66 129.42 22.87 127.76 28.73 C 124.31 42.18 125.29 56.50 128.76 69.84 C 130.29 75.93 132.46 81.81 134.69 87.67 C 141.32 86.97 147.65 84.80 153.94 82.70 C 165.16 78.55 176.12 71.98 182.55 61.59 C 186.80 54.71 187.85 46.27 186.33 38.40 C 184.69 32.70 181.32 26.50 175.03 25.17 C 170.34 24.30 167.00 28.53 164.78 32.02 C 164.36 33.31 163.92 34.59 163.47 35.87 C 163.04 36.94 162.61 38.02 162.18 39.09 C 159.20 31.25 155.86 23.24 149.91 17.14 C 146.82 14.22 142.13 12.03 137.92 13.75 Z" />
</g>
<g id="#61a54dff">
<path fill="#61a54d" opacity="1.00" d=" M 137.92 13.75 C 142.13 12.03 146.82 14.22 149.91 17.14 C 155.86 23.24 159.20 31.25 162.18 39.09 C 162.61 38.02 163.04 36.94 163.47 35.87 C 164.27 37.32 165.01 38.82 166.04 40.13 C 171.28 40.86 176.59 39.83 181.84 40.42 C 185.28 42.52 186.33 46.90 184.65 50.49 C 184.01 49.21 183.39 47.94 182.76 46.67 C 180.64 47.59 178.35 48.03 176.03 47.89 C 162.68 47.59 149.31 48.05 135.96 47.71 C 133.51 47.80 130.70 46.86 128.53 48.33 C 127.85 50.98 128.45 53.71 128.79 56.36 C 129.15 58.74 129.49 61.13 129.89 63.50 C 130.41 66.32 130.98 69.12 131.69 71.90 C 130.72 71.20 129.75 70.51 128.76 69.84 C 125.29 56.50 124.31 42.18 127.76 28.73 C 129.42 22.87 132.22 16.66 137.92 13.75 M 140.33 15.39 C 133.88 17.33 131.70 24.20 129.47 29.80 C 128.65 32.49 128.29 35.30 128.00 38.10 C 127.47 39.46 128.52 40.82 129.94 40.63 C 139.87 39.67 149.86 40.65 159.80 39.98 C 159.21 37.81 158.62 35.64 158.02 33.47 L 157.49 33.57 C 155.28 29.71 154.07 25.24 151.02 21.89 C 148.34 18.65 144.92 15.07 140.33 15.39 Z" />
</g>
<g id="#91c66eff">
<path fill="#91c66e" opacity="1.00" d=" M 140.33 15.39 C 144.92 15.07 148.34 18.65 151.02 21.89 C 154.07 25.24 155.28 29.71 157.49 33.57 C 149.15 35.23 140.60 33.66 132.18 34.48 C 131.95 33.72 131.71 32.96 131.48 32.20 C 131.19 32.98 130.63 34.55 130.34 35.33 C 129.97 33.50 129.66 31.65 129.47 29.80 C 131.70 24.20 133.88 17.33 140.33 15.39 Z" />
<path fill="#91c66e" opacity="1.00" d=" M 48.39 144.00 C 57.08 137.93 66.60 132.77 76.88 130.07 C 80.43 136.01 83.04 142.57 85.29 149.13 C 83.29 148.76 81.44 147.93 79.79 146.75 C 75.45 148.78 70.59 147.69 65.98 147.90 C 61.77 148.06 57.57 147.64 53.37 147.71 C 50.66 148.13 48.03 148.97 45.30 149.29 C 46.64 147.72 47.78 145.99 48.39 144.00 Z" />
<path fill="#91c66e" opacity="1.00" d=" M 124.25 136.51 C 132.83 135.02 141.25 132.47 149.99 131.99 C 158.09 131.51 166.38 131.46 174.26 133.64 C 180.57 135.20 187.25 137.51 191.46 142.75 C 193.37 144.78 192.49 147.71 192.34 150.18 C 191.92 149.74 191.08 148.85 190.66 148.40 C 183.81 147.54 176.89 147.82 170.00 147.81 C 160.32 147.87 150.64 147.72 140.97 147.82 C 136.64 147.90 132.24 147.21 127.99 148.34 C 127.12 147.57 126.25 146.81 125.39 146.04 C 124.74 142.90 124.37 139.71 124.25 136.51 Z" />
</g>
<g id="#006600ff">
<path fill="#006600" opacity="1.00" d=" M 28.41 23.40 C 37.91 16.16 51.51 14.49 62.32 19.73 C 70.67 23.58 77.05 30.72 81.58 38.58 C 88.99 51.36 92.28 65.98 94.61 80.43 C 76.16 88.58 55.55 92.84 35.44 89.74 C 26.70 88.12 17.74 85.07 11.41 78.57 C 7.44 74.56 5.31 68.20 7.84 62.87 C 11.26 55.21 19.10 51.17 26.22 47.59 C 22.66 45.60 19.64 42.21 19.56 37.92 C 19.63 31.92 23.77 26.80 28.41 23.40 M 29.27 30.25 C 26.22 33.25 26.15 38.76 29.21 41.77 C 32.33 45.06 36.63 46.74 40.81 48.23 C 32.26 50.94 23.32 54.36 17.15 61.16 C 13.95 64.48 12.83 70.22 15.90 73.98 C 20.52 79.88 28.17 82.32 35.25 83.73 C 53.20 86.72 71.87 83.49 88.52 76.43 C 86.37 63.04 82.30 49.63 74.31 38.50 C 69.62 32.48 63.61 27.20 56.23 24.83 C 47.24 21.70 35.97 23.03 29.27 30.25 Z" />
<path fill="#006600" opacity="1.00" d=" M 42.52 138.41 C 53.72 130.02 66.87 124.56 80.27 120.77 L 81.04 120.82 C 91.87 138.47 99.20 159.04 98.11 179.98 C 97.45 188.42 95.48 197.29 89.92 203.94 C 86.38 208.25 80.22 210.54 74.85 208.53 C 67.41 205.89 62.26 199.34 58.34 192.79 C 56.45 195.63 54.83 199.22 51.29 200.30 C 45.86 202.28 40.15 199.42 35.96 196.04 C 26.14 187.91 21.54 173.80 25.28 161.53 C 27.92 151.98 34.79 144.28 42.52 138.41 M 39.84 149.38 C 38.18 151.14 36.74 153.09 35.48 155.16 C 29.74 164.82 28.85 178.04 35.51 187.48 C 38.45 191.67 43.88 195.49 49.12 193.09 C 54.04 190.06 55.44 183.93 56.38 178.63 C 61.11 186.28 65.10 195.07 73.00 200.03 C 77.02 202.80 83.40 202.73 86.44 198.53 C 91.86 191.68 92.72 182.45 92.58 174.02 C 91.75 157.42 86.29 141.20 77.81 126.97 C 63.88 131.69 49.46 137.80 39.84 149.38 Z" />
</g>
<g id="#6aad56ff">
<path fill="#6aad56" opacity="1.00" d=" M 29.27 30.25 C 35.97 23.03 47.24 21.70 56.23 24.83 C 63.61 27.20 69.62 32.48 74.31 38.50 C 82.30 49.63 86.37 63.04 88.52 76.43 C 71.87 83.49 53.20 86.72 35.25 83.73 C 28.17 82.32 20.52 79.88 15.90 73.98 C 12.83 70.22 13.95 64.48 17.15 61.16 C 23.32 54.36 32.26 50.94 40.81 48.23 C 36.63 46.74 32.33 45.06 29.21 41.77 C 26.15 38.76 26.22 33.25 29.27 30.25 M 31.39 31.40 C 29.57 32.87 28.80 35.41 29.48 37.65 C 30.32 40.73 33.46 42.35 36.15 43.57 C 40.44 44.33 44.68 42.43 49.01 42.82 C 55.84 43.18 62.75 42.14 69.51 43.47 C 69.87 43.13 70.60 42.46 70.97 42.12 C 71.99 42.70 73.02 43.28 74.05 43.85 C 70.56 34.93 61.89 28.75 52.84 26.36 C 45.50 25.24 36.90 25.82 31.39 31.40 M 44.32 47.57 C 44.44 48.36 44.55 49.15 44.67 49.94 C 38.99 50.62 33.70 53.01 28.71 55.71 C 26.36 56.94 24.19 58.49 21.92 59.87 C 19.76 61.67 18.00 63.87 16.55 66.27 C 15.42 73.79 23.24 77.88 29.25 79.75 C 47.81 85.19 67.81 81.79 85.62 75.21 C 85.22 72.45 84.75 69.70 84.25 66.96 C 83.56 64.70 82.87 62.45 82.11 60.21 C 81.80 59.02 81.49 57.83 81.18 56.63 C 79.89 54.02 78.92 51.19 77.07 48.91 C 71.54 46.73 65.69 48.85 59.99 48.38 C 54.76 48.18 49.43 49.02 44.32 47.57 Z" />
</g>
<g id="#5ca553ff">
<path fill="#5ca553" opacity="1.00" d=" M 164.78 32.02 C 167.00 28.53 170.34 24.30 175.03 25.17 C 181.32 26.50 184.69 32.70 186.33 38.40 C 185.60 38.19 184.14 37.76 183.41 37.55 C 182.05 33.69 180.66 28.78 176.06 27.77 C 172.24 26.48 168.91 29.45 166.50 32.02 C 166.07 32.02 165.21 32.02 164.78 32.02 Z" />
</g>
<g id="#91c56eff">
<path fill="#91c56e" opacity="1.00" d=" M 31.39 31.40 C 36.90 25.82 45.50 25.24 52.84 26.36 C 61.89 28.75 70.56 34.93 74.05 43.85 C 73.02 43.28 71.99 42.70 70.97 42.12 C 70.60 42.46 69.87 43.13 69.51 43.47 C 62.75 42.14 55.84 43.18 49.01 42.82 C 44.68 42.43 40.44 44.33 36.15 43.57 C 33.46 42.35 30.32 40.73 29.48 37.65 C 28.80 35.41 29.57 32.87 31.39 31.40 Z" />
</g>
<g id="#8cc269ff">
<path fill="#8cc269" opacity="1.00" d=" M 166.50 32.02 C 168.91 29.45 172.24 26.48 176.06 27.77 C 180.66 28.78 182.05 33.69 183.41 37.55 C 178.39 34.94 172.80 36.85 167.48 35.89 C 167.17 34.59 166.85 33.30 166.50 32.02 Z" />
</g>
<g id="#7ab55bff">
<path fill="#7ab55b" opacity="1.00" d=" M 128.00 38.10 C 128.29 35.30 128.65 32.49 129.47 29.80 C 129.66 31.65 129.97 33.50 130.34 35.33 C 130.63 34.55 131.19 32.98 131.48 32.20 C 131.71 32.96 131.95 33.72 132.18 34.48 C 140.60 33.66 149.15 35.23 157.49 33.57 L 158.02 33.47 C 158.62 35.64 159.21 37.81 159.80 39.98 C 149.86 40.65 139.87 39.67 129.94 40.63 C 128.52 40.82 127.47 39.46 128.00 38.10 Z" />
</g>
<g id="#76b258ff">
<path fill="#76b258" opacity="1.00" d=" M 164.78 32.02 C 165.21 32.02 166.07 32.02 166.50 32.02 C 166.85 33.30 167.17 34.59 167.48 35.89 C 172.80 36.85 178.39 34.94 183.41 37.55 C 184.14 37.76 185.60 38.19 186.33 38.40 C 187.85 46.27 186.80 54.71 182.55 61.59 C 176.12 71.98 165.16 78.55 153.94 82.70 C 147.65 84.80 141.32 86.97 134.69 87.67 C 132.46 81.81 130.29 75.93 128.76 69.84 C 129.75 70.51 130.72 71.20 131.69 71.90 C 133.07 76.30 134.46 80.69 136.16 84.98 C 151.92 82.40 168.30 76.18 178.51 63.31 C 178.71 63.05 179.12 62.52 179.33 62.26 C 181.22 59.84 182.46 57.01 183.44 54.12 C 183.86 52.91 184.26 51.70 184.65 50.49 C 186.33 46.90 185.28 42.52 181.84 40.42 C 176.59 39.83 171.28 40.86 166.04 40.13 C 165.01 38.82 164.27 37.32 163.47 35.87 C 163.92 34.59 164.36 33.31 164.78 32.02 Z" />
</g>
<g id="#479437ff">
<path fill="#479437" opacity="1.00" d=" M 176.03 47.89 C 178.35 48.03 180.64 47.59 182.76 46.67 C 183.39 47.94 184.01 49.21 184.65 50.49 C 184.26 51.70 183.86 52.91 183.44 54.12 C 170.32 53.20 157.15 54.02 144.01 53.71 C 139.81 53.85 134.89 52.63 131.57 55.97 C 131.45 55.49 131.20 54.54 131.07 54.06 C 130.31 54.82 129.55 55.59 128.79 56.36 C 128.45 53.71 127.85 50.98 128.53 48.33 C 130.70 46.86 133.51 47.80 135.96 47.71 C 149.31 48.05 162.68 47.59 176.03 47.89 Z" />
</g>
<g id="#4f983cff">
<path fill="#4f983c" opacity="1.00" d=" M 44.32 47.57 C 49.43 49.02 54.76 48.18 59.99 48.38 C 65.69 48.85 71.54 46.73 77.07 48.91 C 78.92 51.19 79.89 54.02 81.18 56.63 C 71.59 54.84 61.71 56.28 52.00 55.85 C 44.24 55.24 36.48 55.72 28.71 55.71 C 33.70 53.01 38.99 50.62 44.67 49.94 C 44.55 49.15 44.44 48.36 44.32 47.57 Z" />
</g>
<g id="#1f7b18ff">
<path fill="#1f7b18" opacity="1.00" d=" M 128.79 56.36 C 129.55 55.59 130.31 54.82 131.07 54.06 C 131.20 54.54 131.45 55.49 131.57 55.97 C 131.73 56.61 132.06 57.90 132.22 58.54 C 139.79 57.76 147.41 58.25 155.01 58.16 C 162.27 58.20 169.53 57.98 176.78 58.50 C 176.62 59.59 176.47 60.68 176.32 61.77 C 177.25 61.16 178.19 60.55 179.13 59.95 C 179.18 60.52 179.28 61.68 179.33 62.26 C 179.12 62.52 178.71 63.05 178.51 63.31 C 177.32 63.50 176.13 63.67 174.94 63.83 C 174.42 63.40 173.90 62.97 173.39 62.54 C 173.02 62.90 172.27 63.61 171.90 63.97 C 163.62 64.76 155.30 63.98 147.00 64.23 C 141.28 64.47 135.58 64.02 129.89 63.50 C 129.49 61.13 129.15 58.74 128.79 56.36 Z" />
</g>
<g id="#338727ff">
<path fill="#338727" opacity="1.00" d=" M 131.57 55.97 C 134.89 52.63 139.81 53.85 144.01 53.71 C 157.15 54.02 170.32 53.20 183.44 54.12 C 182.46 57.01 181.22 59.84 179.33 62.26 C 179.28 61.68 179.18 60.52 179.13 59.95 C 178.19 60.55 177.25 61.16 176.32 61.77 C 176.47 60.68 176.62 59.59 176.78 58.50 C 169.53 57.98 162.27 58.20 155.01 58.16 C 147.41 58.25 139.79 57.76 132.22 58.54 C 132.06 57.90 131.73 56.61 131.57 55.97 Z" />
</g>
<g id="#348828ff">
<path fill="#348828" opacity="1.00" d=" M 28.71 55.71 C 36.48 55.72 44.24 55.24 52.00 55.85 C 61.71 56.28 71.59 54.84 81.18 56.63 C 81.49 57.83 81.80 59.02 82.11 60.21 C 81.66 60.27 80.75 60.38 80.29 60.44 C 80.02 60.15 79.47 59.59 79.19 59.30 C 79.10 59.82 78.91 60.84 78.82 61.35 C 64.91 60.20 50.93 61.18 36.99 60.78 C 31.96 60.33 26.58 62.63 21.92 59.87 C 24.19 58.49 26.36 56.94 28.71 55.71 Z" />
</g>
<g id="#1d7715ff">
<path fill="#1d7715" opacity="1.00" d=" M 79.19 59.30 C 79.47 59.59 80.02 60.15 80.29 60.44 C 80.75 60.38 81.66 60.27 82.11 60.21 C 82.87 62.45 83.56 64.70 84.25 66.96 C 81.55 65.95 78.67 65.98 75.84 66.18 C 60.22 65.93 44.59 66.22 28.97 66.10 C 24.83 66.13 20.69 66.66 16.55 66.27 C 18.00 63.87 19.76 61.67 21.92 59.87 C 26.58 62.63 31.96 60.33 36.99 60.78 C 50.93 61.18 64.91 60.20 78.82 61.35 C 78.91 60.84 79.10 59.82 79.19 59.30 Z" />
</g>
<g id="#026701ff">
<path fill="#026701" opacity="1.00" d=" M 173.39 62.54 C 173.90 62.97 174.42 63.40 174.94 63.83 C 176.13 63.67 177.32 63.50 178.51 63.31 C 168.30 76.18 151.92 82.40 136.16 84.98 C 134.46 80.69 133.07 76.30 131.69 71.90 C 130.98 69.12 130.41 66.32 129.89 63.50 C 135.58 64.02 141.28 64.47 147.00 64.23 C 155.30 63.98 163.62 64.76 171.90 63.97 C 172.27 63.61 173.02 62.90 173.39 62.54 Z" />
<path fill="#026701" opacity="1.00" d=" M 75.84 66.18 C 78.67 65.98 81.55 65.95 84.25 66.96 C 84.75 69.70 85.22 72.45 85.62 75.21 C 67.81 81.79 47.81 85.19 29.25 79.75 C 23.24 77.88 15.42 73.79 16.55 66.27 C 20.69 66.66 24.83 66.13 28.97 66.10 C 44.59 66.22 60.22 65.93 75.84 66.18 Z" />
<path fill="#026701" opacity="1.00" d=" M 135.28 172.65 C 137.69 171.82 139.28 173.45 140.43 175.34 C 141.23 174.53 141.54 172.84 142.92 172.93 C 148.61 172.58 154.32 172.97 160.02 172.81 C 164.99 172.57 170.01 174.23 174.93 172.95 C 176.43 174.31 178.08 175.84 178.41 177.95 C 178.54 181.02 176.50 183.69 173.99 185.22 C 167.32 189.46 158.62 189.45 151.42 186.63 C 144.63 183.95 139.35 178.56 135.28 172.65 Z" />
<path fill="#026701" opacity="1.00" d=" M 59.71 177.98 C 60.78 178.54 61.86 179.11 62.93 179.69 C 63.72 179.12 64.52 178.54 65.31 177.97 C 64.99 179.68 64.66 181.40 64.37 183.11 C 65.60 181.52 66.61 179.77 67.49 177.96 C 67.76 178.75 68.05 179.54 68.33 180.33 C 74.19 179.20 80.24 179.19 86.08 180.47 C 86.88 179.81 87.69 179.14 88.51 178.48 C 89.14 180.68 89.62 182.94 89.53 185.24 C 88.42 189.67 87.25 194.51 83.90 197.83 C 80.72 200.77 75.93 199.59 72.90 197.08 C 67.04 192.41 63.09 185.81 59.75 179.21 L 59.71 177.98 Z" />
</g>
<g id="#006601ff">
<path fill="#006601" opacity="1.00" d=" M 115.61 131.16 C 132.72 125.29 151.05 121.83 169.12 124.52 C 178.61 125.98 188.18 129.06 195.66 135.28 C 200.51 139.40 204.19 146.21 201.59 152.57 C 198.18 160.56 189.81 164.85 182.01 167.54 C 184.40 169.67 187.12 171.86 187.90 175.13 C 188.98 179.40 186.93 183.82 184.14 186.99 C 175.33 196.94 160.05 200.16 147.81 195.22 C 138.00 191.35 130.86 182.81 126.21 173.59 C 119.64 160.42 116.94 145.70 115.61 131.16 M 121.35 135.71 C 122.13 140.07 122.47 144.51 123.66 148.80 L 123.43 149.17 L 123.91 149.56 C 124.64 155.15 126.65 160.48 128.89 165.63 C 133.72 176.94 142.74 187.33 155.10 190.29 C 162.33 191.71 170.55 191.12 176.52 186.40 C 179.56 184.23 181.48 180.13 180.49 176.45 C 178.09 171.05 172.44 168.24 167.16 166.35 C 175.57 164.42 184.08 161.40 190.79 155.82 C 194.73 152.65 196.88 146.70 193.92 142.17 C 189.02 134.95 179.98 132.41 171.91 130.61 C 155.04 127.76 137.36 129.76 121.35 135.71 Z" />
</g>
<g id="#66ab5dff">
<path fill="#66ab5d" opacity="1.00" d=" M 39.84 149.38 C 49.46 137.80 63.88 131.69 77.81 126.97 C 86.29 141.20 91.75 157.42 92.58 174.02 C 92.72 182.45 91.86 191.68 86.44 198.53 C 83.40 202.73 77.02 202.80 73.00 200.03 C 65.10 195.07 61.11 186.28 56.38 178.63 C 55.44 183.93 54.04 190.06 49.12 193.09 C 43.88 195.49 38.45 191.67 35.51 187.48 C 28.85 178.04 29.74 164.82 35.48 155.16 C 37.05 155.51 38.62 155.86 40.20 156.14 C 38.85 156.53 37.51 156.96 36.17 157.38 C 36.35 158.20 36.54 159.02 36.72 159.84 C 35.88 160.87 35.16 161.97 34.52 163.13 C 33.33 167.34 33.04 171.73 32.69 176.08 C 32.95 176.24 33.48 176.56 33.75 176.72 C 33.93 177.70 34.13 178.69 34.36 179.67 C 35.94 183.96 38.23 188.46 42.45 190.66 C 44.74 191.96 47.93 191.69 49.74 189.70 C 51.91 187.25 52.84 184.01 53.57 180.89 C 54.00 178.37 54.56 175.45 57.80 175.64 C 58.45 176.82 59.11 178.01 59.75 179.21 C 63.09 185.81 67.04 192.41 72.90 197.08 C 75.93 199.59 80.72 200.77 83.90 197.83 C 87.25 194.51 88.42 189.67 89.53 185.24 C 90.25 181.17 90.40 177.01 90.16 172.89 C 89.93 170.19 89.65 167.49 89.19 164.82 C 88.88 162.59 87.96 160.52 86.18 159.08 C 86.25 157.89 86.35 156.70 86.48 155.52 C 86.80 154.64 87.14 153.76 87.48 152.89 C 87.24 152.50 86.75 151.72 86.51 151.33 C 86.08 150.61 85.67 149.87 85.29 149.13 C 83.04 142.57 80.43 136.01 76.88 130.07 C 66.60 132.77 57.08 137.93 48.39 144.00 C 45.42 145.80 43.39 148.65 41.26 151.30 C 40.90 150.82 40.19 149.86 39.84 149.38 Z" />
</g>
<g id="#68ac5eff">
<path fill="#68ac5e" opacity="1.00" d=" M 121.35 135.71 C 137.36 129.76 155.04 127.76 171.91 130.61 C 179.98 132.41 189.02 134.95 193.92 142.17 C 196.88 146.70 194.73 152.65 190.79 155.82 C 184.08 161.40 175.57 164.42 167.16 166.35 C 172.44 168.24 178.09 171.05 180.49 176.45 C 181.48 180.13 179.56 184.23 176.52 186.40 C 170.55 191.12 162.33 191.71 155.10 190.29 C 142.74 187.33 133.72 176.94 128.89 165.63 C 129.22 164.91 129.87 163.49 130.20 162.78 C 131.10 165.19 132.11 167.58 133.39 169.83 C 133.98 170.79 134.62 171.73 135.28 172.65 C 139.35 178.56 144.63 183.95 151.42 186.63 C 158.62 189.45 167.32 189.46 173.99 185.22 C 176.50 183.69 178.54 181.02 178.41 177.95 C 178.08 175.84 176.43 174.31 174.93 172.95 C 171.82 170.71 168.27 169.18 164.68 167.92 C 164.99 166.88 165.31 165.83 165.63 164.79 C 168.41 163.83 171.17 162.82 173.97 161.93 C 177.41 161.22 180.50 159.53 183.52 157.81 C 186.64 155.98 191.32 155.20 192.04 151.02 L 192.34 150.18 C 192.49 147.71 193.37 144.78 191.46 142.75 C 187.25 137.51 180.57 135.20 174.26 133.64 C 166.38 131.46 158.09 131.51 149.99 131.99 C 141.25 132.47 132.83 135.02 124.25 136.51 C 124.37 139.71 124.74 142.90 125.39 146.04 C 124.96 146.73 124.09 148.11 123.66 148.80 C 122.47 144.51 122.13 140.07 121.35 135.71 Z" />
</g>
<g id="#80ba61ff">
<path fill="#80ba61" opacity="1.00" d=" M 41.26 151.30 C 43.39 148.65 45.42 145.80 48.39 144.00 C 47.78 145.99 46.64 147.72 45.30 149.29 C 48.03 148.97 50.66 148.13 53.37 147.71 C 57.57 147.64 61.77 148.06 65.98 147.90 C 70.59 147.69 75.45 148.78 79.79 146.75 C 81.44 147.93 83.29 148.76 85.29 149.13 C 85.67 149.87 86.08 150.61 86.51 151.33 C 78.70 151.71 70.89 152.17 63.07 152.05 C 56.19 152.16 49.24 151.50 42.43 152.83 C 42.14 152.45 41.55 151.69 41.26 151.30 Z" />
</g>
<g id="#76b25aff">
<path fill="#76b25a" opacity="1.00" d=" M 125.39 146.04 C 126.25 146.81 127.12 147.57 127.99 148.34 C 132.24 147.21 136.64 147.90 140.97 147.82 C 150.64 147.72 160.32 147.87 170.00 147.81 C 176.89 147.82 183.81 147.54 190.66 148.40 C 191.08 148.85 191.92 149.74 192.34 150.18 L 192.04 151.02 C 188.61 153.93 183.98 152.27 179.96 152.26 C 165.98 151.79 151.98 152.30 138.00 151.98 C 135.69 151.87 133.42 152.33 131.25 153.10 C 129.90 152.81 128.54 152.51 127.19 152.19 C 126.10 151.30 125.01 150.43 123.91 149.56 L 123.43 149.17 L 123.66 148.80 C 124.09 148.11 124.96 146.73 125.39 146.04 Z" />
</g>
<g id="#70af59ff">
<path fill="#70af59" opacity="1.00" d=" M 35.48 155.16 C 36.74 153.09 38.18 151.14 39.84 149.38 C 40.19 149.86 40.90 150.82 41.26 151.30 C 41.55 151.69 42.14 152.45 42.43 152.83 C 49.24 151.50 56.19 152.16 63.07 152.05 C 70.89 152.17 78.70 151.71 86.51 151.33 C 86.75 151.72 87.24 152.50 87.48 152.89 C 87.14 153.76 86.80 154.64 86.48 155.52 C 76.37 156.52 66.19 155.76 56.04 155.98 C 50.76 156.27 45.44 155.03 40.20 156.14 C 38.62 155.86 37.05 155.51 35.48 155.16 Z" />
</g>
<g id="#64a750ff">
<path fill="#64a750" opacity="1.00" d=" M 123.91 149.56 C 125.01 150.43 126.10 151.30 127.19 152.19 C 128.54 152.51 129.90 152.81 131.25 153.10 C 133.42 152.33 135.69 151.87 138.00 151.98 C 151.98 152.30 165.98 151.79 179.96 152.26 C 183.98 152.27 188.61 153.93 192.04 151.02 C 191.32 155.20 186.64 155.98 183.52 157.81 C 182.35 157.23 181.29 156.30 179.95 156.18 C 163.42 155.66 146.81 156.79 130.31 155.54 C 129.41 155.78 128.58 156.19 127.81 156.76 C 128.42 158.22 129.02 159.68 129.59 161.16 C 129.74 161.57 130.05 162.37 130.20 162.78 C 129.87 163.49 129.22 164.91 128.89 165.63 C 126.65 160.48 124.64 155.15 123.91 149.56 Z" />
</g>
<g id="#60a54bff">
<path fill="#60a54b" opacity="1.00" d=" M 40.20 156.14 C 45.44 155.03 50.76 156.27 56.04 155.98 C 66.19 155.76 76.37 156.52 86.48 155.52 C 86.35 156.70 86.25 157.89 86.18 159.08 C 81.25 160.54 76.07 159.89 71.01 159.97 C 59.58 159.86 48.15 160.19 36.72 159.84 C 36.54 159.02 36.35 158.20 36.17 157.38 C 37.51 156.96 38.85 156.53 40.20 156.14 Z" />
</g>
<g id="#50993dff">
<path fill="#50993d" opacity="1.00" d=" M 130.31 155.54 C 146.81 156.79 163.42 155.66 179.95 156.18 C 181.29 156.30 182.35 157.23 183.52 157.81 C 180.50 159.53 177.41 161.22 173.97 161.93 C 171.11 159.66 167.34 160.28 163.96 160.23 C 154.97 160.47 145.98 160.12 136.99 160.43 C 134.93 160.53 132.87 160.25 130.88 159.71 C 130.55 160.07 129.91 160.80 129.59 161.16 C 129.02 159.68 128.42 158.22 127.81 156.76 C 128.58 156.19 129.41 155.78 130.31 155.54 Z" />
</g>
<g id="#549a40ff">
<path fill="#549a40" opacity="1.00" d=" M 71.01 159.97 C 76.07 159.89 81.25 160.54 86.18 159.08 C 87.96 160.52 88.88 162.59 89.19 164.82 C 88.42 164.30 87.63 163.67 86.64 163.86 C 75.11 164.52 63.55 164.00 52.00 164.15 C 46.17 163.97 40.19 164.92 34.52 163.13 C 35.16 161.97 35.88 160.87 36.72 159.84 C 48.15 160.19 59.58 159.86 71.01 159.97 Z" />
</g>
<g id="#398a2bff">
<path fill="#398a2b" opacity="1.00" d=" M 130.88 159.71 C 132.87 160.25 134.93 160.53 136.99 160.43 C 145.98 160.12 154.97 160.47 163.96 160.23 C 167.34 160.28 171.11 159.66 173.97 161.93 C 171.17 162.82 168.41 163.83 165.63 164.79 C 165.31 165.83 164.99 166.88 164.68 167.92 C 157.14 167.40 149.57 167.73 142.02 167.65 C 139.14 168.01 135.52 167.38 133.39 169.83 C 132.11 167.58 131.10 165.19 130.20 162.78 C 130.05 162.37 129.74 161.57 129.59 161.16 C 129.91 160.80 130.55 160.07 130.88 159.71 Z" />
</g>
<g id="#3e8e2fff">
<path fill="#3e8e2f" opacity="1.00" d=" M 34.52 163.13 C 40.19 164.92 46.17 163.97 52.00 164.15 C 63.55 164.00 75.11 164.52 86.64 163.86 C 87.63 163.67 88.42 164.30 89.19 164.82 C 89.65 167.49 89.93 170.19 90.16 172.89 C 89.25 172.70 88.34 172.51 87.43 172.32 C 87.20 171.37 86.97 170.43 86.74 169.49 C 85.32 170.47 83.75 171.33 81.96 171.17 C 66.39 171.21 50.81 170.67 35.26 171.49 C 35.21 170.13 35.16 168.77 35.12 167.41 C 34.17 170.42 33.80 173.57 33.75 176.72 C 33.48 176.56 32.95 176.24 32.69 176.08 C 33.04 171.73 33.33 167.34 34.52 163.13 Z" />
</g>
<g id="#207c19ff">
<path fill="#207c19" opacity="1.00" d=" M 33.75 176.72 C 33.80 173.57 34.17 170.42 35.12 167.41 C 35.16 168.77 35.21 170.13 35.26 171.49 C 50.81 170.67 66.39 171.21 81.96 171.17 C 83.75 171.33 85.32 170.47 86.74 169.49 C 86.97 170.43 87.20 171.37 87.43 172.32 C 88.34 172.51 89.25 172.70 90.16 172.89 C 90.40 177.01 90.25 181.17 89.53 185.24 C 89.62 182.94 89.14 180.68 88.51 178.48 C 87.69 179.14 86.88 179.81 86.08 180.47 C 80.24 179.19 74.19 179.20 68.33 180.33 C 68.05 179.54 67.76 178.75 67.49 177.96 C 66.61 179.77 65.60 181.52 64.37 183.11 C 64.66 181.40 64.99 179.68 65.31 177.97 C 64.52 178.54 63.72 179.12 62.93 179.69 C 61.86 179.11 60.78 178.54 59.71 177.98 L 59.75 179.21 C 59.11 178.01 58.45 176.82 57.80 175.64 C 54.56 175.45 54.00 178.37 53.57 180.89 C 53.14 180.42 52.28 179.48 51.86 179.01 C 47.30 178.53 42.69 178.92 38.11 178.60 C 36.74 178.39 35.51 179.04 34.36 179.67 C 34.13 178.69 33.93 177.70 33.75 176.72 Z" />
</g>
<g id="#177612ff">
<path fill="#177612" opacity="1.00" d=" M 133.39 169.83 C 135.52 167.38 139.14 168.01 142.02 167.65 C 149.57 167.73 157.14 167.40 164.68 167.92 C 168.27 169.18 171.82 170.71 174.93 172.95 C 170.01 174.23 164.99 172.57 160.02 172.81 C 154.32 172.97 148.61 172.58 142.92 172.93 C 141.54 172.84 141.23 174.53 140.43 175.34 C 139.28 173.45 137.69 171.82 135.28 172.65 C 134.62 171.73 133.98 170.79 133.39 169.83 Z" />
</g>
<g id="#026703ff">
<path fill="#026703" opacity="1.00" d=" M 34.36 179.67 C 35.51 179.04 36.74 178.39 38.11 178.60 C 42.69 178.92 47.30 178.53 51.86 179.01 C 52.28 179.48 53.14 180.42 53.57 180.89 C 52.84 184.01 51.91 187.25 49.74 189.70 C 47.93 191.69 44.74 191.96 42.45 190.66 C 38.23 188.46 35.94 183.96 34.36 179.67 Z" />
</g>
</svg>
