<?xml version="1.0" encoding="UTF-8" standalone="no"?>
<svg width="1713px" height="511px" viewBox="0 0 1713 511" version="1.1" xmlns="http://www.w3.org/2000/svg" xmlns:xlink="http://www.w3.org/1999/xlink">
    <!-- Generator: Sketch 3.6.1 (26313) - http://www.bohemiancoding.com/sketch -->
    <title>8tracks</title>
    <desc>Created with Sketch.</desc>
    <defs></defs>
    <g id="Page-1" stroke="none" stroke-width="1" fill="none" fill-rule="evenodd">
        <g id="8tracks" transform="translate(0.000000, -1.000000)" fill="#000000">
            <g id="Group">
                <path d="M141.216958,231.171577 C63.6065469,231.171577 0.79405988,294.043337 0.771576846,371.56586 C0.793037924,449.11802 63.605525,511.988758 141.216958,511.988758 C218.760942,511.988758 281.487585,449.116998 281.523353,371.56586 C281.523353,331.961996 281.5162,348.76091 281.5162,331.498028 L281.5162,331.498028 L231.367792,331.498028 L231.367792,371.56586 C231.323848,396.545533 221.293349,418.91513 204.944096,435.307305 C188.55192,451.670866 166.197653,461.737134 141.21798,461.737134 C116.207649,461.737134 93.883018,451.668822 77.4468982,435.307305 C61.091513,418.91513 51.059992,396.545533 51.0242236,371.56586 C51.059992,346.61378 61.0925349,324.245206 77.4468982,307.852008 C93.883018,291.487425 116.208671,281.450794 141.21798,281.42218 L371.86325,281.42218 C449.445046,281.42218 512.265709,218.985772 512.28717,141.434635 C512.265709,63.8538603 449.445046,1.0403513 371.86325,1.01173653 C294.303936,1.0403513 231.468966,63.8538603 231.440351,141.434635 C231.440351,180.834108 231.404583,181.095729 231.404583,181.095729 L281.523353,181.095729 L281.523353,141.434635 C281.567297,116.482555 291.743936,94.11398 308.136112,77.6921677 C324.512958,61.3582435 346.868248,51.2909541 371.862228,51.2909541 C396.842922,51.2909541 419.241134,61.3582435 435.633309,77.7218044 C451.966212,94.11398 462.01204,116.482555 462.01204,141.434635 C462.01204,166.443944 451.966212,188.784926 435.616958,205.147465 C419.241134,221.511026 396.842922,231.142962 371.860184,231.172599 L141.216958,231.171577 L141.216958,231.171577 L141.216958,231.171577 Z" id="Shape"></path>
                <g transform="translate(518.131737, 150.227545)" id="Shape">
                    <path d="M77.4428104,222.933589 C77.4428104,233.784719 82.781509,270.081533 113.941972,270.081533 C114.057453,270.081533 114.057453,319.317333 114.057453,319.317333 C47.0212216,319.317333 32.5748503,244.927106 32.5748503,222.934611 L32.5748503,121.738475 L0.239137725,121.738475 L0.239137725,80.7723433 L32.5748503,80.7723433 L32.5748503,0.551856287 L77.4428104,0.551856287 L77.4428104,80.7723433 L116.654244,80.7723433 L116.654244,121.738475 L77.4428104,121.738475 C77.4428104,121.735409 77.4428104,212.140711 77.4428104,222.933589 L77.4428104,222.933589 Z"></path>
                    <path d="M155.582595,319.691369 L155.582595,80.7692774 L197.433741,80.7692774 L197.433741,102.326419 L198.29014,102.326419 C217.262754,75.6063553 247.859098,74.7346267 259.064846,74.2992735 L259.064846,120.430371 C252.210587,120.430371 237.530188,123.476822 226.723002,129.07612 C212.48511,136.822547 200.437269,154.956136 200.437269,189.01691 L200.437269,319.691369 L155.582595,319.691369 L155.582595,319.691369 Z"></path>
                    <path d="M479.114475,319.691369 L479.114475,282.583122 L478.215154,282.583122 C460.994172,311.973557 429.472958,325.697405 397.18119,325.697405 C316.539657,325.697405 270.37279,264.016224 270.37279,201.08519 C270.37279,142.826539 311.303154,74.2992735 397.18119,74.2992735 C430.373301,74.2992735 460.994172,88.0793293 478.215154,114.425357 L479.114475,114.425357 L479.114475,80.7692774 L523.96915,80.7692774 L523.96915,319.691369 L479.114475,319.691369 L479.114475,319.691369 Z M397.18119,115.266427 C341.975122,115.266427 315.219289,163.137916 315.219289,200.65188 C315.219289,243.794778 349.281086,284.731273 396.717222,284.731273 C443.704719,284.731273 479.970874,246.37624 479.970874,200.65188 C479.970874,149.73394 443.312287,115.266427 397.18119,115.266427 L397.18119,115.266427 Z"></path>
                    <path d="M750.995673,160.090443 C743.684599,145.002283 726.393102,115.266427 683.729501,115.266427 C625.921533,115.266427 605.249405,163.573269 605.249405,199.81081 C605.249405,241.182659 631.535138,284.733317 682.844487,284.733317 C716.457645,284.733317 739.347417,265.323305 750.605285,240.720735 L800.57996,240.720735 C782.490315,293.814419 735.89525,325.699449 682.844487,325.699449 C604.378699,325.699449 560.452982,261.465421 560.452982,199.81081 C560.452982,135.11077 607.845174,74.3013174 683.27984,74.3013174 C750.997717,74.3013174 791.571417,124.755289 800.57996,160.092487 L750.995673,160.090443 L750.995673,160.090443 L750.995673,160.090443 Z"></path>
                    <path d="M1019.68632,80.7692774 L933.01014,193.338762 L1033.52463,319.691369 L977.442747,319.691369 L881.685461,195.891609 L880.844391,195.891609 L880.844391,319.691369 L835.945772,319.691369 L835.945772,0.548790419 L880.844391,0.548790419 L880.844391,195.891609 L881.685461,195.891609 L966.679505,80.7692774 L1019.68632,80.7692774 L1019.68632,80.7692774 Z"></path>
                    <path d="M1143.3982,144.191872 C1140.81571,124.753246 1129.19607,115.266427 1112.8182,115.266427 C1096.4107,115.266427 1084.80639,125.623952 1084.80639,140.709046 C1084.80639,160.555433 1102.05394,165.688719 1121.85536,171.754028 C1140.40897,177.353325 1193.89509,192.4701 1193.89509,249.362395 C1193.89509,291.634587 1164.51896,325.695361 1113.65927,325.695361 C1083.47069,325.695361 1029.11387,306.721725 1029.11387,241.180615 L1073.99716,241.180615 C1075.70893,267.900679 1089.50432,284.72923 1114.51363,284.72923 C1134.75143,284.72923 1149.01078,272.224575 1149.01078,251.972471 C1149.01078,230.82309 1130.48578,223.509972 1107.21686,215.299577 C1081.30823,205.811737 1039.89244,194.177788 1039.89244,143.288463 C1039.89244,107.923673 1069.65998,74.2951856 1114.94898,74.2951856 C1142.14834,74.2951856 1186.95907,91.1227146 1188.25083,144.187784 L1143.39717,144.187784 L1143.39717,144.191872 L1143.3982,144.191872 Z"></path>
                </g>
            </g>
        </g>
    </g>
</svg>