<?xml version="1.0" encoding="utf-8"?>
<!-- Generator: Adobe Illustrator 16.0.0, SVG Export Plug-In . SVG Version: 6.00 Build 0)  -->
<!DOCTYPE svg PUBLIC "-//W3C//DTD SVG 1.1//EN" "http://www.w3.org/Graphics/SVG/1.1/DTD/svg11.dtd">
<svg version="1.1" id="Layer_1" xmlns="http://www.w3.org/2000/svg" xmlns:xlink="http://www.w3.org/1999/xlink" x="0px" y="0px"
	 width="2000px" height="826px" viewBox="0 0 2000 826" enable-background="new 0 0 2000 826" xml:space="preserve">
<g>
	<g>
		<path d="M300.183,388.205c-75.943,0-137.406,61.521-137.428,137.378c0.021,75.886,61.484,137.406,137.428,137.406
			c75.878,0,137.257-61.521,137.292-137.406c0-38.753-0.007-22.315-0.007-39.207l0,0h-49.071c0,0,0,0.484,0,39.207
			c-0.043,24.443-9.858,46.332-25.856,62.372c-16.04,16.012-37.914,25.862-62.357,25.862c-24.473,0-46.318-9.852-62.401-25.862
			c-16.004-16.04-25.82-37.929-25.855-62.372c0.035-24.416,9.852-46.304,25.855-62.345c16.083-16.013,37.929-25.834,62.401-25.862
			c45.14,0,178.728,0,225.69,0c75.915,0,137.386-61.095,137.407-136.98c-0.021-75.914-61.492-137.378-137.407-137.406
			c-75.893,0.028-137.378,61.492-137.406,137.406c0,38.553-0.035,38.809-0.035,38.809h49.042c0,0,0-0.256,0-38.809
			c0.043-24.416,10.001-46.304,26.041-62.373c16.025-15.983,37.9-25.834,62.357-25.834c24.444,0,46.361,9.851,62.401,25.863
			c15.982,16.04,25.812,37.928,25.812,62.344c0,24.472-9.83,46.333-25.828,62.344c-16.024,16.012-37.941,25.437-62.387,25.466
			L300.183,388.205L300.183,388.205z"/>
	</g>
	<g>
		<path d="M744.779,527.144c0,10.618,5.224,46.135,35.715,46.135c0.113,0,0.113,48.178,0.113,48.178
			c-65.596,0-79.732-72.792-79.732-94.312c0-21.434,0-99.022,0-99.022h-31.641v-40.086h31.641v-78.497h43.904v78.497h38.369v40.086
			h-38.369C744.779,428.12,744.779,516.583,744.779,527.144z"/>
		<path d="M821.24,621.823V388.034h40.952v21.094h0.838c18.565-26.146,48.504-26.999,59.469-27.425v45.14
			c-6.707,0-21.072,2.981-31.647,8.46c-13.932,7.58-25.721,25.324-25.721,58.653v127.867H821.24z"/>
		<path d="M1137.821,621.823v-36.311h-0.88c-16.851,28.759-47.695,42.188-79.293,42.188c-78.909,0-124.084-60.356-124.084-121.935
			c0-57.007,40.051-124.062,124.084-124.062c32.479,0,62.442,13.484,79.293,39.264h0.88v-32.933h43.891v233.789H1137.821z
			 M1057.648,421.79c-54.02,0-80.201,46.843-80.201,83.551c0,42.216,33.33,82.273,79.747,82.273
			c45.978,0,81.465-37.531,81.465-82.273C1138.659,455.517,1102.788,421.79,1057.648,421.79z"/>
		<path d="M1403.861,465.651c-7.154-14.764-24.074-43.861-65.821-43.861c-56.566,0-76.794,47.269-76.794,82.728
			c0,40.483,25.721,83.098,75.928,83.098c32.891,0,55.289-18.993,66.305-43.067h48.901c-17.701,51.953-63.295,83.153-115.206,83.153
			c-76.78,0-119.762-62.854-119.762-123.184c0-63.31,46.374-122.813,120.188-122.813c66.263,0,105.965,49.37,114.78,83.948
			L1403.861,465.651L1403.861,465.651z"/>
		<path d="M1666.779,388.034l-84.814,110.151l98.355,123.638h-54.877l-93.7-121.14h-0.823v121.14h-43.934V309.537h43.934v191.146
			h0.823l83.168-112.649H1666.779z"/>
		<path d="M1787.833,450.094c-2.527-19.021-13.897-28.304-29.923-28.304c-16.055,0-27.41,10.135-27.41,24.896
			c0,19.42,16.877,24.443,36.253,30.378c18.155,5.479,70.492,20.271,70.492,75.941c0,41.364-28.745,74.693-78.512,74.693
			c-29.54,0-82.729-18.566-82.729-82.699h43.919c1.675,26.146,15.174,42.613,39.646,42.613c19.803,0,33.756-12.236,33.756-32.053
			c0-20.695-18.127-27.851-40.896-35.885c-25.352-9.284-65.878-20.668-65.878-70.464c0-34.605,29.128-67.511,73.444-67.511
			c26.615,0,70.463,16.466,71.727,68.391h-43.89V450.094z"/>
	</g>
</g>
</svg>
