<?xml version="1.0" encoding="utf-8"?>
<!-- Generator: Adobe Illustrator 16.0.0, SVG Export Plug-In . SVG Version: 6.00 Build 0)  -->
<!DOCTYPE svg PUBLIC "-//W3C//DTD SVG 1.1//EN" "http://www.w3.org/Graphics/SVG/1.1/DTD/svg11.dtd">
<svg version="1.1" id="Layer_1" xmlns="http://www.w3.org/2000/svg" xmlns:xlink="http://www.w3.org/1999/xlink" x="0px" y="0px"
	 width="120px" height="120px" viewBox="0 0 120 120" enable-background="new 0 0 120 120" xml:space="preserve">
<g>
	<path fill="#FFFFFF" d="M55.99,6.985c6.105-0.458,12.296,0.123,18.197,1.768c8.634,2.381,16.623,7.021,23.007,13.299
		c6.08,5.955,10.714,13.381,13.352,21.477c2.531,7.722,3.236,16.027,2.081,24.07c-1.433,10.165-5.939,19.86-12.746,27.542
		c-6.232,7.09-14.383,12.482-23.363,15.404c-6.248,2.044-12.883,2.908-19.445,2.539c-7.202-0.396-14.32-2.275-20.768-5.509
		C27.949,103.409,20.732,97,15.595,89.204c-2.672-4.041-4.786-8.451-6.26-13.066c-1.891-5.911-2.717-12.159-2.452-18.359
		c0.336-8.282,2.661-16.476,6.732-23.695c4.174-7.45,10.17-13.866,17.31-18.55C38.377,10.625,47.087,7.643,55.99,6.985 M58.61,10.98
		c-7.844,0.205-15.622,2.361-22.456,6.216c-7.211,4.049-13.368,9.955-17.712,16.993c-4.41,7.1-6.939,15.352-7.262,23.703
		c-0.24,5.832,0.559,11.707,2.384,17.249c2.785,8.535,8.002,16.249,14.852,22.048c6.943,5.918,15.576,9.833,24.612,11.11
		c7.368,1.069,14.979,0.434,22.062-1.869c9.839-3.156,18.588-9.557,24.631-17.932c3.473-4.789,6.067-10.213,7.598-15.928
		c2.044-7.595,2.205-15.686,0.485-23.359c-1.796-8.066-5.709-15.643-11.207-21.808c-5.802-6.533-13.372-11.488-21.7-14.138
		C69.649,11.579,64.115,10.822,58.61,10.98z"/>
	<path fill="#FFFFFF" d="M39.046,26.321c0.002-0.294-0.029-0.742,0.334-0.838c1.404-0.006,2.81,0.002,4.213,0
		c-0.001,1.771,0.003,3.542-0.002,5.313c0.992,0.202,1.984,0.452,2.897,0.904c2.476,1.195,4.424,3.25,5.965,5.488
		c0.919,1.367,1.749,2.809,2.331,4.354c0.543-0.184,1.056-0.449,1.603-0.624c2.635-0.869,5.437-1.069,8.192-1.034
		c0.788-1.586,1.771-3.075,2.911-4.43c1.424-1.676,3.146-3.16,5.203-3.996c0.748-0.314,1.543-0.495,2.336-0.655
		c0.008-1.61,0.002-3.222,0.002-4.833c0-0.167,0.021-0.331,0.047-0.494c1.322,0.018,2.646-0.012,3.97,0.012
		c0.284-0.026,0.545,0.195,0.524,0.486c0.016,1.688,0.001,3.377,0.005,5.065c0.471-0.147,0.954-0.414,1.457-0.236
		c1.8,0.482,3.346,1.598,4.804,2.716c2.839,2.14,4.676,5.303,6.077,8.506c1.943,4.542,3.088,9.381,3.889,14.241
		c0.274,1.507,0.338,3.063,0.88,4.51c0.478,1.297,1.087,2.568,1.967,3.646c0.466,0.604,1.058,1.093,1.521,1.697
		c-3.367,0.019-6.736,0.002-10.104,0.008c1.173-1.021,1.578-2.597,1.742-4.081c0.206-1.599,0.208-3.221,0.022-4.822
		c-3.764-0.007-7.528,0.001-11.292-0.004c-0.183,2.142-1.19,4.177-2.724,5.67c-1.956,1.921-4.55,3.089-7.207,3.655
		c0.041,0.458,0.08,0.916,0.127,1.373c2,0.128,3.979,0.595,5.83,1.366c2.071,0.872,3.987,2.22,5.299,4.068
		c1.124,1.563,1.768,3.438,1.978,5.345c0.313,2.813-0.142,5.723-1.396,8.269c-1.529,3.146-4.168,5.634-7.146,7.413
		c-4.55,2.69-9.843,3.977-15.101,4.13c-4.324,0.167-8.644-0.993-12.414-3.083c-1.799-0.96-3.424-2.2-5.059-3.408
		c-1.441-1.038-2.961-1.995-4.623-2.645c-0.701-0.275-1.435-0.461-2.152-0.688c-0.003-0.018-0.009-0.055-0.014-0.07
		c1.223-0.574,2.122-1.67,2.775-2.823c0.874-1.594,1.21-3.431,1.229-5.233c0.006-7.777,0.002-15.557,0.002-23.335
		c-4.382,0.001-8.765,0.001-13.146-0.001c-0.209,1.762-0.188,3.552,0.083,5.306c0.176,1.327,0.632,2.687,1.668,3.595
		c-3.363,0.013-6.726,0.013-10.088,0c0.742-0.91,1.66-1.688,2.243-2.723c0.852-1.441,1.505-3.021,1.752-4.684
		c0.417-3.084,0.978-6.152,1.748-9.169c0.876-3.41,1.997-6.779,3.644-9.898c1.201-2.235,2.688-4.378,4.71-5.945
		c1.198-0.952,2.459-1.847,3.866-2.466c0.535-0.223,1.096-0.429,1.682-0.439c0.339,0.042,0.663,0.157,0.992,0.244
		C38.995,29.47,39.073,27.894,39.046,26.321 M72.821,36.631c-1.677,1.129-2.966,2.737-4.001,4.455
		c2.122,0.424,4.149,1.278,5.969,2.449c1.777,1.154,3.348,2.673,4.398,4.524c1.078,1.866,1.557,4.035,1.541,6.181
		c3.5-0.021,7.002,0,10.5-0.009c-0.155-2.091-0.61-4.149-1.172-6.165c-0.641-2.225-1.49-4.396-2.639-6.409
		c-1.013-1.764-2.259-3.425-3.862-4.692c-1.202-0.948-2.625-1.646-4.146-1.881C77.123,34.735,74.722,35.317,72.821,36.631
		 M36.767,36.647c-2.579,1.591-4.46,4.081-5.911,6.699c-1.83,3.365-3.008,7.082-3.456,10.886c4.262,0,8.522,0.001,12.784,0
		c-0.01-1.054,0.079-2.105,0.057-3.157c-0.008-0.433-0.094-0.866-0.298-1.249c-0.361-0.707-1.018-1.191-1.484-1.82
		c4.101-0.142,8.053-1.803,11.297-4.268c0.332-0.243,0.746-0.318,1.131-0.442c-0.192-0.508-0.454-0.985-0.646-1.492
		c-0.672-1.683-1.612-3.301-2.982-4.514c-1.302-1.176-3-1.887-4.746-2.025C40.508,35.054,38.467,35.586,36.767,36.647
		 M55.962,45.383c0.729,3.674,1.174,7.396,1.593,11.115c0.138,0.968,0.262,1.951,0.607,2.872c0.178,0.456,0.453,0.941,0.947,1.104
		c0.396,0.154,0.84-0.07,1.094-0.382c0.392-0.5,0.551-1.132,0.693-1.737c0.387-1.797,0.454-3.638,0.734-5.448
		c0.358-2.729,0.733-5.457,1.301-8.151c-1.445-0.146-2.903-0.16-4.354-0.114C57.682,44.72,56.669,44.763,55.962,45.383
		 M66.596,47.536c-0.971,2.099-1.492,4.395-1.66,6.695c2.867,0,5.733,0,8.602,0c-0.059-1.603-0.633-3.154-1.447-4.521
		c-1.021-1.678-2.615-3.035-4.491-3.644C67.114,46.418,66.87,47.018,66.596,47.536 M49.125,48.788
		c-1.399,1.477-2.288,3.418-2.48,5.445c2.344,0.005,4.688-0.014,7.034,0.009c0.042-1.436-0.122-2.87-0.362-4.284
		c-0.226-1.173-0.531-2.374-1.235-3.361C50.938,47.076,49.973,47.898,49.125,48.788 M46.58,57.223c0,2.909-0.002,5.816,0.001,8.725
		c1.729-0.002,3.463,0.068,5.193,0c0.522-0.014,0.971-0.371,1.232-0.804c0.445-0.726,0.612-1.578,0.735-2.408
		c0.255-1.829,0.163-3.68,0.12-5.519C51.435,57.231,49.007,57.221,46.58,57.223 M64.459,57.22c-0.482,1.958-0.479,4.004-0.203,5.992
		c0.129,0.843,0.261,1.694,0.555,2.498c0.83,0.023,1.668-0.069,2.461-0.325c1.466-0.466,2.728-1.443,3.681-2.637
		c1.283-1.604,2.129-3.531,2.577-5.527C70.505,57.225,67.482,57.228,64.459,57.22 M46.55,69.401
		c0.011,5.146-0.002,10.29,0.006,15.436c0.012,1.492,0.539,2.957,1.403,4.167c1.087,1.536,2.616,2.714,4.263,3.6
		c2.519,1.324,5.364,2.078,8.216,2c2.048-0.017,4.101-0.099,6.125-0.408c2.063-0.316,4.141-0.874,5.902-2.03
		c1.477-0.962,2.629-2.384,3.32-4.002c0.969-2.242,1.221-4.717,1.248-7.136c0.021-1.979-0.261-4.018-1.219-5.775
		c-0.854-1.599-2.266-2.847-3.867-3.665c-2.135-1.092-4.514-1.598-6.877-1.879c-3.069-0.379-6.169-0.301-9.256-0.31
		C52.726,69.399,49.639,69.394,46.55,69.401z"/>
	<path fill="#FFFFFF" d="M56.279,78.702c0.533-0.678,1.486-0.794,2.293-0.722c0.696,0.051,1.455,0.42,1.669,1.134
		c0.151,0.614,0.081,1.26,0.061,1.887c-0.065,0.256-0.129,0.533-0.321,0.729c-0.218,0.23-0.54,0.303-0.83,0.4
		c0.281,0.048,0.569,0.104,0.821,0.247c0.382,0.32,0.472,0.843,0.475,1.314c0.002,0.568,0.015,1.139-0.014,1.708
		c-0.07,0.55-0.416,1.072-0.965,1.234c-0.826,0.242-1.731,0.24-2.56,0.009c-0.524-0.146-0.876-0.616-0.977-1.137
		c-0.049-0.606-0.023-1.219-0.025-1.825c0.005-0.474,0.09-1.007,0.482-1.317c0.251-0.144,0.537-0.192,0.817-0.235
		c-0.696-0.085-1.242-0.655-1.232-1.368C55.986,80.074,55.829,79.292,56.279,78.702 M57.62,80.336
		c0.023,0.25,0.008,0.512,0.088,0.753c0.125,0.354,0.741,0.397,0.882,0.038c0.086-0.29,0.06-0.597,0.08-0.894
		c0-0.333-0.121-0.807-0.555-0.716C57.686,79.523,57.637,80.011,57.62,80.336 M57.803,82.921c-0.195,0.144-0.147,0.411-0.174,0.624
		c0.023,0.432-0.005,0.864,0.016,1.298c-0.019,0.549,1.061,0.574,1.008-0.002c0.019-0.457-0.011-0.913,0.015-1.369
		c-0.027-0.186,0.008-0.403-0.134-0.551C58.331,82.752,58.008,82.769,57.803,82.921z"/>
	<path fill="#FFFFFF" d="M61.626,78.748c0.429-0.606,1.224-0.788,1.926-0.786c0.677-0.003,1.444,0.162,1.864,0.744
		c0.427,0.6,0.27,1.379,0.283,2.068c-0.037,0.32-0.088,0.666-0.308,0.922c-0.215,0.254-0.553,0.329-0.852,0.432
		c0.243,0.05,0.487,0.108,0.725,0.182c0.361,0.257,0.528,0.696,0.548,1.125c0.028,0.611,0.019,1.228,0.008,1.841
		c-0.03,0.573-0.352,1.156-0.924,1.343c-0.834,0.266-1.761,0.258-2.603,0.028c-0.606-0.165-0.977-0.764-1.003-1.369
		c-0.016-0.533-0.007-1.069-0.004-1.604c0.004-0.459,0.092-0.96,0.445-1.285c0.254-0.163,0.555-0.213,0.849-0.259
		c-0.303-0.099-0.638-0.175-0.864-0.414c-0.243-0.248-0.313-0.602-0.361-0.932C61.367,80.105,61.211,79.341,61.626,78.748
		 M63.002,80.222c0.018,0.269,0.004,0.542,0.064,0.81c0.08,0.417,0.798,0.479,0.915,0.059c0.061-0.249,0.05-0.505,0.069-0.757
		c-0.011-0.328-0.044-0.863-0.504-0.816C63.146,79.479,63.018,79.899,63.002,80.222 M63.093,83.017
		c-0.094,0.158-0.063,0.352-0.084,0.527c0.021,0.43-0.004,0.86,0.016,1.29c-0.029,0.554,1.057,0.589,1.007,0.008
		c0.02-0.434-0.008-0.868,0.016-1.302c-0.032-0.218,0.028-0.499-0.173-0.651C63.633,82.739,63.263,82.778,63.093,83.017z"/>
	<path fill="#FFFFFF" d="M50.882,78.626c0.554-0.205,1.075-0.598,1.691-0.551c0.434,0.003,0.866,0.004,1.3,0.004
		c0.001,2.869-0.006,5.738,0.003,8.607c-0.579,0-1.157,0-1.737-0.001c0.001-2.128,0.001-4.255,0-6.382c0-0.203-0.001-0.408,0-0.608
		c-0.419-0.002-0.836-0.002-1.255,0C50.885,79.338,50.885,78.981,50.882,78.626z"/>
	<path fill="#FFFFFF" d="M66.903,78.079c1.313-0.001,2.631-0.001,3.944,0c-0.006,0.541,0.022,1.084-0.022,1.623
		c-0.771-0.019-1.538-0.005-2.308-0.007c-0.001,0.199-0.001,0.401,0,0.604c-0.001,0.279-0.001,0.558,0,0.838
		c0.586-0.765,1.98-0.623,2.428,0.23c0.261,0.457,0.194,0.999,0.203,1.503c-0.012,0.8,0.017,1.599-0.013,2.397
		c-0.047,0.61-0.403,1.212-1.004,1.413c-0.771,0.256-1.643,0.258-2.411-0.008c-0.588-0.204-0.934-0.795-0.985-1.393
		c-0.024-0.392-0.01-0.779-0.011-1.167c0.559,0,1.114-0.004,1.672,0.003c0.012,0.326-0.03,0.67,0.092,0.98
		c0.163,0.354,0.805,0.262,0.824-0.147c0.088-0.651,0.022-1.313,0.048-1.966c-0.014-0.222-0.016-0.444-0.085-0.652
		c-0.108-0.315-0.602-0.33-0.782-0.08c-0.079,0.172-0.089,0.363-0.124,0.548c-0.491,0-0.981,0-1.471,0
		C66.912,81.229,66.9,79.654,66.903,78.079z"/>
	<path fill="#FFFFFF" d="M24.009,88.208c0.241,0.291,0.475,0.589,0.701,0.892C24.456,88.818,24.222,88.521,24.009,88.208z"/>
	<path fill="#FFFFFF" d="M24.813,89.224c0.204,0.224,0.396,0.456,0.591,0.688C25.186,89.699,24.99,89.47,24.813,89.224z"/>
	<path fill="#FFFFFF" d="M29.654,94.239c0.362,0.097,0.563,0.422,0.813,0.673C30.204,94.678,29.898,94.495,29.654,94.239z"/>
	<path fill="#FFFFFF" d="M30.637,95.078c0.002,0.004,0.01,0.009,0.012,0.012C30.646,95.087,30.639,95.082,30.637,95.078z"/>
	<path fill="#FFFFFF" d="M31.425,95.706c0.282,0.161,0.585,0.306,0.781,0.578C31.923,96.126,31.592,96.004,31.425,95.706z"/>
	<g id="_x23_c00808ff">
		<path fill="#C00808" d="M57.151,2.481c5.835-0.289,11.719,0.301,17.374,1.774c8.815,2.287,17.054,6.736,23.832,12.816
			c6.56,5.858,11.759,13.236,15.051,21.395c4.916,12.067,5.512,25.822,1.712,38.28c-2.81,9.276-8.028,17.801-14.985,24.548
			c-6.688,6.514-14.979,11.374-23.944,13.987c-6.072,1.779-12.441,2.534-18.763,2.249c-7.338-0.324-14.612-2.064-21.289-5.128
			c-7.732-3.523-14.658-8.79-20.14-15.282C10.048,90.098,5.811,81.627,3.802,72.64c-1.391-6.193-1.737-12.619-1.047-18.929
			c0.923-8.524,3.811-16.825,8.358-24.092c5.639-9.066,13.84-16.517,23.411-21.249C41.553,4.874,49.309,2.858,57.151,2.481
			 M55.99,6.985c-8.903,0.657-17.613,3.64-25.066,8.548c-7.14,4.684-13.136,11.1-17.31,18.55
			c-4.071,7.221-6.396,15.414-6.732,23.695c-0.265,6.199,0.562,12.448,2.452,18.359c1.474,4.615,3.587,9.025,6.26,13.066
			c5.137,7.796,12.354,14.205,20.71,18.371c6.447,3.232,13.565,5.111,20.768,5.509c6.563,0.369,13.196-0.495,19.445-2.539
			c8.98-2.922,17.13-8.315,23.363-15.404c6.807-7.682,11.313-17.377,12.746-27.542c1.155-8.043,0.45-16.35-2.081-24.07
			c-2.638-8.096-7.271-15.521-13.352-21.477C90.81,15.773,82.82,11.134,74.186,8.753C68.286,7.108,62.097,6.527,55.99,6.985z"/>
		<path fill="#C00808" d="M58.61,10.98c5.505-0.158,11.04,0.599,16.284,2.287c8.329,2.648,15.899,7.604,21.701,14.138
			c5.498,6.165,9.411,13.739,11.207,21.808c1.72,7.674,1.559,15.766-0.486,23.359c-1.528,5.715-4.125,11.139-7.597,15.928
			c-6.043,8.375-14.792,14.774-24.631,17.932c-7.082,2.303-14.693,2.938-22.062,1.869c-9.037-1.277-17.67-5.192-24.612-11.11
			c-6.851-5.799-12.065-13.513-14.853-22.048c-1.824-5.542-2.623-11.417-2.383-17.249c0.322-8.352,2.853-16.604,7.262-23.703
			c4.345-7.038,10.5-12.944,17.713-16.993C42.988,13.342,50.767,11.186,58.61,10.98 M57.969,14.082l-0.037,0.005
			c-0.599-0.021-1.253-0.145-1.819,0.089c-0.71-0.042-1.388,0.19-2.086,0.257c-0.744-0.106-1.471,0.168-2.204,0.242l0.106,0.101
			l-0.098,0.016c-0.578-0.111-1.128,0.163-1.697,0.212l0.015,0.135l-0.048,0.011c-0.384-0.129-0.751,0.073-1.124,0.143
			c-0.293,0.076-0.625,0.086-0.86,0.299c-1.823,0.404-3.56,1.121-5.306,1.766c-0.754,0.28-1.461,0.666-2.216,0.944
			c-0.392,0.162-0.741,0.409-1.127,0.582c-3.266,1.639-6.313,3.695-9.105,6.05c-0.628,0.39-1.064,1-1.623,1.469
			c-0.576,0.312-0.872,0.926-1.386,1.313c-0.586,0.457-1.007,1.075-1.492,1.628c-6.33,7.036-10.385,16.085-11.397,25.497
			c-0.179,1.029-0.19,2.082-0.213,3.125c-0.147,0.62-0.076,1.26-0.092,1.893c0.018,0.673-0.061,1.352,0.083,2.016
			c-0.044,0.313-0.035,0.628,0.005,0.94c0.106,0.881,0.073,1.781,0.283,2.648c-0.07,0.53,0.1,1.048,0.127,1.575l0.131,0.005
			c0.062,1.027,0.243,2.045,0.571,3.021c-0.066,0.63,0.236,1.218,0.336,1.829l0.124-0.017l0.012,0.047
			c-0.033,0.167-0.028,0.33,0.01,0.493c0.313,1.051,0.634,2.1,1.011,3.131c0.056,0.162,0.15,0.307,0.257,0.441
			c0.153,0.532,0.441,1.016,0.618,1.541c0.201,0.696,0.555,1.335,0.834,2.003c0.156,0.375,0.354,0.729,0.586,1.063
			c0.143,0.677,0.58,1.239,0.892,1.845c0.201,0.319,0.308,0.731,0.652,0.936c0.125,0.236,0.271,0.462,0.424,0.681
			c0.028,0.408,0.349,0.693,0.546,1.027c0.21,0.286,0.339,0.654,0.666,0.837c0.113,0.204,0.263,0.384,0.414,0.564
			c0.056,0.359,0.329,0.619,0.529,0.907c0.201,0.257,0.364,0.565,0.668,0.719c0.018,0.023,0.051,0.071,0.067,0.097
			c0.213,0.313,0.448,0.61,0.701,0.892c0.026,0.031,0.078,0.093,0.104,0.124c0.176,0.246,0.372,0.477,0.59,0.688
			c0.019,0.018,0.056,0.057,0.073,0.074c0.084,0.228,0.233,0.422,0.401,0.595c0.87,0.908,1.706,1.851,2.647,2.688
			c0.347,0.295,0.614,0.702,1.056,0.871c0.018,0.024,0.054,0.075,0.072,0.101c0.245,0.256,0.55,0.438,0.813,0.673
			c0.042,0.042,0.126,0.125,0.169,0.166c0.002,0.004,0.01,0.01,0.012,0.012c0.234,0.233,0.491,0.446,0.776,0.616
			c0.167,0.3,0.498,0.42,0.781,0.579c0.123,0.161,0.313,0.246,0.486,0.342c0.027,0.042,0.084,0.128,0.111,0.17l0.047,0.02
			c0.4,0.453,0.954,0.729,1.437,1.084c0.478,0.279,0.893,0.682,1.426,0.858l0.025,0.03l0.02,0.005
			c0.15,0.146,0.315,0.277,0.497,0.385c3.579,2.15,7.435,3.857,11.465,4.956c0.405,0.106,0.805,0.274,1.232,0.229
			c0.292,0.097,0.581,0.216,0.89,0.241c0.209,0.178,0.498,0.169,0.752,0.229c0.53,0.075,1.048,0.314,1.591,0.212l0.005,0.001
			c0.249,0.25,0.646,0.169,0.964,0.251c0.82,0.083,1.642,0.327,2.471,0.216l0.037,0.006c0.392,0.264,0.909,0.118,1.351,0.104
			l0.03,0.004c0.063,0.034,0.189,0.104,0.253,0.137c1.781,0.028,3.563,0.024,5.346,0.001c0.146,0.006,0.269-0.041,0.372-0.141
			l0.03-0.005c0.44,0.016,0.979,0.181,1.359-0.112l0.029-0.003c0.598,0.119,1.192-0.033,1.784-0.097
			c0.045-0.027,0.135-0.082,0.18-0.109c0.646-0.021,1.276-0.161,1.911-0.266c1.427-0.32,2.861-0.604,4.263-1.026
			c6.006-1.69,11.647-4.648,16.476-8.603c0.798-0.687,1.673-1.288,2.366-2.089c0.489-0.229,0.802-0.69,1.192-1.046
			c0.317-0.358,0.761-0.632,0.941-1.094c0.859-0.782,1.59-1.697,2.284-2.626c0.288-0.369,0.632-0.693,0.878-1.094
			c0.221-0.357,0.561-0.632,0.726-1.028c0.182-0.436,0.564-0.729,0.81-1.124c0.498-0.755,1.021-1.496,1.398-2.317
			c0.459-0.625,0.82-1.313,1.13-2.019c0.383-0.398,0.604-0.946,0.761-1.47l0.034-0.041c0.006-0.028,0.018-0.08,0.024-0.107
			c0.28-0.317,0.466-0.734,0.488-1.161c0.018-0.032,0.048-0.1,0.063-0.135c0.267-0.186,0.311-0.527,0.443-0.799
			c0.112-0.302,0.32-0.595,0.252-0.933l0.004-0.008c0.041-0.038,0.122-0.111,0.162-0.148c0.26-0.577,0.434-1.189,0.646-1.785
			c0.105-0.354,0.305-0.701,0.224-1.081l0.013-0.041l0.128,0.025c0.094-0.533,0.421-1.038,0.32-1.591l0.011-0.04l0.128,0.02
			c0.065-0.458,0.31-0.9,0.209-1.371l0.009-0.04l0.137,0.026c0.075-0.34,0.149-0.687,0.107-1.035
			c0.046-0.177,0.085-0.354,0.107-0.532c0.289-0.349,0.264-0.887,0.224-1.316l0.006-0.028l0.135,0.007
			c0.058-0.663,0.196-1.313,0.253-1.973c0.047-0.563,0.192-1.123,0.076-1.687l0.003-0.016c0.162-0.121,0.139-0.325,0.146-0.501
			c0.006-0.438,0.017-0.876-0.021-1.313l0.009-0.049c0.149-0.252,0.133-0.552,0.14-0.835c-0.003-0.696-0.003-1.391,0.001-2.087
			c-0.005-0.317,0.021-0.652-0.136-0.938l-0.012-0.057c0.046-0.551,0.035-1.107-0.01-1.658c-0.028-0.038-0.09-0.113-0.121-0.151
			l-0.003-0.027c0.137-0.598-0.046-1.193-0.08-1.79c-0.003-0.148-0.044-0.286-0.126-0.408c0.018-0.411-0.115-0.803-0.195-1.199
			c-0.099-0.625-0.219-1.245-0.286-1.877c-0.494-2.24-1.075-4.471-1.884-6.622c-2.854-7.84-7.921-14.835-14.415-20.058
			c-6.443-5.208-14.328-8.634-22.546-9.712c-1.352-0.254-2.73-0.333-4.103-0.372c-0.796-0.266-1.653-0.05-2.475-0.121
			C59.081,13.974,58.459,13.781,57.969,14.082z"/>
		<path fill="#C00808" d="M37.707,25.662c0.137-0.914,0.986-1.623,1.904-1.621c1.232-0.013,2.466,0,3.699-0.01
			c0.464-0.01,0.971,0.074,1.316,0.406c0.262,0.247,0.355,0.613,0.389,0.96c0.057,1.407-0.029,2.82,0.047,4.229
			c1.753,0.414,3.366,1.313,4.757,2.448c2.292,1.846,4.003,4.308,5.368,6.892c0.139,0.234,0.207,0.536,0.413,0.713
			c2.553-0.875,5.268-1.21,7.957-1.228c0.174,0.033,0.245-0.136,0.317-0.255c0.889-1.596,1.955-3.091,3.189-4.436
			c1.493-1.576,3.276-2.932,5.324-3.696c0.396-0.149,0.802-0.27,1.199-0.406c0.021-1.449-0.028-2.9,0.085-4.347
			c0.038-0.347,0.144-0.715,0.423-0.941c0.379-0.315,0.896-0.346,1.367-0.342c1.156,0.012,2.313,0.004,3.471,0.003
			c0.627-0.011,1.261,0.26,1.66,0.749c0.348,0.382,0.402,0.927,0.418,1.42c-0.004,1.045,0.017,2.089,0.004,3.135
			c1.785,0.346,3.354,1.325,4.814,2.362c1.366,0.995,2.671,2.101,3.709,3.444c1.419,1.755,2.513,3.742,3.451,5.785
			c2.52,5.703,3.84,11.853,4.667,18.007c0.236,1.217,0.692,2.385,1.287,3.471c0.283,0.569,0.728,1.034,1.141,1.514
			c0.446,0.515,1.023,0.929,1.35,1.54c0.224,0.387,0.132,0.849,0.054,1.262c-0.297,0.534-0.885,0.856-1.491,0.844
			c-3.398,0.002-6.8-0.004-10.198,0c-0.535,0.012-1.072-0.227-1.361-0.688c-0.064-0.434-0.143-0.935,0.142-1.311
			c0.295-0.399,0.73-0.663,1.023-1.063c0.338-0.414,0.516-0.927,0.621-1.439c0.225-1.059,0.327-2.143,0.27-3.222
			c-2.918-0.02-5.839-0.023-8.757,0l0.03-0.074c2.92-0.035,5.84,0.008,8.761-0.02c0.003-0.359-0.007-0.719-0.023-1.076
			c-2.698-0.04-5.398,0.008-8.096-0.021c-0.224,0.004-0.449-0.009-0.66,0.064c-0.158,0.376-0.231,0.779-0.37,1.162
			c-0.702,2.007-2.06,3.756-3.745,5.039c-1.111,0.868-2.37,1.525-3.663,2.076c0.495,0.206,1.021,0.312,1.538,0.449
			c1.942,0.687,3.847,1.564,5.431,2.906c1.156,0.93,2.109,2.102,2.844,3.386c1.09,1.974,1.567,4.233,1.601,6.477
			c-0.008,0.932,0.189,1.882-0.059,2.799c-0.024-0.166-0.049-0.327-0.077-0.491c-0.281,2.263-1.035,4.464-2.23,6.405
			c-1.759,2.877-4.359,5.168-7.264,6.842c-4.708,2.709-10.141,4.019-15.547,4.188c-4.737,0.155-9.477-1.147-13.569-3.512
			c-1.472-0.841-2.871-1.805-4.179-2.881c-1.823-1.379-3.806-2.632-6.035-3.229c-0.804-0.264-1.688-0.41-2.336-1.001
			c-0.024-0.438-0.152-0.941,0.146-1.319c0.383-0.479,0.996-0.638,1.509-0.926c1.419-1.021,2.232-2.685,2.55-4.373
			c0.232-1.05,0.206-2.131,0.204-3.199c0.01-6.357-0.006-12.718,0.005-19.077c-0.005-0.195-0.016-0.391-0.025-0.585
			c-3.165-0.053-6.331,0.002-9.494-0.028c-0.277-0.004-0.556,0.01-0.834,0.028c-0.062,0.845,0.063,1.685,0.181,2.518
			c0.122,0.772,0.282,1.59,0.798,2.208c0.287,0.363,0.7,0.606,0.963,0.992c0.255,0.39,0.146,0.877,0.145,1.313
			c-0.332,0.412-0.815,0.709-1.361,0.683c-3.316,0.007-6.633-0.008-9.949,0.008c-0.366-0.005-0.75-0.001-1.086-0.166
			c-0.263-0.128-0.434-0.369-0.637-0.569c-0.025,0.013-0.077,0.037-0.104,0.05c0.042-0.481-0.164-1.001,0.108-1.442
			c0.558-0.924,1.476-1.553,2.087-2.435c0.641-0.971,1.16-2.024,1.492-3.144c0.319-1.016,0.376-2.086,0.552-3.13
			c0.813-5.265,2.041-10.504,4.146-15.412c0.943-2.174,2.086-4.28,3.57-6.135c1.283-1.649,2.928-2.974,4.665-4.119
			c1.119-0.694,2.283-1.375,3.592-1.634c0.11-0.047,0.352-0.031,0.316-0.22C37.642,28.031,37.604,26.842,37.707,25.662
			 M39.046,26.321c0.027,1.572-0.052,3.148,0.054,4.719c-0.328-0.086-0.653-0.202-0.992-0.244c-0.586,0.012-1.146,0.217-1.682,0.439
			c-1.406,0.618-2.668,1.514-3.866,2.465c-2.022,1.566-3.509,3.71-4.71,5.946c-1.646,3.119-2.767,6.489-3.644,9.898
			c-0.771,3.016-1.331,6.084-1.748,9.169c-0.248,1.663-0.901,3.242-1.752,4.684c-0.583,1.035-1.501,1.813-2.243,2.723
			c3.362,0.013,6.725,0.013,10.088,0c-1.036-0.908-1.492-2.269-1.668-3.595c-0.271-1.754-0.292-3.543-0.083-5.306
			c4.382,0.003,8.765,0.003,13.146,0.001c0,7.779,0.004,15.558-0.002,23.335c-0.019,1.804-0.354,3.641-1.229,5.233
			c-0.653,1.153-1.553,2.247-2.775,2.823c0.004,0.017,0.01,0.054,0.014,0.07c0.718,0.229,1.451,0.413,2.152,0.688
			c1.662,0.647,3.181,1.604,4.623,2.645c1.635,1.209,3.26,2.448,5.059,3.408c3.771,2.09,8.09,3.25,12.414,3.083
			c5.258-0.153,10.551-1.438,15.101-4.13c2.978-1.779,5.615-4.267,7.146-7.413c1.254-2.546,1.708-5.455,1.396-8.269
			c-0.21-1.905-0.854-3.781-1.978-5.347c-1.312-1.848-3.228-3.194-5.299-4.066c-1.852-0.771-3.83-1.238-5.83-1.366
			c-0.047-0.457-0.086-0.915-0.126-1.373c2.656-0.568,5.25-1.735,7.206-3.655c1.532-1.493,2.541-3.528,2.724-5.67
			c3.764,0.006,7.528-0.003,11.292,0.004c0.186,1.602,0.184,3.224-0.022,4.822c-0.164,1.484-0.569,3.062-1.742,4.081
			c3.367-0.006,6.736,0.011,10.104-0.008c-0.463-0.604-1.055-1.095-1.521-1.697c-0.88-1.078-1.489-2.351-1.967-3.646
			c-0.542-1.447-0.604-3.002-0.88-4.51c-0.801-4.859-1.944-9.699-3.889-14.241c-1.401-3.203-3.238-6.366-6.077-8.506
			c-1.458-1.118-3.004-2.232-4.804-2.716c-0.503-0.178-0.986,0.09-1.457,0.236c-0.004-1.688,0.011-3.378-0.005-5.065
			c0.021-0.292-0.24-0.513-0.524-0.486c-1.322-0.023-2.646,0.005-3.97-0.012c-0.024,0.163-0.047,0.327-0.047,0.494
			c0,1.611,0.006,3.223-0.002,4.833c-0.793,0.16-1.588,0.34-2.336,0.655c-2.057,0.836-3.779,2.32-5.203,3.996
			c-1.14,1.354-2.123,2.844-2.911,4.43c-2.757-0.035-5.56,0.166-8.192,1.034c-0.547,0.174-1.059,0.439-1.603,0.624
			c-0.582-1.545-1.411-2.985-2.331-4.354c-1.541-2.238-3.489-4.293-5.965-5.487c-0.913-0.452-1.905-0.702-2.897-0.904
			c0.005-1.772,0.001-3.543,0.002-5.313c-1.403,0.002-2.809-0.006-4.213,0C39.018,25.579,39.049,26.027,39.046,26.321
			 M28.136,58.677c-0.024,0.354-0.027,0.71,0,1.064c3.449,0.027,6.9,0.016,10.349,0.006c0.023-0.356,0.028-0.712,0.006-1.068
			C35.041,58.642,31.587,58.654,28.136,58.677z"/>
		<path fill="#C00808" d="M72.821,36.631c1.899-1.313,4.302-1.896,6.589-1.546c1.521,0.235,2.943,0.934,4.146,1.881
			c1.604,1.269,2.851,2.931,3.862,4.692c1.146,2.012,1.998,4.185,2.639,6.409c0.562,2.016,1.017,4.074,1.172,6.165
			c-3.501,0.008-7-0.013-10.5,0.009c0.016-2.146-0.463-4.313-1.542-6.181c-1.051-1.853-2.62-3.371-4.397-4.525
			c-1.818-1.171-3.847-2.025-5.969-2.449C69.855,39.368,71.146,37.76,72.821,36.631 M74.544,37.296
			c-1.327,0.704-2.532,1.708-3.361,2.969c0.227,0.076,0.452,0.149,0.681,0.222c2.17,0.901,4.261,2.076,5.967,3.712
			c2.438,2.201,4.009,5.339,4.255,8.622c0.494,0.041,0.989,0.024,1.484,0.023c1.939-0.021,3.881,0.042,5.815-0.029l-0.018-0.156
			c0.052,0.05,0.151,0.15,0.202,0.201c-0.006-0.173-0.021-0.344-0.038-0.514c-0.384-2.307-1.033-4.564-1.866-6.75
			c-0.838-2.049-1.834-4.063-3.266-5.769c-1.006-1.249-2.27-2.331-3.771-2.927C78.673,36.143,76.393,36.319,74.544,37.296z"/>
		<path fill="#C00808" d="M36.767,36.647c1.7-1.062,3.741-1.594,5.743-1.384c1.747,0.139,3.444,0.85,4.746,2.025
			c1.37,1.213,2.311,2.831,2.982,4.514c0.192,0.507,0.455,0.984,0.646,1.492c-0.385,0.124-0.799,0.199-1.13,0.442
			c-3.245,2.465-7.197,4.126-11.298,4.268c0.468,0.628,1.123,1.113,1.485,1.82c0.206,0.383,0.291,0.816,0.298,1.249
			c0.022,1.052-0.066,2.104-0.057,3.157c-4.262,0.002-8.522,0-12.784,0c0.447-3.804,1.625-7.521,3.456-10.886
			C32.307,40.729,34.188,38.238,36.767,36.647 M37.781,37.671c-2.253,1.313-3.941,3.397-5.267,5.606
			c-1.678,2.866-2.856,6.023-3.46,9.29c-0.008,0.108-0.005,0.217,0.014,0.324c0.1-0.102,0.182-0.214,0.247-0.337
			c-0.003,0.068-0.008,0.205-0.01,0.272c1.47,0.038,2.939,0.003,4.409,0.017c1.691-0.019,3.385,0.033,5.074-0.028
			c0.017-0.272,0.047-0.542,0.058-0.814c0.043-0.37,0.073-0.749,0.009-1.117c-0.119-0.528-0.518-0.924-0.884-1.297
			c-0.354-0.355-0.632-0.788-1.022-1.11c0.009-0.477-0.136-1.055,0.272-1.417c0.689-0.617,1.682-0.419,2.523-0.534
			c3.233-0.424,6.291-1.82,8.899-3.75c0.109-0.115,0.375-0.215,0.263-0.411c-0.444-1.142-1.005-2.254-1.787-3.204
			c-0.928-1.156-2.231-2.017-3.68-2.353C41.534,36.33,39.466,36.674,37.781,37.671z"/>
		<path fill="#C00808" d="M55.962,45.383c0.707-0.62,1.72-0.663,2.615-0.741c1.451-0.046,2.909-0.032,4.354,0.113
			c-0.566,2.694-0.941,5.422-1.301,8.152c-0.28,1.812-0.349,3.651-0.734,5.448c-0.143,0.605-0.302,1.238-0.693,1.737
			c-0.254,0.312-0.697,0.536-1.094,0.382c-0.494-0.164-0.771-0.649-0.947-1.104c-0.346-0.921-0.471-1.904-0.607-2.873
			C57.136,52.778,56.691,49.057,55.962,45.383 M57.57,46.227c0.063,0.348,0.129,0.692,0.199,1.039l0.127-0.012
			c-0.15,0.125-0.07,0.329-0.061,0.494c0.342,1.918,0.554,3.854,0.813,5.785c0.205,1.615,0.295,3.253,0.691,4.837
			c0.125-0.162,0.189-0.356,0.223-0.555c0.241-1.313,0.354-2.645,0.508-3.969c0.302-2.199,0.592-4.402,0.938-6.598
			c-0.894-0.052-1.79,0-2.684-0.031c0.894-0.125,1.797-0.037,2.695-0.062c0.086-0.35,0.15-0.702,0.2-1.058
			c-0.604-0.072-1.216-0.04-1.822-0.045C58.784,46.06,58.16,46.045,57.57,46.227z"/>
		<path fill="#C00808" d="M66.596,47.536c0.274-0.519,0.52-1.118,1.002-1.468c1.876,0.608,3.471,1.966,4.491,3.644
			c0.814,1.365,1.391,2.917,1.447,4.521c-2.867,0-5.733,0-8.601,0C65.104,51.931,65.625,49.635,66.596,47.536 M68.104,47.854
			c-0.822,1.547-1.291,3.267-1.541,4.994c0.048-0.013,0.14-0.037,0.186-0.049c0.594,0.087,1.193,0.028,1.788,0.04
			c0.976-0.01,1.954,0.036,2.929-0.022l-0.05-0.148c0.103,0.132,0.269,0.241,0.425,0.116C71.31,50.747,70.034,48.795,68.104,47.854z
			"/>
		<path fill="#C00808" d="M49.125,48.788c0.847-0.89,1.813-1.711,2.956-2.19c0.704,0.987,1.01,2.188,1.235,3.361
			c0.241,1.414,0.404,2.849,0.362,4.284c-2.346-0.022-4.69-0.004-7.035-0.009C46.838,52.206,47.726,50.264,49.125,48.788
			 M48.395,52.818c0.144,0.002,0.288,0.006,0.433,0.008c1.102,0.023,2.205,0.037,3.305-0.004l0.022,0.124
			c0.031-0.204,0.05-0.412,0.024-0.618c-0.116-1.125-0.252-2.253-0.557-3.344c-0.04-0.14-0.113-0.266-0.179-0.393
			C50.027,49.639,48.91,51.128,48.395,52.818z"/>
		<path fill="#C00808" d="M46.58,57.223c2.428-0.002,4.854,0.009,7.282-0.006c0.043,1.839,0.136,3.689-0.12,5.519
			c-0.122,0.83-0.289,1.684-0.734,2.408c-0.262,0.433-0.71,0.79-1.232,0.804c-1.731,0.068-3.463-0.002-5.193,0
			C46.578,63.039,46.579,60.132,46.58,57.223 M47.955,58.688c-0.004,0.354-0.004,0.707-0.001,1.06c1.51,0.005,3.021,0.02,4.531,0
			c0.014-0.356,0.01-0.712-0.011-1.067C50.97,58.651,49.459,58.628,47.955,58.688 M48.058,59.848
			c-0.021,1.549-0.018,3.097-0.003,4.646c1.046,0.04,2.092,0.021,3.137,0.021c0.18-0.013,0.369,0.008,0.539-0.064
			c0.183-0.188,0.252-0.448,0.336-0.688c0.379-1.264,0.442-2.597,0.377-3.908C50.982,59.803,49.518,59.823,48.058,59.848z"/>
		<path fill="#C00808" d="M64.459,57.22c3.023,0.008,6.046,0.005,9.069,0.001c-0.448,1.996-1.294,3.924-2.577,5.527
			c-0.953,1.192-2.215,2.171-3.682,2.637c-0.791,0.256-1.63,0.35-2.459,0.325c-0.295-0.804-0.427-1.655-0.556-2.498
			C63.979,61.224,63.977,59.178,64.459,57.22 M65.648,58.684c-0.034,0.438-0.213,0.913-0.015,1.333
			c-0.221,1.271-0.03,2.554,0.183,3.813c0.04,0.115,0.022,0.284,0.124,0.368c0.579-0.063,1.144-0.259,1.665-0.52
			c1.55-0.819,2.731-2.246,3.454-3.826c-1.802-0.045-3.604-0.033-5.403-0.008l0.013-0.076c1.531-0.033,3.064-0.001,4.596-0.009
			c0.293-0.014,0.602,0.041,0.885-0.052c0.207-0.311,0.329-0.669,0.429-1.027C69.602,58.652,67.623,58.633,65.648,58.684z"/>
		<path fill="#C00808" d="M46.55,69.401c3.089-0.009,6.176-0.002,9.266-0.004c3.086,0.009,6.187-0.069,9.256,0.31
			c2.364,0.281,4.743,0.787,6.875,1.879c1.604,0.817,3.017,2.066,3.869,3.665c0.956,1.759,1.24,3.798,1.219,5.775
			c-0.027,2.419-0.279,4.894-1.249,7.136c-0.69,1.617-1.844,3.04-3.319,4.002c-1.763,1.156-3.84,1.714-5.903,2.029
			c-2.023,0.312-4.076,0.394-6.123,0.409c-2.854,0.078-5.699-0.676-8.217-2c-1.646-0.886-3.176-2.063-4.263-3.6
			c-0.864-1.21-1.392-2.675-1.403-4.167C46.549,79.691,46.563,74.547,46.55,69.401 M47.976,70.859
			c0.007,0.366,0.008,0.731,0.007,1.1l0.063-0.001c-0.053,4.327-0.004,8.659-0.026,12.987c-0.021,1.591,0.828,3.047,1.883,4.186
			c1.028,1.057,2.281,1.873,3.601,2.521c2.094,0.962,4.385,1.561,6.702,1.522c2.488-0.015,4.994-0.134,7.435-0.649
			c1.784-0.375,3.548-1.048,4.95-2.238c1.374-1.221,2.204-2.948,2.58-4.728c0.375-1.773,0.529-3.607,0.309-5.411
			c0.164-0.285,0.071-0.625,0.056-0.932c-0.2-1.847-0.874-3.724-2.261-5.013c-1.474-1.439-3.474-2.172-5.443-2.627
			c-3.145-0.7-6.384-0.77-9.591-0.756c-2.774-0.009-5.549,0.001-8.322-0.003C49.27,70.826,48.62,70.786,47.976,70.859z"/>
	</g>
	<g id="_x23_cf2629ff">
		<path fill="#CF2629" d="M57.969,14.082c0.49-0.3,1.112-0.107,1.657-0.147c0.821,0.071,1.679-0.145,2.475,0.121
			C60.723,14.077,59.345,14.042,57.969,14.082z"/>
	</g>
	<g id="_x23_d8242bff">
		<path fill="#D8242B" d="M56.112,14.176c0.565-0.233,1.221-0.109,1.819-0.09C57.335,14.232,56.72,14.192,56.112,14.176z"/>
		<path fill="#D8242B" d="M101.594,79.351c0.059-0.426,0.259-0.807,0.488-1.16C102.06,78.615,101.874,79.031,101.594,79.351z"/>
	</g>
	<g id="_x23_e3000fff">
		<path fill="#E3000F" d="M57.932,14.087l0.037-0.005c1.376-0.04,2.754-0.004,4.132-0.026c1.371,0.039,2.751,0.118,4.102,0.371
			c8.219,1.08,16.104,4.505,22.547,9.713c6.494,5.223,11.563,12.219,14.415,20.058c0.809,2.151,1.39,4.382,1.884,6.623
			c0.067,0.631,0.188,1.251,0.286,1.876c0.08,0.396,0.213,0.789,0.195,1.198c-0.013,0.738,0.086,1.473,0.206,2.199l0.004,0.027
			c0.045,0.604-0.042,1.22,0.13,1.81l0.011,0.057c0,1.288,0.004,2.576-0.004,3.861l-0.009,0.05c-0.178,0.59-0.065,1.209-0.124,1.813
			l-0.003,0.016c-0.187,1.212-0.292,2.438-0.464,3.651l-0.007,0.028c-0.104,0.433-0.188,0.872-0.224,1.316
			c-0.021,0.18-0.062,0.355-0.106,0.532c-0.107,0.329-0.187,0.666-0.244,1.009l-0.01,0.04c-0.143,0.442-0.254,0.895-0.337,1.353
			l-0.011,0.04c-0.176,0.516-0.325,1.037-0.448,1.564l-0.013,0.041c-0.359,0.999-0.706,2.004-1.032,3.016l-0.003,0.008
			c-0.274,0.559-0.53,1.128-0.695,1.73c-0.017,0.035-0.047,0.103-0.063,0.136c-0.229,0.354-0.431,0.734-0.488,1.161
			c-0.008,0.026-0.018,0.078-0.023,0.106l-0.035,0.041c-0.394,0.403-0.563,0.954-0.76,1.47c-0.311,0.706-0.671,1.394-1.13,2.019
			c-0.377,0.82-0.901,1.563-1.399,2.317c-0.244,0.396-0.628,0.688-0.809,1.124c-0.165,0.396-0.505,0.672-0.727,1.028
			c-0.246,0.4-0.59,0.726-0.878,1.093c-0.693,0.931-1.424,1.846-2.284,2.627c-0.511,0.351-0.887,0.85-1.338,1.265
			c-0.292,0.269-0.563,0.557-0.796,0.876c-0.693,0.8-1.568,1.4-2.367,2.088c-4.827,3.953-10.47,6.911-16.476,8.603
			c-1.4,0.425-2.836,0.706-4.262,1.026c-0.636,0.104-1.268,0.245-1.91,0.265c-0.66,0.013-1.314,0.093-1.965,0.207l-0.03,0.003
			c-0.455,0.009-0.911,0.021-1.358,0.112l-0.03,0.005c-1.988,0.06-3.981,0.021-5.971,0.003l-0.029-0.004
			c-0.445-0.104-0.9-0.099-1.353-0.104l-0.036-0.007c-1.139-0.189-2.289-0.327-3.435-0.467l-0.005-0.001
			c-0.77-0.197-1.549-0.388-2.345-0.439c-0.309-0.026-0.598-0.146-0.889-0.242c-0.867-0.299-1.765-0.494-2.635-0.783
			c-3.338-1.073-6.571-2.494-9.58-4.3c-0.308-0.197-0.617-0.404-0.98-0.486l-0.02-0.005l-0.025-0.03
			c-0.116-0.145-0.245-0.276-0.402-0.372c-0.636-0.397-1.263-0.812-1.862-1.26c-0.18-0.137-0.389-0.229-0.597-0.311l-0.048-0.021
			c-0.028-0.042-0.084-0.128-0.111-0.17c-0.175-0.096-0.364-0.181-0.487-0.342c-0.196-0.273-0.5-0.418-0.782-0.579
			c-0.285-0.17-0.542-0.383-0.775-0.616c-0.002-0.002-0.01-0.008-0.013-0.012c-0.043-0.041-0.127-0.124-0.169-0.166
			c-0.251-0.251-0.45-0.576-0.813-0.673c-0.019-0.024-0.054-0.075-0.072-0.101c-0.164-0.242-0.363-0.457-0.584-0.647
			c-0.725-0.631-1.405-1.31-2.065-2.006c-0.482-0.502-0.907-1.064-1.454-1.499c-0.02-0.019-0.057-0.058-0.074-0.074
			c-0.194-0.232-0.386-0.466-0.589-0.688c-0.027-0.032-0.079-0.094-0.104-0.124c-0.226-0.304-0.46-0.601-0.701-0.893
			c-0.018-0.023-0.051-0.072-0.067-0.097c-0.342-0.584-0.755-1.119-1.198-1.626c-0.15-0.179-0.301-0.359-0.414-0.564
			c-0.333-0.663-0.758-1.276-1.212-1.864c-0.152-0.219-0.299-0.443-0.424-0.681c-0.469-0.949-0.981-1.883-1.544-2.778
			c-0.231-0.335-0.43-0.689-0.586-1.064c-0.28-0.668-0.632-1.307-0.834-2.003c-0.178-0.525-0.466-1.008-0.619-1.54
			c-0.07-0.331-0.151-0.658-0.275-0.972c-0.386-1.015-0.655-2.067-1.002-3.096l-0.012-0.046c-0.114-0.615-0.261-1.223-0.46-1.813
			c-0.329-0.978-0.51-1.994-0.572-3.021c-0.054-0.531-0.077-1.073-0.259-1.58c-0.209-0.867-0.176-1.769-0.283-2.647
			c-0.039-0.313-0.049-0.629-0.005-0.94c0.064-0.438,0.082-0.882,0.056-1.325c-0.05-0.861,0.071-1.726-0.046-2.583
			c0.022-1.042,0.035-2.095,0.212-3.124c1.014-9.412,5.067-18.461,11.397-25.498c0.486-0.554,0.907-1.171,1.494-1.628
			c0.512-0.388,0.808-1.002,1.384-1.313c0.559-0.467,0.994-1.079,1.623-1.467c2.792-2.355,5.84-4.412,9.105-6.051
			c0.387-0.173,0.735-0.419,1.127-0.582c0.755-0.277,1.462-0.664,2.216-0.944c1.746-0.645,3.482-1.361,5.306-1.766
			c0.675-0.076,1.331-0.26,1.984-0.44l0.047-0.011c0.564-0.094,1.13-0.194,1.683-0.349l0.1-0.016
			c0.703-0.077,1.405-0.184,2.096-0.341c0.7-0.067,1.376-0.301,2.086-0.259C56.72,14.192,57.335,14.232,57.932,14.087
			 M37.707,25.662c-0.104,1.181-0.065,2.37-0.082,3.554c0.035,0.188-0.206,0.172-0.316,0.218c-1.309,0.261-2.473,0.94-3.592,1.636
			c-1.736,1.146-3.381,2.468-4.665,4.117c-1.484,1.854-2.627,3.962-3.571,6.136c-2.104,4.908-3.331,10.147-4.145,15.412
			c-0.176,1.044-0.23,2.114-0.552,3.131c-0.332,1.118-0.852,2.172-1.492,3.144c-0.611,0.882-1.53,1.51-2.087,2.433
			c-0.273,0.443-0.066,0.962-0.108,1.443c-0.129,0.581,0.103,1.25,0.626,1.561c0.313,0.219,0.709,0.237,1.078,0.246
			c3.276-0.007,6.552-0.002,9.828-0.002c0.499-0.009,1.078-0.063,1.411-0.483c0.298-0.372,0.269-0.882,0.193-1.323
			c0.001-0.438,0.11-0.926-0.146-1.313c-0.263-0.386-0.676-0.629-0.963-0.994c-0.516-0.617-0.676-1.434-0.798-2.206
			c-0.117-0.833-0.242-1.673-0.181-2.518c0.277-0.019,0.556-0.032,0.832-0.028c3.165,0.031,6.331-0.024,9.495,0.028
			c0.01,0.194,0.021,0.391,0.025,0.587c-0.012,6.358,0.005,12.717-0.005,19.075c0.002,1.069,0.027,2.15-0.204,3.2
			c-0.317,1.688-1.13,3.353-2.55,4.373c-0.514,0.288-1.127,0.447-1.51,0.926c-0.296,0.378-0.169,0.883-0.145,1.319
			c-0.127,0.493-0.121,1.16,0.385,1.439c0.629,0.345,1.347,0.469,2.021,0.691c2.585,0.725,4.802,2.32,6.879,3.964
			c1.28,0.945,2.616,1.821,4.027,2.563c3.839,2.059,8.198,3.19,12.565,3.08c5.732-0.137,11.522-1.539,16.433-4.566
			c3.02-1.859,5.665-4.435,7.274-7.622c0.92-1.828,1.479-3.835,1.651-5.872c0.247-0.916,0.051-1.865,0.059-2.798
			c-0.032-2.242-0.511-4.505-1.601-6.477c-0.735-1.286-1.688-2.457-2.844-3.386c-1.585-1.342-3.487-2.222-5.431-2.907
			c1.287-0.759,2.559-1.581,3.574-2.694c1.312-1.355,2.207-3.077,2.655-4.904c2.918-0.022,5.838-0.02,8.756,0
			c0.059,1.08-0.045,2.164-0.27,3.221c-0.105,0.516-0.283,1.027-0.621,1.441c-0.294,0.399-0.729,0.663-1.023,1.063
			c-0.283,0.375-0.206,0.877-0.142,1.311c-0.112,0.444-0.125,0.961,0.173,1.34c0.312,0.39,0.851,0.464,1.317,0.472
			c3.314-0.002,6.628-0.002,9.941,0c0.493,0.001,1.049-0.111,1.365-0.527c0.338-0.39,0.432-0.957,0.254-1.438
			c0.078-0.415,0.17-0.878-0.054-1.263c-0.325-0.611-0.902-1.024-1.351-1.541c-0.412-0.479-0.855-0.943-1.14-1.513
			c-0.595-1.086-1.051-2.254-1.287-3.471c-0.827-6.154-2.148-12.306-4.667-18.008c-0.938-2.041-2.032-4.029-3.451-5.784
			c-1.038-1.344-2.343-2.449-3.709-3.445c-1.462-1.038-3.029-2.016-4.814-2.362c0.013-1.045-0.008-2.089-0.004-3.135
			c-0.016-0.493-0.07-1.039-0.418-1.421c-0.4-0.488-1.033-0.76-1.66-0.748c-1.158,0.001-2.313,0.01-3.471-0.003
			c-0.471-0.003-0.988,0.027-1.367,0.342c-0.281,0.229-0.385,0.596-0.423,0.941c-0.113,1.446-0.065,2.897-0.085,4.348
			c-0.398,0.138-0.805,0.256-1.199,0.405c-2.048,0.766-3.831,2.122-5.325,3.697c-1.233,1.344-2.301,2.841-3.188,4.435
			c-0.072,0.119-0.146,0.287-0.317,0.254c-2.689,0.018-5.404,0.354-7.957,1.229c-0.208-0.179-0.274-0.48-0.414-0.714
			c-1.364-2.585-3.075-5.047-5.368-6.893c-1.391-1.134-3.004-2.034-4.757-2.448c-0.075-1.408,0.011-2.821-0.047-4.229
			c-0.032-0.347-0.126-0.712-0.388-0.958c-0.347-0.333-0.854-0.417-1.316-0.407c-1.233,0.011-2.467-0.003-3.7,0.009
			C38.693,24.039,37.844,24.749,37.707,25.662z"/>
		<path fill="#E3000F" d="M76.117,37.826c1.588-0.427,3.331-0.344,4.83,0.355c1.626,0.73,2.925,2.022,3.977,3.438
			c1.268,1.738,2.218,3.688,2.962,5.703c0.632,1.735,1.164,3.514,1.481,5.335l0.018,0.157c-1.936,0.07-3.876,0.009-5.815,0.028
			c-0.495,0.001-0.99,0.018-1.484-0.022c-0.246-3.283-1.817-6.421-4.255-8.622c-1.706-1.636-3.797-2.811-5.967-3.712
			C73.003,39.236,74.465,38.241,76.117,37.826z"/>
		<path fill="#E3000F" d="M38.789,38.32c2.038-0.854,4.479-0.746,6.404,0.353c1.594,0.912,2.686,2.471,3.451,4.103
			c-2.608,1.929-5.666,3.325-8.899,3.75c-0.842,0.115-1.834-0.083-2.523,0.534c-0.409,0.361-0.265,0.939-0.272,1.417
			c-0.007,0.349-0.098,0.721,0.069,1.045c0.471,0.928,1.505,1.464,1.829,2.479c-0.01,0.272-0.041,0.542-0.058,0.814
			c-1.689,0.063-3.383,0.011-5.074,0.028c-1.47-0.013-2.938,0.022-4.409-0.016c0.002-0.069,0.008-0.205,0.01-0.273
			c0.748-3.366,2.099-6.617,4.05-9.467C34.754,41.103,36.52,39.268,38.789,38.32z"/>
		<path fill="#E3000F" d="M57.896,47.254c0.141-0.015,0.282-0.027,0.427-0.037c0.894,0.031,1.79-0.021,2.684,0.031
			c-0.346,2.195-0.636,4.396-0.938,6.598c-0.154,1.324-0.267,2.655-0.509,3.969c-0.032,0.198-0.096,0.394-0.222,0.555
			c-0.396-1.583-0.485-3.222-0.691-4.837c-0.259-1.931-0.47-3.867-0.813-5.785C57.826,47.583,57.746,47.379,57.896,47.254z"/>
		<path fill="#E3000F" d="M68.086,48.951c1.505,0.793,2.691,2.143,3.328,3.717l0.05,0.148c-0.975,0.059-1.953,0.014-2.929,0.023
			c-0.595-0.012-1.194,0.047-1.788-0.04C67.061,51.476,67.434,50.151,68.086,48.951z"/>
		<path fill="#E3000F" d="M48.827,52.826c0.612-1.226,1.518-2.344,2.679-3.083c0.313,1.002,0.469,2.042,0.626,3.079
			C51.031,52.863,49.928,52.851,48.827,52.826z"/>
		<path fill="#E3000F" d="M48.058,59.848c1.46-0.024,2.926-0.045,4.387,0.006c0.065,1.312,0.002,2.645-0.377,3.908
			c-0.084,0.239-0.153,0.501-0.337,0.688c-0.168,0.074-0.358,0.053-0.538,0.064c-1.046,0-2.091,0.02-3.137-0.021
			C48.04,62.944,48.036,61.396,48.058,59.848z"/>
		<path fill="#E3000F" d="M65.656,59.845c1.801-0.025,3.603-0.037,5.403,0.008c-0.723,1.58-1.904,3.005-3.454,3.826
			c-0.521,0.261-1.086,0.455-1.665,0.52c-0.102-0.084-0.085-0.253-0.124-0.368c-0.213-1.259-0.402-2.541-0.183-3.813L65.656,59.845z
			"/>
		<path fill="#E3000F" d="M48.046,71.958c4.129-0.004,8.258-0.012,12.385,0.002c2.728,0.062,5.478,0.223,8.121,0.929
			c1.521,0.409,3.021,1.012,4.248,2.021c1.585,1.263,2.521,3.237,2.678,5.24c0.223,1.804,0.065,3.638-0.31,5.411
			c-0.374,1.778-1.204,3.508-2.578,4.728c-1.403,1.19-3.166,1.863-4.951,2.238c-2.439,0.517-4.945,0.636-7.435,0.649
			c-2.316,0.037-4.607-0.56-6.702-1.522c-1.319-0.648-2.572-1.466-3.601-2.521c-1.055-1.139-1.903-2.595-1.883-4.186
			C48.042,80.617,47.993,76.286,48.046,71.958 M56.279,78.702c-0.45,0.59-0.293,1.372-0.304,2.058
			c-0.033,0.557-0.014,1.188,0.415,1.604c-0.393,0.312-0.478,0.845-0.482,1.317c0.001,0.606-0.023,1.219,0.024,1.825
			c-0.059,0.527,0.061,1.14,0.503,1.479c0.509,0.39,1.184,0.416,1.799,0.423c0.604-0.013,1.268-0.07,1.752-0.476
			c0.421-0.383,0.483-0.999,0.447-1.534c0.027-0.569,0.014-1.14,0.014-1.708c-0.003-0.473-0.094-0.993-0.475-1.314
			c0.283-0.401,0.392-0.892,0.33-1.376c0.021-0.627,0.092-1.271-0.061-1.887c-0.215-0.714-0.974-1.083-1.669-1.134
			C57.766,77.908,56.813,78.024,56.279,78.702 M61.626,78.748c-0.415,0.593-0.259,1.357-0.271,2.035
			c-0.049,0.561,0.049,1.136,0.378,1.604c-0.354,0.325-0.442,0.826-0.445,1.285c-0.003,0.534-0.012,1.07,0.004,1.604
			c-0.03,0.538-0.013,1.146,0.376,1.564c0.441,0.494,1.155,0.536,1.771,0.565c0.669-0.008,1.436-0.021,1.953-0.506
			c0.433-0.42,0.466-1.064,0.428-1.627c0.011-0.613,0.02-1.229-0.008-1.841c-0.02-0.429-0.187-0.869-0.548-1.125
			c0.198,0.063,0.224-0.213,0.307-0.325c0.16-0.384,0.141-0.807,0.128-1.209c-0.015-0.689,0.144-1.47-0.283-2.068
			c-0.42-0.582-1.188-0.747-1.864-0.744C62.85,77.96,62.055,78.142,61.626,78.748 M50.882,78.626
			c0.003,0.354,0.003,0.712,0.003,1.069c-0.003,0.194-0.007,0.395-0.011,0.592c0.423-0.003,0.844,0.003,1.266,0.018
			c0.001,2.127,0.001,4.254,0,6.382c-0.001,0.191-0.004,0.385-0.004,0.576c0.576,0.04,1.152,0.024,1.73,0.018
			c0.003-0.199,0.008-0.396,0.011-0.593c-0.009-2.869-0.002-5.738-0.003-8.607c-0.434,0-0.866-0.001-1.3-0.004
			C51.958,78.028,51.438,78.421,50.882,78.626 M66.903,78.079c-0.003,1.575,0.009,3.147-0.005,4.723
			c0.009,0.203,0.021,0.408,0.032,0.614c0.477-0.016,0.95-0.016,1.427-0.011c0.072-0.249,0.042-0.632,0.363-0.702
			c0.265-0.102,0.471,0.109,0.64,0.283c-0.024,0.652,0.04,1.313-0.048,1.966c-0.021,0.409-0.661,0.502-0.824,0.147
			c-0.122-0.312-0.08-0.654-0.092-0.98c-0.558-0.007-1.113-0.003-1.672-0.003c0.001,0.388-0.015,0.775,0.011,1.167
			c-0.063,0.611,0.046,1.311,0.541,1.727c0.579,0.467,1.37,0.48,2.079,0.442c0.591-0.045,1.243-0.261,1.547-0.811
			c0.259-0.408,0.262-0.904,0.233-1.372c0.028-0.8,0.001-1.599,0.013-2.397c-0.009-0.504,0.058-1.045-0.203-1.503
			c-0.446-0.854-1.842-0.995-2.428-0.229c-0.001-0.281-0.001-0.561,0-0.84c0.758-0.021,1.517,0,2.274-0.018
			c0.008-0.193,0.018-0.389,0.032-0.579c0.046-0.541,0.018-1.084,0.022-1.625C69.534,78.078,68.218,78.078,66.903,78.079z"/>
		<path fill="#E3000F" d="M57.62,80.336c0.295-0.297,0.69-0.219,1.05-0.103c-0.021,0.297,0.006,0.604-0.08,0.894
			c-0.141,0.359-0.758,0.315-0.882-0.038C57.627,80.848,57.645,80.586,57.62,80.336z"/>
		<path fill="#E3000F" d="M63.002,80.222c0.357-0.133,0.744-0.147,1.05,0.108c-0.021,0.252-0.01,0.51-0.069,0.759
			c-0.117,0.421-0.834,0.358-0.915-0.06C63.006,80.764,63.02,80.489,63.002,80.222z"/>
		<path fill="#E3000F" d="M57.629,83.545c0.334-0.125,0.688-0.145,1.037-0.073c-0.024,0.456,0.004,0.912-0.015,1.369
			c0.053,0.576-1.025,0.551-1.008,0.002C57.624,84.409,57.652,83.976,57.629,83.545z"/>
		<path fill="#E3000F" d="M63.009,83.544c0.339-0.139,0.7-0.173,1.037-0.004c-0.022,0.434,0.004,0.868-0.016,1.302
			c0.05,0.581-1.036,0.546-1.007-0.008C63.005,84.404,63.03,83.974,63.009,83.544z"/>
	</g>
	<g id="_x23_d82128ff">
		<path fill="#D82128" d="M51.821,14.675c0.733-0.074,1.46-0.35,2.204-0.242c-0.69,0.159-1.393,0.265-2.097,0.343L51.821,14.675z"/>
	</g>
	<g id="_x23_d82027ff">
		<path fill="#D82027" d="M50.133,15.003c0.568-0.049,1.12-0.324,1.697-0.212c-0.553,0.153-1.117,0.254-1.684,0.348L50.133,15.003z"
			/>
	</g>
	<g id="_x23_d72027ff">
		<path fill="#D72027" d="M48.976,15.292c0.373-0.068,0.741-0.271,1.125-0.143c-0.653,0.182-1.309,0.365-1.983,0.441
			C48.352,15.377,48.684,15.368,48.976,15.292z"/>
	</g>
	<g id="_x23_890c00ff">
		<path fill="#890C00" d="M74.544,37.296c1.849-0.977,4.129-1.153,6.085-0.396c1.502,0.597,2.766,1.679,3.771,2.927
			c1.433,1.706,2.429,3.721,3.267,5.77c0.833,2.186,1.482,4.442,1.866,6.749c0.018,0.17,0.03,0.341,0.038,0.515
			c-0.05-0.051-0.15-0.15-0.202-0.201c-0.317-1.822-0.85-3.602-1.481-5.336c-0.744-2.014-1.694-3.964-2.962-5.703
			c-1.052-1.414-2.351-2.706-3.977-3.437c-1.499-0.7-3.242-0.783-4.83-0.356c-1.652,0.415-3.114,1.411-4.255,2.66
			c-0.229-0.072-0.454-0.146-0.68-0.222C72.012,39.004,73.217,38,74.544,37.296z"/>
		<path fill="#890C00" d="M37.781,37.671c1.685-0.997,3.753-1.341,5.659-0.863c1.448,0.336,2.752,1.196,3.68,2.353
			c0.781,0.949,1.343,2.063,1.787,3.204c0.111,0.196-0.154,0.296-0.264,0.411c-0.766-1.632-1.856-3.19-3.45-4.103
			c-1.926-1.098-4.367-1.206-6.404-0.353c-2.27,0.946-4.035,2.782-5.425,4.767c-1.952,2.851-3.302,6.102-4.05,9.467
			c-0.064,0.124-0.147,0.236-0.246,0.337c-0.019-0.107-0.021-0.216-0.014-0.324c0.603-3.267,1.782-6.424,3.459-9.29
			C33.84,41.068,35.528,38.984,37.781,37.671z"/>
		<path fill="#890C00" d="M57.57,46.227c0.59-0.182,1.214-0.167,1.826-0.173c0.606,0.004,1.219-0.026,1.822,0.045
			c-0.05,0.355-0.115,0.708-0.2,1.058c-0.898,0.023-1.802-0.063-2.695,0.062c-0.145,0.009-0.286,0.021-0.427,0.037l-0.128,0.012
			C57.699,46.919,57.632,46.574,57.57,46.227z"/>
		<path fill="#890C00" d="M68.104,47.854c1.932,0.94,3.206,2.893,3.735,4.93c-0.156,0.125-0.322,0.016-0.425-0.116
			c-0.637-1.574-1.823-2.923-3.328-3.717c-0.652,1.201-1.025,2.525-1.339,3.849c-0.046,0.012-0.138,0.036-0.185,0.049
			C66.813,51.12,67.28,49.4,68.104,47.854z"/>
		<path fill="#890C00" d="M36.947,48.476c0.391,0.322,0.667,0.753,1.022,1.11c0.366,0.374,0.765,0.768,0.884,1.297
			c0.063,0.369,0.035,0.747-0.009,1.117c-0.323-1.015-1.358-1.552-1.829-2.48C36.851,49.196,36.939,48.824,36.947,48.476z"/>
		<path fill="#890C00" d="M48.395,52.818c0.517-1.689,1.634-3.18,3.05-4.227c0.064,0.127,0.139,0.253,0.179,0.393
			c0.305,1.091,0.441,2.219,0.557,3.344c0.025,0.206,0.008,0.414-0.024,0.618l-0.022-0.124c-0.157-1.036-0.313-2.076-0.626-3.078
			c-1.161,0.739-2.065,1.857-2.679,3.083C48.682,52.824,48.538,52.82,48.395,52.818z"/>
		<path fill="#890C00" d="M28.136,58.677c3.451-0.022,6.904-0.035,10.354,0.001c0.022,0.355,0.019,0.712-0.006,1.068
			c-3.448,0.011-6.899,0.021-10.349-0.006C28.108,59.387,28.111,59.03,28.136,58.677z"/>
		<path fill="#890C00" d="M47.955,58.688c1.504-0.06,3.015-0.036,4.521-0.008c0.021,0.355,0.024,0.711,0.011,1.067
			c-1.511,0.02-3.021,0.005-4.531,0C47.951,59.395,47.951,59.042,47.955,58.688z"/>
		<path fill="#890C00" d="M65.648,58.684c1.975-0.051,3.952-0.031,5.929-0.004c-0.101,0.357-0.222,0.717-0.429,1.027
			c-0.283,0.093-0.592,0.039-0.885,0.052c-1.53,0.008-3.063-0.024-4.596,0.009l-0.013,0.076l-0.021,0.172
			C65.438,59.597,65.614,59.121,65.648,58.684z"/>
		<path fill="#890C00" d="M81.748,58.715c0.211-0.073,0.438-0.061,0.66-0.064c2.697,0.029,5.396-0.018,8.096,0.021
			c0.018,0.357,0.026,0.717,0.024,1.076c-2.92,0.027-5.842-0.016-8.762,0.02l-0.029,0.073c-0.448,1.828-1.345,3.548-2.655,4.904
			c-1.016,1.114-2.287,1.936-3.574,2.695c-0.518-0.139-1.043-0.243-1.538-0.449c1.293-0.551,2.552-1.208,3.663-2.076
			c1.688-1.282,3.043-3.031,3.745-5.039C81.517,59.494,81.59,59.09,81.748,58.715z"/>
		<path fill="#890C00" d="M17.199,66.835c0.203,0.198,0.374,0.441,0.637,0.569c0.336,0.165,0.72,0.161,1.086,0.166
			c3.316-0.016,6.633-0.001,9.949-0.009c0.545,0.026,1.029-0.27,1.362-0.682c0.075,0.441,0.104,0.951-0.193,1.323
			c-0.333,0.422-0.913,0.476-1.411,0.482c-3.275,0-6.551-0.004-9.828,0.002c-0.369-0.008-0.765-0.026-1.078-0.245
			c-0.524-0.311-0.755-0.979-0.626-1.56C17.122,66.872,17.174,66.848,17.199,66.835z"/>
		<path fill="#890C00" d="M99.998,67.564c0.607,0.014,1.194-0.31,1.491-0.844c0.178,0.481,0.084,1.049-0.254,1.438
			c-0.315,0.417-0.872,0.528-1.365,0.526c-3.313-0.002-6.627-0.002-9.941,0c-0.468-0.007-1.005-0.082-1.317-0.471
			c-0.297-0.378-0.285-0.895-0.172-1.34c0.289,0.462,0.825,0.699,1.36,0.688C93.198,67.563,96.6,67.566,99.998,67.564z"/>
		<path fill="#890C00" d="M47.976,70.859c0.645-0.073,1.294-0.033,1.94-0.04c2.773,0.004,5.548-0.005,8.322,0.003
			c3.207-0.014,6.446,0.056,9.591,0.756c1.971,0.455,3.971,1.188,5.443,2.627c1.387,1.289,2.061,3.166,2.259,5.013
			c0.019,0.307,0.11,0.646-0.055,0.932c-0.157-2.005-1.093-3.979-2.678-5.24c-1.227-1.01-2.729-1.61-4.248-2.021
			c-2.645-0.706-5.395-0.867-8.121-0.929c-4.127-0.014-8.256-0.006-12.385-0.002l-0.063,0.001
			C47.982,71.592,47.98,71.227,47.976,70.859z"/>
		<path fill="#890C00" d="M57.62,80.336c0.018-0.325,0.065-0.813,0.495-0.817c0.435-0.091,0.555,0.383,0.555,0.716
			C58.311,80.117,57.915,80.04,57.62,80.336z"/>
		<path fill="#890C00" d="M63.002,80.222c0.016-0.321,0.146-0.741,0.546-0.706c0.46-0.047,0.493,0.487,0.504,0.814
			C63.746,80.073,63.359,80.089,63.002,80.222z"/>
		<path fill="#890C00" d="M50.885,79.695c0.419-0.002,0.836-0.002,1.255,0c-0.001,0.201,0,0.405,0,0.608
			c-0.422-0.015-0.843-0.021-1.265-0.018C50.878,80.089,50.882,79.891,50.885,79.695z"/>
		<path fill="#890C00" d="M68.52,79.695c0.769,0.002,1.535-0.012,2.305,0.007c-0.014,0.192-0.022,0.387-0.03,0.581
			c-0.759,0.018-1.518-0.005-2.274,0.018C68.518,80.098,68.518,79.896,68.52,79.695z"/>
		<path fill="#890C00" d="M55.976,80.76c-0.009,0.713,0.537,1.283,1.233,1.368c-0.281,0.043-0.566,0.093-0.818,0.235
			C55.962,81.948,55.943,81.315,55.976,80.76z"/>
		<path fill="#890C00" d="M61.355,80.783c0.049,0.33,0.118,0.684,0.361,0.932c0.228,0.239,0.563,0.315,0.864,0.414
			c-0.294,0.047-0.595,0.098-0.849,0.259C61.404,81.919,61.308,81.344,61.355,80.783z"/>
		<path fill="#890C00" d="M65.393,81.696c0.219-0.256,0.271-0.602,0.308-0.922c0.013,0.402,0.033,0.825-0.128,1.209
			c-0.083,0.112-0.107,0.388-0.307,0.326c-0.236-0.073-0.48-0.133-0.725-0.182C64.84,82.025,65.178,81.95,65.393,81.696z"/>
		<path fill="#890C00" d="M59.98,81.729c0.192-0.193,0.257-0.472,0.322-0.728c0.063,0.484-0.046,0.975-0.33,1.376
			c-0.252-0.144-0.541-0.199-0.821-0.247C59.441,82.031,59.764,81.96,59.98,81.729z"/>
		<path fill="#890C00" d="M68.493,82.254c0.182-0.25,0.674-0.234,0.782,0.081c0.069,0.207,0.071,0.431,0.085,0.651
			c-0.169-0.173-0.375-0.385-0.64-0.283c-0.321,0.07-0.291,0.453-0.363,0.702c-0.477-0.005-0.95-0.005-1.427,0.011
			c-0.013-0.206-0.023-0.411-0.032-0.614c0.488,0,0.979,0,1.471,0C68.404,82.617,68.414,82.426,68.493,82.254z"/>
		<path fill="#890C00" d="M85.246,82.518c0.028,0.164,0.053,0.325,0.077,0.491c-0.174,2.038-0.731,4.043-1.651,5.871
			c-1.609,3.188-4.256,5.762-7.273,7.622c-4.909,3.027-10.7,4.431-16.434,4.567c-4.367,0.11-8.727-1.022-12.565-3.081
			c-1.411-0.742-2.747-1.618-4.027-2.563c-2.077-1.643-4.294-3.239-6.879-3.964c-0.675-0.223-1.393-0.348-2.021-0.691
			c-0.505-0.278-0.512-0.946-0.385-1.439c0.646,0.591,1.532,0.737,2.336,1.001c2.229,0.598,4.212,1.851,6.035,3.229
			c1.308,1.076,2.707,2.04,4.179,2.881c4.094,2.363,8.832,3.667,13.569,3.512c5.406-0.169,10.839-1.479,15.547-4.188
			c2.903-1.674,5.505-3.965,7.264-6.842C84.211,86.981,84.965,84.779,85.246,82.518z"/>
		<path fill="#890C00" d="M57.803,82.921c0.205-0.151,0.528-0.169,0.729,0c0.143,0.146,0.106,0.365,0.134,0.551
			c-0.349-0.07-0.703-0.052-1.037,0.073C57.655,83.332,57.607,83.063,57.803,82.921z"/>
		<path fill="#890C00" d="M63.093,83.017c0.17-0.238,0.54-0.276,0.78-0.128c0.201,0.152,0.141,0.435,0.173,0.651
			c-0.337-0.169-0.698-0.135-1.037,0.004C63.03,83.367,62.999,83.175,63.093,83.017z"/>
		<path fill="#890C00" d="M61.292,85.276c0.026,0.605,0.396,1.204,1.003,1.368c0.842,0.229,1.768,0.237,2.602-0.027
			c0.571-0.187,0.895-0.77,0.925-1.343c0.038,0.563,0.005,1.206-0.428,1.627c-0.518,0.484-1.284,0.5-1.952,0.506
			c-0.617-0.029-1.331-0.071-1.772-0.565C61.279,86.423,61.262,85.815,61.292,85.276z"/>
		<path fill="#890C00" d="M67.276,87.01c-0.495-0.417-0.604-1.116-0.541-1.727c0.053,0.596,0.397,1.188,0.985,1.393
			c0.77,0.266,1.641,0.265,2.411,0.008c0.601-0.2,0.957-0.805,1.004-1.412c0.027,0.466,0.024,0.962-0.233,1.37
			c-0.304,0.551-0.956,0.767-1.547,0.812C68.646,87.49,67.855,87.477,67.276,87.01z"/>
		<path fill="#890C00" d="M59.469,86.635c0.55-0.161,0.896-0.686,0.966-1.234c0.036,0.535-0.025,1.151-0.447,1.534
			c-0.484,0.404-1.149,0.462-1.752,0.476c-0.615-0.008-1.29-0.033-1.8-0.423c-0.442-0.341-0.562-0.952-0.503-1.48
			c0.101,0.521,0.452,0.991,0.977,1.138C57.736,86.875,58.643,86.877,59.469,86.635z"/>
		<path fill="#890C00" d="M52.14,86.688c0.58,0,1.158,0,1.737,0c-0.003,0.195-0.008,0.394-0.011,0.593
			c-0.578,0.008-1.154,0.022-1.73-0.018C52.137,87.07,52.139,86.878,52.14,86.688z"/>
	</g>
	<g id="_x23_d8232aff">
		<path fill="#D8232A" d="M105.528,53.895c0.083,0.123,0.124,0.26,0.127,0.409c0.034,0.598,0.216,1.192,0.079,1.79
			C105.612,55.367,105.517,54.632,105.528,53.895z"/>
	</g>
	<g id="_x23_da272eff">
		<path fill="#DA272E" d="M105.738,56.12c0.03,0.038,0.092,0.114,0.121,0.152c0.045,0.549,0.055,1.105,0.009,1.657
			C105.696,57.34,105.783,56.724,105.738,56.12z"/>
	</g>
	<g id="_x23_df202aff">
		<path fill="#DF202A" d="M14.252,57.963c0.116,0.858-0.004,1.722,0.046,2.584c0.025,0.441,0.01,0.886-0.056,1.324
			c-0.143-0.664-0.064-1.345-0.082-2.016C14.175,59.224,14.104,58.583,14.252,57.963z"/>
	</g>
	<g id="_x23_cf3032ff">
		<path fill="#CF3032" d="M105.879,57.986c0.157,0.288,0.132,0.623,0.137,0.938c-0.003,0.696-0.005,1.393-0.001,2.087
			c-0.007,0.283,0.012,0.583-0.14,0.835C105.883,60.563,105.879,59.273,105.879,57.986z"/>
	</g>
	<g id="_x23_da2c33ff">
		<path fill="#DA2C33" d="M105.742,63.709c0.059-0.604-0.055-1.223,0.124-1.813c0.039,0.436,0.028,0.873,0.021,1.31
			C105.88,63.384,105.903,63.588,105.742,63.709z"/>
		<path fill="#DA2C33" d="M32.852,96.816c0.208,0.082,0.416,0.174,0.598,0.31c0.6,0.449,1.227,0.86,1.861,1.26
			c0.158,0.095,0.288,0.229,0.403,0.372c-0.533-0.177-0.948-0.579-1.426-0.857C33.806,97.544,33.251,97.27,32.852,96.816z"/>
	</g>
	<g id="_x23_d82b31ff">
		<path fill="#D82B31" d="M105.275,67.376c0.172-1.214,0.277-2.44,0.464-3.651c0.116,0.563-0.03,1.123-0.077,1.687
			c-0.057,0.66-0.196,1.31-0.253,1.973L105.275,67.376z"/>
		<path fill="#D82B31" d="M52.192,105.047c1.146,0.139,2.296,0.276,3.435,0.466c-0.83,0.112-1.65-0.133-2.472-0.216
			C52.837,105.216,52.441,105.297,52.192,105.047z"/>
	</g>
	<g id="_x23_d72228ff">
		<path fill="#D72228" d="M14.53,65.461c0.182,0.507,0.205,1.049,0.259,1.58l-0.132-0.005C14.63,66.509,14.461,65.991,14.53,65.461z
			"/>
	</g>
	<g id="_x23_d82e34ff">
		<path fill="#D82E34" d="M105.046,68.722c0.035-0.444,0.118-0.885,0.224-1.316C105.31,67.835,105.335,68.371,105.046,68.722z"/>
	</g>
	<g id="_x23_d72d32ff">
		<path fill="#D72D32" d="M104.694,70.263c0.059-0.343,0.137-0.68,0.242-1.01c0.044,0.349-0.03,0.696-0.108,1.036L104.694,70.263z"
			/>
	</g>
	<g id="_x23_d8222aff">
		<path fill="#D8222A" d="M15.361,70.061c0.198,0.594,0.346,1.201,0.46,1.815l-0.124,0.017
			C15.598,71.28,15.295,70.692,15.361,70.061z"/>
	</g>
	<g id="_x23_d92b31ff">
		<path fill="#D92B31" d="M104.348,71.654c0.083-0.459,0.195-0.909,0.336-1.353c0.103,0.472-0.143,0.913-0.207,1.371L104.348,71.654
			z"/>
	</g>
	<g id="_x23_d72a2fff">
		<path fill="#D72A2F" d="M103.889,73.259c0.124-0.528,0.273-1.049,0.449-1.563c0.102,0.551-0.227,1.058-0.32,1.59L103.889,73.259z"
			/>
	</g>
	<g id="_x23_d62329ff">
		<path fill="#D62329" d="M15.833,71.923c0.346,1.027,0.616,2.081,1.002,3.095c0.124,0.313,0.205,0.642,0.275,0.972
			c-0.106-0.136-0.201-0.28-0.257-0.441c-0.378-1.031-0.698-2.08-1.012-3.131C15.805,72.253,15.8,72.088,15.833,71.923z"/>
	</g>
	<g id="_x23_d8272eff">
		<path fill="#D8272E" d="M102.845,76.315c0.326-1.012,0.673-2.017,1.031-3.016c0.082,0.38-0.116,0.729-0.222,1.081
			c-0.215,0.595-0.389,1.207-0.648,1.785C102.967,76.203,102.886,76.277,102.845,76.315z"/>
	</g>
	<g id="_x23_d8262dff">
		<path fill="#D8262D" d="M102.146,78.055c0.164-0.604,0.421-1.174,0.694-1.73c0.068,0.338-0.14,0.629-0.252,0.931
			C102.453,77.526,102.411,77.868,102.146,78.055z"/>
		<path fill="#D8262D" d="M49.844,104.605c0.794,0.052,1.575,0.241,2.344,0.439c-0.543,0.104-1.062-0.137-1.591-0.212
			C50.341,104.773,50.053,104.782,49.844,104.605z"/>
	</g>
	<g id="_x23_d7232aff">
		<path fill="#D7232A" d="M100.774,80.969c0.194-0.516,0.364-1.065,0.76-1.471C101.377,80.021,101.156,80.569,100.774,80.969z"/>
	</g>
	<g id="_x23_d7282eff">
		<path fill="#D7282E" d="M19.149,80.597c0.563,0.896,1.075,1.83,1.544,2.779c-0.346-0.203-0.451-0.615-0.652-0.935
			C19.73,81.836,19.292,81.273,19.149,80.597z"/>
	</g>
	<g id="_x23_da2930ff">
		<path fill="#DA2930" d="M21.118,84.057c0.454,0.587,0.877,1.201,1.212,1.864c-0.326-0.183-0.456-0.551-0.666-0.837
			C21.467,84.75,21.146,84.465,21.118,84.057z"/>
	</g>
	<g id="_x23_d82c32ff">
		<path fill="#D82C32" d="M22.742,86.484c0.442,0.506,0.856,1.043,1.199,1.627c-0.304-0.153-0.467-0.462-0.67-0.719
			C23.072,87.105,22.799,86.846,22.742,86.484z"/>
		<path fill="#D82C32" d="M25.479,89.986c0.547,0.435,0.972,0.997,1.453,1.499c0.662,0.694,1.343,1.375,2.067,2.006
			c0.221,0.189,0.419,0.405,0.584,0.647c-0.44-0.169-0.709-0.575-1.056-0.871c-0.941-0.837-1.777-1.778-2.647-2.688
			C25.711,90.407,25.563,90.213,25.479,89.986z"/>
	</g>
	<g id="_x23_d51b21ff">
		<path fill="#D51B21" d="M92.209,92.44c0.453-0.415,0.829-0.914,1.338-1.265c-0.182,0.461-0.622,0.734-0.94,1.094
			c-0.391,0.354-0.702,0.817-1.191,1.046C91.646,92.997,91.918,92.709,92.209,92.44z"/>
	</g>
	<g id="_x23_d82a30ff">
		<path fill="#D82A30" d="M35.759,98.794c0.363,0.082,0.673,0.288,0.98,0.486c3.009,1.806,6.242,3.227,9.581,4.3
			c0.87,0.289,1.768,0.484,2.634,0.783c-0.428,0.046-0.828-0.122-1.232-0.229c-4.03-1.099-7.886-2.808-11.465-4.957
			C36.075,99.07,35.909,98.939,35.759,98.794z"/>
	</g>
	<g id="_x23_d7242bff">
		<path fill="#D7242B" d="M64.436,105.504c0.648-0.114,1.306-0.196,1.965-0.206c-0.045,0.028-0.136,0.082-0.181,0.11
			C65.628,105.472,65.032,105.623,64.436,105.504z"/>
	</g>
	<g id="_x23_d92e34ff">
		<path fill="#D92E34" d="M55.663,105.52c0.452,0.007,0.908,0,1.352,0.104C56.571,105.638,56.055,105.781,55.663,105.52z"/>
	</g>
	<g id="_x23_d8272dff">
		<path fill="#D8272D" d="M63.046,105.62c0.447-0.092,0.902-0.104,1.359-0.112C64.026,105.801,63.486,105.634,63.046,105.62z"/>
	</g>
	<g id="_x23_d9272eff">
		<path fill="#D9272E" d="M57.045,105.628c1.989,0.017,3.982,0.055,5.971-0.004c-0.104,0.101-0.228,0.146-0.371,0.142
			c-1.782,0.023-3.564,0.025-5.347-0.001C57.235,105.73,57.107,105.661,57.045,105.628z"/>
	</g>
</g>
</svg>
