<?xml version="1.0" encoding="utf-8"?>
<!DOCTYPE svg PUBLIC "-//W3C//DTD SVG 1.1//EN" "http://www.w3.org/Graphics/SVG/1.1/DTD/svg11.dtd">
<svg width="420" height="240" xmlns="http://www.w3.org/2000/svg">
 <g>
  <rect id="svg_14" height="190" width="380" y="-210" x="-420" stroke-width="4" fill="none"/>
  <g id="svg_1">
   <path id="svg_2" d="m252.78302,76.695015c4.928009,7.714989 4.877014,19.959999 -0.248993,27.525978c-1.990997,3.136002 -4.977997,6.222008 -8.113983,8.263c1.642975,1.145004 3.534973,1.842026 5.276978,2.787003c1.59198,1.343994 3.234009,2.688019 4.828003,4.032013h-34.147003v-55.003006c12.743011,-1.044998 25.783997,0.647011 32.404999,12.395012z" fill="#FF0000"/>
   <path id="svg_3" d="m340.538025,76.942993c4.380035,7.118011 4.578979,18.268028 0.299042,25.486008c-1.991058,3.783012 -5.376068,7.416992 -8.910065,10.054993c3.634033,1.54303 7.16806,3.583008 10.104004,6.819016h-34.146027v-55.003006c12.893005,-0.945995 26.133026,0.647011 32.653046,12.64299z" fill="#FF0000"/>
   <polygon id="svg_4" points="121.07502746582031,119.30301284790039 85.98301696777344,119.30301284790039 104.59902954101562,64.30000686645508 121.07502746582031,64.30000686645508 " fill="#FF0000"/>
   <polygon id="svg_5" points="157.96002197265625,119.30301284790039 123.166015625,119.30301284790039 123.166015625,64.30000686645508 139.59201049804688,64.30000686645508 " fill="#FF0000"/>
   <rect id="svg_6" height="55.003" width="32.653" fill="#FF0000" y="64.300007" x="185.834021"/>
   <rect id="svg_7" height="55.003" width="32.504" fill="#FF0000" y="64.300007" x="273.391021"/>
   <polygon id="svg_8" points="121.07502746582031,153.66798782348633 102.55902099609375,153.66798782348633 94.0470199584961,176.49599075317383 66.072021484375,176.49599075317383 85.83402252197266,121.54300308227539 121.07502746582031,121.54300308227539 " fill="#FF0000"/>
   <polygon id="svg_9" points="178.41702270507812,176.49599075317383 149.74603271484375,176.49599075317383 142.18002319335938,153.66798782348633 142.18002319335938,153.66798782348633 123.166015625,153.66798782348633 123.166015625,121.54300308227539 158.15802001953125,121.54300308227539 " fill="#FF0000"/>
   <rect id="svg_10" height="54.954" width="32.653" fill="#FF0000" y="121.543007" x="185.834021"/>
   <path id="svg_11" d="m256.766022,121.542999c8.412018,8.761002 9.954987,23.544006 5.076019,34.395004c-2.787018,6.769989 -8.910004,13.837982 -15.878998,16.724991c-7.565033,3.535004 -16.426025,3.98201 -25.584015,3.834v-54.953995h36.386993l0,0z" fill="#FF0000"/>
   <rect id="svg_12" height="54.954" width="32.504" fill="#FF0000" y="121.543007" x="273.391021"/>
   <path id="svg_13" d="m344.272034,121.542999c6.669983,8.212997 9.655945,19.612 6.321014,30.313004c-2.29007,8.960999 -9.259064,18.765991 -18.566071,21.802994c-7.316956,2.737 -15.629944,3.085999 -24.141998,2.837997v-54.953995h36.387054l0,0z" fill="#FF0000"/>
  </g>
 </g>
</svg>