<?xml version="1.0" encoding="iso-8859-1"?><!-- Generator: Adobe Illustrator 16.0.0, SVG Export Plug-In . SVG Version: 6.00 Build 0) --><!DOCTYPE svg PUBLIC "-//W3C//DTD SVG 1.1//EN" "http://www.w3.org/Graphics/SVG/1.1/DTD/svg11.dtd"><svg version="1.1" id="Layer_1" xmlns="http://www.w3.org/2000/svg" xmlns:xlink="http://www.w3.org/1999/xlink" x="0px" y="0px" width="192.756px" height="192.756px" viewBox="0 0 192.756 192.756" style="enable-background:new 0 0 192.756 192.756;" xml:space="preserve"><g><polygon style="fill-rule:evenodd;clip-rule:evenodd;fill:#FFFFFF;" points="0,0 192.756,0 192.756,192.756 0,192.756 0,0	"/><path style="fill-rule:evenodd;clip-rule:evenodd;" d="M36.077,48.628l14.552,33.471c0.912,2.182,1.82,3.455,2.365,4.002	c0.545,0.545,1.638,0.91,2.911,1.09v1.093H40.988v-1.093l3.274-0.544c0.545-0.181,0.729-0.729,0.729-1.637l-0.184-1.454	l-0.909-2.366l-2.366-5.64h-15.46l-2.73,7.093l-0.361,2.001c0,0.909,0.361,1.638,1.089,2.002l2.911,0.544v1.093H15.34v-1.093	c1.457-0.18,2.545-0.726,3.454-1.637c0.729-0.909,2.002-3.636,3.823-8.002l12.186-28.923H36.077L36.077,48.628L36.077,48.628z M33.895,56.996l-6.73,16.188h13.46L33.895,56.996L33.895,56.996L33.895,56.996z M89.739,59.542c0,2.73-0.909,4.912-2.91,6.185	c-1.092,0.912-2.73,1.637-4.912,2.185c2.729,0.545,4.912,1.637,6.914,3.274c2.001,1.453,2.91,3.636,2.91,6.366	c0,4.547-2.182,7.822-6.368,9.459c-2.363,0.909-5.093,1.273-8.368,1.273H57.906v-1.093c2.365-0.18,3.819-0.544,4.547-1.09	c0.728-0.547,1.092-2.001,1.092-4.183V55.722c0-2.182-0.364-3.639-1.092-4.184c-0.729-0.544-2.182-0.908-4.547-1.092v-1.089h16.373	c4.728,0,8.547,0.728,11.276,2.365C88.285,53.176,89.739,55.722,89.739,59.542L89.739,59.542L89.739,59.542z M69.367,53.541v13.278	h5.637c2.001,0,3.639-0.364,4.912-0.909c2.546-1.272,3.822-3.274,3.822-6.185c0-3.455-1.457-5.82-4.367-7.093	c-1.637-0.729-4.003-1.094-7.277-1.094l-2.183,0.364C69.546,52.083,69.367,52.632,69.367,53.541L69.367,53.541L69.367,53.541z M69.367,69.185v14.551c0,1.092,0.364,1.818,0.908,2.001l4.004,0.364c3.09,0,5.637-0.547,7.638-1.637	c2.001-1.272,2.91-3.458,2.91-6.732c0-3.272-1.089-5.457-3.454-6.73c-2.366-1.273-5.457-1.817-9.096-1.817H70.64H69.367	L69.367,69.185L69.367,69.185z M128.121,50.63c0.545,0,1.092-0.184,1.637-0.545c0.545-0.184,0.91-0.728,1.09-1.457h1.275	l0.361,13.279h-1.271c-0.727-2.728-1.818-4.729-3.092-6.366c-2.365-3.094-5.641-4.548-9.641-4.548	c-4.186,0-7.457,1.638-10.188,4.912c-2.545,3.274-3.818,7.822-3.818,13.459c0,5.276,1.453,9.459,4.184,12.553	c2.727,3.092,6.184,4.729,10.367,4.729c3.092,0,5.82-0.729,8.367-2.183c1.457-0.908,3.094-2.185,4.912-3.822l1.092,1.092	c-1.273,1.637-2.91,3.094-4.912,4.367c-3.273,2.001-6.912,3.091-10.732,3.091c-6.367,0-11.277-2.001-15.098-6.001	c-3.455-3.823-5.094-8.37-5.094-14.007c0-5.641,1.818-10.553,5.457-14.371c3.818-4.184,8.73-6.186,14.916-6.186	c2.002,0,4.184,0.364,6.549,1.093L128.121,50.63L128.121,50.63L128.121,50.63z"/><path style="fill-rule:evenodd;clip-rule:evenodd;fill:#147CC2;" d="M50.267,100.109v30.92h-1.092L23.163,98.832v22.922	c0,3.092,0.544,5.275,1.456,6.186c0.544,0.545,1.998,1.092,4.184,1.273v1.092H14.976v-1.092c2.365-0.182,4.003-0.729,4.547-1.639	c0.729-0.908,1.092-2.729,1.092-5.82V95.742l-0.728-0.909c-0.909-1.092-1.637-1.821-2.182-2.001l-2.729-0.364v-1.093H24.98	l22.738,28.377v-19.643c0-3.275-0.544-5.46-1.453-6.369c-0.729-0.545-2.182-1.09-4.184-1.273v-1.093h13.824v1.093	c-2.366,0.183-3.819,0.728-4.548,1.637C50.628,95.013,50.267,97.014,50.267,100.109L50.267,100.109L50.267,100.109z M85.01,94.833	c-0.912-0.729-3.274-1.092-6.732-1.092h-8.003c-0.729,0-1.272,0.183-1.457,0.364c-0.18,0.181-0.361,0.729-0.361,1.457v13.279h9.095	c2.363,0,4-0.363,4.729-1.273c0.728-0.729,1.273-2.184,1.637-4.547h1.455v13.643h-1.455c-0.363-2.186-0.909-3.639-1.637-4.367	c-0.729-0.908-2.365-1.273-4.729-1.273h-9.095v14.553c0,1.271,0.361,2,1.089,2.182l6.73,0.184c3.822,0,6.732-0.365,8.733-1.273	c1.999-0.908,3.636-2.91,5.092-6.369h1.637l-2.729,10.008H57.361v-1.092c2.001-0.182,3.455-0.545,4.183-1.094	c0.545-0.545,0.909-2,0.909-4.184V97.744c0-2.002-0.364-3.459-0.909-4.003c-0.544-0.545-2.001-1.09-4.183-1.273v-1.093h31.285	v8.551h-1.453C86.648,97.199,85.919,95.561,85.01,94.833L85.01,94.833L85.01,94.833z M135.76,91.375h11.645v1.093l-2.365,0.728	c-0.91,0.545-1.639,1.638-2.184,2.91l-12.369,34.924h-0.729l-9.459-24.92l-9.096,24.92h-0.908l-9.279-26.012	c-2.002-5.637-3.455-9.095-4.364-10.369c-0.729-1.272-2.001-1.999-3.639-2.182v-1.093h14.372v1.093l-2.547,0.364	c-0.912,0.364-1.275,0.909-1.275,1.817l0.184,1.093l0.363,1.458l8.547,22.01l6.186-16.555l-2.727-7.093	c-0.545-1.276-1.273-2.185-2.365-2.729l-2.727-0.364v-1.093h15.824v1.093l-3.094,0.364c-0.908,0.364-1.273,1.092-1.273,2.001v0.909	l0.549,1.637l8.547,22.01l7.277-20.008l0.908-2.91l0.182-1.274c0-1.092-0.545-1.82-1.635-2.365l-2.549-0.364V91.375L135.76,91.375	L135.76,91.375z M174.506,90.649l1.457,12.37h-1.457c-0.91-3.822-2.547-6.369-4.729-7.823c-2.002-1.456-4.184-2.185-6.186-2.185	c-1.637,0-2.91,0.547-4.182,1.457c-1.277,0.908-1.822,2.181-1.822,3.818c0,1.639,0.365,2.91,1.273,4.004	c0.91,0.908,2.365,2.002,4.367,3.275l5.092,3.273c3.275,2.002,5.641,3.82,6.914,5.457s2.002,3.639,2.002,6	c0,3.094-1.092,5.641-3.459,7.643c-2.363,2-5.457,3.09-8.912,3.09c-2,0-3.818-0.363-5.82-0.908l-3.457-1.09	c-0.545,0-1.09,0.182-1.273,0.727l-0.545,1.271h-1.273l-1.637-12.549h1.273c0.908,2.729,2.182,4.727,3.455,6.365	c2.365,2.729,5.275,4.002,8.73,4.002c2.002,0,3.639-0.545,4.91-1.637c1.275-1.273,2.004-2.91,2.004-5.092	c0-2.002-0.729-3.639-2.004-4.912l-5.82-4.004l-4.91-3.273c-1.637-0.91-2.727-2.002-3.637-2.91	c-1.637-1.818-2.549-3.82-2.549-6.002c0-3.094,1.092-5.457,3.094-7.458s4.549-2.91,7.639-2.91l4.912,0.909l3.275,1.092	c0.727,0,1.271-0.183,1.455-0.547l0.727-1.454H174.506L174.506,90.649L174.506,90.649z"/><path style="fill-rule:evenodd;clip-rule:evenodd;" d="M134.123,143.584c-0.182,0.363-0.545,0.545-1.09,0.545	c-0.365,0-0.729-0.182-0.91-0.545c-0.182-0.184-0.363-0.549-0.363-0.91l0.363-1.092l0.91-0.365c0.545,0,0.908,0.182,1.09,0.365	l0.363,1.092C134.486,143.035,134.305,143.4,134.123,143.584L134.123,143.584L134.123,143.584z M143.217,132.852	c0.729,0.543,1.094,1.273,1.094,1.818l-0.182,0.727c-0.184,0.182-0.547,0.365-0.912,0.365l-0.725-0.184l-0.547-0.908l-0.182-0.545	c-0.184-0.545-0.363-0.91-0.545-1.094l-1.092-0.18c-0.91,0-1.637,0.363-2.365,1.273c-0.545,0.727-0.91,1.816-0.91,3.273	c0,1.273,0.365,2.363,1.092,3.275c0.727,0.908,1.639,1.453,2.912,1.453c0.908,0,1.637-0.182,2.182-0.729	c0.363-0.361,0.729-0.91,1.273-1.637l0.363,0.184c-0.545,1.092-0.908,1.816-1.457,2.365c-0.908,1.09-2.182,1.637-3.455,1.637	c-1.271,0-2.365-0.547-3.455-1.457c-0.912-0.908-1.457-2.365-1.457-4.184c0-1.637,0.545-3.094,1.639-4.367	c1.092-1.271,2.547-1.816,4.184-1.816C141.58,132.123,142.492,132.303,143.217,132.852L143.217,132.852L143.217,132.852z M151.404,132.852c-0.545,0-1.09,0.18-1.639,0.729c-0.908,0.725-1.271,1.998-1.271,3.818c0,1.453,0.363,2.91,1.092,4.184	c0.545,1.273,1.453,1.818,2.727,1.818c0.912,0,1.637-0.365,2.186-1.273c0.545-0.91,0.725-2.002,0.725-3.275	c0-1.453-0.361-2.727-1.09-4C153.586,133.58,152.678,132.852,151.404,132.852L151.404,132.852L151.404,132.852z M146.311,138.127	c0-1.637,0.545-3.094,1.453-4.188c1.094-1.271,2.367-1.816,4.004-1.816s3.094,0.545,4.004,1.637	c1.09,1.092,1.637,2.547,1.637,4.367c0,1.635-0.547,2.91-1.457,4.184c-1.09,1.273-2.365,1.818-4,1.818	c-1.637,0-2.912-0.545-4.002-1.639C146.855,141.217,146.311,139.762,146.311,138.127L146.311,138.127L146.311,138.127z M163.773,133.939l-1.453,1.094v6.729c0,0.549,0.18,1.094,0.361,1.273c0.184,0.184,0.727,0.365,1.457,0.365v0.363h-5.641V143.4	c0.729,0,1.092-0.182,1.273-0.365c0.363-0.18,0.547-0.545,0.547-1.273v-6.365c0-0.545,0-1.092-0.184-1.271	c-0.18-0.186-0.545-0.365-0.908-0.365l-0.365,0.18h-0.18v-0.359l0.729-0.365l1.637-0.547l1.273-0.365v1.822	c0.908-0.73,1.637-1.273,2.182-1.457c0.545-0.182,1.092-0.365,1.818-0.365c0.908,0,1.455,0.184,2,0.729l0.545,1.273	c0.549-0.545,1.092-1.09,1.639-1.273c0.729-0.545,1.455-0.729,2.365-0.729c1.273,0,2.182,0.549,2.729,1.457	c0.182,0.729,0.365,1.637,0.365,2.91v5.092c0,0.549,0.182,1.094,0.361,1.273c0.184,0.184,0.729,0.365,1.457,0.365v0.363h-5.641	V143.4c0.729,0,1.273-0.182,1.455-0.365c0.182-0.18,0.365-0.725,0.365-1.453v-5.275c0-0.729-0.184-1.273-0.365-1.818	c-0.182-0.549-0.727-0.908-1.637-0.908l-1.637,0.545l-1.094,0.908v6.365l0.186,1.457c0.18,0.363,0.727,0.545,1.637,0.545v0.363	h-5.641V143.4c0.729-0.182,1.273-0.365,1.457-0.545c0.18-0.182,0.18-0.91,0.18-2.002v-3.455c0-1.273,0-2.186-0.18-2.547	c-0.184-0.912-0.729-1.271-1.637-1.271L163.773,133.939L163.773,133.939L163.773,133.939z"/></g></svg>