<?xml version="1.0" encoding="UTF-8" standalone="no"?>
<!-- Created with Inkscape (http://www.inkscape.org/) -->

<svg
   xmlns:dc="http://purl.org/dc/elements/1.1/"
   xmlns:cc="http://creativecommons.org/ns#"
   xmlns:rdf="http://www.w3.org/1999/02/22-rdf-syntax-ns#"
   xmlns:svg="http://www.w3.org/2000/svg"
   xmlns="http://www.w3.org/2000/svg"
   xmlns:sodipodi="http://sodipodi.sourceforge.net/DTD/sodipodi-0.dtd"
   xmlns:inkscape="http://www.inkscape.org/namespaces/inkscape"
   width="1000"
   height="142.80255"
   id="svg4360"
   version="1.1"
   inkscape:version="0.48.2 r9819"
   sodipodi:docname="New document 5">
  <defs
     id="defs4362" />
  <sodipodi:namedview
     id="base"
     pagecolor="#ffffff"
     bordercolor="#666666"
     borderopacity="1.0"
     inkscape:pageopacity="0.0"
     inkscape:pageshadow="2"
     inkscape:zoom="0.35"
     inkscape:cx="874.74852"
     inkscape:cy="-60.932786"
     inkscape:document-units="px"
     inkscape:current-layer="layer1"
     showgrid="false"
     fit-margin-left="0.5"
     fit-margin-top="0.5"
     fit-margin-bottom="0.5"
     fit-margin-right="0.5"
     inkscape:window-width="1920"
     inkscape:window-height="1028"
     inkscape:window-x="-8"
     inkscape:window-y="-8"
     inkscape:window-maximized="1" />
  <metadata
     id="metadata4365">
    <rdf:RDF>
      <cc:Work
         rdf:about="">
        <dc:format>image/svg+xml</dc:format>
        <dc:type
           rdf:resource="http://purl.org/dc/dcmitype/StillImage" />
        <dc:title></dc:title>
      </cc:Work>
    </rdf:RDF>
  </metadata>
  <g
     inkscape:label="Layer 1"
     inkscape:groupmode="layer"
     id="layer1"
     transform="translate(499.74852,-328.62684)">
    <g
       id="g4299"
       transform="matrix(5.6414128,0,0,-5.6414128,-2394.9917,3227.2323)">
      <g
         id="g3990"
         transform="translate(434.8402,492.4554)">
        <path
           inkscape:connector-curvature="0"
           d="m 0,0 -2.945,11.825 -0.049,0 L -5.889,0 l -3.868,0 -4.6,17.373 3.82,0 2.75,-11.824 0.048,0 3.017,11.824 3.577,0 2.97,-11.972 0.048,0 2.846,11.972 3.747,0 L 3.795,0 0,0 z"
           style="fill:#f36f21;fill-opacity:1;fill-rule:nonzero;stroke:none"
           id="path3992" />
      </g>
      <g
         id="g3994"
         transform="translate(450.2328,502.0917)">
        <path
           inkscape:connector-curvature="0"
           d="M 0,0 C -0.413,0.453 -1.042,0.681 -1.886,0.681 -2.437,0.681 -2.895,0.587 -3.26,0.4 -3.625,0.215 -3.916,-0.016 -4.136,-0.291 -4.355,-0.569 -4.509,-0.86 -4.599,-1.167 -4.688,-1.478 -4.74,-1.752 -4.757,-1.996 l 5.622,0 C 0.702,-1.12 0.413,-0.455 0,0 m -3.905,-6.618 c 0.519,-0.504 1.265,-0.754 2.239,-0.754 0.697,0 1.297,0.174 1.801,0.523 0.501,0.349 0.81,0.717 0.924,1.106 l 3.042,0 C 3.614,-7.251 2.867,-8.329 1.862,-8.979 c -1.007,-0.648 -2.223,-0.973 -3.65,-0.973 -0.989,0 -1.882,0.159 -2.676,0.474 -0.796,0.316 -1.468,0.768 -2.019,1.35 -0.553,0.586 -0.978,1.283 -1.279,2.093 -0.3,0.812 -0.449,1.704 -0.449,2.676 0,0.942 0.153,1.817 0.462,2.629 0.308,0.81 0.745,1.512 1.314,2.104 0.567,0.593 1.243,1.058 2.032,1.4 0.786,0.341 1.658,0.511 2.615,0.511 1.07,0 2.003,-0.208 2.798,-0.622 C 1.804,2.251 2.458,1.694 2.969,0.997 3.479,0.3 3.848,-0.495 4.075,-1.388 4.301,-2.279 4.384,-3.212 4.319,-4.184 l -9.076,0 c 0.049,-1.12 0.333,-1.931 0.852,-2.434"
           style="fill:#f36f21;fill-opacity:1;fill-rule:nonzero;stroke:none"
           id="path3996" />
      </g>
      <g
         id="g3998"
         transform="translate(463.374,498.4684)">
        <path
           inkscape:connector-curvature="0"
           d="m 0,0 c -0.22,-0.073 -0.454,-0.135 -0.705,-0.183 -0.253,-0.048 -0.517,-0.09 -0.792,-0.121 -0.275,-0.032 -0.552,-0.072 -0.827,-0.122 -0.259,-0.048 -0.515,-0.114 -0.766,-0.195 -0.252,-0.081 -0.472,-0.19 -0.658,-0.327 -0.186,-0.139 -0.337,-0.314 -0.45,-0.525 -0.114,-0.211 -0.17,-0.478 -0.17,-0.803 0,-0.307 0.056,-0.567 0.17,-0.779 0.113,-0.209 0.268,-0.376 0.464,-0.497 0.193,-0.122 0.42,-0.207 0.68,-0.255 0.259,-0.05 0.527,-0.073 0.803,-0.073 0.68,0 1.207,0.113 1.581,0.34 0.374,0.227 0.65,0.499 0.828,0.816 0.178,0.316 0.287,0.636 0.327,0.96 0.042,0.325 0.062,0.585 0.062,0.778 l 0,1.29 C 0.4,0.174 0.218,0.073 0,0 m -6.825,4.877 c 0.357,0.537 0.811,0.966 1.361,1.291 0.553,0.323 1.172,0.555 1.862,0.693 0.69,0.137 1.383,0.208 2.082,0.208 0.632,0 1.272,-0.045 1.92,-0.135 C 1.05,6.845 1.641,6.67 2.177,6.412 2.712,6.152 3.151,5.791 3.491,5.329 3.831,4.866 4.001,4.253 4.001,3.492 l 0,-6.547 c 0,-0.567 0.034,-1.11 0.099,-1.628 0.064,-0.52 0.177,-0.91 0.341,-1.17 l -3.505,0 c -0.065,0.196 -0.118,0.395 -0.158,0.597 -0.04,0.203 -0.07,0.41 -0.084,0.622 C 0.141,-5.203 -0.508,-5.6 -1.254,-5.828 -2,-6.054 -2.762,-6.168 -3.541,-6.168 c -0.6,0 -1.16,0.073 -1.68,0.22 -0.518,0.146 -0.972,0.372 -1.361,0.682 -0.39,0.307 -0.693,0.696 -0.912,1.166 -0.219,0.471 -0.329,1.031 -0.329,1.679 0,0.715 0.125,1.302 0.377,1.764 0.252,0.462 0.576,0.831 0.974,1.107 0.396,0.275 0.851,0.481 1.362,0.62 0.511,0.137 1.025,0.248 1.545,0.329 0.518,0.08 1.03,0.146 1.532,0.195 0.504,0.048 0.95,0.122 1.339,0.219 0.39,0.097 0.697,0.238 0.926,0.424 0.225,0.189 0.33,0.46 0.315,0.816 0,0.374 -0.062,0.67 -0.183,0.888 -0.121,0.22 -0.284,0.39 -0.486,0.512 -0.204,0.121 -0.437,0.202 -0.706,0.242 -0.268,0.041 -0.555,0.062 -0.863,0.062 -0.682,0 -1.217,-0.146 -1.606,-0.439 C -3.686,4.027 -3.914,3.54 -3.979,2.859 l -3.455,0 c 0.049,0.811 0.252,1.484 0.609,2.018"
           style="fill:#f36f21;fill-opacity:1;fill-rule:nonzero;stroke:none"
           id="path4000" />
      </g>
      <g
         id="g4002"
         transform="translate(476.4785,505.0357)">
        <path
           inkscape:connector-curvature="0"
           d="m 0,0 0,-2.312 -2.531,0 0,-6.228 c 0,-0.584 0.098,-0.973 0.292,-1.168 0.195,-0.194 0.584,-0.292 1.168,-0.292 0.195,0 0.381,0.008 0.561,0.026 0.177,0.014 0.348,0.039 0.51,0.072 l 0,-2.678 c -0.293,-0.049 -0.616,-0.08 -0.974,-0.096 -0.357,-0.017 -0.706,-0.024 -1.046,-0.024 -0.535,0 -1.042,0.036 -1.52,0.11 -0.48,0.073 -0.901,0.214 -1.266,0.424 -0.366,0.212 -0.652,0.512 -0.863,0.901 -0.211,0.389 -0.316,0.9 -0.316,1.534 l 0,7.419 -2.092,0 0,2.312 2.092,0 0,3.771 3.454,0 L -2.531,0 0,0 z"
           style="fill:#f36f21;fill-opacity:1;fill-rule:nonzero;stroke:none"
           id="path4004" />
      </g>
      <g
         id="g4006"
         transform="translate(481.7784,509.8289)">
        <path
           inkscape:connector-curvature="0"
           d="m 0,0 0,-6.545 0.073,0 c 0.437,0.73 0.998,1.26 1.678,1.594 0.681,0.332 1.347,0.499 1.995,0.499 0.925,0 1.684,-0.127 2.277,-0.378 0.59,-0.252 1.057,-0.601 1.397,-1.045 0.342,-0.447 0.581,-0.991 0.718,-1.631 0.138,-0.641 0.206,-1.351 0.206,-2.129 l 0,-7.738 -3.453,0 0,7.105 c 0,1.038 -0.163,1.813 -0.487,2.324 -0.324,0.51 -0.902,0.766 -1.728,0.766 -0.941,0 -1.622,-0.279 -2.043,-0.839 C 0.211,-8.576 0,-9.498 0,-10.779 l 0,-6.594 -3.291,0 L -3.291,0 0,0 z"
           style="fill:#f36f21;fill-opacity:1;fill-rule:nonzero;stroke:none"
           id="path4008" />
      </g>
      <g
         id="g4010"
         transform="translate(499.5084,502.0917)">
        <path
           inkscape:connector-curvature="0"
           d="M 0,0 C -0.413,0.453 -1.042,0.681 -1.886,0.681 -2.437,0.681 -2.895,0.587 -3.26,0.4 -3.625,0.215 -3.918,-0.016 -4.137,-0.291 -4.355,-0.569 -4.511,-0.86 -4.599,-1.167 -4.689,-1.478 -4.742,-1.752 -4.757,-1.996 l 5.621,0 C 0.701,-1.12 0.414,-0.455 0,0 m -3.905,-6.618 c 0.518,-0.504 1.266,-0.754 2.238,-0.754 0.698,0 1.298,0.174 1.801,0.523 0.501,0.349 0.81,0.717 0.924,1.106 l 3.041,0 C 3.613,-7.251 2.867,-8.329 1.861,-8.979 c -1.006,-0.648 -2.223,-0.973 -3.65,-0.973 -0.989,0 -1.882,0.159 -2.676,0.474 -0.795,0.316 -1.468,0.768 -2.019,1.35 -0.552,0.586 -0.977,1.283 -1.278,2.093 -0.301,0.812 -0.45,1.704 -0.45,2.676 0,0.942 0.155,1.817 0.461,2.629 0.309,0.81 0.747,1.512 1.315,2.104 0.568,0.593 1.245,1.058 2.032,1.4 0.788,0.341 1.659,0.511 2.615,0.511 1.071,0 2.003,-0.208 2.798,-0.622 C 1.805,2.251 2.457,1.694 2.967,0.997 3.479,0.3 3.848,-0.495 4.074,-1.388 4.303,-2.279 4.384,-3.212 4.318,-4.184 l -9.075,0 c 0.049,-1.12 0.331,-1.931 0.852,-2.434"
           style="fill:#f36f21;fill-opacity:1;fill-rule:nonzero;stroke:none"
           id="path4012" />
      </g>
      <g
         id="g4014"
         transform="translate(508.3068,505.0357)">
        <path
           inkscape:connector-curvature="0"
           d="m 0,0 0,-2.337 0.048,0 c 0.161,0.39 0.381,0.751 0.658,1.084 0.274,0.331 0.59,0.615 0.948,0.851 0.357,0.236 0.738,0.417 1.144,0.547 0.405,0.131 0.826,0.196 1.265,0.196 0.227,0 0.477,-0.042 0.754,-0.122 l 0,-3.212 C 4.654,-2.96 4.46,-2.933 4.233,-2.907 4.005,-2.884 3.788,-2.871 3.577,-2.871 2.944,-2.871 2.407,-2.977 1.97,-3.188 1.532,-3.399 1.18,-3.687 0.911,-4.051 0.644,-4.416 0.455,-4.841 0.339,-5.329 0.226,-5.815 0.17,-6.344 0.17,-6.911 l 0,-5.669 -3.456,0 0,12.58 L 0,0 z"
           style="fill:#f36f21;fill-opacity:1;fill-rule:nonzero;stroke:none"
           id="path4016" />
      </g>
      <g
         id="g4018"
         transform="translate(387.8889,502.9403)">
        <path
           inkscape:connector-curvature="0"
           d="M 0,0 C -0.555,0 -1.016,-0.128 -1.386,-0.378 -1.762,-0.629 -2.067,-0.954 -2.299,-1.354 -2.541,-1.75 -2.703,-2.188 -2.803,-2.669 -2.9,-3.147 -2.946,-3.623 -2.946,-4.094 c 0,-0.454 0.046,-0.916 0.143,-1.389 0.1,-0.469 0.259,-0.896 0.476,-1.279 0.219,-0.381 0.516,-0.694 0.89,-0.938 0.375,-0.245 0.828,-0.365 1.368,-0.365 0.827,0 1.46,0.231 1.908,0.695 0.448,0.463 0.725,1.084 0.843,1.863 l 3.337,0 c -0.23,-1.672 -0.879,-2.946 -1.95,-3.826 -1.073,-0.876 -2.444,-1.316 -4.118,-1.316 -0.941,0 -1.804,0.161 -2.592,0.475 -0.791,0.317 -1.459,0.76 -2.01,1.329 -0.556,0.569 -0.988,1.247 -1.293,2.034 -0.309,0.788 -0.465,1.654 -0.465,2.595 0,0.976 0.142,1.879 0.425,2.718 0.284,0.835 0.707,1.56 1.256,2.169 0.552,0.608 1.23,1.083 2.025,1.425 0.793,0.34 1.702,0.51 2.73,0.51 C 0.772,2.606 1.49,2.51 2.179,2.314 2.868,2.119 3.49,1.824 4.033,1.425 4.576,1.025 5.019,0.531 5.359,-0.061 5.704,-0.655 5.898,-1.356 5.946,-2.169 l -3.386,0 C 2.332,-0.724 1.478,0 0,0"
           style="fill:#f36f21;fill-opacity:1;fill-rule:nonzero;stroke:none"
           id="path4020" />
      </g>
      <g
         id="g4022"
         transform="translate(401.5725,502.9403)">
        <path
           inkscape:connector-curvature="0"
           d="M 0,0 C -0.551,0 -1.016,-0.128 -1.385,-0.378 -1.762,-0.629 -2.067,-0.954 -2.3,-1.354 -2.537,-1.75 -2.701,-2.188 -2.8,-2.669 c -0.1,-0.478 -0.145,-0.954 -0.145,-1.425 0,-0.454 0.045,-0.916 0.145,-1.389 0.099,-0.469 0.257,-0.896 0.475,-1.279 0.218,-0.381 0.518,-0.694 0.888,-0.938 0.377,-0.245 0.828,-0.365 1.367,-0.365 0.829,0 1.462,0.231 1.909,0.695 0.447,0.463 0.728,1.084 0.844,1.863 l 3.337,0 C 5.791,-7.179 5.141,-8.453 4.069,-9.333 c -1.07,-0.876 -2.442,-1.316 -4.114,-1.316 -0.944,0 -1.807,0.161 -2.595,0.475 -0.788,0.317 -1.457,0.76 -2.011,1.329 -0.554,0.569 -0.984,1.247 -1.291,2.034 -0.311,0.788 -0.463,1.654 -0.463,2.595 0,0.976 0.141,1.879 0.425,2.718 0.284,0.835 0.704,1.56 1.256,2.169 0.549,0.608 1.226,1.083 2.023,1.425 0.793,0.34 1.704,0.51 2.729,0.51 0.745,0 1.466,-0.096 2.155,-0.292 0.689,-0.195 1.308,-0.49 1.851,-0.889 0.543,-0.4 0.985,-0.894 1.328,-1.486 0.343,-0.594 0.536,-1.295 0.587,-2.108 l -3.388,0 C 2.331,-0.724 1.478,0 0,0"
           style="fill:#f36f21;fill-opacity:1;fill-rule:nonzero;stroke:none"
           id="path4024" />
      </g>
      <g
         id="g4026"
         transform="translate(370.8601,499.1707)">
        <path
           inkscape:connector-curvature="0"
           d="M 0,0 2.345,6.374 4.642,0 0,0 z m 4.318,10.656 -3.918,0 -6.569,-17.371 3.698,0 1.429,3.884 6.706,0 1.4,-3.884 3.749,0 -6.495,17.371 z"
           style="fill:#f36f21;fill-opacity:1;fill-rule:nonzero;stroke:none"
           id="path4028" />
      </g>
      <g
         id="g4030"
         transform="translate(416.8361,505.2062)">
        <path
           inkscape:connector-curvature="0"
           d="m 0,0 0,-6.604 c 0,-1.282 -0.199,-2.203 -0.601,-2.765 -0.404,-0.559 -1.059,-0.842 -1.956,-0.842 -0.791,0 -1.344,0.259 -1.655,0.769 -0.311,0.513 -0.466,1.287 -0.466,2.328 l 0,7.114 -3.305,0 0,-7.749 c 0,-0.78 0.069,-1.49 0.2,-2.13 0.131,-0.643 0.359,-1.186 0.684,-1.633 0.327,-0.448 0.771,-0.792 1.339,-1.036 0.568,-0.244 1.29,-0.367 2.178,-0.367 0.698,0 1.379,0.163 2.049,0.488 0.625,0.306 1.14,0.801 1.551,1.467 l 0,-1.637 3.291,0 0,12.596 L 3.309,0 0,0 z"
           style="fill:#f36f21;fill-opacity:1;fill-rule:nonzero;stroke:none"
           id="path4032" />
      </g>
      <g
         id="g4034"
         transform="translate(359.4775,507.4658)">
        <path
           inkscape:connector-curvature="0"
           d="m 0,0 -3.778,0.815 -0.836,3.773 -3.678,-1.183 -2.609,2.849 -2.596,-2.864 -3.685,1.163 -0.816,-3.775 -3.773,-0.836 1.183,-3.68 -2.849,-2.61 2.863,-2.594 -1.163,-3.685 3.777,-0.814 0.835,-3.774 3.681,1.181 2.609,-2.848 2.594,2.863 3.686,-1.163 0.816,3.776 3.772,0.838 -1.184,3.679 2.852,2.609 -2.865,2.595 L 0,0 z m -10.873,2.387 c -4.804,0 -8.712,-3.909 -8.712,-8.71 0,-4.804 3.908,-8.712 8.712,-8.712 4.802,0 8.71,3.908 8.71,8.712 0,4.801 -3.908,8.71 -8.71,8.71 m -5.493,-3.273 c 3.032,3.032 7.964,3.032 10.994,0.001 3.029,-3.03 3.03,-7.961 -0.001,-10.993 -3.03,-3.03 -7.961,-3.03 -10.992,10e-4 -3.031,3.031 -3.031,7.961 -0.001,10.991"
           style="fill:#f36f21;fill-opacity:1;fill-rule:evenodd;stroke:none"
           id="path4036" />
      </g>
    </g>
  </g>
</svg>
