<?xml version="1.0" encoding="UTF-8" standalone="no"?>
<svg width="769px" height="512px" viewBox="0 0 769 512" version="1.1" xmlns="http://www.w3.org/2000/svg" xmlns:xlink="http://www.w3.org/1999/xlink">
    <!-- Generator: Sketch 3.6.1 (26313) - http://www.bohemiancoding.com/sketch -->
    <title>adidas</title>
    <desc>Created with Sketch.</desc>
    <defs></defs>
    <g id="Page-1" stroke="none" stroke-width="1" fill="none" fill-rule="evenodd">
        <g id="adidas" fill="#000000">
            <g id="XMLID_1_">
                <g id="Group">
                    <path d="M764.878717,415.733048 L742.797005,415.733048 L731.353668,415.733048 C730.311872,410.174973 728.69784,406.259679 726.492406,404.055615 C722.905668,400.470246 716.78631,398.620749 708.339679,398.620749 C700.016257,398.620749 694.239144,400.003422 691.008342,402.78246 C688.57292,404.864684 687.298396,407.751872 687.298396,411.33861 C687.298396,416.41754 694.362353,420.469733 708.339679,423.591016 C724.302032,427.054545 735.748107,430.064941 742.797005,432.489412 C744.646503,433.187594 746.260535,433.762567 747.424171,434.33754 C761.649283,441.045561 768.698182,451.230802 768.698182,464.867251 C768.698182,481.512727 761.758802,493.655615 747.999144,501.282225 C746.260535,502.213134 744.646503,503.020834 742.797005,503.828535 C733.89861,507.648 723.494332,509.605647 711.816898,509.605647 C694.362353,509.605647 680.248128,506.484364 669.501604,500.351316 C662.740193,496.422332 657.687273,491.480299 654.319572,485.525219 C650.951872,479.56877 649.268021,472.614332 649.268021,464.633155 L684.411209,464.633155 C684.411209,470.644364 686.613904,475.393369 690.885134,478.62554 C695.170053,481.979551 702.453048,483.71816 712.734118,483.71816 C720.482567,483.71816 726.259679,482.08907 730.079144,478.858267 C733.090909,476.311957 734.473583,473.531551 734.473583,470.302118 C734.473583,464.867251 727.546524,460.596021 713.774545,457.584257 C693.200086,453.189818 680.249497,449.60308 674.936471,447.05677 C660.835936,440.471957 653.896556,430.301775 653.896556,416.186182 C653.896556,404.864684 657.481925,395.268107 664.875807,387.410139 C674.130139,377.579465 687.997947,372.720941 706.383401,372.720941 C721.524364,372.720941 733.667251,374.925005 742.798374,379.196235 C743.606075,379.538481 744.305626,379.894417 745.002439,380.359872 C751.587251,383.93292 756.555294,388.683294 759.883294,394.583615 C763.208556,400.468877 764.878717,407.531465 764.878717,415.733048 L764.878717,415.733048 Z" id="Shape"></path>
                    <path d="M746.958717,333.881497 C746.958717,333.183316 746.849198,332.608342 746.493262,332.142888 C746.151016,331.567914 745.685561,331.21061 745.00107,330.992941 C744.535615,330.868364 743.836064,330.758845 742.797005,330.635636 L741.52385,330.635636 L737.485348,330.635636 L737.485348,337.11093 L741.756578,337.11093 L742.797005,337.11093 C744.304257,337.001412 745.343316,336.768684 745.918289,336.193711 C746.616471,335.605048 746.958717,334.798717 746.958717,333.881497 L746.958717,333.881497 Z M749.737754,330.404278 C750.435936,331.336556 750.778182,332.375615 750.778182,333.525561 C750.778182,335.140963 750.203209,336.537326 749.039572,337.687273 C747.888257,338.850909 746.383743,339.549091 744.535615,339.657241 C745.343316,339.999487 745.918289,340.356791 746.383743,340.808556 L749.614545,345.093476 L752.159487,349.364706 L747.997775,349.364706 L746.027807,345.901176 C744.768342,343.710802 743.726545,342.081711 742.797005,341.274011 C742.687487,341.164492 742.564278,341.041283 742.331551,340.931765 L739.566203,340.124064 L737.483979,340.124064 L737.483979,349.364706 L734.006759,349.364706 L734.006759,327.63893 L741.522481,327.63893 C741.987936,327.63893 742.45339,327.748449 742.795636,327.748449 C744.645134,327.748449 746.026439,327.981176 746.957348,328.323422 C748.108663,328.679358 749.039572,329.36385 749.737754,330.404278 L749.737754,330.404278 Z" id="Shape"></path>
                    <path d="M759.567059,338.275936 C759.567059,335.264171 758.868877,332.498824 757.364364,329.829305 C755.857112,327.174845 753.777626,325.09262 751.120428,323.586738 C748.465968,322.202695 745.685561,321.394995 742.906524,321.394995 L742.797005,321.394995 C740.017968,321.394995 737.25262,322.202695 734.596791,323.586738 C731.928642,325.09262 729.846417,327.173476 728.341904,329.829305 C726.849711,332.498824 726.040642,335.264171 726.040642,338.275936 C726.040642,341.164492 726.849711,343.92984 728.341904,346.599358 C729.738267,349.133348 731.819123,351.226524 734.473583,352.718717 C737.129412,354.225968 739.909818,354.922781 742.797005,354.922781 L742.906524,354.922781 C745.80877,354.922781 748.574118,354.224599 751.243636,352.718717 C753.899465,351.226524 755.980321,349.133348 757.364364,346.599358 C758.868877,343.928471 759.567059,341.164492 759.567059,338.275936 L759.567059,338.275936 Z M762.92107,338.275936 C762.92107,341.629947 762.099679,344.983957 760.251551,348.214759 C758.526631,351.445561 756.08984,353.883722 752.860406,355.607273 C749.615914,357.469091 746.385112,358.276791 742.906524,358.276791 L742.797005,358.276791 C739.333476,358.276791 736.090353,357.469091 732.858182,355.607273 C729.61369,353.882353 727.190588,351.445561 725.451979,348.214759 C723.60385,344.985326 722.797519,341.629947 722.797519,338.275936 C722.797519,334.689198 723.605219,331.336556 725.451979,328.092064 C727.300107,324.861262 729.736898,322.43816 732.967701,320.699551 C736.212193,318.960941 739.441626,318.153241 742.797005,318.045091 L742.906524,318.045091 C746.260535,318.045091 749.505027,318.96231 752.735829,320.699551 C755.980321,322.439529 758.526631,324.861262 760.251551,328.092064 C762.099679,331.335187 762.92107,334.687829 762.92107,338.275936 L762.92107,338.275936 Z" id="Shape"></path>
                    <path d="M566.252834,174.91508 L661.178182,333.073797 L566.252834,333.073797 L508.687059,333.073797 L418.046631,181.965348 L349.378396,67.6278075 L418.046631,26.3529412 L461.279144,0.342245989 L566.252834,174.91508 Z" id="Shape"></path>
                    <path d="M635.167487,442.89369 L635.167487,507.75615 L603.598717,507.75615 L603.598717,500.584043 C592.960342,507.523422 580.242481,511.575615 566.607401,511.575615 L566.251465,511.575615 C528.563337,511.342888 497.925476,480.581818 497.925476,442.89369 C497.925476,405.20693 528.563337,374.459551 566.251465,374.225455 L566.607401,374.225455 C580.242481,374.225455 592.960342,378.279016 603.598717,385.206075 L603.598717,377.690353 L635.167487,377.690353 L635.167487,442.89369 L635.167487,442.89369 Z M603.598717,450.067166 L603.598717,435.733904 C600.244706,418.388877 584.871016,405.205561 566.607401,405.205561 L566.251465,405.205561 C545.566118,405.32877 528.796064,422.208342 528.796064,442.892321 C528.796064,463.591358 545.566118,480.47093 566.251465,480.703658 L566.607401,480.703658 C584.871016,480.705027 600.244706,467.412193 603.598717,450.067166 L603.598717,450.067166 Z" id="Shape"></path>
                    <path d="M486.947594,442.89369 L486.947594,507.75615 L455.392513,507.75615 L455.392513,500.584043 C444.632299,507.523422 432.036278,511.575615 418.388877,511.575615 L418.046631,511.575615 C380.358503,511.342888 349.720642,480.581818 349.720642,442.89369 C349.720642,405.20693 380.358503,374.459551 418.046631,374.225455 L418.388877,374.225455 C432.037647,374.225455 444.632299,378.279016 455.392513,385.206075 L455.392513,333.073797 L486.947594,333.073797 L486.947594,442.89369 L486.947594,442.89369 Z M455.392513,450.067166 L455.392513,435.733904 C452.038503,418.388877 436.651123,405.205561 418.388877,405.205561 L418.046631,405.205561 C397.347594,405.32877 380.59123,422.208342 380.59123,442.892321 C380.59123,463.591358 397.347594,480.47093 418.046631,480.703658 L418.388877,480.703658 C436.651123,480.705027 452.038503,467.412193 455.392513,450.067166 L455.392513,450.067166 Z" id="Shape"></path>
                    <path d="M418.046631,270.865797 L455.269305,333.073797 L418.046631,333.073797 L302.887701,333.073797 L218.270802,192.260107 L214.574545,186.127059 L218.270802,183.936684 L326.598503,118.718289 L418.046631,270.865797 Z" id="Shape"></path>
                    <rect id="Rectangle-path" x="303.010909" y="374.224086" width="34.3341176" height="133.530695"></rect>
                    <rect id="Rectangle-path" x="303.010909" y="333.758289" width="34.3341176" height="30.1724064"></rect>
                    <path d="M287.281283,442.89369 L287.281283,507.75615 L255.726203,507.75615 L255.726203,500.584043 C244.979679,507.523422 232.261818,511.575615 218.613048,511.575615 L218.270802,511.575615 C180.582674,511.342888 149.944813,480.581818 149.944813,442.89369 C149.944813,405.20693 180.582674,374.459551 218.270802,374.225455 L218.613048,374.225455 C232.261818,374.225455 244.979679,378.279016 255.726203,385.206075 L255.726203,333.073797 L287.281283,333.073797 L287.281283,442.89369 L287.281283,442.89369 Z M255.726203,450.067166 L255.726203,435.733904 C252.372193,418.388877 236.998503,405.205561 218.613048,405.205561 L218.270802,405.205561 C197.571765,405.32877 180.815401,422.208342 180.815401,442.892321 C180.815401,463.591358 197.571765,480.47093 218.270802,480.703658 L218.613048,480.703658 C236.998503,480.705027 252.372193,467.412193 255.726203,450.067166 L255.726203,450.067166 Z" id="Shape"></path>
                    <path d="M218.270802,281.038717 L249.483636,333.073797 L218.270802,333.073797 L96.9925134,333.073797 L79.8802139,304.515422 L191.904171,237.23123 L218.270802,281.038717 Z" id="Shape"></path>
                    <path d="M137.569198,442.89369 L137.569198,507.75615 L106.014118,507.75615 L106.014118,500.584043 C95.2539037,507.523422 82.5360428,511.575615 68.9009626,511.575615 L68.5450267,511.575615 C30.980107,511.342888 0.342245989,480.581818 0.342245989,442.89369 C0.342245989,405.20693 30.980107,374.459551 68.5450267,374.225455 L68.9009626,374.225455 C82.5360428,374.225455 95.2539037,378.279016 106.014118,385.206075 L106.014118,377.690353 L137.569198,377.690353 L137.569198,442.89369 L137.569198,442.89369 Z M106.014118,450.067166 L106.014118,435.733904 C102.660107,418.388877 87.2864171,405.205561 68.9009626,405.205561 L68.5450267,405.205561 C47.9691979,405.32877 31.2128342,422.208342 31.2128342,442.892321 C31.2128342,463.591358 47.9691979,480.47093 68.5450267,480.703658 L68.9009626,480.703658 C87.2864171,480.705027 102.660107,467.412193 106.014118,450.067166 L106.014118,450.067166 Z" id="Shape"></path>
                </g>
            </g>
        </g>
    </g>
</svg>