<?xml version="1.0" encoding="iso-8859-1"?><!-- Generator: Adobe Illustrator 16.0.0, SVG Export Plug-In . SVG Version: 6.00 Build 0) --><!DOCTYPE svg PUBLIC "-//W3C//DTD SVG 1.1//EN" "http://www.w3.org/Graphics/SVG/1.1/DTD/svg11.dtd"><svg version="1.1" id="Layer_2" xmlns="http://www.w3.org/2000/svg" xmlns:xlink="http://www.w3.org/1999/xlink" x="0px" y="0px" width="479.241px" height="469.257px" viewBox="17.409 8.256 479.241 469.257" style="enable-background:new 17.409 8.256 479.241 469.257;" xml:space="preserve"><linearGradient id="SVGID_1_" gradientUnits="userSpaceOnUse" x1="-551.7756" y1="1628.417" x2="-1021.4476" y2="1158.7446" gradientTransform="matrix(1 0 0 -1 1045.9302 1634.1758)"><stop offset="0" style="stop-color:#FFAA2A"/><stop offset="1" style="stop-color:#FFC06C"/></linearGradient><rect x="17.409" y="8.256" style="fill:url(#SVGID_1_);" width="479.241" height="469.257"/><linearGradient id="SVGID_2_" gradientUnits="userSpaceOnUse" x1="-788.5974" y1="1589.8408" x2="-788.5974" y2="1195.1748" gradientTransform="matrix(1 0 0 -1 1045.9302 1634.1758)"><stop offset="0" style="stop-color:#251200"/><stop offset="1" style="stop-color:#000000"/></linearGradient><path style="fill:url(#SVGID_2_);" d="M192.234,247.147h42.479l-21.239-82.371L192.234,247.147z M53.666,45v396H461V45H53.666z M258.026,337.462l-15.542-53.532H184.98l-15.542,53.532h-39.372l55.432-189.263v-20.722h52.842l63.202,209.985H258.026z M362.675,337.462h-42.48V177.729h42.48V337.462z M341.692,158.561c-12.16,0-22.019-9.742-22.019-21.758	c0-12.017,9.857-21.759,22.019-21.759s22.018,9.742,22.018,21.759C363.71,148.819,353.853,158.561,341.692,158.561z"/></svg>