<?xml version="1.0" encoding="utf-8"?>
<!-- Generator: Adobe Illustrator 18.1.1, SVG Export Plug-In . SVG Version: 6.00 Build 0)  -->
<svg version="1.1" id="Layer_1" xmlns="http://www.w3.org/2000/svg" xmlns:xlink="http://www.w3.org/1999/xlink" x="0px" y="0px"
	 viewBox="-232 259 1123.2 512" enable-background="new -232 259 1123.2 512" xml:space="preserve">
<g>
	<path fill="#CF4037" d="M696.8,259.5H514l0.3,83.9c-77.3-89.7-180.4-84.3-180.4-84.3H66.7L-232,770.2h201l61.7-108L148,662v108.7
		l181.8,0.3c0,0,105,2,183.8-85.1l-0.1,84.3h171.4l0.1-107.6h17.7c69.5,5.3,189.1-66.5,188.5-205.7
		C890.9,341.5,802.6,259.5,696.8,259.5L696.8,259.5z M685.2,600.9l-66.9,0.2l-0.1,107.8l-42.3,0.1V600.8h-74.8
		c0,0-40.5,104-176.1,107.6L214.7,709V600.3l-220.6,0l-64.5,108.5h-50.5l223-383.1H324c139.8,0.8,186.7,118.7,193,162.7H576
		l0.1-163.8l113.8,0c86.3,4.2,136.6,76.5,138.1,125.3C830.3,526.9,776.3,597.3,685.2,600.9L685.2,600.9z"/>
	<path fill="#CF4037" d="M258.3,369.3l0.1,63.4c0,0,61.3,0,57,0c112.2-0.3,112.3,167.4-3,167c-0.1,0-54,0-54,0v63.5
		c0,0,51.9,0,54.4,0c87.2,0.5,155.5-59.1,155.3-152.2c-0.1-57.9-49.4-141.7-145.2-141.7L258.3,369.3L258.3,369.3z"/>
	<path fill="#CF4037" d="M620.7,369.8v63.5h61.6c39.7,1.9,40.5,59.4,0.4,59.2h-61.7v64.1c0,0,53.4,0.3,58.3,0
		c51.9-0.2,98.5-36.1,98.5-97.1c0-60.4-47.8-89.7-98.5-89.7C688.2,369.8,620.7,369.8,620.7,369.8L620.7,369.8z"/>
	<polygon fill="#CF4037" points="150.8,368.5 214.7,368.4 214.7,556.9 21.6,556.9 58.7,492.3 150.6,492.6 	"/>
	<path fill="#CF4037" d="M778.3,713.4c5.9,5.9,8.9,13,8.9,21.4c0,8.5-3,15.7-8.9,21.6c-5.9,6-13,8.9-21.4,8.9
		c-8.5,0-15.6-3-21.4-8.9c-5.9-5.9-8.8-13.1-8.8-21.6c0-8.4,3-15.5,8.9-21.4c5.9-6,13-8.9,21.3-8.9
		C765.2,704.5,772.4,707.5,778.3,713.4L778.3,713.4z M781.7,710c-6.8-6.9-15.2-10.3-24.9-10.3c-9.7,0-18,3.4-24.8,10.3
		c-6.8,6.9-10.3,15.2-10.3,24.8c0,9.8,3.4,18.1,10.2,25c6.8,6.9,15.2,10.3,24.9,10.3c9.7,0,18.1-3.4,24.9-10.3
		c6.9-6.9,10.3-15.2,10.3-25C792.1,725.1,788.6,716.8,781.7,710L781.7,710z M762.1,733.2c-1.5,0.6-3.5,0.9-6.4,0.9h-6.1v-14h5.7
		c7.6,0,10.8,1.4,10.8,7.1C766,730.2,764.7,732.2,762.1,733.2L762.1,733.2z M742.7,754.1h6.8v-15.3h5.3c3.6,0,6.1,0.5,7.6,1.3
		c2.4,1.5,3.6,4.5,3.6,8.9v3.1l0.2,1.3c0,0.1,0.1,0.3,0.1,0.4c0.1,0.1,0.1,0.2,0.1,0.4h6.4l-0.3-0.5c-0.1-0.3-0.3-1-0.3-2
		c-0.1-1-0.1-2-0.1-2.9v-2.9c0-3.9-2.7-8.8-8.8-9.8c6.8-1,9.4-4.1,9.4-9.5c0-4.8-2-8.1-6-9.7c-2.2-0.9-5.8-1.4-10.5-1.4h-13.5
		L742.7,754.1L742.7,754.1z"/>
</g>
</svg>
