<?xml version="1.0" encoding="utf-8"?>
<!-- Generator: Adobe Illustrator 18.1.1, SVG Export Plug-In . SVG Version: 6.00 Build 0)  -->
<!DOCTYPE svg PUBLIC "-//W3C//DTD SVG 1.1//EN" "http://www.w3.org/Graphics/SVG/1.1/DTD/svg11.dtd">
<svg version="1.1" id="Layer_1" xmlns="http://www.w3.org/2000/svg" xmlns:xlink="http://www.w3.org/1999/xlink" x="0px" y="0px"
	 width="792px" height="612px" viewBox="0 0 792 612" enable-background="new 0 0 792 612" xml:space="preserve">
<g>
	<g>
		<path d="M657.3,327.4v1h-3v7.7h-1.2v-7.7h-3v-1H657.3z"/>
		<path d="M658.1,327.4h1.7l2.6,7.4l2.5-7.4h1.7v8.8h-1.1V331c0-0.2,0-0.5,0-0.9c0-0.4,0-0.9,0-1.3l-2.5,7.4h-1.2l-2.6-7.4v0.3
			c0,0.2,0,0.6,0.1,1c0,0.4,0,0.7,0,1v5.1h-1.1V327.4z"/>
	</g>
	<path d="M188,300.2c0-3.1,0.8-4.8,2.6-6.2c1.5-1.2,3.8-1.3,9-4.1c0,2.3-0.1,5.1-0.1,9.8c0,5.6-3.2,7.6-6.7,7.6
		C189.7,307.3,188,304.6,188,300.2z M188.3,278.8c0.1-4.8,1.4-7.6,6.1-7.6c3.7,0,5.2,2.2,5.2,5.6c0,4.2-0.9,5-6,6.4
		c-4.6,1.2-10.8,2.3-14.9,4.5c-4.1,2.3-6.8,7.7-6.8,14.2c0,12,5.4,17,14.8,17c5.6,0,10.8-2.9,13.1-7.8h0.2c0.1,2.2,0.3,4.4,0.9,6.4
		h16c-2-2.5-2-7.8-2-12v-28.6c0-11.7-6.1-16.5-19.7-16.5c-6.9,0-11.6,0.9-15.5,3.6c-3.9,2.7-6.2,7.3-6.3,14.9H188.3z"/>
	<path d="M249.9,289.9c0,10.8-1,16.8-6,16.8c-6.3,0-6.5-8.5-6.5-17.5c0-10.1,0.3-16.8,6.4-16.8C249.4,272.4,249.9,280,249.9,289.9z
		 M250.2,317.4h16v-73.4h-16.7v23.9h-0.2c-2.8-6-7.8-7.5-12.4-7.5c-13.7,0-16.1,12.4-16.1,29.7c0,20.8,6,28.8,17.2,28.8
		c7.4,0,10.8-4.4,12-8.2h0.2V317.4z"/>
	<path d="M317.7,317.4h-16v-6.6h-0.2c-2.4,4.9-7.2,8-13.4,8c-9.5,0-14.5-4.7-14.5-15.4v-41.6h16.7v37.9c0,4,1.7,6.4,4.8,6.4
		c3.2,0,6-2.5,6-7.9v-36.4h16.7V317.4z"/>
	<path d="M325.5,243.9h16.7v73.4h-16.7V243.9z"/>
	<path d="M354,273.3h-6.9v-11.5h6.9v-16.3h16.7v16.3h7.7v11.5h-7.7v28.1c0,3.9,1.4,5.1,5.3,5.1c0.7,0,1.6-0.1,2.4-0.2v11.1
		c-3.2,0.4-6.4,0.6-9.6,0.6c-11.5,0-14.8-2.1-14.8-15V273.3z"/>
	<path d="M413,299.7c0.1,2.5,0.3,4.6,1.1,6.3c0.9,1.5,2.5,2.6,5.1,2.6c3.9,0,6-2.5,6-5.7c0-2.6-1.2-5-6.4-6.8
		c-13.7-4.6-20.3-7.3-20.3-19c0-11.1,7.8-16.8,21.2-16.8c15.6,0,20.2,7.6,20.2,15.6v1.9h-14.8v-1c0-4.8-2-6.2-5.5-6.2
		c-4.4,0-5.7,2.2-5.7,5.1c0,9.9,26.6,3.3,26.6,24.9c0,11.2-7.5,18.2-21.3,18.2c-14.9,0-21.2-5.6-21.2-16.7v-2.5H413z"/>
	<path d="M442.6,261.7h16.7l5.3,41h0.2l6.3-41H489l5.9,41h0.2l5.9-41h16l-12,55.6h-18.8l-6.1-41h-0.2l-6.5,41h-19.1L442.6,261.7z"/>
	<path d="M521.9,261.7h16.7v55.6h-16.7V261.7z M521.9,243.1h16.7v12.8h-16.7V243.1z"/>
	<path d="M546.2,261.7h16v6.6h0.2c2.4-4.9,7.2-8,13.4-8c4.8,0,11.2,0.9,13.7,8.5c3.9-6.5,7.6-8.5,13.8-8.5c9.5,0,14.5,4.7,14.5,15.4
		v41.6h-16.7v-37.9c0-4-1.7-6.4-4.8-6.4c-3.2,0-6,2.5-6,7.9v36.4h-16.7v-37.9c0-4-1.7-6.4-4.8-6.4c-3.2,0-6,2.5-6,7.9v36.4h-16.7
		V261.7z"/>
	<path d="M144,243.8h26v11.5h-10.6v69.3H170v11.5h-26V243.8z"/>
	<path d="M621.5,324.6h10.6v-69.3h-10.6v-11.5h26v92.3h-26V324.6z"/>
</g>
</svg>
