<?xml version="1.0" encoding="UTF-8" standalone="no"?>
<svg width="2847px" height="508px" viewBox="0 0 2847 508" version="1.1" xmlns="http://www.w3.org/2000/svg" xmlns:xlink="http://www.w3.org/1999/xlink">
    <!-- Generator: Sketch 3.6.1 (26313) - http://www.bohemiancoding.com/sketch -->
    <title>adult swim</title>
    <desc>Created with Sketch.</desc>
    <defs></defs>
    <g id="Page-1" stroke="none" stroke-width="1" fill="none" fill-rule="evenodd">
        <g id="adult-swim" fill="#000000">
            <g id="Group">
                <g transform="translate(2756.085106, 457.531915)" id="Shape">
                    <path d="M39.7617021,2.1787234 L39.7617021,7.62553191 L23.4212766,7.62553191 L23.4212766,49.5659574 L16.8851064,49.5659574 L16.8851064,7.62553191 L0.544680851,7.62553191 L0.544680851,2.1787234 L39.7617021,2.1787234 L39.7617021,2.1787234 Z"></path>
                    <path d="M44.1191489,2.1787234 L53.3787234,2.1787234 L67.5404255,42.4851064 L81.1574468,2.1787234 L90.4170213,2.1787234 L90.4170213,50.1106383 L84.4255319,50.1106383 L84.4255319,21.787234 L84.4255319,16.8851064 L84.4255319,9.80425532 L70.8085106,50.1106383 L64.2723404,50.1106383 L50.1106383,9.80425532 L50.1106383,11.4382979 C50.1106383,12.5276596 50.1106383,14.706383 50.6553191,16.8851064 L50.6553191,22.3319149 L50.6553191,50.1106383 L44.6638298,50.1106383 L44.6638298,2.1787234 L44.1191489,2.1787234 Z"></path>
                </g>
                <path d="M239.659574,311.557447 C239.659574,294.67234 244.017021,285.412766 253.821277,277.787234 C261.991489,271.251064 274.519149,270.706383 302.842553,255.455319 C302.842553,267.982979 302.297872,283.234043 302.297872,308.834043 C302.297872,339.33617 284.868085,350.229787 265.804255,350.229787 C248.919149,350.229787 239.659574,335.523404 239.659574,311.557447 L239.659574,311.557447 Z M241.293617,194.995745 C241.838298,168.851064 248.919149,153.6 274.519149,153.6 C294.67234,153.6 302.842553,165.582979 302.842553,184.102128 C302.842553,206.978723 297.940426,211.33617 270.161702,218.961702 C245.106383,225.497872 211.33617,231.489362 189.004255,243.47234 C166.67234,256 151.965957,285.412766 151.965957,320.817021 C151.965957,386.178723 181.378723,413.412766 232.578723,413.412766 C263.080851,413.412766 291.404255,397.617021 303.931915,370.92766 L305.021277,370.92766 C305.565957,382.910638 306.655319,394.893617 309.923404,405.787234 L397.07234,405.787234 C386.178723,392.170213 386.178723,363.302128 386.178723,340.425532 L386.178723,184.646809 C386.178723,120.919149 352.953191,94.7744681 278.876596,94.7744681 C241.293617,94.7744681 215.693617,99.6765957 194.451064,114.382979 C173.208511,129.089362 160.680851,154.144681 160.13617,195.540426 L241.293617,195.540426 L241.293617,194.995745 Z" id="Shape"></path>
                <path d="M576.817021,255.455319 C576.817021,314.280851 571.370213,346.961702 544.13617,346.961702 C509.821277,346.961702 508.731915,300.66383 508.731915,251.642553 C508.731915,196.629787 510.365957,160.13617 543.591489,160.13617 C574.093617,160.13617 576.817021,201.531915 576.817021,255.455319 L576.817021,255.455319 Z M578.451064,405.242553 L665.6,405.242553 L665.6,5.44680851 L574.638298,5.44680851 L574.638298,135.625532 L573.548936,135.625532 C558.297872,102.944681 531.06383,94.7744681 506.008511,94.7744681 C431.387234,94.7744681 418.314894,162.314894 418.314894,256.544681 C418.314894,369.838298 450.995745,413.412766 512,413.412766 C552.306383,413.412766 570.825532,389.446809 577.361702,368.748936 L578.451064,368.748936 L578.451064,405.242553 L578.451064,405.242553 Z" id="Shape"></path>
                <path d="M946.110638,405.242553 L858.961702,405.242553 L858.961702,369.293617 L857.87234,369.293617 C844.8,395.982979 818.655319,412.868085 784.885106,412.868085 C733.140426,412.868085 705.906383,387.268085 705.906383,328.987234 L705.906383,102.4 L796.868085,102.4 L796.868085,308.834043 C796.868085,330.621277 806.12766,343.693617 823.012766,343.693617 C840.442553,343.693617 855.693617,330.076596 855.693617,300.66383 L855.693617,102.4 L946.655319,102.4 L946.655319,405.242553 L946.110638,405.242553 Z" id="Shape"></path>
                <path d="M988.595745,4.90212766 L1079.55745,4.90212766 L1079.55745,404.697872 L988.595745,404.697872 L988.595745,4.90212766 L988.595745,4.90212766 Z" id="Shape"></path>
                <path d="M1143.82979,165.038298 L1106.24681,165.038298 L1106.24681,102.4 L1143.82979,102.4 L1143.82979,13.6170213 L1234.79149,13.6170213 L1234.79149,102.4 L1276.73191,102.4 L1276.73191,165.038298 L1234.79149,165.038298 L1234.79149,318.093617 C1234.79149,339.33617 1242.41702,345.87234 1263.65957,345.87234 C1267.47234,345.87234 1272.37447,345.32766 1276.73191,344.782979 L1276.73191,405.242553 C1259.30213,407.421277 1241.87234,408.510638 1224.44255,408.510638 C1161.80426,408.510638 1143.82979,397.07234 1143.82979,326.808511 L1143.82979,165.038298 L1143.82979,165.038298 Z" id="Shape"></path>
                <path d="M1465.19149,308.834043 C1465.73617,322.451064 1466.82553,333.889362 1471.18298,343.148936 C1476.08511,351.319149 1484.8,357.310638 1498.9617,357.310638 C1520.20426,357.310638 1531.64255,343.693617 1531.64255,326.26383 C1531.64255,312.102128 1525.10638,299.029787 1496.78298,289.225532 C1422.1617,264.170213 1386.21277,249.46383 1386.21277,185.73617 C1386.21277,125.276596 1428.69787,94.2297872 1501.68511,94.2297872 C1586.65532,94.2297872 1611.71064,135.625532 1611.71064,179.2 L1611.71064,189.548936 L1531.09787,189.548936 L1531.09787,184.102128 C1531.09787,157.957447 1520.20426,150.331915 1501.14043,150.331915 C1477.17447,150.331915 1470.09362,162.314894 1470.09362,178.110638 C1470.09362,232.034043 1614.97872,196.085106 1614.97872,313.73617 C1614.97872,374.740426 1574.12766,412.868085 1498.9617,412.868085 C1417.80426,412.868085 1383.48936,382.365957 1383.48936,321.906383 L1383.48936,308.289362 L1465.19149,308.289362 L1465.19149,308.834043 Z" id="Shape"></path>
                <path d="M1626.41702,101.855319 L1717.37872,101.855319 L1746.24681,325.174468 L1747.33617,325.174468 L1781.65106,101.855319 L1879.14894,101.855319 L1911.28511,325.174468 L1912.37447,325.174468 L1944.51064,101.855319 L2031.65957,101.855319 L1966.29787,404.697872 L1863.89787,404.697872 L1830.67234,181.378723 L1829.58298,181.378723 L1794.17872,404.697872 L1690.14468,404.697872 L1626.41702,101.855319 L1626.41702,101.855319 Z" id="Shape"></path>
                <path d="M2058.34894,101.855319 L2149.31064,101.855319 L2149.31064,404.697872 L2058.34894,404.697872 L2058.34894,101.855319 L2058.34894,101.855319 Z M2058.34894,0.544680851 L2149.31064,0.544680851 L2149.31064,70.2638298 L2058.34894,70.2638298 L2058.34894,0.544680851 L2058.34894,0.544680851 Z" id="Shape"></path>
                <path d="M2190.70638,101.855319 L2277.85532,101.855319 L2277.85532,137.804255 L2278.94468,137.804255 C2292.01702,111.114894 2318.1617,94.2297872 2351.93191,94.2297872 C2378.0766,94.2297872 2412.93617,99.1319149 2426.55319,140.52766 C2447.79574,105.123404 2467.94894,94.2297872 2501.71915,94.2297872 C2553.46383,94.2297872 2580.69787,119.829787 2580.69787,178.110638 L2580.69787,404.697872 L2489.73617,404.697872 L2489.73617,198.26383 C2489.73617,176.476596 2480.4766,163.404255 2463.59149,163.404255 C2446.1617,163.404255 2430.91064,177.021277 2430.91064,206.434043 L2430.91064,404.697872 L2339.94894,404.697872 L2339.94894,198.26383 C2339.94894,176.476596 2330.68936,163.404255 2313.80426,163.404255 C2296.37447,163.404255 2281.1234,177.021277 2281.1234,206.434043 L2281.1234,404.697872 L2190.1617,404.697872 L2190.1617,101.855319 L2190.70638,101.855319 Z" id="Shape"></path>
                <path d="M0,4.35744681 L141.617021,4.35744681 L141.617021,66.9957447 L83.8808511,66.9957447 L83.8808511,444.459574 L141.617021,444.459574 L141.617021,507.097872 L0,507.097872 L0,4.35744681 L0,4.35744681 Z" id="Shape"></path>
                <path d="M2600.85106,444.459574 L2658.58723,444.459574 L2658.58723,66.9957447 L2600.85106,66.9957447 L2600.85106,4.35744681 L2742.46809,4.35744681 L2742.46809,507.097872 L2600.85106,507.097872 L2600.85106,444.459574 L2600.85106,444.459574 Z" id="Shape"></path>
            </g>
        </g>
    </g>
</svg>