<?xml version="1.0" encoding="UTF-8" standalone="no"?>
<svg width="2401px" height="513px" viewBox="0 0 2401 513" version="1.1" xmlns="http://www.w3.org/2000/svg" xmlns:xlink="http://www.w3.org/1999/xlink">
    <!-- Generator: Sketch 3.6.1 (26313) - http://www.bohemiancoding.com/sketch -->
    <title>AgileBits</title>
    <desc>Created with Sketch.</desc>
    <defs>
        <rect id="path-1" x="0" y="0" width="512" height="352" rx="22"></rect>
        <rect id="path-3" x="0" y="0" width="512" height="352" rx="22"></rect>
        <rect id="path-5" x="0" y="0" width="512" height="352" rx="22"></rect>
        <rect id="path-7" x="0" y="0" width="512" height="352" rx="22"></rect>
        <rect id="path-9" x="0" y="0" width="512" height="352" rx="22"></rect>
        <rect id="path-11" x="0" y="0" width="512" height="352" rx="22"></rect>
    </defs>
    <g id="Page-1" stroke="none" stroke-width="1" fill="none" fill-rule="evenodd">
        <g id="AgileBits" transform="translate(0.000000, 1.000000)">
            <g id="Page-1">
                <g id="AgileBits">
                    <g id="agilebits-logo">
                        <g id="agilebits-lettering" transform="translate(672.000000, 0.000000)">
                            <path d="M920.083856,448 C906.782712,448 896,437.367654 896,423.913574 L896,24.0864258 C896,10.7838602 907.012424,0 920.224856,0 L967.775144,0 C981.15416,0 992,11.0124206 992,24.2248535 L992,96 L1127.69944,96 C1141.12027,96 1152,106.92065 1152,120.194386 L1152,423.805614 C1152,437.167805 1141,448 1127.91614,448 L920.083856,448 L920.083856,448 L920.083856,448 Z M992,192 L1056,192 L1056,352 L992,352 L992,192 L992,192 L992,192 Z M1184,120.194386 C1184,106.832195 1195.01242,96 1208.22486,96 L1255.77514,96 C1269.15416,96 1280,106.92065 1280,120.194386 L1280,423.805614 C1280,437.167805 1268.98758,448 1255.77514,448 L1208.22486,448 C1194.84584,448 1184,437.07935 1184,423.805614 L1184,120.194386 L1184,120.194386 L1184,120.194386 Z M1208.22486,0 L1255.77514,0 C1269.15416,0 1280,10.5682983 1280,23.8312378 L1280,40.1687622 C1280,53.3303914 1268.98758,64 1255.77514,64 L1208.22486,64 C1194.84584,64 1184,53.4317017 1184,40.1687622 L1184,23.8312378 C1184,10.6696086 1195.01242,0 1208.22486,0 L1208.22486,0 Z M1336.22486,0 L1383.77514,0 C1397.15416,0 1408,11.0124206 1408,24.2248535 L1408,96 L1416.07495,96 C1429.28839,96 1440,107.012421 1440,120.224854 L1440,167.775146 C1440,181.154164 1429.16626,192 1416.07495,192 L1408,192 L1408,352 L1632,352 L1632,320 L1496.30056,320 C1482.87973,320 1472,309.196014 1472,296.028076 L1472,119.971924 C1472,106.732596 1483,96 1496.08386,96 L1703.91614,96 C1717.21729,96 1728,107.012421 1728,120.224854 L1728,167.775146 C1728,181.154164 1717.50195,192 1703.69944,192 L1568,192 L1568,224 L1703.69944,224 C1717.12027,224 1728,234.803986 1728,247.971924 L1728,424.028076 C1728,437.267404 1717.29875,448 1703.83598,448 L1336.16402,448 C1322.8186,448 1312,437.367654 1312,423.913574 L1312,24.0864258 C1312,10.7838602 1323.01242,0 1336.22486,0 L1336.22486,0 Z" id="bits" stroke="#0066CC" fill="#1A8CFF"></path>
                            <path d="M672,128 L672,288 L672,288 L832,288 L832,128 L672,128 L672,128 L672,128 Z M640,112 L640,448 L656,448 L656,448 L864,448 L864,416 L672,416 L672,320 L864,320 L864,304 L864,96 L848,96 L640,96 L640,112 L640,112 L640,112 Z M256,96 L464,96 L480,96 L480,512 L256,512 L256,480 L448,480 L448,448 L256,448 L256,112 L256,96 L256,96 Z M288,128 L448,128 L448,416 L288,416 L288,128 L288,128 L288,128 L288,128 Z M0,224 L0,240 L0,448 L16,448 L208,448 L224,448 L224,96 L208,96 L0,96 L0,128 L192,128 L192,224 L0,224 L0,224 Z M192,256 L32,256 L32,416 L192,416 L192,256 L192,256 L192,256 L192,256 Z M512,96 L512,448 L544,448 L544,96 L512,96 L512,96 L512,96 Z M512,32 L512,64 L544,64 L544,32 L512,32 L512,32 L512,32 Z M576,0 L576,448 L608,448 L608,0 L576,0 L576,0 L576,0 Z" id="agile" fill="#333333"></path>
                        </g>
                        <g id="switch" transform="translate(0.000000, 96.000000)">
                            <g id="mask-2" fill="#FFFFFF">
                                <rect id="path-1" x="0" y="0" width="512" height="352" rx="22"></rect>
                            </g>
                            <g id="pill-outline" fill="#0066CC">
                                <rect id="path-1" x="0" y="0" width="512" height="352" rx="22"></rect>
                            </g>
                            <g id="pill-inside-Clipped">
                                <mask id="mask-2" fill="white">
                                    <use xlink:href="#path-1"></use>
                                </mask>
                                <g id="path-1"></g>
                                <rect id="pill-inside" fill="#1A8CFF" mask="url(#mask-2)" x="16" y="16" width="480" height="320" rx="20"></rect>
                            </g>
                            <g id="thumb-stroke-Clipped">
                                <mask id="mask-4" fill="white">
                                    <use xlink:href="#path-3"></use>
                                </mask>
                                <g id="path-1"></g>
                                <circle id="thumb-stroke" fill="#0066CC" mask="url(#mask-4)" cx="336" cy="176" r="176"></circle>
                            </g>
                            <g id="inner-shadow-Clipped">
                                <mask id="mask-6" fill="white">
                                    <use xlink:href="#path-5"></use>
                                </mask>
                                <g id="path-1"></g>
                                <path d="M0.044535205,180.000446 C0.0148972841,178.670551 0,177.337017 0,176 C0,78.7765119 78.807831,0 176.022217,0 L335.977783,0 C433.261906,0 512,78.797884 512,176 C512,177.336724 511.985102,178.669961 511.955465,179.999554 C509.830403,84.64506 431.923762,8 335.977783,8 L176.022217,8 C80.1444296,8 2.17053417,84.6252096 0.044535205,180.000446 L0.044535205,180.000446 Z" id="inner-shadow" fill="#333333" mask="url(#mask-6)"></path>
                            </g>
                            <g id="thumb-shadow-Clipped">
                                <mask id="mask-8" fill="white">
                                    <use xlink:href="#path-7"></use>
                                </mask>
                                <g id="path-1"></g>
                                <circle id="thumb-shadow" fill="#333333" mask="url(#mask-8)" cx="336" cy="192" r="144"></circle>
                            </g>
                            <g id="thumb-Clipped">
                                <mask id="mask-10" fill="white">
                                    <use xlink:href="#path-9"></use>
                                </mask>
                                <g id="path-1"></g>
                                <circle id="thumb" fill="#EDEFF2" mask="url(#mask-10)" cx="336" cy="176" r="144"></circle>
                            </g>
                            <g id="thumb-highlight-Clipped">
                                <mask id="mask-12" fill="white">
                                    <use xlink:href="#path-11"></use>
                                </mask>
                                <g id="path-1"></g>
                                <path d="M479.781533,184 C479.926544,181.351757 480,178.684457 480,176 C480,96.470996 415.529004,32 336,32 C256.470996,32 192,96.470996 192,176 C192,178.684457 192.073456,181.351757 192.218467,184 C196.369521,108.192088 259.155453,48 336,48 C412.844547,48 475.630479,108.192088 479.781533,184 L479.781533,184 Z" id="thumb-highlight" fill="#FFFFFF" mask="url(#mask-12)"></path>
                            </g>
                        </g>
                    </g>
                </g>
            </g>
        </g>
    </g>
</svg>