<?xml version="1.0" encoding="UTF-8" standalone="no"?>
<svg width="300px" height="68px" viewBox="0 0 300 68" version="1.1" xmlns="http://www.w3.org/2000/svg" xmlns:xlink="http://www.w3.org/1999/xlink">
    <!-- Generator: Sketch 3.6.1 (26313) - http://www.bohemiancoding.com/sketch -->
    <title>AgileBits - RGB - light bg/agilebits-logo</title>
    <desc>Created with Sketch.</desc>
    <defs>
        <rect id="path-1" x="0" y="0" width="64" height="44" rx="22"></rect>
    </defs>
    <g id="Page-1" stroke="none" stroke-width="1" fill="none" fill-rule="evenodd">
        <g id="AgileBits" transform="translate(-80.000000, -70.000000)">
            <g id="agilebits-logo" transform="translate(80.000000, 70.000000)">
                <g id="agilebits-lettering" transform="translate(84.000000, 0.000000)">
                    <path d="M115.010482,56 C113.347839,56 112,54.6709567 112,52.9891968 L112,3.01080322 C112,1.34798252 113.376553,0 115.028107,0 L120.971893,0 C122.64427,0 124,1.37655258 124,3.02810669 L124,12 L140.96243,12 C142.640034,12 144,13.3650813 144,15.0242982 L144,52.9757018 C144,54.6459756 142.625,56 140.989518,56 L115.010482,56 L115.010482,56 Z M124,24 L132,24 L132,44 L124,44 L124,24 L124,24 Z M148,15.0242982 C148,13.3540244 149.376553,12 151.028107,12 L156.971893,12 C158.64427,12 160,13.3650813 160,15.0242982 L160,52.9757018 C160,54.6459756 158.623447,56 156.971893,56 L151.028107,56 C149.35573,56 148,54.6349187 148,52.9757018 L148,15.0242982 L148,15.0242982 Z M151.028107,0 L156.971893,0 C158.64427,0 160,1.32103729 160,2.97890472 L160,5.02109528 C160,6.66629893 158.623447,8 156.971893,8 L151.028107,8 C149.35573,8 148,6.67896271 148,5.02109528 L148,2.97890472 C148,1.33370107 149.376553,0 151.028107,0 Z M167.028107,0 L172.971893,0 C174.64427,0 176,1.37655258 176,3.02810669 L176,12 L177.009369,12 C178.661049,12 180,13.3765526 180,15.0281067 L180,20.9718933 C180,22.6442705 178.645782,24 177.009369,24 L176,24 L176,44 L204,44 L204,40 L187.03757,40 C185.359966,40 184,38.6495018 184,37.0035095 L184,14.9964905 C184,13.3415745 185.375,12 187.010482,12 L212.989518,12 C214.652161,12 216,13.3765526 216,15.0281067 L216,20.9718933 C216,22.6442705 214.687744,24 212.96243,24 L196,24 L196,28 L212.96243,28 C214.640034,28 216,29.3504982 216,30.9964905 L216,53.0035095 C216,54.6584255 214.662344,56 212.979497,56 L167.020503,56 C165.352325,56 164,54.6709567 164,52.9891968 L164,3.01080322 C164,1.34798252 165.376553,0 167.028107,0 Z" id="bits" stroke="#0066CC" fill="#1A8CFF"></path>
                    <path d="M84,16 L84,36 L84,36 L104,36 L104,16 L84,16 L84,16 Z M80,14 L80,56 L82,56 L82,56 L108,56 L108,52 L84,52 L84,40 L108,40 L108,38 L108,12 L106,12 L80,12 L80,14 L80,14 Z M32,12 L58,12 L60,12 L60,64 L32,64 L32,60 L56,60 L56,56 L32,56 L32,14 L32,12 Z M36,16 L56,16 L56,52 L36,52 L36,16 L36,16 L36,16 Z M0,28 L0,30 L0,56 L2,56 L26,56 L28,56 L28,12 L26,12 L0,12 L0,16 L24,16 L24,28 L0,28 Z M24,32 L4,32 L4,52 L24,52 L24,32 L24,32 L24,32 Z M64,12 L64,56 L68,56 L68,12 L64,12 L64,12 Z M64,4 L64,8 L68,8 L68,4 L64,4 L64,4 Z M72,0 L72,56 L76,56 L76,0 L72,0 L72,0 Z" id="agile" fill="#333333"></path>
                </g>
                <g id="switch" transform="translate(0.000000, 12.000000)">
                    <mask id="mask-2" fill="white">
                        <use xlink:href="#path-1"></use>
                    </mask>
                    <use id="pill-outline" fill="#0066CC" xlink:href="#path-1"></use>
                    <rect id="pill-inside" fill="#1A8CFF" mask="url(#mask-2)" x="2" y="2" width="60" height="40" rx="20"></rect>
                    <circle id="thumb-stroke" fill="#0066CC" mask="url(#mask-2)" cx="42" cy="22" r="22"></circle>
                    <path d="M0.00556690063,22.5000558 C0.00186216051,22.3338189 0,22.1671271 0,22 C0,9.84706399 9.85097887,0 22.0027771,0 L41.9972229,0 C54.1577383,0 64,9.8497355 64,22 C64,22.1670905 63.9981378,22.3337451 63.9944331,22.4999442 C63.7288004,10.5806325 53.9904702,1 41.9972229,1 L22.0027771,1 C10.0180537,1 0.271316771,10.5781512 0.00556690063,22.5000558 Z" id="inner-shadow" fill="#333333" mask="url(#mask-2)"></path>
                    <circle id="thumb-shadow" fill="#333333" mask="url(#mask-2)" cx="42" cy="24" r="18"></circle>
                    <circle id="thumb" fill="#EDEFF2" mask="url(#mask-2)" cx="42" cy="22" r="18"></circle>
                    <path d="M59.9726916,23 C59.990818,22.6689696 60,22.3355571 60,22 C60,12.0588745 51.9411255,4 42,4 C32.0588745,4 24,12.0588745 24,22 C24,22.3355571 24.009182,22.6689696 24.0273084,23 C24.5461901,13.524011 32.3944316,6 42,6 C51.6055684,6 59.4538099,13.524011 59.9726916,23 Z" id="thumb-highlight" fill="#FFFFFF" mask="url(#mask-2)"></path>
                </g>
            </g>
        </g>
    </g>
</svg>