<?xml version="1.0" encoding="UTF-8" standalone="no"?>
<svg width="1592px" height="509px" viewBox="0 0 1592 509" version="1.1" xmlns="http://www.w3.org/2000/svg" xmlns:xlink="http://www.w3.org/1999/xlink">
    <!-- Generator: Sketch 3.6.1 (26313) - http://www.bohemiancoding.com/sketch -->
    <title>aircall</title>
    <desc>Created with Sketch.</desc>
    <defs></defs>
    <g id="Page-1" stroke="none" stroke-width="1" fill="none" fill-rule="evenodd">
        <g id="aircall" transform="translate(-1.000000, -1.000000)">
            <g id="Artboard-1">
                <g id="aircall-logo">
                    <path d="M734.208,346.794667 C743.082709,346.794667 751.502182,345.486235 759.466667,342.869333 C767.431151,340.252431 774.428416,336.611579 780.458667,331.946667 C786.488917,327.281754 791.267537,321.649811 794.794667,315.050667 C798.321796,308.451523 800.085333,301.169818 800.085333,293.205333 L800.085333,273.408 C792.80352,271.587546 784.270272,269.824009 774.485333,268.117333 C764.700395,266.410658 753.550285,265.557333 741.034667,265.557333 C722.602573,265.557333 708.437385,269.255074 698.538667,276.650667 C688.639949,284.046259 683.690667,293.887939 683.690667,306.176 L683.690667,306.858667 C683.690667,313.230254 685.055987,318.862198 687.786667,323.754667 C690.517346,328.647136 694.215087,332.799983 698.88,336.213333 C703.544913,339.626684 708.949303,342.243546 715.093333,344.064 C721.237363,345.884454 727.608858,346.794667 734.208,346.794667 L734.208,346.794667 L734.208,346.794667 Z M733.184,362.496 C724.991957,362.496 716.913818,361.358234 708.949333,359.082667 C700.984849,356.8071 693.816922,353.393801 687.445333,348.842667 C681.073745,344.291533 675.896909,338.602701 671.914667,331.776 C667.932425,324.949299 665.941333,316.984934 665.941333,307.882667 L665.941333,307.2 C665.941333,298.097732 667.81865,290.019591 671.573333,282.965333 C675.328017,275.911076 680.504858,269.994691 687.104,265.216 C693.703142,260.437309 701.667507,256.796457 710.997333,254.293333 C720.327159,251.79021 730.680832,250.538667 742.058667,250.538667 C754.346726,250.538667 764.927957,251.221327 773.802667,252.586667 C782.677376,253.952007 791.324403,255.772433 799.744,258.048 L799.744,250.538667 C799.744,232.789245 794.680939,219.477378 784.554667,210.602667 C774.428395,201.727956 760.376977,197.290667 742.4,197.290667 C731.704836,197.290667 721.920043,198.599098 713.045333,201.216 C704.170624,203.832902 695.751151,207.189313 687.786667,211.285333 L681.642667,196.608 C691.200047,192.056866 700.871061,188.416014 710.656,185.685333 C720.440939,182.954653 731.363494,181.589333 743.424,181.589333 C767.317453,181.589333 785.63549,187.960825 798.378667,200.704 C810.211614,212.536948 816.128,228.920784 816.128,249.856 L816.128,358.4 L799.744,358.4 L799.744,329.386667 C796.785762,333.482687 793.201801,337.521758 788.992,341.504 C784.782199,345.486242 779.946692,349.013318 774.485333,352.085333 C769.023974,355.157349 762.823147,357.660435 755.882667,359.594667 C748.942187,361.528899 741.376043,362.496 733.184,362.496 L733.184,362.496 L733.184,362.496 Z M878.592,184.32 L895.317333,184.32 L895.317333,358.4 L878.592,358.4 L878.592,184.32 L878.592,184.32 Z M876.544,116.053333 L897.365333,116.053333 L897.365333,138.922667 L876.544,138.922667 L876.544,116.053333 L876.544,116.053333 Z M961.194667,184.32 L977.92,184.32 L977.92,233.813333 C981.33335,226.076406 985.656862,218.908477 990.890667,212.309333 C996.124471,205.710189 1002.04086,200.078246 1008.64,195.413333 C1015.23914,190.748421 1022.46396,187.221345 1030.31467,184.832 C1038.16537,182.442655 1046.41418,181.361777 1055.06133,181.589333 L1055.06133,200.021333 L1053.35467,200.021333 C1043.34217,200.021333 1033.78493,201.898648 1024.68267,205.653333 C1015.5804,209.408019 1007.55915,214.983074 1000.61867,222.378667 C993.678187,229.774259 988.160021,238.87639 984.064,249.685333 C979.967979,260.494276 977.92,272.952818 977.92,287.061333 L977.92,358.4 L961.194667,358.4 L961.194667,184.32 L961.194667,184.32 Z M1174.528,362.496 C1162.01238,362.496 1150.35028,360.049802 1139.54133,355.157333 C1128.73239,350.264864 1119.34582,343.722708 1111.38133,335.530667 C1103.41685,327.338626 1097.15913,317.781388 1092.608,306.858667 C1088.05687,295.935945 1085.78133,284.330728 1085.78133,272.042667 L1085.78133,271.36 C1085.78133,259.071939 1088.05687,247.466721 1092.608,236.544 C1097.15913,225.621279 1103.41685,215.950264 1111.38133,207.530667 C1119.34582,199.111069 1128.73239,192.455136 1139.54133,187.562667 C1150.35028,182.670198 1162.01238,180.224 1174.528,180.224 C1182.72004,180.224 1190.17241,181.077325 1196.88533,182.784 C1203.59825,184.490675 1209.79908,186.823096 1215.488,189.781333 C1221.17692,192.73957 1226.35375,196.15287 1231.01867,200.021333 C1235.68358,203.889797 1240.06398,207.985756 1244.16,212.309333 L1232.21333,224.597333 C1224.70396,216.860406 1216.39827,210.147584 1207.296,204.458667 C1198.19373,198.769749 1187.1574,195.925333 1174.18667,195.925333 C1164.17417,195.925333 1154.90138,197.859536 1146.368,201.728 C1137.83462,205.596464 1130.43914,210.887078 1124.18133,217.6 C1117.92352,224.312922 1112.97424,232.220399 1109.33333,241.322667 C1105.69242,250.424934 1103.872,260.209725 1103.872,270.677333 L1103.872,271.36 C1103.872,281.827608 1105.74932,291.669287 1109.504,300.885333 C1113.25868,310.101379 1118.37863,318.122633 1124.864,324.949333 C1131.34937,331.776034 1138.91551,337.123536 1147.56267,340.992 C1156.20982,344.860464 1165.53951,346.794667 1175.552,346.794667 C1187.84006,346.794667 1198.81951,344.007139 1208.49067,338.432 C1218.16183,332.856861 1226.63819,325.973374 1233.92,317.781333 L1245.52533,328.021333 C1236.65062,338.033828 1226.58139,346.282634 1215.31733,352.768 C1204.05328,359.253366 1190.45697,362.496 1174.528,362.496 L1174.528,362.496 L1174.528,362.496 Z M1346.56,346.794667 C1355.43471,346.794667 1363.85418,345.486235 1371.81867,342.869333 C1379.78315,340.252431 1386.78042,336.611579 1392.81067,331.946667 C1398.84092,327.281754 1403.61954,321.649811 1407.14667,315.050667 C1410.6738,308.451523 1412.43733,301.169818 1412.43733,293.205333 L1412.43733,273.408 C1405.15552,271.587546 1396.62227,269.824009 1386.83733,268.117333 C1377.05239,266.410658 1365.90228,265.557333 1353.38667,265.557333 C1334.95457,265.557333 1320.78938,269.255074 1310.89067,276.650667 C1300.99195,284.046259 1296.04267,293.887939 1296.04267,306.176 L1296.04267,306.858667 C1296.04267,313.230254 1297.40799,318.862198 1300.13867,323.754667 C1302.86935,328.647136 1306.56709,332.799983 1311.232,336.213333 C1315.89691,339.626684 1321.3013,342.243546 1327.44533,344.064 C1333.58936,345.884454 1339.96086,346.794667 1346.56,346.794667 L1346.56,346.794667 L1346.56,346.794667 Z M1345.536,362.496 C1337.34396,362.496 1329.26582,361.358234 1321.30133,359.082667 C1313.33685,356.8071 1306.16892,353.393801 1299.79733,348.842667 C1293.42575,344.291533 1288.24891,338.602701 1284.26667,331.776 C1280.28442,324.949299 1278.29333,316.984934 1278.29333,307.882667 L1278.29333,307.2 C1278.29333,298.097732 1280.17065,290.019591 1283.92533,282.965333 C1287.68002,275.911076 1292.85686,269.994691 1299.456,265.216 C1306.05514,260.437309 1314.01951,256.796457 1323.34933,254.293333 C1332.67916,251.79021 1343.03283,250.538667 1354.41067,250.538667 C1366.69873,250.538667 1377.27996,251.221327 1386.15467,252.586667 C1395.02938,253.952007 1403.6764,255.772433 1412.096,258.048 L1412.096,250.538667 C1412.096,232.789245 1407.03294,219.477378 1396.90667,210.602667 C1386.78039,201.727956 1372.72898,197.290667 1354.752,197.290667 C1344.05684,197.290667 1334.27204,198.599098 1325.39733,201.216 C1316.52262,203.832902 1308.10315,207.189313 1300.13867,211.285333 L1293.99467,196.608 C1303.55205,192.056866 1313.22306,188.416014 1323.008,185.685333 C1332.79294,182.954653 1343.71549,181.589333 1355.776,181.589333 C1379.66945,181.589333 1397.98749,187.960825 1410.73067,200.704 C1422.56361,212.536948 1428.48,228.920784 1428.48,249.856 L1428.48,358.4 L1412.096,358.4 L1412.096,329.386667 C1409.13776,333.482687 1405.5538,337.521758 1401.344,341.504 C1397.1342,345.486242 1392.29869,349.013318 1386.83733,352.085333 C1381.37597,355.157349 1375.17515,357.660435 1368.23467,359.594667 C1361.29419,361.528899 1353.72804,362.496 1345.536,362.496 L1345.536,362.496 L1345.536,362.496 Z M1490.944,109.226667 L1507.66933,109.226667 L1507.66933,358.4 L1490.944,358.4 L1490.944,109.226667 L1490.944,109.226667 Z M1575.936,109.226667 L1592.66133,109.226667 L1592.66133,358.4 L1575.936,358.4 L1575.936,109.226667 L1575.936,109.226667 Z" id="aircall" fill="#363636"></path>
                    <g id="Icon" fill="#52CC52">
                        <path d="M380.306481,327.425369 C379.94507,332.498824 376.155722,335.940449 373.070032,339.581946 C368.486674,345.887487 362.827294,351.609839 357.285647,357.063872 C352.423016,361.852578 347.114096,365.995123 341.074139,369.214973 C326.828492,376.812834 310.395209,378.92107 294.479401,377.152342 C271.735101,374.62246 249.754695,365.105283 230.539636,353.022631 C215.721754,343.708064 201.651337,332.561797 189.393455,320.057497 C168.842267,300.754824 150.952385,276.95093 140.142888,250.795123 C130.513455,227.495016 125.837005,200.435679 136.627337,176.661904 C143.455829,161.614032 156.398203,150.213134 169.400813,140.474182 C172.450909,138.004535 175.26554,135.088599 179.115123,133.911273 C182.063914,133.007743 185.130438,133.3363 187.958759,134.486246 C194.529882,137.161241 200.024984,143.039658 204.216813,148.589519 C208.611251,154.4077 211.817412,160.967872 214.747037,167.615658 C217.712257,174.342845 221.069005,181.20693 221.123765,188.714438 C221.167572,194.54631 218.897797,198.927059 214.900364,202.992941 C210.79615,207.162866 206.52492,211.121968 202.94092,215.771037 C194.617497,226.569583 190.047829,240.095145 189.713797,253.705583 C189.289412,271.025968 196.550503,288.852877 208.635893,301.239444 C229.022802,320.240941 262.31923,326.048171 287.325091,313.02092 C293.041968,310.042011 298.01138,305.943273 302.501647,301.354438 C305.792684,297.994952 308.785283,293.956449 312.675936,291.251337 C323.8003,283.522054 339.171251,291.473112 349.676834,296.502759 C356.864,299.944385 363.725347,304.084192 369.644834,309.453347 C374.540321,313.894332 380.840385,320.191658 380.306481,327.425369 C380.235294,328.419251 380.325647,327.18169 380.306481,327.425369" id="Fill-1"></path>
                        <path d="M255.386695,509.672725 C115.273925,509.672725 1.27863101,395.677433 1.27863101,255.564663 C1.27863101,115.449155 115.273925,1.45386096 255.386695,1.45386096 C395.502203,1.45386096 509.497498,115.449155 509.497498,255.564663 C509.497498,395.677433 395.502203,509.672725 255.386695,509.672725 L255.386695,509.672725 L255.386695,509.672725 Z M255.386695,30.1614545 C131.102118,30.1614545 29.9834866,131.280086 29.9834866,255.564663 C29.9834866,379.846503 131.102118,480.965133 255.386695,480.965133 C379.671273,480.965133 480.789905,379.846503 480.789905,255.564663 C480.789905,131.280086 379.671273,30.1614545 255.386695,30.1614545 L255.386695,30.1614545 L255.386695,30.1614545 Z" id="Fill-2"></path>
                    </g>
                </g>
            </g>
        </g>
    </g>
</svg>