<?xml version="1.0" encoding="UTF-8" standalone="no"?>
<svg width="513px" height="512px" viewBox="0 0 513 512" version="1.1" xmlns="http://www.w3.org/2000/svg" xmlns:xlink="http://www.w3.org/1999/xlink">
    <!-- Generator: Sketch 3.6.1 (26313) - http://www.bohemiancoding.com/sketch -->
    <title>AKINSOFT</title>
    <desc>Created with Sketch.</desc>
    <defs></defs>
    <g id="Page-1" stroke="none" stroke-width="1" fill="none" fill-rule="evenodd">
        <g id="AKINSOFT">
            <g id="Group">
                <ellipse id="Oval" fill="#FFFFFF" cx="256.953479" cy="256" rx="256" ry="256"></ellipse>
                <g transform="translate(10.626415, 9.660377)" id="Shape">
                    <path d="M73.522234,393.634294 C73.626566,393.187019 73.4526792,391.923442 72.781283,391.015366 C71.5321962,389.344121 69.1383547,389.287125 68.4476377,389.287125 C65.3176755,389.287125 63.8377057,390.885917 63.6251774,393.039215 C63.4126491,395.229223 64.5593358,396.291864 65.9494642,396.792272 C67.6042868,397.385419 70.1411019,397.385419 70.9863849,398.313781 C71.6201057,398.981313 71.4974189,400.042023 70.9351849,400.596528 C70.5990038,400.931743 69.7701434,401.21286 68.8881509,401.227351 C68.0129208,401.26406 67.0594415,401.05926 66.4778868,400.431336 C66.0383396,399.948317 65.9320755,399.388981 65.9320755,399.040242 L63.3633811,399.040242 C63.4512906,400.316377 64.0154566,401.660136 65.1592453,402.527638 C66.1088604,403.253132 67.6574189,403.494642 68.3114264,403.476287 C69.7372981,403.457932 71.2307925,403.271487 72.3253132,402.527638 C73.9260377,401.431185 74.6128906,398.219109 73.1358189,396.588438 C72.3253132,395.711275 70.8115321,395.377992 70.1053585,395.247577 C69.6126792,395.153872 67.1850264,394.749102 66.8826566,394.413887 C66.3001358,394.173343 66.0035623,393.984 66.074083,393.058536 C66.1610264,391.942762 67.1096755,391.479064 68.3974038,391.498385 C70.2106566,391.53606 71.0742943,392.539774 71.0385509,393.63526 L73.522234,393.63526 L73.522234,393.634294 Z M93.1811019,396.379774 L93.1811019,396.379774 C93.1811019,394.338536 92.4758943,392.2944 91.2799396,390.973826 C90.2037736,389.802989 88.6397585,389.286158 87.0003925,389.286158 C85.3600604,389.286158 83.7950792,389.802989 82.7189132,390.973826 C81.5210264,392.293434 80.818717,394.33757 80.818717,396.379774 C80.818717,398.425842 81.5210264,400.467079 82.7189132,401.784755 C83.7941132,402.955592 85.3590943,403.476287 87.0003925,403.476287 C88.6387925,403.476287 90.2028075,402.955592 91.2799396,401.784755 C92.4758943,400.468045 93.1811019,398.426808 93.1811019,396.379774 L93.1811019,396.379774 Z M87.0013585,401.041872 L87.0013585,401.041872 C86.1560755,401.041872 85.3078943,400.782974 84.6413283,400.13283 C83.7960453,399.31846 83.3729208,397.848151 83.352634,396.38074 C83.3729208,394.913328 83.7960453,393.447849 84.6413283,392.631547 C85.3078943,391.981404 86.1560755,391.720574 87.0013585,391.720574 C87.8437434,391.720574 88.6909585,391.98237 89.3594566,392.631547 C90.2037736,393.447849 90.6278642,394.913328 90.6433208,396.38074 C90.6268981,397.848151 90.2037736,399.31846 89.3594566,400.13283 C88.6909585,400.782974 87.8437434,401.041872 87.0013585,401.041872 L87.0013585,401.041872 Z M100.689147,389.512211 L100.689147,389.512211 L100.689147,403.049298 L103.33126,403.049298 L103.33126,397.236649 L108.946838,397.236649 L108.946838,394.913328 L103.33126,394.913328 L103.33126,391.831668 L109.703245,391.831668 L109.703245,389.513177 L100.689147,389.513177 L100.689147,389.512211 Z M115.953509,389.512211 L115.953509,389.512211 L115.953509,391.830702 L119.843743,391.830702 L119.843743,403.048332 L122.484891,403.048332 L122.484891,391.830702 L126.236015,391.830702 L126.236015,389.512211 L115.953509,389.512211 L115.953509,389.512211 Z M132.258294,389.512211 L132.258294,389.512211 L135.850023,403.049298 L138.228408,403.049298 L140.342098,392.721389 L142.474143,403.049298 L144.84963,403.049298 L148.440392,389.512211 L145.642747,389.512211 L143.668166,399.778294 L141.747683,389.512211 L138.949072,389.512211 L137.029555,399.6672 L135.059804,389.512211 L132.258294,389.512211 L132.258294,389.512211 Z M161.237494,389.512211 L161.237494,389.512211 L158.192543,389.512211 L153.715925,403.049298 L156.41117,403.049298 L157.310551,400.333766 L162.064423,400.333766 L162.946415,403.049298 L165.64166,403.049298 L161.237494,389.512211 L161.237494,389.512211 Z M159.722747,392.76003 L159.722747,392.76003 L161.431668,398.013343 L158.140377,398.013343 L159.722747,392.76003 L159.722747,392.76003 Z M172.950702,403.049298 L172.950702,403.049298 L175.593781,403.049298 L175.593781,397.699381 L178.691864,397.699381 C179.607668,397.699381 180.241389,398.144725 180.276166,399.059562 C180.241389,400.042023 180.241389,401.116257 180.276166,401.784755 C180.311909,402.228166 180.418174,402.64163 180.62877,403.049298 L183.465057,403.049298 C183.182008,402.357615 182.971411,402.197253 182.971411,401.431185 C182.954989,400.745298 182.916347,398.961992 182.847758,398.403623 C182.707683,397.180619 181.861434,396.847336 181.421887,396.532408 C182.285525,395.993358 182.847758,395.564438 183.164619,394.394566 C183.483411,393.226626 183.217751,392.259623 183.039034,391.662611 C182.670974,390.199064 181.367789,389.562445 180.081992,389.511245 L172.949736,389.511245 L172.949736,403.049298 L172.950702,403.049298 Z M175.594747,391.830702 L175.594747,391.830702 L179.169087,391.830702 C180.346687,391.830702 180.770777,392.389072 180.770777,393.356075 C180.928242,394.690174 179.818264,395.377026 179.203864,395.377026 L175.594747,395.377026 L175.594747,391.830702 L175.594747,391.830702 Z M191.216543,389.512211 L191.216543,389.512211 L191.216543,403.049298 L200.814128,403.049298 L200.814128,400.726943 L193.857691,400.726943 L193.857691,397.237615 L200.004589,397.237615 L200.004589,394.914294 L193.857691,394.914294 L193.857691,391.832634 L200.513691,391.832634 L200.513691,389.514143 L191.216543,389.514143 L191.216543,389.512211 Z M218.970808,389.512211 L218.970808,389.512211 L218.970808,403.049298 L228.569358,403.049298 L228.569358,400.726943 L221.612921,400.726943 L221.612921,397.237615 L227.759819,397.237615 L227.759819,394.914294 L221.612921,394.914294 L221.612921,391.832634 L228.269887,391.832634 L228.269887,389.514143 L218.970808,389.514143 L218.970808,389.512211 Z M236.094792,389.512211 L236.094792,389.512211 L236.094792,403.049298 L238.734008,403.049298 L238.734008,393.613042 L243.934189,403.049298 L246.53766,403.049298 L246.53766,389.512211 L243.896513,389.512211 L243.896513,398.812257 L238.700196,389.512211 L236.094792,389.512211 L236.094792,389.512211 Z M260.557766,398.088694 L260.557766,398.088694 L263.482928,398.088694 C263.462642,398.462551 263.462642,399.092408 262.759366,399.966672 C262.003925,400.966521 260.732619,401.30077 259.834204,401.211894 C258.359064,401.040906 257.406551,399.892287 256.897449,398.774581 C256.193208,397.236649 256.276287,393.783064 257.901162,392.35043 C258.640181,391.831668 259.27197,391.591125 260.154928,391.591125 C261.527668,391.591125 262.830853,392.202626 263.283925,393.82074 L265.700951,393.82074 C265.646853,393.5232 265.700951,392.313721 264.239336,390.776755 C262.935185,389.416574 261.244619,389.288091 260.029343,389.288091 C258.921298,389.288091 258.110792,389.527668 257.583336,389.772075 C253.268045,391.758249 252.860377,398.682808 255.837706,401.749977 C256.436649,402.346989 257.250053,403.345872 259.571442,403.477253 C262.108257,403.624091 263.181525,402.229132 263.797857,401.41283 L264.115683,403.10243 L265.700951,403.10243 L265.700951,395.78566 L260.557766,395.78566 L260.557766,398.088694 L260.557766,398.088694 Z M276.202747,389.512211 L276.202747,389.512211 L273.558702,389.512211 L273.558702,403.049298 L276.202747,403.049298 L276.202747,389.512211 L276.202747,389.512211 Z M284.088513,389.512211 L284.088513,389.512211 L284.088513,403.049298 L286.728694,403.049298 L286.728694,393.613042 L291.925011,403.049298 L294.530415,403.049298 L294.530415,389.512211 L291.889268,389.512211 L291.889268,398.812257 L286.694883,389.512211 L284.088513,389.512211 L284.088513,389.512211 Z M302.564951,389.512211 L302.564951,389.512211 L302.564951,403.049298 L312.160604,403.049298 L312.160604,400.726943 L305.207064,400.726943 L305.207064,397.237615 L311.35203,397.237615 L311.35203,394.914294 L305.207064,394.914294 L305.207064,391.832634 L311.86403,391.832634 L311.86403,389.514143 L302.564951,389.514143 L302.564951,389.512211 Z M319.882143,389.512211 L319.882143,389.512211 L319.882143,403.049298 L329.479728,403.049298 L329.479728,400.726943 L322.524257,400.726943 L322.524257,397.237615 L328.670189,397.237615 L328.670189,394.914294 L322.524257,394.914294 L322.524257,391.832634 L329.177358,391.832634 L329.177358,389.514143 L319.882143,389.514143 L319.882143,389.512211 Z M337.21286,403.049298 L337.21286,403.049298 L339.854008,403.049298 L339.854008,397.699381 L342.954989,397.699381 C343.86886,397.699381 344.505479,398.144725 344.539291,399.059562 C344.506445,400.042023 344.506445,401.116257 344.539291,401.784755 C344.574068,402.228166 344.679366,402.64163 344.891894,403.049298 L347.728181,403.049298 C347.447064,402.357615 347.23357,402.197253 347.23357,401.431185 C347.214249,400.745298 347.180438,398.961992 347.113781,398.403623 C346.971774,397.180619 346.124558,396.847336 345.685977,396.532408 C346.548649,395.993358 347.113781,395.564438 347.427743,394.394566 C347.742672,393.226626 347.480875,392.259623 347.304091,391.662611 C346.934098,390.199064 345.629947,389.562445 344.348981,389.511245 L337.211894,389.511245 L337.211894,403.049298 L337.21286,403.049298 Z M339.854974,391.830702 L339.854974,391.830702 L343.430279,391.830702 C344.611743,391.830702 345.034868,392.389072 345.034868,393.356075 C345.191366,394.690174 344.080423,395.377026 343.466023,395.377026 L339.854974,395.377026 L339.854974,391.830702 L339.854974,391.830702 Z M357.837766,389.512211 L357.837766,389.512211 L355.197585,389.512211 L355.197585,403.049298 L357.837766,403.049298 L357.837766,389.512211 L357.837766,389.512211 Z M365.72643,389.512211 L365.72643,389.512211 L365.72643,403.049298 L368.366611,403.049298 L368.366611,393.613042 L373.560996,403.049298 L376.165434,403.049298 L376.165434,389.512211 L373.524287,389.512211 L373.524287,398.812257 L368.333766,389.512211 L365.72643,389.512211 L365.72643,389.512211 Z M390.186506,398.088694 L390.186506,398.088694 L393.110702,398.088694 C393.092347,398.462551 393.092347,399.092408 392.389072,399.966672 C391.6288,400.966521 390.365223,401.30077 389.467774,401.211894 C387.98877,401.040906 387.033358,399.892287 386.528121,398.774581 C385.820981,397.236649 385.908891,393.783064 387.527004,392.35043 C388.269887,391.831668 388.90554,391.591125 389.782702,391.591125 C391.156408,391.591125 392.463457,392.202626 392.917494,393.82074 L395.329691,393.82074 C395.277525,393.5232 395.329691,392.313721 393.869042,390.776755 C392.564891,389.416574 390.875291,389.288091 389.659049,389.288091 C388.551004,389.288091 387.740498,389.527668 387.212075,389.772075 C382.897751,391.758249 382.492981,398.682808 385.470309,401.749977 C386.069253,402.346989 386.875894,403.345872 389.202113,403.477253 C391.737962,403.624091 392.81123,402.229132 393.427562,401.41283 L393.745389,403.10243 L395.329691,403.10243 L395.329691,395.78566 L390.186506,395.78566 L390.186506,398.088694 L390.186506,398.088694 Z" fill="#00AE4D"></path>
                    <path d="M320.434717,164.039004 L320.434717,99.072 L240.924015,99.072 L112.613917,316.208302 L63.2629132,316.208302 L216.249479,65.6190792 L351.681208,65.6190792 L351.681208,171.307472 C342.130958,167.101343 331.572166,164.549072 320.434717,164.039004 M279.296966,172.055185 L279.296966,172.055185 L279.296966,140.191396 L172.927517,316.207336 L124.671034,316.207336 L248.048543,107.844589 L311.655366,107.844589 L311.655366,164.066053 C300.069675,164.665962 289.123502,167.4752 279.296966,172.055185" fill="#17479E"></path>
                    <path d="M308.624906,316.98403 C288.885857,315.231638 271.260498,306.741132 258.46726,294.023245 C264.448,289.072302 271.408302,284.889358 279.098928,281.670521 C286.037011,295.480996 296.39197,307.766098 308.624906,316.98403 L308.624906,316.98403 Z M313.869525,317.290264 L313.869525,317.290264 C300.219411,307.881057 289.16794,295.030823 281.96323,280.526732 C291.692196,276.845162 302.483804,274.674475 313.869525,274.402053 L313.869525,317.290264 L313.869525,317.290264 Z M318.332619,317.29606 L318.332619,317.29606 L317.708558,274.386596 C329.15997,274.540196 340.033691,276.615245 349.84477,280.224362 C342.642958,294.866596 331.514204,307.840483 318.332619,317.29606 L318.332619,317.29606 Z M374.100045,293.987502 L374.100045,293.987502 C361.092347,306.930475 343.089268,315.506958 322.933857,317.064211 C335.304936,307.766098 345.770989,295.330294 352.733223,281.341102 C360.714626,284.597615 367.925132,288.882958 374.100045,293.987502 L374.100045,293.987502 Z M395.258204,245.694309 L395.258204,245.694309 C394.850536,263.138053 387.868015,279.083472 376.507411,291.47677 C370.095819,286.155834 362.550098,281.685977 354.177449,278.301947 C358.856936,267.986596 361.63043,256.91194 361.883532,245.694309 L395.258204,245.694309 L395.258204,245.694309 Z M376.650385,196.856272 L376.650385,196.856272 C387.851592,209.151034 394.767457,224.907109 395.248543,242.150883 L361.87677,242.150883 C361.58406,231.227894 358.745842,220.389917 353.993902,210.219472 C362.499864,206.805494 370.160543,202.268981 376.650385,196.856272 L376.650385,196.856272 Z M321.94077,171.043743 L321.94077,171.043743 C342.562777,172.40006 360.997675,181.091502 374.222732,194.316558 C367.967638,199.518672 360.632513,203.886128 352.50717,207.176453 C345.338204,193.162143 334.568815,180.57757 321.94077,171.043743 L321.94077,171.043743 Z M313.869525,271.147472 L313.869525,271.147472 C301.951517,271.41603 290.664332,273.655306 280.51997,277.470189 C275.968966,267.402143 273.275653,256.621162 273.027381,245.694309 L313.869525,245.694309 L313.869525,271.147472 L313.869525,271.147472 Z M358.636679,245.694309 L358.636679,245.694309 C358.39034,256.514898 355.745328,267.202174 351.275472,277.18714 C341.045132,273.443743 329.685494,271.292377 317.709525,271.133947 L317.709525,245.694309 L358.636679,245.694309 L358.636679,245.694309 Z M313.869525,242.150883 L313.869525,242.150883 L273.029313,242.150883 C273.325887,231.51674 276.079094,220.965675 280.690958,211.043502 C290.793781,214.820709 302.020106,217.035834 313.870491,217.301494 L313.870491,242.150883 L313.869525,242.150883 Z M351.104483,211.325585 L351.104483,211.325585 C355.636166,221.162747 358.341072,231.61914 358.633781,242.150883 L317.709525,242.150883 L317.709525,217.322747 C329.623668,217.164317 340.920513,215.03034 351.104483,211.325585 L351.104483,211.325585 Z M313.869525,214.047879 L313.869525,214.047879 C302.559155,213.783185 291.839034,211.653072 282.164166,208.018838 C289.496392,193.627774 300.70726,180.738898 313.869525,171.12006 L313.869525,214.047879 L313.869525,214.047879 Z M317.709525,171.056302 L317.709525,171.056302 C330.983849,180.738898 342.288423,193.756257 349.637072,208.285464 C339.879125,211.850143 329.081721,213.90394 317.709525,214.065268 L317.709525,171.056302 L317.709525,171.056302 Z M269.780528,245.694309 L269.780528,245.694309 C270.034596,257.026898 272.863155,268.205887 277.628619,278.611079 C269.552543,281.961298 262.262823,286.321992 256.033811,291.494158 C244.666445,279.09603 237.676196,263.144815 237.268528,245.694309 L269.780528,245.694309 L269.780528,245.694309 Z M258.296272,194.323321 L258.296272,194.323321 C271.319426,181.297268 289.393992,172.669585 309.635381,171.1104 C297.131955,180.573706 286.45434,193.024 279.306626,206.890506 C271.461434,203.635925 264.372649,199.374732 258.296272,194.323321 L258.296272,194.323321 Z M237.277223,242.150883 L237.277223,242.150883 C237.765072,224.901313 244.682868,209.138475 255.891804,196.844679 C262.196166,202.099925 269.600845,206.532106 277.81603,209.918068 C272.981011,220.171592 270.085796,231.118732 269.787291,242.150883 L237.277223,242.150883 L237.277223,242.150883 Z" fill="#00AE4D"></path>
                    <path d="M82.7961962,341.975426 L82.7961962,341.975426 L80.2873962,356.786717 L85.5851472,356.786717 L82.7961962,341.975426 L82.7961962,341.975426 Z M362.571351,352.082113 L362.571351,352.082113 L350.854279,352.082113 L350.854279,327.822974 L395.764408,327.822974 L395.764408,352.257932 L384.514898,352.257932 L384.514898,343.460226 C384.514898,343.460226 385.168906,339.626989 381.44966,339.626989 L381.44966,367.941555 C381.44966,367.941555 381.44966,370.642596 383.496694,371.514928 L383.496694,380.749283 L363.687125,380.749283 L363.687125,371.687849 C363.687125,371.687849 365.362234,371.339109 365.362234,367.937691 L365.362234,339.368091 C365.362234,339.368091 362.569419,338.755623 362.569419,343.285374 L362.569419,352.082113 L362.571351,352.082113 Z M311.617691,380.748317 L311.617691,380.748317 L311.617691,371.686883 C311.617691,371.686883 313.575849,370.550823 313.486008,368.370475 L313.486008,341.019049 C313.486008,341.019049 313.384574,337.963472 311.617691,337.439879 L311.617691,327.822008 L348.810143,327.822008 L348.810143,346.248211 L335.144574,346.248211 C335.144574,346.248211 335.284649,342.567608 334.491532,341.019049 C333.374792,338.838702 329.560875,339.795079 329.560875,339.795079 L329.560875,349.381072 L339.697509,349.381072 L339.697509,359.662611 L329.748287,359.662611 L329.748287,368.201419 C329.748287,368.201419 329.843925,370.289992 330.962596,371.24637 L330.962596,380.747351 L311.617691,380.747351 L311.617691,380.748317 Z M284.87197,327.395985 L284.87197,327.395985 L289.820015,327.395985 C299.132619,327.395985 306.688,334.469313 306.688,343.201328 L306.688,366.379472 C306.688,375.104725 299.132619,382.185781 289.820015,382.185781 L284.87197,382.185781 C275.554536,382.185781 268.003985,375.104725 268.003985,366.379472 L268.003985,343.201328 C268.003985,334.470279 275.554536,327.395985 284.87197,327.395985 L284.87197,327.395985 Z M286.514234,338.584634 L286.514234,338.584634 C284.755079,338.584634 283.911728,342.716377 283.911728,347.817057 L283.911728,361.357042 C283.911728,366.459653 284.566702,370.586566 286.328755,370.586566 L288.747713,370.586566 C290.5088,370.586566 291.229464,366.460619 291.229464,361.357042 L291.229464,347.817057 C291.229464,342.717343 290.324287,338.584634 288.561268,338.584634 L286.514234,338.584634 L286.514234,338.584634 Z M225.334098,362.364619 L225.334098,362.364619 L225.334098,376.391487 C225.334098,376.391487 229.796226,382.142309 244.488694,381.969389 C259.176332,381.79357 263.547653,373.079909 263.82877,366.459653 C264.109887,359.839396 262.618325,352.082113 255.089026,349.908528 C247.559728,347.729147 240.673811,346.160302 240.673811,342.673872 C240.673811,339.187442 242.623275,338.354717 244.953358,338.663849 C248.206974,339.100498 247.186838,344.852287 247.186838,344.852287 L262.061887,344.852287 L262.061887,332.917857 C262.061887,332.917857 254.154868,325.491925 238.259683,327.822974 C223.382702,329.998491 224.031879,340.147683 224.312996,346.160302 C224.592181,352.173887 228.680453,357.048513 236.493766,358.7072 C244.301283,360.360091 247.835049,361.58406 247.462158,366.285766 C247.090234,370.99037 243.980558,370.777842 242.815517,370.465811 C240.863155,369.946083 240.672845,368.377238 240.863155,365.761208 C241.048634,363.145177 240.954928,362.279608 240.954928,362.279608 L225.334098,362.364619 L225.334098,362.364619 Z M178.190491,380.748317 L178.190491,380.748317 L178.190491,371.598974 C178.190491,371.598974 179.861736,370.811653 179.770928,368.287396 L179.770928,340.935004 C179.770928,340.935004 179.867532,338.318974 178.381766,337.531653 L178.381766,327.822974 L195.395623,327.822974 L204.601962,351.650294 L204.601962,341.890415 C204.601962,341.890415 204.786475,338.577872 203.11523,337.530687 L203.11523,327.822008 L219.385238,327.822008 L219.385238,337.357766 C219.385238,337.357766 217.525615,339.536181 217.525615,341.799608 L217.525615,380.747351 L202.181072,380.747351 L192.41926,357.398219 L192.41926,367.153268 C192.41926,367.153268 192.144906,369.855275 193.446158,371.337177 L193.446158,380.747351 L178.190491,380.747351 L178.190491,380.748317 Z M153.554596,380.748317 L153.554596,380.748317 L153.554596,371.598974 C153.554596,371.598974 155.691472,370.033026 155.691472,368.204317 L155.691472,341.278913 C155.691472,341.278913 155.787109,338.577872 153.742008,337.62246 L153.742008,327.822008 L173.266596,327.822008 L173.266596,337.62246 C173.266596,337.62246 171.314234,338.577872 171.314234,341.625721 L171.314234,367.940589 C171.314234,367.940589 171.307472,370.814551 172.980649,371.771894 L172.980649,380.748317 L153.554596,380.748317 L153.554596,380.748317 Z M108.182702,380.748317 L108.182702,380.748317 L108.182702,371.774792 C108.182702,371.774792 109.946687,370.726642 109.946687,368.202385 L109.946687,341.715562 C109.946687,341.715562 110.226838,338.409781 108.458023,337.365494 L108.458023,327.822974 L127.613585,327.822974 L127.613585,337.706506 C127.613585,337.706506 126.223457,339.274385 126.123955,341.194868 C126.035079,343.107623 126.123955,348.423728 126.123955,348.423728 L132.542309,337.96637 L132.542309,327.822008 L149.559064,327.822008 L149.559064,337.62246 C149.559064,337.62246 146.769147,339.623125 145.648543,341.625721 C144.535668,343.631215 139.607909,352.082113 139.607909,352.082113 L147.232845,367.42086 C147.232845,367.42086 148.624906,370.290958 150.391789,371.429917 L150.391789,380.748317 L132.82246,380.748317 L132.82246,371.946747 L126.223457,358.791245 L126.223457,368.202385 C126.223457,368.202385 126.502642,370.382732 127.523743,371.514928 L127.523743,380.749283 L108.182702,380.749283 L108.182702,380.748317 Z M63.1759698,380.748317 L63.1759698,380.748317 L63.1759698,371.429917 C63.1759698,371.429917 64.666566,370.289992 65.0365585,369.16166 C65.408483,368.028498 72.8479396,327.822008 72.8479396,327.822008 L95.0716377,327.822008 L102.881087,368.201419 C102.881087,368.201419 103.530264,370.465811 105.019894,371.429917 L105.019894,380.748317 L85.2141887,380.748317 L85.2141887,371.859804 C85.2141887,371.859804 87.167517,370.64163 87.167517,369.422491 C87.167517,368.203351 86.9810717,366.89437 86.9810717,366.89437 L79.2633962,366.89437 C79.2633962,366.89437 78.5185811,368.466113 79.0769509,369.772196 C79.6372528,371.079245 80.9375396,371.775758 80.9375396,371.775758 L80.9375396,380.749283 L63.1759698,380.749283 L63.1759698,380.748317 Z M406.636196,339.203864 L406.636196,339.203864 C410.341917,339.203864 413.380106,336.361781 413.380106,332.865691 C413.380106,329.389887 410.340951,326.544906 406.636196,326.544906 C402.890868,326.544906 399.871034,329.389887 399.871034,332.865691 C399.871034,336.361781 402.890868,339.203864 406.636196,339.203864 L406.636196,339.203864 Z M406.636196,338.01274 L406.636196,338.01274 C403.581585,338.01274 401.143306,335.727094 401.143306,332.865691 C401.143306,330.020709 403.580619,327.73603 406.636196,327.73603 C409.671487,327.73603 412.107834,330.019743 412.107834,332.865691 C412.107834,335.727094 409.670521,338.01274 406.636196,338.01274 L406.636196,338.01274 Z M408.22243,333.429857 L408.22243,333.429857 C409.511125,333.345811 410.201842,332.831879 410.201842,331.576996 C410.201842,330.86406 410.005736,330.202325 409.351728,329.807215 C408.805917,329.506777 407.992513,329.490355 407.374249,329.490355 L403.843381,329.490355 L403.843381,336.306717 L405.275049,336.306717 L405.275049,333.429857 L406.703819,333.429857 L408.330626,336.306717 L409.990279,336.306717 L408.22243,333.429857 L408.22243,333.429857 Z M405.275049,332.403925 L405.275049,330.467019 L407.042898,330.467019 C407.74714,330.467019 408.789494,330.467019 408.789494,331.377992 C408.789494,332.2368 408.22243,332.421313 407.409026,332.403925 L405.275049,332.403925 L405.275049,332.403925 Z" fill="#17479E"></path>
                    <path d="M246.326098,0.93029434 C110.791004,0.93029434 0.916769811,110.803562 0.916769811,246.339623 C0.916769811,248.927638 0.970867925,251.502128 1.05008302,254.070823 C1.26067925,123.655728 107.042777,17.9982491 237.508106,17.9982491 C368.102883,17.9982491 473.969992,123.865358 473.969992,254.460136 C473.969992,385.053947 368.101917,490.921057 237.508106,490.921057 C230.981555,490.921057 224.52166,490.64477 218.127457,490.126008 C227.383064,491.185751 236.787442,491.748951 246.326098,491.748951 C381.862158,491.748951 491.736392,381.874717 491.736392,246.339623 C491.736392,110.803562 381.862158,0.93029434 246.326098,0.93029434 L246.326098,0.93029434 Z" fill="#17479E"></path>
                </g>
            </g>
        </g>
    </g>
</svg>