<?xml version="1.0" encoding="UTF-8" standalone="no"?>
<svg width="1403px" height="509px" viewBox="0 0 1403 509" version="1.1" xmlns="http://www.w3.org/2000/svg" xmlns:xlink="http://www.w3.org/1999/xlink">
    <!-- Generator: Sketch 3.6.1 (26313) - http://www.bohemiancoding.com/sketch -->
    <title>alka superliga (2)</title>
    <desc>Created with Sketch.</desc>
    <defs></defs>
    <g id="Page-1" stroke="none" stroke-width="1" fill="none" fill-rule="evenodd">
        <g id="alka-superliga-(2)">
            <path d="M417.062575,194.026959 C416.052603,192.736438 416.375233,191.039123 417.28,190.113315 C418.142685,189.222575 495.791342,108.270466 495.791342,108.270466 C496.668055,107.372712 497.895452,106.811616 499.249096,106.811616 L558.767342,106.804603 C560.394521,106.804603 561.130959,108.719342 560.043836,109.855562 C559.096986,110.837479 484.148603,189.047233 483.285918,189.937973 C482.409205,190.835726 482.135671,192.540055 483.166685,193.809534 C484.359014,195.26137 559.132055,288.873205 560.120986,290.107616 C561.081863,291.299945 560.26126,293.046356 558.753315,293.046356 C557.43474,293.046356 499.277151,293.05337 499.277151,293.05337 C497.727123,293.05337 496.436603,292.387068 495.461699,291.166685 C494.472767,289.967342 417.763945,194.917699 417.062575,194.026959" id="Shape" fill="#4B4C50"></path>
            <path d="M284.328329,290.044493 C284.328329,291.720767 285.653918,293.05337 287.358247,293.05337 L329.40537,293.05337 C331.039562,293.05337 332.393205,291.720767 332.393205,290.065534 L332.393205,25.7122192 C332.393205,24.1060822 331.088658,22.6963288 329.40537,22.6963288 L287.337205,22.6963288 C285.731068,22.6963288 284.328329,24.0780274 284.328329,25.6771507 L284.328329,290.044493 L284.328329,290.044493 Z" id="Shape" fill="#4B4C50"></path>
            <path d="M422.477151,266.022575 C422.477151,282.616986 409.03189,296.055233 392.444493,296.055233 C375.857096,296.055233 362.404822,282.609973 362.404822,266.022575 C362.404822,249.435178 375.857096,235.989918 392.444493,235.989918 C409.038904,235.989918 422.477151,249.435178 422.477151,266.022575" id="Shape" fill="#EC6806"></path>
            <path d="M413.63989,122.445151 C413.63989,122.445151 421.719671,67.6471233 422.477151,49.7762192 L422.477151,49.6710137 C422.442082,33.1256986 409.017863,19.6944658 392.430466,19.6944658 C375.86411,19.6944658 362.43989,33.1256986 362.411836,49.6710137 L362.411836,49.7762192 C363.127233,68.3555068 371.473534,123.020274 371.473534,123.020274 L386.209315,212.690411 C386.728329,215.902685 389.582904,217.971726 392.444493,217.971726 C395.158795,217.971726 398.083507,216.021918 398.672658,212.725479 L413.63989,122.445151 L413.63989,122.445151 Z" id="Shape" fill="#4B4C50"></path>
            <path d="M188.28274,106.825644 L107.281534,106.825644 C105.563178,106.825644 104.237589,108.214356 104.237589,109.799452 L104.237589,139.881205 C104.237589,141.571507 105.647342,142.883068 107.246466,142.883068 L182.84011,142.883068 C194.524932,142.883068 206.336,153.052932 206.336,166.231671 C206.336,167.858849 206.350027,172.887671 206.350027,175.910575 C206.350027,177.411507 205.031452,178.940493 203.369205,178.940493 L170.033096,178.912438 C143.703671,178.912438 125.103342,182.65074 109.827507,189.678466 C91.9075068,197.926575 80.2577534,215.636164 80.2577534,236.010959 C80.2577534,253.138411 88.1201096,266.275068 99.2999452,275.799671 C119.786959,293.249753 164.197699,300.508932 251.904,293.011288 C253.033205,292.92011 254.358795,291.797918 254.358795,290.058521 L254.365808,172.852603 C254.358795,138.506521 227.180712,106.825644 188.28274,106.825644 L188.28274,106.825644 Z M206.343014,259.569973 C206.343014,261.12 205.136658,262.122959 204.084603,262.242192 C198.221151,262.901479 159.351233,265.02663 144.811836,257.571068 C135.203068,252.647452 131.26137,242.407452 131.26137,235.996932 C131.26137,228.148603 135.827288,220.307288 143.857973,216.597041 C150.39474,213.588164 158.334247,211.953973 170.299616,211.953973 L203.369205,211.946959 C204.968329,211.946959 206.350027,213.265534 206.350027,214.941808 L206.343014,259.569973 L206.343014,259.569973 Z" id="Shape" fill="#4B4C50"></path>
            <path d="M674.556493,106.825644 L593.548274,106.825644 C591.829918,106.825644 590.504329,108.214356 590.504329,109.799452 L590.504329,139.881205 C590.504329,141.571507 591.921096,142.883068 593.520219,142.883068 L669.106849,142.883068 C680.791671,142.883068 692.60274,153.052932 692.60274,166.231671 C692.60274,167.858849 692.623781,172.887671 692.623781,175.910575 C692.623781,177.411507 691.305205,178.940493 689.642959,178.940493 L656.306849,178.912438 C629.984438,178.912438 611.377096,182.65074 596.108274,189.678466 C578.174247,197.926575 566.531507,215.636164 566.531507,236.010959 C566.531507,253.138411 574.400877,266.275068 585.566685,275.799671 C606.060712,293.249753 650.471452,300.508932 738.17074,293.011288 C739.306959,292.92011 740.632548,291.797918 740.632548,290.058521 L740.639562,172.852603 C740.632548,138.506521 713.447452,106.825644 674.556493,106.825644 L674.556493,106.825644 Z M692.609753,259.569973 C692.609753,261.12 691.403397,262.122959 690.351342,262.242192 C684.48789,262.901479 645.632,265.02663 631.085589,257.571068 C621.476822,252.647452 617.535123,242.407452 617.535123,235.996932 C617.535123,228.148603 622.101041,220.307288 630.131726,216.597041 C636.661479,213.588164 644.600986,211.953973 656.566356,211.953973 L689.635945,211.946959 C691.242082,211.946959 692.623781,213.265534 692.623781,214.941808 L692.609753,259.569973 L692.609753,259.569973 Z" id="Shape" fill="#4B4C50"></path>
            <path d="M39.8307945,422.287781 C24.9898082,419.215781 11.9513425,416.676822 11.9513425,404.185425 C11.9513425,393.321205 21.7354521,389.519781 38.3859726,389.519781 C51.9644932,389.519781 67.3525479,391.86937 67.3525479,391.86937 L68.7973699,382.464 C68.7973699,382.464 56.1236164,379.567342 39.1083836,379.567342 C14.4832877,379.574356 0,386.265425 0,404.914849 C0,426.096219 18.4670685,429.357589 38.3859726,433.509699 C53.0516164,436.588712 63.1793973,438.762959 63.1793973,451.26137 C63.1793973,463.205699 54.6787945,467.007123 36.7517808,467.007123 C21.3707397,467.007123 3.43671233,463.92811 3.43671233,463.92811 L2.17424658,474.076932 C2.17424658,474.076932 19.1894795,476.973589 34.9352329,476.973589 C65.3466301,476.973589 75.2990685,467.196493 75.2990685,449.634192 C75.3060822,429.539945 61.7345753,426.81863 39.8307945,422.287781 L39.8307945,422.287781 Z M285.836274,476.054795 L352.284055,476.054795 L352.284055,466.095342 L297.969973,466.095342 L297.969973,431.889534 L348.475616,431.889534 L348.475616,422.287781 L297.969973,422.287781 L297.969973,390.606904 L351.189918,390.606904 L351.189918,380.668493 L285.836274,380.668493 L285.836274,476.054795 L285.836274,476.054795 Z M496.555836,380.661479 L474.476712,380.661479 L474.476712,476.054795 L552.321753,476.054795 L552.321753,456.865315 L496.555836,456.865315 L496.555836,380.661479 L496.555836,380.661479 Z M568.418192,476.054795 L590.693699,476.054795 L590.693699,380.661479 L568.418192,380.661479 L568.418192,476.054795 L568.418192,476.054795 Z M159.302137,380.661479 L159.302137,436.946411 C159.302137,457.047671 150.436822,467.357808 131.605041,467.357808 C114.589808,467.357808 103.360877,458.850192 103.360877,437.500493 L103.360877,380.661479 L91.2341918,380.661479 L91.2341918,439.48537 C91.2341918,462.848 104.090301,476.966575 131.057973,476.966575 C164.73074,476.966575 171.428822,455.413479 171.428822,435.508603 L171.428822,380.661479 L159.302137,380.661479 L159.302137,380.661479 Z M445.510137,407.453808 C445.510137,390.438575 434.645918,380.668493 407.664219,380.668493 L370.561753,380.668493 L370.561753,476.061808 L382.688438,476.061808 L382.688438,390.431562 L406.037041,390.431562 C428.123178,390.431562 432.82937,398.027397 432.82937,408.891616 C432.82937,420.113534 427.765479,427.000986 411.472658,427.000986 L398.98126,427.000986 L435.368329,476.061808 L450.574027,476.061808 L417.623671,434.786192 C436.995507,433.159014 445.510137,422.287781 445.510137,407.453808 L445.510137,407.453808 Z M192.799562,380.661479 L192.799562,476.054795 L204.736877,476.054795 L204.736877,390.431562 L233.345753,390.431562 C249.820932,390.431562 257.423781,396.589589 257.423781,412.16 C257.423781,425.184438 252.542247,432.787288 231.171507,432.787288 C224.298082,432.787288 209.632438,431.889534 209.632438,431.889534 L217.41063,441.66663 C217.41063,441.66663 226.465315,442.389041 232.805699,442.389041 C260.320438,442.389041 269.915178,428.803507 269.915178,410.890521 C269.915178,391.153973 258.868603,380.661479 236.424767,380.661479 L192.799562,380.661479 L192.799562,380.661479 Z M628.518575,428.445808 C628.518575,408.716274 642.644164,399.296877 665.999781,399.296877 C681.92789,399.296877 698.038356,403.280658 698.038356,403.280658 L700.570301,384.280548 C700.570301,384.280548 687.167123,379.749699 665.452712,379.749699 C631.597589,379.749699 606.07474,395.495452 606.07474,430.08 C606.07474,457.777096 623.447671,476.608877 651.327123,476.608877 C658.207562,476.608877 664.723288,475.528767 664.723288,475.528767 L679.388932,453.786301 C679.388932,453.786301 667.072877,457.237041 657.849863,457.237041 C643.541918,457.230027 628.518575,448.911781 628.518575,428.445808 L628.518575,428.445808 Z M828.752658,476.054795 L785.835836,380.289753 L759.955288,380.289753 L718.321973,476.054795 L742.028274,476.054795 L748.908712,459.768986 L795.612932,459.768986 L802.851068,476.054795 L828.752658,476.054795 L828.752658,476.054795 Z M755.782137,442.753753 L772.081973,400.391014 L788.921863,442.753753 L755.782137,442.753753 L755.782137,442.753753 Z M658.221589,422.112438 L658.221589,440.572493 L684.649205,440.572493 L684.649205,476.061808 L706.735342,476.061808 L706.735342,422.119452 L658.221589,422.119452 L658.221589,422.112438 Z" id="Shape" fill="#4B4C50"></path>
            <path d="M1402.73973,254.211507 C1402.73973,394.611726 1288.92142,508.430027 1148.52822,508.430027 C1008.13501,508.430027 894.316712,394.611726 894.316712,254.211507 C894.316712,113.811288 1008.128,0 1148.52822,0 C1288.92844,0 1402.73973,113.818301 1402.73973,254.211507" id="Shape" fill="#EC6806"></path>
            <path d="M1027.54192,383.16537 L1145.13359,329.131836 L1015.28197,157.646904 L1281.77447,336.496219 L1027.54192,383.16537 Z" id="Shape" fill="#FFFFFF"></path>
            <path d="M1166.99529,109.897644 L1145.13359,197.274301 L1100.71584,138.611726 L1166.99529,109.897644 Z" id="Shape" fill="#FFFFFF"></path>
        </g>
    </g>
</svg>