<?xml version="1.0" encoding="utf-8"?>
<!DOCTYPE svg PUBLIC "-//W3C//DTD SVG 1.1//EN" "http://www.w3.org/Graphics/SVG/1.1/DTD/svg11.dtd">
<svg version="1.1" xmlns="http://www.w3.org/2000/svg" xmlns:xlink="http://www.w3.org/1999/xlink" x="0px" y="0px"
	 width="200px" height="73px" viewBox="0 0 200 73" enable-background="new 0 0 200 73" xml:space="preserve">
<g>
	<clipPath>
		<use xlink:href="#SVGID_1_"  overflow="visible"/>
	</clipPath>
	<path clip-path="url(#SVGID_2_)" fill="#4b4c50" d="M59.464,27.664c-0.144-0.184-0.098-0.426,0.031-0.558
		c0.123-0.127,11.194-11.669,11.194-11.669c0.125-0.128,0.3-0.208,0.493-0.208l8.486-0.001c0.232,0,0.337,0.273,0.182,0.435
		c-0.135,0.14-10.821,11.291-10.944,11.418c-0.125,0.128-0.164,0.371-0.017,0.552c0.17,0.207,10.831,13.554,10.972,13.73
		c0.137,0.17,0.02,0.419-0.195,0.419c-0.188,0-8.48,0.001-8.48,0.001c-0.221,0-0.405-0.095-0.544-0.269
		C70.501,41.343,59.564,27.791,59.464,27.664"/>
	<path clip-path="url(#SVGID_2_)" fill="#4b4c50" d="M40.539,41.354c0,0.239,0.189,0.429,0.432,0.429h5.995
		c0.233,0,0.426-0.19,0.426-0.426V3.666c0-0.229-0.186-0.43-0.426-0.43h-5.998c-0.229,0-0.429,0.197-0.429,0.425V41.354z"/>
	<path clip-path="url(#SVGID_2_)" fill="#ec6806" d="M60.236,37.929c0,2.366-1.917,4.282-4.282,4.282
		c-2.365,0-4.283-1.917-4.283-4.282c0-2.365,1.918-4.282,4.283-4.282C58.32,33.647,60.236,35.564,60.236,37.929"/>
	<path clip-path="url(#SVGID_2_)" fill="#4b4c50" d="M58.976,17.458c0,0,1.152-7.813,1.26-10.361V7.082
		c-0.005-2.359-1.919-4.274-4.284-4.274c-2.362,0-4.276,1.915-4.28,4.274v0.015c0.102,2.649,1.292,10.443,1.292,10.443l2.101,12.785
		c0.074,0.458,0.481,0.753,0.889,0.753c0.387,0,0.804-0.278,0.888-0.748L58.976,17.458z"/>
	<path clip-path="url(#SVGID_2_)" fill="#4b4c50" d="M26.845,15.231H15.296c-0.245,0-0.434,0.198-0.434,0.424v4.289
		c0,0.241,0.201,0.428,0.429,0.428h10.778c1.666,0,3.35,1.45,3.35,3.329c0,0.232,0.002,0.949,0.002,1.38
		c0,0.214-0.188,0.432-0.425,0.432l-4.753-0.004c-3.754,0-6.406,0.533-8.584,1.535c-2.555,1.176-4.216,3.701-4.216,6.606
		c0,2.442,1.121,4.315,2.715,5.673c2.921,2.488,9.253,3.523,21.758,2.454c0.161-0.013,0.35-0.173,0.35-0.421l0.001-16.711
		C36.266,19.748,32.391,15.231,26.845,15.231 M29.42,37.009c0,0.221-0.172,0.364-0.322,0.381c-0.836,0.094-6.378,0.397-8.451-0.666
		c-1.37-0.702-1.932-2.162-1.932-3.076c0-1.119,0.651-2.237,1.796-2.766c0.932-0.429,2.064-0.662,3.77-0.662l4.715-0.001
		c0.228,0,0.425,0.188,0.425,0.427L29.42,37.009z"/>
	<path clip-path="url(#SVGID_2_)" fill="#4b4c50" d="M96.177,15.231h-11.55c-0.245,0-0.434,0.198-0.434,0.424v4.289
		c0,0.241,0.202,0.428,0.43,0.428H95.4c1.666,0,3.35,1.45,3.35,3.329c0,0.232,0.003,0.949,0.003,1.38
		c0,0.214-0.188,0.432-0.425,0.432l-4.753-0.004c-3.753,0-6.406,0.533-8.583,1.535c-2.557,1.176-4.217,3.701-4.217,6.606
		c0,2.442,1.122,4.315,2.714,5.673c2.922,2.488,9.254,3.523,21.758,2.454c0.162-0.013,0.351-0.173,0.351-0.421l0.001-16.711
		C105.598,19.748,101.722,15.231,96.177,15.231 M98.751,37.009c0,0.221-0.172,0.364-0.322,0.381
		c-0.836,0.094-6.376,0.397-8.45-0.666c-1.37-0.702-1.932-2.162-1.932-3.076c0-1.119,0.651-2.237,1.796-2.766
		c0.931-0.429,2.063-0.662,3.769-0.662l4.715-0.001c0.229,0,0.426,0.188,0.426,0.427L98.751,37.009z"/>
	<path clip-path="url(#SVGID_2_)" fill="#4b4c50" d="M5.679,60.209c-2.116-0.438-3.975-0.8-3.975-2.581
		c0-1.549,1.395-2.091,3.769-2.091c1.936,0,4.13,0.335,4.13,0.335l0.206-1.341c0,0-1.807-0.413-4.233-0.413
		C2.065,54.119,0,55.073,0,57.732c0,3.02,2.633,3.485,5.473,4.077c2.091,0.439,3.535,0.749,3.535,2.531
		c0,1.703-1.212,2.245-3.768,2.245c-2.193,0-4.75-0.439-4.75-0.439l-0.18,1.447c0,0,2.426,0.413,4.671,0.413
		c4.336,0,5.755-1.394,5.755-3.898C10.737,61.243,8.802,60.855,5.679,60.209 M40.754,67.875h9.474v-1.42h-7.744v-4.877h7.201v-1.369
		h-7.201v-4.517h7.588v-1.417h-9.318V67.875z M70.798,54.274h-3.148v13.601h11.099v-2.736h-7.951V54.274z M81.044,67.875h3.176
		V54.274h-3.176V67.875z M22.713,54.274v8.025c0,2.866-1.264,4.336-3.949,4.336c-2.426,0-4.027-1.213-4.027-4.257v-8.104h-1.729
		v8.387c0,3.331,1.833,5.344,5.678,5.344c4.801,0,5.756-3.073,5.756-5.911v-7.82H22.713z M63.52,58.094
		c0-2.426-1.549-3.819-5.396-3.819h-5.29v13.601h1.729V55.667h3.329c3.149,0,3.82,1.083,3.82,2.632c0,1.6-0.722,2.582-3.045,2.582
		h-1.781l5.188,6.995h2.168l-4.698-5.885C62.306,61.759,63.52,60.209,63.52,58.094 M27.489,54.274v13.601h1.702V55.667h4.079
		c2.349,0,3.433,0.878,3.433,3.098c0,1.857-0.696,2.941-3.743,2.941c-0.98,0-3.071-0.128-3.071-0.128l1.109,1.394
		c0,0,1.291,0.103,2.195,0.103c3.923,0,5.291-1.937,5.291-4.491c0-2.814-1.575-4.31-4.775-4.31H27.489z M89.613,61.087
		c0-2.813,2.014-4.156,5.344-4.156c2.271,0,4.568,0.568,4.568,0.568l0.361-2.709c0,0-1.911-0.646-5.007-0.646
		c-4.827,0-8.466,2.245-8.466,7.176c0,3.949,2.477,6.634,6.452,6.634c0.981,0,1.91-0.154,1.91-0.154l2.091-3.1
		c0,0-1.756,0.492-3.071,0.492C91.755,65.191,89.613,64.005,89.613,61.087 M118.162,67.875l-6.119-13.654h-3.69l-5.936,13.654h3.38
		l0.981-2.322h6.659l1.032,2.322H118.162z M107.758,63.127l2.324-6.04l2.401,6.04H107.758z M93.848,60.184v2.632h3.768v5.06h3.149
		v-7.691H93.848z"/>
	<path clip-path="url(#SVGID_2_)" fill="#ec6806" d="M200,36.245c0,20.018-16.228,36.246-36.245,36.246S127.51,56.263,127.51,36.245
		S143.737,0,163.755,0S200,16.228,200,36.245"/>
	<polygon clip-path="url(#SVGID_2_)" fill="#ffffff" points="146.505,54.631 163.271,46.927 144.757,22.477 182.753,47.977 	"/>
	<polygon clip-path="url(#SVGID_2_)" fill="#ffffff" points="166.388,15.669 163.271,28.127 156.938,19.763 	"/>
</g>
</svg>
