<?xml version="1.0" encoding="UTF-8" standalone="no"?>
<svg width="1605px" height="511px" viewBox="0 0 1605 511" version="1.1" xmlns="http://www.w3.org/2000/svg" xmlns:xlink="http://www.w3.org/1999/xlink">
    <!-- Generator: Sketch 3.6.1 (26313) - http://www.bohemiancoding.com/sketch -->
    <title>Alpha Hat</title>
    <desc>Created with Sketch.</desc>
    <defs></defs>
    <g id="Page-1" stroke="none" stroke-width="1" fill="none" fill-rule="evenodd">
        <g id="Alpha-Hat" transform="translate(-3.000000, 0.000000)">
            <g id="svg_19">
                <g id="svg_1" transform="translate(67.089655, 123.586207)" fill="#27AAE1">
                    <path d="M105.852802,283.231425 L53.2476293,204.340908 L23.6575431,269.075391 L3.37866379,254.350822 L49.2364224,154.041339 L101.774784,232.840046 L153.469181,119.105132 L175.636853,146.802546 L175.636853,0.469787311 L200.202371,0.469787311 L200.202371,216.83358 L159.28125,165.686598 L105.852802,283.231425 Z" id="svg_2"></path>
                </g>
                <g id="svg_3" transform="translate(490.813793, 134.179310)">
                    <path d="M138.504849,246.729039 L99.444503,246.729039 L92.7567342,202.040274 L45.250214,202.040274 L38.565948,246.729039 L3.0260789,246.729039 L42.4394964,0.405818262 L99.0914348,0.405818262 L138.504852,246.729039 L138.504852,246.729039 L138.504849,246.729039 Z M50.1830833,168.607002 L87.4813581,168.607002 L68.830441,44.039168 L50.1830797,168.607002 L50.1830833,168.607002 Z" id="svg_4" fill="#414042"></path>
                    <path d="M152.935992,0.395648883 L191.635993,0.395648883 L191.635993,211.551267 L255.335992,211.551267 L255.335992,246.720636 L152.935992,246.720636 L152.935992,0.395648883 L152.935992,0.395648883 L152.935992,0.395648883 Z" id="svg_5" fill="#414042"></path>
                    <path d="M383.406249,61.2706481 L383.406249,93.2969825 C383.406249,132.703394 364.409266,154.171957 325.67392,154.171957 L307.383402,154.171957 L307.383402,246.720636 L268.682971,246.720636 L268.682971,0.395648883 L325.67392,0.395648883 C364.409266,0.395648883 383.406249,21.8641973 383.406249,61.2706481 L383.406249,61.2706481 Z M307.383405,35.5999567 L307.383405,119.003016 L325.673924,119.003016 C337.997199,119.003016 344.706253,113.353421 344.706253,95.7689362 L344.706253,58.8340365 C344.706253,41.2141956 337.997203,35.5999567 325.673924,35.5999567 L307.383405,35.5999567 L307.383405,35.5999567 L307.383405,35.5999567 Z" id="svg_6" fill="#414042"></path>
                    <path d="M436.513146,246.720636 L397.813146,246.720636 L397.813146,0.395648883 L436.513146,0.395648883 L436.513146,105.973248 L480.509698,105.973248 L480.509698,0.395648883 L519.916163,0.395648883 L519.916163,246.720636 L480.509698,246.720636 L480.509698,141.178018 L436.513146,141.178018 L436.513146,246.720636 L436.513146,246.720636 L436.513146,246.720636 Z" id="svg_7" fill="#414042"></path>
                    <path d="M669.81918,246.72756 L630.755388,246.72756 L624.067457,202.038742 L576.564439,202.038742 L569.876939,246.72756 L534.340301,246.72756 L573.750216,0.405994814 L630.402369,0.405994814 L669.81918,246.72756 L669.81918,246.72756 Z M581.493749,168.606844 L618.792024,168.606844 L600.141164,44.0391998 L581.493749,168.606844 L581.493749,168.606844 Z" id="svg_8" fill="#414042"></path>
                    <path d="M773.974355,246.720636 L735.273924,246.720636 L735.273924,0.395648883 L773.974355,0.395648883 L773.974355,105.973248 L817.970907,105.973248 L817.970907,0.395648883 L857.377372,0.395648883 L857.377372,246.720636 L817.970907,246.720636 L817.970907,141.178018 L773.974355,141.178018 L773.974355,246.720636 L773.974355,246.720636 L773.974355,246.720636 Z" id="svg_9" fill="#27AAE1"></path>
                    <path d="M1007.25539,246.72756 L968.191597,246.72756 L961.503666,202.038742 L914.000649,202.038742 L907.313148,246.72756 L871.77651,246.72756 L911.186425,0.405994814 L967.838579,0.405994814 L1007.25539,246.72756 L1007.25539,246.72756 Z M918.93039,168.606844 L956.228664,168.606844 L937.577804,44.0391998 L918.93039,168.606844 L918.93039,168.606844 Z" id="svg_10" fill="#27AAE1"></path>
                    <path d="M997.029524,0.395648883 L1116.69634,0.395648883 L1116.69634,35.5999603 L1076.23082,35.5999603 L1076.23082,246.720636 L1037.49547,246.720636 L1037.49547,35.5999603 L997.029524,35.5999603 L997.029524,0.395648883 L997.029524,0.395648883 L997.029524,0.395648883 Z" id="svg_11" fill="#27AAE1"></path>
                </g>
                <g id="svg_13" transform="translate(0.000000, 151.834483)" fill="#414042">
                    <path d="M242.553824,224.052722 C220.413874,251.983219 186.16285,268.29658 150.357811,268.29658 C78.1838089,268.29658 29.7380158,211.41164 29.7380158,149.793322 C29.7380158,77.6193201 86.6229778,29.1378388 148.239529,29.1378388 C182.596495,29.1378388 211.904092,42.3442785 232.843476,62.7533012 L232.843476,36.6239921 C213.704898,16.0024011 186.021952,2.79668877 147.709881,2.79668877 C72.922571,2.79668877 3.39649854,61.7999078 3.39649854,150.323331 C3.39649854,225.112015 62.4004378,294.638119 150.887816,294.638119 C191.459395,294.638119 222.532481,277.265408 242.553817,247.781277 L242.553817,287.823169 L268.894981,287.823169 L268.894981,219.815491 C259.92615,219.815491 251.027954,219.780174 242.553817,219.780174 L242.553817,224.052722 L242.553817,224.052722 L242.553817,224.052722 L242.553824,224.052722 Z" id="svg_14"></path>
                </g>
                <path d="M184.771767,124.055994 L251.490733,57.3262528 L314.703233,124.055994" id="svg_15" stroke="#27AAE1" stroke-width="7"></path>
                <path d="M407.466902,0 L407.466902,510.820634" id="svg_16" stroke="#414042" stroke-width="4"></path>
            </g>
        </g>
    </g>
</svg>