<?xml version="1.0" encoding="UTF-8" standalone="no"?>
<svg width="1743px" height="512px" viewBox="0 0 1743 512" version="1.1" xmlns="http://www.w3.org/2000/svg" xmlns:xlink="http://www.w3.org/1999/xlink">
    <!-- Generator: Sketch 3.6.1 (26313) - http://www.bohemiancoding.com/sketch -->
    <title>Alveum</title>
    <desc>Created with Sketch.</desc>
    <defs></defs>
    <g id="Page-1" stroke="none" stroke-width="1" fill="none" fill-rule="evenodd">
        <g id="Alveum">
            <g id="logo_1_">
                <path d="M589.486872,374.542521 C596.61767,380.172097 605.061908,382.986843 614.819841,382.986843 C626.704503,382.986843 638.213687,380.234647 649.347739,374.730172 C668.112994,365.597748 677.495481,350.648318 677.495481,329.881435 L677.495481,302.671951 C673.367125,305.299087 668.050382,307.488334 661.545094,309.239758 C655.039805,310.991181 648.659714,312.24218 642.404629,312.99279 L621.950602,315.619913 C609.690635,317.246235 600.495798,319.810781 594.365814,323.313629 C583.982373,329.193409 578.79073,338.575896 578.79073,351.461372 C578.79073,361.219304 582.356075,368.912944 589.486872,374.542521 L589.486872,374.542521 Z M660.606836,283.156183 C668.363141,282.155369 673.554784,278.902773 676.18192,273.398298 C677.68314,270.395858 678.433739,266.079914 678.433739,260.450337 C678.433739,248.94098 674.33672,240.590567 666.142558,235.398846 C657.948397,230.207125 646.220288,227.611304 630.95788,227.611304 C613.31854,227.611304 600.808557,232.365097 593.427556,241.872827 C589.2992,247.127098 586.609554,254.945837 585.358537,265.329279 L553.833065,265.329279 C554.458573,240.559141 562.496237,223.32664 577.946298,213.631258 C593.396358,203.935876 611.316909,199.088258 631.708486,199.088258 C655.352709,199.088258 674.555532,203.591852 689.317533,212.599174 C703.954433,221.606497 711.272772,235.617678 711.272772,254.633137 L711.272772,370.414185 C711.272772,373.917033 711.992096,376.731779 713.430766,378.858508 C714.869436,380.985237 717.903106,382.048585 722.53187,382.048585 C724.03309,382.048585 725.721938,381.95476 727.598463,381.767108 C729.474989,381.579455 731.476586,381.297981 733.603315,380.922676 L733.603315,405.880341 C728.349043,407.381561 724.345849,408.31981 721.593611,408.695115 C718.841374,409.07042 715.088379,409.25807 710.334514,409.25807 C698.700056,409.25807 690.255818,405.129776 685.001546,396.873063 C682.249308,392.494503 680.310261,386.302062 679.184346,378.295553 C672.303752,387.302876 662.420866,395.121615 649.53539,401.752005 C636.649915,408.382395 622.451084,411.697541 606.938473,411.697541 C588.298319,411.697541 573.067415,406.036774 561.245304,394.715069 C549.423193,383.393365 543.512226,369.22581 543.512226,352.211978 C543.512226,333.571824 549.329368,319.122794 560.963826,308.864454 C572.598285,298.606115 587.860464,292.288573 606.750821,289.911641 L660.606836,283.156183 Z M767.568258,129.281856 L801.345549,129.281856 L801.345549,404.942083 L767.568258,404.942083 L767.568258,129.281856 Z M868.524828,203.9672 L922.193191,367.599411 L978.301025,203.9672 L1015.26839,203.9672 L939.45714,404.942083 L903.428029,404.942083 L829.30564,203.9672 L868.524828,203.9672 Z M1169.33037,209.502923 C1182.71625,216.195864 1192.91189,224.859027 1199.91759,235.492672 C1206.67308,245.62591 1211.17667,257.447843 1213.4285,270.958827 C1215.43013,280.216354 1216.43093,294.978133 1216.43093,315.244609 L1069.12441,315.244609 C1069.74992,335.636187 1074.56626,351.99299 1083.57358,364.315507 C1092.58091,376.638025 1106.52954,382.799192 1125.41989,382.799192 C1143.05923,382.799192 1157.13296,376.98205 1167.64151,365.347591 C1173.64639,358.592099 1177.89978,350.77336 1180.40182,341.891139 L1213.61615,341.891139 C1212.74044,349.27214 1209.83187,357.497453 1204.89035,366.567327 C1199.94884,375.6372 1194.41317,383.049365 1188.28319,388.804044 C1178.02485,398.81218 1165.32721,405.567571 1150.18991,409.070418 C1142.0583,411.072046 1132.86346,412.072844 1122.60512,412.072844 C1097.58478,412.072844 1076.38036,402.971832 1058.99122,384.769534 C1041.60208,366.567236 1032.90765,341.078146 1032.90765,308.301499 C1032.90765,276.02526 1041.66463,249.816846 1059.17887,229.675472 C1076.69311,209.534097 1099.58638,199.463561 1127.85936,199.463561 C1142.12096,199.463561 1155.94449,202.809981 1169.33037,209.502923 L1169.33037,209.502923 Z M1181.71538,288.410428 C1180.33926,273.773529 1177.14921,262.076695 1172.14515,253.319575 C1162.88762,237.056354 1147.43779,228.924865 1125.7952,228.924865 C1110.28259,228.924865 1097.2722,234.523082 1086.76366,245.719685 C1076.25512,256.916287 1070.68817,271.146393 1070.06267,288.410428 L1181.71538,288.410428 Z M1291.67923,203.9672 L1291.67923,337.3875 C1291.67923,347.64584 1293.30552,356.027528 1296.55817,362.532817 C1302.56305,374.542581 1313.75949,380.547372 1330.14781,380.547372 C1353.66693,380.547372 1369.67971,370.038987 1378.18662,349.021901 C1382.81539,337.762747 1385.12973,322.312918 1385.12973,302.671951 L1385.12973,203.9672 L1418.90702,203.9672 L1418.90702,404.942083 L1387.00625,404.942083 L1387.38155,375.293127 C1383.00299,382.924331 1377.56115,389.366972 1371.05586,394.621244 C1358.17039,405.129787 1342.53291,410.38398 1324.14296,410.38398 C1295.49467,410.38398 1275.97909,400.813843 1265.59565,381.673282 C1259.96608,371.414942 1257.15133,357.716511 1257.15133,340.577578 L1257.15133,203.9672 L1291.67923,203.9672 Z M1471.63713,203.9672 L1505.03912,203.9672 L1505.03912,232.490246 C1513.04563,222.607211 1520.30142,215.413971 1526.8067,210.91031 C1537.94076,203.279106 1550.57584,199.463561 1564.71233,199.463561 C1580.72535,199.463561 1593.61063,203.404206 1603.36856,211.285613 C1608.87304,215.789274 1613.87703,222.419565 1618.38069,231.176684 C1625.8868,220.417938 1634.70633,212.442824 1644.83957,207.251103 C1654.97281,202.059382 1666.35689,199.463561 1678.99217,199.463561 C1706.01413,199.463561 1724.40381,209.221348 1734.16174,228.737213 C1739.41601,239.245757 1742.04311,253.382037 1742.04311,271.146479 L1742.04311,404.942083 L1706.95226,404.942083 L1706.95226,265.329279 C1706.95226,251.943397 1703.60584,242.748559 1696.9129,237.744491 C1690.21995,232.740423 1682.05719,230.238426 1672.42436,230.238426 C1659.16358,230.238426 1647.74822,234.67947 1638.17794,243.561691 C1628.60766,252.443912 1623.82259,267.268242 1623.82259,288.035125 L1623.82259,404.942083 L1589.48234,404.942083 L1589.48234,273.773602 C1589.48234,260.137516 1587.85605,250.19208 1584.6034,243.936994 C1579.47423,234.554367 1569.9041,229.863123 1555.8927,229.863123 C1543.13233,229.863123 1531.52932,234.804566 1521.08333,244.687601 C1510.63734,254.570636 1505.41442,272.459911 1505.41442,298.355964 L1505.41442,404.942083 L1471.63713,404.942083 L1471.63713,203.9672 Z" id="alveum" fill="#000000"></path>
                <path d="M452.302296,254.931106 C452.302296,314.789144 431.619207,370.050939 397.093946,413.554906 C396.506054,414.303132 395.704384,414.891023 394.849269,415.265136 C394.154489,415.532359 393.406263,415.692693 392.711482,415.692693 L315.109812,415.799582 C314.040919,415.799582 313.078914,415.532359 312.2238,414.997912 C311.368685,414.463466 310.620459,413.71524 310.139457,412.806681 L197.531524,202.448434 L89.2526096,402.545303 L81.9841336,415.906472 C80.7549061,418.204593 81.0221294,420.983716 82.6789144,423.014614 C88.1837161,429.641754 93.6350731,435.413779 98.6588727,440.2238 C98.765762,440.330689 98.8726514,440.384134 98.926096,440.491023 C99.4070981,440.972025 99.9415449,441.506472 100.475992,442.040919 C106.461795,447.866388 113.035491,453.317745 120.357411,458.234656 C120.731524,458.501879 121.105637,458.769102 121.426305,458.982881 C121.640084,459.08977 121.800418,459.250104 122.014196,459.356994 C122.227975,459.517328 122.441754,459.677662 122.708977,459.784551 C122.869311,459.891441 123.029645,459.99833 123.136534,460.051775 C123.189979,460.105219 123.189979,460.105219 123.243424,460.105219 L123.243424,460.105219 C150.660543,477.795407 187.751148,489.179123 238.73737,491.156576 C271.285177,490.141127 294.266388,487.522338 311.903132,483.139875 C277.057203,501.150731 237.615031,511.518998 196.248852,511.518998 C122.28142,511.518998 48.1536534,478.597077 1.44300626,420.983716 C-0.160334029,419.006263 -0.427557411,416.22714 0.74822547,413.982463 L6.94780793,402.438413 L197.531524,50.8258873 L360.11023,350.009186 L361.392902,347.604175 C361.553236,347.336952 361.71357,347.016284 361.820459,346.749061 C362.782463,344.878497 363.691023,343.007933 364.599582,341.13737 C365.561587,339.159916 366.470146,337.129019 367.378706,335.098121 C368.23382,333.227557 369.035491,331.303549 369.783716,329.379541 C369.890605,329.165762 369.997495,328.951983 370.050939,328.68476 C370.425052,327.722756 370.85261,326.760752 371.226722,325.798747 C371.600835,324.783299 372.028392,323.714405 372.402505,322.698956 C372.45595,322.645511 372.45595,322.538622 372.509395,322.485177 C372.883507,321.469729 373.25762,320.507724 373.578288,319.492276 C374.433403,317.14071 375.235073,314.789144 375.983299,312.384134 C376.250522,311.582463 376.517745,310.727349 376.784969,309.925678 C379.08309,302.389979 380.953653,294.693946 382.450104,286.837578 C382.877662,284.646347 383.251775,282.455115 383.572443,280.263883 C383.732777,279.141545 383.946555,277.965762 384.106889,276.843424 C384.267223,275.667641 384.427557,274.438413 384.587891,273.26263 C384.748225,272.140292 384.855115,270.964509 385.015449,269.842171 C385.924008,261.772025 386.351566,253.59499 386.351566,245.311065 C386.351566,221.314405 382.556994,198.440084 375.555741,177.115658 C375.021294,175.405428 374.433403,173.695198 373.792067,172.038413 C372.883507,169.526514 371.974948,167.014614 370.959499,164.502714 C370.318163,162.845929 369.837161,161.189144 368.982046,159.585804 L368.982046,159.585804 C368.126931,157.982463 367.485595,156.325678 366.790814,154.722338 C366.416701,153.920668 365.989144,153.118998 365.615031,152.317328 C364.866806,150.713987 364.065136,149.164092 363.263466,147.560752 C362.889353,146.759081 362.461795,145.957411 362.034238,145.209186 C361.232568,143.65929 360.377453,142.109395 359.522338,140.559499 C358.667223,139.009603 357.812109,137.459708 356.903549,135.963257 C355.99499,134.466806 355.08643,132.91691 354.177871,131.473904 C353.696868,130.725678 353.269311,129.977453 352.788309,129.229228 C351.826305,127.732777 350.864301,126.28977 349.902296,124.846764 C342.045929,113.195825 333.120668,102.4 323.179958,92.5127349 C308.215449,77.6551148 291.059708,64.9352818 272.247182,54.834238 C240.126931,37.4112735 203.250104,27.7377871 164.021712,27.7377871 C97.9106472,27.7377871 43.2367432,50.4517745 4.64968685,88.0768267 L4.64968685,88.0768267 C51.360334,34.0977035 120.410856,0 197.37119,0 C307.253445,0 400.888518,69.531524 436.696451,167.014614 C446.797495,194.431733 452.302296,224.040084 452.302296,254.931106 L452.302296,254.931106 Z" id="logo" fill="#29ABE2"></path>
            </g>
        </g>
    </g>
</svg>