<?xml version="1.0" encoding="UTF-8" standalone="no"?>
<svg width="2680px" height="507px" viewBox="0 0 2680 507" version="1.1" xmlns="http://www.w3.org/2000/svg" xmlns:xlink="http://www.w3.org/1999/xlink" xmlns:sketch="http://www.bohemiancoding.com/sketch/ns">
    <!-- Generator: Sketch 3.5.2 (25235) - http://www.bohemiancoding.com/sketch -->
    <title>Amazon</title>
    <desc>Created with Sketch.</desc>
    <defs></defs>
    <g id="Page-1" stroke="none" stroke-width="1" fill="none" fill-rule="evenodd" sketch:type="MSPage">
        <g id="Amazon" sketch:type="MSLayerGroup" transform="translate(-1.000000, -2.000000)">
            <g id="layer1" transform="translate(0.616000, 0.203107)" sketch:type="MSShapeGroup">
                <g id="g1967" transform="translate(0.081691, 0.080828)">
                    <path d="M1046.45643,397.78946 C948.53439,469.684923 806.602366,508.04375 684.401538,508.04375 C513.056262,508.04375 358.801545,444.916074 242.101889,339.922444 C232.933172,331.666115 241.14831,320.414228 252.150826,326.843866 C378.092502,399.835288 533.814308,443.747042 694.670551,443.747042 C803.154927,443.747042 922.495161,421.389276 1032.22655,374.993366 C1048.80363,367.979143 1062.66674,385.806897 1046.45643,397.78946" id="path8" fill="#FF9900"></path>
                    <path d="M1087.16564,351.39355 C1074.69611,335.465506 1004.42697,343.867926 972.886536,347.594215 C963.277667,348.763248 961.810717,340.433901 970.465951,334.442564 C1026.43192,295.206968 1118.26597,306.531956 1128.97505,319.683552 C1139.68408,332.908249 1126.18776,424.604164 1073.59587,468.369716 C1065.5274,475.091646 1057.82566,471.511531 1061.41984,462.597626 C1073.22914,433.22572 1099.70846,367.394668 1087.16564,351.39355" id="path10" fill="#FF9900"></path>
                    <path d="M975.087045,57.4552472 L975.087045,19.3156111 C975.087045,13.5435214 979.488035,9.67111314 984.769217,9.67111314 L1156.1878,9.67111314 C1161.68908,9.67111314 1166.09007,13.6165947 1166.09007,19.3156111 L1166.09007,51.9754226 C1166.01677,57.4552472 1161.39568,64.6155614 1153.18045,75.9405489 L1064.3538,202.269003 C1097.36126,201.465336 1132.20244,206.360603 1162.12918,223.165443 C1168.87737,226.964778 1170.71111,232.517676 1171.22456,237.997556 L1171.22456,278.694449 C1171.22456,284.247347 1165.06316,290.75003 1158.60838,287.389107 C1105.86981,259.843781 1035.82071,256.848141 977.507574,287.681372 C971.566248,290.896204 965.331515,284.466539 965.331515,278.913641 L965.331515,240.262548 C965.331515,234.052075 965.404817,223.45768 971.639551,214.032374 L1074.54942,67.0266998 L984.989265,67.0266998 C979.488035,67.0266998 975.087045,63.1543194 975.087045,57.4552472" id="path12" fill="#221F1F"></path>
                    <path d="M349.779462,295.42616 L297.627729,295.42616 C292.639982,295.060878 288.67906,291.334588 288.312295,286.585357 L288.312295,19.9732425 C288.312295,14.6395365 292.786643,10.401762 298.361232,10.401762 L346.992167,10.401762 C352.053357,10.6208145 356.087553,14.4933621 356.454347,19.3156111 L356.454347,54.167397 L357.407898,54.167397 C370.097412,20.4846437 393.936076,4.77579091 426.06335,4.77579091 C458.70402,4.77579091 479.095274,20.4846437 493.765249,54.167397 C506.381432,20.4846437 535.06121,4.77579091 565.794836,4.77579091 C587.653095,4.77579091 611.565146,13.7627133 626.161762,33.9285046 C642.66548,56.3592878 639.291372,88.9460261 639.291372,117.514265 L639.218042,285.78169 C639.218042,291.115396 634.743693,295.42616 629.169104,295.42616 L577.090675,295.42616 C571.882879,295.060878 567.701938,290.896204 567.701938,285.78169 L567.701938,144.475032 C567.701938,133.223118 568.728791,105.166364 566.234932,94.4989239 C562.347397,76.5981803 550.684764,71.5566837 535.574665,71.5566837 C522.958481,71.5566837 509.755512,79.9591037 504.400972,93.4029924 C499.046431,106.846853 499.559886,129.350654 499.559886,144.475032 L499.559886,285.78169 C499.559886,291.115396 495.085537,295.42616 489.510948,295.42616 L437.432576,295.42616 C432.151394,295.060878 428.043783,290.896204 428.043783,285.78169 L427.970452,144.475032 C427.970452,114.737816 432.884841,70.9721813 395.843206,70.9721813 C358.361393,70.9721813 359.828399,113.641801 359.828399,144.475032 L359.828399,285.78169 C359.828399,291.115396 355.35405,295.42616 349.779462,295.42616" id="path14" fill="#221F1F"></path>
                    <path d="M1313.66999,4.77579091 C1391.05409,4.77579091 1432.93683,70.9721813 1432.93683,155.142444 C1432.93683,236.463157 1386.65304,300.979058 1313.66999,300.979058 C1237.67951,300.979058 1196.31016,234.782668 1196.31016,152.292922 C1196.31016,69.2916917 1238.19296,4.77579091 1313.66999,4.77579091 M1314.11006,59.2088379 C1275.67478,59.2088379 1273.25419,111.376809 1273.25419,143.89053 C1273.25419,176.477268 1272.74074,246.03461 1313.66999,246.03461 C1354.08576,246.03461 1355.99286,189.921157 1355.99286,155.726919 C1355.99286,133.223118 1355.03931,106.335396 1348.21773,85.0005445 C1342.34974,66.4422253 1330.68716,59.2088379 1314.11006,59.2088379" id="path16" fill="#221F1F"></path>
                    <path d="M1533.27946,295.42616 L1481.34778,295.42616 C1476.1399,295.060878 1471.95896,290.896204 1471.95896,285.78169 L1471.88565,19.0964193 C1472.32575,14.201097 1476.65341,10.401762 1481.93459,10.401762 L1530.27217,10.401762 C1534.81983,10.6208145 1538.56067,13.6896679 1539.58761,17.8543413 L1539.58761,58.6242798 L1540.5411,58.6242798 C1555.13778,22.1651333 1575.60233,4.77579091 1611.61711,4.77579091 C1635.01571,4.77579091 1657.82755,13.1782109 1672.49752,36.1934965 C1686.14059,57.5283204 1686.14059,93.4029924 1686.14059,119.194699 L1686.14059,287.023796 C1685.5538,291.699871 1681.22614,295.42616 1676.09171,295.42616 L1623.79323,295.42616 C1619.02544,295.060878 1615.06455,291.55378 1614.55115,287.023796 L1614.55115,142.21004 C1614.55115,113.057327 1617.92523,70.3876511 1581.91042,70.3876511 C1569.22094,70.3876511 1557.55828,78.8631722 1551.76364,91.722475 C1544.4287,108.015886 1543.47514,124.236196 1543.47514,142.21004 L1543.47514,285.78169 C1543.40184,291.115396 1538.85411,295.42616 1533.27952,295.42616" id="path18" fill="#221F1F"></path>
                    <path d="M1718.78126,274.237511 C1718.78126,260.793622 1730.29715,249.980119 1744.45367,249.980119 C1758.61019,249.980119 1770.1261,260.793622 1770.1261,274.237511 C1770.1261,287.608271 1758.61019,298.567975 1744.45367,298.567975 C1730.29715,298.567975 1718.78126,287.608271 1718.78126,274.237511" id="path20" fill="#221F1F"></path>
                    <path d="M2271.3257,295.499261 C2265.89783,295.27993 2261.64353,291.115396 2261.64353,285.854763 L2261.64353,19.2425936 C2261.93693,14.4933621 2265.97116,10.7670725 2270.95896,10.4748631 L2290.10326,10.4748631 C2295.38447,10.4748631 2299.63874,14.2741703 2300.07884,19.2425936 L2300.07884,58.1128785 C2313.72193,27.2796474 2339.10099,3.16837458 2371.15487,3.16837458 L2373.1353,3.16837458 L2375.04241,3.16837458 C2409.07672,3.16837458 2433.94233,28.1564149 2443.18443,64.4694427 C2457.63433,28.5947986 2484.7738,3.16837458 2520.56853,3.16837458 L2522.40227,3.16837458 L2524.52942,3.16837458 C2549.83512,3.16837458 2574.18727,19.3886844 2586.80345,44.0844596 C2598.97951,67.6842754 2598.53942,99.101981 2598.53942,125.478246 L2598.46611,285.854763 C2598.53942,290.969222 2594.35853,295.133895 2589.15071,295.499261 L2566.26554,295.499261 C2561.27773,295.27993 2557.24351,291.772972 2556.58337,287.169915 L2556.58337,125.478246 C2556.58337,106.40847 2557.53692,86.1695771 2549.76182,68.7802347 C2541.84003,51.0255819 2526.6566,39.9197862 2510.37296,39.1161198 C2492.18219,39.9928594 2475.45842,53.2175563 2464.60262,71.0452824 C2450.51946,94.0605402 2451.03291,114.810834 2451.03291,141.698583 L2451.03291,287.316005 C2450.37277,291.699871 2446.48521,295.133895 2441.71748,295.499261 L2418.97903,295.499261 C2413.55113,295.27993 2409.2235,291.115396 2409.2235,285.854763 L2409.07689,114.810834 C2409.07689,99.101981 2408.12334,80.6166793 2400.86173,66.5152428 C2392.42648,50.4411074 2377.31641,39.9197862 2361.47284,39.1161198 C2345.04248,40.0659605 2328.4654,52.5599807 2318.63654,67.0998009 C2305.947,85.6581202 2303.52647,108.60036 2303.52647,132.200204 L2303.52647,285.854763 C2303.52647,290.969222 2299.34553,295.133895 2294.13768,295.499261 L2271.32587,295.499261" id="path22" fill="#221F1F"></path>
                    <path d="M2114.2103,301.052159 C2040.20031,301.052159 2007.04616,225.868819 2007.04616,150.685506 C2007.04616,71.6297569 2045.99495,3.16837458 2120.51839,3.16837458 L2122.4255,3.16837458 L2124.47929,3.16837458 C2196.94894,3.16837458 2233.03708,76.0867233 2233.03708,151.270036 C2233.03708,230.910259 2193.06141,301.052159 2118.09786,301.052159 L2116.19076,301.052159 L2114.2103,301.052159 M2119.6382,264.593013 C2143.99035,263.789263 2163.208,248.737986 2174.57726,223.676928 C2184.77288,201.173043 2186.75331,175.381281 2186.75331,150.685506 C2186.75331,123.797756 2183.81933,95.7410576 2171.12979,72.7257163 C2159.76056,52.6329982 2140.2495,39.8467687 2119.56484,39.1161198 C2096.53298,39.9197862 2075.92168,55.4825204 2065.57937,79.4476467 C2056.26393,100.197996 2053.40328,127.743238 2053.40328,150.685506 C2053.40328,176.477268 2056.77736,206.287558 2067.48644,228.718369 C2077.90214,249.980119 2097.92663,263.789263 2119.6382,264.593013" id="path24" fill="#221F1F"></path>
                    <path d="M1882.93819,263.42398 C1916.16571,262.401038 1933.62295,235.878683 1940.81123,201.538354 C1942.27824,197.227562 1945.57899,193.939656 1950.42007,193.939656 L1972.35169,193.866638 C1977.55952,194.085691 1982.32727,198.031312 1981.88717,202.853617 C1971.76488,261.37818 1936.33691,301.052215 1885.87221,301.052215 L1883.81841,301.052215 L1881.91131,301.052215 C1808.41472,301.052215 1776.72763,227.549364 1776.72763,152.950526 C1776.72763,78.9363012 1808.85487,3.16843031 1882.35141,3.16843031 L1884.33184,3.16843031 L1886.3123,3.16843031 C1937.36379,3.16843031 1973.74534,42.3309803 1981.66713,100.855627 C1981.66713,105.239493 1977.55952,109.0388 1972.71843,109.550257 L1949.75993,109.257992 C1944.91884,108.600416 1941.76478,104.508844 1941.03128,99.9057867 C1935.53005,67.2459474 1916.67913,41.2350489 1885.28539,40.212107 C1835.33411,41.8195234 1821.10429,103.047518 1821.10429,150.174077 C1821.10429,195.547128 1832.98697,261.81662 1882.93819,263.424036" id="path26" fill="#221F1F"></path>
                    <path d="M838.436232,168.074848 C838.436232,188.313685 838.949687,205.19157 828.680701,223.165443 C820.392177,237.778364 807.189207,246.765287 792.592591,246.765287 C772.568075,246.765287 760.832112,231.567835 760.832112,209.137052 C760.832112,164.860016 800.661068,156.822934 838.436232,156.822934 L838.436232,168.074848 M891.028088,294.695511 C887.580678,297.764225 882.592846,297.983417 878.705311,295.937645 C861.394731,281.617017 858.240699,274.96816 848.778576,261.305107 C820.172129,290.384747 799.854178,299.079377 762.812517,299.079377 C718.87595,299.079377 684.768276,272.11861 684.768276,218.12403 C684.768276,175.965811 707.65347,147.251481 740.3675,133.223118 C768.68054,120.802115 808.216061,118.610225 838.436232,115.1762 L838.436232,108.45427 C838.436232,96.1063402 839.389783,81.4934468 832.054809,70.8260906 C825.746717,61.2546101 813.570602,57.3091286 802.788218,57.3091286 C782.910363,57.3091286 765.233102,67.4650835 760.905415,88.5076423 C760.025222,93.1838006 756.577812,97.7868577 751.810028,98.0060496 L701.271994,92.5992425 C697.017694,91.6494575 692.249967,88.2153772 693.496924,81.7126944 C705.086195,20.6308181 760.538705,2.21853385 810.123163,2.21853385 C835.502248,2.21853385 868.656374,8.94046429 888.68089,28.0833416 C914.059919,51.6831575 911.63939,83.1739363 911.63939,117.441192 L911.63939,198.396595 C911.63939,222.727087 921.761658,233.394443 931.29714,246.546095 C934.597917,251.222169 935.33142,256.848141 931.076952,260.355238 C920.441229,269.19607 901.516954,285.635572 891.101279,294.841686 L891.027976,294.695372" id="path28" fill="#221F1F"></path>
                    <path d="M154.742238,168.074848 C154.742238,188.313685 155.255637,205.19157 144.986705,223.165443 C136.698125,237.778364 123.568514,246.765287 108.898539,246.765287 C88.8740232,246.765287 77.2114186,231.567835 77.2114186,209.137052 C77.2114186,164.860016 117.040374,156.822934 154.742238,156.822934 L154.742238,168.074848 M207.334067,294.695511 C203.886628,297.764225 198.898797,297.983417 195.011262,295.937645 C177.700738,281.617017 174.620009,274.96816 165.084527,261.305107 C136.478077,290.384747 116.233569,299.079377 79.1184927,299.079377 C35.2552568,299.079377 1.07427672,272.11861 1.07427672,218.12403 C1.07427672,175.965811 24.0327764,147.251481 56.6734479,133.223118 C84.9864883,120.802115 124.522065,118.610225 154.742238,115.1762 L154.742238,108.45427 C154.742238,96.1063402 155.695789,81.4934468 148.434147,70.8260906 C142.052665,61.2546101 129.876634,57.3091286 119.167524,57.3091286 C99.2897539,57.3091286 81.5390496,67.4650835 77.2114186,88.5076423 C76.3311983,93.1838006 72.8837596,97.7868577 68.189391,98.0060496 L17.5779952,92.5992425 C13.3236949,91.6494575 8.62929836,88.2153772 9.80289749,81.7126944 C21.4655301,20.6308181 76.8446531,2.21853385 126.429195,2.21853385 C151.808199,2.21853385 184.962325,8.94046429 204.986841,28.0833416 C230.365925,51.6831575 227.945341,83.1739363 227.945341,117.441192 L227.945341,198.396595 C227.945341,222.727087 238.067664,233.394443 247.603147,246.546095 C250.977227,251.222169 251.71073,256.848141 247.456429,260.355238 C236.820707,269.19607 217.896459,285.635572 207.480728,294.841686 L207.334067,294.695372" id="path30" fill="#221F1F"></path>
                    <path d="M2652.67161,13.3243295 C2665.21443,13.3243295 2675.63011,23.407267 2675.63011,36.120479 C2675.63011,48.5413981 2665.36115,58.989646 2652.67161,58.989646 C2640.05545,58.989646 2629.78647,48.7605899 2629.78647,36.120479 C2629.78647,23.2610926 2640.20214,13.3243295 2652.67161,13.3243295 M2652.74491,8.94046429 C2638.07494,8.94046429 2625.38542,20.7769088 2625.38542,36.1934965 C2625.38542,51.317847 2637.85489,63.3735113 2652.74491,63.3735113 C2667.70826,63.3735113 2680.03104,51.1717562 2680.03104,36.1934965 C2680.03104,20.7769088 2667.48824,8.94046429 2652.74491,8.94046429 M2642.47593,51.4639656 L2648.34392,51.4639656 L2648.34392,39.1891373 L2653.77182,39.1891373 C2655.89894,39.1891373 2656.48576,40.0659605 2656.92585,41.8194676 C2656.92585,42.2578514 2657.95276,50.0027236 2658.02609,51.4639656 L2664.55423,51.4639656 C2663.7474,50.0027236 2663.30728,45.8380503 2663.0139,43.3538107 C2662.42708,39.4814024 2662.13368,36.7780268 2657.95276,36.4857616 C2660.07988,35.7551128 2663.7474,34.5860802 2663.7474,28.9601648 C2663.7474,20.9230275 2656.63245,20.9230275 2652.96496,20.9230275 L2642.47593,20.9230275 L2642.47593,51.4639656 M2648.19723,25.8183497 L2653.11165,25.8183497 C2654.72534,25.8183497 2657.65936,25.8183497 2657.65936,29.9830231 C2657.65936,31.5904394 2656.92585,34.2938708 2652.96496,34.2938708 L2648.19723,34.2938708 L2648.19723,25.8183497" id="path32" fill="#221F1F"></path>
                </g>
            </g>
        </g>
    </g>
</svg>