<?xml version="1.0" encoding="utf-8"?><!-- Generator: Adobe Illustrator 19.2.0, SVG Export Plug-In . SVG Version: 6.00 Build 0) --><svg version="1.1" id="Layer_1" xmlns="http://www.w3.org/2000/svg" xmlns:xlink="http://www.w3.org/1999/xlink" x="0px" y="0px" viewBox="0 0 9254.4 2066.5" style="enable-background:new 0 0 9254.4 2066.5;" xml:space="preserve"><style type="text/css">.st0{fill-rule:evenodd;clip-rule:evenodd;}	.st1{fill:url(#SVGID_1_);}	.st2{fill:url(#SVGID_2_);}	.st3{fill:url(#SVGID_3_);}	.st4{fill:url(#SVGID_4_);}</style><path class="st0" d="M3373.2,1709.4c-315.9,233.2-774,357.1-1168.3,357.1c-552.8,0-1050.5-204.4-1427.2-544.4	c-29.5-26.7-3.2-63.2,32.3-42.5c406.4,236.5,908.9,378.9,1428,378.9c350.1,0,735-72.7,1089.2-222.9	C3380.7,1612.9,3425.5,1670.7,3373.2,1709.4"/><path class="st0" d="M3504.7,1559.3c-40.5-51.7-267.1-24.5-368.9-12.3c-30.8,3.8-35.6-23.2-7.8-42.8	c180.8-127,477.1-90.3,511.6-47.8c34.7,42.9-9.1,340-178.6,481.8c-26.1,21.8-50.8,10.2-39.3-18.6	C3459.7,1824.3,3545.2,1611.1,3504.7,1559.3"/><path class="st0" d="M3142.9,606.9V483.6c0.2-18.9,14.2-31.4,31.3-31.3l553.2-0.1c17.7,0,31.9,12.9,31.9,31.1v105.9	c-0.2,17.7-15.2,40.9-41.7,77.7L3431.1,1076c106.3-2.5,218.9,13.5,315.5,67.7c21.8,12.3,27.7,30.4,29.4,48.2v131.7	c0,18.1-19.9,39.2-40.8,28.2c-170.2-89.2-396.2-98.9-584.4,1.1c-19.2,10.2-39.4-10.5-39.4-28.6v-125.2c0-20,0.4-54.3,20.6-84.8	l332-476.2h-289.1C3157.2,638.1,3143.1,625.4,3142.9,606.9"/><path class="st0" d="M1125.1,1377.8H956.9c-16-1.1-28.8-13.1-30.1-28.4l0.2-863.7c0-17.3,14.5-31.1,32.5-31.1l156.8-0.1	c16.4,0.8,29.5,13.2,30.5,29v112.7h3.2c40.8-109,117.8-159.9,221.5-159.9c105.3,0,171.3,50.9,218.3,159.9	c40.9-109,133.5-159.9,232.6-159.9c70.7,0,147.6,29.1,194.7,94.5c53.5,72.8,42.5,178.1,42.5,270.8l-0.2,545.1	c0,17.2-14.5,31-32.5,31h-168.1c-16.8-1.1-30.1-14.4-30.1-31l-0.1-458c0-36.3,3.2-127.2-4.7-161.7c-12.6-58.2-50.2-74.5-98.9-74.5	c-40.8,0-83.2,27.2-100.5,70.8c-17.3,43.7-15.7,116.3-15.7,165.4v457.9c0,17.2-14.5,31-32.5,31h-168c-16.9-1.1-30.2-14.4-30.2-31	l-0.2-458c0-96.3,15.6-238-103.7-238c-121,0-116.2,138.1-116.2,238l-0.1,457.9C1157.6,1364,1143.1,1377.8,1125.1,1377.8"/><path class="st0" d="M4237.1,612.6c-124.1,0-132,169-132,274.4c0,105.4-1.6,330.8,130.4,330.8c130.4,0,136.7-181.8,136.7-292.6	c0-72.7-3.2-159.9-25.2-229C4328.1,636.2,4290.4,612.6,4237.1,612.6 M4235.5,436.3c249.8,0,384.9,214.5,384.9,487.1	c0,263.5-149.2,472.5-384.9,472.5c-245,0-378.6-214.5-378.6-481.6C3856.8,645.3,3992,436.3,4235.5,436.3"/><path class="st0" d="M4944.3,1377.8h-167.7c-16.8-1.1-30.2-14.4-30.2-31l-0.2-864c1.4-15.9,15.3-28.2,32.3-28.2l156.1-0.1	c14.7,0.8,26.8,10.8,29.9,24.2v132.1h3.2c47.1-118.2,113.1-174.5,229.3-174.5c75.4,0,149.2,27.3,196.4,101.8c44,69,44,185.3,44,269	v543.4c-1.9,15.3-15.6,27.2-32.3,27.2h-168.7c-15.6-1-28.2-12.5-29.9-27.2V881.6c0-94.5,11-232.6-105.3-232.6	c-40.9,0-78.6,27.2-97.4,69c-23.5,52.7-26.7,105.4-26.7,163.6v465.1C4976.7,1364,4962.2,1377.8,4944.3,1377.8"/><path class="st0" d="M2871.6,1375.6c-11.1,10-27.2,10.7-39.8,3.9c-55.9-46.4-65.9-67.9-96.5-112.1	c-92.3,94.1-157.7,122.3-277.4,122.3c-141.7,0-251.9-87.4-251.9-262.3c0-136.6,74.1-229.5,179.5-275	c91.3-40.1,218.9-47.4,316.5-58.3v-21.9c0-40.1,3.2-87.4-20.5-122c-20.5-31-59.8-43.8-94.5-43.8c-64.1,0-121.2,32.9-135.3,101.1	c-2.9,15.2-14,30.2-29.2,31l-163.1-17.7c-13.8-3.2-29.1-14.1-25.1-35.2c37.5-197.9,216.2-257.7,376.3-257.7	c81.9,0,188.9,21.8,253.5,83.8c81.9,76.5,74,178.5,74,289.6v262.2c0,78.9,32.8,113.5,63.5,155.9c10.8,15.3,13.2,33.5-0.5,44.7	c-34.4,28.8-95.4,81.8-129,111.7L2871.6,1375.6z M2702,965.3c0,65.6,1.6,120.2-31.5,178.5c-26.8,47.4-69.3,76.5-116.5,76.5	c-64.5,0-102.3-49.2-102.3-122.1c0-143.3,128.6-169.3,250.3-169.3V965.3z"/><path class="st0" d="M665.6,1375.6c-11.1,10-27.2,10.7-39.8,3.9c-55.9-46.4-65.9-67.9-96.5-112.1	c-92.4,94.1-157.8,122.3-277.4,122.3C110.1,1389.7,0,1302.3,0,1127.4c0-136.6,74-229.5,179.5-275c91.3-40.1,218.8-47.4,316.4-58.3	v-21.9c0-40.1,3.2-87.4-20.5-122c-20.5-31-59.8-43.8-94.4-43.8c-64.2,0-121.3,32.9-135.3,101.1c-2.9,15.2-14,30.2-29.2,31	L53.4,720.8c-13.8-3.2-29.1-14.1-25.2-35.2C65.7,487.7,244.4,428,404.6,428c81.9,0,188.9,21.8,253.5,83.8	c81.9,76.5,74,178.5,74,289.6v262.2c0,78.9,32.8,113.5,63.5,155.9c10.8,15.3,13.2,33.5-0.5,44.7c-34.4,28.8-95.5,81.8-129.1,111.7	L665.6,1375.6z M495.9,965.3c0,65.6,1.6,120.2-31.5,178.5c-26.7,47.4-69.2,76.5-116.5,76.5c-64.5,0-102.3-49.2-102.3-122.1	c0-143.3,128.6-169.3,250.3-169.3V965.3z"/><linearGradient id="SVGID_1_" gradientUnits="userSpaceOnUse" x1="6197.9146" y1="18.7242" x2="6197.9146" y2="1411.092"><stop offset="0" style="stop-color:#2CC0E1"/><stop offset="1" style="stop-color:#146CAE"/></linearGradient><path class="st1" d="M6582.3,910.4c0-293.1-139.8-477.5-380.5-477.5c-234.9,0-388.2,196.1-388.2,475.6	c0,262.1,139.8,485.3,444.5,485.3c104.8,0,217.4-29.1,302.8-83.5l-54.4-118.4c-64.1,35-139.8,62.1-227.1,62.1	c-182.5,0-287.3-128.1-291.2-300.9h594V910.4z M5988.2,824.9c2-139.8,81.5-256.2,213.5-256.2c137.8,0,199.9,128.1,203.8,256.2	H5988.2z"/><linearGradient id="SVGID_2_" gradientUnits="userSpaceOnUse" x1="7022.8989" y1="18.7242" x2="7022.8989" y2="1411.092"><stop offset="0" style="stop-color:#2CC0E1"/><stop offset="1" style="stop-color:#146CAE"/></linearGradient><path class="st2" d="M6654.1,924c0-273.7,186.4-491.1,465.9-491.1c98.9,0,180.4,27.2,234.9,58.3v149.5c-62.2-40.8-132-66-221.3-66	c-188.3,0-302.9,145.6-302.9,339.7c0,215.5,114.6,337.7,291.2,337.7c93.2,0,159.2-31,219.4-64.1l50.4,120.4	c-68,46.5-174.7,85.4-291.2,85.4C6811.3,1393.7,6654.1,1184,6654.1,924"/><linearGradient id="SVGID_3_" gradientUnits="userSpaceOnUse" x1="7886.9033" y1="18.7242" x2="7886.9033" y2="1411.092"><stop offset="0" style="stop-color:#2CC0E1"/><stop offset="1" style="stop-color:#146CAE"/></linearGradient><path class="st3" d="M7505.5,0h170.7v566.8c91.3-77.6,194.1-133.9,312.5-133.9c143.7,0,279.5,85.4,279.5,326.1v615.4h-170.8V815.2	c0-130.1-33-231-159.2-231c-93.2,0-182.5,54.4-262.1,124.2v665.9h-170.7V0z"/><linearGradient id="SVGID_4_" gradientUnits="userSpaceOnUse" x1="8818.6133" y1="18.7242" x2="8818.6133" y2="1411.092"><stop offset="0" style="stop-color:#2CC0E1"/><stop offset="1" style="stop-color:#146CAE"/></linearGradient><path class="st4" d="M8819.6,432.8c-264,0-436.8,209.6-436.8,481.4c0,269.8,172.8,479.5,434.9,479.5c264,0,436.7-209.7,436.7-479.5	C9254.4,642.5,9079.7,432.8,8819.6,432.8z M8817.7,1252c-161.2,0-258.2-141.6-258.2-337.7c0-198,97-339.7,260.1-339.7	c161.1,0,258.2,141.6,258.2,339.7C9077.8,1110.4,8980.7,1252,8817.7,1252z"/></svg>