<?xml version="1.0" encoding="UTF-8" standalone="no"?>
<svg width="2145px" height="512px" viewBox="0 0 2145 512" version="1.1" xmlns="http://www.w3.org/2000/svg" xmlns:xlink="http://www.w3.org/1999/xlink">
    <!-- Generator: Sketch 3.6.1 (26313) - http://www.bohemiancoding.com/sketch -->
    <title>AMD</title>
    <desc>Created with Sketch.</desc>
    <defs></defs>
    <g id="Page-1" stroke="none" stroke-width="1" fill="none" fill-rule="evenodd">
        <g id="AMD">
            <g id="clear_space"></g>
            <g id="logo" fill="#000000">
                <g id="Group" transform="translate(0.000000, 32.167539)">
                    <path d="M503.657885,445.31133 L384.72377,445.31133 L348.339602,357.552921 L150.123225,357.552921 L116.974576,445.31133 L0,445.31133 L178.709445,2.08016754 L306.738932,2.08016754 L503.657885,445.31133 L503.657885,445.31133 Z M244.35267,107.991791 L179.366199,280.206073 L315.845026,280.206073 L244.35267,107.991791 L244.35267,107.991791 Z" id="Shape"></path>
                    <path d="M935.689382,2.08016754 L1031.87032,2.08016754 L1031.87032,445.31133 L921.377508,445.31133 L921.377508,168.456042 L801.800042,307.518995 L784.909403,307.518995 L665.339979,168.456042 L665.339979,445.305969 L554.847162,445.305969 L554.847162,2.08016754 L651.028105,2.08016754 L793.348021,166.499183 L935.689382,2.08016754 L935.689382,2.08016754 Z" id="Shape"></path>
                    <path d="M1311.83246,2.08016754 C1473.64591,2.08016754 1556.81776,102.799414 1556.81776,224.328377 C1556.81776,351.703791 1476.24343,445.31133 1299.47745,445.31133 L1116.20557,445.31133 L1116.20557,2.08016754 L1311.83246,2.08016754 L1311.83246,2.08016754 Z M1226.69035,364.07489 L1298.81533,364.07489 C1409.94614,364.07489 1443.09479,288.671497 1443.09479,223.671623 C1443.09479,147.62756 1402.14551,83.3058848 1297.51523,83.3058848 L1226.68766,83.3058848 L1226.68766,364.07489 L1226.69035,364.07489 L1226.69035,364.07489 Z" id="Shape"></path>
                </g>
                <g id="Group" transform="translate(1632.502618, 0.000000)">
                    <path d="M372.682387,139.341738 L144.134702,139.341738 L4.81708901,0 L512,0 L512,507.201675 L372.682387,367.876021 L372.682387,139.341738 Z" id="Shape"></path>
                    <path d="M143.971183,368.039539 L143.971183,167.263162 L0.536125654,310.692859 L0.536125654,511.469236 L201.285696,511.469236 L344.712712,368.039539 L143.971183,368.039539 Z" id="Shape"></path>
                </g>
            </g>
        </g>
    </g>
</svg>