<?xml version="1.0" encoding="UTF-8" standalone="no"?>
<svg
   xmlns:dc="http://purl.org/dc/elements/1.1/"
   xmlns:cc="http://creativecommons.org/ns#"
   xmlns:rdf="http://www.w3.org/1999/02/22-rdf-syntax-ns#"
   xmlns:svg="http://www.w3.org/2000/svg"
   xmlns="http://www.w3.org/2000/svg"
   viewBox="0 0 96 58.786667"
   height="58.786667"
   width="96"
   xml:space="preserve"
   id="svg2"
   version="1.1"><metadata
     id="metadata8"><rdf:RDF><cc:Work
         rdf:about=""><dc:format>image/svg+xml</dc:format><dc:type
           rdf:resource="http://purl.org/dc/dcmitype/StillImage" /></cc:Work></rdf:RDF></metadata><defs
     id="defs6"><clipPath
       id="clipPath20"
       clipPathUnits="userSpaceOnUse"><path
         id="path18"
         d="M 0,440.898 V 0 h 720 v 440.898 z" /></clipPath></defs><g
     transform="matrix(1.3333333,0,0,-1.3333333,0,58.786667)"
     id="g10"><g
       transform="scale(0.1)"
       id="g12"><g
         id="g14"><g
           clip-path="url(#clipPath20)"
           id="g16"><path
             id="path22"
             style="fill:#ffffff;fill-opacity:1;fill-rule:nonzero;stroke:none"
             d="M 573.906,0 H 0 V 440.898 H 720 L 573.906,0" /><path
             id="path24"
             style="fill:#1c63b7;fill-opacity:1;fill-rule:nonzero;stroke:none"
             d="M 152.344,426.602 H 700.352 L 563.633,14.2656 H 152.344 V 426.602" /><path
             id="path26"
             style="fill:#ce0f3e;fill-opacity:1;fill-rule:nonzero;stroke:none"
             d="m 14.5508,14.2656 h 137.832 v 412.355 H 14.5508 Z" /><path
             id="path28"
             style="fill:#ffffff;fill-opacity:1;fill-rule:nonzero;stroke:none"
             d="m 256.582,308.613 h 13.965 v -8.105 h 0.156 c 3.067,6.347 9.219,9.148 16.172,9.148 6.27,0 11.484,-2.722 13.867,-8.484 3.555,5.918 9.473,8.484 15.742,8.484 12.774,0 15.664,-7.226 15.664,-19.218 v -26.133 h -15.312 v 23.847 c 0,5.012 -1.797,8.762 -6.133,8.762 -5.449,0 -8.691,-4.355 -8.691,-13.906 v -18.703 h -15.313 v 23.847 c 0,5.012 -1.816,8.762 -6.133,8.762 -5.449,0 -8.671,-4.355 -8.671,-13.906 v -18.703 h -15.313 v 44.308" /><path
             id="path30"
             style="fill:#ffffff;fill-opacity:1;fill-rule:nonzero;stroke:none"
             d="m 370.195,290.684 c 0,5.097 -2.383,9.285 -8.515,9.285 -5.547,0 -8.184,-4.188 -8.516,-9.285 z m -16.855,-8.672 c 0.84,-6.125 5.527,-8.528 13.008,-8.528 4.179,0 8.964,0.95 13.554,3.43 v -10.801 c -4.941,-1.992 -10.566,-2.843 -16.289,-2.843 -14.609,0 -25.761,8.605 -25.761,23.242 0,14.66 9.941,23.144 23.75,23.144 16.406,0 22.382,-11.648 22.382,-24.832 v -2.812 H 353.34" /><path
             id="path32"
             style="fill:#ffffff;fill-opacity:1;fill-rule:nonzero;stroke:none"
             d="m 421.934,296.387 c -1.7,0.527 -3.418,0.527 -5.196,0.527 -7.129,0 -11.152,-5.215 -11.152,-13.898 v -18.711 h -15.332 v 44.308 h 13.984 v -8.125 h 0.176 c 2.637,5.598 6.465,9.168 13.106,9.168 1.777,0 3.671,-0.261 5.195,-0.468 l -0.781,-12.801" /><path
             id="path34"
             style="fill:#ffffff;fill-opacity:1;fill-rule:nonzero;stroke:none"
             d="m 442.969,315.867 h -15.313 v 11.262 h 15.313 z m -15.313,-7.254 h 15.293 v -44.308 h -15.293 v 44.308" /><path
             id="path36"
             style="fill:#ffffff;fill-opacity:1;fill-rule:nonzero;stroke:none"
             d="m 483.984,295.957 c -2.812,1.699 -5.625,2.461 -9.316,2.461 -6.582,0 -11.719,-4.563 -11.719,-12.227 0,-7.082 5.996,-11.687 12.617,-11.687 3.477,0 6.993,0.777 9.512,2.144 l 0.332,-11.386 c -3.789,-1.309 -8.418,-1.992 -12.5,-1.992 -14.629,0 -25.781,8.515 -25.781,23.164 0,14.738 11.152,23.222 25.781,23.222 4.629,0 8.711,-0.738 12.168,-2.468 l -1.094,-11.231" /><path
             id="path38"
             style="fill:#ffffff;fill-opacity:1;fill-rule:nonzero;stroke:none"
             d="m 534.629,264.305 c -0.684,3.488 -0.859,6.996 -0.859,10.48 v 16.516 c 0,13.535 -9.766,18.355 -21.114,18.355 -6.543,0 -12.265,-0.918 -17.715,-3.133 l 0.293,-10.402 c 4.239,2.395 9.161,3.359 14.102,3.359 5.547,0 10.039,-1.636 10.117,-7.683 -1.933,0.332 -4.668,0.605 -7.148,0.605 -8.164,0 -22.891,-1.621 -22.891,-15.156 0,-9.617 7.832,-13.976 16.602,-13.976 6.289,0 10.566,2.453 14.062,8.031 h 0.137 c 0,-2.317 0.273,-4.602 0.332,-6.996 z m -30.918,14.043 c 0,4.257 4.082,5.879 9.297,5.879 2.304,0 4.512,-0.196 6.445,-0.274 0,-5.183 -3.633,-10.457 -9.433,-10.457 -3.575,0 -6.309,1.785 -6.309,4.852" /><path
             id="path40"
             style="fill:#ffffff;fill-opacity:1;fill-rule:nonzero;stroke:none"
             d="m 542.012,308.613 h 13.965 v -8.105 h 0.195 c 3.066,6.347 9.14,9.148 16.152,9.148 12.09,0 16.953,-8.484 16.953,-17.683 v -27.668 h -15.351 v 21.437 c 0,8.352 -2.871,11.172 -7.051,11.172 -6.309,0 -9.531,-4.355 -9.531,-13.906 v -18.703 h -15.332 v 44.308" /><path
             id="path42"
             style="fill:#ffffff;fill-opacity:1;fill-rule:nonzero;stroke:none"
             d="m 239.805,192.676 c -4.512,-1.114 -9.551,-2.383 -17.617,-2.383 -15.821,0 -34.122,8 -34.122,30.488 0,20.672 14.454,30.965 34.043,30.965 6.016,0 11.895,-1.355 17.618,-3.055 l -1.289,-12.843 c -5.079,2.793 -10.02,4.172 -15.469,4.172 -11.25,0 -18.555,-8.184 -18.555,-19.239 0,-11.648 8.242,-18.73 19.805,-18.73 5.195,0 10.488,1.394 14.804,3.086 l 0.782,-12.461" /><path
             id="path44"
             style="fill:#ffffff;fill-opacity:1;fill-rule:nonzero;stroke:none"
             d="m 289.082,191.348 c -0.703,3.476 -0.859,6.945 -0.859,10.457 v 16.488 c 0,13.543 -9.785,18.406 -21.094,18.406 -6.563,0 -12.266,-0.957 -17.695,-3.144 l 0.254,-10.403 c 4.257,2.403 9.179,3.321 14.14,3.321 5.508,0 10.02,-1.621 10.098,-7.645 -1.953,0.32 -4.668,0.598 -7.149,0.598 -8.144,0 -22.89,-1.606 -22.89,-15.16 0,-9.61 7.812,-13.973 16.601,-13.973 6.289,0 10.528,2.488 14.063,8 h 0.156 c 0,-2.277 0.254,-4.563 0.332,-6.945 z m -30.879,14.074 c 0,4.226 4.082,5.808 9.258,5.808 2.324,0 4.512,-0.144 6.465,-0.253 0,-5.184 -3.653,-10.469 -9.434,-10.469 -3.594,0 -6.289,1.816 -6.289,4.914" /><path
             id="path46"
             style="fill:#ffffff;fill-opacity:1;fill-rule:nonzero;stroke:none"
             d="M 296.055,235.684 H 310.02 V 227.5 h 0.195 c 3.047,6.387 9.18,9.18 16.133,9.18 12.09,0 16.933,-8.496 16.933,-17.707 v -27.625 h -15.293 v 21.425 c 0,8.348 -2.91,11.161 -7.09,11.161 -6.289,0 -9.531,-4.344 -9.531,-13.895 v -18.691 h -15.312 v 44.336" /><path
             id="path48"
             style="fill:#ffffff;fill-opacity:1;fill-rule:nonzero;stroke:none"
             d="m 386.016,222.969 c -2.813,1.726 -5.606,2.492 -9.278,2.492 -6.621,0 -11.758,-4.621 -11.758,-12.219 0,-7.109 5.997,-11.711 12.618,-11.711 3.476,0 6.992,0.793 9.531,2.149 l 0.332,-11.422 c -3.867,-1.274 -8.418,-1.965 -12.5,-1.965 -14.609,0 -25.801,8.523 -25.801,23.176 0,14.715 11.192,23.211 25.801,23.211 4.609,0 8.633,-0.774 12.168,-2.469 l -1.113,-11.242" /><path
             id="path50"
             style="fill:#ffffff;fill-opacity:1;fill-rule:nonzero;stroke:none"
             d="m 438.105,209.031 v 2.793 c 0,13.215 -5.957,24.875 -22.382,24.875 -13.789,0 -23.75,-8.515 -23.75,-23.144 0,-14.668 11.152,-23.262 25.781,-23.262 5.703,0 11.348,0.867 16.269,2.812 v 10.813 c -4.609,-2.465 -9.375,-3.383 -13.535,-3.383 -7.5,0 -12.168,2.356 -13.027,8.496 z m -30.82,8.684 c 0.352,5.105 2.969,9.277 8.516,9.277 6.133,0 8.515,-4.172 8.515,-9.277 h -17.031" /><path
             id="path52"
             style="fill:#ffffff;fill-opacity:1;fill-rule:nonzero;stroke:none"
             d="m 476.055,223.418 c -1.7,0.508 -3.379,0.508 -5.176,0.508 -7.168,0 -11.172,-5.164 -11.172,-13.867 v -18.711 h -15.293 v 44.316 h 13.945 V 227.5 h 0.176 c 2.617,5.613 6.465,9.199 13.086,9.199 1.797,0 3.672,-0.265 5.195,-0.519 l -0.761,-12.762" /><path
             id="path54"
             style="fill:#ffffff;fill-opacity:1;fill-rule:nonzero;stroke:none"
             d="m 190.449,133.016 c 4.082,-2.215 9.766,-3.907 16.348,-3.907 5,0 9.785,0.981 9.785,5.735 0,11.094 -28.105,4.109 -28.105,25.73 0,14.317 13.964,18.203 25.878,18.203 5.723,0 11.329,-0.855 15.333,-2.215 l -1.036,-12.238 c -4.082,1.867 -8.691,2.707 -13.164,2.707 -4.023,0 -10.683,-0.359 -10.683,-5.5 0,-9.629 28.105,-3.172 28.105,-24.617 0,-15.391 -12.949,-19.57 -26.113,-19.57 -5.547,0 -12.442,0.859 -17.715,2.558 l 1.367,13.114" /><path
             id="path56"
             style="fill:#ffffff;fill-opacity:1;fill-rule:nonzero;stroke:none"
             d="m 261.934,117.324 c 14.648,0 25.8,8.535 25.8,23.172 0,14.719 -11.152,23.203 -25.8,23.203 -14.649,0 -25.782,-8.484 -25.782,-23.203 0,-14.637 11.133,-23.172 25.782,-23.172 m 0,10.731 c -7.051,0 -9.961,5.851 -9.961,12.441 0,6.641 2.91,12.5 9.961,12.5 7.07,0 9.961,-5.859 9.961,-12.5 0,-6.59 -2.891,-12.441 -9.961,-12.441" /><path
             id="path58"
             style="fill:#ffffff;fill-opacity:1;fill-rule:nonzero;stroke:none"
             d="m 328.066,150 c -2.812,1.711 -5.605,2.5 -9.296,2.5 -6.602,0 -11.758,-4.59 -11.758,-12.285 0,-7.039 5.996,-11.641 12.597,-11.641 3.516,0 7.012,0.75 9.551,2.11 l 0.332,-11.36 c -3.828,-1.308 -8.398,-1.98 -12.48,-1.98 -14.649,0 -25.821,8.515 -25.821,23.125 0,14.746 11.172,23.23 25.821,23.23 4.59,0 8.652,-0.738 12.148,-2.488 L 328.066,150" /><path
             id="path60"
             style="fill:#ffffff;fill-opacity:1;fill-rule:nonzero;stroke:none"
             d="m 351.816,169.922 h -15.351 v 11.25 h 15.351 z m -15.351,-7.238 h 15.351 v -44.336 h -15.351 v 44.336" /><path
             id="path62"
             style="fill:#ffffff;fill-opacity:1;fill-rule:nonzero;stroke:none"
             d="m 404.648,136.086 v 2.781 c 0,13.184 -5.957,24.832 -22.363,24.832 -13.769,0 -23.769,-8.457 -23.769,-23.125 0,-14.636 11.172,-23.25 25.8,-23.25 5.743,0 11.329,0.879 16.25,2.821 v 10.785 c -4.609,-2.453 -9.336,-3.371 -13.515,-3.371 -7.481,0 -12.188,2.39 -13.028,8.527 z m -30.82,8.66 c 0.352,5.09 3.008,9.238 8.535,9.238 6.133,0 8.516,-4.148 8.516,-9.238 h -17.051" /><path
             id="path64"
             style="fill:#ffffff;fill-opacity:1;fill-rule:nonzero;stroke:none"
             d="m 406.035,162.684 h 9.024 v 9.984 l 15.039,4.656 v -14.64 h 10.742 v -10.731 h -10.742 v -16.348 c 0,-5.324 1.269,-8.046 6.172,-8.046 1.523,0 3.125,0.324 4.628,0.566 l 0.528,-9.922 c -2.891,-0.371 -5.801,-0.859 -9.61,-0.859 -13.711,0 -17.031,6.015 -17.031,16.562 v 18.047 h -8.75 v 10.731" /><path
             id="path66"
             style="fill:#ffffff;fill-opacity:1;fill-rule:nonzero;stroke:none"
             d="m 449.16,112.148 c 2.051,-0.656 3.926,-0.957 6.055,-0.957 3.75,0 6.621,2.215 7.734,6.133 L 445,162.684 h 16.504 l 9.531,-28.914 h 0.176 l 9.121,28.914 h 15.313 l -16.231,-41.258 c -4.375,-11.145 -7.695,-21.9338 -21.738,-21.9338 -3.242,0 -6.367,0.3047 -9.512,1.0038 l 0.996,11.652" /><path
             id="path68"
             style="fill:#ffffff;fill-opacity:1;fill-rule:nonzero;stroke:none"
             d="m 512.949,155.527 v 3.993 h 2.442 c 1.386,0 3.164,-0.184 3.164,-1.817 0,-1.894 -1.114,-2.176 -2.793,-2.176 z m -3.457,-9.472 h 3.457 v 6.804 h 1.641 l 3.887,-6.804 h 3.535 l -4.258,6.972 c 2.461,0.227 4.258,1.387 4.258,4.317 0,3.625 -2.324,4.824 -6.446,4.824 h -6.074 z m -8.691,7.968 c 0,-7.968 6.504,-14.492 14.531,-14.492 7.988,0 14.531,6.524 14.531,14.492 0,8.055 -6.543,14.551 -14.531,14.551 -8.027,0 -14.531,-6.496 -14.531,-14.551 m 4.179,0 c 0,6.692 4.512,11.36 10.352,11.36 5.742,0 10.332,-4.668 10.332,-11.36 0,-6.718 -4.59,-11.3 -10.332,-11.3 -5.84,0 -10.352,4.582 -10.352,11.3" /><path
             id="path70"
             style="fill:#ffffff;fill-opacity:1;fill-rule:nonzero;stroke:none"
             d="m 100.02,151.453 c 2.753,2.133 8.32,2.961 11.289,-0.312 2.91,-3.258 2.285,-8.211 -0.938,-11.2 -3.633,-3.253 -30.8593,-25.058 -36.2108,-28.972 -1.9141,-1.391 -7.6172,-1.77 -10.2735,1.343 -2.7539,3.118 -1.3281,8.907 0.6055,10.61 3.0078,2.715 32.6758,26.363 35.5278,28.531" /><path
             id="path72"
             style="fill:#ffffff;fill-opacity:1;fill-rule:nonzero;stroke:none"
             d="m 94.9609,121.523 c 2.8711,2.039 7.9881,2.743 10.8791,-0.273 2.949,-3.195 2.383,-8.215 -0.801,-11.191 -4.082,-3.797 -23.7109,-18.5473 -26.5624,-20.6176 -1.9727,-1.3555 -7.5977,-1.7852 -10.2735,1.2109 -2.7148,3.2422 -2.4609,8.1641 0.6641,10.6877 3.5351,3.074 22.9883,17.984 26.0937,20.183" /><path
             id="path74"
             style="fill:#ffffff;fill-opacity:1;fill-rule:nonzero;stroke:none"
             d="m 93.0664,94.7734 0.1172,-11.3359 c 5.2734,-3.6523 5.8594,-12.207 1.0156,-16.4727 -5.1758,-4.6406 -15.039,-1.9062 -17.0703,4.6758 v 11.5235 c 2.793,1.5039 15.9375,11.6093 15.9375,11.6093" /><path
             id="path76"
             style="fill:#ffffff;fill-opacity:1;fill-rule:nonzero;stroke:none"
             d="m 85.0391,386.094 8.1445,-19.739 V 176.523 l -8.0469,-6.191 -8.0078,6.387 v 189.636 l 7.9102,19.739" /><path
             id="path78"
             style="fill:#ffffff;fill-opacity:1;fill-rule:nonzero;stroke:none"
             d="M 116.191,208.66 H 98.9648 l 5.4102,-8.64 -6.1328,-8.829 c 7.2268,-3.601 14.5698,3.504 16.5238,1.477 1.132,-1.066 2.031,-3.02 0.82,-3.988 L 59.4727,144.355 c -2.4805,-3.117 -2.2266,-7.402 0.6054,-10.222 2.8711,-2.817 6.9531,-3.02 10.1758,-0.649 l 57.6171,45.266 c 4.688,5.691 5.274,11.727 2.891,18.73 -2.559,7.118 -7.461,10.157 -14.571,11.18" /><path
             id="path80"
             style="fill:#ffffff;fill-opacity:1;fill-rule:nonzero;stroke:none"
             d="m 53.5352,208.523 h 17.8125 l -5.4883,-8.554 6.2304,-8.828 c -7.2851,-3.621 -15.3125,3.324 -17.3437,1.261 -0.9961,-1.093 -1.7773,-2.871 -0.5859,-3.789 L 81.0938,167.285 68.75,157.637 41.9336,178.68 c -4.707,5.644 -5.3516,11.758 -2.8711,18.722 2.5,7.071 7.4414,10.164 14.4727,11.121" /><path
             id="path82"
             style="fill:#ffffff;fill-opacity:1;fill-rule:nonzero;stroke:none"
             d="m 187.031,264.305 h 16.094 l 4.668,12.668 h 22.305 l 4.433,-12.668 h 17.364 l -22.911,59.394 h -19.355 z m 39.356,23.898 h -14.922 l 7.676,23.262 h 0.156 l 7.09,-23.262" /></g></g></g></g></svg>