<?xml version="1.0" encoding="UTF-8" standalone="no"?>
<svg width="820px" height="503px" viewBox="0 0 820 503" version="1.1" xmlns="http://www.w3.org/2000/svg" xmlns:xlink="http://www.w3.org/1999/xlink">
    <!-- Generator: Sketch 3.6.1 (26313) - http://www.bohemiancoding.com/sketch -->
    <title>American Cancer Society</title>
    <desc>Created with Sketch.</desc>
    <defs></defs>
    <g id="Page-1" stroke="none" stroke-width="1" fill="none" fill-rule="evenodd">
        <g id="American-Cancer-Society" transform="translate(0.000000, -8.000000)">
            <g id="g10" transform="translate(409.600000, 258.446225) scale(1, -1) translate(-409.600000, -258.446225) translate(0.000000, 6.712892)">
                <g id="g12">
                    <g id="g14">
                        <g id="g16-Clipped">
                            <g id="g16">
                                <path d="M652.977477,0 L0,0 L0,501.643934 L819.19998,501.643934 L652.977477,0" id="path22" fill="#FFFFFF"></path>
                                <path d="M173.333613,485.378263 L796.844922,485.378263 L641.289086,16.2310823 L173.333613,16.2310823 L173.333613,485.378263" id="path24" fill="#1C63B7"></path>
                                <path d="M16.5555765,16.2310823 L173.377759,16.2310823 L173.377759,485.399426 L16.5555765,485.399426 L16.5555765,16.2310823 Z" id="path26" fill="#CE0F3E"></path>
                                <path d="M291.93329,351.133005 L307.822357,351.133005 L307.822357,341.911316 L307.99985,341.911316 C311.489414,349.132791 318.489023,352.319707 326.399992,352.319707 C333.533858,352.319707 339.466232,349.222676 342.177556,342.6668 C346.222356,349.400169 352.955725,352.319707 360.088453,352.319707 C374.622426,352.319707 377.910604,344.098125 377.910604,330.453894 L377.910604,300.720348 L360.488951,300.720348 L360.488951,327.852934 C360.488951,333.555476 358.444364,337.822143 353.51096,337.822143 C347.311209,337.822143 343.622534,332.867121 343.622534,322.000205 L343.622534,300.720348 L326.199743,300.720348 L326.199743,327.852934 C326.199743,333.555476 324.133539,337.822143 319.221752,337.822143 C313.022001,337.822143 309.356081,332.867121 309.356081,322.000205 L309.356081,300.720348 L291.93329,300.720348 L291.93329,351.133005" id="path28" fill="#FFFFFF"></path>
                                <path d="M421.199634,330.733787 C421.199634,336.53304 418.48831,341.298054 411.511456,341.298054 C405.200203,341.298054 402.199883,336.53304 401.822141,330.733787 L421.199634,330.733787 Z M402.02239,320.866979 C402.978123,313.89809 408.310888,311.16401 416.822603,311.16401 C421.577376,311.16401 427.021643,312.244899 432.244043,315.066588 L432.244043,302.77745 C426.622283,300.510997 420.222283,299.542748 413.710781,299.542748 C397.088986,299.542748 384.400488,309.333326 384.400488,325.986979 C384.400488,342.6668 395.711137,352.319707 411.42271,352.319707 C430.089091,352.319707 436.888451,339.066872 436.888451,324.06641 L436.888451,320.866979 L402.02239,320.866979 L402.02239,320.866979 Z" id="path30" fill="#FFFFFF"></path>
                                <path d="M480.067117,337.222534 C478.132895,337.822143 476.178193,337.822143 474.155224,337.822143 C466.044006,337.822143 461.466726,331.888632 461.466726,322.009308 L461.466726,300.720348 L444.022318,300.720348 L444.022318,351.133005 L459.933002,351.133005 L459.933002,341.88856 L460.133251,341.88856 C463.133571,348.25784 467.488984,352.319707 475.044966,352.319707 C477.066797,352.319707 479.221748,352.022747 480.955721,351.787227 L480.067117,337.222534" id="path32" fill="#FFFFFF"></path>
                                <path d="M504.000272,359.386444 L486.577481,359.386444 L486.577481,372.200097 L504.000272,372.200097 L504.000272,359.386444 Z M486.577481,351.133005 L503.977516,351.133005 L503.977516,300.720348 L486.577481,300.720348 L486.577481,351.133005 L486.577481,351.133005 Z" id="path34" fill="#FFFFFF"></path>
                                <path d="M550.666226,336.733289 C547.466795,338.666374 544.266226,339.53336 540.066689,339.53336 C532.577836,339.53336 526.733071,334.341681 526.733071,325.621752 C526.733071,317.56401 533.555187,312.324543 541.088413,312.324543 C545.044466,312.324543 549.044893,313.208597 551.910955,314.763939 L552.288697,301.809201 C547.977657,300.31985 542.710884,299.542748 538.066475,299.542748 C521.421925,299.542748 508.733427,309.230926 508.733427,325.898232 C508.733427,342.6668 521.421925,352.319707 538.066475,352.319707 C543.333249,352.319707 547.977657,351.480027 551.910955,349.511671 L550.666226,336.733289" id="path36" fill="#FFFFFF"></path>
                                <path d="M608.28898,300.720348 C607.51074,304.688917 607.311629,308.680241 607.311629,312.644259 L607.311629,331.435796 C607.311629,346.835618 596.200092,352.319707 583.28859,352.319707 C575.84411,352.319707 569.333746,351.275227 563.132857,348.755049 L563.466226,336.919885 C568.289266,339.644863 573.889408,340.74168 579.511168,340.74168 C585.822421,340.74168 590.933319,338.880276 591.022065,332.000134 C588.822741,332.377876 585.710919,332.688489 582.88923,332.688489 C573.600412,332.688489 556.844359,330.844152 556.844359,315.44433 C556.844359,304.502321 565.755435,299.542748 575.733746,299.542748 C582.88923,299.542748 587.755505,302.333717 591.733176,308.680241 L591.889052,308.680241 C591.889052,306.04401 592.199665,303.444188 592.266794,300.720348 L608.28898,300.720348 Z M573.111168,316.698161 C573.111168,321.541681 577.755577,323.387156 583.689088,323.387156 C586.310528,323.387156 588.822741,323.164152 591.022065,323.075405 C591.022065,317.178303 586.888519,311.177663 580.289408,311.177663 C576.221852,311.177663 573.111168,313.208597 573.111168,316.698161 L573.111168,316.698161 Z" id="path38" fill="#FFFFFF"></path>
                                <path d="M616.689193,351.133005 L632.57826,351.133005 L632.57826,341.911316 L632.800126,341.911316 C636.288553,349.132791 643.199415,352.319707 651.177513,352.319707 C664.933246,352.319707 670.466259,342.6668 670.466259,332.200383 L670.466259,300.720348 L653.000233,300.720348 L653.000233,325.11089 C653.000233,334.613609 649.733673,337.822143 644.977762,337.822143 C637.799522,337.822143 634.133602,332.867121 634.133602,322.000205 L634.133602,300.720348 L616.689193,300.720348 L616.689193,351.133005" id="path40" fill="#FFFFFF"></path>
                                <path d="M272.844793,219.222466 C267.71114,217.954981 261.977878,216.511141 252.800563,216.511141 C234.799781,216.511141 213.97731,225.613363 213.97731,251.199709 C213.97731,274.719851 230.42275,286.430997 252.710678,286.430997 C259.555549,286.430997 266.244544,284.889308 272.756047,282.955086 L271.289451,268.342607 C265.510678,271.52042 259.888918,273.089415 253.689167,273.089415 C240.889167,273.089415 232.577701,263.777842 232.577701,251.199709 C232.577701,237.946874 241.955265,229.889132 255.111389,229.889132 C261.022145,229.889132 267.044402,231.475194 271.955051,233.400314 L272.844793,219.222466" id="path42" fill="#FFFFFF"></path>
                                <path d="M328.911067,217.711497 C328.11121,221.666412 327.933716,225.613363 327.933716,229.609239 L327.933716,248.368918 C327.933716,263.777842 316.800561,269.310855 303.933432,269.310855 C296.466197,269.310855 289.977451,268.222002 283.800455,265.733682 L284.089451,253.89738 C288.932971,256.63146 294.533113,257.67594 300.177628,257.67594 C306.444508,257.67594 311.578161,255.831602 311.666908,248.977629 C309.444828,249.341718 306.355761,249.65802 303.532935,249.65802 C294.266873,249.65802 277.489202,247.830749 277.489202,232.40931 C277.489202,221.475266 286.377522,216.511141 296.37745,216.511141 C303.532935,216.511141 308.355975,219.341932 312.378019,225.613363 L312.555512,225.613363 C312.555512,223.022643 312.844508,220.421683 312.933254,217.711497 L328.911067,217.711497 Z M293.777628,233.724581 C293.777628,238.53283 298.422037,240.332794 304.311175,240.332794 C306.95537,240.332794 309.444828,240.168954 311.666908,240.044936 C311.666908,234.146696 307.510606,228.133541 300.933112,228.133541 C296.843939,228.133541 293.777628,230.199745 293.777628,233.724581 L293.777628,233.724581 Z" id="path44" fill="#FFFFFF"></path>
                                <path d="M336.844792,268.156011 L352.733858,268.156011 L352.733858,258.844438 L352.955725,258.844438 C356.422533,266.111424 363.400524,269.289238 371.311493,269.289238 C385.067226,269.289238 390.577484,259.622678 390.577484,249.142607 L390.577484,217.711497 L373.177448,217.711497 L373.177448,242.088385 C373.177448,251.586554 369.866515,254.787123 365.110604,254.787123 C357.95512,254.787123 354.266444,249.844616 354.266444,238.977701 L354.266444,217.711497 L336.844792,217.711497 L336.844792,268.156011" id="path46" fill="#FFFFFF"></path>
                                <path d="M439.200416,253.689167 C435.999847,255.652971 432.822034,256.524509 428.644114,256.524509 C421.110887,256.524509 415.266123,251.266838 415.266123,242.622003 C415.266123,234.533541 422.089376,229.297488 429.622603,229.297488 C433.577518,229.297488 437.577945,230.199745 440.466762,231.742572 L440.844505,218.746875 C436.444718,217.297346 431.266691,216.511141 426.622283,216.511141 C410.000488,216.511141 397.266479,226.208421 397.266479,242.880278 C397.266479,259.622678 410.000488,269.289238 426.622283,269.289238 C431.8663,269.289238 436.444718,268.408598 440.466762,266.480064 L439.200416,253.689167" id="path48" fill="#FFFFFF"></path>
                                <path d="M498.466121,237.830821 L498.466121,241.008634 C498.466121,256.044367 491.688379,269.310855 473.000379,269.310855 C457.311562,269.310855 445.978158,259.622678 445.978158,242.978127 C445.978158,226.289203 458.666655,216.511141 475.311206,216.511141 C481.799952,216.511141 488.222708,217.497595 493.821712,219.710572 L493.821712,232.013363 C488.577694,229.208741 483.155046,228.164261 478.42189,228.164261 C469.888557,228.164261 464.577411,230.844865 463.60006,237.830821 L498.466121,237.830821 Z M463.399811,247.711283 C463.800308,253.519638 466.777873,258.266447 473.089126,258.266447 C480.067117,258.266447 482.777303,253.519638 482.777303,247.711283 L463.399811,247.711283 L463.399811,247.711283 Z" id="path50" fill="#FFFFFF"></path>
                                <path d="M541.644786,254.200029 C539.710564,254.77802 537.800235,254.77802 535.755649,254.77802 C527.600058,254.77802 523.044396,248.902536 523.044396,239.000456 L523.044396,217.711497 L505.644361,217.711497 L505.644361,268.133256 L521.510671,268.133256 L521.510671,258.844438 L521.71092,258.844438 C524.688485,265.230784 529.066653,269.310855 536.59988,269.310855 C538.644467,269.310855 540.7778,269.009344 542.510635,268.720349 L541.644786,254.200029" id="path52" fill="#FFFFFF"></path>
                                <path d="M216.688635,151.342645 C221.333043,148.822467 227.800172,146.897347 235.289025,146.897347 C240.977914,146.897347 246.422181,148.013507 246.422181,153.422503 C246.422181,166.045009 214.444937,158.097632 214.444937,182.697524 C214.444937,198.987088 230.332865,203.408493 243.888349,203.408493 C250.399852,203.408493 256.778234,202.435693 261.333896,200.888315 L260.155158,186.964191 C255.510749,189.088422 250.266732,190.044155 245.177452,190.044155 C240.600172,190.044155 233.022572,189.635693 233.022572,183.786378 C233.022572,172.830716 264.999816,180.177347 264.999816,155.777703 C264.999816,138.266165 250.266732,133.511392 235.289025,133.511392 C228.977772,133.511392 221.132794,134.488743 215.133292,136.421828 L216.688635,151.342645" id="path54" fill="#FFFFFF"></path>
                                <path d="M298.022677,133.488637 C314.688845,133.488637 327.377343,143.19957 327.377343,159.853223 C327.377343,176.600173 314.688845,186.25308 298.022677,186.25308 C281.355371,186.25308 268.688491,176.600173 268.688491,159.853223 C268.688491,143.19957 281.355371,133.488637 298.022677,133.488637 M298.022677,145.69813 C290.000206,145.69813 286.689273,152.355267 286.689273,159.853223 C286.689273,167.409205 290.000206,174.075445 298.022677,174.075445 C306.066766,174.075445 309.356081,167.409205 309.356081,159.853223 C309.356081,152.355267 306.066766,145.69813 298.022677,145.69813" id="path56" fill="#FFFFFF"></path>
                                <path d="M373.266195,170.666662 C370.066764,172.6134 366.888951,173.511107 362.689413,173.511107 C355.177804,173.511107 349.311422,168.288707 349.311422,159.533507 C349.311422,151.52469 356.133538,146.288636 363.644009,146.288636 C367.644435,146.288636 371.622106,147.14197 374.510924,148.689347 L374.888666,135.764192 C370.533253,134.275979 365.333609,133.511392 360.6892,133.511392 C344.021894,133.511392 331.310641,143.19957 331.310641,159.822503 C331.310641,176.600173 344.021894,186.25308 360.6892,186.25308 C365.9116,186.25308 370.533253,185.4134 374.510924,183.422289 L373.266195,170.666662" id="path58" fill="#FFFFFF"></path>
                                <path d="M400.288417,193.333471 L382.82239,193.333471 L382.82239,206.13347 L400.288417,206.13347 L400.288417,193.333471 Z M382.82239,185.098235 L400.288417,185.098235 L400.288417,134.653721 L382.82239,134.653721 L382.82239,185.098235 L382.82239,185.098235 Z" id="path60" fill="#FFFFFF"></path>
                                <path d="M460.399491,154.835623 L460.399491,157.999783 C460.399491,173.000245 453.621749,186.25308 434.955367,186.25308 C419.289305,186.25308 407.911528,176.630893 407.911528,159.941969 C407.911528,143.289454 420.622781,133.488637 437.266194,133.488637 C443.800451,133.488637 450.156078,134.488743 455.755082,136.698308 L455.755082,148.969241 C450.511064,146.178272 445.132789,145.133792 440.378016,145.133792 C431.8663,145.133792 426.51078,147.853081 425.555047,154.835623 L460.399491,154.835623 Z M425.33318,164.688778 C425.733678,170.480067 428.755616,175.199569 435.044114,175.199569 C442.022105,175.199569 444.733429,170.480067 444.733429,164.688778 L425.33318,164.688778 L425.33318,164.688778 Z" id="path62" fill="#FFFFFF"></path>
                                <path d="M461.977588,185.098235 L472.244895,185.098235 L472.244895,196.457808 L489.355934,201.755302 L489.355934,185.098235 L501.577943,185.098235 L501.577943,172.888742 L489.355934,172.888742 L489.355934,154.288352 C489.355934,148.230823 490.799774,145.133792 496.378299,145.133792 C498.111134,145.133792 499.933854,145.502432 501.643934,145.777774 L502.244681,134.488743 C498.955365,134.066628 495.644432,133.511392 491.310637,133.511392 C475.710566,133.511392 471.933144,140.355125 471.933144,152.355267 L471.933144,172.888742 L461.977588,172.888742 L461.977588,185.098235" id="path64" fill="#FFFFFF"></path>
                                <path d="M511.044254,127.599499 C513.377836,126.853117 515.511169,126.510646 517.933498,126.510646 C522.200165,126.510646 525.466725,129.030823 526.733071,133.488637 L506.311098,185.098235 L525.088982,185.098235 L535.933142,152.20053 L536.133391,152.20053 L546.511062,185.098235 L563.933853,185.098235 L545.466582,138.155801 C540.488804,125.475268 536.711382,113.200011 520.733569,113.200011 C517.044894,113.200011 513.489338,113.546692 509.911027,114.342113 L511.044254,127.599499" id="path66" fill="#FFFFFF"></path>
                                <path d="M583.621959,176.95516 L583.621959,181.498307 L586.400412,181.498307 C587.977372,181.498307 590.000341,181.288955 590.000341,179.430964 C590.000341,177.276013 588.732856,176.95516 586.822528,176.95516 L583.621959,176.95516 Z M579.688661,166.178129 L583.621959,166.178129 L583.621959,173.919569 L585.489052,173.919569 L589.911594,166.178129 L593.933638,166.178129 L589.088981,174.110716 C591.889052,174.368991 593.933638,175.688813 593.933638,179.022502 C593.933638,183.146947 591.289443,184.511142 586.599523,184.511142 L579.688661,184.511142 L579.688661,166.178129 Z M569.800235,175.243942 C569.800235,166.178129 577.200341,158.755267 586.333283,158.755267 C595.421852,158.755267 602.866332,166.178129 602.866332,175.243942 C602.866332,184.408742 595.421852,191.799746 586.333283,191.799746 C577.200341,191.799746 569.800235,184.408742 569.800235,175.243942 L569.800235,175.243942 Z M574.555008,175.243942 C574.555008,182.857951 579.688661,188.169098 586.333283,188.169098 C592.866403,188.169098 598.088803,182.857951 598.088803,175.243942 C598.088803,167.600351 592.866403,162.387054 586.333283,162.387054 C579.688661,162.387054 574.555008,167.600351 574.555008,175.243942 L574.555008,175.243942 Z" id="path68" fill="#FFFFFF"></path>
                                <path d="M113.80053,172.319853 C116.932833,174.746733 123.266841,175.688813 126.644904,171.964867 C129.955837,168.257987 129.244726,162.622574 125.577668,159.221756 C121.444121,155.520565 90.4666431,130.711321 84.3778254,126.258059 C82.2000051,124.67541 75.7111448,124.244192 72.6888657,127.786095 C69.5555396,131.333686 71.1777831,137.920281 73.3777902,139.857917 C76.7999981,142.946983 110.555588,169.853151 113.80053,172.319853" id="path70" fill="#FFFFFF"></path>
                                <path d="M108.044399,138.266165 C111.311073,140.586094 117.133082,141.38709 120.422397,137.955552 C123.777704,134.320352 123.133721,128.608708 119.511037,125.222681 C114.866628,120.902539 92.5333026,104.119976 89.2889293,101.764435 C87.0444352,100.222177 80.6444353,99.733274 77.5999696,103.14217 C74.5111306,106.831073 74.8000124,112.431101 78.3555678,115.302397 C82.3777259,118.799926 104.511144,135.764192 108.044399,138.266165" id="path72" fill="#FFFFFF"></path>
                                <path d="M105.888879,107.831066 L106.022227,94.933331 C112.022184,90.7778253 112.688922,81.044478 107.177754,76.1910594 C101.288844,70.911088 90.0667142,74.0222275 87.7555463,81.5110806 L87.7555463,94.6222625 C90.9333595,96.3333665 105.888879,107.831066 105.888879,107.831066" id="path74" fill="#FFFFFF"></path>
                                <path d="M96.7555958,439.289162 L106.022227,416.830567 L106.022227,200.843942 L96.8666429,193.79996 L87.7555463,201.066946 L87.7555463,416.830567 L96.7555958,439.289162" id="path76" fill="#FFFFFF"></path>
                                <path d="M132.199534,237.408705 L112.599947,237.408705 L118.755553,227.578305 L111.777789,217.532866 C120.000281,213.435728 128.354983,221.519639 130.578201,219.213363 C131.866166,218.000492 132.889028,215.777275 131.511179,214.675906 L67.6667148,164.243907 C64.844457,160.697454 65.1333388,155.822076 68.3555254,152.613543 C71.6221991,149.408423 76.2666079,149.177454 79.9333242,151.875125 L145.488779,203.377773 C150.822681,209.852866 151.489418,216.720492 148.778094,224.68835 C145.866521,232.787052 140.289134,236.244759 132.199534,237.408705" id="path78" fill="#FFFFFF"></path>
                                <path d="M60.9111594,237.25283 L81.1778255,237.25283 L74.9333599,227.520279 L82.0221704,217.475977 C73.7333457,213.356084 64.5999486,221.25795 62.2888944,218.910715 C61.155554,217.667123 60.266722,215.644155 61.6222705,214.599675 L92.2667212,190.333151 L78.2222203,179.355871 L47.711117,203.298128 C42.3555972,209.719746 41.6221856,216.676119 44.4444433,224.599603 C47.2888877,232.64483 52.9111027,236.163976 60.9111594,237.25283" id="path80" fill="#FFFFFF"></path>
                                <path d="M212.79971,300.720348 L231.111105,300.720348 L236.422252,315.133717 L261.800385,315.133717 L266.844153,300.720348 L286.600526,300.720348 L260.5329,368.29752 L238.511212,368.29752 L212.79971,300.720348 Z M257.578091,327.910961 L240.600172,327.910961 L249.333754,354.377947 L249.511247,354.377947 L257.578091,327.910961 L257.578091,327.910961 Z" id="path82" fill="#FFFFFF"></path>
                            </g>
                        </g>
                    </g>
                </g>
            </g>
        </g>
    </g>
</svg>