<?xml version="1.0" encoding="iso-8859-1"?><!-- Generator: Adobe Illustrator 16.0.0, SVG Export Plug-In . SVG Version: 6.00 Build 0) --><!DOCTYPE svg PUBLIC "-//W3C//DTD SVG 1.1//EN" "http://www.w3.org/Graphics/SVG/1.1/DTD/svg11.dtd"><svg version="1.1" id="Layer_1" xmlns="http://www.w3.org/2000/svg" xmlns:xlink="http://www.w3.org/1999/xlink" x="0px" y="0px" width="192.756px" height="192.756px" viewBox="0 0 192.756 192.756" style="enable-background:new 0 0 192.756 192.756;" xml:space="preserve"><g><polygon style="fill-rule:evenodd;clip-rule:evenodd;fill:#FFFFFF;" points="0,0 192.756,0 192.756,192.756 0,192.756 0,0	"/><path style="fill-rule:evenodd;clip-rule:evenodd;fill:#0077A6;" d="M8.484,177.699H7.933c0-0.275-0.138-0.689-0.138-0.828	c0-0.137,0-0.412-0.414-0.412H6.553v1.24H6.139v-2.896h1.242c0.552,0,0.965,0.139,0.965,0.689c0,0.414-0.138,0.553-0.275,0.689	c0.138,0.139,0.275,0.277,0.275,0.553v0.551c0,0.139,0,0.139,0.138,0.139V177.699L8.484,177.699z M7.933,175.631	c0-0.414-0.276-0.414-0.414-0.414H6.553v0.828h0.828C7.657,176.045,7.933,175.906,7.933,175.631L7.933,175.631L7.933,175.631z M10.278,176.182c0-1.654-1.379-3.035-3.173-3.035c-1.655,0-3.035,1.381-3.035,3.035c0,1.793,1.38,3.174,3.035,3.174	C8.898,179.355,10.278,177.975,10.278,176.182L10.278,176.182L10.278,176.182z M9.864,176.182c0,1.518-1.241,2.621-2.759,2.621	s-2.621-1.104-2.621-2.621c0-1.379,1.104-2.621,2.621-2.621S9.864,174.803,9.864,176.182L9.864,176.182z"/><path style="fill-rule:evenodd;clip-rule:evenodd;fill:#0077A6;" d="M179.818,120.451c0,4.139-2.621,6.068-7.312,6.068h-8.965	v-4.139h8.965c0.828,0,1.518-0.137,1.795-0.412c0.275-0.277,0.551-0.691,0.551-1.242c0-0.553-0.275-1.104-0.551-1.379	c-0.277-0.277-0.828-0.414-1.656-0.414c-4.275-0.139-9.656,0.137-9.656-5.932c0-2.76,1.793-5.795,6.621-5.795h9.242v4.139h-8.553	c-0.826,0-1.379,0-1.793,0.275c-0.414,0.414-0.689,0.828-0.689,1.518s0.414,1.104,0.965,1.381c0.553,0.137,1.105,0.275,1.795,0.275	h2.482c2.621,0,4.277,0.551,5.381,1.518C179.266,117.277,179.818,118.52,179.818,120.451L179.818,120.451L179.818,120.451z M160.367,116.312c-1.104-0.967-2.76-1.518-5.381-1.518h-2.482c-0.689,0-1.242-0.139-1.793-0.275	c-0.553-0.277-0.965-0.691-0.965-1.381s0.137-1.104,0.689-1.518c0.414-0.275,0.965-0.275,1.793-0.275h8.553v-4.139h-9.242	c-4.967,0-6.623,3.035-6.623,5.795c0,6.068,5.381,5.793,9.658,5.932c0.826,0,1.379,0.137,1.654,0.414	c0.275,0.275,0.553,0.826,0.553,1.379c0,0.551-0.277,0.965-0.553,1.242c-0.414,0.275-0.965,0.412-1.793,0.412h-8.967v4.139h8.967	c4.689,0,7.311-1.93,7.311-6.068C161.746,118.52,161.195,117.277,160.367,116.312L160.367,116.312L160.367,116.312z M142.709,122.52h-10.896v-3.863h10.621v-3.861h-10.621v-3.588h10.896v-4H127.26v19.312h15.449V122.52L142.709,122.52z M122.293,108.174c-1.518-0.828-3.311-0.967-5.656-0.967h-10.621v19.312h4.689v-7.035h4.967c1.654,0,2.621,0.139,3.311,0.828	c0.828,0.965,0.828,2.621,0.828,3.863v2.344h4.551v-3.725c0-1.793-0.137-2.621-0.689-3.586c-0.414-0.553-1.24-1.242-2.344-1.656	c1.24-0.412,3.311-2.068,3.311-5.104C124.639,110.242,123.811,109,122.293,108.174L122.293,108.174L122.293,108.174z M96.083,107.207H81.322l-5.932,6.346l-5.656-6.346H51.111v19.312h18.348l5.932-6.346l5.656,6.346h8.967v-6.482h5.794	c4,0,8.002-1.104,8.002-6.484C103.809,108.311,99.67,107.207,96.083,107.207L96.083,107.207L96.083,107.207z M118.568,115.209	c-0.689,0.275-1.379,0.275-2.207,0.275l-5.656,0.139v-4.416h5.656c0.828,0,1.656,0,2.207,0.414	c0.553,0.277,0.965,0.828,0.965,1.656S119.121,114.795,118.568,115.209L118.568,115.209L118.568,115.209z M96.083,116.174h-6.07	v-4.967h6.07c1.656,0,2.759,0.691,2.759,2.346C98.842,115.209,97.738,116.174,96.083,116.174L96.083,116.174L96.083,116.174z M78.287,116.863l7.173-7.586v15.588L78.287,116.863L78.287,116.863z M67.113,122.52h-11.45v-3.863h10.208v-3.861H55.663v-3.588	h11.588l5.104,5.656L67.113,122.52L67.113,122.52z M166.988,93.274h-6.621l-8.691-14.485v14.485h-9.379l-1.795-4.277h-9.656	l-1.793,4.277h-5.381c-2.207,0-5.104-0.552-6.758-2.208c-1.518-1.655-2.346-3.862-2.346-7.311c0-2.897,0.414-5.518,2.482-7.587	c1.379-1.518,3.863-2.207,7.035-2.207h4.414V78.1h-4.414c-1.654,0-2.621,0.276-3.586,1.104c-0.828,0.828-1.242,2.345-1.242,4.414	s0.414,3.587,1.242,4.553c0.689,0.689,1.932,0.965,3.172,0.965h2.07l6.621-15.174h6.898l7.725,18.209V73.961h7.174l8.139,13.381	V73.961h4.689V93.274L166.988,93.274z M112.223,73.961h-4.689v19.313h4.689V73.961L112.223,73.961z M102.428,74.789	c-1.518-0.828-3.172-0.828-5.517-0.828H86.288v19.313h4.552v-7.036h4.966c1.656,0,2.76,0.138,3.449,0.828	c0.828,0.966,0.689,2.622,0.689,3.725v2.483h4.689v-3.863c0-1.655-0.137-2.483-0.826-3.449c-0.414-0.552-1.242-1.242-2.207-1.655	c1.24-0.552,3.311-2.069,3.311-5.104C104.912,76.996,103.945,75.754,102.428,74.789L102.428,74.789L102.428,74.789z M82.977,89.274	h-10.76v-3.863h10.622v-4H72.217v-3.449h10.76v-4h-15.45v19.313h15.45V89.274L82.977,89.274z M64.078,73.961h-7.587l-5.656,13.105	l-6.07-13.105h-7.449V92.17l-7.863-18.209h-6.897l-8.277,19.313h4.966l1.793-4.277h9.656l1.793,4.277h9.381V78.1l6.759,15.174h4	l6.76-15.174v15.174h4.69V73.961L64.078,73.961z M138.848,84.859l-3.174-7.587l-3.172,7.587H138.848L138.848,84.859z M98.842,81.825c-0.689,0.414-1.379,0.414-2.345,0.414H90.84v-4.276h5.656c0.828,0,1.792,0,2.345,0.276	c0.551,0.414,0.828,0.966,0.828,1.793S99.393,81.548,98.842,81.825L98.842,81.825L98.842,81.825z M22.693,84.859l3.173-7.587	l3.173,7.587H22.693L22.693,84.859z M178.715,13.401H14.14v69.527l5.656-12.829h12.001l1.656,3.173v-3.173h14.071l3.173,6.897	l3.035-6.897h44.834c2.068,0,3.861,0.414,5.242,1.517v-1.517h12.277v1.517c2.068-1.104,4.689-1.517,7.725-1.517h17.795l1.656,3.173	v-3.173h13.105l1.932,3.173v-3.173h12.828v27.038H158.16l-2.482-4.138v4.138h-16.141l-1.793-4.414h-4.002l-1.793,4.414h-8.414	c-3.311,0-5.795-0.828-7.449-1.655v1.655H96.083v-6.208c0-0.828-0.138-0.966-0.69-0.966h-0.689v7.173H56.077v-3.449l-1.379,3.449	h-8.139l-1.379-3.311v3.311H29.591l-1.655-4.414h-4.001l-1.793,4.414H14.14v81.529h164.575v-49.525	c-1.793,0.828-4.277,1.242-6.76,1.242h-12.002v-1.656c-1.379,1.105-3.863,1.656-6.207,1.656h-37.799v-6.207	c0-0.828-0.137-0.828-0.828-0.828h-0.689v7.035h-12.416v-7.311c-2.068,0.965-4.414,0.965-6.483,0.965h-1.38v6.346H78.977	l-3.586-4.139l-4,4.139H46.972v-27.037h24.831l3.587,4.137l3.863-4.137h16.692c1.93,0,5.104,0.275,6.483,1.654v-1.654h14.898	c1.518,0,4.416,0.275,6.346,1.654v-1.654h22.486V105c1.242-1.104,3.588-1.654,5.656-1.654h12.553V105	c1.381-0.965,3.311-1.654,5.795-1.654h8.553V13.401L178.715,13.401z"/></g></svg>