<?xml version="1.0" encoding="UTF-8" standalone="no"?>
<svg width="3057px" height="506px" viewBox="0 0 3057 506" version="1.1" xmlns="http://www.w3.org/2000/svg" xmlns:xlink="http://www.w3.org/1999/xlink">
    <!-- Generator: Sketch 3.6.1 (26313) - http://www.bohemiancoding.com/sketch -->
    <title>AnyPresence</title>
    <desc>Created with Sketch.</desc>
    <defs>
        <path id="path-1" d="M1.55069461,405.737008 L523.520824,405.737008 L523.520824,0.0834761901 L1.55069461,0.0834761901 L1.55069461,405.737008 Z"></path>
        <path d="M112.711915,269.37175 C112.375953,269.37175 112.046579,269.352031 111.710617,269.325739 L110.570981,269.26001 C54.0832742,268.103175 8.13554734,221.349935 8.13554734,165.026512 C8.13554734,107.49367 55.0450474,60.6812746 112.711915,60.6812746 L293.274953,60.6812746 L368.260326,12.1796362 L368.260326,60.6812746 L412.356969,60.6812746 C470.023837,60.6812746 516.933337,107.49367 516.933337,165.026512 C516.933337,222.565927 470.023837,269.37175 412.356969,269.37175 L388.503676,269.37175 L388.628838,272.789673 C388.760588,275.990689 388.8594,279.191705 388.734238,282.399294 C388.338989,289.603223 387.212528,297.135799 385.387794,304.760396 C383.273211,313.587839 380.335191,321.902593 376.679135,329.48118 C369.768861,343.626121 359.762467,356.693103 347.753477,367.249226 C324.43377,387.829065 294.592451,399.167366 263.716896,399.167366 L262.564086,399.160793 C231.306456,399.009616 201.366325,387.382105 178.244243,366.394745 C166.492165,355.772893 156.834908,342.751922 150.280357,328.745012 C146.828514,321.317603 144.094706,313.259192 142.157985,304.793261 C140.425476,297.208101 139.411003,289.668953 139.134328,282.392721 C138.949879,279.145694 139.002578,275.938105 139.081628,272.743662 L139.167266,269.37175 L112.711915,269.37175 Z M374.847814,0.0854480686 L291.331645,54.1083462 L112.711915,54.1083462 C51.4219292,54.1083462 1.54805961,103.871987 1.54805961,165.026512 C1.54805961,224.899317 50.3876936,274.603801 110.426057,275.832938 L111.236318,275.878949 C111.723792,275.918386 112.211266,275.944678 112.711915,275.944678 L132.434853,275.944678 C132.408503,278.199193 132.428266,280.453707 132.553428,282.701648 C132.843277,290.326245 133.91045,298.272916 135.735185,306.259024 C137.777306,315.165342 140.662625,323.664138 144.312094,331.518787 C151.228956,346.314449 161.426387,360.058442 173.817451,371.258712 C198.145043,393.337179 229.64641,405.575971 262.524561,405.733721 L263.716896,405.740294 C296.199798,405.740294 327.589177,393.817002 352.107806,372.172349 C364.76237,361.057527 375.315526,347.28067 382.601287,332.346976 C386.47473,324.334577 389.570849,315.572863 391.79742,306.291888 C393.714379,298.286062 394.900127,290.352537 395.315138,282.708221 C395.400776,280.433988 395.387601,278.186047 395.334901,275.944678 L411.922195,275.944678 C473.646955,275.944678 523.520824,226.187611 523.520824,165.026512 C523.520824,103.871987 473.646955,54.1083462 412.356969,54.1083462 L374.847814,54.1083462 L374.847814,0.0854480686 Z" id="path-3"></path>
        <linearGradient x1="50.0000202%" y1="-0.467287251%" x2="50.0000202%" y2="99.9664058%" id="linearGradient-5">
            <stop stop-color="#F89734" offset="0%"></stop>
            <stop stop-color="#FFFFFF" offset="100%"></stop>
        </linearGradient>
    </defs>
    <g id="Page-1" stroke="none" stroke-width="1" fill="none" fill-rule="evenodd">
        <g id="AnyPresence" transform="translate(-3.000000, -3.000000)">
            <g id="g10" transform="translate(1533.500000, 256.985359) scale(1, -1) translate(-1533.500000, -256.985359) translate(0.000000, 0.985359)">
                <g id="g12" transform="translate(0.000000, -0.000000)">
                    <g id="g14-Clipped" transform="translate(0.000000, 0.000000)">
                        <g id="g14">
                            <g id="g20" transform="translate(658.651517, 118.368093)" fill="#F89734">
                                <path d="M144.92473,72.3022119 L144.92473,98.2455601 C138.785191,110.017675 124.220256,115.926737 101.203574,115.926737 C73.5954128,112.85718 59.0173025,102.14988 57.4890054,83.7785448 C59.0173025,65.5649603 73.5954128,55.6924219 101.203574,54.1609296 C124.220256,54.1609296 138.785191,60.2080237 144.92473,72.3022119 L144.92473,72.3022119 Z M18.3725033,205.456594 C47.5155489,223.827929 81.2632486,233.003737 119.615602,233.003737 C147.230351,233.003737 169.087635,225.352849 185.194042,210.051071 C201.293862,194.736148 209.343772,171.783483 209.343772,141.179928 L209.343772,3.42449567 L144.92473,3.42449567 L144.92473,21.7958304 C126.20309,9.5504649 109.339121,3.42449567 94.3064742,3.42449567 C63.6219564,3.42449567 40.6184493,9.92512181 25.2827779,22.93952 C9.94710646,35.9473452 2.27927075,53.9308771 2.27927075,76.883543 C2.27927075,98.3112894 9.51891976,117.451657 24.0113928,134.284926 C38.5104532,151.124769 61.9355596,159.531544 94.3064742,159.531544 C109.181022,159.531544 126.064753,154.950213 144.92473,145.761259 L144.92473,152.656261 C144.615118,169.482958 132.342628,178.678484 108.113849,180.203404 C80.5056875,180.203404 59.0173025,175.608927 43.6816311,166.426546 L18.3725033,205.456594 Z" id="path22"></path>
                            </g>
                            <g id="g24" transform="translate(893.446706, 121.681091)" fill="#F89734">
                                <path d="M65.8748772,146.117927 L65.8748772,0.113469374 L1.45583479,0.113469374 L1.45583479,223.027762 L65.8748772,229.922763 L65.8748772,209.020851 C81.3686484,222.797709 99.7675016,229.692711 121.097787,229.692711 C150.240833,229.692711 172.486779,220.884987 187.82245,203.282685 C203.158121,185.686956 210.825957,165.416045 210.825957,142.44366 L210.825957,0.113469374 L146.406915,0.113469374 L146.406915,126.385996 C146.406915,141.687773 142.572997,153.551909 134.905161,161.958684 C127.22415,170.378605 115.643347,174.821905 100.149576,175.288583 C86.8099132,174.3618 75.380622,164.640439 65.8748772,146.117927" id="path26"></path>
                            </g>
                            <g id="g28" transform="translate(1123.931280, 23.753419)" fill="#F89734">
                                <path d="M146.442911,177.469066 L146.442911,327.621041 L210.861953,327.621041 L210.861953,116.413134 C210.861953,84.2649415 200.895084,57.4079562 180.948171,35.8290325 C161.007846,14.2501087 137.233603,2.85265091 109.618854,1.61694037 L95.8114801,0.243198349 C63.6118401,1.15683539 34.4556194,13.8623059 8.38893049,38.346464 L38.3027122,72.7886086 C56.7015654,59.0183237 74.1122955,51.3608622 90.5283149,49.8227969 C110.46864,49.8227969 124.763489,54.8050766 133.432622,64.7564901 C142.108344,74.7013307 146.442911,88.8659913 146.442911,107.217607 L146.442911,118.930566 C130.178404,105.00253 111.384301,98.0417993 90.0606033,98.0417993 C60.9241451,98.0417993 38.678199,106.836377 23.3359401,124.43868 C8.00026871,142.034409 0.332433002,162.318466 0.332433002,185.277704 L0.332433002,327.621041 L64.7580629,327.621041 L64.7580629,201.348514 C64.7580629,186.046737 68.5919808,174.182601 76.2598165,165.76268 C83.9276522,157.349332 95.5084556,152.912605 111.008814,152.445927 C124.506577,153.37271 136.317942,161.707183 146.442911,177.469066" id="path30"></path>
                            </g>
                            <g id="g32" transform="translate(1354.248719, 20.852128)" fill="#606163">
                                <path d="M65.8748772,236.625421 L65.8748772,199.435792 C68.938059,173.722496 85.0444665,158.637626 114.187512,154.207472 C151.011569,157.106134 171.709455,176.161053 176.320696,211.37223 C174.772637,254.227723 154.07475,276.411356 114.187512,277.949421 C85.0444665,273.354944 68.938059,259.578087 65.8748772,236.625421 L65.8748772,236.625421 Z M1.45583479,4.51560178 L1.45583479,323.854753 L65.8748772,330.749755 L65.8748772,312.37842 C83.0484577,324.630358 99.9190138,330.749755 116.493133,330.749755 C151.76913,330.749755 179.765952,319.273422 200.470426,296.30761 C221.181488,273.354944 231.537018,246.576834 231.537018,215.953561 C231.537018,185.350007 221.181488,158.571897 200.470426,135.606085 C179.765952,112.653419 151.76913,101.177086 116.493133,101.177086 C93.4830383,102.702006 76.6058947,108.900277 65.8748772,119.765328 L65.8748772,4.28554929 L1.45583479,4.51560178 Z" id="path34"></path>
                            </g>
                            <g id="g36" transform="translate(1594.653813, 120.846987)" fill="#606163">
                                <path d="M65.8748772,205.274282 C82.2908966,222.107552 102.310272,230.527473 125.933003,230.527473 C133.449326,230.527473 140.576988,229.909618 147.329163,228.693626 L137.204194,165.324024 C129.694458,172.061275 118.950266,175.656667 104.991379,176.116772 C89.346096,175.038812 76.3094578,163.720229 65.8748772,142.141305 L65.8748772,0.948231274 L1.45583479,0.948231274 L1.45583479,223.862523 L65.8748772,230.757525 L65.8748772,205.274282 Z" id="path38"></path>
                            </g>
                            <g id="g40" transform="translate(1737.236691, 117.340745)" fill="#606163">
                                <path d="M151.512218,170.896137 C142.316085,177.791139 131.571892,181.228781 119.30599,181.228781 C107.033501,181.228781 96.289308,177.791139 87.0931752,170.896137 C77.8904548,164.014281 73.2858009,154.437525 73.2858009,142.205305 L165.319592,142.205305 C165.319592,154.437525 160.721525,164.014281 151.512218,170.896137 M4.25551707,119.239493 C4.25551707,152.912605 14.9997095,180.459748 36.4749195,201.887494 C57.9501295,223.315241 85.5582905,234.029114 119.30599,234.029114 C153.040515,234.029114 179.897702,223.315241 199.838028,201.887494 C219.778353,180.459748 229.751809,152.912605 229.751809,119.239493 L229.751809,96.2802545 L70.9801802,96.2802545 C72.5150649,84.034889 77.8904548,74.4712782 87.0931752,67.5894223 C96.289308,60.6944204 107.033501,57.2567789 119.30599,57.2567789 C140.7812,57.2567789 159.950789,63.3827481 176.83452,75.6281136 L213.645402,38.8854441 C196.761671,15.9327783 165.319592,4.45644542 119.30599,4.45644542 C85.5582905,4.45644542 57.9501295,15.1637457 36.4749195,36.5980651 C14.9997095,58.0126656 4.25551707,85.5663813 4.25551707,119.239493" id="path42"></path>
                            </g>
                            <g id="g44" transform="translate(1972.044398, 114.889042)" fill="#606163">
                                <path d="M144.92473,230.052492 C156.887608,224.853306 168.099512,217.123542 178.520917,206.869774 L142.632284,166.465983 C132.197704,178.855953 119.167653,185.054225 103.52237,185.054225 C88.0154235,185.054225 77.6598928,182.195001 72.44919,176.456835 C67.2384872,170.705522 67.2384872,165.506336 72.44919,160.832984 C77.6598928,156.172778 88.0154235,152.307896 103.52237,149.238338 C126.374364,147.095564 145.076242,140.60151 159.654352,129.723314 C174.219288,118.864836 181.518224,99.9545215 181.518224,73.0186611 C181.518224,51.2885599 172.921553,34.4552904 155.747972,22.5188525 C138.567804,10.5758417 118.548429,4.60762278 95.6964342,4.60762278 C73.9050248,4.60762278 55.7762586,7.70347203 41.2771981,13.9017435 C26.7847251,20.1065878 14.3211983,28.4081963 3.88661776,38.8197149 L39.5512763,78.993453 C49.9858568,66.5903372 66.1581392,59.3995535 88.0944733,57.4079562 C105.735765,57.4079562 117.118944,60.2868989 122.27036,66.0250653 C127.402013,71.7632318 128.172749,77.5013982 124.569393,83.2395647 C120.966037,88.9777311 108.812122,92.842613 88.0944733,94.8342103 C69.3860082,96.9769849 52.2387776,102.715151 36.6791316,112.04871 C21.0997232,121.382268 13.3133127,138.98457 13.3133127,164.849043 C13.3133127,188.570742 22.1800712,206.672586 39.9004131,219.154577 C57.6141676,231.616849 75.8219837,237.861131 94.5436238,237.861131 C116.170346,237.861131 132.975027,235.251679 144.92473,230.052492" id="path46"></path>
                            </g>
                            <g id="g48" transform="translate(2153.419673, 117.340745)" fill="#606163">
                                <path d="M151.512218,170.896137 C142.316085,177.791139 131.571892,181.228781 119.292815,181.228781 C107.020326,181.228781 96.289308,177.791139 87.0931752,170.896137 C77.8772799,164.014281 73.2858009,154.437525 73.2858009,142.205305 L165.319592,142.205305 C165.319592,154.437525 160.70835,164.014281 151.512218,170.896137 M4.25551707,119.239493 C4.25551707,152.912605 14.9865346,180.459748 36.4617445,201.887494 C57.9369545,223.315241 85.5451156,234.029114 119.292815,234.029114 C153.040515,234.029114 179.884527,223.315241 199.824853,201.887494 C219.765178,180.459748 229.738634,152.912605 229.738634,119.239493 L229.738634,96.2802545 L70.9801802,96.2802545 C72.5150649,84.034889 77.8772799,74.4712782 87.0931752,67.5894223 C96.289308,60.6944204 107.020326,57.2567789 119.292815,57.2567789 C140.768025,57.2567789 159.937614,63.3827481 176.821345,75.6281136 L213.632227,38.8854441 C196.761671,15.9327783 165.319592,4.45644542 119.292815,4.45644542 C85.5451156,4.45644542 57.9369545,15.1637457 36.4617445,36.5980651 C14.9865346,58.0126656 4.25551707,85.5663813 4.25551707,119.239493" id="path50"></path>
                            </g>
                            <g id="g52" transform="translate(2401.698133, 121.681091)" fill="#606163">
                                <path d="M65.8748772,146.117927 L65.8748772,0.113469374 L1.45583479,0.113469374 L1.45583479,223.027762 L65.8748772,229.922763 L65.8748772,209.020851 C81.3686484,222.797709 99.7740891,229.692711 121.097787,229.692711 C150.240833,229.692711 172.486779,220.884987 187.82245,203.282685 C203.158121,185.686956 210.839132,165.416045 210.839132,142.44366 L210.839132,0.113469374 L146.406915,0.113469374 L146.406915,126.385996 C146.406915,141.687773 142.572997,153.551909 134.905161,161.958684 C127.230738,170.378605 115.656522,174.821905 100.162751,175.288583 C86.8230882,174.3618 75.380622,164.640439 65.8748772,146.117927" id="path54"></path>
                            </g>
                            <g id="g56" transform="translate(2619.213684, 117.623380)" fill="#606163">
                                <path d="M39.5249263,32.8646418 C16.5214192,51.9918633 5.01966565,76.8703971 5.01966565,107.480524 L5.01966565,130.446336 C5.01966565,161.049891 16.5214192,185.915278 39.5249263,205.055646 C62.5416084,224.182867 89.4580833,233.753051 120.287526,233.753051 C157.111582,233.753051 187.703875,220.73208 212.097342,194.723002 L166.077153,160.280858 C152.269779,174.051143 136.934107,180.946145 120.070139,180.946145 C104.714705,180.946145 91.2959924,174.826748 79.7942388,162.57481 C68.2924852,150.329444 62.5416084,135.7967 62.5416084,118.956857 C62.5416084,102.123588 67.9104109,87.5776974 78.6480159,75.3454777 C89.3790334,63.1001122 103.186408,56.974143 120.070139,56.974143 C136.934107,56.974143 152.269779,63.855999 166.077153,77.6328568 L212.097342,43.1972851 C187.552363,17.1750618 156.874433,4.1738095 120.070139,4.1738095 C89.3790334,4.1738095 62.5416084,13.7374203 39.5249263,32.8646418" id="path58"></path>
                            </g>
                            <g id="g60" transform="translate(2830.245171, 117.340745)" fill="#606163">
                                <path d="M151.512218,170.896137 C142.316085,177.791139 131.571892,181.228781 119.30599,181.228781 C107.033501,181.228781 96.289308,177.791139 87.0931752,170.896137 C77.8904548,164.014281 73.2858009,154.437525 73.2858009,142.205305 L165.319592,142.205305 C165.319592,154.437525 160.721525,164.014281 151.512218,170.896137 M4.25551707,119.239493 C4.25551707,152.912605 14.9997095,180.459748 36.4749195,201.887494 C57.9501295,223.315241 85.5582905,234.029114 119.30599,234.029114 C153.040515,234.029114 179.897702,223.315241 199.838028,201.887494 C219.778353,180.459748 229.751809,152.912605 229.751809,119.239493 L229.751809,96.2802545 L70.9801802,96.2802545 C72.5150649,84.034889 77.8904548,74.4712782 87.0931752,67.5894223 C96.289308,60.6944204 107.033501,57.2567789 119.30599,57.2567789 C140.7812,57.2567789 159.950789,63.3827481 176.83452,75.6281136 L213.645402,38.8854441 C196.761671,15.9327783 165.319592,4.45644542 119.30599,4.45644542 C85.5582905,4.45644542 57.9501295,15.1637457 36.4749195,36.5980651 C14.9997095,58.0126656 4.25551707,85.5663813 4.25551707,119.239493" id="path62"></path>
                            </g>
                            <g id="g64" transform="translate(1.414573, 3.830458)" fill="#F89734">
                                <path d="M447.949165,369.597491 C443.89786,401.469621 429.892861,431.921998 408.325427,455.663415 C394.12939,471.260974 376.567148,483.97959 357.535896,492.445522 C338.484882,500.996902 317.049197,505.591379 294.921825,505.742556 C273.74964,505.742556 252.439117,501.345267 233.309053,493.02394 C213.994539,484.610591 196.201734,472.003715 181.860774,456.570479 C159.621415,432.704176 145.036717,401.857423 140.590163,369.452886 C63.6878313,366.725121 1.60075952,302.901987 1.60075952,225.847548 C1.60075952,146.564886 66.250364,82.0647401 145.702053,82.0647401 L314.578889,82.0647401 L440.775391,0.428969934 L440.775391,82.0647401 L445.34052,82.0647401 C524.798797,82.0647401 589.441814,146.564886 589.441814,225.847548 C589.441814,304.157416 526.379794,368.04628 447.949165,369.597491" id="path66"></path>
                            </g>
                            <g id="g68" transform="translate(30.415842, 60.713103)">
                                <g id="g98" transform="translate(3.987552, 3.935104)">
                                    <g id="g96-Clipped" transform="translate(-0.000000, 0.000000)">
                                        <mask id="mask-2" fill="white">
                                            <use xlink:href="#path-1"></use>
                                        </mask>
                                        <g id="path72"></g>
                                        <g id="g96" opacity="0.69999701" mask="url(#mask-2)">
                                            <g transform="translate(-0.000000, 0.000000)" id="g94">
                                                <g transform="translate(-0.000000, 0.000000)">
                                                    <g id="g92-Clipped" transform="translate(-0.000000, 0.000000)">
                                                        <mask id="mask-4" fill="white">
                                                            <use xlink:href="#path-3"></use>
                                                        </mask>
                                                        <g id="path76"></g>
                                                        <g id="g92" mask="url(#mask-4)">
                                                            <g transform="translate(-0.000000, 0.000000)" id="g90">
                                                                <g transform="translate(-0.000000, 0.000000)">
                                                                    <g id="g88" transform="translate(-0.000000, 0.000000)" fill="url(#linearGradient-5)">
                                                                        <path d="M112.711915,269.37175 C112.375953,269.37175 112.046579,269.352031 111.710617,269.325739 L110.570981,269.26001 C54.0832742,268.103175 8.13554734,221.349935 8.13554734,165.026512 C8.13554734,107.49367 55.0450474,60.6812746 112.711915,60.6812746 L293.274953,60.6812746 L368.260326,12.1796362 L368.260326,60.6812746 L412.356969,60.6812746 C470.023837,60.6812746 516.933337,107.49367 516.933337,165.026512 C516.933337,222.565927 470.023837,269.37175 412.356969,269.37175 L388.503676,269.37175 L388.628838,272.789673 C388.760588,275.990689 388.8594,279.191705 388.734238,282.399294 C388.338989,289.603223 387.212528,297.135799 385.387794,304.760396 C383.273211,313.587839 380.335191,321.902593 376.679135,329.48118 C369.768861,343.626121 359.762467,356.693103 347.753477,367.249226 C324.43377,387.829065 294.592451,399.167366 263.716896,399.167366 L262.564086,399.160793 C231.306456,399.009616 201.366325,387.382105 178.244243,366.394745 C166.492165,355.772893 156.834908,342.751922 150.280357,328.745012 C146.828514,321.317603 144.094706,313.259192 142.157985,304.793261 C140.425476,297.208101 139.411003,289.668953 139.134328,282.392721 C138.949879,279.145694 139.002578,275.938105 139.081628,272.743662 L139.167266,269.37175 L112.711915,269.37175 Z M374.847814,0.0854480686 L291.331645,54.1083462 L112.711915,54.1083462 C51.4219292,54.1083462 1.54805961,103.871987 1.54805961,165.026512 C1.54805961,224.899317 50.3876936,274.603801 110.426057,275.832938 L111.236318,275.878949 C111.723792,275.918386 112.211266,275.944678 112.711915,275.944678 L132.434853,275.944678 C132.408503,278.199193 132.428266,280.453707 132.553428,282.701648 C132.843277,290.326245 133.91045,298.272916 135.735185,306.259024 C137.777306,315.165342 140.662625,323.664138 144.312094,331.518787 C151.228956,346.314449 161.426387,360.058442 173.817451,371.258712 C198.145043,393.337179 229.64641,405.575971 262.524561,405.733721 L263.716896,405.740294 C296.199798,405.740294 327.589177,393.817002 352.107806,372.172349 C364.76237,361.057527 375.315526,347.28067 382.601287,332.346976 C386.47473,324.334577 389.570849,315.572863 391.79742,306.291888 C393.714379,298.286062 394.900127,290.352537 395.315138,282.708221 C395.400776,280.433988 395.387601,278.186047 395.334901,275.944678 L411.922195,275.944678 C473.646955,275.944678 523.520824,226.187611 523.520824,165.026512 C523.520824,103.871987 473.646955,54.1083462 412.356969,54.1083462 L374.847814,54.1083462 L374.847814,0.0854480686 Z" id="path86"></path>
                                                                    </g>
                                                                </g>
                                                            </g>
                                                        </g>
                                                    </g>
                                                </g>
                                            </g>
                                        </g>
                                    </g>
                                </g>
                            </g>
                            <g id="g100" transform="translate(37.825594, 72.748684)" fill="#FFFFFF">
                                <path d="M289.84946,52.5834268 L109.293009,52.5834268 C51.6261413,52.5834268 4.71664121,99.3892496 4.71664121,156.928664 C4.71664121,213.245515 50.6577806,260.005327 107.132313,261.155589 C107.132313,261.155589 108.950459,261.273902 109.293009,261.273902 L135.741772,261.273902 L135.662722,264.645814 C135.577085,267.840257 135.524385,271.041274 135.708835,274.229144 C135.992097,281.571105 137.00657,289.103681 138.739079,296.695413 C140.669213,305.161345 143.409608,313.213182 146.861451,320.640591 C153.409414,334.654074 163.073259,347.675045 174.818749,358.296897 C197.947419,379.277685 227.88755,390.911768 259.125417,391.056372 L260.29799,391.062945 C291.166957,391.062945 321.008277,379.724644 344.327983,359.157951 C356.343561,348.588682 366.343367,335.528274 373.260229,321.370186 C376.916285,313.798173 379.847717,305.489991 381.962301,296.662548 C383.793622,289.037951 384.920083,281.498803 385.315332,274.248863 C385.440494,271.087284 385.335094,267.892841 385.209932,264.691825 L385.078182,261.273902 L408.503289,261.273902 C466.598343,261.273902 513.507843,214.468079 513.507843,156.928664 C513.507843,99.3892496 466.598343,52.5834268 408.931475,52.5834268 L364.84142,52.5834268 L364.84142,4.07521558 L289.84946,52.5834268 Z" id="path102"></path>
                            </g>
                            <g id="g104" transform="translate(34.622098, 66.150121)" fill="#FFFFFF">
                                <path d="M263.499509,400.94863 C263.10426,400.94863 262.70901,400.94863 262.313761,400.942057 C230.77287,400.797452 199.627228,388.933317 175.806872,367.328101 C163.923045,356.57479 153.982526,343.402642 147.078838,328.626699 C143.42937,320.791768 140.669213,312.523024 138.732491,304.024228 C137.013157,296.498225 135.919634,288.801326 135.623197,281.012406 C135.438748,277.739088 135.48486,274.44605 135.570497,271.159586 L112.494528,271.159586 C111.743554,271.159586 111.018931,271.060992 110.267957,271.041274 C51.8237659,269.851574 4.62441638,222.125541 4.62441638,163.527885 C4.62441638,104.180914 53.0161012,55.8961827 112.494528,55.8961827 L231.530431,55.8961827 L292.082618,55.8961827 L342.891911,23.031541 L371.336683,4.62734156 L371.336683,23.031541 L371.336683,55.8961827 L404.274122,55.8961827 L412.132994,55.8961827 C471.618009,55.8961827 520.003106,104.180914 520.003106,163.527885 C520.003106,222.874855 471.618009,271.159586 412.132994,271.159586 L411.704808,271.159586 L391.705195,271.159586 C391.830357,274.44605 391.935757,277.732515 391.810595,281.025552 C391.382408,288.821045 390.17031,296.511371 388.371926,304.024228 C386.26393,312.818806 383.312736,321.35704 379.426118,329.402304 C372.146944,344.309706 361.883638,357.521292 349.709961,368.215446 C325.645868,389.452578 294.645151,400.94863 263.499509,400.94863 M263.499509,394.375701 C293.564803,394.375701 322.635386,383.333182 345.355631,363.279177 C357.041835,353.012263 366.778141,340.30022 373.490791,326.549654 C377.048035,319.187974 379.907004,311.090126 381.962301,302.492736 C383.74751,295.065327 384.84762,287.716793 385.229695,280.769208 C385.348269,277.660212 385.236282,274.44605 385.124295,271.415931 L384.854208,264.586658 L391.705195,264.586658 L411.704808,264.586658 L412.132994,264.586658 C467.981715,264.586658 513.415618,219.246598 513.415618,163.527885 C513.415618,107.802598 467.981715,62.4691111 412.132994,62.4691111 L404.274122,62.4691111 L371.336683,62.4691111 L364.749195,62.4691111 L364.749195,55.8961827 L364.749195,23.031541 L364.749195,16.7215297 L346.475504,28.5462278 L295.666211,61.4108696 L294.032515,62.4691111 L292.082618,62.4691111 L231.530431,62.4691111 L112.494528,62.4691111 C56.6523944,62.4691111 11.2119041,107.802598 11.2119041,163.527885 C11.2119041,218.070044 55.7103837,263.350947 110.445819,264.468345 C110.874006,264.481491 111.302193,264.514356 111.736967,264.540647 C111.987291,264.560366 112.237616,264.586658 112.494528,264.586658 L135.570497,264.586658 L142.322672,264.586658 L142.157985,271.32391 C142.078935,274.314592 142.026235,277.509035 142.204097,280.762635 C142.474184,287.841678 143.462308,295.177067 145.148704,302.558465 C147.032726,310.800917 149.694071,318.642421 153.047102,325.84635 C159.410615,339.465458 168.81096,352.124918 180.240252,362.464134 C202.762872,382.899368 231.919093,394.231097 262.379636,394.369128 L263.499509,394.375701" id="path106"></path>
                            </g>
                            <g id="g108" transform="translate(103.166884, 228.098531)" fill="#555757">
                                <path d="M368.899312,0 C365.164207,0 361.422514,1.47890888 358.649182,4.39728907 C315.277162,50.184308 256.628759,75.4046341 193.500864,75.4046341 C130.662819,75.4046341 72.1988654,50.36835 28.8663712,4.92312334 C23.4909812,-0.703303334 14.5781103,-0.939928755 8.91945838,4.43015371 C3.28715637,9.78709032 3.06976928,18.6868353 8.4253968,24.3264078 C57.1398685,75.4046341 122.856646,103.536767 193.500864,103.536767 C264.461282,103.536767 330.382272,75.1943004 379.142856,23.7282714 C384.491896,18.0821259 384.241571,9.18238091 378.582919,3.83859016 C375.862287,1.26857517 372.370919,0 368.899312,0" id="path110"></path>
                            </g>
                            <g id="g112" transform="translate(149.375711, 186.467160)" fill="#555757">
                                <path d="M14.6931562,1.51350311 C11.4521123,1.51350311 8.19789334,2.61118215 5.5365483,4.88541536 C-0.372428184,9.92685141 -1.07728937,18.8134505 3.9819012,24.7225131 C39.8705343,66.6183585 92.109312,90.6555574 147.292697,90.6555574 C202.482669,90.6555574 254.721446,66.6052126 290.603492,24.7093673 C295.656095,18.8134505 294.964409,9.92685141 289.03567,4.88541536 C283.126693,-0.169166546 274.22041,0.52756386 269.167807,6.43662645 C238.647976,42.075044 194.228547,62.5102782 147.292697,62.5102782 C100.363434,62.5102782 55.9505918,42.075044 25.4241737,6.43662645 C22.6376664,3.17645399 18.6719988,1.51350311 14.6931562,1.51350311" id="path114"></path>
                            </g>
                            <g id="g116" transform="translate(195.912783, 160.860760)" fill="#555757">
                                <path d="M184.449656,0 C180.833125,0 177.223182,1.38031495 174.463025,4.13437193 C154.786199,23.8202924 128.620698,34.6656241 100.755625,34.6656241 C72.963014,34.6656241 46.8304502,23.8597299 27.1602119,4.24611172 C21.6530721,-1.24885639 12.7402013,-1.24885639 7.22647403,4.24611172 C1.72592178,9.74107982 1.72592178,18.6539707 7.22647403,24.1423658 C32.2194025,49.0734831 65.440103,62.8043304 100.755625,62.8043304 C136.163371,62.8043304 169.436772,49.0143267 194.436288,23.9977614 C199.93684,18.4962204 199.917077,9.58990247 194.409938,4.10150729 C191.656368,1.37374203 188.053012,0 184.449656,0" id="path118"></path>
                            </g>
                        </g>
                    </g>
                </g>
            </g>
        </g>
    </g>
</svg>