<?xml version="1.0" encoding="iso-8859-1"?><!-- Generator: Adobe Illustrator 16.0.0, SVG Export Plug-In . SVG Version: 6.00 Build 0) --><!DOCTYPE svg PUBLIC "-//W3C//DTD SVG 1.1//EN" "http://www.w3.org/Graphics/SVG/1.1/DTD/svg11.dtd"><svg version="1.1" id="Layer_1" xmlns="http://www.w3.org/2000/svg" xmlns:xlink="http://www.w3.org/1999/xlink" x="0px" y="0px" width="220px" height="220px" viewBox="0 0 220 220" style="enable-background:new 0 0 220 220;" xml:space="preserve"><rect style="fill:#FFFFFF;" width="220" height="220"/><path style="fill:#2D3140;" d="M151.178,85.073v48.03h-10.923V84.827h10.841L151.178,85.073z M81.437,133.104l-2.349-6.98h-16.77	l-2.543,6.98H46.887L65.91,84.827h9.719l18.826,48.276H81.437z M114.745,134.116c-13.113,0-19.41-10.371-19.41-19.24	c0-8.872,6.298-19.248,19.41-19.248c13.12,0,19.416,10.375,19.416,19.248C134.161,123.746,127.865,134.116,114.745,134.116z M164.234,133.445c-4.006,0-7.258-3.256-7.258-7.26c0-4.006,3.252-7.26,7.258-7.26c4.008,0,7.264,3.254,7.264,7.26	C171.498,130.189,168.242,133.445,164.234,133.445z M65.712,116.34h10.117l-5.061-16.831L65.712,116.34z M114.745,105.743	c-4.673,0-8.628,3.852-8.628,9.133c0,5.282,3.955,9.126,8.628,9.126c4.678,0,8.637-3.844,8.637-9.126	C123.382,109.595,119.422,105.743,114.745,105.743z"/></svg>