<?xml version="1.0" encoding="utf-8"?>
<!-- Generator: Adobe Illustrator 19.1.0, SVG Export Plug-In . SVG Version: 6.00 Build 0)  -->
<!DOCTYPE svg PUBLIC "-//W3C//DTD SVG 1.1//EN" "http://www.w3.org/Graphics/SVG/1.1/DTD/svg11.dtd">
<svg version="1.1" id="Layer_1" xmlns="http://www.w3.org/2000/svg" xmlns:xlink="http://www.w3.org/1999/xlink" x="0px" y="0px"
	 viewBox="0 0 450 326" style="enable-background:new 0 0 450 326;" xml:space="preserve">
<style type="text/css">
	.st0{fill:none;}
	.st1{fill:#5CB385;}
	.st2{fill:#E33864;}
	.st3{fill:#FFFFFF;}
</style>
<g id="stacked_with_text">
	<rect id="boundry_4_" class="st0" width="450" height="326"/>
	<g id="text_2_">
		<path d="M98,269h-8v-6h0c-3.1,4-7.9,7.2-13.6,7.2c-12.2,0-19.1-9.9-19.1-20.9c0-10.5,7.3-20,18.9-20c5.9,0,10.7,2.7,13.8,7.7h0v-7
			h8V269z M90.6,249.4c0-7.5-4.7-13.8-13-13.8c-7.9,0-12.6,6.7-12.6,13.8c0,7.2,4.5,14,12.6,14C86,263.4,90.6,257,90.6,249.4z"/>
		<path d="M114,237h-0.3c3.2-5,7.9-7.8,13.9-7.8c11.5,0,18.8,9.5,18.8,20.1c0,11-6.8,20.9-19.1,20.9c-5.6,0-10.5-3.2-13.6-7.2h0.3
			v28h-8v-61h8V237z M138.7,249.4c0-7.5-4.7-13.8-13-13.8c-7.9,0-12.6,6.7-12.6,13.8c0,7.2,4.5,14,12.6,14
			C134.1,263.4,138.7,257,138.7,249.4z"/>
		<path d="M160,237h-0.3c3.2-5,7.9-7.8,13.9-7.8c11.5,0,18.8,9.5,18.8,20.1c0,11-6.8,20.9-19.1,20.9c-5.6,0-10.5-3.2-13.6-7.2h0.3
			v28h-8v-61h8V237z M184.7,249.4c0-7.5-4.7-13.8-13-13.8c-7.9,0-12.6,6.7-12.6,13.8c0,7.2,4.5,14,12.6,14
			C180.1,263.4,184.7,257,184.7,249.4z"/>
		<path d="M204.1,251c0.1,6,4.7,12.6,12,12.6c5.9,0,9.1-3,12-7.6l6.5,3.5c-3.8,6.7-10.8,10.5-18.5,10.5c-12.2,0-19.6-8.9-19.6-20.3
			c0-11.9,6.8-20.8,19.7-20.8c12.7,0,18.9,9.1,18.9,20.5v1.5H204.1z M226.9,245c-0.9-6-4.9-9.6-11-9.6c-6,0-10.4,4.6-11.4,9.6H226.9
			z"/>
		<path d="M279,269h-8v-6h0.2c-3.1,4-7.9,7.2-13.6,7.2c-12.2,0-19.1-9.9-19.1-20.9c0-10.5,7.3-20,18.9-20c5.9,0,10.7,2.7,13.8,7.7
			H271v-7h8V269z M271.8,249.4c0-7.5-4.7-13.8-13-13.8c-7.9,0-12.6,6.7-12.6,13.8c0,7.2,4.5,14,12.6,14
			C267.1,263.4,271.8,257,271.8,249.4z"/>
		<path d="M297,236h0.3c1.9-4,5.8-7.2,10.9-7.2c2.2,0,4.4,0.8,6.3,2l-3.5,6.8c-1.4-1.2-2.9-1.5-4.7-1.5c-8.3,0-9.3,7.4-9.3,13.7V269
			h-8v-39h8V236z"/>
		<path d="M326.8,265.2c0,2.6-2.2,4.8-5,4.8s-5-2.1-5-4.8c0-2.6,2.2-4.8,5-4.8S326.8,262.7,326.8,265.2z"/>
		<path d="M350.2,212.5c0,2.8-2.4,5-5.3,5s-5.3-2.2-5.3-5c0-2.9,2.4-5.2,5.3-5.2S350.2,209.6,350.2,212.5z M349,269h-8v-39h8V269z"
			/>
		<path d="M366,235h0.5c2.4-4,7.3-6.2,12.2-6.2c11.3,0,14.3,7.5,14.3,16.9V269h-8v-22.4c0-6.6-1.1-11-8.9-11
			c-9.9,0-10.1,8.4-10.1,15.4v18h-7v-39h7V235z"/>
	</g>
	<g id="logo_3_">
		<g>
			<g>
				<path class="st1" d="M276,128.4c0,4.5-4.1,8.6-8.7,8.6h-96c-4.6,0-8.3-4.1-8.3-8.6V65.7c0-4.5,3.8-7.7,8.3-7.7h96
					c4.6,0,8.7,3.2,8.7,7.7V128.4z"/>
			</g>
			<path class="st2" d="M250.7,74h-96c-4.6,0-8.7,3.5-8.7,8v62.7c0,4.5,4.1,8.3,8.7,8.3h28l40.3,24.1V153h27.7
				c4.6,0,8.3-3.8,8.3-8.3V82C259,77.5,255.3,74,250.7,74z"/>
			<g>
				<path class="st1" d="M300.1,135l-12.1-8.5c-2.5-1.8-4-4.6-4-7.5V75.2c0-3,1.4-5.7,3.9-7.5l12.2-8.5c1.5-1.1,3.9-0.1,3.9,1.7
					v72.3C304,135,301.6,136,300.1,135z"/>
			</g>
		</g>
		<path class="st3" d="M223,133h-8v-6h-0.1c-3,4-7.7,7.1-13.4,7.1c-12,0-18.8-9.9-18.8-21c0-10.6,7.1-20.5,18.6-20.5
			c5.8,0,10.5,3.3,13.6,7.3h0.1v-6h8V133z M215.5,113.3c0-7.5-4.6-13.8-12.8-13.8c-7.8,0-12.4,6.7-12.4,13.8c0,7.3,4.5,14,12.4,14
			C211,127.3,215.5,120.9,215.5,113.3z"/>
	</g>
</g>
</svg>
