<?xml version="1.0" encoding="UTF-8" standalone="no"?>
<svg width="739px" height="512px" viewBox="0 0 739 512" version="1.1" xmlns="http://www.w3.org/2000/svg" xmlns:xlink="http://www.w3.org/1999/xlink">
    <!-- Generator: Sketch 3.6.1 (26313) - http://www.bohemiancoding.com/sketch -->
    <title>appear.in</title>
    <desc>Created with Sketch.</desc>
    <defs></defs>
    <g id="Page-1" stroke="none" stroke-width="1" fill="none" fill-rule="evenodd">
        <g id="appear.in">
            <g id="stacked_with_text">
                <g id="text_2_" transform="translate(0.000000, 327.416309)" fill="#000000">
                    <path d="M90.0944206,136.240343 L72.5150215,136.240343 L72.5150215,123.055794 L72.5150215,123.055794 C65.7030043,131.845494 55.1553648,138.877253 42.6300429,138.877253 C15.8214592,138.877253 0.659227468,117.122747 0.659227468,92.951073 C0.659227468,69.8781116 16.7004292,49.0025751 42.1905579,49.0025751 C55.1553648,49.0025751 65.7030043,54.9356223 72.5150215,65.9227468 L72.5150215,65.9227468 L72.5150215,50.5407725 L90.0944206,50.5407725 L90.0944206,136.240343 L90.0944206,136.240343 Z M73.8334764,93.1708155 C73.8334764,76.6901288 63.5055794,62.8463519 45.2669528,62.8463519 C27.9072961,62.8463519 17.5793991,77.5690987 17.5793991,93.1708155 C17.5793991,108.992275 27.4678112,123.934764 45.2669528,123.934764 C63.7253219,123.934764 73.8334764,109.871245 73.8334764,93.1708155 L73.8334764,93.1708155 Z" id="Shape"></path>
                    <path d="M125.253219,65.9227468 L124.593991,65.9227468 C131.625751,54.9356223 141.953648,48.7828326 155.138197,48.7828326 C180.408584,48.7828326 196.449785,69.6583691 196.449785,92.951073 C196.449785,117.122747 181.507296,138.877253 154.47897,138.877253 C142.173391,138.877253 131.406009,131.845494 124.593991,123.055794 L125.253219,123.055794 L125.253219,184.583691 L107.67382,184.583691 L107.67382,50.5407725 L125.253219,50.5407725 L125.253219,65.9227468 L125.253219,65.9227468 Z M179.529614,93.1708155 C179.529614,76.6901288 169.201717,62.8463519 150.96309,62.8463519 C133.603433,62.8463519 123.275536,77.5690987 123.275536,93.1708155 C123.275536,108.992275 133.163948,123.934764 150.96309,123.934764 C169.421459,123.934764 179.529614,109.871245 179.529614,93.1708155 L179.529614,93.1708155 Z" id="Shape"></path>
                    <path d="M226.334764,65.9227468 L225.675536,65.9227468 C232.707296,54.9356223 243.035193,48.7828326 256.219742,48.7828326 C281.490129,48.7828326 297.53133,69.6583691 297.53133,92.951073 C297.53133,117.122747 282.588841,138.877253 255.560515,138.877253 C243.254936,138.877253 232.487554,131.845494 225.675536,123.055794 L226.334764,123.055794 L226.334764,184.583691 L208.755365,184.583691 L208.755365,50.5407725 L226.334764,50.5407725 L226.334764,65.9227468 L226.334764,65.9227468 Z M280.611159,93.1708155 C280.611159,76.6901288 270.283262,62.8463519 252.044635,62.8463519 C234.684979,62.8463519 224.357082,77.5690987 224.357082,93.1708155 C224.357082,108.992275 234.245494,123.934764 252.044635,123.934764 C270.503004,123.934764 280.611159,109.871245 280.611159,93.1708155 L280.611159,93.1708155 Z" id="Shape"></path>
                    <path d="M323.241202,96.6866953 C323.460944,109.871245 333.569099,124.374249 349.6103,124.374249 C362.575107,124.374249 369.606867,117.781974 375.979399,107.67382 L390.262661,115.364807 C381.912446,130.087554 366.530472,138.437768 349.6103,138.437768 C322.801717,138.437768 306.540773,118.880687 306.540773,93.8300429 C306.540773,67.6806867 321.483262,48.1236052 349.830043,48.1236052 C377.737339,48.1236052 391.361373,68.1201717 391.361373,93.1708155 L391.361373,96.4669528 L323.241202,96.4669528 L323.241202,96.6866953 Z M373.342489,83.5021459 C371.364807,70.3175966 362.575107,62.406867 349.170815,62.406867 C335.986266,62.406867 326.317597,72.5150215 324.120172,83.5021459 L373.342489,83.5021459 L373.342489,83.5021459 Z" id="Shape"></path>
                    <path d="M487.828326,136.240343 L470.248927,136.240343 L470.248927,123.055794 L470.688412,123.055794 C463.876395,131.845494 453.328755,138.877253 440.803433,138.877253 C413.99485,138.877253 398.832618,117.122747 398.832618,92.951073 C398.832618,69.8781116 414.87382,49.0025751 440.363948,49.0025751 C453.328755,49.0025751 463.876395,54.9356223 470.688412,65.9227468 L470.248927,65.9227468 L470.248927,50.5407725 L487.828326,50.5407725 L487.828326,136.240343 L487.828326,136.240343 Z M472.006867,93.1708155 C472.006867,76.6901288 461.67897,62.8463519 443.440343,62.8463519 C426.080687,62.8463519 415.75279,77.5690987 415.75279,93.1708155 C415.75279,108.992275 425.641202,123.934764 443.440343,123.934764 C461.67897,123.934764 472.006867,109.871245 472.006867,93.1708155 L472.006867,93.1708155 Z" id="Shape"></path>
                    <path d="M527.381974,63.7253219 L528.041202,63.7253219 C532.216309,54.9356223 540.786266,47.9038627 551.993133,47.9038627 C556.827468,47.9038627 561.661803,49.6618026 565.83691,52.2987124 L558.145923,67.2412017 C555.069528,64.6042918 551.773391,63.9450644 547.818026,63.9450644 C529.579399,63.9450644 527.381974,80.2060086 527.381974,94.0497854 L527.381974,136.240343 L509.802575,136.240343 L509.802575,50.5407725 L527.381974,50.5407725 L527.381974,63.7253219 L527.381974,63.7253219 Z" id="Shape"></path>
                    <path d="M592.865236,127.890129 C592.865236,133.603433 588.030901,138.437768 581.878112,138.437768 C575.725322,138.437768 570.890987,133.823176 570.890987,127.890129 C570.890987,122.176824 575.725322,117.342489 581.878112,117.342489 C588.030901,117.342489 592.865236,122.396567 592.865236,127.890129 L592.865236,127.890129 Z" id="Shape"></path>
                    <path d="M644.284979,12.0858369 C644.284979,18.2386266 639.011159,23.0729614 632.638627,23.0729614 C626.266094,23.0729614 620.992275,18.2386266 620.992275,12.0858369 C620.992275,5.71330472 626.266094,0.659227468 632.638627,0.659227468 C639.011159,0.659227468 644.284979,5.71330472 644.284979,12.0858369 L644.284979,12.0858369 Z M641.648069,136.240343 L624.06867,136.240343 L624.06867,50.5407725 L641.648069,50.5407725 L641.648069,136.240343 L641.648069,136.240343 Z" id="Shape"></path>
                    <path d="M679.004292,61.527897 L680.103004,61.527897 C685.376824,52.7381974 696.144206,47.9038627 706.911588,47.9038627 C731.742489,47.9038627 738.334764,64.3845494 738.334764,85.0403433 L738.334764,136.240343 L720.755365,136.240343 L720.755365,87.0180258 C720.755365,72.5150215 718.338197,62.8463519 701.198283,62.8463519 C679.443777,62.8463519 679.004292,81.304721 679.004292,96.6866953 L679.004292,136.240343 L663.622318,136.240343 L663.622318,50.5407725 L679.004292,50.5407725 L679.004292,61.527897 L679.004292,61.527897 Z" id="Shape"></path>
                </g>
                <g id="logo_3_" transform="translate(195.570815, 0.000000)">
                    <g id="Group">
                        <path d="M285.665236,154.698712 C285.665236,164.587124 276.655794,173.596567 266.547639,173.596567 L55.5948498,173.596567 C45.4866953,173.596567 37.3562232,164.587124 37.3562232,154.698712 L37.3562232,16.9201717 C37.3562232,7.03175966 45.7064378,0 55.5948498,0 L266.547639,0 C276.655794,0 285.665236,7.03175966 285.665236,16.9201717 L285.665236,154.698712 L285.665236,154.698712 Z" id="Shape" fill="#5CB385"></path>
                        <path d="M230.070386,35.1587983 L19.1175966,35.1587983 C9.00944206,35.1587983 0,42.8497854 0,52.7381974 L0,190.516738 C0,200.40515 9.00944206,208.755365 19.1175966,208.755365 L80.6454936,208.755365 L169.201717,261.713305 L169.201717,208.755365 L230.070386,208.755365 C240.178541,208.755365 248.309013,200.40515 248.309013,190.516738 L248.309013,52.7381974 C248.309013,42.8497854 240.178541,35.1587983 230.070386,35.1587983 L230.070386,35.1587983 Z" id="Shape" fill="#E33864"></path>
                        <path d="M338.623176,169.201717 L312.034335,150.523605 C306.540773,146.56824 303.244635,140.415451 303.244635,134.042918 L303.244635,37.7957082 C303.244635,31.2034335 306.32103,25.2703863 311.814592,21.3150215 L338.623176,2.63690987 C341.919313,0.219742489 347.193133,2.41716738 347.193133,6.37253219 L347.193133,165.246352 C347.193133,169.201717 341.919313,171.399142 338.623176,169.201717 L338.623176,169.201717 Z" id="Shape" fill="#5CB385"></path>
                    </g>
                    <path d="M169.201717,164.806867 L151.622318,164.806867 L151.622318,151.622318 L151.402575,151.622318 C144.8103,160.412017 134.482403,167.224034 121.957082,167.224034 C95.5879828,167.224034 80.6454936,145.469528 80.6454936,121.078112 C80.6454936,97.7854077 96.2472103,76.0309013 121.517597,76.0309013 C134.262661,76.0309013 144.590558,83.2824034 151.402575,92.072103 L151.622318,92.072103 L151.622318,78.8875536 L169.201717,78.8875536 L169.201717,164.806867 L169.201717,164.806867 Z M152.72103,121.517597 C152.72103,105.03691 142.612876,91.193133 124.593991,91.193133 C107.454077,91.193133 97.3459227,105.91588 97.3459227,121.517597 C97.3459227,137.558798 107.234335,152.281545 124.593991,152.281545 C142.832618,152.281545 152.72103,138.218026 152.72103,121.517597 L152.72103,121.517597 Z" id="Shape" fill="#FFFFFF"></path>
                </g>
            </g>
        </g>
    </g>
</svg>