<?xml version="1.0" encoding="UTF-8" standalone="no"?>
<svg width="2726px" height="508px" viewBox="0 0 2726 508" version="1.1" xmlns="http://www.w3.org/2000/svg" xmlns:xlink="http://www.w3.org/1999/xlink">
    <!-- Generator: Sketch 3.6.1 (26313) - http://www.bohemiancoding.com/sketch -->
    <title>AppMetrica</title>
    <desc>Created with Sketch.</desc>
    <defs></defs>
    <g id="Page-1" stroke="none" stroke-width="1" fill="none" fill-rule="evenodd">
        <g id="AppMetrica">
            <g id="Shape_19" transform="translate(0.000000, 286.117647)" fill="#E52620">
                <g id="XMLID_40_">
                    <g id="XMLID_41_">
                        <path d="M210.823529,0 L0,0 L0,150.588235 L210.823529,150.588235 L210.823529,0 Z" id="XMLID_42_"></path>
                    </g>
                </g>
            </g>
            <g id="XMLID_37_" transform="translate(150.588235, 286.117647)" fill="#CC1417">
                <g id="XMLID_38_">
                    <rect id="XMLID_39_" x="0" y="0" width="60.2352941" height="150.588235"></rect>
                </g>
            </g>
            <g id="Rectangle_126_2_" transform="translate(436.705882, 0.000000)" fill="#FFCC07">
                <g id="XMLID_34_">
                    <g id="XMLID_35_">
                        <path d="M210.823529,0 L0,0 L0,436.705882 L210.823529,436.705882 L210.823529,0 Z" id="XMLID_36_"></path>
                    </g>
                </g>
            </g>
            <g id="XMLID_31_" transform="translate(587.294118, 0.000000)" fill="#EBBA25">
                <g id="XMLID_32_">
                    <rect id="XMLID_33_" x="0" y="0" width="60.2352941" height="436.705882"></rect>
                </g>
            </g>
            <g id="Rectangle_126_1_" transform="translate(210.823529, 150.588235)" fill="#4775B9">
                <g id="XMLID_28_">
                    <g id="XMLID_29_">
                        <path d="M225.882353,0 L0,0 L0,286.117647 L225.882353,286.117647 L225.882353,0 Z" id="XMLID_30_"></path>
                    </g>
                </g>
            </g>
            <g id="XMLID_25_" transform="translate(376.470588, 150.588235)" fill="#3B5F95">
                <g id="XMLID_26_">
                    <rect id="XMLID_27_" x="0" y="0" width="60.2352941" height="286.117647"></rect>
                </g>
            </g>
            <g id="XMLID_2_" transform="translate(783.058824, 150.588235)" fill="#010202">
                <path d="M48.1882353,286.117647 L6.02352941,286.117647 L121.976471,9.03529412 L156.611765,9.03529412 L271.058824,284.611765 L228.894118,284.611765 L200.282353,209.317647 L78.3058824,209.317647 L48.1882353,286.117647 L48.1882353,286.117647 Z M138.541176,57.2235294 L90.3529412,177.694118 L185.223529,177.694118 L138.541176,57.2235294 L138.541176,57.2235294 Z" id="XMLID_22_"></path>
                <path d="M304.188235,96.3764706 L337.317647,96.3764706 L337.317647,117.458824 C359.905882,94.8705882 382.494118,91.8588235 397.552941,91.8588235 C426.164706,91.8588235 442.729412,103.905882 451.764706,112.941176 C472.847059,134.023529 475.858824,164.141176 475.858824,185.223529 C475.858824,225.882353 463.811765,249.976471 448.752941,265.035294 C433.694118,280.094118 415.623529,286.117647 394.541176,286.117647 C384,286.117647 371.952941,284.611765 361.411765,280.094118 C353.882353,275.576471 344.847059,269.552941 338.823529,263.529412 L338.823529,356.894118 L305.694118,356.894118 L304.188235,96.3764706 L304.188235,96.3764706 L304.188235,96.3764706 Z M337.317647,230.4 C343.341176,237.929412 350.870588,243.952941 358.4,248.470588 C368.941176,254.494118 377.976471,256 388.517647,256 C400.564706,256 411.105882,252.988235 421.647059,243.952941 C433.694118,231.905882 439.717647,212.329412 439.717647,186.729412 C439.717647,174.682353 438.211765,153.6 427.670588,138.541176 C421.647059,131.011765 411.105882,121.976471 393.035294,121.976471 C380.988235,121.976471 370.447059,126.494118 361.411765,134.023529 C349.364706,143.058824 340.329412,155.105882 338.823529,155.105882 L337.317647,230.4 L337.317647,230.4 L337.317647,230.4 Z" id="XMLID_19_"></path>
                <path d="M515.011765,96.3764706 L548.141176,96.3764706 L548.141176,117.458824 C570.729412,94.8705882 593.317647,91.8588235 608.376471,91.8588235 C636.988235,91.8588235 653.552941,103.905882 662.588235,112.941176 C683.670588,134.023529 686.682353,164.141176 686.682353,185.223529 C686.682353,225.882353 674.635294,249.976471 659.576471,265.035294 C644.517647,280.094118 626.447059,286.117647 605.364706,286.117647 C594.823529,286.117647 582.776471,284.611765 572.235294,280.094118 C563.2,275.576471 555.670588,269.552941 549.647059,263.529412 L549.647059,356.894118 L516.517647,356.894118 L515.011765,96.3764706 L515.011765,96.3764706 L515.011765,96.3764706 Z M548.141176,230.4 C554.164706,237.929412 561.694118,243.952941 569.223529,248.470588 C579.764706,254.494118 588.8,256 599.341176,256 C611.388235,256 621.929412,252.988235 632.470588,243.952941 C644.517647,231.905882 650.541176,212.329412 650.541176,186.729412 C650.541176,174.682353 649.035294,153.6 638.494118,138.541176 C632.470588,131.011765 621.929412,121.976471 603.858824,121.976471 C591.811765,121.976471 581.270588,126.494118 572.235294,134.023529 C560.188235,143.058824 551.152941,155.105882 549.647059,155.105882 L548.141176,230.4 L548.141176,230.4 L548.141176,230.4 Z" id="XMLID_16_"></path>
                <path d="M763.482353,57.2235294 L763.482353,284.611765 L727.341176,284.611765 L727.341176,15.0588235 L778.541176,15.0588235 L847.811765,182.211765 L915.576471,15.0588235 L966.776471,15.0588235 L966.776471,284.611765 L929.129412,284.611765 L929.129412,57.2235294 L858.352941,234.917647 L835.764706,234.917647 L763.482353,57.2235294 L763.482353,57.2235294 Z" id="XMLID_15_"></path>
                <path d="M1180.61176,256 C1165.55294,272.564706 1144.47059,284.611765 1108.32941,284.611765 C1087.24706,284.611765 1063.15294,281.6 1043.57647,260.517647 C1027.01176,243.952941 1016.47059,218.352941 1016.47059,189.741176 C1016.47059,143.058824 1043.57647,91.8588235 1102.30588,91.8588235 C1167.05882,91.8588235 1185.12941,152.094118 1185.12941,194.258824 L1052.61176,194.258824 C1054.11765,233.411765 1079.71765,256 1106.82353,256 C1117.36471,256 1138.44706,254.494118 1158.02353,236.423529 L1180.61176,256 L1180.61176,256 Z M1147.48235,167.152941 C1144.47059,137.035294 1123.38824,120.470588 1102.30588,120.470588 C1079.71765,120.470588 1058.63529,137.035294 1054.11765,167.152941 L1147.48235,167.152941 L1147.48235,167.152941 Z" id="XMLID_12_"></path>
                <path d="M1236.32941,49.6941176 L1269.45882,49.6941176 L1269.45882,97.8823529 L1308.61176,97.8823529 L1308.61176,126.494118 L1269.45882,126.494118 L1269.45882,222.870588 C1269.45882,233.411765 1269.45882,245.458824 1275.48235,251.482353 C1278.49412,254.494118 1284.51765,257.505882 1293.55294,257.505882 C1296.56471,257.505882 1304.09412,256 1308.61176,256 C1311.62353,254.494118 1314.63529,252.988235 1317.64706,251.482353 L1329.69412,277.082353 C1325.17647,280.094118 1319.15294,281.6 1313.12941,283.105882 C1304.09412,286.117647 1295.05882,286.117647 1287.52941,286.117647 C1275.48235,286.117647 1260.42353,284.611765 1251.38824,274.070588 C1237.83529,260.517647 1237.83529,240.941176 1237.83529,225.882353 L1237.83529,124.988235 L1210.72941,124.988235 L1210.72941,97.8823529 L1237.83529,97.8823529 L1237.83529,49.6941176 L1236.32941,49.6941176 L1236.32941,49.6941176 Z" id="XMLID_11_"></path>
                <path d="M1388.42353,121.976471 C1394.44706,114.447059 1403.48235,106.917647 1411.01176,102.4 C1421.55294,96.3764706 1430.58824,93.3647059 1442.63529,93.3647059 C1453.17647,93.3647059 1460.70588,96.3764706 1468.23529,99.3882353 L1457.69412,129.505882 C1451.67059,126.494118 1445.64706,124.988235 1438.11765,124.988235 C1424.56471,124.988235 1415.52941,131.011765 1408,137.035294 C1400.47059,143.058824 1394.44706,149.082353 1388.42353,158.117647 L1388.42353,281.6 L1359.81176,281.6 L1359.81176,97.8823529 L1388.42353,97.8823529 L1388.42353,121.976471 L1388.42353,121.976471 Z" id="XMLID_10_"></path>
                <path d="M1523.95294,12.0470588 C1537.50588,12.0470588 1546.54118,24.0941176 1546.54118,33.1294118 C1546.54118,45.1764706 1536,54.2117647 1523.95294,54.2117647 C1513.41176,54.2117647 1502.87059,46.6823529 1502.87059,33.1294118 C1501.36471,21.0823529 1511.90588,12.0470588 1523.95294,12.0470588 L1523.95294,12.0470588 Z M1507.38824,100.894118 L1540.51765,100.894118 L1540.51765,284.611765 L1507.38824,284.611765 L1507.38824,100.894118 L1507.38824,100.894118 Z" id="XMLID_7_"></path>
                <path d="M1748.32941,254.494118 C1725.74118,281.6 1697.12941,284.611765 1679.05882,284.611765 C1656.47059,284.611765 1632.37647,281.6 1611.29412,260.517647 C1597.74118,246.964706 1585.69412,225.882353 1585.69412,189.741176 C1585.69412,168.658824 1590.21176,141.552941 1611.29412,117.458824 C1630.87059,97.8823529 1651.95294,90.3529412 1679.05882,90.3529412 C1700.14118,90.3529412 1724.23529,94.8705882 1745.31765,112.941176 L1724.23529,135.529412 C1703.15294,121.976471 1688.09412,117.458824 1676.04706,117.458824 C1657.97647,117.458824 1645.92941,124.988235 1638.4,132.517647 C1624.84706,146.070588 1618.82353,168.658824 1618.82353,188.235294 C1618.82353,213.835294 1627.85882,230.4 1636.89412,239.435294 C1647.43529,249.976471 1659.48235,254.494118 1674.54118,254.494118 C1685.08235,254.494118 1703.15294,251.482353 1722.72941,233.411765 L1748.32941,254.494118 L1748.32941,254.494118 Z" id="XMLID_6_"></path>
                <path d="M1781.45882,114.447059 C1805.55294,97.8823529 1829.64706,93.3647059 1853.74118,93.3647059 C1882.35294,93.3647059 1898.91765,100.894118 1907.95294,111.435294 C1921.50588,126.494118 1923.01176,147.576471 1923.01176,162.635294 L1923.01176,225.882353 C1923.01176,234.917647 1921.50588,246.964706 1927.52941,252.988235 C1930.54118,256 1936.56471,257.505882 1942.58824,257.505882 L1938.07059,286.117647 C1926.02353,289.129412 1913.97647,286.117647 1906.44706,280.094118 C1900.42353,275.576471 1895.90588,268.047059 1894.4,260.517647 C1888.37647,266.541176 1879.34118,274.070588 1870.30588,278.588235 C1861.27059,283.105882 1849.22353,286.117647 1831.15294,286.117647 C1816.09412,286.117647 1799.52941,283.105882 1785.97647,271.058824 C1778.44706,263.529412 1769.41176,249.976471 1769.41176,230.4 C1769.41176,212.329412 1776.94118,198.776471 1785.97647,191.247059 C1801.03529,176.188235 1825.12941,171.670588 1838.68235,168.658824 C1855.24706,165.647059 1876.32941,165.647059 1891.38824,165.647059 L1891.38824,164.141176 C1891.38824,153.6 1891.38824,138.541176 1882.35294,131.011765 C1874.82353,124.988235 1862.77647,123.482353 1853.74118,123.482353 C1841.69412,123.482353 1832.65882,126.494118 1823.62353,128 C1816.09412,131.011765 1807.05882,134.023529 1799.52941,138.541176 L1781.45882,114.447059 L1781.45882,114.447059 Z M1889.88235,192.752941 C1886.87059,192.752941 1858.25882,194.258824 1841.69412,197.270588 C1831.15294,198.776471 1819.10588,203.294118 1813.08235,209.317647 C1808.56471,213.835294 1804.04706,219.858824 1804.04706,230.4 C1804.04706,240.941176 1808.56471,246.964706 1811.57647,249.976471 C1819.10588,256 1828.14118,257.505882 1835.67059,257.505882 C1843.2,257.505882 1850.72941,256 1858.25882,252.988235 C1868.8,248.470588 1880.84706,237.929412 1888.37647,228.894118 L1889.88235,192.752941 L1889.88235,192.752941 L1889.88235,192.752941 Z" id="XMLID_3_"></path>
            </g>
        </g>
    </g>
</svg>