<svg xmlns="http://www.w3.org/2000/svg" id="Calque_1" width="321.039" height="61.085" viewBox="0 0 321.039 61.085">
  <style>
    .st0{fill:#F29107;}.st1{fill:url(#SVGID_1_);}.st2{fill:#70706F;}
  </style>
  <path class="st0" d="M53.089 11.199c-.001-.277-.646-.813-.87-1.061-.39-.434-.762-.901-1.178-1.31-1.767-1.74-3.918-3.383-6.112-4.669C40.313 1.5 35 0 29.6 0 18.618-.001 8.7 6.1 3.2 15.6 1.104 19.194.197 23.425.01 27.562c-.058 1.298-.188 3.5 1 4.397.959.7 2.093-.366 2.738-1.016 2.009-2.021 3.486-4.651 4.818-7.15 1.348-2.528 2.915-4.922 4.745-7.132 1.772-2.14 3.729-4.054 6.198-5.37 2.329-1.241 4.915-1.966 7.534-2.246 5.226-.559 10.5.7 14.8 3.76 7.837 5.5 10.8 16 7.3 24.9C45.4 47.6 34.4 53.2 24.2 50.553c-2.514-.638-4.91-1.733-7.028-3.232-1.021-.722-1.977-1.537-2.849-2.433-.41-.421-.704-1.009-1.291-1.138-2.675-.59-5.415-1.238-8.154-1.422-.366-.025-.825-.083-1.178.1-.58.2 0 2.3.1 2.708.603 1.9 1.8 3.4 3.1 4.844 2.922 3.3 6.6 6 10.7 7.7 10.097 4.3 22 2.7 30.628-4.11C61.004 43.4 63.2 24 53.1 11.199z"/>
  <linearGradient id="SVGID_1_" gradientUnits="userSpaceOnUse" x1="28.3" y1="24.4" x2="1.7" y2="39.7">
    <stop offset=".0877" stop-color="#C16B3F"/>
    <stop offset=".3567" stop-color="#F29107"/>
    <stop offset="1" stop-color="#F29107"/>
  </linearGradient>
  <path class="st1" d="M12.169 45.48c2.419-3.74 4.837-7.48 7.256-11.221 1.642-2.539 3.284-5.079 4.926-7.618.526-.814 1.053-1.628 1.579-2.442.076-.118.575-.702.527-.847-.78-2.318-1.559-4.755-2.769-6.89-.144-.254-.364-.727-.675-.821-.259-.078-.649.669-.777.841-.807 1.078-1.603 2.164-2.397 3.3-4.246 5.818-8.426 11.684-12.603 17.551-.958 1.346-1.916 2.693-2.872 4.04-.157.222-1.058 1.142-.874 1.5.268.5 1.1.7 1.6.882.955.4 1.9.6 2.9.887.94.2 1.9.5 2.8.7.268-.042 1.21-.042 1.41.138z"/>
  <path class="st0" d="M43.591 42.526c-3.767-8.827-8.12-17.393-11.872-26.226-.631-1.486-1.869-1.658-3.405-1.697-1.566-.04-3.295.094-4.771.659-1.154.442-.722 1.35-.318 2.285.633 1.5 1.5 2.9 2.3 4.2 2.639 4.3 4.4 9.2 6.6 13.789.771 1.6 1.6 3.2 2.4 4.827.58 1.1 1 2.4 2.3 2.9 1.386.5 3 .6 4.5.518.465.019 2.675-.181 2.275-1.255-3.234-7.526.8 1.874 0 0z"/>
  <path class="st2" d="M95.401 42.182c.027-.141 0-.31 0-.454-4.268 3.413-10.532 3.804-15.072.7-4.328-2.979-6.424-8.196-5.345-13.342 1.036-4.944 5.293-8.997 10.278-9.794 5.168-.826 10.3 1.5 13.1 6 2.245 3.6 1.8 7.9 1.8 11.974v4.745c0 1.038-.442 2.003-1.457 2.4C97.153 45 95.4 43.8 95.4 42.182zM87.428 23.85c-4.346 0-7.973 3.624-7.973 7.973 0 4.3 3.6 8 8 8 4.327 0 7.973-3.645 7.973-7.973-.027-4.35-3.628-7.95-8.028-8zm21.012-2.386c-.027.1 0 .3 0 .454 2.271-1.817 5.062-2.817 7.973-2.817 2.103 0 6.9.4 6.5 3.506-.166 1.224-1.34 2.211-2.588 2.044-.604-.081-1.166-.402-1.757-.55-.813-.203-1.66-.28-2.496-.245-2.71.115-5.229 1.657-6.567 4.015-1.488 2.623-1.04 6.022-1.04 8.9v4.377c0 1.364-.119 2.862-1.743 3.287-1.658.434-3.005-.876-3.005-2.484V22.753c0-.437-.025-.883 0-1.32-.024-3.033 4.683-3.033 4.683.031zm36.505 15.879c1.095 0 2.1.7 2.3 1.807.297 1.427-.627 2.331-1.69 3.1-2.129 1.536-4.678 2.296-7.296 2.296-5.135 0-9.928-3.174-11.845-7.974-1.926-4.822-.647-10.399 3.077-13.965 3.734-3.576 9.528-4.568 14.219-2.313 1.534.7 3.8 2 3.6 3.979-.186 1.893-2.446 2.712-3.893 1.6-3.345-2.818-8.377-2.557-11.276.799-2.841 3.288-2.44 8.4.9 11.256 1.648 1.4 3.8 2.1 5.9 1.9 1.109-.094 2.178-.428 3.14-.988 1.005-.64 1.719-1.44 2.819-1.497.726-.043-.5.057 0-.043zm10.813 4.815c0 2.737-4.103 3.26-4.691.546-.096-.441-.057-.932-.057-1.381v-30.04c0-.232-.012-.468 0-.7 0-2.464 3.408-3.267 4.503-1.042.337.7.2 1.5.2 2.254v9.642c4.508-3.491 11.07-2.927 15.2.899 2.028 1.9 3.4 4.5 3.7 7.24.118 1 .1 2.1.1 3.1v8.692c0 1.391-.41 2.879-2.067 3.085-1.845.229-2.68-1.32-2.68-2.89v-8.579c0-.914.056-1.856-.036-2.768-.269-2.679-2.151-5.013-4.652-5.958-4.862-1.837-9.533 2.14-9.533 7v8.421c.013.921.055 1.721.055 2.479zm28.963-27.576c0 3.611-5.588 3.611-5.588 0 0-3.582 5.567-3.582 5.567 0zM179.564 42.2V21.619c0-2.07 2.481-3.333 4.032-1.782.703.7.7 1.6.7 2.5v19.372c0 .636-.011 1.242-.375 1.808-1.25 1.883-4.321.983-4.321-1.359z"/>
  <path class="st0" d="M214.637 31.823c0 5.164-3.173 9.918-7.996 11.845-4.816 1.925-10.38.642-13.942-3.077-3.537-3.693-4.54-9.384-2.395-14.058 2.173-4.734 7.072-7.645 12.24-7.418C209.287 19.4 214.6 25.1 214.6 31.8c.037 3.6 0-1.7 0 .023zm-12.72-7.973c-4.346 0-7.973 3.624-7.973 7.973 0 4.3 3.6 8 8 8 4.327 0 7.973-3.644 7.973-7.973-.027-4.35-3.717-7.95-8.017-8zm21.08-2.408c4.509-3.491 11.069-2.927 15.2.899 2.028 1.9 3.4 4.5 3.7 7.2.119 1 .1 2.1.1 3.129v8.727c0 1.393-.372 2.88-2.045 3.1-1.778.221-2.703-1.237-2.703-2.805v-8.54c0-.858.034-1.724-.009-2.581-.134-2.702-1.897-5.104-4.353-6.182-4.843-2.122-9.859 1.817-9.859 6.828v10.859c0 2.592-3.77 3.294-4.62.806-.201-.588-.127-1.303-.127-1.918V21.609C218.25 18.5 223 18.2 223 21.442c2.011-1.542 0-.042 0 0zm22.307 20.74V12.654c0-1.7-.29-4.2 2.077-4.441 2.783-.283 2.6 2.5 2.6 4.4v27.166c0-.063 2.1.3 2.3.372 1.882 1.1 1.4 4.144-.858 4.4-.997.124-2.057.019-3.059.019-1.495-.07-3.064-.57-3.064-2.388zm17.56-27.6c0 3.611-5.588 3.611-5.588 0 0-3.582 5.624-3.582 5.624 0zM257.707 42.2V21.619c0-2.07 2.481-3.332 4.032-1.782.703.7.7 1.6.7 2.5v19.372c0 .636-.011 1.243-.375 1.808-1.251 1.883-4.364.983-4.364-1.359zm14.356-20.758c4.509-3.491 11.069-2.927 15.2.899 2.028 1.9 3.4 4.5 3.7 7.2.119 1 .1 2.1.1 3.129v8.727c0 1.393-.372 2.88-2.045 3.1-1.778.221-2.703-1.237-2.703-2.805v-8.54c0-.858.034-1.724-.009-2.581-.134-2.702-1.897-5.104-4.353-6.182-4.843-2.122-9.859 1.817-9.859 6.828v10.859c0 2.592-3.77 3.294-4.62.806-.201-.588-.127-1.303-.127-1.918V21.609c-.031-3.109 4.753-3.409 4.753-.167 1.977-1.542 0-.042 0 0zm41.888 15.947c1.095 0 2.1.7 2.3 1.807.293 1.412-.564 2.29-1.622 3.1-2.136 1.539-4.694 2.296-7.318 2.296-5.135 0-9.928-3.174-11.845-7.974-1.926-4.822-.647-10.399 3.077-13.965 3.69-3.535 9.366-4.536 14.035-2.395 2.29 1.1 4.3 2.8 5.6 4.976.718 1.2 1.2 2.4 1.5 3.7.254 1.2.6 2.8.1 3.943-.897 1.86-3.954 1.309-5.633 1.309h-14.517c.831 2.7 3.1 4.8 5.8 5.402 1.491.3 3.1.3 4.579-.245C311.408 38.9 312.5 37.4 314 37.4c.633 0-.6 0 0-.011zm1.023-7.929c-1.019-3.293-4.216-5.611-7.655-5.611-3.434 0-6.688 2.283-7.655 5.611 5.102.04 10.236.04 15.336 0z"/>
</svg>
