<?xml version="1.0" encoding="UTF-8" standalone="no"?>
<svg width="505px" height="505px" viewBox="0 0 505 505" version="1.1" xmlns="http://www.w3.org/2000/svg" xmlns:xlink="http://www.w3.org/1999/xlink">
    <!-- Generator: Sketch 3.6.1 (26313) - http://www.bohemiancoding.com/sketch -->
    <title>arch linux (4)</title>
    <desc>Created with Sketch.</desc>
    <defs>
        <linearGradient x1="54.638%" y1="32.5938304%" x2="28.129%" y2="72.2661085%" id="linearGradient-1">
            <stop stop-color="#FFFFFF" stop-opacity="0" offset="0%"></stop>
            <stop stop-color="#FFFFFF" stop-opacity="0.27451" offset="100%"></stop>
        </linearGradient>
    </defs>
    <g id="Page-1" stroke="none" stroke-width="1" fill="none" fill-rule="evenodd">
        <g id="arch-linux-(4)" transform="translate(-2.000000, -1.000000)">
            <path d="M254.0544,1.65344492 C231.613046,56.6682388 217.985969,92.7027988 193.008246,146.084706 C208.320985,162.319045 227.146831,181.160645 257.685662,202.514983 C224.854646,189.00606 202.476308,175.481383 185.745723,161.405322 C153.773292,228.12286 103.644554,323.12643 1.99286154,505.776522 C81.8648615,459.665014 143.793231,431.213568 201.499569,420.359168 C199.026215,409.717445 197.710769,398.154122 197.805292,386.141814 L197.868308,383.621199 C199.136492,332.436953 225.768369,293.075968 257.315446,295.746245 C288.854646,298.416522 313.414892,342.09406 312.146708,393.286183 C311.902523,402.927537 310.784,412.190799 308.885662,420.792399 C365.969723,431.961876 427.307323,460.279414 506.115938,505.776522 C490.574769,477.167537 476.656246,451.386368 463.407262,426.818245 C442.541292,410.646922 420.785231,389.60766 376.390892,366.819722 C406.906092,374.751783 428.772431,383.920522 445.802338,394.144768 C311.122708,143.382922 300.2368,110.039906 254.0544,1.65344492 L254.0544,1.652736 L254.0544,1.65344492 Z" id="Shape" fill="#1793D1"></path>
            <path d="M395.941415,301.284431 C286.672738,152.9856 261.348431,33.4532923 254.928738,4.9152 C313.217969,139.350646 312.816246,141.0048 395.941415,301.284431 L395.941415,301.284431 Z" id="path2522" fill-opacity="0.16568" fill="#FFFFFF"></path>
            <path d="M255.039015,3.62275446 C252.203323,10.5897354 249.525169,17.3821637 246.910031,23.8073698 C244.042831,30.8540652 241.2544,37.6431852 238.544738,44.2385329 C235.835077,50.8338806 233.086031,57.0850068 230.423631,63.4385329 C227.753354,69.7912714 225.272123,76.0723298 222.546708,82.3927729 C219.821292,88.7100652 216.828062,95.0982498 213.929354,101.588834 C211.030646,108.087296 208.005908,114.648773 204.823631,121.533204 C201.641354,128.409758 198.301538,135.719542 194.725415,143.194742 C194.244923,144.202988 193.748677,145.368773 193.252431,146.392773 C208.525785,162.571973 227.359508,181.263911 257.7408,202.51585 C224.917662,189.006927 202.602338,175.48225 185.863877,161.406188 C184.997415,163.186373 184.304246,164.753881 183.406277,166.57345 C180.097969,173.43425 176.545477,180.224158 172.819692,187.746619 C171.9296,189.51105 171.275815,191.110065 170.362092,192.913881 C166.415754,200.822311 162.280369,209.006434 157.806277,217.77345 C156.916185,219.506373 156.010338,220.939973 155.096615,222.696527 C152.394831,227.950434 143.753846,244.515604 134.915938,261.348588 C129.756554,271.178988 125.707815,279.229204 119.894646,290.146619 C118.248369,293.281634 114.861292,299.559542 113.986954,301.221573 C177.986954,265.200404 247.036062,212.874004 372.452431,257.654311 C366.174523,245.760158 360.148677,234.661573 354.729354,224.177388 C349.310031,213.685327 344.394831,203.925819 339.715938,194.638927 C335.037046,185.352034 330.712615,176.592896 326.663877,168.298496 C322.623015,160.004096 318.8736,152.174434 315.344738,144.667727 C311.815877,137.161019 308.373662,129.937881 305.2544,123.006188 C302.127262,116.082373 299.220677,109.379111 296.392862,102.825511 C293.565046,96.2640345 290.9184,89.7655729 288.263877,83.3773883 C285.617231,76.9852652 282.970585,70.8562314 280.386954,64.4231483 C279.268431,61.6236898 278.315323,58.6430622 277.188923,55.8073698 C270.194215,39.3847729 263.333415,23.1063237 255.039015,3.62275446 L255.039015,3.622912 L255.039015,3.62275446 Z" id="Shape" fill="url(#linearGradient-1)"></path>
        </g>
    </g>
</svg>