<?xml version="1.0" encoding="UTF-8" standalone="no"?>
<svg width="683px" height="510px" viewBox="0 0 683 510" version="1.1" xmlns="http://www.w3.org/2000/svg" xmlns:xlink="http://www.w3.org/1999/xlink">
    <!-- Generator: Sketch 3.6.1 (26313) - http://www.bohemiancoding.com/sketch -->
    <title>Arch Linux (3)</title>
    <desc>Created with Sketch.</desc>
    <defs></defs>
    <g id="Page-1" stroke="none" stroke-width="1" fill="none" fill-rule="evenodd">
        <g id="Arch-Linux-(3)" transform="translate(0.000000, -1.000000)">
            <path d="M338.882406,1.7249203 C322.001805,43.0814316 311.819549,70.1693113 293.033383,110.295868 C304.563008,122.503026 318.691128,136.648469 341.634887,152.703326 C316.958797,142.548018 300.155188,132.425432 287.566917,121.84474 C263.526015,171.999567 225.818947,243.373522 149.401985,380.674214 C209.458045,346.008349 256.038496,324.662183 299.423759,316.50098 C297.556692,308.493762 296.517293,299.793612 296.594286,290.746995 L296.65203,288.879928 C297.595188,250.402935 317.632481,220.780078 341.346165,222.781883 C365.05985,224.783687 383.499549,257.678725 382.537143,296.155717 C382.36391,303.393011 381.555489,310.341582 380.131128,316.789702 C423.035188,325.201131 469.134436,346.489552 528.341654,380.674214 C516.658045,359.174063 506.187068,339.829702 496.235789,321.370755 C480.548571,309.205943 464.226165,293.383988 430.849925,276.253161 C453.774436,282.220078 470.250827,289.072409 483.050827,296.771657 C381.805714,108.259417 373.586767,83.2137624 338.882406,1.73646917 L338.882406,1.7249203 Z M350.450526,383.222665 L360.998496,380.624168 L359.708872,505.063266 L349.006917,506.872589 L350.450526,383.222665 L350.450526,383.222665 Z M378.495038,420.371537 L387.753383,416.290935 L386.56,505.525221 L377.64812,507.353792 L378.495038,420.371537 L378.495038,420.371537 Z M376.762707,388.18868 L384.269474,382.164018 L390.332632,388.997101 L382.825865,395.175747 L376.762707,388.18868 L376.762707,388.18868 Z M405.038195,418.735447 L415.566917,416.618153 L415.355188,435.269582 C415.355188,436.078003 421.418346,414.423868 449.251128,414.905071 C476.256241,415.059056 480.394586,435.847026 480.163609,440.505071 L479.566917,506.102665 L470.32782,508.085221 L471.193985,443.296048 C471.328722,441.409732 467.24812,425.414544 448.153985,425.3568 C429.05985,425.299056 415.64391,439.138454 415.547669,447.973341 L414.873985,505.044018 L404.17203,507.815747 L405.038195,418.735447 L405.038195,418.735447 Z M571.264962,506.583868 L560.716992,508.701161 L560.94797,490.049732 C560.94797,489.260559 554.865564,510.895447 527.05203,510.414244 C500.046917,510.260259 495.908571,489.472289 496.120301,484.814244 L496.736241,419.21665 L507.919398,416.983868 L507.168722,481.773041 C507.149474,483.543868 509.055038,499.924018 528.149173,499.981762 C547.22406,500.039507 560.774737,488.548379 561.101955,471.263567 L561.698647,420.140559 L572.131128,417.503567 L571.264962,506.583868 L571.264962,506.583868 Z M593.111579,418.004018 L585.662556,423.739958 L613.399098,460.48462 L582.65985,502.945973 L590.397594,508.701161 L619.289023,469.281011 L647.949474,509.644319 L655.263759,503.908379 L624.543759,460.754093 L650.028271,425.857251 L642.444511,419.389883 L619.21203,451.688229 L593.111579,418.004018 L593.111579,418.004018 Z M669.08391,500.847928 L669.08391,492.898454 L666.138947,492.898454 L666.138947,491.839808 L673.222256,491.839808 L673.222256,492.898454 L670.277293,492.898454 L670.277293,500.847928 L669.08391,500.847928 L669.08391,500.847928 Z M674.454135,500.847928 L674.454135,491.839808 L676.244211,491.839808 L678.342256,498.210935 C678.553985,498.807627 678.688722,499.250334 678.765714,499.539056 C678.881203,499.211838 679.035188,498.749883 679.266165,498.114695 L681.383459,491.839808 L682.981053,491.839808 L682.981053,500.847928 L681.845414,500.847928 L681.845414,493.321913 L679.246917,500.847928 L678.188271,500.847928 L675.589774,493.167928 L675.589774,500.847928 L674.454135,500.847928 L674.454135,500.847928 Z M524.241805,349.461462 L524.241805,341.531236 L521.296842,341.531236 L521.296842,340.472589 L528.38015,340.472589 L528.38015,341.531236 L525.41594,341.531236 L525.41594,349.461462 L524.241805,349.461462 L524.241805,349.461462 Z M528.99609,349.461462 L528.99609,340.472589 L530.766917,340.472589 L532.884211,346.843717 C533.076692,347.440409 533.211429,347.883116 533.307669,348.171838 C533.40391,347.84462 533.577143,347.382665 533.788872,346.747477 L535.925414,340.472589 L537.503759,340.472589 L537.503759,349.461462 L536.387368,349.461462 L536.387368,341.935447 L533.769624,349.461462 L532.710977,349.461462 L530.131729,341.80071 L530.131729,349.461462 L528.99609,349.461462 L528.99609,349.461462 Z" id="Shape" fill="#1793D1"></path>
            <path d="M44.4785564,407.906165 C31.1415338,407.886917 20.0719398,410.62015 15.7930827,412.121504 L11.386803,435.91218 C11.3760241,435.989173 33.3161865,430.060752 42.9787429,430.407218 C58.9797053,430.984662 60.4521865,436.52812 60.1730887,443.996391 C60.446412,444.439098 56.0443669,437.240301 42.2030436,436.990075 C24.7392241,436.701353 0.092006015,443.18797 0.126652632,469.538647 C-0.345041805,499.2 22.2754647,507.919398 37.6797353,508.073383 C51.5306827,507.823158 58.0269233,502.837895 61.5839759,500.162406 C66.2574195,495.273383 71.6045474,490.365113 76.7033744,484.45594 C71.8797955,493.233083 67.6952541,499.296241 63.3413293,503.935038 L63.3413293,507.842406 L84.3929985,504.300752 L84.5373594,447.07609 C84.3237053,438.972632 89.1838556,407.983158 44.4781714,407.906165 L44.4785564,407.906165 Z M41.4527519,457.739549 C50.1798496,457.855038 60.1869474,462.147368 60.2023459,472.502857 C60.2466165,481.934436 48.4051729,486.996692 40.704,486.900451 C33.0009023,486.823459 22.7782256,480.856541 22.7339549,471.675188 C22.8821654,463.475489 32.3734135,457.52782 41.4527519,457.739549 L41.4527519,457.739549 Z M98.4194887,413.199398 L98.2770526,507.957895 L122.803008,503.242105 L122.843429,449.501353 C122.851128,441.513383 134.276812,432.158797 148.614737,432.312782 C151.657865,426.80782 157.378406,412.737444 158.77197,409.523008 C126.739248,409.446015 126.333113,418.742857 120.760782,423.304662 C120.703038,414.585263 120.741534,409.369023 120.741534,409.369023 L98.4194887,413.199398 L98.4194887,413.199398 Z M236.44391,425.633684 C236.212932,425.537444 223.663158,410.947368 198.409624,410.83188 C174.772932,410.446917 148.256722,419.609023 147.831338,459.26015 C148.039218,494.099248 173.304301,507.726917 198.544361,507.996391 C225.568722,508.265865 236.309173,491.096541 236.963609,490.673083 C233.729925,487.882105 221.661353,475.909774 221.661353,475.909774 C221.661353,475.909774 214.11609,486.650226 199.487519,486.784962 C184.853173,486.938947 172.134015,475.486316 171.953083,459.510376 C171.764451,443.534436 183.646316,434.872782 199.603008,434.17985 C213.40391,434.17985 221.372632,443.091729 221.372632,443.091729 L236.44391,425.633684 L236.44391,425.633684 Z M267.356391,380.034887 L244.200902,385.482105 L244.374135,508.920301 L267.183158,504.801203 L267.452632,446.710376 C267.491128,440.608722 276.249023,431.254135 290.896842,431.562105 C304.870977,431.696842 308.008421,440.878195 307.969925,442.033083 L308.374135,509.286015 L330.85594,505.320902 L330.95218,434.006617 C331.086917,427.135038 315.919398,412.660451 291.512782,412.544962 C279.925414,412.564211 273.496541,415.201203 270.243609,417.126015 C264.642406,421.437594 258.25203,425.57594 251.977143,430.869173 C257.790075,423.400902 262.65985,418.261654 267.414135,414.41203 L267.356391,380.034887 L267.356391,380.034887 Z" id="Shape" fill="#4D4D4D"></path>
        </g>
    </g>
</svg>