<?xml version="1.0" encoding="UTF-8" standalone="no"?>
<svg width="1712px" height="504px" viewBox="0 0 1712 504" version="1.1" xmlns="http://www.w3.org/2000/svg" xmlns:xlink="http://www.w3.org/1999/xlink">
    <!-- Generator: Sketch 3.6.1 (26313) - http://www.bohemiancoding.com/sketch -->
    <title>Arch Linux (2)</title>
    <desc>Created with Sketch.</desc>
    <defs></defs>
    <g id="Page-1" stroke="none" stroke-width="1" fill="none" fill-rule="evenodd">
        <g id="Arch-Linux-(2)" transform="translate(-5.000000, -5.000000)">
            <g id="layer1" transform="translate(0.674649, 0.598616)">
                <g id="g2424" transform="translate(2.160176, 2.599197)">
                    <g id="g2809" transform="translate(461.336173, 104.656067)" fill="#4D4D4D">
                        <path d="M82.766357,52.5542599 C58.3069643,52.5138644 38.0081704,57.5296134 30.1592788,60.2657392 L22.078071,103.893698 C22.0584648,104.054435 62.2968035,93.1634594 80.0198028,93.8053925 C109.364124,94.8597482 112.064874,105.020478 111.552359,118.735655 C112.05257,119.537851 103.981452,106.343337 78.5937073,105.900795 C46.565318,105.348324 1.36425154,117.241056 1.42609549,165.585532 C0.562646435,219.96582 42.0473968,235.962935 70.301226,236.256487 C95.701715,235.793984 107.616673,226.637023 114.140458,221.73144 C122.711803,212.769459 132.517999,203.757195 141.870093,192.945439 C133.02083,209.023818 125.348985,220.140213 117.362377,228.650644 L117.362377,235.83394 L155.972592,229.337283 L156.236684,124.387218 C155.845558,109.533193 164.757307,52.6923989 82.766357,52.5542599 L82.766357,52.5542599 Z M77.2204301,143.930008 C93.2246273,144.149648 111.578354,152.037972 111.605177,171.025823 C111.687996,188.296511 89.9706957,197.581757 75.847153,197.434998 C61.7175932,197.28829 42.971439,186.330772 42.8885015,169.49409 C43.1592019,154.443919 60.5670658,143.542651 77.2204301,143.930008 L77.2204301,143.930008 Z" id="path2284"></path>
                        <path d="M181.696921,62.2520473 L181.434858,236.048814 L226.414341,227.382818 L226.49023,128.842248 C226.500371,114.169918 247.457916,97.0253007 273.752429,97.2985025 C279.333461,87.2011887 289.823913,61.3952238 292.37978,55.5252879 C233.634804,55.3844954 232.88693,72.4101403 222.669731,80.7854238 C222.56308,64.8083372 222.63373,55.2172682 222.63373,55.2172682 L181.697056,62.2520473 L181.696921,62.2520473 Z" id="path2286"></path>
                        <path d="M434.832446,85.0681047 C434.398136,84.8641329 411.373695,58.1363399 365.084537,57.9255567 C321.727025,57.2048946 273.094777,74.0143646 272.316395,146.715826 C272.695961,210.636206 319.033509,235.616447 365.329766,236.103525 C414.87409,236.618204 434.587792,205.123288 435.770264,204.342811 C429.858631,199.217994 407.716671,177.277673 407.716671,177.277673 C407.716671,177.277673 393.88695,196.970079 367.054112,197.220412 C340.214919,197.475969 316.885213,176.476322 316.554613,147.175573 C316.210677,117.874572 338.001078,101.999894 367.255582,100.717616 C392.582464,100.712546 407.1942,117.067372 407.1942,117.067372 L434.832446,85.0681047 L434.832446,85.0681047 Z" id="path2288"></path>
                        <path d="M491.52758,1.42609549 L449.061626,11.408764 L449.378536,237.788219 L491.21067,230.235195 L491.686036,123.70058 C491.775446,112.529676 507.846372,95.374461 534.680174,95.9181266 C560.33676,96.1847536 566.07094,113.018883 566.001456,115.144007 L566.740913,238.474858 L607.992046,231.185925 L608.150416,100.407686 C608.42203,87.8235832 580.586285,61.2468253 535.842093,61.0580145 C514.578067,61.0921563 502.802059,65.9058941 496.809331,69.4561324 C486.555709,77.3757583 474.837235,84.9643272 463.322496,94.6504862 C473.967448,80.975198 482.904178,71.5200032 491.633133,64.4912074 L491.527496,1.42609549 L491.52758,1.42609549 Z" id="path2290"></path>
                    </g>
                    <g id="g5326" transform="translate(1101.025155, 104.959775)" fill="#1793D1">
                        <path d="M4.21905845,6.9966266 L23.5586105,2.20286552 L21.220972,230.431485 L1.59423466,233.745166 L4.21905845,6.9966266 L4.21905845,6.9966266 Z" id="path2292"></path>
                        <path d="M55.6461737,75.1126497 L72.6417429,67.6390617 L70.4562444,231.287067 L54.0972563,234.638008 L55.6461737,75.1126497 L55.6461737,75.1126497 Z M52.4724829,16.1007565 L66.2480872,5.05232265 L77.3825536,17.562569 L63.5971053,28.9034704 L52.4724829,16.1007565 L52.4724829,16.1007565 Z" id="path2294"></path>
                        <path d="M104.337186,72.131347 L123.666366,68.2227458 L123.270344,102.434548 C123.25272,103.903817 134.396728,64.2154793 185.417927,65.0980368 C234.964403,65.3720876 242.527721,103.499022 242.137716,112.046918 L241.036029,232.352742 L224.091316,235.996852 L225.685375,117.165626 C225.930591,113.695351 218.430994,84.3495761 183.416845,84.2416524 C148.409065,84.1405599 123.790359,109.515977 123.602619,125.728036 L122.390963,230.410741 L102.743732,235.493641 L104.337186,72.131347 L104.337186,72.131347 Z" id="path2296"></path>
                        <path d="M409.196907,233.21846 L389.867602,237.126685 L390.2638,202.915434 C390.281424,201.445539 379.130844,241.134427 328.116166,240.251745 C278.569766,239.977894 271.006422,201.85096 271.396427,193.303064 L272.498064,72.9964635 L293.033663,68.8870536 L291.657933,187.720481 C291.620421,190.9655 295.103175,221.000406 330.117249,221.107529 C365.125079,221.208871 389.95164,200.154382 390.576791,168.448948 L391.662013,74.6906136 L410.790412,69.8563154 L409.196907,233.21846 L409.196907,233.21846 Z" id="path2298"></path>
                        <path d="M449.2815,70.7817121 L435.61798,81.2917533 L486.471304,148.686617 L430.0994,226.548407 L444.286182,237.123082 L497.266168,164.815174 L549.828857,238.836875 L563.240917,228.324682 L506.90713,149.180619 L553.658464,85.1783094 L539.731148,73.3317453 L497.130216,132.555382 L449.2815,70.7817121 L449.2815,70.7817121 Z" id="path2300"></path>
                    </g>
                    <path d="M254.111922,1.7252638 C231.70247,56.6672813 218.186173,92.6058158 193.236182,145.914614 C208.533652,162.129927 227.310573,181.013468 257.80423,202.34065 C225.020558,188.850371 202.658082,175.30645 185.946241,161.251892 C154.015013,227.881309 103.987959,322.791953 2.46695005,505.204557 C82.2590544,459.13919 144.112475,430.739398 201.756892,419.902781 C199.281618,409.256665 197.874327,397.740816 197.96991,385.725266 L198.064585,383.169053 C199.3307,332.048368 225.923641,292.736553 257.425532,295.405739 C288.927438,298.074925 313.41352,341.705142 312.147426,392.825858 C311.9093,402.445157 310.824284,411.698815 308.928491,420.28148 C365.947053,431.435324 427.139082,459.762406 505.851569,505.204557 C490.331001,476.63011 476.477553,450.872329 463.248018,426.340651 C442.409345,410.189293 420.673582,389.168239 376.336775,366.411657 C406.811349,374.330237 428.630759,383.466165 445.638551,393.677929 C311.130151,143.246794 300.237851,109.969666 254.111922,1.7252638 L254.111922,1.7252638 Z" id="path2518" fill="#1793D1"></path>
                    <g id="text2634" transform="translate(1682.612581, 310.024680)" fill="#1793D1">
                        <path d="M6.53680414,18.1145566 L6.53680414,3.99269392 L1.26156197,3.99269392 L1.26156197,2.10321273 L13.9527005,2.10321273 L13.9527005,3.99269392 L8.6556241,3.99269392 L8.6556241,18.1145566 L6.53680414,18.1145566" id="path3945"></path>
                        <path d="M16.1589103,18.1145566 L16.1589103,2.10321273 L19.3480573,2.10321273 L23.1379368,13.4400469 C23.4874168,14.4958001 23.7422465,15.2858331 23.9024524,15.8100663 C24.0844925,15.2275644 24.3684433,14.3720287 24.7543578,13.2434329 L28.5879057,2.10321273 L31.4384899,2.10321273 L31.4384899,18.1145566 L29.3961162,18.1145566 L29.3961162,4.71351455 L24.7434407,18.1145566 L22.8321253,18.1145566 L18.201284,4.48417578 L18.201284,18.1145566 L16.1589103,18.1145566" id="path3947"></path>
                    </g>
                    <g id="text2638" transform="translate(500.809099, 442.513860)" fill="#1793D1">
                        <path d="M7.52678979,17.7526226 L7.52678979,3.94870751 L2.37036391,3.94870751 L2.37036391,2.10180835 L14.7756968,2.10180835 L14.7756968,3.94870751 L9.59791364,3.94870751 L9.59791364,17.7526226 L7.52678979,17.7526226" id="path3940"></path>
                        <path d="M16.9322231,17.7526226 L16.9322231,2.10180835 L20.0495876,2.10180835 L23.7541175,13.1833358 C24.0957276,14.215347 24.3448338,14.9875735 24.5014095,15.5000151 C24.67921,14.9306296 24.9569073,14.0943579 25.3341305,12.9911735 L29.0813749,2.10180835 L31.8677549,2.10180835 L31.8677549,17.7526226 L29.8713814,17.7526226 L29.8713814,4.65333796 L25.3234518,17.7526226 L23.4551954,17.7526226 L18.9286231,4.42913977 L18.9286231,17.7526226 L16.9322231,17.7526226" id="path3942"></path>
                    </g>
                </g>
            </g>
        </g>
    </g>
</svg>