<?xml version="1.0" encoding="UTF-8" standalone="no"?>
<svg width="2687px" height="505px" viewBox="0 0 2687 505" version="1.1" xmlns="http://www.w3.org/2000/svg" xmlns:xlink="http://www.w3.org/1999/xlink">
    <!-- Generator: Sketch 3.6.1 (26313) - http://www.bohemiancoding.com/sketch -->
    <title>Archionline</title>
    <desc>Created with Sketch.</desc>
    <defs>
        <linearGradient x1="108.000702%" y1="29.3676662%" x2="-7.67710129%" y2="80.6330698%" id="linearGradient-1">
            <stop stop-color="#C16B3F" offset="8.77%"></stop>
            <stop stop-color="#F29107" offset="35.67%"></stop>
            <stop stop-color="#F29107" offset="100%"></stop>
        </linearGradient>
    </defs>
    <g id="Page-1" stroke="none" stroke-width="1" fill="none" fill-rule="evenodd">
        <g id="Archionline" transform="translate(-8.000000, 0.000000)">
            <path d="M453.992918,93.9981639 C453.984525,91.6731803 448.570754,87.1742951 446.690623,85.0927213 C443.41718,81.4499672 440.29482,77.5302295 436.803148,74.0973115 C421.971934,59.4927213 403.917639,45.7022951 385.502426,34.9083279 C346.758295,12.5901639 302.163934,0 256.839344,0 C164.662557,-0.00839344262 81.4163934,51.2 35.252459,130.937705 C17.6598033,161.103738 10.0469508,196.616393 8.47737705,231.340066 C7.99055738,242.234754 6.89940984,260.717115 16.8708197,268.246033 C24.9201311,274.121443 34.4382951,265.174033 39.8520656,259.718295 C56.7144918,242.755148 69.1116066,220.680393 80.2916721,199.70518 C91.6060328,178.486557 104.758557,158.392656 120.118557,139.843148 C134.991738,121.88118 151.417705,105.816131 172.141115,94.7703607 C191.689443,84.3540984 213.394885,78.2688525 235.377311,75.9186885 C279.241443,71.2267541 323.508459,81.7940984 359.600262,107.478033 C425.379672,153.641967 450.249443,241.773115 420.872393,316.474754 C389.455738,399.527869 297.127869,446.531148 211.514754,424.313705 C190.413639,418.958689 170.302951,409.767869 152.525639,397.186098 C143.955934,391.126033 135.931803,384.285377 128.612721,376.764852 C125.17141,373.231213 122.703738,368.295869 117.776787,367.213115 C95.3243279,362.260984 72.3262951,356.822033 49.3366557,355.277639 C46.2646557,355.067803 42.4120656,354.580984 39.4491803,356.116984 C34.5809836,357.795672 39.4491803,375.421902 40.2885246,378.846426 C45.3497705,394.793967 55.3967213,407.384131 66.3081967,419.504262 C90.8338361,447.202623 121.704918,469.864918 156.118033,484.13377 C240.866623,520.225574 340.77377,506.796066 413.192393,449.636721 C520.427016,364.27541 538.859016,201.442623 454.085246,93.9981639 L453.992918,93.9981639 Z" id="Shape" fill="#F29107"></path>
            <path d="M110.533246,381.73377 C130.836984,350.342295 151.132328,318.95082 171.436066,287.550951 C185.218098,266.24 199.000131,244.920656 212.782164,223.609705 C217.197115,216.777443 221.620459,209.94518 226.03541,203.112918 C226.673311,202.122492 230.861639,197.220721 230.458754,196.003672 C223.911869,176.547672 217.373377,156.092852 207.217311,138.172852 C206.008656,136.040918 204.162098,132.07082 201.551738,131.281836 C199.377836,130.627148 196.104393,136.897049 195.030033,138.340721 C188.256525,147.388852 181.575344,156.504131 174.910951,166.039082 C139.272393,214.872131 104.187803,264.108066 69.1283934,313.352393 C61.0874754,324.649967 53.0465574,335.955934 45.0224262,347.261902 C43.7046557,349.125246 36.1421639,356.847213 37.6865574,359.852066 C39.936,364.048787 46.9193443,365.727475 51.1160656,367.255082 C59.1318033,370.612459 67.0636066,372.291148 75.4570492,374.700066 C83.3468852,376.378754 91.4045902,378.896787 98.9586885,380.575475 C101.208131,380.222951 109.114754,380.222951 110.793443,381.73377 L110.533246,381.73377 Z" id="Shape" fill="url(#linearGradient-1)"></path>
            <path d="M374.272,356.939541 C342.653902,282.850623 306.117246,210.952393 274.625049,136.813115 C269.328787,124.340459 258.937705,122.896787 246.045377,122.569443 C232.901246,122.233705 218.388984,123.358426 206.000262,128.100721 C196.31423,131.810623 199.940197,139.431869 203.331148,147.279738 C208.644197,159.869902 215.921311,171.620721 222.636066,182.532197 C244.786361,218.624 259.567213,259.751869 278.032787,298.269377 C284.504131,311.698885 291.462295,325.128393 298.177049,338.784525 C303.045246,348.017311 306.570492,358.928787 317.481967,363.125508 C329.115279,367.32223 342.662295,368.161574 355.252459,367.473311 C359.15541,367.632787 377.704918,365.954098 374.347541,356.939541 C347.203148,293.770492 381.062295,372.668852 374.347541,356.939541 L374.272,356.939541 Z" id="Shape" fill="#F29107"></path>
            <path d="M809.136262,354.052197 C809.362885,352.868721 809.136262,351.45023 809.136262,350.241574 C773.313049,378.888393 720.736525,382.17023 682.630295,356.116984 C646.303475,331.112918 628.71082,287.324328 637.767344,244.131672 C646.462951,202.634492 682.193836,168.615869 724.035148,161.926295 C767.412459,154.993311 810.487607,174.516459 833.989246,212.286951 C852.832525,242.503344 849.097443,278.595148 849.097443,312.790033 L849.097443,352.616918 C849.097443,361.329311 845.387541,369.428984 836.868197,372.76118 C823.841574,377.704918 809.127869,367.632787 809.127869,354.052197 L809.136262,354.052197 Z M742.215344,200.183607 C705.737443,200.183607 675.294426,230.601443 675.294426,267.104525 C675.294426,303.196328 705.51082,334.252066 742.441967,334.252066 C778.760393,334.252066 809.362885,303.657967 809.362885,267.331148 C809.136262,230.819672 778.911475,200.603279 741.980328,200.183607 L742.215344,200.183607 Z M918.578361,180.156852 C918.351738,180.996197 918.578361,182.674885 918.578361,183.967475 C937.639869,168.71659 961.065967,160.323148 985.499279,160.323148 C1003.15069,160.323148 1043.41403,163.680525 1040.05666,189.750557 C1038.66334,200.024131 1028.80944,208.308459 1018.33443,206.906754 C1013.26479,206.226885 1008.54767,203.53259 1003.58715,202.290361 C996.763279,200.586492 989.654033,199.940197 982.637115,200.233967 C959.890885,201.199213 938.747803,214.141902 927.517377,233.933639 C915.027934,255.949639 918.788197,284.478951 918.788197,308.635279 L918.788197,345.373377 C918.788197,356.822033 917.789377,369.39541 904.158426,372.962623 C890.242098,376.605377 878.936131,365.609967 878.936131,352.113311 L878.936131,190.976 C878.936131,187.308066 878.726295,183.56459 878.936131,179.896656 C878.734689,154.439344 918.242623,154.439344 918.242623,180.156852 L918.578361,180.156852 Z M1224.98098,313.436328 C1234.1718,313.436328 1242.60721,319.311738 1244.2859,328.603279 C1246.77875,340.580721 1239.02321,348.168393 1230.10098,354.622951 C1212.23134,367.515279 1190.83646,373.894295 1168.86243,373.894295 C1125.7621,373.894295 1085.53233,347.253508 1069.4421,306.964984 C1053.27633,266.491803 1064.01154,219.681574 1095.26872,189.750557 C1126.60984,159.735607 1175.24144,151.409311 1214.61508,170.336525 C1227.49062,176.211934 1246.51016,187.12341 1244.83148,203.734033 C1243.2703,219.62282 1224.30111,226.497049 1212.1558,217.163541 C1184.07974,193.51082 1141.84393,195.701508 1117.51134,223.869902 C1093.66557,251.467541 1097.03134,294.37482 1125.06544,318.346492 C1138.89784,330.097311 1156.96052,335.972721 1174.58675,334.294033 C1183.89508,333.505049 1192.86767,330.701639 1200.94216,326.001311 C1209.37757,320.629508 1215.37049,313.914754 1224.60328,313.436328 C1230.69692,313.07541 1220.40656,313.914754 1224.60328,313.07541 L1224.98098,313.436328 Z M1315.73928,353.850754 C1315.73928,376.823607 1281.30098,381.213377 1276.36564,358.433574 C1275.55987,354.732066 1275.88721,350.610885 1275.88721,346.84223 L1275.88721,94.7032131 C1275.88721,92.7559344 1275.78649,90.775082 1275.88721,88.8278033 C1275.88721,68.1463607 1304.49207,61.4064262 1313.68289,80.0818361 C1316.51148,85.9572459 1315.36157,92.672 1315.36157,99.0006557 L1315.36157,179.93023 C1353.19921,150.628721 1408.27698,155.362623 1442.9419,187.475934 C1459.9638,203.423475 1471.47961,225.246426 1473.99764,248.244459 C1474.98807,256.637902 1474.83698,265.870689 1474.83698,274.264131 L1474.83698,347.219934 C1474.83698,358.895213 1471.39567,371.384656 1457.48774,373.113705 C1442.00184,375.035803 1434.99331,362.034361 1434.99331,348.856656 L1434.99331,276.849311 C1434.99331,269.177705 1435.46334,261.271082 1434.69115,253.616262 C1432.43331,231.13023 1416.63685,211.539934 1395.64485,203.608131 C1354.83593,188.189377 1315.63016,221.570098 1315.63016,262.36223 L1315.63016,333.04341 C1315.73928,340.77377 1316.0918,347.488525 1316.0918,353.850754 L1315.73928,353.850754 Z M1558.83856,122.39318 C1558.83856,152.701902 1511.936,152.701902 1511.936,122.39318 C1511.936,92.3278689 1558.6623,92.3278689 1558.6623,122.39318 L1558.83856,122.39318 Z M1515.55357,354.203279 L1515.55357,181.457836 C1515.55357,164.08341 1536.3777,153.482492 1549.39593,166.500721 C1555.29652,172.376131 1555.27134,179.93023 1555.27134,187.484328 L1555.27134,350.082098 C1555.27134,355.420328 1555.17902,360.506754 1552.1238,365.257443 C1541.632,381.062295 1515.85574,373.508197 1515.85574,353.850754 L1515.55357,354.203279 Z" id="Shape" fill="#70706F"></path>
            <path d="M1809.93679,267.104525 C1809.93679,310.448262 1783.30439,350.350689 1742.82282,366.524852 C1702.4,382.68223 1655.69889,371.913443 1625.80144,340.69823 C1596.11384,309.701246 1587.69521,261.934164 1605.69915,222.703213 C1623.9381,182.968656 1665.05757,158.535344 1708.43489,160.440656 C1765.03187,162.832787 1809.62623,210.67541 1809.62623,266.911475 C1809.93679,297.127869 1809.62623,252.642623 1809.62623,267.104525 L1809.93679,267.104525 Z M1703.1722,200.183607 C1666.6943,200.183607 1636.25128,230.601443 1636.25128,267.104525 C1636.25128,303.196328 1666.46767,334.252066 1703.39882,334.252066 C1739.71725,334.252066 1770.31974,303.666361 1770.31974,267.331148 C1770.09311,230.819672 1739.12131,200.603279 1703.02951,200.183607 L1703.1722,200.183607 Z M1880.10597,179.972197 C1917.952,150.670689 1973.01298,155.40459 2007.6863,187.517902 C2024.7082,203.465443 2036.224,225.288393 2038.74203,247.950689 C2039.74085,256.344131 2039.58138,265.576918 2039.58138,274.21377 L2039.58138,347.463344 C2039.58138,359.15541 2036.45902,371.636459 2022.41679,373.483016 C2007.49325,375.337967 1999.72931,363.100328 1999.72931,349.93941 L1999.72931,278.25941 C1999.72931,271.057836 2000.01469,263.789115 1999.65377,256.595934 C1998.52905,233.916852 1983.73141,213.755803 1963.11711,204.707672 C1922.46767,186.896787 1880.36616,219.958557 1880.36616,262.018098 L1880.36616,353.162492 C1880.36616,374.918295 1848.72289,380.810492 1841.58846,359.927607 C1839.90138,354.992262 1840.52249,348.990951 1840.52249,343.828984 L1840.52249,181.373902 C1840.2623,155.278689 1880.13115,152.760656 1880.13115,179.972197 C1897.01036,167.029508 1880.13115,179.619672 1880.13115,179.972197 L1880.10597,179.972197 Z M2067.33849,354.052197 L2067.33849,106.210623 C2067.33849,91.9417705 2064.90439,70.9581639 2084.77167,68.9353443 C2108.13062,66.56 2106.59462,89.9189508 2106.59462,105.866492 L2106.59462,333.882754 C2106.59462,333.353967 2124.22085,336.400787 2125.89954,337.005115 C2141.696,346.237902 2137.65036,371.787541 2118.69797,373.936262 C2110.3297,374.977049 2101.43266,374.095738 2093.02243,374.095738 C2080.47423,373.508197 2067.30492,369.311475 2067.30492,354.052197 L2067.33849,354.052197 Z M2214.72734,122.39318 C2214.72734,152.701902 2167.82479,152.701902 2167.82479,122.39318 C2167.82479,92.3278689 2215.02951,92.3278689 2215.02951,122.39318 L2214.72734,122.39318 Z M2171.44236,354.203279 L2171.44236,181.457836 C2171.44236,164.08341 2192.26649,153.490885 2205.28472,166.500721 C2211.18531,172.376131 2211.16013,179.93023 2211.16013,187.484328 L2211.16013,350.082098 C2211.16013,355.420328 2211.0678,360.515148 2208.01259,365.257443 C2197.51239,381.062295 2171.38361,373.508197 2171.38361,353.850754 L2171.44236,354.203279 Z M2291.93862,179.972197 C2329.78466,150.670689 2384.84564,155.40459 2419.51895,187.517902 C2436.54085,203.465443 2448.05666,225.288393 2450.57469,247.950689 C2451.57351,256.344131 2451.41403,265.576918 2451.41403,274.21377 L2451.41403,347.463344 C2451.41403,359.15541 2448.29167,371.636459 2434.24944,373.483016 C2419.3259,375.337967 2411.56197,363.100328 2411.56197,349.93941 L2411.56197,278.25941 C2411.56197,271.057836 2411.84734,263.789115 2411.48643,256.595934 C2410.3617,233.916852 2395.56407,213.755803 2374.94977,204.707672 C2334.30033,186.896787 2292.19882,219.958557 2292.19882,262.018098 L2292.19882,353.162492 C2292.19882,374.918295 2260.55554,380.810492 2253.42111,359.927607 C2251.73403,354.992262 2252.35515,348.990951 2252.35515,343.828984 L2252.35515,181.373902 C2252.09495,155.278689 2292.24918,152.760656 2292.24918,179.972197 C2308.84302,167.029508 2292.24918,179.619672 2292.24918,179.972197 L2291.93862,179.972197 Z M2643.52315,313.822426 C2652.71397,313.822426 2661.14938,319.697836 2662.82807,328.989377 C2665.28734,340.840918 2658.09416,348.210361 2649.2139,355.009049 C2631.28551,367.926557 2609.81508,374.280393 2587.79069,374.280393 C2544.69036,374.280393 2504.46059,347.639607 2488.37036,307.351082 C2472.20459,266.877902 2482.9398,220.067672 2514.19698,190.136656 C2545.16879,160.465836 2592.80997,152.064 2631.99895,170.034361 C2651.21993,179.267148 2668.09075,193.536 2679.00223,211.800131 C2685.02872,221.872262 2689.07436,231.944393 2691.59239,242.855869 C2693.72433,252.928 2696.62846,266.357508 2692.43174,275.951213 C2684.90282,291.563016 2659.24407,286.93823 2645.15148,286.93823 L2523.30387,286.93823 C2530.27882,309.600525 2549.32354,327.226754 2571.98584,332.279607 C2584.50046,334.797639 2598.00551,334.797639 2610.41941,330.223213 C2622.17862,326.504918 2631.34426,313.914754 2643.93443,313.914754 C2649.24748,313.914754 2638.89836,313.914754 2643.93443,313.822426 L2643.52315,313.822426 Z M2652.10964,247.27082 C2643.55672,219.631213 2616.72289,200.175213 2587.85784,200.175213 C2559.03475,200.175213 2531.72249,219.337443 2523.60603,247.27082 C2566.42938,247.606557 2609.52131,247.606557 2652.32787,247.27082 L2652.10964,247.27082 Z" id="Shape" fill="#F29107"></path>
        </g>
    </g>
</svg>