<?xml version="1.0" encoding="UTF-8" standalone="no"?>
<svg width="1492px" height="510px" viewBox="0 0 1492 510" version="1.1" xmlns="http://www.w3.org/2000/svg" xmlns:xlink="http://www.w3.org/1999/xlink">
    <!-- Generator: Sketch 3.6.1 (26313) - http://www.bohemiancoding.com/sketch -->
    <title>Arkitera</title>
    <desc>Created with Sketch.</desc>
    <defs></defs>
    <g id="Page-1" stroke="none" stroke-width="1" fill="none" fill-rule="evenodd">
        <g id="Arkitera" transform="translate(-3.000000, -1.000000)" fill="#323031">
            <g id="Group">
                <path d="M80.8621176,277.270588 L99.7647059,215.427765 L103.164235,202.642824 C103.875765,200.180706 104.523294,197.918118 105.005176,195.836235 C105.502118,193.739294 106.059294,191.329882 106.680471,188.623059 L110.934588,205.763765 L113.509647,215.424 L132.634353,277.266824 L80.8621176,277.266824 L80.8621176,277.270588 Z M72.4178824,156.269176 L3.69694118,355.606588 L57.7317647,355.606588 L70.784,310.942118 L142.682353,310.942118 L155.350588,355.606588 L209.385412,355.606588 L140.510118,156.269176 L72.4178824,156.269176 L72.4178824,156.269176 Z" id="Shape"></path>
                <path d="M615.890824,156.269176 L552.572235,156.269176 L489.528471,246.889412 L489.528471,156.269176 L435.712,156.269176 L435.712,355.606588 L489.528471,355.606588 L489.528471,266.115765 L548.333176,355.606588 L616.101647,355.606588 L542.712471,255.981176 L615.890824,156.269176 Z" id="Shape"></path>
                <path d="M804.675765,355.606588 L859.053176,355.606588 L859.053176,200.116706 L903.638588,200.116706 L903.638588,156.269176 L760.086588,156.269176 L760.086588,200.116706 L804.675765,200.116706 L804.675765,355.606588 Z" id="Shape"></path>
                <path d="M1066.61647,311.002353 L997.424941,311.002353 L997.424941,277.270588 L1062.64094,277.270588 L1062.64094,234.612706 L997.424941,234.612706 L997.424941,200.045176 L1066.61647,200.056471 L1066.61647,156.269176 L944.444235,156.269176 L944.444235,355.606588 L1066.61647,355.606588 L1066.61647,311.002353 Z" id="Shape"></path>
                <path d="M1385.06541,215.431529 L1388.43859,202.646588 C1389.16141,200.195765 1389.79765,197.921882 1390.29082,195.851294 C1390.79906,193.743059 1391.35624,191.344941 1392.00376,188.626824 L1396.22024,205.767529 L1398.784,215.427765 L1417.54729,277.270588 L1366.4,277.270588 L1385.06541,215.431529 L1385.06541,215.431529 Z M1356.02824,310.942118 L1427.90024,310.942118 L1440.60988,355.606588 L1494.65224,355.606588 L1425.792,156.269176 L1357.70353,156.269176 L1288.96753,355.606588 L1343.00235,355.606588 L1356.02824,310.942118 L1356.02824,310.942118 Z" id="Shape"></path>
                <path d="M685.692235,221.639529 C666.992941,221.639529 651.817412,236.807529 651.817412,255.499294 C651.817412,274.172235 666.992941,289.355294 685.692235,289.355294 C704.391529,289.355294 719.525647,274.172235 719.525647,255.499294 C719.525647,236.807529 704.391529,221.639529 685.692235,221.639529" id="Shape"></path>
                <rect id="Rectangle-path" x="659.245176" y="310.942118" width="52.8790588" height="199.792941"></rect>
                <rect id="Rectangle-path" x="659.245176" y="1.26494118" width="52.8414118" height="198.765176"></rect>
                <path d="M328.926118,244.502588 C323.516235,248.504471 315.015529,250.507294 303.318588,250.507294 L293.263059,250.507294 L293.263059,198.140235 L304.105412,198.140235 C315.998118,198.140235 324.419765,200.237176 329.456941,204.464941 C334.482824,208.666353 336.997647,215.762824 336.997647,225.728 C337.001412,234.273882 334.324706,240.519529 328.926118,244.502588 M379.226353,255.826824 C386.740706,246.177882 390.512941,233.671529 390.512941,218.364235 C390.512941,208.372706 388.555294,199.092706 384.594824,190.531765 C380.645647,181.963294 375.175529,175.017412 368.195765,169.648941 C361.671529,164.758588 356.491294,161.091765 346.383059,157.955765 C338.014118,155.354353 321.536,156.344471 299.053176,156.344471 L242.281412,156.344471 L242.281412,355.527529 L293.266824,355.527529 L293.266824,277.511529 L338.944,355.527529 L400.252235,355.527529 L346.017882,275.211294 C360.617412,271.951059 371.674353,265.490824 379.226353,255.826824" id="Shape"></path>
                <path d="M1168.00376,198.211765 L1178.87247,198.211765 C1190.74259,198.211765 1199.16424,200.323765 1204.17882,204.536471 C1209.216,208.752941 1211.74588,215.838118 1211.74588,225.799529 C1211.74588,234.334118 1209.01271,240.579765 1203.64424,244.551529 C1198.27576,248.553412 1189.73365,250.556235 1178.07812,250.556235 L1168.00753,250.556235 L1168.00753,198.211765 L1168.00376,198.211765 Z M1168.00376,277.552941 L1213.64706,355.489882 L1274.90259,355.489882 L1220.73976,275.252706 C1235.31294,271.988706 1246.37365,265.528471 1253.91812,255.879529 C1261.43247,246.230588 1265.20471,233.750588 1265.20471,218.443294 C1265.20471,208.463059 1263.19812,199.209412 1259.24894,190.648471 C1255.32235,182.08 1249.86729,175.122824 1242.86871,169.776941 C1236.34447,164.875294 1231.18682,161.197176 1221.12376,158.087529 C1212.73224,155.486118 1196.27671,156.461176 1173.80894,156.461176 L1117.05976,156.461176 L1117.05976,355.489882 L1168.00376,355.489882 L1168.00376,277.552941 L1168.00376,277.552941 Z" id="Shape"></path>
            </g>
        </g>
    </g>
</svg>