<?xml version="1.0" encoding="UTF-8" standalone="no"?>
<svg width="1782px" height="506px" viewBox="0 0 1782 506" version="1.1" xmlns="http://www.w3.org/2000/svg" xmlns:xlink="http://www.w3.org/1999/xlink">
    <!-- Generator: Sketch 3.6.1 (26313) - http://www.bohemiancoding.com/sketch -->
    <title>arzion</title>
    <desc>Created with Sketch.</desc>
    <defs></defs>
    <g id="Page-1" stroke="none" stroke-width="1" fill="none" fill-rule="evenodd">
        <g id="arzion" transform="translate(0.000000, -3.000000)">
            <g id="Group" fill="#2397D4">
                <path d="M1039.48021,32.6745043 C1039.48021,16.5353739 1026.40863,3.45488696 1010.29621,3.45488696 C994.183791,3.45488696 981.112209,16.5353739 981.112209,32.6745043 C981.112209,34.1704348 981.321461,35.6173913 981.548522,37.0465391 L981.112209,37.0465391 L981.112209,270.714435 C981.112209,286.840209 994.183791,299.920696 1010.29621,299.920696 C1026.40863,299.920696 1039.48021,286.840209 1039.48021,270.714435 L1039.48021,270.714435 L1039.48021,270.714435 L1039.48021,37.0465391 L1039.0439,37.0465391 C1039.2487,35.6173913 1039.48021,34.1704348 1039.48021,32.6745043 L1039.48021,32.6745043 Z" id="Shape"></path>
                <path d="M1402.88,115.756522 C1402.88,54.5658435 1353.90609,4.90184348 1293.00925,3.584 L1293.00925,3.45488696 L1189.9904,3.45488696 L1189.9904,3.82441739 C1131.31965,7.50636522 1084.8256,56.1374609 1084.8256,115.756522 C1084.8256,116.014748 1084.85231,116.241809 1084.85231,116.486678 L1084.8256,116.486678 L1084.8256,191.265391 L1084.99923,191.265391 C1086.94929,249.143652 1132.57517,295.806887 1189.9904,299.399791 L1189.9904,299.911791 L1293.00925,299.911791 L1293.00925,299.631304 C1352.65057,298.366887 1400.70289,250.706365 1402.70191,191.269843 L1402.88,191.269843 L1402.88,116.486678 L1402.85329,116.486678 C1402.85329,116.241809 1402.88,116.014748 1402.88,115.756522 L1402.88,115.756522 Z M1349.27137,128.351722 L1349.27137,177.944487 L1349.15117,177.944487 C1347.84668,217.301704 1315.9513,248.938852 1276.46497,249.758052 L1276.46497,249.940591 L1208.15082,249.940591 L1208.15082,249.633391 C1170.06692,247.229217 1139.83666,216.282157 1138.53217,177.944487 L1138.40306,177.944487 L1138.40306,128.351722 L1138.45649,128.351722 C1138.45649,128.195896 1138.40306,128.017809 1138.40306,127.866435 C1138.40306,88.3533913 1169.27443,56.1152 1208.15082,53.6709565 L1208.15082,53.4171826 L1276.46497,53.4171826 L1276.46497,53.5062261 C1316.84619,54.3877565 1349.27583,87.2937739 1349.27583,127.866435 C1349.27583,128.022261 1349.24911,128.200348 1349.24911,128.351722 L1349.27137,128.351722 L1349.27137,128.351722 Z" id="Shape"></path>
                <path d="M488.995617,61.8585043 L571.427617,61.8585043 L574.699965,61.8585043 L574.775652,61.8585043 L574.851339,61.8585043 L575.924313,61.8585043 L575.924313,61.7293913 C591.50247,61.1283478 603.981913,48.3773217 603.981913,32.6745043 C603.981913,16.9316174 591.50247,4.20730435 575.924313,3.584 L575.924313,3.45488696 L472.905461,3.45488696 L472.905461,3.45488696 C410.935652,3.45488696 360.630539,53.733287 360.630539,115.756522 C360.630539,116.014748 360.6528,116.241809 360.6528,116.486678 L360.630539,116.486678 L360.630539,270.718887 C360.630539,286.844661 373.69767,299.925148 389.810087,299.925148 C405.949217,299.925148 419.016348,286.844661 419.016348,270.718887 L419.016348,214.26087 L419.016348,116.486678 L419.247861,116.281878 C419.247861,93.6826435 438.125078,61.8585043 488.995617,61.8585043 L488.995617,61.8585043 Z" id="Shape"></path>
                <path d="M892.469426,241.52153 L719.529183,241.52153 C719.529183,241.52153 900.937461,78.2113391 901.05767,78.0955826 C911.137391,70.526887 917.762226,58.5549913 917.762226,44.9758609 C917.762226,22.1495652 899.397009,3.45488696 880.141357,3.45488696 L674.490991,3.45488696 C658.351861,3.45488696 645.280278,16.5353739 645.280278,32.6745043 C645.280278,48.7869217 658.351861,61.8585043 674.490991,61.8585043 L832.289391,61.8585043 L654.896974,220.885704 C654.358261,221.424417 632.952209,235.132661 632.952209,258.266157 C632.952209,279.583165 649.064626,296.937739 669.727165,299.319652 C671.646052,299.711443 673.564939,299.920696 675.506087,299.920696 L658.725843,299.9296 L892.460522,299.9296 C908.626365,299.920696 921.671235,286.849113 921.671235,270.723339 C921.680139,254.60647 908.63527,241.52153 892.469426,241.52153 L892.469426,241.52153 Z" id="Shape"></path>
                <path d="M323.33913,115.756522 C323.33913,54.4411826 274.133704,4.68368696 213.058783,3.57064348 L213.058783,3.45488696 L52.865113,3.45488696 C36.7526957,3.45488696 23.6855652,16.5353739 23.6855652,32.6745043 C23.6855652,48.7869217 36.7571478,61.8585043 52.865113,61.8585043 L52.9586087,61.8585043 L203.143791,61.8585043 C267.237287,61.8585043 263.960487,120.271026 263.960487,120.271026 L90.0407652,120.271026 C40.4613565,120.271026 0.222608696,160.474157 0.222608696,210.093635 C0.222608696,259.695304 40.4658087,299.925148 90.0407652,299.925148 C90.0941913,299.925148 90.1698783,299.916243 90.1965913,299.916243 L210.868313,299.916243 C210.895026,299.916243 210.966261,299.925148 211.019687,299.925148 C211.0464,299.925148 211.122087,299.916243 211.175513,299.916243 L213.067687,299.916243 L213.067687,299.809391 C272.909357,298.736417 321.219896,250.897809 323.138783,191.265391 L323.343583,191.265391 L323.343583,116.486678 L323.294609,116.486678 C323.290157,116.241809 323.33913,116.014748 323.33913,115.756522 L323.33913,115.756522 Z M153.426365,3.45488696 L52.865113,3.45488696 C36.7526957,3.45488696 23.6855652,16.5353739 23.6855652,32.6745043 C23.6855652,48.7869217 36.7571478,61.8585043 52.865113,61.8585043 L52.9586087,61.8585043 L153.426365,3.45488696 Z M205.645913,239.55367 L85.6909913,239.55367 L85.6909913,239.55367 C69.5785739,239.55367 56.5114435,226.486539 56.5114435,210.374122 C56.5114435,194.21273 69.5785739,181.141148 85.6909913,181.141148 L85.7711304,181.141148 L89.8760348,181.141148 C90.7842783,181.194574 91.7325913,181.319235 92.6764522,181.319235 L263.809113,181.319235 C263.809113,181.319235 266.823235,237.866296 205.645913,239.55367 L205.645913,239.55367 Z" id="Shape"></path>
                <path d="M1781.08772,115.756522 C1781.08772,56.9700174 1735.89816,8.83756522 1678.35381,3.95353043 L1678.35381,3.45488696 L1575.33496,3.45488696 L1575.33496,3.92681739 C1572.23624,3.6685913 1569.1687,3.45488696 1566.02546,3.45488696 C1504.0512,3.45488696 1453.7728,53.733287 1453.7728,115.756522 C1453.7728,116.014748 1453.79951,116.241809 1453.79951,116.486678 L1453.7728,116.486678 L1453.7728,270.718887 C1453.7728,286.844661 1466.84438,299.925148 1482.9568,299.925148 C1498.37468,299.925148 1510.88083,287.90873 1511.95826,272.749078 L1511.95826,128.351722 L1511.98497,128.351722 C1511.98497,128.195896 1511.95826,128.017809 1511.95826,127.866435 C1511.95826,88.3533913 1542.77621,56.1152 1581.70157,53.6709565 L1581.70157,53.4171826 L1649.9623,53.4171826 L1649.9623,53.5062261 C1690.34351,54.3877565 1722.79986,87.2937739 1722.79986,127.866435 C1722.79986,128.022261 1722.77315,128.200348 1722.77315,128.351722 L1722.79986,128.351722 L1722.79986,271.805217 C1723.38755,287.418991 1736.15193,299.920696 1751.87701,299.920696 C1768.01614,299.920696 1781.08772,286.840209 1781.08772,270.714435 L1781.08772,116.486678 L1781.0343,116.486678 C1781.0343,116.241809 1781.08772,116.014748 1781.08772,115.756522 L1781.08772,115.756522 Z" id="Shape"></path>
            </g>
            <g id="Group" transform="translate(636.660870, 418.504348)" fill="#666666">
                <path d="M3.81551304,89.2838957 L3.81551304,3.80215652 L13.7572174,3.80215652 L13.7572174,89.2838957 L3.81551304,89.2838957 L3.81551304,89.2838957 Z" id="Shape"></path>
                <path d="M103.980522,89.2838957 L92.6363826,89.2838957 L45.9152696,17.5415652 L45.4477913,17.5415652 C46.0710957,25.9606261 46.3827478,33.6806957 46.3827478,40.6973217 L46.3827478,89.2838957 L37.2023652,89.2838957 L37.2023652,3.80215652 L48.4307478,3.80215652 L95.0316522,75.2550957 L95.4991304,75.2550957 C95.4189913,74.2043826 95.2453565,70.8207304 94.9737739,65.1085913 C94.6977391,59.3964522 94.6042435,55.3182609 94.6799304,52.8562087 L94.6799304,3.80215652 L103.97607,3.80215652 L103.97607,89.2838957 L103.980522,89.2838957 Z" id="Shape"></path>
                <path d="M194.261704,89.2838957 L182.917565,89.2838957 L136.196452,17.5415652 L135.728974,17.5415652 C136.352278,25.9606261 136.66393,33.6806957 136.66393,40.6973217 L136.66393,89.2838957 L127.483548,89.2838957 L127.483548,3.80215652 L138.71193,3.80215652 L185.312835,75.2550957 L185.780313,75.2550957 C185.700174,74.2043826 185.526539,70.8207304 185.254957,65.1085913 C184.978922,59.3964522 184.885426,55.3182609 184.961113,52.8562087 L184.961113,3.80215652 L194.257252,3.80215652 L194.257252,89.2838957 L194.261704,89.2838957 Z" id="Shape"></path>
                <path d="M291.964661,46.4228174 C291.964661,60.1043478 288.509774,70.8608 281.586643,78.7010783 C274.667965,86.5369043 265.046817,90.4548174 252.732104,90.4548174 C240.141357,90.4548174 230.426713,86.603687 223.583722,78.9058783 C216.745183,71.2080696 213.321461,60.340313 213.321461,46.3070609 C213.321461,32.3940174 216.754087,21.6019478 223.614887,13.9397565 C230.475687,6.28201739 240.217043,2.45314783 252.847861,2.45314783 C265.126957,2.45314783 274.716939,6.3488 281.617809,14.1490087 C288.518678,21.9447652 291.964661,32.7056696 291.964661,46.4228174 L291.964661,46.4228174 Z M223.8464,46.4228174 C223.8464,58.0029217 226.312904,66.7826087 231.241461,72.7663304 C236.170017,78.7500522 243.338017,81.741913 252.727652,81.741913 C262.201878,81.741913 269.35207,78.7589565 274.18713,72.7930435 C279.022191,66.8315826 281.439722,58.0429913 281.439722,46.4228174 C281.439722,34.9228522 279.031096,26.2010435 274.218296,20.2573913 C269.401043,14.3137391 262.277565,11.339687 252.843409,11.339687 C243.373635,11.339687 236.170017,14.3315478 231.237009,20.3152696 C226.312904,26.2989913 223.8464,34.9985391 223.8464,46.4228174 L223.8464,46.4228174 Z" id="Shape"></path>
                <path d="M359.851409,3.80215652 L370.549983,3.80215652 L339.732035,89.2838957 L329.910539,89.2838957 L299.270678,3.80215652 L309.795617,3.80215652 L329.438609,59.1159652 C331.700313,65.4692174 333.494539,71.6443826 334.821287,77.645913 C336.21927,71.3327304 338.058017,65.0373565 340.31527,58.7642435 L359.851409,3.80215652 L359.851409,3.80215652 Z" id="Shape"></path>
                <path d="M436.037009,89.2838957 L425.396313,62.0989217 L391.132383,62.0989217 L380.607443,89.2838957 L370.549983,89.2838957 L404.346435,3.44598261 L412.707617,3.44598261 L446.330435,89.2838957 L436.037009,89.2838957 L436.037009,89.2838957 Z M422.302052,53.1500522 L412.3648,26.6640696 C411.078122,23.3071304 409.751374,19.1977739 408.384557,14.3270957 C407.529739,18.0669217 406.296487,22.1807304 404.702609,26.6640696 L394.645148,53.1500522 L422.302052,53.1500522 L422.302052,53.1500522 Z" id="Shape"></path>
                <path d="M484.396522,89.2838957 L474.45927,89.2838957 L474.45927,12.6263652 L447.3856,12.6263652 L447.3856,3.80215652 L511.474643,3.80215652 L511.474643,12.6263652 L484.396522,12.6263652 L484.396522,89.2838957 L484.396522,89.2838957 Z" id="Shape"></path>
                <path d="M524.336974,89.2838957 L524.336974,3.80215652 L534.274226,3.80215652 L534.274226,89.2838957 L524.336974,89.2838957 L524.336974,89.2838957 Z" id="Shape"></path>
                <path d="M606.546365,3.80215652 L617.244939,3.80215652 L586.426991,89.2838957 L576.605496,89.2838957 L545.965635,3.80215652 L556.490574,3.80215652 L576.133565,59.1159652 C578.39527,65.4692174 580.189496,71.6443826 581.516243,77.645913 C582.914226,71.3327304 584.752974,65.0373565 587.010226,58.7642435 L606.546365,3.80215652 L606.546365,3.80215652 Z" id="Shape"></path>
                <path d="M676.650296,89.2838957 L628.994226,89.2838957 L628.994226,3.80215652 L676.650296,3.80215652 L676.650296,12.6263652 L638.931478,12.6263652 L638.931478,40.167513 L674.36633,40.167513 L674.36633,48.9427478 L638.931478,48.9427478 L638.931478,80.3973565 L676.650296,80.3973565 L676.650296,89.2838957 L676.650296,89.2838957 Z" id="Shape"></path>
                <path d="M780.906852,28.7031652 C780.906852,37.3537391 777.955061,44.0141913 772.047026,48.6711652 C766.143443,53.3281391 757.693217,55.6566261 746.705252,55.6566261 L736.643339,55.6566261 L736.643339,89.2794435 L726.706087,89.2794435 L726.706087,3.79770435 L748.869009,3.79770435 C770.226087,3.80215652 780.906852,12.1010087 780.906852,28.7031652 L780.906852,28.7031652 Z M736.643339,47.1218087 L745.592209,47.1218087 C754.403061,47.1218087 760.774122,45.7060174 764.714296,42.8566261 C768.650017,40.0072348 770.617878,35.4526609 770.617878,29.1750957 C770.617878,23.5208348 768.765774,19.3135304 765.061565,16.5442783 C761.357357,13.7750261 755.591791,12.3904 747.755965,12.3904 L736.643339,12.3904 L736.643339,47.1218087 L736.643339,47.1218087 Z" id="Shape"></path>
                <path d="M846.456209,89.2838957 L798.800139,89.2838957 L798.800139,3.80215652 L846.456209,3.80215652 L846.456209,12.6263652 L808.737391,12.6263652 L808.737391,40.167513 L844.172243,40.167513 L844.172243,48.9427478 L808.737391,48.9427478 L808.737391,80.3973565 L846.456209,80.3973565 L846.456209,89.2838957 L846.456209,89.2838957 Z" id="Shape"></path>
                <path d="M939.600139,46.4228174 C939.600139,60.1043478 936.145252,70.8608 929.222122,78.7010783 C922.303443,86.5369043 912.682296,90.4548174 900.367583,90.4548174 C887.776835,90.4548174 878.062191,86.603687 871.2192,78.9058783 C864.380661,71.2080696 860.956939,60.340313 860.956939,46.3070609 C860.956939,32.3940174 864.389565,21.6019478 871.250365,13.9397565 C878.111165,6.28201739 887.852522,2.45314783 900.483339,2.45314783 C912.762435,2.45314783 922.352417,6.3488 929.253287,14.1490087 C936.154157,21.9447652 939.600139,32.7056696 939.600139,46.4228174 L939.600139,46.4228174 Z M871.481878,46.4228174 C871.481878,58.0029217 873.948383,66.7826087 878.876939,72.7663304 C883.805496,78.7500522 890.973496,81.741913 900.36313,81.741913 C909.837357,81.741913 916.987548,78.7589565 921.822609,72.7930435 C926.65767,66.8315826 929.0752,58.0429913 929.0752,46.4228174 C929.0752,34.9228522 926.666574,26.2010435 921.853774,20.2573913 C917.036522,14.3137391 909.913043,11.339687 900.478887,11.339687 C891.009113,11.339687 883.805496,14.3315478 878.872487,20.3152696 C873.948383,26.2989913 871.481878,34.9985391 871.481878,46.4228174 L871.481878,46.4228174 Z" id="Shape"></path>
                <path d="M1012.86511,28.7031652 C1012.86511,37.3537391 1009.91332,44.0141913 1004.00529,48.6711652 C998.101704,53.3281391 989.651478,55.6566261 978.663513,55.6566261 L968.6016,55.6566261 L968.6016,89.2794435 L958.664348,89.2794435 L958.664348,3.79770435 L980.82727,3.79770435 C1002.18435,3.80215652 1012.86511,12.1010087 1012.86511,28.7031652 L1012.86511,28.7031652 Z M968.6016,47.1218087 L977.55047,47.1218087 C986.361322,47.1218087 992.732383,45.7060174 996.672557,42.8566261 C1000.60828,40.0072348 1002.57614,35.4526609 1002.57614,29.1750957 C1002.57614,23.5208348 1000.72403,19.3135304 997.019826,16.5442783 C993.315617,13.7750261 987.550052,12.3904 979.714226,12.3904 L968.6016,12.3904 L968.6016,47.1218087 L968.6016,47.1218087 Z" id="Shape"></path>
                <path d="M1030.7584,89.2838957 L1030.7584,3.80215652 L1040.69565,3.80215652 L1040.69565,80.2816 L1078.41447,80.2816 L1078.41447,89.2838957 L1030.7584,89.2838957 L1030.7584,89.2838957 Z" id="Shape"></path>
                <path d="M1140.57127,89.2838957 L1092.9152,89.2838957 L1092.9152,3.80215652 L1140.57127,3.80215652 L1140.57127,12.6263652 L1102.85245,12.6263652 L1102.85245,40.167513 L1138.2873,40.167513 L1138.2873,48.9427478 L1102.85245,48.9427478 L1102.85245,80.3973565 L1140.57127,80.3973565 L1140.57127,89.2838957 L1140.57127,89.2838957 Z" id="Shape"></path>
            </g>
        </g>
    </g>
</svg>