<?xml version="1.0" encoding="utf-8"?>
<!-- Generator: Adobe Illustrator 16.0.0, SVG Export Plug-In . SVG Version: 6.00 Build 0)  -->
<!DOCTYPE svg PUBLIC "-//W3C//DTD SVG 1.0//EN" "http://www.w3.org/TR/2001/REC-SVG-20010904/DTD/svg10.dtd">
<svg version="1.0" id="Layer_1" xmlns="http://www.w3.org/2000/svg" xmlns:xlink="http://www.w3.org/1999/xlink" x="0px" y="0px"
	 width="440px" height="151px" viewBox="0 0 440 151" enable-background="new 0 0 440 151" xml:space="preserve">
<g>
	<path fill-rule="evenodd" clip-rule="evenodd" fill="#2397D4" d="M250.477,28.339c0-3.625-2.936-6.563-6.555-6.563
		s-6.555,2.938-6.555,6.563c0,0.336,0.047,0.661,0.098,0.982h-0.098v52.484c0,3.622,2.936,6.56,6.555,6.56s6.555-2.938,6.555-6.56
		l0,0l0,0V29.321h-0.098C250.425,29,250.477,28.675,250.477,28.339z"/>
	<path fill-rule="evenodd" clip-rule="evenodd" fill="#2397D4" d="M332.1,47c0-13.744-11-24.899-24.678-25.195v-0.029h-23.139v0.083
		c-13.178,0.827-23.621,11.75-23.621,25.141c0,0.058,0.006,0.109,0.006,0.164h-0.006V63.96h0.039
		c0.438,13,10.686,23.481,23.582,24.288v0.115h23.139V88.3c13.396-0.284,24.189-10.989,24.638-24.339h0.04V47.164h-0.006
		C332.094,47.109,332.1,47.058,332.1,47z M320.059,49.829v11.139h-0.027c-0.293,8.84-7.457,15.946-16.326,16.13v0.041h-15.344
		v-0.069c-8.554-0.54-15.344-7.491-15.637-16.102h-0.029V49.829h0.012c0-0.035-0.012-0.075-0.012-0.109
		c0-8.875,6.934-16.116,15.666-16.665v-0.057h15.344v0.02c9.07,0.198,16.354,7.589,16.354,16.702c0,0.035-0.006,0.075-0.006,0.109
		H320.059z"/>
	<path fill="#2397D4" d="M126.833,34.894c5.4,0,18.515,0,18.515,0h0.735c0.006,0,0.006,0,0.017,0c0.006,0,0.011,0,0.017,0h0.241
		v-0.029c3.499-0.135,6.302-2.999,6.302-6.526c0-3.536-2.803-6.394-6.302-6.534v-0.029h-23.139l0,0
		C109.3,21.776,98.001,33.069,98.001,47c0,0.058,0.005,0.109,0.005,0.164h-0.005v34.642c0,3.622,2.935,6.56,6.554,6.56
		c3.625,0,6.56-2.938,6.56-6.56V69.125V47.164l0.052-0.046C111.167,42.042,115.407,34.894,126.833,34.894z"/>
	<path fill-rule="evenodd" clip-rule="evenodd" fill="#2397D4" d="M217.457,75.248h-38.844c0,0,40.746-36.681,40.773-36.707
		c2.264-1.7,3.752-4.389,3.752-7.439c0-5.127-4.125-9.326-8.45-9.326h-46.191c-3.625,0-6.561,2.938-6.561,6.563
		c0,3.619,2.936,6.555,6.561,6.555h35.443l-39.844,35.719c-0.121,0.121-4.929,3.2-4.929,8.396c0,4.788,3.619,8.686,8.26,9.221
		c0.431,0.088,0.862,0.135,1.298,0.135l-3.769,0.002h52.499c3.631-0.002,6.561-2.938,6.561-6.56
		C224.018,78.187,221.088,75.248,217.457,75.248z"/>
	<path fill="#2397D4" d="M89.625,47c0-13.772-11.052-24.948-24.77-25.198v-0.026H28.874c-3.619,0-6.554,2.938-6.554,6.563
		c0,3.619,2.936,6.555,6.554,6.555c0.009,0,0.015,0,0.021,0h33.733c14.396,0,13.66,13.12,13.66,13.12s-38.386,0-39.064,0
		c-11.136,0-20.174,9.03-20.174,20.175c0,11.141,9.039,20.177,20.174,20.177c0.012,0,0.029-0.002,0.035-0.002h27.104
		c0.006,0,0.022,0.002,0.034,0.002c0.006,0,0.023-0.002,0.035-0.002h0.425V88.34C78.298,88.099,89.149,77.354,89.58,63.96h0.046
		V47.164h-0.011C89.614,47.109,89.625,47.058,89.625,47z M51.461,21.776H28.874c-3.619,0-6.554,2.938-6.554,6.563
		c0,3.619,2.936,6.555,6.554,6.555c0.009,0,0.015,0,0.021,0 M63.19,74.806H36.247l0,0c-3.619,0-6.554-2.935-6.554-6.554
		c0-3.63,2.935-6.566,6.554-6.566c0.009,0,0.009,0,0.018,0h0.922c0.204,0.012,0.417,0.04,0.629,0.04c0.678,0,38.438,0,38.438,0
		S76.931,74.427,63.19,74.806z"/>
	<path fill="#2397D4" d="M417.049,47c0-13.204-10.15-24.015-23.075-25.112v-0.112h-23.139v0.106
		c-0.696-0.058-1.385-0.106-2.091-0.106c-13.92,0-25.213,11.293-25.213,25.224c0,0.058,0.006,0.109,0.006,0.164h-0.006v34.642
		c0,3.622,2.936,6.56,6.555,6.56c3.463,0,6.272-2.699,6.514-6.104V49.829h0.006c0-0.035-0.006-0.075-0.006-0.109
		c0-8.875,6.922-16.116,15.665-16.665v-0.057h15.332v0.02c9.07,0.198,16.36,7.589,16.36,16.702c0,0.035-0.006,0.075-0.006,0.109
		h0.006V82.05c0.132,3.507,2.999,6.315,6.531,6.315c3.625,0,6.561-2.938,6.561-6.56V47.164h-0.012
		C417.037,47.109,417.049,47.058,417.049,47z"/>
</g>
<g>
	<g>
		<path fill="#666666" d="M160.857,135.054v-19.2h2.233v19.2H160.857z"/>
		<path fill="#666666" d="M183.355,135.054h-2.548l-10.494-16.114h-0.105c0.14,1.891,0.21,3.625,0.21,5.201v10.913h-2.062v-19.2
			h2.522l10.467,16.049h0.105c-0.018-0.236-0.057-0.996-0.118-2.279c-0.062-1.283-0.083-2.199-0.066-2.752v-11.018h2.088V135.054z"
			/>
		<path fill="#666666" d="M203.633,135.054h-2.548l-10.494-16.114h-0.105c0.14,1.891,0.21,3.625,0.21,5.201v10.913h-2.062v-19.2
			h2.522l10.467,16.049h0.105c-0.018-0.236-0.057-0.996-0.118-2.279c-0.062-1.283-0.083-2.199-0.066-2.752v-11.018h2.088V135.054z"
			/>
		<path fill="#666666" d="M225.578,125.427c0,3.073-0.776,5.489-2.331,7.25c-1.554,1.76-3.715,2.64-6.481,2.64
			c-2.828,0-5.01-0.865-6.547-2.594c-1.536-1.729-2.305-4.17-2.305-7.322c0-3.125,0.771-5.549,2.312-7.27
			c1.541-1.72,3.729-2.58,6.566-2.58c2.758,0,4.912,0.875,6.462,2.627C224.804,119.929,225.578,122.346,225.578,125.427z
			 M210.278,125.427c0,2.601,0.554,4.573,1.661,5.917s2.717,2.016,4.826,2.016c2.128,0,3.734-0.67,4.82-2.01
			c1.086-1.339,1.629-3.313,1.629-5.923c0-2.583-0.541-4.542-1.622-5.877c-1.082-1.335-2.682-2.003-4.801-2.003
			c-2.127,0-3.745,0.672-4.853,2.016C210.832,120.907,210.278,122.861,210.278,125.427z"/>
		<path fill="#666666" d="M240.826,115.854h2.403l-6.922,19.2h-2.206l-6.882-19.2h2.364l4.412,12.424
			c0.508,1.427,0.911,2.814,1.209,4.162c0.314-1.418,0.727-2.832,1.234-4.241L240.826,115.854z"/>
		<path fill="#666666" d="M257.938,135.054l-2.39-6.106h-7.696l-2.364,6.106h-2.259l7.591-19.28h1.878l7.552,19.28H257.938z
			 M254.853,126.938l-2.232-5.949c-0.289-0.754-0.587-1.677-0.894-2.771c-0.192,0.84-0.469,1.764-0.827,2.771l-2.259,5.949H254.853z
			"/>
		<path fill="#666666" d="M268.8,135.054h-2.232v-17.218h-6.081v-1.982h14.395v1.982H268.8V135.054z"/>
		<path fill="#666666" d="M277.771,135.054v-19.2h2.232v19.2H277.771z"/>
		<path fill="#666666" d="M296.236,115.854h2.403l-6.922,19.2h-2.206l-6.882-19.2h2.364l4.412,12.424
			c0.508,1.427,0.911,2.814,1.209,4.162c0.314-1.418,0.727-2.832,1.234-4.241L296.236,115.854z"/>
		<path fill="#666666" d="M311.982,135.054h-10.704v-19.2h10.704v1.982h-8.472v6.186h7.959v1.971h-7.959v7.065h8.472V135.054z"/>
		<path fill="#666666" d="M335.399,121.447c0,1.943-0.663,3.439-1.99,4.485c-1.326,1.046-3.224,1.569-5.692,1.569h-2.26v7.552
			h-2.232v-19.2h4.978C333,115.854,335.399,117.718,335.399,121.447z M325.457,125.584h2.01c1.979,0,3.41-0.318,4.295-0.958
			c0.884-0.64,1.326-1.663,1.326-3.073c0-1.27-0.416-2.215-1.248-2.837s-2.127-0.933-3.887-0.933h-2.496V125.584z"/>
		<path fill="#666666" d="M350.122,135.054h-10.704v-19.2h10.704v1.982h-8.472v6.186h7.959v1.971h-7.959v7.065h8.472V135.054z"/>
		<path fill="#666666" d="M371.043,125.427c0,3.073-0.776,5.489-2.331,7.25c-1.554,1.76-3.715,2.64-6.481,2.64
			c-2.828,0-5.01-0.865-6.547-2.594c-1.536-1.729-2.305-4.17-2.305-7.322c0-3.125,0.771-5.549,2.312-7.27
			c1.541-1.72,3.729-2.58,6.566-2.58c2.758,0,4.912,0.875,6.462,2.627C370.269,119.929,371.043,122.346,371.043,125.427z
			 M355.743,125.427c0,2.601,0.554,4.573,1.661,5.917s2.717,2.016,4.826,2.016c2.128,0,3.734-0.67,4.82-2.01
			c1.086-1.339,1.629-3.313,1.629-5.923c0-2.583-0.541-4.542-1.622-5.877c-1.082-1.335-2.682-2.003-4.801-2.003
			c-2.127,0-3.745,0.672-4.853,2.016C356.297,120.907,355.743,122.861,355.743,125.427z"/>
		<path fill="#666666" d="M387.499,121.447c0,1.943-0.663,3.439-1.99,4.485c-1.326,1.046-3.224,1.569-5.692,1.569h-2.26v7.552
			h-2.232v-19.2h4.978C385.1,115.854,387.499,117.718,387.499,121.447z M377.557,125.584h2.01c1.979,0,3.41-0.318,4.295-0.958
			c0.884-0.64,1.326-1.663,1.326-3.073c0-1.27-0.416-2.215-1.248-2.837s-2.127-0.933-3.887-0.933h-2.496V125.584z"/>
		<path fill="#666666" d="M391.518,135.054v-19.2h2.232v17.178h8.472v2.022H391.518z"/>
		<path fill="#666666" d="M416.183,135.054h-10.704v-19.2h10.704v1.982h-8.472v6.186h7.959v1.971h-7.959v7.065h8.472V135.054z"/>
	</g>
</g>
</svg>
