<?xml version="1.0" standalone="no"?>
<!DOCTYPE svg PUBLIC "-//W3C//DTD SVG 20010904//EN"
 "http://www.w3.org/TR/2001/REC-SVG-20010904/DTD/svg10.dtd">
<svg version="1.0" xmlns="http://www.w3.org/2000/svg"
 width="612.000000pt" height="612.000000pt" viewBox="0 0 612.000000 612.000000"
 preserveAspectRatio="xMidYMid meet">
<metadata>
Created by potrace 1.13, written by Peter Selinger 2001-2015
</metadata>
<g transform="translate(0.000000,612.000000) scale(0.100000,-0.100000)"
fill="#000000" stroke="none">
<path d="M1244 5806 c-80 -30 -123 -57 -172 -110 -96 -104 -112 -178 -111
-508 1 -259 7 -314 47 -398 62 -129 190 -211 353 -226 l67 -7 -51 -42 c-59
-48 -161 -115 -175 -115 -13 0 -21 -98 -22 -255 0 -71 -2 -152 -5 -180 -12
-117 -35 -366 -41 -440 -3 -44 -7 -91 -10 -105 -2 -13 -6 -121 -9 -240 -17
-679 -61 -1447 -101 -1780 -12 -95 -23 -148 -39 -180 -13 -25 -30 -70 -39
-101 l-16 -54 -48 -1 c-26 0 -84 -14 -132 -31 -66 -25 -92 -40 -117 -70 -30
-35 -33 -44 -33 -108 0 -65 2 -73 42 -130 23 -33 49 -66 58 -72 50 -41 166
-113 237 -149 l82 -41 -62 3 c-67 2 -159 24 -220 50 -27 13 -37 23 -37 41 0
39 -36 66 -79 59 -46 -7 -67 -33 -81 -102 -10 -47 -9 -58 4 -77 9 -12 26 -36
37 -53 19 -30 64 -54 217 -114 42 -17 348 -19 377 -3 15 9 25 8 40 -3 30 -22
88 -18 112 9 28 30 42 85 31 122 -5 17 -6 53 -3 80 l6 50 59 2 c40 1 60 -2 60
-10 5 -152 22 -263 43 -285 8 -7 33 -18 56 -23 53 -12 92 7 114 54 l17 34 50
-24 c43 -21 60 -23 108 -18 116 14 282 80 353 142 48 41 79 75 79 85 0 5 5 6
10 3 6 -3 10 -25 10 -48 0 -70 17 -115 51 -132 74 -39 129 -13 217 101 l47 60
-1 -80 c-2 -98 8 -130 51 -156 46 -29 88 -26 119 8 57 60 108 130 131 178 13
28 31 57 40 64 8 7 15 19 15 28 0 12 38 66 82 117 4 5 7 -13 7 -40 -3 -71 17
-132 59 -187 39 -52 52 -62 145 -115 56 -31 60 -32 140 -26 45 3 94 12 109 19
39 20 53 17 66 -11 15 -33 48 -45 87 -32 48 16 63 35 76 96 6 31 20 73 30 93
17 34 23 37 74 43 30 4 70 4 88 1 31 -6 37 -13 60 -69 14 -34 33 -87 43 -117
10 -30 24 -63 32 -72 20 -24 66 -32 106 -18 33 10 86 66 86 89 0 14 4 14 48
-5 57 -24 354 -25 400 -1 31 17 34 17 82 -4 48 -21 51 -21 127 -4 43 9 104 30
136 46 32 16 63 29 70 29 20 0 93 54 142 104 38 40 45 53 45 86 0 58 -29 84
-87 77 l-44 -5 36 34 c31 28 36 38 30 61 -9 38 -34 61 -75 69 -19 3 -66 12
-105 20 l-70 14 105 -5 c58 -2 130 -7 160 -10 31 -4 67 -2 83 4 36 14 63 74
49 107 -22 47 -105 90 -197 100 -132 15 -278 38 -319 50 -26 8 -59 14 -71 14
-22 0 -55 -23 -55 -38 0 -4 -12 -19 -25 -35 l-24 -28 -22 22 c-11 11 -17 24
-12 28 4 4 74 58 156 120 81 62 155 124 164 137 19 29 11 65 -37 171 -27 60
-28 65 -20 165 24 302 24 315 1 321 -26 6 -24 15 -57 -225 l-27 -198 -31 0
c-17 0 -64 5 -105 10 -41 6 -76 8 -78 7 -2 -2 20 -41 47 -87 47 -76 49 -83 33
-95 -15 -11 -29 0 -121 95 -87 90 -111 110 -142 115 l-37 6 56 57 c140 140
151 273 62 743 -11 58 -27 175 -36 260 -25 235 -35 270 -128 442 -53 98 -54
124 -14 454 20 164 41 343 47 398 10 90 14 102 38 123 49 42 245 187 367 272
100 70 283 202 320 231 7 5 8 -35 3 -119 -12 -211 -58 -854 -63 -894 -5 -33
-3 -38 14 -38 35 0 32 -22 80 485 31 323 37 386 50 548 4 54 13 103 19 109 7
7 27 2 67 -17 36 -17 81 -28 123 -32 96 -7 125 14 169 126 53 136 48 245 -19
406 -11 28 -29 75 -39 105 -10 30 -23 63 -29 73 -8 13 -5 27 9 55 34 69 53
151 46 205 -6 41 -17 60 -65 116 -72 84 -132 113 -285 138 -158 25 -454 24
-509 -2 -44 -21 -76 -67 -76 -109 0 -26 -2 -28 -27 -22 -16 4 -69 9 -119 13
-113 7 -210 -12 -309 -62 -38 -19 -70 -35 -72 -35 -2 0 -3 36 -3 81 0 92 -15
128 -64 154 -28 14 -92 16 -611 12 -676 -6 -588 -5 -797 -3 -166 1 -168 1
-192 -24 -14 -14 -110 -155 -215 -315 -104 -159 -204 -310 -220 -335 l-31 -44
0 139 c-1 77 -1 215 -1 306 0 187 -8 216 -68 256 -33 23 -39 23 -315 22 -266
0 -284 -1 -342 -23z m447 -36 c149 0 169 -2 190 -19 l24 -19 5 -409 5 -408 69
105 c38 58 161 245 273 415 113 171 210 316 218 324 10 11 46 13 157 12 127
-1 146 -4 171 -22 l29 -21 25 24 c25 23 25 23 291 22 306 -1 261 -1 594 0 325
1 301 16 308 -185 l5 -140 30 31 c81 84 230 143 365 142 48 0 109 -8 140 -17
98 -29 97 -29 110 -5 9 16 9 25 1 33 -19 19 -13 75 10 95 27 26 69 32 225 32
153 0 356 -28 425 -59 59 -26 138 -116 146 -166 9 -56 -33 -182 -71 -214 -14
-12 -13 -16 7 -41 13 -15 30 -50 37 -76 7 -27 23 -72 37 -100 13 -28 27 -68
30 -90 3 -21 12 -48 18 -59 21 -34 11 -143 -20 -229 -24 -65 -34 -81 -58 -91
-35 -14 -98 -5 -154 23 -21 11 -59 22 -85 24 -41 5 -48 3 -58 -18 -16 -29 -62
-48 -96 -40 -15 4 -47 25 -71 46 -25 21 -76 51 -114 66 -38 15 -74 33 -81 41
-6 8 -8 32 -5 63 5 43 3 51 -14 61 -17 9 -28 6 -57 -15 -116 -80 -269 -111
-406 -83 -43 9 -109 32 -146 51 l-68 34 -4 -115 c-5 -164 17 -153 -317 -153
-201 0 -272 3 -285 13 -20 15 -35 73 -36 136 0 35 -3 42 -16 37 -9 -3 -38 -6
-65 -6 l-49 0 0 -70 c0 -118 30 -110 -434 -110 -371 0 -396 2 -418 19 -22 19
-23 25 -26 200 l-3 181 -43 0 -43 0 -124 -186 c-68 -103 -133 -193 -145 -201
-18 -12 -90 -14 -426 -11 -370 3 -407 5 -448 22 -110 47 -182 126 -214 235
-22 74 -23 549 -2 629 49 181 208 281 426 266 36 -2 140 -4 231 -4z m729 -975
c0 -128 13 -177 58 -210 26 -19 45 -20 444 -23 l418 -3 37 35 c33 30 38 41 43
93 l6 58 9 -54 c6 -41 16 -64 41 -90 l32 -36 292 -3 c291 -3 293 -3 326 20 22
15 40 39 51 68 9 25 17 46 19 48 1 2 241 -22 686 -69 92 -10 111 -15 139 -39
l33 -27 -99 -73 c-167 -122 -215 -160 -340 -267 -66 -56 -143 -119 -171 -138
l-52 -36 -428 50 c-1182 139 -2169 249 -2485 276 -42 4 -101 10 -130 13 l-53
7 108 83 109 82 306 0 c284 0 308 1 337 19 20 12 70 77 135 175 56 86 109 156
116 156 10 0 13 -26 13 -115z m-1042 -505 c37 -5 168 -19 292 -30 124 -11 241
-23 260 -26 l35 -5 -11 -132 c-10 -125 -10 -134 9 -166 18 -30 21 -32 27 -15
4 10 12 75 19 144 18 177 10 164 95 156 133 -11 519 -57 1201 -142 374 -47
755 -93 848 -103 92 -10 170 -21 174 -24 6 -6 -43 -465 -53 -500 -5 -15 -13
-12 -53 26 -49 46 -126 81 -215 98 -53 10 -243 13 -233 3 3 -3 59 -10 124 -15
148 -12 220 -32 294 -81 70 -47 81 -75 69 -175 -4 -37 -12 -111 -16 -163 -4
-52 -9 -84 -11 -70 -17 143 -40 207 -84 230 l-22 12 5 -91 c5 -80 10 -101 47
-177 44 -93 58 -158 20 -94 -29 48 -98 118 -134 137 -23 12 -17 3 28 -42 33
-34 70 -84 89 -122 l32 -65 -18 -182 c-10 -99 -18 -192 -19 -205 -1 -15 -24
-49 -55 -82 -94 -102 -197 -147 -362 -158 -94 -6 -102 -8 -77 -19 16 -7 68
-12 116 -12 122 0 258 47 329 114 33 31 34 31 30 6 -4 -34 -86 -93 -167 -120
-110 -37 -288 -38 -411 -3 -21 6 -19 2 14 -28 22 -19 93 -101 160 -184 138
-173 224 -261 290 -296 49 -26 55 -42 40 -118 -6 -29 -10 -32 -32 -26 -92 23
-235 160 -454 435 -85 107 -171 212 -189 232 l-34 37 -270 45 c-148 25 -337
55 -420 67 l-150 21 -43 -47 c-24 -27 -71 -89 -105 -139 -86 -127 -189 -228
-268 -266 -86 -39 -182 -54 -262 -40 -138 25 -211 96 -259 250 -22 73 -23 85
-22 430 2 370 9 461 51 590 28 88 89 168 170 222 l70 48 32 107 c35 114 55
143 100 143 15 0 36 7 48 15 23 16 61 81 40 68 -68 -41 -145 -94 -158 -109 -9
-11 -31 -57 -49 -103 -30 -76 -41 -92 -121 -169 -181 -175 -209 -289 -212
-862 -2 -287 6 -346 58 -455 46 -98 135 -172 235 -196 49 -12 193 7 262 35 31
13 59 19 60 14 4 -10 46 20 104 72 40 36 119 132 188 228 62 86 90 102 175
102 40 0 116 -7 169 -15 53 -8 158 -22 232 -30 74 -9 137 -19 140 -24 3 -4 32
-13 64 -20 135 -30 160 -51 366 -317 58 -74 202 -238 238 -269 l27 -24 -58 -1
c-32 0 -175 14 -319 30 -143 17 -263 28 -266 25 -5 -5 34 -594 44 -652 4 -29
2 -33 -18 -32 -13 0 -43 -3 -68 -6 -25 -4 -62 -3 -84 2 l-38 8 -42 120 c-69
198 -136 316 -199 350 -82 44 -163 -32 -273 -258 -30 -61 -58 -118 -62 -125
-11 -21 -27 -9 -24 18 5 45 92 362 139 503 24 76 43 140 41 141 -4 4 -466 56
-489 56 -11 0 -19 -17 -27 -63 -24 -128 -42 -326 -42 -457 l-1 -135 -49 101
c-57 118 -112 175 -192 199 -59 17 -87 7 -133 -47 -24 -28 -88 -153 -109 -212
-4 -11 -12 -16 -22 -12 -9 3 -19 6 -23 6 -5 0 -11 43 -15 95 -3 52 -15 122
-25 155 -20 63 -63 130 -84 130 -7 0 -87 -57 -177 -126 -91 -69 -166 -120
-168 -114 -13 37 26 654 93 1470 69 843 95 1235 95 1423 0 100 -8 94 108 77z
m744 -10 c162 -11 843 -78 868 -85 56 -16 -372 19 -845 69 -245 26 -253 31
-23 16z m2257 -1294 c59 -85 70 -123 86 -297 9 -90 34 -273 56 -407 60 -359
55 -489 -21 -603 -54 -83 -161 -139 -276 -147 l-72 -4 -4 43 c-7 67 -1 74 67
76 107 3 186 54 225 145 20 46 22 63 17 167 -6 146 -22 287 -48 409 -10 53
-26 160 -34 238 -16 145 -42 270 -69 322 -13 26 -14 42 -4 111 l12 81 16 -44
c9 -23 31 -64 49 -90z m-79 -220 c19 -121 10 -208 -30 -295 -40 -86 -61 -110
-49 -54 5 21 18 72 29 113 15 53 21 100 19 160 -2 122 0 160 9 160 5 0 15 -38
22 -84z m55 -1266 c13 -20 45 -213 50 -298 l5 -87 -33 100 c-19 55 -48 133
-65 173 -41 96 -42 104 -12 113 37 10 48 10 55 -1z m-3061 -508 c8 -23 9 -65
3 -133 -8 -92 -7 -101 12 -128 22 -31 94 -71 127 -71 11 0 44 7 72 15 l52 16
0 59 c0 71 18 191 35 240 14 38 39 49 68 27 18 -12 18 -16 2 -87 -9 -41 -20
-121 -25 -177 -5 -56 -11 -110 -13 -120 -8 -25 -21 -179 -20 -228 0 -23 8 -56
18 -74 16 -32 16 -34 -4 -54 -17 -17 -24 -19 -44 -10 -20 9 -26 23 -37 86 -7
42 -11 116 -8 166 5 104 7 101 -78 74 -42 -13 -62 -14 -104 -6 -37 8 -53 7
-55 -1 -10 -33 -14 -189 -5 -206 7 -12 7 -27 0 -44 -12 -33 -52 -35 -74 -5
l-15 21 -43 -20 c-38 -19 -58 -20 -185 -17 -133 3 -194 14 -250 44 -10 5 -32
15 -49 21 -18 6 -46 30 -64 52 -31 38 -32 41 -20 84 15 52 33 57 46 12 12 -41
77 -79 175 -102 76 -19 334 -25 350 -9 20 20 -6 44 -105 93 -57 27 -106 50
-110 50 -14 0 -140 79 -188 117 -76 62 -108 113 -108 176 0 70 26 100 106 122
33 9 69 20 82 26 14 5 59 6 105 3 87 -8 109 -18 180 -83 31 -30 37 -41 37 -77
0 -36 -4 -43 -27 -53 -16 -6 -39 -12 -53 -13 -23 -3 -25 1 -30 40 -5 41 -8 46
-60 73 -63 33 -120 38 -177 14 -45 -19 -53 -30 -53 -74 0 -29 9 -43 53 -84 28
-26 73 -60 100 -75 26 -15 50 -35 53 -44 3 -9 28 -29 57 -43 48 -24 119 -64
164 -92 17 -10 18 -6 17 66 0 42 -7 87 -13 100 -8 14 -10 33 -5 49 5 15 8 83
9 150 0 123 0 124 29 148 36 32 56 28 70 -14z m891 14 c91 -42 148 -128 160
-238 6 -64 5 -72 -29 -142 -79 -164 -265 -291 -456 -311 -105 -11 -181 56
-195 170 -5 34 -2 63 8 90 8 22 21 61 27 88 7 26 16 47 21 47 4 0 12 15 18 33
17 50 83 148 128 188 46 42 145 91 166 83 8 -3 18 -1 22 5 11 19 78 12 130
-13z m1758 -29 c3 -12 24 -69 47 -127 23 -58 49 -125 58 -150 8 -25 25 -56 37
-70 13 -14 28 -35 34 -47 6 -13 20 -23 30 -23 12 0 21 -11 27 -32 7 -26 20
-39 64 -60 90 -45 160 -59 312 -60 79 0 143 3 149 9 25 25 -26 62 -163 120
-143 60 -271 150 -318 224 -23 35 -30 57 -30 96 0 66 27 96 106 118 33 9 69
20 82 26 14 5 59 6 105 3 87 -8 109 -18 180 -83 31 -30 37 -41 37 -77 0 -41
-2 -43 -44 -59 -25 -10 -49 -14 -55 -10 -6 3 -11 24 -11 45 0 35 -4 40 -47 65
-62 36 -130 43 -188 21 -49 -19 -60 -40 -51 -91 7 -36 77 -102 154 -146 23
-13 44 -32 48 -41 3 -9 28 -29 57 -43 29 -14 75 -38 104 -54 61 -33 55 -41 73
104 7 50 18 106 26 125 18 44 20 87 6 123 -13 30 -5 58 27 95 20 23 21 23 78
8 32 -8 96 -20 143 -26 47 -7 114 -15 150 -20 123 -16 188 -47 174 -83 -6 -17
-14 -18 -88 -10 -220 22 -385 0 -386 -53 0 -18 106 -64 148 -65 62 -1 175 -23
179 -36 2 -6 -20 -22 -49 -36 -50 -23 -60 -24 -153 -18 -100 7 -163 -1 -177
-23 -9 -14 -10 -78 -1 -130 4 -28 14 -43 37 -57 52 -32 101 -24 208 32 20 10
43 19 51 19 8 0 38 16 67 35 29 19 58 35 66 35 28 0 13 -41 -27 -79 -41 -37
-51 -43 -164 -98 -78 -38 -194 -68 -209 -53 -5 5 -19 10 -31 10 -11 0 -30 7
-42 15 -20 14 -26 13 -68 -9 -44 -24 -53 -25 -190 -21 -132 3 -208 16 -249 43
-6 4 -26 12 -44 18 -30 11 -33 10 -26 -4 18 -41 16 -87 -6 -109 -34 -37 -65
-30 -84 20 -9 23 -16 48 -16 53 0 6 -13 41 -30 77 -16 37 -30 76 -30 87 0 24
6 23 -140 21 -82 -1 -119 -6 -130 -16 -16 -15 -53 -105 -70 -172 -8 -33 -16
-43 -31 -43 -28 0 -34 24 -16 73 8 23 20 58 26 77 l11 35 -43 -47 c-61 -67
-123 -99 -212 -109 -64 -7 -79 -5 -117 13 -59 28 -143 101 -156 135 -32 86
-31 155 4 216 13 23 24 54 24 69 0 18 15 45 45 78 25 28 45 55 45 60 0 5 24
17 53 28 28 11 75 31 102 45 63 31 154 42 180 23 29 -21 26 -115 -4 -145 -24
-24 -58 -23 -83 3 -41 40 -105 26 -181 -41 -79 -70 -97 -104 -97 -190 l0 -71
53 -54 c65 -68 104 -82 185 -69 68 11 184 71 213 111 11 14 22 48 25 75 4 29
16 61 29 77 47 56 71 124 84 241 5 37 10 69 12 71 36 30 93 20 102 -17z
m-1469 -11 c22 -21 23 -27 14 -72 -36 -185 -50 -287 -46 -339 3 -43 6 -50 25
-53 18 -3 27 5 40 32 9 20 20 36 24 36 15 0 49 43 49 61 0 10 13 27 29 38 16
11 40 45 55 76 22 48 29 55 55 55 50 0 53 -14 45 -179 -4 -102 -3 -151 4 -151
14 0 59 55 68 82 4 12 17 31 31 41 13 10 31 33 39 50 9 18 31 46 48 63 17 17
61 62 97 100 75 78 109 104 157 120 29 10 34 10 43 -8 15 -28 7 -42 -53 -82
-29 -19 -86 -70 -126 -113 -100 -107 -108 -116 -116 -133 -3 -8 -17 -33 -31
-55 -13 -22 -37 -65 -54 -95 -16 -30 -44 -71 -61 -90 -17 -19 -38 -45 -47 -57
-19 -28 -44 -29 -67 -4 -16 18 -17 36 -12 168 3 81 2 154 -3 161 -8 14 -45
-25 -101 -108 -13 -19 -27 -37 -30 -40 -4 -3 -17 -21 -31 -41 -13 -20 -38 -48
-56 -63 -26 -22 -36 -25 -56 -17 -35 14 -41 48 -38 246 5 273 5 288 -4 324 -6
29 -4 38 15 53 30 25 66 23 94 -6z m-971 -52 c12 -4 15 -12 11 -28 -3 -13 -7
-52 -8 -86 -3 -68 -12 -80 -63 -80 -34 0 -108 54 -98 71 6 8 13 69 14 117 1
23 3 24 64 17 34 -3 70 -9 80 -11z m-547 -70 c27 -13 34 -22 34 -44 0 -16 3
-36 6 -45 10 -25 59 -46 93 -39 28 6 31 4 31 -17 0 -13 7 -37 15 -52 19 -37 1
-81 -20 -47 -4 6 -28 21 -54 35 -27 13 -51 30 -54 38 -3 8 -27 27 -54 42 -69
41 -133 96 -133 116 0 31 82 38 136 13z m3549 -6 c18 -8 25 -19 25 -40 0 -65
51 -99 115 -78 20 7 39 10 42 7 2 -3 2 -34 -2 -70 l-7 -64 -63 34 c-35 18 -65
40 -69 48 -3 8 -29 28 -59 45 -30 17 -63 40 -73 51 -18 20 -18 21 16 50 40 33
41 33 75 17z m-1021 -168 c88 -11 163 -20 168 -20 4 0 8 -16 8 -35 0 -38 -35
-85 -63 -85 -8 0 -27 -10 -42 -22 -36 -28 -120 -42 -160 -26 -16 7 -46 28 -65
47 -29 29 -34 42 -34 80 -1 48 8 81 21 81 4 0 80 -9 167 -20z m789 -48 c65
-48 156 -102 225 -134 l52 -24 -42 -1 c-50 -2 -193 30 -243 54 -28 13 -35 23
-35 45 0 21 -8 33 -29 45 l-28 17 21 18 c11 9 22 17 24 18 2 0 26 -17 55 -38z
m887 -47 c-12 -13 -39 -30 -59 -36 -20 -6 -47 -18 -59 -26 -13 -8 -36 -17 -50
-19 -15 -3 -31 -9 -36 -15 -6 -5 -22 -9 -38 -9 -33 0 -48 24 -48 75 l0 36 123
-1 c67 -1 136 3 152 8 17 6 32 11 34 11 3 1 -6 -10 -19 -24z"/>
<path d="M1330 5697 c-71 -17 -95 -30 -148 -80 -76 -74 -82 -105 -82 -421 0
-306 4 -333 67 -405 19 -23 58 -54 87 -69 l51 -27 273 -3 272 -3 0 330 0 331
-200 0 -200 0 0 -64 c0 -78 0 -78 138 -76 53 1 103 1 110 1 10 -1 12 -42 10
-188 l-3 -188 -169 -3 c-156 -2 -172 -1 -213 19 -77 37 -83 60 -83 349 0 274
4 292 70 338 32 21 40 22 286 22 l254 0 0 70 0 70 -143 0 c-79 0 -184 2 -233
5 -54 3 -110 0 -144 -8z"/>
<path d="M2910 5597 c0 -101 2 -113 20 -125 11 -7 20 -23 20 -35 0 -50 -71
-471 -81 -484 -7 -7 -18 -13 -25 -13 -11 0 -14 -25 -14 -125 l0 -125 235 0
235 0 0 90 0 90 135 0 135 0 0 -90 0 -90 245 0 245 0 0 124 c0 114 -2 125 -19
131 -11 3 -22 12 -25 21 -3 8 -22 121 -42 251 l-37 237 27 21 c26 21 27 23 24
126 l-3 104 -242 3 -242 2 -19 -62 -18 -63 -19 50 c-10 28 -23 56 -28 63 -7 9
-71 12 -258 12 l-249 0 0 -113z m492 -154 c63 -193 50 -196 126 22 l49 140
154 0 c151 0 154 0 157 -22 2 -14 -4 -27 -17 -35 -13 -8 -21 -23 -21 -40 0
-16 20 -166 45 -335 30 -205 50 -312 60 -323 8 -9 15 -29 15 -44 l0 -27 -147
3 -148 3 -3 26 c-2 20 2 28 17 32 12 3 24 12 27 21 6 14 -63 485 -72 495 -5 5
-10 -8 -74 -208 l-56 -176 -82 -3 c-48 -2 -82 1 -82 7 0 13 -122 362 -125 359
-2 -2 -18 -108 -37 -237 l-33 -233 23 -18 c12 -11 22 -29 22 -44 l0 -27 -137
3 c-136 3 -138 3 -141 26 -2 13 3 29 12 35 10 7 20 38 26 77 5 36 25 173 45
305 19 132 37 253 40 268 4 21 -1 34 -21 52 -18 17 -24 30 -19 44 6 20 14 21
175 21 l168 0 54 -167z"/>
<path d="M2489 5646 c-19 -29 -166 -254 -326 -498 -161 -245 -293 -448 -293
-452 0 -3 51 -6 114 -6 l113 0 133 200 133 200 83 0 84 0 0 305 c0 168 -2 305
-4 305 -1 0 -18 -24 -37 -54z"/>
<path d="M2560 5195 l0 -505 100 0 100 0 0 505 0 505 -100 0 -100 0 0 -505z"/>
<path d="M4850 5680 c-36 -3 -55 -7 -42 -8 29 -3 122 -49 122 -62 0 -6 21 -10
47 -10 56 0 52 -5 -30 -41 -59 -26 -62 -30 -65 -65 -2 -22 2 -40 9 -45 12 -7
50 -128 50 -161 0 -10 4 -18 9 -18 14 0 23 -73 21 -182 -2 -86 0 -108 13 -115
17 -9 15 -15 -36 -91 -16 -23 -28 -46 -28 -52 0 -6 26 -23 58 -36 31 -14 79
-41 105 -61 27 -19 50 -33 51 -31 26 45 27 277 1 377 -20 77 -19 101 6 130
l20 24 34 -33 c28 -28 32 -36 24 -57 -13 -34 -12 -41 10 -48 11 -3 29 -27 42
-53 31 -64 28 -158 -7 -217 -13 -23 -24 -46 -24 -52 0 -6 20 -13 45 -16 25 -4
67 -18 95 -32 70 -35 84 -33 104 18 24 59 33 179 15 197 -8 8 -15 37 -15 63
-1 37 -7 54 -27 75 -18 19 -29 44 -34 77 -8 64 -55 117 -118 135 -48 13 -60
30 -22 30 36 1 104 36 122 64 15 23 22 44 41 121 7 28 -51 102 -99 126 -72 37
-350 65 -497 49z m323 -121 c12 -6 36 -22 53 -35 31 -23 32 -25 23 -66 -6 -24
-21 -60 -35 -80 -20 -32 -30 -38 -59 -38 l-35 0 0 115 c0 124 3 130 53 104z"/>
<path d="M4380 5549 c-77 -13 -191 -70 -239 -119 -66 -68 -86 -120 -86 -225 0
-74 4 -97 23 -133 77 -145 268 -232 448 -204 128 20 229 81 293 179 49 73 48
74 -85 72 -147 -2 -154 -4 -154 -40 0 -75 -55 -139 -121 -139 -74 0 -119 68
-119 181 0 87 -9 84 227 85 114 1 230 2 256 3 l49 1 -7 33 c-16 78 -39 129
-80 175 -92 102 -257 156 -405 131z m156 -100 c28 -27 47 -88 38 -124 -6 -25
-7 -25 -114 -25 -124 0 -128 3 -111 80 10 44 33 77 66 91 32 14 95 3 121 -22z"/>
<path d="M1332 5517 c-54 -30 -57 -45 -60 -282 -4 -263 0 -298 38 -337 l28
-28 166 0 166 0 0 155 0 155 -110 0 -110 0 0 -70 0 -70 40 0 c29 0 40 -4 40
-16 0 -12 -10 -14 -52 -12 l-53 3 -3 179 c-2 137 1 181 10 188 7 4 104 8 216
8 l203 0 -3 68 -3 67 -245 2 c-182 2 -251 -1 -268 -10z"/>
<path d="M2188 3664 c-40 -21 -34 -30 17 -26 27 3 92 -8 167 -26 175 -44 191
-47 186 -31 -7 20 -98 67 -163 84 -74 19 -171 19 -207 -1z"/>
<path d="M2053 3593 c-13 -2 -23 -9 -23 -14 0 -6 -14 -46 -31 -90 -18 -44 -29
-82 -25 -86 3 -4 46 1 95 11 97 20 139 16 243 -24 29 -11 66 -20 82 -20 l29 0
-7 102 c-3 56 -8 103 -10 105 -17 17 -286 29 -353 16z"/>
<path d="M2450 3459 c0 -70 5 -103 18 -128 27 -55 37 -48 34 23 -4 73 2 80 77
92 47 8 49 12 20 47 -18 24 -37 32 -121 53 l-28 6 0 -93z"/>
<path d="M3833 3450 c-54 -17 -46 -27 27 -34 38 -3 121 -20 186 -36 64 -17
119 -29 121 -26 9 9 -61 56 -112 75 -65 24 -176 35 -222 21z"/>
<path d="M2045 3386 c-282 -68 -443 -406 -321 -672 52 -114 117 -170 258 -224
66 -25 96 -30 171 -32 89 -1 95 0 179 41 201 96 291 251 276 475 -13 195 -185
377 -393 415 -72 13 -105 13 -170 -3z m132 -277 c151 -57 164 -306 21 -378
-93 -46 -216 -24 -267 48 -86 120 -49 261 84 322 45 21 119 25 162 8z"/>
<path d="M2550 3390 c0 -5 2 -10 5 -10 3 0 76 -18 162 -39 233 -58 223 -57
223 -28 0 21 -8 26 -57 40 -153 43 -333 63 -333 37z"/>
<path d="M3651 3281 c-24 -56 -42 -104 -39 -107 3 -3 26 0 49 7 112 31 284 7
413 -58 l49 -25 -7 25 c-3 14 -10 67 -16 117 -5 51 -11 94 -12 96 -17 16 -146
36 -258 41 l-135 5 -44 -101z"/>
<path d="M3732 3080 c-43 -27 -66 -80 -59 -143 5 -57 30 -95 78 -119 131 -67
268 70 201 202 -38 76 -146 105 -220 60z m146 -63 c17 -20 25 -65 18 -102 -6
-28 -13 -36 -41 -44 -79 -22 -135 28 -120 106 4 22 13 34 33 41 39 15 98 14
110 -1z"/>
<path d="M3478 2868 c-48 -13 -84 -47 -97 -92 -20 -76 34 -174 105 -192 38
-10 103 2 126 23 73 65 60 213 -23 255 -38 20 -56 21 -111 6z m110 -81 c26
-24 28 -52 6 -106 -12 -32 -21 -40 -47 -44 -82 -12 -126 47 -90 120 31 64 81
75 131 30z"/>
<path d="M3964 2786 c-94 -41 -108 -169 -29 -246 63 -61 163 -48 212 26 24 38
24 129 -1 170 -36 60 -111 81 -182 50z m129 -74 c21 -19 23 -89 2 -119 -8 -12
-31 -27 -51 -33 -32 -11 -39 -10 -63 7 -38 29 -46 61 -27 106 25 61 92 80 139
39z"/>
<path d="M1680 2705 c0 -4 -3 -77 -7 -163 -9 -218 -6 -277 18 -354 25 -78 81
-139 145 -157 34 -10 45 -8 92 15 69 34 104 86 152 227 21 62 41 119 45 128 5
14 -5 19 -62 29 -37 6 -96 25 -131 42 -74 37 -185 135 -212 189 -18 35 -40 59
-40 44z"/>
<path d="M2683 2625 c-47 -34 -16 -115 45 -115 15 0 52 -7 82 -15 56 -15 85
-12 133 12 79 40 -26 122 -165 130 -57 4 -78 1 -95 -12z"/>
<path d="M3045 2555 c-30 -29 -32 -55 -6 -86 15 -19 36 -26 102 -36 150 -22
179 -14 179 51 0 48 -37 78 -108 87 -110 14 -141 11 -167 -16z"/>
<path d="M3652 2550 c-117 -71 -45 -280 97 -280 76 0 126 59 125 150 0 66 -23
114 -64 135 -42 22 -118 19 -158 -5z m153 -85 c35 -90 -19 -160 -100 -129 -23
9 -45 57 -45 97 0 29 5 37 33 50 82 38 92 36 112 -18z"/>
<path d="M2090 904 c0 -3 7 -31 16 -61 13 -44 14 -60 4 -84 -7 -16 -17 -29
-22 -29 -8 0 -68 39 -78 51 -3 3 -15 12 -28 18 -21 11 -30 8 -79 -26 -53 -36
-72 -63 -125 -175 -25 -54 7 -157 52 -169 52 -14 122 -8 191 16 90 31 149 57
149 65 0 3 8 15 18 26 53 58 85 120 86 165 0 63 -54 155 -109 186 -38 22 -75
30 -75 17z m121 -174 c10 -34 9 -42 -12 -77 -33 -54 -81 -113 -92 -113 -5 0
-23 -6 -40 -14 -129 -57 -222 -65 -233 -19 -15 58 39 181 94 213 31 19 36 19
52 5 9 -8 21 -15 27 -15 5 0 18 -9 28 -20 38 -42 105 -16 131 51 19 45 29 43
45 -11z"/>
<path d="M5066 3378 c-3 -13 -10 -95 -16 -183 -5 -88 -13 -181 -16 -207 -5
-40 -3 -48 10 -48 20 0 23 8 30 90 3 36 13 128 21 205 18 175 19 165 -5 165
-12 0 -21 -8 -24 -22z"/>
<path d="M4987 2488 c-3 -18 -16 -118 -28 -221 -19 -162 -20 -190 -8 -198 24
-15 29 -10 30 34 0 23 2 53 5 67 3 25 34 328 34 343 0 4 -6 7 -14 7 -8 0 -16
-14 -19 -32z"/>
</g>
</svg>
