<?xml version="1.0" encoding="utf-8"?>
<!-- Generator: Adobe Illustrator 18.1.1, SVG Export Plug-In . SVG Version: 6.00 Build 0)  -->
<svg version="1.1"
	 id="svg3123" xmlns:dc="http://purl.org/dc/elements/1.1/" xmlns:cc="http://creativecommons.org/ns#" xmlns:rdf="http://www.w3.org/1999/02/22-rdf-syntax-ns#" xmlns:svg="http://www.w3.org/2000/svg" xmlns:sodipodi="http://sodipodi.sourceforge.net/DTD/sodipodi-0.dtd" xmlns:inkscape="http://www.inkscape.org/namespaces/inkscape" inkscape:version="0.48.1 "
	 xmlns="http://www.w3.org/2000/svg" xmlns:xlink="http://www.w3.org/1999/xlink" x="0px" y="0px" viewBox="-139.2 2.6 512 512"
	 enable-background="new -139.2 2.6 512 512" xml:space="preserve">
<sodipodi:namedview  inkscape:cy="-62.756759" inkscape:cx="66.79235" inkscape:zoom="0.35" fit-margin-top="0" fit-margin-left="0" showgrid="false" borderopacity="1.0" pagecolor="#ffffff" bordercolor="#666666" id="base" inkscape:current-layer="layer1" inkscape:window-maximized="1" inkscape:window-y="-4" inkscape:window-x="-4" fit-margin-right="0" fit-margin-bottom="0" inkscape:window-height="740" inkscape:window-width="1280" inkscape:pageshadow="2" inkscape:pageopacity="0.0" inkscape:document-units="px">
	</sodipodi:namedview>
<g id="layer1" transform="translate(-308.20765,-260.2618)" inkscape:label="Layer 1" inkscape:groupmode="layer">
	<g id="g3139" transform="matrix(1.25,0,0,-1.25,301.03625,519.88117)" inkscape:label="ask_logo_com_color250">
		<g id="g3141">
			<g>
				<g>
					<defs>
						<rect id="SVGID_1_" x="-156.9" y="-255.2" width="512" height="512"/>
					</defs>
					<clipPath id="SVGID_2_">
						<use xlink:href="#SVGID_1_"  overflow="visible"/>
					</clipPath>
					<g id="g3143" clip-path="url(#SVGID_2_)">
						<g id="g3149" transform="translate(177.9365,48.7979)">
							<path id="path3151" inkscape:connector-curvature="0" fill="#666666" d="M-9.4-147.8c0,1.6,1.3,2.9,2.9,2.9
								c1.6,0,2.9-1.3,2.9-2.9c0-1.6-1.3-2.9-2.9-2.9C-8.1-150.7-9.4-149.4-9.4-147.8"/>
						</g>
						<g id="g3153" transform="translate(198.7588,58.3467)">
							<path id="path3155" inkscape:connector-curvature="0" fill="#666666" d="M-2.9-144.9c-1.4,1.5-2.9,2.3-5.1,2.3
								c-4.2,0-6.4-3.4-6.4-7.3c0-3.9,2.6-7,6.6-7c2.2,0,3.7,0.8,5,2.3l2.8-2.8c-2-2.3-4.8-3.2-7.8-3.2c-6.3,0-10.7,4.4-10.7,10.8
								c0,6.4,4.3,10.9,10.7,10.9c3,0,5.8-1,7.8-3.3L-2.9-144.9z"/>
						</g>
						<g id="g3157" transform="translate(210.9805,62.9277)">
							<path id="path3159" inkscape:connector-curvature="0" fill="#666666" d="M0.9-143.4c6.1,0,10.8-4.8,10.8-10.8
								c0-6-4.8-10.8-10.8-10.8S-10-160.3-10-154.3S-5.2-143.4,0.9-143.4 M0.9-161.5c4.1,0,6.7,3,6.7,7.2c0,4.2-2.6,7.2-6.7,7.2
								s-6.7-3-6.7-7.2C-5.9-158.5-3.3-161.5,0.9-161.5"/>
						</g>
						<g id="g3161" transform="translate(221.6553,62.5293)">
							<path id="path3163" inkscape:connector-curvature="0" fill="#666666" d="M4.2-143.6h3.6v-3.2h0.1c0.4,1.2,2.9,3.7,6.5,3.7
								c3,0,5.1-1.3,6.4-3.8c1.3,2.5,4,3.8,6.5,3.8c6.3,0,7.8-4.5,7.8-9.1v-12h-3.9v11.5c0,3.1-0.6,6-4.4,6c-3.7,0-5.2-2.6-5.2-6.2
								v-11.3h-3.9v10.8c0,3.9-0.6,6.7-4.3,6.7c-2.8,0-5.3-2.1-5.3-6.8v-10.7H4.2V-143.6z"/>
						</g>
						<g id="g3165" transform="translate(24.6313,61.4219)">
							<path id="path3167" inkscape:connector-curvature="0" fill="#CE2027" d="M-57-143.9c2.3-2.1,4.7-4,7.3-5.9
								c11.7-8.5,26-14.6,42.1-18.2c17.3-3.9,35.1-4.6,52.7-2.9c7.9,0.8,15.7,2,23.5,3.7c10.4,2.2,20.7,5.3,30.7,9.1
								c5.1,1.9,10.1,4,15,6.3c11.6,5.4,22.7,11.8,33.1,19.2c3.5,2.5,7,5.2,10.3,7.9c1.6,1.3,3.2,2.7,4.7,4c2.4,2.1,4.7,4.3,7,6.6
								c0.4,0.4,0.8,0.8,1.3,1.3c2.6,2.7,5.2,5.4,7.7,8.3c2.4,2.8,4.7,5.7,6.9,8.6c10.2,13.8,17.1,28.6,20.3,43.2
								c3.2,14.9,2.5,30.6-3,44.6c-1.5,3.9-3.4,7.6-5.5,11.1c-2.9,4.8-6.3,9.2-10.2,13.2c-1.3,1.4-2.8,2.6-4.3,3.8
								c-1.5,1.4-3.2,2.7-4.8,3.9c-3.4,2.6-6.9,5-10.6,7.1c-10.6,6.1-22.2,10.3-34.1,12.9c-15.9,3.5-32.3,4.3-48.5,3.2
								c-8.9-0.7-17.8-2-26.5-3.8c-10.5-2.2-21.1-5.3-31.6-9.3c-4.8-1.8-9.5-3.8-14-5.9C-3.1,21.2-16.9,12.8-29,3.2
								c-2.6-2.1-5.2-4.3-7.7-6.5c-1.4-1.3-2.9-2.6-4.3-3.9c-4-3.8-7.8-7.7-11.5-11.9c-2.7-3.1-5.2-6.3-7.7-9.7
								c-8.9-12.3-16-26.2-19.4-41.1c-3.4-14.9-3.1-30.6,2.3-44.8c0.4-1.1,0.9-2.2,1.3-3.3c1.4-3.2,3.1-6.3,4.9-9.3
								c1.9-3.1,4-6,6.4-8.7c0.4-0.4,0.7-0.9,1.1-1.3C-61.5-139.7-59.3-141.9-57-143.9"/>
						</g>
						<g id="g3169" transform="translate(191.8184,152.8652)">
							<path id="path3171" inkscape:connector-curvature="0" fill="#FFFFFF" d="M-5.1-115.5c-0.3,0.2-0.8,0.1-1.6,0.1
								c-1.5-0.1-10.5-1.1-14.5-1.5c-1.6-0.2-2.3-0.8-3.1-2c-0.7-1.2-20.7-34.9-20.7-34.9s15.2,81.4,15.6,83.6
								c0.5,2.9,0,3.5-2.2,3.5c-2.3,0-12.6-1.1-14.2-1.4c-2-0.3-2.7-0.9-3.2-3.5c-0.3-1.9-22.6-122.3-23-124.5
								c-0.6-3.4-0.5-3.5,2.6-3c1.8,0.3,10.6,1.7,14.4,2.3c1.1,0.2,1.7,0.2,2.1,1.9c0.3,1.7,7.1,37,7.1,37s11.4-32.3,11.9-33.7
								c0.5-1.3,0.8-1.7,2.5-1.5c4.1,0.7,13.6,2.2,14.5,2.3c1.6,0.3,1.9,0.7,1.4,2.1c-0.5,1.4-12.1,34.9-12.1,34.9
								s21.6,35.3,22.4,36.7C-4.6-116.4-4.7-115.8-5.1-115.5 M-75.2-125c-2.8,1-8.5,2.8-15.2,2c-10.2-1.2-17.3-5.7-21-12.7
								c-3.7-7.1-3.2-15-1.9-19c1.3-3.9,4.5-8.5,8.9-12.5c9.8-8.8,9.6-15.5,8.2-18.4c-1.7-3.5-6.6-6.3-13.3-4.9
								c-6.7,1.5-8.8,5.9-8.8,5.9s-3.3-11.6-4-13.9c-0.8-3-0.5-3.9,2.3-5.1c3.8-1.6,11-3.2,22.7-0.9c8,1.6,15.2,7.9,18.7,14.6
								c3.6,6.9,5.8,20.3-5.5,30.5c-9.1,8.3-10.1,9.7-11.1,11.5c-1.8,3.3-0.4,7.1,1.4,9.1c1.5,1.9,3.5,2.8,6.7,2.6
								c3.2-0.2,8.9-4.5,8.9-4.5s4.1,11.7,4.4,12.6C-73.3-126.7-73.6-125.6-75.2-125 M-168.3-176.1l19.3,45.5l0.2-42.4L-168.3-176.1
								z M-138.3-84.3c-0.3,3.7-3.2,3-4.5,0.3c-4.4-9.1-64.5-133.2-65.2-134.8c-1.1-2.2-0.2-2.6,1.9-2.3c1.5,0.2,14.8,2.4,18.8,3
								c1.3,0.2,1.8,0.5,2.2,1.5c0.2,0.5,9.7,22.9,9.7,22.9l26.5,4.2c0,0,0.2-17.2,0.3-20.2c0-1.3,0.1-2.1,2.3-1.8
								c2.5,0.4,12.9,2.1,14.4,2.3c2.6,0.4,2.9,1.1,2.7,3.5C-129.4-203.9-137.6-93-138.3-84.3"/>
						</g>
					</g>
				</g>
			</g>
		</g>
		<g enable-background="new    ">
			<path fill="#999999" d="M223.9,108.6c1.7,0,3.3-0.4,5-1.3c1.6-0.9,2.9-2.1,3.8-3.7c0.9-1.6,1.4-3.3,1.4-5c0-1.7-0.4-3.4-1.3-5
				c-0.9-1.6-2.1-2.8-3.7-3.7c-1.6-0.9-3.3-1.3-5-1.3s-3.4,0.4-5,1.3c-1.6,0.9-2.8,2.1-3.7,3.7c-0.9,1.6-1.3,3.2-1.3,5
				c0,1.7,0.5,3.4,1.4,5c0.9,1.6,2.2,2.8,3.8,3.7C220.6,108.1,222.2,108.6,223.9,108.6z M223.9,106.9c-1.4,0-2.8-0.4-4.1-1.1
				c-1.3-0.7-2.4-1.7-3.1-3.1c-0.8-1.3-1.1-2.7-1.1-4.2c0-1.4,0.4-2.8,1.1-4.1c0.7-1.3,1.8-2.4,3.1-3.1c1.3-0.7,2.7-1.1,4.2-1.1
				c1.5,0,2.8,0.4,4.2,1.1c1.3,0.7,2.4,1.8,3.1,3.1c0.7,1.3,1.1,2.7,1.1,4.1c0,1.4-0.4,2.8-1.1,4.2c-0.8,1.3-1.8,2.4-3.1,3.1
				C226.7,106.5,225.3,106.9,223.9,106.9z M219.5,93v10.8h3.7c1.3,0,2.2-0.1,2.8-0.3c0.6-0.2,1-0.5,1.4-1c0.3-0.5,0.5-1,0.5-1.6
				c0-0.8-0.3-1.5-0.8-2.1c-0.6-0.6-1.3-0.9-2.3-1c0.4-0.2,0.7-0.3,0.9-0.6c0.4-0.4,1-1.1,1.6-2.1l1.3-2.1h-2.1l-1,1.7
				c-0.8,1.3-1.4,2.2-1.8,2.5c-0.3,0.2-0.8,0.4-1.4,0.4h-1V93L219.5,93L219.5,93z M221.2,99.1h2.1c1,0,1.7,0.1,2.1,0.5
				c0.4,0.3,0.6,0.7,0.6,1.2c0,0.3-0.1,0.6-0.3,0.9c-0.2,0.3-0.4,0.4-0.7,0.6c-0.3,0.1-0.9,0.2-1.8,0.2h-2L221.2,99.1L221.2,99.1z"
				/>
		</g>
	</g>
</g>
</svg>
