<?xml version="1.0" encoding="UTF-8" standalone="no"?>
<svg width="2039px" height="510px" viewBox="0 0 2039 510" version="1.1" xmlns="http://www.w3.org/2000/svg" xmlns:xlink="http://www.w3.org/1999/xlink">
    <!-- Generator: Sketch 3.6.1 (26313) - http://www.bohemiancoding.com/sketch -->
    <title>AstraZeneca</title>
    <desc>Created with Sketch.</desc>
    <defs></defs>
    <g id="Page-1" stroke="none" stroke-width="1" fill="none" fill-rule="evenodd">
        <g id="AstraZeneca">
            <path d="M64.9259574,405.23166 L98.4891915,314.09566 L130.505532,405.23166 L64.9259574,405.23166 L64.9259574,405.23166 L64.9259574,405.23166 Z M163.121021,497.075745 L193.895489,497.075745 L114.023489,277.689191 L83.5867234,277.689191 L0,497.075745 L31.0685957,497.075745 L55.6119149,429.84034 L139.198638,429.84034 L163.121021,497.075745 L163.121021,497.075745 L163.121021,497.075745 Z" id="Shape" fill="#2D2A6E"></path>
            <path d="M260.804085,421.310638 C232.284596,415.144851 202.828255,408.412596 202.828255,374.010553 C202.828255,343.802553 228.373787,324.760511 266.958979,324.760511 C291.916255,324.760511 315.751489,334.052766 327.647319,356.765957 L301.698723,367.594213 C299.618043,361.526468 286.186213,346.253617 263.778043,346.253617 C241.816511,346.253617 230.824851,359.249702 230.824851,370.502809 C230.824851,386.298553 251.707915,392.878298 269.518979,396.462298 C306.393872,403.880851 338.453787,413.314723 338.453787,448.076255 C338.453787,475.092426 314.455149,500.474553 268.614809,500.474553 C234.866383,500.474553 210.889532,489.188766 199.353191,465.604085 L228.951149,460.440511 C236.380596,473.36034 249.812426,478.95966 269.824,478.95966 C294.63966,478.95966 309.149957,469.493106 309.149957,451.573106 C309.160851,432.618213 285.347404,426.61583 260.804085,421.310638 L260.804085,421.310638 L260.804085,421.310638 Z" id="Shape" fill="#2D2A6E"></path>
            <path d="M399.915574,329.815149 L430.221617,329.815149 L430.221617,353.138383 L399.915574,353.138383 L399.915574,448.043574 C399.915574,467.72834 399.915574,476.170894 411.88766,476.170894 C417.171064,476.170894 424.589617,474.046638 430.221617,472.30366 L430.221617,495.398128 C425.286809,496.095319 413.641532,498.208681 403.06383,498.208681 C370.655319,498.208681 370.655319,482.456511 371.003915,460.712851 L371.003915,353.138383 L344.565106,353.138383 L344.565106,329.815149 L371.003915,329.815149 L371.003915,289.966298 L399.915574,277.939745 L399.915574,329.815149 L399.915574,329.815149 L399.915574,329.815149 Z" id="Shape" fill="#2D2A6E"></path>
            <path d="M483.469617,330.24 L483.469617,360.110298 C499.31983,328.595064 529.28817,327.886979 540.563064,327.538383 L540.563064,356.439149 C513.078468,356.62434 499.603064,362.25634 490.528681,377.038979 C483.077447,389.109106 483.469617,406.070468 483.469617,420.395574 L483.469617,497.075745 L455.483915,497.075745 L455.483915,330.24 L483.469617,330.24 L483.469617,330.24 L483.469617,330.24 Z" id="Shape" fill="#2D2A6E"></path>
            <path d="M864.157957,277.721872 L864.157957,305.086638 L739.992511,470.756766 L867.273532,470.756766 L867.273532,497.075745 L706.102468,497.075745 L706.102468,468.578043 L830.877957,304.770723 L706.200511,304.770723 L706.200511,277.721872 L864.157957,277.721872 L864.157957,277.721872 Z" id="Shape" fill="#2D2A6E"></path>
            <path d="M1070.72272,331.394723 L1070.72272,355.633021 C1086.3006,328.398979 1112.83745,325.926128 1122.73974,325.926128 C1143.9714,325.926128 1169.408,336.547404 1177.52374,364.075574 C1180.36698,373.923404 1180.36698,384.130723 1180.36698,398.21617 L1180.36698,497.075745 L1152.45753,497.075745 L1152.45753,402.791489 C1152.45753,385.884596 1152.45753,380.971574 1150.68187,375.328681 C1145.73617,359.500255 1130.16919,352.462979 1114.95081,352.462979 C1102.57566,352.462979 1091.95438,356.330213 1083.09787,365.121362 C1070.71183,377.442043 1070.71183,390.089532 1070.71183,402.442894 L1070.71183,497.075745 L1042.71523,497.075745 L1042.71523,331.394723 L1070.72272,331.394723 L1070.72272,331.394723 L1070.72272,331.394723 Z" id="Shape" fill="#2D2A6E"></path>
            <path d="M1502.30604,467.543149 C1491.85906,483.948936 1472.88238,500.46366 1438.72,500.46366 C1379.76374,500.46366 1357.49719,455.026383 1357.49719,414.208 C1357.49719,367.049532 1383.15166,324.313872 1436.25804,324.313872 C1457.08664,324.313872 1486.25974,330.588596 1502.40409,357.484936 L1476.17226,368.433021 C1471.21566,357.506723 1460.53991,344.881021 1437.31472,344.881021 C1391.30009,344.881021 1388.60936,397.312 1388.60936,412.105532 C1388.60936,467.074723 1420.18996,478.95966 1439.0577,478.95966 C1460.65974,478.95966 1471.69498,468.59983 1477.52306,457.183319 L1502.30604,467.543149 L1502.30604,467.543149 L1502.30604,467.543149 Z" id="Shape" fill="#2D2A6E"></path>
            <path d="M907.492766,396.582128 L995.95983,396.582128 C993.486979,352.942298 968.333617,345.567319 951.557447,345.567319 C927.613277,345.578213 910.651915,363.149617 907.492766,396.582128 L907.492766,396.582128 L907.492766,396.582128 Z M1018.98894,465.386213 C1009.44613,481.628596 991.025021,500.267574 954.705702,500.267574 C905.466553,500.267574 877.143149,466.802383 877.143149,410.700255 C877.143149,348.029277 918.484426,324.074213 953.670809,324.074213 C984.260085,324.074213 1013.5857,340.981106 1023.44443,382.85617 C1026.62536,396.941617 1026.62536,409.643574 1026.62536,416.691745 L906.795574,416.691745 C906.098383,444.557617 917.77634,479.820255 957.178553,479.133957 C973.257532,478.861617 984.576,471.562894 991.798468,460.124596 L1018.98894,465.386213 L1018.98894,465.386213 L1018.98894,465.386213 Z" id="Shape" fill="#2D2A6E"></path>
            <path d="M1225.728,396.582128 L1314.20596,396.582128 C1311.744,352.942298 1286.59064,345.567319 1269.80357,345.567319 C1245.88119,345.578213 1228.90894,363.149617 1225.728,396.582128 L1225.728,396.582128 L1225.728,396.582128 Z M1337.24596,465.386213 C1327.70315,481.628596 1309.29294,500.267574 1272.97362,500.267574 C1223.73447,500.267574 1195.40017,466.802383 1195.40017,410.700255 C1195.40017,348.029277 1236.74145,324.074213 1271.91694,324.074213 C1302.51711,324.074213 1331.82094,340.981106 1341.69055,382.85617 C1344.8606,396.941617 1344.8606,409.643574 1344.8606,416.691745 L1225.03081,416.691745 C1224.32272,444.557617 1236.04426,479.820255 1275.41379,479.133957 C1291.49277,478.861617 1302.84391,471.562894 1310.0446,460.124596 L1337.24596,465.386213 L1337.24596,465.386213 L1337.24596,465.386213 Z" id="Shape" fill="#2D2A6E"></path>
            <path d="M1655.296,497.250043 L1626.18826,497.358979 C1626.18826,497.358979 1623.67183,485.604766 1622.85481,472.772085 C1614.40136,481.55234 1598.71455,499.712 1567.01413,499.712 C1534.59472,499.712 1510.54162,480.484766 1510.54162,452.313872 C1510.54162,443.479149 1513.01447,434.688 1517.96017,427.258553 C1527.51387,413.151319 1545.19421,401.865532 1594.85821,397.998298 L1621.25345,395.884936 L1621.25345,391.647319 C1621.25345,374.370043 1621.25345,345.469277 1584.04085,345.469277 C1560.63047,345.469277 1552.65634,356.820426 1549.95472,367.071319 L1524.18043,356.308426 C1524.58349,355.415149 1525.05191,354.500085 1525.54213,353.574128 C1535.44443,335.251064 1554.86774,323.965277 1582.96238,323.965277 C1598.43132,323.965277 1618.45379,327.854298 1631.50434,338.072511 C1650.07796,352.147064 1649.63132,379.871319 1649.63132,379.871319 L1650.75336,465.429787 C1650.75336,465.451574 1651.74468,490.289021 1655.296,497.250043 L1655.296,497.250043 L1655.296,497.250043 Z M1617.02672,451.257191 C1621.25345,442.09566 1621.61294,438.217532 1621.61294,413.859404 C1610.71932,415.62417 1595.98026,417.737532 1577.94043,421.626553 C1546.93719,428.315234 1541.65379,439.993191 1541.65379,451.616681 C1541.65379,465.01583 1552.23149,476.312511 1573.00562,476.312511 C1592.39626,476.312511 1608.94366,468.556255 1617.02672,451.257191 L1617.02672,451.257191 L1617.02672,451.257191 Z" id="Shape" fill="#2D2A6E"></path>
            <path d="M686.341447,497.250043 L657.233702,497.358979 C657.233702,497.358979 654.706383,485.604766 653.900255,472.772085 C645.446809,481.55234 629.781787,499.712 598.070468,499.712 C565.629277,499.712 541.587064,480.484766 541.587064,452.313872 C541.587064,443.479149 544.059915,434.688 549.016511,427.258553 C558.570213,413.151319 576.23966,401.865532 625.881872,397.998298 L652.309787,395.884936 L652.309787,391.647319 C652.309787,374.370043 652.309787,345.469277 615.075404,345.469277 C591.665021,345.469277 583.712681,356.820426 580.989277,367.071319 L555.214979,356.308426 C555.63983,355.415149 556.086468,354.500085 556.587574,353.574128 C566.489872,335.251064 585.924085,323.965277 613.996936,323.965277 C629.454979,323.965277 649.499234,327.854298 662.538894,338.072511 C681.112511,352.147064 680.665872,379.871319 680.665872,379.871319 L681.787915,465.429787 C681.787915,465.451574 682.779234,490.289021 686.341447,497.250043 L686.341447,497.250043 L686.341447,497.250043 Z M648.07217,451.257191 C652.320681,442.09566 652.647489,438.217532 652.647489,413.859404 C641.77566,415.62417 627.014809,417.737532 608.996766,421.626553 C578.015319,428.315234 572.721021,439.993191 572.721021,451.616681 C572.721021,465.01583 583.276936,476.312511 604.051064,476.312511 C623.430809,476.312511 639.978213,468.556255 648.07217,451.257191 L648.07217,451.257191 L648.07217,451.257191 Z" id="Shape" fill="#2D2A6E"></path>
            <path d="M2037.84715,266.152851 C2037.73821,265.128851 2037.61838,264.104851 2037.36783,263.113532 C2036.84494,261.087319 2036.28936,259.061106 2035.51591,257.122043 C2034.67711,255.063149 2033.64221,253.069617 2032.54196,251.141447 C2031.31098,249.017191 2029.93838,246.980085 2028.48953,244.986553 C2027.65072,243.820936 2026.68119,242.731574 2025.67898,241.696681 C2024.55694,240.541957 2023.40221,239.398128 2022.13855,238.395915 C2019.28443,236.130043 2016.45209,233.820596 2013.33651,231.914213 C2006.53889,227.741957 1999.76306,223.406298 1992.46434,220.192681 C1983.64051,216.314553 1975.11081,211.717447 1966.01464,208.558298 L1904.71626,187.27217 C1904.71626,175.616 1905.05396,163.95983 1904.71626,152.314553 C1904.20426,135.026383 1903.50706,117.727319 1902.16715,100.482723 C1901.2303,88.4779574 1899.79234,76.5058723 1897.91864,64.6100426 C1896.45889,55.3286809 1894.24749,46.1780426 1892.1886,37.0165106 C1891.72017,34.9140426 1891.01209,32.8769362 1890.31489,30.8507234 C1889.69396,29.0205957 1889.01855,27.2013617 1888.26689,25.4148085 C1887.59149,23.8025532 1886.85072,22.2120851 1886.05549,20.6434043 C1885.33651,19.2381277 1884.54128,17.8655319 1883.70247,16.525617 C1882.95081,15.3164255 1882.112,14.1399149 1881.2514,12.9960851 C1880.46706,11.9611915 1879.63915,10.9698723 1878.75677,10.0221277 C1877.96153,9.1506383 1877.11183,8.3227234 1876.22945,7.52748936 C1875.43421,6.80851064 1874.58451,6.144 1873.71302,5.5012766 C1872.90689,4.91302128 1872.06809,4.36834043 1871.21838,3.87812766 C1870.42315,3.42059574 1869.61702,2.97395745 1868.76732,2.6253617 C1867.28579,2.01531915 1865.78247,1.43795745 1864.24647,1.00221277 C1862.97191,0.642723404 1861.65379,0.446638298 1860.34655,0.261446809 C1859.36613,0.119829787 1858.37481,0.0544680851 1857.39438,0.0326808511 C1855.71677,-3.5158508e-14 1854.01736,-0.0326808511 1852.35064,0.0871489362 C1850.56409,0.21787234 1848.77753,0.435744681 1847.02366,0.784340426 C1845.13906,1.1547234 1843.27626,1.62314894 1841.45702,2.23319149 C1839.49617,2.88680851 1837.58979,3.68204255 1835.74877,4.58621277 C1833.68987,5.59931915 1831.71813,6.77582979 1829.76817,7.99591489 C1827.70928,9.29225532 1825.67217,10.6430638 1823.72221,12.1028085 C1820.31251,14.6737021 1816.82655,17.1683404 1813.72187,20.0878298 C1800.92187,32.114383 1788.35064,44.3805957 1776.06264,56.9082553 C1769.50468,63.5860426 1763.1537,70.4925957 1757.21668,77.7041702 C1733.59932,106.299915 1710.09089,134.982809 1687.3777,164.297532 C1677.29021,177.304511 1668.21583,191.063149 1658.88,204.593021 C1656.54877,207.980936 1654.37004,211.477787 1652.35472,215.061787 C1648.85787,221.325617 1645.57889,227.709277 1642.37617,234.125617 C1641.54826,235.79234 1640.89464,237.557106 1640.26281,239.310979 C1639.65277,240.988596 1639.09719,242.688 1638.65055,244.409191 C1638.2366,246.03234 1637.87711,247.68817 1637.69191,249.354894 C1637.52851,250.890894 1637.50672,252.448681 1637.60477,253.984681 C1637.65923,254.758128 1637.888,255.520681 1638.13855,256.250553 C1638.41089,257.045787 1638.77038,257.80834 1639.18434,258.538213 C1639.64187,259.333447 1640.17566,260.085106 1640.73123,260.804085 C1641.34128,261.588426 1641.96221,262.350979 1642.6594,263.04817 C1644.17362,264.540596 1645.72051,266.00034 1647.36545,267.351149 C1649.05396,268.745532 1650.79694,270.074553 1652.62706,271.272851 C1655.81889,273.364426 1659.11966,275.314383 1662.39864,277.23166 C1663.8366,278.070468 1665.35081,278.789447 1666.81055,279.552 C1667.33345,279.813447 1665.77566,279.007319 1665.26366,278.724085 C1665.1983,278.702298 1665.03489,278.604255 1665.08936,278.626043 C1665.17651,278.64783 1665.26366,278.713191 1665.33991,278.756766 C1666.14604,279.181617 1666.95217,279.595574 1667.76919,280.020426 C1687.95506,290.565447 1708.21719,300.957957 1728.30502,311.666383 C1748.50179,322.429277 1768.68766,333.224851 1788.63387,344.434383 L1833.48289,369.631319 C1817.90502,381.418213 1802.03302,392.802043 1786.78196,404.970213 C1780.95387,409.621787 1775.53974,414.774468 1770.25634,420.036085 C1765.96426,424.317277 1761.92272,428.859915 1758.10996,433.555064 C1755.05974,437.313362 1752.28187,441.289532 1749.68919,445.374638 C1747.65209,448.555574 1745.86553,451.921702 1744.26417,455.331404 C1743.04409,457.924085 1742.06366,460.625702 1741.20306,463.36 C1740.58213,465.277277 1740.17906,467.249021 1739.83047,469.23166 C1739.62349,470.419064 1739.57991,471.650043 1739.51455,472.870128 C1739.49277,473.284085 1739.56902,473.698043 1739.56902,474.112 C1739.59081,475.212255 1739.53634,476.301617 1739.6017,477.390979 C1739.65617,478.414979 1739.776,479.438979 1739.9394,480.430298 C1740.09191,481.39983 1740.29889,482.358468 1740.56034,483.306213 C1740.8,484.199489 1741.11591,485.092766 1741.45362,485.964255 C1741.79132,486.803064 1742.1726,487.630979 1742.58655,488.437106 C1743.00051,489.221447 1743.42536,490.016681 1743.95915,490.724766 C1744.99404,492.140936 1746.03983,493.546213 1747.27081,494.788085 C1748.50179,496.029957 1749.8526,497.162894 1751.26877,498.197787 C1752.68494,499.243574 1754.21004,500.158638 1755.75694,501.00834 C1757.32562,501.858043 1758.94877,502.598809 1760.6046,503.285106 C1762.24953,503.971404 1763.90536,504.701277 1765.64834,505.082553 C1771.91217,506.466043 1778.21957,507.729702 1784.58145,508.590298 C1787.69702,509.015149 1790.86706,509.189447 1793.99353,508.938894 C1804.83268,508.089191 1815.66094,506.988936 1826.40204,505.300426 C1838.9406,503.328681 1851.38111,500.692426 1863.78894,497.979915 C1878.41906,494.777191 1893.00562,491.389277 1907.49413,487.587404 C1917.73413,484.896681 1928.14843,482.510979 1937.95268,478.502128 C1945.67626,475.353872 1953.47609,472.347234 1961.1343,469.046468 C1962.85549,468.316596 1964.47864,467.357957 1966.09089,466.410213 C1967.55064,465.560511 1968.9886,464.634553 1970.36119,463.654128 C1971.57038,462.793532 1972.76868,461.878468 1973.84715,460.854468 C1974.76221,459.993872 1975.60102,459.035234 1976.34179,458.011234 C1976.98451,457.150638 1977.5183,456.192 1977.96494,455.200681 C1978.35711,454.329191 1978.65123,453.39234 1978.85821,452.444596 C1979.0543,451.584 1979.14145,450.67983 1979.14145,449.797447 C1979.14145,448.936851 1979.03251,448.076255 1978.88,447.237447 C1978.7057,446.420426 1978.46604,445.603404 1978.16102,444.80817 C1977.86689,444.012936 1977.47472,443.239489 1977.04987,442.498723 C1976.62502,441.757957 1976.1566,441.028085 1975.65549,440.341787 C1975.15438,439.655489 1974.6206,438.969191 1974.04323,438.337362 C1972.92119,437.160851 1971.77736,435.973447 1970.56817,434.905872 C1969.51149,433.969021 1968.37855,433.130213 1967.23472,432.324085 C1966.11268,431.528851 1964.94706,430.788085 1963.78145,430.08 C1955.79643,425.265021 1947.84409,420.352 1939.8046,415.613277 L1906.13243,395.732426 C1926.57974,381.864851 1947.21226,368.258723 1967.47438,354.097021 C1976.13481,348.051064 1984.65362,341.798128 1992.8674,335.163915 C1999.90468,329.477447 2006.60426,323.377021 2013.16221,317.16766 C2016.28868,314.215489 2019.06655,310.936511 2021.89889,307.701106 C2023.18434,306.230468 2024.37174,304.661787 2025.49379,303.060426 C2026.52868,301.611574 2027.57447,300.15183 2028.39149,298.561362 C2031.02774,293.332426 2033.62043,288.070809 2035.82094,282.645787 C2036.70332,280.434383 2037.0737,278.048681 2037.57481,275.717447 C2037.80357,274.638979 2037.89072,273.52783 2037.97787,272.427574 C2038.06502,271.370894 2038.0977,270.303319 2038.08681,269.246638 C2038.03234,268.222638 2037.96698,267.176851 2037.84715,266.152851 L2037.84715,266.152851 L2037.84715,266.152851 Z M1786.50962,128.544681 C1797.92613,116.703319 1809.36443,104.883745 1820.97702,93.2275745 C1823.09038,91.1033191 1825.4434,89.1969362 1827.70928,87.2251915 C1828.49362,86.5388936 1829.33243,85.8852766 1830.17123,85.2425532 C1830.81396,84.7523404 1831.44579,84.2403404 1832.14298,83.8045957 C1832.63319,83.4995745 1833.15609,83.2381277 1833.68987,83.0202553 C1834.25634,82.7914894 1834.82281,82.5627234 1835.43285,82.4646809 C1836.06468,82.3557447 1836.7074,82.3666383 1837.36102,82.3993191 C1837.68783,82.4102128 1838.01464,82.4973617 1838.33055,82.6062979 C1838.65736,82.7043404 1838.99506,82.8568511 1839.30009,83.0311489 C1839.62689,83.2163404 1839.9537,83.4342128 1840.23694,83.6738723 C1840.57464,83.9462128 1840.89055,84.251234 1841.17379,84.5780426 C1841.5006,84.9484255 1841.80562,85.3405957 1842.06706,85.7545532 C1842.37209,86.2338723 1842.69889,86.7240851 1842.89498,87.2578723 C1843.45055,88.6958298 1843.95166,90.1664681 1844.32204,91.6697872 C1844.85583,93.8158298 1845.26979,95.9945532 1845.60749,98.1950638 C1846.4354,103.554723 1847.19796,108.925277 1847.79711,114.306723 C1848.58145,121.278638 1849.14791,128.27234 1849.79064,135.255149 L1853.25481,172.435064 L1811.82638,162.903149 L1773.16494,156.541277 L1763.80732,155.822298 L1760.768,155.746043 C1769.34128,146.67166 1777.84919,137.531915 1786.50962,128.544681 L1786.50962,128.544681 L1786.50962,128.544681 Z M1760.52834,180.245787 L1760.68085,180.017021 L1760.89872,179.897191 L1761.21464,179.864511 L1761.71574,179.940766 L1763.1646,180.354723 L1766.912,181.792681 L1772.01021,184.058553 C1785.1697,189.690553 1798.32919,195.322553 1811.49957,200.932766 C1820.22536,204.658383 1828.96204,208.351319 1837.67694,212.076936 L1854.92153,219.441021 L1856.45753,220.127319 C1857.38349,233.755234 1858.51643,247.372255 1859.2354,261.011064 C1859.80187,271.665021 1860.03064,282.340766 1860.29209,293.005617 C1860.32477,294.356426 1860.21583,295.69634 1860.11779,297.036255 C1860.07421,297.787915 1859.99796,298.550468 1859.88902,299.302128 C1859.76919,300.053787 1859.62757,300.805447 1859.4097,301.524426 C1859.19183,302.232511 1858.95217,302.951489 1858.59268,303.605106 C1858.25498,304.24783 1857.78655,304.836085 1857.31813,305.402553 C1857.08936,305.685787 1856.77345,305.93634 1856.47932,306.165106 C1856.1743,306.393872 1855.8366,306.622638 1855.488,306.818723 C1855.12851,307.014809 1854.72545,307.178213 1854.33328,307.31983 C1853.89753,307.47234 1853.45089,307.603064 1852.99336,307.690213 C1852.43779,307.788255 1851.87132,307.842723 1851.31574,307.864511 C1850.72749,307.875404 1850.13923,307.864511 1849.55098,307.788255 C1848.91915,307.712 1848.30911,307.581277 1847.70996,307.428766 C1847.05634,307.265362 1846.41362,307.091064 1845.80357,306.840511 C1844.46366,306.274043 1843.12374,305.674894 1841.86009,304.955915 C1840.42213,304.138894 1839.03864,303.212936 1837.69872,302.232511 C1836.21719,301.143149 1834.80102,299.977532 1833.42843,298.76834 C1831.92511,297.439319 1830.45447,296.088511 1829.09277,294.63966 C1826.10791,291.44783 1823.15574,288.201532 1820.38877,284.813617 C1815.3886,278.702298 1810.19234,272.699915 1805.80221,266.141957 C1799.74536,257.100255 1793.536,248.167489 1787.64255,239.016851 C1784.12391,233.559149 1780.51813,228.123234 1777.58774,222.306043 L1764.28664,195.954383 L1761.42162,187.555404 L1760.768,185.060766 L1760.37583,182.653277 L1760.34315,180.910298 L1760.52834,180.245787 L1760.52834,180.245787 L1760.52834,180.245787 Z M1907.50502,413.81583 C1911.08902,416.081702 1914.69481,418.314894 1918.22434,420.646128 C1922.78877,423.652766 1927.36409,426.637617 1931.78689,429.84034 C1934.96783,432.138894 1938.00715,434.622638 1941.01379,437.160851 C1942.34281,438.293787 1943.59557,439.513872 1944.79387,440.799319 C1945.7634,441.856 1946.61311,443.010723 1947.4737,444.165447 C1947.52817,444.241702 1947.53906,444.339745 1947.52817,444.426894 C1947.52817,444.633872 1947.50638,444.829957 1947.44102,445.026043 C1947.40834,445.156766 1947.3103,445.265702 1947.22315,445.352851 C1947.09243,445.472681 1946.95081,445.581617 1946.7983,445.646979 C1946.59132,445.745021 1946.37345,445.799489 1946.14468,445.843064 C1945.82877,445.908426 1945.50196,445.952 1945.18604,445.973787 C1927.71268,447.281021 1910.21753,448.479319 1892.75506,449.851915 L1824.48477,455.211574 L1822.36051,455.342298 L1823.34094,454.285617 L1827.64391,450.483745 C1836.50043,443.904 1845.06281,436.921191 1854.19166,430.733617 L1892.85311,404.523574 C1897.72255,407.617362 1902.61379,410.711149 1907.50502,413.81583 L1907.50502,413.81583 L1907.50502,413.81583 Z M1960.08851,279.410383 C1959.90332,280.042213 1959.66366,280.663149 1959.36953,281.240511 C1959.01004,281.915915 1958.59609,282.569532 1958.10587,283.146894 C1956.94026,284.530383 1955.70928,285.881191 1954.38026,287.11217 C1951.52613,289.715745 1948.70468,292.384681 1945.55643,294.617872 C1934.70638,302.308766 1923.97617,310.184851 1912.9954,317.690553 C1905.43523,322.865021 1897.6354,327.701787 1889.92272,332.658383 L1845.0737,361.472 C1838.72272,357.833532 1832.37174,354.18417 1826.02077,350.556596 L1744.79796,304.128 C1726.45311,293.169021 1707.99932,282.395234 1689.7743,271.24017 C1686.34281,269.137702 1683.1183,266.697532 1679.83932,264.366298 C1678.79353,263.625532 1677.824,262.77583 1676.82179,261.991489 C1676.50587,261.75183 1676.15728,261.533957 1675.86315,261.272511 C1675.17685,260.640681 1674.47966,259.987064 1673.83694,259.289872 C1673.44477,258.854128 1673.11796,258.385702 1672.79115,257.895489 C1672.47523,257.383489 1672.15932,256.849702 1671.94145,256.283234 C1671.71268,255.705872 1671.5057,255.09583 1671.41855,254.464 C1671.32051,253.810383 1671.30962,253.145872 1671.40766,252.492255 C1671.5057,251.773277 1671.70179,251.076085 1671.95234,250.400681 C1672.21379,249.670809 1672.5406,248.95183 1672.94366,248.287319 C1673.74979,246.914723 1674.61038,245.553021 1675.59081,244.278468 C1676.72374,242.818723 1677.93294,241.42434 1679.21838,240.106213 C1689.70894,229.310638 1700.36289,218.667574 1710.90791,207.915574 L1739.34026,178.905872 L1740.69106,183.590128 L1744.14434,191.825702 L1744.37311,192.326809 C1751.8897,205.355574 1758.94877,218.656681 1766.92289,231.413106 C1776.08443,246.075915 1785.92136,260.313872 1795.7474,274.530043 C1800.3663,281.186043 1805.18128,287.711319 1810.2577,294.040511 C1814.66962,299.541787 1819.23404,304.945021 1824.19064,309.977872 C1828.53719,314.389787 1833.2977,318.420426 1838.13447,322.309447 C1840.53106,324.226723 1843.22179,325.773617 1845.85804,327.353191 C1847.09991,328.115745 1848.43983,328.725787 1849.77974,329.324936 C1851.0543,329.880511 1852.35064,330.370723 1853.66877,330.795574 C1854.95421,331.209532 1856.26145,331.547234 1857.59047,331.819574 C1858.78877,332.070128 1860.01974,332.266213 1861.23983,332.375149 C1862.35098,332.473191 1863.47302,332.494979 1864.59506,332.451404 C1865.61906,332.429617 1866.65396,332.331574 1867.67796,332.16817 C1868.6257,332.026553 1869.57345,331.808681 1870.48851,331.547234 C1871.36,331.307574 1872.2097,331.002553 1873.04851,330.643064 C1873.82196,330.327149 1874.58451,329.945872 1875.32528,329.531915 C1876.02247,329.139745 1876.73055,328.736681 1877.37328,328.246468 C1878.54979,327.353191 1879.7263,326.427234 1880.79387,325.414128 C1881.70894,324.542638 1882.54774,323.584 1883.3103,322.581787 C1884.29072,321.307234 1885.17311,319.956426 1885.99013,318.572936 C1886.98145,316.895319 1887.9183,315.163234 1888.73532,313.387574 C1889.65038,311.404936 1890.50009,309.389617 1891.18638,307.31983 C1892.60255,303.005957 1893.95336,298.659404 1895.03183,294.236596 C1896.48068,288.266894 1898.08204,282.286298 1898.72477,276.164085 L1902.40681,240.748936 C1910.80579,244.659745 1919.40085,248.211064 1927.61464,252.492255 C1935.63234,256.675404 1943.31234,261.51217 1951.10128,266.131064 C1952.01634,266.675745 1952.86604,267.307574 1953.68306,267.982979 C1954.83779,268.941617 1955.94894,269.954723 1957.00562,271.033191 C1957.56119,271.59966 1958.0514,272.242383 1958.48715,272.896 C1958.912,273.538723 1959.30417,274.225021 1959.5983,274.933106 C1959.87064,275.630298 1960.05583,276.381957 1960.19745,277.122723 C1960.26281,277.493106 1960.24102,277.874383 1960.21923,278.25566 C1960.23013,278.658723 1960.19745,279.050894 1960.08851,279.410383 L1960.08851,279.410383 L1960.08851,279.410383 Z" id="Shape" fill="#EAC102"></path>
        </g>
    </g>
</svg>