<?xml version="1.0" encoding="utf-8"?>
<!-- Generator: Adobe Illustrator 13.0.1, SVG Export Plug-In  -->
<!DOCTYPE svg PUBLIC "-//W3C//DTD SVG 1.1//EN" "http://www.w3.org/Graphics/SVG/1.1/DTD/svg11.dtd" [
	<!ENTITY ns_flows "http://ns.adobe.com/Flows/1.0/">
]>
<svg version="1.1"
	 xmlns="http://www.w3.org/2000/svg" xmlns:xlink="http://www.w3.org/1999/xlink" xmlns:a="http://ns.adobe.com/AdobeSVGViewerExtensions/3.0/"
	 x="0px" y="0px" width="188px" height="48px" viewBox="-0.835 -0.509 188 48" enable-background="new -0.835 -0.509 188 48"
	 xml:space="preserve">
<defs>
</defs>
<path fill-rule="evenodd" clip-rule="evenodd" fill="#2D2A6E" d="M5.96,37.199l3.081-8.366l2.939,8.366H5.96L5.96,37.199z
	 M14.974,45.63h2.825l-7.332-20.139H7.673L0,45.63h2.852l2.253-6.172h7.673L14.974,45.63L14.974,45.63z"/>
<path fill-rule="evenodd" clip-rule="evenodd" fill="#2D2A6E" d="M23.941,38.675c-2.618-0.566-5.322-1.184-5.322-4.342
	c0-2.773,2.345-4.521,5.887-4.521c2.291,0,4.479,0.853,5.571,2.938l-2.382,0.994c-0.191-0.557-1.424-1.959-3.481-1.959
	c-2.016,0-3.025,1.193-3.025,2.226c0,1.45,1.917,2.054,3.552,2.383c3.385,0.681,6.328,1.547,6.328,4.738
	c0,2.48-2.203,4.81-6.411,4.81c-3.098,0-5.299-1.036-6.358-3.201l2.717-0.474c0.682,1.186,1.915,1.7,3.752,1.7
	c2.278,0,3.61-0.869,3.61-2.514C28.38,39.713,26.194,39.162,23.941,38.675L23.941,38.675z"/>
<path fill-rule="evenodd" clip-rule="evenodd" fill="#2D2A6E" d="M36.711,30.276h2.782v2.141h-2.782v8.712
	c0,1.807,0,2.582,1.099,2.582c0.485,0,1.166-0.195,1.683-0.355v2.12c-0.453,0.064-1.522,0.258-2.493,0.258
	c-2.975,0-2.975-1.446-2.943-3.442v-9.875H31.63v-2.141h2.427v-3.658l2.654-1.104V30.276L36.711,30.276z"/>
<path fill-rule="evenodd" clip-rule="evenodd" fill="#2D2A6E" d="M44.381,30.315v2.742c1.455-2.893,4.206-2.958,5.241-2.99v2.653
	c-2.523,0.017-3.76,0.534-4.593,1.891c-0.684,1.108-0.648,2.665-0.648,3.98v7.039h-2.569V30.315H44.381L44.381,30.315z"/>
<polygon fill-rule="evenodd" clip-rule="evenodd" fill="#2D2A6E" points="79.327,25.494 79.327,28.006 67.929,43.214 79.613,43.214 
	79.613,45.63 64.818,45.63 64.818,43.014 76.272,27.977 64.827,27.977 64.827,25.494 79.327,25.494 "/>
<path fill-rule="evenodd" clip-rule="evenodd" fill="#2D2A6E" d="M98.289,30.421v2.225c1.43-2.5,3.866-2.727,4.775-2.727
	c1.949,0,4.284,0.975,5.029,3.502c0.261,0.904,0.261,1.841,0.261,3.134v9.075h-2.562v-8.655c0-1.552,0-2.003-0.163-2.521
	c-0.454-1.453-1.883-2.099-3.28-2.099c-1.136,0-2.111,0.355-2.924,1.162c-1.137,1.131-1.137,2.292-1.137,3.426v8.687h-2.57V30.421
	H98.289L98.289,30.421z"/>
<path fill-rule="evenodd" clip-rule="evenodd" fill="#2D2A6E" d="M137.907,42.919c-0.959,1.506-2.701,3.022-5.837,3.022
	c-5.412,0-7.456-4.171-7.456-7.918c0-4.329,2.355-8.252,7.23-8.252c1.912,0,4.59,0.576,6.072,3.045l-2.408,1.005
	c-0.455-1.003-1.435-2.162-3.567-2.162c-4.224,0-4.471,4.813-4.471,6.171c0,5.046,2.899,6.137,4.631,6.137
	c1.983,0,2.996-0.951,3.531-1.999L137.907,42.919L137.907,42.919z"/>
<path fill-rule="evenodd" clip-rule="evenodd" fill="#2D2A6E" d="M83.305,36.405h8.121c-0.227-4.006-2.536-4.683-4.076-4.683
	C85.152,31.723,83.595,33.336,83.305,36.405L83.305,36.405z M93.54,42.721c-0.876,1.491-2.567,3.202-5.901,3.202
	c-4.52,0-7.12-3.072-7.12-8.222c0-5.753,3.795-7.952,7.025-7.952c2.808,0,5.5,1.552,6.405,5.396
	c0.292,1.293,0.292,2.459,0.292,3.106h-11c-0.064,2.558,1.008,5.795,4.625,5.732c1.476-0.025,2.515-0.695,3.178-1.745L93.54,42.721
	L93.54,42.721z"/>
<path fill-rule="evenodd" clip-rule="evenodd" fill="#2D2A6E" d="M112.518,36.405h8.122c-0.226-4.006-2.535-4.683-4.076-4.683
	C114.368,31.723,112.81,33.336,112.518,36.405L112.518,36.405z M122.755,42.721c-0.876,1.491-2.566,3.202-5.9,3.202
	c-4.52,0-7.121-3.072-7.121-8.222c0-5.753,3.795-7.952,7.024-7.952c2.809,0,5.499,1.552,6.405,5.396
	c0.291,1.293,0.291,2.459,0.291,3.106h-11c-0.065,2.558,1.011,5.795,4.625,5.732c1.476-0.025,2.518-0.695,3.179-1.745
	L122.755,42.721L122.755,42.721z"/>
<path fill-rule="evenodd" clip-rule="evenodd" fill="#2D2A6E" d="M151.951,45.646l-2.672,0.01c0,0-0.231-1.079-0.306-2.257
	c-0.776,0.806-2.216,2.473-5.126,2.473c-2.976,0-5.184-1.765-5.184-4.351c0-0.811,0.227-1.618,0.681-2.3
	c0.877-1.295,2.5-2.331,7.059-2.686l2.423-0.194v-0.389c0-1.586,0-4.239-3.416-4.239c-2.149,0-2.881,1.042-3.129,1.983l-2.366-0.988
	c0.037-0.082,0.08-0.166,0.125-0.251c0.909-1.682,2.692-2.718,5.271-2.718c1.42,0,3.258,0.357,4.456,1.295
	c1.705,1.292,1.664,3.837,1.664,3.837l0.103,7.854C151.534,42.727,151.625,45.007,151.951,45.646L151.951,45.646z M148.438,41.424
	c0.388-0.841,0.421-1.197,0.421-3.433c-1,0.162-2.353,0.356-4.009,0.713c-2.846,0.614-3.331,1.686-3.331,2.753
	c0,1.23,0.971,2.267,2.878,2.267C146.177,43.724,147.696,43.012,148.438,41.424L148.438,41.424z"/>
<path fill-rule="evenodd" clip-rule="evenodd" fill="#2D2A6E" d="M63.004,45.646l-2.672,0.01c0,0-0.232-1.079-0.306-2.257
	c-0.776,0.806-2.214,2.473-5.125,2.473c-2.978,0-5.185-1.765-5.185-4.351c0-0.811,0.227-1.618,0.682-2.3
	c0.877-1.295,2.499-2.331,7.056-2.686l2.426-0.194v-0.389c0-1.586,0-4.239-3.418-4.239c-2.149,0-2.879,1.042-3.129,1.983
	l-2.366-0.988c0.039-0.082,0.08-0.166,0.126-0.251c0.909-1.682,2.693-2.718,5.27-2.718c1.419,0,3.259,0.357,4.456,1.295
	c1.705,1.292,1.664,3.837,1.664,3.837l0.103,7.854C62.586,42.727,62.677,45.007,63.004,45.646L63.004,45.646z M59.491,41.424
	c0.39-0.841,0.42-1.197,0.42-3.433c-0.998,0.162-2.353,0.356-4.007,0.713c-2.844,0.614-3.33,1.686-3.33,2.753
	c0,1.23,0.969,2.267,2.876,2.267C57.229,43.724,58.748,43.012,59.491,41.424L59.491,41.424z"/>
<path fill-rule="evenodd" clip-rule="evenodd" fill="#EAC102" d="M187.068,24.432c-0.01-0.094-0.021-0.188-0.044-0.279
	c-0.048-0.186-0.099-0.372-0.17-0.55c-0.077-0.189-0.172-0.372-0.273-0.549c-0.113-0.195-0.239-0.382-0.372-0.565
	c-0.077-0.107-0.166-0.207-0.258-0.302c-0.103-0.106-0.209-0.211-0.325-0.303c-0.262-0.208-0.522-0.42-0.808-0.595
	c-0.624-0.383-1.246-0.781-1.916-1.076c-0.81-0.356-1.593-0.778-2.428-1.068l-5.627-1.954c0-1.07,0.031-2.14,0-3.209
	c-0.047-1.587-0.111-3.175-0.234-4.758c-0.086-1.102-0.218-2.201-0.39-3.293c-0.134-0.852-0.337-1.692-0.526-2.533
	c-0.043-0.193-0.108-0.38-0.172-0.566c-0.057-0.168-0.119-0.335-0.188-0.499c-0.062-0.148-0.13-0.294-0.203-0.438
	c-0.066-0.129-0.139-0.255-0.216-0.378c-0.069-0.111-0.146-0.219-0.225-0.324c-0.072-0.095-0.148-0.186-0.229-0.273
	c-0.073-0.08-0.151-0.156-0.232-0.229c-0.073-0.066-0.151-0.127-0.231-0.186c-0.074-0.054-0.151-0.104-0.229-0.149
	c-0.073-0.042-0.147-0.083-0.225-0.115c-0.136-0.056-0.274-0.109-0.415-0.149c-0.117-0.033-0.238-0.051-0.358-0.068
	c-0.09-0.013-0.181-0.019-0.271-0.021c-0.154-0.003-0.31-0.006-0.463,0.005c-0.164,0.012-0.328,0.032-0.489,0.064
	c-0.173,0.034-0.344,0.077-0.511,0.133c-0.18,0.06-0.355,0.133-0.524,0.216c-0.189,0.093-0.37,0.201-0.549,0.313
	c-0.189,0.119-0.376,0.243-0.555,0.377c-0.313,0.236-0.633,0.465-0.918,0.733c-1.175,1.104-2.329,2.23-3.457,3.38
	c-0.602,0.613-1.185,1.247-1.73,1.909c-2.168,2.625-4.326,5.258-6.411,7.949c-0.926,1.194-1.759,2.457-2.616,3.699
	c-0.214,0.311-0.414,0.632-0.599,0.961c-0.321,0.575-0.622,1.161-0.916,1.75c-0.076,0.153-0.136,0.315-0.194,0.476
	c-0.056,0.154-0.107,0.31-0.148,0.468c-0.038,0.149-0.071,0.301-0.088,0.454c-0.015,0.141-0.017,0.284-0.008,0.425
	c0.005,0.071,0.026,0.141,0.049,0.208c0.025,0.073,0.058,0.143,0.096,0.21c0.042,0.073,0.091,0.142,0.142,0.208
	c0.056,0.072,0.113,0.142,0.177,0.206c0.139,0.137,0.281,0.271,0.432,0.395c0.155,0.128,0.315,0.25,0.483,0.36
	c0.293,0.192,0.596,0.371,0.897,0.547c0.132,0.077,0.271,0.143,0.405,0.213c0.048,0.024-0.095-0.05-0.142-0.076
	c-0.006-0.002-0.021-0.011-0.016-0.009c0.008,0.002,0.016,0.008,0.023,0.012c0.074,0.039,0.148,0.077,0.223,0.116
	c1.853,0.968,3.713,1.922,5.557,2.905c1.854,0.988,3.707,1.979,5.538,3.008l4.117,2.313c-1.43,1.082-2.887,2.127-4.287,3.244
	c-0.535,0.427-1.032,0.9-1.517,1.383c-0.394,0.393-0.765,0.81-1.115,1.241c-0.28,0.345-0.535,0.71-0.773,1.085
	c-0.187,0.292-0.351,0.601-0.498,0.914c-0.112,0.238-0.202,0.486-0.281,0.737c-0.057,0.176-0.094,0.357-0.126,0.539
	c-0.019,0.109-0.023,0.222-0.029,0.334c-0.002,0.038,0.005,0.076,0.005,0.114c0.002,0.101-0.003,0.201,0.003,0.301
	c0.005,0.094,0.016,0.188,0.031,0.279c0.014,0.089,0.033,0.177,0.057,0.264c0.022,0.082,0.051,0.164,0.082,0.244
	c0.031,0.077,0.066,0.153,0.104,0.227c0.038,0.072,0.077,0.145,0.126,0.21c0.095,0.13,0.191,0.259,0.304,0.373
	s0.237,0.218,0.367,0.313c0.13,0.096,0.27,0.18,0.412,0.258c0.144,0.078,0.293,0.146,0.445,0.209
	c0.151,0.063,0.303,0.13,0.463,0.165c0.575,0.127,1.154,0.243,1.738,0.322c0.286,0.039,0.577,0.055,0.864,0.032
	c0.995-0.078,1.989-0.179,2.975-0.334c1.151-0.181,2.293-0.423,3.432-0.672c1.343-0.294,2.682-0.605,4.012-0.954
	c0.94-0.247,1.896-0.466,2.796-0.834c0.709-0.289,1.425-0.565,2.128-0.868c0.158-0.067,0.307-0.155,0.455-0.242
	c0.134-0.078,0.266-0.163,0.392-0.253c0.111-0.079,0.221-0.163,0.32-0.257c0.084-0.079,0.161-0.167,0.229-0.261
	c0.059-0.079,0.108-0.167,0.149-0.258c0.036-0.08,0.063-0.166,0.082-0.253c0.018-0.079,0.026-0.162,0.026-0.243
	c0-0.079-0.01-0.158-0.024-0.235c-0.016-0.075-0.038-0.15-0.066-0.223c-0.027-0.073-0.063-0.144-0.102-0.212
	s-0.082-0.135-0.128-0.198s-0.095-0.126-0.148-0.184c-0.103-0.108-0.208-0.217-0.319-0.315c-0.097-0.086-0.201-0.163-0.306-0.237
	c-0.103-0.073-0.21-0.141-0.317-0.206c-0.733-0.442-1.463-0.893-2.201-1.328l-3.091-1.825c1.877-1.273,3.771-2.522,5.631-3.822
	c0.795-0.555,1.577-1.129,2.331-1.738c0.646-0.522,1.261-1.082,1.863-1.652c0.287-0.271,0.542-0.572,0.802-0.869
	c0.118-0.135,0.227-0.279,0.33-0.426c0.095-0.133,0.191-0.267,0.266-0.413c0.242-0.48,0.48-0.963,0.682-1.461
	c0.081-0.203,0.115-0.422,0.161-0.636c0.021-0.099,0.029-0.201,0.037-0.302c0.008-0.097,0.011-0.195,0.01-0.292
	C187.085,24.622,187.079,24.526,187.068,24.432L187.068,24.432z M163.996,11.8c1.048-1.087,2.098-2.172,3.164-3.242
	c0.194-0.195,0.41-0.37,0.618-0.551c0.072-0.063,0.149-0.123,0.226-0.182c0.059-0.045,0.117-0.092,0.181-0.132
	c0.045-0.028,0.093-0.052,0.142-0.072c0.052-0.021,0.104-0.042,0.16-0.051c0.058-0.01,0.117-0.009,0.177-0.006
	c0.03,0.001,0.06,0.009,0.089,0.019c0.03,0.009,0.061,0.023,0.089,0.039c0.03,0.017,0.06,0.037,0.086,0.059
	c0.031,0.025,0.06,0.053,0.086,0.083c0.03,0.034,0.058,0.07,0.082,0.108c0.028,0.044,0.058,0.089,0.076,0.138
	c0.051,0.132,0.097,0.267,0.131,0.405c0.049,0.197,0.087,0.397,0.118,0.599c0.076,0.492,0.146,0.985,0.201,1.479
	c0.072,0.64,0.124,1.282,0.183,1.923l0.318,3.413l-3.803-0.875l-3.549-0.584l-0.859-0.066l-0.279-0.007
	C162.42,13.464,163.201,12.625,163.996,11.8L163.996,11.8z M161.611,16.546l0.014-0.021l0.02-0.011l0.029-0.003l0.046,0.007
	l0.133,0.038l0.344,0.132l0.468,0.208c1.208,0.517,2.416,1.034,3.625,1.549c0.801,0.342,1.603,0.681,2.403,1.023l1.583,0.676
	l0.141,0.063c0.085,1.251,0.189,2.501,0.255,3.753c0.052,0.978,0.073,1.958,0.097,2.937c0.003,0.124-0.007,0.247-0.016,0.37
	c-0.004,0.069-0.011,0.139-0.021,0.208c-0.011,0.069-0.024,0.138-0.044,0.204c-0.02,0.065-0.042,0.131-0.075,0.191
	c-0.031,0.059-0.074,0.113-0.117,0.165c-0.021,0.026-0.05,0.049-0.077,0.07c-0.028,0.021-0.059,0.042-0.091,0.06
	c-0.033,0.018-0.07,0.033-0.106,0.046c-0.04,0.014-0.081,0.026-0.123,0.034c-0.051,0.009-0.103,0.014-0.154,0.016
	c-0.054,0.001-0.108,0-0.162-0.007c-0.058-0.007-0.114-0.019-0.169-0.033c-0.06-0.015-0.119-0.031-0.175-0.054
	c-0.123-0.052-0.246-0.107-0.362-0.173c-0.132-0.075-0.259-0.16-0.382-0.25c-0.136-0.1-0.266-0.207-0.392-0.318
	c-0.138-0.122-0.273-0.246-0.398-0.379c-0.274-0.293-0.545-0.591-0.799-0.902c-0.459-0.561-0.936-1.112-1.339-1.714
	c-0.556-0.83-1.126-1.65-1.667-2.49c-0.323-0.501-0.654-1-0.923-1.534l-1.221-2.419l-0.263-0.771l-0.06-0.229l-0.036-0.221
	l-0.003-0.16L161.611,16.546L161.611,16.546z M175.103,37.987c0.329,0.208,0.66,0.413,0.984,0.627
	c0.419,0.276,0.839,0.55,1.245,0.844c0.292,0.211,0.571,0.439,0.847,0.672c0.122,0.104,0.237,0.216,0.347,0.334
	c0.089,0.097,0.167,0.203,0.246,0.309c0.005,0.007,0.006,0.016,0.005,0.024c0,0.019-0.002,0.037-0.008,0.055
	c-0.003,0.012-0.012,0.022-0.02,0.03c-0.012,0.011-0.025,0.021-0.039,0.027c-0.019,0.009-0.039,0.014-0.06,0.018
	c-0.029,0.006-0.059,0.01-0.088,0.012c-1.604,0.12-3.21,0.23-4.813,0.356l-6.267,0.492l-0.195,0.012l0.09-0.097l0.395-0.349
	c0.813-0.604,1.599-1.245,2.437-1.813l3.549-2.406C174.205,37.418,174.654,37.702,175.103,37.987L175.103,37.987z M179.93,25.649
	c-0.017,0.058-0.039,0.115-0.066,0.168c-0.033,0.062-0.071,0.122-0.116,0.175c-0.107,0.127-0.22,0.251-0.342,0.364
	c-0.262,0.239-0.521,0.484-0.81,0.689c-0.996,0.706-1.981,1.429-2.989,2.118c-0.694,0.475-1.41,0.919-2.118,1.374l-4.117,2.645
	c-0.583-0.334-1.166-0.669-1.749-1.002l-7.456-4.262c-1.684-1.006-3.378-1.995-5.051-3.019c-0.315-0.193-0.611-0.417-0.912-0.631
	c-0.096-0.068-0.185-0.146-0.277-0.218c-0.029-0.022-0.061-0.042-0.088-0.066c-0.063-0.058-0.127-0.118-0.186-0.182
	c-0.036-0.04-0.066-0.083-0.096-0.128c-0.029-0.047-0.058-0.096-0.078-0.148c-0.021-0.053-0.04-0.109-0.048-0.167
	c-0.009-0.06-0.01-0.121-0.001-0.181c0.009-0.066,0.027-0.13,0.05-0.192c0.024-0.067,0.054-0.133,0.091-0.194
	c0.074-0.126,0.153-0.251,0.243-0.368c0.104-0.134,0.215-0.262,0.333-0.383c0.963-0.991,1.941-1.968,2.909-2.955l2.61-2.663
	l0.124,0.43l0.317,0.756l0.021,0.046c0.69,1.196,1.338,2.417,2.07,3.588c0.841,1.346,1.744,2.653,2.646,3.958
	c0.424,0.611,0.866,1.21,1.332,1.791c0.405,0.505,0.824,1.001,1.279,1.463c0.399,0.405,0.836,0.775,1.28,1.132
	c0.22,0.176,0.467,0.318,0.709,0.463c0.114,0.07,0.237,0.126,0.36,0.181c0.117,0.051,0.236,0.096,0.357,0.135
	c0.118,0.038,0.238,0.069,0.36,0.094c0.11,0.023,0.223,0.041,0.335,0.051c0.102,0.009,0.205,0.011,0.308,0.007
	c0.094-0.002,0.189-0.011,0.283-0.026c0.087-0.013,0.174-0.033,0.258-0.057c0.08-0.022,0.158-0.05,0.235-0.083
	c0.071-0.029,0.141-0.064,0.209-0.102c0.064-0.036,0.129-0.073,0.188-0.118c0.108-0.082,0.216-0.167,0.314-0.26
	c0.084-0.08,0.161-0.168,0.231-0.26c0.09-0.117,0.171-0.241,0.246-0.368c0.091-0.154,0.177-0.313,0.252-0.476
	c0.084-0.182,0.162-0.367,0.225-0.557c0.13-0.396,0.254-0.795,0.353-1.201c0.133-0.548,0.28-1.097,0.339-1.659l0.338-3.251
	c0.771,0.359,1.56,0.685,2.314,1.078c0.736,0.384,1.441,0.828,2.156,1.252c0.084,0.05,0.162,0.108,0.237,0.17
	c0.106,0.088,0.208,0.181,0.305,0.28c0.051,0.052,0.096,0.111,0.136,0.171c0.039,0.059,0.075,0.122,0.102,0.187
	c0.025,0.064,0.042,0.133,0.055,0.201c0.006,0.034,0.004,0.069,0.002,0.104C179.943,25.58,179.94,25.616,179.93,25.649
	L179.93,25.649z"/>
</svg>
