<svg id="Layer_1" data-name="Layer 1" xmlns="http://www.w3.org/2000/svg" viewBox="0 0 743.85 434.75"><defs><style>.cls-1,.cls-2{fill:#964b97;}.cls-2{fill-rule:evenodd;}</style></defs><title>astro-radio</title><path class="cls-1" d="M522.15,1045.17H511.21a4.4,4.4,0,0,1-4.21-2.06l-13-19.91h-5.8v19.35a2.29,2.29,0,0,1-2.52,2.62H476c-1.87,0-2.62-.84-2.62-2.71v-59c0-2.52.56-3.18,3.09-3.18h14.21c7.95,0,17.48.65,23.19,7a21,21,0,0,1,5,13.93c0,8.32-3.55,15.24-11.13,19.07v0.19l15.33,21.88a3,3,0,0,1,.56,1.59A1.31,1.31,0,0,1,522.15,1045.17ZM491.86,991.5h-3.65v20.57h4.67c6.83,0,11-3.65,11-10.57C503.92,994.12,498.87,991.5,491.86,991.5Z" transform="translate(-465.11 -611.63)"/><path class="cls-1" d="M572.74,1045.17h-5c-5.52,0-7.76-1.59-9-4.3h-0.19c-2.52,2.9-8.51,5.51-13.09,5.51-13.46,0-19.73-10.66-19.73-23.09,0-16.55,10.29-25,20.57-25,5.24,0,9.44,2.43,11.41,5.24l0.28-2.06a2.07,2.07,0,0,1,2.15-1.87h8.41a2.06,2.06,0,0,1,2.24,2.24v32.26a1.34,1.34,0,0,0,1.4,1.59H573c1.31,0,2,.47,2,1.87V1043A2,2,0,0,1,572.74,1045.17Zm-15.89-32.07a12.72,12.72,0,0,0-7.57-3.18c-4.58,0-8.88,3.74-8.88,12.44,0,5.8,1.5,12.72,8.6,12.72,3.37,0,6.73-2.52,7.85-3.93v-18Z" transform="translate(-465.11 -611.63)"/><path class="cls-1" d="M620.24,1045.17h-7.85c-1.59,0-2.34-.84-2.43-1.87l-0.19-2a18.07,18.07,0,0,1-11.87,5c-13.56,0-20.1-10.47-20.1-23.19,0-12.43,6.64-25,20.48-25a15.55,15.55,0,0,1,10.47,3.74V982.25c0-1.68.47-2.62,2.24-2.9l9.16-1.21c0.19,0,.56-0.09.75-0.09,1.31,0,1.87.75,1.87,2.06v62.45A2.34,2.34,0,0,1,620.24,1045.17Zm-11.5-32.63a11.73,11.73,0,0,0-7.39-3c-6.83,0-9,7.2-9,12.81,0,5.8,1.59,12.62,8.7,12.62a12.37,12.37,0,0,0,7.67-3.36v-19.07Z" transform="translate(-465.11 -611.63)"/><path class="cls-1" d="M639.69,994.22c-3.55,0-7.57-2.52-7.57-7s3.74-7.2,7.57-7.2,7.48,2.62,7.48,7.11S643.24,994.22,639.69,994.22Zm4.39,51h-8.41c-2,0-2.9-.65-2.9-2.71v-40.39c0-1.87,1.21-2.43,2.9-2.43h8.41c1.78,0,2.71.47,2.71,2.43v40.39C646.79,1044.33,645.95,1045.17,644.08,1045.17Z" transform="translate(-465.11 -611.63)"/><path class="cls-1" d="M676.9,1046.39c-15.8,0-23.19-10.19-23.19-24.12,0-13.74,8.7-23.94,23.84-23.94,15.8,0,23.19,10.19,23.19,24.12C700.74,1036.19,692,1046.39,676.9,1046.39Zm0.47-37c-6.92,0-9.16,6-9.16,12.81s2,13.18,8.88,13.18,9.16-6.17,9.16-13S684.29,1009.36,677.37,1009.36Z" transform="translate(-465.11 -611.63)"/><path class="cls-2" d="M885.31,803.73c-14.42,0-22.89-5-22.89-26V683.37l39.29-3.29V652.57H862.42V611.63H819.89v40.93h-23.5v27.51l23.5,3.29V787.22c0,40.78,22.18,54.49,53.44,54.49,10.15,0,23.13-2.72,33.91-6.59V802A129.64,129.64,0,0,1,885.31,803.73Z" transform="translate(-465.11 -611.63)"/><path class="cls-1" d="M1117.65,649c-49.28,0-91.34,36.07-91.34,96.56,0,60,42.06,96.11,91.34,96.11s91.32-35,91.32-96.11S1167,649,1117.65,649Zm0,156.31c-30.69,0-50.7-26.51-50.7-59.83,0-33.64,20-60.15,50.7-60.15s50.73,26.24,50.73,60.15S1148.34,805.35,1117.65,805.35Z" transform="translate(-465.11 -611.63)"/><path class="cls-1" d="M541.29,649c-25.35,0-47,9.35-62.18,17.27l7,30.24c13.1-5.61,29.1-12,50-12,34.22,0,52.32,16.38,52.32,48.19a150.72,150.72,0,0,0-52-9.09c-39.93,0-71.26,20.74-71.26,60.84,0,37.22,30.3,57.29,62.14,57.29,31.06,0,50.48-8.89,61.15-21l5.62,17.45h35.51V727.62C629.59,678.05,596.12,649,541.29,649Zm47.16,117.47c0,26.13-15.37,43.55-49.2,43.55-20,0-35.89-10.18-35.89-27.77,0-19,15.85-30,42.58-30a109.68,109.68,0,0,1,42.51,8.36v5.81Z" transform="translate(-465.11 -611.63)"/><path class="cls-1" d="M769.14,693.37c-8.11-3.3-27.31-9.28-45.26-9.28-15.83,0-23.87,8.78-23.87,17.47,0,8.27,4.21,13.46,18.5,19.27l34.67,14c20.1,8.11,35.88,23.79,35.88,48.35,0,39.66-34.37,58.56-72.88,58.56-19.65,0-49.79-7.62-66.55-19.28l7.34-31c23.48,9.95,47.11,15.55,60.32,15.55,16.63,0,27.94-7.57,27.94-20,0-10.58-7.77-16.41-23.3-22.3l-29.86-11.35c-21.46-8.13-38.88-24.53-38.88-50.22,0-37,34.76-54,68.35-54,21.91,0,45.4,7.33,55.33,11.33Z" transform="translate(-465.11 -611.63)"/><path class="cls-2" d="M972.56,682.66V652.57H931.84V838.16h42.48V753.71c0-48.78,24.68-65.47,54.22-65.47V649C1008.67,649,983.95,658.56,972.56,682.66Z" transform="translate(-465.11 -611.63)"/><path class="cls-1" d="M1206.4,850.07c-2.64,4.6-43.76,79.73-203.18,79.73-110.74,0-247.63-36-379.35-36-61.9,0-112,3-152.95,14.78-2.77.79-5.81,0-5.81-2.25s2.73-3.83,5.18-5.12c31.61-16.27,95.22-38,177.61-38,150,0,267.88,28.47,378.64,28.47,120.53,0,171.71-44.5,175.7-47.79,5.11-4.25,6.72-1.34,6.72,0C1209,845.69,1207.53,848.14,1206.4,850.07Z" transform="translate(-465.11 -611.63)"/></svg>