<?xml version="1.0" encoding="UTF-8" standalone="no"?>
<svg width="876px" height="512px" viewBox="0 0 876 512" version="1.1" xmlns="http://www.w3.org/2000/svg" xmlns:xlink="http://www.w3.org/1999/xlink">
    <!-- Generator: Sketch 3.6.1 (26313) - http://www.bohemiancoding.com/sketch -->
    <title>Astro Radio</title>
    <desc>Created with Sketch.</desc>
    <defs></defs>
    <g id="Page-1" stroke="none" stroke-width="1" fill="none" fill-rule="evenodd">
        <g id="Astro-Radio" fill="#000000">
            <path d="M67.1367356,510.281563 L54.2602299,510.281563 C52.2796518,510.49354 50.3530231,509.550819 49.3050115,507.85692 L34.0038621,484.422621 L27.1771954,484.422621 L27.1771954,507.197793 C27.3032881,508.026781 27.0363841,508.867233 26.4551048,509.471578 C25.8738256,510.075924 25.0443911,510.375316 24.2111264,510.281563 L12.8176552,510.281563 C10.6166437,510.281563 9.73388506,509.292874 9.73388506,507.091862 L9.73388506,437.648184 C9.73388506,434.682115 10.3930115,433.905287 13.3708506,433.905287 L30.0961839,433.905287 C39.4534253,433.905287 50.6703448,434.670345 57.3910805,442.144368 C61.2774536,446.714359 63.3691409,452.5418 63.2761379,458.540138 C63.2761379,468.332874 59.0977471,476.477793 50.176,480.985747 L50.176,481.209379 L68.2195862,506.962391 C68.6136462,507.510388 68.8423866,508.159847 68.8787126,508.833839 C68.8561618,509.263346 68.6552394,509.663914 68.3244621,509.938817 C67.9936848,510.21372 67.5631198,510.337969 67.1367356,510.281563 L67.1367356,510.281563 Z M31.4850575,447.111356 L27.1889655,447.111356 L27.1889655,471.322483 L32.6856092,471.322483 C40.7245977,471.322483 45.6327356,467.026391 45.6327356,458.881471 C45.6798161,450.195126 39.735908,447.111356 31.4850575,447.111356 L31.4850575,447.111356 Z" id="Shape"></path>
            <path d="M126.681747,510.281563 L120.79669,510.281563 C114.299586,510.281563 111.66308,508.410115 110.203586,505.220414 L109.979954,505.220414 C107.013885,508.633747 99.9635862,511.705747 94.5728736,511.705747 C78.7302989,511.705747 71.3504368,499.158805 71.3504368,484.528552 C71.3504368,465.049011 83.4618851,455.103264 95.5615632,455.103264 C101.729103,455.103264 106.672552,457.963402 108.991264,461.270805 L109.320828,458.846161 C109.444817,457.556274 110.556781,456.589123 111.851402,456.645149 L121.750069,456.645149 C122.467517,456.579168 123.177149,456.835669 123.686602,457.345122 C124.196056,457.854575 124.452557,458.564207 124.386575,459.281655 L124.386575,497.252046 C124.294619,497.731035 124.429443,498.22562 124.751759,498.591678 C125.074074,498.957736 125.547615,499.15408 126.034391,499.123494 L126.98777,499.123494 C128.529655,499.123494 129.341793,499.67669 129.341793,501.324506 L129.341793,507.727448 C129.40937,508.442574 129.146738,509.14942 128.628603,509.646921 C128.110468,510.144422 127.393538,510.378129 126.681747,510.281563 L126.681747,510.281563 Z M107.979034,472.534805 C105.504445,470.33655 102.37114,469.020313 99.0690575,468.791908 C93.6783448,468.791908 88.6171954,473.193931 88.6171954,483.433931 C88.6171954,490.260598 90.3827126,498.405517 98.7394943,498.405517 C102.706023,498.405517 106.660782,495.439448 107.979034,493.779862 L107.979034,472.593655 L107.979034,472.534805 Z" id="Shape"></path>
            <path d="M182.589793,510.281563 L173.350253,510.281563 C171.478805,510.281563 170.596046,509.292874 170.490115,508.080552 L170.266483,505.726529 C166.490399,509.337709 161.517174,511.43258 156.295356,511.611586 C140.33508,511.611586 132.637425,499.288276 132.637425,484.31669 C132.637425,469.686437 140.452782,454.891402 156.742621,454.891402 C161.25251,454.789938 165.64101,456.357559 169.065931,459.293425 L169.065931,436.224 C169.065931,434.246621 169.619126,433.14023 171.702437,432.810667 L182.483862,431.386483 C182.707494,431.386483 183.142989,431.280552 183.366621,431.280552 C184.908506,431.280552 185.567632,432.16331 185.567632,433.705195 L185.567632,507.209563 C185.666679,508.033906 185.388567,508.858942 184.810684,509.455098 C184.2328,510.051255 183.416819,510.354907 182.589793,510.281563 L182.589793,510.281563 Z M169.054161,471.875678 C166.656222,469.718837 163.578851,468.469566 160.356046,468.344644 C152.317057,468.344644 149.762943,476.819126 149.762943,483.422161 C149.762943,490.248828 151.634391,498.276046 160.002943,498.276046 C163.380416,498.047375 166.572653,496.64895 169.030621,494.321287 L169.030621,471.875678 L169.054161,471.875678 Z" id="Shape"></path>
            <path d="M205.482667,450.312828 C201.304276,450.312828 196.57269,447.346759 196.57269,442.073747 C196.57269,436.800736 200.974713,433.599264 205.482667,433.599264 C209.990621,433.599264 214.286713,436.683034 214.286713,441.967816 C214.286713,447.252598 209.661057,450.312828 205.482667,450.312828 L205.482667,450.312828 Z M210.649747,510.340414 L200.75108,510.340414 C198.397057,510.340414 197.337747,509.575356 197.337747,507.150713 L197.337747,459.611218 C197.337747,457.410207 198.761931,456.75108 200.75108,456.75108 L210.649747,456.75108 C212.744828,456.75108 213.839448,457.304276 213.839448,459.611218 L213.839448,507.150713 C213.839448,509.292874 212.850759,510.281563 210.649747,510.281563 L210.649747,510.340414 Z" id="Shape"></path>
            <path d="M249.279264,511.717517 C230.682483,511.717517 221.984368,499.72377 221.984368,483.328 C221.984368,467.155862 232.224368,455.150345 250.044322,455.150345 C268.641103,455.150345 277.339218,467.144092 277.339218,483.539862 C277.339218,499.712 267.052138,511.717517 249.279264,511.717517 L249.279264,511.717517 Z M249.83246,468.168092 C241.68754,468.168092 239.051034,475.230161 239.051034,483.245609 C239.051034,491.261057 241.405057,498.758621 249.502897,498.758621 C257.600736,498.758621 260.284322,491.49646 260.284322,483.457471 C260.284322,475.418483 257.977379,468.132782 249.83246,468.132782 L249.83246,468.168092 Z" id="Shape"></path>
            <path d="M494.58023,226.103908 C477.607724,226.103908 467.638437,220.218851 467.638437,195.501609 L467.638437,84.4388046 L513.883218,80.5664368 L513.883218,48.1868506 L467.638437,48.1868506 L467.638437,1.42108547e-13 L417.580138,1.42108547e-13 L417.580138,48.1750805 L389.920368,48.1750805 L389.920368,80.5546667 L417.580138,84.4270345 L417.580138,206.671448 C417.580138,254.669977 443.686253,270.806805 480.479632,270.806805 C492.426299,270.806805 507.703908,267.605333 520.392092,263.050299 L520.392092,224.067678 C511.861368,225.476501 503.226335,226.157696 494.58023,226.103908 L494.58023,226.103908 Z" id="Shape"></path>
            <path d="M768.04708,43.9849195 C710.043954,43.9849195 660.538851,86.4397241 660.538851,157.637149 C660.538851,228.257839 710.043954,270.759724 768.04708,270.759724 C826.050207,270.759724 875.53177,229.564322 875.53177,157.637149 C875.53177,85.709977 826.132598,43.9849195 768.04708,43.9849195 L768.04708,43.9849195 Z M768.04708,227.963586 C731.924598,227.963586 708.372598,196.761011 708.372598,157.542989 C708.372598,117.948322 731.912828,86.7457471 768.04708,86.7457471 C804.181333,86.7457471 827.756874,117.630529 827.756874,157.542989 C827.756874,197.455448 804.169563,228.010667 768.04708,228.010667 L768.04708,227.963586 Z" id="Shape"></path>
            <path d="M89.6647356,43.9849195 C59.8274943,43.9849195 34.3451954,54.989977 16.4781609,64.311908 L24.7172414,99.9047356 C40.136092,93.3017011 58.9682759,85.7805977 83.5678161,85.7805977 C123.845149,85.7805977 145.149057,105.060046 145.149057,142.500782 C125.535791,135.361647 104.816537,131.739762 83.9444598,131.801747 C36.9463908,131.801747 0.0706206897,156.212966 0.0706206897,203.411126 C0.0706206897,247.219494 35.734069,270.842115 73.2101149,270.842115 C109.768092,270.842115 132.625655,260.378483 145.184368,246.124874 L151.799172,266.663724 L193.594851,266.663724 L193.594851,136.521563 C193.594851,78.1771034 154.200276,43.9849195 89.6647356,43.9849195 L89.6647356,43.9849195 Z M145.172598,182.24846 C145.172598,213.00377 127.081931,233.50731 87.2636322,233.50731 C63.7234023,233.50731 45.0206897,221.525333 45.0206897,200.821701 C45.0206897,178.458483 63.6763218,165.511356 95.1378391,165.511356 C112.304437,165.431902 129.314481,168.77709 145.172598,175.351172 L145.172598,182.189609 L145.172598,182.24846 Z" id="Shape"></path>
            <path d="M357.846805,96.2089195 C348.301241,92.3247816 325.702621,85.2862529 304.575264,85.2862529 C285.943172,85.2862529 276.48,95.6204138 276.48,105.848644 C276.48,115.582529 281.435218,121.691218 298.254713,128.529655 L339.061701,145.007816 C362.719632,154.553379 381.292874,173.00892 381.292874,201.916322 C381.292874,248.596598 340.838989,270.842115 295.512276,270.842115 C272.384,270.842115 236.908874,261.873287 217.182161,248.149333 L225.821425,211.661977 C253.457655,223.373241 281.270437,229.964506 296.818759,229.964506 C316.39246,229.964506 329.70446,221.054529 329.70446,206.424276 C329.70446,193.971494 320.55908,187.109517 302.280092,180.17692 L267.134529,166.817839 C241.875862,157.248736 221.372322,137.945747 221.372322,107.708322 C221.372322,64.1588966 262.285241,44.1497011 301.821057,44.1497011 C327.609379,44.1497011 355.257379,52.7771954 366.945103,57.4852414 L357.846805,96.2089195 Z" id="Shape"></path>
            <path d="M597.274483,83.6031264 L597.274483,48.1868506 L549.346575,48.1868506 L549.346575,266.628414 L599.346023,266.628414 L599.346023,167.229793 C599.346023,109.815172 628.394667,90.1708506 663.163586,90.1708506 L663.163586,43.9849195 C639.776368,43.9849195 610.680644,55.2371494 597.274483,83.6031264 L597.274483,83.6031264 Z" id="Shape"></path>
            <path d="M872.506851,280.646621 C869.39954,286.060874 821.000828,374.489747 633.361655,374.489747 C503.019402,374.489747 341.898299,332.117333 186.862345,332.117333 C114.005333,332.117333 55.0370575,335.648368 6.83843678,349.513563 C3.57811494,350.443402 -5.68434189e-14,349.513563 -5.68434189e-14,346.865287 C-5.68434189e-14,344.217011 3.21324138,342.357333 6.09691954,340.838989 C43.3022529,321.689011 118.171954,296.112552 215.145931,296.112552 C391.697655,296.112552 530.44377,329.622069 660.809563,329.622069 C802.674759,329.622069 862.914207,277.245057 867.610483,273.37269 C873.625011,268.370391 875.52,271.795494 875.52,273.37269 C875.56708,275.49131 873.836874,278.374989 872.506851,280.646621 L872.506851,280.646621 Z" id="Shape"></path>
        </g>
    </g>
</svg>