<?xml version="1.0" encoding="utf-8"?>
<!-- Generator: Adobe Illustrator 18.1.1, SVG Export Plug-In . SVG Version: 6.00 Build 0)  -->
<svg version="1.1" id="Layer_1" xmlns:svg="http://www.w3.org/2000/svg"
	 xmlns="http://www.w3.org/2000/svg" xmlns:xlink="http://www.w3.org/1999/xlink" x="0px" y="0px" viewBox="-213 196.6 332.4 512"
	 enable-background="new -213 196.6 332.4 512" xml:space="preserve">
<g id="g3685" transform="matrix(0.9992427,0,0,0.99924,-3.9033418e-3,0.3028104)">
	<g>
		<g>
			<defs>
				<path id="SVGID_1_" d="M119.4,362.7c0,91.8-74.4,166.3-166.3,166.3s-166.3-74.4-166.3-166.3c0-91.9,74.4-166.3,166.3-166.3
					S119.4,270.9,119.4,362.7z"/>
			</defs>
			<clipPath id="SVGID_2_">
				<use xlink:href="#SVGID_1_"  overflow="visible"/>
			</clipPath>
			<g id="g35" clip-path="url(#SVGID_2_)">
				<path id="path37" fill="#B2B4B6" d="M123.7,362.4c0,93-75.4,168.5-168.5,168.5c-93,0-168.5-75.4-168.5-168.5
					c0-93.1,75.4-168.5,168.5-168.5S123.7,269.3,123.7,362.4z"/>
				<path id="path39" fill="#B2B4B7" d="M123.4,362.3c0,92.8-75.2,168-168,168c-92.8,0-168-75.2-168-168c0-92.8,75.2-168,168-168
					C48.2,194.3,123.4,269.5,123.4,362.3z"/>
				<path id="path41" fill="#B2B4B7" d="M123.1,362.2c0,92.5-75,167.5-167.5,167.5s-167.5-75-167.5-167.5
					c0-92.5,75-167.5,167.5-167.5S123.1,269.7,123.1,362.2z"/>
				<path id="path43" fill="#B3B5B8" d="M122.8,362.1c0,92.2-74.8,167-167,167c-92.2,0-167-74.8-167-167c0-92.2,74.7-167,167-167
					C48,195.1,122.8,269.9,122.8,362.1z"/>
				<path id="path45" fill="#B4B6B8" d="M122.5,362c0,91.9-74.5,166.5-166.5,166.5S-210.5,453.9-210.5,362
					c0-92,74.5-166.5,166.5-166.5S122.5,270,122.5,362z"/>
				<path id="path47" fill="#B5B7B9" d="M122.1,361.9c0,91.7-74.3,166-166,166c-91.7,0-166-74.3-166-166c0-91.7,74.3-166,166-166
					C47.8,195.9,122.1,270.2,122.1,361.9z"/>
				<path id="path49" fill="#B6B8BA" d="M121.8,361.8c0,91.4-74.1,165.5-165.5,165.5s-165.5-74.1-165.5-165.5
					c0-91.4,74.1-165.5,165.5-165.5S121.8,270.4,121.8,361.8z"/>
				<path id="path51" fill="#B7B9BB" d="M121.5,361.7c0,91.1-73.9,165-165,165c-91.1,0-165-73.9-165-165c0-91.1,73.9-165,165-165
					C47.6,196.7,121.5,270.6,121.5,361.7z"/>
				<path id="path53" fill="#B7B9BC" d="M121.2,361.6c0,90.8-73.6,164.5-164.5,164.5c-90.9,0-164.5-73.6-164.5-164.5
					c0-90.9,73.6-164.5,164.5-164.5C47.5,197.1,121.2,270.7,121.2,361.6z"/>
				<path id="path55" fill="#B7B9BC" d="M120.9,361.5c0,90.6-73.4,164-164,164c-90.6,0-164-73.4-164-164c0-90.6,73.4-164,164-164
					C47.4,197.5,120.9,270.9,120.9,361.5z"/>
				<path id="path57" fill="#B8BABC" d="M120.8,361.4c0,90.4-73.3,163.6-163.6,163.6c-90.4,0-163.6-73.3-163.6-163.6
					c0-90.4,73.3-163.7,163.6-163.7C47.5,197.8,120.8,271,120.8,361.4z"/>
				<path id="path59" fill="#B9BBBD" d="M120.6,361.3c0,90.2-73.1,163.3-163.3,163.3c-90.2,0-163.3-73.1-163.3-163.3
					c0-90.2,73.1-163.3,163.3-163.3C47.5,198,120.6,271.1,120.6,361.3z"/>
				<path id="path61" fill="#BABCBE" d="M120.5,361.2c0,90-72.9,162.9-162.9,162.9c-90,0-162.9-72.9-162.9-162.9
					c0-90,72.9-163,162.9-163C47.6,198.3,120.5,271.2,120.5,361.2z"/>
				<path id="path63" fill="#BBBDBF" d="M120.4,361.1c0,89.8-72.8,162.6-162.6,162.6c-89.8,0-162.6-72.8-162.6-162.6
					c0-89.8,72.8-162.6,162.6-162.6C47.6,198.5,120.4,271.3,120.4,361.1z"/>
				<path id="path65" fill="#BCBDC0" d="M120.3,361.1c0,89.6-72.6,162.2-162.2,162.2c-89.6,0-162.2-72.6-162.2-162.2
					c0-89.6,72.6-162.3,162.2-162.3C47.7,198.8,120.3,271.4,120.3,361.1z"/>
				<path id="path67" fill="#BCBEC0" d="M120.2,361c0,89.4-72.5,161.9-161.9,161.9c-89.4,0-161.9-72.5-161.9-161.9
					c0-89.4,72.5-161.9,161.9-161.9C47.7,199.1,120.2,271.5,120.2,361z"/>
				<path id="path69" fill="#BDBFC1" d="M120.1,360.9c0,89.2-72.3,161.5-161.5,161.5c-89.2,0-161.5-72.3-161.5-161.5
					c0-89.2,72.3-161.6,161.5-161.6C47.8,199.3,120.1,271.7,120.1,360.9z"/>
				<path id="path71" fill="#BEC0C2" d="M120,360.8c0,89-72.2,161.2-161.2,161.2c-89,0-161.2-72.2-161.2-161.2
					c0-89,72.2-161.2,161.2-161.2C47.8,199.6,120,271.8,120,360.8z"/>
				<path id="path73" fill="#BFC1C3" d="M119.8,360.7c0,88.8-72,160.8-160.8,160.8c-88.8,0-160.8-72-160.8-160.8
					c0-88.8,72-160.8,160.8-160.8C47.8,199.9,119.8,271.9,119.8,360.7z"/>
				<path id="path75" fill="#C0C2C4" d="M119.7,360.6c0,88.6-71.8,160.5-160.5,160.5c-88.6,0-160.5-71.8-160.5-160.5
					c0-88.6,71.8-160.5,160.5-160.5C47.9,200.1,119.7,272,119.7,360.6z"/>
				<path id="path77" fill="#C1C2C4" d="M119.6,360.5c0,88.4-71.7,160.1-160.1,160.1c-88.4,0-160.1-71.7-160.1-160.1
					c0-88.5,71.7-160.1,160.1-160.1C47.9,200.4,119.6,272.1,119.6,360.5z"/>
				<path id="path79" fill="#C1C3C5" d="M119.5,360.4c0,88.2-71.5,159.8-159.8,159.8c-88.3,0-159.8-71.5-159.8-159.8
					c0-88.3,71.5-159.8,159.8-159.8C48,200.7,119.5,272.2,119.5,360.4z"/>
				<path id="path81" fill="#C2C4C6" d="M119.4,360.4c0,88-71.4,159.4-159.4,159.4c-88.1,0-159.4-71.4-159.4-159.4
					c0-88.1,71.4-159.4,159.4-159.4C48,200.9,119.4,272.3,119.4,360.4z"/>
				<path id="path83" fill="#C3C5C7" d="M119.3,360.3c0,87.9-71.2,159.1-159.1,159.1c-87.9,0-159.1-71.2-159.1-159.1
					c0-87.9,71.2-159.1,159.1-159.1C48.1,201.2,119.3,272.4,119.3,360.3z"/>
				<path id="path85" fill="#C4C6C8" d="M119.2,360.2c0,87.7-71.1,158.7-158.7,158.7c-87.7,0-158.7-71.1-158.7-158.7
					c0-87.7,71.1-158.7,158.7-158.7C48.1,201.4,119.2,272.5,119.2,360.2z"/>
				<path id="path87" fill="#C5C6C8" d="M119.1,360.1c0,87.5-70.9,158.4-158.4,158.4c-87.5,0-158.4-70.9-158.4-158.4
					c0-87.5,70.9-158.4,158.4-158.4C48.2,201.7,119.1,272.6,119.1,360.1z"/>
				<path id="path89" fill="#C5C7C9" d="M119,360c0,87.3-70.8,158-158,158c-87.3,0-158-70.7-158-158c0-87.3,70.7-158,158-158
					C48.2,202,119,272.7,119,360z"/>
				<path id="path91" fill="#C6C8CA" d="M118.8,359.9c0,87.1-70.6,157.7-157.7,157.7c-87.1,0-157.7-70.6-157.7-157.7
					c0-87.1,70.6-157.7,157.7-157.7C48.3,202.2,118.8,272.8,118.8,359.9z"/>
				<path id="path93" fill="#C7C9CB" d="M118.7,359.8c0,86.9-70.4,157.3-157.3,157.3c-86.9,0-157.3-70.4-157.3-157.3
					c0-86.9,70.4-157.3,157.3-157.3C48.3,202.5,118.7,272.9,118.7,359.8z"/>
				<path id="path95" fill="#C8CACC" d="M118.6,359.7c0,86.7-70.3,157-157,157c-86.7,0-157-70.3-157-157c0-86.7,70.3-157,157-157
					C48.3,202.8,118.6,273,118.6,359.7z"/>
				<path id="path97" fill="#C9CBCC" d="M118.5,359.7c0,86.5-70.1,156.6-156.6,156.6c-86.5,0-156.6-70.1-156.6-156.6
					c0-86.5,70.1-156.6,156.6-156.6C48.4,203,118.5,273.1,118.5,359.7z"/>
				<path id="path99" fill="#CACBCD" d="M118.4,359.6c0,86.3-70,156.3-156.3,156.3c-86.3,0-156.3-70-156.3-156.3
					c0-86.3,70-156.3,156.3-156.3C48.4,203.3,118.4,273.2,118.4,359.6z"/>
				<path id="path101" fill="#CBCCCE" d="M118.3,359.5c0,86.1-69.8,155.9-155.9,155.9c-86.1,0-155.9-69.8-155.9-155.9
					c0-86.1,69.8-155.9,155.9-155.9C48.5,203.6,118.3,273.4,118.3,359.5z"/>
				<path id="path103" fill="#CBCDCF" d="M118.2,359.4c0,85.9-69.7,155.6-155.6,155.6c-85.9,0-155.6-69.6-155.6-155.6
					c0-85.9,69.6-155.6,155.6-155.6C48.5,203.8,118.2,273.5,118.2,359.4z"/>
				<path id="path105" fill="#CCCED0" d="M118.1,359.3c0,85.7-69.5,155.2-155.2,155.2c-85.7,0-155.2-69.5-155.2-155.2
					c0-85.7,69.5-155.2,155.2-155.2C48.6,204.1,118.1,273.6,118.1,359.3z"/>
				<path id="path107" fill="#CDCFD0" d="M117.9,359.2c0,85.5-69.3,154.8-154.9,154.8c-85.5,0-154.9-69.3-154.9-154.8
					c0-85.5,69.3-154.9,154.9-154.9C48.6,204.3,117.9,273.7,117.9,359.2z"/>
				<path id="path109" fill="#CECFD1" d="M117.8,359.1c0,85.3-69.2,154.5-154.5,154.5c-85.3,0-154.5-69.2-154.5-154.5
					c0-85.4,69.2-154.5,154.5-154.5C48.6,204.6,117.8,273.8,117.8,359.1z"/>
				<path id="path111" fill="#CFD0D2" d="M117.7,359c0,85.1-69,154.1-154.1,154.1c-85.1,0-154.2-69-154.2-154.1
					c0-85.2,69-154.2,154.2-154.2C48.7,204.9,117.7,273.9,117.7,359z"/>
				<path id="path113" fill="#D0D1D3" d="M117.6,359c0,84.9-68.9,153.8-153.8,153.8c-85,0-153.8-68.9-153.8-153.8
					c0-85,68.9-153.8,153.8-153.8C48.7,205.1,117.6,274,117.6,359z"/>
				<path id="path115" fill="#D0D2D3" d="M117.5,358.9c0,84.7-68.7,153.4-153.4,153.4c-84.8,0-153.5-68.7-153.5-153.4
					c0-84.8,68.7-153.5,153.5-153.5C48.8,205.4,117.5,274.1,117.5,358.9z"/>
				<path id="path117" fill="#D1D3D4" d="M117.4,358.8c0,84.6-68.5,153.1-153.1,153.1c-84.6,0-153.1-68.5-153.1-153.1
					c0-84.6,68.5-153.1,153.1-153.1C48.8,205.7,117.4,274.2,117.4,358.8z"/>
				<path id="path119" fill="#D2D3D5" d="M117.1,358.7c0,84.3-68.3,152.6-152.6,152.6c-84.3,0-152.6-68.3-152.6-152.6
					c0-84.3,68.3-152.6,152.6-152.6C48.8,206,117.1,274.4,117.1,358.7z"/>
				<path id="path121" fill="#D3D4D6" d="M116.9,358.5c0,84-68.1,152.1-152.1,152.1c-84,0-152.1-68.1-152.1-152.1
					c0-84,68.1-152.1,152.1-152.1C48.8,206.4,116.9,274.5,116.9,358.5z"/>
				<path id="path123" fill="#D4D5D7" d="M116.7,358.4c0,83.7-67.9,151.6-151.6,151.6c-83.7,0-151.6-67.9-151.6-151.6
					c0-83.8,67.9-151.6,151.6-151.6C48.8,206.8,116.7,274.7,116.7,358.4z"/>
				<path id="path125" fill="#D5D6D7" d="M116.4,358.3c0,83.5-67.7,151.1-151.1,151.1c-83.5,0-151.1-67.7-151.1-151.1
					c0-83.5,67.7-151.1,151.1-151.1C48.8,207.1,116.4,274.8,116.4,358.3z"/>
				<path id="path127" fill="#D5D7D8" d="M116.2,358.2c0,83.2-67.5,150.6-150.6,150.6c-83.2,0-150.6-67.4-150.6-150.6
					c0-83.2,67.4-150.6,150.6-150.6C48.8,207.5,116.2,275,116.2,358.2z"/>
				<path id="path129" fill="#D6D7D9" d="M116,358c0,82.9-67.2,150.1-150.1,150.1c-82.9,0-150.1-67.2-150.1-150.1
					c0-82.9,67.2-150.2,150.1-150.2C48.7,207.9,116,275.1,116,358z"/>
				<path id="path131" fill="#D7D8DA" d="M115.7,357.9c0,82.6-67,149.6-149.6,149.6c-82.7,0-149.6-67-149.6-149.6
					c0-82.7,67-149.7,149.6-149.7C48.7,208.3,115.7,275.3,115.7,357.9z"/>
				<path id="path133" fill="#D8D9DB" d="M115.5,357.8c0,82.4-66.8,149.1-149.1,149.1c-82.4,0-149.2-66.8-149.2-149.1
					c0-82.4,66.8-149.2,149.2-149.2C48.7,208.6,115.5,275.4,115.5,357.8z"/>
				<path id="path135" fill="#D8D9DB" d="M115.3,357.7c0,82.1-66.6,148.7-148.7,148.7c-82.1,0-148.7-66.6-148.7-148.7
					c0-82.1,66.6-148.7,148.7-148.7C48.7,209,115.3,275.6,115.3,357.7z"/>
				<path id="path137" fill="#D9DADB" d="M115,357.6c0,81.8-66.3,148.2-148.2,148.2s-148.2-66.3-148.2-148.2
					c0-81.9,66.3-148.2,148.2-148.2C48.7,209.4,115,275.7,115,357.6z"/>
				<path id="path139" fill="#D9DBDC" d="M114.8,357.4c0,81.6-66.1,147.7-147.7,147.7c-81.6,0-147.7-66.1-147.7-147.7
					c0-81.6,66.1-147.7,147.7-147.7C48.7,209.7,114.8,275.9,114.8,357.4z"/>
				<path id="path141" fill="#DADCDD" d="M114.6,357.3c0,81.3-65.9,147.2-147.2,147.2c-81.3,0-147.2-65.9-147.2-147.2
					c0-81.3,65.9-147.2,147.2-147.2C48.7,210.1,114.6,276,114.6,357.3z"/>
				<path id="path143" fill="#DBDCDE" d="M114.3,357.2c0,81-65.7,146.7-146.7,146.7S-179,438.2-179,357.2
					c0-81,65.7-146.7,146.7-146.7C48.7,210.5,114.3,276.2,114.3,357.2z"/>
				<path id="path145" fill="#DCDDDE" d="M114.1,357.1c0,80.7-65.4,146.2-146.2,146.2c-80.7,0-146.2-65.4-146.2-146.2
					c0-80.8,65.4-146.2,146.2-146.2C48.6,210.9,114.1,276.3,114.1,357.1z"/>
				<path id="path147" fill="#DDDEDF" d="M113.9,356.9c0,80.5-65.2,145.7-145.7,145.7c-80.5,0-145.7-65.2-145.7-145.7
					c0-80.5,65.2-145.7,145.7-145.7C48.6,211.2,113.9,276.5,113.9,356.9z"/>
				<path id="path149" fill="#DEDFE0" d="M113.6,356.8c0,80.2-65,145.2-145.2,145.2c-80.2,0-145.2-65-145.2-145.2
					c0-80.2,65-145.2,145.2-145.2C48.6,211.6,113.6,276.6,113.6,356.8z"/>
				<path id="path151" fill="#DEE0E1" d="M113.4,356.7c0,79.9-64.8,144.7-144.7,144.7c-79.9,0-144.7-64.8-144.7-144.7
					c0-79.9,64.8-144.7,144.7-144.7C48.6,212,113.4,276.8,113.4,356.7z"/>
				<path id="path153" fill="#DFE0E2" d="M113.2,356.6c0,79.6-64.6,144.2-144.2,144.2c-79.6,0-144.2-64.6-144.2-144.2
					c0-79.7,64.6-144.2,144.2-144.2C48.6,212.3,113.2,276.9,113.2,356.6z"/>
				<path id="path155" fill="#E0E1E2" d="M112.9,356.5c0,79.4-64.3,143.7-143.7,143.7s-143.7-64.3-143.7-143.7
					c0-79.4,64.3-143.7,143.7-143.7C48.6,212.7,112.9,277.1,112.9,356.5z"/>
				<path id="path157" fill="#E1E2E3" d="M112.6,356.3c0,78.9-64,142.9-142.9,142.9c-78.9,0-142.9-64-142.9-142.9
					c0-79,64-142.9,142.9-142.9S112.6,277.3,112.6,356.3z"/>
				<path id="path159" fill="#E2E3E4" d="M112.3,356.1c0,78.5-63.6,142.1-142.1,142.1c-78.5,0-142.1-63.6-142.1-142.1
					c0-78.5,63.6-142.1,142.1-142.1C48.7,213.9,112.3,277.6,112.3,356.1z"/>
				<path id="path161" fill="#E3E4E5" d="M112,355.9c0,78-63.3,141.3-141.3,141.3S-170.6,434-170.6,355.9
					c0-78.1,63.3-141.3,141.3-141.3S112,277.8,112,355.9z"/>
				<path id="path163" fill="#E3E4E5" d="M111.7,355.7c0,77.6-62.9,140.5-140.5,140.5s-140.5-62.9-140.5-140.5
					c0-77.6,62.9-140.5,140.5-140.5S111.7,278.1,111.7,355.7z"/>
				<path id="path165" fill="#E4E5E6" d="M111.4,355.5c0,77.2-62.6,139.7-139.7,139.7c-77.2,0-139.7-62.6-139.7-139.7
					c0-77.2,62.6-139.7,139.7-139.7C48.9,215.8,111.4,278.4,111.4,355.5z"/>
				<path id="path167" fill="#E5E6E7" d="M111.1,355.4c0,76.7-62.2,138.9-138.9,138.9s-138.9-62.2-138.9-138.9
					c0-76.7,62.2-138.9,138.9-138.9C48.9,216.4,111.1,278.6,111.1,355.4z"/>
				<path id="path169" fill="#E6E7E8" d="M110.8,355.2c0,76.3-61.8,138.1-138.1,138.1s-138.1-61.8-138.1-138.1
					c0-76.3,61.8-138.1,138.1-138.1C49,217,110.8,278.9,110.8,355.2z"/>
				<path id="path171" fill="#E7E8E9" d="M110.5,355c0,75.8-61.5,137.3-137.3,137.3S-164.1,430.8-164.1,355
					c0-75.9,61.5-137.3,137.3-137.3C49,217.6,110.5,279.1,110.5,355z"/>
				<path id="path173" fill="#E7E8E9" d="M110.2,354.8c0,75.4-61.1,136.5-136.5,136.5s-136.5-61.1-136.5-136.5
					c0-75.4,61.1-136.5,136.5-136.5C49.1,218.3,110.2,279.4,110.2,354.8z"/>
				<path id="path175" fill="#E8E8E9" d="M109.9,354.6c0,75-60.8,135.7-135.7,135.7s-135.7-60.8-135.7-135.7
					c0-75,60.8-135.7,135.7-135.7C49.1,218.9,109.9,279.6,109.9,354.6z"/>
				<path id="path177" fill="#E9E9EA" d="M109.6,354.4c0,74.5-60.4,134.9-134.9,134.9c-74.5,0-134.9-60.4-134.9-134.9
					c0-74.5,60.4-134.9,134.9-134.9C49.2,219.5,109.6,279.9,109.6,354.4z"/>
				<path id="path179" fill="#E9EAEB" d="M109.3,354.3c0,74.1-60,134.1-134.1,134.1c-74.1,0-134.1-60.1-134.1-134.1
					c0-74.1,60-134.1,134.1-134.1C49.2,220.1,109.3,280.2,109.3,354.3z"/>
				<path id="path181" fill="#EAEBEC" d="M109,354.1c0,73.6-59.7,133.3-133.3,133.3c-73.6,0-133.3-59.7-133.3-133.3
					c0-73.6,59.7-133.3,133.3-133.3C49.3,220.7,109,280.4,109,354.1z"/>
				<path id="path183" fill="#EBECED" d="M108.7,353.9c0,73.2-59.3,132.5-132.5,132.5c-73.2,0-132.5-59.3-132.5-132.5
					c0-73.2,59.3-132.5,132.5-132.5C49.3,221.4,108.7,280.7,108.7,353.9z"/>
				<path id="path185" fill="#ECEDED" d="M108.4,353.7c0,72.7-59,131.7-131.7,131.7c-72.7,0-131.7-59-131.7-131.7
					c0-72.8,59-131.7,131.7-131.7C49.4,222,108.4,280.9,108.4,353.7z"/>
				<path id="path187" fill="#EDEDEE" d="M108.1,353.5c0,72.3-58.6,130.9-130.9,130.9c-72.3,0-130.9-58.6-130.9-130.9
					c0-72.3,58.6-130.9,130.9-130.9C49.4,222.6,108.1,281.2,108.1,353.5z"/>
				<path id="path189" fill="#EEEEEF" d="M107.2,353.2c0,71.4-57.9,129.4-129.4,129.4c-71.4,0-129.4-57.9-129.4-129.4
					c0-71.5,57.9-129.4,129.4-129.4C49.3,223.8,107.2,281.7,107.2,353.2z"/>
				<path id="path191" fill="#EEEFF0" d="M106.3,352.9c0,70.6-57.2,127.8-127.8,127.8c-70.6,0-127.8-57.2-127.8-127.8
					c0-70.6,57.2-127.8,127.8-127.8C49.1,225.1,106.3,282.3,106.3,352.9z"/>
				<path id="path193" fill="#EFF0F0" d="M105.4,352.6c0,69.7-56.5,126.3-126.3,126.3s-126.3-56.5-126.3-126.3
					c0-69.8,56.5-126.3,126.3-126.3C48.9,226.3,105.4,282.9,105.4,352.6z"/>
				<path id="path195" fill="#F0F1F1" d="M104.6,352.3c0,68.9-55.8,124.7-124.7,124.7s-124.7-55.8-124.7-124.7
					c0-68.9,55.8-124.7,124.7-124.7C48.7,227.6,104.6,283.4,104.6,352.3z"/>
				<path id="path197" fill="#F1F1F2" d="M103.7,352c0,68-55.1,123.2-123.2,123.2c-68,0-123.2-55.2-123.2-123.2
					c0-68.1,55.2-123.2,123.2-123.2C48.5,228.8,103.7,284,103.7,352z"/>
				<path id="path199" fill="#F2F2F3" d="M102.8,351.7c0,67.2-54.5,121.6-121.6,121.6c-67.2,0-121.6-54.5-121.6-121.6
					C-140.4,284.5-86,230-18.8,230C48.4,230,102.8,284.5,102.8,351.7z"/>
				<path id="path201" fill="#F3F3F3" d="M101.9,351.4c0,66.3-53.8,120.1-120.1,120.1c-66.3,0-120.1-53.8-120.1-120.1
					c0-66.3,53.8-120.1,120.1-120.1C48.2,231.3,101.9,285.1,101.9,351.4z"/>
				<path id="path203" fill="#F3F4F4" d="M101.1,351.1c0,65.5-53.1,118.5-118.5,118.5S-136,416.6-136,351.1
					c0-65.5,53.1-118.6,118.5-118.6C48,232.5,101.1,285.6,101.1,351.1z"/>
				<path id="path205" fill="#F3F4F4" d="M100.2,350.8c0,64.6-52.4,117-117,117s-117-52.4-117-117c0-64.6,52.4-117,117-117
					S100.2,286.2,100.2,350.8z"/>
				<path id="path207" fill="#F4F5F5" d="M99.3,350.5c0,63.8-51.7,115.4-115.4,115.4s-115.4-51.7-115.4-115.4
					c0-63.8,51.7-115.5,115.4-115.5C47.7,235,99.3,286.7,99.3,350.5z"/>
				<path id="path209" fill="#F5F6F6" d="M98.5,350.2c0,62.9-51,113.9-113.9,113.9s-113.9-51-113.9-113.9
					c0-62.9,51-113.9,113.9-113.9C47.5,236.3,98.5,287.3,98.5,350.2z"/>
				<path id="path211" fill="#F6F6F7" d="M97.4,349.7c0,61.7-50,111.7-111.7,111.7c-61.7,0-111.7-50-111.7-111.7
					C-126,288-76,238-14.3,238C47.4,238,97.4,288,97.4,349.7z"/>
				<path id="path213" fill="#F7F7F8" d="M96.3,349.3c0,60.5-49,109.5-109.5,109.5c-60.5,0-109.5-49-109.5-109.5
					c0-60.5,49-109.5,109.5-109.5C47.3,239.8,96.3,288.8,96.3,349.3z"/>
				<path id="path215" fill="#F8F8F9" d="M95.2,348.9c0,59.3-48,107.3-107.3,107.3c-59.3,0-107.3-48.1-107.3-107.3
					c0-59.3,48.1-107.3,107.3-107.3C47.2,241.5,95.2,289.6,95.2,348.9z"/>
				<path id="path217" fill="#F9F9FA" d="M94.1,348.4c0,58.1-47.1,105.1-105.1,105.1c-58.1,0-105.1-47.1-105.1-105.1
					c0-58.1,47.1-105.2,105.1-105.2C47.1,243.3,94.1,290.4,94.1,348.4z"/>
				<path id="path219" fill="#FAFBFB" d="M93,348C93,404.9,46.9,451-9.9,451c-56.9,0-102.9-46.1-102.9-102.9
					c0-56.9,46.1-103,102.9-103C46.9,245,93,291.1,93,348z"/>
				<path id="path221" fill="#FAFBFB" d="M92,347.6c0,55.7-45.1,100.8-100.8,100.8s-100.8-45.1-100.8-100.8
					c0-55.7,45.1-100.8,100.8-100.8C46.8,246.8,92,291.9,92,347.6z"/>
				<path id="path223" fill="#FCFCFC" d="M90.5,347.2c0,54.5-44.2,98.7-98.7,98.7c-54.5,0-98.7-44.2-98.7-98.7
					c0-54.5,44.2-98.7,98.7-98.7C46.3,248.5,90.5,292.7,90.5,347.2z"/>
				<path id="path225" fill="#FDFDFD" d="M89,346.9c0,53.4-43.3,96.7-96.7,96.7c-53.4,0-96.6-43.3-96.6-96.7
					c0-53.4,43.3-96.7,96.6-96.7C45.7,250.2,89,293.5,89,346.9z"/>
				<path id="path227" fill="#FDFDFD" d="M87.5,346.6c0,52.2-42.4,94.6-94.6,94.6c-52.2,0-94.6-42.4-94.6-94.6
					c0-52.3,42.4-94.6,94.6-94.6C45.2,252,87.5,294.3,87.5,346.6z"/>
				<path id="path229" fill="#FFFFFF" d="M86,346.2c0,51.1-41.4,92.5-92.5,92.5s-92.5-41.4-92.5-92.5c0-51.1,41.4-92.6,92.5-92.6
					C44.6,253.7,86,295.1,86,346.2z"/>
			</g>
		</g>
	</g>
	<g id="g5">
		<path id="path7" d="M54.8,700.6L34.8,680c-0.6-0.5-0.8-1.5-0.3-2.2c0,0,15.2-25.6,15.2-25.6c0.3-0.7,0.4-1.2,0.4-1.5
			c0-1.6-1.3-2.9-2.9-2.9H36.1c-1.1,0-2.1,0.6-2.7,1.5l-9.6,16.6c-0.5,0.7-1.4,0.8-2.1,0.3c0,0-15.6-16-15.6-16
			c-0.2-0.3-0.4-0.6-0.4-1c0-0.4,0.2-0.8,0.5-1.1l0.2-0.2c8.8-5.1,18.8-12.6,18.8-25.9c0-15.2-10.9-25.4-27.2-25.4
			c-15.9,0-28,10.7-28,26.6c0,7,2.9,14,9,21.3l0.1,0.2c0.2,0.3,0.4,0.7,0.3,1.1c-0.1,0.4-0.3,0.8-0.6,1
			c-13.2,7.5-19.9,17.5-19.9,29.7c0,20.7,17.3,31.5,34.4,31.5c11.8,0,20.9-4.5,29.7-14.6c0,0,0.2-0.2,0.2-0.2
			c0.5-0.5,1.5-0.5,2.1,0.1l10.7,11.1c0,0,0.3,0.3,0.3,0.3c0.6,0.6,1.3,0.9,2.1,0.9h14.1c1.6,0,2.9-1.3,2.9-2.9
			C55.6,701.9,55.3,701.1,54.8,700.6L54.8,700.6z M-1.7,612c6.7,0,10.3,4.6,10.3,10.2c0,6.6-5.9,10.4-13,14.4l-0.4,0.2
			c-0.6,0.3-1.3,0.2-1.7-0.3c0,0-0.2-0.2-0.2-0.2c-3.1-3.4-6.7-8.7-6.7-12.6C-13.3,617.2-8.6,612-1.7,612z M12.6,682.3L12.6,682.3
			c-5.2,6.2-10.9,10.3-19.1,10.3c-9.8,0-17.4-7-17.4-16c0-7.9,3.4-12.6,13.4-18.7c0.7-0.4,1.5-0.3,2,0.2l20.9,21.9
			c0.4,0.4,0.6,0.7,0.6,1.1c0,0,0,0,0,0C13,681.6,12.9,682,12.6,682.3z"/>
		<path id="path9" d="M-54.3,692.4c0,0-0.6,0-0.6,0c-16,0-24.1-8.5-24.1-25.2V618c0-0.8,0.7-1.5,1.6-1.5h25.1c1.6,0,3-1.4,3-3v-10.9
			c0-1.7-1.4-3-3-3h-25c-0.9,0-1.6-0.7-1.6-1.6v-22.6c0.1-1.6-1.2-3-2.8-3.1h-0.3c0,0-12.8,1-12.8,1c-1.6,0-2.9,1.3-2.9,3V598
			c0,0.9-0.7,1.5-1.6,1.5h-15.8c-1.6,0-3,1.3-3,3l0,11c0,0.8,0.4,1.6,0.9,2.1c0.6,0.6,1.3,0.9,2.1,0.9h15.7c0.9,0,1.6,0.7,1.6,1.5
			l0,52.5c0,28.2,21.2,38.3,39.9,38.3c0,0,2.2,0,3.9-0.1c1.7-0.2,2.9-1.3,2.9-3v-10.3C-51.3,693.7-52.6,692.4-54.3,692.4z"/>
		<path id="path11" d="M-126,701.3c-1-2.9-1.3-6-1.4-7.4c-0.1-1-0.1-5.2-0.1-5.2v-52c0-27.5-19.4-37.3-37.6-37.3
			c-14.4,0-27.5,3.8-36,9.4c-0.7,0.5-1.2,1.2-1.3,1.9c-0.2,0.8,0,1.5,0.4,2.2c0.1,0.1,6.7,9.1,6.7,9.1c0.9,1.3,2.8,1.6,4.1,0.7
			c0,0,0.9-0.6,0.9-0.6c6.6-4.1,14.4-6.5,22.4-6.5c22.5,0,21.8,17.6,21.8,19.9c0,1.2-0.7,1.5-1.5,1.4c0,0-3.5-0.1-3.5-0.1
			c-17.4-0.6-61.6,5.3-61.6,40.3c0,20.6,17.2,31.1,33.1,31.1c15.5,0,28-6.2,34.2-13.7l0.1-0.1c0.1-0.1,0.2-0.2,0.3-0.2
			c0.2,0,0.4,0.2,0.4,0.4c0,1,0,3.2,0.2,5c0.1,1.7,0.4,3,0.7,3.9c0.2,0.8,0.8,1.7,1.6,2c0.4,0.2,0.8,0.3,1.2,0.3c0,0,12.4,0,12.4,0
			c1.6,0,2.9-1.3,2.9-2.9C-125.6,702.6-126,701.3-126,701.3z M-145.4,660.6c-2.5,18-11.4,28.3-27.7,31c-11.5,1.9-21.9-2.8-22.5-15.2
			c-0.6-13.5,15.1-24.9,44.1-23.6c0,0,2.1,0.1,3.6,0.3c1.3,0.1,2.1,0.5,2.5,1.3C-144.9,655.1-144.8,656.5-145.4,660.6z"/>
		<path id="path13" d="M114.6,692.4c0,0-0.6,0-0.6,0c-16,0-24.1-8.5-24.1-25.2V618c0-0.8,0.7-1.5,1.6-1.5h25.1c1.7,0,3-1.4,3-3
			v-10.9c0-1.7-1.4-3-3-3h-25c-0.9,0-1.7-0.7-1.7-1.6v-22.6c0.1-1.6-1.2-3-2.9-3.1h-0.3c0,0-12.8,1-12.8,1c-1.6,0-2.9,1.3-2.9,3V598
			c0,0.9-0.7,1.5-1.6,1.5H53.6c-1.7,0-3,1.3-3,3l0,11c0,0.8,0.4,1.6,0.9,2.1c0.6,0.6,1.3,0.9,2.1,0.9h15.7c0.8,0,1.6,0.7,1.6,1.5
			v52.5c0,28.2,21.2,38.3,39.8,38.3c0,0,2.2,0,3.9-0.1c1.7-0.2,2.9-1.3,2.9-3l0-10.3C117.6,693.7,116.2,692.4,114.6,692.4z"/>
	</g>
	<path id="path21" fill="#32A5DD" d="M-199.6,306.9c0-7.1,1-12.1,2.9-16.6c3.2-6.6,6.9-13,10.9-19.1c-1,1.7-1.7,3.7-1.7,6.1
		c0,15.5,37.9,35.6,89.6,42.2c17.5,2.2,63.9,8.6,99.8,5.6c72.5-6,88.6-31.3,88.6-47.8c0-4.5-2.4-11.1-4.9-14.9
		c3.3,4.4,6.4,8.9,9.3,13.6c5.5,9.7,4.8,13.5,4.8,15.2c0,33.6-62.5,55.5-104.4,67C-112,387.3-199.6,347.4-199.6,306.9z
		 M-165.3,259.8c0,15.2,22.1,39.4,85.9,39.4c37.9,0,68.5-7.3,91.5-15c37-12.3,55.3-27.3,54.7-38.5c-0.1-1.7-0.8-4.6-2.8-6.8
		c-8.2-7.3-17.2-13.9-26.7-19.5c6.3,3.7,9.9,8,9.9,12.7c0,16.7-40.8,32-94,33.4c-53.3,1.4-97.4-11.7-98.6-28.4
		c-0.4-5.5,3.6-10.9,11.1-15.7c-5.8,3.6-11.3,7.5-16.5,11.7C-165.6,245.2-165.3,258.2-165.3,259.8z M-26.7,455.4
		c-32.4,1.2-89.5-10-125.5-24.7c-28.9-11.8-57.6-34.8-60.6-56.8c0.3,5.3,0.9,10.5,1.8,15.6c17.7,96.8,139.6,91.2,160.6,88.9
		c153.3-17,166.5-82.5,168.5-95.4c0.3-2.7,0.6-5.4,0.8-8.1C116.2,392.2,90.3,451.2-26.7,455.4z M-143.3,477.5
		c-27.5-11.4-46.5-30.3-54.2-44.1c7,14.9,16.2,28.7,27.2,40.8c35.8,33.7,91,37.8,116.3,37.8c107.2,0,145.4-56.3,154.1-71.4
		c1.6-3,3.1-6.1,4.5-9.2C87.6,466.3-0.3,536.5-143.3,477.5z M116.2,336.8c0-2.7-0.3-8-1.6-13.5c-0.9-3.7-1.9-7.3-3.1-10.9
		c2,6.8,1.7,11.5,1.7,13.3c0,8.2-10.2,58.7-111,67.9c-8.7,0.8-72.7,1.8-128.4-12.3c-37-9.4-74.2-27.5-81.2-52.6
		c-1.1-3.9-0.6-7.5,0.3-10.9l0,0c-2.8,10.1-4.7,20.5-5.6,31.3c0.6,26.5,23.6,57.3,65.7,70.6c48.1,15.1,77.6,15.6,147.5,0.1
		C117.4,393.6,116.2,342.5,116.2,336.8z"/>
	<path id="path23" fill="#0096D7" d="M-4.6,358c2.8-0.8,5.8-1.6,8.8-2.5c-12.9-2.8-26.6-4.3-40.8-4.3c-27,0-52.1,5.4-73.3,14.6
		C-79.5,370.2-43.4,368.6-4.6,358z M-18.4,292.6c11.3-2.5,21.5-5.4,30.5-8.4c4.9-1.6,9.5-3.3,13.8-5.1c-12.7-2.3-24-3.8-31.6-4.5
		c-29-2.6-72.1,5.6-83.3,7.9c-3.4,0.7-19.2,4-38.4,10.7c4.5,1.3,9.5,2.5,15,3.4C-95,291.7-77,289-59.9,289
		C-48.6,289-34.1,290.2-18.4,292.6z M-15,393.9c-10.6-0.1-24.9-0.5-41.2-1.8c-28.7,3.4-53.2,16.2-67.1,34c4.6,1.1,9.1,2,13.6,2.7
		c14.7-16.1,39.4-26.7,67.5-26.7c20.5,0,39.2,5.6,53.6,14.9c5.6-1.4,10.9-2.9,15.9-4.4C15.9,403.9,1.3,397.3-15,393.9z M79.3,322.9
		c8.4-6.2,14.8-13,18.1-20.6c-4-2.5-8.6-4.8-13.5-6.9c-4.9,6.3-12.9,12.5-25.4,17.7C65.8,316.1,72.8,319.4,79.3,322.9z M42.5,342.5
		c8.8-3.6,17.3-7.6,25-11.9c-8-4.2-17.2-8.1-28-11.4c-10.4,2.6-22.8,4.6-37.5,5.8c-4.4,0.4-8.9,0.6-13.5,0.7
		c10.3,2,20.1,4.6,29.4,7.7C26.9,336.3,35.1,339.4,42.5,342.5z M62.1,380.2c-7.4,3-15.9,5.7-25.5,7.9c7,4.2,13.3,9,18.8,14.3
		c7.9-3.4,14.7-6.9,20.7-10.5C71.8,387.8,67.2,383.9,62.1,380.2z M-155.2,304.7c-13,6.4-25.7,14.3-35.9,24c1.6,2,3.3,3.9,5.3,5.8
		c11.2-9.9,25.2-18.7,40.8-25.9C-148.6,307.4-152,306.1-155.2,304.7z M-113.8,384c-4.1-0.9-8.2-1.8-12.3-2.8
		c-2.6-0.7-5.2-1.4-7.7-2.1c-13.5,9.3-24.2,20.6-31.1,33.1c4.3,2.1,8.8,4.1,13.6,5.8c4-7.1,9.4-13.8,16-19.6
		C-129.1,393-121.9,388.1-113.8,384z M-160.4,452.2c0-7.9,1.4-15.8,4.1-23.3c-4.5-2-8.9-4.3-13.2-6.7c-2.9,7.6-4.4,15.6-4.4,23.9
		c0,1.6,0.1,3.2,0.2,4.8c4.4,3.3,9.1,6.3,13.9,8.9C-160.2,457.3-160.4,454.8-160.4,452.2z M-70,322.7c-11.7-1.2-21.6-2.5-27.8-3.3
		c-4-0.5-8-1.1-11.9-1.8c-22.4,7.1-42,17.8-57.3,30.5c3.1,1.7,6.4,3.4,9.9,4.9C-134.8,336.8-104.3,325.7-70,322.7z M-116.7,487.2
		c-4.6-1.5-9.2-3.1-13.9-4.8c3.8,8.1,9.5,15.4,16.9,21.8c6.1,1.7,12.2,3,18,4.1C-104.6,502.5-111.8,495.4-116.7,487.2z M112.3,314.7
		c-0.2-0.6-0.4-1.1-0.5-1.7c0.1,0.5,0.2,0.9,0.3,1.3C112.2,314.4,112.3,314.5,112.3,314.7z M-190.6,394.2
		c4.1-10.6,10.9-20.5,19.7-29.4c-3-1.5-5.8-3.2-8.6-4.8c-7.8,8.5-13.8,17.7-17.6,27.2C-195.1,389.5-192.9,391.9-190.6,394.2z
		 M85.8,367.4c3.9,3.3,7.3,6.5,10.1,9.7c4.1-3.9,7.4-7.6,10-11.2c-1.9-3.3-4.3-6.7-7-10.1C95.4,359.7,91.1,363.6,85.8,367.4z
		 M-172.2,460.9c1.4,6,3.7,11.9,6.7,17.5c5.9,4.9,12.2,9.1,18.8,12.7c-4.8-6.4-8.5-13.3-10.8-20.6
		C-162.8,467.6-167.7,464.3-172.2,460.9z M21.5,500.6c7.8-2.6,14.9-5.6,21.4-8.8c2.5-3.5,4.6-7.2,6.2-11c-5.4,2.7-11.2,5.2-17.3,7.5
		C29,492.7,25.5,496.8,21.5,500.6z M36.3,446.2c1.5,4,2.5,8.2,2.9,12.4c4.9-1.8,9.4-3.7,13.7-5.7c-0.5-3.8-1.5-7.6-2.9-11.2
		C45.7,443.3,41.1,444.8,36.3,446.2z M65.9,250.7c-7.6-2.6-16.7-4.6-26.9-5.9c-11.9,9.1-35.8,16.4-65.6,19.3
		c18.7,1.9,41.6,5.1,63.4,10.2C53.3,266.4,63,258,65.9,250.7z M-144,241.6c-7.5,3.1-14.2,6.4-19.9,9.6c-1,3.1-1.3,5.6-1.4,7.1
		c7.4-3.8,16.1-7.7,25.9-11.4C-141.4,245.1-142.9,243.4-144,241.6z M-201.5,340.4c-4.3,6-7.6,12.4-9.6,19.5c0.5,2.2,1.2,4.3,2,6.5
		c2.5-7.1,6.6-13.9,12.1-20.5C-198.7,344.1-200.2,342.3-201.5,340.4z M-195.2,418.7c0-4.8,0.5-9.4,1.5-14c-2.4-2.2-4.7-4.5-6.7-6.9
		c-1.5,6.7-1.9,13.5-1.1,20.3c2.2,4.3,4.6,8.3,7.3,12C-194.9,426.3-195.2,422.5-195.2,418.7z M-153.3,280.3
		c17.5-8,39.1-14.3,64.4-17c-8.7-1.1-16.7-2.7-23.8-4.6c-16.6,4.6-32.3,10.1-45.9,16.5C-157.1,276.9-155.4,278.6-153.3,280.3z
		 M96.7,423.4c-0.9-2.5-1.9-4.9-3.1-7.4c-5.3,4.9-11.7,9.7-19.3,14.2c1.2,3.1,2.1,6.2,2.8,9.4C85.1,434.3,91.5,428.8,96.7,423.4z
		 M114.6,388.2c-1.6,3.4-3.6,7.1-6.2,11c0.7,2.4,1.1,4.8,1.4,7c2.7-4.7,4.5-9,5.8-12.7C115.3,391.8,115,390.1,114.6,388.2z
		 M114.7,323.6c-0.4-1.6-0.8-3.2-1.2-4.7c-0.2-0.5-0.5-1.1-0.8-1.6c0.7,4.1,0.5,7.1,0.5,8.4c0,2.7-1.1,9.9-6.1,18.8
		c2.3,2.7,4.3,5.4,6,8.3c3.2-8.2,3.1-14.2,3.1-15.9C116.2,334.1,115.9,329,114.7,323.6z M-123.6,462.7c0-7.3,1.7-14.3,4.9-20.8
		c-4.1-1.1-8.2-2.3-12.1-3.5c-3.1,6.9-4.9,14.2-4.9,21.9c0,3.4,0.3,6.8,1,10.1c4.1,1.3,8.2,2.4,12.3,3.4
		C-123.2,470.1-123.6,466.5-123.6,462.7z M77.5,462.7c-0.4,2.4-1,4.7-1.7,7.1c13.6-12.1,21-23.4,24.2-29.1c0.1-0.2,0.2-0.4,0.3-0.6
		c0-0.4-0.1-0.8-0.1-1.2C95.2,446.2,87.6,454.6,77.5,462.7z M47,230c6.6,2.7,12.7,6.1,18,10.1c-0.3-0.4-0.6-0.8-0.9-1.2
		c-5.3-4.8-11-9.3-17-13.4c-1.5-0.9-3.1-1.8-4.7-2.6C44.8,225.1,46.4,227.5,47,230z M-185.8,271.4c-0.5,0.7-0.9,1.4-1.4,2.1
		c0.2-0.3,0.5-0.6,0.8-0.9C-186.3,272.2-186.1,271.8-185.8,271.4z M86.6,291.4c4.4,2.3,8.5,4.8,12.1,7.5c0.8-2.5,1.2-5.1,1.2-7.8
		c0-1.6,0.7-5.4-4.6-14.8c-2.9-4.7-5.9-9.2-9.2-13.6c0,0-0.1-0.1-0.1-0.1c2.4,3.8,4.8,10.3,4.8,14.7
		C90.6,281.5,89.5,286.4,86.6,291.4z M-176.4,293c-2.1-1.6-3.9-3.2-5.4-4.7c-7.2,5-13.2,10.3-17.7,15.9c0,0.9-0.1,1.8-0.1,2.7
		c0,1.8,0.2,3.6,0.5,5.3C-193.5,306-186,299.4-176.4,293z M-197.4,433.5c3.9,8.2,8.4,16,13.5,23.4c-2.8-4.4-5-9-6.8-13.8
		C-193.5,439.8-195.7,436.6-197.4,433.5z M-207.1,318c-1,3.7-1.9,7.5-2.7,11.3c0.4-1.5,1.1-3.1,2-4.8
		C-207.9,322.3-207.6,320.1-207.1,318z M-211.7,378.8c-0.5-1.6-0.9-3.2-1.1-4.8c0.3,4.1,0.7,8.1,1.2,12.1
		C-211.8,383.6-211.9,381.2-211.7,378.8z"/>
</g>
</svg>
