<?xml version="1.0" encoding="iso-8859-1"?><!-- Generator: Adobe Illustrator 16.0.0, SVG Export Plug-In . SVG Version: 6.00 Build 0) --><!DOCTYPE svg PUBLIC "-//W3C//DTD SVG 1.1//EN" "http://www.w3.org/Graphics/SVG/1.1/DTD/svg11.dtd"><svg version="1.1" id="Layer_1" xmlns:svg="http://www.w3.org/2000/svg" xmlns="http://www.w3.org/2000/svg" xmlns:xlink="http://www.w3.org/1999/xlink" x="0px" y="0px" width="72.945px" height="111.479px" viewBox="-0.004 0.521 72.945 111.479" style="enable-background:new -0.004 0.521 72.945 111.479;" xml:space="preserve"><g id="g3685" transform="matrix(0.9992427,0,0,0.99924,-3.9033418e-3,0.3028104)"><g><defs><path id="SVGID_1_" d="M72.059,36.792c0,19.896-16.131,36.024-36.029,36.024S0.004,56.688,0.004,36.792	c0-19.903,16.128-36.031,36.026-36.031S72.059,16.889,72.059,36.792z"/></defs><clipPath id="SVGID_2_"><use xlink:href="#SVGID_1_" style="overflow:visible;"/></clipPath><g id="g35" style="clip-path:url(#SVGID_2_);"><path id="path37" style="fill:#B2B4B6;" d="M73.001,36.724c0,20.157-16.341,36.501-36.5,36.501C16.342,73.224,0,56.881,0,36.724	C0,16.56,16.342,0.218,36.501,0.218C56.66,0.218,73.001,16.56,73.001,36.724z"/><path id="path39" style="fill:#B2B4B7;" d="M72.93,36.702c0,20.099-16.292,36.393-36.391,36.393	c-20.1,0-36.393-16.294-36.393-36.393c0-20.104,16.293-36.397,36.393-36.397C56.639,0.304,72.93,16.597,72.93,36.702z"/><path id="path41" style="fill:#B2B4B7;" d="M72.862,36.68c0,20.039-16.245,36.286-36.285,36.286S0.292,56.719,0.292,36.68	c0-20.044,16.245-36.289,36.285-36.289S72.862,16.635,72.862,36.68z"/><path id="path43" style="fill:#B3B5B8;" d="M72.793,36.658c0,19.981-16.198,36.177-36.177,36.177	c-19.982,0-36.178-16.197-36.178-36.177c0-19.985,16.196-36.183,36.178-36.183C56.596,0.475,72.793,16.673,72.793,36.658z"/><path id="path45" style="fill:#B4B6B8;" d="M72.725,36.636c0,19.92-16.149,36.069-36.071,36.069	c-19.922,0-36.07-16.149-36.07-36.069c0-19.926,16.148-36.075,36.07-36.075C56.576,0.561,72.725,16.71,72.725,36.636z"/><path id="path47" style="fill:#B5B7B9;" d="M72.655,36.615c0,19.861-16.1,35.962-35.962,35.962	C16.83,72.577,0.73,56.475,0.73,36.615c0-19.866,16.1-35.967,35.963-35.967C56.555,0.647,72.655,16.748,72.655,36.615z"/><path id="path49" style="fill:#B6B8BA;" d="M72.586,36.593c0,19.802-16.053,35.854-35.856,35.854	c-19.803,0-35.855-16.052-35.855-35.854c0-19.807,16.052-35.86,35.855-35.86C56.533,0.733,72.586,16.786,72.586,36.593z"/><path id="path51" style="fill:#B7B9BB;" d="M72.516,36.571c0,19.743-16.004,35.746-35.747,35.746	c-19.744,0-35.747-16.003-35.747-35.746c0-19.747,16.003-35.752,35.747-35.752C56.512,0.819,72.516,16.824,72.516,36.571z"/><path id="path53" style="fill:#B7B9BC;" d="M72.448,36.549c0,19.682-15.956,35.638-35.64,35.638	c-19.685,0-35.64-15.956-35.64-35.638c0-19.688,15.955-35.645,35.64-35.645C56.492,0.904,72.448,16.861,72.448,36.549z"/><path id="path55" style="fill:#B7B9BC;" d="M72.379,36.527c0,19.623-15.909,35.53-35.533,35.53	c-19.626,0-35.532-15.907-35.532-35.53C1.313,16.899,17.22,0.99,36.846,0.99C56.47,0.99,72.379,16.899,72.379,36.527z"/><path id="path57" style="fill:#B8BABC;" d="M72.354,36.508c0,19.582-15.874,35.455-35.456,35.455	c-19.584,0-35.456-15.873-35.456-35.455c0-19.586,15.872-35.461,35.456-35.461C56.48,1.048,72.354,16.922,72.354,36.508z"/><path id="path59" style="fill:#B9BBBD;" d="M72.33,36.489c0,19.539-15.84,35.378-35.382,35.378	c-19.541,0-35.379-15.839-35.379-35.378c0-19.544,15.839-35.384,35.379-35.384C56.49,1.105,72.33,16.945,72.33,36.489z"/><path id="path61" style="fill:#BABCBE;" d="M72.305,36.47C72.305,55.967,56.5,71.772,37,71.772	c-19.499,0-35.303-15.805-35.303-35.303C1.697,16.968,17.502,1.161,37,1.161C56.5,1.161,72.305,16.968,72.305,36.47z"/><path id="path63" style="fill:#BBBDBF;" d="M72.281,36.451c0,19.455-15.771,35.226-35.228,35.226	c-19.458,0-35.229-15.771-35.229-35.226c0-19.46,15.771-35.233,35.229-35.233C56.51,1.219,72.281,16.991,72.281,36.451z"/><path id="path65" style="fill:#BCBDC0;" d="M72.256,36.432c0,19.413-15.736,35.15-35.152,35.15	c-19.415,0-35.151-15.737-35.151-35.15c0-19.419,15.736-35.156,35.151-35.156C56.52,1.276,72.256,17.014,72.256,36.432z"/><path id="path67" style="fill:#BCBEC0;" d="M72.232,36.413c0,19.371-15.705,35.074-35.075,35.074	c-19.374,0-35.077-15.703-35.077-35.074c0-19.377,15.703-35.08,35.077-35.08C56.527,1.333,72.232,17.037,72.232,36.413z"/><path id="path69" style="fill:#BDBFC1;" d="M72.207,36.394c0,19.329-15.67,34.998-34.999,34.998c-19.332,0-35-15.669-35-34.998	c0-19.334,15.669-35.004,35-35.004C56.537,1.39,72.207,17.06,72.207,36.394z"/><path id="path71" style="fill:#BEC0C2;" d="M72.184,36.375c0,19.288-15.637,34.923-34.923,34.923	c-19.291,0-34.924-15.635-34.924-34.923c0-19.292,15.634-34.927,34.924-34.927C56.547,1.447,72.184,17.083,72.184,36.375z"/><path id="path73" style="fill:#BFC1C3;" d="M72.158,36.356c0,19.246-15.602,34.846-34.847,34.846	c-19.247,0-34.847-15.601-34.847-34.846c0-19.25,15.6-34.851,34.847-34.851C56.557,1.505,72.158,17.106,72.158,36.356z"/><path id="path75" style="fill:#C0C2C4;" d="M72.135,36.337c0,19.203-15.568,34.77-34.771,34.77	c-19.206,0-34.773-15.567-34.773-34.77c0-19.208,15.567-34.775,34.773-34.775C56.566,1.562,72.135,17.129,72.135,36.337z"/><path id="path77" style="fill:#C1C2C4;" d="M72.109,36.318c0,19.161-15.533,34.694-34.694,34.694	c-19.163,0-34.696-15.533-34.696-34.694c0-19.166,15.532-34.7,34.696-34.7C56.576,1.618,72.109,17.152,72.109,36.318z"/><path id="path79" style="fill:#C1C3C5;" d="M72.086,36.299c0,19.119-15.5,34.618-34.618,34.618	c-19.122,0-34.62-15.499-34.62-34.618c0-19.124,15.498-34.623,34.62-34.623C56.586,1.676,72.086,17.175,72.086,36.299z"/><path id="path81" style="fill:#C2C4C6;" d="M72.061,36.28c0,19.077-15.465,34.541-34.542,34.541	c-19.08,0-34.544-15.464-34.544-34.541c0-19.082,15.464-34.547,34.544-34.547C56.596,1.733,72.061,17.199,72.061,36.28z"/><path id="path83" style="fill:#C3C5C7;" d="M72.037,36.261c0,19.035-15.432,34.466-34.466,34.466	c-19.038,0-34.469-15.431-34.469-34.466c0-19.039,15.431-34.471,34.469-34.471C56.605,1.79,72.037,17.221,72.037,36.261z"/><path id="path85" style="fill:#C4C6C8;" d="M72.012,36.242c0,18.993-15.396,34.39-34.389,34.39	c-18.995,0-34.392-15.397-34.392-34.39c0-18.998,15.396-34.395,34.392-34.395C56.615,1.847,72.012,17.244,72.012,36.242z"/><path id="path87" style="fill:#C5C6C8;" d="M71.988,36.223c0,18.951-15.363,34.313-34.313,34.313	c-18.954,0-34.316-15.362-34.316-34.313c0-18.955,15.362-34.319,34.316-34.319C56.625,1.904,71.988,17.267,71.988,36.223z"/><path id="path89" style="fill:#C5C7C9;" d="M71.965,36.204c0,18.909-15.33,34.237-34.239,34.237	c-18.911,0-34.24-15.328-34.24-34.237c0-18.913,15.329-34.242,34.24-34.242C56.635,1.961,71.965,17.29,71.965,36.204z"/><path id="path91" style="fill:#C6C8CA;" d="M71.939,36.185c0,18.867-15.295,34.161-34.161,34.161	c-18.87,0-34.164-15.294-34.164-34.161c0-18.872,15.294-34.167,34.164-34.167C56.645,2.019,71.939,17.313,71.939,36.185z"/><path id="path93" style="fill:#C7C9CB;" d="M71.916,36.166c0,18.825-15.261,34.085-34.086,34.085	c-18.827,0-34.088-15.261-34.088-34.085c0-18.83,15.26-34.09,34.088-34.09C56.654,2.076,71.916,17.336,71.916,36.166z"/><path id="path95" style="fill:#C8CACC;" d="M71.89,36.147c0,18.783-15.228,34.009-34.01,34.009	C19.096,70.156,3.87,54.93,3.87,36.147c0-18.788,15.227-34.014,34.011-34.014C56.662,2.133,71.89,17.359,71.89,36.147z"/><path id="path97" style="fill:#C9CBCC;" d="M71.867,36.128c0,18.741-15.195,33.933-33.934,33.933	c-18.743,0-33.935-15.192-33.935-33.933C3.998,17.382,19.19,2.19,37.933,2.19C56.672,2.19,71.867,17.382,71.867,36.128z"/><path id="path99" style="fill:#CACBCD;" d="M71.842,36.109c0,18.699-15.16,33.857-33.858,33.857	c-18.701,0-33.859-15.159-33.859-33.857c0-18.704,15.158-33.862,33.859-33.862C56.682,2.247,71.842,17.405,71.842,36.109z"/><path id="path101" style="fill:#CBCCCE;" d="M71.818,36.09c0,18.657-15.127,33.781-33.781,33.781	c-18.659,0-33.783-15.124-33.783-33.781c0-18.662,15.124-33.785,33.783-33.785C56.691,2.304,71.818,17.428,71.818,36.09z"/><path id="path103" style="fill:#CBCDCF;" d="M71.793,36.071c0,18.615-15.092,33.705-33.705,33.705	c-18.616,0-33.707-15.09-33.707-33.705c0-18.62,15.091-33.709,33.707-33.709C56.701,2.362,71.793,17.451,71.793,36.071z"/><path id="path105" style="fill:#CCCED0;" d="M71.769,36.052c0,18.573-15.058,33.629-33.629,33.629	c-18.576,0-33.632-15.056-33.632-33.629c0-18.578,15.056-33.633,33.632-33.633C56.711,2.419,71.769,17.474,71.769,36.052z"/><path id="path107" style="fill:#CDCFD0;" d="M71.744,36.033c0,18.53-15.023,33.552-33.553,33.552	c-18.533,0-33.555-15.022-33.555-33.552c0-18.536,15.022-33.558,33.555-33.558C56.721,2.475,71.744,17.498,71.744,36.033z"/><path id="path109" style="fill:#CECFD1;" d="M71.72,36.014c0,18.489-14.99,33.476-33.477,33.476	c-18.491,0-33.479-14.987-33.479-33.476c0-18.494,14.988-33.482,33.479-33.482C56.73,2.533,71.72,17.521,71.72,36.014z"/><path id="path111" style="fill:#CFD0D2;" d="M71.695,35.995c0,18.447-14.955,33.4-33.4,33.4c-18.448,0-33.403-14.954-33.403-33.4	c0-18.452,14.954-33.405,33.403-33.405C56.74,2.59,71.695,17.544,71.695,35.995z"/><path id="path113" style="fill:#D0D1D3;" d="M71.672,35.976c0,18.405-14.922,33.325-33.324,33.325	c-18.407,0-33.327-14.92-33.327-33.325c0-18.41,14.92-33.329,33.327-33.329C56.75,2.647,71.672,17.566,71.672,35.976z"/><path id="path115" style="fill:#D0D2D3;" d="M71.646,35.957c0,18.363-14.886,33.248-33.248,33.248	c-18.365,0-33.251-14.885-33.251-33.248c0-18.367,14.886-33.253,33.251-33.253C56.76,2.704,71.646,17.589,71.646,35.957z"/><path id="path117" style="fill:#D1D3D4;" d="M71.623,35.938c0,18.321-14.853,33.172-33.171,33.172	c-18.323,0-33.176-14.852-33.176-33.172c0-18.325,14.852-33.177,33.176-33.177C56.77,2.761,71.623,17.612,71.623,35.938z"/><path id="path119" style="fill:#D2D3D5;" d="M71.572,35.911c0,18.262-14.806,33.065-33.066,33.065	c-18.263,0-33.067-14.803-33.067-33.065c0-18.266,14.804-33.07,33.067-33.07C56.766,2.841,71.572,17.645,71.572,35.911z"/><path id="path121" style="fill:#D3D4D6;" d="M71.521,35.885c0,18.202-14.757,32.958-32.958,32.958	c-18.204,0-32.96-14.756-32.96-32.958c0-18.208,14.756-32.963,32.96-32.963C56.764,2.922,71.521,17.677,71.521,35.885z"/><path id="path123" style="fill:#D4D5D7;" d="M71.47,35.859c0,18.143-14.708,32.851-32.851,32.851	c-18.146,0-32.854-14.707-32.854-32.851c0-18.149,14.708-32.856,32.854-32.856C56.762,3.003,71.47,17.71,71.47,35.859z"/><path id="path125" style="fill:#D5D6D7;" d="M71.419,35.831c0,18.085-14.662,32.745-32.744,32.745	c-18.087,0-32.747-14.661-32.747-32.745c0-18.088,14.66-32.749,32.747-32.749C56.758,3.083,71.419,17.743,71.419,35.831z"/><path id="path127" style="fill:#D5D7D8;" d="M71.369,35.805c0,18.025-14.615,32.638-32.638,32.638	c-18.026,0-32.639-14.612-32.639-32.638c0-18.03,14.613-32.642,32.639-32.642C56.754,3.163,71.369,17.775,71.369,35.805z"/><path id="path129" style="fill:#D6D7D9;" d="M71.318,35.779c0,17.966-14.566,32.53-32.53,32.53	c-17.968,0-32.532-14.564-32.532-32.53c0-17.971,14.564-32.535,32.532-32.535C56.752,3.244,71.318,17.808,71.318,35.779z"/><path id="path131" style="fill:#D7D8DA;" d="M71.267,35.752c0,17.907-14.517,32.424-32.423,32.424	c-17.909,0-32.425-14.516-32.425-32.424c0-17.912,14.516-32.428,32.425-32.428C56.75,3.324,71.267,17.84,71.267,35.752z"/><path id="path133" style="fill:#D8D9DB;" d="M71.216,35.726c0,17.848-14.47,32.316-32.315,32.316	c-17.85,0-32.319-14.468-32.319-32.316c0-17.853,14.469-32.321,32.319-32.321C56.746,3.405,71.216,17.873,71.216,35.726z"/><path id="path135" style="fill:#D8D9DB;" d="M71.165,35.699c0,17.789-14.421,32.209-32.21,32.209	c-17.79,0-32.21-14.42-32.21-32.209c0-17.794,14.42-32.214,32.21-32.214C56.744,3.484,71.165,17.905,71.165,35.699z"/><path id="path137" style="fill:#D9DADB;" d="M71.115,35.673c0,17.73-14.372,32.103-32.103,32.103	c-17.731,0-32.103-14.372-32.103-32.103c0-17.735,14.372-32.107,32.103-32.107C56.742,3.565,71.115,17.938,71.115,35.673z"/><path id="path139" style="fill:#D9DBDC;" d="M71.064,35.646c0,17.671-14.325,31.995-31.995,31.995	c-17.672,0-31.997-14.324-31.997-31.995c0-17.676,14.324-32,31.997-32C56.738,3.646,71.064,17.971,71.064,35.646z"/><path id="path141" style="fill:#DADCDD;" d="M71.013,35.619c0,17.612-14.276,31.888-31.887,31.888	c-17.614,0-31.89-14.276-31.89-31.888c0-17.616,14.276-31.893,31.89-31.893C56.736,3.726,71.013,18.003,71.013,35.619z"/><path id="path143" style="fill:#DBDCDE;" d="M70.962,35.593c0,17.553-14.229,31.781-31.782,31.781	c-17.553,0-31.781-14.229-31.781-31.781c0-17.557,14.228-31.786,31.781-31.786C56.732,3.807,70.962,18.036,70.962,35.593z"/><path id="path145" style="fill:#DCDDDE;" d="M70.911,35.567c0,17.494-14.181,31.674-31.674,31.674	c-17.495,0-31.675-14.18-31.675-31.674c0-17.498,14.18-31.68,31.675-31.68C56.73,3.887,70.911,18.068,70.911,35.567z"/><path id="path147" style="fill:#DDDEDF;" d="M70.862,35.54c0,17.435-14.136,31.568-31.569,31.568	c-17.436,0-31.568-14.133-31.568-31.568c0-17.439,14.132-31.572,31.568-31.572C56.727,3.967,70.862,18.101,70.862,35.54z"/><path id="path149" style="fill:#DEDFE0;" d="M70.812,35.513c0,17.375-14.087,31.46-31.461,31.46	c-17.377,0-31.462-14.085-31.462-31.46c0-17.38,14.084-31.465,31.462-31.465C56.725,4.048,70.812,18.133,70.812,35.513z"/><path id="path151" style="fill:#DEE0E1;" d="M70.761,35.487c0,17.316-14.038,31.353-31.356,31.353	c-17.317,0-31.353-14.037-31.353-31.353c0-17.321,14.036-31.359,31.353-31.359C56.723,4.128,70.761,18.166,70.761,35.487z"/><path id="path153" style="fill:#DFE0E2;" d="M70.71,35.46c0,17.258-13.991,31.247-31.248,31.247	c-17.258,0-31.246-13.989-31.246-31.247c0-17.262,13.988-31.252,31.246-31.252C56.719,4.208,70.71,18.198,70.71,35.46z"/><path id="path155" style="fill:#E0E1E2;" d="M70.659,35.434c0,17.199-13.942,31.139-31.141,31.139	c-17.199,0-31.14-13.941-31.14-31.139c0-17.203,13.94-31.145,31.14-31.145C56.717,4.289,70.659,18.231,70.659,35.434z"/><path id="path157" style="fill:#E1E2E3;" d="M70.593,35.394c0,17.102-13.864,30.966-30.967,30.966	c-17.104,0-30.966-13.864-30.966-30.966c0-17.107,13.863-30.971,30.966-30.971C56.729,4.423,70.593,18.287,70.593,35.394z"/><path id="path159" style="fill:#E2E3E4;" d="M70.526,35.354c0,17.008-13.786,30.793-30.793,30.793	c-17.009,0-30.794-13.785-30.794-30.793c0-17.01,13.785-30.798,30.794-30.798C56.74,4.556,70.526,18.343,70.526,35.354z"/><path id="path161" style="fill:#E3E4E5;" d="M70.46,35.314c0,16.911-13.71,30.62-30.621,30.62	c-16.911,0-30.618-13.708-30.618-30.62C9.22,18.399,22.928,4.69,39.839,4.69C56.75,4.69,70.46,18.399,70.46,35.314z"/><path id="path163" style="fill:#E3E4E5;" d="M70.395,35.275c0,16.815-13.634,30.446-30.449,30.446S9.5,52.09,9.5,35.275	c0-16.819,13.63-30.451,30.446-30.451S70.395,18.455,70.395,35.275z"/><path id="path165" style="fill:#E4E5E6;" d="M70.329,35.235c0,16.72-13.553,30.273-30.275,30.273	c-16.719,0-30.272-13.553-30.272-30.273c0-16.723,13.553-30.277,30.272-30.277C56.775,4.957,70.329,18.512,70.329,35.235z"/><path id="path167" style="fill:#E5E6E7;" d="M70.262,35.195c0,16.624-13.477,30.101-30.101,30.101	c-16.624,0-30.099-13.476-30.099-30.101c0-16.627,13.475-30.104,30.099-30.104C56.785,5.091,70.262,18.568,70.262,35.195z"/><path id="path169" style="fill:#E6E7E8;" d="M70.196,35.156c0,16.528-13.399,29.927-29.927,29.927	c-16.528,0-29.927-13.399-29.927-29.927c0-16.532,13.399-29.931,29.927-29.931C56.797,5.225,70.196,18.623,70.196,35.156z"/><path id="path171" style="fill:#E7E8E9;" d="M70.129,35.116c0,16.432-13.321,29.754-29.753,29.754	c-16.432,0-29.753-13.321-29.753-29.754c0-16.436,13.321-29.758,29.753-29.758C56.809,5.358,70.129,18.68,70.129,35.116z"/><path id="path173" style="fill:#E7E8E9;" d="M70.063,35.076c0,16.337-13.243,29.58-29.579,29.58	c-16.336,0-29.58-13.243-29.58-29.58c0-16.341,13.244-29.584,29.58-29.584C56.82,5.492,70.063,18.736,70.063,35.076z"/><path id="path175" style="fill:#E8E8E9;" d="M69.998,35.036c0,16.241-13.166,29.407-29.407,29.407	c-16.241,0-29.407-13.166-29.407-29.407c0-16.245,13.166-29.411,29.407-29.411C56.832,5.626,69.998,18.792,69.998,35.036z"/><path id="path177" style="fill:#E9E9EA;" d="M69.932,34.997c0,16.145-13.088,29.235-29.235,29.235	c-16.144,0-29.231-13.09-29.231-29.235c0-16.149,13.088-29.237,29.231-29.237C56.844,5.76,69.932,18.848,69.932,34.997z"/><path id="path179" style="fill:#E9EAEB;" d="M69.865,34.957c0,16.049-13.01,29.061-29.061,29.061	c-16.048,0-29.059-13.012-29.059-29.061c0-16.053,13.011-29.064,29.059-29.064C56.856,5.893,69.865,18.904,69.865,34.957z"/><path id="path181" style="fill:#EAEBEC;" d="M69.799,34.918c0,15.953-12.932,28.888-28.887,28.888	c-15.952,0-28.885-12.934-28.885-28.888c0-15.957,12.934-28.891,28.885-28.891C56.867,6.027,69.799,18.96,69.799,34.918z"/><path id="path183" style="fill:#EBECED;" d="M69.733,34.878c0,15.858-12.854,28.714-28.713,28.714	c-15.856,0-28.712-12.857-28.712-28.714c0-15.862,12.856-28.717,28.712-28.717C56.879,6.161,69.733,19.016,69.733,34.878z"/><path id="path185" style="fill:#ECEDED;" d="M69.668,34.838c0,15.762-12.777,28.541-28.541,28.541	c-15.76,0-28.539-12.779-28.539-28.541c0-15.766,12.779-28.544,28.539-28.544C56.891,6.294,69.668,19.072,69.668,34.838z"/><path id="path187" style="fill:#EDEDEE;" d="M69.602,34.798c0,15.666-12.699,28.368-28.367,28.368	c-15.665,0-28.366-12.702-28.366-28.368c0-15.67,12.702-28.37,28.366-28.37C56.903,6.428,69.602,19.128,69.602,34.798z"/><path id="path189" style="fill:#EEEEEF;" d="M69.412,34.732c0,15.481-12.549,28.032-28.031,28.032	c-15.48,0-28.031-12.551-28.031-28.032c0-15.485,12.551-28.035,28.031-28.035C56.864,6.697,69.412,19.247,69.412,34.732z"/><path id="path191" style="fill:#EEEFF0;" d="M69.222,34.667c0,15.296-12.398,27.697-27.695,27.697	c-15.295,0-27.696-12.401-27.696-27.697c0-15.3,12.401-27.7,27.696-27.7C56.824,6.967,69.222,19.367,69.222,34.667z"/><path id="path193" style="fill:#EFF0F0;" d="M69.035,34.6c0,15.111-12.25,27.362-27.36,27.362	c-15.11,0-27.361-12.251-27.361-27.362c0-15.115,12.251-27.365,27.361-27.365C56.785,7.236,69.035,19.486,69.035,34.6z"/><path id="path195" style="fill:#F0F1F1;" d="M68.845,34.535c0,14.925-12.099,27.026-27.024,27.026	c-14.925,0-27.026-12.101-27.026-27.026c0-14.929,12.101-27.03,27.026-27.03C56.746,7.505,68.845,19.606,68.845,34.535z"/><path id="path197" style="fill:#F1F1F2;" d="M68.657,34.469c0,14.74-11.948,26.69-26.69,26.69	c-14.739,0-26.69-11.951-26.69-26.69c0-14.745,11.951-26.695,26.69-26.695C56.709,7.775,68.657,19.725,68.657,34.469z"/><path id="path199" style="fill:#F2F2F3;" d="M68.468,34.403c0,14.555-11.798,26.356-26.354,26.356	c-14.554,0-26.355-11.801-26.355-26.356c0-14.559,11.801-26.359,26.355-26.359C56.67,8.044,68.468,19.844,68.468,34.403z"/><path id="path201" style="fill:#F3F3F3;" d="M68.278,34.338c0,14.369-11.647,26.02-26.018,26.02	c-14.37,0-26.02-11.65-26.02-26.02c0-14.374,11.65-26.024,26.02-26.024C56.631,8.313,68.278,19.963,68.278,34.338z"/><path id="path203" style="fill:#F3F4F4;" d="M68.091,34.272c0,14.184-11.499,25.685-25.683,25.685	c-14.184,0-25.685-11.501-25.685-25.685c0-14.189,11.501-25.689,25.685-25.689C56.592,8.583,68.091,20.083,68.091,34.272z"/><path id="path205" style="fill:#F3F4F4;" d="M67.901,34.206c0,13.999-11.348,25.349-25.347,25.349	c-13.999,0-25.35-11.35-25.35-25.349c0-14.003,11.351-25.354,25.35-25.354C56.553,8.852,67.901,20.202,67.901,34.206z"/><path id="path207" style="fill:#F4F5F5;" d="M67.711,34.14c0,13.814-11.196,25.014-25.011,25.014	c-13.815,0-25.015-11.2-25.015-25.014c0-13.819,11.2-25.019,25.015-25.019C56.516,9.121,67.711,20.322,67.711,34.14z"/><path id="path209" style="fill:#F5F6F6;" d="M67.524,34.074c0,13.629-11.048,24.678-24.677,24.678	c-13.629,0-24.68-11.05-24.68-24.678c0-13.633,11.051-24.684,24.68-24.684C56.476,9.39,67.524,20.441,67.524,34.074z"/><path id="path211" style="fill:#F6F6F7;" d="M67.289,33.98c0,13.366-10.836,24.203-24.204,24.203	c-13.366,0-24.204-10.837-24.204-24.203c0-13.372,10.838-24.209,24.204-24.209C56.453,9.771,67.289,20.609,67.289,33.98z"/><path id="path213" style="fill:#F7F7F8;" d="M67.053,33.886c0,13.105-10.623,23.729-23.729,23.729	c-13.104,0-23.729-10.624-23.729-23.729c0-13.11,10.625-23.734,23.729-23.734C56.429,10.151,67.053,20.776,67.053,33.886z"/><path id="path215" style="fill:#F8F8F9;" d="M66.818,33.791c0,12.843-10.41,23.255-23.254,23.255	c-12.843,0-23.255-10.412-23.255-23.255c0-12.848,10.412-23.26,23.255-23.26C56.408,10.531,66.818,20.944,66.818,33.791z"/><path id="path217" style="fill:#F9F9FA;" d="M66.584,33.697c0,12.581-10.199,22.78-22.781,22.78	c-12.58,0-22.78-10.198-22.78-22.78c0-12.586,10.2-22.785,22.78-22.785C56.385,10.912,66.584,21.111,66.584,33.697z"/><path id="path219" style="fill:#FAFBFB;" d="M66.349,33.603c0,12.32-9.988,22.306-22.308,22.306	c-12.318,0-22.304-9.986-22.304-22.306c0-12.324,9.986-22.31,22.304-22.31C56.361,11.292,66.349,21.279,66.349,33.603z"/><path id="path221" style="fill:#FAFBFB;" d="M66.115,33.508c0,12.058-9.775,21.831-21.833,21.831	c-12.058,0-21.831-9.773-21.831-21.831c0-12.062,9.773-21.836,21.831-21.836C56.34,11.672,66.115,21.446,66.115,33.508z"/><path id="path223" style="fill:#FCFCFC;" d="M65.794,33.436c0,11.812-9.575,21.387-21.389,21.387	c-11.81,0-21.385-9.575-21.385-21.387c0-11.816,9.575-21.391,21.385-21.391C56.219,12.046,65.794,21.62,65.794,33.436z"/><path id="path225" style="fill:#FDFDFD;" d="M65.473,33.365c0,11.566-9.376,20.942-20.944,20.942	c-11.565,0-20.941-9.376-20.941-20.942c0-11.57,9.376-20.946,20.941-20.946C56.097,12.419,65.473,21.795,65.473,33.365z"/><path id="path227" style="fill:#FDFDFD;" d="M65.153,33.294c0,11.32-9.177,20.498-20.498,20.498	c-11.32,0-20.497-9.178-20.497-20.498c0-11.325,9.177-20.501,20.497-20.501C55.976,12.792,65.153,21.969,65.153,33.294z"/><path id="path229" style="fill:#FFFFFF;" d="M64.832,33.222c0,11.074-8.978,20.053-20.052,20.053	c-11.074,0-20.053-8.979-20.053-20.053c0-11.079,8.979-20.056,20.053-20.056C55.855,13.166,64.832,22.143,64.832,33.222z"/></g></g><g id="g5"><path id="path7" d="M58.056,109.999l-4.318-4.462c-0.131-0.104-0.178-0.317-0.062-0.483c0.008-0.01,3.295-5.545,3.295-5.545	c0.072-0.156,0.08-0.262,0.08-0.317c0-0.35-0.285-0.637-0.637-0.637h-2.41c-0.246,0-0.459,0.129-0.575,0.33l-2.088,3.604	c-0.1,0.145-0.305,0.178-0.455,0.072c0-0.002-3.372-3.466-3.372-3.466c-0.053-0.063-0.078-0.137-0.078-0.211	c0-0.084,0.035-0.172,0.106-0.237l0.045-0.039c1.904-1.108,4.075-2.738,4.075-5.608c0-3.299-2.369-5.514-5.891-5.514	c-3.45,0-6.071,2.31-6.071,5.758c0,1.517,0.633,3.03,1.941,4.623l0.03,0.035c0.051,0.063,0.076,0.151,0.066,0.233	c-0.014,0.09-0.055,0.168-0.125,0.225c-2.869,1.632-4.32,3.792-4.32,6.437c0,4.484,3.755,6.833,7.463,6.833	c2.547,0,4.533-0.977,6.446-3.172c0.008-0.01,0.037-0.049,0.037-0.049c0.114-0.113,0.324-0.113,0.454,0.018l2.32,2.402	c0.002,0.004,0.061,0.063,0.061,0.063c0.125,0.121,0.285,0.186,0.455,0.186h3.065c0.356,0,0.639-0.285,0.639-0.637	C58.232,110.274,58.167,110.116,58.056,109.999L58.056,109.999z M45.83,90.814c1.45,0,2.228,1.001,2.228,2.22	c0,1.427-1.274,2.254-2.809,3.112l-0.078,0.033c-0.121,0.068-0.28,0.039-0.369-0.061c-0.006-0.006-0.039-0.035-0.039-0.035	c-0.667-0.733-1.452-1.89-1.452-2.734C43.31,91.928,44.331,90.814,45.83,90.814z M48.926,106.044l-0.014,0.018	c-1.112,1.325-2.338,2.211-4.116,2.211c-2.115,0-3.766-1.521-3.766-3.458c0-1.716,0.733-2.733,2.905-4.044	c0.154-0.092,0.319-0.07,0.43,0.033l4.527,4.746c0.084,0.078,0.121,0.156,0.121,0.244c0,0.002,0,0.006,0,0.01	C49.012,105.888,48.988,105.962,48.926,106.044z"/><path id="path9" d="M34.435,108.23c-0.001,0-0.136,0.004-0.136,0.004c-3.469,0-5.226-1.841-5.226-5.459v-10.67	c0-0.184,0.154-0.334,0.341-0.334h5.432c0.355,0,0.648-0.293,0.648-0.647v-2.371c0-0.358-0.293-0.647-0.648-0.647H29.43	c-0.195,0-0.357-0.154-0.357-0.352v-4.902c0.016-0.35-0.26-0.651-0.617-0.667h-0.074c-0.002,0-2.778,0.219-2.778,0.219	c-0.345,0-0.636,0.283-0.636,0.643v4.724c0,0.186-0.152,0.334-0.338,0.334h-3.413c-0.356,0-0.646,0.285-0.646,0.643l-0.006,2.385	c0.006,0.176,0.076,0.34,0.203,0.452c0.127,0.121,0.291,0.186,0.462,0.186h3.402c0.187,0,0.339,0.147,0.339,0.334l-0.003,11.384	c0,6.11,4.602,8.293,8.635,8.293c0,0,0.478,0.008,0.845-0.029c0.363-0.035,0.637-0.289,0.637-0.647v-2.236	C35.085,108.517,34.793,108.23,34.435,108.23z"/><path id="path11" d="M18.88,110.157c-0.22-0.62-0.281-1.306-0.299-1.603c-0.012-0.221-0.021-1.118-0.021-1.118V96.162	c0-5.956-4.211-8.073-8.153-8.073c-3.12,0-5.969,0.815-7.8,2.037c-0.154,0.102-0.251,0.254-0.287,0.41	c-0.034,0.166,0,0.33,0.093,0.471c0.012,0.023,1.452,1.964,1.452,1.964c0.203,0.283,0.602,0.346,0.885,0.143	c-0.006,0.004,0.197-0.131,0.197-0.131c1.431-0.889,3.124-1.403,4.844-1.403c4.866,0,4.723,3.81,4.723,4.306	c0,0.254-0.151,0.315-0.334,0.309c-0.002,0-0.75-0.016-0.75-0.016C9.652,96.041,0.08,97.327,0.08,104.917	c0,4.46,3.716,6.732,7.182,6.732c3.36,0,6.062-1.333,7.411-2.963l0.014-0.018c0.018-0.021,0.04-0.033,0.071-0.033	c0.044,0,0.083,0.039,0.083,0.084c-0.002,0.211,0,0.684,0.046,1.093c0.031,0.369,0.079,0.643,0.141,0.844	c0.053,0.178,0.169,0.358,0.34,0.442c0.085,0.041,0.177,0.068,0.27,0.07c0.004,0,2.696,0.002,2.696,0.002	c0.351,0,0.636-0.28,0.636-0.62C18.97,110.44,18.88,110.157,18.88,110.157z M14.689,101.326c-0.55,3.89-2.466,6.139-6.006,6.72	c-2.491,0.409-4.747-0.616-4.868-3.284c-0.134-2.93,3.268-5.391,9.555-5.121c0,0,0.463,0.029,0.772,0.065	c0.276,0.031,0.446,0.115,0.552,0.281C14.794,100.141,14.812,100.45,14.689,101.326z"/><path id="path13" d="M71.015,108.23c-0.004,0-0.139,0.004-0.139,0.004c-3.466,0-5.225-1.841-5.225-5.459v-10.67	c0-0.184,0.154-0.334,0.338-0.334h5.432c0.36,0,0.653-0.293,0.653-0.647v-2.371c0-0.358-0.293-0.647-0.653-0.647h-5.412	c-0.198,0-0.358-0.154-0.358-0.352v-4.902c0.018-0.35-0.262-0.651-0.62-0.667h-0.074c-0.002,0-2.778,0.219-2.778,0.219	c-0.344,0-0.635,0.283-0.635,0.643v4.724c0,0.186-0.152,0.334-0.342,0.334h-3.409c-0.358,0-0.645,0.285-0.645,0.643l-0.006,2.385	c0.006,0.176,0.076,0.34,0.201,0.452c0.125,0.121,0.289,0.186,0.465,0.186h3.399c0.184,0,0.338,0.147,0.338,0.334v11.384	c0,6.11,4.597,8.293,8.634,8.293c0,0,0.479,0.008,0.844-0.029c0.364-0.035,0.633-0.289,0.633-0.647l0.004-2.236	C71.662,108.517,71.371,108.23,71.015,108.23z"/></g><path id="path21" style="fill:#32A5DD;" d="M2.949,24.692c0-1.542,0.22-2.626,0.638-3.591c0.697-1.436,1.486-2.82,2.358-4.145	c-0.223,0.376-0.358,0.807-0.358,1.312c0,3.353,8.207,7.707,19.409,9.133c3.795,0.485,13.843,1.855,21.622,1.214	c15.701-1.296,19.194-6.78,19.194-10.347c0-0.975-0.53-2.398-1.057-3.226c0.711,0.944,1.384,1.924,2.005,2.937	c1.2,2.092,1.05,2.923,1.05,3.286c0,7.281-13.551,12.034-22.619,14.511C21.93,42.128,2.949,33.472,2.949,24.692z M10.371,14.487	c0,3.283,4.779,8.533,18.623,8.533c8.208,0,14.834-1.589,19.836-3.253c8.018-2.664,11.988-5.922,11.845-8.347	c-0.023-0.377-0.17-0.989-0.615-1.474c-1.781-1.592-3.72-3.014-5.79-4.233c1.368,0.798,2.142,1.725,2.142,2.757	c0,3.617-8.833,6.931-20.372,7.227c-11.538,0.297-21.098-2.542-21.356-6.151c-0.086-1.192,0.776-2.369,2.408-3.411	c-1.247,0.771-2.441,1.616-3.579,2.529C10.302,11.328,10.371,14.141,10.371,14.487z M40.41,56.877	c-7.026,0.251-19.397-2.169-27.186-5.351c-6.27-2.562-12.474-7.547-13.14-12.302c0.075,1.145,0.204,2.275,0.386,3.385	c3.845,20.966,30.253,19.767,34.803,19.263c33.218-3.684,36.078-17.868,36.513-20.669c0.07-0.584,0.129-1.171,0.172-1.763	C71.373,43.174,65.757,55.971,40.41,56.877z M15.15,61.659c-5.961-2.465-10.086-6.562-11.743-9.555	c1.526,3.237,3.516,6.216,5.891,8.841c7.767,7.297,19.708,8.18,25.189,8.18c23.218,0,31.51-12.203,33.384-15.467	c0.348-0.653,0.674-1.323,0.983-2.002C65.18,59.226,46.123,74.456,15.15,61.659z M71.378,31.166c0-0.581-0.071-1.736-0.342-2.922	c-0.194-0.802-0.418-1.591-0.665-2.371c0.436,1.466,0.365,2.491,0.365,2.886c0,1.787-2.22,12.717-24.048,14.703	c-1.888,0.17-15.756,0.385-27.813-2.664c-8.02-2.029-16.073-5.951-17.593-11.395c-0.235-0.85-0.133-1.633,0.055-2.37l0,0	c-0.612,2.179-1.023,4.446-1.215,6.773c0.14,5.734,5.117,12.419,14.241,15.296c10.417,3.28,16.815,3.385,31.967,0.012	C71.617,43.475,71.378,32.4,71.378,31.166z"/><path id="path23" style="fill:#0096D7;" d="M45.192,35.777c0.614-0.168,1.247-0.347,1.898-0.536	c-2.793-0.599-5.76-0.924-8.839-0.924c-5.84,0-11.286,1.163-15.881,3.171C28.959,38.405,36.795,38.068,45.192,35.777z M42.212,21.595c2.453-0.538,4.66-1.178,6.618-1.829c1.071-0.356,2.066-0.722,2.992-1.096c-2.75-0.504-5.197-0.822-6.847-0.972	c-6.278-0.572-15.625,1.212-18.049,1.713c-0.747,0.153-4.16,0.861-8.317,2.31c0.978,0.29,2.056,0.541,3.24,0.744	c3.766-1.057,7.663-1.656,11.362-1.656C35.659,20.81,38.791,21.07,42.212,21.595z M42.931,43.543	c-2.291-0.012-5.406-0.106-8.918-0.385c-6.228,0.729-11.518,3.507-14.529,7.359c0.997,0.231,1.975,0.424,2.948,0.582	c3.176-3.487,8.543-5.778,14.632-5.778c4.443,0,8.503,1.222,11.604,3.235c1.21-0.305,2.355-0.622,3.438-0.95	C49.631,45.709,46.479,44.286,42.931,43.543z M63.365,28.172c1.814-1.341,3.208-2.826,3.921-4.46	c-0.874-0.54-1.861-1.042-2.926-1.504c-1.059,1.356-2.791,2.7-5.498,3.826C60.452,26.684,61.967,27.396,63.365,28.172z M55.388,32.411c1.908-0.775,3.755-1.637,5.414-2.585c-1.724-0.92-3.729-1.755-6.061-2.465c-2.252,0.557-4.935,0.992-8.121,1.255	c-0.948,0.078-1.927,0.126-2.928,0.151c2.228,0.426,4.359,0.997,6.38,1.665C52.024,31.077,53.787,31.738,55.388,32.411z M59.641,40.584c-1.605,0.651-3.44,1.235-5.533,1.72c1.521,0.919,2.889,1.959,4.073,3.098c1.706-0.739,3.192-1.505,4.486-2.281	C61.754,42.218,60.743,41.372,59.641,40.584z M12.561,24.225c-2.816,1.38-5.575,3.094-7.787,5.19	c0.336,0.43,0.717,0.853,1.143,1.266c2.421-2.14,5.47-4.052,8.847-5.612C13.989,24.8,13.253,24.517,12.561,24.225z M21.534,41.413	c-0.892-0.19-1.781-0.395-2.657-0.616c-0.559-0.143-1.118-0.293-1.675-0.452c-2.922,2.019-5.238,4.46-6.742,7.177	c0.924,0.463,1.906,0.883,2.946,1.253c0.873-1.548,2.029-2.985,3.459-4.243C18.21,43.346,19.785,42.3,21.534,41.413z M11.445,56.184c0-1.72,0.298-3.421,0.879-5.043c-0.971-0.434-1.934-0.921-2.867-1.454c-0.622,1.652-0.953,3.383-0.953,5.17	c0,0.352,0.016,0.702,0.043,1.048c0.957,0.719,1.965,1.355,3.005,1.922C11.482,57.285,11.445,56.736,11.445,56.184z M31.028,28.124	c-2.545-0.266-4.682-0.549-6.031-0.722c-0.876-0.111-1.732-0.24-2.569-0.385c-4.847,1.536-9.1,3.849-12.424,6.617	c0.676,0.373,1.395,0.729,2.153,1.064C16.992,31.182,23.598,28.781,31.028,28.124z M20.914,63.768	c-0.993-0.317-2-0.661-3.022-1.038c0.817,1.747,2.068,3.344,3.658,4.73c1.324,0.365,2.637,0.655,3.905,0.882	C23.526,67.089,21.966,65.531,20.914,63.768z M70.526,26.378c-0.037-0.123-0.076-0.244-0.113-0.366	c0.027,0.099,0.053,0.193,0.074,0.287C70.501,26.325,70.514,26.352,70.526,26.378z M4.898,43.602	c0.893-2.303,2.355-4.449,4.278-6.369c-0.643-0.334-1.263-0.683-1.853-1.047c-1.69,1.851-2.99,3.839-3.824,5.889	C3.925,42.597,4.392,43.107,4.898,43.602z M64.778,37.806c0.854,0.71,1.577,1.415,2.189,2.111c0.887-0.835,1.597-1.654,2.162-2.435	c-0.422-0.724-0.921-1.459-1.513-2.192C66.859,36.128,65.927,36.981,64.778,37.806z M8.888,58.068	c0.311,1.308,0.804,2.576,1.446,3.792c1.281,1.065,2.654,1.978,4.078,2.76c-1.037-1.392-1.832-2.887-2.336-4.456	C10.916,59.509,9.851,58.803,8.888,58.068z M50.839,66.661c1.693-0.571,3.235-1.22,4.638-1.914c0.54-0.758,0.991-1.554,1.345-2.379	c-1.173,0.584-2.424,1.134-3.753,1.626C52.469,64.955,51.719,65.848,50.839,66.661z M54.061,54.882	c0.326,0.864,0.538,1.766,0.62,2.694c1.052-0.395,2.037-0.806,2.965-1.227c-0.119-0.834-0.334-1.645-0.633-2.431	C56.083,54.262,55.102,54.585,54.061,54.882z M60.474,12.527c-1.654-0.574-3.622-1-5.819-1.286	c-2.57,1.966-7.756,3.56-14.214,4.189c4.062,0.406,9.009,1.106,13.727,2.208C57.737,15.914,59.844,14.109,60.474,12.527z M14.995,10.54c-1.616,0.68-3.073,1.378-4.314,2.072c-0.218,0.666-0.283,1.207-0.302,1.541c1.593-0.82,3.491-1.66,5.61-2.475	C15.553,11.314,15.217,10.934,14.995,10.54z M2.53,31.953c-0.933,1.29-1.653,2.696-2.08,4.228c0.113,0.467,0.255,0.937,0.429,1.407	c0.54-1.53,1.437-3.022,2.623-4.444C3.143,32.759,2.818,32.362,2.53,31.953z M3.888,48.92c0-1.03,0.112-2.043,0.324-3.034	c-0.522-0.485-1.008-0.985-1.45-1.491c-0.331,1.456-0.421,2.93-0.244,4.394c0.473,0.93,1.003,1.796,1.583,2.606	C3.961,50.578,3.888,49.751,3.888,48.92z M12.964,18.928c3.799-1.727,8.462-3.103,13.962-3.674	c-1.883-0.244-3.619-0.581-5.155-0.99c-3.607,0.997-6.994,2.193-9.945,3.569C12.147,18.203,12.524,18.569,12.964,18.928z M67.141,49.947c-0.193-0.539-0.414-1.071-0.668-1.593c-1.157,1.055-2.539,2.097-4.185,3.073c0.252,0.663,0.456,1.343,0.602,2.035	C64.625,52.298,66.019,51.11,67.141,49.947z M71.025,42.31c-0.342,0.733-0.784,1.534-1.349,2.373	c0.149,0.526,0.248,1.032,0.311,1.521c0.586-1.018,0.979-1.951,1.249-2.748C71.183,43.098,71.113,42.715,71.025,42.31z M71.052,28.317c-0.082-0.342-0.168-0.683-0.262-1.022c-0.049-0.119-0.108-0.237-0.168-0.354c0.153,0.896,0.115,1.528,0.115,1.818	c0,0.585-0.239,2.152-1.325,4.063c0.498,0.578,0.934,1.176,1.298,1.796c0.69-1.779,0.668-3.075,0.668-3.452	C71.378,30.596,71.31,29.478,71.052,28.317z M19.404,58.452c0-1.586,0.378-3.108,1.072-4.516c-0.893-0.244-1.769-0.5-2.62-0.764	c-0.682,1.489-1.053,3.082-1.053,4.744c0,0.747,0.075,1.482,0.221,2.197c0.89,0.28,1.785,0.522,2.673,0.729	C19.505,60.068,19.404,59.269,19.404,58.452z M62.979,58.45c-0.092,0.518-0.215,1.028-0.366,1.53	c2.942-2.611,4.545-5.081,5.248-6.308c0.027-0.045,0.051-0.092,0.074-0.137c-0.008-0.086-0.018-0.174-0.027-0.262	C66.812,54.89,65.161,56.697,62.979,58.45z M56.363,8.029c1.439,0.586,2.752,1.312,3.909,2.197	c-0.057-0.09-0.121-0.179-0.199-0.263c-1.159-1.042-2.385-2.009-3.675-2.894c-0.326-0.203-0.668-0.394-1.028-0.572	C55.904,6.974,56.244,7.486,56.363,8.029z M5.923,16.998c-0.101,0.154-0.203,0.309-0.303,0.464c0.053-0.065,0.111-0.133,0.171-0.2	C5.83,17.171,5.875,17.083,5.923,16.998z M64.948,21.338c0.964,0.503,1.841,1.043,2.613,1.62c0.166-0.548,0.25-1.112,0.25-1.693	c0-0.357,0.146-1.173-1.007-3.209c-0.619-1.017-1.286-2.002-2.001-2.95c-0.01-0.01-0.018-0.02-0.027-0.029	c0.522,0.833,1.038,2.23,1.038,3.192C65.813,19.199,65.575,20.257,64.948,21.338z M7.968,21.688	c-0.451-0.342-0.844-0.685-1.173-1.029c-1.556,1.073-2.854,2.221-3.834,3.438c-0.008,0.192-0.012,0.389-0.012,0.595	c0,0.385,0.038,0.77,0.111,1.152C4.261,24.504,5.899,23.066,7.968,21.688z M3.425,52.134c0.838,1.777,1.816,3.473,2.919,5.077	c-0.597-0.959-1.093-1.955-1.479-2.983C4.272,53.496,3.79,52.789,3.425,52.134z M1.32,27.106c-0.225,0.808-0.422,1.626-0.593,2.458	c0.092-0.319,0.233-0.667,0.423-1.04C1.134,28.031,1.209,27.559,1.32,27.106z M0.318,40.273c-0.105-0.35-0.185-0.698-0.233-1.044	c0.06,0.88,0.148,1.753,0.27,2.615C0.294,41.319,0.284,40.795,0.318,40.273z"/></g></svg>