<?xml version="1.0" encoding="utf-8"?>
<!-- Generator: Adobe Illustrator 17.1.0, SVG Export Plug-In . SVG Version: 6.00 Build 0)  -->
<!DOCTYPE svg PUBLIC "-//W3C//DTD SVG 1.1//EN" "http://www.w3.org/Graphics/SVG/1.1/DTD/svg11.dtd">
<svg version="1.1" id="Layer_1" xmlns="http://www.w3.org/2000/svg" xmlns:xlink="http://www.w3.org/1999/xlink" x="0px" y="0px"
	 viewBox="0 0 284 170.5" enable-background="new 0 0 284 170.5" xml:space="preserve">
<g>
	<path fill="#EE3524" d="M241,72.7v26.7h5.8V84.1c2.1-1.9,4.1-2.9,6.2-2.9c2.5,0,3.8,1.3,3.8,3.8v14.5h5.8V85c0-5.7-2.6-8.6-7.9-8.6
		c-2.8,0-5.4,0.8-7.8,2.5v-2.5l-0.9-3.7H241z"/>
	<path fill="#EE3524" d="M224.5,76.5c-1.8,0-3.6,0.4-5.3,1.1v-1.1l-1-3.7h-4.8v25.8c3.6,0.6,7,0.9,10.1,0.9c7.8,0,11.6-4,11.6-12
		C235.2,80.2,231.6,76.5,224.5,76.5z M223.8,94.8c-1.7,0-3.3-0.2-4.6-0.6V82.5c1.6-0.8,3.4-1.2,5.3-1.2c3.3,0,5,2,5,6.1
		C229.5,92.3,227.6,94.8,223.8,94.8z"/>
</g>
<path fill-rule="evenodd" clip-rule="evenodd" fill="#EE3524" d="M47.3,71.7c4.6,0,8.7,2.2,11.4,5.6l-0.2-0.7l-0.5-1.4l-0.5-1.4
	l-0.6-1.4l-0.7-1.4l-0.7-1.4l-0.8-1.4l-0.8-1.4l-0.9-1.4L52,63.8l-1-1.4l-1-1.4l-0.4-0.5c-0.8-0.1-1.6-0.1-2.4-0.1
	c-14.2,0-25.7,11.6-25.7,25.7c0,14.2,11.6,25.7,25.7,25.7c13.6,0,24.8-10.6,25.7-24c-7.4,6.8-17.4,13.7-27.4,12.4
	c-7.1-0.9-12.6-6.9-12.6-14.2C32.9,78.2,39.3,71.7,47.3,71.7z"/>
<g>
	<path d="M88.4,92.3c0-4.7,3.3-7.1,10-7.1c2,0,3.8,0.1,5.3,0.4v-1.5c0-2.1-2-3.1-6-3.1c-2.5,0-5,0.4-7.5,1.1v-4.6
		c2.5-0.7,5-1.1,7.5-1.1c7.8,0,11.7,2.5,11.7,7.6v15.4h-2.9l-2.5-1.6c-2,1.1-4.1,1.6-6.4,1.6C91.5,99.5,88.4,97.1,88.4,92.3z
		 M98.3,89.6c-2.8,0-4.2,0.9-4.2,2.6s1.2,2.6,3.5,2.6c2.4,0,4.4-0.6,6-1.8v-3C102.2,89.8,100.4,89.6,98.3,89.6z"/>
	<path d="M115.1,72.7h4.3l0.9,3.7h5.3v4.6h-4.7v10.6c0,2.1,0.9,3.2,2.8,3.2h1.9v4.6h-4.7c-3.8,0-5.8-2.1-5.8-6.2V72.7z"/>
	<polygon points="131.4,99.5 137.2,99.5 137.2,76.5 136.3,72.7 131.4,72.7 	"/>
	<path d="M143,92.3c0-4.7,3.3-7.1,10-7.1c2,0,3.8,0.1,5.3,0.4v-1.5c0-2.1-2-3.1-6-3.1c-2.5,0-5,0.4-7.5,1.1v-4.6
		c2.5-0.7,5-1.1,7.5-1.1c7.8,0,11.7,2.5,11.7,7.6v15.4h-2.9l-2.5-1.6c-2,1.1-4.1,1.6-6.4,1.6C146.1,99.5,143,97.1,143,92.3z
		 M152.9,89.6c-2.8,0-4.2,0.9-4.2,2.6s1.2,2.6,3.5,2.6c2.4,0,4.4-0.6,6-1.8v-3C156.8,89.8,155,89.6,152.9,89.6z"/>
	<path d="M169.8,99.5v-23h4.5l0.7,2.9c2.8-2,5.6-2.9,8.4-2.9c5.3,0,7.9,2.9,7.9,8.6v14.4h-5.8V85c0-2.5-1.3-3.8-3.8-3.8
		c-2,0-4.1,1-6.2,2.9v15.4H169.8z"/>
	<path d="M197.1,72.7h4.3l0.9,3.7h5.3v4.6h-4.7v10.6c0,2.1,0.9,3.2,2.8,3.2h1.9v4.6h-4.7c-3.8,0-5.8-2.1-5.8-6.2V72.7z"/>
</g>
<path fill-rule="evenodd" clip-rule="evenodd" d="M50.6,58.6c12.9,1.6,23,12,24.2,25l-3.8,3.5l-0.7,0.6l-0.7,0.6L68.8,89l-0.7,0.6
	l-0.7,0.6l-0.8,0.6l-0.8,0.6L65,91.9l-0.8,0.6L63.4,93l-0.8,0.5l-0.8,0.5L61,94.6L60.2,95l-0.8,0.4l-0.8,0.4l-0.8,0.4l-0.6,0.2
	C66,88.2,61.1,72.2,50.6,58.6z"/>
</svg>
