<?xml version="1.0" encoding="UTF-8" standalone="no"?>
<!-- Created with Inkscape (http://www.inkscape.org/) -->

<svg
   xmlns:dc="http://purl.org/dc/elements/1.1/"
   xmlns:cc="http://creativecommons.org/ns#"
   xmlns:rdf="http://www.w3.org/1999/02/22-rdf-syntax-ns#"
   xmlns:svg="http://www.w3.org/2000/svg"
   xmlns="http://www.w3.org/2000/svg"
   version="1.1"
   width="316.39001"
   height="106.33"
   id="svg2">
  <metadata
     id="metadata8">
    <rdf:RDF>
      <cc:Work
         rdf:about="">
        <dc:format>image/svg+xml</dc:format>
        <dc:type
           rdf:resource="http://purl.org/dc/dcmitype/StillImage" />
        <dc:title></dc:title>
      </cc:Work>
    </rdf:RDF>
  </metadata>
  <defs
     id="defs6" />
  <path
     d="m 192.83407,104.27776 c -9.53129,-0.71745 -18.55673,-4.504199 -25.73297,-10.796592 -0.43773,-0.38377 -0.86409,-0.77384 -0.94746,-0.866771 -0.0834,-0.09293 -0.24116,-0.232797 -0.35063,-0.310843 l -0.19903,-0.141836 -0.88179,0.975845 c -2.66192,2.945884 -6.30987,5.622748 -10.24124,7.514897 -6.36874,3.0652 -13.3979,4.20367 -20.76829,3.36368 -10.02593,-1.14265 -17.5785,-5.970999 -21.33406,-13.638759 -1.656,-3.381003 -2.61631,-7.321791 -2.88143,-11.824255 -0.0473,-0.803846 -0.0761,-9.22229 -0.0766,-22.378989 l -7.5e-4,-21.090411 -7.46633,0 -7.466322,0 0.01929,-7.825975 0.01929,-7.826054 7.446692,-0.0189 7.44669,-0.0189 0.0193,-8.394132 0.0193,-8.3941091 10.19465,0 10.19466,0 0.0193,8.3942351 0.0193,8.394243 11.31232,0.0189 11.31232,0.0189 0.0193,7.826054 0.0193,7.825976 -11.33195,0 -11.33196,0 0,20.181349 c 0,21.982854 -0.0173,21.041661 0.42389,23.008944 0.89644,3.996941 3.26427,7.19799 6.53847,8.839309 2.81606,1.411671 6.20417,1.627379 10.11603,0.644053 2.96567,-0.745489 6.0775,-2.364914 8.57879,-4.464505 0.8421,-0.70682 1.85702,-1.6703 1.85702,-1.762915 0,-0.04253 -0.26856,-0.610189 -0.59678,-1.261724 -2.56783,-5.096902 -4.07508,-10.384862 -4.60458,-16.154404 -0.15476,-1.686209 -0.17711,-5.520128 -0.0411,-7.049064 0.56906,-6.397293 2.14623,-11.81567 5.04112,-17.318787 4.7667,-9.061395 12.92933,-16.427524 22.4006,-20.214819 1.08039,-0.431968 2.82664,-1.059167 2.85901,-1.026799 0.0121,0.01181 -0.13213,0.276821 -0.32046,0.588373 -2.8393,4.6962 -5.2758,14.368334 -5.71662,22.693297 l -0.084,1.586034 -0.51358,0.7258 c -2.62402,3.708148 -4.29897,8.094843 -4.90763,12.85318 -0.19233,1.503499 -0.19256,5.314972 -7.6e-4,6.8217 0.64854,5.086112 2.46196,9.620393 5.41882,13.54921 3.7513,4.984442 9.12286,8.434826 14.94672,9.601021 1.9123,0.382903 2.37432,0.422832 4.85099,0.419051 2.00052,0 2.45468,-0.02599 3.37296,-0.170739 3.33682,-0.525606 6.06831,-1.512949 8.9819,-3.246647 0.5211,-0.310135 1.03048,-0.6272 1.13195,-0.704615 l 0.18448,-0.140813 -0.41188,-0.173417 c -0.87364,-0.367783 -3.87047,-1.912549 -4.84598,-2.497852 -5.87854,-3.527249 -10.67957,-8.132015 -14.42029,-13.830679 -8.43882,-12.855936 -9.49173,-29.384816 -2.75255,-43.210848 0.42852,-0.879135 1.06067,-2.089983 1.40476,-2.690799 0.68133,-1.189585 2.40157,-3.821476 2.62803,-4.020803 0.35277,-0.310528 5.65028,-0.428502 8.36486,-0.186254 6.68965,0.5968 12.77706,2.525179 18.4715,5.851447 9.98298,5.831286 17.33254,15.394503 20.32823,26.450982 1.14476,4.225012 1.58072,7.823376 1.50237,12.399948 -0.0658,3.839116 -0.42531,6.53913 -1.35088,10.143637 -3.20745,12.490989 -11.90337,23.044621 -23.67382,28.731314 -4.95738,2.39508 -10.22496,3.79856 -15.91373,4.24014 -1.13715,0.0883 -5.08556,0.0831 -6.29907,-0.009 z m 27.60708,-36.379072 c 0.0971,-0.351559 0.29339,-1.219117 0.43629,-1.927827 1.06757,-5.294575 0.58987,-10.967565 -1.34031,-15.917275 -2.87647,-7.376288 -8.5703,-12.967688 -15.73883,-15.455616 -0.43133,-0.149712 -0.82717,-0.272175 -0.87963,-0.272175 -0.19406,0 -0.8581,3.062283 -1.11764,5.154156 -0.13159,1.060584 -0.13204,5.073511 -7.6e-4,6.13953 0.69201,5.616129 2.62296,10.321858 5.95093,14.502138 0.71787,0.901737 2.48186,2.724427 3.34979,3.461332 2.48003,2.105497 5.02565,3.571351 8.11024,4.670289 0.50026,0.1783 0.94192,0.315254 0.98146,0.304386 0.0395,-0.01103 0.15132,-0.307379 0.24838,-0.658938 z m 50.75438,36.382772 c -10.29704,-0.36266 -19.78886,-2.4146 -28.63884,-6.191039 -1.30005,-0.554823 -5.39392,-2.553608 -5.65864,-2.762858 -0.11294,-0.08923 -0.0498,-0.212952 0.63119,-1.236128 2.40803,-3.61821 5.35835,-8.632892 7.28,-12.373802 0.49789,-0.96923 0.91899,-1.762287 0.93579,-1.762287 0.0168,0 0.46597,0.173969 0.99818,0.386605 6.81351,2.721909 14.31575,4.732822 21.01587,5.633062 2.91154,0.391173 3.93118,0.455752 7.23858,0.458272 2.56248,0 3.30048,-0.02205 4.20672,-0.135536 3.43843,-0.431495 6.13336,-1.184072 8.52046,-2.379405 3.11778,-1.561147 5.03892,-3.559854 5.70327,-5.933667 0.205,-0.732494 0.19001,-3.014952 -0.0264,-4.018283 -0.5619,-2.605193 -2.15501,-4.502464 -5.44282,-6.482032 -1.02938,-0.619797 -2.97297,-1.592334 -4.39621,-2.199766 -2.28395,-0.9749 -4.17723,-1.637224 -10.61153,-3.712401 -15.05137,-4.854338 -22.62928,-9.323489 -26.99062,-15.917983 -2.52051,-3.811159 -3.81979,-8.686918 -3.82055,-14.337227 -7.9e-4,-6.226632 1.84914,-11.698011 5.50513,-16.281434 0.84441,-1.058695 2.99812,-3.220816 4.08363,-4.099659 4.34216,-3.5154669 9.89016,-6.0649258 16.37142,-7.5231253 8.63563,-1.9429009 18.10607,-1.8630362 30.65976,0.2585426 4.35434,0.7358884 10.74103,2.0849501 10.81782,2.2850412 0.0351,0.091379 -1.0319,27.3210665 -1.07225,27.3644605 -0.0123,0.01339 -15.44005,-0.263827 -15.65011,-0.281074 -0.0167,0 -0.006,-3.068033 0.0252,-6.814849 l 0.0554,-6.81225 -0.85894,-0.161289 c -4.49135,-0.84338 -10.85991,-0.986713 -15.44979,-0.347858 -6.52733,0.908589 -11.21937,3.401006 -12.98021,6.895178 -1.14588,2.273795 -1.18128,4.740539 -0.0986,6.872182 2.06915,4.074041 8.53374,7.717452 20.62062,11.621541 9.20479,2.973212 15.31138,5.603764 19.72826,8.49838 5.2616,3.448258 8.34533,7.337777 9.90602,12.494454 1.22917,4.061361 1.42001,9.562666 0.49332,14.220197 -2.23721,11.244151 -11.08133,19.465708 -24.74603,23.004067 -5.62789,1.45727 -11.41869,2.01627 -18.3551,1.77197 z M 1.4853594,96.289547 l 0,-6.253251 4.2355419,0 4.2355419,0 0.3458658,-0.966395 c 1.528022,-4.269508 26.125316,-73.804702 26.125316,-73.854869 0,-0.03544 -2.379066,-0.07324 -5.286818,-0.08427 l -5.286818,-0.01969 0,-6.2153221 0,-6.2153316 21.229609,-0.019059 21.229617,-0.019059 15.496923,43.6780107 15.496923,43.677941 3.995669,0.01969 3.99567,0.01969 -0.0194,6.233642 -0.0194,6.233646 -19.062864,0 -19.062865,0 -0.01937,-6.234276 -0.01937,-6.23435 3.903963,0 c 2.214831,0 3.90397,-0.02914 3.90397,-0.06694 0,-0.05276 -3.946159,-11.234227 -4.637496,-13.140555 l -0.158115,-0.435984 -19.259364,0.0189 -19.259365,0.0189 -2.398668,6.783741 -2.39866,6.78382 4.159206,0.01969 4.159205,0.01969 0,6.252542 0,6.252622 -17.812214,0 -17.8122215,0 0,-6.253252 z M 66.5947,60.891836 c 0,-0.02126 -3.022512,-8.556894 -6.716689,-18.968138 C 56.183834,31.512454 53.090986,22.789545 53.005034,22.539421 l -0.15628,-0.454806 -0.09243,0.227364 c -0.05088,0.125062 -3.128831,8.805679 -6.839987,19.290244 -3.711149,10.484643 -6.771062,19.122575 -6.799799,19.195502 -0.04962,0.126086 0.633862,0.132701 13.712956,0.132701 7.570867,0 13.765202,-0.01733 13.765202,-0.03859 z"
     id="path2987"
     style="fill:#0066a1;fill-opacity:1" />
</svg>
