<?xml version="1.0" encoding="UTF-8" standalone="no"?>
<svg width="1559px" height="509px" viewBox="0 0 1559 509" version="1.1" xmlns="http://www.w3.org/2000/svg" xmlns:xlink="http://www.w3.org/1999/xlink">
    <!-- Generator: Sketch 3.6.1 (26313) - http://www.bohemiancoding.com/sketch -->
    <title>Atos</title>
    <desc>Created with Sketch.</desc>
    <defs></defs>
    <g id="Page-1" stroke="none" stroke-width="1" fill="none" fill-rule="evenodd">
        <g id="Atos" transform="translate(-2.000000, 0.000000)" fill="#0066A1">
            <path d="M953.58295,508.409836 C906.20411,504.843483 861.339787,486.020031 825.667604,454.74134 C823.491703,452.833668 821.372322,450.894679 820.9579,450.432731 C820.543329,449.970787 819.759124,449.275526 819.214962,448.887569 L818.225609,448.182521 L813.842343,453.033323 C800.610274,467.67694 782.476775,480.983294 762.934431,490.388927 C731.276228,505.62565 696.335161,511.28484 659.697883,507.109356 C609.86025,501.429387 572.317378,477.428274 553.648963,439.312807 C545.417196,422.506267 540.643616,402.917108 539.325738,380.535927 C539.090616,376.54011 538.947455,334.693088 538.944969,269.292798 L538.941241,164.455026 L501.827057,164.455026 L464.712913,164.455026 L464.808801,125.553092 L464.904689,86.6507657 L501.921255,86.5568162 L538.937811,86.4628666 L539.033749,44.7366959 L539.129687,3.01063904 L589.806005,3.01063904 L640.482374,3.01063904 L640.578311,44.7373223 L640.674249,86.4640447 L696.906364,86.5579943 L753.138479,86.6519438 L753.234417,125.55427 L753.330355,164.456209 L697.000662,164.456209 L640.670919,164.456209 L640.670919,264.775148 C640.670919,374.049141 640.584923,369.370589 642.778023,379.149705 C647.234113,399.017994 659.004297,414.930005 675.279932,423.088794 C689.27821,430.106032 706.120078,431.17829 725.56544,426.2903 C740.307411,422.584569 755.775925,414.534611 768.209522,404.097809 C772.395495,400.584296 777.440534,395.794959 777.440534,395.334581 C777.440534,395.12317 776.105557,392.301409 774.474016,389.062711 C761.709657,363.726654 754.217308,337.440872 751.58523,308.761207 C750.815938,300.379275 750.704839,281.321348 751.380927,273.7212 C754.209653,241.921064 762.049566,214.986996 776.439699,187.631696 C800.134363,142.588645 840.709766,105.972547 887.790254,87.1463817 C893.160736,84.9991233 901.841125,81.8813962 902.002032,82.0422934 C902.062179,82.1009995 901.34523,83.4183357 900.409066,84.9670214 C886.295264,108.311239 874.18373,156.390196 871.992469,197.772537 L871.574916,205.656511 L869.021974,209.264372 C855.978302,227.697107 847.652337,249.502814 844.626765,273.155907 C843.670717,280.629611 843.669574,299.575962 844.622987,307.065717 C847.846798,332.348138 856.86108,354.887476 871.559257,374.41713 C890.206496,399.194162 916.907843,416.345585 945.857516,422.142593 C955.363318,424.045956 957.659961,424.244438 969.971175,424.225643 C979.915508,424.225643 982.17308,424.09645 986.737734,423.376921 C1003.32464,420.7642 1016.90254,415.856242 1031.38562,407.238248 C1033.97595,405.696606 1036.50801,404.120516 1037.01241,403.735696 L1037.92943,403.035733 L1035.88203,402.173698 C1031.53927,400.345496 1016.64241,392.666659 1011.79327,389.757191 C982.571793,372.223682 958.706479,349.333971 940.111832,321.006632 C898.163523,257.101397 892.92964,174.93842 926.429254,106.21096 C928.559372,101.840891 931.70171,95.8219184 933.412138,92.8353379 C936.798944,86.922061 945.35004,73.8392631 946.475744,72.8484337 C948.229319,71.3048382 974.562572,70.7184043 988.056407,71.9225886 C1021.30981,74.8892061 1051.56956,84.4749347 1079.8759,101.009393 C1129.50004,129.99598 1166.03377,177.533525 1180.92497,232.493886 C1186.61543,253.495888 1188.78253,271.382901 1188.39306,294.132463 C1188.06598,313.216224 1186.2789,326.637653 1181.67801,344.555202 C1165.73418,406.646332 1122.50786,459.107104 1063.99843,487.374937 C1039.35592,499.280578 1013.17145,506.2571 984.893291,508.452138 C979.240662,508.891066 959.613614,508.865218 953.581409,508.4074 L953.58295,508.409836 Z M1090.81426,327.574061 C1091.29693,325.826505 1092.27266,321.513984 1092.983,317.991076 C1098.28976,291.672412 1095.91517,263.472695 1086.32049,238.868311 C1072.02192,202.201714 1043.71861,174.407571 1008.08475,162.040395 C1005.94067,161.296195 1003.973,160.687447 1003.71222,160.687447 C1002.74758,160.687447 999.446717,175.909669 998.156576,186.308106 C997.502459,191.580135 997.500222,211.527889 998.152798,216.826935 C1001.59269,244.744003 1011.1912,268.135588 1027.73412,288.915232 C1031.30256,293.397653 1040.07113,302.458015 1044.3855,306.121077 C1056.71342,316.587237 1069.36738,323.873812 1084.70048,329.336494 C1087.18721,330.222801 1089.38265,330.903582 1089.5792,330.849558 C1089.77555,330.79473 1090.33139,329.321616 1090.81386,327.574061 L1090.81426,327.574061 Z M1343.10788,508.428228 C1291.92259,506.625491 1244.73995,496.425557 1200.74782,477.653355 C1194.28543,474.8954 1173.93532,464.959692 1172.61943,463.919536 C1172.05802,463.475985 1172.37188,462.860979 1175.757,457.7749 C1187.72701,439.789235 1202.39268,414.861884 1211.94496,396.266292 C1214.41991,391.448372 1216.51314,387.506186 1216.59665,387.506186 C1216.68016,387.506186 1218.91293,388.370964 1221.55848,389.427951 C1255.42758,402.958217 1292.72027,412.954211 1326.02572,417.429191 C1340.49862,419.373662 1345.56712,419.694677 1362.00779,419.707203 C1374.74555,419.707203 1378.41406,419.597595 1382.91886,419.033471 C1400.01086,416.888564 1413.40702,413.147598 1425.27299,407.205749 C1440.77108,399.445484 1450.32083,389.510164 1453.62323,377.710239 C1454.64226,374.069104 1454.56774,362.723293 1453.492,357.735861 C1450.69886,344.785776 1442.77971,335.354681 1426.43642,325.514498 C1421.31951,322.433566 1411.65817,317.599207 1404.58342,314.579739 C1393.23019,309.733634 1383.81894,306.441305 1351.83484,296.125863 C1277.01638,271.995561 1239.34755,249.779975 1217.66788,216.999578 C1205.13874,198.054788 1198.68018,173.818005 1198.67641,145.731032 C1198.67248,114.77923 1207.86825,87.581696 1226.04171,64.7980788 C1230.23917,59.5354395 1240.94499,48.7878089 1246.34092,44.4191913 C1267.92525,26.944249 1295.50366,14.2712106 1327.72118,7.02268496 C1370.64781,-2.6352302 1417.72417,-2.23823285 1480.12698,8.30786759 C1501.77186,11.9658759 1533.51929,18.6718914 1533.901,19.666519 C1534.07548,20.1207525 1528.77155,155.476092 1528.57098,155.691798 C1528.50984,155.758358 1451.82044,154.380348 1450.77626,154.294615 C1450.69324,154.294615 1450.74643,139.04381 1450.90152,120.418861 L1451.17691,86.5560258 L1446.90723,85.7542785 C1424.58129,81.561943 1392.92399,80.8494527 1370.10827,84.0251203 C1337.66174,88.5416016 1314.3382,100.931092 1305.58529,118.30018 C1299.88926,129.602928 1299.71329,141.864801 1305.09516,152.460929 C1315.38064,172.712473 1347.5153,190.823409 1407.59766,210.230143 C1453.35351,225.009604 1483.70859,238.085746 1505.66435,252.474517 C1531.8191,269.615372 1547.14793,288.94968 1554.90592,314.582871 C1561.01597,334.771384 1561.96461,362.117677 1557.35815,385.269675 C1546.23727,441.162931 1502.27426,482.031253 1434.34876,499.619989 C1406.37323,506.863894 1377.5879,509.642613 1343.10788,508.428228 L1343.10788,508.428228 Z M2.41266032,468.701438 L2.41266032,437.617316 L23.4670045,437.617316 L44.5213487,437.617316 L46.240604,432.813488 C53.8362085,411.590303 176.106252,65.93963 176.106252,65.6902562 C176.106252,65.5140884 164.280216,65.3261894 149.826147,65.2713606 L123.546042,65.1734841 L123.546042,34.2779024 L123.546042,3.38227349 L229.075749,3.28753361 L334.605496,3.19279372 L411.638744,220.310672 L488.671993,437.428204 L508.533959,437.526081 L528.39593,437.623957 L528.299495,468.610605 L528.20306,499.597272 L433.443969,499.597272 L338.684873,499.597272 L338.588587,468.607473 L338.492302,437.617306 L357.898409,437.617306 C368.908054,437.617306 377.304551,437.472455 377.304551,437.284556 C377.304551,437.022293 357.688693,381.440631 354.252144,371.964515 L353.466174,369.797294 L257.730306,369.891243 L161.994434,369.985193 L150.070958,403.706313 L138.147522,437.427826 L158.82241,437.525703 L179.497293,437.623579 L179.497293,468.704176 L179.497293,499.785171 L90.9550254,499.785171 L2.41272047,499.785171 L2.41272047,468.701045 L2.41266032,468.701438 Z M326.062975,292.743884 C326.062975,292.638203 311.038449,250.208644 292.675161,198.455664 C274.311874,146.702684 258.937717,103.342204 258.51046,102.098869 L257.733612,99.8380862 L257.274154,100.968284 C257.021236,101.589951 241.72113,144.740203 223.273442,196.857652 C204.825789,248.975489 189.615348,291.913559 189.4725,292.27607 C189.225845,292.902827 192.623348,292.93571 257.637873,292.93571 C295.271697,292.93571 326.062955,292.849565 326.062955,292.743884 L326.062975,292.743884 Z" id="path2987"></path>
        </g>
    </g>
</svg>