<?xml version="1.0" encoding="UTF-8" standalone="no"?>
<svg width="2164px" height="510px" viewBox="0 0 2164 510" version="1.1" xmlns="http://www.w3.org/2000/svg" xmlns:xlink="http://www.w3.org/1999/xlink">
    <!-- Generator: Sketch 3.6.1 (26313) - http://www.bohemiancoding.com/sketch -->
    <title>audiense</title>
    <desc>Created with Sketch.</desc>
    <defs></defs>
    <g id="Page-1" stroke="none" stroke-width="1" fill="none" fill-rule="evenodd">
        <g id="audiense" transform="translate(-1.000000, -1.000000)" fill="#000000">
            <g id="Page-1">
                <g id="Artboard">
                    <g id="audiense_logotype">
                        <g id="Capa_1">
                            <g id="Group">
                                <path d="M197.304787,120.472249 L260.080652,120.472249 L260.080652,370.630291 L197.304787,370.630291 L197.304787,344.192921 C185.040115,355.843069 172.762551,364.235818 160.442014,369.362572 C148.125774,374.493622 134.756681,377.07204 120.37341,377.07204 C88.0572471,377.07204 60.1157986,364.536633 36.5447674,339.478715 C12.9651415,314.416499 1.17317986,283.256326 1.17317986,246.011089 C1.17317986,207.390695 12.5869736,175.736326 35.4059664,151.047981 C58.2206619,126.376825 85.9128633,114.039098 118.538436,114.039098 C133.540528,114.039098 147.622983,116.875357 160.790101,122.543578 C173.948623,128.216096 186.118753,136.720576 197.309084,148.061314 L197.309084,120.472249 L197.304787,120.472249 L197.304787,120.472249 Z M973.859372,471.482014 C972.669271,465.140688 969.647701,459.543276 964.783579,454.682399 C958.346129,448.24495 950.533525,445.030522 941.332874,445.030522 C932.278331,445.030522 924.547378,448.24495 918.101335,454.682399 C911.681076,461.124144 908.453755,468.859396 908.453755,477.905342 C908.453755,487.105996 911.681076,494.918601 918.101335,501.356047 C924.547378,507.793496 932.28263,511.012219 941.332874,511.012219 C950.533525,511.012219 958.346129,507.793496 964.783579,501.356047 C970.120255,496.026484 973.238979,489.754366 974.154384,482.532374 L1650.11739,482.532374 C1651.03764,489.754366 1654.16987,496.026484 1659.49944,501.356047 C1665.94548,507.793496 1673.68073,511.012219 1682.70949,511.012219 C1691.91444,511.012219 1699.71845,507.793496 1706.16449,501.356047 C1712.61053,494.918601 1715.83355,487.105996 1715.83355,477.905342 C1715.83355,468.859396 1712.61053,461.124144 1706.16449,454.682399 C1699.71845,448.24495 1691.91444,445.030522 1682.70949,445.030522 C1673.68503,445.030522 1665.94548,448.24495 1659.49944,454.682399 C1654.6418,459.543276 1651.60958,465.140688 1650.41387,471.482014 L973.859372,471.482014 L973.859372,471.482014 Z M131.323089,171.980432 C111.929094,171.980432 95.7924989,178.843319 82.9691701,192.560499 C70.1415442,206.277679 63.7212852,223.862485 63.7212852,245.327808 C63.7212852,266.94354 70.2532759,284.721727 83.3129594,298.670964 C96.3726428,312.620201 112.444777,319.59482 131.546551,319.59482 C151.267146,319.59482 167.60142,312.73623 180.575156,299.01905 C193.570379,285.301871 200.06799,267.326005 200.06799,245.095751 C200.06799,223.338206 193.570379,205.706129 180.575156,192.212413 C167.597122,178.72729 151.185496,171.980432 131.323089,171.980432 L131.323089,171.980432 Z M323.286254,120.472249 L386.758291,120.472249 L386.758291,240.948796 C386.758291,264.399501 388.369802,280.695098 391.597122,289.814101 C394.81155,298.933103 400.011356,306.019453 407.153572,311.073151 C414.300086,316.135444 423.088191,318.670887 433.55227,318.670887 C443.99486,318.670887 452.851723,316.178417 460.157237,311.197774 C467.462752,306.208537 472.873133,298.898724 476.418457,289.238254 C479.031252,282.035875 480.32046,266.625535 480.32046,243.028719 L480.32046,120.472249 L543.096327,120.472249 L543.096327,226.470983 C543.096327,270.162264 539.641248,300.050417 532.752576,316.139741 C524.321151,335.761496 511.906072,350.819453 495.498745,361.322206 C479.104306,371.816363 458.257802,377.076335 432.967827,377.076335 C405.529169,377.076335 383.333295,370.944 366.397391,358.679328 C349.45719,346.423252 337.549199,329.328345 330.647636,307.411799 C325.744345,292.229218 323.286254,264.648748 323.286254,224.63601 L323.286254,120.472249 L323.286254,120.472249 L323.286254,120.472249 Z M790.723223,23.9062254 L853.49909,23.9062254 L853.49909,370.630291 L790.723223,370.630291 L790.723223,344.192921 C778.45855,355.843069 766.185284,364.235818 753.86045,369.362572 C741.548507,374.493622 728.175119,377.07204 713.791845,377.07204 C681.475683,377.07204 653.538532,364.536633 629.9675,339.478715 C606.387874,314.416499 594.591615,283.256326 594.591615,246.011089 C594.591615,207.390695 606.00541,175.736326 628.828701,151.047981 C651.643396,126.376825 679.335597,114.039098 711.956874,114.039098 C726.963263,114.039098 741.045716,116.875357 754.212835,122.543578 C767.371356,128.216096 779.541486,136.720576 790.727522,148.061314 L790.727522,23.9062254 L790.723223,23.9062254 L790.723223,23.9062254 Z M724.737227,171.980432 C705.343234,171.980432 689.210935,178.843319 676.387608,192.560499 C663.559982,206.277679 657.139723,223.862485 657.139723,245.327808 C657.139723,266.94354 663.676011,284.721727 676.735694,298.670964 C689.795378,312.620201 705.867511,319.59482 724.964989,319.59482 C744.685583,319.59482 761.019856,312.73623 773.993594,299.01905 C786.993111,285.301871 793.490723,267.326005 793.490723,245.095751 C793.490723,223.338206 786.993111,205.706129 773.993594,192.212413 C761.015558,178.72729 744.603932,171.980432 724.737227,171.980432 L724.737227,171.980432 Z M910.056673,120.472249 L972.832536,120.472249 L972.832536,370.630291 L910.056673,370.630291 L910.056673,120.472249 L910.056673,120.472249 Z M1280.47639,263.716221 L1078.83987,263.716221 C1081.74918,281.503003 1089.51881,295.641324 1102.18314,306.139779 C1114.81308,316.62964 1130.94538,321.881017 1150.57144,321.881017 C1174.02644,321.881017 1194.17247,313.685947 1211.03962,297.287213 L1263.91866,322.108777 C1250.73865,340.815194 1234.96303,354.648403 1216.55743,363.6127 C1198.17331,372.581295 1176.31693,377.067741 1151.03125,377.067741 C1111.79633,377.067741 1079.83685,364.691338 1055.1614,339.929938 C1030.46876,315.172835 1018.12673,284.171664 1018.12673,246.926427 C1018.12673,208.757256 1030.43008,177.072806 1055.02818,151.851587 C1079.64777,126.643262 1110.48134,114.034801 1147.58906,114.034801 C1186.98298,114.034801 1219.01552,126.643262 1243.68668,151.851587 C1268.36213,177.072806 1280.69986,210.373065 1280.69986,251.748067 L1280.47639,263.716221 L1280.47639,263.716221 Z M1217.69623,214.283664 C1213.55357,200.334427 1205.38429,188.993688 1193.17548,180.261449 C1180.97097,171.520614 1166.81117,167.154494 1150.67887,167.154494 C1133.18001,167.154494 1117.82124,172.057784 1104.61544,181.864364 C1096.33013,187.9967 1088.65934,198.804566 1081.59447,214.283664 L1217.69623,214.283664 L1217.69623,214.283664 Z M1331.2884,120.472249 L1394.04708,120.472249 L1394.04708,146.114609 C1408.27994,134.116374 1421.18062,125.7666 1432.73193,121.07388 C1444.29613,116.385458 1456.12247,114.039098 1468.21955,114.039098 C1493.00673,114.039098 1514.05521,122.693986 1531.35639,140.016652 C1545.88148,154.726523 1553.15262,176.501256 1553.15262,205.315069 L1553.15262,370.625996 L1491.06862,370.625996 L1491.06862,261.07764 C1491.06862,231.228163 1489.73214,211.400134 1487.06778,201.610744 C1484.38193,191.804163 1479.72788,184.343942 1473.05838,179.21719 C1466.41036,174.081842 1458.20669,171.520614 1448.40441,171.520614 C1435.7143,171.520614 1424.82049,175.770705 1415.73157,184.270887 C1406.62116,192.766772 1400.30833,204.511463 1396.80169,219.517851 C1394.96242,227.330456 1394.04278,244.240576 1394.04278,270.278292 L1394.04278,370.63459 L1331.2841,370.63459 L1331.2841,120.472249 L1331.2884,120.472249 L1331.2884,120.472249 Z M1766.97646,155.426993 L1728.12401,194.279444 C1712.32691,178.64564 1698.0081,170.824441 1685.1246,170.824441 C1678.08123,170.824441 1672.55482,172.319923 1668.57546,175.310887 C1664.57892,178.297554 1662.58924,182.014772 1662.58924,186.462542 C1662.58924,189.835971 1663.86126,192.942964 1666.3967,195.770628 C1668.91066,198.615482 1675.16332,202.487405 1685.12031,207.390695 L1708.11979,218.890436 C1732.34832,230.8414 1748.96622,243.028719 1758.01216,255.435204 C1767.04951,267.863175 1771.57034,282.418341 1771.57034,299.11789 C1771.57034,321.348144 1763.42254,339.895559 1747.08397,354.760134 C1730.76689,369.633306 1708.88902,377.067741 1681.45895,377.067741 C1644.97865,377.067741 1615.84683,362.813391 1594.08499,334.304691 L1632.70538,292.220623 C1640.06676,300.806753 1648.69157,307.742695 1658.56691,313.037046 C1668.46803,318.318504 1677.23465,320.961381 1684.89685,320.961381 C1693.17356,320.961381 1699.84737,318.980297 1704.89247,314.988048 C1709.96336,311.000096 1712.48161,306.410513 1712.48161,301.184921 C1712.48161,291.533046 1703.37121,282.108931 1685.1246,272.908278 L1663.97728,262.33247 C1623.51332,241.950082 1603.26845,216.428048 1603.26845,185.766369 C1603.26845,165.994206 1610.89197,149.092681 1626.1562,135.078983 C1641.40324,121.048096 1660.91756,114.039098 1684.66908,114.039098 C1700.90882,114.039098 1716.19883,117.593017 1730.53913,124.735233 C1744.87083,131.864556 1757.01947,142.083683 1766.97646,155.426993 L1766.97646,155.426993 Z M2071.62505,263.716221 L1869.98423,263.716221 C1872.89784,281.503003 1880.66747,295.641324 1893.3318,306.139779 C1905.96604,316.62964 1922.10264,321.881017 1941.7201,321.881017 C1965.1751,321.881017 1985.32113,313.685947 2002.18828,297.287213 L2055.06732,322.108777 C2041.88731,340.815194 2026.11169,354.648403 2007.71039,363.6127 C1989.32197,372.581295 1967.46129,377.067741 1942.17132,377.067741 C1902.945,377.067741 1870.98551,364.691338 1846.30577,339.929938 C1821.61742,315.172835 1809.2754,284.171664 1809.2754,246.926427 C1809.2754,208.757256 1821.57874,177.072806 1846.17685,151.851587 C1870.79643,126.643262 1901.62571,114.034801 1938.73773,114.034801 C1978.12735,114.034801 2010.16418,126.643262 2034.83534,151.851587 C2059.50649,177.072806 2071.84852,210.373065 2071.84852,251.748067 L2071.62505,263.716221 L2071.62505,263.716221 Z M2008.85349,214.283664 C2004.69794,200.334427 1996.53295,188.993688 1984.33274,180.261449 C1972.12823,171.520614 1957.96413,167.154494 1941.83613,167.154494 C1924.33297,167.154494 1908.9742,172.057784 1895.7684,181.864364 C1887.48738,187.9967 1879.8037,198.804566 1872.74744,214.283664 L2008.85349,214.283664 L2008.85349,214.283664 Z M2131.09195,311.086043 C2140.2969,311.086043 2148.10951,314.30047 2154.55555,320.742216 C2160.993,327.183962 2164.22462,334.919213 2164.22462,343.960863 C2164.22462,353.161515 2160.993,360.978417 2154.55555,367.411568 C2148.10951,373.853313 2140.2969,377.07204 2131.09195,377.07204 C2122.06319,377.07204 2114.33224,373.853313 2107.8862,367.411568 C2101.44875,360.978417 2098.21713,353.161515 2098.21713,343.960863 C2098.21713,334.919213 2101.44875,327.183962 2107.8862,320.742216 C2114.33224,314.30047 2122.06749,311.086043 2131.09195,311.086043 L2131.09195,311.086043 Z M2131.09195,213.106187 C2140.2969,213.106187 2148.10951,216.316317 2154.55555,222.758062 C2160.993,229.204105 2164.22462,236.939357 2164.22462,245.972413 C2164.22462,255.177362 2160.993,262.998561 2154.55555,269.427415 C2148.10951,275.869161 2140.2969,279.092182 2131.09195,279.092182 C2122.06319,279.092182 2114.33224,275.869161 2107.8862,269.427415 C2101.44875,262.998561 2098.21713,255.177362 2098.21713,245.972413 C2098.21713,236.93506 2101.44875,229.204105 2107.8862,222.758062 C2114.33224,216.316317 2122.06749,213.106187 2131.09195,213.106187 L2131.09195,213.106187 Z M130.515185,1.5771319 C139.720134,1.5771319 147.528441,4.7872614 153.970187,11.2290072 C160.411933,17.670753 163.617765,25.4017074 163.617765,34.4476547 C163.617765,43.6483068 160.411933,51.4695061 153.970187,57.9026572 C147.528441,64.3401054 139.720134,67.563127 130.515185,67.563127 C121.469237,67.563127 113.729688,64.3401054 107.29224,57.9026572 C100.867683,51.4695061 97.6360673,43.6483068 97.6360673,34.4476547 C97.6360673,25.4060048 100.867683,17.670753 107.29224,11.2290072 C113.729688,4.7872614 121.469237,1.5771319 130.515185,1.5771319 L130.515185,1.5771319 Z" id="Combined-Shape"></path>
                            </g>
                        </g>
                    </g>
                </g>
            </g>
        </g>
    </g>
</svg>