<?xml version="1.0" encoding="utf-8"?>
<!-- Generator: Adobe Illustrator 18.1.1, SVG Export Plug-In . SVG Version: 6.00 Build 0)  -->
<svg version="1.1" id="Layer_1" xmlns="http://www.w3.org/2000/svg" xmlns:xlink="http://www.w3.org/1999/xlink" x="0px" y="0px"
	 viewBox="-167 210.5 1062.1 562.5" enable-background="new -167 210.5 1062.1 562.5" xml:space="preserve">
<g id="_x32_px_Stroke" display="none">
	<path display="inline" fill="#A9A9A9" d="M31,212.5v196h-196v-196H31 M33,210.5h-200v200H33V210.5L33,210.5z"/>
</g>
<g display="none">
	<rect x="-167" y="210.5" display="inline" fill="#F6F7FB" width="200" height="200"/>
	
		<text transform="matrix(1 0 0 1 -132.8145 320.3696)" display="inline" fill="#A3A3A3" font-family="'PTSans-Caption'" font-size="32.0585">Eurostar</text>
</g>
<path fill="#F0A749" d="M100.2,281.5c60.5-28.5,133.8-26.8,193.8,2.3c41.5,19.7,76.4,52.7,98.7,92.8c-13.9,7-27.8,13.9-41.7,20.8
	c-22.1-40-57.7-72.2-99.8-90.1c-55.4-24.2-121.6-23.5-175.7,4C45.3,325.9,20.2,349-0.6,375.2C22.6,334.7,57.8,301.1,100.2,281.5
	L100.2,281.5z"/>
<path fill="#E15436" d="M57.6,406.2c29.4-45.7,81.1-77.5,136.1-77c55.3-0.6,107.9,31.6,135.9,78.8c-13.8,6.9-27.7,13.7-41.5,20.6
	c-25.1-41.6-71.3-70.2-120.4-70.6C125.9,356.3,86.2,376.7,57.6,406.2L57.6,406.2z"/>
<path fill="#191918" d="M-63.6,381.8c85.6,42.9,171.3,85.7,257,128.5c85.6-42.8,171.3-85.6,257-128.5c-0.1,12.1-0.1,24.1,0,36.2
	c-85.7,42.8-171.3,85.6-257,128.5C107.7,503.6,22.1,460.8-63.6,418C-63.6,405.9-63.6,393.8-63.6,381.8L-63.6,381.8z"/>
<path fill="#84164D" d="M120.2,437.5c15.8-21.8,38.7-40.6,66.7-42.3c32.6-3.4,63.3,16.6,79.9,43.7c-13.8,7-27.7,13.8-41.5,20.7
	c-12.9-19.5-33.3-35.4-57.3-36.8C150.6,420.8,134.4,428.4,120.2,437.5L120.2,437.5z"/>
<path fill="#191918" d="M654.2,540.6c18,0,36,0,53.9,0c0,75.9,0,151.8,0,227.7c-18,0-36,0-53.9,0
	C654.2,692.3,654.2,616.5,654.2,540.6L654.2,540.6z"/>
<path fill="#191918" d="M396.3,540.6c18,0,36,0,54,0c0,13.7,0,27.4,0,41.2c-18,0-36,0-54,0C396.3,568.1,396.4,554.3,396.3,540.6
	L396.3,540.6z"/>
<path fill="#191918" d="M28.4,602.8c18,0,36,0,54,0c0.1,32.6-0.2,65.3,0.1,97.9c-0.3,11.4,5.1,24.7,17.6,26.8
	c17.7,5.6,37.2-7.9,38.3-26.4c2-32.7,0.3-65.6,0.9-98.4c18,0,36,0,54,0c0,55.1,0,110.3,0,165.5c-17.5,0-35,0-52.4,0
	c0-7.7,0.1-15.4,0.3-23c-10.8,14.1-26.2,25.2-44.3,27.2c-18.5,1.8-39.7-1.2-53-15.5c-12.1-13.4-14.8-32.3-15.3-49.7
	C28.3,672.4,28.5,637.6,28.4,602.8L28.4,602.8z"/>
<path fill="#191918" d="M396.3,602.8c18,0,36,0,54,0c0,55.2,0,110.3,0,165.5c-18,0-36,0-54,0C396.4,713.1,396.4,657.9,396.3,602.8
	L396.3,602.8z"/>
<path fill="#191918" d="M895.1,698.5c0.5-25.9-4.8-53.4-22.2-73.5c-31.7-36.4-94-35.3-127.6-2.2c-34.2,32-34.7,92.3-2.2,125.6
	c27.1,26.2,70.1,30,104.5,17.8c21.8-7.5,38.2-26.1,44.9-47.9c-16.7-0.2-33.4,0-50.1-0.1c-11.2,20.3-41.8,24.3-58.2,8.3
	c-7.8-7.2-9.5-18.1-11.7-27.9C813.3,698.3,854.1,698.7,895.1,698.5z M772.6,668.2c2.7-8,5-16.6,10.9-22.9
	c10.7-12.4,31.5-14.8,44.2-4c8.5,6.4,11.3,17.1,13.8,26.9C818.5,668.6,795.5,668.5,772.6,668.2z"/>
<path fill="#191918" d="M322.3,540.6c0.1,26.7-0.3,53.5,0.3,80.2c-20.2-26.2-60.9-30-86.9-10.7c-20.2,15-29.6,40.6-30.8,65
	c-1.2,26,3.9,53.7,20.8,74.2c16.8,20.8,47,28.6,72.1,20.4c11.3-3.6,19.8-12.4,27.4-21c-0.2,6.5-0.2,13-0.3,19.5
	c17.1,0,34.3,0,51.4,0c0-75.9,0-151.8,0-227.7C358.2,540.6,340.3,540.6,322.3,540.6z M318.3,715.8c-7.6,17.8-34.1,21.2-47.1,7.6
	c-11.2-12.2-13.3-29.9-12.3-45.8c0.8-14.1,6.6-29.9,20.3-36c13.6-5.7,31.5-1.4,38.3,12.5C326.6,673.1,326.6,696.6,318.3,715.8z"/>
<path fill="#191918" d="M615.5,614.4c-25.5-23.8-70.9-21.7-92.1,6.8c0.4-26.9,0.1-53.7,0.2-80.5c-18,0-36,0-53.9,0
	c0,75.9,0,151.8,0,227.7c17.1,0,34.2,0,51.4,0c-0.1-6.5-0.2-13-0.3-19.5c8.2,9.2,17.4,18.4,29.6,21.7c22.4,6.2,48.4,0.6,65.1-15.9
	c18.5-18.1,25.3-44.9,25.8-70.1C641.9,659.2,634.6,632,615.5,614.4z M586.6,694.7c-1.5,11-4.9,22.5-13.3,30.2
	c-12.9,11.4-36.5,8.4-44.9-7.1c-6.4-12-7.1-26.2-6.6-39.5c0.7-14.7,6.9-31.4,21.8-36.9c11.4-4.2,25.9-2.2,33.6,8
	C587.2,662,588.2,679.2,586.6,694.7z"/>
<path fill="#191918" d="M11.7,684.6c-0.9-19.3,3.1-39.9-5.6-57.9c-8.8-17.9-29.4-25.3-48-27.3c-26.7-2.6-55.9-2.5-79.3,12.3
	c-14.4,8.9-21.2,25.5-23,41.8c16.6,0.1,33.2,0,49.8,0.1c3.6-7.1,7-15.6,15.2-18.4c11.1-3.7,24.7-3.2,34.2,4.2
	c8.6,6.3,6.8,22.6-4.3,25c-23.9,6.4-49.7,5.1-72.7,15c-13.2,5.3-24.8,16.6-26.9,31c-1.7,14.9-1.9,31.9,8.4,44
	c12.5,15.6,34.1,19.9,53.1,18.5c17.7-0.7,34.8-7.9,48-19.7c0.9,5,1.8,10.1,2.8,15.2c18,0.1,36.1-0.1,54.1,0.2
	C8.1,741.5,12.8,712.5,11.7,684.6z M-46.8,728c-8.2,12.5-26.1,13.7-39.1,9.4c-13.7-5.1-14.1-26.7-1.2-33.1
	c14.8-7.3,31.8-7.8,47.3-13C-40.6,703.7-40,717.1-46.8,728z"/>
</svg>
