<?xml version="1.0" encoding="UTF-8" standalone="no"?>
<svg width="506px" height="506px" viewBox="0 0 506 506" version="1.1" xmlns="http://www.w3.org/2000/svg" xmlns:xlink="http://www.w3.org/1999/xlink">
    <!-- Generator: Sketch 3.6.1 (26313) - http://www.bohemiancoding.com/sketch -->
    <title>B&amp;Q</title>
    <desc>Created with Sketch.</desc>
    <defs></defs>
    <g id="Page-1" stroke="none" stroke-width="1" fill="none" fill-rule="evenodd">
        <g id="B&amp;Q" transform="translate(-2.000000, -4.000000)">
            <g id="g2412" transform="translate(254.575090, 256.979124) scale(1, -1) translate(-254.575090, -256.979124) translate(0.869910, 1.999044)">
                <path d="M1.1699251,507.879522 L506.777575,507.879522 L506.777575,2.27187251 L1.1699251,2.27187251 L1.1699251,507.879522 L1.1699251,507.879522 Z" id="path3298" fill="#E47E35"></path>
                <path d="M1.1699251,507.879522 L506.777575,507.879522 L506.777575,2.27187251 L1.1699251,2.27187251 L1.1699251,507.879522 L1.1699251,507.879522 Z" id="path3300" fill="#F2A845"></path>
                <path d="M455.835997,176.304421 C457.726674,227.477877 431.132175,255.989826 383.00879,255.989826 C338.417084,255.989826 312.491449,223.571659 312.491449,175.305562 C312.491449,124.40858 338.417084,94.3091761 383.00879,94.3091761 L460.313014,94.3091761 L460.313014,123.712969 L436.206712,123.712969 C447.158438,134.504159 454.970926,153.214827 455.835997,176.304421 L455.835997,176.304421 Z M363.013865,175.305562 C363.013865,202.319248 370.656892,215.27759 383.00879,215.27759 C395.360714,215.27759 403.012641,202.319248 403.012641,175.305562 C403.012641,148.30975 395.360714,135.360306 383.00879,135.360306 C370.656892,135.360306 363.013865,148.30975 363.013865,175.305562 L363.013865,175.305562 Z" id="path3302" fill="#FFFFFF"></path>
                <path d="M156.8307,176.670088 C174.622776,185.971914 179.643818,197.182266 179.420864,214.751414 C179.135465,237.359401 162.993262,253.679987 130.093488,253.679987 L51.6209976,253.679987 L51.6209976,94.1575649 L131.44909,94.1575649 C159.104867,94.1575649 183.273587,109.318757 183.273587,138.865211 C183.273587,158.458824 173.775554,171.292328 156.8307,176.670088 L156.8307,176.670088 Z M102.910394,219.451385 L113.353766,219.451385 C122.503981,219.451385 127.400159,213.413661 127.400159,205.137441 C127.400159,196.861221 122.503981,190.154607 113.353766,190.154607 L102.910394,190.154607 L102.910394,219.451385 L102.910394,219.451385 Z M115.503095,128.404016 L102.910394,128.404016 L102.910394,160.661648 L115.503095,160.661648 C124.769249,160.661648 130.361039,154.12452 130.361039,144.858339 C130.361039,135.574362 124.769249,128.404016 115.503095,128.404016 L115.503095,128.404016 Z" id="path3304" fill="#FFFFFF"></path>
                <path d="M314.462419,94.6123984 C313.044398,104.056937 307.943114,114.812456 300.228743,126.477641 C303.394754,129.483117 306.61426,132.666977 309.940806,136.145135 L291.399573,157.468889 C288.438693,154.686368 285.549157,151.957342 282.739863,149.317533 C278.164755,154.659621 273.188309,160.126547 267.837323,165.709437 C283.91708,176.143885 291.479841,186.507015 291.479841,203.041632 C291.479841,219.531627 274.838209,234.790935 248.101023,234.790935 C220.088504,234.790935 205.747812,217.516086 205.747812,198.849989 C205.747812,188.049874 212.293865,178.614285 219.74961,170.355888 C205.765635,161.392956 193.708035,149.513715 192.753772,134.227684 C191.041453,106.750266 211.651748,91.2591044 237.50604,92.3560542 C248.002907,92.8019888 259.908896,96.5387729 273.607471,105.216306 C275.819245,101.203047 277.397775,97.5643793 277.950725,94.6123984 L314.462419,94.6123984 L314.462419,94.6123984 Z M249.376331,211.603225 C256.386167,211.603225 261.540972,206.528688 260.212143,199.331595 C259.543254,195.817766 257.179895,190.84132 247.994008,185.347621 C242.161415,191.001855 238.067888,195.65723 238.067888,200.053979 C238.067888,206.930027 242.393269,211.603225 249.376331,211.603225 L249.376331,211.603225 Z M232.377982,126.682773 C228.471739,130.811946 226.456198,140.952121 239.708864,149.397775 C245.202563,143.31548 251.659449,135.841912 257.732819,128.154288 C247.583745,121.403104 239.102419,119.556998 232.377982,126.682773 L232.377982,126.682773 Z" id="path3306" fill="#FFFFFF"></path>
            </g>
        </g>
    </g>
</svg>