<?xml version="1.0" encoding="UTF-8" standalone="no"?>
<!-- Created with Inkscape (http://www.inkscape.org/) -->

<svg
   xmlns:dc="http://purl.org/dc/elements/1.1/"
   xmlns:cc="http://creativecommons.org/ns#"
   xmlns:rdf="http://www.w3.org/1999/02/22-rdf-syntax-ns#"
   xmlns:svg="http://www.w3.org/2000/svg"
   xmlns="http://www.w3.org/2000/svg"
   xmlns:sodipodi="http://sodipodi.sourceforge.net/DTD/sodipodi-0.dtd"
   xmlns:inkscape="http://www.inkscape.org/namespaces/inkscape"
   width="300"
   height="89.859566"
   id="svg3580"
   version="1.1"
   inkscape:version="0.48.2 r9819"
   sodipodi:docname="New document 4">
  <defs
     id="defs3582">
    <clipPath
       id="clipPath3173"
       clipPathUnits="userSpaceOnUse">
      <path
         inkscape:connector-curvature="0"
         id="path3175"
         d="M 0,0 612,0 612,792 0,792 0,0 z" />
    </clipPath>
  </defs>
  <sodipodi:namedview
     id="base"
     pagecolor="#ffffff"
     bordercolor="#666666"
     borderopacity="1.0"
     inkscape:pageopacity="0.0"
     inkscape:pageshadow="2"
     inkscape:zoom="2.8"
     inkscape:cx="118.74566"
     inkscape:cy="53.490742"
     inkscape:document-units="px"
     inkscape:current-layer="g3171"
     showgrid="false"
     fit-margin-left="0.2"
     fit-margin-top="0.2"
     fit-margin-bottom="0.2"
     fit-margin-right="0.2"
     inkscape:window-width="879"
     inkscape:window-height="798"
     inkscape:window-x="719"
     inkscape:window-y="-18"
     inkscape:window-maximized="0" />
  <metadata
     id="metadata3585">
    <rdf:RDF>
      <cc:Work
         rdf:about="">
        <dc:format>image/svg+xml</dc:format>
        <dc:type
           rdf:resource="http://purl.org/dc/dcmitype/StillImage" />
        <dc:title></dc:title>
      </cc:Work>
    </rdf:RDF>
  </metadata>
  <g
     inkscape:label="Layer 1"
     inkscape:groupmode="layer"
     id="layer1"
     transform="translate(-463.29793,-751.81551)">
    <g
       transform="matrix(1.25,0,0,-1.25,335.0143,976.70708)"
       id="g3169"
       style="fill:#000000">
      <g
         clip-path="url(#clipPath3173)"
         id="g3171"
         style="fill:#000000">
        <g
           id="g3673"
           transform="matrix(3.0167409,0,0,3.0167409,-207.29454,-218.18232)">
          <g
             style="fill:#000000"
             id="g3189"
             transform="translate(105.9599,112.6834)">
            <path
               inkscape:connector-curvature="0"
               d="m 0,0 c 0,-1.05 -1.099,-1.133 -1.577,-1.133 -0.232,0 -0.408,0.018 -0.408,0.018 l 0,2.097 c 0,0 0.224,0.017 0.642,0.017 C -0.701,0.999 0,0.725 0,0 m 1.438,-2.765 c 0,1.381 -1.928,1.497 -1.928,1.497 0,0 1.315,0.336 1.315,1.319 0,1.117 -1.486,1.292 -2.148,1.292 l -1.85,0 c 0.175,-0.066 0.272,-0.185 0.272,-0.377 l 0,-4.925 c 0,-0.184 -0.097,-0.303 -0.272,-0.379 l 2.104,0 c 2.084,0 2.507,0.922 2.507,1.573 m -0.93,0.084 c 0,-1.244 -1.422,-1.321 -2.035,-1.321 -0.282,0 -0.458,0.019 -0.458,0.019 l 0,2.48 c 0,0 0.477,0.016 0.778,0.016 0.819,0 1.715,-0.216 1.715,-1.194"
               style="fill:#000000;fill-opacity:1;fill-rule:nonzero;stroke:none"
               id="path3191" />
          </g>
          <g
             style="fill:#000000"
             id="g3193"
             transform="translate(166.2555,112.6834)">
            <path
               inkscape:connector-curvature="0"
               d="m 0,0 c 0,-1.05 -1.099,-1.133 -1.576,-1.133 -0.233,0 -0.409,0.018 -0.409,0.018 l 0,2.097 c 0,0 0.224,0.017 0.644,0.017 C -0.701,0.999 0,0.725 0,0 m 1.438,-2.765 c 0,1.381 -1.929,1.497 -1.929,1.497 0,0 1.317,0.336 1.317,1.319 0,1.117 -1.487,1.292 -2.149,1.292 l -1.85,0 C -3,1.277 -2.901,1.158 -2.901,0.966 l 0,-4.925 c 0,-0.184 -0.099,-0.303 -0.272,-0.379 l 2.104,0 c 2.084,0 2.507,0.922 2.507,1.573 m -0.93,0.084 c 0,-1.244 -1.422,-1.321 -2.036,-1.321 -0.281,0 -0.457,0.019 -0.457,0.019 l 0,2.48 c 0,0 0.478,0.016 0.779,0.016 0.818,0 1.714,-0.216 1.714,-1.194"
               style="fill:#000000;fill-opacity:1;fill-rule:nonzero;stroke:none"
               id="path3195" />
          </g>
          <g
             style="fill:#000000"
             id="g3197"
             transform="translate(111.4669,110.394)">
            <path
               inkscape:connector-curvature="0"
               d="m 0,0 -2.189,0 c 0.428,0.901 1.09,2.338 1.09,2.338 0,0 0.593,-1.288 1.099,-2.338 m 2.315,-2.051 c -0.34,0.135 -0.409,0.235 -0.486,0.41 -0.156,0.318 -2.665,5.404 -2.665,5.404 0,0 -2.501,-5.086 -2.667,-5.404 C -3.59,-1.8 -3.677,-1.892 -3.95,-2.051 l 1.187,0 c -0.253,0.085 -0.282,0.22 -0.206,0.41 0.041,0.102 0.293,0.654 0.615,1.28 l 2.519,0 c 0.301,-0.645 0.574,-1.178 0.633,-1.28 0.077,-0.19 0.009,-0.309 -0.244,-0.41 l 1.761,0 z"
               style="fill:#000000;fill-opacity:1;fill-rule:nonzero;stroke:none"
               id="path3199" />
          </g>
          <g
             style="fill:#000000"
             id="g3201"
             transform="translate(119.5479,113.6439)">
            <path
               inkscape:connector-curvature="0"
               d="m 0,0 0,-5.456 c 0,0 -4.637,4.822 -4.637,4.906 l 0,-4.374 c 0,-0.182 0.098,-0.3 0.274,-0.375 l -0.981,0 c 0.146,0.075 0.252,0.193 0.252,0.375 l 0,4.607 c 0,0.241 0,0.259 -0.117,0.392 -0.107,0.1 -0.224,0.216 -0.447,0.301 l 1.34,0 3.853,-4.064 0,3.688 c 0,0.191 -0.108,0.308 -0.255,0.376 l 0.981,0 C 0.108,0.308 0,0.191 0,0"
               style="fill:#000000;fill-opacity:1;fill-rule:nonzero;stroke:none"
               id="path3203" />
          </g>
          <g
             style="fill:#000000"
             id="g3205"
             transform="translate(124.0578,110.394)">
            <path
               inkscape:connector-curvature="0"
               d="m 0,0 -2.189,0 c 0.428,0.901 1.09,2.335 1.09,2.335 0,0 0.594,-1.285 1.099,-2.335 m 2.315,-2.051 c -0.34,0.135 -0.409,0.235 -0.486,0.41 -0.156,0.318 -2.666,5.404 -2.666,5.404 0,0 -2.499,-5.086 -2.666,-5.404 -0.087,-0.159 -0.175,-0.251 -0.446,-0.41 l 1.186,0 c -0.253,0.085 -0.282,0.218 -0.204,0.41 0.039,0.102 0.292,0.651 0.613,1.28 l 2.519,0 c 0.301,-0.645 0.574,-1.178 0.633,-1.28 0.078,-0.192 0.009,-0.309 -0.244,-0.41 l 1.761,0 z"
               style="fill:#000000;fill-opacity:1;fill-rule:nonzero;stroke:none"
               id="path3207" />
          </g>
          <g
             style="fill:#000000"
             id="g3209"
             transform="translate(132.3168,113.6426)">
            <path
               inkscape:connector-curvature="0"
               d="m 0,0 0,-5.457 c 0,0 -4.638,4.822 -4.638,4.907 l 0,-4.372 c 0,-0.183 0.097,-0.302 0.273,-0.378 l -0.98,0 c 0.147,0.076 0.252,0.195 0.252,0.378 l 0,4.604 c 0,0.243 0,0.26 -0.116,0.393 -0.108,0.101 -0.224,0.218 -0.448,0.3 l 1.341,0 3.852,-4.062 0,3.687 c 0,0.193 -0.108,0.309 -0.253,0.375 l 0.98,0 C 0.107,0.309 0,0.193 0,0"
               style="fill:#000000;fill-opacity:1;fill-rule:nonzero;stroke:none"
               id="path3211" />
          </g>
          <g
             style="fill:#000000"
             id="g3213"
             transform="translate(136.7267,110.394)">
            <path
               inkscape:connector-curvature="0"
               d="m 0,0 -2.188,0 c 0.427,0.903 1.089,2.338 1.089,2.338 0,0 0.593,-1.285 1.099,-2.338 m 2.315,-2.049 c -0.34,0.133 -0.409,0.233 -0.486,0.411 -0.157,0.316 -2.666,5.402 -2.666,5.402 0,0 -2.5,-5.086 -2.664,-5.402 -0.088,-0.16 -0.177,-0.251 -0.449,-0.411 l 1.188,0 c -0.254,0.083 -0.283,0.218 -0.205,0.411 0.039,0.099 0.293,0.651 0.612,1.277 l 2.52,0 C 0.467,-1.003 0.74,-1.539 0.798,-1.638 0.876,-1.831 0.808,-1.947 0.554,-2.049 l 1.761,0 z"
               style="fill:#000000;fill-opacity:1;fill-rule:nonzero;stroke:none"
               id="path3215" />
          </g>
          <g
             style="fill:#000000"
             id="g3217"
             transform="translate(144.3053,112.61)">
            <path
               inkscape:connector-curvature="0"
               d="m 0,0 c 0,-0.877 -0.729,-1.254 -1.47,-1.254 -0.253,0 -0.564,0.019 -0.564,0.019 l 0,2.289 c 0,0 0.292,0.03 0.729,0.03 C -0.272,1.084 0,0.39 0,0 m 2.474,-4.267 c 0,0 -0.409,0.135 -0.623,0.335 -0.417,0.393 -1.461,1.923 -1.461,1.923 -0.146,0.185 -0.42,0.537 -0.944,0.63 0.603,0.041 1.422,0.502 1.422,1.402 0,0.527 -0.304,1.387 -2.252,1.387 l -1.829,0 C -3.067,1.342 -2.95,1.237 -2.95,1.043 l 0,-4.933 c 0,-0.182 -0.117,-0.301 -0.263,-0.377 l 1.451,0 c -0.146,0.076 -0.272,0.195 -0.272,0.377 l 0,2.3 0.564,0 c 0.505,0 0.712,-0.361 0.964,-0.694 0.34,-0.468 0.691,-0.98 1.189,-1.606 0.147,-0.175 0.419,-0.4 0.798,-0.393 l 0.993,0.016 z"
               style="fill:#000000;fill-opacity:1;fill-rule:nonzero;stroke:none"
               id="path3219" />
          </g>
          <g
             style="fill:#000000"
             id="g3221"
             transform="translate(151.2567,108.3453)">
            <path
               inkscape:connector-curvature="0"
               d="m 0,0 -3.91,0 c 0.174,0.076 0.291,0.176 0.291,0.379 l 0.002,4.917 c 0,0.194 -0.119,0.312 -0.274,0.379 l 3.659,0 0.019,-0.645 C -0.407,5.22 -0.612,5.32 -1.03,5.32 l -1.673,0 0,-1.997 1.586,0 c 0.136,0 0.292,0.135 0.34,0.235 l 0,-0.814 c -0.048,0.1 -0.204,0.233 -0.34,0.233 l -1.586,0 0,-2.622 1.131,0 c 1.051,0.007 1.418,0.007 1.777,0.532 L 0,0 z"
               style="fill:#000000;fill-opacity:1;fill-rule:nonzero;stroke:none"
               id="path3223" />
          </g>
          <g
             style="fill:#000000"
             id="g3225"
             transform="translate(155.7596,112.4555)">
            <path
               inkscape:connector-curvature="0"
               d="m 0,0 c 0,-1.145 -1.135,-1.302 -1.658,-1.302 -0.205,0 -0.389,0.025 -0.476,0.058 l 0,2.455 c 0,0 0.203,0.026 0.65,0.026 C -0.504,1.237 0,0.76 0,0 m 0.831,0.018 c 0,0.651 -0.346,1.547 -2.289,1.547 l -1.858,0 C -3.17,1.498 -3.044,1.38 -3.044,1.186 l -0.002,-4.919 c 0,-0.185 -0.125,-0.302 -0.272,-0.377 l 1.45,0 c -0.165,0.075 -0.271,0.192 -0.271,0.377 l 0,2.22 c 0.747,-0.257 1.63,-0.066 1.93,0.051 0.302,0.118 1.04,0.567 1.04,1.48"
               style="fill:#000000;fill-opacity:1;fill-rule:nonzero;stroke:none"
               id="path3227" />
          </g>
          <g
             style="fill:#000000"
             id="g3229"
             transform="translate(162.1783,113.6414)">
            <path
               inkscape:connector-curvature="0"
               d="m 0,0 0,-3.497 c -0.011,-1.368 -1.031,-1.878 -2.245,-1.878 -1.07,0 -2.443,0.454 -2.443,1.863 l 0,3.513 c 0,0.193 -0.156,0.309 -0.303,0.375 l 1.559,0 C -3.588,0.31 -3.752,0.194 -3.752,0.001 l 0,-3.528 c 0,-0.577 0.232,-1.462 1.604,-1.462 1.304,0 1.725,0.71 1.715,1.459 l -0.002,3.531 c 0,0.193 -0.097,0.309 -0.253,0.375 l 0.95,0 C 0.107,0.31 0,0.194 0,0"
               style="fill:#000000;fill-opacity:1;fill-rule:nonzero;stroke:none"
               id="path3231" />
          </g>
          <g
             style="fill:#000000"
             id="g3233"
             transform="translate(172.6305,108.3453)">
            <path
               inkscape:connector-curvature="0"
               d="m 0,0 -3.872,0 c 0.165,0.076 0.271,0.195 0.271,0.379 l 0,4.92 c 0,0.193 -0.106,0.309 -0.271,0.376 l 1.46,0 C -2.567,5.608 -2.675,5.492 -2.675,5.299 l 0,-4.944 1.041,0 c 1.167,0.01 1.498,0.024 1.828,0.532 L 0,0 z"
               style="fill:#000000;fill-opacity:1;fill-rule:nonzero;stroke:none"
               id="path3235" />
          </g>
          <g
             style="fill:#000000"
             id="g3237"
             transform="translate(173.7233,108.3453)">
            <path
               inkscape:connector-curvature="0"
               d="m 0,0 c 0.156,0.076 0.262,0.195 0.262,0.378 l 0,4.921 C 0.262,5.492 0.156,5.608 0,5.676 l 1.442,0 C 1.295,5.608 1.188,5.492 1.188,5.299 l 0,-4.921 C 1.188,0.195 1.295,0.076 1.442,0 L 0,0 z"
               style="fill:#000000;fill-opacity:1;fill-rule:nonzero;stroke:none"
               id="path3239" />
          </g>
          <g
             style="fill:#000000"
             id="g3241"
             transform="translate(182.1476,108.8395)">
            <path
               inkscape:connector-curvature="0"
               d="m 0,0 c -0.806,-0.419 -1.721,-0.57 -2.452,-0.57 -1.926,0 -3.62,1.155 -3.62,2.904 0,1.421 1.257,2.935 3.728,2.935 0.806,0 1.538,-0.191 2.296,-0.479 0,0 0.108,-1.27 0.087,-1.235 -0.623,1.235 -1.829,1.361 -2.305,1.361 -1.858,0 -2.812,-1.12 -2.812,-2.475 0,-1.204 0.77,-2.641 2.801,-2.641 0.439,0 1.626,0.025 2.364,1.354 C 0.106,1.181 0,0 0,0"
               style="fill:#000000;fill-opacity:1;fill-rule:nonzero;stroke:none"
               id="path3243" />
          </g>
          <g
             style="fill:#000000"
             id="g3245"
             transform="translate(149.3448,121.4031)">
            <path
               inkscape:connector-curvature="0"
               d="M 0,0 C -0.888,0.874 -1.701,2.336 -2.314,3.337 -2.777,4.115 -3.427,4.79 -4.678,4.853 l 0,0.012 c 1.464,0.162 3.164,1.199 3.164,2.702 0,2.25 -2.739,2.939 -4.69,2.939 l -5.278,0 c -1.952,0 -4.691,-0.689 -4.691,-2.939 0,-1.64 1.989,-2.614 2.99,-2.578 l 0,-0.012 c -1.888,0 -3.752,-1.087 -3.752,-2.764 0,-2.127 1.626,-2.964 5.378,-2.964 l 5.328,0 c -0.288,0.1 -0.562,0.452 -0.562,0.775 l 0,4.464 0.525,0 c 1.063,0 1.876,-0.487 2.426,-1.424 0.575,-0.976 1.089,-1.852 1.901,-3.102 0.238,-0.362 0.713,-0.713 1.564,-0.713 l 1.651,0 C 0.663,-0.563 0.262,-0.264 0,0 m -10.894,-0.025 -0.901,0 c -2.076,0 -3.64,0.638 -3.64,2.263 0,1.614 1.527,2.25 3.64,2.25 l 0.901,0 0,-4.513 z m 0,5.265 -0.138,0 c -1.851,0 -3.639,0.577 -3.639,2.339 0,1.626 1.663,2.2 3.327,2.2 l 0.45,0 0,-4.539 z m 2.651,-5.265 -1.201,0 0,4.513 1.201,0 0,-4.513 z m 0,5.265 -1.201,0 0,4.538 1.201,0 0,-4.538 z m 1.613,0 -0.161,0 0,4.539 0.449,0 c 1.664,0 3.328,-0.574 3.328,-2.2 0,-1.563 -1.451,-2.339 -3.616,-2.339"
               style="fill:#000000;fill-opacity:1;fill-rule:nonzero;stroke:none"
               id="path3247" />
          </g>
        </g>
      </g>
    </g>
  </g>
</svg>
