<?xml version="1.0" encoding="UTF-8" standalone="no"?>
<svg width="971px" height="253px" viewBox="0 0 971 253" version="1.1" xmlns="http://www.w3.org/2000/svg" xmlns:xlink="http://www.w3.org/1999/xlink" xmlns:sketch="http://www.bohemiancoding.com/sketch/ns">
    <!-- Generator: Sketch 3.5.1 (25234) - http://www.bohemiancoding.com/sketch -->
    <title>Fill 1</title>
    <desc>Created with Sketch.</desc>
    <defs></defs>
    <g id="Decli" stroke="none" stroke-width="1" fill="none" fill-rule="evenodd" sketch:type="MSPage">
        <g id="Cadre" sketch:type="MSArtboardGroup" transform="translate(-619.000000, -471.000000)" fill="#52B3F2">
            <g sketch:type="MSLayerGroup" transform="translate(575.000000, 431.000000)" id="Fill-1">
                <path d="M774.539352,102.403778 C788.27185,102.403778 799.404566,91.2697998 799.404566,77.535144 C799.404566,63.8004882 788.27185,52.6665104 774.539352,52.6665104 C760.806855,52.6665104 749.675538,63.8004882 749.675538,77.535144 C749.675538,91.2697998 760.806855,102.403778 774.539352,102.403778 Z M1004.65143,40.7467363 L980.986009,40.7467363 C977.893432,40.7467363 974.922654,42.8258805 974.464857,45.3105067 L965.885721,110.218395 C965.658923,111.935402 966.885314,113.340607 968.626901,113.340607 L985.993771,113.340607 C989.044348,113.340607 992.339924,111.006988 993.354916,108.126667 L1013.39717,51.2403321 C1016.34694,45.2461888 1012.59917,40.7467363 1004.65143,40.7467363 Z M969.639093,252.724363 C969.605494,252.732752 968.510702,252.974643 968.194304,253.044554 C967.641308,253.164801 967.183512,253.264074 966.742515,253.354958 C964.470332,253.823359 962.654546,254.091816 960.75756,254.198081 C952.364623,254.663686 946.131869,246.568027 947.30646,237.009836 L947.748857,232.685161 C949.962241,216.593116 951.580628,204.428654 953.060417,192.535446 C954.981203,177.104757 955.612598,169.224423 955.236001,160.271659 C954.547206,143.866415 946.290068,132.461183 931.116981,127.655522 C923.075442,125.107976 914.409506,123.613285 905.94517,123.308475 C880.763558,122.405228 855.279549,127.286393 826.211566,137.557673 C819.924213,139.778037 816.560038,143.967086 815.900643,150.51632 C815.767644,151.83204 815.602445,152.946416 815.210448,155.29961 C814.95705,156.819469 814.850651,157.494806 814.735852,158.32954 C812.410469,175.243734 810.533083,188.909878 806.379314,219.156042 C805.518321,225.425634 805.171123,227.961994 804.709127,231.321902 C803.614335,239.300111 801.855948,247.482459 801.855948,247.482459 C800.096161,256.654743 792.317819,255.309661 789.55144,255.462066 C781.456701,255.9053 776.917935,251.903612 776.593137,243.922606 C776.455938,240.596255 776.587537,237.141268 776.964134,232.760664 C786.360864,167.568938 790.90103,135.647713 791.468026,130.151334 C791.871223,126.257308 790.751231,124.965358 786.96006,124.912226 C773.142163,124.71368 760.839055,124.737449 749.093143,125.024083 C744.05598,125.147126 742.151995,126.966202 741.4058,132.286407 C740.967603,135.40722 739.802812,143.473517 737.533429,159.115336 C737.103632,162.075355 736.644436,165.240912 736.000441,169.676046 C735.595844,172.464085 735.595844,172.464085 735.180047,175.324831 C734.76005,178.216337 734.585051,179.42719 734.331653,181.167967 C732.916264,190.923306 731.829872,198.400954 730.76868,205.726197 C730.71968,206.064565 730.71968,206.064565 730.67068,206.402933 C730.022485,210.880014 727.659303,228.817701 727.659303,228.817701 C726.649911,236.398817 726.563111,243.658344 727.277106,250.344603 C725.821117,251.664517 705.225871,269.33934 688.565995,227.645997 C688.166998,226.647673 687.782001,225.71786 687.408204,224.855162 C686.57381,222.703311 685.666617,220.364099 684.615225,217.65436 C684.055229,216.207209 682.011244,210.931748 682.154043,211.299478 C681.165651,208.750534 680.423656,206.836379 679.698462,204.966967 C679.369464,204.118251 679.663462,203.15628 680.409656,202.636144 C681.111051,202.145371 681.815246,201.667182 682.761639,201.032393 C683.016437,200.861811 683.89703,200.271764 683.89983,200.270366 C684.347827,199.971148 684.685224,199.744638 685.010022,199.52372 C686.831408,198.290495 688.113799,197.362081 689.30659,196.386128 C700.726304,187.051651 708.599846,174.382434 714.073805,157.834572 C717.464579,147.58846 718.998968,138.746155 718.529971,130.057653 C718.291973,125.64489 716.637185,123.625869 713.37241,123.572737 C701.616698,123.381182 689.445189,123.425925 676.579285,123.688789 C673.513308,123.751708 671.95092,125.289744 671.400724,128.7685 C671.148726,130.351278 671.001727,131.989985 670.872928,134.302631 C670.849128,134.755652 670.830928,135.108002 670.777728,136.155265 C670.147733,148.659492 666.51896,159.706781 659.656212,169.315307 C652.043068,179.973892 635.81439,186.061716 623.72268,182.736763 C622.773487,182.476695 622.161692,181.555272 622.289091,180.579319 C623.109485,174.302736 623.575681,170.740087 625.314468,157.447267 C628.442045,133.528021 630.010033,121.514566 631.82862,107.517046 C632.114217,105.309266 632.380215,103.281856 632.938811,99.0228963 C635.021996,83.1293981 635.916589,76.0558336 636.909182,67.2107321 C637.464977,62.2582582 636.203587,60.9649103 631.239224,61.3172602 C618.058323,62.2540635 606.554609,63.1726901 595.575891,64.184997 C588.904941,64.8002112 587.273953,66.4025644 586.113361,73.5082878 C585.621965,76.5130496 585.295768,78.9389508 584.587373,84.5751513 C584.259775,87.1940061 584.094577,88.4831594 583.888778,90.003018 C578.920215,126.790027 575.451041,152.448652 571.972067,178.139435 C570.818476,186.662948 569.891683,193.493223 567.809898,208.821843 C567.742699,209.308421 567.742699,209.308421 567.676899,209.795 C565.068719,228.99807 563.807328,238.303184 562.312139,249.364455 C562.139941,250.639626 562.067141,251.173744 561.967742,251.914797 C561.854343,252.755124 561.217348,253.429063 560.384354,253.588459 C557.402376,254.160329 555.158193,254.483316 552.92101,254.604961 C544.750671,255.045398 540.164305,251.05909 539.833908,243.090669 C539.693909,239.705593 539.822708,236.369454 540.214705,231.33868 C542.386088,215.818505 543.990476,203.964447 545.457665,192.406811 C547.438651,176.805539 548.081246,169.072018 547.725649,160.136032 C547.063453,143.563002 538.596317,132.062692 522.979434,127.273809 C514.653696,124.720671 505.576164,123.24975 496.585431,122.961718 C471.35902,122.154948 445.84421,126.99976 416.396831,137.1452 C409.896679,139.385139 406.444305,143.618931 405.654711,150.373702 C405.101715,155.10386 404.569719,158.895817 403.316728,167.3634 C402.742733,171.237851 402.490735,172.959053 402.185537,175.109506 C397.391973,208.965859 394.610194,228.623349 391.610016,249.873405 C391.485417,250.750085 391.356618,251.664517 391.212419,252.681018 C391.09482,253.511558 390.466225,254.175709 389.643031,254.3393 C386.383855,254.986673 384.080872,255.33343 381.73449,255.462066 C373.64115,255.9053 369.102384,251.903612 368.776187,243.922606 C368.682387,241.639323 368.715987,239.251173 368.858786,236.524656 C368.955385,234.680412 369.456582,228.247229 369.505581,227.606847 C369.505581,227.606847 369.914378,223.633123 370.132777,221.685411 C371.692365,207.746616 373.264553,196.651788 377.064125,171.604183 C379.112309,158.105826 380.020903,151.98864 381.077895,144.422904 C381.971088,138.028871 379.775904,134.596256 372.607958,132.135399 C365.949608,129.847921 362.851431,128.844004 359.047659,127.821909 C337.64882,122.078046 316.563577,121.500584 295.835332,126.300653 C268.335338,132.668119 248.897883,148.578396 237.765166,173.955979 C235.159786,179.895592 233.096201,185.941469 231.528213,192.082425 C223.551073,166.640524 202.744428,152.970186 202.744428,152.970186 C202.744428,152.970186 225.036462,137.661141 227.213445,103.169999 C229.389029,68.6774585 191.176315,40.7621166 143.499671,40.7621166 C84.7673106,40.7621166 49.2943759,65.5426628 45.6838029,67.5113481 C45.0230078,67.8706891 43.7462174,68.6243264 44.0444151,69.6981547 L53.3571455,99.2158498 C53.8891415,101.20411 54.0193405,102.792481 56.494522,101.675308 C56.494522,101.675308 79.6517489,92.2597353 84.7673106,92.2597353 C84.7673106,92.2597353 58.10731,277.190311 58.7541051,277.190311 C58.10731,282.68669 58.7541051,284.231717 66.0998502,286.407338 C69.0272283,287.275628 199.930449,316.008926 229.30083,239.687416 C229.431029,240.578078 229.564028,241.468741 229.713827,242.363598 C231.88381,255.427111 236.915373,265.951467 245.409109,273.946455 C258.70201,286.459072 275.233086,290.028712 296.221729,286.446488 C303.599674,285.188095 310.554822,281.829585 317.637369,276.397524 C318.530562,275.713797 319.812953,275.912344 320.455548,276.836563 C325.823108,284.544917 333.933247,288.865398 349.776929,288.834637 C365.522611,288.740957 376.163931,285.200679 386.033858,281.846364 C386.994251,281.519182 388.047043,281.976398 388.46564,282.902015 C389.162834,284.444245 386.878051,287.6895 392.35761,287.6895 C405.948709,287.6895 418.002619,287.923002 429.518933,287.678314 C434.666694,287.569253 436.52868,285.828477 437.361674,280.464928 C438.317867,274.316981 439.141061,268.629047 440.52005,258.781426 C440.60265,258.188583 440.669849,257.707598 440.885448,256.173757 C441.724041,250.174021 442.396036,245.366961 444.001824,233.863855 C448.61059,200.839439 450.755374,185.569544 453.420954,166.931352 C453.678552,165.119267 455.29414,163.068087 456.996527,162.375971 C464.798669,159.196433 473.026407,157.789829 481.466944,158.185524 C489.931281,158.582617 495.149042,162.910089 496.73243,170.846351 C497.291026,173.641381 497.446425,176.397261 497.117427,178.908453 C495.080442,194.438416 493.068657,209.406296 490.355478,229.870556 C490.355478,229.870556 481.697942,281.724719 523.125033,287.896435 C543.906477,287.985921 590.461729,288.538216 601.944443,288.262768 C606.074412,288.164893 607.926598,286.287091 608.622393,281.537358 C609.414787,276.138854 610.023783,271.644995 611.315973,261.802966 C611.71917,258.73948 611.898369,257.370628 612.125167,255.664807 C612.750962,250.958419 613.394957,246.084245 614.205551,239.936298 C614.42815,238.241663 616.063338,225.81993 616.546334,222.160804 C616.676533,221.180656 617.512327,220.446594 618.502119,220.446594 L633.802605,220.446594 C634.613199,220.446594 635.341193,220.94296 635.637991,221.696597 C635.684191,221.816843 636.148987,222.968972 636.300186,223.359073 C636.365986,223.526859 636.427585,223.687654 636.486385,223.844254 C640.151557,230.97095 650.861477,251.81832 653.630657,257.467105 C656.373236,263.064155 680.269657,298.399819 711.857621,288.205441 C716.855584,287.20432 726.990108,283.911526 734.002656,273.231967 C739.090217,282.447596 746.601161,288.22921 755.632494,288.718585 L755.632494,289.179996 L827.960153,289.179996 L827.960153,288.697612 C831.766724,288.556392 840.236661,288.164893 841.552651,287.914612 C844.092232,287.43083 845.615421,285.790725 846.230016,283.457106 C846.794212,281.322033 847.207209,279.335171 847.469007,277.430804 C848.685598,268.61087 849.73419,260.982215 851.793575,246.000352 C851.883174,245.348784 851.883174,245.348784 851.972773,244.695819 C857.281534,206.071556 859.651716,188.88471 862.649094,167.422125 C862.905292,165.584872 864.380881,163.46518 866.042668,162.770267 C873.77481,159.540393 881.967549,158.122604 890.437486,158.519697 C897.296034,158.841286 902.345797,162.00125 904.360382,168.063906 C905.560173,171.671298 906.040369,175.597482 905.611972,179.049673 C903.782186,193.771468 902.198798,205.811488 898.932622,230.043934 C898.873823,230.478779 898.815023,230.917818 898.754823,231.359654 C897.690831,240.140437 894.300057,284.881886 935.130751,288.289334 C943.186291,288.349457 946.631665,288.201246 950.516636,287.539891 C955.857596,286.63245 959.763567,284.770029 962.872944,281.468846 C969.219097,274.732251 973.937061,265.436925 973.937061,256.654743 C973.937061,252.724363 970.578486,252.517427 969.639093,252.724363 Z M137.534316,84.6129031 C137.605715,84.0983604 137.985113,83.677498 138.496109,83.5460658 C138.668308,83.501323 138.983305,83.4272177 139.428502,83.3335373 C140.157896,83.181132 140.99229,83.0273285 141.914883,82.8847106 C147.972638,81.9479073 154.40839,81.9073591 160.478744,83.3656962 C164.892911,84.4255424 184.180567,88.9683396 178.023413,113.634232 C171.864859,138.301523 140.555493,139.052364 135.879528,138.793694 C134.693737,138.727978 133.607345,138.658068 132.642753,138.588157 C132.303955,138.562989 132.004357,138.540618 131.748159,138.519644 C131.59276,138.50706 131.484961,138.498671 131.428962,138.493078 C130.688367,138.428761 130.152171,137.767405 130.25297,137.041732 L137.534316,84.6129031 L137.534316,84.6129031 Z M188.426735,217.680926 C180.218597,254.884604 130.161971,250.722121 123.58622,250.358585 C121.920233,250.266303 120.392844,250.16703 119.036254,250.069155 C118.561658,250.034199 118.140261,250.002041 117.779064,249.972678 C117.560665,249.954501 117.409466,249.941917 117.331067,249.934926 C116.289475,249.845441 115.53768,248.915628 115.679079,247.894932 L125.913003,174.196472 C126.013802,173.473595 126.547198,172.880753 127.265393,172.696188 C127.507591,172.634667 127.951388,172.529801 128.574383,172.399767 C129.601975,172.183044 130.773767,171.967719 132.071557,171.767774 C140.587693,170.450657 149.634426,170.394728 158.165962,172.443112 C164.372115,173.933608 196.634874,180.477249 188.426735,217.680926 L188.426735,217.680926 Z M328.702886,172.685003 C327.728494,178.834348 321.331942,229.33504 319.247357,242.914494 C318.621562,246.988889 314.89759,250.200587 311.012619,251.365299 C303.104078,253.73667 297.43412,254.063852 291.622764,251.611385 C285.40401,248.986937 281.533039,243.83312 280.02525,237.015429 C275.003488,214.30424 278.308863,193.277898 290.375373,174.435567 C296.658526,164.627096 307.241047,159.313883 318.253365,160.068918 C325.431111,160.562488 326.8423,160.814166 328.331889,162.596889 C329.841078,164.40478 329.785078,165.842144 328.702886,172.685003 L328.702886,172.685003 Z" sketch:type="MSShapeGroup"></path>
            </g>
        </g>
    </g>
</svg>