<?xml version="1.0" encoding="utf-8"?>
<!-- Generator: Adobe Illustrator 19.0.0, SVG Export Plug-In . SVG Version: 6.00 Build 0)  -->
<!DOCTYPE svg PUBLIC "-//W3C//DTD SVG 1.1//EN" "http://www.w3.org/Graphics/SVG/1.1/DTD/svg11.dtd">
<svg version="1.1" id="Calque_1" xmlns="http://www.w3.org/2000/svg" xmlns:xlink="http://www.w3.org/1999/xlink" x="0px" y="0px"
	 viewBox="-2396.8 -1274.4 2576.6 3401.6" style="enable-background:new -2396.8 -1274.4 2576.6 3401.6;" xml:space="preserve">
<style type="text/css">
	.st0{fill:url(#B-white_1_);}
</style>
<linearGradient id="B-white_1_" gradientUnits="userSpaceOnUse" x1="-2662.7954" y1="849.509" x2="-2666.7932" y2="854.7524" gradientTransform="matrix(450.4398 0 0 -594.818 1199105.75 507251.9062)">
	<stop  offset="0.1027" style="stop-color:#9584FF"/>
	<stop  offset="0.6137" style="stop-color:#4BB9FF"/>
	<stop  offset="1" style="stop-color:#3FD3FF"/>
</linearGradient>
<path id="B-white" class="st0" d="M177.7,1113.6c10.8-182.5-24.6-293.2-37.4-342.2c-107.9-344-389.4-528.8-389.4-528.8
	s301.6-207,331-673.3c29.4-466.3-487.6-843.7-1132.6-843.7c-794.6,0-1274.5,335-1323.4,361.6c-8.9,4.9-26.2,15-22.2,29.6l126,399.1
	c7.2,26.9,9,48.4,42.4,33.3c0,0,313.3-127.3,382.5-127.3c0,0-360.7,2500.2-351.9,2500.2c-8.8,74.3,0,95.2,99.4,124.6
	c39.6,11.7,1810.6,400.2,2208-631.6C111,1420.7,168,1277.5,177.7,1113.6z M-1131.3-681.5c1-7,6.1-12.6,13-14.4
	c2.3-0.6,6.6-1.6,12.6-2.9c9.9-2.1,21.2-4.1,33.6-6.1c82-12.7,169-13.2,251.2,6.5c59.7,14.3,320.7,75.7,237.4,409.2
	C-666.9,44.3-1090.5,54.5-1153.7,51c-16-0.9-30.7-1.8-43.8-2.8c-4.6-0.3-8.6-0.6-12.1-0.9c-2.1-0.2-3.6-0.3-4.3-0.4
	c-10-0.9-17.3-9.8-15.9-19.6L-1131.3-681.5L-1131.3-681.5z M-442.8,1117.5c-111,503-788.3,446.7-877.2,441.8
	c-22.5-1.2-43.2-2.6-61.6-3.9c-6.4-0.5-12.1-0.9-17-1.3c-3-0.2-5-0.4-6.1-0.5c-14.1-1.2-24.3-13.8-22.3-27.6l138.5-996.4
	c1.4-9.8,8.6-17.8,18.3-20.3c3.3-0.8,9.3-2.2,17.7-4c13.9-2.9,29.8-5.8,47.3-8.5c115.2-17.8,237.6-18.6,353,9.1
	C-768.3,526.1-331.8,614.5-442.8,1117.5L-442.8,1117.5z"/>
</svg>
