<?xml version="1.0" encoding="utf-8"?>
<!-- Generator: Adobe Illustrator 18.1.1, SVG Export Plug-In . SVG Version: 6.00 Build 0)  -->
<svg version="1.1" id="Layer_1" xmlns="http://www.w3.org/2000/svg" xmlns:xlink="http://www.w3.org/1999/xlink" x="0px" y="0px"
	 viewBox="-147 238 4036.3 512" enable-background="new -147 238 4036.3 512" xml:space="preserve">
<g>
	<g>
		<g>
			<g>
				<g>
					<g>
						<path fill="#0067B1" d="M948.4,506.2c-70,0-104.8,51.5-104.8,120.9c0,72.3,33.4,122.8,104.8,122.8
							c71.4,0,104.7-50.5,104.7-122.8C1053.1,557.7,1018.4,506.2,948.4,506.2 M948.4,702.7c-18.6,0-26.9-16.7-26.9-75.6
							c0-53.8,5.5-73.7,26.9-73.7c21.3,0,26.8,19.9,26.8,73.7C975.3,686,966.9,702.7,948.4,702.7"/>
						<path fill="#0067B1" d="M1101.5,486.4v26h-30.6v52.9h30.6v179.7h75.1V565.2h40.9v-52.9h-40.9v-23.6c0-14.1,7.1-21.9,26.9-21.9
							c4.2,0,9.7,0.9,13.9,1.9v-57.5c-12.1-1.4-23.3-2.8-38-2.8C1129.8,408.5,1101.5,429.4,1101.5,486.4"/>
						<path fill="#0067B1" d="M301.1,577.7c0-51.4-46.8-70.9-91.8-70.9c-42.6,0-84.3,18.5-92.6,64.4l65.3,13.4
							c0.8-13.6,6.6-30.5,24.6-30.5c13,0,19.4,9.2,19.4,23.1v20c-49.6,5.7-118,23.7-119.6,84.2c-1.1,42.8,27.4,68.1,64.8,68.1
							c22.1,0,44.3-12.2,57.1-25.7c0.5,3.9,1,14.8,2.4,21.3h77.4c-2.8-3.2-7-11.1-7-37.5L301.1,577.7L301.1,577.7z M226.1,685.7
							c-6.4,8.4-15.5,14.5-24.1,14.5c-13.5,0-21.8-8.4-21.8-24.7c0-29.7,19.6-39.6,45.9-42.2L226.1,685.7L226.1,685.7z"/>
						<path fill="#0067B1" d="M485.3,506.8c-29.3,0-50,13.6-65.4,29.3h-1l-0.4-23.8H345v232.6h75.1V578.6c6.9-8.8,16-14.5,24.4-14.5
							c12.5,0,17.3,7.4,17.3,20.6v160.1h75.1V561C536.9,529.1,518.1,506.8,485.3,506.8"/>
						<polygon fill="#0067B1" points="789.4,512.3 714.8,512.3 659.5,582.6 658.6,582.6 658.6,415.1 583.5,415.1 583.5,744.9 
							658.6,744.9 658.6,661.6 674.4,643.5 675.3,643.5 711.9,744.9 789.8,744.9 726.6,584 						"/>
						<path fill="#0067B1" d="M26.4,573.4v-2.6c23.9-9.3,53.8-32,53.8-75.2c0-45.6-38.4-80.6-96.9-80.6H-147V745h127.1
							c62.6,0,108-31.8,108-88.3C88.1,614.4,62.2,585.1,26.4,573.4 M-66,473.4h29.2c19,0,40.2,5.1,40.2,36.6
							c0,19.5-11.9,35.7-42.1,35.7H-66V473.4z M-35.4,683.8H-66v-82.5h30.6c26.9,0,42.1,16.2,42.1,40.8
							C6.7,675.9-17.3,683.8-35.4,683.8"/>
						<path fill="#0067B1" d="M2814.1,707.5V577.7c0-51.4-46.7-70.9-91.7-70.9c-42.6,0-84.4,18.5-92.7,64.4l65.4,13.4
							c0.8-13.6,6.5-30.5,24.6-30.5c12.9,0,19.5,9.2,19.5,23.1v20c-49.7,5.7-118.1,23.7-119.7,84.2c-1.1,42.8,27.4,68.1,64.8,68.1
							c22.1,0,44.3-12.2,57.2-25.7c0.4,3.9,0.9,14.8,2.3,21.3h77.4C2818.2,741.8,2814.1,733.9,2814.1,707.5 M2739,685.7
							c-6.5,8.4-15.6,14.5-24.1,14.5c-13.5,0-21.8-8.4-21.8-24.7c0-29.7,19.6-39.6,45.9-42.2L2739,685.7L2739,685.7z"/>
						<path fill="#0067B1" d="M1995.6,506.2c-69.1,0-103.4,55.6-103.4,121.4c0,64.4,32.5,122.4,104.3,122.4
							c66.8,0,89.9-52.8,93.2-63.5l-50.6-18.6c-3.7,18.8-19,32-37.1,32c-30.2,0-35.7-34.4-34.7-55.1h125.6V629
							C2092.9,568.3,2067.9,506.2,1995.6,506.2 M2023.3,600.3h-56.1c-1.1-21.9,6.5-46.8,27.8-46.8
							C2021,553.5,2024,578.7,2023.3,600.3"/>
						<rect x="2295.3" y="512.4" fill="#0067B1" width="75" height="232.6"/>
						<rect x="2295.3" y="415" fill="#0067B1" width="75" height="66.7"/>
						<path fill="#0067B1" d="M2511.4,553.5c12.1,0,18.1,6.5,21.8,15.7c3.3,8.8,3.7,19.9,3.7,29.2h64c0-23.2-12.1-92.2-91.7-92.2
							c-70.9,0-106.1,63.5-106.1,127c0,57.5,35.1,116.8,102.8,116.8c54.7,0,87.1-29.6,92.7-86.2l-58.4-8.4
							c0,17.6-2.3,44.4-28.8,44.4c-19.4,0-27.8-17.1-27.8-69.5C2483.7,584.1,2486.5,553.5,2511.4,553.5"/>
						<path fill="#0067B1" d="M1347.9,415.1L1270.6,745h72.3l14.4-66.7h76.5l13,66.7h81.1l-70.5-329.9H1347.9z M1368.8,619.9
							l27.9-134.4h1.7l23.7,134.4H1368.8z"/>
						<path fill="#0067B1" d="M2198.4,543.8h-1.2l-0.8-31.5h-72.7v232.6h75.2V594.3c8.8-10.5,22-18,41.2-18
							c12.9,0,22.1,3.1,30.6,6.4v-75.9C2241.7,506.8,2213.7,519.3,2198.4,543.8"/>
						<path fill="#0067B1" d="M1807.2,506.8c-31.4,0-53.9,16.9-67,31.1h-1c-7.1-17.9-22.3-31.1-45.1-31.1c-28,0-51.5,14.5-67.2,29.2
							h-1l-0.4-23.7h-73.3V745h73.7V579.1c6.3-8.6,17.6-14.3,25.5-14.3c13.9,0,17.6,8.3,17.6,20.8V745h73.7V579.1
							c4.9-6.4,15.6-14.3,25.7-14.3c13.7,0,17.5,8.3,17.5,20.8V745h73.6V559.5C1859.5,527.4,1838.4,506.8,1807.2,506.8"/>
						<path fill="#0067B1" d="M3275.6,362.8c29.8,11.8,59.2,24.4,88.3,37.8c-92.5,37.6-181.9,82.1-267.2,133
							c-28.9-15.1-58.1-29.4-87.8-42.8C3094,441.2,3183.1,398.3,3275.6,362.8"/>
						<path fill="#0067B1" d="M3165.4,323.9c-96.1,30.4-188.6,70.2-276.2,118.5c28,10.1,55.6,20.9,82.9,32.4
							c84.9-50,174.7-92,268.1-125.4C3215.5,340.3,3190.5,331.8,3165.4,323.9"/>
						<path fill="#E31836" d="M3476.2,359c-75.5-36.5-153.9-67.3-234.4-91.8c-28.3,8.2-56.4,17.1-84.3,26.8
							c83,24.6,163.6,55.7,241.3,92.9C3424.3,377.1,3450.1,367.8,3476.2,359"/>
						<path fill="#E31836" d="M3599.3,322.3c-77.2-33.7-157.1-61.9-238.7-84.3c-26,5.4-51.8,11.4-77.5,18
							c81.1,23.7,159.9,53.6,235.9,89.3C3545.6,337.1,3572.4,329.4,3599.3,322.3"/>
						<path fill="#E31836" d="M3797.1,388.8c-193.8,65.3-375.3,158.4-539.6,274.8c41.1,25.2,81.1,52,120.2,80.2
							C3532.5,621,3704.3,518.7,3889.3,441C3859.1,422.7,3828.3,405.3,3797.1,388.8"/>
						<path fill="#E31836" d="M3663.8,325.4c-201.5,53.3-390.9,139.3-561.7,252.5c38.5,18.9,76.3,39.1,113.3,60.6
							c167.4-115.9,353.1-206.1,551.2-265.5C3732.8,356.1,3698.6,340.2,3663.8,325.4"/>
						<path fill="#E31836" d="M3440.9,723c0-11.6,9.8-21,21.7-21s21.7,9.4,21.7,21c0,11.8-9.8,21.3-21.7,21.3
							S3440.9,734.8,3440.9,723 M3445,723c0,9.7,7.9,17.1,17.6,17.1c9.7,0,17.5-7.4,17.5-17.1c0-9.3-7.8-16.9-17.5-16.9
							C3452.9,706.1,3445,713.7,3445,723"/>
						<path fill="#E31836" d="M3473.5,734.9h-4.1l-7-10.9h-4.3v10.9h-3.6v-23.6h10.6c2,0,4.1,0.1,6,1.1c1.8,1.1,2.7,3.1,2.7,5.1
							c0,4.6-3.4,6.4-7.7,6.5L3473.5,734.9z M3462.2,721.1c3.4,0,8,0.6,8-3.6c0-3.1-2.7-3.5-5.7-3.5h-6.3v7.1L3462.2,721.1
							L3462.2,721.1z"/>
					</g>
				</g>
			</g>
		</g>
	</g>
</g>
</svg>
