<?xml version="1.0" encoding="iso-8859-1"?><!-- Generator: Adobe Illustrator 16.0.0, SVG Export Plug-In . SVG Version: 6.00 Build 0) --><!DOCTYPE svg PUBLIC "-//W3C//DTD SVG 1.1//EN" "http://www.w3.org/Graphics/SVG/1.1/DTD/svg11.dtd"><svg version="1.1" id="Layer_1" xmlns="http://www.w3.org/2000/svg" xmlns:xlink="http://www.w3.org/1999/xlink" x="0px" y="0px" width="192.756px" height="192.756px" viewBox="0 0 192.756 192.756" style="enable-background:new 0 0 192.756 192.756;" xml:space="preserve"><g><polygon style="fill-rule:evenodd;clip-rule:evenodd;fill:#FFFFFF;" points="0,0 192.756,0 192.756,192.756 0,192.756 0,0	"/><path style="fill-rule:evenodd;clip-rule:evenodd;" d="M184.252,95.498l-18.75-9.46l1.66-7.249l-2.092-0.807	c-16.688-6.435-34.293-10.439-52.332-11.901c-14.42-1.169-29.148-0.725-43.771,1.32c-24.929,3.487-41.229,10.555-41.391,10.626	l-1.96,0.86l1.637,7.15l-18.75,9.46l8.688,11.461l-4.329,14.684h41.091l-0.97-6.309h86.787l-0.971,6.309h41.092l-4.328-14.684	L184.252,95.498L184.252,95.498z"/><path style="fill-rule:evenodd;clip-rule:evenodd;fill:#FFFFFF;" d="M181.791,96.067l-18.146-9.156l1.629-7.118l-0.785-0.303	c-16.541-6.379-33.996-10.349-51.879-11.798c-14.305-1.16-28.912-0.719-43.418,1.31c-24.71,3.456-40.805,10.435-40.964,10.505	l-0.735,0.323l1.62,7.081l-18.147,9.156l8.01,10.565l-3.949,13.393h37.043l-0.97-6.309h90.557l-0.969,6.309h37.043l-3.949-13.393	L181.791,96.067L181.791,96.067z"/><polygon style="fill-rule:evenodd;clip-rule:evenodd;" points="178.836,96.752 171.643,106.242 175.135,118.084 148.064,118.084	157.539,113.582 163.197,88.86 178.836,96.752	"/><path style="fill-rule:evenodd;clip-rule:evenodd;" d="M163.004,81.003l-7.041,30.772H36.794l-7.047-30.796	C37.003,78.053,96.537,55.726,163.004,81.003L163.004,81.003z"/><polygon style="fill-rule:evenodd;clip-rule:evenodd;" points="35.216,113.582 44.692,118.084 17.622,118.084 21.114,106.242	13.919,96.752 29.559,88.86 35.216,113.582	"/><polygon style="fill-rule:evenodd;clip-rule:evenodd;" points="49.807,118.084 49.216,118.084 40.022,113.717 49.135,113.717	49.807,118.084	"/><polygon style="fill-rule:evenodd;clip-rule:evenodd;" points="152.734,113.717 143.541,118.084 142.949,118.084 143.621,113.717	152.734,113.717	"/><path style="fill-rule:evenodd;clip-rule:evenodd;fill:#FFFFFF;" d="M45.358,79.507l-4.286,25.638h10.109	c0,0,7.949-0.002,7.845-6.795c-0.081-5.256-4.448-6.307-4.448-6.307s5.58-1.537,5.58-7.036c0-5.5-6.308-5.5-6.308-5.5H45.358	L45.358,79.507z"/><path style="fill-rule:evenodd;clip-rule:evenodd;fill:#FFFFFF;" d="M105.016,84.063l-0.49,2.75	c-0.498-1.45-1.355-2.479-2.516-2.814c-2.746-0.792-6.137,2.601-7.574,7.579c-0.334,1.157-0.531,2.297-0.605,3.377	c-3.928,5.551-3.345,2.182-3.345,2.182c0-1.051,1.294-7.116,1.294-7.116c1.375-6.793-1.294-6.308-1.294-6.308	c-2.21,0.227-5.69,3.629-7.575,5.646l0.862-5.295h-4.313l-1.402,10.783c0,0-3.774,5.338-4.205,2.805c0,0-0.228-0.738-0.012-1.709	l2.169-11.878h-4.098l-0.491,2.75c-0.498-1.45-1.355-2.479-2.515-2.814c-2.747-0.792-6.138,2.601-7.574,7.579	c-1.437,4.977-0.375,9.657,2.371,10.448c1.83,0.529,3.945-0.803,5.578-3.221c0,0,0.836,7.338,7.953-0.426l-0.47,3.045h4.098	l1.425-8.391c2.006-2.489,3.913-4.226,3.913-4.226c3.154-2.911,0.889,4.125,0.889,4.125c-2.587,8.896,0.162,8.896,0.162,8.896	c2.725,0.584,5.656-2.631,6.71-3.926c0.372,2.133,1.363,3.695,2.847,4.123c1.83,0.529,3.945-0.803,5.578-3.221l-2.006,11.246h3.99	l4.744-25.988H105.016L105.016,84.063z"/><path style="fill-rule:evenodd;clip-rule:evenodd;fill:#FFFFFF;" d="M143.539,98.35c0,0-0.688-1.092,0.646-6.307l1.145-5.742h3.102	l0.283-2.103h-2.965l0.861-4.327h-3.801l-0.717,4.327h-2.438l-0.283,2.103h2.371l-0.309,1.86c0,0-2.021,9.785-7.764,10.675	c0,0-2.992,0.484-3.801-2.588l8.33-5.904c0,0,1.617-6.632-4.529-6.632c0,0-7.936,0.551-7.775,13.27	c-1.107,1.197-2.496,1.449-2.496,1.449c-1.158,0.215-0.646-2.831-0.646-2.831l2.104-11.538h-4.045l-1.051,5.796	c-1.537,6.389-4.771,8.331-4.771,8.331c-1.43,0.564-1.133-1.78-1.133-1.78l2.104-12.346h-4.125l-2.184,14.207	c0,0-0.889,3.559,2.426,3.721c0,0,2.967,0.27,6.309-5.258c0,0-0.809,5.258,1.455,5.338c0,0,1.721,0.674,6.391-3.326	c0.566,1.434,2.098,3.6,6.145,3.326c0,0,3.953-0.172,7.225-5.48c0,0-1.078,5.643,1.834,5.643c0,0,3.396,0.566,7.117-6.228	l-1.295-1.051C147.258,94.954,144.428,100.25,143.539,98.35L143.539,98.35z"/><path style="fill-rule:evenodd;clip-rule:evenodd;fill:#FFFFFF;" d="M145.494,105.523c0-1.359,1.096-2.428,2.434-2.428	c1.332,0,2.398,1.096,2.398,2.441c0,1.359-1.088,2.449-2.426,2.449C146.555,107.986,145.494,106.869,145.494,105.523	L145.494,105.523z"/><path style="fill-rule:evenodd;clip-rule:evenodd;" d="M150.006,105.523c0-1.168-0.953-2.1-2.105-2.1	c-1.133,0-2.072,0.953-2.072,2.092c0,1.16,0.904,2.137,2.064,2.137C149.066,107.652,150.006,106.711,150.006,105.523	L150.006,105.523z"/><path style="fill-rule:evenodd;clip-rule:evenodd;fill:#FFFFFF;" d="M149.209,106.969h-0.477l-0.775-1.316h-0.627v1.316h-0.406	v-2.918h1.297c0.555,0,1.039,0.127,1.039,0.797c0,0.547-0.363,0.789-0.875,0.805L149.209,106.969L149.209,106.969z"/><path style="fill-rule:evenodd;clip-rule:evenodd;" d="M148.078,105.332c0.363,0,0.775-0.043,0.775-0.514	c0-0.42-0.398-0.463-0.727-0.463h-0.797v0.977H148.078L148.078,105.332z"/><path style="fill-rule:evenodd;clip-rule:evenodd;" d="M47.946,93.215l-1.617,9.502h2.831c0,0,4.043,0.244,4.61-4.609	c0,0,0.242-4.893-3.882-4.893H47.946L47.946,93.215z"/><path style="fill-rule:evenodd;clip-rule:evenodd;" d="M49.983,81.992l-1.463,8.595h1.913c0,0,3.657,0.22,4.169-4.169	c0,0,0.866-4.426-2.864-4.426H49.983L49.983,81.992z"/><path style="fill-rule:evenodd;clip-rule:evenodd;" d="M102.049,87c-1.264-0.316-2.941,2.037-3.75,5.256	c-0.807,3.219-0.438,6.086,0.824,6.403s2.941-2.037,3.748-5.256C103.68,90.183,103.311,87.317,102.049,87L102.049,87z"/><path style="fill-rule:evenodd;clip-rule:evenodd;" d="M68.944,87c-1.263-0.316-2.94,2.037-3.748,5.256	c-0.808,3.219-0.439,6.086,0.823,6.403c1.263,0.316,2.941-2.037,3.749-5.256C70.575,90.183,70.207,87.317,68.944,87L68.944,87z"/><path style="fill-rule:evenodd;clip-rule:evenodd;" d="M129.648,93.921l4.994-3.416c0,0,1.051-5.418-1.213-4.69	C133.43,85.815,131.186,86.562,129.648,93.921L129.648,93.921z"/></g></svg>
