<?xml version="1.0" encoding="UTF-8" standalone="no"?>
<svg width="1364px" height="512px" viewBox="0 0 1364 512" version="1.1" xmlns="http://www.w3.org/2000/svg" xmlns:xlink="http://www.w3.org/1999/xlink">
    <!-- Generator: Sketch 3.6.1 (26313) - http://www.bohemiancoding.com/sketch -->
    <title>Bash (2)</title>
    <desc>Created with Sketch.</desc>
    <defs></defs>
    <g id="Page-1" stroke="none" stroke-width="1" fill="none" fill-rule="evenodd">
        <g id="Bash-(2)">
            <path d="M0,0 L275.989333,0 C273.258667,3.92533333 270.677333,7.95733333 267.690667,11.6906667 C193.621333,101.866667 119.509333,192.021333 45.44,282.197333 C41.1946667,287.424 36.8853333,292.586667 32.384,297.6 C79.9573333,297.002667 127.530667,297.493333 175.104,297.344 C153.621333,361.344 131.008,424.96 109.184,488.832 C106.688,496.704 103.274667,504.213333 100.586667,512 L0,512 L0,0 L0,0 Z" id="Shape" fill="#FFFFFF"></path>
            <path d="M275.989333,0 L277.013333,0 C274.730667,6.69866667 271.594667,13.0773333 269.418667,19.8186667 C247.232,84.6933333 224.384,149.354667 202.410667,214.293333 C249.984,214.058667 297.6,214.890667 345.173333,213.888 C276.693333,296.661333 208.725333,379.84 140.437333,462.784 C127.573333,479.253333 112.896,494.378667 101.589333,512 L100.586667,512 C103.274667,504.213333 106.688,496.704 109.184,488.832 C131.008,424.96 153.621333,361.344 175.104,297.344 C127.530667,297.493333 79.9573333,297.002667 32.384,297.6 C36.8853333,292.586667 41.1946667,287.424 45.44,282.197333 C119.509333,192.021333 193.621333,101.866667 267.690667,11.6906667 C270.677333,7.95733333 273.258667,3.92533333 275.989333,0 L275.989333,0 Z" id="Shape" fill="#27AF60"></path>
            <path d="M1363.2,0 L1363.2,512 L101.589333,512 C112.896,494.378667 127.573333,479.253333 140.437333,462.784 C208.725333,379.84 276.693333,296.661333 345.173333,213.888 C297.6,214.890667 249.984,214.058667 202.410667,214.293333 C224.384,149.354667 247.232,84.6933333 269.418667,19.8186667 C271.594667,13.0773333 274.730667,6.69866667 277.013333,0 L1363.2,0 Z" id="Shape" fill="#FFFFFF"></path>
            <path d="M463.957333,86.1866667 C478.506667,85.9946667 493.056,86.2506667 507.605333,86.0373333 C507.925333,129.216 507.605333,172.416 507.754667,215.594667 C507.818667,220.48 507.562667,225.386667 507.093333,230.272 C531.733333,197.056 582.421333,191.552 616.064,213.781333 C641.194667,229.930667 655.232,259.157333 658.325333,288.234667 C662.08,322.197333 654.4,359.424 630.144,384.682667 C606.058667,410.261333 564.629333,417.301333 533.589333,400.725333 C522.432,394.816 513.088,385.962667 505.6,375.850667 C506.325333,385.664 506.346667,395.498667 506.496,405.333333 L464.021333,405.333333 C463.957333,298.944 464.042667,192.576 463.957333,86.1866667 L463.957333,86.1866667 Z" id="Shape" fill="#27AF60"></path>
            <path d="M1125.54667,405.461333 C1125.07733,298.453333 1125.44,191.424 1125.35467,84.3946667 C1139.92533,84.3946667 1154.496,84.3733333 1169.06667,84.416 L1169.06667,194.218667 C1168.91733,207.082667 1169.664,220.032 1167.91467,232.832 C1179.88267,216.405333 1197.52533,203.712 1217.68533,199.850667 C1242.048,195.264 1269.504,200.896 1287.296,218.944 C1304.74667,236.352 1311.18933,261.738667 1311.424,285.738667 C1311.552,325.589333 1311.424,365.44 1311.488,405.312 C1296.72533,405.354667 1281.96267,405.333333 1267.2,405.333333 C1267.15733,366.912 1267.24267,328.469333 1267.15733,290.048 C1267.072,276.309333 1264.14933,261.802667 1255.12533,251.008 C1241.96267,234.88 1216.96,231.274667 1198.95467,240.981333 C1180.43733,250.773333 1169.49333,271.658667 1169.088,292.245333 C1169.024,329.941333 1169.10933,367.637333 1169.06667,405.333333 C1154.56,405.397333 1140.032,405.184 1125.54667,405.461333 L1125.54667,405.461333 Z" id="Shape" fill="#27AF60"></path>
            <path d="M713.728,238.016 C729.578667,214.677333 757.013333,200.554667 784.917333,198.741333 C805.952,197.418667 827.989333,200.682667 846.144,211.968 C861.376,221.290667 872.832,236.48 877.632,253.696 C882.282667,268.970667 880.810667,285.12 881.066667,300.864 C881.216,318.741333 880.768,336.618667 881.28,354.474667 C881.877333,363.264 891.989333,365.333333 899.136,364.266667 C899.648,377.898667 899.114667,391.530667 899.434667,405.184 C886.741333,405.653333 873.045333,406.144 861.909333,399.04 C851.626667,392.896 845.696,381.845333 842.133333,370.773333 C828.992,389.077333 809.429333,402.901333 787.136,407.253333 C762.048,412.437333 732.885333,409.941333 713.28,391.872 C692.416,372.885333 689.834667,338.410667 706.090667,315.733333 C716.992,300.181333 734.976,291.157333 753.152,287.168 C780.949333,280.874667 809.792,284.074667 837.354667,289.962667 C838.528,274.816 835.648,257.578667 822.549333,248.042667 C798.933333,230.464 762.389333,238.250667 745.813333,261.994667 C735.168,253.952 724.458667,245.973333 713.728,238.016 L713.728,238.016 Z" id="Shape" fill="#27AF60"></path>
            <path d="M950.570667,220.864 C980.394667,189.802667 1037.58933,195.221333 1062.464,229.909333 C1052.736,237.632 1043.22133,245.632 1033.87733,253.802667 C1025.00267,242.474667 1010.368,235.157333 995.861333,237.290667 C987.413333,238.357333 979.392,244.906667 978.794667,253.781333 C977.770667,260.821333 982.634667,266.88 988.117333,270.634667 C1014.144,287.466667 1048.55467,292.650667 1068.01067,318.741333 C1081.088,336.704 1079.85067,362.645333 1067.66933,380.714667 C1057.89867,395.456 1041.216,404.330667 1024.17067,407.637333 C987.285333,414.613333 944.917333,402.709333 922.773333,370.944 C932.757333,362.538667 942.208,353.450667 952.597333,345.536 C964.416,362.965333 985.856,372.693333 1006.67733,372.053333 C1016.59733,371.626667 1027.11467,366.912 1031.91467,357.824 C1035.776,350.506667 1032.53333,341.44 1026.53867,336.362667 C1017.00267,328.021333 1004.77867,323.882667 993.408,318.762667 C976.405333,311.424 958.336,303.701333 946.645333,288.704 C931.498667,269.098667 933.653333,238.741333 950.570667,220.864 L950.570667,220.864 Z" id="Shape" fill="#27AF60"></path>
            <path d="M544.768,242.176 C560.213333,237.589333 577.856,239.957333 590.933333,249.6 C603.904,259.029333 611.626667,274.282667 614.165333,289.877333 C617.258667,308.928 614.656,329.493333 604.16,345.962667 C596.864,357.589333 585.109333,366.592 571.584,369.450667 C554.154667,373.482667 534.549333,367.637333 523.114667,353.685333 C507.690667,335.168 504.96,309.141333 509.141333,286.144 C512.533333,266.794667 525.077333,247.701333 544.768,242.176 L544.768,242.176 Z" id="Shape" fill="#FFFFFF"></path>
            <path d="M747.264,331.285333 C755.498667,321.408 768.490667,317.162667 780.864,315.52 C799.488,313.258667 818.24,316.330667 836.544,319.68 C834.88,333.205333 827.904,345.834667 818.453333,355.52 C804.906667,369.322667 784.533333,375.402667 765.546667,372.629333 C757.888,371.434667 750.165333,368 745.578667,361.514667 C739.178667,352.597333 740.245333,339.562667 747.264,331.285333 L747.264,331.285333 Z" id="Shape" fill="#FFFFFF"></path>
        </g>
    </g>
</svg>