<?xml version="1.0" encoding="UTF-8" ?>
<!DOCTYPE svg PUBLIC "-//W3C//DTD SVG 1.1//EN" "http://www.w3.org/Graphics/SVG/1.1/DTD/svg11.dtd">
<svg width="639pt" height="240pt" viewBox="0 0 639 240" version="1.1" xmlns="http://www.w3.org/2000/svg">
<path fill="#ffffff" d=" M 0.00 0.00 L 129.37 0.00 C 128.09 1.84 126.88 3.73 125.48 5.48 C 90.76 47.75 56.02 90.01 21.30 132.28 C 19.31 134.73 17.29 137.15 15.18 139.50 C 37.48 139.22 59.78 139.45 82.08 139.38 C 72.01 169.38 61.41 199.20 51.18 229.14 C 50.01 232.83 48.41 236.35 47.15 240.00 L 0.00 240.00 L 0.00 0.00 Z" />
<path fill="#27af60" d=" M 129.37 0.00 L 129.85 0.00 C 128.78 3.14 127.31 6.13 126.29 9.29 C 115.89 39.70 105.18 70.01 94.88 100.45 C 117.18 100.34 139.50 100.73 161.80 100.26 C 129.70 139.06 97.84 178.05 65.83 216.93 C 59.80 224.65 52.92 231.74 47.62 240.00 L 47.15 240.00 C 48.41 236.35 50.01 232.83 51.18 229.14 C 61.41 199.20 72.01 169.38 82.08 139.38 C 59.78 139.45 37.48 139.22 15.18 139.50 C 17.29 137.15 19.31 134.73 21.30 132.28 C 56.02 90.01 90.76 47.75 125.48 5.48 C 126.88 3.73 128.09 1.84 129.37 0.00 Z" />
<path fill="#ffffff" d=" M 129.85 0.00 L 639.00 0.00 L 639.00 240.00 L 47.62 240.00 C 52.92 231.74 59.80 224.65 65.83 216.93 C 97.84 178.05 129.70 139.06 161.80 100.26 C 139.50 100.73 117.18 100.34 94.88 100.45 C 105.18 70.01 115.89 39.70 126.29 9.29 C 127.31 6.13 128.78 3.14 129.85 0.00 Z" />
<path fill="#27af60" d=" M 217.48 40.40 C 224.30 40.31 231.12 40.43 237.94 40.33 C 238.09 60.57 237.94 80.82 238.01 101.06 C 238.04 103.35 237.92 105.65 237.70 107.94 C 249.25 92.37 273.01 89.79 288.78 100.21 C 300.56 107.78 307.14 121.48 308.59 135.11 C 310.35 151.03 306.75 168.48 295.38 180.32 C 284.09 192.31 264.67 195.61 250.12 187.84 C 244.89 185.07 240.51 180.92 237.00 176.18 C 237.34 180.78 237.35 185.39 237.42 190.00 C 230.78 190.00 224.14 190.00 217.51 190.00 C 217.48 140.13 217.52 90.27 217.48 40.40 Z" />
<path fill="#27af60" d=" M 527.60 190.06 C 527.38 139.90 527.55 89.73 527.51 39.56 C 534.34 39.56 541.17 39.55 548.00 39.57 C 548.00 56.72 548.00 73.88 548.00 91.04 C 547.93 97.07 548.28 103.14 547.46 109.14 C 553.07 101.44 561.34 95.49 570.79 93.68 C 582.21 91.53 595.08 94.17 603.42 102.63 C 611.60 110.79 614.62 122.69 614.73 133.94 C 614.79 152.62 614.73 171.30 614.76 189.99 C 607.84 190.01 600.92 190.00 594.00 190.00 C 593.98 171.99 594.02 153.97 593.98 135.96 C 593.94 129.52 592.57 122.72 588.34 117.66 C 582.17 110.10 570.45 108.41 562.01 112.96 C 553.33 117.55 548.20 127.34 548.01 136.99 C 547.98 154.66 548.02 172.33 548.00 190.00 C 541.20 190.03 534.39 189.93 527.60 190.06 Z" />
<path fill="#27af60" d=" M 334.56 111.57 C 341.99 100.63 354.85 94.01 367.93 93.16 C 377.79 92.54 388.12 94.07 396.63 99.36 C 403.77 103.73 409.14 110.85 411.39 118.92 C 413.57 126.08 412.88 133.65 413.00 141.03 C 413.07 149.41 412.86 157.79 413.10 166.16 C 413.38 170.28 418.12 171.25 421.47 170.75 C 421.71 177.14 421.46 183.53 421.61 189.93 C 415.66 190.15 409.24 190.38 404.02 187.05 C 399.20 184.17 396.42 178.99 394.75 173.80 C 388.59 182.38 379.42 188.86 368.97 190.90 C 357.21 193.33 343.54 192.16 334.35 183.69 C 324.57 174.79 323.36 158.63 330.98 148.00 C 336.09 140.71 344.52 136.48 353.04 134.61 C 366.07 131.66 379.59 133.16 392.51 135.92 C 393.06 128.82 391.71 120.74 385.57 116.27 C 374.50 108.03 357.37 111.68 349.60 122.81 C 344.61 119.04 339.59 115.30 334.56 111.57 Z" />
<path fill="#27af60" d=" M 445.58 103.53 C 459.56 88.97 486.37 91.51 498.03 107.77 C 493.47 111.39 489.01 115.14 484.63 118.97 C 480.47 113.66 473.61 110.23 466.81 111.23 C 462.85 111.73 459.09 114.80 458.81 118.96 C 458.33 122.26 460.61 125.10 463.18 126.86 C 475.38 134.75 491.51 137.18 500.63 149.41 C 506.76 157.83 506.18 169.99 500.47 178.46 C 495.89 185.37 488.07 189.53 480.08 191.08 C 462.79 194.35 442.93 188.77 432.55 173.88 C 437.23 169.94 441.66 165.68 446.53 161.97 C 452.07 170.14 462.12 174.70 471.88 174.40 C 476.53 174.20 481.46 171.99 483.71 167.73 C 485.52 164.30 484.00 160.05 481.19 157.67 C 476.72 153.76 470.99 151.82 465.66 149.42 C 457.69 145.98 449.22 142.36 443.74 135.33 C 436.64 126.14 437.65 111.91 445.58 103.53 Z" />
<path fill="#ffffff" d=" M 255.36 113.52 C 262.60 111.37 270.87 112.48 277.00 117.00 C 283.08 121.42 286.70 128.57 287.89 135.88 C 289.34 144.81 288.12 154.45 283.20 162.17 C 279.78 167.62 274.27 171.84 267.93 173.18 C 259.76 175.07 250.57 172.33 245.21 165.79 C 237.98 157.11 236.70 144.91 238.66 134.13 C 240.25 125.06 246.13 116.11 255.36 113.52 Z" />
<path fill="#ffffff" d=" M 350.28 155.29 C 354.14 150.66 360.23 148.67 366.03 147.90 C 374.76 146.84 383.55 148.28 392.13 149.85 C 391.35 156.19 388.08 162.11 383.65 166.65 C 377.30 173.12 367.75 175.97 358.85 174.67 C 355.26 174.11 351.64 172.50 349.49 169.46 C 346.49 165.28 346.99 159.17 350.28 155.29 Z" />
</svg>
