<?xml version="1.0" encoding="utf-8"?>
<!-- Generator: Adobe Illustrator 18.1.1, SVG Export Plug-In . SVG Version: 6.00 Build 0)  -->
<svg version="1.1" id="Layer_1" xmlns="http://www.w3.org/2000/svg" xmlns:xlink="http://www.w3.org/1999/xlink" x="0px" y="0px"
	 viewBox="-153 154.2 512 512" enable-background="new -153 154.2 512 512" xml:space="preserve">
<g>
	<polygon fill="#FFFFFF" points="-153,154.2 359,154.2 359,666.2 -153,666.2 	"/>
	<path d="M351.5,484.1V336.4h-154v147.7H351.5L351.5,484.1z M316.4,378.8c-11.9-6.8-23.7-10.4-34.8-10.4c-11.9,0-21.7,3.8-29.3,11.4
		c-7.8,7.3-11.9,16.4-11.9,27.8c0,10.9,4,20.2,11.6,27.8c8.1,7.1,17.7,10.6,29.3,10.6c12.4,0,24.5-3.8,36.4-11.4v15.9
		c-11.1,6.1-23.5,9.1-37.1,9.1c-11.6,0-21.2-2.3-29.3-6.8c-7.8-4.8-14.1-11.1-18.9-18.9c-4.5-8.6-7.1-17.2-7.1-26.3
		c0-15.2,5.3-27.5,16.2-37.6c10.6-10.1,23.7-15.4,39.1-15.4c11.1,0,23,2.8,35.9,8.6L316.4,378.8L316.4,378.8z"/>
	<path d="M180.3,336.4h-154v147.7h154L180.3,336.4L180.3,336.4z M73.5,358.4h26.8c8.6,0,15.2,1,19.9,3.3c4.8,2.5,8.3,5.6,10.6,9.3
		c2.5,4,3.8,8.6,3.8,13.9c0,10.1-5.1,17.2-15.7,21.5c7.6,1.3,13.6,4.3,17.9,9.3c4.3,4.5,6.3,10.4,6.6,16.9c-0.2,5.1-1.5,9.8-4,13.9
		c-2.8,4-6.6,7.3-11.9,10.1c-5.3,2.5-11.6,3.8-19.4,3.8H73.5V358.4L73.5,358.4z"/>
	<path d="M97.7,402c7.8,0,13.4-1.5,16.7-4.3c3.3-3.3,5-7.1,5-11.9c0-9.6-6.3-14.6-18.7-14.6H88.1V402H97.7L97.7,402z"/>
	<path d="M101.7,415.2H88.1v32.1h14.6c6.8,0,12.4-0.5,15.9-1.5c3.3-1.8,5.6-3.8,7.1-6.1c1.5-2.5,2.5-5.3,2.5-8.3
		c-0.3-3-1-5.8-2.8-8.3c-1.5-2.8-4-4.8-7.6-6.1C114.6,415.7,109.1,414.9,101.7,415.2L101.7,415.2z"/>
	<path d="M8.6,336.4h-154v147.7h154V336.4L8.6,336.4z M-98.5,460.4v-102h26.8c8.6,0,14.9,1,19.7,3.3c4.8,2.3,8.6,5.6,10.9,9.6
		c2.5,3.8,3.8,8.3,4,13.6C-37.4,395-42.4,402-53,406.6c7.8,1.3,13.6,4.3,17.9,9.1c4.3,4.5,6.6,10.4,6.6,16.9c0,5.3-1.3,10.1-4,13.9
		c-2.8,4.3-6.6,7.6-11.6,10.1c-5.3,2.5-11.9,3.8-19.7,3.8L-98.5,460.4L-98.5,460.4z"/>
	<path d="M-71.2,371.2h-12.6V402h9.8c7.6,0,13.1-1.5,16.4-4.3c3.3-3,5-7.1,5-11.6C-52.5,376.3-58.9,371.2-71.2,371.2L-71.2,371.2z"
		/>
	<path d="M-70.2,415.2h-13.6v32.1h14.4c7.6,0,13.1-0.5,16.4-1.5c2.8-1.3,5-3,6.8-5.6c1.5-2.8,2.3-5.6,2.5-8.8
		c-0.3-3.5-1.3-6.3-2.8-8.3c-1.8-2.8-4.3-4.8-7.6-5.8C-57.6,415.7-63.2,415.2-70.2,415.2L-70.2,415.2z"/>
</g>
</svg>
