<?xml version="1.0" encoding="utf-8"?>
<!-- Generator: Adobe Illustrator 19.0.0, SVG Export Plug-In . SVG Version: 6.00 Build 0)  -->
<svg version="1.1" id="Camada_1" xmlns="http://www.w3.org/2000/svg" xmlns:xlink="http://www.w3.org/1999/xlink" x="0px" y="0px"
	 viewBox="0 0 841.9 595.3" style="enable-background:new 0 0 841.9 595.3;" xml:space="preserve">
<style type="text/css">
	.st0{fill:#C99D66;}
	.st1{fill:#7C7B7B;}
	.st2{fill:#C99D66;stroke:#C99D66;stroke-miterlimit:10;}
</style>
<g>
	<path class="st0" d="M757,332.7h44.8c-0.3-4.7-4.4-7.5-8.2-7.5h-28.5v-23.9h26.5V294h-26.5v-20.8h28.5c5.3,0,7.9-4.3,8.2-7.5H757
		V332.7z"/>
	<path class="st0" d="M683.3,312.8l7.5,20h8.9l-26.7-67.1h-3.2c-4,0-6.6,2.9-7.6,5.6l-24.5,61.5l8.8,0.1l7.5-20H683.3z M668.8,274.2
		l12,31.4h-24.2L668.8,274.2z"/>
	<path class="st0" d="M602.5,265.6h-15.3c-6.1,0-8.8,2.9-8.8,9.3v57.8h24.1c18.9,0,30.2-12.8,30.2-34.3
		C632.7,277.9,621.4,265.6,602.5,265.6 M602.1,325.2h-15.5v-49.3c0-1.7,1.1-2.8,2.8-2.8h12.9c14.3,0,21.9,8.8,21.9,25.5
		C624.2,315.5,616.1,325.2,602.1,325.2"/>
	<path class="st0" d="M701.7,265.6c-4.8,0-7.8,3.8-8.1,7.5h22.7v59.6h8.2v-59.6H739c5.1,0,7.8-4.4,8.1-7.5H701.7z"/>
	<path class="st1" d="M214.1,332.7h21.8c13.1,0,20.9-7,20.9-18.6c0-8.6-3.8-14.1-11.4-16.3l-1.6-0.5l1.5-0.6
		c6.2-2.6,9.1-7.3,9.1-14.8c0-10.4-7.1-16.3-19.6-16.3h-29v58.6C205.9,329.1,209.4,332.7,214.1,332.7 M214,272.8h20.4
		c7.9,0,11.9,3.4,11.9,10.1c0,7-4.3,11-11.7,11H214V272.8z M214,301h20.8c8.8,0,13.5,4.3,13.5,12.3c0,8-4.6,12.2-13.3,12.2h-18.3
		c-1.8,0-2.7-0.9-2.7-2.8V301z"/>
	<path class="st1" d="M268.2,332.7H313c-0.3-4.7-4.4-7.5-8.2-7.5h-28.5v-23.9h26.5V294h-26.5v-20.8h28.5c5.3,0,7.9-4.3,8.2-7.5
		h-44.8V332.7z"/>
	<path class="st1" d="M366.9,312.8l7.5,20h8.9l-26.7-67.1h-3.2c-4,0-6.6,2.9-7.6,5.6l-24.5,61.5l8.8,0.1l7.5-20H366.9z M352.4,274.2
		l12,31.4h-24.2L352.4,274.2z"/>
	<path class="st1" d="M443.1,273.7c0-3-2.2-7.8-8-8.1v41.3c0,12.2-5.9,18.4-17.5,18.4c-11.5,0-17.3-6.2-17.3-18.4v-41.4
		c-4.6,0.3-8,3.7-8,8.1v33.5c0,16.4,9,25.4,25.4,25.4c16.4,0,25.5-9,25.5-25.4V273.7z"/>
	<path class="st1" d="M461.4,265.6c-4.8,0-7.8,3.8-8.1,7.5H476v59.6h8.2v-59.6h14.5c5.1,0,7.8-4.4,8.1-7.5H461.4z"/>
	<rect x="538.5" y="304.2" class="st1" width="8.2" height="28.6"/>
	<g>
		<path class="st1" d="M567.4,266.4l-0.4,0.8l-10.3,20.4l-3.9,7.7l-6.2,13.1c0,0-8.1,0-8.2-0.2c0.2,0.3-7.4-14.3-7.4-14.3l-3.9-7.7
			l-10.3-20.4h2.7c2.5,0,6.2,1.2,8.4,4.6c0.1,0.2,0.3,0.4,0.4,0.6l14,27.4l13.7-27.2c0.3-0.7,0.7-1.2,1.2-1.7c0,0,0,0,0,0
			c0.8-0.9,1.7-1.6,2.6-2.1c1.9-1.1,3.8-1.3,4.9-1.4C565.7,265.8,566.6,266,567.4,266.4z"/>
		<polygon class="st1" points="538.1,307.6 538.5,308.3 546.6,308.3 542.5,306.1 		"/>
	</g>
	<g>
		<path class="st0" d="M127,303.3l-22,22c0,0-46.8-46.8-46.9-46.9c0,0-11.5-12-13-13.5l6.6-6.6l13.7,14.1l39.7,39.7l15.4-15.4
			c3.5-3.5,5.4-8.4,5.2-13.3c-0.2-5-2.4-9.6-6.1-12.9c-3.2-2.8-7.3-4.3-11.6-4.3c-5,0-9.8,2-13.4,5.5c-1.8,1.8-4.1,2.7-6.5,2.7
			c-2.5,0-4.8-1-6.6-2.7l-0.1-0.1l7-7c5.2-5.1,12-8,19.3-8c7.3,0,14.2,2.8,19.3,8C137.6,275.3,137.6,292.7,127,303.3z"/>
		<path class="st0" d="M128,263.6c-5.4-5.4-12.7-8.4-20.4-8.4c-7.7,0-14.9,3-20.4,8.4l-8.1,8.1l1.3,1.1c2,2,4.7,3.1,7.6,3.1
			c2.9,0,5.6-1.1,7.6-3.2c3.2-3.2,7.7-5.1,12.3-5.1c3.9,0,7.7,1.4,10.6,3.9c3.5,3,5.5,7.2,5.6,11.9c0.2,4.5-1.6,9-4.8,12.2
			L105,309.9l-38.6-38.6l-13.7-14.1l-1.1,1.1l-6.6,6.6l-1.1,1.1c0.7,0.7,3.3,3.4,13,13.5c0.1,0.1,42.1,42.1,46.9,46.9l1.1,1.1l23-23
			C139.3,293.1,139.3,274.9,128,263.6z M51.4,260.2l12.8,13.2l40.8,40.8l16.4-16.4c3.8-3.8,5.8-9.1,5.7-14.4
			c-0.2-5.5-2.5-10.4-6.7-14c-3.4-3-7.9-4.6-12.5-4.6c-5.4,0-10.6,2.2-14.4,6c-1.5,1.5-3.4,2.3-5.5,2.3c-1.6,0-3.1-0.5-4.4-1.4
			l5.8-5.8c4.9-4.9,11.4-7.6,18.3-7.6c6.9,0,13.4,2.7,18.3,7.6c10.1,10.1,10.1,26.5,0,36.5L105,323.2c-7-6.9-45.6-45.6-45.9-45.8
			C55,273.1,49.2,267,47,264.7L51.4,260.2z"/>
	</g>
	<path class="st2" d="M148.4,324.3L105,367.7l-48.8-49.1l-1.1-1.1l-0.1-0.1l-0.1-0.1l-1.4-1.5c0,0-1.1-1.1-2-3c0,0,0,0,0-0.1
		c-1.2-2.7-2-7.1,1.7-12.4c0.1-0.1,0.1-0.2,0.2-0.3l51.7,51.9l35.6-35.6c17.4-17.4,17.4-48,0-65.4c-8.4-8.4-20.3-13.1-32.7-13.1
		s-24.4,4.8-32.7,13.1l-7.9,7.9l-7.8-7.8l7.9-7.9c10.4-10.4,25.2-16.4,40.5-16.4c15.3,0,30.1,6,40.5,16.4
		C170.3,265.2,170.3,302.4,148.4,324.3z"/>
</g>
</svg>
