<?xml version="1.0" encoding="utf-8"?>
<!-- Generator: Adobe Illustrator 18.1.1, SVG Export Plug-In . SVG Version: 6.00 Build 0)  -->
<svg version="1.1" id="Layer_1" xmlns="http://www.w3.org/2000/svg" xmlns:xlink="http://www.w3.org/1999/xlink" x="0px" y="0px"
	 viewBox="-153 154.2 512 512" enable-background="new -153 154.2 512 512" xml:space="preserve">
<g>
	<polygon fill="#FFFFFF" points="-153,154.2 359,154.2 359,666.2 -153,666.2 	"/>
	<path d="M336.4,433.3c0-2.9-2.4-5.2-5.2-5.2s-5.2,2.3-5.2,5.2c0,2.9,2.4,5.2,5.2,5.2S336.4,436.2,336.4,433.3L336.4,433.3z"/>
	<path fill="#FFFFFF" d="M335.8,433.3c0,2.6-2.1,4.6-4.6,4.6c-2.6,0-4.6-2.1-4.6-4.6c0-2.6,2.1-4.6,4.6-4.6
		C333.7,428.7,335.8,430.7,335.8,433.3L335.8,433.3z"/>
	<path d="M329.2,436h0.8v-2.5h1.9c1.2,0,0.9,1.1,1,1.8l0.1,0.7h0.9c-0.3-0.5-0.2-0.6-0.2-1.4c-0.1-1-0.2-1.1-0.7-1.5
		c0.6-0.5,0.8-0.7,0.8-1.5c-0.1-1.3-1-1.5-1.9-1.5h-2.6L329.2,436L329.2,436z"/>
	<path d="M212,427.5h57.3c84.9,0,84.9,55.9,0,55.9H212V427.5L212,427.5z"/>
	<path d="M76.1,483.9c24.3,0,44.2-13,44.2-28.9c0-15.9-19.9-28.9-44.2-28.9c-24.4,0-44.3,13-44.3,28.9
		C31.8,470.9,51.7,483.9,76.1,483.9L76.1,483.9z"/>
	<path d="M-100.9,483.4h-29.5v-55.9h27.1c0,0,22.3-0.6,22.3,14.2c0,0,0.9,10.2-7.9,13.2c0,0,11,2.9,11,13.3
		C-77.9,478.5-88.2,483.4-100.9,483.4L-100.9,483.4z"/>
	<path d="M330.8,386.8l3.2,1.8c0,0-4.1,5.8-10.5,12c6.7,8.9,12.1,16.2,12.1,16.2h-5.5l-9.8-13.2c-1.1,1-2.2,1.9-3.4,2.8
		c-10,7.7-17.7,12.1-24.9,12.1c-7.3,0-20.4-5.9-20.4-19.4c0-13.5,9-19.8,17.8-25.7c2.1-1.4,4-2.7,5.8-3.8c0,0-8.1-9.2-8.1-17.4
		c0-8.2,7.2-14.8,15.1-14.8c8,0,13.9,7.4,13.9,15c0,7.2-7,12.9-14.9,18.5c3.9,5.1,12.2,16.1,19.6,26.1
		C323.9,394,327.3,390.7,330.8,386.8L330.8,386.8z"/>
	<polygon points="92.7,416.7 125,336.6 157.3,416.7 152.3,416.7 141.9,390.9 108.2,390.9 97.8,416.7 	"/>
	<path d="M-34.4,339.2h17.6c49.6,0,50.7,77.5-1.2,77.5h-16.4V339.2L-34.4,339.2z"/>
	<path d="M71.5,416.7H52v-77.5h17.6c0,0,19,0,19.8,18.9c0,0,1.1,12.4-8.6,17.6c0,0,15.4,3.1,15.4,19.4
		C96.2,411.5,83.1,416.7,71.5,416.7L71.5,416.7z"/>
	<path d="M-110.2,416.7h-19.5v-77.5h17.7c0,0,19,0,19.7,18.9c0,0,1.2,12.4-8.6,17.6c0,0,15.5,3.1,15.5,19.4
		C-85.4,411.5-98.6,416.7-110.2,416.7L-110.2,416.7z"/>
	<path fill="#FFFFFF" d="M331.8,430.9c0.5,0,1.2,0.1,1.1,1.1c-0.1,0.8-0.6,0.9-1.1,0.9H330v-2H331.8L331.8,430.9z"/>
	<path fill="#FFFFFF" d="M257,466.4h6c32.6,0,32.6-21.6,0-21.6h-6V466.4L257,466.4z"/>
	<path d="M121.3,427.5h30.1l26.7,29.7c1.5,1.6,3,1.2,2-1.2c-1-2.4-1.8-7.5-1.8-7.5v-21h29.5v55.9h-29.6l-26.9-28.5
		c-1.5-1.6-3-1.2-2,1.2c1,2.4,1.5,7.5,1.5,7.5v19.9h-29.4V427.5L121.3,427.5z"/>
	<path fill="#FFFFFF" d="M76.1,444c8.3,0,15.1,4.9,15.1,11c0,6.1-6.8,11-15.1,11s-15.1-5-15.1-11C61,448.9,67.8,444,76.1,444
		L76.1,444z"/>
	<polygon points="-74.4,427.5 -0.6,427.5 8.1,443.3 16.4,427.5 47.1,427.5 21.1,459.6 21.1,483.4 -5.3,483.4 -5.3,458.8 
		-29.7,429.6 -29.7,442.6 -50.2,442.6 -50.2,448.1 -31.3,448.1 -31.3,462.5 -50.2,462.5 -50.2,468.2 -28.7,468.2 -28.7,483.4 
		-74.4,483.4 	"/>
	<path fill="#FFFFFF" d="M-110,449.3h5.3c5.6,0,5.6-8.5,0-8.5h-5.3V449.3L-110,449.3z"/>
	<path fill="#FFFFFF" d="M-110,461h6.1c7.9,0,7.9,9.2,0,9.2h-6.1V461L-110,461z"/>
	<path fill="#FFFFFF" d="M317.6,399.9l-19.7-26.6c-7.1,5-9.2,6.2-12.7,8.9c-3.7,2.9-9,7.3-9,15.5c0,8.3,6.6,15.7,15.1,15.7
		C297.6,413.4,306.3,409.7,317.6,399.9L317.6,399.9z"/>
	<path fill="#FFFFFF" d="M298.5,367.4c3.6-2.3,6.2-4.1,8.4-6.4c3.6-3.8,4.2-6.3,4.2-8.7c0-2.4-1.6-10.1-9.5-10.1
		c-8,0-9.8,7.1-9.8,10.7C291.8,356.2,293.8,360.9,298.5,367.4L298.5,367.4z"/>
	<polygon points="196.1,371.8 243.4,371.8 243.4,339.2 247.9,339.2 247.9,416.7 243.4,416.7 243.4,376.7 196.1,376.7 196.1,416.7 
		191.6,416.7 191.6,339.2 196.1,339.2 	"/>
	<polygon points="142.1,339.2 186.7,339.2 186.7,343.6 166.6,343.6 166.6,416.7 162.1,416.7 162.1,343.6 142.1,343.6 	"/>
	<polygon fill="#FFFFFF" points="140.1,386.4 125,348.9 109.9,386.4 	"/>
	<path fill="#FFFFFF" d="M-29.2,344h11.7c44.4,0,43.8,67.7,0,67.7h-11.7V344L-29.2,344z"/>
	<polygon points="-79.4,339.2 -42.5,339.2 -42.5,344 -74.7,344 -74.7,372.2 -43.4,372.2 -43.4,376.7 -74.7,376.7 -74.7,411.9 
		-42.5,411.9 -42.5,416.7 -79.4,416.7 	"/>
	<path fill="#FFFFFF" d="M56.3,343.9h13c20.5,0,20.5,30.5,0,30.5h-13V343.9L56.3,343.9z"/>
	<path fill="#FFFFFF" d="M-125.4,343.9h13c20.5,0,20.5,30.5,0,30.5h-13V343.9L-125.4,343.9z"/>
	<path fill="#FFFFFF" d="M56.4,379.4h17.3c24.3,0,23.6,32.5-0.7,32.5H56.4V379.4L56.4,379.4z"/>
	<path fill="#FFFFFF" d="M-125.3,379.4h17.2c24.4,0,23.7,32.5-0.7,32.5h-16.6V379.4L-125.3,379.4z"/>
</g>
</svg>
