<?xml version="1.0" encoding="utf-8"?>
<!-- Generator: Adobe Illustrator 15.1.0, SVG Export Plug-In . SVG Version: 6.00 Build 0)  -->
<!DOCTYPE svg PUBLIC "-//W3C//DTD SVG 1.1//EN" "http://www.w3.org/Graphics/SVG/1.1/DTD/svg11.dtd">
<svg version="1.1" id="Layer_1" xmlns="http://www.w3.org/2000/svg" xmlns:xlink="http://www.w3.org/1999/xlink" x="0px" y="0px"
	 width="183px" height="179.781px" viewBox="0 0 183 179.781" enable-background="new 0 0 183 179.781" xml:space="preserve">
<g>
	<path fill-rule="evenodd" clip-rule="evenodd" d="M92.771,56.625c33.551,0,60.914,27.365,60.914,60.914
		c0,33.551-27.363,60.916-60.914,60.916S31.856,151.09,31.856,117.54C31.856,83.99,59.221,56.625,92.771,56.625L92.771,56.625z"/>
	<path fill-rule="evenodd" clip-rule="evenodd" fill="#AABAC2" d="M32.707,117.54c0-33.119,26.945-60.063,60.065-60.063
		c33.12,0,60.064,26.945,60.064,60.063c0,33.121-26.944,60.064-60.064,60.064C59.652,177.604,32.707,150.661,32.707,117.54
		L32.707,117.54z"/>
	<path fill-rule="evenodd" clip-rule="evenodd" d="M40.927,117.54c0,28.588,23.257,51.846,51.845,51.846
		c28.587,0,51.845-23.258,51.845-51.846c0-28.586-23.258-51.843-51.845-51.843C64.184,65.696,40.927,88.954,40.927,117.54
		L40.927,117.54z"/>
	<path fill-rule="evenodd" clip-rule="evenodd" fill="#FFFFFF" d="M41.78,117.54c0-28.116,22.875-50.99,50.991-50.99
		s50.99,22.874,50.99,50.99c0,28.117-22.874,50.992-50.99,50.992S41.78,145.657,41.78,117.54L41.78,117.54z"/>
	<path fill-rule="evenodd" clip-rule="evenodd" d="M44.624,117.54c0,26.549,21.599,48.148,48.148,48.148s48.147-21.6,48.147-48.148
		S119.32,69.393,92.771,69.393S44.624,90.991,44.624,117.54L44.624,117.54z"/>
	<path fill-rule="evenodd" clip-rule="evenodd" fill="#FFFFFF" d="M45.524,117.54c0-26.051,21.195-47.246,47.247-47.246
		s47.246,21.195,47.246,47.246c0,26.053-21.194,47.246-47.246,47.246S45.524,143.592,45.524,117.54L45.524,117.54z"/>
	<path fill-rule="evenodd" clip-rule="evenodd" d="M140.061,117.93c0.001-0.131,0.005-0.26,0.005-0.391
		c0-0.154-0.005-0.309-0.006-0.463H96.761l42.459-8.447c-0.054-0.279-0.109-0.559-0.167-0.838l-42.125,8.381l39.659-16.43
		c-0.108-0.264-0.217-0.525-0.329-0.787l-39.662,16.428l35.668-23.832c-0.157-0.238-0.315-0.475-0.476-0.709L96.12,114.674
		l30.316-30.315c-0.2-0.203-0.401-0.404-0.605-0.603l-30.313,30.314l23.814-35.641c-0.235-0.161-0.473-0.317-0.711-0.473
		l-23.814,35.641l15.499-37.418l-0.788-0.327L94.021,113.27l7.071-35.554l-0.837-0.167l-6.931,34.842v-36.72h-1.137v36.72
		l-7.163-36.005l-0.837,0.167l7.304,36.717L75.607,74.923l-0.789,0.327l15.885,38.348L66.899,77.972
		c-0.239,0.155-0.476,0.313-0.71,0.473l23.805,35.626L59.695,83.772c-0.204,0.199-0.406,0.4-0.605,0.603l30.3,30.299L53.745,90.858
		c-0.161,0.234-0.319,0.471-0.476,0.707l35.648,23.82L49.279,98.967c-0.112,0.26-0.22,0.523-0.328,0.787l39.636,16.418
		l-42.099-8.375c-0.059,0.279-0.113,0.559-0.167,0.84l42.428,8.439H45.483c-0.001,0.154-0.007,0.309-0.007,0.463
		c0,0.131,0.005,0.26,0.006,0.391h42.599l-41.798,8.314c0.053,0.281,0.104,0.561,0.162,0.84l42.14-8.383l-39.706,16.447
		c0.106,0.264,0.213,0.527,0.323,0.791l39.712-16.449l-35.74,23.881c0.156,0.236,0.313,0.475,0.472,0.711l35.743-23.885
		L58.988,150.6c0.199,0.205,0.399,0.406,0.603,0.605l30.404-30.404l-23.9,35.77c0.234,0.16,0.471,0.318,0.709,0.475l23.9-35.77
		l-16.473,39.77c0.261,0.111,0.524,0.221,0.788,0.326l17.738-42.82l17.742,42.832c0.263-0.107,0.526-0.215,0.788-0.326
		l-16.478-39.779l23.909,35.783c0.238-0.156,0.475-0.314,0.709-0.475l-23.91-35.783l30.42,30.418c0.202-0.199,0.403-0.4,0.603-0.604
		l-30.418-30.42l35.765,23.898c0.16-0.234,0.316-0.473,0.473-0.711l-35.765-23.896l39.741,16.461
		c0.11-0.262,0.217-0.525,0.323-0.789l-39.734-16.459l42.172,8.389c0.058-0.279,0.109-0.559,0.162-0.84l-41.83-8.32H140.061
		L140.061,117.93z"/>
	<path fill-rule="evenodd" clip-rule="evenodd" fill="#009248" d="M69.521,65.045c-3.195-0.785-5.901-1.152-7.708-0.917
		c-5.41,0.706-11.9,3.375-18.608,6.612c-4.301,2.076-9.641,4.789-20.316,11.089l9.943,0.749l-1.039,8.306
		c5.89-3.858,13.771-9.268,21.051-12.387c3.075-1.317,6.042-2.225,8.707-2.436c2.011-0.158,3.717,0.356,5.703,0.856
		c8.663,2.181,17.003,4.645,25.519,4.645V69.348C84.692,69.348,76.1,66.658,69.521,65.045L69.521,65.045z"/>
	<path fill-rule="evenodd" clip-rule="evenodd" d="M129.608,87.333c-12.606,4.734-25.346,7.236-36.84,7.236
		s-24.233-2.502-36.841-7.236l-0.478-0.179l-0.092,0.502c-6.433,35.093,6.064,65.533,37.144,90.474l0.267,0.215l0.267-0.215
		c31.081-24.941,43.577-55.381,37.144-90.474l-0.092-0.502L129.608,87.333L129.608,87.333z"/>
	<path fill-rule="evenodd" clip-rule="evenodd" fill="#FFFFFF" d="M92.769,95.422c11.447,0,24.108-2.467,36.65-7.118
		c1.024,5.737,1.545,11.352,1.545,16.834c0,27.434-12.802,51.623-38.195,72.102c-25.393-20.479-38.196-44.668-38.196-72.102
		c0-5.482,0.521-11.098,1.545-16.834C68.66,92.956,81.322,95.422,92.769,95.422L92.769,95.422z"/>
	<path fill-rule="evenodd" clip-rule="evenodd" fill="#EE3124" d="M92.769,172.877V99.79c-11.923,0-22.61-1.941-33.425-5.623
		C55.297,125.292,67.802,150.215,92.769,172.877L92.769,172.877z"/>
	<path fill-rule="evenodd" clip-rule="evenodd" fill="#FDB913" d="M92.743,108.967c11.476,0,20.835,9.359,20.835,20.836
		s-9.359,20.836-20.835,20.836c-11.476,0-20.836-9.359-20.836-20.836S81.267,108.967,92.743,108.967L92.743,108.967z"/>
	<path fill-rule="evenodd" clip-rule="evenodd" d="M71.479,129.803c0,11.725,9.539,21.264,21.264,21.264
		c11.724,0,21.263-9.539,21.263-21.264s-9.539-21.264-21.263-21.264C81.018,108.54,71.479,118.079,71.479,129.803L71.479,129.803z
		 M72.334,129.803c0-11.254,9.156-20.408,20.409-20.408c11.253,0,20.407,9.154,20.407,20.408s-9.154,20.408-20.407,20.408
		C81.49,150.211,72.334,141.057,72.334,129.803L72.334,129.803z"/>
	<path fill-rule="evenodd" clip-rule="evenodd" d="M71.52,129.403c1.268,2.371,3.439,4.705,6.278,6.754l0.5-0.693
		c-2.734-1.973-4.818-4.207-6.025-6.463L71.52,129.403L71.52,129.403z"/>
	<path fill-rule="evenodd" clip-rule="evenodd" d="M81.551,133.381l0.65-0.553c-4.786-5.633-3.732-15.199,2.398-21.777l-0.625-0.584
		C77.554,117.36,76.489,127.422,81.551,133.381L81.551,133.381z"/>
	<path fill-rule="evenodd" clip-rule="evenodd" d="M91.044,120.846l0.817-0.248c-1.571-5.158-0.02-8.395,5.185-10.826l-0.361-0.773
		C91.084,111.616,89.345,115.268,91.044,120.846L91.044,120.846z"/>
	<path fill-rule="evenodd" clip-rule="evenodd" d="M101.932,128.756c4.892,5.07,5.98,13.064,2.429,17.818l0.684,0.512
		c3.856-5.162,2.76-13.473-2.498-18.924L101.932,128.756L101.932,128.756z"/>
	<path fill-rule="evenodd" clip-rule="evenodd" d="M106.684,123.512c3.622,2.992,5.708,7.582,5.58,12.273l0.854,0.023
		c0.137-4.953-2.065-9.797-5.889-12.955L106.684,123.512L106.684,123.512z"/>
	<path fill-rule="evenodd" clip-rule="evenodd" d="M95.226,134.19c3.453,6.41,2.91,12.971-1.321,15.953l0.492,0.697
		c4.597-3.238,5.247-10.252,1.581-17.057L95.226,134.19L95.226,134.19z"/>
	<path fill-rule="evenodd" clip-rule="evenodd" d="M87.257,144.262l-0.127,0.846c3.765,0.566,8.868-1.146,10.909-5.438l-0.771-0.367
		C95.403,143.225,90.718,144.786,87.257,144.262L87.257,144.262z"/>
	<path fill-rule="evenodd" clip-rule="evenodd" d="M126.021,93.772c-4.528,1.543-8.867,2.727-13.26,3.619l-0.126,0.027
		l-45.164,45.023l0.152,0.279c2.342,4.34,5.175,8.682,8.417,12.904l0.296,0.385l50.997-50.838l-0.002-0.18
		c-0.021-3.559-0.272-7.215-0.748-10.871l-0.067-0.518L126.021,93.772L126.021,93.772z"/>
	<path fill-rule="evenodd" clip-rule="evenodd" fill="#0095DA" d="M125.786,94.745c0.422,3.393,0.657,6.777,0.685,10.08
		c-0.261,0.26-49.354,49.201-50.043,49.889c-3.022-3.975-5.678-8.049-7.897-12.123c0.456-0.453,44.355-44.217,44.529-44.391
		C117.277,97.336,121.451,96.2,125.786,94.745L125.786,94.745z"/>
	<path fill-rule="evenodd" clip-rule="evenodd" fill="#FDB913" d="M78.159,146.774l1.19-1.189c0.466,0.424,0.959,0.639,1.483,0.643
		c0.525,0.004,0.997-0.201,1.412-0.617c0.458-0.457,0.69-0.955,0.699-1.494c0.009-0.541-0.207-1.033-0.652-1.477
		c-0.388-0.389-0.791-0.59-1.204-0.6c-0.414-0.014-1.034,0.213-1.861,0.67c-0.04,0.023-0.112,0.068-0.211,0.127
		c-0.958,0.576-1.83,0.816-2.614,0.719c-0.349-0.039-0.671-0.125-0.966-0.266c-0.297-0.143-0.567-0.334-0.814-0.582
		c-0.736-0.736-1.098-1.563-1.086-2.482c0.014-0.918,0.396-1.756,1.152-2.512c0.7-0.701,1.468-1.063,2.304-1.086
		c0.838-0.025,1.634,0.293,2.388,0.957l-1.24,1.24c-0.363-0.322-0.761-0.475-1.196-0.463c-0.437,0.014-0.823,0.191-1.164,0.533
		c-0.365,0.365-0.545,0.777-0.539,1.238c0.006,0.465,0.193,0.881,0.562,1.25c0.131,0.131,0.273,0.23,0.429,0.303
		c0.157,0.072,0.326,0.113,0.513,0.123c0.381,0.021,0.941-0.193,1.677-0.639c0.339-0.205,0.608-0.357,0.8-0.459
		c0.817-0.393,1.584-0.541,2.302-0.449c0.716,0.092,1.357,0.42,1.925,0.988c0.829,0.828,1.245,1.748,1.248,2.76
		c0.004,1.01-0.41,1.93-1.239,2.76c-0.781,0.781-1.659,1.172-2.634,1.176C79.85,147.948,78.961,147.559,78.159,146.774
		L78.159,146.774z M92.229,137.655l-1.258,1.258l-1.45-1.449l1.259-1.26L92.229,137.655L92.229,137.655z M101.888,127.995
		l-4.329,4.33l-8.583-8.582l1.328-1.328l7.397,7.398l3.002-3.004L101.888,127.995L101.888,127.995z M107.948,121.936l-1.26,1.26
		l-1.45-1.451l1.259-1.26L107.948,121.936L107.948,121.936z M109.604,110.303l0.422-0.42c0.685-0.686,1.075-1.27,1.171-1.754
		c0.096-0.488-0.077-0.953-0.525-1.402c-0.396-0.396-0.823-0.557-1.279-0.484c-0.455,0.074-0.953,0.383-1.499,0.928l-0.711,0.711
		L109.604,110.303L109.604,110.303z M113.418,114.145l1.044-1.045c0.614-0.613,0.958-1.172,1.033-1.678
		c0.077-0.502-0.111-0.979-0.561-1.428c-0.486-0.486-1.005-0.703-1.56-0.652s-1.126,0.369-1.714,0.957l-1.044,1.045L113.418,114.145
		L113.418,114.145z M106.663,106.053c0.978-0.977,1.92-1.516,2.829-1.625c0.907-0.105,1.745,0.223,2.511,0.99
		c0.354,0.354,0.582,0.75,0.688,1.188c0.106,0.436,0.089,0.9-0.052,1.395c0.571-0.322,1.167-0.436,1.785-0.336
		c0.618,0.098,1.176,0.393,1.671,0.889c0.4,0.4,0.697,0.855,0.89,1.367c0.191,0.512,0.264,1.023,0.214,1.537
		c-0.056,0.498-0.212,0.967-0.468,1.412c-0.255,0.445-0.703,0.986-1.341,1.623l-2.113,2.113l-8.583-8.582L106.663,106.053
		L106.663,106.053z M124.891,104.993l-1.259,1.258l-1.45-1.449l1.259-1.26L124.891,104.993L124.891,104.993z"/>
	<path fill-rule="evenodd" clip-rule="evenodd" d="M126.056,93.762c-11.222,3.822-21.799,5.602-33.287,5.602
		s-22.065-1.779-33.288-5.602l-0.493-0.168L58.92,94.11c-3.857,29.672,6.807,54.799,33.562,79.084l0.287,0.26l0.287-0.26
		c26.754-24.285,37.419-49.412,33.562-79.084l-0.067-0.516L126.056,93.762L126.056,93.762z M59.011,105.598
		c0-3.555,0.247-7.178,0.706-10.863c11.123,3.73,21.643,5.482,33.052,5.482s21.929-1.752,33.052-5.482
		c0.459,3.686,0.706,7.309,0.706,10.863c0,24.428-10.924,45.869-33.758,66.693C69.935,151.467,59.011,130.026,59.011,105.598
		L59.011,105.598z"/>
	<path fill-rule="evenodd" clip-rule="evenodd" fill="#EE3124" d="M162.654,81.829c-10.676-6.3-16.015-9.013-20.316-11.089
		c-6.708-3.237-13.198-5.906-18.608-6.612c-1.807-0.235-4.513,0.132-7.709,0.917c-6.578,1.613-15.17,4.302-23.249,4.302v12.214
		c8.516,0,16.855-2.464,25.519-4.645c1.985-0.5,3.691-1.014,5.703-0.856c2.664,0.21,5.631,1.119,8.705,2.436
		c7.28,3.119,15.162,8.529,21.052,12.387l-1.039-8.306L162.654,81.829L162.654,81.829z"/>
	<path fill-rule="evenodd" clip-rule="evenodd" d="M115.919,64.631l-3.686,0.941c-6.034,1.57-12.873,3.349-19.462,3.349
		c-6.59,0-13.429-1.779-19.462-3.349l-3.687-0.941c-3.445-0.845-6.091-1.156-7.866-0.926c-4.696,0.612-10.475,2.663-18.738,6.651
		c-4.057,1.958-9.309,4.591-20.348,11.105l-1.17,0.691c0,0,10.035,0.755,10.851,0.816c-0.1,0.797-1.098,8.779-1.098,8.779
		l2.829-1.861c5.569-3.674,12.501-8.245,18.929-10.999c3.277-1.403,6.161-2.212,8.571-2.402c1.732-0.137,3.227,0.246,4.957,0.689
		l3.902,0.996c7.634,1.962,14.844,3.816,22.33,3.816c7.484,0,14.695-1.854,22.329-3.816l3.902-0.996
		c1.729-0.443,3.224-0.826,4.956-0.689c2.411,0.19,5.295,0.999,8.571,2.402c6.428,2.753,13.359,7.325,18.93,10.999l2.83,1.861
		c0,0-1-7.982-1.101-8.779c0.816-0.061,10.853-0.816,10.853-0.816l-1.171-0.691c-11.038-6.514-16.291-9.148-20.348-11.105
		c-8.265-3.988-14.044-6.039-18.738-6.651C122.01,63.475,119.363,63.786,115.919,64.631L115.919,64.631z M112.447,66.398
		l3.675-0.938c3.342-0.82,5.883-1.125,7.553-0.908c4.601,0.6,10.3,2.626,18.479,6.573c3.892,1.879,8.907,4.394,19.108,10.381
		c-2.027,0.153-9.029,0.68-9.029,0.68s0.798,6.38,0.979,7.833c-0.602-0.396-1.283-0.844-1.283-0.844
		c-5.598-3.692-12.563-8.286-19.063-11.069c-3.409-1.461-6.301-2.269-8.84-2.468c-1.874-0.148-3.506,0.27-5.235,0.713l-3.903,0.996
		c-7.58,1.948-14.739,3.789-22.116,3.789s-14.537-1.841-22.117-3.789l-3.903-0.996c-1.729-0.443-3.361-0.861-5.235-0.713
		c-2.539,0.2-5.431,1.007-8.841,2.468c-6.498,2.783-13.464,7.378-19.063,11.069c0,0-0.68,0.448-1.282,0.844
		c0.182-1.453,0.98-7.833,0.98-7.833s-7.002-0.527-9.029-0.68c10.202-5.988,15.216-8.503,19.108-10.381
		c8.178-3.946,13.877-5.973,18.478-6.573c1.669-0.217,4.21,0.088,7.552,0.908l3.675,0.938c6.083,1.583,12.978,3.376,19.677,3.376
		S106.364,67.98,112.447,66.398L112.447,66.398z"/>
	<path fill-rule="evenodd" clip-rule="evenodd" d="M134.239,75.703l-1.122-0.453l0.511-2.007c0.037-0.141,0.081-0.297,0.131-0.468
		c0.052-0.17,0.11-0.355,0.177-0.554c-0.103,0.174-0.252,0.385-0.446,0.63c-0.041,0.051-0.072,0.089-0.092,0.113l-1.431,1.821
		l-0.8-0.323l0.236-2.304c0.003-0.031,0.007-0.079,0.016-0.144c0.027-0.313,0.066-0.566,0.115-0.761
		c-0.08,0.162-0.161,0.32-0.241,0.477c-0.083,0.157-0.168,0.312-0.256,0.466l-1.026,1.798l-1.115-0.451l2.457-4.126l1.187,0.479
		l-0.252,2.538c-0.002,0.017-0.005,0.047-0.008,0.087c-0.02,0.228-0.05,0.417-0.093,0.568c0.039-0.075,0.09-0.156,0.15-0.243
		c0.06-0.085,0.136-0.188,0.229-0.307l1.585-1.993l1.19,0.481L134.239,75.703L134.239,75.703z M123.331,67.713l1.278,0.18
		l-0.322,2.286c-0.047,0.336-0.071,0.579-0.076,0.728c-0.003,0.148,0.009,0.275,0.036,0.379c0.031,0.126,0.105,0.231,0.218,0.312
		c0.113,0.079,0.258,0.132,0.433,0.156c0.176,0.025,0.328,0.014,0.459-0.031c0.129-0.047,0.229-0.126,0.296-0.239
		c0.055-0.092,0.101-0.211,0.139-0.354c0.037-0.144,0.08-0.384,0.127-0.721l0.046-0.321l0.275-1.964l1.274,0.179l-0.35,2.484
		c-0.072,0.516-0.156,0.892-0.253,1.128c-0.098,0.236-0.23,0.43-0.403,0.583c-0.187,0.167-0.428,0.28-0.721,0.336
		c-0.294,0.056-0.641,0.055-1.041-0.001c-0.402-0.057-0.736-0.152-1.002-0.287c-0.267-0.134-0.468-0.309-0.603-0.521
		c-0.121-0.195-0.196-0.417-0.226-0.672c-0.028-0.254-0.006-0.639,0.066-1.153l0.068-0.489L123.331,67.713L123.331,67.713z
		 M115.816,74.141l-1.229-4.584l1.206-0.323l2.363,1.894c0.046,0.039,0.126,0.121,0.242,0.245c0.115,0.125,0.245,0.275,0.39,0.451
		c-0.075-0.183-0.139-0.347-0.19-0.492c-0.051-0.145-0.092-0.275-0.122-0.39l-0.606-2.264l1.198-0.321l1.229,4.584l-1.199,0.32
		l-2.366-1.903c-0.049-0.039-0.13-0.12-0.246-0.245c-0.114-0.125-0.242-0.273-0.385-0.445c0.076,0.186,0.141,0.351,0.191,0.496
		c0.052,0.145,0.092,0.274,0.123,0.39l0.606,2.264L115.816,74.141L115.816,74.141z M108.169,71.224l1.246-0.334l0.597,2.229
		c0.089,0.328,0.16,0.561,0.214,0.7c0.055,0.138,0.115,0.25,0.183,0.335c0.077,0.104,0.186,0.171,0.321,0.201
		c0.135,0.029,0.289,0.021,0.459-0.024c0.172-0.046,0.308-0.116,0.41-0.208c0.1-0.093,0.161-0.206,0.179-0.335
		c0.015-0.107,0.01-0.234-0.011-0.381c-0.022-0.147-0.076-0.385-0.164-0.713l-0.084-0.313l-0.514-1.917l1.243-0.333l0.649,2.424
		c0.135,0.502,0.204,0.881,0.207,1.137c0.004,0.256-0.044,0.486-0.143,0.695c-0.106,0.227-0.285,0.424-0.532,0.59
		c-0.249,0.166-0.568,0.301-0.959,0.406c-0.393,0.104-0.736,0.147-1.034,0.128c-0.298-0.02-0.551-0.102-0.759-0.245
		c-0.188-0.132-0.344-0.308-0.47-0.531c-0.125-0.223-0.256-0.585-0.391-1.088l-0.127-0.477L108.169,71.224L108.169,71.224z
		 M100.081,76.089c0.228,0.181,0.443,0.309,0.646,0.382c0.203,0.074,0.396,0.095,0.579,0.063c0.17-0.03,0.302-0.101,0.395-0.211
		c0.095-0.111,0.129-0.236,0.104-0.376c-0.027-0.156-0.095-0.268-0.205-0.335c-0.109-0.067-0.34-0.117-0.688-0.147
		c-0.479-0.042-0.832-0.147-1.056-0.311c-0.225-0.164-0.368-0.419-0.428-0.764c-0.079-0.446,0.006-0.837,0.256-1.173
		c0.249-0.335,0.611-0.543,1.088-0.628c0.258-0.045,0.509-0.054,0.752-0.026c0.243,0.029,0.479,0.095,0.711,0.2l-0.237,0.986
		c-0.166-0.097-0.331-0.165-0.495-0.201c-0.163-0.036-0.318-0.041-0.467-0.014c-0.154,0.027-0.272,0.086-0.354,0.176
		c-0.084,0.09-0.114,0.193-0.095,0.308c0.021,0.118,0.08,0.204,0.176,0.259c0.097,0.056,0.271,0.094,0.522,0.115
		c0.016,0.002,0.036,0.004,0.061,0.006c0.544,0.048,0.912,0.143,1.105,0.282c0.131,0.096,0.239,0.218,0.326,0.37
		c0.086,0.149,0.146,0.323,0.18,0.518c0.088,0.496-0.005,0.924-0.277,1.282c-0.272,0.359-0.68,0.586-1.222,0.682
		c-0.326,0.058-0.633,0.054-0.92-0.009c-0.286-0.064-0.573-0.192-0.862-0.385L100.081,76.089L100.081,76.089z M93.262,73.421
		l1.287-0.09l0.16,2.302c0.024,0.339,0.051,0.582,0.077,0.728c0.028,0.146,0.065,0.267,0.114,0.363
		c0.057,0.117,0.15,0.204,0.277,0.259c0.127,0.055,0.279,0.076,0.456,0.063s0.323-0.055,0.441-0.126
		c0.117-0.073,0.198-0.171,0.24-0.295c0.035-0.103,0.055-0.229,0.063-0.376c0.006-0.149-0.002-0.393-0.025-0.731l-0.023-0.323
		l-0.138-1.979l1.283-0.089l0.176,2.503c0.035,0.52,0.032,0.904-0.014,1.156c-0.046,0.252-0.136,0.469-0.272,0.655
		c-0.147,0.202-0.36,0.361-0.637,0.478c-0.274,0.116-0.615,0.188-1.018,0.215c-0.405,0.029-0.752,0.005-1.04-0.071
		c-0.288-0.076-0.521-0.206-0.698-0.385c-0.159-0.166-0.278-0.368-0.359-0.61c-0.081-0.243-0.139-0.624-0.176-1.143l-0.034-0.492
		L93.262,73.421L93.262,73.421z"/>
	<path fill-rule="evenodd" clip-rule="evenodd" d="M51.591,75.601l-1.854-4.368l2.677-1.137l0.406,0.958l-1.515,0.644l0.321,0.757
		l1.429-0.606l0.398,0.937l-1.429,0.606l0.313,0.737l1.516-0.643l0.416,0.979L51.591,75.601L51.591,75.601z M61.646,72.618
		l-1.212,0.042l-0.166-4.743l1.351-0.047c0.529-0.019,0.902-0.006,1.119,0.039c0.215,0.044,0.399,0.127,0.553,0.248
		c0.18,0.137,0.32,0.313,0.419,0.528c0.1,0.214,0.153,0.454,0.164,0.719c0.009,0.283-0.027,0.534-0.111,0.751
		c-0.083,0.22-0.21,0.4-0.383,0.544c-0.13,0.108-0.286,0.188-0.465,0.24s-0.47,0.085-0.869,0.099l-0.22,0.008l-0.233,0.008
		L61.646,72.618L61.646,72.618z M61.554,70.011l0.247-0.009c0.311-0.011,0.526-0.062,0.646-0.151c0.12-0.089,0.177-0.236,0.17-0.442
		c-0.007-0.199-0.073-0.338-0.196-0.418c-0.124-0.08-0.339-0.114-0.646-0.103l-0.258,0.009L61.554,70.011L61.554,70.011z
		 M66.039,73.141l1.228-4.584l1.25,0.335l-0.941,3.513l1.553,0.417l-0.287,1.071L66.039,73.141L66.039,73.141z M72.052,69.811
		l1.246,0.333L72.7,72.374c-0.088,0.328-0.143,0.566-0.165,0.713c-0.021,0.147-0.025,0.274-0.01,0.381
		c0.016,0.129,0.076,0.241,0.178,0.335c0.103,0.092,0.24,0.163,0.411,0.208c0.171,0.045,0.323,0.053,0.458,0.024
		c0.134-0.031,0.243-0.098,0.323-0.201c0.067-0.085,0.126-0.198,0.182-0.335c0.055-0.139,0.126-0.372,0.214-0.7l0.083-0.313
		l0.513-1.917l1.244,0.333l-0.65,2.424c-0.134,0.503-0.264,0.866-0.389,1.089c-0.125,0.223-0.281,0.399-0.471,0.53
		c-0.206,0.143-0.459,0.225-0.756,0.245c-0.298,0.02-0.643-0.023-1.033-0.128c-0.392-0.105-0.713-0.24-0.96-0.406
		c-0.248-0.167-0.426-0.364-0.535-0.591c-0.097-0.208-0.144-0.438-0.142-0.694c0.003-0.256,0.071-0.635,0.206-1.138l0.128-0.477
		L72.052,69.811L72.052,69.811z M77.181,75.979l1.067-4.624l1.318,0.304c0.515,0.119,0.87,0.226,1.062,0.32
		c0.191,0.094,0.35,0.214,0.471,0.36c0.137,0.164,0.228,0.356,0.272,0.571c0.044,0.217,0.039,0.443-0.015,0.679
		c-0.083,0.358-0.238,0.629-0.465,0.813s-0.518,0.273-0.872,0.269l0.829,2.155l-1.424-0.329l-0.643-2.055l-0.418,1.81L77.181,75.979
		L77.181,75.979z M78.926,73.813l0.234,0.054c0.271,0.063,0.481,0.063,0.627-0.001c0.146-0.063,0.242-0.195,0.288-0.392
		c0.053-0.232,0.034-0.41-0.062-0.536c-0.094-0.125-0.278-0.219-0.555-0.283l-0.252-0.058L78.926,73.813L78.926,73.813z
		 M82.82,77.153l0.824-4.674l1.287,0.227l-0.824,4.674L82.82,77.153L82.82,77.153z"/>
	<path fill-rule="evenodd" clip-rule="evenodd" fill="#009248" d="M61.772,68.839l-0.306,0.011l0.042,1.209l0.293-0.01
		c0.323-0.011,0.543-0.063,0.673-0.161c0.133-0.099,0.196-0.261,0.188-0.481c-0.007-0.214-0.08-0.367-0.217-0.457
		C62.312,68.865,62.092,68.828,61.772,68.839L61.772,68.839z M61.776,68.934c0.295-0.01,0.503,0.022,0.618,0.096
		c0.111,0.072,0.168,0.196,0.174,0.38c0,0.011,0.001,0.022,0.001,0.033c0,0.171-0.051,0.295-0.151,0.37
		c-0.112,0.083-0.32,0.131-0.619,0.141c0,0-0.137,0.005-0.199,0.008c-0.003-0.083-0.033-0.937-0.036-1.02
		C61.628,68.939,61.776,68.934,61.776,68.934L61.776,68.934z"/>
	<path fill-rule="evenodd" clip-rule="evenodd" fill="#009248" d="M79.161,72.586l-0.292,1.262l0.28,0.064
		c0.285,0.065,0.5,0.064,0.657-0.004c0.16-0.07,0.266-0.213,0.315-0.425c0.057-0.246,0.033-0.439-0.07-0.575
		c-0.101-0.135-0.292-0.233-0.582-0.3l-0.298-0.068L79.161,72.586L79.161,72.586z M79.242,72.653
		c0.062,0.014,0.206,0.047,0.206,0.047c0.264,0.061,0.442,0.15,0.528,0.265c0.054,0.071,0.081,0.165,0.081,0.278
		c0,0.066-0.009,0.139-0.027,0.219c-0.042,0.181-0.13,0.303-0.262,0.359c-0.136,0.059-0.336,0.059-0.597-0.001
		c0,0-0.128-0.03-0.188-0.043C79.001,73.694,79.223,72.735,79.242,72.653L79.242,72.653z"/>
	<path fill-rule="evenodd" clip-rule="evenodd" d="M82.976,41.983v0.051h0.051c0.329,0,1.156-0.45,1.886-0.848
		c0.43-0.234,0.835-0.455,1.028-0.519l-0.032-0.098c-0.2,0.067-0.592,0.28-1.044,0.526c-0.653,0.355-1.446,0.783-1.78,0.821
		c0.014-1.396,0.441-2.242,1.681-3.304l-0.067-0.079C83.41,39.64,82.976,40.509,82.976,41.983L82.976,41.983z"/>
	<path fill-rule="evenodd" clip-rule="evenodd" fill="#FDB913" d="M114.265,42.066c-0.94,0.333-1.96,0.116-2.507-0.969
		c-1.003,0.871-2.234,0.993-3.864,0.353l-6.745-9.178l1.026-9.281c1.709,0.874,3.613,1.051,4.4,0.969
		c5.088-0.529,0.813-4.409,8.178-7.76c2.633-4.856,6.91-6.509,9.361-6.992c12.2-2.407,28.267-1.132,40.796-1.236l16.033-0.134
		c-0.99,2.442-4.423,3.97-7.899,4.735c-0.922,2.23-2.099,3.469-4.911,4.612c-0.179,0.886-0.834,3.472-7.048,5.67
		c-1.321,3.592-7.741,6.195-13.524,7.279c-1.452,2.879-6.554,3.787-9.024,3.42c-0.223,0.796-2.008,1.789-2.707,1.71
		c0.121,0.326,0.247,1.738-1.513,1.374c0.342,1.12,0.11,1.743-0.401,2.063c-0.529,0.33-1.357,0.337-2.166,0.233
		c-0.164,0.674-0.727,0.928-1.376,0.953c-0.737,0.028-1.587-0.239-2.102-0.524c0.013,0.94-0.621,1.234-1.48,1.173
		c-0.969-0.069-2.072-0.565-2.494-1.026c-0.161,1.013-1.083,1.429-2.063,1.472c-0.671,0.03-1.369-0.115-1.87-0.362
		c-0.069,0.809-0.779,1.115-1.378,1.125c-1.146,0.021-2.525-1.033-2.761-1.72C115.912,41.002,115.12,41.763,114.265,42.066
		L114.265,42.066z"/>
	<path fill-rule="evenodd" clip-rule="evenodd" d="M124.022,8.742c-1.923,0.379-6.676,1.839-9.599,7.094
		c-3.965,1.846-4.655,3.905-5.15,5.415c-0.428,1.303-0.664,2.021-2.748,2.237c-0.75,0.078-2.536-0.103-4.134-0.92l-0.613-0.313
		l-1.122,10.149l6.937,9.438l0.127,0.05c1.563,0.614,2.831,0.526,3.896-0.161c0.65,0.858,1.697,1.176,2.807,0.783
		c0.776-0.275,1.448-0.842,1.887-1.553c0.648,0.678,1.726,1.277,2.685,1.26c0.678-0.013,1.367-0.34,1.673-1
		c0.498,0.159,1.048,0.259,1.587,0.236c1.074-0.048,1.868-0.479,2.263-1.18c0.62,0.383,1.48,0.677,2.241,0.731
		c0.667,0.048,1.183-0.094,1.532-0.424c0.157-0.149,0.271-0.333,0.347-0.544c0.526,0.195,1.164,0.342,1.754,0.32
		c0.803-0.03,1.366-0.366,1.657-0.931c0.921,0.077,1.629-0.021,2.118-0.326c0.392-0.245,0.785-0.697,0.785-1.525
		c0-0.127-0.016-0.269-0.035-0.416c0.571-0.021,0.915-0.246,1.107-0.47c0.256-0.299,0.343-0.684,0.343-1.021
		c0-0.001,0-0.001,0-0.001c0.845-0.208,1.995-0.878,2.458-1.624c2.597,0.255,7.36-0.642,9.015-3.485
		c5.366-1.035,11.995-3.549,13.595-7.333c4.107-1.486,6.482-3.402,7.086-5.696c2.566-1.08,3.882-2.312,4.859-4.553
		c2.572-0.591,6.797-1.986,8.005-4.964l0.268-0.659l-16.745,0.139c-3.333,0.028-6.873-0.041-10.619-0.114
		C144.318,7.188,133.021,6.967,124.022,8.742L124.022,8.742z M106.624,24.433c2.696-0.281,3.111-1.546,3.552-2.886
		c0.472-1.437,1.059-3.224,4.774-4.915l0.145-0.066l0.076-0.14c2.723-5.022,7.226-6.396,9.035-6.753
		c8.897-1.755,19.657-1.545,30.063-1.341c3.754,0.073,7.299,0.142,10.646,0.114c0,0,13.784-0.115,15.231-0.127
		c-1.092,1.648-3.651,3.008-7.203,3.79l-0.242,0.054l-0.096,0.229c-0.913,2.213-2.088,3.312-4.65,4.354l-0.236,0.096l-0.051,0.25
		c-0.424,2.096-2.692,3.885-6.74,5.317l-0.21,0.075l-0.077,0.209c-1.229,3.345-7.5,5.914-13.167,6.977l-0.231,0.043l-0.105,0.209
		c-1.364,2.706-6.278,3.499-8.529,3.164l-0.415-0.062l-0.112,0.403c-0.15,0.538-1.686,1.424-2.196,1.366l-0.768-0.087l0.269,0.724
		c0.034,0.093,0.076,0.463-0.08,0.645c-0.18,0.209-0.636,0.151-0.892,0.099l-0.783-0.162l0.233,0.766
		c0.357,1.174-0.062,1.436-0.199,1.522c-0.244,0.153-0.764,0.305-1.853,0.165l-0.422-0.055l-0.101,0.413
		c-0.037,0.154-0.138,0.561-0.934,0.591c-0.651,0.025-1.418-0.223-1.853-0.464l-0.716-0.396l0.011,0.818
		c0.004,0.245-0.05,0.421-0.159,0.524c-0.144,0.135-0.432,0.195-0.813,0.167c-0.869-0.062-1.846-0.51-2.178-0.873l-0.664-0.726
		l-0.155,0.972c-0.141,0.877-1.072,1.048-1.616,1.072c-0.567,0.025-1.196-0.095-1.639-0.313l-0.623-0.307l-0.061,0.692
		c-0.054,0.627-0.712,0.688-0.913,0.691c-0.974,0.017-2.142-0.928-2.303-1.399l-0.465-1.357l-0.437,1.366
		c-0.251,0.786-0.905,1.467-1.667,1.737c-0.396,0.14-1.377,0.35-1.923-0.734l-0.274-0.544l-0.461,0.399
		c-0.852,0.739-1.866,0.827-3.262,0.307c-0.174-0.237-6.335-8.62-6.545-8.905c0.037-0.329,0.817-7.389,0.937-8.464
		C104.189,24.348,105.833,24.515,106.624,24.433L106.624,24.433z"/>
	<path fill-rule="evenodd" clip-rule="evenodd" fill="#FDB913" d="M78.725,39.463c-0.894,0.374-1.611,0.541-2.294,0.515
		s-1.288-0.244-1.869-0.643c-0.657,1.158-1.652,1.659-2.591,1.654c-1.064-0.006-1.948-0.707-2.405-1.751
		c-0.626,0.931-1.974,2.491-3.385,2.474c-0.553-0.006-1.018-0.362-1.244-1.323c-0.54,0.266-1.265,0.511-1.9,0.559
		c-0.818,0.063-1.489-0.2-1.43-1.159c-0.751,0.465-1.908,0.904-2.756,0.907c-0.749,0.003-1.257-0.332-1.033-1.286
		c-0.178,0.193-1.375,0.817-2.299,0.719c-0.484-0.051-0.892-0.302-1.04-0.916c-0.796,0.103-1.681-0.088-2.343-0.537
		c-0.663-0.449-1.104-1.155-1.012-2.084c-2.327,0.528-2.386-1.278-2.266-1.604c-0.758-0.172-1.995-0.638-2.326-1.434
		c-2.983-0.078-6.856-0.247-8.928-2.828c0,0,0.073-0.215-0.049-0.22c-4.718-0.203-11.416-2.638-12.737-6.23
		c-5.59-2.095-7.345-4.368-7.836-5.513c-3.044-1.028-5.551-2.158-6.21-4.52c-3.662-0.58-7.975-3.127-8.781-5.756l17.518-0.098
		c12.529-0.07,28.595-1.403,40.796,1.004c2.451,0.483,7.609,3.203,10.242,8.059c4.536,0.105,5.914,7.412,9.425,7.477
		c1.266,0.024,3.25-1.184,4.861-4.166c-0.684,0.201-1.346,0.29-1.976,0.285c-0.591-0.005-1.152-0.094-1.671-0.252
		c2.837-1.282,2.666-3.485,2.718-4.402c-0.659,0.293-1.788,0.378-2.654,0.096c0.533-0.691,1.075-2.078,0.816-3.035
		c-0.773,0.66-1.354,0.955-2.139,1.12c0.046-0.821-0.041-1.521-0.337-2.19c-1.299-2.934-5.508-1.961-5.424-5.109
		c0.518,0.583,1.253,1.059,2.086,1.059c0.437,0,0.872-0.154,1.258-0.54c0.202-0.252,0.286-0.552,0.288-0.859
		c0.002-0.448-0.172-0.911-0.422-1.258c-0.676-0.94-1.648-1.225-2.625-1.195c-1.49,0.045-2.993,0.82-3.485,1.118
		c0.193-2.593,2.555-3.793,4.7-3.799c1.25-0.003,2.635,0.459,3.296,1.277c1.453-1.031,3.002-1.104,4.976-0.066
		c2.206,1.159,7.238,2.533,9.67,1.892c-0.54,1.227-2.007,1.653-2.706,1.841c1.807-0.021,3.572,0.187,4.903,0.609
		c-1.01,0.476-1.865,1.059-2.738,1.536c1.563,0.139,3.083,0.215,4.372,0.86c-1.055,0.246-1.704,0.671-1.871,1.225
		c0.775,0.718,2.164,0.714,3.555,1.097c1.307,0.36,2.615,1.063,3.421,3.029c-0.788,0-1.601,0.105-2.284,0.421
		c1.803,1.426,3.069,2.82,3.527,4.055c-0.823,0.038-1.561,0.192-2.238,0.518c1.549,1.183,2.919,2.403,3.73,3.733
		c-0.939,0.114-1.878,0.303-2.816,0.566c1.532,1.101,2.681,2.351,3.274,3.601c-0.613-0.134-1.375-0.206-1.988-0.141
		c1.67,1.611,3.042,3.407,3.523,5.068c-0.604-0.235-1.272-0.371-1.974-0.457c0.431,1.259,0.72,2.519,0.805,3.777
		c2.637,1.975,4.125,4.135,3.898,7.619c-0.646-0.349-1.293-0.574-1.94-0.675c0.955,1.673,0.895,3.282,0.267,5.204
		c-0.479-0.595-0.981-1.015-1.51-1.262c0.003,2.057-0.286,3.755-0.927,5.021l-0.742-1.225c-0.908,1.958-2.794,4.35-4.515,3.796
		c-1.506,1.507-2.801,1.929-5.177,3.009c-0.342-0.378-0.841-0.701-1.294-1.052c-0.656,0.563-1.166,1.164-1.688,1.956
		c-0.457-0.633-0.962-1.196-1.536-1.655l-1.887,0.702c-4.059-2.778-7.785-3.514-7.362-7.481c-0.486,0.173-0.918,0.64-1.462,1.162
		c-0.456-1.319-0.488-3.615-0.235-5.61c-0.749,0.107-1.079,0.197-1.74,0.538c-0.045-0.753-0.083-2.474,0.859-4.367
		c-1.013,0.256-1.251,0.644-1.78,1.128C77.628,41.737,78.037,40.458,78.725,39.463L78.725,39.463z"/>
	<path fill-rule="evenodd" clip-rule="evenodd" d="M75.961,1.325c-2.339,0.006-4.956,1.336-5.172,4.239L70.72,6.481l0.787-0.476
		c0.615-0.372,1.995-1.012,3.254-1.05c0.993-0.03,1.721,0.296,2.226,0.999c0.209,0.292,0.334,0.657,0.333,0.977
		c-0.001,0.224-0.064,0.414-0.185,0.565c-0.235,0.23-0.536,0.362-0.887,0.362c-0.811,0-1.433-0.564-1.73-0.899l-0.797-0.898
		l-0.032,1.2c-0.054,2.012,1.433,2.642,2.746,3.197c1.078,0.456,2.192,0.928,2.719,2.117c0.25,0.565,0.342,1.173,0.297,1.971
		l-0.035,0.619l0.606-0.127c0.589-0.124,1.082-0.332,1.59-0.66c-0.095,0.647-0.392,1.369-0.74,1.82l-0.412,0.533l0.64,0.208
		c0.687,0.222,1.557,0.245,2.298,0.093c-0.065,1.008-0.367,2.406-2.41,3.329l-1.15,0.519l1.207,0.368
		c0.577,0.175,1.184,0.268,1.807,0.273c0.337,0.002,0.677-0.024,1.019-0.072c-1.359,2.09-2.885,3.022-3.891,3.003
		c-1.409-0.026-2.521-1.558-3.699-3.179c-1.392-1.915-2.97-4.056-5.453-4.263c-2.638-4.667-7.654-7.537-10.432-8.084
		c-9.292-1.834-20.963-1.506-31.261-1.216c-3.392,0.095-6.594,0.186-9.629,0.202L1.349,8.016l0.187,0.61
		c0.872,2.845,5.239,5.363,8.89,6.027c0.855,2.428,3.505,3.569,6.219,4.495c0.61,1.246,2.424,3.438,7.821,5.497
		c1.584,3.738,8.21,6.018,12.713,6.311c0.023,0.03,0.052,0.068,0.052,0.068c2.197,2.738,6.232,2.922,9.025,2.997
		c0.486,0.74,1.477,1.14,2.1,1.324c0.014,0.377,0.129,0.832,0.449,1.197c0.3,0.343,0.877,0.668,1.864,0.582
		c0.083,0.782,0.484,1.463,1.198,1.946c0.646,0.438,1.482,0.663,2.297,0.638c0.246,0.509,0.689,0.829,1.301,0.894
		c0.621,0.066,1.329-0.139,1.878-0.382c0.044,0.164,0.109,0.315,0.212,0.443c0.27,0.34,0.706,0.511,1.294,0.509
		c0.751-0.004,1.659-0.298,2.385-0.645c0.069,0.177,0.168,0.333,0.302,0.465c0.342,0.337,0.858,0.482,1.534,0.43
		c0.474-0.036,1.027-0.199,1.565-0.409c0.404,0.995,1.114,1.169,1.537,1.174c1.426,0.018,2.668-1.241,3.349-2.096
		c0.595,0.855,1.459,1.368,2.444,1.373c1.084,0.006,2.051-0.561,2.739-1.526c0.544,0.296,1.103,0.492,1.706,0.514
		c0.422,0.016,0.858-0.041,1.328-0.158c-0.374,0.857-0.586,1.798-0.586,2.752v1.11l1.061-1.014c0.106-0.104,0.203-0.193,0.302-0.278
		c-0.299,0.905-0.459,1.855-0.459,2.849c0,0.198,0.006,0.398,0.018,0.599l0.043,0.727l0.647-0.333
		c0.404-0.208,0.668-0.307,0.992-0.381c-0.057,0.601-0.1,1.244-0.1,1.914c0,1.188,0.112,2.39,0.417,3.272l0.243,0.705l0.751-0.727
		c0.155-0.15,0.296-0.278,0.436-0.403c0.143,2.6,2.175,3.786,4.703,5.229c0.924,0.528,1.88,1.074,2.873,1.753l0.203,0.139
		c0,0,1.444-0.537,1.844-0.686c0.437,0.379,0.854,0.825,1.26,1.386l0.402,0.557l0.378-0.573c0.436-0.659,0.858-1.143,1.336-1.592
		c0.006,0.005,0.036,0.027,0.036,0.027c0.331,0.244,0.643,0.474,0.864,0.719l0.23,0.255l1.328-0.593
		c1.702-0.754,2.855-1.285,4.119-2.491c1.623,0.276,3.306-1.366,4.399-3.321c0.146,0.24,0.744,1.23,0.744,1.23l0.387-0.764
		c0.571-1.128,0.872-2.584,0.946-4.385c0.236,0.194,0.47,0.427,0.697,0.709l0.549,0.681l0.271-0.832
		c0.325-0.993,0.488-1.873,0.488-2.69c0-0.694-0.163-1.337-0.401-1.97c0.304,0.105,0.607,0.238,0.91,0.402l0.651,0.351l0.049-0.738
		c0.016-0.247,0.023-0.488,0.023-0.725c0-2.893-1.22-5.079-3.953-7.177c-0.08-0.936-0.288-1.912-0.59-2.932
		c0.424,0.082,0.814,0.178,1.143,0.306l0.896,0.349l-0.268-0.923c-0.473-1.63-1.687-3.21-2.846-4.449
		c0.253,0.026,0.508,0.064,0.753,0.117l0.945,0.206l-0.415-0.874c-0.51-1.074-1.415-2.142-2.609-3.133
		c0.595-0.134,1.19-0.286,1.78-0.358l0.731-0.089l-0.384-0.629c-0.78-1.278-2.02-2.404-3.166-3.322
		c0.396-0.108,0.814-0.186,1.29-0.208l0.649-0.029l-0.227-0.61c-0.412-1.112-1.445-2.355-3.009-3.691
		c0.396-0.087,0.825-0.145,1.321-0.145h0.708l-0.269-0.655c-0.933-2.275-2.485-2.962-3.734-3.307l-1.338-0.291
		c-0.679-0.128-1.276-0.248-1.713-0.489c0.247-0.255,0.714-0.475,1.349-0.623l1.279-0.299l-1.175-0.588
		c-0.942-0.471-1.965-0.655-3.04-0.771c0.433-0.239,2.365-1.305,2.365-1.305L96.245,6.9c-0.841-0.267-1.864-0.445-2.969-0.543
		c0.43-0.306,0.821-0.713,1.063-1.262l0.396-0.901l-0.953,0.251c-2.241,0.59-7.128-0.697-9.328-1.854
		c-1.948-1.023-3.586-1.021-5.131-0.079C78.458,1.708,77.072,1.322,75.961,1.325L75.961,1.325z M75.963,2.274
		c1.197-0.003,2.399,0.449,2.925,1.101l0.28,0.347l0.364-0.258c1.337-0.948,2.719-0.958,4.48-0.033
		c1.974,1.038,6.04,2.195,8.764,2.088c-0.501,0.378-1.131,0.613-1.702,0.767l-3.624,0.977l3.753-0.043
		c1.306-0.015,2.542,0.095,3.606,0.304c-0.346,0.19-0.722,0.396-0.722,0.396l-2.255,1.307l1.487,0.135l0.43,0.037
		c0.926,0.079,1.813,0.167,2.628,0.374c-0.585,0.34-0.869,0.735-0.969,1.063l-0.087,0.285l0.218,0.202
		c0.631,0.584,1.534,0.754,2.491,0.934l1.261,0.273c0.978,0.27,2.054,0.747,2.824,2.158c-0.662,0.061-1.271,0.176-1.76,0.402
		l-0.702,0.324l0.606,0.479c1.518,1.202,2.553,2.325,3.094,3.302c-0.624,0.087-1.205,0.225-1.717,0.471L100.94,20l0.616,0.471
		c1.503,1.147,2.505,2.099,3.191,3.009c-0.707,0.116-1.416,0.259-2.117,0.456l-0.951,0.266l0.802,0.577
		c1.145,0.822,2.042,1.711,2.649,2.608c-0.404-0.033-0.8-0.042-1.136-0.007l-1.012,0.107l0.732,0.708
		c1.455,1.405,2.477,2.762,3.046,3.99c-0.341-0.078-0.707-0.142-1.11-0.191L104.9,31.9l0.245,0.717
		c0.448,1.31,0.703,2.506,0.78,3.656l0.015,0.217l0.175,0.131c2.608,1.954,3.725,3.881,3.73,6.521
		c-0.472-0.195-0.943-0.353-1.414-0.427l-0.975-0.153l0.488,0.857c0.448,0.784,0.669,1.56,0.669,2.432
		c0,0.492-0.097,1.033-0.236,1.605c-0.344-0.317-0.694-0.588-1.062-0.761l-0.678-0.317c0,0,0.001,0.763,0.001,0.771
		c0,1.576-0.184,2.891-0.536,3.942c-0.113-0.187-0.714-1.177-0.714-1.177l-0.375,0.808c-0.942,2.029-2.643,3.961-3.939,3.544
		l-0.275-0.089l-0.206,0.205c-1.214,1.215-2.269,1.682-4.016,2.457c0,0-0.437,0.194-0.732,0.327
		c-0.234-0.212-0.486-0.413-0.742-0.603l-0.657-0.492l-0.295,0.243c-0.517,0.443-0.959,0.957-1.396,1.547
		c-0.393-0.48-0.793-0.912-1.224-1.256l-0.21-0.168c0,0-1.574,0.585-1.918,0.713c-0.952-0.637-1.892-1.182-2.726-1.658
		c-2.523-1.44-4.25-2.427-4.25-4.708c0-0.171,0.01-0.35,0.029-0.537l0.08-0.751l-0.711,0.254c-0.375,0.134-0.703,0.404-1.037,0.711
		c-0.118-0.633-0.183-1.405-0.183-2.251c0-0.769,0.05-1.591,0.153-2.401l0.079-0.618l-0.617,0.088
		c-0.495,0.07-0.833,0.144-1.197,0.278c0.022-1.218,0.283-2.371,0.808-3.426l0.46-0.926l-1.001,0.253
		c-0.472,0.119-0.801,0.27-1.063,0.438c0.154-0.781,0.446-1.527,0.887-2.163l0.923-1.334l-1.497,0.626
		c-0.846,0.354-1.492,0.501-2.094,0.479c-0.579-0.022-1.093-0.2-1.619-0.56l-0.427-0.292l-0.254,0.45
		c-0.512,0.902-1.305,1.418-2.175,1.413c-0.835-0.005-1.573-0.553-1.973-1.466l-0.346-0.792l-0.482,0.718
		c-0.708,1.053-1.915,2.277-2.986,2.264c-0.155-0.002-0.564-0.007-0.788-0.958L65.262,39.7l-0.536,0.264
		c-0.563,0.277-1.226,0.473-1.727,0.512c-0.379,0.029-0.662-0.028-0.795-0.16c-0.097-0.096-0.14-0.263-0.125-0.498l0.056-0.916
		l-0.78,0.484c-0.666,0.413-1.742,0.833-2.508,0.836c-0.271,0.001-0.471-0.053-0.547-0.149c-0.076-0.095-0.083-0.292-0.022-0.553
		l0.343-1.458l-1.144,1.018c-0.15,0.133-1.161,0.659-1.91,0.579c-0.356-0.038-0.543-0.204-0.628-0.555l-0.1-0.415l-0.422,0.055
		c-0.693,0.09-1.466-0.086-2.017-0.459c-0.414-0.28-0.89-0.792-0.806-1.644l0.064-0.655l-0.642,0.146
		c-0.483,0.11-1.13,0.167-1.471-0.186c-0.203-0.209-0.25-0.515-0.25-0.688c0-0.052,0.004-0.092,0.01-0.114l0.123-0.474l-0.467-0.143
		c-0.804-0.182-1.771-0.621-1.992-1.152l-0.118-0.285l-0.308-0.008c-2.581-0.068-6.449-0.182-8.466-2.548
		c-0.01-0.089-0.019-0.181-0.079-0.268c-0.097-0.141-0.251-0.226-0.425-0.232c-4.87-0.21-11.125-2.693-12.312-5.92l-0.075-0.204
		l-0.204-0.077c-5.712-2.14-7.194-4.388-7.566-5.255l-0.083-0.195l-0.201-0.068c-3.226-1.089-5.339-2.17-5.904-4.197l-0.082-0.293
		l-0.301-0.048c-3.441-0.544-6.98-2.701-8.114-4.816C4.085,8.951,19.51,8.864,19.51,8.864c3.046-0.017,6.254-0.108,9.651-0.203
		c10.248-0.288,21.863-0.615,31.051,1.198c2.564,0.506,7.488,3.341,9.917,7.819l0.131,0.242l0.275,0.006
		c2.176,0.051,3.6,2.011,4.978,3.907c1.321,1.818,2.568,3.535,4.45,3.57c1.325,0.024,3.505-1.116,5.288-4.415l0.542-1.003
		l-1.094,0.322c-0.617,0.182-1.235,0.271-1.838,0.265c-0.107,0-0.205-0.04-0.312-0.046c1.708-1.292,1.789-2.981,1.818-3.872
		l0.041-0.999l-0.698,0.304c-0.396,0.176-1.053,0.236-1.687,0.169c0.317-0.612,0.583-1.397,0.583-2.134
		c0-0.229-0.025-0.453-0.082-0.664l-0.196-0.725l-0.57,0.487c-0.506,0.431-0.911,0.686-1.367,0.854
		c-0.025-0.649-0.134-1.227-0.368-1.755c-0.678-1.533-2.027-2.104-3.216-2.607C76,9.244,75.425,8.948,75.062,8.531
		c0.384,0.175,0.783,0.277,1.186,0.277c0.599,0,1.149-0.235,1.594-0.679c0.289-0.357,0.425-0.756,0.428-1.192
		c0.003-0.521-0.184-1.082-0.512-1.537c-0.683-0.951-1.729-1.433-3.024-1.393c-1.058,0.032-2.086,0.397-2.798,0.717
		C72.53,3.059,74.324,2.279,75.963,2.274L75.963,2.274z M37.152,30.575l-0.002,0.006v0C37.15,30.58,37.152,30.575,37.152,30.575
		L37.152,30.575z"/>
	<path fill-rule="evenodd" clip-rule="evenodd" fill="#FDB913" d="M83.525,47.482c-0.076,2.721-0.935,7.655-3.36,9.385
		c-2.049,1.462-4.972,0.457-6.493,2.511l0.19,1.231c2.295,0.025,2.773,0.192,5.225-1.514c-1.577,1.119-2.572,1.833-2.761,3.683
		c0.617,0.13,0.913,0.673,1.331,0.929c0.748-0.788,1.678-1.662,2.696-3.353c-0.135,1.323-0.769,2.25-0.769,3.523
		c0.542-0.088,1.085-0.1,1.628,0c0.476-1.042,1.715-3.385,1.715-4.591c1.423,0,2.411-0.25,3.748-0.479
		c0.604-0.103,1.258,0.056,2.06-0.071c0.075-0.598,0.007-1.123,0.007-1.657c-1.489-0.466-1.678-0.926-3.465-1.766
		c-0.642-1.417,0.2-3.703,0.658-6.065c-0.813-0.45-1.479-1.168-1.809-2.114C83.928,47.22,83.725,47.342,83.525,47.482L83.525,47.482
		z"/>
	<path fill-rule="evenodd" clip-rule="evenodd" d="M83.938,46.697l-0.917,0.53l0.029,0.242c-0.077,2.771-0.983,7.458-3.162,9.013
		c-0.814,0.581-1.794,0.73-2.833,0.887c-1.377,0.209-2.801,0.424-3.765,1.727l-0.118,0.159l0.281,1.823l0.939,0.014
		c0.806,0.014,1.397,0.019,1.994-0.103c-0.271,0.477-0.461,1.032-0.534,1.74l-0.043,0.424l0.417,0.088
		c0.263,0.056,0.454,0.24,0.676,0.453l0.845,0.697l0.252-0.358l0.286-0.298c0.301-0.312,0.638-0.67,0.994-1.085
		c-0.097,0.382-0.172,0.782-0.172,1.227v0.558l0.551-0.09c0.527-0.085,1.007-0.086,1.467-0.001l0.359,0.066l0.447-0.945
		c0.67-1.399,1.252-2.716,1.405-3.717c0.967-0.033,1.753-0.169,2.633-0.331l0.785-0.141l0.804-0.022
		c0.367,0.012,0.782,0.026,1.25-0.048l0.392-0.062l0.005-0.348l0.024-1.224l-0.023-0.831l-0.323-0.114
		c-0.789-0.248-1.172-0.483-1.702-0.811c-0.388-0.239-0.835-0.51-1.515-0.84c-0.096-0.27-0.147-0.574-0.147-0.92
		c0-0.861,0.25-1.928,0.51-3.035l0.448-2.029l-0.313-0.16c-0.765-0.423-1.315-1.064-1.59-1.855l-0.189-0.542L83.938,46.697
		L83.938,46.697z M77.198,58.308c1.103-0.167,2.243-0.34,3.243-1.054c2.519-1.797,3.388-6.51,3.533-9.322
		c0.337,0.612,0.831,1.128,1.43,1.526c-0.089,0.402-0.297,1.345-0.297,1.345c-0.272,1.159-0.535,2.275-0.535,3.252
		c0,0.531,0.078,1.021,0.274,1.453l0.072,0.159l0.158,0.074c0.748,0.352,1.205,0.633,1.608,0.882
		c0.472,0.291,0.904,0.546,1.593,0.793c0.002,0.089,0.005,0.193,0.005,0.193s-0.006,0.37-0.012,0.685
		c-0.232,0.012-0.461,0.017-0.68,0.01l-0.996,0.035L85.8,58.482c-0.958,0.177-1.786,0.33-2.871,0.33h-0.475v0.475
		c0,0.896-0.861,2.694-1.376,3.768c0,0-0.076,0.161-0.153,0.322c-0.26-0.027-0.528-0.035-0.801-0.02
		c0.062-0.413,0.163-0.814,0.293-1.223c0.168-0.53,0.342-1.078,0.409-1.73l0.215-2.11l-1.094,1.817
		c-0.856,1.422-1.637,2.235-2.327,2.95c-0.017-0.014-0.059-0.05-0.059-0.05c-0.18-0.172-0.414-0.35-0.688-0.498
		c0.249-1.388,1.058-2.014,2.487-3.028l-0.545-0.777c-2.121,1.476-2.605,1.468-4.407,1.437c0,0-0.086-0.002-0.139-0.002
		c-0.041-0.262-0.064-0.415-0.093-0.601C74.909,58.679,75.969,58.495,77.198,58.308L77.198,58.308z"/>
	<path fill-rule="evenodd" clip-rule="evenodd" fill="#FDB913" d="M76.087,65.81c-0.352-0.531-0.577-2.106,0.075-2.997
		c0.406,0.162,1.23,0.407,1.559,0.781C77.231,64.072,76.4,65.104,76.087,65.81L76.087,65.81z"/>
	<path fill-rule="evenodd" clip-rule="evenodd" d="M75.78,62.531c-0.769,1.048-0.563,2.825-0.089,3.541l0.478,0.723l0.352-0.792
		c0.289-0.649,1.089-1.636,1.532-2.069l0.322-0.314l-0.297-0.338c-0.349-0.396-1.008-0.638-1.49-0.815l-0.587-0.22L75.78,62.531
		L75.78,62.531z M76.221,64.329c0-0.324,0.071-0.637,0.185-0.918c0.191,0.071,0.405,0.158,0.598,0.256
		c-0.244,0.277-0.505,0.611-0.751,0.958C76.244,64.524,76.221,64.435,76.221,64.329L76.221,64.329z"/>
	<path fill-rule="evenodd" clip-rule="evenodd" d="M90.387,44.284c0.491,0.508,1.176,2.136,1.176,3.693
		c0,0.299-0.026,0.596-0.082,0.881c-0.159,0.796-0.553,1.396-1.155,1.807c-0.326-1.026-1.127-2.725-2.351-3.491l-0.385-0.242
		l-0.257,0.375c-0.33,0.481-0.521,1.082-0.64,1.738c-0.998-0.371-1.781-1.103-2.117-2.068l-0.168-0.482l-0.469,0.203
		c-0.76,0.329-1.516,1.072-2.017,1.563c0,0-0.046,0.044-0.063,0.06c-0.698-0.851-1.002-1.594-1.028-2.585l-0.014-0.561l-1.377,0.27
		l0.26,0.912c0,0,0.135-0.026,0.245-0.047c0.137,1.095,0.586,2.013,1.52,3.024l0.322,0.35l0.315-0.295l0.485-0.45
		c0.356-0.35,0.855-0.833,1.345-1.151c0.587,1.163,1.66,2.037,3.017,2.351l0.539,0.125l0.041-0.552
		c0.04-0.542,0.178-0.994,0.364-1.4c1.001,0.949,1.615,2.72,1.656,3.122l0.065,0.645l0.595-0.258
		c1.181-0.513,1.944-1.473,2.202-2.777c0.406-2.041-0.523-4.572-1.341-5.418L90.387,44.284L90.387,44.284z"/>
	<path fill-rule="evenodd" clip-rule="evenodd" d="M90.563,17.761c-0.528,2.211-1.659,2.826-2.878,3.132
		c0.121-0.411,0.19-0.855,0.19-1.289c0-0.312-0.034-0.615-0.104-0.89l-0.27-1.062l-0.589,0.924c-0.784,1.229-1.885,1.87-3.367,1.959
		l0.057,0.946c1.309-0.079,2.398-0.542,3.261-1.366c-0.063,0.441-0.175,0.872-0.375,1.167l-0.631,0.937l1.111-0.206
		c1.35-0.25,3.125-0.592,4.104-2.811c0.071,0.288,0.112,0.57,0.112,0.854c0,0.258-0.024,0.519-0.063,0.789l-0.142,1.007l0.863-0.54
		c1.573-0.983,1.909-2.016,1.957-3.466l-0.948-0.032c-0.03,0.906-0.169,1.513-0.727,2.079c-0.021-0.688-0.188-1.433-0.696-2.271
		l-0.598-0.986L90.563,17.761L90.563,17.761z"/>
	<path fill-rule="evenodd" clip-rule="evenodd" d="M81.026,4.509c-0.768,0.011-1.272,0.458-1.317,1.164
		c-0.026,0.415,0.194,0.753,0.407,1.079c0.217,0.332,0.44,0.675,0.44,1.126h0.949c0-0.733-0.344-1.26-0.594-1.644
		c-0.123-0.188-0.261-0.4-0.255-0.5c0.007-0.127,0.017-0.271,0.385-0.276c0.564-0.009,1.226,0.391,1.993,0.854
		c1.202,0.726,2.697,1.63,4.818,1.646l0.007-0.949c-1.86-0.013-3.175-0.808-4.335-1.509C82.632,4.961,81.863,4.496,81.026,4.509
		L81.026,4.509z"/>
	<path fill-rule="evenodd" clip-rule="evenodd" d="M80.749,5.301c0.182,0.997,0.986,2.224,2.327,2.562
		c0.374,0.094,1.076,0.196,1.563-0.188c0.203-0.161,0.444-0.469,0.437-1.028l-0.948,0.012c0.001,0.096-0.011,0.22-0.076,0.272
		c-0.114,0.089-0.419,0.095-0.743,0.013c-0.892-0.225-1.493-1.082-1.625-1.812L80.749,5.301L80.749,5.301z"/>
	<path fill-rule="evenodd" clip-rule="evenodd" d="M96.96,16.328c0.51,0.582,0.752,1.12,0.8,1.654
		c-0.814-0.566-1.766-0.905-2.599-0.896l0.011,0.949c0.828-0.009,1.914,0.491,2.641,1.218l0.548,0.548l0.239-0.736
		c0.367-1.135,0.063-2.234-0.928-3.363L96.96,16.328L96.96,16.328z"/>
	<path fill-rule="evenodd" clip-rule="evenodd" d="M98.311,21.77c0.16,0.295,0.333,0.782,0.401,1.321
		c-0.518-0.567-1.119-0.976-2.031-1.2l-0.226,0.921c0.978,0.24,1.521,0.679,2.234,1.808l0.532,0.841l0.318-0.943
		c0.445-1.321-0.056-2.571-0.394-3.198L98.311,21.77L98.311,21.77z"/>
	<path fill-rule="evenodd" clip-rule="evenodd" d="M86.202,27.246l0.128,0.949l0.677-0.677c0.755-0.754,2.26-1.442,2.906-1.538
		l-0.138-0.938c-0.587,0.087-1.709,0.539-2.625,1.152c0.097-0.75,0.431-1.392,0.99-1.791L87.59,23.63
		C86.519,24.395,86,25.746,86.202,27.246L86.202,27.246z"/>
	<path fill-rule="evenodd" clip-rule="evenodd" d="M94.861,27.344c0.266,0.447,0.397,1.069,0.397,1.695
		c0,0.246-0.037,0.487-0.078,0.724c-0.668-1.144-1.578-2.046-2.608-2.539l-0.409,0.856c1.104,0.527,2.1,1.686,2.665,3.097
		l0.361,0.907l0.489-0.845c0.705-1.221,0.705-3.186-0.001-4.378L94.861,27.344L94.861,27.344z"/>
	<path fill-rule="evenodd" clip-rule="evenodd" d="M100.462,26.953c0.332,0.633,0.496,1.335,0.496,2.126
		c0,0.03-0.008,0.064-0.008,0.094c-0.66-0.803-1.449-1.612-2.677-2.104l-0.354,0.88c1.282,0.515,1.989,1.419,2.739,2.376l0.93,1.181
		l0.187-1.038c0.276-1.526,0.122-2.82-0.474-3.955L100.462,26.953L100.462,26.953z"/>
	<path fill-rule="evenodd" clip-rule="evenodd" d="M101.162,32.248c0.316,0.43,0.438,0.924,0.438,1.403
		c0,0.153-0.034,0.295-0.056,0.443c-0.599-0.842-1.523-1.765-2.674-2.13l-0.287,0.904c1.254,0.398,2.336,1.775,2.672,2.58
		l0.401,0.959l0.461-0.932c0.483-0.974,0.722-2.551-0.193-3.792L101.162,32.248L101.162,32.248z"/>
	<path fill-rule="evenodd" clip-rule="evenodd" d="M84.92,34.464l0.089,1.052l0.728-0.765c0.781-0.822,2.263-1.845,3.294-2.065
		l-0.198-0.928c-0.919,0.196-2.019,0.848-2.895,1.544c0.195-1.058,0.804-1.907,1.781-2.345l-0.388-0.865
		C85.678,30.833,84.754,32.508,84.92,34.464L84.92,34.464z"/>
	<path fill-rule="evenodd" clip-rule="evenodd" d="M80.826,28.827v0.901l0.743-0.511c0.829-0.57,1.981-1.197,2.467-1.343
		l-0.272-0.909c-0.461,0.139-1.231,0.541-1.929,0.96c0.128-1.002,0.525-2.332,1.694-3.006l-0.474-0.822
		C81.043,25.259,80.826,27.792,80.826,28.827L80.826,28.827z"/>
	<path fill-rule="evenodd" clip-rule="evenodd" d="M101.797,38.008c0.682,0.572,1.592,1.664,1.914,2.859l0.218,0.81l0.582-0.604
		c1.178-1.225,0.8-2.777,0.638-3.439l-0.04-0.17l-0.928,0.199l0.046,0.197c0.068,0.277,0.163,0.666,0.163,1.088
		c0,0.243-0.032,0.498-0.119,0.748c-0.482-1.013-1.227-1.878-1.863-2.414L101.797,38.008L101.797,38.008z"/>
	<path fill-rule="evenodd" clip-rule="evenodd" d="M95.512,40.274l0.049,1.025l0.748-0.7c0.953-0.891,1.987-1.535,2.989-1.864
		l-0.295-0.901c-0.795,0.261-1.598,0.699-2.371,1.272c0.241-0.805,0.725-1.591,1.356-1.883l-0.397-0.861
		C96.222,36.993,95.446,38.885,95.512,40.274L95.512,40.274z"/>
	<path fill-rule="evenodd" clip-rule="evenodd" d="M90.434,37.416c0.671,0.25,1.38,1.232,1.698,2.186
		c-0.855-0.607-1.645-0.841-2.313-1.031l-0.546-0.163l-0.298,0.9l0.585,0.175c0.891,0.253,1.812,0.515,2.869,1.622l0.711,0.743
		l0.104-1.023c0.158-1.549-1.139-3.798-2.479-4.297L90.434,37.416L90.434,37.416z"/>
	<polygon fill-rule="evenodd" clip-rule="evenodd" points="78.836,2.97 78.865,4.182 79.813,4.159 79.784,2.946 78.836,2.97 	"/>
	<path fill-rule="evenodd" clip-rule="evenodd" d="M79.778,33.748l-0.025,0.975l1.308-0.973c0.331-0.25,0.62-0.466,0.922-0.646
		c-0.427,0.947-0.657,1.904-0.657,2.838c0,0.301,0.022,0.599,0.068,0.893l0.938-0.144c-0.209-1.36,0.165-2.831,1.082-4.253
		l0.633-0.98l-1.137,0.261c-0.785,0.18-1.335,0.491-1.866,0.866c0.418-0.93,1.204-1.769,2.026-1.993l-0.25-0.915
		C81.244,30.107,79.823,32.009,79.778,33.748L79.778,33.748z"/>
	<polygon fill-rule="evenodd" clip-rule="evenodd" points="81.629,36.35 82.095,37.175 82.182,37.127 81.715,36.301 81.629,36.35 	
		"/>
	<path fill-rule="evenodd" clip-rule="evenodd" d="M78.19,39.384l0.799,0.511c1.113-1.741,2.764-2.802,4.417-2.841l-0.022-0.948
		C81.386,36.152,79.493,37.347,78.19,39.384L78.19,39.384z"/>
	<path fill-rule="evenodd" clip-rule="evenodd" d="M19.032,8.672c2.51,3.767,4.824,5.806,9.864,5.797
		c4.017-0.006,8.623-1.326,11.67-2.199l-0.261-0.912c-2.997,0.859-7.526,2.156-11.411,2.163c-4.637,0.007-6.694-1.804-9.073-5.375
		L19.032,8.672L19.032,8.672z"/>
	<path fill-rule="evenodd" clip-rule="evenodd" d="M24.26,13.596c1.478,2.994,4.186,4.433,8.277,4.399
		c4.914-0.04,7.051-0.612,9.526-1.275l-0.246-0.916c-2.412,0.646-4.495,1.204-9.288,1.243c-3.743,0.031-6.1-1.199-7.419-3.871
		L24.26,13.596L24.26,13.596z"/>
	<path fill-rule="evenodd" clip-rule="evenodd" d="M41.483,21.665c1.305,2.578,4.489,3.98,8.965,3.949
		c2.97-0.02,6.343-0.687,9.497-1.877l-0.334-0.888c-3.053,1.152-6.309,1.796-9.169,1.816c-4.097,0.029-6.979-1.189-8.113-3.429
		L41.483,21.665L41.483,21.665z"/>
	<path fill-rule="evenodd" clip-rule="evenodd" d="M31.646,17.887c1.94,2.293,6.101,3.896,10.353,3.991
		c1.607,0.036,7.176,0.016,11.328-1.751l-0.371-0.873c-3.978,1.692-9.376,1.711-10.936,1.676c-4.59-0.102-8.22-1.966-9.65-3.656
		L31.646,17.887L31.646,17.887z"/>
	<path fill-rule="evenodd" clip-rule="evenodd" d="M46.329,25.11c0.646,1.615,1.873,2.753,3.643,3.383
		c4.131,1.469,10.248-0.233,13.271-1.912l-0.46-0.83c-2.785,1.546-8.682,3.202-12.493,1.847c-1.502-0.534-2.54-1.49-3.081-2.842
		L46.329,25.11L46.329,25.11z"/>
	<path fill-rule="evenodd" clip-rule="evenodd" d="M57.476,31.21c0.436,0.827,1.241,1.424,2.33,1.728
		c1.883,0.525,4.479,0.121,6.316-0.984l-0.489-0.813c-1.604,0.965-3.948,1.336-5.572,0.883c-0.843-0.235-1.43-0.657-1.745-1.256
		L57.476,31.21L57.476,31.21z"/>
	<path fill-rule="evenodd" clip-rule="evenodd" d="M52.587,28.861c0.466,0.704,1.56,2.354,4.492,2.6
		c2.11,0.177,4.864-0.395,8.185-1.699l-0.347-0.883c-3.184,1.25-5.795,1.8-7.759,1.636c-2.475-0.207-3.324-1.489-3.781-2.179
		L52.587,28.861L52.587,28.861z"/>
	<path fill-rule="evenodd" clip-rule="evenodd" d="M61.424,32.829c0.07,0.835,1.092,1.791,2.43,2.274
		c0.912,0.329,3.25,0.871,5.272-1.188L68.45,33.25c-1.638,1.668-3.534,1.228-4.274,0.961c-1.118-0.404-1.778-1.12-1.806-1.46
		L61.424,32.829L61.424,32.829z"/>
	<path fill-rule="evenodd" clip-rule="evenodd" d="M71.732,35.116c-0.341,0.825-1.472,1.355-2.816,1.322
		c-1.123-0.028-2.542-0.479-3.158-1.659l-0.841,0.439c0.675,1.292,2.198,2.123,3.975,2.168c1.455,0.037,2.672-0.486,3.342-1.341
		c0.764,0.74,1.714,1.169,2.702,1.16c1.09-0.011,2.148-0.537,3.082-1.489c0.769,0.157,1.543,0.145,2.308-0.091l-0.281-0.906
		c-0.695,0.215-1.371,0.229-2.067,0.043l-0.28-0.075L77.504,34.9c-0.794,0.878-1.686,1.346-2.577,1.355
		c-0.884,0.009-1.753-0.447-2.383-1.25l-0.501-0.639L71.732,35.116L71.732,35.116z"/>
	<path fill-rule="evenodd" clip-rule="evenodd" d="M10.997,13.776l-0.182,0.931c4.374,0.854,9.97,0.362,14.357-0.162l-0.113-0.942
		C20.742,14.118,15.241,14.604,10.997,13.776L10.997,13.776z"/>
	<path fill-rule="evenodd" clip-rule="evenodd" d="M17.042,18.239l-0.226,0.921c4.636,1.134,11.536,0.984,16.049-0.351l-0.269-0.91
		C28.222,19.193,21.536,19.338,17.042,18.239L17.042,18.239z"/>
	<path fill-rule="evenodd" clip-rule="evenodd" d="M24.795,24.66c7.94,2.879,18.476,1.094,21.516,0.479l-0.188-0.93
		c-2.979,0.604-13.296,2.354-21.005-0.441L24.795,24.66L24.795,24.66z"/>
	<path fill-rule="evenodd" clip-rule="evenodd" d="M37.842,30.008v0.949c4.153,0,10.218-1.129,12.48-2.323l-0.443-0.839
		C47.764,28.912,41.801,30.008,37.842,30.008L37.842,30.008z"/>
	<path fill-rule="evenodd" clip-rule="evenodd" d="M46.561,33.099l-0.036,0.948c2.097,0.079,7.272-1.189,9.45-2.841l-0.573-0.755
		C53.407,31.963,48.48,33.172,46.561,33.099L46.561,33.099z"/>
	<path fill-rule="evenodd" clip-rule="evenodd" d="M48.94,34.524l-0.076,0.945c3.034,0.243,7.604-0.407,10.501-3.036l-0.637-0.702
		C56.056,34.156,51.785,34.751,48.94,34.524L48.94,34.524z"/>
	<path fill-rule="evenodd" clip-rule="evenodd" d="M54.121,38.8l0.614,0.723c0.653-0.555,1.366-1.402,1.957-2.325l-0.799-0.511
		C55.359,37.521,54.696,38.311,54.121,38.8L54.121,38.8z"/>
	<path fill-rule="evenodd" clip-rule="evenodd" d="M57.414,39.104l0.597,0.737c0.648-0.524,1.189-1.159,1.754-2.06l-0.803-0.504
		C58.455,38.085,57.977,38.649,57.414,39.104L57.414,39.104z"/>
	<polygon fill-rule="evenodd" clip-rule="evenodd" points="61.364,39.307 61.267,39.415 61.976,40.045 62.072,39.938 63.211,38.631 
		62.478,38.031 61.364,39.307 	"/>
	<polygon fill-rule="evenodd" clip-rule="evenodd" points="64.704,40.002 65.435,40.607 66.893,38.844 66.162,38.239 64.704,40.002 
			"/>
	<path fill-rule="evenodd" clip-rule="evenodd" d="M36.704,13.094c0.714,1.752,2.486,3.551,4.494,3.599
		c2.516,0.061,6.099-1.036,8.916-2.729l-0.488-0.813c-2.676,1.608-6.054,2.65-8.405,2.594c-1.599-0.039-3.04-1.542-3.637-3.008
		L36.704,13.094L36.704,13.094z"/>
	<path fill-rule="evenodd" clip-rule="evenodd" d="M47.266,17.313c-1.383-0.001-2.517-0.509-3.467-1.552l-0.702,0.639
		c1.123,1.234,2.525,1.861,4.168,1.862c2.738,0.002,5.786-1.699,8.408-3.363l-0.509-0.801
		C52.805,15.596,49.775,17.315,47.266,17.313L47.266,17.313z"/>
	<path fill-rule="evenodd" clip-rule="evenodd" d="M57.962,16.807c-1.665,1.149-3.387,2.338-5.033,2.39
		c-1.214,0.038-2.317-0.554-3.375-1.811l-0.726,0.61c1.256,1.494,2.607,2.197,4.13,2.149c1.926-0.061,3.764-1.33,5.542-2.558
		l0.832-0.57l-0.529-0.787L57.962,16.807L57.962,16.807z"/>
	<path fill-rule="evenodd" clip-rule="evenodd" d="M56.876,20.531c-1.55,0.086-2.042-0.509-2.321-1.103l-0.859,0.402
		c0.561,1.198,1.618,1.736,3.232,1.647c1.805-0.1,3.98-1.157,5.819-2.828l-0.638-0.702C60.427,19.478,58.47,20.443,56.876,20.531
		L56.876,20.531z"/>
	<path fill-rule="evenodd" clip-rule="evenodd" d="M59.29,21.908c-0.595-0.17-1.046-0.533-1.343-1.08l-0.834,0.452
		c0.422,0.779,1.067,1.297,1.917,1.54c1.592,0.454,3.782-0.105,6.511-1.662l-0.47-0.824C61.958,22.11,60.209,22.17,59.29,21.908
		L59.29,21.908z"/>
	<path fill-rule="evenodd" clip-rule="evenodd" d="M59.053,22.513c0.302,1.012,0.918,1.73,1.833,2.135
		c2.629,1.163,6.753-0.696,7.554-1.081l-0.411-0.855c-1.633,0.785-4.895,1.893-6.76,1.068c-0.658-0.291-1.085-0.794-1.308-1.538
		L59.053,22.513L59.053,22.513z"/>
	<path fill-rule="evenodd" clip-rule="evenodd" d="M61.683,24.918c1.676,3.006,4.084,3.391,9.201,1.472l-0.333-0.888
		c-5.213,1.955-6.797,1.182-8.039-1.046L61.683,24.918L61.683,24.918z"/>
	<path fill-rule="evenodd" clip-rule="evenodd" d="M65.41,27.45c0.461,1.127,1.298,1.924,2.42,2.306
		c1.649,0.561,3.85,0.188,5.887-0.997l-0.477-0.82c-1.803,1.049-3.711,1.393-5.105,0.918c-0.867-0.294-1.488-0.889-1.848-1.767
		L65.41,27.45L65.41,27.45z"/>
	<path fill-rule="evenodd" clip-rule="evenodd" d="M69.713,29.907c0.497,1.134,1.334,1.915,2.357,2.2
		c1.23,0.342,2.687-0.037,4.323-1.079c0.59,1.283,1.468,1.546,2.728,1.53l-0.013-0.949c-1.08,0.014-1.599-0.117-2.033-1.438
		l-0.201-0.609l-0.523,0.371c-1.603,1.133-2.958,1.557-4.026,1.26c-0.953-0.266-1.473-1.053-1.742-1.667L69.713,29.907
		L69.713,29.907z"/>
	<path fill-rule="evenodd" clip-rule="evenodd" d="M154.222,12.263c-4.068-0.006-7.631-0.439-10.59-1.288l-0.261,0.912
		c3.043,0.872,6.693,1.317,10.85,1.324c4.397,0.007,7.227-1.424,9.765-4.938l-0.769-0.556
		C160.85,10.995,158.327,12.269,154.222,12.263L154.222,12.263z"/>
	<path fill-rule="evenodd" clip-rule="evenodd" d="M149.338,16.729c-1.943,0.013-4.494-0.364-7-1.035l-0.245,0.916
		c2.584,0.692,5.227,1.081,7.251,1.068c3.858-0.025,6.465-1.475,8.716-4.85l-0.789-0.526
		C155.188,15.424,152.89,16.707,149.338,16.729L149.338,16.729z"/>
	<path fill-rule="evenodd" clip-rule="evenodd" d="M124.827,22.486c2.282,1.504,5.738,3.504,9.388,3.506
		c2.564,0.001,4.935-0.986,7.044-2.934l-0.644-0.696c-1.955,1.806-4.049,2.684-6.4,2.682c-3.395-0.001-6.685-1.912-8.865-3.35
		L124.827,22.486L124.827,22.486z"/>
	<path fill-rule="evenodd" clip-rule="evenodd" d="M141.147,22.079c-2.624,0.077-7.891-1.419-10.496-3.392l-0.572,0.757
		c2.798,2.119,8.263,3.666,11.097,3.583c4.564-0.134,9.039-3.458,10.787-5.523l-0.725-0.613
		C149.597,18.831,145.405,21.954,141.147,22.079L141.147,22.079z"/>
	<path fill-rule="evenodd" clip-rule="evenodd" d="M121.984,25.079c1.327,2.465,4.707,4.284,8.036,4.323
		c2.971,0.036,5.363-1.273,6.738-3.686l-0.824-0.47c-1.614,2.833-4.391,3.226-5.902,3.208c-3.006-0.036-6.039-1.645-7.213-3.825
		L121.984,25.079L121.984,25.079z"/>
	<path fill-rule="evenodd" clip-rule="evenodd" d="M122.671,32.955c-1.583,0.05-3.383-0.51-4.479-1.394l-0.595,0.739
		c1.279,1.031,3.282,1.66,5.103,1.603c1.747-0.055,3.115-0.728,3.852-1.894l-0.802-0.506
		C124.99,32.706,123.495,32.929,122.671,32.955L122.671,32.955z"/>
	<path fill-rule="evenodd" clip-rule="evenodd" d="M118.355,28.57c3.184,3.034,6.164,3.411,8.104,3.192
		c2.508-0.282,4.264-1.627,4.781-2.409l-0.791-0.524c-0.343,0.517-1.851,1.737-4.097,1.99c-1.739,0.196-4.425-0.154-7.345-2.936
		L118.355,28.57L118.355,28.57z"/>
	<path fill-rule="evenodd" clip-rule="evenodd" d="M119.449,34.564c-0.84,0.081-2.075-0.063-3.196-1.205l-0.677,0.664
		c1.384,1.41,2.919,1.585,3.964,1.485c1.697-0.164,3.098-1.147,3.554-1.99l-0.834-0.452
		C121.923,33.689,120.753,34.439,119.449,34.564L119.449,34.564z"/>
	<path fill-rule="evenodd" clip-rule="evenodd" d="M112.421,35.448c-0.338,0.839-0.826,1.38-1.307,1.448
		c-0.487,0.069-0.929-0.349-1.213-0.711l-0.746,0.584c0.792,1.014,1.575,1.14,2.093,1.067c0.66-0.093,1.245-0.566,1.7-1.335
		c0.802,0.876,1.911,1.329,3.114,1.204c1.412-0.148,2.604-1.041,3.039-2.275l-0.896-0.314c-0.313,0.89-1.192,1.536-2.242,1.646
		c-1.11,0.116-2.095-0.388-2.698-1.381l-0.491-0.809L112.421,35.448L112.421,35.448z"/>
	<path fill-rule="evenodd" clip-rule="evenodd" d="M159.326,12.39c2.111,0.711,4.695,1.113,7.474,1.162
		c2.194,0.039,4.418-0.148,6.432-0.541l-0.183-0.931c-1.947,0.38-4.104,0.561-6.233,0.523c-2.682-0.047-5.166-0.432-7.187-1.113
		L159.326,12.39L159.326,12.39z"/>
	<path fill-rule="evenodd" clip-rule="evenodd" d="M158.998,18.087c-2.842-0.037-5.449-0.524-6.974-1.303l-0.432,0.844
		c1.672,0.855,4.368,1.369,7.394,1.408c3.185,0.042,6.476-0.442,9.265-1.363l-0.297-0.9
		C165.262,17.661,162.081,18.127,158.998,18.087L158.998,18.087z"/>
	<path fill-rule="evenodd" clip-rule="evenodd" d="M147.956,24.815c-3.237,0.047-6.344-0.282-8.746-0.928l-0.246,0.917
		c2.484,0.667,5.683,1.008,9.005,0.96c4.842-0.069,9.496-0.931,13.107-2.424l-0.362-0.876
		C157.211,23.912,152.68,24.748,147.956,24.815L147.956,24.815z"/>
	<path fill-rule="evenodd" clip-rule="evenodd" d="M133.559,28.279c1.868,1.829,9.57,2.873,14.177,2.347l-0.107-0.943
		c-4.626,0.528-11.893-0.6-13.406-2.081L133.559,28.279L133.559,28.279z"/>
	<path fill-rule="evenodd" clip-rule="evenodd" d="M129.986,30.221c2.118,1.607,6.405,3.798,8.574,3.717l-0.036-0.948
		c-1.751,0.066-5.789-1.875-7.965-3.525L129.986,30.221L129.986,30.221z"/>
	<path fill-rule="evenodd" clip-rule="evenodd" d="M126.166,32.002c2.244,2.717,6.551,4.187,10.474,3.573l-0.146-0.937
		c-3.608,0.563-7.555-0.769-9.596-3.241L126.166,32.002L126.166,32.002z"/>
	<path fill-rule="evenodd" clip-rule="evenodd" d="M129.488,36.323l0.457,0.729c0.472,0.759,1.006,1.619,1.488,2.237l0.747-0.583
		c-0.45-0.579-0.971-1.416-1.43-2.154l-0.463-0.74L129.488,36.323L129.488,36.323z"/>
	<path fill-rule="evenodd" clip-rule="evenodd" d="M126.613,36.927l0.447,0.98c0.286,0.668,0.557,1.3,0.894,1.667l0.698-0.641
		c-0.227-0.248-0.479-0.833-0.721-1.4l-0.475-1.042L126.613,36.927L126.613,36.927z"/>
	<path fill-rule="evenodd" clip-rule="evenodd" d="M123.034,37.527l0.327,0.864c0.376,1.04,0.526,1.416,0.683,1.592l0.724-0.612
		c-0.096-0.142-0.357-0.868-0.514-1.302l-0.366-0.955L123.034,37.527L123.034,37.527z"/>
	<polygon fill-rule="evenodd" clip-rule="evenodd" points="118.824,38.74 119.865,40.695 120.703,40.25 119.66,38.294 
		118.824,38.74 	"/>
	<path fill-rule="evenodd" clip-rule="evenodd" d="M142.937,15.581c-2.39,0.057-4.519-1.222-6.983-2.703l-0.488,0.813
		c2.592,1.557,4.83,2.901,7.493,2.837c1.918-0.046,4.448-1.847,5.205-3.708l-0.879-0.357
		C146.671,13.97,144.476,15.543,142.937,15.581L142.937,15.581z"/>
	<path fill-rule="evenodd" clip-rule="evenodd" d="M130.857,15.678l0.233,0.132c3.064,1.721,7.26,4.077,11.078,0.737l-0.625-0.714
		c-3.313,2.898-7.015,0.82-9.988-0.85l-0.234-0.132L130.857,15.678L130.857,15.678z"/>
	<path fill-rule="evenodd" clip-rule="evenodd" d="M125.425,17.073c1.902,1.28,3.405,2.291,5.663,2.362
		c1.403,0.043,2.887-0.048,4.239-1.657l-0.726-0.61c-1.082,1.287-2.219,1.358-3.484,1.318c-1.893-0.059-3.133-0.835-5.163-2.2
		L125.425,17.073L125.425,17.073z"/>
	<path fill-rule="evenodd" clip-rule="evenodd" d="M121.955,18.979c0.905,0.823,3.518,1.93,5.716,1.863
		c1.37-0.042,2.384-0.547,2.93-1.461l-0.814-0.487c-0.377,0.632-1.099,0.969-2.144,1c-1.902,0.058-4.299-0.935-5.049-1.617
		L121.955,18.979L121.955,18.979z"/>
	<path fill-rule="evenodd" clip-rule="evenodd" d="M123.673,22.057c-1.089-0.001-2.43-0.451-3.985-1.339l-0.471,0.824
		c1.701,0.97,3.201,1.462,4.455,1.463c1.546,0.001,2.769-0.748,3.535-2.163l-0.834-0.452
		C125.766,21.512,124.882,22.057,123.673,22.057L123.673,22.057z"/>
	<path fill-rule="evenodd" clip-rule="evenodd" d="M121.526,24.188c-1.019,0.091-2.209-0.148-3.266-0.656l-0.411,0.855
		c1.206,0.581,2.577,0.852,3.762,0.746c1.553-0.14,2.73-0.904,3.403-2.211l-0.843-0.434
		C123.647,23.505,122.758,24.078,121.526,24.188L121.526,24.188z"/>
	<path fill-rule="evenodd" clip-rule="evenodd" d="M119.031,27.255c-1,0.008-2.297-0.371-4.082-1.193l-0.397,0.861
		c1.917,0.883,3.343,1.29,4.486,1.281c2.006-0.017,3.028-1.366,3.762-2.685l-0.828-0.462
		C121.097,26.628,120.271,27.245,119.031,27.255L119.031,27.255z"/>
	<polygon fill-rule="evenodd" clip-rule="evenodd" points="115.693,39.548 115.693,40.095 116.642,40.095 116.642,39.548 
		115.693,39.548 	"/>
	<path fill-rule="evenodd" clip-rule="evenodd" d="M116.315,29.544c-0.91,0.067-2.056-0.239-2.85-0.761l-0.976-0.642l0.252,1.141
		c0.144,0.648,0.075,1.227-0.193,1.628c-0.17,0.254-0.412,0.416-0.702,0.467c-0.496,0.087-1.063-0.152-1.64-0.692l-0.647,0.693
		c1.014,0.95,1.893,1.032,2.452,0.933c0.542-0.095,1.014-0.406,1.326-0.874c0.267-0.399,0.4-0.895,0.415-1.437
		c0.837,0.362,1.797,0.551,2.632,0.49c1.324-0.097,2.336-0.805,2.85-1.992l-0.871-0.376
		C117.986,28.994,117.298,29.473,116.315,29.544L116.315,29.544z"/>
	<path fill-rule="evenodd" clip-rule="evenodd" d="M95.494,47.809c0.03,1.417,0.527,2.623,1.439,3.487l0.622,0.591l0.19-0.953
		c0.098-0.485,0.2-0.956,0.503-1.574c0.251,0.237,0.49,0.491,0.711,0.797l0.422,0.586l0.683-1.149
		c0.381-0.673,0.867-1.488,1.768-2.086c0.601,0.349,1.401,1.108,1.909,1.597l1.004,0.925l0.259-0.564
		c0.507-0.939,1.067-1.461,1.765-2.01c0.181,0.107,0.378,0.224,0.378,0.224l0.546-0.775l-1.034-0.613l-0.219,0.214
		c-0.595,0.456-1.309,1.034-1.946,2.002c-0.03-0.027-0.094-0.086-0.094-0.086c-0.653-0.629-1.641-1.58-2.405-1.912l-0.218-0.094
		l-0.207,0.118c-1.244,0.714-1.85,1.749-2.291,2.528c-0.271-0.304-0.555-0.584-0.881-0.83l-0.421-0.317l-0.271,0.452
		c-0.365,0.61-0.554,1.092-0.682,1.526c-0.361-0.589-0.564-1.289-0.581-2.104c-0.001-0.041-0.002-0.081-0.002-0.122
		c0-1.6,0.67-3.039,1.137-3.522l-0.682-0.659C96.187,44.218,95.455,45.982,95.494,47.809L95.494,47.809z"/>
	<path fill-rule="evenodd" clip-rule="evenodd" fill="#FDB913" d="M71.831,62.012c-0.076-0.866,0.57-2.523,1.833-2.993
		c-0.058,0.536-0.037,1.267,0.222,1.746C73.145,60.918,72.345,61.499,71.831,62.012L71.831,62.012z"/>
	<path fill-rule="evenodd" clip-rule="evenodd" d="M73.499,58.575c-1.467,0.545-2.236,2.394-2.141,3.479l0.088,1.012l0.72-0.718
		c0.434-0.433,1.169-0.985,1.815-1.118l0.626-0.128l-0.304-0.562c-0.2-0.371-0.218-1.002-0.167-1.47l0.083-0.763L73.499,58.575
		L73.499,58.575z M73.192,59.883c0.016,0.198,0.051,0.387,0.104,0.59c-0.261,0.103-0.503,0.221-0.727,0.363
		C72.718,60.491,72.914,60.152,73.192,59.883L73.192,59.883z"/>
	<path fill-rule="evenodd" clip-rule="evenodd" fill="#FDB913" d="M80.835,66.522c-0.8-0.357-1.634-1.355-1.237-2.581
		c0.508-0.094,1.188-0.154,1.696,0.034C81.064,64.824,80.742,65.801,80.835,66.522L80.835,66.522z"/>
	<path fill-rule="evenodd" clip-rule="evenodd" d="M79.511,63.475l-0.277,0.052l-0.087,0.269c-0.458,1.415,0.428,2.685,1.495,3.161
		l0.771,0.345l-0.107-0.838c-0.067-0.524,0.152-1.305,0.345-1.994l0.219-0.79l-0.41-0.148
		C80.838,63.301,80.057,63.373,79.511,63.475L79.511,63.475z M80.699,64.358c-0.12,0.427-0.213,0.851-0.278,1.267
		c-0.25-0.275-0.449-0.631-0.449-1.061c0-0.06,0.023-0.126,0.031-0.188C80.265,64.345,80.493,64.34,80.699,64.358L80.699,64.358z"/>
	<path fill-rule="evenodd" clip-rule="evenodd" fill="#FDB913" d="M91.179,59.245c-0.115-1.066-1.456-2.07-2.409-2.056
		c0.094,0.53,0.034,1.007,0.022,1.506C89.614,58.776,90.601,59.006,91.179,59.245L91.179,59.245z"/>
	<path fill-rule="evenodd" clip-rule="evenodd" d="M88.763,56.714l-0.558,0.008l0.097,0.549c0.063,0.351,0.046,0.688,0.03,1.044
		l-0.031,0.815l0.444,0.037c0.765,0.076,1.712,0.293,2.253,0.517l0.739,0.306l-0.086-0.795
		C91.507,57.861,89.915,56.697,88.763,56.714L88.763,56.714z M89.296,57.837c0-0.017-0.003-0.036-0.004-0.053
		c0.349,0.134,0.687,0.381,0.959,0.682c-0.317-0.075-0.645-0.136-0.968-0.184C89.289,58.136,89.296,57.989,89.296,57.837
		L89.296,57.837z"/>
	<polygon fill-rule="evenodd" clip-rule="evenodd" points="82.263,53.561 82.29,54.509 83.971,54.502 85.015,54.505 85.01,53.557 
		83.978,53.553 82.263,53.561 	"/>
	<polygon fill-rule="evenodd" clip-rule="evenodd" points="82.818,51.926 82.835,52.874 85.285,52.83 85.268,51.881 82.818,51.926 	
		"/>
	<path fill-rule="evenodd" clip-rule="evenodd" d="M85.321,50.24l-2.134,0.043l0.015,0.948l2.429-0.048l0.43-0.66
		C85.935,50.228,85.729,50.232,85.321,50.24L85.321,50.24z"/>
	<path fill-rule="evenodd" clip-rule="evenodd" d="M78.291,57.637c-0.709,0.154-1.439,0.226-2.129,0.364
		c0.075,0.077,0.177,0.128,0.278,0.179l0.071,1.131c0.495,0.142,0.404-0.48,0.898-0.48l0.906-0.28
		C78.315,58.477,78.312,58.098,78.291,57.637L78.291,57.637z M76.59,60.457c0.402-0.115,0.821-0.302,1.341-0.609
		c-0.004-0.039-0.007-0.077-0.007-0.112c-0.424,0-0.99,0.141-1.273,0.354C76.651,60.169,76.629,60.302,76.59,60.457L76.59,60.457z
		 M77.944,59.942c-0.658,0.533-1.137,1.071-1.404,1.837c0.615-0.007,1.302,0.001,1.738,0.218
		C78.466,61.433,78.041,60.533,77.944,59.942L77.944,59.942z M80.146,61.398c-0.154,0.546-0.349,1.053-0.463,1.595l0.892-0.381
		c0.07-0.283,0.823-1.239,1.177-1.239C81.588,61.209,80.704,61.333,80.146,61.398L80.146,61.398z M88.123,56.983
		c-1.145-0.262-1.282-0.888-2.662-1.583c0.167,1.456,0.877,2.496,2.576,2.496C88.097,57.653,88.118,57.329,88.123,56.983
		L88.123,56.983z"/>
	<path fill-rule="evenodd" clip-rule="evenodd" fill="#FDB913" d="M102.651,47.511c0.077,2.721,0.569,7.046,2.994,8.777
		c2.048,1.462,3.639,0.974,5.106,2.29l-0.124,1.476c-2.584-0.842-1.599-0.056-3.679-0.649c1.577,1.119,2.077,1.153,2.266,3.002
		c-0.616,0.13-0.912,0.673-1.33,0.929c-0.748-0.788-2.111-1.167-3.13-2.858c0.135,1.322,0.337,2.56,0.337,3.832
		c-0.544-0.088-1.086-0.1-1.629,0c-0.477-1.042-1.592-3.385-1.592-4.59c-1.422,0-1.481-1.487-2.819-1.716
		c-0.604-0.104-1.506,0.365-2.308,0.237c-0.075-0.598-0.007-1.123-0.007-1.657c1.489-0.466,1.926-1.421,3.713-2.261
		c0.642-1.417,0.087-3.271-0.371-5.632c0.392-0.847,1-1.229,1.711-1.79C101.991,46.989,102.453,47.371,102.651,47.511
		L102.651,47.511z"/>
	<path fill-rule="evenodd" clip-rule="evenodd" d="M101.497,46.529l-0.28,0.216c-0.607,0.468-1.181,0.908-1.568,1.747l-0.065,0.141
		l0.244,1.207c0.235,1.134,0.439,2.119,0.439,2.957c0,0.441-0.069,0.835-0.207,1.195c-0.777,0.389-1.313,0.795-1.779,1.157
		c-0.547,0.425-0.979,0.761-1.685,0.982l-0.324,0.101l-0.022,0.843l0.032,1.622l0.389,0.013c0.516,0.082,1.027-0.032,1.479-0.132
		c0.324-0.071,0.631-0.14,0.822-0.106c0.467,0.08,0.721,0.364,1.043,0.724c0.334,0.372,0.753,0.801,1.44,0.938
		c0.143,1.137,0.813,2.716,1.478,4.159l0.252,0.551l0.364-0.066c0.459-0.085,0.938-0.084,1.467,0.001l0.551,0.089V64.31
		c0-0.774-0.076-1.525-0.163-2.293c0.434,0.405,0.869,0.709,1.254,0.967c0.354,0.237,0.659,0.442,0.883,0.678l0.305,0.321
		l0.287-0.243l0.505-0.417c0.223-0.213,0.414-0.396,0.677-0.452l0.417-0.088l-0.043-0.424c-0.122-1.205-0.402-1.757-0.955-2.252
		c0.283-0.002,0.683,0.05,1.749,0.398l0.57,0.185l0.193-2.308l-0.176-0.158c-0.82-0.735-1.654-0.96-2.536-1.197
		c-0.816-0.22-1.66-0.447-2.612-1.126c-2.159-1.541-2.711-5.42-2.794-8.403l-0.007-0.229l-0.412-0.31l-1.014-0.687L101.497,46.529
		L101.497,46.529z M101.796,47.499c0,0,0.014-0.011,0.016-0.012c0.152,0.109,0.318,0.227,0.318,0.227s0.038,0.028,0.059,0.044
		c0.112,3.167,0.763,7.191,3.182,8.917c1.091,0.779,2.061,1.04,2.916,1.271c0.731,0.197,1.371,0.384,1.971,0.854
		c-0.016,0.184-0.027,0.329-0.053,0.63c-1.012-0.292-1.378-0.282-1.714-0.262c-0.274,0.016-0.533,0.031-1.41-0.218l-2.787-0.794
		l3.03,2.084c0.933,0.63,1.217,0.872,1.366,1.893c-0.283,0.149-0.525,0.331-0.71,0.508c0,0-0.055,0.046-0.089,0.075
		c-0.22-0.18-0.453-0.35-0.704-0.518c-0.663-0.446-1.415-0.95-2.024-1.963l-1.121-1.862l0.362,3.227
		c0.088,0.753,0.158,1.474,0.188,2.195c-0.286-0.018-0.565-0.012-0.836,0.017c-0.483-1.051-1.409-3.092-1.409-4.09v-0.475h-0.476
		c-0.514,0-0.759-0.246-1.149-0.683c-0.354-0.396-0.796-0.891-1.59-1.026c-0.376-0.065-0.77,0.022-1.187,0.115
		c-0.25,0.055-0.497,0.092-0.737,0.111c-0.005-0.309-0.011-0.648-0.011-0.648s0.003-0.106,0.006-0.203
		c0.68-0.268,1.164-0.628,1.659-1.014c0.489-0.379,0.995-0.772,1.789-1.146l0.159-0.075l0.072-0.159
		c0.239-0.527,0.331-1.102,0.331-1.719c0-0.95-0.219-2.004-0.457-3.153c0,0-0.129-0.639-0.177-0.876
		C100.866,48.228,101.259,47.911,101.796,47.499L101.796,47.499z"/>
	<path fill-rule="evenodd" clip-rule="evenodd" fill="#FDB913" d="M109.456,65.253c0.351-0.531,0.577-2.106-0.076-2.997
		c-0.405,0.162-1.155,0.721-1.484,1.095C108.386,63.83,109.075,64.547,109.456,65.253L109.456,65.253z"/>
	<path fill-rule="evenodd" clip-rule="evenodd" d="M109.203,61.814c-0.512,0.206-1.314,0.826-1.664,1.223l-0.297,0.338l0.322,0.314
		c0.267,0.261,1.078,1.055,1.473,1.788l0.376,0.698l0.438-0.661c0.474-0.716,0.68-2.493-0.089-3.541l-0.218-0.296L109.203,61.814
		L109.203,61.814z M109.166,62.918c0.096,0.262,0.155,0.544,0.155,0.832c0,0.146-0.028,0.272-0.045,0.409
		c-0.231-0.289-0.472-0.56-0.703-0.798C108.759,63.203,108.971,63.046,109.166,62.918L109.166,62.918z"/>
	<path fill-rule="evenodd" clip-rule="evenodd" fill="#FDB913" d="M112.723,61.518c0.076-0.865-0.57-2.523-1.834-2.992
		c-0.02,0.51-0.063,0.989-0.222,1.501C111.374,60.315,112.183,61.104,112.723,61.518L112.723,61.518z"/>
	<path fill-rule="evenodd" clip-rule="evenodd" d="M110.415,58.507c-0.02,0.501-0.062,0.928-0.201,1.379l-0.129,0.416l0.402,0.165
		c0.451,0.184,1.005,0.649,1.45,1.023l1.191,0.973l0.066-0.903c0.096-1.085-0.673-2.933-2.14-3.479l-0.615-0.229L110.415,58.507
		L110.415,58.507z M111.298,59.347c0.292,0.264,0.508,0.596,0.667,0.948c-0.25-0.196-0.503-0.353-0.764-0.5
		C111.235,59.645,111.278,59.491,111.298,59.347L111.298,59.347z"/>
	<path fill-rule="evenodd" clip-rule="evenodd" fill="#FDB913" d="M103.903,66.708c0.8-0.357,1.634-1.355,1.237-2.581
		c-0.508-0.095-1.188-0.154-1.696,0.034C103.674,65.01,103.996,65.986,103.903,66.708L103.903,66.708z"/>
	<path fill-rule="evenodd" clip-rule="evenodd" d="M103.279,63.715l-0.41,0.151l0.219,0.787c0.193,0.689,0.412,1.47,0.345,1.994
		l-0.107,0.838l0.772-0.345c1.066-0.477,1.953-1.746,1.495-3.16l-0.088-0.27l-0.278-0.051
		C104.682,63.559,103.9,63.486,103.279,63.715L103.279,63.715z M104.735,64.562c0.009,0.062,0.03,0.128,0.03,0.188
		c0,0.43-0.198,0.787-0.448,1.061c-0.064-0.416-0.158-0.839-0.277-1.267C104.246,64.525,104.474,64.53,104.735,64.562
		L104.735,64.562z"/>
	<path fill-rule="evenodd" clip-rule="evenodd" fill="#FDB913" d="M94.675,59.178c-0.076-1.066,1.038-2.491,2.098-2.478
		c-0.094,0.53-0.033,1.008-0.022,1.506C95.929,58.412,95.252,58.845,94.675,59.178L94.675,59.178z"/>
	<path fill-rule="evenodd" clip-rule="evenodd" d="M95.088,57.055c-0.597,0.632-0.937,1.458-0.888,2.156l0.054,0.761l0.87-0.507
		c0.508-0.297,1.083-0.634,1.741-0.798l0.374-0.093l-0.028-0.746c-0.017-0.357-0.032-0.694,0.029-1.045l0.098-0.55l-0.56-0.007
		C96.2,56.218,95.6,56.513,95.088,57.055L95.088,57.055z M95.778,57.707c0.148-0.158,0.31-0.28,0.469-0.37
		c0,0.004-0.001,0.008-0.001,0.012c0,0.178,0.008,0.352,0.017,0.522c0,0,0,0.013,0,0.013c-0.291,0.1-0.574,0.199-0.827,0.328
		C95.535,58.037,95.635,57.859,95.778,57.707L95.778,57.707z"/>
	<polygon fill-rule="evenodd" clip-rule="evenodd" points="101.908,53.068 100.694,53.084 100.688,54.033 101.93,54.016 
		103.544,54.004 103.57,53.056 101.908,53.068 	"/>
	<polygon fill-rule="evenodd" clip-rule="evenodd" points="100.866,51.735 100.895,52.684 103.264,52.614 103.235,51.666 
		100.866,51.735 	"/>
	<path fill-rule="evenodd" clip-rule="evenodd" d="M100.28,50.436l0.371,0.811c0.18-0.014,1.867-0.135,2.271-0.129l0.016-0.948
		C102.913,50.169,100.566,50.155,100.28,50.436L100.28,50.436z"/>
	<path fill-rule="evenodd" clip-rule="evenodd" d="M107.118,57.369c0.709,0.154,1.551,0.314,2.241,0.452
		c-0.487,0.499-0.47-0.071-0.528,0.865c-0.495,0.141-0.426-0.191-0.922-0.191l-0.905-0.279
		C107.004,58.142,107.098,57.83,107.118,57.369L107.118,57.369z M106.994,59.473c0.658,0.534,1.741,1.541,2.009,2.307
		c-0.616-0.007-1.169-0.2-1.604,0.018C107.524,60.454,106.563,60.644,106.994,59.473L106.994,59.473z M104.407,61.46
		c0.154,0.546,0.349,1.052,0.463,1.594l-0.893-0.381c-0.07-0.283-0.452-1.239-0.806-1.239
		C103.336,61.271,103.849,61.395,104.407,61.46L104.407,61.46z M97.575,56.318c1.145-0.261,1.281-0.887,2.662-1.582
		c-0.167,1.455-0.878,2.496-2.575,2.496C97.601,56.987,97.579,56.664,97.575,56.318L97.575,56.318z"/>
	<path fill-rule="evenodd" clip-rule="evenodd" d="M88.561,74.107l0.319,0.022c0.368,0.025,0.613,0.081,0.735,0.167
		s0.176,0.223,0.163,0.413c-0.012,0.18-0.089,0.303-0.23,0.367c-0.142,0.064-0.395,0.083-0.761,0.058l-0.296-0.021L88.561,74.107
		L88.561,74.107z M88.441,78.105c0.621,0.043,1.069,0.056,1.345,0.037c0.275-0.018,0.51-0.066,0.702-0.146
		c0.237-0.093,0.423-0.236,0.56-0.43c0.137-0.192,0.214-0.42,0.233-0.684c0.026-0.37-0.063-0.673-0.266-0.909
		c-0.203-0.235-0.497-0.38-0.882-0.435c0.351-0.061,0.61-0.168,0.779-0.324c0.169-0.156,0.264-0.376,0.284-0.66
		c0.016-0.224-0.023-0.425-0.117-0.603c-0.093-0.178-0.237-0.325-0.431-0.441c-0.17-0.1-0.376-0.176-0.619-0.229
		c-0.242-0.053-0.67-0.102-1.286-0.145l-1.496-0.104l-0.347,4.963L88.441,78.105L88.441,78.105z M88.429,76.002l0.541,0.038
		c0.364,0.026,0.61,0.084,0.738,0.176c0.129,0.091,0.186,0.242,0.171,0.452c-0.013,0.188-0.096,0.316-0.249,0.387
		c-0.153,0.071-0.406,0.094-0.759,0.069l-0.52-0.036L88.429,76.002L88.429,76.002z"/>
</g>
</svg>
