<?xml version="1.0" encoding="UTF-8" standalone="no"?>
<!-- Created with Inkscape (http://www.inkscape.org/) -->

<svg
   xmlns:dc="http://purl.org/dc/elements/1.1/"
   xmlns:cc="http://creativecommons.org/ns#"
   xmlns:rdf="http://www.w3.org/1999/02/22-rdf-syntax-ns#"
   xmlns:svg="http://www.w3.org/2000/svg"
   xmlns="http://www.w3.org/2000/svg"
   version="1.0"
   width="400"
   height="130"
   viewBox="-1.020675 -1.020675 42.320332 13.748681"
   id="svg3072">
  <metadata
     id="metadata63">
    <rdf:RDF>
      <cc:Work
         rdf:about="">
        <dc:format>image/svg+xml</dc:format>
        <dc:type
           rdf:resource="http://purl.org/dc/dcmitype/StillImage" />
        <dc:title></dc:title>
      </cc:Work>
    </rdf:RDF>
  </metadata>
  <defs
     id="defs3074" />
  <g
     transform="matrix(0.39314994,0,0,0.3887164,-0.75617276,-0.75888636)"
     id="g3340">
    <path
       d="M 62.5362,2.06625 C 59.3312,0.5075 56.4162,0 52.9575,0 49.8225,0 46.545,0.665 43.57,1.95 40.4737,0.8725 33.0562,1.5125 31.435,1.54875 29.5787,1.59125 21.8987,1.1275 20.085,1.1275 18.2712,1.1275 14.5212,1.18625 11.6925,1.38 7.3862,1.67625 2.5175,1.25625 1.93,1.11 1.645,1.04 1.4337,1.2125 1.4337,1.2125 1.3075,1.38 0,2.85625 0,2.85625 L 0.1275,3.28 3.2062,4.84 2.785,6.86625 5.7825,8.2175 c 0,0 0,1.685 0.1662,1.89625 0.1688,0.21375 3.1663,0.97125 3.1663,0.97125 0,0 0.2987,1.97 0.5062,2.15125 0.3513,0.3125 3.5038,0.635 3.5038,0.635 0,0 0.9687,1.77125 1.39,1.94 0.4225,0.16875 3.7987,0.67625 4.43,0.50625 0,0 0.28,1.475 0.8775,1.74125 0.6387,0.2825 4.3125,0.16 4.3125,0.16 0,0 0.4562,1.45375 1.1875,1.68125 0.6837,0.21125 3.8762,-0.62875 3.8762,-0.62875 0,0 0.4663,1.0775 0.93,1.26625 0.7075,0.28875 3.2863,-0.62625 3.2863,-0.62625 1.3262,5.46375 5.7437,9.33 10.9462,11.35125 l 0.7275,1.4625 1.71,-0.6475 0.8938,1.37125 1.5612,-0.84875 1.0638,1.29 1.4025,-1.015 1.2362,1.1475 1.2313,-1.18125 1.4062,1.02875 1.0588,-1.2875 1.5637,0.85125 0.8963,-1.36 1.7175,0.65875 0.7075,-1.46375 c 4.8225,-1.87125 9.2875,-5.7675 10.7387,-10.7075 0.4513,0.20125 1.3075,0.49375 2.015,0.52375 0,0 0.8063,-0.29125 1.1338,-1.31125 0,0 2.7987,0.87375 3.31,0.7175 0,0 0.47,-0.025 0.9037,-1.45625 0.2863,0.13125 0.5238,0.06125 0.95,0.15375 2.1788,0.47375 3.1288,0.2175 3.1288,0.2175 0,0 0.4875,-0.0825 0.8737,-1.9175 0.1938,0.02875 0.3325,0.0525 0.4788,0.04375 0,0 3.235,0.0925 3.795,-0.1875 0,0 0.5112,-0.12875 0.695,-1.9675 1.3337,0.2 2.5337,0.2875 3.505,0.17625 0,0 1.0875,-0.37375 1.5062,-2.5125 0.7338,-0.04625 2.8975,-0.19 3.1663,-0.50875 0,0 0.5325,-0.245 0.5325,-2.16625 0.8462,-0.055 2.2225,-0.2325 2.7187,-0.76 0,0 0.525,-0.6075 0.2975,-2.07125 1.9988,-0.41875 2.6925,-1.07 2.6925,-1.07 -0.0137,-0.7075 -0.6362,-2.00875 -0.6362,-2.00875 0,0 2.2362,-0.8625 2.78,-1.3 l 0.1762,-0.32375 c 0,0 -1.3537,-1.6225 -1.5637,-1.66625 -0.4813,-0.1 -4.8075,0.52625 -7.6038,0.52625 -2.7987,0 -7.8425,-0.425 -9.9187,-0.425 -2.0775,0 -8.5638,0.4675 -11.615,0.4675 -3.0525,0 -4.2363,-0.4675 -6.4825,-0.4675 -1.3963,0 -4.6025,0.08875 -6.5788,0.79875"
       id="path2492"
       style="fill:#595959;fill-opacity:1;fill-rule:evenodd;stroke:none" />
    <path
       d="m 99.2291,5.08238 c -0.725,0.00125 -1.4475,0.00375 -2.17,0.00375 -1.235,0.0575 -2.56,0.0225 -3.835,0.0425 -1.6788,0.02625 -5.5438,0.0575 -5.74,0.0725 -0.8013,0 -1.6038,0 -2.4038,0 -1.3637,0 -2.5675,-0.005 -3.93,-0.005 -0.2312,0.01 -1.6125,0.0475 -2.0487,0.045 -0.195,-0.005 -0.5475,-0.02875 -0.7413,0 -0.3225,0.05 -0.8487,0.72875 -0.215,0.72875 0.0275,-0.00625 0.0575,-0.01125 0.0875,-0.015 0.0638,-0.00875 0.1275,-0.01875 0.1925,-0.03 0.1775,-0.055 0.4088,0.01125 0.59,0.025 0.3375,0.02375 0.6788,0.05 1.0175,0.07375 0.8913,0.06125 1.7813,0.12125 2.67,0.18375 0.6388,0.05125 1.28,0.105 1.9188,0.155 4.6787,0.295 9.3012,0.71375 14.15,0.71375 1.1212,0 2.1225,-0.49125 2.475,-0.60375 0.15,-0.04875 0.465,-0.08375 0.5837,-0.19 0.25,-0.21875 -0.0375,-1.0125 -0.2775,-1.1575 -0.1637,-0.1 -2.1425,-0.0525 -2.3237,-0.0425"
       id="path2496"
       style="fill:#c4c4c4;fill-opacity:1;fill-rule:nonzero;stroke:none" />
    <path
       d="m 5.1095,5.43813 c -0.245,0.0925 -0.3525,0.215 -0.385,0.48625 -0.0263,0.1975 0.1237,0.6525 0.6037,0.90125 0.3425,0.15625 1.6438,0.76375 1.9788,0.835 0.31,0.06625 19.9,-1.07875 19.9312,-1.08375 0.265,-0.12125 0.9838,-0.32 0.9213,-0.73875 -0.0175,-0.12 -0.2063,-0.23875 -0.3113,-0.28125 -0.2212,-0.08375 -2.635,0.13625 -2.815,0.1375 -1.6637,0 -19.4737,-0.25625 -19.9237,-0.25625"
       id="path2500"
       style="fill:#c4c4c4;fill-opacity:1;fill-rule:nonzero;stroke:none" />
    <path
       d="m 73.7708,5.7335 c -0.2162,-0.005 -0.435,0.125 -0.52,0.35875 -0.0712,0.1925 -0.095,0.455 0.0713,0.58875 0.1725,0.1375 0.44,0.17625 0.6562,0.2325 0.3488,0.09 0.6988,0.18 1.045,0.27 0.4025,0.09875 0.7375,0.155 1.2038,0.20125 0.36,0.03375 0.6725,-0.04625 0.7662,-0.335 0.1038,-0.335 0.0663,-0.55875 -0.195,-0.7075 C 76.6758,6.2735 76.1721,6.131 75.4371,5.996 74.7196,5.86475 73.9846,5.74725 73.7708,5.7335"
       id="path2504"
       style="fill:#c4c4c4;fill-opacity:1;fill-rule:nonzero;stroke:none" />
    <path
       d="m 31.7625,5.71788 c -0.6838,0.21125 -1.39,0.315 -2.1025,0.4475 -0.2788,0.04875 -0.6463,0.06375 -0.8725,0.22125 -0.1038,0.0725 -0.1613,0.1825 -0.19,0.29875 -0.025,0.11625 -0.0088,0.25375 0.0612,0.33625 0.1038,0.12375 0.7625,0.41 1.19,0.33625 0.6775,-0.16375 1.2675,-0.38 1.8975,-0.58375 0.2188,-0.06375 0.5038,-0.1 0.6613,-0.27375 C 32.58,6.30913 32.4662,6.09788 32.33,5.93413 32.1887,5.76913 31.9687,5.66913 31.7625,5.71788"
       id="path2508"
       style="fill:#c4c4c4;fill-opacity:1;fill-rule:nonzero;stroke:none" />
    <path
       d="m 78.0562,6.80538 c -0.0812,0.03625 -0.1625,0.06 -0.2275,0.1275 -0.2212,0.225 -0.275,0.59625 0.1538,0.59625 0.1737,-0.0525 0.6437,0.01875 0.8112,0.045 0.3113,0.04625 0.6213,0.095 0.93,0.14375 1.2538,0.1975 2.5088,0.395 3.7625,0.5925 1.5138,0.2475 3.0338,0.5 4.5725,0.67 1.08,0.12 2.155,0.31 3.2463,0.41375 1.6825,0.16 3.3425,0.39625 5.1212,0.39625 0.1075,-0.00375 0.2163,-0.01 0.3238,-0.01375 0.0625,-0.0075 0.1275,-0.01125 0.1912,-0.01375 0.0438,-0.0075 0.0913,-0.01125 0.135,-0.01625 0.0475,-0.005 0.0963,-0.01 0.1463,-0.01625 0.0525,-0.00375 0.1075,-0.00875 0.1612,-0.0125 0.0463,-0.0075 0.0888,-0.01 0.1338,-0.015 0.035,-0.0075 0.0687,-0.01125 0.1012,-0.01625 0.0313,-0.00375 0.06,-0.01 0.0913,-0.01375 0.03,-0.005 0.0575,-0.01 0.0862,-0.015 0.03,-0.005 0.0613,-0.00875 0.09,-0.015 0.1613,-0.04125 0.3225,-0.08375 0.4813,-0.12625 0.5637,-0.1725 0.8512,-0.40875 1.0475,-0.9675 0.0425,-0.12625 0.0962,-0.30375 -0.0025,-0.4175 -0.0888,-0.1 -0.2263,-0.1175 -0.3613,-0.12375 -0.7075,0 -1.4162,-0.0025 -2.1237,-0.0025 -0.965,-0.035 -1.9263,-0.07125 -2.8938,-0.10625 -3.575,-0.1675 -7.125,-0.45375 -10.6662,-0.68125 -1.2,-0.0925 -2.4,-0.185 -3.6013,-0.27875 C 79.27,6.90038 78.575,6.80538 78.0562,6.80538"
       id="path2512"
       style="fill:#c4c4c4;fill-opacity:1;fill-rule:nonzero;stroke:none" />
    <path
       d="m 32.6092,7.29813 c -0.6562,0.1275 -1.24,0.40875 -1.8575,0.61625 -0.255,0.08375 -0.5825,0.14375 -0.7712,0.35125 -0.115,0.12625 -0.145,0.2875 -0.1038,0.46375 0.0263,0.1175 0.0788,0.29375 0.1613,0.38625 0.165,0.1875 0.6012,0.3625 0.895,0.3625 0.1637,-0.005 0.4162,-0.05625 0.5225,-0.09875 0.4825,-0.26 0.9625,-0.51875 1.445,-0.77875 0.165,-0.08875 0.3775,-0.115 0.5125,-0.255 0.46,-0.47375 -0.4125,-1.11375 -0.8038,-1.0475"
       id="path2516"
       style="fill:#c4c4c4;fill-opacity:1;fill-rule:nonzero;stroke:none" />
    <path
       d="m 72.8687,7.53713 c -0.275,0.09 -0.9,0.43 -0.6312,0.73375 0.1062,0.1225 0.4475,0.2375 0.5937,0.2875 0.1813,0.07875 0.1688,0.10125 0.3488,0.18 0.2037,0.09375 0.4037,0.18875 0.6062,0.28125 0.3775,0.18375 0.5788,0.38375 1.0538,0.38375 0.56,-0.0125 0.8112,0.07375 1.0887,-0.45625 0.075,-0.1375 0.025,-0.29125 -0.055,-0.395 C 75.7425,8.38088 75,8.11088 74.6775,8.00088 74.045,7.78588 73.0462,7.48963 72.8687,7.53713"
       id="path2520"
       style="fill:#c4c4c4;fill-opacity:1;fill-rule:nonzero;stroke:none" />
    <path
       d="M 27.7422,7.38625 C 27.2997,7.43125 24.066,7.7425 22.8885,7.8175 22.2585,7.86875 11.261,8.5525 10.3022,8.56625 10.1247,8.58 7.7997,8.555 7.5585,8.76 7.4335,8.86625 7.5722,9.495 7.6922,9.61 7.916,9.82625 8.3247,9.89 8.6185,9.97125 c 0.8537,0.24 1.6212,0.5125 2.6125,0.5125 0.065,-0.005 17.26,-2.1975 17.5725,-2.1975 0.045,-0.04375 0.0887,-0.075 0.0812,-0.145 -0.0137,-0.15625 -0.615,-0.63375 -0.765,-0.7025 -0.1112,-0.05 -0.24,-0.0525 -0.3775,-0.0525"
       id="path2524"
       style="fill:#c4c4c4;fill-opacity:1;fill-rule:nonzero;stroke:none" />
    <path
       d="m 77.039,8.09288 c -0.1688,0.06375 -0.37,0.15125 -0.3275,0.385 0.0287,0.1675 0.1012,0.43375 0.24,0.54 0.2375,0.1825 0.77,0.25375 1.0737,0.3325 0.8438,0.21875 1.6913,0.43625 2.5363,0.6525 1.2487,0.32125 2.5075,0.58625 3.7775,0.88625 1.5362,0.365 3.125,0.685 4.7075,0.94125 0.8712,0.13875 1.745,0.29625 2.6425,0.4125 0.4625,0.05875 0.9125,0.14375 1.4,0.14375 0.0462,-0.0038 0.0887,-0.0088 0.135,-0.015 0.0812,-0.0038 0.1687,-0.0087 0.2512,-0.01375 0.0588,-0.005 0.1163,-0.0087 0.1775,-0.015 0.0425,-0.005 0.0863,-0.0087 0.1313,-0.015 0.065,-0.0038 0.13,-0.0088 0.1912,-0.01375 0.0663,-0.0062 0.1288,-0.01125 0.1925,-0.01375 0.065,-0.0075 0.1275,-0.01125 0.1925,-0.01625 0.05,-0.005 0.0975,-0.01 0.1463,-0.015 0.045,-0.005 0.0887,-0.01 0.1337,-0.01375 0.0438,-0.0063 0.0888,-0.01 0.1325,-0.015 0.0438,-0.0062 0.0875,-0.01 0.1338,-0.01625 0.0375,-0.0038 0.0775,-0.0088 0.115,-0.01375 0.0312,-0.0038 0.06,-0.01 0.0912,-0.015 0.0288,-0.005 0.0588,-0.0088 0.0888,-0.015 0.03,-0.005 0.0587,-0.0087 0.0862,-0.015 0.0313,-0.0038 0.06,-0.01 0.0913,-0.015 0.1737,-0.08 0.36,-0.07625 0.5225,-0.185 0.22,-0.14875 0.75,-0.8825 0.4687,-1.115 -0.2225,-0.18625 -1.43,-0.14875 -1.805,-0.17875 -1.1425,-0.09 -2.2787,-0.22875 -3.4062,-0.3375 -1.62,-0.1525 -3.23,-0.43875 -4.825,-0.64375 -1.8938,-0.24375 -3.7588,-0.5525 -5.6213,-0.86375 -0.865,-0.14875 -1.7325,-0.295 -2.595,-0.445 -0.3762,-0.09 -0.6562,-0.28875 -1.0787,-0.28875"
       id="path2528"
       style="fill:#c4c4c4;fill-opacity:1;fill-rule:nonzero;stroke:none" />
    <path
       d="m 27.5068,9.20463 c -0.96,0.16875 -1.9175,0.335 -2.8775,0.5025 -1.5175,0.2775 -7.4862,1.17 -8.9575,1.33375 -0.9525,0.10625 -1.9025,0.21625 -2.8775,0.29375 -1.7837,-0.08625 -2.0987,0.2075 -1.8725,0.68375 0.0975,0.205 0.1938,0.47625 0.3888,0.62375 0.2387,0.17875 2.225,0.58125 2.9937,0.58125 0.925,0.03125 5.0263,-0.62125 5.705,-0.78875 1.0563,-0.25875 9.1,-2.42375 9.3063,-2.56 0.1587,-0.10625 0.0287,-0.59 -0.1688,-0.83625 -0.1725,-0.21375 -1.1975,0.08625 -1.64,0.16625"
       id="path2532"
       style="fill:#c4c4c4;fill-opacity:1;fill-rule:nonzero;stroke:none" />
    <path
       d="m 33.997,8.9935 c -0.2875,0.01375 -2.2488,1.23375 -2.3888,1.4175 -0.0962,0.125 -0.0937,0.27625 -0.0462,0.4275 0.0375,0.12 0.0712,0.245 0.1637,0.3375 0.215,0.21625 0.695,0.2225 1.0188,0.2225 0.0875,-0.03375 0.1762,-0.06875 0.265,-0.10375 0.1725,-0.09625 0.3112,-0.2425 0.4725,-0.3675 C 33.8132,10.6585 34.0657,10.4685 34.397,10.201 34.5657,10.08225 34.9532,9.98475 35.062,9.7985 35.3407,9.316 34.3282,8.986 33.997,8.9935"
       id="path2536"
       style="fill:#c4c4c4;fill-opacity:1;fill-rule:nonzero;stroke:none" />
    <path
       d="m 71.5941,8.9935 c -0.3263,0.0175 -0.925,0.21875 -0.98,0.65 -0.015,0.11 0.0037,0.2225 0.085,0.28875 0.1462,0.1225 1.3025,0.705 1.6712,0.94125 0.28,0.1775 0.4963,0.39125 0.8675,0.39125 0.5,-0.01625 0.6775,-0.13875 0.8,-0.2125 0.2163,-0.13375 0.4763,-0.46375 0.2888,-0.72125 -0.165,-0.23 -0.5163,-0.32875 -0.7563,-0.43875 -0.265,-0.125 -0.5287,-0.25 -0.795,-0.375 C 72.5978,9.4285 71.8828,8.9935 71.5941,8.9935"
       id="path2540"
       style="fill:#c4c4c4;fill-opacity:1;fill-rule:nonzero;stroke:none" />
    <path
       d="m 76.3887,9.84938 c -0.1737,0.07625 -0.3462,0.15375 -0.52,0.23 -0.2375,0.095 -0.8337,0.2225 -0.6912,0.58375 0.1162,0.29625 2.9275,1.1275 3.7887,1.435 2.2425,0.77625 4.1613,1.43875 6.525,1.96 1.7175,0.37875 3.5463,0.80625 5.4475,0.80625 0.0775,-0.0038 0.1575,-0.0075 0.2325,-0.01375 0.0563,-0.005 0.1075,-0.01 0.1638,-0.01375 0.0312,-0.0063 0.0587,-0.01 0.0887,-0.015 0.13,-0.06625 0.2575,-0.095 0.38,-0.17875 0.19,-0.13625 0.2963,-0.33875 0.4438,-0.5025 0.1362,-0.15 0.34,-0.265 0.4212,-0.445 0.035,-0.08375 0.0388,-0.1925 -0.0162,-0.2675 -0.0638,-0.08125 -0.16,-0.105 -0.255,-0.13125 -0.4363,-0.05875 -0.8738,-0.1175 -1.3125,-0.1775 -0.8513,-0.1375 -1.7013,-0.275 -2.5538,-0.4125 -1.1425,-0.19125 -2.29,-0.44 -3.4087,-0.68375 -1.7913,-0.38875 -3.55,-0.7825 -5.295,-1.23125 -0.8113,-0.21375 -1.6238,-0.425 -2.435,-0.6375 -0.1713,-0.05375 -0.3438,-0.105 -0.5163,-0.15875 C 76.7125,9.93688 76.5775,9.86188 76.3887,9.84938"
       id="path2544"
       style="fill:#c4c4c4;fill-opacity:1;fill-rule:nonzero;stroke:none" />
    <path
       d="m 35.72,10.3775 c -0.2925,0 -1.145,0.87 -1.46,1.125 -0.15,0.125 -0.5188,0.4475 -0.595,0.62875 -0.1438,0.355 0.0787,0.545 0.31,0.71625 0.2125,0.15875 0.8637,0.0575 1.1525,-0.15875 0.2112,-0.15875 1.5675,-1.37375 1.6487,-1.51625 0.3925,-0.69375 -0.6,-0.795 -1.0562,-0.795"
       id="path2548"
       style="fill:#c4c4c4;fill-opacity:1;fill-rule:nonzero;stroke:none" />
    <path
       d="m 30.2637,10.381 c -0.115,0.03125 -0.2337,0.065 -0.3487,0.0975 -0.3038,0.12875 -7.3588,2.31625 -10.7025,3.0275 -0.965,0.205 -1.9413,0.3375 -2.9363,0.48375 -0.305,0.045 -0.9512,0.0025 -1.1637,0.1825 -0.1375,0.12375 0.2687,0.77625 0.385,0.95375 0.295,0.43875 3.755,0.585 5.2937,0.17875 0.6225,-0.1825 9.785,-3.39 9.9725,-3.62875 0.1925,-0.24625 0.145,-0.86 0.1188,-0.97125 C 30.8162,10.42225 30.5437,10.381 30.2637,10.381"
       id="path2552"
       style="fill:#c4c4c4;fill-opacity:1;fill-rule:nonzero;stroke:none" />
    <path
       d="m 69.9247,10.42563 c -0.2762,0.07375 -0.7037,-0.045 -0.8762,0.21375 -0.095,0.13875 -0.115,0.36375 -0.0263,0.5 0.1075,0.16125 1.6013,1.385 1.7788,1.47625 0.235,0.12 0.5412,0.1125 0.835,0.1125 0.2475,-0.005 0.7587,-0.2125 0.6975,-0.605 -0.015,-0.10375 -0.085,-0.19625 -0.1638,-0.26875 -0.2275,-0.20625 -0.5075,-0.33875 -0.755,-0.51125 -0.2112,-0.1425 -0.4487,-0.3225 -0.66,-0.465 -0.1925,-0.145 -0.3612,-0.25375 -0.5537,-0.39875 -0.0838,-0.04125 -0.1738,-0.0475 -0.2763,-0.05375"
       id="path2556"
       style="fill:#c4c4c4;fill-opacity:1;fill-rule:nonzero;stroke:none" />
    <path
       d="m 67.6976,11.60575 c -0.25,0.06125 -0.5375,0.16625 -0.4888,0.5 0.005,0.06375 0.3963,0.3625 0.545,0.5075 0.3363,0.3375 0.5838,0.9225 1.0113,1.1525 0.2975,0.16125 0.7375,0.3575 1.0725,0.18625 0.4175,-0.20375 0.31,-0.61375 0.2412,-0.7025 -0.3062,-0.3975 -0.7225,-0.7025 -1.0787,-1.05875 -0.1725,-0.1725 -0.335,-0.4225 -0.55,-0.5225 -0.2063,-0.09375 -0.5,-0.0625 -0.7525,-0.0625"
       id="path2560"
       style="fill:#c4c4c4;fill-opacity:1;fill-rule:nonzero;stroke:none" />
    <path
       d="m 37.4022,11.6595 c -0.2262,0.13125 -0.5062,0.4925 -0.685,0.685 -0.1325,0.14125 -0.2612,0.2825 -0.3912,0.42125 -0.2638,0.26875 -0.815,0.73 -0.345,1.06 0.195,0.13625 0.5187,0.2475 0.7325,0.185 0.1725,-0.08 0.335,-0.095 0.485,-0.2225 0.1487,-0.125 0.2487,-0.30875 0.3487,-0.4675 0.1175,-0.1775 0.5125,-0.73125 0.6113,-0.8175 0.2037,-0.18 0.5037,-0.31625 0.3037,-0.68 -0.0887,-0.165 -0.8462,-0.28625 -1.06,-0.16375"
       id="path2564"
       style="fill:#c4c4c4;fill-opacity:1;fill-rule:nonzero;stroke:none" />
    <path
       d="m 74.7935,11.679 c -0.2,0.08625 -0.8988,0.33125 -0.8863,0.53125 0.0213,0.29 0.4413,0.4175 0.6963,0.505 0.1925,0.0675 0.365,0.17625 0.5425,0.2675 0.3625,0.1925 0.7275,0.38375 1.0887,0.57625 0.5763,0.29 1.1525,0.58 1.7288,0.87 0.835,0.44 1.6862,0.845 2.555,1.20625 0.8925,0.37125 1.805,0.815 2.79,0.99625 0.8362,0.15375 1.8062,0.10875 2.7287,0.10875 0.0738,-0.0062 0.1488,-0.01 0.2213,-0.015 0.1237,-0.005 0.2462,-0.01 0.37,-0.015 0.065,-0.005 0.1275,-0.01 0.1912,-0.01375 0.0388,-0.0075 0.0788,-0.01 0.1188,-0.01625 0.0387,-0.005 0.0787,-0.0087 0.1187,-0.015 0.0288,-0.005 0.0563,-0.0087 0.0863,-0.015 0.0875,-0.03875 0.1775,-0.07875 0.2675,-0.11625 0.205,-0.145 0.6862,-0.6425 0.4837,-0.89875 -0.19,-0.235 -0.9937,-0.29125 -1.31,-0.36125 -0.6912,-0.15125 -1.3775,-0.3125 -2.0512,-0.48125 -2.4388,-0.61 -4.78,-1.40625 -7.1125,-2.1975 -0.6,-0.22 -1.2013,-0.44 -1.8013,-0.66125 -0.2662,-0.09875 -0.5225,-0.245 -0.8262,-0.255"
       id="path2568"
       style="fill:#c4c4c4;fill-opacity:1;fill-rule:nonzero;stroke:none" />
    <path
       d="m 31.5328,12.269 c -0.4575,0.02 -2.1062,0.9725 -2.7625,1.24625 -1.84,0.7825 -3.7587,1.44625 -5.6787,2.08625 -0.5088,0.155 -1.02,0.31125 -1.53,0.46375 -0.3188,0.09 -0.7,0.14125 -0.9838,0.29875 -0.0837,0.04375 -0.155,0.12 -0.1687,0.21625 -0.0288,0.17125 0.115,0.305 0.235,0.395 0.1462,0.1075 0.2862,0.2325 0.4562,0.29625 0.2663,0.09625 0.5763,0.09 0.8875,0.105 0.7263,0.03375 2.17,0.26125 3.1125,-0.15125 0.8675,-0.3775 4.535,-2.30875 5.5025,-2.8325 0.4563,-0.25625 2.46,-1.19125 2.4325,-1.56125 -0.0437,-0.58375 -0.9837,-0.5625 -1.5025,-0.5625"
       id="path2572"
       style="fill:#c4c4c4;fill-opacity:1;fill-rule:nonzero;stroke:none" />
    <path
       d="m 72.9501,12.87488 c -0.165,0.10875 -0.6025,0.44125 -0.5463,0.6675 0.065,0.25125 0.88,0.6275 1.0138,0.725 1.245,0.935 2.4862,1.8625 3.785,2.70625 0.715,0.4625 1.4412,0.9475 2.2362,1.24625 0.7763,0.29125 1.7,0.3925 2.6163,0.3925 0.0525,-0.0038 0.1075,-0.0088 0.1625,-0.0125 0.0762,-0.03375 0.1537,-0.06375 0.2312,-0.095 0.2138,-0.1325 0.7225,-0.56625 0.5675,-0.8425 -0.0387,-0.06625 -0.1037,-0.11375 -0.1712,-0.145 -0.1888,-0.06375 -0.3775,-0.12875 -0.5663,-0.19375 -0.3262,-0.11875 -0.6537,-0.24 -0.9787,-0.3575 -1.0113,-0.40625 -1.9975,-0.8475 -2.9788,-1.3175 -1.345,-0.64625 -2.6675,-1.32875 -3.965,-2.04375 -0.4062,-0.23125 -0.8112,-0.465 -1.215,-0.6975 -0.0337,-0.0087 -0.0687,-0.0175 -0.1025,-0.02875 -0.0312,0 -0.0575,-0.0025 -0.0887,-0.0038"
       id="path2576"
       style="fill:#c4c4c4;fill-opacity:1;fill-rule:nonzero;stroke:none" />
    <path
       d="m 71.003,13.73075 c -0.0763,0.03875 -0.1463,0.0775 -0.2,0.1525 -0.095,0.1325 -0.1275,0.3125 -0.1875,0.46375 -0.0588,0.13625 -0.12,0.26875 -0.1813,0.4025 -0.0187,0.075 -0.02,0.165 0.0113,0.2325 0.0775,0.155 0.2825,0.15875 0.42,0.23 0.1175,0.06 0.225,0.14 0.325,0.2325 0.9087,0.85625 1.7637,1.75875 2.6837,2.56875 0.3413,0.30375 0.64,0.67875 1.0288,0.88625 0.3112,0.16875 0.6887,0.25 1.04,0.34125 0.5437,0.13875 1.0725,0.33125 1.685,0.33125 0.2225,-0.11125 0.8837,-0.315 0.7725,-0.675 -0.005,-0.01375 -0.0113,-0.0275 -0.0188,-0.04125 C 78.368,18.8345 78.353,18.81075 78.338,18.7895 78.1142,18.542 77.778,18.41575 77.508,18.247 77.0017,17.93325 76.5105,17.60325 76.0142,17.277 74.8067,16.482 73.663,15.5695 72.498,14.69575 72.068,14.37325 71.7755,13.872 71.238,13.747 71.2067,13.74325 71.1792,13.74075 71.1492,13.7345 71.1255,13.732 71.1017,13.732 71.0767,13.732 71.0505,13.7308 71.0292,13.7308 71.003,13.7308"
       id="path2580"
       style="fill:#c4c4c4;fill-opacity:1;fill-rule:nonzero;stroke:none" />
    <path
       d="m 33.4967,13.74375 c -0.33,0.0925 -7.8762,4.2275 -7.985,4.40625 -0.1812,0.2925 0.3763,0.74625 0.6538,0.8075 0.4137,0.09125 2.7,-0.13 3.6912,-0.72125 0.2888,-0.21625 3.705,-2.90125 3.9738,-3.125 0.3275,-0.28 1.395,-0.8325 1.2762,-1.065 -0.135,-0.26375 -1.2987,-0.40125 -1.61,-0.3025"
       id="path2584"
       style="fill:#c4c4c4;fill-opacity:1;fill-rule:nonzero;stroke:none" />
    <path
       d="m 35.607,14.7925 c -0.2088,-0.02625 -1.4113,1.465 -4.2763,3.47 -0.2462,0.17 -0.805,0.5275 -0.9275,0.78125 -0.1787,0.495 0.6388,0.61875 0.9388,0.61875 0.0687,-0.0063 1.6225,-0.205 2.3437,-0.62375 0.3313,-0.19375 3.5513,-3.43 3.6513,-3.5725 0.045,-0.06375 0.0787,-0.3925 0.065,-0.42125 -0.17,-0.2575 -0.705,-0.08 -1.0063,-0.11875 -0.2312,-0.0325 -0.5612,-0.09875 -0.7887,-0.13375"
       id="path2588"
       style="fill:#c4c4c4;fill-opacity:1;fill-rule:nonzero;stroke:none" />
    <path
       d="m 68.7592,14.80725 c -0.2812,0.0875 -0.5537,0.42125 -0.4275,0.75375 0.0663,0.17875 0.2588,0.21625 0.3938,0.32875 0.1262,0.11 0.2187,0.235 0.3112,0.36625 0.575,0.795 1.1438,1.60125 1.76,2.37125 0.2363,0.2925 0.4788,0.665 0.8025,0.89125 0.4188,0.295 1.255,0.58625 1.8238,0.58625 0.2037,-0.1025 0.7087,-0.12125 0.7187,-0.43125 0,-0.0125 0,-0.0275 -0.0025,-0.04125 -0.0337,-0.295 -0.5775,-0.68 -0.7925,-0.8825 -0.8537,-0.81875 -1.7062,-1.6375 -2.5625,-2.45625 -0.1775,-0.18125 -0.3562,-0.36125 -0.535,-0.54125 -0.165,-0.1875 -0.3037,-0.395 -0.5062,-0.55625 -0.2688,-0.2175 -0.6075,-0.3775 -0.9838,-0.38875"
       id="path2592"
       style="fill:#c4c4c4;fill-opacity:1;fill-rule:nonzero;stroke:none" />
    <path
       d="m 34.9048,21.05725 c -0.13,0.045 -0.085,0.27875 -0.0487,0.39875 0.0637,0.21 0.9025,1.5775 1.2737,2.12625 0.3188,0.4725 0.6238,0.9575 1.0025,1.4 1.4313,1.68 3.16,3.17125 5.02,4.1275 0.2838,0.1425 1.8313,0.9475 2.1825,0.915 0.0738,-0.0063 0.0988,-0.0775 0.085,-0.12 -0.0237,-0.08875 -0.1012,-0.14125 -0.1737,-0.1875 -0.3513,-0.165 -0.7038,-0.33125 -1.0563,-0.49625 -0.6062,-0.28625 -1.2037,-0.6325 -1.7725,-1 -1.3337,-0.865 -2.5637,-1.88875 -3.6962,-3.135 -0.5175,-0.56875 -0.8638,-1.1575 -1.3325,-1.8375 -0.4425,-0.63875 -1.03,-1.81 -1.1788,-2.05125 -0.0775,-0.1275 -0.1862,-0.21 -0.305,-0.14"
       id="path2596"
       style="fill:#c4c4c4;fill-opacity:1;fill-rule:nonzero;stroke:none" />
    <path
       d="m 70.649,21.19538 c -0.15,0.08 -0.9925,1.64 -1.7175,2.69375 -0.8063,1.1675 -1.825,2.2925 -2.9513,3.2 -0.9412,0.76 -1.8612,1.31375 -2.9087,1.86125 -0.6563,0.31875 -1.4825,0.69125 -1.6375,0.8225 -0.2075,0.17125 -0.1025,0.30375 0.14,0.30375 0.2125,-0.08875 1.1775,-0.4925 2.15,-1.02875 2.0462,-1.1275 4.125,-2.99125 5.5512,-4.93375 0.6138,-0.83875 1.4438,-2.405 1.5338,-2.62375 0.07,-0.17125 0.0312,-0.27625 -0.16,-0.295"
       id="path2600"
       style="fill:#c4c4c4;fill-opacity:1;fill-rule:nonzero;stroke:none" />
    <path
       d="m 44.8705,2.545 c 0,0 -0.2088,-0.39 0.2462,-0.6175 0.46,-0.22875 3.8675,-1.32 7.8963,-1.32 4.425,0 8.27,1.43375 8.4937,1.61625 0.305,0.2475 0.0275,0.70875 -0.3162,0.64 -0.34,-0.0675 -3.8275,-1.5475 -8.1313,-1.5475 -4.3037,0 -7.31,1.1425 -7.575,1.2975 C 45.1692,2.79625 44.8705,2.545 44.8705,2.545"
       id="path2604"
       style="fill:#c4c4c4;fill-opacity:1;fill-rule:evenodd;stroke:none" />
    <path
       d="m 40.2091,16.40975 c 0,-5.28625 5.6562,-9.57125 12.635,-9.57125 6.98,0 12.6375,4.285 12.6375,9.57125 0,5.2875 -5.6575,9.5725 -12.6375,9.5725 -6.9788,0 -12.635,-4.285 -12.635,-9.5725 z"
       id="path2608"
       style="fill:#000000;stroke:#c4c4c4;stroke-width:0.58499998;stroke-linecap:butt;stroke-linejoin:miter;stroke-miterlimit:3.86400008;stroke-opacity:1;stroke-dasharray:none" />
    <path
       d="m 64.1796,2.8285 c 0.1875,-0.055 0.37,-0.0125 0.495,0.1225 0.1187,0.13 0.085,0.34875 -0.0675,0.43375 -0.1238,0.06875 -0.2888,0.075 -0.4275,0.11125 -0.3563,0.0925 -1.58,0.27125 -1.6475,0.69625 -0.0363,0.245 0.2875,0.52875 0.4112,0.61625 0.1688,0.1475 -0.1237,-0.13 0.045,0.0175 0.2463,0.21625 0.795,0.595 0.4988,0.98375 -0.0725,0.09375 -0.1913,0.1375 -0.3138,0.125 -0.5837,-0.05875 -1.38,-1.2175 -1.4487,-1.40875 -0.0838,-0.2375 -0.05,-0.48125 0.085,-0.6775 0.4562,-0.65375 1.6687,-0.78 2.37,-1.02"
       id="path2624"
       style="fill:#0c0c0c;fill-opacity:1;fill-rule:nonzero;stroke:none" />
    <path
       d="m 73.9171,4.71363 c -0.0313,0.49625 1.39,0.395 1.7362,0.42625 0.5138,0.04625 1.5138,0.41625 1.705,0.245 0.2313,-0.20625 0.4775,-1.18375 0.0625,-1.2025 -0.6025,-0.025 -0.83,0.0425 -1.5012,0.09375 -0.69,0.0425 -1.9713,-0.04625 -2.0025,0.4375"
       id="path2628"
       style="fill:#c4c4c4;fill-opacity:1;fill-rule:nonzero;stroke:none" />
    <path
       d="m 31.8442,4.886 c 0.02,0.3425 -1.4337,0.33875 -1.7787,0.37 -0.5125,0.04625 -1.3338,0.39875 -1.61,0.09375 C 28.2467,5.121 27.9792,4.4535 28.3967,4.436 c 0.6,-0.02625 1.0238,0.015 1.6925,0.06625 0.6938,0.0425 1.7238,-0.1125 1.755,0.38375"
       id="path2632"
       style="fill:#c4c4c4;fill-opacity:1;fill-rule:nonzero;stroke:none" />
    <path
       d="m 42.8566,2.7275 c 0.68,0.17 1.0687,0.15125 1.4612,0.79125 0.1975,0.3175 0.21,0.82625 -0.1212,1.26625 -0.2138,0.2875 -0.295,0.3775 -0.53,0.66375 -0.24,0.29 -0.2688,0.48625 -0.675,0.545 -0.135,0.02 -0.2513,-0.0125 -0.3263,-0.12125 -0.2687,-0.38875 0.3025,-0.86 0.6038,-1.2 0.115,-0.13 0.375,-0.51625 0.3325,-0.6775 -0.08,-0.53125 -0.7175,-0.5225 -1.14,-0.65375 -0.155,-0.05 -0.5875,-0.13 -0.7238,-0.21625 -0.1637,-0.10375 -0.115,-0.30375 -0.0175,-0.4525 0.0763,-0.11625 0.4713,-0.10125 1.1363,0.055"
       id="path2636"
       style="fill:#0c0c0c;fill-opacity:1;fill-rule:nonzero;stroke:none" />
    <path
       d="m 72.8335,4.545 c 0.1462,0.0375 0.3312,0.04125 0.36,0.22 C 73.226,4.9875 73.0572,5.19875 72.606,5.24875 72.2922,5.21625 71.6585,4.65625 71.4122,5.15 71.201,5.5675 72.5297,5.73375 72.4697,6.1475 72.4222,6.49375 72.296,6.55 71.9897,6.55 71.851,6.5575 71.5235,6.3575 71.4122,6.31625 c -0.305,-0.14125 -1.0275,-0.715 -1.3,-0.255 -0.2687,0.455 1.5663,1.0725 1.5175,1.4275 C 71.581,7.825 71.2435,8.09 70.9885,8.0025 c -0.3525,-0.085 -1.4813,-1.41 -1.9938,-0.89 -0.4725,0.48 1.415,1.32125 1.3213,1.61375 -0.16,0.49125 -0.59,0.6375 -1.1888,0.14 -0.3125,-0.26 -0.805,-0.74375 -1.0862,-0.365 -0.3463,0.4675 0.6512,1.05625 0.7387,1.2125 0.2188,0.39375 -0.2837,0.84875 -0.615,0.77375 -0.3075,-0.04125 -0.7612,-1.20125 -1.1912,-0.8025 -0.33,0.30375 0.4762,1.0275 0.3925,1.31625 C 67.3322,11.27 66.6485,11.62375 66.331,11.375 65.8947,11.085 66.9235,9.5775 65.9135,8.15625 65.4247,7.5525 65.0272,6.615 64.9997,6.45 64.961,6.16125 64.9822,5.665 65.1672,5.4175 65.8747,4.46875 69.0847,4.5325 70.456,4.46875 71.3747,4.425 71.8922,4.545 72.8335,4.545"
       id="path2640"
       style="fill:#c4c4c4;fill-opacity:1;fill-rule:nonzero;stroke:none" />
    <path
       d="m 32.7131,4.685 c -0.185,0 -0.345,0.04 -0.3725,0.225 -0.035,0.2275 -0.0013,0.58875 0.3837,0.59875 0.4538,0.0075 1.0075,-0.59625 1.2725,-0.215 0.3,0.43 -1.25,0.68875 -1.0025,1.21125 0.3188,0.6675 0.9475,0.05625 1.0625,0.015 0.3125,-0.14625 1.2875,-1.015 1.6838,-0.4425 0.3512,0.50375 -1.25,1.235 -1.4438,1.475 -0.055,0.07 -0.1687,0.4475 -0.125,0.54 0.35,0.7775 1.2338,0.0325 1.8263,-0.61625 0.22,-0.24125 0.38,-0.37375 0.6,-0.43125 0.3037,-0.07875 0.5687,-0.01875 0.65,0.25375 0.0487,0.155 0.0025,0.3375 -0.1113,0.44375 -0.1237,0.11875 -1.5037,1.115 -1.4575,1.4125 0.095,0.60375 0.46,0.68375 0.7275,0.555 0.2875,-0.1275 1.095,-1.49875 1.5713,-1.3175 0.1262,0.04875 0.2837,0.07 0.3337,0.19125 0.07,0.16625 0.0425,0.39875 -0.0625,0.53875 -0.1337,0.18 -0.3862,0.41625 -0.5562,0.56625 -0.145,0.1275 -0.3063,0.27875 -0.3925,0.4375 -0.225,0.40375 0.1087,0.58875 0.4775,0.58875 0.13,0 0.2,-0.0725 0.29,-0.15 0.225,-0.19125 0.4587,-1.04375 0.915,-0.81625 0.4775,0.24 -0.4063,0.915 -0.3188,1.39375 0.13,0.36125 0.7038,0.435 0.8625,0.16625 0.175,-0.42875 0.0713,-1.09 0.2475,-1.835 C 39.9456,8.80625 40.4256,7.785 40.6568,7.3825 40.8043,7.145 40.9831,6.95875 41.0506,6.675 41.0556,6.655 41.0593,6.63625 41.0631,6.61625 41.1018,6.3175 40.9131,6.07125 40.7106,5.88875 40.3781,5.585 39.9293,5.39875 39.5131,5.26 38.2856,4.85125 36.9718,4.81375 35.5643,4.74875 34.6181,4.7025 33.6781,4.685 32.7131,4.685"
       id="path2644"
       style="fill:#c4c4c4;fill-opacity:1;fill-rule:nonzero;stroke:none" />
    <path
       d="m 65.7948,12.331 c 0.1725,-0.34875 0.9563,0.03375 1.0288,0.1 0.2162,0.19 0.29,0.50125 0.45,0.72875 0.1962,0.28 0.7062,0.8725 0.6775,1.19 -0.0238,0.2575 -1.015,1.02625 -1.2313,0.845 -0.0062,-0.0063 -0.0112,-0.015 -0.0212,-0.0225 -0.1463,-0.9575 -0.4625,-1.8775 -0.9263,-2.73875 0,-0.0375 0.01,-0.0725 0.0225,-0.1025"
       id="path2648"
       style="fill:#c4c4c4;fill-opacity:1;fill-rule:nonzero;stroke:none" />
    <path
       d="m 66.8676,15.678 c 0.2725,0 0.7375,0.10625 0.9262,0.2725 0.1563,0.13625 0.235,0.34125 0.3463,0.51 l 0.575,0.81125 1.335,1.79375 0.6112,0.78875 c 0.1138,0.19375 0.0825,0.3375 -0.0862,0.47125 l -0.1038,0.01375 c -0.6212,0 -1.5862,-0.23125 -2.0087,-0.60375 -0.2113,-0.1875 -0.3238,-0.41 -0.4588,-0.63375 L 67.3513,17.8955 c -0.105,-0.18 -0.48,-0.73125 -0.5462,-0.9275 -0.0075,-0.0225 -0.0175,-0.0525 -0.025,-0.0875 0.01,-0.15625 0.0137,-0.3125 0.0137,-0.47125 0,-0.20875 -0.0075,-0.4175 -0.0225,-0.625 0.0225,-0.06 0.0538,-0.1 0.0963,-0.10625"
       id="path2652"
       style="fill:#c4c4c4;fill-opacity:1;fill-rule:nonzero;stroke:none" />
    <path
       d="m 37.4671,16.28013 c 0.3575,-0.495 0.8225,-0.90375 1.2562,-0.8375 0.1,0.0038 0.1725,0.04125 0.22,0.0975 -0.0325,0.28625 -0.0475,0.5775 -0.0475,0.87 l 0.0038,0.135 -0.0113,0.03 c -0.1225,0.43875 -0.1675,0.3375 -0.4637,0.91125 -0.45,0.86875 -0.9413,2.11125 -1.2313,2.245 -0.4225,0.195 -1.0662,0.17125 -1.5312,0.2875 -0.665,0.16875 -1.1375,-0.0038 -1.1375,-0.31375 0.0025,-0.3975 2.6762,-3.0225 2.9425,-3.425"
       id="path2656"
       style="fill:#c4c4c4;fill-opacity:1;fill-rule:nonzero;stroke:none" />
    <path
       d="m 37.6431,20.38388 c 0.3912,0.0375 0.515,0.55875 0.9762,0.66875 0.2925,0.07 0.6313,-0.0875 0.8613,-0.22 0.1487,-0.08625 0.3562,-0.25625 0.5537,-0.235 1.325,2.3225 3.7188,4.21375 6.7125,5.3175 0.0063,0.0125 0.0113,0.02375 0.0175,0.03625 0.0238,0.11625 -0.01,0.2125 -0.05,0.26125 -0.1575,0.18 -1.6812,2.5775 -1.9925,2.6525 -0.2725,0.09625 -1.3187,-0.57375 -1.695,-0.77875 -1.9862,-1.075 -3.865,-2.515 -5.3187,-4.3875 -0.46,-0.58875 -1.7588,-2.1 -1.7438,-2.72375 0.0125,-0.44 1.4488,-0.60125 1.6788,-0.59125"
       id="path2660"
       style="fill:#c4c4c4;fill-opacity:1;fill-rule:nonzero;stroke:none" />
    <path
       d="m 68.1608,20.73963 c 0.165,-0.06625 1.3513,0.3725 1.3713,0.66375 -0.0113,0.24 -0.7375,1.2575 -1.5513,2.34875 -1.4262,1.915 -3.195,3.21125 -5.1712,4.3125 -0.425,0.23625 -0.8763,0.45125 -1.3263,0.6375 l -0.3812,0.15 c -0.1188,0 -0.2263,-0.03125 -0.3013,-0.11125 -0.1525,-0.1575 -1.6937,-2.455 -1.7662,-2.55375 -0.0588,-0.07875 -0.0425,-0.21375 0.0125,-0.3075 2.8087,-1.06125 5.08,-2.815 6.4212,-4.9675 0.2263,-0.0625 0.6225,0.2775 0.795,0.3625 0.3,0.1475 0.6788,0.29625 1.0488,0.19375 0.3875,-0.10625 0.545,-0.59 0.8487,-0.72875"
       id="path2664"
       style="fill:#c4c4c4;fill-opacity:1;fill-rule:nonzero;stroke:none" />
    <path
       d="m 54.9361,26.85913 c 0.1562,0.0925 0.2375,0.26875 0.2962,0.3875 0.1188,0.2425 0.495,2.42875 0.6913,3.2825 0.06,0.28375 0.1387,0.7225 0.0925,1.02125 -0.04,0.26125 -0.3425,0.62625 -0.6575,0.66875 -0.2613,0.03875 -0.7838,-0.35625 -0.8725,-0.55375 -0.115,-0.26125 -0.0963,-0.58125 -0.1238,-0.88625 -0.0687,-0.92 -0.2037,-3.13625 -0.2037,-3.37375 0,-0.14 0.0462,-0.35625 0.1925,-0.49 0.1962,-0.01625 0.3912,-0.03375 0.585,-0.05625"
       id="path2668"
       style="fill:#c4c4c4;fill-opacity:1;fill-rule:nonzero;stroke:none" />
    <path
       d="m 56.7372,26.559 c 0.0838,0.07375 0.1463,0.165 0.1963,0.23125 0.165,0.225 0.935,2.36625 1.2837,3.1975 0.1138,0.27375 0.2713,0.705 0.2763,1.01375 0.0062,0.2725 -0.2338,0.695 -0.5425,0.7925 -0.26,0.08625 -0.8563,-0.2175 -0.98,-0.40375 -0.165,-0.2425 -0.2025,-0.56875 -0.2863,-0.87375 -0.2325,-0.9175 -0.765,-3.1325 -0.8075,-3.37125 -0.02,-0.11375 -0.0187,-0.28125 0.0463,-0.4275 0.2762,-0.04625 0.545,-0.1 0.8137,-0.15875"
       id="path2672"
       style="fill:#c4c4c4;fill-opacity:1;fill-rule:nonzero;stroke:none" />
    <path
       d="m 58.3823,26.11075 c 0.1075,0.06625 0.1925,0.16 0.26,0.23 0.19,0.2025 1.2163,2.235 1.6638,3.01625 0.1437,0.25875 0.355,0.66625 0.4,0.9725 0.0362,0.26875 -0.15,0.71625 -0.445,0.85375 -0.2463,0.115 -0.8763,-0.11375 -1.0225,-0.2825 -0.1925,-0.22125 -0.2688,-0.54 -0.3888,-0.8325 -0.3437,-0.8825 -1.1412,-3.01625 -1.2125,-3.24875 -0.0387,-0.12375 -0.0575,-0.32 0.015,-0.4875 0.2463,-0.06875 0.4913,-0.14125 0.73,-0.22125"
       id="path2676"
       style="fill:#c4c4c4;fill-opacity:1;fill-rule:nonzero;stroke:none" />
    <path
       d="m 53.1317,26.97388 c 0.1425,0.11375 0.2,0.29625 0.245,0.41875 0.0888,0.2575 0.1975,2.47375 0.285,3.34625 0.0263,0.28625 0.0525,0.73375 -0.03,1.0225 -0.0737,0.255 -0.4162,0.58 -0.7337,0.585 -0.265,0.0037 -0.7375,-0.44875 -0.7988,-0.65625 -0.085,-0.27375 -0.0237,-0.58875 -0.0162,-0.8975 0.045,-0.92 0.1775,-3.13625 0.2075,-3.37 0.0162,-0.135 0.0837,-0.3325 0.2312,-0.44875 0.11,0.0025 0.2175,0.0025 0.3225,0.0025 0.0963,0 0.1925,0 0.2875,-0.0025"
       id="path2680"
       style="fill:#c4c4c4;fill-opacity:1;fill-rule:nonzero;stroke:none" />
    <path
       d="m 51.4643,26.92575 c 0.115,0.13125 0.1425,0.3175 0.165,0.44125 0.0488,0.26875 -0.1912,2.4725 -0.2387,3.35 -0.0213,0.28625 -0.065,0.7325 -0.1913,1.005 -0.1137,0.24 -0.5025,0.5075 -0.815,0.4625 -0.265,-0.03625 -0.6562,-0.56 -0.6862,-0.77375 -0.04,-0.285 0.0675,-0.585 0.1225,-0.8875 0.1887,-0.9025 0.6687,-3.07125 0.7337,-3.2975 0.0313,-0.1125 0.11,-0.2625 0.2338,-0.3625 0.2237,0.02375 0.45,0.045 0.6762,0.0625"
       id="path2684"
       style="fill:#c4c4c4;fill-opacity:1;fill-rule:nonzero;stroke:none" />
    <path
       d="m 49.784,26.72025 c 0.1412,0.15875 0.135,0.38625 0.1375,0.53375 0,0.2725 -0.6188,2.40125 -0.82,3.255 -0.07,0.28125 -0.19,0.71125 -0.3625,0.96 -0.1525,0.215 -0.5813,0.41125 -0.8813,0.3125 -0.2525,-0.0825 -0.5512,-0.66375 -0.5437,-0.88125 0.01,-0.28625 0.1687,-0.56375 0.2787,-0.8525 0.34,-0.85625 1.1888,-2.9075 1.2925,-3.12 0.0538,-0.105 0.1563,-0.2425 0.3,-0.32125 0.195,0.04375 0.3963,0.08 0.5988,0.11375"
       id="path2688"
       style="fill:#c4c4c4;fill-opacity:1;fill-rule:nonzero;stroke:none" />
    <path
       d="m 48.1387,26.35975 c 0.1,0.175 0.0588,0.385 0.0388,0.52375 -0.04,0.2675 -0.985,2.27625 -1.3175,3.08875 -0.1125,0.26625 -0.3,0.6725 -0.5075,0.88875 -0.185,0.19125 -0.6413,0.31625 -0.9225,0.1725 -0.235,-0.12125 -0.4375,-0.7425 -0.3963,-0.95625 0.0538,-0.28 0.2538,-0.53 0.4075,-0.7975 0.47,-0.7925 1.6288,-2.685 1.765,-2.88 0.0563,-0.08 0.15,-0.17625 0.2675,-0.235 0.2188,0.07 0.4425,0.13375 0.665,0.195"
       id="path2692"
       style="fill:#c4c4c4;fill-opacity:1;fill-rule:nonzero;stroke:none" />
    <path
       d="m 39.2475,12.25225 c 0.2312,-0.0575 0.6912,-0.23375 0.7762,-0.0075 -0.4925,0.86375 -0.8337,1.78625 -1.0037,2.75 -0.1788,0.10375 -0.6288,-0.1575 -1.09,-0.35125 -0.6238,-0.26625 0.3062,-0.795 0.63,-1.2725 0.175,-0.25875 0.465,-0.94125 0.6875,-1.11875"
       id="path2696"
       style="fill:#c4c4c4;fill-opacity:1;fill-rule:nonzero;stroke:none" />
    <path
       d="m 38.9622,17.47688 c 0.1263,0.91625 0.4,1.795 0.81,2.625 -0.0912,0.16875 -1.01,0.5175 -1.5062,0.09875 -0.28,-0.34625 0.3787,-2.76375 0.6962,-2.72375"
       id="path2700"
       style="fill:#c4c4c4;fill-opacity:1;fill-rule:nonzero;stroke:none" />
    <path
       d="m 102.4748,1.8085 c 0.2263,0 0.4263,0 0.6038,0.09125 0.245,0.125 0.9687,0.8425 0.9612,1.13125 -0.005,0.15375 -0.9087,0.43625 -1.315,0.59 -0.3025,0.13625 -0.9837,0.40875 -1.1,0.44625 -0.0762,0.0275 -0.6175,0.0325 -0.7075,0.03 -0.1225,0.00375 -0.9662,0.0125 -1.32,0.0125 -0.1425,0.005 -2.7125,0.0725 -3.5862,0.0725 -0.9713,0 -1.925,0.0225 -2.8925,0.0225 -0.2163,0 -1.3213,0.0175 -1.3863,0.025 l -4.1462,0 -0.8988,0 -0.3537,0.01375 -0.2213,0.01375 -2.67,0 c -0.2025,0 -1.5525,0.04 -2.155,0.075 -0.8312,0.06875 -2.0562,0.1725 -2.11,0.17625 -0.1625,0 -0.4875,0.06125 -0.5362,-0.12 -0.0513,-0.19375 0.35,-0.285 0.4762,-0.30875 1.4863,-0.2925 2.9775,-0.64875 4.66,-0.85875 2.7988,-0.35125 4.1463,-0.39375 4.6025,-0.52875 0.265,-0.08125 0.2113,-0.42625 0,-0.4525 -3.0012,-0.35375 -9.7137,0.9625 -10.6775,1.1625 -1.79,0.38625 -3.1162,0.4825 -3.5575,0.48625 l -4.1737,0 c -2.3213,-0.00375 -3.3263,0.25125 -3.485,0.2825 -0.4488,0.1025 -0.8725,0.24375 -1.2713,0.45 -0.845,0.43375 -1.3825,0.96875 -1.0262,1.98375 0.1262,0.21875 0.2462,0.52 0.3687,0.73875 0.2875,0.57125 0.6575,1.275 0.9563,1.83375 0.2162,0.3975 0.35,0.89625 0.35,1.395 l -0.12,0.62 c -0.0075,0.10625 -0.2675,0.56375 -0.4038,0.4825 -0.0137,-0.01 -0.0375,-0.03625 -0.0687,-0.07125 -0.1638,-0.24 -0.3375,-0.47625 -0.5225,-0.705 -0.06,-0.08375 -0.1075,-0.15125 -0.1288,-0.17625 -0.2162,-0.2825 0.4088,-0.66875 0.3513,-1.0275 C 64.8536,8.9835 63.8086,7.62225 63.0236,6.9735 62.5636,6.5935 62.1373,6.08975 61.7286,5.62475 61.5598,5.3935 61.3711,5.20225 61.1998,4.9735 61.0498,4.771 60.9798,4.64475 60.9186,4.39725 60.7998,3.9035 61.0961,3.6035 61.4148,3.34975 c 0.19,-0.15125 0.55,-0.37625 0.8438,-0.49625 0.7925,-0.32625 2.6512,-0.65625 3.7512,-0.8 0.365,-0.03625 1.2575,-0.1425 1.925,-0.15625 0.745,0 1.455,0.0225 2.1525,0.07625 1.36,0.10625 2.6888,0.36 4.1025,0.38 2.0575,0.0325 4.0375,-0.09625 6.0338,-0.1925 0.89,-0.0425 1.8287,-0.10125 2.7812,-0.18125 1.4613,-0.125 5.9163,-0.06875 6.5738,-0.0275 0.3237,0.01875 3.2737,0.14 4.765,0.255 0.3312,0.025 0.6,0.05625 0.8137,0.09375 0.655,-0.01375 1.305,0.015 1.9463,-0.02375 1.1987,-0.07625 2.4012,-0.20875 3.585,-0.30375 l 1.7862,-0.165 z"
       id="path2704"
       style="fill:#c4c4c4;fill-opacity:1;fill-rule:nonzero;stroke:none" />
    <path
       d="m 19.959,1.69188 c 1.9025,0 3.585,0.16 5.4225,0.24875 0.9437,0.0425 1.8575,0.0625 2.8012,0.10625 0.9513,0.045 1.9275,0.1175 2.895,0.1175 1.735,0 3.37,-0.1125 5.0588,-0.19125 l 1.2987,-0.00375 c 0.81,-0.01375 1.705,-0.0475 2.5238,0.03125 0.51,0.0475 1.025,0.05125 1.5187,0.10875 0.6713,0.0775 1.8313,0.215 2.3188,0.435 0.45,0.2 0.7775,0.50375 0.95,0.695 0.3312,0.365 0.825,0.935 0.5487,1.365 -0.1137,0.21625 -0.43,0.53125 -0.595,0.72125 -0.22,0.24625 -1.9387,1.67375 -2.3662,2.28125 -0.3875,0.54125 -0.5,0.94875 -0.7388,1.37375 -0.3262,0.54625 0.0325,0.9525 -0.0875,1.2725 -0.355,0.3775 -0.6812,0.77125 -0.9725,1.18375 -0.0637,0.035 -0.12,0.04625 -0.165,0.01375 -0.295,-0.20625 -0.2375,-0.6475 -0.1662,-1.22 0.0312,-0.43125 0.3775,-1.3225 0.5037,-1.5525 0.2425,-0.4575 1.025,-1.4175 1.0875,-1.59125 0.5013,-1.405 -0.895,-2.27375 -1.9562,-2.62 C 39.4865,4.35188 39.134,4.22063 38.764,4.15313 37.3965,3.90563 35.9315,3.93313 34.4565,3.88688 33.4427,3.85563 32.374,3.81563 31.3415,3.81563 l -2.2288,-0.005 C 28.4015,3.75438 27.6815,3.71313 27.0177,3.55563 25.8802,3.28563 24.9265,3.03813 23.789,2.78688 22.8215,2.57438 21.7765,2.38938 20.7427,2.32438 20.039,2.28063 18.814,2.20313 18.084,2.20313 c -0.5375,0 -4.5188,-0.04125 -5.1075,0.1225 -0.2038,0.04 -0.1713,0.42375 -0.0338,0.4575 0.765,0.21875 3.605,0.28125 5.4875,0.21625 1.1063,0.05375 2.3425,0.19125 3.3888,0.34125 1.3537,0.1925 2.6037,0.43875 3.8587,0.83625 l 1.34,0.35 c 0.2213,0.06875 0.51,0.21625 0.2075,0.42375 -0.8287,0 -1.595,-0.16125 -2.435,-0.17375 -2.115,0 -5.1662,-0.06375 -7.2875,-0.06375 C 17.2815,4.69938 6.9977,4.58938 5.7702,4.51938 4.404,4.44063 3.1727,3.78563 2.7127,3.55938 2.5377,3.48188 2.0227,3.08188 2.054,3.00313 c 0.0987,-0.25375 0.6587,-1.21 1.0975,-1.245 0.93,0.0875 2.0762,0.21125 3.035,0.25375 0,0 6.8687,-0.07625 7.0712,-0.09125 1.035,-0.08125 3.4938,-0.1875 4.5563,-0.20625 0.5887,-0.01 1.585,-0.0475 2.145,-0.0225"
       id="path2708"
       style="fill:#c4c4c4;fill-opacity:1;fill-rule:nonzero;stroke:none" />
    <path
       d="m 66.827,17.95225 c 0.3175,-0.04 0.9787,2.69875 0.5587,2.90625 -0.425,0.22625 -1.4362,-0.2925 -1.5537,-0.43 -0.0225,-0.02375 -0.035,-0.0525 -0.0375,-0.0825 0.3862,-0.7275 0.6675,-1.4925 0.8312,-2.28875 0.055,-0.05625 0.1175,-0.0875 0.2013,-0.105"
       id="path2712"
       style="fill:#c4c4c4;fill-opacity:1;fill-rule:nonzero;stroke:none" />
    <path
       d="m 53.0835,1.904 c -3.44,0 -7.1288,0.9725 -7.2663,1.1825 -0.3187,0.50125 0.3663,0.48125 0.3488,1.1775 -0.0213,0.8525 -0.6838,1.42375 -0.9138,1.67 C 44.376,6.864 43.2585,7.33775 42.486,8.3765 42.4272,8.454 42.3697,8.804 42.4485,8.9115 42.6522,9.184 43.131,8.88275 43.246,8.7915 44.871,7.52025 46.396,7.01025 48.2385,6.43775 48.696,6.294 51.0172,5.809 54.0122,5.93775 56.6597,6.0515 59.101,6.744 61.226,7.9915 62.0747,8.489 62.8322,9.10775 63.6372,9.7765 63.9297,10.02275 64.1585,9.66275 64.1685,9.529 64.1797,9.374 64.0535,9.15525 63.9735,9.02525 63.3622,8.004 62.0135,7.0815 61.0785,5.984 60.616,5.44025 60.3847,5.244 60.211,4.93275 59.6397,3.9665 60.5135,3.9115 60.4035,3.469 60.3185,3.1165 56.9297,1.904 53.0835,1.904"
       id="path2716"
       style="fill:#c4c4c4;fill-opacity:1;fill-rule:nonzero;stroke:none" />
    <path
       d="m 500.15625,92.21875 c -0.93383,0.543474 -2.51442,0.182539 -3.625,0.3125 -4.83172,0.637991 -9.66515,1.238901 -14.34375,2.125 -13.55093,2.516521 -26.59011,7.83306 -37.625,15.40625 -2.80055,1.92579 -6.01656,4.12219 -8.25,6.875 -0.0586,0.11815 -0.12423,0.21379 -0.21875,0.34375 -0.8034,1.33506 -2.20653,2.37873 -2.75,3.84375 -0.21266,0.59073 -0.41245,1.49463 -0.1875,2.15625 0.75614,2.16208 4.77276,5.86922 6.78125,7.0625 0.99243,0.60255 2.69063,1.74765 2.84375,3 0.21266,1.91397 -0.2256,3.748 -0.34375,5.4375 -0.0236,2.28023 -0.0312,4.56352 -0.0312,6.84375 l 0,33.59375 0,13.375 c -0.035,1.96123 -0.0654,3.89433 -0.125,5.84375 -0.25992,0.9688 -4.12199,4.67906 -5.03125,5.71875 -1.20509,1.38231 -1.82007,3.12873 -2.8125,4.59375 -0.0113,0.11815 -0.0777,0.20617 -0.125,0.3125 0.57939,0.54347 0.4733,1.58838 0.875,2.25 1.17012,1.92579 3.11338,3.97668 4.96875,5.40625 15.11047,11.80284 37.82819,18.31889 58.03125,19.9375 7.9867,0.62618 16.18774,0.0312 24.28125,0.0312 0.68525,-0.69706 5.71096,-0.6875 7.09375,-0.6875 0.64933,-0.63799 4.17829,-0.6875 5.3125,-0.6875 0.66162,-0.72069 2.86656,-0.71875 3.90625,-0.71875 0.4017,-0.41351 1.16222,-0.4375 1.8125,-0.4375 0.64933,-0.68525 2.21403,-0.6875 3.21875,-0.6875 0.47259,-0.53166 1.74386,-0.6875 2.5,-0.6875 0.46124,-0.49622 1.65478,-0.71875 2.375,-0.71875 0.46124,-0.50803 1.77978,-0.6875 2.5,-0.6875 0.72117,-0.79158 2.80796,-1.375 3.90625,-1.375 0.54347,-0.75614 1.54502,-0.86431 2.3125,-1.21875 1.94989,-0.94517 3.88718,-1.89858 5.8125,-2.84375 6.74664,-3.98154 12.80698,-9.37653 16.375,-16.40625 0.70888,-1.35868 1.71875,-2.67369 1.71875,-4.375 0.55482,-0.55529 0.6875,-1.63753 0.6875,-2.5 0.81474,-0.8034 0.6875,-2.66571 0.6875,-3.90625 0.89791,-1.01606 0.46113,-4.1093 0.4375,-5.5625 -0.20132,-13.81133 -10.95744,-27.12244 -22.9375,-32.25 -0.22495,-0.0945 -0.78125,-0.11088 -0.78125,-0.40625 0.87428,-0.60255 2.09216,-1.8125 3.25,-1.8125 0.88657,-1.32324 3.77813,-2.46716 5.125,-3.625 2.82323,-2.37475 9.625,-9.0646 9.625,-12.65625 0.47259,-0.44896 0.6875,-1.14669 0.6875,-1.84375 0.5671,-0.53166 0.71875,-1.55979 0.71875,-2.375 0.99243,-1.03969 0.6875,-3.7099 0.6875,-5.28125 0.88563,-0.95699 0.28278,-3.24499 0.0937,-4.34375 -1.20509,-6.58076 -3.88077,-12.09349 -8.40625,-16.9375 -1.0274,-1.09876 -2.17144,-1.89781 -3.1875,-2.9375 -3.2013,-3.31992 -7.39004,-5.44502 -11.3125,-7.40625 -11.01126,-5.505628 -23.81704,-8.436323 -37.15625,-9.0625 -6.48577,-0.01181 -12.9242,-0.03125 -19.375,-0.03125 z m 6.8125,12 c 7.55004,0 14.99969,0.64807 20.8125,4.0625 9.02639,5.29296 11.71053,16.22811 10.375,26.625 -0.82703,6.20269 -2.90286,12.16975 -7.59375,16.28125 -4.58409,4.00517 -10.52321,4.97785 -16.75,5.78125 -13.78723,1.7722 -28.04629,-3.00577 -31.96875,-16.25 -0.95746,-3.20177 -1.70274,-6.71323 -1.75,-10.28125 0.0822,-1.76038 0.16682,-3.56393 0.25,-5.3125 0.59073,-0.64981 0.6875,-2.29721 0.6875,-3.21875 0.47259,-0.47259 0.71875,-1.39669 0.71875,-2.09375 0.37807,-0.34262 0.6875,-0.97596 0.6875,-1.53125 0.27126,-0.24811 0.40625,-0.56705 0.40625,-0.96875 0.75614,-0.59073 2.125,-2.64438 2.125,-3.625 1.08695,-0.61436 1.67687,-1.81741 2.5625,-2.65625 2.38656,-2.23297 6.87101,-5 10.25,-5 0.33081,-0.37807 0.85516,-0.40625 1.375,-0.40625 0.72117,-0.77977 2.81464,-0.71875 3.9375,-0.71875 0.83837,-0.90973 2.8476,-0.1204 3.875,-0.6875 z m -1.78125,63.71875 c 9.26269,0 17.43254,0.14044 24.78125,3.53125 15.67757,7.24238 17.1271,33.32482 6.28125,45.28125 -7.85722,8.74284 -24.78063,10.27874 -36.40625,7.21875 -2.65782,-0.72069 -5.32457,-1.28994 -7.6875,-2.625 -3.13136,-1.80764 -5.61108,-4.14009 -7.75,-7.09375 -3.02455,-4.17057 -4.77133,-10.143 -5.03125,-15.625 -0.14178,-3.08362 0.28125,-6.16372 0.28125,-9.09375 0.57845,-0.5671 0.6875,-1.89515 0.6875,-2.78125 0.5085,-0.50803 0.6875,-1.47443 0.6875,-2.21875 0.46124,-0.37807 0.71875,-1.07314 0.71875,-1.6875 0.50756,-0.43714 1.09375,-1.50568 1.09375,-2.25 1.24101,-0.93336 2.05093,-2.79071 2.9375,-4.03125 1.01606,-1.41776 5.00982,-4.71875 6.6875,-4.71875 0.57845,-0.74432 2.12495,-1.40625 3.09375,-1.40625 0.43667,-0.50803 1.52121,-0.6875 2.21875,-0.6875 0.54347,-0.60255 1.91925,-0.6875 2.78125,-0.6875 1.01606,-1.08695 3.49079,-0.1562 4.625,-1.125 z"
       transform="matrix(0.10580083,0,0,0.10580083,-1.020675,-1.027792)"
       id="path2612"
       style="fill:#ffffff;fill-opacity:1;fill-rule:nonzero;stroke:none" />
  </g>
</svg>
