<?xml version="1.0" encoding="UTF-8" standalone="no"?>
<svg width="1530px" height="485px" viewBox="0 0 1530 485" version="1.1" xmlns="http://www.w3.org/2000/svg" xmlns:xlink="http://www.w3.org/1999/xlink">
    <!-- Generator: Sketch 3.6.1 (26313) - http://www.bohemiancoding.com/sketch -->
    <title>Bentley</title>
    <desc>Created with Sketch.</desc>
    <defs></defs>
    <g id="Page-1" stroke="none" stroke-width="1" fill="none" fill-rule="evenodd">
        <g id="Bentley" transform="translate(-8.000000, -8.000000)">
            <g id="g3340" transform="translate(8.917110, 8.817870)">
                <path d="M899.14892,29.3736324 C853.067254,7.21457638 811.155224,0 761.425845,0 C716.350643,0 669.226568,9.45358285 626.451854,27.7210324 C581.933083,12.403385 475.28386,21.50157 451.974157,22.0168969 C425.284174,22.6210732 314.860712,16.0284431 288.783234,16.0284431 C262.704318,16.0284431 208.786612,16.8636281 168.115407,19.6179614 C106.199189,23.8294259 36.1967533,17.858742 27.7496461,15.7796646 C23.6519004,14.7845506 20.6138174,17.2367958 20.6138174,17.2367958 C18.7993068,19.6179614 0,40.6042045 0,40.6042045 L1.83320201,46.6281981 L46.0989198,68.805024 L40.042883,97.6100199 L83.1411027,116.819274 C83.1411027,116.819274 83.1411027,140.773089 85.5307355,143.776201 C87.9577511,146.814852 131.055971,157.583407 131.055971,157.583407 C131.055971,157.583407 135.350696,185.588758 138.334142,188.165392 C143.385153,192.607866 188.711971,197.192498 188.711971,197.192498 C188.711971,197.192498 202.639993,222.372436 208.697468,224.771371 C214.772196,227.170307 263.315385,234.384883 272.392251,231.968178 C272.392251,231.968178 276.418106,252.936651 285.008994,256.721638 C294.192258,260.737634 347.014356,258.996184 347.014356,258.996184 C347.014356,258.996184 353.573625,279.662569 364.088296,282.89669 C373.918573,285.899802 419.820513,273.958434 419.820513,273.958434 C419.820513,273.958434 426.525,289.276081 433.192104,291.959335 C443.364578,296.06418 480.442706,283.056619 480.442706,283.056619 C499.510883,360.728819 563.02594,415.691097 637.827771,444.425013 L648.287806,465.215788 L672.87428,456.010983 L685.725386,475.504555 L708.172405,463.438798 L723.46778,481.777327 L743.633002,467.348175 L761.407153,483.660936 L779.110853,466.868388 L799.329273,481.493009 L814.552758,463.19002 L837.035722,475.291317 L849.922773,455.957673 L874.617083,465.322407 L884.789556,444.513863 C954.127726,417.912333 1018.32574,362.523578 1039.19118,292.296963 C1045.67999,295.157916 1057.99048,299.31607 1068.16296,299.742548 C1068.16296,299.742548 1079.75598,295.602163 1084.46479,281.101931 C1084.46479,281.101931 1124.70466,293.523085 1132.05616,291.301849 C1132.05616,291.301849 1138.81384,290.946451 1145.0496,270.599924 C1149.16604,272.465763 1152.58083,271.470649 1158.70876,272.785621 C1190.03566,279.52041 1203.69482,275.877582 1203.69482,275.877582 C1203.69482,275.877582 1210.70412,274.704769 1216.25692,248.618567 C1219.04339,249.027274 1221.03763,249.364902 1223.14113,249.240513 C1223.14113,249.240513 1269.65414,250.555485 1277.70585,246.575029 C1277.70585,246.575029 1285.05591,244.74473 1287.6986,218.605218 C1306.87461,221.448401 1324.12828,222.692294 1338.09368,221.110773 C1338.09368,221.110773 1353.72982,215.797575 1359.74991,185.393289 C1370.30053,184.735803 1401.41032,182.692266 1405.27515,178.160943 C1405.27515,178.160943 1412.93146,174.678044 1412.93146,147.365719 C1425.09817,146.583844 1444.88669,144.060519 1452.02108,136.561624 C1452.02108,136.561624 1459.56956,127.925457 1456.29855,107.116912 C1485.03741,101.163998 1495.01146,91.9058844 1495.01146,91.9058844 C1494.81448,81.8481252 1485.86414,63.349667 1485.86414,63.349667 C1485.86414,63.349667 1518.01635,51.0884411 1525.83514,44.8689787 L1528.36855,40.2665766 C1528.36855,40.2665766 1508.90498,17.201256 1505.88559,16.5793098 C1498.96543,15.1577184 1436.76309,24.0604345 1396.55773,24.0604345 C1356.31787,24.0604345 1283.79783,18.0186711 1253.94612,18.0186711 C1224.07571,18.0186711 1130.81533,24.6646109 1086.94501,24.6646109 C1043.056,24.6646109 1026.03525,18.0186711 993.739268,18.0186711 C973.66319,18.0186711 927.56427,19.2803334 899.14892,29.3736324" id="path2492" fill="#595959"></path>
                <path d="M1426.72145,72.2506773 C1416.29736,72.2684472 1405.90922,72.303987 1395.52107,72.303987 C1377.76418,73.121402 1358.71325,72.623845 1340.38123,72.9081633 C1316.24335,73.2813311 1260.67217,73.7255784 1257.8512,73.9388171 L1223.28923,73.9388171 C1203.68187,73.9388171 1186.37357,73.8677375 1166.78347,73.8677375 C1163.45927,74.0098967 1143.59886,74.5429934 1137.32715,74.5074536 C1134.52343,74.4363741 1129.45517,74.0987461 1126.6687,74.5074536 C1122.03178,75.2182493 1114.46604,84.867301 1123.57742,84.867301 C1123.97281,84.7784515 1124.40416,84.707372 1124.8355,84.6540623 C1125.75282,84.5296731 1126.6687,84.3875139 1127.60327,84.2275849 C1130.15538,83.4457096 1133.48102,84.3875139 1136.08633,84.5829827 C1140.93892,84.9206107 1145.84615,85.2937784 1150.716,85.6314064 C1163.53116,86.5021311 1176.32763,87.355086 1189.1054,88.2435806 C1198.2901,88.9721462 1207.50931,89.7362516 1216.69401,90.4470473 C1283.96462,94.6407419 1350.42718,100.593656 1420.14349,100.593656 C1436.26417,100.593656 1450.66091,93.6100882 1455.72918,92.0107978 C1457.88589,91.317772 1462.41497,90.820215 1464.12165,89.3097742 C1467.71616,86.200043 1463.58247,74.9161612 1460.13174,72.8548536 C1457.77805,71.4332622 1429.32676,72.1085181 1426.72145,72.2506773" id="path2496" fill="#C4C4C4"></path>
                <path d="M73.4646718,77.3079887 C69.9420483,78.6229608 68.3964074,80.3644102 67.9291206,84.2204769 C67.5509778,87.0281199 69.707686,93.4963608 76.6091524,97.0325695 C81.5336362,99.253806 100.243799,107.889974 105.060448,108.902858 C109.517645,109.844662 391.183741,93.5674404 391.632336,93.4963608 C395.442521,91.7726813 405.777467,88.9472683 404.878838,82.9943543 C404.627222,81.2884446 401.912646,79.6003049 400.40295,78.9961285 C397.222524,77.8055457 362.516775,80.9330468 359.928725,80.9508167 C336.007955,80.9508167 79.9347965,77.3079887 73.4646718,77.3079887" id="path2500" fill="#C4C4C4"></path>
                <path d="M1060.68062,81.5069432 C1057.57208,81.4358637 1054.42616,83.2839325 1053.20403,86.6069024 C1052.18031,89.3434659 1051.83811,93.0751433 1054.22918,94.9765218 C1056.7094,96.93121 1060.55553,97.4820767 1063.66406,98.2817218 C1068.67913,99.5611541 1073.71145,100.840586 1078.68913,102.120019 C1084.4763,103.52384 1089.29295,104.323485 1095.99743,104.980971 C1101.17353,105.460758 1105.66667,104.323485 1107.0139,100.21864 C1108.50634,95.4563089 1107.96716,92.2754981 1104.21018,90.1608809 C1102.44887,89.1835368 1095.20664,87.1577691 1084.63877,85.2386207 C1074.32251,83.372782 1063.75464,81.7024121 1060.68062,81.5069432" id="path2504" fill="#C4C4C4"></path>
                <path d="M456.68297,81.2848907 C446.851256,84.2880025 436.697474,85.7629036 426.45311,87.6465122 C422.444508,88.339538 417.160573,88.5527767 413.908257,90.7917832 C412.415815,91.822437 411.589077,93.3861875 411.176426,95.0387875 C410.816975,96.6913875 411.0499,98.6460757 412.056363,99.8188886 C413.548805,101.578108 423.01963,105.647413 429.166249,104.59899 C438.907381,102.271134 447.390433,99.1969424 456.448608,96.3004499 C459.594526,95.3941854 463.692272,94.8788585 465.956816,92.4088434 C468.43703,89.6900499 466.800808,86.686938 464.842516,84.3590821 C462.810897,82.0134563 459.647725,80.5918649 456.68297,81.2848907" id="path2508" fill="#C4C4C4"></path>
                <path d="M1122.29633,96.7446972 C1121.12883,97.2600241 1119.9599,97.597652 1119.02533,98.5572262 C1115.8449,101.755807 1115.07136,107.033465 1121.23667,107.033465 C1123.73414,106.28713 1130.49182,107.300013 1132.90015,107.673181 C1137.37604,108.330667 1141.83323,109.023693 1146.27174,109.716719 C1164.29894,112.524362 1182.3434,115.332005 1200.36917,118.139648 C1222.13467,121.658087 1243.98931,125.247605 1266.11283,127.66431 C1281.64113,129.37022 1297.09754,132.071244 1312.78831,133.546145 C1336.97938,135.820691 1360.84696,139.179201 1386.4212,139.179201 C1387.96684,139.125891 1389.53118,139.037042 1391.07682,138.983732 C1391.97544,138.877112 1392.91002,138.823803 1393.8259,138.788263 C1394.45566,138.681644 1395.13862,138.628334 1395.76694,138.557254 C1396.4499,138.486175 1397.15154,138.415095 1397.87045,138.326246 C1398.6253,138.272936 1399.41609,138.201857 1400.18819,138.148547 C1400.85389,138.041928 1401.46496,138.006388 1402.11197,137.935308 C1402.61521,137.828689 1403.09975,137.775379 1403.56703,137.7043 C1404.01707,137.65099 1404.42972,137.56214 1404.87975,137.508831 C1405.31109,137.437751 1405.70649,137.366672 1406.11914,137.295592 C1406.55048,137.224512 1407.00051,137.171203 1407.41316,137.082353 C1409.73234,136.495947 1412.05009,135.891771 1414.33332,135.287594 C1422.43823,132.835349 1426.57192,129.476839 1429.39433,121.533697 C1430.0054,119.738938 1430.7775,117.215613 1429.35839,115.598553 C1428.08162,114.176962 1426.10463,113.928183 1424.1636,113.839334 C1413.99112,113.839334 1403.80139,113.803794 1393.62892,113.803794 C1379.7541,113.306237 1365.93247,112.79091 1352.02171,112.293353 C1300.62016,109.912188 1249.57806,105.842882 1198.6625,102.608762 C1181.40883,101.29379 1164.15516,99.9788177 1146.88281,98.6460757 C1139.74842,98.095209 1129.75567,96.7446972 1122.29633,96.7446972" id="path2512" fill="#C4C4C4"></path>
                <path d="M468.856869,103.749589 C459.42199,105.562118 451.028081,109.560344 442.149632,112.510146 C438.483228,113.700729 433.774415,114.553684 431.061276,117.503486 C429.4078,119.298245 428.976458,121.590561 429.568834,124.096116 C429.946977,125.766486 430.701825,128.272041 431.888015,129.587013 C434.260394,132.252497 440.532101,134.740282 444.756374,134.740282 C447.110061,134.669202 450.74052,133.940636 452.268907,133.33646 C459.206319,129.640322 466.107785,125.961955 473.045197,122.265817 C475.417576,121.004155 478.472913,120.630987 480.41395,118.640759 C487.027855,111.90597 474.483002,102.807785 468.856869,103.749589" id="path2516" fill="#C4C4C4"></path>
                <path d="M1047.71017,107.147192 C1043.75621,108.426625 1034.76992,113.260035 1038.63474,117.578119 C1040.16169,119.319569 1045.06892,120.954399 1047.171,121.665195 C1049.77774,122.784698 1049.59801,123.104556 1052.18606,124.224059 C1055.11487,125.556801 1057.99048,126.907313 1060.90204,128.222285 C1066.32975,130.834459 1069.22406,133.677642 1076.05363,133.677642 C1084.10534,133.499943 1087.71711,134.726066 1091.70702,127.191631 C1092.78537,125.236943 1092.06647,123.051246 1090.91623,121.576345 C1089.02983,119.14187 1078.35412,115.303573 1073.7172,113.739822 C1064.62308,110.683401 1050.26228,106.471936 1047.71017,107.147192" id="path2520" fill="#C4C4C4"></path>
                <path d="M398.878876,105.002295 C392.516587,105.642011 346.02227,110.066715 329.092111,111.132908 C320.033936,111.861474 161.911277,121.581605 148.125598,121.777074 C145.573493,121.972543 112.144515,121.617145 108.676528,124.531407 C106.879271,126.041848 108.873508,134.980104 110.598874,136.614934 C113.816683,139.689126 119.692994,140.59539 123.917267,141.750433 C136.191812,145.162252 147.226969,149.036089 161.479935,149.036089 C162.414509,148.965009 409.645164,117.796618 414.138306,117.796618 C414.785318,117.174672 415.413639,116.730424 415.305804,115.73531 C415.108824,113.514074 406.4633,106.725975 404.306592,105.748631 C402.707752,105.037835 400.855859,105.002295 398.878876,105.002295" id="path2524" fill="#C4C4C4"></path>
                <path d="M1107.67098,115.047687 C1105.24396,115.953951 1102.35109,117.197844 1102.96216,120.520813 C1103.37481,122.901979 1104.41722,126.686966 1106.4129,128.197407 C1109.82768,130.791811 1117.484,131.804695 1121.85061,132.924198 C1133.98282,136.03393 1146.16822,139.125891 1158.31767,142.200082 C1176.27155,146.766945 1194.37065,150.534162 1212.63078,154.798936 C1234.71834,159.987745 1257.5622,164.536837 1280.31547,168.179665 C1292.84163,170.152123 1305.40518,172.39113 1318.30948,174.04373 C1324.95933,174.878915 1331.42946,176.087268 1338.43876,176.087268 C1339.10302,176.033247 1339.71409,175.962167 1340.37979,175.874029 C1341.54729,175.820008 1342.80537,175.75035 1343.99156,175.67856 C1344.83699,175.60748 1345.66373,175.554882 1346.54367,175.465321 C1347.15473,175.394242 1347.78449,175.341643 1348.43151,175.252083 C1349.36608,175.198062 1350.30065,175.126983 1351.18059,175.056614 C1352.13385,174.968475 1353.03248,174.896685 1353.94836,174.861145 C1354.88294,174.754526 1355.78157,174.701216 1356.71614,174.630136 C1357.43504,174.559057 1358.118,174.487977 1358.81965,174.416898 C1359.46666,174.345818 1360.09498,174.274738 1360.742,174.221429 C1361.37175,174.131869 1362.01877,174.07927 1362.64709,174.00819 C1363.27685,173.920051 1363.90517,173.866031 1364.57087,173.777182 C1365.11005,173.723161 1365.68517,173.652081 1366.22435,173.581713 C1366.67294,173.527692 1367.08703,173.439554 1367.53563,173.368474 C1367.94971,173.297394 1368.38106,173.243374 1368.8124,173.155235 C1369.24374,173.084156 1369.65639,173.031557 1370.05179,172.941997 C1370.50182,172.887976 1370.91447,172.799837 1371.3645,172.728758 C1373.86197,171.591485 1376.5406,171.644794 1378.87704,170.098814 C1382.04021,167.984197 1389.66058,157.55327 1385.61603,154.24807 C1382.41691,151.600356 1365.05541,152.133452 1359.66364,151.706975 C1343.23671,150.427543 1326.90037,148.455085 1310.68911,146.909104 C1287.39666,144.741177 1264.24799,140.671872 1241.315,137.757609 C1214.08584,134.29248 1187.27076,129.903317 1160.49164,125.478613 C1148.05462,123.363996 1135.58166,121.284919 1123.18058,119.152532 C1117.77156,117.873099 1113.7457,115.047687 1107.67098,115.047687" id="path2528" fill="#C4C4C4"></path>
                <path d="M395.494282,130.852229 C381.691349,133.251165 367.924361,135.61456 354.121429,137.995726 C332.30273,141.940642 246.484434,154.628345 225.330002,156.956201 C211.634904,158.466642 197.975752,160.030393 183.957148,161.132126 C158.311012,159.906003 153.781925,164.081928 157.034241,170.852257 C158.436101,173.76652 159.820708,177.622586 162.624428,179.719434 C166.05647,182.260528 194.615601,187.982434 205.668011,187.982434 C218.967712,188.426681 277.936429,179.150797 287.694815,176.769631 C302.882354,173.091264 418.535115,142.31381 421.501308,140.376891 C423.783105,138.866451 421.913958,131.989502 419.074292,128.488833 C416.594077,125.450182 401.856571,129.714956 395.494282,130.852229" id="path2532" fill="#C4C4C4"></path>
                <path d="M488.810734,127.850823 C484.677043,128.046292 456.477364,145.389707 454.464436,148.001881 C453.081268,149.778871 453.117213,151.929028 453.80017,154.079185 C454.339347,155.785094 454.823888,157.562083 456.153858,158.877056 C459.24514,161.951247 466.146606,162.040096 470.80222,162.040096 C472.0603,161.560309 473.335634,161.062752 474.612405,160.565195 C477.092619,159.196914 479.086856,157.117836 481.406036,155.340847 C486.168048,151.52032 489.798506,148.819296 494.561956,145.016539 C496.987534,143.3284 502.55903,141.942348 504.123363,139.294634 C508.130527,132.435455 493.572746,127.744204 488.810734,127.850823" id="path2536" fill="#C4C4C4"></path>
                <path d="M1029.3839,127.850823 C1024.69234,128.099602 1016.0842,130.960554 1015.29341,137.091167 C1015.07774,138.654918 1015.34661,140.254208 1016.51554,141.196012 C1018.61762,142.937462 1035.24296,151.218232 1040.54415,154.576742 C1044.57001,157.100066 1047.67998,160.138718 1053.01711,160.138718 C1060.20614,159.907709 1062.75824,158.16626 1064.51956,157.117836 C1067.62953,155.216458 1071.36782,150.525206 1068.67194,146.864608 C1066.29956,143.594948 1061.24855,142.191126 1057.79782,140.627376 C1053.98763,138.850387 1050.19614,137.073397 1046.36726,135.296408 C1043.81516,134.034746 1033.53485,127.850823 1029.3839,127.850823" id="path2540" fill="#C4C4C4"></path>
                <path d="M1098.32093,140.01794 C1095.82346,141.101903 1093.34324,142.203636 1090.84434,143.2876 C1087.42955,144.638112 1078.85735,146.450641 1080.90623,151.58614 C1082.57696,155.797604 1122.99798,167.614583 1135.38036,171.985976 C1167.62315,183.02108 1195.21176,192.439123 1229.19717,199.849168 C1253.89148,205.233445 1280.18607,211.310749 1307.52163,211.310749 C1308.63592,211.256728 1309.78617,211.204129 1310.86452,211.11528 C1311.67401,211.0442 1312.41016,210.973121 1313.21965,210.919811 C1313.66824,210.830251 1314.06364,210.777652 1314.49498,210.706572 C1316.36413,209.764768 1318.19733,209.35606 1319.95864,208.165478 C1322.69047,206.228559 1324.21886,203.349837 1326.33962,201.021981 C1328.29791,198.889594 1331.22816,197.254764 1332.39566,194.695899 C1332.89889,193.505316 1332.95353,191.959336 1332.16274,190.893142 C1331.24542,189.738099 1329.86225,189.400471 1328.49633,189.027303 C1322.22319,188.192118 1315.93279,187.356933 1309.62513,186.503979 C1297.3851,184.54929 1285.16375,182.594602 1272.90646,180.639914 C1256.47953,177.92112 1239.98071,174.384912 1223.89598,170.919783 C1198.14057,165.393346 1172.85389,159.79583 1147.76418,153.416439 C1136.09927,150.377787 1124.4171,147.374675 1112.75362,144.353793 C1110.29066,143.589688 1107.81044,142.861122 1105.33023,142.097017 C1102.97654,141.261832 1101.0355,140.195639 1098.32093,140.01794" id="path2544" fill="#C4C4C4"></path>
                <path d="M513.584123,147.525648 C509.378542,147.525648 497.12125,159.893493 492.592163,163.518551 C490.435454,165.295541 485.132828,169.880173 484.03722,172.456807 C481.969656,177.503457 485.168773,180.204481 488.494417,182.638956 C491.549754,184.895732 500.912743,183.456371 505.065125,180.382179 C508.10177,178.125403 527.602726,160.853068 528.770224,158.8273 C534.413611,148.965009 520.143391,147.525648 513.584123,147.525648" id="path2548" fill="#C4C4C4"></path>
                <path d="M435.133142,147.575404 C433.479665,148.019651 431.77299,148.499438 430.119514,148.961455 C425.751461,150.791754 324.314283,181.889066 276.238381,192.000135 C262.363558,194.914398 248.326263,196.798006 234.020098,198.877084 C229.634791,199.5168 220.343692,198.912623 217.288355,201.471488 C215.311373,203.230707 221.151739,212.506591 222.823907,215.029916 C227.065433,221.267148 276.813503,223.346226 298.937016,217.571011 C307.887355,214.976606 439.626284,169.379062 442.322169,165.985013 C445.089945,162.484344 444.406987,153.759326 444.030282,152.177806 C443.077017,148.16181 439.158997,147.575404 435.133142,147.575404" id="path2552" fill="#C4C4C4"></path>
                <path d="M1005.38118,148.20986 C1001.40996,149.258284 995.263342,147.570144 992.783127,151.248512 C991.417212,153.22097 991.129651,156.41955 992.404984,158.356469 C993.950625,160.648785 1015.42856,178.04551 1017.98067,179.342712 C1021.35951,181.048622 1025.76207,180.942002 1029.98634,180.942002 C1033.54491,180.870923 1040.89497,177.92112 1040.01504,172.341374 C1039.79937,170.866473 1038.7929,169.551501 1037.65991,168.520847 C1034.3889,165.588815 1030.36305,163.705206 1026.80448,161.252961 C1023.76784,159.227193 1020.35305,156.668329 1017.31496,154.642561 C1014.54719,152.581254 1012.12161,151.035273 1009.35384,148.973965 C1008.14895,148.387559 1006.85493,148.29871 1005.38118,148.20986" id="path2556" fill="#C4C4C4"></path>
                <path d="M973.359813,164.986345 C969.765299,165.857069 965.631608,167.34974 966.331819,172.094302 C966.40371,173.000566 972.029843,177.24757 974.167859,179.308878 C979.003199,184.106749 982.561768,192.423059 988.708386,195.692719 C992.985858,197.985035 999.312202,200.774908 1004.12885,198.340433 C1010.13169,195.44394 1008.58605,189.615416 1007.59684,188.353753 C1003.19428,182.702927 997.208692,178.367074 992.087229,173.302654 C989.607015,170.850409 987.270581,167.296431 984.179299,165.874839 C981.213106,164.542097 976.990272,164.986345 973.359813,164.986345" id="path2560" fill="#C4C4C4"></path>
                <path d="M537.770887,165.75045 C534.518571,167.616289 530.492715,172.751788 527.921919,175.488351 C526.016827,177.496349 524.166371,179.504347 522.297224,181.476805 C518.504293,185.297332 510.579109,191.854422 517.336795,196.545674 C520.140516,198.482592 524.794692,200.064113 527.86872,199.175618 C530.348935,198.038345 532.685369,197.825106 534.842077,196.012577 C536.980094,194.235588 538.417899,191.623414 539.855705,189.366637 C541.545126,186.843312 547.224458,178.97125 548.64501,177.745127 C551.57382,175.186263 555.887236,173.249345 553.011625,168.078306 C551.736292,165.73268 540.844915,164.009 537.770887,165.75045" id="path2564" fill="#C4C4C4"></path>
                <path d="M1075.38505,166.02766 C1072.50944,167.253783 1062.46206,170.736682 1062.64178,173.579865 C1062.94804,177.70248 1068.98682,179.515009 1072.65322,180.758901 C1075.421,181.718475 1077.90121,183.264456 1080.45332,184.561658 C1085.66536,187.298222 1090.91335,190.017015 1096.10671,192.753579 C1104.39278,196.876194 1112.67741,200.998809 1120.96349,205.121424 C1132.96916,211.376426 1145.20776,217.133871 1157.69942,222.26937 C1170.53183,227.547028 1183.65181,233.85534 1197.81419,236.431975 C1209.83712,238.617671 1223.78383,237.977955 1237.04759,237.977955 C1238.10869,237.889817 1239.18704,237.835796 1240.22945,237.764717 C1242.00802,237.693637 1243.76933,237.622557 1245.54933,237.551478 C1246.48391,237.480398 1247.38254,237.409319 1248.29842,237.356009 C1248.85629,237.24939 1249.43141,237.21385 1250.00653,237.125 C1250.56296,237.053921 1251.13808,237.001322 1251.71321,236.911762 C1252.12729,236.840682 1252.52269,236.788083 1252.95403,236.698523 C1254.21211,236.147656 1255.50614,235.57902 1256.80016,235.045923 C1259.74766,232.984615 1266.66638,225.912198 1263.75483,222.26937 C1261.023,218.92863 1249.46735,218.128985 1244.91957,217.133871 C1234.98146,214.983714 1225.1138,212.691398 1215.42731,210.292463 C1180.36211,201.620755 1146.70021,190.301334 1113.16339,179.052992 C1104.53656,175.92549 1095.89103,172.797989 1087.2642,169.652718 C1083.43676,168.248897 1079.75167,166.169819 1075.38505,166.02766" id="path2568" fill="#C4C4C4"></path>
                <path d="M453.380331,174.41505 C446.802371,174.699368 423.097272,188.240026 413.660954,192.131632 C387.205333,203.255585 359.618159,212.691398 332.012294,221.789583 C324.696739,223.99305 317.346678,226.214286 310.01387,228.382213 C305.430146,229.661646 299.949231,230.390211 295.868739,232.629218 C294.665296,233.251164 293.640141,234.335127 293.443161,235.703409 C293.029073,238.137884 295.096638,240.039263 296.822004,241.318695 C298.924076,242.846906 300.937003,244.623895 303.381273,245.53016 C307.210149,246.898441 311.667346,246.809592 316.141797,247.022831 C326.584578,247.502618 347.342176,250.736738 360.893493,244.872674 C373.366455,239.506166 426.097972,212.051682 440.00874,204.606097 C446.569446,200.963269 475.378755,187.671389 474.983359,182.411501 C474.355038,174.112961 460.839666,174.41505 453.380331,174.41505" id="path2572" fill="#C4C4C4"></path>
                <path d="M1048.88055,183.028188 C1046.50817,184.574168 1040.21777,189.30096 1041.02581,192.51731 C1041.96039,196.089059 1053.6785,201.437796 1055.60229,202.823848 C1073.50297,216.115728 1091.34901,229.300988 1110.02322,241.295665 C1120.30353,247.870526 1130.74488,254.765244 1142.17543,259.012248 C1153.33712,263.152633 1166.61812,264.591994 1179.79274,264.591994 C1180.54758,264.537974 1181.33838,264.466894 1182.12917,264.414296 C1183.22478,263.934508 1184.33908,263.508031 1185.45338,263.063784 C1188.5274,261.180175 1195.84152,255.014022 1193.61292,251.086876 C1193.05649,250.145072 1192.12192,249.469816 1191.1514,249.025569 C1188.43682,248.119304 1185.72368,247.19527 1183.00911,246.271235 C1178.31899,244.583095 1173.61017,242.859416 1168.93731,241.189046 C1154.39678,235.413831 1140.21714,229.141059 1126.10796,222.459579 C1106.76947,213.272545 1087.75449,203.570183 1069.09897,193.405805 C1063.2586,190.118375 1057.43549,186.795405 1051.62963,183.490205 C1051.14509,183.366526 1050.64186,183.241426 1050.15588,183.081497 C1049.70728,183.081497 1049.32914,183.045957 1048.88055,183.027477" id="path2576" fill="#C4C4C4"></path>
                <path d="M1020.88504,195.195162 C1019.78799,195.746029 1018.78153,196.296895 1018.00942,197.363089 C1016.64351,199.246697 1016.17622,201.805562 1015.31354,203.955719 C1014.46811,205.892637 1013.58817,207.776246 1012.7068,209.677624 C1012.43793,210.743818 1012.41924,212.02325 1012.86927,212.982824 C1013.98357,215.186291 1016.93107,215.239601 1018.90805,216.252485 C1020.59747,217.105439 1022.14312,218.242713 1023.58092,219.557685 C1036.64626,231.730061 1048.9395,244.559924 1062.16731,256.074814 C1067.07454,260.392898 1071.36926,265.723866 1076.95945,268.673668 C1081.4339,271.072603 1086.86162,272.227646 1091.91263,273.524848 C1099.72998,275.497306 1107.33309,278.23387 1116.13965,278.23387 C1119.33877,276.652349 1128.84554,273.755857 1127.2467,268.638128 C1127.17481,268.442659 1127.08422,268.24719 1126.97639,268.051721 C1126.77941,267.749633 1126.56374,267.412005 1126.34807,267.109917 C1123.13026,263.591478 1118.29636,261.796719 1114.41428,259.397784 C1107.13467,254.937541 1100.07217,250.246289 1092.93634,245.608347 C1075.57484,234.306695 1059.13066,221.334674 1042.38023,208.913519 C1036.19766,204.328887 1031.99208,197.20316 1024.26388,195.426171 C1023.81385,195.372861 1023.41845,195.337321 1022.98711,195.248472 C1022.64635,195.212932 1022.30415,195.212932 1021.9447,195.212932 C1021.56799,195.195873 1021.26174,195.195873 1020.88504,195.195873" id="path2580" fill="#C4C4C4"></path>
                <path d="M481.617393,195.379969 C476.872635,196.694941 368.372957,255.477745 366.808624,258.01884 C364.203321,262.176995 372.219087,268.627466 376.208997,269.498191 C382.157198,270.795393 415.029745,267.650122 429.281273,259.244963 C433.433655,256.170771 482.551967,218.001042 486.416788,214.820231 C491.125601,210.839775 506.474175,202.985483 504.766062,199.680283 C502.825024,195.930835 486.093282,193.976147 481.617393,195.379969" id="path2584" fill="#C4C4C4"></path>
                <path d="M511.959403,210.288909 C508.957265,209.915741 491.667654,231.115223 450.474526,259.61813 C446.934649,262.034836 438.900192,267.117025 437.13888,270.724313 C434.569522,277.761191 446.323582,279.52041 450.636998,279.52041 C451.624771,279.43085 473.965392,276.606148 484.334846,270.653234 C489.098295,267.8989 535.395632,221.892649 536.833438,219.866881 C537.48045,218.960616 537.964991,214.287135 537.768011,213.878427 C535.323742,210.217829 527.631482,212.741154 523.299374,212.190287 C519.975168,211.72827 515.23041,210.786466 511.959403,210.288909" id="path2588" fill="#C4C4C4"></path>
                <path d="M988.623556,210.498593 C984.580447,211.742486 980.662427,216.487047 982.476937,221.213839 C983.430202,223.754933 986.197978,224.28803 988.139015,225.88732 C989.953526,227.451071 991.283496,229.22806 992.613466,231.093899 C1000.88085,242.395551 1009.05909,253.857131 1017.91884,264.803385 C1021.31638,268.96154 1024.80306,274.256968 1029.45723,277.473319 C1035.47876,281.667013 1047.50169,285.807398 1055.67993,285.807398 C1058.60874,284.350267 1065.86966,284.083719 1066.01344,279.676785 C1066.01344,279.499086 1066.01344,279.285848 1065.97749,279.090379 C1065.49295,274.896684 1057.67416,269.423557 1054.58288,266.544835 C1042.30834,254.905555 1030.05105,243.266275 1017.73912,231.626996 C1015.18701,229.050361 1012.61765,226.491497 1010.04686,223.932632 C1007.67448,221.267148 1005.68024,218.317346 1002.76869,216.02503 C998.903865,212.933069 994.034018,210.658522 988.623556,210.498593" id="path2592" fill="#C4C4C4"></path>
                <path d="M501.863132,299.348056 C499.993985,299.987772 500.640998,303.310742 501.162921,305.016652 C502.078803,308.001994 514.139116,327.442256 519.47625,335.243239 C524.059974,341.960259 528.44528,348.854977 533.89025,355.145519 C554.46956,379.028255 579.324903,400.227736 606.068086,413.821704 C610.148578,415.847472 632.398618,427.291283 637.448191,426.829266 C638.509291,426.739705 638.868742,425.727532 638.670325,425.123356 C638.329565,423.861694 637.215266,423.115358 636.172857,422.457872 C631.121846,420.112246 626.053582,417.74885 620.985318,415.403225 C612.269341,411.333919 603.678453,406.411659 595.500215,401.187311 C576.324203,388.890545 558.639196,374.337003 542.356049,356.62042 C534.915405,348.535119 529.936285,340.1655 523.19729,330.498678 C516.835001,321.418263 508.387894,304.767874 506.248439,301.338284 C505.13414,299.525755 503.571245,298.352942 501.863132,299.348056" id="path2596" fill="#C4C4C4"></path>
                <path d="M1015.7952,301.3117 C1013.6385,302.448974 1001.52498,324.6258 991.100895,339.605819 C979.507869,356.202899 964.860944,372.195802 948.666941,385.096744 C935.134316,395.900839 921.906505,403.772901 906.845493,411.556114 C897.409175,416.087437 885.530026,421.382865 883.301428,423.248703 C880.317981,425.683179 881.827677,427.566787 885.314355,427.566787 C888.369692,426.305125 902.244515,420.56545 916.227174,412.942166 C945.64755,396.913723 975.53665,370.418813 996.042632,342.8044 C1004.86788,330.880802 1016.80167,308.615126 1018.09569,305.505395 C1019.10216,303.07092 1018.54429,301.578249 1015.7952,301.3117" id="path2600" fill="#C4C4C4"></path>
                <path d="M645.150515,36.1795013 C645.150515,36.1795013 642.148377,30.6352948 648.690392,27.4011743 C655.304297,24.149284 704.297519,8.63616779 762.223827,8.63616779 C825.84672,8.63616779 881.130341,29.0182346 884.346712,31.6126389 C888.732019,35.1310776 884.742109,41.688168 879.800371,40.7108239 C874.911833,39.7512497 824.768366,18.7116969 762.888093,18.7116969 C701.009258,18.7116969 657.784511,34.9533787 653.974327,37.1568454 C649.44524,39.7512497 645.150515,36.1795013 645.150515,36.1795013" id="path2604" fill="#C4C4C4"></path>
                <path d="M578.128649,233.279596 C578.128649,158.13072 659.453804,97.2155283 759.795374,97.2155283 C860.154197,97.2155283 941.498043,158.13072 941.498043,233.279596 C941.498043,308.446241 860.154197,369.361433 759.795374,369.361433 C659.453804,369.361433 578.128649,308.446241 578.128649,233.279596 L578.128649,233.279596 Z" id="path2608" stroke="#C4C4C4" stroke-width="0.5" fill="#000000"></path>
                <path d="M922.777815,40.2097129 C925.473701,39.4278376 928.097696,40.032014 929.894953,41.9511624 C931.601628,43.7992312 931.117087,46.9089624 928.924434,48.1173151 C927.144431,49.0946592 924.772052,49.1835087 922.777815,49.6988355 C917.654914,51.0138076 900.060489,53.5549022 899.08997,59.5966657 C898.568046,63.0795647 903.223661,67.1133303 905.002226,68.3572227 C907.429242,70.4540701 903.223661,66.5091539 905.649239,68.6060012 C909.190553,71.6801927 917.079792,77.0644701 912.821012,82.5909067 C911.778603,83.9236486 910.07049,84.5455949 908.309179,84.367896 C899.916708,83.532711 888.467463,67.0600206 887.47969,64.341227 C886.274809,60.9649474 886.760788,57.4998184 888.701825,54.7099452 C895.261094,45.4162914 912.694485,43.6215323 922.777815,40.2097129" id="path2624" fill="#0C0C0C"></path>
                <path d="M1062.78413,66.810104 C1062.33409,73.6812276 1082.76962,72.2793107 1087.7473,72.7120011 C1095.13475,73.3523829 1109.5128,78.4754373 1112.26189,76.1042938 C1115.58753,73.2485372 1119.12741,59.7139814 1113.16052,59.4543671 C1104.49774,59.1082148 1101.22673,60.0428261 1091.57618,60.7524384 C1081.65532,61.3408973 1063.23272,60.1120566 1062.78413,66.810104" id="path2628" fill="#C4C4C4"></path>
                <path d="M457.857657,68.2367606 C458.145218,72.192017 437.24384,72.1487113 432.283411,72.5095923 C424.914658,73.0436963 413.105961,77.1144347 409.134743,73.5922355 C406.132605,70.9505861 402.286475,63.2421667 408.289313,63.0400733 C416.916146,62.7369332 423.009566,63.2132962 432.624171,63.8051411 C442.599665,64.2959394 457.409062,62.5059693 457.857657,68.2367606" id="path2632" fill="#C4C4C4"></path>
                <path d="M616.19455,38.7739056 C625.971627,41.190611 631.560377,40.9240626 637.203764,50.0222476 C640.043429,54.5358003 640.223155,61.7681466 635.461143,68.0231488 C632.387115,72.1102241 631.219617,73.3896563 627.840774,77.4589617 C624.390041,81.5815768 623.975953,84.3714499 618.135587,85.2066349 C616.19455,85.4909532 614.522382,85.028936 613.444028,83.4829553 C609.580644,77.9565187 617.793389,71.2572692 622.125497,66.4238584 C623.778974,64.5757896 627.517268,59.0848928 626.906201,56.7925767 C625.755956,49.2403723 616.589946,49.3647616 610.515218,47.4989228 C608.286619,46.7881271 602.068111,45.650854 600.108382,44.4247314 C597.754694,42.9498303 598.454906,40.1066475 599.856766,37.9920303 C600.953811,36.3394303 606.633143,36.552669 616.19455,38.7739056" id="path2636" fill="#0C0C0C"></path>
                <path d="M1047.20407,64.6113294 C1049.30614,65.1444262 1051.96608,65.1977358 1052.38016,67.7388305 C1052.84745,70.9018714 1050.42044,73.9049832 1043.93306,74.6157789 C1039.42122,74.1537617 1030.30985,66.1928498 1026.76854,73.2119574 C1023.73189,79.1471015 1042.83601,81.5104972 1041.97333,87.3923317 C1041.29037,92.3145919 1039.47586,93.1142371 1035.07186,93.1142371 C1033.07763,93.2208564 1028.36881,90.3776736 1026.76854,89.7912672 C1022.38323,87.7832693 1011.99508,79.6268886 1008.07706,86.1662091 C1004.21368,92.63445 1030.59741,101.412777 1029.89576,106.459426 C1029.19555,111.239527 1024.34296,115.006745 1020.67655,113.762852 C1015.60829,112.5545 999.378341,93.7184134 992.009588,101.110689 C985.215957,107.934327 1012.35454,119.893465 1011.00731,124.05162 C1008.70682,131.035188 1002.52426,133.114265 993.91468,126.041848 C989.421538,122.34571 982.340346,115.468762 978.297237,120.853039 C973.318116,127.498979 987.660226,135.868599 988.918306,138.089835 C992.064224,143.687351 984.839252,150.155592 980.075802,149.089399 C975.65455,148.502992 969.131227,132.012532 962.948663,137.681128 C958.203905,141.999212 969.795493,152.287979 968.59205,156.392825 C968.106071,160.213351 958.275795,165.242231 953.710763,161.706022 C947.437617,157.583407 962.22976,136.152917 947.707925,115.948549 C940.679932,107.365691 934.964655,94.0382715 934.569258,91.6926457 C934.012828,87.5878005 934.317642,80.5331531 936.977582,77.0147144 C947.150056,63.5273659 993.303613,64.4336305 1013.02024,63.5273659 C1026.22936,62.9054197 1033.67,64.6113294 1047.20407,64.6113294" id="path2640" fill="#C4C4C4"></path>
                <path d="M470.350749,66.6015574 C467.690809,66.6015574 465.39032,67.1701939 464.994924,69.800138 C464.491692,73.0342585 464.976232,78.1697574 470.511784,78.3119166 C477.036545,78.4185359 484.997674,69.8356778 488.807858,75.255495 C493.121275,81.3683381 470.83529,85.0467058 474.393858,92.4745209 C478.977582,101.963644 488.017065,93.2741661 489.670542,92.6877597 C494.163684,90.6086822 508.182288,78.2586069 513.880311,86.3972177 C518.929884,93.5584844 495.907742,103.953872 493.121275,107.365691 C492.330482,108.360805 490.695697,113.727312 491.324018,115.042285 C496.356337,126.095158 509.063662,115.504302 517.58266,106.281727 C520.745832,102.852138 523.046321,100.96853 526.209493,100.151115 C530.576108,99.0316113 534.386293,99.8845661 535.555229,103.758403 C536.25544,105.961869 535.591174,108.556274 533.954951,110.066715 C532.176386,111.754854 512.33467,125.917459 512.998936,130.146693 C514.364851,138.729551 519.612841,139.866824 523.458971,138.036525 C527.592662,136.223996 539.202941,116.730424 546.051209,119.307059 C547.865719,120.000085 550.130263,120.302173 550.849166,122.025852 C551.855629,124.389248 551.460233,127.694448 549.950537,129.684676 C548.028191,132.243541 544.397732,135.60205 541.953463,137.734437 C539.868645,139.546966 537.549465,141.697123 536.310076,143.9539 C533.075014,149.693575 537.872971,152.323519 543.175598,152.323519 C545.044745,152.323519 546.051209,151.292865 547.345234,150.191132 C550.580296,147.472338 553.940447,135.353272 560.501154,138.587392 C567.366675,141.999212 554.65935,151.594954 555.91743,158.400822 C557.786577,163.536321 566.036705,164.584745 568.318502,160.764218 C570.834662,154.669145 569.343658,145.268872 571.877071,134.678016 C574.340032,125.188893 581.241498,110.670891 584.565704,104.948986 C586.686468,101.572706 589.257264,98.9249919 590.227782,94.8912263 C590.299673,94.6069081 590.352872,94.3403597 590.407508,94.0560414 C590.963939,89.8090371 588.2508,86.3083682 585.339244,83.7139639 C580.558541,79.39588 574.105669,76.748166 568.121523,74.7757079 C550.472461,68.9649531 531.582572,68.4318563 511.34546,67.5078219 C497.740944,66.8503359 484.225572,66.6015574 470.350749,66.6015574" id="path2644" fill="#C4C4C4"></path>
                <path d="M946.00125,175.296436 C948.481464,170.338636 959.750984,175.776223 960.793393,176.718028 C963.901928,179.419051 964.963029,183.843755 967.263517,187.077875 C970.084492,191.058331 977.4173,199.48126 977.00465,203.994813 C976.662452,207.655411 962.410924,218.583895 959.300951,216.00726 C959.211807,215.9177 959.139916,215.794021 958.996136,215.687402 C956.892626,202.075664 952.346285,188.997023 945.677743,176.753567 C945.677743,176.220471 945.821524,175.722914 946.00125,175.296436" id="path2648" fill="#C4C4C4"></path>
                <path d="M961.426027,222.877101 C965.344047,222.877101 972.029843,224.387541 974.742982,226.750937 C976.990272,228.687855 978.121824,231.602118 979.722102,234.001053 L987.989484,245.533714 L1007.18419,271.033509 L1015.97205,282.246312 C1017.60828,285.000645 1017.15824,287.044183 1014.73267,288.945561 L1013.24022,289.14103 C1004.30858,289.14103 990.433753,285.8536 984.359025,280.558172 C981.320942,277.892688 979.703411,274.729647 977.762373,271.548836 L968.380692,254.40089 C966.870996,251.842025 961.479226,244.005503 960.527399,241.21563 C960.419563,240.895772 960.275783,240.469294 960.167947,239.971737 C960.311728,237.750501 960.364927,235.529264 960.364927,233.272488 C960.364927,230.304916 960.257091,227.337344 960.04142,224.387541 C960.364927,223.534587 960.81496,222.96595 961.426027,222.877101" id="path2652" fill="#C4C4C4"></path>
                <path d="M538.704023,231.436929 C543.844177,224.400051 550.529973,218.589297 556.765735,219.531101 C558.203541,219.585121 559.24595,220.117507 559.928907,220.917153 C559.46162,224.986458 559.24595,229.126843 559.24595,233.284998 L559.300586,235.204146 L559.138114,235.630624 C557.376803,241.867856 556.72979,240.428495 552.47101,248.584875 C546.000885,260.934951 538.936947,278.598224 534.767311,280.499602 C528.692583,283.271706 519.437429,282.934078 512.751633,284.586678 C503.190227,286.985613 496.396596,284.532657 496.396596,280.126435 C496.432541,274.475609 534.875147,237.158834 538.704023,231.436929" id="path2656" fill="#C4C4C4"></path>
                <path d="M541.23456,289.775486 C546.859255,290.308583 548.639259,297.718628 555.270417,299.282379 C559.475999,300.277493 564.347284,298.038486 567.654236,296.154878 C569.792253,294.928755 572.775699,292.51205 575.615365,292.814138 C594.666288,325.830598 629.084476,352.716446 672.128059,368.407261 C672.218641,368.58496 672.290531,368.744889 672.379675,368.922588 C672.721873,370.575188 672.235894,371.943469 671.660772,372.636495 C669.396229,375.19536 647.488386,409.278014 643.012498,410.344207 C639.094478,411.712489 624.052157,402.187827 618.641695,399.273564 C590.084002,383.991457 563.070512,363.52054 542.169134,336.901241 C535.555229,328.531622 516.881011,307.047822 517.096682,298.180645 C517.276407,291.925643 537.927608,289.633327 541.23456,289.775486" id="path2660" fill="#C4C4C4"></path>
                <path d="M980.019728,294.832798 C982.392107,293.890993 999.448793,300.128226 999.736354,304.268611 C999.573882,307.68043 989.132539,322.145123 977.431678,337.658239 C956.925696,364.881714 931.493792,383.309093 903.07988,398.964368 C896.969207,402.322878 890.480391,405.379299 884.010266,408.027013 L878.529351,410.1594 C876.821238,410.1594 875.275597,409.715153 874.197243,408.57788 C872.00459,406.338874 849.845132,373.677811 848.802723,372.273989 C847.957293,371.154486 848.191655,369.235338 848.982448,367.902596 C889.366091,352.815957 922.022967,327.884798 941.306815,297.285043 C944.560569,296.396548 950.257154,301.229959 952.737368,302.438312 C957.050785,304.535159 962.497192,306.649776 967.817073,305.192645 C973.388569,303.682204 975.653112,296.805256 980.019728,294.832798" id="path2664" fill="#C4C4C4"></path>
                <path d="M789.874264,381.827084 C792.120117,383.142056 793.289053,385.647611 794.133044,387.33575 C795.841157,390.78311 801.250182,421.862652 804.072594,433.999488 C804.935277,438.033254 806.06683,444.270486 805.402564,448.517491 C804.827442,452.231398 800.47808,457.420207 795.948993,458.024383 C792.192007,458.57525 784.679473,452.959964 783.40414,450.152321 C781.750663,446.438413 782.019533,441.889321 781.624137,437.553467 C780.636364,424.474826 778.695327,392.968806 778.695327,389.592527 C778.695327,387.602299 779.359593,384.528107 781.463102,382.626729 C784.284077,382.39572 787.087797,382.146942 789.874264,381.827084" id="path2668" fill="#C4C4C4"></path>
                <path d="M815.770579,377.560461 C816.97546,378.608885 817.874089,379.906087 818.592991,380.847892 C820.96537,384.046472 832.036473,414.486298 837.050101,426.303277 C838.686323,430.194883 840.950867,436.325496 841.022757,440.71466 C841.111901,444.588496 837.661168,450.59472 833.222662,451.980772 C829.484368,453.206894 820.910734,448.88881 819.132168,446.241096 C816.759789,442.793737 816.220612,438.155795 815.015731,433.819941 C811.672834,420.77684 804.016519,389.288591 803.405452,385.894541 C803.117891,384.277481 803.136582,381.896315 804.071156,379.817238 C808.042375,379.159752 811.907196,378.395646 815.770579,377.560461" id="path2672" fill="#C4C4C4"></path>
                <path d="M839.423917,371.188178 C840.969558,372.129982 842.191693,373.462724 843.162212,374.457838 C845.894042,377.336561 860.65024,406.230406 867.08442,417.336589 C869.150546,421.014957 872.188629,426.807942 872.835642,431.161565 C873.356127,434.982092 870.678933,441.343714 866.437407,443.298402 C862.896092,444.933232 853.837918,441.681342 851.735846,439.282406 C848.96807,436.137135 847.871025,431.605813 846.145658,427.447658 C841.203921,414.902114 829.737422,384.568907 828.712266,381.263707 C828.155836,379.504488 827.885528,376.714615 828.927937,374.333449 C832.469252,373.356105 835.991876,372.325451 839.423917,371.188178" id="path2676" fill="#C4C4C4"></path>
                <path d="M763.930502,383.45836 C765.979375,385.07542 766.806113,387.669824 767.453126,389.411274 C768.729897,393.071872 770.292791,424.577891 771.550871,436.981276 C771.929014,441.050582 772.305719,447.412203 771.11953,451.517048 C770.059867,455.142107 765.135383,459.762279 760.570351,459.833358 C756.760166,459.885957 749.966535,453.453967 749.08516,450.504165 C747.863026,446.612558 748.7444,442.134545 748.852236,437.745382 C749.499248,424.666741 751.404341,393.160721 751.835682,389.837751 C752.068607,387.918603 753.039125,385.11096 755.159889,383.45836 C756.741475,383.4939 758.287116,383.4939 759.796811,383.4939 C761.181418,383.4939 762.564587,383.4939 763.930502,383.45836" id="path2680" fill="#C4C4C4"></path>
                <path d="M739.956533,382.774148 C741.61001,384.639987 742.005406,387.287701 742.328912,389.04692 C743.030561,392.867447 739.579828,424.195768 738.896871,436.670232 C738.590618,440.739537 737.962297,447.083389 736.146349,450.957226 C734.511564,454.369045 728.921376,458.171802 724.428234,457.532086 C720.618049,457.016759 714.993354,449.571174 714.562013,446.532522 C713.98689,442.480987 715.532531,438.216213 716.323324,433.915899 C719.036463,421.086036 725.93793,390.255273 726.872503,387.038922 C727.322536,385.439632 728.454089,383.307245 730.234093,381.885653 C733.450463,382.223281 736.704217,382.525369 739.956533,382.774148" id="path2684" fill="#C4C4C4"></path>
                <path d="M715.797088,379.852778 C717.827269,382.109554 717.738125,385.343674 717.77407,387.440522 C717.77407,391.314358 708.87693,421.576485 705.984065,433.713322 C704.977601,437.711548 703.252235,443.824391 700.77202,447.360599 C698.579367,450.417021 692.414057,453.206894 688.10064,451.803073 C684.470181,450.63026 680.175456,442.36726 680.283292,439.275298 C680.427072,435.205993 682.70887,431.261077 684.290456,427.156232 C689.178994,414.983855 701.383087,385.823461 702.874092,382.80258 C703.647631,381.309909 705.121382,379.355221 707.187508,378.235717 C709.991229,378.857664 712.885531,379.37299 715.797088,379.852778" id="path2688" fill="#C4C4C4"></path>
                <path d="M692.140874,374.727941 C693.578679,377.215726 692.986303,380.201067 692.698742,382.173526 C692.12362,385.976283 678.536358,414.5325 673.755655,426.08293 C672.138124,429.867917 669.442238,435.643132 666.458792,438.717324 C663.798852,441.436117 657.238145,443.213107 653.195036,441.169569 C649.816193,439.445889 646.904637,430.614253 647.497013,427.575601 C648.270552,423.595145 651.146163,420.041167 653.356071,416.23841 C660.113756,404.972298 676.775046,378.06868 678.733338,375.296577 C679.542822,374.159304 680.890046,372.791022 682.579467,371.955837 C685.725386,372.950951 688.941757,373.857216 692.140874,374.727941" id="path2692" fill="#C4C4C4"></path>
                <path d="M564.302712,174.176933 C567.626918,173.359518 574.240823,170.853963 575.462958,174.070314 C568.381766,186.349309 563.475973,199.46349 561.031704,213.164077 C558.460908,214.638978 551.990783,210.925071 545.359624,208.170737 C536.390594,204.38575 549.762185,196.869086 554.417799,190.080987 C556.933958,186.402619 561.103594,176.700258 564.302712,174.176933" id="path2696" fill="#C4C4C4"></path>
                <path d="M560.200653,248.449824 C562.016601,261.475155 565.951874,273.96739 571.846877,285.766598 C570.535598,288.165534 557.325042,293.123334 550.190651,287.17042 C546.164795,282.24816 555.63562,247.881188 560.200653,248.449824" id="path2700" fill="#C4C4C4"></path>
                <path d="M1473.38831,25.7094806 C1476.64206,25.7094806 1479.51767,25.7094806 1482.06977,27.0066827 C1485.5924,28.783672 1495.9978,38.9835903 1495.88996,43.0884355 C1495.81807,45.2741323 1482.82462,49.290128 1476.98282,51.4758248 C1472.63346,53.4127431 1462.83913,57.2865797 1461.16696,57.8196764 C1460.07135,58.2106141 1452.28851,58.2816937 1450.99448,58.2461539 C1449.23317,58.2994635 1437.10241,58.4238528 1432.01545,58.4238528 C1429.96658,58.4949324 1393.01498,59.4545066 1380.45287,59.4545066 C1366.48747,59.4545066 1352.77512,59.7743646 1338.86435,59.7743646 C1335.75437,59.7743646 1319.86662,60.0231431 1318.93205,60.1297625 L1259.31776,60.1297625 L1246.39476,60.1297625 L1241.30924,60.3252313 L1238.12738,60.5207001 L1199.73797,60.5207001 C1196.82642,60.5207001 1177.41604,61.0893367 1168.75327,61.5868937 C1156.80223,62.5642378 1139.18911,64.0391388 1138.41557,64.0924485 C1136.07914,64.0924485 1131.40627,64.9631733 1130.70606,62.3865388 C1129.96846,59.6322055 1135.73838,58.3350033 1137.55289,57.9973754 C1158.92299,53.8392205 1180.36355,48.7748011 1204.55462,45.7894592 C1244.79592,40.7961194 1264.17035,40.191943 1270.72962,38.2727946 C1274.53981,37.1177516 1273.7677,32.2132613 1270.72962,31.8400935 C1227.5782,26.8112139 1131.06551,45.5229108 1117.20794,48.3660936 C1091.47122,53.8569904 1072.40304,55.2252721 1066.05801,55.2785818 L1006.04832,55.2785818 C972.672542,55.2252721 958.222596,58.8503302 955.940799,59.2945775 C949.487928,60.7517087 943.395946,62.7597066 937.661978,65.6917389 C925.512521,71.8578916 917.784317,79.4634056 922.907218,93.8925584 C924.721728,97.0022896 926.447095,101.284834 928.208407,104.394565 C932.342098,112.515406 937.661978,122.519855 941.958141,130.462997 C945.066676,136.113823 946.99046,143.20401 946.99046,150.294197 L945.265093,159.108064 C945.157258,160.618505 941.418964,167.122286 939.459235,165.967243 C939.262255,165.825083 938.920058,165.451916 938.471462,164.954359 C936.116337,161.542539 933.618869,158.18403 930.958929,154.932139 C930.096245,153.741557 929.413288,152.781982 929.107035,152.426584 C925.9985,148.410589 934.984784,142.919692 934.158046,137.819733 C932.468624,127.708664 917.443557,108.357251 906.156784,99.1346767 C899.542879,93.7326293 893.413514,86.5713626 887.537203,79.9609626 C885.110187,76.6735325 882.397048,73.9547389 879.934087,70.7028486 C877.777379,67.824126 876.770915,66.0293668 875.890978,62.5109281 C874.182865,55.4918205 878.443083,51.2270463 883.025369,47.6197581 C885.757199,45.4696011 890.933299,42.2710204 895.157572,40.5651108 C906.55218,35.9271688 933.276671,31.2359172 949.092532,29.1923795 C954.340522,28.6770526 967.172936,27.1666118 976.770287,26.9711429 C987.481938,26.9711429 997.690357,27.291001 1007.71905,28.0551064 C1027.27321,29.5655473 1046.37876,33.1728355 1066.70502,33.4571537 C1096.28787,33.9191709 1124.75642,32.088872 1153.45933,30.7205903 C1166.2558,30.1164139 1179.75248,29.281229 1193.44758,28.1439559 C1214.45823,26.3669666 1278.51246,27.1666118 1287.96603,27.7530182 C1292.62021,28.0195666 1335.03547,29.7432462 1356.47746,31.3780763 C1361.23948,31.7334742 1365.1043,32.1777215 1368.17689,32.7108182 C1377.59451,32.5153494 1386.94025,32.924057 1396.1609,32.3731903 C1413.39587,31.2892268 1430.68548,29.4056182 1447.70622,28.0551064 L1473.38831,25.7094806 L1473.38831,25.7094806 Z" id="path2704" fill="#C4C4C4"></path>
                <path d="M286.971599,24.0516207 C314.325848,24.0516207 338.516926,26.3261669 364.936602,27.5878293 C378.505172,28.1920056 391.643839,28.4763239 405.212409,29.0982702 C418.890253,29.7379863 432.92611,30.7686401 446.836878,30.7686401 C471.782804,30.7686401 495.290923,29.1693497 519.572583,28.0498465 L538.245363,27.9965368 C549.891587,27.801068 562.759946,27.3212809 574.532698,28.4407841 C581.865506,29.1160401 589.270204,29.1693497 596.36865,29.9867648 C606.020638,31.0884981 622.699182,33.0431863 629.708484,36.1706874 C636.178608,39.0138702 640.887421,43.3319541 643.367636,46.0507477 C648.129648,51.2395563 655.229531,59.3426273 651.256875,65.4554704 C649.62209,68.5296618 645.074311,73.0076747 642.701932,75.7086984 C639.53876,79.2093672 614.827197,99.5025845 608.680578,108.138752 C603.109082,115.833116 601.491551,121.626101 598.058071,127.667864 C593.36795,135.433307 598.525358,141.208522 596.799991,145.757615 C591.695782,151.124122 587.00566,156.721639 582.817333,162.585703 C581.901451,163.08326 581.091966,163.243189 580.444954,162.781172 C576.203428,159.84914 577.030166,153.576368 578.055321,145.437757 C578.503916,139.307144 583.483037,126.63721 585.297547,123.36755 C588.784226,116.86377 600.035054,103.216492 600.933682,100.746477 C608.141401,80.7731178 588.065323,68.4230424 572.807331,63.5007822 C567.739067,61.8659521 562.670802,60.0001133 557.350922,59.0405391 C537.688932,55.5221004 516.625081,55.9130381 495.41745,55.255552 C480.840978,54.8113047 465.475151,54.2426682 450.629809,54.2426682 L418.584,54.1715886 C408.358328,53.3719434 398.006128,52.785537 388.461975,50.5465305 C372.106938,46.7082337 358.394587,43.189795 342.039549,39.6180466 C328.128781,36.5971648 313.103714,33.9672207 298.23968,33.0431863 C288.121843,32.4212401 270.508726,31.3195067 260.012746,31.3195067 C252.284541,31.3195067 195.041191,30.7331003 186.57683,33.0609562 C183.646582,33.6295928 184.113869,39.0849498 186.090852,39.5647369 C197.090064,42.6744681 237.92374,43.5629627 264.990428,42.6389283 C280.896871,43.4030337 298.671022,45.3577219 313.714781,47.490109 C333.178354,50.2266724 351.150923,53.7273413 369.195382,59.3781671 L388.461975,64.353737 C391.643839,65.3310811 395.794783,67.4279284 391.445422,70.3777306 C379.530327,70.3777306 368.512424,68.0854145 356.434858,67.9077155 C326.025272,67.9077155 282.15495,67.001451 251.654782,67.001451 C248.474357,66.8059822 100.613315,65.2422317 82.9642527,64.2471177 C63.320954,63.1276144 45.6172549,53.8161907 39.0033497,50.5998402 C36.48719,49.4981068 29.0824917,43.8117412 29.5325249,42.692238 C30.9516389,39.0849498 39.0033497,25.490982 45.3124402,24.993425 C58.6840313,26.2373175 75.1641579,27.9965368 88.9498369,28.6007132 C88.9498369,28.6007132 187.708383,27.5167497 190.619939,27.303511 C205.501226,26.148468 240.853987,24.6380271 256.130671,24.3714787 C264.595032,24.2293196 278.919888,23.6962228 286.971599,24.0516207" id="path2708" fill="#C4C4C4"></path>
                <path d="M960.842278,255.207643 C965.40731,254.639007 974.91408,293.572841 968.875297,296.522643 C962.764624,299.738994 948.225535,292.364488 946.536113,290.4098 C946.212607,290.072172 946.032881,289.663465 945.996936,289.236987 C951.549741,278.89491 955.594288,268.019736 957.947976,256.700314 C958.738769,255.900669 959.637397,255.456422 960.842278,255.207643" id="path2712" fill="#C4C4C4"></path>
                <path d="M763.23748,27.0671004 C713.776971,27.0671004 660.739202,40.8920768 658.762219,43.8774187 C654.179933,51.0031457 664.028901,50.7188274 663.777285,60.6166575 C663.471032,72.7357243 653.945571,80.8565652 650.638618,84.357234 C638.040566,97.5780341 621.97309,104.312823 610.866043,119.079604 C610.020613,120.181337 609.193875,125.156907 610.326865,126.685118 C613.255675,130.558955 620.139888,126.276411 621.793364,124.979208 C645.157704,106.907228 667.084237,99.6571115 693.575804,91.5185007 C700.153764,89.4749631 733.528105,82.5802448 776.590379,84.4105437 C814.65628,86.0276039 849.757426,95.8721244 880.310792,113.606477 C892.513448,120.678894 903.404824,129.474991 914.979158,138.981884 C919.184739,142.482553 922.474438,137.364824 922.618219,135.463445 C922.779253,133.259978 920.964743,130.150247 919.814498,128.302178 C911.025193,113.784176 891.633511,100.669995 878.190029,85.0680297 C871.540179,77.3381264 868.214535,74.5482533 865.717067,70.1235501 C857.502884,56.3874231 870.066428,55.6055478 868.484842,49.3150059 C867.262707,44.3038962 818.538355,27.0671004 763.23748,27.0671004" id="path2716" fill="#C4C4C4"></path>
                <path d="M746.167442,124.091116 C744.74689,124.908531 742.34248,124.365665 740.653055,124.561133 C733.302993,125.520707 725.95033,126.424509 718.833197,127.757251 C698.219384,131.542239 678.384052,139.538608 661.597665,150.929106 C657.33744,153.825601 652.445213,157.129109 649.047681,161.269488 C648.958538,161.447192 648.858701,161.59104 648.714916,161.786507 C647.492776,163.794511 645.358321,165.364249 644.531589,167.56772 C644.208088,168.456211 643.904165,169.815727 644.246362,170.81084 C645.396609,174.062728 651.506733,179.638473 654.562068,181.433232 C656.071763,182.339501 658.655082,184.061795 658.888009,185.945399 C659.21151,188.824116 658.544824,191.582599 658.365093,194.123701 C658.329193,197.553293 658.317632,200.987488 658.317632,204.41708 L658.317632,254.943945 L658.317632,275.060687 C658.264389,278.010486 658.218144,280.917976 658.12748,283.850012 C657.732087,285.307141 651.857067,290.887578 650.473892,292.451329 C648.640697,294.5304 647.705183,297.157113 646.195488,299.360584 C646.178299,299.538288 646.07729,299.670675 646.005337,299.830602 C646.886711,300.648011 646.725326,302.219613 647.336396,303.214726 C649.116394,306.111222 652.072501,309.195874 654.894909,311.346027 C677.881109,329.098153 712.439535,338.898654 743.172635,341.333133 C755.322084,342.274943 767.797589,341.38006 780.109519,341.38006 C781.151928,340.331643 788.797089,340.346022 790.900603,340.346022 C791.888371,339.386449 797.256661,339.311983 798.982032,339.311983 C799.988495,338.228026 803.342673,338.230944 804.92426,338.230944 C805.53533,337.609002 806.69224,337.572919 807.681453,337.572919 C808.66922,336.542265 811.049458,336.538881 812.577848,336.538881 C813.296757,335.739235 815.230626,335.504843 816.380873,335.504843 C817.082516,334.7585 818.898142,334.423803 819.993748,334.423803 C820.695391,333.659698 822.701167,333.389765 823.796773,333.389765 C824.893824,332.199185 828.06827,331.321689 829.739,331.321689 C830.565732,330.184412 832.0893,330.021718 833.256799,329.488621 C836.222991,328.067033 839.170016,326.633051 842.098833,325.211463 C852.36189,319.223006 861.58094,311.108641 867.008649,300.535552 C868.087004,298.492022 869.623229,296.514174 869.623229,293.95531 C870.467226,293.120123 870.669061,291.492374 870.669061,290.195171 C871.908451,288.986813 871.714893,286.185795 871.714893,284.319954 C873.080802,282.791743 872.416368,278.139339 872.380422,275.953645 C872.074172,255.180638 855.711853,235.15999 837.487664,227.447855 C837.145468,227.305722 836.299219,227.281085 836.299219,226.836833 C837.629182,225.930564 839.481834,224.110732 841.243152,224.110732 C842.591811,222.120506 846.990481,220.399986 849.039354,218.658531 C853.33408,215.086775 863.681001,205.024869 863.681001,199.622828 C864.39991,198.947567 864.726833,197.898143 864.726833,196.849726 C865.589512,196.05008 865.820203,194.503715 865.820203,193.277594 C867.329898,191.713843 866.866035,187.697699 866.866035,185.334301 C868.213265,183.894935 867.296203,180.453656 867.008573,178.80106 C865.175377,168.903232 861.105106,160.61178 854.2209,153.32612 C852.658008,151.673524 850.917683,150.471708 849.372042,148.907957 C844.502192,143.914613 838.130239,140.718344 832.163353,137.768546 C815.412912,129.487775 795.93263,125.079847 775.640888,124.138043 C765.774669,124.12028 755.980464,124.091041 746.167442,124.091041 L746.167442,124.091116 Z M756.530686,142.139782 C768.015883,142.139782 779.348366,143.114515 788.190872,148.250008 C801.921908,156.210913 806.005049,172.657986 803.973427,188.295485 C802.715341,197.624675 799.557567,206.599465 792.421738,212.783389 C785.448373,218.807387 776.413724,220.270352 766.941468,221.47871 C745.968193,224.144197 724.277167,216.957865 718.310281,197.037808 C716.853783,192.222168 715.720055,186.940738 715.648163,181.574237 C715.773206,178.926528 715.901931,176.213889 716.028465,173.583943 C716.92709,172.606592 717.074297,170.128811 717.074297,168.742764 C717.793206,168.031962 718.167667,166.642065 718.167667,165.593648 C718.742791,165.078328 719.213499,164.12575 719.213499,163.290563 C719.626143,162.917391 719.831491,162.437688 719.831491,161.833509 C720.981739,160.945018 723.064062,157.856215 723.064062,156.381308 C724.717542,155.457276 725.614934,153.647822 726.962163,152.38616 C730.592623,149.027649 737.414414,144.865883 742.554567,144.865883 C743.057799,144.297244 743.855445,144.25486 744.646231,144.25486 C745.743282,143.082043 748.92789,143.17382 750.635996,143.17382 C751.911333,141.805536 754.967794,142.992732 756.530686,142.139782 L756.530686,142.139782 Z M753.82103,237.976319 C767.911528,237.976319 780.339587,238.187548 791.518519,243.287515 C815.367398,254.180456 817.572437,293.409894 801.07362,311.393028 C789.121137,324.542745 763.377074,326.852824 745.692063,322.250429 C741.648961,321.166471 737.592273,320.310288 733.99776,318.302283 C729.234304,315.583492 725.462129,312.075358 722.208382,307.63289 C717.607406,301.360121 714.950186,292.377255 714.554793,284.132022 C714.339116,279.494087 714.982634,274.861445 714.982634,270.454517 C715.862578,269.601568 716.028465,267.604107 716.028465,266.271363 C716.802001,265.507258 717.074297,264.053739 717.074297,262.93424 C717.77594,262.365602 718.167667,261.320178 718.167667,260.396146 C718.939773,259.738663 719.831491,258.13152 719.831491,257.012021 C721.719328,255.608196 722.951386,252.814639 724.300046,250.948798 C725.845686,248.816408 731.921035,243.851536 734.473139,243.851536 C735.353083,242.732037 737.705634,241.736458 739.179382,241.736458 C739.843649,240.972352 741.493462,240.702419 742.554567,240.702419 C743.3813,239.796151 745.47415,239.668381 746.785433,239.668381 C748.331074,238.033548 752.095658,239.433448 753.82103,237.976319 L753.82103,237.976319 Z" id="path2612" fill="#FFFFFF"></path>
            </g>
        </g>
    </g>
</svg>