<?xml version="1.0" encoding="iso-8859-1"?><!-- Generator: Adobe Illustrator 16.0.0, SVG Export Plug-In . SVG Version: 6.00 Build 0) --><!DOCTYPE svg PUBLIC "-//W3C//DTD SVG 1.1//EN" "http://www.w3.org/Graphics/SVG/1.1/DTD/svg11.dtd"><svg version="1.1" id="Layer_1" xmlns="http://www.w3.org/2000/svg" xmlns:xlink="http://www.w3.org/1999/xlink" x="0px" y="0px" width="192.756px" height="192.756px" viewBox="0 0 192.756 192.756" style="enable-background:new 0 0 192.756 192.756;" xml:space="preserve"><g><polygon style="fill-rule:evenodd;clip-rule:evenodd;fill:#FFFFFF;" points="0,0 192.756,0 192.756,192.756 0,192.756 0,0	"/><polygon style="fill-rule:evenodd;clip-rule:evenodd;fill:#F1E04A;stroke:#272727;stroke-width:2.7905;stroke-miterlimit:2.6131;" points="	65.692,37.978 46.555,36.314 46.555,36.314 46.555,36.647 11.249,67.594 8.609,109.521 37.646,145.129 48.534,146.127	175.238,156.441 184.146,47.627 65.692,37.978	"/><path style="fill-rule:evenodd;clip-rule:evenodd;fill:#FFFFFF;stroke:#272727;stroke-width:1.3953;stroke-miterlimit:2.6131;" d="	M25.767,89.889c0,2.663-2.31,4.992-4.949,4.992c-2.97,0-5.279-2.329-5.279-4.992c0-2.995,2.31-5.324,5.279-5.324	C23.458,84.565,25.767,86.894,25.767,89.889L25.767,89.889z"/><path style="fill:none;stroke:#B3465D;stroke-width:0.9472;stroke-miterlimit:2.6131;" d="M37.646,145.129L37.646,145.129	L37.646,145.129z"/><path style="fill-rule:evenodd;clip-rule:evenodd;fill:#272727;" d="M54.144,69.923l0.329-4.659l1.32,0.333	c1.979,0,4.949,0,4.619,2.662c0,1.997-2.64,1.997-4.949,1.997L54.144,69.923L54.144,69.923z M38.636,88.891l20.458,1.664	c7.589,0.665,15.507-0.999,16.167-7.654c0.33-3.993-2.31-6.655-6.929-8.319v-0.333c3.96-0.665,5.939-3.327,6.269-5.99	c0.66-7.653-7.589-9.65-15.838-10.315L41.275,56.28L38.636,88.891L38.636,88.891z M53.813,76.911h1.32	c2.64,0.333,6.269,0.666,6.269,3.328c-0.33,2.662-3.959,2.329-6.599,2.329l-1.649-0.332L53.813,76.911L53.813,76.911z"/><polygon style="fill-rule:evenodd;clip-rule:evenodd;fill:#272727;" points="79.22,59.608 107.268,61.937 106.607,70.589	93.739,69.591 93.409,72.918 105.287,73.917 104.627,82.236 92.749,81.237 92.418,84.565 105.947,85.563 105.287,94.548	76.581,91.886 79.22,59.608	"/><path style="fill-rule:evenodd;clip-rule:evenodd;fill:#272727;" d="M112.217,83.234l0.66,0.666	c2.639,1.664,5.607,3.328,9.238,3.661c1.318,0,3.959,0,3.959-1.664c0.33-1.331-1.65-1.664-3.299-1.997l-2.971-0.666	c-5.939-1.331-10.559-4.659-10.229-9.65c0.66-7.654,10.229-11.314,19.139-10.316c4.947,0.333,9.238,1.664,13.197,3.661	l-4.949,7.986c-2.311-1.331-5.279-2.662-8.578-2.995c-1.32-0.333-3.301,0-3.301,1.331c-0.33,1.331,1.65,1.664,2.971,1.997	l3.299,0.665c6.27,1.665,10.889,4.992,10.229,10.316c-0.66,7.653-9.898,10.982-19.137,9.982	c-5.279-0.332-11.219-1.996-15.838-3.993L112.217,83.234L112.217,83.234z"/><polygon style="fill-rule:evenodd;clip-rule:evenodd;fill:#272727;" points="142.572,64.599 174.578,67.261 173.588,77.91	165.34,76.911 163.359,99.207 148.182,97.875 150.162,75.581 141.582,75.248 142.572,64.599	"/><path style="fill-rule:evenodd;clip-rule:evenodd;fill:#272727;" d="M58.103,108.191l0.33-4.658h0.99	c2.31,0.332,4.949,0.332,4.949,2.662c-0.331,2.328-2.64,2.328-4.949,1.996H58.103L58.103,108.191z M42.265,127.158l20.787,1.664	c7.259,0.666,15.508-0.998,15.838-7.654c0.33-3.992-2.31-6.986-6.599-8.318v-0.332c3.629-0.666,5.608-3.328,5.939-6.322	c0.66-7.32-7.589-9.65-15.508-10.316l-17.818-1.331L42.265,127.158L42.265,127.158z M57.443,115.18h1.32	c2.64,0.332,6.599,0.332,6.27,3.328c-0.331,2.66-3.96,2.328-6.27,1.996h-1.65L57.443,115.18L57.443,115.18z"/><path style="fill-rule:evenodd;clip-rule:evenodd;fill:#272727;" d="M121.785,100.871l-1.65,19.299	c-0.66,9.318-8.908,12.979-20.457,11.98c-11.879-0.666-19.138-5.658-18.478-15.307l1.65-19.301l15.178,1.332l-1.32,18.301	c-0.33,2.33-0.33,4.658,3.63,4.992c4.289,0.332,4.619-1.998,4.619-4.326l1.65-18.303L121.785,100.871L121.785,100.871z"/><path style="fill-rule:evenodd;clip-rule:evenodd;fill:#272727;" d="M138.943,102.201l3.959,8.984h0.66	c0.33-0.998,0.99-1.996,1.65-2.994l3.299-4.992l17.156,1.332l-15.838,17.303l-1.318,13.977l-14.85-1.33l1.32-13.977l-13.197-19.633	L138.943,102.201L138.943,102.201z"/></g></svg>