<?xml version="1.0" encoding="UTF-8" standalone="no"?>
<svg width="624px" height="512px" viewBox="0 0 624 512" version="1.1" xmlns="http://www.w3.org/2000/svg" xmlns:xlink="http://www.w3.org/1999/xlink">
    <!-- Generator: Sketch 3.6.1 (26313) - http://www.bohemiancoding.com/sketch -->
    <title>betis</title>
    <desc>Created with Sketch.</desc>
    <defs></defs>
    <g id="Page-1" stroke="none" stroke-width="1" fill="none" fill-rule="evenodd">
        <g id="betis">
            <path d="M392.757732,202.267527 C371.839505,181.978013 343.335969,169.465394 311.960833,169.465394 C280.590097,169.465394 252.089865,181.978013 231.173839,202.267527 L0.364235699,202.267527 L311.96854,511.620129 L623.572838,202.267527 L392.757732,202.267527 L392.757732,202.267527 Z" id="path3" fill="#DE9500"></path>
            <path d="M311.960833,180.296671 C370.010618,180.296671 417.255556,227.527295 417.255556,285.589196 C417.255556,343.647794 370.010618,390.87071 311.960833,390.87071 C253.909942,390.87071 206.681521,343.646692 206.681521,285.589196 C206.681521,227.526194 253.909942,180.296671 311.960833,180.296671" id="path5" fill="#FFFFFF"></path>
            <path d="M263.330742,265.166452 L272.034742,265.166452 L272.034742,251.962357 L263.330742,251.962357 L263.330742,236.067234 L288.838252,236.067234 L288.838252,279.559708 L263.330742,279.559708 L263.330742,265.166452 L263.330742,265.166452 Z M263.330742,322.463105 L272.034742,322.463105 L272.034742,309.273325 L263.330742,309.273325 L263.330742,295.165247 L288.838252,295.165247 L288.838252,337.486176 L263.330742,337.486176 L263.330742,322.463105 L263.330742,322.463105 Z M334.744279,337.485075 L303.844807,337.485075 L303.844807,295.164146 L309.85888,295.164146 L309.85888,299.676353 L318.555172,299.676353 L318.555172,295.164146 L330.861887,295.164146 C334.26421,295.164146 334.743178,301.232172 334.743178,301.232172 L334.743178,337.485075 L334.744279,337.485075 Z M334.744279,270.679535 L334.696932,272.663673 C334.696932,272.663673 333.934988,279.461712 329.508666,279.560809 L318.556273,279.560809 L318.556273,273.868249 L309.859981,273.868249 L309.859981,279.560809 L303.845908,279.560809 L303.845908,236.068335 L334.74538,236.068335 L334.74538,270.679535 L334.744279,270.679535 Z M372.758902,323.670985 C371.976038,325.94911 367.920778,337.365058 363.561621,337.365058 C363.338102,337.365058 363.201569,337.452043 363.055126,337.486176 L348.241259,337.486176 L348.241259,300.577032 L348.156477,300.577032 C347.95498,298.126039 346.908958,295.493368 346.752606,295.165247 L362.108201,295.165247 C363.319384,295.284163 373.374403,299.215002 373.417345,311.673669 L363.562722,311.673669 L363.562722,323.670985 L372.758902,323.670985 L372.758902,323.670985 Z M373.441569,264.870262 L373.441569,264.885677 C373.441569,264.885677 368.039694,279.545394 363.309474,279.545394 L362.98796,279.559708 L346.222988,279.559708 C346.467427,279.079639 348.241259,275.709247 348.241259,272.662572 L348.241259,236.066133 L362.555238,236.066133 C362.810687,236.150916 373.441569,239.901178 373.441569,252.857531 L363.561621,252.857531 L363.561621,264.869161 L373.441569,264.869161 L373.441569,264.870262 Z M396.578464,252.858632 L387.63553,252.858632 C387.63553,252.761738 385.779117,229.133763 368.047401,221.364576 L348.966868,221.364576 L348.966868,220.893316 C348.966868,201.762133 334.943573,197.833497 324.725595,197.833497 C314.517529,197.833497 309.76639,202.107871 309.76639,202.107871 L309.76639,215.903243 C309.76639,215.903243 310.008626,211.043097 323.22263,211.043097 C337.944003,211.043097 335.05258,221.355768 335.05258,221.355768 L335.05258,221.363475 L303.844807,221.363475 L303.844807,212.945755 C303.844807,198.674718 296.623955,194.931062 288.184213,194.931062 L282.242811,194.949781 L282.242811,210.254727 L285.833417,210.254727 C288.228256,210.254727 288.731448,212.040671 288.838252,213.276077 L288.838252,221.362374 L240.832471,221.362374 L240.832471,236.063931 L251.348841,236.063931 L251.348841,251.959054 L240.832471,251.959054 L240.832471,265.163148 L251.348841,265.163148 L251.348841,279.556404 L240.832471,279.556404 L240.832471,295.161944 L251.348841,295.161944 L251.348841,309.270022 L240.832471,309.270022 L240.832471,322.459802 L251.348841,322.459802 L251.348841,337.482873 L240.832471,337.482873 L240.832471,350.686968 L288.092824,350.686968 L288.092824,354.430624 C288.092824,356.982916 285.833417,356.674615 285.833417,356.674615 L281.062458,356.674615 L281.062458,371.980662 L290.636308,371.980662 C294.572652,371.980662 303.547516,367.907785 303.547516,357.86708 L303.547516,352.479518 L303.562931,350.685867 L334.84778,350.685867 C334.84778,357.671088 331.190008,360.987527 321.59414,360.987527 C312.002673,360.987527 309.305039,356.358606 309.305039,356.358606 L309.305039,370.270692 C312.153521,373.443991 323.874464,374.345772 323.874464,374.345772 C347.694025,374.345772 348.39541,354.429523 348.305122,350.685867 L369.539358,350.685867 C369.539358,350.685867 384.611978,344.333763 386.607126,323.666581 L396.577363,323.666581 L396.577363,311.669265 L387.264468,311.669265 C387.243548,310.797213 386.784399,291.562529 376.636889,286.060456 C376.636889,286.060456 386.389113,280.544069 386.477199,264.881273 L386.407831,264.865858 L396.578464,264.865858 L396.578464,252.858632 L396.578464,252.858632 Z" id="path7" fill="#00954C"></path>
            <path d="M70.5434701,213.098804 L70.5434701,256.677161 L114.438937,300.255518 L114.438937,213.098804 L70.5434701,213.098804 Z" id="polygon9" fill="#00954C"></path>
            <path d="M70.5434701,256.677161 L70.5434701,213.098804 L26.6480034,213.098804 L26.6480034,213.098804 L70.5434701,256.677161 Z" id="polygon11" fill="#FFFFFF"></path>
            <path d="M195.850243,285.589196 C195.850243,272.313531 198.108549,259.560877 202.229873,247.670366 L202.229873,213.098804 L158.334407,213.098804 L158.334407,343.833875 L202.229873,387.411131 L202.229873,323.550968 C198.100841,311.650546 195.850243,298.878073 195.850243,285.589196 L195.850243,285.589196 Z" id="path13" fill="#00954C"></path>
            <path d="M158.334403,213.098804 L114.438937,213.098804 L114.438937,300.255518 L158.334403,343.833875 L158.334403,213.098804 Z" id="polygon15" fill="#FFFFFF"></path>
            <path d="M246.12534,381.176843 L246.12534,430.989488 L290.020807,474.567845 L290.020807,399.613247 C273.97814,396.531338 259.09931,390.141798 246.12534,381.176843 L246.12534,381.176843 Z" id="path17" fill="#00954C"></path>
            <path d="M202.229873,323.550968 L202.229873,387.411131 L246.12534,430.989488 L246.12534,381.176843 C225.963551,367.24714 210.403155,347.112877 202.229873,323.550968 L202.229873,323.550968 Z" id="path19" fill="#FFFFFF"></path>
            <path d="M221.32362,213.098804 L202.229873,213.098804 L202.229873,247.670366 C206.615456,235.020112 213.1118,223.347613 221.32362,213.098804 L221.32362,213.098804 Z" id="path21" fill="#FFFFFF"></path>
            <path d="M333.91627,399.611045 L333.91627,474.567845 L377.811737,430.989488 L377.811737,381.172439 C364.837767,390.137394 349.958937,396.528034 333.91627,399.611045 L333.91627,399.611045 Z" id="path23" fill="#00954C"></path>
            <path d="M311.960833,401.701987 C304.460308,401.701987 297.128248,400.978581 290.020807,399.614348 L290.020807,474.568946 L311.96854,496.358125 L333.91627,474.568946 L333.91627,399.611045 C326.804425,400.976378 319.465762,401.701987 311.960833,401.701987 L311.960833,401.701987 Z" id="path25" fill="#FFFFFF"></path>
            <path d="M421.707203,213.098804 L421.707203,247.672568 C425.828528,259.561978 428.086834,272.314632 428.086834,285.589196 C428.086834,298.876972 425.836236,311.648344 421.707203,323.549867 L421.707203,387.412232 L465.60267,343.833875 L465.60267,213.098804 L421.707203,213.098804 L421.707203,213.098804 Z" id="path27" fill="#00954C"></path>
            <path d="M377.811737,381.172439 L377.811737,430.989488 L421.707203,387.411131 L421.707203,323.548766 C413.532821,347.108473 397.973526,367.241634 377.811737,381.172439 L377.811737,381.172439 Z" id="path29" fill="#FFFFFF"></path>
            <path d="M402.610154,213.098804 C410.823074,223.348714 417.32052,235.021213 421.707203,247.672568 L421.707203,213.098804 L402.610154,213.098804 L402.610154,213.098804 Z" id="path31" fill="#FFFFFF"></path>
            <path d="M509.498137,300.254417 L553.393603,256.677161 L553.393603,213.098804 L509.498137,213.098804 L509.498137,300.254417 Z" id="polygon33" fill="#00954C"></path>
            <path d="M509.498137,213.098804 L465.60267,213.098804 L465.60267,343.832774 L509.498137,300.254417 L509.498137,213.098804 Z" id="polygon35" fill="#FFFFFF"></path>
            <path d="M597.28907,213.098804 L553.393603,213.098804 L553.393603,256.677161 L597.28907,213.098804 Z" id="polygon37" fill="#FFFFFF"></path>
            <path d="M298.104901,113.222469 C298.104901,108.214778 300.80694,103.845712 304.818157,101.456378 L304.818157,70.6813247 C279.979,71.7603785 257.477426,78.5330925 240.214768,89.0935054 C241.950063,96.1205677 246.369779,102.845935 253.083035,108.686039 C254.770983,107.931802 256.637306,107.504585 258.611534,107.504585 C266.181426,107.504585 272.312213,113.639776 272.312213,121.211871 C272.312213,126.633566 269.151026,131.30763 264.581564,133.527398 L264.654235,133.702469 C265.941392,136.291097 268.158957,138.23009 270.903938,139.152791 C273.643413,140.072189 276.579981,139.870692 279.176316,138.585738 C281.771551,137.29748 283.701736,135.07551 284.621134,132.33163 C284.76097,131.934142 284.860067,131.526744 284.94485,131.111639 C282.804359,130.169118 281.686768,127.743449 282.443207,125.478538 C283.250295,123.071587 285.863147,121.783329 288.264592,122.59372 C290.664936,123.397505 291.957598,126.002649 291.152712,128.410701 C290.85322,129.284955 290.320299,130.008361 289.644239,130.540181 C290.915981,132.944929 293.056471,134.853092 295.715568,135.740559 C298.458347,136.661058 301.391611,136.463966 303.987947,135.172404 C306.583181,133.885247 308.508962,131.670985 309.432764,128.923802 C309.677202,128.219114 309.807129,127.499011 309.895215,126.774503 C303.240316,125.835286 298.104901,120.141626 298.104901,113.222469" id="path39" fill="#D7013E"></path>
            <path d="M258.610433,134.908146 C251.04054,134.908146 244.90645,128.776258 244.90645,121.211871 C244.90645,120.978443 244.928471,120.746116 244.949392,120.51489 C236.998527,113.913944 231.241005,106.215226 228.030269,97.9307355 C216.337951,107.980249 208.592987,120.179062 206.377624,133.499871 C207.593211,133.143123 208.867155,132.944929 210.204962,132.944929 C217.764944,132.944929 223.899035,139.076817 223.899035,146.644508 C223.899035,150.182262 222.544712,153.407312 220.334854,155.839587 C222.281555,157.709213 224.914226,158.857634 227.819964,158.857634 C233.789994,158.857634 238.651241,153.99969 238.651241,148.02966 C238.651241,147.602443 238.614906,147.18954 238.563155,146.774434 C236.235482,146.550916 234.405495,144.616327 234.405495,142.224791 C234.405495,139.687914 236.459,137.633308 238.993676,137.633308 C241.533856,137.633308 243.585159,139.687914 243.585159,142.224791 C243.585159,143.146391 243.310992,144.006331 242.839731,144.725333 C244.815061,146.602667 247.451035,147.72246 250.251069,147.72246 C256.228807,147.72246 261.084549,142.866718 261.084549,136.895587 C261.084549,136.150159 260.989856,135.424551 260.841211,134.711054 C260.108996,134.82997 259.37568,134.908146 258.610433,134.908146" id="path41" fill="#D7013E"></path>
            <path d="M325.832175,113.222469 C325.832175,108.214778 323.13014,103.845712 319.118923,101.456378 L319.118923,70.6813247 C343.958077,71.7603785 366.459651,78.5330925 383.722309,89.0935054 C381.987014,96.1205677 377.567298,102.845935 370.854042,108.686039 C369.166094,107.931802 367.299771,107.504585 365.325543,107.504585 C357.755651,107.504585 351.624864,113.639776 351.624864,121.211871 C351.624864,126.633566 354.786051,131.30763 359.355513,133.527398 L359.282842,133.702469 C357.995685,136.291097 355.77812,138.23009 353.033139,139.152791 C350.293664,140.072189 347.357096,139.870692 344.76076,138.585738 C342.165526,137.29748 340.235341,135.07551 339.315943,132.33163 C339.176107,131.934142 339.07701,131.526744 338.992227,131.111639 C341.132717,130.169118 342.250309,127.743449 341.49387,125.478538 C340.686782,123.071587 338.07393,121.783329 335.672485,122.59372 C333.272141,123.397505 331.979479,126.002649 332.784365,128.410701 C333.083857,129.284955 333.616778,130.008361 334.292838,130.540181 C333.021096,132.944929 330.880606,134.853092 328.221509,135.740559 C325.47873,136.661058 322.545469,136.463966 319.949134,135.172404 C317.353899,133.885247 315.428119,131.670985 314.504316,128.923802 C314.259878,128.219114 314.129951,127.499011 314.041865,126.774503 C320.696764,125.835286 325.832175,120.141626 325.832175,113.222469" id="path43" fill="#D7013E"></path>
            <path d="M365.326644,134.908146 C372.896537,134.908146 379.030627,128.776258 379.030627,121.211871 C379.030627,120.978443 379.008606,120.746116 378.987685,120.51489 C386.93855,113.913944 392.696072,106.215226 395.906808,97.9307355 C407.599126,107.980249 415.344089,120.179062 417.559453,133.499871 C416.343866,133.143123 415.069922,132.944929 413.732115,132.944929 C406.172132,132.944929 400.038042,139.076817 400.038042,146.644508 C400.038042,150.182262 401.392365,153.407312 403.602223,155.839587 C401.655522,157.709213 399.022851,158.857634 396.117113,158.857634 C390.147083,158.857634 385.285836,153.99969 385.285836,148.02966 C385.285836,147.602443 385.322171,147.18954 385.373922,146.774434 C387.701595,146.550916 389.531582,144.616327 389.531582,142.224791 C389.531582,139.687914 387.478077,137.633308 384.943401,137.633308 C382.403221,137.633308 380.351917,139.687914 380.351917,142.224791 C380.351917,143.146391 380.626085,144.006331 381.097345,144.725333 C379.122016,146.602667 376.486042,147.72246 373.686008,147.72246 C367.70827,147.72246 362.852528,142.866718 362.852528,136.895587 C362.852528,136.150159 362.947221,135.424551 363.095866,134.711054 C363.828081,134.82997 364.561397,134.908146 365.326644,134.908146" id="path45" fill="#D7013E"></path>
            <path d="M447.793879,107.715991 C447.793879,94.7288086 442.15307,82.2613333 431.90316,72.6258237 C420.914429,62.2658065 406.112674,56.5071828 389.7551,56.0623484 C377.142283,38.5068043 352.324046,25.8136086 322.963878,23.2062624 C322.931947,18.198572 319.613306,13.9781505 315.049349,12.5874925 L315.049349,10.4965505 L320.517288,10.488843 L320.511783,4.22923011 L315.031731,4.23693763 L315.029529,4.4408921e-16 L311.96854,0.00330322581 L308.907551,4.4408921e-16 L308.905349,4.23693763 L303.425297,4.22923011 L303.419792,10.488843 L308.887731,10.4965505 L308.887731,12.5874925 C304.322673,13.9781505 301.005134,18.198572 300.973202,23.2062624 C271.61303,25.8136086 246.794794,38.5068043 234.181977,56.0623484 C217.824403,56.5071828 203.022648,62.2658065 192.033916,72.6258237 C181.784007,82.2613333 176.143198,94.7288086 176.143198,107.715991 C176.143198,121.84609 183.517099,135.241772 196.722295,145.701987 C196.701374,146.01249 196.673848,146.325196 196.673848,146.643406 C196.673848,154.202288 202.811241,160.338581 210.381134,160.338581 C211.886304,160.338581 213.334218,160.088637 214.692944,159.639398 C215.812738,161.849256 219.499138,167.458133 228.162398,167.625497 C227.626174,168.009772 227.074536,168.377531 226.53611,168.772817 C225.104712,169.859578 223.004962,172.863312 225.322725,176.486951 C226.400678,178.157282 227.978519,179.037041 229.89439,179.037041 C230.564944,179.037041 231.191456,178.921428 231.719972,178.782692 L238.738226,188.380766 L240.137693,187.357867 C261.117581,171.986856 285.950131,163.854314 311.966338,163.854314 C337.982541,163.854314 362.816193,171.986856 383.79498,187.357867 L385.194446,188.380766 L392.2127,178.782692 C392.741216,178.921428 393.367728,179.037041 394.038283,179.037041 C395.954154,179.037041 397.531995,178.156181 398.609948,176.486951 C400.927711,172.863312 398.82796,169.859578 397.396563,168.772817 C396.859238,168.37643 396.307599,168.008671 395.770274,167.625497 C404.433535,167.458133 408.121036,161.849256 409.239728,159.639398 C410.598455,160.089738 412.046369,160.338581 413.551539,160.338581 C421.121431,160.338581 427.258825,154.201187 427.258825,146.643406 C427.258825,146.325196 427.231298,146.01249 427.210378,145.701987 C440.419978,135.241772 447.793879,121.84609 447.793879,107.715991 L447.793879,107.715991 Z M250.429443,147.716955 C247.625005,147.716955 244.990131,146.597161 243.014802,144.718727 C243.486063,144.001927 243.764635,143.144189 243.764635,142.220387 C243.764635,139.685712 241.708927,137.631105 239.168747,137.631105 C236.636273,137.631105 234.580566,139.685712 234.580566,142.220387 C234.580566,144.614125 236.410553,146.548714 238.740428,146.772232 C238.789977,147.185135 238.826312,147.59914 238.826312,148.027458 C238.826312,153.998589 233.967267,158.854331 227.995035,158.854331 C225.089297,158.854331 222.456626,157.70591 220.512127,155.836284 C222.719783,153.406211 224.076308,150.178959 224.076308,146.643406 C224.076308,139.075716 217.941117,132.943828 210.381134,132.943828 C209.043327,132.943828 207.769383,133.139819 206.555998,133.49877 C205.982338,133.668335 205.422992,133.856619 204.881263,134.095553 C195.506708,126.457394 190.288712,117.190744 190.288712,107.71489 C190.288712,98.6684559 194.349478,89.8576516 201.723379,82.9252817 C208.443241,76.5985032 217.116411,72.5179183 226.875241,70.934572 C225.817108,74.6363871 225.251155,78.4604215 225.251155,82.3747441 C225.251155,87.7006452 226.266347,92.9197419 228.208643,97.9285333 C231.417177,106.214125 237.1758,113.910641 245.125564,120.510486 C245.103542,120.742813 245.082622,120.974039 245.082622,121.208568 C245.082622,128.775157 251.220015,134.904843 258.786605,134.904843 C259.54965,134.904843 260.285168,134.825566 261.018484,134.707751 C261.160523,135.419045 261.258519,136.146856 261.258519,136.888981 C261.25962,142.862314 256.403878,147.716955 250.429443,147.716955 L250.429443,147.716955 Z M309.607835,128.923802 C308.684033,131.669884 306.758252,133.885247 304.16522,135.172404 C301.571086,136.460662 298.631215,136.658856 295.892841,135.738357 C293.231542,134.849789 291.092153,132.943828 289.821512,130.537978 C290.49537,130.008361 291.030493,129.284955 291.327783,128.408499 C292.131568,126.000447 290.840007,123.395303 288.439663,122.59372 C286.034914,121.783329 283.425366,123.072688 282.614974,125.478538 C281.861839,127.743449 282.97943,130.165815 285.122123,131.111639 C285.03734,131.526744 284.932738,131.934142 284.796205,132.33163 C283.876807,135.073308 281.943319,137.29748 279.351387,138.585738 C276.756153,139.870692 273.819585,140.072189 271.079009,139.150589 C268.33623,138.226787 266.116463,136.289996 264.829306,133.70357 L264.756635,133.524095 C269.326097,131.305428 272.487284,126.631363 272.487284,121.209669 C272.487284,113.639776 266.356497,107.502383 258.786605,107.502383 C256.812377,107.502383 254.947155,107.932903 253.255904,108.686039 C246.545951,102.845935 242.127336,96.1205677 240.39094,89.0935054 C239.844807,86.8770409 239.558527,84.6363527 239.558527,82.3758452 C239.558527,59.2862968 268.84823,39.5594323 304.991026,37.2251527 L304.991026,101.454176 C300.983112,103.845712 298.281073,108.213677 298.281073,113.222469 C298.281073,120.141626 303.413185,125.835286 310.069185,126.774503 C309.979998,127.49791 309.84897,128.216912 309.607835,128.923802 L309.607835,128.923802 Z M359.10667,133.70357 C357.819513,136.289996 355.599745,138.226787 352.856967,139.150589 C350.117492,140.072189 347.180924,139.870692 344.584588,138.585738 C341.992657,137.29748 340.059169,135.074409 339.139771,132.33163 C339.003238,131.934142 338.898636,131.526744 338.813853,131.111639 C340.956545,130.166916 342.074137,127.743449 341.321001,125.478538 C340.51061,123.071587 337.901062,121.783329 335.496313,122.59372 C333.095969,123.395303 331.803307,126.000447 332.608193,128.408499 C332.906584,129.284955 333.440606,130.008361 334.114464,130.537978 C332.844924,132.944929 330.704434,134.85089 328.043135,135.738357 C325.305862,136.658856 322.365994,136.461763 319.770759,135.172404 C317.177727,133.885247 315.251947,131.668783 314.328144,128.923802 C314.087009,128.216912 313.955981,127.499011 313.865693,126.774503 C320.521693,125.835286 325.653801,120.141626 325.653801,113.222469 C325.653801,108.214778 322.951766,103.845712 318.943852,101.454176 L318.943852,37.2251527 C355.086644,39.5605333 384.376348,59.2862968 384.376348,82.3758452 C384.376348,84.6363527 384.090068,86.8770409 383.543935,89.0935054 C381.80864,96.1205677 377.388924,102.845935 370.678971,108.686039 C368.98772,107.931802 367.122498,107.502383 365.14827,107.502383 C357.578378,107.502383 351.447591,113.639776 351.447591,121.209669 C351.447591,126.631363 354.608778,131.305428 359.17824,133.524095 L359.10667,133.70357 L359.10667,133.70357 Z M419.054713,134.096654 C418.514085,133.856619 417.953638,133.669437 417.379978,133.499871 C416.166593,133.14092 414.892649,132.944929 413.554842,132.944929 C405.994859,132.944929 399.859668,139.076817 399.859668,146.644508 C399.859668,150.18006 401.216193,153.407312 403.423849,155.837385 C401.47935,157.707011 398.846679,158.855432 395.940941,158.855432 C389.968709,158.855432 385.109664,153.99969 385.109664,148.028559 C385.109664,147.601342 385.145999,147.186237 385.195548,146.773333 C387.525423,146.549815 389.35541,144.615226 389.35541,142.221488 C389.35541,139.686813 387.299702,137.632206 384.767229,137.632206 C382.227049,137.632206 380.171341,139.686813 380.171341,142.221488 C380.171341,143.14529 380.449913,144.003028 380.921173,144.719828 C378.945844,146.598262 376.30987,147.718056 373.506532,147.718056 C367.532098,147.718056 362.676356,142.862314 362.676356,136.891183 C362.676356,136.147957 362.774352,135.420146 362.916391,134.709953 C363.649707,134.826667 364.385225,134.907045 365.14827,134.907045 C372.714859,134.907045 378.852253,128.777359 378.852253,121.21077 C378.852253,120.976241 378.830231,120.745015 378.809311,120.512688 C386.760175,113.912843 392.517698,106.216327 395.726231,97.9307355 C397.668528,92.9219441 398.68372,87.7028473 398.68372,82.3769462 C398.68372,78.4637247 398.117767,74.6396903 397.059634,70.9367742 C406.817363,72.5201204 415.491634,76.6007054 422.211496,82.9274839 C429.585397,89.8598538 433.646163,98.6706581 433.646163,107.717092 C433.647264,117.191845 428.429268,126.458495 419.054713,134.096654 L419.054713,134.096654 Z" id="path47" fill="#DE9500"></path>
        </g>
    </g>
</svg>