<?xml version="1.0" encoding="utf-8"?>
<!-- Generator: Adobe Illustrator 19.2.0, SVG Export Plug-In . SVG Version: 6.00 Build 0)  -->
<svg version="1.1" id="Layer_1" xmlns="http://www.w3.org/2000/svg" xmlns:xlink="http://www.w3.org/1999/xlink" x="0px" y="0px"
	 viewBox="0 0 380 115.2" style="enable-background:new 0 0 380 115.2;" xml:space="preserve">
<style type="text/css">
	.st0{fill:#1B1D1E;}
</style>
<path class="st0" d="M234.1,74.6c-1.3,10.5,1.2,17.3,9.1,20.3c6.9-2,14.9-3.9,23.8-5.3l1.2-9.8c-1,0.2-3.5,0.7-6.2,0.7
	c-6.5,0-8.1-2.6-7.5-7.6l3-23.9h25.4l-3.2,25.6c-0.7,5.4-0.4,9.8,1.2,13.2c9.7-1,20.4-1.5,32.1-1.3l0.8-6.8c-1,0.2-3.5,0.7-6.2,0.7
	c-6.5,0-8.1-2.6-7.5-7.6l3-23.9h15.7l2-17h-15.7l2.2-17.8l-20.9,5.4L284.9,32h-25.4l2.2-17.8l-20.9,5.4l-1.6,13l-10.5,2.9L227,49
	h10.3L234.1,74.6L234.1,74.6z M322.9,86.8c13.1,0.7,27.5,2.2,43,4.8c8.5-5.7,12.3-15.7,13.8-28.2c2.4-19.7-2.2-33.3-25.6-33.3
	c-23.5,0-31.6,13.6-34,33.3C319,72.9,319.5,81,322.9,86.8L322.9,86.8z M340.4,63.5c1.5-12.6,4.7-17.2,11.7-17.2s8.9,4.5,7.4,17.2
	c-1.5,12.6-4.7,17.2-11.7,17.2C340.8,80.6,338.9,76.1,340.4,63.5z M218.9,76.6c-4.8,2.3-12.2,4.1-21.7,4.1
	c-9.9,0-13.8-1.7-12.3-10.7h9.6c19.5,0,28.8-7.1,30.3-20c1.6-12.9-5.8-19.9-25.4-19.9s-31.1,10.6-33.8,33.3
	c-2.8,22.7,6.1,33.3,27,33.3c7.6,0,16.6-1.4,24.3-4.4L218.9,76.6L218.9,76.6z M197.8,45.4c5.7,0,7.5,3.1,7.1,6.2
	c-0.4,3.2-2.9,6.4-8.6,6.4h-9.9C187.3,50,190.9,45.4,197.8,45.4z M44.3,30.2c-7,0-12.3,1.6-16.4,3.8l4.2-34H11.9L0.3,95h12.2l3.9-5
	c4.1,3.8,9.6,6.8,19.8,6.8c16.5,0,25.9-10.1,28.7-33.3C67.7,40.2,60.8,30.2,44.3,30.2z M44.8,63.5c-1.3,10.8-4.1,16.9-13.4,16.9
	c-5.1,0-8.7-2.6-8.7-2.6l3.6-28.5c0,0,4.3-2.6,9.4-2.6C44.8,46.6,46.2,52.7,44.8,63.5z M132.1,0h-20.2l-9.6,78
	c-1.5,12.2,6.5,17.9,17.4,17.9c3.2,0,5.8-0.5,5.8-0.5l2-16.2c-4.1,0-5.1-1.6-4.7-4C122.8,75.2,132.1,0,132.1,0L132.1,0z M88.2,1.6
	c-6.8,0-12,5.3-12,12c0,6.8,5.2,12,12,12c6.7,0,12-5.2,12-12C100.2,6.9,94.8,1.6,88.2,1.6z M95.8,32H75.7L70,78.3
	C68.4,90.5,76.4,96,87.3,96c3.2,0,5.8-0.5,5.8-0.5l2-16.3c-4.1,0-5.1-1.3-4.7-3.7C90.6,75.5,95.8,32,95.8,32z M164.4,0h-20.2
	l-9.6,78c-1.5,12.2,6.5,17.9,17.4,17.9c3.2,0,5.8-0.5,5.8-0.5l2-16.2c-4.1,0-5.1-1.6-4.7-4C155.1,75.2,164.4,0,164.4,0z
	 M216.8,115.2c67-27.1,156,0,156,0l7.5-12C266.4,78.9,216.8,115.2,216.8,115.2L216.8,115.2z"/>
</svg>
