<?xml version="1.0" encoding="UTF-8" standalone="no"?>
<svg width="1678px" height="509px" viewBox="0 0 1678 509" version="1.1" xmlns="http://www.w3.org/2000/svg" xmlns:xlink="http://www.w3.org/1999/xlink">
    <!-- Generator: Sketch 3.6.1 (26313) - http://www.bohemiancoding.com/sketch -->
    <title>Billetto</title>
    <desc>Created with Sketch.</desc>
    <defs></defs>
    <g id="Page-1" stroke="none" stroke-width="1" fill="none" fill-rule="evenodd">
        <g id="Billetto" transform="translate(-1.000000, 0.000000)" fill="#1B1D1E">
            <path d="M1033.26897,329.268966 C1027.53103,375.613793 1038.56552,405.627586 1073.43448,418.868966 C1103.88966,410.041379 1139.2,401.655172 1178.48276,395.475862 L1183.77931,352.22069 C1179.36552,353.103448 1168.33103,355.310345 1156.41379,355.310345 C1127.72414,355.310345 1120.66207,343.834483 1123.31034,321.765517 L1136.55172,216.275862 L1248.66207,216.275862 L1234.53793,329.268966 C1231.44828,353.103448 1232.77241,372.524138 1239.83448,387.531034 C1282.64828,383.117241 1329.87586,380.910345 1381.51724,381.793103 L1385.04828,351.77931 C1380.63448,352.662069 1369.6,354.868966 1357.68276,354.868966 C1328.9931,354.868966 1321.93103,343.393103 1324.57931,321.324138 L1337.82069,215.834483 L1407.11724,215.834483 L1415.94483,140.8 L1346.64828,140.8 L1356.35862,62.2344828 L1264.11034,86.0689655 L1257.48966,141.241379 L1145.37931,141.241379 L1155.08966,62.6758621 L1062.84138,86.5103448 L1055.77931,143.889655 L1009.43448,156.689655 L1001.93103,216.275862 L1047.3931,216.275862 L1033.26897,329.268966 L1033.26897,329.268966 L1033.26897,329.268966 Z M1425.21379,383.117241 C1483.03448,386.206897 1546.5931,392.827586 1615.0069,404.303448 C1652.52414,379.144828 1669.29655,335.006897 1675.91724,279.834483 C1686.51034,192.882759 1666.2069,132.855172 1562.92414,132.855172 C1459.2,132.855172 1423.44828,192.882759 1412.85517,279.834483 C1408,321.765517 1410.2069,357.517241 1425.21379,383.117241 L1425.21379,383.117241 L1425.21379,383.117241 Z M1502.45517,280.275862 C1509.07586,224.662069 1523.2,204.358621 1554.09655,204.358621 C1584.9931,204.358621 1593.37931,224.22069 1586.75862,280.275862 C1580.13793,335.889655 1566.01379,356.193103 1535.11724,356.193103 C1504.22069,355.751724 1495.83448,335.889655 1502.45517,280.275862 L1502.45517,280.275862 Z M966.17931,338.096552 C944.993103,348.248276 912.331034,356.193103 870.4,356.193103 C826.703448,356.193103 809.489655,348.689655 816.110345,308.965517 L858.482759,308.965517 C944.551724,308.965517 985.6,277.627586 992.22069,220.689655 C999.282759,163.751724 966.62069,132.855172 880.110345,132.855172 C793.6,132.855172 742.841379,179.641379 730.924138,279.834483 C718.565517,380.027586 757.848276,426.813793 850.096552,426.813793 C883.641379,426.813793 923.365517,420.634483 957.351724,407.393103 L966.17931,338.096552 L966.17931,338.096552 L966.17931,338.096552 Z M873.048276,200.386207 C898.206897,200.386207 906.151724,214.068966 904.386207,227.751724 C902.62069,241.875862 891.586207,256 866.427586,256 L822.731034,256 C826.703448,220.689655 842.593103,200.386207 873.048276,200.386207 L873.048276,200.386207 Z M195.531034,133.296552 C164.634483,133.296552 141.241379,140.358621 123.144828,150.068966 L141.682759,0 L52.5241379,0 L1.32413793,419.310345 L55.1724138,419.310345 L72.3862069,397.241379 C90.4827586,414.013793 114.758621,427.255172 159.77931,427.255172 C232.606897,427.255172 274.096552,382.675862 286.455172,280.275862 C298.813793,177.434483 268.358621,133.296552 195.531034,133.296552 L195.531034,133.296552 Z M197.737931,280.275862 C192,327.944828 179.641379,354.868966 138.593103,354.868966 C116.082759,354.868966 100.193103,343.393103 100.193103,343.393103 L116.082759,217.6 C116.082759,217.6 135.062069,206.124138 157.572414,206.124138 C197.737931,205.682759 203.917241,232.606897 197.737931,280.275862 L197.737931,280.275862 Z M583.062069,0 L493.903448,0 L451.531034,344.275862 C444.910345,398.124138 480.22069,423.282759 528.331034,423.282759 C542.455172,423.282759 553.931034,421.075862 553.931034,421.075862 L562.758621,349.572414 C544.662069,349.572414 540.248276,342.510345 542.013793,331.917241 C542.013793,331.917241 583.062069,0 583.062069,0 L583.062069,0 L583.062069,0 Z M389.296552,7.06206897 C359.282759,7.06206897 336.331034,30.4551724 336.331034,60.0275862 C336.331034,90.0413793 359.282759,112.993103 389.296552,112.993103 C418.868966,112.993103 442.262069,90.0413793 442.262069,60.0275862 C442.262069,30.4551724 418.427586,7.06206897 389.296552,7.06206897 L389.296552,7.06206897 Z M422.841379,141.241379 L334.124138,141.241379 L308.965517,345.6 C301.903448,399.448276 337.213793,423.724138 385.324138,423.724138 C399.448276,423.724138 410.924138,421.517241 410.924138,421.517241 L419.751724,349.572414 C401.655172,349.572414 397.241379,343.834483 399.006897,333.241379 C399.889655,333.241379 422.841379,141.241379 422.841379,141.241379 L422.841379,141.241379 Z M725.627586,0 L636.468966,0 L594.096552,344.275862 C587.475862,398.124138 622.786207,423.282759 670.896552,423.282759 C685.02069,423.282759 696.496552,421.075862 696.496552,421.075862 L705.324138,349.572414 C687.227586,349.572414 682.813793,342.510345 684.57931,331.917241 C684.57931,331.917241 725.627586,0 725.627586,0 L725.627586,0 Z M956.910345,508.468966 C1252.63448,388.855172 1645.46207,508.468966 1645.46207,508.468966 L1678.56552,455.503448 C1175.83448,348.248276 956.910345,508.468966 956.910345,508.468966 L956.910345,508.468966 L956.910345,508.468966 Z" id="Shape"></path>
        </g>
    </g>
</svg>