<?xml version="1.0" encoding="UTF-8" standalone="no"?>
<svg width="2943px" height="495px" viewBox="0 0 2943 495" version="1.1" xmlns="http://www.w3.org/2000/svg" xmlns:xlink="http://www.w3.org/1999/xlink">
    <!-- Generator: Sketch 3.6.1 (26313) - http://www.bohemiancoding.com/sketch -->
    <title>Bla Bla Car</title>
    <desc>Created with Sketch.</desc>
    <defs></defs>
    <g id="Page-1" stroke="none" stroke-width="1" fill="none" fill-rule="evenodd">
        <g id="Bla-Bla-Car" transform="translate(-4.000000, -11.000000)">
            <g id="Group">
                <g id="Shape">
                    <path d="M1365.8112,334.88896 C1368.10496,356.39296 1366.2208,375.64416 1360.13824,392.72448 C1353.89184,409.92768 1344.90112,424.63232 1332.69504,436.81792 C1318.35904,451.29728 1302.07744,462.35648 1283.82976,469.87264 C1265.60256,477.45024 1241.98912,482.87744 1212.96896,486.1952 L1045.68832,505.28256 L999.54688,73.44128 L1147.20768,56.60672 C1177.82528,53.06368 1201.19296,51.58912 1217.31072,52.24448 C1233.32608,52.92032 1248.64512,56.27904 1263.39072,62.42304 C1279.24224,69.05856 1291.65312,78.88896 1300.52096,91.9552 C1309.36832,105.00096 1314.73408,120.58624 1316.70016,138.79296 C1318.95296,159.80544 1315.88096,179.13856 1307.38176,196.75136 C1299.02592,214.40512 1286.144,228.08576 1269.08416,237.91616 L1269.32992,240.16896 C1295.74912,242.87232 1317.66272,251.92448 1335.07072,267.4688 C1352.3968,283.09504 1362.65728,305.4592 1365.79072,334.88896 L1365.8112,334.88896 Z M1212.416,172.76928 C1211.67872,165.80608 1209.18016,158.84288 1204.89984,151.94112 C1200.66048,144.91648 1194.72128,140.20608 1187.08224,137.728 C1179.87328,135.4752 1171.456,134.656 1161.99424,135.51616 C1152.47104,136.2944 1138.44224,137.76896 1119.72352,139.81696 L1112.41216,140.71808 L1122.18112,232.09984 L1135.39072,230.58432 C1153.3312,228.53632 1165.90592,226.89792 1173.03296,225.66912 C1180.20096,224.50176 1187.45088,221.61408 1194.74176,216.9856 C1202.688,212.0704 1207.97184,205.7216 1210.30656,198.18496 C1212.70272,190.6688 1213.41952,182.21056 1212.416,172.7488 L1212.416,172.76928 Z M1257.53344,345.21088 C1256.16128,331.83744 1252.41344,321.78176 1246.35136,314.79808 C1240.28928,307.89632 1231.872,303.06304 1220.95616,300.40064 C1214.2592,298.61888 1205.3504,298.20928 1194.22976,299.17184 C1183.08864,300.19584 1168.13824,301.71136 1149.41952,303.88224 L1130.02496,306.0736 L1141.59616,414.28992 L1147.26912,413.63456 C1174.50752,410.50112 1193.39008,408.24832 1203.79392,406.67136 C1214.27968,405.03296 1224.64256,401.2032 1235.02592,395.12064 C1244.03712,389.79584 1250.38592,382.7712 1253.86752,374.02624 C1257.39008,365.30176 1258.65984,355.67616 1257.51296,345.25184 L1257.53344,345.21088 Z M1515.86816,456.56064 L1419.85792,466.04288 L1378.95936,25.25184 L1474.9696,15.72864 L1515.86816,456.56064 L1515.86816,456.56064 Z M1755.81184,398.7456 C1749.77024,405.05344 1744.30208,410.7264 1739.50976,415.68256 C1734.69696,420.80256 1728.18432,426.0864 1719.84896,431.45216 C1711.616,436.6336 1703.58784,440.79104 1695.72352,443.84256 C1687.73632,446.91456 1676.41088,449.2288 1661.82912,450.60096 C1634.63168,453.3248 1611.1616,446.09536 1591.31648,429.056 C1571.65568,411.91424 1560.39168,389.0176 1557.77024,360.36608 C1555.51744,336.6912 1558.3232,317.15328 1566.1056,301.73184 C1573.96992,286.28992 1586.01216,273.46944 1602.4576,263.22944 C1618.92352,252.88704 1639.2192,244.75648 1662.95552,238.91968 C1686.79424,233.12384 1712.47616,227.9424 1740.0832,223.29344 L1739.8784,221.65504 C1738.28096,204.04224 1730.92864,192.57344 1717.76,187.0848 C1704.59136,181.63712 1685.52448,180.1216 1660.416,182.64064 C1649.152,183.74656 1636.08576,187.14624 1621.2992,192.98304 C1606.59456,198.67648 1592.25856,205.59872 1578.43456,213.62688 L1570.24256,214.44608 L1563.11552,137.68704 C1572.39296,133.89824 1587.32288,129.08544 1608.23296,123.0848 C1629.0816,117.08416 1650.25792,113.0496 1671.80288,110.94016 C1724.76416,105.65632 1764.22912,111.0016 1790.17728,126.83264 C1816.064,142.6432 1830.76864,169.2672 1834.16832,206.60224 L1854.27968,423.07584 L1758.84288,432.49664 L1755.77088,398.76608 L1755.81184,398.7456 Z M1751.2448,349.42976 L1745.1008,283.15648 C1729.00352,286.43328 1716.0192,289.19808 1706.04544,291.4304 C1696.09216,293.64224 1686.46656,297.0624 1677.12768,301.62944 C1668.93568,305.52064 1662.79168,310.64064 1658.7776,317.25568 C1654.6816,323.8912 1653.12512,332.24704 1654.0672,342.50752 C1655.41888,357.376 1660.33408,367.28832 1668.54656,372.10112 C1676.94336,376.95488 1688.61696,378.51136 1703.77216,376.97536 C1712.10752,376.23808 1720.5248,373.3504 1728.96256,368.5376 C1737.35936,363.74528 1744.83456,357.376 1751.28576,349.45024 L1751.2448,349.42976 Z" fill="#0083BA"></path>
                    <path d="M366.2848,329.03168 C368.25088,350.53568 366.01856,369.78688 359.6288,386.74432 C353.13664,403.80416 343.8592,418.36544 331.40736,430.2848 C316.86656,444.5184 300.38016,455.33184 281.98912,462.5408 C263.65952,469.7088 239.90272,474.7264 210.88256,477.4912 L43.25376,493.4656 L4.62848,60.90752 L152.53504,46.81728 C183.25504,43.86816 206.56128,42.78272 222.72,43.74528 C238.6944,44.70784 254.0544,48.31232 268.5952,54.74304 C284.3648,61.70624 296.57088,71.74144 305.2544,84.93056 C313.856,98.18112 318.976,113.8688 320.6144,132.11648 C322.49856,153.14944 319.11936,172.46208 310.29248,189.82912 C301.60896,207.38048 288.62464,220.81536 271.27808,230.2976 L271.48288,232.61184 C297.86112,235.74528 319.61088,245.248 336.73216,261.07904 C353.81248,277.05344 363.76576,299.52 366.32576,329.07264 L366.2848,329.03168 Z M215.7568,164.06528 C215.1424,157.10208 212.72576,150.07744 208.5888,143.13472 C204.4928,136.04864 198.63552,131.25632 191.05792,128.63488 C183.82848,126.21824 175.43168,125.31712 165.90848,125.97248 C156.42624,126.58688 142.31552,127.77472 123.57632,129.51552 L116.28544,130.2528 L124.47744,221.75744 L137.64608,220.48768 C155.66848,218.7264 168.26368,217.35424 175.43168,216.24832 C182.64064,215.22432 189.93152,212.43904 197.28384,207.95392 C205.312,203.1616 210.71872,196.89472 213.15584,189.44 C215.67488,182.0672 216.55552,173.54752 215.73632,164.0448 L215.7568,164.06528 Z M257.86368,337.38752 C256.77824,323.95264 253.15328,313.83552 247.21408,306.72896 C241.31584,299.68384 232.96,294.72768 222.1056,291.88096 C215.47008,289.9968 206.58176,289.42336 195.44064,290.14016 C184.25856,290.95936 169.30816,292.2496 150.58944,294.03136 L131.13344,295.87456 L140.84096,404.29568 L146.49344,403.68128 C173.83424,401.08032 192.73728,399.17568 203.22304,397.78304 C213.66784,396.30848 224.11264,392.704 234.5984,386.78528 C243.77344,381.66528 250.20416,374.70208 253.8496,366.05952 C257.41312,357.45792 258.88768,347.83232 257.88416,337.38752 L257.86368,337.38752 Z M514.2528,453.4272 L418.0992,461.16864 L384.8192,19.6608 L480.99328,11.93984 L514.2528,453.4272 L514.2528,453.4272 Z M755.15904,400.0768 C748.97408,406.3232 743.424,411.83232 738.52928,416.70656 C733.696,421.76512 727.06048,426.88512 718.66368,432.128 C710.32832,437.12512 702.17728,441.1392 694.29248,444.0064 C686.26432,446.976 674.93888,449.06496 660.29568,450.1504 C633.05728,452.4032 609.75104,444.78464 590.19264,427.29472 C570.79808,409.82528 559.96416,386.70336 557.83424,357.9904 C555.99104,334.336 559.12448,314.81856 567.1936,299.54048 C575.30368,284.28288 587.55072,271.68768 604.11904,261.69344 C620.78976,251.65824 641.18784,243.97824 665.06752,238.55104 C688.98816,233.18528 714.79296,228.47488 742.48192,224.29696 L742.33856,222.65856 C741.04832,205.04576 733.83936,193.41312 720.83456,187.63776 C707.72736,182.00576 688.72192,180.14208 663.57248,182.1696 C652.24704,183.07072 639.11936,186.2656 624.25088,191.75424 C609.46432,197.20192 595.00544,203.8784 581.03808,211.61984 L572.78464,212.2752 L567.05024,135.41376 C576.32768,131.76832 591.42144,127.22176 612.39296,121.58976 C633.32352,116.0192 654.58176,112.37376 676.16768,110.65344 C729.21088,106.35264 768.53248,112.41472 794.23488,128.67584 C819.83488,144.9984 834.048,171.88864 836.83328,209.3056 L853.21728,426.04544 L757.63712,433.68448 L755.17952,400.09728 L755.15904,400.0768 Z M751.43168,350.67904 L746.41408,284.32384 C730.27584,287.29344 717.23008,289.8944 707.23584,291.90144 C697.30304,293.94944 687.57504,297.1648 678.15424,301.568 C669.9008,305.29536 663.7568,310.33344 659.51744,316.8256 C655.33952,323.3792 653.66016,331.73504 654.39744,341.95456 C655.52384,356.90496 660.21376,366.87872 668.3648,371.85536 C676.70016,376.77056 688.27136,378.61376 703.488,377.38496 C711.8848,376.77056 720.2816,374.10816 728.8832,369.3568 C737.28,364.70784 744.81664,358.46144 751.4112,350.67904 L751.43168,350.67904 Z" fill="#6CB42F"></path>
                    <path d="M2558.6688,429.75232 C2551.84896,435.56864 2545.7664,440.95488 2540.38016,445.62432 C2534.97344,450.29376 2527.744,455.04512 2518.60992,459.81696 C2509.7216,464.36352 2500.99712,467.84512 2492.49792,470.2208 C2484.0192,472.6784 2472.26368,473.84576 2457.06752,473.86624 C2428.74368,473.96864 2405.21216,464.24064 2386.45248,444.66176 C2367.6928,425.10336 2358.19008,400.384 2358.14912,370.52416 C2358.08768,345.94816 2362.7776,326.12352 2372.23936,310.96832 C2381.66016,295.81312 2395.38176,283.77088 2413.19936,274.86208 C2431.22176,265.85088 2452.72576,259.46112 2477.81376,255.85664 C2502.90176,252.25216 2529.83296,249.4464 2558.75072,247.3984 L2558.75072,245.59616 C2558.70976,227.30752 2552.13568,214.71232 2539.08992,207.79008 C2526.18752,200.92928 2506.58816,197.44768 2480.59904,197.55008 C2468.78208,197.59104 2455.06048,199.80288 2439.29088,204.30848 C2423.52128,208.81408 2408.16128,214.46656 2393.088,221.3888 L2384.60928,221.3888 L2384.34304,141.57824 C2394.23488,138.62912 2410.22976,135.0656 2432.22528,130.92864 C2454.24128,126.89408 2476.46208,124.8256 2498.92864,124.78464 C2554.01984,124.57984 2594.16064,133.9392 2619.45344,152.7808 C2644.6848,171.6224 2657.30048,200.56064 2657.44384,239.4112 L2658.05824,464.4864 L2558.93504,464.81408 L2558.68928,429.75232 L2558.6688,429.75232 Z M2558.54592,378.42944 L2558.34112,309.47328 C2541.40416,311.31648 2527.72352,312.95488 2517.25824,314.22464 C2506.81344,315.45344 2496.57344,318.03392 2486.53824,321.80224 C2477.7728,325.0176 2470.97344,329.74848 2466.18112,336.1792 C2461.32736,342.56896 2458.95168,351.08864 2459.01312,361.6768 C2459.01312,377.15968 2463.10912,387.80928 2471.13728,393.6256 C2479.28832,399.31904 2491.16672,402.2272 2506.93632,402.14528 C2515.68128,402.14528 2524.63104,400.01536 2533.76512,395.85792 C2542.91968,391.70048 2551.17312,385.90464 2558.54592,378.40896 L2558.54592,378.42944 Z M2946.048,230.1952 L2937.7536,230.1952 C2933.90336,228.864 2928.45568,227.84 2921.2672,227.1232 C2914.01728,226.5088 2905.98912,226.18112 2897.3056,226.18112 C2886.8608,226.18112 2875.88352,227.81952 2864.39424,231.03488 C2852.88448,234.20928 2841.76384,237.93664 2830.97088,242.29888 L2831.64672,463.89248 L2731.90912,464.15872 L2730.92608,133.40672 L2830.66368,133.03808 L2830.82752,180.4288 C2835.37408,176.128 2841.62048,170.68032 2849.71008,164.0448 C2857.73824,157.45024 2865.17248,152.1664 2871.74656,148.21376 C2878.976,143.6672 2887.39328,139.81696 2896.93696,136.54016 C2906.5216,133.2224 2915.61472,131.584 2924.1344,131.584 C2927.3088,131.584 2930.97472,131.6864 2934.94784,131.82976 C2939.00288,132.03456 2942.58688,132.3008 2945.86368,132.7104 L2946.06848,230.1952 L2946.048,230.1952 Z M2181.44768,474.43968 C2117.81632,474.60352 2067.21024,454.8608 2029.69088,415.25248 C1992.15104,375.58272 1973.26848,319.71328 1973.08416,247.66464 C1972.87936,178.09408 1991.41376,122.63424 2028.8512,81.16224 C2066.26816,39.71072 2116.77184,18.90304 2180.4032,18.69824 C2197.31968,18.59584 2212.59776,19.64032 2226.01216,21.48352 C2239.56992,23.40864 2252.43136,26.112 2264.80128,29.57312 C2274.57024,32.52224 2285.07648,36.49536 2296.54528,41.61536 C2307.93216,46.65344 2317.1072,51.03616 2324.19328,54.76352 L2324.45952,159.29344 L2313.56416,159.29344 C2308.44416,154.58304 2302.03392,148.992 2294.10816,142.4384 C2286.32576,135.8848 2277.51936,129.536 2267.60704,123.24864 C2257.65376,116.98176 2246.77888,111.67744 2234.94144,107.27424 C2222.98112,102.89152 2210.65216,100.7616 2197.6064,100.78208 C2182.28736,100.84352 2168.15616,103.38304 2155.33568,108.42112 C2142.53568,113.47968 2130.432,122.18368 2118.88128,134.63552 C2108.17024,145.8176 2099.63008,160.95232 2092.87168,180.03968 C2086.1952,199.08608 2082.83648,221.61408 2082.95936,247.52128 C2083.0208,274.88256 2086.6048,297.7792 2093.71136,316.29312 C2100.77696,334.82752 2110.0544,349.7984 2121.48224,361.14432 C2132.62336,372.16256 2144.89088,380.02688 2158.46912,384.94208 C2172.06784,389.77536 2185.64608,392.17152 2199.10144,392.11008 C2213.19168,392.11008 2226.54464,389.65248 2239.2832,384.8192 C2251.9808,379.98592 2262.7328,374.5792 2271.4368,368.64 C2280.98048,362.53696 2289.31584,356.31104 2296.4224,350.0032 C2303.67232,343.69536 2309.9392,338.1248 2315.18208,333.16864 L2324.95104,333.1072 L2325.23776,436.24448 C2317.45536,439.97184 2308.4032,444.29312 2298.1632,449.14688 C2287.9232,453.9392 2277.376,458.11712 2266.5216,461.43488 C2253.25056,465.59232 2240.83968,468.80768 2229.248,470.97856 C2217.71776,473.1904 2201.74336,474.3168 2181.38624,474.37824 L2181.44768,474.43968 Z" fill="#C83434"></path>
                </g>
            </g>
        </g>
    </g>
</svg>