<?xml version="1.0" encoding="iso-8859-1"?><!-- Generator: Adobe Illustrator 16.0.0, SVG Export Plug-In . SVG Version: 6.00 Build 0) --><!DOCTYPE svg PUBLIC "-//W3C//DTD SVG 1.1//EN" "http://www.w3.org/Graphics/SVG/1.1/DTD/svg11.dtd"><svg version="1.1" id="Layer_1" xmlns="http://www.w3.org/2000/svg" xmlns:xlink="http://www.w3.org/1999/xlink" x="0px" y="0px" width="192.756px" height="192.756px" viewBox="0 0 192.756 192.756" style="enable-background:new 0 0 192.756 192.756;" xml:space="preserve"><g><polygon style="fill-rule:evenodd;clip-rule:evenodd;fill:#FFFFFF;" points="0,0 192.756,0 192.756,192.756 0,192.756 0,0	"/><polygon style="fill-rule:evenodd;clip-rule:evenodd;fill:#254C4C;" points="11.125,147.332 175.564,147.332 175.564,125.279	11.125,125.279 11.125,147.332	"/><polygon style="fill-rule:evenodd;clip-rule:evenodd;fill:#636466;" points="11.125,72.659 16.929,72.659 16.929,69.563	11.125,69.563 11.125,72.659	"/><polygon style="fill-rule:evenodd;clip-rule:evenodd;fill:#636466;" points="11.125,30.485 175.564,30.485 175.564,26.229	11.125,26.229 11.125,30.485	"/><polygon style="fill-rule:evenodd;clip-rule:evenodd;fill:#636466;" points="11.125,119.088 175.564,119.088 175.564,114.832	11.125,114.832 11.125,119.088	"/><polygon style="fill-rule:evenodd;clip-rule:evenodd;fill:#636466;" points="21.185,72.659 26.989,72.659 26.989,69.563	21.185,69.563 21.185,72.659	"/><polygon style="fill-rule:evenodd;clip-rule:evenodd;fill:#636466;" points="30.859,72.659 37.049,72.659 37.049,69.563	30.859,69.563 30.859,72.659	"/><polygon style="fill-rule:evenodd;clip-rule:evenodd;fill:#636466;" points="80.383,72.659 86.574,72.659 86.574,69.563	80.383,69.563 80.383,72.659	"/><polygon style="fill-rule:evenodd;clip-rule:evenodd;fill:#636466;" points="90.443,72.659 96.247,72.659 96.247,69.563	90.443,69.563 90.443,72.659	"/><polygon style="fill-rule:evenodd;clip-rule:evenodd;fill:#636466;" points="100.115,72.659 106.307,72.659 106.307,69.563	100.115,69.563 100.115,72.659	"/><polygon style="fill-rule:evenodd;clip-rule:evenodd;fill:#636466;" points="110.176,72.659 115.979,72.659 115.979,69.563	110.176,69.563 110.176,72.659	"/><polygon style="fill-rule:evenodd;clip-rule:evenodd;fill:#636466;" points="129.908,72.659 135.713,72.659 135.713,69.563	129.908,69.563 129.908,72.659	"/><polygon style="fill-rule:evenodd;clip-rule:evenodd;fill:#636466;" points="139.969,72.659 145.771,72.659 145.771,69.563	139.969,69.563 139.969,72.659	"/><polygon style="fill-rule:evenodd;clip-rule:evenodd;fill:#636466;" points="149.641,72.659 155.832,72.659 155.832,69.563	149.641,69.563 149.641,72.659	"/><polygon style="fill-rule:evenodd;clip-rule:evenodd;fill:#636466;" points="159.701,72.659 165.504,72.659 165.504,69.563	159.701,69.563 159.701,72.659	"/><polygon style="fill-rule:evenodd;clip-rule:evenodd;fill:#636466;" points="169.373,72.659 175.564,72.659 175.564,69.563	169.373,69.563 169.373,72.659	"/><path style="fill-rule:evenodd;clip-rule:evenodd;fill:#FFFFFF;" d="M15.769,128.762h4.256c3.095,0,4.643,1.934,4.643,3.869	c0,1.547-0.773,2.32-2.321,3.094l0,0c2.321,0.387,3.482,1.936,3.482,3.869c0,1.936-1.161,3.869-5.03,3.869h-5.03V128.762	L15.769,128.762z M17.704,134.951h1.547c1.934,0,3.095-0.773,3.095-2.32c0-1.162-0.387-1.936-2.708-1.936h-1.935V134.951	L17.704,134.951z M17.704,141.529h2.708c2.708,0,3.482-1.16,3.482-2.322c0-1.16-1.161-2.32-3.482-2.32h-2.708V141.529	L17.704,141.529z"/><polygon style="fill-rule:evenodd;clip-rule:evenodd;fill:#FFFFFF;" points="34.727,128.762 36.662,128.762 36.662,143.463	34.727,143.463 34.727,128.762	"/><path style="fill-rule:evenodd;clip-rule:evenodd;fill:#FFFFFF;" d="M53.686,143.076c-0.773,0.387-1.161,0.773-1.935,0.773	c-0.773,0-1.16-0.387-1.548-1.16c-0.773,0.773-1.547,1.16-2.708,1.16s-2.321-1.16-2.321-2.32c0-1.936,1.935-2.709,3.482-3.096	l1.547-0.773v-0.387c0-1.549-0.387-1.936-1.547-1.936s-2.321,0.387-3.095,1.549v-1.936c0.774-0.773,1.548-1.547,3.095-1.547	c1.935,0,3.482,1.16,3.482,3.482v5.029c0,0.387,0.387,0.387,0.387,0.387c0.387,0,0.774,0,1.161-0.387V143.076L53.686,143.076z M50.204,138.82c-1.547,0.387-3.095,1.16-3.095,2.322c0,0.773,0.773,1.16,1.547,1.16c0.387,0,1.161,0,1.547-0.773V138.82	L50.204,138.82z"/><path style="fill-rule:evenodd;clip-rule:evenodd;fill:#FFFFFF;" d="M69.549,136.5c-1.161-0.775-1.935-1.162-2.708-1.162	c-1.935,0-3.096,1.162-3.096,3.482c0,1.936,1.161,3.096,3.482,3.096c0.773,0,1.548,0,2.321-0.773v1.934	c-0.387,0.387-1.935,0.773-2.708,0.773c-3.096,0-5.03-1.934-5.03-5.029s1.934-5.416,4.643-5.416c1.161,0,1.935,0.387,3.095,0.773	V136.5L69.549,136.5z"/><path style="fill-rule:evenodd;clip-rule:evenodd;fill:#FFFFFF;" d="M83.091,138.434l5.03,5.029h-2.709l-5.03-5.029l4.643-4.643	h2.321L83.091,138.434L83.091,138.434z M78.449,128.762h1.934v14.701h-1.934V128.762L78.449,128.762z"/><path style="fill-rule:evenodd;clip-rule:evenodd;fill:#FFFFFF;" d="M97.795,134.564c0.773-0.773,1.547-1.16,2.707-1.16	c2.322,0,4.256,2.32,4.256,5.029c0,3.482-1.934,5.416-5.416,5.416c-1.16,0-2.708-0.387-3.482-0.773v-14.314h1.935V134.564	L97.795,134.564z M97.795,141.529c0.387,0.387,1.16,0.387,1.934,0.387c1.936,0,3.096-1.16,3.096-3.096	c0-2.32-1.16-3.482-2.709-3.482c-0.773,0-1.547,0.387-2.32,1.162V141.529L97.795,141.529z"/><path style="fill-rule:evenodd;clip-rule:evenodd;fill:#FFFFFF;" d="M123.717,138.434c0,3.096-2.32,5.416-5.416,5.416	s-5.416-2.32-5.416-5.416c0-2.709,2.32-5.029,5.416-5.029S123.717,135.725,123.717,138.434L123.717,138.434z M114.818,138.434	c0,2.322,1.547,3.482,3.482,3.482c1.934,0,3.482-1.16,3.482-3.482c0-1.934-1.549-3.096-3.482-3.096	C116.365,135.338,114.818,136.5,114.818,138.434L114.818,138.434z"/><path style="fill-rule:evenodd;clip-rule:evenodd;fill:#FFFFFF;" d="M140.355,143.076c-1.162,0.387-1.549,0.773-1.936,0.773	c-0.773,0-1.547-0.387-1.547-1.16c-0.775,0.773-1.936,1.16-2.709,1.16c-1.547,0-2.322-1.16-2.322-2.32	c0-1.936,1.549-2.709,3.096-3.096l1.936-0.773v-0.387c0-1.549-0.775-1.936-1.936-1.936s-1.934,0.387-3.096,1.549v-1.936	c0.775-0.773,1.936-1.547,3.482-1.547c1.936,0,3.482,1.16,3.482,3.482v5.029c0,0.387,0,0.387,0.387,0.387	c0.389,0,0.775,0,1.162-0.387V143.076L140.355,143.076z M136.873,138.82c-1.549,0.387-3.096,1.16-3.096,2.322	c0,0.773,0.387,1.16,1.16,1.16c0.775,0,1.549,0,1.936-0.773V138.82L136.873,138.82z"/><path style="fill-rule:evenodd;clip-rule:evenodd;fill:#FFFFFF;" d="M150.801,133.791v2.32l0,0	c1.162-1.934,1.936-2.707,2.709-2.707c1.16,0,1.934,0.387,2.709,1.16l-1.162,1.936c-0.773-0.775-1.547-1.162-1.934-1.162	c-1.16,0-2.322,1.549-2.322,3.096v5.029h-1.934v-9.672H150.801L150.801,133.791z"/><path style="fill-rule:evenodd;clip-rule:evenodd;fill:#FFFFFF;" d="M172.469,143.463h-4.256c-3.096,0-5.031-1.934-5.031-5.029	c0-2.709,2.322-5.029,5.031-5.029c0.773,0,1.547,0.387,2.32,0.387v-5.029h1.936V143.463L172.469,143.463z M170.533,135.725	c-0.773-0.387-1.16-0.387-1.934-0.387c-1.936,0-3.096,1.162-3.096,3.482c0,1.936,0.773,3.096,3.096,3.096h1.934V135.725	L170.533,135.725z"/><path style="fill-rule:evenodd;clip-rule:evenodd;" d="M38.209,52.152c0-14.703-11.22-8.899-11.22-13.929	c0-1.935,1.161-1.547,1.934-1.547c0.388,0,1.161,0.386,6.191,0.386c9.286,0,18.185-0.386,27.084-0.386	c26.31,0,26.31,15.864,26.31,18.185c0,6.964-3.869,12.768-11.607,15.089v0.387c13.155,3.095,17.024,8.899,17.024,18.572	c0,14.316-9.672,23.214-27.083,23.214c-15.863,0-21.28-0.387-26.697-0.387c-2.708,0-5.417,0.387-7.739,0.387s-3.482,0-3.482-1.547	c0-3.482,9.286-0.773,9.286-11.221V52.152L38.209,52.152z M51.365,63.759c0,5.03,1.161,5.804,7.352,6.191h6.19	c8.124,0,11.221-4.256,11.221-11.995c0-10.059-7.739-16.637-17.411-16.637c-6.965,0-7.352,3.869-7.352,10.06V63.759L51.365,63.759z M51.365,94.713c0,10.061,2.709,13.154,13.155,13.154c10.446,0,15.863-6.963,15.863-17.411c0-6.191-3.095-15.863-22.441-15.863	c-6.19,0-6.577,2.708-6.577,8.125V94.713L51.365,94.713z"/><path style="fill-rule:evenodd;clip-rule:evenodd;" d="M117.914,47.123c0-7.738-6.578-3.096-6.578-6.965	c0-2.708,5.029-1.161,15.09-7.351c0.775-0.387,1.16-0.774,1.934-0.774c1.162,0,0.775,2.322,0.775,3.096v42.173	c4.256-3.869,8.898-7.351,14.314-7.351c12.383,0,17.025,10.833,17.025,18.184c0,16.252-9.287,24.762-22.441,24.762	c-9.674,0-12.768-4.254-14.316-4.254c-1.934,0-3.096,4.254-5.416,4.254c-0.773,0-1.16-0.387-1.16-1.16s0.773-3.094,0.773-8.512	V47.123L117.914,47.123z M129.135,98.195c0,8.898,8.125,10.834,11.221,10.834c8.898,0,10.832-8.514,10.832-15.477	c0-8.125-3.869-15.864-13.928-15.864c-3.096,0-8.125,1.934-8.125,5.804V98.195L129.135,98.195z"/><polygon style="fill-rule:evenodd;clip-rule:evenodd;" points="183.689,27.39 182.141,27.39 182.141,30.872 180.98,30.872	180.98,27.39 179.434,27.39 179.434,26.616 183.689,26.616 183.689,27.39	"/><polygon style="fill-rule:evenodd;clip-rule:evenodd;" points="187.945,26.616 189.105,26.616 189.105,30.872 187.945,30.872	187.945,28.164 186.783,29.324 186.783,29.324 185.623,28.164 185.623,30.872 184.463,30.872 184.463,26.616 185.236,26.616	186.783,28.164 187.945,26.616	"/><polygon style="fill-rule:evenodd;clip-rule:evenodd;" points="21.959,161.648 23.894,156.232 25.829,156.232 22.346,165.131	21.572,165.131 19.251,158.939 16.929,165.131 16.542,165.131 13.061,156.232 14.608,156.232 16.929,161.648 18.864,156.232	20.025,156.232 21.959,161.648	"/><polygon style="fill-rule:evenodd;clip-rule:evenodd;" points="35.114,161.648 37.049,156.232 38.597,156.232 35.114,165.131	34.727,165.131 32.406,158.939 30.084,165.131 29.698,165.131 26.215,156.232 27.763,156.232 29.698,161.648 31.632,156.232	32.793,156.232 35.114,161.648	"/><polygon style="fill-rule:evenodd;clip-rule:evenodd;" points="47.882,161.648 49.817,156.232 51.751,156.232 48.269,165.131	47.882,165.131 45.561,158.939 43.24,165.131 42.465,165.131 38.983,156.232 40.917,156.232 42.853,161.648 44.788,156.232	45.948,156.232 47.882,161.648	"/><path style="fill-rule:evenodd;clip-rule:evenodd;" d="M54.074,163.971c0,0.387-0.388,1.16-1.161,1.16	c-0.387,0-1.161-0.773-1.161-1.16c0-0.775,0.774-1.162,1.161-1.162C53.686,162.809,54.074,163.195,54.074,163.971L54.074,163.971z"	/><path style="fill-rule:evenodd;clip-rule:evenodd;" d="M57.942,158.553c0.774-0.773,1.161-0.773,1.935-0.773	c1.161,0,1.935,1.16,1.935,2.709c0,1.934-0.774,3.096-2.322,3.096c-0.387,0-1.161-0.389-1.548-0.389V158.553L57.942,158.553z M57.942,151.59h-1.547v12.768c0.773,0.387,1.934,0.773,2.708,0.773c2.709,0,4.256-1.936,4.256-4.643	c0-2.709-1.161-4.256-3.096-4.256c-1.161,0-1.547,0-2.321,0.773V151.59L57.942,151.59z"/><polygon style="fill-rule:evenodd;clip-rule:evenodd;" points="65.68,151.59 67.228,151.59 67.228,164.744 65.68,164.744	65.68,151.59	"/><path style="fill-rule:evenodd;clip-rule:evenodd;" d="M73.419,163.195c-0.388,0.389-1.161,0.775-1.548,0.775	c-0.774,0-1.161-0.775-1.161-1.162c0-1.16,1.161-1.547,2.708-2.32V163.195L73.419,163.195z M76.127,163.195	c-0.387,0.389-0.774,0.775-1.162,0.775c0,0,0-0.387,0-0.775v-4.256c0-1.934-1.547-2.707-3.095-2.707	c-1.161,0-1.935,0.387-2.322,1.16v1.547c0.387-0.773,1.548-1.16,2.322-1.16c0.773,0,1.548,0.387,1.548,1.549v0.387l-1.548,0.387	c-1.161,0.773-2.708,1.16-2.708,2.707c0,1.162,0.774,2.322,1.935,2.322c0.774,0,1.547-0.387,2.322-0.773	c0,0.387,0.386,0.773,1.161,0.773c0.386,0,0.774-0.387,1.548-0.773V163.195L76.127,163.195z"/><path style="fill-rule:evenodd;clip-rule:evenodd;" d="M83.479,158.553c-0.774-0.773-1.548-0.773-1.936-0.773	c-1.547,0-2.708,1.16-2.708,2.709c0,1.934,1.161,3.096,2.708,3.096c0.774,0,1.548-0.389,2.322-0.775v1.936	c-0.774,0-1.548,0.387-2.322,0.387c-2.708,0-4.256-1.936-4.256-4.256c0-3.096,1.548-4.643,3.87-4.643c1.161,0,1.547,0,2.322,0.387	V158.553L83.479,158.553z"/><path style="fill-rule:evenodd;clip-rule:evenodd;" d="M89.282,160.488l4.256,4.256h-2.322l-3.87-4.256l3.482-4.256h1.935	L89.282,160.488L89.282,160.488z M85.8,151.59h1.547v13.154H85.8V151.59L85.8,151.59z"/><path style="fill-rule:evenodd;clip-rule:evenodd;" d="M96.247,158.553c0.387-0.773,1.162-0.773,1.548-0.773	c1.547,0,2.32,1.16,2.32,2.709c0,1.934-1.16,3.096-2.32,3.096c-0.387,0-1.162-0.389-1.548-0.389V158.553L96.247,158.553z M96.247,151.59h-1.547v12.768c0.774,0.387,1.934,0.773,2.709,0.773c2.707,0,4.256-1.936,4.256-4.643	c0-2.709-1.549-4.256-3.482-4.256c-0.773,0-1.548,0-1.935,0.773V151.59L96.247,151.59z"/><path style="fill-rule:evenodd;clip-rule:evenodd;" d="M107.467,157.779c1.549,0,2.709,1.16,2.709,2.709	c0,1.934-1.16,3.096-2.709,3.096c-1.547,0-2.709-1.162-2.709-3.096C104.758,158.939,105.92,157.779,107.467,157.779	L107.467,157.779z M107.467,156.232c-2.32,0-4.256,1.934-4.256,4.256c0,2.707,1.936,4.643,4.256,4.643	c2.709,0,4.256-1.936,4.256-4.643C111.723,157.779,109.789,156.232,107.467,156.232L107.467,156.232z"/><path style="fill-rule:evenodd;clip-rule:evenodd;" d="M117.141,163.195c-0.389,0.389-0.775,0.775-1.162,0.775	c-0.773,0-1.16-0.775-1.16-1.162c0-1.16,1.16-1.547,2.322-2.32V163.195L117.141,163.195z M119.848,163.195	c-0.387,0.389-0.387,0.775-0.773,0.775c0,0-0.387-0.387-0.387-0.775v-4.256c0-1.934-1.16-2.707-2.709-2.707	c-1.16,0-1.934,0.387-2.707,1.16v1.547c0.773-0.773,1.934-1.16,2.707-1.16s1.162,0.387,1.162,1.549v0.387l-1.162,0.387	c-1.16,0.773-2.707,1.16-2.707,2.707c0,1.162,0.773,2.322,1.934,2.322c0.773,0,1.547-0.387,1.936-0.773	c0.387,0.387,0.773,0.773,1.16,0.773c0.773,0,0.773-0.387,1.547-0.773V163.195L119.848,163.195z"/><path style="fill-rule:evenodd;clip-rule:evenodd;" d="M123.33,156.232v1.934l0,0c0.773-1.547,1.547-1.934,2.322-1.934	c0.773,0,1.16,0,1.934,0.773l-0.773,1.547c-0.387-0.387-1.16-0.773-1.547-0.773c-1.162,0-1.936,1.16-1.936,2.709v4.256h-1.547	v-8.512H123.33L123.33,156.232z"/><path style="fill-rule:evenodd;clip-rule:evenodd;" d="M134.164,163.584h-1.547c-1.936,0-2.322-1.162-2.322-3.096	c0-1.549,0.773-2.709,2.322-2.709c0.387,0,1.16,0,1.547,0V163.584L134.164,163.584z M135.713,151.59h-1.549v5.029	c-0.773-0.387-1.16-0.387-1.547-0.387c-2.322,0-3.869,1.547-3.869,4.256c0,2.707,1.16,4.256,3.482,4.256h3.482V151.59	L135.713,151.59z"/><path style="fill-rule:evenodd;clip-rule:evenodd;" d="M139.969,163.971c0,0.387-0.387,1.16-0.775,1.16	c-0.773,0-1.16-0.773-1.16-1.16c0-0.775,0.387-1.162,1.16-1.162C139.582,162.809,139.969,163.195,139.969,163.971L139.969,163.971z	"/><path style="fill-rule:evenodd;clip-rule:evenodd;" d="M148.094,158.553c-0.775-0.773-1.162-0.773-1.936-0.773	c-1.547,0-2.322,1.16-2.322,2.709c0,1.934,0.775,3.096,2.709,3.096c0.387,0,1.16-0.389,1.936-0.775v1.936	c-0.387,0-1.549,0.387-2.322,0.387c-2.322,0-3.869-1.936-3.869-4.256c0-3.096,1.16-4.643,3.869-4.643c0.773,0,1.16,0,1.936,0.387	V158.553L148.094,158.553z"/><path style="fill-rule:evenodd;clip-rule:evenodd;" d="M154.283,157.779c1.549,0,2.709,1.16,2.709,2.709	c0,1.934-1.16,3.096-2.709,3.096c-1.547,0-2.709-1.162-2.709-3.096C151.574,158.939,152.736,157.779,154.283,157.779	L154.283,157.779z M154.283,156.232c-2.32,0-4.256,1.934-4.256,4.256c0,2.707,1.936,4.643,4.256,4.643	c2.322,0,4.256-1.936,4.256-4.643C158.539,157.779,156.605,156.232,154.283,156.232L154.283,156.232z"/><path style="fill-rule:evenodd;clip-rule:evenodd;" d="M162.021,156.232v1.16c0.773-0.773,1.549-1.16,2.322-1.16	c1.16,0,1.934,0.387,2.32,1.547c0.773-1.16,1.549-1.547,2.709-1.547c1.547,0,2.709,1.16,2.709,3.096v5.416h-1.549v-5.029	c0-1.549-0.773-2.322-1.547-2.322s-1.16,0.773-1.936,1.16v6.191h-1.547v-5.029c0-1.549-0.773-2.322-1.547-2.322	c-0.775,0-1.162,0.387-1.936,1.16v6.191h-1.547v-8.512H162.021L162.021,156.232z"/></g></svg>