<?xml version="1.0" encoding="utf-8"?>
<!-- Generator: Adobe Illustrator 18.1.1, SVG Export Plug-In . SVG Version: 6.00 Build 0)  -->
<svg version="1.1" id="Layer_1" xmlns="http://www.w3.org/2000/svg" xmlns:xlink="http://www.w3.org/1999/xlink" x="0px" y="0px"
	 viewBox="-153 154.2 512 512" enable-background="new -153 154.2 512 512" xml:space="preserve">
<g>
	<polygon fill="#FFFFFF" points="-153,154.2 359,154.2 359,666.2 -153,666.2 	"/>
	<polygon fill="#254C4C" points="-123.4,545.6 313.3,545.6 313.3,487 -123.4,487 	"/>
	<polygon fill="#636466" points="-123.4,347.2 -108,347.2 -108,339 -123.4,339 	"/>
	<polygon fill="#636466" points="-123.4,235.2 313.3,235.2 313.3,223.9 -123.4,223.9 	"/>
	<polygon fill="#636466" points="-123.4,470.6 313.3,470.6 313.3,459.3 -123.4,459.3 	"/>
	<polygon fill="#636466" points="-96.7,347.2 -81.3,347.2 -81.3,339 -96.7,339 	"/>
	<polygon fill="#636466" points="-71,347.2 -54.6,347.2 -54.6,339 -71,339 	"/>
	<polygon fill="#636466" points="60.5,347.2 77,347.2 77,339 60.5,339 	"/>
	<polygon fill="#636466" points="87.2,347.2 102.7,347.2 102.7,339 87.2,339 	"/>
	<polygon fill="#636466" points="112.9,347.2 129.4,347.2 129.4,339 112.9,339 	"/>
	<polygon fill="#636466" points="139.7,347.2 155.1,347.2 155.1,339 139.7,339 	"/>
	<polygon fill="#636466" points="192.1,347.2 207.5,347.2 207.5,339 192.1,339 	"/>
	<polygon fill="#636466" points="218.8,347.2 234.2,347.2 234.2,339 218.8,339 	"/>
	<polygon fill="#636466" points="244.5,347.2 260.9,347.2 260.9,339 244.5,339 	"/>
	<polygon fill="#636466" points="271.2,347.2 286.6,347.2 286.6,339 271.2,339 	"/>
	<polygon fill="#636466" points="296.9,347.2 313.3,347.2 313.3,339 296.9,339 	"/>
	<path fill="#FFFFFF" d="M-111.1,496.3h11.3c8.2,0,12.3,5.1,12.3,10.3c0,4.1-2.1,6.2-6.2,8.2l0,0c6.2,1,9.2,5.1,9.2,10.3
		c0,5.1-3.1,10.3-13.4,10.3h-13.4V496.3L-111.1,496.3z M-106,512.7h4.1c5.1,0,8.2-2.1,8.2-6.2c0-3.1-1-5.1-7.2-5.1h-5.1L-106,512.7
		L-106,512.7z M-106,530.2h7.2c7.2,0,9.2-3.1,9.2-6.2c0-3.1-3.1-6.2-9.2-6.2h-7.2V530.2L-106,530.2z"/>
	<polygon fill="#FFFFFF" points="-60.8,496.3 -55.6,496.3 -55.6,535.3 -60.8,535.3 	"/>
	<path fill="#FFFFFF" d="M-10.4,534.3c-2.1,1-3.1,2.1-5.1,2.1c-2.1,0-3.1-1-4.1-3.1c-2.1,2.1-4.1,3.1-7.2,3.1s-6.2-3.1-6.2-6.2
		c0-5.1,5.1-7.2,9.2-8.2l4.1-2.1v-1c0-4.1-1-5.1-4.1-5.1s-6.2,1-8.2,4.1v-5.1c2.1-2.1,4.1-4.1,8.2-4.1c5.1,0,9.2,3.1,9.2,9.2v13.4
		c0,1,1,1,1,1c1,0,2.1,0,3.1-1L-10.4,534.3L-10.4,534.3z M-19.6,523c-4.1,1-8.2,3.1-8.2,6.2c0,2.1,2.1,3.1,4.1,3.1
		c1,0,3.1,0,4.1-2.1L-19.6,523L-19.6,523z"/>
	<path fill="#FFFFFF" d="M31.7,516.8c-3.1-2.1-5.1-3.1-7.2-3.1c-5.1,0-8.2,3.1-8.2,9.2c0,5.1,3.1,8.2,9.2,8.2c2.1,0,4.1,0,6.2-2.1
		v5.1c-1,1-5.1,2.1-7.2,2.1c-8.2,0-13.4-5.1-13.4-13.4c0-8.2,5.1-14.4,12.3-14.4c3.1,0,5.1,1,8.2,2.1L31.7,516.8L31.7,516.8z"/>
	<path fill="#FFFFFF" d="M67.7,522l13.4,13.4h-7.2L60.5,522l12.3-12.3H79L67.7,522L67.7,522z M55.4,496.3h5.1v39h-5.1V496.3
		L55.4,496.3z"/>
	<path fill="#FFFFFF" d="M106.8,511.7c2.1-2.1,4.1-3.1,7.2-3.1c6.2,0,11.3,6.2,11.3,13.4c0,9.2-5.1,14.4-14.4,14.4
		c-3.1,0-7.2-1-9.2-2.1v-38h5.1L106.8,511.7L106.8,511.7z M106.8,530.2c1,1,3.1,1,5.1,1c5.1,0,8.2-3.1,8.2-8.2
		c0-6.2-3.1-9.2-7.2-9.2c-2.1,0-4.1,1-6.2,3.1L106.8,530.2L106.8,530.2z"/>
	<path fill="#FFFFFF" d="M175.6,522c0,8.2-6.2,14.4-14.4,14.4s-14.4-6.2-14.4-14.4c0-7.2,6.2-13.4,14.4-13.4S175.6,514.8,175.6,522
		L175.6,522z M152,522c0,6.2,4.1,9.2,9.2,9.2c5.1,0,9.2-3.1,9.2-9.2c0-5.1-4.1-8.2-9.2-8.2C156.1,513.7,152,516.8,152,522L152,522z"
		/>
	<path fill="#FFFFFF" d="M219.8,534.3c-3.1,1-4.1,2.1-5.1,2.1c-2.1,0-4.1-1-4.1-3.1c-2.1,2.1-5.1,3.1-7.2,3.1
		c-4.1,0-6.2-3.1-6.2-6.2c0-5.1,4.1-7.2,8.2-8.2l5.1-2.1v-1c0-4.1-2.1-5.1-5.1-5.1c-3.1,0-5.1,1-8.2,4.1v-5.1
		c2.1-2.1,5.1-4.1,9.2-4.1c5.1,0,9.2,3.1,9.2,9.2v13.4c0,1,0,1,1,1c1,0,2.1,0,3.1-1L219.8,534.3L219.8,534.3z M210.6,523
		c-4.1,1-8.2,3.1-8.2,6.2c0,2.1,1,3.1,3.1,3.1c2.1,0,4.1,0,5.1-2.1L210.6,523L210.6,523z"/>
	<path fill="#FFFFFF" d="M247.6,509.6v6.2l0,0c3.1-5.1,5.1-7.2,7.2-7.2c3.1,0,5.1,1,7.2,3.1l-3.1,5.1c-2.1-2.1-4.1-3.1-5.1-3.1
		c-3.1,0-6.2,4.1-6.2,8.2v13.4h-5.1v-25.7L247.6,509.6L247.6,509.6z"/>
	<path fill="#FFFFFF" d="M305.1,535.3h-11.3c-8.2,0-13.4-5.1-13.4-13.4c0-7.2,6.2-13.4,13.4-13.4c2.1,0,4.1,1,6.2,1v-13.4h5.1
		L305.1,535.3L305.1,535.3z M300,514.8c-2.1-1-3.1-1-5.1-1c-5.1,0-8.2,3.1-8.2,9.2c0,5.1,2.1,8.2,8.2,8.2h5.1V514.8L300,514.8z"/>
	<path d="M-51.5,292.8c0-39.1-29.8-23.6-29.8-37c0-5.1,3.1-4.1,5.1-4.1c1,0,3.1,1,16.4,1c24.7,0,48.3-1,71.9-1
		c69.9,0,69.9,42.1,69.9,48.3c0,18.5-10.3,33.9-30.8,40.1v1c34.9,8.2,45.2,23.6,45.2,49.3c0,38-25.7,61.7-71.9,61.7
		c-42.1,0-56.5-1-70.9-1c-7.2,0-14.4,1-20.6,1s-9.2,0-9.2-4.1c0-9.2,24.7-2.1,24.7-29.8L-51.5,292.8L-51.5,292.8z M-16.6,323.6
		C-16.6,337-13.5,339,3,340h16.4c21.6,0,29.8-11.3,29.8-31.9C49.2,281.5,28.7,264,3,264c-18.5,0-19.5,10.3-19.5,26.7L-16.6,323.6
		L-16.6,323.6z M-16.6,405.8c0,26.7,7.2,34.9,34.9,34.9s42.1-18.5,42.1-46.2c0-16.4-8.2-42.1-59.6-42.1c-16.4,0-17.5,7.2-17.5,21.6
		V405.8L-16.6,405.8z"/>
	<path d="M160.2,279.4c0-20.6-17.5-8.2-17.5-18.5c0-7.2,13.4-3.1,40.1-19.5c2.1-1,3.1-2.1,5.1-2.1c3.1,0,2.1,6.2,2.1,8.2v112
		c11.3-10.3,23.6-19.5,38-19.5c32.9,0,45.2,28.8,45.2,48.3c0,43.2-24.7,65.8-59.6,65.8c-25.7,0-33.9-11.3-38-11.3
		c-5.1,0-8.2,11.3-14.4,11.3c-2.1,0-3.1-1-3.1-3.1s2.1-8.2,2.1-22.6L160.2,279.4L160.2,279.4z M190,415.1
		c0,23.6,21.6,28.8,29.8,28.8c23.6,0,28.8-22.6,28.8-41.1c0-21.6-10.3-42.1-37-42.1c-8.2,0-21.6,5.1-21.6,15.4V415.1L190,415.1z"/>
	<polygon points="334.9,227 330.8,227 330.8,236.2 327.7,236.2 327.7,227 323.6,227 323.6,224.9 334.9,224.9 	"/>
	<polygon points="346.2,224.9 349.3,224.9 349.3,236.2 346.2,236.2 346.2,229.1 343.1,232.1 343.1,232.1 340.1,229.1 340.1,236.2 
		337,236.2 337,224.9 339,224.9 343.1,229.1 	"/>
	<polygon points="-94.7,583.6 -89.5,569.2 -84.4,569.2 -93.6,592.9 -95.7,592.9 -101.9,576.4 -108,592.9 -109.1,592.9 -118.3,569.2 
		-114.2,569.2 -108,583.6 -102.9,569.2 -99.8,569.2 	"/>
	<polygon points="-59.7,583.6 -54.6,569.2 -50.5,569.2 -59.7,592.9 -60.8,592.9 -66.9,576.4 -73.1,592.9 -74.1,592.9 -83.4,569.2 
		-79.3,569.2 -74.1,583.6 -69,569.2 -65.9,569.2 	"/>
	<polygon points="-25.8,583.6 -20.7,569.2 -15.5,569.2 -24.8,592.9 -25.8,592.9 -32,576.4 -38.1,592.9 -40.2,592.9 -49.5,569.2 
		-44.3,569.2 -39.2,583.6 -34,569.2 -31,569.2 	"/>
	<path d="M-9.4,589.8c0,1-1,3.1-3.1,3.1c-1,0-3.1-2.1-3.1-3.1c0-2.1,2.1-3.1,3.1-3.1C-10.4,586.7-9.4,587.7-9.4,589.8L-9.4,589.8z"
		/>
	<path d="M0.9,575.4c2.1-2.1,3.1-2.1,5.1-2.1c3.1,0,5.1,3.1,5.1,7.2c0,5.1-2.1,8.2-6.2,8.2c-1,0-3.1-1-4.1-1L0.9,575.4L0.9,575.4z
		 M0.9,556.9h-4.1v33.9c2.1,1,5.1,2.1,7.2,2.1c7.2,0,11.3-5.1,11.3-12.3c0-7.2-3.1-11.3-8.2-11.3c-3.1,0-4.1,0-6.2,2.1V556.9
		L0.9,556.9z"/>
	<polygon points="21.5,556.9 25.6,556.9 25.6,591.8 21.5,591.8 	"/>
	<path d="M42,587.7c-1,1-3.1,2.1-4.1,2.1c-2.1,0-3.1-2.1-3.1-3.1c0-3.1,3.1-4.1,7.2-6.2L42,587.7L42,587.7z M49.2,587.7
		c-1,1-2.1,2.1-3.1,2.1c0,0,0-1,0-2.1v-11.3c0-5.1-4.1-7.2-8.2-7.2c-3.1,0-5.1,1-6.2,3.1v4.1c1-2.1,4.1-3.1,6.2-3.1
		c2.1,0,4.1,1,4.1,4.1v1l-4.1,1c-3.1,2.1-7.2,3.1-7.2,7.2c0,3.1,2.1,6.2,5.1,6.2c2.1,0,4.1-1,6.2-2.1c0,1,1,2.1,3.1,2.1
		c1,0,2.1-1,4.1-2.1L49.2,587.7L49.2,587.7z"/>
	<path d="M68.7,575.4c-2.1-2.1-4.1-2.1-5.1-2.1c-4.1,0-7.2,3.1-7.2,7.2c0,5.1,3.1,8.2,7.2,8.2c2.1,0,4.1-1,6.2-2.1v5.1
		c-2.1,0-4.1,1-6.2,1c-7.2,0-11.3-5.1-11.3-11.3c0-8.2,4.1-12.3,10.3-12.3c3.1,0,4.1,0,6.2,1L68.7,575.4L68.7,575.4z"/>
	<path d="M84.2,580.5l11.3,11.3h-6.2L79,580.5l9.2-11.3h5.1L84.2,580.5L84.2,580.5z M74.9,556.9H79v34.9h-4.1V556.9L74.9,556.9z"/>
	<path d="M102.7,575.4c1-2.1,3.1-2.1,4.1-2.1c4.1,0,6.2,3.1,6.2,7.2c0,5.1-3.1,8.2-6.2,8.2c-1,0-3.1-1-4.1-1V575.4L102.7,575.4z
		 M102.7,556.9h-4.1v33.9c2.1,1,5.1,2.1,7.2,2.1c7.2,0,11.3-5.1,11.3-12.3c0-7.2-4.1-11.3-9.2-11.3c-2.1,0-4.1,0-5.1,2.1
		L102.7,556.9L102.7,556.9z"/>
	<path d="M132.5,573.3c4.1,0,7.2,3.1,7.2,7.2c0,5.1-3.1,8.2-7.2,8.2c-4.1,0-7.2-3.1-7.2-8.2C125.3,576.4,128.3,573.3,132.5,573.3
		L132.5,573.3z M132.5,569.2c-6.2,0-11.3,5.1-11.3,11.3c0,7.2,5.1,12.3,11.3,12.3c7.2,0,11.3-5.1,11.3-12.3
		C143.8,573.3,138.6,569.2,132.5,569.2L132.5,569.2z"/>
	<path d="M158.2,587.7c-1,1-2.1,2.1-3.1,2.1c-2.1,0-3.1-2.1-3.1-3.1c0-3.1,3.1-4.1,6.2-6.2L158.2,587.7L158.2,587.7z M165.3,587.7
		c-1,1-1,2.1-2.1,2.1c0,0-1-1-1-2.1v-11.3c0-5.1-3.1-7.2-7.2-7.2c-3.1,0-5.1,1-7.2,3.1v4.1c2.1-2.1,5.1-3.1,7.2-3.1
		c2.1,0,3.1,1,3.1,4.1v1l-3.1,1c-3.1,2.1-7.2,3.1-7.2,7.2c0,3.1,2.1,6.2,5.1,6.2c2.1,0,4.1-1,5.1-2.1c1,1,2.1,2.1,3.1,2.1
		c2.1,0,2.1-1,4.1-2.1L165.3,587.7L165.3,587.7z"/>
	<path d="M174.6,569.2v5.1l0,0c2.1-4.1,4.1-5.1,6.2-5.1c2.1,0,3.1,0,5.1,2.1l-2.1,4.1c-1-1-3.1-2.1-4.1-2.1c-3.1,0-5.1,3.1-5.1,7.2
		v11.3h-4.1v-22.6H174.6L174.6,569.2z"/>
	<path d="M203.4,588.8h-4.1c-5.1,0-6.2-3.1-6.2-8.2c0-4.1,2.1-7.2,6.2-7.2c1,0,3.1,0,4.1,0V588.8L203.4,588.8z M207.5,556.9h-4.1
		v13.4c-2.1-1-3.1-1-4.1-1c-6.2,0-10.3,4.1-10.3,11.3c0,7.2,3.1,11.3,9.2,11.3h9.2L207.5,556.9L207.5,556.9z"/>
	<path d="M218.8,589.8c0,1-1,3.1-2.1,3.1c-2.1,0-3.1-2.1-3.1-3.1c0-2.1,1-3.1,3.1-3.1C217.8,586.7,218.8,587.7,218.8,589.8
		L218.8,589.8z"/>
	<path d="M240.4,575.4c-2.1-2.1-3.1-2.1-5.1-2.1c-4.1,0-6.2,3.1-6.2,7.2c0,5.1,2.1,8.2,7.2,8.2c1,0,3.1-1,5.1-2.1v5.1
		c-1,0-4.1,1-6.2,1c-6.2,0-10.3-5.1-10.3-11.3c0-8.2,3.1-12.3,10.3-12.3c2.1,0,3.1,0,5.1,1L240.4,575.4L240.4,575.4z"/>
	<path d="M256.8,573.3c4.1,0,7.2,3.1,7.2,7.2c0,5.1-3.1,8.2-7.2,8.2c-4.1,0-7.2-3.1-7.2-8.2C249.6,576.4,252.7,573.3,256.8,573.3
		L256.8,573.3z M256.8,569.2c-6.2,0-11.3,5.1-11.3,11.3c0,7.2,5.1,12.3,11.3,12.3c6.2,0,11.3-5.1,11.3-12.3
		C268.1,573.3,263,569.2,256.8,569.2L256.8,569.2z"/>
	<path d="M277.4,569.2v3.1c2.1-2.1,4.1-3.1,6.2-3.1c3.1,0,5.1,1,6.2,4.1c2.1-3.1,4.1-4.1,7.2-4.1c4.1,0,7.2,3.1,7.2,8.2v14.4H300
		v-13.4c0-4.1-2.1-6.2-4.1-6.2s-3.1,2.1-5.1,3.1v16.4h-4.1v-13.4c0-4.1-2.1-6.2-4.1-6.2c-2.1,0-3.1,1-5.1,3.1v16.4h-4.1v-22.6
		L277.4,569.2L277.4,569.2z"/>
</g>
</svg>
