<?xml version="1.0" encoding="iso-8859-1"?><!-- Generator: Adobe Illustrator 16.0.0, SVG Export Plug-In . SVG Version: 6.00 Build 0) --><!DOCTYPE svg PUBLIC "-//W3C//DTD SVG 1.1//EN" "http://www.w3.org/Graphics/SVG/1.1/DTD/svg11.dtd"><svg version="1.1" id="Layer_1" xmlns="http://www.w3.org/2000/svg" xmlns:xlink="http://www.w3.org/1999/xlink" x="0px" y="0px" width="450px" height="450px" viewBox="25 25 450 450" style="enable-background:new 25 25 450 450;" xml:space="preserve"><circle cx="250" cy="250" r="225"/><g><path style="fill:#FFFFFF;" d="M372.294,247.24c-20.741,0-43.104,0-43.104,0l11.749-54.368c0,0,30.344,0,41.403,0	c26.859,0,33.22,13.207,33.22,23.66C415.562,231.319,406,247.24,372.294,247.24z M399.519,293.991	c0,14.786-9.562,30.708-43.268,30.708c-20.741,0-43.104,0-43.104,0l11.748-54.407c0,0,30.346,0,41.364,0	C393.118,270.292,399.519,283.579,399.519,293.991z M271.945,198.585c-20.742,0-43.064,0-43.064,0l11.749-54.368	c0,0,30.304,0,41.323,0c26.899,0,33.3,13.207,33.3,23.659C315.254,182.663,305.651,198.585,271.945,198.585z M300.263,249.711	c0,14.787-9.561,30.708-43.268,30.708c-20.722,0-43.063,0-43.063,0l11.728-54.327c0,0,30.344,0,41.383,0	C293.903,226.092,300.263,239.259,300.263,249.711z M284.262,334.949c0,14.827-9.562,30.708-43.188,30.708	c-20.783,0-43.166,0-43.166,0l11.748-54.408c0,0,30.345,0,41.404,0C277.9,311.249,284.262,324.497,284.262,334.949z M156.607,198.585c-20.723,0-43.044,0-43.044,0l11.688-54.368c0,0,30.345,0,41.404,0c26.86,0,33.281,13.207,33.281,23.659	C199.935,182.663,190.313,198.585,156.607,198.585z M184.986,249.711c0,14.787-9.622,30.708-43.247,30.708	c-20.803,0-43.166,0-43.166,0l11.771-54.327c0,0,30.363,0,41.362,0C178.585,226.092,184.986,239.259,184.986,249.711z"/></g></svg>