<?xml version="1.0" encoding="UTF-8" standalone="no"?>
<svg width="4448px" height="511px" viewBox="0 0 4448 511" version="1.1" xmlns="http://www.w3.org/2000/svg" xmlns:xlink="http://www.w3.org/1999/xlink">
    <!-- Generator: Sketch 3.6.1 (26313) - http://www.bohemiancoding.com/sketch -->
    <title>bloglovin</title>
    <desc>Created with Sketch.</desc>
    <defs></defs>
    <g id="Page-1" stroke="none" stroke-width="1" fill="none" fill-rule="evenodd">
        <g id="bloglovin" fill="#000000">
            <path d="M316.342857,246.857143 C362.057143,237.714286 400.457143,195.657143 400.457143,133.485714 C400.457143,67.6571429 352.914286,7.31428571 259.657143,7.31428571 L0,7.31428571 L0,499.2 L266.971429,499.2 C362.057143,499.2 409.6,440.685714 409.6,365.714286 C409.6,305.371429 369.371429,254.171429 316.342857,246.857143 L316.342857,246.857143 Z M104.228571,100.571429 L235.885714,100.571429 C270.628571,100.571429 292.571429,122.514286 292.571429,151.771429 C292.571429,182.857143 270.628571,202.971429 235.885714,202.971429 L104.228571,202.971429 L104.228571,100.571429 L104.228571,100.571429 Z M239.542857,407.771429 L104.228571,407.771429 L104.228571,296.228571 L239.542857,296.228571 C279.771429,296.228571 301.714286,321.828571 301.714286,352.914286 C303.542857,387.657143 279.771429,407.771429 239.542857,407.771429 L239.542857,407.771429 Z M621.714286,7.31428571 L515.657143,7.31428571 L515.657143,499.2 L828.342857,499.2 L828.342857,407.771429 L621.714286,407.771429 L621.714286,7.31428571 L621.714286,7.31428571 Z M1137.37143,0 C989.257143,0 879.542857,106.057143 879.542857,254.171429 C879.542857,402.285714 987.428571,508.342857 1137.37143,508.342857 C1285.48571,508.342857 1393.37143,402.285714 1393.37143,254.171429 C1395.2,106.057143 1285.48571,0 1137.37143,0 L1137.37143,0 Z M1137.37143,415.085714 C1045.94286,415.085714 987.428571,345.6 987.428571,254.171429 C987.428571,162.742857 1045.94286,93.2571429 1137.37143,93.2571429 C1228.8,93.2571429 1285.48571,162.742857 1285.48571,254.171429 C1287.31429,345.6 1228.8,415.085714 1137.37143,415.085714 L1137.37143,415.085714 Z M1706.05714,320 L1835.88571,320 L1835.88571,378.514286 C1815.77143,396.8 1775.54286,416.914286 1731.65714,416.914286 C1642.05714,416.914286 1576.22857,349.257143 1576.22857,256 C1576.22857,162.742857 1640.22857,95.0857143 1731.65714,95.0857143 C1782.85714,95.0857143 1824.91429,124.342857 1848.68571,159.085714 L1934.62857,111.542857 C1898.05714,53.0285714 1834.05714,1.82857143 1731.65714,1.82857143 C1587.2,1.82857143 1468.34286,100.571429 1468.34286,256 C1468.34286,411.428571 1585.37143,510.171429 1731.65714,510.171429 C1819.42857,510.171429 1890.74286,473.6 1940.11429,418.742857 L1940.11429,228.571429 L1706.05714,228.571429 L1706.05714,320 L1706.05714,320 Z M2157.71429,7.31428571 L2051.65714,7.31428571 L2051.65714,499.2 L2364.34286,499.2 L2364.34286,407.771429 L2157.71429,407.771429 L2157.71429,7.31428571 L2157.71429,7.31428571 Z M2675.2,0 C2527.08571,0 2417.37143,106.057143 2417.37143,254.171429 C2417.37143,402.285714 2525.25714,508.342857 2675.2,508.342857 C2823.31429,508.342857 2931.2,402.285714 2931.2,254.171429 C2931.2,106.057143 2823.31429,0 2675.2,0 L2675.2,0 Z M2675.2,415.085714 C2583.77143,415.085714 2525.25714,345.6 2525.25714,254.171429 C2525.25714,162.742857 2583.77143,93.2571429 2675.2,93.2571429 C2766.62857,93.2571429 2823.31429,162.742857 2823.31429,254.171429 C2823.31429,345.6 2766.62857,415.085714 2675.2,415.085714 L2675.2,415.085714 Z M3212.8,385.828571 L3075.65714,9.14285714 L2956.8,9.14285714 L3146.97143,501.028571 L3278.62857,501.028571 L3468.8,9.14285714 L3349.94286,9.14285714 L3212.8,385.828571 L3212.8,385.828571 Z M3540.11429,499.2 L3644.34286,499.2 L3644.34286,7.31428571 L3540.11429,7.31428571 L3540.11429,499.2 L3540.11429,499.2 Z M4105.14286,316.342857 L3876.57143,7.31428571 L3768.68571,7.31428571 L3768.68571,499.2 L3872.91429,499.2 L3872.91429,179.2 L4106.97143,499.2 L4207.54286,499.2 L4207.54286,7.31428571 L4103.31429,7.31428571 L4103.31429,316.342857 L4105.14286,316.342857 Z M4381.25714,0 C4350.17143,0 4322.74286,27.4285714 4322.74286,58.5142857 C4322.74286,89.6 4344.68571,111.542857 4372.11429,111.542857 C4377.6,111.542857 4383.08571,111.542857 4386.74286,109.714286 C4381.25714,137.142857 4353.82857,166.4 4330.05714,179.2 L4370.28571,212.114286 C4416,179.2 4447.08571,129.828571 4447.08571,74.9714286 C4447.08571,27.4285714 4416,0 4381.25714,0 L4381.25714,0 Z" id="Shape"></path>
        </g>
    </g>
</svg>