<?xml version="1.0" encoding="UTF-8" standalone="no"?>
<svg width="2291px" height="507px" viewBox="0 0 2291 507" version="1.1" xmlns="http://www.w3.org/2000/svg" xmlns:xlink="http://www.w3.org/1999/xlink">
    <!-- Generator: Sketch 3.6.1 (26313) - http://www.bohemiancoding.com/sketch -->
    <title>blueground</title>
    <desc>Created with Sketch.</desc>
    <defs></defs>
    <g id="Page-1" stroke="none" stroke-width="1" fill="none" fill-rule="evenodd">
        <g id="blueground" transform="translate(-2.000000, -3.000000)">
            <g id="Group">
                <g transform="translate(594.440678, 125.830508)" id="Shape" fill="#3450A3">
                    <path d="M3.90508475,2.16949153 L55.5389831,2.16949153 L55.5389831,105.871186 C66.3864407,93.2881356 83.7423729,86.779661 100.664407,86.779661 C143.620339,86.779661 173.125424,122.359322 173.125424,164.013559 C173.125424,205.667797 143.186441,241.681356 99.7966102,241.681356 C82.8745763,241.681356 65.5186441,235.172881 55.9728814,220.854237 L55.5389831,220.854237 L55.5389831,236.908475 L3.90508475,236.908475 L3.90508475,2.16949153 L3.90508475,2.16949153 Z M53.8033898,164.447458 C53.8033898,182.671186 65.5186441,196.989831 86.779661,196.989831 C108.040678,196.989831 119.755932,182.671186 119.755932,164.447458 C119.755932,146.657627 107.60678,131.471186 86.779661,131.471186 C65.9525424,131.471186 53.8033898,146.657627 53.8033898,164.447458 L53.8033898,164.447458 Z"></path>
                    <path d="M252.528814,236.908475 L200.894915,236.908475 L200.894915,2.16949153 L252.528814,2.16949153 L252.528814,236.908475 L252.528814,236.908475 Z"></path>
                    <path d="M338.440678,91.5525424 L338.440678,169.220339 C338.440678,187.444068 342.779661,200.461017 364.040678,200.461017 C385.735593,200.461017 389.640678,187.444068 389.640678,169.220339 L389.640678,91.5525424 L441.274576,91.5525424 L441.274576,178.766102 C441.274576,226.061017 407.864407,241.247458 364.040678,241.247458 C320.650847,241.247458 286.80678,226.061017 286.80678,178.766102 L286.80678,91.5525424 L338.440678,91.5525424 L338.440678,91.5525424 Z"></path>
                    <path d="M626.549153,172.691525 L518.074576,172.691525 C518.074576,193.952542 528.922034,204.8 550.183051,204.8 C561.030508,204.8 569.274576,201.328814 574.915254,191.349153 L624.379661,191.349153 C615.701695,225.627119 583.59322,241.247458 550.616949,241.247458 C502.454237,241.247458 466.874576,213.911864 466.874576,164.013559 C466.874576,115.850847 499.850847,86.3457627 547.145763,86.3457627 C597.477966,86.3457627 626.549153,117.586441 626.549153,167.050847 L626.549153,172.691525 L626.549153,172.691525 Z M578.820339,143.186441 C576.216949,129.301695 563.633898,120.189831 549.749153,120.189831 C534.562712,120.189831 522.413559,128 519.376271,143.186441 L578.820339,143.186441 L578.820339,143.186441 Z"></path>
                    <path d="M808.786441,222.589831 C808.786441,284.637288 777.979661,308.935593 725.044068,308.935593 C692.067797,308.935593 646.942373,292.013559 642.60339,253.39661 L700.311864,253.39661 C701.613559,258.60339 705.518644,262.074576 709.857627,264.244068 C714.19661,266.413559 719.40339,267.715254 724.610169,267.715254 C752.813559,267.715254 757.586441,249.491525 757.586441,226.061017 L757.586441,219.118644 C744.135593,232.569492 730.684746,239.077966 711.59322,239.077966 C669.505085,239.077966 640,206.969492 640,164.881356 C640,122.79322 669.938983,86.3457627 714.19661,86.3457627 C731.118644,86.3457627 746.738983,91.9864407 756.718644,106.305085 L757.152542,106.305085 L757.152542,91.1186441 L808.786441,91.1186441 L808.786441,222.589831 L808.786441,222.589831 Z M692.935593,163.145763 C692.935593,181.369492 704.650847,195.688136 725.911864,195.688136 C747.172881,195.688136 758.888136,181.369492 758.888136,163.145763 C758.888136,145.355932 746.738983,130.169492 725.911864,130.169492 C705.084746,130.60339 692.935593,145.355932 692.935593,163.145763 L692.935593,163.145763 Z"></path>
                    <path d="M895.132203,115.416949 L895.566102,115.416949 C905.545763,97.1932203 922.033898,89.8169492 942.427119,89.8169492 L952.40678,89.8169492 L952.40678,139.281356 C945.464407,134.942373 938.522034,134.508475 930.711864,134.508475 C902.074576,134.508475 895.132203,153.6 895.132203,178.332203 L895.132203,236.908475 L843.498305,236.908475 L843.498305,91.5525424 L895.132203,91.5525424 L895.132203,115.416949 L895.132203,115.416949 Z"></path>
                    <path d="M1140.28475,164.447458 C1140.28475,213.477966 1099.49831,241.681356 1053.07119,241.681356 C1006.64407,241.681356 965.857627,213.911864 965.857627,164.447458 C965.857627,114.549153 1006.64407,86.779661 1053.07119,86.779661 C1099.9322,86.779661 1140.28475,114.549153 1140.28475,164.447458 L1140.28475,164.447458 Z M1020.09492,164.447458 C1020.09492,182.671186 1031.81017,196.989831 1053.07119,196.989831 C1074.3322,196.989831 1086.04746,182.671186 1086.04746,164.447458 C1086.04746,146.657627 1073.89831,131.471186 1053.07119,131.471186 C1032.24407,131.471186 1020.09492,146.657627 1020.09492,164.447458 L1020.09492,164.447458 Z"></path>
                    <path d="M1217.08475,91.5525424 L1217.08475,169.220339 C1217.08475,187.444068 1221.42373,200.461017 1242.68475,200.461017 C1263.94576,200.461017 1268.28475,187.444068 1268.28475,169.220339 L1268.28475,91.5525424 L1319.91864,91.5525424 L1319.91864,178.766102 C1319.91864,226.061017 1286.50847,241.247458 1242.68475,241.247458 C1199.29492,241.247458 1165.45085,226.061017 1165.45085,178.766102 L1165.45085,91.5525424 L1217.08475,91.5525424 L1217.08475,91.5525424 Z"></path>
                    <path d="M1400.62373,110.210169 L1401.05763,110.210169 C1413.20678,92.420339 1427.09153,86.779661 1447.48475,86.779661 C1486.96949,86.779661 1502.15593,111.511864 1502.15593,147.091525 L1502.15593,236.908475 L1450.52203,236.908475 L1450.52203,166.183051 L1450.52203,154.467797 C1450.52203,141.450847 1446.18305,128 1427.52542,128 C1406.69831,128 1400.62373,143.620339 1400.62373,161.844068 L1400.62373,236.908475 L1348.98983,236.908475 L1348.98983,91.5525424 L1400.62373,91.5525424 L1400.62373,110.210169 L1400.62373,110.210169 Z"></path>
                    <path d="M1646.64407,220.854237 L1646.21017,220.854237 C1637.09831,235.172881 1619.30847,241.681356 1602.38644,241.681356 C1559.43051,241.681356 1529.05763,206.101695 1529.05763,164.013559 C1529.05763,122.359322 1558.56271,86.779661 1601.51864,86.779661 C1618.44068,86.779661 1635.36271,92.8542373 1646.64407,105.871186 L1646.64407,2.16949153 L1698.27797,2.16949153 L1698.27797,236.908475 L1646.64407,236.908475 L1646.64407,220.854237 L1646.64407,220.854237 Z M1581.99322,164.447458 C1581.99322,182.671186 1593.70847,196.989831 1614.96949,196.989831 C1636.23051,196.989831 1647.94576,182.671186 1647.94576,164.447458 C1647.94576,146.657627 1635.79661,131.471186 1614.96949,131.471186 C1594.14237,131.471186 1581.99322,146.657627 1581.99322,164.447458 L1581.99322,164.447458 Z"></path>
                </g>
                <path d="M402.657627,62.9152542 C338.440678,1.73559322 265.111864,-6.50847458 184.40678,13.4508475 C137.111864,24.7322034 86.779661,42.9559322 50.7661017,88.5152542 C37.3152542,105.871186 19.0915254,136.244068 9.54576271,170.522034 L3.90508475,197.857627 L3.90508475,213.911864 C-1.30169492,278.128814 13.8847458,362.305085 51.2,408.732203 C86.779661,452.555932 135.810169,486.4 197.423729,504.623729 C256,519.376271 312.40678,502.020339 358.833898,470.345763 C430.427119,423.484746 459.932203,340.176271 464.271186,259.905085 C467.308475,186.576271 458.630508,117.152542 402.657627,62.9152542 L402.657627,62.9152542 Z" id="Shape" fill="#3450A3"></path>
                <path d="M192.216949,434.766102 C105.00339,395.715254 88.5152542,281.6 111.077966,186.142373 C125.39661,125.39661 165.749153,89.8169492 199.159322,81.5728814 C248.623729,69.8576271 294.616949,86.3457627 316.311864,123.661017 C334.101695,153.6 330.630508,189.613559 308.935593,220.420339 C311.972881,225.627119 314.576271,231.701695 316.745763,237.776271 C326.291525,262.942373 327.159322,289.844068 321.084746,313.708475 C335.837288,319.783051 349.288136,324.555932 359.267797,325.423729 C371.850847,326.291525 381.830508,320.650847 385.301695,310.671186 C388.338983,301.125424 385.735593,286.80678 367.511864,274.223729 L373.586441,265.545763 C392.244068,278.562712 400.922034,297.654237 395.281356,314.142373 C390.508475,328.461017 376.189831,336.705085 358.833898,335.837288 C347.552542,335.40339 333.667797,330.19661 318.047458,323.688136 C314.142373,333.667797 309.369492,343.213559 302.861017,351.457627 C275.091525,387.905085 229.098305,401.789831 195.688136,383.566102 C176.162712,372.718644 164.881356,353.627119 166.183051,333.233898 C167.484746,314.142373 180.501695,298.522034 200.461017,291.145763 C235.60678,278.562712 277.261017,295.484746 311.538983,309.369492 C317.179661,287.674576 315.877966,263.810169 307.2,240.813559 C305.464407,236.474576 303.728814,232.569492 301.99322,228.664407 C301.125424,229.532203 300.257627,230.4 299.389831,231.701695 C277.694915,256.433898 229.098305,280.298305 194.386441,252.528814 C177.464407,239.077966 172.257627,218.684746 180.935593,200.027119 C189.613559,181.369492 212.610169,164.447458 243.416949,170.522034 C267.715254,175.294915 288.542373,189.613559 303.294915,210.440678 C320.650847,183.972881 322.386441,154.033898 308.067797,128.867797 C288.542373,95.4576271 246.888136,80.7050847 202.19661,91.5525424 C171.823729,98.9288136 134.942373,131.471186 121.925424,188.311864 C100.230508,279.864407 115.416949,388.338983 196.989831,425.220339 L192.216949,434.766102 L192.216949,434.766102 Z M227.79661,297.654237 C219.552542,297.654237 211.742373,298.955932 204.366102,301.559322 C187.877966,307.2 177.898305,319.349153 177.030508,334.535593 C175.728814,350.589831 184.840678,366.210169 200.894915,374.888136 C229.532203,390.508475 269.884746,377.925424 294.616949,345.816949 C300.691525,338.00678 305.030508,329.328814 308.501695,320.216949 C282.467797,309.369492 253.830508,297.654237 227.79661,297.654237 L227.79661,297.654237 Z M230.833898,180.501695 C210.874576,180.501695 196.122034,192.650847 190.481356,205.233898 C183.972881,219.552542 187.877966,234.738983 200.894915,245.152542 C230.4,268.583051 272.488136,247.322034 292.013559,225.19322 C293.749153,223.457627 295.050847,221.722034 296.786441,219.552542 C283.335593,199.159322 264.244068,185.708475 241.681356,180.935593 C237.776271,180.935593 234.305085,180.501695 230.833898,180.501695 L230.833898,180.501695 Z" id="Shape" fill="#FFFFFF"></path>
            </g>
        </g>
    </g>
</svg>