<?xml version="1.0" encoding="UTF-8" standalone="no"?>
<svg width="2264px" height="506px" viewBox="0 0 2264 506" version="1.1" xmlns="http://www.w3.org/2000/svg" xmlns:xlink="http://www.w3.org/1999/xlink">
    <!-- Generator: Sketch 3.6.1 (26313) - http://www.bohemiancoding.com/sketch -->
    <title>BoligPortal</title>
    <desc>Created with Sketch.</desc>
    <defs></defs>
    <g id="Page-1" stroke="none" stroke-width="1" fill="none" fill-rule="evenodd">
        <g id="BoligPortal">
            <path d="M405.459603,202.318256 C402.267008,195.933065 399.074412,189.547875 392.689222,183.162684 C392.689222,183.162684 392.689222,183.162684 389.496626,179.970089 L389.496626,179.970089 L389.496626,179.970089 L239.444647,26.7255146 L220.289076,7.56994276 C210.71129,-2.00784314 194.748313,-2.00784314 188.363123,7.56994276 L166.014956,26.7255146 L12.7703812,179.970089 L12.7703812,179.970089 C6.3851906,189.547875 0,202.318256 0,215.088637 L0,419.414736 C0,425.799927 3.1925953,428.992522 9.5777859,428.992522 L399.074412,428.992522 C405.459603,428.992522 408.652198,425.799927 408.652198,419.414736 L408.652198,215.088637 C408.652198,208.703447 408.652198,205.510851 405.459603,202.318256" id="Shape" fill="#EF7134"></path>
            <path d="M204.326099,208.703447 C233.059457,208.703447 252.215029,186.35528 252.215029,160.814517 C252.215029,135.273755 229.866862,112.925588 204.326099,112.925588 C178.785337,112.925588 153.244574,132.081159 153.244574,160.814517 C153.244574,186.35528 175.592741,208.703447 204.326099,208.703447" id="Shape" fill="#FFFFFF"></path>
            <path d="M121.318621,384.296188 L130.896407,304.481306 C130.896407,301.28871 134.089003,301.28871 134.089003,301.28871 L140.474193,301.28871 C143.666788,301.28871 143.666788,304.481306 143.666788,304.481306 L150.051979,384.296188 L255.407624,384.296188 L258.600219,304.481306 C258.600219,301.28871 261.792815,301.28871 261.792815,301.28871 L268.178005,301.28871 C271.3706,301.28871 271.3706,301.28871 271.3706,304.481306 L284.140982,384.296188 L325.64472,384.296188 L309.681744,256.592376 C306.489149,240.6294 296.911363,231.051614 277.755791,227.859018 L277.755791,227.859018 L130.896407,227.859018 L130.896407,227.859018 C111.740835,227.859018 102.16305,240.6294 98.9704543,256.592376 L83.0074778,384.296188 L121.318621,384.296188 L121.318621,384.296188 Z" id="Shape" fill="#FFFFFF"></path>
            <g id="Group" transform="translate(510.815248, 192.740470)" fill="#66605D">
                <path d="M1752.73482,223.481671 L1752.73482,12.7703812 C1752.73482,6.3851906 1749.54222,3.1925953 1743.15703,3.1925953 L1724.00146,3.1925953 C1717.61627,3.1925953 1714.42368,6.3851906 1714.42368,12.7703812 L1714.42368,223.481671 C1714.42368,229.866862 1717.61627,233.059457 1724.00146,233.059457 L1743.15703,233.059457 C1749.54222,233.059457 1752.73482,229.866862 1752.73482,223.481671 L1752.73482,223.481671 Z M1417.51231,22.3481671 L1398.35674,22.3481671 C1391.97155,22.3481671 1388.77896,25.5407624 1388.77896,31.925953 L1388.77896,60.6593107 L1366.43079,60.6593107 C1360.0456,60.6593107 1356.853,63.851906 1356.853,70.2370966 L1356.853,86.2000731 C1356.853,92.5852637 1360.0456,95.777859 1366.43079,95.777859 L1388.77896,95.777859 L1388.77896,162.82236 C1388.77896,220.289076 1411.12712,236.252052 1465.40124,236.252052 C1471.78643,236.252052 1474.97903,233.059457 1474.97903,226.674266 L1474.97903,210.71129 C1474.97903,204.326099 1471.78643,201.133504 1465.40124,201.133504 C1436.66788,201.133504 1427.0901,194.748313 1427.0901,162.82236 L1427.0901,95.777859 L1465.40124,95.777859 C1471.78643,95.777859 1474.97903,92.5852637 1474.97903,86.2000731 L1474.97903,70.2370966 C1474.97903,63.851906 1471.78643,60.6593107 1465.40124,60.6593107 L1427.0901,60.6593107 L1427.0901,31.925953 C1430.28269,22.3481671 1427.0901,22.3481671 1417.51231,22.3481671 L1417.51231,22.3481671 Z M1305.77148,60.6593107 C1277.03812,60.6593107 1254.68995,63.851906 1245.11217,67.0445013 C1235.53438,70.2370966 1232.34179,76.6222872 1232.34179,86.2000731 L1232.34179,223.481671 C1232.34179,229.866862 1235.53438,233.059457 1241.91957,233.059457 L1261.07514,233.059457 C1267.46033,233.059457 1270.65293,229.866862 1270.65293,223.481671 L1270.65293,105.355645 C1270.65293,102.16305 1270.65293,102.16305 1273.84552,102.16305 C1283.42331,98.9704543 1293.0011,98.9704543 1305.77148,98.9704543 L1318.54186,98.9704543 C1324.92705,98.9704543 1328.11964,95.777859 1328.11964,89.3926684 L1328.11964,70.2370966 C1328.11964,63.851906 1324.92705,60.6593107 1318.54186,60.6593107 L1305.77148,60.6593107 L1305.77148,60.6593107 Z M1146.14171,121.318621 L1146.14171,169.207551 C1146.14171,188.363123 1133.37133,201.133504 1107.83057,201.133504 C1082.28981,201.133504 1069.51943,188.363123 1069.51943,169.207551 L1069.51943,121.318621 C1069.51943,102.16305 1082.28981,89.3926684 1107.83057,89.3926684 C1133.37133,89.3926684 1146.14171,102.16305 1146.14171,121.318621 L1146.14171,121.318621 Z M1034.40088,121.318621 L1034.40088,169.207551 C1034.40088,210.71129 1059.94164,236.252052 1111.02316,236.252052 C1158.91209,236.252052 1187.64545,210.71129 1187.64545,169.207551 L1187.64545,121.318621 C1187.64545,79.8148825 1162.10469,54.2741201 1111.02316,54.2741201 C1059.94164,57.4667154 1034.40088,79.8148825 1034.40088,121.318621 L1034.40088,121.318621 Z M925.852637,114.933431 L871.578517,114.933431 L871.578517,38.3111436 L925.852637,38.3111436 C951.393399,38.3111436 964.16378,51.0815248 964.16378,76.6222872 C964.16378,98.9704543 951.393399,114.933431 925.852637,114.933431 L925.852637,114.933431 Z M929.045232,0 L842.845159,0 C833.267373,0 830.074778,3.1925953 830.074778,12.7703812 L830.074778,223.481671 C830.074778,233.059457 833.267373,233.059457 842.845159,233.059457 L862.000731,233.059457 C871.578517,233.059457 871.578517,229.866862 871.578517,223.481671 L871.578517,153.244574 L929.045232,153.244574 C976.934161,153.244574 1005.66752,124.511217 1005.66752,76.6222872 C1005.66752,28.7333577 976.934161,0 929.045232,0 L929.045232,0 Z M731.104323,98.9704543 C734.296919,102.16305 734.296919,102.16305 734.296919,105.355645 L734.296919,194.748313 C724.719133,197.940909 715.141347,197.940909 699.17837,197.940909 C676.830203,197.940909 664.059822,185.170527 664.059822,166.014956 L664.059822,130.896407 C664.059822,105.355645 676.830203,95.777859 702.370966,95.777859 C715.141347,95.777859 724.719133,98.9704543 731.104323,98.9704543 L731.104323,98.9704543 Z M628.941274,130.896407 L628.941274,169.207551 C628.941274,210.71129 651.289441,236.252052 695.985775,236.252052 C711.948752,236.252052 724.719133,233.059457 734.296919,229.866862 L734.296919,245.829838 C734.296919,268.178005 721.526538,280.948386 699.17837,280.948386 C680.022799,280.948386 670.445013,274.563196 664.059822,264.98541 C657.674632,258.600219 654.482036,258.600219 648.096846,261.792815 L638.51906,264.98541 C632.133869,268.178005 628.941274,274.563196 635.326464,280.948386 C648.096846,300.103958 667.252417,312.874339 702.370966,312.874339 C753.452491,312.874339 775.800658,284.140982 775.800658,242.637243 L775.800658,89.3926684 C775.800658,79.8148825 772.608062,76.6222872 763.030276,70.2370966 C750.259895,63.851906 731.104323,60.6593107 702.370966,60.6593107 C651.289441,60.6593107 628.941274,86.2000731 628.941274,130.896407 L628.941274,130.896407 Z M565.089368,63.851906 L545.933796,63.851906 C539.548606,63.851906 536.35601,67.0445013 536.35601,73.4296919 L536.35601,223.481671 C536.35601,229.866862 539.548606,233.059457 545.933796,233.059457 L565.089368,233.059457 C571.474559,233.059457 574.667154,229.866862 574.667154,223.481671 L574.667154,73.4296919 C574.667154,67.0445013 571.474559,63.851906 565.089368,63.851906 L565.089368,63.851906 Z M558.704177,0 L558.704177,0 C542.741201,0 536.35601,3.1925953 536.35601,15.9629765 L536.35601,19.1555718 C536.35601,35.1185483 542.741201,38.3111436 555.511582,38.3111436 L558.704177,38.3111436 C574.667154,38.3111436 577.859749,31.925953 577.859749,19.1555718 L577.859749,15.9629765 C577.859749,3.1925953 571.474559,0 558.704177,0 L558.704177,0 Z M478.889295,223.481671 L478.889295,9.5777859 C478.889295,0 475.6967,0 466.118914,0 L446.963342,0 C440.578151,0 437.385556,0 437.385556,6.3851906 L437.385556,223.481671 C437.385556,229.866862 440.578151,233.059457 446.963342,233.059457 L466.118914,233.059457 C475.6967,233.059457 478.889295,229.866862 478.889295,223.481671 L478.889295,223.481671 Z M351.185483,121.318621 L351.185483,169.207551 C351.185483,188.363123 338.415102,201.133504 312.874339,201.133504 C287.333577,201.133504 274.563196,188.363123 274.563196,169.207551 L274.563196,121.318621 C274.563196,102.16305 287.333577,89.3926684 312.874339,89.3926684 C338.415102,89.3926684 351.185483,102.16305 351.185483,121.318621 L351.185483,121.318621 Z M236.252052,121.318621 L236.252052,169.207551 C236.252052,210.71129 261.792815,236.252052 312.874339,236.252052 C360.763269,236.252052 389.496626,210.71129 389.496626,169.207551 L389.496626,121.318621 C389.496626,79.8148825 363.955864,54.2741201 312.874339,54.2741201 C264.98541,57.4667154 236.252052,79.8148825 236.252052,121.318621 L236.252052,121.318621 Z M153.244574,166.014956 C153.244574,185.170527 143.666788,194.748313 121.318621,194.748313 L60.6593107,194.748313 L60.6593107,134.089003 L121.318621,134.089003 C143.666788,134.089003 153.244574,143.666788 153.244574,166.014956 L153.244574,166.014956 Z M146.859384,67.0445013 C146.859384,86.2000731 137.281598,95.777859 118.126026,95.777859 L60.6593107,95.777859 L60.6593107,38.3111436 L118.126026,38.3111436 C137.281598,38.3111436 146.859384,47.8889295 146.859384,67.0445013 L146.859384,67.0445013 Z M121.318621,0 L31.925953,0 C22.3481671,0 19.1555718,3.1925953 19.1555718,12.7703812 L19.1555718,223.481671 C19.1555718,233.059457 22.3481671,233.059457 31.925953,233.059457 L124.511217,233.059457 C166.014956,233.059457 197.940909,210.71129 197.940909,169.207551 C197.940909,140.474193 185.170527,121.318621 166.014956,111.740835 L166.014956,111.740835 C181.977932,102.16305 191.555718,86.2000731 191.555718,60.6593107 C188.363123,22.3481671 162.82236,0 121.318621,0 L121.318621,0 Z" id="Shape"></path>
                <path d="M1621.83841,162.82236 L1621.83841,197.940909 C1621.83841,201.133504 1621.83841,201.133504 1618.64582,201.133504 C1612.26063,201.133504 1602.68284,204.326099 1586.71986,204.326099 C1557.98651,204.326099 1551.60132,197.940909 1551.60132,181.977932 C1551.60132,169.207551 1561.1791,159.629765 1586.71986,159.629765 C1599.49024,162.82236 1615.45322,162.82236 1621.83841,162.82236 M1522.86796,89.3926684 C1519.67536,95.777859 1519.67536,102.16305 1529.25315,105.355645 L1542.02353,111.740835 C1548.40872,114.933431 1551.60132,114.933431 1554.79391,105.355645 C1561.1791,95.777859 1573.94948,89.3926684 1589.91246,89.3926684 C1615.45322,89.3926684 1621.83841,102.16305 1621.83841,121.318621 L1621.83841,130.896407 C1615.45322,130.896407 1602.68284,127.703812 1589.91246,127.703812 C1535.63834,127.703812 1516.48277,140.474193 1516.48277,181.977932 C1516.48277,204.326099 1522.86796,226.674266 1548.40872,233.059457 C1561.1791,236.252052 1570.75689,236.252052 1589.91246,236.252052 C1615.45322,236.252052 1628.2236,236.252052 1644.18658,233.059457 C1656.95696,229.866862 1663.34215,229.866862 1663.34215,210.71129 L1663.34215,124.511217 C1663.34215,86.2000731 1647.37917,57.4667154 1593.10505,57.4667154 C1554.79391,57.4667154 1532.44574,70.2370966 1522.86796,89.3926684" id="Shape"></path>
            </g>
        </g>
    </g>
</svg>