<?xml version="1.0" encoding="utf-8"?>
<!-- Generator: Adobe Illustrator 19.1.0, SVG Export Plug-In . SVG Version: 6.00 Build 0)  -->
<svg version="1.1" id="Layer_1" xmlns="http://www.w3.org/2000/svg" xmlns:xlink="http://www.w3.org/1999/xlink" x="0px" y="0px"
	 viewBox="0 0 70.9 15.8" style="enable-background:new 0 0 70.9 15.8;" xml:space="preserve">
<style type="text/css">
	.st0{fill:#EF7134;}
	.st1{fill:#FFFFFF;}
	.st2{fill:#66605D;}
</style>
<path class="st0" d="M12.7,6.3c-0.1-0.2-0.2-0.4-0.4-0.6c0,0,0,0-0.1-0.1c0,0,0,0,0,0c0,0,0,0,0,0L7.5,0.8L6.9,0.2
	c-0.3-0.3-0.8-0.3-1,0L5.2,0.8L0.4,5.6l0,0C0.2,5.9,0,6.3,0,6.7v6.4c0,0.2,0.1,0.3,0.3,0.3h12.2c0.2,0,0.3-0.1,0.3-0.3V6.7
	C12.8,6.5,12.8,6.4,12.7,6.3"/>
<path class="st1" d="M6.4,6.5c0.9,0,1.5-0.7,1.5-1.5c0-0.8-0.7-1.5-1.5-1.5S4.8,4.1,4.8,5C4.8,5.8,5.5,6.5,6.4,6.5"/>
<path class="st1" d="M3.8,12l0.3-2.5c0-0.1,0.1-0.1,0.1-0.1h0.2c0.1,0,0.1,0.1,0.1,0.1L4.7,12H8l0.1-2.5c0-0.1,0.1-0.1,0.1-0.1h0.2
	c0.1,0,0.1,0,0.1,0.1L8.9,12h1.3L9.7,8c-0.1-0.5-0.4-0.8-1-0.9h0H4.1h0c-0.6,0-0.9,0.4-1,0.9l-0.5,4H3.8z"/>
<g>
	<path class="st2" d="M70.9,13V6.4c0-0.2-0.1-0.3-0.3-0.3H70c-0.2,0-0.3,0.1-0.3,0.3V13c0,0.2,0.1,0.3,0.3,0.3h0.6
		C70.8,13.3,70.9,13.2,70.9,13 M60.4,6.7h-0.6c-0.2,0-0.3,0.1-0.3,0.3v0.9h-0.7c-0.2,0-0.3,0.1-0.3,0.3v0.5c0,0.2,0.1,0.3,0.3,0.3
		h0.7v2.1c0,1.8,0.7,2.3,2.4,2.3c0.2,0,0.3-0.1,0.3-0.3v-0.5c0-0.2-0.1-0.3-0.3-0.3c-0.9,0-1.2-0.2-1.2-1.2V9h1.2
		c0.2,0,0.3-0.1,0.3-0.3V8.2c0-0.2-0.1-0.3-0.3-0.3h-1.2V7C60.8,6.7,60.7,6.7,60.4,6.7 M56.9,7.9C56,7.9,55.3,8,55,8.1
		c-0.3,0.1-0.4,0.3-0.4,0.6V13c0,0.2,0.1,0.3,0.3,0.3h0.6c0.2,0,0.3-0.1,0.3-0.3V9.3c0-0.1,0-0.1,0.1-0.1c0.3-0.1,0.6-0.1,1-0.1h0.4
		c0.2,0,0.3-0.1,0.3-0.3V8.2c0-0.2-0.1-0.3-0.3-0.3H56.9z M51.9,9.8v1.5c0,0.6-0.4,1-1.2,1c-0.8,0-1.2-0.4-1.2-1V9.8
		c0-0.6,0.4-1,1.2-1C51.5,8.8,51.9,9.2,51.9,9.8 M48.4,9.8v1.5c0,1.3,0.8,2.1,2.4,2.1c1.5,0,2.4-0.8,2.4-2.1V9.8
		c0-1.3-0.8-2.1-2.4-2.1C49.2,7.8,48.4,8.5,48.4,9.8 M45,9.6h-1.7V7.2H45c0.8,0,1.2,0.4,1.2,1.2C46.2,9.1,45.8,9.6,45,9.6 M45.1,6
		h-2.7c-0.3,0-0.4,0.1-0.4,0.4V13c0,0.3,0.1,0.3,0.4,0.3H43c0.3,0,0.3-0.1,0.3-0.3v-2.2h1.8c1.5,0,2.4-0.9,2.4-2.4S46.6,6,45.1,6
		 M38.9,9.1C39,9.2,39,9.2,39,9.3v2.8c-0.3,0.1-0.6,0.1-1.1,0.1c-0.7,0-1.1-0.4-1.1-1v-1.1c0-0.8,0.4-1.1,1.2-1.1
		C38.4,9,38.7,9.1,38.9,9.1 M35.7,10.1v1.2c0,1.3,0.7,2.1,2.1,2.1c0.5,0,0.9-0.1,1.2-0.2v0.5c0,0.7-0.4,1.1-1.1,1.1
		c-0.6,0-0.9-0.2-1.1-0.5c-0.2-0.2-0.3-0.2-0.5-0.1L36,14.3c-0.2,0.1-0.3,0.3-0.1,0.5c0.4,0.6,1,1,2.1,1c1.6,0,2.3-0.9,2.3-2.2V8.8
		c0-0.3-0.1-0.4-0.4-0.6c-0.4-0.2-1-0.3-1.9-0.3C36.4,7.9,35.7,8.7,35.7,10.1 M33.7,8h-0.6c-0.2,0-0.3,0.1-0.3,0.3V13
		c0,0.2,0.1,0.3,0.3,0.3h0.6c0.2,0,0.3-0.1,0.3-0.3V8.3C34,8.1,33.9,8,33.7,8 M33.5,6L33.5,6c-0.5,0-0.7,0.1-0.7,0.5v0.1
		c0,0.5,0.2,0.6,0.6,0.6h0.1c0.5,0,0.6-0.2,0.6-0.6V6.5C34.1,6.1,33.9,6,33.5,6 M31,13V6.3C31,6,30.9,6,30.6,6h-0.6
		c-0.2,0-0.3,0-0.3,0.2V13c0,0.2,0.1,0.3,0.3,0.3h0.6C30.9,13.3,31,13.2,31,13 M27,9.8v1.5c0,0.6-0.4,1-1.2,1c-0.8,0-1.2-0.4-1.2-1
		V9.8c0-0.6,0.4-1,1.2-1C26.6,8.8,27,9.2,27,9.8 M23.4,9.8v1.5c0,1.3,0.8,2.1,2.4,2.1c1.5,0,2.4-0.8,2.4-2.1V9.8
		c0-1.3-0.8-2.1-2.4-2.1C24.3,7.8,23.4,8.5,23.4,9.8 M20.8,11.2c0,0.6-0.3,0.9-1,0.9h-1.9v-1.9h1.9C20.5,10.2,20.8,10.5,20.8,11.2
		 M20.6,8.1c0,0.6-0.3,0.9-0.9,0.9h-1.8V7.2h1.8C20.3,7.2,20.6,7.5,20.6,8.1 M19.8,6H17c-0.3,0-0.4,0.1-0.4,0.4V13
		c0,0.3,0.1,0.3,0.4,0.3h2.9c1.3,0,2.3-0.7,2.3-2c0-0.9-0.4-1.5-1-1.8v0c0.5-0.3,0.8-0.8,0.8-1.6C21.9,6.7,21.1,6,19.8,6"/>
	<path class="st2" d="M66.8,11.1v1.1c0,0.1,0,0.1-0.1,0.1c-0.2,0-0.5,0.1-1,0.1c-0.9,0-1.1-0.2-1.1-0.7c0-0.4,0.3-0.7,1.1-0.7
		C66.1,11.1,66.6,11.1,66.8,11.1 M63.7,8.8c-0.1,0.2-0.1,0.4,0.2,0.5l0.4,0.2c0.2,0.1,0.3,0.1,0.4-0.2c0.2-0.3,0.6-0.5,1.1-0.5
		c0.8,0,1,0.4,1,1v0.3c-0.2,0-0.6-0.1-1-0.1c-1.7,0-2.3,0.4-2.3,1.7c0,0.7,0.2,1.4,1,1.6c0.4,0.1,0.7,0.1,1.3,0.1
		c0.8,0,1.2,0,1.7-0.1c0.4-0.1,0.6-0.1,0.6-0.7V9.9c0-1.2-0.5-2.1-2.2-2.1C64.7,7.8,64,8.2,63.7,8.8"/>
</g>
</svg>
