<?xml version="1.0" encoding="UTF-8" standalone="no"?>
<svg width="1027px" height="301px" viewBox="0 0 1027 301" version="1.1" xmlns="http://www.w3.org/2000/svg" xmlns:xlink="http://www.w3.org/1999/xlink">
    <!-- Generator: Sketch 3.6.1 (26313) - http://www.bohemiancoding.com/sketch -->
    <title>path3059</title>
    <desc>Created with Sketch.</desc>
    <defs>
        <linearGradient x1="25.0134945%" y1="0%" x2="25.0134945%" y2="105.812353%" id="linearGradient-1">
            <stop stop-color="#32CB6B" offset="0%"></stop>
            <stop stop-color="#2DB982" offset="100%"></stop>
        </linearGradient>
    </defs>
    <g id="Page-1" stroke="none" stroke-width="1" fill="none" fill-rule="evenodd">
        <path d="M117.57698,300.538024 C110.488933,300.399242 107.253049,300.240119 106.148408,299.975849 C105.300909,299.773084 103.740708,299.531081 102.681321,299.438014 C101.621935,299.344898 100.185221,299.104142 99.4886464,298.902948 C98.7920551,298.701721 97.7771018,298.53706 97.2332071,298.53706 C96.6892963,298.53706 95.8367703,298.365906 95.3387104,298.156727 C94.8406504,297.94755 93.8331241,297.700251 93.0997684,297.607136 C92.3664128,297.51402 91.3766727,297.278576 90.900362,297.083907 C90.4240353,296.889254 89.8461954,296.731688 89.6162485,296.733743 C89.1644421,296.738602 86.8873019,296.051717 83.4196831,294.866801 C82.2190388,294.456526 80.8469774,294.019935 80.3706345,293.896602 C79.8942916,293.773204 79.3800083,293.547134 79.227779,293.394102 C79.0755336,293.241068 78.7948543,293.115888 78.6040239,293.115888 C78.2991787,293.115888 74.6748518,291.662087 72.5047667,290.669313 C67.8909415,288.558619 62.5098525,285.691453 59.4068557,283.690391 C50.0728202,277.671126 44.7261,273.455583 37.4844578,266.405973 C34.6566886,263.65317 30.035177,258.709868 28.3313977,256.615561 C27.7664062,255.921065 26.9468522,254.933634 26.5101672,254.421273 C24.3064963,251.835721 19.5516821,244.981007 17.1791831,240.969394 C16.2974985,239.478574 15.471117,238.08456 15.342778,237.871577 C14.7234985,236.843905 10.2254909,227.56349 10.2254909,227.313455 C10.2254909,227.156049 9.99435174,226.593873 9.71184709,226.064054 C9.42934406,225.534234 9.19452847,224.924773 9.19003683,224.7097 C9.18552585,224.494628 9.01219003,224.093162 8.80480439,223.817557 C8.59741715,223.541934 8.42773843,223.109425 8.42773843,222.856393 C8.42773843,222.603362 8.21111497,221.899506 7.94635134,221.292279 C7.3185235,219.852388 6.89874988,218.624331 6.59830604,217.348583 C6.46455564,216.780644 6.18583053,215.949907 5.97891211,215.502499 C5.7719953,215.055091 5.60327195,214.47426 5.60396954,214.211756 C5.60466873,213.949234 5.44134566,213.211711 5.24102937,212.572775 C4.46346938,210.092696 3.80494757,207.387422 3.80494757,206.673217 C3.80494757,206.262115 3.64756286,205.475541 3.45520683,204.925251 C3.2628508,204.374963 3.02329708,203.111555 2.92286505,202.117664 C2.82243142,201.123789 2.58725334,199.671688 2.40024121,198.89078 C2.21322745,198.109872 1.98721149,195.685565 1.89797957,193.503438 C1.74198039,189.68855 1.48792872,188.378211 0.967022261,188.701816 C0.81316579,188.797361 0.723086451,154.150567 0.723086451,94.8711623 L0.723086451,0.888964336 L3.41971512,0.888964336 C5.57846802,0.888964336 6.1163438,0.962161268 6.1163438,1.25567771 C6.1163438,1.69409814 6.96349687,1.90207781 9.81261584,2.16310907 C10.9850875,2.27047536 12.0960311,2.45262558 12.2813791,2.56776501 C12.4667253,2.68290441 13.2645654,2.92200897 14.054355,3.09910667 C15.638234,3.45425752 16.2122411,3.64876377 19.599484,4.97800052 C21.9821939,5.91302648 25.4539466,7.65840073 26.1686624,8.2805584 C26.3916623,8.47467601 26.6528784,8.63349066 26.7491459,8.63349066 C26.8454068,8.63349066 27.5297299,9.05989516 28.2698535,9.5810346 C33.5542659,13.301981 38.4964081,18.2624168 42.1147595,23.4771796 C43.2442416,25.1049853 45.923714,29.7595973 45.923714,30.0938579 C45.923714,30.2319928 46.1409046,30.7745731 46.4063609,31.2996315 C47.3918512,33.2489208 47.767725,34.3347453 49.10496,39.0953148 C49.3243142,39.8762222 49.5765502,41.1540593 49.6654857,41.9349668 C49.7544163,42.7158744 49.9873244,44.0518154 50.1830475,44.9037176 C50.4390405,46.0179141 50.5399784,48.4156479 50.5427092,53.447224 C50.5462535,59.8928126 50.5833724,60.4753597 51.0161651,60.8690685 C51.4487499,61.2625668 54.4846731,61.2961693 89.4752161,61.2946309 C126.364375,61.2930924 134.288724,61.4277456 137.994313,62.1198128 C138.841813,62.2780284 140.575364,62.5541848 141.846638,62.7333553 C145.608904,63.2636281 148.736411,63.8195686 149.422868,64.0800816 C149.776014,64.214168 150.642781,64.40631 151.349039,64.5072148 C152.055297,64.6081035 153.15322,64.8492323 153.788849,65.0429774 C157.302366,66.1139684 158.580342,66.4664148 158.938126,66.4630627 C159.15707,66.4614433 159.445982,66.5688095 159.580183,66.7026692 C159.714384,66.8365937 160.286441,67.0616095 160.85144,67.202886 C161.416456,67.3440977 162.687713,67.7652716 163.676487,68.1386407 C164.665244,68.512026 165.82094,68.9247627 166.244698,69.0558208 C166.668455,69.1868304 167.419662,69.4851079 167.914049,69.7185445 C168.408419,69.9519649 169.159626,70.291359 169.583383,70.4727481 C183.411697,76.3919505 195.853658,84.802164 207.559865,96.143137 C212.863466,101.28127 220.431465,110.388069 224.18893,116.153379 C226.180267,119.2088 226.726224,120.098937 226.726224,120.290188 C226.726224,120.406299 226.887959,120.68469 227.08562,120.908848 C227.283298,121.133005 227.798789,121.955321 228.23115,122.736228 C229.326125,124.713889 233.917234,133.98088 233.917234,134.213393 C233.917234,134.31833 234.081111,134.770143 234.281414,135.217551 C235.174249,137.211859 235.715648,138.571249 235.723702,138.838953 C235.728536,138.998302 235.955711,139.593496 236.228625,140.161421 C236.501539,140.729361 236.728764,141.433201 236.733548,141.725535 C236.738382,142.017853 236.911957,142.482524 237.119334,142.75813 C237.326726,143.033736 237.500043,143.491573 237.504506,143.775535 C237.510951,144.225696 237.869363,145.461202 238.850115,148.422261 C238.991243,148.848211 239.202244,149.741733 239.319127,150.407873 C239.435928,151.074014 239.703511,152.235707 239.913576,152.989392 C240.417388,154.796854 240.822892,156.912845 241.239836,159.909983 C241.427492,161.258816 241.705771,162.689443 241.858274,163.089127 C242.010841,163.488828 242.137938,164.534346 242.140902,165.412498 C242.144124,166.290651 242.313608,168.403143 242.518117,170.106948 C242.961336,173.799343 243.03754,186.805094 242.635403,190.113642 C242.488634,191.320502 242.269353,193.724291 242.148007,195.455415 C242.026695,197.186539 241.852329,198.724905 241.760644,198.87402 C241.668974,199.023166 241.432953,200.27864 241.236178,201.664021 C241.039404,203.049386 240.75679,204.73468 240.608122,205.409097 C240.459421,206.083512 240.215055,207.187102 240.065016,207.861534 C239.915027,208.535949 239.645528,209.784815 239.466265,210.636814 C239.287018,211.488798 239.005276,212.439548 238.840206,212.749582 C238.675136,213.059616 238.540065,213.617127 238.540065,213.988457 C238.540065,214.359801 238.362929,215.00795 238.146418,215.4288 C237.929924,215.849634 237.64984,216.686087 237.524016,217.287582 C237.275445,218.475929 236.679706,220.231878 236.088785,221.518007 C235.883213,221.965415 235.715035,222.427495 235.715035,222.544869 C235.715035,223.231544 233.298747,228.752131 230.701569,233.999313 C226.345015,242.801083 220.254812,251.63919 213.148463,259.47241 C211.788001,260.972009 210.465158,262.472675 210.208805,262.807211 C208.979984,264.410694 199.665304,272.779839 195.167426,276.321745 C192.08954,278.745486 184.807553,283.608838 181.268822,285.604119 C180.209436,286.201451 179.169301,286.794865 178.95743,286.922797 C177.158679,288.009027 169.781849,291.441039 166.758385,292.598295 C165.910885,292.922695 164.870751,293.331836 164.446993,293.507541 C163.471946,293.911791 162.404666,294.27776 159.824211,295.092691 C158.694195,295.449559 157.249572,295.914667 156.613927,296.126274 C155.978298,296.337897 154.995953,296.610815 154.430954,296.732772 C153.249706,296.987715 151.86532,297.336063 149.235727,298.040049 C148.214621,298.313405 147.001136,298.538324 146.539099,298.539846 C146.077047,298.543084 145.178943,298.700328 144.543314,298.892924 C143.90767,299.085551 142.463062,299.327084 141.333047,299.429593 C140.203032,299.532101 138.585042,299.77812 137.737542,299.976254 C136.864008,300.180461 134.750568,300.343017 132.857924,300.35155 C131.021651,300.359647 129.056961,300.448715 128.49196,300.549101 C127.926945,300.649504 123.015234,300.644484 117.577028,300.537765 L117.57698,300.538024 L117.57698,300.538024 Z M128.267765,253.604916 C128.814801,253.477307 130.063777,253.370183 131.043271,253.3668 C132.022765,253.363561 133.467389,253.195499 134.253539,252.993657 C135.039706,252.791815 136.318551,252.510039 137.095437,252.367467 C138.652159,252.081804 140.403931,251.649166 141.589818,251.257481 C142.013576,251.117565 142.880343,250.849586 143.515972,250.66206 C145.08903,250.197988 146.270374,249.765494 147.524844,249.194396 C148.105326,248.930143 148.696973,248.71392 148.839616,248.71392 C149.513395,248.71392 157.049558,244.604673 160.051724,242.600277 C170.989389,235.297798 178.770403,227.253731 184.619027,217.2024 C186.069644,214.709414 188.973423,208.791005 188.973423,208.327402 C188.973423,208.220523 189.141617,207.767106 189.347174,207.319698 C189.796564,206.341613 190.451814,204.518086 190.798998,203.279341 C190.938194,202.782411 191.163098,202.143476 191.298605,201.859515 C191.434096,201.575553 191.654666,200.820459 191.788706,200.18154 C191.922747,199.542606 192.197416,198.380928 192.399089,197.600021 C193.178521,194.582121 193.596222,192.452609 193.596254,191.496547 C193.596286,190.94893 193.782461,189.571533 194.009975,188.435668 C194.504216,185.968219 194.577519,175.867449 194.117755,173.591979 C193.960032,172.811072 193.735982,171.184724 193.620049,169.977864 C193.504053,168.771006 193.293713,167.493169 193.152518,167.138213 C193.01139,166.783256 192.816854,165.911986 192.720368,165.202073 C192.623865,164.49216 192.388214,163.388571 192.196676,162.749636 C192.005136,162.110718 191.590255,160.716705 191.274729,159.651835 C190.564492,157.254959 189.938111,155.531593 188.600575,152.294524 C187.856103,150.492778 184.993921,144.90152 183.77715,142.872007 C182.620021,140.941988 180.498267,137.983845 177.201034,133.703622 C176.002872,132.148284 170.498885,126.578273 169.213854,125.620672 C168.710864,125.24583 167.663689,124.400503 166.886803,123.742152 C166.109917,123.083784 164.867545,122.123463 164.125973,121.608072 C163.384402,121.092698 162.200995,120.264439 161.496187,119.767494 C160.791364,119.270564 160.157975,118.863965 160.08865,118.863965 C160.019375,118.863965 159.353603,118.481479 158.609293,118.01399 C157.864981,117.546485 156.967072,117.022269 156.613927,116.849058 C156.260799,116.67583 155.509608,116.272778 154.944593,115.953383 C154.070026,115.458996 150.773133,113.958459 148.010402,112.797365 C146.946876,112.35041 145.653514,111.89795 144.286495,111.494654 C143.65085,111.307144 142.784083,111.041562 142.360325,110.904479 C139.703699,110.045112 138.810606,109.809813 137.699232,109.676423 C137.01403,109.594157 135.933361,109.369417 135.297734,109.176902 C133.111859,108.514875 126.833484,107.925624 121.942991,107.923502 C117.341668,107.921883 111.80791,108.427784 109.101905,109.098329 C108.466276,109.255897 107.31058,109.468994 106.533694,109.572004 C105.279965,109.738235 104.440618,109.961551 101.525674,110.904479 C101.101916,111.041643 100.235148,111.307144 99.5995036,111.494654 C98.1309073,111.927925 96.8555901,112.380434 95.875597,112.816004 C95.4518391,113.004341 94.3539162,113.465967 93.4357877,113.84183 C91.2198358,114.74897 86.7339287,117.002124 86.2245591,117.463847 C86.0015558,117.665981 85.7245981,117.83137 85.6090848,117.83137 C85.3938148,117.83137 83.7079506,118.89543 80.9799222,120.753094 C72.891019,126.26134 64.7163379,135.054153 59.5775817,143.773802 C58.1758284,146.152362 55.1693441,152.123531 55.1693441,152.529013 C55.1693441,152.652897 54.9529526,153.231671 54.6884709,153.815158 C53.6883619,156.021559 53.3715933,156.841737 53.3715933,157.224838 C53.3715933,157.442163 53.1561878,158.16427 52.892916,158.82952 C52.3734676,160.142076 51.9878935,161.500332 51.4503271,163.911313 C51.2603844,164.763215 50.9793313,165.866043 50.8257648,166.36205 C50.6721984,166.858057 50.5465532,167.71255 50.5465532,168.260911 C50.5465532,168.809289 50.3455345,169.971743 50.0998427,170.84413 C49.7168527,172.204039 49.6532883,173.627088 49.6542356,180.820209 C49.6552634,188.070218 49.7158909,189.400621 50.1009478,190.612256 C50.3460291,191.383447 50.5465532,192.487815 50.5465532,193.06641 C50.5465532,193.645006 50.6720389,194.524211 50.8253976,195.020218 C50.9787545,195.516224 51.2532603,196.67714 51.4353974,197.600021 C51.6175329,198.522917 51.884494,199.626507 52.0286405,200.052457 C52.1727822,200.478409 52.5424519,201.640087 52.8501165,202.633977 C53.7759893,205.624914 56.3416595,211.928108 57.2108777,213.347239 C57.3413254,213.560206 57.7645903,214.373388 58.1514707,215.154296 C60.1438541,219.175868 65.6891281,226.826177 69.4840406,230.788819 C75.7823607,237.365514 85.7426903,244.721757 92.1516743,247.530106 C93.0698188,247.932413 93.9308029,248.363352 94.0650043,248.487754 C94.1992059,248.612124 94.4881177,248.714633 94.707045,248.715507 C94.9259884,248.716284 95.4518391,248.90462 95.875597,249.133798 C96.2993548,249.362992 96.9927722,249.646144 97.4165139,249.763049 C98.664604,250.107351 100.693721,250.807417 101.564484,251.194162 C102.009589,251.391842 102.677825,251.553588 103.049465,251.553588 C103.421089,251.553588 104.132647,251.724727 104.630707,251.933904 C105.128767,252.143083 106.136293,252.384697 106.869649,252.470834 C107.60302,252.556985 108.549745,252.746585 108.973503,252.89225 C109.397261,253.037835 111.130796,253.270623 112.825827,253.40939 C114.520842,253.548173 116.83225,253.755601 117.962265,253.870417 C120.338776,254.111854 126.808804,253.945233 128.267814,253.604916 L128.267765,253.604916 L128.267765,253.604916 Z M634.382478,300.369866 C632.252121,300.355291 630.065395,300.191149 629.117638,299.975784 C628.226028,299.773214 626.571999,299.524976 625.441983,299.424152 C624.311967,299.323263 622.939488,299.082458 622.392048,298.888924 C621.844577,298.695422 620.952967,298.53706 620.410635,298.53706 C619.868335,298.53706 618.929425,298.370893 618.324148,298.167805 C617.718888,297.964715 616.761401,297.727165 616.196401,297.639945 C615.631386,297.552659 614.533479,297.302671 613.756593,297.084247 C611.140033,296.348699 608.753583,295.652664 607.978097,295.398937 C607.554339,295.260315 606.687572,294.993406 606.051943,294.805879 C604.403085,294.319444 603.208531,293.887322 602.371422,293.474472 C601.971524,293.277262 601.507523,293.115888 601.340343,293.115888 C601.173114,293.115888 600.605053,292.883553 600.077963,292.599591 C599.550887,292.315629 598.934768,292.083293 598.708866,292.083293 C598.482962,292.083293 597.991379,291.917014 597.616453,291.713779 C597.24151,291.510528 596.414696,291.112334 595.779068,290.828889 C594.309376,290.173518 591.914516,289.020617 591.413104,288.727118 C591.201217,288.603072 590.392238,288.19652 589.615352,287.823588 C588.838466,287.450673 588.02947,287.042455 587.817599,286.916448 C587.605712,286.79046 586.276666,286.019042 584.864151,285.202215 C582.33815,283.7415 581.378892,283.139617 578.572018,281.254245 C574.686714,278.644467 571.602867,276.300789 567.121955,272.552378 C564.010574,269.949661 556.118575,262.189361 553.24895,258.910884 C545.332189,249.86627 539.134496,240.26055 534.344195,229.610753 C534.056813,228.971818 533.66257,228.120191 533.468132,227.71824 C533.27366,227.316272 533.114567,226.864329 533.114567,226.713904 C533.114567,226.563462 532.896026,225.96302 532.628944,225.379533 C531.754637,223.469612 530.759323,220.640146 530.261505,218.649497 C530.120859,218.087144 529.909632,217.506313 529.79209,217.358738 C529.674482,217.21121 529.455554,216.567677 529.305404,215.928742 C528.923695,214.304094 528.504077,212.718765 527.944458,210.786787 C527.680469,209.875485 527.46449,208.815117 527.46449,208.430413 C527.46449,208.045724 527.305639,207.339227 527.111297,206.860452 C526.917067,206.38166 526.678195,205.140308 526.5805,204.1019 C526.48287,203.063475 526.237232,201.741979 526.034817,201.165245 C525.832355,200.588496 525.666367,199.463255 525.665916,198.664712 C525.665916,197.866153 525.476552,196.167288 525.246106,194.889434 C524.636754,191.510279 524.636544,171.162311 525.245847,167.912659 C525.472137,166.705801 525.659391,165.074821 525.662002,164.288245 C525.665223,163.501669 525.837752,162.198148 526.046772,161.391525 C526.255775,160.584885 526.539338,159.137432 526.676858,158.174925 C527.022463,155.756366 527.424761,153.810332 527.884317,152.333989 C528.098524,151.645792 528.3687,150.542186 528.484712,149.881568 C528.600709,149.220932 528.811001,148.331914 528.952,147.905963 C529.092968,147.480012 529.402825,146.55067 529.640489,145.840758 C529.878168,145.130828 530.165405,144.105018 530.278791,143.561158 C530.392211,143.017316 530.614327,142.442282 530.772453,142.283322 C530.93066,142.124297 531.063926,141.756158 531.068696,141.465087 C531.073528,141.174032 531.300705,140.471212 531.573634,139.903272 C531.846564,139.335348 532.073772,138.740234 532.078573,138.580805 C532.08824,138.282576 532.76081,136.623353 534.213167,133.320422 C534.852533,131.866396 537.694254,126.02209 538.104382,125.317748 C538.311065,124.962792 539.308667,123.234178 540.321269,121.476399 C543.871213,115.314076 547.589707,110.162389 553.29377,103.503979 C558.337974,97.6158366 567.507949,89.0266306 573.50065,84.5768566 C575.436407,83.1395087 581.824302,78.787336 582.80958,78.2345373 C583.233321,77.9967768 583.926739,77.5771576 584.350497,77.3020376 C584.774254,77.0269176 585.467671,76.6238487 585.891429,76.4063631 C586.315187,76.1888613 587.181954,75.7082717 587.817599,75.3383681 C590.432531,73.8166494 595.24919,71.4904446 598.218876,70.3150995 C599.066393,69.9796729 599.98776,69.5557462 600.266392,69.3730292 C600.54501,69.1903121 601.013072,69.0408252 601.30651,69.0408252 C601.599966,69.0408252 601.949857,68.9342686 602.084042,68.8040363 C602.419432,68.4785205 607.445964,66.7358993 608.930493,66.4304641 C609.595588,66.2936247 610.462373,66.0125291 610.856664,65.8057802 C611.250987,65.5990474 611.895155,65.4291722 612.288108,65.4282978 C612.681095,65.4275367 613.399001,65.2602524 613.883431,65.056791 C614.367878,64.8533294 615.317599,64.6066946 615.993939,64.5087047 C616.670311,64.4107309 617.613412,64.17059 618.089706,63.9750958 C618.566049,63.7796017 619.382937,63.6196535 619.905051,63.6196535 C620.42718,63.6196535 621.424315,63.4523694 622.120891,63.2479199 C622.817465,63.0434706 624.543107,62.7496627 625.955622,62.5950099 C627.368137,62.4403571 628.87055,62.2082321 629.294308,62.0791497 C630.468321,61.7215373 639.173777,61.2896269 645.21726,61.2891573 C651.549429,61.2886391 658.248517,61.6760969 661.140196,62.2100621 C662.270212,62.4187219 663.541485,62.5876254 663.965243,62.5854069 C664.917735,62.5805486 670.185749,63.5275744 671.926711,64.0168441 C672.632969,64.2153177 673.615314,64.4431837 674.109701,64.5231821 C674.604088,64.6031806 675.586433,64.8308683 676.29269,65.0291478 C680.309327,66.1567367 681.505558,66.5057176 682.199588,66.752401 C682.623344,66.9030053 683.374551,67.1158269 683.868922,67.2253147 C684.363308,67.3347861 685.114514,67.6131126 685.538272,67.8437963 C685.96203,68.0744638 686.545654,68.2639176 686.835226,68.264792 C687.124783,68.2655531 687.471499,68.3744255 687.605685,68.5064552 C687.739886,68.6384364 688.340844,68.9289084 688.941158,69.1518352 C691.733743,70.1888023 692.255501,70.3997455 693.85121,71.1370912 C694.787914,71.5699409 696.074379,72.1549334 696.710008,72.4370816 C697.345654,72.7192298 698.039071,73.0401466 698.250942,73.1502173 C708.428555,78.4378208 717.982977,85.0191637 725.217228,91.7253624 C726.55913,92.9693054 728.173996,94.4439482 728.805806,95.0023338 C732.006858,97.8313788 737.809228,104.246814 741.453903,108.98685 C744.77411,113.304853 750.385762,121.533791 750.385762,122.084516 C750.385762,122.14654 750.748961,122.812211 751.192872,123.563872 C752.614103,125.970334 755.994854,132.930844 757.060168,135.643777 C757.366819,136.424685 757.839633,137.560436 758.110888,138.167663 C758.382142,138.774889 758.60405,139.494081 758.60405,139.765866 C758.937862,140.467374 759.355498,141.548859 759.747373,142.79698 C760.139231,144.0451 760.576345,145.356718 760.718731,145.711674 C760.861148,146.066632 761.12815,146.995973 761.312133,147.776881 C761.690459,149.382501 762.080965,150.925109 762.586468,152.810821 C762.776766,153.520734 763.048585,154.740499 763.190488,155.521407 C763.332422,156.302315 763.566445,157.463992 763.710603,158.102926 C764.154917,160.072426 764.498493,162.699564 764.892285,167.138213 C765.100128,169.480936 765.388267,171.817763 765.532618,172.331178 C765.872423,173.539802 765.87977,189.007495 765.540673,190.451094 C765.400995,191.046402 765.120459,193.450241 764.917079,195.792963 C764.713715,198.135686 764.423418,200.379479 764.272026,200.77918 C764.120586,201.17888 763.994037,202.050135 763.990734,202.71532 C763.987512,203.380489 763.756244,204.788121 763.477079,205.843404 C763.197898,206.89867 762.969481,207.986681 762.969481,208.261186 C762.969481,208.535706 762.804091,209.298638 762.601934,209.956633 C762.399794,210.614612 762.105791,211.675708 761.948551,212.314627 C761.791312,212.953561 761.433012,214.289487 761.152316,215.283362 C760.871604,216.277253 760.534183,217.504613 760.402544,218.01087 C760.27092,218.517095 759.986294,219.272189 759.770153,219.688845 C759.553982,220.105485 759.37641,220.640275 759.375571,220.877227 C759.375571,221.114193 759.211534,221.636952 759.012986,222.038904 C758.814439,222.440872 758.401266,223.466762 758.094793,224.318648 C757.788337,225.17055 757.298574,226.448403 757.006441,227.158316 C756.439523,228.535972 751.861754,237.914507 751.339206,238.768822 C749.667761,241.50153 749.35792,242.029745 749.35792,242.146536 C749.35792,242.220544 749.139734,242.595807 748.873039,242.980512 C748.606393,243.365216 747.942586,244.376987 747.397982,245.228888 C739.025548,258.32526 724.017099,273.266049 710.444799,282.015397 C709.220311,282.804774 706.070797,284.732395 705.698223,284.920456 C705.486352,285.027498 704.619584,285.516995 703.772068,286.00837 C702.924553,286.499793 700.728724,287.652045 698.89245,288.569 C695.873594,290.076484 694.575205,290.682593 692.21508,291.686151 C691.791338,291.866342 691.040131,292.187421 690.545745,292.399659 C688.578283,293.244275 686.792146,293.890351 686.424582,293.890351 C686.211551,293.890351 685.795398,294.060631 685.499784,294.268741 C685.204186,294.476865 684.513959,294.761217 683.965924,294.900646 C683.417888,295.040077 682.160519,295.400993 681.171746,295.702703 C680.182987,296.004397 678.346715,296.511433 678.346715,296.511433 C677.781699,296.654588 676.97272,296.89123 676.548963,297.037366 C676.125205,297.183435 675.194381,297.393374 674.480471,297.50372 C673.76656,297.614001 672.553077,297.883632 671.783842,298.10272 C670.16081,298.565043 668.246609,298.894835 663.995177,299.44462 C662.316932,299.661669 660.81452,299.920207 660.656491,300.019217 C660.047106,300.40091 639.808424,300.900722 638.618187,300.563466 C638.292849,300.471159 636.386544,300.384003 634.382478,300.369866 L634.382478,300.369866 Z M651.452265,253.591556 C651.784579,253.464595 652.944609,253.359998 654.030126,253.359205 C655.115629,253.358427 656.445608,253.23451 656.985621,253.083712 C657.525617,252.932946 658.854663,252.651639 659.939069,252.458526 C662.019337,252.088023 663.715094,251.683108 664.992537,251.251845 C665.416279,251.108853 666.225274,250.881731 666.790289,250.747289 C667.355289,250.612879 668.181748,250.332673 668.626836,250.124694 C669.071957,249.916698 669.595182,249.746531 669.789604,249.746531 C669.984012,249.746531 670.371037,249.587992 670.64967,249.394068 C670.928304,249.200226 671.445181,248.956393 671.798309,248.852249 C674.771831,247.975214 681.871284,243.98535 685.954072,240.896781 C687.308894,239.871845 688.867533,238.693649 689.417647,238.278581 C689.967776,237.863496 692.441821,235.482054 694.915495,232.986475 C698.974179,228.891901 702.233359,225.041127 704.307554,221.889579 C704.7196,221.263502 705.23008,220.49053 705.441951,220.171847 C706.234353,218.980017 708.010178,215.875997 708.010178,215.682738 C708.010178,215.572295 708.219745,215.205031 708.475872,214.866414 C709.011599,214.158186 711.866014,207.705196 711.863904,207.207068 C711.863904,207.024594 712.024527,206.618011 712.22251,206.30354 C712.420542,205.989068 712.665021,205.325195 712.765825,204.828249 C712.866678,204.33132 713.037966,203.808561 713.1466,203.666572 C713.255185,203.52455 713.418917,203.001841 713.510346,202.504894 C713.601692,202.007949 713.840951,201.020519 714.041884,200.310607 C714.742648,197.834721 715.253112,195.391983 715.47146,193.469609 C715.59245,192.404739 715.832677,190.952638 716.005366,190.242726 C716.216093,189.376491 716.320828,186.447239 716.323792,181.336506 C716.327015,175.032274 716.253389,173.418282 715.89314,171.962522 C715.653799,170.995318 715.458007,169.644948 715.458007,168.961706 C715.458007,168.27845 715.299156,167.266842 715.104976,166.713687 C714.910826,166.160547 714.666428,165.082675 714.561853,164.318447 C714.457296,163.55422 714.211641,162.543826 714.015994,162.073132 C713.82033,161.602436 713.65953,160.952214 713.65866,160.628188 C713.65866,160.304162 713.480251,159.698166 713.264078,159.281511 C713.047939,158.864855 712.767662,158.10976 712.641291,157.603536 C712.351508,156.442733 711.711095,154.628372 711.17743,153.4562 C710.951173,152.959272 710.615089,152.204177 710.430558,151.778227 C709.540849,149.724437 708.449257,147.502797 707.640021,146.098906 C707.148968,145.247004 706.553471,144.201487 706.316694,143.775535 C702.772807,137.400002 695.003184,128.53004 688.234901,123.133014 C683.275729,119.17855 680.233027,117.253406 674.88016,114.683368 C668.844266,111.785369 665.794669,110.801372 657.801528,109.172724 C655.439999,108.691536 647.8846,108.011873 644.960441,108.017573 C641.823766,108.024051 633.501017,108.8138 631.605699,109.285419 C631.040699,109.425983 630.000565,109.657654 629.294308,109.800194 C626.352588,110.393818 624.872843,110.811364 621.846478,111.901739 C612.036654,115.436114 604.228704,120.370656 596.651829,127.824548 C591.001462,133.383158 586.092087,139.713478 582.979901,145.453526 C581.827073,147.579767 579.919656,151.511349 579.723573,152.165441 C579.617243,152.520414 579.372313,153.039967 579.179469,153.320026 C578.986625,153.600085 578.824906,154.006684 578.820122,154.223554 C578.815288,154.440441 578.588113,155.08255 578.315199,155.650489 C578.042268,156.218414 577.81506,156.89751 577.810259,157.159561 C577.805426,157.421629 577.642322,157.944371 577.447721,158.321238 C577.094544,159.005193 576.716219,160.295871 576.225328,162.491487 C576.082426,163.130405 575.801489,164.292099 575.600896,165.073007 C575.400319,165.853898 575.106332,167.422175 574.947594,168.558039 C574.788904,169.693903 574.565515,171.204092 574.451258,171.914005 C574.162362,173.709208 574.183338,189.439697 574.476713,191.017172 C574.60882,191.727085 574.873275,193.415294 575.064525,194.768741 C575.25579,196.122204 575.545347,197.479537 575.708015,197.785053 C575.870685,198.09057 576.003742,198.667627 576.003726,199.067425 C576.003678,199.704577 576.233609,200.542002 577.337315,203.924721 C577.47635,204.350672 577.69937,205.149879 577.832959,205.700751 C577.966516,206.251605 578.24531,206.945422 578.452364,207.24255 C578.659418,207.539694 578.828821,207.952609 578.828821,208.160151 C578.828821,208.367693 579.071076,209.067906 579.36719,209.716152 C579.663287,210.364415 580.084692,211.301383 580.303668,211.79833 C580.522627,212.295275 580.791579,212.876106 580.901308,213.089089 C581.011022,213.302056 581.532602,214.329631 582.060355,215.372559 C582.588123,216.415501 583.290401,217.669469 583.620975,218.159158 C583.951581,218.648833 584.222078,219.110994 584.222078,219.186183 C584.222078,219.313791 585.611394,221.370723 587.950222,224.705879 C588.497838,225.486787 589.356551,226.599947 589.858461,227.179579 C590.360372,227.759195 591.23331,228.783661 591.79831,229.456149 C594.229338,232.349613 599.607693,237.451909 602.941287,240.027162 C605.061204,241.664829 608.992664,244.32536 609.292708,244.32536 C609.39485,244.32536 609.66103,244.485357 609.884033,244.680883 C610.891623,245.564412 619.675411,249.746515 620.523538,249.746531 C620.643401,249.746531 621.105711,249.907176 621.550832,250.103512 C622.842357,250.673233 625.688862,251.553588 626.239443,251.553588 C626.516868,251.553588 627.401518,251.785924 628.205294,252.069886 C629.009068,252.353848 630.139455,252.586184 630.717278,252.586184 C631.295102,252.586184 632.02029,252.724804 632.328824,252.894177 C632.637359,253.063567 634.218843,253.299691 635.843245,253.418895 C637.467646,253.538084 639.779037,253.736752 640.979682,253.860328 C643.479971,254.117683 650.550376,253.936278 651.452249,253.591556 L651.452265,253.591556 L651.452265,253.591556 Z M1000.42001,300.66377 C1000.38311,300.626686 999.439323,300.491985 998.322727,300.364619 C993.742605,299.842152 988.478781,297.12614 985.032573,293.507151 C982.276174,290.612586 979.56432,285.898202 979.068211,283.138532 C978.969936,282.591806 978.760256,281.912143 978.602291,281.628182 C978.220066,280.941134 977.990973,263.553058 977.699274,213.089089 C977.564106,189.714914 977.362836,172.245675 977.217293,171.268625 C976.969205,169.603151 976.584032,167.5618 976.096944,165.331155 C975.957426,164.692221 975.69661,163.472391 975.517348,162.620408 C975.338085,161.768424 975.056358,160.817674 974.891288,160.50764 C974.726203,160.197589 974.587216,159.674911 974.582432,159.346108 C974.577598,159.017321 974.350423,158.283635 974.077492,157.715696 C973.804578,157.147771 973.576984,156.566925 973.571684,156.424935 C973.55364,155.938063 971.692008,151.543332 970.181798,148.422261 C966.603194,141.026602 959.981872,132.500099 952.660157,125.85913 C946.719073,120.470411 941.490128,117.041864 934.0133,113.63262 C933.377671,113.342779 932.550857,112.949168 932.175931,112.757916 C931.800988,112.566665 931.356206,112.410199 931.187448,112.410199 C931.018721,112.410199 930.516504,112.236712 930.071384,112.024684 C929.20787,111.613324 927.135255,110.987927 925.341901,110.597571 C924.739557,110.466399 924.037246,110.246501 923.7812,110.108754 C923.525138,109.970943 922.6889,109.784291 921.922903,109.693815 C921.156892,109.603291 920.183455,109.415052 919.759697,109.275411 C918.585105,108.888325 909.560979,108.025282 906.667978,108.023338 C903.573869,108.021719 896.64986,108.656767 893.820705,109.202489 C890.025832,109.934474 886.72578,110.724629 886.097819,111.051651 C885.825324,111.19351 885.146036,111.392616 884.588238,111.494022 C884.030455,111.595397 883.340195,111.843052 883.054377,112.044295 C882.768542,112.245538 882.300351,112.413891 882.013969,112.418409 C881.727587,112.423267 881.268934,112.597175 880.994747,112.805624 C880.720527,113.014089 880.343313,113.184645 880.15643,113.184645 C879.694555,113.184645 873.213169,116.368873 872.024141,117.17995 C871.498918,117.538226 871.01278,117.83137 870.943876,117.83137 C870.690439,117.83137 865.756818,121.266589 863.814826,122.795223 C859.555628,126.147901 852.069504,133.965479 849.162567,138.096215 C847.197957,140.887949 845.281083,143.847971 844.481722,145.324444 C843.005151,148.051758 841.140297,151.984068 840.288674,154.166114 C839.997748,154.911524 839.528591,156.09474 839.246091,156.795486 C838.963576,157.496218 838.732436,158.345286 838.732436,158.682284 C838.732436,159.019281 838.562758,159.520502 838.355366,159.796108 C838.147991,160.071713 837.974641,160.543445 837.970145,160.84441 C837.965312,161.145376 837.730839,162.118895 837.448339,163.007785 C837.165822,163.89669 836.934684,164.982482 836.934684,165.420693 C836.934684,165.858886 836.764458,166.685978 836.556422,167.258647 C835.796823,169.349618 835.648991,172.653974 835.467247,210.190524 C835.443404,215.103008 835.419076,220.601782 835.392655,226.760899 C835.197426,272.316544 835.112233,279.947891 834.788797,280.843549 C834.581694,281.417093 834.3367,282.333657 834.244435,282.880383 C834.054587,284.005025 833.670171,284.971386 832.380758,287.565651 C829.500984,293.35956 824.434352,297.632641 817.801415,299.861439 C816.13672,300.420812 815.594968,300.465167 810.482004,300.460698 C805.355167,300.45584 804.840965,300.412926 803.290993,299.854362 C800.959464,299.014232 798.025445,297.552367 796.356803,296.399418 C792.586611,293.794418 788.255897,288.101802 787.476111,284.725982 C787.377675,284.300032 787.194095,283.819231 787.068046,283.65755 C786.94206,283.495772 786.642676,282.33416 786.402837,281.076047 C786.003777,278.982599 785.960037,274.550703 785.887571,228.836291 C785.830701,192.953699 785.890793,177.793418 786.103406,175.011805 C786.265655,172.882066 786.494491,169.74553 786.611857,168.041741 C786.729304,166.337937 787.000605,164.072671 787.214877,163.007785 C787.429164,161.942916 787.609072,160.650633 787.614663,160.136053 C787.621106,159.621471 787.798227,158.706558 788.010098,158.102926 C788.221969,157.499295 788.395335,156.580349 788.395335,156.060846 C788.395335,155.541342 788.626474,154.455258 788.908974,153.647323 C789.191474,152.839388 789.422613,151.929657 789.422613,151.625711 C789.422613,151.32175 789.586989,150.53472 789.787873,149.876742 C789.988756,149.218763 790.408663,147.809155 790.721,146.744286 C791.033321,145.6794 791.401513,144.517723 791.53913,144.162766 C791.676715,143.807809 791.939528,142.994627 792.123028,142.355709 C792.579394,140.766639 793.226332,138.962788 793.533658,138.422411 C793.67382,138.175873 793.788592,137.825645 793.788592,137.644143 C793.788592,137.462625 794.019732,136.880627 794.302231,136.350808 C794.584731,135.820988 794.81587,135.27125 794.81587,135.129164 C794.81587,134.831259 796.099162,132.055606 798.039188,128.1574 C802.234733,119.727057 807.938023,111.21466 814.19692,104.041361 C818.573195,99.0257195 826.567319,91.1906686 830.5141,88.0488525 C835.168266,84.3439221 842.750346,78.8948643 844.136149,78.2589903 C844.342252,78.1644172 844.97316,77.7973476 845.538161,77.4432818 C846.103176,77.0891997 846.969943,76.5854527 847.46433,76.3238384 C847.958717,76.062208 849.287763,75.3475339 850.417779,74.7356594 C851.547794,74.1237849 852.761278,73.4681057 853.114407,73.2786033 C854.043878,72.7798278 857.378341,71.2675502 859.021303,70.5996769 C859.79819,70.2838613 860.908776,69.8039194 861.489242,69.5331555 C862.06974,69.2623754 862.705369,69.037133 862.901757,69.0326148 C863.098178,69.0277566 863.483206,68.8538492 863.757393,68.6453998 C864.031595,68.4369344 864.495565,68.266379 864.788472,68.266379 C865.081411,68.266379 865.752306,68.0340435 866.279398,67.7500654 C866.806473,67.4661034 867.475031,67.2337679 867.765055,67.2337679 C868.055095,67.2337679 868.608462,67.0694798 868.994779,66.8686741 C869.38108,66.6678682 870.144691,66.419193 870.69168,66.3160372 C871.238652,66.2128813 871.985878,65.9713153 872.352154,65.7792058 C872.718412,65.58708 873.275791,65.4291722 873.590754,65.4282978 C873.905701,65.4275367 874.599118,65.2623416 875.131687,65.0614386 C875.664241,64.8605358 876.620019,64.6235364 877.255647,64.5347771 C877.891292,64.4460338 878.989199,64.2112855 879.695457,64.0131841 C881.327817,63.5552986 883.630945,63.1393553 886.886466,62.7144893 C888.298981,62.5301367 890.032533,62.2573972 890.738791,62.1083799 C895.868737,61.0260694 917.586295,61.085971 923.098336,62.1976088 C924.087093,62.3970219 925.647294,62.6323047 926.565422,62.7204487 C927.483567,62.8085441 928.588949,62.9907915 929.021858,63.1253313 C929.454751,63.2599036 930.552657,63.4705552 931.46165,63.5935163 C933.066173,63.8105647 935.361518,64.3182632 937.993993,65.038346 C940.81113,65.8089541 943.169258,66.4922118 943.900889,66.7498424 C944.324648,66.8989892 945.083427,67.1228389 945.58706,67.2471118 C946.090694,67.3714818 946.841885,67.6508609 947.256395,67.8681198 C947.670905,68.0853948 948.150583,68.2638851 948.32237,68.2647596 C948.494125,68.2655208 949.014193,68.4276228 949.478067,68.6247524 C949.941907,68.8218822 950.95707,69.2404488 951.733956,69.5548717 C954.438109,70.6493438 955.834787,71.282481 960.20908,73.3967386 C966.015735,76.2033387 973.709703,81.0987071 979.661887,85.7738208 C981.411968,87.1483846 983.217114,88.5634657 983.673367,88.9184223 C985.280097,90.1684541 987.100839,91.9087435 992.568994,97.4210387 C999.424082,104.331444 1003.30151,109.011966 1007.99482,116.041883 C1010.06873,119.148332 1010.55143,119.909969 1011.174,121.058221 C1011.32801,121.342183 1011.64275,121.864942 1011.87355,122.219898 C1013.84227,125.247724 1018.04585,134.10133 1019.71783,138.741562 C1019.9992,139.52247 1020.47767,140.802558 1020.78105,141.586219 C1021.08443,142.369863 1021.33265,143.223206 1021.33265,143.48252 C1021.33265,143.741835 1021.49182,144.262343 1021.68647,144.63921 C1022.01857,145.282323 1022.21288,145.922035 1022.89428,148.615844 C1023.04685,149.219265 1023.28856,150.061483 1023.4312,150.487435 C1023.67259,151.208116 1023.88626,152.199546 1024.65521,156.166754 C1024.82034,157.018657 1025.11731,158.470758 1025.31519,159.393638 C1025.51305,160.316535 1025.74559,161.884795 1025.83196,162.878687 C1025.91831,163.872562 1026.1837,165.615085 1026.42167,166.750949 C1026.81975,168.651138 1026.85432,173.333361 1026.85432,225.351226 L1026.85432,281.886297 L1026.24533,283.564272 C1025.41126,285.862332 1023.79693,289.109183 1022.71562,290.663435 C1021.47503,292.446574 1018.90558,295.046652 1017.2691,296.174839 C1015.61642,297.314201 1011.865,299.31149 1011.37768,299.31149 C1011.18458,299.31149 1010.48038,299.547664 1009.81281,299.836355 C1008.84999,300.252686 1007.76035,300.399468 1004.54306,300.546267 C1002.31228,300.647966 1000.4569,300.70092 1000.41996,300.663674 L1000.42001,300.66377 L1000.42001,300.66377 Z M361.007239,298.910477 C360.068891,298.705089 358.970984,298.53557 358.56743,298.533741 C358.163891,298.530501 357.101121,298.299558 356.205708,298.017427 C355.310296,297.735295 354.212389,297.500351 353.7659,297.495316 C353.319409,297.490458 352.665189,297.320145 352.312061,297.117234 C351.958931,296.914323 351.323286,296.743477 350.899529,296.737566 C350.475788,296.731087 349.806375,296.557633 349.411971,296.350837 C349.01755,296.144055 348.266344,295.896901 347.742636,295.801617 C347.218896,295.706395 346.47829,295.469655 346.096887,295.275684 C345.715468,295.081696 345.135889,294.922945 344.808988,294.922945 C344.482055,294.922945 343.783321,294.690611 343.256214,294.406648 C342.729138,294.122686 342.155552,293.890351 341.981637,293.890351 C341.679177,293.890351 337.876344,292.436598 336.26069,291.703349 C335.836949,291.511014 334.796814,291.040156 333.949299,290.656958 C332.276694,289.900697 326.997129,287.302417 326.373051,286.928352 C326.16118,286.801391 324.551295,285.860485 322.795559,284.837478 C316.856425,281.377044 310.408227,276.774157 305.327291,272.36822 C301.149419,268.745409 292.608274,260.06563 289.494847,256.278823 C285.271109,251.141548 283.787449,249.078237 279.507403,242.38922 C277.948057,239.952216 274.100823,232.502453 272.44167,228.707224 C272.131331,227.997312 271.722137,227.067953 271.53237,226.642019 C271.342603,226.216068 270.934618,225.17055 270.625745,224.318648 C270.316888,223.466762 269.913961,222.363156 269.730348,221.866227 C269.546751,221.369281 269.140619,220.149516 268.827799,219.155641 C268.515027,218.161749 268.101999,216.967085 267.909977,216.500827 C267.71797,216.03457 267.562551,215.453722 267.564598,215.210067 C267.567819,214.966413 267.345864,214.01197 267.073948,213.089089 C266.362132,210.672976 266.033557,209.327334 265.655697,207.280686 C265.472197,206.286811 265.195224,204.950871 265.040207,204.311952 C264.66172,202.751983 264.335867,200.29634 263.670031,193.985906 C263.042248,188.03634 262.722581,175.156855 263.163868,173.591979 C263.30403,173.095034 263.547574,170.829767 263.705135,168.558039 C263.862697,166.286311 264.159101,163.706735 264.363738,162.825667 C264.568391,161.944583 264.738567,160.782906 264.741871,160.244147 C264.745092,159.705405 264.976361,158.401204 265.255525,157.345921 C265.534707,156.290655 265.763123,155.102289 265.763123,154.705099 C265.763123,154.307925 265.921812,153.544976 266.115736,153.009667 C266.309692,152.474358 266.589582,151.455529 266.737719,150.745615 C267.079651,149.107137 267.537902,147.384353 267.939379,146.227972 C268.951674,143.312468 269.160128,142.656529 269.33406,141.839412 C269.439906,141.342465 269.64841,140.703548 269.797562,140.419585 C269.946747,140.135607 270.313473,139.235318 270.612567,138.418913 C271.910471,134.876182 272.453254,133.663623 275.131935,128.322935 C276.688559,125.219353 278.07773,122.487764 278.218989,122.25274 C278.360279,122.017716 278.754683,121.362377 279.095536,120.796461 C282.016601,115.946614 288.227424,107.373392 291.098611,104.227802 C291.64241,103.632025 292.722998,102.416616 293.499869,101.526917 C295.315279,99.4478649 300.390303,94.3637067 302.47803,92.5325691 C303.368383,91.7516615 304.572879,90.6642985 305.154697,90.1162122 C307.575867,87.8354154 315.880524,81.5737098 319.145503,79.5671262 C319.9023,79.1020342 320.788834,78.5472436 321.115607,78.3342601 C322.82612,77.2193996 327.380513,74.6934903 330.096974,73.3530797 C333.905075,71.4740238 334.415894,71.2424818 338.44368,69.5698025 C339.220566,69.2471854 340.235729,68.8219145 340.699569,68.6247849 C341.163443,68.4276552 341.683511,68.2656665 341.855282,68.264792 C342.02707,68.2640146 342.506731,68.0854271 342.921241,67.8681521 C343.335751,67.6508933 344.086958,67.3714332 344.590576,67.2471442 C345.094211,67.1229362 345.852989,66.8990864 346.276747,66.7498747 C346.700503,66.600566 347.913988,66.2335611 348.973375,65.9341014 C350.032761,65.6346419 351.477385,65.2248686 352.183643,65.0234961 C352.8899,64.8221236 354.045595,64.5466796 354.751869,64.4114272 C355.458127,64.2762072 356.498245,64.0493129 357.063261,63.9073077 C358.642553,63.5104087 360.721983,63.1254447 362.84174,62.8375152 C363.901142,62.6935504 365.808044,62.4099609 367.079301,62.2071633 C374.538956,61.0172275 394.020988,61.0151708 399.952484,62.2039245 C400.941258,62.4020421 402.549259,62.6387176 403.525853,62.7298574 C404.50248,62.8210297 405.831525,63.0572841 406.479301,63.2549321 C407.127109,63.4525799 408.075993,63.6155402 408.58794,63.6170787 C409.099855,63.6186333 409.985892,63.7855611 410.556885,63.988051 C411.127877,64.1905572 412.141735,64.4386493 412.809939,64.53936 C413.478112,64.6400867 414.325627,64.8802762 414.693319,65.0731145 C415.06098,65.265969 415.677277,65.4244598 416.062868,65.4253343 C416.448427,65.4261116 417.199633,65.59793 417.732202,65.8069138 C418.264756,66.0159137 419.162761,66.29607 419.727761,66.4295086 C420.292777,66.5629473 421.159545,66.8174523 421.653932,66.9950682 C422.148302,67.1726842 423.188436,67.5461342 423.965323,67.8249303 C428.589394,69.4844277 431.49348,70.71663 436.80641,73.273405 C439.512205,74.5755331 443.7908,76.9506762 445.923477,78.3344867 C446.251699,78.5474542 447.079414,79.0619864 447.762842,79.4778648 C448.942334,80.1956158 449.915384,80.8603151 452.857764,82.9581682 C459.249993,87.5156808 467.133824,94.4701015 472.353441,100.155511 C477.716829,105.997516 481.448549,110.68714 484.981029,116.024524 C485.779778,117.231382 486.629823,118.509235 486.870064,118.864192 C487.11029,119.219148 487.969405,120.671249 488.77919,122.091075 C489.588974,123.510901 490.418978,124.963002 490.62363,125.317958 C491.039816,126.039757 493.901933,131.919398 494.519244,133.320649 C494.738156,133.817579 495.063961,134.572673 495.243223,134.998624 C495.422487,135.424576 495.811414,136.303473 496.107495,136.951719 C496.403624,137.599982 496.645879,138.236666 496.645879,138.366573 C496.645879,138.49645 496.891631,139.243932 497.191981,140.027578 C498.007002,142.15398 498.315472,143.06329 498.945252,145.195588 C499.259731,146.260458 499.631452,147.480223 499.771277,147.906173 C499.911116,148.332125 500.180824,149.319554 500.37064,150.100462 C500.560487,150.88137 500.832483,151.984959 500.975095,152.552899 C501.659522,155.27853 501.816295,156.046725 502.055038,157.844989 C502.196328,158.909858 502.481792,160.379837 502.689233,161.111611 C502.89669,161.84337 503.066785,163.005064 503.067236,163.693115 C503.067236,164.381183 503.262175,165.989653 503.499421,167.267506 C504.135903,170.695777 504.132841,192.033734 503.494587,195.240861 C503.258647,196.427915 503.065625,198.062214 503.065625,198.872659 C503.065625,199.683105 502.901893,200.919081 502.701799,201.619261 C502.501689,202.319457 502.267086,203.531255 502.180427,204.312162 C502.093752,205.09307 501.861067,206.312835 501.663276,207.022748 C501.46547,207.732678 501.186176,208.894355 501.042614,209.604268 C500.689098,211.352428 500.080149,213.823958 499.770471,214.767291 C499.630631,215.193225 499.258926,216.412992 498.944446,217.477877 C498.34605,219.503958 498.105953,220.219004 497.167445,222.769965 C496.373916,224.926895 495.658588,226.740899 495.182455,227.803906 C494.959854,228.300851 494.57249,229.172106 494.32168,229.740046 C492.847574,233.077713 489.65875,239.226271 488.29687,241.356836 C481.238805,252.398576 477.671672,256.908348 469.550385,265.057159 C458.520713,276.124258 446.142162,284.81343 433.081698,290.656504 C430.704606,291.71998 429.852871,292.077496 428.458899,292.596951 C427.611382,292.912734 426.571265,293.314945 426.147507,293.490683 C424.876927,294.017652 423.648169,294.44574 422.379264,294.803466 C421.71926,294.989536 420.968054,295.253352 420.709914,295.389722 C420.451789,295.526076 419.750042,295.719351 419.150453,295.819187 C418.550865,295.918943 417.999219,296.100056 417.924563,296.221462 C417.849972,296.342917 417.242568,296.522881 416.574911,296.621422 C415.907255,296.720044 415.072064,296.914906 414.718936,297.054644 C414.128755,297.288162 413.310787,297.4736 409.325679,298.277275 C408.548791,298.433872 407.161957,298.724231 406.243812,298.922348 C405.325683,299.120449 403.707709,299.356866 402.648307,299.447697 C401.588921,299.538547 400.069383,299.777538 399.2716,299.978845 C397.564712,300.409525 378.876967,300.667803 372.471753,300.349251 C368.590027,300.15596 364.155367,299.599532 361.007239,298.910477 L361.007239,298.910477 Z M387.368217,253.86355 C388.780748,253.728007 391.279152,253.513582 392.920244,253.387074 C394.561337,253.260599 396.142821,253.02862 396.434681,252.871635 C396.726492,252.714553 397.374945,252.586184 397.875648,252.586184 C398.37635,252.586184 399.510763,252.366642 400.396541,252.098323 C401.282336,251.829988 402.527123,251.47657 403.162768,251.312961 C405.317451,250.758349 407.805898,249.949993 409.198066,249.352467 C409.621824,249.170591 410.54638,248.773466 411.252637,248.469958 C417.459434,245.802739 423.188081,242.219118 428.460557,237.705329 C432.717855,234.060657 434.321587,232.438665 438.633677,227.416464 C440.059902,225.75538 444.511058,219.522273 444.511058,219.186183 C444.511058,219.111042 444.789772,218.636656 445.130415,218.132082 C445.47109,217.62751 446.523807,215.618448 447.469807,213.667507 C448.415807,211.716566 449.350562,209.812004 449.547047,209.435137 C449.743548,209.05827 449.905041,208.5936 449.90591,208.402543 C449.90591,208.21147 450.057834,207.764726 450.241479,207.40977 C450.425156,207.054812 450.896247,205.718872 451.288299,204.441019 C451.680367,203.163181 452.165023,201.67968 452.365262,201.144371 C452.565501,200.609063 452.729362,199.821208 452.729362,199.393572 C452.729362,198.965937 452.889341,198.231344 453.084714,197.761152 C453.280168,197.290958 453.524888,196.17179 453.628544,195.274091 C453.732136,194.376409 453.929378,193.283702 454.066737,192.845864 C454.307124,192.079563 454.823227,184.262861 454.826659,181.336506 C454.829881,178.680186 454.336751,170.552979 454.154556,170.256628 C454.05467,170.094315 453.812688,168.890632 453.616622,167.581782 C453.235429,165.036959 452.970957,163.854861 452.189011,161.200728 C451.917081,160.277847 451.692628,159.348505 451.690178,159.135521 C451.686956,158.922554 451.516055,158.522804 451.308678,158.247199 C451.101286,157.971593 450.93161,157.528444 450.93161,157.262441 C450.93161,156.996439 450.70047,156.205474 450.417954,155.504727 C450.135455,154.803997 449.660772,153.620781 449.363111,152.875371 C448.787431,151.433699 446.510516,146.808689 445.501927,145.032173 C441.162465,137.388909 434.689779,129.732009 427.386285,123.60209 C423.304772,120.176441 415.947016,115.623689 411.585967,113.825393 C410.696371,113.458583 409.621824,113.004341 409.198066,112.816004 C408.158253,112.353843 406.874253,111.904508 405.429823,111.497294 C404.769819,111.311224 403.99733,111.033918 403.713155,110.881063 C403.429012,110.728191 402.914133,110.603141 402.568963,110.603141 C402.223792,110.603141 401.517229,110.425007 400.998837,110.207279 C400.480429,109.989567 399.281751,109.702511 398.335058,109.569397 C397.388349,109.436282 396.151521,109.211201 395.58652,109.069212 C390.929133,107.898774 375.792604,107.914531 371.188461,109.094637 C370.623445,109.239411 369.525538,109.449804 368.748652,109.562077 C367.971766,109.674301 366.758281,109.940288 366.052024,110.153061 C364.873289,110.508163 364.111918,110.715285 361.540822,111.380162 C361.037188,111.510362 360.285983,111.794745 359.871472,112.012004 C359.456962,112.229279 359.004494,112.407769 358.865959,112.408644 C358.376873,112.411883 355.736953,113.591762 352.166694,115.403208 C348.437181,117.295446 343.673285,120.321215 341.357624,122.268561 C340.62965,122.88076 339.38388,123.904399 338.589256,124.543318 C336.880708,125.917105 329.624401,133.319662 329.015065,134.310476 C328.782363,134.688849 328.277988,135.346941 327.894233,135.772892 C326.911711,136.863478 323.465986,141.899232 322.41836,143.775567 C322.180551,144.201518 321.584184,145.247036 321.093132,146.098938 C320.602097,146.950824 319.851068,148.402924 319.424233,149.325821 C318.997398,150.248718 318.479361,151.312147 318.273048,151.689014 C318.066751,152.06588 317.897944,152.532268 317.897944,152.72543 C317.897944,152.918608 317.666805,153.510144 317.384306,154.039963 C317.101789,154.569783 316.870651,155.189057 316.870651,155.416146 C316.870651,155.643218 316.712766,156.137346 316.519665,156.514213 C316.019494,157.490599 314.456151,162.860468 314.0655,164.943957 C313.932426,165.653869 313.702867,166.699387 313.555438,167.267312 C313.408025,167.835251 313.284553,168.822682 313.281058,169.461599 C313.277836,170.100518 313.081705,171.494532 312.845814,172.559417 C312.311908,174.969475 312.232562,187.352208 312.737388,189.468295 C312.906792,190.178209 313.142732,191.804573 313.261725,193.08241 C313.380782,194.360262 313.591397,195.696188 313.7299,196.051144 C313.868451,196.406101 314.067449,197.335459 314.172185,198.116367 C314.276904,198.897274 314.522414,199.849886 314.717723,200.233281 C314.913064,200.61669 315.072849,201.238054 315.072849,201.614094 C315.072849,201.990152 315.238805,202.663888 315.441654,203.111296 C315.644518,203.558704 315.926342,204.331353 316.068018,204.828282 C316.394227,205.972778 317.06923,207.899038 317.379698,208.571478 C317.510839,208.855441 317.903921,209.784783 318.253312,210.636685 C319.092725,212.68343 321.614311,217.578619 322.548502,218.974997 C322.956954,219.585544 323.291153,220.137857 323.291153,220.202373 C323.291153,220.382693 325.60501,223.719809 326.234758,224.447762 C326.541842,224.80272 326.993858,225.418237 327.239191,225.81559 C328.989852,228.650707 336.545558,236.267819 341.140292,239.829611 C344.094643,242.119817 349.111104,245.376836 350.887591,246.158214 C351.176648,246.285337 351.586486,246.499244 351.798357,246.633524 C352.431714,247.034941 356.047921,248.713952 356.279124,248.713952 C356.396893,248.713952 356.968241,248.930174 357.548738,249.194429 C358.803208,249.765527 359.984537,250.198021 361.557594,250.662091 C362.193223,250.849619 363.05999,251.117549 363.483748,251.257513 C364.904109,251.726638 366.550904,252.112558 368.508797,252.435142 C369.577576,252.611219 370.593013,252.842891 370.765348,252.94995 C370.937699,253.056992 372.490216,253.260971 374.215406,253.403203 C375.940612,253.545388 378.276685,253.750323 379.4067,253.858498 C382.369122,254.142103 384.452243,254.143431 387.368169,253.863356 L387.368217,253.86355 L387.368217,253.86355 Z" id="path3059" fill="url(#linearGradient-1)"></path>
    </g>
</svg>