<?xml version="1.0" encoding="utf-8"?>
<!-- Generator: Adobe Illustrator 18.0.0, SVG Export Plug-In . SVG Version: 6.00 Build 0)  -->
<!DOCTYPE svg PUBLIC "-//W3C//DTD SVG 1.1//EN" "http://www.w3.org/Graphics/SVG/1.1/DTD/svg11.dtd">
<svg version="1.1"
	 id="svg3159" xmlns:dc="http://purl.org/dc/elements/1.1/" xmlns:cc="http://creativecommons.org/ns#" xmlns:rdf="http://www.w3.org/1999/02/22-rdf-syntax-ns#" xmlns:svg="http://www.w3.org/2000/svg"
	 xmlns="http://www.w3.org/2000/svg" xmlns:xlink="http://www.w3.org/1999/xlink" x="0px" y="0px" viewBox="0 0 631.5 384"
	 enable-background="new 0 0 631.5 384" xml:space="preserve">
<path id="path3191" fill="#1B448E" d="M0,192l0.4-9.9l1.2-9.8l4.8-19.1l7.8-18.4l10.6-17.6l13.3-16.8l15.8-15.8l18.2-14.8l20.4-13.6
	L115,43.8l24.3-11.1l26.1-9.6l27.6-8.1l29-6.5l30.3-4.7L283.6,1l32.3-1l32.2,1l31.3,2.9l30.2,4.7l29,6.5l27.6,8.1l26,9.6l24.3,11.1
	L539,56.2l20.4,13.6l18.2,14.8l15.8,15.8l13.3,16.8l10.6,17.6l7.8,18.4l4.8,19.1l1.2,9.8l0.4,9.9l-0.4,9.9l-1.2,9.7l-4.8,19
	l-7.8,18.4l-10.6,17.6l-13.3,16.8l-15.8,15.8L559.4,314L539,327.6L516.6,340l-24.3,11.1l-26,9.6l-27.6,8.1l-29,6.5l-30.2,4.7
	l-31.3,2.9l-32.2,1l-32.3-1l-31.4-2.9l-30.3-4.7l-29-6.5l-27.6-8.1l-26.1-9.6L115,340l-22.5-12.4L72.1,314l-18.2-14.8l-15.8-15.8
	l-13.3-16.8L14.2,249l-7.8-18.4l-4.8-19l-1.2-9.7L0,192z"/>
<path id="path3203" fill="#FFFFFF" d="M534.2,160.3l-0.2-3.1l-0.4-3.1l-0.6-2.9l-0.8-2.9l-2-5.5l-2.2-5.4l-2.2-5.3l-2-5.3l-0.8-2.7
	l-0.6-2.8l-0.4-2.9l-0.2-2.9l2.6-2l0.7-0.6l0.6-0.6l0.6-0.6l0.5-0.6l0.6-0.8l0.6-0.9l0.3-0.5l0.2-0.5l0.2-0.5l0.2-0.5l0.1-0.5
	l0.1-0.5l0.1-0.5l0-0.5l-0.1-0.6l-0.1-0.6l-0.2-0.6l-0.3-0.6l-0.4-0.4l-0.4-0.3l-0.2-0.2l-0.2-0.1L527,102l-0.2-0.1l-0.3-0.1
	l-0.2-0.1l-0.3,0l-0.3-0.1h-0.3h-0.2l-0.3,0l-0.3,0.1L524,102l-0.7,0.4l-0.7,0.5l-0.6,0.5l-0.5,0.5l-0.5,0.6l-0.5,0.6l-0.4,0.6
	l-0.7,1.3l-0.6,1.3l-1.1,2.6l-24.6,30l-3.3-0.3l-1.6-0.1l-1.6,0l-1.6,0.1l-1.6,0.2l-1.6,0.3l-1.5,0.4l-1.5,0.5l-1.4,0.6l-1.4,0.7
	l-1.4,0.8l-1.3,0.9l-1.3,1l-1.2,1.1l-1.2,1.2l-1.3,1.4l-1.2,1.5l-1,1.6l-0.9,1.7l-0.8,1.8l-0.6,1.8l-0.5,1.9l-0.3,1.9l-0.2,1.9
	l-0.1,2l0.1,2l0.2,2l0.3,1.9l0.4,1.9l0.5,1.8l0.7,1.8l-7.8,8.1l-8.4,7.4l-2.2,1.7l-2.2,1.5l-1.1,0.6L442,197l-1.1,0.4l-1.1,0.3
	l-0.4,0.1l-0.4,0h-0.4l-0.4,0l-0.3,0l-0.3-0.1l-0.3-0.1l-0.3-0.1l-0.3-0.1l-0.3-0.2l-0.3-0.2l-0.3-0.2l-0.2-0.2l-0.2-0.3l-0.2-0.3
	l-0.1-0.3l-0.3-0.7l-0.2-0.7l-0.1-0.7l0-0.7l0-0.7l0.1-0.7l0.1-0.7l0.2-0.7l0.5-1.4l0.6-1.4l1.1-2.6l35-85.9l52.9-6.4l6.4-11.5
	h-52.5l5-11.5L469.5,70l-4.7,10.1H272.5l4.7,4.4l1.7,1.8l1.5,1.9l1.3,2l1.2,2l1,2.1l0.9,2.2l0.7,2.3l0.6,2.3l0.5,2.3l0.3,2.4
	l0.2,2.4l0.1,2.4l-0.1,2.3l-0.2,2.3l-0.7,4.5l79.5-8.8L455,101l-11.5,22.6l-3.4-1.4l-3.1-1.4l-3.2-1l-3.3-0.7l-3.3-0.5l-3.4-0.2
	l-3.4,0.1l-3.4,0.3l-3.4,0.5l-3.3,0.7L407,121l-3.2,1l-3.1,1.2l-5.9,2.8l-5.4,3.3l-3.5-1.2l-3.5-0.8l-3.5-0.5l-3.5-0.2l-3.5,0
	l-3.5,0.3l-3.5,0.5l-3.4,0.8l-3.4,0.9l-3.3,1.1l-6.5,2.7l-6.1,3.2l-5.8,3.5l-0.3-0.9l-0.3-1l-0.4-0.9l-0.5-0.9l-0.5-0.9l-0.6-0.9
	l-0.6-0.8l-0.7-0.8l-0.7-0.7l-0.8-0.7l-0.8-0.6l-0.9-0.6l-0.9-0.5l-0.9-0.4l-1-0.3l-1-0.2l-2.3-0.4l-2.3-0.2l-2.3,0.1l-2.2,0.3
	l-2.2,0.5l-2.2,0.7l-2.1,0.8l-2.1,0.9l-3.9,2.1l-3.6,2.2l-5.8,4.1l-0.6-0.4l-0.7-0.4l-1.5-0.8l-1.6-0.8l-1.4-0.6l-1-0.3l-1-0.3
	l-1-0.2l-1-0.2l-1-0.1l-1-0.1l-2.1,0l-2.1,0.2l-2.1,0.4l-2,0.5l-1.9,0.7l2.4-4.4l1.1-2.2l1.1-2.3l0.9-2.3l0.9-2.3l0.7-2.4l0.6-2.4
	l0.3-2.6l0.2-2.6v-2.6l-0.2-2.6l-0.4-2.6l-0.6-2.5l-0.7-2.4l-0.9-2.4l-1-2.3l-1.2-2.3l-1.4-2.2l-1.5-2.1l-1.7-2l-1.8-1.9l-2-1.8
	l-2.1-1.7l0.7-0.7l0.7-0.7l1.4-1.3l1.5-1.2l1.6-1.1l3.2-2l1.6-1l1.5-1.1l0,0l0,0l0,0l0,0l0,0h0l0,0l0.1-0.1l0.1-0.1l0.1-0.1l0.1-0.1
	l0.1-0.1l0.1-0.1l0.1-0.1l0.1-0.2l0-0.2l0-0.2l0-0.2l-0.1-0.2l-0.1-0.3l-0.1-0.2l-0.1-0.1l-0.1-0.1l-0.1-0.1l-0.1-0.1l-0.1-0.1
	l-0.1-0.1l-0.1,0l-0.2-0.1l-0.3,0l-0.1,0l-0.1,0l-0.1-0.1l-0.1-0.1l-2.6,0.7l-2.7,0.9l-2.7,1l-2.6,1.2l-4.5,2.3l-3.2,1.7l-6.2-2.2
	l-6.4-1.7l-6.6-1.2l-6.7-0.8l-6.8-0.4l-6.8,0l-6.7,0.4l-6.6,0.8l-10.2,2.4l-10,3.1l-9.7,3.8l-9.3,4.6l-8.9,5.4l-8.4,6.3l-7.9,7.3
	l-7.4,8.2l-2.7,4.1l-2.5,4.4l-2.2,4.6l-0.9,2.4l-0.8,2.4l-0.6,2.4l-0.4,2.4l-0.2,2.5l0,2.5l0.3,2.5l0.6,2.5l0.9,2.4l1.2,2.4l1,1.2
	l1,1.2l1.1,1.1l1.2,1l1.2,0.9l1.3,0.9l1.3,0.8l1.4,0.7l1.4,0.6l1.5,0.5l1.5,0.4l1.5,0.3l1.6,0.1l1.6,0.1l1.6-0.1l1.6-0.2l1-0.3
	l1-0.4l1-0.4l1-0.5l0.9-0.6l0.9-0.7l0.9-0.7l0.8-0.8l0.8-0.8l0.7-0.9l0.7-0.9l0.7-0.9l0.6-0.9l0.5-1l0.5-1l0.4-1l-1.8-0.5l-1.8-0.6
	l-1.8-0.7l-0.9-0.5l-0.8-0.5l-0.8-0.5l-0.8-0.6l-0.7-0.7l-0.7-0.7l-0.5-0.8l-0.5-0.9l-0.4-0.9l-0.3-1l-0.2-2.2l0-2.2l0.1-2.1
	l0.3-2.1l0.4-2l0.5-2l0.7-2l0.7-1.9l1.8-3.7l2.1-3.6l2.3-3.4l2.5-3.3l6.5-6.5l6.9-5.7l7.3-4.9l7.7-4.1l8-3.3l8.3-2.5l8.6-1.7l8.8-1
	l6.3,0.3l3.1,0.3l3,0.5l2.8,0.7l1.4,0.5l1.3,0.5l1.3,0.7l1.2,0.7l1.2,0.8l1.1,1l-13.5,8.4l-6.7,5.5l-6.2,6l-5.7,6.4l-5.4,6.7l-5,6.9
	l-4.8,7l-9,14.1l-2.5-0.2l-2.5-0.1l-2.5,0l-2.4,0.2l-2.4,0.4l-2.3,0.6l-1.1,0.3l-1.1,0.4l-1,0.5l-1,0.5l-0.6,0.4l-0.6,0.4l-0.6,0.5
	l-0.5,0.5l-0.5,0.5l-0.5,0.5l-0.5,0.5l-0.4,0.6l-0.4,0.6l-0.3,0.6l-0.3,0.6l-0.3,0.7l-0.2,0.7l-0.2,0.7l-0.1,0.7L164,159l0.1,1.2
	l0.2,1.1l0.3,1.1l0.4,1.1l0.5,1l0.6,1l0.7,1l0.7,0.9l0.8,0.9l0.9,0.8l1.8,1.5l1.9,1.3l1.9,1.1l-1.4,3.7l-15.5,33.7l-3.3,7.1
	l-1.7,3.3l-0.8,1.6l-0.9,1.4l-3.4-1.2l-1.8-0.5l-1.8-0.4l-1.9-0.3l-1.9-0.2h-1l-1,0.1l-1,0.1l-1,0.2l-1.9,0.2l-1.9,0.4l-1.9,0.6
	l-1.8,0.8l-1.8,0.9l-1.8,1.1l-1.7,1.2l-1.6,1.3l-1.5,1.4l-1.4,1.5l-1.3,1.6l-1.2,1.7l-1.1,1.7l-1,1.8l-0.8,1.8l-0.7,1.8l-0.8,2.3
	l-0.6,2.3l-0.4,2.4l-0.3,2.4l-0.1,2.4l0.1,2.4l0.3,2.4l0.4,2.3l0.5,2.3l0.7,2.3l0.8,2.2l1,2.2l1.1,2.1l1.2,2l1.4,1.9l1.4,1.8
	l-0.9,1.2l-0.9,1.1l-2,2.1l-2.2,1.9l-2.3,1.8l-2.5,1.5l-2.6,1.4L104,289l-2.7,1l-3.9,0.8l-2.1,0.3l-2.1,0.2l-1.1,0l-1-0.1l-1-0.1
	l-1-0.2l-1-0.3l-0.9-0.3l-0.9-0.5l-0.9-0.6l1.3-0.2l1.2-0.3l1.2-0.4l1.2-0.5l1.1-0.6l0.6-0.3l0.5-0.4l0.5-0.4l0.5-0.4l0.5-0.5
	l0.5-0.5l0.5-0.5l0.5-0.5l0.4-0.5l0.4-0.6l0.3-0.6l0.3-0.6l0.3-0.6l0.2-0.7l0.2-0.7l0.1-0.7l0.1-0.6l0-0.7v-0.6l-0.1-0.6l-0.1-0.6
	l-0.2-0.5l-0.2-0.8l-0.3-0.8l-0.3-0.8l-0.4-0.8l-0.5-0.7l-0.5-0.7l-0.6-0.7l-0.6-0.7l-0.7-0.6l-0.7-0.6l-0.7-0.5l-0.7-0.5l-0.8-0.4
	l-0.7-0.4l-0.8-0.3l-0.8-0.2l-0.9-0.2l-0.9-0.2l-0.9-0.1l-0.9-0.1h-0.9l-0.9,0l-0.9,0.1l-0.9,0.1l-0.9,0.2l-0.9,0.2l-0.9,0.3
	l-0.8,0.3l-0.8,0.4l-0.8,0.4l-0.7,0.5l-0.7,0.5l-0.9,0.6l-0.9,0.7l-0.8,0.7l-0.7,0.8l-0.7,0.8l-0.6,0.9l-0.5,0.9l-0.4,0.9l-0.4,1
	l-0.3,1l-0.2,1l-0.1,1.1l0,1.1l0,1.1l0.1,1.1l0.2,1.1l0.2,1.3l0.3,1.2L70,287l0.6,1.2l0.7,1.1l0.8,1l0.9,1l0.9,0.9l1,0.9l1,0.9
	l1.1,0.8l1.1,0.7l2.3,1.2l2.3,1l3.3,0.9l3.3,0.6l3.3,0.3h3.3l3.2-0.3l3.1-0.5l3.1-0.7l3.1-0.9l5.9-2.2l5.6-2.7l5.2-2.9l4.8-2.9
	l5.2,2.8l5,2.4l2.5,1l2.5,0.9l2.5,0.9l2.6,0.8l5,1.1l5,0.7l5,0.3l4.9,0l4.9-0.4l4.8-0.7l4.7-1l4.6-1.4l4.5-1.8l4.4-2.1l4.3-2.4
	l4.1-2.7l4-3l3.8-3.3l3.6-3.6l3.4-3.9l3.4-4.3l3.1-4.5l2.7-4.8l2.4-5l2-5.1l1.6-5.3l1.3-5.4l0.9-5.5l0.6-5.5l0.2-5.6l-0.2-5.6
	l-0.5-5.5l-0.9-5.4l-1.3-5.3l-1.6-5.2l-2-5l-1.6-3.8l-1.7-3.8l-3.5-7.3l3.8-1.6l3.8-1.8l7.6-3.7l3.7-1.8l3.5-2.1l3.4-2.3l3.3-2.4
	l6.6-5l3.3-2.5l3.4-2.4l2.2-0.8l2.4-0.7l2.4-0.5l2.5-0.3l1.2-0.1h1.2l1.2,0.1l1.2,0.2l1.2,0.2l1.2,0.3l1.1,0.4l1.1,0.5l-4.6,4.9
	l-4.4,5l-4.1,5.2l-3.8,5.3l-3.5,5.5l-3.2,5.6l-3,5.7l-2.7,5.9l-2.2,5.8l-2,6.1l-1.6,6.3l-1.1,6.4l-0.3,3.2l-0.1,3.2l0.1,3.2l0.3,3.2
	l0.6,3.1l0.8,3.1l1.1,3.1l1.4,3l0.7,1l0.7,1l0.8,0.9l0.9,0.9l0.9,0.8l1,0.7l1,0.7l1,0.5l1,0.5l1.1,0.4l1.1,0.3l1.1,0.3l1.1,0.2
	l1.1,0.1h1.2l1.1-0.1l4.2-0.7l4-1.1l3.9-1.5l3.7-1.9l3.6-2.2l3.4-2.5l3.3-2.7l3.1-2.9l5.8-6.4l5.3-6.9l4.7-7.1l4.2-7l6.6-13l3-6.6
	l2.7-6.7l2.3-6.9l1.8-7.1l1.2-7.3l0.5-7.6l4.2-3.1l4.3-2.9l4.5-2.6l4.6-2.2l4.8-1.8l2.4-0.7l2.5-0.6l2.5-0.5l2.6-0.3l2.6-0.1l2.7,0
	l-5.8,5l-5.4,5.4l-5,5.7l-4.6,5.9l-4.3,6.1l-3.9,6.3l-3.6,6.4l-3.2,6.4l-2.2,5.2l-1.8,5.6l-0.7,2.9l-0.6,3l-0.4,3l-0.3,3l0,3l0.2,3
	l0.5,2.9l0.7,2.9l1,2.7l1.3,2.6l1.7,2.5l2,2.4l0.9,0.9l0.9,0.8l1,0.7l1,0.6l1.1,0.5l1.1,0.4l1.2,0.3l1.2,0.3l1.2,0.2l1.2,0.1h1.2
	l1.2-0.1l1.2-0.1l1.2-0.2l1.2-0.3l1.2-0.3l4.1-1.6l4-2l3.8-2.4l3.6-2.7l3.5-3.1l3.3-3.4l3.1-3.6l2.9-3.8l2.7-4l2.5-4.2l4.3-8.7
	l3.4-8.9l2.4-8.8l0.7-4.8l0.4-4.9l0-4.9l-0.2-2.4l-0.3-2.4l-0.5-2.4l-0.6-2.4l-0.7-2.3l-0.9-2.2l-1.1-2.2l-1.3-2.1l-1.4-2l-1.7-2
	l1.8-1.3l1.6-1.1l1.4-0.9l1.3-0.8l2.2-1.2l2.3-1.1l2.4-0.9l2.4-0.8l2.5-0.6l2.6-0.5l2.6-0.3l2.6-0.1l2.6,0l2.6,0.2l2.6,0.3l2.5,0.5
	l2.4,0.7l2.3,0.9l2.2,1l2.1,1.2l-23.9,53.2l-0.9,2.4l-0.8,2.5l-0.7,2.5l-0.5,2.6l-0.1,1.3l-0.1,1.3l0,1.3l0.1,1.2l0.3,1.2l0.3,1.2
	l0.5,1.2l0.6,1.2l0.5,0.8l0.5,0.7l0.6,0.7l0.6,0.6l0.6,0.6l0.7,0.5l0.7,0.5l0.7,0.4l1.4,0.8l1.5,0.6l1.5,0.5l1.5,0.4l3.4,0.1
	l3.3-0.3l3.2-0.6l3-0.9l3-1.2l2.8-1.5l2.8-1.7l2.7-1.9l5.2-4.3l5-4.7l9.5-9.6l1,1.5l1.2,1.4l1.2,1.3l1.3,1.2l1.4,1.1l1.4,1l1.5,0.9
	l1.6,0.8l1.6,0.7l1.7,0.6l1.7,0.5l1.7,0.4l1.8,0.3l1.8,0.2l1.8,0.1l1.8,0.1v0.3l-0.3,0.6l-0.3,0.6l-0.7,1.1l-0.7,1l-0.8,0.9
	l-0.9,0.9l-0.9,0.8l-2,1.6l-2.4,1.6l-2.4,1.4l-2.4,1.2l-2.4,1l-2.4,0.9l-2.5,0.8l-5,1.5L355,240.8l-73.4,17.9l-4.1,1.3l-4,1.8
	l-3.9,2.1l-1.9,1.2l-1.8,1.3l-1.7,1.4l-1.7,1.5l-1.6,1.6l-1.4,1.7l-1.3,1.8l-1.2,1.9l-1,2l-0.9,2l-0.6,1.5l-0.5,1.6l-0.5,1.6
	l-0.4,1.7l-0.3,1.8l-0.2,1.8l-0.1,1.8l0,1.8l0.1,1.8l0.2,1.8l0.4,1.7l0.5,1.7l0.6,1.6l0.8,1.6l0.9,1.5l1,1.4l0.7-1.1l0.7-1l0.8-0.9
	l0.9-0.8l0.9-0.8l0.9-0.7l0.9-0.6l0.9-0.5l200.4-62.3l12-3.9l2.9-1.1l2.9-1.2l2.9-1.4l2.8-1.6l2.2-1.5l2-1.6l1.9-1.7l1.7-1.9l1.6-2
	l1.4-2.1l2.6-4.3l2.2-4.5l2-4.6l3.9-9.2l0,0l0,0l0,0l0,0l0,0l0,0h0h0.1l0.1,0h0.2l0.1-0.1l0.1,0l0.1,0l0.1,0l0.1-0.1l0.1-0.1
	l0.1-0.1l1.2-0.6l1.3-0.8l2.6-1.8l2.1-1.5l0.6-0.5l0.2-0.1l0-0.1h0l0,0l0,0l0,0l0,0l1.8-1.4l1.7-1.5l1.6-1.5l1.5-1.6l1.4-1.7
	l1.3-1.8l1.2-1.8l1-1.9l0.9-1.9l0.8-2l0.7-2l0.6-2l0.5-2l0.3-2.1l0.3-2.1L534.2,160.3z"/>
<g id="g3207">
	<desc  id="desc3209">Drawing</desc>
	<g id="g3211">
		<g id="g3213">
			<path id="path3215" fill="#1B448E" d="M518.7,163.7l0.7-2.6l0.5-2.6l0.3-2.6l0.2-2.6l0-5.2l-0.5-5.2l-0.8-5.2l-1-5.2l-2.1-10.1
				l-15.5,20.9l1.8,1.4l1.7,1.4l1.6,1.5l1.5,1.6l1.3,1.6l1.2,1.7l1.1,1.8l1,1.8l0.9,1.9l0.8,1.9l0.7,2l0.5,2l0.4,2l0.3,2.1l0.3,4.2
				l0.9-2.1l0.8-2l0.7-2L518.7,163.7z"/>
		</g>
		<g id="g3217">
		</g>
	</g>
</g>
<g id="g3219">
	<desc  id="desc3221">Drawing</desc>
	<g id="g3223">
		<g id="g3225">
			<path id="path3227" fill="#1B448E" d="M506.9,175.5l0.3-1.8l0.1-1.8l0-1.8l-0.1-1.8l-0.3-1.8l-0.4-1.7l-0.5-1.7l-0.7-1.6
				l-0.8-1.6l-0.9-1.5l-1-1.5l-1.1-1.4l-1.2-1.3l-1.4-1.2l-1.5-1.2l-1.6-1l-21.9,28.6l1.3,1.6l1.4,1.4l1.5,1.3l1.5,1.2l1.6,1
				l1.6,0.8l1.6,0.7l0.8,0.3l0.8,0.2l1.2,0.3l1.2,0.2l1.2,0.1l1.2,0.1h1.2l1.2-0.1l1.2-0.2l1.2-0.2l1.1-0.3l1.1-0.4l1.1-0.4l1-0.5
				l1-0.6l1-0.7l0.9-0.7l0.9-0.8l0.5-0.9l0.5-1l0.4-1l0.4-1l0.7-2.1L506.9,175.5z"/>
		</g>
		<g id="g3229">
		</g>
	</g>
</g>
<g id="g3231">
	<desc  id="desc3233">Drawing</desc>
	<g id="g3235">
		<g id="g3237">
			<path id="path3239" fill="#1B448E" d="M487.4,148.5l-0.8-0.2l-0.8-0.1l-0.8-0.1l-0.8,0l-0.8,0l-0.8,0.1l-0.8,0.1l-0.8,0.2
				l-0.8,0.2l-0.8,0.3l-0.8,0.3l-0.7,0.3l-0.7,0.4l-0.7,0.5l-0.6,0.5l-0.6,0.5l-0.9,0.9l-0.8,1l-0.7,1l-0.7,1.1l-0.6,1.1l-0.5,1.1
				l-0.4,1.2l-0.3,1.2l-0.3,1.2l-0.1,1.2l-0.1,1.2l0,1.2l0.1,1.2l0.2,1.2l0.3,1.2l0.5,1.2L487.4,148.5z"/>
		</g>
		<g id="g3241">
		</g>
	</g>
</g>
<g id="g3243">
	<desc  id="desc3245">Drawing</desc>
	<g id="g3247">
		<g id="g3249">
			<path id="path3251" fill="#1B448E" d="M324,150.9l0.1-2.7l0-1.4l-0.1-1.4l-0.1-0.7l-0.1-0.7l-0.2-0.6l-0.3-0.6l-0.3-0.5l-0.4-0.5
				l-0.2-0.2l-0.3-0.2l-0.6-0.3l-0.6-0.3l-0.6-0.2l-0.6-0.1h-0.6l-0.6,0.1l-0.5,0.1l-0.5,0.2l-0.5,0.3l-0.5,0.3l-0.5,0.3l-1,0.8
				l-1.8,1.6l-6.6,7l-6.2,7.2l-5.9,7.5l-5.5,7.7l-5.1,7.9l-4.7,8l-4.3,8.2l-3.9,8.3l-2.6,5.5l-1.2,3.2l-1.1,3.3l-0.5,1.7l-0.3,1.7
				l-0.2,1.7l-0.1,1.7l0.1,1.7l0.2,1.6l0.4,1.6l0.6,1.6l0.2,0.3l0.2,0.3l0.2,0.3l0.2,0.3l0.3,0.2l0.3,0.2l0.3,0.2l0.3,0.2l0.3,0.1
				l0.3,0.1l0.3,0.1l0.3,0.1l0.3,0.1l0.3,0.1l0.3,0.1h0.3l0.5,0.1l0.5,0.1l1,0l1-0.2l1-0.3l1-0.5l1-0.6l1-0.7l1-0.7l2-1.6l1.9-1.8
				l3.3-3.6l4.6-5.6l4.3-5.8l4.1-5.9l3.8-6l3.5-6.2l3.3-6.3l6-12.7l4.6-12.2l2-6.2l0.8-3.1L324,150.9z"/>
		</g>
		<g id="g3253">
		</g>
	</g>
</g>
<g id="g3255">
	<desc  id="desc3257">Drawing</desc>
	<g id="g3259">
		<g id="g3261">
			<path id="path3263" fill="#1B448E" d="M257.3,116.5l0.1-3.1l0-3.1l-0.2-3.1l-0.4-3l-0.3-1.4l-0.4-1.4l-0.4-1.4l-0.5-1.3l-0.6-1.3
				L254,96l-0.8-1.2l-0.9-1.2l-5.4,5l-5.8,6.7l-5.4,6.9l-5,7l-4.7,7.1l-17.4,29.2l3,1.7l1.4,0.9l1.3,0.9l1.2,1l1.1,1l1.1,1.2l1,1.3
				l11.1-6.4l2.7-1.8l2.6-1.9l2.5-2l2.4-2.2l2.3-2.3l2.1-2.4l2-2.5l1.8-2.6l1.7-2.7l1.6-2.7l1.4-2.8l1.2-2.9l1.1-2.9l0.9-3l0.7-3
				L257.3,116.5z"/>
		</g>
		<g id="g3265">
		</g>
	</g>
</g>
<g id="g3267">
	<desc  id="desc3269">Drawing</desc>
	<g id="g3271">
		<g id="g3273">
			<path id="path3275" fill="#1B448E" d="M218.6,219.9l0.9-5.4l0.6-5.6l0.3-5.8l-0.1-5.8l-0.6-5.7l-0.5-2.8l-0.6-2.7l-0.8-2.6
				l-0.9-2.6l-1-2.4l-1.2-2.4l-1.8,0.5l-1.9,0.4l-2,0.4l-2,0.3l-4,0.4l-1.9,0.1l-1.8,0l-15.3,33.2l-8.3,16.3l-9.1,15.9l-2.8,4.6
				l-3.2,4.7l-7,9.4l-6.9,8.3l-5.4,6.1l3.1,0.9l3.1,0.7l3.1,0.5l3.1,0.3l3.1,0.1l3.1-0.1l3-0.3l3-0.5l2.9-0.7l2.9-0.8l2.8-1l2.8-1.1
				l2.7-1.2l2.6-1.4l2.6-1.5l2.4-1.6l3.1-2.3l2.9-2.4l2.7-2.6l2.6-2.7l4.8-5.7l4.2-6.1l3.5-6.4l3-6.7l2.4-6.9L218.6,219.9z"/>
		</g>
		<g id="g3277">
		</g>
	</g>
</g>
<g id="g3279">
	<desc  id="desc3281">Drawing</desc>
	<g id="g3283">
		<g id="g3285">
			<path id="path3287" fill="#1B448E" d="M202.8,167l6.4-0.7l-4.4-2.7L202.8,167z"/>
		</g>
		<g id="g3289">
		</g>
	</g>
</g>
<g id="g3291">
	<desc  id="desc3293">Drawing</desc>
	<g id="g3295">
		<g id="g3297">
			<path id="path3299" fill="#1B448E" d="M183.2,155.6L183.2,155.6L183.2,155.6L183.2,155.6L183.2,155.6L183.2,155.6L183.2,155.6
				L183.2,155.6l-0.2-0.1l-0.3-0.1l-0.4-0.1l-0.5-0.2l-0.6-0.1l-0.8-0.2l-0.9-0.1l-1.1-0.2l-0.5-0.1l-0.5-0.1h-0.5l-0.5,0l-0.5,0.1
				l-0.5,0.1l-0.4,0.1l-0.4,0.2l-0.4,0.2l-0.4,0.3l-0.4,0.3l-0.3,0.3l-0.3,0.4l-0.3,0.4l-0.2,0.3l-0.2,0.3l-0.2,0.3l-0.1,0.3
				l-0.1,0.3l-0.1,0.3l-0.1,0.3l0,0.3v0.3l0,0.3l0.1,0.3l0.1,0.3l0.1,0.3l0.1,0.3l0.1,0.3l0.2,0.3l0.2,0.5l0.3,0.4l0.3,0.4l0.3,0.4
				l0.3,0.3l0.4,0.3l0.4,0.3l0.4,0.3l0.9,0.4l0.9,0.4l0.9,0.4l0.8,0.4L183.2,155.6z"/>
		</g>
		<g id="g3301">
		</g>
	</g>
</g>
<g id="g3303">
	<desc  id="desc3305">Drawing</desc>
	<g id="g3307">
		<g id="g3309">
			<path id="path3311" fill="#1B448E" d="M137.8,252.3l-1-0.9l-0.9-0.9l-0.9-0.9l-0.8-1l-0.7-1l-0.7-1l-0.6-1.1l-0.6-1.1l-0.5-1.2
				l-0.4-1.1l-0.3-1.2l-0.3-1.2l-0.2-1.2l-0.1-1.2l-0.1-1.3l0-1.2l-1.6,1.4l-1.4,1.6l-1.2,1.7l-1.1,1.8l-0.9,1.9l-0.8,2l-0.6,2
				l-0.5,2.1l-0.3,1.3l-0.2,1.3l0,1.3l0,1.3l0.1,1.2l0.2,1.2l0.3,1.2l0.4,1.2l0.5,1.2l0.5,1.2l1.2,2.3l1.4,2.2l1.6,2.2l1-1l5-7.5
				l2.3-3.8l1.1-2L137.8,252.3z"/>
		</g>
		<g id="g3313">
		</g>
	</g>
</g>
<g id="g3315">
	<desc  id="desc3317">Drawing</desc>
	<g id="g3319">
		<g id="g3321">
			<path id="path3323" fill="#1B448E" d="M388.3,170.8l1-4.7l0.7-4.5l0.3-4.2l-0.1-3.9l-0.1-1.8l-0.3-1.7l-0.3-1.6l-0.4-1.5
				l-0.5-1.4l-0.7-1.2l-0.7-1.1l-0.8-1l-0.1,0l-0.1,0h-0.1l-0.1,0l-0.2,0.1l-0.3,0.2l-0.7,0.5l-0.8,0.7l-1.8,1.9l-2,2.2l-3.7,4.3
				l-1.2,1.4l-0.3,0.4l-0.1,0.1l0,0l0,0l0,0l0,0l0,0l-8.5,12l-3.9,6.2l-3.6,6.3l-3.3,6.4l-2.8,6.6l-2.4,6.7l-1.8,7l-0.7,3.7
				l-0.2,1.9l-0.1,1.9l0,0.9l0.1,0.9l0.1,0.9l0.2,0.9l0.3,0.9l0.3,0.9l0.5,0.8l0.5,0.8l0.4,0.4l0.4,0.4l0.5,0.3l0.5,0.2l0.5,0.2
				l0.5,0.1l0.6,0.1l0.5,0.1h0.6l0.5-0.1l0.5-0.1l0.5-0.1l0.5-0.2l0.5-0.2l0.5-0.2l0.5-0.2l1.1-0.5l1.1-0.7l1.1-0.8l1.1-0.9l2.2-2
				l2.1-2.3l2-2.5l1.9-2.6l3.4-5l4.3-7.9l4-7.9l1.8-4.1l1.7-4.1l1.5-4.2L388.3,170.8z"/>
		</g>
		<g id="g3325">
		</g>
	</g>
</g>
</svg>
