<?xml version="1.0" encoding="iso-8859-1"?><!-- Generator: Adobe Illustrator 16.0.0, SVG Export Plug-In . SVG Version: 6.00 Build 0) --><!DOCTYPE svg PUBLIC "-//W3C//DTD SVG 1.1//EN" "http://www.w3.org/Graphics/SVG/1.1/DTD/svg11.dtd"><svg version="1.1" id="Layer_1" xmlns="http://www.w3.org/2000/svg" xmlns:xlink="http://www.w3.org/1999/xlink" x="0px" y="0px" width="192.756px" height="192.756px" viewBox="0 0 192.756 192.756" style="enable-background:new 0 0 192.756 192.756;" xml:space="preserve"><g><polygon style="fill-rule:evenodd;clip-rule:evenodd;fill:#FFFFFF;" points="0,0 192.756,0 192.756,192.756 0,192.756 0,0	"/><path style="fill-rule:evenodd;clip-rule:evenodd;fill:#F7F8FC;" d="M96.304,145.461c27.12,0,49.108-21.99,49.108-49.108	c0-27.123-21.988-49.109-49.108-49.109c-27.123,0-49.108,21.986-49.108,49.109C47.196,123.471,69.181,145.461,96.304,145.461	L96.304,145.461z"/><path style="fill-rule:evenodd;clip-rule:evenodd;fill:#AD4254;" d="M96.38,180.758c46.601,0,84.376-37.781,84.376-84.38	C180.756,49.778,142.98,12,96.38,12c-46.602,0-84.379,37.778-84.379,84.378C12.001,142.977,49.778,180.758,96.38,180.758	L96.38,180.758z"/><path style="fill-rule:evenodd;clip-rule:evenodd;fill:#F7F8FC;" d="M96.333,172.377c41.942,0,75.942-33.998,75.942-75.939	c0-41.941-34-75.942-75.942-75.942c-41.94,0-75.941,34.001-75.941,75.942C20.392,138.379,54.394,172.377,96.333,172.377	L96.333,172.377z"/><path style="fill-rule:evenodd;clip-rule:evenodd;fill:#AD4254;" d="M64.784,154.688c-0.199-1.824-2.524-3.43-4.073-1.252	c-1.547,2.178,0.03,4.705,3.437,4.127c2.321-0.395,1.52,0.896,0.082,3.055c-0.724,1.082-0.592,2.016-1.263,3.227	c-0.991-1.641-1.842-3.293-3.711-3.479c-2.45-0.244-3.556-0.934-5.158-3.289c-2.147-0.404-2.968-1.359-3.185-2.639	c3.049-1.393,4.274-2.584,5.422-4.203c1.149-1.619,1.364-3.9,1.822-5.072c1.333-0.559,3.009-1.334,3.982-2.701	c0.972-1.371,1.731-3.361,2.028-4.834c1.165,0.734,2.942,1.529,3.265,2.785c0.322,1.26,2.672,1.055,3.262,1.475	c0.624,0.441,0.607,0.994,1.356,2.18c0.75,1.188,1.92,1.648,3.109,0.896c-0.547,1.299-0.67,1.867-1.442,2.164	c-0.771,0.293-0.475,1.723-0.81,2.326c-0.519,0.934-3.015,1.607-3.298-1.688c-0.285-3.293-3.834-2.91-5.073-1.166	c-1.238,1.744,0.222,5.357,2.981,3.191c-0.09,0.783-0.212,2.008-0.888,2.369c-0.679,0.361-0.697,0.348-0.655,0.988	C66.025,153.932,65.321,154.463,64.784,154.688L64.784,154.688z"/><path style="fill:none;stroke:#38566F;stroke-width:1.0476;stroke-miterlimit:2.6131;" d="M64.784,154.688	c-0.199-1.824-2.524-3.43-4.073-1.252c-1.547,2.178,0.03,4.705,3.437,4.127c2.321-0.395,1.52,0.896,0.082,3.055	c-0.724,1.082-0.592,2.016-1.263,3.227c-0.991-1.641-1.842-3.293-3.711-3.479c-2.45-0.244-3.556-0.934-5.158-3.289	c-2.147-0.404-2.968-1.359-3.185-2.639c3.049-1.393,4.274-2.584,5.422-4.203c1.149-1.619,1.364-3.9,1.822-5.072	c1.333-0.559,3.009-1.334,3.982-2.701c0.972-1.371,1.731-3.361,2.028-4.834c1.165,0.734,2.942,1.529,3.265,2.785	c0.322,1.26,2.672,1.055,3.262,1.475c0.624,0.441,0.607,0.994,1.356,2.18c0.75,1.188,1.92,1.648,3.109,0.896	c-0.547,1.299-0.67,1.867-1.442,2.164c-0.771,0.293-0.475,1.723-0.81,2.326c-0.519,0.934-3.015,1.607-3.298-1.688	c-0.285-3.293-3.834-2.91-5.073-1.166c-1.238,1.744,0.222,5.357,2.981,3.191c-0.09,0.783-0.212,2.008-0.888,2.369	c-0.679,0.361-0.697,0.348-0.655,0.988C66.025,153.932,65.321,154.463,64.784,154.688L64.784,154.688L64.784,154.688z"/><path style="fill-rule:evenodd;clip-rule:evenodd;fill:#AD4254;" d="M123.449,155.879c-0.494-0.879-1.486-1.104-1.943-1.166	c0.189-0.42,0.51-1.387,0.02-2.266c-1.209-2.471-5.168-8.027,1.295-11.648c6.461-3.621,10.139,4.453,10.553,5.184	c0.492,0.881,1.686,0.996,2.139,1.057c-0.184,0.42-0.711,1.5-0.217,2.373c2.09,3.736,4.646,8.664-0.945,11.803	C128.748,164.35,125.166,158.943,123.449,155.879L123.449,155.879L123.449,155.879L123.449,155.879z M131.768,151.039	c-0.492-0.877-1.486-1.104-1.941-1.166c0.186-0.418,0.508-1.383,0.018-2.264c-1.715-3.064-2.83-3.385-4.426-2.488	c-1.598,0.895-0.279,3.197,0.543,4.666c0.494,0.879,1.289,1.217,1.744,1.277c-0.189,0.42-0.58,1.424-0.088,2.303	c1.156,2.066,2.418,4.834,4.748,3.529C134.697,155.588,132.182,151.773,131.768,151.039L131.768,151.039z"/><path style="fill:none;stroke:#38566F;stroke-width:1.0476;stroke-miterlimit:2.6131;" d="M123.449,155.879	c-0.494-0.879-1.486-1.104-1.943-1.166c0.189-0.42,0.51-1.387,0.02-2.266c-1.209-2.471-5.168-8.027,1.295-11.648	c6.461-3.621,10.139,4.453,10.553,5.184c0.492,0.881,1.686,0.996,2.139,1.057c-0.184,0.42-0.711,1.5-0.217,2.373	c2.09,3.736,4.646,8.664-0.945,11.803C128.748,164.35,125.166,158.943,123.449,155.879L123.449,155.879 M131.768,151.039	c-0.492-0.877-1.486-1.104-1.941-1.166c0.186-0.418,0.508-1.383,0.018-2.264c-1.715-3.064-2.83-3.385-4.426-2.488	c-1.598,0.895-0.279,3.197,0.543,4.666c0.494,0.879,1.289,1.217,1.744,1.277c-0.189,0.42-0.58,1.424-0.088,2.303	c1.156,2.066,2.418,4.834,4.748,3.529C134.697,155.588,132.182,151.773,131.768,151.039L131.768,151.039L131.768,151.039z"/><path style="fill-rule:evenodd;clip-rule:evenodd;fill:#AD4254;" d="M146.711,141.977c2.955-1.486,5.656,1.428,6.371,2.557	c1.547-1.584,0.801-1.252,1.75-3.205c1.025-0.064,2.045-0.668,3.164-2.244c-1.996,0.398-6.375-0.049-7.311-1.818	c-1.402,0.121-4.104,0.039-5.357-1.189c-1.252-1.23-0.68-3.447-0.373-5.289c-2.287-1.705-1.826-4.137-1.484-7.762	c-1.291,0.445-1.756,2.559-2.934,3.865c-1.658,1.256-2.145,1.104-3.059,1.707c1.527,1.713,2.965,2.209,1.814,6.107	c-3.877,1.229-5.111-0.891-5.506-2.348c-0.689,0.926-1.059,1.738-1.643,3.096c-1.283,0.873-2.305,1.59-2.723,2.891	c3.348-0.145,4.857-0.375,6.607,1.877c1.83-0.344,3.119-0.896,4.375,0.334s1.18,4.688,1.09,6.09	c2.115,1.221,1.891,5.705,1.535,7.705c1.553-1.148,2.566-2.613,2.609-3.643c1.93-0.99,2.205-0.834,3.756-2.412	C148.252,147.604,145.283,144.963,146.711,141.977L146.711,141.977z"/><path style="fill:none;stroke:#38566F;stroke-width:1.0476;stroke-miterlimit:2.6131;" d="M146.711,141.977	c2.955-1.486,5.656,1.428,6.371,2.557c1.547-1.584,0.801-1.252,1.75-3.205c1.025-0.064,2.045-0.668,3.164-2.244	c-1.996,0.398-6.375-0.049-7.311-1.818c-1.402,0.121-4.104,0.039-5.357-1.189c-1.252-1.23-0.68-3.447-0.373-5.289	c-2.287-1.705-1.826-4.137-1.484-7.762c-1.291,0.445-1.756,2.559-2.934,3.865c-1.658,1.256-2.145,1.104-3.059,1.707	c1.527,1.713,2.965,2.209,1.814,6.107c-3.877,1.229-5.111-0.891-5.506-2.348c-0.689,0.926-1.059,1.738-1.643,3.096	c-1.283,0.873-2.305,1.59-2.723,2.891c3.348-0.145,4.857-0.375,6.607,1.877c1.83-0.344,3.119-0.896,4.375,0.334	s1.18,4.688,1.09,6.09c2.115,1.221,1.891,5.705,1.535,7.705c1.553-1.148,2.566-2.613,2.609-3.643	c1.93-0.99,2.205-0.834,3.756-2.412C148.252,147.604,145.283,144.963,146.711,141.977L146.711,141.977L146.711,141.977z"/><path style="fill-rule:evenodd;clip-rule:evenodd;fill:#AD4254;" d="M115.635,154.893c-0.992,0.424-1.344,0.756-2.15,0.82	c-2.092,0.172-3.695-3.977-0.676-4.801c2.506-0.684,3.555,0.852,4.58,1.996c0.617-0.641,0.684-1.848-0.395-2.898	c-1.076-1.053-0.896-1.262-0.615-1.971c0.281-0.711,0.121-1.299-1.217-2.438c-0.559,0.859-0.436,1.305-1.908,1.707	c-1.475,0.404-1.5-0.857-4.084-0.156c-2.578,0.703-4.598,2.631-3.943,7.01c0.195,1.295,1.674,2.951,3.99,3.9	c1.312,0.539,1.82,1.166,2.275,1.674c0.994-0.428,1.18-0.475,1.988-0.539c2.09-0.178,3.705,4.295,0.684,5.117	c-2.508,0.682-5.459-1.441-6.482-2.588c-0.619,0.643-1.463,1.902-0.383,2.955c1.078,1.051,0.596,1.895,0.312,2.604	c-0.279,0.709-0.176,1.393,1.166,2.533c0.555-0.863,0.957-2.004,2.43-2.402c1.475-0.404,2.676,1.088,5.254,0.389	c2.576-0.701,5.438-2.461,4.783-6.844c-0.195-1.291-0.961-3.537-3.281-4.488C116.646,155.934,116.088,155.398,115.635,154.893	L115.635,154.893z"/><path style="fill:none;stroke:#38566F;stroke-width:1.0476;stroke-miterlimit:2.6131;" d="M115.635,154.893	c-0.992,0.424-1.344,0.756-2.15,0.82c-2.092,0.172-3.695-3.977-0.676-4.801c2.506-0.684,3.555,0.852,4.58,1.996	c0.617-0.641,0.684-1.848-0.395-2.898c-1.076-1.053-0.896-1.262-0.615-1.971c0.281-0.711,0.121-1.299-1.217-2.438	c-0.559,0.859-0.436,1.305-1.908,1.707c-1.475,0.404-1.5-0.857-4.084-0.156c-2.578,0.703-4.598,2.631-3.943,7.01	c0.195,1.295,1.674,2.951,3.99,3.9c1.312,0.539,1.82,1.166,2.275,1.674c0.994-0.428,1.18-0.475,1.988-0.539	c2.09-0.178,3.705,4.295,0.684,5.117c-2.508,0.682-5.459-1.441-6.482-2.588c-0.619,0.643-1.463,1.902-0.383,2.955	c1.078,1.051,0.596,1.895,0.312,2.604c-0.279,0.709-0.176,1.393,1.166,2.533c0.555-0.863,0.957-2.004,2.43-2.402	c1.475-0.404,2.676,1.088,5.254,0.389c2.576-0.701,5.438-2.461,4.783-6.844c-0.195-1.291-0.961-3.537-3.281-4.488	C116.646,155.934,116.088,155.398,115.635,154.893L115.635,154.893L115.635,154.893z"/><path style="fill-rule:evenodd;clip-rule:evenodd;fill:#AD4254;" d="M87.752,159.545c-1.09,0.053-1.472,2.229-2.281,3.221	c-2.382,5.705-5.716,6.424-8.052,5.48c-2.338-0.938-2.993-3.098-4.552-3.725c-1.361-0.549-1.616-0.074-3.793-0.291	c1.464-1.594,5.453-7.209,3.945-10.617c3.449-1.41,4.746-7.287,4.874-8.432c1.609-0.01,1.661,1.246,3.026,1.797	c1.555,0.625,2.59-0.605,4.927,0.334c2.335,0.941,4.061,3.611,1.82,9.377C87.565,157.969,87.002,158.75,87.752,159.545	L87.752,159.545L87.752,159.545L87.752,159.545z M82.724,159.32c0.285-0.898-0.331-1.787-0.645-2.17	c0.471-0.107,1.475-0.438,1.76-1.332c0.995-3.125,0.359-4.16-1.605-4.84c-1.965-0.676-2.694,1.695-3.167,3.191	c-0.289,0.896,0.083,1.699,0.4,2.08c-0.475,0.111-1.559,0.41-1.844,1.307c-0.672,2.105-1.807,4.711,1.06,5.699	C81.547,164.244,82.485,160.066,82.724,159.32L82.724,159.32z"/><path style="fill:none;stroke:#38566F;stroke-width:1.0476;stroke-miterlimit:2.6131;" d="M87.752,159.545	c-1.09,0.053-1.472,2.229-2.281,3.221c-2.382,5.705-5.716,6.424-8.052,5.48c-2.338-0.938-2.993-3.098-4.552-3.725	c-1.361-0.549-1.616-0.074-3.793-0.291c1.464-1.594,5.453-7.209,3.945-10.617c3.449-1.41,4.746-7.287,4.874-8.432	c1.609-0.01,1.661,1.246,3.026,1.797c1.555,0.625,2.59-0.605,4.927,0.334c2.335,0.941,4.061,3.611,1.82,9.377	C87.565,157.969,87.002,158.75,87.752,159.545L87.752,159.545 M82.724,159.32c0.285-0.898-0.331-1.787-0.645-2.17	c0.471-0.107,1.475-0.438,1.76-1.332c0.995-3.125,0.359-4.16-1.605-4.84c-1.965-0.676-2.694,1.695-3.167,3.191	c-0.289,0.896,0.083,1.699,0.4,2.08c-0.475,0.111-1.559,0.41-1.844,1.307c-0.672,2.105-1.807,4.711,1.06,5.699	C81.547,164.244,82.485,160.066,82.724,159.32L82.724,159.32L82.724,159.32z"/><path style="fill-rule:evenodd;clip-rule:evenodd;fill:#AD4254;" d="M51.695,125.537c1.367,0.994,1.905,1.881,2.439,3.572	c1.285,0.266,5.456,1.494,4.884,5.365c-0.57,3.869-1.577,4.803-1.075,5.904c-0.375-0.07-1.815-0.15-2.201,0.322	c-0.678,0.842-2.11,1.602-3.381,1.637c-0.405,0.795-0.612,2.031-1.173,2.553c-0.558,0.521-0.82,1.805-0.307,2.477	c-0.438,0.199-2.602,1.795-0.552,3.436c-0.55,0.303-4.039,1.154-5.499-0.416c-1.456-1.564,0.011-4.805-0.25-6.545	c1.495,0.486,4.374-1.355,2.239-3.646c-1.821-1.957-4.689-0.332-6.848,4.074c-0.855-0.246-1.846-1.201-2.364-3.326	c-0.685-0.512-1.221-0.639-2.458-2.305c1.31-0.385,3.992-1.314,5.446-2.668c1.45-1.35,3.13-2.912,3.407-4.629	c1.14-0.125,3.984-1.104,5.163-2.305C50.341,127.84,51.523,126.559,51.695,125.537L51.695,125.537L51.695,125.537L51.695,125.537z M48.789,138.049c1.095,1.182,3.342,0.977,4.609-0.203c1.264-1.176,1.184-2.99,0.087-4.166c-1.098-1.18-2.897-1.395-4.166-0.215	C48.054,134.645,47.691,136.869,48.789,138.049L48.789,138.049z"/><path style="fill:none;stroke:#38566F;stroke-width:1.0476;stroke-miterlimit:2.6131;" d="M51.695,125.537	c1.367,0.994,1.905,1.881,2.439,3.572c1.285,0.266,5.456,1.494,4.884,5.365c-0.57,3.869-1.577,4.803-1.075,5.904	c-0.375-0.07-1.815-0.15-2.201,0.322c-0.678,0.842-2.11,1.602-3.381,1.637c-0.405,0.795-0.612,2.031-1.173,2.553	c-0.558,0.521-0.82,1.805-0.307,2.477c-0.438,0.199-2.602,1.795-0.552,3.436c-0.55,0.303-4.039,1.154-5.499-0.416	c-1.456-1.564,0.011-4.805-0.25-6.545c1.495,0.486,4.374-1.355,2.239-3.646c-1.821-1.957-4.689-0.332-6.848,4.074	c-0.855-0.246-1.846-1.201-2.364-3.326c-0.685-0.512-1.221-0.639-2.458-2.305c1.31-0.385,3.992-1.314,5.446-2.668	c1.45-1.35,3.13-2.912,3.407-4.629c1.14-0.125,3.984-1.104,5.163-2.305C50.341,127.84,51.523,126.559,51.695,125.537	L51.695,125.537 M48.789,138.049c1.095,1.182,3.342,0.977,4.609-0.203c1.264-1.176,1.184-2.99,0.087-4.166	c-1.098-1.18-2.897-1.395-4.166-0.215C48.054,134.645,47.691,136.869,48.789,138.049L48.789,138.049L48.789,138.049z"/><path style="fill-rule:evenodd;clip-rule:evenodd;fill:#F7F8FC;" d="M89.797,71.282c0.26-0.647,0.773-2.399,1.137-2.929	c0.367-0.526,0.085-1.22-0.445-0.324c-0.53,0.894-1.179,2.844-1.422,3.659c-0.247,0.812-0.489,1.26-0.571,1.627	c-0.078,0.364,0.137,0.867,0.452,0.24C89.349,72.744,89.634,71.687,89.797,71.282L89.797,71.282z"/><path style="fill-rule:evenodd;clip-rule:evenodd;fill:#F7F8FC;" d="M92.116,69.33c-0.182,0.425-1.284,3.664-1.504,4.266	c-0.225,0.611-0.042,1.24,0.283,0.389c0.339-0.885,1.25-3.745,1.544-4.35C93.109,68.267,92.723,67.885,92.116,69.33L92.116,69.33z"	/><path style="fill-rule:evenodd;clip-rule:evenodd;fill:#F7F8FC;" d="M93.803,72.256c0.343-0.922,0.591-1.567,0.873-2.032	c0.49-0.812,0.103-1.464-0.47-0.406c-0.565,1.055-1.704,4.043-1.948,4.855c-0.244,0.814,0.081,1.364,0.568,0.265	C93.316,73.841,93.536,72.97,93.803,72.256L93.803,72.256z"/><path style="fill-rule:evenodd;clip-rule:evenodd;fill:#F7F8FC;" d="M96.913,71.037c0.257-0.662-0.368-1.181-0.735-0.408	c-0.363,0.773-1.597,4.557-1.909,5.244c-0.351,0.783,0.307,1.32,0.734,0.286C95.471,75.013,96.545,71.971,96.913,71.037	L96.913,71.037z"/><path style="fill-rule:evenodd;clip-rule:evenodd;fill:#F7F8FC;" d="M98.641,71.706c-0.27,0.434-2.015,3.964-2.3,5.144	c-0.018,0.212,0.105,0.415,0.448-0.49c0.473-1.231,0.418-1.367,1.02-2.297c0.588-0.912,1.055-1.747,1.178-2.114	C99.107,71.584,98.963,71.179,98.641,71.706L98.641,71.706z"/><path style="fill:none;stroke:#AD4254;stroke-width:1.0476;stroke-linecap:round;stroke-linejoin:round;stroke-miterlimit:2.6131;" d="	M116.189,87.532l-3.932,7.03c0,0,4.461,3.327,4.535,3.401 M122.086,85.945l-5.143,6.5l4.385,3.631 M126.697,85.263l-5.443,5.822	l3.857,3.78 M131.762,84.886l-6.047,5.066l3.477,3.855 M140.533,85.415l-4.838,3.402l2.648,3.855 M108.174,96.68l2.799-7.106 M144.014,87.078l-3.402,1.964l2.041,3.63 M134.059,93.152l-3.113-4.007l4.773-4.083 M85.643,140.275l-4.298,2.305l-3.657-2.953 M86.398,136.271l-4.824,2.982l-3.806-4.012 M87.268,132.633l-5.291,2.443l-3.521-5.227 M89.004,127.645l-6.197,2.822l-3.366-5.076 M62.882,93.353l2.724-6.351c0,0-4.838-3.25-4.913-3.327 M88.629,57.776l6.501-2.365l3.367,5.074 M90.445,53.771l6.048-2.747	l3.367,5.756 M92.109,49.688l5.292-2.444l3.516,5.229 M68.303,91.261l2.266-6.527c0,0-5.06-2.897-5.138-2.968 M72.235,88.844	l2.266-6.53c0,0-5.058-2.897-5.139-2.968 M58.105,94.428l2.8-5.569c0,0-4.626-3.546-4.696-3.629 M53.136,95.222l3.65-5.054	c0,0-3.694-3.787-3.751-3.876 M48.293,95.842l4.112-4.684c0,0-2.979-3.994-3.025-4.089"/><path style="fill:none;stroke:#38566F;stroke-width:2.0953;stroke-miterlimit:2.6131;" d="M97.438,47.147	c-4.699,24.135-25.074,42.667-50.098,44.575 M81.292,143.557c0.325-30.309,24.999-54.78,55.385-54.78	c3.094,0,6.129,0.25,9.084,0.737 M96.304,145.461c27.12,0,49.108-21.99,49.108-49.108c0-27.123-21.988-49.109-49.108-49.109	c-27.123,0-49.108,21.986-49.108,49.109C47.196,123.471,69.181,145.461,96.304,145.461L96.304,145.461L96.304,145.461z"/><path style="fill-rule:evenodd;clip-rule:evenodd;fill:#AD4254;" d="M43.589,73.023c0.431-0.65,0.293-1.131-0.435-1.611	l-3.812-2.543l-3.81-2.539c-0.723-0.487-1.221-0.432-1.656,0.218l-0.539,0.81l-4.071-2.714c0.845-1.268,6.375-9.563,7.35-11.022	c4.276-6.411,10.675-1.212,10.951,1.812c3.153-1.562,11.539,3.099,7.264,9.509c-0.973,1.458-6.885,10.325-7.73,11.592l-4.051-2.703	L43.589,73.023L43.589,73.023L43.589,73.023L43.589,73.023z M47.614,66.09c0,0,1.143-1.714,1.479-2.222	c0.342-0.508,0.69-1.375-0.386-2.096c-1.083-0.717-1.75-0.062-2.085,0.446c-0.34,0.505-1.483,2.221-1.483,2.221L47.614,66.09	L47.614,66.09L47.614,66.09L47.614,66.09z M41.017,61.69c0,0,0.972-1.462,1.309-1.97c0.342-0.508,0.689-1.375-0.393-2.093	c-1.077-0.72-1.742-0.063-2.079,0.445c-0.34,0.506-1.312,1.968-1.312,1.968L41.017,61.69L41.017,61.69z"/><path style="fill-rule:evenodd;clip-rule:evenodd;fill:#38566F;" d="M44.78,72.843c0.39-0.587,0.122-1.356-0.542-1.793l-8.95-5.966	c-0.657-0.445-1.345-0.315-1.738,0.271l-0.469,0.721l-2.533-1.688c0.762-1.146,5.906-8.857,6.782-10.169	c3.852-5.776,9.355-0.535,9.617,2.2c2.852-1.403,10.88,2.381,7.031,8.157c-0.878,1.315-6.365,9.542-7.128,10.684L44.3,73.559	L44.78,72.843L44.78,72.843L44.78,72.843L44.78,72.843z M47.929,67.352c0,0,1.74-2.604,2.252-3.376	c0.515-0.772,0.787-1.896-0.872-3.001c-1.655-1.105-2.603-0.43-3.12,0.34c-0.515,0.772-2.25,3.379-2.25,3.379L47.929,67.352	L47.929,67.352L47.929,67.352L47.929,67.352z M41.284,62.921c0,0,1.48-2.217,1.997-2.989c0.512-0.772,0.87-2.024-0.79-3.129	c-1.655-1.107-2.69-0.305-3.202,0.467c-0.517,0.77-1.996,2.989-1.996,2.989L41.284,62.921L41.284,62.921z"/><path style="fill-rule:evenodd;clip-rule:evenodd;fill:#AD4254;" d="M50.752,51.839c-3.796-4.898-2.894-11.947,2.005-15.737	c4.896-3.796,11.942-2.897,15.736,2.001c3.794,4.898,2.899,11.943-2.002,15.738C61.59,57.635,54.545,56.739,50.752,51.839	L50.752,51.839L50.752,51.839L50.752,51.839z M60.76,40.713c-1.185-1.531-3.386-1.81-4.916-0.625	c-1.532,1.185-1.812,3.387-0.625,4.919l3.359,4.343c1.187,1.53,3.389,1.81,4.919,0.623c1.529-1.183,1.811-3.386,0.626-4.916	L60.76,40.713L60.76,40.713z"/><path style="fill-rule:evenodd;clip-rule:evenodd;fill:#38566F;" d="M51.554,51.307c-3.489-4.505-2.666-10.986,1.844-14.479	c4.505-3.489,10.991-2.666,14.479,1.843c3.488,4.506,2.663,10.989-1.841,14.477C61.528,56.639,55.042,55.817,51.554,51.307	L51.554,51.307L51.554,51.307L51.554,51.307z M61.25,39.831c-1.362-1.762-4.039-1.972-5.974-0.473	c-1.939,1.5-2.4,4.144-1.038,5.904l3.866,4.992c1.364,1.76,4.035,1.973,5.974,0.474c1.936-1.501,2.402-4.142,1.041-5.904	L61.25,39.831L61.25,39.831z"/><path style="fill-rule:evenodd;clip-rule:evenodd;fill:#AD4254;" d="M80.62,46.066c0.722,0.03,1.784,0.675,4.788-0.191	c3.227-0.931,5.531-3.662,4.274-7.744c-1.257-4.086-4.426-5.011-9.287-5.436c-4.996-0.107-3.505-2.858-2.114-3.262	c1.504-0.435,2.564,0.768,3.028,1.271c0.461,0.502,0.518,0.563,0.518,0.563s2.935-0.844,3.592-1.034c0,0-1.712-5.938-1.925-6.67	l-4.102,1.185l0.188,0.66c-0.722-0.031-0.628-0.535-3.633,0.335c-3.227,0.929-5.679,4.258-4.421,8.34	c1.257,4.083,4.045,4.094,8.906,4.516c4.989,0.107,3.245,2.934,1.855,3.334c-1.504,0.434-2.932-0.663-3.394-1.163	c-0.463-0.504-0.5-0.56-0.5-0.56s-3.444,0.992-4.104,1.183c0,0,1.734,6.008,1.947,6.742l4.6-1.326L80.62,46.066L80.62,46.066z"/><path style="fill-rule:evenodd;clip-rule:evenodd;fill:#38566F;" d="M79.687,46.183l-2.804,0.812	c-0.21-0.734-1.439-4.985-1.439-4.985c0.66-0.191,2.604-0.749,2.604-0.749s0.049,0.065,0.51,0.565	c0.415,0.467,2.411,1.557,3.729,1.195c3.792-1.05,3.347-5.453-1.77-5.401c-4.269-0.448-6.883,0.033-8.035-3.722	c-1.152-3.758,1.11-6.514,3.928-7.328c3.005-0.867,3.357-0.187,4.078-0.158l-0.274-0.95l2.64-0.763	c0.211,0.734,1.417,4.911,1.417,4.911c-0.66,0.19-2.126,0.613-2.126,0.613s-0.056-0.063-0.519-0.566	c-0.461-0.5-2.108-1.54-3.612-1.107c-2.853,0.473-3.285,4.908,0.894,5.046c4.274,0.445,8.537,0.722,9.693,4.479	c1.153,3.76-0.837,6.231-3.66,7.047c-2.624,0.756-4.304,0-4.939-0.036l-0.671-0.116L79.687,46.183L79.687,46.183z"/><path style="fill-rule:evenodd;clip-rule:evenodd;fill:#AD4254;" d="M117.836,36.202c3.01-5.417,9.842-7.365,15.258-4.356	c5.416,3.012,7.365,9.844,4.355,15.258c-3.014,5.417-9.846,7.365-15.26,4.354C116.773,48.449,114.828,41.618,117.836,36.202	L117.836,36.202L117.836,36.202L117.836,36.202z M132.006,41.023c0.938-1.692,0.33-3.827-1.365-4.767	c-1.689-0.943-3.826-0.333-4.768,1.359l-2.664,4.801c-0.941,1.692-0.336,3.828,1.355,4.768c1.693,0.939,3.828,0.332,4.771-1.36	L132.006,41.023L132.006,41.023z"/><path style="fill-rule:evenodd;clip-rule:evenodd;fill:#38566F;" d="M118.641,36.729c2.77-4.983,9.055-6.776,14.035-4.005	c4.984,2.771,6.777,9.055,4.008,14.037c-2.768,4.982-9.055,6.776-14.037,4.005C117.664,47.996,115.869,41.709,118.641,36.729	L118.641,36.729L118.641,36.729L118.641,36.729z M133.008,41.127c1.084-1.947,0.223-4.491-1.916-5.681	c-2.141-1.189-4.752-0.578-5.838,1.37l-3.066,5.521c-1.082,1.943-0.223,4.487,1.916,5.676c2.141,1.191,4.756,0.579,5.838-1.366	L133.008,41.127L133.008,41.127z"/><path style="fill-rule:evenodd;clip-rule:evenodd;fill:#AD4254;" d="M140.924,61.15l-3.871,3.02l-5.256-6.726l3.883-3.03	l0.615,0.782c0.48,0.616,0.938,0.715,1.625,0.176l6.738-5.265c0.688-0.531,0.771-1.052,0.291-1.671l-0.613-0.782l4.365-3.409	l4.752,6.054c0.326,0.422-3.092,12.818-3.393,13.925l3.99-3.121c0.691-0.531,0.795-1.023,0.314-1.639l-0.611-0.783l3.848-3.004	l5.303,6.786l-3.85,3.004l-0.613-0.783c-0.482-0.617-1.029-0.694-1.715-0.154l-12.045,9.412c-0.611-0.785-2.699-3.459-3.025-3.88	c-0.334-0.421,3.096-13.735,3.396-14.842c-0.215,0.172-4.262,3.328-4.508,3.519c-0.688,0.535-0.715,1.014-0.232,1.63L140.924,61.15	L140.924,61.15z"/><path style="fill-rule:evenodd;clip-rule:evenodd;fill:#38566F;" d="M145.625,47.808l2.875-2.245l3.924,5.027	c0.297,0.377-3.602,14.789-3.873,15.784l6.604-5.156c0.621-0.478,0.896-1.065,0.467-1.62l-0.598-0.766l2.414-1.886l4.189,5.361	l-2.416,1.889l-0.627-0.802c-0.43-0.556-1.111-0.481-1.729,0.007l-11.953,9.336c-0.549-0.706-1.98-2.542-2.279-2.919	c-0.297-0.38,3.861-16.132,4.131-17.127c-0.191,0.154-7.381,5.765-7.6,5.935c-0.625,0.482-0.504,1.07-0.068,1.624l0.566,0.73	l-2.443,1.908l-4.125-5.284l2.441-1.91l0.549,0.705c0.436,0.555,0.988,0.825,1.604,0.338l8.168-6.377	c0.625-0.483,0.768-1.294,0.334-1.85L145.625,47.808L145.625,47.808z"/><path style="fill-rule:evenodd;clip-rule:evenodd;fill:#AD4254;" d="M84.779,61.506c-0.6-2.305-0.403-3.636,1.892-3.546	c2.991,0.115,5.466-0.234,8.315-0.496c2.344-0.217,2.896,0.154,3.795,1.538c0.787,1.217,0.568,6.43,1.949,7.732	c1.867,1.77,2.561,2.718,2.992,5.793c0.436,3.125,2.133,14.738,3.125,20.71c0.959,5.785,5.877,6.712,14.703,7.744	c6.326,0.736,11.574,5.447,13.629,11.258c0.625,1.762,0.674,3.045-0.215,3.588c-1.883,1.158-7.547,3.494-11.484,3.123	c-8.197-0.766-19.006-4.346-26.127-4.852c-5.822-0.418-11.116-7.869-12.042-9.254c-1.312-1.957,1.005-8.104,3.239-14.077	c0.716-1.907,1.53-3.646,2.625-5.888c0.363-0.747,1.173-1.883,1.43-2.64c0.667-1.983,0.825-4.383,0.103-5.377	c-2.064-2.832,2.789-9.22,2.394-10.165c-0.741-1.282-9.551-4.222-10.071-4.348C84.9,61.915,84.779,61.506,84.779,61.506	L84.779,61.506z"/><path style="fill-rule:evenodd;clip-rule:evenodd;fill:#F7F8FC;" d="M87.066,102.277c1.873,0.557,5.428,2.098,8.642,2.613	c-0.037,2.439-0.185,5.287,0.413,7.934c-2.332,0.477-5.55,1.035-7.666-1.043c-2.169-2.125-2.211-4.725-2.18-6.164	C86.311,103.951,86.366,102.066,87.066,102.277L87.066,102.277z"/><path style="fill-rule:evenodd;clip-rule:evenodd;fill:#F7F8FC;" d="M122.686,110.293c0.5,1.023,1.965,5.021,2.268,6.174	c0.285,1.068,0.588,1.184,2.301,0.686c2.467-0.713,4.932-1.529,6.039-2.328c1.039-0.746,1.211-0.844,0.393-2.844	c-1.357-3.309-3.188-5.98-4.777-5.174c-1.992,1.006-4.006,2.365-5.24,2.432C122.434,109.303,122.494,109.904,122.686,110.293	L122.686,110.293z"/><path style="fill-rule:evenodd;clip-rule:evenodd;fill:#F7F8FC;" d="M88.62,61.479c0.02,0.483,0.277,2.591,0.34,3.258	c0.062,0.676,0.516,1.188,0.443,0.236c-0.081-0.984-0.345-2.652-0.34-3.354C89.077,60.029,88.547,59.845,88.62,61.479L88.62,61.479	z"/><path style="fill-rule:evenodd;clip-rule:evenodd;fill:#F7F8FC;" d="M96.205,63.526c-0.089-1.022-0.124-1.485-0.069-2.052	c0.095-0.984-0.56-1.425-0.623-0.172c-0.06,1.25,0.265,2.654,0.253,3.798c-0.012,0.886,0.667,1.545,0.632,0.293	C96.368,64.141,96.275,64.322,96.205,63.526L96.205,63.526z"/><path style="fill-rule:evenodd;clip-rule:evenodd;fill:#F7F8FC;" d="M91.705,61.113c-0.053-0.738-0.872-0.948-0.872-0.055	c0.002,0.891,0.427,3.655,0.444,4.443c0.02,0.895,0.881,1.107,0.814-0.061C92.024,64.149,91.781,62.157,91.705,61.113	L91.705,61.113z"/><path style="fill-rule:evenodd;clip-rule:evenodd;fill:#F7F8FC;" d="M97.641,61.072c-0.057,0.529-0.115,3.614,0.148,4.854	c0.072,0.208,0.498,0.369,0.414-0.637c-0.057-0.692-0.088-0.899-0.078-1.595c0.021-1.137,0-2.146-0.051-2.546	S97.711,60.43,97.641,61.072L97.641,61.072z"/><path style="fill-rule:evenodd;clip-rule:evenodd;fill:#F7F8FC;" d="M94.138,63.566c-0.134-1.018-0.187-1.479-0.152-2.049	c0.053-0.988-0.62-1.399-0.631-0.147c-0.011,1.252,0.231,3.217,0.402,4.086c0.169,0.867,0.735,1.215,0.654-0.033	C94.327,64.169,94.24,64.356,94.138,63.566L94.138,63.566z"/><path style="fill-rule:evenodd;clip-rule:evenodd;fill:#F7F8FC;" d="M86.655,61.892c0.02,0.482,0.12,1.16,0.18,1.828	c0.062,0.673,0.52,1.186,0.439,0.236c-0.077-0.989-0.185-1.222-0.177-1.924C87.112,60.445,86.581,60.26,86.655,61.892	L86.655,61.892z"/><path style="fill-rule:evenodd;clip-rule:evenodd;fill:#F7F8FC;" d="M85.021,62.31c2.839,0.908,6.039,2.051,7.638,2.818	c2.122,1.02,2.964,1.42,2.368,2.49c-0.595,1.067-3.397,6.466-2.657,8.21c1.362,3.209,1.336,4.999-0.315,7.683	c-1.659,2.687-5.323,11.482-6.688,17.384c-1.415,6.113,3.414,7.547,9.964,12.811l-0.731-0.113	c-6.553-5.262-11.377-6.693-9.963-12.809c1.364-5.9,5.029-14.698,6.681-17.385c1.658-2.685,1.684-4.474,0.323-7.683	c-0.745-1.741,2.062-7.14,2.654-8.211c0.597-1.066-0.263-1.168-2.387-2.189c-1.399-0.671-4.112-1.606-6.671-2.436L85.021,62.31	L85.021,62.31z"/><path style="fill-rule:evenodd;clip-rule:evenodd;fill:#F7F8FC;" d="M62.615,104.172c1.677,1.002,4.032,2.484,7.337,3.408	c-1.307,1.723-2.704,7.619-2.699,9.832c-1.964-0.098-5.568-0.488-7.138-3.086c-1.57-2.596-0.775-5.383-0.198-6.703	C60.491,106.297,61.992,103.795,62.615,104.172L62.615,104.172z"/><path style="fill-rule:evenodd;clip-rule:evenodd;fill:#F7F8FC;" d="M94.808,123.617c0.233,1.115,0.649,5.389,0.657,6.58	c0.011,1.105,0.275,1.295,2.056,1.24c2.568-0.078,5.258-0.328,6.531-0.822c1.189-0.465,1.26-1.252,0.5-3.273	c-0.904-2.412-1.807-5.373-3.547-4.99c-2.18,0.482-3.77,0.73-4.982,0.488C94.813,122.596,94.723,123.195,94.808,123.617	L94.808,123.617z"/><path style="fill-rule:evenodd;clip-rule:evenodd;fill:#AD4254;" d="M78.423,64.784c0.19-1.055,0.974-3.736,3.156-3.06	c3.043,0.94,8.204,2.572,10.328,3.591c2.124,1.021,2.983,1.123,2.387,2.189c-0.593,1.071-3.399,6.47-2.654,8.211	c1.361,3.209,1.335,4.998-0.323,7.683c-1.652,2.687-5.316,11.485-6.681,17.385c-1.414,6.115,3.41,7.547,9.963,12.809	c7.827,6.291,9.2,6.492,11.782,15.303c0.525,1.801,0.193,2.398-0.807,2.705c-2,0.498-9.857,2.236-12.866,0.777	c-3.011-1.457-16.01-9.684-22.748-12.037c-5.808-2.025-11.413-2.191-12.267-8.625c-0.78-5.889,6.396-10.822,8.405-16.078	c1.812-4.746,6.281-23.846,10.157-24.979C77.533,70.287,78.184,66.078,78.423,64.784L78.423,64.784z"/><path style="fill-rule:evenodd;clip-rule:evenodd;fill:#F7F8FC;" d="M62.615,104.172c1.677,1.002,4.032,2.484,7.337,3.408	c-1.307,1.723-2.704,7.619-2.699,9.832c-1.964-0.098-5.568-0.488-7.138-3.086c-1.57-2.596-0.775-5.383-0.198-6.703	C60.491,106.297,61.992,103.795,62.615,104.172L62.615,104.172z"/><path style="fill-rule:evenodd;clip-rule:evenodd;fill:#F7F8FC;" d="M94.808,123.617c0.233,1.115,0.649,5.389,0.657,6.58	c0.011,1.105,0.275,1.295,2.056,1.24c2.568-0.078,5.258-0.328,6.531-0.822c1.189-0.465,1.26-1.252,0.5-3.273	c-0.904-2.412-1.807-5.373-3.547-4.99c-2.18,0.482-3.77,0.73-4.982,0.488C94.813,122.596,94.723,123.195,94.808,123.617	L94.808,123.617z"/><path style="fill-rule:evenodd;clip-rule:evenodd;fill:#F7F8FC;" d="M91.586,67.958c-0.24,0.472-1.759,4.287-1.959,5.54	c-0.085,0.229,0.123,0.547,0.512-0.554c0.393-1.115,0.505-1.257,0.918-2.307c0.419-1.053,0.757-2.083,0.91-2.455	C92.142,67.743,91.88,67.38,91.586,67.958L91.586,67.958z"/><path style="fill-rule:evenodd;clip-rule:evenodd;fill:#F7F8FC;" d="M84.604,66.033c-0.152,0.458-1.027,3.915-1.205,4.562	c-0.183,0.651,0.06,1.294,0.327,0.377c0.275-0.947,0.984-3.997,1.242-4.652C85.546,64.84,85.116,64.479,84.604,66.033	L84.604,66.033z"/><path style="fill-rule:evenodd;clip-rule:evenodd;fill:#F7F8FC;" d="M79.855,69.39c0.137-1.238,0.859-3.967,1.085-4.509	c0.816-1.981-0.048-1.656-0.403-0.776c-0.354,0.881-0.605,2.004-0.729,3.119c-0.12,1.119-0.28,1.564-0.481,1.954	C79.033,69.754,79.733,70.505,79.855,69.39L79.855,69.39z"/><path style="fill-rule:evenodd;clip-rule:evenodd;fill:#F7F8FC;" d="M82.356,68.253c0.218-0.691,0.605-2.559,0.94-3.137	c0.336-0.582-0.015-1.276-0.492-0.302c-0.475,0.974-0.987,3.057-1.173,3.924c-0.187,0.866-0.401,1.352-0.456,1.737	c-0.055,0.388,0.212,0.895,0.484,0.217C82.016,69.812,82.223,68.69,82.356,68.253L82.356,68.253z"/><path style="fill-rule:evenodd;clip-rule:evenodd;fill:#F7F8FC;" d="M86.602,68.933c0.281-0.988,0.488-1.677,0.738-2.185	c0.44-0.888-0.016-1.53-0.518-0.385c-0.506,1.147-1.438,4.35-1.622,5.214c-0.185,0.864,0.197,1.41,0.612,0.228	C86.23,70.622,86.385,69.699,86.602,68.933L86.602,68.933z"/><path style="fill-rule:evenodd;clip-rule:evenodd;fill:#F7F8FC;" d="M89.735,67.405c0.214-0.708-0.479-1.195-0.796-0.362	c-0.314,0.833-1.281,4.872-1.549,5.614c-0.298,0.841,0.43,1.346,0.787,0.232C88.57,71.661,89.432,68.408,89.735,67.405	L89.735,67.405z"/><path style="fill-rule:evenodd;clip-rule:evenodd;fill:#AD4254;" d="M102.684,45.016c1.893,0.253,4.762,0.638,5.666,0.759	c0.109-0.832,0.469-3.505,0.693-5.17l-1.305-0.173c-0.605-0.082-0.793-0.262-0.68-1.092c0.111-0.831,1.232-9.226,1.355-10.134	c0.471,0.062-0.096-0.018,1.074,0.138c0.973,0.131,1.539,2.546,1.889,3.392l3.045,0.409c0.09-0.681,0.889-6.63,1.082-8.064	c-0.91-0.124-8.078-1.085-9.965-1.339c-1.893-0.251-9.06-1.212-9.966-1.336c-0.193,1.439-0.99,7.386-1.082,8.067l3.044,0.405	c0.562-0.72,1.744-2.904,2.719-2.773c1.166,0.156,0.604,0.086,1.07,0.149c-0.123,0.906-1.248,9.301-1.361,10.135	c-0.107,0.832-0.338,0.954-0.947,0.874l-1.305-0.175c-0.219,1.662-0.576,4.336-0.689,5.168	C97.926,44.379,100.797,44.761,102.684,45.016L102.684,45.016z"/><path style="fill-rule:evenodd;clip-rule:evenodd;fill:#38566F;" d="M102.807,44.112c1.889,0.252,3.838,0.513,4.746,0.633	c0.109-0.831,0.227-1.697,0.449-3.36l-1.307-0.175c-0.604-0.083-0.793-0.261-0.678-1.093c0.109-0.833,1.48-11.043,1.604-11.952	c0.996,0.138,1.412,0.204,2.287,0.309c0.986,0.26,1.514,1.459,2.312,3.426l1.422,0.189c0.092-0.681,0.645-4.793,0.838-6.229	c-0.91-0.12-7.172-0.962-9.064-1.212c-1.889-0.256-8.154-1.095-9.06-1.216c-0.193,1.436-0.743,5.546-0.838,6.226l1.423,0.194	c1.292-1.687,2.12-2.706,3.135-2.698c0.873,0.129,1.285,0.179,2.291,0.307c-0.127,0.908-1.494,11.122-1.607,11.951	c-0.111,0.833-0.332,0.956-0.936,0.875l-1.309-0.175c-0.225,1.665-0.34,2.529-0.451,3.362	C98.973,43.596,100.916,43.857,102.807,44.112L102.807,44.112z"/><path style="fill-rule:evenodd;clip-rule:evenodd;fill:#38566F;" d="M117.273,124.186h-1.645v4.48h-1.113v-4.48h-1.646v-0.971	h4.404V124.186L117.273,124.186L117.273,124.186L117.273,124.186z M124.732,128.666h-1.111v-4.336h-0.027l-1.578,4.336h-1.074	l-1.529-4.336h-0.025v4.336h-1.115v-5.451h1.93l1.268,3.564h0.025l1.326-3.564h1.912V128.666L124.732,128.666z"/></g></svg>
