<?xml version="1.0" encoding="utf-8"?>
<!-- Generator: Adobe Illustrator 19.0.0, SVG Export Plug-In . SVG Version: 6.00 Build 0)  -->
<svg version="1.1" id="Layer_1" xmlns="http://www.w3.org/2000/svg" xmlns:xlink="http://www.w3.org/1999/xlink" x="0px" y="0px"
	 viewBox="0 0 500 500" style="enable-background:new 0 0 500 500;" xml:space="preserve">
<style type="text/css">
	.st0{fill:#231F20;}
</style>
<g>
	<path class="st0" d="M25.9,136.2h89.8c15.7,0,28.1,3.2,37.1,9.6s13.6,15.8,13.6,28.1c0,6.1-1.1,11.4-3.5,15.7
		c-2.3,4.3-5.1,7.9-8.4,10.7c-3.3,2.8-6.8,5-10.4,6.5c-3.6,1.5-6.8,2.5-9.5,3.1v1.9c2.8,0.3,6.3,0.9,10.3,1.8c4.1,1,8,2.7,11.7,5.2
		c3.7,2.5,6.9,5.9,9.5,10.3c2.6,4.4,3.9,10.2,3.9,17.3c0,7.1-1.5,13.2-4.4,18.1c-2.9,4.9-6.9,8.9-11.9,12c-5,3.1-10.8,5.3-17.3,6.6
		c-6.6,1.3-13.5,2-20.8,2H25.9v-31.4h11.5v-86.1H25.9V136.2z M101.3,199c3.7,0,6.5-1,8.3-2.9c1.8-1.9,2.8-5,2.8-9.4v-6.9
		c0-4.3-0.9-7.5-2.8-9.4c-1.9-1.9-4.6-2.9-8.3-2.9H91V199H101.3z M102.7,253.8c3.7,0,6.5-1,8.3-2.9s2.8-5,2.8-9.4v-8.4
		c0-4.3-0.9-7.5-2.8-9.4c-1.8-1.9-4.6-2.9-8.3-2.9H91v32.9H102.7z"/>
	<path class="st0" d="M323.2,210.7c0,14-1.7,25.9-5.2,35.7c-3.5,9.8-8.3,17.7-14.6,23.8c-6.3,6.1-14,10.6-23.1,13.4
		s-19.1,4.2-30.2,4.2c-11.1,0-21.2-1.4-30.2-4.2s-16.8-7.3-23.1-13.4c-6.3-6.1-11.2-14.1-14.6-23.8c-3.4-9.8-5.2-21.7-5.2-35.7
		c0-13.9,1.7-25.8,5.2-35.6c3.5-9.8,8.3-17.8,14.6-23.9s14-10.6,23.1-13.4c9.1-2.8,19.1-4.2,30.2-4.2c11.1,0,21.2,1.4,30.2,4.2
		c9.1,2.8,16.8,7.3,23.1,13.4s11.2,14.1,14.6,23.9C321.5,184.9,323.2,196.8,323.2,210.7z M250.1,253.8c4.3,0,7.6-1.1,9.8-3.4
		c2.2-2.2,3.3-5.8,3.3-10.8v-57.8c0-5-1.1-8.6-3.3-10.8c-2.2-2.2-5.4-3.4-9.8-3.4s-7.6,1.1-9.8,3.4c-2.2,2.2-3.3,5.8-3.3,10.8v57.8
		c0,5,1.1,8.6,3.3,10.8C242.5,252.6,245.7,253.8,250.1,253.8z"/>
	<path class="st0" d="M464.1,167.6L443.6,209l22.4,44.8h7.7v31.4h-60.9l-16.1-48.6h-3.8l-16.1,48.6h-53.2v-31.4h7.7l22.2-44.6
		L333,167.6h-7.7v-31.4h60.9l14.2,44.4h3.8l14.4-44.4h53.2v31.4H464.1z"/>
</g>
<g>
	<path d="M341.4,300.3c0.5,0,0.9-0.1,1.3-0.1c7.6,0,15.2,0,22.9,0c3.5,0,7,0.6,10.3,2.1c6.6,3,10.2,8.2,11,15.4
		c0.3,2.7,0.1,5.4-0.5,8c-1.2,4.9-4,8.6-8.1,11.4c-0.4,0.3-0.9,0.6-1.3,0.9c0,0-0.1,0.1-0.2,0.2c2.2,4.1,4.6,8.3,6.9,12.5
		c2.3,4.1,4.6,8.2,6.9,12.4c-0.2,0.1-0.4,0.2-0.5,0.2c-5,0-10,0-14.9,0c-0.6-0.4-0.7-1-1-1.5c-3.4-6.7-6.7-13.3-10.1-20
		c-0.3-0.6-0.6-1.1-0.9-1.7c-2.1,0-4.1,0-6.1,0c-0.5,0-1,0-1.5,0c-0.5,0.6-0.3,1.2-0.3,1.7c0,5.5,0,10.9,0,16.4c0,1.3,0,2.5,0,3.8
		c0,0.4-0.1,0.7-0.1,1.1c-0.3,0.1-0.5,0.1-0.7,0.1c-4.2,0-8.3,0-12.5,0c-0.2,0-0.4-0.1-0.6-0.1c-0.2-1.5-0.4-54.6-0.1-62
		C341.3,300.9,341.4,300.6,341.4,300.3z M355.3,328.5c0.5,0,1,0.1,1.4,0.1c2.4,0,4.8,0,7.3,0c0.6,0,1.2,0,1.7-0.1
		c3.1-0.4,5.2-2.1,6.3-5c0.8-2,0.7-4.1,0.1-6.2c-0.8-2.6-2.5-4.2-5.1-4.9c-0.9-0.2-1.8-0.4-2.6-0.4c-2.7-0.1-5.5,0-8.2,0
		c-0.3,0-0.6,0.1-0.9,0.2C355.3,317.6,355.3,323,355.3,328.5z"/>
	<path id="XMLID_8_" d="M276.9,300.3c0.4-0.1,0.6-0.1,0.8-0.1c4.5,0,8.9,0,13.5,0c0.1,0.4,0.2,0.6,0.2,0.9c0,0.5,0,0.9,0,1.4
		c0,11.6,0,23.1,0,34.7c0,2,0.1,3.9,0.6,5.8c0.2,0.8,0.4,1.5,0.7,2.2c1.1,2.7,3.1,4.5,5.9,5.3c3.1,1,6.2,1,9.3,0.1
		c3.3-0.9,5.4-3,6.6-6.3c0.5-1.5,0.8-3,0.9-4.6c0.1-1.2,0.1-2.3,0.1-3.5c0-11.4,0-22.7,0-34.1c0-0.6,0-1.2,0-1.9
		c0.3-0.1,0.6-0.2,0.8-0.2c4.3,0,8.6,0,12.9,0c0.2,0,0.4,0.1,0.6,0.1c0.3,0.6,0.2,1.2,0.2,1.7c0,4.8,0,9.6,0,14.3
		c0,7.1,0,14.3,0,21.4c0,2.2,0,4.4-0.4,6.6c-1.7,9.9-7.3,16.3-16.8,19.3c-4.1,1.3-8.3,1.6-12.6,1.2c-2.9-0.3-5.7-0.9-8.4-2
		c-7.9-3.3-12.5-9.3-14.2-17.6c-0.4-2.1-0.6-4.2-0.6-6.3c0-12.4,0-24.8,0-37.2C276.9,301.4,276.9,300.9,276.9,300.3z"/>
	<path d="M148.8,363.2c-0.5,0.1-0.8,0.1-1.1,0.1c-5.4,0.2-13.2,0.1-14.6-0.2c-1.6-4.7-3.1-9.4-4.7-14.1c-0.4,0-0.7-0.1-1-0.1
		c-6.8,0-13.6,0-20.3,0c-0.3,0-0.5,0-0.8,0.1c-0.1,0.3-0.3,0.7-0.4,1c-1.3,4-2.7,8-4,11.9c-0.1,0.4-0.3,0.9-0.5,1.3
		c-1.2,0.2-13.2,0.3-14.7,0c-0.2-0.4,0-0.8,0.2-1.2c2.1-5.8,4.3-11.5,6.4-17.3c5.4-14.4,10.7-28.7,16.1-43.1c0.2-0.5,0.4-1,0.6-1.4
		c1.3-0.2,13.5-0.3,15.7-0.1c0.5,0.4,0.6,1.1,0.8,1.7c3.4,9.4,6.9,18.7,10.3,28.1c3.9,10.6,7.7,21.1,11.6,31.7
		C148.4,362.1,148.5,362.6,148.8,363.2z M124.7,337.7c0-0.4,0-0.5-0.1-0.7c-2.4-7.4-4.8-14.9-7.2-22.3c0,0-0.1-0.1-0.1-0.1
		c0,0-0.1,0-0.1,0c-0.6,1.1-7.4,21.7-7.6,23c0.2,0,0.4,0.1,0.6,0.1C115,337.7,119.8,337.7,124.7,337.7z"/>
	<path d="M435.8,349.1c-1.4-0.2-20.8-0.2-22.2,0c-1.6,4.7-3.1,9.4-4.7,14.1c-0.3,0.1-0.6,0.2-0.9,0.2c-4.3,0-8.6,0-12.9,0
		c-0.3,0-0.6-0.1-0.8-0.1c-0.1-0.1-0.1-0.2-0.2-0.2c0,0,0-0.1,0-0.2c7.7-20.7,15.4-41.4,23.2-62.1c0.1-0.2,0.2-0.4,0.4-0.6
		c5.2,0,10.4,0,15.4,0c0.2,0.2,0.3,0.2,0.3,0.2c0,0,0.1,0.1,0.1,0.1c7.5,20.4,15,40.8,22.4,61.2c0.1,0.3,0.2,0.7,0.4,1
		c0,0.1,0,0.2,0,0.4c-0.2,0.1-0.4,0.2-0.7,0.2c-4.7,0-9.4,0-14,0c-0.2,0-0.4-0.1-0.7-0.1c-0.9-2.3-1.6-4.7-2.4-7.1
		C437.4,353.8,436.7,351.4,435.8,349.1z M424.6,314.4c-0.9,2.7-1.8,5.3-2.6,7.8c-0.9,2.6-1.7,5.2-2.6,7.8c-0.8,2.5-1.8,5-2.4,7.6
		c1.6,0.2,13.8,0.2,15.1,0c0-0.1,0-0.3,0-0.4c-2.4-7.4-4.7-14.8-7.1-22.2C424.9,314.8,424.8,314.7,424.6,314.4z"/>
	<path id="XMLID_3_" d="M209.3,311.1c-3.3,3.1-6.4,6.2-9.7,9.3c-0.4-0.4-0.7-0.8-1-1.1c-1.5-1.8-3.1-3.4-5.1-4.7
		c-2.6-1.8-5.5-2.7-8.7-2.8c-2.1-0.1-4.1,0-6.1,0.5c-4.7,1.2-8.2,3.9-10.6,8.1c-2.2,3.8-3.1,8-2.9,12.4c0.1,3.1,0.8,6.2,2.2,8.9
		c3.2,6.1,8.3,9.3,15.2,9.6c2.5,0.1,4.9-0.2,7.3-0.9c2.6-0.9,5-2.3,6.9-4.2c0.8-0.8,1.5-1.6,2.3-2.4c0.2-0.3,0.5-0.5,0.8-0.7
		c1,0.7,8.4,7.3,9.7,8.8c-0.2,0.3-0.3,0.6-0.5,0.9c-1.8,2.2-3.8,4.2-6.1,5.9c-4.6,3.4-9.8,5.5-15.5,6.2c-7.8,1-15.3-0.2-22.2-4.3
		c-7.1-4.3-11.6-10.6-13.8-18.6c-1.2-4.6-1.5-9.2-1-13.9c0.7-5.9,2.6-11.4,6.1-16.2c5-6.8,11.6-11,19.9-12.5
		c6.3-1.2,12.6-0.8,18.7,1.3c5.5,1.9,10,5.2,13.6,9.8C209,310.5,209.1,310.8,209.3,311.1z"/>
	<path id="XMLID_2_" d="M64.3,312.9c0,4.8,0,9.3,0,13.9c0.6,0.3,1.2,0.2,1.7,0.2c5.1,0,10.2,0,15.3,0c1,0,2,0,3,0
		c0.4,0,0.7,0,1.2,0.1c0.1,0.3,0.2,0.5,0.2,0.8c0,3.6,0,7.1,0,10.7c0,0.2-0.1,0.3-0.1,0.5c-0.5,0.3-1.1,0.2-1.7,0.2
		c-4.5,0-8.9,0-13.4,0c-1.5,0-3,0-4.6,0c-0.5,0-0.9,0-1.4,0.1c-0.5,0.5-0.3,1.1-0.3,1.6c0,4.4,0,8.7,0,13.1c0,2.5,0,5,0,7.6
		c0,0.5,0,1,0,1.6c-0.3,0.1-0.6,0.2-0.8,0.2c-4.3,0-8.5,0-12.8,0c-0.2,0-0.3,0-0.5-0.1c-0.1-0.3-0.2-0.6-0.2-0.9c0-0.4,0-0.7,0-1.1
		c0-19.7,0-39.4,0-59.1c0-0.6-0.1-1.3,0.2-1.9c0.2,0,0.3-0.1,0.5-0.1c13.7,0,27.4,0,41.2,0c0.1,0,0.3,0.1,0.4,0.1
		c0.1,0.1,0.1,0.1,0.2,0.1c0,0,0,0.1,0,0.2c0,3.7,0,7.5,0.1,11.2c0,0.3,0,0.5-0.1,0.9c-0.4,0.1-0.7,0.2-1.1,0.2c-2.1,0-4.2,0-6.3,0
		c-6.3,0-12.5,0-18.8,0C65.5,312.8,65,312.8,64.3,312.9z"/>
	<path id="XMLID_1_" d="M269.1,312.8c-2.3,0.1-4.5,0-6.7,0c-2.2,0-4.4,0-6.6,0c-2.2,0-4.4-0.1-6.7,0.1c-0.1,0.4-0.1,0.6-0.1,0.9
		c0,0.5,0,0.9,0,1.4c0,15.4,0,30.7,0,46c0,0.6,0,1.2,0,1.9c-0.3,0.1-0.6,0.2-0.8,0.2c-2.5,0.2-12.3,0-13.4-0.2
		c-0.3-0.5-0.2-1-0.2-1.5c0-4.3,0-8.6,0-12.9c0-11.3,0-22.6,0-33.9c0-0.6,0.1-1.3-0.1-1.9c-0.6-0.3-1.2-0.2-1.7-0.2
		c-5.6,0-11.1,0-16.7,0c-0.6,0-1.1,0-1.8,0c-0.3-1.4-0.1-2.8-0.1-4.1c0-1.4,0-2.7,0-4.1c0-1.4,0-2.7,0-4.1c0.4-0.1,0.7-0.2,1-0.2
		c0.4,0,0.7,0,1.1,0c17,0,34.1,0,51.1,0c0.6,0,1.2-0.1,1.9,0.1c0.1,0.2,0.1,0.4,0.1,0.6C269.4,302.8,269.3,311.5,269.1,312.8z"/>
</g>
</svg>
