<?xml version="1.0" encoding="utf-8"?>
<!-- Generator: Adobe Illustrator 17.0.0, SVG Export Plug-In . SVG Version: 6.00 Build 0)  -->
<!DOCTYPE svg PUBLIC "-//W3C//DTD SVG 1.1//EN" "http://www.w3.org/Graphics/SVG/1.1/DTD/svg11.dtd">
<svg version="1.1" id="Capa_1" xmlns="http://www.w3.org/2000/svg" xmlns:xlink="http://www.w3.org/1999/xlink" x="0px" y="0px"
	 width="676.48px" height="241px" viewBox="0 250 676.48 241" enable-background="new 0 250 676.48 241" xml:space="preserve">
<g id="BreroShop" display="none">
	<text transform="matrix(1 0 0 1 39.8473 139.3702)" display="inline" fill="#FFFFFF" font-family="'Brero'" font-size="117">Brero</text>
	
		<text transform="matrix(1 0 0 1 39.8473 139.3702)" display="inline" fill="none" stroke="#000000" stroke-width="4" stroke-miterlimit="10" font-family="'Brero'" font-size="117">Brero</text>
	<text transform="matrix(1 0 0 1 321.5273 139.3702)" display="inline" fill="#FC610A" font-family="'Brero'" font-size="117">Shop</text>
	
		<text transform="matrix(1 0 0 1 321.5273 139.3702)" display="inline" fill="none" stroke="#000000" stroke-width="4" stroke-miterlimit="10" font-family="'Brero'" font-size="117">Shop</text>
</g>
<g id="Capa_7">
	<g id="Capa_4">
		<path d="M36.506,464.143c-3.216,0.148-6.358-1.046-8.824-3.515c-4.188-4.188-4.787-10.694-1.722-15.48l97.743-167.29
			c2.092-4.04,6.805-6.879,11.592-6.879s8.975,2.839,11.067,6.879l97.669,167.29c3.142,4.787,2.543,11.292-1.645,15.48
			c-2.469,2.469-5.608,3.663-8.826,3.515L36.506,464.143L36.506,464.143z"/>
		<path fill="#FC610A" d="M220.101,442.382c0.373,0.448,0.673,1.121,0.673,1.719c0,1.349-0.972,2.543-2.318,2.543H48.397
			c-1.346,0-2.543-1.194-2.543-2.543c0-0.225,0.151-0.898,0.225-1.194l86.225-146.279c0.525-0.747,1.571-1.42,2.466-1.42
			c0.75,0,2.007,1.194,2.457,1.719L220.101,442.382z"/>
		<path d="M125.224,427.128c0-6.132,4.97-11.105,11.106-11.105c6.132,0,11.103,4.973,11.103,11.105
			c0,6.132-4.97,11.106-11.103,11.106C130.195,438.234,125.224,433.261,125.224,427.128"/>
		<path d="M125.898,342.999c0-5.72,4.71-10.433,10.433-10.433c5.72,0,10.43,4.712,10.43,10.433l-2.691,59.227
			c0,4.238-3.5,7.739-7.739,7.739c-4.241,0-7.742-3.5-7.742-7.739L125.898,342.999z"/>
		<g>
			<path d="M136.329,411.291c-0.552,0-1-0.447-1-1v-77.725c0-0.553,0.448-1,1-1h37.561c9.779,0.145,16.823,3.067,20.95,8.688
				c2.498,3.472,3.761,7.659,3.761,12.455c0,4.963-1.289,9.028-3.831,12.082c-1.083,1.308-2.562,2.533-4.408,3.658
				c3.218,1.518,5.746,3.679,7.53,6.445c2.115,3.278,3.188,7.293,3.188,11.932c0,4.775-1.216,9.124-3.615,12.925
				c-1.519,2.509-3.457,4.661-5.75,6.383c-2.582,1.976-5.673,3.351-9.178,4.081c-3.419,0.714-7.183,1.076-11.187,1.076
				L136.329,411.291L136.329,411.291z M170.702,395.792c3.203,0,5.704-0.428,7.433-1.27c3.057-1.516,4.546-4.396,4.546-8.804
				c0-3.648-1.429-6.077-4.368-7.423c-1.704-0.78-4.181-1.193-7.361-1.227h-18.119v18.723L170.702,395.792L170.702,395.792z
				 M170.722,362.203c3.173,0,5.763-0.599,7.699-1.778c1.802-1.099,2.678-3.054,2.678-5.976c0-3.206-1.165-5.25-3.56-6.249
				c-2.221-0.744-5.204-1.135-8.8-1.135h-15.907v15.138L170.722,362.203L170.722,362.203z"/>
			<path fill="#FC610A" d="M173.89,332.567c9.477,0.141,16.193,2.9,20.144,8.279c2.378,3.304,3.568,7.259,3.568,11.864
				c0,4.746-1.201,8.56-3.6,11.442c-1.341,1.618-3.317,3.094-5.928,4.429c3.966,1.442,6.959,3.727,8.978,6.856
				s3.028,6.925,3.028,11.39c0,4.605-1.153,8.735-3.46,12.391c-1.468,2.426-3.303,4.464-5.505,6.117
				c-2.481,1.898-5.409,3.199-8.782,3.902c-3.373,0.704-7.034,1.055-10.983,1.055h-35.021v-77.724L173.89,332.567 M151.832,363.203
				h18.89c3.375,0,6.114-0.642,8.22-1.925c2.104-1.283,3.157-3.559,3.157-6.829c0-3.62-1.392-6.01-4.175-7.171
				c-2.401-0.808-5.463-1.212-9.185-1.212h-16.907V363.203 M151.832,396.792h18.87c3.37,0,5.994-0.456,7.871-1.371
				c3.405-1.687,5.108-4.921,5.108-9.702c0-4.042-1.651-6.82-4.952-8.331c-1.842-0.844-4.431-1.283-7.767-1.318h-19.13V396.792
				 M173.89,330.567h-37.561c-1.105,0-2,0.895-2,2v77.724c0,1.105,0.895,2,2,2h35.021c4.072,0,7.904-0.369,11.391-1.097
				c3.653-0.761,6.879-2.198,9.589-4.271c2.382-1.787,4.406-4.035,6-6.669c2.481-3.931,3.749-8.46,3.749-13.427
				c0-4.835-1.126-9.032-3.347-12.474c-1.592-2.467-3.736-4.477-6.401-6.004c1.284-0.917,2.358-1.893,3.21-2.92
				c2.693-3.235,4.06-7.515,4.06-12.718c0-5.01-1.327-9.395-3.944-13.032c-4.334-5.901-11.644-8.961-21.737-9.111
				C173.91,330.567,173.9,330.567,173.89,330.567L173.89,330.567z M153.832,348.065h14.907c3.45,0,6.301,0.365,8.478,1.085
				c1.256,0.539,2.881,1.687,2.881,5.299c0,2.544-0.719,4.219-2.198,5.121c-1.777,1.084-4.192,1.633-7.179,1.633h-16.89v-13.138
				H153.832z M153.832,378.069h17.13c3.018,0.032,5.358,0.414,6.934,1.136c2.582,1.183,3.784,3.252,3.784,6.513
				c0,3.99-1.307,6.578-3.996,7.91c-1.579,0.77-3.933,1.163-6.983,1.163h-16.87L153.832,378.069L153.832,378.069z"/>
		</g>
	</g>
	<g id="Capa_6">
		<g>
			<path fill="none" d="M136.522,332.479h37.693c19.008,0,23.868,11.88,23.868,19.872c0,11.124-6.264,14.256-9.504,15.876
				c9.504,3.564,11.988,11.124,11.988,18.793c0,6.155-2.592,11.987-6.696,15.983c-4.428,4.32-8.64,7.021-24.517,7.021h-32.833
				v-77.545H136.522z M152.074,362.827h19.008c6.372,0,11.448-2.484,11.448-8.641c0-6.372-4.536-8.316-11.88-8.316h-18.577v16.957
				H152.074z M152.074,396.631h19.873c7.884,0,12.42-3.456,12.42-11.34c0-6.804-5.832-9.396-11.664-9.396h-20.628L152.074,396.631
				L152.074,396.631z"/>
			<path stroke="#FC610A" stroke-width="2" stroke-linejoin="round" stroke-miterlimit="10" d="M209.42,352.566h14.472v9.937h0.216
				c3.132-5.832,6.588-11.448,15.768-11.448c0.972,0,1.944,0.107,2.916,0.216v15.336c-1.296-0.216-2.916-0.216-4.32-0.216
				c-11.772,0-13.932,7.345-13.932,13.717v29.916h-15.12V352.566z"/>
			<path stroke="#FC610A" stroke-width="2" stroke-linejoin="round" stroke-miterlimit="10" d="M297.117,393.175
				c-3.996,13.824-15.444,18.36-25.272,18.36c-16.2,0-28.621-7.775-28.621-31.428c0-6.912,2.376-29.053,27.541-29.053
				c11.34,0,27,5.399,27,31.645v2.7h-39.42c0.432,4.319,1.296,14.04,13.5,14.04c4.212,0,8.532-2.16,9.72-6.265h15.552V393.175z
				 M282.212,375.571c-0.864-9.288-6.804-12.097-11.664-12.097c-7.128,0-10.908,4.536-11.772,12.097L282.212,375.571
				L282.212,375.571z"/>
			<path stroke="#FC610A" stroke-width="2" stroke-linejoin="round" stroke-miterlimit="10" d="M303.919,352.566h14.473v9.937h0.216
				c3.132-5.832,6.588-11.448,15.768-11.448c0.973,0,1.944,0.107,2.916,0.216v15.336c-1.296-0.216-2.916-0.216-4.319-0.216
				c-11.772,0-13.933,7.345-13.933,13.717v29.916h-15.12L303.919,352.566L303.919,352.566z"/>
			<path stroke="#FC610A" stroke-width="2" stroke-linejoin="round" stroke-miterlimit="10" d="M366.128,411.535
				c-15.444,0-29.377-9.504-29.377-30.24s13.933-30.24,29.377-30.24s29.376,9.504,29.376,30.24S381.572,411.535,366.128,411.535z
				 M366.128,363.799c-11.664,0-13.824,10.152-13.824,17.496s2.16,17.496,13.824,17.496s13.824-10.152,13.824-17.496
				S377.792,363.799,366.128,363.799z"/>
			
				<path fill="#FC610A" stroke="#000000" stroke-width="3" stroke-linecap="round" stroke-linejoin="round" stroke-miterlimit="10" d="
				M415.051,386.155c0.107,4.32,2.268,12.528,16.416,12.528c7.668,0,16.2-1.836,16.2-10.045c0-6.048-5.832-7.668-14.04-9.611
				l-8.316-1.944c-12.528-2.916-24.624-5.725-24.624-22.788c0-8.641,4.644-23.869,29.809-23.869c23.76,0,30.132,15.553,30.24,25.057
				h-15.553c-0.432-3.456-1.728-11.664-15.876-11.664c-6.156,0-13.5,2.269-13.5,9.288c0,6.048,4.968,7.344,8.208,8.101l18.9,4.644
				c10.584,2.592,20.304,6.912,20.304,20.845c0,23.328-23.76,25.38-30.564,25.38c-28.296,0-33.156-16.308-33.156-25.92h15.552
				V386.155z"/>
			
				<path fill="#FC610A" stroke="#000000" stroke-width="3" stroke-linecap="round" stroke-linejoin="round" stroke-miterlimit="10" d="
				M522.511,410.023h-15.12v-34.885c0-4.212-0.216-11.34-9.828-11.34c-6.696,0-11.88,4.536-11.88,13.284v32.94h-15.12v-77.545h15.12
				v27.54h0.216c1.944-4.752,8.424-8.964,16.632-8.964c11.232,0,19.98,6.588,19.98,19.224V410.023z"/>
			
				<path fill="#FC610A" stroke="#000000" stroke-width="3" stroke-linecap="round" stroke-linejoin="round" stroke-miterlimit="10" d="
				M558.798,411.535c-15.444,0-29.377-9.504-29.377-30.24s13.933-30.24,29.377-30.24s29.376,9.504,29.376,30.24
				S574.242,411.535,558.798,411.535z M558.798,363.799c-11.664,0-13.824,10.152-13.824,17.496s2.16,17.496,13.824,17.496
				s13.824-10.152,13.824-17.496S570.462,363.799,558.798,363.799z"/>
			
				<path fill="#FC610A" stroke="#000000" stroke-width="3" stroke-linecap="round" stroke-linejoin="round" stroke-miterlimit="10" d="
				M609.124,360.883h0.217c2.808-4.536,7.02-9.828,17.172-9.828c12.636,0,23.868,9.72,23.868,29.593
				c0,15.768-7.128,30.888-24.192,30.888c-10.584,0-14.364-5.724-16.2-8.855h-0.216v29.7h-15.12v-79.813h14.472L609.124,360.883
				L609.124,360.883z M622.408,399.115c9.721,0,12.421-10.584,12.421-17.389c0-9.071-3.24-17.604-12.853-17.604
				c-10.368,0-12.853,9.288-12.853,18.468C609.124,391.123,612.797,399.115,622.408,399.115z"/>
		</g>
	</g>
	<g>
		<g>
			<path d="M311.629,465.03c-2.905,0-5.471-0.483-7.623-1.438c-1.384-0.613-2.563-1.446-3.523-2.489v2.949h-11.185V412.4h11.674
				v16.761c1.043-1.047,2.292-1.895,3.733-2.532c2.15-0.954,4.48-1.438,6.924-1.438c1.973,0,3.924,0.412,5.799,1.225
				c1.878,0.816,3.6,2.062,5.118,3.704c1.52,1.644,2.733,3.758,3.608,6.283c0.867,2.505,1.307,5.423,1.307,8.673
				c0,3.249-0.439,6.179-1.306,8.707c-0.876,2.552-2.09,4.678-3.609,6.32s-3.24,2.887-5.117,3.703
				C315.556,464.618,313.605,465.03,311.629,465.03z M308.205,434.418c-2.457,0-4.275,0.956-5.559,2.923
				c-1.343,2.06-2.024,4.685-2.024,7.804c0,3.075,0.682,5.677,2.024,7.734c1.283,1.968,3.101,2.924,5.559,2.924
				c2.455,0,4.273-0.956,5.558-2.924c1.343-2.058,2.023-4.66,2.023-7.734c0-3.119-0.681-5.744-2.023-7.804
				C312.478,435.374,310.66,434.418,308.205,434.418z"/>
			<path fill="#FC610A" d="M300.097,413.275v18.171h0.139c1.165-1.769,2.772-3.109,4.823-4.018c2.049-0.909,4.239-1.363,6.569-1.363
				c1.863,0,3.68,0.385,5.452,1.153c1.77,0.769,3.378,1.934,4.823,3.495c1.444,1.561,2.585,3.554,3.424,5.976
				c0.839,2.423,1.258,5.218,1.258,8.387s-0.419,5.976-1.258,8.423c-0.839,2.446-1.981,4.45-3.424,6.01
				c-1.445,1.561-3.053,2.726-4.823,3.495c-1.771,0.768-3.589,1.153-5.452,1.153c-2.796,0-5.218-0.454-7.269-1.363
				c-2.05-0.909-3.588-2.317-4.613-4.228h-0.139v4.613h-9.436v-49.902h9.926 M308.205,456.678c2.749,0,4.845-1.107,6.29-3.321
				c1.444-2.212,2.166-4.949,2.166-8.212c0-3.308-0.722-6.068-2.166-8.282c-1.446-2.213-3.542-3.32-6.29-3.32
				c-2.75,0-4.847,1.107-6.29,3.32c-1.445,2.214-2.167,4.974-2.167,8.282c0,3.263,0.722,6.001,2.167,8.212
				C303.358,455.571,305.455,456.678,308.205,456.678 M301.847,411.525h-1.75h-9.925h-1.75v1.75v49.902v1.75h1.75h9.436h1.75v-1.75
				v-0.114c0.694,0.516,1.459,0.96,2.293,1.329c2.265,1.004,4.95,1.513,7.978,1.513c2.094,0,4.163-0.436,6.148-1.297
				c1.988-0.864,3.808-2.18,5.411-3.912c1.603-1.733,2.88-3.964,3.795-6.631c0.898-2.619,1.353-5.643,1.353-8.99
				c0-3.349-0.456-6.363-1.355-8.959c-0.915-2.641-2.191-4.859-3.793-6.591c-1.603-1.733-3.423-3.049-5.411-3.912
				c-1.986-0.861-4.055-1.298-6.149-1.298c-2.565,0-5.014,0.509-7.279,1.513c-0.906,0.401-1.741,0.88-2.503,1.435v-13.988
				L301.847,411.525L301.847,411.525z M308.205,454.928c-2.168,0-3.701-0.803-4.825-2.526c-1.25-1.913-1.883-4.354-1.883-7.256
				c0-2.947,0.633-5.411,1.882-7.326c1.124-1.723,2.657-2.526,4.825-2.526c2.166,0,3.699,0.803,4.825,2.527
				c1.248,1.913,1.881,4.378,1.881,7.325c0,2.902-0.633,5.343-1.881,7.256C311.904,454.125,310.371,454.928,308.205,454.928
				L308.205,454.928z"/>
		</g>
		<g>
			<path d="M332,464.053v-37.884h11.186v4.487c0.896-1.199,2.032-2.255,3.396-3.155c2.325-1.533,4.815-2.311,7.401-2.311
				c0.835,0,1.657,0.133,2.442,0.394l0.599,0.199v10.949l-1.065-0.238c-0.388-0.086-0.906-0.163-1.542-0.229
				c-0.637-0.066-1.254-0.1-1.833-0.1c-3.136,0-5.339,0.924-6.737,2.823c-1.441,1.956-2.172,4.615-2.172,7.903v17.16H332V464.053z"
				/>
			<path fill="#FC610A" d="M353.983,426.065c0.744,0,1.467,0.117,2.166,0.349v9.227c-0.419-0.094-0.967-0.175-1.642-0.245
				c-0.677-0.07-1.317-0.105-1.923-0.105c-3.401,0-5.882,1.06-7.443,3.18s-2.341,4.928-2.341,8.421v16.285h-9.925v-36.134h9.436
				v6.71h0.139c0.885-2.237,2.423-4.077,4.613-5.522C349.253,426.788,351.559,426.065,353.983,426.065 M353.983,424.315
				c-2.76,0-5.412,0.826-7.883,2.455c-0.744,0.491-1.424,1.026-2.039,1.603v-1.33v-1.75h-1.75h-9.436h-1.75v1.75v36.134v1.75h1.75
				h9.925h1.75v-1.75v-16.285c0-3.097,0.673-5.581,2-7.384c1.223-1.661,3.197-2.468,6.034-2.468c0.543,0,1.13,0.032,1.743,0.095
				c0.605,0.063,1.089,0.134,1.44,0.212l2.131,0.476v-2.184v-9.227v-1.263l-1.198-0.398
				C355.826,424.463,354.912,424.315,353.983,424.315L353.983,424.315z"/>
		</g>
		<g>
			<path d="M375.51,465.03c-2.895,0-5.566-0.479-7.942-1.424c-2.392-0.952-4.46-2.341-6.148-4.125
				c-1.683-1.782-2.991-3.929-3.89-6.383c-0.894-2.436-1.347-5.112-1.347-7.954c0-2.796,0.466-5.439,1.385-7.858
				c0.923-2.429,2.254-4.572,3.957-6.371c1.707-1.805,3.782-3.227,6.168-4.225c2.382-0.995,5.012-1.5,7.817-1.5
				c2.959,0,5.637,0.558,7.957,1.656c2.321,1.1,4.282,2.627,5.828,4.54c1.529,1.894,2.709,4.104,3.507,6.569
				c0.792,2.449,1.194,5.079,1.194,7.818c0,0.201-0.022,0.499-0.069,0.892v1.731H367.92c0.233,2.424,0.947,4.246,2.128,5.425
				c1.313,1.314,3.269,1.98,5.812,1.98c1.73,0,3.288-0.436,4.63-1.295c1.295-0.828,2.086-1.751,2.353-2.741l0.174-0.647h10.612
				l-0.373,1.146c-1.405,4.313-3.646,7.557-6.66,9.64C383.596,463.979,379.865,465.03,375.51,465.03z M382.053,440.356
				c-0.455-1.905-1.159-3.354-2.102-4.313c-1.073-1.095-2.617-1.626-4.722-1.626c-1.348,0-2.5,0.229-3.425,0.681
				c-0.931,0.456-1.691,1.037-2.26,1.728c-0.578,0.702-0.996,1.44-1.241,2.194c-0.147,0.456-0.261,0.903-0.337,1.336H382.053z"/>
			<path fill="#FC610A" d="M375.51,426.065c2.841,0,5.37,0.524,7.584,1.572c2.212,1.048,4.053,2.482,5.521,4.299
				c1.467,1.817,2.585,3.913,3.354,6.289c0.769,2.377,1.153,4.893,1.153,7.549c0,0.186-0.024,0.466-0.07,0.839
				c0,0.419,0,0.722,0,0.909h-26.069c0.139,3.122,0.954,5.429,2.447,6.919c1.49,1.491,3.634,2.237,6.43,2.237
				c1.91,0,3.61-0.477,5.102-1.433c1.49-0.954,2.399-2.038,2.726-3.251h8.736c-1.352,4.149-3.46,7.211-6.325,9.192
				c-2.865,1.981-6.395,2.97-10.588,2.97c-2.796,0-5.336-0.454-7.618-1.363c-2.283-0.909-4.228-2.213-5.836-3.913
				c-1.607-1.701-2.842-3.728-3.704-6.081c-0.863-2.352-1.293-4.902-1.293-7.653c0-2.701,0.442-5.217,1.328-7.548
				c0.885-2.329,2.143-4.357,3.775-6.08c1.63-1.724,3.586-3.064,5.87-4.019C370.313,426.544,372.807,426.065,375.51,426.065
				 M366.982,441.232h16.146c-0.466-2.609-1.317-4.543-2.551-5.801c-1.235-1.258-3.018-1.887-5.347-1.887
				c-1.491,0-2.761,0.257-3.809,0.769c-1.048,0.513-1.899,1.165-2.551,1.957c-0.653,0.793-1.118,1.62-1.398,2.481
				C367.193,439.613,367.028,440.44,366.982,441.232 M375.51,424.315c-2.922,0-5.666,0.528-8.154,1.568
				c-2.499,1.046-4.675,2.537-6.466,4.431c-1.783,1.883-3.176,4.124-4.139,6.661c-0.957,2.517-1.442,5.266-1.442,8.169
				c0,2.946,0.471,5.723,1.4,8.256c0.939,2.565,2.31,4.813,4.075,6.68c1.777,1.879,3.951,3.339,6.461,4.337
				c2.478,0.987,5.259,1.487,8.265,1.487c4.537,0,8.435-1.104,11.583-3.28c3.174-2.194,5.527-5.589,6.994-10.089l0.747-2.292h-2.411
				h-8.736h-1.341l-0.349,1.295c-0.209,0.774-0.875,1.525-1.98,2.233c-1.215,0.778-2.575,1.156-4.158,1.156
				c-2.335,0-4.033-0.564-5.192-1.724c-0.88-0.879-1.467-2.197-1.753-3.932h24.137h1.75v-1.75v-0.804
				c0.047-0.405,0.07-0.706,0.07-0.944c0-2.828-0.416-5.549-1.238-8.087c-0.832-2.57-2.063-4.875-3.658-6.85
				c-1.629-2.016-3.693-3.624-6.133-4.781C381.403,424.901,378.599,424.315,375.51,424.315L375.51,424.315z M369.076,439.482
				c0.019-0.064,0.04-0.129,0.06-0.194c0.21-0.646,0.575-1.289,1.084-1.907c0.488-0.592,1.151-1.096,1.97-1.497
				c0.802-0.392,1.825-0.591,3.039-0.591c1.857,0,3.198,0.446,4.098,1.363c0.649,0.661,1.175,1.608,1.573,2.825h-11.824V439.482z"/>
		</g>
		<g>
			<path d="M398.047,464.053v-37.884h11.186v4.487c0.896-1.199,2.031-2.255,3.395-3.155c2.327-1.533,4.817-2.311,7.402-2.311
				c0.836,0,1.658,0.133,2.442,0.394l0.599,0.199v10.95l-1.066-0.239c-0.386-0.086-0.903-0.163-1.54-0.229
				c-0.638-0.066-1.255-0.1-1.833-0.1c-3.135,0-5.34,0.924-6.739,2.823c-1.439,1.957-2.17,4.616-2.17,7.903v17.16h-11.676V464.053z"
				/>
			<path fill="#FC610A" d="M420.03,426.065c0.744,0,1.467,0.117,2.166,0.349v9.227c-0.419-0.094-0.967-0.175-1.642-0.245
				c-0.677-0.07-1.317-0.105-1.923-0.105c-3.401,0-5.882,1.06-7.443,3.18s-2.341,4.928-2.341,8.421v16.285h-9.925v-36.134h9.436
				v6.71h0.139c0.885-2.237,2.423-4.077,4.613-5.522C415.299,426.788,417.606,426.065,420.03,426.065 M420.03,424.315
				c-2.76,0-5.412,0.826-7.883,2.455c-0.744,0.491-1.424,1.026-2.039,1.603v-1.33v-1.75h-1.75h-9.436h-1.75v1.75v36.134v1.75h1.75
				h9.925h1.75v-1.75v-16.285c0-3.097,0.673-5.581,2-7.384c1.223-1.661,3.197-2.468,6.034-2.468c0.543,0,1.13,0.032,1.743,0.095
				c0.605,0.063,1.089,0.134,1.44,0.212l2.131,0.476v-2.184v-9.227v-1.263l-1.198-0.398
				C421.873,424.463,420.959,424.315,420.03,424.315L420.03,424.315z"/>
		</g>
		<g>
			<path d="M442.395,465.03c-5.856,0-10.628-1.84-14.184-5.469c-3.552-3.624-5.353-8.475-5.353-14.417
				c0-5.985,1.801-10.859,5.353-14.485c3.556-3.629,8.327-5.469,14.184-5.469c5.901,0,10.697,1.84,14.255,5.469
				c3.551,3.628,5.352,8.501,5.352,14.485c0,5.941-1.801,10.792-5.352,14.417C453.092,463.19,448.296,465.03,442.395,465.03z
				 M442.395,434.418c-1.426,0-2.659,0.281-3.666,0.835c-1.002,0.551-1.811,1.318-2.403,2.279c-0.622,1.007-1.078,2.161-1.357,3.433
				c-0.288,1.3-0.434,2.705-0.434,4.18c0,1.476,0.146,2.869,0.433,4.142c0.279,1.251,0.736,2.395,1.357,3.401
				c0.6,0.974,1.387,1.72,2.404,2.28c1.005,0.554,2.238,0.835,3.666,0.835c1.473,0,2.73-0.281,3.737-0.835
				c1.016-0.561,1.802-1.307,2.403-2.28c0.619-1.005,1.076-2.15,1.358-3.401c0.287-1.28,0.433-2.674,0.433-4.142
				c0-1.466-0.146-2.872-0.434-4.179c-0.282-1.272-0.739-2.428-1.358-3.434c-0.594-0.961-1.402-1.728-2.403-2.279
				C445.123,434.699,443.865,434.418,442.395,434.418z"/>
			<path fill="#FC610A" d="M442.395,426.065c5.684,0,10.227,1.736,13.629,5.206c3.4,3.472,5.102,8.097,5.102,13.873
				c0,5.732-1.702,10.333-5.102,13.804c-3.402,3.471-7.945,5.206-13.629,5.206c-5.639,0-10.159-1.735-13.559-5.206
				c-3.401-3.471-5.102-8.073-5.102-13.804c0-5.776,1.701-10.401,5.102-13.873C432.236,427.801,436.756,426.065,442.395,426.065
				 M442.395,456.678c1.63,0,3.016-0.315,4.158-0.943c1.141-0.63,2.049-1.491,2.726-2.586c0.674-1.094,1.164-2.317,1.467-3.669
				c0.303-1.351,0.454-2.796,0.454-4.334c0-1.537-0.151-2.993-0.454-4.368c-0.304-1.374-0.793-2.609-1.467-3.704
				c-0.677-1.095-1.585-1.958-2.726-2.586c-1.143-0.629-2.529-0.943-4.158-0.943c-1.585,0-2.948,0.315-4.089,0.943
				c-1.143,0.629-2.051,1.491-2.726,2.586c-0.677,1.095-1.166,2.33-1.467,3.704c-0.304,1.375-0.454,2.83-0.454,4.368
				c0,1.538,0.15,2.983,0.454,4.334c0.302,1.352,0.791,2.575,1.467,3.669c0.674,1.095,1.583,1.957,2.726,2.586
				C439.447,456.363,440.81,456.678,442.395,456.678 M442.395,424.315c-6.101,0-11.084,1.928-14.809,5.732
				c-3.717,3.794-5.602,8.874-5.602,15.098c0,6.179,1.885,11.236,5.602,15.029c3.726,3.803,8.708,5.732,14.809,5.732
				c6.145,0,11.151-1.928,14.879-5.731c3.717-3.795,5.602-8.851,5.602-15.029c0-6.222-1.885-11.302-5.602-15.097
				C453.546,426.244,448.54,424.315,442.395,424.315L442.395,424.315z M442.395,454.928c-1.278,0-2.37-0.244-3.244-0.726
				c-0.882-0.486-1.563-1.131-2.08-1.971c-0.572-0.925-0.992-1.978-1.25-3.133c-0.274-1.217-0.412-2.546-0.412-3.953
				c0-1.408,0.139-2.75,0.413-3.99c0.259-1.178,0.678-2.241,1.247-3.162c0.52-0.844,1.2-1.489,2.08-1.973
				c0.876-0.483,1.967-0.727,3.245-0.727c1.323,0,2.438,0.245,3.315,0.727c0.879,0.484,1.559,1.13,2.08,1.973
				c0.567,0.92,0.987,1.985,1.248,3.162c0.274,1.243,0.413,2.586,0.413,3.99c0,1.403-0.139,2.732-0.412,3.951
				c-0.26,1.156-0.68,2.21-1.25,3.134c-0.519,0.84-1.201,1.486-2.082,1.973C444.833,454.683,443.718,454.928,442.395,454.928
				L442.395,454.928z"/>
		</g>
		<g>
			<rect x="467.099" y="451.539" width="12.724" height="12.514"/>
			<path fill="#FC610A" d="M478.947,452.414v10.764h-10.973v-10.764H478.947 M480.697,450.664h-1.75h-10.973h-1.75v1.75v10.764v1.75
				h1.75h10.973h1.75v-1.75v-10.764V450.664L480.697,450.664z"/>
		</g>
		<g>
			<path d="M503.689,465.03c-2.895,0-5.566-0.479-7.941-1.424c-2.392-0.952-4.461-2.34-6.149-4.125
				c-1.683-1.782-2.991-3.929-3.89-6.383c-0.894-2.436-1.347-5.112-1.347-7.954c0-2.796,0.466-5.439,1.385-7.858
				c0.923-2.43,2.255-4.573,3.959-6.371c1.706-1.806,3.781-3.227,6.166-4.225c2.383-0.995,5.013-1.5,7.817-1.5
				c2.959,0,5.636,0.558,7.958,1.656c2.323,1.101,4.283,2.628,5.827,4.54c1.529,1.893,2.709,4.104,3.507,6.569
				c0.793,2.451,1.195,5.081,1.195,7.818c0,0.201-0.023,0.499-0.07,0.892v1.731H496.1c0.233,2.424,0.947,4.246,2.128,5.425
				c1.313,1.314,3.269,1.98,5.812,1.98c1.73,0,3.288-0.436,4.63-1.295c1.294-0.828,2.086-1.75,2.354-2.741l0.175-0.647h10.612
				l-0.374,1.146c-1.406,4.313-3.647,7.557-6.661,9.64C511.775,463.979,508.045,465.03,503.689,465.03z M510.232,440.356
				c-0.455-1.906-1.159-3.354-2.101-4.313c-1.074-1.094-2.619-1.626-4.723-1.626c-1.348,0-2.5,0.229-3.425,0.681
				c-0.93,0.455-1.69,1.036-2.261,1.728c-0.577,0.702-0.995,1.44-1.24,2.194c-0.147,0.457-0.26,0.904-0.337,1.336H510.232z"/>
			<path fill="#FC610A" d="M503.689,426.065c2.841,0,5.37,0.524,7.584,1.572c2.212,1.048,4.053,2.482,5.521,4.299
				c1.467,1.817,2.585,3.913,3.354,6.289c0.769,2.377,1.153,4.893,1.153,7.549c0,0.186-0.024,0.466-0.07,0.839
				c0,0.419,0,0.722,0,0.909h-26.069c0.139,3.122,0.954,5.429,2.447,6.919c1.49,1.491,3.634,2.237,6.43,2.237
				c1.91,0,3.61-0.477,5.102-1.433c1.49-0.954,2.399-2.038,2.726-3.251h8.736c-1.352,4.149-3.46,7.211-6.325,9.192
				s-6.395,2.97-10.588,2.97c-2.796,0-5.336-0.454-7.618-1.363c-2.283-0.909-4.228-2.213-5.836-3.913
				c-1.607-1.701-2.842-3.728-3.704-6.081c-0.863-2.352-1.293-4.902-1.293-7.653c0-2.701,0.442-5.217,1.328-7.548
				c0.885-2.329,2.143-4.357,3.775-6.08c1.63-1.724,3.586-3.064,5.87-4.019C498.493,426.544,500.987,426.065,503.689,426.065
				 M495.162,441.232h16.146c-0.466-2.609-1.317-4.543-2.551-5.801c-1.235-1.258-3.018-1.887-5.347-1.887
				c-1.491,0-2.761,0.257-3.809,0.769c-1.048,0.513-1.899,1.165-2.551,1.957c-0.653,0.793-1.118,1.62-1.398,2.481
				C495.373,439.613,495.208,440.44,495.162,441.232 M503.689,424.315c-2.922,0-5.666,0.528-8.154,1.568
				c-2.499,1.046-4.675,2.537-6.466,4.431c-1.783,1.883-3.176,4.124-4.139,6.661c-0.957,2.517-1.442,5.266-1.442,8.169
				c0,2.946,0.471,5.723,1.4,8.256c0.939,2.565,2.311,4.813,4.075,6.68c1.777,1.879,3.951,3.339,6.461,4.337
				c2.478,0.987,5.259,1.487,8.265,1.487c4.537,0,8.435-1.104,11.583-3.28c3.174-2.194,5.527-5.589,6.994-10.089l0.747-2.292h-2.411
				h-8.736h-1.341l-0.349,1.295c-0.209,0.774-0.875,1.525-1.98,2.233c-1.215,0.778-2.575,1.156-4.158,1.156
				c-2.335,0-4.033-0.564-5.192-1.724c-0.88-0.879-1.467-2.197-1.753-3.932h24.137h1.75v-1.75v-0.804
				c0.047-0.405,0.07-0.706,0.07-0.944c0-2.828-0.416-5.549-1.238-8.087c-0.832-2.57-2.062-4.875-3.658-6.85
				c-1.629-2.016-3.693-3.624-6.133-4.781C509.583,424.901,506.779,424.315,503.689,424.315L503.689,424.315z M497.256,439.482
				c0.019-0.064,0.04-0.129,0.06-0.194c0.21-0.646,0.575-1.289,1.084-1.907c0.488-0.592,1.151-1.096,1.97-1.497
				c0.802-0.392,1.825-0.591,3.039-0.591c1.857,0,3.198,0.446,4.098,1.363c0.649,0.661,1.175,1.608,1.573,2.825h-11.824V439.482z"/>
		</g>
		<g>
			<path d="M542.339,465.03c-2.293,0-4.475-0.23-6.484-0.685c-2.045-0.463-3.925-1.23-5.586-2.281
				c-1.699-1.073-3.078-2.516-4.099-4.287c-1.021-1.765-1.591-3.887-1.689-6.306l-0.038-0.911h11.203l0.02,0.855
				c0.039,1.77,0.647,3.037,1.859,3.878c1.288,0.895,2.931,1.348,4.884,1.348c1.562,0,2.944-0.338,4.108-1.004
				c1.035-0.59,1.517-1.459,1.517-2.735c0-0.652-0.206-1.607-1.987-2.375c-1.615-0.696-4.499-1.49-8.573-2.36
				c-1.72-0.382-3.245-0.802-4.541-1.25c-1.347-0.465-2.603-1.087-3.733-1.85c-1.177-0.794-2.126-1.809-2.82-3.015
				c-0.703-1.225-1.06-2.7-1.06-4.386c0-2.334,0.473-4.359,1.405-6.02c0.933-1.667,2.229-2.989,3.854-3.929
				c1.563-0.903,3.334-1.561,5.263-1.952c1.891-0.383,3.936-0.576,6.079-0.576c2.148,0,4.176,0.207,6.024,0.614
				c1.88,0.416,3.614,1.098,5.155,2.027c1.582,0.955,2.881,2.253,3.86,3.857c0.974,1.6,1.568,3.562,1.768,5.831l0.083,0.951H547.61
				l-0.062-0.808c-0.118-1.532-0.633-2.556-1.574-3.129c-1.046-0.634-2.504-0.956-4.333-0.956c-1.408,0-2.607,0.211-3.565,0.628
				c-0.748,0.324-1.081,0.896-1.081,1.853c0,1.006,0.484,1.663,1.569,2.133c1.343,0.581,3.449,1.175,6.262,1.764
				c1.339,0.287,2.246,0.496,2.776,0.64c1.673,0.373,3.217,0.819,4.549,1.318c1.362,0.511,2.627,1.168,3.757,1.953
				c1.184,0.823,2.123,1.894,2.794,3.181c0.669,1.287,1.008,2.811,1.008,4.528c0,2.425-0.496,4.543-1.475,6.296
				c-0.974,1.752-2.321,3.175-4.003,4.229c-1.64,1.027-3.494,1.781-5.512,2.243C546.732,464.8,544.585,465.03,542.339,465.03z"/>
			<path fill="#FC610A" d="M541.919,426.065c2.096,0,4.042,0.198,5.836,0.594c1.792,0.397,3.424,1.037,4.892,1.922
				c1.468,0.886,2.656,2.074,3.565,3.565s1.456,3.309,1.643,5.452h-9.436c-0.139-1.817-0.804-3.086-1.992-3.809
				c-1.189-0.722-2.785-1.084-4.788-1.084c-1.537,0-2.842,0.234-3.913,0.699c-1.073,0.466-1.608,1.352-1.608,2.656
				c0,1.352,0.699,2.33,2.097,2.935c1.398,0.606,3.54,1.213,6.43,1.817c1.304,0.28,2.213,0.489,2.726,0.629
				c1.677,0.374,3.168,0.804,4.472,1.293c1.304,0.489,2.493,1.108,3.565,1.852c1.072,0.746,1.91,1.702,2.517,2.866
				c0.605,1.165,0.909,2.539,0.909,4.124c0,2.283-0.454,4.24-1.363,5.87c-0.909,1.632-2.144,2.936-3.704,3.914
				c-1.562,0.978-3.31,1.69-5.242,2.132c-1.934,0.442-3.996,0.663-6.185,0.663c-2.237,0-4.334-0.221-6.29-0.663
				c-1.957-0.442-3.728-1.165-5.312-2.167c-1.584-1.001-2.854-2.329-3.809-3.984c-0.955-1.653-1.479-3.622-1.573-5.906h9.436
				c0.046,2.051,0.792,3.577,2.237,4.578c1.443,1.002,3.238,1.503,5.382,1.503c1.724,0,3.238-0.373,4.543-1.119
				c1.304-0.744,1.957-1.91,1.957-3.495c0-1.398-0.839-2.457-2.516-3.179c-1.678-0.722-4.591-1.526-8.737-2.412
				c-1.677-0.373-3.157-0.779-4.437-1.222c-1.282-0.442-2.459-1.025-3.53-1.747c-1.072-0.722-1.922-1.631-2.551-2.726
				s-0.943-2.412-0.943-3.949c0-2.19,0.43-4.054,1.293-5.591c0.862-1.538,2.038-2.737,3.53-3.6c1.49-0.862,3.156-1.478,4.997-1.852
				C537.853,426.252,539.822,426.065,541.919,426.065 M541.919,424.315c-2.204,0-4.308,0.2-6.253,0.594
				c-2.021,0.41-3.88,1.101-5.526,2.052c-1.762,1.019-3.168,2.452-4.181,4.259c-1.006,1.792-1.516,3.962-1.516,6.446
				c0,1.84,0.396,3.462,1.176,4.821c0.762,1.325,1.802,2.437,3.091,3.306c1.193,0.805,2.518,1.461,3.937,1.951
				c1.324,0.459,2.882,0.888,4.628,1.276c4.031,0.861,6.861,1.638,8.425,2.311c1.458,0.628,1.458,1.289,1.458,1.572
				c0,0.955-0.321,1.545-1.074,1.975c-1.046,0.598-2.248,0.889-3.676,0.889c-1.796,0-3.23-0.39-4.384-1.191
				c-0.617-0.428-1.442-1.222-1.485-3.179l-0.038-1.711h-1.711h-9.436h-1.823l0.075,1.822c0.105,2.56,0.713,4.818,1.807,6.71
				c1.092,1.893,2.569,3.437,4.389,4.588c1.745,1.104,3.717,1.91,5.861,2.395c2.074,0.469,4.32,0.707,6.676,0.707
				c2.31,0,4.522-0.238,6.575-0.708c2.113-0.484,4.058-1.276,5.781-2.355c1.808-1.134,3.256-2.663,4.304-4.546
				c1.051-1.885,1.584-4.147,1.584-6.721c0-1.858-0.372-3.517-1.105-4.93c-0.738-1.416-1.77-2.591-3.07-3.496
				c-1.192-0.827-2.52-1.518-3.95-2.054c-1.358-0.509-2.928-0.965-4.668-1.354c-0.547-0.147-1.456-0.356-2.778-0.64
				c-2.763-0.578-4.812-1.153-6.101-1.712c-0.963-0.416-1.043-0.885-1.043-1.329c0-0.75,0.241-0.914,0.555-1.051
				c0.847-0.368,1.929-0.554,3.216-0.554c1.668,0,2.974,0.279,3.879,0.829c0.251,0.152,1.015,0.617,1.155,2.447l0.124,1.616h1.621
				h9.436h1.91l-0.166-1.902c-0.21-2.405-0.847-4.494-1.892-6.21c-1.053-1.727-2.451-3.124-4.155-4.152
				c-1.623-0.979-3.446-1.696-5.418-2.132C546.221,424.529,544.131,424.315,541.919,424.315L541.919,424.315z"/>
		</g>
	</g>
</g>
</svg>
