<?xml version="1.0" encoding="utf-8"?>
<!-- Generator: Adobe Illustrator 19.0.0, SVG Export Plug-In . SVG Version: 6.00 Build 0)  -->
<!DOCTYPE svg PUBLIC "-//W3C//DTD SVG 1.1//EN" "http://www.w3.org/Graphics/SVG/1.1/DTD/svg11.dtd">
<svg version="1.1" id="Layer_1" xmlns="http://www.w3.org/2000/svg" xmlns:xlink="http://www.w3.org/1999/xlink" x="0px" y="0px"
	 viewBox="0 0 460 190" enable-background="new 0 0 460 190" xml:space="preserve">
<g id="XMLID_35_">
	<polygon id="XMLID_45_" fill="#00C8E0" points="91.1,42.3 44.9,73.4 104,89.6 120.2,148.7 151.2,102.4 146.9,46.6 	"/>
	<g id="XMLID_36_">
		<path id="XMLID_42_" fill="#00C8E0" d="M204.9,65.6c-5.1,0-9.9,1.3-14,3.6V49c0-4.3-3.4-7.7-7.7-7.7c-4.3,0-7.7,3.4-7.7,7.7v66
			c0,4.3,3.4,7.7,7.7,7.7c2.4,0,4.6-1.1,6-2.9c4.6,2.9,9.9,4.6,15.7,4.6c16.2,0,29.4-13.2,29.4-29.4S221.1,65.6,204.9,65.6z
			 M204.9,109c-7.7,0-14-6.3-14-14c0-7.7,6.3-14,14-14c7.7,0,14,6.3,14,14C219,102.8,212.7,109,204.9,109z"/>
		<path id="XMLID_41_" fill="#00C8E0" d="M273.2,66.3c-17.5,0-29.3,11.2-29.3,27.9v22.6c0,4.3,3.4,7.7,7.7,7.7s7.7-3.4,7.7-7.7V94.2
			c0-5.7,2.4-12.5,13.9-12.5c4.3,0,7.7-3.4,7.7-7.7S277.4,66.3,273.2,66.3z"/>
		<path id="XMLID_40_" fill="#00C8E0" d="M298.7,68.2c-4.3,0-7.7,3.4-7.7,7.7v40.9c0,4.3,3.4,7.7,7.7,7.7c4.3,0,7.7-3.4,7.7-7.7
			V75.9C306.4,71.6,303,68.2,298.7,68.2z"/>
		<circle id="XMLID_39_" fill="#00C8E0" cx="298.7" cy="53.1" r="8.3"/>
		<path id="XMLID_38_" fill="#00C8E0" d="M339.2,85.1c-1.8-0.7-2.9-1.1-3.3-1.7c-0.9-1-0.8-2.6,0.2-3.5c1-0.9,2.6-0.8,3.5,0.2
			c2.8,3.2,7.7,3.5,10.9,0.7c3.2-2.8,3.5-7.7,0.7-10.9c-6.5-7.4-17.8-8.2-25.2-1.7c-7.4,6.5-8.2,17.8-1.7,25.2
			c3,3.4,6.5,4.7,9.3,5.9c2.6,1,4,1.6,5.3,3.1c0.9,1,1.3,2,1.3,2.9c-0.1,0.9-0.7,1.8-1.6,2.7c-0.8,0.7-1.8,1-2.9,1
			c-1.1-0.1-2-0.5-2.7-1.3c-2.8-3.2-7.7-3.5-10.9-0.7c-3.2,2.8-3.5,7.7-0.7,10.9c3.8,4.4,9.2,6.6,14.6,6.6c4.5,0,9.1-1.6,12.7-4.8
			c3.9-3.4,6.3-7.9,6.8-12.7c0.5-5.1-1.3-10.3-5-14.6C346.6,88,342.4,86.4,339.2,85.1z"/>
		<path id="XMLID_37_" fill="#00C8E0" d="M396.3,94.7l16.3-16.3c3-3,3-7.9,0-10.9c-3-3-7.9-3-10.9,0L381.2,88V51
			c0-4.3-3.4-7.7-7.7-7.7c-4.3,0-7.7,3.4-7.7,7.7v65.7c0,4.3,3.4,7.7,7.7,7.7c4.3,0,7.7-3.4,7.7-7.7v-15.3l20.7,20.7
			c1.5,1.5,3.5,2.3,5.4,2.3c2,0,3.9-0.8,5.4-2.3c3-3,3-7.9,0-10.9L396.3,94.7z"/>
	</g>
</g>
</svg>
