<?xml version="1.0" encoding="UTF-8" standalone="no"?>
<svg width="1755px" height="510px" viewBox="0 0 1755 510" version="1.1" xmlns="http://www.w3.org/2000/svg" xmlns:xlink="http://www.w3.org/1999/xlink">
    <!-- Generator: Sketch 3.6.1 (26313) - http://www.bohemiancoding.com/sketch -->
    <title>brisk</title>
    <desc>Created with Sketch.</desc>
    <defs></defs>
    <g id="Page-1" stroke="none" stroke-width="1" fill="none" fill-rule="evenodd">
        <g id="brisk" transform="translate(-4.000000, -1.000000)" fill="#00C8E0">
            <g id="XMLID_35_">
                <path d="M223.288889,6.16296296 L4.26666667,153.6 L284.444444,230.4 L361.244444,510.577778 L508.207407,291.081481 L487.822222,26.5481481 L223.288889,6.16296296 Z" id="XMLID_45_"></path>
                <g id="XMLID_36_" transform="translate(621.037037, 0.000000)">
                    <path d="M141.748148,116.622222 C117.57037,116.622222 94.8148148,122.785185 75.3777778,133.688889 L75.3777778,37.9259259 C75.3777778,17.5407407 59.2592593,1.42222222 38.8740741,1.42222222 C18.4888889,1.42222222 2.37037037,17.5407407 2.37037037,37.9259259 L2.37037037,350.814815 C2.37037037,371.2 18.4888889,387.318519 38.8740741,387.318519 C50.2518519,387.318519 60.6814815,382.103704 67.3185185,373.57037 C89.1259259,387.318519 114.251852,395.377778 141.748148,395.377778 C218.548148,395.377778 281.125926,332.8 281.125926,256 C281.125926,179.2 218.548148,116.622222 141.748148,116.622222 L141.748148,116.622222 Z M141.748148,322.37037 C105.244444,322.37037 75.3777778,292.503704 75.3777778,256 C75.3777778,219.496296 105.244444,189.62963 141.748148,189.62963 C178.251852,189.62963 208.118519,219.496296 208.118519,256 C208.592593,292.977778 178.725926,322.37037 141.748148,322.37037 L141.748148,322.37037 Z" id="XMLID_42_"></path>
                    <path d="M465.540741,119.940741 C382.577778,119.940741 326.637037,173.037037 326.637037,252.207407 L326.637037,359.348148 C326.637037,379.733333 342.755556,395.851852 363.140741,395.851852 C383.525926,395.851852 399.644444,379.733333 399.644444,359.348148 L399.644444,252.207407 C399.644444,225.185185 411.022222,192.948148 465.540741,192.948148 C485.925926,192.948148 502.044444,176.82963 502.044444,156.444444 C502.044444,136.059259 485.451852,119.940741 465.540741,119.940741 L465.540741,119.940741 Z" id="XMLID_41_"></path>
                    <path d="M586.42963,128.948148 C566.044444,128.948148 549.925926,145.066667 549.925926,165.451852 L549.925926,359.348148 C549.925926,379.733333 566.044444,395.851852 586.42963,395.851852 C606.814815,395.851852 622.933333,379.733333 622.933333,359.348148 L622.933333,165.451852 C622.933333,145.066667 606.814815,128.948148 586.42963,128.948148 L586.42963,128.948148 Z" id="XMLID_40_"></path>
                    <ellipse id="XMLID_39_" cx="586.42963" cy="57.362963" rx="39.3481481" ry="39.3481481"></ellipse>
                    <path d="M778.42963,209.066667 C769.896296,205.748148 764.681481,203.851852 762.785185,201.007407 C758.518519,196.266667 758.992593,188.681481 763.733333,184.414815 C768.474074,180.148148 776.059259,180.622222 780.325926,185.362963 C793.6,200.533333 816.82963,201.955556 832,188.681481 C847.17037,175.407407 848.592593,152.177778 835.318519,137.007407 C804.503704,101.925926 750.933333,98.1333333 715.851852,128.948148 C680.77037,159.762963 676.977778,213.333333 707.792593,248.414815 C722.014815,264.533333 738.607407,270.696296 751.881481,276.385185 C764.207407,281.125926 770.844444,283.97037 777.007407,291.081481 C781.274074,295.822222 783.17037,300.562963 783.17037,304.82963 C782.696296,309.096296 779.851852,313.362963 775.585185,317.62963 C771.792593,320.948148 767.051852,322.37037 761.837037,322.37037 C756.622222,321.896296 752.355556,320 749.037037,316.207407 C735.762963,301.037037 712.533333,299.614815 697.362963,312.888889 C682.192593,326.162963 680.77037,349.392593 694.044444,364.562963 C712.059259,385.422222 737.659259,395.851852 763.259259,395.851852 C784.592593,395.851852 806.4,388.266667 823.466667,373.096296 C841.955556,356.977778 853.333333,335.644444 855.703704,312.888889 C858.074074,288.711111 849.540741,264.059259 832,243.674074 C813.511111,222.814815 793.6,215.22963 778.42963,209.066667 L778.42963,209.066667 Z" id="XMLID_38_"></path>
                    <path d="M1049.12593,254.577778 L1126.4,177.303704 C1140.62222,163.081481 1140.62222,139.851852 1126.4,125.62963 C1112.17778,111.407407 1088.94815,111.407407 1074.72593,125.62963 L977.540741,222.814815 L977.540741,47.4074074 C977.540741,27.0222222 961.422222,10.9037037 941.037037,10.9037037 C920.651852,10.9037037 904.533333,27.0222222 904.533333,47.4074074 L904.533333,358.874074 C904.533333,379.259259 920.651852,395.377778 941.037037,395.377778 C961.422222,395.377778 977.540741,379.259259 977.540741,358.874074 L977.540741,286.340741 L1075.67407,384.474074 C1082.78519,391.585185 1092.26667,395.377778 1101.27407,395.377778 C1110.75556,395.377778 1119.76296,391.585185 1126.87407,384.474074 C1141.0963,370.251852 1141.0963,347.022222 1126.87407,332.8 L1049.12593,254.577778 L1049.12593,254.577778 Z" id="XMLID_37_"></path>
                </g>
            </g>
        </g>
    </g>
</svg>