<?xml version="1.0" encoding="utf-8"?>
<!-- Generator: Adobe Illustrator 15.0.0, SVG Export Plug-In . SVG Version: 6.00 Build 0)  -->
<!DOCTYPE svg PUBLIC "-//W3C//DTD SVG 1.1//EN" "http://www.w3.org/Graphics/SVG/1.1/DTD/svg11.dtd">
<svg version="1.1" id="Capa_1" xmlns="http://www.w3.org/2000/svg" xmlns:xlink="http://www.w3.org/1999/xlink" x="0px" y="0px"
	 width="829.008px" height="181.679px" viewBox="0 0 829.008 181.679" enable-background="new 0 0 829.008 181.679"
	 xml:space="preserve">
<g>
	<g>
		<path opacity="0.2" fill="#231F20" d="M163.6,124.847c-1.852,1.238-3.668,2.402-5.449,3.516c0.895-0.391,1.793-0.816,2.703-1.234
			C161.783,126.367,162.709,125.605,163.6,124.847 M155.893,131.117c1.59-1.266,3.125-2.496,4.629-3.719
			C159.025,128.621,157.482,129.851,155.893,131.117 M160.873,127.113l-0.02,0.016l-0.332,0.27L160.873,127.113 M39.217,101.253
			c2.328,0.469,4.586,1.117,6.773,1.965C43.803,102.371,41.545,101.722,39.217,101.253 M144.975,139.343
			c-16.137,9.148-29.496,14.039-40.078,14.656c-10.832,0.668-20.047-1.938-27.656-7.824c-3.688-2.848-7.227-6.172-10.625-9.984
			c-2.422-2.711-17.883-22.656-27.398-34.938c-5.02-0.996-10.379-1.121-16.09-0.355c-4.535,0.574-9.539,2.023-14.91,4.145
			l0.102,0.094l24.469,23.645c2.465,2.414,17.316,17.172,21.219,20.586c3.91,3.422,7.902,6.375,11.992,8.844
			c8.441,5.113,18.184,6.93,29.215,5.445c14.125-1.84,32.324-11.133,54.594-27.859C148.174,137.023,146.568,138.203,144.975,139.343
			 M149.807,135.796c1.816-1.367,3.559-2.707,5.266-4.047C153.373,133.089,151.623,134.429,149.807,135.796"/>
		<path opacity="0.4" fill="#231F20" d="M149.807,135.796c3.965-2.98,7.641-5.867,11.066-8.684c-0.918,0.434-1.824,0.848-2.723,1.25
			c-14.121,8.809-26.227,13.934-36.25,15.246c-11.027,1.473-20.77-0.344-29.207-5.441c-4.094-2.488-8.082-5.43-12.004-8.855
			c-3.895-3.414-24.258-20.508-28.355-22.992c-4.07-2.449-8.449-4.117-13.117-5.066c9.516,12.281,24.977,32.227,27.398,34.938
			c3.398,3.812,6.938,7.137,10.625,9.984c7.609,5.887,16.824,8.492,27.656,7.824c10.582-0.617,23.941-5.508,40.078-14.656
			C146.568,138.203,148.174,137.023,149.807,135.796"/>
		<path opacity="0.8" fill="#231F20" d="M172.658,121.41c-0.855,0.34-1.699,0.664-2.539,0.977c-3.188,1.746-6.273,3.32-9.246,4.727
			c-3.258,2.684-6.758,5.43-10.5,8.258c1.82-0.832,3.68-1.695,5.574-2.633c1.59-1.004,3.195-2.031,4.824-3.109
			C165.021,126.82,168.971,124.085,172.658,121.41 M121.9,143.609c10.023-1.312,22.125-6.434,36.246-15.246
			c-9.672,4.316-18.094,6.723-25.23,7.121c-10.832,0.672-20.043-1.938-27.652-7.812c-3.684-2.852-7.234-6.172-10.629-9.984
			c-3.402-3.812-37.719-44.594-41.406-47.434c-1.98-1.543-4.066-2.84-6.262-3.922c13.035,22.301,31.785,54.336,33.691,57.082
			c2.871,4.168,5.926,7.855,9.18,11.055c3.926,3.867,8.535,6.59,13.777,8.25C109.256,144.164,115.342,144.476,121.9,143.609"/>
		<path fill="#231F20" d="M187.658,114.593c-5.395,2.727-10.469,5.02-15.238,6.906l0.238-0.09c-3.688,2.676-7.637,5.41-11.887,8.219
			c-1.629,1.078-3.23,2.105-4.809,3.109c5.203-2.551,10.691-5.48,16.508-8.84C177.955,120.726,183.01,117.621,187.658,114.593
			 M160.873,127.113c2.973-1.406,6.059-2.98,9.246-4.727c0.25-0.094,0.504-0.191,0.742-0.293
			c-10.164,3.887-18.852,5.801-25.984,5.672c-10.547-0.133-19.172-3.523-25.895-10.117c-3.254-3.207-6.312-6.898-9.176-11.055
			c-2.879-4.164-49.051-78.816-52.305-82.027c-6.707-6.609-15.344-9.984-25.891-10.133c-4.332-0.074-9.297,0.664-14.738,2.066
			l0.074,0.105l17.508,28.383c0.91,1.5,12.645,21.605,24.074,41.105c-3.973-6.781-7.984-13.641-11.562-19.762
			c2.195,1.082,4.281,2.379,6.262,3.922c3.688,2.84,38.004,43.621,41.406,47.434c3.395,3.812,6.945,7.133,10.629,9.984
			c7.609,5.875,16.82,8.484,27.652,7.812c7.137-0.398,15.559-2.805,25.23-7.121c-14.121,8.812-26.223,13.934-36.246,15.246
			c-6.539,0.867-12.621,0.555-18.266-0.883c3.707,1.164,7.727,1.809,12.094,1.867c9.105,0.164,20.66-2.922,34.66-9.234
			C154.115,132.542,157.615,129.796,160.873,127.113"/>
		<path opacity="0.6" fill="#231F20" d="M39.275,101.269c2.309,0.469,4.551,1.102,6.715,1.949
			C43.826,102.382,41.584,101.738,39.275,101.269c-0.012,0-0.035,0-0.059-0.016C39.24,101.269,39.264,101.269,39.275,101.269
			 M28.85,62.324c-1.082,0-2.172,0.035-3.277,0.098c-4.453,0.266-9.453,1.359-14.883,3.125l0.086,0.098l21.07,26.121
			c0.609,0.77,3.504,4.5,7.371,9.488c4.668,0.949,9.047,2.617,13.117,5.066c4.098,2.484,24.461,19.578,28.355,22.992
			c3.922,3.426,7.91,6.367,12.004,8.855l0,0c0.016,0.012,0.051,0.016,0.062,0.035c0.012,0,0.023,0.004,0.027,0.016
			c0.004,0.008,0.023,0.008,0.039,0.016c3.391,2.043,7.012,3.539,10.836,4.5c0,0-0.008,0-0.008-0.008c-0.012,0-0.023,0-0.035-0.008
			l0,0c-5.242-1.66-9.852-4.383-13.777-8.25c-3.254-3.199-6.309-6.887-9.18-11.055c-1.906-2.746-20.656-34.781-33.691-57.082
			c3.578,6.121,7.59,12.98,11.562,19.762c-3.98-6.785-8.004-13.652-11.578-19.781C41.568,63.656,35.533,62.324,28.85,62.324"/>
		<path fill="#2F7FB7" d="M92.783,138.218c0.004,0.008,0.023,0.008,0.039,0.016C92.807,138.226,92.787,138.226,92.783,138.218
			 M92.693,138.167c0.016,0.012,0.051,0.016,0.062,0.035C92.744,138.183,92.709,138.179,92.693,138.167"/>
	</g>
	<g>
		<path fill="#231F20" d="M320.217,110.004c0,8.481-0.927,16.106-2.779,22.877c-1.854,6.771-4.527,12.544-8.018,17.317
			c-3.493,4.775-7.787,8.445-12.881,11.011c-5.096,2.565-10.887,3.849-17.371,3.849c-3.207,0-6.2-0.305-8.98-0.909
			c-2.779-0.606-5.435-1.585-7.964-2.939c-2.53-1.353-5.024-3.063-7.483-5.131c-2.458-2.066-4.971-4.561-7.537-7.483v10.369
			c0,0.785-0.197,1.443-0.588,1.978c-0.393,0.535-1.034,0.98-1.924,1.337c-0.892,0.355-2.084,0.604-3.581,0.748
			c-1.497,0.142-3.314,0.214-5.452,0.214c-2.21,0-4.045-0.072-5.505-0.214c-1.461-0.144-2.638-0.393-3.528-0.748
			c-0.892-0.356-1.515-0.802-1.871-1.337c-0.357-0.534-0.535-1.192-0.535-1.978V18.392c0-0.712,0.214-1.353,0.642-1.924
			c0.428-0.57,1.157-1.051,2.191-1.443c1.032-0.391,2.405-0.695,4.116-0.909s3.883-0.32,6.521-0.32c2.636,0,4.81,0.106,6.521,0.32
			s3.082,0.518,4.116,0.909c1.032,0.393,1.764,0.874,2.191,1.443c0.428,0.571,0.642,1.212,0.642,1.924v52.701
			c2.422-2.422,4.846-4.49,7.269-6.2c2.422-1.71,4.846-3.117,7.269-4.222c2.422-1.104,4.917-1.906,7.483-2.405
			c2.565-0.498,5.273-0.749,8.124-0.749c7.056,0,13.042,1.408,17.959,4.223c4.917,2.816,8.926,6.611,12.026,11.385
			c3.1,4.775,5.362,10.353,6.788,16.73C319.504,96.233,320.217,102.949,320.217,110.004z M292.316,111.928
			c0-4.062-0.304-7.98-0.909-11.759c-0.606-3.776-1.657-7.125-3.153-10.048c-1.497-2.921-3.439-5.255-5.826-7.002
			c-2.389-1.746-5.398-2.619-9.033-2.619c-1.782,0-3.527,0.25-5.238,0.749c-1.71,0.5-3.474,1.354-5.292,2.565
			c-1.817,1.213-3.688,2.779-5.612,4.704s-3.956,4.313-6.093,7.163v31.642c3.776,4.848,7.393,8.536,10.85,11.064
			c3.456,2.53,7.072,3.795,10.851,3.795c3.491,0,6.449-0.891,8.873-2.673c2.422-1.78,4.437-4.097,6.04-6.948
			c1.604-2.85,2.761-6.093,3.474-9.728C291.959,119.198,292.316,115.563,292.316,111.928z"/>
		<path fill="#231F20" d="M423.384,158.964c0,0.714-0.179,1.336-0.534,1.871c-0.357,0.534-0.98,0.98-1.871,1.336
			c-0.892,0.357-2.067,0.623-3.527,0.802c-1.462,0.177-3.297,0.268-5.505,0.268c-2.353,0-4.26-0.091-5.72-0.268
			c-1.461-0.179-2.619-0.444-3.475-0.802c-0.854-0.355-1.461-0.802-1.816-1.336c-0.357-0.535-0.535-1.157-0.535-1.871v-11.011
			c-5.274,5.703-10.637,9.979-16.088,12.828c-5.452,2.85-11.101,4.276-16.944,4.276c-6.558,0-12.063-1.069-16.516-3.207
			c-4.455-2.139-8.054-5.06-10.797-8.766c-2.744-3.705-4.704-7.999-5.879-12.882c-1.176-4.881-1.764-10.957-1.764-18.227V63.61
			c0-0.711,0.195-1.336,0.588-1.871c0.391-0.535,1.104-0.979,2.138-1.336c1.032-0.355,2.422-0.623,4.169-0.802
			c1.745-0.177,3.902-0.267,6.467-0.267c2.636,0,4.811,0.09,6.521,0.267c1.71,0.179,3.082,0.446,4.116,0.802
			c1.032,0.357,1.764,0.802,2.191,1.336c0.427,0.535,0.641,1.159,0.641,1.871v53.878c0,4.989,0.321,8.802,0.962,11.438
			c0.641,2.638,1.62,4.901,2.939,6.788c1.318,1.89,2.993,3.352,5.024,4.384c2.031,1.033,4.399,1.55,7.109,1.55
			c3.421,0,6.858-1.246,10.315-3.741c3.456-2.494,7.145-6.129,11.064-10.904V63.61c0-0.711,0.195-1.336,0.588-1.871
			c0.391-0.535,1.104-0.979,2.138-1.336c1.032-0.355,2.405-0.623,4.116-0.802c1.71-0.177,3.883-0.267,6.521-0.267
			c2.636,0,4.811,0.09,6.521,0.267c1.71,0.179,3.062,0.446,4.062,0.802c0.997,0.357,1.711,0.802,2.139,1.336
			c0.427,0.535,0.641,1.159,0.641,1.871V158.964z M383.403,16.788c0.498-0.784,1.104-1.46,1.817-2.031
			c0.712-0.57,1.604-1.016,2.673-1.336c1.068-0.32,2.422-0.551,4.062-0.695c1.639-0.142,3.635-0.214,5.987-0.214
			c3.276,0,5.86,0.144,7.75,0.428c1.888,0.286,3.242,0.695,4.062,1.229c0.819,0.534,1.193,1.159,1.123,1.871
			c-0.072,0.713-0.428,1.461-1.069,2.245l-20.738,24.801c-0.571,0.713-1.141,1.301-1.711,1.764c-0.57,0.464-1.301,0.838-2.191,1.123
			c-0.892,0.286-2.014,0.499-3.367,0.641c-1.354,0.144-3.064,0.214-5.131,0.214c-2.496,0-4.473-0.107-5.933-0.321
			c-1.461-0.214-2.477-0.551-3.046-1.016c-0.571-0.462-0.802-1.05-0.695-1.764c0.107-0.711,0.481-1.532,1.122-2.458L383.403,16.788z
			"/>
		<path fill="#231F20" d="M488.922,108.829c0,4.134-0.393,7.021-1.176,8.659c-0.785,1.64-2.031,2.458-3.741,2.458h-44.471
			c-1.782,0-3.064-0.837-3.848-2.512c-0.785-1.674-1.177-4.543-1.177-8.605c0-3.99,0.392-6.805,1.177-8.445
			c0.783-1.639,2.065-2.459,3.848-2.459h44.471c0.855,0,1.585,0.179,2.191,0.535c0.604,0.357,1.122,0.962,1.55,1.817
			c0.428,0.854,0.73,1.996,0.909,3.421C488.832,105.124,488.922,106.834,488.922,108.829z"/>
		<path fill="#231F20" d="M599.777,158.964c0,0.714-0.214,1.336-0.642,1.871c-0.428,0.534-1.141,0.98-2.138,1.336
			c-0.999,0.357-2.37,0.623-4.115,0.802c-1.747,0.177-3.902,0.268-6.468,0.268c-2.638,0-4.829-0.091-6.574-0.268
			c-1.747-0.179-3.119-0.444-4.116-0.802c-0.998-0.355-1.71-0.802-2.138-1.336c-0.428-0.535-0.642-1.157-0.642-1.871v-54.412
			c0-4.632-0.339-8.266-1.016-10.903c-0.678-2.636-1.656-4.899-2.939-6.788c-1.283-1.888-2.939-3.349-4.971-4.383
			c-2.031-1.032-4.401-1.55-7.109-1.55c-3.42,0-6.878,1.248-10.369,3.742c-3.492,2.495-7.127,6.13-10.903,10.903v63.392
			c0,0.714-0.214,1.336-0.642,1.871c-0.428,0.534-1.159,0.98-2.191,1.336c-1.034,0.357-2.405,0.623-4.115,0.802
			c-1.711,0.177-3.886,0.268-6.521,0.268c-2.637,0-4.811-0.091-6.521-0.268c-1.711-0.179-3.084-0.444-4.116-0.802
			c-1.033-0.355-1.764-0.802-2.191-1.336c-0.427-0.535-0.641-1.157-0.641-1.871V18.392c0-0.712,0.214-1.353,0.641-1.924
			c0.428-0.57,1.158-1.051,2.191-1.443c1.032-0.391,2.405-0.695,4.116-0.909c1.71-0.214,3.884-0.32,6.521-0.32
			c2.636,0,4.811,0.106,6.521,0.32c1.71,0.214,3.081,0.518,4.115,0.909c1.032,0.393,1.764,0.874,2.191,1.443
			c0.428,0.571,0.642,1.212,0.642,1.924v52.701c4.632-4.56,9.354-7.964,14.164-10.209c4.811-2.245,9.816-3.367,15.02-3.367
			c6.484,0,11.954,1.069,16.409,3.207c4.453,2.138,8.053,5.061,10.797,8.766c2.742,3.707,4.72,8.036,5.933,12.988
			c1.211,4.955,1.817,10.958,1.817,18.013V158.964z"/>
		<path fill="#231F20" d="M713.848,110.325c0,8.125-1.068,15.538-3.207,22.235c-2.138,6.7-5.381,12.473-9.728,17.318
			c-4.348,4.847-9.8,8.588-16.355,11.224c-6.558,2.636-14.218,3.956-22.983,3.956c-8.482,0-15.858-1.176-22.129-3.528
			c-6.271-2.352-11.475-5.772-15.606-10.262c-4.135-4.49-7.199-10.012-9.193-16.569c-1.996-6.557-2.993-14.039-2.993-22.449
			c0-8.125,1.085-15.554,3.26-22.289c2.173-6.735,5.434-12.507,9.781-17.318c4.347-4.811,9.781-8.534,16.303-11.171
			c6.521-2.636,14.164-3.956,22.93-3.956c8.552,0,15.963,1.159,22.235,3.474c6.271,2.317,11.455,5.719,15.554,10.209
			c4.098,4.49,7.144,10.014,9.14,16.57C712.85,94.327,713.848,101.845,713.848,110.325z M686.161,111.394
			c0-4.703-0.374-9.033-1.123-12.988c-0.748-3.955-2.014-7.393-3.795-10.316c-1.782-2.921-4.152-5.201-7.108-6.841
			c-2.958-1.639-6.682-2.459-11.171-2.459c-3.992,0-7.483,0.732-10.477,2.191c-2.993,1.462-5.451,3.6-7.376,6.414
			c-1.924,2.816-3.367,6.2-4.329,10.155c-0.962,3.956-1.443,8.464-1.443,13.523c0,4.703,0.391,9.033,1.176,12.988
			c0.783,3.955,2.048,7.395,3.795,10.315c1.746,2.923,4.116,5.185,7.109,6.788s6.697,2.405,11.117,2.405
			c4.062,0,7.59-0.729,10.583-2.191c2.993-1.46,5.452-3.581,7.376-6.36c1.925-2.779,3.35-6.146,4.276-10.103
			C685.696,120.961,686.161,116.456,686.161,111.394z"/>
	</g>
</g>
<g>
	<path fill="#231F20" d="M724.065,156.238h2.681v7.289h-2.681V156.238z"/>
	<path fill="#231F20" d="M758.333,164.7c-11.144,0-18.434-8.546-18.434-22.79c0-14.243,7.29-22.789,18.434-22.789
		c11.227,0,18.265,7.792,18.265,21.365c0,0.503,0,1.005,0,1.592h-33.933c0,0.251,0,0.419,0,0.67
		c0,12.065,6.619,19.606,15.668,19.606c7.121,0,12.819-4.357,14.83-11.562h2.597C773.833,159.253,766.963,164.7,758.333,164.7z
		 M773.749,139.648c0-11.312-6.284-18.182-14.914-18.182c-9.132,0-15.416,6.787-16.087,18.182H773.749z"/>
	<path fill="#231F20" d="M800.811,162.186c7.792,0,12.819-3.938,12.819-9.887c0-4.356-2.766-6.786-8.63-8.378
		c-7.038-1.844-12.484-3.017-16.004-5.781c-2.262-1.76-3.519-4.441-3.519-7.541c0-6.535,5.781-11.479,14.914-11.479
		c8.295,0,13.908,4.775,14.662,12.483h-2.597c-0.922-6.619-5.279-10.138-12.4-10.138c-7.122,0-11.814,3.771-11.814,8.798
		c0,6.619,5.279,7.792,14.16,10.138c9.384,2.43,13.992,4.943,13.992,11.981s-6.368,12.316-15.5,12.316
		c-9.636,0-15.752-5.194-16.674-14.076h2.682C788.326,158.249,793.103,162.186,800.811,162.186z"/>
</g>
</svg>
