<?xml version="1.0" encoding="iso-8859-1"?><!-- Generator: Adobe Illustrator 16.0.0, SVG Export Plug-In . SVG Version: 6.00 Build 0) --><!DOCTYPE svg PUBLIC "-//W3C//DTD SVG 1.1//EN" "http://www.w3.org/Graphics/SVG/1.1/DTD/svg11.dtd"><svg version="1.1" id="svg2" xmlns:inkscape="http://www.inkscape.org/namespaces/inkscape" xmlns:svg="http://www.w3.org/2000/svg" xmlns:rdf="http://www.w3.org/1999/02/22-rdf-syntax-ns#" xmlns:cc="http://creativecommons.org/ns#" xmlns:dc="http://purl.org/dc/elements/1.1/" xmlns="http://www.w3.org/2000/svg" xmlns:xlink="http://www.w3.org/1999/xlink" x="0px" y="0px" width="786.568px" height="316.223px" viewBox="0 0 786.568 316.223" style="enable-background:new 0 0 786.568 316.223;" xml:space="preserve"><path id="path22" inkscape:connector-curvature="0" style="fill:#19636A;" d="M60.825,66.688c-3.618-2.585-7.582-3.792-14.302-4.137	c-3.102-0.172-4.824-0.172-7.409-0.172c-0.689,0-1.033,0.345-1.033,1.206v40.837c0,11.373,0.517,14.303,6.03,16.542	c4.652,1.896,8.615,2.068,12.578,2.068c7.755,0,20.85-4.137,20.85-22.057C77.539,90.292,73.921,75.819,60.825,66.688z M38.081,52.903c0,1.379,0.517,1.723,1.206,1.895c1.551,0.346,4.135,0.517,8.099,0.517c5.686,0,9.477-0.688,12.405-3.273	c4.48-3.619,7.065-9.821,7.065-18.264c0-11.546-6.72-26.709-21.539-26.709c-2.412,0-3.963,0-5.686,0.345	c-1.207,0.345-1.551,1.034-1.551,2.929V52.903z M17.403,49.973c0-26.191,0-31.016-0.345-36.53c-0.345-5.857-1.723-8.615-7.409-9.821	c-1.378-0.344-4.308-0.517-6.72-0.517C1.034,3.105,0,2.76,0,1.554s1.206-1.55,3.791-1.552c9.132,0,19.988,0.518,23.434,0.518	c8.443,0,15.164-0.518,21.022-0.516c31.188,0,36.702,16.713,36.702,25.846c0,14.129-8.099,22.571-17.576,30.154	c14.13,4.823,31.36,17.059,31.36,37.219c0,18.438-14.302,37.563-46.007,37.563c-2.067,0-7.064-0.345-12.062-0.518	c-5.169-0.344-10.338-0.517-12.923-0.517c-1.896,0-5.687,0-9.822,0.173c-3.963,0-8.442,0.344-11.889,0.344	c-2.24,0-3.447-0.517-3.447-1.723c0-0.861,0.69-1.379,2.758-1.379c2.584,0,4.652-0.344,6.203-0.688	c3.446-0.69,4.308-4.48,4.997-9.478c0.861-7.236,0.861-20.85,0.861-36.702V49.973"/><path id="path24" inkscape:connector-curvature="0" style="fill:#19636A;" d="M121.988,61.863c0-22.228,0.173-26.364-0.172-31.017	c-0.345-5.169-1.723-6.547-6.548-7.926c-1.206-0.346-3.791-0.517-5.858-0.517c-1.724,0-2.584-0.518-2.584-1.551	c0-1.034,1.033-1.379,3.273-1.379c8.099,0,18.265,0.345,22.744,0.345c3.792,0,13.958-0.345,19.472-0.345	c2.24,0,3.273,0.345,3.273,1.379c0,1.033-0.861,1.551-2.411,1.551c-1.724,0-2.585,0.172-4.479,0.517	c-3.964,0.689-5.17,2.757-5.516,7.926c-0.344,4.652-0.344,8.789-0.344,31.017v20.505c0,21.366,4.135,29.637,11.544,35.495	c6.72,5.343,13.958,5.858,19.128,5.858c6.546,0,14.301-1.895,20.331-7.754c8.443-7.926,8.788-20.677,8.788-35.668V61.863	c0-22.228-0.172-26.364-0.345-31.017c-0.345-4.996-1.551-6.547-6.375-7.926c-1.206-0.346-3.791-0.517-5.515-0.517	c-1.723,0-2.584-0.518-2.584-1.551c0-1.034,1.034-1.379,3.102-1.379c7.754,0,17.92,0.345,18.092,0.345	c1.725,0,11.891-0.345,17.748-0.345c2.068,0,3.103,0.345,3.103,1.379c0,1.033-0.862,1.551-2.585,1.551s-2.585,0.172-4.48,0.517	c-4.136,0.689-5.168,2.757-5.514,7.926c-0.172,4.652-0.345,8.789-0.345,31.017v15.68c0,16.369-1.723,33.601-14.474,44.111	c-10.684,8.96-22.228,10.51-32.05,10.51c-7.927,0-23.606-0.344-34.634-9.993c-7.754-6.721-13.786-17.575-13.786-38.769V61.863"/><path id="path26" inkscape:connector-curvature="0" style="fill:#19636A;" d="M243.979,128.373	c-2.413-1.033-2.929-1.724-2.929-4.997c0-7.927,0.688-17.058,0.86-19.47c0-2.24,0.689-3.792,1.896-3.792	c1.379,0,1.551,1.379,1.551,2.413c0,1.895,0.517,4.996,1.379,7.581c3.274,10.855,14.646,14.475,24.124,14.475	c13.095,0,21.021-8.271,21.021-18.609c0-6.376-1.552-12.751-14.991-20.678l-8.788-5.17c-17.92-10.51-23.778-20.333-23.778-33.255	c0-17.92,17.231-29.465,38.252-29.465c9.821,0,17.577,1.379,21.539,2.412c1.379,0.344,2.067,0.861,2.067,1.896	c0,1.896-0.516,6.031-0.516,17.576c0,3.101-0.69,4.651-1.896,4.651c-1.034,0-1.55-0.861-1.55-2.584c0-1.379-0.69-5.859-3.964-9.65	c-2.24-2.756-7.063-6.891-16.887-6.891c-10.854,0-20.677,5.685-20.677,15.679c0,6.549,2.412,11.717,16.024,19.299l6.204,3.445	c19.987,11.029,26.191,22.229,26.191,35.497c0,10.854-4.137,19.644-15.164,27.397c-7.237,5.17-17.231,6.029-25.329,6.029	C259.832,132.163,250.526,131.304,243.979,128.373"/><path id="path28" inkscape:connector-curvature="0" style="fill:#19636A;" d="M334.611,61.863c0-22.228,0-26.364-0.171-31.017	c-0.345-4.996-1.896-6.72-5.17-7.754c-1.723-0.518-3.619-0.688-5.514-0.688c-1.55,0-2.413-0.345-2.413-1.724	c0-0.861,1.206-1.206,3.619-1.206c5.687,0,16.024,0.345,20.332,0.345c3.792,0,13.613-0.345,19.472-0.345	c1.895,0,3.102,0.345,3.102,1.206c0,1.379-0.861,1.724-2.413,1.724c-1.55,0-2.756,0.171-4.479,0.517	c-4.136,0.689-5.342,2.757-5.687,7.926c-0.344,4.652-0.344,8.789-0.344,31.017v25.846c0,14.129,0,25.847,0.688,32.051	c0.517,3.962,1.552,6.202,6.031,6.891c2.067,0.346,5.514,0.518,7.754,0.518c1.723,0,2.412,0.861,2.412,1.552	c0,1.033-1.206,1.55-2.93,1.55c-9.993,0-20.332-0.517-24.468-0.517c-3.446,0-13.784,0.517-19.815,0.517	c-1.896,0-2.929-0.517-2.929-1.55c0-0.69,0.517-1.552,2.412-1.552c2.24,0,3.963-0.172,5.341-0.518	c3.102-0.688,3.964-2.756,4.48-7.063c0.688-6.031,0.688-17.749,0.688-31.878V61.863"/><path id="path30" inkscape:connector-curvature="0" style="fill:#19636A;" d="M406.98,110.281	c0.344,11.372,2.24,14.818,5.169,15.853c2.585,0.861,5.514,1.033,7.926,1.033c1.723,0,2.585,0.69,2.585,1.552	c0,1.206-1.379,1.55-3.446,1.55c-9.821,0-16.888-0.517-19.644-0.517c-1.378,0-8.615,0.517-16.369,0.517	c-2.068,0-3.446-0.171-3.446-1.55c0-0.861,1.034-1.552,2.412-1.552c2.068,0,4.824-0.172,6.894-0.688	c3.962-1.034,4.479-4.998,4.651-17.749l1.379-86.844c0-2.929,1.033-4.997,2.585-4.997c1.895,0,3.963,2.24,6.547,4.825	c1.896,1.896,24.641,25.157,46.695,46.696c10.34,10.166,30.5,30.844,32.74,32.911h0.689l-1.553-65.134	c-0.17-8.96-1.549-11.545-5.166-12.923c-2.24-0.861-5.861-0.861-7.928-0.861c-1.895,0-2.413-0.689-2.413-1.551	c0-1.206,1.551-1.379,3.791-1.379c7.927,0,16.025,0.345,19.3,0.345c1.723,0,7.408-0.345,14.818-0.345	c2.068,0,3.445,0.172,3.445,1.379c0,0.861-0.861,1.551-2.584,1.551c-1.552,0-2.757,0-4.653,0.517	c-4.136,1.206-5.341,3.791-5.514,12.062l-1.723,92.358c0,3.273-1.206,4.652-2.413,4.652c-2.584,0-4.651-1.551-6.203-3.103	c-9.478-8.787-28.432-26.879-44.282-42.215c-16.542-15.853-32.567-33.602-35.498-36.186h-0.516L406.98,110.281"/><path id="path32" inkscape:connector-curvature="0" style="fill:#19636A;" d="M535.173,61.863c0-22.228,0-26.364-0.174-31.017	c-0.344-4.996-1.722-6.547-6.548-7.926c-1.205-0.346-3.789-0.517-6.029-0.517c-1.552,0-2.585-0.518-2.585-1.551	c0-1.034,1.206-1.379,3.446-1.379c7.926,0,17.576,0.345,21.883,0.345c4.824,0,38.424,0.171,41.354,0	c2.757-0.173,5.17-0.689,6.375-0.861c0.862-0.172,1.723-0.689,2.412-0.689c0.862,0,1.034,0.689,1.034,1.378	c0,1.034-0.861,2.758-1.207,9.478c-0.171,1.551-0.517,7.927-0.86,9.649c-0.173,0.688-0.517,2.412-1.723,2.412	c-1.034,0-1.208-0.689-1.208-1.895c0-1.034-0.171-3.619-1.032-5.343c-1.208-2.584-2.413-4.651-9.995-5.341	c-2.584-0.346-20.676-0.689-23.778-0.689c-0.688,0-1.034,0.517-1.034,1.379V65.48c0,0.862,0.173,1.552,1.034,1.552	c3.446,0,23.09,0,26.536-0.344c3.619-0.346,5.858-0.69,7.237-2.24c1.206-1.035,1.723-1.896,2.413-1.896	c0.688,0,1.206,0.689,1.206,1.552c0,0.861-0.347,3.273-1.206,10.683c-0.347,2.93-0.69,8.788-0.69,9.821	c0,1.206-0.173,3.274-1.55,3.274c-1.034,0-1.381-0.518-1.381-1.206c-0.171-1.552-0.171-3.446-0.516-5.343	c-0.861-2.929-2.758-5.169-8.443-5.685c-2.757-0.346-19.988-0.69-23.777-0.69c-0.69,0-0.863,0.69-0.863,1.552v11.717	c0,4.997-0.171,17.403,0,21.71c0.346,9.994,4.996,12.234,20.506,12.234c3.963,0,10.338-0.172,14.302-1.896	c3.79-1.723,5.513-4.824,6.546-10.854c0.347-1.552,0.69-2.24,1.725-2.24c1.206,0,1.379,1.896,1.379,3.445	c0,3.274-1.207,13.269-2.069,16.198c-1.034,3.79-2.411,3.79-8.098,3.79c-11.372,0-20.505-0.172-27.913-0.516	c-7.41-0.173-13.097-0.346-17.576-0.346c-1.725,0-4.998,0.173-8.615,0.173c-3.619,0.173-7.41,0.344-10.512,0.344	c-1.895,0-2.929-0.517-2.929-1.55c0-0.69,0.517-1.552,2.413-1.552c2.239,0,3.962-0.172,5.341-0.518	c3.102-0.688,3.962-3.444,4.479-7.754c0.69-6.202,0.69-17.747,0.69-31.188V61.863"/><path id="path34" inkscape:connector-curvature="0" style="fill:#19636A;" d="M618.909,128.373c-2.412-1.033-2.93-1.724-2.93-4.997	c0-7.927,0.689-17.058,0.862-19.47c0-2.24,0.688-3.792,1.895-3.792c1.379,0,1.551,1.379,1.551,2.413c0,1.895,0.519,4.996,1.38,7.581	c3.272,10.855,14.646,14.475,24.122,14.475c13.096,0,21.021-8.271,21.021-18.609c0-6.376-1.55-12.751-14.99-20.678l-8.787-5.17	c-17.92-10.51-23.78-20.333-23.78-33.255c0-17.92,17.232-29.465,38.254-29.465c9.821,0,17.575,1.379,21.538,2.412	c1.379,0.344,2.068,0.861,2.068,1.896c0,1.896-0.517,6.031-0.517,17.576c0,3.101-0.69,4.651-1.896,4.651	c-1.033,0-1.55-0.861-1.55-2.584c0-1.379-0.689-5.859-3.964-9.65c-2.239-2.756-7.064-6.891-16.886-6.891	c-10.856,0-20.678,5.685-20.678,15.679c0,6.549,2.412,11.717,16.025,19.299l6.202,3.445c19.989,11.029,26.191,22.229,26.191,35.497	c0,10.854-4.136,19.644-15.163,27.397c-7.237,5.17-17.23,6.029-25.33,6.029C634.761,132.163,625.457,131.304,618.909,128.373"/><path id="path36" inkscape:connector-curvature="0" style="fill:#19636A;" d="M704.716,128.373	c-2.411-1.033-2.929-1.724-2.929-4.997c0-7.927,0.688-17.058,0.861-19.47c0-2.24,0.689-3.792,1.896-3.792	c1.378,0,1.55,1.379,1.55,2.413c0,1.895,0.518,4.996,1.379,7.581c3.273,10.855,14.646,14.475,24.123,14.475	c13.096,0,21.022-8.271,21.022-18.609c0-6.376-1.55-12.751-14.99-20.678l-8.788-5.17c-17.921-10.51-23.779-20.333-23.779-33.255	c0-17.92,17.231-29.465,38.252-29.465c9.823,0,17.576,1.379,21.541,2.412c1.377,0.344,2.065,0.861,2.065,1.896	c0,1.896-0.517,6.031-0.517,17.576c0,3.101-0.689,4.651-1.896,4.651c-1.034,0-1.55-0.861-1.55-2.584c0-1.379-0.69-5.859-3.964-9.65	c-2.24-2.756-7.063-6.891-16.886-6.891c-10.855,0-20.677,5.685-20.677,15.679c0,6.549,2.411,11.717,16.024,19.299l6.203,3.445	c19.987,11.029,26.191,22.229,26.191,35.497c0,10.854-4.137,19.644-15.164,27.397c-7.236,5.17-17.23,6.029-25.33,6.029	C720.568,132.163,711.263,131.304,704.716,128.373"/><path id="path38" inkscape:connector-curvature="0" style="fill:#19636A;" d="M24.465,234.033c0-26.192,0-31.016-0.345-36.529	c-0.345-5.86-2.068-8.788-5.858-9.65c-1.896-0.518-4.136-0.69-6.203-0.69c-1.724,0-2.757-0.344-2.757-1.721	c0-1.035,1.378-1.38,4.135-1.38c6.548,0,17.403,0.518,22.4,0.518c4.308,0,14.474-0.518,21.021-0.518c2.24,0,3.619,0.345,3.619,1.38	c0,1.377-1.034,1.721-2.757,1.721c-1.724,0-3.102,0.173-5.17,0.52c-4.652,0.859-6.031,3.79-6.375,9.821	c-0.345,5.514-0.345,10.337-0.345,36.529v30.325c0,16.714,0,30.328,0.688,37.736c0.518,4.652,1.724,7.753,6.894,8.443	c2.412,0.344,6.203,0.688,8.787,0.688c1.896,0,2.757,0.518,2.757,1.379c0,1.206-1.378,1.723-3.273,1.723	c-11.373,0-22.228-0.517-26.881-0.517c-3.963,0-14.818,0.517-21.711,0.517c-2.239,0-3.446-0.517-3.446-1.723	c0-0.861,0.689-1.379,2.757-1.379c2.585,0,4.653-0.345,6.204-0.688c3.445-0.69,4.479-3.619,4.997-8.616	c0.861-7.235,0.861-20.85,0.861-37.563V234.033"/><path id="path40" inkscape:connector-curvature="0" style="fill:#19636A;" d="M112.168,294.341	c0.345,11.372,2.24,14.818,5.17,15.853c2.584,0.861,5.514,1.033,7.926,1.033c1.723,0,2.585,0.689,2.585,1.552	c0,1.206-1.378,1.55-3.446,1.55c-9.821,0-16.886-0.517-19.644-0.517c-1.378,0-8.615,0.517-16.369,0.517	c-2.068,0-3.446-0.173-3.446-1.55c0-0.862,1.034-1.552,2.412-1.552c2.068,0,4.825-0.172,6.893-0.688	c3.963-1.034,4.48-4.996,4.652-17.748l1.379-86.844c0-2.929,1.033-4.996,2.584-4.996c1.896,0,3.963,2.239,6.548,4.823	c1.896,1.896,24.641,25.157,46.696,46.696c10.339,10.166,30.499,30.843,32.739,32.911h0.688l-1.55-65.134	c-0.173-8.96-1.551-11.544-5.17-12.924c-2.24-0.859-5.858-0.859-7.927-0.859c-1.895,0-2.412-0.69-2.412-1.552	c0-1.206,1.552-1.379,3.791-1.379c7.927,0,16.025,0.346,19.299,0.346c1.724,0,7.409-0.346,14.82-0.346	c2.067,0,3.445,0.173,3.445,1.379c0,0.861-0.862,1.552-2.585,1.552c-1.552,0-2.757,0-4.653,0.516	c-4.135,1.207-5.341,3.792-5.514,12.062l-1.724,92.358c0,3.273-1.205,4.652-2.411,4.652c-2.585,0-4.652-1.55-6.204-3.103	c-9.476-8.787-28.431-26.879-44.283-42.215c-16.541-15.852-32.566-33.601-35.496-36.185h-0.517L112.168,294.341"/><path id="path42" inkscape:connector-curvature="0" style="fill:#19636A;" d="M246.562,312.434	c-2.411-1.034-2.929-1.725-2.929-4.998c0-7.926,0.689-17.057,0.861-19.47c0-2.239,0.689-3.791,1.896-3.791	c1.378,0,1.551,1.378,1.551,2.412c0,1.896,0.517,4.998,1.378,7.582c3.273,10.855,14.646,14.473,24.124,14.473	c13.095,0,21.021-8.27,21.021-18.609c0-6.374-1.551-12.75-14.99-20.676l-8.789-5.169c-17.92-10.513-23.778-20.333-23.778-33.257	c0-17.92,17.23-29.465,38.252-29.465c9.822,0,17.576,1.378,21.539,2.413c1.379,0.345,2.068,0.861,2.068,1.895	c0,1.896-0.518,6.03-0.518,17.576c0,3.102-0.688,4.651-1.896,4.651c-1.033,0-1.551-0.861-1.551-2.584	c0-1.378-0.688-5.857-3.963-9.649c-2.24-2.757-7.064-6.892-16.886-6.892c-10.855,0-20.677,5.686-20.677,15.68	c0,6.548,2.412,11.718,16.023,19.299l6.204,3.446c19.988,11.027,26.19,22.228,26.19,35.495c0,10.856-4.135,19.644-15.162,27.397	c-7.237,5.169-17.232,6.031-25.33,6.031C262.417,316.225,253.111,315.363,246.562,312.434"/><path id="path44" inkscape:connector-curvature="0" style="fill:#19636A;" d="M351.669,245.921c0-22.228,0-26.361-0.171-31.015	c-0.345-4.996-1.896-6.72-5.17-7.754c-1.723-0.517-3.619-0.688-5.514-0.688c-1.552,0-2.413-0.346-2.413-1.724	c0-0.861,1.206-1.207,3.619-1.207c5.687,0,16.024,0.346,20.332,0.346c3.792,0,13.612-0.346,19.472-0.346	c1.895,0,3.102,0.346,3.102,1.207c0,1.378-0.861,1.724-2.413,1.724c-1.55,0-2.756,0.172-4.479,0.516	c-4.136,0.69-5.342,2.758-5.687,7.927c-0.344,4.653-0.344,8.787-0.344,31.015v25.848c0,14.13,0,25.847,0.688,32.05	c0.517,3.964,1.552,6.203,6.031,6.891c2.067,0.346,5.514,0.518,7.754,0.518c1.723,0,2.411,0.861,2.411,1.552	c0,1.033-1.205,1.55-2.929,1.55c-9.994,0-20.332-0.517-24.468-0.517c-3.446,0-13.784,0.517-19.815,0.517	c-1.896,0-2.93-0.517-2.93-1.55c0-0.69,0.517-1.552,2.413-1.552c2.24,0,3.962-0.172,5.341-0.518c3.102-0.688,3.964-2.756,4.48-7.063	c0.688-6.03,0.688-17.747,0.688-31.877V245.921"/><path id="path46" inkscape:connector-curvature="0" style="fill:#19636A;" d="M449.367,262.118c0,15.509,0.172,26.709,0.345,29.638	c0.171,3.619,0.519,8.788,1.723,10.339c1.896,2.757,7.926,5.858,19.815,5.858c13.784,0,23.951-2.411,33.084-9.994	c9.821-8.098,12.924-21.194,12.924-36.356c0-18.609-7.41-30.672-14.13-36.529c-13.958-12.407-30.499-13.957-42.388-13.957	c-3.104,0-8.1,0.344-9.306,1.033c-1.378,0.517-1.896,1.207-1.896,2.929c-0.172,4.998-0.172,17.06-0.172,28.603V262.118z M429.035,245.921c0-22.228,0-26.361-0.174-31.015c-0.345-4.996-1.723-6.548-6.547-7.927c-1.207-0.344-3.792-0.516-6.031-0.516	c-1.551,0-2.584-0.518-2.584-1.552c0-1.033,1.206-1.379,3.446-1.379c7.927,0,17.575,0.346,21.884,0.346	c4.651,0,15.508-0.346,24.641-0.346c18.953,0,44.454,0,60.996,16.714c7.582,7.583,14.302,19.816,14.302,37.221	c0,18.438-7.926,32.394-16.542,40.837c-6.892,6.891-22.918,17.23-50.832,17.23c-5.514,0-12.061-0.517-18.091-0.862	c-6.031-0.518-11.546-0.861-15.336-0.861c-1.724,0-4.998,0.173-8.615,0.173c-3.618,0.171-7.41,0.344-10.513,0.344	c-1.894,0-2.928-0.517-2.928-1.55c0-0.69,0.517-1.552,2.411-1.552c2.24,0,3.964-0.172,5.343-0.518	c3.102-0.688,3.963-3.444,4.48-7.753c0.689-6.202,0.689-17.747,0.689-31.188V245.921"/><path id="path48" inkscape:connector-curvature="0" style="fill:#19636A;" d="M577.731,245.921c0-22.228,0-26.361-0.172-31.015	c-0.345-4.996-1.722-6.548-6.548-7.927c-1.205-0.344-3.791-0.516-6.031-0.516c-1.549,0-2.584-0.518-2.584-1.552	c0-1.033,1.207-1.379,3.446-1.379c7.927,0,17.575,0.346,21.884,0.346c4.824,0,38.424,0.171,41.354,0	c2.758-0.173,5.169-0.689,6.375-0.861c0.863-0.174,1.723-0.69,2.413-0.69c0.861,0,1.034,0.69,1.034,1.379	c0,1.034-0.861,2.758-1.207,9.478c-0.171,1.55-0.518,7.926-0.861,9.648c-0.172,0.689-0.516,2.413-1.723,2.413	c-1.033,0-1.207-0.689-1.207-1.896c0-1.033-0.173-3.618-1.033-5.342c-1.207-2.584-2.413-4.651-9.994-5.342	c-2.585-0.345-20.677-0.688-23.779-0.688c-0.688,0-1.033,0.516-1.033,1.379v36.185c0,0.861,0.172,1.55,1.033,1.55	c3.446,0,23.09,0,26.537-0.344c3.617-0.345,5.857-0.689,7.236-2.239c1.207-1.034,1.723-1.896,2.414-1.896	c0.688,0,1.205,0.689,1.205,1.55c0,0.862-0.346,3.273-1.205,10.684c-0.348,2.93-0.691,8.788-0.691,9.822	c0,1.205-0.172,3.274-1.549,3.274c-1.035,0-1.381-0.517-1.381-1.207c-0.172-1.55-0.172-3.445-0.516-5.341	c-0.861-2.93-2.758-5.17-8.443-5.687c-2.756-0.345-19.988-0.689-23.777-0.689c-0.691,0-0.863,0.689-0.863,1.551v11.717	c0,4.997-0.172,17.403,0,21.711c0.346,9.993,4.996,12.233,20.506,12.233c3.961,0,10.338-0.172,14.301-1.896	c3.791-1.721,5.516-4.824,6.547-10.854c0.346-1.551,0.689-2.239,1.725-2.239c1.205,0,1.379,1.895,1.379,3.446	c0,3.271-1.207,13.266-2.07,16.194c-1.033,3.791-2.41,3.791-8.096,3.791c-11.373,0-20.506-0.171-27.914-0.518	c-7.41-0.171-13.098-0.344-17.576-0.344c-1.725,0-4.998,0.173-8.615,0.173c-3.618,0.171-7.409,0.344-10.514,0.344	c-1.893,0-2.926-0.517-2.926-1.55c0-0.69,0.516-1.552,2.41-1.552c2.24,0,3.965-0.172,5.342-0.518	c3.102-0.688,3.963-3.444,4.48-7.753c0.689-6.201,0.689-17.746,0.689-31.187L577.731,245.921"/><path id="path50" inkscape:connector-curvature="0" style="fill:#19636A;" d="M700.069,257.295c0,1.55,0.344,2.067,1.378,2.584	c3.273,1.035,7.753,1.379,11.546,1.379c6.03,0,8.097-0.517,10.681-2.413c4.654-3.273,9.823-9.649,9.823-21.711	c0-20.677-14.13-26.018-23.091-26.018c-3.789,0-7.408,0.171-8.959,0.517c-1.034,0.345-1.378,0.86-1.378,2.067V257.295z M680.77,245.921c0-22.228,0-26.361-0.173-31.015c-0.345-4.996-1.723-6.548-6.549-7.927c-1.206-0.344-3.789-0.516-6.029-0.516	c-1.551,0-2.584-0.518-2.584-1.552c0-1.033,1.206-1.379,3.445-1.379c7.926,0,17.576,0.346,20.677,0.346	c5.169,0,18.955-0.346,23.606-0.346c9.65,0,20.678,0.863,28.776,6.204c4.308,2.929,10.684,10.339,10.684,20.16	c0,10.856-6.204,20.505-21.022,32.394c13.44,16.541,24.123,29.811,33.256,38.942c8.443,8.442,13.784,9.132,16.197,9.648	c1.551,0.345,2.412,0.345,3.618,0.345s1.896,0.861,1.896,1.552c0,1.206-1.034,1.55-2.93,1.55h-14.473	c-8.444,0-12.579-0.861-16.542-2.929c-6.549-3.273-12.233-10.166-20.677-21.538c-6.033-7.927-12.406-17.749-14.303-19.989	c-0.861-0.861-1.725-1.033-2.758-1.033l-13.611-0.344c-0.689,0-1.206,0.344-1.206,1.206v2.067c0,13.612,0.171,24.985,0.861,31.188	c0.517,4.309,1.206,7.065,5.858,7.753c2.24,0.346,5.514,0.518,7.409,0.518c1.206,0,1.896,0.861,1.896,1.552	c0,1.033-1.207,1.55-3.101,1.55c-8.789,0-21.368-0.517-23.607-0.517c-2.929,0-12.579,0.517-18.61,0.517	c-1.895,0-2.929-0.517-2.929-1.55c0-0.69,0.517-1.552,2.413-1.552c2.239,0,3.963-0.172,5.341-0.518	c3.103-0.688,3.962-3.444,4.479-7.753c0.69-6.202,0.69-17.747,0.69-31.188V245.921"/></svg>
