<?xml version="1.0" encoding="iso-8859-1"?><!-- Generator: Adobe Illustrator 16.0.0, SVG Export Plug-In . SVG Version: 6.00 Build 0) --><!DOCTYPE svg PUBLIC "-//W3C//DTD SVG 1.1//EN" "http://www.w3.org/Graphics/SVG/1.1/DTD/svg11.dtd"><svg version="1.1" id="Layer_1" xmlns="http://www.w3.org/2000/svg" xmlns:xlink="http://www.w3.org/1999/xlink" x="0px" y="0px" width="192.756px" height="192.756px" viewBox="0 0 192.756 192.756" style="enable-background:new 0 0 192.756 192.756;" xml:space="preserve"><g><polygon style="fill-rule:evenodd;clip-rule:evenodd;fill:#FFFFFF;" points="0,0 192.756,0 192.756,192.756 0,192.756 0,0	"/><polygon style="fill-rule:evenodd;clip-rule:evenodd;fill:#37388E;" points="2.834,119.464 189.916,119.464 189.916,117.947	2.834,117.92 2.834,119.464 2.834,119.464	"/><path style="fill-rule:evenodd;clip-rule:evenodd;fill:#37388E;" d="M149.586,93.253c-0.113-0.393-0.301-0.792-0.594-1.172	c-0.357-0.444-0.727-0.762-1.135-1.026c-1.049-0.66-2.195-0.753-3.33-0.543c-0.561,0.103-1.197,0.35-1.848,0.73	c-0.326,0.193-0.639,0.414-0.928,0.658c-0.291,0.245-0.562,0.514-0.809,0.803c-0.666,0.754-1.053,1.548-1.281,2.408	c-0.258,1.098-0.367,2.108-0.021,3.222c0.094,0.279,0.223,0.548,0.381,0.797c0.158,0.25,0.346,0.479,0.559,0.686	c0.668-0.335,1.355-0.59,2.047-0.772c0.354-0.094,0.713-0.169,1.299-0.256c0.586-0.086,1.398-0.185,2.215-0.248	c0.777-0.061,1.559-0.088,2.338-0.086c0.342-0.428,0.641-0.911,0.859-1.432C149.824,95.865,149.928,94.52,149.586,93.253	L149.586,93.253L149.586,93.253L149.586,93.253z"/><path style="fill-rule:evenodd;clip-rule:evenodd;fill:#37388E;" d="M127.004,87.954l-0.367,1.215l0,0	c0.123-0.028,0.248-0.05,0.373-0.07s0.25-0.035,0.871-0.083c0.004,0,0.01-0.001,0.014-0.001c-0.119-0.104-0.24-0.212-0.367-0.332	C127.307,88.453,127.135,88.206,127.004,87.954L127.004,87.954L127.004,87.954L127.004,87.954z"/><path style="fill-rule:evenodd;clip-rule:evenodd;fill:#37388E;" d="M151.969,98.671c0.602,0.102,1.205,0.245,1.801,0.439l0,0	l-3.578-5.308l0,0c0.064,0.603,0.053,1.214-0.041,1.813c-0.092,0.6-0.264,1.187-0.512,1.74c-0.174,0.389-0.385,0.759-0.615,1.1	c0.668,0.014,1.307,0.047,1.771,0.081C151.357,98.578,151.664,98.619,151.969,98.671L151.969,98.671L151.969,98.671L151.969,98.671	z"/><path style="fill-rule:evenodd;clip-rule:evenodd;fill:#37388E;" d="M134.959,95.721c-0.014-0.722-0.029-1.444-0.043-2.166	c-0.004-0.255-0.029-0.511-0.07-0.765c-0.072-0.41-0.154-0.837-0.592-1.155c-0.129-0.093-0.273-0.163-0.428-0.204	c-1.055-0.272-2.119-0.658-3.141-1.206c-0.424-0.223-0.838-0.464-1.125-0.636s-0.447-0.273-0.604-0.381	c-0.102-0.074-0.213-0.157-0.326-0.246c-0.283,0.019-0.535,0.038-0.736,0.053c0.277,0.239,0.545,0.448,0.836,0.659	c0.611,0.445,1.342,0.838,1.832,1.072c0.246,0.12,0.41,0.191,0.574,0.259c0.166,0.067,0.334,0.13,0.502,0.188	c-1.826,0.05-3.652-0.347-5.381-1.268c0.049,0.121,0.111,0.236,0.188,0.343c0.188,0.259,0.385,0.403,0.584,0.508	c0.445,0.207,0.904,0.382,1.373,0.525c1.725,0.557,3.416,0.432,5.1,0.587c0.232,0.026,0.564,0.222,0.629,0.399	c0.164,0.467,0.184,0.902,0.221,1.356l0,0l0.15,5.503l-3.156,7.6l0,0c-0.09,0.223-0.215,0.439-0.4,0.65	c-0.154,0.154-0.326,0.291-0.51,0.409c-0.186,0.118-0.381,0.217-0.586,0.295c-1.297,0.423-2.656,0.31-3.758-0.009	c-0.764-0.223-1.521-0.588-2.266-1.197c-0.896-0.682-1.246-1.484-1.389-2.021c-0.09-0.362-0.129-0.726-0.064-1.082	c1.469-5.695,2.986-11.396,4.48-17.094c0.061-0.3,0.189-0.59,0.57-0.833c0.619-0.342,1.229-0.397,1.826-0.383	c0.443,0.01,0.75,0.028,1.361,0.13c0.316,0.053,0.742,0.131,1.164,0.23c0.816,0.188,1.695,0.486,2.408,0.789	c0.344,0.146,0.627,0.283,0.902,0.431c0.842,0.457,1.67,0.99,2.496,1.848c1.229,1.115,0.969,2.164,0.797,3.205	c-0.887,3.77-1.301,7.572-1.467,11.345l0,0l-0.285,12.92l3.773,0.001l0.17-6.796l0,0c-0.02-2.125-0.018-4.249-0.154-6.373	c-0.041-0.58-0.143-1.257-0.211-1.71c-0.033-0.217-0.049-0.354-0.053-0.491c-0.012-0.273,0.018-0.55,0.082-0.817	c-0.199-0.187-0.381-0.396-0.537-0.62c-0.158-0.226-0.291-0.467-0.396-0.721c-0.107-0.253-0.186-0.517-0.244-0.818	c-0.061-0.301-0.1-0.64-0.113-0.979c-0.043-0.977,0.127-1.963,0.482-2.806c0.303-0.733,0.768-1.461,1.402-2.15	c0.211-0.222,0.436-0.431,0.672-0.623c0.236-0.193,0.486-0.369,0.762-0.537s0.576-0.325,0.887-0.458	c0.994-0.417,1.994-0.572,2.941-0.476c0.625,0.062,1.287,0.282,1.83,0.575c0.26,0.139,0.48,0.284,0.688,0.446	c0.207,0.161,0.402,0.339,0.58,0.53c0.18,0.192,0.346,0.397,0.49,0.616l0,0l6.133,9.233l0,0c0.238,0.375,0.375,0.768,0.436,1.149	c0.131,1.023-0.127,2.012-0.912,2.96c-0.455,0.504-0.867,0.838-1.363,1.158c-0.996,0.599-1.979,0.866-2.916,0.722	c-0.529-0.059-1.059-0.377-1.58-0.717l0,0l-6.127-4.422l0,0c0-0.069,0.01-0.139,0.031-0.205c0.045-0.19,0.283-0.387,0.434-0.411	c3.107,0.549,6.227,0.392,9.234-0.444c0.262-0.072,0.521-0.186,0.768-0.344c0.256-0.157,0.557-0.439,0.627-0.695	c-0.746,0.354-1.506,0.617-2.264,0.799c-0.391,0.094-0.785,0.168-1.324,0.236c-0.537,0.069-1.221,0.135-1.904,0.173	c-1.369,0.078-2.742,0.051-4.104-0.076c0.502-0.104,0.992-0.268,1.457-0.484c0.467-0.217,0.906-0.489,1.309-0.808	s0.77-0.683,1.113-1.125c0.104-0.131,0.201-0.271,0.299-0.414c-0.143-0.003-0.285-0.006-0.428-0.007	c-0.039,0-0.078,0.002-0.117,0.002c-0.045,0.057-0.088,0.116-0.135,0.171c-0.398,0.465-0.846,0.849-1.332,1.176	s-1.008,0.599-1.557,0.804c-0.547,0.205-1.119,0.345-1.699,0.414c-0.256,0.049-0.502,0.156-0.707,0.493	c-0.295,0.483-0.371,0.96-0.438,1.436c-0.314,4.485-0.482,8.956-0.686,13.434l0,0l47.996-0.001l-0.002-43.085L2.835,73.293	l-0.001,43.084H134.98L134.959,95.721L134.959,95.721L134.959,95.721z M117.598,100.766c-0.035,0.539-0.287,1.143-0.564,1.707	c-0.441,0.856-0.855,1.693-1.262,2.488c-0.197,0.381-0.4,0.76-0.701,1.327s-0.701,1.325-1.148,2.177	c-0.445,0.853-0.938,1.801-1.213,2.333c-0.275,0.531-0.334,0.647-0.393,0.764c-0.525,1.107-1.125,2.261-1.473,3.363	c-0.072,0.104-0.186,0.075-0.236,0.009c-0.031-0.031-0.08-0.084-0.127-0.139s-0.092-0.111-0.217-0.271	c-0.145-0.189-0.436-0.534-0.639-0.837c-0.168-0.272-0.275-0.61-0.271-0.835c0.008-0.217,0.09-0.491,0.205-0.73l0,0l0.484-0.988	l0,0c0.162-0.329,0.336-0.653,0.607-1.165c0.273-0.512,0.65-1.21,1.027-1.907c0.254-0.313,0.627-1.047,0.625-1.231	c-0.002-0.186-0.379,0.179-0.717,0.481c-0.336,0.302-0.633,0.542-0.848,0.707c-0.422,0.326-0.609,0.418-0.91,0.558	c-0.695,0.306-1.211,0.362-1.801,0.166c-0.258-0.078-0.463-0.284-0.66-0.609c-0.117-0.218-0.199-0.444-0.248-0.672	c-0.086-0.421-0.125-1.058-0.055-1.657c0.025-0.216,0.061-0.431,0.111-0.643c-0.039,0.039-0.076,0.078-0.113,0.117	c-0.037,0.04-0.072,0.079-0.182,0.198c-0.109,0.118-0.289,0.314-0.42,0.456c-0.318,0.342-0.363,0.385-0.576,0.602	c-0.119,0.121-0.275,0.279-0.465,0.462c-0.406,0.394-0.9,0.817-1.375,1.144c-0.83,0.606-1.643,0.96-2.523,0.728	c-0.143-0.049-0.287-0.126-0.424-0.252c-0.225-0.23-0.389-0.483-0.508-0.741c-0.064-0.137-0.117-0.279-0.16-0.485	c-0.094-0.423-0.133-1.035-0.051-1.564c0.076-0.563,0.311-1.209,0.604-1.893c0.156-0.359,0.326-0.713,0.541-1.078	c0.213-0.365,0.471-0.742,0.5-0.887c0.027-0.146-0.176-0.058-0.352-0.001c-0.178,0.057-0.332,0.083-0.484,0.102	c-0.145-0.089-0.332-0.076-0.555,0.171c-0.221,0.247-0.477,0.729-0.73,1.185c-0.256,0.455-0.51,0.882-0.773,1.304	s-0.537,0.837-0.766,1.168c-0.23,0.331-0.416,0.578-0.611,0.816c-0.195,0.237-0.4,0.468-0.615,0.689	c-0.218,0.216-0.442,0.429-0.602,0.576c-0.316,0.292-0.451,0.38-0.675,0.522c-0.611,0.369-1.338,0.517-2.071,0.187	c-0.134-0.064-0.259-0.147-0.372-0.244c-0.356-0.334-0.508-0.654-0.62-0.943c-0.042-0.123-0.074-0.268-0.193-0.241	c-0.12,0.026-0.326,0.225-0.532,0.396c-0.627,0.499-1.173,0.819-1.745,1.042c-0.551,0.217-1.071,0.339-1.611,0.12	c-0.158-0.063-0.307-0.152-0.437-0.255c-0.672-0.58-0.772-1.152-0.849-1.79c-0.019-0.194-0.025-0.39-0.019-0.584	c0.022-0.642,0.215-1.491,0.474-2.307c0.091-0.281,0.193-0.56,0.305-0.834c-0.305,0.152-0.614,0.297-0.946,0.412	c-0.332,0.116-0.687,0.205-0.93,0.451s-0.372,0.65-0.349,1.035c-0.133,0.357-0.281,0.709-0.446,1.053	c-0.164,0.344-0.344,0.681-0.507,0.954c-0.164,0.274-0.311,0.484-0.473,0.684c-0.993,1.186-2.007,1.668-3.156,1.237	c-0.217-0.087-0.419-0.211-0.576-0.334c-0.323-0.259-0.485-0.505-0.654-0.77c-0.085-0.14-0.16-0.285-0.24-0.483	c-0.169-0.412-0.327-0.97-0.388-1.472c-0.034-0.261-0.051-0.523-0.046-0.906c0.011-0.786,0.103-1.908,0.254-2.88	c0.076-0.496,0.168-0.99,0.305-1.589c0.136-0.6,0.317-1.304,0.523-2.001s0.436-1.387,0.755-2.113	c0.319-0.727,0.727-1.49,0.657-1.794c-0.069-0.304-0.615-0.149-1.101-0.069c-0.486,0.081-0.914,0.087-1.384,0.021	c-0.47-0.066-0.983-0.205-1.17,0.071c-0.187,0.276-0.048,0.968,0.02,1.615c0.121,1.296,0.039,2.448-0.117,3.665	c-0.086,0.608-0.211,1.225-0.362,1.834c-0.15,0.61-0.324,1.214-0.505,1.739c-0.182,0.526-0.371,0.974-0.581,1.41	c-0.211,0.438-0.442,0.864-0.695,1.277c-0.253,0.413-0.529,0.813-0.727,1.081s-0.319,0.403-0.447,0.533	c-0.927,0.951-1.852,1.313-2.849,1.178c-0.319-0.056-0.637-0.205-0.94-0.465c-0.137-0.117-0.264-0.251-0.376-0.396	s-0.211-0.301-0.282-0.498c-0.071-0.197-0.114-0.436-0.283-0.402c-0.169,0.033-0.464,0.338-0.772,0.578	c-0.309,0.24-0.632,0.417-0.968,0.562c-0.934,0.396-1.81,0.574-2.692,0.269c-0.256-0.113-0.513-0.227-0.732-0.371	c-0.219-0.145-0.401-0.319-0.583-0.496c-0.174-0.181-0.331-0.378-0.464-0.591c-0.264-0.435-0.419-0.793-0.492-1.126	c-0.039-0.175-0.067-0.381-0.164-0.336c-0.097,0.045-0.263,0.339-0.433,0.598c-0.169,0.259-0.344,0.481-0.525,0.698	c-0.181,0.217-0.368,0.428-0.553,0.619c-0.396,0.413-0.774,0.697-1.189,0.91c-0.223,0.107-0.454,0.201-0.637,0.263	c-0.51,0.165-0.87,0.153-1.3,0.034c-0.141-0.045-0.284-0.111-0.415-0.197c-0.592-0.401-0.745-0.979-0.846-1.457	c-0.023-0.131-0.038-0.263-0.049-0.458c-0.011-0.195-0.019-0.453,0.017-0.76c0.036-0.306,0.114-0.66-0.265-0.59	c-0.379,0.071-1.217,0.566-2.039,0.982c-0.821,0.416-1.625,0.753-2.263,1.006c-0.638,0.253-1.109,0.421-1.586,0.571	c-2.866,0.885-5.753,1.19-8.688,0.168c-0.467-0.169-0.922-0.374-1.359-0.611c-0.437-0.238-0.855-0.509-1.242-0.811	c-0.386-0.303-0.74-0.636-1.061-0.998c-0.321-0.363-0.608-0.755-0.857-1.17c-0.784-1.312-1.118-2.707-1.292-4.085	c-0.182-1.481-0.04-3.176,0.356-4.844c0.265-1.109,0.677-2.262,1.245-3.422c0.547-1.117,1.234-2.185,2.086-3.239	c0.411-0.511,0.854-1.016,1.319-1.499c0.936-0.972,1.988-1.872,3.018-2.594c1.061-0.74,2.076-1.29,3.135-1.774	c0.542-0.246,1.095-0.468,1.729-0.697c1.305-0.478,2.837-0.911,4.291-1.098c0.746-0.101,1.498-0.156,2.12-0.19	c1.206-0.071,2.07-0.048,3.081,0.129c0.486,0.086,0.965,0.205,1.364,0.319c0.763,0.218,1.315,0.442,1.949,0.762	c0.299,0.153,0.592,0.319,0.878,0.509c0.287,0.19,0.566,0.403,0.82,0.644c0.254,0.241,0.483,0.509,0.682,0.797	c0.652,0.946,0.923,2,1.003,3.044c0.024,0.364,0.018,0.73-0.005,1.048c-0.043,0.616-0.145,1.108-0.305,1.649	c-0.245,0.804-0.708,1.786-1.316,2.741c-0.401,0.636-0.98,1.366-1.7,2.126c-0.37,0.389-0.758,0.76-1.163,1.112	c-0.405,0.352-0.827,0.685-1.277,1.011c-0.937,0.678-1.942,1.283-2.942,1.771c-1.59,0.764-3.121,1.342-4.675,1.564	c-0.531,0.079-1.066,0.122-1.437,0.143s-0.575,0.018-0.779,0.008c-0.693-0.036-1.256-0.103-1.944-0.328	c-0.491-0.168-0.921-0.362-1.374-0.677c-0.234-0.164-0.482-0.37-0.705-0.603c-0.63-0.636-1.035-1.582-1.199-2.34	c-0.051-0.239-0.086-0.482-0.105-0.726c-0.019-0.244-0.021-0.489,0.012-0.859c0.062-0.736,0.274-1.838,0.686-2.762	c0.197-0.457,0.432-0.898,0.776-1.407s0.799-1.084,1.301-1.616c0.501-0.532,1.05-1.02,1.638-1.452s1.216-0.811,1.738-1.095	c1.042-0.564,1.779-0.828,2.667-1.086c0.867-0.239,1.728-0.391,2.56-0.445c0.408-0.026,0.818-0.03,1.054-0.032	c0.237-0.001,0.301-0.001,0.364,0.003c0.243,0.045,0.432-0.024,0.734,0.336c0.15,0.257,0.163,0.531,0.08,0.76	c-0.052,0.112-0.142,0.251-0.339,0.375c-0.198,0.117-0.336,0.12-0.53,0.131c-0.314,0.009-0.795,0.055-1.172,0.108	c-0.114,0.016-0.227,0.035-0.431,0.07c-0.422,0.072-1.097,0.207-1.656,0.375c-0.597,0.171-1.325,0.445-2.089,0.833	c-0.402,0.205-0.791,0.438-1.162,0.695c-0.372,0.257-0.726,0.539-1.004,0.773c-0.583,0.489-0.883,0.827-1.198,1.26	c-0.295,0.418-0.527,0.834-0.685,1.195c-0.563,1.272-0.695,2.568,0.082,3.965c0.109,0.173,0.234,0.336,0.391,0.496	c0.344,0.35,0.772,0.633,1.189,0.81c0.665,0.276,1.315,0.367,1.957,0.359c0.211-0.004,0.423-0.021,0.8-0.074	c0.772-0.105,2.017-0.353,3.042-0.723c0.519-0.183,1.028-0.392,1.457-0.593c0.821-0.389,1.434-0.77,2.127-1.232	c0.329-0.223,0.649-0.457,0.929-0.677c0.279-0.221,0.517-0.428,0.744-0.646c0.227-0.218,0.443-0.447,0.647-0.687	c0.205-0.239,0.398-0.488,0.602-0.787c0.434-0.63,0.845-1.392,1.118-2.119c0.146-0.381,0.269-0.771,0.346-1.1	c0.149-0.639,0.147-1.116,0.076-1.664c-0.142-0.885-0.456-1.78-1.473-2.697c-1.169-0.931-2.543-1.294-3.811-1.388	c-0.833-0.047-1.79-0.055-2.731,0.042c-0.323,0.032-0.645,0.074-1.086,0.154c-0.886,0.157-2.115,0.457-3.18,0.879	c-0.532,0.207-1.053,0.442-1.52,0.674c-0.893,0.445-1.653,0.91-2.453,1.487c-0.762,0.55-1.64,1.295-2.545,2.221	c-0.457,0.473-0.887,0.971-1.286,1.493c-0.399,0.522-0.767,1.067-1.033,1.476c-0.266,0.409-0.43,0.68-0.583,0.958	c-0.585,1.079-1.024,2.295-1.299,3.392c-0.068,0.281-0.127,0.565-0.183,0.905c-0.116,0.691-0.188,1.541-0.146,2.323	c0.037,0.765,0.149,1.549,0.428,2.306c0.134,0.363,0.305,0.712,0.508,1.042c0.203,0.329,0.438,0.638,0.703,0.931	c0.264,0.294,0.558,0.571,0.873,0.822s0.651,0.476,1.003,0.669c0.353,0.194,0.722,0.357,1.03,0.47	c0.606,0.217,1.04,0.28,1.552,0.363c0.251,0.036,0.504,0.063,0.942,0.078c0.438,0.015,1.062,0.017,1.684-0.025	c0.621-0.04,1.24-0.125,1.851-0.247c1.248-0.244,2.618-0.728,4.038-1.384c0.728-0.338,1.438-0.714,1.863-0.943	c0.425-0.23,0.565-0.314,0.701-0.405s0.267-0.188,0.394-0.29c0.792-1.653,1.826-3.436,3.491-5.072	c0.301-0.295,0.626-0.59,0.965-0.87c0.338-0.28,0.689-0.545,0.97-0.739c0.562-0.389,0.917-0.545,1.379-0.709	c0.646-0.212,1.238-0.332,1.835-0.187c0.185,0.043,0.364,0.109,0.493,0.167c0.216,0.099,0.323,0.179,0.468,0.378	c0.288,0.462,0.281,1.208,0.107,1.842c-0.029,0.115-0.061,0.229-0.201,0.688c-0.139,0.46-0.386,1.267-0.565,1.891	c-0.179,0.624-0.289,1.065-0.384,1.511c-0.244,1.114-0.378,2.238-0.275,3.372c0.047,0.292,0.145,0.59,0.306,0.877	c0.307,0.471,0.718,0.595,1.125,0.568c0.244-0.008,0.495-0.061,0.737-0.165c0.359-0.155,0.862-0.538,1.343-1.017	c0.154-0.155,0.3-0.318,0.438-0.488c0.063-0.683,0.215-1.371,0.471-2.058c0.189-0.541,0.43-1.065,0.715-1.562	c0.286-0.497,0.617-0.969,0.989-1.405c0.59-0.695,1.303-1.319,1.992-1.745c0.546-0.343,1.115-0.607,1.689-0.8	c0.13-1.274-0.201-2.463-0.851-3.804c-0.096-0.191-0.19-0.367-0.286-0.542c-0.096-0.175-0.194-0.349-0.271-0.489	c-0.186-0.353-0.299-0.54-0.401-0.777c-0.118-0.246-0.199-0.634-0.01-1.021c0.061-0.122,0.145-0.232,0.226-0.318	c0.436-0.414,0.887-0.484,1.376-0.268c0.178,0.082,0.392,0.268,0.617,0.505c0.222,0.241,0.491,0.57,0.873,0.89	c0.189,0.158,0.392,0.301,0.604,0.428c1.507,0.9,2.856,0.69,4.295,0.445c0.505-0.111,1.014-0.312,1.525-0.679	c0.171-0.276,0.368-0.545,0.601-0.806c0.581-0.62,1.014-0.915,1.518-1.055c0.292-0.068,0.751-0.083,1.079,0.187	c0.466,0.438,0.455,0.95,0.179,1.499c-0.243,0.441-0.817,1.04-1.31,1.558c-0.145,0.159-0.284,0.324-0.418,0.492	c-0.342,0.441-0.653,0.906-0.932,1.39c-0.575,0.998-0.989,2.042-1.255,3.094c0.495-0.229,1.091-0.281,1.645-0.108	c0.268,0.084,0.521,0.217,0.742,0.39c0.679,0.604,0.829,1.272,1,1.939c0.114,0.516,0.154,1.047,0.121,1.573	c0.486-0.037,1.026-0.33,1.515-0.595c0.302-0.171,0.594-0.361,0.871-0.57c0.693-0.527,1.31-1.16,1.895-1.838	c0.504-0.461,1.005-0.547,1.624-0.283c0.623,0.41,0.68,0.991,0.345,1.534c-0.037,0.061-0.078,0.119-0.19,0.266	c-0.113,0.146-0.298,0.381-0.475,0.62s-0.346,0.485-0.532,0.768c-0.187,0.283-0.391,0.604-0.585,0.93	c-0.194,0.327-0.376,0.66-0.514,0.929c-0.275,0.534-0.398,0.884-0.509,1.325c-0.08,0.391-0.201,0.788-0.094,1.192	c0.035,0.146,0.242,0.377,0.446,0.419c0.243,0.08,0.535-0.059,0.789-0.182c0.482-0.236,0.925-0.755,1.215-1.17	c0.084-0.122,0.164-0.248,0.237-0.378c0.272-1.291,0.574-2.594,1.378-3.853c0.364-0.567,0.834-1.235,1.428-1.698	c0.51-0.364,1.024-0.516,1.608-0.18c0.465,0.392,0.412,0.879,0.408,1.331c-0.01,0.158-0.029,0.314-0.061,0.47	c-0.057,0.332-0.238,0.796-0.479,1.291c-0.431,0.89-0.994,1.562-1.651,2.399c-0.231,0.286-0.47,0.567-0.713,0.843	c-0.017,0.239,0.013,0.483,0.271,0.756c0.352,0.275,0.794,0.07,1.199-0.185c0.183-0.121,0.477-0.392,0.791-0.701	c1.232-1.265,2.078-2.533,2.634-3.817c-0.033-0.153-0.053-0.308-0.062-0.462c-0.021-0.395,0.029-1.118,0.223-1.718	c0.115-0.352,0.301-0.707,0.594-1.046c0.553-0.624,0.988-0.772,1.533-0.705c0.123,0.02,0.238,0.057,0.342,0.113	c0.641,0.414,0.557,1.043,0.418,1.572c-0.113,0.336-0.281,0.686-0.49,1.027c0.244-0.001,0.494-0.029,0.738-0.087	c0.121-0.029,0.24-0.064,0.406-0.12c0.164-0.056,0.373-0.131,0.5-0.175c0.232-0.083,0.232-0.079,0.336-0.109	c0.205-0.057,0.443-0.045,0.664,0.064c0.818,0.501,0.5,1.251,0.057,1.89c-0.705,0.896-1.443,1.954-1.74,2.852	c-0.195,0.586-0.393,1.176-0.285,1.787c0.029,0.128,0.217,0.304,0.377,0.312c0.24,0.062,0.523-0.138,0.768-0.283	c0.781-0.566,1.547-1.275,2.316-2.154c0.201-0.223,0.398-0.447,0.596-0.673c0.293-0.362,0.588-0.724,0.836-1.023	c0.25-0.3,0.453-0.538,0.693-0.827c0.242-0.289,0.52-0.629,0.707-0.854c0.186-0.224,0.277-0.333,0.375-0.438	c0.648-0.692,1.25-1.075,1.947-0.886c0.191,0.054,0.486,0.29,0.529,0.516c0.102,0.266,0.002,0.563-0.072,0.836	c-0.166,0.523-0.637,1.004-0.943,1.519c-0.346,0.548-0.645,1.073-0.857,1.539c-0.32,0.753-0.607,1.516-0.484,2.294	c0.006,0.154,0.236,0.354,0.395,0.335c0.207-0.011,0.424-0.063,0.631-0.17c0.098-0.05,0.189-0.11,0.354-0.246	c0.328-0.271,0.863-0.768,1.295-1.251c0.213-0.235,0.418-0.479,0.674-0.81c0.258-0.331,0.564-0.749,0.859-1.177	c0.586-0.822,1.004-1.695,1.684-2.552c0.459-0.534,0.98-0.684,1.482-0.509c0.154,0.063,0.307,0.149,0.455,0.373	C117.592,100.141,117.629,100.472,117.598,100.766L117.598,100.766L117.598,100.766L117.598,100.766z"/><path style="fill-rule:evenodd;clip-rule:evenodd;fill:#37388E;" d="M133.75,88.963c0.771,0.056,1.193,0.117,1.609,0.198	c0.816,0.158,1.635,0.395,2.439,0.726c-0.244-0.32-0.51-0.624-0.797-0.907c-1.186-1.175-2.613-1.842-3.873-2.299	c-1.543-0.513-3.094-0.927-4.67-0.751c-0.299,0.067-0.586,0.049-0.908,0.347c-0.412,0.481-0.324,1.037,0.012,1.58	c0.223,0.382,0.658,0.784,1.068,1.105c0.602-0.04,1.354-0.08,2.109-0.09C131.859,88.856,132.98,88.907,133.75,88.963L133.75,88.963	L133.75,88.963L133.75,88.963z"/><path style="fill-rule:evenodd;clip-rule:evenodd;fill:#37388E;" d="M64.531,97.53c-0.16,0.062-0.367,0.208-0.584,0.363	c-0.126,0.093-0.25,0.191-0.369,0.294s-0.235,0.209-0.445,0.433s-0.516,0.565-0.793,0.928c-0.592,0.757-1.029,1.666-1.291,2.286	c-0.137,0.32-0.225,0.546-0.3,0.747c-0.075,0.202-0.138,0.38-0.197,0.559c-0.112,0.34-0.209,0.659-0.268,0.947	c-0.076,0.37-0.104,0.78-0.094,0.998c0.016,0.151,0.06,0.309,0.157,0.425c0.188,0.219,0.421,0.087,0.562,0.004	c0.052-0.034,0.099-0.074,0.238-0.23c0.14-0.157,0.373-0.43,0.596-0.71s0.436-0.569,0.665-0.902	c0.229-0.334,0.473-0.713,0.709-1.098c0.236-0.384,0.462-0.774,0.706-1.212c0.243-0.438,0.502-0.925,0.737-1.423	c0.234-0.499,0.444-1.008,0.558-1.29s0.129-0.337,0.144-0.392c0.045-0.248,0.142-0.462-0.073-0.678	C64.985,97.408,64.697,97.471,64.531,97.53L64.531,97.53L64.531,97.53L64.531,97.53z"/><path style="fill-rule:evenodd;clip-rule:evenodd;fill:#37388E;" d="M84.071,100.068c-0.47-0.373-0.899-0.321-1.286,0.094	c-0.083,0.096-0.175,0.222-0.258,0.354c-0.292,0.455-0.429,0.918-0.549,1.432c-0.178,0.798-0.265,1.538-0.225,2.328	c0.02,0.323,0.052,0.622,0.095,0.799c0.053,0.214,0.119,0.439,0.237,0.606c0.299,0.35,0.562,0.281,0.811,0.192	c0.184-0.101,0.357-0.258,0.48-0.477c0.054-0.092,0.12-0.216,0.182-0.342c0.129-0.269,0.222-0.482,0.336-0.828	c0.06-0.181,0.129-0.41,0.189-0.643c0.177-0.681,0.279-1.378,0.306-1.959c0.007-0.182,0.004-0.364-0.006-0.546	C84.342,100.732,84.384,100.368,84.071,100.068L84.071,100.068L84.071,100.068L84.071,100.068z"/><path style="fill-rule:evenodd;clip-rule:evenodd;fill:#37388E;" d="M72.736,103.247c-0.165,0.675-0.32,1.359-0.141,2.016	c0.061,0.205,0.136,0.403,0.212,0.476c0.182,0.165,0.339,0.127,0.51,0.063c0.154-0.054,0.325-0.199,0.542-0.418	c0.083-0.085,0.164-0.175,0.239-0.268c0.521-0.684,0.812-1.31,1.133-2.069c0.143-0.345,0.292-0.736,0.414-1.136	c0.25-0.817,0.388-1.649,0.429-2.469c-0.642,0.161-1.271,0.547-1.88,1.138C73.341,101.513,72.964,102.463,72.736,103.247	L72.736,103.247L72.736,103.247L72.736,103.247z"/></g></svg>
