<?xml version="1.0" encoding="UTF-8" standalone="no"?>
<svg width="800px" height="512px" viewBox="0 0 800 512" version="1.1" xmlns="http://www.w3.org/2000/svg" xmlns:xlink="http://www.w3.org/1999/xlink">
    <!-- Generator: Sketch 3.6.1 (26313) - http://www.bohemiancoding.com/sketch -->
    <title>Cailler</title>
    <desc>Created with Sketch.</desc>
    <defs></defs>
    <g id="Page-1" stroke="none" stroke-width="1" fill="none" fill-rule="evenodd">
        <g id="Cailler" fill="#B9A357">
            <path d="M714.616786,69.491839 C714.616786,69.491839 690.300496,46.6398196 723.459298,23.7919227 C756.627169,0.944850242 755.316251,0.817880837 755.316251,0.817880837 L788.989527,0.892908213 C785.302467,14.1645089 721.241456,49.5914461 714.616786,69.491839" id="Shape"></path>
            <path d="M654.213977,63.4055523 C654.213977,63.4055523 652.969018,71.3864863 647.80532,103.089262 C639.702364,151.002074 606.843671,180.31057 580.095176,190.830892 C563.524844,197.352502 549.771749,190.797913 548.302531,167.585597 C548.302531,167.585597 611.699839,159.464502 613.720631,118.344554 C615.554267,80.7377005 566.172238,77.593971 544.710287,100.016438 C520.065855,125.759897 521.75933,151.058963 511.513559,188.510815 C503.000013,219.648 473.743459,218.076548 478.533668,182.569636 C480.039987,171.37077 482.930602,151.689688 485.775047,124.711163 C493.157411,54.6850628 502.971156,28.2729533 535.707826,1.14932045 L504.757797,1.14932045 C505.188998,1.24743317 466.978628,26.1400322 458.511253,115.734261 C453.214815,171.627182 441.707594,219.11951 426.316264,235.025314 C413.779272,247.978667 395.693552,242.706138 399.969288,210.568039 C403.131981,186.747259 408.437488,150.955079 409.091298,144.948767 C416.894145,72.8639485 419.766622,34.5975137 461.420831,0.817880837 L430.423807,0.892908213 C430.423807,0.892908213 394.8699,28.0726055 386.028213,98.8283671 C377.177456,169.589076 368.766145,255.450074 340.819684,268.193185 C340.819684,268.193185 315.127343,279.972483 319.553134,249.01256 C323.969031,218.066654 328.104605,188.585842 328.104605,188.585842 L295.245913,201.118712 L287.115749,260.805874 C287.115749,260.805874 283.326454,292.883787 260.478557,298.038415 C260.478557,298.038415 245.835852,303.549217 248.783356,281.45077 C251.739929,259.341604 257.138602,215.863652 257.138602,215.863652 L227.657791,226.923182 L222.278081,248.324947 C222.278081,248.324947 142.152142,203.149398 112.680399,346.138383 L82.6842899,387.82887 L94.7167021,398.392064 L119.295176,363.50351 C119.295176,363.50351 136.996689,384.948148 156.897082,379.062209 C176.806544,373.158957 192.029681,364.569559 210.460857,338.765913 L222.259118,346.137559 C222.259118,346.137559 236.18123,353.201675 249.419852,342.077011 C268.281404,326.227272 283.036238,308.152271 283.036238,308.152271 C283.036238,308.152271 294.507182,332.06704 319.057623,316.161237 C346.526712,298.365733 358.587156,278.51151 358.587156,278.51151 C358.587156,278.51151 374.530061,297.673172 395.179079,287.354023 C415.819027,277.033224 433.034924,248.535188 433.034924,248.535188 C433.034924,248.535188 445.973436,263.883646 461.542029,261.054042 C479.141308,257.845179 498.331002,241.855279 517.052393,214.138023 C517.052393,214.138023 543.231176,231.414106 565.25542,223.471098 C606.170899,208.734403 638.402164,165.719807 638.402164,165.719807 L633.91124,198.769778 L668.519472,185.512193 L688.054622,50.3862415 L654.213977,63.4055523 M583.911678,101.433713 C600.678235,103.950016 608.490976,143.970937 549.032193,148.414866 C549.032193,148.415691 550.922718,96.4802576 583.911678,101.433713 M159.873443,335.996496 C149.010963,331.094158 143.388032,314.495794 147.382622,297.468702 C157.019105,256.380908 203.640786,236.999936 211.098177,271.869527 C219.200309,309.837501 182.72134,346.31647 159.873443,335.996496" id="Shape"></path>
            <path d="M296.453771,145.655343 C305.510647,161.748303 332.259968,156.012419 335.759047,141.230377 C342.645076,112.245076 320.911047,111.164187 314.361404,111.931775 C301.834306,113.405114 289.820857,133.862029 296.453771,145.655343" id="Shape"></path>
            <path d="M449.875684,415.992167 C449.72563,415.842113 449.576399,415.701952 449.416451,415.561791 C449.126235,415.300432 448.808812,415.094312 448.500457,414.860161 C445.768142,412.716522 442.577417,411.361082 438.863974,410.901849 C437.516779,410.733655 436.225649,410.733655 434.953481,410.817752 C432.305262,410.995014 429.798029,411.650473 427.458989,412.894609 C427.393031,412.912747 427.346035,412.950673 427.289971,412.97953 C425.119124,414.158531 423.557565,415.589823 422.61189,417.245372 C421.620045,418.967704 421.42382,420.782377 422.02239,422.710003 C422.630853,424.674731 423.790892,426.405308 425.50333,427.930589 C426.70047,428.978499 427.94543,429.858216 429.217597,430.606016 C429.826061,430.943227 430.415562,431.241688 431.032271,431.523659 C431.565707,431.766879 432.127176,431.990312 432.669681,432.177469 C434.194963,432.682873 435.739208,432.964019 437.31066,433.057185 C438.376709,433.132213 439.471614,433.132213 440.576412,433.019259 C443.298834,432.701836 445.703833,432.000206 447.807897,430.895407 C451.203916,429.070841 453.056515,426.732625 453.36487,423.83294 C453.674873,421.0998 452.495871,418.471369 449.875684,415.992167 M443.635221,427.209172 C443.2337,427.425185 442.802499,427.583485 442.372122,427.705507 C441.259079,428.051787 440.042976,428.154847 438.722989,428.014686 C438.508625,428.004792 438.293436,428.004792 438.078248,427.967691 C437.011375,427.798673 435.963465,427.462287 434.962551,426.92885 C433.942673,426.413552 432.959897,425.730886 431.987839,424.880026 C431.716586,424.635981 431.501398,424.39276 431.267246,424.149539 C429.845024,422.709179 429.115362,421.333127 429.161533,420.06096 C429.217597,418.573604 430.060213,417.413565 431.631665,416.571775 C432.437179,416.142222 433.288039,415.879214 434.204857,415.748947 C435.130744,415.626924 436.132483,415.626924 437.198531,415.804187 C438.546551,416.038338 439.864889,416.552812 441.128812,417.347607 C441.643285,417.656786 442.129726,418.003066 442.616167,418.386448 C442.822287,418.545572 443.028406,418.685733 443.234525,418.882783 C443.73086,419.30409 444.160412,419.734467 444.516586,420.145881 C445.610667,421.418873 446.135034,422.597874 446.097932,423.710093 C446.050113,425.18838 445.216567,426.358312 443.635221,427.209172" id="Shape"></path>
            <path d="M661.090113,312.221887 C661.01591,311.931671 660.931813,311.615072 660.809791,311.333101 C660.688593,310.922512 660.519575,310.538306 660.295317,310.107929 L658.283594,310.828522 L653.399395,312.578061 C653.428251,312.625056 653.44639,312.662982 653.475246,312.709153 C654.017752,313.672966 654.213977,314.505688 653.979826,315.188354 C653.783601,315.899878 653.1941,316.52648 652.24925,317.022815 C651.837011,317.247072 651.397565,317.406196 650.958119,317.528219 C649.919279,317.82668 648.806235,317.938808 647.618164,317.77144 C647.580238,317.761546 647.532419,317.761546 647.496142,317.761546 C646.597462,317.640348 645.708676,317.359201 644.858641,316.947787 C644.044058,316.563581 643.248438,316.049932 642.491568,315.404367 L642.641623,315.328515 L657.685024,307.367369 C657.42449,307.114254 657.161481,306.899066 656.890229,306.664915 C656.32876,306.188367 655.767291,305.729134 655.196754,305.307826 C652.184116,303.02485 649.161585,301.603452 646.148947,301.107118 C644.7259,300.872966 643.370461,300.854003 642.022441,300.947994 C639.665262,301.107118 637.391356,301.715581 635.210615,302.87562 C635.173514,302.893758 635.155375,302.912721 635.126519,302.931684 C632.151807,304.5221 630.598493,306.636882 630.420406,309.274383 C630.270351,311.754409 631.600232,314.298744 634.350686,316.946963 C634.565874,317.152258 634.7621,317.358377 634.996251,317.564496 C636.184322,318.603337 637.418564,319.46409 638.691556,320.202821 C639.102969,320.427079 639.533346,320.604341 639.963723,320.820354 C641.245784,321.437063 642.58391,321.979568 643.977275,322.316779 C644.800928,322.494866 645.613862,322.578138 646.437514,322.644097 C649.702441,322.914525 652.94923,322.241752 656.140779,320.566415 C658.666151,319.22829 660.256567,317.6758 660.930989,315.898229 C661.389398,314.758802 661.418254,313.523736 661.090113,312.221887 L661.090113,312.221887 Z M639.497069,312.587955 C639.469037,312.559923 639.441005,312.53189 639.422042,312.512928 C639.14172,312.259813 638.88943,312.008348 638.673417,311.774196 L638.673417,311.765127 C637.840696,310.828522 637.429282,309.902634 637.476277,308.975923 C637.531517,307.806815 638.233971,306.843002 639.553134,306.15951 C640.161597,305.842087 640.826126,305.626899 641.527755,305.5057 C642.258242,305.392747 643.025005,305.392747 643.86762,305.5057 C645.083723,305.664 646.281688,306.132303 647.422763,306.880928 C647.816863,307.142287 648.209314,307.441572 648.592696,307.75075 L648.442641,307.834847 L640.227556,312.195504 L639.497069,312.587955 L639.497069,312.587955 Z" id="Shape"></path>
            <path d="M703.950531,293.435362 L679.887356,272.075646 L677.903665,270.326106 L676.444341,271.102763 L676.378383,271.130795 L671.860251,273.534969 L672.654222,274.236599 L697.803233,296.570023 L698.683775,297.355749 L699.048193,297.139736 L699.095188,297.122422 L704.746151,294.136992 L703.950531,293.435362 Z" id="Shape"></path>
            <path d="M798.700213,243.254415 L774.618074,221.908715 L772.652522,220.168245 L771.183304,220.935833 L771.118995,220.972934 L766.590145,223.377932 L767.385765,224.07544 L776.301655,231.981346 C776.263729,231.981346 776.246415,231.981346 776.20849,231.963208 C775.319704,231.827169 774.477089,231.734003 773.673224,231.71504 L773.580058,231.71504 C773.027659,231.705147 772.485153,231.733179 771.960786,231.780174 C770.118081,231.902196 768.433675,232.31361 766.964457,233.090267 C766.880361,233.141385 766.83419,233.197449 766.7402,233.245269 C764.111768,234.690576 762.736541,236.627272 762.623588,239.04134 C762.520528,241.324316 763.886686,243.784554 766.647034,246.427826 C766.881185,246.6661 767.133475,246.90932 767.394834,247.148419 C768.676895,248.276303 769.987813,249.17828 771.333359,249.954937 C771.932754,250.310287 772.551111,250.605449 773.16782,250.904734 C774.656,251.583279 776.190351,252.083736 777.761804,252.340973 C778.434576,252.458048 779.062003,252.49515 779.698499,252.542145 C782.542944,252.734248 785.060071,252.303871 787.202061,251.161971 C788.493192,250.474357 789.494931,249.543523 790.224593,248.383485 C790.589836,247.770899 790.823987,247.120386 790.963324,246.427826 C791.076277,245.796277 791.103485,245.117733 791.019388,244.407034 L792.647729,245.852341 L793.003903,246.170589 L793.387285,246.51687 L793.863833,246.938177 L794.238145,246.746899 L794.303279,246.718866 L799.486763,243.977481 L798.700213,243.254415 M772.559356,235.736013 C773.223884,235.371594 773.952721,235.151459 774.71124,235.025314 C775.627233,234.894222 776.61001,234.913185 777.648026,235.114357 C778.714899,235.305636 779.837836,235.792902 780.978911,236.480515 C781.559343,236.835865 782.148844,237.219246 782.738345,237.691671 C783.121726,237.97694 783.496039,238.272103 783.880245,238.618383 C784.403787,239.076792 784.853127,239.540148 785.245578,239.979594 C786.340483,241.204767 786.911021,242.336773 786.92009,243.38963 C786.939053,244.788767 786.264631,245.859762 784.862196,246.599317 C784.459852,246.809559 784.047614,246.963736 783.617237,247.090705 C782.578396,247.394937 781.44639,247.46914 780.239356,247.291878 C779.761984,247.230866 779.265649,247.128631 778.761069,246.982699 C778.171568,246.809559 777.535897,246.52429 776.881262,246.159047 C775.76657,245.546461 774.570254,244.694776 773.259337,243.544631 C772.782789,243.114254 772.370551,242.702841 771.997063,242.28648 C770.939259,241.079446 770.378615,239.961456 770.387684,238.927562 C770.380264,237.556457 771.109101,236.480515 772.559356,235.736013" id="Shape"></path>
            <path d="M564.516689,336.024528 L562.505791,334.238712 L560.5221,332.488348 L559.053707,333.26418 L559.006712,333.293037 L554.468792,335.697211 L555.254519,336.40791 L558.369391,339.177327 L559.240039,339.944915 L559.613527,339.748689 L559.669591,339.729726 L565.312309,336.726158 L564.516689,336.024528 L564.516689,336.024528 Z M586.559897,355.597604 L569.841159,340.758673 L567.866538,339.009958 L566.40639,339.795684 L566.359395,339.813823 L561.821475,342.22789 L562.607201,342.92952 L580.420844,358.750403 L581.299736,359.52706 L581.65591,359.330834 L581.711974,359.302802 L587.353868,356.299233 L586.559897,355.597604 L586.559897,355.597604 Z" id="Shape"></path>
            <path d="M681.215588,305.476844 L676.01314,300.855652 C674.188573,299.218242 672.795208,297.899079 671.756367,296.851169 C670.941784,296.000309 670.325076,295.29868 670.006003,294.812238 C669.314267,293.70744 669.061153,292.828548 669.249134,292.154126 C669.416502,291.499491 669.950763,290.947092 670.801623,290.497752 C671.680515,290.031098 672.888374,289.796122 674.460651,289.749127 L672.814171,286.559227 L672.411826,285.792464 L671.887459,284.800618 C671.101733,284.83772 670.409172,284.967987 669.716612,285.118042 C668.706628,285.324161 667.771671,285.623446 666.948019,286.053823 C666.797965,286.129675 666.68666,286.259942 666.545675,286.344863 C665.797874,286.803272 665.217443,287.335884 664.889301,287.954242 C664.562808,288.599807 664.515813,289.628754 664.731002,290.975948 C664.768928,291.163929 664.777997,291.350261 664.824167,291.574519 L664.04751,290.881958 L662.999601,289.965965 L662.26087,289.293192 L662.072889,289.124174 L660.604496,289.9099 L660.548432,289.937932 L656.478815,292.089816 L657.274435,292.800515 L675.079008,308.603259 L675.967794,309.388986 L676.332213,309.182866 L676.388277,309.164728 L682.011208,306.170229 L681.215588,305.476844" id="Shape"></path>
            <path d="M608.818293,343.481095 L607.490061,342.48925 L605.26315,340.823807 C604.906976,341.217082 604.590377,341.543575 604.271304,341.825546 C604.234203,341.862647 604.197101,341.880786 604.150931,341.918712 C603.851646,342.18914 603.551536,342.415047 603.279459,342.564277 C602.980998,342.731646 602.643787,342.807498 602.297507,342.844599 C602.194448,342.862738 602.082319,342.8817 601.980084,342.8817 C601.745932,342.8817 601.549707,342.778641 601.343588,342.731646 C601.165501,342.694544 600.979169,342.694544 600.819221,342.601378 C600.810151,342.601378 600.792013,342.591485 600.782119,342.591485 C600.435839,342.395259 599.453887,341.59057 597.853578,340.168348 L589.937778,333.114126 L589.993842,333.095987 L594.063459,330.944103 L593.268663,330.233404 L591.95857,329.063472 L589.96581,327.313932 L588.505662,328.08152 L586.204548,329.316586 L585.839304,329.494673 L584.969481,328.727085 L581.058164,325.256039 L578.907105,323.347375 L578.186512,324.770422 L578.147762,324.8438 L575.902712,329.259697 L576.660406,329.952258 L579.767034,332.712605 L579.7019,332.740638 L577.025649,334.16286 L577.821269,334.874383 L580.244406,337.016374 L581.104335,337.784786 L581.479472,337.58856 L581.526467,337.569597 L582.39629,337.102119 L583.874576,336.325462 L585.053578,337.393159 L585.839304,338.094789 L592.388122,343.904876 C594.222583,345.524148 595.513713,346.590196 596.253269,347.039536 C596.599549,347.282757 596.945829,347.45095 597.282216,347.638931 C597.600464,347.816193 597.927781,347.956354 598.23696,348.088271 C598.527176,348.228432 598.826461,348.311704 599.106783,348.386731 C599.274976,348.442795 599.500058,348.442795 599.67732,348.461758 C600.444908,348.574712 601.295768,348.59285 602.240618,348.44362 C603.41962,348.265533 604.551626,347.892045 605.618499,347.30172 C607.423279,346.35687 608.743266,345.299066 609.641121,344.101926 L608.818293,343.481095" id="Shape"></path>
            <path d="M766.159768,260.49752 L754.895768,250.495794 C754.230415,249.920309 753.63267,249.433868 753.071201,248.994422 C752.341539,248.428006 751.686081,247.946512 751.106473,247.623317 C750.094841,247.029694 748.972728,246.599317 747.765694,246.328064 C746.774673,246.107929 745.642667,246.09886 744.41667,246.215936 C744.182519,246.243968 743.958261,246.234074 743.71504,246.272 C742.198828,246.501205 740.776605,246.969507 739.467337,247.671137 C739.392309,247.718132 739.346138,247.755233 739.261217,247.807176 C736.557758,249.308548 735.162744,251.357372 735.135536,253.981681 C735.135536,254.154821 735.125643,254.308998 735.125643,254.492032 L734.24675,253.706306 L733.704245,253.228934 L732.95562,252.555337 L732.26306,251.960889 L730.803736,252.737546 L730.747671,252.765578 L726.6863,254.922409 L727.472026,255.633108 L745.286493,271.430905 L746.156316,272.198493 L746.530628,272.002267 L746.586692,271.984129 L752.208799,269.008593 L751.423072,268.298718 L743.442138,261.210692 C742.338989,260.241932 741.459272,259.400142 740.775781,258.688618 C740.159072,258.019143 739.691594,257.454377 739.466512,257.033069 C738.961108,256.162422 738.886905,255.278583 739.233185,254.417829 C739.559678,253.552129 740.252238,252.846377 741.281185,252.289031 C741.767626,252.040863 742.263137,251.886686 742.778435,251.783626 C743.151923,251.703652 743.517166,251.638519 743.910441,251.647588 C744.799227,251.638519 745.697082,251.838866 746.567729,252.242035 C746.81095,252.373127 747.175369,252.597385 747.568644,252.863691 C747.923994,253.111858 748.316444,253.402074 748.756715,253.752477 C749.411349,254.271897 750.150081,254.875414 751.002589,255.642177 L760.021539,263.631356 L760.891362,264.399768 L761.247536,264.207665 L761.322564,264.189527 L766.954564,261.200799 L766.159768,260.49752" id="Shape"></path>
            <path d="M565.45247,367.901269 L554.589166,348.833597 L554.112618,347.972844 L553.373887,346.690783 L551.820573,347.523504 L551.567459,347.654596 L547.36675,349.880683 L555.731066,363.541436 L552.59723,361.782828 L552.15696,361.539607 L539.160734,354.222377 L537.954525,354.858048 L537.65524,355.017997 L533.32344,357.319111 L542.155233,370.725926 L538.947195,369.033275 L538.553919,368.818087 L525.10011,361.669874 L523.929353,362.287407 L523.602035,362.465494 L519.224064,364.776502 L520.309076,365.337147 L520.842512,365.59933 L521.927523,366.151729 L544.737494,377.640812 L545.935459,378.248451 L551.820573,375.123684 L544.476135,363.970989 L543.166042,361.969159 L544.813346,362.867839 L544.765527,362.773849 L559.679485,370.969147 L565.45247,367.901269 Z" id="Shape"></path>
            <path d="M475.268741,414.532019 L460.58811,401.526725 L460.635929,401.499517 L465.10789,399.132444 L464.322164,398.439884 L463.068135,397.317771 L461.085269,395.577301 L459.616052,396.344889 L459.560812,396.372921 L456.959588,397.748148 L456.558068,397.972406 L456.473147,397.897378 L455.68742,397.185855 L455.172947,396.746409 C454.8918,396.475981 454.64858,396.250074 454.442461,396.007678 C453.965913,395.475066 453.750725,395.034795 453.769688,394.660483 C453.806789,394.174042 454.275092,393.669462 455.163878,393.200335 C456.079871,392.713894 457.108818,392.30248 458.297713,391.9562 L456.93238,390.169559 L456.332986,389.401147 L455.510158,388.344992 C454.854699,388.503291 454.237166,388.708586 453.609739,388.914705 C452.253475,389.345082 450.943382,389.831523 449.755311,390.468844 C449.717385,390.486158 449.67039,390.524084 449.614325,390.543047 C447.995878,391.421939 446.900973,392.367614 446.311472,393.349565 C445.704657,394.388406 445.601597,395.370357 445.984979,396.316032 C446.331259,397.091865 447.116986,398.065572 448.31495,399.206647 C448.548277,399.431729 448.763465,399.637024 449.034718,399.881069 L450.485797,401.171375 L450.429733,401.189514 L447.107916,402.967085 L447.903536,403.677784 L450.260715,405.755465 L451.139607,406.523053 L451.495781,406.344966 L451.561739,406.30704 L453.049919,405.521314 L454.518312,404.745481 L455.706383,405.802461 L456.49211,406.50409 L469.122267,417.693887 L469.992915,418.4623 L470.357333,418.274319 L470.422467,418.236393 L476.064361,415.261681 L475.268741,414.532019" id="Shape"></path>
            <path d="M636.147221,329.334725 L634.397681,327.800374 L632.42306,326.041765 L630.897778,326.846454 L623.057005,331.010061 C622.926738,331.085089 622.75772,331.169185 622.551601,331.300277 C622.158325,331.51629 621.569649,331.880709 620.858126,332.31191 C620.596767,332.461965 620.362615,332.611195 620.06333,332.798351 L620.11857,331.581424 L620.128464,331.338203 L620.268625,328.615781 L620.362615,316.321185 L619.623884,315.67562 L618.735098,314.870931 L616.751407,313.111498 L615.291259,313.897224 L615.226126,313.93515 L597.720837,323.198145 L598.526351,323.899775 L601.060792,326.163787 L601.949578,326.949514 L602.305752,326.753288 L602.37171,326.725256 L610.071498,322.599575 C610.183626,322.533617 610.259478,322.486622 610.34275,322.44952 C610.951214,322.093346 611.484651,321.813849 611.951304,321.522808 C612.260483,321.354615 612.540805,321.177353 612.78485,321.018229 C612.746924,321.354615 612.719717,321.775923 612.69086,322.263188 C612.663652,322.786731 612.63562,323.366338 612.616657,324.039936 C612.606763,324.414248 612.606763,324.844625 612.597694,325.275002 L612.420432,337.335446 L613.159163,337.981011 L615.563337,340.123002 L616.433984,340.899659 L616.808296,340.703433 L616.855291,340.665507 L636.924702,330.047072 L636.147221,329.334725" id="Shape"></path>
            <path d="M733.132882,276.061166 C732.936657,275.948213 732.711575,275.837733 732.525243,275.734673 C731.533398,275.107246 730.168064,274.040374 728.454802,272.543948 L722.550725,267.192271 C721.858164,266.584631 721.20353,266.045424 720.585997,265.57877 C719.247871,264.553945 718.088657,263.852316 717.161945,263.53819 C715.945018,263.135845 714.496412,263.037733 712.87714,263.173771 C712.689159,263.19191 712.502828,263.164702 712.296709,263.19191 C710.678261,263.393082 708.69457,264.062557 706.430557,265.175601 C706.094171,265.348741 705.775923,265.479833 705.429643,265.671936 C702.454931,267.248335 700.686428,268.856889 700.087858,270.466267 C699.563491,271.87942 699.834744,273.497868 700.780419,275.219375 C700.893372,275.453527 700.986538,275.668715 701.136593,275.892973 L701.444947,275.808052 L702.127614,275.554937 L702.521713,275.434564 L707.433121,273.768296 C706.870828,272.73028 706.703459,271.925591 706.927717,271.251994 C707.1899,270.615498 707.844535,269.997965 708.921301,269.427427 C709.837295,268.94923 710.652702,268.621913 711.362576,268.444651 C711.896013,268.313559 712.401417,268.239356 712.831794,268.276457 C713.664515,268.332522 714.498061,268.669733 715.310995,269.305404 C715.489082,269.436496 715.676238,269.567588 715.853501,269.74485 L716.265739,270.09113 L716.386113,270.19419 C716.368799,270.213153 716.349011,270.250254 716.339118,270.260148 C715.609456,271.176142 714.084998,272.551369 711.754203,274.413862 C710.005488,275.817121 708.807523,277.024155 708.133926,278.025069 C707.478467,278.998776 707.282242,280.045862 707.515568,281.112734 C707.74972,282.216709 708.424142,283.227517 709.509153,284.219362 C709.519047,284.219362 709.536361,284.228432 709.546254,284.247395 C710.201713,284.817932 710.949514,285.286235 711.736064,285.659723 C711.885295,285.735575 712.034525,285.772676 712.165617,285.818847 C713.194564,286.278081 714.298538,286.614467 715.533604,286.744734 C715.57153,286.744734 715.598738,286.763697 715.627594,286.763697 C718.058976,286.98713 720.445836,286.501514 722.793121,285.266448 C724.121353,284.556573 725.151124,283.713958 725.899749,282.70315 C726.433185,281.993275 726.770396,281.169623 727.022686,280.289082 C727.107607,279.952696 727.237874,279.616309 727.274976,279.241172 C727.4341,279.3162 727.67732,279.446467 728.08049,279.66248 C728.406982,279.821604 728.66999,279.952696 728.92228,280.083787 C729.418615,280.327008 729.848167,280.532303 730.16724,280.664219 L735.70525,277.734853 L736.220548,277.463601 C735.041546,277.01591 734.030738,276.538538 733.132882,276.061166 M723.224322,278.624464 C722.859903,279.691337 722.120348,280.505095 721.025443,281.094596 C720.651955,281.300715 720.25868,281.393881 719.856335,281.50601 C719.220663,281.674203 718.546242,281.750055 717.845436,281.684097 C717.657456,281.656064 717.517295,281.581037 717.349101,281.562899 C717.180084,281.524973 717.030029,281.4417 716.843697,281.404599 C716.161031,281.208374 715.533604,280.955259 715.047163,280.524882 C714.831974,280.346795 714.691813,280.15057 714.559897,279.954345 C714.261436,279.44894 714.204548,278.906435 714.42963,278.307865 C714.662957,277.774428 715.448683,276.932638 716.806596,275.772599 C717.51647,275.202061 718.105971,274.696657 718.602306,274.238248 L718.631163,274.21104 C719.079678,273.798802 719.444097,273.442628 719.725243,273.143343 L720.717089,274.042023 C720.829217,274.154976 720.895176,274.21104 720.998235,274.304206 C721.268663,274.55732 721.54981,274.790647 721.755105,275.005836 C721.943085,275.202061 722.074177,275.324084 722.233301,275.483208 C722.569688,275.839382 722.840116,276.165874 722.981101,276.381063 C723.421372,277.090113 723.495575,277.848631 723.224322,278.624464" id="Shape"></path>
            <path d="M525.932006,383.900238 C525.594795,382.178731 524.640876,380.625417 523.115594,379.259259 C523.087562,379.232052 523.068599,379.222158 523.040567,379.194126 C522.872374,379.063034 522.684393,378.922873 522.5162,378.772818 C520.981849,377.547646 519.335369,376.65886 517.575936,376.134493 C515.734055,375.591987 513.814673,375.404006 511.831807,375.544992 C511.672683,375.554061 511.512734,375.554061 511.363504,375.554061 C509.212444,375.742042 506.283903,376.405746 502.569636,377.491581 C498.836406,378.567523 496.291246,379.063034 494.916019,378.9979 C494.692586,378.979762 494.504605,378.90391 494.298486,378.866808 C494.213565,378.84867 494.167395,378.819813 494.074229,378.810744 C493.401456,378.660689 492.783098,378.455395 492.342828,378.062944 C492.128464,377.866718 491.979233,377.668844 491.846493,377.463549 C491.566171,377.015034 491.500213,376.527768 491.66923,376.023188 C492.080644,374.900251 493.194512,373.852341 495.055356,372.879459 C496.272283,372.234718 497.432322,371.831549 498.508264,371.645217 C499.013668,371.579259 499.510003,371.523195 499.976657,371.542158 C501.127626,371.589153 502.316522,371.935433 503.541694,372.580998 C503.803878,372.711266 504.056167,372.879459 504.317527,373.038583 C504.458512,373.094647 504.616812,373.151536 504.756973,373.226564 L510.867169,369.699452 C510.819349,369.652457 510.773179,369.634319 510.726184,369.606287 C510.473069,369.400167 510.212535,369.250113 509.95942,369.063781 C507.57256,367.342274 504.850963,366.323221 501.763298,366.089069 C501.04353,366.023936 500.313043,366.061037 499.574312,366.107208 C496.917024,366.285295 494.148432,367.08009 491.238853,368.540238 C491.013771,368.652367 490.808477,368.736464 490.593288,368.857662 C488.141295,370.148792 486.391755,371.505881 485.29685,372.975098 C484.211839,374.434422 483.809494,375.948986 484.080747,377.484161 C484.361069,379.028406 485.184721,380.403633 486.578087,381.610667 C486.578087,381.619736 486.59705,381.638699 486.606944,381.638699 C487.29868,382.265301 488.102544,382.770705 488.964122,383.210151 C489.151279,383.323105 489.366467,383.360206 489.553623,383.463266 C491.097043,384.183034 492.818551,384.688438 494.811311,384.875594 C494.830274,384.875594 494.858306,384.875594 494.877269,384.894557 C497.309475,385.081713 500.612329,384.595272 504.747903,383.416271 C507.975729,382.537378 510.071549,381.956122 511.035362,381.768966 C511.494596,381.656837 511.868084,381.638699 512.260535,381.591704 C513.112219,381.498538 513.888876,381.451543 514.487446,381.553778 C515.292135,381.712077 515.975626,382.050113 516.565127,382.517591 C516.621192,382.554692 516.695395,382.573655 516.74239,382.638789 C516.976541,382.82677 517.154628,383.041134 517.312928,383.246428 L517.331066,383.284354 C517.83647,383.995053 517.966738,384.817881 517.743304,385.736348 C517.424232,386.933488 516.236986,388.074564 514.188161,389.169469 C513.682757,389.440721 513.186422,389.665804 512.690911,389.843066 C511.231588,390.384747 509.790403,390.619723 508.32201,390.525733 C508.153816,390.525733 507.965836,390.470493 507.798467,390.450705 C505.982969,390.25448 504.149333,389.561919 502.202744,388.326853 L501.117733,389.038377 L500.847304,389.215639 L496.476754,392.060084 C496.785932,392.275272 497.122319,392.453359 497.431498,392.649585 C497.917939,392.957939 498.395311,393.294325 498.881752,393.557333 C499.331092,393.800554 499.779607,394.006673 500.228947,394.230106 C502.445965,395.278016 504.719871,395.914512 507.049842,396.08353 C507.086944,396.08353 507.124045,396.101668 507.18011,396.120631 C510.91334,396.373746 514.74963,395.447858 518.744219,393.332251 C521.485604,391.872103 523.460225,390.366609 524.648296,388.822364 C525.838841,387.268225 526.259324,385.621746 525.932006,383.900238" id="Shape"></path>
            <path d="M778.940805,114.078712 L778.940805,113.97153 C780.344064,113.550222 781.504103,112.507259 781.504103,110.790699 C781.504103,109.527601 781.082795,108.633868 780.306138,108.059208 C779.511343,107.507633 778.211143,107.081378 776.217559,107.081378 C774.646106,107.081378 773.607266,107.23638 772.503291,107.390557 L772.503291,120.51705 L774.618074,120.51705 L774.618074,114.866087 L776.067504,114.866087 C777.733771,114.866087 778.575562,115.497636 778.883916,117.163079 C779.1461,118.889533 779.463523,120.086673 779.79249,120.51705 L781.972406,120.51705 C781.757217,120.086673 781.457932,119.300947 781.139684,117.270261 C780.877501,115.332741 780.081881,114.288953 778.940805,114.078712 M776.114499,113.241043 L774.618899,113.241043 L774.618899,108.797114 C774.982493,108.74105 775.441726,108.694055 776.114499,108.694055 C778.464258,108.694055 779.296155,109.849971 779.296155,111.000116 C779.296155,112.609494 777.845076,113.241043 776.114499,113.241043 M776.844986,102.350531 L776.79799,102.350531 C770.37037,102.350531 765.149784,107.571118 765.149784,114.106744 C765.149784,120.735536 770.37037,125.909127 776.79799,125.909127 C783.272605,125.909127 788.399201,120.735536 788.399201,114.106744 C788.399201,107.571118 783.271781,102.350531 776.844986,102.350531 M776.844986,124.080438 C771.624399,124.080438 767.385765,119.692573 767.385765,114.106744 C767.385765,108.614905 771.624399,104.170976 776.79799,104.170976 L776.844986,104.170976 C782.075465,104.170976 786.257211,108.614905 786.257211,114.153739 C786.257211,119.692573 782.074641,124.136502 776.844986,124.080438" id="Shape"></path>
            <path d="M88.664219,113.466126 C57.0216296,142.956831 3.51391948,210.240721 0.781603865,329.484779 C-0.500457327,385.631639 19.0256232,440.33649 53.0072528,475.824438 C75.106525,498.895768 101.051156,511.376696 128.052767,511.929095 C181.448348,513.014106 209.732019,473.354306 213.408361,436.051684 C213.689507,433.169314 213.838738,430.362795 213.838738,427.612341 C213.838738,404.146911 203.621823,386.268135 187.482692,381.486995 C187.519794,382.478841 187.55772,383.564676 187.55772,384.873121 C187.55772,395.94172 185.592992,417.582583 171.717874,432.476754 C161.735111,443.18011 147.485681,448.297636 129.380998,447.652071 C64.4963349,445.369919 39.8988986,372.167111 38.5146023,304.419865 C37.0734171,233.340908 82.4039678,97.1579775 174.244071,90.3280129 C174.927562,90.3189436 227.732818,90.0617069 229.267169,134.016206 C229.276238,134.292406 229.781643,160.316187 197.662506,165.326531 C184.058641,167.450383 165.767626,153.701411 169.210641,133.72599 C169.987298,129.207034 170.248657,124.903266 172.382403,121.712541 C131.364689,124.215652 139.888953,169.349153 148.571517,180.731053 C158.292921,193.493127 172.588522,203.166712 192.208593,203.840309 C214.363929,204.588934 229.867388,193.988638 238.970435,184.97381 C252.36818,171.707156 260.769597,152.629591 260.377147,136.373385 C259.993765,120.987002 253.585108,70.5059452 186.837952,67.3251143 C158.273134,65.9647279 120.652264,83.6431562 88.664219,113.466126" id="Shape"></path>
            <path d="M752.996174,131.424876 L752.996174,131.424876 C730.176309,131.645011 723.805578,155.133527 722.121172,165.070119 C727.397823,162.684084 738.661823,157.589643 738.661823,157.589643 C749.4501,154.328837 756.784644,154.553095 760.80809,158.113185 C763.445591,160.433262 763.867723,166.403298 763.829797,166.739684 L763.829797,167.217056 C763.829797,188.479485 732.281198,203.289559 730.91504,203.912039 C615.377005,255.571272 549.528528,275.564831 499.903279,298.161262 C470.823987,311.408953 360.842924,342.396084 278.387839,421.765153 C348.87647,410.452509 382.633842,418.471369 390.343523,420.800515 C442.850319,342.995478 559.960631,294.193056 718.6122,230.343111 C780.877501,205.282319 790.79513,175.810576 784.666795,152.893424 C781.054763,139.353868 767.966196,130.868354 752.996174,131.424876" id="Shape"></path>
        </g>
    </g>
</svg>