<?xml version="1.0" encoding="UTF-8" standalone="no"?>
<svg width="1216px" height="437px" viewBox="0 0 1216 437" version="1.1" xmlns="http://www.w3.org/2000/svg" xmlns:xlink="http://www.w3.org/1999/xlink" xmlns:sketch="http://www.bohemiancoding.com/sketch/ns">
    <!-- Generator: Sketch 3.5.2 (25235) - http://www.bohemiancoding.com/sketch -->
    <title>Capital One</title>
    <desc>Created with Sketch.</desc>
    <defs>
        <path id="path-1" d="M0.230152319,10.0903622 L1839.48635,10.0903622 L1839.48635,504.869395 L0.230152319,504.869395 L0.230152319,10.0903622 L0.230152319,10.0903622 Z"></path>
        <linearGradient x1="12.7279859%" y1="34.3800869%" x2="92.0995147%" y2="116.182125%" id="linearGradient-3">
            <stop stop-color="#B5121B" offset="0%"></stop>
            <stop stop-color="#BE3D2E" offset="69.9997%"></stop>
            <stop stop-color="#BE3D2E" offset="69.9997%"></stop>
            <stop stop-color="#F6E2DA" offset="100%"></stop>
        </linearGradient>
        <path id="path-4" d="M3.28269886,7.99476476 L1769.7502,7.99476476 L1769.7502,444.084956 L3.28269886,444.084956 L3.28269886,7.99476476 L3.28269886,7.99476476 Z"></path>
    </defs>
    <g id="Page-1" stroke="none" stroke-width="1" fill="none" fill-rule="evenodd" sketch:type="MSPage">
        <g id="Capital-One" sketch:type="MSLayerGroup" transform="translate(-40.000000, -29.000000)">
            <g id="layer1" transform="translate(1.019525, 0.404407)">
                <g id="g5061" transform="translate(920.703434, 255.437235) scale(1, -1) translate(-920.703434, -255.437235) translate(0.094159, 1.058356)">
                    <g id="g4210">
                        <g id="g4212-Clipped">
                            <mask id="mask-2" sketch:name="path4216" fill="white">
                                <use xlink:href="#path-1"></use>
                            </mask>
                            <g id="path4216"></g>
                            <g id="g4212" mask="url(#mask-2)">
                                <g transform="translate(702.570236, 48.453120)">
                                    <g id="g4218" transform="translate(0.549943, 0.421542)">
                                        <path d="M169.585919,96.9062395 C169.283087,96.7245403 168.931802,96.5186146 168.580517,96.3490286 L80.7453955,56.1106859 L6.79555005,9.03650683 C71.5168048,38.2295115 124.173233,63.9460048 174.01938,90.4740879 C172.444653,92.5454587 170.978946,94.677396 169.585919,96.9062395" id="path4220" fill="#B5121B" sketch:type="MSShapeGroup"></path>
                                    </g>
                                    <g id="g4222" transform="translate(338.701843, 186.026063)">
                                        <path d="M169.585919,193.812479 L87.7955461,116.557425 L7.80095228,16.8859122 C8.70944828,13.2761548 9.44835835,9.59371771 9.96922939,5.74169469 C10.2357215,5.87494077 10.4658739,6.05663997 10.7444793,6.22622589 C139.096794,85.0231119 208.723927,134.493747 169.585919,193.812479" id="path4224" fill="#B5121B" sketch:type="MSShapeGroup"></path>
                                    </g>
                                </g>
                            </g>
                        </g>
                    </g>
                    <g id="g4226" transform="translate(363.398398, 36.339840)" fill="url(#linearGradient-3)" sketch:type="MSShapeGroup">
                        <g id="g4228">
                            <g id="g4234">
                                <g id="g4236">
                                    <path d="M10.9504051,363.84659 L5.72958141,362.707941 C4.63938622,362.550469 3.96104254,361.508727 4.14274174,360.430645 L4.14274174,360.430645 C4.32444094,359.340449 5.32984317,358.662106 6.42003837,358.819578 L6.42003837,358.819578 L11.5681823,359.837094 C196.453174,392.760989 580.916566,438.391714 663.650268,356.360583 L663.650268,356.360583 C688.88223,331.346659 682.849817,299.076882 653.584132,261.053296 L653.584132,261.053296 C669.355623,250.938707 680.60886,234.973404 685.684324,215.022832 L685.684324,215.022832 C778.908127,277.042825 847.166459,336.712842 849.383189,378.346186 L849.383189,378.346186 L849.383189,382.440474 C848.959225,390.205087 846.039924,397.291355 840.346683,403.578148 L840.346683,403.578148 C813.721693,432.940738 739.830686,444.084956 644.632419,444.084956 L644.632419,444.084956 C448.276151,444.084956 161.215643,396.673578 10.9504051,363.84659 M500.617633,128.55824 C448.906041,91.9397947 387.600731,53.4680177 321.680262,13.0702291 L321.680262,13.0702291 L319.08802,11.5681823 C318.179524,10.9625183 317.973598,9.71485051 318.615602,8.85480764 L318.615602,8.85480764 C319.209153,7.94631164 320.444708,7.7282726 321.34109,8.37027644 L321.34109,8.37027644 L323.545707,9.53315131 C379.460607,38.7019294 443.660991,73.3580233 508.309566,108.886273 L508.309566,108.886273 C508.757757,109.09341 509.012136,109.249672 509.302855,109.443484 L509.302855,109.443484 C505.753664,115.269972 502.846477,121.665784 500.799333,128.679373 L500.799333,128.679373 C500.738766,128.643033 500.690313,128.618806 500.617633,128.55824" id="path4248"></path>
                                </g>
                            </g>
                        </g>
                    </g>
                    <g id="g4274" transform="translate(1143.049069, 112.056319)" fill="#005288" sketch:type="MSShapeGroup">
                        <path d="M96.9062395,48.4531198 L100.830942,45.8003115 C90.9343925,25.6074738 70.7415548,9.33933883 47.0116394,9.33933883 C27.6303915,9.33933883 11.7014284,22.2520952 10.8777254,46.5271082 C9.29088571,89.9653301 50.0157329,130.351005 83.3635925,130.351005 C97.6451496,130.351005 110.909191,124.076326 111.490629,108.680348 C112.738296,74.1453865 64.2003837,63.5826064 32.2092114,62.8558096 C31.2038091,59.2581655 30.8282974,55.6120682 30.9978834,50.0762993 C31.5308677,35.7584024 40.2160894,23.7056888 58.1316304,23.7056888 C73.6002889,23.7056888 89.093174,36.1823672 96.9062395,48.4531198 M92.557572,110.860738 C92.2789666,119.025089 88.1967912,124.512404 79.7296086,124.512404 C59.4035248,124.512404 37.8055467,84.7081666 34.0746565,68.6459574 C67.4225161,68.6459574 93.3570485,88.5117365 92.557572,110.860738" id="path4276"></path>
                    </g>
                    <g id="g4278" transform="translate(1029.348978, 115.151262)" fill="#005288" sketch:type="MSShapeGroup">
                        <path d="M12.1132799,109.019519 C15.5534514,109.479824 20.7863884,109.976469 23.1605912,109.976469 C26.8188018,109.976469 30.24686,109.273898 30.4406725,105.676254 C30.4891256,103.544317 26.6007627,88.1241116 25.8012863,84.5628073 L18.0730137,50.5002641 C14.9599007,36.5094257 11.5802956,21.9250367 8.56408892,10.3810809 L28.4056415,10.3810809 L39.5861988,64.3941962 C73.6366288,99.8739931 86.7553109,111.442175 94.7864155,111.442175 C98.4203995,111.442175 100.903622,109.552504 101.085321,105.21595 C101.279134,98.9412705 97.4149973,84.7808463 96.0825365,80.7107842 L84.6597135,41.3547377 C82.0674716,32.4878168 80.1535734,24.5051653 80.3352726,18.7876972 C80.698671,10.1630419 85.9316079,6.33524541 93.6719938,6.33524541 C108.20793,6.33524541 118.73437,21.4283922 127.928349,36.2913867 L124.972709,40.6279409 C121.253932,34.6560939 112.907882,22.1673023 106.112332,22.1673023 C103.956168,22.1673023 101.933251,23.584556 101.860571,27.1822002 C101.666759,31.7973598 103.604883,38.6534763 104.961571,43.2444094 L117.607835,89.3838927 C120.98744,102.090723 122.622733,110.279301 122.53794,114.603742 C122.222995,123.216284 117.18387,127.262119 109.504051,127.262119 C96.4338216,127.262119 79.0633782,117.704741 42.3238001,75.4172809 L41.8029291,75.4172809 L46.430202,96.0461966 C48.937651,107.335774 51.4087601,119.109882 53.7950762,127.262119 C41.1124721,122.646959 23.1969311,117.668401 11.943694,115.512238 L12.1132799,109.019519 L12.1132799,109.019519 Z" id="path4280"></path>
                    </g>
                    <g id="g4282" transform="translate(858.322790, 117.641752)" fill="#005288" sketch:type="MSShapeGroup">
                        <path d="M12.1132799,72.6796796 C10.2599481,126.692795 52.5595217,181.929351 114.046531,181.929351 C155.159003,181.929351 182.038371,154.529112 183.528304,112.592937 C185.502769,55.6120682 145.98925,3.30692542 81.6313935,3.30692542 C40.5310347,3.30692542 13.6153267,30.6587115 12.1132799,72.6796796 M38.8836286,70.9959337 C39.937484,39.3439332 59.9486224,13.4215142 86.064854,13.4215142 C136.686251,13.4215142 158.199436,75.5626403 156.709503,117.086964 C155.655647,148.811644 135.087298,174.697723 109.007406,174.697723 C65.5086179,174.697723 37.3694686,112.774636 38.8836286,70.9959337" id="path4284"></path>
                    </g>
                    <g id="g4286" transform="translate(778.370297, 145.693686)" fill="#005288" sketch:type="MSShapeGroup">
                        <path d="M60.5663997,12.1132799 L10.0903622,12.0406003 L35.4555704,153.48737 L84.6476002,152.118569 L60.5663997,12.1132799 L60.5663997,12.1132799 Z" id="path4288"></path>
                    </g>
                    <g id="g4290" transform="translate(631.145493, 152.850212)" fill="#005288" sketch:type="MSShapeGroup">
                        <path d="M157.472639,84.7929596 C157.278827,79.8022882 156.394557,75.4172809 155.03787,67.8828208 L146.037703,17.0797247 C145.262453,12.6220377 146.921972,9.10918651 151.064714,6.60173757 L150.786109,4.85742526 L99.0502901,4.74840574 L98.6263253,17.6853887 C91.0918651,13.0944556 81.9342255,9.27877243 73.7698748,7.07415548 C65.5207312,4.88165182 58.8826538,4.02160894 48.8770846,4.02160894 C32.1607582,4.02160894 22.6397202,5.68112829 16.0137561,11.5197292 C9.27877243,17.5279161 6.00818685,21.4526188 6.39581181,29.6533093 C6.57751101,34.4259416 9.03650683,40.5189214 12.6099244,44.7101163 C16.2317951,49.070897 21.1013337,51.8448381 26.4311768,54.3522871 C31.7852466,56.8718493 38.0720388,58.7251811 47.120659,60.2393411 C56.338865,61.6687082 69.0941488,63.2313213 86.1859868,64.648575 C95.065021,65.3753718 100.552337,67.4104029 103.084012,68.3794653 C106.705883,69.796719 108.123137,71.3593321 108.656121,74.254406 C109.564617,79.3783234 107.953551,82.4187567 101.061095,83.8117839 C82.3218505,87.5063343 47.4598308,81.4254678 29.4352703,76.9435542 L39.1864606,103.362618 C63.0375088,106.839129 85.2169244,109.080086 108.668234,109.080086 C145.892344,109.080086 157.763358,98.3961729 157.472639,84.7929596 M104.065188,51.5056663 C101.836344,50.7546429 98.9654971,49.9309399 95.4647592,49.1314634 C91.9761346,48.2956471 85.5560962,47.253905 76.2046441,45.7276318 C69.8209456,44.7101163 65.3026922,43.3897687 62.8558096,41.5606635 C60.4816067,39.8163512 59.064353,37.6480741 58.5555952,35.0316056 C58.0468375,32.2455512 59.064353,29.9803678 61.3901027,28.2845087 C63.8854384,26.5765362 68.0402934,25.7407199 73.8788943,25.7407199 C78.1791087,25.7407199 82.4187567,26.3827237 86.5736117,27.6667314 C90.8132597,29.0960984 94.3018843,30.8888638 97.0515989,33.2509534 C98.9654971,34.9468126 100.419091,37.1877694 101.472946,39.8163512 C102.090723,41.5243236 102.950766,45.4247998 104.065188,51.5056663" id="path4292"></path>
                    </g>
                    <g id="g4294" transform="translate(562.281496, 150.694048)" fill="#005288" sketch:type="MSShapeGroup">
                        <path d="M24.2265599,109.019519 L27.7878642,129.672662 L79.5963625,140.938012 L74.0969334,109.019519 L99.4863681,109.019519 L94.677396,88.5965295 L70.0632112,88.6570959 L55.0911972,7.11049532 C55.0911972,7.11049532 5.16025725,7.43755388 4.99067133,7.11049532 L19.8778924,88.4632834 L1.06596863,88.4632834 L4.8937651,109.019519 L24.2265599,109.019519 L24.2265599,109.019519 Z" id="path4296"></path>
                    </g>
                    <g id="g4298" transform="translate(488.156702, 149.360376)" fill="#005288" sketch:type="MSShapeGroup">
                        <path d="M24.2265599,133.246079 C25.6922668,141.580016 38.859402,148.327113 53.5649239,148.327113 C68.2946723,148.327113 79.0391516,141.580016 77.6097846,133.246079 C76.0350582,124.900029 62.9406026,118.116593 48.1745143,118.116593 C33.4205394,118.116593 22.7366264,124.900029 24.2265599,133.246079 L24.2265599,133.246079 Z M3.51285118,8.37027644 L21.4768453,109.770543 L71.0201603,109.770543 L53.0682794,8.37027644 L3.51285118,8.37027644 L3.51285118,8.37027644 Z" id="path4300"></path>
                    </g>
                    <g id="g4302" transform="translate(335.878237, 122.749922)" fill="#005288" sketch:type="MSShapeGroup">
                        <path d="M0,0 L24.1296536,135.874661 L67.6284419,135.874661 L64.2730634,118.528444 C68.0402934,123.712928 74.0605935,127.964689 82.3945301,131.429087 C90.8011464,134.857146 100.285845,137.400934 110.521566,137.400934 C121.871709,137.400934 128.897412,136.79527 137.400934,132.39815 C145.84389,127.964689 151.718831,121.532538 154.940964,113.162261 C158.223663,104.888891 158.87778,95.6222318 157.133467,85.5560962 C154.177827,68.8155433 146.001363,55.5878416 132.628302,45.909331 C119.327921,36.2065937 107.372113,33.6506917 90.3166152,33.5901253 C84.2599753,33.5901253 79.2208508,34.2200158 75.0296559,35.2496446 C70.9111408,36.3156133 67.6284419,37.6117342 65.1573328,39.2106872 C62.7710166,40.8096401 60.2393411,43.0384836 56.9687556,46.5755614 L48.8770846,0 L0,0 L0,0 Z M90.2439355,112.617164 C83.7512175,112.617164 77.8520502,110.630586 72.6433398,106.705883 C67.458856,102.756954 64.1761571,97.0273723 62.8558096,89.3475528 C61.2810832,80.4927452 62.1895792,74.1453865 65.7145437,70.2327971 C69.2395081,66.3202077 74.339199,64.3578563 81.0136162,64.3578563 C85.5197564,64.3578563 90.219709,65.1694461 93.6356539,66.8895318 C97.8753019,69.1304886 100.794602,71.4925782 103.350504,75.2355817 C106.051766,79.1602844 107.856645,83.4968386 108.789367,88.5844162 C110.194508,96.5912942 109.007406,102.587368 105.288629,106.560524 C101.678872,110.606359 96.712427,112.617164 90.2439355,112.617164 L90.2439355,112.617164 Z" id="path4304"></path>
                    </g>
                    <g id="g4306" transform="translate(36.339840, 36.339840)">
                        <g id="g4308-Clipped">
                            <mask id="mask-5" sketch:name="path4312" fill="white">
                                <use xlink:href="#path-4"></use>
                            </mask>
                            <g id="path4312"></g>
                            <g id="g4308" mask="url(#mask-5)">
                                <g transform="translate(0.000000, 109.019519)">
                                    <g id="g4314" transform="translate(147.825623, 7.650748)">
                                        <path d="M157.472639,84.7929596 C157.266713,79.8507414 156.394557,75.4899606 155.07421,67.9312739 L146.02559,17.176631 C145.238226,12.6947174 146.909859,9.12129979 151.113167,6.72287037 L150.822449,4.72417918 L99.0502901,4.79685886 L98.614212,17.7338418 C91.043412,13.155022 81.9584521,9.32722555 73.733535,7.08626876 C65.5328445,4.99067133 58.8947671,4.05794878 48.937651,4.05794878 C32.2334379,4.05794878 22.6154936,5.76592125 16.0258694,11.5681823 C9.29088571,17.5642559 6.04452669,21.5252985 6.38369853,29.7381023 C6.63807741,34.4743947 9.08495995,40.5552612 12.6462643,44.7949092 C16.2196818,49.1072369 21.1013337,51.9296311 26.4311768,54.4007402 C31.76102,56.9687556 38.035699,58.8099741 47.1812254,60.2272279 C56.3509783,61.7413879 69.0820355,63.2313213 86.1738735,64.648575 C95.1134741,65.3995984 100.60079,67.458856 103.180919,68.5005981 C106.742223,69.881512 108.13525,71.3835587 108.668234,74.3149724 C109.625183,79.5357961 107.953551,82.5035497 101.024755,83.8723503 C82.3945301,87.5547874 47.4477175,81.5102607 29.4110437,76.9920073 L39.2228004,103.398958 C62.9527158,106.839129 85.2411509,109.092199 108.692461,109.092199 C145.928683,109.092199 157.860264,98.4688526 157.472639,84.7929596 M104.053075,51.5662327 C101.860571,50.7546429 99.0139502,49.9672797 95.501099,49.2041431 C91.9882479,48.4046666 85.5560962,47.2660183 76.2530972,45.8124247 C69.8572854,44.7949092 65.3874851,43.4382219 62.8679229,41.6333432 C60.4452669,39.8284644 59.0280131,37.6844139 58.6161616,35.0800587 C58.1195171,32.3182309 59.0280131,30.0893874 61.4264426,28.3329618 C63.8854384,26.612876 68.0281801,25.7286066 73.8183279,25.7286066 C78.1669954,25.7286066 82.4429833,26.4432901 86.5736117,27.7515243 C90.7648066,29.1082117 94.289771,30.9857701 97.015259,33.3115198 C99.0139502,35.0316056 100.455431,37.1998827 101.509286,39.8284644 C102.11495,41.5727768 102.987106,45.4611396 104.053075,51.5662327" id="path4316" fill="#005288" sketch:type="MSShapeGroup"></path>
                                    </g>
                                    <g id="g4318" transform="translate(2.084695, 0.382780)">
                                        <path d="M145.359359,48.4531198 C129.200244,45.2552139 120.127397,44.0196593 104.210547,44.0196593 C80.529085,44.0196593 61.705048,55.7816541 62.7225635,77.3311791 C63.4493603,91.6733026 80.4442921,121.956502 123.640248,121.956502 C137.243462,121.956502 147.878921,119.54596 162.172592,111.393722 L168.435158,146.594914 C149.005457,153.971901 136.116927,155.049983 119.449053,154.892511 C62.8436963,154.274733 8.44295612,128.5219 1.70797247,76.1804175 C-5.16025725,22.9910053 59.7911498,9.63005755 88.6570959,9.75119035 C105.300743,9.81175675 122.61062,10.4658739 138.757622,12.1617331 L145.359359,48.4531198 L145.359359,48.4531198 Z" id="path4320" fill="#005288" sketch:type="MSShapeGroup"></path>
                                    </g>
                                </g>
                            </g>
                        </g>
                    </g>
                </g>
            </g>
        </g>
    </g>
</svg>