<?xml version="1.0" encoding="UTF-8" standalone="no"?>
<!-- Created with Inkscape (http://www.inkscape.org/) -->

<svg
   xmlns:dc="http://purl.org/dc/elements/1.1/"
   xmlns:cc="http://creativecommons.org/ns#"
   xmlns:rdf="http://www.w3.org/1999/02/22-rdf-syntax-ns#"
   xmlns:svg="http://www.w3.org/2000/svg"
   xmlns="http://www.w3.org/2000/svg"
   xmlns:sodipodi="http://sodipodi.sourceforge.net/DTD/sodipodi-0.dtd"
   xmlns:inkscape="http://www.inkscape.org/namespaces/inkscape"
   width="1000"
   height="359.57645"
   id="svg2"
   version="1.1"
   inkscape:version="0.48.2 r9819"
   sodipodi:docname="Capital One old.svg">
  <defs
     id="defs4">
    <clipPath
       id="clipPath3637"
       clipPathUnits="userSpaceOnUse">
      <path
         inkscape:connector-curvature="0"
         id="path3639"
         d="m 15.512,732.154 99.988,0 0,26.846 -99.988,0 0,-26.846 z" />
    </clipPath>
    <clipPath
       id="clipPath4214"
       clipPathUnits="userSpaceOnUse">
      <path
         inkscape:connector-curvature="0"
         id="path4216"
         d="m 428.019,731.833 151.838,0 0,40.846 -151.838,0 0,-40.846 z" />
    </clipPath>
    <linearGradient
       id="linearGradient4238"
       spreadMethod="pad"
       gradientTransform="matrix(55.385788,29.449097,29.449097,-55.385788,467.22122,747.03754)"
       gradientUnits="userSpaceOnUse"
       y2="0"
       x2="1"
       y1="0"
       x1="0">
      <stop
         id="stop4240"
         offset="0"
         style="stop-opacity:1;stop-color:#b5121b" />
      <stop
         id="stop4242"
         offset="0.699997"
         style="stop-opacity:1;stop-color:#be3d2e" />
      <stop
         id="stop4244"
         offset="0.699997"
         style="stop-opacity:1;stop-color:#be3d2e" />
      <stop
         id="stop4246"
         offset="1"
         style="stop-opacity:1;stop-color:#f6e2da" />
    </linearGradient>
    <clipPath
       id="clipPath4310"
       clipPathUnits="userSpaceOnUse">
      <path
         inkscape:connector-curvature="0"
         id="path4312"
         d="m 431.271,734.66 145.829,0 0,36.001 -145.829,0 0,-36.001 z" />
    </clipPath>
  </defs>
  <sodipodi:namedview
     id="base"
     pagecolor="#ffffff"
     bordercolor="#666666"
     borderopacity="1.0"
     inkscape:pageopacity="0.0"
     inkscape:pageshadow="2"
     inkscape:zoom="0.98994949"
     inkscape:cx="804.59954"
     inkscape:cy="62.640373"
     inkscape:document-units="px"
     inkscape:current-layer="g5061"
     showgrid="false"
     fit-margin-left="0.5"
     fit-margin-bottom="0.5"
     fit-margin-top="0.5"
     fit-margin-right="0.5"
     inkscape:window-width="1920"
     inkscape:window-height="1028"
     inkscape:window-x="-8"
     inkscape:window-y="-8"
     inkscape:window-maximized="1" />
  <metadata
     id="metadata7">
    <rdf:RDF>
      <cc:Work
         rdf:about="">
        <dc:format>image/svg+xml</dc:format>
        <dc:type
           rdf:resource="http://purl.org/dc/dcmitype/StillImage" />
        <dc:title></dc:title>
      </cc:Work>
    </rdf:RDF>
  </metadata>
  <g
     inkscape:label="Layer 1"
     inkscape:groupmode="layer"
     id="layer1"
     transform="translate(598.83832,-75.66747)">
    <g
       transform="matrix(9.9603337,0,0,-9.9603337,-4893.9454,7752.2082)"
       id="g5061">
      <g
         id="g4210">
        <g
           id="g4212"
           clip-path="url(#clipPath4214)">
          <g
             id="g4218"
             transform="translate(500.0454,743.0348)">
            <path
               inkscape:connector-curvature="0"
               d="M 0,0 C -0.025,-0.015 -0.054,-0.032 -0.083,-0.046 L -7.3341427,-3.3678371 -13.439,-7.254 c 5.343,2.41 9.69,4.533 13.805,6.723 C 0.236,-0.36 0.115,-0.184 0,0"
               style="fill:#b5121b;fill-opacity:1;fill-rule:nonzero;stroke:none"
               id="path4220"
               sodipodi:nodetypes="cccccc" />
          </g>
          <g
             id="g4222"
             transform="translate(527.9612,766.3572)">
            <path
               inkscape:connector-curvature="0"
               d="M 0,0 -6.7521244,-6.3777156 -13.356,-14.606 c 0.075,-0.298 0.136,-0.602 0.179,-0.92 0.022,0.011 0.041,0.026 0.064,0.04 C -2.517,-8.981 3.231,-4.897 0,0"
               style="fill:#b5121b;fill-opacity:1;fill-rule:nonzero;stroke:none"
               id="path4224"
               sodipodi:nodetypes="cccccc" />
          </g>
        </g>
      </g>
      <g
         id="g4226">
        <g
           id="g4228">
          <g
             id="g4234">
            <g
               id="g4236">
              <path
                 inkscape:connector-curvature="0"
                 d="m 458.904,764.037 -0.431,-0.094 c -0.09,-0.013 -0.146,-0.099 -0.131,-0.188 l 0,0 c 0.015,-0.09 0.098,-0.146 0.188,-0.133 l 0,0 0.425,0.084 c 15.263,2.718 47.002,6.485 53.832,-0.287 l 0,0 c 2.083,-2.065 1.585,-4.729 -0.831,-7.868 l 0,0 c 1.302,-0.835 2.231,-2.153 2.65,-3.8 l 0,0 c 7.696,5.12 13.331,10.046 13.514,13.483 l 0,0 0,0.338 c -0.035,0.641 -0.276,1.226 -0.746,1.745 l 0,0 c -2.198,2.424 -8.298,3.344 -16.157,3.344 l 0,0 c -16.21,0 -39.908,-3.914 -52.313,-6.624 m 40.424,-19.424 c -4.269,-3.023 -9.33,-6.199 -14.772,-9.534 l 0,0 -0.214,-0.124 c -0.075,-0.05 -0.092,-0.153 -0.039,-0.224 l 0,0 c 0.049,-0.075 0.151,-0.093 0.225,-0.04 l 0,0 0.182,0.096 c 4.616,2.408 9.916,5.269 15.253,8.202 l 0,0 c 0.037,0.0171 0.058,0.03 0.082,0.046 l 0,0 c -0.293,0.481 -0.533,1.009 -0.702,1.588 l 0,0 c -0.005,-0.003 -0.009,-0.005 -0.015,-0.01"
                 style="fill:url(#linearGradient4238);stroke:none"
                 id="path4248"
                 sodipodi:nodetypes="ccccccccccccccccccccccccccccccccccccc" />
            </g>
          </g>
        </g>
      </g>
      <g
         id="g4274"
         transform="translate(530.3633,744.2507)">
        <path
           inkscape:connector-curvature="0"
           d="m 0,0 0.324,-0.219 c -0.817,-1.667 -2.484,-3.01 -4.443,-3.01 -1.6,0 -2.915,1.066 -2.983,3.07 -0.131,3.586 3.231,6.92 5.984,6.92 1.179,0 2.274,-0.518 2.322,-1.789 C 1.307,2.121 -2.7,1.249 -5.341,1.189 -5.424,0.892 -5.455,0.591 -5.441,0.134 c 0.044,-1.182 0.761,-2.177 2.24,-2.177 1.277,0 2.556,1.03 3.201,2.043 m -0.359,5.152 c -0.023,0.674 -0.36,1.127 -1.059,1.127 -1.678,0 -3.461,-3.286 -3.769,-4.612 2.753,0 4.894,1.64 4.828,3.485"
           style="fill:#005288;fill-opacity:1;fill-rule:nonzero;stroke:none"
           id="path4276" />
      </g>
      <g
         id="g4278"
         transform="translate(513.9769,749.5062)">
        <path
           inkscape:connector-curvature="0"
           d="m 0,0 c 0.284,0.038 0.716,0.079 0.912,0.079 0.302,0 0.585,-0.058 0.601,-0.355 C 1.517,-0.452 1.196,-1.725 1.13,-2.019 L 0.492,-4.831 C 0.235,-5.986 -0.044,-7.19 -0.293,-8.143 l 1.638,0 0.923,4.459 C 5.079,-0.755 6.162,0.2 6.825,0.2 7.125,0.2 7.33,0.044 7.345,-0.314 7.361,-0.832 7.042,-2.001 6.932,-2.337 L 5.989,-5.586 C 5.775,-6.318 5.617,-6.977 5.632,-7.449 c 0.03,-0.712 0.462,-1.028 1.101,-1.028 1.2,0 2.069,1.246 2.828,2.473 L 9.317,-5.646 C 9.01,-6.139 8.321,-7.17 7.76,-7.17 c -0.178,0 -0.345,0.117 -0.351,0.414 -0.016,0.381 0.144,0.947 0.256,1.326 l 1.044,3.809 C 8.988,-0.572 9.123,0.104 9.116,0.461 9.09,1.172 8.674,1.506 8.04,1.506 6.961,1.506 5.527,0.717 2.494,-2.774 l -0.043,0 0.382,1.703 C 3.04,-0.139 3.244,0.833 3.441,1.506 2.394,1.125 0.915,0.714 -0.014,0.536 L 0,0 z"
           style="fill:#005288;fill-opacity:1;fill-rule:nonzero;stroke:none"
           id="path4280" />
      </g>
      <g
         id="g4282"
         transform="translate(499.858,746.7118)">
        <path
           inkscape:connector-curvature="0"
           d="m 0,0 c -0.153,4.459 3.339,9.019 8.415,9.019 3.394,0 5.613,-2.262 5.736,-5.724 C 14.314,-1.409 11.052,-5.727 5.739,-5.727 2.346,-5.727 0.124,-3.469 0,0 m 2.21,-0.139 c 0.087,-2.613 1.739,-4.753 3.895,-4.753 4.179,0 5.955,5.13 5.832,8.558 C 11.85,6.285 10.152,8.422 7.999,8.422 4.408,8.422 2.085,3.31 2.21,-0.139"
           style="fill:#005288;fill-opacity:1;fill-rule:nonzero;stroke:none"
           id="path4284" />
      </g>
      <g
         id="g4286"
         transform="translate(497.2576,744.0276)">
        <path
           inkscape:connector-curvature="0"
           d="M 0,0 -4.167,-0.006 -2.073,11.671 1.988,11.558 0,0 z"
           style="fill:#005288;fill-opacity:1;fill-rule:nonzero;stroke:none"
           id="path4288" />
      </g>
      <g
         id="g4290"
         transform="translate(493.1036,750.6184)">
        <path
           inkscape:connector-curvature="0"
           d="M 0,0 C -0.016,-0.412 -0.089,-0.774 -0.201,-1.396 L -0.944,-5.59 c -0.064,-0.368 0.073,-0.658 0.415,-0.865 l -0.023,-0.144 -4.271,-0.009 -0.035,1.068 c -0.622,-0.379 -1.378,-0.694 -2.052,-0.876 -0.681,-0.181 -1.229,-0.252 -2.055,-0.252 -1.38,0 -2.166,0.137 -2.713,0.619 -0.556,0.496 -0.826,0.82 -0.794,1.497 0.015,0.394 0.218,0.897 0.513,1.243 0.299,0.36 0.701,0.589 1.141,0.796 0.442,0.208 0.961,0.361 1.708,0.486 0.761,0.118 1.814,0.247 3.225,0.364 0.733,0.06 1.186,0.228 1.395,0.308 0.299,0.117 0.416,0.246 0.46,0.485 0.075,0.423 -0.058,0.674 -0.627,0.789 -1.547,0.305 -4.425,-0.197 -5.913,-0.567 l 0.805,2.181 c 1.969,0.287 3.8,0.472 5.736,0.472 C -0.956,2.005 0.024,1.123 0,0 m -4.409,-2.748 c -0.184,-0.062 -0.421,-0.13 -0.71,-0.196 -0.288,-0.069 -0.818,-0.155 -1.59,-0.281 -0.527,-0.084 -0.9,-0.193 -1.102,-0.344 -0.196,-0.144 -0.313,-0.323 -0.355,-0.539 -0.042,-0.23 0.042,-0.417 0.234,-0.557 0.206,-0.141 0.549,-0.21 1.031,-0.21 0.355,0 0.705,0.053 1.048,0.159 0.35,0.118 0.638,0.266 0.865,0.461 0.158,0.14 0.278,0.325 0.365,0.542 0.051,0.141 0.122,0.463 0.214,0.965"
           style="fill:#005288;fill-opacity:1;fill-rule:nonzero;stroke:none"
           id="path4292" />
      </g>
      <g
         id="g4294"
         transform="translate(476.4186,752.4404)">
        <path
           inkscape:connector-curvature="0"
           d="M 0,0 0.294,1.705 4.571,2.635 4.117,0 6.213,0 5.816,-1.686 3.784,-1.681 2.548,-8.413 c 0,0 -4.122,0.027 -4.136,0 l 1.229,6.716 -1.553,0 L -1.596,0 0,0 z"
           style="fill:#005288;fill-opacity:1;fill-rule:nonzero;stroke:none"
           id="path4296" />
      </g>
      <g
         id="g4298"
         transform="translate(470.2993,754.3303)">
        <path
           inkscape:connector-curvature="0"
           d="M 0,0 C 0.121,0.688 1.208,1.245 2.422,1.245 3.638,1.245 4.525,0.688 4.407,0 4.277,-0.689 3.196,-1.249 1.977,-1.249 0.759,-1.249 -0.123,-0.689 0,0 m -1.71,-10.309 1.483,8.371 4.09,0 -1.482,-8.371 -4.091,0 z"
           style="fill:#005288;fill-opacity:1;fill-rule:nonzero;stroke:none"
           id="path4300" />
      </g>
      <g
         id="g4302"
         transform="translate(455.7281,741.1335)">
        <path
           inkscape:connector-curvature="0"
           d="m 0,0 1.992,11.217 3.591,0 -0.277,-1.432 c 0.311,0.428 0.808,0.779 1.496,1.065 0.694,0.283 1.477,0.493 2.322,0.493 0.937,0 1.517,-0.05 2.219,-0.413 0.697,-0.366 1.182,-0.897 1.448,-1.588 C 13.062,8.659 13.116,7.894 12.972,7.063 12.728,5.681 12.053,4.589 10.949,3.79 9.851,2.989 8.864,2.778 7.456,2.773 6.956,2.773 6.54,2.825 6.194,2.91 5.854,2.998 5.583,3.105 5.379,3.237 5.182,3.369 4.973,3.553 4.703,3.845 L 4.035,0 0,0 z M 7.45,9.297 C 6.914,9.297 6.427,9.133 5.997,8.809 5.569,8.483 5.298,8.01 5.189,7.376 5.059,6.645 5.134,6.121 5.425,5.798 5.716,5.475 6.137,5.313 6.688,5.313 c 0.372,0 0.76,0.067 1.042,0.209 0.35,0.185 0.591,0.38 0.802,0.689 0.223,0.324 0.372,0.682 0.449,1.102 0.116,0.661 0.018,1.156 -0.289,1.484 -0.298,0.334 -0.708,0.5 -1.242,0.5"
           style="fill:#005288;fill-opacity:1;fill-rule:nonzero;stroke:none"
           id="path4304" />
      </g>
      <g
         id="g4306">
        <g
           id="g4308"
           clip-path="url(#clipPath4310)">
          <g
             id="g4314"
             transform="translate(456.2036,750.6316)">
            <path
               inkscape:connector-curvature="0"
               d="m 0,0 c -0.017,-0.408 -0.089,-0.768 -0.198,-1.392 l -0.747,-4.19 c -0.065,-0.37 0.073,-0.665 0.42,-0.863 l -0.024,-0.165 -4.274,0.006 -0.036,1.068 c -0.625,-0.378 -1.375,-0.694 -2.054,-0.879 -0.677,-0.173 -1.225,-0.25 -2.047,-0.25 -1.379,0 -2.173,0.141 -2.717,0.62 -0.556,0.495 -0.824,0.822 -0.796,1.5 0.021,0.391 0.223,0.893 0.517,1.243 0.295,0.356 0.698,0.589 1.138,0.793 0.44,0.212 0.958,0.364 1.713,0.481 0.757,0.125 1.808,0.248 3.219,0.365 0.738,0.062 1.191,0.232 1.404,0.318 0.294,0.114 0.409,0.238 0.453,0.48 0.079,0.431 -0.059,0.676 -0.631,0.789 -1.538,0.304 -4.423,-0.195 -5.912,-0.568 l 0.81,2.18 c 1.959,0.284 3.799,0.47 5.735,0.47 C -0.953,2.006 0.032,1.129 0,0 m -4.41,-2.743 c -0.181,-0.067 -0.416,-0.132 -0.706,-0.195 -0.29,-0.066 -0.821,-0.16 -1.589,-0.28 -0.528,-0.084 -0.897,-0.196 -1.105,-0.345 -0.2,-0.149 -0.317,-0.326 -0.351,-0.541 -0.041,-0.228 0.034,-0.412 0.232,-0.557 0.203,-0.142 0.545,-0.215 1.023,-0.215 0.359,0 0.712,0.059 1.053,0.167 0.346,0.112 0.637,0.267 0.862,0.459 0.165,0.142 0.284,0.321 0.371,0.538 0.05,0.144 0.122,0.465 0.21,0.969"
               style="fill:#005288;fill-opacity:1;fill-rule:nonzero;stroke:none"
               id="path4316" />
          </g>
          <g
             id="g4318"
             transform="translate(443.1721,747.0316)">
            <path
               inkscape:connector-curvature="0"
               d="m 0,0 c -1.334,-0.264 -2.083,-0.366 -3.397,-0.366 -1.955,0 -3.509,0.971 -3.425,2.75 0.06,1.184 1.463,3.684 5.029,3.684 1.123,0 2.001,-0.199 3.181,-0.872 L 1.905,8.102 C 0.301,8.711 -0.763,8.8 -2.139,8.787 -6.812,8.736 -11.303,6.61 -11.859,2.289 c -0.567,-4.391 4.795,-5.494 7.178,-5.484 1.374,0.005 2.803,0.059 4.136,0.199 L 0,0 z"
               style="fill:#005288;fill-opacity:1;fill-rule:nonzero;stroke:none"
               id="path4320" />
          </g>
        </g>
      </g>
    </g>
  </g>
</svg>
