<?xml version="1.0" encoding="UTF-8" standalone="no"?>
<svg
   xmlns:dc="http://purl.org/dc/elements/1.1/"
   xmlns:cc="http://creativecommons.org/ns#"
   xmlns:rdf="http://www.w3.org/1999/02/22-rdf-syntax-ns#"
   xmlns:svg="http://www.w3.org/2000/svg"
   xmlns="http://www.w3.org/2000/svg"
   xmlns:sodipodi="http://sodipodi.sourceforge.net/DTD/sodipodi-0.dtd"
   xmlns:inkscape="http://www.inkscape.org/namespaces/inkscape"
   version="1.1"
   id="Layer_1"
   x="0px"
   y="0px"
   width="589"
   height="472"
   viewBox="0 0 589 472.00001"
   enable-background="new 0 0 708.661 827.717"
   xml:space="preserve">
<path
   style="fill:#005bab"
   inkscape:connector-curvature="0"
   d="m 120.45493,437.10862 c -7.61249,0 -13.17228,3.83846 -13.17228,11.18402 0,6.8807 4.8326,11.67648 12.0861,11.67648 4.8372,0 9.6744,-2.68785 12.69363,-6.53092 v -9.79867 c 0,-3.26776 -4.23428,-6.53091 -11.60745,-6.53091 m 164.53852,-1.35773 c 0.35899,12.89614 8.58362,22.22535 22.72702,22.22535 8.58822,0 15.11914,-4.6531 17.41117,-7.57567 1.08618,0.81924 2.18157,2.0435 2.18157,4.89243 0,6.41585 -7.74136,15.28943 -25.75545,15.28943 -18.12915,0 -32.88929,-14.45638 -32.88929,-33.35415 0,-20.80779 13.66475,-35.67839 33.86041,-35.67839 18.35928,0 26.83244,13.52207 26.83244,25.03747 0,3.39663 -0.7272,6.54012 -2.18158,9.16353 h -42.18629 z m 25.63579,-8.33509 c 2.89956,0 3.02383,-1.69831 3.02383,-3.97193 -0.12427,-6.78405 -5.45394,-13.06643 -13.54509,-13.06643 -10.51666,0 -14.63127,8.81374 -14.99027,17.03836 h 25.51153 z m 170.57236,7.11543 c 0,15.75888 2.18617,23.7902 12.34844,23.7902 11.10117,0 14.13881,-9.91373 14.13881,-18.92078 V 422.2104 c 0,-5.90497 -2.79831,-8.19701 -9.19575,-7.50663 -2.65563,-6.63677 6.15811,-10.86185 11.13339,-11.83297 1.55564,-0.23933 3.01462,-0.47866 4.35854,-0.47866 7.00037,0 9.68822,4.36775 9.68822,10.89406 0,2.39789 -0.23473,6.77025 -0.23473,24.85798 0,7.64931 -0.12427,11.68568 -0.12427,12.95136 0,5.95561 2.75689,8.98864 9.14972,8.29366 2.61881,6.65058 -6.1397,9.80328 -11.13799,10.72838 -1.53262,0.23012 -2.92717,0.46485 -4.07779,0.46485 -6.64598,0 -7.9945,-4.31252 -9.33382,-10.49365 -0.93891,1.15982 -1.80417,2.10793 -3.60834,3.84767 -4.35395,4.07779 -10.0334,6.53091 -16.44925,6.53091 -7.01418,0 -12.93756,-2.69244 -16.68858,-7.11082 -5.79912,-6.8807 -5.79912,-15.74967 -5.79912,-28.70104 v -12.44049 c 0,-5.90498 -2.7845,-8.19701 -9.18654,-7.50664 -2.66023,-6.63677 6.17192,-10.86184 11.12418,-11.83297 1.56945,-0.23933 3.01462,-0.47865 4.34934,-0.47865 7.00497,0 9.6698,4.36774 9.6698,10.89406 l -0.12426,21.24042 z m -30.57885,1.35313 c 0,-20.4442 -14.14341,-34.33907 -33.73155,-34.33907 -18.12915,0 -34.2148,13.89487 -34.2148,34.33907 0,20.70194 15.10992,34.5784 33.61188,34.5784 19.57893,0 34.33447,-14.10659 34.33447,-34.5784 m -303.44584,18.01409 c 0,5.21461 3.37822,6.8761 9.30621,7.69534 -0.3636,6.05686 -4.59788,8.40412 -9.55014,8.86897 -5.5644,0.46485 -11.00452,-2.11254 -13.17689,-7.92086 -2.54517,2.31044 -10.038,8.15099 -19.83207,8.15099 -13.41622,0 -23.454216,-8.98864 -23.454216,-21.23123 0,-12.94216 11.243846,-20.60988 27.080966,-20.60988 5.44933,0 11.11958,1.13221 14.50701,2.88575 v -8.66646 c 0,-7.76438 -3.38743,-12.69363 -12.20577,-12.69363 -1.81798,0 -5.80372,0.47866 -8.95182,1.6753 0.3636,1.22886 0.61213,2.54057 0.61213,3.74642 0,4.74055 -3.02382,8.58361 -8.10035,8.58361 -4.478213,0 -7.865635,-3.60834 -7.865635,-8.21542 0,-8.46395 10.645525,-14.62667 25.396465,-14.62667 11.72711,0 18.86555,2.7799 22.61196,7.6079 3.37822,4.24808 3.62215,10.779 3.62215,20.20487 v 24.545 z m 286.15894,-17.01996 c 0,15.70826 -6.77485,24.24585 -16.32038,24.24585 -8.46395,0 -16.68398,-8.53299 -16.68398,-27.16381 0,-14.51621 6.04305,-23.57849 15.95679,-23.57849 9.78946,-0.005 17.04757,10.0426 17.04757,26.49645 M 195.04726,413.03307 c 0.3636,4.12382 3.87068,7.01417 7.97609,7.01417 5.2008,0 8.34429,-4.61168 8.34429,-9.07608 0,-6.29159 -5.07653,-9.55014 -10.15766,-9.55014 -5.79912,0 -11.96644,4.35855 -15.46893,10.87565 l -0.24393,0.11967 c -1.08618,-5.78992 -3.87068,-10.15767 -9.6744,-10.15767 -1.33012,0 -2.7799,0.24853 -4.34934,0.72719 -4.8372,1.44978 -11.97104,5.18699 -9.30621,11.83297 6.77025,-1.3025 9.18655,0.97572 9.18655,6.8807 v 28.11652 c 0,5.58281 -0.72259,7.92087 -2.66024,9.55935 -1.81797,1.38994 -3.74641,1.96525 -4.95686,2.20458 -2.7799,6.05686 2.66023,7.94388 16.08105,7.94388 13.42082,0 18.01409,-1.88242 15.23419,-7.94388 -1.21045,-0.24393 -4.59327,-0.81924 -6.40664,-2.20458 -1.93765,-1.63848 -2.7799,-3.97654 -2.7799,-9.55935 v -16.96012 c -0.005,-15.11913 5.55519,-19.09567 9.18194,-19.82286 m 166.35649,-9.80328 h 17.2869 c 2.05731,4.94767 -0.72259,8.93801 -4.59327,9.30621 -1.21045,0.12887 -2.54057,0.12887 -3.74641,0.12887 -3.1481,0 -6.28699,-0.24853 -8.46396,-0.24853 v 37.40432 c 0,5.5828 0.96652,7.92086 2.89956,9.55934 1.81798,1.38995 6.05226,1.96526 7.26271,2.20459 2.77989,6.05685 -3.75562,7.94387 -17.17184,7.94387 -13.41622,0 -18.97601,-1.88241 -16.20071,-7.94387 1.20585,-0.24394 3.14809,-0.81925 4.95686,-2.20459 1.93304,-1.63848 2.65563,-3.97654 2.65563,-9.55934 V 412.1632 l -10.15306,-0.35899 c -2.05731,-4.93846 0.72259,-8.45475 4.8326,-8.45475 h 5.08574 v -4.8372 c 0,-9.79407 1.80877,-15.2388 4.22967,-18.86555 3.74181,-5.80373 10.15306,-9.78947 20.18186,-9.78947 12.69823,0 22.97095,5.92339 22.97095,14.866 0,3.87068 -2.66023,8.58362 -8.22002,8.58362 -4.10541,0 -7.97609,-3.50709 -7.97609,-7.85183 0,-1.82258 0.72719,-3.75562 1.68911,-4.95686 -1.44518,-1.69372 -4.469,-2.54517 -7.37317,-2.54517 -8.34428,0 -10.15306,6.16731 -10.15306,13.90408 v 11.37271 z m -111.3477,9.80328 c 0.3636,4.12382 3.87069,7.01417 7.9807,7.01417 5.20079,0 8.33968,-4.61168 8.33968,-9.07608 0,-6.29159 -5.07653,-9.55014 -10.15306,-9.55014 -5.80372,0 -11.97104,4.35855 -15.46892,10.87565 l -0.24853,0.11967 c -1.08159,-5.78992 -3.86608,-10.15767 -9.66981,-10.15767 -1.32551,0 -2.77989,0.24853 -4.34934,0.72719 -4.8418,1.44978 -11.97564,5.18699 -9.3108,11.83297 6.77024,-1.3025 9.18193,0.97572 9.18193,6.8807 v 28.11652 c 0,5.58281 -0.71798,7.92087 -2.65562,9.55935 -1.81338,1.38994 -3.74182,1.96525 -4.94767,2.20458 -2.78449,6.05686 2.66024,7.94388 16.07185,7.94388 13.41622,0 18.01869,-1.88242 15.2342,-7.94388 -1.20585,-0.24393 -4.58867,-0.81924 -6.40665,-2.20458 -1.93304,-1.63848 -2.7799,-3.97654 -2.7799,-9.55935 v -16.96012 c -0.005,-15.11913 5.55519,-19.09567 9.18194,-19.82286 m 321.7683,0 c 0.40502,4.12382 3.93972,7.01417 8.06814,7.01417 5.12716,0 8.27065,-4.61168 8.27065,-9.07608 0,-6.29159 -5.00289,-9.55014 -10.15306,-9.55014 -5.78071,0 -11.87899,4.35855 -15.37227,10.87565 l -0.35439,0.11967 c -1.05857,-5.78992 -3.86608,-10.15767 -9.56395,-10.15767 -1.41756,0 -2.7937,0.24853 -4.45059,0.72719 -4.76817,1.44978 -11.87899,5.18699 -9.2878,11.83297 6.79325,-1.3025 9.17273,0.97572 9.17273,6.8807 v 28.11652 c 0,5.58281 -0.69497,7.92087 -2.69244,9.55935 -1.73514,1.38994 -3.72801,1.96525 -4.88323,2.20458 -2.80751,6.05686 2.68324,7.94388 16.09486,7.94388 13.41621,0 17.95426,-1.88242 15.14675,-7.94388 -1.15062,-0.24393 -4.53344,-0.81924 -6.41586,-2.20458 -1.84099,-1.63848 -2.65562,-3.97654 -2.65562,-9.55935 v -16.96012 c 0.005,-15.11913 5.46774,-19.09567 9.07608,-19.82286"
   id="path7-1" /><path
   style="fill:none;stroke:#005bab;stroke-width:1.48199725"
   inkscape:connector-curvature="0"
   d="m 120.45493,437.10862 c -7.61249,0 -13.17228,3.83846 -13.17228,11.18402 0,6.8807 4.8326,11.67648 12.0861,11.67648 4.8372,0 9.6744,-2.68785 12.69363,-6.53092 v -9.79867 c 0,-3.26776 -4.23428,-6.53091 -11.60745,-6.53091 z m 164.53852,-1.35773 c 0.35899,12.89614 8.58362,22.22535 22.72702,22.22535 8.58822,0 15.11914,-4.6531 17.41117,-7.57567 1.08618,0.81924 2.18157,2.0435 2.18157,4.89243 0,6.41585 -7.74136,15.28943 -25.75545,15.28943 -18.12915,0 -32.88929,-14.45638 -32.88929,-33.35415 0,-20.80779 13.66475,-35.67839 33.86041,-35.67839 18.35928,0 26.83244,13.52207 26.83244,25.03747 0,3.39663 -0.7272,6.54012 -2.18158,9.16353 h -42.18629 z m 25.63579,-8.33509 c 2.89956,0 3.02383,-1.69831 3.02383,-3.97193 -0.12427,-6.78405 -5.45394,-13.06643 -13.54509,-13.06643 -10.51666,0 -14.63127,8.81374 -14.99027,17.03836 h 25.51153 z m 170.57236,7.11543 c 0,15.75888 2.18617,23.7902 12.34844,23.7902 11.10117,0 14.13881,-9.91373 14.13881,-18.92078 V 422.2104 c 0,-5.90497 -2.79831,-8.19701 -9.19575,-7.50663 -2.65563,-6.63677 6.15811,-10.86185 11.13799,-11.83297 1.55104,-0.23933 3.01002,-0.47866 4.35394,-0.47866 7.00037,0 9.68822,4.36775 9.68822,10.89406 0,2.39789 -0.23473,6.77025 -0.23473,24.85798 0,7.64931 -0.12427,11.68568 -0.12427,12.95136 0,5.95561 2.75689,8.98864 9.14972,8.29366 2.61881,6.65058 -6.1397,9.80328 -11.13799,10.72838 -1.53262,0.23012 -2.92717,0.46485 -4.07779,0.46485 -6.64598,0 -7.9945,-4.31252 -9.33382,-10.49365 -0.93891,1.15982 -1.80417,2.10793 -3.60834,3.84767 -4.35395,4.07779 -10.0334,6.53091 -16.44925,6.53091 -7.01418,0 -12.93756,-2.69244 -16.68858,-7.11082 -5.79912,-6.8807 -5.79912,-15.74967 -5.79912,-28.70104 v -12.44049 c 0,-5.90498 -2.7845,-8.19701 -9.18654,-7.50664 -2.66023,-6.63677 6.17192,-10.86184 11.12418,-11.83297 1.56945,-0.23933 3.01462,-0.47865 4.34934,-0.47865 7.00497,0 9.6698,4.36774 9.6698,10.89406 l -0.12426,21.24042 z m -30.57885,1.35313 c 0,-20.4442 -14.14341,-34.33907 -33.73155,-34.33907 -18.12915,0 -34.2148,13.89487 -34.2148,34.33907 0,20.70194 15.10992,34.5784 33.61188,34.5784 19.57893,0 34.33447,-14.10659 34.33447,-34.5784 z m -303.44584,18.01409 c 0,5.21461 3.37822,6.8761 9.30621,7.69534 -0.3636,6.05686 -4.59788,8.40412 -9.55014,8.86897 -5.5644,0.46485 -11.00452,-2.11254 -13.17689,-7.92086 -2.54517,2.31044 -10.038,8.15099 -19.83207,8.15099 -13.41622,0 -23.454216,-8.98864 -23.454216,-21.23123 0,-12.94216 11.248446,-20.60988 27.080966,-20.60988 5.44933,0 11.11958,1.13221 14.50701,2.88575 v -8.66646 c 0,-7.76438 -3.38743,-12.69363 -12.20577,-12.69363 -1.81798,0 -5.80372,0.47866 -8.95182,1.6753 0.3636,1.22886 0.61213,2.54057 0.61213,3.74642 0,4.74055 -3.02382,8.58361 -8.10035,8.58361 -4.478213,0 -7.865635,-3.60834 -7.865635,-8.21542 0,-8.46395 10.645525,-14.62667 25.396465,-14.62667 11.72711,0 18.86555,2.7799 22.61196,7.6079 3.37822,4.24808 3.62215,10.779 3.62215,20.20487 v 24.545 z m 286.15894,-17.01996 c 0,15.70826 -6.77485,24.24585 -16.32038,24.24585 -8.46395,0 -16.68398,-8.53299 -16.68398,-27.16381 0,-14.51621 6.04305,-23.57849 15.95679,-23.57849 9.78946,-0.005 17.04757,10.0426 17.04757,26.49645 z M 195.04726,413.03307 c 0.3636,4.12382 3.87068,7.01417 7.97609,7.01417 5.2008,0 8.34429,-4.61168 8.34429,-9.07608 0,-6.29159 -5.07653,-9.55014 -10.15766,-9.55014 -5.79912,0 -11.96644,4.35855 -15.46893,10.87565 l -0.24393,0.11967 c -1.08618,-5.78992 -3.87068,-10.15767 -9.6744,-10.15767 -1.33012,0 -2.7799,0.24853 -4.34934,0.72719 -4.8372,1.44978 -11.97104,5.18699 -9.30621,11.83297 6.77025,-1.3025 9.18655,0.97572 9.18655,6.8807 v 28.11652 c 0,5.58281 -0.72259,7.92087 -2.66024,9.55935 -1.81797,1.38994 -3.74641,1.96525 -4.95686,2.20458 -2.7799,6.05686 2.66023,7.94388 16.08105,7.94388 13.42082,0 18.01409,-1.88242 15.23419,-7.94388 -1.21045,-0.24393 -4.59327,-0.81924 -6.40664,-2.20458 -1.93765,-1.63848 -2.7799,-3.97654 -2.7799,-9.55935 v -16.96012 c -0.005,-15.11913 5.55519,-19.09567 9.18194,-19.82286 z m 166.35649,-9.80328 h 17.2869 c 2.05731,4.94767 -0.72259,8.93801 -4.59327,9.30621 -1.21045,0.12887 -2.54057,0.12887 -3.74641,0.12887 -3.1481,0 -6.28699,-0.24853 -8.46396,-0.24853 v 37.40432 c 0,5.5828 0.96652,7.92086 2.89956,9.55934 1.81798,1.38995 6.05226,1.96526 7.26271,2.20459 2.77989,6.05685 -3.75562,7.94387 -17.17184,7.94387 -13.41622,0 -18.97601,-1.88241 -16.20071,-7.94387 1.20585,-0.24394 3.14809,-0.81925 4.95686,-2.20459 1.93304,-1.63848 2.65563,-3.97654 2.65563,-9.55934 V 412.1632 l -10.15306,-0.35899 c -2.05731,-4.93846 0.72259,-8.45475 4.8326,-8.45475 h 5.08574 v -4.8372 c 0,-9.79407 1.80877,-15.2388 4.22967,-18.86555 3.74181,-5.80373 10.15306,-9.78947 20.18186,-9.78947 12.69823,0 22.97095,5.92339 22.97095,14.866 0,3.87068 -2.66023,8.58362 -8.22002,8.58362 -4.10541,0 -7.97609,-3.50709 -7.97609,-7.85183 0,-1.82258 0.72719,-3.75562 1.68911,-4.95686 -1.44518,-1.69372 -4.469,-2.54517 -7.37317,-2.54517 -8.34428,0 -10.15306,6.16731 -10.15306,13.90408 v 11.37271 z m -111.3477,9.80328 c 0.3636,4.12382 3.87069,7.01417 7.9807,7.01417 5.20079,0 8.33968,-4.61168 8.33968,-9.07608 0,-6.29159 -5.07653,-9.55014 -10.15306,-9.55014 -5.80372,0 -11.97104,4.35855 -15.46892,10.87565 l -0.24853,0.11967 c -1.08159,-5.78992 -3.86608,-10.15767 -9.66981,-10.15767 -1.32551,0 -2.77989,0.24853 -4.34934,0.72719 -4.8418,1.44978 -11.97564,5.18699 -9.3108,11.83297 6.77024,-1.3025 9.18193,0.97572 9.18193,6.8807 v 28.11652 c 0,5.58281 -0.71798,7.92087 -2.65562,9.55935 -1.81338,1.38994 -3.74182,1.96525 -4.94767,2.20458 -2.78449,6.05686 2.66024,7.94388 16.07185,7.94388 13.41622,0 18.01869,-1.88242 15.2342,-7.94388 -1.20585,-0.24393 -4.58867,-0.81924 -6.40665,-2.20458 -1.93304,-1.63848 -2.7799,-3.97654 -2.7799,-9.55935 v -16.96012 c -0.005,-15.11913 5.55519,-19.09567 9.18194,-19.82286 z m 321.7683,0 c 0.40502,4.12382 3.93972,7.01417 8.06814,7.01417 5.12716,0 8.27065,-4.61168 8.27065,-9.07608 0,-6.29159 -5.00289,-9.55014 -10.15306,-9.55014 -5.78071,0 -11.87899,4.35855 -15.37227,10.87565 l -0.35439,0.11967 c -1.05857,-5.78992 -3.86608,-10.15767 -9.56395,-10.15767 -1.41756,0 -2.7937,0.24853 -4.45059,0.72719 -4.76817,1.44978 -11.87899,5.18699 -9.2878,11.83297 6.79325,-1.3025 9.17273,0.97572 9.17273,6.8807 v 28.11652 c 0,5.58281 -0.69497,7.92087 -2.69244,9.55935 -1.73514,1.38994 -3.72801,1.96525 -4.88323,2.20458 -2.80751,6.05686 2.68324,7.94388 16.09486,7.94388 13.41621,0 17.95426,-1.88242 15.14675,-7.94388 -1.15062,-0.24393 -4.53344,-0.81924 -6.41586,-2.20458 -1.84099,-1.63848 -2.65562,-3.97654 -2.65562,-9.55935 v -16.96012 c 0.005,-15.11913 5.46774,-19.09567 9.07608,-19.82286 z"
   id="path9-7" /><path
   style="fill:#005bab"
   inkscape:connector-curvature="0"
   d="m 0.94244262,422.51417 c 0,30.50981 21.02871238,48.57913 43.88000538,48.57913 20.554657,0 34.937394,-14.45177 34.937394,-26.48265 0,-6.40664 -3.985744,-11.06435 -9.186541,-11.06435 -5.320463,0 -9.789467,3.60834 -9.789467,9.80788 0,3.95813 2.172369,6.17192 3.746416,7.91626 -2.784498,5.37569 -8.707885,9.79867 -17.899029,9.79867 -15.229593,0 -26.22951,-15.86474 -26.22951,-38.67921 0,-22.84209 10.512055,-38.80347 25.750852,-38.80347 9.191145,0 15.109929,4.4736 17.894427,9.79867 -1.574047,1.80877 -3.746416,3.98574 -3.746416,7.97609 0,6.16732 4.473607,9.78946 9.794069,9.78946 5.200798,0 9.181939,-4.69912 9.181939,-11.11958 0,-11.97564 -14.382737,-26.47804 -34.937394,-26.47804 -22.855895,-0.005 -43.39674538,19.82747 -43.39674538,48.96114"
   id="path11-4" /><path
   style="fill:none;stroke:#005bab;stroke-width:1.85479772"
   inkscape:connector-curvature="0"
   d="m 0.94244262,422.51417 c 0,30.50981 21.02871238,48.57913 43.88000538,48.57913 20.554657,0 34.937394,-14.45177 34.937394,-26.48265 0,-6.40664 -3.985744,-11.06435 -9.186541,-11.06435 -5.320463,0 -9.789467,3.60834 -9.789467,9.80788 0,3.95813 2.172369,6.17192 3.746416,7.91626 -2.784498,5.37569 -8.707885,9.79867 -17.899029,9.79867 -15.229593,0 -26.22951,-15.86474 -26.22951,-38.67921 0,-22.84209 10.512055,-38.80347 25.750852,-38.80347 9.191145,0 15.109929,4.4736 17.894427,9.79867 -1.574047,1.80877 -3.746416,3.98574 -3.746416,7.97609 0,6.16732 4.473607,9.78946 9.794069,9.78946 5.200798,0 9.181939,-4.69912 9.181939,-11.11958 0,-11.97564 -14.382737,-26.47804 -34.937394,-26.47804 -22.855895,-0.005 -43.39674538,19.82747 -43.39674538,48.96114 z"
   id="path13-0" /><path
   style="fill:#ed1c24"
   inkscape:connector-curvature="0"
   d="M 198.95937,10.52814 70.68376,134.6247 c -6.406647,5.44012 -10.498248,11.82836 -10.498248,20.96888 0,9.09909 4.096204,15.51034 10.498248,20.99189 l 128.27561,124.05514 c 0.82384,0.84225 1.62007,1.17823 2.29663,1.17823 1.21505,0 2.05271,-1.10459 2.01589,-2.40249 -0.0368,-0.76401 -0.3682,-1.64309 -1.12761,-2.4025 -30.1094,-37.40892 -52.01718,-80.3132 -52.01718,-140.96923 0,-60.692849 21.90778,-104.439383 52.01718,-141.875922 0.75941,-0.750203 1.09079,-1.615469 1.12761,-2.39789 0.0414,-1.325513 -0.80084,-2.3978897 -2.01589,-2.3978897 -0.67656,-0.013807 -1.47279,0.3175709 -2.29663,1.1552217"
   id="path15-9" /><path
   style="fill:#005bab"
   inkscape:connector-curvature="0"
   d="m 297.57662,0.02068731 c -50.22682,0 -69.85178,71.17728969 -69.85178,156.01473269 0,84.86505 19.62496,155.09423 69.85178,155.09423 30.14161,0 55.83263,-17.6505 55.91548,-32.1575 0.0138,-3.17571 -1.21045,-6.21795 -3.87529,-8.87357 -14.28608,-13.80283 -19.87349,-27.59645 -19.91491,-39.77 -0.0921,-23.2379 20.06679,-40.54781 38.65159,-40.54781 25.54834,0 40.61685,20.0806 40.61685,46.08459 0,24.64166 -10.49825,45.1641 -21.92159,61.59954 -0.45104,0.67196 -0.65355,1.42216 -0.65355,2.08032 0.009,1.28869 0.76861,2.34726 1.90542,2.34726 0.69037,0 1.50041,-0.3682 2.38408,-1.25648 L 518.99253,176.58087 c 6.40664,-5.47695 10.49824,-11.8928 10.49824,-20.99189 0,-9.13592 -4.0962,-15.52876 -10.49824,-20.96888 L 390.6847,10.523537 c -0.87907,-0.8790726 -1.6891,-1.2518731 -2.38408,-1.2518731 -1.14601,0 -1.89622,1.0677741 -1.90542,2.3610701 0,0.662757 0.20251,1.403755 0.65355,2.084922 11.41874,16.412429 21.92159,36.957881 21.92159,61.581127 0,25.985577 -15.06851,46.084587 -40.61685,46.084587 -18.5848,0 -38.74364,-17.2961 -38.65159,-40.538603 0.0414,-12.173549 5.62883,-25.980977 19.91491,-39.769995 2.66484,-2.669436 3.88909,-5.684057 3.87529,-8.864368 C 353.40925,17.680387 327.71823,0.02068731 297.57662,0.02068731"
   id="path17-4" /></svg>