<?xml version="1.0" encoding="UTF-8" standalone="no"?>
<svg width="639px" height="512px" viewBox="0 0 639 512" version="1.1" xmlns="http://www.w3.org/2000/svg" xmlns:xlink="http://www.w3.org/1999/xlink">
    <!-- Generator: Sketch 3.6.1 (26313) - http://www.bohemiancoding.com/sketch -->
    <title>carrefour</title>
    <desc>Created with Sketch.</desc>
    <defs></defs>
    <g id="Page-1" stroke="none" stroke-width="1" fill="none" fill-rule="evenodd">
        <g id="carrefour">
            <path d="M130.662975,474.151723 C122.405359,474.151723 116.3744,478.315477 116.3744,486.283542 C116.3744,493.747352 121.616542,498.949554 129.484746,498.949554 C134.731878,498.949554 139.97901,496.03392 143.254107,491.865166 L143.254107,481.2361 C143.254107,477.691412 138.66099,474.151723 130.662975,474.151723 L130.662975,474.151723 Z M309.145437,472.678932 C309.53485,486.667965 318.456483,496.787786 333.798476,496.787786 C343.114511,496.787786 350.198899,491.740355 352.685169,488.57011 C353.863398,489.458777 355.051618,490.786788 355.051618,493.877153 C355.051618,500.836719 346.65421,510.462297 327.113502,510.462297 C307.447984,510.462297 291.436984,494.7808 291.436984,474.281524 C291.436984,451.710362 306.259764,435.579542 328.166921,435.579542 C348.082072,435.579542 357.273296,450.24755 357.273296,462.738831 C357.273296,466.423311 356.484469,469.833199 354.906837,472.678932 L309.145437,472.678932 L309.145437,472.678932 Z M336.953752,463.637478 C340.099037,463.637478 340.233839,461.795243 340.233839,459.328944 C340.099037,451.969974 334.3177,445.155189 325.54086,445.155189 C314.132957,445.155189 309.669652,454.715856 309.280228,463.637478 L336.953752,463.637478 L336.953752,463.637478 Z M521.981397,471.355911 C521.981397,488.450289 524.352835,497.162229 535.376315,497.162229 C547.418262,497.162229 550.713329,486.408353 550.713329,476.637993 L550.713329,457.990942 C550.713329,451.585551 547.677874,449.099271 540.738278,449.848157 C537.857595,442.648949 547.418262,438.065812 552.815176,437.012393 C554.502649,436.752781 556.085272,436.493169 557.543083,436.493169 C565.136705,436.493169 568.052339,441.231067 568.052339,448.310454 C568.052339,450.911555 567.797717,455.654454 567.797717,475.275043 C567.797717,483.572599 567.662915,487.951035 567.662915,489.323976 C567.662915,495.784298 570.65344,499.074365 577.588035,498.320488 C580.428778,505.534677 570.928022,508.954555 565.506148,509.958053 C563.843645,510.207675 562.330913,510.462297 561.082782,510.462297 C553.873584,510.462297 552.410782,505.784309 550.957961,499.079355 C549.939482,500.337464 549.000895,501.365923 547.043829,503.253098 C542.3209,507.676464 536.160141,510.337475 529.200575,510.337475 C521.591973,510.337475 515.166612,507.416862 511.097708,502.624043 C504.807138,495.160233 504.807138,485.539656 504.807138,471.490712 L504.807138,457.995943 C504.807138,451.590541 501.786663,449.104271 494.842077,449.853147 C491.956404,442.653939 501.537041,438.070812 506.908984,437.017383 C508.611439,436.757771 510.179081,436.498169 511.626913,436.498169 C519.225524,436.498169 522.116187,441.236057 522.116187,448.315455 L521.981397,471.355911 L521.981397,471.355911 Z M488.811119,472.823713 C488.811119,450.646953 473.469115,435.574552 452.220963,435.574552 C432.555444,435.574552 415.106603,450.646953 415.106603,472.823713 C415.106603,495.280054 431.497025,510.332485 451.566948,510.332485 C472.805109,510.332485 488.811119,495.030422 488.811119,472.823713 L488.811119,472.823713 Z M159.649529,492.36442 C159.649529,498.020946 163.314039,499.823241 169.744401,500.711908 C169.349988,507.282061 164.756871,509.828241 159.384927,510.332485 C153.348968,510.836729 147.447821,508.040917 145.091352,501.740366 C142.330489,504.246606 134.202674,510.582118 123.578598,510.582118 C109.02541,510.582118 98.1367365,500.831729 98.1367365,487.551631 C98.1367365,473.512678 110.333451,465.195151 127.5127,465.195151 C133.423837,465.195151 139.574617,466.423311 143.249117,468.325456 L143.249117,458.924551 C143.249117,450.502172 139.574617,445.155189 130.00896,445.155189 C128.036914,445.155189 123.713399,445.674414 120.298511,446.972464 C120.692925,448.305464 120.962517,449.728336 120.962517,451.036377 C120.962517,456.178668 117.682441,460.347412 112.175696,460.347412 C107.317974,460.347412 103.643482,456.43328 103.643482,451.435769 C103.643482,442.254536 115.19117,435.569551 131.19219,435.569551 C143.913123,435.569551 151.656515,438.585036 155.720418,443.822188 C159.384927,448.430275 159.649529,455.514663 159.649529,465.739336 L159.649529,492.36442 L159.649529,492.36442 Z M470.059227,473.902091 C470.059227,490.941559 462.710237,500.202674 452.355764,500.202674 C443.17453,500.202674 434.257887,490.946549 434.257887,470.736846 C434.257887,454.990449 440.81306,445.160179 451.566948,445.160179 C462.186023,445.154755 470.059227,456.053847 470.059227,473.902091 L470.059227,473.902091 Z M211.576689,448.035873 C211.971102,452.509169 215.775393,455.644464 220.228719,455.644464 C225.870264,455.644464 229.280152,450.641963 229.280152,445.799224 C229.280152,438.974449 223.773407,435.439751 218.261673,435.439751 C211.971102,435.439751 205.281128,440.167669 201.481817,447.237066 L201.217215,447.366877 C200.038986,441.086286 197.018511,436.348388 190.722951,436.348388 C189.280108,436.348388 187.707466,436.61798 186.005022,437.137204 C180.75789,438.709847 173.019487,442.763769 175.910151,449.972968 C183.254151,448.560087 185.875222,451.031376 185.875222,457.436778 L185.875222,487.936054 C185.875222,493.991984 185.091395,496.528184 182.989538,498.305519 C181.017502,499.81325 178.925635,500.437315 177.612605,500.696927 C174.59712,507.267081 180.498278,509.314018 195.056456,509.314018 C209.614633,509.314018 214.597163,507.272071 211.581679,500.696927 C210.268648,500.432325 206.599148,499.80826 204.632103,498.305519 C202.530245,496.528184 201.616618,493.991984 201.616618,487.936054 L201.616618,469.538636 C201.611195,453.138224 207.642587,448.824689 211.576689,448.035873 L211.576689,448.035873 Z M392.031186,437.401806 L410.783078,437.401806 C413.014736,442.76877 409.999252,447.097275 405.800548,447.496678 C404.487517,447.636469 403.044675,447.636469 401.736645,447.636469 C398.321757,447.636469 394.91686,447.366877 392.555401,447.366877 L392.555401,487.941055 C392.555401,493.996974 393.603829,496.533174 395.700686,498.310508 C397.672732,499.818251 402.265849,500.442316 403.57888,500.701928 C406.594354,507.272071 399.504987,509.319007 384.951799,509.319007 C370.398612,509.319007 364.367653,507.277071 367.378148,500.701928 C368.686188,500.437315 370.793025,499.81325 372.755081,498.310508 C374.851938,496.533174 375.635764,493.996974 375.635764,487.941055 L375.635764,447.092285 L364.622275,446.702872 C362.390617,441.345898 365.406102,437.531618 369.864418,437.531618 L375.381153,437.531618 L375.381153,432.284485 C375.381153,421.660409 377.343208,415.754262 379.969269,411.82016 C384.028182,405.524588 390.982758,401.201074 401.861456,401.201074 C415.635807,401.201074 426.779097,407.626446 426.779097,417.326904 C426.779097,421.525608 423.893424,426.63795 417.862465,426.63795 C413.409139,426.63795 409.210435,422.833649 409.210435,418.120711 C409.210435,416.143675 409.999252,414.046818 411.04269,412.743778 C409.475037,410.906522 406.194961,409.982915 403.044675,409.982915 C393.993253,409.982915 392.031186,416.672879 392.031186,425.065307 L392.031186,437.401806 L392.031186,437.401806 Z M271.247241,448.035873 C271.641654,452.509169 275.445955,455.644464 279.904271,455.644464 C285.545806,455.644464 288.950704,450.641963 288.950704,445.799224 C288.950704,438.974449 283.443959,435.439751 277.937215,435.439751 C271.641654,435.439751 264.95168,440.167669 261.157369,447.237066 L260.887778,447.366877 C259.714527,441.086286 256.694064,436.348388 250.398492,436.348388 C248.960651,436.348388 247.383018,436.61798 245.680564,437.137204 C240.428442,438.709847 232.690039,442.763769 235.580713,449.972968 C242.924702,448.560087 245.540773,451.031376 245.540773,457.436778 L245.540773,487.936054 C245.540773,493.991984 244.761947,496.528184 242.6601,498.305519 C240.693044,499.81325 238.601177,500.437315 237.293136,500.696927 C234.272673,507.267081 240.17882,509.314018 254.727007,509.314018 C269.280195,509.314018 274.272705,507.272071 271.252241,500.696927 C269.944201,500.432325 266.274701,499.80826 264.302655,498.305519 C262.205798,496.528184 261.28717,493.991984 261.28717,487.936054 L261.28717,469.538636 C261.281746,453.138224 267.313139,448.824689 271.247241,448.035873 L271.247241,448.035873 Z M620.284041,448.035873 C620.723384,452.509169 624.557635,455.644464 629.035921,455.644464 C634.597586,455.644464 638.007474,450.641963 638.007474,445.799224 C638.007474,438.974449 632.58061,435.439751 626.993985,435.439751 C620.723384,435.439751 614.108301,440.167669 610.31898,447.237066 L609.934557,447.366877 C608.786278,441.086286 605.740843,436.348388 599.560103,436.348388 C598.022411,436.348388 596.529649,436.61798 594.732344,437.137204 C589.560092,438.709847 581.84666,442.763769 584.657443,449.972968 C592.026392,448.560087 594.607523,451.031376 594.607523,457.436778 L594.607523,487.936054 C594.607523,493.991984 593.853657,496.528184 591.68691,498.305519 C589.804724,499.81325 587.642967,500.437315 586.389847,500.696927 C583.344412,507.267081 589.30048,509.314018 603.848678,509.314018 C618.401855,509.314018 623.324485,507.272071 620.279051,500.696927 C619.030921,500.432325 615.361421,499.80826 613.319474,498.305519 C611.322468,496.528184 610.438801,493.991984 610.438801,487.936054 L610.438801,469.538636 C610.444225,453.138224 616.369909,448.824689 620.284041,448.035873 L620.284041,448.035873 Z" id="path7-1" fill="#005BAB"></path>
            <path d="M130.662975,474.151723 C122.405359,474.151723 116.3744,478.315477 116.3744,486.283542 C116.3744,493.747352 121.616542,498.949554 129.484746,498.949554 C134.731878,498.949554 139.97901,496.03392 143.254107,491.865166 L143.254107,481.2361 C143.254107,477.691412 138.66099,474.151723 130.662975,474.151723 L130.662975,474.151723 Z M309.145437,472.678932 C309.53485,486.667965 318.456483,496.787786 333.798476,496.787786 C343.114511,496.787786 350.198899,491.740355 352.685169,488.57011 C353.863398,489.458777 355.051618,490.786788 355.051618,493.877153 C355.051618,500.836719 346.65421,510.462297 327.113502,510.462297 C307.447984,510.462297 291.436984,494.7808 291.436984,474.281524 C291.436984,451.710362 306.259764,435.579542 328.166921,435.579542 C348.082072,435.579542 357.273296,450.24755 357.273296,462.738831 C357.273296,466.423311 356.484469,469.833199 354.906837,472.678932 L309.145437,472.678932 L309.145437,472.678932 Z M336.953752,463.637478 C340.099037,463.637478 340.233839,461.795243 340.233839,459.328944 C340.099037,451.969974 334.3177,445.155189 325.54086,445.155189 C314.132957,445.155189 309.669652,454.715856 309.280228,463.637478 L336.953752,463.637478 L336.953752,463.637478 Z M521.981397,471.355911 C521.981397,488.450289 524.352835,497.162229 535.376315,497.162229 C547.418262,497.162229 550.713329,486.408353 550.713329,476.637993 L550.713329,457.990942 C550.713329,451.585551 547.677874,449.099271 540.738278,449.848157 C537.857595,442.648949 547.418262,438.065812 552.820165,437.012393 C554.502649,436.752781 556.085272,436.493169 557.543083,436.493169 C565.136705,436.493169 568.052339,441.231067 568.052339,448.310454 C568.052339,450.911555 567.797717,455.654454 567.797717,475.275043 C567.797717,483.572599 567.662915,487.951035 567.662915,489.323976 C567.662915,495.784298 570.65344,499.074365 577.588035,498.320488 C580.428778,505.534677 570.928022,508.954555 565.506148,509.958053 C563.843645,510.207675 562.330913,510.462297 561.082782,510.462297 C553.873584,510.462297 552.410782,505.784309 550.957961,499.079355 C549.939482,500.337464 549.000895,501.365923 547.043829,503.253098 C542.3209,507.676464 536.160141,510.337475 529.200575,510.337475 C521.591973,510.337475 515.166612,507.416862 511.097708,502.624043 C504.807138,495.160233 504.807138,485.539656 504.807138,471.490712 L504.807138,457.995943 C504.807138,451.590541 501.786663,449.104271 494.842077,449.853147 C491.956404,442.653939 501.537041,438.070812 506.908984,437.017383 C508.611439,436.757771 510.179081,436.498169 511.626913,436.498169 C519.225524,436.498169 522.116187,441.236057 522.116187,448.315455 L521.981397,471.355911 L521.981397,471.355911 Z M488.811119,472.823713 C488.811119,450.646953 473.469115,435.574552 452.220963,435.574552 C432.555444,435.574552 415.106603,450.646953 415.106603,472.823713 C415.106603,495.280054 431.497025,510.332485 451.566948,510.332485 C472.805109,510.332485 488.811119,495.030422 488.811119,472.823713 L488.811119,472.823713 Z M159.649529,492.36442 C159.649529,498.020946 163.314039,499.823241 169.744401,500.711908 C169.349988,507.282061 164.756871,509.828241 159.384927,510.332485 C153.348968,510.836729 147.447821,508.040917 145.091352,501.740366 C142.330489,504.246606 134.202674,510.582118 123.578598,510.582118 C109.02541,510.582118 98.1367365,500.831729 98.1367365,487.551631 C98.1367365,473.512678 110.338441,465.195151 127.5127,465.195151 C133.423837,465.195151 139.574617,466.423311 143.249117,468.325456 L143.249117,458.924551 C143.249117,450.502172 139.574617,445.155189 130.00896,445.155189 C128.036914,445.155189 123.713399,445.674414 120.298511,446.972464 C120.692925,448.305464 120.962517,449.728336 120.962517,451.036377 C120.962517,456.178668 117.682441,460.347412 112.175696,460.347412 C107.317974,460.347412 103.643482,456.43328 103.643482,451.435769 C103.643482,442.254536 115.19117,435.569551 131.19219,435.569551 C143.913123,435.569551 151.656515,438.585036 155.720418,443.822188 C159.384927,448.430275 159.649529,455.514663 159.649529,465.739336 L159.649529,492.36442 L159.649529,492.36442 Z M470.059227,473.902091 C470.059227,490.941559 462.710237,500.202674 452.355764,500.202674 C443.17453,500.202674 434.257887,490.946549 434.257887,470.736846 C434.257887,454.990449 440.81306,445.160179 451.566948,445.160179 C462.186023,445.154755 470.059227,456.053847 470.059227,473.902091 L470.059227,473.902091 Z M211.576689,448.035873 C211.971102,452.509169 215.775393,455.644464 220.228719,455.644464 C225.870264,455.644464 229.280152,450.641963 229.280152,445.799224 C229.280152,438.974449 223.773407,435.439751 218.261673,435.439751 C211.971102,435.439751 205.281128,440.167669 201.481817,447.237066 L201.217215,447.366877 C200.038986,441.086286 197.018511,436.348388 190.722951,436.348388 C189.280108,436.348388 187.707466,436.61798 186.005022,437.137204 C180.75789,438.709847 173.019487,442.763769 175.910151,449.972968 C183.254151,448.560087 185.875222,451.031376 185.875222,457.436778 L185.875222,487.936054 C185.875222,493.991984 185.091395,496.528184 182.989538,498.305519 C181.017502,499.81325 178.925635,500.437315 177.612605,500.696927 C174.59712,507.267081 180.498278,509.314018 195.056456,509.314018 C209.614633,509.314018 214.597163,507.272071 211.581679,500.696927 C210.268648,500.432325 206.599148,499.80826 204.632103,498.305519 C202.530245,496.528184 201.616618,493.991984 201.616618,487.936054 L201.616618,469.538636 C201.611195,453.138224 207.642587,448.824689 211.576689,448.035873 L211.576689,448.035873 Z M392.031186,437.401806 L410.783078,437.401806 C413.014736,442.76877 409.999252,447.097275 405.800548,447.496678 C404.487517,447.636469 403.044675,447.636469 401.736645,447.636469 C398.321757,447.636469 394.91686,447.366877 392.555401,447.366877 L392.555401,487.941055 C392.555401,493.996974 393.603829,496.533174 395.700686,498.310508 C397.672732,499.818251 402.265849,500.442316 403.57888,500.701928 C406.594354,507.272071 399.504987,509.319007 384.951799,509.319007 C370.398612,509.319007 364.367653,507.277071 367.378148,500.701928 C368.686188,500.437315 370.793025,499.81325 372.755081,498.310508 C374.851938,496.533174 375.635764,493.996974 375.635764,487.941055 L375.635764,447.092285 L364.622275,446.702872 C362.390617,441.345898 365.406102,437.531618 369.864418,437.531618 L375.381153,437.531618 L375.381153,432.284485 C375.381153,421.660409 377.343208,415.754262 379.969269,411.82016 C384.028182,405.524588 390.982758,401.201074 401.861456,401.201074 C415.635807,401.201074 426.779097,407.626446 426.779097,417.326904 C426.779097,421.525608 423.893424,426.63795 417.862465,426.63795 C413.409139,426.63795 409.210435,422.833649 409.210435,418.120711 C409.210435,416.143675 409.999252,414.046818 411.04269,412.743778 C409.475037,410.906522 406.194961,409.982915 403.044675,409.982915 C393.993253,409.982915 392.031186,416.672879 392.031186,425.065307 L392.031186,437.401806 L392.031186,437.401806 Z M271.247241,448.035873 C271.641654,452.509169 275.445955,455.644464 279.904271,455.644464 C285.545806,455.644464 288.950704,450.641963 288.950704,445.799224 C288.950704,438.974449 283.443959,435.439751 277.937215,435.439751 C271.641654,435.439751 264.95168,440.167669 261.157369,447.237066 L260.887778,447.366877 C259.714527,441.086286 256.694064,436.348388 250.398492,436.348388 C248.960651,436.348388 247.383018,436.61798 245.680564,437.137204 C240.428442,438.709847 232.690039,442.763769 235.580713,449.972968 C242.924702,448.560087 245.540773,451.031376 245.540773,457.436778 L245.540773,487.936054 C245.540773,493.991984 244.761947,496.528184 242.6601,498.305519 C240.693044,499.81325 238.601177,500.437315 237.293136,500.696927 C234.272673,507.267081 240.17882,509.314018 254.727007,509.314018 C269.280195,509.314018 274.272705,507.272071 271.252241,500.696927 C269.944201,500.432325 266.274701,499.80826 264.302655,498.305519 C262.205798,496.528184 261.28717,493.991984 261.28717,487.936054 L261.28717,469.538636 C261.281746,453.138224 267.313139,448.824689 271.247241,448.035873 L271.247241,448.035873 Z M620.284041,448.035873 C620.723384,452.509169 624.557635,455.644464 629.035921,455.644464 C634.597586,455.644464 638.007474,450.641963 638.007474,445.799224 C638.007474,438.974449 632.58061,435.439751 626.993985,435.439751 C620.723384,435.439751 614.108301,440.167669 610.31898,447.237066 L609.934557,447.366877 C608.786278,441.086286 605.740843,436.348388 599.560103,436.348388 C598.022411,436.348388 596.529649,436.61798 594.732344,437.137204 C589.560092,438.709847 581.84666,442.763769 584.657443,449.972968 C592.026392,448.560087 594.607523,451.031376 594.607523,457.436778 L594.607523,487.936054 C594.607523,493.991984 593.853657,496.528184 591.68691,498.305519 C589.804724,499.81325 587.642967,500.437315 586.389847,500.696927 C583.344412,507.267081 589.30048,509.314018 603.848678,509.314018 C618.401855,509.314018 623.324485,507.272071 620.279051,500.696927 C619.030921,500.432325 615.361421,499.80826 613.319474,498.305519 C611.322468,496.528184 610.438801,493.991984 610.438801,487.936054 L610.438801,469.538636 C610.444225,453.138224 616.369909,448.824689 620.284041,448.035873 L620.284041,448.035873 Z" id="path9-7" stroke="#005BAB" stroke-width="1.48199725"></path>
            <path d="M1.02231064,458.320456 C1.02231064,491.415843 23.8331173,511.016461 48.6209605,511.016461 C70.9175376,511.016461 86.5191506,495.339965 86.5191506,482.289519 C86.5191506,475.339943 82.1956317,470.287512 76.5540892,470.287512 C70.7827395,470.287512 65.9350064,474.201643 65.9350064,480.926568 C65.9350064,485.220133 68.2914744,487.621532 69.9989153,489.513698 C66.9784428,495.344955 60.5530739,500.142763 50.5830194,500.142763 C34.0627829,500.142763 22.1306696,482.933554 22.1306696,458.185654 C22.1306696,433.407794 33.5335767,416.093755 50.0637972,416.093755 C60.0338527,416.093755 66.4542286,420.946473 69.474701,426.72282 C67.7672602,428.684876 65.4107921,431.046335 65.4107921,435.37485 C65.4107921,442.064824 70.2635184,445.993925 76.034867,445.993925 C81.6764106,445.993925 85.9949364,440.896575 85.9949364,433.932008 C85.9949364,420.941483 70.3933234,405.210066 48.0967463,405.210066 C23.3039111,405.204643 1.02231064,426.717831 1.02231064,458.320456" id="path11-4" fill="#005BAB"></path>
            <path d="M1.02231064,458.320456 C1.02231064,491.415843 23.8331173,511.016461 48.6209605,511.016461 C70.9175376,511.016461 86.5191506,495.339965 86.5191506,482.289519 C86.5191506,475.339943 82.1956317,470.287512 76.5540892,470.287512 C70.7827395,470.287512 65.9350064,474.201643 65.9350064,480.926568 C65.9350064,485.220133 68.2914744,487.621532 69.9989153,489.513698 C66.9784428,495.344955 60.5530739,500.142763 50.5830194,500.142763 C34.0627829,500.142763 22.1306696,482.933554 22.1306696,458.185654 C22.1306696,433.407794 33.5335767,416.093755 50.0637972,416.093755 C60.0338527,416.093755 66.4542286,420.946473 69.474701,426.72282 C67.7672602,428.684876 65.4107921,431.046335 65.4107921,435.37485 C65.4107921,442.064824 70.2635184,445.993925 76.034867,445.993925 C81.6764106,445.993925 85.9949364,440.896575 85.9949364,433.932008 C85.9949364,420.941483 70.3933234,405.210066 48.0967463,405.210066 C23.3039111,405.204643 1.02231064,426.717831 1.02231064,458.320456 L1.02231064,458.320456 Z" id="path13-0" stroke="#005BAB" stroke-width="1.85479772"></path>
            <path d="M215.820334,11.4203553 L76.6739092,146.033573 C69.724326,151.93472 65.2859791,158.864336 65.2859791,168.779477 C65.2859791,178.649676 69.7293191,185.604252 76.6739092,191.55034 L215.820334,326.118628 C216.713991,327.032255 217.577698,327.396708 218.311593,327.396708 C219.629614,327.396708 220.538262,326.198508 220.498321,324.790617 C220.458403,323.96186 220.098918,323.008282 219.275151,322.184515 C186.614107,281.605348 162.849736,235.065112 162.849736,169.26874 C162.849736,103.43243 186.614107,55.9785622 219.275151,15.3694351 C220.098918,14.5556556 220.458381,13.617062 220.498321,12.7683341 C220.54323,11.3304895 219.629614,10.1672334 218.311593,10.1672334 C217.577698,10.1522563 216.713991,10.5117171 215.820334,11.4203553" id="path15-9" fill="#ED1C24"></path>
            <path d="M322.794978,0.0224404719 C268.311647,0.0224404719 247.023555,77.2317039 247.023555,169.258761 C247.023555,261.315764 268.311647,337.496569 322.794978,337.496569 C355.490961,337.496569 383.359186,318.350264 383.449058,302.613858 C383.464027,299.16902 382.136027,295.868963 379.245353,292.98829 C363.748588,278.015729 357.687669,263.053158 357.642739,249.847951 C357.542834,224.640738 379.410104,205.863886 399.569887,205.863886 C427.283341,205.863886 443.628843,227.646232 443.628843,255.85395 C443.628843,282.583886 432.240911,304.845516 419.849492,322.67379 C419.360228,323.402696 419.140556,324.216472 419.140556,324.930408 C419.150319,326.328309 419.974302,327.476588 421.207452,327.476588 C421.956328,327.476588 422.835016,327.077185 423.793573,326.113627 L562.974948,191.545351 C569.924523,185.604252 574.362869,178.644686 574.362869,168.774487 C574.362869,158.864336 569.919534,151.92973 562.974948,146.028583 L423.793573,11.4153622 C422.840005,10.4617919 421.961329,10.0573981 421.207452,10.0573981 C419.964323,10.0573981 419.150536,11.2156616 419.140556,12.6185589 C419.140556,13.3374818 419.360228,14.1412762 419.849492,14.8801692 C432.235921,32.683482 443.628843,54.970074 443.628843,81.6800358 C443.628843,109.86778 427.283341,131.670096 399.569887,131.670096 C379.410104,131.670096 357.542888,112.908225 357.642739,87.6960184 C357.687647,74.4908127 363.748588,59.5132637 379.245353,44.5556849 C382.136027,41.6600255 383.464027,38.3899281 383.449058,34.9400993 C383.359186,19.1787249 355.490961,0.0224404719 322.794978,0.0224404719" id="path17-4" fill="#005BAB"></path>
        </g>
    </g>
</svg>