<svg width="774px" height="200px" viewBox="0 0 774 200" version="1.1" xmlns="http://www.w3.org/2000/svg" xmlns:xlink="http://www.w3.org/1999/xlink">
    <g id="Page-1" stroke="none" stroke-width="1" fill="none" fill-rule="evenodd">
        <g id="Logotype-Positive-Black" transform="translate(-200.000000, -200.000000)" fill="#2E3C43">
            <g id="CartoDB" transform="translate(200.000000, 200.000000)">
                <path d="M0,20.0001277 C0,8.95436216 8.94946575,0 20.0001277,0 L179.999872,0 C191.045638,0 200,8.94946575 200,20.0001277 L200,179.999872 C200,191.045638 191.050534,200 179.999872,200 L20.0001277,200 C8.95436216,200 0,191.050534 0,179.999872 L0,20.0001277 L0,20.0001277 Z M94.0619636,148.673495 C87.8128678,148.673495 87.3888643,149.46084 87.3888643,149.46084 L88.9237705,159.077516 C88.9237705,159.077516 90.2901327,160 93.859463,160 C97.4287933,160 98.5928203,159.077516 98.5928203,159.077516 L100.695488,149.51339 C100.695488,149.51339 100.311225,148.673495 94.0619636,148.673495 L94.0619636,148.673495 Z M137.136746,77.3743708 L136.794205,77.1060564 C136.794205,77.1060564 137.403524,76.8211257 137.734746,76.5023898 C138.38207,75.878178 138.75865,75.0980361 138.630012,75.1843093 C137.519026,75.9267169 135.348197,75.5650899 135.348197,75.5650899 C135.348197,75.5650899 136.09954,75.4262671 136.544281,75.1394538 C137.223827,74.702522 137.420626,74.0986098 137.337263,74.1567255 C136.794205,74.5279293 136.205541,74.6369576 135.796904,74.6369576 C133.230493,74.6444881 132.814173,72.437483 130.437043,72.437483 C129.460562,72.437483 127.407053,73.4368275 126.76923,72.4450135 C123.271861,64.1424899 118.004782,52.1406973 112.870307,40 C91.6678965,44.2936862 82.2410873,79.9805735 102.856816,86.3199324 C91.647159,83.1230777 86.2211194,72.1654851 87.9206864,62.6423681 C80.2463206,65.2542187 70.2498495,69.3324675 62.4430446,78.750567 C57.7645467,84.3943382 57.7836318,90.4300221 57.7836318,102.371816 C57.5526275,106.043337 54.5,107.439915 54.5,107.439915 C54.5,107.439915 58.1374914,107.590115 59.2994529,105.735488 C64.30909,114.203109 88.4940661,135.986838 88.4940661,140.967108 C88.4940661,140.967108 87.6272217,143.30516 87.8921826,143.337001 C90.0934156,143.592055 100.339646,144.096598 100.339646,144.096598 C100.786287,142.403466 99.7546991,141.214304 99.7546991,140.025879 C99.7546991,127.909329 117.119017,116.670571 119.159308,115.292574 C119.887929,115.720011 121.157792,116.09498 121.780413,116.363212 C127.626573,118.881259 120.854991,133.148254 114.795012,133.148254 C107.813411,133.148254 118.733404,121.686283 118.953006,121.412566 C119.679728,120.507025 117.698263,121.344956 117.071759,120.741289 C116.689478,120.371886 117.119017,119.383837 116.167075,120.150637 C116.167075,120.150637 101.666268,132.552036 111.920182,136.200475 C131.355029,143.117553 159.784915,98.6256455 137.136746,77.3743708 L137.136746,77.3743708 Z" id="Isotype"></path>
                <path d="M280.672005,138.539773 C297.832957,138.539773 306.823839,130.355764 311.71703,121.336293 L299.014576,114.389395 C295.719507,120.750095 288.66636,125.813671 280.672005,125.813671 C266.328487,125.813671 255.980083,114.859332 255.980083,100.018139 C255.980083,85.1805209 266.328487,74.2175281 280.672005,74.2175281 C288.66636,74.2175281 295.719507,79.2899464 299.014576,85.6504575 L311.71703,78.582784 C306.823839,69.4732001 297.832957,61.4961296 280.672005,61.4961296 C257.041121,61.4961296 240,75.7560155 240,100.018139 C240,124.163061 257.041121,138.539773 280.672005,138.539773 Z M344.476068,60.3239218 L315.407035,138.978857 L333.616648,138.978857 L338.367316,125.697221 L370.718291,125.697221 L375.469334,138.978857 L393.68326,138.978857 L393.68326,138.483523 L364.609914,60.3239218 L344.476068,60.3239218 Z M342.779119,112.419913 L354.540928,78.2125537 L366.30705,112.419913 L342.779119,112.419913 Z M446.434748,111.213278 C454.321273,109.480646 462.534474,101.853676 462.534474,86.0767491 C462.534474,69.5847583 453.118839,60.3239218 437.061494,60.3239218 L400.200263,60.3239218 L400.200263,138.978857 L416.489205,138.978857 L416.489205,112.419913 L428.989878,112.419913 L444.871133,138.978857 L462.990357,138.978857 L446.434748,111.213278 Z M434.656062,100.160174 L416.489205,100.160174 L416.489205,73.6053689 L434.514477,73.6053689 C441.24545,73.6053689 446.550453,78.5269108 446.550453,86.4908126 C446.550453,94.7434864 441.387222,100.160174 434.656062,100.160174 Z M507.532582,138.978857 L508.138675,138.423135 L508.138675,73.6053689 L531.558589,73.6053689 L531.558589,60.3239218 L469.442661,60.3239218 L469.442661,73.6053689 L491.845044,73.6053689 L491.845044,138.978857 L507.532582,138.978857 Z M657.431323,60.3239218 L626.257278,60.3239218 L626.257278,138.978857 L657.552279,138.978857 C682.608382,138.978857 698.593153,123.891596 698.593153,98.8408521 C698.593153,74.0453936 682.608382,60.3239218 657.431323,60.3239218 Z M657.431323,125.697221 L642.551472,125.697221 L642.551472,73.6053689 L657.246794,73.6053689 C673.630439,73.6053689 682.608382,84.8917488 682.608382,99.39695 C682.608382,113.535872 673.334331,125.697221 657.431323,125.697221 Z M759.88808,99.5568564 C764.987364,98.233396 770.721996,90.8692372 770.721996,79.3155314 C770.721996,68.5679419 763.557081,60.3239218 749.243568,60.3239218 L708.739213,60.3239218 L708.739213,138.978857 L751.971362,138.978857 C766.722943,138.978857 774,130.45058 774,118.690312 C774,108.046004 767.827301,100.676953 759.88808,99.5568564 Z M725.033032,73.6053689 L745.837294,73.6053689 C751.443093,73.6053689 754.737975,77.6434751 754.737975,83.3534495 C754.737975,89.3388391 751.232311,93.0108538 745.622761,93.0108538 L725.033032,93.0108538 L725.033032,73.6053689 L725.033032,73.6053689 Z M747.529929,125.869544 L746.322243,125.697221 L725.033032,125.697221 L725.033032,106.292113 L746.537339,106.292113 C754.531693,106.292113 758.015604,110.649279 758.015604,116.035678 C758.015604,122.193955 754.071685,125.869544 747.529929,125.869544 Z M559.051443,45 L591.638517,45 L591.638517,55.2174529 L559.051443,55.2174529 L559.051443,45 Z M575.851401,140 C597.506107,140 615.058806,122.391863 615.058806,100.672815 C615.058806,78.9537668 597.506107,61.3454413 575.851401,61.3454413 C554.201197,61.3454413 536.648872,78.9537668 536.648872,100.672815 C536.648872,122.391863 554.201197,140 575.851401,140 Z M575.851401,74.6268884 C590.195295,74.6268884 601.818707,86.2883899 601.818707,100.672815 C601.818707,115.057804 590.195295,126.718177 575.851401,126.718177 C561.512946,126.718177 549.888783,115.057804 549.888783,100.672815 C549.888783,86.2883899 561.512946,74.6268884 575.851401,74.6268884 Z M563.813453,115.301029 L576.954537,107.668603 C578.659924,106.677372 580.863388,104.470852 581.851477,102.764369 L589.476212,89.5997477 C590.468615,87.8930764 589.88015,87.3074428 588.179076,88.2981098 L575.034241,95.9390007 C573.328854,96.9298558 571.12539,99.1358113 570.136926,100.842483 L562.511816,113.999203 C561.524476,115.706062 562.108254,116.291696 563.813453,115.301029 Z M576.126694,98.785167 C577.784449,98.785167 579.129405,100.133836 579.129405,101.797427 C579.129405,103.456879 577.784449,104.805548 576.126694,104.805548 C574.46425,104.805548 573.120231,103.456879 573.120231,101.797427 C573.120231,100.133836 574.46425,98.785167 576.126694,98.785167 L576.126694,98.785167 Z" id="Logotype"></path>
            </g>
        </g>
    </g>
</svg>
