<?xml version="1.0" encoding="UTF-8" standalone="no"?>
<svg width="1848px" height="511px" viewBox="0 0 1848 511" version="1.1" xmlns="http://www.w3.org/2000/svg" xmlns:xlink="http://www.w3.org/1999/xlink">
    <!-- Generator: Sketch 3.6.1 (26313) - http://www.bohemiancoding.com/sketch -->
    <title>cayan</title>
    <desc>Created with Sketch.</desc>
    <defs></defs>
    <g id="Page-1" stroke="none" stroke-width="1" fill="none" fill-rule="evenodd">
        <g id="cayan" fill="#E2231A">
            <path d="M554.758919,253.232432 L467.857297,253.232432 C464.306869,253.240265 460.985785,251.479138 459.000366,248.535719 C457.014947,245.592301 456.626057,241.853326 457.963243,238.564324 L501.621622,130.283243 C503.239082,126.236598 507.15775,123.582801 511.515676,123.582801 C515.873601,123.582801 519.792269,126.236598 521.40973,130.283243 L564.652973,238.633514 C565.960382,241.914947 565.556594,245.63102 563.574899,248.555059 C561.593204,251.479099 558.291216,253.230989 554.758919,253.232432 M436.583784,317.163243 L585.963243,317.163243 C590.382086,317.178474 594.326604,319.936878 595.857297,324.082162 L617.513514,378.04973 C618.500552,380.510048 620.882056,382.125091 623.532973,382.131892 L695.628108,382.131892 C697.802671,382.135753 699.835287,381.052565 701.044725,379.245358 C702.254164,377.438151 702.480384,375.146067 701.647568,373.137297 L549.431351,4.77405405 C548.422596,2.34089193 546.04587,0.756408136 543.411892,0.761081081 L479.135135,0.761081081 C476.501157,0.756408136 474.124431,2.34089193 473.115676,4.77405405 L320.899459,373.137297 C320.066643,375.146067 320.292863,377.438151 321.502302,379.245358 C322.71174,381.052565 324.744356,382.135753 326.918919,382.131892 L398.944865,382.131892 C401.595782,382.125091 403.977286,380.510048 404.964324,378.04973 L426.620541,324.082162 C428.151234,319.936878 432.095752,317.178474 436.514595,317.163243" id="Shape"></path>
            <path d="M1251.49405,253.232432 L1164.59243,253.232432 C1161.042,253.240265 1157.72092,251.479138 1155.7355,248.535719 C1153.75008,245.592301 1153.36119,241.853326 1154.69838,238.564324 L1198.35676,130.283243 C1199.97422,126.236598 1203.89289,123.582801 1208.25081,123.582801 C1212.60874,123.582801 1216.5274,126.236598 1218.14486,130.283243 L1261.38811,238.564324 C1262.69552,241.845758 1262.29173,245.56183 1260.31003,248.48587 C1258.32834,251.40991 1255.02635,253.1618 1251.49405,253.163243 M1133.31892,317.094054 L1282.69838,317.094054 C1287.11722,317.109284 1291.06174,319.867688 1292.59243,324.012973 L1314.24865,377.980541 C1315.23569,380.440858 1317.61719,382.055901 1320.26811,382.062703 L1392.36324,382.062703 C1394.53781,382.066563 1396.57042,380.983375 1397.77986,379.176168 C1398.9893,377.368961 1399.21552,375.076878 1398.3827,373.068108 L1246.16649,4.70486486 C1245.15773,2.27170275 1242.78101,0.687218946 1240.14703,0.691891892 L1175.87027,0.691891892 C1173.23629,0.687218946 1170.85957,2.27170275 1169.85081,4.70486486 L1017.63459,373.068108 C1016.80178,375.076878 1017.028,377.368961 1018.23744,379.176168 C1019.44688,380.983375 1021.47949,382.066563 1023.65405,382.062703 L1095.74919,382.062703 C1098.40011,382.055901 1100.78161,380.440858 1101.76865,377.980541 L1123.42486,324.012973 C1124.95556,319.867688 1128.90008,317.109284 1133.31892,317.094054" id="Shape"></path>
            <path d="M665.046486,0.0691891892 C662.890152,0.0747158827 660.87675,1.14865208 659.67105,2.9364151 C658.465349,4.72417812 658.224127,6.9933046 659.027027,8.99459459 C660.549189,12.6616216 812.627027,380.125405 813.941622,383.723243 C814.881506,390.821982 814.435057,398.035652 812.627027,404.964324 C809.928649,416.518919 800.795676,436.307027 770.214054,439.558919 L770.214054,439.558919 C768.408717,439.548074 766.670644,440.243303 765.370811,441.496216 C764.159528,442.705338 763.486181,444.351297 763.502703,446.062703 L763.502703,503.974054 C763.502703,509.647568 765.370811,510.201081 774.227027,510.201081 C783.171614,510.255019 792.111867,509.79299 801.003243,508.817297 C844.454054,505.011892 871.507027,476.713514 900.912432,404.341622 L1060.60108,9.96324324 C1061.61132,7.986076 1061.61132,5.64419427 1060.60108,3.66702703 C1058.86759,1.70598269 1056.28053,0.722898453 1053.68216,1.03783784 L985.461622,1.03783784 C982.668254,0.960315614 980.102484,2.57074606 978.957838,5.12 L860.298378,292.393514 L742.676757,4.15135135 C741.689719,1.69103355 739.308214,0.0759904921 736.657297,0.0691891892 L665.046486,0.0691891892 L665.046486,0.0691891892 Z" id="Shape"></path>
            <path d="M1454.08,0.0691891892 C1450.65112,0.288493603 1447.98435,3.13709906 1447.99135,6.57297297 L1447.99135,375.351351 C1447.99135,378.943292 1450.90319,381.855135 1454.49514,381.855135 L1520.91676,381.855135 C1524.5087,381.855135 1527.42054,378.943292 1527.42054,375.351351 L1527.42054,80.1210811 C1527.42054,80.1210811 1654.31351,80.1210811 1659.77946,80.7437838 C1671.79422,82.2069128 1682.59058,88.7906742 1689.39243,98.8021622 C1694.92757,106.412973 1695.96541,114.923243 1695.96541,128 L1695.96541,170.205405 L1695.96541,375.143784 C1695.96541,378.735724 1698.87725,381.647568 1702.46919,381.647568 L1768.82162,381.647568 C1772.41356,381.647568 1775.32541,378.735724 1775.32541,375.143784 L1775.32541,177.055135 L1775.32541,123.018378 C1775.32541,86.4864865 1766.19243,58.3956757 1747.64973,37.1545946 C1732.77405,20.3416216 1703.85297,0.345945946 1650.43892,0.345945946 L1484.93838,0.345945946 C1467.15676,0.0691891892 1456.77838,0.0691891892 1454.08,0.0691891892 Z" id="Shape"></path>
            <path d="M122.672432,0.0691891892 C86.1405405,0.0691891892 58.0497297,9.20216216 36.8086486,27.7448649 C20.0648649,42.7589189 0.0691891892,71.68 0.0691891892,125.163243 L0.0691891892,256.622703 C0.0691891892,310.175135 20.0648649,339.096216 36.8086486,353.902703 C58.0497297,372.652973 86.0713514,381.578378 122.672432,381.578378 L176.709189,381.578378 L268.592432,381.578378 C272.184373,381.578378 275.096216,378.666535 275.096216,375.074595 L275.096216,308.583784 C275.096216,304.991843 272.184373,302.08 268.592432,302.08 L169.651892,302.08 L127.515676,302.08 C114.438919,302.08 105.859459,301.042162 98.2486486,295.161081 C88.2659372,288.38512 81.7249851,277.601388 80.3286486,265.617297 C80.3286486,261.535135 79.8443243,254.754595 79.7059459,245.552432 L79.7059459,244.168649 L79.7059459,244.168649 L79.7059459,138.793514 L79.7059459,137.963243 C79.7059459,127.446486 79.7059459,120.043243 80.3286486,115.753514 C81.7753036,103.750647 88.3325601,92.9563937 98.3178378,86.1405405 C105.928649,80.6054054 114.438919,79.5675676 127.515676,79.5675676 L169.721081,79.5675676 L314.326486,79.5675676 C316.051397,79.5675676 317.70566,78.8823495 318.925356,77.6626534 C320.145052,76.4429573 320.83027,74.7886945 320.83027,73.0637838 L320.83027,6.98810811 C320.94604,5.18037475 320.302648,3.40626279 319.055022,2.09297231 C317.807396,0.779681824 316.068588,0.0462153817 314.257297,0.0691891892 L176.709189,0.0691891892 L122.672432,0.0691891892 Z" id="Shape"></path>
            <path d="M1842.02378,37.7081081 L1842.02378,10.8627027 L1833.16757,28.4367568 L1828.25514,28.4367568 L1819.32973,10.8627027 L1819.32973,37.7081081 L1814.27892,37.7081081 L1814.27892,0.484324324 L1819.32973,0.484324324 L1830.67676,23.04 L1842.02378,0.484324324 L1847.00541,0.484324324 L1847.00541,37.7081081 L1842.02378,37.7081081 L1842.02378,37.7081081 Z M1797.39676,5.12 L1797.39676,37.7081081 L1792.06919,37.7081081 L1792.06919,5.12 L1781.76,5.12 L1781.76,0.484324324 L1807.42919,0.484324324 L1807.42919,5.12 L1797.05081,5.12 L1797.39676,5.12 Z" id="Shape"></path>
        </g>
    </g>
</svg>