<?xml version="1.0" encoding="utf-8"?>
<!-- Generator: Adobe Illustrator 18.1.1, SVG Export Plug-In . SVG Version: 6.00 Build 0)  -->
<svg version="1.1" id="Layer_1" xmlns="http://www.w3.org/2000/svg" xmlns:xlink="http://www.w3.org/1999/xlink" x="0px" y="0px"
	 viewBox="0 0 500 500" enable-background="new 0 0 500 500" xml:space="preserve">
<g>
	<polygon fill="#FFFFFF" points="0,0 500,0 500,500 0,500 	"/>
	<path d="M423.4,178.4c-38.2,0-69.2,31-69.2,69.2s31.1,69.1,69.2,69.1s69.2-31,69.2-69.2S461.6,178.4,423.4,178.4L423.4,178.4
		L423.4,178.4L423.4,178.4z M423.4,288.3c-28.4-0.1-51.6-18.8-63.8-41.1c12.3-22.3,35.5-40.2,63.8-40.2c28.7,0,51.7,17.9,63.8,40.2
		C475.1,269.5,452.3,288.4,423.4,288.3L423.4,288.3L423.4,288.3L423.4,288.3z"/>
	<path d="M423.4,284.4c20.3,0,36.7-16.4,36.7-36.7s-16.4-36.7-36.7-36.7c-20.3,0-36.7,16.4-36.7,36.7
		C386.7,267.9,403.1,284.4,423.4,284.4L423.4,284.4L423.4,284.4L423.4,284.4z"/>
	<path d="M122.1,182.1H184l0,0c26.3,0,44.6,16.1,44.6,32.6c0,12.3-4.7,23.9-30.7,29.6c10,1.4,37.3,8.7,37.3,34.6
		s-28.6,38.6-48.2,38.6l0,0h-64.9v-1.4h64.3l0,0c15.3,0,25-6.3,25-35.3c0-29-10.6-35.6-23.9-35.9l0,0h-19.9v-1.4h21.1l0,0
		c8.7,0,17.8-1.4,17.8-29.3s-10.9-31-22.7-31l0,0h-16.3v132.8h-24.6V183.3h-20.6L122.1,182.1L122.1,182.1L122.1,182.1z"/>
	<path d="M34.7,250.7c0-51.3,14.9-69.5,32.6-69.5c25,0,38.6,36.9,43,51.3l0,0v-49.6l0,0c-4.3,3.3-6.3,5-10.9,5
		c-4.7,0-11.6-2.3-14.9-4.3c-3.3-2-10-3.6-16.6-3.6c-22,0-60.3,28.9-60.3,70.9c0,49.6,34,70.9,60.3,70.9c6.6,0,14-2.6,17.3-4.7
		c3.3-2,9.7-4.7,14.4-4.7c4.7,0,6.6,1.7,10.9,5l0,0v-49.9l0,0c-3.7,19.3-18,52.9-43,52.9c-7.1,0-17-3.3-21.5-8
		C44.4,310.8,34.7,303.9,34.7,250.7L34.7,250.7L34.7,250.7L34.7,250.7z"/>
	<path d="M323.8,290.9c-0.3,10.9-8.7,25.6-26,25.3s-38.3-13.3-46.3-48.2l0,0v47.3l0,0c3.3-3,9-8.3,18-4.3s22.3,6.6,28.3,6.6
		c6,0,39-6.3,40.2-44.2c0.3-18.9-13.3-28.6-21.7-31.6c-9.7-3.7-23.3-8-31.2-10.6c-8-2.6-21-10.9-20.6-26.3
		c0.3-15.3,9.7-23.6,22.3-23.6s29.6,10,38.3,45.2l0,0v-47l0,0c-5,4.3-9,6.3-12,6.3c-2.6,0-10.4-3-14.4-4.2c-4.3-1.4-8.6-1.9-14-1.8
		c-9.5,0.1-31.7,11.6-33.3,42.6c-1.1,22.7,15.6,31.2,23.3,34c6.6,2.3,26,9.3,31.6,11.6C312.2,270.3,324.5,278.3,323.8,290.9
		L323.8,290.9L323.8,290.9L323.8,290.9z"/>
</g>
</svg>
