<?xml version="1.0" encoding="utf-8"?>
<!-- Generator: Adobe Illustrator 18.1.1, SVG Export Plug-In . SVG Version: 6.00 Build 0)  -->
<svg version="1.1" id="Layer_1" xmlns="http://www.w3.org/2000/svg" xmlns:xlink="http://www.w3.org/1999/xlink" x="0px" y="0px"
	 viewBox="-312.6 -5.4 512 512" enable-background="new -312.6 -5.4 512 512" xml:space="preserve">
<g>
	<polygon fill="#FFFFFF" points="-312.6,-5.4 199.4,-5.4 199.4,506.6 -312.6,506.6 	"/>
	<path d="M121,177.3c-39.1,0-70.9,31.7-70.9,70.9S81.9,319,121,319s70.9-31.7,70.9-70.9S160.1,177.3,121,177.3L121,177.3L121,177.3
		L121,177.3z M121,289.8c-29.1-0.1-52.8-19.2-65.3-42.1c12.6-22.8,36.4-41.2,65.3-41.2c29.4,0,52.9,18.3,65.3,41.2
		C173.9,270.6,150.6,289.9,121,289.8L121,289.8L121,289.8L121,289.8z"/>
	<path d="M121,285.8c20.8,0,37.6-16.8,37.6-37.6c0-20.8-16.8-37.6-37.6-37.6s-37.6,16.8-37.6,37.6C83.4,268.9,100.2,285.8,121,285.8
		L121,285.8L121,285.8L121,285.8z"/>
	<path d="M-187.6,181.1h63.4l0,0c26.9,0,45.7,16.5,45.7,33.4c0,12.6-4.8,24.5-31.4,30.3c10.2,1.4,38.2,8.9,38.2,35.4
		s-29.3,39.5-49.4,39.5l0,0h-66.5v-1.4h65.8l0,0c15.7,0,25.6-6.5,25.6-36.1c0-29.7-10.9-36.5-24.5-36.8l0,0h-20.4v-1.4h21.6l0,0
		c8.9,0,18.2-1.4,18.2-30s-11.2-31.7-23.2-31.7l0,0h-16.7v136h-25.2v-136h-21.1L-187.6,181.1L-187.6,181.1L-187.6,181.1z"/>
	<path d="M-277.1,251.3c0-52.5,15.3-71.2,33.4-71.2c25.6,0,39.5,37.8,44,52.5l0,0v-50.8l0,0c-4.4,3.4-6.5,5.1-11.2,5.1
		c-4.8,0-11.9-2.4-15.3-4.4c-3.4-2-10.2-3.7-17-3.7c-22.5,0-61.7,29.6-61.7,72.6c0,50.8,34.8,72.6,61.7,72.6
		c6.8,0,14.3-2.7,17.7-4.8c3.4-2,9.9-4.8,14.7-4.8c4.8,0,6.8,1.7,11.2,5.1l0,0v-51.1l0,0c-3.8,19.8-18.4,54.2-44,54.2
		c-7.3,0-17.4-3.4-22-8.2C-267.1,312.9-277.1,305.8-277.1,251.3L-277.1,251.3L-277.1,251.3L-277.1,251.3z"/>
	<path d="M19,292.5c-0.3,11.2-8.9,26.2-26.6,25.9c-17.7-0.3-39.2-13.6-47.4-49.4l0,0v48.4l0,0c3.4-3.1,9.2-8.5,18.4-4.4
		c9.2,4.1,22.8,6.8,29,6.8c6.1,0,39.9-6.5,41.2-45.3c0.3-19.4-13.6-29.3-22.2-32.4c-9.9-3.8-23.9-8.2-32-10.9
		c-8.2-2.7-21.5-11.2-21.1-26.9c0.3-15.7,9.9-24.2,22.8-24.2c12.9,0,30.3,10.2,39.2,46.3l0,0v-48.1l0,0c-5.1,4.4-9.2,6.5-12.3,6.5
		c-2.7,0-10.6-3.1-14.7-4.3c-4.4-1.4-8.8-1.9-14.3-1.8c-9.7,0.1-32.5,11.9-34.1,43.6c-1.1,23.2,16,32,23.9,34.8
		c6.8,2.4,26.6,9.5,32.4,11.9C7.1,271.4,19.7,279.6,19,292.5L19,292.5L19,292.5L19,292.5z"/>
</g>
</svg>
