<?xml version="1.0" encoding="UTF-8" standalone="no"?>
<svg width="511px" height="511px" viewBox="0 0 511 511" version="1.1" xmlns="http://www.w3.org/2000/svg" xmlns:xlink="http://www.w3.org/1999/xlink">
    <!-- Generator: Sketch 3.6.1 (26313) - http://www.bohemiancoding.com/sketch -->
    <title>Central Intelligence Agency</title>
    <desc>Created with Sketch.</desc>
    <defs></defs>
    <g id="Page-1" stroke="none" stroke-width="1" fill="none" fill-rule="evenodd">
        <g id="Central-Intelligence-Agency" transform="translate(-1.000000, 0.000000)">
            <g id="g3365" transform="translate(0.993206, 0.320588)">
                <g id="g2018" transform="translate(0.319782, 0.020107)">
                    <path d="M257.414185,509.832686 C398.068689,508.604095 511.103309,393.592215 509.882644,252.93622 C508.658816,112.273879 393.631081,-0.7569803 252.971186,0.463676754 C112.309704,1.7033964 -0.719832225,116.717803 0.513539563,257.377604 C1.73324205,398.032327 116.768908,511.07209 257.414185,509.832686 L257.414185,509.832686 L257.414185,509.832686 Z" id="path13" fill="#FCCC0F"></path>
                    <path d="M257.414185,509.832564 C398.068608,508.603963 511.103177,393.592152 509.882522,252.936226 C508.658684,112.27394 393.63101,-0.756858234 252.971186,0.463788648 C112.309765,1.7035083 -0.719709142,116.717864 0.513661628,257.377608 C1.7333631,398.032262 116.768969,511.071968 257.414185,509.832564 L257.414185,509.832564 L257.414185,509.832564 Z" id="path15" stroke="#000000" stroke-width="1.55524345"></path>
                    <path d="M257.33824,500.960147 C393.096048,499.768725 502.204798,388.758604 501.009574,253.005878 C499.830238,117.235026 388.814225,8.14776377 253.051962,9.33663288 C117.304012,10.5159707 8.19430418,121.532777 9.38634969,257.289007 C10.5768063,393.044914 121.594725,502.141082 257.33824,500.960147 L257.33824,500.960147 L257.33824,500.960147 Z" id="path17" fill="#162C77"></path>
                </g>
                <path d="M189.729213,169.296548 C196.598895,178.29572 177.733413,156.285748 177.024233,169.814697 C176.328714,183.34683 181.608361,177.151354 179.588239,180.454127 C177.566529,183.737816 196.831897,184.805891 189.771173,174.627391 C182.716491,164.43935 190.627859,179.128564 196.786123,180.711604 C202.947255,182.29147 206.219819,182.275571 204.541419,176.947911 C202.863335,171.642509 202.783545,163.453924 198.707708,165.119612 C194.621688,166.794842 184.76299,162.786377 189.729213,169.296548 L189.729213,169.296548 L189.729213,169.296548 Z" id="path85" fill="#FFFFFF"></path>
                <path d="M189.729213,169.296548 C196.598895,178.29572 177.733413,156.285748 177.024233,169.814697 C176.328714,183.34683 181.608361,177.151354 179.588239,180.454127 C177.566529,183.737816 196.831897,184.805891 189.771173,174.627391 C182.716491,164.43935 190.627859,179.128564 196.786123,180.711604 C202.947255,182.29147 206.219819,182.275571 204.541419,176.947911 C202.863335,171.642509 202.783545,163.453924 198.707708,165.119612 C194.621688,166.794842 184.76299,162.786377 189.729213,169.296548 L189.729213,169.296548 L189.729213,169.296548 Z" id="path87" stroke="#4C4C4C" stroke-width="1.55524892"></path>
                <path d="M240.10158,168.040929 C246.981434,177.036918 228.107367,155.030119 227.40899,168.555894 C226.705211,182.091201 231.982315,175.892552 229.95615,179.195324 C227.935082,182.482197 247.203623,183.550272 240.148941,173.362231 C233.099336,163.183732 241.011975,177.86023 247.170889,179.452801 C253.332001,181.035841 256.607119,181.000879 254.927132,175.692293 C253.241418,170.38688 253.165433,162.195121 249.07625,163.863994 C244.999457,165.539213 235.128684,161.530758 240.10158,168.040929 L240.10158,168.040929 L240.10158,168.040929 Z" id="path89" fill="#FFFFFF"></path>
                <path d="M240.10158,168.040929 C246.981434,177.036918 228.107367,155.030119 227.40899,168.555894 C226.705211,182.091201 231.982315,175.892552 229.95615,179.195324 C227.935082,182.482197 247.203623,183.550272 240.148941,173.362231 C233.099336,163.183732 241.011975,177.86023 247.170889,179.452801 C253.332001,181.035841 256.607119,181.000879 254.927132,175.692293 C253.241418,170.38688 253.165433,162.195121 249.07625,163.863994 C244.999457,165.539213 235.128684,161.530758 240.10158,168.040929 L240.10158,168.040929 L240.10158,168.040929 Z" id="path91" stroke="#4C4C4C" stroke-width="1.55524892"></path>
                <path d="M292.126907,167.176297 C299.005814,176.178643 280.126977,154.16866 279.434001,167.691262 C278.741025,181.223395 284.001924,175.031103 281.983389,178.330692 C279.968037,181.620739 299.228329,182.682456 292.168226,172.497599 C285.120858,162.315916 293.032866,176.995598 299.193347,178.591353 C305.350665,180.168035 308.631184,180.139421 306.943243,174.830834 C305.252127,169.522248 305.191725,161.330489 301.10062,163.002535 C297.02224,164.674581 287.152108,160.666126 292.126907,167.176297 L292.126907,167.176297 L292.126907,167.176297 Z" id="path93" fill="#FFFFFF"></path>
                <path d="M292.126907,167.176297 C299.005814,176.178643 280.126977,154.16866 279.434001,167.691262 C278.741025,181.223395 284.001924,175.031103 281.983389,178.330692 C279.968037,181.620739 299.228329,182.682456 292.168226,172.497599 C285.120858,162.315916 293.032866,176.995598 299.193347,178.591353 C305.350665,180.168035 308.631184,180.139421 306.943243,174.830834 C305.252127,169.522248 305.191725,161.330489 301.10062,163.002535 C297.02224,164.674581 287.152108,160.666126 292.126907,167.176297 L292.126907,167.176297 L292.126907,167.176297 Z" id="path95" stroke="#4C4C4C" stroke-width="1.55524892"></path>
                <path d="M215.122338,168.670331 C218.248353,172.761444 216.358566,169.630327 212.970294,167.154041 C208.894447,164.191404 202.800715,161.81685 202.421163,169.185295 C201.723416,182.720602 206.995128,176.521953 204.976593,179.821541 C202.958068,183.111599 222.218024,184.17649 215.168113,173.988459 C208.106748,163.809949 216.035602,178.489632 222.183693,180.082203 C228.342597,181.662069 231.617705,181.633454 229.93899,176.321694 C228.252004,171.013107 228.170312,162.824523 224.099866,164.493395 C220.018628,166.168614 210.152301,162.16016 215.122338,168.670331 L215.122338,168.670331 L215.122338,168.670331 Z" id="path97" fill="#E50F07"></path>
                <path d="M215.122338,168.670331 C218.248353,172.761444 216.358566,169.630327 212.970294,167.154041 C208.894447,164.191404 202.800715,161.81685 202.421163,169.185295 C201.723416,182.720602 206.995128,176.521953 204.976593,179.821541 C202.958068,183.111599 222.218024,184.17649 215.168113,173.988459 C208.106748,163.809949 216.035602,178.489632 222.183693,180.082203 C228.342597,181.662069 231.617705,181.633454 229.93899,176.321694 C228.252004,171.013107 228.170312,162.824523 224.099866,164.493395 C220.018628,166.168614 210.152301,162.16016 215.122338,168.670331 L215.122338,168.670331 L215.122338,168.670331 Z" id="path99" stroke="#000000" stroke-width="1.55524892"></path>
                <path d="M267.551691,167.805699 C274.433772,176.804871 255.553348,154.794888 254.857819,168.320663 C254.150236,181.843255 259.42734,175.660505 257.408814,178.950552 C255.387105,182.246967 274.656288,183.299143 267.596194,173.123827 C260.546588,162.948501 268.454467,177.625 274.621316,179.208039 C280.775449,180.797436 284.055969,180.765648 282.371211,175.457062 C280.686433,170.138934 280.613336,161.944002 276.525405,163.631936 C272.456556,165.303982 262.582295,161.282812 267.551691,167.805699 L267.551691,167.805699 L267.551691,167.805699 Z" id="path101" fill="#E50F07"></path>
                <path d="M267.551691,167.805699 C274.433772,176.804871 255.553348,154.794888 254.857819,168.320663 C254.150236,181.843255 259.42734,175.660505 257.408814,178.950552 C255.387105,182.246967 274.656288,183.299143 267.596194,173.123827 C260.546588,162.948501 268.454467,177.625 274.621316,179.208039 C280.775449,180.797436 284.055969,180.765648 282.371211,175.457062 C280.686433,170.138934 280.613336,161.944002 276.525405,163.631936 C272.456556,165.303982 262.582295,161.282812 267.551691,167.805699 L267.551691,167.805699 L267.551691,167.805699 Z" id="path103" stroke="#000000" stroke-width="1.55524892"></path>
                <path d="M316.705306,167.363841 C323.590561,176.378912 304.714907,154.359388 304.021942,167.894705 C303.319424,181.414123 308.583497,175.225005 306.564972,178.524593 C304.546436,181.817824 323.81626,182.879542 316.756166,172.697868 C309.708788,162.516185 317.620787,177.192684 323.781288,178.778897 C329.932248,180.361937 333.203216,180.336506 331.524826,175.018388 C329.836884,169.712975 329.779666,161.518043 325.688561,163.193263 C321.600639,164.862135 311.740029,160.860028 316.705306,167.363841 L316.705306,167.363841 L316.705306,167.363841 Z" id="path105" fill="#E50F07"></path>
                <path d="M316.705306,167.363841 C323.590561,176.378912 304.714907,154.359388 304.021942,167.894705 C303.319424,181.414123 308.583497,175.225005 306.564972,178.524593 C304.546436,181.817824 323.81626,182.879542 316.756166,172.697868 C309.708788,162.516185 317.620787,177.192684 323.781288,178.778897 C329.932248,180.361937 333.203216,180.336506 331.524826,175.018388 C329.836884,169.712975 329.779666,161.518043 325.688561,163.193263 C321.600639,164.862135 311.740029,160.860028 316.705306,167.363841 L316.705306,167.363841 L316.705306,167.363841 Z" id="path107" stroke="#000000" stroke-width="1.55524892"></path>
                <path d="M204.815426,162.878567 C204.815426,162.878567 217.334134,171.296015 224.473061,166.352984 C226.207723,165.148226 211.762039,175.44752 229.454858,167.516423 C242.402056,161.711945 232.058606,184.08431 244.605287,166.772585 C250.660883,158.409182 244.79219,171.865024 258.206054,176.690434 C258.206054,176.690434 254.236374,168.120394 258.721974,165.211802 C266.176868,160.373677 262.010113,176.378912 275.702104,163.428494 C275.702104,163.428494 279.049373,171.175221 281.884852,168.288875 C284.733046,165.396172 283.703118,164.385316 286.999527,165.580543 C290.280036,166.782127 290.156058,164.401205 296.974563,166.219475 C300.98302,167.28755 299.651103,167.557753 304.603655,170.231114 C304.727632,160.32599 300.286861,158.895533 295.884224,156.406542 C291.487975,153.914357 288.960834,132.393919 287.482702,128.90996 C284.980981,123.000576 288.248785,121.942032 285.451452,107.4213 C282.682732,92.9037405 265.249608,91.009179 261.145798,90.0173951 C257.028621,89.0319689 257.234922,89.6359398 246.387951,89.5373921 C246.387951,89.5373921 213.951903,94.2197613 239.217867,113.457835 C248.965313,120.873958 245.613283,129.574323 245.613283,129.574323 C245.641257,134.113641 233.138122,141.637853 228.618842,146.158098 C223.136058,151.647882 220.058045,161.54029 205.081498,162.474855 L204.815426,162.878567 L204.815426,162.878567 L204.815426,162.878567 Z" id="path109" fill="#FFFFFF"></path>
                <path d="M204.815426,162.878567 C204.815426,162.878567 217.334134,171.296015 224.473061,166.352984 C226.207723,165.148226 211.762039,175.44752 229.454858,167.516423 C242.402056,161.711945 232.058606,184.08431 244.605287,166.772585 C250.660883,158.409182 244.79219,171.865024 258.206054,176.690434 C258.206054,176.690434 254.236374,168.120394 258.721974,165.211802 C266.176868,160.373677 262.010113,176.378912 275.702104,163.428494 C275.702104,163.428494 279.049373,171.175221 281.884852,168.288875 C284.733046,165.396172 283.703118,164.385316 286.999527,165.580543 C290.280036,166.782127 290.156058,164.401205 296.974563,166.219475 C300.98302,167.28755 299.651103,167.557753 304.603655,170.231114 C304.727632,160.32599 300.286861,158.895533 295.884224,156.406542 C291.487975,153.914357 288.960834,132.393919 287.482702,128.90996 C284.980981,123.000576 288.248785,121.942032 285.451452,107.4213 C282.682732,92.9037405 265.249608,91.009179 261.145798,90.0173951 C257.028621,89.0319689 257.234922,89.6359398 246.387951,89.5373921 C246.387951,89.5373921 213.951903,94.2197613 239.217867,113.457835 C248.965313,120.873958 245.613283,129.574323 245.613283,129.574323 C245.641257,134.113641 233.138122,141.637853 228.618842,146.158098 C223.136058,151.647882 220.058045,161.54029 205.081498,162.474855 L204.815426,162.878567 L204.815426,162.878567 L204.815426,162.878567 Z" id="path111" stroke="#7F7F7F" stroke-width="1.55524892"></path>
                <path d="M244.938098,106.556668 C244.938098,106.556668 246.553879,108.991624 249.023487,110.193208 M242.132821,101.340261 C243.997493,103.889654 246.115532,105.917725 247.766904,106.52488" id="path113" stroke="#8C8C8C" stroke-width="1.55524892"></path>
                <path d="M241.732293,101.743973 C244.267695,105.625276 246.543066,107.955337 249.627131,108.756393" id="path115" stroke="#8C8C8C" stroke-width="1.55524892"></path>
                <path d="M264.892638,144.263537 C265.141519,149.59438 265.125325,148.154381 266.776067,149.56895 C268.425863,150.99305 272.666366,143.789902 272.640936,141.335872" id="path117" stroke="#8C8C8C" stroke-width="1.55524892"></path>
                <path d="M265.345612,103.330186 C267.421366,104.023163 268.651552,105.765143 268.238309,106.98581 M267.799637,101.664498 C270.088364,102.147675 270.676435,102.465554 271.096045,104.50634 M271.089677,100.612322 C273.540528,100.590065 273.960128,101.194036 274.169918,102.217608" id="path119" stroke="#8C8C8C" stroke-width="1.55524892"></path>
                <path d="M257.893882,116.681133 C258.274075,113.19399 256.476794,119.151051 259.358363,120.349462" id="path121" stroke="#8C8C8C" stroke-width="1.55524892"></path>
                <path d="M239.858721,112.710814 C243.76925,115.139412 248.250406,120.918461 248.284737,125.019116 M243.466009,113.515054 C245.34181,115.253849 248.52664,118.29596 248.944328,119.936218" id="path123" stroke="#8C8C8C" stroke-width="1.55524892"></path>
                <path d="M269.983469,118.442185 C270.619227,122.75263 270.221873,122.333029 272.898403,123.954214 C275.587667,125.569042 276.547661,118.807741 275.495488,115.123524 M277.32647,114.691208 C280.657829,119.987079 283.537821,121.60508 281.353979,106.474019 M279.866316,123.684022 C281.141015,128.178837 285.23212,128.553935 282.68909,118.744165 M270.908491,129.498032 C272.586892,135.216688 275.819724,128.6334 275.37151,124.54547 M273.804372,132.753117 C272.113257,127.02493 276.751104,142.143286 278.273738,129.841342 M262.156968,140.391765 C262.11278,135.464634 264.317587,147.890547 266.176868,145.201286 C266.652099,144.546455 267.087588,142.947516 267.469043,139.930845 M241.09209,140.414022 C240.620033,133.042393 242.851227,153.914357 247.631798,137.896407 M231.341471,149.095305 C232.114237,144.5846 229.379523,158.952751 236.242206,148.233856 M250.604937,150.169737 C249.310514,143.208177 249.51715,166.966497 257.976226,150.102987 M240.426762,158.447328 C239.991579,154.753569 242.953904,164.976572 246.964578,156.749852 M275.158526,146.666706 C278.07348,153.609193 280.940736,153.993832 282.530151,147.426443 M280.409894,138.843698 C279.116122,131.065183 283.823912,153.551974 286.128528,137.562638 M263.764163,157.007329 C262.887133,149.235171 266.404154,177.46606 270.75591,158.997254 M283.397955,152.744561 C280.883528,145.382473 287.600312,165.405704 289.927185,149.406826 M276.054954,156.495548 C273.540528,149.549877 280.686433,170.38688 283.032399,158.065873 M251.100187,160.805993 C249.428459,156.311178 252.003603,171.03218 256.84298,161.162018" id="path125" stroke="#8C8C8C" stroke-width="1.55524892"></path>
                <path d="M241.594003,99.7349747 C241.462091,100.510601 241.189672,101.476954 241.189672,101.476954 C241.189672,101.476954 244.938098,101.441982 250.161157,104.156673 C253.501448,105.898652 255.35309,101.623179 255.310489,102.360659 C255.466255,99.7635788 255.217994,97.751407 255.901113,96.2573736 C255.901113,96.2573736 253.511295,96.3050505 252.965184,96.3940567 C250.424371,96.7977687 251.258495,96.3845254 249.621099,96.3940567 C249.615688,96.3940567 242.391243,95.1892987 241.594003,99.7349747 L241.594003,99.7349747 L241.594003,99.7349747 Z" id="path127" fill="#727272"></path>
                <path d="M250.108405,101.476954 C251.63167,101.467413 252.345641,100.539205 252.847889,99.7127181 C253.228072,99.0737855 253.6038,98.1900806 253.109486,97.8722012 C252.599618,97.5574955 250.839526,97.9961691 250.077248,97.9961691 C249.179558,98.0088843 248.250406,97.8404133 247.749744,98.2695454 C247.397534,98.5619945 247.341588,99.3694083 247.341588,99.7699364 C247.353977,100.723575 248.584173,101.483312 250.108405,101.476954 L250.108405,101.476954 L250.108405,101.476954 Z" id="path129" fill="#FCCC0F"></path>
                <path d="M241.732293,112.977832 C243.466009,114.716638 254.514195,115.044049 252.826904,113.515054 C251.145331,111.992406 246.992552,111.86208 246.152721,109.39851 C246.152721,109.39851 239.313871,97.5892834 231.291882,96.2573736 C223.271795,94.9254537 230.416439,96.0221429 229.95615,95.9903549 C226.346634,95.7328675 225.537319,95.9903549 224.605929,96.6610754 C217.516601,97.7291504 208.155381,95.9903549 217.095089,115.088552 C217.938744,116.868677 216.259388,112.542342 218.712456,112.316643 C218.712456,112.316643 241.302206,112.558231 241.732293,112.977832 L241.732293,112.977832 L241.732293,112.977832 Z" id="path131" fill="#FCCC0F"></path>
                <path d="M241.732293,112.977832 C243.466009,114.716638 254.514195,115.044049 252.826904,113.515054 C251.145331,111.992406 246.992552,111.86208 246.152721,109.39851 C246.152721,109.39851 239.313871,97.5892834 231.291567,96.2573736 C223.271795,94.9254537 230.416439,96.0221429 229.95615,95.9903549 C226.346634,95.7328675 225.537319,95.9903549 224.605929,96.6610754 C217.516601,97.7291504 208.155381,95.9903549 217.095089,115.088552 C217.938744,116.868677 216.259388,112.542342 218.712456,112.316643 C218.712456,112.316643 241.302206,112.558231 241.732293,112.977832 L241.732293,112.977832 L241.732293,112.977832 Z" id="path133" stroke="#595959" stroke-width="1.55524892"></path>
                <path d="M250.290852,113.918755 C234.635011,110.301287 227.005604,103.889654 224.605929,96.6610754 M217.516601,115.390542 C217.516601,115.390542 217.240357,111.19135 219.08501,110.876654 C220.92649,110.549233 224.203815,110.927515 239.451185,110.170962" id="path135" stroke="#4C4C4C" stroke-width="1.55524892"></path>
                <path d="M250.671686,100.431126 C251.119575,100.41841 251.469567,100.062385 251.469567,99.6205381 C251.469567,99.1882221 251.107816,98.8258395 250.660883,98.8353708 C250.222526,98.8353708 249.876348,99.2009373 249.876348,99.6332533 C249.876348,100.084642 250.237143,100.431126 250.671686,100.431126 L250.671686,100.431126 L250.671686,100.431126 Z" id="path137" fill="#000000"></path>
                <path d="M231.866922,100.892056 C231.934953,100.968347 231.866922,101.149533 231.907926,101.273511 C232.010288,101.585033 232.361226,101.718542 232.494735,102.00145 C232.742996,102.478269 233.067232,102.729399 233.391784,103.155358 C234.066328,104.039062 235.128684,105.256536 235.571802,105.606203 C235.734871,104.862365 234.167093,102.948731 233.542464,102.494168 C233.178495,102.036422 232.774153,101.397479 232.350413,100.612322 C232.075451,100.64411 231.592916,100.106889 231.371672,99.9511327 C231.278526,100.386622 231.603088,100.612322 231.866922,100.892056 L231.866922,100.892056 L231.866922,100.892056 Z" id="path139" fill="#4C4C4C"></path>
                <path d="M58.1400584,369.359444 C58.1400584,369.359444 124.254429,491.599386 266.598055,481.300092 C404.122007,471.372712 451.387421,370.739995 455.929904,356.693851 C457.382616,352.203485 458.860757,348.733512 455.646997,345.826503 C448.796704,339.631667 428.220404,336.833374 424.691949,337.221186 C417.256759,338.048627 417.905232,343.952286 419.787074,345.751802 C421.776985,347.623795 424.95261,346.184118 424.345456,347.481066 C386.304895,428.808004 295.219862,447.776201 267.392752,449.324268 C267.392752,449.324268 153.068236,465.428682 88.7025286,354.83362 C88.7025286,354.83362 97.681023,339.843057 82.5824003,340.246446 C76.8450064,340.386313 71.8733798,353.937836 61.7435335,357.989846 C61.7435335,357.989846 53.8715798,362.920159 58.1400584,369.359444 L58.1400584,369.359444 L58.1400584,369.359444 Z" id="path141" fill="#F9DB11"></path>
                <path d="M59.7955712,359.77474 C59.7955712,359.77474 70.9095713,359.77474 66.4875578,371.687594 C64.9305874,375.912531 76.9241577,358.309633 88.6933024,355.237964 M457.093341,348.006522 C457.093341,348.006522 456.009369,346.71593 454.280118,346.408541 C452.00728,346.000384 448.399361,348.006522 449.063722,352.564278 C449.203589,353.443534 449.8171,354.133649 450.134979,354.377145 C454.356399,357.675463 439.861126,348.67534 424.345456,347.481066" id="path143" stroke="#3F3F3F" stroke-width="1.55524892"></path>
                <path d="M41.60654,295.883177 C35.6285092,298.720252 35.7216482,304.238959 36.5373252,307.686998 C38.0749055,314.187635 44.1155589,318.300042 53.5619658,316.062488 C62.0086444,314.062391 67.7981726,309.524024 65.6919066,300.6288 C64.946163,297.483383 62.1577291,292.38682 53.4214634,292.716779 L52.3079335,288.01979 C66.3267111,286.809941 69.52807,297.664256 70.1670064,300.36496 C72.0962134,308.510624 68.6907763,317.759647 54.8961037,321.027131 C43.8494939,323.638511 34.7104752,319.15196 32.2386487,308.706756 C30.0494168,299.460594 34.6631118,293.301041 40.4952357,291.18142 L41.60654,295.883177 L41.60654,295.883177 L41.60654,295.883177 Z" id="path145" fill="#FFFFFF"></path>
                <path d="M63.5811914,256.687358 L65.6400929,283.829185 L28.8691323,286.61667 L26.8388399,259.830551 L31.2430522,259.498366 L32.8992018,281.316029 L44.1638765,280.461569 L42.6380572,260.334072 L47.0416338,259.998074 L48.5696777,280.128749 L60.8585579,279.196727 L59.1776148,257.020495 L63.5811914,256.687358 L63.5811914,256.687358 L63.5811914,256.687358 Z" id="path147" fill="#FFFFFF"></path>
                <path d="M28.7788548,227.923076 L29.1647596,223.110384 L65.9265012,226.06666 L65.4779747,231.648622 L34.2781601,247.948213 L34.2689421,248.051206 L63.9645532,250.44166 L63.5773768,255.254039 L26.816271,252.294263 L27.2921351,246.409041 L58.4652479,230.41525 L58.4744669,230.313528 L28.7788548,227.923076 L28.7788548,227.923076 L28.7788548,227.923076 Z" id="path149" fill="#FFFFFF"></path>
                <path d="M29.8555108,218.542451 L36.6794176,189.386539 L40.979683,190.394222 L38.1330778,202.543574 L69.7439092,209.940634 L68.6093993,214.794648 L36.9992036,207.394414 L34.1554589,219.54695 L29.8555108,218.542451 L29.8555108,218.542451 L29.8555108,218.542451 Z" id="path151" fill="#FFFFFF"></path>
                <path d="M74.4135509,193.426792 L72.5634952,198.055116 L38.3053681,184.36086 L44.6387874,168.520922 C46.8887336,162.891282 51.0949079,158.040442 58.3473154,160.942676 C63.4050865,162.961216 64.235386,166.283051 64.6467211,168.994568 C66.2405665,167.360667 67.8820926,165.749014 72.7287922,167.462389 L79.0460002,169.655757 C80.9736183,170.374164 81.7838888,170.421841 83.1676229,169.312447 L83.9295758,169.617611 L81.6621387,175.294938 C79.2958529,175.123283 74.0371824,173.187403 72.7497722,172.675612 C69.9340008,171.550318 66.4115852,170.806481 64.201055,176.340767 L59.7202344,187.55238 L74.4135509,193.426792 L74.4135509,193.426792 L74.4135509,193.426792 Z M55.758191,185.972514 L60.0498742,175.234546 C61.4018133,171.845951 61.975585,167.923309 56.9184496,165.90478 C51.6225868,163.784519 49.6476053,167.478278 48.7317959,169.76701 L44.1155589,181.315575 L55.758191,185.972514 L55.758191,185.972514 L55.758191,185.972514 Z" id="path153" fill="#FFFFFF"></path>
                <path d="M78.0415022,159.044941 L85.2939116,167.847018 L82.6663204,172.262368 L58.074257,141.478913 L60.9640937,136.621715 L99.484652,144.015591 L96.6990877,148.694776 L85.6092372,146.336111 L78.0415022,159.044941 L78.0415022,159.044941 L78.0415022,159.044941 Z M80.894469,145.620887 L64.1638627,141.997062 L64.1104591,142.082884 L75.0337319,155.459261 L80.894469,145.620887 L80.894469,145.620887 L80.894469,145.620887 Z" id="path155" fill="#FFFFFF"></path>
                <path d="M99.0895363,138.147537 L110.738213,123.521898 L114.194832,126.271561 L99.4379315,144.800758 L70.5866065,121.818065 L73.6926007,117.920863 L99.0895363,138.147537 L99.0895363,138.147537 L99.0895363,138.147537 Z" id="path157" fill="#FFFFFF"></path>
                <path d="M128.280677,112.968301 L124.610769,116.337823 L99.6668144,89.1686519 L103.338625,85.7991299 L128.280677,112.968301 L128.280677,112.968301 L128.280677,112.968301 Z" id="path159" fill="#FFFFFF"></path>
                <path d="M128.549282,65.9030506 L132.437261,63.035778 L154.311778,92.725728 L149.80331,96.0443893 L117.040798,83.1798033 L116.957834,83.2433792 L134.629037,107.224214 L130.7417,110.088313 L108.868129,80.4015369 L113.624552,76.8985055 L146.136576,89.9442778 L146.219539,89.8807019 L128.549282,65.9030506 L128.549282,65.9030506 L128.549282,65.9030506 Z" id="path161" fill="#FFFFFF"></path>
                <path d="M136.403757,60.5149991 L162.884974,46.5410087 L164.9461,50.4509258 L153.908707,56.2744772 L169.056278,84.9758272 L164.652706,87.3058784 L149.503863,58.598181 L138.467427,64.4217324 L136.403757,60.5149991 L136.403757,60.5149991 L136.403757,60.5149991 Z" id="path163" fill="#FFFFFF"></path>
                <path d="M205.626337,70.2611828 L179.977963,79.381149 L167.619781,44.6369159 L192.930573,35.63456 L194.409661,39.795607 L173.7949,47.1259069 L177.581472,57.7748682 L196.598895,51.0103937 L198.080525,55.1714406 L179.06056,61.9359151 L183.192354,73.5512299 L204.146293,66.0969621 L205.626337,70.2611828 L205.626337,70.2611828 L205.626337,70.2611828 Z" id="path165" fill="#FFFFFF"></path>
                <path d="M210.931424,64.8476908 L229.242199,61.0490366 L230.140845,65.372197 L206.951897,70.1848917 L199.45663,34.0674194 L204.33639,33.0565628 L210.931424,64.8476908 L210.931424,64.8476908 L210.931424,64.8476908 Z" id="path167" fill="#FFFFFF"></path>
                <path d="M234.65981,60.7597612 L253.291964,59.2243984 L253.653389,63.62386 L230.055328,65.5692822 L227.027851,28.8192248 L231.993443,28.4059815 L234.65981,60.7597612 L234.65981,60.7597612 L234.65981,60.7597612 Z" id="path169" fill="#FFFFFF"></path>
                <path d="M259.828498,64.0688913 L254.843212,64.0498185 L254.993882,27.1630678 L259.97695,27.1821406 L259.828498,64.0688913 L259.828498,64.0688913 L259.828498,64.0688913 Z" id="path171" fill="#FFFFFF"></path>
                <path d="M281.770405,45.8226012 L297.839194,47.7330617 L295.512321,67.3207929 L292.292193,66.9425214 L291.681876,62.0535356 C288.776464,65.2291461 283.909745,66.9266224 278.915864,66.3321929 C272.640936,65.5915287 269.84995,62.927699 268.184275,60.8678402 C263.201522,54.8948804 263.792136,48.6008675 264.254642,44.7259222 C265.315411,35.7966836 271.919346,26.3937996 283.8557,27.811552 C290.686921,28.6221395 297.832836,33.4030463 297.9282,41.7442029 L293.134587,41.1720199 C292.304919,34.6078145 287.107605,32.6464933 283.08326,32.1696741 C276.499985,31.3876907 270.466645,35.9969426 269.325455,45.5873704 C268.441752,53.0352908 269.983469,60.9791031 279.726449,62.1361843 C281.563789,62.3523423 284.545502,62.5017405 287.504949,60.6802964 C291.020678,58.5123485 292.225454,55.3462692 292.692731,51.4141056 L281.264983,50.0567553 L281.770405,45.8226012 L281.770405,45.8226012 L281.770405,45.8226012 Z" id="path173" fill="#FFFFFF"></path>
                <path d="M324.868423,75.9861966 L298.757869,68.2871464 L309.190651,32.913512 L334.951549,40.5108306 L333.70229,44.7513525 L312.719106,38.5590509 L309.521245,49.39875 L328.880064,55.1110384 L327.630805,59.3452028 L308.271976,53.6360778 L304.784851,65.4548456 L326.114518,71.7488586 L324.868423,75.9861966 L324.868423,75.9861966 L324.868423,75.9861966 Z" id="path175" fill="#FFFFFF"></path>
                <path d="M364.590589,54.0143595 L368.942345,56.1091799 L352.943489,89.3371331 L347.901942,86.9085342 L343.934814,51.932244 L343.836267,51.8845672 L330.911304,78.7263174 L326.562732,76.6314868 L342.567935,43.4067174 L347.886053,45.9688257 L351.57661,80.8116065 L351.665627,80.8561096 L364.590589,54.0143595 L364.590589,54.0143595 L364.590589,54.0143595 Z" id="path177" fill="#FFFFFF"></path>
                <path d="M391.584857,84.8041723 C394.197831,78.7231335 390.478639,74.6415615 387.582768,72.5880603 C382.134315,68.7290039 374.886678,69.6349552 369.269765,77.5533372 C364.253637,84.638875 362.902647,91.8674535 370.366431,97.1537937 C373.004826,99.0260985 378.466004,101.006492 384.807681,94.9890296 L388.74301,97.7768374 C379.02547,107.948979 369.450951,101.918801 367.18448,100.313515 C360.350065,95.4722063 356.793007,86.275949 364.991116,74.7083111 C371.552135,65.448488 381.377774,62.7783007 390.138513,68.9864811 C397.891582,74.4794379 398.498726,82.1498739 395.520196,87.5951538 L391.584857,84.8041723 L391.584857,84.8041723 L391.584857,84.8041723 Z" id="path179" fill="#FFFFFF"></path>
                <path d="M400.975007,128.687444 L381.469953,109.697316 L407.199074,83.2688095 L426.443467,102.010992 L423.363216,105.177071 L407.688607,89.9093161 L399.805213,98.0088843 L414.265525,112.090954 L411.1821,115.253849 L396.724952,101.174964 L388.119978,110.008838 L404.055247,125.521365 L400.975007,128.687444 L400.975007,128.687444 L400.975007,128.687444 Z" id="path181" fill="#FFFFFF"></path>
                <path d="M422.177523,138.789653 L411.086737,141.466198 L408.260789,137.174825 L446.701888,128.503074 L449.804385,133.223579 L426.325836,164.645977 L423.337775,160.097117 L430.299321,151.15199 L422.177523,138.789653 L422.177523,138.789653 L422.177523,138.789653 Z M433.001291,147.223 L443.580308,133.751259 L443.516732,133.665436 L426.716842,137.648461 L433.001291,147.223 L433.001291,147.223 L433.001291,147.223 Z" id="path183" fill="#FFFFFF"></path>
                <path d="M450.351126,170.415484 L456.912155,185.206419 L438.888417,193.213807 L437.575582,190.254355 L441.456888,187.237674 C437.244988,186.353969 433.306465,183.048023 431.262509,178.445129 C428.697222,172.672438 429.561853,168.915093 430.470986,166.429276 C433.064867,159.092618 438.780338,156.390643 442.34058,154.804429 C450.56411,151.158347 462.017278,152.022979 466.896733,163.012077 C469.694067,169.302906 469.229964,177.882477 462.106295,182.22471 L460.151345,177.812543 C465.377272,173.74687 464.401369,168.279334 462.757951,164.569686 C460.068696,158.514077 453.024492,155.68495 444.193809,159.604409 C437.340352,162.64651 431.303828,168.028214 435.280497,176.995598 C436.033865,178.686717 437.429358,181.325116 440.503231,182.939944 C444.165215,184.853578 447.502942,184.271854 451.123567,182.663384 L446.450748,172.147932 L450.351126,170.415484 L450.351126,170.415484 L450.351126,170.415484 Z" id="path185" fill="#FFFFFF"></path>
                <path d="M446.266389,222.083628 L439.454231,195.725055 L475.164766,186.490662 L481.887887,212.502742 L477.612433,213.608963 L472.132192,192.422293 L461.18763,195.25142 L466.245066,214.797832 L461.972785,215.900868 L456.912155,196.35764 L444.975801,199.444244 L450.541854,220.977408 L446.266389,222.083628 L446.266389,222.083628 L446.266389,222.083628 Z" id="path187" fill="#FFFFFF"></path>
                <path d="M485.51489,243.896839 L485.979003,248.703177 L449.263991,252.242131 L448.726771,246.667476 L476.588863,225.147983 L476.582495,225.043088 L446.914861,227.900819 L446.450748,223.094485 L483.175312,219.556492 L483.741136,225.440432 L455.85043,246.650629 L455.856797,246.757754 L485.51489,243.896839 L485.51489,243.896839 L485.51489,243.896839 Z" id="path189" fill="#FFFFFF"></path>
                <path d="M443.211579,302.507469 L444.336869,297.654083 L458.800355,301.012164 L483.413706,292.433231 L482.100881,298.083857 L462.44643,304.385819 L477.313616,318.701843 L475.997608,324.406191 L457.67189,305.864912 L443.211579,302.507469 L443.211579,302.507469 L443.211579,302.507469 Z" id="path193" fill="#FFFFFF"></path>
                <path d="M106.357527,390.655466 L96.560167,399.14889 C93.4684931,401.825436 89.1853788,402.152216 85.5943045,398.013424 C82.0772935,393.951559 83.1739804,389.946277 85.9910173,387.506233 L96.0626994,378.775354 L97.8297902,380.814869 L88.3245732,389.050493 C85.044064,391.894879 85.871505,394.674735 87.4577152,396.504767 C89.0804839,398.377396 91.7627503,399.732516 95.0429442,396.88813 L104.593295,388.615951 L106.357527,390.655466 L106.357527,390.655466 L106.357527,390.655466 Z" id="path195" fill="#E50F07"></path>
                <path d="M118.448681,402.636664 L120.324491,404.45875 L106.402336,418.794481 L104.227099,416.681217 L108.185966,398.025821 L108.145593,397.985451 L96.9025301,409.56453 L95.0235562,407.739902 L108.945692,393.412754 L111.241102,395.63791 L107.163658,414.180778 L107.202444,414.21479 L118.448681,402.636664 L118.448681,402.636664 L118.448681,402.636664 Z" id="path197" fill="#E50F07"></path>
                <path d="M112.10795,423.644688 L110.067168,421.880774 L123.132312,406.76433 L125.176278,408.53174 L112.10795,423.644688 L112.10795,423.644688 L112.10795,423.644688 Z" id="path199" fill="#E50F07"></path>
                <path d="M126.458596,409.822331 L139.27611,419.776093 L137.806869,421.662708 L132.466831,417.516287 L121.679286,431.411116 L119.545999,429.756556 L130.332588,415.862996 L124.991583,411.711807 L126.458596,409.822331 L126.458596,409.822331 L126.458596,409.822331 Z" id="path201" fill="#E50F07"></path>
                <path d="M141.661788,445.255412 L129.341436,437.158702 L140.303494,420.467481 L152.463951,428.45325 L151.150791,430.452392 L141.2441,423.948262 L137.886029,429.060405 L147.022822,435.063881 L145.711249,437.063023 L136.572869,431.062405 L132.908362,436.638651 L142.976219,443.253086 L141.661788,445.255412 L141.661788,445.255412 L141.661788,445.255412 Z" id="path203" fill="#E50F07"></path>
                <path d="M155.193263,430.06999 L162.353165,433.847039 C166.95542,436.279452 167.94179,441.268573 165.251264,446.36449 C163.158991,450.324638 158.732846,454.531775 152.926467,451.466145 L145.861928,447.735827 L155.193263,430.06999 L155.193263,430.06999 L155.193263,430.06999 Z M149.327763,446.954159 L153.953851,449.398973 C157.055077,451.037003 160.361016,449.665676 162.711092,445.214092 C165.064036,440.755826 164.204176,437.441935 160.955455,435.725071 L156.502608,433.371491 L149.327763,446.954159 L149.327763,446.954159 L149.327763,446.954159 Z" id="path205" fill="#E50F07"></path>
                <path d="M186.572997,450.726753 C187.518048,447.781602 185.460737,445.97859 183.349065,445.19565 C181.756498,444.605035 178.906076,444.047785 177.847534,446.892811 C177.257867,448.481567 178.186073,449.419632 179.183266,450.09195 L184.072557,453.303173 C186.28595,454.773048 187.567007,456.91587 186.461104,459.888364 C184.814492,464.32119 180.23958,464.013798 177.030265,462.823342 C173.562213,461.532751 172.594274,459.983727 172.040209,458.920423 C170.982308,456.894255 171.254097,455.211721 171.900658,453.464656 L174.274577,454.343905 C173.013549,457.740129 175.41004,459.753898 177.808117,460.647144 C179.634969,461.327722 182.885918,462.001626 183.883742,459.316181 C184.611049,457.357402 183.931104,456.393592 181.125826,454.519375 L177.621845,452.212211 C176.504814,451.466145 174.058734,449.579528 175.271129,446.318716 C176.356688,443.394225 179.326632,441.236785 183.8653,442.925676 C190.409789,445.357133 189.609691,449.510551 188.946275,451.60824 L186.572997,450.726753 L186.572997,450.726753 L186.572997,450.726753 Z" id="path207" fill="#E50F07"></path>
                <path d="M192.443268,446.634378 L208.112149,450.8253 L207.492606,453.138822 L200.964322,451.388583 L196.418339,468.377016 L193.811418,467.676094 L198.354542,450.691791 L191.82467,448.944085 L192.443268,446.634378 L192.443268,446.634378 L192.443268,446.634378 Z" id="path209" fill="#E50F07"></path>
                <path d="M210.621164,465.652794 L207.595284,471.037347 L204.849441,470.573243 L215.59343,452.128291 L218.610105,452.641343 L222.410348,473.54542 L219.502393,473.05493 L218.524587,466.98916 L210.621164,465.652794 L210.621164,465.652794 L210.621164,465.652794 Z M217.965121,464.467099 L216.523223,455.305488 L216.467917,455.295316 L211.843416,463.432399 L217.965121,464.467099 L217.965121,464.467099 L217.965121,464.467099 Z" id="path211" fill="#E50F07"></path>
                <path d="M225.821183,453.822583 L241.9939,455.057227 L241.812083,457.441322 L235.069554,456.925086 L233.731604,474.455827 L231.040437,474.251754 L232.379027,456.724186 L225.638725,456.204136 L225.821183,453.822583 L225.821183,453.822583 L225.821183,453.822583 Z" id="path213" fill="#E50F07"></path>
                <path d="M259.08753,474.882742 L244.345257,475.043268 L244.127187,455.071854 L258.675559,454.912915 L258.703217,457.305596 L246.850467,457.434965 L246.917858,463.556692 L257.850346,463.434942 L257.876091,465.82921 L246.94519,465.947146 L247.016395,472.618799 L259.059557,472.48942 L259.08753,474.882742 L259.08753,474.882742 L259.08753,474.882742 Z" id="path215" fill="#E50F07"></path>
                <path d="M274.04595,459.443648 C273.629524,456.378018 270.99113,455.63831 268.746916,455.84334 C267.0558,455.992433 264.245436,456.724186 264.519128,459.742454 C264.672025,461.432617 265.916197,461.884331 267.103487,462.051846 L272.901586,462.844958 C275.536797,463.220696 277.61256,464.598065 277.901825,467.756831 C278.324609,472.466858 274.061849,474.167834 270.654188,474.475215 C266.966794,474.808353 265.427305,473.828013 264.466344,473.104845 C262.637916,471.736681 262.156968,470.09738 261.988497,468.242551 L264.509912,468.014634 C264.836691,471.6178 267.866396,472.4055 270.418948,472.177267 C272.361192,472.000526 275.587667,471.207099 275.327007,468.35063 C275.13628,466.27361 274.106342,465.699515 270.771798,465.213795 L266.61077,464.641612 C265.277581,464.45534 262.25933,463.804323 261.944309,460.339111 C261.664891,457.233434 263.413225,454.002508 268.235136,453.568595 C275.193498,452.939193 276.26157,457.034762 276.566734,459.216046 L274.04595,459.443648 L274.04595,459.443648 L274.04595,459.443648 Z" id="path217" fill="#E50F07"></path>
                <path d="M299.358654,470.347238 C292.041074,471.805669 288.595278,466.169031 287.752894,461.940278 C286.910521,457.712156 287.93409,451.182912 295.242119,449.726394 C302.550158,448.267322 306.005505,453.90396 306.847879,458.131126 C307.690263,462.359238 306.666693,468.888482 299.358654,470.347238 L299.358654,470.347238 L299.358654,470.347238 Z M295.712579,452.072344 C291.456187,452.92362 289.56162,456.783948 290.483468,461.395427 C291.398969,466.010722 294.631792,468.851933 298.888194,468.005102 C303.144596,467.153816 305.039154,463.285859 304.117305,458.678194 C303.201814,454.064487 299.968982,451.223285 295.712579,452.072344 L295.712579,452.072344 L295.712579,452.072344 Z" id="path219" fill="#E50F07"></path>
                <path d="M315.678562,465.996735 L313.087845,466.740257 L307.566285,447.541601 L320.859987,443.72482 L321.514817,446.025321 L310.821364,449.096992 L312.512469,454.981892 L321.924876,452.27483 L322.586064,454.575321 L313.170483,457.283654 L315.678562,465.996735 L315.678562,465.996735 L315.678562,465.996735 Z" id="path221" fill="#E50F07"></path>
                <path d="M338.35922,452.321561 L338.699335,458.492868 L336.134068,459.574614 L335.298032,438.246806 L338.117632,437.056024 L352.542972,452.659785 L349.828277,453.804466 L345.743539,449.2127 L338.35922,452.321561 L338.35922,452.321561 L338.35922,452.321561 Z M343.922099,447.381074 L337.783854,440.425231 L337.736177,440.451617 L338.200281,449.793143 L343.922099,447.381074 L343.922099,447.381074 L343.922099,447.381074 Z" id="path223" fill="#E50F07"></path>
                <path d="M370.277436,443.174578 L364.60012,432.839671 C364.317213,432.327565 363.147419,430.08238 362.247817,428.444991 L362.203314,428.472638 L365.350314,445.881639 L363.017084,447.170002 L350.022188,435.199934 L349.971338,435.22155 C350.858214,436.831922 352.12973,439.027518 352.403095,439.539624 L358.089962,449.876748 L355.798051,451.136507 L346.172671,433.627382 L349.564453,431.768097 L362.699205,443.82114 L362.746892,443.793166 L359.59034,426.258611 L362.953508,424.412366 L372.569347,441.918318 L370.277436,443.174578 L370.277436,443.174578 L370.277436,443.174578 Z" id="path225" fill="#E50F07"></path>
                <path d="M389.34698,430.371971 L377.261238,438.828845 L365.80806,422.462811 L377.731699,414.121016 L379.098577,416.07979 L369.393733,422.875737 L372.903114,427.893783 L381.857765,421.620112 L383.231002,423.581112 L374.276341,429.852561 L378.103622,435.321674 L387.97058,428.41066 L389.34698,430.371971 L389.34698,430.371971 L389.34698,430.371971 Z" id="path227" fill="#E50F07"></path>
                <path d="M395.351726,425.512865 L393.310944,427.278368 L380.246125,412.162878 L387.239459,406.121895 C389.725271,403.973665 392.951736,402.690068 395.717291,405.891433 C397.643637,408.124218 397.220853,409.927867 396.737677,411.332577 C397.910655,410.946671 399.099522,410.57952 401.006795,412.610771 L403.502138,415.237726 C404.245975,416.061035 404.627429,416.285458 405.565167,416.098227 L405.857625,416.435179 L403.349556,418.60121 C402.259227,417.927623 400.212098,415.689434 399.71938,415.118839 C398.64495,413.875613 397.138194,412.644783 394.700079,414.752642 L389.747517,419.030348 L395.351726,425.512865 L395.351726,425.512865 L395.351726,425.512865 Z M388.240772,417.280103 L392.98035,413.189629 C394.47438,411.895224 395.723649,410.151972 393.79412,407.919186 C391.778768,405.584043 389.906457,406.868594 388.895602,407.739902 L383.796826,412.144124 L388.240772,417.280103 L388.240772,417.280103 L388.240772,417.280103 Z" id="path229" fill="#E00C05"></path>
                <path d="M410.816535,411.292206 L408.912435,413.201072 L394.763655,399.092943 L396.667744,397.183758 L410.816535,411.292206 L410.816535,411.292206 L410.816535,411.292206 Z" id="path231" fill="#E50F07"></path>
                <path d="M413.22923,387.716669 C410.079046,386.003617 407.688607,387.807266 406.436165,389.265696 C404.090219,392.006772 404.214187,395.967869 408.200377,399.391114 C411.770171,402.450387 415.606973,403.538488 418.82708,399.780517 C419.965076,398.449555 421.312893,395.601354 418.385234,391.883117 L420.082707,389.892556 C425.076578,395.651261 421.347864,400.513864 420.375155,401.654734 C417.422046,405.093555 412.281961,406.554211 406.452043,401.558417 C401.788777,397.554088 400.838314,392.118348 404.621072,387.708087 C407.971514,383.799758 412.145258,383.855705 414.929886,385.737552 L413.22923,387.716669 L413.22923,387.716669 L413.22923,387.716669 Z" id="path233" fill="#E50F07"></path>
                <path d="M425.248232,385.276627 L428.856162,390.287679 L427.282656,392.583406 L415.079294,375.075871 L416.814913,372.554452 L437.375314,377.908497 L435.706445,380.339957 L429.787552,378.676175 L425.248232,385.276627 L425.248232,385.276627 L425.248232,385.276627 Z M427.266768,378.124336 L418.350262,375.567949 L418.321658,375.613724 L423.751018,383.233932 L427.266768,378.124336 L427.266768,378.124336 L427.266768,378.124336 Z" id="path235" fill="#E50F07"></path>
                <path d="M287.072634,164.75723 C293.093258,170.494959 295.359739,170.66344 289.383618,156.587728 L287.072634,164.75723 L287.072634,164.75723 L287.072634,164.75723 Z" id="path237" fill="#FFFFFF"></path>
                <path d="M287.072634,164.75723 C293.093258,170.494959 295.359739,170.66344 289.383618,156.587728 L287.072634,164.75723 L287.072634,164.75723 L287.072634,164.75723 Z" id="path239" stroke="#8C8C8C" stroke-width="1.55524892"></path>
                <path d="M254.4341,97.2491575 C254.189012,97.2491575 257.408814,98.3458365 259.998576,95.1002925 M254.208411,96.5720692 C250.79661,97.3540526 257.000658,97.0902178 257.194549,93.9845306" id="path241" stroke="#727272" stroke-width="1.55524892"></path>
                <path d="M241.328592,112.710814 C244.418059,114.942327 248.395674,120.171449 248.819404,121.805349" id="path243" stroke="#8C8C8C" stroke-width="1.55524892"></path>
                <path d="M266.163827,133.938813 C266.127279,129.707832 267.755134,138.246074 269.389031,139.069387 C270.129693,139.450842 270.879887,138.227001 271.483857,133.474709" id="path245" stroke="#8C8C8C" stroke-width="1.55524892"></path>
                <path d="M149.679383,187.902922 C153.634955,189.348922 157.962827,197.306772 157.962827,201.076578 L159.459827,374.030779 C159.459837,389.434745 175.919327,399.978905 189.998774,399.978905 L229.519756,399.978905 C242.323253,399.978905 251.379859,401.087828 255.467882,416.346205 C259.555915,401.087828 268.61245,399.978905 281.415998,399.978905 L321.036788,399.978905 C335.116215,399.978905 351.575736,389.434745 351.575736,374.030779 L353.072746,201.076578 C353.072746,197.306772 357.400608,189.348922 361.35617,187.902922 L255.467882,187.902922 L149.679383,187.902922 L149.679383,187.902922 Z" id="path19" fill="#FFFFFF"></path>
                <path d="M315.19971,270.683276 L255.922596,296.146063 L266.190722,299.712036 L315.19971,270.683276 L315.19971,270.683276 L315.19971,270.683276 Z" id="path21" fill="#6B0000"></path>
                <path d="M315.19971,270.683276 L255.922596,296.146063 L266.190722,299.712036 L315.19971,270.683276 L315.19971,270.683276 L315.19971,270.683276 Z" id="path23" stroke="#000000" stroke-width="1.55524892"></path>
                <path d="M230.168686,236.979462 L255.922596,296.146063 L259.448193,285.849309 L230.168686,236.979462 L230.168686,236.979462 L230.168686,236.979462 Z" id="path25" fill="#6B0000"></path>
                <path d="M230.168686,236.979462 L255.922596,296.146063 L259.448193,285.849309 L230.168686,236.979462 L230.168686,236.979462 L230.168686,236.979462 Z" id="path27" stroke="#000000" stroke-width="1.55524892"></path>
                <path d="M281.663476,355.310757 L255.922596,296.146063 L265.846142,300.571265 L281.663476,355.310757 L281.663476,355.310757 L281.663476,355.310757 Z" id="path29" fill="#6B0000"></path>
                <path d="M281.663476,355.310757 L255.922596,296.146063 L265.846142,300.571265 L281.663476,355.310757 L281.663476,355.310757 L281.663476,355.310757 Z" id="path31" stroke="#000000" stroke-width="1.55524892"></path>
                <path d="M196.244335,320.669199 L255.922596,296.146063 L251.282522,305.972674 L196.244335,320.669199 L196.244335,320.669199 L196.244335,320.669199 Z" id="path33" fill="#6B0000"></path>
                <path d="M196.244335,320.669199 L255.922596,296.146063 L251.282522,305.972674 L196.244335,320.669199 L196.244335,320.669199 L196.244335,320.669199 Z" id="path35" stroke="#000000" stroke-width="1.55524892"></path>
                <path d="M281.549039,236.928601 L255.922596,296.146063 L265.846142,291.694479 L281.549039,236.928601 L281.549039,236.928601 L281.549039,236.928601 Z" id="path37" fill="#6B0000"></path>
                <path d="M281.549039,236.928601 L255.922596,296.146063 L265.846142,291.694479 L281.549039,236.928601 L281.549039,236.928601 L281.549039,236.928601 Z" id="path39" stroke="#000000" stroke-width="1.55524892"></path>
                <path d="M315.263285,321.480109 L255.922596,296.146063 L266.176105,292.555296 L315.263285,321.480109 L315.263285,321.480109 L315.263285,321.480109 Z" id="path41" fill="#6B0000"></path>
                <path d="M315.263285,321.480109 L255.922596,296.146063 L266.176105,292.555296 L315.263285,321.480109 L315.263285,321.480109 L315.263285,321.480109 Z" id="path43" stroke="#000000" stroke-width="1.55524892"></path>
                <path d="M229.372403,354.955368 L255.922596,296.146063 L259.301653,306.464751 L229.372403,354.955368 L229.372403,354.955368 L229.372403,354.955368 Z" id="path45" fill="#6B0000"></path>
                <path d="M229.372403,354.955368 L255.922596,296.146063 L259.301653,306.464751 L229.372403,354.955368 L229.372403,354.955368 L229.372403,354.955368 Z" id="path47" stroke="#000000" stroke-width="1.55524892"></path>
                <path d="M196.583514,270.795806 L255.922596,296.146063 L245.651286,299.737149 L196.583514,270.795806 L196.583514,270.795806 L196.583514,270.795806 Z" id="path49" fill="#6B0000"></path>
                <path d="M196.583514,270.795806 L255.922596,296.146063 L245.651286,299.737149 L196.583514,270.795806 L196.583514,270.795806 L196.583514,270.795806 Z" id="path51" stroke="#000000" stroke-width="1.55524892"></path>
                <path d="M196.3575,320.953383 L255.922596,296.146063 L245.686258,292.44976 L196.3575,320.953383 L196.3575,320.953383 L196.3575,320.953383 Z" id="path53" fill="#E50F07"></path>
                <path d="M196.3575,320.953383 L255.922596,296.146063 L245.686258,292.44976 L196.3575,320.953383 L196.3575,320.953383 L196.3575,320.953383 Z" id="path55" stroke="#000000" stroke-width="1.55524892"></path>
                <path d="M281.650761,355.300585 L255.922596,296.146063 L252.383654,306.414208 L281.650761,355.300585 L281.650761,355.300585 L281.650761,355.300585 Z" id="path57" fill="#E50F07"></path>
                <path d="M281.650761,355.300585 L255.922596,296.146063 L252.383654,306.414208 L281.650761,355.300585 L281.650761,355.300585 L281.650761,355.300585 Z" id="path59" stroke="#000000" stroke-width="1.55524892"></path>
                <path d="M230.179499,236.976283 L255.922596,296.146063 L245.987282,291.704015 L230.179499,236.976283 L230.179499,236.976283 L230.179499,236.976283 Z" id="path61" fill="#E50F07"></path>
                <path d="M230.179499,236.976283 L255.922596,296.146063 L245.987282,291.704015 L230.179499,236.976283 L230.179499,236.976283 L230.179499,236.976283 Z" id="path63" stroke="#000000" stroke-width="1.55524892"></path>
                <path d="M315.215599,270.683276 L255.922596,296.146063 L260.392918,286.238711 L315.215599,270.683276 L315.215599,270.683276 L315.215599,270.683276 Z" id="path65" fill="#E50F07"></path>
                <path d="M315.215599,270.683276 L255.922596,296.146063 L260.392918,286.238711 L315.215599,270.683276 L315.215599,270.683276 L315.215599,270.683276 Z" id="path67" stroke="#000000" stroke-width="1.55524892"></path>
                <path d="M196.568571,270.817421 L255.922596,296.146063 L251.416662,286.238711 L196.568571,270.817421 L196.568571,270.817421 L196.568571,270.817421 Z" id="path69" fill="#E50F07"></path>
                <path d="M196.568571,270.817421 L255.922596,296.146063 L251.416662,286.238711 L196.568571,270.817421 L196.568571,270.817421 L196.568571,270.817421 Z" id="path71" stroke="#000000" stroke-width="1.55524892"></path>
                <path d="M229.648006,355.07966 L255.922596,296.146063 L245.953286,300.487344 L229.648006,355.07966 L229.648006,355.07966 L229.648006,355.07966 Z" id="path73" fill="#E50F07"></path>
                <path d="M229.648006,355.07966 L255.922596,296.146063 L245.953286,300.487344 L229.648006,355.07966 L229.648006,355.07966 L229.648006,355.07966 Z" id="path75" stroke="#000000" stroke-width="1.55524892"></path>
                <path d="M315.263285,321.480109 L255.922596,296.146063 L260.420586,306.038793 L315.263285,321.480109 L315.263285,321.480109 L315.263285,321.480109 Z" id="path77" fill="#E50F07"></path>
                <path d="M315.263285,321.480109 L255.922596,296.146063 L260.420586,306.038793 L315.263285,321.480109 L315.263285,321.480109 L315.263285,321.480109 Z" id="path79" stroke="#000000" stroke-width="1.55524892"></path>
                <path d="M281.549039,236.928601 L255.922596,296.146063 L252.370624,285.859163 L281.549039,236.928601 L281.549039,236.928601 L281.549039,236.928601 Z" id="path81" fill="#E50F07"></path>
                <path d="M281.549039,236.928601 L255.922596,296.146063 L252.370624,285.859163 L281.549039,236.928601 L281.549039,236.928601 L281.549039,236.928601 Z" id="path83" stroke="#000000" stroke-width="1.55524892"></path>
                <path d="M308.381204,245.183615 L255.922596,296.146063 L268.226744,295.766515 L308.381204,245.183615 L308.381204,245.183615 L308.381204,245.183615 Z" id="path247" fill="#6B0000"></path>
                <path d="M308.381204,245.183615 L255.922596,296.146063 L268.226744,295.766515 L308.381204,245.183615 L308.381204,245.183615 L308.381204,245.183615 Z" id="path249" stroke="#000000" stroke-width="1.55524892"></path>
                <path d="M307.109689,348.354917 L255.922596,296.146063 L268.214018,296.817425 L307.109689,348.354917 L307.109689,348.354917 L307.109689,348.354917 Z" id="path251" fill="#6B0000"></path>
                <path d="M307.109689,348.354917 L255.922596,296.146063 L268.214018,296.817425 L307.109689,348.354917 L307.109689,348.354917 L307.109689,348.354917 Z" id="path253" stroke="#000000" stroke-width="1.55524892"></path>
                <path d="M202.677246,346.265813 L255.922596,296.146063 L255.002975,308.422889 L202.677246,346.265813 L202.677246,346.265813 L202.677246,346.265813 Z" id="path255" fill="#6B0000"></path>
                <path d="M202.677246,346.265813 L255.922596,296.146063 L255.002975,308.422889 L202.677246,346.265813 L202.677246,346.265813 L202.677246,346.265813 Z" id="path257" stroke="#000000" stroke-width="1.55524892"></path>
                <path d="M204.719625,243.924813 L255.922596,296.146063 L243.603191,295.471841 L204.719625,243.924813 L204.719625,243.924813 L204.719625,243.924813 Z" id="path259" fill="#6B0000"></path>
                <path d="M204.719625,243.924813 L255.922596,296.146063 L243.603191,295.471841 L204.719625,243.924813 L204.719625,243.924813 L204.719625,243.924813 Z" id="path261" stroke="#000000" stroke-width="1.55524892"></path>
                <path d="M204.707225,243.937209 L255.922596,296.146063 L255.479468,283.825052 L204.707225,243.937209 L204.707225,243.937209 L204.707225,243.937209 Z" id="path263" fill="#E50F07"></path>
                <path d="M204.707225,243.937209 L255.922596,296.146063 L255.479468,283.825052 L204.707225,243.937209 L204.707225,243.937209 L204.707225,243.937209 Z" id="path265" stroke="#000000" stroke-width="1.55524892"></path>
                <path d="M202.91152,346.513123 L255.922596,296.146063 L243.600027,296.38193 L202.91152,346.513123 L202.91152,346.513123 L202.91152,346.513123 Z" id="path267" fill="#E50F07"></path>
                <path d="M202.91152,346.513123 L255.922596,296.146063 L243.600027,296.38193 L202.91152,346.513123 L202.91152,346.513123 L202.91152,346.513123 Z" id="path269" stroke="#000000" stroke-width="1.55524892"></path>
                <path d="M307.109689,348.354917 L255.922596,296.146063 L256.344109,308.448319 L307.109689,348.354917 L307.109689,348.354917 L307.109689,348.354917 Z" id="path271" fill="#E50F07"></path>
                <path d="M307.109689,348.354917 L255.922596,296.146063 L256.344109,308.448319 L307.109689,348.354917 L307.109689,348.354917 L307.109689,348.354917 Z" id="path273" stroke="#000000" stroke-width="1.55524892"></path>
                <path d="M308.381204,245.183615 L255.922596,296.146063 L256.646729,283.840629 L308.381204,245.183615 L308.381204,245.183615 L308.381204,245.183615 Z" id="path275" fill="#E50F07"></path>
                <path d="M308.381204,245.183615 L255.922596,296.146063 L256.646729,283.840629 L308.381204,245.183615 L308.381204,245.183615 L308.381204,245.183615 Z" id="path277" stroke="#000000" stroke-width="1.55524892"></path>
                <path d="M169.887401,296.917557 L255.922596,296.146063 L246.089654,286.464724 L169.887401,296.917557 L169.887401,296.917557 L169.887401,296.917557 Z" id="path279" fill="#E50F07"></path>
                <path d="M256.550409,382.158228 L255.922596,296.146063 L245.966317,305.35567 L256.550409,382.158228 L256.550409,382.158228 L256.550409,382.158228 Z" id="path283" fill="#E50F07"></path>
                <path d="M256.550409,382.158228 L255.922596,296.146063 L245.966317,305.35567 L256.550409,382.158228 L256.550409,382.158228 L256.550409,382.158228 Z" id="path285" stroke="#000000" stroke-width="1.55524892"></path>
                <path d="M255.569441,210.112289 L255.922596,296.146063 L246.089654,286.34679 L255.569441,210.112289 L255.569441,210.112289 L255.569441,210.112289 Z" id="path287" fill="#E50F07"></path>
                <path d="M255.569441,210.112289 L255.922596,296.146063 L246.089969,286.34679 L255.569441,210.112289 L255.569441,210.112289 L255.569441,210.112289 Z" id="path289" stroke="#000000" stroke-width="1.55524892"></path>
                <path d="M341.942858,295.391099 L255.922596,296.146063 L265.665261,286.261917 L341.942858,295.391099 L341.942858,295.391099 L341.942858,295.391099 Z" id="path291" fill="#E50F07"></path>
                <path d="M341.942858,295.391099 L255.922596,296.146063 L265.665261,286.261917 L341.942858,295.391099 L341.942858,295.391099 L341.942858,295.391099 Z" id="path293" stroke="#000000" stroke-width="1.55524892"></path>
                <path d="M255.569441,210.112289 L255.922596,296.146063 L265.665261,286.34679 L255.569441,210.112289 L255.569441,210.112289 L255.569441,210.112289 Z" id="path295" fill="#6B0000"></path>
                <path d="M255.569441,210.112289 L255.922596,296.146063 L265.665261,286.34679 L255.569441,210.112289 L255.569441,210.112289 L255.569441,210.112289 Z" id="path297" stroke="#000000" stroke-width="1.55524892"></path>
                <path d="M256.561222,382.158228 L255.922596,296.146063 L265.773981,305.824542 L256.561222,382.158228 L256.561222,382.158228 L256.561222,382.158228 Z" id="path299" fill="#6B0000"></path>
                <path d="M256.561222,382.158228 L255.922596,296.146063 L265.773981,305.824542 L256.561222,382.158228 L256.561222,382.158228 L256.561222,382.158228 Z" id="path301" stroke="#000000" stroke-width="1.55524892"></path>
                <path d="M169.887401,296.895942 L255.922596,296.146063 L245.966317,305.35567 L169.887401,296.895942 L169.887401,296.895942 L169.887401,296.895942 Z" id="path303" fill="#6B0000"></path>
                <path d="M169.887401,296.895623 L255.922596,296.146063 L245.966317,305.35567 L169.887401,296.895623 L169.887401,296.895623 L169.887401,296.895623 Z" id="path305" stroke="#000000" stroke-width="1.55524892"></path>
                <path d="M169.887401,296.917557 L255.922596,296.146063 L246.089969,286.464724 L169.887401,296.917557 L169.887401,296.917557 L169.887401,296.917557 Z" id="path281" stroke="#000000" stroke-width="1.55524892"></path>
                <path d="M341.942858,295.373298 L255.922596,296.146063 L265.637613,305.824542 L341.942858,295.373298 L341.942858,295.373298 L341.942858,295.373298 Z" id="path307" fill="#6B0000"></path>
                <path d="M341.942858,295.373298 L255.922596,296.146063 L265.637613,305.824542 L341.942858,295.373298 L341.942858,295.373298 L341.942858,295.373298 Z" id="path309" stroke="#000000" stroke-width="1.55524892"></path>
                <path d="M472.94589,284.6845 C479.524436,283.956948 481.239608,278.708154 481.596954,275.176124 C482.265365,268.532994 477.901443,262.675937 468.242637,261.697169 C459.604665,260.830051 452.650636,263.221471 451.735104,272.321761 C451.408325,275.540435 452.380261,281.267717 460.74323,283.814786 L460.260024,288.613245 C446.617673,285.179711 447.13877,273.876485 447.416805,271.113056 C448.255771,262.779771 454.499714,255.148459 468.606209,256.571857 C479.89762,257.709958 487.068061,264.938921 485.990619,275.622141 C485.038102,285.075996 478.665868,289.388623 472.459938,289.484532 L472.94589,284.6845 L472.94589,284.6845 L472.94589,284.6845 Z" id="path2462" fill="#FFFFFF"></path>
            </g>
        </g>
    </g>
</svg>