<?xml version="1.0" encoding="UTF-8" standalone="no"?>
<!DOCTYPE svg PUBLIC "-//W3C//DTD SVG 1.0//EN" "http://www.w3.org/TR/2001/REC-SVG-20010904/DTD/svg10.dtd">
<!-- Created using Karbon14, part of koffice: http://www.koffice.org/karbon -->
<svg
   xmlns:dc="http://purl.org/dc/elements/1.1/"
   xmlns:cc="http://web.resource.org/cc/"
   xmlns:rdf="http://www.w3.org/1999/02/22-rdf-syntax-ns#"
   xmlns:svg="http://www.w3.org/2000/svg"
   xmlns="http://www.w3.org/2000/svg"
   xmlns:sodipodi="http://sodipodi.sourceforge.net/DTD/sodipodi-0.dtd"
   xmlns:inkscape="http://www.inkscape.org/namespaces/inkscape"
   width="510"
   height="510"
   id="svg2"
   version="1.0">
  <metadata
     id="metadata312">
  </metadata>
  <defs
     id="defs4" />
  <g
     id="g3365"
     transform="matrix(0.995358,0,0,0.99536,-15.93065,323.8289)">
    <g
       id="g2018"
       transform="translate(4.3143706,5.019767)">
      <path
         d="M 270.0585,176.20484 C 408.333,174.99704 519.45497,61.931494 518.25496,-76.344194 C 517.05184,-214.62612 403.97048,-325.74417 265.69068,-324.54417 C 127.40932,-323.32543 16.292348,-210.2574 17.50485,-71.977971 C 18.703914,66.296467 131.79307,177.42327 270.0585,176.20484 L 270.0585,176.20484 z "
         id="path13"
         style="fill:#fccc0f;stroke-width:0.5;stroke-miterlimit:4;stroke-dasharray:none" />
      <path
         d="M 270.0585,176.20472 C 408.33292,174.99691 519.45484,61.931432 518.25484,-76.344188 C 517.05171,-214.62606 403.97041,-325.74405 265.69068,-324.54406 C 127.40938,-323.32532 16.292469,-210.25734 17.50497,-71.977967 C 18.704033,66.296403 131.79313,177.42315 270.0585,176.20472 L 270.0585,176.20472 z "
         id="path15"
         style="fill:none;stroke:#000000;stroke-width:1.56249499;stroke-miterlimit:4;stroke-dasharray:none" />
      <path
         d="M 269.98384,167.48245 C 403.4445,166.31119 510.70703,57.179682 509.53203,-76.275714 C 508.37265,-209.74893 399.23513,-316.99012 265.77009,-315.82137 C 132.31912,-314.66199 25.055649,-205.52391 26.227524,-72.065068 C 27.397837,61.393455 136.53723,168.6434 269.98384,167.48245 L 269.98384,167.48245 z "
         id="path17"
         style="fill:#162c77;fill-opacity:1;stroke-width:0.5;stroke-miterlimit:4;stroke-dasharray:none" />
    </g>
    <path
       style="fill:#ffffff;stroke-width:0.5;stroke-miterlimit:4;stroke-dasharray:none"
       id="path85"
       d="M 207.51882,-153.56844 C 214.27226,-144.72156 195.726,-166.35906 195.02882,-153.05906 C 194.34507,-139.75593 199.53538,-145.84656 197.54944,-142.59968 C 195.56194,-139.37156 214.50132,-138.32156 207.56007,-148.32781 C 200.62476,-158.34344 208.40226,-143.90281 214.45632,-142.34656 C 220.5132,-140.79343 223.73039,-140.80906 222.08039,-146.04656 C 220.4307,-151.26218 220.35226,-159.31219 216.34539,-157.67469 C 212.32851,-156.02781 202.63663,-159.96844 207.51882,-153.56844 L 207.51882,-153.56844 z " />
    <path
       style="fill:none;stroke:#4c4c4c;stroke-width:1.56250048;stroke-miterlimit:4;stroke-dasharray:none"
       id="path87"
       d="M 207.51882,-153.56844 C 214.27226,-144.72156 195.726,-166.35906 195.02882,-153.05906 C 194.34507,-139.75593 199.53538,-145.84656 197.54944,-142.59968 C 195.56194,-139.37156 214.50132,-138.32156 207.56007,-148.32781 C 200.62476,-158.34344 208.40226,-143.90281 214.45632,-142.34656 C 220.5132,-140.79343 223.73039,-140.80906 222.08039,-146.04656 C 220.4307,-151.26218 220.35226,-159.31219 216.34539,-157.67469 C 212.32851,-156.02781 202.63663,-159.96844 207.51882,-153.56844 L 207.51882,-153.56844 z " />
    <path
       style="fill:#ffffff;stroke-width:0.5;stroke-miterlimit:4;stroke-dasharray:none"
       id="path89"
       d="M 257.03884,-154.80281 C 263.80228,-145.95906 245.24758,-167.59344 244.56102,-154.29656 C 243.86915,-140.99031 249.05696,-147.08406 247.06508,-143.83718 C 245.07821,-140.60593 264.02071,-139.55593 257.0854,-149.57156 C 250.15508,-159.57781 257.93383,-145.14968 263.98853,-143.58406 C 270.04539,-142.02781 273.26509,-142.06218 271.61353,-147.28093 C 269.95634,-152.49656 269.88164,-160.54969 265.86165,-158.90906 C 261.85384,-157.26219 252.15009,-161.20281 257.03884,-154.80281 L 257.03884,-154.80281 z " />
    <path
       style="fill:none;stroke:#4c4c4c;stroke-width:1.56250048;stroke-miterlimit:4;stroke-dasharray:none"
       id="path91"
       d="M 257.03884,-154.80281 C 263.80228,-145.95906 245.24758,-167.59344 244.56102,-154.29656 C 243.86915,-140.99031 249.05696,-147.08406 247.06508,-143.83718 C 245.07821,-140.60593 264.02071,-139.55593 257.0854,-149.57156 C 250.15508,-159.57781 257.93383,-145.14968 263.98853,-143.58406 C 270.04539,-142.02781 273.26509,-142.06218 271.61353,-147.28093 C 269.95634,-152.49656 269.88164,-160.54969 265.86165,-158.90906 C 261.85384,-157.26219 252.15009,-161.20281 257.03884,-154.80281 L 257.03884,-154.80281 z " />
    <path
       style="fill:#ffffff;stroke-width:0.5;stroke-miterlimit:4;stroke-dasharray:none"
       id="path93"
       d="M 308.18385,-155.65281 C 314.94636,-146.80281 296.38697,-168.44032 295.70572,-155.14656 C 295.02447,-141.84343 300.19635,-147.93093 298.21197,-144.68718 C 296.23072,-141.45281 315.16511,-140.40906 308.22447,-150.42156 C 301.29635,-160.43094 309.07448,-145.99968 315.13072,-144.43093 C 321.18385,-142.88093 324.40886,-142.90906 322.74948,-148.12781 C 321.08698,-153.34656 321.0276,-161.39969 317.00572,-159.75594 C 312.99635,-158.11219 303.29323,-162.05281 308.18385,-155.65281 L 308.18385,-155.65281 z " />
    <path
       style="fill:none;stroke:#4c4c4c;stroke-width:1.56250048;stroke-miterlimit:4;stroke-dasharray:none"
       id="path95"
       d="M 308.18385,-155.65281 C 314.94636,-146.80281 296.38697,-168.44032 295.70572,-155.14656 C 295.02447,-141.84343 300.19635,-147.93093 298.21197,-144.68718 C 296.23072,-141.45281 315.16511,-140.40906 308.22447,-150.42156 C 301.29635,-160.43094 309.07448,-145.99968 315.13072,-144.43093 C 321.18385,-142.88093 324.40886,-142.90906 322.74948,-148.12781 C 321.08698,-153.34656 321.0276,-161.39969 317.00572,-159.75594 C 312.99635,-158.11219 303.29323,-162.05281 308.18385,-155.65281 L 308.18385,-155.65281 z " />
    <path
       style="fill:#e50f07;stroke-width:0.5;stroke-miterlimit:4;stroke-dasharray:none"
       id="path97"
       d="M 232.48227,-154.18406 C 235.55539,-150.16218 233.69758,-153.24031 230.36664,-155.67469 C 226.35976,-158.58719 220.36914,-160.92156 219.99601,-153.67781 C 219.31007,-140.37156 224.49258,-146.46531 222.5082,-143.22156 C 220.52383,-139.98718 239.45789,-138.94031 232.52727,-148.95593 C 225.58539,-158.96219 233.38008,-144.53093 239.42414,-142.96531 C 245.47883,-141.41218 248.69852,-141.44031 247.04821,-146.66218 C 245.38977,-151.88093 245.30946,-159.93094 241.30789,-158.29031 C 237.29571,-156.64344 227.59633,-160.58406 232.48227,-154.18406 L 232.48227,-154.18406 z " />
    <path
       style="fill:none;stroke:#000000;stroke-width:1.56250048;stroke-miterlimit:4;stroke-dasharray:none"
       id="path99"
       d="M 232.48227,-154.18406 C 235.55539,-150.16218 233.69758,-153.24031 230.36664,-155.67469 C 226.35976,-158.58719 220.36914,-160.92156 219.99601,-153.67781 C 219.31007,-140.37156 224.49258,-146.46531 222.5082,-143.22156 C 220.52383,-139.98718 239.45789,-138.94031 232.52727,-148.95593 C 225.58539,-158.96219 233.38008,-144.53093 239.42414,-142.96531 C 245.47883,-141.41218 248.69852,-141.44031 247.04821,-146.66218 C 245.38977,-151.88093 245.30946,-159.93094 241.30789,-158.29031 C 237.29571,-156.64344 227.59633,-160.58406 232.48227,-154.18406 L 232.48227,-154.18406 z " />
    <path
       style="fill:#e50f07;stroke-width:0.5;stroke-miterlimit:4;stroke-dasharray:none"
       id="path101"
       d="M 284.02447,-155.03406 C 290.7901,-146.18718 272.22915,-167.82469 271.54539,-154.52781 C 270.84978,-141.23406 276.03759,-147.31218 274.05322,-144.07781 C 272.06572,-140.83718 291.00885,-139.80281 284.06822,-149.80593 C 277.1379,-159.80906 284.91197,-145.38093 290.97447,-143.82468 C 297.02447,-142.26218 300.24948,-142.29343 298.59323,-147.51218 C 296.93696,-152.74031 296.8651,-160.79656 292.84634,-159.13719 C 288.84634,-157.49344 279.13916,-161.44656 284.02447,-155.03406 L 284.02447,-155.03406 z " />
    <path
       style="fill:none;stroke:#000000;stroke-width:1.56250048;stroke-miterlimit:4;stroke-dasharray:none"
       id="path103"
       d="M 284.02447,-155.03406 C 290.7901,-146.18718 272.22915,-167.82469 271.54539,-154.52781 C 270.84978,-141.23406 276.03759,-147.31218 274.05322,-144.07781 C 272.06572,-140.83718 291.00885,-139.80281 284.06822,-149.80593 C 277.1379,-159.80906 284.91197,-145.38093 290.97447,-143.82468 C 297.02447,-142.26218 300.24948,-142.29343 298.59323,-147.51218 C 296.93696,-152.74031 296.8651,-160.79656 292.84634,-159.13719 C 288.84634,-157.49344 279.13916,-161.44656 284.02447,-155.03406 L 284.02447,-155.03406 z " />
    <path
       style="fill:#e50f07;stroke-width:0.5;stroke-miterlimit:4;stroke-dasharray:none"
       id="path105"
       d="M 332.34636,-155.46844 C 339.11511,-146.60593 320.55885,-168.25282 319.87761,-154.94656 C 319.18698,-141.65593 324.36198,-147.74031 322.37761,-144.49656 C 320.39323,-141.25906 339.33699,-140.21531 332.39636,-150.22468 C 325.46823,-160.23406 333.24635,-145.80593 339.30261,-144.24656 C 345.34949,-142.69031 348.56511,-142.71531 346.91512,-147.94343 C 345.25574,-153.15906 345.19949,-161.21531 341.17761,-159.56844 C 337.15886,-157.92781 327.4651,-161.86219 332.34636,-155.46844 L 332.34636,-155.46844 z " />
    <path
       style="fill:none;stroke:#000000;stroke-width:1.56250048;stroke-miterlimit:4;stroke-dasharray:none"
       id="path107"
       d="M 332.34636,-155.46844 C 339.11511,-146.60593 320.55885,-168.25282 319.87761,-154.94656 C 319.18698,-141.65593 324.36198,-147.74031 322.37761,-144.49656 C 320.39323,-141.25906 339.33699,-140.21531 332.39636,-150.22468 C 325.46823,-160.23406 333.24635,-145.80593 339.30261,-144.24656 C 345.34949,-142.69031 348.56511,-142.71531 346.91512,-147.94343 C 345.25574,-153.15906 345.19949,-161.21531 341.17761,-159.56844 C 337.15886,-157.92781 327.4651,-161.86219 332.34636,-155.46844 L 332.34636,-155.46844 z " />
    <path
       style="fill:#ffffff;stroke-width:0.5;stroke-miterlimit:4;stroke-dasharray:none"
       id="path109"
       d="M 222.34976,-159.87781 C 222.34976,-159.87781 234.65664,-151.60281 241.67477,-156.46219 C 243.38008,-157.64656 229.17883,-147.52156 246.57227,-155.31844 C 259.30039,-161.02469 249.13196,-139.03093 261.46634,-156.04969 C 267.41947,-164.27156 261.65008,-151.04343 274.83697,-146.29968 C 274.83697,-146.29968 270.93446,-154.72469 275.34416,-157.58406 C 282.67291,-162.34031 278.57666,-146.60593 292.03697,-159.33719 C 292.03697,-159.33719 295.3276,-151.72156 298.1151,-154.55906 C 300.9151,-157.40281 299.9026,-158.39656 303.14323,-157.22156 C 306.36823,-156.04031 306.24635,-158.38094 312.94948,-156.59344 C 316.89011,-155.54344 315.58073,-155.27781 320.44948,-152.64969 C 320.57136,-162.38719 316.20573,-163.79344 311.87759,-166.24031 C 307.55573,-168.69032 305.07135,-189.84657 303.61823,-193.27157 C 301.15884,-199.08095 304.37135,-200.12158 301.62135,-214.39658 C 298.89948,-228.66846 281.76134,-230.53096 277.72697,-231.50596 C 273.67946,-232.47471 273.88227,-231.88096 263.21884,-231.97784 C 263.21884,-231.97784 231.33164,-227.37471 256.17008,-208.4622 C 265.75259,-201.17158 262.45728,-192.61845 262.45728,-192.61845 C 262.48478,-188.15595 250.19321,-180.75907 245.7504,-176.31532 C 240.36039,-170.91844 237.33446,-161.19344 222.61133,-160.27469 L 222.34976,-159.87781 L 222.34976,-159.87781 z " />
    <path
       style="fill:none;stroke:#7f7f7f;stroke-width:1.56250048;stroke-miterlimit:4;stroke-dasharray:none"
       id="path111"
       d="M 222.34976,-159.87781 C 222.34976,-159.87781 234.65664,-151.60281 241.67477,-156.46219 C 243.38008,-157.64656 229.17883,-147.52156 246.57227,-155.31844 C 259.30039,-161.02469 249.13196,-139.03093 261.46634,-156.04969 C 267.41947,-164.27156 261.65008,-151.04343 274.83697,-146.29968 C 274.83697,-146.29968 270.93446,-154.72469 275.34416,-157.58406 C 282.67291,-162.34031 278.57666,-146.60593 292.03697,-159.33719 C 292.03697,-159.33719 295.3276,-151.72156 298.1151,-154.55906 C 300.9151,-157.40281 299.9026,-158.39656 303.14323,-157.22156 C 306.36823,-156.04031 306.24635,-158.38094 312.94948,-156.59344 C 316.89011,-155.54344 315.58073,-155.27781 320.44948,-152.64969 C 320.57136,-162.38719 316.20573,-163.79344 311.87759,-166.24031 C 307.55573,-168.69032 305.07135,-189.84657 303.61823,-193.27157 C 301.15884,-199.08095 304.37135,-200.12158 301.62135,-214.39658 C 298.89948,-228.66846 281.76134,-230.53096 277.72697,-231.50596 C 273.67946,-232.47471 273.88227,-231.88096 263.21884,-231.97784 C 263.21884,-231.97784 231.33164,-227.37471 256.17008,-208.4622 C 265.75259,-201.17158 262.45728,-192.61845 262.45728,-192.61845 C 262.48478,-188.15595 250.19321,-180.75907 245.7504,-176.31532 C 240.36039,-170.91844 237.33446,-161.19344 222.61133,-160.27469 L 222.34976,-159.87781 L 222.34976,-159.87781 z " />
    <path
       style="fill:none;fill-rule:evenodd;stroke:#8c8c8c;stroke-width:1.56250048;stroke-linecap:round;stroke-miterlimit:4;stroke-dasharray:none"
       id="path113"
       d="M 261.79352,-215.24658 C 261.79352,-215.24658 263.38196,-212.85283 265.80978,-211.67158 M 259.03571,-220.37471 C 260.86883,-217.86846 262.95103,-215.87471 264.57446,-215.27783" />
    <path
       style="fill:none;stroke:#8c8c8c;stroke-width:1.56250048;stroke-linecap:round;stroke-miterlimit:4;stroke-dasharray:none"
       id="path115"
       d="M 258.64196,-219.97783 C 261.13446,-216.16221 263.37133,-213.87158 266.40321,-213.08408" />
    <path
       style="fill:none;stroke:#8c8c8c;stroke-width:1.56250048;stroke-linecap:round;stroke-miterlimit:4;stroke-dasharray:none"
       id="path117"
       d="M 281.41041,-178.17782 C 281.65508,-172.93719 281.63916,-174.35282 283.26197,-172.96219 C 284.88385,-171.56219 289.0526,-178.64344 289.0276,-181.05594" />
    <path
       style="fill:none;fill-rule:evenodd;stroke:#8c8c8c;stroke-width:1.56250048;stroke-linecap:round;stroke-miterlimit:4;stroke-dasharray:none"
       id="path119"
       d="M 281.85572,-218.41846 C 283.89635,-217.73721 285.10572,-216.02471 284.69947,-214.8247 M 284.26822,-220.05596 C 286.51822,-219.58096 287.09634,-219.26846 287.50885,-217.26221 M 287.50259,-221.09033 C 289.91197,-221.11221 290.32447,-220.51846 290.53071,-219.51221" />
    <path
       style="fill:none;stroke:#8c8c8c;stroke-width:1.56250048;stroke-linecap:round;stroke-miterlimit:4;stroke-dasharray:none"
       id="path121"
       d="M 274.53008,-205.29345 C 274.90384,-208.72158 273.13697,-202.86533 275.96978,-201.6872" />
    <path
       style="fill:none;fill-rule:evenodd;stroke:#8c8c8c;stroke-width:1.56250048;stroke-linecap:round;stroke-miterlimit:4;stroke-dasharray:none"
       id="path123"
       d="M 256.80009,-209.19658 C 260.64445,-206.80908 265.04978,-201.12783 265.08353,-197.09657 M 260.34634,-208.40595 C 262.1904,-206.69658 265.32134,-203.70595 265.73196,-202.09345" />
    <path
       style="fill:none;fill-rule:evenodd;stroke:#8c8c8c;stroke-width:1.56250048;stroke-linecap:round;stroke-miterlimit:4;stroke-dasharray:none"
       id="path125"
       d="M 286.4151,-203.5622 C 287.0401,-199.3247 286.64947,-199.7372 289.28071,-198.14345 C 291.92447,-196.55595 292.86822,-203.20283 291.83385,-206.8247 M 293.63385,-207.2497 C 296.90884,-202.04345 299.7401,-200.45283 297.59321,-215.32783 M 296.13072,-198.40907 C 297.38385,-193.99032 301.40573,-193.62157 298.90573,-203.26533 M 287.32447,-192.69345 C 288.97447,-187.07157 292.1526,-193.54345 291.71197,-197.5622 M 290.17135,-189.49345 C 288.50885,-195.1247 293.06822,-180.26219 294.56509,-192.35595 M 278.72103,-181.98407 C 278.67759,-186.82782 280.84509,-174.61219 282.67291,-177.25594 C 283.1401,-177.89969 283.56822,-179.47157 283.94322,-182.43719 M 258.01259,-181.96219 C 257.54852,-189.20907 259.74196,-168.69032 264.44164,-184.4372 M 248.42696,-173.42782 C 249.18665,-177.86219 246.49821,-163.73719 253.24477,-174.27469 M 267.36447,-172.37157 C 266.09195,-179.21532 266.29509,-155.85906 274.61103,-172.43719 M 257.35852,-164.23406 C 256.9307,-167.86531 259.8429,-157.81531 263.78571,-165.90281 M 291.50259,-175.81532 C 294.36822,-168.99032 297.18696,-168.61219 298.74948,-175.06844 M 296.6651,-183.50594 C 295.39322,-191.15282 300.02135,-169.04657 302.28697,-184.76532 M 280.30103,-165.64969 C 279.43884,-173.29032 282.89635,-145.53718 287.17447,-163.69344 M 299.6026,-169.84032 C 297.13072,-177.07782 303.73385,-157.39344 306.02135,-173.12157 M 292.38385,-166.15281 C 289.91197,-172.98094 296.93696,-152.49656 299.24323,-164.60906 M 267.85134,-161.91531 C 266.2079,-166.33406 268.73947,-151.86218 273.49696,-161.56531" />
    <path
       style="fill:#727272;stroke-width:0.5;stroke-miterlimit:4;stroke-dasharray:none"
       id="path127"
       d="M 258.50601,-221.95283 C 258.37633,-221.19033 258.10852,-220.24033 258.10852,-220.24033 C 258.10852,-220.24033 261.79352,-220.27471 266.9282,-217.60596 C 270.21197,-215.89346 272.03228,-220.09658 271.9904,-219.37158 C 272.14353,-221.92471 271.89947,-223.90283 272.57103,-225.37158 C 272.57103,-225.37158 270.22165,-225.32471 269.68478,-225.23721 C 267.18696,-224.84033 268.00697,-225.24658 266.39728,-225.23721 C 266.39196,-225.23721 259.28976,-226.42158 258.50601,-221.95283 L 258.50601,-221.95283 z " />
    <path
       style="fill:#fccc0f;stroke-width:0.5;stroke-miterlimit:4;stroke-dasharray:none"
       id="path129"
       d="M 266.87634,-220.24033 C 268.37383,-220.24971 269.07572,-221.16221 269.56947,-221.97471 C 269.94322,-222.60283 270.31259,-223.47158 269.82664,-223.78408 C 269.3254,-224.09346 267.59509,-223.66221 266.84571,-223.66221 C 265.96321,-223.64971 265.04978,-223.81533 264.55759,-223.39346 C 264.21134,-223.10596 264.15634,-222.31221 264.15634,-221.91846 C 264.16852,-220.98096 265.3779,-220.23408 266.87634,-220.24033 L 266.87634,-220.24033 z " />
    <path
       style="fill:#fccc0f;stroke-width:0.5;stroke-miterlimit:4;stroke-dasharray:none"
       id="path131"
       d="M 258.64196,-208.93408 C 260.34634,-207.2247 271.20758,-206.90283 269.54884,-208.40595 C 267.89572,-209.90283 263.81321,-210.03095 262.98759,-212.45283 C 262.98759,-212.45283 256.26446,-224.06221 248.37821,-225.37158 C 240.49383,-226.68096 247.51758,-225.60283 247.06508,-225.63408 C 243.51664,-225.88721 242.72102,-225.63408 241.80539,-224.97471 C 234.83602,-223.92471 225.6332,-225.63408 234.42164,-206.85908 C 235.25102,-205.10908 233.60008,-209.3622 236.01164,-209.58408 C 236.01164,-209.58408 258.21915,-209.34658 258.64196,-208.93408 L 258.64196,-208.93408 z " />
    <path
       style="fill:none;stroke:#595959;stroke-width:1.56250048;stroke-miterlimit:4;stroke-dasharray:none"
       id="path133"
       d="M 258.64196,-208.93408 C 260.34634,-207.2247 271.20758,-206.90283 269.54884,-208.40595 C 267.89572,-209.90283 263.81321,-210.03095 262.98759,-212.45283 C 262.98759,-212.45283 256.26446,-224.06221 248.3779,-225.37158 C 240.49383,-226.68096 247.51758,-225.60283 247.06508,-225.63408 C 243.51664,-225.88721 242.72102,-225.63408 241.80539,-224.97471 C 234.83602,-223.92471 225.6332,-225.63408 234.42164,-206.85908 C 235.25102,-205.10908 233.60008,-209.3622 236.01164,-209.58408 C 236.01164,-209.58408 258.21915,-209.34658 258.64196,-208.93408 L 258.64196,-208.93408 z " />
    <path
       style="fill:none;fill-rule:evenodd;stroke:#4c4c4c;stroke-width:1.56250048;stroke-miterlimit:4;stroke-dasharray:none"
       id="path135"
       d="M 267.0557,-208.00908 C 251.66477,-211.56533 244.16446,-217.86846 241.80539,-224.97471 M 234.83602,-206.5622 C 234.83602,-206.5622 234.56445,-210.69033 236.37789,-210.9997 C 238.18821,-211.32158 241.41008,-210.9497 256.39945,-211.69345" />
    <path
       style="fill:#000000;stroke-width:0.5;stroke-miterlimit:4;stroke-dasharray:none"
       id="path137"
       d="M 267.43009,-221.26846 C 267.8704,-221.28096 268.21447,-221.63096 268.21447,-222.06533 C 268.21447,-222.49033 267.85884,-222.84658 267.41947,-222.83721 C 266.98853,-222.83721 266.64821,-222.47783 266.64821,-222.05283 C 266.64821,-221.60908 267.0029,-221.26846 267.43009,-221.26846 L 267.43009,-221.26846 z " />
    <path
       style="fill:#4c4c4c;stroke-width:0.5;stroke-miterlimit:4;stroke-dasharray:none"
       id="path139"
       d="M 248.94352,-220.81533 C 249.0104,-220.74033 248.94352,-220.56221 248.98383,-220.44033 C 249.08446,-220.13408 249.42946,-220.00283 249.56071,-219.72471 C 249.80477,-219.25596 250.12352,-219.00908 250.44258,-218.59033 C 251.10571,-217.72158 252.15009,-216.52471 252.58571,-216.18096 C 252.74602,-216.91221 251.20477,-218.79346 250.59071,-219.24033 C 250.2329,-219.69033 249.8354,-220.31846 249.41883,-221.09033 C 249.14852,-221.05908 248.67415,-221.58721 248.45665,-221.74033 C 248.36508,-221.31221 248.68415,-221.09033 248.94352,-220.81533 L 248.94352,-220.81533 z " />
    <path
       style="fill:#f9db11;stroke-width:0.5;stroke-miterlimit:4;stroke-dasharray:none"
       id="path141"
       d="M 78.156275,43.108812 C 78.156275,43.108812 143.15193,163.2801 283.08697,153.1551 C 418.28389,143.39572 464.74953,44.466 469.21515,30.657558 C 470.64328,26.243182 472.09641,22.831931 468.93703,19.974117 C 462.20265,13.884115 441.97452,11.133177 438.50577,11.514427 C 431.19639,12.327865 431.83389,18.131617 433.68389,19.90068 C 435.64013,21.740993 438.76202,20.32568 438.16514,21.60068 C 400.76826,101.55133 311.22447,120.19853 283.86822,121.7204 C 283.86822,121.7204 171.47818,137.55228 108.2016,28.828807 C 108.2016,28.828807 117.02817,14.091928 102.18503,14.48849 C 96.544718,14.62599 91.657216,27.948182 81.698776,31.931621 C 81.698776,31.931621 73.960023,36.778498 78.156275,43.108812 L 78.156275,43.108812 z " />
    <path
       style="fill:none;fill-rule:evenodd;stroke:#3f3f3f;stroke-width:1.56250048;stroke-linecap:round;stroke-miterlimit:4;stroke-dasharray:none"
       id="path143"
       d="M 79.783775,33.686309 C 79.783775,33.686309 90.709716,33.686309 86.362527,45.397563 C 84.831902,49.551002 96.62253,32.245996 108.19253,29.226308 M 470.3589,22.117243 C 470.3589,22.117243 469.29327,20.848492 467.59328,20.546305 C 465.3589,20.145055 461.81203,22.117243 462.46515,26.597869 C 462.60265,27.462245 463.20578,28.140682 463.51828,28.380057 C 467.66827,31.622558 453.41827,22.774743 438.16514,21.60068" />
    <path
       style="fill:#ffffff;stroke-width:0.5;stroke-miterlimit:4;stroke-dasharray:none"
       id="path145"
       d="M 61.902519,-29.124024 C 56.025642,-26.33496 56.117205,-20.909646 56.91908,-17.519957 C 58.430643,-11.12933 64.369083,-7.086517 73.655648,-9.286205 C 81.959401,-11.252455 87.650965,-15.714019 85.580339,-24.45871 C 84.847214,-27.550898 82.105963,-32.561212 73.517523,-32.236837 L 72.422835,-36.854339 C 86.204402,-38.043714 89.351591,-27.373086 89.979716,-24.718085 C 91.876279,-16.71027 88.528465,-7.617767 74.967211,-4.4055782 C 64.10752,-1.8383898 55.123142,-6.249016 52.693141,-16.517457 C 50.540953,-25.607147 55.07658,-31.662462 60.810019,-33.746213 L 61.902519,-29.124024 L 61.902519,-29.124024 z " />
    <path
       style="fill:#ffffff;stroke-width:0.5;stroke-miterlimit:4;stroke-dasharray:none"
       id="path147"
       d="M 83.505339,-67.656536 L 85.529402,-40.974027 L 49.38064,-38.233714 L 47.384702,-64.566535 L 51.714391,-64.893098 L 53.342517,-43.444653 L 64.416583,-44.284653 L 62.916582,-64.071535 L 67.245646,-64.401847 L 68.747834,-44.611841 L 80.828775,-45.528091 L 79.176275,-67.329036 L 83.505339,-67.656536 L 83.505339,-67.656536 z " />
    <path
       style="fill:#ffffff;stroke-width:0.5;stroke-miterlimit:4;stroke-dasharray:none"
       id="path149"
       d="M 49.29189,-95.934043 L 49.671265,-100.66529 L 85.810964,-97.759043 L 85.370027,-92.271544 L 54.698142,-76.247789 L 54.68908,-76.146539 L 83.882214,-73.796538 L 83.501589,-69.065599 L 47.362515,-71.975287 L 47.830327,-77.760914 L 78.475962,-93.484044 L 78.485025,-93.584044 L 49.29189,-95.934043 L 49.29189,-95.934043 z " />
    <path
       style="fill:#ffffff;stroke-width:0.5;stroke-miterlimit:4;stroke-dasharray:none"
       id="path151"
       d="M 50.350328,-105.15592 L 57.058768,-133.81843 L 61.286269,-132.8278 L 58.487831,-120.88405 L 89.563778,-113.61217 L 88.448465,-108.8403 L 57.373143,-116.1153 L 54.577517,-104.16842 L 50.350328,-105.15592 L 50.350328,-105.15592 z " />
    <path
       style="fill:#ffffff;fill-rule:evenodd;stroke-width:0.5;stroke-miterlimit:4;stroke-dasharray:none"
       id="path153"
       d="M 94.154405,-129.84655 L 92.335654,-125.29655 L 58.657206,-138.75906 L 64.883458,-154.33094 C 67.095333,-159.86531 71.230335,-164.63406 78.360025,-161.78094 C 83.332214,-159.79656 84.148464,-156.53094 84.552839,-153.86531 C 86.119715,-155.47156 87.733465,-157.05594 92.498154,-155.37156 L 98.708469,-153.21531 C 100.60347,-152.50906 101.40003,-152.46219 102.76035,-153.55281 L 103.50941,-153.25281 L 101.28034,-147.67156 C 98.954094,-147.84031 93.784405,-149.74343 92.518779,-150.24656 C 89.750653,-151.35281 86.28784,-152.08406 84.114714,-146.64343 L 79.709713,-135.62155 L 94.154405,-129.84655 L 94.154405,-129.84655 z M 75.814711,-137.17468 L 80.033775,-147.73093 C 81.362838,-151.06218 81.926901,-154.91844 76.955337,-156.90281 C 71.749085,-158.98719 69.807522,-155.35594 68.907209,-153.10594 L 64.369083,-141.75281 L 75.814711,-137.17468 L 75.814711,-137.17468 z " />
    <path
       style="fill:#ffffff;fill-rule:evenodd;stroke-width:0.5;stroke-miterlimit:4;stroke-dasharray:none"
       id="path155"
       d="M 97.720968,-163.64656 L 104.85066,-154.99344 L 102.26753,-150.65281 L 78.091587,-180.91532 L 80.932525,-185.69032 L 118.80128,-178.42157 L 116.06285,-173.82157 L 105.16065,-176.14032 L 97.720968,-163.64656 L 97.720968,-163.64656 z M 100.52566,-176.84344 L 84.078151,-180.40594 L 84.025651,-180.32157 L 94.764092,-167.17156 L 100.52566,-176.84344 L 100.52566,-176.84344 z " />
    <path
       style="fill:#ffffff;stroke-width:0.5;stroke-miterlimit:4;stroke-dasharray:none"
       id="path157"
       d="M 118.41285,-184.19032 L 129.86442,-198.56845 L 133.26255,-195.86532 L 118.75535,-177.64969 L 90.392216,-200.24345 L 93.445654,-204.0747 L 118.41285,-184.19032 L 118.41285,-184.19032 z " />
    <path
       style="fill:#ffffff;stroke-width:0.5;stroke-miterlimit:4;stroke-dasharray:none"
       id="path159"
       d="M 147.11005,-208.94345 L 143.50224,-205.63095 L 118.98036,-232.34034 L 122.59004,-235.65284 L 147.11005,-208.94345 L 147.11005,-208.94345 z " />
    <path
       style="fill:#ffffff;stroke-width:0.5;stroke-miterlimit:4;stroke-dasharray:none"
       id="path161"
       d="M 147.37411,-255.21222 L 151.1963,-258.03097 L 172.70068,-228.84346 L 168.2685,-225.58096 L 136.06036,-238.22784 L 135.9788,-238.16534 L 153.35099,-214.59033 L 149.52943,-211.7747 L 128.02598,-240.95909 L 132.70192,-244.40284 L 164.66381,-231.57784 L 164.74537,-231.64034 L 147.37411,-255.21222 L 147.37411,-255.21222 z " />
    <path
       style="fill:#ffffff;stroke-width:0.5;stroke-miterlimit:4;stroke-dasharray:none"
       id="path163"
       d="M 155.09568,-260.50909 L 181.12881,-274.2466 L 183.15506,-270.40285 L 172.30443,-264.67785 L 187.19569,-236.46221 L 182.86663,-234.17159 L 167.97412,-262.39347 L 157.12443,-256.66847 L 155.09568,-260.50909 L 155.09568,-260.50909 z " />
    <path
       style="fill:#ffffff;stroke-width:0.5;stroke-miterlimit:4;stroke-dasharray:none"
       id="path165"
       d="M 223.14695,-250.92784 L 197.93257,-241.96221 L 185.7835,-276.11847 L 210.66601,-284.96848 L 212.12007,-280.87785 L 191.85413,-273.6716 L 195.57663,-263.20285 L 214.27226,-269.85285 L 215.72882,-265.76222 L 197.03069,-259.11222 L 201.09257,-247.69347 L 221.69195,-255.02159 L 223.14695,-250.92784 L 223.14695,-250.92784 z " />
    <path
       style="fill:#ffffff;stroke-width:0.5;stroke-miterlimit:4;stroke-dasharray:none"
       id="path167"
       d="M 228.36227,-256.24972 L 246.36321,-259.98409 L 247.24665,-255.73409 L 224.45008,-251.00284 L 217.08164,-286.5091 L 221.87883,-287.50285 L 228.36227,-256.24972 L 228.36227,-256.24972 z " />
    <path
       style="fill:#ffffff;stroke-width:0.5;stroke-miterlimit:4;stroke-dasharray:none"
       id="path169"
       d="M 251.68915,-260.26847 L 270.00603,-261.77785 L 270.36134,-257.45284 L 247.16258,-255.54034 L 244.18633,-291.66848 L 249.0679,-292.07473 L 251.68915,-260.26847 L 251.68915,-260.26847 z " />
    <path
       style="fill:#ffffff;stroke-width:0.5;stroke-miterlimit:4;stroke-dasharray:none"
       id="path171"
       d="M 276.43196,-257.01534 L 271.53103,-257.03409 L 271.67915,-293.29661 L 276.5779,-293.27786 L 276.43196,-257.01534 L 276.43196,-257.01534 z " />
    <path
       style="fill:#ffffff;stroke-width:0.5;stroke-miterlimit:4;stroke-dasharray:none"
       id="path173"
       d="M 298.00259,-274.95285 L 313.79948,-273.07472 L 311.51198,-253.81847 L 308.34634,-254.19034 L 307.74635,-258.99659 C 304.8901,-255.87472 300.10573,-254.20597 295.19635,-254.79034 C 289.0276,-255.51847 286.28384,-258.13722 284.64635,-260.16222 C 279.74791,-266.0341 280.32853,-272.2216 280.78321,-276.03097 C 281.82603,-284.8091 288.31822,-294.05286 300.0526,-292.6591 C 306.76823,-291.86223 313.79323,-287.16223 313.88698,-278.96223 L 309.17448,-279.52473 C 308.35885,-285.97785 303.24948,-287.90598 299.29323,-288.37473 C 292.82135,-289.14348 286.8901,-284.61223 285.76822,-275.1841 C 284.89947,-267.86222 286.4151,-260.05284 295.99322,-258.91534 C 297.79947,-258.70284 300.73073,-258.55597 303.6401,-260.34659 C 307.09634,-262.47785 308.28073,-265.59035 308.7401,-269.45597 L 297.50572,-270.79035 L 298.00259,-274.95285 L 298.00259,-274.95285 z " />
    <path
       style="fill:#ffffff;stroke-width:0.5;stroke-miterlimit:4;stroke-dasharray:none"
       id="path175"
       d="M 340.37135,-245.29971 L 314.70261,-252.86847 L 324.95886,-287.64348 L 350.28386,-280.17473 L 349.05574,-276.00597 L 328.42761,-282.09348 L 325.28386,-271.43722 L 344.31511,-265.8216 L 343.08699,-261.65909 L 324.05573,-267.2716 L 320.62761,-255.65284 L 341.59636,-249.46534 L 340.37135,-245.29971 L 340.37135,-245.29971 z " />
    <path
       style="fill:#ffffff;stroke-width:0.5;stroke-miterlimit:4;stroke-dasharray:none"
       id="path177"
       d="M 379.42138,-266.89972 L 383.6995,-264.84035 L 367.97136,-232.17471 L 363.01512,-234.56221 L 359.11512,-268.9466 L 359.01824,-268.99347 L 346.31198,-242.60596 L 342.03699,-244.66534 L 357.77137,-277.32785 L 362.9995,-274.8091 L 366.62761,-240.55596 L 366.71512,-240.51221 L 379.42138,-266.89972 L 379.42138,-266.89972 z " />
    <path
       style="fill:#ffffff;stroke-width:0.5;stroke-miterlimit:4;stroke-dasharray:none"
       id="path179"
       d="M 405.95888,-236.63096 C 408.52764,-242.60909 404.87138,-246.62159 402.02451,-248.64034 C 396.66825,-252.43409 389.54325,-251.54347 384.02138,-243.75909 C 379.09013,-236.79346 377.762,-229.68721 385.09949,-224.49033 C 387.69324,-222.64971 393.06201,-220.70283 399.29638,-226.61846 L 403.16512,-223.87783 C 393.61201,-213.87783 384.1995,-219.80596 381.97138,-221.38408 C 375.25261,-226.14346 371.75574,-235.18409 379.81513,-246.55597 C 386.26513,-255.65909 395.92451,-258.28409 404.53701,-252.18097 C 412.15889,-246.78097 412.75576,-239.24034 409.82763,-233.88721 L 405.95888,-236.63096 L 405.95888,-236.63096 z " />
    <path
       style="fill:#ffffff;stroke-width:0.5;stroke-miterlimit:4;stroke-dasharray:none"
       id="path181"
       d="M 415.19014,-193.49032 L 396.01513,-212.15908 L 421.30889,-238.14034 L 440.22765,-219.71533 L 437.19952,-216.60283 L 421.79014,-231.61221 L 414.04014,-223.64971 L 428.25577,-209.80595 L 425.22452,-206.69658 L 411.012,-220.53721 L 402.55263,-211.85283 L 418.21826,-196.60282 L 415.19014,-193.49032 L 415.19014,-193.49032 z " />
    <path
       style="fill:#ffffff;fill-rule:evenodd;stroke-width:0.5;stroke-miterlimit:4;stroke-dasharray:none"
       id="path183"
       d="M 436.03389,-183.55907 L 425.13077,-180.92782 L 422.35264,-185.14657 L 460.14328,-193.67157 L 463.19328,-189.03095 L 440.11201,-158.14031 L 437.17451,-162.61219 L 444.01826,-171.40594 L 436.03389,-183.55907 L 436.03389,-183.55907 z M 446.67451,-175.26844 L 457.07452,-188.5122 L 457.01202,-188.59657 L 440.4964,-184.68095 L 446.67451,-175.26844 L 446.67451,-175.26844 z " />
    <path
       style="fill:#ffffff;stroke-width:0.5;stroke-miterlimit:4;stroke-dasharray:none"
       id="path185"
       d="M 463.73077,-152.46844 L 470.18078,-137.92781 L 452.46202,-130.05593 L 451.1714,-132.9653 L 454.98703,-135.93093 C 450.8464,-136.79968 446.97452,-140.04968 444.96515,-144.57468 C 442.44327,-150.24968 443.29327,-153.94344 444.18702,-156.38719 C 446.73701,-163.59969 452.35577,-166.25594 455.85577,-167.81531 C 463.94015,-171.39969 475.19952,-170.54969 479.99641,-159.74656 C 482.74641,-153.56219 482.29016,-145.12781 475.28703,-140.85906 L 473.36516,-145.19656 C 478.50266,-149.19343 477.54327,-154.56844 475.92766,-158.21531 C 473.28391,-164.16844 466.3589,-166.94969 457.67764,-163.09656 C 450.94015,-160.10594 445.00577,-154.81531 448.91515,-145.99968 C 449.65577,-144.33718 451.02765,-141.74343 454.04951,-140.15593 C 457.64953,-138.27468 460.93078,-138.84656 464.49014,-140.42781 L 459.89639,-150.76531 L 463.73077,-152.46844 L 463.73077,-152.46844 z " />
    <path
       style="fill:#ffffff;stroke-width:0.5;stroke-miterlimit:4;stroke-dasharray:none"
       id="path187"
       d="M 459.71515,-101.67467 L 453.01826,-127.58718 L 488.12454,-136.6653 L 494.7339,-111.09342 L 490.53079,-110.00592 L 485.14328,-130.83405 L 474.38391,-128.0528 L 479.35577,-108.83717 L 475.15578,-107.7528 L 470.18078,-126.9653 L 458.4464,-123.93093 L 463.91827,-102.76217 L 459.71515,-101.67467 L 459.71515,-101.67467 z " />
    <path
       style="fill:#ffffff;stroke-width:0.5;stroke-miterlimit:4;stroke-dasharray:none"
       id="path189"
       d="M 498.29953,-80.230602 L 498.75579,-75.505601 L 462.66203,-72.026537 L 462.1339,-77.506852 L 489.52454,-98.662173 L 489.51828,-98.765293 L 460.35265,-95.955923 L 459.89639,-100.68092 L 495.99954,-104.15904 L 496.55579,-98.374673 L 469.13702,-77.523414 L 469.14328,-77.418102 L 498.29953,-80.230602 L 498.29953,-80.230602 z " />
    <path
       style="fill:#ffffff;stroke-width:0.5;stroke-miterlimit:4;stroke-dasharray:none"
       id="path193"
       d="M 456.71203,-22.611834 L 457.81828,-27.383086 L 472.03703,-24.081834 L 496.2339,-32.515587 L 494.94329,-26.960585 L 475.62141,-20.765271 L 490.23703,-6.691516 L 488.94329,-1.0837021 L 470.92766,-19.311208 L 456.71203,-22.611834 L 456.71203,-22.611834 z " />
    <path
       style="fill:#e50f07;stroke-width:0.5;stroke-miterlimit:4;stroke-dasharray:none"
       id="path195"
       d="M 125.55786,64.044444 L 115.92628,72.394134 C 112.88692,75.025385 108.67628,75.346635 105.14597,71.277884 C 101.68847,67.284757 102.7666,63.347256 105.53597,60.948505 L 115.43723,52.365378 L 117.17442,54.370378 L 107.83004,62.466631 C 104.60504,65.262882 105.41848,67.995695 106.97785,69.794758 C 108.57316,71.635696 111.21004,72.967884 114.43473,70.171633 L 123.82348,62.039443 L 125.55786,64.044444 L 125.55786,64.044444 z " />
    <path
       style="fill:#e50f07;stroke-width:0.5;stroke-miterlimit:4;stroke-dasharray:none"
       id="path197"
       d="M 137.44442,75.822885 L 139.28849,77.614136 L 125.60191,91.707265 L 123.46348,89.629764 L 127.35536,71.290071 L 127.31567,71.250384 L 116.26285,82.633512 L 114.41567,80.839762 L 128.10223,66.75507 L 130.3588,68.94257 L 126.35035,87.171639 L 126.38848,87.205076 L 137.44442,75.822885 L 137.44442,75.822885 z " />
    <path
       style="fill:#e50f07;stroke-width:0.5;stroke-miterlimit:4;stroke-dasharray:none"
       id="path199"
       d="M 131.21098,96.475392 L 129.20473,94.741329 L 142.0488,79.880699 L 144.05818,81.618199 L 131.21098,96.475392 L 131.21098,96.475392 z " />
    <path
       style="fill:#e50f07;stroke-width:0.5;stroke-miterlimit:4;stroke-dasharray:none"
       id="path201"
       d="M 145.3188,82.88695 L 157.91943,92.672265 L 156.47505,94.526953 L 151.22537,90.450702 L 140.62036,104.11039 L 138.52317,102.48383 L 149.12724,88.825389 L 143.87661,84.74445 L 145.3188,82.88695 L 145.3188,82.88695 z " />
    <path
       style="fill:#e50f07;stroke-width:0.5;stroke-miterlimit:4;stroke-dasharray:none"
       id="path203"
       d="M 160.26474,117.7204 L 148.15286,109.76071 L 158.92943,93.351953 L 170.88412,101.20258 L 169.59318,103.16789 L 159.85412,96.773829 L 156.55287,101.79946 L 165.53506,107.70134 L 164.24568,109.66665 L 155.26193,103.76758 L 151.65943,109.24946 L 161.55693,115.75196 L 160.26474,117.7204 L 160.26474,117.7204 z " />
    <path
       style="fill:#e50f07;fill-rule:evenodd;stroke-width:0.5;stroke-miterlimit:4;stroke-dasharray:none"
       id="path205"
       d="M 173.56725,102.79196 L 180.606,106.50509 C 185.13038,108.89634 186.10006,113.80103 183.45506,118.81071 C 181.39819,122.70384 177.04694,126.83978 171.33881,123.82603 L 164.39381,120.15884 L 173.56725,102.79196 L 173.56725,102.79196 z M 167.801,119.3904 L 172.34881,121.79384 C 175.39756,123.40415 178.64756,122.05603 180.95787,117.67978 C 183.271,113.29696 182.42569,110.03915 179.23194,108.35134 L 174.85444,106.03759 L 167.801,119.3904 L 167.801,119.3904 z " />
    <path
       style="fill:#e50f07;stroke-width:0.5;stroke-miterlimit:4;stroke-dasharray:none"
       id="path207"
       d="M 204.41601,123.09915 C 205.34507,120.20384 203.32257,118.43134 201.24663,117.66165 C 199.68101,117.08103 196.87882,116.53321 195.83819,119.33009 C 195.2585,120.89196 196.171,121.81415 197.15132,122.47509 L 201.95788,125.63197 C 204.13382,127.07697 205.3932,129.18353 204.30601,132.10572 C 202.68726,136.46353 198.18976,136.16134 195.03475,134.99103 C 191.62538,133.72228 190.67382,132.19947 190.12913,131.15416 C 189.08913,129.16228 189.35632,127.50822 189.99194,125.79072 L 192.32569,126.65509 C 191.086,129.99384 193.44194,131.97353 195.79944,132.85166 C 197.59538,133.52072 200.79132,134.18322 201.77226,131.54322 C 202.48726,129.61759 201.81882,128.67009 199.06101,126.82759 L 195.61632,124.55947 C 194.51819,123.82603 192.1135,121.97134 193.30538,118.76571 C 194.37257,115.89071 197.29226,113.76978 201.75413,115.43009 C 208.18788,117.8204 207.40132,121.90353 206.74913,123.96572 L 204.41601,123.09915 L 204.41601,123.09915 z " />
    <path
       style="fill:#e50f07;stroke-width:0.5;stroke-miterlimit:4;stroke-dasharray:none"
       id="path209"
       d="M 210.18695,119.07603 L 225.5907,123.19603 L 224.98164,125.4704 L 218.56382,123.74978 L 214.09476,140.45072 L 211.53195,139.76166 L 215.9982,123.06478 L 209.57882,121.34665 L 210.18695,119.07603 L 210.18695,119.07603 z " />
    <path
       style="fill:#e50f07;fill-rule:evenodd;stroke-width:0.5;stroke-miterlimit:4;stroke-dasharray:none"
       id="path211"
       d="M 228.05726,137.7726 L 225.08258,143.06603 L 222.3832,142.60978 L 232.94539,124.47697 L 235.91102,124.98134 L 239.64696,145.53166 L 236.78821,145.04947 L 235.82695,139.08635 L 228.05726,137.7726 L 228.05726,137.7726 z M 235.27695,136.60697 L 233.85945,127.6004 L 233.80508,127.5904 L 229.25883,135.58978 L 235.27695,136.60697 L 235.27695,136.60697 z " />
    <path
       style="fill:#e50f07;stroke-width:0.5;stroke-miterlimit:4;stroke-dasharray:none"
       id="path213"
       d="M 243.00008,126.14259 L 258.89914,127.35634 L 258.7204,129.70009 L 252.09196,129.19259 L 250.77665,146.42666 L 248.13102,146.22604 L 249.44696,128.99509 L 242.82071,128.48384 L 243.00008,126.14259 L 243.00008,126.14259 z " />
    <path
       style="fill:#e50f07;stroke-width:0.5;stroke-miterlimit:4;stroke-dasharray:none"
       id="path215"
       d="M 275.70353,146.84635 L 261.21071,147.00416 L 260.99633,127.37072 L 275.29853,127.21447 L 275.32572,129.56666 L 263.67353,129.69384 L 263.73978,135.71197 L 274.48728,135.59228 L 274.51259,137.94603 L 263.76665,138.06197 L 263.83665,144.62072 L 275.67603,144.49353 L 275.70353,146.84635 L 275.70353,146.84635 z " />
    <path
       style="fill:#e50f07;stroke-width:0.5;stroke-miterlimit:4;stroke-dasharray:none"
       id="path217"
       d="M 290.40884,131.66853 C 289.99946,128.65478 287.40571,127.92759 285.19947,128.12915 C 283.53697,128.27572 280.77416,128.99509 281.04322,131.96228 C 281.19353,133.62384 282.41665,134.06791 283.58385,134.23259 L 289.28384,135.01228 C 291.87446,135.38166 293.9151,136.73572 294.19947,139.84103 C 294.6151,144.47135 290.42447,146.14354 287.07447,146.44572 C 283.44947,146.77322 281.93603,145.80947 280.99133,145.09854 C 279.19384,143.75353 278.72103,142.14197 278.55541,140.31853 L 281.03416,140.09447 C 281.35541,143.63666 284.33385,144.41103 286.84321,144.18666 C 288.75259,144.01291 291.92447,143.23291 291.66822,140.42478 C 291.48072,138.38291 290.46821,137.81853 287.19009,137.34103 L 283.09947,136.77853 C 281.78884,136.59541 278.82166,135.95541 278.51197,132.54884 C 278.23728,129.49572 279.95603,126.31947 284.69635,125.8929 C 291.53697,125.27415 292.58697,129.30041 292.88697,131.44478 L 290.40884,131.66853 L 290.40884,131.66853 z " />
    <path
       style="fill:#e50f07;fill-rule:evenodd;stroke-width:0.5;stroke-miterlimit:4;stroke-dasharray:none"
       id="path219"
       d="M 315.29323,142.3876 C 308.09947,143.82135 304.71198,138.2801 303.88385,134.12291 C 303.05573,129.96634 304.06198,123.54759 311.24635,122.11572 C 318.43073,120.68134 321.82761,126.22259 322.65573,130.37822 C 323.48386,134.53478 322.47761,140.95353 315.29323,142.3876 L 315.29323,142.3876 z M 311.70885,124.42197 C 307.52448,125.25884 305.66197,129.05384 306.56822,133.58728 C 307.46823,138.12447 310.64635,140.9176 314.83073,140.0851 C 319.01511,139.24822 320.87761,135.44572 319.97136,130.91603 C 319.07136,126.3804 315.89323,123.58728 311.70885,124.42197 L 311.70885,124.42197 z " />
    <path
       style="fill:#e50f07;stroke-width:0.5;stroke-miterlimit:4;stroke-dasharray:none"
       id="path221"
       d="M 331.33699,138.11072 L 328.79011,138.84166 L 323.36198,119.9679 L 336.43074,116.21571 L 337.07449,118.47728 L 326.56198,121.49697 L 328.22447,127.28228 L 337.47761,124.62103 L 338.12761,126.88259 L 328.87135,129.54509 L 331.33699,138.11072 L 331.33699,138.11072 z " />
    <path
       style="fill:#e50f07;fill-rule:evenodd;stroke-width:0.5;stroke-miterlimit:4;stroke-dasharray:none"
       id="path223"
       d="M 353.63387,124.66697 L 353.96823,130.73384 L 351.44637,131.79728 L 350.62448,110.8304 L 353.39637,109.65977 L 367.57762,124.99947 L 364.90886,126.12478 L 360.89324,121.61072 L 353.63387,124.66697 L 353.63387,124.66697 z M 359.10262,119.81009 L 353.06824,112.97196 L 353.02137,112.9979 L 353.47762,122.18134 L 359.10262,119.81009 L 359.10262,119.81009 z " />
    <path
       style="fill:#e50f07;stroke-width:0.5;stroke-miterlimit:4;stroke-dasharray:none"
       id="path225"
       d="M 385.012,115.67478 L 379.43075,105.51477 C 379.15263,105.01133 378.00263,102.80414 377.11825,101.19446 L 377.0745,101.22164 L 380.16825,118.33603 L 377.8745,119.60259 L 365.09949,107.83509 L 365.0495,107.85634 C 365.92137,109.43946 367.17137,111.5979 367.44011,112.10134 L 373.03075,122.26353 L 370.77762,123.50197 L 361.31511,106.28915 L 364.6495,104.46133 L 377.562,116.3104 L 377.60888,116.2829 L 374.50574,99.04508 L 377.812,97.230079 L 387.26513,114.43978 L 385.012,115.67478 L 385.012,115.67478 z " />
    <path
       style="fill:#e50f07;stroke-width:0.5;stroke-miterlimit:4;stroke-dasharray:none"
       id="path227"
       d="M 403.75887,103.08883 L 391.87763,111.40259 L 380.61825,95.313516 L 392.34013,87.112889 L 393.68388,89.038514 L 384.14325,95.719454 L 387.59325,100.65258 L 396.39638,94.485078 L 397.74638,96.412892 L 388.94324,102.57821 L 392.70576,107.95477 L 402.40576,101.16071 L 403.75887,103.08883 L 403.75887,103.08883 z " />
    <path
       style="fill:#e00c05;fill-rule:evenodd;stroke-width:0.5;stroke-miterlimit:4;stroke-dasharray:none"
       id="path229"
       d="M 409.66201,98.311955 L 407.65576,100.04758 L 394.81201,85.187888 L 401.68701,79.249136 C 404.13076,77.13726 407.30263,75.875385 410.02139,79.022574 C 411.91514,81.217574 411.49951,82.9907 411.02451,84.371638 C 412.17764,83.992263 413.34639,83.631325 415.22139,85.628201 L 417.67451,88.210701 C 418.40576,89.020077 418.78076,89.240702 419.70263,89.056639 L 419.99014,89.387889 L 417.52451,91.517265 C 416.45263,90.855077 414.44014,88.654764 413.95576,88.093826 C 412.89951,86.871639 411.41825,85.661638 409.02139,87.733826 L 404.15263,91.93914 L 409.66201,98.311955 L 409.66201,98.311955 z M 402.67138,90.218515 L 407.33076,86.197263 C 408.79951,84.924763 410.02764,83.211012 408.13076,81.016012 C 406.14951,78.720386 404.30888,79.983199 403.31513,80.839762 L 398.30263,85.169451 L 402.67138,90.218515 L 402.67138,90.218515 z " />
    <path
       style="fill:#e50f07;stroke-width:0.5;stroke-miterlimit:4;stroke-dasharray:none"
       id="path231"
       d="M 424.86514,84.33195 L 422.99326,86.208513 L 409.08389,72.339134 L 410.95576,70.462258 L 424.86514,84.33195 L 424.86514,84.33195 z " />
    <path
       style="fill:#e50f07;stroke-width:0.5;stroke-miterlimit:4;stroke-dasharray:none"
       id="path233"
       d="M 427.23701,61.15538 C 424.14013,59.471317 421.79014,61.244443 420.55889,62.678193 C 418.25264,65.372882 418.37451,69.266945 422.29325,72.632259 C 425.80264,75.63976 429.57452,76.709448 432.74014,73.015072 C 433.85888,71.706634 435.18389,68.906633 432.30577,65.251319 L 433.97452,63.294444 C 438.88389,68.955695 435.21827,73.736009 434.26202,74.857572 C 431.35888,78.238198 426.30577,79.674136 420.5745,74.762885 C 415.99014,70.826321 415.05576,65.482569 418.77451,61.146943 C 422.06826,57.304754 426.17138,57.359754 428.90889,59.209755 L 427.23701,61.15538 L 427.23701,61.15538 z " />
    <path
       style="fill:#e50f07;fill-rule:evenodd;stroke-width:0.5;stroke-miterlimit:4;stroke-dasharray:none"
       id="path235"
       d="M 439.05264,58.75663 L 442.59952,63.682881 L 441.05264,65.939757 L 429.05577,48.728501 L 430.76202,46.249751 L 450.97452,51.51319 L 449.33389,53.903503 L 443.51515,52.267877 L 439.05264,58.75663 L 439.05264,58.75663 z M 441.03702,51.725377 L 432.27139,49.212251 L 432.24327,49.257252 L 437.58076,56.748504 L 441.03702,51.725377 L 441.03702,51.725377 z " />
    <path
       style="fill:#ffffff;stroke-width:0.5;stroke-miterlimit:4;stroke-dasharray:none"
       id="path237"
       d="M 303.2151,-158.03094 C 309.13385,-152.39031 311.36198,-152.22468 305.48698,-166.06219 L 303.2151,-158.03094 L 303.2151,-158.03094 z " />
    <path
       style="fill:none;stroke:#8c8c8c;stroke-width:1.56250048;stroke-linecap:round;stroke-miterlimit:4;stroke-dasharray:none"
       id="path239"
       d="M 303.2151,-158.03094 C 309.13385,-152.39031 311.36198,-152.22468 305.48698,-166.06219 L 303.2151,-158.03094 L 303.2151,-158.03094 z " />
    <path
       style="fill:none;fill-rule:evenodd;stroke:#727272;stroke-width:1.56250048;stroke-linecap:round;stroke-miterlimit:4;stroke-dasharray:none"
       id="path241"
       d="M 271.12884,-224.39658 C 270.8879,-224.39658 274.05322,-223.31846 276.59916,-226.50908 M 270.90697,-225.06221 C 267.5529,-224.29346 273.65197,-224.55283 273.84258,-227.60596" />
    <path
       style="fill:none;stroke:#8c8c8c;stroke-width:1.56250048;stroke-linecap:round;stroke-miterlimit:4;stroke-dasharray:none"
       id="path243"
       d="M 258.24509,-209.19658 C 261.28228,-207.00283 265.19259,-201.8622 265.60915,-200.25595" />
    <path
       style="fill:none;stroke:#8c8c8c;stroke-width:1.56250048;stroke-linecap:round;stroke-miterlimit:4;stroke-dasharray:none"
       id="path245"
       d="M 282.66009,-188.32782 C 282.62416,-192.4872 284.22447,-184.09345 285.83072,-183.28407 C 286.55885,-182.90907 287.29635,-184.1122 287.8901,-188.78407" />
    <path
       style="fill:#ffffff;stroke-width:0.5;stroke-miterlimit:4;stroke-dasharray:none"
       d="M 168.14667,-135.27694 C 172.03531,-133.85541 176.28995,-126.03223 176.28995,-122.32622 L 177.76162,47.701095 C 177.76163,62.844381 193.94261,73.210103 207.78382,73.210103 C 207.78382,73.210103 246.63607,73.210103 246.63607,73.210103 C 259.22292,73.210103 268.12628,74.30026 272.14513,89.300421 C 276.16399,74.30026 285.06728,73.210103 297.65418,73.210103 C 297.65418,73.210103 336.60455,73.210103 336.60455,73.210103 C 350.44574,73.210103 366.62675,62.844381 366.62675,47.701095 L 368.09843,-122.32622 C 368.09843,-126.03223 372.35306,-133.85541 376.24169,-135.27694 C 376.24169,-135.27694 272.14513,-135.27694 272.14513,-135.27694 C 272.14513,-135.27694 168.14667,-135.27694 168.14667,-135.27694 z "
       id="path19" />
    <path
       style="fill:#6b0000;stroke-width:0.5;stroke-miterlimit:4;stroke-dasharray:none"
       id="path21"
       d="M 330.86624,-53.897469 L 272.59215,-28.865586 L 282.68653,-25.35996 L 330.86624,-53.897469 L 330.86624,-53.897469 z " />
    <path
       style="fill:none;stroke:#000000;stroke-width:1.56250048;stroke-miterlimit:4;stroke-dasharray:none"
       id="path23"
       d="M 330.86624,-53.897469 L 272.59215,-28.865586 L 282.68653,-25.35996 L 330.86624,-53.897469 L 330.86624,-53.897469 z " />
    <path
       style="fill:#6b0000;stroke-width:0.5;stroke-miterlimit:4;stroke-dasharray:none"
       id="path25"
       d="M 247.27402,-87.030917 L 272.59215,-28.865586 L 276.05809,-38.988089 L 247.27402,-87.030917 L 247.27402,-87.030917 z " />
    <path
       style="fill:none;stroke:#000000;stroke-width:1.56250048;stroke-miterlimit:4;stroke-dasharray:none"
       id="path27"
       d="M 247.27402,-87.030917 L 272.59215,-28.865586 L 276.05809,-38.988089 L 247.27402,-87.030917 L 247.27402,-87.030917 z " />
    <path
       style="fill:#6b0000;stroke-width:0.5;stroke-miterlimit:4;stroke-dasharray:none"
       id="path29"
       d="M 297.89747,29.29787 L 272.59215,-28.865586 L 282.34778,-24.515272 L 297.89747,29.29787 L 297.89747,29.29787 z " />
    <path
       style="fill:none;stroke:#000000;stroke-width:1.56250048;stroke-miterlimit:4;stroke-dasharray:none"
       id="path31"
       d="M 297.89747,29.29787 L 272.59215,-28.865586 L 282.34778,-24.515272 L 297.89747,29.29787 L 297.89747,29.29787 z " />
    <path
       style="fill:#6b0000;stroke-width:0.5;stroke-miterlimit:4;stroke-dasharray:none"
       id="path33"
       d="M 213.9237,-4.7574533 L 272.59215,-28.865586 L 268.03059,-19.20527 L 213.9237,-4.7574533 L 213.9237,-4.7574533 z " />
    <path
       style="fill:none;stroke:#000000;stroke-width:1.56250048;stroke-miterlimit:4;stroke-dasharray:none"
       id="path35"
       d="M 213.9237,-4.7574533 L 272.59215,-28.865586 L 268.03059,-19.20527 L 213.9237,-4.7574533 L 213.9237,-4.7574533 z " />
    <path
       style="fill:#6b0000;stroke-width:0.5;stroke-miterlimit:4;stroke-dasharray:none"
       id="path37"
       d="M 297.78497,-87.080917 L 272.59215,-28.865586 L 282.34778,-33.241837 L 297.78497,-87.080917 L 297.78497,-87.080917 z " />
    <path
       style="fill:none;stroke:#000000;stroke-width:1.56250048;stroke-miterlimit:4;stroke-dasharray:none"
       id="path39"
       d="M 297.78497,-87.080917 L 272.59215,-28.865586 L 282.34778,-33.241837 L 297.78497,-87.080917 L 297.78497,-87.080917 z " />
    <path
       style="fill:#6b0000;stroke-width:0.5;stroke-miterlimit:4;stroke-dasharray:none"
       id="path41"
       d="M 330.92874,-3.9602655 L 272.59215,-28.865586 L 282.67216,-32.395587 L 330.92874,-3.9602655 L 330.92874,-3.9602655 z " />
    <path
       style="fill:none;stroke:#000000;stroke-width:1.56250048;stroke-miterlimit:4;stroke-dasharray:none"
       id="path43"
       d="M 330.92874,-3.9602655 L 272.59215,-28.865586 L 282.67216,-32.395587 L 330.92874,-3.9602655 L 330.92874,-3.9602655 z " />
    <path
       style="fill:#6b0000;stroke-width:0.5;stroke-miterlimit:4;stroke-dasharray:none"
       id="path45"
       d="M 246.49121,28.948495 L 272.59215,-28.865586 L 275.91403,-18.72152 L 246.49121,28.948495 L 246.49121,28.948495 z " />
    <path
       style="fill:none;stroke:#000000;stroke-width:1.56250048;stroke-miterlimit:4;stroke-dasharray:none"
       id="path47"
       d="M 246.49121,28.948495 L 272.59215,-28.865586 L 275.91403,-18.72152 L 246.49121,28.948495 L 246.49121,28.948495 z " />
    <path
       style="fill:#6b0000;stroke-width:0.5;stroke-miterlimit:4;stroke-dasharray:none"
       id="path49"
       d="M 214.25714,-53.786844 L 272.59215,-28.865586 L 262.49464,-25.335272 L 214.25714,-53.786844 L 214.25714,-53.786844 z " />
    <path
       style="fill:none;stroke:#000000;stroke-width:1.56250048;stroke-miterlimit:4;stroke-dasharray:none"
       id="path51"
       d="M 214.25714,-53.786844 L 272.59215,-28.865586 L 262.49464,-25.335272 L 214.25714,-53.786844 L 214.25714,-53.786844 z " />
    <path
       style="fill:#e50f07;stroke-width:0.5;stroke-miterlimit:4;stroke-dasharray:none"
       id="path53"
       d="M 214.03495,-4.4780782 L 272.59215,-28.865586 L 262.52902,-32.499337 L 214.03495,-4.4780782 L 214.03495,-4.4780782 z " />
    <path
       style="fill:none;stroke:#000000;stroke-width:1.56250048;stroke-miterlimit:4;stroke-dasharray:none"
       id="path55"
       d="M 214.03495,-4.4780782 L 272.59215,-28.865586 L 262.52902,-32.499337 L 214.03495,-4.4780782 L 214.03495,-4.4780782 z " />
    <path
       style="fill:#e50f07;stroke-width:0.5;stroke-miterlimit:4;stroke-dasharray:none"
       id="path57"
       d="M 297.88497,29.28787 L 272.59215,-28.865586 L 269.11309,-18.771208 L 297.88497,29.28787 L 297.88497,29.28787 z " />
    <path
       style="fill:none;stroke:#000000;stroke-width:1.56250048;stroke-miterlimit:4;stroke-dasharray:none"
       id="path59"
       d="M 297.88497,29.28787 L 272.59215,-28.865586 L 269.11309,-18.771208 L 297.88497,29.28787 L 297.88497,29.28787 z " />
    <path
       style="fill:#e50f07;stroke-width:0.5;stroke-miterlimit:4;stroke-dasharray:none"
       id="path61"
       d="M 247.28465,-87.034042 L 272.59215,-28.865586 L 262.82495,-33.232462 L 247.28465,-87.034042 L 247.28465,-87.034042 z " />
    <path
       style="fill:none;stroke:#000000;stroke-width:1.56250048;stroke-miterlimit:4;stroke-dasharray:none"
       id="path63"
       d="M 247.28465,-87.034042 L 272.59215,-28.865586 L 262.82495,-33.232462 L 247.28465,-87.034042 L 247.28465,-87.034042 z " />
    <path
       style="fill:#e50f07;stroke-width:0.5;stroke-miterlimit:4;stroke-dasharray:none"
       id="path65"
       d="M 330.88186,-53.897469 L 272.59215,-28.865586 L 276.98683,-38.605277 L 330.88186,-53.897469 L 330.88186,-53.897469 z " />
    <path
       style="fill:none;stroke:#000000;stroke-width:1.56250048;stroke-miterlimit:4;stroke-dasharray:none"
       id="path67"
       d="M 330.88186,-53.897469 L 272.59215,-28.865586 L 276.98683,-38.605277 L 330.88186,-53.897469 L 330.88186,-53.897469 z " />
    <path
       style="fill:#e50f07;stroke-width:0.5;stroke-miterlimit:4;stroke-dasharray:none"
       id="path69"
       d="M 214.24245,-53.765594 L 272.59215,-28.865586 L 268.16246,-38.605277 L 214.24245,-53.765594 L 214.24245,-53.765594 z " />
    <path
       style="fill:none;stroke:#000000;stroke-width:1.56250048;stroke-miterlimit:4;stroke-dasharray:none"
       id="path71"
       d="M 214.24245,-53.765594 L 272.59215,-28.865586 L 268.16246,-38.605277 L 214.24245,-53.765594 L 214.24245,-53.765594 z " />
    <path
       style="fill:#e50f07;stroke-width:0.5;stroke-miterlimit:4;stroke-dasharray:none"
       id="path73"
       d="M 246.76215,29.070683 L 272.59215,-28.865586 L 262.79153,-24.597772 L 246.76215,29.070683 L 246.76215,29.070683 z " />
    <path
       style="fill:none;stroke:#000000;stroke-width:1.56250048;stroke-miterlimit:4;stroke-dasharray:none"
       id="path75"
       d="M 246.76215,29.070683 L 272.59215,-28.865586 L 262.79153,-24.597772 L 246.76215,29.070683 L 246.76215,29.070683 z " />
    <path
       style="fill:#e50f07;stroke-width:0.5;stroke-miterlimit:4;stroke-dasharray:none"
       id="path77"
       d="M 330.92874,-3.9602655 L 272.59215,-28.865586 L 277.01403,-19.14027 L 330.92874,-3.9602655 L 330.92874,-3.9602655 z " />
    <path
       style="fill:none;stroke:#000000;stroke-width:1.56250048;stroke-miterlimit:4;stroke-dasharray:none"
       id="path79"
       d="M 330.92874,-3.9602655 L 272.59215,-28.865586 L 277.01403,-19.14027 L 330.92874,-3.9602655 L 330.92874,-3.9602655 z " />
    <path
       style="fill:#e50f07;stroke-width:0.5;stroke-miterlimit:4;stroke-dasharray:none"
       id="path81"
       d="M 297.78497,-87.080917 L 272.59215,-28.865586 L 269.10028,-38.978402 L 297.78497,-87.080917 L 297.78497,-87.080917 z " />
    <path
       style="fill:none;stroke:#000000;stroke-width:1.56250048;stroke-miterlimit:4;stroke-dasharray:none"
       id="path83"
       d="M 297.78497,-87.080917 L 272.59215,-28.865586 L 269.10028,-38.978402 L 297.78497,-87.080917 L 297.78497,-87.080917 z " />
    <path
       style="fill:#6b0000;stroke-width:0.5;stroke-miterlimit:4;stroke-dasharray:none"
       id="path247"
       d="M 324.16311,-78.965602 L 272.59215,-28.865586 L 284.6881,-29.238711 L 324.16311,-78.965602 L 324.16311,-78.965602 z " />
    <path
       style="fill:none;stroke:#000000;stroke-width:1.56250048;stroke-miterlimit:4;stroke-dasharray:none"
       id="path249"
       d="M 324.16311,-78.965602 L 272.59215,-28.865586 L 284.6881,-29.238711 L 324.16311,-78.965602 L 324.16311,-78.965602 z " />
    <path
       style="fill:#6b0000;stroke-width:0.5;stroke-miterlimit:4;stroke-dasharray:none"
       id="path251"
       d="M 322.91311,22.459743 L 272.59215,-28.865586 L 284.67559,-28.205586 L 322.91311,22.459743 L 322.91311,22.459743 z " />
    <path
       style="fill:none;stroke:#000000;stroke-width:1.56250048;stroke-miterlimit:4;stroke-dasharray:none"
       id="path253"
       d="M 322.91311,22.459743 L 272.59215,-28.865586 L 284.67559,-28.205586 L 322.91311,22.459743 L 322.91311,22.459743 z " />
    <path
       style="fill:#6b0000;stroke-width:0.5;stroke-miterlimit:4;stroke-dasharray:none"
       id="path255"
       d="M 220.24776,20.405992 L 272.59215,-28.865586 L 271.68809,-16.79652 L 220.24776,20.405992 L 220.24776,20.405992 z " />
    <path
       style="fill:none;stroke:#000000;stroke-width:1.56250048;stroke-miterlimit:4;stroke-dasharray:none"
       id="path257"
       d="M 220.24776,20.405992 L 272.59215,-28.865586 L 271.68809,-16.79652 L 220.24776,20.405992 L 220.24776,20.405992 z " />
    <path
       style="fill:#6b0000;stroke-width:0.5;stroke-miterlimit:4;stroke-dasharray:none"
       id="path259"
       d="M 222.25558,-80.203102 L 272.59215,-28.865586 L 260.4812,-29.528399 L 222.25558,-80.203102 L 222.25558,-80.203102 z " />
    <path
       style="fill:none;stroke:#000000;stroke-width:1.56250048;stroke-miterlimit:4;stroke-dasharray:none"
       id="path261"
       d="M 222.25558,-80.203102 L 272.59215,-28.865586 L 260.4812,-29.528399 L 222.25558,-80.203102 L 222.25558,-80.203102 z " />
    <path
       style="fill:#e50f07;stroke-width:0.5;stroke-miterlimit:4;stroke-dasharray:none"
       id="path263"
       d="M 222.24339,-80.190915 L 272.59215,-28.865586 L 272.15652,-40.97809 L 222.24339,-80.190915 L 222.24339,-80.190915 z " />
    <path
       style="fill:none;stroke:#000000;stroke-width:1.56250048;stroke-miterlimit:4;stroke-dasharray:none"
       id="path265"
       d="M 222.24339,-80.190915 L 272.59215,-28.865586 L 272.15652,-40.97809 L 222.24339,-80.190915 L 222.24339,-80.190915 z " />
    <path
       style="fill:#e50f07;stroke-width:0.5;stroke-miterlimit:4;stroke-dasharray:none"
       id="path267"
       d="M 220.47807,20.649117 L 272.59215,-28.865586 L 260.47809,-28.633711 L 220.47807,20.649117 L 220.47807,20.649117 z " />
    <path
       style="fill:none;stroke:#000000;stroke-width:1.56250048;stroke-miterlimit:4;stroke-dasharray:none"
       id="path269"
       d="M 220.47807,20.649117 L 272.59215,-28.865586 L 260.47809,-28.633711 L 220.47807,20.649117 L 220.47807,20.649117 z " />
    <path
       style="fill:#e50f07;stroke-width:0.5;stroke-miterlimit:4;stroke-dasharray:none"
       id="path271"
       d="M 322.91311,22.459743 L 272.59215,-28.865586 L 273.00653,-16.77152 L 322.91311,22.459743 L 322.91311,22.459743 z " />
    <path
       style="fill:none;stroke:#000000;stroke-width:1.56250048;stroke-miterlimit:4;stroke-dasharray:none"
       id="path273"
       d="M 322.91311,22.459743 L 272.59215,-28.865586 L 273.00653,-16.77152 L 322.91311,22.459743 L 322.91311,22.459743 z " />
    <path
       style="fill:#e50f07;stroke-width:0.5;stroke-miterlimit:4;stroke-dasharray:none"
       id="path275"
       d="M 324.16311,-78.965602 L 272.59215,-28.865586 L 273.30403,-40.962777 L 324.16311,-78.965602 L 324.16311,-78.965602 z " />
    <path
       style="fill:none;stroke:#000000;stroke-width:1.56250048;stroke-miterlimit:4;stroke-dasharray:none"
       id="path277"
       d="M 324.16311,-78.965602 L 272.59215,-28.865586 L 273.30403,-40.962777 L 324.16311,-78.965602 L 324.16311,-78.965602 z " />
    <path
       style="fill:#e50f07;stroke-width:0.5;stroke-miterlimit:4;stroke-dasharray:none"
       id="path279"
       d="M 188.01275,-28.107148 L 272.59215,-28.865586 L 262.92559,-38.383089 L 188.01275,-28.107148 L 188.01275,-28.107148 z " />
    <path
       style="fill:#e50f07;stroke-width:0.5;stroke-miterlimit:4;stroke-dasharray:none"
       id="path283"
       d="M 273.20934,55.691004 L 272.59215,-28.865586 L 262.80434,-19.811833 L 273.20934,55.691004 L 273.20934,55.691004 z " />
    <path
       style="fill:none;stroke:#000000;stroke-width:1.56250048;stroke-miterlimit:4;stroke-dasharray:none"
       id="path285"
       d="M 273.20934,55.691004 L 272.59215,-28.865586 L 262.80434,-19.811833 L 273.20934,55.691004 L 273.20934,55.691004 z " />
    <path
       style="fill:#e50f07;stroke-width:0.5;stroke-miterlimit:4;stroke-dasharray:none"
       id="path287"
       d="M 272.24497,-113.44342 L 272.59215,-28.865586 L 262.92559,-38.499027 L 272.24497,-113.44342 L 272.24497,-113.44342 z " />
    <path
       style="fill:none;stroke:#000000;stroke-width:1.56250048;stroke-miterlimit:4;stroke-dasharray:none"
       id="path289"
       d="M 272.24497,-113.44342 L 272.59215,-28.865586 L 262.9259,-38.499027 L 272.24497,-113.44342 L 272.24497,-113.44342 z " />
    <path
       style="fill:#e50f07;stroke-width:0.5;stroke-miterlimit:4;stroke-dasharray:none"
       id="path291"
       d="M 357.15687,-29.607774 L 272.59215,-28.865586 L 282.16996,-38.582464 L 357.15687,-29.607774 L 357.15687,-29.607774 z " />
    <path
       style="fill:none;stroke:#000000;stroke-width:1.56250048;stroke-miterlimit:4;stroke-dasharray:none"
       id="path293"
       d="M 357.15687,-29.607774 L 272.59215,-28.865586 L 282.16996,-38.582464 L 357.15687,-29.607774 L 357.15687,-29.607774 z " />
    <path
       style="fill:#6b0000;stroke-width:0.5;stroke-miterlimit:4;stroke-dasharray:none"
       id="path295"
       d="M 272.24497,-113.44342 L 272.59215,-28.865586 L 282.16996,-38.499027 L 272.24497,-113.44342 L 272.24497,-113.44342 z " />
    <path
       style="fill:none;stroke:#000000;stroke-width:1.56250048;stroke-miterlimit:4;stroke-dasharray:none"
       id="path297"
       d="M 272.24497,-113.44342 L 272.59215,-28.865586 L 282.16996,-38.499027 L 272.24497,-113.44342 L 272.24497,-113.44342 z " />
    <path
       style="fill:#6b0000;stroke-width:0.5;stroke-miterlimit:4;stroke-dasharray:none"
       id="path299"
       d="M 273.21997,55.691004 L 272.59215,-28.865586 L 282.27684,-19.350895 L 273.21997,55.691004 L 273.21997,55.691004 z " />
    <path
       style="fill:none;stroke:#000000;stroke-width:1.56250048;stroke-miterlimit:4;stroke-dasharray:none"
       id="path301"
       d="M 273.21997,55.691004 L 272.59215,-28.865586 L 282.27684,-19.350895 L 273.21997,55.691004 L 273.21997,55.691004 z " />
    <path
       style="fill:#6b0000;stroke-width:0.5;stroke-miterlimit:4;stroke-dasharray:none"
       id="path303"
       d="M 188.01275,-28.128398 L 272.59215,-28.865586 L 262.80434,-19.811833 L 188.01275,-28.128398 L 188.01275,-28.128398 z " />
    <path
       style="fill:none;stroke:#000000;stroke-width:1.56250048;stroke-miterlimit:4;stroke-dasharray:none"
       id="path305"
       d="M 188.01275,-28.128711 L 272.59215,-28.865586 L 262.80434,-19.811833 L 188.01275,-28.128711 L 188.01275,-28.128711 z " />
    <path
       style="fill:none;stroke:#000000;stroke-width:1.56250048;stroke-miterlimit:4;stroke-dasharray:none"
       id="path281"
       d="M 188.01275,-28.107148 L 272.59215,-28.865586 L 262.9259,-38.383089 L 188.01275,-28.107148 L 188.01275,-28.107148 z " />
    <path
       style="fill:#6b0000;stroke-width:0.5;stroke-miterlimit:4;stroke-dasharray:none"
       id="path307"
       d="M 357.15687,-29.625274 L 272.59215,-28.865586 L 282.14278,-19.350895 L 357.15687,-29.625274 L 357.15687,-29.625274 z " />
    <path
       style="fill:none;stroke:#000000;stroke-width:1.56250048;stroke-miterlimit:4;stroke-dasharray:none"
       id="path309"
       d="M 357.15687,-29.625274 L 272.59215,-28.865586 L 282.14278,-19.350895 L 357.15687,-29.625274 L 357.15687,-29.625274 z " />
    <path
       d="M 485.94321,-40.133187 C 492.41044,-40.848426 494.09659,-46.008395 494.44789,-49.480653 C 495.10499,-56.011362 490.81491,-61.769301 481.31954,-62.731505 C 472.82773,-63.583949 465.99137,-61.232999 465.09133,-52.286712 C 464.77008,-49.122507 465.72557,-43.492148 473.94703,-40.988182 L 473.472,-36.270927 C 460.06049,-39.646356 460.57277,-50.758299 460.8461,-53.474962 C 461.67087,-61.667224 467.80916,-69.169392 481.67696,-67.770082 C 492.77731,-66.651241 499.82642,-59.544613 498.76721,-49.042184 C 497.83081,-39.748316 491.5664,-35.508671 485.46548,-35.414385 L 485.94321,-40.133187 L 485.94321,-40.133187 z "
       id="path2462"
       style="fill:#ffffff;stroke-width:0.5;stroke-miterlimit:4;stroke-dasharray:none" />
  </g>
</svg>
