<?xml version="1.0" encoding="UTF-8" standalone="no"?>
<svg width="531px" height="512px" viewBox="0 0 531 512" version="1.1" xmlns="http://www.w3.org/2000/svg" xmlns:xlink="http://www.w3.org/1999/xlink">
    <!-- Generator: Sketch 3.6.1 (26313) - http://www.bohemiancoding.com/sketch -->
    <title>Cessna</title>
    <desc>Created with Sketch.</desc>
    <defs></defs>
    <g id="Page-1" stroke="none" stroke-width="1" fill="none" fill-rule="evenodd">
        <g id="Cessna">
            <path d="M452.693333,0 L107.804444,0 L107.804444,110.222222 L300.586667,110.222222 C330.262394,109.942542 358.559265,97.6540554 379.022222,76.16 L452.693333,0 L452.693333,0 L452.693333,0 Z" id="Shape" fill="#000000"></path>
            <path d="M107.946667,167.466667 L287.182222,167.466667 L215.715556,240.355556 C195.555556,260.835556 169.244444,278.968889 130.595556,278.968889 L107.946667,278.968889 L107.946667,167.466667 L107.946667,167.466667 L107.946667,167.466667 Z" id="Shape" fill="#D50032"></path>
            <path d="M327.822222,386.524444 L327.822222,208.035556 L252.906667,284.444444 C240.533333,298.062222 221.191111,313.991111 221.191111,350.435556 L221.191111,386.666667 L327.857778,386.666667 L327.822222,386.524444 Z" id="Shape" fill="#D50032"></path>
            <path d="M385.315556,386.951111 L385.315556,189.155556 C385.315556,168.64 385.315556,150.506667 406.648889,127.857778 L491.52,40.1777778 L491.52,386.915556 L385.315556,386.915556 L385.315556,386.951111 Z" id="Shape" fill="#000000"></path>
            <path d="M457.457778,420.8 C438.506667,420.8 424.106667,428.906667 423.182222,448.568889 L441.28,448.568889 C442.190755,440.788153 449.035916,435.083853 456.853333,435.591111 C464.888889,435.591111 471.608889,436.977778 471.395556,447.04 C471.395556,454.151111 462.72,455.68 448.355556,457.706667 C436.124444,459.271111 420.16,466.168889 415.644444,478.791111 L415.644444,456.888889 C415.644444,436.017778 411.448889,422.222222 386.88,422.08 C379.090373,422.24051 371.57928,425.007096 365.546667,429.937778 L364.942222,429.937778 L362.204444,424.426667 L342.4,424.426667 L342.4,476.835556 C340.017778,464.995556 328.995556,460.871111 316.977778,458.097778 C303.751111,454.933333 289.173333,453.973333 288.96,445.475556 C288.746667,436.977778 298.453333,436.408889 303.537778,436.408889 C311.498628,435.938995 318.642415,441.266819 320.462222,449.031111 L338.56,449.031111 C336.853333,428.337778 321.635556,420.586667 304.32,420.586667 C286.008889,420.586667 268.764444,429.653333 269.297778,447.964444 C269.297778,462.933333 280.888889,469.048889 294.186667,472 C310.897778,475.555556 320.355556,478.115556 320.355556,485.013333 C320.355556,493.297778 311.893333,496.853333 305.173333,496.853333 C295.653373,496.551411 287.24407,490.566791 283.84,481.671111 L266.951111,481.671111 C266.737778,466.311111 254.506667,461.404444 240.96,458.24 C227.413333,455.075556 213.155556,454.115556 213.013333,445.617778 C212.871111,437.12 222.471111,436.551111 227.591111,436.551111 C235.569885,436.020948 242.748402,441.374675 244.515556,449.173333 L262.648889,449.173333 C260.906667,428.48 245.724444,420.728889 228.337778,420.728889 C210.026667,420.728889 192.782222,429.795556 193.28,448.106667 C193.28,463.075556 204.906667,469.191111 218.168889,472.142222 C234.915556,475.697778 244.586667,478.257778 244.586667,485.155556 C244.586667,493.44 235.875556,496.995556 229.226667,496.995556 C219.647556,496.745392 211.160221,490.755158 207.715556,481.813333 L189.937778,481.813333 L189.937778,481.813333 L169.6,481.813333 C166.059363,489.294679 158.569428,494.108651 150.293333,494.222222 C137.493333,494.222222 130.204444,487.502222 129.6,472.888889 L188.906667,472.888889 C190.506667,446.862222 178.24,422.684444 149.511111,422.684444 C123.875556,422.684444 106.382222,441.955556 106.382222,467.377778 C106.352074,468.364834 106.411578,469.35259 106.56,470.328889 L86.08,470.328889 C81.9555556,481.528889 74.8444444,492.551111 55.1466667,492.551111 C32.1066667,492.337778 23.4311111,471.217778 23.4311111,451.591111 C23.4311111,431.288889 32.1066667,409.6 55.1466667,409.6 C76.0177778,409.6 80.96,419.875556 83.5911111,428.906667 L105.955556,428.906667 C103.431111,404.657778 82.9511111,391.111111 55.1466667,391.111111 C23.2533333,391.111111 0,416.462222 0,451.128889 C0,485.013333 21.6177778,512 55.1466667,512 C82.3466667,512 100.871111,496.64 106.951111,475.377778 C110.293333,497.031111 125.831111,511.431111 149.617778,511.431111 C167.928889,511.431111 182.08,503.751111 189.226667,484.444444 C195.52,502.755556 209.706667,511.431111 229.44,511.431111 C246.755556,511.431111 263.715556,505.493333 266.666667,487.786667 C273.351111,503.751111 286.933333,511.431111 305.244444,511.431111 C322.773333,511.431111 339.555556,505.493333 342.506667,487.964444 L342.506667,509.297778 L363.591111,509.297778 L363.591111,464.711111 C363.591111,447.573333 368.924444,440.497778 379.697778,440.497778 C390.471111,440.497778 393.671111,447.395556 393.671111,461.404444 L393.671111,509.262222 L415.786667,509.262222 L415.786667,492.693333 C420.016285,503.721881 430.715465,510.906835 442.524444,510.648889 C452.8,510.648889 464.995556,508.657778 472.462222,500.977778 C472.717248,503.785806 473.253264,506.561177 474.062222,509.262222 L492.195556,509.048889 L492.195556,446.186667 C492.195556,425.92 474.417778,420.764444 457.564444,420.764444 L457.564444,420.764444 L457.457778,420.8 Z M149.084444,439.751111 C160.533333,439.751111 165.44,446.044444 167.644444,457.848889 L130.026667,457.848889 C130.029444,452.874759 132.075396,448.120157 135.685496,444.698293 C139.295596,441.276429 144.152845,439.487774 149.12,439.751111 L149.12,439.751111 L149.084444,439.751111 Z M470.791111,476.444444 C470.791111,481.386667 470.044444,495.928889 451.875556,495.928889 C444.444444,495.928889 436.515556,493.76 436.515556,485.262222 C436.515556,476.764444 443.413333,472.817778 448.355556,471.04 C455.58626,468.594616 463.12899,467.193823 470.755556,466.88 L470.755556,476.444444 L470.755556,476.444444 L470.791111,476.444444 Z" id="Shape" fill="#000000"></path>
            <path d="M530.168889,27.4133333 C530.090574,33.6976338 524.946494,38.7361012 518.661921,38.684053 C512.377348,38.6320048 507.317424,33.5090289 507.343204,27.2242933 C507.368985,20.9395578 512.470767,15.8582657 518.755556,15.8577778 C521.807363,15.8575408 524.732152,17.079517 526.876703,19.2507912 C529.021254,21.4220655 530.206918,24.3617626 530.168889,27.4133333 L530.168889,27.4133333 Z M509.475556,27.4133333 C509.670226,32.4643523 513.871571,36.4305329 518.925423,36.3342569 C523.979275,36.2379809 528.026515,32.1146646 528.02867,27.0598962 C528.030825,22.0051277 523.987101,17.8783624 518.933333,17.7777778 C516.406689,17.7583448 513.978909,18.7583575 512.198952,20.5516966 C510.418996,22.3450358 509.437197,24.7802388 509.475556,27.3066667 L509.475556,27.4133333 Z M516.764444,34.0622222 L513.208889,34.0622222 L513.208889,20.6577778 L519.111111,20.6577778 C520.361902,20.5537397 521.611987,20.8662611 522.666667,21.5466667 C523.638123,22.2926869 524.203984,23.4507277 524.195556,24.6755556 C524.28853,26.2500415 523.333144,27.6975961 521.848889,28.2311111 L524.408889,34.0977778 L520.64,34.0977778 L518.506667,28.8 L516.551111,28.8 L516.551111,33.92 L516.764444,34.0622222 Z M516.764444,26.4177778 L518.542222,26.4177778 C519.115385,26.5099141 519.702929,26.4099066 520.213333,26.1333333 C520.651123,25.8051644 520.913418,25.2936889 520.924444,24.7466667 C520.906977,24.2831381 520.701589,23.8466871 520.355556,23.5377778 C519.801663,23.1684981 519.121483,23.0401623 518.471111,23.1822222 L516.728889,23.1822222 L516.728889,26.3111111 L516.764444,26.4177778 Z" id="Shape" fill="#000000"></path>
        </g>
    </g>
</svg>