<svg id="Layer_1" data-name="Layer 1" xmlns="http://www.w3.org/2000/svg" viewBox="0 0 149.11 144"><defs><style>.cls-1,.cls-4{fill:#0077c8;}.cls-1,.cls-2,.cls-3{fill-rule:evenodd;}.cls-2{fill:#d50032;}</style></defs><title>Cessna_RGB</title><path class="cls-1" d="M127.32,0h-97V31H84.54a30.86,30.86,0,0,0,22.06-9.58L127.32,0h0Z"/><path class="cls-2" d="M30.36,47.1H80.77L60.67,67.6C55,73.36,47.6,78.46,36.73,78.46H30.36V47.1h0Z"/><path class="cls-2" d="M92.2,108.71V58.51L71.13,80c-3.48,3.83-8.92,8.31-8.92,18.56v10.19h30Z"/><path class="cls-1" d="M108.37,108.83V53.2c0-5.77,0-10.87,6-17.24L138.24,11.3v97.52H108.37Z"/><path class="cls-3" d="M128.66,118.35c-5.33,0-9.38,2.28-9.64,7.81h5.09a4.14,4.14,0,0,1,4.38-3.65c2.26,0,4.15.39,4.09,3.22,0,2-2.44,2.43-6.48,3-3.44.44-7.93,2.38-9.2,5.93v-6.16c0-5.87-1.18-9.75-8.09-9.79a9.8,9.8,0,0,0-6,2.21h-0.17l-0.77-1.55H96.3v14.74c-0.67-3.33-3.77-4.49-7.15-5.27-3.72-.89-7.82-1.16-7.88-3.55s2.67-2.55,4.1-2.55a4.61,4.61,0,0,1,4.76,3.55h5.09c-0.48-5.82-4.76-8-9.63-8-5.15,0-10,2.55-9.85,7.7,0,4.21,3.26,5.93,7,6.76,4.7,1,7.36,1.72,7.36,3.66,0,2.33-2.38,3.33-4.27,3.33a6.65,6.65,0,0,1-6-4.27H75.08c-0.06-4.32-3.5-5.7-7.31-6.59s-7.82-1.16-7.86-3.55,2.66-2.55,4.1-2.55a4.57,4.57,0,0,1,4.76,3.55h5.1c-0.49-5.82-4.76-8-9.65-8-5.15,0-10,2.55-9.86,7.7,0,4.21,3.27,5.93,7,6.76,4.71,1,7.43,1.72,7.43,3.66,0,2.33-2.45,3.33-4.32,3.33a6.67,6.67,0,0,1-6.05-4.27h-5v0H47.7a6.1,6.1,0,0,1-5.43,3.49c-3.6,0-5.65-1.89-5.82-6H53.13c0.45-7.32-3-14.12-11.08-14.12-7.21,0-12.13,5.42-12.13,12.57a4.59,4.59,0,0,0,.05.83H24.21c-1.16,3.15-3.16,6.25-8.7,6.25-6.48-.06-8.92-6-8.92-11.52,0-5.71,2.44-11.81,8.92-11.81,5.87,0,7.26,2.89,8,5.43H29.8C29.09,113.81,23.33,110,15.51,110,6.54,110,0,117.13,0,126.88,0,136.41,6.08,144,15.51,144c7.65,0,12.86-4.32,14.57-10.3,0.94,6.09,5.31,10.14,12,10.14,5.15,0,9.13-2.16,11.14-7.59,1.77,5.15,5.76,7.59,11.31,7.59,4.87,0,9.64-1.67,10.47-6.65,1.88,4.49,5.7,6.65,10.85,6.65,4.93,0,9.65-1.67,10.48-6.6v6h5.93V130.7c0-4.82,1.5-6.81,4.53-6.81s3.93,1.94,3.93,5.88v13.46h6.22v-4.66a7.87,7.87,0,0,0,7.52,5.05c2.89,0,6.32-.56,8.42-2.72a11.86,11.86,0,0,0,.45,2.33l5.1-.06V125.49c0-5.7-5-7.15-9.74-7.15h0Zm-86.73,5.33c3.22,0,4.6,1.77,5.22,5.09H36.57a5.1,5.1,0,0,1,5.37-5.09h0ZM132.41,134c0,1.39-.21,5.48-5.32,5.48-2.09,0-4.32-.61-4.32-3s1.94-3.5,3.33-4a22.56,22.56,0,0,1,6.3-1.17V134h0Z"/><path class="cls-4" d="M149.11,7.71a3.21,3.21,0,1,1-3.21-3.25A3.21,3.21,0,0,1,149.11,7.71Zm-5.82,0A2.61,2.61,0,1,0,145.95,5,2.64,2.64,0,0,0,143.29,7.68Zm2.05,1.87h-1V5.81H146a1.6,1.6,0,0,1,1,.25,1.1,1.1,0,0,1,.43.88,1,1,0,0,1-.66,1l0.72,1.65h-1.06l-0.6-1.49h-0.55V9.54Zm0-2.15h0.5a0.74,0.74,0,0,0,.47-0.08,0.5,0.5,0,0,0,.2-0.39,0.48,0.48,0,0,0-.16-0.34,0.69,0.69,0,0,0-.53-0.1h-0.49V7.4Z"/></svg>