<?xml version="1.0" encoding="UTF-8" standalone="no"?>
<svg width="1643px" height="507px" viewBox="0 0 1643 507" version="1.1" xmlns="http://www.w3.org/2000/svg" xmlns:xlink="http://www.w3.org/1999/xlink">
    <!-- Generator: Sketch 3.6.1 (26313) - http://www.bohemiancoding.com/sketch -->
    <title>Chargebee</title>
    <desc>Created with Sketch.</desc>
    <defs></defs>
    <g id="Page-1" stroke="none" stroke-width="1" fill="none" fill-rule="evenodd" opacity="0.87">
        <g id="Chargebee" transform="translate(-1.000000, -1.000000)" fill="#000000">
            <g id="logotype">
                <path d="M1634.85149,258.534653 C1626.23366,252.958416 1615.08119,254.986139 1608.99802,263.60396 C1607.98416,265.124752 1585.67921,297.568317 1546.64554,297.568317 C1531.43762,297.568317 1519.77822,293.005941 1512.17426,283.374257 C1511.66733,282.867327 1511.1604,281.853465 1510.65347,281.346535 C1510.65347,281.346535 1511.1604,281.346535 1511.1604,280.839604 C1603.42178,228.118812 1602.40792,183.00198 1598.35248,166.273267 C1592.77624,145.99604 1575.03366,132.815842 1552.22178,132.815842 C1499.50099,132.815842 1464.52277,191.619802 1464.52277,246.368317 C1464.52277,253.465347 1465.0297,260.055446 1466.04356,266.645545 C1447.28713,280.332673 1418.39208,297.568317 1393.04554,297.568317 C1378.34455,297.568317 1367.19208,293.005941 1360.09505,284.388119 C1357.5604,281.346535 1355.53267,277.79802 1354.01188,274.249505 C1424.47525,253.972277 1451.34257,208.855446 1446.27327,172.863366 C1443.23168,149.544554 1425.48911,132.815842 1403.69109,132.815842 C1354.51881,132.815842 1319.03366,184.522772 1313.45743,235.215842 C1303.82574,234.20198 1295.71485,231.667327 1288.11089,226.59802 C1289.12475,218.487129 1290.13861,210.376238 1290.13861,202.772277 C1290.13861,186.043564 1287.09703,171.849505 1281.01386,160.69703 C1272.90297,145.99604 1259.21584,137.885149 1243.50099,137.885149 C1234.88317,137.885149 1227.27921,142.447525 1222.71683,150.558416 C1213.59208,167.287129 1219.67525,199.730693 1236.40396,225.584158 C1239.44554,230.653465 1242.99406,235.215842 1247.0495,239.778218 C1237.92475,269.180198 1218.66139,297.061386 1194.32871,297.061386 C1183.17624,297.061386 1175.06535,293.512871 1167.96832,286.415842 C1158.33663,275.770297 1151.74653,257.013861 1149.71881,233.188119 C1218.66139,147.009901 1252.62574,62.3524752 1233.36238,22.3049505 C1226.77228,8.61782178 1214.60594,1.01386139 1199.90495,1.01386139 C1152.25347,1.01386139 1123.86535,62.8594059 1112.71287,190.09901 C1112.20594,197.70297 1111.69901,207.334653 1111.69901,217.473267 C1086.35248,251.944554 1044.27723,297.061386 1006.76436,297.061386 C996.118812,297.061386 988.007921,293.512871 982.938614,285.908911 C982.431683,285.40198 981.924752,284.388119 981.417822,283.881188 C981.924752,283.881188 982.431683,283.374257 982.938614,282.867327 C1075.70693,223.049505 1074.18614,177.932673 1069.62376,161.710891 C1064.55446,143.968317 1048.33267,132.308911 1027.54851,132.308911 C973.813861,132.308911 937.314851,194.154455 937.314851,251.944554 C937.314851,257.013861 937.821782,262.083168 938.328713,267.152475 C921.093069,279.318812 907.405941,290.471287 893.718812,301.116832 C895.746535,285.40198 898.788119,265.124752 902.336634,235.215842 L902.336634,235.215842 C903.350495,229.132673 903.857426,224.063366 904.364356,221.528713 C907.405941,199.730693 871.413861,195.168317 867.358416,219.50099 C863.30297,244.847525 852.657426,297.061386 822.748515,297.061386 C805.005941,297.061386 795.374257,277.291089 797.40198,248.39604 C799.936634,202.772277 824.776238,165.766337 855.192079,165.766337 C865.837624,165.766337 870.906931,176.918812 870.906931,176.918812 C880.538614,194.154455 910.447525,179.453465 903.857426,161.20396 C900.815842,153.093069 891.184158,132.308911 856.205941,132.308911 C785.235644,132.308911 762.930693,204.293069 759.889109,251.944554 C759.382178,259.548515 759.382178,267.152475 760.39604,274.756436 C750.257426,286.922772 738.59802,297.061386 726.938614,297.061386 C715.786139,297.061386 708.689109,284.388119 712.744554,255.493069 C716.8,227.611881 719.841584,204.8 721.362376,191.619802 C729.980198,131.29505 654.447525,132.815842 654.447525,132.815842 C654.447525,132.815842 653.433663,97.3306931 624.538614,97.3306931 C609.837624,97.3306931 596.150495,108.990099 596.150495,130.788119 C596.150495,151.065347 612.879208,161.20396 612.879208,161.20396 L612.879208,161.20396 C609.330693,192.633663 594.629703,297.061386 561.679208,297.061386 C546.978218,297.061386 545.964356,281.346535 547.485149,270.194059 C549.512871,254.986139 552.047525,228.625743 553.061386,222.035644 C556.10297,200.237624 520.110891,195.675248 516.055446,220.007921 C512,245.354455 501.354455,297.568317 471.445545,297.568317 C453.70297,297.568317 444.071287,275.263366 445.592079,247.889109 C448.126733,201.758416 472.966337,166.273267 503.382178,166.273267 C514.027723,166.273267 519.09703,177.425743 519.09703,177.425743 C527.207921,194.661386 558.130693,182.49505 552.047525,161.710891 C549.512871,152.586139 539.374257,132.815842 504.39604,132.815842 C433.425743,132.815842 411.120792,204.8 408.079208,252.451485 C407.572277,260.055446 407.572277,267.152475 408.079208,273.742574 C397.940594,287.429703 385.774257,297.568317 374.114851,297.568317 C363.469307,297.568317 355.358416,291.992079 357.386139,268.166337 C358.4,257.013861 371.073267,180.467327 370.566337,166.780198 C369.045545,143.461386 358.4,133.322772 332.546535,133.322772 C305.172277,133.322772 284.89505,147.516832 276.277228,156.134653 C276.277228,156.134653 288.950495,59.8178218 291.485149,41.0613861 C294.019802,21.7980198 256.506931,21.2910891 254.479208,41.0613861 C253.465347,49.6792079 243.326733,125.718812 234.20198,196.689109 C212.910891,243.326733 170.835644,314.29703 108.483168,314.29703 C-9.63168317,314.29703 44.609901,56.7762376 155.627723,56.7762376 C181.481188,56.7762376 169.821782,98.3445545 152.586139,123.184158 C140.419802,141.433663 171.342574,161.710891 188.578218,132.815842 C236.229703,52.2138614 196.182178,22.3049505 158.162376,22.3049505 C-6.08316832,22.3049505 -66.9148515,349.782178 103.920792,349.782178 C160.190099,349.782178 198.209901,318.352475 222.542574,283.881188 C220.007921,303.144554 218.487129,316.324752 217.980198,318.859406 C214.938614,339.136634 252.958416,337.615842 254.986139,320.380198 C256.506931,309.734653 262.083168,264.617822 266.645545,229.639604 C269.180198,209.869307 293.512871,173.370297 320.887129,173.370297 C327.477228,173.370297 331.532673,179.960396 331.025743,185.536634 C330.011881,192.126733 318.352475,277.79802 318.859406,290.471287 C320.887129,326.463366 346.740594,334.574257 371.073267,334.574257 C390.336634,334.574257 406.051485,325.449505 418.724752,311.255446 C427.342574,325.449505 440.522772,334.574257 458.772277,334.574257 C499.833663,334.574257 514.027723,305.172277 514.027723,305.172277 C514.027723,305.172277 519.09703,334.574257 554.582178,334.574257 C626.566337,334.574257 643.29505,209.362376 646.843564,167.287129 C650.89901,167.287129 676.245545,168.807921 680.807921,183.00198 C684.863366,196.689109 672.190099,240.285149 671.176238,285.40198 C670.669307,309.227723 679.287129,334.574257 716.8,334.574257 C739.611881,334.574257 757.861386,323.928713 770.534653,312.269307 C779.152475,325.956436 792.332673,334.574257 810.075248,334.574257 C830.352475,334.574257 844.039604,327.984158 852.657426,321.394059 C852.150495,325.449505 851.643564,328.99802 851.136634,333.053465 L851.136634,333.560396 C851.136634,333.053465 756.340594,401.489109 756.340594,465.869307 C756.340594,491.215842 768,507.437624 797.908911,507.437624 C857.219802,507.437624 875.976238,427.849505 884.594059,362.455446 C885.10099,359.413861 885.607921,356.372277 885.607921,353.837624 C894.732673,346.740594 903.350495,340.150495 911.968317,333.560396 C924.134653,323.928713 936.30099,314.80396 949.988119,304.665347 C950.49505,305.679208 951.508911,306.693069 952.015842,307.706931 C964.689109,324.942574 983.445545,334.067327 1006.25743,334.067327 C1049.34653,334.067327 1089.39406,301.116832 1117.78218,268.673267 C1122.34455,284.388119 1128.93465,299.59604 1140.08713,311.762376 C1153.77426,326.463366 1172.53069,334.574257 1193.82178,334.574257 C1234.88317,334.574257 1263.27129,301.623762 1278.47921,263.60396 C1289.63168,268.673267 1302.30495,271.714851 1315.48515,272.728713 C1318.52673,285.908911 1323.59604,298.075248 1331.70693,307.706931 C1341.84554,319.873267 1360.60198,334.574257 1393.55248,334.574257 C1426.50297,334.574257 1458.94653,316.831683 1480.74455,302.130693 C1481.75842,303.651485 1482.77228,305.172277 1483.78614,306.693069 C1493.92475,319.366337 1513.69505,334.574257 1547.15248,334.574257 C1606.46337,334.574257 1639.41386,285.908911 1640.93465,283.881188 C1645.49703,275.770297 1642.96238,264.110891 1634.85149,258.534653 L1634.85149,258.534653 Z M802.471287,471.445545 C796.89505,471.445545 792.839604,467.89703 792.839604,460.8 C792.839604,428.356436 843.025743,384.253465 843.532673,384.253465 C837.449505,427.849505 819.706931,471.445545 802.471287,471.445545 L802.471287,471.445545 Z M1026.53465,167.287129 C1031.09703,167.287129 1032.11089,170.835644 1033.12475,172.863366 C1035.15248,179.960396 1028.05545,206.827723 973.813861,244.340594 C976.855446,208.855446 998.653465,167.287129 1026.53465,167.287129 L1026.53465,167.287129 Z M1198.89109,39.0336634 C1214.60594,39.0336634 1201.93267,92.7683168 1151.74653,167.794059 C1163.40594,67.9287129 1179.62772,39.0336634 1198.89109,39.0336634 L1198.89109,39.0336634 Z M1399.63564,167.287129 C1407.74653,167.287129 1408.25347,175.39802 1408.7604,178.439604 C1410.78812,193.647525 1396.59406,221.021782 1349.95644,236.736634 C1355.02574,203.786139 1376.82376,167.287129 1399.63564,167.287129 L1399.63564,167.287129 Z M1551.71485,167.287129 C1557.29109,167.287129 1560.33267,171.342574 1561.85347,176.411881 C1564.89505,187.057426 1550.70099,213.924752 1501.02178,244.340594 C1502.03564,208.855446 1523.32673,167.287129 1551.71485,167.287129 L1551.71485,167.287129 Z" id="Shape"></path>
            </g>
        </g>
    </g>
</svg>