<?xml version="1.0" encoding="utf-8"?>
<!-- Generator: Adobe Illustrator 18.1.1, SVG Export Plug-In . SVG Version: 6.00 Build 0)  -->
<svg version="1.1" id="svg17038" xmlns:svg="http://www.w3.org/2000/svg"
	 xmlns="http://www.w3.org/2000/svg" xmlns:xlink="http://www.w3.org/1999/xlink" x="0px" y="0px" viewBox="-98.5 223.8 2754.9 512"
	 enable-background="new -98.5 223.8 2754.9 512" xml:space="preserve">
<g id="layer1" transform="translate(620.34041,-56.426733)">
	<g id="logotype" transform="translate(0.4494891,0.3945659)">
		<g id="g17202">
			<g id="logo">
				<path id="logo-ne" fill="#117ACA" d="M1706.7,279.8c-10,0-18.1,8.1-18.1,18.1v126.7h334.8l-152.5-144.8L1706.7,279.8"/>
				<path id="logo-se" fill="#117ACA" d="M2035.6,462.9c0-10-8-18.1-18.1-18.1h-126.7v334.8l144.7-152.5L2035.6,462.9"/>
				<path id="logo-sw" fill="#117ACA" d="M1852.4,791.8c10,0,18.1-8.1,18.1-18.1V647h-334.8l152.5,144.8L1852.4,791.8"/>
				<path id="logo-nw" fill="#117ACA" d="M1523.5,608.7c0,10,8.1,18.1,18.1,18.1h126.7V292l-144.8,152.5L1523.5,608.7"/>
			</g>
			<g id="type">
				<path id="H" fill="#211E1E" d="M-11,340.9v154.6h-215.4V340.9l-78.5-0.1v389.8h78.5V563.2H-11v167.5h78.6V340.9H-11"/>
				<path id="E" fill="#211E1E" d="M1032.6,340.9v389.7h344.2l-43.6-68.6h-221.9v-98.8h214.9v-66.1h-214.9v-89.2h221.5l42.7-67
					H1032.6"/>
				<path id="C" fill="#211E1E" d="M-596.5,340.8c-81.6,0-122.8,49.6-122.8,121.8v145.5c0,83.5,53.1,122.5,122.4,122.5l246.1,0
					l-45.6-71.3h-185.3c-39.4,0-56.5-14.2-56.5-58.3v-132c0-42.6,14.4-59.2,57.6-59.2h186.2l43.8-69.1H-596.5"/>
				<path id="S" fill="#211E1E" d="M688.4,340.7c-47.1,0-95.4,28.3-95.4,101.2v18.7c0,76,46.5,104.9,93,105.1h163.2
					c17,0,30.7,2.8,30.7,31.5l0,33.1c-0.4,25.7-13.3,31.6-31.3,31.6H633.8l-44,68.6h263.8c63.6,0,106.8-31.6,106.8-104.7V599
					c0-70.7-40.1-104.1-102.3-104.1H702.2c-17.3,0-29.3-4.7-29.3-30.3v-27c0-21.8,8.3-29.7,28.4-29.7l204.5-0.1l42.7-67.2
					L688.4,340.7"/>
				<path id="A" fill="#211E1E" d="M295.5,340.9L110.7,730.7H198l36-80.5h200.9l35.9,80.5h87.7L373.2,340.9H295.5z M334.3,421.8
					l71,162H263.7L334.3,421.8"/>
			</g>
		</g>
	</g>
</g>
</svg>
