<?xml version="1.0" encoding="UTF-8" standalone="no"?>
<svg width="1650px" height="507px" viewBox="0 0 1650 507" version="1.1" xmlns="http://www.w3.org/2000/svg" xmlns:xlink="http://www.w3.org/1999/xlink">
    <!-- Generator: Sketch 3.6.1 (26313) - http://www.bohemiancoding.com/sketch -->
    <title>ChatGrape</title>
    <desc>Created with Sketch.</desc>
    <defs>
        <linearGradient x1="50%" y1="0%" x2="50%" y2="78.3318015%" id="linearGradient-1">
            <stop stop-color="#00C4FF" offset="0%"></stop>
            <stop stop-color="#007FFF" offset="100%"></stop>
        </linearGradient>
    </defs>
    <g id="Page-1" stroke="none" stroke-width="1" fill="none" fill-rule="evenodd">
        <g id="ChatGrape">
            <g id="Page-1">
                <g id="Artboard-12">
                    <g id="Grape-Logo">
                        <g id="Symbol" fill="url(#linearGradient-1)">
                            <path d="M175.954263,111.360377 C165.915877,112.056961 148.237469,109.916103 126.617239,92.9986159 C92.5345903,66.3266085 96.2055213,38.9212467 96.992334,34.4590008 C97.7601664,30.1043984 129.644794,23.7109787 162.859667,48.1918055 C157.655742,61.2022388 157.574717,73.2366443 158.763295,81.9486625 C159.720936,66.1184314 166.63444,45.6906405 190.474206,27.3371179 C238.117307,-9.34044098 284.740535,-0.449147867 285.817391,5.65801352 C286.894246,11.765175 291.888633,49.2782084 244.248343,85.9575333 C214.439072,108.905899 190.042105,112.148369 175.954263,111.360377 L175.954263,111.360377 Z M238.483971,240.437278 C251.165169,253.941652 268.52396,262.936387 287.946067,264.786037 C292.689175,272.910818 295.4096,282.379527 295.4096,292.48877 C295.4096,322.697793 271.117061,347.187046 241.150694,347.187046 C211.184328,347.187046 186.891788,322.697793 186.891788,292.48877 C186.891788,281.999838 189.820402,272.200459 194.898277,263.876296 C203.26474,262.351404 211.169168,259.487729 218.385383,255.51328 C225.873761,251.588919 232.654499,246.481718 238.483971,240.437278 L238.483971,240.437278 Z M247.179461,141.049769 C259.328879,127.226287 277.071351,118.512931 296.832589,118.512931 C333.458148,118.512931 363.14903,148.44424 363.14903,185.366379 C363.14903,222.288519 333.458148,252.219828 296.832589,252.219828 C277.071351,252.219828 259.328879,243.506472 247.179461,229.68299 C250.65508,224.520904 253.540511,218.92227 255.738008,212.985627 C263.971067,227.359084 279.332687,237.025862 296.924159,237.025862 C317.914,237.025862 335.729234,223.263415 342.048344,204.164322 C331.143344,216.915689 315.037677,224.98227 297.071279,224.98227 C281.638694,224.98227 267.57901,219.030519 257.008983,209.270302 C259.38057,201.729411 260.659985,193.698517 260.659985,185.366379 C260.659985,168.941628 255.688383,153.68746 247.179461,141.049769 L247.179461,141.049769 Z M115.969568,229.68299 C103.82015,243.506472 86.0776787,252.219828 66.3164408,252.219828 C29.6908819,252.219828 0,222.288519 0,185.366379 C0,148.44424 29.6908819,118.512931 66.3164408,118.512931 C86.0776787,118.512931 103.82015,127.226287 115.969568,141.049769 C107.460646,153.68746 102.489045,168.941628 102.489045,185.366379 C102.489045,193.82342 103.807106,201.970117 106.247437,209.609096 C95.7203716,219.168074 81.8083365,224.98227 66.5551306,224.98227 C48.3247087,224.98227 32.0101088,216.676864 21.1006857,203.599138 L21.1006857,203.599138 C27.2527417,222.991316 45.2116901,237.025862 66.4080111,237.025862 C83.9205137,237.025862 99.2231391,227.445679 107.482856,213.178913 C109.671256,219.043814 112.531693,224.576962 115.969568,229.68299 L115.969568,229.68299 Z M166.827764,263.876296 C171.90564,272.200459 174.834253,281.999838 174.834253,292.48877 C174.834253,322.697793 150.541713,347.187046 120.575347,347.187046 C90.6089806,347.187046 66.3164408,322.697793 66.3164408,292.48877 C66.3164408,282.379527 69.0368665,272.910818 73.7799742,264.786037 C93.3801728,262.919426 110.879042,253.776096 123.589731,240.064656 C134.86153,252.223919 149.898798,260.790781 166.827764,263.876296 L166.827764,263.876296 Z M232.849972,360.557022 C234.327936,365.533667 235.121927,370.808169 235.121927,376.269619 C235.121927,406.478642 210.829387,430.967895 180.863021,430.967895 C150.896654,430.967895 126.604115,406.478642 126.604115,376.269619 C126.604115,370.808169 127.398105,365.533667 128.876069,360.557022 C152.032296,357.64208 171.479546,342.691676 180.863021,322.112069 C190.246495,342.691676 209.693746,357.64208 232.849972,360.557022 L232.849972,360.557022 Z M143.844372,390.96834 C148.766017,406.834667 163.133176,418.317477 180.090233,418.317477 C196.882105,418.317477 211.134292,407.057293 216.18958,391.430763 C207.465581,401.8637 194.581047,408.463629 180.207928,408.463629 C165.62359,408.463629 152.571911,401.668298 143.844372,390.96834 L143.844372,390.96834 Z M84.4027429,307.682735 C89.3243875,323.549063 103.691546,335.031873 120.648603,335.031873 C137.440476,335.031873 151.692663,323.771688 156.747951,308.145158 C148.023952,318.578095 135.139418,325.178024 120.766299,325.178024 C106.181961,325.178024 93.1302813,318.382693 84.4027429,307.682735 L84.4027429,307.682735 L84.4027429,307.682735 Z M204.97809,307.682735 C209.899735,323.549063 224.266894,335.031873 241.22395,335.031873 C258.015823,335.031873 272.26801,323.771688 277.323298,308.145158 C268.599298,318.578095 255.714765,325.178024 241.341646,325.178024 C226.757309,325.178024 213.705628,318.382693 204.97809,307.682735 L204.97809,307.682735 L204.97809,307.682735 Z M180.863021,252.219828 C217.48858,252.219828 247.179461,222.288519 247.179461,185.366379 C247.179461,148.44424 217.48858,118.512931 180.863021,118.512931 C144.237461,118.512931 114.54658,148.44424 114.54658,185.366379 C114.54658,222.288519 144.237461,252.219828 180.863021,252.219828 L180.863021,252.219828 Z M135.647265,203.599138 C141.799321,222.991316 159.75827,237.025862 180.954591,237.025862 C201.944432,237.025862 219.759666,223.263415 226.078776,204.164322 C215.173776,216.915689 199.068109,224.98227 181.10171,224.98227 C162.871289,224.98227 146.556689,216.676864 135.647265,203.599138 L135.647265,203.599138 L135.647265,203.599138 Z" id="Oval-411-Copy-5"></path>
                        </g>
                        <g id="Text" transform="translate(433.454018, 136.432871)" fill="#111111">
                            <path d="M1160.20331,141.292665 C1160.18283,141.381262 1160.16221,141.469793 1160.14144,141.558258 L1214.80181,141.558258 C1215.70105,135.470639 1216.16745,129.235363 1216.16745,122.887212 C1216.16745,55.2880665 1163.28057,0.488131923 1098.04129,0.488131923 C1032.80201,0.488131923 979.915128,55.2880665 979.915128,122.887212 C979.915128,190.486357 1032.80201,245.286292 1098.04129,245.286292 C1129.76595,245.286292 1158.56965,232.327761 1179.79127,211.2404 L1141.72782,176.125297 C1130.26458,188.146774 1114.91239,195.496836 1098.04129,195.496836 C1068.18682,195.496836 1043.08861,172.481214 1035.87926,141.292665 L1160.20331,141.292665 L1160.20331,141.292665 Z M1158.92595,99.6530923 C1150.35325,70.9466318 1126.33293,50.2775882 1098.04129,50.2775882 C1069.74965,50.2775882 1045.72933,70.9466318 1037.15663,99.6530923 L1158.92595,99.6530923 L1158.92595,99.6530923 Z" id="Oval-79"></path>
                            <path d="M770.481957,21.6681934 C789.411778,8.3019615 812.285386,0.488131923 836.920303,0.488131923 C902.159579,0.488131923 955.046462,55.2880665 955.046462,122.887212 C955.046462,190.486357 902.159579,245.286292 836.920303,245.286292 C812.285386,245.286292 789.411778,237.472462 770.481957,224.106231 L770.481957,336.811028 L716.599849,336.811028 L716.599849,0 L770.481957,0 L770.481957,21.6681934 L770.481957,21.6681934 Z M836.920303,190.859582 C872.401313,190.859582 901.164354,160.208772 901.164354,122.39908 C901.164354,84.5893888 872.401313,53.9385778 836.920303,53.9385778 C801.439294,53.9385778 772.676253,84.5893888 772.676253,122.39908 C772.676253,160.208772 801.439294,190.859582 836.920303,190.859582 L836.920303,190.859582 Z" id="Oval-79-Copy"></path>
                            <path d="M632.96974,217.238156 C611.816915,234.757933 584.674399,245.286292 555.075431,245.286292 C487.547053,245.286292 432.804492,190.486357 432.804492,122.887212 C432.804492,55.2880665 487.547053,0.488131923 555.075431,0.488131923 C622.603805,0.488131923 677.346366,55.2880665 677.346366,122.887212 C677.346366,126.670829 677.174871,130.414348 676.839234,134.110406 L676.839234,239.184643 L632.972866,239.184643 L632.96974,217.238156 L632.96974,217.238156 Z M555.075431,191.347714 C592.845535,191.347714 623.464258,160.696903 623.464258,122.887212 C623.464258,85.0775205 592.845535,54.4267095 555.075431,54.4267095 C517.305323,54.4267095 486.6866,85.0775205 486.6866,122.887212 C486.6866,160.696903 517.305323,191.347714 555.075431,191.347714 L555.075431,191.347714 Z" id="Oval-79"></path>
                            <path d="M339.668902,38.6280743 C353.507884,21.8825056 370.936149,9.03044059 391.833312,9.03044059 C406.761901,9.03044059 420.986723,12.417421 433.932783,18.5450489 C421.096518,34.3148119 411.212305,52.5880853 405.123544,72.5205896 C404.438259,72.4986463 403.750228,72.4875908 403.059617,72.4875908 C376.296362,72.4875908 350.3889,85.6570492 339.668902,107.517614 L339.668902,239.184643 L284.567741,239.184643 L284.567741,9.76263849 L339.668902,9.76263849 L339.668902,38.6280743 L339.668902,38.6280743 Z" id="Oval-79-Copy-3"></path>
                            <path d="M197.448922,215.19556 C219.844143,231.48466 233.855169,254.738671 233.855169,280.553824 C233.855169,329.820997 182.823965,369.759933 119.873786,369.759933 C70.7423756,369.759933 28.8714144,345.431116 12.856036,311.326731 L63.9877999,286.670696 C65.4433069,307.525743 89.907641,324.119598 119.873786,324.119598 C150.776601,324.119598 175.828283,306.472161 175.828283,284.702945 C175.828283,263.184837 151.351212,245.693968 120.940816,245.293316 C120.941003,245.289343 120.94119,245.28537 120.941376,245.281397 C150.214246,245.012869 176.945029,233.71156 197.448922,215.19556 L197.448922,215.19556 Z M171.849897,12.942752 C176.733772,10.7978206 183.51057,8.71843287 192.913964,7.07723937 C226.591893,1.19936217 229.443143,7.07723933 246.289499,12.7457623 C246.289499,12.7457623 246.289501,45.8616564 246.289501,59.7348819 C246.289501,59.7348819 236.213766,57.847706 222.503654,62.2406986 C232.364547,80.118438 237.999946,100.820911 237.999946,122.887212 C237.999946,190.486357 185.113063,245.286292 119.873786,245.286292 C54.6345092,245.286292 1.74762565,190.486357 1.74762565,122.887212 C1.74762565,55.2880665 54.6345092,0.488131923 119.873786,0.488131923 C138.524367,0.488131923 156.165422,4.96677545 171.849897,12.942752 L171.849897,12.942752 Z M119.873786,191.347714 C155.354796,191.347714 184.117838,160.696903 184.117838,122.887212 C184.117838,85.0775205 155.354796,54.4267095 119.873786,54.4267095 C84.3927758,54.4267095 55.629734,85.0775205 55.629734,122.887212 C55.629734,160.696903 84.3927758,191.347714 119.873786,191.347714 L119.873786,191.347714 Z" id="Oval-79-Copy-5"></path>
                        </g>
                    </g>
                </g>
            </g>
        </g>
    </g>
</svg>