<?xml version="1.0" encoding="UTF-8" standalone="no"?>
<svg width="400px" height="123px" viewBox="0 0 400 123" version="1.1" xmlns="http://www.w3.org/2000/svg" xmlns:xlink="http://www.w3.org/1999/xlink" xmlns:sketch="http://www.bohemiancoding.com/sketch/ns">
    <!-- Generator: Sketch 3.4.2 (15857) - http://www.bohemiancoding.com/sketch -->
    <title>Grape Logo</title>
    <desc>Created with Sketch.</desc>
    <defs>
        <linearGradient x1="50%" y1="0%" x2="50%" y2="78.3318015%" id="linearGradient-1">
            <stop stop-color="#00C4FF" offset="0%"></stop>
            <stop stop-color="#007FFF" offset="100%"></stop>
        </linearGradient>
    </defs>
    <g id="Page-1" stroke="none" stroke-width="1" fill="none" fill-rule="evenodd" sketch:type="MSPage">
        <g id="Artboard-12" sketch:type="MSArtboardGroup" transform="translate(-115.000000, -213.000000)">
            <g id="Grape-Logo" sketch:type="MSLayerGroup" transform="translate(367.000000, 249.000000)">
                <g id="Text" transform="translate(0.470588, 0.882353)"></g>
            </g>
            <g id="Grape-Logo" sketch:type="MSLayerGroup" transform="translate(115.000000, 213.000000)">
                <g id="Symbol" fill="url(#linearGradient-1)" sketch:type="MSShapeGroup">
                    <path d="M42.6139231,26.9700913 C40.1827514,27.1387953 35.9012621,26.6203061 30.6651125,22.5231023 C22.4107211,16.0634755 23.2997747,9.42623944 23.4903309,8.34553926 C23.6762903,7.29090899 31.3983485,5.74250265 39.4425757,11.6714529 C38.1822501,14.8224172 38.1626268,17.7369998 38.4504856,19.8469417 C38.6824143,16.0130576 40.3567784,11.065702 46.1304718,6.62070824 C57.6690354,-2.26213805 68.9605984,-0.108777999 69.2213993,1.37030015 C69.4822001,2.84937831 70.6917783,11.9345661 59.1538956,20.8178401 C51.9344627,26.3756474 46.0258222,27.1609332 42.6139231,26.9700913 Z M57.7578367,58.2309032 C60.8290644,61.5014938 65.0331466,63.6799062 69.7369381,64.1278683 C70.8856595,66.0955887 71.5445126,68.3887916 71.5445126,70.8371239 C71.5445126,78.1533718 65.6611631,84.0843626 58.4036837,84.0843626 C51.1462044,84.0843626 45.2628549,78.1533718 45.2628549,70.8371239 C45.2628549,68.2968357 45.9721285,65.9235487 47.2019265,63.9075405 C49.2281792,63.5382307 51.1425329,62.8446843 52.89021,61.8821226 C54.7038015,60.9316913 56.3460115,59.6947911 57.7578367,58.2309032 Z M59.8637758,34.1604909 C62.806213,30.8126165 67.1032179,28.7023505 71.8891426,28.7023505 C80.7593952,28.7023505 87.9501556,35.9513393 87.9501556,44.89342 C87.9501556,53.8355008 80.7593952,61.0844896 71.8891426,61.0844896 C67.1032179,61.0844896 62.806213,58.9742236 59.8637758,55.6263492 C60.7055271,54.3761565 61.4043425,53.0202373 61.9365488,51.5824565 C63.9304929,55.0635282 67.6508852,57.404701 71.9113198,57.404701 C76.9947969,57.404701 81.3094238,54.0716082 82.8398333,49.4460467 C80.1987787,52.5342685 76.2981875,54.4878934 71.9469503,54.4878934 C68.2093712,54.4878934 64.8042914,53.0464538 62.244363,50.6826513 C62.8187317,48.8563417 63.1285901,46.9113596 63.1285901,44.89342 C63.1285901,40.9155506 61.9245303,37.2211816 59.8637758,34.1604909 Z M28.0863798,55.6263492 C25.1439426,58.9742236 20.8469378,61.0844896 16.061013,61.0844896 C7.19076047,61.0844896 0,53.8355008 0,44.89342 C0,35.9513393 7.19076047,28.7023505 16.061013,28.7023505 C20.8469378,28.7023505 25.1439426,30.8126165 28.0863798,34.1604909 C26.0256253,37.2211816 24.8215656,40.9155506 24.8215656,44.89342 C24.8215656,46.9416095 25.1407835,48.9146378 25.7318011,50.764703 C23.1822775,53.0797679 19.8129565,54.4878934 16.1188207,54.4878934 C11.7036404,54.4878934 7.75244823,52.4764281 5.11032233,49.3091663 L5.11032233,49.3091663 C6.60027337,54.0057094 10.9497062,57.404701 16.0831902,57.404701 C20.3244994,57.404701 24.030604,55.0845004 26.0310041,51.6292679 C26.5610074,53.0496738 27.2537695,54.3897329 28.0863798,55.6263492 Z M40.4035991,63.9075405 C41.6333971,65.9235487 42.3426707,68.2968357 42.3426707,70.8371239 C42.3426707,78.1533718 36.4593212,84.0843626 29.2018419,84.0843626 C21.9443625,84.0843626 16.061013,78.1533718 16.061013,70.8371239 C16.061013,68.3887916 16.7198661,66.0955887 17.8685875,64.1278683 C22.6155106,63.6757986 26.8535181,61.4613983 29.9318879,58.1406588 C32.6617769,61.0854805 36.3036152,63.1602673 40.4035991,63.9075405 Z M56.3933527,87.3224038 C56.751297,88.527685 56.9435916,89.8051034 56.9435916,91.1277983 C56.9435916,98.4440462 51.0602422,104.375037 43.8027628,104.375037 C36.5452834,104.375037 30.661934,98.4440462 30.661934,91.1277983 C30.661934,89.8051034 30.8542286,88.527685 31.2121729,87.3224038 C36.8203216,86.6164412 41.5302025,82.9956404 43.8027628,78.0115168 C46.0753231,82.9956404 50.785204,86.6164412 56.3933527,87.3224038 Z M34.8373088,94.6876449 C36.0292697,98.530271 39.508816,101.311264 43.6156032,101.311264 C47.6823848,101.311264 51.1340863,98.5841882 52.358414,94.7996379 C50.2455703,97.3263649 47.1250973,98.9247852 43.6441076,98.9247852 C40.1119633,98.9247852 36.9510096,97.2790409 34.8373088,94.6876449 Z M20.4412893,74.5169125 C21.6332501,78.3595386 25.1127964,81.1405318 29.2195836,81.1405318 C33.2863653,81.1405318 36.7380668,78.4134558 37.9623944,74.6289055 C35.8495508,77.1556325 32.7290778,78.7540528 29.248088,78.7540528 C25.7159438,78.7540528 22.55499,77.1083085 20.4412893,74.5169125 L20.4412893,74.5169125 Z M49.6431312,74.5169125 C50.835092,78.3595386 54.3146383,81.1405318 58.4214255,81.1405318 C62.4882072,81.1405318 65.9399087,78.4134558 67.1642363,74.6289055 C65.0513926,77.1556325 61.9309196,78.7540528 58.4499299,78.7540528 C54.9177857,78.7540528 51.7568319,77.1083085 49.6431312,74.5169125 L49.6431312,74.5169125 Z M43.8027628,61.0844896 C52.6730154,61.0844896 59.8637758,53.8355008 59.8637758,44.89342 C59.8637758,35.9513393 52.6730154,28.7023505 43.8027628,28.7023505 C34.9325102,28.7023505 27.7417498,35.9513393 27.7417498,44.89342 C27.7417498,53.8355008 34.9325102,61.0844896 43.8027628,61.0844896 Z M32.8520721,49.3091663 C34.3420231,54.0057094 38.691456,57.404701 43.82494,57.404701 C48.9084171,57.404701 53.223044,54.0716082 54.7534535,49.4460467 C52.1123989,52.5342685 48.2118077,54.4878934 43.8605705,54.4878934 C39.4453902,54.4878934 35.494198,52.4764281 32.8520721,49.3091663 L32.8520721,49.3091663 Z" id="Oval-411-Copy-5"></path>
                </g>
                <g id="Text" transform="translate(104.977145, 33.042336)" fill="#111111" sketch:type="MSShapeGroup">
                    <path d="M280.98674,34.2193174 C280.98178,34.2407745 280.976785,34.2622156 280.971756,34.2836406 L294.209814,34.2836406 C294.427598,32.8092955 294.540554,31.2991895 294.540554,29.7617467 C294.540554,13.3900786 281.732012,0.11821945 265.931875,0.11821945 C250.131737,0.11821945 237.323195,13.3900786 237.323195,29.7617467 C237.323195,46.1334147 250.131737,59.4052739 265.931875,59.4052739 C273.615191,59.4052739 280.591086,56.2668795 285.730699,51.1597844 L276.512207,42.6553453 C273.735953,45.5667969 270.017844,47.3468899 265.931875,47.3468899 C258.701496,47.3468899 252.623022,41.772794 250.877009,34.2193174 L280.98674,34.2193174 Z M280.677378,24.1347333 C278.601177,17.1823874 272.783756,12.1766034 265.931875,12.1766034 C259.079993,12.1766034 253.262572,17.1823874 251.186372,24.1347333 L280.677378,24.1347333 Z" id="Oval-79"></path>
                    <path d="M186.601099,5.24776558 C191.185665,2.0106313 196.725367,0.11821945 202.691636,0.11821945 C218.491773,0.11821945 231.300315,13.3900786 231.300315,29.7617467 C231.300315,46.1334147 218.491773,59.4052739 202.691636,59.4052739 C196.725367,59.4052739 191.185665,57.512862 186.601099,54.2757277 L186.601099,81.5714208 L173.551526,81.5714208 L173.551526,0 L186.601099,0 L186.601099,5.24776558 Z M202.691636,46.2238051 C211.284693,46.2238051 218.250742,38.8005619 218.250742,29.6435272 C218.250742,20.4864926 211.284693,13.0632493 202.691636,13.0632493 C194.098579,13.0632493 187.13253,20.4864926 187.13253,29.6435272 C187.13253,38.8005619 194.098579,46.2238051 202.691636,46.2238051 Z" id="Oval-79-Copy"></path>
                    <path d="M153.297359,52.6123658 C148.174409,56.8554369 141.600831,59.4052739 134.432331,59.4052739 C118.077802,59.4052739 104.819838,46.1334147 104.819838,29.7617467 C104.819838,13.3900786 118.077802,0.11821945 134.432331,0.11821945 C150.786859,0.11821945 164.044823,13.3900786 164.044823,29.7617467 C164.044823,30.6780914 164.003289,31.584725 163.922002,32.479864 L163.922002,57.9275307 L153.298116,57.9275307 L153.297359,52.6123658 Z M134.432331,46.3420246 C143.579778,46.3420246 150.99525,38.9187813 150.99525,29.7617467 C150.99525,20.604712 143.579778,13.1814687 134.432331,13.1814687 C125.284883,13.1814687 117.869411,20.604712 117.869411,29.7617467 C117.869411,38.9187813 125.284883,46.3420246 134.432331,46.3420246 Z" id="Oval-79"></path>
                    <path d="M82.2635621,9.35523674 C85.6151907,5.29966933 89.8360987,2.18705983 94.8971303,2.18705983 C98.5126478,2.18705983 101.957722,3.00734414 105.093096,4.49137903 C101.984313,8.3106185 99.5904801,12.7361769 98.1158582,17.5635803 C97.9498908,17.5582659 97.7832583,17.5555884 97.616001,17.5555884 C91.1342752,17.5555884 84.8598118,20.7450666 82.2635621,26.0394222 L82.2635621,57.9275307 L68.9187498,57.9275307 L68.9187498,2.36438901 L82.2635621,2.36438901 L82.2635621,9.35523674 Z" id="Oval-79-Copy-3"></path>
                    <path d="M47.8196609,52.1176747 C53.2435035,56.0626912 56.6367987,61.6945218 56.6367987,67.9466292 C56.6367987,79.8785228 44.2776791,89.5512337 29.0319325,89.5512337 C17.1329191,89.5512337 6.99229568,83.6590983 3.11357121,75.3994426 L15.4970453,69.4280591 C15.8495509,74.4788908 21.7745068,78.4977151 29.0319325,78.4977151 C36.5162081,78.4977151 42.5834123,74.2237266 42.5834123,68.9514945 C42.5834123,63.7400778 36.6553717,59.5040079 29.2903539,59.4069749 C29.2903992,59.4060127 29.2904444,59.4050506 29.2904896,59.4040884 C36.3800128,59.3390542 42.8538742,56.6020184 47.8196609,52.1176747 Z M41.619897,3.13457275 C42.8027103,2.61509717 44.4439661,2.11149546 46.7213507,1.71401891 C54.877724,0.290470525 55.5682612,1.7140189 59.6482381,3.08686431 C59.6482381,3.08686431 59.6482386,11.1071199 59.6482386,14.4670417 C59.6482386,14.4670417 57.2080215,14.0099913 53.8876038,15.0739192 C56.2757888,19.4036842 57.640612,24.4175643 57.640612,29.7617467 C57.640612,46.1334147 44.8320699,59.4052739 29.0319325,59.4052739 C13.2317952,59.4052739 0.423253086,46.1334147 0.423253086,29.7617467 C0.423253086,13.3900786 13.2317952,0.11821945 29.0319325,0.11821945 C33.5488701,0.11821945 37.8213131,1.20289093 41.619897,3.13457275 Z M29.0319325,46.3420246 C37.6249897,46.3420246 44.5910389,38.9187813 44.5910389,29.7617467 C44.5910389,20.604712 37.6249897,13.1814687 29.0319325,13.1814687 C20.4388754,13.1814687 13.4728262,20.604712 13.4728262,29.7617467 C13.4728262,38.9187813 20.4388754,46.3420246 29.0319325,46.3420246 Z" id="Oval-79-Copy-5"></path>
                </g>
            </g>
        </g>
    </g>
</svg>