<?xml version="1.0" encoding="utf-8"?>
<!-- Generator: Adobe Illustrator 18.1.1, SVG Export Plug-In . SVG Version: 6.00 Build 0)  -->
<svg version="1.1"
	 id="Layer_1" xmlns:dc="http://purl.org/dc/elements/1.1/" xmlns:cc="http://creativecommons.org/ns#" xmlns:rdf="http://www.w3.org/1999/02/22-rdf-syntax-ns#"
	 xmlns="http://www.w3.org/2000/svg" xmlns:xlink="http://www.w3.org/1999/xlink" x="0px" y="0px" viewBox="-99 348 793.7 512"
	 enable-background="new -99 348 793.7 512" xml:space="preserve">
<g transform="matrix(2.4760713,0,0,2.4760713,-2.9521334,-2.9521466)">
	<path fill="#003B70" d="M58.8,308.6l-0.6,0.6c-9.2,9.4-19.9,14.4-31,14.4c-23,0-39.7-17.3-39.7-41.1c0-23.8,16.7-41.1,39.7-41.1
		c11,0,21.7,5,31,14.5l0.6,0.6l14.8-17.9l-0.4-0.5c-12.3-14.5-27.1-21.6-45.2-21.6c-18.2,0-34.9,6.1-46.9,17.2
		c-13,12-19.9,28.9-19.9,48.8c0,20,6.9,36.9,19.9,48.9c12,11.1,28.6,17.2,46.9,17.2c18.2,0,32.9-7.1,45.2-21.6l0.4-0.5L58.8,308.6z"
		/>
	<path fill="#003B70" d="M88.6,346.1h26.1V218.5H88.6V346.1z"/>
	<path fill="#003B70" d="M217.1,318.3c-7,4.2-13.5,6.4-19.3,6.4c-8.4,0-12.3-4.5-12.3-14.4v-67.7h26.6v-24h-26.6v-39.7l-25.6,13.7
		v26h-22.1v24h22.1v72c0,19.6,11.6,33,29,33.4c11.8,0.2,18.9-3.3,23.2-5.8l0.3-0.2l6.3-24.6L217.1,318.3L217.1,318.3z"/>
	<path fill="#003B70" d="M238.7,346.1h26.2V218.5h-26.2V346.1z"/>
	<path fill="#D9261C" d="M280.5,195.8c-23.9-33.9-63.7-54.1-104.1-54.1c-40.4,0-80.2,20.2-104,54.1l-1.2,1.7h30.1l0.3-0.4
		c20.5-21.2,47.3-32.4,74.8-32.4c27.5,0,54.3,11.2,74.8,32.4l0.3,0.4h30.1L280.5,195.8L280.5,195.8z"/>
</g>
</svg>
