<?xml version="1.0" encoding="UTF-8" standalone="no"?>
<svg width="1164px" height="503px" viewBox="0 0 1164 503" version="1.1" xmlns="http://www.w3.org/2000/svg" xmlns:xlink="http://www.w3.org/1999/xlink">
    <!-- Generator: Sketch 3.6.1 (26313) - http://www.bohemiancoding.com/sketch -->
    <title>clico</title>
    <desc>Created with Sketch.</desc>
    <defs></defs>
    <g id="Page-1" stroke="none" stroke-width="1" fill="none" fill-rule="evenodd">
        <g id="clico" transform="translate(-1.000000, -4.000000)" fill="#673694">
            <g id="Group">
                <g>
                    <path d="M211.069388,416.914286 C199.57551,423.183673 186.514286,426.318367 171.363265,426.318367 C158.82449,426.318367 147.853061,424.228571 137.926531,419.526531 C128,414.82449 119.640816,408.555102 112.326531,400.718367 C105.012245,392.881633 99.7877551,383.477551 96.1306122,372.506122 C92.4734694,361.534694 90.3836735,350.040816 90.3836735,338.02449 L90.3836735,336.979592 C90.3836735,324.963265 92.4734694,313.991837 96.1306122,303.542857 C99.7877551,293.093878 105.012245,283.689796 112.326531,275.853061 C119.118367,268.016327 127.477551,261.746939 136.881633,257.044898 C146.285714,252.342857 156.734694,250.253061 168.228571,250.253061 C184.42449,250.253061 198.008163,253.387755 208.979592,259.657143 C219.95102,265.926531 230.4,274.808163 240.84898,285.257143 L296.228571,225.697959 C281.077551,208.979592 263.836735,195.918367 243.983673,186.514286 C224.130612,177.110204 199.053061,172.408163 168.75102,172.408163 C144.195918,172.408163 121.730612,176.587755 100.832653,185.469388 C80.4571429,194.35102 62.6938776,206.367347 48.0653061,220.995918 C33.4367347,236.146939 21.9428571,253.910204 13.5836735,274.285714 C5.2244898,294.661224 1.04489796,316.081633 1.04489796,338.546939 L1.04489796,339.591837 C1.04489796,362.057143 5.2244898,383.477551 13.5836735,403.853061 C21.9428571,423.706122 33.4367347,441.469388 48.0653061,456.097959 C62.6938776,471.24898 80.4571429,482.742857 100.832653,491.62449 C121.208163,500.506122 143.673469,504.685714 167.183673,504.685714 C199.053061,504.685714 224.653061,499.461224 244.506122,488.489796 C264.359184,477.518367 282.122449,463.412245 297.795918,446.693878 L244.506122,391.836735 C233.534694,402.285714 222.040816,410.644898 211.069388,416.914286 L211.069388,416.914286 Z" id="Shape"></path>
                    <rect id="Rectangle-path" x="318.171429" y="61.6489796" width="90.3836735" height="435.2"></rect>
                    <rect id="Rectangle-path" x="438.857143" y="177.632653" width="90.3836735" height="319.738776"></rect>
                    <path d="M1123.26531,340.114286 C1123.26531,317.126531 1119.08571,295.706122 1110.20408,275.330612 C1101.32245,255.477551 1089.30612,237.714286 1074.1551,223.085714 C1059.00408,207.934694 1040.71837,196.440816 1019.82041,188.081633 C998.922449,179.722449 975.934694,175.020408 951.379592,175.020408 C926.302041,175.020408 903.314286,179.2 882.416327,188.081633 C861.518367,196.963265 843.232653,208.979592 827.559184,223.608163 C811.885714,238.759184 799.869388,256.522449 790.987755,276.37551 C784.195918,292.04898 780.016327,308.244898 778.44898,326.008163 C777.926531,331.232653 777.926531,335.934694 777.926531,341.159184 L777.926531,342.204082 C777.926531,363.62449 782.106122,384 789.420408,402.808163 C783.15102,407.510204 776.881633,411.689796 770.612245,415.346939 C759.118367,421.616327 746.057143,424.75102 730.906122,424.75102 C718.367347,424.75102 707.395918,422.661224 697.469388,417.959184 C687.542857,413.257143 679.183673,406.987755 671.869388,399.15102 C664.555102,391.314286 659.330612,381.910204 655.673469,370.938776 C652.016327,360.489796 649.926531,349.518367 649.926531,337.502041 C649.926531,325.485714 652.016327,314.514286 655.673469,304.065306 C659.330612,293.093878 665.077551,284.212245 671.869388,275.853061 C679.183673,268.016327 687.542857,261.746939 697.469388,257.044898 C707.395918,252.342857 718.367347,250.253061 730.906122,250.253061 C746.057143,250.253061 759.118367,253.387755 770.612245,259.657143 L770.612245,259.657143 C780.538776,239.281633 793.077551,221.518367 809.273469,205.844898 C812.408163,202.710204 815.542857,200.097959 818.677551,197.485714 C813.97551,194.35102 809.273469,191.738776 804.04898,188.604082 C784.195918,177.632653 758.073469,172.408163 726.726531,172.408163 C702.693878,172.408163 680.75102,177.110204 660.37551,185.469388 C640,194.35102 622.236735,206.367347 607.608163,220.995918 C592.979592,236.146939 581.485714,253.387755 573.126531,273.763265 C564.767347,293.616327 561.110204,314.514286 560.587755,336.457143 L560.587755,336.457143 L560.587755,337.502041 L560.587755,337.502041 L560.587755,337.502041 L560.587755,338.546939 L560.587755,338.546939 C560.587755,360.489796 564.767347,381.387755 573.126531,401.240816 C581.485714,421.093878 592.979592,438.857143 607.608163,453.485714 C622.236735,468.114286 640,480.130612 660.37551,489.012245 C680.75102,497.893878 703.216327,502.073469 726.726531,502.073469 C758.595918,502.073469 784.195918,496.326531 804.04898,485.355102 C814.497959,479.608163 824.42449,472.816327 833.828571,464.979592 C847.412245,476.995918 863.085714,486.4 880.84898,493.714286 C901.746939,502.073469 924.734694,506.77551 949.289796,506.77551 C974.367347,506.77551 997.355102,502.595918 1018.25306,493.714286 C1039.15102,484.832653 1057.43673,472.816327 1073.1102,458.187755 C1088.78367,443.036735 1100.8,425.273469 1109.68163,405.420408 C1112.29388,399.673469 1114.38367,393.926531 1115.95102,388.179592 C1120.65306,373.028571 1122.74286,357.355102 1122.74286,340.636735 L1122.74286,340.114286 L1123.26531,340.114286 Z M1033.40408,342.204082 C1033.40408,354.220408 1031.31429,365.191837 1027.65714,375.640816 C1024,386.089796 1018.25306,395.493878 1011.46122,403.330612 C1004.14694,411.167347 995.787755,417.436735 985.338776,422.138776 C975.412245,426.840816 963.395918,428.930612 950.334694,428.930612 C937.795918,428.930612 926.302041,426.318367 915.853061,421.616327 C905.926531,416.914286 897.044898,410.644898 889.208163,402.285714 C881.893878,393.926531 875.62449,385.044898 871.967347,374.073469 C867.787755,363.62449 866.220408,352.130612 866.220408,340.636735 L866.220408,339.591837 C866.220408,327.57551 868.310204,316.604082 871.967347,306.155102 C875.62449,295.706122 881.371429,286.302041 888.163265,278.465306 C895.477551,270.628571 903.836735,264.359184 914.285714,259.657143 C924.212245,254.955102 936.228571,252.865306 949.289796,252.865306 C961.828571,252.865306 972.8,255.477551 983.24898,260.179592 C993.697959,264.881633 1002.57959,271.673469 1009.89388,279.510204 C1017.20816,287.869388 1022.9551,296.75102 1027.13469,307.722449 C1031.31429,318.171429 1032.88163,329.665306 1032.88163,341.159184 L1032.88163,342.204082 L1033.40408,342.204082 Z" id="Shape"></path>
                    <path d="M445.64898,49.1102041 C450.873469,49.1102041 455.053061,53.8122449 455.053061,58.5142857 L455.053061,74.1877551 L461.322449,74.1877551 L461.322449,52.244898 C461.322449,47.0204082 466.02449,42.8408163 470.726531,42.8408163 C475.95102,42.8408163 480.130612,47.5428571 480.130612,52.244898 L480.130612,67.9183673 L486.4,67.9183673 L486.4,45.4530612 C486.4,40.2285714 490.579592,36.0489796 495.804082,36.0489796 C501.028571,36.0489796 505.208163,40.2285714 505.208163,45.4530612 L505.208163,74.1877551 L511.477551,74.1877551 L511.477551,14.1061224 C511.477551,8.88163265 515.657143,4.70204082 520.881633,4.70204082 C526.106122,4.70204082 530.285714,8.88163265 530.285714,14.1061224 L530.285714,79.4122449 C543.346939,65.3061224 560.587755,50.155102 567.902041,56.9469388 C574.693878,63.7387755 556.930612,83.0693878 532.37551,124.865306 C520.881633,143.673469 506.77551,156.734694 482.742857,156.734694 C456.620408,156.734694 435.2,135.314286 435.2,109.191837 L435.2,58.5142857 C436.244898,53.2897959 440.946939,49.1102041 445.64898,49.1102041 L445.64898,49.1102041 Z" id="Shape"></path>
                </g>
                <path d="M1164.53878,195.918367 C1164.53878,215.771429 1148.86531,231.444898 1128.4898,231.444898 C1108.11429,231.444898 1091.91837,215.771429 1091.91837,195.918367 C1091.91837,176.587755 1108.11429,160.391837 1128.4898,160.391837 C1148.86531,160.914286 1164.53878,176.587755 1164.53878,195.918367 L1164.53878,195.918367 Z M1100.8,195.918367 C1100.8,211.591837 1112.29388,224.130612 1128.4898,224.130612 C1144.16327,224.130612 1155.13469,211.591837 1155.13469,195.918367 C1155.13469,180.244898 1143.64082,167.706122 1127.96735,167.706122 C1112.29388,167.706122 1100.8,180.767347 1100.8,195.918367 L1100.8,195.918367 Z M1122.74286,214.726531 L1114.38367,214.726531 L1114.38367,179.2 C1117.51837,178.677551 1122.22041,178.155102 1127.96735,178.155102 C1134.75918,178.155102 1137.89388,179.2 1139.98367,180.767347 C1142.07347,182.334694 1143.64082,184.946939 1143.64082,188.604082 C1143.64082,192.261224 1140.50612,195.395918 1136.32653,196.963265 L1136.32653,197.485714 C1139.98367,198.530612 1141.55102,201.142857 1142.59592,205.844898 C1143.64082,211.069388 1144.16327,213.159184 1145.20816,214.726531 L1136.32653,214.726531 C1135.28163,213.681633 1134.75918,210.02449 1133.71429,206.367347 C1133.19184,202.710204 1131.10204,200.620408 1126.4,200.620408 L1122.74286,200.620408 L1122.74286,214.726531 L1122.74286,214.726531 Z M1122.74286,194.873469 L1126.4,194.873469 C1131.10204,194.873469 1134.75918,193.306122 1134.75918,189.64898 C1134.75918,186.514286 1132.14694,184.42449 1127.4449,184.42449 C1125.3551,184.42449 1123.78776,184.42449 1122.74286,184.946939 L1122.74286,194.873469 L1122.74286,194.873469 Z" id="Shape"></path>
            </g>
        </g>
    </g>
</svg>