<?xml version="1.0" encoding="utf-8"?>
<!-- Generator: Adobe Illustrator 19.2.1, SVG Export Plug-In . SVG Version: 6.00 Build 0)  -->
<svg version="1.1" id="Layer_1" xmlns="http://www.w3.org/2000/svg" xmlns:xlink="http://www.w3.org/1999/xlink" x="0px" y="0px"
	 viewBox="0 0 300 300" style="enable-background:new 0 0 300 300;" xml:space="preserve">
<style type="text/css">
	.st0{fill:#673694;}
</style>
<g>
	<path class="st0" d="M819.4,132.9c-2.2,1.2-4.7,1.8-7.6,1.8c-2.4,0-4.5-0.4-6.4-1.3c-1.9-0.9-3.5-2.1-4.9-3.6
		c-1.4-1.5-2.4-3.3-3.1-5.4c-0.7-2.1-1.1-4.3-1.1-6.6v-0.2c0-2.3,0.4-4.4,1.1-6.4c0.7-2,1.7-3.8,3.1-5.3c1.3-1.5,2.9-2.7,4.7-3.6
		c1.8-0.9,3.8-1.3,6-1.3c3.1,0,5.7,0.6,7.8,1.8c2.1,1.2,4.1,2.9,6.1,4.9l10.6-11.4c-2.9-3.2-6.2-5.7-10-7.5
		c-3.8-1.8-8.6-2.7-14.4-2.7c-4.7,0-9,0.8-13,2.5c-3.9,1.7-7.3,4-10.1,6.8c-2.8,2.9-5,6.3-6.6,10.2c-1.6,3.9-2.4,8-2.4,12.3v0.2
		c0,4.3,0.8,8.4,2.4,12.3c1.6,3.8,3.8,7.2,6.6,10c2.8,2.9,6.2,5.1,10.1,6.8c3.9,1.7,8.2,2.5,12.7,2.5c6.1,0,11-1,14.8-3.1
		c3.8-2.1,7.2-4.8,10.2-8l-10.2-10.3C823.7,130.2,821.6,131.7,819.4,132.9z"/>
	<rect x="840" y="64.9" class="st0" width="17.3" height="83.3"/>
	<rect x="863" y="87.1" class="st0" width="17.3" height="61.2"/>
	<path class="st0" d="M994,118.2c0-4.4-0.8-8.5-2.5-12.4c-1.7-3.8-4-7.2-6.9-10c-2.9-2.9-6.4-5.1-10.4-6.7c-4-1.6-8.4-2.5-13.1-2.5
		c-4.8,0-9.2,0.8-13.2,2.5c-4,1.7-7.5,4-10.5,6.8c-3,2.9-5.3,6.3-7,10.1c-1.3,3-2.1,6.1-2.4,9.5c-0.1,1-0.1,1.9-0.1,2.9v0.2
		c0,4.1,0.8,8,2.2,11.6c-1.2,0.9-2.4,1.7-3.6,2.4c-2.2,1.2-4.7,1.8-7.6,1.8c-2.4,0-4.5-0.4-6.4-1.3c-1.9-0.9-3.5-2.1-4.9-3.6
		c-1.4-1.5-2.4-3.3-3.1-5.4c-0.7-2-1.1-4.1-1.1-6.4c0-2.3,0.4-4.4,1.1-6.4c0.7-2.1,1.8-3.8,3.1-5.4c1.4-1.5,3-2.7,4.9-3.6
		c1.9-0.9,4-1.3,6.4-1.3c2.9,0,5.4,0.6,7.6,1.8l0,0c1.9-3.9,4.3-7.3,7.4-10.3c0.6-0.6,1.2-1.1,1.8-1.6c-0.9-0.6-1.8-1.1-2.8-1.7
		c-3.8-2.1-8.8-3.1-14.8-3.1c-4.6,0-8.8,0.9-12.7,2.5c-3.9,1.7-7.3,4-10.1,6.8c-2.8,2.9-5,6.2-6.6,10.1c-1.6,3.8-2.3,7.8-2.4,12l0,0
		l0,0.2c0,0,0,0,0,0c0,0,0,0,0,0l0,0.2l0,0c0,4.2,0.8,8.2,2.4,12c1.6,3.8,3.8,7.2,6.6,10c2.8,2.8,6.2,5.1,10.1,6.8
		c3.9,1.7,8.2,2.5,12.7,2.5c6.1,0,11-1.1,14.8-3.2c2-1.1,3.9-2.4,5.7-3.9c2.6,2.3,5.6,4.1,9,5.5c4,1.6,8.4,2.5,13.1,2.5
		c4.8,0,9.2-0.8,13.2-2.5c4-1.7,7.5-4,10.5-6.8c3-2.9,5.3-6.3,7-10.1c0.5-1.1,0.9-2.2,1.2-3.3c0.9-2.9,1.3-5.9,1.3-9.1V118.2z
		 M976.9,118.7c0,2.3-0.4,4.4-1.1,6.4c-0.7,2-1.8,3.8-3.1,5.3c-1.4,1.5-3,2.7-5,3.6c-1.9,0.9-4.2,1.3-6.7,1.3
		c-2.4,0-4.6-0.5-6.6-1.4s-3.6-2.1-5.1-3.7c-1.4-1.6-2.6-3.3-3.3-5.4c-0.8-2-1.1-4.2-1.1-6.4v-0.2c0-2.3,0.4-4.4,1.1-6.4
		c0.7-2,1.8-3.8,3.1-5.3c1.4-1.5,3-2.7,5-3.6c1.9-0.9,4.2-1.3,6.7-1.3c2.4,0,4.5,0.5,6.5,1.4c2,0.9,3.7,2.2,5.1,3.7
		c1.4,1.6,2.5,3.3,3.3,5.4c0.8,2,1.1,4.2,1.1,6.4V118.7z"/>
	<path class="st0" d="M864.4,62.5c1,0,1.8,0.9,1.8,1.8v3h1.2v-4.2c0-1,0.9-1.8,1.8-1.8c1,0,1.8,0.9,1.8,1.8v3h1.2v-4.3
		c0-1,0.8-1.8,1.8-1.8c1,0,1.8,0.8,1.8,1.8v5.5h1.2V55.8c0-1,0.8-1.8,1.8-1.8c1,0,1.8,0.8,1.8,1.8v12.5c2.5-2.7,5.8-5.6,7.2-4.3
		c1.3,1.3-2.1,5-6.8,13c-2.2,3.6-4.9,6.1-9.5,6.1c-5,0-9.1-4.1-9.1-9.1v-9.7C862.6,63.3,863.4,62.5,864.4,62.5z"/>
</g>
<g>
	<path class="st0" d="M1005.9,90.7c0,3.8-3,6.8-6.9,6.8c-3.9,0-7-3-7-6.8c0-3.7,3.1-6.8,7-6.8C1002.9,83.9,1005.9,86.9,1005.9,90.7z
		 M993.8,90.7c0,3,2.2,5.4,5.3,5.4c3,0,5.1-2.4,5.1-5.4c0-3-2.2-5.4-5.2-5.4S993.8,87.7,993.8,90.7z M997.9,94.2h-1.6v-6.8
		c0.6-0.1,1.5-0.2,2.6-0.2c1.3,0,1.9,0.2,2.3,0.5c0.4,0.3,0.7,0.8,0.7,1.5c0,0.7-0.6,1.3-1.4,1.6v0.1c0.7,0.2,1,0.7,1.2,1.6
		c0.2,1,0.3,1.4,0.5,1.7h-1.7c-0.2-0.2-0.3-0.9-0.5-1.6c-0.1-0.7-0.5-1.1-1.4-1.1h-0.7V94.2z M998,90.4h0.7c0.9,0,1.6-0.3,1.6-1
		c0-0.6-0.5-1-1.4-1c-0.4,0-0.7,0-0.9,0.1V90.4z"/>
</g>
<g>
	<g>
		<path class="st0" d="M78.9,175.8c-2.2,1.2-4.7,1.8-7.6,1.8c-2.4,0-4.5-0.4-6.4-1.3c-1.9-0.9-3.5-2.1-4.9-3.6
			c-1.4-1.5-2.4-3.3-3.1-5.4c-0.7-2.1-1.1-4.3-1.1-6.6v-0.2c0-2.3,0.4-4.4,1.1-6.4c0.7-2,1.7-3.8,3.1-5.3c1.3-1.5,2.9-2.7,4.7-3.6
			c1.8-0.9,3.8-1.3,6-1.3c3.1,0,5.7,0.6,7.8,1.8c2.1,1.2,4.1,2.9,6.1,4.9l10.6-11.4c-2.9-3.2-6.2-5.7-10-7.5
			c-3.8-1.8-8.6-2.7-14.4-2.7c-4.7,0-9,0.8-13,2.5c-3.9,1.7-7.3,4-10.1,6.8c-2.8,2.9-5,6.3-6.6,10.2c-1.6,3.9-2.4,8-2.4,12.3v0.2
			c0,4.3,0.8,8.4,2.4,12.3c1.6,3.8,3.8,7.2,6.6,10c2.8,2.9,6.2,5.1,10.1,6.8c3.9,1.7,8.2,2.5,12.7,2.5c6.1,0,11-1,14.8-3.1
			c3.8-2.1,7.2-4.8,10.2-8L85.3,171C83.2,173,81,174.6,78.9,175.8z"/>
		<rect x="99.4" y="107.8" class="st0" width="17.3" height="83.3"/>
		<rect x="122.5" y="130" class="st0" width="17.3" height="61.2"/>
		<path class="st0" d="M253.5,161.1c0-4.4-0.8-8.5-2.5-12.4c-1.7-3.8-4-7.2-6.9-10c-2.9-2.9-6.4-5.1-10.4-6.7
			c-4-1.6-8.4-2.5-13.1-2.5c-4.8,0-9.2,0.8-13.2,2.5c-4,1.7-7.5,4-10.5,6.8c-3,2.9-5.3,6.3-7,10.1c-1.3,3-2.1,6.1-2.4,9.5
			c-0.1,1-0.1,1.9-0.1,2.9v0.2c0,4.1,0.8,8,2.2,11.6c-1.2,0.9-2.4,1.7-3.6,2.4c-2.2,1.2-4.7,1.8-7.6,1.8c-2.4,0-4.5-0.4-6.4-1.3
			c-1.9-0.9-3.5-2.1-4.9-3.6c-1.4-1.5-2.4-3.3-3.1-5.4c-0.7-2-1.1-4.1-1.1-6.4c0-2.3,0.4-4.4,1.1-6.4c0.7-2.1,1.8-3.8,3.1-5.4
			c1.4-1.5,3-2.7,4.9-3.6c1.9-0.9,4-1.3,6.4-1.3c2.9,0,5.4,0.6,7.6,1.8l0,0c1.9-3.9,4.3-7.3,7.4-10.3c0.6-0.6,1.2-1.1,1.8-1.6
			c-0.9-0.6-1.8-1.1-2.8-1.7c-3.8-2.1-8.8-3.1-14.8-3.1c-4.6,0-8.8,0.9-12.7,2.5c-3.9,1.7-7.3,4-10.1,6.8c-2.8,2.9-5,6.2-6.6,10.1
			c-1.6,3.8-2.3,7.8-2.4,12l0,0l0,0.2c0,0,0,0,0,0s0,0,0,0l0,0.2l0,0c0,4.2,0.8,8.2,2.4,12c1.6,3.8,3.8,7.2,6.6,10
			c2.8,2.8,6.2,5.1,10.1,6.8c3.9,1.7,8.2,2.5,12.7,2.5c6.1,0,11-1.1,14.8-3.2c2-1.1,3.9-2.4,5.7-3.9c2.6,2.3,5.6,4.1,9,5.5
			c4,1.6,8.4,2.5,13.1,2.5c4.8,0,9.2-0.8,13.2-2.5c4-1.7,7.5-4,10.5-6.8c3-2.9,5.3-6.3,7-10.1c0.5-1.1,0.9-2.2,1.2-3.3
			c0.9-2.9,1.3-5.9,1.3-9.1V161.1z M236.3,161.5c0,2.3-0.4,4.4-1.1,6.4c-0.7,2-1.8,3.8-3.1,5.3c-1.4,1.5-3,2.7-5,3.6
			c-1.9,0.9-4.2,1.3-6.7,1.3c-2.4,0-4.6-0.5-6.6-1.4s-3.6-2.1-5.1-3.7c-1.4-1.6-2.6-3.3-3.3-5.4c-0.8-2-1.1-4.2-1.1-6.4v-0.2
			c0-2.3,0.4-4.4,1.1-6.4c0.7-2,1.8-3.8,3.1-5.3c1.4-1.5,3-2.7,5-3.6c1.9-0.9,4.2-1.3,6.7-1.3c2.4,0,4.5,0.5,6.5,1.4
			c2,0.9,3.7,2.2,5.1,3.7c1.4,1.6,2.5,3.3,3.3,5.4c0.8,2,1.1,4.2,1.1,6.4V161.5z"/>
		<path class="st0" d="M123.8,105.4c1,0,1.8,0.9,1.8,1.8v3h1.2V106c0-1,0.9-1.8,1.8-1.8c1,0,1.8,0.9,1.8,1.8v3h1.2v-4.3
			c0-1,0.8-1.8,1.8-1.8c1,0,1.8,0.8,1.8,1.8v5.5h1.2V98.7c0-1,0.8-1.8,1.8-1.8c1,0,1.8,0.8,1.8,1.8v12.5c2.5-2.7,5.8-5.6,7.2-4.3
			c1.3,1.3-2.1,5-6.8,13c-2.2,3.6-4.9,6.1-9.5,6.1c-5,0-9.1-4.1-9.1-9.1v-9.7C122,106.2,122.9,105.4,123.8,105.4z"/>
	</g>
	<g>
		<path class="st0" d="M261.4,133.5c0,3.8-3,6.8-6.9,6.8c-3.9,0-7-3-7-6.8c0-3.7,3.1-6.8,7-6.8C258.4,126.8,261.4,129.8,261.4,133.5
			z M249.2,133.5c0,3,2.2,5.4,5.3,5.4c3,0,5.1-2.4,5.1-5.4c0-3-2.2-5.4-5.2-5.4C251.4,128.2,249.2,130.6,249.2,133.5z M253.4,137.1
			h-1.6v-6.8c0.6-0.1,1.5-0.2,2.6-0.2c1.3,0,1.9,0.2,2.3,0.5c0.4,0.3,0.7,0.8,0.7,1.5c0,0.7-0.6,1.3-1.4,1.6v0.1
			c0.7,0.2,1,0.7,1.2,1.6c0.2,1,0.3,1.4,0.5,1.7h-1.7c-0.2-0.2-0.3-0.9-0.5-1.6c-0.1-0.7-0.5-1.1-1.4-1.1h-0.7V137.1z M253.4,133.3
			h0.7c0.9,0,1.6-0.3,1.6-1c0-0.6-0.5-1-1.4-1c-0.4,0-0.7,0-0.9,0.1V133.3z"/>
	</g>
</g>
</svg>
