<?xml version="1.0" encoding="UTF-8" standalone="no"?>
<svg width="406px" height="390px" viewBox="0 0 406 390" version="1.1" xmlns="http://www.w3.org/2000/svg" xmlns:xlink="http://www.w3.org/1999/xlink">
    <!-- Generator: Sketch 3.6.1 (26313) - http://www.bohemiancoding.com/sketch -->
    <title>ClosingBell</title>
    <desc>Created with Sketch.</desc>
    <defs></defs>
    <g id="Page-1" stroke="none" stroke-width="1" fill="none" fill-rule="evenodd">
        <g id="ClosingBell" transform="translate(-53.000000, -53.000000)">
            <path d="M66.4434286,158.050286 C86.7434286,118.849714 118.843429,86.7502857 158.043429,66.4497143 C157.968571,66.3628571 157.893714,66.2748571 157.812571,66.1874286 C137.568571,45.9497143 100.656571,50.0502857 75.356,75.3497143 C50.0565714,100.649714 45.9497143,137.562286 66.1874286,157.812571 C66.2691429,157.887429 66.3628571,157.962857 66.4434286,158.050286 L66.4434286,158.050286 Z" id="Shape" fill="#00A9B4"></path>
            <path d="M512,256 C512,397.387429 397.387429,512 256,512 C114.612571,512 0,397.387429 0,256 C0,114.612571 114.612571,0 256,0 C397.387429,0 512,114.612571 512,256 L512,256 Z" id="Shape"></path>
            <path d="M256,69.3377143 C152.906286,69.3377143 69.3314286,152.9 69.3314286,256 C69.3314286,359.087429 152.906286,442.662286 256,442.662286 C359.093714,442.662286 442.668571,359.087429 442.668571,256 C442.668571,152.9 359.093714,69.3377143 256,69.3377143 L256,69.3377143 Z M335.171429,206.992 L256,286.175429 L181.331429,181.337714 L256,225.824571 L305.004,176.826857 L274.275429,146.1 L365.894286,146.1 L365.906286,237.725143 L335.171429,206.992 L335.171429,206.992 Z" id="Shape" fill="#00A9B4"></path>
            <path d="M445.556571,158.050286 C445.637714,157.962857 445.725143,157.887429 445.812571,157.812571 C466.050286,137.562286 461.943429,100.650286 436.644,75.3497143 C411.344,50.0502857 374.431429,45.9497143 354.187429,66.1874286 C354.112571,66.2748571 354.031429,66.3628571 353.956571,66.4497143 C393.156,86.7497143 425.256,118.849714 445.556571,158.050286 L445.556571,158.050286 Z" id="Shape" fill="#00A9B4"></path>
        </g>
    </g>
</svg>