<?xml version="1.0" encoding="utf-8"?>
<!-- Generator: Adobe Illustrator 16.0.0, SVG Export Plug-In . SVG Version: 6.00 Build 0)  -->
<!DOCTYPE svg PUBLIC "-//W3C//DTD SVG 1.1//EN" "http://www.w3.org/Graphics/SVG/1.1/DTD/svg11.dtd">
<svg version="1.1" id="Layer_1" xmlns="http://www.w3.org/2000/svg" xmlns:xlink="http://www.w3.org/1999/xlink" x="0px" y="0px"
	 width="290px" height="72px" viewBox="0 0 290 72" enable-background="new 0 0 290 72" xml:space="preserve">
<path d="M60.879,22.887c0-0.89-0.443-1.724-1.185-2.218L33.02,2.886c-0.895-0.599-2.066-0.599-2.961,0L3.385,20.669
	C2.643,21.164,2.2,21.997,2.2,22.887v26.673c0,0.895,0.443,1.729,1.185,2.224l26.674,17.782c0.447,0.295,0.964,0.442,1.48,0.442
	s1.033-0.147,1.48-0.442l26.674-17.782c0.742-0.495,1.185-1.329,1.185-2.224V22.887z M31.54,64.14L7.531,48.137V24.315L31.54,8.309
	l24.008,16.007v7.33L31.483,48.936l-10.962-7.293V30.811l11.019-7.35l10.745,7.167c1.233,0.825,2.882,0.478,3.699-0.738
	c0.816-1.224,0.486-2.882-0.738-3.699L33.02,18.038c-0.895-0.6-2.066-0.6-2.961,0l-13.684,9.125
	c-0.742,0.495-1.186,1.329-1.186,2.218v13.685c0,0.895,0.443,1.728,1.186,2.223l13.684,9.117c0.452,0.295,0.964,0.442,1.48,0.442
	c0.547,0,1.094-0.165,1.559-0.503l22.45-16.129v9.92L31.54,64.14z"/>
<g>
	<path d="M100.909,27.88c-0.164,0.213-0.321,0.378-0.47,0.494c-0.149,0.117-0.362,0.173-0.644,0.173c-0.277,0-0.571-0.1-0.876-0.297
		c-0.306-0.197-0.667-0.414-1.085-0.655c-0.422-0.237-0.928-0.454-1.519-0.655c-0.595-0.197-1.334-0.293-2.223-0.293
		c-1.153,0-2.162,0.205-3.026,0.615c-0.864,0.414-1.587,1.001-2.17,1.769c-0.586,0.764-1.021,1.696-1.31,2.79
		s-0.434,2.323-0.434,3.689c0,1.415,0.157,2.678,0.471,3.778c0.313,1.109,0.763,2.033,1.346,2.798
		c0.583,0.756,1.294,1.326,2.123,1.72c0.832,0.401,1.769,0.596,2.806,0.596c1.021,0,1.853-0.122,2.492-0.37
		c0.643-0.241,1.177-0.515,1.608-0.82c0.426-0.289,0.792-0.563,1.097-0.804c0.306-0.258,0.631-0.378,0.977-0.378
		c0.426,0,0.755,0.168,0.989,0.49l1.503,1.962c-0.606,0.739-1.282,1.366-2.021,1.872c-0.744,0.507-1.523,0.925-2.347,1.246
		c-0.824,0.322-1.68,0.547-2.568,0.691s-1.788,0.209-2.693,0.209c-1.563,0-3.022-0.289-4.381-0.876
		c-1.359-0.587-2.544-1.432-3.557-2.548c-1.013-1.11-1.812-2.46-2.396-4.068c-0.587-1.607-0.876-3.44-0.876-5.498
		c0-1.857,0.261-3.581,0.788-5.173c0.526-1.587,1.298-2.958,2.311-4.112c1.013-1.149,2.267-2.054,3.767-2.701
		c1.499-0.651,3.227-0.977,5.185-0.977c1.829,0,3.437,0.297,4.828,0.888c1.391,0.591,2.632,1.431,3.718,2.521L100.909,27.88z"/>
	<path d="M112.216,11.582v36.547h-5.31V11.582H112.216z"/>
	<path d="M129.676,22.547c1.86,0,3.545,0.305,5.052,0.912c1.507,0.611,2.79,1.475,3.851,2.593c1.061,1.122,1.881,2.48,2.459,4.075
		c0.575,1.596,0.864,3.393,0.864,5.382c0,1.994-0.289,3.795-0.864,5.386c-0.579,1.592-1.399,2.958-2.459,4.084
		c-1.061,1.126-2.344,1.993-3.851,2.604c-1.507,0.61-3.192,0.916-5.052,0.916c-1.877,0-3.565-0.306-5.073-0.916
		c-1.507-0.611-2.797-1.479-3.867-2.604c-1.068-1.126-1.893-2.492-2.468-4.084c-0.579-1.591-0.864-3.392-0.864-5.386
		c0-1.989,0.285-3.786,0.864-5.382c0.575-1.595,1.399-2.954,2.468-4.075c1.07-1.118,2.36-1.981,3.867-2.593
		C126.11,22.852,127.798,22.547,129.676,22.547z M129.676,44.352c2.274,0,3.963-0.755,5.076-2.283
		c1.109-1.527,1.668-3.698,1.668-6.527c0-2.837-0.559-5.024-1.668-6.563c-1.113-1.54-2.802-2.307-5.076-2.307
		c-2.303,0-4.016,0.768-5.137,2.307c-1.118,1.54-1.676,3.726-1.676,6.563c0,2.829,0.559,5,1.676,6.527
		C125.66,43.597,127.373,44.352,129.676,44.352z"/>
	<path d="M162.026,27.51c-0.133,0.229-0.281,0.395-0.445,0.495c-0.165,0.096-0.37,0.149-0.619,0.149
		c-0.277,0-0.583-0.089-0.912-0.261c-0.33-0.173-0.716-0.366-1.162-0.579c-0.442-0.217-0.965-0.41-1.567-0.583
		c-0.599-0.173-1.307-0.257-2.11-0.257c-0.659,0-1.258,0.076-1.792,0.233c-0.535,0.157-0.985,0.378-1.359,0.667
		c-0.369,0.289-0.65,0.627-0.852,1.013c-0.196,0.386-0.294,0.804-0.294,1.246c0,0.595,0.182,1.085,0.543,1.483
		c0.361,0.394,0.84,0.735,1.432,1.024c0.595,0.285,1.27,0.547,2.024,0.776c0.756,0.233,1.532,0.478,2.324,0.744
		c0.787,0.261,1.562,0.563,2.318,0.916c0.76,0.338,1.436,0.764,2.026,1.27c0.591,0.5,1.068,1.109,1.431,1.826
		c0.361,0.715,0.542,1.583,0.542,2.604c0,1.181-0.212,2.282-0.639,3.287c-0.43,0.996-1.053,1.873-1.876,2.62
		c-0.825,0.739-1.851,1.312-3.075,1.721c-1.227,0.419-2.629,0.619-4.212,0.619c-0.873,0-1.718-0.072-2.529-0.233
		c-0.815-0.161-1.591-0.369-2.322-0.643c-0.732-0.274-1.415-0.595-2.051-0.973c-0.635-0.378-1.197-0.796-1.691-1.238l1.234-2.025
		c0.147-0.25,0.332-0.442,0.559-0.579c0.221-0.137,0.493-0.209,0.823-0.209c0.346,0,0.688,0.112,1.024,0.329
		c0.338,0.226,0.736,0.467,1.187,0.731c0.453,0.266,1.001,0.508,1.644,0.731c0.644,0.226,1.439,0.33,2.396,0.33
		c0.792,0,1.471-0.089,2.05-0.281c0.575-0.193,1.054-0.45,1.431-0.78c0.378-0.329,0.659-0.698,0.841-1.116
		c0.181-0.427,0.272-0.869,0.272-1.351c0-0.644-0.181-1.174-0.542-1.584c-0.366-0.41-0.844-0.764-1.447-1.062
		c-0.599-0.297-1.282-0.555-2.05-0.787c-0.764-0.233-1.544-0.475-2.331-0.748c-0.792-0.257-1.571-0.562-2.335-0.908
		c-0.768-0.346-1.451-0.788-2.05-1.326c-0.604-0.531-1.081-1.182-1.443-1.945c-0.366-0.768-0.547-1.7-0.547-2.802
		c0-1.004,0.201-1.961,0.607-2.866c0.401-0.904,0.997-1.704,1.776-2.396c0.784-0.691,1.744-1.238,2.89-1.644
		c1.146-0.402,2.464-0.603,3.963-0.603c1.696,0,3.236,0.269,4.618,0.815c1.384,0.543,2.544,1.283,3.48,2.223L162.026,27.51z"/>
	<path d="M172.396,35.959c0.064,1.431,0.29,2.668,0.668,3.713s0.884,1.913,1.519,2.604c0.636,0.691,1.392,1.206,2.268,1.543
		c0.884,0.338,1.864,0.507,2.958,0.507c1.037,0,1.929-0.121,2.685-0.362c0.764-0.24,1.415-0.498,1.978-0.787
		s1.045-0.546,1.431-0.788c0.402-0.241,0.756-0.361,1.093-0.361c0.427,0,0.756,0.168,0.981,0.49l1.512,1.962
		c-0.628,0.739-1.335,1.366-2.123,1.872c-0.787,0.507-1.632,0.925-2.524,1.246c-0.884,0.322-1.8,0.547-2.732,0.691
		c-0.949,0.145-1.856,0.209-2.749,0.209c-1.736,0-3.36-0.289-4.848-0.876s-2.789-1.439-3.883-2.58
		c-1.093-1.143-1.945-2.541-2.564-4.229c-0.618-1.672-0.924-3.609-0.924-5.796c0-1.748,0.272-3.376,0.823-4.892
		c0.559-1.515,1.348-2.83,2.376-3.951c1.029-1.121,2.283-2.005,3.746-2.652c1.479-0.651,3.143-0.977,5-0.977
		c1.551,0,2.99,0.249,4.301,0.751c1.317,0.502,2.451,1.238,3.408,2.21c0.956,0.973,1.696,2.163,2.234,3.569s0.804,3.011,0.804,4.803
		c0,0.824-0.088,1.371-0.272,1.66c-0.186,0.273-0.507,0.418-0.989,0.418H172.396z M185.066,32.695c0-0.888-0.13-1.716-0.387-2.48
		c-0.258-0.768-0.627-1.435-1.125-2.001c-0.483-0.567-1.102-1.013-1.833-1.334c-0.739-0.321-1.576-0.482-2.532-0.482
		c-1.921,0-3.441,0.554-4.542,1.655c-1.109,1.102-1.801,2.649-2.105,4.643H185.066z"/>
	<path d="M200.081,25.931c1.037-1.021,2.171-1.841,3.409-2.46c1.237-0.615,2.669-0.924,4.325-0.924c1.382,0,2.588,0.229,3.633,0.691
		c1.045,0.462,1.929,1.109,2.653,1.949c0.707,0.84,1.254,1.849,1.607,3.026c0.369,1.178,0.547,2.472,0.547,3.891v16.024h-5.29
		V32.104c0-1.696-0.386-3.015-1.174-3.951c-0.771-0.941-1.961-1.411-3.561-1.411c-1.182,0-2.291,0.273-3.304,0.816
		c-1.006,0.542-1.962,1.286-2.847,2.223v18.347h-5.305V11.582h5.305V25.931z"/>
	<path d="M226.327,35.959c0.072,1.431,0.29,2.668,0.668,3.713s0.884,1.913,1.52,2.604c0.635,0.691,1.391,1.206,2.274,1.543
		c0.876,0.338,1.865,0.507,2.95,0.507c1.037,0,1.938-0.121,2.692-0.362c0.756-0.24,1.415-0.498,1.979-0.787
		c0.554-0.289,1.028-0.546,1.43-0.788c0.387-0.241,0.756-0.361,1.078-0.361c0.434,0,0.763,0.168,0.996,0.49l1.504,1.962
		c-0.627,0.739-1.335,1.366-2.122,1.872c-0.796,0.507-1.632,0.925-2.517,1.246c-0.892,0.322-1.809,0.547-2.749,0.691
		c-0.933,0.145-1.849,0.209-2.733,0.209c-1.752,0-3.367-0.289-4.854-0.876c-1.495-0.587-2.782-1.439-3.875-2.58
		c-1.094-1.143-1.954-2.541-2.572-4.229c-0.619-1.672-0.925-3.609-0.925-5.796c0-1.748,0.273-3.376,0.828-4.892
		c0.547-1.515,1.334-2.83,2.363-3.951c1.028-1.121,2.283-2.005,3.762-2.652c1.471-0.651,3.136-0.977,5.001-0.977
		c1.543,0,2.974,0.249,4.292,0.751s2.46,1.238,3.408,2.21c0.956,0.973,1.704,2.163,2.234,3.569c0.531,1.407,0.804,3.011,0.804,4.803
		c0,0.824-0.096,1.371-0.272,1.66c-0.178,0.273-0.515,0.418-0.981,0.418H226.327z M238.997,32.695c0-0.888-0.13-1.716-0.378-2.48
		c-0.258-0.768-0.636-1.435-1.126-2.001c-0.498-0.567-1.109-1.013-1.841-1.334c-0.731-0.321-1.584-0.482-2.532-0.482
		c-1.93,0-3.44,0.554-4.55,1.655c-1.093,1.102-1.801,2.649-2.09,4.643H238.997z"/>
	<path d="M248.089,26.449c2.845-2.652,6.237-3.979,10.176-3.979c1.447,0,2.733,0.237,3.859,0.703c1.125,0.47,2.073,1.133,2.845,1.99
		c0.756,0.856,1.343,1.873,1.753,3.05c0.401,1.178,0.595,2.48,0.595,3.915v16h-2.363c-0.514,0-0.9-0.08-1.158-0.232
		c-0.272-0.153-0.489-0.475-0.674-0.957l-0.516-2.041c-0.643,0.578-1.277,1.093-1.896,1.543c-0.628,0.45-1.278,0.836-1.946,1.142
		c-0.658,0.321-1.382,0.546-2.146,0.707s-1.608,0.233-2.532,0.233c-1.021,0-1.97-0.137-2.846-0.418
		c-0.885-0.281-1.647-0.699-2.291-1.278c-0.635-0.562-1.149-1.27-1.519-2.106c-0.37-0.835-0.556-1.832-0.556-2.958
		c0-0.98,0.266-1.921,0.78-2.846c0.515-0.916,1.374-1.753,2.572-2.476c1.189-0.74,2.765-1.342,4.71-1.816
		c1.954-0.482,4.357-0.752,7.219-0.82v-1.676c0-1.812-0.385-3.163-1.157-4.051c-0.771-0.888-1.913-1.334-3.408-1.334
		c-1.013,0-1.873,0.128-2.564,0.386c-0.691,0.253-1.295,0.53-1.809,0.824c-0.507,0.297-0.957,0.575-1.351,0.828
		c-0.402,0.257-0.819,0.381-1.262,0.381c-0.361,0-0.667-0.092-0.925-0.281c-0.257-0.189-0.466-0.426-0.627-0.703L248.089,26.449z
		 M262.155,37.116c-1.889,0.064-3.488,0.217-4.791,0.45c-1.294,0.242-2.347,0.547-3.15,0.917c-0.812,0.37-1.391,0.82-1.745,1.318
		c-0.354,0.515-0.53,1.077-0.53,1.688c0,0.596,0.089,1.094,0.281,1.512c0.193,0.426,0.45,0.771,0.788,1.045s0.739,0.466,1.189,0.595
		c0.45,0.113,0.948,0.177,1.495,0.177c1.383,0,2.572-0.258,3.569-0.771c0.997-0.522,1.962-1.27,2.894-2.267V37.116z"/>
	<path d="M281.255,48.523c-2.09,0-3.705-0.587-4.831-1.76c-1.133-1.182-1.696-2.838-1.696-4.984V27.113h-2.765
		c-0.289,0-0.547-0.092-0.764-0.281s-0.321-0.475-0.321-0.852v-2.15l4.075-0.591l1.158-7.287c0.08-0.277,0.225-0.506,0.417-0.68
		c0.209-0.173,0.467-0.257,0.796-0.257h2.718v8.272h6.985v3.826h-6.985v14.296c0,0.908,0.217,1.6,0.667,2.074
		c0.441,0.481,1.036,0.723,1.776,0.723c0.41,0,0.764-0.056,1.061-0.16c0.298-0.112,0.556-0.226,0.765-0.354
		c0.217-0.12,0.401-0.233,0.562-0.338c0.152-0.112,0.306-0.16,0.45-0.16c0.297,0,0.538,0.16,0.723,0.489l1.576,2.597
		c-0.82,0.724-1.793,1.278-2.91,1.665C283.586,48.33,282.437,48.523,281.255,48.523z"/>
</g>
</svg>
