<svg xmlns:svg="http://www.w3.org/2000/svg" xmlns="http://www.w3.org/2000/svg" version="1.1" width="200" height="95.64" xml:space="preserve"><g transform="matrix(1.2470709,0,0,-1.2470709,-28.601861,1011.2423)"><g transform="translate(-216,-15084)"><path d="m305.03 15894.46c-6.61-0.47-12.21-6.03-12.21-13.87l0-37.3c0-1.35-1-2.51-2.46-2.51l-11.65 0c-25.22-0.03-22.98 32.2-1.51 32.24l12.88 0 0 9.37-13.35 0c-8.55 0-14.89-3.19-19.17-7.95-4.28-4.76-6.43-11.17-6.44-17.56-0.01-6.39 2.11-12.76 6.49-17.52 4.38-4.75 11-7.95 20.07-7.95l21.97 0c1.45 0 2.65 1.25 2.65 2.7l0 45.49c-0.01 2.34 1.31 4.16 3.03 4.69 1.72 0.53 3.74-0.14 4.92-1.85l0.05-0.05c6.25-10.22 31.06-50.02 31.1-50.09 0.68-0.97 1.49-1.14 2.08-0.95 0.59 0.2 1.19 0.84 1.18 2.42l0 45.83c-0.01 2.34 1.31 4.16 3.03 4.69 1.72 0.53 3.69-0.14 4.88-1.85l0-0.05 0.09 0c6.25-10.22 31.06-50.02 31.1-50.09 0.67-0.96 1.46-1.15 2.08-0.95 0.62 0.2 1.24 0.8 1.23 2.37l0 60.5-9.42 0 0-35.31c0 0-5.62 9.6-15.24 26.13-9.43 16.19-27.22 9.49-27.22-4.45l0-21.68c0 0-5.52 9.6-15.15 26.13-4.12 7.08-9.87 9.79-15.01 9.42zm-26.65-0.24c-52.43 0-51.92-74.71 0.71-74.75l20.59 0c8.85 0 14.5 5.24 14.49 14.91l0 18.94c0 0 11.56-19.11 16.1-26.6 7.7-12.73 26.32-10.22 26.27 5.68l0 20.92c0 0 11.52-19.11 16.05-26.6 7.7-12.73 26.37-10.22 26.32 5.68l0 61.83-9.42 0 0-60.5c0.01-2.32-1.21-4.04-2.89-4.59-1.68-0.55-3.61 0.14-4.78 1.8l-0.05 0 0 0.09c0 0-24.82 39.69-31.15 50.04-0.02 0.02-0.03-0.02-0.05 0-0.01 0 0.01 0.05 0 0.05-0.65 0.87-1.49 1.06-2.18 0.85-0.71-0.22-1.38-0.83-1.37-2.37l0-45.82c0.01-2.31-1.18-4.13-2.84-4.69-1.66-0.56-3.57 0.18-4.73 1.85l0 0.05-0.05 0c0 0-24.84 39.77-31.15 50.09-0.66 0.94-1.51 1.17-2.22 0.95-0.71-0.22-1.38-0.83-1.37-2.37l0-0.05 0-45.49c0-2.76-2.27-5.07-5.02-5.07l-21.97 0c-9.64 0-16.95 3.47-21.78 8.71-4.83 5.24-7.21 12.19-7.2 19.13 0.01 6.93 2.39 13.93 7.1 19.17 4.71 5.24 11.78 8.7 20.92 8.71l13.35 0 0 9.47-11.69 0z" fill="#d81921"/></g></g></svg>