<?xml version="1.0" encoding="utf-8"?>
<!-- Generator: Adobe Illustrator 16.0.0, SVG Export Plug-In . SVG Version: 6.00 Build 0)  -->
<!DOCTYPE svg PUBLIC "-//W3C//DTD SVG 1.1//EN" "http://www.w3.org/Graphics/SVG/1.1/DTD/svg11.dtd">
<svg version="1.1" id="Layer_1" xmlns:svg="http://www.w3.org/2000/svg"
	 xmlns="http://www.w3.org/2000/svg" xmlns:xlink="http://www.w3.org/1999/xlink" x="0px" y="0px" width="800px" height="261.953px"
	 viewBox="0 0 800 261.953" enable-background="new 0 0 800 261.953" xml:space="preserve">
<g id="g3">
	<path id="path5" fill="#F40000" d="M307.209,228.509c-29.768-19.176-70.167-22.541-135.32-4.465
		c-69.457,16.322-92.615,26.785-123.028,5.781c-11.684-10.318-15.873-26.931-12.745-50.861
		c7.255-39.01,26.861-76.551,61.686-118.193c19.439-21.662,37.47-40.252,61.28-47.717c18.248-4.683,16.542,9.658,14.334,11.709
		c-2.33,0-6.244,0.367-9.269,2.341c-2.455,1.904-9.194,8.052-9.556,16.322c-0.522,12.66,12.58,10.025,18.231,3.074
		c6.091-7.833,15.093-22.833,8.012-36.813c-2.968-4.976-8.096-8.415-14.463-9.586c-21.802-1.246-42.107,9.147-60.846,20.637
		C64.543,49.207,31.76,88.655,13.21,131.835c-10.695,26.053-20.367,63.373-5.869,93.748c11.215,21.076,34.499,32.271,62.278,29.93
		c19.483-2.047,43.042-8.344,58.887-12.146c15.845-3.808,96.954-31.689,123.604,16.836c0,0,8.862-17.203,31.009-17.57
		c18.208-1.68,44.475,5.271,63.604,19.32C340.35,252.369,322.282,238.244,307.209,228.509L307.209,228.509z"/>
	<path id="path7" fill="#F40000" d="M180.16,65.674c-15.17-9.953-45.66,9.075-70.081,41.714
		c-22.332,29.277-31.975,63.304-21.481,79.039c15.611,18.515,44.591-8.416,56.915-22.831l1.59-1.685
		c8.381-9.002,14.856-19.834,21.123-30.227c0,0,5.76-9.514,6.035-9.954c3.56-0.656,7.848-1.681,12.68-3.072
		c-0.069,0.218-18.487,31.176-16.608,46.542c0.585,4.688,0.138,21.813,16.858,27.008c22.284,3.735,40.078-13.539,55.776-28.908
		c0,0,2.675-2.559,4.188-4.02c-0.383,1.533-0.882,3.578-0.882,3.578c-6.524,22.688,2.27,27.448,7.771,29.205
		c16.625,4.833,36.486-19.32,36.55-19.32c-0.515,7.608-2.021,13.902,5.999,18.952c7.57,2.71,15.231-1.421,21.054-5.3
		c20.975-14.783,37.873-37.92,51.522-57.92h-8.706c-0.103,0-21.483,30.988-35.366,37.723c-0.022,0-2.548,1.297-4.004,0.271
		c-1.802-1.538-1.091-4.734,0.022-6.998c0.07-0.148,53.603-92.996,53.603-92.996h-25.276c0,0-2.761,4.467-2.986,4.76
		c-0.17-0.146-0.575-0.914-0.856-1.282c-15.66-21.662-51.123,11.658-77.822,50.298c-10.279,14.858-23.366,31.587-36.936,43.662
		c0,0-20.103,18.428-28.693,5.188c-3.14-5.563-2.174-13.696-0.403-19.037c10.001-28.469,27.234-54.306,46.844-69.896
		c5.536-4.315,11.553-5.563,14.539-3.733c2.845,1.686,3.304,5.854,1.504,8.709c-4.567-0.146-8.226,1.242-11.201,4.316
		c-5.86,6.148-7.896,12.077-6.033,17.64c9.051,12.88,27.102-12.589,26.229-28.104c-0.312-5.563-3.28-10.831-7.709-13.395
		c-6.601-3.95-16.671-2.927-23.188,0.222c-8.724,3.292-22.534,14.781-30.595,23.711c-10.148,11.199-27.552,23.639-32.995,22.246
		C180.924,107.021,195.625,76.943,180.16,65.674L180.16,65.674z M302.021,110.17c4.917-6.805,19.228-25.029,22.717-28.102
		c11.734-10.323,16.424-5.781,16.83-2.563c-10.951,19.613-23.876,42.082-36.028,62.282c0.025-0.072-3.803,5.781-3.803,5.781
		c-5.367,8.195-10.771,15.221-19.586,20.124c-1.257,0.368-3.329,0.515-4.708-0.513c-1.66-1.098-2.315-2.928-2.128-4.832
		C275.843,156.055,282.25,136.811,302.021,110.17L302.021,110.17z M164.516,121.952c0,0-0.22,0.661-0.329,0.877
		c-0.028,0-11.02,17.928-11.02,17.928c-6.634,8.857-14.917,19.984-25.271,25.324c-3.069,1.025-7.311,1.685-9.473-1.021
		c-4.583-5.49-2.221-13.101-0.302-19.248l0.679-2.196c5.502-14.928,14.232-28.104,22.729-40.326c0.106-0.072,0.344-0.145,0.43-0.145
		c0.02,0.073,0.054,0.073,0.069,0.22c5.332,10.244,15.33,14.999,22.807,17.198c0.045,0,0.093,0.073,0.093,0.22
		C164.929,121.001,164.807,121.296,164.516,121.952L164.516,121.952z M174.93,100.804c-0.048,0.146-4.896,11.269-4.896,11.269
		c-0.701,0.585-1.809,0.293-3.079,0l-2.176-0.368c-6.833-2.121-11.987-6.659-13.576-12.074
		c-2.192-10.539,6.811-18.809,10.778-21.808c3.806-2.637,9.723-4.027,13.159-1.318c2.119,2.489,2.922,5.708,2.922,9.223
		C178.063,90.484,176.595,95.826,174.93,100.804L174.93,100.804z"/>
	<path id="path9" fill="#F40000" d="M494.47,134.759c-2.437-5.268-8.223-8.635-14.389-8.27
		c-20.023,1.831-39.608,18.297-49.891,41.934c-5.396,12.15-8.341,22.175-10.272,38.129c6.226-7.17,18.926-18.952,33.338-25.393
		c0,0,1.961-15.295,11.961-28.908c3.784-5.637,11.357-14.711,19.86-12.297c7.429,2.49,4.818,23.055-5.056,42.957
		c-7.306,14.639-18.486,29.28-29.798,39.377c-10.001,8.49-24.798,18.735-37.744,10.832c-8.154-4.828-12.313-14.93-11.434-27.957
		c3.896-36.957,20.719-68.427,44.794-104.287c24.824-33.299,52.188-67.476,89.051-85.702c7.519-3.805,14.482-4.683,20.501-2.341
		c0,0-34.604,19.028-51.099,54.231c-4.196,8.93-10.032,21.002-4.155,31.688c3.071,5.561,8.524,6.001,12.914,5.708
		c20.219-4.685,33.282-23.566,43.955-40.836c6.188-13.1,11.688-26.127,11.688-40.618c0-1.756-0.091-4.097-0.24-5.855
		c9.66-5.121,29.468,3.952,29.468,3.952c15.479,5.125,48.438,30.375,59.556,35.203c5.423-6.293,14.335-15.806,19.353-20.564
		l-7.264-4.465c-11.63-7.099-23.923-13.833-36.023-20.492c-27.479-15.001-49.846-9.733-61.23-5.634c-4.474,1.609-8.563,3-8.563,3
		c-8.448-9.221-22.303-8.345-32.512-5.855c-36.714,10.538-70.801,36.225-107.346,80.796c-26.868,34.91-43.534,65.063-52.417,94.848
		c-6.847,20.051-8.928,49.545,7.784,67.037c14.209,14.852,33.05,11.635,46.355,6.294c28.827-14.198,54.736-44.791,67.646-79.993
		C496.376,160.814,499.834,146.031,494.47,134.759L494.47,134.759z M560.756,24.471c-3.816,43.765-37.835,69.455-46.252,71.501
		c-5.101,1.023-13.805-1.244-6.035-19.611c11.443-24.739,30.979-45.741,51.94-56.5C560.919,21.691,560.906,22.859,560.756,24.471
		L560.756,24.471z"/>
	<path id="path11" fill="#F40000" d="M762.555,30.031c-18.299,10.394-37.268,17.125-60.231,14.784
		c-6.364,7.174-12.56,14.565-18.271,22.175c32.229,8.197,66.397-10.026,85.452-27.369C789.663,22.129,800,0.102,800,0.102
		S784.89,17.372,762.555,30.031L762.555,30.031z"/>
	<polygon id="polygon13" fill="#F40000" points="416.729,66.476 392.725,66.476 379.185,88.476 403.184,88.476 	"/>
	<path id="path15" fill="#F40000" d="M702.228,230.546c-2.581,1.756-6.207,0.406-4.851-3.618
		c3.377-10.246,16.803-31.126,16.803-31.126l37.396-66.326H725.96c-1.217,2-3.821,6.593-3.821,6.593
		c-1.185-1.974-4.729-6.364-6.188-7.312c-6.258-3.955-15.44-2.085-21.774,1.5c-27.539,16.103-47.632,47.918-63.478,72.729
		c0,0-16.681,27.58-25.941,29.631c-7.229,0.586-6.483-9.152-6.17-11.421c2.795-16.396,9.286-31.983,15.826-46.108
		c13.301-9.221,28.481-21.296,42.276-34.542c29.938-28.618,55.177-61.039,58.866-68.284c0,0-3.993,0.806-8.708,0.951
		c-23.032,32.128-70.164,78.822-84.453,85.773c6.33-15.225,47.227-87.896,82.03-122.658l5.477-5.271
		c8.468-8.27,17.243-16.759,24.081-18.15c0.722-0.073,1.652,0,2.455,1.686c0.305,6.439-2.092,11.197-4.842,16.612l-3.854,7.905
		c0,0,5.459-1.025,9.044-2.199c4.16-7.827,8.767-16.612,7.069-27.075c-0.567-3.367-3.004-5.928-6.189-6.514
		c-10.382-1.976-21.697,5.706-30.801,11.929l-0.368,0.218c-46.801,36.666-86.321,89.506-120.872,161.667
		c-2.504,1.9-12.179,4.171-13.824,3.072c3.412-7.024,7.708-16.467,9.858-26.713c0.372-2.928,0.718-5.927,0.718-8.854
		c0-6.299-1.512-12.225-7.155-16.322c-6.616-3.294-14.793-1.756-20.306,0.731c-24.698,10.246-43.157,35.57-56.477,56.425
		c-7.164,13.25-14.307,27.441-16.285,43.691c-1.393,12.732,1.443,20.929,8.682,25.029c7.445,3.803,16.815-0.15,20.496-2.051
		c25.021-13.173,42.503-39.591,56.284-63.744c0.548-0.072,8.072-0.29,13.763-1.756c0.076,0,0.108,0,0.234,0.077
		c-0.326,1.093-3.267,9.878-3.267,9.878c-8.734,25.613-12.773,43.033-4.523,53.35c11.789,14.565,31.306-0.51,47.183-20.42
		c-3.408,23.858,8.957,27.592,18.382,25.764c10.827-2.926,22.892-14.492,28.491-20.418c-1.798,6.951-1.309,19.394,8.54,20.637
		c6.751,1.248,11.803-2.424,17.649-5.572c20.969-11.418,46.07-49.465,52.587-60.465h-8.545
		C728.846,203.476,717.057,221.833,702.228,230.546L702.228,230.546z M514.01,227.998c-1.33-1.976-1.771-4.137-1.815-6.473
		c-0.255-14.35,15.184-40.049,26.082-54.049c0.023,0,0.023,0,0.023,0c4.567,10,14.909,16.428,21.152,19.137
		C551.698,203.886,525.105,240.878,514.01,227.998L514.01,227.998z M563.828,178.891c-0.739,0.515-13.78-3.878-16.3-15.953
		c-2.138-10.396,5.021-18.519,11.947-22.614c2.973-2.343,7.451-3.146,10.736-1.98c3.049,2.052,3.875,5.714,3.875,9.66
		c0,2.42-0.321,4.906-0.604,7.174c0,0-0.054,0.441-0.063,0.514C571.246,163.813,567.921,171.791,563.828,178.891L563.828,178.891z
		 M668.424,223.388c-0.011,0-2.474,2.195-2.474,2.195c-3.518,3.145-7.138,6.512-11.508,4.828c-1.207-0.439-2.056-2.047-2.26-3.295
		c-0.199-9.002,3.855-17.343,7.786-25.465l1.008-2.124c11.308-18.881,24.452-41.129,43.756-56.569
		c3.253-2.347,6.783-4.319,10.509-2.781c0.857,0.803,1.855,2.195,1.855,3.584c0,0.441-0.391,1.611-0.617,1.975
		c-5.391,8.713-10.526,17.86-15.519,26.641C691.202,189.723,681.079,207.651,668.424,223.388L668.424,223.388z"/>
</g>
</svg>
