<?xml version="1.0" encoding="utf-8"?>
<!-- Generator: Adobe Illustrator 12.0.0, SVG Export Plug-In . SVG Version: 6.00 Build 51448)  -->
<!DOCTYPE svg PUBLIC "-//W3C//DTD SVG 1.1//EN" "http://www.w3.org/Graphics/SVG/1.1/DTD/svg11.dtd" [
	<!ENTITY ns_svg "http://www.w3.org/2000/svg">
	<!ENTITY ns_xlink "http://www.w3.org/1999/xlink">
]>
<svg  version="1.1" xmlns="&ns_svg;" xmlns:xlink="&ns_xlink;" width="555.068" height="133.752" viewBox="0 0 555.068 133.752"
	 overflow="visible" enable-background="new 0 0 555.068 133.752" xml:space="preserve">
<g id="Layer_1">
	<polygon fill-rule="evenodd" clip-rule="evenodd" fill="#E74C3B" points="113.074,98.888 57.788,130.784 2.5,98.888 2.5,35.098 
		57.787,3.202 113.074,35.098 	"/>
	<polygon fill-rule="evenodd" clip-rule="evenodd" fill="#303131" points="13.503,104.598 42.339,121.162 112.743,80.514 
		112.816,47.259 	"/>
	<polygon fill-rule="evenodd" clip-rule="evenodd" fill="#303131" points="2.745,85.921 2.766,52.667 73.106,11.91 101.968,28.427 	
		"/>
	<path fill-rule="evenodd" clip-rule="evenodd" fill="#FFFFFF" d="M115.575,100.331l-57.787,33.337L0,100.331V33.655L57.787,0.317
		l57.788,33.338V100.331z M110.748,97.544l-52.96,30.554L4.827,97.545V36.44l52.96-30.553l52.96,30.553V97.544z"/>
</g>
<g id="Layer_4">
	<path fill="#FFFFFF" d="M201.146,42.027c-1.337-1.781-2.96-3.308-4.87-4.582c-1.909-1.273-3.947-2.34-6.11-3.2
		c-2.165-0.858-4.424-1.494-6.779-1.909c-2.355-0.413-4.616-0.62-6.779-0.62c-5.22,0-10.059,0.828-14.513,2.482
		c-4.456,1.656-8.323,4.011-11.601,7.064c-3.279,3.056-5.856,6.765-7.733,11.124c-1.878,4.36-2.817,9.247-2.817,14.656
		c0,5.283,0.891,10.106,2.673,14.465c1.781,4.361,4.264,8.116,7.447,11.268c3.183,3.15,6.985,5.602,11.41,7.352
		c4.423,1.749,9.276,2.625,14.561,2.625c5.792,0,10.852-1.035,15.181-3.104c4.328-2.066,7.987-4.979,10.98-8.735l-9.644-6.778
		c-1.719,2.354-3.979,4.247-6.779,5.68c-2.802,1.433-6.015,2.148-9.644,2.148c-3.501,0-6.652-0.604-9.452-1.814
		c-2.802-1.208-5.204-2.911-7.208-5.107c-2.006-2.196-3.549-4.822-4.631-7.876c-1.083-3.057-1.623-6.429-1.623-10.122
		c0-3.499,0.556-6.746,1.67-9.738c1.113-2.992,2.705-5.601,4.774-7.829c2.067-2.228,4.535-3.979,7.399-5.252
		c2.865-1.272,6.046-1.909,9.548-1.909c2.736,0,5.538,0.557,8.402,1.671c2.864,1.113,5.187,2.88,6.97,5.299L201.146,42.027z"/>
	<path fill="#FFFFFF" d="M209.596,87.857c1.304,2.993,3.071,5.555,5.299,7.687c2.228,2.134,4.87,3.805,7.925,5.013
		c3.056,1.208,6.302,1.814,9.739,1.814c3.437,0,6.683-0.606,9.738-1.814c3.056-1.208,5.697-2.879,7.925-5.013
		c2.228-2.132,3.994-4.693,5.299-7.687c1.303-2.991,1.958-6.301,1.958-9.93c0-3.627-0.655-6.922-1.958-9.883
		c-1.305-2.959-3.072-5.489-5.299-7.59c-2.229-2.101-4.87-3.723-7.926-4.869c-3.055-1.146-6.301-1.718-9.738-1.718
		c-3.438,0-6.684,0.572-9.739,1.718c-3.055,1.146-5.697,2.769-7.925,4.869c-2.229,2.101-3.995,4.631-5.299,7.59
		c-1.305,2.961-1.957,6.256-1.957,9.883C207.64,81.556,208.291,84.866,209.596,87.857z M220.099,72.629
		c0.541-1.751,1.352-3.325,2.435-4.728c1.082-1.399,2.45-2.529,4.105-3.39c1.654-0.859,3.628-1.289,5.92-1.289
		c2.291,0,4.263,0.43,5.92,1.289c1.654,0.86,3.023,1.99,4.105,3.39c1.081,1.402,1.894,2.977,2.435,4.728
		c0.54,1.751,0.811,3.517,0.811,5.298c0,1.783-0.271,3.564-0.811,5.348c-0.541,1.781-1.354,3.374-2.435,4.772
		c-1.083,1.401-2.452,2.548-4.105,3.438c-1.657,0.894-3.629,1.338-5.92,1.338c-2.292,0-4.266-0.444-5.92-1.338
		c-1.656-0.89-3.024-2.036-4.105-3.438c-1.083-1.398-1.895-2.991-2.435-4.772c-0.542-1.783-0.812-3.564-0.812-5.348
		C219.288,76.146,219.558,74.38,220.099,72.629z"/>
	<path fill="#FFFFFF" d="M317.534,28.851h-11.457v32.177h-0.287c-0.573-0.764-1.306-1.559-2.195-2.388
		c-0.893-0.827-1.957-1.59-3.199-2.292c-1.241-0.699-2.689-1.287-4.345-1.765c-1.655-0.478-3.532-0.716-5.633-0.716
		c-3.245,0-6.239,0.62-8.975,1.862c-2.737,1.241-5.093,2.945-7.066,5.108c-1.974,2.165-3.501,4.711-4.583,7.637
		c-1.083,2.93-1.623,6.08-1.623,9.453c0,3.375,0.526,6.541,1.575,9.5c1.052,2.961,2.546,5.539,4.489,7.734
		c1.939,2.196,4.297,3.948,7.065,5.251c2.769,1.304,5.902,1.958,9.404,1.958c3.245,0,6.285-0.702,9.117-2.101
		c2.832-1.399,5.045-3.437,6.636-6.111h0.191v6.875h10.885V28.851z M280.633,72.629c0.538-1.751,1.351-3.325,2.435-4.728
		c1.08-1.399,2.448-2.529,4.105-3.39c1.654-0.859,3.595-1.289,5.823-1.289c2.101,0,3.977,0.447,5.634,1.337
		c1.653,0.892,3.07,2.037,4.248,3.437c1.178,1.4,2.067,2.992,2.674,4.773c0.604,1.783,0.906,3.566,0.906,5.347
		c0,1.783-0.302,3.55-0.907,5.299c-0.605,1.752-1.495,3.328-2.673,4.727c-1.178,1.401-2.595,2.531-4.249,3.391
		c-1.656,0.858-3.532,1.289-5.633,1.289c-2.229,0-4.169-0.444-5.823-1.338c-1.657-0.89-3.025-2.036-4.105-3.438
		c-1.084-1.398-1.896-2.991-2.435-4.772c-0.543-1.783-0.813-3.564-0.813-5.348C279.819,76.146,280.09,74.38,280.633,72.629z"/>
	<path fill="#FFFFFF" d="M342.644,73.536c0.254-3.247,1.574-5.903,3.962-7.972c2.389-2.068,5.3-3.104,8.736-3.104
		c1.847,0,3.453,0.302,4.823,0.907c1.367,0.606,2.496,1.417,3.388,2.435c0.891,1.018,1.543,2.195,1.958,3.532
		c0.414,1.337,0.621,2.737,0.621,4.201H342.644z M375.917,67.855c-1.113-3.086-2.657-5.666-4.631-7.734s-4.313-3.627-7.017-4.679
		c-2.706-1.05-5.648-1.575-8.832-1.575c-3.437,0-6.636,0.589-9.596,1.766c-2.96,1.179-5.521,2.833-7.685,4.965
		c-2.165,2.133-3.867,4.711-5.11,7.734c-1.24,3.022-1.859,6.382-1.859,10.072c0,3.756,0.619,7.112,1.859,10.073
		c1.243,2.96,2.961,5.459,5.157,7.495c2.196,2.038,4.789,3.613,7.783,4.727c2.988,1.111,6.268,1.671,9.831,1.671
		c8.594,0,15.149-3.057,19.669-9.166l-7.638-6.111c-1.274,1.847-2.896,3.295-4.87,4.345c-1.973,1.05-4.39,1.575-7.254,1.575
		c-1.658,0-3.248-0.287-4.776-0.86c-1.525-0.572-2.896-1.351-4.105-2.339c-1.209-0.985-2.181-2.162-2.911-3.533
		c-0.732-1.367-1.162-2.879-1.289-4.535h34.852c0.062-0.508,0.093-1.018,0.093-1.527c0-0.508,0-1.017,0-1.527
		C377.588,74.554,377.031,70.943,375.917,67.855z"/>
	<path fill="#FFFFFF" d="M392.388,101.034h22.245c3.502,0,6.797-0.397,9.884-1.193c3.088-0.795,5.775-1.973,8.068-3.533
		c2.292-1.559,4.104-3.548,5.441-5.968c1.336-2.419,2.005-5.251,2.005-8.498c0-2.354-0.368-4.486-1.099-6.396
		c-0.732-1.909-1.767-3.564-3.103-4.965c-1.337-1.398-2.927-2.531-4.773-3.39s-3.852-1.415-6.015-1.671V65.23
		c3.564-0.956,6.429-2.706,8.592-5.253c2.165-2.545,3.248-5.696,3.248-9.453c0-3.245-0.622-5.951-1.862-8.114
		c-1.241-2.164-2.865-3.917-4.869-5.253c-2.005-1.336-4.282-2.291-6.827-2.864c-2.547-0.573-5.093-0.859-7.639-0.859h-23.297
		V101.034z M401.841,41.358h10.787c4.521,0,8.117,0.781,10.791,2.34c2.673,1.561,4.009,4.153,4.009,7.782
		c0,1.847-0.35,3.421-1.049,4.725c-0.702,1.306-1.657,2.388-2.864,3.247c-1.21,0.858-2.627,1.496-4.251,1.91
		c-1.621,0.414-3.325,0.619-5.107,0.619h-12.315V41.358z M401.841,70.003h12.699c5.154,0,9.102,0.891,11.839,2.672
		c2.735,1.783,4.105,4.68,4.105,8.689c0,2.291-0.495,4.187-1.481,5.681c-0.987,1.497-2.29,2.689-3.914,3.581
		s-3.437,1.512-5.441,1.861c-2.005,0.352-3.996,0.525-5.968,0.525h-11.839V70.003z"/>
	<path fill="#FFFFFF" d="M461.8,74.396c0.127-1.782,0.588-3.453,1.386-5.015c0.796-1.56,1.813-2.911,3.054-4.058
		c1.243-1.146,2.707-2.052,4.393-2.721c1.687-0.668,3.486-1.002,5.396-1.002c2.101,0,3.929,0.334,5.491,1.002
		c1.557,0.668,2.861,1.574,3.913,2.721c1.049,1.146,1.847,2.498,2.388,4.058c0.539,1.562,0.842,3.232,0.907,5.015H461.8z
		 M496.361,68.236c-1.021-2.895-2.474-5.361-4.354-7.399c-1.883-2.036-4.178-3.595-6.89-4.679c-2.712-1.081-5.727-1.623-9.042-1.623
		c-3.317,0-6.41,0.589-9.28,1.767c-2.872,1.178-5.358,2.816-7.464,4.917s-3.748,4.63-4.929,7.59c-1.179,2.96-1.77,6.191-1.77,9.692
		c0,3.564,0.604,6.812,1.816,9.738c1.206,2.928,2.864,5.427,4.965,7.495s4.612,3.675,7.542,4.821
		c2.927,1.146,6.109,1.719,9.547,1.719c4.009,0,7.653-0.759,10.933-2.271c3.279-1.517,6.125-3.877,8.544-7.087l-6.301-5.06
		c-1.272,1.91-3.022,3.533-5.25,4.869c-2.23,1.338-4.87,2.007-7.926,2.007c-1.974,0-3.836-0.349-5.584-1.044
		c-1.754-0.695-3.295-1.659-4.631-2.891c-1.337-1.232-2.404-2.688-3.199-4.363c-0.798-1.674-1.228-3.459-1.29-5.357h35.997
		c0.062-0.508,0.096-1.018,0.096-1.527c0-0.508,0-1.018,0-1.527C497.893,74.396,497.382,71.133,496.361,68.236z"/>
	<path fill="#FFFFFF" d="M518.897,74.396c0.127-1.782,0.588-3.453,1.383-5.015c0.795-1.56,1.816-2.911,3.057-4.058
		s2.704-2.052,4.393-2.721c1.687-0.668,3.483-1.002,5.395-1.002c2.102,0,3.93,0.334,5.488,1.002c1.56,0.668,2.865,1.574,3.917,2.721
		c1.049,1.146,1.844,2.498,2.385,4.058c0.542,1.562,0.845,3.232,0.907,5.015H518.897z M553.456,68.236
		c-1.021-2.895-2.471-5.361-4.351-7.399c-1.884-2.036-4.181-3.595-6.89-4.679c-2.715-1.081-5.727-1.623-9.042-1.623
		c-3.32,0-6.413,0.589-9.282,1.767c-2.87,1.178-5.359,2.816-7.463,4.917c-2.105,2.101-3.747,4.63-4.929,7.59
		c-1.181,2.96-1.769,6.191-1.769,9.692c0,3.564,0.604,6.812,1.813,9.738c1.21,2.928,2.865,5.427,4.966,7.495
		s4.615,3.675,7.542,4.821c2.93,1.146,6.112,1.719,9.549,1.719c4.01,0,7.654-0.759,10.933-2.271
		c3.276-1.517,6.126-3.877,8.545-7.087l-6.302-5.06c-1.274,1.91-3.022,3.533-5.25,4.869c-2.229,1.338-4.871,2.007-7.926,2.007
		c-1.973,0-3.835-0.349-5.586-1.044s-3.295-1.659-4.631-2.891c-1.337-1.232-2.404-2.688-3.199-4.363
		c-0.795-1.674-1.225-3.459-1.287-5.357h35.996c0.063-0.508,0.094-1.018,0.094-1.527c0-0.508,0-1.018,0-1.527
		C554.987,74.396,554.477,71.133,553.456,68.236z"/>
</g>
</svg>
