<?xml version="1.0" encoding="UTF-8" standalone="no"?>
<svg width="2121px" height="510px" viewBox="0 0 2121 510" version="1.1" xmlns="http://www.w3.org/2000/svg" xmlns:xlink="http://www.w3.org/1999/xlink">
    <!-- Generator: Sketch 3.6.1 (26313) - http://www.bohemiancoding.com/sketch -->
    <title>CodeBee</title>
    <desc>Created with Sketch.</desc>
    <defs></defs>
    <g id="Page-1" stroke="none" stroke-width="1" fill="none" fill-rule="evenodd">
        <g id="CodeBee" transform="translate(0.000000, -1.000000)">
            <g id="Layer_1">
                <path d="M432.04394,377.840716 L220.80191,499.712 L9.55223881,377.840716 L9.55223881,134.105791 L220.79809,12.2345075 L432.04394,134.105791 L432.04394,377.840716 Z" id="Shape" fill="#E74C3B"></path>
                <path d="M51.5935522,399.65803 L161.772896,462.947343 L430.779224,307.635582 L431.058149,180.571701 L51.5935522,399.65803 Z" id="Shape" fill="#303131"></path>
                <path d="M10.4883582,328.295164 L10.568597,201.235104 L279.330388,45.5068657 L389.609075,108.616597 L10.4883582,328.295164 Z" id="Shape" fill="#303131"></path>
                <path d="M441.6,383.354269 L220.80191,510.731463 L0,383.354269 L0,128.592239 L220.79809,1.21122388 L441.6,128.592239 L441.6,383.354269 L441.6,383.354269 Z M423.156537,372.705433 L220.80191,489.449075 L18.4434627,372.709254 L18.4434627,139.233433 L220.79809,22.4936119 L423.152716,139.233433 L423.152716,372.705433 L423.156537,372.705433 Z" id="Shape" fill="#FFFFFF"></path>
            </g>
            <g id="Layer_4" transform="translate(531.104478, 106.985075)" fill="#FFFFFF">
                <path d="M237.453373,53.5957015 C232.344836,46.7906866 226.143522,40.9561791 218.845612,36.0883582 C211.551522,31.2243582 203.764537,27.1474627 195.49994,23.8614925 C187.227701,20.5831642 178.596299,18.1530746 169.59809,16.567403 C160.599881,14.9893731 151.960836,14.1984478 143.696239,14.1984478 C123.751164,14.1984478 105.261851,17.3621493 88.2435821,23.6819104 C71.2176716,30.0093134 56.4422687,39.0075224 43.9173731,50.6727164 C31.3886567,62.3493731 21.542209,76.5210746 14.3703881,93.1763582 C7.19474627,109.835463 3.60692537,128.508179 3.60692537,149.175403 C3.60692537,169.361194 7.01134328,187.789373 13.8201791,204.444657 C20.625194,221.107582 30.1124776,235.455045 42.2743881,247.498507 C54.4362985,259.534328 68.9633433,268.903164 85.870806,275.589731 C102.770627,282.272478 121.313433,285.619582 141.506866,285.619582 C163.637493,285.619582 182.971224,281.664955 199.511881,273.759522 C216.048716,265.865552 230.029373,254.735284 241.465313,240.384 L204.616597,214.48597 C198.048478,223.480358 189.413254,230.713313 178.714746,236.188657 C168.008597,241.664 155.73206,244.39594 141.86603,244.39594 C128.489075,244.39594 116.449433,242.088119 105.750925,237.464836 C95.0447761,232.849194 85.8669851,226.342209 78.2099104,217.951522 C70.545194,209.560836 64.6495522,199.527164 60.5153433,187.858149 C56.3773134,176.177672 54.3140299,163.293612 54.3140299,149.183045 C54.3140299,135.813731 56.4384478,123.407284 60.6949254,111.975164 C64.9475821,100.543045 71.0304478,90.5743284 78.9358806,82.0613731 C86.8336716,73.5484179 96.2636418,66.8580299 107.206687,61.9940299 C118.153552,57.1338507 130.307821,54.6999403 143.688597,54.6999403 C154.142567,54.6999403 164.848716,56.8281791 175.791761,61.0846567 C186.734806,65.3373134 195.610746,72.0888358 202.423403,81.3315821 L237.453373,53.5957015 L237.453373,53.5957015 Z" id="Shape"></path>
                <path d="M269.73994,228.707343 C274.722388,240.143284 281.47391,249.932418 289.986866,258.078567 C298.499821,266.232358 308.594627,272.617075 320.267463,277.232716 C331.944119,281.848358 344.346746,284.163821 357.479164,284.163821 C370.611582,284.163821 383.014209,281.848358 394.687045,277.232716 C406.363701,272.617075 416.454687,266.232358 424.967642,258.078567 C433.480597,249.932418 440.228299,240.147104 445.214567,228.707343 C450.193194,217.279045 452.695881,204.631881 452.695881,190.765851 C452.695881,176.907463 450.193194,164.317612 445.214567,153.00394 C440.228299,141.69791 433.476776,132.031045 424.967642,124.003343 C416.450866,115.975642 406.359881,109.778149 394.683224,105.399403 C383.010388,101.020657 370.607761,98.8351045 357.475343,98.8351045 C344.339104,98.8351045 331.936478,101.020657 320.263642,105.399403 C308.590806,109.778149 298.496,115.979463 289.983045,124.003343 C281.466269,132.031045 274.718567,141.69791 269.736119,153.00394 C264.749851,164.317612 262.258627,176.907463 262.258627,190.765851 C262.266269,204.631881 264.753672,217.279045 269.73994,228.707343 L269.73994,228.707343 Z M309.870806,170.522746 C311.93791,163.832358 315.036657,157.818269 319.174687,152.457552 C323.308896,147.112119 328.535881,142.794507 334.859463,139.504716 C341.179224,136.222567 348.721672,134.579582 357.479164,134.579582 C366.232836,134.579582 373.767642,136.222567 380.098866,139.504716 C386.418627,142.790687 391.649433,147.108299 395.783642,152.457552 C399.91403,157.814448 403.020418,163.832358 405.087522,170.522746 C407.150806,177.213134 408.186269,183.960836 408.186269,190.765851 C408.186269,197.578507 407.150806,204.383522 405.087522,211.2 C403.020418,218.005015 399.91403,224.091701 395.783642,229.433313 C391.645612,234.786388 386.414806,239.168955 380.098866,242.569552 C373.767642,245.985433 366.232836,247.68191 357.479164,247.68191 C348.721672,247.68191 341.179224,245.985433 334.859463,242.569552 C328.53206,239.168955 323.305075,234.790209 319.174687,229.433313 C315.036657,224.091701 311.93409,218.005015 309.870806,211.2 C307.799881,204.387343 306.768239,197.582328 306.768239,190.765851 C306.77206,183.960836 307.803701,177.213134 309.870806,170.522746 L309.870806,170.522746 Z" id="Shape"></path>
                <path d="M682.159761,3.25158209 L638.383761,3.25158209 L638.383761,126.196537 L637.287164,126.196537 C635.097791,123.277373 632.297075,120.239761 628.900299,117.072239 C625.488239,113.912358 621.422806,110.997015 616.677254,108.314746 C611.935522,105.64394 606.402866,103.397254 600.075463,101.570866 C593.751881,99.7444776 586.58006,98.8351045 578.552358,98.8351045 C566.153552,98.8351045 554.713791,101.20406 544.259821,105.949612 C533.80203,110.691343 524.8,117.202149 517.261373,125.466746 C509.718925,133.738985 503.884418,143.466985 499.750209,154.646925 C495.612179,165.842149 493.548896,177.87797 493.548896,190.765851 C493.548896,203.661373 495.558687,215.758328 499.566806,227.064358 C503.586388,238.37803 509.294806,248.228299 516.718806,256.615164 C524.127522,265.005851 533.137194,271.70006 543.713433,276.678687 C554.293493,281.661134 566.264358,284.16 579.645134,284.16 C592.04394,284.16 603.659463,281.477731 614.480239,276.132299 C625.301015,270.786866 633.756657,262.999881 639.835701,252.782806 L640.565493,252.782806 L640.565493,279.051463 L682.15594,279.051463 L682.15594,3.25158209 L682.159761,3.25158209 Z M541.164896,170.522746 C543.220537,163.832358 546.326925,157.818269 550.468776,152.457552 C554.595343,147.112119 559.822328,142.794507 566.153552,139.504716 C572.473313,136.222567 579.889672,134.579582 588.402627,134.579582 C596.430328,134.579582 603.598328,136.287522 609.929552,139.688119 C616.245493,143.096358 621.659701,147.471284 626.160716,152.820537 C630.661731,158.169791 634.058507,164.252657 636.377791,171.057672 C638.685612,177.870328 639.839522,184.682985 639.839522,191.488 C639.839522,198.300657 638.685612,205.052179 636.37397,211.734925 C634.062328,218.429134 630.661731,224.450866 626.160716,229.796299 C621.659701,235.149373 616.245493,239.466985 609.925731,242.752955 C603.598328,246.031284 596.430328,247.67809 588.402627,247.67809 C579.885851,247.67809 572.473313,245.981612 566.153552,242.565731 C559.822328,239.165134 554.595343,234.786388 550.468776,229.429493 C546.326925,224.087881 543.224358,218.001194 541.164896,211.196179 C539.090149,204.383522 538.058507,197.578507 538.058507,190.76203 C538.054687,183.960836 539.090149,177.213134 541.164896,170.522746 L541.164896,170.522746 Z" id="Shape"></path>
                <path d="M778.102448,173.988299 C779.072955,161.581851 784.116537,151.433552 793.240836,143.528119 C802.368955,135.626507 813.491582,131.66806 826.620179,131.66806 C833.677373,131.66806 839.813731,132.82197 845.048358,135.133612 C850.271522,137.449075 854.585313,140.547821 857.993552,144.437493 C861.39797,148.327164 863.889194,152.824358 865.474866,157.932896 C867.056716,163.041433 867.847642,168.390687 867.847642,173.984478 L778.102448,173.984478 L778.102448,173.988299 Z M905.235104,152.281791 C900.982448,140.490507 895.082985,130.632597 887.540537,122.730985 C879.99809,114.829373 871.061015,108.872597 860.729313,104.853015 C850.38997,100.841075 839.148896,98.8351045 826.983164,98.8351045 C813.850746,98.8351045 801.627701,101.085612 790.317851,105.582806 C779.008,110.087642 769.222687,116.407403 760.954269,124.553552 C752.68203,132.703522 746.178866,142.553791 741.429493,154.104358 C736.691582,165.651104 734.326448,178.489313 734.326448,192.588418 C734.326448,206.939701 736.691582,219.762627 741.429493,231.076299 C746.178866,242.386149 752.743164,251.934567 761.133851,259.71391 C769.524537,267.500896 779.432119,273.518806 790.871881,277.775284 C802.288716,282.020299 814.821254,284.16 828.435104,284.16 C861.271881,284.16 886.317851,272.479522 903.588299,249.137672 L874.404299,225.788179 C869.536478,232.845373 863.338985,238.37803 855.796537,242.38997 C848.25791,246.40191 839.022806,248.407881 828.079761,248.407881 C821.744716,248.407881 815.669493,247.311284 809.831164,245.12191 C804.004299,242.936358 798.765851,239.959881 794.146388,236.184836 C789.526925,232.421254 785.813015,227.92406 783.023761,222.685612 C780.226866,217.462448 778.583881,211.685254 778.098627,205.357851 L911.264478,205.357851 C911.501373,203.416836 911.619821,201.468179 911.619821,199.523343 L911.619821,193.688836 C911.619821,177.87797 909.491582,164.080716 905.235104,152.281791 L905.235104,152.281791 Z" id="Shape"></path>
                <path d="M968.169075,279.055284 L1053.1649,279.055284 C1066.54567,279.055284 1079.13552,277.538388 1090.93063,274.496955 C1102.72955,271.459343 1112.9963,266.958328 1121.75761,260.997731 C1130.5151,255.040955 1137.43857,247.441194 1142.5471,238.194627 C1147.65182,228.951881 1150.208,218.131104 1150.208,205.724657 C1150.208,196.730269 1148.80191,188.584119 1146.00884,181.286209 C1143.21194,173.992119 1139.25731,167.668537 1134.1526,162.315463 C1129.04406,156.973851 1122.96884,152.644776 1115.91546,149.362627 C1108.86209,146.080478 1101.19737,143.95606 1092.93278,142.97791 L1092.93278,142.25194 C1106.55045,138.599164 1117.49731,131.912597 1125.76191,122.180776 C1134.03415,112.456597 1138.17218,100.416955 1138.17218,86.0618507 C1138.17218,73.6630448 1135.79558,63.3237015 1131.05767,55.0591045 C1126.31594,46.7906866 1120.11081,40.0926567 1112.45373,34.9879403 C1104.79284,29.8832239 1096.09266,26.2342687 1086.36848,24.0448955 C1076.63666,21.8555224 1066.90866,20.7627463 1057.18066,20.7627463 L968.165254,20.7627463 L968.165254,279.055284 L968.169075,279.055284 Z M1004.288,51.0395224 L1045.504,51.0395224 C1062.77827,51.0395224 1076.51821,54.0236418 1086.73528,59.9804179 C1096.94854,65.9448358 1102.05325,75.848597 1102.05325,89.7146269 C1102.05325,96.7718209 1100.71594,102.78591 1098.04513,107.768358 C1095.36287,112.758448 1091.71391,116.892657 1087.10209,120.174806 C1082.47881,123.453134 1077.0646,125.890866 1070.85946,127.472716 C1064.66579,129.054567 1058.15499,129.837851 1051.34615,129.837851 L1004.29182,129.837851 L1004.29182,51.0395224 L1004.288,51.0395224 Z M1004.288,160.489075 L1052.80955,160.489075 C1072.50245,160.489075 1087.58734,163.893493 1098.04513,170.698507 C1108.49528,177.511164 1113.72991,188.580299 1113.72991,203.898269 C1113.72991,212.65194 1111.83857,219.896358 1108.07116,225.604776 C1104.29994,231.324657 1099.32131,235.879164 1093.11618,239.287403 C1086.91104,242.695642 1079.98376,245.064597 1072.32669,246.39809 C1064.66579,247.743045 1057.05839,248.40406 1049.52358,248.40406 L1004.288,248.40406 L1004.288,160.489075 L1004.288,160.489075 Z" id="Shape"></path>
                <path d="M1233.38507,177.274269 C1233.87033,170.465433 1235.63176,164.080716 1238.68084,158.112478 C1241.72227,152.151881 1245.60812,146.989851 1250.34985,142.607284 C1255.09922,138.228537 1260.69301,134.766806 1267.13504,132.210627 C1273.5809,129.658269 1280.45469,128.38209 1287.7526,128.38209 C1295.7803,128.38209 1302.7649,129.658269 1308.73313,132.210627 C1314.68227,134.762985 1319.66472,138.224716 1323.6843,142.607284 C1327.69242,146.98603 1330.74149,152.151881 1332.8086,158.112478 C1334.86806,164.080716 1336.02579,170.461612 1336.27415,177.274269 L1233.38507,177.274269 L1233.38507,177.274269 Z M1365.43904,153.737552 C1361.53791,142.67606 1355.98615,133.253731 1348.80287,125.466746 C1341.60812,117.687403 1332.83916,111.730627 1322.4769,107.588776 C1312.11463,103.458388 1300.59463,101.387463 1287.92836,101.387463 C1275.25445,101.387463 1263.43642,103.63797 1252.47045,108.138985 C1241.49684,112.64 1231.99809,118.898627 1223.95128,126.926328 C1215.90448,134.95403 1209.63057,144.617075 1205.11809,155.926925 C1200.61325,167.236776 1198.3551,179.58209 1198.3551,192.959045 C1198.3551,206.576716 1200.66293,218.986985 1205.29385,230.166925 C1209.90185,241.354507 1216.2369,250.902925 1224.2646,258.804537 C1232.2923,266.706149 1241.88657,272.846328 1253.08179,277.225075 C1264.26555,281.603821 1276.42364,283.793194 1289.55988,283.793194 C1304.87785,283.793194 1318.80119,280.893134 1331.33373,275.11594 C1343.86245,269.319642 1354.73672,260.302328 1363.97946,248.037254 L1339.904,228.703522 C1335.04382,236.001433 1328.35725,242.202746 1319.8443,247.307463 C1311.3237,252.419821 1301.23654,254.976 1289.55988,254.976 C1282.01743,254.976 1274.90293,253.642507 1268.224,250.986985 C1261.52215,248.331463 1255.63415,244.648119 1250.52943,239.940776 C1245.4209,235.233433 1241.344,229.670209 1238.30639,223.270209 C1235.25731,216.87403 1233.61433,210.053731 1233.37743,202.801672 L1370.91821,202.801672 C1371.1551,200.860657 1371.28501,198.912 1371.28501,196.967164 L1371.28501,191.132657 C1371.29266,177.274269 1369.34018,164.806687 1365.43904,153.737552 L1365.43904,153.737552 Z" id="Shape"></path>
                <path d="M1451.54675,177.274269 C1452.032,170.465433 1453.79343,164.080716 1456.83104,158.112478 C1459.86866,152.151881 1463.76979,146.989851 1468.51152,142.607284 C1473.25325,138.224716 1478.84322,134.766806 1485.29672,132.210627 C1491.74257,129.658269 1498.6049,128.38209 1505.91045,128.38209 C1513.94197,128.38209 1520.92657,129.658269 1526.87952,132.210627 C1532.84012,134.762985 1537.82639,138.224716 1541.84597,142.607284 C1545.85409,146.98603 1548.8917,152.151881 1550.95881,158.112478 C1553.02973,164.080716 1554.18746,170.461612 1554.42436,177.274269 L1451.54675,177.274269 L1451.54675,177.274269 Z M1583.59307,153.737552 C1579.69194,142.67606 1574.15164,133.253731 1566.96836,125.466746 C1559.76979,117.687403 1550.99319,111.730627 1540.64239,107.588776 C1530.26866,103.458388 1518.76012,101.387463 1506.09385,101.387463 C1493.40848,101.387463 1481.59045,103.63797 1470.6283,108.138985 C1459.66233,112.64 1450.15212,118.898627 1442.11296,126.926328 C1434.06997,134.95403 1427.79606,144.617075 1423.27976,155.926925 C1418.76728,167.236776 1416.5206,179.58209 1416.5206,192.959045 C1416.5206,206.576716 1418.82842,218.986985 1423.44788,230.166925 C1428.07116,241.354507 1434.39475,250.902925 1442.42245,258.804537 C1450.45015,266.706149 1460.05588,272.846328 1471.23964,277.225075 C1482.43487,281.603821 1494.59296,283.793194 1507.72537,283.793194 C1523.04716,283.793194 1536.97051,280.893134 1549.49922,275.11594 C1562.01648,269.319642 1572.90603,260.302328 1582.14878,248.037254 L1558.06949,228.703522 C1553.20167,236.001433 1546.52275,242.202746 1538.00979,247.307463 C1529.49301,252.419821 1519.39821,254.976 1507.72537,254.976 C1500.18675,254.976 1493.07224,253.642507 1486.38185,250.986985 C1479.69146,248.331463 1473.792,244.648119 1468.68728,239.940776 C1463.57875,235.233433 1459.50185,229.670209 1456.46424,223.270209 C1453.42663,216.87403 1451.78364,210.053731 1451.54675,202.801672 L1589.0837,202.801672 C1589.32442,200.860657 1589.44287,198.912 1589.44287,196.967164 L1589.44287,191.132657 C1589.44287,177.274269 1587.49421,164.806687 1583.59307,153.737552 L1583.59307,153.737552 Z" id="Shape"></path>
            </g>
        </g>
    </g>
</svg>