<?xml version="1.0" encoding="iso-8859-1"?>
<!-- Generator: Adobe Illustrator 19.0.0, SVG Export Plug-In . SVG Version: 6.00 Build 0)  -->
<svg version="1.1" id="Layer_1" xmlns="http://www.w3.org/2000/svg" xmlns:xlink="http://www.w3.org/1999/xlink" x="0px" y="0px"
	 viewBox="0 0 464 330" style="enable-background:new 0 0 464 330;" xml:space="preserve">
<path id="XMLID_28_" style="fill:#FFBF67;stroke:#FF9E19;stroke-width:10;stroke-miterlimit:10;" d="M422.67,193.86l-7.07,7.9
	c-10.25,11.45-21.16,21.71-32.6,30.78c-2.97,2.36-5.97,4.63-9,6.83c-0.11,0.08-0.22,0.16-0.33,0.24
	c-8.52,6.14-17.29,11.66-26.28,16.55c-3.44,1.87-6.9,3.64-10.39,5.32c-1.99,0.96-3.99,1.89-6,2.79
	c-60.49,27.16-128.47,27.2-189,0.14c-0.11-0.05-0.22-0.1-0.33-0.15c-2.57-1.15-5.13-2.35-7.67-3.61
	c-12.04-5.92-23.74-12.94-35-21.06c-3.72-2.68-7.38-5.48-11-8.4c-10.82-8.74-21.16-18.55-30.9-29.43l-7.07-7.9
	c-11.72-13.08-11.72-34.29,0-47.37l7.07-7.9c9.74-10.88,20.08-20.68,30.9-29.42c3.62-2.92,7.28-5.72,11-8.4
	c3.41-2.46,6.86-4.82,10.36-7.07c1.35-0.87,2.7-1.72,4.06-2.56c6.73-4.19,13.6-8,20.58-11.44c2.54-1.25,5.1-2.46,7.67-3.61
	C202.28,48.88,270.4,48.87,331,76.08c2.01,0.9,4.01,1.83,6,2.79c12.62,6.09,24.9,13.38,36.67,21.88c0.11,0.08,0.22,0.16,0.33,0.24
	c3.03,2.2,6.03,4.47,9,6.83c11.44,9.07,22.35,19.33,32.6,30.77l7.07,7.9C434.39,159.57,434.39,180.78,422.67,193.86z"/>
<line id="XMLID_1_" style="opacity:0.3;fill:none;stroke:#FF9E19;stroke-width:6;stroke-miterlimit:10;" x1="180" y1="167" x2="293" y2="167"/>
<line id="XMLID_5_" style="opacity:0.3;fill:none;stroke:#FF9E19;stroke-width:6;stroke-miterlimit:10;" x1="180" y1="174" x2="293" y2="174"/>
<g id="XMLID_2_">
	
		<path id="XMLID_22_" style="fill:none;stroke:#FF9E19;stroke-width:2;stroke-linecap:round;stroke-miterlimit:10;stroke-dasharray:5.9447,5.9447;" d="
		M309.589,186.501l-5.212,5.212c-37.569,37.569-98.482,37.569-136.051,0l-5.212-5.212c-9.016-9.016-9.016-23.635,0-32.652
		l5.212-5.212c37.569-37.569,98.481-37.569,136.051,0l5.212,5.212C318.606,162.865,318.606,177.484,309.589,186.501z"/>
</g>
<polyline id="XMLID_14_" style="fill:none;stroke:#FF9E19;stroke-width:10;stroke-linecap:round;stroke-linejoin:round;stroke-miterlimit:10;" points="
	197.675,194 174.175,170.5 197.675,147 "/>
<polyline id="XMLID_10_" style="fill:none;stroke:#FF9E19;stroke-width:10;stroke-linecap:round;stroke-linejoin:round;stroke-miterlimit:10;" points="
	274.75,147 298.25,170.5 274.75,194 "/>
<line id="XMLID_6_" style="fill:none;stroke:#FF9E19;stroke-width:10;stroke-linecap:round;stroke-miterlimit:10;" x1="227.675" y1="194" x2="245.333" y2="147"/>
<path id="XMLID_12_" style="fill:none;stroke:#FF9E19;stroke-width:2;stroke-linecap:round;stroke-miterlimit:10;stroke-dasharray:6;" d="
	M316.455,171C354,171,391,171,429,171"/>
<path id="XMLID_7_" style="fill:none;stroke:#FF9E19;stroke-width:2.0149;stroke-linecap:round;stroke-miterlimit:10;stroke-dasharray:6.0448;" d="
	M155.901,170.176C118,170,79,170,41.249,170.5"/>
<path id="XMLID_19_" style="fill:#FF9E19;" d="M134,79.7v180.95c-12.04-5.92-23.74-12.94-35-21.06c-3.72-2.68-7.38-5.48-11-8.4
	V109.17c3.62-2.92,7.28-5.72,11-8.4c3.41-2.46,6.86-4.82,10.36-7.07c1.35-0.87,2.7-1.72,4.06-2.56
	C120.15,86.95,127.02,83.14,134,79.7z"/>
<path id="XMLID_26_" style="fill:#FF9E19;" d="M134,265.41v-0.11C134.03,265.34,134,265.37,134,265.41z"/>
<path id="XMLID_18_" style="fill:#FF9E19;" d="M383,107.82v124.72c-2.97,2.36-5.97,4.63-9,6.83c-0.11,0.08-0.22,0.16-0.33,0.24
	c-8.52,6.14-17.29,11.66-26.28,16.55c-3.44,1.87-6.9,3.64-10.39,5.32V78.87c12.62,6.09,24.9,13.38,36.67,21.88
	c0.11,0.08,0.22,0.16,0.33,0.24C377.03,103.19,380.03,105.46,383,107.82z"/>
</svg>
