<?xml version="1.0" encoding="UTF-8" standalone="no"?>
<svg width="1639px" height="504px" viewBox="0 0 1639 504" version="1.1" xmlns="http://www.w3.org/2000/svg" xmlns:xlink="http://www.w3.org/1999/xlink">
    <!-- Generator: Sketch 3.6.1 (26313) - http://www.bohemiancoding.com/sketch -->
    <title>coles</title>
    <desc>Created with Sketch.</desc>
    <defs></defs>
    <g id="Page-1" stroke="none" stroke-width="1" fill="none" fill-rule="evenodd">
        <g id="coles" transform="translate(-4.000000, -4.000000)" fill="#E72024">
            <g id="layer1" transform="translate(0.588636, 1.254769)">
                <g id="g3130" transform="translate(0.000000, 0.002040)">
                    <path d="M392.009523,357.192008 C370.580357,442.90306 292.816814,505.902981 200.390738,505.989775 C91.5812762,505.902981 3.32222464,417.628733 3.50765056,308.668252 C3.32222464,199.75639 91.5812762,111.516877 200.390738,111.565537 C292.378624,111.516877 369.95498,175.544893 392.009523,260.530053 L311.91679,260.530053 C293.627044,218.112164 251.209277,188.58668 202.077389,188.774236 C135.68512,188.58668 81.9137741,242.275041 81.9137741,308.668252 C81.9137741,375.075348 135.68512,428.86443 202.077389,428.86443 C251.209277,428.86443 293.592801,399.391089 311.91679,357.192008" id="path2489"></path>
                    <path d="M603.064361,111.565537 C494.322237,111.430083 405.961605,199.75639 405.690532,308.532797 C405.961605,417.611366 494.322237,505.819628 603.064361,505.889096 C712.125399,505.819628 800.368517,417.611366 800.555704,308.532797 C800.368517,199.75639 712.125399,111.430083 603.064361,111.565537 M603.064361,427.582833 C537.479987,427.700961 484.166902,374.318203 484.166902,308.532797 C484.166902,242.952315 537.479987,189.632061 603.064361,189.514015 C668.884378,189.632061 722.197463,242.952315 722.197463,308.532797 C722.197463,374.318203 668.884378,427.700961 603.064361,427.582833" id="path2491"></path>
                    <path d="M825.458565,2.84123136 L825.458565,505.889096 L912.012657,505.889096 L912.012657,2.84123136 L825.458565,2.84123136 L825.458565,2.84123136 Z" id="path2493"></path>
                    <path d="M1139.56901,430.114775 C1079.01444,429.930701 1028.56618,385.418486 1028.46579,331.7649 C1028.56618,329.826836 1028.71917,327.868006 1028.92052,326.048072 L1312.56087,326.048072 C1312.67899,169.657876 1231.8616,110.857011 1132.4663,110.857011 C1055.79586,110.857011 944.963748,160.141353 945.150935,306.490573 C944.963748,427.687035 1032.91806,505.972408 1132.4663,505.889096 C1218.1948,505.972408 1290.86063,454.208225 1308.72988,368.733348 L1229.15979,368.733348 C1216.87843,407.6399 1182.22303,429.930701 1139.56901,430.114775 M1131.21608,180.421222 C1181.16057,180.421222 1222.46341,215.264174 1228.6389,259.265823 L1035.62047,258.810798 L1033.57829,259.738173 C1039.14553,215.128678 1080.75426,180.421222 1131.21608,180.421222" id="path2495"></path>
                    <path d="M1555.55508,235.561411 L1630.56841,235.561411 C1630.56841,235.561411 1633.94466,168.477 1577.94275,134.832333 C1577.94275,134.832333 1551.43889,110.756291 1477.58899,110.874337 C1477.58899,110.874337 1403.18335,109.912269 1369.30214,143.588229 C1369.30214,143.588229 1334.25816,170.029507 1334.05676,221.943071 C1334.05676,221.943071 1327.89838,271.88736 1376.84247,303.236219 C1376.84247,303.236219 1416.76335,322.231009 1455.26686,333.470188 C1455.26686,333.470188 1517.72836,350.443643 1528.17246,356.737024 C1528.17246,356.737024 1581.87827,381.521592 1549.69907,412.769772 C1549.69907,412.769772 1535.37556,432.914145 1486.69899,433.014907 C1486.69899,433.014907 1401.52623,436.0192 1401.64436,371.26529 L1325.43279,371.26529 C1325.43279,371.26529 1318.21195,440.20437 1376.84247,478.586429 C1376.84247,478.586429 1414.36682,504.183726 1487.08819,503.509934 C1487.08819,503.509934 1556.98897,502.700687 1594.1419,476.075336 C1594.1419,476.075336 1641.95684,441.704817 1641.80742,383.17482 C1641.80742,383.17482 1647.54178,323.095839 1572.13929,289.635246 C1572.13929,289.635246 1495.9797,263.853875 1476.6098,258.810798 C1476.6098,258.810798 1401.52623,242.205573 1416.50997,204.53204 C1416.50997,204.53204 1419.98662,178.886083 1480.05163,178.886083 C1480.05163,178.886083 1522.58753,178.125496 1541.07863,202.052198 C1541.07863,202.052198 1553.81826,216.59435 1555.55508,235.561411" id="path2497"></path>
                </g>
            </g>
        </g>
    </g>
</svg>