<?xml version="1.0" encoding="UTF-8" standalone="no"?>
<!-- Created with Inkscape (http://www.inkscape.org/) -->
<svg
   xmlns:dc="http://purl.org/dc/elements/1.1/"
   xmlns:cc="http://creativecommons.org/ns#"
   xmlns:rdf="http://www.w3.org/1999/02/22-rdf-syntax-ns#"
   xmlns:svg="http://www.w3.org/2000/svg"
   xmlns="http://www.w3.org/2000/svg"
   xmlns:sodipodi="http://sodipodi.sourceforge.net/DTD/sodipodi-0.dtd"
   xmlns:inkscape="http://www.inkscape.org/namespaces/inkscape"
   width="440"
   height="142.84"
   id="svg3115"
   sodipodi:version="0.32"
   inkscape:version="0.46"
   version="1.0"
   sodipodi:docname="Coles-Supermarkets-brand-2007.svg"
   inkscape:output_extension="org.inkscape.output.svg.inkscape">
  <defs
     id="defs3117">
    <inkscape:perspective
       sodipodi:type="inkscape:persp3d"
       inkscape:vp_x="0 : 526.18109 : 1"
       inkscape:vp_y="0 : 1000 : 0"
       inkscape:vp_z="744.09448 : 526.18109 : 1"
       inkscape:persp3d-origin="372.04724 : 350.78739 : 1"
       id="perspective3123" />
  </defs>
  <sodipodi:namedview
     id="base"
     pagecolor="#ffffff"
     bordercolor="#666666"
     borderopacity="1.0"
     gridtolerance="10000"
     guidetolerance="10"
     objecttolerance="10"
     inkscape:pageopacity="0.0"
     inkscape:pageshadow="2"
     inkscape:zoom="0.69"
     inkscape:cx="220"
     inkscape:cy="71.419998"
     inkscape:document-units="px"
     inkscape:current-layer="layer1"
     showgrid="false"
     inkscape:window-width="1211"
     inkscape:window-height="834"
     inkscape:window-x="23"
     inkscape:window-y="23" />
  <metadata
     id="metadata3120">
    <rdf:RDF>
      <cc:Work
         rdf:about="">
        <dc:format>image/svg+xml</dc:format>
        <dc:type
           rdf:resource="http://purl.org/dc/dcmitype/StillImage" />
      </cc:Work>
    </rdf:RDF>
  </metadata>
  <g
     inkscape:label="Layer 1"
     inkscape:groupmode="layer"
     id="layer1"
     transform="translate(-249.85629,-460.69366)">
    <g
       id="g3130"
       transform="translate(20,10.000498)">
      <path
         d="M 344.70545,547.20508 C 339.47372,568.13063 320.48848,583.51147 297.92352,583.53266 C 271.35871,583.51147 249.81109,561.96014 249.85636,535.35846 C 249.81109,508.76865 271.35871,487.2258 297.92352,487.23768 C 320.3815,487.2258 339.32104,502.85764 344.70545,523.60597 L 325.15156,523.60597 C 320.68629,513.25004 310.33039,506.04167 298.3353,506.08746 C 282.12625,506.04167 268.99848,519.14918 268.99848,535.35846 C 268.99848,551.57113 282.12625,564.70323 298.3353,564.70323 C 310.33039,564.70323 320.67793,557.50759 325.15156,547.20508"
         style="fill:#e72024;fill-opacity:1;fill-rule:evenodd;stroke:none"
         id="path2489" />
      <path
         d="M 396.23251,487.23768 C 369.68414,487.20461 348.11172,508.76865 348.04554,535.32539 C 348.11172,561.9559 369.68414,583.49112 396.23251,583.50808 C 422.85874,583.49112 444.40247,561.9559 444.44817,535.32539 C 444.40247,508.76865 422.85874,487.20461 396.23251,487.23768 M 396.23251,564.39034 C 380.2207,564.41918 367.20481,551.38628 367.20481,535.32539 C 367.20481,519.31453 380.2207,506.29689 396.23251,506.26807 C 412.30185,506.29689 425.31774,519.31453 425.31774,535.32539 C 425.31774,551.38628 412.30185,564.41918 396.23251,564.39034"
         style="fill:#e72024;fill-opacity:1;fill-rule:evenodd;stroke:none"
         id="path2491" />
      <path
         d="M 450.52797,460.69366 L 450.52797,583.50808 L 471.65934,583.50808 L 471.65934,460.69366 L 450.52797,460.69366 z"
         style="fill:#e72024;fill-opacity:1;fill-rule:nonzero;stroke:none"
         id="path2493" />
      <path
         d="M 527.21509,565.00849 C 512.43126,564.96355 500.11479,554.09631 500.09028,540.99729 C 500.11479,540.52413 500.15214,540.0459 500.2013,539.60158 L 569.44943,539.60158 C 569.47827,501.42038 549.74746,487.0647 525.48103,487.0647 C 506.76266,487.0647 479.70404,499.09701 479.74974,534.8268 C 479.70404,564.41578 501.17726,583.52842 525.48103,583.50808 C 546.41084,583.52842 564.15152,570.89068 568.51413,550.02279 L 549.08784,550.02279 C 546.08946,559.52146 537.62867,564.96355 527.21509,565.00849 M 525.1758,504.04815 C 537.36928,504.04815 547.45298,512.55473 548.96067,523.29732 L 501.83703,523.18623 L 501.33845,523.41264 C 502.69764,512.52165 512.85602,504.04815 525.1758,504.04815"
         style="fill:#e72024;fill-opacity:1;fill-rule:evenodd;stroke:none"
         id="path2495" />
      <path
         d="M 628.77419,517.51011 L 647.08799,517.51011 C 647.08799,517.51011 647.91227,501.13208 634.23993,492.91805 C 634.23993,492.91805 627.76926,487.04011 609.7395,487.06893 C 609.7395,487.06893 591.57406,486.83405 583.30228,495.05572 C 583.30228,495.05572 574.74662,501.51111 574.69745,514.18532 C 574.69745,514.18532 573.19394,526.37875 585.14318,534.03228 C 585.14318,534.03228 594.88949,538.66968 604.28976,541.41362 C 604.28976,541.41362 619.53915,545.55753 622.08898,547.094 C 622.08898,547.094 635.20075,553.14492 627.3445,560.77387 C 627.3445,560.77387 623.84755,565.69193 611.96362,565.71653 C 611.96362,565.71653 591.16949,566.45 591.19833,550.64094 L 572.59199,550.64094 C 572.59199,550.64094 570.82909,567.47177 585.14318,576.84239 C 585.14318,576.84239 594.3044,583.09173 612.05864,582.92723 C 612.05864,582.92723 629.12426,582.72966 638.1948,576.22933 C 638.1948,576.22933 649.86837,567.83809 649.83189,553.54854 C 649.83189,553.54854 651.23188,538.88082 632.82307,530.71173 C 632.82307,530.71173 614.22942,524.41745 609.50044,523.18623 C 609.50044,523.18623 591.16949,519.13222 594.82763,509.93458 C 594.82763,509.93458 595.67642,503.67336 610.34073,503.67336 C 610.34073,503.67336 620.72547,503.48767 625.2399,509.32915 C 625.2399,509.32915 628.35016,512.87948 628.77419,517.51011"
         style="fill:#e72024;fill-opacity:1;fill-rule:evenodd;stroke:none"
         id="path2497" />
    </g>
  </g>
</svg>
