<?xml version="1.0" encoding="utf-8"?>
<!-- Generator: Adobe Illustrator 18.1.1, SVG Export Plug-In . SVG Version: 6.00 Build 0)  -->
<svg version="1.1"
	 id="svg2" xmlns:dc="http://purl.org/dc/elements/1.1/" xmlns:cc="http://creativecommons.org/ns#" xmlns:rdf="http://www.w3.org/1999/02/22-rdf-syntax-ns#" xmlns:svg="http://www.w3.org/2000/svg" xmlns:sodipodi="http://sodipodi.sourceforge.net/DTD/sodipodi-0.dtd" xmlns:inkscape="http://www.inkscape.org/namespaces/inkscape" sodipodi:docname="New document 1" inkscape:version="0.48.2 r9819"
	 xmlns="http://www.w3.org/2000/svg" xmlns:xlink="http://www.w3.org/1999/xlink" x="0px" y="0px" viewBox="-99 303 1462.2 512"
	 enable-background="new -99 303 1462.2 512" xml:space="preserve">
<sodipodi:namedview  inkscape:cy="-2.7655466" inkscape:cx="261.16041" inkscape:zoom="1.979899" fit-margin-top="0.2" fit-margin-left="0.2" showgrid="false" borderopacity="1.0" pagecolor="#ffffff" bordercolor="#666666" id="base" inkscape:current-layer="layer1" inkscape:window-maximized="0" inkscape:window-y="-21" inkscape:window-x="638" fit-margin-right="0.2" fit-margin-bottom="0.2" inkscape:window-height="1039" inkscape:window-width="1277" inkscape:pageshadow="2" inkscape:pageopacity="0.0" inkscape:document-units="px" showguides="true" inkscape:guide-bbox="true">
	<inkscape:grid  type="xygrid" id="grid2996" empspacing="5" enabled="true" visible="true" snapvisiblegridlinesonly="true">
		</inkscape:grid>
</sodipodi:namedview>
<g id="layer1" transform="translate(160.3875,-1481.5407)" inkscape:label="Layer 1" inkscape:groupmode="layer">
	<g id="g3947" transform="matrix(0.24509671,0,0,0.24509671,-120.92607,1197.7672)">
		<path id="path3775" inkscape:connector-curvature="0" d="M2862.9,3599.9c-239.4,0-439.1,196.6-439.1,442.6
			c0,231.8,188.2,438.2,440.9,438.2c176.1,0,287.6-104.8,323.3-144.3l-60.9-59.8c-20.5,24.5-109.4,118.7-262.5,118.7
			c-206.4,0-355.5-167-355.5-352.8c0-200,160.9-357.2,353.7-357.2c164.4,0,249.9,102,249.9,102c15.3,17.9,42.3,20,60.2,4.7
			c18-15.3,20.1-42.3,4.7-60.2C3177.9,3731.8,3063.8,3599.9,2862.9,3599.9z"/>
		<path id="path2998" inkscape:connector-curvature="0" d="M-125.8,3599.9c-239.4,0-439.1,196.6-439.1,442.6
			c0,231.8,188.2,438.2,440.9,438.2c176.1,0,287.6-104.8,323.3-144.3l-60.9-59.8c-20.5,24.5-109.4,118.7-262.5,118.7
			c-206.4,0-355.5-167-355.5-352.8c0-200,160.9-357.2,353.7-357.2c164.4,0,250,102,250,102c15.3,17.9,42.3,20,60.2,4.7
			c17.9-15.3,20.1-42.3,4.7-60.2C189.1,3731.8,75,3599.9-125.8,3599.9z"/>
		<path id="path3777" inkscape:connector-curvature="0" d="M779.8,3599.3c-218.5,0-440.5,171.9-440.5,444.3
			c0,248.1,204.9,436.8,443.8,436.8c273.3,0,436.8-231.8,436.8-439.9C1219.9,3812.3,1034.4,3599.3,779.8,3599.3z M779.8,3684.7
			c206.9,0,354.7,173.8,354.7,355.8c0,163.6-126.4,354.4-351.4,354.4c-194.4,0-358.4-150.1-358.4-351.4
			C424.7,3817.2,605.4,3684.7,779.8,3684.7z"/>
		<path id="path3779" inkscape:connector-curvature="0" d="M2116.1,3598.7c-16.7,0.3-31.6,10.5-37.8,25.9l-256.8,629.6l-256.5-629.4
			c-8.7-21.2-32.9-31.3-54.1-22.6c-13,5.3-22.4,16.9-25,30.7l-147.2,800.2c-4.7,22.4,9.7,44.4,32.2,49.1
			c22.4,4.7,44.4-9.7,49.1-32.2c0.1-0.6,0.3-1.3,0.4-1.9l121.6-660.4l241.3,592.2c8.6,21.2,32.8,31.4,54.1,22.8
			c10.4-4.2,18.6-12.4,22.8-22.8l241.6-592.8l127,688.7h84.5l-155.6-843.1C2153.8,3612.8,2136.3,3598.4,2116.1,3598.7z"/>
		<path id="path3794" inkscape:connector-curvature="0" d="M3683.6,3597.8c-16.6,0.3-31.4,10.4-37.7,25.8l-326.8,801.9
			c-8.7,21.2,1.5,45.5,22.7,54.1c21.2,8.7,45.5-1.5,54.1-22.7l0,0l288.4-707.8l296.3,727h89.7l-347.6-852.5
			C3716.3,3607.7,3700.8,3597.4,3683.6,3597.8z"/>
		<path id="path3796" inkscape:connector-curvature="0" d="M3491.1,4065.8v85.4h370.8v-85.4H3491.1z"/>
		<path id="path3811" inkscape:connector-curvature="0" d="M4457.6,3600.5c-61.1,0-122.3,15.4-171,51.1
			c-48.7,35.7-82.5,94.5-82.5,166.4c0,62.7,23.3,113.9,62.7,149.6c39.4,35.8,90,59.9,153.3,92.6c0.2,0.1,0.4,0.2,0.6,0.3
			c64.3,31.7,120.9,57.4,157.1,85.6c36.2,28.2,53.1,52.9,53.1,101.4c0,47.2-18.2,81.5-47.9,106.9c-29.7,25.4-72.2,40.7-118.5,40.7
			c-109.8,0-192.1-71.2-221.1-100.2l-63.1,57.7c36,37.2,138.5,127.9,284.3,127.9c64.8,0,127-20.9,174-61.2
			c47.1-40.2,77.8-101,77.8-171.9c0-73.6-36.9-130.4-86-168.7c-49-38.2-109.1-64-171.1-94.6c-0.2-0.1-0.4-0.2-0.6-0.3
			c-63.4-32.7-109-56.6-134.2-79.5c-25.2-22.9-34.8-41.1-34.8-86.5c0-47.2,17.9-75.7,47.8-97.6c29.8-21.9,73.9-34.5,120.3-34.5
			c82.3,0,151.9,45,151.9,45c18.9,14,45.7,10,59.7-8.9c14-19,10-45.7-8.9-59.7c-1.1-0.8-2.2-1.6-3.4-2.3
			C4656.9,3660,4570.4,3600.5,4457.6,3600.5z"/>
		<path id="path3813" inkscape:connector-curvature="0" d="M4865,3604.9c-23.6-0.3-43,18.5-43.3,42.1c-0.4,23.6,18.5,43,42.1,43.3
			c0.4,0,0.8,0,1.2,0h492.5c23.6,0.3,43-18.5,43.3-42.1c0.3-23.6-18.5-43-42.1-43.3c-0.4,0-0.8,0-1.2,0L4865,3604.9L4865,3604.9z"/>
		<path id="path3815" inkscape:connector-curvature="0" d="M5071.6,3658.6v40.3v736.8v40.3h80.5v-40.3v-736.8v-40.3H5071.6z"/>
		<g id="g3886" transform="matrix(1.1452003,0,0,1.1452003,388.66843,2039.8504)">
			<g id="g3898" transform="translate(-96.974644,-783.87837)">
				<path id="path3862" inkscape:connector-curvature="0" fill="#F37021" d="M1357.3,1310.3c-55.5,50.2-75.8,163.8,24.4,230.3
					l399.5,273.4l-193.7-442.7C1546.9,1266.8,1435.8,1244,1357.3,1310.3"/>
				<path id="path3864" inkscape:connector-curvature="0" fill="#CC004C" d="M1701.2,1095c-64.9,1.3-162.5,78.5-119.1,196.3
					l200.3,471.4l70.4-495.8C1869.2,1143.7,1775.7,1086.8,1701.2,1095"/>
				<path id="path3866" inkscape:connector-curvature="0" fill="#6460AA" d="M1884.2,1248h37.9c0,0,20.2,0,23,9.5
					c-14.9,12.2-55.5,13.7-50.1,78.6l63.7,426.6l199-472.6c40.7-105.5-44.7-193.7-120.5-196.4c-3.6-0.3-7.1-0.5-10.8-0.5
					C1958.3,1093.2,1880.3,1142.5,1884.2,1248"/>
				<path id="path3868" inkscape:connector-curvature="0" fill="#0089D0" d="M2149.6,1375.3l-188.2,437.4l399.4-274.9
					c92.1-65.2,77.2-169.3,25.7-220.8c-21.6-24.2-61.3-42.9-103.3-42.9C2233.5,1274.1,2180.4,1300.4,2149.6,1375.3"/>
				<path id="path3870" inkscape:connector-curvature="0" fill="#0DB14B" d="M2316.1,1600.1L1941,1861.4h461.8
					c94.7,0,155.6-97.5,128.6-186.9c-18.1-56.2-71.8-100.3-134-100.4C2371.2,1574.1,2343.4,1582,2316.1,1600.1"/>
				<path id="path3872" inkscape:connector-curvature="0" fill="#FCB711" d="M1346.5,1861.4h455l-375.2-261.4
					c-86.7-55.6-184.1-23.1-219.3,69.1C1177.2,1774.7,1251.7,1861.4,1346.5,1861.4"/>
			</g>
		</g>
	</g>
</g>
</svg>
