<?xml version="1.0" encoding="iso-8859-1"?><!-- Generator: Adobe Illustrator 16.0.0, SVG Export Plug-In . SVG Version: 6.00 Build 0) --><!DOCTYPE svg PUBLIC "-//W3C//DTD SVG 1.1//EN" "http://www.w3.org/Graphics/SVG/1.1/DTD/svg11.dtd"><svg version="1.1" id="svg2" inkscape:version="0.48.2 r9819" sodipodi:docname="New document 1" xmlns:rdf="http://www.w3.org/1999/02/22-rdf-syntax-ns#" xmlns:sodipodi="http://sodipodi.sourceforge.net/DTD/sodipodi-0.dtd" xmlns:dc="http://purl.org/dc/elements/1.1/" xmlns:inkscape="http://www.inkscape.org/namespaces/inkscape" xmlns:svg="http://www.w3.org/2000/svg" xmlns:cc="http://creativecommons.org/ns#" xmlns="http://www.w3.org/2000/svg" xmlns:xlink="http://www.w3.org/1999/xlink" x="0px" y="0px" width="299.6px" height="104.909px" viewBox="0.2 0.2 299.6 104.909" style="enable-background:new 0.2 0.2 299.6 104.909;" xml:space="preserve"><sodipodi:namedview id="base" inkscape:window-y="-21" inkscape:window-width="1277" fit-margin-bottom="0.2" inkscape:pageshadow="2" fit-margin-right="0.2" inkscape:window-maximized="0" inkscape:window-x="638" inkscape:window-height="1039" inkscape:pageopacity="0.0" inkscape:document-units="px" inkscape:current-layer="layer1" fit-margin-left="0.2" showguides="true" bordercolor="#666666" inkscape:cx="261.16041" showgrid="false" borderopacity="1.0" pagecolor="#ffffff" inkscape:cy="-2.7655466" inkscape:zoom="1.979899" fit-margin-top="0.2" inkscape:guide-bbox="true"><inkscape:grid id="grid2996" type="xygrid" empspacing="5" enabled="true" visible="true" snapvisiblegridlinesonly="true"></inkscape:grid></sodipodi:namedview><g id="layer1" transform="translate(160.3875,-1481.5407)" inkscape:groupmode="layer" inkscape:label="Layer 1"><g id="g3947" transform="matrix(0.24509671,0,0,0.24509671,-120.92607,1197.7672)"><path id="path3775" inkscape:connector-curvature="0" d="M542.187,1405.699c-49.056,0-89.97,40.286-89.97,90.688	c0,47.494,38.571,89.781,90.344,89.781c36.083,0,58.921-21.472,66.252-29.561l-12.471-12.252	c-4.208,5.021-22.416,24.313-53.781,24.313c-42.287,0-72.843-34.21-72.843-72.281c0-40.975,32.959-73.185,72.468-73.185	c33.684,0,51.215,20.906,51.215,20.906c3.144,3.673,8.67,4.108,12.344,0.968c3.681-3.144,4.112-8.67,0.972-12.344	C606.718,1432.733,583.337,1405.699,542.187,1405.699z"/><path id="path2998" inkscape:connector-curvature="0" d="M-70.219,1405.699c-49.056,0-89.97,40.286-89.97,90.688	c0,47.494,38.571,89.781,90.344,89.781c36.085,0,58.925-21.472,66.25-29.561l-12.469-12.252	c-4.209,5.021-22.418,24.313-53.781,24.313c-42.286,0-72.843-34.21-72.843-72.281c0-40.975,32.959-73.185,72.468-73.185	c33.686,0,51.219,20.906,51.219,20.906c3.142,3.673,8.668,4.108,12.344,0.968c3.676-3.144,4.11-8.67,0.968-12.344	C-5.688,1432.733-29.066,1405.699-70.219,1405.699z"/><path id="path3777" inkscape:connector-curvature="0" d="M115.344,1405.576c-44.767,0-90.25,35.226-90.25,91.031	c0,50.833,41.978,89.501,90.938,89.501c55.997,0,89.5-47.502,89.5-90.127C205.531,1449.213,167.524,1405.576,115.344,1405.576z M115.344,1423.075c42.404,0,72.688,35.621,72.688,72.906c0,33.525-25.898,72.624-72,72.624	c-39.836,0-73.438-30.748-73.438-71.998C42.593,1450.225,79.612,1423.075,115.344,1423.075z"/><path id="path3779" inkscape:connector-curvature="0" d="M389.156,1405.452c-3.417,0.052-6.469,2.144-7.75,5.311l-52.626,128.999	l-52.562-128.967c-1.781-4.343-6.748-6.419-11.093-4.638c-2.664,1.096-4.594,3.462-5.125,6.295l-30.156,163.966	c-0.956,4.598,1.996,9.096,6.594,10.053c4.596,0.956,9.097-1.996,10.053-6.594c0.026-0.131,0.052-0.263,0.072-0.395	l24.906-135.314l49.438,121.345c1.767,4.351,6.726,6.443,11.075,4.674c2.125-0.865,3.811-2.55,4.673-4.674l49.5-121.468	l26.032,141.123H429.5l-31.875-172.747C396.877,1408.341,393.3,1405.4,389.156,1405.452z"/><path id="path3794" inkscape:connector-curvature="0" d="M710.344,1405.265c-3.395,0.06-6.431,2.136-7.722,5.28l-66.966,164.312	c-1.781,4.351,0.307,9.315,4.658,11.093c4.347,1.781,9.315-0.307,11.093-4.654l0,0l59.092-145.032l60.718,148.968h18.376	l-71.217-174.688C717.045,1407.293,713.854,1405.197,710.344,1405.265z"/><path id="path3796" inkscape:connector-curvature="0" d="M670.89,1501.169v17.499h75.971v-17.499H670.89z"/><path id="path3811" inkscape:connector-curvature="0" d="M868.938,1405.827c-12.527,0-25.062,3.152-35.031,10.467	c-9.977,7.315-16.91,19.36-16.91,34.095c0,12.838,4.781,23.329,12.846,30.656c8.064,7.328,18.439,12.28,31.405,18.97	c0.04,0.02,0.083,0.04,0.127,0.06c13.165,6.502,24.767,11.758,32.186,17.531c7.419,5.777,10.877,10.833,10.877,20.782	c0,9.678-3.729,16.699-9.818,21.906c-6.088,5.208-14.798,8.343-24.281,8.343c-22.496,0-39.366-14.586-45.311-20.531	l-12.937,11.813c7.367,7.614,28.381,26.217,58.248,26.217c13.28,0,26.018-4.283,35.66-12.531	c9.643-8.244,15.938-20.699,15.938-35.218c0-15.081-7.555-26.723-17.627-34.561c-10.041-7.817-22.36-13.108-35.063-19.376	c-0.04-0.02-0.08-0.04-0.127-0.064c-12.997-6.702-22.344-11.598-27.5-16.28c-5.172-4.702-7.124-8.427-7.124-17.719	c0-9.678,3.666-15.515,9.786-20.001c6.112-4.483,15.148-7.061,24.655-7.061c16.87,0,31.126,9.22,31.126,9.22	c3.881,2.873,9.363,2.056,12.24-1.829c2.873-3.885,2.056-9.363-1.829-12.24c-0.227-0.163-0.458-0.319-0.697-0.462	C909.778,1418.015,892.048,1405.827,868.938,1405.827z"/><path id="path3813" inkscape:connector-curvature="0" d="M952.403,1406.731c-4.829-0.067-8.805,3.793-8.869,8.626	c-0.072,4.833,3.793,8.806,8.622,8.873c0.084,0.004,0.167,0.004,0.247,0h100.909c4.829,0.068,8.806-3.793,8.874-8.626	c0.067-4.833-3.793-8.806-8.626-8.874c-0.08,0-0.167,0-0.247,0H952.403z"/><path id="path3815" inkscape:connector-curvature="0" d="M994.75,1417.732v8.252v150.968v8.248h16.5v-8.248v-150.968v-8.252	H994.75z"/><g id="g3886" transform="matrix(1.1452003,0,0,1.1452003,388.66843,2039.8504)"><g id="g3898" transform="translate(-96.974644,-783.87837)"><path id="path3862" inkscape:connector-curvature="0" style="fill:#F37021;" d="M46.569,58.863	c-11.382,10.278-15.528,33.571,4.993,47.185l81.862,56.029L93.731,71.361C85.414,49.953,62.662,45.284,46.569,58.863"/><path id="path3864" inkscape:connector-curvature="0" style="fill:#CC004C;" d="M117.035,14.754	c-13.308,0.271-33.289,16.081-24.395,40.22l41.051,96.583l14.425-101.589C151.455,24.726,132.307,13.074,117.035,14.754"/><path id="path3866" inkscape:connector-curvature="0" style="fill:#6460AA;" d="M154.523,46.095h7.762c0,0,4.147,0,4.711,1.948	c-3.055,2.491-11.37,2.801-10.271,16.095l13.054,87.405l40.77-96.837c8.343-21.624-9.165-39.681-24.688-40.234	c-0.731-0.052-1.455-0.094-2.206-0.094C169.714,14.378,153.741,24.485,154.523,46.095"/><path id="path3868" inkscape:connector-curvature="0" style="fill:#0089D0;" d="M208.911,72.186l-38.563,89.628l81.834-56.325	c18.864-13.35,15.823-34.691,5.264-45.24c-4.429-4.965-12.556-8.799-21.164-8.799C226.108,51.449,215.222,56.832,208.911,72.186	"/><path id="path3870" inkscape:connector-curvature="0" style="fill:#0DB14B;" d="M243.021,118.243l-76.855,53.552h94.631	c19.414,0,31.891-19.971,26.345-38.296c-3.716-11.516-14.707-20.559-27.465-20.573	C254.311,112.927,248.619,114.542,243.021,118.243"/><path id="path3872" inkscape:connector-curvature="0" style="fill:#FCB711;" d="M44.363,171.795h93.232l-76.871-53.552	c-17.762-11.384-37.73-4.725-44.941,14.164C9.673,154.034,24.932,171.795,44.363,171.795"/></g></g></g></g></svg>