<?xml version="1.0" encoding="UTF-8" standalone="no"?>
<svg width="3271px" height="502px" viewBox="0 0 3271 502" version="1.1" xmlns="http://www.w3.org/2000/svg" xmlns:xlink="http://www.w3.org/1999/xlink">
    <!-- Generator: Sketch 3.6.1 (26313) - http://www.bohemiancoding.com/sketch -->
    <title>ComproPago</title>
    <desc>Created with Sketch.</desc>
    <defs></defs>
    <g id="Page-1" stroke="none" stroke-width="1" fill="none" fill-rule="evenodd">
        <g id="ComproPago" transform="translate(-1.000000, -4.000000)">
            <g id="Group">
                <g transform="translate(647.111111, 42.666667)" id="Shape">
                    <path d="M94.5777778,78.2222222 C103.822222,67.5555556 115.2,60.4444444 128,55.4666667 C140.8,51.2 154.311111,48.3555556 168.533333,48.3555556 C184.177778,48.3555556 199.111111,49.7777778 212.622222,52.6222222 C226.133333,55.4666667 236.8,57.6 243.911111,59.7333333 C246.755556,60.4444444 248.888889,60.4444444 251.022222,61.1555556 C253.155556,61.1555556 255.288889,60.4444444 256,59.0222222 L263.822222,39.1111111 C265.244444,35.5555556 265.955556,33.4222222 265.955556,31.2888889 C265.955556,29.8666667 265.244444,28.4444444 263.111111,26.3111111 C260.266667,24.1777778 255.288889,21.3333333 248.888889,19.2 C242.488889,16.3555556 234.666667,14.2222222 226.133333,11.3777778 C217.6,9.24444444 208.355556,7.11111111 198.4,5.68888889 C188.444444,4.26666667 178.488889,3.55555556 167.822222,3.55555556 C144.355556,3.55555556 122.311111,7.11111111 101.688889,14.2222222 C81.0666667,21.3333333 63.2888889,32.7111111 48.3555556,46.9333333 C33.4222222,61.8666667 21.3333333,79.6444444 12.8,101.688889 C4.26666667,123.733333 -4.16851738e-13,149.333333 -4.16851738e-13,179.2 C-4.16851738e-13,209.066667 4.26666667,234.666667 12.8,256.711111 C21.3333333,278.755556 33.4222222,297.244444 48.3555556,311.466667 C63.2888889,326.4 81.0666667,337.066667 101.688889,344.177778 C122.311111,351.288889 144.355556,354.844444 167.822222,354.844444 C178.488889,354.844444 188.444444,354.133333 198.4,352.711111 C208.355556,351.288889 217.6,349.155556 226.133333,347.022222 C234.666667,344.888889 242.488889,342.044444 248.888889,339.2 C255.288889,336.355556 260.266667,334.222222 263.111111,332.088889 C264.533333,330.666667 265.244444,328.533333 265.955556,327.111111 C265.955556,324.977778 265.244444,322.133333 263.822222,317.866667 L256,300.088889 C254.577778,298.666667 253.155556,297.955556 250.311111,297.955556 C248.177778,297.955556 245.333333,298.666667 243.2,299.377778 C236.088889,301.511111 225.422222,303.644444 211.911111,306.488889 C198.4,309.333333 183.466667,310.755556 167.822222,310.755556 C153.6,310.755556 140.088889,308.622222 127.288889,303.644444 C114.488889,299.377778 103.822222,291.555556 93.8666667,280.888889 C83.9111111,270.222222 76.8,256.711111 71.1111111,240.355556 C65.4222222,223.288889 62.5777778,203.377778 62.5777778,179.2 C62.5777778,155.022222 65.4222222,135.111111 71.1111111,118.044444 C77.5111111,102.4 85.3333333,88.1777778 94.5777778,78.2222222 L94.5777778,78.2222222 Z M500.622222,136.533333 C492.088889,125.155556 480.711111,115.2 465.777778,108.8 C450.844444,101.688889 432.355556,98.1333333 409.6,98.1333333 C386.844444,98.1333333 368.355556,101.688889 353.422222,108.8 C338.488889,115.911111 327.111111,125.155556 318.577778,137.244444 C310.044444,149.333333 304.355556,162.844444 300.8,178.488889 C297.244444,194.133333 295.822222,210.488889 295.822222,228.266667 C295.822222,246.044444 297.244444,262.4 300.8,278.044444 C304.355556,293.688889 310.044444,307.2 318.577778,318.577778 C327.111111,329.955556 338.488889,339.2 353.422222,346.311111 C368.355556,353.422222 386.844444,356.266667 409.6,356.266667 C432.355556,356.266667 450.844444,352.711111 465.777778,346.311111 C480.711111,339.2 492.088889,329.955556 500.622222,318.577778 C509.155556,307.2 514.844444,292.977778 518.4,277.333333 C521.955556,261.688889 523.377778,245.333333 523.377778,227.555556 C523.377778,210.488889 521.955556,193.422222 518.4,177.777778 C514.844444,162.133333 509.155556,147.911111 500.622222,136.533333 L500.622222,136.533333 Z M464.355556,260.977778 C462.933333,271.644444 460.088889,280.177778 455.822222,288 C451.555556,295.822222 445.866667,302.222222 438.044444,306.488889 C430.222222,310.755556 420.977778,313.6 408.888889,313.6 C396.8,313.6 386.844444,311.466667 379.733333,306.488889 C372.622222,302.222222 366.222222,295.822222 361.955556,288 C357.688889,280.177778 354.844444,270.933333 353.422222,260.977778 C352,250.311111 351.288889,239.644444 351.288889,227.555556 C351.288889,216.177778 352,204.8 353.422222,194.133333 C354.844444,183.466667 357.688889,174.222222 361.955556,166.4 C366.222222,158.577778 371.911111,152.177778 379.733333,147.911111 C386.844444,143.644444 396.8,140.8 408.888889,140.8 C420.266667,140.8 430.222222,142.933333 438.044444,147.911111 C445.866667,152.177778 451.555556,158.577778 455.822222,166.4 C460.088889,174.222222 462.933333,183.466667 464.355556,194.133333 C465.777778,204.8 466.488889,216.177778 466.488889,227.555556 C467.2,239.644444 466.488889,250.311111 464.355556,260.977778 L464.355556,260.977778 Z M849.777778,122.311111 C841.955556,114.488889 832.711111,108.088889 822.755556,104.533333 C812.088889,100.266667 801.422222,98.1333333 789.333333,98.1333333 C777.955556,98.1333333 766.577778,101.688889 755.2,108.088889 C743.822222,115.2 735.288889,124.444444 728.888889,136.533333 C721.066667,123.733333 711.111111,114.488889 699.022222,107.377778 C686.933333,100.977778 673.422222,97.4222222 658.488889,97.4222222 C648.533333,97.4222222 637.866667,100.266667 627.911111,106.666667 C617.244444,112.355556 610.133333,120.888889 605.155556,132.266667 L604.444444,132.266667 L599.466667,113.066667 C598.755556,109.511111 598.044444,107.377778 596.622222,105.955556 C595.2,104.533333 593.066667,103.822222 589.511111,103.822222 L566.044444,103.822222 C559.644444,103.822222 556.8,106.666667 556.8,113.066667 L556.8,340.622222 C556.8,347.022222 559.644444,349.866667 566.044444,349.866667 L603.733333,349.866667 C610.133333,349.866667 612.977778,347.022222 612.977778,340.622222 L612.977778,211.911111 C612.977778,162.844444 626.488889,137.955556 653.511111,137.955556 C659.911111,137.955556 664.888889,140.088889 669.155556,143.644444 C673.422222,147.2 676.977778,152.177778 679.822222,158.577778 C682.666667,164.977778 684.088889,172.088889 685.511111,180.622222 C686.933333,189.155556 686.933333,197.688889 686.933333,206.933333 L686.933333,341.333333 C686.933333,347.733333 689.777778,350.577778 696.177778,350.577778 L735.288889,350.577778 C740.977778,350.577778 744.533333,347.733333 744.533333,341.333333 L744.533333,209.066667 C745.244444,162.133333 758.755556,138.666667 785.066667,138.666667 C791.466667,138.666667 796.444444,140.8 800.711111,144.355556 C804.977778,147.911111 808.533333,152.888889 811.377778,159.288889 C814.222222,165.688889 815.644444,172.8 817.066667,181.333333 C818.488889,189.866667 818.488889,198.4 818.488889,207.644444 L818.488889,341.333333 C818.488889,347.733333 821.333333,350.577778 827.733333,350.577778 L866.844444,350.577778 C872.533333,350.577778 876.088889,347.733333 876.088889,341.333333 L876.088889,191.288889 C876.088889,176.355556 873.955556,163.555556 868.977778,151.466667 C864,140.088889 857.6,130.844444 849.777778,122.311111 L849.777778,122.311111 Z M1115.73333,125.866667 C1106.48889,115.911111 1095.82222,108.8 1083.73333,104.533333 C1071.64444,100.266667 1058.84444,98.1333333 1045.33333,98.1333333 C1027.55556,98.1333333 1011.2,100.977778 996.977778,106.666667 C982.755556,112.355556 970.666667,121.6 961.422222,133.688889 L960.711111,133.688889 L955.733333,113.777778 C955.022222,110.222222 954.311111,108.088889 952.888889,106.666667 C951.466667,105.244444 949.333333,104.533333 945.777778,104.533333 L922.311111,104.533333 C915.911111,104.533333 913.066667,107.377778 913.066667,113.777778 L913.066667,445.866667 C913.066667,452.266667 915.911111,455.111111 922.311111,455.111111 L960,455.111111 C966.4,455.111111 969.244444,452.266667 969.244444,445.866667 L969.244444,322.133333 L969.955556,322.133333 C975.644444,331.377778 984.888889,339.2 995.555556,346.311111 C1006.22222,353.422222 1022.57778,356.977778 1042.48889,356.977778 C1056,356.977778 1068.8,354.844444 1081.6,350.577778 C1094.4,346.311111 1105.06667,339.2 1114.31111,329.244444 C1123.55556,319.288889 1130.66667,305.777778 1136.35556,289.422222 C1142.04444,273.066667 1144.88889,252.444444 1144.88889,227.555556 C1144.88889,203.377778 1142.04444,182.755556 1137.06667,166.4 C1132.08889,148.622222 1124.97778,135.822222 1115.73333,125.866667 L1115.73333,125.866667 Z M1085.15556,271.644444 C1082.31111,283.022222 1078.75556,292.266667 1074.48889,299.377778 C1070.22222,305.777778 1064.53333,310.755556 1058.13333,312.888889 C1051.73333,315.022222 1044.62222,316.444444 1036.08889,316.444444 C1015.46667,316.444444 999.111111,309.333333 987.733333,295.822222 C976.355556,281.6 970.666667,258.844444 970.666667,226.844444 C970.666667,195.555556 976.355556,172.8 987.733333,158.577778 C999.111111,145.066667 1015.46667,137.955556 1036.08889,137.955556 C1044.62222,137.955556 1052.44444,139.377778 1058.84444,141.511111 C1065.95556,144.355556 1070.93333,148.622222 1075.91111,155.022222 C1080.17778,161.422222 1083.73333,170.666667 1085.86667,182.044444 C1088,193.422222 1089.42222,208.355556 1089.42222,226.133333 C1088.71111,245.333333 1088,260.266667 1085.15556,271.644444 L1085.15556,271.644444 Z M1292.08889,100.266667 C1287.11111,100.266667 1281.42222,100.266667 1276.44444,100.977778 C1270.75556,101.688889 1265.77778,102.4 1260.08889,104.533333 C1254.4,106.666667 1249.42222,109.511111 1243.73333,113.777778 C1238.04444,118.044444 1233.06667,123.733333 1228.08889,131.555556 L1227.37778,131.555556 L1222.4,113.777778 C1220.97778,110.933333 1219.55556,108.088889 1218.84444,106.666667 C1218.13333,105.244444 1216,104.533333 1212.44444,104.533333 L1188.97778,104.533333 C1182.57778,104.533333 1179.73333,107.377778 1179.73333,113.777778 L1179.73333,341.333333 C1179.73333,347.733333 1182.57778,350.577778 1188.97778,350.577778 L1226.66667,350.577778 C1233.06667,350.577778 1235.91111,347.733333 1235.91111,341.333333 L1235.91111,196.266667 C1235.91111,165.688889 1250.84444,150.044444 1280.71111,150.044444 C1282.84444,150.044444 1284.97778,150.044444 1287.82222,150.755556 C1289.95556,151.466667 1292.08889,151.466667 1294.22222,151.466667 C1296.35556,151.466667 1297.77778,150.755556 1298.48889,149.333333 C1299.91111,147.911111 1299.91111,145.777778 1299.91111,142.933333 L1299.91111,107.377778 C1299.91111,103.822222 1299.2,101.688889 1298.48889,100.977778 C1297.77778,100.977778 1294.93333,100.266667 1292.08889,100.266667 L1292.08889,100.266667 Z M1538.84444,177.777778 C1535.28889,162.133333 1529.6,147.911111 1521.06667,136.533333 C1512.53333,125.155556 1501.15556,115.2 1486.22222,108.8 C1471.28889,101.688889 1452.8,98.1333333 1430.04444,98.1333333 C1407.28889,98.1333333 1388.8,101.688889 1373.86667,108.8 C1358.93333,115.911111 1347.55556,125.155556 1339.02222,137.244444 C1330.48889,149.333333 1324.8,162.844444 1321.24444,178.488889 C1317.68889,194.133333 1316.26667,210.488889 1316.26667,228.266667 C1316.26667,246.044444 1317.68889,262.4 1321.24444,278.044444 C1324.8,293.688889 1330.48889,307.2 1339.02222,318.577778 C1347.55556,329.955556 1358.93333,339.2 1373.86667,346.311111 C1388.8,353.422222 1407.28889,356.266667 1430.04444,356.266667 C1452.8,356.266667 1471.28889,352.711111 1486.22222,346.311111 C1501.15556,339.2 1512.53333,329.955556 1521.06667,318.577778 C1529.6,307.2 1535.28889,292.977778 1538.84444,277.333333 C1542.4,261.688889 1543.82222,245.333333 1543.82222,227.555556 C1543.82222,209.777778 1542.4,193.422222 1538.84444,177.777778 L1538.84444,177.777778 Z M1484.8,260.977778 C1483.37778,271.644444 1480.53333,280.177778 1476.26667,288 C1472,295.822222 1466.31111,302.222222 1458.48889,306.488889 C1450.66667,310.755556 1441.42222,313.6 1429.33333,313.6 C1417.24444,313.6 1407.28889,311.466667 1400.17778,306.488889 C1393.06667,302.222222 1386.66667,295.822222 1382.4,288 C1378.13333,280.177778 1375.28889,270.933333 1373.86667,260.977778 C1372.44444,250.311111 1371.73333,239.644444 1371.73333,227.555556 C1371.73333,216.177778 1372.44444,204.8 1373.86667,194.133333 C1375.28889,183.466667 1378.13333,174.222222 1382.4,166.4 C1386.66667,158.577778 1392.35556,152.177778 1400.17778,147.911111 C1407.28889,143.644444 1417.24444,140.8 1429.33333,140.8 C1440.71111,140.8 1450.66667,142.933333 1458.48889,147.911111 C1466.31111,152.177778 1472,158.577778 1476.26667,166.4 C1480.53333,174.222222 1483.37778,183.466667 1484.8,194.133333 C1486.22222,204.8 1486.93333,216.177778 1486.93333,227.555556 C1486.93333,239.644444 1486.22222,250.311111 1484.8,260.977778 L1484.8,260.977778 Z" fill="#00AAEF"></path>
                    <path d="M1831.11111,48.3555556 C1821.86667,37.6888889 1810.48889,29.1555556 1796.26667,22.7555556 C1782.04444,16.3555556 1766.4,13.5111111 1748.62222,13.5111111 L1658.31111,13.5111111 C1651.91111,13.5111111 1648.35556,16.3555556 1647.64444,22.7555556 L1602.13333,345.6 C1601.42222,352 1604.26667,354.844444 1610.66667,354.844444 L1651.2,354.844444 C1656.88889,354.844444 1660.44444,352 1661.86667,345.6 L1675.37778,251.022222 L1715.2,251.022222 C1732.97778,251.022222 1749.33333,248.177778 1765.68889,241.777778 C1781.33333,235.377778 1795.55556,226.844444 1807.64444,216.177778 C1819.73333,205.511111 1830.4,192.711111 1838.22222,178.488889 C1846.04444,164.266667 1851.73333,148.622222 1853.86667,132.977778 C1856,116.622222 1855.28889,100.977778 1851.73333,86.7555556 C1846.75556,71.8222222 1840.35556,59.0222222 1831.11111,48.3555556 L1831.11111,48.3555556 Z M1793.42222,132.977778 C1789.86667,158.577778 1781.33333,177.777778 1767.11111,189.866667 C1752.88889,202.666667 1734.4,209.066667 1710.93333,209.066667 L1680.35556,209.066667 L1701.68889,56.8888889 L1732.26667,56.8888889 C1755.73333,56.8888889 1772.8,64 1782.75556,76.0888889 C1794.13333,88.8888889 1796.97778,107.377778 1793.42222,132.977778 L1793.42222,132.977778 Z M2101.33333,105.244444 L2067.91111,105.244444 C2064.35556,105.244444 2062.22222,105.955556 2060.8,107.377778 C2059.37778,108.8 2057.95556,110.933333 2057.24444,114.488889 L2049.42222,134.4 L2048.71111,134.4 C2041.6,122.311111 2032.35556,113.066667 2020.26667,107.377778 C2008.88889,101.688889 1994.66667,98.8444444 1979.02222,98.8444444 C1965.51111,98.8444444 1952,100.977778 1939.91111,105.244444 C1927.11111,109.511111 1915.73333,116.622222 1905.06667,126.577778 C1894.4,136.533333 1885.15556,150.044444 1877.33333,166.4 C1869.51111,182.755556 1863.82222,203.377778 1860.26667,227.555556 C1856.71111,252.444444 1856.71111,273.066667 1859.55556,290.133333 C1862.4,306.488889 1868.08889,320 1875.91111,329.955556 C1883.73333,339.911111 1892.97778,347.022222 1905.06667,351.288889 C1916.44444,355.555556 1929.24444,357.688889 1942.75556,357.688889 C1960.53333,357.688889 1977.6,354.133333 1992.53333,347.022222 C2007.46667,339.911111 2020.97778,328.533333 2033.06667,312.888889 L2033.77778,312.888889 C2033.77778,324.977778 2038.04444,334.222222 2045.86667,341.333333 C2053.68889,348.444444 2067.2,352 2087.11111,352 L2089.95556,352 C2095.64444,352 2099.2,349.155556 2100.62222,342.755556 L2103.46667,322.133333 C2104.17778,315.733333 2102.04444,312.888889 2095.64444,312.888889 L2094.93333,312.888889 C2092.08889,312.888889 2089.24444,310.755556 2087.11111,306.488889 C2084.97778,302.222222 2084.26667,295.111111 2086.4,285.155556 L2110.57778,115.911111 C2110.57778,108.088889 2107.73333,105.244444 2101.33333,105.244444 L2101.33333,105.244444 Z M2036.62222,227.555556 C2032.35556,259.555556 2023.11111,283.022222 2010.31111,297.244444 C1996.8,311.466667 1979.73333,318.577778 1958.4,318.577778 C1949.86667,318.577778 1942.75556,317.155556 1936.35556,315.022222 C1929.95556,312.177778 1924.97778,307.911111 1921.42222,300.8 C1917.86667,293.688889 1915.73333,284.444444 1915.02222,273.066667 C1914.31111,261.688889 1915.02222,246.044444 1917.86667,228.266667 C1920.71111,210.488889 1923.55556,195.555556 1927.82222,184.177778 C1932.08889,172.8 1936.35556,163.555556 1942.04444,157.155556 C1947.73333,150.755556 1953.42222,145.777778 1960.53333,143.644444 C1967.64444,140.8 1975.46667,140.088889 1984,140.088889 C2005.33333,140.088889 2020.26667,147.2 2029.51111,160.711111 C2038.75556,173.511111 2040.88889,196.266667 2036.62222,227.555556 L2036.62222,227.555556 Z M2367.28889,108.8 L2343.82222,108.8 C2340.26667,108.8 2338.13333,109.511111 2336.71111,110.933333 C2335.28889,112.355556 2333.86667,114.488889 2333.15556,118.044444 L2325.33333,137.955556 L2324.62222,137.955556 C2316.08889,125.866667 2305.42222,116.622222 2292.62222,110.933333 C2279.11111,105.244444 2263.46667,102.4 2245.68889,102.4 C2232.17778,102.4 2218.66667,104.533333 2206.57778,108.8 C2193.77778,113.066667 2182.4,120.177778 2171.73333,130.133333 C2161.06667,140.088889 2151.82222,153.6 2144,169.955556 C2136.17778,186.311111 2130.48889,206.933333 2126.93333,231.111111 C2123.37778,256 2123.37778,276.622222 2126.22222,292.977778 C2129.06667,309.333333 2134.75556,322.844444 2142.57778,332.8 C2150.4,342.755556 2160.35556,349.866667 2171.73333,354.133333 C2183.11111,358.4 2195.91111,360.533333 2210.13333,360.533333 C2230.04444,360.533333 2246.4,356.977778 2258.48889,349.866667 C2270.57778,342.755556 2280.53333,334.933333 2287.64444,325.688889 L2288.35556,325.688889 L2285.51111,345.6 C2282.66667,366.933333 2274.84444,384.711111 2262.75556,398.222222 C2250.66667,411.733333 2235.73333,418.133333 2218.66667,418.133333 C2211.55556,418.133333 2204.44444,417.422222 2196.62222,416.711111 C2188.8,416 2180.97778,414.577778 2173.86667,413.866667 C2166.75556,412.444444 2159.64444,411.733333 2153.95556,410.311111 C2148.26667,408.888889 2143.28889,408.177778 2140.44444,406.755556 C2137.6,406.044444 2135.46667,405.333333 2133.33333,405.333333 C2131.2,405.333333 2129.06667,406.044444 2128.35556,407.466667 L2117.68889,427.377778 C2115.55556,430.933333 2114.84444,433.066667 2114.13333,435.2 C2114.13333,436.622222 2114.13333,438.044444 2116.26667,440.177778 C2119.11111,442.311111 2123.37778,445.155556 2129.77778,447.288889 C2136.17778,450.133333 2144,452.266667 2153.24444,455.111111 C2161.77778,457.244444 2171.73333,459.377778 2181.68889,460.8 C2191.64444,462.222222 2202.31111,462.933333 2212.26667,462.933333 C2229.33333,462.933333 2244.97778,460.088889 2259.2,454.4 C2274.13333,448.711111 2286.93333,440.177778 2298.31111,429.511111 C2309.68889,418.844444 2319.64444,406.044444 2327.46667,390.4 C2335.28889,375.466667 2340.26667,358.4 2343.11111,339.911111 L2374.4,117.333333 C2375.82222,112.355556 2373.68889,108.8 2367.28889,108.8 L2367.28889,108.8 Z M2301.86667,231.111111 C2297.6,263.111111 2288.35556,286.577778 2274.84444,300.088889 C2261.33333,314.311111 2244.26667,320.711111 2223.64444,320.711111 C2215.11111,320.711111 2208,319.288889 2202.31111,317.155556 C2195.91111,315.022222 2190.93333,310.044444 2187.37778,303.644444 C2183.82222,297.244444 2180.97778,288 2180.26667,275.911111 C2179.55556,264.533333 2180.26667,248.888889 2183.11111,230.4 C2185.95556,212.622222 2188.8,197.688889 2193.06667,186.311111 C2197.33333,174.933333 2201.6,165.688889 2207.28889,159.288889 C2212.97778,152.888889 2218.66667,147.911111 2225.77778,145.777778 C2232.88889,142.933333 2240.71111,142.222222 2249.24444,142.222222 C2270.57778,142.222222 2285.51111,149.333333 2294.75556,162.844444 C2304,177.066667 2306.84444,199.822222 2301.86667,231.111111 L2301.86667,231.111111 Z M2623.28889,182.044444 C2621.86667,166.4 2617.6,152.177778 2611.2,140.8 C2604.08889,129.422222 2594.13333,119.466667 2579.91111,113.066667 C2565.68889,105.955556 2547.91111,102.4 2525.15556,102.4 C2502.4,102.4 2483.2,105.955556 2467.55556,113.066667 C2451.91111,120.177778 2438.4,129.422222 2428.44444,141.511111 C2418.48889,153.6 2409.95556,167.111111 2404.97778,182.755556 C2399.28889,198.4 2395.73333,214.755556 2392.88889,232.533333 C2390.04444,250.311111 2390.04444,266.666667 2390.75556,282.311111 C2392.17778,297.955556 2396.44444,311.466667 2402.84444,322.844444 C2409.95556,334.222222 2419.91111,343.466667 2434.13333,350.577778 C2448.35556,357.688889 2466.13333,360.533333 2488.88889,360.533333 C2511.64444,360.533333 2530.84444,356.977778 2546.48889,350.577778 C2562.13333,343.466667 2575.64444,334.222222 2585.6,322.844444 C2595.55556,311.466667 2604.08889,297.244444 2609.06667,281.6 C2614.75556,265.955556 2618.31111,249.6 2621.15556,231.822222 C2624,214.755556 2624.71111,198.4 2623.28889,182.044444 L2623.28889,182.044444 Z M2564.97778,231.822222 C2563.55556,243.911111 2560.71111,255.288889 2557.86667,265.244444 C2555.02222,275.911111 2550.75556,284.444444 2545.06667,292.266667 C2539.37778,300.088889 2532.97778,306.488889 2524.44444,310.755556 C2515.91111,315.022222 2505.95556,317.866667 2494.57778,317.866667 C2482.48889,317.866667 2473.24444,315.733333 2466.13333,310.755556 C2459.02222,306.488889 2454.04444,300.088889 2451.2,292.266667 C2448.35556,284.444444 2446.22222,275.2 2446.22222,265.244444 C2446.22222,254.577778 2446.93333,243.911111 2448.35556,231.822222 C2449.77778,220.444444 2452.62222,209.066667 2455.46667,198.4 C2458.31111,187.733333 2462.57778,178.488889 2468.26667,170.666667 C2473.95556,162.844444 2480.35556,156.444444 2488.17778,152.177778 C2496,147.911111 2505.95556,145.066667 2518.04444,145.066667 C2529.42222,145.066667 2539.37778,147.2 2545.77778,152.177778 C2552.88889,156.444444 2557.86667,162.844444 2560.71111,170.666667 C2563.55556,178.488889 2565.68889,187.733333 2565.68889,198.4 C2567.11111,209.066667 2566.4,220.444444 2564.97778,231.822222 L2564.97778,231.822222 Z" fill="#254895"></path>
                </g>
                <g id="Shape">
                    <path d="M470.044444,120.888889 C455.822222,106.666667 433.066667,106.666667 419.555556,120.888889 L417.422222,123.022222 L397.511111,142.933333 L228.266667,311.466667 L193.422222,346.311111 C179.911111,359.822222 162.133333,366.933333 142.933333,366.933333 C123.733333,366.933333 105.955556,359.822222 92.4444444,346.311111 C78.9333333,332.8 71.8222222,315.022222 71.8222222,295.822222 C71.8222222,276.622222 78.9333333,258.844444 92.4444444,245.333333 L308.622222,29.1555556 C280.888889,1.42222222 236.088889,1.42222222 207.644444,28.4444444 L43.3777778,192.711111 C-12.8,248.888889 -12.8,339.2 43.3777778,395.377778 C99.5555556,451.555556 189.866667,451.555556 246.044444,395.377778 L470.044444,171.377778 C484.266667,157.155556 484.266667,134.4 470.044444,120.888889 L470.044444,120.888889 Z" fill="#00AAEF"></path>
                    <path d="M541.155556,46.9333333 C484.977778,-9.24444444 394.666667,-9.24444444 338.488889,46.9333333 L114.488889,270.933333 C100.266667,285.155556 100.266667,307.911111 114.488889,321.422222 C128.711111,335.644444 151.466667,335.644444 164.977778,321.422222 L167.111111,319.288889 L187.022222,299.377778 L355.555556,130.844444 L388.266667,98.1333333 L390.4,96 C403.911111,82.4888889 421.688889,75.3777778 440.888889,75.3777778 C460.088889,75.3777778 477.866667,82.4888889 491.377778,96 C504.888889,109.511111 512,127.288889 512,146.488889 C512,165.688889 504.888889,183.466667 491.377778,196.977778 L275.911111,413.155556 C303.644444,440.888889 348.444444,440.888889 376.888889,413.866667 L376.888889,413.866667 L540.444444,250.311111 C596.622222,193.422222 596.622222,103.111111 541.155556,46.9333333 L541.155556,46.9333333 Z" fill="#254895"></path>
                </g>
            </g>
        </g>
    </g>
</svg>