<?xml version="1.0" encoding="UTF-8" standalone="no"?>
<svg width="4449px" height="489px" viewBox="0 0 4449 489" version="1.1" xmlns="http://www.w3.org/2000/svg" xmlns:xlink="http://www.w3.org/1999/xlink">
    <!-- Generator: Sketch 3.6.1 (26313) - http://www.bohemiancoding.com/sketch -->
    <title>concept</title>
    <desc>Created with Sketch.</desc>
    <defs></defs>
    <g id="Page-1" stroke="none" stroke-width="1" fill="none" fill-rule="evenodd">
        <g id="concept" transform="translate(0.000000, -22.000000)" fill="#D67B19">
            <path d="M4195.79548,276.969739 C4195.79548,302.258087 4203.94296,322.960696 4220.26017,339.099826 C4236.55513,355.216696 4257.25774,363.27513 4282.39026,363.27513 C4307.63409,363.27513 4328.42574,354.882783 4344.74296,338.120348 C4361.03791,321.380174 4369.20765,300.076522 4369.20765,274.253913 C4369.20765,248.787478 4361.1047,227.795478 4344.89878,211.322435 C4328.67061,194.82713 4307.83443,186.590609 4282.39026,186.590609 C4256.52313,186.590609 4235.64243,194.916174 4219.72591,211.589565 C4203.76487,228.240696 4195.79548,250.034087 4195.79548,276.969739 L4195.79548,276.969739 Z M4428.82226,400.339478 L4375.79687,400.339478 C4371.94574,400.339478 4369.22991,399.382261 4367.71617,397.445565 C4366.15791,395.553391 4365.35652,391.813565 4365.35652,386.31513 L4365.35652,363.809391 C4354.38191,377.522087 4340.64696,388.185043 4324.12939,395.820522 C4307.63409,403.433739 4289.80313,407.218087 4270.54748,407.218087 C4235.90957,407.218087 4206.94817,394.907826 4183.59652,370.265043 C4160.22261,345.622261 4148.55791,315.013565 4148.55791,278.349913 C4148.55791,240.417391 4161.00174,208.873739 4185.95617,183.674435 C4210.84383,158.497391 4241.89774,145.897739 4279.09565,145.897739 C4297.97287,145.897739 4314.89113,149.23687 4329.91722,155.91513 C4344.96557,162.615652 4357.87687,172.454957 4368.67339,185.455304 L4368.67339,80.205913 L4354.11478,80.205913 C4338.15374,80.205913 4327.86922,78.8034783 4323.2167,75.954087 C4318.54191,73.1269565 4316.20452,67.9401739 4316.20452,60.4382609 C4316.20452,53.8267826 4318.07443,48.8848696 4321.83652,45.5902609 C4325.59861,42.2956522 4331.03026,40.6483478 4338.15374,40.6483478 L4394.496,40.6483478 C4399.99443,40.6483478 4404.00139,41.5610435 4406.45009,43.3864348 C4408.92104,45.234087 4410.16765,48.0612174 4410.16765,51.9123478 L4410.16765,361.605565 L4422.5447,361.605565 C4431.49357,361.605565 4438.016,363.119304 4442.04522,366.146783 C4446.07443,369.174261 4448.07791,374.00487 4448.07791,380.549565 C4448.07791,386.782609 4446.34157,391.657739 4442.86887,395.108174 C4439.35165,398.60313 4434.69913,400.339478 4428.82226,400.339478 L4428.82226,400.339478 Z M3980.82226,157.718261 L3980.82226,361.605565 L4069.04209,361.605565 C4076.16557,361.605565 4081.44139,363.119304 4084.82504,366.146783 C4088.2087,369.174261 4089.92278,374.00487 4089.92278,380.549565 C4089.92278,388.073739 4088.29774,393.238261 4085.09217,396.065391 C4081.88661,398.914783 4075.98748,400.317217 4067.37252,400.317217 L3854.13565,400.317217 C3846.81183,400.317217 3841.31339,398.692174 3837.64035,395.375304 C3833.98957,392.080696 3832.14191,387.138783 3832.14191,380.527304 C3832.14191,374.138435 3834.07861,369.374609 3837.92974,366.235826 C3841.75861,363.097043 3847.5687,361.561043 3855.22643,361.561043 L3939.03861,361.561043 L3939.03861,185.455304 L3885.47896,185.455304 C3877.97704,185.455304 3872.23374,183.763478 3868.31583,180.379826 C3864.35339,176.996174 3862.39443,172.098783 3862.39443,165.687652 C3862.39443,159.276522 3864.21983,154.468174 3867.87061,151.262609 C3871.56591,148.034783 3877.06435,146.432 3884.36591,146.432 L3964.88348,146.432 C3969.82539,146.432 3973.69878,147.456 3976.54817,149.459478 C3979.41983,151.485217 3980.82226,154.223304 3980.82226,157.718261 L3980.82226,157.718261 Z M3930.0007,67.2946087 C3930.0007,47.5269565 3931.78157,35.0608696 3935.3433,29.9186087 C3938.90504,24.7986087 3946.56278,22.2386087 3958.272,22.2386087 C3969.6473,22.2386087 3977.14922,24.397913 3980.82226,28.6942609 C3984.47304,32.9906087 3986.3207,43.2083478 3986.3207,59.3252174 C3986.3207,75.085913 3984.60661,84.8361739 3981.22296,88.5982609 C3977.86157,92.3603478 3970.20383,94.2302609 3958.29426,94.2302609 C3946.58504,94.2302609 3938.9273,92.493913 3935.36557,89.0212174 C3931.78157,85.5262609 3930.0007,78.2914783 3930.0007,67.2946087 L3930.0007,67.2946087 Z M3664.94052,355.283478 C3664.94052,340.992 3669.94922,329.282783 3679.92209,320.133565 C3689.89496,310.984348 3702.87304,306.398609 3718.81183,306.398609 C3735.08452,306.398609 3748.21843,310.895304 3758.10226,319.844174 C3767.98609,328.793043 3772.95026,340.658087 3772.95026,355.283478 C3772.95026,369.953391 3767.94157,381.729391 3757.9687,390.767304 C3747.97357,399.716174 3734.9287,404.21287 3718.81183,404.21287 C3702.6727,404.21287 3689.65009,399.738435 3679.76626,390.767304 C3669.86017,381.729391 3664.94052,369.953391 3664.94052,355.283478 L3664.94052,355.283478 Z M3125.00313,360.514783 C3150.49183,360.514783 3171.37252,352.50087 3187.66748,336.473043 C3203.94017,320.445217 3212.10991,299.698087 3212.10991,274.231652 C3212.10991,249.299478 3203.94017,228.752696 3187.53391,212.524522 C3171.12765,196.318609 3150.29148,188.215652 3124.98087,188.215652 C3099.69252,188.215652 3079.01217,196.274087 3062.87304,212.390957 C3046.75617,228.507826 3038.72,249.121391 3038.72,274.231652 C3038.72,299.497739 3046.71165,320.200348 3062.76174,336.294957 C3078.81183,352.456348 3099.5367,360.514783 3125.00313,360.514783 L3125.00313,360.514783 Z M3039.83304,361.071304 L3039.83304,470.728348 L3105.792,470.728348 C3112.75965,470.728348 3117.9687,472.375652 3121.44139,475.670261 C3124.91409,478.96487 3126.6727,483.906783 3126.6727,490.518261 C3126.6727,497.641739 3124.98087,502.694957 3121.57496,505.633391 C3118.16904,508.571826 3112.18087,510.018783 3103.56591,510.018783 L2982.37774,510.018783 C2975.05391,510.018783 2969.51096,508.371478 2965.74887,505.054609 C2962.00904,501.782261 2960.11687,496.929391 2960.11687,490.518261 C2960.11687,483.172174 2962.432,478.052174 2967.12904,475.113739 C2971.78157,472.197565 2980.4633,470.750609 2993.08522,470.750609 L2998.29426,470.750609 L2998.29426,185.455304 L2993.08522,185.455304 C2980.4633,185.455304 2971.78157,184.008348 2967.12904,181.069913 C2962.432,178.131478 2960.11687,173.011478 2960.11687,165.687652 C2960.11687,159.276522 2962.00904,154.468174 2965.74887,151.262609 C2969.51096,148.034783 2975.05391,146.432 2982.37774,146.432 L3024.16139,146.432 C3029.65983,146.432 3033.64452,147.366957 3036.11548,149.192348 C3038.56417,151.017739 3039.81078,153.86713 3039.81078,157.718261 L3039.81078,184.364522 C3052.27687,171.542261 3066.05635,161.925565 3081.14922,155.514435 C3096.26435,149.103304 3112.53704,145.897739 3129.92278,145.897739 C3166.74226,145.897739 3197.52904,158.341565 3222.26087,183.273739 C3246.97043,208.183652 3259.36974,239.415652 3259.36974,276.969739 C3259.36974,313.054609 3247.63826,342.728348 3224.19757,366.013217 C3200.71235,389.298087 3170.79374,400.918261 3134.33043,400.918261 C3114.91896,400.918261 3097.04348,397.467826 3080.74852,390.589217 C3064.45357,383.73287 3050.80765,373.871304 3039.83304,361.071304 L3039.83304,361.071304 Z M2681.38852,249.499826 L2860.29913,249.499826 C2857.56104,227.684174 2848.43409,210.142609 2832.94052,196.87513 C2817.49148,183.585391 2798.4807,176.951652 2775.93043,176.951652 C2751.55478,176.951652 2731.03026,183.362783 2714.37913,196.185043 C2697.728,209.007304 2686.70887,226.771478 2681.38852,249.499826 L2681.38852,249.499826 Z M2517.79339,162.927304 L2517.79339,161.836522 C2517.79339,155.781565 2519.552,151.351652 2523.0247,148.502261 C2526.47513,145.67513 2531.88452,144.250435 2539.23061,144.250435 C2546.75478,144.250435 2551.9193,146.432 2554.7687,150.839652 C2557.59583,155.247304 2558.99826,164.307478 2558.99826,178.042435 L2558.99826,229.153391 C2558.99826,235.942957 2557.26191,241.018435 2553.81148,244.402087 C2550.31652,247.785739 2545.08522,249.499826 2538.13983,249.499826 C2533.19791,249.499826 2528.92383,248.07513 2525.36209,245.225739 C2521.77809,242.398609 2517.45948,236.477217 2512.31722,227.506087 C2503.50191,212.658087 2492.83896,201.438609 2480.28383,193.847652 C2467.77322,186.234435 2453.34817,182.450087 2437.0087,182.450087 C2408.448,182.450087 2385.22991,190.864696 2367.35443,207.716174 C2349.50122,224.567652 2340.57461,246.383304 2340.57461,273.118609 C2340.57461,300.410435 2349.14504,322.715826 2366.26365,340.034783 C2383.38226,357.353739 2405.42052,365.990957 2432.35617,365.990957 C2444.64417,365.990957 2456.28661,364.321391 2467.39478,360.893217 C2478.4807,357.531826 2488.96557,352.434087 2498.84939,345.644522 C2502.32209,343.440696 2506.99687,340.057043 2512.85148,335.471304 C2524.7833,325.743304 2534.13287,320.912696 2540.90017,320.912696 C2546.5767,320.912696 2551.20696,322.693565 2554.79096,326.277565 C2558.3527,329.839304 2560.13357,334.447304 2560.13357,340.146087 C2560.13357,354.615652 2546.44313,369.39687 2519.04,384.534261 C2491.68139,399.649391 2462.56417,407.195826 2431.82191,407.195826 C2392.064,407.195826 2358.93983,394.462609 2332.44939,368.996174 C2306.00348,343.529739 2292.736,311.763478 2292.736,273.65287 C2292.736,235.542261 2305.95896,203.709217 2332.31583,178.153739 C2358.69496,152.598261 2391.6633,139.820522 2431.22087,139.820522 C2445.13391,139.820522 2459.11374,141.712696 2473.13809,145.452522 C2487.1847,149.23687 2502.05496,155.046957 2517.79339,162.927304 L2517.79339,162.927304 Z M1903.74957,273.67513 C1903.74957,312.876522 1890.37078,344.932174 1863.63548,369.842087 C1836.87791,394.774261 1802.17322,407.218087 1759.47687,407.218087 C1716.98087,407.218087 1682.34296,394.774261 1655.60765,369.842087 C1628.85009,344.932174 1615.49357,312.854261 1615.49357,273.67513 C1615.49357,234.496 1628.85009,202.462609 1655.60765,177.641739 C1682.34296,152.798609 1716.98087,140.399304 1759.47687,140.399304 C1801.97287,140.399304 1836.6553,152.865391 1863.50191,177.775304 C1890.32626,202.685217 1903.74957,234.651826 1903.74957,273.67513 L1903.74957,273.67513 Z M1759.47687,368.729043 C1787.68139,368.729043 1810.8327,359.824696 1828.864,341.949217 C1846.91757,324.073739 1855.93322,301.345391 1855.93322,273.67513 C1855.93322,246.00487 1846.87304,223.165217 1828.73043,205.111652 C1810.58783,187.058087 1787.5033,178.042435 1759.47687,178.042435 C1731.45043,178.042435 1708.41043,187.058087 1690.35687,205.111652 C1672.32557,223.165217 1663.30991,246.00487 1663.30991,273.67513 C1663.30991,301.523478 1672.28104,324.318609 1690.2233,342.105043 C1708.16557,359.869217 1731.25009,368.729043 1759.47687,368.729043 L1759.47687,368.729043 Z M1504.3673,162.927304 L1504.3673,161.836522 C1504.3673,155.781565 1506.10365,151.351652 1509.57635,148.502261 C1513.04904,145.67513 1518.45843,144.250435 1525.78226,144.250435 C1533.30643,144.250435 1538.47096,146.432 1541.32035,150.839652 C1544.14748,155.247304 1545.57217,164.307478 1545.57217,178.042435 L1545.57217,229.153391 C1545.57217,235.942957 1543.83583,241.018435 1540.36313,244.402087 C1536.86817,247.785739 1531.65913,249.499826 1524.69148,249.499826 C1519.74957,249.499826 1515.49774,248.07513 1511.91374,245.225739 C1508.352,242.398609 1503.98887,236.477217 1498.86887,227.506087 C1490.07583,212.658087 1479.39061,201.438609 1466.85774,193.847652 C1454.30261,186.234435 1439.87757,182.450087 1423.56035,182.450087 C1394.97739,182.450087 1371.7593,190.864696 1353.90609,207.716174 C1336.05287,224.567652 1327.104,246.383304 1327.104,273.118609 C1327.104,300.410435 1335.67443,322.715826 1352.8153,340.034783 C1369.93391,357.353739 1391.97217,365.990957 1418.88557,365.990957 C1431.17357,365.990957 1442.83826,364.321391 1453.92417,360.893217 C1465.01009,357.531826 1475.49496,352.434087 1485.40104,345.644522 C1488.87374,343.440696 1493.54852,340.057043 1499.40313,335.471304 C1511.3127,325.743304 1520.66226,320.912696 1527.42957,320.912696 C1533.12835,320.912696 1537.73635,322.693565 1541.32035,326.277565 C1544.88209,329.839304 1546.68522,334.447304 1546.68522,340.146087 C1546.68522,354.615652 1532.97252,369.39687 1505.59165,384.534261 C1478.21078,399.649391 1449.11583,407.195826 1418.3513,407.195826 C1378.59339,407.195826 1345.46922,394.462609 1319.00104,368.996174 C1292.53287,343.529739 1279.28765,311.763478 1279.28765,273.65287 C1279.28765,235.542261 1292.48835,203.709217 1318.86748,178.153739 C1345.26887,152.598261 1378.23722,139.820522 1417.79478,139.820522 C1431.70783,139.820522 1445.68765,141.712696 1459.712,145.452522 C1473.71409,149.23687 1488.60661,155.046957 1504.3673,162.927304 L1504.3673,162.927304 Z M3304.00278,181.337043 C3304.00278,173.83513 3306.36243,168.69287 3311.12626,165.954783 C3315.89009,163.194435 3326.08557,161.836522 3341.62365,161.836522 L3372.67757,161.836522 L3372.67757,105.494261 L3372.67757,90.9356522 C3372.67757,83.0553043 3374.41391,77.2452174 3377.7753,73.4831304 C3381.15896,69.7210435 3386.43478,67.8511304 3393.58052,67.8511304 C3401.63896,67.8511304 3407.22643,70.144 3410.34296,74.7297391 C3413.48174,79.2932174 3414.99548,89.7335652 3414.99548,106.050783 L3414.99548,161.836522 L3523.56174,161.836522 C3532.53287,161.836522 3539.07757,163.394783 3543.21809,166.511304 C3547.33635,169.627826 3549.38435,174.569739 3549.38435,181.337043 C3549.38435,187.748174 3547.46991,192.556522 3543.61878,195.762087 C3539.76765,198.967652 3534.00209,200.570435 3526.29983,200.570435 L3414.99548,200.570435 L3414.99548,292.352 C3414.99548,322.404174 3418.91339,342.194087 3426.68243,351.744 C3434.47374,361.271652 3447.78574,366.013217 3466.66296,366.013217 C3483.33635,366.013217 3503.30435,361.182609 3526.5447,351.454609 C3549.82957,341.74887 3564.21009,336.896 3569.68626,336.896 C3574.82852,336.896 3579.16939,338.743652 3582.75339,342.416696 C3586.31513,346.067478 3588.11826,350.541913 3588.11826,355.862261 C3588.11826,361.894957 3585.86991,367.193043 3581.35096,371.689739 C3576.87652,376.141913 3569.24104,380.505043 3558.42226,384.734609 C3540.48,391.858087 3524.31861,397.111652 3509.91583,400.384 C3495.5353,403.678609 3482.04522,405.348174 3469.40104,405.348174 C3447.96383,405.348174 3429.95478,401.942261 3415.37391,395.041391 C3400.83757,388.162783 3389.952,377.945043 3382.82852,364.410435 C3379.17774,357.999304 3376.55096,350.386087 3374.97043,341.615304 C3373.43443,332.8 3372.63304,319.265391 3372.63304,300.944696 L3372.63304,292.396522 L3372.63304,200.570435 L3325.92974,200.570435 C3318.22748,200.570435 3312.64,199.056696 3309.1673,196.051478 C3305.71687,193.024 3304.00278,188.126609 3304.00278,181.337043 L3304.00278,181.337043 Z M2632.21426,275.322435 C2632.21426,234.829913 2645.48174,202.039652 2672.06122,176.951652 C2698.61843,151.841391 2733.23409,139.308522 2775.93043,139.308522 C2814.5753,139.308522 2846.65322,151.017739 2872.09739,174.480696 C2897.58609,197.921391 2910.29704,226.326261 2910.29704,259.650783 C2910.29704,269.913043 2908.16,276.791652 2903.84139,280.264348 C2899.54504,283.759304 2887.85809,285.495652 2868.82504,285.495652 L2864.68452,285.495652 L2680.00835,285.495652 C2681.4553,311.874783 2690.42643,332.265739 2706.78817,346.624 C2723.19443,361.004522 2745.61113,368.194783 2773.99374,368.194783 C2795.43096,368.194783 2818.82713,362.473739 2844.0487,351.031652 C2869.3593,339.589565 2884.65252,333.846261 2889.95061,333.846261 C2895.44904,333.846261 2900.01252,335.60487 2903.68557,339.077565 C2907.35861,342.550261 2909.184,346.86887 2909.184,351.98887 C2909.184,357.286957 2907.22504,362.162087 2903.39617,366.547478 C2899.5673,370.93287 2893.4233,375.251478 2885.0087,379.458783 C2866.688,388.429913 2847.744,395.286261 2828.24348,400.072348 C2808.74296,404.836174 2789.376,407.195826 2770.14261,407.195826 C2728.35896,407.195826 2694.92313,395.152696 2669.83513,371.066435 C2644.76939,347.002435 2632.21426,315.080348 2632.21426,275.322435 L2632.21426,275.322435 Z M1957.13113,165.687652 C1957.13113,158.898087 1959.04557,154.000696 1962.8967,150.973217 C1966.74783,147.945739 1972.98087,146.432 1981.57357,146.432 L1994.50713,146.432 L2020.88626,146.432 C2025.82817,146.432 2029.6793,147.456 2032.41739,149.459478 C2035.17774,151.485217 2036.53565,154.223304 2036.53565,157.718261 L2036.53565,176.39513 C2049.91443,163.929043 2063.15965,154.735304 2076.24904,148.769391 C2089.33843,142.825739 2102.96209,139.842783 2117.05322,139.842783 C2144.72348,139.842783 2166.47235,148.457739 2182.32209,165.687652 C2198.17183,182.895304 2206.0967,206.714435 2206.0967,237.122783 L2206.0967,361.605565 L2219.008,361.605565 C2228.17948,361.605565 2234.7687,363.119304 2238.79791,366.146783 C2242.82713,369.174261 2244.83061,374.00487 2244.83061,380.549565 C2244.83061,387.695304 2242.69357,392.793043 2238.37496,395.820522 C2234.07861,398.848 2226.42087,400.339478 2215.44626,400.339478 L2154.69635,400.339478 C2142.98713,400.339478 2135.46296,398.981565 2132.16835,396.243478 C2128.87374,393.46087 2127.22643,388.251826 2127.22643,380.549565 C2127.22643,373.426087 2129.14087,368.484174 2132.992,365.723826 C2136.84313,362.985739 2144.07791,361.583304 2154.69635,361.583304 L2164.31304,361.583304 L2164.31304,247.273739 C2164.31304,225.836522 2159.46017,209.497043 2149.75443,198.210783 C2140.0487,186.946783 2125.9353,181.314783 2107.43652,181.314783 C2088.75965,181.314783 2072.26435,187.63687 2057.97287,200.281043 C2043.68139,212.925217 2036.53565,228.574609 2036.53565,247.273739 L2036.53565,361.583304 L2046.15235,361.583304 C2057.14922,361.583304 2064.56209,362.963478 2068.41322,365.723826 C2072.26435,368.484174 2074.17878,373.426087 2074.17878,380.549565 C2074.17878,388.251826 2072.53148,393.46087 2069.23687,396.243478 C2065.96452,398.981565 2057.88383,400.339478 2045.06157,400.339478 L1995.04139,400.339478 L1980.21565,400.339478 C1972.69148,400.339478 1967.05948,398.758957 1963.29739,395.553391 C1959.55757,392.325565 1957.66539,387.33913 1957.66539,380.549565 C1957.66539,373.248 1959.8247,368.217043 1964.12104,365.590261 C1968.43965,362.941217 1976.80974,361.583304 1989.27583,361.583304 L1995.04139,361.583304 L1995.04139,185.455304 L1989.85461,185.455304 C1977.36626,185.455304 1968.81809,184.008348 1964.1433,181.069913 C1959.46852,178.131478 1957.13113,173.011478 1957.13113,165.687652 L1957.13113,165.687652 Z" id="Shape"></path>
            <g id="Group" transform="translate(0.000000, 111.304348)">
                <path d="M0,8.37008696 L36.5746087,8.37008696 L36.5746087,303.616 L0,303.616 L0,8.37008696 L0,8.37008696 Z" id="Shape"></path>
                <path d="M70.5446957,8.37008696 L141.089391,8.37008696 L141.089391,303.616 L70.5446957,303.616 L70.5446957,8.37008696 L70.5446957,8.37008696 Z" id="Shape"></path>
                <path d="M209.029565,8.37008696 L245.604174,8.37008696 L245.604174,303.616 L209.029565,303.616 L209.029565,8.37008696 L209.029565,8.37008696 Z" id="Shape"></path>
                <path d="M384.066783,8.37008696 L418.03687,8.37008696 L418.03687,303.616 L384.066783,303.616 L384.066783,8.37008696 L384.066783,8.37008696 Z" id="Shape"></path>
                <path d="M559.126261,8.37008696 L627.066435,8.37008696 L627.066435,303.616 L559.126261,303.616 L559.126261,8.37008696 L559.126261,8.37008696 Z" id="Shape"></path>
                <path d="M663.641043,8.37008696 L697.61113,8.37008696 L697.61113,303.616 L663.641043,303.616 L663.641043,8.37008696 L663.641043,8.37008696 Z" id="Shape"></path>
                <path d="M768.155826,8.37008696 L836.096,8.37008696 L836.096,303.616 L768.155826,303.616 L768.155826,8.37008696 L768.155826,8.37008696 Z" id="Shape"></path>
                <path d="M906.640696,8.37008696 L940.610783,8.37008696 L940.610783,303.616 L906.640696,303.616 L906.640696,8.37008696 L906.640696,8.37008696 Z" id="Shape"></path>
                <path d="M977.16313,8.37008696 L1011.13322,8.37008696 L1011.13322,303.616 L977.16313,303.616 L977.16313,8.37008696 L977.16313,8.37008696 Z" id="Shape"></path>
            </g>
        </g>
    </g>
</svg>