<?xml version="1.0" encoding="UTF-8" standalone="no"?>
<svg width="5071px" height="499px" viewBox="0 0 5071 499" version="1.1" xmlns="http://www.w3.org/2000/svg" xmlns:xlink="http://www.w3.org/1999/xlink">
    <!-- Generator: Sketch 3.6.1 (26313) - http://www.bohemiancoding.com/sketch -->
    <title>construmart</title>
    <desc>Created with Sketch.</desc>
    <defs></defs>
    <g id="Page-1" stroke="none" stroke-width="1" fill="none" fill-rule="evenodd">
        <g id="construmart" transform="translate(-5.000000, -6.000000)">
            <g id="Group">
                <g id="Shape">
                    <path d="M2448.29496,205.193275 C2448.29496,151.767188 2423.39246,137.000812 2384.00557,137.000812 L2364.03014,137.000812 L2364.03014,493.57542 L2196.43548,493.57542 L2196.43548,17.8457971 L2421.14412,17.8457971 C2531.00893,17.8457971 2605.74609,69.6171594 2605.74609,175.155942 C2605.74609,263.442551 2557.09867,293.212754 2557.09867,293.212754 L2557.09867,294.073507 L2646.016,493.57542 L2465.19838,493.57542 L2375.23478,286.497391 C2421.24058,286.489971 2448.29496,266.855884 2448.29496,205.193275 L2448.29496,205.193275 Z" fill="#004C9A"></path>
                    <path d="M4527.46759,205.193275 C4527.46759,151.767188 4502.54284,137.000812 4463.14852,137.000812 L4443.20278,137.000812 L4443.20278,493.57542 L4275.54875,493.57542 L4275.54875,17.8457971 L4500.27965,17.8457971 C4610.1593,17.8457971 4684.88904,69.6171594 4684.88904,175.155942 C4684.88904,263.442551 4636.24162,293.212754 4636.24162,293.212754 L4636.24162,294.073507 L4725.15896,493.57542 L4544.34875,493.57542 L4454.38516,286.497391 C4500.38354,286.489971 4527.46759,266.855884 4527.46759,205.193275 L4527.46759,205.193275 Z" fill="#004C9A"></path>
                    <path d="M4252.0858,493.57542 L4103.02701,17.8457971 L3859.94574,17.8457971 L3807.93693,171.082203 L3879.51304,399.760696 L4045.40104,399.760696 L4074.03594,493.57542 L4252.0858,493.57542 L4252.0858,493.57542 Z M3913.3273,300.328812 L3960.11965,137.46087 L3965.32128,137.46087 L4015.05206,300.328812 L3913.3273,300.328812 L3913.3273,300.328812 Z" fill="#004C9A"></path>
                    <path d="M4706.75664,17.8383768 L5075.12209,17.8383768 L5075.12209,145.608348 L4975.20788,145.608348 L4975.20788,493.57542 L4807.36093,493.57542 L4807.36093,145.608348 L4706.75664,145.608348 L4706.75664,17.8383768 Z" fill="#004C9A"></path>
                    <path d="M377.418203,481.331942 C377.418203,481.331942 314.835478,503.607652 248.297739,503.607652 C98.7195362,503.607652 5.12,418.125913 5.12,257.751188 C5.12,92.6052174 91.6925217,8.18457971 248.958145,8.18457971 C313.967304,8.18457971 377.425623,34.1555942 377.425623,34.1555942 L370.650899,170.399536 C370.650899,170.399536 318.634667,144.910841 264.704,144.910841 C200.822725,144.910841 168.20313,170.087884 168.20313,257.758609 C168.20313,342.468638 199.368348,366.510377 269.363942,366.510377 C318.256232,366.510377 370.643478,344.524058 370.643478,344.524058 L377.418203,481.331942 L377.418203,481.331942 Z" fill="#004C9A"></path>
                    <path d="M889.826319,255.718029 C889.826319,420.181333 794.690783,504.817159 649.260522,504.817159 C503.837681,504.817159 408.687304,420.181333 408.687304,255.718029 C408.687304,103.468522 484.129391,6.27756522 649.260522,6.27756522 C814.406493,6.27756522 889.826319,103.468522 889.826319,255.718029 M569.07687,255.718029 C569.07687,341.348174 586.069333,379.406841 649.260522,379.406841 C712.473971,379.406841 729.459014,341.348174 729.459014,255.718029 C729.459014,187.740754 712.473971,132.029217 649.260522,132.029217 C586.069333,132.021797 569.07687,187.740754 569.07687,255.718029" fill="#004C9A"></path>
                    <path d="M1231.10771,17.8383768 L1376.31536,17.8383768 L1376.31536,493.57542 L1211.62203,493.57542 L1074.31699,254.998261 L1079.77832,493.57542 L933.205333,493.57542 L933.205333,17.8383768 L1102.66991,17.8383768 L1235.20371,249.640812 L1231.10771,17.8383768 Z" fill="#004C9A"></path>
                    <path d="M1571.09797,504.817159 C1480.48881,504.817159 1418.79652,471.767188 1418.79652,471.767188 L1422.63281,342.557681 C1422.63281,342.557681 1492.82133,383.777391 1559.09194,383.777391 C1608.94887,383.777391 1623.55942,371.385507 1623.55942,353.383884 C1623.55942,300.529159 1418.18806,338.751072 1418.18806,168.492522 C1418.18806,50.6583188 1501.93345,6.28498551 1610.51455,6.28498551 C1687.97496,6.28498551 1749.60046,28.7091014 1749.60046,28.7091014 L1749.60046,151.537159 C1749.60046,151.537159 1688.58342,130.322551 1631.21716,130.322551 C1587.94203,130.322551 1569.05739,138.596174 1569.05739,153.555478 C1569.05739,209.749333 1776.78841,158.037333 1776.78841,337.942261 C1776.78099,453.453913 1690.01554,504.817159 1571.09797,504.817159" fill="#004C9A"></path>
                    <path d="M2923.75003,17.8383768 L3088.18365,17.8383768 L3088.18365,308.691478 C3088.18365,439.80058 3007.79965,501.700638 2873.24754,501.700638 C2739.34099,501.700638 2659.63223,436.936348 2659.63223,308.691478 L2659.63223,17.8383768 L2824.0807,17.8383768 L2824.0807,287.625275 C2824.0807,367.846029 2845.37693,382.092986 2873.24754,382.092986 C2901.76371,382.092986 2923.75003,368.513855 2923.75003,287.625275 L2923.75003,17.8383768 L2923.75003,17.8383768 Z" fill="#004C9A"></path>
                    <path d="M3271.35351,493.57542 L3100.90945,493.57542 L3226.83919,120.995246 L3304.3738,379.058087 L3271.35351,493.57542 Z" fill="#004C9A"></path>
                    <path d="M3256.70586,17.8383768 L3449.17333,17.8383768 L3594.32162,493.57542 L3401.96545,493.57542 L3256.70586,17.8383768 Z" fill="#F8AE00"></path>
                    <path d="M3516.37148,17.8383768 L3708.86864,17.8383768 L3853.98725,493.57542 L3661.66075,493.57542 L3516.37148,17.8383768 Z" fill="#F8AE00"></path>
                    <path d="M1787.11745,17.8383768 L2155.47548,17.8383768 L2155.47548,145.608348 L2055.56128,145.608348 L2055.56128,493.57542 L1887.73658,493.57542 L1887.73658,145.608348 L1787.11745,145.608348 L1787.11745,17.8383768 Z" fill="#004C9A"></path>
                </g>
                <path d="M5040.40255,454.945391 L5030.82296,454.945391 C5030.42968,454.945391 5030.25159,454.945391 5030.25159,454.559536 L5030.25159,442.739014 C5030.25159,442.538667 5030.42968,442.353159 5030.82296,442.353159 L5040.40255,442.353159 C5045.47803,442.353159 5047.54087,444.787014 5047.54087,448.734609 C5047.54087,452.682203 5045.47803,454.945391 5040.40255,454.945391 L5040.40255,454.945391 Z M5028.56719,477.458551 C5029.50957,477.458551 5030.25901,476.894609 5030.25901,475.766725 L5030.25901,460.940986 C5030.25901,460.762899 5030.4371,460.55513 5030.83038,460.55513 L5039.27467,460.55513 L5047.16243,476.16 C5047.54829,476.709101 5048.10481,477.458551 5049.03235,477.458551 L5052.20081,477.458551 C5053.33612,477.458551 5054.07814,476.894609 5053.33612,475.588638 L5045.47803,459.805681 C5050.70933,458.299362 5053.33612,454.188522 5053.33612,448.742029 C5053.33612,441.60371 5048.66875,436.943768 5040.59548,436.943768 L5025.76232,436.943768 C5024.63443,436.943768 5024.08533,437.49287 5024.08533,438.613333 L5024.08533,475.774145 C5024.08533,476.894609 5024.62701,477.465971 5025.76232,477.465971 L5028.56719,477.465971 L5028.56719,477.458551 Z M5037.76093,488.158609 C5020.13032,488.158609 5007.17449,475.202783 5007.17449,457.364406 C5007.17449,439.748638 5020.13032,426.777971 5037.76093,426.777971 C5055.02794,426.777971 5068.18412,439.748638 5068.18412,457.364406 C5068.18412,475.202783 5055.02794,488.158609 5037.76093,488.158609 L5037.76093,488.158609 Z M5037.76093,493.57542 C5058.22609,493.57542 5073.77901,478.029913 5073.77901,457.364406 C5073.77901,436.943768 5058.21867,421.353739 5037.76093,421.353739 C5017.13252,421.353739 5001.56475,436.943768 5001.56475,457.364406 C5001.56475,478.029913 5017.13252,493.57542 5037.76093,493.57542 L5037.76093,493.57542 Z" id="Shape" fill="#0056A6"></path>
            </g>
        </g>
    </g>
</svg>