<?xml version="1.0" encoding="UTF-8" standalone="no"?>
<svg width="1688px" height="505px" viewBox="0 0 1688 505" version="1.1" xmlns="http://www.w3.org/2000/svg" xmlns:xlink="http://www.w3.org/1999/xlink">
    <!-- Generator: Sketch 3.6.1 (26313) - http://www.bohemiancoding.com/sketch -->
    <title>coop</title>
    <desc>Created with Sketch.</desc>
    <defs></defs>
    <g id="Page-1" stroke="none" stroke-width="1" fill="none" fill-rule="evenodd">
        <g id="coop" transform="translate(-2.000000, -2.000000)">
            <g id="layer1">
                <g id="g2001" transform="translate(0.539059, 0.169972)">
                    <path d="M639.538902,309.453693 C579.910608,309.453693 531.831873,261.386538 531.831873,202.19389 C531.842411,143.136208 579.900071,95.069053 639.538902,95.069053 C698.741075,95.069053 746.768134,143.136208 746.768134,202.19389 C746.768134,261.386538 698.730508,309.453693 639.538902,309.453693 L639.538902,309.453693 Z M821.017392,56.4440409 C770.821745,21.7015665 702.581433,7.14177488 639.538902,7.14177488 C521.257972,7.13123721 382.688893,57.7730381 382.688893,200.907073 C382.688893,219.762873 385.688618,237.373023 388.697808,252.378969 C363.397477,280.677953 321.919375,308.571922 270.448521,308.571922 C202.653291,308.571922 154.616737,265.266992 154.616737,198.749053 C154.616737,137.138902 202.207137,91.6337414 264.294043,91.6337414 C295.603319,91.623174 318.775159,102.354218 331.653686,110.9568 L381.412644,32.0265526 C356.517328,19.5846847 308.19072,1.97349209 243.830802,1.97349209 C122.00064,1.97349209 1.59228726,67.6212391 1.59228726,199.630824 C1.60283386,331.308175 109.994419,399.113942 239.990474,399.113942 C322.210471,399.103405 388.251654,357.926936 425.599375,316.738887 C474.072588,369.34147 555.886527,394.236755 639.538902,394.236755 C700.754605,394.236755 769.939974,380.507059 821.006854,345.473488 L821.017392,56.4440409 L821.017392,56.4440409 L821.017392,56.4440409 Z" id="_46823448" fill="#FF5404"></path>
                    <path d="M1437.92173,315.857116 L1436.63491,315.857116 C1376.56046,315.016454 1327.68327,268.266687 1327.68327,201.353228 C1327.68327,137.138902 1377.86835,89.9429805 1436.62437,89.5062921 L1437.92173,89.5062921 C1499.70801,89.5062921 1545.86713,138.705206 1545.86713,200.471457 C1545.87663,260.099751 1500.98426,315.857116 1437.91116,315.857116 L1437.92173,315.857116 Z M1003.18464,307.731289 C943.981425,307.731289 895.955408,259.664134 895.955408,200.471457 C895.955408,140.832625 943.981425,92.9521712 1003.18464,92.9521712 C1062.27289,92.9521712 1110.29891,140.832625 1110.29891,200.471457 C1110.29891,259.664134 1062.26236,307.731289 1003.18464,307.731289 L1003.18464,307.731289 Z M1465.36951,14.8625563 C1455.52131,14.8625563 1446.07812,15.7031888 1436.62437,16.5849898 C1392.44821,21.7015665 1357.69412,37.5998512 1330.68193,56.4546084 L1330.68193,21.3070884 L1211.96538,21.3070884 L1211.96538,78.3407033 C1161.77081,27.70944 1072.99233,7.14177488 1003.47469,7.14177488 L1003.18464,7.13123721 C940.14214,7.13123721 871.350147,21.5665712 821.010009,56.7457042 L821.020547,344.746746 C871.060093,379.667468 939.40486,394.236755 1003.18464,394.236755 L1003.47469,394.236755 C1083.28671,394.236755 1158.77108,369.092525 1209.39181,326.182073 L1209.40234,506.229254 L1330.68193,506.229254 L1330.68193,346.314121 C1349.53773,363.924242 1385.5997,385.820904 1436.62437,392.223256 C1446.91876,393.541686 1457.63819,394.236755 1468.80485,394.236755 C1564.32845,394.236755 1689.19841,336.912045 1689.19841,201.747706 C1689.19841,76.213254 1588.37257,14.8625563 1465.36951,14.8625563 L1465.36951,14.8625563 Z" id="_47521032" fill="#FF8605"></path>
                    <path d="M821.308517,345.037872 C777.671323,315.016454 746.768134,268.266687 746.768134,200.907073 C746.768134,134.139178 776.820123,87.3482716 821.29795,56.4546084 C865.494177,87.3482716 895.952253,134.139178 895.952253,200.907073 C895.952253,268.266687 865.494177,314.580837 821.308517,345.037872 L821.308517,345.037872 L821.308517,345.037872 Z" id="_92386648" fill="#DC3002"></path>
                </g>
            </g>
        </g>
    </g>
</svg>