<?xml version="1.0" encoding="utf-8"?>
<!-- Generator: Adobe Illustrator 18.1.1, SVG Export Plug-In . SVG Version: 6.00 Build 0)  -->
<svg version="1.1" id="Layer_1" xmlns="http://www.w3.org/2000/svg" xmlns:xlink="http://www.w3.org/1999/xlink" x="0px" y="0px"
	 viewBox="-155 279 1740.5 512" enable-background="new -155 279 1740.5 512" xml:space="preserve">
<path fill="#FFFFFF" d="M1559,395.3c-29.7-36-82.2-56.7-143.9-56.7c-65.3,0-124,22.2-164.7,58.2l6.6-41.6l-17.6-5.2
	c-25-7.4-52.7-11.4-80.2-11.4c-47.3,0-92.5,14.6-129,38.7l10.5-34.6H758.1l-3.4,11.1c-25.1-10.1-52.7-15.1-83.9-15.1
	c-58.2,0-121.1,22.6-153.8,66.1c-2.1-3.2-4.4-6.3-6.9-9.3c-29.7-36-82.2-56.7-143.9-56.7c-63.4,0-120.6,20.9-161.1,55.1l15.8-95.9
	l-17.9-5.2c-30.6-8.9-64.6-13.5-98.4-13.5C-19.3,279-132,357.7-152,458.2c-8.5,42.7,1.4,84.2,28,116.6c22.7,27.7,56.2,47.4,96,57.4
	h-122.7v156.9h625l1-1.9l0.1,1.9h75.2l10.2-16.6l-3.1,16.6h170.1l2.5-13.1c14.9,9.7,34.3,14.9,56.7,14.9c20,0,38.5-4.1,54.5-11.5
	l-1.8,9.7H941h33.5H1078l0.4-2.1c11.1,2.5,22.7,4,33.8,4c6.7,0,13.7-0.6,20.6-1.8h90.9l6.7-14.3h6.1l1.8,14.3h41.9h56.2h45.3h33.5
	h103.5l13.9-73.4h-5.1l1.9-10.1h3.7l14-73.4h-7.8c6.3-5.7,10.9-13.1,12.5-21.5c1.9-9.9-0.7-20-7.1-27.7c-1.7-2-3.6-3.7-5.6-5.3
	c22.3-22.8,37.7-50.5,43.7-81.6C1590.2,458,1582,423.1,1559,395.3z M1396.7,710.3h-8.6l13-68.3c3-0.4,5.9-0.8,8.8-1.3L1396.7,710.3z
	 M1196,488.2c-0.9,4.6-1.5,9.1-2,13.5c-18.9,12.7-36.7,18.6-55.6,18.6c-12.8,0-23.9-4.2-29.7-11.2c-3.3-4-4.4-8.4-3.4-13.6
	c3.4-17.5,27.1-32.8,50.8-32.8c14.8,0,28.7,5.2,42.3,15.9C1197.6,481.8,1196.7,484.9,1196,488.2z M1215.2,632.2l-9.2,15.2l-7.7-4.3
	c-5.1-2.8-10.5-5-16.1-6.9c4.1-1,7.9-2.1,11.3-3.3l10.8-3.9l10.6-46.4c1.4,2,2.8,4,4.4,5.9c16,19.3,39,34.1,66.8,43.6L1215.2,632.2
	L1215.2,632.2z M1308.9,638.7l-3.7,19.3l-5.1-21.5C1303,637.3,1305.9,638,1308.9,638.7z M1398.8,464.7c11.5,0,20.4,3.1,25,8.6
	c4.2,5.1,4.1,11.6,3.2,16.2c-3.7,18.9-23.1,32.1-47.3,32.1c-11.8,0-21.1-3.1-25.5-8.5c-3.1-3.8-4-9-2.7-15.7
	C1354.6,481.2,1371.9,464.7,1398.8,464.7z M866.6,646.3c-3.3-2.2-6.9-4.2-10.7-6h11.8L866.6,646.3z M801.6,710.3
	c-1.5,1.4-4,2.3-6.9,2.4C796.1,711.4,798.5,710.4,801.6,710.3z M783.1,466.5l-14,46.2c-0.9-12.3-4.8-23.5-11.5-33.5
	c-2.8-4.1-6.1-7.8-9.7-11.3L783.1,466.5z M378.1,489.5c-3.7,18.9-23.1,32.1-47.3,32.1c-11.8,0-21.1-3.1-25.5-8.5
	c-3.1-3.8-4-9-2.7-15.7c3.1-16.3,20.4-32.8,47.4-32.8c11.5,0,20.4,3.1,25,8.6C379.2,478.4,379,485,378.1,489.5z M540.3,639.8l-0.5,1
	l-0.1-1.1C540,639.7,540.1,639.7,540.3,639.8z M749.1,578.2l-16.4,54h-63C702,621.6,730.8,603.8,749.1,578.2z M756,640.3h3.5
	c-1.3,0.5-2.6,1.1-3.8,1.7L756,640.3z M78.8,498.7c-18,0-33.5-5.9-41.6-15.8c-4.7-5.7-6.3-12-4.8-19.3c4.7-23.5,36-43.4,68.4-43.4
	c21.9,0,42.1,8.2,61.9,25c-5.2,9.8-9.4,20-12.4,30.7C126.1,491.3,103.3,498.7,78.8,498.7z M449,610l20.4,9.2
	c11.3,5.1,23.9,9.4,37,13.1h-38l-4.1,8.2l-0.5-8.2h-65.8C416.5,626.6,433.6,619.1,449,610z M947.4,710.3l14.8-78h-72L940.7,466
	l15.4,0.6c-2.8,7.6-5.2,15.3-6.8,23.3c-7.2,37.1,1.5,72.9,24.6,100.8c15.2,18.4,36,32.4,60.4,41.5h-63.5l-14.8,78L947.4,710.3
	L947.4,710.3z M145.4,626.4l10.8-3.8l9.5-40.3c1.5,2.1,2.9,4.3,4.6,6.3c16,19.3,39,34.1,66.7,43.6H122.3
	C130.9,630.6,138.9,628.7,145.4,626.4z M1446.9,632.2c9.3-2.9,18.3-6.2,26.9-10c1.3,3,2.8,6,4.9,8.5c0.5,0.5,1.1,1,1.5,1.5H1446.9z"
	/>
<g>
	<path fill="#005DAA" d="M444.1,653.3l4.3,68.6h1.1c2.3-7,4.7-14.3,8.2-21.2l23.6-47.4h38.4l5.8,68.6h1.1c2-6.7,4.3-13.7,7.3-20.3
		l23.1-48.3h52.1l-70.5,114.9h-43.7l-3.9-62.5h-1.6c-1.7,6-3.1,11.7-5.9,17.4l-22.5,45.1h-42.6l-26.5-114.9H444.1z"/>
	<path fill="#005DAA" d="M605.6,653.3h48.3l-7.3,38.7h30.7l7.4-38.7h48.3l-21.8,114.9h-48.3l7.6-39.9h-30.7l-7.6,39.9h-48.3
		L605.6,653.3z"/>
	<path fill="#005DAA" d="M874.3,711c-7,36.9-45.4,59-87.5,59c-42.1,0-72.1-22.1-65.1-59c6.9-36.1,45.7-59.6,87.6-59.6
		S881.2,674.9,874.3,711z M772.2,711.6c-2.5,13.1,6.4,22.1,21.6,22.1c15.2,0,27.5-9,30-22.1c2.3-12.2-5.6-22.4-21.5-22.4
		C786.3,689.2,774.5,699.4,772.2,711.6z"/>
	<path fill="#005DAA" d="M885.3,653.3h50.1l-14.8,78h42.1l-7,36.9h-92.2L885.3,653.3z"/>
	<path fill="#005DAA" d="M1081.2,727l2.2,1.7c7.9,5.8,17.7,10.5,29.3,10.5c4.9,0,13.1-1.7,14.1-6.9s-5.5-5.6-9.9-6.4l-9.8-1.5
		c-19-2.9-33.6-12.5-30.2-30.5c5.2-27.3,37.9-42.5,67.9-42.5c15.7,0,29.6,3.2,41.8,10.1l-19.1,29.4c-7.7-4.9-16.6-8.7-27.4-8.7
		c-4.4,0-11.1,1.4-11.9,6.1c-0.8,4.3,5.3,4.9,9,5.6l10.9,2.1c20.4,4,34,13.4,30.3,32.9c-5.2,27.4-37.8,41-67.6,41
		c-17.4,0-36.7-4-51-10.5L1081.2,727z"/>
	<path fill="#005DAA" d="M1253.4,726.6l-2-20.3c-0.5-4.9-0.5-9.9-0.5-14.8h-1.8l-15.8,35.1H1253.4z M1209.8,768.2h-53l69.8-114.9
		h55.4l27.4,114.9h-53l-1.8-14.3h-37.9L1209.8,768.2z"/>
	<path fill="#005DAA" d="M1327,653.3h50.1l-14.8,78h42.1l-7,36.9h-92.2L1327,653.3z"/>
	<path fill="#005DAA" d="M1428.4,653.3h92.8l-6,31.4H1473l-2.1,11h38.6l-5.7,29.9h-38.6l-2.1,11.3h43.7l-6,31.4h-94.2L1428.4,653.3z
		"/>
	<g>
		<path fill="#E31837" d="M748.5,446.7l63.3-2.4l-53.1,175h113.5l53.1-175l61.9,2.4l25.2-83.1H773.7L748.5,446.7z"/>
		<path fill="#E31837" d="M513.4,492.2c-15.9,82-102.9,131.2-198.2,131.2c-95.3,0-163.3-49.2-147.4-131.2
			c15.5-80.4,103.5-132.6,198.4-132.6C461.1,359.6,528.9,411.8,513.4,492.2z M281.9,493.5c-5.6,29.2,14.5,49.2,48.9,49.2
			s62.3-20,67.9-49.2c5.2-27.1-12.7-49.8-48.8-49.8C313.9,443.7,287.2,466.4,281.9,493.5z"/>
		<path fill="#E31837" d="M478.1,600c32.4,14.6,76.3,23.4,115.6,23.4c67.5,0,141.3-30.2,153.1-91.2c8.4-43.4-22.3-64.4-68.7-73.2
			l-24.8-4.7c-8.4-1.7-22.2-3.1-20.4-12.6c2-10.5,17.1-13.6,27.1-13.6c24.4,0,44.8,8.5,62.1,19.3l43.3-65.4
			c-27.7-15.3-59.1-22.4-94.7-22.4c-68,0-142.1,33.9-153.8,94.6c-7.7,40,25.4,61.4,68.5,67.8l22.1,3.4c10,1.7,24.8,2.7,22.5,14.2
			c-2.2,11.5-20.8,15.3-32,15.3c-26.1,0-48.5-10.5-66.3-23.4l-5.1-3.7L478.1,600z"/>
		<path fill="#E31837" d="M1233.3,370.1c-22.7-6.8-48.5-10.5-74.2-10.5c-91.6,0-174.8,59.7-189.2,134.3
			c-14.1,72.9,44.6,129.5,133.6,129.5c20.3,0,63.1-3.1,82.8-10.2l21.8-95.6c-21.1,14.6-43.5,23.7-69.6,23.7
			c-34,0-59.2-21.7-53.7-49.8c5.4-27.8,37.4-49.8,71.4-49.8c25.7,0,46.2,11.9,61.7,25.8L1233.3,370.1z"/>
		<path fill="#E31837" d="M1415.1,359.6c-94.9,0-182.9,52.2-198.4,132.6c-15.9,82,52.1,131.2,147.4,131.2
			c95.3,0,182.3-49.2,198.1-131.2C1577.8,411.8,1510,359.6,1415.1,359.6z M1398.8,443.7c36,0,54,22.7,48.8,49.8
			c-5.6,29.2-33.5,49.2-67.9,49.2c-34.4,0-54.5-20-48.9-49.2C1336,466.4,1362.8,443.7,1398.8,443.7z"/>
		<path fill="#E31837" d="M197.1,312.7c-28.3-8.2-60.5-12.7-92.5-12.7c-114.2,0-218,72.1-236,162.3
			C-149,550.4-75.9,618.9,35.2,618.9c25.3,0,78.8-3.7,103.2-12.3L165.6,491c-26.2,17.6-54.3,28.7-86.9,28.7
			c-42.4,0-73.8-26.2-67-60.3c6.7-33.6,46.7-60.3,89-60.3c32,0,57.6,14.4,77,31.2L197.1,312.7z"/>
		<path fill="#E31837" d="M1492.4,606.9c1.7-8.9,11.7-16.1,22.5-16.1c10.7,0,18,7.2,16.3,16.1c-1.7,9-11.7,16.2-22.5,16.2
			C1497.9,623.1,1490.7,615.9,1492.4,606.9z M1526.1,606.9c1.4-7.2-3.8-11.9-12.1-11.9c-8.4,0-15.3,4.7-16.6,11.9
			c-1.4,7.2,3.6,12,12.1,12C1517.8,618.8,1524.8,614.1,1526.1,606.9z M1519.2,615.3h-5l-3.2-7.2h-3.3l-1.4,7.2h-4.3l3.2-16.9h9.8
			c4.3,0,6.7,1.2,5.9,5.2c-0.6,2.9-2.8,4.4-5.5,4.6L1519.2,615.3z M1513,604.9c2.1,0,4,0,4.3-1.8c0.3-1.5-1.6-1.5-3.7-1.5h-4.6
			l-0.6,3.3H1513z"/>
	</g>
	<polygon fill="#005DAA" points="-123.5,768.4 407.9,768.4 407.8,768.2 407.4,768.2 400.7,738.9 -123.5,738.9 	"/>
	<polygon fill="#005DAA" points="-123.5,726.6 397.8,726.6 391,697.2 -123.5,697.2 	"/>
	<polygon fill="#005DAA" points="-123.5,684.6 388,684.6 385.7,673.9 381,653.5 -123.5,653.5 	"/>
	<path fill="#005DAA" d="M986.8,653.3h92.7l-6,31.4h-42.2l-2.1,11h38.6l-5.7,29.9h-38.6l-2.1,11.3h43.7l-6,31.4H965L986.8,653.3z"/>
</g>
</svg>
