<?xml version="1.0" encoding="iso-8859-1"?><!-- Generator: Adobe Illustrator 16.0.0, SVG Export Plug-In . SVG Version: 6.00 Build 0) --><!DOCTYPE svg PUBLIC "-//W3C//DTD SVG 1.1//EN" "http://www.w3.org/Graphics/SVG/1.1/DTD/svg11.dtd"><svg version="1.1" id="Layer_1" xmlns="http://www.w3.org/2000/svg" xmlns:xlink="http://www.w3.org/1999/xlink" x="0px" y="0px" width="187.01px" height="55.013px" viewBox="217.273 298.789 187.01 55.013" style="enable-background:new 217.273 298.789 187.01 55.013;" xml:space="preserve"><path style="fill:#FFFFFF;" d="M401.434,311.283c-3.193-3.873-8.83-6.095-15.459-6.095c-7.014,0-13.328,2.386-17.701,6.257	l0.713-4.47l-1.895-0.563c-2.686-0.8-5.664-1.224-8.619-1.224c-5.078,0-9.935,1.57-13.857,4.157l1.129-3.72H315.38l-0.36,1.188	c-2.697-1.084-5.666-1.625-9.01-1.625c-6.25,0-13.017,2.427-16.529,7.098c-0.23-0.342-0.471-0.679-0.74-1.003	c-3.194-3.873-8.829-6.095-15.459-6.095c-6.807,0-12.961,2.244-17.314,5.916l1.694-10.305l-1.927-0.557	c-3.289-0.951-6.943-1.454-10.57-1.454c-13.307,0-25.417,8.458-27.57,19.254c-0.918,4.593,0.153,9.042,3.012,12.529	c2.438,2.971,6.037,5.089,10.312,6.171h-13.184v16.861h67.152l0.104-0.205l0.013,0.205h8.083l1.096-1.786l-0.338,1.786h18.274	l0.269-1.408c1.605,1.04,3.69,1.604,6.092,1.604c2.146,0,4.137-0.444,5.853-1.235l-0.196,1.039h10.903h3.597h11.123l0.043-0.229	c1.188,0.268,2.436,0.426,3.629,0.426c0.723,0,1.469-0.064,2.211-0.195h9.77l0.725-1.539h0.651l0.198,1.539h4.507h6.036h4.869h3.597	h11.122l1.498-7.891h-0.551l0.207-1.084h0.394l1.5-7.889h-0.834c0.681-0.615,1.175-1.405,1.347-2.305	c0.201-1.067-0.076-2.154-0.761-2.98c-0.179-0.214-0.382-0.402-0.603-0.571c2.391-2.455,4.047-5.426,4.691-8.766	C404.791,318.024,403.904,314.276,401.434,311.283z M384.002,345.126h-0.925l1.396-7.336c0.318-0.041,0.635-0.087,0.949-0.137	L384.002,345.126z M362.438,321.262c-0.096,0.49-0.162,0.975-0.211,1.451c-2.033,1.36-3.938,2.003-5.976,2.003	c-1.379,0-2.573-0.45-3.194-1.204c-0.354-0.428-0.473-0.907-0.363-1.464c0.363-1.879,2.912-3.527,5.453-3.527	c1.59,0,3.084,0.562,4.549,1.713C362.605,320.574,362.504,320.913,362.438,321.262z M364.496,336.742l-0.992,1.635l-0.824-0.462	c-0.543-0.305-1.127-0.54-1.728-0.744c0.44-0.104,0.851-0.223,1.209-0.353l1.157-0.421l1.137-4.984	c0.154,0.214,0.3,0.433,0.471,0.639c1.715,2.079,4.188,3.669,7.172,4.689L364.496,336.742L364.496,336.742z M374.559,337.432	l-0.395,2.075l-0.549-2.305C373.926,337.283,374.238,337.362,374.559,337.432z M384.227,318.739c1.238,0,2.191,0.329,2.686,0.926	c0.453,0.55,0.438,1.251,0.34,1.744c-0.395,2.033-2.48,3.453-5.082,3.453c-1.266,0-2.266-0.334-2.744-0.916	c-0.332-0.403-0.432-0.969-0.294-1.682C379.469,320.513,381.328,318.739,384.227,318.739z M327.044,338.257	c-0.356-0.241-0.743-0.454-1.147-0.646h1.271L327.044,338.257z M320.053,345.124c-0.164,0.146-0.431,0.244-0.74,0.262	C319.471,345.25,319.719,345.138,320.053,345.124z M318.066,318.929l-1.508,4.964c-0.098-1.325-0.511-2.53-1.234-3.603	c-0.299-0.439-0.655-0.839-1.047-1.219L318.066,318.929z M274.557,321.408c-0.393,2.034-2.482,3.454-5.082,3.454	c-1.264,0-2.265-0.334-2.744-0.916c-0.334-0.403-0.432-0.969-0.293-1.682c0.338-1.753,2.197-3.525,5.096-3.525	c1.238,0,2.191,0.329,2.686,0.926C274.67,320.215,274.652,320.917,274.557,321.408z M291.984,337.549l-0.049,0.104l-0.01-0.113	C291.945,337.542,291.964,337.546,291.984,337.549z M314.421,330.94l-1.761,5.802h-6.764	C309.354,335.601,312.454,333.688,314.421,330.94z M315.154,337.611h0.377c-0.139,0.059-0.275,0.118-0.41,0.182L315.154,337.611z M242.395,322.392c-1.93,0-3.602-0.634-4.473-1.694c-0.504-0.614-0.673-1.294-0.518-2.078c0.504-2.525,3.871-4.658,7.353-4.658	c2.351,0,4.526,0.882,6.653,2.683c-0.562,1.051-1.01,2.15-1.334,3.298C247.479,321.603,245.025,322.392,242.395,322.392z M282.176,334.347l2.196,0.989c1.214,0.546,2.563,1.013,3.976,1.407h-4.088l-0.438,0.877l-0.057-0.877h-7.066	C278.676,336.136,280.512,335.329,282.176,334.347z M335.721,345.126l1.594-8.384h-7.735L335,318.877l1.652,0.063	c-0.305,0.815-0.561,1.646-0.729,2.504c-0.771,3.986,0.166,7.835,2.643,10.834c1.631,1.977,3.871,3.479,6.492,4.463h-6.818	l-1.594,8.384L335.721,345.126L335.721,345.126z M249.555,336.115l1.164-0.41l1.018-4.326c0.164,0.228,0.316,0.457,0.496,0.674	c1.715,2.079,4.187,3.669,7.17,4.689h-12.338C247.998,336.567,248.855,336.36,249.555,336.115z M389.395,336.742	c1.002-0.31,1.967-0.667,2.895-1.074c0.137,0.326,0.301,0.641,0.529,0.918c0.05,0.058,0.113,0.103,0.164,0.156H389.395z"/><g><path style="fill:#005DAA;" d="M281.646,339l0.467,7.369h0.117c0.242-0.753,0.51-1.539,0.885-2.276l2.541-5.093h4.127l0.623,7.369	h0.119c0.215-0.722,0.457-1.476,0.787-2.179l2.479-5.19h5.601l-7.574,12.347h-4.696l-0.414-6.714h-0.177	c-0.18,0.64-0.338,1.261-0.631,1.867l-2.414,4.847h-4.58L276.064,339H281.646z"/><path style="fill:#005DAA;" d="M299,339h5.188l-0.789,4.159h3.301L307.49,339h5.188l-2.346,12.347h-5.188l0.814-4.29h-3.303	l-0.814,4.29h-5.188L299,339z"/><path style="fill:#005DAA;" d="M327.873,345.206c-0.753,3.963-4.881,6.337-9.398,6.337c-4.521,0-7.746-2.375-6.992-6.337	c0.738-3.881,4.912-6.403,9.412-6.403S328.609,341.325,327.873,345.206z M316.895,345.271c-0.269,1.408,0.688,2.375,2.319,2.375	c1.632,0,2.955-0.967,3.224-2.375c0.248-1.311-0.604-2.406-2.313-2.406C318.412,342.865,317.143,343.961,316.895,345.271z"/><path style="fill:#005DAA;" d="M329.053,339h5.385l-1.594,8.384h4.521l-0.754,3.962h-9.905L329.053,339z"/><path style="fill:#005DAA;" d="M350.104,346.925l0.24,0.182c0.844,0.621,1.907,1.13,3.146,1.13c0.531,0,1.41-0.182,1.516-0.737	s-0.592-0.605-1.066-0.688l-1.051-0.164c-2.045-0.312-3.615-1.344-3.25-3.274c0.559-2.931,4.072-4.569,7.295-4.569	c1.69,0,3.18,0.346,4.492,1.081l-2.055,3.161c-0.824-0.523-1.788-0.934-2.948-0.934c-0.471,0-1.188,0.146-1.282,0.653	c-0.088,0.458,0.567,0.524,0.965,0.606l1.176,0.229c2.197,0.428,3.656,1.441,3.26,3.537c-0.562,2.948-4.062,4.405-7.266,4.405	c-1.865,0-3.947-0.426-5.483-1.13L350.104,346.925z"/><path style="fill:#005DAA;" d="M368.604,346.876l-0.215-2.178c-0.058-0.524-0.054-1.064-0.051-1.589h-0.197l-1.697,3.767H368.604z M363.916,351.347h-5.699L365.713,339h5.954l2.94,12.347h-5.699l-0.198-1.539h-4.067L363.916,351.347z"/><path style="fill:#005DAA;" d="M376.504,339h5.385l-1.594,8.384h4.521l-0.754,3.962h-9.904L376.504,339z"/><path style="fill:#005DAA;" d="M387.408,339h9.966l-0.642,3.374h-4.541l-0.225,1.179h4.146l-0.609,3.21h-4.146l-0.229,1.211h4.698	l-0.643,3.373h-10.121L387.408,339z"/><g><path style="fill:#E31837;" d="M314.348,316.81l6.799-0.255l-5.705,18.8h12.199l5.703-18.8l6.646,0.255l2.707-8.926h-25.643	L314.348,316.81z"/><path style="fill:#E31837;" d="M289.089,321.691c-1.706,8.814-11.052,14.099-21.292,14.099c-10.238,0-17.542-5.283-15.836-14.099	c1.67-8.636,11.125-14.244,21.32-14.244C283.475,307.447,290.76,313.057,289.089,321.691z M264.219,321.837	c-0.605,3.133,1.562,5.283,5.256,5.283c3.694,0,6.692-2.149,7.299-5.283c0.563-2.914-1.369-5.354-5.242-5.354	C267.658,316.481,264.783,318.923,264.219,321.837z"/><path style="fill:#E31837;" d="M285.298,333.276c3.481,1.564,8.195,2.514,12.425,2.514c7.256,0,15.184-3.242,16.453-9.8	c0.901-4.663-2.4-6.922-7.382-7.869l-2.661-0.51c-0.9-0.184-2.386-0.328-2.189-1.35c0.219-1.129,1.841-1.458,2.91-1.458	c2.625,0,4.81,0.911,6.676,2.077l4.654-7.031c-2.979-1.639-6.347-2.402-10.176-2.402c-7.301,0-15.263,3.643-16.523,10.164	c-0.832,4.299,2.73,6.594,7.359,7.286l2.379,0.363c1.078,0.185,2.66,0.292,2.42,1.53s-2.231,1.639-3.435,1.639	c-2.806,0-5.213-1.129-7.126-2.513l-0.545-0.401L285.298,333.276z"/><path style="fill:#E31837;" d="M366.443,308.576c-2.44-0.729-5.213-1.129-7.975-1.129c-9.838,0-18.779,6.412-20.33,14.427	c-1.517,7.833,4.787,13.917,14.358,13.917c2.181,0,6.784-0.328,8.894-1.093l2.344-10.273c-2.264,1.566-4.678,2.55-7.483,2.55	c-3.649,0-6.36-2.332-5.774-5.354c0.578-2.988,4.021-5.355,7.67-5.355c2.76,0,4.961,1.275,6.633,2.771L366.443,308.576z"/><path style="fill:#E31837;" d="M385.975,307.447c-10.193,0-19.648,5.608-21.32,14.243c-1.705,8.815,5.599,14.1,15.839,14.1	c10.237,0,19.586-5.283,21.29-14.1C403.452,313.057,396.168,307.447,385.975,307.447z M384.227,316.481	c3.873,0,5.807,2.439,5.24,5.354c-0.605,3.133-3.604,5.283-7.299,5.283s-5.861-2.149-5.255-5.283	C377.477,318.923,380.354,316.481,384.227,316.481z"/><path style="fill:#E31837;" d="M255.105,302.411c-3.045-0.881-6.5-1.365-9.943-1.365c-12.271,0-23.424,7.75-25.357,17.438	c-1.889,9.468,5.971,16.82,17.908,16.82c2.721,0,8.465-0.396,11.092-1.319l2.922-12.42c-2.82,1.895-5.834,3.084-9.332,3.084	c-4.553,0-7.933-2.819-7.203-6.476c0.721-3.61,5.013-6.474,9.564-6.474c3.441,0,6.188,1.542,8.271,3.347L255.105,302.411z"/><path style="fill:#E31837;" d="M394.277,334.019c0.183-0.96,1.252-1.732,2.416-1.732c1.154,0,1.938,0.773,1.756,1.732	c-0.186,0.965-1.26,1.737-2.416,1.737C394.87,335.756,394.096,334.981,394.277,334.019z M397.904,334.019	c0.146-0.772-0.407-1.279-1.299-1.279c-0.906,0-1.639,0.507-1.783,1.279c-0.146,0.772,0.391,1.284,1.298,1.284	C397.012,335.303,397.758,334.792,397.904,334.019z M397.162,334.925h-0.539l-0.34-0.769h-0.352l-0.146,0.769h-0.458l0.345-1.815	h1.057c0.467,0,0.719,0.129,0.639,0.556c-0.061,0.311-0.305,0.471-0.586,0.493L397.162,334.925z M396.494,333.809	c0.229,0,0.426,0,0.464-0.193c0.03-0.16-0.168-0.16-0.397-0.16h-0.496L396,333.809H396.494z"/></g><polygon style="fill:#005DAA;" points="220.658,351.367 277.751,351.367 277.747,351.347 277.699,351.347 276.979,348.207	220.658,348.207	"/><polygon style="fill:#005DAA;" points="220.658,346.879 276.672,346.879 275.943,343.72 220.658,343.72	"/><polygon style="fill:#005DAA;" points="220.658,342.372 275.615,342.372 275.369,341.221 274.863,339.024 220.658,339.024	"/><path style="fill:#005DAA;" d="M339.959,339h9.964l-0.642,3.374h-4.539l-0.225,1.179h4.146l-0.608,3.21h-4.146l-0.23,1.211h4.697	l-0.641,3.373h-10.123L339.959,339z"/></g></svg>