<?xml version="1.0" encoding="UTF-8" standalone="no"?>
<svg width="1762px" height="512px" viewBox="0 0 1762 512" version="1.1" xmlns="http://www.w3.org/2000/svg" xmlns:xlink="http://www.w3.org/1999/xlink">
    <!-- Generator: Sketch 3.6.1 (26313) - http://www.bohemiancoding.com/sketch -->
    <title>Critizr</title>
    <desc>Created with Sketch.</desc>
    <defs></defs>
    <g id="Page-1" stroke="none" stroke-width="1" fill="none" fill-rule="evenodd">
        <g id="Critizr" fill="#236DAA">
            <g id="print-kit">
                <g id="logotype_blue">
                    <path d="M409.616437,472.833463 C362.073491,498.917401 315.273121,512 269.07949,512 C195.818074,512 132.631235,486.277209 79.5914192,434.912887 C26.5199079,383.530507 0,321.566481 0,248.944065 C0,179.432038 27.9869474,120.226282 83.9019793,70.9927349 C137.639092,23.677788 199.820737,0 270.392581,0 C298.864013,0 322.830186,2.3971221 342.340905,7.22748116 C360.121967,11.6650914 382.544126,20.5628835 409.616437,33.8170276 L359.651065,91.5556181 C343.721914,81.8452425 312.384322,76.9652251 265.724316,76.9652251 C219.123173,76.9652251 177.715532,94.1197715 141.564781,128.437892 C105.346112,162.756013 87.2345136,203.136912 87.2345136,249.684419 C87.2345136,299.631234 104.599009,342.625944 139.192162,378.478945 C173.789843,414.246173 216.039674,432.317133 265.724316,432.317133 C308.372602,432.317133 339.692084,423.157509 359.651065,404.97369 L409.616437,472.833463 L409.616437,472.833463 Z M1718.06622,399.700924 C1623.75008,380.876067 1640.33124,515.629541 1716.14639,498.989631 C1747.32552,492.326444 1772.05237,455.263596 1756.49451,427.689921 C1744.98006,407.334697 1718.06622,399.700924 1718.06622,399.700924 L1718.06622,399.700924 Z M606.086529,187.03421 L604.895691,267.317486 C548.862934,276.707343 522.610172,301.725894 526.173629,342.219652 L526.173629,479.559851 L451.101054,479.559851 L451.101054,207.136629 L485.368198,241.323835 C516.92313,214.576286 557.194269,196.451153 606.086529,187.03421 L606.086529,187.03421 Z M664.645855,200.035551 L739.781823,200.035551 L739.781823,479.564365 L664.645855,479.564365 L664.645855,200.035551 L664.645855,200.035551 Z M961.508536,270.278902 L910.144041,270.278902 L910.144041,479.559851 L834.935631,479.559851 L834.935631,270.278902 L797.068807,269.619807 L834.935631,202.437187 L834.935631,105.10771 L910.144041,105.10771 L910.144041,202.437187 L961.508536,202.437187 L961.508536,270.278902 L961.508536,270.278902 Z M1018.95853,200.035551 L1094.02657,200.035551 L1094.02657,479.564365 L1018.95853,479.564365 L1018.95853,200.035551 L1018.95853,200.035551 Z M1476.44845,208.350991 L1295.44113,412.80158 L1455.05412,412.80158 L1455.05412,479.559851 L1143.44407,479.559851 L1324.91776,274.915144 L1188.38347,274.915144 L1188.38347,208.350991 L1476.44845,208.350991 L1476.44845,208.350991 Z M1675.15985,187.03421 L1673.91015,267.317486 C1617.93173,276.707343 1591.74688,301.725894 1595.28317,342.219652 L1595.28317,479.559851 L1520.15626,479.559851 L1520.15626,207.136629 L1554.50038,241.323835 C1586.07795,214.576286 1626.23589,196.451153 1675.15985,187.03421 L1675.15985,187.03421 Z M1070.97504,53.0752627 C974.874897,44.4167313 1005.89554,176.890456 1079.71841,152.382027 C1110.07798,142.197644 1130.67992,102.760245 1112.23326,76.9877968 C1098.54994,57.8017916 1070.97504,53.0752627 1070.97504,53.0752627 L1070.97504,53.0752627 Z M696.716971,94.0023985 C629.880642,119.562672 693.923253,197.620371 735.077335,157.284616 C751.930177,140.635677 752.767836,107.685406 732.043639,96.462721 C716.657835,88.1924246 696.716971,94.0023985 696.716971,94.0023985 L696.716971,94.0023985 Z" id="logo-bleu-copy-2"></path>
                </g>
            </g>
        </g>
    </g>
</svg>