<?xml version="1.0" encoding="UTF-8" standalone="no"?>
<svg width="2580px" height="750px" viewBox="0 0 2580 750" version="1.1" xmlns="http://www.w3.org/2000/svg" xmlns:xlink="http://www.w3.org/1999/xlink" xmlns:sketch="http://www.bohemiancoding.com/sketch/ns">
    <!-- Generator: Sketch 3.3.3 (12072) - http://www.bohemiancoding.com/sketch -->
    <title>logotype_blue_vector</title>
    <desc>Created with Sketch.</desc>
    <defs></defs>
    <g id="print-kit" stroke="none" stroke-width="1" fill="none" fill-rule="evenodd" sketch:type="MSPage">
        <g id="logotype_blue" sketch:type="MSArtboardGroup" fill="#236DAA">
            <path d="M600.024078,692.627143 C530.381091,730.836037 461.825861,750 394.159409,750 C286.842882,750 194.284036,712.320131 116.588993,637.079424 C38.8475214,561.812266 0,471.04465 0,364.664157 C0,262.839899 40.996505,176.112718 122.90329,103.993264 C201.619764,34.6842597 292.706158,0 396.082882,0 C437.789082,0 472.89578,3.51140932 501.475935,10.5871306 C527.522412,17.0875362 560.367372,30.1214114 600.024078,49.5366615 L526.832615,134.114675 C503.498898,119.890492 457.594221,112.742029 389.244604,112.742029 C320.981211,112.742029 260.325486,137.870759 207.370285,188.141444 C154.315594,238.412129 127.784932,297.563836 127.784932,365.74866 C127.784932,438.91294 153.221204,501.893472 203.894768,554.412517 C254.574965,606.805918 316.464366,633.277051 389.244604,633.277051 C451.717679,633.277051 497.595826,619.859632 526.832615,593.223178 L600.024078,692.627143 Z M2516.69857,585.4994 C2378.54015,557.923926 2402.82897,755.31671 2513.88632,730.941842 C2559.55886,721.181315 2595.77984,666.890033 2572.99,626.498907 C2556.12313,596.681685 2516.69857,585.4994 2516.69857,585.4994 Z M887.822064,273.975894 L886.077673,391.578349 C803.998438,405.333022 765.542244,441.98129 770.762152,501.298318 L770.762152,702.48025 L660.792559,702.48025 L660.792559,303.422797 L710.988571,353.501711 C757.211616,314.320731 816.202543,287.770244 887.822064,273.975894 Z M973.602326,293.020826 L1083.66478,293.020826 L1083.66478,702.486863 L973.602326,702.486863 L973.602326,293.020826 Z M1408.45977,395.916361 L1333.21881,395.916361 L1333.21881,702.48025 L1223.05024,702.48025 L1223.05024,395.916361 L1167.58126,394.950889 L1223.05024,296.538848 L1223.05024,153.966372 L1333.21881,153.966372 L1333.21881,296.538848 L1408.45977,296.538848 L1408.45977,395.916361 Z M1492.61503,293.020826 L1602.57799,293.020826 L1602.57799,702.486863 L1492.61503,702.486863 L1492.61503,293.020826 Z M2162.76628,305.201647 L1897.61885,604.689814 L2131.42693,604.689814 L2131.42693,702.48025 L1674.9669,702.48025 L1940.7975,402.707731 L1740.7961,402.707731 L1740.7961,305.201647 L2162.76628,305.201647 Z M2453.84743,273.975894 L2452.01682,391.578349 C2370.01718,405.333022 2331.66047,441.98129 2336.84058,501.298318 L2336.84058,702.48025 L2226.7914,702.48025 L2226.7914,303.422797 L2277.10017,353.501711 C2323.35637,314.320731 2382.18148,287.770244 2453.84743,273.975894 Z M1568.81109,77.7469669 C1428.0394,65.0635713 1473.47979,259.116879 1581.61877,223.21586 C1626.09079,208.29733 1656.26942,150.527703 1629.24794,112.775093 C1609.20402,84.6705932 1568.81109,77.7469669 1568.81109,77.7469669 Z M1020.5815,137.698826 C922.676721,175.140633 1016.48914,289.482965 1076.77344,230.397387 C1101.46022,206.009293 1102.68726,157.742294 1072.32955,141.302814 C1049.79175,129.188122 1020.5815,137.698826 1020.5815,137.698826 Z" id="logo-bleu-copy-2" sketch:type="MSShapeGroup"></path>
        </g>
    </g>
</svg>