<?xml version="1.0" encoding="utf-8"?>
<!-- Generator: Adobe Illustrator 17.0.0, SVG Export Plug-In . SVG Version: 6.00 Build 0)  -->
<!DOCTYPE svg PUBLIC "-//W3C//DTD SVG 1.1//EN" "http://www.w3.org/Graphics/SVG/1.1/DTD/svg11.dtd">
<svg version="1.1" id="Layer_1" xmlns="http://www.w3.org/2000/svg" xmlns:xlink="http://www.w3.org/1999/xlink" x="0px" y="0px"
	 width="850px" height="850px" viewBox="0 0 850 850" enable-background="new 0 0 850 850" xml:space="preserve">
<g>
	<path d="M386.221,494.994c0,21.356-4.222,38.876-12.654,52.565c-9.517,15.548-23.35,23.32-41.514,23.32
		c-21.184,0-35.886-9.745-44.098-29.239c-5.63-13.455-8.433-33.996-8.433-61.615V345.664c0-12.298,3.132-24.593,9.403-36.899
		c9.516-18.797,23.89-28.193,43.129-28.193c20.54,0,35.242,8.352,44.109,25.062c7.131,12.768,10.487,29.822,10.059,51.171
		c0,6.96-0.112,12.301-0.328,16.01c-0.225,3.72-1.849,5.802-4.867,6.266c-3.026,0.472-8.431,0.582-16.22,0.352
		c-10.807-0.467-15.674-0.701-14.59-0.701c-3.896,0-5.951-1.97-6.158-5.917V348.1c-1.301-12.061-5.31-18.099-12.006-18.099
		c-8.863,0-13.298,20.655-13.298,61.96v98.856c0,6.5,0.868,12.654,2.605,18.451c2.375,8.126,5.94,12.18,10.694,12.18
		c8.44,0,12.649-12.18,12.649-36.549v-9.747c-0.212-3.944-0.323-6.26-0.323-6.961c0-4.175,1.509-6.263,4.544-6.263
		c13.62,0,24.428,0.116,32.427,0.344c3.241,0,4.872,1.973,4.872,5.919C386.422,474.227,386.422,483.159,386.221,494.994"/>
	<path d="M510.09,293.102L509.447,508.3c0,13.442-2.713,25.269-8.112,35.457c-9.298,17.618-25.188,26.427-47.672,26.427
		c-25.293,0-41.729-6.491-49.294-19.471c-5.187-8.344-7.779-24.451-7.779-48.322V293.102c0-1.955,0.372-3.6,1.134-4.941
		c0.756-1.349,1.787-2.021,3.08-2.021h34.699c3.674,0,5.513,1.743,5.513,5.222v108.257c-0.217,64.283-0.328,95.609-0.328,93.986
		c0,18.099,4.432,27.149,13.297,27.149c7.79,0,11.683-9.051,11.683-27.149V293.102c-0.223-4.639,1.183-6.963,4.208-6.963
		c21.408,0,33.464,0.126,36.164,0.373C508.736,286.753,510.09,288.954,510.09,293.102"/>
	<path d="M621.976,414.932c0,16.945-6.922,30.058-20.757,39.338c-10.165,6.732-21.077,10.094-32.745,10.094
		c-2.82,0-4.224,1.627-4.224,4.87c0,21.121-0.217,52.799-0.65,95.033c0,3.708-1.189,5.681-3.566,5.917
		c-7.572,0.926-19.03,0.926-34.377,0c-2.812-0.236-4.214-1.74-4.214-4.528L520.8,290.667c0-2.553,1.832-3.943,5.508-4.177
		c8.857-0.46,23.238-0.351,43.13,0.349c12.759,0,24.427,4.062,35.027,12.179c11.673,8.591,17.511,19.384,17.511,32.373V414.932z
		 M583.385,375.597c0.208-15.541-0.435-26.799-1.944-33.761c-1.299-5.337-3.14-8.582-5.515-9.745c-2.379-0.231-4.65-0.465-6.812-0.7
		c-0.866,0-2.487-0.226-4.864-0.693c-0.866-0.229-1.622,0.233-2.272,1.393c-0.643,1.163-0.868,2.433-0.643,3.831
		c0,17.399,0.105,42.584,0.323,75.53c0,2.092,1.073,3.602,3.243,4.526c1.075,0.47,2.482,0.349,4.212-0.346
		c5.189-0.465,8.538-2.204,10.055-5.222C581.761,405.077,583.17,393.47,583.385,375.597"/>
	<path d="M739.379,504.045c0,20.423-4.873,36.55-14.591,48.385c-9.732,11.836-23.462,17.753-41.185,17.753
		c-15.352,0-28.424-6.383-39.223-19.148c-11.461-13.689-16.971-31.441-16.536-53.257c0-3.71,0.113-9.747,0.315-18.099
		c0.223-4.873,1.411-7.31,3.573-7.31c2.159,0,8.267-0.226,18.317-0.696c10.047-0.465,16.155-0.693,18.316-0.693
		c2.157,0,3.251,3.017,3.251,9.046v17.057c0,16.709,4.208,25.065,12.638,25.065c6.699,0,10.264-5.689,10.705-17.057l0.65-19.493
		c0.202-5.796-5.41-14.735-16.861-26.803c-19.248-20.416-29.83-31.905-31.774-34.461c-11.468-14.386-17.193-27.498-17.193-39.331
		v-29.593c0-21.111,4.649-37.941,13.95-50.473c9.933-13.688,24.425-20.767,43.44-21.23c15.57-0.233,27.993,5.568,37.289,17.403
		c8.642,11.14,12.971,25.878,12.971,44.206v34.463c0,3.482-1.188,5.34-3.566,5.573c-6.271,0.693-18.051,0.693-35.34,0
		c-2.81,0-4.216-1.747-4.216-5.224c-0.217-5.337,0-14.62,0.651-27.849c0.21-4.872-0.598-9.687-2.429-14.444
		c-1.848-4.752-4.275-7.137-7.302-7.137c-8.425,0-12.649,7.657-12.649,22.977v18.096c0,7.195,5.733,17.409,17.191,30.633
		c10.802,12.302,21.61,24.6,32.419,36.898c11.458,15.313,17.191,28.89,17.191,40.726V504.045z"/>
	<path d="M266.137,367.825c0-47.538-32.482-86.029-73.345-88.703c-0.587,0.808-1.226,1.616-2.154,2.619
		c-3.418,3.746-5.852,8.873-7.413,15.656c-2.293,9.913-0.872,16.048,0.065,20.099c0.443,1.913,0.792,3.421,0.653,4.993
		c-0.365,3.81-2.587,5.504-4.628,5.504l-1.667-0.334c-3.382-1.372-6.017-7.024-7.859-16.823c-0.944-5.895-0.711-11.854,0.679-17.834
		c1.162-5.054,3.012-9.212,5.323-12.933c-36.924,6.94-65.167,43.435-65.167,87.756c0,31.251,14.019,103.791,35.213,152.757
		l-13.437-104.88c19.403,7.045,40.339,10.694,62.192,9.873c17.562-0.656,34.39-4.08,50.135-9.792l-13.282,103.682
		C252.35,470.52,266.137,398.828,266.137,367.825 M248.984,354.897c0.682,0.446,1.086,1.193,1.532,1.891
		c-17.594,9.464-36.984,15.312-57.642,16.087c-23.759,0.892-46.268-5.025-66.56-15.722c0.475-0.876,1.018-1.723,1.832-2.256
		c20.746-13.685,50.805-14.357,60.42-14.182c1.113-0.021,2.558-0.023,4.175,0c-1.37-5.114-1.942-10.519-1.516-16.246
		c0.47-6.362,1.81-11.822,4.095-16.698c1.247-2.595,6.735-12.216,11.149-12.615c1.729,0.113,2.999,0.633,3.894,1.807
		c0.903,1.183,1.335,2.775,1.205,4.474c-0.167,2.223-1.015,4.01-2.744,6.916c-2.668,4.573-4.235,10.29-4.773,17.47
		c-0.53,7.113,0.368,12.022,1.406,15.617C218.581,342.72,235.676,346.119,248.984,354.897 M185.07,552.878
		c-12.59-0.826-20.964-4.127-26.648-7.675c9.222,14.754,19.337,24.11,29.959,24.11c10.518,0,20.537-9.214,29.685-23.722
		c-5.665,3.392-13.848,6.475-25.928,7.271C192.137,552.862,185.328,552.934,185.07,552.878"/>
</g>
</svg>
