<?xml version="1.0" encoding="utf-8"?>
<!-- Generator: Adobe Illustrator 18.1.1, SVG Export Plug-In . SVG Version: 6.00 Build 0)  -->
<svg version="1.1" id="Layer_1" xmlns="http://www.w3.org/2000/svg" xmlns:xlink="http://www.w3.org/1999/xlink" x="0px" y="0px"
	 viewBox="-605.2 -4.5 888.9 505.7" enable-background="new -605.2 -4.5 888.9 505.7" xml:space="preserve">
<path d="M268.4,383.5c8.3,0,15.3-6.4,15.3-15.2c0-8.7-7.1-15.1-15.3-15.1c-8.3,0-15.4,6.4-15.4,15.1
	C253,377.1,260.1,383.5,268.4,383.5z"/>
<path d="M-546.6,369.9c-10,0-22.4,5.3-27.2,17h-0.3v-14.3h-31.1v128.5h34.5v-42.1c5.8,8.1,12.8,12.3,22.3,12.3
	c19.4,0,40.7-13.7,40.7-51.4C-507.7,393.5-520.3,369.9-546.6,369.9z"/>
<path fill="#FFFFFF" d="M-557.2,442.2c-9,0-14.1-9.1-14.1-22.5c0-12.8,5.6-21.6,13.9-21.6c9.1,0,15.1,7.1,15.1,22.3
	C-542.2,433.6-548.1,442.2-557.2,442.2z"/>
<path d="M-437.9,369.9c-11.6,0-19.4,5.1-26.4,14.8v-48h-34.5v131.8h34.5v-48.9c0-12.3,2.8-19.8,13.5-19.8c9.8,0,12.1,8.4,12.1,17.9
	v50.7h34.5v-57.5C-404.2,384.7-415,369.9-437.9,369.9z"/>
<path d="M-300.5,454.5v-44.9c0-22.9-2.5-39.7-43.7-39.7c-34.4,0-47.5,11.9-47.5,32.2h33.2c0.8-8.2,7.3-9.3,12.1-9.3
	c3.7,0,11.3,0.9,11.3,7.9c0,17.9-61.9-1.8-61.9,41.7c0,20,14.6,28.9,31.1,28.9c13,0,22.9-2.9,32.7-13l1.7,10.2h35.7v-1.8
	C-300.3,462.7-300.5,460-300.5,454.5z"/>
<path fill="#FFFFFF" d="M-350.3,449.7c-6.8,0-11-3.3-11-8.1c0-12.5,14.9-9.5,26.2-15.6C-334.2,439.3-338.2,449.7-350.3,449.7z"/>
<path d="M-260.1,392h-0.3v-19.4h-31.4v95.9h34.5v-33.1c0-20.7,7.1-28,21.3-28c2.3,0,4.8,0.7,7.1,1.1v-38.1c-1.5-0.2-3-0.6-4.5-0.6
	C-246.9,369.9-255.3,377-260.1,392z"/>
<path d="M-97.4,369.9c-12.8,0-22.6,6-30,17.6c-4.2-10.3-12.8-17.6-28.4-17.6c-12.5,0-23.2,9.7-27.6,17v-14.3h-31.7v95.9h34.5v-47.4
	c0-11.5,2-21.2,12.1-21.2c9.1,0,11.6,5.7,11.6,19.8v48.9h34.5v-47.4c0-11.5,2-21.2,12.1-21.2c9.1,0,11.6,5.7,11.6,19.8v48.9H-64
	v-56.8C-64,385.6-72,369.9-97.4,369.9z"/>
<path d="M42.8,454.5v-44.9c0-22.9-2.5-39.7-43.7-39.7c-34.4,0-47.5,11.9-47.5,32.2h33.2c0.8-8.2,7.3-9.3,12.1-9.3
	c3.7,0,11.3,0.9,11.3,7.9c0,17.9-61.9-1.8-61.9,41.7c0,20,14.6,28.9,31.1,28.9c13,0,22.9-2.9,32.7-13l1.7,10.2h35.7v-1.8
	C43,462.7,42.8,460,42.8,454.5z"/>
<path fill="#FFFFFF" d="M-7,449.7c-6.8,0-11-3.3-11-8.1c0-12.5,14.9-9.5,26.2-15.6C9.1,439.3,5.1,449.7-7,449.7z"/>
<path d="M99.1,445.7c-10.1,0-15.1-9.5-15.1-24c0-11.3,2.2-26.2,15.1-26.2c3.8,0,6.8,1.3,9,3.8c2.2,2.4,3.5,5.7,3.7,9.9h35
	c-2.5-28.4-24.4-39.4-47.7-39.4c-28.7,0-49.6,18.9-49.6,51.6c0,32.4,21.6,49.8,49.6,49.8c24.1,0,45.3-10.8,48.3-39.9h-34.9
	C111.5,438.9,108,445.7,99.1,445.7z"/>
<path d="M208.2,379L193,438.1L177.8,379h-34.7l28.6,87.3c3.5,10.6,1,14.1-9.8,14.1c-2.3,0-4.6-0.2-7.1-0.2v26.5
	c2.7,0,9,0.7,15.3,0.7c30.7,0,34.4-9.3,43.5-39l27.9-89.5H208.2z"/>
<path d="M-441.6,245.7c-37.8,0-57.8-29.4-57.8-86c0-57.6,18.3-86.2,55.3-86.2c30.1,0,46.8,16.5,49.6,48.1h89.9
	C-310.3,40.9-360.2-4.5-445.3-4.5c-91.5,0-148.8,62.4-148.8,164.2c0,101.3,56.9,164.1,150.8,164.1c84.2,0,135-47.8,140.3-129.6H-392
	C-394.9,227.6-412.7,245.7-441.6,245.7z"/>
<polygon points="-113.7,3.7 -166.6,204.6 -215.8,3.7 -311.8,3.7 -213.3,315.1 -119.9,315.1 -21.4,3.7 "/>
<path d="M192.9,144.1c-18.7-13.5-47.6-19.6-83.8-29.5c-28.5-7.8-43.5-10.8-43.5-27.3C65.6,73,75.3,66,95.3,66
	c22.7,0,35,8.7,37.8,27.3h89.1C216.9,30.6,172.5-4.5,96.9-4.5c-78.1,0-122.8,39-122.8,99.2c0,30.8,11,54.6,33.7,72
	c12.2,9,38.6,18.5,79.4,29.7c34.6,9.5,51.6,11.3,51.6,30.8c0,13.4-12.6,22.5-35.4,22.5c-25.7,0-38.2-8.6-43.1-31.6h-91.5
	c5.7,66.3,52.1,105.8,130.6,105.8c85.4,0,131-39.4,131-107.1C230.3,184.7,218.5,162.3,192.9,144.1z"/>
<path fill="#FFFFFF" d="M256.1,368.3c0-7.2,5.4-12.6,12.4-12.6c6.9,0,12.3,5.4,12.3,12.6c0,7.3-5.4,12.7-12.3,12.7
	C261.5,381,256.1,375.6,256.1,368.3z"/>
<path d="M265.2,369.5h3l4.6,7.6h3l-5-7.7c2.6-0.3,4.5-1.7,4.5-4.8c0-3.5-2-5-6.2-5h-6.7v17.5h2.6V369.5z"/>
<path fill="#FFFFFF" d="M265.2,367.3v-5.4h3.6c1.8,0,3.8,0.4,3.8,2.6c0,2.7-2,2.8-4.3,2.8H265.2z"/>
</svg>
