<svg id="Layer_1" xmlns="http://www.w3.org/2000/svg" viewBox="0 0 634.9 132.9"><style>.st0{fill:#712D91;} .st1{fill:#0088CE;} .st2{fill:#2E3192;} .st3{fill:#006EB9;} .st4{fill:#474C55;}</style><path class="st0" d="M622.5 59.1c-.4 0-.8 0-1.2-.1-1.9-.4-2.9-1.4-3.6-2.2-.8-.9-1-2.2-.6-4.4l5.4-25.5c.2-.7.8-1.3 1.6-1.3h9.1c.5 0 1 .2 1.3.6.3.4.4.9.3 1.4l-5.3 24.7c-.4 2.1-1.6 4.1-3.2 5.4-1 .9-2.3 1.4-3.8 1.4"/><path class="st1" d="M598.1 63.5c-.5 0-1-.2-1.3-.6-.3-.4-.4-.9-.3-1.4L606.9 13c.2-1.2 1-1.9 2.1-1.9h8.7c.5 0 1 .2 1.3.6.3.4.4.9.3 1.4l-10.4 49.1c-.2.7-.8 1.3-1.6 1.3h-9.2z"/><path class="st0" d="M579.4 63.5c-.5 0-1-.2-1.3-.6-.3-.4-.4-.9-.3-1.4l12.8-60.2c.2-.7.8-1.3 1.6-1.3h9.1c.5 0 1 .2 1.3.6.3.4.4.9.3 1.4L590 62.2c-.2.7-.8 1.3-1.6 1.3h-9z"/><path class="st1" d="M563.7 75c-.4 0-.9 0-1.4-.1-1.4-.2-2.7-1.1-3.5-2.3-1-1.5-1.4-3.3-1-5.3l12.3-57.5c.2-.7.8-1.3 1.6-1.3h9.1c.5 0 1 .2 1.3.6.3.4.4.9.3 1.4l-12.2 57.3c-.9 4.8-3.1 7.2-6.5 7.2M597 36.4h-1.5l-2.6 12.2c1.3-.2 2.7-.3 4.1-.3.8 0 1.5 0 2.3.1l2.5-11.8c-1.5-.1-3.1-.2-4.8-.2"/><path class="st1" d="M582.5 39.2c-2.5 1-4.9 2.3-7.1 3.8l-5.3 24.8c-.1.8-.3 1.5-.5 2.1 2.3-6.1 5.5-11 9.5-14.6l3.4-16.1zM613.6 39.3l-2.6 12c2.5 1.3 4.7 3 6.5 5.1-.6-.9-.7-2.1-.4-4l2.2-10.1c-1.8-1.1-3.6-2.1-5.7-3"/><path class="st2" d="M619.3 42.3l-2.2 10.1c-.3 1.9-.2 3.1.4 4 .1.1.2.3.3.4 1.1 1.2 1.9 1.7 3.4 2 .4.1.9.2 1.4.2.6 0 1.2-.1 1.7-.2.8-.2 1.5-.6 2.1-1.1.3-.2.6-.5.8-.8.8-.9 1.2-2 1.3-3.1.1-1.8-.6-3.6-2.1-5.3-2.2-2.4-4.5-4.5-7.1-6.2"/><path class="st3" d="M601.8 36.6l-2.5 11.8c4.5.2 8.5 1.2 11.8 2.9l2.6-12c-3.6-1.4-7.5-2.3-11.9-2.7"/><path class="st2" d="M595.5 36.5c-4.6.2-8.9 1.1-13 2.7l-3.4 16.1c3.9-3.5 8.6-5.8 13.8-6.6l2.6-12.2z"/><path class="st3" d="M575.4 42.9c-7.9 5.3-14.1 13.5-17.5 24-.1.3-.2.7-.2 1-.1.8 0 1.6.1 2.4.1.4.2.7.4 1.1.7 1.6 1.9 2.7 3.4 3.2.5.2 1.3.3 2 .3h.2c1.1 0 2.1-.3 2.9-.8 1.1-.7 1.9-1.8 2.6-3.4 0 0 0-.1.1-.1.1-.3.2-.5.3-.8.2-.6.4-1.4.5-2.1l5.2-24.8z"/><path class="st1" d="M587.5 118.1c-13.1 0-25.6-5.1-35-14.4-9.4-9.3-14.6-21.7-14.6-34.7 0-5.5.8-14.1 2.9-20.2.2-.6.8-1 1.4-1h9.2c.5 0 .9.2 1.2.6.3.4.4 1 .2 1.6-1.5 5.2-3.1 13.1-3.1 19 0 9.9 4 19.3 11.2 26.4 7.2 7.1 16.6 10.9 26.6 10.9 8.7 0 16.8-2.9 23.5-8.4 1.1-.9 2.4-1.3 3.7-1.3 1.8 0 3.5.8 4.6 2.2 1 1.2 1.5 2.8 1.3 4.3-.2 1.6-.9 3-2.1 4-8.7 7.1-19.8 11-31 11"/><path class="st4" d="M34.5 42.2c9.7 0 16.6 3.3 23.1 8.9.8.8.9 1.9.1 2.7l-2.6 2.6c-.8 1-1.5.9-2.5-.1-5-4.3-11.3-7.2-18.3-7.2-15.1 0-26.7 12.7-26.7 27.5 0 14.7 11.6 27.5 26.7 27.5 8.3 0 13.2-2.9 18.3-7.2 1-.8 1.7-.7 2.5.1l2.2 2.2c.8.6.6 1.9-.1 2.6-6.3 5.7-14.3 9.3-22.8 9.3-19 0-34.4-15.2-34.4-34.3s15.4-34.6 34.5-34.6M60.3 68.3c-.6-1.4 0-2.4 1.7-2.4h4c.9 0 1.6.5 1.9 1.2l12.5 35.1h.2l14.9-35.1c.3-.8 1.1-1.2 1.9-1.2h3.5c1.7 0 2.4 1.1 1.7 2.5L75 131.5c-.3.7-1.1 1.3-1.9 1.3h-3.4c-1.7 0-2.5-1.1-1.8-2.7l8.5-20.2-16.1-41.6zM130.3 104.8c8 0 13.4-8.1 13.4-16.7 0-8.8-5.1-16.6-14.7-16.6-6.1 0-11.2 2.8-11.2 2.8v23.3c-.1-.1 4.5 7.2 12.5 7.2m-19.5-59.5c0-1.1.9-2.1 2-2.1h2.9c1.1 0 2.1 1.1 2.1 2.1v22.5S122.7 65 130 65c13.2 0 20.9 10 20.9 23 0 12.6-8.5 23.2-19.8 23.2-9 0-14-5.7-14-5.7l-.6 2.9c-.2 1.1-.9 1.8-1.9 1.8h-1.7c-1.1 0-2.1-1-2.1-2.1V45.3zM193.5 84c-.2-6.5-5.4-12.6-12.9-12.6s-13.4 5.7-14.3 12.6h27.2zm-12.9-19c11.6 0 20 8.5 20 20.1 0 .8-.1 1.9-.2 2.7-.1 1.1-1.1 1.9-2 1.9h-32.1c.2 7.4 6.4 15.1 14.4 15.1 5.8 0 9.5-2 12-3.6 1.5-1.1 2.2-1.4 3.3.3l1.1 1.6c.9 1.3 1.2 1.8-.4 3.1-2.7 2.1-8.5 5.1-16.2 5.1-13.4 0-21.4-10.5-21.4-23.1.1-12.6 8.1-23.2 21.5-23.2M211.2 68.1c0-1.1 1-2.1 2.1-2.1h1.5c.9 0 1.6.5 1.9 1.5l.8 3.2s4.4-5.6 13.6-5.6c3.3 0 8.8.5 7.7 3.5l-1.2 3.4c-.5 1.4-1.5 1.5-2.6 1.1-1.1-.5-2.7-1.2-4.8-1.2-8.5 0-12 5.6-12 5.6V108c0 1.1-1.1 2.1-2.1 2.1h-2.9c-1.1 0-2.1-1-2.1-2.1V68.1zM279.6 42.2c9.7 0 16.6 3.3 23.1 8.9.8.8.9 1.9.1 2.7-.9.9-1.9 1.8-2.7 2.7-.9 1-1.4.9-2.5-.1-4.9-4.3-11.8-7.5-18.2-7.5-15.1 0-26.6 12.6-26.6 27.5 0 14.7 11.5 27.6 26.6 27.6 10.5 0 17.2-4 17.2-4V86.6h-11c-1.1 0-1.8-.8-1.8-1.7v-3.5c0-1.1.8-1.8 1.8-1.8h16.5c1 0 1.7.9 1.7 1.8v21.9c0 .5-.4 1.2-.8 1.5 0 0-9.8 6.3-23.6 6.3-19.1 0-34.5-15.2-34.5-34.3s15.6-34.6 34.7-34.6M317.1 68.1c0-1.1 1-2.1 2.1-2.1h1.5c.9 0 1.6.5 1.9 1.5l.8 3.2s4.4-5.6 13.6-5.6c3.3 0 8.8.5 7.7 3.5l-1.2 3.4c-.5 1.4-1.5 1.5-2.6 1.1-1.1-.5-2.7-1.2-4.8-1.2-8.5 0-12 5.6-12 5.6V108c0 1.1-1.1 2.1-2.1 2.1h-2.9c-1.1 0-2.1-1-2.1-2.1V68.1zM395.5 68.1c0-1.1 1-2.1 2.1-2.1h1.5c1 0 1.5.4 1.7 1.3l1 3.3s5.6-5.6 14.8-5.6c12.8 0 16 8.3 16 19.7V108c0 1.1-1.1 2.1-2.1 2.1h-2.9c-1.1 0-2.1-1-2.1-2.1V83.7c0-8.4-2.9-12.3-9.4-12.3-8.3 0-13.6 6.1-13.6 6.1V108c0 1.1-1.1 2.1-2.1 2.1h-2.9c-1.1 0-2.1-1-2.1-2.1V68.1zM441.5 72.1c-1.3 0-2.2-1-2.2-2.1v-1.9c0-1.2.9-2.1 2.2-2.1h5.8V53.7c0-1.1 1.1-2 2.1-2.1l3-.2c1.1-.1 2 1 2 2.1v12.4h13c1.2 0 2.2.9 2.2 2.1v2c0 1.1-1 2.1-2.2 2.1h-13v26.4c0 4.6 1.4 6.1 3.9 6.3 4.1.4 7-.9 9-1.5s2.3.1 2.5 1.2l.3 1.6c.2 1.4.7 2.3-.7 3-1.7.9-5.8 2.2-12 2.1-8.4-.2-10.1-5.4-10.1-12.2V72.1h-5.8zM478.5 105.8c-.5-.5-.7-1.1-.3-1.9l1.3-2.5c.6-1.1 1.3-1.4 2.6-.6 1.5 1.1 5.4 3.9 11 3.9 4.5 0 7.6-2.1 7.6-5.5 0-4.2-3.4-5.9-9.9-9.1-5.8-2.9-12.5-6-12.5-13.6 0-4.6 3.4-11.6 13.7-11.6 5.7 0 10.5 1.9 12.6 3.4 1 .8 1.1 1.7.5 3l-1 1.8c-.7 1.2-2.1 1.3-3.1.8-1.9-1.1-5-2.6-9.1-2.6-4.9 0-6.5 2.8-6.5 4.9 0 3.9 3.1 5.4 8.4 7.8 7.7 3.5 14.3 6.4 14.3 14.4 0 7-6 12.6-15 12.6-7.3.2-12.3-3.1-14.6-5.2M364.5 104.7c5.5 0 10.2-3.1 12.1-5.9v-9c-1.4-.8-5-1.7-9.4-1.7-6.1 0-10.7 3-10.7 8.6.1 4.4 3.1 8 8 8m2.8-22.7c4.7 0 9.5 1.4 9.5 1.4.1-8.1-1-12.1-7.3-12.1-6 0-11.4 1.2-13.5 1.7-1.2.3-1.7.1-2-1.1l-.5-2.7c-.2-1.4.3-1.9 1.3-2.4 2.2-1 7.7-1.9 15-1.9 11.3 0 13.7 5.5 13.7 18.6V108c0 1.1-1 2.1-2.1 2.1h-1.8c-1.1 0-1.5-.7-1.8-1.6l-.9-3c-2.3 2.3-6.9 5.6-13.7 5.6-7.7 0-13.7-5.5-13.7-14.4.1-8.5 6.4-14.7 17.8-14.7"/></svg>