<?xml version="1.0" encoding="UTF-8" standalone="no"?>
<svg width="2304px" height="512px" viewBox="0 0 2304 512" version="1.1" xmlns="http://www.w3.org/2000/svg" xmlns:xlink="http://www.w3.org/1999/xlink">
    <!-- Generator: Sketch 3.6.1 (26313) - http://www.bohemiancoding.com/sketch -->
    <title>Deezer</title>
    <desc>Created with Sketch.</desc>
    <defs></defs>
    <g id="Page-1" stroke="none" stroke-width="1" fill="none" fill-rule="evenodd">
        <g id="Deezer">
            <g id="logo">
                <g id="equalizer" transform="translate(0.000000, 44.137931)">
                    <g id="Group" transform="translate(0.000000, 179.494253)">
                        <g id="Rectangle-path" fill="#C1F1FC">
                            <rect x="0" y="2.11862069" width="152.04046" height="46.08"></rect>
                            <rect x="0" y="61.9990805" width="152.04046" height="46.08"></rect>
                        </g>
                        <rect id="Rectangle-path" fill="#FFAAAA" x="0" y="121.87954" width="152.04046" height="46.08"></rect>
                        <rect id="Rectangle-path" fill="#FFAAAA" x="0" y="181.76" width="152.04046" height="46.08"></rect>
                        <rect id="Rectangle-path" fill="#FFAAAA" x="0" y="241.64046" width="152.04046" height="46.08"></rect>
                    </g>
                    <g id="Group" transform="translate(167.724138, 300.137931)" fill="#FFED00">
                        <rect id="Rectangle-path" x="2.73655172" y="1.23586207" width="152.04046" height="46.08"></rect>
                        <rect id="Rectangle-path" x="2.73655172" y="61.1163218" width="152.04046" height="46.08"></rect>
                        <rect id="Rectangle-path" x="2.73655172" y="120.996782" width="152.04046" height="46.08"></rect>
                    </g>
                    <g id="Group" transform="translate(338.390805, 61.793103)">
                        <g id="Rectangle-path" fill="#C1F1FC">
                            <rect x="2.53057471" y="0.0294252874" width="152.04046" height="46.08"></rect>
                            <rect x="2.53057471" y="59.9098851" width="152.04046" height="46.08"></rect>
                            <rect x="2.53057471" y="119.81977" width="152.04046" height="46.08"></rect>
                            <rect x="2.53057471" y="179.70023" width="152.04046" height="46.08"></rect>
                        </g>
                        <rect id="Rectangle-path" fill="#FFC2E5" x="2.53057471" y="239.58069" width="152.04046" height="46.08"></rect>
                        <rect id="Rectangle-path" fill="#FFC2E5" x="2.53057471" y="299.461149" width="152.04046" height="46.08"></rect>
                        <rect id="Rectangle-path" fill="#FFC2E5" x="2.53057471" y="359.341609" width="152.04046" height="46.08"></rect>
                    </g>
                    <g id="Group" transform="translate(509.057471, 179.494253)">
                        <g id="Rectangle-path" fill="#C1F1FC">
                            <rect x="2.3245977" y="2.11862069" width="152.04046" height="46.08"></rect>
                            <rect x="2.3245977" y="61.9990805" width="152.04046" height="46.08"></rect>
                        </g>
                        <rect id="Rectangle-path" fill="#EBFFAC" x="2.3245977" y="121.87954" width="152.04046" height="46.08"></rect>
                        <rect id="Rectangle-path" fill="#EBFFAC" x="2.3245977" y="181.76" width="152.04046" height="46.08"></rect>
                        <rect id="Rectangle-path" fill="#EBFFAC" x="2.3245977" y="241.64046" width="152.04046" height="46.08"></rect>
                    </g>
                    <g id="Group" transform="translate(679.724138, 0.000000)" fill="#C1F1FC">
                        <g id="Rectangle-path">
                            <rect x="2.11862069" y="1.91264368" width="152.04046" height="46.08"></rect>
                            <rect x="2.11862069" y="61.8225287" width="152.04046" height="46.08"></rect>
                            <rect x="2.11862069" y="121.702989" width="152.04046" height="46.08"></rect>
                            <rect x="2.11862069" y="181.612874" width="152.04046" height="46.08"></rect>
                            <rect x="2.11862069" y="241.493333" width="152.04046" height="46.08"></rect>
                        </g>
                        <rect id="Rectangle-path" x="2.11862069" y="301.373793" width="152.04046" height="46.08"></rect>
                        <rect id="Rectangle-path" x="2.11862069" y="361.254253" width="152.04046" height="46.08"></rect>
                        <rect id="Rectangle-path" x="2.11862069" y="421.134713" width="152.04046" height="46.08"></rect>
                    </g>
                </g>
                <g id="deezer" transform="translate(891.586207, 0.000000)" fill="#000000">
                    <path d="M2.14804598,0 L116.141609,0 C230.90023,0 241.69931,40.1655172 241.69931,188.910345 L241.69931,340.921379 C241.69931,471.952184 215.216552,511.382069 103.40046,511.382069 L2.14804598,511.382069 L2.14804598,0 L2.14804598,0 Z M71.2386207,451.854713 L106.96092,451.854713 C159.396782,451.854713 167.95954,424.224368 167.95954,336.389885 L167.95954,160.750345 C167.95954,84.9508046 161.456552,59.4685057 101.311264,59.4685057 L71.2386207,59.4685057 L71.2386207,451.854713 L71.2386207,451.854713 Z" id="Shape"></path>
                    <path d="M269.329655,-1.63343158e-15 L462.80092,-1.63343158e-15 L462.80092,60.7632184 L338.331954,60.7632184 L338.331954,221.131034 L453.502529,221.131034 L453.502529,281.011494 L338.331954,281.011494 L338.331954,450.618851 L462.80092,450.618851 L462.80092,511.352644 L269.329655,511.352644 L269.329655,-8.52651283e-14 L269.329655,-1.63343158e-15 Z" id="Shape"></path>
                    <path d="M490.46069,-1.63343158e-15 L683.931954,-1.63343158e-15 L683.931954,60.7632184 L559.551264,60.7632184 L559.551264,221.131034 L674.721839,221.131034 L674.721839,281.011494 L559.551264,281.011494 L559.551264,450.618851 L683.931954,450.618851 L683.931954,511.352644 L490.46069,511.352644 L490.46069,-8.52651283e-14 L490.46069,-1.63343158e-15 Z" id="Shape"></path>
                    <path d="M711.562299,451.501609 L870.753103,59.9098851 L711.562299,59.9098851 L711.562299,0.0294252874 L937.283678,0.0294252874 L937.283678,59.9098851 L780.829425,451.501609 L937.283678,451.501609 L937.283678,511.411494 L711.562299,511.411494 L711.562299,451.501609 L711.562299,451.501609 Z" id="Shape"></path>
                    <path d="M965.090575,-1.63343158e-15 L1158.59126,-1.63343158e-15 L1158.59126,60.7632184 L1034.03402,60.7632184 L1034.03402,221.131034 L1149.23402,221.131034 L1149.23402,281.011494 L1034.03402,281.011494 L1034.03402,450.618851 L1158.44414,450.618851 L1158.44414,511.352644 L965.090575,511.352644 L965.090575,-8.52651283e-14 L965.090575,-1.63343158e-15 Z" id="Shape"></path>
                    <path d="M1186.07448,0 L1296.62529,0 C1400.05517,0 1407.26437,26.4827586 1407.26437,138.298851 C1407.26437,206.977471 1400.7908,240.551724 1342.70529,258.265747 L1342.70529,258.265747 C1390.84506,263.209195 1407.44092,288.367816 1407.44092,336.507586 L1407.44092,447.705747 C1407.44092,466.155402 1407.44092,490.166437 1411.88414,511.411494 L1342.73471,511.411494 C1335.61379,498.64092 1338.17379,486.105747 1338.17379,465.537471 L1338.17379,350.013793 C1338.17379,301.844598 1329.02253,290.192184 1282.26575,290.192184 L1255.19448,290.192184 L1255.19448,511.323218 L1186.07448,511.323218 L1186.07448,8.36316967e-14 L1186.07448,0 Z M1255.16506,225.721379 L1276.58667,225.721379 C1332.49471,225.721379 1341.0869,218.806437 1341.0869,142.330115 C1341.0869,66.5305747 1334.28966,59.9393103 1290.41655,59.9393103 L1255.10621,59.9393103 L1255.10621,225.721379 L1255.16506,225.721379 L1255.16506,225.721379 Z" id="Shape"></path>
                </g>
            </g>
        </g>
    </g>
</svg>