<?xml version="1.0" encoding="UTF-8" standalone="no"?>
<svg width="512px" height="512px" viewBox="0 0 512 512" version="1.1" xmlns="http://www.w3.org/2000/svg" xmlns:xlink="http://www.w3.org/1999/xlink" xmlns:sketch="http://www.bohemiancoding.com/sketch/ns">
    <!-- Generator: Sketch 3.5.2 (25235) - http://www.bohemiancoding.com/sketch -->
    <title>Dell</title>
    <desc>Created with Sketch.</desc>
    <defs></defs>
    <g id="Page-1" stroke="none" stroke-width="1" fill="none" fill-rule="evenodd" sketch:type="MSPage">
        <g id="Dell" sketch:type="MSLayerGroup">
            <g id="Group" sketch:type="MSShapeGroup">
                <path d="M0,0 L511.352705,0 L511.352705,511.352705 L0,511.352705 L0,0 L0,0 Z" id="Shape" fill="#FFFFFF"></path>
                <path d="M7.51817617,186.505948 L67.8705078,186.505948 L74.486715,186.781845 L80.8243731,187.333637 L86.8887876,188.710466 L92.6773057,190.089948 L97.9113782,192.294466 L102.872207,194.498984 L107.55714,197.255295 L111.966176,200.287503 L115.826073,203.595606 L119.683316,207.176953 L122.99142,211.03685 L126.020974,215.16999 L128.501389,219.579026 L130.981803,223.990715 L132.910425,228.675648 L134.565803,233.36058 L220.266114,178.239668 L251.405264,199.183917 L184.715275,242.173347 L195.461969,249.338694 L262.703751,206.625161 L291.635731,225.914031 L225.22429,269.73115 L236.522777,276.620601 L304.03515,233.631171 L304.03515,186.505948 L353.640788,186.505948 L353.640788,280.477845 L397.733803,280.477845 L397.733803,324.568207 L304.03515,324.568207 L304.03515,279.374259 L220.539358,333.113036 L135.385534,275.517016 L133.730155,280.477845 L132.07743,285.162777 L129.597016,289.84771 L127.116601,294.535295 L124.084394,298.668435 L120.77629,302.804228 L117.194943,306.661472 L113.061803,309.966922 L108.928663,313.275026 L103.967834,316.031337 L99.0070052,318.511751 L93.4943834,320.716269 L87.7058653,322.368995 L81.6441036,323.469927 L75.3064456,324.297617 L68.4169948,324.573513 L7.51817617,324.573513 L7.51817617,186.505948 L7.51817617,186.505948 L7.51817617,186.505948 L7.51817617,186.505948 L7.51817617,186.505948 Z M54.9192953,229.771275 L67.8705078,229.771275 L73.6590259,230.323067 L78.3439585,231.975793 L82.4770984,234.456207 L86.0584456,237.764311 L88.541513,241.621554 L90.4701347,245.757347 L91.5710674,250.44228 L91.8469637,255.127212 L91.5710674,259.812145 L90.4701347,264.499731 L88.541513,268.63287 L85.7852021,272.492767 L82.4770984,275.798218 L78.3439585,278.281285 L73.3831295,279.93401 L67.8705078,280.485803 L54.9192953,280.485803 L54.9192953,229.771275 L54.9192953,229.771275 L54.9192953,229.771275 L54.9192953,229.771275 L54.9192953,229.771275 Z M410.135876,186.505948 L460.017409,186.505948 L460.017409,280.477845 L503.837181,280.477845 L503.837181,324.568207 L410.138528,324.568207 L410.138528,186.505948 L410.135876,186.505948 L410.135876,186.505948 L410.135876,186.505948 L410.135876,186.505948 Z" id="Shape" fill="#0382C7"></path>
            </g>
        </g>
    </g>
</svg>