<?xml version="1.0" encoding="UTF-8" standalone="no"?>
<svg width="2626px" height="510px" viewBox="0 0 2626 510" version="1.1" xmlns="http://www.w3.org/2000/svg" xmlns:xlink="http://www.w3.org/1999/xlink">
    <!-- Generator: Sketch 3.6.1 (26313) - http://www.bohemiancoding.com/sketch -->
    <title>devpost (2)</title>
    <desc>Created with Sketch.</desc>
    <defs></defs>
    <g id="Page-1" stroke="none" stroke-width="1" fill="none" fill-rule="evenodd">
        <g id="devpost-(2)">
            <path d="M2478.60513,0 L2362.20171,0 L2509.23761,254.687179 L2362.20171,509.811966 L2478.60513,509.811966 L2625.64103,254.687179 L2478.60513,0 Z" id="Shape" fill="#3ACCE6"></path>
            <path d="M147.035897,0 L263.439316,0 L116.403419,254.687179 L263.439316,509.811966 L147.035897,509.811966 L0,254.687179 L147.035897,0 Z" id="Shape" fill="#3ACCE6"></path>
            <path d="M219.678632,509.811966 L72.642735,254.687179 L219.678632,0 L2405.96239,0 L2552.99829,254.687179 L2405.96239,509.811966 L219.678632,509.811966 Z" id="Shape" fill="#003E54"></path>
            <g id="Group" transform="translate(275.692308, 91.897436)" fill="#FFFFFF">
                <path d="M92.7726496,317.702564 L2.84217094e-14,317.702564 L2.84217094e-14,8.31452991 L96.7111111,8.31452991 C185.107692,8.31452991 250.748718,49.8871795 250.748718,163.22735 C250.748718,271.753846 171.979487,317.702564 92.7726496,317.702564 L92.7726496,317.702564 Z M94.9606838,68.2666667 L62.1401709,68.2666667 L62.1401709,257.312821 L92.7726496,257.312821 C157.538462,257.312821 187.295726,219.241026 187.295726,162.789744 C187.295726,99.774359 160.164103,68.2666667 94.9606838,68.2666667 L94.9606838,68.2666667 Z" id="XMLID_2_"></path>
                <path d="M321.641026,317.702564 L321.641026,8.31452991 L536.505983,8.31452991 L536.505983,68.7042735 L383.34359,68.7042735 L383.34359,122.092308 L472.177778,122.092308 L472.177778,182.044444 L383.34359,182.044444 L383.34359,256.875214 L543.070085,256.875214 L543.070085,317.264957 L321.641026,317.264957 L321.641026,317.702564 Z" id="XMLID_5_"></path>
                <path d="M761.435897,317.702564 L701.483761,317.702564 L591.644444,8.31452991 L660.348718,8.31452991 L718.550427,187.295726 C724.239316,204.362393 730.365812,227.117949 732.991453,238.05812 C735.617094,226.680342 741.305983,205.237607 746.994872,187.295726 L803.883761,8.31452991 L871.712821,8.31452991 L761.435897,317.702564 L761.435897,317.702564 Z" id="XMLID_7_"></path>
                <path d="M1067.32308,207.863248 L999.05641,207.863248 L999.05641,317.702564 L937.353846,317.702564 L937.353846,8.31452991 L1072.57436,8.31452991 C1130.77607,8.31452991 1178.91282,40.6974359 1178.91282,106.338462 C1179.35043,178.105983 1131.65128,207.863248 1067.32308,207.863248 L1067.32308,207.863248 Z M1070.82393,68.2666667 L999.494017,68.2666667 L999.494017,147.911111 L1071.69915,147.911111 C1100.5812,147.911111 1115.89744,134.782906 1115.89744,107.651282 C1115.89744,80.5196581 1097.95556,68.2666667 1070.82393,68.2666667 L1070.82393,68.2666667 Z" id="XMLID_9_"></path>
                <path d="M1364.89573,322.516239 C1280.43761,322.516239 1230.55043,256.875214 1230.55043,162.789744 C1230.55043,68.7042735 1280.43761,3.06324786 1364.89573,3.06324786 C1449.35385,3.06324786 1499.24103,68.7042735 1499.24103,162.789744 C1499.24103,256.875214 1449.35385,322.516239 1364.89573,322.516239 L1364.89573,322.516239 Z M1364.89573,64.765812 C1315.00855,64.765812 1294.00342,107.651282 1294.00342,162.789744 C1294.00342,217.928205 1314.57094,260.813675 1364.89573,260.813675 C1414.78291,260.813675 1435.78803,217.928205 1435.78803,162.789744 C1435.78803,107.651282 1414.78291,64.765812 1364.89573,64.765812 L1364.89573,64.765812 Z" id="XMLID_12_"></path>
                <path d="M1669.90769,322.516239 C1618.27009,322.516239 1573.19658,301.073504 1549.56581,266.502564 L1594.20171,226.680342 C1616.08205,252.061538 1643.65128,262.126496 1673.40855,262.126496 C1710.16752,262.126496 1727.23419,252.061538 1727.23419,228.430769 C1727.23419,208.738462 1716.73162,199.548718 1658.09231,186.420513 C1601.20342,173.292308 1561.3812,154.912821 1561.3812,94.0854701 C1561.3812,38.0717949 1610.83077,3.5008547 1672.09573,3.5008547 C1720.23248,3.5008547 1755.67863,21.442735 1784.99829,52.0752137 L1740.36239,95.3982906 C1720.67009,75.2683761 1698.35214,63.4529915 1669.90769,63.4529915 C1636.64957,63.4529915 1625.7094,77.4564103 1625.7094,91.4598291 C1625.7094,110.71453 1638.83761,117.278632 1687.84957,128.65641 C1736.86154,140.034188 1791.12479,157.100855 1791.12479,224.054701 C1791.56239,282.694017 1754.36581,322.516239 1669.90769,322.516239 L1669.90769,322.516239 Z" id="XMLID_15_"></path>
                <path d="M1984.98462,69.1418803 L1984.98462,317.702564 L1923.28205,317.702564 L1923.28205,69.1418803 L1834.44786,69.1418803 L1834.44786,8.31452991 L2074.25641,8.31452991 L2074.25641,69.1418803 L1984.98462,69.1418803 L1984.98462,69.1418803 Z" id="XMLID_17_"></path>
            </g>
        </g>
    </g>
</svg>