<?xml version="1.0" encoding="UTF-8" standalone="no"?>
<svg width="918px" height="510px" viewBox="0 0 918 510" version="1.1" xmlns="http://www.w3.org/2000/svg" xmlns:xlink="http://www.w3.org/1999/xlink">
    <!-- Generator: Sketch 3.6.1 (26313) - http://www.bohemiancoding.com/sketch -->
    <title>digi.me</title>
    <desc>Created with Sketch.</desc>
    <defs></defs>
    <g id="Page-1" stroke="none" stroke-width="1" fill="none" fill-rule="evenodd">
        <g id="digi.me" transform="translate(0.000000, -1.000000)">
            <g id="Layer_2">
                <g id="Group">
                    <g id="Shape">
                        <g>
                            <path d="M123.966559,266.700965 L145.862379,282.834727 L130.057878,308.681672 L120.838585,302.919614 L123.966559,266.700965 Z" fill="#ED8822"></path>
                            <path d="M145.862379,282.834727 L174.343408,261.597428 L178.953055,262.420579 L178.953055,295.181994 L160.514469,298.968489 L145.862379,282.834727 Z" fill="#C67429"></path>
                            <path d="M174.343408,261.597428 L164.465595,251.225723 L133.844373,261.597428 L123.966559,266.700965 L145.862379,282.834727 L174.343408,261.597428 Z" fill="#C2C130"></path>
                            <path d="M160.514469,298.968489 L153.27074,317.242444 L184.221222,333.046945 L189.160129,302.425723 L178.953055,295.181994 L160.514469,298.968489 Z" fill="#E0232C"></path>
                            <path d="M153.27074,317.242444 L157.057235,348.522186 L185.209003,336.33955 L184.221222,333.046945 L153.27074,317.242444 Z" fill="#EC282F"></path>
                            <path d="M153.27074,317.242444 L157.057235,348.522186 L131.37492,324.980064 L135.326045,319.547267 L153.27074,317.242444 Z" fill="#EA2925"></path>
                            <path d="M157.057235,348.522186 L118.369132,351.3209 L116.88746,345.394212 L131.37492,324.980064 L157.057235,348.522186 Z" fill="#E62525"></path>
                            <path d="M120.838585,302.919614 L99.4366559,308.187781 L84.2906752,299.462379 L79.6810289,291.889389 L123.966559,266.700965 L120.838585,302.919614 Z" fill="#EEA520"></path>
                            <path d="M79.6810289,291.889389 L66.6752412,293.535691 L45.2733119,272.627653 L48.4012862,257.317042 L69.473955,249.579421 L79.022508,264.725402 L113.430225,250.073312 L123.966559,266.700965 L79.6810289,291.889389 Z" fill="#EFD812"></path>
                            <path d="M84.2906752,299.462379 L99.4366559,308.187781 L106.845016,339.302894 L76.5530547,341.113826 L84.2906752,299.462379 Z" fill="#EF6922"></path>
                            <path d="M79.6810289,291.889389 L84.2906752,299.462379 L76.5530547,341.113826 L50.0475884,336.33955 L58.9376206,300.614791 L66.6752412,293.535691 L79.6810289,291.889389 Z" fill="#EF7E22"></path>
                            <path d="M45.2733119,272.627653 L66.6752412,293.535691 L58.9376206,300.614791 L27.822508,300.285531 L45.2733119,272.627653 Z" fill="#ECBE1D"></path>
                            <path d="M27.822508,300.285531 L10.0424437,278.718971 L11.3594855,272.298392 L45.2733119,272.627653 L27.822508,300.285531 Z" fill="#EBC21D"></path>
                            <path d="M45.2733119,272.627653 L48.4012862,257.317042 L35.0662379,246.945338 L16.1337621,254.847588 L11.3594855,272.298392 L45.2733119,272.627653 Z" fill="#F0DE0E"></path>
                            <path d="M58.9376206,300.614791 L27.822508,300.285531 L20.7434084,320.370418 L29.7980707,337.985852 L38.5234727,343.254019 L50.0475884,336.33955 L58.9376206,300.614791 Z" fill="#F0A020"></path>
                            <path d="M27.822508,300.285531 L20.7434084,320.370418 L12.6765273,319.382637 L0.823151125,311.151125 L10.0424437,278.718971 L27.822508,300.285531 Z" fill="#EDB31F"></path>
                            <path d="M20.7434084,320.370418 L12.6765273,319.382637 L2.79871383,326.461736 L3.2926045,350.497749 L29.7980707,337.985852 L20.7434084,320.370418 Z" fill="#F29320"></path>
                            <path d="M12.6765273,319.382637 L2.79871383,326.461736 L0.823151125,311.151125 L12.6765273,319.382637 Z" fill="#F1A41F"></path>
                            <path d="M29.7980707,337.985852 L38.5234727,343.254019 L38.5234727,350.99164 L19.4263666,373.38135 L8.89003215,373.38135 L3.2926045,350.497749 L29.7980707,337.985852 Z" fill="#F36E21"></path>
                            <path d="M38.5234727,350.99164 L56.303537,380.954341 L31.444373,404.661093 L20.9080386,407.459807 L8.89003215,373.38135 L19.9202572,372.72283 L38.5234727,350.99164 Z" fill="#F05523"></path>
                            <path d="M38.5234727,350.99164 L38.5234727,343.254019 L50.0475884,336.33955 L76.5530547,341.113826 L59.9254019,380.954341 L56.303537,380.954341 L38.5234727,350.99164 Z" fill="#F05123"></path>
                            <path d="M59.9254019,380.954341 L76.5530547,341.113826 L106.845016,339.302894 L116.88746,345.064952 L118.369132,351.3209 L118.698392,358.72926 L88.2418006,369.430225 L81.162701,383.259164 L59.9254019,380.954341 Z" fill="#E93825"></path>
                            <path d="M81.162701,383.259164 L83.6321543,385.728617 L98.2842444,389.185852 L123.966559,371.241158 L118.698392,358.72926 L88.2418006,369.430225 L81.162701,383.259164 Z" fill="#DA3027"></path>
                            <path d="M118.369132,351.3209 L118.698392,358.72926 L123.966559,371.241158 L129.399357,375.686174 L156.727974,371.899678 L157.057235,348.522186 L118.369132,351.3209 Z" fill="#EF392F"></path>
                            <path d="M156.727974,371.899678 L157.057235,348.522186 L185.209003,336.33955 L187.513826,337.656592 L191.135691,349.016077 L175.33119,375.027653 L166.605788,378.484887 L156.727974,371.899678 Z" fill="#D61F2C"></path>
                            <path d="M129.399357,375.686174 L156.727974,371.899678 L166.605788,378.484887 L165.782637,399.886817 L161.831511,418.654662 L129.728617,384.740836 L129.399357,375.686174 Z" fill="#DC1C4B"></path>
                            <path d="M123.966559,371.241158 L129.399357,375.686174 L129.728617,384.740836 L115.076527,415.362058 L112.607074,415.362058 L98.2842444,389.185852 L123.966559,371.241158 Z" fill="#E62825"></path>
                            <path d="M83.6321543,385.728617 L98.2842444,389.185852 L112.607074,415.362058 L96.9672026,428.532476 L83.6321543,425.569132 L83.6321543,385.728617 Z" fill="#E12326"></path>
                            <path d="M83.6321543,425.569132 L77.0469453,427.380064 L70.2971061,422.441158 L59.9254019,380.954341 L81.162701,383.259164 L83.6321543,385.728617 L83.6321543,425.569132 Z" fill="#EB3924"></path>
                            <path d="M56.303537,380.954341 L59.9254019,380.954341 L70.2971061,422.441158 L38.029582,410.752412 L31.444373,404.661093 L56.303537,380.954341 Z" fill="#EF3F23"></path>
                            <path d="M20.9080386,407.459807 L31.444373,404.661093 L38.029582,410.752412 L39.6758842,438.73955 L20.9080386,407.459807 Z" fill="#EF4623"></path>
                            <path d="M129.728617,384.740836 L161.831511,418.654662 L115.076527,415.362058 L129.728617,384.740836 Z" fill="#ED1F2B"></path>
                            <path d="M112.607074,415.362058 L115.076527,415.362058 L161.831511,418.654662 L142.734405,450.757556 L133.679743,451.909968 L112.607074,415.362058 Z" fill="#E41D3A"></path>
                            <path d="M133.679743,451.909968 L128.740836,453.7209 L97.7903537,435.776206 L96.9672026,428.532476 L112.607074,415.362058 L133.679743,451.909968 Z" fill="#E92029"></path>
                            <path d="M128.740836,453.7209 L111.290032,479.567846 L94.6623794,465.080386 L97.7903537,435.776206 L128.740836,453.7209 Z" fill="#EB232A"></path>
                            <path d="M94.6623794,465.080386 L97.7903537,435.776206 L96.9672026,428.532476 L83.6321543,425.569132 L77.0469453,427.380064 L59.9254019,463.434084 L77.2115756,480.555627 L94.6623794,465.080386 Z" fill="#E62825"></path>
                            <path d="M38.029582,410.752412 L70.2971061,422.441158 L77.0469453,427.380064 L59.9254019,463.434084 L39.6758842,438.73955 L38.029582,410.752412 Z" fill="#E53425"></path>
                            <path d="M94.6623794,465.080386 L111.290032,479.567846 L100.918328,490.598071 L77.2115756,480.555627 L94.6623794,465.080386 Z" fill="#EC2925"></path>
                            <path d="M111.290032,479.567846 L117.38135,484.836013 L117.38135,498.829582 L100.918328,490.598071 L111.290032,479.567846 Z" fill="#E61E2B"></path>
                            <path d="M111.290032,479.567846 L128.740836,453.7209 L133.679743,451.909968 L142.734405,450.757556 L153.106109,465.080386 L131.045659,486.317685 L117.38135,484.836013 L111.290032,479.567846 Z" fill="#D91F31"></path>
                            <path d="M117.38135,484.836013 L131.045659,486.317685 L147.508682,497.18328 L143.886817,505.414791 L117.38135,498.829582 L117.38135,484.836013 Z" fill="#CE2029"></path>
                            <path d="M131.045659,486.317685 L153.106109,465.080386 L164.136334,471.171704 L161.17299,490.598071 L154.752412,496.689389 L147.508682,497.18328 L131.045659,486.317685 Z" fill="#BE2026"></path>
                            <path d="M142.734405,450.757556 L161.831511,418.654662 L183.727331,442.361415 L175.001929,467.385209 L164.136334,471.171704 L153.106109,465.080386 L142.734405,450.757556 Z" fill="#BA2025"></path>
                            <path d="M161.17299,490.598071 L164.136334,471.171704 L175.001929,467.385209 L192.288103,477.756913 L191.629582,495.207717 L171.873955,498.335691 L161.17299,490.598071 Z" fill="#CB2035"></path>
                            <path d="M154.752412,496.689389 L161.17299,490.598071 L171.873955,498.335691 L173.355627,510.682958 L156.069453,510.682958 L154.752412,496.689389 Z" fill="#B62025"></path>
                            <path d="M147.508682,497.18328 L154.752412,496.689389 L156.069453,510.682958 L143.886817,505.414791 L147.508682,497.18328 Z" fill="#AF1F24"></path>
                            <path d="M171.873955,498.335691 L191.629582,495.207717 L195.909968,502.616077 L195.909968,510.682958 L173.355627,510.682958 L171.873955,498.335691 Z" fill="#C72038"></path>
                            <path d="M183.727331,442.361415 L175.001929,467.385209 L192.288103,477.756913 L202.989068,460.141479 L195.909968,441.867524 L183.727331,442.361415 Z" fill="#DA1961"></path>
                            <path d="M191.629582,495.207717 L192.288103,477.921543 L202.989068,460.306109 C202.989068,460.306109 227.683601,466.397428 227.683601,467.549839 C227.683601,468.702251 230.317685,481.214148 230.317685,481.214148 L218.958199,497.18328 L195.909968,502.616077 L191.629582,495.207717 L191.629582,495.207717 Z" fill="#CD1E51"></path>
                            <path d="M195.909968,510.682958 L195.909968,502.616077 L218.958199,497.18328 L220.110611,506.402572 L195.909968,510.682958 Z" fill="#C11F45"></path>
                            <path d="M161.831511,418.654662 L196.074598,409.106109 L200.848875,411.410932 L212.537621,431.49582 L195.909968,441.867524 L183.727331,442.361415 L161.831511,418.654662 Z" fill="#E21667"></path>
                            <path d="M195.909968,441.867524 L202.989068,460.141479 L227.848232,467.385209 L243.488103,448.452733 L244.146624,443.349196 L219.945981,428.697106 L212.537621,431.49582 L195.909968,441.867524 Z" fill="#C51F47"></path>
                            <path d="M218.958199,497.18328 L230.317685,481.049518 L237.726045,482.86045 L242.006431,499.488103 L220.110611,506.402572 L218.958199,497.18328 Z" fill="#AC1E2D"></path>
                            <path d="M227.848232,467.385209 L243.488103,448.452733 L258.140193,459.812219 L255.176849,481.872669 L237.726045,482.86045 L230.317685,481.049518 L227.848232,467.385209 Z" fill="#A21D2D"></path>
                            <path d="M242.006431,499.488103 L237.726045,482.86045 L255.176849,481.872669 L267.688746,487.634727 L242.006431,499.488103 Z" fill="#AF1E3D"></path>
                            <path d="M255.176849,481.872669 L258.140193,459.812219 L276.578778,451.086817 L278.883601,452.403859 L278.883601,482.201929 L267.688746,487.634727 L255.176849,481.872669 Z" fill="#AA1D3A"></path>
                            <path d="M243.488103,448.452733 L244.146624,443.349196 L263.40836,430.343408 L276.578778,451.086817 L258.140193,459.812219 L243.488103,448.452733 Z" fill="#A61D2F"></path>
                            <path d="M278.883601,452.403859 L302.425723,450.263666 L311.315756,455.696463 L278.883601,482.201929 L278.883601,452.403859 Z" fill="#A51D3D"></path>
                            <path d="M263.40836,430.343408 L263.40836,419.807074 L297.157556,419.807074 L302.425723,450.263666 L278.883601,452.403859 L276.578778,451.086817 L263.40836,430.343408 Z" fill="#B01E59"></path>
                            <path d="M219.945981,428.697106 L231.305466,413.880386 L263.40836,419.807074 L263.40836,430.343408 L244.146624,443.349196 L219.945981,428.697106 Z" fill="#B21E37"></path>
                            <path d="M200.848875,411.410932 L224.884887,390.502894 L231.305466,413.880386 L219.945981,428.697106 L212.537621,431.49582 L200.848875,411.410932 Z" fill="#C91F3D"></path>
                            <path d="M297.157556,419.807074 L306.706109,408.941479 L315.431511,406.801286 L326.132476,422.111897 L311.315756,455.696463 L302.425723,450.263666 L297.157556,420.300965 L297.157556,419.807074 Z" fill="#B61E77"></path>
                            <path d="M263.40836,419.807074 L264.066881,406.801286 L275.261736,383.259164 L282.340836,385.234727 L306.706109,408.941479 L297.157556,420.300965 L263.40836,419.807074 Z" fill="#BA1D7E"></path>
                            <path d="M231.305466,413.880386 L224.884887,390.502894 L224.884887,385.234727 L229.329904,383.259164 L264.066881,406.801286 L263.40836,419.807074 L231.305466,413.880386 Z" fill="#AB1D3A"></path>
                            <path d="M229.329904,383.259164 L233.77492,376.180064 L274.767846,381.448232 L275.261736,383.259164 L264.066881,406.801286 L229.329904,383.259164 Z" fill="#B21E58"></path>
                            <path d="M200.848875,411.410932 L196.074598,409.106109 L197.39164,384.740836 L209.080386,379.472669 L224.884887,385.234727 L224.884887,390.996785 L200.848875,411.410932 Z" fill="#DF1B52"></path>
                            <path d="M161.831511,418.654662 L165.782637,399.886817 L166.605788,378.484887 L175.33119,375.027653 L197.39164,384.740836 L196.074598,409.106109 L161.831511,418.654662 Z" fill="#E01A58"></path>
                            <path d="M175.33119,375.027653 L191.135691,349.016077 L202.001286,356.424437 L209.080386,379.472669 L197.39164,384.740836 L175.33119,375.027653 Z" fill="#DE1A56"></path>
                            <path d="M202.001286,356.424437 L209.080386,379.472669 L224.884887,385.234727 L229.329904,383.259164 L233.77492,376.180064 L235.256592,358.56463 L229.000643,351.650161 L202.001286,356.424437 Z" fill="#BE1F41"></path>
                            <path d="M187.513826,337.656592 L225.543408,324.156913 L229.000643,351.650161 L202.001286,356.424437 L190.806431,349.016077 L187.513826,337.656592 Z" fill="#C31F51"></path>
                            <path d="M185.209003,336.33955 L184.221222,333.046945 L189.160129,302.425723 L211.714469,296.334405 L225.543408,324.156913 L187.513826,337.656592 L185.209003,336.33955 Z" fill="#C61D63"></path>
                            <path d="M178.953055,295.181994 L178.953055,262.420579 L200.025723,254.518328 L205.458521,258.304823 L213.196141,287.609003 L211.714469,296.334405 L189.160129,302.425723 L178.953055,295.181994 Z" fill="#8A1C55"></path>
                            <path d="M225.543408,324.156913 L238.055305,321.193569 L257.975563,327.943408 L276.743408,343.41865 L235.256592,358.56463 L229.000643,351.650161 L225.543408,324.156913 Z" fill="#AD2083"></path>
                            <path d="M233.77492,376.180064 L235.256592,358.56463 L276.743408,343.41865 L274.767846,381.448232 L233.77492,376.180064 Z" fill="#B01F72"></path>
                            <path d="M276.743408,343.41865 L279.048232,342.760129 L309.504823,372.393569 L309.504823,376.180064 L282.340836,385.234727 L275.261736,383.259164 L274.767846,381.448232 L276.743408,343.41865 Z" fill="#912684"></path>
                            <path d="M282.340836,385.234727 L306.706109,408.941479 L315.431511,406.801286 L325.638585,391.490675 L309.504823,376.180064 L282.340836,385.234727 Z" fill="#9B2379"></path>
                            <path d="M325.638585,391.490675 L315.431511,406.801286 L326.132476,422.111897 L335.845659,428.697106 L350.168489,401.862379 L325.638585,391.490675 Z" fill="#A62283"></path>
                            <path d="M326.132476,422.111897 L311.315756,455.696463 L335.845659,428.697106 L326.132476,422.111897 Z" fill="#A51F62"></path>
                            <path d="M325.638585,391.490675 L341.443087,367.948553 L356.424437,377.990997 L350.168489,401.862379 L325.638585,391.490675 Z" fill="#9E2F92"></path>
                            <path d="M325.638585,391.490675 L341.443087,367.948553 L341.443087,352.637942 L318.559486,355.436656 L309.504823,372.393569 L309.504823,376.180064 L325.638585,391.490675 Z" fill="#A03A95"></path>
                            <path d="M279.048232,342.760129 L291.560129,335.845659 L318.559486,355.436656 L309.504823,372.393569 L279.048232,342.760129 Z" fill="#A23C96"></path>
                            <path d="M291.560129,335.845659 L294.523473,332.717685 L347.699035,342.760129 L341.443087,352.637942 L318.559486,355.436656 L291.560129,335.845659 Z" fill="#A74E9E"></path>
                            <path d="M341.443087,367.948553 L341.443087,352.637942 L347.699035,342.760129 L351.650161,337.656592 L364.491318,337.656592 L356.424437,377.990997 L341.443087,367.948553 Z" fill="#AC4E9E"></path>
                            <path d="M294.523473,332.717685 L298.309968,325.803215 L326.790997,314.77299 L346.381994,328.272669 L351.650161,337.656592 L347.699035,342.760129 L294.523473,332.717685 Z" fill="#834099"></path>
                            <path d="M276.743408,343.41865 L273.780064,301.108682 L292.21865,284.645659 L298.309968,325.803215 L294.523473,332.717685 L291.560129,335.845659 L279.048232,342.760129 L276.743408,343.41865 Z" fill="#844C9E"></path>
                            <path d="M276.743408,343.41865 L273.780064,301.108682 L259.951125,299.95627 L257.975563,327.943408 L276.743408,343.41865 Z" fill="#8B4B9D"></path>
                            <path d="M238.055305,321.193569 L244.640514,296.334405 L255.341479,293.864952 L259.951125,299.95627 L257.975563,327.943408 L238.055305,321.193569 Z" fill="#8F469B"></path>
                            <path d="M225.543408,324.156913 L211.714469,296.334405 L244.640514,296.334405 L238.055305,321.193569 L225.543408,324.156913 Z" fill="#923D97"></path>
                            <path d="M211.714469,296.334405 L213.196141,287.609003 L236.079743,280.365273 L244.640514,296.334405 L211.714469,296.334405 Z" fill="#773895"></path>
                            <path d="M205.458521,258.304823 L231.140836,255.67074 L243.817363,264.890032 L236.079743,280.365273 L213.196141,287.609003 L205.458521,258.304823 Z" fill="#422D84"></path>
                            <path d="M236.079743,280.365273 L243.817363,264.890032 L256.987781,264.066881 L264.560772,274.603215 L255.341479,293.864952 L244.640514,296.334405 L236.079743,280.365273 Z" fill="#532E90"></path>
                            <path d="M255.341479,293.864952 L264.560772,274.603215 L292.21865,284.645659 L273.780064,301.108682 L259.951125,299.95627 L255.341479,293.864952 Z" fill="#5D3E98"></path>
                            <path d="M292.21865,284.645659 L310.986495,285.633441 L325.473955,294.688103 L326.790997,314.77299 L298.309968,325.803215 L292.21865,284.645659 Z" fill="#5F459B"></path>
                            <path d="M325.473955,294.688103 L334.199357,288.267524 L353.954984,298.639228 L346.381994,328.272669 L326.790997,314.77299 L325.473955,294.688103 Z" fill="#312C7D"></path>
                            <path d="M346.381994,328.272669 L353.954984,298.639228 L362.515756,291.395498 L364.491318,337.656592 L351.650161,337.656592 L346.381994,328.272669 Z" fill="#2F2E87"></path>
                            <path d="M334.199357,288.267524 L344.07717,265.877814 L354.942765,265.054662 L362.515756,291.395498 L353.954984,298.639228 L334.199357,288.267524 Z" fill="#2D2C79"></path>
                            <path d="M292.21865,284.645659 L294.688103,256.493891 L320.370418,244.475884 L326.790997,248.262379 L344.07717,265.877814 L334.199357,288.267524 L325.473955,294.688103 L310.986495,285.633441 L292.21865,284.645659 Z" fill="#211E58"></path>
                            <path d="M256.987781,264.066881 L271.475241,238.713826 L294.688103,256.493891 L292.21865,284.645659 L264.560772,274.603215 L256.987781,264.066881 Z" fill="#292A6E"></path>
                            <path d="M271.475241,238.713826 L270.48746,234.26881 L282.011576,223.403215 L319.218006,238.713826 L320.370418,244.475884 L294.688103,256.493891 L271.475241,238.713826 Z" fill="#293076"></path>
                            <path d="M326.790997,248.262379 L342.266238,235.750482 L354.942765,265.054662 L344.07717,265.877814 L326.790997,248.262379 Z" fill="#242661"></path>
                            <path d="M319.218006,238.713826 L319.218006,222.250804 L331.894534,213.031511 L342.266238,235.750482 L326.790997,248.262379 L320.370418,244.475884 L319.218006,238.713826 Z" fill="#2A3585"></path>
                            <path d="M282.011576,223.403215 L290.078457,207.927974 L303.907395,202.330547 L319.218006,222.250804 L319.218006,238.713826 L282.011576,223.403215 Z" fill="#223F99"></path>
                            <path d="M303.907395,202.330547 L318.065595,189.324759 L331.894534,213.031511 L319.218006,222.250804 L303.907395,202.330547 Z" fill="#304CA0"></path>
                            <path d="M231.140836,255.67074 L238.055305,238.219936 L262.420579,229.000643 L270.48746,234.26881 L271.475241,238.713826 L256.987781,264.066881 L243.158842,265.054662 L231.140836,255.67074 Z" fill="#293991"></path>
                            <path d="M262.420579,229.000643 L250.402572,192.781994 L269.170418,184.550482 L290.078457,207.927974 L282.011576,223.403215 L270.48746,234.26881 L262.420579,229.000643 Z" fill="#2758A8"></path>
                            <path d="M269.170418,184.550482 L290.078457,173.026367 L303.907395,202.330547 L290.078457,207.927974 L269.170418,184.550482 Z" fill="#2A5CAA"></path>
                            <path d="M303.907395,202.330547 L290.078457,173.026367 L307.52926,173.026367 L318.065595,189.324759 L303.907395,202.330547 Z" fill="#2856A7"></path>
                            <path d="M250.402572,192.781994 L236.738264,189.98328 L232.622508,193.769775 L232.622508,218.135048 L258.634084,230.482315 L262.420579,229.000643 L250.402572,192.781994 Z" fill="#326BB4"></path>
                            <path d="M200.025723,254.518328 L201.178135,218.958199 L224.555627,226.201929 L205.458521,258.304823 L200.025723,254.518328 Z" fill="#1983C6"></path>
                            <path d="M205.458521,258.304823 L224.555627,226.201929 L232.622508,218.135048 L258.634084,230.482315 L238.055305,238.219936 L231.140836,255.67074 L205.458521,258.304823 Z" fill="#2E63AE"></path>
                            <path d="M201.178135,218.958199 L226.86045,194.263666 L232.622508,193.769775 L232.622508,218.135048 L224.555627,226.201929 L201.178135,218.958199 Z" fill="#1398D1"></path>
                            <path d="M164.465595,251.225723 L154.423151,221.921543 L164.959486,218.958199 L200.025723,254.518328 L178.953055,262.420579 L174.343408,261.597428 L164.465595,251.225723 Z" fill="#63BE6C"></path>
                            <path d="M164.959486,218.958199 L201.178135,218.958199 L200.025723,254.518328 L164.959486,218.958199 Z" fill="#4BBB83"></path>
                            <path d="M164.959486,218.958199 L187.843087,186.032154 L201.178135,218.958199 L164.959486,218.958199 Z" fill="#28B78C"></path>
                            <path d="M187.843087,186.032154 L187.843087,180.928617 L226.86045,194.263666 L201.178135,218.958199 L187.843087,186.032154 Z" fill="#18B3B9"></path>
                            <path d="M187.843087,180.928617 L197.062379,163.148553 L203.976849,159.526688 L231.963987,165.618006 L236.738264,189.98328 L232.622508,193.769775 L226.86045,194.263666 L187.843087,180.928617 Z" fill="#1BBDC6"></path>
                            <path d="M231.963987,165.618006 L237.890675,156.069453 L264.560772,156.069453 L269.170418,184.550482 L250.402572,192.781994 L236.738264,189.98328 L231.963987,165.618006 Z" fill="#15ADDF"></path>
                            <path d="M269.170418,184.550482 L264.560772,156.069453 L270.98135,148.496463 L290.078457,150.801286 L290.078457,173.026367 L269.170418,184.550482 Z" fill="#2D83C6"></path>
                            <path d="M290.078457,173.026367 L290.078457,150.801286 L307.52926,173.026367 L290.078457,173.026367 Z" fill="#2F75BB"></path>
                            <path d="M237.890675,156.069453 L235.915113,129.893248 L257.481672,128.740836 L270.158199,144.216077 L270.98135,148.496463 L264.560772,156.069453 L237.890675,156.069453 Z" fill="#1BB4D7"></path>
                            <path d="M270.98135,148.496463 L270.158199,144.216077 L277.401929,132.527331 L290.078457,150.801286 L270.98135,148.496463 Z" fill="#1C9BD7"></path>
                            <path d="M235.915113,129.893248 L239.866238,107.668167 L248.75627,97.1318328 L277.401929,132.527331 L270.158199,144.216077 L257.481672,128.740836 L235.915113,129.893248 Z" fill="#16A8D4"></path>
                            <path d="M203.976849,159.526688 L208.421865,136.478457 L235.915113,129.893248 L237.890675,156.069453 L231.963987,165.618006 L203.976849,159.526688 Z" fill="#21BEC7"></path>
                            <path d="M208.421865,136.478457 L193.275884,110.960772 L192.288103,105.857235 L199.037942,94.1684887 L239.866238,107.668167 L235.915113,129.893248 L208.421865,136.478457 Z" fill="#17B7BA"></path>
                            <path d="M199.037942,94.1684887 L199.037942,86.4308682 L235.915113,81.3273312 L248.75627,97.1318328 L239.866238,107.668167 L199.037942,94.1684887 Z" fill="#16B2B6"></path>
                            <path d="M199.037942,86.4308682 L196.074598,74.577492 L196.074598,66.1813505 L201.178135,54.821865 L220.933762,54.821865 L235.915113,81.3273312 L199.037942,86.4308682 Z" fill="#14ABAD"></path>
                            <path d="M197.062379,163.148553 L173.520257,141.746624 L181.093248,134.009003 L193.275884,110.960772 L208.421865,136.478457 L203.976849,159.526688 L197.062379,163.148553 Z" fill="#16AC99"></path>
                            <path d="M197.062379,163.148553 L187.843087,180.928617 L167.264309,176.977492 L159.526688,160.514469 L170.721543,141.746624 L173.520257,141.746624 L197.062379,163.148553 Z" fill="#1AA67F"></path>
                            <path d="M170.721543,141.746624 L161.996141,133.185852 L154.258521,107.668167 L155.904823,104.375563 L192.288103,105.857235 L193.275884,110.960772 L181.093248,134.009003 L173.520257,141.746624 L170.721543,141.746624 Z" fill="#159E79"></path>
                            <path d="M154.258521,107.668167 L148.825723,107.668167 L126.436013,149.978135 L127.917685,151.789068 L159.526688,160.514469 L170.721543,141.746624 L161.996141,133.185852 L154.258521,107.668167 Z" fill="#28AC66"></path>
                            <path d="M127.917685,151.789068 L124.29582,166.935048 L135.655305,177.306752 L167.264309,176.977492 L159.526688,160.514469 L127.917685,151.789068 Z" fill="#41B659"></path>
                            <path d="M144.709968,215.500965 L146.850161,203.647588 L167.264309,176.977492 L187.843087,180.928617 L187.843087,186.690675 L164.959486,218.958199 L154.423151,221.921543 L144.709968,215.500965 Z" fill="#39AE65"></path>
                            <path d="M135.655305,177.306752 L146.850161,203.647588 L167.264309,176.977492 L135.655305,177.306752 Z" fill="#51B954"></path>
                            <path d="M124.29582,166.935048 L109.64373,182.57492 L109.64373,187.513826 L137.960129,215.336334 L144.709968,215.500965 L146.850161,203.647588 L135.655305,177.306752 L124.29582,166.935048 Z" fill="#6BBD45"></path>
                            <path d="M109.64373,182.57492 L96.3086817,176.977492 L82.3151125,142.405145 L87.9125402,132.856592 L116.88746,142.405145 L126.436013,149.978135 L127.917685,151.789068 L124.29582,167.593569 L109.64373,182.57492 Z" fill="#73BC44"></path>
                            <path d="M116.88746,142.405145 L121.826367,103.223151 L148.825723,107.668167 L126.436013,149.978135 L116.88746,142.405145 Z" fill="#33AC51"></path>
                            <path d="M117.38135,97.1318328 L121.826367,103.223151 L148.002572,107.503537 L154.258521,107.668167 L155.904823,104.375563 L155.081672,82.3151125 L133.515113,73.7543408 L117.38135,97.1318328 Z" fill="#22A65B"></path>
                            <path d="M87.9125402,132.856592 L116.88746,142.405145 L121.826367,103.223151 L117.38135,97.1318328 L87.9125402,132.856592 Z" fill="#42A948"></path>
                            <path d="M109.64373,187.513826 L91.6990354,207.927974 L116.064309,231.799357 L137.960129,215.336334 L109.64373,187.513826 Z" fill="#A2CD3A"></path>
                            <path d="M113.430225,250.073312 L79.022508,264.725402 L69.473955,249.579421 L72.2726688,234.26881 L111.783923,241.34791 L113.430225,250.073312 Z" fill="#EBE616"></path>
                            <path d="M72.2726688,234.26881 L69.9678457,229.000643 L71.1202572,224.884887 L87.0893891,208.915756 L91.6990354,207.927974 L116.064309,231.799357 L111.783923,241.34791 L72.2726688,234.26881 Z" fill="#D2DE26"></path>
                            <path d="M48.4012862,257.317042 L69.473955,249.579421 L72.2726688,234.26881 L69.9678457,229.000643 L56.1389068,227.683601 L44.2855305,220.933762 L36.54791,212.20836 L16.1337621,254.847588 L35.0662379,246.945338 L48.4012862,257.317042 Z" fill="#EFE91F"></path>
                            <path d="M69.9678457,229.000643 L71.1202572,224.884887 L50.2122186,188.995498 L36.54791,212.20836 L44.2855305,220.933762 L56.1389068,227.683601 L69.9678457,229.000643 Z" fill="#D9E025"></path>
                            <path d="M50.2122186,188.995498 L71.1202572,184.715113 L87.0893891,208.915756 L71.1202572,224.884887 L50.2122186,188.995498 Z" fill="#C5D92D"></path>
                            <path d="M87.0893891,208.915756 L71.1202572,184.715113 L73.4250804,181.751768 L96.3086817,176.977492 L109.64373,182.57492 L109.64373,187.513826 L91.6990354,207.927974 L87.0893891,208.915756 Z" fill="#A5CE39"></path>
                            <path d="M73.4250804,181.751768 L71.4495177,156.398714 L82.3151125,142.405145 L96.3086817,176.977492 L73.4250804,181.751768 Z" fill="#8FC73F"></path>
                            <path d="M50.2122186,188.995498 L71.1202572,184.715113 L73.4250804,181.751768 L71.4495177,156.398714 L50.2122186,188.995498 Z" fill="#A5CE39"></path>
                            <path d="M133.515113,73.7543408 L155.081672,82.3151125 L161.17299,67.1691318 L151.953698,54.821865 L133.515113,73.7543408 Z" fill="#19A162"></path>
                            <path d="M155.904823,104.375563 L155.081672,82.3151125 L161.17299,67.1691318 L168.58135,32.5967846 L187.513826,29.3041801 L201.178135,54.821865 L196.074598,66.1813505 L196.074598,74.577492 L199.037942,86.4308682 L199.037942,94.1684887 L192.288103,105.857235 L155.904823,104.375563 Z" fill="#149A77"></path>
                            <path d="M187.513826,29.3041801 L190.806431,17.2861736 L220.933762,54.821865 L201.178135,54.821865 L187.513826,29.3041801 Z" fill="#169E97"></path>
                            <path d="M168.58135,32.5967846 L183.398071,0.98778135 L190.806431,17.2861736 L187.513826,29.3041801 L168.58135,32.5967846 Z" fill="#159566"></path>
                            <path d="M151.953698,54.821865 L161.17299,67.1691318 L168.58135,32.5967846 L151.953698,54.821865 Z" fill="#16996D"></path>
                            <path d="M123.966559,266.700965 L133.844373,261.597428 L164.465595,251.225723 L154.423151,221.921543 L144.709968,215.500965 L137.960129,215.336334 L116.064309,231.799357 L111.783923,241.34791 L113.430225,250.073312 L123.966559,266.700965 Z" fill="#B3CD35"></path>
                        </g>
                        <path d="M106.845016,339.302894 L99.4366559,308.187781 L120.838585,302.919614 L130.057878,308.681672 L135.326045,319.547267 L116.88746,345.394212 L106.845016,339.302894 Z" fill="#ED5423"></path>
                        <path d="M130.057878,308.681672 L145.862379,282.834727 L160.514469,298.968489 L153.27074,317.242444 L135.326045,319.547267 L130.057878,308.681672 Z" fill="#E04A26"></path>
                    </g>
                    <g transform="translate(421.453376, 154.752412)" id="Shape" fill="#333333">
                        <g>
                            <path d="M76.3884244,107.174277 L56.7974277,107.174277 L56.7974277,98.1196141 L56.4681672,98.1196141 C55.6450161,99.2720257 54.4926045,100.589068 53.1755627,101.906109 C51.8585209,103.223151 50.2122186,104.375563 48.4012862,105.363344 C46.5903537,106.351125 44.614791,107.174277 42.3099678,107.832797 C40.1697749,108.491318 37.8649518,108.820579 35.3954984,108.820579 C30.2919614,108.820579 25.6823151,107.997428 21.5665595,106.186495 C17.4508039,104.375563 13.8289389,102.07074 10.8655949,98.778135 C7.9022508,95.6501608 5.59742765,91.8636656 3.9511254,87.5832797 C2.30482315,83.3028939 1.48167203,78.5286174 1.48167203,73.2604502 C1.48167203,68.4861736 2.14019293,63.8765273 3.62186495,59.4315113 C5.10353698,54.9864952 7.07909968,51.2 9.8778135,47.7427653 C12.5118971,44.2855305 15.8045016,41.6514469 19.755627,39.6758842 C23.5421222,37.7003215 27.9871383,36.7125402 32.926045,36.7125402 C37.3710611,36.7125402 41.4868167,37.3710611 45.2733119,38.6881029 C49.0598071,40.0051447 52.1877814,42.3099678 54.6572347,45.7672026 L54.9864952,45.7672026 L54.9864952,0.164630225 L76.2237942,0.164630225 L76.2237942,107.174277 L76.3884244,107.174277 Z M56.9620579,72.7665595 C56.9620579,67.6630225 55.4803859,63.3826367 52.5170418,60.2546624 C49.5536977,57.1266881 45.4379421,55.4803859 40.0051447,55.4803859 C34.5723473,55.4803859 30.4565916,57.1266881 27.4932476,60.2546624 C24.5299035,63.3826367 23.0482315,67.6630225 23.0482315,72.7665595 C23.0482315,78.0347267 24.5299035,82.1504823 27.4932476,85.2784566 C30.4565916,88.4064309 34.5723473,90.0527331 40.0051447,90.0527331 C45.4379421,90.0527331 49.5536977,88.4064309 52.5170418,85.2784566 C55.4803859,82.1504823 56.9620579,77.8700965 56.9620579,72.7665595 L56.9620579,72.7665595 Z"></path>
                            <path d="M93.0160772,16.792283 C93.0160772,13.3350482 94.1684887,10.5363344 96.6379421,8.06688103 C99.1073955,5.59742765 101.906109,4.44501608 105.363344,4.44501608 C108.820579,4.44501608 111.619293,5.59742765 114.088746,8.06688103 C116.558199,10.5363344 117.710611,13.3350482 117.710611,16.792283 C117.710611,20.2495177 116.558199,23.0482315 114.088746,25.5176849 C111.619293,27.9871383 108.820579,29.1395498 105.363344,29.1395498 C101.906109,29.1395498 99.1073955,27.9871383 96.6379421,25.5176849 C94.1684887,23.0482315 93.0160772,20.0848875 93.0160772,16.792283 L93.0160772,16.792283 Z M94.6623794,38.3588424 L115.899678,38.3588424 L115.899678,107.174277 L94.6623794,107.174277 L94.6623794,38.3588424 L94.6623794,38.3588424 Z"></path>
                            <path d="M204.306109,101.247588 C204.306109,114.253376 201.013505,124.13119 194.428296,130.881029 C187.843087,137.630868 177.965273,140.923473 164.465595,140.923473 C158.374277,140.923473 152.282958,140.264952 146.35627,138.94791 C140.429582,137.630868 134.996785,134.996785 129.893248,130.881029 L141.581994,113.265595 C144.874598,116.064309 148.331833,118.204502 151.953698,119.850804 C155.575563,121.497106 159.526688,122.320257 163.971704,122.320257 C170.556913,122.320257 175.33119,120.673955 178.294534,117.545981 C181.422508,114.418006 182.90418,110.302251 182.90418,105.527974 L182.90418,98.9427653 L182.73955,98.9427653 C180.270096,102.23537 177.306752,104.540193 173.684887,106.021865 C170.063023,107.338907 166.605788,107.997428 163.477814,107.997428 C158.374277,107.997428 153.76463,107.174277 149.648875,105.363344 C145.533119,103.552412 141.911254,101.247588 138.94791,97.9549839 C135.984566,94.8270096 133.679743,91.0405145 132.033441,86.7601286 C130.387138,82.4797428 129.563987,77.7054662 129.563987,72.437299 C129.563987,67.992283 130.222508,63.5472669 131.70418,59.1022508 C133.185852,54.821865 135.161415,50.8707395 137.960129,47.578135 C140.594212,44.2855305 143.886817,41.6514469 147.837942,39.511254 C151.624437,37.5356913 156.069453,36.54791 161.00836,36.54791 C163.971704,36.54791 166.770418,36.8771704 169.239871,37.5356913 C171.709325,38.1942122 174.014148,39.0173633 175.989711,40.0051447 C177.965273,40.992926 179.611576,42.1453376 181.093248,43.4623794 C182.57492,44.7794212 183.562701,45.9318328 184.550482,47.2488746 L184.879743,47.2488746 L184.879743,38.1942122 L204.47074,38.1942122 L204.47074,101.247588 L204.306109,101.247588 Z M150.801286,72.2726688 C150.801286,74.577492 151.295177,76.7176849 152.118328,78.6932476 C152.941479,80.6688103 154.093891,82.4797428 155.740193,84.126045 C157.221865,85.607717 159.032797,86.9247588 161.17299,87.9125402 C163.148553,88.9003215 165.453376,89.3942122 167.92283,89.3942122 C170.227653,89.3942122 172.532476,88.9003215 174.508039,87.9125402 C176.648232,86.9247588 178.459164,85.7723473 179.940836,84.126045 C181.422508,82.644373 182.73955,80.8334405 183.562701,78.6932476 C184.385852,76.7176849 184.879743,74.577492 184.879743,72.2726688 C184.879743,69.9678457 184.385852,67.8276527 183.562701,65.85209 C182.73955,63.8765273 181.587138,62.0655949 179.940836,60.4192926 C178.459164,58.9376206 176.648232,57.6205788 174.508039,56.6327974 C172.367846,55.6450161 170.227653,55.1511254 167.92283,55.1511254 C165.453376,55.1511254 163.148553,55.6450161 161.17299,56.6327974 C159.197428,57.6205788 157.386495,58.7729904 155.740193,60.4192926 C154.258521,61.9009646 152.941479,63.7118971 152.118328,65.85209 C151.295177,67.992283 150.801286,70.1324759 150.801286,72.2726688 L150.801286,72.2726688 Z"></path>
                            <path d="M220.769132,16.792283 C220.769132,13.3350482 221.921543,10.5363344 224.390997,8.06688103 C226.86045,5.59742765 229.659164,4.44501608 233.116399,4.44501608 C236.573633,4.44501608 239.372347,5.59742765 241.841801,8.06688103 C244.311254,10.5363344 245.463666,13.3350482 245.463666,16.792283 C245.463666,20.2495177 244.311254,23.0482315 241.841801,25.5176849 C239.372347,27.9871383 236.573633,29.1395498 233.116399,29.1395498 C229.659164,29.1395498 226.86045,27.9871383 224.390997,25.5176849 C222.086174,23.0482315 220.769132,20.0848875 220.769132,16.792283 L220.769132,16.792283 Z M222.580064,38.3588424 L243.817363,38.3588424 L243.817363,107.174277 L222.580064,107.174277 L222.580064,38.3588424 L222.580064,38.3588424 Z"></path>
                            <path d="M260.445016,94.9916399 C260.445016,93.1807074 260.774277,91.5344051 261.432797,89.8881029 C262.091318,88.2418006 263.0791,86.9247588 264.231511,85.7723473 C265.383923,84.6199357 266.865595,83.6321543 268.347267,82.9736334 C269.993569,82.3151125 271.639871,81.9858521 273.450804,81.9858521 C275.261736,81.9858521 276.908039,82.3151125 278.554341,82.9736334 C280.200643,83.6321543 281.517685,84.6199357 282.670096,85.7723473 C283.822508,86.9247588 284.810289,88.4064309 285.46881,89.8881029 C286.127331,91.5344051 286.456592,93.1807074 286.456592,94.9916399 C286.456592,96.8025723 286.127331,98.4488746 285.46881,100.095177 C284.810289,101.741479 283.822508,103.058521 282.670096,104.210932 C281.517685,105.363344 280.036013,106.351125 278.554341,107.009646 C276.908039,107.668167 275.261736,107.997428 273.450804,107.997428 C271.639871,107.997428 269.993569,107.668167 268.347267,107.009646 C266.700965,106.351125 265.383923,105.363344 264.231511,104.210932 C263.0791,103.058521 262.091318,101.576849 261.432797,100.095177 C260.774277,98.4488746 260.445016,96.8025723 260.445016,94.9916399 L260.445016,94.9916399 Z"></path>
                            <path d="M302.919614,38.3588424 L323.333762,38.3588424 L323.333762,47.7427653 L323.663023,47.7427653 C324.321543,46.4257235 325.309325,45.1086817 326.461736,43.7916399 C327.614148,42.4745981 329.09582,41.3221865 330.906752,40.3344051 C332.553055,39.3466238 334.528617,38.5234727 336.66881,37.8649518 C338.809003,37.2064309 341.113826,36.8771704 343.74791,36.8771704 C348.522186,36.8771704 352.802572,37.8649518 356.589068,39.8405145 C360.375563,41.8160772 363.174277,44.9440514 364.985209,49.2244373 C367.454662,44.7794212 370.418006,41.6514469 373.875241,39.6758842 C377.332476,37.8649518 381.612862,36.8771704 386.716399,36.8771704 C391.326045,36.8771704 395.27717,37.7003215 398.405145,39.1819936 C401.533119,40.6636656 404.002572,42.8038585 405.978135,45.6025723 C407.789068,48.2366559 409.106109,51.5292605 409.92926,55.1511254 C410.752412,58.7729904 411.081672,62.7241158 411.081672,66.8398714 L411.081672,107.503537 L389.844373,107.503537 L389.844373,67.4983923 C389.844373,64.370418 389.185852,61.5717042 387.86881,59.266881 C386.551768,56.9620579 384.082315,55.8096463 380.62508,55.8096463 C378.155627,55.8096463 376.180064,56.1389068 374.533762,56.9620579 C372.88746,57.785209 371.570418,58.9376206 370.582637,60.2546624 C369.594855,61.7363344 368.936334,63.3826367 368.442444,65.1935691 C367.948553,67.0045016 367.783923,68.9800643 367.783923,71.1202572 L367.783923,107.503537 L346.546624,107.503537 L346.546624,70.7909968 C346.546624,69.6385852 346.546624,67.992283 346.381994,66.3459807 C346.217363,64.5350482 345.888103,62.888746 345.394212,61.2424437 C344.900322,59.5961415 343.91254,58.2790997 342.595498,57.1266881 C341.278457,55.9742765 339.467524,55.4803859 336.998071,55.4803859 C334.199357,55.4803859 332.059164,55.9742765 330.412862,56.9620579 C328.766559,57.9498392 327.449518,59.266881 326.461736,60.9131833 C325.638585,62.5594855 324.980064,64.370418 324.650804,66.5106109 C324.321543,68.6508039 324.156913,70.7909968 324.156913,73.0958199 L324.156913,107.338907 L302.919614,107.338907 L302.919614,38.3588424 L302.919614,38.3588424 Z"></path>
                            <path d="M491.915113,95.3209003 C488.457878,99.6012862 484.177492,103.058521 479.073955,105.363344 C473.805788,107.668167 468.537621,108.820579 462.940193,108.820579 C457.672026,108.820579 452.733119,107.997428 447.958842,106.351125 C443.349196,104.704823 439.233441,102.23537 435.776206,99.1073955 C432.318971,95.9794212 429.684887,92.192926 427.709325,87.74791 C425.733762,83.3028939 424.745981,78.3639871 424.745981,72.9311897 C424.745981,67.4983923 425.733762,62.5594855 427.709325,58.1144695 C429.684887,53.6694534 432.318971,49.8829582 435.776206,46.7549839 C439.233441,43.6270096 443.349196,41.1575563 447.958842,39.511254 C452.568489,37.8649518 457.672026,37.0418006 462.940193,37.0418006 C467.8791,37.0418006 472.324116,37.8649518 476.275241,39.511254 C480.226367,41.1575563 483.683601,43.6270096 486.482315,46.7549839 C489.281029,49.8829582 491.421222,53.6694534 492.902894,58.1144695 C494.384566,62.5594855 495.207717,67.4983923 495.207717,72.9311897 L495.207717,79.5163987 L445.98328,79.5163987 C446.806431,83.6321543 448.617363,86.7601286 451.580707,89.229582 C454.379421,91.6990354 457.836656,92.8514469 462.117042,92.8514469 C465.574277,92.8514469 468.537621,92.0282958 471.007074,90.5466238 C473.476527,89.0649518 475.45209,86.9247588 477.263023,84.4553055 L491.915113,95.3209003 L491.915113,95.3209003 Z M473.970418,65.0289389 C474.135048,61.407074 472.818006,58.4437299 470.513183,55.8096463 C468.04373,53.3401929 464.915756,52.0231511 460.96463,52.0231511 C458.659807,52.0231511 456.519614,52.3524116 454.708682,53.1755627 C452.897749,53.9987138 451.416077,54.821865 450.099035,56.1389068 C448.781994,57.2913183 447.794212,58.6083601 447.135691,60.2546624 C446.47717,61.7363344 445.98328,63.3826367 445.98328,65.1935691 L473.970418,65.1935691 L473.970418,65.0289389 Z"></path>
                        </g>
                        <g transform="translate(0.000000, 166.276527)">
                            <path d="M13.6643087,59.4315113 C13.0057878,61.407074 12.0180064,62.888746 10.7009646,64.0411576 C9.38392283,65.1935691 7.73762058,65.6874598 5.59742765,65.6874598 C4.93890675,65.6874598 4.28038585,65.6874598 3.62186495,65.5228296 C2.96334405,65.3581994 2.30482315,65.3581994 1.81093248,65.0289389 L2.14019293,61.407074 C2.6340836,61.5717042 3.2926045,61.7363344 3.78649518,61.9009646 C4.44501608,62.0655949 4.93890675,62.0655949 5.59742765,62.0655949 C6.25594855,62.0655949 6.91446945,61.9009646 7.40836013,61.5717042 C7.9022508,61.2424437 8.39614148,60.9131833 8.72540193,60.4192926 C9.05466238,59.9254019 9.38392283,59.4315113 9.71318328,58.7729904 C10.0424437,58.2790997 10.207074,57.6205788 10.3717042,56.9620579 L13.0057878,50.0475884 L0.98778135,20.4141479 L5.2681672,20.4141479 L14.9813505,45.2733119 L24.5299035,20.4141479 L28.6456592,20.4141479 L13.6643087,59.4315113 L13.6643087,59.4315113 Z"></path>
                            <path d="M32.5967846,35.5601286 C32.5967846,33.2553055 32.926045,31.2797428 33.7491961,29.3041801 C34.5723473,27.3286174 35.5601286,25.6823151 36.8771704,24.3652733 C38.1942122,23.0482315 39.8405145,21.8958199 41.8160772,21.0726688 C43.7916399,20.2495177 45.7672026,19.9202572 48.0720257,19.9202572 C50.3768489,19.9202572 52.3524116,20.2495177 54.3279743,21.0726688 C56.303537,21.8958199 57.9498392,22.8836013 59.266881,24.3652733 C60.5839228,25.6823151 61.7363344,27.3286174 62.5594855,29.3041801 C63.3826367,31.2797428 63.7118971,33.2553055 63.7118971,35.5601286 C63.7118971,37.8649518 63.3826367,39.8405145 62.5594855,41.8160772 C61.7363344,43.7916399 60.7485531,45.4379421 59.266881,46.7549839 C57.9498392,48.0720257 56.303537,49.2244373 54.3279743,50.0475884 C52.3524116,50.8707395 50.3768489,51.2 48.0720257,51.2 C45.7672026,51.2 43.7916399,50.8707395 41.8160772,50.0475884 C39.8405145,49.2244373 38.1942122,48.2366559 36.8771704,46.7549839 C35.5601286,45.4379421 34.407717,43.7916399 33.7491961,41.8160772 C32.926045,39.8405145 32.5967846,37.7003215 32.5967846,35.5601286 L32.5967846,35.5601286 Z M36.3832797,35.5601286 C36.3832797,37.2064309 36.7125402,38.8527331 37.2064309,40.3344051 C37.7003215,41.8160772 38.5234727,43.133119 39.511254,44.1209003 C40.4990354,45.2733119 41.8160772,46.096463 43.2977492,46.7549839 C44.7794212,47.4135048 46.4257235,47.7427653 48.2366559,47.7427653 C50.0475884,47.7427653 51.6938907,47.4135048 53.1755627,46.7549839 C54.6572347,46.096463 55.8096463,45.2733119 56.9620579,44.1209003 C57.9498392,42.9684887 58.7729904,41.8160772 59.266881,40.3344051 C59.7607717,38.8527331 60.0900322,37.3710611 60.0900322,35.5601286 C60.0900322,33.9138264 59.7607717,32.2675241 59.266881,30.7858521 C58.7729904,29.3041801 57.9498392,27.9871383 56.9620579,26.9993569 C55.9742765,25.8469453 54.6572347,25.0237942 53.1755627,24.3652733 C51.6938907,23.7067524 50.0475884,23.377492 48.2366559,23.377492 C46.4257235,23.377492 44.7794212,23.7067524 43.2977492,24.3652733 C41.8160772,25.0237942 40.6636656,25.8469453 39.511254,26.9993569 C38.5234727,28.1517685 37.7003215,29.3041801 37.2064309,30.7858521 C36.7125402,32.2675241 36.3832797,33.7491961 36.3832797,35.5601286 L36.3832797,35.5601286 Z"></path>
                            <path d="M96.6379421,41.9807074 L96.6379421,43.9562701 C96.6379421,44.7794212 96.6379421,45.6025723 96.8025723,46.4257235 C96.8025723,47.2488746 96.8025723,48.0720257 96.9672026,48.7305466 L96.9672026,50.3768489 L93.1807074,50.3768489 C93.1807074,49.2244373 93.1807074,48.2366559 93.0160772,47.2488746 C93.0160772,46.2610932 93.0160772,45.6025723 92.8514469,45.2733119 L92.6868167,45.2733119 C91.8636656,46.9196141 90.711254,48.2366559 88.9003215,49.3890675 C87.0893891,50.5414791 84.9491961,51.2 82.644373,51.2 C80.3395498,51.2 78.5286174,50.8707395 77.0469453,50.0475884 C75.5652733,49.3890675 74.4128617,48.4012862 73.5897106,47.2488746 C72.7665595,46.096463 72.2726688,44.7794212 71.9434084,43.133119 C71.6141479,41.6514469 71.4495177,40.0051447 71.4495177,38.3588424 L71.4495177,20.7434084 L75.2360129,20.7434084 L75.2360129,38.1942122 C75.2360129,39.3466238 75.4006431,40.4990354 75.5652733,41.6514469 C75.7299035,42.8038585 76.2237942,43.7916399 76.7176849,44.614791 C77.2115756,45.4379421 78.0347267,46.2610932 79.022508,46.7549839 C80.0102894,47.2488746 81.162701,47.578135 82.8090032,47.578135 C84.2906752,47.578135 85.607717,47.4135048 86.7601286,46.9196141 C88.0771704,46.4257235 89.0649518,45.6025723 90.0527331,44.614791 C91.0405145,43.6270096 91.6990354,42.3099678 92.192926,40.8282958 C92.6868167,39.3466238 93.0160772,37.5356913 93.0160772,35.5601286 L93.0160772,20.7434084 L96.8025723,20.7434084 L96.8025723,41.9807074 L96.6379421,41.9807074 Z"></path>
                            <path d="M106.515756,28.9749196 L106.515756,26.9993569 C106.515756,26.1762058 106.515756,25.3530547 106.351125,24.5299035 C106.351125,23.7067524 106.351125,22.8836013 106.186495,22.2250804 L106.186495,20.5787781 L109.97299,20.5787781 C109.97299,21.7311897 109.97299,22.7189711 110.137621,23.7067524 C110.137621,24.6945338 110.137621,25.3530547 110.302251,25.6823151 C111.290032,23.8713826 112.607074,22.5543408 114.088746,21.4019293 C115.570418,20.2495177 117.545981,19.755627 119.686174,19.755627 C120.015434,19.755627 120.509325,19.755627 120.838585,19.9202572 C121.167846,19.9202572 121.497106,20.0848875 121.990997,20.0848875 L121.497106,23.8713826 C121.003215,23.7067524 120.509325,23.5421222 120.015434,23.5421222 C118.369132,23.5421222 116.88746,23.8713826 115.735048,24.3652733 C114.582637,24.859164 113.594855,25.6823151 112.771704,26.5054662 C111.948553,27.4932476 111.454662,28.4810289 110.960772,29.7980707 C110.631511,31.1151125 110.466881,32.4321543 110.466881,33.9138264 L110.466881,50.0475884 L106.680386,50.0475884 L106.680386,28.9749196 L106.515756,28.9749196 Z"></path>
                            <path d="M143.886817,1.9755627 L147.673312,1.9755627 L147.673312,50.3768489 L143.886817,50.3768489 L143.886817,1.9755627 L143.886817,1.9755627 Z"></path>
                            <path d="M157.715756,9.05466238 C157.715756,8.23151125 158.045016,7.57299035 158.538907,7.07909968 C159.032797,6.585209 159.855949,6.25594855 160.514469,6.25594855 C161.337621,6.25594855 161.996141,6.585209 162.490032,7.07909968 C162.983923,7.57299035 163.313183,8.39614148 163.313183,9.05466238 C163.313183,9.8778135 162.983923,10.5363344 162.490032,11.0302251 C161.996141,11.5241158 161.17299,11.8533762 160.514469,11.8533762 C159.691318,11.8533762 159.032797,11.5241158 158.538907,11.0302251 C157.880386,10.5363344 157.715756,9.8778135 157.715756,9.05466238 L157.715756,9.05466238 Z M158.703537,20.7434084 L162.490032,20.7434084 L162.490032,50.3768489 L158.703537,50.3768489 L158.703537,20.7434084 L158.703537,20.7434084 Z"></path>
                            <path d="M174.837299,24.2006431 L168.745981,24.2006431 L168.745981,20.7434084 L174.837299,20.7434084 L174.837299,11.0302251 C174.837299,9.05466238 175.166559,7.57299035 175.66045,6.25594855 C176.154341,4.93890675 176.977492,3.9511254 177.800643,3.2926045 C178.623794,2.46945338 179.611576,1.9755627 180.599357,1.64630225 C181.587138,1.3170418 182.57492,1.15241158 183.562701,1.15241158 C185.373633,1.15241158 186.855305,1.48167203 188.007717,1.9755627 L187.184566,5.2681672 C186.361415,4.77427653 185.209003,4.6096463 183.727331,4.6096463 C180.270096,4.6096463 178.623794,7.2437299 178.623794,12.5118971 L178.623794,20.7434084 L185.538264,20.7434084 L185.538264,24.2006431 L178.623794,24.2006431 L178.623794,50.3768489 L174.837299,50.3768489 L174.837299,24.2006431 L174.837299,24.2006431 Z"></path>
                            <path d="M217.147267,44.7794212 C215.665595,47.0842444 213.854662,48.7305466 211.549839,49.718328 C209.409646,50.7061093 206.940193,51.2 204.306109,51.2 C202.001286,51.2 200.025723,50.8707395 198.214791,50.0475884 C196.403859,49.2244373 194.757556,48.2366559 193.440514,46.7549839 C192.123473,45.4379421 191.135691,43.7916399 190.47717,41.8160772 C189.81865,39.8405145 189.489389,37.8649518 189.489389,35.5601286 C189.489389,33.4199357 189.81865,31.2797428 190.641801,29.4688103 C191.300322,27.6578778 192.452733,26.0115756 193.769775,24.5299035 C195.086817,23.2128617 196.568489,22.0604502 198.379421,21.237299 C200.190354,20.4141479 202.165916,20.0848875 204.306109,20.0848875 C206.610932,20.0848875 208.586495,20.4141479 210.232797,21.237299 C211.8791,22.0604502 213.360772,23.0482315 214.513183,24.3652733 C215.665595,25.6823151 216.488746,27.1639871 217.147267,28.8102894 C217.805788,30.4565916 217.970418,32.1028939 217.970418,33.9138264 L217.970418,36.54791 L193.111254,36.54791 C193.111254,37.3710611 193.275884,38.3588424 193.605145,39.6758842 C193.934405,40.992926 194.592926,42.1453376 195.416077,43.2977492 C196.239228,44.4501608 197.39164,45.4379421 198.873312,46.4257235 C200.354984,47.2488746 202.165916,47.7427653 204.47074,47.7427653 C206.446302,47.7427653 208.257235,47.2488746 210.232797,46.2610932 C212.04373,45.2733119 213.525402,44.1209003 214.513183,42.4745981 L217.147267,44.7794212 L217.147267,44.7794212 Z M214.183923,32.926045 C214.183923,31.6090032 213.854662,30.2919614 213.360772,29.1395498 C212.866881,27.9871383 212.04373,26.9993569 211.220579,26.1762058 C210.232797,25.3530547 209.245016,24.5299035 207.927974,24.0360129 C206.610932,23.5421222 205.293891,23.2128617 203.976849,23.2128617 C201.836656,23.2128617 200.190354,23.7067524 198.708682,24.5299035 C197.39164,25.3530547 196.239228,26.340836 195.416077,27.4932476 C194.592926,28.6456592 194.099035,29.6334405 193.769775,30.7858521 C193.440514,31.7736334 193.275884,32.5967846 193.275884,32.926045 L214.183923,32.926045 L214.183923,32.926045 Z"></path>
                            <path d="M228.177492,44.4501608 L232.622508,44.4501608 L227.683601,59.1022508 L223.897106,59.1022508 L228.177492,44.4501608 L228.177492,44.4501608 Z"></path>
                            <path d="M266.207074,59.4315113 C265.548553,61.407074 264.560772,62.888746 263.24373,64.0411576 C261.926688,65.1935691 260.280386,65.6874598 258.140193,65.6874598 C257.481672,65.6874598 256.823151,65.6874598 256.16463,65.5228296 C255.506109,65.3581994 254.847588,65.3581994 254.353698,65.0289389 L254.682958,61.407074 C255.176849,61.5717042 255.83537,61.7363344 256.32926,61.9009646 C256.987781,62.0655949 257.481672,62.0655949 258.140193,62.0655949 C258.798714,62.0655949 259.457235,61.9009646 259.951125,61.5717042 C260.445016,61.2424437 260.938907,60.9131833 261.268167,60.4192926 C261.597428,59.9254019 261.926688,59.4315113 262.255949,58.7729904 C262.585209,58.2790997 262.749839,57.6205788 262.914469,56.9620579 L265.548553,50.0475884 L253.530547,20.4141479 L257.810932,20.4141479 L267.524116,45.2733119 L277.072669,20.4141479 L281.188424,20.4141479 L266.207074,59.4315113 L266.207074,59.4315113 Z"></path>
                            <path d="M285.30418,35.5601286 C285.30418,33.2553055 285.633441,31.2797428 286.456592,29.3041801 C287.279743,27.3286174 288.267524,25.6823151 289.584566,24.3652733 C290.901608,23.0482315 292.54791,21.8958199 294.523473,21.0726688 C296.499035,20.2495177 298.474598,19.9202572 300.779421,19.9202572 C303.084244,19.9202572 305.059807,20.2495177 307.03537,21.0726688 C309.010932,21.8958199 310.657235,22.8836013 311.974277,24.3652733 C313.291318,25.6823151 314.44373,27.3286174 315.266881,29.3041801 C316.090032,31.2797428 316.419293,33.2553055 316.419293,35.5601286 C316.419293,37.8649518 316.090032,39.8405145 315.266881,41.8160772 C314.44373,43.7916399 313.455949,45.4379421 311.974277,46.7549839 C310.657235,48.0720257 309.010932,49.2244373 307.03537,50.0475884 C305.059807,50.8707395 303.084244,51.2 300.779421,51.2 C298.474598,51.2 296.499035,50.8707395 294.523473,50.0475884 C292.54791,49.2244373 290.901608,48.2366559 289.584566,46.7549839 C288.267524,45.4379421 287.115113,43.7916399 286.456592,41.8160772 C285.633441,39.8405145 285.30418,37.7003215 285.30418,35.5601286 L285.30418,35.5601286 Z M289.090675,35.5601286 C289.090675,37.2064309 289.419936,38.8527331 289.913826,40.3344051 C290.407717,41.8160772 291.230868,43.133119 292.21865,44.1209003 C293.206431,45.2733119 294.523473,46.096463 296.005145,46.7549839 C297.486817,47.4135048 299.133119,47.7427653 300.944051,47.7427653 C302.754984,47.7427653 304.401286,47.4135048 305.882958,46.7549839 C307.36463,46.096463 308.517042,45.2733119 309.669453,44.1209003 C310.657235,42.9684887 311.480386,41.8160772 311.974277,40.3344051 C312.468167,38.8527331 312.797428,37.3710611 312.797428,35.5601286 C312.797428,33.9138264 312.468167,32.2675241 311.974277,30.7858521 C311.480386,29.3041801 310.657235,27.9871383 309.669453,26.9993569 C308.681672,25.8469453 307.36463,25.0237942 305.882958,24.3652733 C304.401286,23.7067524 302.754984,23.377492 300.944051,23.377492 C299.133119,23.377492 297.486817,23.7067524 296.005145,24.3652733 C294.523473,25.0237942 293.371061,25.8469453 292.21865,26.9993569 C291.230868,28.1517685 290.407717,29.3041801 289.913826,30.7858521 C289.419936,32.2675241 289.090675,33.7491961 289.090675,35.5601286 L289.090675,35.5601286 Z"></path>
                            <path d="M349.345338,41.9807074 L349.345338,43.9562701 C349.345338,44.7794212 349.345338,45.6025723 349.509968,46.4257235 C349.509968,47.2488746 349.509968,48.0720257 349.674598,48.7305466 L349.674598,50.3768489 L345.723473,50.3768489 C345.723473,49.2244373 345.723473,48.2366559 345.558842,47.2488746 C345.558842,46.2610932 345.558842,45.6025723 345.394212,45.2733119 L345.229582,45.2733119 C344.406431,46.9196141 343.254019,48.2366559 341.443087,49.3890675 C339.632154,50.5414791 337.491961,51.2 335.187138,51.2 C332.882315,51.2 331.071383,50.8707395 329.589711,50.0475884 C328.108039,49.3890675 326.955627,48.4012862 326.132476,47.2488746 C325.309325,46.096463 324.815434,44.7794212 324.486174,43.133119 C324.156913,41.6514469 323.992283,40.0051447 323.992283,38.3588424 L323.992283,20.7434084 L327.778778,20.7434084 L327.778778,38.1942122 C327.778778,39.3466238 327.943408,40.4990354 328.108039,41.6514469 C328.272669,42.8038585 328.766559,43.7916399 329.26045,44.614791 C329.754341,45.4379421 330.577492,46.2610932 331.565273,46.7549839 C332.553055,47.2488746 333.705466,47.578135 335.351768,47.578135 C336.833441,47.578135 338.150482,47.4135048 339.302894,46.9196141 C340.619936,46.4257235 341.607717,45.6025723 342.595498,44.614791 C343.58328,43.6270096 344.241801,42.3099678 344.735691,40.8282958 C345.229582,39.3466238 345.558842,37.5356913 345.558842,35.5601286 L345.558842,20.7434084 L349.345338,20.7434084 L349.345338,41.9807074 L349.345338,41.9807074 Z"></path>
                            <path d="M359.223151,28.9749196 L359.223151,26.9993569 C359.223151,26.1762058 359.223151,25.3530547 359.058521,24.5299035 C359.058521,23.7067524 359.058521,22.8836013 358.893891,22.2250804 L358.893891,20.5787781 L362.680386,20.5787781 C362.680386,21.7311897 362.680386,22.7189711 362.845016,23.7067524 C362.845016,24.6945338 362.845016,25.3530547 363.009646,25.6823151 C363.997428,23.8713826 365.314469,22.5543408 366.796141,21.4019293 C368.277814,20.2495177 370.253376,19.755627 372.393569,19.755627 C372.72283,19.755627 373.21672,19.755627 373.545981,19.9202572 C373.875241,19.9202572 374.204502,20.0848875 374.698392,20.0848875 L374.204502,23.8713826 C373.710611,23.7067524 373.21672,23.5421222 372.72283,23.5421222 C371.076527,23.5421222 369.594855,23.8713826 368.442444,24.3652733 C367.290032,24.859164 366.302251,25.6823151 365.4791,26.5054662 C364.655949,27.4932476 364.162058,28.4810289 363.668167,29.7980707 C363.338907,31.1151125 363.174277,32.4321543 363.174277,33.9138264 L363.174277,50.0475884 L359.387781,50.0475884 L359.387781,28.9749196 L359.223151,28.9749196 Z"></path>
                            <path d="M391.655305,20.7434084 L395.935691,20.7434084 L403.179421,45.4379421 L403.344051,45.4379421 L411.575563,20.7434084 L415.197428,20.7434084 L423.92283,45.4379421 L424.08746,45.4379421 L431.001929,20.7434084 L434.788424,20.7434084 L426.063023,50.3768489 L422.111897,50.3768489 L413.221865,26.1762058 L413.221865,26.1762058 L404.990354,50.3768489 L401.039228,50.3768489 L391.655305,20.7434084 L391.655305,20.7434084 Z"></path>
                            <path d="M463.269453,37.8649518 L463.269453,41.8160772 C463.269453,42.9684887 463.269453,43.9562701 463.434084,44.9440514 C463.434084,45.9318328 463.598714,46.9196141 463.598714,47.7427653 C463.598714,48.5659164 463.763344,49.3890675 463.927974,50.3768489 L460.306109,50.3768489 C459.976849,48.8951768 459.976849,47.2488746 459.976849,45.6025723 L459.812219,45.6025723 C458.659807,47.578135 457.342765,48.8951768 455.696463,49.8829582 C454.050161,50.7061093 451.909968,51.2 449.440514,51.2 C448.123473,51.2 446.971061,51.0353698 445.654019,50.7061093 C444.336977,50.3768489 443.349196,49.8829582 442.361415,49.2244373 C441.373633,48.5659164 440.550482,47.578135 439.891961,46.4257235 C439.233441,45.2733119 438.90418,43.9562701 438.90418,42.4745981 C438.90418,40.1697749 439.398071,38.3588424 440.550482,37.0418006 C441.702894,35.7247588 443.184566,34.7369775 444.830868,34.0784566 C446.47717,33.4199357 448.288103,32.926045 450.263666,32.7614148 C452.239228,32.5967846 453.885531,32.4321543 455.367203,32.4321543 L459.812219,32.4321543 L459.812219,30.6212219 C459.812219,27.9871383 458.989068,26.1762058 457.507395,25.1884244 C455.861093,24.0360129 453.885531,23.5421222 451.580707,23.5421222 C448.123473,23.5421222 445.160129,24.6945338 442.526045,26.8347267 L440.221222,24.2006431 C441.702894,22.8836013 443.349196,21.7311897 445.489389,21.0726688 C447.629582,20.4141479 449.605145,20.0848875 451.580707,20.0848875 C455.202572,20.0848875 458.001286,20.9080386 460.141479,22.5543408 C462.281672,24.2006431 463.269453,26.9993569 463.269453,30.7858521 L463.269453,37.8649518 L463.269453,37.8649518 Z M455.531833,35.3954984 C453.885531,35.3954984 452.403859,35.5601286 450.757556,35.7247588 C449.275884,35.8893891 447.958842,36.2186495 446.641801,36.8771704 C445.489389,37.3710611 444.501608,38.029582 443.678457,38.8527331 C443.019936,39.6758842 442.526045,40.8282958 442.526045,41.9807074 C442.526045,42.8038585 442.690675,43.6270096 443.184566,44.4501608 C443.513826,45.1086817 444.172347,45.7672026 444.830868,46.096463 C445.489389,46.5903537 446.14791,46.9196141 446.971061,47.0842444 C447.794212,47.2488746 448.617363,47.4135048 449.440514,47.4135048 C451.416077,47.4135048 453.22701,47.0842444 454.544051,46.5903537 C455.861093,45.9318328 456.848875,45.2733119 457.672026,44.2855305 C458.495177,43.2977492 458.989068,42.3099678 459.318328,40.992926 C459.647588,39.8405145 459.812219,38.5234727 459.812219,37.3710611 L459.812219,35.3954984 L455.531833,35.3954984 L455.531833,35.3954984 Z"></path>
                            <path d="M481.214148,59.4315113 C480.555627,61.407074 479.567846,62.888746 478.250804,64.0411576 C476.933762,65.1935691 475.28746,65.6874598 473.147267,65.6874598 C472.488746,65.6874598 471.830225,65.6874598 471.171704,65.5228296 C470.513183,65.3581994 469.854662,65.3581994 469.360772,65.0289389 L469.690032,61.407074 C470.183923,61.5717042 470.842444,61.7363344 471.336334,61.9009646 C471.994855,62.0655949 472.488746,62.0655949 473.147267,62.0655949 C473.805788,62.0655949 474.464309,61.9009646 474.958199,61.5717042 C475.45209,61.2424437 475.945981,60.9131833 476.275241,60.4192926 C476.604502,59.9254019 476.933762,59.4315113 477.263023,58.7729904 C477.592283,58.2790997 477.756913,57.6205788 477.921543,56.9620579 L480.555627,50.0475884 L468.537621,20.4141479 L472.818006,20.4141479 L482.53119,45.2733119 L492.079743,20.4141479 L496.195498,20.4141479 L481.214148,59.4315113 L481.214148,59.4315113 Z"></path>
                        </g>
                    </g>
                </g>
            </g>
        </g>
    </g>
</svg>