<?xml version="1.0" encoding="utf-8"?>
<!-- Generator: Adobe Illustrator 19.2.1, SVG Export Plug-In . SVG Version: 6.00 Build 0)  -->
<svg version="1.1" xmlns="http://www.w3.org/2000/svg" xmlns:xlink="http://www.w3.org/1999/xlink" x="0px" y="0px"
	 viewBox="0 0 595.3 841.9" style="enable-background:new 0 0 595.3 841.9;" xml:space="preserve">
<style type="text/css">
	.st0{clip-path:url(#SVGID_2_);}
	.st1{fill:#ED8822;}
	.st2{fill:#C67429;}
	.st3{fill:#C2C130;}
	.st4{fill:#E0232C;}
	.st5{fill:#EC282F;}
	.st6{fill:#EA2925;}
	.st7{fill:#E62525;}
	.st8{fill:#EEA520;}
	.st9{fill:#EFD812;}
	.st10{fill:#EF6922;}
	.st11{fill:#EF7E22;}
	.st12{fill:#ECBE1D;}
	.st13{fill:#EBC21D;}
	.st14{fill:#F0DE0E;}
	.st15{fill:#F0A020;}
	.st16{fill:#EDB31F;}
	.st17{fill:#F29320;}
	.st18{fill:#F1A41F;}
	.st19{fill:#F36E21;}
	.st20{fill:#F05523;}
	.st21{fill:#F05123;}
	.st22{fill:#E93825;}
	.st23{fill:#DA3027;}
	.st24{fill:#EF392F;}
	.st25{fill:#D61F2C;}
	.st26{fill:#DC1C4B;}
	.st27{fill:#E62825;}
	.st28{fill:#E12326;}
	.st29{fill:#EB3924;}
	.st30{fill:#EF3F23;}
	.st31{fill:#EF4623;}
	.st32{fill:#ED1F2B;}
	.st33{fill:#E41D3A;}
	.st34{fill:#E92029;}
	.st35{fill:#EB232A;}
	.st36{fill:#E53425;}
	.st37{fill:#EC2925;}
	.st38{fill:#E61E2B;}
	.st39{fill:#D91F31;}
	.st40{fill:#CE2029;}
	.st41{fill:#BE2026;}
	.st42{fill:#BA2025;}
	.st43{fill:#CB2035;}
	.st44{fill:#B62025;}
	.st45{fill:#AF1F24;}
	.st46{fill:#C72038;}
	.st47{fill:#DA1961;}
	.st48{fill:#CD1E51;}
	.st49{fill:#C11F45;}
	.st50{fill:#E21667;}
	.st51{fill:#C51F47;}
	.st52{fill:#AC1E2D;}
	.st53{fill:#A21D2D;}
	.st54{fill:#AF1E3D;}
	.st55{fill:#AA1D3A;}
	.st56{fill:#A61D2F;}
	.st57{fill:#A51D3D;}
	.st58{fill:#B01E59;}
	.st59{fill:#B21E37;}
	.st60{fill:#C91F3D;}
	.st61{fill:#B61E77;}
	.st62{fill:#BA1D7E;}
	.st63{fill:#AB1D3A;}
	.st64{fill:#B21E58;}
	.st65{fill:#DF1B52;}
	.st66{fill:#E01A58;}
	.st67{fill:#DE1A56;}
	.st68{fill:#BE1F41;}
	.st69{fill:#C31F51;}
	.st70{fill:#C61D63;}
	.st71{fill:#8A1C55;}
	.st72{fill:#AD2083;}
	.st73{fill:#B01F72;}
	.st74{fill:#912684;}
	.st75{fill:#9B2379;}
	.st76{fill:#A62283;}
	.st77{fill:#A51F62;}
	.st78{fill:#9E2F92;}
	.st79{fill:#A03A95;}
	.st80{fill:#A23C96;}
	.st81{fill:#A74E9E;}
	.st82{fill:#AC4E9E;}
	.st83{fill:#834099;}
	.st84{fill:#844C9E;}
	.st85{fill:#8B4B9D;}
	.st86{fill:#8F469B;}
	.st87{fill:#923D97;}
	.st88{fill:#773895;}
	.st89{fill:#422D84;}
	.st90{fill:#532E90;}
	.st91{fill:#5D3E98;}
	.st92{fill:#5F459B;}
	.st93{fill:#312C7D;}
	.st94{fill:#2F2E87;}
	.st95{fill:#2D2C79;}
	.st96{fill:#211E58;}
	.st97{fill:#292A6E;}
	.st98{fill:#293076;}
	.st99{fill:#242661;}
	.st100{fill:#2A3585;}
	.st101{fill:#223F99;}
	.st102{fill:#304CA0;}
	.st103{fill:#293991;}
	.st104{fill:#2758A8;}
	.st105{fill:#2A5CAA;}
	.st106{fill:#2856A7;}
	.st107{fill:#326BB4;}
	.st108{fill:#1983C6;}
	.st109{fill:#2E63AE;}
	.st110{fill:#1398D1;}
	.st111{fill:#63BE6C;}
	.st112{fill:#4BBB83;}
	.st113{fill:#28B78C;}
	.st114{fill:#18B3B9;}
	.st115{fill:#1BBDC6;}
	.st116{fill:#15ADDF;}
	.st117{fill:#2D83C6;}
	.st118{fill:#2F75BB;}
	.st119{fill:#1BB4D7;}
	.st120{fill:#1C9BD7;}
	.st121{fill:#16A8D4;}
	.st122{fill:#21BEC7;}
	.st123{fill:#17B7BA;}
	.st124{fill:#16B2B6;}
	.st125{fill:#14ABAD;}
	.st126{fill:#16AC99;}
	.st127{fill:#1AA67F;}
	.st128{fill:#159E79;}
	.st129{fill:#28AC66;}
	.st130{fill:#41B659;}
	.st131{fill:#39AE65;}
	.st132{fill:#51B954;}
	.st133{fill:#6BBD45;}
	.st134{fill:#73BC44;}
	.st135{fill:#33AC51;}
	.st136{fill:#22A65B;}
	.st137{fill:#42A948;}
	.st138{fill:#A2CD3A;}
	.st139{fill:#EBE616;}
	.st140{fill:#D2DE26;}
	.st141{fill:#EFE91F;}
	.st142{fill:#D9E025;}
	.st143{fill:#C5D92D;}
	.st144{fill:#A5CE39;}
	.st145{fill:#8FC73F;}
	.st146{fill:#19A162;}
	.st147{fill:#149A77;}
	.st148{fill:#169E97;}
	.st149{fill:#159566;}
	.st150{fill:#16996D;}
	.st151{fill:#B3CD35;}
	.st152{fill:#ED5423;}
	.st153{fill:#E04A26;}
	.st154{fill:#333333;}
</style>
<g id="Layer_1">
</g>
<g id="Layer_2">
	<g>
		<g>
			<defs>
				<path id="SVGID_1_" d="M228.3,433.9c-6.4-18.8-19.7-48.2-46.2-79.2c-44.7-52.3-49.8-58.5-54.3-77c-0.1-0.4-0.2-0.8-0.3-1
					c-0.1,0.2-0.2,0.5-0.3,1c-4.5,18.5-9.6,24.7-54.3,77c-26.5,31-39.8,60.4-46.2,79.2c-4.7,12.1-7.3,25.3-7.3,39
					c0,59.7,48.4,108,108,108s108-48.4,108-108C235.6,459.1,233,446,228.3,433.9z"/>
			</defs>
			<clipPath id="SVGID_2_">
				<use xlink:href="#SVGID_1_"  style="overflow:visible;"/>
			</clipPath>
			<g class="st0">
				<g>
					<polygon class="st1" points="91.3,436 104.6,445.8 95,461.5 89.4,458 					"/>
					<polygon class="st2" points="104.6,445.8 121.9,432.9 124.7,433.4 124.7,453.3 113.5,455.6 					"/>
					<polygon class="st3" points="121.9,432.9 115.9,426.6 97.3,432.9 91.3,436 104.6,445.8 					"/>
					<polygon class="st4" points="113.5,455.6 109.1,466.7 127.9,476.3 130.9,457.7 124.7,453.3 					"/>
					<polygon class="st5" points="109.1,466.7 111.4,485.7 128.5,478.3 127.9,476.3 					"/>
					<polygon class="st6" points="109.1,466.7 111.4,485.7 95.8,471.4 98.2,468.1 					"/>
					<polygon class="st7" points="111.4,485.7 87.9,487.4 87,483.8 95.8,471.4 					"/>
					<polygon class="st8" points="89.4,458 76.4,461.2 67.2,455.9 64.4,451.3 91.3,436 					"/>
					<polygon class="st9" points="64.4,451.3 56.5,452.3 43.5,439.6 45.4,430.3 58.2,425.6 64,434.8 84.9,425.9 91.3,436 					"/>
					<polygon class="st10" points="67.2,455.9 76.4,461.2 80.9,480.1 62.5,481.2 					"/>
					<polygon class="st11" points="64.4,451.3 67.2,455.9 62.5,481.2 46.4,478.3 51.8,456.6 56.5,452.3 					"/>
					<polygon class="st12" points="43.5,439.6 56.5,452.3 51.8,456.6 32.9,456.4 					"/>
					<polygon class="st13" points="32.9,456.4 22.1,443.3 22.9,439.4 43.5,439.6 					"/>
					<polygon class="st14" points="43.5,439.6 45.4,430.3 37.3,424 25.8,428.8 22.9,439.4 					"/>
					<polygon class="st15" points="51.8,456.6 32.9,456.4 28.6,468.6 34.1,479.3 39.4,482.5 46.4,478.3 					"/>
					<polygon class="st16" points="32.9,456.4 28.6,468.6 23.7,468 16.5,463 22.1,443.3 					"/>
					<polygon class="st17" points="28.6,468.6 23.7,468 17.7,472.3 18,486.9 34.1,479.3 					"/>
					<polygon class="st18" points="23.7,468 17.7,472.3 16.5,463 					"/>
					<polygon class="st19" points="34.1,479.3 39.4,482.5 39.4,487.2 27.8,500.8 21.4,500.8 18,486.9 					"/>
					<polygon class="st20" points="39.4,487.2 50.2,505.4 35.1,519.8 28.7,521.5 21.4,500.8 28.1,500.4 					"/>
					<polygon class="st21" points="39.4,487.2 39.4,482.5 46.4,478.3 62.5,481.2 52.4,505.4 50.2,505.4 					"/>
					<polygon class="st22" points="52.4,505.4 62.5,481.2 80.9,480.1 87,483.6 87.9,487.4 88.1,491.9 69.6,498.4 65.3,506.8 					
						"/>
					<polygon class="st23" points="65.3,506.8 66.8,508.3 75.7,510.4 91.3,499.5 88.1,491.9 69.6,498.4 					"/>
					<polygon class="st24" points="87.9,487.4 88.1,491.9 91.3,499.5 94.6,502.2 111.2,499.9 111.4,485.7 					"/>
					<polygon class="st25" points="111.2,499.9 111.4,485.7 128.5,478.3 129.9,479.1 132.1,486 122.5,501.8 117.2,503.9 					"/>
					<polygon class="st26" points="94.6,502.2 111.2,499.9 117.2,503.9 116.7,516.9 114.3,528.3 94.8,507.7 					"/>
					<polygon class="st27" points="91.3,499.5 94.6,502.2 94.8,507.7 85.9,526.3 84.4,526.3 75.7,510.4 					"/>
					<polygon class="st28" points="66.8,508.3 75.7,510.4 84.4,526.3 74.9,534.3 66.8,532.5 					"/>
					<polygon class="st29" points="66.8,532.5 62.8,533.6 58.7,530.6 52.4,505.4 65.3,506.8 66.8,508.3 					"/>
					<polygon class="st30" points="50.2,505.4 52.4,505.4 58.7,530.6 39.1,523.5 35.1,519.8 					"/>
					<polygon class="st31" points="28.7,521.5 35.1,519.8 39.1,523.5 40.1,540.5 					"/>
					<polygon class="st32" points="94.8,507.7 114.3,528.3 85.9,526.3 					"/>
					<polygon class="st33" points="84.4,526.3 85.9,526.3 114.3,528.3 102.7,547.8 97.2,548.5 					"/>
					<polygon class="st34" points="97.2,548.5 94.2,549.6 75.4,538.7 74.9,534.3 84.4,526.3 					"/>
					<polygon class="st35" points="94.2,549.6 83.6,565.3 73.5,556.5 75.4,538.7 					"/>
					<polygon class="st27" points="73.5,556.5 75.4,538.7 74.9,534.3 66.8,532.5 62.8,533.6 52.4,555.5 62.9,565.9 					"/>
					<polygon class="st36" points="39.1,523.5 58.7,530.6 62.8,533.6 52.4,555.5 40.1,540.5 					"/>
					<polygon class="st37" points="73.5,556.5 83.6,565.3 77.3,572 62.9,565.9 					"/>
					<polygon class="st38" points="83.6,565.3 87.3,568.5 87.3,577 77.3,572 					"/>
					<polygon class="st39" points="83.6,565.3 94.2,549.6 97.2,548.5 102.7,547.8 109,556.5 95.6,569.4 87.3,568.5 					"/>
					<polygon class="st40" points="87.3,568.5 95.6,569.4 105.6,576 103.4,581 87.3,577 					"/>
					<polygon class="st41" points="95.6,569.4 109,556.5 115.7,560.2 113.9,572 110,575.7 105.6,576 					"/>
					<polygon class="st42" points="102.7,547.8 114.3,528.3 127.6,542.7 122.3,557.9 115.7,560.2 109,556.5 					"/>
					<polygon class="st43" points="113.9,572 115.7,560.2 122.3,557.9 132.8,564.2 132.4,574.8 120.4,576.7 					"/>
					<polygon class="st44" points="110,575.7 113.9,572 120.4,576.7 121.3,584.2 110.8,584.2 					"/>
					<polygon class="st45" points="105.6,576 110,575.7 110.8,584.2 103.4,581 					"/>
					<polygon class="st46" points="120.4,576.7 132.4,574.8 135,579.3 135,584.2 121.3,584.2 					"/>
					<polygon class="st47" points="127.6,542.7 122.3,557.9 132.8,564.2 139.3,553.5 135,542.4 					"/>
					<path class="st48" d="M132.4,574.8l0.4-10.5l6.5-10.7c0,0,15,3.7,15,4.4c0,0.7,1.6,8.3,1.6,8.3L149,576l-14,3.3L132.4,574.8z"
						/>
					<polygon class="st49" points="135,584.2 135,579.3 149,576 149.7,581.6 					"/>
					<polygon class="st50" points="114.3,528.3 135.1,522.5 138,523.9 145.1,536.1 135,542.4 127.6,542.7 					"/>
					<polygon class="st51" points="135,542.4 139.3,553.5 154.4,557.9 163.9,546.4 164.3,543.3 149.6,534.4 145.1,536.1 					"/>
					<polygon class="st52" points="149,576 155.9,566.2 160.4,567.3 163,577.4 149.7,581.6 					"/>
					<polygon class="st53" points="154.4,557.9 163.9,546.4 172.8,553.3 171,566.7 160.4,567.3 155.9,566.2 					"/>
					<polygon class="st54" points="163,577.4 160.4,567.3 171,566.7 178.6,570.2 					"/>
					<polygon class="st55" points="171,566.7 172.8,553.3 184,548 185.4,548.8 185.4,566.9 178.6,570.2 					"/>
					<polygon class="st56" points="163.9,546.4 164.3,543.3 176,535.4 184,548 172.8,553.3 					"/>
					<polygon class="st57" points="185.4,548.8 199.7,547.5 205.1,550.8 185.4,566.9 					"/>
					<polygon class="st58" points="176,535.4 176,529 196.5,529 199.7,547.5 185.4,548.8 184,548 					"/>
					<polygon class="st59" points="149.6,534.4 156.5,525.4 176,529 176,535.4 164.3,543.3 					"/>
					<polygon class="st60" points="138,523.9 152.6,511.2 156.5,525.4 149.6,534.4 145.1,536.1 					"/>
					<polygon class="st61" points="196.5,529 202.3,522.4 207.6,521.1 214.1,530.4 205.1,550.8 199.7,547.5 196.5,529.3 					"/>
					<polygon class="st62" points="176,529 176.4,521.1 183.2,506.8 187.5,508 202.3,522.4 196.5,529.3 					"/>
					<polygon class="st63" points="156.5,525.4 152.6,511.2 152.6,508 155.3,506.8 176.4,521.1 176,529 					"/>
					<polygon class="st64" points="155.3,506.8 158,502.5 182.9,505.7 183.2,506.8 176.4,521.1 					"/>
					<polygon class="st65" points="138,523.9 135.1,522.5 135.9,507.7 143,504.5 152.6,508 152.6,511.5 					"/>
					<polygon class="st66" points="114.3,528.3 116.7,516.9 117.2,503.9 122.5,501.8 135.9,507.7 135.1,522.5 					"/>
					<polygon class="st67" points="122.5,501.8 132.1,486 138.7,490.5 143,504.5 135.9,507.7 					"/>
					<polygon class="st68" points="138.7,490.5 143,504.5 152.6,508 155.3,506.8 158,502.5 158.9,491.8 155.1,487.6 					"/>
					<polygon class="st69" points="129.9,479.1 153,470.9 155.1,487.6 138.7,490.5 131.9,486 					"/>
					<polygon class="st70" points="128.5,478.3 127.9,476.3 130.9,457.7 144.6,454 153,470.9 129.9,479.1 					"/>
					<polygon class="st71" points="124.7,453.3 124.7,433.4 137.5,428.6 140.8,430.9 145.5,448.7 144.6,454 130.9,457.7 					"/>
					<polygon class="st72" points="153,470.9 160.6,469.1 172.7,473.2 184.1,482.6 158.9,491.8 155.1,487.6 					"/>
					<polygon class="st73" points="158,502.5 158.9,491.8 184.1,482.6 182.9,505.7 					"/>
					<polygon class="st74" points="184.1,482.6 185.5,482.2 204,500.2 204,502.5 187.5,508 183.2,506.8 182.9,505.7 					"/>
					<polygon class="st75" points="187.5,508 202.3,522.4 207.6,521.1 213.8,511.8 204,502.5 					"/>
					<polygon class="st76" points="213.8,511.8 207.6,521.1 214.1,530.4 220,534.4 228.7,518.1 					"/>
					<polygon class="st77" points="214.1,530.4 205.1,550.8 220,534.4 					"/>
					<polygon class="st78" points="213.8,511.8 223.4,497.5 232.5,503.6 228.7,518.1 					"/>
					<polygon class="st79" points="213.8,511.8 223.4,497.5 223.4,488.2 209.5,489.9 204,500.2 204,502.5 					"/>
					<polygon class="st80" points="185.5,482.2 193.1,478 209.5,489.9 204,500.2 					"/>
					<polygon class="st81" points="193.1,478 194.9,476.1 227.2,482.2 223.4,488.2 209.5,489.9 					"/>
					<polygon class="st82" points="223.4,497.5 223.4,488.2 227.2,482.2 229.6,479.1 237.4,479.1 232.5,503.6 					"/>
					<polygon class="st83" points="194.9,476.1 197.2,471.9 214.5,465.2 226.4,473.4 229.6,479.1 227.2,482.2 					"/>
					<polygon class="st84" points="184.1,482.6 182.3,456.9 193.5,446.9 197.2,471.9 194.9,476.1 193.1,478 185.5,482.2 					"/>
					<polygon class="st85" points="184.1,482.6 182.3,456.9 173.9,456.2 172.7,473.2 					"/>
					<polygon class="st86" points="160.6,469.1 164.6,454 171.1,452.5 173.9,456.2 172.7,473.2 					"/>
					<polygon class="st87" points="153,470.9 144.6,454 164.6,454 160.6,469.1 					"/>
					<polygon class="st88" points="144.6,454 145.5,448.7 159.4,444.3 164.6,454 					"/>
					<polygon class="st89" points="140.8,430.9 156.4,429.3 164.1,434.9 159.4,444.3 145.5,448.7 					"/>
					<polygon class="st90" points="159.4,444.3 164.1,434.9 172.1,434.4 176.7,440.8 171.1,452.5 164.6,454 					"/>
					<polygon class="st91" points="171.1,452.5 176.7,440.8 193.5,446.9 182.3,456.9 173.9,456.2 					"/>
					<polygon class="st92" points="193.5,446.9 204.9,447.5 213.7,453 214.5,465.2 197.2,471.9 					"/>
					<polygon class="st93" points="213.7,453 219,449.1 231,455.4 226.4,473.4 214.5,465.2 					"/>
					<polygon class="st94" points="226.4,473.4 231,455.4 236.2,451 237.4,479.1 229.6,479.1 					"/>
					<polygon class="st95" points="219,449.1 225,435.5 231.6,435 236.2,451 231,455.4 					"/>
					<polygon class="st96" points="193.5,446.9 195,429.8 210.6,422.5 214.5,424.8 225,435.5 219,449.1 213.7,453 204.9,447.5 					
						"/>
					<polygon class="st97" points="172.1,434.4 180.9,419 195,429.8 193.5,446.9 176.7,440.8 					"/>
					<polygon class="st98" points="180.9,419 180.3,416.3 187.3,409.7 209.9,419 210.6,422.5 195,429.8 					"/>
					<polygon class="st99" points="214.5,424.8 223.9,417.2 231.6,435 225,435.5 					"/>
					<polygon class="st100" points="209.9,419 209.9,409 217.6,403.4 223.9,417.2 214.5,424.8 210.6,422.5 					"/>
					<polygon class="st101" points="187.3,409.7 192.2,400.3 200.6,396.9 209.9,409 209.9,419 					"/>
					<polygon class="st102" points="200.6,396.9 209.2,389 217.6,403.4 209.9,409 					"/>
					<polygon class="st103" points="156.4,429.3 160.6,418.7 175.4,413.1 180.3,416.3 180.9,419 172.1,434.4 163.7,435 					"/>
					<polygon class="st104" points="175.4,413.1 168.1,391.1 179.5,386.1 192.2,400.3 187.3,409.7 180.3,416.3 					"/>
					<polygon class="st105" points="179.5,386.1 192.2,379.1 200.6,396.9 192.2,400.3 					"/>
					<polygon class="st106" points="200.6,396.9 192.2,379.1 202.8,379.1 209.2,389 					"/>
					<polygon class="st107" points="168.1,391.1 159.8,389.4 157.3,391.7 157.3,406.5 173.1,414 175.4,413.1 					"/>
					<polygon class="st108" points="137.5,428.6 138.2,407 152.4,411.4 140.8,430.9 					"/>
					<polygon class="st109" points="140.8,430.9 152.4,411.4 157.3,406.5 173.1,414 160.6,418.7 156.4,429.3 					"/>
					<polygon class="st110" points="138.2,407 153.8,392 157.3,391.7 157.3,406.5 152.4,411.4 					"/>
					<polygon class="st111" points="115.9,426.6 109.8,408.8 116.2,407 137.5,428.6 124.7,433.4 121.9,432.9 					"/>
					<polygon class="st112" points="116.2,407 138.2,407 137.5,428.6 					"/>
					<polygon class="st113" points="116.2,407 130.1,387 138.2,407 					"/>
					<polygon class="st114" points="130.1,387 130.1,383.9 153.8,392 138.2,407 					"/>
					<polygon class="st115" points="130.1,383.9 135.7,373.1 139.9,370.9 156.9,374.6 159.8,389.4 157.3,391.7 153.8,392 					"/>
					<polygon class="st116" points="156.9,374.6 160.5,368.8 176.7,368.8 179.5,386.1 168.1,391.1 159.8,389.4 					"/>
					<polygon class="st117" points="179.5,386.1 176.7,368.8 180.6,364.2 192.2,365.6 192.2,379.1 					"/>
					<polygon class="st118" points="192.2,379.1 192.2,365.6 202.8,379.1 					"/>
					<polygon class="st119" points="160.5,368.8 159.3,352.9 172.4,352.2 180.1,361.6 180.6,364.2 176.7,368.8 					"/>
					<polygon class="st120" points="180.6,364.2 180.1,361.6 184.5,354.5 192.2,365.6 					"/>
					<polygon class="st121" points="159.3,352.9 161.7,339.4 167.1,333 184.5,354.5 180.1,361.6 172.4,352.2 					"/>
					<polygon class="st122" points="139.9,370.9 142.6,356.9 159.3,352.9 160.5,368.8 156.9,374.6 					"/>
					<polygon class="st123" points="142.6,356.9 133.4,341.4 132.8,338.3 136.9,331.2 161.7,339.4 159.3,352.9 					"/>
					<polygon class="st124" points="136.9,331.2 136.9,326.5 159.3,323.4 167.1,333 161.7,339.4 					"/>
					<polygon class="st125" points="136.9,326.5 135.1,319.3 135.1,314.2 138.2,307.3 150.2,307.3 159.3,323.4 					"/>
					<polygon class="st126" points="135.7,373.1 121.4,360.1 126,355.4 133.4,341.4 142.6,356.9 139.9,370.9 					"/>
					<polygon class="st127" points="135.7,373.1 130.1,383.9 117.6,381.5 112.9,371.5 119.7,360.1 121.4,360.1 					"/>
					<polygon class="st128" points="119.7,360.1 114.4,354.9 109.7,339.4 110.7,337.4 132.8,338.3 133.4,341.4 126,355.4 
						121.4,360.1 					"/>
					<polygon class="st129" points="109.7,339.4 106.4,339.4 92.8,365.1 93.7,366.2 112.9,371.5 119.7,360.1 114.4,354.9 					"/>
					<polygon class="st130" points="93.7,366.2 91.5,375.4 98.4,381.7 117.6,381.5 112.9,371.5 					"/>
					<polygon class="st131" points="103.9,404.9 105.2,397.7 117.6,381.5 130.1,383.9 130.1,387.4 116.2,407 109.8,408.8 					"/>
					<polygon class="st132" points="98.4,381.7 105.2,397.7 117.6,381.5 					"/>
					<polygon class="st133" points="91.5,375.4 82.6,384.9 82.6,387.9 99.8,404.8 103.9,404.9 105.2,397.7 98.4,381.7 					"/>
					<polygon class="st134" points="82.6,384.9 74.5,381.5 66,360.5 69.4,354.7 87,360.5 92.8,365.1 93.7,366.2 91.5,375.8 					"/>
					<polygon class="st135" points="87,360.5 90,336.7 106.4,339.4 92.8,365.1 					"/>
					<polygon class="st136" points="87.3,333 90,336.7 105.9,339.3 109.7,339.4 110.7,337.4 110.2,324 97.1,318.8 					"/>
					<polygon class="st137" points="69.4,354.7 87,360.5 90,336.7 87.3,333 					"/>
					<polygon class="st138" points="82.6,387.9 71.7,400.3 86.5,414.8 99.8,404.8 					"/>
					<polygon class="st139" points="84.9,425.9 64,434.8 58.2,425.6 59.9,416.3 83.9,420.6 					"/>
					<polygon class="st140" points="59.9,416.3 58.5,413.1 59.2,410.6 68.9,400.9 71.7,400.3 86.5,414.8 83.9,420.6 					"/>
					<polygon class="st141" points="45.4,430.3 58.2,425.6 59.9,416.3 58.5,413.1 50.1,412.3 42.9,408.2 38.2,402.9 25.8,428.8 
						37.3,424 					"/>
					<polygon class="st142" points="58.5,413.1 59.2,410.6 46.5,388.8 38.2,402.9 42.9,408.2 50.1,412.3 					"/>
					<polygon class="st143" points="46.5,388.8 59.2,386.2 68.9,400.9 59.2,410.6 					"/>
					<polygon class="st144" points="68.9,400.9 59.2,386.2 60.6,384.4 74.5,381.5 82.6,384.9 82.6,387.9 71.7,400.3 					"/>
					<polygon class="st145" points="60.6,384.4 59.4,369 66,360.5 74.5,381.5 					"/>
					<polygon class="st144" points="46.5,388.8 59.2,386.2 60.6,384.4 59.4,369 					"/>
					<polygon class="st146" points="97.1,318.8 110.2,324 113.9,314.8 108.3,307.3 					"/>
					<polygon class="st147" points="110.7,337.4 110.2,324 113.9,314.8 118.4,293.8 129.9,291.8 138.2,307.3 135.1,314.2 
						135.1,319.3 136.9,326.5 136.9,331.2 132.8,338.3 					"/>
					<polygon class="st148" points="129.9,291.8 131.9,284.5 150.2,307.3 138.2,307.3 					"/>
					<polygon class="st149" points="118.4,293.8 127.4,274.6 131.9,284.5 129.9,291.8 					"/>
					<polygon class="st150" points="108.3,307.3 113.9,314.8 118.4,293.8 					"/>
					<polygon class="st151" points="91.3,436 97.3,432.9 115.9,426.6 109.8,408.8 103.9,404.9 99.8,404.8 86.5,414.8 83.9,420.6 
						84.9,425.9 					"/>
				</g>
				<polygon class="st152" points="80.9,480.1 76.4,461.2 89.4,458 95,461.5 98.2,468.1 87,483.8 				"/>
				<polygon class="st153" points="95,461.5 104.6,445.8 113.5,455.6 109.1,466.7 98.2,468.1 				"/>
			</g>
		</g>
		<g>
			<g>
				<path class="st154" d="M318.4,433.1h-11.9v-5.5h-0.2c-0.5,0.7-1.2,1.5-2,2.3c-0.8,0.8-1.8,1.5-2.9,2.1c-1.1,0.6-2.3,1.1-3.7,1.5
					c-1.3,0.4-2.7,0.6-4.2,0.6c-3.1,0-5.9-0.5-8.4-1.6c-2.5-1.1-4.7-2.5-6.5-4.5c-1.8-1.9-3.2-4.2-4.2-6.8c-1-2.6-1.5-5.5-1.5-8.7
					c0-2.9,0.4-5.7,1.3-8.4c0.9-2.7,2.1-5,3.8-7.1c1.6-2.1,3.6-3.7,6-4.9c2.3-1.2,5-1.8,8-1.8c2.7,0,5.2,0.4,7.5,1.2
					c2.3,0.8,4.2,2.2,5.7,4.3h0.2v-27.7h12.9V433.1z M306.6,412.2c0-3.1-0.9-5.7-2.7-7.6c-1.8-1.9-4.3-2.9-7.6-2.9
					c-3.3,0-5.8,1-7.6,2.9c-1.8,1.9-2.7,4.5-2.7,7.6c0,3.2,0.9,5.7,2.7,7.6c1.8,1.9,4.3,2.9,7.6,2.9c3.3,0,5.8-1,7.6-2.9
					C305.7,417.9,306.6,415.3,306.6,412.2z"/>
				<path class="st154" d="M328.5,378.2c0-2.1,0.7-3.8,2.2-5.3c1.5-1.5,3.2-2.2,5.3-2.2c2.1,0,3.8,0.7,5.3,2.2
					c1.5,1.5,2.2,3.2,2.2,5.3s-0.7,3.8-2.2,5.3c-1.5,1.5-3.2,2.2-5.3,2.2c-2.1,0-3.8-0.7-5.3-2.2C329.2,382,328.5,380.2,328.5,378.2
					z M329.5,391.3h12.9v41.8h-12.9V391.3z"/>
				<path class="st154" d="M396.1,429.5c0,7.9-2,13.9-6,18c-4,4.1-10,6.1-18.2,6.1c-3.7,0-7.4-0.4-11-1.2c-3.6-0.8-6.9-2.4-10-4.9
					l7.1-10.7c2,1.7,4.1,3,6.3,4c2.2,1,4.6,1.5,7.3,1.5c4,0,6.9-1,8.7-2.9c1.9-1.9,2.8-4.4,2.8-7.3v-4H383c-1.5,2-3.3,3.4-5.5,4.3
					c-2.2,0.8-4.3,1.2-6.2,1.2c-3.1,0-5.9-0.5-8.4-1.6c-2.5-1.1-4.7-2.5-6.5-4.5c-1.8-1.9-3.2-4.2-4.2-6.8c-1-2.6-1.5-5.5-1.5-8.7
					c0-2.7,0.4-5.4,1.3-8.1c0.9-2.6,2.1-5,3.8-7c1.6-2,3.6-3.6,6-4.9c2.3-1.2,5-1.8,8-1.8c1.8,0,3.5,0.2,5,0.6
					c1.5,0.4,2.9,0.9,4.1,1.5c1.2,0.6,2.2,1.3,3.1,2.1c0.9,0.8,1.5,1.5,2.1,2.3h0.2v-5.5h11.9V429.5z M363.6,411.9
					c0,1.4,0.3,2.7,0.8,3.9c0.5,1.2,1.2,2.3,2.2,3.3c0.9,0.9,2,1.7,3.3,2.3c1.2,0.6,2.6,0.9,4.1,0.9c1.4,0,2.8-0.3,4-0.9
					c1.3-0.6,2.4-1.3,3.3-2.3c0.9-0.9,1.7-2,2.2-3.3c0.5-1.2,0.8-2.5,0.8-3.9c0-1.4-0.3-2.7-0.8-3.9c-0.5-1.2-1.2-2.3-2.2-3.3
					c-0.9-0.9-2-1.7-3.3-2.3c-1.3-0.6-2.6-0.9-4-0.9c-1.5,0-2.9,0.3-4.1,0.9c-1.2,0.6-2.3,1.3-3.3,2.3c-0.9,0.9-1.7,2-2.2,3.3
					C363.9,409.3,363.6,410.6,363.6,411.9z"/>
				<path class="st154" d="M406.1,378.2c0-2.1,0.7-3.8,2.2-5.3c1.5-1.5,3.2-2.2,5.3-2.2s3.8,0.7,5.3,2.2c1.5,1.5,2.2,3.2,2.2,5.3
					s-0.7,3.8-2.2,5.3c-1.5,1.5-3.2,2.2-5.3,2.2s-3.8-0.7-5.3-2.2C406.9,382,406.1,380.2,406.1,378.2z M407.2,391.3h12.9v41.8h-12.9
					V391.3z"/>
				<path class="st154" d="M430.2,425.7c0-1.1,0.2-2.1,0.6-3.1c0.4-1,1-1.8,1.7-2.5c0.7-0.7,1.6-1.3,2.5-1.7c1-0.4,2-0.6,3.1-0.6
					c1.1,0,2.1,0.2,3.1,0.6c1,0.4,1.8,1,2.5,1.7c0.7,0.7,1.3,1.6,1.7,2.5c0.4,1,0.6,2,0.6,3.1c0,1.1-0.2,2.1-0.6,3.1
					c-0.4,1-1,1.8-1.7,2.5c-0.7,0.7-1.6,1.3-2.5,1.7c-1,0.4-2,0.6-3.1,0.6c-1.1,0-2.1-0.2-3.1-0.6c-1-0.4-1.8-1-2.5-1.7
					c-0.7-0.7-1.3-1.6-1.7-2.5C430.4,427.8,430.2,426.8,430.2,425.7z"/>
				<path class="st154" d="M456,391.3h12.4v5.7h0.2c0.4-0.8,1-1.6,1.7-2.4c0.7-0.8,1.6-1.5,2.7-2.1c1-0.6,2.2-1.1,3.5-1.5
					c1.3-0.4,2.7-0.6,4.3-0.6c2.9,0,5.5,0.6,7.8,1.8c2.3,1.2,4,3.1,5.1,5.7c1.5-2.7,3.3-4.6,5.4-5.8c2.1-1.1,4.7-1.7,7.8-1.7
					c2.8,0,5.2,0.5,7.1,1.4c1.9,0.9,3.4,2.2,4.6,3.9c1.1,1.6,1.9,3.6,2.4,5.8c0.5,2.2,0.7,4.6,0.7,7.1v24.7h-12.9v-24.3
					c0-1.9-0.4-3.6-1.2-5c-0.8-1.4-2.3-2.1-4.4-2.1c-1.5,0-2.7,0.2-3.7,0.7c-1,0.5-1.8,1.2-2.4,2c-0.6,0.9-1,1.9-1.3,3
					c-0.3,1.1-0.4,2.3-0.4,3.6v22.1h-12.9V411c0-0.7,0-1.7-0.1-2.7c-0.1-1.1-0.3-2.1-0.6-3.1c-0.3-1-0.9-1.8-1.7-2.5
					c-0.8-0.7-1.9-1-3.4-1c-1.7,0-3,0.3-4,0.9c-1,0.6-1.8,1.4-2.4,2.4c-0.5,1-0.9,2.1-1.1,3.4c-0.2,1.3-0.3,2.6-0.3,4v20.8H456
					V391.3z"/>
				<path class="st154" d="M570.8,425.9c-2.1,2.6-4.7,4.7-7.8,6.1c-3.2,1.4-6.4,2.1-9.8,2.1c-3.2,0-6.2-0.5-9.1-1.5
					c-2.8-1-5.3-2.5-7.4-4.4c-2.1-1.9-3.7-4.2-4.9-6.9c-1.2-2.7-1.8-5.7-1.8-9c0-3.3,0.6-6.3,1.8-9c1.2-2.7,2.8-5,4.9-6.9
					c2.1-1.9,4.6-3.4,7.4-4.4c2.8-1,5.9-1.5,9.1-1.5c3,0,5.7,0.5,8.1,1.5c2.4,1,4.5,2.5,6.2,4.4c1.7,1.9,3,4.2,3.9,6.9
					c0.9,2.7,1.4,5.7,1.4,9v4h-29.9c0.5,2.5,1.6,4.4,3.4,5.9c1.7,1.5,3.8,2.2,6.4,2.2c2.1,0,3.9-0.5,5.4-1.4
					c1.5-0.9,2.7-2.2,3.8-3.7L570.8,425.9z M559.9,407.5c0.1-2.2-0.7-4-2.1-5.6c-1.5-1.5-3.4-2.3-5.8-2.3c-1.4,0-2.7,0.2-3.8,0.7
					c-1.1,0.5-2,1-2.8,1.8c-0.8,0.7-1.4,1.5-1.8,2.5c-0.4,0.9-0.7,1.9-0.7,3H559.9z"/>
			</g>
			<g>
				<path class="st154" d="M280.3,505.1c-0.4,1.2-1,2.1-1.8,2.8s-1.8,1-3.1,1c-0.4,0-0.8,0-1.2-0.1c-0.4-0.1-0.8-0.1-1.1-0.3
					l0.2-2.2c0.3,0.1,0.7,0.2,1,0.3c0.4,0.1,0.7,0.1,1.1,0.1c0.4,0,0.8-0.1,1.1-0.3c0.3-0.2,0.6-0.4,0.8-0.7c0.2-0.3,0.4-0.6,0.6-1
					c0.2-0.3,0.3-0.7,0.4-1.1l1.6-4.2l-7.3-18h2.6l5.9,15.1l5.8-15.1h2.5L280.3,505.1z"/>
				<path class="st154" d="M291.8,490.6c0-1.4,0.2-2.6,0.7-3.8c0.5-1.2,1.1-2.2,1.9-3c0.8-0.8,1.8-1.5,3-2c1.2-0.5,2.4-0.7,3.8-0.7
					c1.4,0,2.6,0.2,3.8,0.7c1.2,0.5,2.2,1.1,3,2c0.8,0.8,1.5,1.8,2,3c0.5,1.2,0.7,2.4,0.7,3.8c0,1.4-0.2,2.6-0.7,3.8
					c-0.5,1.2-1.1,2.2-2,3c-0.8,0.8-1.8,1.5-3,2c-1.2,0.5-2.4,0.7-3.8,0.7c-1.4,0-2.6-0.2-3.8-0.7c-1.2-0.5-2.2-1.1-3-2
					c-0.8-0.8-1.5-1.8-1.9-3C292,493.2,291.8,491.9,291.8,490.6z M294.1,490.6c0,1,0.2,2,0.5,2.9c0.3,0.9,0.8,1.7,1.4,2.3
					c0.6,0.7,1.4,1.2,2.3,1.6c0.9,0.4,1.9,0.6,3,0.6s2.1-0.2,3-0.6c0.9-0.4,1.6-0.9,2.3-1.6c0.6-0.7,1.1-1.4,1.4-2.3
					c0.3-0.9,0.5-1.8,0.5-2.9c0-1-0.2-2-0.5-2.9c-0.3-0.9-0.8-1.7-1.4-2.3c-0.6-0.7-1.4-1.2-2.3-1.6c-0.9-0.4-1.9-0.6-3-0.6
					s-2.1,0.2-3,0.6c-0.9,0.4-1.6,0.9-2.3,1.6c-0.6,0.7-1.1,1.4-1.4,2.3C294.3,488.6,294.1,489.5,294.1,490.6z"/>
				<path class="st154" d="M330.7,494.5c0,0.3,0,0.7,0,1.2c0,0.5,0,1,0.1,1.5c0,0.5,0,1,0.1,1.4c0,0.4,0,0.8,0,1h-2.3
					c0-0.7,0-1.3-0.1-1.9c0-0.6,0-1-0.1-1.2h-0.1c-0.5,1-1.2,1.8-2.3,2.5c-1.1,0.7-2.4,1.1-3.8,1.1c-1.4,0-2.5-0.2-3.4-0.7
					c-0.9-0.4-1.6-1-2.1-1.7c-0.5-0.7-0.8-1.5-1-2.5c-0.2-0.9-0.3-1.9-0.3-2.9v-10.7h2.3v10.6c0,0.7,0.1,1.4,0.2,2.1
					c0.1,0.7,0.4,1.3,0.7,1.8c0.3,0.5,0.8,1,1.4,1.3c0.6,0.3,1.3,0.5,2.3,0.5c0.9,0,1.7-0.1,2.4-0.4c0.8-0.3,1.4-0.8,2-1.4
					c0.6-0.6,1-1.4,1.3-2.3c0.3-0.9,0.5-2,0.5-3.2v-9h2.3V494.5z"/>
				<path class="st154" d="M336.7,486.6c0-0.3,0-0.7,0-1.2c0-0.5,0-1-0.1-1.5c0-0.5,0-1-0.1-1.4c0-0.4,0-0.8,0-1h2.3
					c0,0.7,0,1.3,0.1,1.9c0,0.6,0,1,0.1,1.2c0.6-1.1,1.4-1.9,2.3-2.6c0.9-0.7,2.1-1,3.4-1c0.2,0,0.5,0,0.7,0.1
					c0.2,0,0.4,0.1,0.7,0.1l-0.3,2.3c-0.3-0.1-0.6-0.2-0.9-0.2c-1,0-1.9,0.2-2.6,0.5s-1.3,0.8-1.8,1.3c-0.5,0.6-0.8,1.2-1.1,2
					c-0.2,0.8-0.3,1.6-0.3,2.5v9.8h-2.3V486.6z"/>
				<path class="st154" d="M359.4,470.2h2.3v29.4h-2.3V470.2z"/>
				<path class="st154" d="M367.8,474.5c0-0.5,0.2-0.9,0.5-1.2c0.3-0.3,0.8-0.5,1.2-0.5c0.5,0,0.9,0.2,1.2,0.5
					c0.3,0.3,0.5,0.8,0.5,1.2c0,0.5-0.2,0.9-0.5,1.2c-0.3,0.3-0.8,0.5-1.2,0.5c-0.5,0-0.9-0.2-1.2-0.5
					C367.9,475.4,367.8,475,367.8,474.5z M368.4,481.6h2.3v18h-2.3V481.6z"/>
				<path class="st154" d="M378.2,483.7h-3.7v-2.1h3.7v-5.9c0-1.2,0.2-2.1,0.5-2.9c0.3-0.8,0.8-1.4,1.3-1.8c0.5-0.5,1.1-0.8,1.7-1
					c0.6-0.2,1.2-0.3,1.8-0.3c1.1,0,2,0.2,2.7,0.5l-0.5,2c-0.5-0.3-1.2-0.4-2.1-0.4c-2.1,0-3.1,1.6-3.1,4.8v5h4.2v2.1h-4.2v15.9
					h-2.3V483.7z"/>
				<path class="st154" d="M403.9,496.2c-0.9,1.4-2,2.4-3.4,3c-1.3,0.6-2.8,0.9-4.4,0.9c-1.4,0-2.6-0.2-3.7-0.7
					c-1.1-0.5-2.1-1.1-2.9-2c-0.8-0.8-1.4-1.8-1.8-3c-0.4-1.2-0.6-2.4-0.6-3.8c0-1.3,0.2-2.6,0.7-3.7c0.4-1.1,1.1-2.1,1.9-3
					c0.8-0.8,1.7-1.5,2.8-2c1.1-0.5,2.3-0.7,3.6-0.7c1.4,0,2.6,0.2,3.6,0.7c1,0.5,1.9,1.1,2.6,1.9c0.7,0.8,1.2,1.7,1.6,2.7
					c0.4,1,0.5,2,0.5,3.1v1.6h-15.1c0,0.5,0.1,1.1,0.3,1.9c0.2,0.8,0.6,1.5,1.1,2.2c0.5,0.7,1.2,1.3,2.1,1.9c0.9,0.5,2,0.8,3.4,0.8
					c1.2,0,2.3-0.3,3.5-0.9c1.1-0.6,2-1.3,2.6-2.3L403.9,496.2z M402.1,489c0-0.8-0.2-1.6-0.5-2.3c-0.3-0.7-0.8-1.3-1.3-1.8
					c-0.6-0.5-1.2-1-2-1.3c-0.8-0.3-1.6-0.5-2.4-0.5c-1.3,0-2.3,0.3-3.2,0.8c-0.8,0.5-1.5,1.1-2,1.8c-0.5,0.7-0.8,1.3-1,2
					c-0.2,0.6-0.3,1.1-0.3,1.3H402.1z"/>
				<path class="st154" d="M410.6,496h2.7l-3,8.9h-2.3L410.6,496z"/>
				<path class="st154" d="M433.7,505.1c-0.4,1.2-1,2.1-1.8,2.8s-1.8,1-3.1,1c-0.4,0-0.8,0-1.2-0.1c-0.4-0.1-0.8-0.1-1.1-0.3
					l0.2-2.2c0.3,0.1,0.7,0.2,1,0.3c0.4,0.1,0.7,0.1,1.1,0.1c0.4,0,0.8-0.1,1.1-0.3c0.3-0.2,0.6-0.4,0.8-0.7c0.2-0.3,0.4-0.6,0.6-1
					c0.2-0.3,0.3-0.7,0.4-1.1l1.6-4.2l-7.3-18h2.6l5.9,15.1l5.8-15.1h2.5L433.7,505.1z"/>
				<path class="st154" d="M445.3,490.6c0-1.4,0.2-2.6,0.7-3.8c0.5-1.2,1.1-2.2,1.9-3c0.8-0.8,1.8-1.5,3-2c1.2-0.5,2.4-0.7,3.8-0.7
					c1.4,0,2.6,0.2,3.8,0.7c1.2,0.5,2.2,1.1,3,2c0.8,0.8,1.5,1.8,2,3c0.5,1.2,0.7,2.4,0.7,3.8c0,1.4-0.2,2.6-0.7,3.8
					c-0.5,1.2-1.1,2.2-2,3c-0.8,0.8-1.8,1.5-3,2c-1.2,0.5-2.4,0.7-3.8,0.7c-1.4,0-2.6-0.2-3.8-0.7c-1.2-0.5-2.2-1.1-3-2
					c-0.8-0.8-1.5-1.8-1.9-3C445.5,493.2,445.3,491.9,445.3,490.6z M447.6,490.6c0,1,0.2,2,0.5,2.9c0.3,0.9,0.8,1.7,1.4,2.3
					c0.6,0.7,1.4,1.2,2.3,1.6c0.9,0.4,1.9,0.6,3,0.6c1.1,0,2.1-0.2,3-0.6c0.9-0.4,1.6-0.9,2.3-1.6c0.6-0.7,1.1-1.4,1.4-2.3
					c0.3-0.9,0.5-1.8,0.5-2.9c0-1-0.2-2-0.5-2.9c-0.3-0.9-0.8-1.7-1.4-2.3c-0.6-0.7-1.4-1.2-2.3-1.6c-0.9-0.4-1.9-0.6-3-0.6
					c-1.1,0-2.1,0.2-3,0.6c-0.9,0.4-1.6,0.9-2.3,1.6c-0.6,0.7-1.1,1.4-1.4,2.3C447.8,488.6,447.6,489.5,447.6,490.6z"/>
				<path class="st154" d="M484.2,494.5c0,0.3,0,0.7,0,1.2c0,0.5,0,1,0.1,1.5c0,0.5,0,1,0.1,1.4c0,0.4,0,0.8,0,1H482
					c0-0.7,0-1.3-0.1-1.9c0-0.6,0-1-0.1-1.2h-0.1c-0.5,1-1.2,1.8-2.3,2.5c-1.1,0.7-2.4,1.1-3.8,1.1c-1.4,0-2.5-0.2-3.4-0.7
					c-0.9-0.4-1.6-1-2.1-1.7c-0.5-0.7-0.8-1.5-1-2.5c-0.2-0.9-0.3-1.9-0.3-2.9v-10.7h2.3v10.6c0,0.7,0.1,1.4,0.2,2.1
					c0.1,0.7,0.4,1.3,0.7,1.8c0.3,0.5,0.8,1,1.4,1.3c0.6,0.3,1.3,0.5,2.3,0.5c0.9,0,1.7-0.1,2.4-0.4c0.8-0.3,1.4-0.8,2-1.4
					c0.6-0.6,1-1.4,1.3-2.3c0.3-0.9,0.5-2,0.5-3.2v-9h2.3V494.5z"/>
				<path class="st154" d="M490.2,486.6c0-0.3,0-0.7,0-1.2c0-0.5,0-1-0.1-1.5c0-0.5,0-1-0.1-1.4c0-0.4,0-0.8,0-1h2.3
					c0,0.7,0,1.3,0.1,1.9c0,0.6,0,1,0.1,1.2c0.6-1.1,1.4-1.9,2.3-2.6s2.1-1,3.4-1c0.2,0,0.5,0,0.7,0.1c0.2,0,0.4,0.1,0.7,0.1
					l-0.3,2.3c-0.3-0.1-0.6-0.2-0.9-0.2c-1,0-1.9,0.2-2.6,0.5s-1.3,0.8-1.8,1.3c-0.5,0.6-0.8,1.2-1.1,2c-0.2,0.8-0.3,1.6-0.3,2.5
					v9.8h-2.3V486.6z"/>
				<path class="st154" d="M509.9,481.6h2.6l4.4,15h0.1l5-15h2.2l5.3,15h0.1l4.2-15h2.3l-5.3,18h-2.4l-5.4-14.7H523l-5,14.7h-2.4
					L509.9,481.6z"/>
				<path class="st154" d="M553.4,492c0,0.9,0,1.7,0,2.4c0,0.7,0,1.3,0.1,1.9c0,0.6,0.1,1.2,0.1,1.7c0,0.5,0.1,1,0.2,1.6h-2.2
					c-0.2-0.9-0.2-1.9-0.2-2.9h-0.1c-0.7,1.2-1.5,2-2.5,2.6c-1,0.5-2.3,0.8-3.8,0.8c-0.8,0-1.5-0.1-2.3-0.3c-0.8-0.2-1.4-0.5-2-0.9
					c-0.6-0.4-1.1-1-1.5-1.7c-0.4-0.7-0.6-1.5-0.6-2.4c0-1.4,0.3-2.5,1-3.3c0.7-0.8,1.6-1.4,2.6-1.8c1-0.4,2.1-0.7,3.3-0.8
					c1.2-0.1,2.2-0.2,3.1-0.2h2.7v-1.1c0-1.6-0.5-2.7-1.4-3.3c-1-0.7-2.2-1-3.6-1c-2.1,0-3.9,0.7-5.5,2l-1.4-1.6
					c0.9-0.8,1.9-1.5,3.2-1.9c1.3-0.4,2.5-0.6,3.7-0.6c2.2,0,3.9,0.5,5.2,1.5c1.3,1,1.9,2.7,1.9,5V492z M548.7,490.5
					c-1,0-1.9,0.1-2.9,0.2c-0.9,0.1-1.7,0.3-2.5,0.7c-0.7,0.3-1.3,0.7-1.8,1.2c-0.4,0.5-0.7,1.2-0.7,1.9c0,0.5,0.1,1,0.4,1.5
					c0.2,0.4,0.6,0.8,1,1c0.4,0.3,0.8,0.5,1.3,0.6c0.5,0.1,1,0.2,1.5,0.2c1.2,0,2.3-0.2,3.1-0.5c0.8-0.4,1.4-0.8,1.9-1.4
					c0.5-0.6,0.8-1.2,1-2c0.2-0.7,0.3-1.5,0.3-2.2v-1.2H548.7z"/>
				<path class="st154" d="M564.3,505.1c-0.4,1.2-1,2.1-1.8,2.8c-0.8,0.7-1.8,1-3.1,1c-0.4,0-0.8,0-1.2-0.1
					c-0.4-0.1-0.8-0.1-1.1-0.3l0.2-2.2c0.3,0.1,0.7,0.2,1,0.3c0.4,0.1,0.7,0.1,1.1,0.1c0.4,0,0.8-0.1,1.1-0.3
					c0.3-0.2,0.6-0.4,0.8-0.7c0.2-0.3,0.4-0.6,0.6-1c0.2-0.3,0.3-0.7,0.4-1.1l1.6-4.2l-7.3-18h2.6l5.9,15.1l5.8-15.1h2.5
					L564.3,505.1z"/>
			</g>
		</g>
	</g>
</g>
</svg>
