<?xml version="1.0" encoding="iso-8859-1"?><!-- Generator: Adobe Illustrator 16.0.0, SVG Export Plug-In . SVG Version: 6.00 Build 0) --><!DOCTYPE svg PUBLIC "-//W3C//DTD SVG 1.1//EN" "http://www.w3.org/Graphics/SVG/1.1/DTD/svg11.dtd"><svg version="1.1" id="Layer_1" xmlns="http://www.w3.org/2000/svg" xmlns:xlink="http://www.w3.org/1999/xlink" x="0px" y="0px" width="192.756px" height="192.756px" viewBox="0 0 192.756 192.756" style="enable-background:new 0 0 192.756 192.756;" xml:space="preserve"><g><polygon style="fill-rule:evenodd;clip-rule:evenodd;fill:#FFFFFF;" points="0,0 192.756,0 192.756,192.756 0,192.756 0,0	"/><path style="fill-rule:evenodd;clip-rule:evenodd;" d="M10.43,61.199l-3.542-0.183l-1.46-0.292l-0.292-0.548	c0-0.511,0.365-0.73,1.096-0.73h36.627c17.163,0,29.213,5.222,36.225,15.702c4.017,6.062,6.025,13.256,6.025,21.582	c0,4.346-0.657,8.545-2.009,12.598c-1.533,4.273-3.651,8.035-6.39,11.395c-2.995,3.541-6.646,6.281-10.846,8.289	c-4.492,2.045-9.531,3.104-15.191,3.104H3.967c-0.767,0-1.132-0.256-1.132-0.693c0-0.475,0.548-0.73,1.57-0.73l8.947-0.547	c1.388-0.184,2.374-0.586,2.849-1.133l0.913-1.279c0.329-0.875,0.512-2.189,0.548-3.979V65.837c0-2.264-1.278-3.652-3.761-4.2	L10.43,61.199L10.43,61.199z M30.15,62.185l-0.256,1.461v64.307c0,0.73,0.146,1.24,0.438,1.424l1.461,0.219h4.82l11.174-0.402	c2.994-0.328,5.55-0.803,7.559-1.461c2.008-0.729,3.907-1.789,5.55-3.066c1.461-1.205,2.958-2.922,4.602-5.113	c2.738-3.578,4.71-8.143,5.915-13.73c0.73-3.65,1.096-7.193,1.096-10.589c0-2.994-0.438-6.208-1.351-9.677	c-1.278-5.003-3.214-9.385-5.953-13.11c-5.295-7.23-13.986-10.809-26-10.809h-7.413C30.953,61.564,30.405,61.747,30.15,62.185	L30.15,62.185z M92.302,131.568c-0.073-0.439,0.292-0.621,1.096-0.621l2.556-0.074c1.388-0.182,2.228-0.656,2.556-1.387	l0.475-2.629v-21.217c0-0.803-0.293-1.424-0.84-1.789l-1.899-0.184l-2.556,0.695l-1.388-0.074c-0.183-0.438,0.365-0.84,1.643-1.205	c3.031-0.803,5.698-1.826,7.961-3.104c1.387-0.803,2.373-1.242,2.811-1.424l1.096-0.109c0.365,0.072,0.549,0.803,0.549,2.117v26.73	c0,1.277,0.291,2.191,0.84,2.738c0.656,0.658,2.191,0.986,4.564,0.986c0.84,0,1.277,0.184,1.352,0.584	c0,0.33-0.256,0.439-0.695,0.439H92.959C92.521,132.043,92.302,131.859,92.302,131.568L92.302,131.568z M178.482,105.275	c-1.789,1.863-2.994,4.053-3.652,6.682v15.521c0,1.387,0.475,2.373,1.461,2.994l2.229,0.4l2.336,0.256	c0.549,0.074,0.768,0.184,0.768,0.475l-0.109,0.256l-0.621,0.184h-19.537c-0.584,0-0.912-0.184-0.912-0.475l0.547-0.439	l3.287-0.256c1.277-0.219,2.082-0.656,2.52-1.314l0.549-1.643v-21.91l-0.367-1.607l-0.619-0.365	c-0.184-0.182-0.475-0.291-0.914-0.365c-0.547-0.035-1.205,0.074-1.898,0.365l-1.861,0.512l-1.061-0.256	c-0.182-0.256-0.109-0.438,0.146-0.547l1.57-0.658c3.578-1.059,6.463-2.154,8.473-3.285l2.482-1.352l1.096,0.072l0.438,0.914v8.033	c2.74-4.455,4.93-7.193,6.428-8.107c0.912-0.547,1.789-0.986,2.447-1.168l1.277-0.109c0.803-0.074,1.717,0.182,2.738,0.84	c1.389,0.803,2.119,2.008,2.191,3.541c0.074,1.279-0.293,2.266-1.096,3.031c-0.73,0.621-1.461,0.805-2.117,0.621	c-0.621-0.109-1.096-0.365-1.424-0.73l-1.023-1.277c-0.803-1.17-1.57-1.535-2.482-1.205	C180.709,103.193,179.615,103.998,178.482,105.275L178.482,105.275z M102.162,75.258c-1.352,0-2.447,0.475-3.359,1.388	c-0.986,0.913-1.461,2.081-1.389,3.433c-0.072,1.278,0.402,2.374,1.389,3.287c0.912,0.913,2.008,1.387,3.359,1.387	c1.277,0,2.41-0.475,3.322-1.387c0.912-0.913,1.424-2.008,1.424-3.287c0-1.352-0.512-2.52-1.424-3.433	S103.439,75.258,102.162,75.258L102.162,75.258z M121.516,104.398c1.314-1.752,2.959-3.213,4.93-4.381	c1.754-1.023,3.506-1.68,5.332-2.01l6.756-0.4c2.445,0.109,4.711,0.584,6.756,1.496c4.93,2.191,8.033,6.209,9.201,12.051	c1.205,5.916,0.184,10.92-3.031,14.973c-2.738,3.432-6.354,5.623-10.918,6.572c-4.783,1.059-9.238,0.73-13.256-0.912	c-5.223-2.119-8.398-6.318-9.422-12.453C116.951,113.529,118.156,108.598,121.516,104.398L121.516,104.398z M142.914,102.756	c-2.227-2.482-5.039-3.578-8.436-3.287c-3.285,0.33-5.805,2.154-7.449,5.623c-1.496,3.141-2.045,6.977-1.496,11.504	c0.4,4.492,1.826,8.07,4.125,10.809c2.447,2.885,5.223,4.09,8.326,3.543c3.25-0.621,5.625-2.375,7.195-5.295	c1.533-2.994,2.08-6.865,1.715-11.795C146.457,108.928,145.18,105.275,142.914,102.756L142.914,102.756z"/><path style="fill-rule:evenodd;clip-rule:evenodd;" d="M92.046,104.363v0.365l-0.804-0.512v0.182l0.073,0.33h-0.11	c0-0.074,0-0.256,0-0.439v-0.256h0.037l0.73,0.549v-0.549h0.146L92.046,104.363L92.046,104.363z"/><polygon style="fill-rule:evenodd;clip-rule:evenodd;" points="93.397,104.107 92.959,104.107 92.959,104.363 93.324,104.363	93.324,104.398 92.959,104.398 92.959,104.654 93.397,104.654 93.397,104.729 92.85,104.729 92.85,104.033 93.397,104.033	93.397,104.107	"/><path style="fill-rule:evenodd;clip-rule:evenodd;" d="M95.406,104.033h0.037l-0.365,0.695h-0.11l-0.292-0.549l-0.329,0.549H94.31	c-0.183-0.33-0.328-0.549-0.365-0.695h0.183l0.219,0.549l0.329-0.549h0.109l0.256,0.549l0.292-0.549H95.406L95.406,104.033z"/><polygon style="fill-rule:evenodd;clip-rule:evenodd;" points="96.428,104.398 96.501,104.729 96.319,104.729 96.319,104.473	95.954,104.033 96.136,104.033 96.428,104.398 96.72,104.033 96.867,104.033 96.428,104.398	"/><path style="fill-rule:evenodd;clip-rule:evenodd;" d="M97.451,104.18c0.072-0.072,0.256-0.146,0.438-0.146	c0.184,0,0.293,0.074,0.439,0.146c0.035,0.037,0.109,0.109,0.109,0.219l-0.109,0.256c-0.146,0.074-0.256,0.074-0.439,0.074	c-0.182,0-0.365,0-0.438-0.074l-0.184-0.256C97.268,104.289,97.342,104.217,97.451,104.18L97.451,104.18z M98.182,104.18	l-0.293-0.072l-0.291,0.072c-0.074,0.037-0.146,0.109-0.146,0.219c0,0.074,0.072,0.146,0.146,0.184l0.291,0.146	c0.109,0,0.256-0.074,0.293-0.146c0.072-0.037,0.146-0.109,0.146-0.184C98.328,104.289,98.254,104.217,98.182,104.18L98.182,104.18	z"/><path style="fill-rule:evenodd;clip-rule:evenodd;" d="M99.277,104.107l-0.037,0.256h0.109c0.182,0,0.293-0.074,0.293-0.146	c0-0.037-0.037-0.109-0.221-0.109H99.277L99.277,104.107z M99.459,104.033c0.184,0,0.328,0.074,0.328,0.184l-0.145,0.146	l-0.184,0.035l0.439,0.33h-0.184l-0.438-0.33H99.24l0.037,0.33h-0.184v-0.695H99.459L99.459,104.033z"/><polygon style="fill-rule:evenodd;clip-rule:evenodd;" points="101.285,104.033 100.811,104.363 101.285,104.729 101.104,104.729	100.701,104.398 100.701,104.363 100.627,104.398 100.701,104.729 100.518,104.729 100.518,104.033 100.701,104.033	100.627,104.363 100.701,104.363 101.176,104.033 101.285,104.033	"/></g></svg>