<?xml version="1.0" encoding="utf-8"?>
<!-- Generator: Adobe Illustrator 16.0.0, SVG Export Plug-In . SVG Version: 6.00 Build 0)  -->
<!DOCTYPE svg PUBLIC "-//W3C//DTD SVG 1.0//EN" "http://www.w3.org/TR/2001/REC-SVG-20010904/DTD/svg10.dtd">
<svg version="1.0" id="Calque_1" xmlns="http://www.w3.org/2000/svg" xmlns:xlink="http://www.w3.org/1999/xlink" x="0px" y="0px"
	 width="1564.884px" height="357.334px" viewBox="0 0 1564.884 357.334" enable-background="new 0 0 1564.884 357.334"
	 xml:space="preserve">
<g>
	<g>
		<path id="cadre" d="M0,357.334C0,233.535,0,123.802,0,0c521.627,0,1043.255,0,1564.884,0c0,123.802,0,233.535,0,357.334
			C1043.255,357.334,521.627,357.334,0,357.334z M7.542,211.25c179.026,0,1216.614,0.01,1550.185,0.01c0-65.93,0-137.541,0-203.511
			c-1.002,0-1.86,0-2.719,0c-514.678,0-1029.352,0-1544.025,0c-3.435,0-3.44,0.003-3.44,3.455 M7.602,349.393
			c516.863,0,1033.479,0,1550.135,0c0-42.049,0-88.76,0-130.643c-516.803,0-1033.462,0-1550.135,0
			C7.602,260.793,7.602,307.365,7.602,349.393z"/>
		<path id="t" d="M556.795,212.76c-1.801,0-6.875,0-12.767-0.01c0-51.782,0-110.733,0-162.36c4.327,0,8.4,0,12.7,0
			c0,12.11,0,24.026,0,36.045c0.727,0.072,1.235,0.167,1.745,0.167c5.277,0.011,10.553,0.072,15.824-0.028
			c1.841-0.033,2.509,0.554,2.374,2.407c-0.142,2.012-0.203,4.06,0.014,6.059c0.262,2.44-0.734,2.94-2.978,2.88
			c-5.593-0.152-11.194-0.051-16.913-0.051C556.795,133.84,556.795,176.89,556.795,212.76z"/>
		<path fill-rule="evenodd" clip-rule="evenodd" d="M984.469,184.629c-4.356,0-8.496,0-12.751,0c0-32.736,0-65.136,0-97.779
			c4.158,0,8.228,0,12.642,0c0,5.068,0,10.177,0,15.609c3.185-3.366,5.876-6.573,8.936-9.375c11.746-10.748,31-12.006,43.887-3.044
			c5.417,3.766,8.579,9.139,10.93,15.114c0.188,0.474,0.405,0.938,0.627,1.4c0.028,0.061,0.152,0.074-0.125-0.047
			c3.384-4.021,6.424-8.223,10.047-11.838c11.088-11.062,28.793-13.882,42.034-6.798c9.551,5.11,14.57,13.585,16.089,23.99
			c1.037,7.09,1.467,14.314,1.566,21.489c0.222,16.257,0.023,32.52,0.123,48.78c0.013,2.262-0.748,2.951-2.86,2.854
			c-2.37-0.115-4.754-0.145-7.119,0.01c-2.431,0.156-3.353-0.566-3.334-3.223c0.121-17.314,0.185-34.629-0.009-51.942
			c-0.063-5.76-0.552-11.579-1.537-17.252c-1.464-8.462-8.71-14.602-17.251-15.728c-16.51-2.175-30.431,9.514-33.196,24.827
			c-1.239,6.867-1.782,13.923-1.942,20.906c-0.298,13.09-0.14,26.191-0.037,39.285c0.02,2.404-0.632,3.352-3.122,3.133
			c-2.358-0.205-4.747-0.115-7.116-0.021c-2.021,0.082-2.704-0.645-2.693-2.754c0.073-18.104,0.115-36.21-0.025-54.317
			c-0.036-4.629-0.382-9.325-1.237-13.868c-2.205-11.721-11.456-18.287-23.838-17.333c-13.101,1.01-24.769,11.866-27.003,25.608
			c-0.968,5.948-1.517,12.02-1.608,18.042C984.318,154.938,984.469,169.525,984.469,184.629z"/>
		<path fill-rule="evenodd" clip-rule="evenodd" d="M1390.755,136.749c-14.941,0-29.591,0-44.237,0c-14.647,0-29.297,0-43.931,0
			c-0.737,14.913,8.327,29.929,21.921,35.634c9.968,4.183,19.936,3.646,29.975-0.004c10.195-3.704,16.601-11.379,21.9-20.606
			c3.443,1.797,6.698,3.442,9.868,5.238c0.361,0.203,0.548,1.411,0.301,1.883c-9.16,17.345-23.187,27.345-43.11,28.246
			c-7.509,0.344-14.955-0.201-22.063-2.867c-16.597-6.223-26.144-18.807-30.594-35.379c-5.944-22.126,3.674-46.085,22.814-58.018
			c6.915-4.311,14.53-6.357,22.653-6.729c12.179-0.561,23.599,1.712,33.514,9.19c12.215,9.213,19.065,21.492,20.412,36.78
			C1390.362,132.199,1390.54,134.28,1390.755,136.749z M1376.201,125.356c-3.382-18.389-19.71-30.106-39.856-29.05
			c-15.337,0.804-31.124,14.606-32.481,29.05C1327.965,125.356,1352.062,125.356,1376.201,125.356z"/>
		<path fill-rule="evenodd" clip-rule="evenodd" d="M387.171,157.51c-9.306,18.051-23.219,28.58-43.502,29.613
			c-10.428,0.529-20.65-0.645-29.741-6.211c-14.418-8.831-22.595-22.052-24.508-38.655c-2.333-20.229,4.938-36.876,21.068-49.372
			c7.41-5.742,16.113-8.285,25.455-8.74c12.183-0.595,23.622,1.663,33.562,9.108c12.325,9.233,19.202,21.608,20.496,36.987
			c0.548,6.501,0.468,6.508-6.186,6.508c-25.934,0-51.871,0-77.806,0c-1.133,0-2.263,0-3.371,0
			c-1.383,11.274,5.574,27.446,19.423,34.548c10.138,5.199,20.553,5.023,31.144,1.516c10.749-3.561,17.599-11.444,23.031-21.05
			C379.954,153.716,383.407,155.533,387.171,157.51z M303.581,125.376c24.312,0,48.408,0,72.552,0
			c-3.887-19.56-20.954-30.119-39.4-29.042C322.292,97.177,307.843,106.482,303.581,125.376z"/>
		<path fill-rule="evenodd" clip-rule="evenodd" d="M860.151,136.749c0.057,17.223,9.864,31.14,23.954,36.419
			c13.608,5.096,38.592,2.109,50.237-21.291c3.517,1.839,7.033,3.675,10.733,5.611c-7.392,14.678-18.18,25.015-34.373,28.413
			c-12.751,2.68-25.529,2.191-37.23-4.148c-15.094-8.176-23.651-21.476-25.906-38.205c-2.937-21.795,4.948-39.441,23.041-52.142
			c6.895-4.841,14.875-6.863,23.277-7.251c10.928-0.506,21.394,1.114,30.718,7.181c12.976,8.444,20.77,20.342,22.968,35.753
			c0.333,2.341,0.252,4.748,0.684,7.062c0.429,2.31-0.505,2.643-2.518,2.64c-27.076-0.055-54.152-0.041-81.229-0.042
			C863.118,136.749,861.729,136.749,860.151,136.749z M861.434,125.441c24.327,0,48.424,0,72.542,0
			c-1.918-15.125-17.192-28.233-33.084-29.13C878.946,95.073,865.615,108.254,861.434,125.441z"/>
		<path fill-rule="evenodd" clip-rule="evenodd" d="M1496.249,151.787c3.425,1.774,6.494,3.275,9.447,4.981
			c0.49,0.286,0.881,1.688,0.609,2.204c-9.09,17.272-23.059,27.234-42.875,28.164c-10.061,0.471-19.923-0.646-28.785-5.818
			c-14.171-8.27-22.367-20.964-24.894-36.93c-2.959-18.708,2.703-34.895,16.488-48.009c8.139-7.743,18.024-11.575,29.193-12.195
			c11.103-0.619,21.771,0.97,31.246,7.16c13.751,8.978,21.592,21.695,23.244,38.113c0.233,2.322,0.392,4.652,0.604,7.222
			c-29.561,0-58.715,0-87.833,0c-1.503,9.423,4.234,27.074,19.778,34.834c10.057,5.021,20.438,4.781,30.918,1.254
			C1484.036,169.189,1490.797,161.338,1496.249,151.787z M1496.155,125.411c-3.924-19.267-20.498-30.255-40.319-29.082
			c-15.238,0.9-30.468,14.408-32.151,29.082C1447.786,125.411,1471.875,125.411,1496.155,125.411z"/>
		<path fill-rule="evenodd" clip-rule="evenodd" d="M739.334,184.961c0-45.651,0-90.713,0-135.967c4.163,0,8.237,0,12.827,0
			c0,17.839,0,35.647,0,53.496c2.846-2.649,5.378-5.042,7.95-7.396c12.076-11.044,30.122-14.324,43.812-7.882
			c11.197,5.271,17.646,14.262,19.539,26.333c0.989,6.309,1.499,12.748,1.585,19.134c0.217,16.439,0.025,32.878,0.131,49.32
			c0.015,2.359-0.734,3.133-3,2.988c-2.709-0.17-5.433-0.131-8.151-0.195c-1.502-0.035-2.094-0.734-2.081-2.32
			c0.116-16.69,0.344-33.387,0.15-50.078c-0.073-6.37-0.344-12.937-1.936-19.047c-3.597-13.8-14.457-18.408-27.235-17.289
			c-14.661,1.283-29.225,14.834-29.963,32.161c-0.721,16.927-0.664,33.886-0.944,50.83c-0.019,1.229-0.06,2.463,0.01,3.691
			c0.085,1.533-0.468,2.27-2.106,2.24C746.438,184.916,742.948,184.961,739.334,184.961z"/>
		<path fill-rule="evenodd" clip-rule="evenodd" d="M1194.315,184.912c-4.113,0-7.919,0.047-11.72-0.064
			c-0.419-0.012-0.937-0.859-1.183-1.42c-0.195-0.441-0.039-1.039-0.039-1.564c0-30.76,0.035-61.521-0.065-92.281
			c-0.007-2.558,0.823-3.167,3.144-3.011c2.537,0.169,5.1,0.126,7.642,0.009c1.758-0.08,2.281,0.593,2.249,2.293
			c-0.093,4.646-0.033,9.296-0.033,14.513c0.826-0.894,1.329-1.401,1.788-1.944c7.474-8.852,16.446-15.159,28.198-16.918
			c21.416-3.206,38.046,9.253,41.257,28.532c1.047,6.284,1.557,12.716,1.644,19.091c0.223,16.606,0.032,33.219,0.126,49.83
			c0.013,2.342-0.755,3.156-3.008,3.008c-2.614-0.174-5.245-0.305-7.862-0.217c-1.561,0.053-2.042-0.51-1.979-1.936
			c0.049-1.141,0.014-2.285,0.006-3.428c-0.115-17.922-0.084-35.848-0.451-53.764c-0.097-4.76-0.813-9.697-2.301-14.203
			c-4.2-12.747-15.063-16.338-26.511-15.4c-14.287,1.169-29.556,14.509-30.163,33.121c-0.567,17.359-0.518,34.738-0.735,52.106
			C1194.302,182.293,1194.315,183.324,1194.315,184.912z"/>
		<path fill-rule="evenodd" clip-rule="evenodd" d="M509.053,107.031c-3.461,2.161-6.71,4.194-9.721,6.076
			c-3.372-3.111-6.357-6.372-9.828-8.982c-16.816-12.64-49.281-11.962-62.875,13.162c-12.413,22.944,1.935,52.544,27.625,57.09
			c17.459,3.085,32.295-1.526,43.887-15.334c0.22-0.26,0.515-0.458,0.92-0.815c3.223,2.116,6.436,4.224,9.937,6.52
			c-0.557,0.889-0.982,1.705-1.535,2.431c-8.191,10.733-19.173,16.867-32.34,19.013c-14.704,2.396-28.998,1.252-41.928-6.947
			c-13.033-8.265-21.343-19.918-23.612-35.394c-3.871-26.389,13.023-51.644,38.995-57.936c16.342-3.959,32.061-2.063,46.648,6.732
			C500.973,96.111,505.452,100.859,509.053,107.031z"/>
		<path fill-rule="evenodd" clip-rule="evenodd" d="M247.005,99.68c1.028-1.168,1.583-1.754,2.086-2.38
			c4.879-6.062,10.438-11.192,18.382-12.797c5.531-1.118,10.761-0.189,15.855,3.034c-2.049,3.309-4.021,6.575-6.113,9.763
			c-0.259,0.395-1.213,0.623-1.751,0.506c-10.522-2.322-18.059,1.394-23.131,11.379c-3.122,6.145-4.64,12.719-4.793,19.527
			c-0.401,17.727-0.625,35.462-0.767,53.194c-0.02,2.486-0.724,3.273-3.135,3.092c-2.867-0.215-5.762-0.078-8.632-0.283
			c-0.601-0.043-1.299-0.824-1.654-1.438c-0.267-0.459-0.06-1.199-0.06-1.812c0-30.569,0.03-61.14-0.059-91.707
			c-0.004-2.585,0.749-3.388,3.266-3.196c2.708,0.207,5.446,0.124,8.164,0.022c1.646-0.061,2.146,0.596,2.092,2.158
			c-0.086,2.632-0.041,5.269-0.017,7.905C246.746,97.391,246.865,98.133,247.005,99.68z"/>
		<path fill-rule="evenodd" clip-rule="evenodd" d="M212.107,184.895c-3.725,0-7.457,0.057-11.184-0.07
			c-0.471-0.014-1.029-0.926-1.324-1.531c-0.208-0.426-0.043-1.033-0.043-1.561c0-30.738-0.002-61.476-0.002-92.216
			c0-0.853,0-1.705,0-2.731c4.297,0,8.3,0,12.552,0C212.107,119.197,212.107,151.636,212.107,184.895z"/>
		<path fill-rule="evenodd" clip-rule="evenodd" d="M1142.843,86.771c4.148,0,8.159,0,12.383,0c0,32.549,0,65.091,0,98.187
			c-2.679,0-5.29,0.051-7.899-0.02c-1.471-0.039-2.932-0.283-4.483-0.441C1142.843,151.884,1142.843,119.408,1142.843,86.771z"/>
		<path fill-rule="evenodd" clip-rule="evenodd" d="M1326.497,68.424c4.213-5.949,8.104-11.438,11.99-16.93
			c2.18-3.082,4.312-6.2,6.566-9.225c0.516-0.692,1.443-1.51,2.194-1.527c5.957-0.124,11.915-0.067,18.515-0.067
			c-3.103,3.313-5.792,6.24-8.541,9.109c-5.527,5.773-11.053,11.553-16.678,17.232c-0.751,0.758-2.056,1.291-3.129,1.344
			C1333.998,68.531,1330.566,68.424,1326.497,68.424z"/>
		<path fill-rule="evenodd" clip-rule="evenodd" d="M205.917,46.209c5.844,0.007,10.542,4.695,10.527,10.507
			c-0.013,5.851-4.696,10.537-10.531,10.545c-5.914,0.007-10.585-4.789-10.53-10.812C195.43,50.892,200.253,46.206,205.917,46.209z"
			/>
		<path fill-rule="evenodd" clip-rule="evenodd" d="M1149.22,46.209c5.799,0.039,10.419,4.788,10.366,10.657
			c-0.049,5.803-4.793,10.424-10.672,10.391c-5.717-0.031-10.51-4.957-10.397-10.692
			C1138.625,50.792,1143.401,46.172,1149.22,46.209z"/>
	</g>
</g>
<g>
	<path fill-rule="evenodd" clip-rule="evenodd" d="M73.659,51.727c17.551,0.629,34.794,0.57,51.912,2.007
		c29.43,2.472,44.268,22.595,50.205,44.587c4.9,18.147,4.191,36.286-3.837,53.572c-7.523,16.202-19.562,27.416-37.611,30.72
		c-6.702,1.225-13.611,1.621-20.44,1.771c-12.737,0.281-25.483,0.105-38.227,0.111c-0.605,0-1.207-0.09-2.002-0.152
		C73.659,140.395,73.659,96.515,73.659,51.727z M98.732,76.654c0,27.869,0,55.5,0,83.934c9.397-0.605,18.591-0.896,27.714-1.858
		c10.428-1.103,17.39-7.36,21.99-16.468c4.991-9.888,5.333-20.447,4.167-31.154c-0.605-5.545-2.209-10.826-4.919-15.753
		c-4.409-8.008-10.956-13.335-19.671-16.092C118.461,76.244,108.677,76.383,98.732,76.654z"/>
	<path fill-rule="evenodd" clip-rule="evenodd" d="M700.49,144.508c6,6.253,11.576,12.065,17.245,17.971
		c-13.079,12.996-27.594,22.807-46.367,24.725c-14.099,1.441-27.997,0.807-41.096-5.074c-22.103-9.927-35.271-27.061-39.129-50.966
		c-2.384-14.756-1.215-29.321,5.309-43.023c9.299-19.53,25.063-31.681,45.678-36.712c29.292-7.15,54.436,1.163,75.173,22.963
		c0.301,0.315,0.54,0.684,0.941,1.199c-5.784,5.53-11.535,11.028-17.094,16.342c-4.649-3.615-8.868-7.521-13.661-10.503
		c-15.412-9.593-31.806-11.47-48.123-3.058c-18.181,9.37-26.416,27.191-23.326,48.007c4.177,28.117,30.746,42.297,57.475,35.794
		c10.02-2.439,17.786-8.521,25.085-15.376C699.231,146.202,699.716,145.452,700.49,144.508z"/>
</g>
<g>
	<path d="M302.315,263.709l-4.248,3.259c-2.344-3.051-5.158-5.364-8.441-6.939c-3.284-1.574-6.891-2.361-10.822-2.361
		c-4.297,0-8.276,1.031-11.938,3.094c-3.662,2.063-6.5,4.834-8.514,8.313c-2.015,3.479-3.021,7.392-3.021,11.737
		c0,6.567,2.252,12.048,6.757,16.442c4.504,4.395,10.186,6.592,17.047,6.592c7.544,0,13.855-2.954,18.933-8.862l4.248,3.223
		c-2.686,3.418-6.037,6.061-10.052,7.929c-4.017,1.867-8.502,2.802-13.458,2.802c-9.424,0-16.858-3.138-22.302-9.412
		c-4.565-5.298-6.848-11.694-6.848-19.189c0-7.886,2.765-14.521,8.294-19.903c5.53-5.384,12.457-8.075,20.783-8.075
		c5.029,0,9.57,0.995,13.623,2.984C296.407,257.331,299.728,260.12,302.315,263.709z"/>
	<path d="M314.835,267.737h5.237v5.822c1.562-2.294,3.21-4.01,4.944-5.145c1.733-1.136,3.54-1.703,5.42-1.703
		c1.416,0,2.93,0.452,4.541,1.355l-2.673,4.32c-1.075-0.463-1.978-0.695-2.71-0.695c-1.709,0-3.357,0.702-4.944,2.105
		c-1.587,1.404-2.796,3.583-3.625,6.537c-0.635,2.271-0.952,6.86-0.952,13.77v13.477h-5.237V267.737z"/>
	<path d="M377.38,294.36l4.321,2.271c-1.417,2.783-3.054,5.029-4.912,6.738s-3.947,3.009-6.268,3.899
		c-2.322,0.892-4.949,1.337-7.881,1.337c-6.5,0-11.583-2.13-15.248-6.391c-3.666-4.26-5.499-9.075-5.499-14.447
		c0-5.053,1.551-9.558,4.655-13.513c3.934-5.029,9.2-7.544,15.798-7.544c6.793,0,12.218,2.576,16.274,7.727
		c2.883,3.639,4.349,8.18,4.398,13.623h-35.852c0.097,4.629,1.577,8.422,4.437,11.382c2.86,2.959,6.392,4.438,10.596,4.438
		c2.029,0,4.002-0.352,5.921-1.058c1.918-0.705,3.55-1.642,4.895-2.809C374.361,298.848,375.815,296.963,377.38,294.36z
		 M377.38,283.631c-0.685-2.734-1.681-4.919-2.989-6.556c-1.308-1.635-3.037-2.953-5.188-3.955c-2.151-1-4.412-1.501-6.783-1.501
		c-3.911,0-7.272,1.258-10.083,3.772c-2.054,1.83-3.606,4.577-4.657,8.239H377.38z M365.039,249.061h7.874l-10.803,11.279h-5.054
		L365.039,249.061z"/>
	<path d="M436.775,267.737v39.844h-5.054v-6.848c-2.148,2.612-4.56,4.577-7.232,5.896c-2.674,1.318-5.598,1.978-8.771,1.978
		c-5.64,0-10.456-2.045-14.447-6.134c-3.992-4.089-5.988-9.063-5.988-14.923c0-5.737,2.014-10.645,6.042-14.723
		c4.028-4.076,8.875-6.115,14.539-6.115c3.271,0,6.231,0.695,8.88,2.088c2.649,1.391,4.975,3.479,6.977,6.262v-7.324H436.775z
		 M416.286,271.655c-2.853,0-5.487,0.702-7.901,2.104c-2.415,1.403-4.335,3.372-5.761,5.908c-1.427,2.536-2.14,5.219-2.14,8.047
		c0,2.806,0.719,5.487,2.158,8.048s3.372,4.554,5.798,5.98c2.426,1.427,5.029,2.14,7.81,2.14c2.805,0,5.462-0.707,7.975-2.121
		c2.511-1.415,4.444-3.329,5.797-5.743s2.03-5.133,2.03-8.157c0-4.608-1.518-8.462-4.554-11.559S420.724,271.655,416.286,271.655z"
		/>
	<path d="M457.278,252.942h5.127v14.795h8.13v4.432h-8.13v35.412h-5.127v-35.412h-6.995v-4.432h6.995V252.942z"/>
	<path d="M516.271,294.36l4.321,2.271c-1.417,2.783-3.054,5.029-4.912,6.738s-3.947,3.009-6.268,3.899
		c-2.322,0.892-4.949,1.337-7.881,1.337c-6.5,0-11.583-2.13-15.248-6.391c-3.666-4.26-5.499-9.075-5.499-14.447
		c0-5.053,1.551-9.558,4.655-13.513c3.934-5.029,9.2-7.544,15.798-7.544c6.793,0,12.218,2.576,16.274,7.727
		c2.883,3.639,4.349,8.18,4.398,13.623h-35.852c0.097,4.629,1.577,8.422,4.437,11.382c2.86,2.959,6.392,4.438,10.596,4.438
		c2.029,0,4.002-0.352,5.921-1.058c1.918-0.705,3.55-1.642,4.895-2.809C513.251,298.848,514.706,296.963,516.271,294.36z
		 M516.271,283.631c-0.685-2.734-1.681-4.919-2.989-6.556c-1.308-1.635-3.037-2.953-5.188-3.955c-2.151-1-4.412-1.501-6.783-1.501
		c-3.911,0-7.272,1.258-10.083,3.772c-2.054,1.83-3.606,4.577-4.657,8.239H516.271z"/>
	<path d="M535.309,267.737h5.127v18.604c0,4.541,0.244,7.666,0.733,9.375c0.734,2.441,2.133,4.37,4.2,5.786
		c2.065,1.416,4.529,2.124,7.39,2.124c2.86,0,5.287-0.689,7.28-2.069c1.993-1.379,3.368-3.191,4.126-5.438
		c0.513-1.537,0.77-4.797,0.77-9.777v-18.604h5.237v19.556c0,5.493-0.641,9.632-1.923,12.415c-1.281,2.783-3.21,4.962-5.786,6.536
		c-2.576,1.575-5.804,2.362-9.686,2.362s-7.123-0.787-9.723-2.362c-2.6-1.574-4.541-3.771-5.822-6.592
		c-1.282-2.819-1.923-7.062-1.923-12.726V267.737z"/>
	<path d="M584.121,267.737h5.237v5.822c1.562-2.294,3.21-4.01,4.944-5.145c1.733-1.136,3.54-1.703,5.42-1.703
		c1.416,0,2.93,0.452,4.541,1.355l-2.673,4.32c-1.075-0.463-1.978-0.695-2.71-0.695c-1.709,0-3.357,0.702-4.944,2.105
		c-1.587,1.404-2.796,3.583-3.625,6.537c-0.635,2.271-0.952,6.86-0.952,13.77v13.477h-5.237V267.737z"/>
	<path d="M678.155,252.356v55.225h-5.054v-6.848c-2.148,2.612-4.56,4.577-7.232,5.896c-2.674,1.318-5.598,1.978-8.771,1.978
		c-5.64,0-10.456-2.045-14.447-6.134c-3.992-4.089-5.988-9.063-5.988-14.923c0-5.737,2.014-10.645,6.042-14.723
		c4.028-4.076,8.875-6.115,14.539-6.115c3.271,0,6.231,0.695,8.88,2.088c2.649,1.391,4.975,3.479,6.977,6.262v-22.705H678.155z
		 M657.666,271.655c-2.853,0-5.487,0.702-7.901,2.104c-2.415,1.403-4.335,3.372-5.761,5.908c-1.427,2.536-2.14,5.219-2.14,8.047
		c0,2.806,0.719,5.487,2.158,8.048s3.372,4.554,5.798,5.98c2.426,1.427,5.029,2.14,7.81,2.14c2.805,0,5.462-0.707,7.975-2.121
		c2.511-1.415,4.444-3.329,5.797-5.743s2.03-5.133,2.03-8.157c0-4.608-1.518-8.462-4.554-11.559S662.104,271.655,657.666,271.655z"
		/>
	<path d="M727.809,294.36l4.321,2.271c-1.417,2.783-3.054,5.029-4.912,6.738s-3.947,3.009-6.268,3.899
		c-2.322,0.892-4.949,1.337-7.881,1.337c-6.5,0-11.583-2.13-15.248-6.391c-3.666-4.26-5.499-9.075-5.499-14.447
		c0-5.053,1.551-9.558,4.655-13.513c3.934-5.029,9.2-7.544,15.798-7.544c6.793,0,12.218,2.576,16.274,7.727
		c2.883,3.639,4.349,8.18,4.398,13.623h-35.852c0.097,4.629,1.577,8.422,4.437,11.382c2.86,2.959,6.392,4.438,10.596,4.438
		c2.029,0,4.002-0.352,5.921-1.058c1.918-0.705,3.55-1.642,4.895-2.809C724.79,298.848,726.244,296.963,727.809,294.36z
		 M727.809,283.631c-0.685-2.734-1.681-4.919-2.989-6.556c-1.308-1.635-3.037-2.953-5.188-3.955c-2.151-1-4.412-1.501-6.783-1.501
		c-3.911,0-7.272,1.258-10.083,3.772c-2.054,1.83-3.606,4.577-4.657,8.239H727.809z"/>
	<path d="M811.443,276.014l-4.064,2.526c-3.512-4.662-8.305-6.994-14.377-6.994c-4.853,0-8.882,1.561-12.088,4.683
		c-3.207,3.121-4.81,6.913-4.81,11.376c0,2.902,0.738,5.634,2.213,8.193c1.475,2.561,3.5,4.548,6.072,5.963
		c2.572,1.414,5.456,2.121,8.65,2.121c5.852,0,10.633-2.331,14.34-6.994l4.064,2.674c-1.904,2.867-4.463,5.092-7.672,6.673
		c-3.211,1.581-6.867,2.372-10.969,2.372c-6.299,0-11.523-2.002-15.674-6.006c-4.151-4.004-6.226-8.874-6.226-14.611
		c0-3.857,0.97-7.44,2.912-10.749c1.94-3.308,4.608-5.89,8.001-7.745s7.19-2.783,11.389-2.783c2.637,0,5.182,0.402,7.637,1.209
		c2.453,0.805,4.533,1.855,6.244,3.148C808.792,272.364,810.246,274.012,811.443,276.014z"/>
	<path d="M825.793,252.356h5.127v22.521c2.075-2.733,4.357-4.778,6.848-6.134c2.49-1.354,5.188-2.032,8.094-2.032
		c2.979,0,5.621,0.757,7.929,2.271c2.307,1.514,4.01,3.547,5.108,6.098s1.648,6.549,1.648,11.993v20.508h-5.127v-19.006
		c0-4.59-0.184-7.654-0.55-9.192c-0.635-2.637-1.789-4.62-3.461-5.951c-1.672-1.33-3.863-1.995-6.573-1.995
		c-3.101,0-5.878,1.025-8.331,3.076c-2.454,2.051-4.071,4.59-4.853,7.617c-0.488,1.953-0.732,5.566-0.732,10.84v14.611h-5.127
		V252.356z"/>
	<path d="M909.578,294.36l4.321,2.271c-1.417,2.783-3.055,5.029-4.912,6.738s-3.946,3.009-6.268,3.899
		c-2.322,0.892-4.949,1.337-7.881,1.337c-6.5,0-11.583-2.13-15.248-6.391c-3.666-4.26-5.499-9.075-5.499-14.447
		c0-5.053,1.552-9.558,4.655-13.513c3.934-5.029,9.2-7.544,15.798-7.544c6.793,0,12.218,2.576,16.274,7.727
		c2.883,3.639,4.35,8.18,4.398,13.623h-35.853c0.098,4.629,1.577,8.422,4.437,11.382c2.86,2.959,6.393,4.438,10.597,4.438
		c2.028,0,4.002-0.352,5.922-1.058c1.918-0.705,3.55-1.642,4.895-2.809C906.559,298.848,908.013,296.963,909.578,294.36z
		 M909.578,283.631c-0.685-2.734-1.681-4.919-2.988-6.556c-1.309-1.635-3.038-2.953-5.188-3.955c-2.151-1-4.412-1.501-6.783-1.501
		c-3.911,0-7.272,1.258-10.083,3.772c-2.054,1.83-3.606,4.577-4.656,8.239H909.578z"/>
	<path d="M929.239,267.737h5.127v6.885c1.784-2.539,3.617-4.395,5.5-5.566c2.591-1.562,5.316-2.344,8.176-2.344
		c1.931,0,3.764,0.379,5.499,1.135c1.735,0.758,3.153,1.765,4.254,3.021c1.1,1.258,2.053,3.059,2.859,5.402
		c1.705-3.125,3.836-5.499,6.394-7.123s5.31-2.436,8.257-2.436c2.752,0,5.182,0.695,7.288,2.088
		c2.107,1.391,3.672,3.332,4.695,5.822c1.022,2.49,1.534,6.226,1.534,11.206v21.753h-5.237v-21.753c0-4.272-0.304-7.208-0.912-8.808
		c-0.608-1.599-1.648-2.887-3.121-3.863c-1.472-0.977-3.229-1.465-5.273-1.465c-2.482,0-4.751,0.732-6.808,2.197
		s-3.56,3.418-4.508,5.859c-0.949,2.441-1.423,6.519-1.423,12.231v15.601h-5.127v-20.398c0-4.809-0.3-8.074-0.897-9.796
		c-0.599-1.721-1.643-3.1-3.132-4.138s-3.259-1.557-5.31-1.557c-2.368,0-4.584,0.714-6.646,2.143
		c-2.063,1.428-3.589,3.351-4.578,5.768c-0.988,2.417-1.483,6.115-1.483,11.096v16.883h-5.127V267.737z"/>
	<path d="M1005.901,251.331c1.166,0,2.163,0.415,2.989,1.245s1.24,1.831,1.24,3.003c0,1.147-0.414,2.137-1.24,2.967
		s-1.823,1.244-2.989,1.244c-1.143,0-2.128-0.414-2.954-1.244s-1.239-1.819-1.239-2.967c0-1.172,0.413-2.173,1.239-3.003
		S1004.758,251.331,1005.901,251.331z M1003.355,267.737h5.127v39.844h-5.127V267.737z"/>
	<path d="M1023.64,267.737h5.127v7.141c2.051-2.733,4.321-4.778,6.812-6.134c2.49-1.354,5.2-2.032,8.13-2.032
		c2.979,0,5.621,0.757,7.929,2.271c2.307,1.514,4.01,3.552,5.108,6.116c1.099,2.562,1.648,6.555,1.648,11.975v20.508h-5.127v-19.006
		c0-4.59-0.191-7.654-0.571-9.192c-0.594-2.637-1.733-4.62-3.418-5.951c-1.685-1.33-3.883-1.995-6.593-1.995
		c-3.101,0-5.879,1.025-8.333,3.076s-4.071,4.59-4.853,7.617c-0.488,1.977-0.732,5.591-0.732,10.84v14.611h-5.127V267.737z"/>
	<path d="M1107.424,294.36l4.321,2.271c-1.417,2.783-3.055,5.029-4.912,6.738s-3.946,3.009-6.268,3.899
		c-2.322,0.892-4.949,1.337-7.881,1.337c-6.5,0-11.583-2.13-15.248-6.391c-3.666-4.26-5.499-9.075-5.499-14.447
		c0-5.053,1.552-9.558,4.655-13.513c3.934-5.029,9.2-7.544,15.798-7.544c6.793,0,12.218,2.576,16.274,7.727
		c2.883,3.639,4.35,8.18,4.398,13.623h-35.853c0.098,4.629,1.577,8.422,4.437,11.382c2.86,2.959,6.393,4.438,10.597,4.438
		c2.028,0,4.002-0.352,5.922-1.058c1.918-0.705,3.55-1.642,4.895-2.809C1104.406,298.848,1105.86,296.963,1107.424,294.36z
		 M1107.424,283.631c-0.685-2.734-1.681-4.919-2.988-6.556c-1.309-1.635-3.038-2.953-5.188-3.955c-2.151-1-4.412-1.501-6.783-1.501
		c-3.911,0-7.272,1.258-10.083,3.772c-2.054,1.83-3.606,4.577-4.656,8.239H1107.424z M1095.083,249.061h7.874l-10.804,11.279h-5.053
		L1095.083,249.061z"/>
	<path d="M1160.667,294.36l4.321,2.271c-1.417,2.783-3.055,5.029-4.912,6.738s-3.946,3.009-6.268,3.899
		c-2.322,0.892-4.949,1.337-7.881,1.337c-6.5,0-11.583-2.13-15.248-6.391c-3.666-4.26-5.499-9.075-5.499-14.447
		c0-5.053,1.552-9.558,4.655-13.513c3.934-5.029,9.2-7.544,15.798-7.544c6.793,0,12.218,2.576,16.274,7.727
		c2.883,3.639,4.35,8.18,4.398,13.623h-35.853c0.098,4.629,1.577,8.422,4.437,11.382c2.86,2.959,6.393,4.438,10.597,4.438
		c2.028,0,4.002-0.352,5.922-1.058c1.918-0.705,3.55-1.642,4.895-2.809C1157.649,298.848,1159.103,296.963,1160.667,294.36z
		 M1160.667,283.631c-0.685-2.734-1.681-4.919-2.988-6.556c-1.309-1.635-3.038-2.953-5.188-3.955c-2.151-1-4.412-1.501-6.783-1.501
		c-3.911,0-7.272,1.258-10.083,3.772c-2.054,1.83-3.606,4.577-4.656,8.239H1160.667z"/>
	<path d="M1200.396,272.095l-3.295,3.406c-2.742-2.661-5.423-3.992-8.041-3.992c-1.665,0-3.091,0.55-4.278,1.648
		c-1.187,1.099-1.78,2.381-1.78,3.846c0,1.294,0.489,2.526,1.468,3.698c0.979,1.196,3.034,2.601,6.165,4.212
		c3.817,1.977,6.41,3.881,7.78,5.713c1.346,1.855,2.019,3.942,2.019,6.262c0,3.271-1.149,6.043-3.448,8.312
		c-2.299,2.271-5.172,3.406-8.618,3.406c-2.3,0-4.494-0.501-6.584-1.502c-2.091-1-3.82-2.38-5.189-4.138l3.223-3.662
		c2.618,2.954,5.396,4.431,8.332,4.431c2.056,0,3.805-0.658,5.249-1.977c1.443-1.318,2.165-2.869,2.165-4.651
		c0-1.465-0.477-2.771-1.431-3.919c-0.954-1.122-3.107-2.538-6.459-4.248c-3.597-1.854-6.044-3.686-7.34-5.492
		c-1.297-1.807-1.945-3.87-1.945-6.189c0-3.027,1.033-5.542,3.1-7.544s4.677-3.003,7.832-3.003
		C1192.987,266.712,1196.679,268.507,1200.396,272.095z"/>
	<path d="M1240.231,253.712h10.621c4.271,0,7.556,0.507,9.851,1.52s4.107,2.569,5.438,4.669c1.33,2.1,1.996,4.431,1.996,6.995
		c0,2.393-0.584,4.571-1.75,6.536c-1.166,1.966-2.879,3.559-5.138,4.779c2.799,0.952,4.952,2.069,6.462,3.351
		c1.509,1.282,2.684,2.833,3.523,4.651s1.26,3.79,1.26,5.914c0,4.321-1.581,7.978-4.742,10.968
		c-3.162,2.991-7.404,4.486-12.727,4.486h-14.795V253.712z M1245.504,258.985v17.248h3.083c3.743,0,6.496-0.348,8.258-1.044
		c1.761-0.695,3.156-1.794,4.184-3.296c1.027-1.501,1.542-3.168,1.542-4.998c0-2.466-0.863-4.4-2.588-5.805
		s-4.472-2.105-8.239-2.105H1245.504z M1245.504,281.653v20.654h6.677c3.938,0,6.823-0.385,8.657-1.153
		c1.834-0.77,3.308-1.972,4.421-3.607c1.112-1.636,1.669-3.405,1.669-5.31c0-2.393-0.782-4.48-2.347-6.263s-3.715-3.003-6.452-3.662
		c-1.835-0.439-5.028-0.659-9.579-0.659H1245.504z"/>
	<path d="M1288.585,251.331c1.166,0,2.163,0.415,2.989,1.245s1.24,1.831,1.24,3.003c0,1.147-0.414,2.137-1.24,2.967
		s-1.823,1.244-2.989,1.244c-1.143,0-2.128-0.414-2.954-1.244s-1.239-1.819-1.239-2.967c0-1.172,0.413-2.173,1.239-3.003
		S1287.443,251.331,1288.585,251.331z M1286.04,267.737h5.127v39.844h-5.127V267.737z"/>
	<path d="M1325.183,266.712c6.139,0,11.226,2.222,15.262,6.665c3.668,4.053,5.503,8.851,5.503,14.392
		c0,5.566-1.938,10.432-5.814,14.594c-3.877,4.163-8.86,6.244-14.95,6.244c-6.114,0-11.109-2.081-14.985-6.244
		c-3.877-4.162-5.815-9.027-5.815-14.594c0-5.517,1.834-10.302,5.503-14.355C1313.92,268.946,1319.02,266.712,1325.183,266.712z
		 M1325.166,271.729c-4.263,0-7.927,1.574-10.989,4.724s-4.593,6.958-4.593,11.426c0,2.881,0.697,5.566,2.095,8.057
		c1.396,2.49,3.282,4.413,5.659,5.768c2.377,1.355,4.985,2.032,7.828,2.032c2.842,0,5.45-0.677,7.827-2.032
		c2.377-1.354,4.264-3.277,5.66-5.768s2.095-5.176,2.095-8.057c0-4.468-1.537-8.276-4.612-11.426S1329.404,271.729,1325.166,271.729
		z"/>
</g>
</svg>
