<?xml version="1.0" encoding="UTF-8" standalone="no"?>
<svg width="1873px" height="512px" viewBox="0 0 1873 512" version="1.1" xmlns="http://www.w3.org/2000/svg" xmlns:xlink="http://www.w3.org/1999/xlink">
    <!-- Generator: Sketch 3.6.1 (26313) - http://www.bohemiancoding.com/sketch -->
    <title>Discord (6)</title>
    <desc>Created with Sketch.</desc>
    <defs></defs>
    <g id="Page-1" stroke="none" stroke-width="1" fill="none" fill-rule="evenodd">
        <g id="Discord-(6)" fill="#FFFFFF">
            <g id="Page-1">
                <g id="Discord-(6)">
                    <path d="M273.545071,214.975496 C258.838173,214.975496 247.227465,227.618268 247.227465,243.357228 C247.227465,259.096189 259.096189,271.738961 273.545071,271.738961 C288.251969,271.738961 299.862677,259.096189 299.862677,243.357228 C299.862677,227.618268 287.993953,214.975496 273.545071,214.975496 L273.545071,214.975496 L273.545071,214.975496 Z M179.369323,214.975496 C164.662425,214.975496 153.051717,227.618268 153.051717,243.357228 C153.051717,259.096189 164.920441,271.738961 179.369323,271.738961 C194.07622,271.738961 205.686929,259.096189 205.686929,243.357228 C205.944945,227.618268 194.07622,214.975496 179.369323,214.975496 L179.369323,214.975496 L179.369323,214.975496 Z" id="Shape"></path>
                    <path d="M398.940724,0.306393701 L53.199622,0.306393701 C24.0438425,0.306393701 0.306393701,24.0438425 0.306393701,53.199622 L0.306393701,398.940724 C0.306393701,428.096504 24.0438425,451.833953 53.199622,451.833953 L345.78948,451.833953 L332.114646,404.617071 L365.140661,435.062929 L396.360567,463.702677 L452.091969,511.951622 L452.091969,53.199622 C451.833953,24.0438425 428.096504,0.306393701 398.940724,0.306393701 L398.940724,0.306393701 L398.940724,0.306393701 Z M282.317606,313.795528 C316.117669,304.248945 329.018457,283.349669 329.018457,283.349669 C318.439811,290.316094 308.377197,295.218394 299.346646,298.572598 C286.445858,303.990929 274.061102,307.345134 261.934362,309.667276 C237.16485,314.311559 214.459465,313.02148 195.108283,309.40926 C180.401386,306.571087 167.758614,302.70085 157.179969,298.314583 C151.245606,295.992441 144.795213,293.154268 138.344819,289.542047 C137.570772,289.026016 136.796724,288.768 136.022677,288.251969 C135.506646,287.993953 135.24863,287.735937 134.990614,287.735937 C130.346331,285.15578 127.766173,283.349669 127.766173,283.349669 C127.766173,283.349669 140.150929,303.732913 172.918929,313.537512 C165.178457,323.34211 155.631874,334.694803 155.631874,334.694803 C98.6103937,332.888693 76.9370709,295.734425 76.9370709,295.734425 C76.9370709,213.427402 114.091339,146.601323 114.091339,146.601323 C151.245606,118.993638 186.335748,119.767685 186.335748,119.767685 L188.915906,122.863874 C142.473071,136.022677 121.31578,156.405921 121.31578,156.405921 C121.31578,156.405921 126.992126,153.309732 136.538709,149.18148 C164.146394,137.05474 186.077732,133.958551 195.108283,132.926488 C196.656378,132.668472 197.946457,132.410457 199.494551,132.410457 C215.233512,130.346331 233.036598,129.830299 251.613732,131.894425 C276.125228,134.732598 302.442835,141.957039 329.276472,156.405921 C329.276472,156.405921 308.893228,137.05474 265.030551,123.895937 L268.642772,119.767685 C268.642772,119.767685 303.990929,118.993638 340.887181,146.601323 C340.887181,146.601323 378.041449,213.427402 378.041449,295.734425 C378.041449,295.476409 356.368126,332.630677 299.346646,334.436787 C299.346646,334.436787 290.058079,323.34211 282.317606,313.795528 Z M688.950425,110.737134 L603.289197,110.737134 L603.289197,206.977008 L660.310677,258.322142 L660.310677,164.920441 L690.756535,164.920441 C710.107717,164.920441 719.654299,174.209008 719.654299,189.173921 L719.654299,260.644283 C719.654299,275.609197 710.623748,285.671811 690.756535,285.671811 L603.031181,285.671811 L603.031181,340.113134 L688.692409,340.113134 C734.619213,340.37115 777.707843,317.407748 777.707843,264.772535 L777.707843,187.883843 C777.965858,134.216567 734.877228,110.737134 688.950425,110.737134 L688.950425,110.737134 L688.950425,110.737134 Z M1137.89783,264.772535 L1137.89783,185.819717 C1137.89783,157.437984 1188.98494,150.987591 1204.46589,179.369323 L1251.68277,160.276157 C1233.10564,119.509669 1199.30557,107.640945 1171.18186,107.640945 C1125.25506,107.640945 1079.84428,134.216567 1079.84428,185.819717 L1079.84428,264.772535 C1079.84428,316.891717 1125.25506,342.951307 1170.1498,342.951307 C1199.04756,342.951307 1233.62167,328.760441 1252.71483,291.606173 L1202.14375,268.384756 C1189.75899,300.120693 1137.89783,292.38022 1137.89783,264.772535 L1137.89783,264.772535 L1137.89783,264.772535 Z M981.798299,196.656378 C963.995213,192.786142 952.126488,186.335748 951.352441,175.241071 C952.384504,148.665449 993.409008,147.633386 1017.40447,173.176945 L1055.33279,144.021165 C1031.59534,115.123402 1004.7617,107.382929 977.154016,107.382929 C935.097449,107.382929 894.330961,131.120378 894.330961,176.015118 C894.330961,219.61978 927.873008,243.099213 964.76926,248.775559 C983.604409,251.355717 1004.50369,258.838173 1003.98765,271.738961 C1002.43956,296.250457 951.868472,294.960378 928.905071,267.094677 L892.266835,301.410772 C913.682142,329.018457 942.837921,342.951307 970.187591,342.951307 C1012.24416,342.951307 1058.94501,318.697827 1060.75112,274.319118 C1063.33128,218.329701 1022.56479,204.138835 981.798299,196.656378 L981.798299,196.656378 L981.798299,196.656378 Z M808.927748,339.855118 L866.723276,339.855118 L866.723276,110.737134 L808.927748,110.737134 L808.927748,339.855118 L808.927748,339.855118 L808.927748,339.855118 Z M1783.45323,110.737134 L1697.792,110.737134 L1697.792,206.977008 L1754.81348,258.322142 L1754.81348,164.920441 L1785.25934,164.920441 C1804.61052,164.920441 1814.1571,174.209008 1814.1571,189.173921 L1814.1571,260.644283 C1814.1571,275.609197 1805.12655,285.671811 1785.25934,285.671811 L1697.53398,285.671811 L1697.53398,340.113134 L1783.45323,340.113134 C1829.38003,340.37115 1872.46866,317.407748 1872.46866,264.772535 L1872.46866,187.883843 C1872.46866,134.216567 1829.38003,110.737134 1783.45323,110.737134 L1783.45323,110.737134 L1783.45323,110.737134 Z M1363.14557,107.640945 C1315.67068,107.640945 1268.4538,133.44252 1268.4538,186.335748 L1268.4538,264.51452 C1268.4538,316.891717 1315.92869,343.209323 1363.66161,343.209323 C1411.1365,343.209323 1458.35339,316.891717 1458.35339,264.51452 L1458.35339,186.335748 C1458.35339,133.700535 1410.62047,107.640945 1363.14557,107.640945 L1363.14557,107.640945 L1363.14557,107.640945 Z M1400.29984,264.51452 C1400.29984,281.027528 1381.72271,289.542047 1363.40359,289.542047 C1344.82646,289.542047 1326.24932,281.543559 1326.24932,264.51452 L1326.24932,186.335748 C1326.24932,169.564724 1344.31043,160.534173 1362.37153,160.534173 C1381.20668,160.534173 1400.29984,168.532661 1400.29984,186.335748 L1400.29984,264.51452 L1400.29984,264.51452 L1400.29984,264.51452 Z M1665.79805,186.335748 C1664.50797,132.668472 1627.86973,110.99515 1580.65285,110.99515 L1489.05726,110.99515 L1489.05726,340.113134 L1547.62683,340.113134 L1547.62683,267.352693 L1557.94746,267.352693 L1611.09871,340.113134 L1683.34312,340.113134 L1620.90331,261.418331 C1648.51099,252.645795 1665.79805,228.650331 1665.79805,186.335748 L1665.79805,186.335748 L1665.79805,186.335748 Z M1581.68491,217.297638 L1547.62683,217.297638 L1547.62683,164.920441 L1581.68491,164.920441 C1618.06513,164.920441 1618.06513,217.297638 1581.68491,217.297638 L1581.68491,217.297638 L1581.68491,217.297638 Z" id="Shape"></path>
                </g>
            </g>
        </g>
    </g>
</svg>