<?xml version="1.0" encoding="UTF-8" standalone="no"?>
<svg width="175px" height="200px" viewBox="0 0 175 200" version="1.1" xmlns="http://www.w3.org/2000/svg" xmlns:xlink="http://www.w3.org/1999/xlink">
    <!-- Generator: Sketch 3.6.1 (26313) - http://www.bohemiancoding.com/sketch -->
    <title>Discord (10)</title>
    <desc>Created with Sketch.</desc>
    <defs></defs>
    <g id="Page-1" stroke="none" stroke-width="1" fill="none" fill-rule="evenodd">
        <g id="Discord-(10)" fill="#000000">
            <path d="M69.4,83.9 C63.7,83.9 59.2,88.9 59.2,95 C59.2,101.1 63.8,106.1 69.4,106.1 C75.1,106.1 79.6,101.1 79.6,95 C79.7,88.9 75.1,83.9 69.4,83.9 L69.4,83.9 Z M105.9,83.9 C100.2,83.9 95.7,88.9 95.7,95 C95.7,101.1 100.3,106.1 105.9,106.1 C111.6,106.1 116.1,101.1 116.1,95 C116.1,88.9 111.6,83.9 105.9,83.9 L105.9,83.9 Z" id="Shape"></path>
            <path d="M154.5,0 L20.5,0 C9.2,0 0,9.2 0,20.6 L0,155.8 C0,167.2 9.2,176.4 20.5,176.4 L133.9,176.4 L128.6,157.9 L141.4,169.8 L153.5,181 L175,200 L175,20.6 C175,9.2 165.8,0 154.5,0 L154.5,0 Z M109.3,122.5 C122.4,118.8 127.4,110.6 127.4,110.6 C123.3,113.3 119.4,115.2 115.9,116.5 C110.9,118.6 106.1,120 101.4,120.8 C91.8,122.6 83,122.1 75.5,120.7 C69.8,119.6 64.9,118 60.8,116.4 C58.5,115.5 56,114.4 53.5,113 C53.2,112.8 52.9,112.7 52.6,112.5 C52.4,112.4 52.3,112.3 52.2,112.2 C50.4,111.2 49.4,110.5 49.4,110.5 C49.4,110.5 54.2,118.5 66.9,122.3 C63.9,126.1 60.2,130.6 60.2,130.6 C38.1,129.9 29.7,115.4 29.7,115.4 C29.7,83.2 44.1,57.1 44.1,57.1 C58.5,46.3 72.2,46.6 72.2,46.6 L73.2,47.8 C55.2,53 46.9,60.9 46.9,60.9 C46.9,60.9 49.1,59.7 52.8,58 C63.5,53.3 72,52 75.5,51.7 C76.1,51.6 76.6,51.5 77.2,51.5 C83.3,50.7 90.2,50.5 97.4,51.3 C106.9,52.4 117.1,55.2 127.5,60.9 C127.5,60.9 119.6,53.4 102.6,48.2 L104,46.6 C104,46.6 117.7,46.3 132.1,57.1 C132.1,57.1 146.5,83.2 146.5,115.4 C146.5,115.4 138,129.9 115.9,130.6 C115.9,130.6 112.3,126.3 109.3,122.5 Z" id="Shape"></path>
        </g>
    </g>
</svg>