<?xml version="1.0" encoding="UTF-8" standalone="no"?>
<svg width="1858px" height="508px" viewBox="0 0 1858 508" version="1.1" xmlns="http://www.w3.org/2000/svg" xmlns:xlink="http://www.w3.org/1999/xlink">
    <!-- Generator: Sketch 3.6.1 (26313) - http://www.bohemiancoding.com/sketch -->
    <title>Discord (3)</title>
    <desc>Created with Sketch.</desc>
    <defs></defs>
    <g id="Page-1" stroke="none" stroke-width="1" fill="none" fill-rule="evenodd">
        <g id="Discord-(3)" transform="translate(-2.000000, -2.000000)" fill="#000000">
            <path d="M273.408,215.296 C258.816,215.296 247.296,227.84 247.296,243.456 C247.296,259.072 259.072,271.616 273.408,271.616 C288,271.616 299.52,259.072 299.52,243.456 C299.52,227.84 287.744,215.296 273.408,215.296 L273.408,215.296 Z M179.968,215.296 C165.376,215.296 153.856,227.84 153.856,243.456 C153.856,259.072 165.632,271.616 179.968,271.616 C194.56,271.616 206.08,259.072 206.08,243.456 C206.336,227.84 194.56,215.296 179.968,215.296 L179.968,215.296 Z" id="Shape"></path>
            <path d="M397.824,2.304 L54.784,2.304 C25.856,2.304 2.304,25.856 2.304,54.784 L2.304,397.824 C2.304,426.752 25.856,450.304 54.784,450.304 L345.088,450.304 L331.52,403.456 L364.288,433.664 L395.264,462.08 L450.56,509.952 L450.56,54.784 C450.304,25.856 426.752,2.304 397.824,2.304 L397.824,2.304 Z M282.112,313.344 C315.648,303.872 328.448,283.136 328.448,283.136 C317.952,290.048 307.968,294.912 299.008,298.24 C286.208,303.616 273.92,306.944 261.888,309.248 C237.312,313.856 214.784,312.576 195.584,308.992 C180.992,306.176 168.448,302.336 157.952,297.984 C152.064,295.68 145.664,292.864 139.264,289.28 C138.496,288.768 137.728,288.512 136.96,288 C136.448,287.744 136.192,287.488 135.936,287.488 C131.328,284.928 128.768,283.136 128.768,283.136 C128.768,283.136 141.056,303.36 173.568,313.088 C165.888,322.816 156.416,334.08 156.416,334.08 C99.84,332.288 78.336,295.424 78.336,295.424 C78.336,213.76 115.2,147.456 115.2,147.456 C152.064,120.064 186.88,120.832 186.88,120.832 L189.44,123.904 C143.36,136.96 122.368,157.184 122.368,157.184 C122.368,157.184 128,154.112 137.472,150.016 C164.864,137.984 186.624,134.912 195.584,133.888 C197.12,133.632 198.4,133.376 199.936,133.376 C215.552,131.328 233.216,130.816 251.648,132.864 C275.968,135.68 302.08,142.848 328.704,157.184 C328.704,157.184 308.48,137.984 264.96,124.928 L268.544,120.832 C268.544008,120.831999 318.510607,131.208916 340.224,147.456 C340.224,147.456 377.088,213.76 377.088,295.424 C377.088,295.168 355.584,332.032 299.008,333.824 C299.008,333.824 289.792,322.816 282.112,313.344 Z M685.568,111.872 L600.576,111.872 L600.576,207.36 L657.152,258.304 L657.152,165.632 L687.36,165.632 C706.56,165.632 716.032,174.848 716.032,189.696 L716.032,260.608 C716.032,275.456 707.072,285.44 687.36,285.44 L600.32,285.44 L600.32,339.456 L685.312,339.456 C730.88,339.712 773.632,316.928 773.632,264.704 L773.632,188.416 C773.888,135.168 731.136,111.872 685.568,111.872 L685.568,111.872 Z M1131.008,264.704 L1131.008,186.368 C1131.008,158.208 1181.696,151.808 1197.056,179.968 L1243.904,161.024 C1225.472,120.576 1191.936,108.8 1164.032,108.8 C1118.464,108.8 1073.408,135.168 1073.408,186.368 L1073.408,264.704 C1073.408,316.416 1118.464,342.272 1163.008,342.272 C1191.68,342.272 1225.984,328.192 1244.928,291.328 L1194.752,268.288 C1182.464,299.776 1131.008,292.096 1131.008,264.704 L1131.008,264.704 Z M976.128,197.12 C958.464,193.28 946.688,186.88 945.92,175.872 C946.944,149.504 987.648,148.48 1011.456,173.824 L1049.088,144.896 C1025.536,116.224 998.912,108.544 971.52,108.544 C929.792,108.544 889.344,132.096 889.344,176.64 C889.344,219.904 922.624,243.2 959.232,248.832 C977.92,251.392 998.656,258.816 998.144,271.616 C996.608,295.936 946.432,294.656 923.648,267.008 L887.296,301.056 C908.544,328.448 937.472,342.272 964.608,342.272 C1006.336,342.272 1052.672,318.208 1054.464,274.176 C1057.024,218.624 1016.576,204.544 976.128,197.12 L976.128,197.12 Z M804.608,339.2 L861.952,339.2 L861.952,111.872 L804.608,111.872 L804.608,339.2 L804.608,339.2 Z M1771.52,111.872 L1686.528,111.872 L1686.528,207.36 L1743.104,258.304 L1743.104,165.632 L1773.312,165.632 C1792.512,165.632 1801.984,174.848 1801.984,189.696 L1801.984,260.608 C1801.984,275.456 1793.024,285.44 1773.312,285.44 L1686.272,285.44 L1686.272,339.456 L1771.52,339.456 C1817.088,339.712 1859.84,316.928 1859.84,264.704 L1859.84,188.416 C1859.84,135.168 1817.088,111.872 1771.52,111.872 L1771.52,111.872 Z M1354.496,108.8 C1307.392,108.8 1260.544,134.4 1260.544,186.88 L1260.544,264.448 C1260.544,316.416 1307.648,342.528 1355.008,342.528 C1402.112,342.528 1448.96,316.416 1448.96,264.448 L1448.96,186.88 C1448.96,134.656 1401.6,108.8 1354.496,108.8 L1354.496,108.8 Z M1391.36,264.448 C1391.36,280.832 1372.928,289.28 1354.752,289.28 C1336.32,289.28 1317.888,281.344 1317.888,264.448 L1317.888,186.88 C1317.888,170.24 1335.808,161.28 1353.728,161.28 C1372.416,161.28 1391.36,169.216 1391.36,186.88 L1391.36,264.448 L1391.36,264.448 Z M1654.784,186.88 C1653.504,133.632 1617.152,112.128 1570.304,112.128 L1479.424,112.128 L1479.424,339.456 L1537.536,339.456 L1537.536,267.264 L1547.776,267.264 L1600.512,339.456 L1672.192,339.456 L1610.24,261.376 C1637.632,252.672 1654.784,228.864 1654.784,186.88 L1654.784,186.88 Z M1571.328,217.6 L1537.536,217.6 L1537.536,165.632 L1571.328,165.632 C1607.424,165.632 1607.424,217.6 1571.328,217.6 L1571.328,217.6 Z" id="Shape"></path>
        </g>
    </g>
</svg>