<?xml version="1.0" encoding="UTF-8" standalone="no"?>
<!-- Created with Inkscape (http://www.inkscape.org/) -->
<svg
   xmlns:svg="http://www.w3.org/2000/svg"
   xmlns="http://www.w3.org/2000/svg"
   version="1.0"
   width="220.42091"
   height="129.53049"
   id="svg2">
  <defs
     id="defs4" />
  <g
     transform="translate(-157.0333,-416.16316)"
     id="layer1">
    <rect
       width="28.947039"
       height="28.947039"
       x="101.24679"
       y="487.09406"
       transform="matrix(0.943188,-0.3322594,0.3322594,0.943188,0,0)"
       id="rect2453"
       style="opacity:1;fill:#000000;fill-opacity:1;stroke:none;stroke-width:0.2;stroke-miterlimit:4;stroke-dasharray:none" />
    <rect
       width="26.263966"
       height="60.356613"
       x="259.35666"
       y="462.43311"
       id="rect2455"
       style="opacity:1;fill:#000000;fill-opacity:1;stroke:none;stroke-width:0.2;stroke-miterlimit:4;stroke-dasharray:none" />
    <path
       d="M 222.99117,467.7364 L 222.99117,441.72497 L 255.31606,441.72497 L 255.31606,522.78971 L 222.99117,522.78971 L 222.99117,516.22372 C 216.3805,520.65771 208.71461,522.45363 200.76782,523.54732 C 197.67697,524.06623 195.70262,524.00068 191.67645,523.79986 C 175.84914,522.42603 163.10139,517.63005 157.5838,498.54605 C 156.8834,494.75798 156.81696,490.9699 157.5838,487.18183 C 160.81989,472.27776 171.2777,462.61298 191.67645,460.16025 C 195.29616,459.95954 198.91588,459.77816 202.53559,460.16025 C 211.03597,461.31056 217.70223,463.97125 222.99134,467.73815 L 212.38731,478.58996 C 209.33008,477.75482 205.80126,478.11645 202.28305,478.59554 C 194.63052,481.07481 191.73238,482.64044 189.90868,487.43437 C 188.9745,490.46483 188.93824,493.49528 189.90868,496.52574 C 191.80865,501.84208 196.3143,504.35229 201.27289,506.37473 C 204.30335,506.89818 207.33381,507.03825 210.36427,506.37473 C 216.7035,504.47853 220.43915,501.0508 222.73864,496.77828 C 223.63565,494.00036 223.74508,491.22244 222.73864,488.44452 C 219.95869,482.97944 216.56121,480.58163 212.38457,478.59554 L 222.99117,467.7364 z"
       id="path2457"
       style="fill:#000000;fill-rule:evenodd;stroke:none;stroke-width:1px;stroke-linecap:butt;stroke-linejoin:miter;stroke-opacity:1" />
    <path
       d="M 281.42857,448.61218 L 311.07143,499.68361 C 314.07826,504.11109 314.50601,507.37798 308.03571,507.54075 L 291.42857,507.54075 L 291.42857,523.25504 L 315.53571,523.25504 C 328.8572,524.04813 340.01097,516.38712 348.57143,498.61218 L 377.45421,448.58574 L 343.57143,448.58574 L 329.28571,483.96932 L 315.71429,448.61218 L 281.42857,448.61218 z"
       id="path2459"
       style="fill:#000000;fill-rule:evenodd;stroke:none;stroke-width:1px;stroke-linecap:butt;stroke-linejoin:miter;stroke-opacity:1" />
    <path
       d="M 184.09066,579.87864 L 188.87044,579.87864 L 188.87044,582.06043 C 189.58508,581.16923 190.30815,580.53235 191.03962,580.14979 C 191.77108,579.76725 192.6623,579.57597 193.71327,579.57596 C 195.13416,579.57597 196.24607,579.99846 197.04902,580.84342 C 197.85194,581.68841 198.25341,582.9937 198.25342,584.7593 L 198.25342,593.27209 L 193.0953,593.27209 L 193.0953,585.90695 C 193.09529,585.06619 192.93975,584.47135 192.62868,584.12242 C 192.31758,583.77351 191.88038,583.59905 191.31708,583.59904 C 190.6949,583.59905 190.19044,583.83447 189.80369,584.30529 C 189.41693,584.77613 189.22355,585.6211 189.22356,586.84021 L 189.22356,593.27209 L 184.09066,593.27209 L 184.09066,579.87864 z M 216.21226,587.84913 L 205.92124,587.84913 C 206.01372,588.67309 206.23652,589.28685 206.58965,589.69042 C 207.0857,590.27055 207.73309,590.56062 208.53183,590.56061 C 209.03628,590.56062 209.51552,590.4345 209.96955,590.18227 C 210.24699,590.02252 210.54546,589.74087 210.86497,589.33729 L 215.92219,589.80392 C 215.14867,591.14915 214.21542,592.11394 213.12243,592.69827 C 212.02942,593.2826 210.46139,593.57477 208.41833,593.57477 C 206.6443,593.57477 205.24862,593.32464 204.23129,592.82439 C 203.21396,592.32413 202.37109,591.5296 201.70268,590.4408 C 201.03427,589.35201 200.70006,588.07194 200.70006,586.60059 C 200.70006,584.50708 201.37058,582.81293 202.7116,581.51814 C 204.05263,580.22337 205.90442,579.57597 208.26699,579.57596 C 210.18393,579.57597 211.69732,579.86604 212.80714,580.44616 C 213.91694,581.0263 214.76192,581.86707 215.34206,582.96847 C 215.92218,584.06988 216.21224,585.50339 216.21226,587.269 L 216.21226,587.84913 z M 210.99108,585.38988 C 210.89018,584.39778 210.62323,583.68733 210.19025,583.25853 C 209.75724,582.82975 209.18762,582.61535 208.48138,582.61534 C 207.66583,582.61535 207.01423,582.93905 206.5266,583.58643 C 206.2155,583.99001 206.01792,584.59116 205.93385,585.38988 L 210.99108,585.38988 z M 224.78811,574.78358 L 224.78811,579.87864 L 227.61309,579.87864 L 227.61309,583.62427 L 224.78811,583.62427 L 224.78811,588.37882 C 224.7881,588.95054 224.84275,589.32889 224.95206,589.51386 C 225.1202,589.79972 225.41447,589.94265 225.83486,589.94265 C 226.2132,589.94265 226.74289,589.83335 227.42392,589.61475 L 227.80226,593.15859 C 226.53269,593.43604 225.34721,593.57477 224.24581,593.57477 C 222.96783,593.57477 222.02617,593.41082 221.42083,593.08292 C 220.81547,592.75502 220.36776,592.25687 220.0777,591.58845 C 219.78763,590.92004 219.6426,589.83756 219.6426,588.34098 L 219.6426,583.62427 L 217.75087,583.62427 L 217.75087,579.87864 L 219.6426,579.87864 L 219.6426,574.77543 L 224.78811,574.78358 z M 228.53373,579.87864 L 233.50268,579.87864 L 235.65925,588.31576 L 238.38335,579.87864 L 243.01178,579.87864 L 245.83677,588.31576 L 247.99334,579.87864 L 252.92445,579.87864 L 247.99334,593.27209 L 243.42796,593.27209 L 240.71648,585.21332 L 238.09328,593.27209 L 233.50268,593.27209 L 228.53373,579.87864 z M 253.78204,586.6132 C 253.78204,584.57014 254.47147,582.8865 255.85033,581.56228 C 257.22919,580.23808 259.09149,579.57597 261.43724,579.57596 C 264.11929,579.57597 266.14554,580.35369 267.51601,581.9091 C 268.6174,583.16185 269.1681,584.70466 269.16812,586.53753 C 269.1681,588.59742 268.48498,590.28526 267.11874,591.60107 C 265.75248,592.91687 263.86285,593.57477 261.44986,593.57477 C 259.29748,593.57477 257.55709,593.02827 256.22868,591.93527 C 254.59758,590.58164 253.78204,588.80761 253.78204,586.6132 L 253.78204,586.6132 z M 258.92755,586.60059 C 258.92754,587.79449 259.16926,588.67729 259.65271,589.24901 C 260.13615,589.82074 260.7436,590.1066 261.47508,590.1066 C 262.21495,590.1066 262.8224,589.82494 263.29745,589.26162 C 263.77247,588.69831 264.00999,587.79449 264.01,586.55014 C 264.00999,585.38989 263.77037,584.526 263.29114,583.95847 C 262.81189,583.39096 262.21915,583.1072 261.51291,583.10719 C 260.76462,583.1072 260.14666,583.39517 259.65902,583.97108 C 259.17136,584.54702 258.92754,585.42352 258.92755,586.60059 L 258.92755,586.60059 z M 271.71565,579.87864 L 276.52065,579.87864 L 276.52065,582.07305 C 276.98306,581.12299 277.4602,580.46929 277.95206,580.11195 C 278.4439,579.75464 279.05135,579.57597 279.77442,579.57596 C 280.53111,579.57597 281.35926,579.81139 282.2589,580.28221 L 280.66984,583.93955 C 280.06448,583.68733 279.58524,583.56122 279.23213,583.56121 C 278.5595,583.56122 278.03823,583.83867 277.6683,584.39357 C 277.1386,585.17549 276.87376,586.63843 276.87377,588.78239 L 276.87377,593.27209 L 271.71565,593.27209 L 271.71565,579.87864 z M 283.11648,574.78358 L 288.36288,574.78358 L 288.36288,584.3179 L 292.19679,579.87864 L 298.51517,579.87864 L 293.71018,584.57013 L 298.79263,593.27209 L 293.00393,593.27209 L 290.29245,587.89958 L 288.36288,589.79131 L 288.36288,593.27209 L 283.11648,593.27209 L 283.11648,574.78358 z"
       transform="scale(1.0877436,0.9193343)"
       id="text2461"
       style="font-size:25.8284359px;font-style:normal;font-variant:normal;font-weight:normal;font-stretch:normal;text-align:start;line-height:100%;writing-mode:lr-tb;text-anchor:start;fill:#000000;fill-opacity:1;stroke:none;stroke-width:1px;stroke-linecap:butt;stroke-linejoin:miter;stroke-opacity:1;font-family:Arial Black;-inkscape-font-specification:Arial Black" />
  </g>
</svg>
