<?xml version="1.0" encoding="iso-8859-1"?><!-- Generator: Adobe Illustrator 16.0.0, SVG Export Plug-In . SVG Version: 6.00 Build 0) --><!DOCTYPE svg PUBLIC "-//W3C//DTD SVG 1.1//EN" "http://www.w3.org/Graphics/SVG/1.1/DTD/svg11.dtd"><svg version="1.1" id="svg2" xmlns:dc="http://purl.org/dc/elements/1.1/" xmlns:cc="http://creativecommons.org/ns#" xmlns:rdf="http://www.w3.org/1999/02/22-rdf-syntax-ns#" xmlns:svg="http://www.w3.org/2000/svg" xmlns:sodipodi="http://sodipodi.sourceforge.net/DTD/sodipodi-0.dtd" xmlns:inkscape="http://www.inkscape.org/namespaces/inkscape" sodipodi:docname="Doctor_Who_logo_2010.svg" inkscape:version="0.48.2 r9819" inkscape:export-ydpi="90" inkscape:export-filename="C:\Users\Anna\Desktop\Doctor.Who.s06e14.The.Doctor.The.Widow.and.The.Wardrobe.WEB-DLRip.Rus-Eng.BaibaKo.tv.avi_snapshot_02.18_[2013.09.28_18.52.46].png" inkscape:export-xdpi="90" xmlns="http://www.w3.org/2000/svg" xmlns:xlink="http://www.w3.org/1999/xlink" x="0px" y="0px" width="437.636px" height="240px" viewBox="0 0 437.636 240" style="enable-background:new 0 0 437.636 240;" xml:space="preserve"><sodipodi:namedview fit-margin-left="0" fit-margin-top="0" pagecolor="#ffffff" bordercolor="#666666" borderopacity="1.0" id="base" showgrid="true" inkscape:zoom="1.1367874" inkscape:cx="273.58922" inkscape:cy="126.15283" inkscape:document-units="px" inkscape:window-y="-8" inkscape:pageopacity="0.0" inkscape:pageshadow="2" inkscape:window-width="1366" inkscape:window-maximized="1" inkscape:window-x="-8" inkscape:window-height="716" inkscape:current-layer="layer1" fit-margin-right="0" fit-margin-bottom="0"><inkscape:grid type="xygrid" id="grid3779" enabled="true" empspacing="5" visible="true" snapvisiblegridlinesonly="true"></inkscape:grid></sodipodi:namedview><g id="layer1" transform="translate(296.49144,-1136.36)" inkscape:groupmode="layer" inkscape:label="Calque 1"><g id="g3781" transform="matrix(0.99976047,0,0,0.99976047,-30.166137,0.32967386)"><path id="path3000" inkscape:connector-curvature="0" sodipodi:nodetypes="ccccccsccccccccccccccccccsccccccccccccccccscccccccscccccccccccccccccccccsssccscsscsccccccsccccccccc" d="	M110.705,1270.361v-34.996l5.728,0.054l5.727,0.053l0.104,14.53l0.103,14.531l0.605,0.51c0.776,0.653,1.979,0.553,2.78-0.231	l0.536-0.525l0.056-14.462l0.056-14.46l6.962,0.053l6.962,0.053v2.022v2.023l-0.877,0.062l-0.877,0.062v30.836v30.834h0.936h0.937	l-0.06,1.973l-0.059,1.972l-6.967,0.053l-6.966,0.054v-13.667c0-14.424,0.008-14.3-0.918-15.052	c-0.585-0.477-1.942-0.332-2.557,0.272l-0.549,0.537l-0.056,13.953l-0.056,13.953h-5.775h-5.775v-34.997V1270.361z M67.613,1304.771c-1.971-0.666-3.351-2.094-4.222-4.37l-0.465-1.213l-0.055-31.908l-0.056-31.909h5.783h5.782v28.324	c0,30.363-0.033,29.372,1.001,29.913c0.805,0.423,1.874,0.266,2.523-0.371l0.604-0.592v-28.638v-28.637h5.675h5.676v28.43	c0,30.635-0.047,29.259,1.021,29.82c0.786,0.412,1.86,0.248,2.503-0.383l0.604-0.592v-28.638v-28.637h6.714h6.716l-0.06,2.073	l-0.059,2.074l-0.774,0.062l-0.775,0.064v30.734v30.733h0.826h0.825v2.023v2.022l-19.349-0.01	C69.854,1305.137,68.64,1305.119,67.613,1304.771L67.613,1304.771z M148.613,1304.87c-1.957-0.524-3.818-2.32-4.604-4.441	c-0.367-0.991-0.387-2.305-0.44-29.357c-0.039-19.733,0.012-28.638,0.168-29.374c0.525-2.483,2.232-4.733,4.324-5.701l1.135-0.525	h8.359c9.511,0,9.914,0.052,11.599,1.505c1.098,0.948,1.715,2.223,2.023,4.181c0.147,0.944,0.2,10.422,0.161,29.407l-0.059,28.016	l-0.477,1.315c-0.867,2.392-2.375,3.932-4.683,4.779c-0.932,0.342-1.776,0.383-8.772,0.42	C151.468,1305.127,149.37,1305.074,148.613,1304.87L148.613,1304.87z M158.842,1292.428l0.674-0.59l0.062-20.698	c0.035-11.385,0.005-21.18-0.066-21.768c-0.168-1.388-0.74-2.054-1.895-2.206c-0.768-0.101-0.938-0.043-1.495,0.503l-0.629,0.617	v21.745v21.744l0.534,0.623C156.763,1293.255,157.885,1293.267,158.842,1292.428L158.842,1292.428z"/><path id="path2998" inkscape:connector-curvature="0" sodipodi:nodetypes="cccccccccccccsscccccccccccscscccccsscsscssccccccsccsccccscscccccccccsccscccccccsssccccscsccccccccsscscccssscsccscccccsccsccccccccccccccssscccccscccccccccccccc" style="fill:#010101;" d="	M-266.39,1303.416v-1.942h0.794h0.794v-31.115v-31.114h-0.794h-0.794v-1.94v-1.941l11.745,0.061l11.745,0.06l1.52,0.671	c2.283,1.007,3.593,2.648,4.225,5.293c0.184,0.768,0.256,8.932,0.253,28.77c-0.005,30.173,0.03,29.325-1.282,31.488	c-0.802,1.321-2.273,2.477-3.898,3.066c-1.266,0.458-1.413,0.464-12.793,0.526l-11.514,0.063v-1.943V1303.416z M-249.458,1292.859	l0.536-0.56v-21.967v-21.968l-0.663-0.594c-0.569-0.509-0.837-0.594-1.883-0.594c-0.67,0-1.342,0.11-1.491,0.244	c-0.208,0.187-0.273,5.541-0.273,22.861c0,12.44,0.066,22.772,0.147,22.962c0.122,0.285,0.392,0.328,1.619,0.26	C-250.203,1293.431-249.919,1293.339-249.458,1292.859z M-226.803,1305.156c-2.155-0.49-4.047-2.043-4.859-3.987	c-0.275-0.66-0.6-1.936-0.722-2.837c-0.137-1.014-0.195-12.063-0.154-28.99c0.064-25.99,0.088-27.408,0.487-28.471	c0.948-2.524,2.34-4.119,4.288-4.908c1.178-0.478,1.242-0.481,9.58-0.481c8.363,0,8.397,0,9.593,0.486	c1.544,0.626,2.809,1.915,3.358,3.424c0.408,1.124,0.43,2.404,0.491,29.839c0.063,28.128,0.056,28.694-0.391,30.279	c-0.782,2.773-2.206,4.349-4.754,5.261c-1.209,0.434-1.598,0.455-8.752,0.496	C-222.754,1305.291-226.429,1305.242-226.803,1305.156L-226.803,1305.156z M-217.164,1292.763	c0.429-0.385,0.691-0.877,0.787-1.475c0.079-0.493,0.115-10.338,0.076-21.879c-0.068-20.958-0.069-20.983-0.544-21.557	c-0.942-1.134-2.416-1.134-3.357,0c-0.476,0.573-0.477,0.594-0.544,21.861c-0.047,14.733,0.007,21.52,0.175,22.039	C-220.069,1293.301-218.337,1293.814-217.164,1292.763z M-194.975,1305.06c-2.277-0.565-3.766-1.946-4.761-4.417l-0.526-1.305	l-0.064-27.962c-0.047-19.907,0.008-28.355,0.188-29.325c0.322-1.729,1.497-3.91,2.629-4.881c0.483-0.414,1.388-0.963,2.011-1.22	c1.092-0.45,1.395-0.47,8.015-0.532c9.265-0.087,11.107,0.138,12.82,1.562c1.896,1.577,2.174,3.213,2.183,12.89l0.008,7.677	h-5.898h-5.899v-4.484c0-4.973-0.104-5.421-1.371-5.891c-0.898-0.333-1.7-0.101-2.348,0.68c-0.477,0.573-0.477,0.592-0.542,21.862	c-0.036,11.708-0.008,21.573,0.062,21.925c0.322,1.616,2.284,2.229,3.536,1.106l0.663-0.594v-4.999v-4.997h5.915h5.914	l-0.077,8.389c-0.074,8.113-0.094,8.431-0.591,9.676c-0.979,2.448-2.263,3.725-4.581,4.558c-1.185,0.425-1.62,0.449-8.734,0.498	C-192.017,1305.311-194.179,1305.258-194.975,1305.06L-194.975,1305.06z M-160.751,1305.202	c-0.083-0.073-0.151-12.887-0.151-28.471c0-28.064-0.005-28.339-0.453-28.742c-0.412-0.369-0.756-0.407-3.743-0.407h-3.29v-6.101	v-6.101h13.838h13.838v6.101v6.101l-3.573,0.01c-3.728,0.01-4.036,0.07-4.557,0.946c-0.197,0.332-0.264,7.59-0.264,28.623v28.181	h-5.748c-3.16,0-5.815-0.062-5.898-0.137V1305.202z M-131.456,1305.06c-2.273-0.565-3.883-2.064-4.811-4.482	c-0.473-1.233-0.476-1.401-0.537-29.497c-0.06-27.798-0.054-28.284,0.398-29.886c0.767-2.72,2.145-4.351,4.54-5.374	c0.696-0.297,1.814-0.339,9.074-0.339c5.969,0,8.54,0.07,9.21,0.254c2.108,0.575,3.443,1.913,4.113,4.118	c0.375,1.236,0.401,3.201,0.401,29.996c0,27.256-0.021,28.735-0.417,29.895c-0.913,2.672-2.313,4.164-4.732,5.043	c-1.136,0.414-1.621,0.441-8.69,0.487C-128.495,1305.312-130.66,1305.259-131.456,1305.06z M-121.991,1293.097	c1.298-0.53,1.241,0.502,1.241-22.951c0-19.774-0.031-21.633-0.377-22.159c-0.895-1.357-2.836-1.297-3.582,0.112	c-0.31,0.586-0.351,3.175-0.351,22.152c0,15.426,0.071,21.613,0.253,21.933C-124.208,1293.23-123.155,1293.571-121.991,1293.097	L-121.991,1293.097z M-106.23,1303.507v-1.831h0.794h0.794v-31.216v-31.215h-0.794h-0.794v-1.942v-1.942l11.739,0.062	c11.697,0.062,11.744,0.063,12.874,0.528c2.39,0.985,3.974,2.957,4.553,5.672c0.466,2.185,0.464,20.285-0.003,22.26	c-0.725,3.065-2.398,4.562-5.535,4.948l-1.169,0.145v1.608v1.608h0.738c1.786,0.01,4.222,1.588,5.246,3.411	c1.01,1.797,1.048,2.403,1.048,16.424v13.311h-5.895h-5.895l-0.06-28.59l-0.06-28.589l-0.741-0.593	c-0.984-0.788-1.913-0.788-2.792,0l-0.663,0.594v28.588v28.589h-6.692h-6.692v-1.831V1303.507z"/><path id="path3766" inkscape:connector-curvature="0" sodipodi:nodetypes="scccccccccccsccssccscccscccccccccccscssscccccsssscccccscccccccccccccssscccccccccccccsccc" style="fill:#010101;" d="	M-44.359,1362.66l-27.413-13.702v-2.887v-2.886l0.868-0.662l0.868-0.661v-68.674v-68.673l-0.875-0.541l-0.876-0.541l0.069-3.113	l0.069-3.113l27.16-15.132c22.214-12.375,27.365-15.151,28.284-15.243c0.983-0.098,1.265-0.01,2.233,0.722	c1.362,1.026,2.124,2.507,2.469,4.799c0.181,1.201,0.24,32.126,0.194,100.331c-0.064,94.321-0.087,98.651-0.516,99.911	c-0.781,2.297-2.557,3.761-4.571,3.766C-16.697,1376.361-29.282,1370.195-44.359,1362.66L-44.359,1362.66z M-41.242,1327.677	c0.462-0.311,1.09-1.008,1.397-1.549l0.558-0.986l-0.002-53.576c-0.003-52.299-0.013-53.6-0.478-54.624	c-0.503-1.109-1.726-2.049-2.666-2.051c-0.302,0-1.167,0.23-1.922,0.513l-1.375,0.514v55.659v55.659l1.427,0.398	c0.784,0.218,1.537,0.436,1.674,0.482C-42.176,1328.275-42.088,1328.247-41.242,1327.677L-41.242,1327.677z M-0.188,1375.089	c-0.798-0.799-1.238-1.541-1.67-2.82l-0.587-1.736l-0.064-101.881c-0.035-56.035-0.016-101.88,0.043-101.88	s4.775,2.391,10.482,5.315l10.375,5.314l0.124,75.483l0.124,75.483l0.508,0.868c0.391,0.667,0.696,0.886,1.32,0.947	c1.588,0.154,2.72-1.26,3.234-4.038c0.191-1.036,0.271-22.556,0.271-73.597c0-39.673,0.07-72.133,0.155-72.133	s3.433,1.681,7.439,3.735l7.284,3.735l0.064,67.017l0.064,67.017l0.519,0.992c0.659,1.261,1.466,1.42,2.413,0.473	c1.5-1.5,1.41,2.928,1.41-68.211v-65.043l7.435,3.761l7.436,3.762l0.003,2.976l0.003,2.976l-0.99,0.565l-0.99,0.566v68.322v68.322	l0.999,0.51l1,0.51l-0.07,2.983l-0.069,2.985l-17.239,8.921c-9.481,4.906-21.63,11.117-26.998,13.801	c-9.124,4.562-9.863,4.886-11.35,4.982l-1.592,0.101L-0.188,1375.089L-0.188,1375.089z M-17.64,1152.344l0.064-10.16l5.457-2.941	l5.457-2.941l2.728,1.435c1.501,0.79,4.04,2.129,5.643,2.977l2.915,1.542v10.121v10.122l-5.444-2.453	c-2.994-1.349-5.567-2.453-5.718-2.453c-0.15,0-2.725,1.105-5.72,2.455l-5.447,2.454L-17.64,1152.344z"/></g></g></svg>