<?xml version="1.0" encoding="UTF-8" standalone="no"?>
<svg width="1240px" height="512px" viewBox="0 0 1240 512" version="1.1" xmlns="http://www.w3.org/2000/svg" xmlns:xlink="http://www.w3.org/1999/xlink">
    <!-- Generator: Sketch 3.6.1 (26313) - http://www.bohemiancoding.com/sketch -->
    <title>Domestika</title>
    <desc>Created with Sketch.</desc>
    <defs></defs>
    <g id="Page-1" stroke="none" stroke-width="1" fill="none" fill-rule="evenodd">
        <g id="Domestika" transform="translate(-9.000000, 0.000000)">
            <g id="Page-1">
                <g id="logo-153x59">
                    <g id="Imported-Layers" transform="translate(0.810169, 0.000000)">
                        <path d="M8.57336502,0 L1247.97094,0 L1247.97094,512 L8.57336502,512 L8.57336502,0 L8.57336502,0 Z" id="Fill-1" fill="#F02D00"></path>
                        <g id="Group" transform="translate(130.169492, 138.847458)" fill="#FFFFFF">
                            <path d="M415.047856,198.716061 L510.139745,198.716061 L510.139745,172.00551 L441.692603,172.00551 L441.692603,144.527643 L497.159703,144.527643 L497.159703,117.855458 L441.692603,117.855458 L441.692603,90.3104512 L510.139745,90.3104512 L510.139745,63.6718359 L415.047856,63.6718359 L415.047856,198.716061" id="Fill-2"></path>
                            <path d="M477.813258,47.2305156 L494.947232,23.8465941 L480.510697,2.01168956 L462.584291,26.4762462 L444.634113,2.01168956 L430.238786,23.7778555 L447.412381,47.2305156 L477.813258,47.2305156" id="Fill-4"></path>
                            <path d="M742.549077,63.6718359 L769.740603,63.6718359 L769.740603,198.716061 L742.549077,198.716061 L742.549077,63.6718359 L742.549077,63.6718359 Z" id="Fill-5"></path>
                            <path d="M616.872467,91.0969492 L659.007682,91.0969492 L659.007682,198.716061 L686.446447,198.716061 L686.446447,91.0969492 L728.610191,91.0969492 L728.610191,63.6718359 L616.872467,63.6718359 L616.872467,91.0969492" id="Fill-6"></path>
                            <path d="M968.362201,63.6718359 L939.481209,63.6718359 L892.20628,198.716061 L920.290078,198.716061 L930.37299,170.130383 L977.917353,170.130383 L987.938452,198.716061 L1016.06346,198.716061 L968.362201,63.6718359 L968.362201,63.6718359 L968.362201,63.6718359 Z M939.462187,143.490169 L953.925667,102.539532 L968.268696,143.490169 L939.462187,143.490169 L939.462187,143.490169 L939.462187,143.490169 Z" id="Fill-7"></path>
                            <path d="M195.808752,61.8270829 C157.694337,61.8270829 126.684872,93.1015593 126.684872,131.542437 C126.684872,170.004096 157.694337,201.296157 195.808752,201.296157 C233.92475,201.296157 264.934215,170.004096 264.934215,131.542437 C264.934215,93.1015593 233.92475,61.8270829 195.808752,61.8270829 L195.808752,61.8270829 L195.808752,61.8270829 Z M195.808752,172.955061 C173.214919,172.955061 154.833656,154.390837 154.833656,131.569613 C154.833656,108.802741 173.214919,90.2800783 195.808752,90.2800783 C218.402584,90.2800783 236.783847,108.802741 236.783847,131.569613 C236.783847,154.390837 218.402584,172.955061 195.808752,172.955061 L195.808752,172.955061 L195.808752,172.955061 Z" id="Fill-8"></path>
                            <path d="M52.736665,63.51038 L4.83412585,63.51038 L4.83412585,198.497056 L52.736665,198.497056 C89.619639,198.497056 119.62747,168.205702 119.62747,130.971747 C119.62747,93.7729597 89.619639,63.51038 52.736665,63.51038 L52.736665,63.51038 L52.736665,63.51038 Z M53.0171861,170.798587 L32.0224818,170.798587 L32.0224818,91.325545 L53.0171861,91.325545 C74.742513,91.325545 92.4169254,109.122455 92.4169254,130.998922 C92.4169254,152.944129 74.742513,170.798587 53.0171861,170.798587 L53.0171861,170.798587 L53.0171861,170.798587 Z" id="Fill-9"></path>
                            <path d="M338.03135,127.144764 L303.940908,63.6718359 L273.395808,63.6718359 L273.395808,198.716061 L300.587334,198.716061 L300.587334,113.387447 L338.03135,183.050048 L375.475367,113.379454 L375.475367,198.716061 L402.728702,198.716061 L402.728702,63.6718359 L372.071077,63.6718359 L338.03135,127.144764" id="Fill-10"></path>
                            <path d="M890.147536,63.6718359 L857.218801,63.6718359 L812.877453,123.327372 L812.877453,63.6718359 L786.06471,63.6718359 L786.06471,198.716061 L812.877453,198.716061 L812.877453,169.449391 L826.10632,151.34076 L857.6483,198.716061 L890.727598,198.716061 L843.367083,127.710658 L890.147536,63.6718359" id="Fill-11"></path>
                            <path d="M591.381501,126.654001 C581.133765,121.004646 572.779943,118.86096 565.787519,117.212832 C559.121577,115.641434 553.856657,114.400942 549.856458,110.74021 C547.71689,108.781959 543.478962,101.275061 548.743883,94.4139871 C551.934216,90.2561002 557.761763,87.8022908 564.335783,87.8502478 C570.472379,87.8934094 576.2714,90.1250169 579.471242,93.6722501 C583.748792,98.4136166 585.606253,102.381274 585.625272,102.41964 L586.249709,103.896721 L611.32227,93.435661 L611.20816,93.0967639 C610.301617,90.5854056 607.344259,81.0195468 596.879397,72.1027083 C588.704664,65.1361284 577.040059,60.9302837 564.641662,60.8407636 C549.47609,60.7304621 536.069719,66.3782194 527.860119,76.3357288 C519.317698,86.6976771 516.082988,98.9555321 518.751901,110.848914 C521.387531,122.596824 529.567019,132.432842 541.190417,137.837617 C550.163922,142.009892 555.734722,143.475782 561.121677,144.892117 C565.551374,146.057477 569.735417,147.158894 575.73096,149.66066 C582.000686,152.277524 585.089588,156.791893 584.205233,162.048 C582.940511,169.559693 574.989244,174.454523 568.033272,174.847772 C567.137824,174.898926 566.245545,174.921306 565.377039,174.914911 C557.056499,174.854166 546.093989,172.334815 540.516849,159.555825 L515.238256,170.101609 C517.117905,174.505677 521.671222,184.768514 532.939611,192.427275 C541.689649,198.373966 553.366933,201.782123 564.917429,201.865249 C584.8265,202.010719 601.23936,192.660667 608.819768,176.857177 C617.817046,158.097927 611.046503,137.495522 591.381501,126.654001" id="Fill-12"></path>
                        </g>
                    </g>
                </g>
            </g>
        </g>
    </g>
</svg>