<?xml version="1.0" encoding="UTF-8" standalone="no"?>
<svg width="143px" height="59px" viewBox="0 0 143 59" version="1.1" xmlns="http://www.w3.org/2000/svg" xmlns:xlink="http://www.w3.org/1999/xlink">
    <!-- Generator: Sketch 3.6.1 (26313) - http://www.bohemiancoding.com/sketch -->
    <title>logo 153x59</title>
    <desc>Created with Sketch.</desc>
    <defs></defs>
    <g id="Page-1" stroke="none" stroke-width="1" fill="none" fill-rule="evenodd">
        <g id="logo-153x59">
            <g id="Imported-Layers" transform="translate(-0.100000, 0.000000)">
                <path d="M-0.0120536398,0 L142.809151,0 L142.809151,59 L-0.0120536398,59 L-0.0120536398,0 Z" id="Fill-1" fill="#F02D00"></path>
                <g id="Group" transform="translate(15.000000, 16.000000)" fill="#FFFFFF">
                    <path d="M46.8277803,22.8989211 L57.7856347,22.8989211 L57.7856347,19.8209474 L49.8981711,19.8209474 L49.8981711,16.6545526 L56.2898876,16.6545526 L56.2898876,13.581 L49.8981711,13.581 L49.8981711,10.4068684 L57.7856347,10.4068684 L57.7856347,7.33718421 L46.8277803,7.33718421 L46.8277803,22.8989211" id="Fill-2"></path>
                    <path id="Fill-3"></path>
                    <path d="M54.0605121,5.44257895 L56.0349349,2.74794737 L54.3713499,0.231815789 L52.3056117,3.05097368 L50.2371341,0.231815789 L48.5782976,2.74002632 L50.5572861,5.44257895 L54.0605121,5.44257895" id="Fill-4"></path>
                    <path d="M84.5671788,7.33718421 L87.7005773,7.33718421 L87.7005773,22.8989211 L84.5671788,22.8989211 L84.5671788,7.33718421 Z" id="Fill-5"></path>
                    <path d="M70.0849132,10.4975 L74.9403384,10.4975 L74.9403384,22.8989211 L78.1022273,22.8989211 L78.1022273,10.4975 L82.96094,10.4975 L82.96094,7.33718421 L70.0849132,7.33718421 L70.0849132,10.4975" id="Fill-6"></path>
                    <path d="M110.588613,7.33718421 L107.26053,7.33718421 L101.812833,22.8989211 L105.049052,22.8989211 L106.21095,19.6048684 L111.689695,19.6048684 L112.84447,22.8989211 L116.085438,22.8989211 L110.588613,7.33718421 L110.588613,7.33718421 Z M107.258338,16.535 L108.925028,11.8160789 L110.577838,16.535 L107.258338,16.535 L107.258338,16.535 Z" id="Fill-7"></path>
                    <path d="M21.5638991,7.12460526 C17.1718084,7.12460526 13.5984521,10.7285 13.5984521,15.1582105 C13.5984521,19.5903158 17.1718084,23.1962368 21.5638991,23.1962368 C25.9561724,23.1962368 29.5295287,19.5903158 29.5295287,15.1582105 C29.5295287,10.7285 25.9561724,7.12460526 21.5638991,7.12460526 L21.5638991,7.12460526 Z M21.5638991,19.9303684 C18.9603129,19.9303684 16.8421596,17.7911316 16.8421596,15.1613421 C16.8421596,12.5378158 18.9603129,10.4033684 21.5638991,10.4033684 C24.1674853,10.4033684 26.2856386,12.5378158 26.2856386,15.1613421 C26.2856386,17.7911316 24.1674853,19.9303684 21.5638991,19.9303684 L21.5638991,19.9303684 Z" id="Fill-8"></path>
                    <path d="M5.07707663,7.31857895 L-0.442942529,7.31857895 L-0.442942529,22.8736842 L5.07707663,22.8736842 C9.32726309,22.8736842 12.7851967,19.3830789 12.7851967,15.0924474 C12.7851967,10.8058684 9.32726309,7.31857895 5.07707663,7.31857895 L5.07707663,7.31857895 Z M5.1094023,19.6818684 L2.69009068,19.6818684 L2.69009068,10.5238421 L5.1094023,10.5238421 C7.61290677,10.5238421 9.64960664,12.5746579 9.64960664,15.0955789 C9.64960664,17.6244211 7.61290677,19.6818684 5.1094023,19.6818684 L5.1094023,19.6818684 Z" id="Fill-9"></path>
                    <path d="M37.9528314,14.6514474 L34.0244406,7.33718421 L30.5045951,7.33718421 L30.5045951,22.8989211 L33.6379936,22.8989211 L33.6379936,13.0661316 L37.9528314,21.0936579 L42.2676692,13.0652105 L42.2676692,22.8989211 L45.4081903,22.8989211 L45.4081903,7.33718421 L41.875378,7.33718421 L37.9528314,14.6514474" id="Fill-10"></path>
                    <path d="M101.575595,7.33718421 L97.7810728,7.33718421 L92.6714253,14.2115526 L92.6714253,7.33718421 L89.5816756,7.33718421 L89.5816756,22.8989211 L92.6714253,22.8989211 L92.6714253,19.5263947 L94.1958455,17.4396579 L97.8305658,22.8989211 L101.642438,22.8989211 L96.1848787,14.7166579 L101.575595,7.33718421" id="Fill-11"></path>
                    <path d="M67.1474777,14.5948947 C65.9665862,13.9438947 65.0039387,13.6968684 64.1981711,13.5069474 C63.4300255,13.3258684 62.8233257,13.1829211 62.3623653,12.7610789 C62.1158135,12.5354211 61.6274585,11.6703684 62.2341584,10.8797368 C62.6017944,10.4006053 63.2733282,10.1178421 64.0308812,10.1233684 C64.7380281,10.1283421 65.4062746,10.3855 65.7750064,10.7942632 C66.2679272,11.3406316 66.4819706,11.7978421 66.4841622,11.8022632 L66.5561188,11.9724737 L69.4453397,10.767 L69.4321903,10.7279474 C69.3277254,10.4385526 68.9869361,9.33623684 67.7810243,8.30871053 C66.839014,7.50592105 65.4948506,7.02126316 64.066129,7.01094737 C62.3185338,6.99823684 60.773659,7.64905263 59.8276309,8.7965 C58.8432503,9.99055263 58.4705006,11.4030789 58.7780511,12.7736053 C59.0817663,14.1273684 60.0243244,15.2608158 61.3637395,15.8836316 C62.3977957,16.3644211 63.0397433,16.5333421 63.6605057,16.6965526 C64.1709591,16.8308421 64.6531047,16.9577632 65.3439974,17.2460526 C66.0664853,17.5476053 66.422433,18.0678158 66.3205249,18.6735 C66.1747854,19.5391053 65.2585262,20.1031579 64.4569591,20.1484737 C64.3537727,20.1543684 64.2509515,20.1569474 64.1508697,20.1562105 C63.1920575,20.1492105 61.9287995,19.8588947 61.2861213,18.3863158 L58.3731584,19.6015526 C58.5897586,20.1090526 59.1144572,21.2916842 60.412963,22.1742368 C61.4212682,22.8595 62.7668927,23.2522368 64.0979068,23.2618158 C66.3921162,23.2785789 68.2834419,22.2011316 69.1569655,20.3800263 C70.1937612,18.2183158 69.4135619,15.8442105 67.1474777,14.5948947" id="Fill-12"></path>
                </g>
            </g>
        </g>
    </g>
</svg>