<?xml version="1.0" encoding="UTF-8" standalone="no"?>
<svg width="657px" height="512px" viewBox="0 0 657 512" version="1.1" xmlns="http://www.w3.org/2000/svg" xmlns:xlink="http://www.w3.org/1999/xlink">
    <!-- Generator: Sketch 3.6.1 (26313) - http://www.bohemiancoding.com/sketch -->
    <title>donate.ly</title>
    <desc>Created with Sketch.</desc>
    <defs></defs>
    <g id="Page-1" stroke="none" stroke-width="1" fill="none" fill-rule="evenodd">
        <g id="donate.ly">
            <path d="M0,0 L656.340426,0 L656.340426,512 L0,512 L0,0 L0,0 Z" id="Shape" fill="#FFFFFF"></path>
            <path d="M411.669787,32.9259574 C424.088511,18.4374468 440.619574,6.45446809 459.79234,3.37702128 C483.431489,-1.30723404 509.222128,6.7812766 526.134468,23.9659574 C556.772766,53.3242553 586.920851,83.227234 617.477447,112.667234 C627.036596,123.01617 638.828936,131.649362 645.419574,144.394894 C656.422128,164.221277 657.865532,189.222128 648.82383,210.083404 C641.497872,227.894468 626.19234,240.422128 613.147234,253.930213 C539.560851,330.049362 465.239149,405.433191 391.68,481.579574 C376.782979,498.355745 355.485957,513.034894 331.982979,509.249362 C312.211064,512.571915 292.330213,503.611915 278.440851,489.831489 C198.182128,411.996596 118.195745,333.889362 38.0731915,255.918298 C22.413617,241.838298 6.29106383,225.879149 2.50553191,204.200851 C2.91404255,192.217872 2.56,180.20766 2.7506383,168.197447 C22.6314894,185.763404 39.9795745,206.025532 60.187234,223.210213 C97.307234,258.614468 132.657021,295.925106 170.594043,330.430638 C199.979574,360.142979 230.26383,388.956596 259.785532,418.505532 C273.974468,429.589787 285.71234,443.342979 298.757447,455.734468 C309.62383,467.499574 327.380426,473.545532 342.876596,468.289362 C351.809362,465.538723 359.598298,459.819574 365.725957,452.874894 C383.891064,432.966809 404.561702,415.373617 421.637447,394.539574 C452.575319,363.329362 483.594894,332.173617 514.069787,300.500426 C514.941277,299.52 516.657021,297.531915 517.528511,296.551489 C548.548085,265.09617 579.050213,233.123404 610.151489,201.722553 C614.481702,196.684255 620.364255,192.13617 621.617021,185.218723 C623.523404,178.355745 620.52766,170.893617 615.40766,166.236596 C589.916596,140.854468 563.717447,116.180426 538.335319,90.7165957 C536.428936,89.0008511 534.277447,87.7753191 531.799149,87.067234 C512.925957,106.566809 494.107234,126.120851 475.097872,145.484255 C462.570213,157.058723 452.384681,171.084255 438.713191,181.378723 C432.149787,171.002553 424.497021,161.334468 417.361702,151.366809 L416.680851,150.331915 C447.155745,121.028085 476.051064,90.1174468 505.436596,59.7242553 C498.709787,52.3165957 491.982979,44.8 484.057872,38.6723404 C476.840851,33.0621277 465.674894,33.6340426 459.111489,39.9795745 C435.989787,63.2919149 413.467234,87.1761702 390.182128,110.270638 C384,102.890213 378.199149,95.1829787 373.106383,86.9855319 C371.499574,83.7174468 368.258723,81.947234 365.07234,80.4765957 C380.949787,64.9531915 396.064681,48.7217021 411.669787,32.9259574 L411.669787,32.9259574 Z" id="Shape" fill="#2676A3"></path>
            <path d="M143.278298,15.1693617 C166.182128,2.34212766 195.649362,3.75829787 218.062979,16.9123404 C228.030638,22.6859574 235.057021,32 243.744681,39.3259574 C271.468936,66.2331915 298.893617,93.412766 326.781277,120.156596 C335.768511,129.334468 344.32,139.329362 355.622128,145.811064 C363.901277,159.482553 377.981277,168.551489 388.548085,180.425532 C397.671489,188.895319 406.03234,198.182128 415.72766,205.998298 C433.102979,225.497872 453.228936,242.355745 471.475745,261.038298 C485.909787,273.865532 498.028936,289.742979 514.069787,300.500426 C483.594894,332.173617 452.575319,363.329362 421.637447,394.539574 C404.561702,415.373617 383.891064,432.966809 365.725957,452.874894 C359.598298,459.819574 351.809362,465.538723 342.876596,468.289362 C327.380426,473.545532 309.62383,467.499574 298.757447,455.734468 C285.71234,443.342979 273.974468,429.589787 259.785532,418.505532 C230.26383,388.956596 199.979574,360.142979 170.594043,330.430638 C132.657021,295.925106 97.307234,258.614468 60.187234,223.210213 C39.9795745,206.025532 22.6314894,185.763404 2.7506383,168.197447 C6.64510638,155.506383 12.8817021,143.251064 22.7131915,134.100426 C52.0442553,103.68 81.6476596,73.5046809 111.08766,43.1931915 C121.518298,33.5251064 130.205957,21.4876596 143.278298,15.1693617 L143.278298,15.1693617 Z" id="Shape" fill="#3E8FBD"></path>
            <path d="M459.111489,39.9795745 C465.674894,33.6340426 476.840851,33.0621277 484.057872,38.6723404 C491.982979,44.8 498.709787,52.3165957 505.436596,59.7242553 C476.051064,90.1174468 447.155745,121.028085 416.680851,150.331915 C411.397447,141.916596 405.024681,134.236596 399.850213,125.71234 C396.473191,120.919149 393.749787,114.301277 387.077447,113.620426 C387.867234,112.77617 389.39234,111.114894 390.182128,110.270638 C413.467234,87.1761702 435.989787,63.2919149 459.111489,39.9795745 L459.111489,39.9795745 Z" id="Shape" fill="#FFFFFF"></path>
            <path d="M326.781277,120.156596 C339.308936,106.730213 352.708085,94.093617 365.07234,80.4765957 C368.258723,81.947234 371.499574,83.7174468 373.106383,86.9855319 C378.199149,95.1829787 384,102.890213 390.182128,110.270638 C389.39234,111.114894 387.867234,112.77617 387.077447,113.620426 C376.864681,124.622979 366.35234,135.325957 355.622128,145.811064 C344.32,139.329362 335.768511,129.334468 326.781277,120.156596 L326.781277,120.156596 Z" id="Shape" fill="#1E628F"></path>
            <path d="M531.799149,87.067234 C534.277447,87.7753191 536.428936,89.0008511 538.335319,90.7165957 C563.717447,116.180426 589.916596,140.854468 615.40766,166.236596 C620.52766,170.893617 623.523404,178.355745 621.617021,185.218723 C620.364255,192.13617 614.481702,196.684255 610.151489,201.722553 C579.050213,233.123404 548.548085,265.09617 517.528511,296.551489 C492.718298,257.797447 464.77617,221.058723 439.475745,182.604255 L438.713191,181.378723 C452.384681,171.084255 462.570213,157.058723 475.097872,145.484255 C494.107234,126.120851 512.925957,106.566809 531.799149,87.067234 L531.799149,87.067234 Z" id="Shape" fill="#FFFFFF"></path>
            <path d="M387.077447,113.620426 C393.749787,114.301277 396.473191,120.919149 399.850213,125.71234 C405.024681,134.236596 411.397447,141.916596 416.680851,150.331915 L417.361702,151.366809 C407.257872,160.517447 397.780426,170.37617 388.548085,180.425532 C377.981277,168.551489 363.901277,159.482553 355.622128,145.811064 C366.35234,135.325957 376.864681,124.622979 387.077447,113.620426 L387.077447,113.620426 Z" id="Shape" fill="#C7D3E0"></path>
            <path d="M388.548085,180.425532 C397.780426,170.37617 407.257872,160.517447 417.361702,151.366809 C424.497021,161.334468 432.149787,171.002553 438.713191,181.378723 L439.475745,182.604255 C431.49617,190.338723 423.707234,198.26383 415.72766,205.998298 C406.03234,198.182128 397.671489,188.895319 388.548085,180.425532 L388.548085,180.425532 Z" id="Shape" fill="#1E628F"></path>
            <path d="M439.475745,182.604255 C464.77617,221.058723 492.718298,257.797447 517.528511,296.551489 C516.657021,297.531915 514.941277,299.52 514.069787,300.500426 C498.028936,289.742979 485.909787,273.865532 471.475745,261.038298 C453.228936,242.355745 433.102979,225.497872 415.72766,205.998298 C423.707234,198.26383 431.49617,190.338723 439.475745,182.604255 L439.475745,182.604255 Z" id="Shape" fill="#C7D3E0"></path>
        </g>
    </g>
</svg>