<?xml version="1.0" encoding="UTF-8" standalone="no"?>
<svg width="914px" height="510px" viewBox="0 0 914 510" version="1.1" xmlns="http://www.w3.org/2000/svg" xmlns:xlink="http://www.w3.org/1999/xlink">
    <!-- Generator: Sketch 3.6.1 (26313) - http://www.bohemiancoding.com/sketch -->
    <title>DripApp</title>
    <desc>Created with Sketch.</desc>
    <defs></defs>
    <g id="Page-1" stroke="none" stroke-width="1" fill="none" fill-rule="evenodd">
        <g id="DripApp" transform="translate(-1.000000, -1.000000)" fill="#2BB99C">
            <g id="Group">
                <g id="Shape">
                    <path d="M326.997333,129.706667 C326.997333,141.312 317.44,150.869333 305.834667,150.869333 L22.8693333,150.869333 C11.264,150.869333 1.70666667,141.312 1.70666667,129.706667 L1.70666667,129.706667 C1.70666667,118.101333 11.264,108.544 22.8693333,108.544 L305.834667,108.544 C317.44,108.544 326.997333,118.101333 326.997333,129.706667 L326.997333,129.706667 L326.997333,129.706667 Z"></path>
                    <path d="M59.0506667,78.848 C59.0506667,78.848 39.2533333,80.5546667 47.4453333,65.8773333 C55.296,52.224 60.7573333,34.816 79.5306667,35.1573333 C98.304,35.4986667 120.490667,35.84 120.490667,35.84 L190.122667,4.43733333 C190.122667,4.43733333 205.482667,-4.43733333 212.650667,9.216 C228.010667,38.5706667 217.088,35.84 235.861333,35.84 C263.168,35.84 261.12,36.864 268.970667,45.7386667 C281.6,60.416 300.032,78.5066667 276.48,78.5066667 C253.269333,78.848 59.0506667,78.848 59.0506667,78.848 L59.0506667,78.848 Z"></path>
                    <path d="M281.258667,176.810667 L49.8346667,176.810667 C32.0853333,176.810667 32.768,193.877333 32.768,193.877333 C32.768,193.877333 61.44,450.56 63.8293333,471.722667 C65.8773333,488.789333 81.5786667,488.789333 81.5786667,488.789333 L249.856,488.789333 C268.288,488.789333 267.946667,473.429333 267.946667,473.429333 C267.946667,473.429333 292.522667,216.405333 294.570667,196.266667 C296.618667,176.128 281.258667,176.810667 281.258667,176.810667 L281.258667,176.810667 Z M202.069333,396.629333 C160.768,423.936 149.162667,405.504 138.24,399.36 C135.509333,397.653333 131.413333,400.384 128.341333,403.797333 C124.586667,408.234667 86.6986667,435.882667 89.7706667,411.306667 C89.7706667,411.306667 102.058667,403.797333 117.418667,372.394667 C132.778667,340.992 139.946667,307.541333 155.989333,290.133333 C172.032,272.725333 181.930667,269.312 183.978667,270.336 C186.368,271.36 189.44,271.701333 183.978667,281.941333 C178.517333,292.181333 168.618667,318.122667 164.522667,338.261333 C160.426667,358.4 149.845333,379.221333 147.797333,380.928 C145.408,382.634667 148.821333,394.24 165.546667,385.024 C182.272,375.808 190.464,365.226667 199.68,336.554667 C208.896,307.882667 215.722667,279.210667 194.56,263.850667 C173.397333,248.149333 150.528,254.634667 132.096,266.922667 C113.664,279.210667 122.88,280.576 129.365333,280.234667 C135.509333,279.893333 145.749333,291.157333 135.509333,308.906667 C125.269333,326.656 88.7466667,331.776 92.5013333,296.96 C96.256,262.144 134.485333,240.298667 174.08,242.346667 C213.674667,244.394667 234.496,269.653333 237.226667,293.888 C240.298667,318.122667 243.370667,369.322667 202.069333,396.629333 L202.069333,396.629333 Z"></path>
                </g>
                <g transform="translate(348.160000, 116.053333)" id="Shape">
                    <path d="M536.576,147.797333 C498.346667,133.12 484.010667,167.594667 474.453333,172.373333 C464.896,177.152 465.92,168.96 466.261333,153.941333 C466.602667,138.922667 456.704,126.976 442.026667,132.778667 C427.349333,138.581333 430.08,174.08 423.253333,216.064 C416.426667,257.706667 383.658667,267.605333 363.861333,271.018667 C344.064,274.090667 360.448,208.896 380.928,184.32 C401.408,159.744 401.408,137.216 377.856,145.066667 C354.304,152.917333 339.968,200.021333 321.194667,235.178667 C302.421333,270.336 277.162667,270.677333 277.162667,270.677333 C254.634667,277.504 281.6,227.669333 282.624,204.458667 C283.989333,178.517333 264.192,164.864 255.317333,160.085333 C246.442667,155.306667 241.664,147.797333 245.76,141.312 C249.856,134.826667 253.952,109.226667 232.106667,123.562667 C210.261333,137.898667 216.746667,155.989333 216.746667,155.989333 C216.746667,155.989333 216.405333,171.008 194.218667,220.842667 C172.032,270.677333 147.797333,269.994667 139.946667,267.946667 C132.096,265.898667 150.528,187.733333 173.738667,135.509333 C196.949333,83.2853333 224.597333,16.7253333 224.597333,16.7253333 C227.328,-5.80266667 205.482667,-3.41333333 189.098667,17.408 C172.714667,38.2293333 133.12,146.090667 133.12,146.090667 C133.12,146.090667 115.370667,111.957333 60.416,154.624 C60.416,154.624 1.024,212.992 1.024,257.024 C1.024,301.056 47.7866667,314.026667 85.3333333,271.018667 C95.232,259.754667 97.6213333,240.981333 99.6693333,267.605333 C101.717333,294.229333 126.976,297.642667 160.768,286.037333 C194.56,274.432 229.034667,190.805333 233.130667,177.152 C237.226667,163.498667 251.904,189.098667 249.856,192.512 C247.808,195.925333 229.376,230.741333 228.010667,270.677333 C226.645333,310.954667 284.330667,298.325333 301.397333,282.624 C318.464,266.922667 323.584,253.952 322.56,267.264 C321.536,280.576 334.165333,291.157333 334.165333,291.157333 C346.112,309.589333 387.072,289.450667 404.138667,274.090667 C421.205333,258.730667 385.706667,349.525333 381.952,362.496 C378.197333,375.466667 383.317333,402.090667 401.066667,392.874667 C418.816,383.317333 438.613333,289.109333 438.613333,289.109333 C438.613333,289.109333 479.232,309.589333 529.408,265.898667 C580.266667,222.208 574.464,162.133333 536.576,147.797333 L536.576,147.797333 Z M104.789333,210.944 C88.4053333,240.981333 57.344,265.557333 57.344,265.557333 C36.864,277.162667 33.792,261.461333 39.936,237.568 C46.08,213.674667 75.0933333,169.984 104.789333,157.354667 C134.485333,145.066667 121.173333,180.906667 104.789333,210.944 L104.789333,210.944 Z M503.125333,256.341333 C467.285333,287.402667 442.368,276.138667 442.368,276.138667 C442.368,276.138667 448.512,235.861333 464.213333,210.602667 C479.914667,185.344 507.221333,169.984 519.509333,175.104 C532.138667,180.224 538.965333,225.28 503.125333,256.341333 L503.125333,256.341333 Z"></path>
                    <path d="M406.186667,116.394667 C406.186667,116.394667 378.88,118.101333 386.048,91.136 C393.216,64.1706667 426.666667,75.4346667 425.984,86.016 C425.301333,96.5973333 429.738667,110.933333 406.186667,116.394667 L406.186667,116.394667 Z"></path>
                </g>
            </g>
        </g>
    </g>
</svg>