<?xml version="1.0" encoding="utf-8"?>
<!-- Generator: Adobe Illustrator 19.0.0, SVG Export Plug-In . SVG Version: 6.00 Build 0)  -->
<svg version="1.1" id="Layer_1" xmlns="http://www.w3.org/2000/svg" xmlns:xlink="http://www.w3.org/1999/xlink" x="0px" y="0px"
	 viewBox="0 0 270.8 161.8" style="enable-background:new 0 0 270.8 161.8;" xml:space="preserve">
<style type="text/css">
	.st0{fill:#2BB99C;}
</style>
<g>
	<g>
		<path class="st0" d="M96.8,41c0,3.4-2.8,6.2-6.2,6.2H7.7c-3.4,0-6.2-2.8-6.2-6.2l0,0c0-3.4,2.8-6.2,6.2-6.2h82.9
			C94,34.8,96.8,37.6,96.8,41L96.8,41z"/>
		<path class="st0" d="M18.3,26.1c0,0-5.8,0.5-3.4-3.8c2.3-4,3.9-9.1,9.4-9s12,0.2,12,0.2l20.4-9.2c0,0,4.5-2.6,6.6,1.4
			c4.5,8.6,1.3,7.8,6.8,7.8c8,0,7.4,0.3,9.7,2.9c3.7,4.3,9.1,9.6,2.2,9.6C75.2,26.1,18.3,26.1,18.3,26.1z"/>
		<path class="st0" d="M83.4,54.8c0,0-62.6,0-67.8,0s-5,5-5,5s8.4,75.2,9.1,81.4c0.6,5,5.2,5,5.2,5h49.3c5.4,0,5.3-4.5,5.3-4.5
			s7.2-75.3,7.8-81.2S83.4,54.8,83.4,54.8z M60.2,119.2c-12.1,8-15.5,2.6-18.7,0.8c-0.8-0.5-2,0.3-2.9,1.3
			c-1.1,1.3-12.2,9.4-11.3,2.2c0,0,3.6-2.2,8.1-11.4c4.5-9.2,6.6-19,11.3-24.1s7.6-6.1,8.2-5.8c0.7,0.3,1.6,0.4,0,3.4
			c-1.6,3-4.5,10.6-5.7,16.5c-1.2,5.9-4.3,12-4.9,12.5c-0.7,0.5,0.3,3.9,5.2,1.2s7.3-5.8,10-14.2s4.7-16.8-1.5-21.3
			c-6.2-4.6-12.9-2.7-18.3,0.9c-5.4,3.6-2.7,4-0.8,3.9c1.8-0.1,4.8,3.2,1.8,8.4s-13.7,6.7-12.6-3.5c1.1-10.2,12.3-16.6,23.9-16
			c11.6,0.6,17.7,8,18.5,15.1C71.4,96.2,72.3,111.2,60.2,119.2z"/>
	</g>
	<g>
		<path class="st0" d="M260.2,80.3C249,76,244.8,86.1,242,87.5s-2.5-1-2.4-5.4s-2.8-7.9-7.1-6.2S229,88,227,100.3
			c-2,12.2-11.6,15.1-17.4,16.1c-5.8,0.9-1-18.2,5-25.4s6-13.8-0.9-11.5s-11.1,16.1-16.6,26.4s-12.9,10.4-12.9,10.4
			c-6.6,2,1.3-12.6,1.6-19.4c0.4-7.6-5.4-11.6-8-13s-4-3.6-2.8-5.5s2.4-9.4-4-5.2s-4.5,9.5-4.5,9.5s-0.1,4.4-6.6,19
			s-13.6,14.4-15.9,13.8s3.1-23.5,9.9-38.8s14.9-34.8,14.9-34.8c0.8-6.6-5.6-5.9-10.4,0.2S142,79.8,142,79.8s-5.2-10-21.3,2.5
			c0,0-17.4,17.1-17.4,30S117,129,128,116.4c2.9-3.3,3.6-8.8,4.2-1s8,8.8,17.9,5.4s20-27.9,21.2-31.9s5.5,3.5,4.9,4.5
			s-6,11.2-6.4,22.9c-0.4,11.8,16.5,8.1,21.5,3.5s6.5-8.4,6.2-4.5s3.4,7,3.4,7c3.5,5.4,15.5-0.5,20.5-5c5-4.5-5.4,22.1-6.5,25.9
			s0.4,11.6,5.6,8.9c5.2-2.8,11-30.4,11-30.4s11.9,6,26.6-6.8C273,102.1,271.3,84.5,260.2,80.3z M133.7,98.8
			c-4.8,8.8-13.9,16-13.9,16c-6,3.4-6.9-1.2-5.1-8.2s10.3-19.8,19-23.5C142.4,79.5,138.5,90,133.7,98.8z M250.4,112.1
			c-10.5,9.1-17.8,5.8-17.8,5.8s1.8-11.8,6.4-19.2s12.6-11.9,16.2-10.4C258.9,89.8,260.9,103,250.4,112.1z"/>
		<path class="st0" d="M222,71.1c0,0-8,0.5-5.9-7.4s11.9-4.6,11.7-1.5S228.9,69.5,222,71.1z"/>
	</g>
</g>
</svg>
