<?xml version="1.0" encoding="iso-8859-1"?><!-- Generator: Adobe Illustrator 16.0.0, SVG Export Plug-In . SVG Version: 6.00 Build 0) --><!DOCTYPE svg PUBLIC "-//W3C//DTD SVG 1.1//EN" "http://www.w3.org/Graphics/SVG/1.1/DTD/svg11.dtd"><svg version="1.1" id="Layer_1" xmlns="http://www.w3.org/2000/svg" xmlns:xlink="http://www.w3.org/1999/xlink" x="0px" y="0px" width="192.756px" height="192.756px" viewBox="0 0 192.756 192.756" style="enable-background:new 0 0 192.756 192.756;" xml:space="preserve"><g><polygon style="fill-rule:evenodd;clip-rule:evenodd;fill:#FFFFFF;" points="0,0 192.756,0 192.756,192.756 0,192.756 0,0	"/><path style="fill-rule:evenodd;clip-rule:evenodd;fill:#CC2229;" d="M67.998,123.359l0.234,0.176	c0.234,0.117,0.526,0.059,0.76-0.176c0.059-0.059,0.117-0.117,0.234-0.176c0.526-0.525,1.813-1.637,3.861-3.334	c0.936-0.76,1.989-1.639,3.217-2.574c0.351-0.291,0.585-0.408,0.761-0.408c0.175,0.117,0.468,0.467,0.819,1.053	c0.292,0.525,0.877,1.17,1.813,1.93c0.175,0.234,0.409,0.41,0.643,0.586c1.17,0.994,2.165,1.695,3.101,2.223	c0.702,0.408,1.169,0.584,1.521,0.525l7.137-5.908c0.643-0.643,0.818-1.111,0.702-1.287l-1.639-1.229	c-1.053-0.877-1.579-1.637-1.696-2.34V92.648c-0.059-1.404-0.468-2.633-1.345-3.569l-2.223-2.106	c-0.877-0.994-2.048-0.936-3.51,0.293l-6.61,5.265c-0.526,0.409-0.761,0.761-0.702,0.936l1.229,1.17	c0.819,0.877,1.17,1.58,1.053,2.105v18.838c0,0.701-0.351,0.936-0.995,0.584l-2.281-1.404c-1.17-0.701-2.048-1.754-2.75-3.158	V93.057l-0.292-1.989c0-0.292-0.526-0.995-1.579-1.989c-0.995-0.995-1.872-1.696-2.632-2.223c-0.527-0.41-1.112-0.468-1.755-0.292	l-1.112,0.702l-7.253,6.025c0.351,0.175,0.936,0.76,1.813,1.755c0.877,0.936,1.229,1.93,0.936,2.866v14.859	c0,0.818,0.059,1.521,0.175,1.988l0.877,2.516c0.351,0.762,1.112,1.639,2.398,2.574c0.176,0.176,0.41,0.293,0.585,0.469	L67.998,123.359L67.998,123.359z M25.235,65.387l-5.09-0.175c-1.696,0.292-2.69,0.643-3.042,1.112l-8.6,10.12l1.345,0.176h6.845	c1.053,0,2.106,0.175,3.042,0.526l17.374,5.265c0.936,0.292,1.346,1.111,1.17,2.223v25.681H26.405V80.831l-0.351-1.053	l-12.109,6.318v35.275c-0.058,0.818,0.059,1.287,0.351,1.404l1.755-0.352c2.106-0.586,5.148-0.936,9.067-0.936	c2.75,0,6.494,0.584,11.056,1.695l1.229,0.176l0.585-1.111c0.292-0.467,0.819-1.287,1.638-2.398	c0.585-0.76,1.346-1.639,2.223-2.691c1.053-1.404,2.75-2.924,5.089-4.68c1.93-1.463,3.334-2.398,4.095-2.691l1.696-0.701	c-0.059-0.584-0.292-1.404-0.643-2.34c-0.292-0.76-0.41-9.887-0.41-27.495c0-2.106-0.878-3.978-2.574-5.558	c-1.17-1.053-2.398-1.755-3.568-2.105L25.235,65.387L25.235,65.387z M162.531,99.902l-8.717-14.859l-19.596,4.738v26.324	c0,1.463,0.408,2.75,1.229,3.744c0.701,0.936,1.754,1.697,3.1,2.223c1.58,0.703,3.568,1.111,5.908,1.287	c0.762,0.059,1.463,0.117,2.281,0.117c0.936,0,1.814-0.059,2.691-0.117c2.34-0.117,4.445-0.525,6.377-1.111l3.686-10.236	l-12.109,1.695c-1.404,0-2.107-0.877-2.107-2.633c0-1.17,0.293-1.93,0.82-2.223L162.531,99.902L162.531,99.902z M151.008,102.943	l-5.441,2.926V94.11L151.008,102.943L151.008,102.943z M177.156,70.301c-0.586-0.644-1.346-1.229-2.281-1.872	c-1.111-0.702-1.814-0.936-2.105-0.644l-8.424,7.371l1.461,1.462c0.703,0.702,1.055,1.521,1.055,2.457v34.163	c0.057,0.234,0.232,0.703,0.643,1.404c1.229,2.225,2.398,3.979,3.393,5.207c0.352,0.469,0.645,0.818,0.994,1.17l2.457,1.93	c0.234,0.176,0.527,0.352,0.703,0.41c0.35,0.176,0.643,0.234,0.877,0.176l0.176-0.176l7.605-6.902	c0.525-0.527,0.643-0.877,0.467-1.053l-1.695-0.762c-0.703-0.35-1.463-0.936-2.166-1.812c-0.76-0.818-1.053-1.404-1.053-1.756	V75.917C179.262,73.752,178.561,71.881,177.156,70.301L177.156,70.301z M103.564,86.623c-0.818,0.117-1.346,0.234-1.58,0.526	l-6.434,5.265c-0.585,0.526-0.585,1.053-0.175,1.521l1.58,1.229c0.819,0.585,1.17,1.462,1.053,2.515	c0.117,8.658,0.117,13.865,0,15.504c-0.059,1.227-0.059,1.988,0.117,2.398c0.057,0.232,0.408,0.76,0.936,1.578	c0.584,0.703,1.521,1.639,2.924,2.691c1.055,0.818,2.342,1.697,3.803,2.691c0.762,0.467,1.287,0.76,1.697,0.818	c0.176,0.059,0.35,0.059,0.469,0c0.059,0,0.059,0,0.059,0l0.35-0.41l0.352-0.525c0.117-0.234,1.404-1.053,3.861-2.574	c1.111-0.643,2.398-1.404,3.859-2.34c1.346-0.76,5.09-2.34,11.35-4.562V86.623h-11.699v28.254	c-0.059,1.111-0.176,1.697-0.469,1.697l-1.287-0.762c-1.812-0.877-2.982-1.578-3.51-2.105c-0.818-0.701-1.229-1.287-1.229-1.812	v-19.13c0-1.17-0.525-2.282-1.578-3.393l-2.342-2.105C105.145,86.798,104.5,86.564,103.564,86.623L103.564,86.623z"/></g></svg>