<?xml version="1.0" encoding="utf-8"?>
<!-- Generator: Adobe Illustrator 18.1.1, SVG Export Plug-In . SVG Version: 6.00 Build 0)  -->
<svg version="1.1" id="Layer_1" xmlns:rdf="http://www.w3.org/1999/02/22-rdf-syntax-ns#" xmlns:svg="http://www.w3.org/2000/svg"
	 xmlns="http://www.w3.org/2000/svg" xmlns:xlink="http://www.w3.org/1999/xlink" x="0px" y="0px" viewBox="-98.9 190.8 512 205.1"
	 enable-background="new -98.9 190.8 512 205.1" xml:space="preserve">
<path id="e" fill="#E53238" d="M-32.7,235.5c-36.1,0-66.2,15.3-66.2,61.5c0,36.6,20.2,59.7,67.1,59.7c55.2,0,58.7-36.4,58.7-36.4
	H0.2c0,0-5.7,19.6-33.6,19.6c-22.7,0-39.1-15.3-39.1-36.9H29.8v-13.5C29.8,268.3,16.3,235.5-32.7,235.5L-32.7,235.5z M-33.6,252.8
	c21.6,0,36.4,13.2,36.4,33.1h-74.6C-71.9,264.8-52.6,252.8-33.6,252.8z"/>
<path id="b" fill="#0064D2" d="M29.8,190.8v142.8c0,8.1-0.6,19.5-0.6,19.5h25.5c0,0,0.9-8.2,0.9-15.6c0,0,12.6,19.7,46.9,19.7
	c36.1,0,60.6-25.1,60.6-61c0-33.4-22.5-60.3-60.6-60.3c-35.6,0-46.7,19.2-46.7,19.2v-64.3H29.8z M96,253.5
	c24.5,0,40.1,18.2,40.1,42.6c0,26.2-18,43.3-39.9,43.3c-26.2,0-40.3-20.4-40.3-43.1C55.9,275.3,68.5,253.5,96,253.5z"/>
<path id="a" fill="#F5AF02" d="M226.5,235.5c-54.3,0-57.8,29.7-57.8,34.5h27c0,0,1.4-17.4,28.9-17.4c17.9,0,31.7,8.2,31.7,23.9v5.6
	h-31.7c-42.1,0-64.3,12.3-64.3,37.3c0,24.6,20.6,38,48.3,38c37.9,0,50.1-20.9,50.1-20.9c0,8.3,0.6,16.5,0.6,16.5h24
	c0,0-0.9-10.2-0.9-16.7v-56.2C282.5,243.3,252.7,235.5,226.5,235.5L226.5,235.5z M256.4,298.9v7.5c0,9.7-6,33.9-41.3,33.9
	c-19.4,0-27.7-9.7-27.7-20.9C187.4,299.1,215.3,298.9,256.4,298.9L256.4,298.9z"/>
<path id="y" fill="#86B817" d="M267.9,240.2h30.4l43.7,87.5l43.6-87.5h27.6l-79.3,155.7h-28.9l22.9-43.4L267.9,240.2z"/>
</svg>
