<?xml version="1.0" encoding="UTF-8" standalone="no"?>
<svg width="2746px" height="512px" viewBox="0 0 2746 512" version="1.1" xmlns="http://www.w3.org/2000/svg" xmlns:xlink="http://www.w3.org/1999/xlink">
    <!-- Generator: Sketch 3.6.1 (26313) - http://www.bohemiancoding.com/sketch -->
    <title>edelkrone</title>
    <desc>Created with Sketch.</desc>
    <defs></defs>
    <g id="Page-1" stroke="none" stroke-width="1" fill="none" fill-rule="evenodd">
        <g id="edelkrone" transform="translate(1372.702864, 256.000000) scale(1, -1) translate(-1372.702864, -256.000000) " fill="#000000">
            <path d="M606.782386,477.41428 L572.415562,443.047456 L572.415562,373.219324 L572.415562,303.391193 L563.659684,313.460453 C541.55109,338.414707 511.562206,350.891834 473.911928,350.891834 C407.367251,350.891834 362.274476,311.928174 343.449337,238.378794 C339.946986,224.807183 339.290295,214.081231 339.290295,178.182129 C339.290295,139.437366 339.946986,132.213767 344.324925,115.796494 C359.428816,59.5399743 393.576742,20.3574177 439.982899,5.69132108 C462.529286,-1.31338179 501.93074,-1.09448482 522.725951,5.91021804 C539.362121,11.8204361 556.873878,24.0786661 567.380932,37.212484 L574.604532,46.4061565 L574.604532,27.3621206 L574.604532,8.53698162 L618.383925,8.53698162 L662.163318,8.53698162 L662.163318,260.268491 L662.163318,512 L651.656263,512 L641.368106,512 L606.782386,477.41428 L606.782386,477.41428 Z M534.546387,266.8354 C559.281744,254.358273 570.007696,233.563061 574.604532,188.689183 C579.858059,137.248397 564.316375,98.503634 531.044036,81.4296708 C501.055152,65.6690894 467.563916,75.3005558 447.644292,105.28944 C431.883711,128.930312 425.754596,160.451475 429.913638,194.818298 C433.197093,219.553655 437.356135,232.90637 445.67422,245.821291 C458.370244,264.64643 476.100898,273.183412 503.681915,273.402309 C519.004703,273.402309 523.163745,272.526721 534.546387,266.8354 L534.546387,266.8354 Z" id="Shape"></path>
            <path d="M1065.37153,476.319795 L1029.91022,440.858487 L1029.91022,224.588286 L1029.91022,8.53698162 L1075.87858,8.53698162 L1121.84694,8.53698162 L1121.84694,260.268491 L1121.84694,512 L1111.33989,512 L1101.05173,512 L1065.37153,476.319795 L1065.37153,476.319795 Z" id="Shape"></path>
            <path d="M1152.49252,260.268491 L1152.49252,8.53698162 L1197.3664,8.53698162 L1242.24027,8.53698162 L1242.24027,60.1966652 L1242.24027,111.856349 L1262.37879,133.527148 C1273.32364,145.347584 1282.95511,155.197948 1283.8307,155.197948 C1284.48739,155.197948 1301.34245,122.144506 1321.04318,81.8674647 L1356.72339,8.53698162 L1406.85079,8.53698162 C1436.83968,8.53698162 1456.7593,9.41256947 1456.7593,10.5070543 C1456.7593,11.8204361 1432.68063,59.1021804 1403.12954,116.015391 L1349.28089,219.553655 L1357.81787,228.309534 C1375.76742,247.35357 1458.07268,338.19581 1459.82386,340.822574 C1461.13724,342.792646 1449.7546,343.449337 1405.9752,343.449337 L1350.59427,343.23044 L1296.96451,281.282599 L1243.33476,219.115861 L1242.67807,331.191107 L1242.24027,443.047456 L1207.87345,477.41428 L1173.28773,512 L1162.99957,512 L1152.49252,512 L1152.49252,260.268491 L1152.49252,260.268491 Z" id="Shape"></path>
            <path d="M2690.68149,388.323215 C2679.73664,384.601967 2672.07525,377.378367 2667.04062,366.433519 C2650.18555,330.096622 2693.52715,293.321932 2726.79949,315.86832 C2748.68918,330.534416 2751.75374,360.304404 2733.1475,378.691749 C2725.705,386.353142 2713.00898,391.60667 2703.37751,391.60667 C2700.96965,391.387773 2695.27832,390.074391 2690.68149,388.323215 L2690.68149,388.323215 Z M2721.32706,376.940573 C2739.49551,365.120137 2741.46558,340.38478 2725.26721,326.156477 C2711.2578,313.898247 2693.08935,315.211629 2680.61223,329.221035 C2668.79179,342.792646 2669.66738,360.523301 2682.3634,372.781531 C2693.08935,383.069688 2709.28773,384.820864 2721.32706,376.940573 L2721.32706,376.940573 Z" id="Shape"></path>
            <path d="M2689.14921,352.205216 C2689.14921,332.723386 2689.14921,332.504489 2694.62163,332.504489 C2699.43737,332.504489 2700.09406,333.380077 2700.09406,340.165883 C2700.09406,344.324925 2700.96965,347.827277 2702.06413,347.827277 C2707.97435,347.827277 2711.03891,344.543822 2711.03891,338.852501 C2711.03891,333.817871 2712.13339,332.504489 2715.63574,332.504489 C2719.57589,332.504489 2720.01368,333.598974 2719.57589,342.354853 C2719.13809,347.60838 2719.57589,352.64301 2720.45147,353.518598 C2723.73493,356.802052 2721.76486,365.339034 2717.16802,368.403591 C2714.10346,370.592561 2707.53655,371.905943 2700.75075,371.905943 L2689.14921,371.905943 L2689.14921,352.205216 L2689.14921,352.205216 Z M2710.60111,358.334331 C2711.2578,355.48867 2709.94442,354.394186 2705.78538,354.394186 C2701.40744,354.394186 2700.09406,355.48867 2700.09406,358.991022 C2700.09406,362.274476 2701.18854,363.368961 2704.90979,362.71227 C2707.75545,362.274476 2710.16332,360.304404 2710.60111,358.334331 L2710.60111,358.334331 Z" id="Shape"></path>
            <path d="M132.870457,350.016246 C79.4595981,342.573749 40.4959384,315.211629 18.606242,270.118854 C3.0645575,237.941 -2.40786661,201.823001 1.31338179,155.854639 C8.09918769,70.0470286 45.3116717,21.2330056 116.015391,5.03463018 C140.094057,-0.656690894 191.09705,-0.656690894 211.235571,5.03463018 C251.512612,15.9794784 285.879436,43.5604959 302.734502,78.5840103 C307.769132,88.8721676 312.365968,99.8170158 313.241556,103.319367 L314.554938,109.229585 L268.367678,109.229585 L222.180419,109.229585 L219.115861,102.005985 C217.583583,98.0658401 212.111159,91.2800342 207.076528,86.9020949 C181.02779,64.5746045 134.84053,67.858059 112.294143,93.6879008 C103.10047,104.194955 93.4690038,125.427961 91.7178281,139.437366 L90.1855494,150.820009 L204.449765,150.820009 L318.495083,150.820009 L318.495083,170.082941 C318.495083,209.922189 306.674647,259.174006 291.132963,285.441642 C273.183412,315.430526 244.070115,336.882428 209.703292,345.857204 C190.002565,350.891834 153.008978,352.861907 132.870457,350.016246 L132.870457,350.016246 Z M185.624626,274.496794 C204.887559,266.397606 221.523728,243.194528 225.463873,219.334758 L226.996152,209.922189 L160.013681,209.922189 C104.194955,209.922189 93.0312099,210.359983 93.0312099,212.986746 C93.0312099,220.429243 102.443779,244.945703 108.353997,253.263788 C115.577597,263.333048 127.61693,272.088927 140.531851,276.90466 C150.820009,280.844805 173.80419,279.531424 185.624626,274.496794 L185.624626,274.496794 Z" id="Shape"></path>
            <path d="M818.893544,349.797349 C782.337751,344.762719 745.781958,325.718683 725.205643,300.983326 C711.852929,285.003848 698.938008,259.174006 692.589996,235.09534 C686.241984,211.454468 685.585293,155.197948 691.495511,125.646858 C705.723814,53.4108593 746.000855,13.3527148 814.734502,3.0645575 C888.940573,-8.09918769 946.510475,12.25823 980.220607,62.1667379 C988.757589,74.6438649 1001.23472,100.911501 1001.45361,106.602822 C1001.45361,108.572894 990.727661,109.229585 954.609662,109.229585 L907.765712,109.229585 L906.45233,103.976058 C904.26336,95.6579735 894.631894,85.3698162 882.373664,79.0218042 C872.523301,73.768277 868.802052,73.1115861 850.414707,73.1115861 C832.027362,73.1115861 828.306114,73.768277 818.45575,79.0218042 C797.222745,90.1855494 781.899957,114.045319 778.8354,140.312954 L777.522018,150.820009 L891.786233,150.820009 L1005.83155,150.820009 L1005.83155,165.705002 C1005.83155,204.230868 995.762292,250.418127 981.533989,278.218042 C969.93245,300.545532 947.604959,323.748611 927.685336,334.255665 C901.198803,348.265071 855.011543,354.831979 818.893544,349.797349 L818.893544,349.797349 Z M874.055579,273.402309 C893.537409,265.084224 908.422403,243.632322 912.362548,218.240274 L913.67593,209.922189 L846.693459,209.922189 L779.710988,209.922189 L781.243266,219.115861 C782.118854,224.150492 784.745618,232.687473 787.153484,238.159897 C802.914066,274.059 838.594271,288.506199 874.055579,273.402309 L874.055579,273.402309 Z" id="Shape"></path>
            <path d="M1624.87217,350.016246 C1604.51475,346.513895 1581.96836,333.16118 1569.05344,316.743908 L1561.82984,307.769132 L1561.82984,325.718683 L1561.82984,343.449337 L1519.14493,343.449337 L1476.46003,343.449337 L1476.46003,175.993159 L1476.46003,8.53698162 L1521.11501,8.53698162 L1565.98888,8.53698162 L1566.64558,107.697307 C1567.30227,204.887559 1567.52116,206.857631 1572.3369,219.115861 C1578.24711,233.781958 1591.38093,248.229158 1604.29585,253.701582 C1617.21077,259.6118 1640.63275,262.895254 1657.05002,261.144079 L1671.27832,259.6118 L1671.27832,306.017956 L1671.27832,352.205216 L1653.32877,351.986319 C1643.25951,351.767422 1630.56349,350.891834 1624.87217,350.016246 L1624.87217,350.016246 Z" id="Shape"></path>
            <path d="M1797.14408,348.921761 C1727.31595,336.006841 1680.2531,287.630611 1667.77597,216.270201 C1662.96024,188.689183 1664.49252,143.815306 1671.27832,119.298846 C1687.03891,60.4155622 1725.34587,22.1085934 1784.22916,5.91021804 C1809.18341,-0.875587858 1861.71868,-0.875587858 1886.67294,5.91021804 C1958.25224,25.6109448 1999.84267,80.335186 2005.31509,161.983754 C2011.00641,244.507909 1974.45062,311.709277 1909.21932,338.852501 C1879.01154,351.329628 1832.60539,355.48867 1797.14408,348.921761 L1797.14408,348.921761 Z M1865.65883,270.556648 C1894.33433,260.487388 1909.21932,238.159897 1914.47285,196.788371 C1916.44292,181.465584 1916.44292,171.61522 1914.47285,156.073536 C1907.46815,98.941428 1880.76272,73.768277 1829.75973,76.8328345 C1799.98974,78.5840103 1780.9457,90.6233433 1769.12527,114.702009 C1760.58829,132.213767 1757.74263,147.536554 1757.96152,177.087644 C1757.96152,198.977341 1758.83711,207.514322 1762.77726,219.991449 C1771.75203,248.885849 1788.3882,265.959812 1813.99914,272.526721 C1827.78965,276.029072 1852.52501,275.153484 1865.65883,270.556648 L1865.65883,270.556648 Z" id="Shape"></path>
            <path d="M2193.34758,350.016246 C2163.79649,344.762719 2139.28003,329.002138 2123.51945,305.361265 L2117.82813,296.824284 L2117.82813,320.246259 L2117.82813,343.449337 L2075.14322,343.449337 L2032.45832,343.449337 L2032.45832,175.993159 L2032.45832,8.53698162 L2077.1133,8.53698162 L2121.98717,8.53698162 L2122.64386,115.3587 C2123.51945,231.374091 2123.73835,234.438649 2136.43437,251.512612 C2149.78709,269.68106 2176.49252,278.436939 2204.29243,273.840103 C2223.11757,270.775545 2233.18683,264.427533 2239.09705,251.731509 C2243.47499,241.881146 2243.69389,238.597691 2244.35058,125.209064 L2245.00727,8.53698162 L2290.75673,8.53698162 L2336.7251,8.53698162 L2336.7251,126.303549 C2336.7251,190.878153 2335.63061,250.855921 2334.53613,259.392903 C2329.0637,302.077811 2304.10945,333.817871 2266.67807,345.857204 C2250.69859,351.110731 2211.73493,353.299701 2193.34758,350.016246 L2193.34758,350.016246 Z" id="Shape"></path>
            <path d="M2494.7687,350.016246 C2460.40188,345.200513 2433.47755,332.723386 2410.49337,310.83369 C2392.32493,293.321932 2382.25566,277.780248 2373.71868,254.139376 C2364.52501,227.87174 2362.33604,208.38991 2363.64942,166.799487 C2364.9628,123.895682 2368.90295,105.28944 2383.13125,76.3950406 C2400.86191,40.0581445 2434.35314,14.8849936 2477.91364,4.81573322 C2501.77341,-0.437793929 2552.9953,-0.656690894 2573.13382,4.81573322 C2614.28645,15.7605814 2647.55879,42.903805 2665.94613,80.7729799 C2671.41855,92.374519 2676.01539,103.538264 2676.01539,105.508337 C2676.01539,108.791791 2671.85635,109.229585 2630.04703,109.229585 L2584.07867,109.229585 L2581.01411,102.005985 C2576.85507,91.9367251 2561.09448,79.0218042 2548.17956,75.3005558 C2514.68833,65.2312954 2480.5404,78.3651133 2464.99872,107.040616 C2458.65071,118.642155 2452.74049,137.248397 2452.74049,146.004275 L2452.74049,150.820009 L2566.56691,150.820009 L2680.39333,150.820009 L2680.39333,169.645147 C2680.39333,180.152202 2678.86105,198.758444 2677.10988,211.235571 C2665.94613,286.31723 2631.14151,330.534416 2571.16375,345.857204 C2551.90081,350.891834 2514.68833,352.861907 2494.7687,350.016246 L2494.7687,350.016246 Z M2549.93074,273.402309 C2569.19367,264.208636 2582.98418,244.070115 2587.58102,218.240274 L2588.8944,209.922189 L2521.91193,209.922189 L2454.71056,209.922189 L2456.24284,218.240274 C2461.05857,245.1646 2477.25695,266.8354 2499.14664,275.372381 C2513.81274,281.282599 2534.82685,280.407012 2549.93074,273.402309 L2549.93074,273.402309 Z" id="Shape"></path>
        </g>
    </g>
</svg>