<?xml version="1.0" encoding="UTF-8" standalone="no"?>
<svg width="378px" height="512px" viewBox="0 0 378 512" version="1.1" xmlns="http://www.w3.org/2000/svg" xmlns:xlink="http://www.w3.org/1999/xlink">
    <!-- Generator: Sketch 3.6.1 (26313) - http://www.bohemiancoding.com/sketch -->
    <title>edf</title>
    <desc>Created with Sketch.</desc>
    <defs></defs>
    <g id="Page-1" stroke="none" stroke-width="1" fill="none" fill-rule="evenodd">
        <g id="edf">
            <g id="g1348" transform="translate(0.594943, 0.671082)">
                <path d="M281.958045,323.250498 C274.525171,315.570935 253.518308,301.419531 249.54261,301.413641 C246.954679,301.40981 243.057332,298.852135 242.199222,296.594468 C241.616486,295.061287 241.796837,294.176963 243.129417,292.033418 C244.645887,289.594091 244.770817,288.605416 244.640984,280.071304 C244.538489,273.333626 244.193649,270.214244 243.390463,268.759067 C242.24043,266.675499 240.872712,263.727392 238.733853,258.7218 C238.047791,257.116192 235.935686,254.084506 234.040303,251.984721 C232.144913,249.884936 229.694841,246.807599 228.595706,245.146196 C227.303349,243.192734 224.00978,240.379373 219.273782,237.183433 C212.143242,232.371609 208.2005,228.848613 206.627894,225.883844 C205.267918,223.319944 208.219557,219.376593 214.367837,215.543401 L219.785695,212.680369 L226.51636,212.992988 C260.2492,217.13974 297.870455,240.123636 316.332719,267.864342 C323.473327,278.593568 328.272349,291.62155 328.309631,300.378265 C328.32453,303.878928 325.183325,312.218345 323.214077,313.906175 C322.458425,314.55384 320.218785,315.298893 318.237097,315.561856 C315.707287,315.897544 312.597783,317.268624 307.798068,320.164754 C299.69422,325.054581 296.183317,326.230309 289.685344,326.230309 C284.97586,326.230309 284.762501,326.148036 281.958045,323.250498 L281.958045,323.250498 Z M88.1318972,321.838789 C84.0409868,320.093085 82.8333371,319.903061 77.85905,320.222388 L72.2220911,320.584255 L71.4039827,318.236732 C70.5985687,315.925635 70.522225,315.892757 66.4835558,316.117702 C64.2272804,316.24337 61.9801821,316.09337 61.4900034,315.784356 C60.9998256,315.47535 59.9167406,313.680222 59.0831486,311.795195 C57.4058849,308.002333 54.9762065,305.065479 53.5156145,305.065479 C51.5386575,305.065479 50.3405219,301.687872 50.0004456,295.156026 C49.7704092,290.737707 48.5308342,284.12823 46.1444075,274.595422 C44.2100463,266.868435 42.8038135,260.547763 43.0194454,260.549478 C43.2350772,260.5512 44.8889541,261.53527 46.6947267,262.736308 C48.5004994,263.937347 52.1120447,265.660142 54.7203829,266.564749 C58.9129083,268.018765 60.8164349,268.202352 71.1364978,268.148017 C81.5979406,268.092937 83.4920611,267.882311 89.3766254,266.119718 C97.8931964,263.56875 107.893835,258.728084 113.662545,254.364451 C118.89663,250.405226 122.511379,246.180135 129.477984,235.878621 C134.287519,228.766764 134.484651,228.583031 140.575438,225.535865 C146.316022,222.6639 147.122834,222.45566 151.443278,222.730846 C155.373471,222.981175 156.457365,223.360828 158.309548,225.135857 C160.804848,227.527213 162.648845,232.00726 164.623689,240.476257 C165.724824,245.198393 165.975574,249.105924 165.935045,260.911265 C165.863624,281.710593 164.397811,286.581912 154.295786,299.591816 C147.616762,308.1934 143.193159,312.05534 138.434623,313.439096 C136.238855,314.077617 132.182272,315.964834 129.419995,317.632914 C120.411568,323.072925 118.60519,323.518788 104.934703,323.676597 C93.1758689,323.812337 92.6123,323.750696 88.1318972,321.838789 L88.1318972,321.838789 Z M70.7716952,198.176148 C70.169771,198.031534 67.2148703,197.518892 64.2052493,197.03694 C34.8314696,192.333122 5.19338284,170.632369 0.690058028,150.531663 C0.0288192244,147.580213 0.22876323,146.935985 4.65588575,137.753609 C7.22008151,132.435165 10.0943165,127.366648 11.0430745,126.490227 C14.2714334,123.508029 19.8790717,122.313464 20.6927871,124.434603 C22.0282884,127.915897 26.9290576,122.599978 27.5619185,116.983583 L27.9147679,113.852188 L30.9928894,113.852188 L34.0710102,113.852188 L34.5151901,106.559146 C35.0402957,97.9373676 36.0696627,94.0574602 38.4172824,91.8513332 C40.0982415,90.2716851 40.1629502,90.2663428 41.1561572,91.6250373 C41.7156396,92.3904014 43.0624096,95.3235695 44.1489799,98.1431919 C45.2355501,100.962814 47.7546511,106.142885 49.7469837,109.654466 C59.27083,126.440694 70.1192699,138.095465 78.8497443,140.920342 C80.225422,141.36546 82.4589986,142.224687 83.8132479,142.829731 C87.9288335,144.668465 93.8581591,144.749446 105.275042,143.122856 C122.232742,140.706854 126.717085,141.177115 131.395291,145.86203 C133.44438,147.914048 134.339992,149.681487 135.330292,153.627472 C137.522923,162.364358 137.538967,165.087826 135.424988,169.706722 C132.311026,176.510536 121.029273,187.168633 111.994384,191.842076 C105.872581,195.008678 76.4227129,199.533799 70.7716952,198.176148 L70.7716952,198.176148 Z M320.661444,187.849127 C317.852464,187.278486 313.939993,186.898818 311.967068,187.005431 L308.379935,187.199271 L307.452848,183.615825 C306.18726,178.723961 303.060713,174.637806 297.8287,171.0378 C286.136238,162.992515 268.001612,159.987671 236.344294,160.850036 C215.880068,161.407496 217.104972,161.74641 214.464911,154.796274 C212.809342,150.437867 212.636309,145.435041 214.026119,142.109338 C214.565903,140.817678 217.036638,137.882072 219.516646,135.585776 C229.911001,125.961398 247.131914,118.672697 268.494679,114.855985 C279.271669,112.93054 307.736533,112.883876 316.243408,114.777697 C330.796293,118.0175 340.881727,122.902372 349.019699,130.652882 C356.836352,138.097377 361.339825,146.589458 363.349165,157.673618 C364.106677,161.852286 364.042603,162.630903 362.694403,165.62966 C361.872451,167.4579 360.862787,170.297359 360.450706,171.939575 C360.038625,173.581783 359.125525,175.428006 358.421587,176.042282 C357.028267,177.258129 351.457244,179.144536 347.104281,179.874445 C344.661862,180.283984 344.410287,180.522943 344.797364,182.065625 C345.432931,184.59869 342.953309,185.893781 334.228757,187.585537 C330.149178,188.376598 326.576746,188.992969 326.290012,188.955244 C326.003277,188.917527 323.470423,188.419774 320.661444,187.849127 L320.661444,187.849127 Z M157.514337,118.552875 C154.904824,117.748962 153.691936,116.819549 152.104235,114.407232 C150.978658,112.697049 149.413874,110.839645 148.626937,110.279667 C143.951343,106.952512 135.850603,97.6516497 128.918406,87.6513332 L121.026391,76.2663698 L121.455801,72.2082859 C121.761111,69.322954 121.548358,67.3437731 120.719607,65.3597082 C116.976419,56.3983397 121.858229,40.3273027 131.90743,28.5290777 C142.893021,15.6314902 149.145795,10.5787739 157.200833,8.09008764 L161.768183,6.67895837 L167.802243,8.43375266 L173.836303,10.188547 L180.1252,8.81314173 C183.584098,8.05666838 192.282092,5.76424537 199.454067,3.71886796 C213.722326,-0.350297078 218.587742,-0.881194168 220.65642,1.40534193 C222.931453,3.91997705 221.816514,5.28287189 214.503135,8.92705595 C207.754959,12.2896066 207.478767,12.5275891 204.003541,17.9740019 C199.438701,25.12808 198.578329,28.1226524 197.746652,39.7515208 L197.066412,49.2629662 L200.234656,52.5471639 C201.977187,54.3534727 203.947916,56.9157388 204.614053,58.2410877 C205.761729,60.5245225 205.747202,60.859337 204.337007,64.6295522 C203.5185,66.8178584 201.662676,74.4262046 200.212958,81.536989 C198.76324,88.6477734 196.915595,96.6108144 196.107083,99.2326406 C192.766455,110.065538 187.466895,117.002829 181.897601,117.833293 C180.368852,118.061253 177.71797,118.572434 176.006762,118.96926 C171.570631,119.997988 161.466702,119.770481 157.514337,118.552875 L157.514337,118.552875 Z" id="path1352" fill="#F05921"></path>
                <path d="M52.5315676,510.441698 C43.6657784,508.789119 38.8812427,507.401698 33.6415282,504.963948 C14.0905949,495.867968 3.25190219,477.684095 0.618809295,449.562327 C-1.11882338,431.004194 1.87575089,411.891915 8.67931448,398.117749 C17.2871043,380.690832 32.1356575,370.165073 52.5315676,367.032014 C60.4116435,365.821532 76.9474303,366.580941 84.2693897,368.489578 C99.4825316,372.455225 110.618918,381.17863 117.008952,394.135272 C122.75735,405.790905 125.492078,419.967516 125.492078,438.111074 L125.492078,447.144501 L100.867906,447.626344 C87.3246111,447.891364 69.1437638,448.108719 60.4660231,448.109369 C41.3132806,448.110785 40.1282808,448.284176 40.1282808,451.085129 C40.1282808,454.969722 41.7464712,460.883095 43.9580845,465.080417 C46.7809165,470.437754 51.3400283,474.628667 57.5077597,477.535817 C61.8810732,479.597169 63.2180812,479.860825 70.5352609,480.104855 C83.5464605,480.538785 96.1159367,477.26409 106.282969,470.7916 L110.786026,467.92489 L117.889695,480.399864 L124.993364,492.874831 L122.871504,494.617572 C119.389909,497.477101 105.159487,504.120588 98.3228681,506.07813 C87.8613669,509.073589 79.8541479,510.194317 66.7588671,510.495975 C59.9370594,510.65312 53.5347746,510.628693 52.5315676,510.441698 L52.5315676,510.441698 Z M85.8750243,418.005391 C85.3444628,410.472156 84.4838352,407.535558 81.5137223,403.12391 C79.8961367,400.721249 77.9405688,398.996213 75.2484135,397.597196 C71.7766861,395.793069 70.5586235,395.563373 64.4633033,395.563373 C59.9442322,395.563373 56.6767716,395.945865 54.9186224,396.680686 C46.5643047,400.172379 41.7900199,407.864386 40.5503143,419.829945 L40.1155339,424.02642 L63.2073115,424.02642 L86.2990854,424.02642 L85.8750243,418.005391 L85.8750243,418.005391 Z M145.921021,438.987765 L145.921021,369.289791 L179.387285,369.289791 C216.161017,369.289791 220.371101,369.641214 231.271861,373.620677 C256.217395,382.727378 269.951664,405.422315 269.946651,437.528122 C269.940165,479.103686 249.47016,503.031511 209.761468,507.879878 C206.019586,508.336753 190.876778,508.682514 174.558021,508.683681 L145.921021,508.685739 L145.921021,438.987765 L145.921021,438.987765 Z M208.247639,480.609994 C220.227018,477.381255 226.965979,470.070515 230.701448,456.251048 C232.7954,448.504414 232.970914,428.905117 231.009626,421.836955 C227.068482,407.633726 218.628505,399.010233 205.680735,395.957316 C202.86516,395.293441 197.451899,394.850833 192.068544,394.844338 L183.130881,394.833551 L183.130881,438.73005 L183.130881,482.62655 L193.527754,482.200852 C199.359386,481.962076 205.822848,481.263535 208.247639,480.609994 L208.247639,480.609994 Z M288.194017,438.987765 L288.194017,369.289791 L332.335126,369.289791 L376.476234,369.289791 L376.476234,382.621802 L376.476234,395.953805 L350.757654,395.941048 L325.039074,395.928284 L325.039074,409.794896 L325.039074,423.661509 L347.839234,423.854364 L370.639394,424.047212 L370.639394,436.705182 L370.639394,449.363144 L347.839234,449.284207 L325.039074,449.205269 L325.128597,478.945504 L325.21812,508.685739 L306.706068,508.685739 L288.194017,508.685739 L288.194017,438.987765 L288.194017,438.987765 Z" id="path1350" fill="#003873"></path>
            </g>
        </g>
    </g>
</svg>