<?xml version="1.0" encoding="iso-8859-1"?><!-- Generator: Adobe Illustrator 16.0.0, SVG Export Plug-In . SVG Version: 6.00 Build 0) --><!DOCTYPE svg PUBLIC "-//W3C//DTD SVG 1.1//EN" "http://www.w3.org/Graphics/SVG/1.1/DTD/svg11.dtd"><svg version="1.1" id="Layer_1" xmlns="http://www.w3.org/2000/svg" xmlns:xlink="http://www.w3.org/1999/xlink" x="0px" y="0px" width="192.756px" height="192.756px" viewBox="0 0 192.756 192.756" style="enable-background:new 0 0 192.756 192.756;" xml:space="preserve"><g><polygon style="fill-rule:evenodd;clip-rule:evenodd;fill:#FFFFFF;" points="0,0 192.756,0 192.756,192.756 0,192.756 0,0	"/><path style="fill-rule:evenodd;clip-rule:evenodd;" d="M152.42,83.923c-0.125-0.248-0.125-0.496-0.125-0.743v-3.839	c0-1.301,1.301-2.354,2.912-2.354h7.059c1.609,0,2.91,1.053,2.91,2.354v3.839c0,0.248-0.061,0.495-0.123,0.681	c-1.486-1.796-3.777-2.911-6.316-2.911S153.906,82.127,152.42,83.923L152.42,83.923L152.42,83.923z"/><path style="fill-rule:evenodd;clip-rule:evenodd;" d="M135.143,85.905c1.609,0,2.91-1.053,2.91-2.353v-3.839	c0-1.301-1.301-2.354-2.91-2.354h-7.061c-1.609,0-2.91,1.053-2.91,2.354v3.839c0,1.3,1.301,2.353,2.91,2.353H135.143	L135.143,85.905z"/><path style="fill-rule:evenodd;clip-rule:evenodd;" d="M140.344,93.46c1.549,0,1.609,3.282,1.609,4.21	c0,0.867-0.061,4.15-1.609,4.15c-1.486,0-1.549-3.283-1.549-4.15C138.795,96.742,138.857,93.46,140.344,93.46L140.344,93.46z"/><path style="fill-rule:evenodd;clip-rule:evenodd;" d="M182.205,80.083l-4.705-0.248c-1.178-0.062-2.168,0.867-2.23,2.044	l-0.434,1.052c-2.477-5.14-6.502-12.075-10.156-12.261c-0.865-0.062-19.195,0-19.195,0c-9.104-0.062-18.207-0.062-19.074,0	c-5.264,0.31-11.27,14.553-12.447,17.339c-6.191,5.697-3.715,24.152-1.92,25.699c0.248,0,0.744,0,1.549,0v4.521	c0,1.98,1.549,3.592,3.529,3.592h4.83c1.982,0,3.592-1.611,3.592-3.592v-4.396c5.141,0.061,11.271,0.061,17.402,0.061	c0,0,12.385-0.061,22.727-0.061v4.705c0,1.982,1.547,3.592,3.529,3.592h4.83c1.982,0,3.592-1.609,3.592-3.592v-4.768	c0.805,0,1.363,0,1.486,0c1.795-1.549,4.334-20.188-1.982-25.823c-0.123-0.248-0.246-0.62-0.494-1.115l5.264-0.186	c1.176,0.062,2.166-0.867,2.229-2.043l0.125-2.292C184.311,81.136,183.383,80.146,182.205,80.083L182.205,80.083z M153.781,84.728	c-0.682-0.062-7.926-0.31-7.926-0.31c-9.66-0.062-21.426,0.434-28.734,1.981c1.672-4.272,5.574-12.88,10.527-13.004	c0.496-0.062,8.547-0.062,17.031-0.062v0.867h-3.098c-0.867,0-1.609,0.805-1.609,1.858c0,0.991,0.742,1.796,1.609,1.796h7.74	c0.93,0,1.674-0.805,1.674-1.796c0-1.053-0.744-1.858-1.674-1.858h-3.158v-0.867c3.592,0,16.844,0,17.277,0	c4.955,0.186,8.918,8.855,10.59,13.128c-1.92-0.372-9.227-1.053-9.846-1.115l0,0c-1.178-1.733-3.158-2.849-5.449-2.849	C156.754,82.499,155.02,83.366,153.781,84.728L153.781,84.728L153.781,84.728z M113.654,100.83c0-2.727,2.166-4.893,4.83-4.893	c2.662,0,4.83,2.167,4.83,4.893c0,2.662-2.168,4.828-4.83,4.828C115.82,105.658,113.654,103.492,113.654,100.83L113.654,100.83z M167.344,101.016c0-2.725,2.168-4.893,4.83-4.893s4.83,2.168,4.83,4.893c0,2.662-2.168,4.83-4.83,4.83	S167.344,103.678,167.344,101.016L167.344,101.016z M133.594,105.102c-0.805,0.371-1.609,0.557-2.477,0.557	c-4.211,0-5.697-4.396-5.697-7.926c0-3.901,1.549-8.174,6.006-8.174c0.744,0,1.426,0.186,2.168,0.495v3.778	c-0.434-0.372-0.742-0.496-1.301-0.496c-2.105,0-2.539,2.539-2.539,4.148c0,1.672,0.311,4.15,2.479,4.15	c0.494,0,0.928-0.186,1.361-0.496V105.102L133.594,105.102z M140.406,105.721c-3.158,0-5.945-1.857-5.945-8.051	c0-6.749,3.469-8.049,5.945-8.049c2.787,0,5.883,1.796,5.883,8.049C146.289,103.986,143.316,105.721,140.406,105.721	L140.406,105.721z M151.924,92.407h0.062c0.742-1.548,1.98-2.848,3.777-2.848c1.609,0,2.477,1.238,2.662,2.663h0.062	c0.742-1.362,2.105-2.663,3.777-2.663c2.787,0,2.787,3.096,2.787,5.14v10.651h-4.336V96.99c0-0.806,0.186-3.097-1.113-3.097	c-0.992,0-1.178,1.053-1.178,1.734v9.722h-4.273v-8.67c0-0.743,0.188-2.725-1.053-2.725c-1.053,0-1.238,0.991-1.238,1.796v9.599	h-4.334V89.868h4.334L151.924,92.407L151.924,92.407z"/><path style="fill-rule:evenodd;clip-rule:evenodd;" d="M12.034,115.381c-0.681,0-1.177-0.246-1.548-0.742	c-0.31-0.434-0.434-0.99-0.434-1.734c0-1.115,0.31-1.734,0.805-2.105c0.31-0.371,0.743-0.496,1.239-0.496s0.929,0.125,1.3,0.496	l-0.434,0.619c-0.31-0.309-0.557-0.371-0.867-0.371c-0.372,0-0.681,0.186-0.867,0.496c-0.124,0.309-0.186,0.805-0.186,1.484	c0,0.682,0.124,1.115,0.372,1.363c0.186,0.186,0.371,0.311,0.681,0.311c0.372,0,0.681-0.188,0.991-0.496l0.434,0.557	C13.086,115.195,12.653,115.381,12.034,115.381L12.034,115.381z"/><path style="fill-rule:evenodd;clip-rule:evenodd;" d="M17.917,112.967c0,1.238-0.371,1.734-1.053,1.734	c-0.743,0-1.114-0.496-1.114-1.92c0-1.238,0.31-1.797,1.053-1.797C17.483,110.984,17.917,111.418,17.917,112.967L17.917,112.967z M18.908,112.904c0-1.486-0.682-2.602-2.105-2.602c-1.239,0-2.044,0.992-2.044,2.539c0,1.611,0.805,2.539,2.105,2.539	C18.103,115.381,18.908,114.453,18.908,112.904L18.908,112.904z"/><path style="fill-rule:evenodd;clip-rule:evenodd;" d="M23.428,115.258v-3.221c0-0.494,0-0.619-0.124-0.742	c-0.124-0.186-0.31-0.248-0.495-0.248c-0.372,0-0.867,0.311-1.177,0.619v3.592h-0.929v-3.592c0-0.557,0-0.805-0.186-1.115	l0.867-0.248c0.124,0.248,0.186,0.434,0.186,0.744c0.248-0.248,0.433-0.371,0.62-0.496c0.248-0.123,0.557-0.248,0.867-0.248	c0.496,0,0.991,0.311,1.176,0.682c0.062,0.186,0.062,0.434,0.062,0.619v3.654H23.428L23.428,115.258z"/><path style="fill-rule:evenodd;clip-rule:evenodd;" d="M27.639,115.381c-0.558,0-1.239-0.186-1.796-0.494l0.372-0.619	c0.434,0.246,0.991,0.494,1.548,0.494c0.495,0,0.867-0.309,0.867-0.805c0-0.434-0.248-0.682-0.805-0.742l-0.619-0.125	c-0.743-0.186-1.177-0.619-1.177-1.361c0-0.867,0.743-1.486,1.796-1.486c0.558,0,1.115,0.186,1.486,0.371l-0.31,0.619	c-0.434-0.186-0.805-0.309-1.177-0.309c-0.495,0-0.805,0.246-0.805,0.68c0,0.371,0.186,0.559,0.681,0.682l0.619,0.125	c0.867,0.246,1.238,0.742,1.238,1.361C29.559,114.762,28.816,115.381,27.639,115.381L27.639,115.381z"/><path style="fill-rule:evenodd;clip-rule:evenodd;" d="M34.513,115.443c-0.248-0.186-0.372-0.371-0.433-0.682	c-0.372,0.434-0.867,0.682-1.486,0.682c-0.62,0-1.053-0.309-1.301-0.742c-0.062-0.188-0.124-0.434-0.124-0.807v-3.404l0.929-0.188	v3.346c0,0.494,0,0.68,0.186,0.865c0.124,0.125,0.371,0.188,0.557,0.188c0.434,0,0.929-0.311,1.115-0.744v-3.467l0.867-0.188v3.654	c0,0.496,0.124,0.805,0.31,0.992L34.513,115.443L34.513,115.443z"/><path style="fill-rule:evenodd;clip-rule:evenodd;" d="M42.129,115.258v-3.469c0-0.557-0.186-0.742-0.557-0.742	c-0.496,0-0.805,0.311-1.176,0.682v3.529h-0.867v-3.406c0-0.557-0.124-0.742-0.558-0.742c-0.371,0-0.743,0.123-1.114,0.557v3.592	H36.99v-3.529c0-0.682-0.062-0.867-0.186-1.178l0.805-0.248c0.124,0.188,0.186,0.434,0.186,0.682	c0.372-0.434,0.867-0.682,1.362-0.682c0.434,0,0.867,0.248,1.115,0.744c0.495-0.496,0.991-0.744,1.486-0.744	c0.743,0,1.238,0.496,1.238,1.363v3.592H42.129L42.129,115.258z"/><path style="fill-rule:evenodd;clip-rule:evenodd;" d="M47.703,112.41h-1.981c0-0.93,0.31-1.426,0.991-1.426	c0.31,0,0.557,0.125,0.681,0.311C47.641,111.543,47.703,111.914,47.703,112.41L47.703,112.41z M48.632,113.027	c0-0.061,0-0.123,0-0.123c0-1.115-0.124-1.672-0.557-2.105c-0.372-0.371-0.805-0.496-1.301-0.496c-0.619,0-1.114,0.188-1.486,0.621	c-0.433,0.494-0.557,1.051-0.557,1.918c0,1.549,0.805,2.539,2.167,2.539c0.619,0,1.177-0.186,1.672-0.619l-0.372-0.557	c-0.372,0.309-0.743,0.496-1.176,0.496c-0.496,0-0.867-0.188-1.115-0.559c-0.124-0.248-0.186-0.557-0.186-0.99v-0.125H48.632	L48.632,113.027z"/><path style="fill-rule:evenodd;clip-rule:evenodd;" d="M52.595,111.232c-0.124-0.062-0.186-0.062-0.248-0.062	c-0.557,0-0.991,0.434-0.991,0.992v3.096h-0.929v-3.529c0-0.619-0.062-0.93-0.186-1.238l0.867-0.188	c0.062,0.188,0.186,0.496,0.186,0.744v0.062c0.372-0.559,0.805-0.807,1.301-0.807c0.124,0,0.248,0,0.31,0L52.595,111.232	L52.595,111.232z"/><path style="fill-rule:evenodd;clip-rule:evenodd;" d="M59.593,114.02c-0.186,0.309-0.496,0.557-0.991,0.557	c-0.372,0-0.558-0.062-0.743-0.248c-0.248-0.246-0.372-0.494-0.372-1.424c0-0.619,0.062-1.053,0.248-1.361	c0.186-0.311,0.495-0.496,0.867-0.496c0.433,0,0.743,0.186,0.991,0.496V114.02L59.593,114.02z M60.645,115.258	c-0.124-0.309-0.124-0.805-0.124-1.609v-5.326l-0.929-0.125v1.859c0,0.309,0.062,0.742,0.062,0.867	c-0.372-0.373-0.743-0.559-1.177-0.559c-0.372,0-0.681,0.062-0.991,0.248c-0.62,0.434-0.991,1.238-0.991,2.291	c0,1.549,0.743,2.416,1.981,2.416c0.495,0,0.867-0.125,1.238-0.496c0,0.248,0,0.311,0.062,0.434H60.645L60.645,115.258z"/><path style="fill-rule:evenodd;clip-rule:evenodd;" d="M64.733,111.232c-0.062-0.062-0.124-0.062-0.248-0.062	c-0.557,0-0.991,0.434-0.991,0.992v3.096h-0.867v-3.529c0-0.619-0.124-0.93-0.186-1.238l0.805-0.188	c0.124,0.188,0.186,0.496,0.186,0.744v0.062c0.372-0.559,0.805-0.807,1.301-0.807c0.124,0,0.248,0,0.309,0L64.733,111.232	L64.733,111.232z"/><path style="fill-rule:evenodd;clip-rule:evenodd;" d="M66.776,109.561c-0.371,0-0.619-0.248-0.619-0.619s0.31-0.619,0.619-0.619	c0.372,0,0.682,0.248,0.682,0.619S67.148,109.561,66.776,109.561L66.776,109.561z M66.343,115.258v-4.768l0.929-0.188v4.955H66.343	L66.343,115.258z"/><path style="fill-rule:evenodd;clip-rule:evenodd;" d="M71.049,115.32h-0.805l-1.734-4.83l0.929-0.188l0.929,2.912	c0.124,0.371,0.248,0.742,0.31,1.053l0,0c0.062-0.311,0.186-0.682,0.31-1.053l0.929-2.787h0.929L71.049,115.32L71.049,115.32z"/><path style="fill-rule:evenodd;clip-rule:evenodd;" d="M76.684,112.41h-1.981c0-0.93,0.372-1.426,0.991-1.426	c0.31,0,0.557,0.125,0.743,0.311C76.622,111.543,76.684,111.914,76.684,112.41L76.684,112.41z M77.613,113.027	c0-0.061,0-0.123,0-0.123c0-1.115-0.124-1.672-0.557-2.105c-0.372-0.371-0.805-0.496-1.3-0.496c-0.619,0-1.115,0.188-1.486,0.621	c-0.372,0.494-0.558,1.051-0.558,1.918c0,1.549,0.805,2.539,2.168,2.539c0.619,0,1.176-0.186,1.672-0.619l-0.372-0.557	c-0.309,0.309-0.743,0.496-1.176,0.496s-0.867-0.188-1.115-0.559c-0.124-0.248-0.186-0.557-0.186-0.99v-0.125H77.613	L77.613,113.027z"/><path style="fill-rule:evenodd;clip-rule:evenodd;" d="M82.134,115.258v-3.221c0-0.494,0-0.619-0.124-0.742	c-0.124-0.186-0.31-0.248-0.496-0.248c-0.371,0-0.867,0.311-1.176,0.619v3.592h-0.929v-3.592c0-0.557,0-0.805-0.186-1.115	l0.867-0.248c0.124,0.248,0.186,0.434,0.186,0.744c0.248-0.248,0.372-0.371,0.619-0.496c0.248-0.123,0.558-0.248,0.867-0.248	c0.495,0,0.991,0.311,1.177,0.682C83,111.17,83,111.418,83,111.604v3.654H82.134L82.134,115.258z"/><path style="fill-rule:evenodd;clip-rule:evenodd;" d="M16.74,95.689h-3.53v-0.495c0-1.115,0.31-3.097,1.734-3.097	c1.548,0,1.796,2.044,1.796,3.158V95.689L16.74,95.689z M20.889,96.68c0.248-5.449-2.663-8.298-5.821-8.298	c-5.016,0-6.564,5.202-6.564,9.351c0,4.211,1.734,8.547,6.626,8.547c3.53,0,5.078-2.479,5.45-5.637h-4.087	c0,0.992-0.31,1.982-1.548,1.982c-1.796,0-1.734-2.725-1.796-3.963h7.617L20.889,96.68L20.889,96.68z"/><path style="fill-rule:evenodd;clip-rule:evenodd;" d="M28.568,101.943c-1.672,0-1.796-3.592-1.796-4.705	c0-0.992,0.124-4.583,1.734-4.583c1.61,0,1.733,3.654,1.733,4.583C30.24,98.166,30.054,101.943,28.568,101.943L28.568,101.943z M29.869,105.969h4.83V78.412h-4.83v12.447h-0.062c-0.557-1.424-1.61-2.477-3.22-2.477c-4.025,0-4.583,6.007-4.583,8.979	c0,2.725,0.744,8.918,4.645,8.918c1.548,0,2.539-0.992,3.158-2.23h0.062V105.969L29.869,105.969z"/><path style="fill-rule:evenodd;clip-rule:evenodd;" d="M41.139,91.54h0.062c0.805-1.672,2.167-3.158,4.211-3.158	c1.796,0,2.725,1.424,2.973,2.972h0.062c0.805-1.548,2.291-2.972,4.149-2.972c3.096,0,3.096,3.468,3.096,5.697v11.89h-4.768v-9.352	c0-0.866,0.186-3.405-1.239-3.405c-1.115,0-1.3,1.176-1.3,1.919v10.837h-4.831v-9.66c0-0.867,0.248-3.035-1.115-3.035	c-1.176,0-1.362,1.115-1.362,1.981v10.713h-4.83V88.753h4.83L41.139,91.54L41.139,91.54z"/><path style="fill-rule:evenodd;clip-rule:evenodd;" d="M62.07,88.753v9.475c0,0.928-0.434,3.592,1.238,3.592	c1.301,0,1.177-1.734,1.177-2.539l0.062-10.528h4.769v10.961c0,4.025-1.857,6.564-6.192,6.564c-5.45,0-5.883-4.025-5.883-7.184	V88.753H62.07L62.07,88.753z"/><path style="fill-rule:evenodd;clip-rule:evenodd;" d="M75.817,91.417h0.062c0.619-1.672,2.105-3.035,3.963-3.035	c3.592,0,3.282,3.963,3.282,6.44v11.146h-4.83v-9.475c0-0.867,0.371-3.282-1.177-3.282c-1.115,0-1.301,1.176-1.301,1.981v10.775	h-4.83V88.753h4.83V91.417L75.817,91.417z"/><path style="fill-rule:evenodd;clip-rule:evenodd;" d="M90.865,101.943c-1.672,0-1.734-3.592-1.734-4.705	c0-0.992,0.124-4.583,1.672-4.583c1.672,0,1.734,3.654,1.734,4.583C92.537,98.166,92.413,101.943,90.865,101.943L90.865,101.943z M92.228,105.969h4.768V78.412h-4.768v12.447h-0.062c-0.558-1.424-1.672-2.477-3.22-2.477c-4.087,0-4.645,6.007-4.645,8.979	c0,2.725,0.805,8.918,4.706,8.918c1.486,0,2.477-0.992,3.158-2.23h0.062V105.969L92.228,105.969z"/><path style="fill-rule:evenodd;clip-rule:evenodd;" d="M106.719,93.398c-0.682-0.619-1.363-1.115-2.354-1.115	c-0.867,0-1.301,0.496-1.301,1.238c0.062,2.043,5.512,1.61,5.512,6.75c0,3.406-1.982,6.008-5.512,6.008	c-1.857,0-3.777-0.744-5.201-1.92l2.105-3.406c0.742,0.619,1.424,1.115,2.414,1.115c0.744,0,1.363-0.559,1.363-1.426	c0.062-2.291-5.449-1.732-5.512-7.183c0-3.282,2.787-5.078,5.82-5.078c1.734,0,3.221,0.496,4.584,1.486L106.719,93.398	L106.719,93.398z"/></g></svg>