<?xml version="1.0" encoding="UTF-8" standalone="no"?>
<svg width="1935px" height="509px" viewBox="0 0 1935 509" version="1.1" xmlns="http://www.w3.org/2000/svg" xmlns:xlink="http://www.w3.org/1999/xlink">
    <!-- Generator: Sketch 3.6.1 (26313) - http://www.bohemiancoding.com/sketch -->
    <title>eengine</title>
    <desc>Created with Sketch.</desc>
    <defs></defs>
    <g id="Page-1" stroke="none" stroke-width="1" fill="none" fill-rule="evenodd">
        <g id="eengine" transform="translate(-3.000000, -1.000000)">
            <g id="Group">
                <path d="M257.435514,1.91401869 C117.233645,1.91401869 3.82803738,115.319626 3.82803738,255.521495 C3.82803738,395.723364 117.233645,509.128972 257.435514,509.128972 C397.637383,509.128972 511.042991,395.723364 511.042991,255.521495 C511.042991,115.319626 397.637383,1.91401869 257.435514,1.91401869 L257.435514,1.91401869 Z M237.816822,275.140187 L143.072897,275.140187 L237.816822,369.884112 L181.353271,369.884112 L66.9906542,255.042991 L181.831776,140.680374 L237.816822,140.680374 L143.072897,235.424299 L237.816822,235.424299 L237.816822,275.140187 L237.816822,275.140187 Z M333.996262,369.884112 L277.53271,369.884112 L372.276636,275.140187 L277.53271,275.140187 L277.53271,235.424299 L372.276636,235.424299 L278.011215,140.680374 L333.996262,140.680374 L448.358879,255.042991 L333.996262,369.884112 L333.996262,369.884112 Z" id="Shape" fill="#2AABE3"></path>
                <g transform="translate(665.121495, 387.588785)" id="Shape" fill="#2AABE3">
                    <path d="M59.3345794,31.5813084 C57.4205607,29.188785 55.0280374,27.753271 51.6785047,26.317757 C48.328972,25.3607477 45.4579439,24.882243 42.5869159,24.882243 C41.1514019,24.882243 39.2373832,24.882243 37.3233645,25.3607477 C35.4093458,25.8392523 33.9738318,26.317757 32.5383178,27.2747664 C31.1028037,28.2317757 29.6672897,29.188785 28.7102804,30.6242991 C27.753271,32.0598131 27.2747664,33.4953271 27.2747664,35.4093458 C27.2747664,38.2803738 28.2317757,40.6728972 30.6242991,42.5869159 C33.0168224,44.0224299 35.8878505,45.4579439 39.2373832,46.8934579 C42.5869159,48.328972 46.4149533,49.2859813 50.7214953,50.2429907 C54.5495327,51.2 58.3775701,53.1140187 62.2056075,55.0280374 C65.5551402,56.9420561 68.4261682,59.8130841 70.8186916,63.6411215 C73.211215,66.9906542 74.1682243,71.7757009 74.1682243,77.9962617 C74.1682243,83.7383178 73.211215,88.5233645 70.8186916,92.8299065 C68.9046729,97.1364486 66.0336449,100.485981 62.2056075,103.357009 C58.3775701,106.228037 54.5495327,108.142056 49.764486,109.57757 C44.9794393,111.013084 40.1943925,111.491589 34.4523364,111.491589 C27.753271,111.491589 21.5327103,110.534579 15.7906542,108.620561 C10.0485981,106.706542 4.78504673,103.357009 0,98.5719626 L16.2691589,80.8672897 C18.6616822,83.7383178 21.5327103,86.1308411 24.882243,88.0448598 C28.2317757,89.9588785 32.0598131,90.4373832 35.8878505,90.4373832 C37.8018692,90.4373832 39.7158879,90.4373832 41.6299065,89.9588785 C43.5439252,89.4803738 44.9794393,89.0018692 46.8934579,88.0448598 C48.328972,87.0878505 49.764486,86.1308411 50.7214953,84.6953271 C51.6785047,83.2598131 52.1570093,81.8242991 52.1570093,79.9102804 C52.1570093,77.0392523 51.2,74.1682243 48.8074766,72.7327103 C46.4149533,70.8186916 43.5439252,69.3831776 39.7158879,67.9476636 C36.3663551,66.5121495 32.5383178,65.5551402 28.2317757,64.1196262 C23.9252336,62.6841121 20.0971963,61.2485981 16.7476636,58.8560748 C13.3981308,56.9420561 10.0485981,54.071028 7.65607477,50.2429907 C5.2635514,46.8934579 4.30654206,42.1084112 4.30654206,36.3663551 C4.30654206,31.1028037 5.2635514,25.8392523 7.65607477,22.011215 C10.0485981,17.7046729 12.9196262,14.3551402 16.2691589,11.4841121 C20.0971963,8.61308411 23.9252336,6.69906542 28.7102804,5.2635514 C33.4953271,3.82803738 38.2803738,3.34953271 43.0654206,3.34953271 C48.8074766,3.34953271 54.5495327,4.30654206 59.8130841,5.74205607 C65.0766355,7.17757009 69.8616822,10.0485981 74.1682243,13.8766355 L59.3345794,31.5813084 L59.3345794,31.5813084 Z"></path>
                    <path d="M80.388785,57.8990654 C80.388785,49.764486 81.8242991,42.1084112 84.6953271,35.8878505 C87.5663551,29.188785 91.3943925,23.446729 96.1794393,19.1401869 C100.964486,14.3551402 106.706542,11.0056075 113.884112,8.61308411 C120.583178,6.22056075 127.760748,4.78504673 135.895327,4.78504673 C144.029907,4.78504673 151.207477,6.22056075 157.906542,8.61308411 C164.605607,11.0056075 170.347664,14.8336449 175.611215,19.1401869 C180.396262,23.9252336 184.224299,29.6672897 187.095327,35.8878505 C189.966355,42.5869159 191.401869,49.764486 191.401869,57.8990654 C191.401869,66.0336449 189.966355,73.6897196 187.095327,79.9102804 C184.224299,86.1308411 180.396262,92.3514019 175.611215,96.6579439 C170.826168,101.442991 165.084112,104.792523 157.906542,107.185047 C151.207477,109.57757 144.029907,111.013084 135.895327,111.013084 C127.760748,111.013084 120.583178,109.57757 113.884112,107.185047 C107.185047,104.792523 101.442991,100.964486 96.1794393,96.6579439 C91.3943925,91.8728972 87.5663551,86.1308411 84.6953271,79.9102804 C81.8242991,73.6897196 80.388785,66.0336449 80.388785,57.8990654 L80.388785,57.8990654 Z M103.835514,57.8990654 C103.835514,62.6841121 104.792523,66.9906542 106.228037,71.2971963 C107.663551,75.1252336 110.056075,78.953271 112.448598,81.8242991 C115.319626,84.6953271 118.669159,87.0878505 122.497196,88.5233645 C126.325234,89.9588785 130.631776,90.9158879 135.416822,90.9158879 C140.201869,90.9158879 144.508411,89.9588785 148.336449,88.5233645 C152.164486,87.0878505 155.514019,84.6953271 158.385047,81.8242991 C161.256075,78.953271 163.170093,75.6037383 164.605607,71.2971963 C166.041121,67.4691589 166.998131,62.6841121 166.998131,57.8990654 C166.998131,53.1140187 166.041121,48.8074766 164.605607,44.9794393 C163.170093,41.1514019 160.77757,37.3233645 158.385047,34.4523364 C155.514019,31.5813084 152.164486,29.188785 148.336449,27.753271 C144.508411,26.317757 140.201869,25.3607477 135.416822,25.3607477 C130.631776,25.3607477 126.325234,26.317757 122.497196,27.753271 C118.669159,29.188785 115.319626,31.5813084 112.448598,34.4523364 C109.57757,37.3233645 107.663551,40.6728972 106.228037,44.9794393 C104.314019,48.8074766 103.835514,53.1140187 103.835514,57.8990654 L103.835514,57.8990654 Z"></path>
                    <path d="M200.971963,6.69906542 L269.398131,6.69906542 L269.398131,27.2747664 L223.461682,27.2747664 L223.461682,47.8504673 L266.048598,47.8504673 L266.048598,68.4261682 L223.461682,68.4261682 L223.461682,108.142056 L200.971963,108.142056 L200.971963,6.69906542 L200.971963,6.69906542 Z"></path>
                    <path d="M300.02243,26.7962617 L270.833645,26.7962617 L270.833645,6.69906542 L351.700935,6.69906542 L351.700935,26.7962617 L322.51215,26.7962617 L322.51215,109.099065 L300.02243,109.099065 L300.02243,26.7962617 L300.02243,26.7962617 Z"></path>
                    <path d="M346.437383,6.69906542 L370.841121,6.69906542 L387.11028,72.2542056 L387.588785,72.2542056 L409.121495,6.69906542 L430.175701,6.69906542 L451.229907,74.1682243 L451.708411,74.1682243 L468.934579,6.69906542 L491.902804,6.69906542 L462.235514,109.099065 L442.138318,109.099065 L419.170093,38.2803738 L418.691589,38.2803738 L396.201869,109.099065 L377.061682,109.099065 L346.437383,6.69906542 L346.437383,6.69906542 Z"></path>
                    <path d="M525.876636,6.69906542 L544.538318,6.69906542 L589.039252,109.099065 L563.678505,109.099065 L555.065421,87.5663551 L515.349533,87.5663551 L506.736449,109.099065 L481.854206,109.099065 L525.876636,6.69906542 L525.876636,6.69906542 Z M534.48972,36.3663551 L522.048598,67.9476636 L546.930841,67.9476636 L534.48972,36.3663551 L534.48972,36.3663551 Z"></path>
                    <path d="M593.345794,6.69906542 L633.061682,6.69906542 C638.325234,6.69906542 643.11028,7.17757009 647.895327,8.13457944 C652.680374,9.09158879 656.508411,11.0056075 660.336449,13.3981308 C663.685981,15.7906542 666.557009,19.1401869 668.949533,22.9682243 C670.863551,26.7962617 671.820561,32.0598131 671.820561,37.8018692 C671.820561,44.9794393 669.906542,51.2 666.078505,55.9850467 C662.250467,61.2485981 656.986916,64.1196262 649.809346,65.5551402 L675.648598,108.620561 L648.852336,108.620561 L627.319626,67.9476636 L616.314019,67.9476636 L616.314019,108.620561 L593.345794,108.620561 L593.345794,6.69906542 L593.345794,6.69906542 Z M615.835514,49.2859813 L629.233645,49.2859813 L635.454206,49.2859813 C637.846729,49.2859813 639.760748,48.8074766 641.674766,47.8504673 C643.588785,46.8934579 645.024299,45.9364486 645.981308,44.5009346 C647.416822,43.0654206 647.895327,40.6728972 647.895327,37.8018692 C647.895327,35.4093458 647.416822,33.0168224 646.459813,31.5813084 C645.502804,30.1457944 644.06729,28.7102804 642.631776,28.2317757 C641.196262,27.2747664 639.282243,26.7962617 636.88972,26.7962617 C634.975701,26.317757 632.583178,26.317757 630.669159,26.317757 L615.835514,26.317757 L615.835514,49.2859813 L615.835514,49.2859813 Z"></path>
                    <path d="M682.347664,6.69906542 L751.730841,6.69906542 L751.730841,27.2747664 L704.837383,27.2747664 L704.837383,46.4149533 L749.338318,46.4149533 L749.338318,66.9906542 L704.837383,66.9906542 L704.837383,87.5663551 L754.601869,87.5663551 L754.601869,108.142056 L682.347664,108.142056 L682.347664,6.69906542 L682.347664,6.69906542 Z"></path>
                    <path d="M803.409346,6.69906542 L825.899065,6.69906542 L825.899065,44.9794393 L869.442991,44.9794393 L869.442991,6.69906542 L891.93271,6.69906542 L891.93271,109.099065 L869.442991,109.099065 L869.442991,65.0766355 L825.899065,65.0766355 L825.899065,109.099065 L803.409346,109.099065 L803.409346,6.69906542 L803.409346,6.69906542 Z"></path>
                    <path d="M901.981308,57.8990654 C901.981308,49.764486 903.416822,42.1084112 906.28785,35.8878505 C909.158879,29.188785 912.986916,23.446729 917.771963,19.1401869 C922.557009,14.3551402 928.299065,11.0056075 935.476636,8.61308411 C942.175701,6.22056075 949.353271,4.78504673 957.48785,4.78504673 C965.62243,4.78504673 972.8,6.22056075 979.499065,8.61308411 C986.198131,11.0056075 991.940187,14.8336449 997.203738,19.1401869 C1001.98879,23.9252336 1005.81682,29.6672897 1008.68785,35.8878505 C1011.55888,42.5869159 1012.99439,49.764486 1012.99439,57.8990654 C1012.99439,66.0336449 1011.55888,73.6897196 1008.68785,79.9102804 C1005.81682,86.6093458 1001.98879,92.3514019 997.203738,96.6579439 C992.418692,101.442991 986.676636,104.792523 979.499065,107.185047 C972.8,109.57757 965.62243,111.013084 957.48785,111.013084 C949.353271,111.013084 942.175701,109.57757 935.476636,107.185047 C928.77757,104.792523 923.035514,100.964486 917.771963,96.6579439 C912.986916,91.8728972 909.158879,86.1308411 906.28785,79.9102804 C903.416822,73.6897196 901.981308,66.0336449 901.981308,57.8990654 L901.981308,57.8990654 Z M925.428037,57.8990654 C925.428037,62.6841121 926.385047,66.9906542 927.820561,71.2971963 C929.256075,75.1252336 931.648598,78.953271 934.041121,81.8242991 C936.91215,84.6953271 940.261682,87.0878505 944.08972,88.5233645 C947.917757,89.9588785 952.224299,90.9158879 957.009346,90.9158879 C961.794393,90.9158879 966.100935,89.9588785 969.928972,88.5233645 C973.757009,87.0878505 977.106542,84.6953271 979.97757,81.8242991 C982.848598,78.953271 984.762617,75.6037383 986.198131,71.2971963 C987.633645,67.4691589 988.590654,62.6841121 988.590654,57.8990654 C988.590654,53.1140187 987.633645,48.8074766 986.198131,44.9794393 C984.762617,41.1514019 982.370093,37.3233645 979.97757,34.4523364 C977.106542,31.5813084 973.757009,29.188785 969.928972,27.753271 C966.100935,26.317757 961.794393,25.3607477 957.009346,25.3607477 C952.224299,25.3607477 947.917757,26.317757 944.08972,27.753271 C940.261682,29.188785 936.91215,31.5813084 934.041121,34.4523364 C931.170093,37.3233645 929.256075,40.6728972 927.820561,44.9794393 C925.906542,48.8074766 925.428037,53.1140187 925.428037,57.8990654 L925.428037,57.8990654 Z"></path>
                    <path d="M1107.73832,69.3831776 C1107.73832,75.6037383 1106.78131,80.8672897 1104.86729,86.1308411 C1102.95327,91.3943925 1100.56075,95.7009346 1096.73271,99.528972 C1092.90467,103.357009 1088.59813,106.228037 1083.33458,108.142056 C1078.07103,110.056075 1071.85047,111.491589 1064.6729,111.491589 C1057.49533,111.491589 1051.27477,110.534579 1046.01121,108.142056 C1040.74766,106.228037 1035.96262,102.878505 1032.61308,99.528972 C1028.78505,95.7009346 1026.39252,91.3943925 1024.4785,86.1308411 C1022.56449,80.8672897 1021.60748,75.6037383 1021.60748,69.3831776 L1021.60748,6.69906542 L1044.0972,6.69906542 L1044.0972,68.4261682 C1044.0972,71.7757009 1044.5757,74.646729 1045.53271,77.0392523 C1046.48972,79.9102804 1047.92523,82.3028037 1049.83925,84.2168224 C1051.75327,86.1308411 1053.66729,87.5663551 1056.53832,89.0018692 C1058.93084,89.9588785 1061.80187,90.4373832 1064.6729,90.4373832 C1067.54393,90.4373832 1070.41495,89.9588785 1072.80748,89.0018692 C1075.2,88.0448598 1077.59252,86.1308411 1079.50654,84.2168224 C1081.42056,82.3028037 1082.85607,79.9102804 1083.81308,77.0392523 C1084.77009,74.1682243 1085.2486,71.2971963 1085.2486,68.4261682 L1085.2486,6.69906542 L1107.73832,6.69906542 L1107.73832,69.3831776 L1107.73832,69.3831776 Z"></path>
                    <path d="M1173.77196,31.5813084 C1171.85794,29.188785 1169.46542,27.753271 1166.11589,26.317757 C1162.76636,25.3607477 1159.89533,24.882243 1157.0243,24.882243 C1155.58879,24.882243 1153.67477,24.882243 1151.76075,25.3607477 C1149.84673,25.8392523 1148.41121,26.317757 1146.9757,27.2747664 C1145.54019,28.2317757 1144.10467,29.188785 1143.14766,30.6242991 C1142.19065,32.0598131 1141.71215,33.4953271 1141.71215,35.4093458 C1141.71215,38.2803738 1142.66916,40.6728972 1145.06168,42.5869159 C1147.45421,44.0224299 1150.32523,45.4579439 1153.67477,46.8934579 C1157.0243,47.8504673 1160.85234,49.2859813 1165.15888,50.2429907 C1169.46542,51.2 1172.81495,53.1140187 1176.64299,55.0280374 C1179.99252,56.9420561 1182.86355,59.8130841 1185.25607,63.6411215 C1187.6486,66.9906542 1188.60561,71.7757009 1188.60561,77.9962617 C1188.60561,83.7383178 1187.6486,88.5233645 1185.25607,92.8299065 C1183.34206,97.1364486 1180.47103,100.485981 1176.64299,103.357009 C1172.81495,106.228037 1168.98692,108.142056 1164.20187,109.57757 C1159.41682,111.013084 1154.63178,111.491589 1148.88972,111.491589 C1142.19065,111.491589 1135.97009,110.534579 1130.22804,108.620561 C1124.48598,106.706542 1119.22243,103.357009 1114.43738,98.5719626 L1130.70654,80.8672897 C1133.09907,83.7383178 1135.97009,86.1308411 1139.31963,88.0448598 C1142.66916,89.9588785 1146.4972,90.4373832 1150.32523,90.4373832 C1152.23925,90.4373832 1154.15327,90.4373832 1156.06729,89.9588785 C1157.98131,89.4803738 1159.41682,89.0018692 1161.33084,88.0448598 C1163.24486,87.0878505 1164.20187,86.1308411 1165.15888,84.6953271 C1166.11589,83.2598131 1166.59439,81.8242991 1166.59439,79.9102804 C1166.59439,77.0392523 1165.63738,74.1682243 1163.24486,72.7327103 C1160.85234,70.8186916 1157.98131,69.3831776 1154.15327,67.9476636 C1150.80374,66.5121495 1146.9757,65.5551402 1142.66916,64.1196262 C1138.36262,62.6841121 1134.53458,61.2485981 1131.18505,58.8560748 C1127.83551,56.9420561 1124.48598,54.071028 1122.09346,50.2429907 C1119.70093,46.8934579 1118.74393,42.1084112 1118.74393,36.3663551 C1118.74393,31.1028037 1119.70093,25.8392523 1122.09346,22.011215 C1124.48598,17.7046729 1127.35701,14.3551402 1130.70654,11.4841121 C1134.53458,8.61308411 1138.36262,6.69906542 1143.14766,5.2635514 C1147.93271,3.82803738 1152.71776,3.34953271 1157.5028,3.34953271 C1163.24486,3.34953271 1168.98692,4.30654206 1174.25047,5.74205607 C1179.51402,7.17757009 1184.29907,10.0485981 1188.60561,13.8766355 L1173.77196,31.5813084 L1173.77196,31.5813084 Z"></path>
                    <path d="M1201.04673,6.69906542 L1270.42991,6.69906542 L1270.42991,27.2747664 L1223.53645,27.2747664 L1223.53645,46.4149533 L1268.03738,46.4149533 L1268.03738,66.9906542 L1223.53645,66.9906542 L1223.53645,87.5663551 L1272.82243,87.5663551 L1272.82243,108.142056 L1201.04673,108.142056 L1201.04673,6.69906542 L1201.04673,6.69906542 Z"></path>
                </g>
                <path d="M705.315888,181.353271 C705.315888,187.573832 706.751402,193.315888 709.62243,198.579439 C712.493458,203.842991 715.842991,208.149533 720.628037,211.97757 C724.934579,215.805607 730.198131,218.676636 736.418692,220.590654 C742.160748,222.504673 748.381308,223.461682 755.080374,223.461682 C763.693458,223.461682 771.349533,221.547664 777.570093,217.241121 C783.790654,213.413084 790.011215,208.149533 795.274766,201.450467 L816.328972,217.241121 C801.016822,237.338318 779.484112,246.908411 751.730841,246.908411 C740.246729,246.908411 729.719626,244.994393 720.628037,241.166355 C711.057944,237.338318 703.401869,232.074766 696.702804,224.897196 C690.003738,218.198131 685.218692,210.063551 681.869159,200.493458 C678.519626,191.401869 676.605607,180.874766 676.605607,170.347664 C676.605607,159.342056 678.519626,149.293458 682.347664,140.201869 C686.175701,130.631776 691.439252,122.975701 698.138318,115.798131 C704.837383,109.099065 712.971963,103.357009 722.063551,99.528972 C731.15514,95.7009346 741.203738,93.7869159 752.209346,93.7869159 C765.128972,93.7869159 776.134579,96.1794393 784.747664,100.485981 C793.839252,104.792523 801.016822,111.013084 806.758879,118.190654 C812.500935,125.368224 816.807477,133.502804 819.2,142.594393 C821.592523,151.685981 823.028037,160.77757 823.028037,170.347664 L823.028037,180.396262 L705.315888,180.396262 L705.315888,181.353271 Z M792.882243,158.863551 C792.882243,152.642991 791.925234,146.900935 790.011215,142.115888 C788.097196,136.852336 785.704673,132.545794 782.35514,128.717757 C779.005607,124.88972 774.699065,122.018692 769.435514,119.626168 C764.171963,117.233645 757.951402,116.276636 751.252336,116.276636 C744.553271,116.276636 738.33271,117.71215 732.590654,120.104673 C726.848598,122.497196 722.063551,125.846729 718.235514,130.153271 C714.407477,134.459813 711.536449,138.766355 709.143925,144.029907 C706.751402,149.293458 705.794393,154.078505 705.794393,158.863551 L792.882243,158.863551 L792.882243,158.863551 Z" id="Shape" fill="#000000"></path>
                <path d="M839.297196,25.8392523 L979.97757,25.8392523 L979.97757,53.5925234 L868.964486,53.5925234 L868.964486,118.669159 L972.321495,118.669159 L972.321495,146.42243 L868.964486,146.42243 L868.964486,216.284112 L985.719626,216.284112 L985.719626,244.037383 L839.775701,244.037383 L839.775701,25.8392523 L839.297196,25.8392523 Z" id="Shape" fill="#000000"></path>
                <path d="M997.203738,98.0934579 L1024.95701,98.0934579 L1024.95701,120.583178 L1025.43551,120.583178 C1028.78505,112.927103 1035.00561,106.706542 1043.61869,101.442991 C1052.23178,96.6579439 1062.28037,94.2654206 1073.28598,94.2654206 C1080.46355,94.2654206 1087.16262,95.2224299 1093.38318,97.6149533 C1099.60374,100.007477 1105.34579,102.878505 1110.13084,107.663551 C1114.91589,111.970093 1118.74393,118.190654 1121.61495,124.88972 C1124.48598,132.06729 1125.9215,140.201869 1125.9215,149.771963 L1125.9215,244.037383 L1098.16822,244.037383 L1098.16822,157.906542 C1098.16822,151.207477 1097.21121,145.465421 1095.2972,140.680374 C1093.38318,135.895327 1090.99065,132.06729 1088.11963,129.196262 C1085.2486,126.325234 1081.42056,123.93271 1077.59252,122.975701 C1073.76449,121.540187 1069.45794,121.061682 1065.1514,121.061682 C1059.40935,121.061682 1054.14579,122.018692 1049.36075,123.93271 C1044.5757,125.846729 1040.26916,128.717757 1036.44112,132.545794 C1032.61308,136.373832 1029.74206,141.637383 1027.82804,147.857944 C1025.91402,154.078505 1024.95701,161.256075 1024.95701,169.869159 L1024.95701,244.037383 L997.203738,244.037383 L997.203738,98.0934579 L997.203738,98.0934579 Z" id="Shape" fill="#000000"></path>
                <path d="M1291.48411,242.601869 C1291.48411,253.607477 1289.57009,263.656075 1285.74206,272.747664 C1281.91402,281.839252 1276.65047,289.973832 1269.4729,296.672897 C1262.29533,303.371963 1254.16075,308.635514 1244.11215,311.985047 C1234.06355,315.813084 1223.53645,317.727103 1211.57383,317.727103 C1197.6972,317.727103 1184.77757,315.813084 1173.29346,311.985047 C1161.80935,308.157009 1150.80374,301.457944 1140.27664,291.88785 L1158.93832,268.441121 C1166.11589,276.097196 1173.77196,282.317757 1182.38505,286.145794 C1190.99813,289.973832 1200.56822,292.366355 1211.09533,292.366355 C1221.14393,292.366355 1229.75701,290.930841 1236.45607,288.059813 C1243.15514,285.188785 1248.41869,281.360748 1252.72523,276.575701 C1256.55327,271.790654 1259.4243,266.527103 1261.33832,260.306542 C1262.77383,254.085981 1263.73084,248.343925 1263.73084,242.123364 L1263.73084,220.11215 L1262.77383,220.11215 C1257.51028,228.725234 1250.33271,235.424299 1241.24112,239.730841 C1232.14953,244.037383 1222.57944,245.951402 1212.53084,245.951402 C1202.00374,245.951402 1191.95514,244.037383 1182.86355,240.209346 C1173.77196,236.381308 1166.11589,231.117757 1159.41682,224.418692 C1152.71776,217.719626 1147.93271,210.063551 1144.10467,200.493458 C1140.27664,191.401869 1138.36262,181.353271 1138.36262,170.826168 C1138.36262,160.299065 1140.27664,150.250467 1143.62617,140.680374 C1146.9757,131.588785 1152.23925,122.975701 1158.45981,116.276636 C1165.15888,109.099065 1172.81495,103.835514 1181.90654,100.007477 C1190.99813,96.1794393 1201.04673,94.2654206 1212.53084,94.2654206 C1222.57944,94.2654206 1232.14953,96.6579439 1241.24112,100.964486 C1250.81121,105.271028 1257.98879,111.491589 1263.25234,119.147664 L1263.73084,119.147664 L1263.73084,98.0934579 L1291.48411,98.0934579 L1291.48411,242.601869 L1291.48411,242.601869 Z M1215.88037,120.104673 C1208.7028,120.104673 1202.00374,121.540187 1195.78318,123.93271 C1190.04112,126.325234 1184.77757,130.153271 1180.47103,134.459813 C1176.16449,138.766355 1173.29346,144.029907 1170.90093,150.250467 C1168.50841,156.471028 1167.5514,163.170093 1167.5514,170.826168 C1167.5514,185.659813 1171.85794,197.62243 1180.47103,206.235514 C1189.08411,215.327103 1200.56822,219.633645 1215.40187,219.633645 C1230.23551,219.633645 1241.71963,215.327103 1250.33271,206.235514 C1258.94579,197.143925 1263.25234,185.659813 1263.25234,170.826168 C1263.25234,163.648598 1262.29533,156.471028 1259.9028,150.250467 C1257.51028,144.029907 1254.63925,138.766355 1250.33271,134.459813 C1246.02617,130.153271 1241.24112,126.803738 1235.02056,123.93271 C1229.75701,121.540187 1223.05794,120.104673 1215.88037,120.104673 L1215.88037,120.104673 Z" id="Shape" fill="#000000"></path>
                <path d="M1305.83925,45.9364486 C1305.83925,40.1943925 1307.75327,35.4093458 1312.05981,31.5813084 C1315.88785,27.753271 1320.6729,25.3607477 1326.41495,25.3607477 C1332.15701,25.3607477 1336.94206,27.2747664 1340.77009,31.5813084 C1344.59813,35.4093458 1346.99065,40.1943925 1346.99065,45.9364486 C1346.99065,51.6785047 1345.07664,56.4635514 1340.77009,60.2915888 C1336.94206,64.1196262 1332.15701,66.5121495 1326.41495,66.5121495 C1320.6729,66.5121495 1315.88785,64.5981308 1312.05981,60.2915888 C1307.75327,55.9850467 1305.83925,51.2 1305.83925,45.9364486 L1305.83925,45.9364486 Z M1312.53832,98.0934579 L1340.29159,98.0934579 L1340.29159,244.037383 L1312.53832,244.037383 L1312.53832,98.0934579 L1312.53832,98.0934579 Z" id="Shape" fill="#000000"></path>
                <path d="M1360.86729,98.0934579 L1388.62056,98.0934579 L1388.62056,120.583178 L1389.09907,120.583178 C1392.4486,112.927103 1398.66916,106.706542 1407.28224,101.442991 C1415.89533,96.6579439 1425.94393,94.2654206 1436.94953,94.2654206 C1444.1271,94.2654206 1450.82617,95.2224299 1457.04673,97.6149533 C1463.26729,100.007477 1469.00935,102.878505 1473.79439,107.663551 C1478.57944,111.970093 1482.40748,118.190654 1485.2785,124.88972 C1488.14953,132.06729 1489.58505,140.201869 1489.58505,149.771963 L1489.58505,244.037383 L1461.83178,244.037383 L1461.83178,157.906542 C1461.83178,151.207477 1460.87477,145.465421 1458.96075,140.680374 C1457.04673,135.895327 1454.65421,132.06729 1451.78318,129.196262 C1448.91215,126.325234 1445.08411,123.93271 1441.25607,122.975701 C1437.42804,121.540187 1433.1215,121.061682 1428.81495,121.061682 C1423.0729,121.061682 1417.80935,122.018692 1413.0243,123.93271 C1408.23925,125.846729 1403.93271,128.717757 1400.10467,132.545794 C1396.27664,136.373832 1393.40561,141.637383 1391.49159,147.857944 C1389.57757,154.078505 1388.62056,161.256075 1388.62056,169.869159 L1388.62056,244.037383 L1360.86729,244.037383 L1360.86729,98.0934579 L1360.86729,98.0934579 Z" id="Shape" fill="#000000"></path>
                <path d="M1529.77944,181.353271 C1529.77944,187.573832 1531.21495,193.315888 1534.08598,198.579439 C1536.95701,203.842991 1540.30654,208.149533 1545.09159,211.97757 C1549.39813,215.805607 1554.66168,218.676636 1560.88224,220.590654 C1566.6243,222.504673 1572.84486,223.461682 1579.54393,223.461682 C1588.15701,223.461682 1595.81308,221.547664 1602.03364,217.241121 C1608.25421,213.413084 1613.99626,208.149533 1619.73832,201.450467 L1640.79252,217.241121 C1625.48037,237.338318 1603.94766,246.908411 1576.19439,246.908411 C1564.71028,246.908411 1554.18318,244.994393 1545.09159,241.166355 C1535.5215,237.338318 1527.86542,232.074766 1521.16636,224.897196 C1514.94579,218.198131 1509.68224,210.063551 1506.33271,200.493458 C1502.98318,191.401869 1501.06916,180.874766 1501.06916,170.347664 C1501.06916,159.342056 1502.98318,149.293458 1506.81121,140.201869 C1510.63925,130.631776 1515.9028,122.975701 1522.60187,115.798131 C1529.30093,109.099065 1537.43551,103.357009 1546.5271,99.528972 C1555.61869,95.7009346 1565.66729,93.7869159 1576.6729,93.7869159 C1589.59252,93.7869159 1600.59813,96.1794393 1609.21121,100.485981 C1618.3028,104.792523 1625.48037,111.013084 1631.22243,118.190654 C1636.96449,125.368224 1641.27103,133.502804 1643.66355,142.594393 C1646.05607,151.685981 1647.49159,160.77757 1647.49159,170.347664 L1647.49159,180.396262 L1529.77944,180.396262 L1529.77944,181.353271 Z M1617.34579,158.863551 C1617.34579,152.642991 1616.38879,146.900935 1614.47477,142.115888 C1612.56075,136.852336 1610.16822,132.545794 1606.81869,128.717757 C1603.46916,124.88972 1599.16262,122.018692 1593.89907,119.626168 C1588.63551,117.233645 1582.41495,116.276636 1575.71589,116.276636 C1569.01682,116.276636 1562.79626,117.71215 1557.05421,120.104673 C1551.31215,122.497196 1546.5271,125.846729 1542.69907,130.153271 C1538.87103,134.459813 1536,138.766355 1533.60748,144.029907 C1531.21495,149.293458 1530.25794,154.078505 1530.25794,158.863551 L1617.34579,158.863551 L1617.34579,158.863551 Z" id="Shape" fill="#000000"></path>
                <path d="M1679.0729,245.951402 C1673.33084,245.951402 1668.54579,244.037383 1664.71776,239.730841 C1660.88972,235.902804 1658.4972,231.117757 1658.4972,225.375701 C1658.4972,219.633645 1660.41121,214.848598 1664.71776,211.020561 C1668.54579,207.192523 1673.33084,204.8 1679.0729,204.8 C1684.81495,204.8 1689.6,206.714019 1693.42804,211.020561 C1697.25607,214.848598 1699.6486,219.633645 1699.6486,225.375701 C1699.6486,231.117757 1697.73458,235.902804 1693.42804,239.730841 C1689.1215,243.558879 1684.33645,245.951402 1679.0729,245.951402 L1679.0729,245.951402 Z" id="Shape" fill="#2AABE3"></path>
                <path d="M1719.74579,98.0934579 L1747.49907,98.0934579 L1747.49907,119.147664 L1747.97757,119.147664 C1753.24112,111.491589 1760.41869,105.271028 1769.98879,100.964486 C1779.55888,96.6579439 1789.12897,94.2654206 1798.69907,94.2654206 C1810.18318,94.2654206 1820.23178,96.1794393 1829.32336,100.007477 C1838.41495,103.835514 1846.07103,109.57757 1852.77009,116.276636 C1859.46916,123.454206 1864.25421,131.588785 1867.60374,140.680374 C1870.95327,150.250467 1872.86729,159.820561 1872.86729,170.826168 C1872.86729,181.831776 1870.95327,191.880374 1867.60374,200.971963 C1864.25421,210.542056 1858.99065,218.198131 1852.77009,225.375701 C1846.07103,232.074766 1838.41495,237.816822 1829.32336,241.64486 C1820.23178,245.472897 1810.18318,247.386916 1798.69907,247.386916 C1788.17196,247.386916 1778.60187,244.994393 1769.03178,240.68785 C1759.94019,236.381308 1752.76262,230.160748 1747.97757,222.504673 L1747.49907,222.504673 L1747.49907,330.168224 L1719.74579,330.168224 L1719.74579,98.0934579 L1719.74579,98.0934579 Z M1795.34953,120.104673 C1788.17196,120.104673 1781.4729,121.540187 1775.25234,123.93271 C1769.51028,126.325234 1764.24673,130.153271 1760.41869,134.459813 C1756.11215,138.766355 1753.24112,144.029907 1750.8486,150.250467 C1748.45607,156.471028 1747.49907,163.170093 1747.49907,170.826168 C1747.49907,178.003738 1748.45607,185.181308 1750.8486,191.401869 C1753.24112,197.62243 1756.11215,202.885981 1760.41869,207.192523 C1764.72523,211.499065 1769.51028,215.327103 1775.25234,217.719626 C1780.99439,220.11215 1787.69346,221.547664 1795.34953,221.547664 C1802.5271,221.547664 1809.22617,220.11215 1815.44673,217.719626 C1821.18879,215.327103 1826.45234,211.499065 1830.75888,207.192523 C1835.06542,202.885981 1837.93645,197.62243 1840.32897,191.401869 C1842.7215,185.181308 1843.6785,178.482243 1843.6785,170.826168 C1843.6785,163.648598 1842.7215,156.471028 1840.32897,150.250467 C1837.93645,144.029907 1835.06542,138.766355 1830.75888,134.459813 C1826.45234,130.153271 1821.66729,126.803738 1815.44673,123.93271 C1809.22617,121.540187 1802.5271,120.104673 1795.34953,120.104673 L1795.34953,120.104673 Z" id="Shape" fill="#2AABE3"></path>
                <path d="M1886.74393,11.4841121 L1914.4972,11.4841121 L1914.4972,244.037383 L1886.74393,244.037383 L1886.74393,11.4841121 L1886.74393,11.4841121 Z" id="Shape" fill="#2AABE3"></path>
            </g>
        </g>
    </g>
</svg>