<?xml version="1.0" encoding="utf-8"?>
<!-- Generator: Adobe Illustrator 19.2.1, SVG Export Plug-In . SVG Version: 6.00 Build 0)  -->
<svg version="1.1" id="eksisozluk" xmlns="http://www.w3.org/2000/svg" xmlns:xlink="http://www.w3.org/1999/xlink" x="0px" y="0px"
	 viewBox="0 0 126.3 24" style="enable-background:new 0 0 126.3 24;" xml:space="preserve">
<style type="text/css">
	.st0{fill:#5AC7DE;}
	.st1{fill:#333333;}
</style>
<title>eksiseyler_logo</title>
<g id="eksiseyler">
	<g id="greendrop">
		<path class="st0" d="M6.7,19.8c-3.7,0-6.7-3-6.7-6.7c0-3.6,6.7-12,6.7-12s6.7,8.4,6.7,12c0,3.7-3,6.7-6.6,6.7
			C6.8,19.8,6.7,19.8,6.7,19.8z"/>
	</g>
	<g id="eksi">
		<path id="e_eksi" class="st1" d="M22.3,13.1v0.1c0,2,1,3.1,2.7,3.1c1.2,0,2.3-0.5,3.2-1.3l1.3,2c-1.3,1.1-3,1.8-4.8,1.8
			c-3.6,0-6-2.6-6-6.6c0-2.3,0.5-3.8,1.6-5c1-1.2,2.5-1.8,4-1.7c1.4,0,2.7,0.4,3.7,1.3c1.2,1.2,1.7,2.9,1.7,5.6v0.8L22.3,13.1
			L22.3,13.1z M26.2,10.5c0.1-0.7-0.1-1.3-0.4-1.9c-0.3-0.5-0.9-0.8-1.5-0.7c-1.3,0-2,1-2,2.8v0.1h3.8L26.2,10.5L26.2,10.5z"/>
		<path id="k" class="st1" d="M31.9,18.4V4.1c0-0.6,0-1.1,0-1.6s-0.1-1-0.2-1.7L35.1,0c0.1,0.6,0.1,1.1,0.1,1.7c0,0.7,0,1.6,0,2.4
			v14.3H31.9z M39.6,18.4l-4.3-7.2l3.3-5.5h4l-4,5.3l5,7.4H39.6L39.6,18.4z"/>
		<path id="s_eksi" class="st1" d="M48.9,18.8c-1.8-0.1-3.6-0.6-5.1-1.5l1.2-2.4c1,0.6,2.8,1.4,4.2,1.4c0.9,0.1,1.6-0.6,1.7-1.4
			c0,0,0,0,0,0c0-0.9-0.6-1.3-2-1.6l-1.5-0.3c-0.9-0.2-1.7-0.6-2.3-1.3c-0.5-0.7-0.7-1.5-0.7-2.3c0-2.5,2-4.1,4.9-4.1
			c1.6,0,3.1,0.4,4.5,1.2l-1.1,2.2c-0.9-0.6-2-0.9-3.1-0.9c-1,0-1.6,0.5-1.6,1.2c0,0.6,0.4,1,1.6,1.3l1.6,0.4
			c1.6,0.4,2.1,0.9,2.5,1.4c0.5,0.6,0.7,1.4,0.7,2.2C54.3,17,52.1,18.8,48.9,18.8z"/>
		<path id="i" class="st1" d="M56.5,18.4V6l3.3-0.5v13H56.5z"/>
		<path id="dot_i" class="st1" d="M58.2,4.3c-1.1,0-2-0.9-2-2.1c0-1.1,0.9-2.1,2.1-2.1c1.1,0,2,0.9,2,2c0,0,0,0,0,0
			C60.2,3.4,59.3,4.3,58.2,4.3z"/>
		<path id="diacritic_black" class="st1" d="M47.8,21.6l-0.3-1.3l3.8-0.9l0.4,1.8L47.8,21.6z"/>
	</g>
	<g id="seyler">
		<path id="s" class="st0" d="M67.1,18.8c-1.8-0.1-3.6-0.6-5.1-1.5l1.2-2.4c1,0.6,2.8,1.4,4.2,1.4c0.9,0.1,1.6-0.6,1.7-1.4
			c0,0,0,0,0,0c0-0.9-0.6-1.3-2-1.6l-1.5-0.3c-0.9-0.2-1.7-0.6-2.3-1.3c-0.5-0.7-0.7-1.5-0.7-2.3c0-2.5,2-4.1,4.9-4.1
			c1.6,0,3.1,0.4,4.5,1.2l-1.1,2.2c-0.9-0.6-2-0.9-3.1-0.9c-1,0-1.6,0.5-1.6,1.2c0,0.6,0.4,1,1.6,1.3l1.6,0.4
			c1.6,0.4,2.1,0.9,2.5,1.4c0.5,0.6,0.7,1.4,0.7,2.2C72.5,17,70.3,18.8,67.1,18.8z"/>
		<path id="diacritic_blue" class="st0" d="M66,21.6l-0.3-1.3l3.8-0.9l0.4,1.8L66,21.6z"/>
		<path id="e_seyler" class="st0" d="M77.7,13.1L77.7,13.1c0,2.1,1,3.2,2.7,3.2c1.2,0,2.3-0.5,3.2-1.3l1.3,2c-1.3,1.1-3,1.8-4.8,1.8
			c-3.6,0-6-2.6-6-6.6c0-2.3,0.5-3.8,1.6-5c1-1.1,2.5-1.8,4-1.7c1.4,0,2.7,0.4,3.7,1.3C84.5,8,85,9.7,85,12.4v0.8L77.7,13.1
			L77.7,13.1z M81.6,10.6c0.1-0.7-0.1-1.3-0.4-1.9c-0.3-0.5-0.9-0.8-1.5-0.7c-1.3,0-2,1-2,2.8v0.1h3.8L81.6,10.6L81.6,10.6z"/>
		<path id="y" class="st0" d="M93.5,18.6c-0.9,2.5-1.5,3.5-2.4,4.2c-0.9,0.6-2,1-3.1,1.2l-1.1-2.2c0.7-0.2,1.4-0.5,2.1-0.8
			c0.4-0.3,0.7-0.6,0.9-1c0.3-0.5,0.5-1,0.7-1.5h-0.8L85.6,6L89,5.6l2.2,7.4l0.7,2.6c0-0.1,0.2-1.4,0.4-2c0.1-0.4,0.3-1.2,0.5-1.8
			l1.9-6.1h3.5L93.5,18.6z"/>
		<path id="l" class="st0" d="M102.7,18.7c-1.4,0-2.6-0.7-3-1.7c-0.2-0.6-0.3-1-0.3-2.9V4.7c0-1.3,0-2.6-0.2-3.8l3.4-0.8
			c0.2,1.1,0.2,2.2,0.2,3.3v9.9c0,2.2,0,2.5,0.2,2.8c0.1,0.2,0.4,0.4,0.7,0.3c0.1,0,0.3,0,0.4-0.1l0.6,2
			C104.1,18.6,103.4,18.7,102.7,18.7z"/>
		<path id="e_seyler_2nd" class="st0" d="M109.4,13.1L109.4,13.1c0,2.1,1,3.2,2.7,3.2c1.2,0,2.3-0.5,3.2-1.3l1.3,2
			c-1.3,1.1-3,1.8-4.8,1.8c-3.6,0-6-2.6-6-6.6c0-2.3,0.5-3.8,1.6-5c1-1.1,2.5-1.8,4-1.7c1.4,0,2.7,0.4,3.7,1.3
			c1.2,1.2,1.7,2.9,1.7,5.6v0.8L109.4,13.1L109.4,13.1z M113.3,10.6c0.1-0.7-0.1-1.3-0.4-1.9c-0.3-0.5-0.9-0.8-1.5-0.7
			c-1.3,0-2,1-2,2.8v0.1h3.8L113.3,10.6L113.3,10.6z"/>
		<path id="r" class="st0" d="M125.4,8.6c-0.3-0.2-0.6-0.3-1-0.2c-0.8,0-1.6,0.4-2,1.1v9h-3.3V10c0-1.3-0.1-2.5-0.5-3.7l3-0.8
			c0.3,0.6,0.5,1.2,0.5,1.8c0.7-1,1.7-1.8,3-1.8c0.4,0,0.9,0.1,1.2,0.3L125.4,8.6z"/>
	</g>
</g>
</svg>
