<?xml version="1.0" encoding="utf-8"?>
<!-- Generator: Adobe Illustrator 19.0.0, SVG Export Plug-In . SVG Version: 6.00 Build 0)  -->
<svg version="1.1" id="Layer_1" xmlns="http://www.w3.org/2000/svg" xmlns:xlink="http://www.w3.org/1999/xlink" x="0px" y="0px"
	 viewBox="0 0 86.9 86.9" style="enable-background:new 0 0 86.9 86.9;" xml:space="preserve">
<style type="text/css">
	.st0{fill:#03A9F4;}
</style>
<g id="XMLID_43_">
	<g id="XMLID_144_">
		<g id="XMLID_153_">
			<path id="XMLID_154_" class="st0" d="M43.4,0C19.5,0,0,19.5,0,43.4s19.5,43.4,43.4,43.4c24,0,43.4-19.5,43.4-43.4S67.4,0,43.4,0z
				 M53.3,72.3c-1.9,0-3.4-1.6-3.4-3.5c0-1.9,1.5-3.5,3.4-3.5s3.4,1.6,3.4,3.5C56.7,70.7,55.2,72.3,53.3,72.3z M64.5,49.9
				c0,1.8-1.4,3.2-3.2,3.2h-4.4l-3.6,6.5l-3.7-6.5l-24.4-1.3c-1.8,0-3.2-1.4-3.2-3.2V24.5c0-1.8,1.4-3.2,3.2-3.2L61.3,20
				c1.8,0,3.2,1.4,3.2,3.2V49.9z"/>
		</g>
	</g>
</g>
</svg>
