<?xml version="1.0" encoding="UTF-8" standalone="no"?>
<svg width="511px" height="511px" viewBox="0 0 511 511" version="1.1" xmlns="http://www.w3.org/2000/svg" xmlns:xlink="http://www.w3.org/1999/xlink">
    <!-- Generator: Sketch 3.6.1 (26313) - http://www.bohemiancoding.com/sketch -->
    <title>elevio (2)</title>
    <desc>Created with Sketch.</desc>
    <defs></defs>
    <g id="Page-1" stroke="none" stroke-width="1" fill="none" fill-rule="evenodd">
        <g id="elevio-(2)" fill="#03A9F4">
            <g id="XMLID_43_">
                <g id="XMLID_144_">
                    <g id="XMLID_153_">
                        <path d="M255.411494,0 C114.758621,0 0,114.758621 0,255.411494 C0,396.064368 114.758621,510.822989 255.411494,510.822989 C396.652874,510.822989 510.822989,396.064368 510.822989,255.411494 C510.822989,114.758621 396.652874,0 255.411494,0 L255.411494,0 Z M313.673563,425.489655 C302.491954,425.489655 293.664368,416.073563 293.664368,404.891954 C293.664368,393.710345 302.491954,384.294253 313.673563,384.294253 C324.855172,384.294253 333.682759,393.710345 333.682759,404.891954 C333.682759,416.073563 324.855172,425.489655 313.673563,425.489655 L313.673563,425.489655 Z M379.586207,293.664368 C379.586207,304.257471 371.347126,312.496552 360.754023,312.496552 L334.85977,312.496552 L313.673563,350.749425 L291.898851,312.496552 L148.303448,304.845977 C137.710345,304.845977 129.471264,296.606897 129.471264,286.013793 L129.471264,144.183908 C129.471264,133.590805 137.710345,125.351724 148.303448,125.351724 L360.754023,117.701149 C371.347126,117.701149 379.586207,125.94023 379.586207,136.533333 L379.586207,293.664368 L379.586207,293.664368 Z" id="XMLID_154_"></path>
                    </g>
                </g>
            </g>
        </g>
    </g>
</svg>