<?xml version="1.0" encoding="UTF-8" standalone="no"?>
<svg width="2275px" height="510px" viewBox="0 0 2275 510" version="1.1" xmlns="http://www.w3.org/2000/svg" xmlns:xlink="http://www.w3.org/1999/xlink">
    <!-- Generator: Sketch 3.6.1 (26313) - http://www.bohemiancoding.com/sketch -->
    <title>elevio</title>
    <desc>Created with Sketch.</desc>
    <defs></defs>
    <g id="Page-1" stroke="none" stroke-width="1" fill="none" fill-rule="evenodd">
        <g id="elevio" fill="#03A9F4">
            <g id="XMLID_14_" transform="translate(603.247525, 0.000000)">
                <path d="M164.752475,119.635644 C257.520792,119.635644 308.720792,187.564356 308.720792,273.742574 C308.720792,283.374257 306.693069,303.651485 306.693069,303.651485 L82.629703,303.651485 C89.219802,360.934653 130.788119,390.843564 179.960396,390.843564 C232.174257,390.843564 271.207921,354.344554 271.207921,354.344554 L305.172277,410.613861 C305.172277,410.613861 255.493069,459.786139 174.891089,459.786139 C67.4217822,459.786139 0.506930693,382.225743 0.506930693,289.964356 C-0.506930693,189.592079 66.9148515,119.635644 164.752475,119.635644 L164.752475,119.635644 Z M225.584158,247.889109 C224.063366,208.855446 197.70297,182.49505 164.245545,182.49505 C122.677228,182.49505 93.7821782,207.334653 84.6574257,247.889109 L225.584158,247.889109 L225.584158,247.889109 Z" id="XMLID_64_"></path>
                <path d="M651.405941,119.635644 C744.174257,119.635644 795.374257,187.564356 795.374257,273.742574 C795.374257,283.374257 793.346535,303.651485 793.346535,303.651485 L569.283168,303.651485 C575.873267,360.934653 617.441584,390.843564 666.613861,390.843564 C718.827723,390.843564 757.861386,354.344554 757.861386,354.344554 L791.825743,410.613861 C791.825743,410.613861 742.146535,459.786139 661.544554,459.786139 C554.075248,459.786139 487.160396,382.225743 487.160396,289.964356 C486.653465,189.592079 554.075248,119.635644 651.405941,119.635644 L651.405941,119.635644 Z M712.237624,247.889109 C710.716832,208.855446 684.356436,182.49505 650.89901,182.49505 C609.330693,182.49505 580.435644,207.334653 571.310891,247.889109 L712.237624,247.889109 L712.237624,247.889109 Z" id="XMLID_61_"></path>
                <path d="M1260.2297,60.8316832 C1260.2297,65.9009901 1256.17426,69.449505 1251.61188,69.449505 L1189.76634,69.449505 C1184.69703,69.449505 1181.14851,65.3940594 1181.14851,60.8316832 L1181.14851,8.61782178 C1181.14851,3.54851485 1185.20396,0 1189.76634,0 L1251.61188,0 C1256.68119,0 1260.2297,4.05544554 1260.2297,8.61782178 L1260.2297,60.8316832 L1260.2297,60.8316832 Z" id="XMLID_60_"></path>
                <path d="M483.611881,383.746535 L448.126733,383.746535 C439.00198,383.746535 433.932673,378.677228 433.932673,369.552475 L433.932673,43.0891089 C433.932673,13.180198 420.752475,0 390.843564,0 L313.790099,0 L313.790099,68.9425743 L339.136634,68.9425743 C348.261386,68.9425743 353.330693,73.5049505 353.330693,83.1366337 L353.330693,409.093069 C353.330693,439.508911 366.00396,452.182178 396.419802,452.182178 L546.978218,452.182178 C521.631683,437.481188 497.29901,411.120792 483.611881,383.746535 L483.611881,383.746535 Z" id="XMLID_59_"></path>
                <path d="M1492.40396,112.031683 C1393.55248,112.031683 1314.97822,182.49505 1314.97822,281.853465 C1314.97822,303.651485 1319.03366,324.435644 1326.13069,342.685149 L1414.84356,342.685149 C1403.18416,326.463366 1396.59406,305.679208 1396.59406,281.853465 C1396.59406,222.035644 1440.69703,180.467327 1492.91089,180.467327 C1545.63168,180.467327 1589.73465,222.035644 1589.73465,281.853465 C1589.73465,342.178218 1546.13861,383.746535 1493.41782,383.746535 L1491.89703,383.746535 L1491.89703,383.746535 L1275.43762,383.746535 C1266.31287,383.746535 1261.24356,378.677228 1261.24356,369.552475 L1261.24356,170.835644 C1261.24356,140.926733 1248.5703,127.746535 1218.66139,127.746535 L1140.08713,127.746535 L1110.17822,127.746535 L1096.99802,127.746535 C1071.14455,127.746535 1057.45743,135.857426 1049.34653,158.162376 L988.007921,328.99802 C981.417822,348.261386 976.348515,375.635644 976.348515,375.635644 L974.827723,375.635644 C974.827723,375.635644 969.758416,348.261386 962.661386,328.99802 L901.322772,158.162376 C893.211881,135.857426 880.538614,127.746535 853.671287,127.746535 L755.833663,127.746535 C779.659406,143.968317 797.40198,168.807921 807.540594,196.689109 L814.130693,196.689109 C823.255446,196.689109 828.831683,199.730693 831.873267,208.348515 L924.641584,452.689109 L1020.95842,452.689109 L1113.72673,208.348515 C1116.76832,200.237624 1122.85149,196.689109 1131.46931,196.689109 L1139.07327,196.689109 L1166.44752,196.689109 C1175.57228,196.689109 1180.64158,201.251485 1180.64158,210.883168 L1180.64158,409.6 C1180.64158,440.015842 1193.31485,452.689109 1223.22376,452.689109 L1491.3901,452.689109 L1491.3901,452.689109 L1492.40396,452.689109 C1591.76238,452.689109 1670.84356,382.732673 1670.84356,282.867327 C1670.84356,182.49505 1591.76238,112.031683 1492.40396,112.031683 L1492.40396,112.031683 Z" id="XMLID_58_"></path>
            </g>
            <g id="XMLID_43_" transform="translate(0.000000, 65.900990)">
                <g id="XMLID_144_">
                    <g id="XMLID_153_">
                        <path d="M220.007921,3.54851485 C98.8514851,3.54851485 0,102.4 0,224.063366 C0,345.726733 98.8514851,444.071287 220.007921,444.071287 C341.671287,444.071287 440.015842,345.219802 440.015842,224.063366 C440.015842,102.906931 341.671287,3.54851485 220.007921,3.54851485 L220.007921,3.54851485 Z M270.194059,370.059406 C260.562376,370.059406 252.958416,361.948515 252.958416,352.316832 C252.958416,342.685149 260.562376,334.574257 270.194059,334.574257 C279.825743,334.574257 287.429703,342.685149 287.429703,352.316832 C287.429703,361.948515 279.825743,370.059406 270.194059,370.059406 L270.194059,370.059406 Z M326.970297,256.506931 C326.970297,265.631683 319.873267,272.728713 310.748515,272.728713 L288.443564,272.728713 L270.194059,305.679208 L251.437624,272.728713 L127.746535,266.138614 C118.621782,266.138614 111.524752,259.041584 111.524752,249.916832 L111.524752,127.746535 C111.524752,118.621782 118.621782,111.524752 127.746535,111.524752 L310.748515,104.934653 C319.873267,104.934653 326.970297,112.031683 326.970297,121.156436 L326.970297,256.506931 L326.970297,256.506931 Z" id="XMLID_154_"></path>
                    </g>
                </g>
            </g>
        </g>
    </g>
</svg>