<?xml version="1.0" encoding="utf-8"?>
<!-- Generator: Adobe Illustrator 19.2.1, SVG Export Plug-In . SVG Version: 6.00 Build 0)  -->
<!DOCTYPE svg PUBLIC "-//W3C//DTD SVG 1.1//EN" "http://www.w3.org/Graphics/SVG/1.1/DTD/svg11.dtd">
<svg version="1.1" id="Layer_1" xmlns="http://www.w3.org/2000/svg" xmlns:xlink="http://www.w3.org/1999/xlink" x="0px" y="0px"
	 width="1024px" height="145px" viewBox="0 0 1024 145" style="enable-background:new 0 0 1024 145;" xml:space="preserve">
<style type="text/css">
	.st0{fill:#00354C;}
</style>
<g>
	<path class="st0" d="M10.446,145c-2.441,0-4.739-0.804-6.827-2.39C1.219,140.797,0,137.87,0,133.916V11.084
		c0-3.951,1.219-6.878,3.623-8.698C5.711,0.804,8.009,0,10.446,0h65.361c1.233,0,2.386,0.321,3.429,0.953
		c1.114,0.687,1.966,1.696,2.551,3.014c0.405,0.921,0.72,1.996,0.946,3.209c0.216,1.199,0.326,2.617,0.326,4.227
		c0,1.469-0.11,2.815-0.325,4.002c-0.232,1.258-0.559,2.34-0.974,3.227c-0.596,1.268-1.441,2.239-2.514,2.895
		c-1.045,0.637-2.2,0.96-3.44,0.96H25.577v35.948h42.566c1.292,0,2.537,0.387,3.602,1.118c0.926,0.642,1.689,1.495,2.28,2.544
		c0.541,0.965,0.907,2.139,1.12,3.596c0.169,1.174,0.252,2.528,0.252,4.039c0,1.458-0.085,2.753-0.255,3.853
		c-0.218,1.387-0.584,2.516-1.116,3.463c-0.656,1.171-1.538,2.061-2.615,2.641c-0.995,0.536-2.094,0.807-3.266,0.807H25.577v42.016
		h50.976c1.233,0,2.386,0.321,3.428,0.953c0.976,0.601,1.797,1.464,2.461,2.578c0.603,1.024,0.997,2.214,1.217,3.656
		c0.172,1.157,0.254,2.498,0.254,4.11c0,1.449-0.085,2.757-0.252,3.885c-0.216,1.425-0.596,2.606-1.164,3.628
		c-0.674,1.203-1.515,2.113-2.503,2.718c-1.043,0.637-2.2,0.96-3.44,0.96H10.446z"/>
	<path class="st0" d="M116.248,145c-2.441,0-4.739-0.805-6.827-2.395c-2.4-1.817-3.619-4.751-3.619-8.714V7.055
		c0-1.28,0.358-2.494,1.036-3.513c0.711-1.083,1.827-1.906,3.305-2.429c0.939-0.329,2.101-0.594,3.555-0.807
		C115.088,0.103,116.733,0,118.59,0c1.934,0,3.602,0.103,4.957,0.308c1.412,0.213,2.549,0.476,3.481,0.804
		c1.48,0.524,2.59,1.341,3.314,2.43c0.681,1.038,1.036,2.246,1.036,3.513v114.768h45.76c1.38,0,2.628,0.377,3.708,1.12
		c0.949,0.66,1.728,1.559,2.322,2.681c0.516,0.978,0.868,2.148,1.077,3.579c0.17,1.193,0.252,2.548,0.252,4.155
		c0,1.616-0.082,2.96-0.252,4.107c-0.204,1.349-0.532,2.484-1.002,3.479c-0.591,1.253-1.395,2.24-2.386,2.928
		c-1.091,0.75-2.338,1.127-3.719,1.127H116.248z"/>
	<path class="st0" d="M225.403,145c-1.604,0-3.005-0.018-4.208-0.055c-1.363-0.043-2.534-0.149-3.522-0.314
		c-1.022-0.172-1.891-0.367-2.606-0.577c-0.946-0.275-1.801-0.663-2.537-1.155c-0.841-0.557-1.536-1.26-2.062-2.083
		c-0.374-0.578-0.717-1.279-1.029-2.116l-45.054-126.73c-0.69-1.884-1.057-3.484-1.109-4.85c-0.085-2.116,0.733-3.961,2.306-5.185
		c1.205-0.933,2.823-1.488,4.952-1.705C172.093,0.076,174.092,0,176.649,0c2.122,0,3.814,0.06,5.065,0.174
		c1.577,0.144,2.837,0.431,3.854,0.882c1.261,0.561,2.255,1.357,2.958,2.372c0.481,0.697,0.901,1.504,1.29,2.473l36.131,104.751
		L261.022,6.321c0.24-0.899,0.598-1.802,1.04-2.574c0.472-0.834,1.434-1.998,3.295-2.743c1.059-0.422,2.376-0.694,4.029-0.832
		C270.737,0.06,272.542,0,274.797,0c2.376,0,4.244,0.098,5.711,0.3c2.143,0.298,3.699,0.992,4.762,2.123
		c0.846,0.912,1.778,2.516,1.494,5.07c-0.138,1.261-0.534,2.773-1.208,4.621l-44.908,126.623c-0.474,1.311-1.151,2.402-2.024,3.278
		c-0.917,0.915-2.11,1.611-3.548,2.068c-1.182,0.374-2.564,0.617-4.23,0.745C229.386,144.941,227.573,145,225.403,145z"/>
	<path class="st0" d="M354.053,145c-10.488,0-19.73-1.603-27.47-4.767c-7.856-3.21-14.446-7.954-19.59-14.102
		c-5.103-6.094-8.943-13.717-11.41-22.661c-2.42-8.757-3.647-18.934-3.647-30.246c0-10.85,1.337-20.874,3.975-29.79
		c2.677-9.059,6.774-16.893,12.181-23.285c5.439-6.436,12.322-11.463,20.454-14.946C336.616,1.75,346.104,0,356.745,0
		c10.275,0,19.392,1.586,27.099,4.712c7.813,3.172,14.416,7.873,19.628,13.976c5.175,6.058,9.07,13.614,11.58,22.455
		c2.458,8.662,3.705,18.689,3.705,29.804c0,11.113-1.337,21.307-3.973,30.299c-2.677,9.125-6.752,17.022-12.11,23.475
		c-5.412,6.52-12.283,11.591-20.425,15.075C374.182,143.25,364.694,145,354.053,145z M355.658,22.291
		c-7.078,0-13.042,1.315-17.723,3.907c-4.723,2.615-8.612,6.142-11.556,10.488c-3.002,4.435-5.189,9.72-6.502,15.705
		c-1.351,6.167-2.036,12.758-2.036,19.59c0,7.615,0.638,14.701,1.896,21.059c1.22,6.163,3.276,11.515,6.115,15.906
		c2.748,4.249,6.483,7.599,11.097,9.955c4.677,2.389,10.727,3.6,17.984,3.6c7.15,0,13.19-1.319,17.949-3.918
		c4.765-2.603,8.653-6.167,11.556-10.59c2.983-4.549,5.144-9.91,6.422-15.931c1.321-6.218,1.992-12.904,1.992-19.873
		c0-7.319-0.654-14.204-1.946-20.462c-1.244-6.049-3.335-11.351-6.215-15.764c-2.781-4.254-6.555-7.627-11.218-10.024
		C368.767,23.518,362.772,22.291,355.658,22.291z"/>
	<path class="st0" d="M516.974,136.603c0,1.495-0.075,2.743-0.224,3.751c-0.153,1.008-0.392,1.866-0.728,2.575
		c-0.336,0.711-0.746,1.232-1.232,1.567c-0.489,0.336-1.064,0.504-1.735,0.504h-64.044c-1.721,0-3.344-0.577-4.87-1.735
		c-1.53-1.157-2.295-3.191-2.295-6.102V3.583c0-0.597,0.149-1.12,0.448-1.567c0.295-0.448,0.821-0.8,1.568-1.064
		c0.743-0.261,1.75-0.485,3.023-0.672c1.269-0.185,2.799-0.28,4.591-0.28c1.862,0,3.415,0.095,4.647,0.28
		c1.232,0.187,2.221,0.411,2.967,0.672c0.743,0.263,1.269,0.616,1.568,1.064c0.295,0.448,0.448,0.97,0.448,1.567v124.736h51.952
		c0.672,0,1.247,0.168,1.735,0.504c0.485,0.336,0.896,0.823,1.232,1.455c0.336,0.634,0.575,1.474,0.728,2.519
		C516.899,133.844,516.974,135.111,516.974,136.603z"/>
	<path class="st0" d="M561.069,141.424c0,0.598-0.153,1.117-0.447,1.564c-0.298,0.447-0.823,0.801-1.565,1.062
		c-0.745,0.263-1.732,0.484-2.961,0.67c-1.229,0.184-2.779,0.279-4.638,0.279c-1.788,0-3.315-0.095-4.582-0.279
		c-1.27-0.186-2.276-0.408-3.017-0.67c-0.745-0.261-1.27-0.615-1.565-1.062c-0.298-0.447-0.447-0.967-0.447-1.564V3.576
		c0-0.596,0.168-1.117,0.503-1.564s0.894-0.799,1.676-1.062c0.782-0.261,1.788-0.484,3.017-0.67C548.273,0.095,549.74,0,551.458,0
		c1.859,0,3.409,0.095,4.638,0.279c1.229,0.186,2.216,0.41,2.961,0.67c0.741,0.263,1.267,0.615,1.565,1.062
		c0.294,0.447,0.447,0.968,0.447,1.564V141.424z"/>
	<path class="st0" d="M695.154,136.746c0,1.489-0.253,2.751-0.751,3.792c-0.498,1.043-1.153,1.896-1.96,2.565
		c-0.811,0.669-1.711,1.154-2.715,1.45c-1,0.296-1.997,0.446-2.998,0.446h-6.345c-2.005,0-3.753-0.206-5.252-0.613
		c-1.503-0.407-2.923-1.153-4.27-2.231c-1.346-1.076-2.696-2.547-4.039-4.406c-1.346-1.857-2.778-4.238-4.288-7.138l-44.043-82.092
		c-2.302-4.238-4.623-8.681-6.962-13.329c-2.339-4.646-4.515-9.163-6.531-13.552h-0.223c0.149,5.354,0.26,10.819,0.335,16.396
		c0.071,5.577,0.112,11.117,0.112,16.619v86.471c0,0.521-0.156,1.022-0.472,1.506c-0.312,0.485-0.844,0.855-1.588,1.115
		c-0.748,0.262-1.726,0.483-2.946,0.669c-1.216,0.184-2.767,0.279-4.649,0.279c-1.886,0-3.437-0.095-4.653-0.279
		c-1.216-0.186-2.176-0.407-2.882-0.669c-0.707-0.26-1.216-0.63-1.532-1.115c-0.312-0.483-0.469-0.985-0.469-1.506V8.588
		c0-2.973,0.844-5.092,2.533-6.358c1.689-1.264,3.533-1.896,5.527-1.896h9.443c2.228,0,4.087,0.186,5.586,0.558
		c1.499,0.374,2.841,0.987,4.032,1.84c1.186,0.855,2.339,2.047,3.455,3.569c1.112,1.524,2.28,3.441,3.504,5.744l33.86,63.354
		c2.086,3.867,4.099,7.64,6.04,11.321c1.938,3.681,3.809,7.306,5.605,10.875s3.578,7.083,5.341,10.54
		c1.759,3.458,3.503,6.934,5.229,10.429h0.112c-0.153-5.872-0.242-11.99-0.279-18.348c-0.041-6.358-0.056-12.474-0.056-18.348v-78.3
		c0-0.519,0.156-1.004,0.469-1.45c0.316-0.446,0.844-0.837,1.588-1.171c0.748-0.335,1.729-0.574,2.946-0.725
		C682.181,0.074,683.769,0,685.733,0c1.726,0,3.217,0.074,4.474,0.223c1.253,0.151,2.235,0.39,2.946,0.725
		c0.703,0.335,1.216,0.725,1.529,1.171c0.316,0.446,0.472,0.931,0.472,1.45V136.746z"/>
	<path class="st0" d="M798.708,137.076c0,1.339-0.074,2.511-0.223,3.515c-0.152,1.004-0.408,1.841-0.78,2.511
		c-0.375,0.67-0.798,1.155-1.281,1.451c-0.487,0.298-1.021,0.446-1.615,0.446h-69.181c-1.712,0-3.327-0.575-4.846-1.73
		c-1.523-1.153-2.284-3.181-2.284-6.082V7.812c0-2.902,0.761-4.927,2.284-6.082c1.519-1.153,3.134-1.73,4.846-1.73h68.401
		c0.594,0,1.129,0.151,1.615,0.446c0.483,0.298,0.873,0.781,1.17,1.451c0.293,0.67,0.538,1.507,0.724,2.511
		c0.182,1.004,0.279,2.251,0.279,3.739c0,1.339-0.097,2.511-0.279,3.515c-0.186,1.004-0.431,1.825-0.724,2.455
		c-0.297,0.632-0.687,1.099-1.17,1.395c-0.486,0.298-1.021,0.446-1.615,0.446h-56.37v45.899h48.349c0.594,0,1.129,0.167,1.615,0.502
		c0.483,0.335,0.891,0.8,1.225,1.395c0.334,0.597,0.572,1.414,0.724,2.455c0.149,1.043,0.223,2.271,0.223,3.683
		c0,1.339-0.074,2.494-0.223,3.46c-0.152,0.967-0.39,1.748-0.724,2.344c-0.334,0.597-0.743,1.023-1.225,1.283
		c-0.486,0.262-1.021,0.391-1.615,0.391h-48.349v51.671h57.15c0.594,0,1.129,0.151,1.615,0.446c0.483,0.298,0.906,0.764,1.281,1.395
		c0.371,0.632,0.628,1.451,0.78,2.455C798.634,134.342,798.708,135.588,798.708,137.076z"/>
	<path class="st0" d="M826.479,138.457c0,2.625-0.438,4.371-1.309,5.24c-0.872,0.869-2.455,1.303-4.755,1.303
		c-2.225,0-3.764-0.425-4.617-1.275s-1.28-2.551-1.28-5.102c0-2.625,0.434-4.371,1.306-5.24c0.872-0.869,2.459-1.303,4.758-1.303
		c2.225,0,3.764,0.425,4.617,1.275C826.053,134.205,826.479,135.906,826.479,138.457z"/>
	<path class="st0" d="M879.385,134.963c0,0.628-0.019,1.174-0.056,1.636c-0.037,0.462-0.104,0.85-0.197,1.165
		s-0.204,0.591-0.334,0.832s-0.427,0.591-0.89,1.054c-0.464,0.462-1.25,1.035-2.362,1.719c-1.113,0.684-2.366,1.294-3.757,1.83
		s-2.9,0.97-4.532,1.303c-1.632,0.333-3.319,0.499-5.063,0.499c-3.598,0-6.787-0.591-9.569-1.774s-5.111-2.911-6.984-5.185
		c-1.873-2.274-3.301-5.065-4.284-8.373s-1.472-7.126-1.472-11.451c0-4.917,0.601-9.14,1.806-12.671s2.856-6.423,4.951-8.678
		s4.562-3.928,7.399-5.018s5.908-1.636,9.209-1.636c1.595,0,3.141,0.148,4.643,0.444s2.885,0.684,4.146,1.165
		c1.261,0.481,2.381,1.035,3.364,1.664c0.983,0.628,1.699,1.164,2.144,1.608s0.749,0.795,0.916,1.054
		c0.167,0.259,0.308,0.564,0.419,0.915c0.111,0.351,0.185,0.749,0.223,1.192c0.037,0.444,0.056,0.998,0.056,1.664
		c0,1.442-0.167,2.449-0.501,3.022c-0.334,0.573-0.742,0.86-1.224,0.86c-0.556,0-1.198-0.305-1.921-0.915
		c-0.723-0.61-1.639-1.285-2.752-2.024c-1.113-0.739-2.459-1.414-4.035-2.024c-1.576-0.61-3.438-0.915-5.589-0.915
		c-4.413,0-7.8,1.691-10.155,5.074s-3.531,8.29-3.531,14.723c0,3.216,0.304,6.035,0.916,8.456c0.612,2.421,1.513,4.445,2.7,6.072
		c1.187,1.627,2.641,2.837,4.365,3.632s3.701,1.192,5.927,1.192c2.114,0,3.968-0.333,5.563-0.998
		c1.595-0.665,2.974-1.396,4.143-2.19c1.168-0.795,2.151-1.516,2.948-2.163c0.797-0.647,1.42-0.97,1.866-0.97
		c0.26,0,0.482,0.074,0.668,0.222c0.185,0.148,0.341,0.397,0.471,0.749s0.223,0.795,0.278,1.331
		C879.356,133.586,879.385,134.224,879.385,134.963z"/>
	<path class="st0" d="M938.81,117.052c0,4.066-0.538,7.81-1.613,11.229s-2.681,6.368-4.814,8.845s-4.803,4.408-8.011,5.795
		c-3.208,1.386-6.924,2.079-11.152,2.079c-4.117,0-7.707-0.61-10.767-1.83s-5.608-2.994-7.648-5.323s-3.56-5.157-4.562-8.484
		c-1.001-3.327-1.502-7.098-1.502-11.312c0-4.066,0.527-7.81,1.584-11.229c1.057-3.42,2.652-6.368,4.784-8.845
		c2.133-2.477,4.795-4.399,7.985-5.767c3.19-1.368,6.917-2.052,11.182-2.052c4.117,0,7.703,0.61,10.763,1.83
		c3.06,1.22,5.611,2.994,7.651,5.323c2.04,2.329,3.568,5.157,4.588,8.484C938.298,109.122,938.81,112.875,938.81,117.052z
		 M929.297,117.662c0-2.699-0.252-5.249-0.76-7.652c-0.504-2.403-1.339-4.51-2.496-6.322c-1.161-1.811-2.733-3.244-4.718-4.298
		s-4.451-1.58-7.41-1.58c-2.73,0-5.077,0.481-7.043,1.442c-1.966,0.961-3.583,2.32-4.855,4.076
		c-1.272,1.756-2.218,3.835-2.837,6.238c-0.616,2.403-0.924,5.028-0.924,7.874c0,2.736,0.252,5.305,0.757,7.708
		c0.504,2.403,1.346,4.501,2.526,6.294s2.759,3.216,4.744,4.27c1.984,1.054,4.454,1.58,7.41,1.58c2.696,0,5.033-0.481,7.017-1.442
		c1.984-0.961,3.609-2.311,4.884-4.048c1.272-1.738,2.207-3.808,2.804-6.211C928.997,123.189,929.297,120.546,929.297,117.662z"/>
	<path class="st0" d="M1024,143.281c0,0.296-0.074,0.545-0.223,0.749c-0.148,0.203-0.389,0.379-0.723,0.527
		s-0.797,0.259-1.391,0.333c-0.593,0.074-1.335,0.111-2.225,0.111c-0.927,0-1.688-0.037-2.281-0.111
		c-0.593-0.074-1.068-0.185-1.42-0.333c-0.352-0.148-0.601-0.323-0.749-0.527c-0.148-0.203-0.223-0.453-0.223-0.749v-30.332
		c0-2.107-0.185-4.03-0.556-5.767c-0.371-1.738-0.964-3.235-1.78-4.492c-0.816-1.257-1.854-2.218-3.115-2.884
		s-2.745-0.998-4.451-0.998c-2.114,0-4.239,0.813-6.372,2.44s-4.477,4.011-7.036,7.153v34.879c0,0.296-0.074,0.545-0.223,0.749
		s-0.401,0.379-0.753,0.527c-0.352,0.148-0.823,0.259-1.417,0.333c-0.593,0.074-1.335,0.111-2.225,0.111
		c-0.853,0-1.587-0.037-2.199-0.111c-0.612-0.074-1.094-0.185-1.446-0.333c-0.352-0.148-0.593-0.323-0.723-0.527
		c-0.13-0.203-0.193-0.453-0.193-0.749v-30.332c0-2.107-0.204-4.03-0.612-5.767c-0.408-1.738-1.02-3.235-1.836-4.492
		c-0.816-1.257-1.847-2.218-3.089-2.884c-1.242-0.665-2.715-0.998-4.421-0.998c-2.114,0-4.247,0.813-6.398,2.44
		c-2.151,1.627-4.488,4.011-7.01,7.153v34.879c0,0.296-0.074,0.545-0.223,0.749c-0.148,0.203-0.389,0.379-0.723,0.527
		s-0.797,0.259-1.391,0.333c-0.593,0.074-1.354,0.111-2.281,0.111c-0.89,0-1.632-0.037-2.225-0.111
		c-0.593-0.074-1.068-0.185-1.42-0.333c-0.352-0.148-0.593-0.323-0.723-0.527c-0.13-0.203-0.193-0.453-0.193-0.749V93.374
		c0-0.296,0.056-0.545,0.167-0.749s0.334-0.388,0.668-0.555c0.334-0.166,0.76-0.277,1.28-0.333s1.205-0.083,2.058-0.083
		c0.816,0,1.491,0.028,2.029,0.083c0.538,0.055,0.957,0.166,1.254,0.333c0.297,0.166,0.508,0.351,0.638,0.555
		c0.13,0.203,0.197,0.453,0.197,0.749v6.599c2.819-3.142,5.552-5.444,8.204-6.904s5.333-2.19,8.041-2.19
		c2.077,0,3.939,0.24,5.589,0.721c1.65,0.481,3.108,1.155,4.369,2.024c1.261,0.869,2.337,1.904,3.227,3.105
		c0.89,1.201,1.632,2.542,2.225,4.02c1.669-1.811,3.253-3.346,4.755-4.603c1.502-1.257,2.948-2.274,4.339-3.05
		c1.391-0.776,2.745-1.34,4.061-1.691c1.317-0.351,2.644-0.527,3.98-0.527c3.227,0,5.934,0.564,8.122,1.691
		c2.188,1.128,3.957,2.634,5.311,4.519c1.354,1.885,2.318,4.094,2.893,6.627c0.575,2.532,0.864,5.203,0.864,8.013V143.281z"/>
</g>
</svg>
