<?xml version="1.0" encoding="UTF-8" standalone="no"?>
<!-- Created with Inkscape (http://www.inkscape.org/) -->

<svg
   xmlns:dc="http://purl.org/dc/elements/1.1/"
   xmlns:cc="http://creativecommons.org/ns#"
   xmlns:rdf="http://www.w3.org/1999/02/22-rdf-syntax-ns#"
   xmlns:svg="http://www.w3.org/2000/svg"
   xmlns="http://www.w3.org/2000/svg"
   xmlns:sodipodi="http://sodipodi.sourceforge.net/DTD/sodipodi-0.dtd"
   xmlns:inkscape="http://www.inkscape.org/namespaces/inkscape"
   id="svg2"
   version="1.1"
   inkscape:version="0.48.2 r9819"
   width="727.86743"
   height="242.91318"
   sodipodi:docname="engadget_logo.png">
  <metadata
     id="metadata8">
    <rdf:RDF>
      <cc:Work
         rdf:about="">
        <dc:format>image/svg+xml</dc:format>
        <dc:type
           rdf:resource="http://purl.org/dc/dcmitype/StillImage" />
        <dc:title></dc:title>
      </cc:Work>
    </rdf:RDF>
  </metadata>
  <defs
     id="defs6" />
  <sodipodi:namedview
     pagecolor="#ffffff"
     bordercolor="#666666"
     borderopacity="1"
     objecttolerance="10"
     gridtolerance="10"
     guidetolerance="10"
     inkscape:pageopacity="0"
     inkscape:pageshadow="2"
     inkscape:window-width="1600"
     inkscape:window-height="837"
     id="namedview4"
     showgrid="false"
     fit-margin-top="0"
     fit-margin-left="0"
     fit-margin-right="0"
     fit-margin-bottom="0"
     inkscape:zoom="1"
     inkscape:cx="638.96699"
     inkscape:cy="138.18117"
     inkscape:window-x="-8"
     inkscape:window-y="-8"
     inkscape:window-maximized="1"
     inkscape:current-layer="svg2" />
  <g
     id="g3023"
     transform="matrix(0.3890004,0,0,0.3890004,0.04767037,-1.4405576)">
    <path
       style="fill:#c9ecf7"
       d="m 463,609.55074 0,-18.44927 41.75,-0.30384 c 40.78559,-0.29683 41.88045,-0.35652 47.39709,-2.58409 7.80615,-3.15203 14.15239,-9.03696 17.81088,-16.51618 C 572.82636,565.83339 575,557.52217 575,552.41844 l 0,-2.30858 -46.25,-0.30493 -46.25,-0.30493 -8,-2.80777 C 462.53188,542.49177 453.57376,536.7506 443.91158,527.08842 434.66423,517.84107 428.59578,508.59618 424.81763,498 422.50827,491.52319 422.5,491.31627 422.5,440 l 0,-51.5 2.40034,-7.32758 c 7.60424,-23.2136 28.87785,-40.69347 55.62513,-45.70546 7.37444,-1.38185 14.11414,-1.57999 41.88164,-1.23128 32.62705,0.40973 33.2192,0.45408 42.066,3.15023 13.51606,4.11915 19.90117,7.91246 29.58323,17.575 9.70766,9.68809 14.62481,18.39783 17.35253,30.7365 2.30318,10.41831 2.38121,183.32622 0.0871,193.05616 -3.95167,16.76027 -17.19016,32.96226 -33.49599,40.99425 -15.94432,7.85392 -19.20974,8.23718 -70.25,8.24517 L 463,628 463,609.55074 z M 574.34918,494.75 c 0.31029,-9.4875 0.46884,-33.9 0.35234,-54.25 -0.20314,-35.4827 -0.30408,-37.26655 -2.46128,-43.5 -3.18552,-9.20488 -7.7386,-14.92099 -14.94423,-18.76154 -10.27739,-5.4778 -17.14566,-6.60141 -40.79601,-6.674 -18.99863,-0.0583 -21.67066,0.14655 -28.0371,2.14966 -13.43333,4.22659 -22.46147,13.06618 -26.41372,25.86208 -1.68762,5.46387 -1.93326,10.05158 -2.17078,40.54242 -0.25399,32.60454 -0.15985,34.70429 1.82145,40.62952 4.02999,12.05202 10.94813,20.14396 21.94345,25.66659 9.94726,4.99623 13.99135,5.41213 53.49921,5.50196 L 573.78502,512 574.34918,494.75 z M 1129.25,627.32293 1099,626.97067 l 0,-18.4346 0,-18.4346 41.75,-0.30384 c 41.4491,-0.30166 41.7932,-0.32121 47.7426,-2.71337 12.4329,-4.99901 20.5849,-16.62424 22.1124,-31.53341 l 0.6712,-6.55085 -43.3881,-0.0174 c -48.9788,-0.0196 -51.8523,-0.32389 -65.6808,-6.95492 -21.573,-10.34473 -38.3393,-30.57152 -42.712,-51.52772 -2.1263,-10.19058 -2.1231,-93.83359 0,-104 5.4609,-26.10008 28.3032,-46.78597 57.5006,-52.07231 9.2774,-1.67972 61.2081,-1.93496 72.556,-0.35662 9.406,1.30825 21.3303,5.42123 29.0083,10.00564 12.3607,7.38041 23.2364,21.2795 27.7178,35.42329 l 2.2179,7 0,95 0,95 -2.3117,6.69044 c -5.8286,16.8687 -21.1907,32.14816 -39.1021,38.89157 -13.6933,5.15536 -24.2341,5.8651 -77.8362,5.24092 z M 1210.9826,459.25 c -0.019,-56.7451 -0.3622,-60.92077 -5.8052,-70.62451 -7.4184,-13.22552 -23.1589,-18.62877 -54.1774,-18.59748 -13.9159,0.014 -22.912,1.22109 -30.6721,4.11545 -8.0611,3.00657 -18.0639,12.98578 -21.4071,21.35654 -2.3445,5.87002 -2.4033,6.76454 -2.7172,41.29255 -0.2768,30.45822 -0.095,36.06849 1.326,40.95728 3.7394,12.86291 10.9053,21.91695 21.6324,27.33195 10.6887,5.39562 13.948,5.74401 54.588,5.83491 L 1211,511 l -0.017,-51.75 z m -523.14129,89.71862 c -15.86224,-1.77673 -32.04209,-9.60995 -40.84963,-19.77669 -5.45308,-6.29461 -11.69641,-19.10855 -13.49233,-27.69193 -2.01831,-9.6463 -2.02308,-38.06906 -0.008,-45.8067 5.09772,-19.57149 21.28906,-34.52145 44.3648,-40.96339 7.21611,-2.01449 10.31369,-2.15391 55.39353,-2.49326 l 47.75,-0.35946 0,-6.90108 c 0,-14.07991 -7.86054,-25.97465 -20.53099,-31.06798 -5.90752,-2.37473 -6.38727,-2.40259 -46.56809,-2.70497 l -40.59907,-0.30553 -0.65093,-12.10582 C 672.29292,352.13361 672,343.83165 672,340.343 l 0,-6.343 39.36901,0 c 42.49598,0 49.90257,0.63611 63.75378,5.47543 19.30953,6.74635 34.36418,21.27957 41.38922,39.95567 5.70119,15.15666 5.99082,18.32118 5.95547,65.0689 -0.0372,49.21009 -0.18918,50.35101 -9.12394,68.49744 -3.89644,7.91365 -6.10765,10.91782 -13.2599,18.01502 -5.83978,5.79486 -10.66385,9.56018 -15.0912,11.77913 -12.52937,6.2796 -13.94409,6.45839 -53.49244,6.76018 -19.8,0.15109 -39.44641,-0.11133 -43.65869,-0.58315 z m 73.00704,-40.43108 c 6.62263,-3.66828 13.62954,-11.28451 17.0545,-18.53754 2.45948,-5.20846 2.61453,-6.49389 2.92506,-24.25 l 0.32792,-18.75 -37.32792,0.008 c -20.53035,0.004 -40.25291,0.46657 -43.82791,1.02759 -13.98209,2.19419 -23.24342,9.31072 -26.53315,20.38844 -1.91854,6.46043 -1.8684,17.04166 0.10825,22.84281 3.03012,8.89292 12.73983,17.13841 23.17082,19.67669 2.06475,0.50243 16.12908,0.83328 31.25408,0.73522 l 27.5,-0.1783 5.34835,-2.96246 z M 55.5,547.5226 C 33.776154,543.49778 16.526523,531.1943 7.0383216,512.95677 0.69199955,500.75834 0.02041565,496.26636 0.0927027,466.5 0.12742999,452.2 0.51649911,427.225 0.95730073,411 1.6622467,385.05239 2.0056332,380.81341 3.8088727,375.79838 11.239896,355.13179 30.523026,339.19691 53.811433,334.47808 c 11.829203,-2.39691 78.610717,-1.66483 87.688567,0.96126 16.95177,4.9039 32.51111,17.8743 40.25949,33.56066 6.41535,12.98767 8.43565,21.98812 8.41752,37.5 -0.0251,21.47237 -4.91947,35.22264 -16.82209,47.26013 -4.33801,4.38717 -8.38378,7.29481 -13.52246,9.71841 -14.63754,6.90364 -14.05136,6.8419 -69.08246,7.27649 l -49.75,0.39288 0,5.7479 c 0,15.04375 10.55395,28.06327 26.855335,33.12917 C 73.704237,511.84262 77.179684,512 111.46941,512 l 37.25874,0 0.63593,4.63957 c 0.34975,2.55177 0.63592,10.87677 0.63592,18.5 L 150,549 106.25,548.90975 C 75.019303,548.84533 60.496911,548.44838 55.5,547.5226 z m 76.64287,-114.33753 c 6.82131,-2.7182 13.73386,-9.67697 16.30787,-16.41692 1.41399,-3.70249 1.69663,-6.71422 1.3581,-14.47183 -0.49375,-11.31464 -2.32992,-15.87348 -9.12774,-22.66234 -8.10955,-8.09886 -8.09784,-8.09661 -43.788556,-8.42328 -30.023033,-0.27479 -31.888079,-0.1843 -37.205583,1.80523 -7.245041,2.71072 -13.960104,9.42544 -16.670515,16.66966 C 41.234915,394.44716 41,397.46768 41,415.61295 l 0,20.53793 42.75,-0.3586 c 41.55438,-0.34857 42.90782,-0.42149 48.39287,-2.60721 z M 208,440.92963 l 0,-108.07036 51.75,0.59125 c 58.95041,0.67351 62.67916,0.85381 74.28127,3.59173 27.67576,6.53105 50.61831,27.48435 60.1507,54.93527 C 398.91971,405.62104 399,407.08896 399,480.06538 L 399,549 l -19.75,6e-5 -19.75,6e-5 0.35523,-61.42771 c 0.31376,-54.25675 0.16081,-62.39925 -1.31017,-69.75006 C 353.7654,393.93731 336.49263,374.90064 316,370.9326 c -3.6613,-0.70895 -15.94716,-0.83456 -36.75,-0.37573 l -31.25,0.68924 0,88.87695 0,88.87694 -20,0 -20,0 0,-108.07037 z m 698.07519,107.01272 c -23.82474,-4.83377 -45.50524,-21.01328 -55.50144,-41.41907 -6.62328,-13.52047 -6.74609,-14.76088 -6.32821,-63.91732 0.3577,-42.0776 0.4768,-44.44299 2.59,-51.43459 8.4033,-27.80274 28.81399,-47.30075 57.40873,-54.84165 5.22029,-1.37668 13.49717,-1.71828 50.00573,-2.0638 L 998,333.85185 998,294.42593 998,255 l 19,0 19,0 0,114.10566 c 0,125.07429 0.2875,118.68786 -5.9633,132.47369 -8.7627,19.3257 -27.8682,38.14344 -45.17867,44.49812 -6.14559,2.25605 -7.49405,2.34119 -40.35803,2.54833 -18.7,0.11786 -35.99117,-0.18969 -38.42481,-0.68345 z m 68.71321,-42.37218 c 6.69,-3.70633 12.24538,-9.71312 16.16575,-17.47935 6.59844,-13.07143 6.54585,-12.53443 6.54585,-66.84018 l 0,-49.24936 -37.64466,-6.4e-4 c -34.67509,-5.9e-4 -38.14601,0.15516 -44,1.97438 -14.54791,4.52098 -25.37319,16.09092 -29.49599,31.52498 -2.09518,7.84352 -1.91393,70.26954 0.22495,77.47191 3.52408,11.86688 12.33455,20.58657 24.9157,24.659 2.9443,0.95306 11.12596,1.2386 31,1.08193 l 27,-0.21284 5.2884,-2.92983 z m 354.5266,42.42222 c -12.7158,-1.85919 -25.7939,-7.60492 -35.1213,-15.4302 -11.0332,-9.25641 -17.6807,-20.02517 -21.3348,-34.56219 -2.1214,-8.43912 -2.1289,-8.87961 -1.051,-61.5 1.2424,-60.64751 1.2038,-60.36942 10.2514,-73.89679 8.0704,-12.06624 19.8296,-20.78167 35.4407,-26.26715 l 8,-2.81107 35.5,-0.33675 c 23.4635,-0.22257 38.2125,0.0573 43.5,0.82534 27.0685,3.93199 46.5114,21.88363 54.6803,50.48642 1.9288,6.75338 2.274,10.25951 2.2155,22.5 -0.06,12.46707 -0.4181,15.64426 -2.5569,22.66153 -6.0964,20.00212 -20.3293,33.55522 -40.9271,38.97252 -5.4849,1.44254 -13.6227,1.74623 -56.2908,2.1007 l -49.8791,0.41436 0.4928,6.88674 c 0.6503,9.08936 4.2441,16.37317 11.2274,22.75549 5.7678,5.27147 11.8758,8.58501 18.7465,10.16987 2.4106,0.55607 20.6166,1.00061 41.5414,1.01434 L 1421,512 l 0,18.5 0,18.5 -43.25,-0.12476 c -23.7875,-0.0686 -45.5833,-0.4659 -48.435,-0.88285 z M 1396,434.93795 c 17.27,-2.78164 27.0725,-15.57417 25.7126,-33.55558 -0.9063,-11.98216 -6.6005,-21.29214 -16.629,-27.18771 L 1400.5,371.5 l -31.3119,-0.30297 c -36.0019,-0.34835 -38.7915,0.061 -46.4691,6.81913 -2.6116,2.29879 -5.822,6.52984 -7.4128,9.7694 -2.7676,5.63574 -2.8106,6.0071 -3.1273,26.96444 l -0.3212,21.25 38.8212,-0.008 c 22.1949,-0.004 41.6049,-0.45594 45.3211,-1.0545 z m 126,112.47939 c -14.7115,-3.88128 -29.8555,-15.8303 -36.7525,-28.99879 -6.5411,-12.48916 -6.2527,-7.352 -6.943,-123.66855 l -0.6276,-105.75 20.6615,0 20.6616,0 0.01,13.25 c 0,7.2875 0.2957,17.6375 0.6508,23 l 0.6456,9.75 23.8492,0 23.8492,0 0,18.5 0,18.5 -23.8848,0 -23.8848,0 -0.6951,31.25 c -0.3823,17.1875 -0.5466,45.01141 -0.3652,61.83091 l 0.3299,30.58092 3.0264,4.89265 c 1.8724,3.02698 4.8918,6.04669 7.9181,7.91908 4.8242,2.9847 5.11,3.0311 20.7236,3.3643 l 15.8319,0.33786 0,18.41214 0,18.41214 -19.75,-0.0658 c -13.8782,-0.0462 -21.3852,-0.49721 -25.25,-1.51685 z m 201.6872,-175.06349 c -0.378,-0.37795 -0.6954,-8.59968 -0.7055,-18.27052 -0.02,-19.3491 -1.5208,-32.45419 -5.5274,-48.27027 -18.5726,-73.31617 -81.5078,-133.88581 -160.4504,-154.41948 -18.6604,-4.85375 -32.1397,-6.55979 -56.2539,-7.11994 l -22.75,-0.52847 0,-19.99258 0,-19.99259 25.25,0.50907 c 27.3579,0.55157 39.4913,2.06585 61.75,7.70662 94.846,24.0357 169.1855,95.66065 191.5176,184.52431 4.8856,19.44062 6.636,33.90639 6.8209,56.36922 L 1763.5,372.5 l -19.5628,0.27052 c -10.7596,0.14878 -19.8721,-0.0387 -20.25,-0.41667 z m 106.8515,-0.58263 c -0.2282,-0.69917 -0.6224,-12.52122 -0.876,-26.27122 -0.6164,-33.4165 -3.8132,-53.24826 -13.365,-82.91212 C 1783.8234,161.73635 1696.5112,83.101408 1586.5,55.628085 c -28.1192,-7.022267 -49.1324,-9.667034 -82.25,-10.352142 l -26.25,-0.543038 0,-20.514838 0,-20.5148379 25.25,0.6088053 c 27.7629,0.6693941 37.6128,1.5197191 60.75,5.2444538 57.412,9.2424408 112.4298,31.5775908 159.8899,64.9092558 32.4371,22.78087 66.3208,56.916046 88.3783,89.034256 39.1632,57.02588 59.8502,125.04047 58.5498,192.5 l -0.318,16.5 -19.7732,0.27122 c -15.3022,0.20989 -19.8671,-0.0162 -20.1881,-1 z M 1623.7254,354.75 c -0.6238,-19.06052 -2.7145,-29.65648 -8.678,-43.98147 -12.1104,-29.09046 -41.3296,-54.55728 -74.6859,-65.09453 -14.7069,-4.64591 -22.1407,-5.77069 -42.1115,-6.37176 l -19.25,-0.57938 0,-18.86143 0,-18.86143 16.2762,0 c 19.6564,0 29.3193,1.07932 45.5668,5.08966 27.3366,6.74747 49.8535,18.36467 70.3833,36.31306 24.25,21.20078 40.335,48.47439 47.8285,81.09728 1.5426,6.71582 2.2134,14.01251 2.6432,28.75 l 0.5759,19.75 -18.992,0 -18.992,0 -0.5645,-17.25 z"
       id="path3045"
       inkscape:connector-curvature="0" />
    <path
       style="fill:#95dcf0"
       d="m 463,610.05444 c 0,-9.92994 0.1125,-18.11349 0.25,-18.18567 0.1375,-0.0722 19.15,-0.41068 42.25,-0.75223 l 42,-0.62099 6.29148,-2.90296 c 12.01203,-5.54246 19.70133,-17.15861 20.91189,-31.59135 l 0.5453,-6.50124 -45.37434,0 c -44.82099,0 -45.46549,-0.0286 -52.84911,-2.34706 -23.2913,-7.3134 -41.76878,-24.08799 -50.59032,-45.92791 -4.15574,-10.28859 -4.58446,-17.04728 -4.21105,-66.38737 0.33646,-44.45796 0.43913,-46.60195 2.5311,-52.85294 2.56335,-7.65952 8.04507,-17.03197 13.99689,-23.9314 5.15853,-5.97982 18.39684,-14.88523 27.24816,-18.32984 12.44665,-4.84377 16.22672,-5.22348 52,-5.22348 38.72249,0 43.18555,0.61956 58.91144,8.17811 16.15803,7.76626 28.47267,22.31467 33.70761,39.82189 1.65681,5.54089 1.81922,12.93611 2.12249,96.64628 0.28243,77.95856 0.11639,91.67558 -1.18621,98 -4.61057,22.38535 -22.4301,40.35782 -47.5827,47.9911 -7.2246,2.19251 -9.02432,2.27946 -54.22263,2.61964 l -46.75,0.35185 0,-18.05443 z M 574.98264,460.25 c -0.0136,-40.63598 -0.3198,-53.17689 -1.42559,-58.39398 -3.29552,-15.54817 -10.84513,-23.58096 -26.43421,-28.12602 -8.54813,-2.49224 -40.99361,-3.60719 -51.82175,-1.78079 -17.21819,2.90423 -29.1312,12.78771 -33.81089,28.05079 -2.27289,7.41319 -3.40962,62.62041 -1.52003,73.82316 2.35479,13.96076 10.93357,26.46414 22.13779,32.26533 10.54343,5.45905 13.39132,5.76344 54.64204,5.84027 L 575,512 574.98264,460.25 z M 1099,609 c 0,-17.9685 0,-18.00019 2.25,-18.10631 1.2375,-0.0585 20.25,-0.39597 42.25,-0.75 l 40,-0.64369 6.5886,-3.12193 c 12.3546,-5.8541 19.5474,-16.52756 20.6107,-30.58438 l 0.5517,-7.29369 -45.8755,0 -45.8755,0 -7.6667,-2.61732 C 1087.214,537.47786 1068.1126,518.42107 1060.8316,495 c -2.3084,-7.42524 -2.3316,-7.98842 -2.3316,-56.5 0,-48.45464 0.026,-49.08347 2.3234,-56.5 7.0881,-22.88083 25.7451,-39.71632 51.6766,-46.6312 6.1808,-1.64819 10.9788,-1.86675 41,-1.86771 29.5596,-9.5e-4 35.0448,0.24093 42,1.85204 24.8935,5.76636 42.3069,20.737 50.1869,43.14687 l 2.8131,8 0.2798,92.21551 c 0.3121,102.82556 0.5219,99.2088 -6.5359,112.63987 -6.9964,13.31416 -20.1619,24.6853 -35.1089,30.32372 -13.0113,4.90825 -18.0307,5.3209 -64.723,5.3209 l -43.412,0 0,-18 z m 90.25,-97.6617 21.75,-0.6568 0,-52.29153 c 0,-35.10321 -0.3715,-54.02385 -1.1303,-57.56171 -3.3407,-15.57724 -11.506,-23.98982 -27.6029,-28.43879 -7.7989,-2.1555 -41.1394,-3.09768 -50.9657,-1.44026 -14.815,2.49888 -25.7728,10.42527 -31.589,22.85008 l -3.1366,6.70071 -0.8302,31 c -0.8868,33.11306 -0.3193,42.2466 3.2063,51.60209 5.8177,15.43789 20.8742,25.94114 40.0484,27.93727 9.2388,0.96182 25.1618,1.05654 50.25,0.29894 z M 59.731936,547.94946 C 30.618328,544.56111 7.8518789,524.77228 1.3806929,497.22998 0.00195232,491.36186 -0.11174288,484.5451 0.49288243,444 1.3715916,385.07533 1.7629526,380.1169 6.2787974,370.69407 14.392623,353.76363 30.063493,340.98867 49.5,335.45996 c 4.884437,-1.38938 11.885495,-1.79578 37.654842,-2.18583 35.213078,-0.53299 48.171388,0.37912 59.028748,4.15494 19.399,6.7463 33.87378,22.84528 40.97338,45.57093 2.06639,6.61448 2.3398,9.44815 2.3157,24 -0.0255,15.38553 -0.21402,17.04035 -2.79125,24.5 -5.24179,15.17208 -15.161,26.62318 -28.18142,32.53366 C 146.41927,469.51757 141.66549,470 99.708157,470 78.58979,470 56.461329,470.29674 50.5338,470.65942 l -10.777324,0.65941 0.644874,6.59059 c 1.311397,13.40241 9.262236,24.19291 22.419041,30.42606 L 69.5,511.5 l 39.75,0.29307 39.75,0.29307 0.006,10.20693 c 0.003,5.61381 0.295,13.91943 0.64822,18.45693 l 0.64222,8.25 -41.89821,-0.13143 c -23.044022,-0.0723 -44.943849,-0.48588 -48.666284,-0.91911 z M 133,432.90984 c 7.73314,-3.64184 11.46616,-7.12263 14.69891,-13.70574 2.43811,-4.96493 2.80109,-6.87038 2.80109,-14.7041 0,-7.81047 -0.38137,-9.82573 -2.88543,-15.24748 -3.23483,-7.00398 -9.44757,-13.36572 -15.92426,-16.30617 -3.83623,-1.74167 -6.90195,-1.90428 -36.280588,-1.92439 L 63.319445,371 l -6.119657,3.05803 c -7.021163,3.50852 -10.457564,7.15658 -14.07502,14.94197 -2.429397,5.22848 -2.575247,6.5268 -2.954394,26.29916 L 39.771537,436.09833 83.635769,435.79916 127.5,435.5 133,432.90984 z m 75,8.64918 c 0,-59.09254 0.3375,-107.59799 0.75,-107.78989 0.4125,-0.19189 26.625,-0.069 58.25,0.27309 l 57.5,0.62198 9.5,2.55775 c 11.33004,3.05045 18.9779,6.32895 26.66257,11.42974 17.18546,11.40706 28.98008,28.20152 35.71038,50.84831 2.00794,6.75652 2.09112,9.47827 2.39142,78.25 l 0.31112,71.25 -19.50358,0 -19.50357,0 -0.28417,-65.75 L 359.5,417.5 356.58372,409.14777 C 349.74235,389.55406 334.98638,374.99743 318,371.08529 c -4.88539,-1.12516 -56.14133,-1.47133 -64.75,-0.43731 l -5.25,0.6306 0,88.86071 0,88.86071 -20,0 -20,0 0,-107.44098 z m 471.67515,105.81374 c -21.72048,-4.65986 -37.46079,-18.78558 -44.34289,-39.79435 -2.34514,-7.15894 -2.69765,-10.07844 -3.09712,-25.65058 -0.51707,-20.15673 0.24911,-25.32141 5.32892,-35.9212 4.08833,-8.53091 13.89033,-18.90461 22.43594,-23.74451 7.81452,-4.42584 19.04801,-7.91978 29.5,-9.17534 5.11073,-0.61394 27.10531,-1.08236 50.89674,-1.08396 L 782.29347,412 781.64944,404.38106 C 780.44548,390.13829 773.62923,379.96257 761.5,374.30075 l -6,-2.80075 -41.25,-0.29173 -41.25,-0.29173 0,-16.87648 c 0,-9.28207 -0.27314,-17.58829 -0.60699,-18.45827 -0.54693,-1.42528 3.13871,-1.58121 37.25,-1.57589 49.46219,0.008 60.05589,1.53462 77.35699,11.14982 13.7437,7.63815 24.3724,20.60866 30.0612,36.68455 4.7106,13.31158 5.12176,19.01849 4.76656,66.15973 L 821.5,491.5 818.1989,501 c -4.46078,12.83737 -10.12317,22.11964 -18.60943,30.50614 -8.08157,7.98657 -17.91226,13.651 -27.69258,15.95642 -9.12395,2.1507 -82.10961,2.07964 -92.22174,-0.0898 z M 760,509.16729 c 10.03347,-5.20114 18.42905,-16.44895 20.87474,-27.96651 C 781.49363,478.28621 782,469.37206 782,461.39155 l 0,-14.51 -42.25,0.35418 c -46.836,0.39263 -48.41057,0.58823 -56.95587,7.07546 -10.64807,8.08357 -14.58607,27.52138 -8.11208,40.04091 4.12822,7.98325 9.64876,12.67063 18.61779,15.80799 4.62969,1.61947 8.32668,1.79274 33.70016,1.57946 27.66621,-0.23254 28.63165,-0.30779 33,-2.57226 z m 149.5,39.11816 C 884.86726,544.87889 861.79705,528.38536 850.56909,506.15411 844.54241,494.22137 844,489.41231 844,447.9124 c 0,-40.00119 0.63737,-48.51564 4.55667,-60.87116 6.38747,-20.1364 23.59035,-38.27371 44.10389,-46.49953 13.50629,-5.41594 16.54294,-5.71972 62.58944,-6.26127 L 998,333.77766 998,294.38883 998,255 l 19,0 19,0 0,113.7701 c 0,111.17138 -0.046,113.93704 -2.0253,121.07863 -7.5098,27.10014 -31.3822,52.02679 -55.20554,57.64363 -4.88021,1.1506 -12.91575,1.44816 -36.26916,1.34303 -16.5,-0.0743 -31.35,-0.32175 -33,-0.54994 z m 61.82047,-40.72073 c 7.22664,-2.6996 15.95303,-11.30935 20.18993,-19.92006 6.15879,-12.51658 6.45287,-15.64702 6.47224,-68.89466 L 998,371 l -23.25,0.0689 c -12.7875,0.0379 -30.9617,0.39435 -40.38712,0.79213 l -17.13712,0.72324 -7.52093,3.71705 c -11.71645,5.79058 -19.60447,15.28986 -23.02545,27.72878 -1.85674,6.75122 -3.19913,64.19686 -1.71266,73.29067 2.10951,12.90533 9.19464,22.52004 20.49036,27.80594 9.26364,4.33498 12.84037,4.75674 38.04292,4.48591 19.28135,-0.2072 23.77937,-0.53831 27.82047,-2.0479 z M 1331,547.90963 c -23.5873,-3.03644 -43.4266,-16.65476 -53.042,-36.40963 -6.9882,-14.35753 -7.1899,-16.86982 -5.9734,-74.41321 0.5882,-27.82274 1.5497,-53.06179 2.1368,-56.08679 1.9046,-9.81493 6.5299,-17.70029 15.8539,-27.02838 9.3978,-9.40186 17.2419,-14.13834 30.0247,-18.12976 7.3204,-2.28579 8.4218,-2.34175 46,-2.33728 43.0218,0.005 44.6716,0.20511 59,7.15214 5.6919,2.75968 9.4322,5.5899 15.5148,11.7398 9.2261,9.32829 13.9774,17.5238 18.0536,31.14071 3.6057,12.04494 3.8721,31.66127 0.5946,43.77672 -4.5187,16.70355 -14.3052,29.22338 -28.163,36.0288 -12.5733,6.17461 -16.6256,6.61971 -60.5,6.64506 -21.45,0.0124 -43.4421,0.31667 -48.8713,0.67616 l -9.8713,0.65361 0.4651,7.09121 c 0.8434,12.85588 8.8264,23.85481 21.7775,30.00467 l 6.5,3.08654 40.25,0.29262 40.25,0.29261 0,18.45739 0,18.45738 -41.75,-0.1268 c -22.9625,-0.0697 -44.675,-0.50335 -48.25,-0.96357 z m 72.4915,-114.36495 c 7.4585,-2.83497 14.9313,-10.75122 17.0595,-18.07198 2.4288,-8.35491 1.6409,-20.31623 -1.7767,-26.9727 -3.4336,-6.68737 -9.0107,-12.23565 -15.193,-15.11442 -5.0101,-2.33291 -5.5295,-2.36604 -37.0813,-2.36604 -31.443,0 -32.0874,0.0407 -37.0203,2.33779 -6.5883,3.06798 -13.6243,10.9349 -15.7971,17.66261 -1.3463,4.16839 -1.6826,9.19428 -1.6826,25.14414 l 0,19.93442 43.25,-0.32828 c 39.572,-0.30037 43.6745,-0.48963 48.2415,-2.22554 z m 119.7842,113.94388 c -18.0065,-3.91257 -33.7571,-17.99483 -41.3706,-36.98856 l -2.4051,-6 -0.2717,-107.75 -0.2717,-107.75 7.8647,0 c 4.3256,0 13.3353,0.29415 20.0217,0.65368 l 12.157,0.65367 0,22.34633 0,22.34632 24.5,0 24.5,0 0,18.5 0,18.5 -24.522,0 -24.5221,0 0.2721,62.41452 0.272,62.41453 3.0279,4.30755 c 1.6654,2.36915 4.9653,5.67011 7.3332,7.33547 l 4.3053,3.02793 16.4168,0.33604 16.4168,0.33604 0,18.41396 0,18.41396 -18.75,-0.0795 c -11.7244,-0.0497 -21.0822,-0.58626 -24.9743,-1.43194 z M 1623.7447,354.25 c -0.6064,-21.38554 -3.0001,-32.08431 -10.7096,-47.86853 -11.5905,-23.73004 -29.9771,-41.59467 -55.5351,-53.9585 -19.9249,-9.6388 -37.5717,-13.41252 -62.75,-13.41895 L 1479,239 l 0,-19 0,-19 14.75,0.008 c 31.6205,0.0176 55.7977,5.23937 80.75,17.44032 44.7153,21.86453 74.6372,59.42683 84.4798,106.05148 1.4954,7.08354 2.2866,15.46837 2.7131,28.75 l 0.602,18.75 -19.0234,0 -19.0234,0 -0.5034,-17.75 z m 99.9331,-1 c -0.3493,-10.3125 -1.3366,-23.3476 -2.1941,-28.96689 -13.9835,-91.64108 -94.284,-165.69268 -193.8244,-178.74128 C 1520.6331,144.62078 1508.2683,144 1496.9488,144 l -18.9488,0 0,-20 0,-20 17.394,0 c 33.2341,0 61.3347,4.4927 91.1013,14.56521 69.5575,23.53706 127.6415,75.23748 156.3375,139.15558 13.8595,30.87093 20.1672,60.84391 20.1672,95.83043 l 0,18.44878 -19.3435,0 -19.3435,0 -0.6352,-18.75 z M 1831,356.55447 c 0,-69.92524 -21.8004,-133.35761 -64.189,-186.77024 -10.2836,-12.95814 -33.2882,-36.45064 -46.1433,-47.12211 C 1677.9028,87.161457 1624.644,62.215065 1567.9586,51.133252 1546.9201,47.020282 1527.6781,45.05148 1501.25,44.30774 L 1479,43.681581 1479,24.340791 1479,5 l 21.3394,0 c 138.0108,0 262.1594,69.84699 327.6604,184.34422 28.3741,49.59863 42.9117,106.89259 42.9847,169.40578 L 1871,372 l -20,0 -20,0 0,-15.44553 z"
       id="path3043"
       inkscape:connector-curvature="0" />
    <path
       style="fill:#77d0ea"
       d="m 463,610.06249 c 0,-9.93437 0.1125,-18.12368 0.25,-18.19846 0.1375,-0.0748 19.15,-0.41229 42.25,-0.75 l 42,-0.61403 6.56822,-3.1124 c 13.06279,-6.18989 20.88333,-18.80009 20.91991,-33.73225 l 0.0119,-4.84464 -38.25,0.67131 c -51.28804,0.90014 -60.07077,-0.20893 -76.0061,-9.59793 C 442.82163,529.3244 430.49769,514.26632 424.82795,496 422.52578,488.58304 422.5,487.96299 422.5,440 c 0,-52.59407 0.11303,-53.91329 5.62604,-65.66112 8.52887,-18.17442 26.01084,-31.98163 47.28392,-37.34472 7.13811,-1.79957 11.2545,-1.99416 42.18463,-1.99416 26.64834,0 35.86316,0.33415 41.41378,1.50176 25.97982,5.46503 45.06286,22.98872 51.72485,47.49824 1.62881,5.9924 1.76678,13.64542 1.76678,98 0,99.22992 0.1441,96.42764 -5.57932,108.5 -7.73107,16.30709 -22.58173,28.15087 -43.5406,34.72475 -6.55388,2.05566 -9.09657,2.17557 -53.63008,2.5291 l -46.75,0.37113 0,-18.06249 z m 105.25,-97.7142 6.75,-0.6375 0,-52.30617 c 0,-35.1141 -0.37149,-54.03839 -1.13025,-57.57636 C 570.57812,386.47993 563.09626,378.58573 547,373.47764 c -7.20393,-2.28613 -43.97586,-3.32543 -53.32803,-1.50722 -17.76551,3.45389 -29.61223,14.82166 -33.22902,31.8856 -2.10437,9.92837 -2.02907,65.45957 0.0999,73.68388 4.9197,19.00493 18.47468,30.96566 38.97655,34.39239 5.97069,0.99796 59.15991,1.31989 68.73059,0.416 z m 530.75,96.85894 0,-17.90165 11.25,-0.64824 c 6.1875,-0.35654 24.3724,-0.65029 40.4109,-0.65279 25.5456,-0.004 29.8971,-0.23369 35.0992,-1.85275 15.1977,-4.73007 23.6891,-16.28327 25.5955,-34.82463 l 0.5319,-5.17283 -45.1938,0.17283 c -51.2669,0.19605 -50.9638,0.23192 -66.6937,-7.89241 -19.4109,-10.02557 -34.5007,-28.05016 -39.4136,-47.0791 -2.3594,-9.13843 -2.3604,-100.5669 0,-109.71132 2.7081,-10.49704 8.0022,-19.3303 16.8679,-28.14434 9.2822,-9.22812 15.9942,-13.4674 28.2857,-17.86526 l 8.76,-3.13474 39.5,0 c 38.6203,0 39.667,0.0521 47,2.34186 24.9097,7.77801 42.3647,26.41679 46.5052,49.65921 2.1415,12.02081 2.133,179.79379 -0.01,189.99893 -4.6659,22.22382 -22.4179,40.01854 -47.523,47.63738 -7.2246,2.19251 -9.0243,2.27946 -54.2226,2.61964 l -46.75,0.35185 0,-17.90164 z m 107.3236,-97.83811 4.6028,-0.63088 0.2868,-47.61912 c 0.1577,-26.19052 -0.04,-51.28512 -0.4386,-55.76579 -1.7608,-19.77573 -10.9915,-30.77406 -29.7746,-35.47641 -3.8742,-0.9699 -12.2989,-1.37692 -28.5,-1.37692 -21.3569,0 -23.4644,0.16255 -29.5,2.27542 -12.4171,4.34679 -21.0883,13.03827 -25.1656,25.22458 -1.9981,5.97199 -2.2093,8.99506 -2.6008,37.21496 -0.4858,35.01984 0.1685,41.32238 5.3699,51.71922 6.5391,13.07106 20.3145,22.16896 36.8965,24.36826 5.1069,0.67734 63.9525,0.73435 68.8236,0.0667 z M 60.060575,547.91306 C 44.422805,545.88937 31.602663,540.1101 21.02327,530.3152 9.9660074,520.07787 3.4944209,508.28444 0.97250676,493.77588 -0.75590523,483.83233 1.4164202,386.66071 3.5502714,378.4683 7.5362872,363.16496 19.829691,349.17082 36.5,340.96014 50.253933,334.18588 51.804205,334 94.550136,334 c 34.408304,0 38.867184,0.18856 45.683424,1.93186 23.56532,6.02699 40.29288,23.35063 47.3798,49.06814 2.25872,8.19661 2.5779,32.6886 0.53431,41 -3.94671,16.05154 -13.90451,29.47157 -26.9579,36.33094 -13.43472,7.05975 -13.04624,7.01725 -69.68977,7.62335 l -51,0.54571 0.124757,7.04718 c 0.09476,5.35278 0.757703,8.38513 2.757235,12.61179 3.292237,6.95922 11.697177,15.05157 19.365364,18.64514 L 68.5,511.5 l 40.10005,0.29213 40.10005,0.29212 0.57131,17.68062 c 0.31421,9.72434 0.35513,18.03038 0.0909,18.45787 -0.63929,1.03439 -81.07101,0.75547 -89.301765,-0.30968 z M 133.1224,433.36267 c 6.62352,-3.06261 12.2758,-8.57325 14.99684,-14.62103 1.94052,-4.31298 2.36033,-6.92476 2.36955,-14.74164 0.01,-8.3888 -0.31563,-10.16556 -2.78303,-15.19009 -1.65524,-3.37067 -4.99443,-7.70094 -8.19186,-10.62321 -8.5767,-7.83862 -11.90689,-8.40615 -47.0139,-8.01216 l -29,0.32546 -5.714439,2.80615 C 50.058874,377.10044 44.522884,383.56728 41.994908,391.75191 40.29921,397.24194 40,401.05187 40,417.15364 l 0,18.94297 44.25,-0.29831 c 42.75943,-0.28825 44.40571,-0.3703 48.8724,-2.43563 z M 208.72449,548.25 c -0.21645,-0.4125 -0.18837,-48.7875 0.0624,-107.5 l 0.45597,-106.75 49.62856,0.0258 c 66.20661,0.0344 73.78612,0.85215 92.62857,9.99339 17.59105,8.53415 28.7134,19.63111 37.56656,37.48081 9.70378,19.56473 9.3314,15.85029 9.69935,96.75 l 0.32179,70.75 -19.59054,0 -19.59054,0 0.11602,-63.75 c 0.11132,-61.16961 0.0334,-64.06574 -1.92531,-71.55048 C 352.75103,393.2698 338.73945,377.39744 321.2946,372.00927 315.32965,370.16689 312.01562,370 281.39466,370 L 248,370 l 0,89.5 0,89.5 -19.44098,0 c -10.69254,0 -19.61808,-0.3375 -19.83453,-0.75 z M 680.5,547.53235 c -7.85638,-1.71355 -17.25716,-5.58118 -22.74765,-9.35873 -10.689,-7.35422 -19.50837,-20.12751 -23.25008,-33.67362 -2.22103,-8.04079 -3.17233,-34.81086 -1.56735,-44.10611 3.58754,-20.77727 18.87302,-36.75056 42.56508,-44.4804 6.77079,-2.20906 8.62083,-2.3061 56.5,-2.96383 27.225,-0.37399 49.6125,-0.74066 49.75,-0.81482 1.04419,-0.56318 -0.13293,-12.16397 -1.77309,-17.47419 -2.538,-8.21708 -9.62758,-16.404 -17.38201,-20.07243 -9.12174,-4.31527 -15.92995,-4.82269 -54.3449,-4.05037 l -35.25,0.70869 0,-18.72378 0,-18.72378 41.25,0.48017 c 44.24605,0.51504 48.26218,0.91963 62.56337,6.30258 24.41448,9.18959 40.15817,29.82881 44.18033,57.91827 0.76856,5.3674 1.02268,21.82117 0.77223,50 -0.35506,39.94801 -0.48184,42.35805 -2.59491,49.32863 -7.82076,25.79905 -25.21046,43.92574 -47.63112,49.64975 -8.0227,2.0482 -81.69637,2.09187 -91.0399,0.054 z m 79.30419,-38.12206 c 6.21863,-3.09888 12.93354,-9.39992 16.49509,-15.47844 C 780.69458,486.43035 782,479.1732 782,462.24017 l 0,-15.33964 -42.75,0.30167 c -42.32745,0.29868 -42.80931,0.32518 -48.75,2.68083 -7.54788,2.99294 -14.55744,9.90248 -16.83912,16.59884 -4.06127,11.91918 -2.87341,23.78329 3.224,32.20052 3.60046,4.97029 7.67569,7.94735 15.00758,10.96341 5.40136,2.22191 6.65743,2.3076 34.1612,2.33046 l 28.55365,0.0237 5.19688,-2.58971 z m 146.16098,38.13458 c -29.87919,-6.12366 -54.53692,-29.26636 -60.48381,-56.76753 -1.45336,-6.721 -1.6114,-13.01163 -1.21846,-48.5 0.41679,-37.64313 0.61714,-41.42029 2.60665,-49.14241 7.41759,-28.79079 30.36577,-50.47189 59.98759,-56.67539 4.68935,-0.98206 19.06762,-1.59523 48.89286,-2.08506 L 998,333.68059 998,294.3403 998,255 l 19.0242,0 19.0242,0 -0.2742,115.75 -0.2742,115.75 -2.3489,6.47842 c -5.256,14.49631 -12.1872,25.25316 -23.2107,36.02158 -8.522,8.32491 -15.60101,12.96487 -25.69885,16.84449 -6.70216,2.57499 -6.93146,2.59144 -39.24155,2.8149 -24.00043,0.16599 -34.20902,-0.12549 -39.03483,-1.11452 z m 67.25517,-40.72597 c 9.82706,-4.6059 16.55031,-13.04862 22.13531,-27.79642 2.00533,-5.29531 2.1048,-7.63064 2.41821,-56.77248 l 0.32685,-51.25 -34.80035,0.008 c -19.51834,0.004 -37.64621,0.46927 -41.28096,1.05898 -14.33046,2.32499 -26.87129,11.98158 -33.24292,25.59742 -3.04793,6.51329 -3.18292,7.37759 -4.02755,25.7876 -1.27574,27.80696 -0.54507,54.76186 1.65542,61.06963 3.97863,11.40483 13.95679,20.33519 26.4434,23.66659 5.63445,1.50326 10.32428,1.73942 30.65225,1.54352 23.71538,-0.22855 24.06784,-0.26309 29.72034,-2.91239 z M 1335,548.3381 c -31.0729,-3.03471 -54.5205,-21.72467 -61.5004,-49.02161 -2.0528,-8.02784 -2.1581,-14.04612 -1.1865,-67.81649 0.8913,-49.32871 1.3147,-53.2237 6.9466,-63.89697 3.8984,-7.38796 16.035,-19.77434 23.9313,-24.42382 3.1019,-1.82643 8.9404,-4.52643 12.9744,-6 L 1323.5,334.5 l 39.6097,-0.2926 c 44.6911,-0.33015 48.7777,0.0931 61.4737,6.3663 14.6313,7.22948 26.543,21.50898 32.7269,39.23239 2.7086,7.76286 3.0784,10.24675 3.4532,23.19391 0.4995,17.25859 -0.9071,25.43053 -6.3115,36.66672 -4.8771,10.13992 -13.6061,18.89737 -23.5939,23.6707 -13.1868,6.3022 -17.0172,6.66258 -70.8159,6.66258 l -48.0422,0 0,6.46249 c 0,13.61981 7.9727,25.31487 21.685,31.80961 l 6.815,3.2279 40,0.5 40,0.5 0.2726,18.25 0.2725,18.25 -41.2725,-0.16004 c -22.6999,-0.088 -42.8476,-0.31386 -44.7726,-0.50186 z m 69.5,-115.13745 c 5.9511,-2.73675 11.8494,-8.18466 14.8332,-13.70065 1.8445,-3.40969 2.164,-5.62335 2.1653,-15 0,-9.65089 -0.2987,-11.61003 -2.4461,-15.97392 -3.1279,-6.3563 -9.8544,-13.08289 -15.856,-15.85604 -4.4136,-2.03938 -6.4249,-2.18921 -33.4053,-2.48839 -23.5448,-0.26108 -29.807,-0.037 -34.8133,1.24554 -10.5723,2.70849 -17.8746,9.33348 -21.4368,19.44854 -1.1948,3.3926 -1.541,8.96225 -1.541,24.78967 l 0,20.41394 43.75,-0.28967 c 43.2308,-0.28623 43.8093,-0.31696 48.75,-2.58902 z m 117.7017,113.77719 c -15.6899,-4.1105 -29.1908,-14.73021 -36.5126,-28.72057 -6.8583,-13.10448 -6.6524,-9.26377 -6.6717,-124.50727 L 1479,290 l 19.375,0 19.375,0 0.625,3.125 c 0.3438,1.71875 0.625,11.84375 0.625,22.5 l 0,19.375 24,0 24,0 0,18.33748 0,18.33747 -23.75,-0.0875 -23.75,-0.0875 -0.656,59 c -0.7373,66.30595 -0.7391,66.28296 5.946,73.69764 6.1511,6.82247 9.3827,7.75508 26.96,7.7804 L 1567,512 l 0,18.5 0,18.5 -18.75,-0.0551 c -15.1212,-0.0444 -20.1625,-0.42511 -26.0483,-1.9671 z M 1624.6885,371.35516 C 1624.3098,370.97649 1624,364.92423 1624,357.90569 1624,335.31808 1620.8947,321.47928 1611.9039,304 1595.5795,272.26309 1564.8116,249.83591 1526,241.38324 c -4.6146,-1.00499 -15.0021,-1.87382 -27,-2.25832 l -19.5,-0.62492 -0.2721,-18.75 -0.272,-18.75 14.7983,0 c 50.7448,0 91.4246,16.00971 124.3122,48.92354 18.4967,18.51137 29.4729,36.19774 36.8346,59.3529 4.793,15.07531 6.3651,26.03206 6.4891,45.22356 l 0.1099,17 -18.0615,0.27183 c -9.9338,0.14951 -18.3713,-0.038 -18.75,-0.41667 z M 1724,357.96059 c 0,-55.31832 -19.0714,-102.8501 -57.1961,-142.55048 -45.903,-47.80012 -105.5831,-72.34277 -176.0539,-72.39979 L 1478,143 l 0,-19.643 0,-19.643 22.75,0.59227 c 30.9167,0.80488 51.1941,3.8249 76.25,11.35632 78.0082,23.44808 141.2289,80.15464 170.0941,152.56787 10.7663,27.00911 15.9059,55.19546 15.9059,87.23013 l 0,16.53941 -19.5,0 -19.5,0 0,-14.03941 z M 1830.7112,347.25 c -0.7552,-33.14097 -4.304,-55.37187 -13.2982,-83.30405 C 1784.2626,160.99456 1697.5005,82.678748 1585.5,54.609509 c -25.8246,-6.472095 -50.1597,-9.523548 -82.25,-10.313603 l -24.25,-0.597028 0,-19.482986 0,-19.4829869 26.25,0.5461636 c 27.3601,0.5692595 43.8141,2.126897 66.75,6.3189363 75.4505,13.790257 145.7491,50.232239 198.5037,102.901995 56.7954,56.70405 90.5892,127.52894 98.462,206.35595 0.5689,5.69578 1.0343,19.53328 1.0343,30.75 l 0,20.39405 -19.3624,0 -19.3624,0 -0.564,-24.75 z"
       id="path3041"
       inkscape:connector-curvature="0" />
    <path
       style="fill:#4fc5e7"
       d="m 463,610.14118 0,-17.85883 40.75,-0.55276 c 44.74713,-0.60698 46.52432,-0.82655 55.65822,-6.87659 9.06016,-6.00121 14.32631,-15.84911 15.54415,-29.06818 l 0.61865,-6.71519 -44.53551,0.21519 C 480.50329,549.52897 480.69174,549.55088 464.5,541.55154 449.24095,534.01299 437.77625,522.82087 429.99133,507.86335 422.49966,493.46926 422.5,493.47237 422.5,439.5 c 0,-43.39865 0.17444,-48.6148 1.81972,-54.41342 2.83042,-9.97548 8.07872,-19.37033 14.88638,-26.64775 10.67057,-11.40687 21.8634,-17.83034 37.56862,-21.56033 7.82528,-1.8585 11.212,-1.98673 44.59683,-1.68866 l 36.12845,0.32257 9.44579,3.29033 c 18.87641,6.57537 30.91037,16.74544 38.49768,32.53492 2.42153,5.03929 4.99987,11.86234 5.72965,15.16234 1.04883,4.74268 1.32688,25.06933 1.32688,97 0,85.51586 -0.11087,91.36159 -1.83969,97 -5.97646,19.49172 -20.37738,34.58995 -40.05811,41.99775 C 557.62659,627.38176 550.24071,628 504.86901,628 L 463,628 l 0,-17.85882 z m 105.89255,-97.78774 6.18593,-0.64656 -0.28924,-55.60344 L 574.5,400.5 l -2.39646,-5.94942 c -4.77566,-11.85598 -14.60079,-19.21143 -29.45934,-22.05434 -10.80925,-2.06815 -44.02583,-2.06879 -51.9646,-10e-4 -16.52671,4.30466 -28.02192,16.55642 -30.63323,32.64936 -1.6891,10.40953 -1.31727,65.08071 0.49491,72.76877 4.13646,17.5486 17.98448,30.1924 36.80968,33.60874 7.6828,1.39426 60.30544,2.00574 71.54159,0.83133 z M 1099,609.06304 1099,591 l 31.25,-0.064 c 41.4378,-0.0849 52.7435,-0.87072 59.9419,-4.16628 12.9136,-5.91204 19.4192,-16.02265 21.2104,-32.96374 l 0.602,-5.69406 -44.7521,0.19406 c -50.9165,0.22079 -50.44,0.27722 -67.2522,-7.96607 -8.2171,-4.02898 -10.8623,-6.02075 -19.588,-14.74894 C 1071.9966,517.1731 1069.6355,514.09068 1066.1719,507 1058.9846,492.28614 1059,492.43354 1059,438.5 c 0,-39.66031 0.2653,-49.1235 1.515,-54.0399 4.5336,-17.83482 17.3441,-33.3595 34.5067,-41.81742 17.0041,-8.37979 20.3273,-8.83027 62.2124,-8.43322 l 36.2659,0.34379 9.5866,3.218 c 25.1956,8.45753 40.8397,26.66612 44.8728,52.22875 1.3922,8.82457 1.3917,175.24331 -7e-4,183.82366 -2.9574,18.2251 -15.2355,34.64928 -32.968,44.10061 -3.0495,1.62535 -9.5824,4.20165 -14.5176,5.72511 l -8.9731,2.76994 -46.25,0.35338 -46.25,0.35339 0,-18.06305 z m 108.1969,-97.69628 3.697,-0.61123 0.303,-48.12776 c 0.1667,-26.47028 -0.032,-51.88335 -0.4424,-56.4735 -1.5774,-17.65743 -9.6356,-28.10271 -25.7121,-33.32901 -5.6013,-1.82092 -9.6351,-2.19169 -28.0424,-2.57754 -13.317,-0.27915 -23.7433,-0.0342 -27.3942,0.6435 -18.5084,3.43586 -31.2132,16.71943 -33.5791,35.10878 -1.5391,11.96267 -1.2531,61.26832 0.4006,69.0694 4.1903,19.76653 17.8799,32.31032 39.1477,35.87085 5.7612,0.9645 66.1914,1.32437 71.6219,0.42651 z M 78,547.95351 C 60.246446,547.45383 53.032822,546.8679 48.5,545.55736 30.591876,540.37971 14.77095,527.54447 7.1366512,512 -0.2395826,496.98098 -0.33219075,495.84538 0.94524954,436.07847 2.0536793,384.21896 2.0925757,383.57686 4.573242,376.18708 c 1.3791526,-4.10843 4.1053339,-9.87703 6.058181,-12.81911 5.509832,-8.30092 16.215284,-17.58792 25.635671,-22.239 14.199053,-7.01043 16.717861,-7.29398 61.653607,-6.9404 L 137.5,334.5 l 7.3346,2.67921 c 29.60966,10.81594 46.83461,39.25931 44.87464,74.101 -1.02026,18.13679 -5.76138,30.42634 -15.93276,41.29957 -4.58427,4.90061 -7.98712,7.40152 -14.15574,10.40375 C 145.89591,469.66329 142.45464,470 87.910651,470 l -48.173665,0 0.476363,7.42275 c 0.855801,13.3352 8.681311,24.44512 21.752714,30.88245 L 68.453309,511.5 108.72665,511.78253 149,512.06506 149,530.53253 149,549 125.25,548.80746 C 112.1875,548.70156 90.925,548.31728 78,547.95351 z m 56.21444,-115.25966 c 11.7951,-5.79214 17.31072,-15.92121 16.63428,-30.54776 -0.5982,-12.93504 -7.46763,-23.82989 -18.42581,-29.22318 C 127.52945,370.5145 127.31153,370.5 96,370.5 c -28.652508,0 -31.949437,0.17333 -36.471834,1.91743 -6.544716,2.52402 -13.743047,9.38407 -16.651329,15.86881 -2.168024,4.83414 -2.364175,6.76386 -2.694003,26.50328 L 39.827105,436.07903 84.163552,435.78952 128.5,435.5 l 5.71444,-2.80615 z M 209,441.41452 l 0,-107.58548 56.25,0.43875 c 52.21716,0.40729 56.91029,0.58647 65.45974,2.49919 30.83772,6.89912 52.9996,26.51018 62.96057,55.71384 C 398.77639,407.45088 399,411.23319 399,482.63099 L 399,549 l -19.54503,0 -19.54502,0 0.10722,-64.25 c 0.12016,-72.00133 0.34745,-69.32206 -7.18954,-84.75 -5.62012,-11.50419 -14.55632,-20.53714 -25.47449,-25.75031 L 319.5,370.5 283.75,370.20289 248,369.90578 l 0,89.54711 0,89.54711 -19.5,0 -19.5,0 0,-107.58548 z m 477.5,106.95964 c -1.1,-0.21662 -4.475,-0.88466 -7.5,-1.48455 C 662.58081,543.63353 646.81034,531.64507 639.68108,517 c -5.48655,-11.27059 -6.80813,-17.53832 -7.40621,-35.12474 -0.84879,-24.95846 3.01522,-37.25683 15.66558,-49.86043 8.11666,-8.08665 17.75884,-13.29274 30.69908,-16.5753 C 688.02614,413.05842 689.19571,413 727.47735,413 c 21.57149,0 42.72322,-0.29606 47.00384,-0.6579 l 7.78295,-0.6579 -0.53377,-7.7875 c -1.25123,-18.25507 -12.69351,-30.26467 -31.48705,-33.04819 -4.2213,-0.62521 -19.92693,-0.74017 -41.99332,-0.30735 l -35.25,0.6914 0,-18.61628 0,-18.61628 34.25,0.0173 c 47.07438,0.0238 57.93728,1.34842 74.66245,9.10418 18.82024,8.72729 31.20482,24.1319 37.2861,46.37849 2.04939,7.49706 2.21144,10.609 2.57768,49.5 0.41667,44.24721 -0.006,50.44443 -4.29952,63.06848 -6.38836,18.78256 -18.42709,33.20106 -34.10296,40.84432 -11.74494,5.72661 -15.00415,6.06795 -56.87375,5.95642 -20.9,-0.0557 -38.9,-0.27845 -40,-0.49506 z m 73.25301,-38.83932 c 7.12351,-3.31646 14.20615,-10.67582 18.32739,-19.04343 l 3.4196,-6.94303 0.34636,-18.33268 0.34637,-18.33269 -43.34637,0.33675 c -48.79086,0.37905 -48.6441,0.35825 -57.52041,8.15203 -5.66706,4.97592 -8.06576,9.78363 -9.50718,19.05522 -2.55348,16.42462 5.51255,30.54133 20.38619,35.67876 4.64033,1.6028 8.81897,1.83177 33.79504,1.85182 28.1556,0.0226 28.56348,-0.007 33.75301,-2.42275 z M 912,548.28036 c -25.55845,-2.91783 -49.59526,-19.47899 -60.58467,-41.74232 -7.30652,-14.80219 -7.64651,-17.87112 -7.1499,-64.53804 0.39882,-37.47676 0.59118,-41.09718 2.57694,-48.5 4.37153,-16.29692 13.65138,-31.03941 25.68186,-40.79966 6.82168,-5.53439 21.1409,-12.80207 29.97577,-15.21412 7.0002,-1.91115 36.64567,-3.31364 72.25,-3.41804 L 998,334 l 0,-39.5 0,-39.5 19.0204,0 19.0204,0 -0.2704,115.25 -0.2704,115.25 -3.0516,8.5 c -5.4553,15.19524 -14.8168,28.64572 -27.4484,39.43749 -7.378,6.30336 -21.74185,13.26636 -30,14.54275 -6.09244,0.94166 -55.32609,1.17619 -63,0.30012 z m 61.5,-41.58774 c 10.92098,-5.10988 19.45777,-16.92683 22.95908,-31.78082 1.23909,-5.25672 1.51402,-15.20707 1.52614,-55.23378 L 998,370.85604 l -39.25,0.34524 c -37.79712,0.33246 -39.45274,0.42731 -44.72718,2.56223 -8.53261,3.45373 -15.74158,8.98399 -20.61663,15.81575 -7.96168,11.1573 -8.29018,13.02258 -9.03269,51.28941 -0.57456,29.61088 -0.45241,34.4044 1.0218,40.09807 2.77304,10.71003 9.49566,19.38617 18.63318,24.04779 8.59427,4.38447 13.10949,4.92916 38.97152,4.70132 l 24.5,-0.21585 6,-2.80738 z m 376,41.29779 c -22.3602,-0.5917 -24.5466,-0.81631 -32,-3.28717 -17.0638,-5.6568 -30.7095,-16.83476 -38.2317,-31.31769 -7.1436,-13.75407 -7.6441,-17.04078 -7.3688,-48.38555 0.1329,-15.125 0.6071,-40.1 1.0537,-55.5 0.7071,-24.37837 1.0769,-28.73747 2.859,-33.70162 3.2007,-8.91586 7.0353,-14.71053 14.8852,-22.49355 5.6179,-5.57001 9.3514,-8.22262 16.5298,-11.74411 15.1571,-7.43561 16.1304,-7.56072 58.8229,-7.56072 34.1786,0 38.3372,0.18087 45.3404,1.972 18.3591,4.69547 32.7069,16.2813 40.9853,33.09549 6.5137,13.23011 8.6242,22.39044 8.6242,37.43251 0,32.43534 -14.0232,53.08634 -41.5345,61.1649 -5.2612,1.54494 -11.9568,1.79217 -56.7155,2.0942 l -50.75,0.34246 0,7.2895 c 0,6.12919 0.4867,8.26347 3.0576,13.40837 3.6054,7.21502 10.6184,13.91204 18.7502,17.9053 l 5.6922,2.79527 40.0996,0.29213 40.0996,0.29212 0.6459,11.20788 c 0.3552,6.16433 0.6479,14.47037 0.6504,18.45787 l 0,7.25 -23.75,-0.18724 c -13.0625,-0.10299 -34.55,-0.47304 -47.75,-0.82235 z m 55.5061,-115.07342 c 6.8549,-3.21576 11.6061,-7.88903 14.6363,-14.39604 1.8839,-4.04575 2.34,-6.71314 2.3478,-13.73344 0.017,-14.75452 -5.5302,-24.89353 -17.1348,-31.32121 L 1399.5,370.5 l -32.5,0 c -30.9361,0 -32.719,0.10132 -37.0508,2.10566 -6.736,3.11672 -11.482,7.77169 -14.9024,14.61654 l -3.0468,6.09724 0,21.37995 0,21.37995 43.75,-0.28967 43.75,-0.28967 5.5061,-2.58301 z M 1525.5,547.52895 c -13.4762,-2.48453 -26.3924,-10.44752 -34.3631,-21.18529 -5.8563,-7.88944 -7.9093,-12.13373 -10.1985,-21.08455 C 1479.0816,497.99928 1479,493.30664 1479,393.84004 L 1479,290 l 19.375,0 19.375,0 0.625,3.125 c 0.3438,1.71875 0.625,11.84375 0.625,22.5 l 0,19.375 24,0 24,0 0,18.35452 0,18.35452 -24,-0.49481 -24,-0.49482 -0.25,48.8903 c -0.3983,77.89696 -0.487,74.28775 1.9393,78.9034 2.6562,5.05279 6.7203,9.14503 11.5078,11.58742 3.1847,1.62474 5.9708,1.89947 19.2631,1.89947 l 15.5398,0 0,18.5 0,18.5 -17.25,-0.0902 c -9.4875,-0.0496 -20.4,-0.671 -24.25,-1.3808 z M 1724,356.05122 c 0,-8.77183 -0.6799,-21.1355 -1.5109,-27.47481 -12.1032,-92.3285 -90.2787,-167.27395 -190.9891,-183.09794 -5.5,-0.86418 -19.7875,-1.84092 -31.75,-2.17053 l -21.75,-0.59928 0,-19.51041 0,-19.51041 21.25,0.60898 c 48.1535,1.37998 83.1536,9.83883 122.6221,29.63541 68.0201,34.11747 117.5457,94.57003 134.4781,164.14812 4.1694,17.13256 5.7541,30.26109 6.3578,52.66965 l 0.5725,21.25 -19.6402,0 -19.6403,0 0,-15.94878 z M 1623.9651,356.25 c -0.039,-16.32459 -1.3905,-25.75678 -5.4105,-37.75 -9.1525,-27.30511 -31.5798,-51.97924 -60.3831,-66.43247 -9.0135,-4.5229 -25.0932,-9.63698 -36.1715,-11.50418 -5.225,-0.88066 -17.0375,-1.88851 -26.25,-2.23967 l -16.75,-0.63848 0,-18.3426 0,-18.3426 12.25,8.4e-4 c 34.2089,0.002 60.2389,5.97953 87.8673,20.17678 40.5423,20.83319 70.5931,59.57245 79.3735,102.32238 1.9347,9.41982 3.4701,26.45282 3.4929,38.75 l 0.016,8.75 -19,0 -19,0 -0.035,-14.75 z"
       id="path3039"
       inkscape:connector-curvature="0" />
    <path
       style="fill:#2bbce2"
       d="M 463,610.07903 463,592 l 37.75,-0.0174 c 29.18678,-0.0134 39.30942,-0.34775 44.62451,-1.47383 17.73056,-3.75646 27.59873,-15.49208 30.06865,-35.75881 l 0.70075,-5.75 -44.91199,0 c -41.13232,0 -45.54857,-0.16281 -52.47607,-1.93456 -19.79041,-5.0615 -39.4248,-20.9095 -48.57179,-39.20493 C 423.00443,493.50006 423,493.45812 423,439.83912 c 0,-30.54994 0.39253,-49.64885 1.09009,-53.0399 3.56607,-17.33562 17.54634,-34.60156 34.93164,-43.14132 16.33833,-8.02549 17.30374,-8.1579 59.47827,-8.1579 35.65414,0 37.28936,0.0838 44.95493,2.30316 12.69201,3.67467 20.98218,8.53881 30.08159,17.64996 9.18776,9.19959 13.5455,16.63768 16.48804,28.14289 1.89711,7.41767 1.97497,11.35541 1.96357,99.31395 -0.013,100.07193 0.19685,96.2187 -5.91042,108.5447 -7.80431,15.75106 -24.11932,28.32798 -43.79099,33.75761 -7.32492,2.02178 -10.49995,2.17286 -53.53672,2.54752 l -45.75,0.39828 0,-18.07904 z M 575.25,469.75 c 0.38648,-66.86156 0.27497,-68.66349 -4.88683,-78.96657 -4.82503,-9.63087 -13.34866,-15.40211 -27.02838,-18.30055 -9.15887,-1.94058 -45.72084,-2.02467 -52.83479,-0.12153 -16.2855,4.35675 -27.02693,15.47023 -30.38541,31.43787 -1.78586,8.49073 -1.48799,67.347 0.37708,74.50748 3.43303,13.18029 11.12576,22.91914 22.54111,28.5366 11.178,5.50066 15.65837,5.98935 55.71722,6.0772 L 575,513 l 0.25,-43.25 z m 524.75,139.31986 0,-17.93013 40.75,-0.34606 c 39.8154,-0.33812 40.8826,-0.39899 46.5323,-2.6538 14.6333,-5.8402 22.3177,-16.64375 24.2998,-34.16295 l 0.6762,-5.97692 -44.8791,-0.0148 c -49.0705,-0.0162 -51.341,-0.22745 -63.968,-5.95283 -9.1295,-4.13949 -17.9764,-10.67927 -25.5231,-18.86715 -7.6686,-8.32001 -12.1131,-15.48691 -15.7089,-25.33064 L 1059.5,490.5 l -0.2938,-49.15528 c -0.2498,-41.78511 -0.059,-50.1665 1.2703,-55.89955 4.3784,-18.87917 17.1423,-34.26779 36.0235,-43.43104 15.1332,-7.3443 16.444,-7.51413 58,-7.51413 35.6396,0 37.2921,0.0846 44.9434,2.3 22.4462,6.49925 38.6458,21.12063 45.6472,41.2 2.1194,6.0783 2.3215,8.86802 3.1157,43 0.4671,20.075 0.7046,62.825 0.5279,95 -0.292,53.12929 -0.487,59.00494 -2.1242,64 -8.2963,25.31198 -29.3476,42.00033 -57.9324,45.92578 -4.5069,0.61892 -24.9573,1.07422 -48.25,1.07422 l -40.4276,0 0,-17.93014 z M 1211.3602,461.75 c 0.3975,-30.00075 0.2868,-52.77789 -0.2745,-56.52313 -2.8866,-19.25771 -11.6284,-28.99889 -29.9612,-33.38649 -10.2409,-2.45096 -45.5956,-2.6501 -54.5895,-0.30747 -16.1318,4.20179 -27.4558,16.23034 -30.5273,32.42674 -1.383,7.29214 -1.3047,64.51765 0.097,71.24113 2.8078,13.46437 11.4968,25.01751 23.1153,30.73487 10.9655,5.39602 15.6033,5.89725 55.3768,5.98485 l 36.0972,0.0795 0.6658,-50.25 z m -526.82942,86.13664 c -25.38804,-3.69804 -44.17557,-20.57137 -49.99567,-44.90181 -2.28517,-9.55295 -3.06307,-29.74992 -1.55454,-40.36125 3.61777,-25.44814 22.94761,-43.34804 52.45309,-48.57285 C 689.00148,413.41894 709.47655,413 736.78628,413 l 45.41895,0 -0.37326,-8.25 C 781.2093,390.9872 775.31273,381.07941 764.28522,375.2668 755.01597,370.38098 751.12184,370 710.45078,370 L 673,370 l 0,-18 0,-18 17.25,0.0795 c 9.4875,0.0437 28.95,0.44033 43.25,0.88136 29.63854,0.91407 35.90547,2.05282 50.5,9.17618 11.83122,5.77463 22.99324,16.96686 28.85004,28.92815 8.36821,17.0903 9.40014,25.89338 8.91218,76.02699 -0.35771,36.7521 -0.53055,39.93875 -2.56475,47.28599 -6.04181,21.82211 -19.75862,39.21526 -37.04405,46.9725 -11.43915,5.13359 -16.39335,5.62408 -55.65342,5.51003 -19.8,-0.0575 -38.68615,-0.49584 -41.96922,-0.97405 z m 74.74926,-37.76804 c 7.92273,-3.92337 14.26065,-10.41092 18.45408,-18.88976 l 3.76588,-7.61438 0.32934,-18.91529 0.32934,-18.91528 -41.32934,0.45258 c -38.70237,0.42382 -41.74278,0.58733 -47.83388,2.57242 -9.50879,3.09893 -14.30581,7.04493 -18.214,14.98275 -3.01222,6.11804 -3.28146,7.44615 -3.28146,16.18663 0,8.39039 0.31752,10.12335 2.67232,14.58519 4.65133,8.81325 13.55209,15.24713 24.09738,17.41869 2.32667,0.47912 15.9303,0.78843 30.2303,0.68734 25.14342,-0.17774 26.15748,-0.26178 30.78004,-2.55089 z M 55.763386,546.96719 C 27.274342,542.1701 5.5396509,520.70803 1.0711076,492.96091 -0.15375689,485.3552 1.616484,388.98417 3.1233582,381.23742 6.6554934,363.07892 23.835022,345.12051 44.88225,337.58529 L 53.5,334.5 l 41,0 41,0 8.80574,2.88623 c 10.98656,3.60104 18.41798,8.37233 26.43489,16.97236 7.17126,7.69287 14.15773,20.96185 16.9233,32.14141 2.33763,9.44966 2.32617,30.35173 -0.0219,39.93539 -5.11818,20.88984 -19.03425,35.18744 -40.14202,41.24258 -5.23883,1.50285 -12.4517,1.76677 -56.856333,2.08037 l -50.856333,0.35916 0.388263,7.19125 c 0.930216,17.2291 14.312554,31.19391 33.361384,34.81345 4.145539,0.78771 16.554537,0.94413 40.713019,0.51318 L 149,512.0155 149,530.00775 149,548 104.75,547.88238 c -24.3375,-0.0647 -46.381476,-0.47652 -48.986614,-0.91519 z M 134.54015,432.8395 c 11.81999,-6.23934 16.988,-15.98753 16.27557,-30.69991 -0.36066,-7.44798 -0.88434,-9.5121 -3.79688,-14.9656 -4.05083,-7.58487 -9.42485,-12.4339 -16.86527,-15.21772 -5.19747,-1.94462 -7.2417,-2.04287 -36.579345,-1.758 L 62.5,370.5 l -5.128204,2.70513 c -6.499917,3.4287 -10.737963,7.66675 -14.166669,14.16667 -2.664434,5.05106 -2.709945,5.45597 -3.025443,26.91729 L 39.859368,436.07818 84.679684,435.78909 129.5,435.5 l 5.04015,-2.6605 z M 209,440.83629 l 0,-107.1637 55.37108,0.6602 c 59.24172,0.70636 63.57602,1.04739 78.7032,6.19247 21.2295,7.22062 40.63588,26.13469 48.95882,47.7168 6.39286,16.57723 6.25091,14.65507 6.68395,90.50794 l 0.39533,69.25 -19.63122,0 -19.63123,0 0.32503,-63.75 c 0.30156,-59.14392 0.19378,-64.21964 -1.49159,-70.25 -5.71669,-20.45467 -19.97057,-36.88379 -36.43523,-41.99547 -7.27183,-2.25764 -9.5533,-2.3676 -44.99814,-2.16868 L 248,370 l 0,89 0,89 -19.5,0 -19.5,0 0,-107.16371 z m 692.02062,105.09556 c -29.07258,-7.61089 -51.11135,-30.5215 -55.73432,-57.93912 -1.40665,-8.34247 -1.47212,-14.2704 -0.55198,-49.97892 1.14399,-44.39599 1.37253,-46.14052 7.81069,-59.62312 10.65329,-22.30979 32.42641,-38.16597 58.02547,-42.25679 3.87954,-0.61996 24.7553,-1.2776 47.42952,-1.49415 l 40.5,-0.38679 -0.38905,-39.62648 L 997.7219,255 l 19.1672,0 19.1673,0 -0.288,115.25 c -0.3227,129.18008 0.349,117.61699 -7.7697,133.74245 -10.5961,21.04585 -28.01225,36.77899 -46.9302,42.39511 -4.5437,1.34888 -10.91844,1.60344 -39,1.55738 -30.00419,-0.0492 -34.36266,-0.26297 -41.04788,-2.01309 z M 973.5,507.04948 C 980.42563,503.65521 988.02488,495.7417 991.79301,488 997.91365,475.425 998,474.48306 998,420.2899 L 998,371 l -36.45078,0 c -23.19938,0 -38.37727,0.40908 -41.75,1.12526 -17.64829,3.74752 -31.77801,18.71033 -34.82164,36.87474 -0.68009,4.0588 -0.97286,18.70599 -0.77954,39 0.29739,31.21753 0.40036,32.72499 2.60953,38.20163 4.19917,10.40993 15.47926,19.96765 26.81017,22.71649 2.13524,0.518 15.35726,0.86084 29.38226,0.76185 24.85512,-0.17542 25.62645,-0.24194 30.5,-2.63049 z m 351.3973,39.44681 c -25.4445,-5.07053 -45.0024,-23.33279 -51.3587,-47.95639 -1.7481,-6.77168 -1.9086,-28.52038 -0.6165,-83.5399 0.6978,-29.71681 0.9511,-33.04197 2.9577,-38.82871 6.8514,-19.75885 26.0802,-36.08758 47.957,-40.72432 10.0515,-2.13039 74.3276,-2.04025 84.9554,0.11914 C 1440.254,341.95867 1461,370.14585 1461,406.5 c 0,27.02689 -10.8472,47.12419 -30.4949,56.49986 -13.2234,6.31009 -13.9209,6.38051 -69.0051,6.96741 l -50,0.53273 0.1477,6.64707 c 0.3763,16.93206 13.9881,31.38215 32.9581,34.98786 4.0624,0.77215 16.6938,0.92768 40.6442,0.50045 l 34.75,-0.61988 0,14.86725 c 0,8.17699 0.2813,16.2735 0.625,17.99225 l 0.625,3.125 -44.875,-0.094 c -32.7522,-0.0686 -46.6587,-0.44941 -51.4777,-1.40974 z m 81.3269,-113.80724 c 11.0127,-5.40789 16.2178,-14.79858 16.1789,-29.18905 -0.017,-6.44448 -0.5225,-9.09275 -2.5975,-13.62001 -3.3278,-7.26034 -8.8862,-13.35321 -15.2421,-16.70767 L 1399.5,370.5 l -30.307,-0.30438 c -33.9335,-0.34079 -37.5527,0.14643 -45.3682,6.10752 C 1313.4005,384.25403 1311,392.0116 1311,417.749 l 0,18.3288 44.75,-0.2889 44.75,-0.2889 5.7242,-2.81095 z m 113.7475,113.43399 C 1501.8471,540.32199 1488.393,527.22452 1481.8379,509 l -2.3379,-6.5 -0.2804,-106.25 -0.2804,-106.25 19.3754,0 19.3753,0 0.6551,13.65811 c 0.3602,7.51196 0.655,17.58902 0.655,22.39346 l 0,8.73535 24,0.73369 24,0.7337 0,17.37284 0,17.37285 -23.8599,0 -23.8599,0 -0.7381,59.94702 c -0.8345,67.78045 -0.968,66.28164 6.6006,74.08061 6.1484,6.33545 8.5531,6.97237 26.3252,6.97237 l 15.5321,0 0,18 0,18 -20.75,-0.0538 c -16.9923,-0.044 -21.7511,-0.3742 -26.2783,-1.82318 z M 1723.7219,350.75 c -0.8516,-33.36689 -6.0539,-55.30064 -19.7457,-83.25 C 1670.7753,199.72585 1599.363,151.9272 1519.5763,144.07505 1513.5683,143.48377 1501.7558,143 1493.3263,143 l -15.3263,0 0,-19.65841 0,-19.65842 21.25,0.62373 c 47.3758,1.39056 80.6585,9.32313 120.25,28.66024 26.3413,12.86551 50.3856,29.95351 71.0852,50.51928 31.9722,31.76546 54.1055,69.95583 64.9177,112.01358 4.9198,19.13707 6.5348,31.53475 7.1974,55.25 l 0.5937,21.25 -19.5149,0 -19.5149,0 -0.5423,-21.25 z m -98.7227,12 c 0,-36.23141 -9.4186,-61.57896 -31.431,-84.62132 -14.0791,-14.73788 -30.2821,-25.14093 -49.8692,-32.01827 -14.6303,-5.13694 -26.3227,-7.12134 -45.949,-7.79833 l -17.75,-0.61227 0,-18.3499 0,-18.34991 8.75,0.002 c 14.0221,0.004 34.8218,1.88529 45.692,4.13297 42.8534,8.86108 81.3747,34.60536 103.7905,69.3646 15.6293,24.23567 22.7675,49.50577 22.7675,80.59937 l 0,15.90063 -18,0 -18,0 -8e-4,-8.25 z"
       id="path3037"
       inkscape:connector-curvature="0" />
    <path
       style="fill:#1db8e4"
       d="m 463,610.13252 0,-18.01171 41.25,-0.34438 c 46.1453,-0.38526 46.8342,-0.47895 56.38449,-7.66836 8.71595,-6.56132 13.31475,-15.6463 14.861,-29.35807 l 0.64842,-5.75 -44.75806,0 c -37.97016,0 -45.75354,-0.24661 -51.32196,-1.62612 -23.86428,-5.91209 -44.7742,-24.57029 -53.94107,-48.13233 L 423.5,492.5 l 0,-53 0,-53 3.23657,-8 c 6.22117,-15.37722 18.22282,-27.99762 33.76343,-35.50415 15.17262,-7.32878 16.46534,-7.49585 58,-7.49585 41.7745,0 42.9026,0.14979 58.5,7.76793 16.30515,7.96382 29.32606,24.21204 33.44303,41.73207 2.28628,9.72944 2.32159,185.5775 0.0391,194.5399 -4.13198,16.2243 -16.85557,31.61257 -32.49449,39.29977 -16.84766,8.28135 -18.46113,8.48776 -69.7376,8.92165 l -45.25,0.3829 0,-18.0117 z M 575.20344,463.25 c 0.2352,-27.3625 0.0449,-53.03767 -0.42287,-57.05593 -1.77448,-15.24314 -7.17265,-23.75048 -18.74353,-29.53915 -9.93171,-4.96863 -17.21399,-5.88553 -43.24726,-5.44517 -20.34023,0.34406 -22.79288,0.57639 -28.04187,2.65627 -10.9153,4.32514 -18.39309,11.87345 -23.03608,23.25335 -2.08714,5.11556 -2.21204,7.0802 -2.53519,39.88063 -0.37137,37.6932 -0.0114,41.3762 5.02141,51.37523 6.34017,12.59647 17.69712,20.30985 35.30195,23.97625 1.1,0.22908 18.48706,0.46872 38.63791,0.53252 l 36.6379,0.116 0.42763,-49.75 z M 1100,609.07275 1100,591 l 37.75,-0.0174 c 47,-0.0216 51.4261,-0.7263 61.4515,-9.78364 7.3026,-6.5975 11.2138,-15.03534 12.4181,-26.79079 l 0.6472,-6.31607 -47.3834,-0.29607 L 1117.5,547.5 l -8.2605,-3.18398 c -11.0313,-4.25196 -19.1443,-9.3182 -27.4124,-17.11796 -11.2418,-10.60496 -19.2201,-24.4028 -21.798,-37.69806 -0.8178,-4.21792 -1.0604,-20.40512 -0.8166,-54.5 0.3801,-53.16918 0.1441,-50.94821 6.8042,-64.0481 7.9596,-15.65576 25.5135,-29.16916 44.9833,-34.6291 5.7546,-1.61377 10.7429,-1.8228 43.5,-1.8228 41.6835,0 42.7007,0.13397 58.5,7.70466 11.4437,5.48358 22.9958,16.8163 28.3334,27.79534 7.1841,14.77718 6.8969,10.22806 7.039,111.5 0.1179,84.1075 -0.01,91.48377 -1.6368,97.3871 -4.8189,17.44383 -16.6427,31.12152 -34.2356,39.60337 -15.7682,7.60213 -17.1177,7.76623 -67.75,8.23804 l -44.75,0.417 0,-18.07276 z M 1211.3946,461.25 c 0.581,-42.29188 0.4546,-52.11656 -0.7588,-58.94957 -3.2814,-18.47888 -13.1872,-27.89991 -32.9549,-31.34231 -4.0083,-0.69801 -14.9801,-0.98424 -28.8262,-0.752 -20.5121,0.34405 -22.8045,0.56261 -27.8123,2.65167 -11.3991,4.75524 -19.1513,12.69617 -23.3606,23.92917 -2.0028,5.34492 -2.1628,7.88772 -2.4822,39.46269 -0.374,36.95625 0.01,40.84096 4.9734,50.78065 5.7296,11.46601 15.9126,19.24961 30.0176,22.94472 6.5374,1.71262 11.1748,1.92067 43.908,1.96992 l 36.5987,0.0551 0.6973,-50.75 z M 688,548.31607 C 649.67852,543.55014 630.18446,516.83918 632.30338,472 c 0.64448,-13.63808 2.98342,-22.04451 8.50617,-30.57213 7.60192,-11.73803 20.40576,-20.77519 36.20678,-25.55531 7.25114,-2.1936 9.00215,-2.2753 56.35308,-2.62908 l 48.86941,-0.36512 -0.4193,-8.77002 c -0.33351,-6.97574 -0.98203,-9.9202 -3.16977,-14.3918 -3.43754,-7.02606 -10.91298,-13.87315 -18.44812,-16.89743 -5.56143,-2.23212 -6.70365,-2.29641 -46.45163,-2.61476 l -40.75,-0.32638 0,-18.06825 0,-18.06825 39.75,0.72039 c 43.48162,0.78801 51.24841,1.58444 64.21484,6.58483 19.45938,7.50433 33.0682,21.99892 39.95549,42.55612 4.59628,13.71898 5.2855,23.1887 4.83247,66.39719 -0.45947,43.82174 -0.55365,44.4827 -8.77388,61.57746 -8.18528,17.02208 -21.44356,29.11824 -37.97892,34.65001 -6.18216,2.06819 -8.38262,2.18306 -45,2.3492 -21.175,0.0961 -40.075,-0.0212 -42,-0.2606 z m 71.17567,-37.97696 c 5.81121,-2.68568 12.78091,-9.02227 16.68095,-15.16566 C 780.93663,487.17135 782,481.55236 782,462.71112 l 0,-16.92588 -41.25,0.48663 c -44.49611,0.52492 -47.09451,0.80979 -56.23209,6.16477 -10.84272,6.35425 -16.31198,23.79169 -12.00802,38.2847 1.80407,6.07498 8.86057,14.38564 14.87754,17.52176 7.72452,4.02611 13.58333,4.6607 41.11257,4.45303 24.30649,-0.18335 26.30455,-0.33688 30.67567,-2.35702 z M 53.5,546.34017 C 25.859437,540.42992 6.1780357,520.6417 1.4423718,494 0.36149249,487.91923 0.2915686,477.22767 1.0728563,437.5 c 0.530001,-26.95 1.4437552,-51.7 2.030565,-55 3.0391783,-17.09121 16.4644037,-33.0631 35.4252677,-42.14517 12.027296,-5.76096 16.917858,-6.31807 55.633343,-6.33747 40.286128,-0.0202 45.631858,0.62626 58.779898,7.10801 9.74444,4.80383 20.32942,14.6635 25.92333,24.14699 7.62018,12.91867 11.84849,31.40132 10.71563,46.83987 -2.15929,29.42681 -16.13916,47.85961 -42.08089,55.4847 -5.30057,1.558 -11.9306,1.80772 -56.875081,2.14214 l -50.87508,0.37856 0.461357,7.69119 c 0.347298,5.78974 1.144177,9.02881 3.223309,13.10178 3.470549,6.79873 10.951608,14.15389 17.797704,17.4982 9.179399,4.48413 14.317451,4.89809 52.517791,4.2312 l 35.25,-0.61537 0,17.98768 0,17.98769 -44.25,-0.0815 c -35.26569,-0.065 -45.671247,-0.38542 -51.25,-1.5783 z m 77.1662,-111.83368 c 6.94584,-2.0627 13.31474,-7.22333 16.81778,-13.62723 2.54514,-4.65275 2.99394,-6.66231 3.32304,-14.87926 0.31661,-7.90525 0.02,-10.45712 -1.76702,-15.20163 -2.65535,-7.04998 -9.22827,-14.52132 -15.66894,-17.81066 L 128.5,370.5 l -33,0 -33,0 -5.806881,2.85138 c -3.891211,1.91072 -7.101324,4.48897 -9.730661,7.81533 C 40.879885,388.86174 40,393.28676 40,416.1815 L 40,436 l 42.818499,0 c 35.066651,0 43.728981,-0.27039 47.847701,-1.49351 z M 209,441 l 0,-107 32.75,0.0593 c 53.18345,0.0963 83.2504,1.34696 92.75,3.85791 31.02212,8.19981 52.73541,30.43572 61.60012,63.08277 2.28848,8.42805 2.311,9.08621 2.66014,77.75 l 0.35212,69.25 -19.62156,0 -19.62156,0 0.31537,-64.75 0.31537,-64.75 -2.36388,-7 c -6.38199,-18.89858 -16.51336,-31.2052 -31.23989,-37.94723 -7.94592,-3.63776 -13.77275,-4.09 -48.14623,-3.73679 l -30.75,0.31598 0,88.93402 0,88.93402 -19.5,0 -19.5,0 0,-107 z m 692.14161,104.96258 c -25.5263,-6.68581 -46.097,-25.59517 -53.78531,-49.4415 -3.30653,-10.25565 -3.86526,-25.11157 -2.53943,-67.52108 1.07353,-34.3395 1.53136,-37.0692 8.65256,-51.58889 9.24442,-18.84882 26.83046,-33.1328 48.58405,-39.46161 6.69931,-1.94904 11.05887,-2.25437 43.44652,-3.04281 19.8,-0.48201 39.8891,-0.60395 44.64244,-0.27097 l 8.64243,0.60542 -0.5428,-40.12057 L 997.69926,255 l 19.17474,0 19.1748,0 -0.2744,114.75 -0.2744,114.75 -2.3355,7 c -8.3621,25.0625 -28.4947,46.84491 -50.10668,54.21272 -6.29034,2.14446 -7.94463,2.23445 -40.55782,2.2064 -30.301,-0.0261 -34.80055,-0.23892 -41.35839,-1.95654 z m 72.98293,-39.22475 c 6.9158,-3.39629 13.71811,-10.50217 17.80642,-18.60106 5.8408,-11.57055 6.03802,-13.78205 6.05426,-67.88677 L 998,371 l -37.2899,0 c -40.59321,0 -44.65197,0.43328 -53.69547,5.73209 -11.25529,6.59475 -19.75041,18.74023 -22.08106,31.56928 -0.64748,3.56408 -0.93431,18.79721 -0.74375,39.5 L 884.5,481.5 l 2.80075,6 c 4.69206,10.05173 12.74163,17.10132 23.53562,20.61187 4.99641,1.62499 8.72664,1.81526 31.66363,1.61506 l 26,-0.22693 5.62454,-2.76217 z m 353.63886,40.22936 c -27.3282,-4.60162 -48.6412,-24.09487 -54.3545,-49.71361 -1.5928,-7.1421 -1.6504,-11.97285 -0.7308,-61.25358 l 0.9983,-53.5 2.5118,-6.67871 c 3.5007,-9.30809 7.821,-15.64441 15.7976,-23.1691 7.6862,-7.25077 16.1412,-12.28542 26.5142,-15.78833 6.9027,-2.33101 7.5628,-2.36386 47.5,-2.36386 39.6516,0 40.6571,0.049 48,2.33889 20.476,6.38548 35.4504,21.6145 43.0465,43.77871 3.2693,9.53911 3.3881,10.42083 3.4202,25.3824 0.029,13.50845 -0.2675,16.46366 -2.3076,23 -6.4388,20.62937 -18.7107,32.5925 -39.6591,38.66104 -5.2659,1.52547 -12.2265,1.7821 -56.8899,2.09742 l -50.8899,0.35928 0.5537,7.32081 c 0.3691,4.8808 1.4181,9.14799 3.1471,12.80292 3.0558,6.45935 11.1473,14.49261 18.195,18.06394 9.0928,4.60768 14.6242,5.06843 52.531,4.37576 l 34.853,-0.63688 0.014,15.72786 c 0.01,8.65032 0.2849,16.74035 0.6166,17.97785 l 0.603,2.25 -44.3667,-0.11762 c -24.4016,-0.0647 -46.4981,-0.47652 -49.1032,-0.91519 z m 75.8299,-113.08799 c 10.964,-4.10216 17.7461,-13.35398 18.9902,-25.90537 1.5594,-15.7332 -7.0923,-31.02732 -20.3599,-35.99136 -4.8483,-1.814 -7.8351,-1.98247 -35.1463,-1.98247 -34.8689,0 -37.0645,0.39378 -45.5779,8.17456 -8.9194,8.15182 -9.8528,11.46292 -10.3108,36.57544 l -0.3875,21.25 43.5619,0 c 41.9406,0 43.773,-0.0789 49.2303,-2.1208 z m 117.519,112.54025 C 1503.4174,541.6607 1488.141,526.76021 1481.7235,508 l -2.2235,-6.5 -0.2805,-105.75 -0.2805,-105.75 19.3755,0 19.3754,0 0.6551,13.65811 c 0.3602,7.51196 0.655,17.58902 0.655,22.39346 l 0,8.73535 24,0.73369 24,0.7337 0,17.37284 0,17.37285 -23.8631,0 -23.8631,0 -0.7378,59.76868 c -0.5348,43.32919 -0.4274,60.92096 0.3904,63.95795 1.5447,5.73679 6.6882,12.15373 11.9809,14.9472 4.0764,2.15155 5.5966,2.32617 20.25,2.32617 l 15.8427,0 0,18 0,18 -20.25,-0.0658 c -14.3541,-0.0466 -21.8187,-0.48768 -25.6377,-1.51474 z M 1624.9992,362.75 c 0,-12.29728 -1.7455,-28.38711 -4.0463,-37.32604 -2.633,-10.22918 -11.322,-28.01074 -18.043,-36.92396 -25.003,-33.15824 -63.2478,-50.5 -111.3705,-50.5 l -11.5394,0 0,-18.5 0,-18.5 8.25,0.002 c 13.3814,0.004 34.5094,1.91189 45.25,4.08628 57.035,11.54647 103.2386,50.90324 120.4175,102.57295 5.0851,15.29494 6.2026,22.46938 6.7892,43.58834 l 0.5486,19.75 -18.1277,0 -18.1276,0 -8e-4,-8.25 z"
       id="path3035"
       inkscape:connector-curvature="0" />
    <path
       style="fill:#19b5e2"
       d="m 463,610.13252 0,-18.01171 41.25,-0.34438 c 46.1453,-0.38526 46.8342,-0.47895 56.38449,-7.66836 8.70563,-6.55356 13.31602,-15.65061 14.85522,-29.31178 l 0.64264,-5.70371 -46.81618,-0.29629 L 482.5,548.5 l -8,-2.80777 C 452.31125,537.90463 433.46167,519.43843 425.81763,498 c -2.27305,-6.37496 -2.32319,-7.36086 -2.60653,-51.25 l -0.2889,-44.75 18.2889,-6.6e-4 18.2889,-6.7e-4 -0.33163,34.75067 c -0.35624,37.32917 0.01,41.38754 4.62439,51.25066 3.29924,7.05195 12.06788,15.72804 19.53357,19.32741 10.57912,5.1004 15.81962,5.63625 55.30707,5.65523 l 36.1334,0.0174 0.39055,-50.25 c 0.21481,-27.6375 0.13106,-52.6125 -0.18609,-55.5 l -0.57665,-5.25 18.8027,0 18.80269,0 0,85.7899 c 0,94.45104 0.19591,91.18803 -6.25661,104.2101 -4.89923,9.88732 -16.92438,21.51557 -27.75579,26.83967 -16.84766,8.28135 -18.46113,8.48776 -69.7376,8.92165 l -45.25,0.3829 0,-18.0117 z m 637,-1.05977 0,-18.07275 37.75,-0.0174 c 47,-0.0216 51.4261,-0.7263 61.4515,-9.78364 7.3123,-6.60625 11.2137,-15.03422 12.4229,-26.83686 l 0.6518,-6.36214 -44.4781,0 c -40.6819,0 -45.1229,-0.16489 -52.0317,-1.93186 -27.3268,-6.98902 -50.8363,-31.07166 -55.78,-57.13992 C 1059.4376,486.03447 1059,465.37661 1059,442.36351 L 1059,401 l 18.25,-5.5e-4 18.25,-5.5e-4 -0.3297,34.45806 c -0.217,22.68151 0.05,36.28907 0.7825,39.81554 2.7767,13.37539 11.3717,24.83371 23.05,30.7289 10.7778,5.44064 15.6236,5.96201 55.5917,5.98124 l 36.0946,0.0174 0.7143,-49.41855 c 0.3929,-27.18021 0.4047,-52.15521 0.026,-55.5 l -0.688,-6.08145 18.5126,0 18.5127,0 0.7095,36.25 c 0.3903,19.9375 0.5281,58.75 0.3062,86.25 -0.4429,54.90603 -0.5115,55.58258 -6.8375,67.45151 -6.4904,12.17722 -15.9683,21.0415 -29.4452,27.53896 -15.7682,7.60213 -17.1177,7.76623 -67.75,8.23804 l -44.75,0.417 0,-18.07276 z M 688,548.31607 c -31.81503,-3.95674 -50.96785,-23.34301 -55.03873,-55.70958 -1.62394,-12.91155 -0.76084,-30.00267 1.95325,-38.67862 5.55728,-17.76451 20.91452,-31.64573 42.10181,-38.05531 7.25114,-2.1936 9.00215,-2.2753 56.35308,-2.62908 l 48.86941,-0.36512 -0.43668,-8.68918 c -0.4069,-8.09655 -1.16946,-10.75055 -5.59129,-19.45974 -0.21517,-0.42381 8.98686,-0.64881 20.44896,-0.5 L 817.5,384.5 l 1.93985,7 c 1.77945,6.42121 1.94482,10.63814 2,51 0.069,50.48617 -0.0631,51.56405 -8.46961,69.07746 -8.16732,17.01521 -21.42733,29.11572 -37.97024,34.65001 -6.18216,2.06819 -8.38262,2.18306 -45,2.3492 -21.175,0.0961 -40.075,-0.0212 -42,-0.2606 z m 72.10948,-38.57087 c 7.01983,-3.44741 15.14615,-11.92058 18.69463,-19.49256 2.58751,-5.52138 2.70901,-6.5265 3.02235,-25.00264 l 0.32646,-19.25 -34.32646,0.0258 c -43.21147,0.0325 -52.0796,0.79149 -60.78211,5.20224 -10.70796,5.42718 -14.73106,12.29664 -15.75318,26.89859 -0.70845,10.12083 1.3977,16.55735 7.5809,23.16768 9.68525,10.35433 15.36946,11.66025 49.62793,11.40182 l 26,-0.19613 5.60948,-2.7548 z M 53.5,546.34017 C 25.461815,540.3449 5.2606273,519.57466 1.1349268,492.5 0.3931431,487.63209 0.35469063,473.31663 1.0086811,445.5 1.5259181,423.5 1.9605618,402.6875 1.974556,399.25 L 2,393 21.25,392.999 40.5,392.998 40.194889,414.49906 39.889777,436 l 42.873611,0 c 47.570492,0 49.266492,-0.18819 57.355032,-6.36425 2.43266,-1.85747 5.76369,-5.79789 7.4023,-8.75649 2.81034,-5.07423 2.97928,-6.01713 2.97928,-16.62823 l 0,-11.24897 19.17041,-10e-4 19.1704,-10e-4 0.69662,6.50493 c 0.8889,8.30042 -0.18578,19.76629 -2.70461,28.85579 C 182.32838,444.61555 173.24403,455.86523 159,462.82773 145.31673,469.51612 140.40801,470 86.240524,470 l -46.497495,0 0.452768,7.82129 c 0.315377,5.44796 1.171878,9.31688 2.822592,12.75 3.039253,6.32097 11.379847,14.49905 18.170244,17.81619 9.226966,4.50742 14.326546,4.92001 52.561367,4.25252 L 149,512.02463 149,530.01231 149,548 104.75,547.9185 C 69.48431,547.8535 59.078753,547.53308 53.5,546.3402 z M 209,470.5 l 0,-77.5 19.5,0 19.5,0 0,77.5 0,77.5 -19.5,0 -19.5,0 0,-77.5 z m 151.18463,12.75 0.31537,-64.75 -2.36479,-7 c -1.30064,-3.85 -3.66961,-9.5875 -5.2644,-12.75 l -2.8996,-5.75 21.88262,0 21.88262,0 1.6395,5.84312 c 3.14471,11.20768 3.5625,21.08012 3.59317,84.90688 L 399,548 l -19.56537,0 -19.56537,0 0.31537,-64.75 z m 540.95698,62.71258 c -25.5263,-6.68581 -46.097,-25.59517 -53.78531,-49.4415 -3.30653,-10.25565 -3.86526,-25.11157 -2.53943,-67.52108 1.07353,-34.3395 1.53136,-37.0692 8.65256,-51.58889 9.24442,-18.84882 26.83046,-33.1328 48.58405,-39.46161 6.69931,-1.94904 11.05887,-2.25437 43.44652,-3.04281 19.8,-0.48201 39.9375,-0.60016 44.75,-0.26255 l 8.75,0.61383 0,-6.12899 0,-6.12898 18.539,0 18.539,0 -0.2985,80.75 -0.2984,80.75 -2.3261,7 c -8.3141,25.01988 -28.4809,46.84345 -50.09718,54.21272 -6.29034,2.14446 -7.94463,2.23445 -40.55782,2.2064 -30.301,-0.0261 -34.80055,-0.23892 -41.35839,-1.95654 z m 72.98293,-39.22475 c 10.18464,-5.00159 18.73122,-16.67425 22.30402,-30.46214 C 997.75453,471.15863 998,462.46243 998,420.60566 L 998,371 l -37.2899,0 c -40.59321,0 -44.65197,0.43328 -53.69547,5.73209 -11.23591,6.5834 -19.75069,18.74051 -22.07033,31.51125 -0.63316,3.48589 -0.9255,19.01164 -0.74375,39.5 L 884.5,481.5 l 2.80075,6 c 4.69206,10.05173 12.74163,17.10132 23.53562,20.61187 4.99641,1.62499 8.72664,1.81526 31.66363,1.61506 l 26,-0.22693 5.62454,-2.76217 z m 353.63886,40.22936 c -26.5822,-4.476 -47.4985,-22.97172 -53.788,-47.5632 -2.2544,-8.81497 -2.382,-15.78352 -1.3135,-71.7406 l 0.662,-34.66339 19.088,-3.5e-4 19.0881,-3.4e-4 -0.3495,21.50034 -0.3494,21.50035 43.5619,0 c 41.9406,0 43.773,-0.0789 49.2303,-2.1208 7.1517,-2.6758 12.6429,-7.60324 15.8452,-14.21866 2.9187,-6.02932 4.1759,-16.25565 2.7551,-22.41054 l -0.981,-4.25 19.3746,0 19.3747,0 0.6505,2.59188 c 0.3578,1.42553 0.4182,8.06303 0.1343,14.75 -1.275,30.02902 -14.8469,48.94117 -40.75,56.78426 -7.2924,2.20805 -8.8837,2.27976 -58.3866,2.63076 l -50.8899,0.36084 0.5702,7.5384 c 0.3908,5.16731 1.3799,9.19357 3.1446,12.80062 3.0687,6.2721 11.3186,14.37121 18.181,17.84865 9.0928,4.60768 14.6242,5.06843 52.531,4.37576 l 34.853,-0.63688 0.014,15.72786 c 0.01,8.65032 0.2849,16.74035 0.6166,17.97785 l 0.603,2.25 -44.3667,-0.11762 c -24.4016,-0.0647 -46.4981,-0.47652 -49.1032,-0.91519 z m 193.3489,-0.54774 C 1503.4115,541.65909 1488.107,526.72668 1481.7355,508 c -2.1937,-6.44792 -2.2139,-7.10692 -2.5148,-82.25 l -0.3032,-75.75 44.0412,0 44.0413,0 0,10.5 0,10.5 -23.8631,0 -23.8631,0 -0.7378,59.76868 c -0.5348,43.32919 -0.4274,60.92096 0.3904,63.95795 1.5447,5.73679 6.6882,12.15373 11.9809,14.9472 4.0764,2.15155 5.5966,2.32617 20.25,2.32617 l 15.8427,0 0,18 0,18 -20.25,-0.0658 c -14.3541,-0.0466 -21.8187,-0.48768 -25.6377,-1.51474 z M 2.1896347,388.25 2.5,384.5 23.25,384.22971 c 11.4125,-0.14866 20.75,-0.0911 20.75,0.12788 0,0.21899 -0.681039,2.02812 -1.51342,4.02029 L 40.97316,392 21.426215,392 1.8792695,392 2.1896347,388.25 z M 147.82426,387.98983 146.14852,384 l 20.3041,0 20.3041,0 1.01531,4 1.01531,4 -19.64367,-0.0102 -19.64367,-0.0102 -1.67574,-3.98983 z M 209,387.5 l 0,-4.5 19.5,0 19.5,0 0,4.5 0,4.5 -19.5,0 -19.5,0 0,-4.5 z m 136.21831,-0.039 -3.28169,-4.461 23.92311,0 23.92311,0 1.60858,4.02024 c 0.88472,2.21113 1.60858,4.23613 1.60858,4.5 0,0.26387 -10.0125,0.46221 -22.25,0.44076 l -22.25,-0.039 -3.28169,-4.461 z m 928.15139,2.289 c 0.3317,-1.2375 0.6091,-3.0375 0.6166,-4 0.013,-1.61048 1.682,-1.75 20.9394,-1.75 l 20.9258,0 -1.6758,3.98983 -1.6757,3.98983 -19.8666,0.0102 -19.8667,0.0102 0.603,-2.25 z M 1419.23,388 l -1.9791,-4 20.3155,0 c 11.1736,0 20.5142,0.3375 20.757,0.75 0.2428,0.4125 0.7551,2.2125 1.1385,4 l 0.697,3.25 -19.4749,0 -19.475,0 -1.979,-4 z m 205.7692,-25.25 c 0,-12.29728 -1.7455,-28.38711 -4.0463,-37.32604 -2.633,-10.22918 -11.322,-28.01074 -18.043,-36.92396 -25.003,-33.15824 -63.2478,-50.5 -111.3705,-50.5 l -11.5394,0 0,-18.5 0,-18.5 8.25,0.002 c 13.3814,0.004 34.5094,1.91189 45.25,4.08628 57.035,11.54647 103.2386,50.90324 120.4175,102.57295 5.0851,15.29494 6.2026,22.46938 6.7892,43.58834 l 0.5486,19.75 -18.1277,0 -18.1276,0 -8e-4,-8.25 z"
       id="path3033"
       inkscape:connector-curvature="0" />
    <path
       style="fill:#15b2e0"
       d="m 463,610 0,-18 38.25,-0.0174 c 48.04272,-0.0218 52.04191,-0.67991 62.45385,-10.27731 6.86329,-6.32635 10.3144,-14.21436 11.7731,-26.90904 l 0.6554,-5.70371 -46.81618,-0.29629 L 482.5,548.5 l -8,-2.80777 C 452.28729,537.89622 433.29742,519.27476 425.86422,498 c -1.87765,-5.37407 -2.33796,-9.14161 -2.65738,-21.75 L 422.8205,461 l 18.08975,0 18.08975,0 0.0119,6.25 c 0.0326,17.16019 9.64558,33.00524 24.31446,40.07741 10.58451,5.103 15.81059,5.63625 55.42367,5.65523 L 575,513 l 0,-26 0,-26 18.5,0 18.5,0 0,56.2899 c 0,47.27405 -0.2448,57.22975 -1.52839,62.1578 -5.16063,19.813 -22.47895,37.32347 -43.51285,43.99563 C 554.46463,627.4066 546.19113,628 503.42764,628 L 463,628 l 0,-18 z m 637,-0.92725 0,-18.07275 37.75,-0.0174 c 39.8365,-0.0183 46.7105,-0.62019 54.894,-4.80628 4.9931,-2.55415 10.6282,-8.07829 13.8521,-13.5795 2.6162,-4.46416 5.4554,-15.51077 5.4865,-21.34686 L 1212,548 l -44.34,0 c -40.5454,0 -44.9865,-0.16533 -51.8936,-1.93186 -23.2946,-5.95777 -43.3199,-23.53266 -52.3846,-45.97464 C 1059.9651,491.63471 1059,485.41685 1059,471.86351 L 1059,460 l 18,0 18,0 0,5.7899 c 0,17.14044 9.3589,32.81931 24.0028,40.2115 10.7849,5.44423 15.6108,5.96201 55.7472,5.98124 L 1211,512 l 0,-26 0,-26 19.0599,0 19.0598,0 -0.3787,56.75 c -0.4166,62.41409 -0.2604,60.73179 -6.8875,74.20466 -2.2258,4.52517 -5.7301,9.05736 -11.354,14.68426 -6.7427,6.74636 -9.7484,8.91328 -17.567,12.66476 -16.2871,7.8148 -17.394,7.95156 -68.1825,8.42483 l -44.75,0.417 0,-18.07276 z M 685.10659,547.87477 c -26.27687,-3.90508 -44.75214,-20.85614 -50.77698,-46.58789 -2.80584,-11.98356 -2.6005,-37.34341 0.37883,-46.78688 2.69598,-8.54533 6.83576,-15.31808 13.60014,-22.25 l 5.1231,-5.25 84.37094,0 84.37093,0 -0.40652,30.75 c -0.39609,29.96091 -0.47562,30.97601 -3.09905,39.55747 -6.23605,20.39859 -17.60395,35.57533 -33.06009,44.13693 -12.32525,6.82731 -12.9616,6.90921 -55.60789,7.1569 -21.175,0.12299 -41.37704,-0.20395 -44.89341,-0.72653 z m 75.00289,-38.12957 c 7.01983,-3.44741 15.14615,-11.92058 18.69463,-19.49256 2.58751,-5.52138 2.70901,-6.5265 3.02235,-25.00264 l 0.32646,-19.25 -34.32646,0.0258 c -43.21147,0.0325 -52.0796,0.79149 -60.78211,5.20224 -7.06053,3.57853 -12.16976,9.21284 -14.09833,15.54722 -0.62372,2.04861 -1.36036,7.32474 -1.63697,11.72474 -0.41359,6.5789 -0.12271,9.00796 1.63752,13.67425 2.4561,6.51103 8.01582,12.73276 14.26217,15.9604 8.25084,4.2634 12.74628,4.76594 40.79126,4.55997 l 26.5,-0.19462 5.60948,-2.7548 z M 53.666727,546.37106 C 33.382758,542.01969 16.896889,529.99976 8.1721468,513.20072 0.58605161,498.59408 0.22029888,495.3934 0.75,448.25 L 1,426 l 19.5,0 19.5,0 0,5 0,5 42.818499,0 c 47.653911,0 49.192611,-0.17386 57.469211,-6.49351 L 144.88002,426 l 21.18499,0 21.18499,0 -0.62563,3.25 c -0.3441,1.7875 -2.23857,6.54009 -4.20993,10.56132 C 177.38066,450.0793 169.76444,457.56606 159,462.82773 145.31673,469.51612 140.40801,470 86.240524,470 l -46.497495,0 0.452768,7.82129 c 0.566765,9.79054 3.290559,15.75833 10.486473,22.97568 5.911184,5.9288 13.143993,9.66926 21.923546,11.33781 4.054051,0.77048 16.899046,0.93263 41.144184,0.5194 l 35.25,-0.6008 0,17.97331 L 149,548 104.75,547.9185 C 69.893065,547.8543 59.049483,547.52581 53.666727,546.37109 z M 209,487 l 0,-61 19.5,0 19.5,0 0,61 0,61 -19.5,0 -19.5,0 0,-61 z m 151.00123,44.25 c 6.8e-4,-9.2125 0.29901,-36.6625 0.66296,-61 l 0.66173,-44.25 18.83704,0 18.83704,0 0,61 0,61 -19.5,0 -19.5,0 10e-4,-16.75 z M 901.5,546.03606 c -24.19401,-6.40732 -44.15031,-23.70791 -52.67704,-45.66697 -4.55613,-11.7335 -5.03301,-18.19855 -4.34228,-58.86909 0.64068,-37.72376 1.11643,-43.2564 4.66498,-54.25 l 2.0174,-6.25 24.54583,0 24.54583,0 -4.21284,4.57039 c -5.04543,5.47365 -9.63925,14.88428 -11.0859,22.70993 -0.6486,3.50856 -0.93955,18.70772 -0.75543,39.46302 0.29069,32.76902 0.36665,33.90295 2.59616,38.75666 5.25462,11.43944 12.53986,17.94706 24.12985,21.55427 5.47309,1.70342 9.28692,1.94573 30.62502,1.94573 22.51253,0 24.81333,-0.1646 30.13565,-2.15593 7.53795,-2.82031 15.10066,-10.00424 19.63287,-18.64955 C 997.8398,476.75802 998,475.23301 998,425.60566 L 998,381 l 19,0 19,0 -0.01,47.75 c 0,28.20935 -0.4326,50.37013 -1.0464,54.15262 -2.5405,15.65769 -11.8966,32.45589 -25.3962,45.59738 -9.2221,8.97735 -16.82462,13.91699 -26.49198,17.21272 -6.29034,2.14446 -7.94463,2.23445 -40.55782,2.2064 -29.86154,-0.0257 -34.85204,-0.25489 -41,-1.88306 z m 426.2634,0.93113 C 1301.3657,542.52226 1279.3446,522.62951 1273.557,498 c -1.6425,-6.98983 -2.1659,-43.14887 -0.901,-62.25 l 0.6456,-9.75 18.8492,0 18.8492,0 0,5 0,5 43.4625,0 c 41.7204,0 43.6877,-0.0843 49.0819,-2.10251 3.0908,-1.15639 7.1045,-3.40639 8.9196,-5 l 3.3,-2.89749 21.6854,0 21.6854,0 -0.6908,2.25 c -3.584,11.67431 -8.3539,19.64251 -15.856,26.48774 -6.5062,5.93653 -12.946,9.46796 -22.5913,12.3884 -7.2924,2.20805 -8.8837,2.27976 -58.3866,2.63076 l -50.8899,0.36084 0.5702,7.5384 c 1.3154,17.39369 13.9747,30.75189 32.6066,34.40698 4.7948,0.94062 15.1261,1.09541 41.25,0.61805 l 34.853,-0.63688 0.014,15.72786 c 0.01,8.65032 0.2849,16.74035 0.6166,17.97785 l 0.603,2.25 -44.3667,-0.11762 c -24.4016,-0.0647 -46.4981,-0.47652 -49.1032,-0.91519 z m 193.3489,-0.54774 c -17.7005,-4.76026 -33.5114,-20.45053 -39.7224,-39.41945 -1.6161,-4.93568 -1.8372,-10.65587 -2.1543,-55.75 l -0.3533,-50.25 20.0402,0 20.0401,0 -0.2313,47.25 c -0.2287,46.72295 -0.2072,47.29462 1.9271,51.25 2.5115,4.65433 6.5178,8.60399 11.0419,10.88584 2.5489,1.28556 6.4676,1.61416 19.25,1.61416 l 16.0497,0 0,18 0,18 -20.25,-0.0658 c -14.3541,-0.0466 -21.8187,-0.48768 -25.6377,-1.51474 z M 1624.9992,362.75 c 0,-12.29728 -1.7455,-28.38711 -4.0463,-37.32604 -2.633,-10.22918 -11.322,-28.01074 -18.043,-36.92396 -25.003,-33.15824 -63.2478,-50.5 -111.3705,-50.5 l -11.5394,0 0,-18.5 0,-18.5 8.25,0.002 c 13.3814,0.004 34.5094,1.91189 45.25,4.08628 57.035,11.54647 103.2386,50.90324 120.4175,102.57295 5.0851,15.29494 6.2026,22.46938 6.7892,43.58834 l 0.5486,19.75 -18.1277,0 -18.1276,0 -8e-4,-8.25 z"
       id="path3031"
       inkscape:connector-curvature="0" />
    <path
       style="fill:#12b0de"
       d="m 463,610 0,-18 38.25,-0.0174 c 48.04272,-0.0218 52.04191,-0.67991 62.45385,-10.27731 6.86329,-6.32635 10.3144,-14.21436 11.7731,-26.90904 l 0.6554,-5.70371 -46.81618,-0.29629 L 482.5,548.5 l -8,-2.80777 C 462.89954,541.62081 453.66607,535.74972 444.43225,526.57369 437.65168,519.83555 428,506.39562 428,503.69183 428,503.31132 438.80894,503 452.01987,503 c 23.80187,0 24.05528,0.0224 27.92129,2.46286 2.14578,1.35457 6.74934,3.48663 10.23013,4.73791 6.10821,2.19579 7.69622,2.28638 45.57871,2.60005 l 39.25,0.325 0,-5.06291 0,-5.06291 18.5,0 18.5,0 0,35.2899 c 0,39.45337 -0.2829,41.71723 -6.76274,54.1179 -4.37689,8.37618 -15.02311,19.45163 -23.50962,24.45746 -7.88774,4.65265 -20.61885,8.83434 -30.70141,10.08426 C 546.36566,627.52728 524.65316,628 502.77623,628 L 463,628 l 0,-18 z m 637,-0.92725 0,-18.07275 37.75,-0.0174 c 39.8365,-0.0183 46.7105,-0.62019 54.894,-4.80628 4.9931,-2.55415 10.6282,-8.07829 13.8521,-13.5795 2.6162,-4.46416 5.4554,-15.51077 5.4865,-21.34686 L 1212,548 l -44.34,0 c -40.5454,0 -44.9865,-0.16533 -51.8936,-1.93186 -20.8934,-5.34365 -40.0161,-20.675 -49.6649,-39.81814 l -2.1421,-4.25 23.803,0 23.803,0 6.6718,3.5427 c 11.0896,5.88861 15.7564,6.42041 56.5128,6.43994 L 1211,512 l 0,-5 0,-5 19.0866,0 19.0865,0 -0.438,35.75 c -0.4795,39.1243 -0.6663,40.56897 -6.8816,53.20466 -4.8484,9.85701 -16.9221,21.50565 -27.8659,26.88501 -16.8159,8.26572 -18.5253,8.48599 -69.2376,8.92151 l -44.75,0.38433 0,-18.07276 z M 685.5,547.93584 c -20.54013,-3.05382 -37.08998,-14.37296 -45.45715,-31.09006 -5.88062,-11.74913 -7.53588,-20.38708 -7.53966,-39.34578 -0.002,-8.8 0.32019,-16.7875 0.71543,-17.75 0.653,-1.59023 2.68434,-1.75 22.25,-1.75 11.84226,0 21.53138,0.24083 21.53138,0.53518 0,0.29435 -0.7083,1.61619 -1.574,2.93742 -2.41295,3.68261 -4.40096,12.3478 -4.41413,19.23989 -0.0306,16.00029 10.47571,27.93663 27.52146,31.26756 3.88389,0.75896 14.6934,1.05321 30.96667,0.84295 24.96067,-0.32249 25.00882,-0.32733 30.60948,-3.0778 7.02841,-3.45163 15.15465,-11.93037 18.68217,-19.49256 2.39991,-5.14485 2.72152,-7.15256 3.044,-19.00264 l 0.36058,-13.25 20.03575,0 20.03575,0 -0.52607,15.25 c -0.43133,12.50351 -0.99794,16.8362 -3.14614,24.05747 C 811.2312,522.06295 796.5791,538.47604 775,546.1426 c -6.31941,2.24515 -7.56964,2.31453 -45,2.4973 -21.175,0.1034 -41.2,-0.21343 -44.5,-0.70406 z M 53.666727,546.37106 C 28.318435,540.93328 8.9099504,523.13097 2.5668381,499.5 0.74623912,492.71744 -0.62644231,474.63208 0.37616191,470.63739 L 1.0381041,468 71.769052,468.12517 c 38.944168,0.0689 68.708628,0.48501 66.230948,0.92587 -2.475,0.44039 -25.59532,0.83407 -51.378485,0.87484 L 39.743029,470 l 0.452768,7.82129 c 0.566765,9.79054 3.290559,15.75833 10.486473,22.97568 5.911184,5.9288 13.143993,9.66926 21.923546,11.33781 4.054051,0.77048 16.899046,0.93263 41.144184,0.5194 l 35.25,-0.6008 0,17.97331 L 149,548 104.75,547.9185 C 69.893065,547.8543 59.049483,547.52581 53.666727,546.37109 z M 209,508 l 0,-40 19.5,0 19.5,0 0,40 0,40 -19.5,0 -19.5,0 0,-40 z m 151.00406,12.75 c 0.002,-14.9875 0.29667,-32.9875 0.65432,-40 l 0.65026,-12.75 18.84568,0 18.84568,0 0,40 0,40 -19.5,0 -19.5,0 0.004,-27.25 z m 541.23866,25.26229 c -3.99151,-1.05911 -11.19151,-3.96234 -16,-6.45163 -18.97911,-9.82519 -31.41166,-23.99008 -37.78082,-43.04518 -3.25668,-9.74327 -4.11898,-25.2564 -2.98854,-53.76548 l 0.74348,-18.75 19.33526,0 19.33526,0 0.30632,28.75 c 0.29333,27.53056 0.40374,28.96208 2.60303,33.75 5.25462,11.43944 12.53986,17.94706 24.12985,21.55427 5.47309,1.70342 9.28692,1.94573 30.62502,1.94573 22.51253,0 24.81333,-0.1646 30.13565,-2.15593 7.53795,-2.82031 15.10066,-10.00424 19.63287,-18.64955 C 997.24002,477.90211 998,473.11363 998,447.10566 L 998,424 l 19,0 19,0 -0.01,26.25 c 0,14.4375 -0.475,29.13118 -1.0464,32.65262 -4.1774,25.74613 -26.552,53.29144 -50.70882,62.42757 -5.44105,2.05781 -7.54372,2.18111 -40.73718,2.38879 -31.79687,0.19893 -35.66417,0.0427 -42.25728,-1.70669 z m 424.61358,0.47644 c -26.0095,-5.18077 -46.6109,-24.2811 -52.2993,-48.48873 -0.9076,-3.86211 -1.5334,-11.26849 -1.5422,-18.25 L 1272,468 l 71.25,0.12517 c 39.2043,0.0689 69.2261,0.48529 66.75,0.92587 -2.475,0.44039 -25.8275,0.83407 -51.8943,0.87484 l -47.3944,0.0741 0.5746,7.59728 c 1.3202,17.4561 13.9509,30.80521 32.6111,34.46584 4.7948,0.94062 15.1261,1.09541 41.25,0.61805 l 34.853,-0.63688 0.014,15.72786 c 0.01,8.65032 0.2849,16.74035 0.6166,17.97785 l 0.603,2.25 -44.3667,-0.094 c -32.4598,-0.0687 -46.1496,-0.44911 -51.0103,-1.4173 z m 195.7518,-0.0108 C 1503.0799,541.39071 1487.5836,526.16704 1481.423,507 c -1.4909,-4.63848 -1.8326,-10.395 -2.1812,-36.75 l -0.4133,-31.25 19.5286,0 19.5287,0 0.3071,28.25 c 0.3349,30.81011 0.4322,31.36553 6.6713,38.09158 5.4646,5.8912 8.4715,6.65842 26.096,6.65842 l 16.0398,0 0,18 0,18 -20.25,-0.0894 c -13.5946,-0.06 -21.8578,-0.53087 -25.1419,-1.4326 z M 1,462 l 0,-5 83.75,0.0318 c 93.22938,0.0354 87.3159,-0.49888 72.77821,6.57554 L 150.55642,467 75.778212,467 1,467 1,462 z m 208,0 0,-5 19.5,0 19.5,0 0,5 0,5 -19.5,0 -19.5,0 0,-5 z m 152,0 0,-5 19,0 19,0 0,5 0,5 -19,0 -19,0 0,-5 z m 911,0 0,-5 84.25,0.004 84.25,0.004 -4.5,3.0032 c -2.475,1.65177 -6.8794,3.89984 -9.7875,4.99572 -5.1079,1.92485 -7.8165,1.99252 -79.75,1.99252 l -74.4625,0 0,-5 z m 352.9992,-99.25 c 0,-12.13224 -1.7435,-28.4302 -3.9696,-37.13422 -4.5931,-17.959 -14.8403,-35.51708 -28.9839,-49.66266 -10.2925,-10.29397 -18.7483,-16.43759 -31.6993,-23.03131 -19.3101,-9.8314 -36.3359,-13.81517 -62.5964,-14.64661 l -17.75,-0.56198 0,-18.51295 0,-18.51294 17.25,0.67678 c 21.1701,0.83059 34.4523,2.73275 49.673,7.11374 56.7599,16.33721 98.3647,59.13868 111.2334,114.43285 1.4809,6.36348 2.1415,13.70729 2.5489,28.3393 l 0.55,19.75 -18.1277,0 -18.1276,0 -8e-4,-8.25 z"
       id="path3029"
       inkscape:connector-curvature="0" />
    <path
       style="fill:#10aedc"
       d="m 463,610 0,-18 38.25,-0.0174 c 48.04272,-0.0218 52.04191,-0.67991 62.45385,-10.27731 6.87183,-6.33423 10.31333,-14.20991 11.77889,-26.95533 l 0.66117,-5.75 -44.41199,0 C 483.22145,549 480.16366,548.70145 467,542.67981 l -5.5,-2.51594 75.25,-0.0819 L 612,540 l 0,16.7899 c 0,19.21099 -1.03334,24.65337 -6.76274,35.6179 -4.37689,8.37618 -15.02311,19.45163 -23.50962,24.45746 -7.88774,4.65265 -20.61885,8.83434 -30.70141,10.08426 C 546.36566,627.52728 524.65316,628 502.77623,628 L 463,628 l 0,-18 z m 637,-0.92725 0,-18.07275 37.75,-0.0174 c 39.8365,-0.0183 46.7105,-0.62019 54.894,-4.80628 4.9931,-2.55415 10.6282,-8.07829 13.8521,-13.5795 2.6162,-4.46416 5.4554,-15.51077 5.4865,-21.34686 L 1212,548 l -44.34,0 c -40.5865,0 -44.9812,-0.16398 -51.9139,-1.93706 -4.1656,-1.06538 -9.7501,-3.06943 -12.41,-4.45344 l -4.8361,-2.51638 75.3865,-0.0466 75.3865,-0.0466 -0.5647,17.25 c -0.6164,18.82926 -1.6701,24.16415 -6.8548,34.70466 -4.8484,9.85701 -16.9221,21.50565 -27.8659,26.88501 -16.8159,8.26572 -18.5253,8.48599 -69.2376,8.92151 l -44.75,0.38433 0,-18.07276 z M 685.5,547.93584 C 655.26369,543.44043 636.23204,522.85598 632.62799,490.75 l -0.64546,-5.75 19.50873,0 C 663.32352,485 671,485.37873 671,485.96249 c 0,0.52937 0.91958,3.42028 2.04351,6.42425 3.70644,9.90635 13.179,17.18764 25.48982,19.59331 3.88389,0.75896 14.6934,1.05321 30.96667,0.84295 24.96067,-0.32249 25.00882,-0.32733 30.60948,-3.0778 6.97962,-3.42767 15.17773,-11.94658 18.51794,-19.24256 L 781.14661,485 l 19.9267,0 c 23.13479,0 21.38367,-1.25147 17.41442,12.4456 -7.07322,24.4082 -21.92138,41.03497 -43.48773,48.697 -6.31941,2.24515 -7.56964,2.31453 -45,2.4973 -21.175,0.1034 -41.2,-0.21343 -44.5,-0.70406 z M 53.666727,546.37106 C 24.18001,540.0455 4.7061875,518.92658 0.53415983,488.75 L -0.1225458,484 l 20.4528648,0 20.452865,0 0.665842,2.75 c 2.012035,8.30992 12.850958,19.20861 23.298889,23.42737 5.699478,2.30139 6.111056,2.32149 45.002085,2.19811 L 149,512.25095 149,530.12548 149,548 104.75,547.9185 C 69.893065,547.8543 59.049483,547.52581 53.666727,546.37109 z M 209,516 l 0,-32 19.5,0 19.5,0 0,32 0,32 -19.5,0 -19.5,0 0,-32 z m 151.23595,0.25 0.26405,-31.75 19.25,-0.27159 19.25,-0.2716 0,32.0216 0,32.02159 -19.51405,0 -19.51404,0 0.26404,-31.75 z m 541.00677,29.76229 C 886.05861,541.98332 868.90115,530.90435 859.82227,519.26614 848.77512,505.10482 845.025,494.38942 844.24815,474.76548 L 843.70321,461 l 20.03498,0 20.03497,0 0.41435,10.25 c 0.60064,14.85866 5.23319,24.35256 15.24868,31.2505 9.63712,6.63733 14.47884,7.4995 42.11539,7.4995 22.51253,0 24.81333,-0.1646 30.13565,-2.15593 C 985.61923,502.63144 998,482.75728 998,465.60566 L 998,461 l 19,0 19,0 -0.01,7.75 c -0.01,10.63385 -1.5378,19.1358 -5.0955,28.36118 -8.115,21.04294 -27.3429,40.91337 -46.65972,48.21901 -5.44105,2.05781 -7.54372,2.18111 -40.73718,2.38879 -31.79687,0.19893 -35.66417,0.0427 -42.25728,-1.70669 z m 424.61358,0.47644 c -26.0095,-5.18077 -46.6109,-24.2811 -52.2993,-48.48873 -0.8401,-3.575 -1.5341,-8.1875 -1.5422,-10.25 L 1272,484 l 19.75,0.0104 19.75,0.0104 2.7704,5.9543 c 3.3611,7.22391 10.7296,14.72256 17.9217,18.23836 9.6475,4.71608 14.9375,5.16239 52.9549,4.46769 l 34.853,-0.63688 0.014,15.72786 c 0.01,8.65032 0.2849,16.74035 0.6166,17.97785 l 0.603,2.25 -44.3667,-0.094 c -32.4598,-0.0687 -46.1496,-0.44911 -51.0103,-1.4173 z m 195.7518,-0.0108 C 1503.0489,541.3822 1487.3173,525.89889 1481.4969,507 c -1.1247,-3.65187 -1.8738,-10.62437 -2.2292,-20.75 l -0.5354,-15.25 19.531,0 19.531,0 0.3861,12.25 c 0.4137,13.12711 1.4037,16.39938 6.6838,22.09158 5.4646,5.8912 8.4715,6.65842 26.096,6.65842 l 16.0398,0 0,18 0,18 -20.25,-0.0894 c -13.5946,-0.06 -21.8578,-0.53087 -25.1419,-1.4326 z M 1624.9992,362.75 c 0,-12.13224 -1.7435,-28.4302 -3.9696,-37.13422 -4.5931,-17.959 -14.8403,-35.51708 -28.9839,-49.66266 -10.2925,-10.29397 -18.7483,-16.43759 -31.6993,-23.03131 -19.3101,-9.8314 -36.3359,-13.81517 -62.5964,-14.64661 l -17.75,-0.56198 0,-18.51295 0,-18.51294 17.25,0.67678 c 21.1701,0.83059 34.4523,2.73275 49.673,7.11374 56.7599,16.33721 98.3647,59.13868 111.2334,114.43285 1.4809,6.36348 2.1415,13.70729 2.5489,28.3393 l 0.55,19.75 -18.1277,0 -18.1276,0 -8e-4,-8.25 z"
       id="path3027"
       inkscape:connector-curvature="0" />
    <path
       style="fill:#0cacdb"
       d="m 463,610 0,-18 38.25,-0.0174 c 29.59711,-0.0134 39.80267,-0.34633 45.11357,-1.47154 7.12678,-1.50993 13.76334,-4.78388 17.04263,-8.40746 C 565.23304,580.08501 566.213,580 587.65499,580 606.01977,580 610,580.24656 610,581.3842 c 0,0.76132 -1.87775,5.13584 -4.17278,9.72117 -4.8234,9.63686 -14.74506,20.24205 -24.09958,25.75989 -7.88774,4.65265 -20.61885,8.83434 -30.70141,10.08426 C 546.36566,627.52728 524.65316,628 502.77623,628 L 463,628 l 0,-18 z m 637,-0.92725 0,-18.07275 37.75,-0.0174 c 46.0466,-0.0212 51.0383,-0.76538 61.2278,-9.12827 l 3.4779,-2.85437 21.7721,0 c 19.5397,0 21.7722,0.16868 21.7722,1.64507 0,0.90479 -1.6374,5.0493 -3.6386,9.21003 -5.2385,10.89122 -16.8028,22.29694 -28.3738,27.98457 -16.8159,8.26572 -18.5253,8.48599 -69.2376,8.92151 l -44.75,0.38433 0,-18.07276 z M 685.5,547.93584 c -13.94758,-2.07367 -27.703,-8.85803 -36.44392,-17.97464 -4.4797,-4.67223 -10.75218,-14.59843 -9.81632,-15.5343 0.24094,-0.24094 39.24004,-0.32306 86.66466,-0.18248 L 812.131,514.5 l -4.9596,7.06212 c -8.48801,12.08632 -18.46915,19.71239 -32.1714,24.58048 -6.31941,2.24515 -7.56964,2.31453 -45,2.4973 -21.175,0.1034 -41.2,-0.21343 -44.5,-0.70406 z M 54,546.44592 C 45.974603,544.72344 39.867763,542.52474 34,539.24514 27.325917,535.51488 19.474807,529.31129 16.512121,525.427 L 13.898217,522 81.449109,522 149,522 l 0,13 0,13 -44.25,-0.0795 C 70.917133,547.85972 58.9698,547.51258 54,546.44592 z M 209,535 l 0,-13 19.5,0 19.5,0 0,13 0,13 -19.5,0 -19.5,0 0,-13 z m 151,0 0,-13 19.5,0 19.5,0 0,13 0,13 -19.5,0 -19.5,0 0,-13 z m 541.24272,11.01229 c -9.31073,-2.47052 -23.06111,-9.59659 -30.83252,-15.9788 -8.61109,-7.07179 -18.7017,-20.50266 -20.87375,-27.78349 l -0.67123,-2.25 23.57605,0 23.57605,0 4.15621,3.01074 c 8.2641,5.98649 14.20308,6.98926 41.39429,6.98926 22.30453,0 24.83072,-0.17718 29.97663,-2.10251 3.09071,-1.15639 7.1045,-3.40639 8.91953,-5 L 983.76403,500 l 23.13827,0 23.1383,0 -2.161,4.25 c -9.2274,18.14658 -26.8405,34.7257 -43.64242,41.08019 -5.44105,2.05781 -7.54372,2.18111 -40.73718,2.38879 -31.79687,0.19893 -35.66417,0.0427 -42.25728,-1.70669 z m 424.61358,0.47644 c -13.7202,-2.73289 -26.3162,-9.35333 -35.551,-18.68546 L 1284.5626,522 l 67.7187,0 67.7187,0 0.014,10.75 c 0.01,5.9125 0.2849,11.7625 0.6166,13 l 0.603,2.25 -44.3667,-0.094 c -32.4598,-0.0687 -46.1496,-0.44911 -51.0103,-1.4173 z m 195.7518,-0.0108 c -17.252,-4.73686 -32.2411,-18.47936 -38.702,-35.48308 l -1.8979,-4.9949 22.4369,0 c 14.0899,0 22.6701,0.37733 23.0637,1.01429 0.3448,0.55786 2.3784,1.90786 4.5192,3 3.4041,1.73664 5.9042,1.98571 19.9322,1.98571 l 16.0398,0 0,18 0,18 -20.25,-0.0894 c -13.5946,-0.06 -21.8578,-0.53087 -25.1419,-1.4326 z M 10.120156,517 7.8720305,513 78.436015,513 149,513 l 0,4 0,4 -68.315859,0 -68.315859,0 -2.248126,-4 z M 209,517 l 0,-4 19.5,0 19.5,0 0,4 0,4 -19.5,0 -19.5,0 0,-4 z m 151,0 0,-4 19.5,0 19.5,0 0,4 0,4 -19.5,0 -19.5,0 0,-4 z m 923.3124,2.75 c -0.5128,-0.6875 -1.7033,-2.4875 -2.6455,-4 l -1.713,-2.75 70.523,0 70.5231,0 0,4 0,4 -67.8776,0 c -53.138,0 -68.08,-0.27144 -68.81,-1.25 z m 341.6868,-157 c 0,-12.13224 -1.7435,-28.4302 -3.9696,-37.13422 -4.5931,-17.959 -14.8403,-35.51708 -28.9839,-49.66266 -10.2925,-10.29397 -18.7483,-16.43759 -31.6993,-23.03131 -19.3101,-9.8314 -36.3359,-13.81517 -62.5964,-14.64661 l -17.75,-0.56198 0,-18.51295 0,-18.51294 17.25,0.67678 c 21.1701,0.83059 34.4523,2.73275 49.673,7.11374 56.7599,16.33721 98.3647,59.13868 111.2334,114.43285 1.4809,6.36348 2.1415,13.70729 2.5489,28.3393 l 0.55,19.75 -18.1277,0 -18.1276,0 -8e-4,-8.25 z"
       id="path3025"
       inkscape:connector-curvature="0" />
  </g>
</svg>
