<?xml version="1.0" encoding="UTF-8" standalone="no"?>
<svg width="2087px" height="512px" viewBox="0 0 2087 512" version="1.1" xmlns="http://www.w3.org/2000/svg" xmlns:xlink="http://www.w3.org/1999/xlink">
    <!-- Generator: Sketch 3.6.1 (26313) - http://www.bohemiancoding.com/sketch -->
    <title>entel</title>
    <desc>Created with Sketch.</desc>
    <defs></defs>
    <g id="Page-1" stroke="none" stroke-width="1" fill="none" fill-rule="evenodd">
        <g id="entel">
            <path d="M581.680473,28.0236686 C573.80355,22.5704142 561.533728,23.4792899 554.414201,29.8414201 L509.273373,71.1952663 C502.153846,77.7088757 502.759763,87.5550296 510.485207,93.3112426 C510.485207,93.3112426 580.16568,144.359763 580.16568,254.182249 C580.16568,358.4 506.698225,418.23432 506.698225,418.23432 C499.27574,424.293491 498.972781,434.594083 506.092308,440.956213 L550.778698,481.704142 C557.898225,488.217751 570.168047,488.975148 578.04497,483.673373 C578.04497,483.673373 683.323077,412.175148 683.323077,254.485207 C683.474556,98.0071006 581.680473,28.0236686 581.680473,28.0236686" id="Shape" fill="#FF5000"></path>
            <path d="M1053.68994,197.074556 C1045.2071,179.048521 1027.48402,165.566864 1000.52071,165.566864 C973.708876,165.566864 955.985799,179.048521 947.351479,197.074556 C942.504142,208.132544 940.534911,216.312426 939.928994,229.794083 L1060.96095,229.794083 C1060.50651,216.312426 1058.68876,208.132544 1053.68994,197.074556 L1053.68994,197.074556 Z M948.108876,281.751479 C948.108876,281.751479 940.231953,280.994083 940.231953,287.356213 C940.231953,323.559763 967.346746,349.462722 1009.76095,349.462722 C1041.26864,349.462722 1054.7503,341.888757 1073.83669,327.649704 C1078.38107,324.31716 1083.07692,321.287574 1086.71243,325.074556 C1089.28757,327.649704 1122.61302,358.551479 1122.61302,358.551479 C1126.85444,362.489941 1125.6426,367.185799 1121.09822,370.972781 C1116.55385,374.759763 1066.56568,413.538462 1009.15503,413.538462 C933.869822,413.538462 861.76568,380.818935 861.76568,257.817751 C861.76568,158.598817 917.964497,102.551479 1000.52071,102.551479 C1089.13609,102.551479 1139.27574,164.35503 1139.27574,247.971598 L1139.27574,269.027219 C1139.27574,277.661538 1132.30769,281.751479 1126.55148,281.751479 L948.108876,281.751479 L948.108876,281.751479 Z" id="Shape" fill="#00609C"></path>
            <path d="M1837.29231,197.074556 C1828.80947,179.048521 1811.08639,165.566864 1784.12308,165.566864 C1757.31124,165.566864 1739.58817,179.048521 1730.95385,197.074556 C1726.10651,208.132544 1724.13728,216.312426 1723.53136,229.794083 L1844.56331,229.794083 C1844.10888,216.312426 1842.29112,208.132544 1837.29231,197.074556 L1837.29231,197.074556 Z M1731.71124,281.751479 C1731.71124,281.751479 1723.83432,280.994083 1723.83432,287.356213 C1723.83432,323.559763 1750.79763,349.462722 1793.36331,349.462722 C1824.87101,349.462722 1838.35266,341.888757 1857.43905,327.649704 C1861.83195,324.31716 1866.52781,321.287574 1870.16331,325.074556 C1872.58698,327.649704 1906.06391,358.551479 1906.06391,358.551479 C1910.30533,362.489941 1909.09349,367.185799 1904.54911,370.972781 C1900.15621,374.759763 1850.01657,413.538462 1792.60592,413.538462 C1717.32071,413.538462 1645.21657,380.818935 1645.21657,257.817751 C1645.21657,158.598817 1701.56686,102.551479 1783.9716,102.551479 C1872.58698,102.551479 1922.72663,164.35503 1922.72663,247.971598 L1922.72663,269.027219 C1922.72663,277.661538 1915.75858,281.751479 1910.00237,281.751479 L1731.71124,281.751479 L1731.71124,281.751479 Z" id="Shape" fill="#00609C"></path>
            <path d="M1367.70651,410.054438 C1361.9503,410.054438 1357.25444,405.35858 1357.25444,399.602367 L1357.25444,236.76213 C1357.25444,209.950296 1350.74083,170.868639 1304.53964,170.868639 C1279.54556,170.868639 1251.37041,184.804734 1251.37041,226.310059 L1251.37041,399.753846 C1251.37041,405.510059 1246.67456,410.205917 1240.91834,410.205917 L1182.29586,410.205917 C1176.53964,410.205917 1171.84379,405.510059 1171.84379,399.753846 L1171.84379,116.487574 C1171.84379,110.731361 1176.53964,106.035503 1182.29586,106.035503 L1239.10059,106.035503 C1244.8568,106.035503 1249.55266,110.731361 1249.55266,116.487574 L1249.55266,123.455621 C1249.55266,129.211834 1253.49112,131.484024 1258.33846,128.302959 C1258.33846,128.302959 1287.11953,102.4 1328.92781,102.4 C1360.73846,102.4 1386.48994,112.397633 1404.06154,129.211834 C1429.66154,153.751479 1436.47811,182.229586 1436.47811,215.55503 L1436.47811,399.450888 C1436.47811,405.207101 1431.78225,409.902959 1426.02604,409.902959 L1367.70651,409.902959 L1367.70651,410.054438 Z" id="Shape" fill="#00609C"></path>
            <path d="M1558.87337,114.972781 L1604.92308,114.972781 C1610.67929,114.972781 1615.37515,119.36568 1615.37515,125.121893 L1615.37515,171.626036 C1615.37515,177.382249 1610.67929,182.078107 1604.92308,182.078107 L1569.6284,182.078107 C1563.87219,182.078107 1559.17633,186.773964 1559.17633,192.530178 L1559.17633,307.805917 C1559.17633,313.56213 1560.53964,322.802367 1562.20592,328.255621 C1562.20592,328.255621 1567.65917,345.67574 1586.59408,345.67574 L1604.92308,345.67574 C1610.67929,345.67574 1615.37515,350.371598 1615.37515,356.127811 L1615.37515,399.450888 C1615.37515,405.207101 1610.67929,409.902959 1604.92308,409.902959 L1571.90059,409.902959 C1507.06746,409.902959 1486.31479,366.125444 1486.31479,322.953846 L1486.31479,182.835503 L1486.31479,162.08284 L1486.31479,125.273373 L1486.31479,104.369231 L1486.31479,65.5905325 C1486.31479,59.8343195 1491.01065,55.1384615 1496.76686,55.1384615 L1548.57278,55.1384615 C1554.32899,55.1384615 1558.72189,59.8343195 1558.72189,65.5905325 L1558.72189,114.972781 L1558.87337,114.972781 Z" id="Shape" fill="#00609C"></path>
            <path d="M2040.88047,410.054438 C1975.44142,410.054438 1954.68876,366.428402 1954.68876,323.105325 L1954.68876,65.5905325 C1954.68876,59.8343195 1959.38462,55.1384615 1965.14083,55.1384615 L2016.94675,55.1384615 C2022.70296,55.1384615 2027.39882,59.8343195 2027.39882,65.5905325 L2027.39882,308.108876 C2027.39882,313.865089 2028.76213,323.105325 2030.27692,328.55858 C2030.27692,328.55858 2035.27574,345.978698 2055.57396,345.978698 L2075.72071,345.978698 C2081.47692,345.978698 2086.17278,350.674556 2086.17278,356.430769 L2086.17278,399.753846 C2086.17278,405.510059 2081.47692,410.205917 2075.72071,410.205917 L2040.88047,410.205917 L2040.88047,410.054438 Z" id="Shape" fill="#00609C"></path>
            <path d="M315.985799,155.872189 C301.898225,126.182249 272.814201,104.066272 228.582249,104.066272 C184.350296,104.066272 155.417751,126.182249 141.330178,155.872189 C133.301775,174.049704 130.272189,187.531361 129.211834,209.495858 L327.952663,209.495858 C326.892308,187.531361 323.862722,174.201183 315.985799,155.872189 L315.985799,155.872189 Z M142.542012,294.778698 C142.542012,294.778698 129.514793,293.566864 129.514793,304.170414 C129.514793,363.701775 173.898225,406.115976 243.578698,406.115976 C295.384615,406.115976 317.349112,393.846154 348.705325,370.215385 C355.976331,364.76213 363.853254,359.763314 369.760947,366.125444 C373.850888,370.518343 428.83787,421.263905 428.83787,421.263905 C435.654438,427.777515 433.836686,435.351479 426.414201,441.56213 C418.991716,447.772781 336.889941,511.545562 242.669822,511.545562 C119.214201,511.545562 0.75739645,457.921893 0.75739645,255.545562 C0.75739645,92.7053254 93.1597633,0.60591716 228.582249,0.60591716 C374.153846,0.60591716 456.407101,102.248521 456.407101,239.337278 L456.407101,273.874556 C456.407101,287.96213 444.894675,294.778698 435.502959,294.778698 L142.542012,294.778698 L142.542012,294.778698 Z" id="Shape" fill="#00609C"></path>
        </g>
    </g>
</svg>