<?xml version="1.0" encoding="UTF-8" standalone="no"?>
<svg
   xmlns:dc="http://purl.org/dc/elements/1.1/"
   xmlns:cc="http://creativecommons.org/ns#"
   xmlns:rdf="http://www.w3.org/1999/02/22-rdf-syntax-ns#"
   xmlns:svg="http://www.w3.org/2000/svg"
   xmlns="http://www.w3.org/2000/svg"
   viewBox="0 0 709.88 258.07999"
   height="258.07999"
   width="709.88"
   xml:space="preserve"
   id="svg2"
   version="1.1"><metadata
     id="metadata8"><rdf:RDF><cc:Work
         rdf:about=""><dc:format>image/svg+xml</dc:format><dc:type
           rdf:resource="http://purl.org/dc/dcmitype/StillImage" /></cc:Work></rdf:RDF></metadata><defs
     id="defs6"><clipPath
       id="clipPath20"
       clipPathUnits="userSpaceOnUse"><path
         id="path18"
         d="M 0,0 H 5324 V 1935.62 H 0 Z" /></clipPath></defs><g
     transform="matrix(1.3333333,0,0,-1.3333333,0,258.08)"
     id="g10"><g
       transform="scale(0.1)"
       id="g12"><g
         id="g14"><g
           clip-path="url(#clipPath20)"
           id="g16"><path
             id="path22"
             style="fill:#176fc1;fill-opacity:1;fill-rule:nonzero;stroke:none"
             d="m 127.016,1114.12 v 694.47 c 0,80.29 54.121,127.47 158.105,127.02 v 0 l 116.289,-0.33 v -63.96 l -22.805,0.11 v 0 c -101.753,0.45 -122.55,-24.14 -122.55,-127.35 V 1124.4 c 0,-84.42 -58.364,-148.263 -137.309,-156.427 v 0 c 78.945,-8.27 137.309,-72.121 137.309,-156.543 V 191.648 c 0,-103.0894 18.785,-127.5777 122.55,-127.2496 v 0 l 22.805,0.1211 V 0.789062 L 285.121,0.339844 v 0 C 181.137,-0.230469 127.016,46.9609 127.016,127.469 v 694.14 c 0,65.969 -29.2933,111.262 -79.1605,133.844 v 0 C 31.3047,963.84 16.7734,965.848 0,967.973 v 0 c 74.918,4.031 127.016,61.727 127.016,146.147" /><path
             id="path24"
             style="fill:#176fc1;fill-opacity:1;fill-rule:nonzero;stroke:none"
             d="M 5197.13,821.391 V 127.129 C 5197.13,46.7383 5143.01,-0.441406 5039.03,0 V 0 L 4922.96,0.441406 V 64.2891 l 22.59,-0.1094 v 0 c 101.97,-0.3399 122.78,24.2617 122.78,127.2503 v 619.89 c 0,84.309 58.13,148.157 137.3,156.43 v 0 c -79.17,8.273 -137.3,72.13 -137.3,156.54 v 619.79 c 0,102.98 -18.79,127.69 -122.78,127.13 v 0 l -22.59,-0.11 v 63.85 l 116.07,0.55 v 0 c 103.98,0.34 158.1,-46.85 158.1,-127.12 v -694.26 c 0,-65.98 29.3,-111.37 79.16,-134.069 v 0 c 16.78,-8.274 31.09,-10.285 47.86,-12.301 v 0 c -74.92,-4.137 -127.02,-61.941 -127.02,-146.359" /><path
             id="path26"
             style="fill:#176fc1;fill-opacity:1;fill-rule:nonzero;stroke:none"
             d="m 695.934,965.898 c -61.946,0 -111.594,22.93 -148.266,67.762 v 0 c -33.102,41.71 -49.645,92.14 -49.645,152.52 v 0 c 0,25.27 3.348,50.42 9.832,74.58 v 0 c 7.833,24.15 17.672,46.17 32.207,65.74 v 0 c -13.417,19.79 -24.374,41.82 -30.859,66.98 v 0 c -7.832,24.26 -11.18,49.53 -11.18,74.58 v 0 c 0,59.26 16.543,109.69 49.645,151.51 v 0 c 36.672,45.95 86.32,68.87 148.266,68.77 v 0 l 415.726,-0.57 v -153.18 l -389.117,0.22 v 0 c -17.891,0 -31.082,-6.49 -42.039,-19.57 v 0 c -9.844,-13.19 -14.543,-28.62 -14.543,-46.06 v 0 c 0,-17.67 4.699,-32.88 14.543,-44.95 v 0 c 9.84,-13.19 24.148,-18.68 42.039,-18.68 H 1111.66 V 1248.9 l -411.254,-0.11 v 0 c -11.183,-5.48 -19.902,-13.31 -25.5,-25.27 v 0 c -6.484,-10.84 -8.945,-23.14 -8.945,-37.34 v 0 c 0,-17.56 4.699,-32.77 14.543,-44.84 v 0 c 9.84,-12.08 24.148,-18.67 42.039,-18.67 v 0 l 389.117,0.44 V 966.465 l -415.726,-0.567" /><path
             id="path28"
             style="fill:#176fc1;fill-opacity:1;fill-rule:nonzero;stroke:none"
             d="m 1442.85,1248.9 c -39.58,0 -68.21,-12.97 -84.53,-40.36 v 0 c -12.3,-17.56 -17.89,-40.36 -17.89,-67.76 v 0 c 0,-7.6 0,-13.2 0,-15.32 v 0 c 1.34,-3.35 1.34,-6.49 2.24,-8.84 V 962.539 l -159.45,-0.215 v 0 c 0,13.192 0,29.512 0,50.426 v 0 c 0,20.69 0,47.97 0,81.96 v 0 c 0,33.88 0,69.88 0,108.35 v 0 c 0,56.8 14.31,103.87 44.05,139.88 v 0 c 33.1,41.7 82.3,62.39 146.48,62.39 h 197.47 v 0 c 18.56,0 32.87,6.6 42.71,19.57 v 0 c 9.83,11.96 14.31,26.16 14.31,43.83 v 0 c 0,17.33 -4.48,32.65 -14.31,44.61 v 0 c -9.84,14.2 -24.15,20.8 -42.71,20.8 v 0 l -388,0.45 v 153.07 l 415.5,-0.55 v 0 c 61.28,-0.12 109.58,-23.04 145.58,-67.99 v 0 c 33.1,-41.37 49.43,-91.69 49.43,-151.73 v 0 c 0,-58.93 -16.33,-109.02 -48.31,-150.62 v 0 c -36.23,-44.72 -85.42,-67.75 -146.7,-67.75 v 0 l -155.87,-0.12" /><path
             id="path30"
             style="fill:#176fc1;fill-opacity:1;fill-rule:nonzero;stroke:none"
             d="m 1857.24,963.223 v 723.547 l 160.78,-0.34 V 963.555 l -160.78,-0.332" /><path
             id="path32"
             style="fill:#176fc1;fill-opacity:1;fill-rule:nonzero;stroke:none"
             d="M 2382.54,1533.36 V 964.109 l -158.33,-0.222 v 569.703 l -162.58,0.1 v 152.63 l 484.16,-0.56 v -152.51 l -163.25,0.11" /><path
             id="path34"
             style="fill:#176fc1;fill-opacity:1;fill-rule:nonzero;stroke:none"
             d="m 2790.22,969.031 c -60.61,-0.105 -109.36,22.696 -145.36,67.199 v 0 c -32.66,41.26 -48.98,91.35 -48.98,151.07 v 0 c 0,25.15 3.35,50.09 9.84,74.01 v 0 c 7.61,23.93 17.44,45.74 31.53,65.3 v 0 c -13.19,19.68 -23.92,41.37 -30.63,66.2 v 0 c -7.39,24.15 -10.74,49.08 -10.74,74.13 v 0 c 0,58.7 16.32,108.8 48.98,150.17 v 0 c 36,45.51 84.75,68.32 145.36,68.32 v 0 l 409.01,-0.67 V 1532.8 l -382.62,0.22 v 0 c -17.44,0.12 -30.2,-6.37 -41.38,-19.34 v 0 c -9.83,-13.2 -14.31,-28.29 -14.31,-45.73 v 0 c 0,-17.34 4.48,-32.54 14.31,-44.61 v 0 c 9.62,-12.98 23.94,-18.34 41.38,-18.34 v 0 l 382.62,-0.12 v -155.42 h -404.54 v 0 c -10.74,-5.48 -19.46,-12.97 -24.82,-25.05 v 0 c -6.49,-10.95 -8.95,-22.69 -8.95,-36.89 v 0 c 0,-17.34 4.48,-32.76 14.31,-44.51 v 0 c 9.62,-12.07 23.94,-18.67 41.38,-18.56 v 0 l 382.62,0.34 v -155.2 l -409.01,-0.559" /><path
             id="path36"
             style="fill:#176fc1;fill-opacity:1;fill-rule:nonzero;stroke:none"
             d="m 3518.13,965.781 c -84.09,-0.215 -150.28,36.679 -198.81,110.149 v 0 c -44.28,66.3 -65.75,146.47 -65.75,243.08 v 0 c 0,98.73 21.47,182.37 66.86,251.69 v 0 c 48.75,75.82 114.73,113.72 197.7,113.61 v 0 l 349.31,-0.56 v -151.51 l -323.37,0.33 v 0 c -38.92,0 -69.1,-20.68 -90.79,-61.83 v 0 c -20.36,-37.9 -30.2,-83.41 -30.2,-138.65 v 0 c 0,-56.35 9.84,-104.1 30.2,-144.35 v 0 c 22.8,-44.28 52.99,-65.97 90.79,-65.97 v 0 l 323.37,0.34 V 966.23 l -349.31,-0.449" /><path
             id="path38"
             style="fill:#176fc1;fill-opacity:1;fill-rule:nonzero;stroke:none"
             d="M 4374.62,967.012 V 1250.02 H 4090.17 V 966.57 l -158.1,-0.105 v 717.175 l 158.1,-0.23 v -278.86 l 284.45,-0.23 v 278.64 l 157.66,-0.11 V 967.246 l -157.66,-0.234" /><path
             id="path40"
             style="fill:#176fc1;fill-opacity:1;fill-rule:nonzero;stroke:none"
             d="m 4737.35,1153.41 c 51.43,0 90.79,-37.01 90.79,-86.65 v 0 c 0,-52.11 -39.36,-96.838 -88.33,-96.838 v 0 c -46.74,-0.11 -83.87,44.508 -83.87,94.148 v 0 c 0,49.65 34.45,89.34 81.41,89.34" /><path
             id="path42"
             style="fill:#176fc1;fill-opacity:1;fill-rule:nonzero;stroke:none"
             d="m 694.125,675.461 v 54.828 h 31.336 v -29.367 l -31.336,-25.461" /><path
             id="path44"
             style="fill:#176fc1;fill-opacity:1;fill-rule:nonzero;stroke:none"
             d="m 2232.13,673.77 v 54.832 h 31.33 V 699.23 l -31.33,-25.46" /><path
             id="path46"
             style="fill:#176fc1;fill-opacity:1;fill-rule:nonzero;stroke:none"
             d="m 579.684,529.43 v 199.172 h 30.218 V 556.559 h 95.957 V 529.43 H 579.684" /><path
             id="path48"
             style="fill:#176fc1;fill-opacity:1;fill-rule:nonzero;stroke:none"
             d="m 773.328,529.43 v 199.172 h 127.285 v -27.133 h -97.074 v -58.188 h 82.816 v -26.859 h -82.816 v -59.863 h 97.074 V 529.43 H 773.328" /><path
             id="path50"
             style="fill:#176fc1;fill-opacity:1;fill-rule:nonzero;stroke:none"
             d="m 1006.46,527.738 c -20.706,0 -38.612,7.563 -52.312,21.274 -19.593,19.57 -19.308,41.687 -19.308,80 0,38.347 -0.285,60.437 19.308,80.027 13.7,13.68 31.606,21.25 52.312,21.25 36.64,0 64.07,-21.551 71.06,-61.277 h -30.78 c -4.76,20.16 -18.19,34.148 -40.28,34.148 -11.753,0 -22.378,-4.48 -29.374,-12.031 -9.797,-10.641 -12.035,-22.117 -12.035,-62.117 0,-40 2.238,-51.481 12.035,-62.09 6.996,-7.57 17.621,-12.031 29.374,-12.031 22.09,0 35.81,13.98 40.56,34.121 h 30.5 c -6.72,-39.723 -34.98,-61.274 -71.06,-61.274" /><path
             id="path52"
             style="fill:#176fc1;fill-opacity:1;fill-rule:nonzero;stroke:none"
             d="m 1211.88,690.832 c -6.99,7.559 -17.91,12.328 -29.65,12.328 -11.75,0 -22.66,-4.769 -29.65,-12.328 -9.8,-10.613 -11.76,-21.82 -11.76,-61.82 0,-40 1.96,-51.172 11.76,-61.821 6.99,-7.57 17.9,-12.3 29.65,-12.3 11.74,0 22.66,4.73 29.65,12.3 9.79,10.649 11.76,21.821 11.76,61.821 0,40 -1.97,51.207 -11.76,61.82 z m 22.94,-141.82 c -13.7,-13.711 -31.33,-21.274 -52.59,-21.274 -21.26,0 -38.61,7.563 -52.32,21.274 -19.58,19.57 -19.29,41.687 -19.29,80 0,38.347 -0.29,60.437 19.29,80.027 13.71,13.68 31.06,21.25 52.32,21.25 21.26,0 38.89,-7.57 52.59,-21.25 19.58,-19.59 19.03,-41.68 19.03,-80.027 0,-38.313 0.55,-60.43 -19.03,-80" /><path
             id="path54"
             style="fill:#176fc1;fill-opacity:1;fill-rule:nonzero;stroke:none"
             d="m 1298.7,529.43 v 199.172 h 30.22 V 556.559 h 95.95 V 529.43 H 1298.7" /><path
             id="path56"
             style="fill:#176fc1;fill-opacity:1;fill-rule:nonzero;stroke:none"
             d="m 1459.36,529.43 v 199.172 h 127.29 v -27.133 h -97.07 v -58.188 h 82.81 v -26.859 h -82.81 v -59.863 h 97.07 V 529.43 h -127.29" /><path
             id="path58"
             style="fill:#176fc1;fill-opacity:1;fill-rule:nonzero;stroke:none"
             d="m 1796.04,688.031 c -8.4,9.25 -19.59,13.438 -33.85,13.438 h -36.65 v -144.91 h 36.65 c 14.26,0 25.45,4.191 33.85,13.429 10.35,11.461 10.63,33 10.63,60.434 0,27.418 -0.28,46.156 -10.63,57.609 z m 20.69,-139.859 c -12.58,-12.602 -30.76,-18.742 -51.47,-18.742 h -69.94 v 199.172 h 69.94 c 20.71,0 38.89,-6.141 51.47,-18.75 21.55,-21.52 20.15,-50.622 20.15,-79.43 0,-28.813 1.4,-60.703 -20.15,-82.25" /><path
             id="path60"
             style="fill:#176fc1;fill-opacity:1;fill-rule:nonzero;stroke:none"
             d="m 1881.73,529.43 v 199.172 h 127.29 v -27.133 h -97.08 v -58.188 h 82.82 v -26.859 h -82.82 v -59.863 h 97.08 V 529.43 h -127.29" /><path
             id="path62"
             style="fill:#176fc1;fill-opacity:1;fill-rule:nonzero;stroke:none"
             d="m 2117.69,529.43 v 199.172 h 30.22 V 556.559 h 95.95 V 529.43 h -126.17" /><path
             id="path64"
             style="fill:#176fc1;fill-opacity:1;fill-rule:nonzero;stroke:none"
             d="m 2311.33,529.43 h 30.2188 V 728.602 H 2311.33 Z" /><path
             id="path66"
             style="fill:#176fc1;fill-opacity:1;fill-rule:nonzero;stroke:none"
             d="m 2515.88,529.43 -92.04,140.152 V 529.43 h -30.22 v 199.172 h 27.7 l 92.04,-139.864 v 139.864 h 30.21 V 529.43 h -27.69" /><path
             id="path68"
             style="fill:#176fc1;fill-opacity:1;fill-rule:nonzero;stroke:none"
             d="m 2717.97,529.43 -92.04,140.152 V 529.43 h -30.21 v 199.172 h 27.7 l 92.03,-139.864 v 139.864 h 30.22 V 529.43 h -27.7" /><path
             id="path70"
             style="fill:#176fc1;fill-opacity:1;fill-rule:nonzero;stroke:none"
             d="m 2891.8,690.832 c -6.99,7.559 -17.89,12.328 -29.64,12.328 -11.74,0 -22.66,-4.769 -29.66,-12.328 -9.79,-10.613 -11.75,-21.82 -11.75,-61.82 0,-40 1.96,-51.172 11.75,-61.821 7,-7.57 17.92,-12.3 29.66,-12.3 11.75,0 22.65,4.73 29.64,12.3 9.81,10.649 11.77,21.821 11.77,61.821 0,40 -1.96,51.207 -11.77,61.82 z m 22.95,-141.82 c -13.7,-13.711 -31.33,-21.274 -52.59,-21.274 -21.26,0 -38.6,7.563 -52.32,21.274 -19.58,19.57 -19.29,41.687 -19.29,80 0,38.347 -0.29,60.437 19.29,80.027 13.72,13.68 31.06,21.25 52.32,21.25 21.26,0 38.89,-7.57 52.59,-21.25 19.58,-19.59 19.03,-41.68 19.03,-80.027 0,-38.313 0.55,-60.43 -19.03,-80" /><path
             id="path72"
             style="fill:#176fc1;fill-opacity:1;fill-rule:nonzero;stroke:none"
             d="m 3040.18,529.43 h -23.51 l -65.45,199.172 h 31.32 l 45.88,-144.891 45.88,144.891 h 31.9 L 3040.18,529.43" /><path
             id="path74"
             style="fill:#176fc1;fill-opacity:1;fill-rule:nonzero;stroke:none"
             d="m 3185.96,683.57 -31.04,-88.41 h 61.27 z m 52.32,-154.14 -13.7,40 h -78.62 l -13.71,-40 h -32.17 l 73.01,199.172 h 24.35 l 73.01,-199.172 h -32.17" /><path
             id="path76"
             style="fill:#176fc1;fill-opacity:1;fill-rule:nonzero;stroke:none"
             d="M 3349.42,701.469 V 529.43 h -30.22 v 172.039 h -54.83 v 27.133 h 139.87 v -27.133 h -54.82" /><path
             id="path78"
             style="fill:#176fc1;fill-opacity:1;fill-rule:nonzero;stroke:none"
             d="m 3438.75,529.43 h 30.2109 V 728.602 H 3438.75 Z" /><path
             id="path80"
             style="fill:#176fc1;fill-opacity:1;fill-rule:nonzero;stroke:none"
             d="m 3615.03,690.832 c -7,7.559 -17.91,12.328 -29.65,12.328 -11.75,0 -22.66,-4.769 -29.65,-12.328 -9.8,-10.613 -11.75,-21.82 -11.75,-61.82 0,-40 1.95,-51.172 11.75,-61.821 6.99,-7.57 17.9,-12.3 29.65,-12.3 11.74,0 22.65,4.73 29.65,12.3 9.8,10.649 11.75,21.821 11.75,61.821 0,40 -1.95,51.207 -11.75,61.82 z m 22.94,-141.82 c -13.71,-13.711 -31.33,-21.274 -52.59,-21.274 -21.25,0 -38.61,7.563 -52.31,21.274 -19.59,19.57 -19.31,41.687 -19.31,80 0,38.347 -0.28,60.437 19.31,80.027 13.7,13.68 31.06,21.25 52.31,21.25 21.26,0 38.88,-7.57 52.59,-21.25 19.59,-19.59 19.04,-41.68 19.04,-80.027 0,-38.313 0.55,-60.43 -19.04,-80" /><path
             id="path82"
             style="fill:#176fc1;fill-opacity:1;fill-rule:nonzero;stroke:none"
             d="m 3824.11,529.43 -92.04,140.152 V 529.43 h -30.22 v 199.172 h 27.71 l 92.03,-139.864 v 139.864 h 30.22 V 529.43 h -27.7" /><path
             id="path84"
             style="fill:#176fc1;fill-opacity:1;fill-rule:nonzero;stroke:none"
             d="m 3971.11,529.43 v 199.172 h 127.29 v -27.133 h -97.07 v -58.188 h 82.82 v -26.859 h -82.82 v -59.863 h 97.07 V 529.43 h -127.29" /><path
             id="path86"
             style="fill:#176fc1;fill-opacity:1;fill-rule:nonzero;stroke:none"
             d="M 4207.32,701.469 V 529.43 h -30.22 v 172.039 h -54.83 v 27.133 h 139.87 v -27.133 h -54.82" /><path
             id="path88"
             style="fill:#176fc1;fill-opacity:1;fill-rule:nonzero;stroke:none"
             d="m 4464.54,688.031 c -8.39,9.25 -19.59,13.438 -33.85,13.438 h -36.65 v -144.91 h 36.65 c 14.26,0 25.46,4.191 33.85,13.429 10.36,11.461 10.62,33 10.62,60.434 0,27.418 -0.26,46.156 -10.62,57.609 z m 20.7,-139.859 c -12.6,-12.602 -30.76,-18.742 -51.47,-18.742 h -69.95 v 199.172 h 69.95 c 20.71,0 38.87,-6.141 51.47,-18.75 21.54,-21.52 20.15,-50.622 20.15,-79.43 0,-28.813 1.39,-60.703 -20.15,-82.25" /><path
             id="path90"
             style="fill:#176fc1;fill-opacity:1;fill-rule:nonzero;stroke:none"
             d="m 4550.23,529.43 v 199.172 h 127.29 v -27.133 h -97.07 v -58.188 h 82.82 v -26.859 h -82.82 v -59.863 h 97.07 V 529.43 h -127.29" /><path
             id="path92"
             style="fill:#176fc1;fill-opacity:1;fill-rule:nonzero;stroke:none"
             d="m 582.961,184.93 v 225.441 h 34.195 V 215.641 H 725.754 V 184.93 H 582.961" /><path
             id="path94"
             style="fill:#176fc1;fill-opacity:1;fill-rule:nonzero;stroke:none"
             d="m 712.367,348.289 v 62.082 h 35.469 v -33.262 l -35.469,-28.82" /><path
             id="path96"
             style="fill:#176fc1;fill-opacity:1;fill-rule:nonzero;stroke:none"
             d="m 801.934,184.93 v 225.441 h 144.062 v -30.73 H 836.133 v -65.86 H 929.84 V 283.41 H 836.133 V 215.641 H 945.996 V 184.93 H 801.934" /><path
             id="path98"
             style="fill:#176fc1;fill-opacity:1;fill-rule:nonzero;stroke:none"
             d="m 1103.6,184.93 -49.07,86.429 -48.76,-86.429 h -39.25 l 69.65,115.55 -65.225,109.891 h 39.255 l 44.33,-80.762 44.65,80.762 h 39.25 l -65.22,-109.891 69.97,-115.55 h -39.58" /><path
             id="path100"
             style="fill:#176fc1;fill-opacity:1;fill-rule:nonzero;stroke:none"
             d="m 1259.31,379.641 h -49.39 v -75.039 h 49.39 c 23.75,0 39.89,13.636 39.89,37.378 0,23.731 -16.14,37.661 -39.89,37.661 z m 1.9,-106.059 h -51.29 V 184.93 h -34.2 v 225.441 h 85.49 c 44,0 72.18,-29.152 72.18,-68.391 0,-39.269 -28.18,-68.398 -72.18,-68.398" /><path
             id="path102"
             style="fill:#176fc1;fill-opacity:1;fill-rule:nonzero;stroke:none"
             d="m 1374.81,184.93 v 225.441 h 144.06 v -30.73 H 1409 v -65.86 h 93.72 V 283.41 H 1409 v -67.769 h 109.87 V 184.93 h -144.06" /><path
             id="path104"
             style="fill:#176fc1;fill-opacity:1;fill-rule:nonzero;stroke:none"
             d="m 1650.52,379.641 h -50.66 v -70.59 h 50.66 c 22.8,0 38.3,12.988 38.3,35.129 0,22.172 -15.5,35.461 -38.3,35.461 z m 39.57,-194.711 -47.48,94.98 h -42.75 v -94.98 h -34.19 v 225.441 h 87.38 c 42.75,0 69.97,-27.551 69.97,-65.883 0,-32.277 -19.62,-52.859 -44.96,-59.828 l 51.93,-99.73 h -39.9" /><path
             id="path106"
             style="fill:#176fc1;fill-opacity:1;fill-rule:nonzero;stroke:none"
             d="M 1849.28,379.641 V 184.93 h -34.2 v 194.711 h -62.05 v 30.73 h 158.3 v -30.73 h -62.05" /><path
             id="path108"
             style="fill:#176fc1;fill-opacity:1;fill-rule:nonzero;stroke:none"
             d="m 1950.22,184.93 h 34.1914 V 410.371 H 1950.22 Z" /><path
             id="path110"
             style="fill:#176fc1;fill-opacity:1;fill-rule:nonzero;stroke:none"
             d="m 2103.11,183.02 c -33.88,0 -58.27,7.929 -79.78,29.781 l 22.79,22.488 c 16.46,-16.469 34.5,-21.551 57.62,-21.551 29.43,0 46.54,12.653 46.54,34.524 0,9.797 -2.85,18.039 -8.87,23.41 -5.69,5.398 -11.39,7.609 -24.7,9.519 l -26.59,3.789 c -18.36,2.52 -32.92,8.86 -42.73,18.051 -11.09,10.43 -16.48,24.68 -16.48,43.059 0,39.25 28.51,66.172 75.36,66.172 29.76,0 50.66,-7.602 69.98,-25.641 l -21.86,-21.551 c -13.92,13.309 -30.07,17.43 -49.07,17.43 -26.58,0 -41.16,-15.211 -41.16,-35.148 0,-8.231 2.54,-15.524 8.55,-20.903 5.7,-5.058 14.88,-8.859 25.34,-10.429 l 25.64,-3.809 c 20.89,-3.16 32.6,-8.25 42.1,-16.789 12.35,-10.762 18.36,-26.902 18.36,-46.223 0,-41.469 -33.87,-66.179 -81.04,-66.179" /><path
             id="path112"
             style="fill:#176fc1;fill-opacity:1;fill-rule:nonzero;stroke:none"
             d="m 2230,184.93 v 225.441 h 144.06 v -30.73 h -109.87 v -65.86 h 93.72 V 283.41 h -93.72 v -67.769 h 109.87 V 184.93 H 2230" /><path
             id="path114"
             style="fill:#176fc1;fill-opacity:1;fill-rule:nonzero;stroke:none"
             d="m 2496.82,184.93 h 34.1914 V 410.371 H 2496.82 Z" /><path
             id="path116"
             style="fill:#176fc1;fill-opacity:1;fill-rule:nonzero;stroke:none"
             d="M 2728.22,184.93 2624.06,343.551 V 184.93 h -34.2 v 225.441 h 31.35 l 104.17,-158.312 v 158.312 h 34.18 V 184.93 h -31.34" /><path
             id="path118"
             style="fill:#176fc1;fill-opacity:1;fill-rule:nonzero;stroke:none"
             d="m 2852.57,379.641 v -68.692 h 93.71 V 280.23 h -93.71 v -95.3 h -34.21 v 225.441 h 144.07 v -30.73 h -109.86" /><path
             id="path120"
             style="fill:#176fc1;fill-opacity:1;fill-rule:nonzero;stroke:none"
             d="m 3103.57,367.609 c -7.93,8.551 -20.26,13.942 -33.57,13.942 -13.3,0 -25.63,-5.391 -33.57,-13.942 -11.06,-12.039 -13.27,-24.699 -13.27,-69.961 0,-45.289 2.21,-57.949 13.27,-69.968 7.94,-8.559 20.27,-13.942 33.57,-13.942 13.31,0 25.64,5.383 33.57,13.942 11.07,12.019 13.28,24.679 13.28,69.968 0,45.262 -2.21,57.922 -13.28,69.961 z m 25.95,-160.519 c -15.51,-15.512 -35.45,-24.07 -59.52,-24.07 -24.07,0 -43.7,8.558 -59.21,24.07 -22.16,22.16 -21.84,47.172 -21.84,90.558 0,43.372 -0.32,68.391 21.84,90.551 15.51,15.5 35.14,24.063 59.21,24.063 24.07,0 44.01,-8.563 59.52,-24.063 22.16,-22.16 21.53,-47.179 21.53,-90.551 0,-43.386 0.63,-68.398 -21.53,-90.558" /><path
             id="path122"
             style="fill:#176fc1;fill-opacity:1;fill-rule:nonzero;stroke:none"
             d="m 3286.49,379.641 h -50.66 v -70.59 h 50.66 c 22.8,0 38.31,12.988 38.31,35.129 0,22.172 -15.51,35.461 -38.31,35.461 z m 39.57,-194.711 -47.48,94.98 h -42.75 v -94.98 h -34.18 v 225.441 h 87.37 c 42.74,0 69.96,-27.551 69.96,-65.883 0,-32.277 -19.62,-52.859 -44.94,-59.828 l 51.92,-99.73 h -39.9" /><path
             id="path124"
             style="fill:#176fc1;fill-opacity:1;fill-rule:nonzero;stroke:none"
             d="m 3573.57,184.93 v 150.711 l -51.91,-109.86 h -25.34 l -53.18,109.86 V 184.93 h -34.19 v 225.441 h 34.19 l 65.85,-140.269 64.58,140.269 h 34.21 V 184.93 h -34.21" /><path
             id="path126"
             style="fill:#176fc1;fill-opacity:1;fill-rule:nonzero;stroke:none"
             d="M 3736.55,359.379 3701.4,259.352 h 69.35 z m 59.2,-174.449 -15.52,45.269 h -88.97 l -15.5,-45.269 h -36.43 l 82.65,225.441 h 27.55 l 82.63,-225.441 h -36.41" /><path
             id="path128"
             style="fill:#176fc1;fill-opacity:1;fill-rule:nonzero;stroke:none"
             d="M 3921.36,379.641 V 184.93 h -34.19 v 194.711 h -62.04 v 30.73 h 158.3 v -30.73 h -62.07" /><path
             id="path130"
             style="fill:#176fc1;fill-opacity:1;fill-rule:nonzero;stroke:none"
             d="m 4022.32,184.93 h 34.1992 V 410.371 H 4022.32 Z" /><path
             id="path132"
             style="fill:#176fc1;fill-opacity:1;fill-rule:nonzero;stroke:none"
             d="m 4221.74,367.609 c -7.91,8.551 -20.26,13.942 -33.56,13.942 -13.3,0 -25.65,-5.391 -33.56,-13.942 -11.09,-12.039 -13.3,-24.699 -13.3,-69.961 0,-45.289 2.21,-57.949 13.3,-69.968 7.91,-8.559 20.26,-13.942 33.56,-13.942 8.56,0 16.46,2.543 23.11,7.282 l -23.74,23.75 19,18.98 21.83,-21.82 c 5.71,11.398 6.66,26.59 6.66,55.718 0,45.262 -2.22,57.922 -13.3,69.961 z m 36.09,-192.8 -22.46,22.472 c -13,-9.191 -29.47,-14.261 -47.19,-14.261 -24.06,0 -43.7,8.558 -59.21,24.07 -22.16,22.16 -21.84,47.172 -21.84,90.558 0,43.372 -0.32,68.391 21.84,90.551 15.51,15.5 35.15,24.063 59.21,24.063 24.07,0 44,-8.563 59.51,-24.063 22.17,-22.16 21.53,-47.179 21.53,-90.551 0,-38.296 0.34,-61.75 -14.55,-82.007 l 22.16,-21.852 -19,-18.98" /><path
             id="path134"
             style="fill:#176fc1;fill-opacity:1;fill-rule:nonzero;stroke:none"
             d="m 4397.08,183.02 c -45.9,0 -80.74,31.359 -80.74,77.91 v 149.441 h 34.21 V 262.512 c 0,-30.09 18.35,-48.774 46.53,-48.774 28.19,0 46.85,18.684 46.85,48.774 v 147.859 h 34.19 V 260.93 c 0,-46.551 -35.14,-77.91 -81.04,-77.91" /><path
             id="path136"
             style="fill:#176fc1;fill-opacity:1;fill-rule:nonzero;stroke:none"
             d="m 4533.46,184.93 v 225.441 h 144.06 v -30.73 h -109.86 v -65.86 h 93.72 V 283.41 h -93.72 v -67.769 h 109.86 V 184.93 h -144.06" /></g></g></g></g></svg>