<?xml version="1.0" encoding="iso-8859-1"?><!-- Generator: Adobe Illustrator 16.0.0, SVG Export Plug-In . SVG Version: 6.00 Build 0) --><!DOCTYPE svg PUBLIC "-//W3C//DTD SVG 1.1//EN" "http://www.w3.org/Graphics/SVG/1.1/DTD/svg11.dtd"><svg version="1.1" id="Layer_1" xmlns="http://www.w3.org/2000/svg" xmlns:xlink="http://www.w3.org/1999/xlink" x="0px" y="0px" width="192.756px" height="192.756px" viewBox="0 0 192.756 192.756" style="enable-background:new 0 0 192.756 192.756;" xml:space="preserve"><g><polygon style="fill-rule:evenodd;clip-rule:evenodd;fill:#FFFFFF;" points="0,0 192.756,0 192.756,192.756 0,192.756 0,0	"/><path style="fill-rule:evenodd;clip-rule:evenodd;" d="M28.69,85.735c-0.672-1.649-2.474-2.229-4.123-2.26h-5.589v7.756h7.94v5.894	c-0.733-0.916-1.679-1.526-2.81-1.649l-5.13-0.03l0.031,7.33c0.153,0.916,0.672,1.832,1.558,2.32	c2.046,0.947,4.794,0.52,7.054,0.336c1.619-0.336,3.176-0.916,4.275-2.383l-1.863,7.086l-21.53,0.031	c1.191-1.07,2.321-2.26,2.413-3.848l0.031-23.057c0.061-1.527-1.161-2.504-2.016-3.665l-0.274-0.122H28.69V85.735L28.69,85.735z"/><path style="fill-rule:evenodd;clip-rule:evenodd;" d="M135.604,83.383v5.863c-2.35-1.863-5.312-3.268-8.396-2.199	c-4.062,1.771-4.918,6.26-4.672,10.413c0.305,3.359,1.984,7.178,5.588,8.215c1.1,0.275,2.229,0,3.207-0.396	c-0.215-2.688,0.58-5.832-0.795-8.062c-0.305-0.549-0.732-1.038-1.16-1.527l8.52,0.031v13.07	c-5.375,2.596-13.314,2.535-17.955-1.588c-4.307-3.543-6.23-8.734-4.947-14.2c1.006-4.917,5.861-9.314,10.656-10.414	c2.107-0.58,4.643-0.611,6.811-0.092L135.604,83.383L135.604,83.383z"/><path style="fill-rule:evenodd;clip-rule:evenodd;" d="M114.686,83.017c-0.52,1.069-1.344,2.016-1.496,3.237l-0.061,2.565	l0.029,22.476c-3.297-1.037-6.381-2.932-8.703-5.924l-8.703-11.422v12.918c0.091,1.312,0.58,2.656,1.863,3.299h-8.124	c1.618-1.559,1.68-3.727,1.588-5.986l-0.122-17.407c-0.184-1.497-1.1-2.779-2.352-3.665h8.429l11.574,14.841l0.029,0.031	l0.031-10.994c-0.152-1.466-0.641-2.779-1.619-3.878C109.586,83.078,112.15,83.047,114.686,83.017L114.686,83.017z"/><path style="fill-rule:evenodd;clip-rule:evenodd;" d="M154.812,88.453c-1.465-2.413-4.732-1.13-7.176-1.466l-0.031,6.657	l6.262,0.031v5.313c-1.375-2.047-4.002-1.312-6.199-1.465c-0.031,2.229-0.184,4.428-0.092,6.688	c0.092,0.764,0.672,1.527,1.404,1.801c3.023,0.947,6.352,0.092,8.643-1.924c-0.551,1.984-1.191,4.031-1.771,6.078h-16.979	c0.854-0.826,1.16-1.863,1.312-2.994l0.061-16.276c-0.184-2.137,0.428-4.581-0.764-6.291c-0.365-0.55-0.824-1.1-1.373-1.588h16.703	V88.453L154.812,88.453z"/><path style="fill-rule:evenodd;clip-rule:evenodd;" d="M169.227,83.047c2.84,0.305,5.834,2.168,6.842,5.008	c0.916,2.504,0.305,5.405-1.619,7.268c-0.824,0.763-1.711,1.374-2.627,1.924v0.092l6.506,10.443	c1.465,2.168,3.664,3.848,5.924,4.672c-2.535,1.008-6.139,0.826-8.764,0.062c-2.779-0.826-4.795-3.787-6.078-6.199	c-1.436-2.443-2.932-4.857-4.336-7.33l0.031,8.275c0.182,1.16,0.824,2.291,1.924,2.902h-10.262	c0.885-0.855,1.131-1.955,1.283-3.086l0.092-19.91c-0.123-1.619-0.764-3.023-1.924-4.153L169.227,83.047L169.227,83.047z"/><path style="fill-rule:evenodd;clip-rule:evenodd;" d="M69.733,83.811c5.13,1.893,8.154,7.237,8.154,12.55	c0,5.406-2.688,11.055-8.062,12.918c-1.741,0.643-3.634,0.887-5.619,0.887h-8.978l0.03,0.061c1.069,1.037,2.168,1.924,3.39,2.564	c-1.771,0.551-3.848,0.52-5.863,0.459c-3.39-0.275-6.474-2.566-8.185-5.588l-5.1-8.918l-0.03-0.031l0.03,7.879	c0.092,1.344,0.886,2.443,1.649,3.543l-10.139,0.031c0.733-1.131,1.283-2.291,1.405-3.666l0.061-17.345	c0.031-2.229,0.245-4.886-1.893-5.955l14.17,0.031c2.198,0.031,4.153,1.344,5.313,3.298c1.19,1.924,1.527,5.039,0.305,7.054	c-0.855,1.496-2.413,2.626-3.817,3.39l7.695,11.818v-21.59c-0.183-1.588-0.672-3.176-2.168-4.092c4.825,0.031,9.62-0.092,14.415,0	C67.626,83.169,68.695,83.444,69.733,83.811L69.733,83.811z"/><path style="fill-rule:evenodd;clip-rule:evenodd;" d="M87.598,83.108c-0.824,1.161-1.221,2.474-1.344,3.939l-0.03,19.544	c0.153,1.344,0.672,2.566,1.527,3.574H77.276c1.252-1.375,1.527-3.146,1.558-5.01l-0.031-19.177	c-0.183-1.13-0.58-2.229-1.649-2.871H87.598L87.598,83.108z"/><path style="fill-rule:evenodd;clip-rule:evenodd;fill:#FFFFFF;" d="M44.051,90.01c0.519,1.679,0.091,3.481-1.1,4.733	c-0.977,0.916-2.168,1.313-3.512,1.374v-9.222C41.394,86.957,43.379,88.117,44.051,90.01L44.051,90.01z"/><path style="fill-rule:evenodd;clip-rule:evenodd;fill:#FFFFFF;" d="M68.42,89.796c1.894,3.237,1.985,8.153,0.672,11.727	c-0.642,1.924-2.596,3.879-4.673,4.061c-1.007,0.123-2.076,0.031-2.993-0.213V87.567C63.961,86.467,66.985,87.384,68.42,89.796	L68.42,89.796z"/><path style="fill-rule:evenodd;clip-rule:evenodd;fill:#FFFFFF;" d="M169.074,88.544c1.191,1.771,0.795,4.489-0.184,6.229	c-0.457,0.764-1.252,1.435-2.137,1.587c-0.611,0.092-1.191-0.061-1.74-0.213v-8.795C166.479,86.987,168.25,87.109,169.074,88.544	L169.074,88.544z"/></g></svg>