<?xml version="1.0" encoding="UTF-8" standalone="no"?>
<svg
   xmlns:dc="http://purl.org/dc/elements/1.1/"
   xmlns:cc="http://creativecommons.org/ns#"
   xmlns:rdf="http://www.w3.org/1999/02/22-rdf-syntax-ns#"
   xmlns:svg="http://www.w3.org/2000/svg"
   xmlns="http://www.w3.org/2000/svg"
   xml:space="preserve"
   viewBox="0 0 800 288.838"
   height="73"
   width="170"
   version="1.0"><defs
     id="defs120" /><path
     logo=""
     id="path7"
     transform="matrix(4.7058822,0,0,4.7058826,0,-27.345708)"
     d="m 29.314453,5.8105469 c -0.3927,0 -0.915894,0.066406 -1.308594,0.066406 -1.177675,6.6089619 0.19711,13.4794249 4.123047,19.1718749 0.327038,-0.392275 0.523356,-0.719094 0.785156,-0.980469 -3.5989,-5.431287 -4.777921,-12.106787 -3.599609,-18.2578121 z m 1.177735,0 c -1.308576,5.8890121 -0.13011,12.1722691 3.33789,17.4726561 0.2618,-0.327037 0.587809,-0.589019 0.84961,-0.785156 C 31.473487,17.45946 30.492247,11.372522 31.669922,5.8105469 l -0.785156,0 -0.392578,0 z m 2.355468,0 c -1.177675,5.3658371 -0.326509,11.1897971 2.814453,15.9667971 0.327038,-0.196563 0.589722,-0.391753 0.982422,-0.587891 -2.944825,-4.580437 -3.796815,-10.077988 -2.61914,-15.3124999 -0.392275,0 -0.785035,-7.437e-4 -1.177735,-0.066406 z m -6.019531,0.1972656 c -0.392275,0.065238 -0.78425,0.064413 -1.242187,0.1953125 -1.112438,7.132562 0.653978,14.723444 5.103515,20.808594 0.2618,-0.327038 0.457694,-0.718628 0.785156,-1.111328 -4.2534,-5.889013 -5.693472,-13.021816 -4.646484,-19.8925785 z m 8.376953,0.064453 c -1.1781,4.9074744 -0.393406,10.2086654 2.550781,14.6582034 0.2618,-0.196138 0.654175,-0.392538 1.046875,-0.523438 -2.748262,-4.1225 -3.597597,-9.226587 -2.419922,-13.9374998 -0.3927,-0.065662 -0.785459,-0.1972656 -1.177734,-0.1972656 z M 24.40625,6.4648438 c -0.392275,0 -0.785034,0.1320281 -1.177734,0.1972656 -0.981538,7.9831996 1.048053,16.0956906 6.283203,22.7050786 0.196137,-0.3927 0.391753,-0.915894 0.58789,-1.308594 -4.842237,-6.2815 -6.674472,-14.134151 -5.693359,-21.5937502 z m 13.023438,0 c -1.046776,4.5147752 -0.263144,9.4236312 2.550781,13.4804682 0.3927,-0.196137 0.915893,-0.197225 1.308593,-0.328124 -2.879375,-3.7298 -3.728415,-8.505582 -2.68164,-12.8242192 -0.392275,-0.1309 -0.785034,-0.1972251 -1.177734,-0.328125 z M 22.052734,7.0546875 c -0.5236,0.1309 -0.915893,0.1960156 -1.308593,0.3925781 -0.7854,8.6372744 1.896674,17.4714194 7.851562,24.4726564 0.196138,-0.392275 0.3273,-0.91511 0.523438,-1.373047 C 23.491715,23.872038 21.136859,15.29905 22.052734,7.0546875 Z m 17.666016,0 c -0.981538,4.2533995 4.87e-4,8.8339505 2.945312,12.3671875 0.457726,0 0.98105,-0.06641 1.570313,-0.06641 C 40.962725,16.083606 39.914734,11.569978 40.896484,7.4472656 40.504209,7.3816031 40.11145,7.1855875 39.71875,7.0546875 Z M 19.564453,7.8398438 c -0.3927,0.1965624 -0.916319,0.3913281 -1.308594,0.5878906 -0.458362,9.4222496 2.814172,19.0411846 9.88086,26.4355466 0,-0.196137 7.43e-4,-0.391753 0.06641,-0.58789 0,-0.327463 0.130859,-0.720622 0.130859,-0.982422 -6.47785,-7.1978 -9.489268,-16.422938 -8.769531,-25.4531252 z m 22.378906,0 c -0.850637,3.7302252 0.196225,7.9829092 3.140625,10.9277342 0.327463,0.196138 0.523357,0.45816 0.785157,0.654297 1.177675,0.1309 2.356843,0.391713 3.535156,0.71875 C 48.160747,19.61745 46.981538,18.8331 46,17.851562 43.317187,15.299438 42.466594,11.700169 43.121094,8.3632812 42.728394,8.1671438 42.335634,7.9707437 41.943359,7.8398438 Z m 2.160157,0.9804687 c -0.458363,2.8789495 0.393268,6.0210065 2.683593,8.2460935 2.5517,2.551913 6.280088,3.335838 9.617188,2.289063 -0.327038,-0.3927 -0.523356,-0.718628 -0.785156,-1.111328 -2.748263,0.7854 -5.82321,0.129915 -7.982422,-2.029297 C 45.804969,14.317219 45.01945,11.766928 45.28125,9.3457031 44.88855,9.1495656 44.495791,8.9512125 44.103516,8.8203125 Z M 17.078125,8.9511719 c -0.392275,0.1965625 -0.785034,0.4577344 -1.177734,0.6542969 -0.196138,9.8149492 3.468093,19.8275502 11.058593,27.1562502 0.2618,0.3927 0.6546,0.785459 1.046875,1.177734 l 0,-1.634765 C 27.940622,36.239025 27.809378,36.107422 27.744141,36.107422 20.28454,28.647822 16.68585,18.766546 17.078125,8.9511719 Z M 46.394531,10 c -0.1309,1.897625 0.587869,3.924763 2.027344,5.429688 1.766513,1.766937 4.121784,2.355631 6.412109,1.832031 -0.327037,-0.2618 -0.588978,-0.654175 -0.916015,-1.046875 -1.635825,0.196137 -3.336741,-0.392385 -4.580078,-1.701172 -1.112438,-1.046775 -1.7006,-2.42111 -1.765625,-3.794922 C 47.179566,10.522188 46.786806,10.196137 46.394531,10 Z m -31.671875,0.326172 c -0.3927,0.196137 -0.785459,0.458159 -1.177734,0.654297 0.196137,10.011724 4.057153,19.957159 11.71289,27.482422 1.112438,1.046775 2.159791,2.028228 3.337891,3.009765 -0.196562,-0.6545 -0.261678,-1.243194 -0.392578,-1.832031 C 27.548412,38.9211 26.762706,38.332062 26.042969,37.546875 18.452469,30.152513 14.722656,20.206996 14.722656,10.326172 Z m 34.091797,1.24414 c 0.196563,0.784975 0.588644,1.568729 1.308594,2.158204 0.784762,0.784762 1.767678,1.30955 2.814453,1.375 -1.243338,-1.24355 -2.617697,-2.421191 -4.123047,-3.533204 z m -36.316406,0.326172 c -0.392275,0.2618 -0.785034,0.589763 -1.177735,0.851563 0.457938,10.011299 4.581335,19.826725 12.302735,27.351562 1.963287,1.963075 4.12104,3.729238 6.345703,5.234375 -0.2618,-0.588837 -0.587809,-1.30835 -0.849609,-2.09375 C 27.548553,42.062347 25.976838,40.687522 24.40625,39.248047 16.81575,31.72321 12.759847,21.908209 12.498047,11.896484 Z m -2.291016,1.767578 c -0.3922748,0.3927 -0.7850341,0.654601 -1.1777341,1.046876 0.7197375,6.412824 2.6843841,12.562772 6.0214841,18.255859 1.636038,0.523175 2.945313,1.963319 2.945313,3.730469 l 0,0.58789 c 1.177675,1.570375 2.486306,3.010913 3.925781,4.515625 3.3371,3.3371 7.065784,6.084969 11.123047,8.113281 l 0,-0.06641 c -0.196775,-0.196137 -0.393666,-0.521403 -0.720703,-0.783203 -0.3927,-0.5236 -0.785035,-0.981475 -1.177735,-1.570312 -2.9444,-1.766513 -5.758421,-4.05725 -8.310546,-6.609375 C 15.114962,33.359503 10.926769,23.675575 10.207031,13.664062 Z m -2.1582029,2.158204 c -0.392275,0.3927 -0.654175,0.785459 -1.046875,1.177734 0.7854,5.693087 2.6169718,11.058072 5.3652349,16.162109 0.392487,-0.196137 0.784993,-0.261718 1.308593,-0.261718 C 10.600056,27.600216 8.7687781,21.711278 8.0488281,15.822266 Z m -2.0292969,2.421875 c -0.3270375,0.5236 -0.5877687,0.914684 -0.9804687,1.373047 0.9815375,5.300174 2.8142374,10.403684 5.5624995,15.115234 0.196351,-0.3927 0.523357,-0.653431 0.785157,-0.980469 C 8.7689312,28.844478 6.8701688,23.675215 6.0195312,18.244141 Z m 50.9746098,2.09375 c -2.159425,0.784975 -4.44995,0.78415 -6.609375,0.195312 1.112437,0.3927 2.094421,0.982644 3.076172,1.636719 1.373812,-2.13e-4 2.814046,-0.261556 4.123046,-0.785156 -0.196562,-0.3927 -0.393281,-0.7855 -0.589843,-1.046875 z M 4.1230469,21.123047 c -0.2618,0.457937 -0.5890188,0.981475 -0.7851563,1.570312 2.1592126,8.833838 6.6741594,17.14291 13.5449214,24.013672 8.899076,8.833837 20.15306,13.80791 31.669922,14.919922 0.457938,-0.392275 0.981091,-0.719053 1.439454,-1.111328 -11.778238,-0.7854 -23.228622,-5.694675 -32.19336,-14.59375 -1.701275,-1.701275 -3.272247,-3.466653 -4.646484,-5.298828 -1.766513,-0.3927 -3.140625,-1.962919 -3.140625,-3.925781 l 0,-0.589844 C 7.2634562,31.396085 5.3007219,26.292322 4.1230469,21.123047 Z m 54.0488281,1.244141 c -1.112438,0.392274 -2.291075,0.719918 -3.46875,0.785156 0.392275,0.3927 0.786244,0.718628 1.113281,1.111328 0.98175,-0.1309 1.961863,-0.392456 2.8125,-0.785156 -0.06566,-0.392275 -0.260893,-0.784291 -0.457031,-1.111328 z M 2.5527344,24.328125 c -0.2618,0.589262 -0.4581188,1.178528 -0.7851563,1.767578 2.5517001,8.244575 7.000028,15.769985 13.4785159,22.248047 8.571612,8.571612 19.172753,13.544606 30.166015,15.246094 0.588838,-0.327038 1.047882,-0.718669 1.636719,-0.980469 C 35.79419,61.235563 24.800594,56.195868 16.097656,47.558594 9.4234561,40.818519 4.9085094,32.900162 2.5527344,24.328125 Z m 56.5996096,0.132813 c -0.784975,0.392699 -1.699931,0.654256 -2.550782,0.785156 0.261801,0.3927 0.458119,0.785075 0.785157,1.046875 0.7854,-0.196138 1.438997,-0.392922 2.224609,-0.654297 -0.196562,-0.3927 -0.262422,-0.785035 -0.458984,-1.177734 z m -14.09961,1.888671 c -0.523467,-0.02452 -1.048506,0.0088 -1.539062,0.07422 2.093762,1.243338 4.451119,2.02701 6.675781,2.419922 -0.588837,-0.654712 -1.244109,-1.242491 -2.029297,-1.634766 -0.5236,-0.196562 -1.112375,-0.393281 -1.570312,-0.589843 -0.490875,-0.163519 -1.013642,-0.245014 -1.53711,-0.269532 z m -2.978515,0.335938 c -0.523175,0.196137 -0.915894,0.391753 -1.308594,0.587891 3.271863,2.486462 7.001412,3.861246 10.796875,4.123046 -0.06545,-0.392487 -0.260469,-0.85144 -0.457031,-1.24414 -3.271438,-0.327038 -6.282563,-1.503722 -9.03125,-3.466797 z m 17.929687,0 c -0.654075,0.196137 -1.374797,0.522612 -2.029297,0.71875 0.196563,0.2618 0.393707,0.654175 0.589844,1.046875 0.588838,-0.196138 1.178528,-0.392922 1.767578,-0.654297 -0.1309,-0.327462 -0.197012,-0.718628 -0.328125,-1.111328 z M 1.1777344,27.994141 c -0.19613753,0.6545 -0.39136877,1.373268 -0.45703128,2.027343 2.74826258,7.263463 7.06606548,14.134213 12.95507788,20.023438 7.982775,7.917537 17.667309,13.022216 28.00586,15.18164 0.588837,-0.196137 1.243153,-0.458118 1.96289,-0.785156 C 32.913493,62.478119 22.70615,57.373865 14.460938,49.259766 8.2448873,42.977841 3.8607595,35.84644 1.1777344,27.994141 Z m 38.5410156,0 c -0.1309,0.06524 -0.195272,0.196056 -0.326172,0.261718 -0.196562,0.196138 -0.393706,0.392963 -0.589844,0.523438 3.3371,2.617787 7.068416,4.186553 10.994141,4.775391 l 2.09375,0 0,-0.980469 C 47.571987,32.312419 43.31765,30.742191 39.71875,27.994141 Z m 21.003906,0.980468 c -0.588837,0.196138 -1.110381,0.393747 -1.699218,0.458985 0.196137,0.3927 0.327299,0.785034 0.523437,1.177734 0.457725,-0.196137 0.849447,-0.262847 1.373047,-0.458984 0,-0.3927 -0.131603,-0.785035 -0.197266,-1.177735 z m -22.507812,0.785157 c -0.196563,0.2618 -0.393706,0.654175 -0.589844,1.046875 1.373813,1.112012 2.879269,1.962647 4.449219,2.748047 l 3.140625,0 c -2.486463,-0.850638 -4.840575,-2.158885 -7,-3.794922 z m 22.966797,1.439453 c -0.458363,0.196562 -0.849447,0.3273 -1.373047,0.523437 0.196137,0.3927 0.326915,0.785035 0.392578,1.177735 0.3927,-0.196138 0.783865,-0.326916 1.111328,-0.392579 0,-0.392274 -0.130859,-0.915893 -0.130859,-1.308593 z m -23.949219,0.785156 c -0.06566,0.392275 -0.196481,0.785034 -0.261719,1.177734 0.784975,0.588838 1.636263,1.179313 2.421875,1.703125 l 0,-1.308593 0.326172,0 C 38.802875,33.098703 38.017609,32.573212 37.232422,31.984375 Z M 0.328125,32.3125 c -0.1309,0.7854 -0.19726563,1.570281 -0.19726562,2.355469 2.74826262,6.150599 6.73971232,11.909422 11.84374962,17.013672 7.328701,7.263462 15.967034,12.17049 25.19336,14.853515 0.7854,-0.1309 1.570068,-0.328044 2.355469,-0.589844 C 29.773512,63.589963 20.481166,58.485815 12.759766,50.830078 7.2632405,45.333553 3.1416251,38.921462 0.328125,32.3125 Z m 61.181641,1.375 c -0.3927,0.06524 -0.720582,0.194528 -1.113282,0.259766 0.1309,0.3927 0.197266,0.786987 0.197266,1.179687 0.327038,-0.06566 0.719094,-0.196694 0.980469,-0.261719 0,-0.3927 -0.06445,-0.785459 -0.06445,-1.177734 z m -24.734375,0.785156 c -0.1309,0.457725 -0.13086,0.980347 -0.13086,1.373047 0.915875,0.588838 1.897197,1.04771 2.748047,1.505859 l 0,-1.24414 c -0.850637,-0.458363 -1.766337,-1.045928 -2.617187,-1.634766 z m 24.798828,1.570313 c -0.261375,0.06566 -0.458119,0.196056 -0.785157,0.261719 0,0.261799 0.13086,0.654175 0.13086,1.046874 0.196137,-0.06524 0.523822,-0.06637 0.654297,-0.197265 l 0,-0.654297 0,-0.457031 z m -24.929688,1.044922 0,1.439453 c 7.4596,4.319062 16.096053,5.62909 24.275391,3.666015 0.196137,-0.3927 0.261678,-0.785459 0.392578,-1.177734 l 0,-0.130859 c -6.412825,1.701275 -13.282781,1.308515 -19.433594,-1.177735 l -2.486328,0 0,-1.046875 C 38.541941,38.136981 37.560406,37.676941 36.644531,37.087891 Z M 0,37.154297 c 0,0.981537 0.13160312,1.962394 0.19726562,2.878906 2.68260008,4.776575 6.08378738,9.292985 10.14062538,13.349609 6.281925,6.281925 13.545393,10.862241 21.332031,13.806641 0.981537,0 1.9642,-0.06637 2.945312,-0.197265 C 26.043622,64.178263 17.995763,59.337134 11.125,52.466797 6.4786874,47.88636 2.8791626,42.650822 0,37.154297 Z m 61.574219,1.177734 c -0.130475,0.1309 -0.391328,0.132028 -0.587891,0.197266 0,0.3927 -0.06641,0.785034 -0.06641,1.177734 l -15.44336,0 c 5.234938,1.373813 10.798266,1.373069 16.033204,-0.06641 0,-0.3927 -7.85e-4,-0.784994 0.06445,-1.308594 z m -44.103516,0.197266 c -0.196137,0.3927 -0.392497,0.718669 -0.654297,0.980469 1.0472,1.37445 2.160175,2.682443 3.46875,3.925781 6.347163,6.2815 14.002303,10.404112 22.181641,12.367187 -2.486463,-0.7854 -4.644134,-1.831012 -6.607422,-3.335937 -5.365625,-2.225088 -10.404019,-5.562222 -14.722656,-9.880859 -1.24355,-1.308575 -2.553578,-2.682404 -3.666016,-4.056641 z m 19.369141,1.373047 c 0.1309,0.588837 0.197225,1.112162 0.328125,1.570312 6.870762,3.533663 14.72204,4.712088 22.18164,3.46875 0.06524,-0.1309 0.06637,-0.130075 0.197266,-0.195312 0.2618,-0.3927 0.588594,-0.78716 0.785156,-1.310547 -7.8523,1.70085 -16.294387,0.523634 -23.492187,-3.533203 z m -21.003906,0.328125 c -0.327463,0.196562 -0.785035,0.392578 -1.177735,0.392578 1.1781,1.570587 2.551544,3.008959 3.925781,4.513672 9.160876,9.030187 20.807659,13.806903 32.716797,14.330078 0.392275,-0.392275 0.786203,-0.785035 1.244141,-1.177735 C 40.505309,58.092925 28.595638,53.38179 19.5,44.220703 18.191425,42.977366 17.013825,41.604706 15.835938,40.230469 Z M 37.625,42.978516 c 0.327038,0.6545 0.590147,1.242025 0.982422,1.765625 5.627638,2.421225 11.71255,3.338225 17.601562,2.945312 0.6545,-0.3927 1.243194,-0.917062 1.832032,-1.375 C 51.170465,47.165303 44.0374,46.119478 37.625,42.978516 Z M 0.78515625,43.240234 c 0.32703755,1.308575 0.72058125,2.550841 1.11328125,3.728516 2.0283126,2.879162 4.1865812,5.497341 6.7382813,8.048828 4.8422372,4.711337 10.1430622,8.572753 15.8359372,11.517578 1.308575,0.261375 2.682656,0.456991 3.925782,0.587891 C 21.527675,64.047322 15.114922,59.729944 9.5527344,54.167969 6.0849468,50.830656 3.2716188,47.100934 0.78515625,43.240234 Z M 40.701172,46.773438 c 2.224662,1.766512 5.169797,2.943359 8.310547,2.943359 1.701275,0 3.270506,-0.259603 4.644531,-0.783203 -4.449325,0 -8.767128,-0.655444 -12.955078,-2.160156 z M 4.0566406,51.681641 C 7.5898782,57.767003 12.9567,62.477384 19.5,65.029297 15.312262,62.477172 11.385225,59.466872 7.8515625,55.802734 6.477325,54.559397 5.2995532,53.186778 4.0566406,51.681641 Z m 50.4511714,4.449218 c -1.766512,0.457938 -3.730071,0.654297 -5.693359,0.654297 l -0.980469,0 c 1.897625,0.196138 3.859191,0.326172 5.822266,0.326172 0.2618,-0.327037 0.589762,-0.718456 0.851562,-0.980469 z"
     style="fill:#4b7ab7" /><path
     id="esa"
     transform="matrix(4.7058822,0,0,4.7058826,0,-27.345708)"
     d="m 85.220703,19.365234 c -0.98172,-0.02173 -1.974967,0.04032 -2.96875,0.1875 -4.907475,0.7854 -8.440847,3.533047 -10.927734,7.458985 -1.242913,2.225087 -2.16046,4.776784 -2.552735,7.263672 -0.7854,5.954249 0.917056,15.96664 11.386719,19.892578 4.842238,1.832175 11.058194,1.177409 15.769531,-2.291016 2.61715,-1.96265 5.299956,-6.347441 5.496096,-9.095703 l -8.76758,0 c -0.2618,1.177675 -0.982147,2.748106 -2.552734,3.925781 -3.533025,2.552125 -7.46005,0.850547 -9.226563,-0.392578 C 78.193928,44.351378 77.343791,41.080437 77.212891,36.5 c 0,-2.421225 0.719309,-6.346728 2.748047,-8.244141 2.2899,-1.832387 5.040309,-2.355712 7.591796,-1.570312 2.879163,0.915875 5.037935,4.055216 4.841797,6.869141 l -12.302734,0 0,6.152343 21.332033,0 c 0.19614,-2.225087 -0.19519,-4.38575 -0.58789,-6.414062 -0.71974,-3.075513 -2.552977,-6.80421 -4.515628,-9.029297 -2.818095,-3.136819 -6.845487,-4.804291 -11.099609,-4.898438 z m 33.646487,0.04102 c -0.77566,0.02135 -1.57461,0.0902 -2.39258,0.212891 -3.53366,0.523175 -8.24503,2.551165 -9.88086,7.197265 -1.37381,4.318425 5.7e-4,8.245125 2.68359,10.273438 3.3371,2.551912 9.61801,3.206084 12.16993,3.794922 2.9444,0.588837 4.45026,0.980365 4.9082,2.68164 0.32704,1.046775 0.19509,2.356394 -0.45899,3.207032 -1.89805,2.486249 -5.69185,2.681924 -8.76757,1.765624 -2.55149,-0.784974 -3.59988,-2.811859 -4.12305,-5.560546 l -7.6543,0 c 0,2.552125 0.78518,4.318706 2.09375,6.347656 1.63562,2.682387 4.5798,4.841594 8.89844,5.496094 4.71134,0.785187 9.55369,0.195375 12.36719,-1.375 1.70149,-0.981113 2.94463,-2.223419 4.05664,-3.597657 1.57037,-1.962862 2.94545,-6.870815 0.45898,-11.189453 -2.15942,-3.7298 -7.06725,-4.515381 -11.58203,-5.300781 -2.61736,-0.457937 -5.69308,-0.588956 -7.26367,-2.355469 -0.65408,-0.7854 -0.65442,-2.159912 -0.26172,-2.945312 1.04699,-2.159425 3.72976,-2.813325 6.28125,-2.617188 2.22509,0 4.31928,1.177338 5.16992,3.140625 0.3927,0.7854 0.52266,1.636435 0.58789,2.552735 l 7.26368,0 c 0.1309,-2.879163 -1.04752,-5.823863 -2.81446,-7.65625 -2.00366,-2.060932 -6.31065,-4.221693 -11.74023,-4.072266 z m 34.90429,0.01563 c -2.42122,0.1309 -5.03788,0.523406 -7.0664,1.308594 -4.31864,1.766937 -6.47852,5.954759 -6.47852,10.404297 l 7.85352,0 c -0.19614,-2.290113 1.43797,-4.319365 3.07422,-4.908204 0.65407,-0.327462 1.63543,-0.523437 2.61718,-0.523437 1.96308,-0.06524 3.92655,0.392597 5.30079,1.701172 0.91587,0.850637 1.17781,2.029102 0.91601,3.337891 -0.52317,2.028524 -2.74901,2.74714 -6.2168,3.205078 -1.17767,0.196562 -2.55192,0.329253 -4.05664,0.52539 -4.1225,0.457938 -10.01052,2.485947 -11.38476,8.50586 -0.45794,2.355775 -0.0657,6.674568 3.5332,9.488281 2.48646,1.897412 5.88945,2.747303 8.57227,2.681641 1.17767,0 2.35418,-0.130035 3.33593,-0.326172 2.74827,-0.588838 4.90777,-1.831928 7.00196,-3.533204 0.0652,0.523601 0.58972,2.355732 0.98242,2.878907 l 8.24414,0 c -1.30879,-2.5517 -1.11328,-6.282978 -1.11328,-8.376953 l 0,-10.533204 c -0.0652,-2.748687 -0.0635,-5.49734 -0.65234,-8.048828 -0.58884,-2.552125 -2.87912,-6.805612 -10.14258,-7.65625 -1.37424,-0.1309 -2.8156,-0.130859 -4.32032,-0.130859 z m 6.67383,17.666016 c 0,0.7854 0.13255,6.348925 -0.39062,7.460937 -0.85064,2.355988 -3.33881,3.728435 -6.28321,3.990234 -0.58883,0.130901 -1.24315,0.19805 -1.96289,0.132813 -1.96328,0 -3.66386,-0.983569 -4.31836,-2.488281 -0.78497,-1.439475 -0.32786,-2.944285 0.19532,-3.794922 1.1781,-2.09355 3.20677,-2.485381 6.08593,-3.074219 0.91588,-0.06566 1.89854,-0.262806 2.94532,-0.589844 2.15942,-0.457937 2.68174,-0.851106 3.72851,-1.636718 z"
     style="fill:#0e2180" /></svg>
