<?xml version="1.0" encoding="UTF-8" standalone="no"?>
<svg width="1413px" height="511px" viewBox="0 0 1413 511" version="1.1" xmlns="http://www.w3.org/2000/svg" xmlns:xlink="http://www.w3.org/1999/xlink">
    <!-- Generator: Sketch 3.6.1 (26313) - http://www.bohemiancoding.com/sketch -->
    <title>ESA</title>
    <desc>Created with Sketch.</desc>
    <defs></defs>
    <g id="Page-1" stroke="none" stroke-width="1" fill="none" fill-rule="evenodd">
        <g id="ESA" transform="translate(0.000000, -1.000000)">
            <path d="M243.553744,1.7620631 C240.291068,1.7620631 235.944207,2.31378519 232.681531,2.31378519 C222.897035,57.2231348 234.319183,114.305118 266.937109,161.599797 C269.654244,158.340652 271.285316,155.625336 273.460433,153.45375 C243.559634,108.328896 233.763955,52.866727 243.553744,1.76206144 L243.553744,1.7620631 Z M253.338738,1.7620631 C242.466675,50.6898417 252.257743,102.893132 281.070984,146.930426 C283.246101,144.213299 285.954687,142.03667 288.129812,140.407102 C261.491681,98.5449243 253.339229,47.9727146 263.123725,1.7620631 L256.6004,1.7620631 L253.338738,1.7620631 L253.338738,1.7620631 Z M272.908711,1.7620631 C263.124215,46.343138 270.195971,94.7304431 296.292077,134.419273 C299.009212,132.786165 301.191673,131.164465 304.454349,129.534888 C279.987812,91.4791661 272.90921,45.8037704 282.693706,2.31378685 C279.434561,2.31378685 276.171387,2.30760796 272.908711,1.76206476 L272.908711,1.7620631 Z M222.896544,3.40100821 C219.6374,3.94302619 216.380748,3.93617183 212.576062,5.02372635 C203.333576,64.2833115 218.009518,127.350764 254.977678,177.908119 C257.152795,175.190984 258.780345,171.93753 261.501003,168.674854 C226.162411,119.747068 214.197837,60.4854802 222.896544,3.40100821 L222.896544,3.40100821 Z M292.494918,3.93650416 C282.706891,44.7093565 289.226377,88.7533311 313.687613,125.721503 C315.862731,124.091926 319.122706,122.460173 322.385382,121.372614 C299.551952,87.1215777 292.495409,44.7152055 302.279905,5.57544927 C299.017229,5.02990857 295.754063,3.93650416 292.494918,3.93650416 L292.494918,3.93650416 Z M202.774841,7.19816907 C199.515697,7.19816907 196.252531,8.29510036 192.989855,8.83711418 C184.834927,75.1640661 201.697411,142.565212 245.192692,197.478102 C246.82226,194.215426 248.4475,189.868564 250.077068,186.605888 C209.846232,134.417196 194.623444,69.1748829 202.774841,7.19816907 L202.774841,7.19816907 Z M310.977682,7.19816907 C302.280736,44.708352 308.791398,85.4926831 332.170377,119.19817 C335.433052,117.568602 339.779905,117.559563 343.042581,116.472012 C319.119823,85.483652 312.06573,45.8049418 320.762668,9.92433554 C317.503523,8.83677686 314.240357,8.28572692 310.977682,7.19816907 L310.977682,7.19816907 Z M183.221086,12.0987774 C178.870852,13.1863361 175.611558,13.7273371 172.348882,15.3604407 C165.82353,87.1216533 188.107049,160.518529 237.582141,218.687025 C239.211718,215.42788 240.301453,211.084001 241.93103,207.279315 C195.176595,151.822654 175.611707,80.5955534 183.221086,12.0987774 L183.221086,12.0987774 Z M329.995932,12.0987774 C321.841004,47.4373682 329.999979,85.4940374 354.466516,114.84929 C358.269448,114.84929 362.617389,114.297535 367.513173,114.297535 C340.33127,87.1138933 331.62423,49.6132416 339.780919,15.3604407 C336.521774,14.8148958 333.258608,13.1863361 329.995932,12.0987774 L329.995932,12.0987774 Z M162.547661,18.6221048 C159.284985,20.2552075 154.934593,21.8733826 151.675448,23.5064861 C147.867232,101.789521 175.056479,181.706681 233.768757,243.141384 C233.768757,241.511815 233.77493,239.886576 234.320512,238.257007 C234.320512,235.536341 235.40773,232.269852 235.40773,230.094734 C181.587705,170.293131 156.567892,93.6477614 162.547694,18.6221048 L162.547661,18.6221048 Z M348.478687,18.6221048 C341.411326,49.6139977 350.108987,84.9466439 374.571993,109.413183 C377.292659,111.04276 378.920208,113.219722 381.095325,114.84929 C390.879822,115.936849 400.676722,118.103766 410.466519,120.820893 C400.134713,116.474189 390.337471,109.957561 382.182543,101.802632 C359.892885,80.5987771 352.825889,50.6949097 358.263682,22.9709885 C355.001006,21.3414169 351.737832,19.7096626 348.478687,18.6221048 L348.478687,18.6221048 Z M366.425955,26.7681494 C362.61773,50.6873741 369.69335,76.7925793 388.722094,95.2793071 C409.922424,116.481409 440.89905,122.994506 468.624732,114.297568 C465.907597,111.034892 464.276525,108.326979 462.101408,105.064303 C439.26797,111.589655 413.720338,106.143678 395.780922,88.2042602 C380.562164,72.4381904 374.035824,51.2495647 376.210941,31.133261 C372.948265,29.5036885 369.685099,27.8557081 366.425955,26.7681494 L366.425955,26.7681494 Z M141.890462,27.8553708 C138.631317,29.4884743 135.368151,31.6583732 132.105475,33.2914767 C130.475899,114.837185 160.919489,198.025046 223.983762,258.914208 C226.15888,262.176884 229.422386,265.440051 232.681531,268.699196 L232.681531,255.11705 C232.139521,254.571501 231.049105,253.478101 230.507095,253.478101 C168.530371,191.501381 138.631317,109.404609 141.890462,27.8553708 L141.890462,27.8553708 Z M385.460432,36.569367 C384.372873,52.3354367 390.344633,69.1775416 402.304247,81.6809353 C416.980995,96.3612078 436.549331,101.252264 455.578075,96.9020294 C452.860949,94.726912 450.68466,91.4669362 447.967533,88.2042602 C434.376582,89.8338285 420.244834,84.9442013 409.914797,74.0703842 C400.67231,65.3734458 395.785675,53.9550351 395.245426,42.5409697 C391.982751,40.9078703 388.719576,38.1989353 385.460432,36.569367 L385.460432,36.569367 Z M122.320481,39.2793073 C119.057805,40.9088756 115.794639,43.0858374 112.535494,44.7154141 C114.165063,127.895989 146.243604,210.525815 209.849888,273.048084 C219.092374,281.745023 227.794114,289.899245 237.582141,298.054166 C235.949042,292.616372 235.408038,287.725316 234.320479,282.833072 C228.880917,276.85503 222.353023,271.961116 216.37322,265.437533 C153.308946,204.002831 122.320481,121.372324 122.320481,39.2793073 L122.320481,39.2793073 Z M405.565909,49.6160166 C407.199016,56.1378377 410.456549,62.6495142 416.438121,67.5470593 C422.958172,74.0671107 431.124549,78.4272157 439.821487,78.970995 C429.491442,68.6391876 418.072832,58.854973 405.565909,49.6160166 L405.565909,49.6160166 Z M103.837726,52.325957 C100.578581,54.5010743 97.3154152,57.2258948 94.0527311,59.4010122 C97.8574248,142.578057 132.115911,224.127726 196.267743,286.646456 C212.579352,302.956305 230.506646,317.630147 248.98985,330.135302 C246.814733,325.243058 244.106147,319.265116 241.93103,312.739764 C228.882088,302.953505 215.823783,291.531024 202.774841,279.571409 C139.710567,217.052679 106.012843,135.506541 103.837726,52.325957 L103.837726,52.325957 Z M84.8032406,67.0115551 C81.5440975,70.2742311 78.2809291,72.4501876 75.0182533,75.7093326 C80.99806,128.989106 97.3209651,180.084823 125.046647,227.384794 C138.639368,231.731498 149.517239,243.69667 149.517239,258.378712 L149.517239,263.263089 C159.301735,276.310262 170.174255,288.278708 182.133868,300.780332 C209.85955,328.506016 240.838636,351.336183 274.547659,368.188041 L274.547659,367.636286 C272.912791,366.006718 271.276958,363.304305 268.559831,361.129187 C265.297155,356.778953 262.037512,352.974782 258.774836,348.082538 C234.31183,333.405788 210.932054,314.373619 189.728193,293.169756 C125.579883,230.64752 90.7830515,150.190377 84.8032406,67.0115551 L84.8032406,67.0115551 Z M66.8722086,84.9425978 C63.6130639,88.2052738 61.4371158,91.46844 58.1744401,94.727585 C64.6997916,142.027556 79.9170692,186.601551 102.750508,229.007508 C106.011414,227.377939 109.272478,226.833072 113.622712,226.833072 C88.0686166,182.797538 72.8537808,133.870375 66.8722086,84.9425978 L66.8722086,84.9425978 Z M50.0121683,105.064303 C47.2950374,109.414537 45.1288002,112.663787 41.8661244,116.472012 C50.0210483,160.507537 65.2476985,202.909115 88.0811289,242.054166 C89.7124751,238.79149 92.4293443,236.625254 94.6044615,233.908119 C72.8550528,193.135261 57.0795345,150.187386 50.0121683,105.064303 L50.0121683,105.064303 Z M473.525343,122.459841 C455.584157,128.981662 436.553751,128.974808 418.612566,124.082555 C427.855044,127.345231 436.013677,132.246673 444.170375,137.680935 C455.58444,137.679165 467.550359,135.507845 478.425945,131.15761 C476.792846,127.894934 475.158442,124.631427 473.525343,122.459841 L473.525343,122.459841 Z M34.2555772,128.983166 C32.08046,132.787852 29.3618228,137.137571 27.7322504,142.029816 C45.6716713,215.424141 83.1832768,284.458544 140.26774,341.543012 C214.204077,414.937329 307.705734,456.263503 403.391465,465.502451 C407.196158,462.243306 411.542679,459.528331 415.350903,456.269186 C317.493578,449.743834 222.360168,408.956022 147.87829,335.019687 C133.74356,320.884955 120.691428,306.217635 109.273832,290.995345 C94.5970837,287.732669 83.1805268,274.686792 83.1805268,258.378712 L83.1805268,253.478101 C60.3470905,214.334821 44.0400734,171.931141 34.2555772,128.983166 L34.2555772,128.983166 Z M483.310329,139.319884 C474.067843,142.57902 464.275354,145.30119 454.490857,145.843208 C457.750002,149.105884 461.023221,151.813798 463.740348,155.076474 C471.897037,153.988915 480.040126,151.815825 487.107487,148.553149 C486.561963,145.294004 484.939906,142.037011 483.310329,139.319884 L483.310329,139.319884 Z M21.2089245,155.61197 C19.0338073,160.507745 17.4027286,165.403554 14.6855977,170.297568 C35.8859289,238.796109 72.8440434,301.3196 126.669369,355.141392 C197.885032,426.35706 285.962663,467.67427 377.298159,481.810772 C382.190411,479.093636 386.004294,475.839842 390.896538,473.664725 C297.389447,462.250659 206.051176,420.379276 133.744415,348.618067 C78.2930526,292.619388 40.781448,226.831169 21.2089245,155.61197 L21.2089245,155.61197 Z M491.456376,156.715422 C484.934555,159.97809 477.332811,162.151188 470.263672,163.238747 C472.438798,166.501423 474.06987,169.761399 476.787005,171.936516 C483.312356,170.306939 488.742647,168.671996 495.26976,166.500409 C493.636661,163.237733 493.089475,159.97809 491.456376,156.715422 L491.456376,156.715422 Z M374.312358,172.407099 C369.963229,172.203379 365.601039,172.480212 361.525344,173.023742 C378.920981,183.353789 398.506648,189.864784 416.989843,193.129221 C412.097599,187.689666 406.653393,182.806212 400.129802,179.547067 C395.779568,177.913968 390.887839,176.279564 387.083154,174.646465 C383.004809,173.287897 378.661496,172.610811 374.312358,172.407107 L374.312358,172.407099 Z M349.565914,175.198179 C345.21921,176.827747 341.956377,178.452987 338.693701,180.082563 C365.877373,200.740877 396.863645,212.163018 428.397552,214.338136 C427.853773,211.077229 426.233493,207.264103 424.600394,204.001427 C397.420253,201.284291 372.402874,191.508028 349.565914,175.198179 L349.565914,175.198179 Z M498.531422,175.198179 C493.09716,176.827747 487.109174,179.540205 481.671381,181.169781 C483.304488,183.344899 484.942423,186.604874 486.571991,189.86755 C491.464244,188.237974 496.363574,186.60303 501.257588,184.431444 C500.17003,181.710786 499.62075,178.460855 498.531422,175.198179 L498.531422,175.198179 Z M9.78498975,186.070392 C8.15541714,191.508186 6.53337427,197.479938 5.98782938,202.9142 C28.8212638,263.261352 64.6949354,320.34572 113.622712,369.275268 C179.946131,435.056674 260.408301,477.467965 346.304251,495.409143 C351.196495,493.779575 356.63276,491.602954 362.612562,488.885819 C273.455706,472.574208 188.649873,430.166449 120.146045,362.751943 C68.5011304,310.55972 32.0764105,251.30978 9.78498975,186.070392 L9.78498975,186.070392 Z M329.995932,186.070392 C328.908374,186.612427 328.373551,187.699287 327.285992,188.244828 C325.652893,189.874405 324.014958,191.509689 322.385382,192.593717 C350.111064,214.343121 381.112017,227.376926 413.728181,232.269179 L431.123718,232.269179 L431.123718,224.123131 C395.243108,221.948014 359.896732,208.902062 329.995932,186.070392 L329.995932,186.070392 Z M504.503024,194.216431 C499.61078,195.846008 495.277628,197.487806 490.385384,198.029824 C492.014952,201.2925 493.104687,204.552135 494.734264,207.814811 C498.537188,206.185243 501.791738,205.630995 506.141972,204.001427 C506.141972,200.73875 505.048573,197.479107 504.503024,194.216431 L504.503024,194.216431 Z M317.501006,200.739764 C315.867898,202.914881 314.229972,206.174857 312.600396,209.437533 C324.014468,218.676481 336.522273,225.743826 349.565914,232.269179 L375.659219,232.269179 C355.000898,225.201808 335.442192,214.332478 317.501006,200.739764 L317.501006,200.739764 Z M508.316417,212.699196 C504.508192,214.332295 501.258942,215.418508 496.908708,217.048076 C498.538276,220.310752 499.624821,223.570396 500.17037,226.833072 C503.433046,225.203495 506.682968,224.11695 509.403635,223.571401 C509.403635,220.312264 508.316417,215.961872 508.316417,212.699196 L508.316417,212.699196 Z M309.338733,219.222521 C308.793209,222.481666 307.706307,225.744832 307.164289,229.007508 C313.68611,233.899761 320.75888,238.805614 327.285992,243.15761 L327.285992,232.285405 L329.995932,232.285405 C322.386553,228.480711 315.862315,224.114765 309.338733,219.222521 L309.338733,219.222521 Z M2.72616624,221.948687 C1.63860765,228.474039 1.08722102,234.995079 1.0872211,241.51867 C23.9206558,292.619795 57.0828819,340.465922 99.4888375,382.873648 C160.378002,443.220792 232.148004,483.989935 308.803237,506.281357 C315.328589,505.193798 321.847859,503.555864 328.373219,501.380746 C247.367751,481.81176 170.164002,439.404881 106.01217,375.798593 C60.3452984,330.131721 26.1016146,276.858037 2.72616624,221.948687 L2.72616624,221.948687 Z M511.042583,233.372623 C507.779907,233.914657 505.05576,234.988823 501.793084,235.530841 C502.880643,238.793517 503.432032,242.069378 503.432032,245.332054 C506.149167,244.78653 509.406493,243.697858 511.578079,243.15761 C511.578079,239.894934 511.042608,236.631768 511.042608,233.372623 L511.042583,233.372623 Z M305.541575,239.895948 C304.454017,243.698872 304.454349,248.040981 304.454349,251.303657 C312.063728,256.19591 320.216862,260.008364 327.285992,263.814811 L327.285992,253.478101 C320.218631,249.669876 312.610706,244.7882 305.541575,239.895948 L305.541575,239.895948 Z M511.578079,252.942606 C509.406493,253.48813 507.771881,254.571501 505.054746,255.11705 C505.054746,257.292159 506.141972,260.552143 506.141972,263.814811 C507.771541,263.272776 510.494051,263.263388 511.578079,262.175871 L511.578079,256.739764 L511.578079,252.942606 L511.578079,252.942606 Z M304.454349,261.624149 L304.454349,273.58358 C366.431064,309.467716 438.185446,320.351844 506.141972,304.041995 C507.771541,300.779318 508.316076,297.516152 509.403635,294.257007 L509.403635,293.169789 C456.123857,307.304521 399.046091,304.041346 347.943191,283.384794 L327.285992,283.384794 L327.285992,274.687024 C320.218631,270.340321 312.063728,266.518163 304.454349,261.624149 L304.454349,261.624149 Z M0,262.175871 C0,270.330791 1.09340033,278.480062 1.63894514,286.094734 C23.9268347,325.780033 52.1849741,363.303798 85.8904669,397.007516 C138.082686,449.199739 198.429874,487.254456 263.123725,511.717464 C271.278644,511.717464 279.442919,511.166041 287.594308,510.078524 C216.378646,486.699543 149.514489,446.477909 92.4300173,389.396973 C53.8269832,351.341251 23.9209932,307.842742 0,262.175871 L0,262.175871 Z M511.578079,271.960858 C510.494051,273.048417 508.326802,273.057788 506.693694,273.599806 C506.693694,276.862482 506.141939,280.122118 506.141939,283.384794 L377.833622,283.384794 C421.327142,294.798867 467.54903,294.792686 511.04255,282.833038 C511.04255,279.570362 511.036028,276.311059 511.578021,271.960825 L511.578079,271.960858 Z M145.152124,273.599806 C143.522556,276.862482 141.891135,279.570736 139.716018,281.745854 C148.416486,293.16522 157.663435,304.03244 168.535489,314.362486 C221.269726,366.551178 284.87105,400.803145 352.827576,417.112994 C332.169255,410.587642 314.242642,401.900366 297.931025,389.396973 C253.351716,370.910237 211.491146,343.18427 175.610544,307.303665 C165.278737,296.431609 154.394611,285.017403 145.152124,273.599806 L145.152124,273.599806 Z M306.077071,285.007516 C307.16463,289.89976 307.715679,294.24771 308.803237,298.054166 C365.8877,327.412958 431.1186,337.203686 493.095316,326.87364 C493.63735,325.786081 493.646738,325.792935 494.734264,325.250926 C496.909381,321.98825 499.624489,318.710951 501.257588,314.362486 C436.018197,328.493687 365.878669,318.713003 306.077071,285.007516 L306.077071,285.007516 Z M131.56998,287.733682 C128.849313,289.366782 125.047661,290.995345 121.784985,290.995345 C131.573012,304.044279 142.984019,315.99473 154.401615,328.496362 C230.513069,403.522017 327.278224,443.208487 426.223108,447.555191 C429.482253,444.296046 432.755131,441.032871 436.559825,437.770195 C336.530913,436.140627 237.581601,396.999024 162.012165,320.885811 C151.14011,310.555773 141.356237,299.151279 131.56998,287.733682 L131.56998,287.733682 Z M312.600396,310.565328 C315.317531,316.003121 317.503523,320.884465 320.762668,325.2347 C367.518864,345.351004 418.074237,352.969731 467.00201,349.705285 C472.439803,346.442609 477.330859,342.086043 482.223111,338.281349 C425.140401,345.350481 365.876642,336.661435 312.600396,310.565328 L312.600396,310.565328 Z M6.52332636,312.739764 C9.24045772,323.611819 12.5101432,333.932959 15.772819,343.717456 C32.6246813,367.638446 50.5562592,389.391107 71.7565904,410.58967 C111.987428,449.73295 156.028358,481.814818 203.326563,506.281357 C214.198618,508.452943 225.614918,510.078183 235.943201,511.165742 C178.85873,485.611644 125.579551,449.741499 79.3671376,403.530849 C50.5556618,375.803395 27.1816433,344.815683 6.52332636,312.739764 L6.52332636,312.739764 Z M338.158205,342.094742 C356.6414,356.771484 381.110513,366.549101 407.204857,366.549101 C421.339588,366.549101 434.377255,364.392237 445.793089,360.042003 C408.82669,360.042003 372.953018,354.596366 338.158205,342.094742 L338.158205,342.094742 Z M33.7038527,382.873648 C63.0591077,433.432764 107.64836,472.568102 162.012165,493.770203 C127.219114,472.56634 94.5920489,447.555814 65.2332636,417.112994 C53.815664,406.782957 44.0303635,395.378803 33.7038527,382.873648 L33.7038527,382.873648 Z M452.868135,419.839161 C438.191395,423.643855 421.877526,425.275268 405.565909,425.275268 L397.419862,425.275268 C413.185931,426.904844 429.483241,427.985208 445.793089,427.985208 C447.968206,425.268081 450.693018,422.016048 452.868135,419.839161 L452.868135,419.839161 Z" id="path7" fill="#4B7AB7"></path>
            <path d="M708.040544,114.378699 C699.884104,114.198159 691.631894,114.71369 683.37523,115.936508 C642.602376,122.46186 613.246005,145.290182 592.584161,177.908119 C582.257647,196.394847 574.634377,217.595154 571.375232,238.257007 C564.84988,287.726795 578.994423,370.912912 665.979693,403.530849 C706.210538,418.753139 757.854665,413.313136 796.997943,384.496362 C818.742052,368.190044 841.031653,331.759811 842.661246,308.926379 L769.817419,308.926379 C767.642302,318.710876 761.657431,331.758515 748.608498,341.543012 C719.255009,362.746875 686.628044,348.609626 671.951296,338.281349 C649.659876,321.9715 642.596669,294.795486 641.50911,256.739764 C641.50911,236.623459 647.485357,204.009137 664.340753,188.244828 C683.365967,173.020776 706.217234,168.672826 727.415795,175.198179 C751.336791,182.807558 769.272552,208.890198 767.642975,232.269179 L665.427971,232.269179 L665.427971,283.384794 L842.661246,283.384794 C844.290839,264.898066 841.039546,246.946593 837.77687,230.094734 C831.797042,204.542398 816.56593,173.563201 800.259605,155.076474 C776.84598,129.014787 743.385134,115.160902 708.040544,114.378699 L708.040544,114.378699 Z M987.586196,114.719506 C981.141767,114.896888 974.503838,115.468916 967.707884,116.488272 C938.34912,120.834975 899.205569,137.684159 885.614576,176.28543 C874.200528,212.164273 885.619311,244.788541 907.91069,261.640408 C935.636372,282.842502 987.820158,288.27757 1009.02232,293.169822 C1033.48532,298.062067 1045.99648,301.315006 1049.80119,315.449737 C1052.51835,324.146676 1051.42206,335.027405 1045.98776,342.094775 C1030.21816,362.75132 998.69807,364.37705 973.144016,356.764139 C951.94543,350.242326 943.235075,333.402323 938.888413,310.565361 L875.294068,310.565361 C875.294068,331.769224 881.817592,346.446539 892.689605,363.303698 C906.278853,385.589819 930.740032,403.529195 966.620658,408.966989 C1005.76396,415.490571 1045.99574,410.590226 1069.37118,397.543053 C1083.5077,389.391655 1093.8361,379.070184 1103.07503,367.652579 C1116.12216,351.344499 1127.54676,310.567671 1106.88838,274.687058 C1088.94724,243.698697 1048.17143,237.171842 1010.66121,230.646489 C988.91536,226.841804 963.361306,225.753256 950.312348,211.076507 C944.878044,204.551155 944.875219,193.131273 948.137895,186.605921 C956.836619,168.664734 979.12592,163.231926 1000.32451,164.861494 C1018.81126,164.861494 1036.21045,174.643191 1043.27784,190.954802 C1046.54051,197.480154 1047.62026,204.550822 1048.16221,212.163733 L1108.51116,212.163733 C1109.59872,188.242734 1099.80803,163.777234 1085.12774,148.553182 C1068.4807,131.430306 1032.69686,113.478019 987.586196,114.719506 L987.586196,114.719506 Z M1277.58207,114.849365 C1257.46581,115.936923 1235.72577,119.197988 1218.87219,125.721578 C1182.99156,140.401851 1165.04659,175.195603 1165.04659,212.163775 L1230.29612,212.163775 C1228.66653,193.13679 1242.24323,176.277121 1255.83771,171.38486 C1261.27193,168.664202 1269.42538,167.03598 1277.58207,167.03598 C1293.89196,166.493945 1310.20509,170.2978 1321.62271,181.169856 C1329.23205,188.237218 1331.40833,198.028278 1329.23321,208.902112 C1324.88655,225.755732 1306.39357,231.726222 1277.58207,235.530916 C1267.79762,237.164015 1256.37991,238.266454 1243.87822,239.896022 C1209.62719,243.700716 1160.70766,260.550058 1149.29004,310.565402 C1145.48533,330.137928 1148.74418,366.019828 1178.64498,389.397047 C1199.30328,405.161348 1227.57639,412.222511 1249.86611,411.676971 C1259.65057,411.676971 1269.42538,410.596599 1277.58207,408.96703 C1300.41557,404.074778 1318.35738,393.746792 1335.75657,379.612052 C1336.29827,383.962295 1340.65615,399.18422 1343.91883,403.530924 L1412.41375,403.530924 C1401.53991,382.330591 1403.16426,351.329951 1403.16426,333.932544 L1403.16426,246.419347 C1402.62256,223.582385 1402.63669,200.745705 1397.74442,179.547134 C1392.85215,158.343271 1373.82378,123.003953 1313.47666,115.936583 C1302.05904,114.849024 1290.08376,114.849365 1277.58207,114.849365 L1277.58207,114.849365 Z M1333.03036,261.624223 C1333.03036,268.149575 1334.13163,314.373104 1329.78497,323.612052 C1322.71758,343.186347 1302.04508,354.589072 1277.58207,356.764181 C1272.68989,357.851748 1267.25359,358.409643 1261.27376,357.867633 C1244.96221,357.867633 1230.83325,349.69583 1225.39546,337.194206 C1218.87368,325.234592 1222.6715,312.732153 1227.01824,305.664792 C1236.80627,288.270915 1253.6611,285.015459 1277.58207,280.123206 C1285.19149,279.577682 1293.35574,277.93973 1302.05272,275.222595 C1319.99387,271.417909 1324.33347,268.151337 1333.03036,261.624223 L1333.03036,261.624223 Z" id="esa" fill="#0E2180"></path>
        </g>
    </g>
</svg>