<?xml version="1.0" encoding="utf-8"?><!-- Generator: Adobe Illustrator 16.0.0, SVG Export Plug-In . SVG Version: 6.00 Build 0) --><!DOCTYPE svg PUBLIC "-//W3C//DTD SVG 1.1//EN" "http://www.w3.org/Graphics/SVG/1.1/DTD/svg11.dtd"><svg version="1.1" id="Layer_1" xmlns="http://www.w3.org/2000/svg" xmlns:xlink="http://www.w3.org/1999/xlink" x="0px" y="0px" width="2339.356px" height="580.152px" viewBox="123.101 69.986 2339.356 580.152" enable-background="new 123.101 69.986 2339.356 580.152" xml:space="preserve"><path fill="#807F83" d="M171.582,182.353c0,0,0,0,0.036,0h54.447c3.12,0,5.629-2.541,5.635-5.637c0-0.02-0.661-46.685-0.661-59.662	V116.9c0-10.658,2.237-19.95,6.133-27.737l1.862-3.497c-0.208,0.035-0.417,0.137-0.624,0.345L132.618,190.919	c-0.207,0.17-0.336,0.391-0.396,0.618c2.188-1.083,5.18-2.563,5.603-2.749C147.038,184.631,158.209,182.353,171.582,182.353z M595.25,170.93c-4.325-23.152-18.09-34.562-30.535-39.048c-13.427-4.853-40.652-9.88-74.86-13.912	c-27.521-3.241-59.868-2.983-79.407-2.379c-2.346-16.062-13.611-30.736-26.217-35.816c-33.588-13.519-85.48-10.253-98.805-6.519	c-10.587,2.959-22.306,9.023-28.828,18.368c-4.374,6.242-7.204,14.239-7.226,25.411c0,6.323,0.176,21.218,0.337,34.452	c0.16,13.275,0.334,25.148,0.334,25.229c-0.006,11.819-9.585,21.438-21.456,21.453h-54.456c-11.616,0-20.491,1.952-27.271,5.032	c-6.79,3.083-11.599,7.239-15.253,12.156c-7.273,9.764-8.536,21.813-8.506,34.109c0,0,0.107,10.048,2.528,29.496	c2.013,15.048,18.332,120.17,33.832,152.142c6.01,12.438,10.013,17.619,21.82,23.103c26.307,11.263,86.396,23.793,114.559,27.381	c28.112,3.597,45.756,11.158,56.271-10.889c0.035-0.056,2.105-5.485,4.955-13.451c9.129-27.663,10.398-52.208,10.398-69.97	c0-1.807,2.65-1.889,2.65,0c0,12.539-2.396,56.915,31.126,68.819c13.232,4.693,40.685,8.877,68.578,12.146	c25.221,2.897,43.523,12.823,43.523,77.529c0,39.366-8.269,44.765-51.495,44.765c-35.04,0-48.395,0.907-48.395-26.931	c0-22.499,22.252-20.142,38.744-20.142c7.366,0,2.02-5.479,2.02-19.359c0-13.809,8.636-21.79,0.468-21.992	c-57.027-1.569-90.583-0.065-90.583,71.256c0,64.747,24.778,76.77,105.717,76.77c63.46,0,85.83-2.077,112.032-83.381	c5.188-16.05,17.727-65.03,25.315-147.271C611.965,367.488,602.644,210.542,595.25,170.93z M484.627,344.405	c-7.84-0.274-15.381,0.221-22.413,1.351c1.979-15.983,8.576-35.595,31.946-34.774c25.87,0.89,29.495,25.341,29.587,41.903	C512.839,348.021,499.335,344.922,484.627,344.405z"/><path fill="#7AC143" d="M2444.329,247.055c10.038,0,18.128,8.134,18.128,18.125c0,10.025-8.09,18.18-18.128,18.18	c-10.055,0-18.144-8.155-18.144-18.18C2426.186,255.189,2434.273,247.055,2444.329,247.055z M2444.329,280.158	c8.101,0,14.733-6.613,14.733-14.978c0-8.357-6.634-14.957-14.733-14.957c-8.114,0-14.744,6.6-14.744,14.957	C2429.585,273.545,2436.215,280.158,2444.329,280.158z M2436.592,254.812h7.976c5.124,0,7.782,1.79,7.782,5.973	c0,3.784-2.405,5.36-5.358,5.906l5.584,8.866h-3.901l-5.452-8.699h-3.21v8.699h-3.418v-20.745H2436.592z M2440.01,263.688h4.557	c3.307,0,4.338-1.13,4.338-3.075c0-1.926-1.637-2.616-4.338-2.616h-4.557V263.688z"/><g><path fill="#7AC143" d="M682.602,432.812h24.38l1.176-155.764h-25.556v-29.885H844.24l1.97,60.571h-31.858l-2.748-30.686h-60.97	l-0.395,60.96h61.755v29.902H749.85l-0.387,64.9h61.354l3.938-34.63h34.607l-3.933,64.513H682.602V432.812z"/><path fill="#7AC143" d="M1103.431,277.048h-20.446l-76.711,185.646h-44.039l-77.096-185.646h-21.633v-29.885h92.049v29.885h-21.636	l53.092,146.322h0.78l52.708-146.322h-25.948v-29.885h88.88V277.048z"/><path fill="#7AC143" d="M1124.665,432.812h24.38l1.184-155.764h-25.563v-29.885h161.637l1.97,60.571h-31.853l-2.758-30.686h-60.966	l-0.392,60.96h61.755v29.902h-62.139l-0.402,64.9h61.352l3.947-34.63h34.609l-3.938,64.513h-162.821L1124.665,432.812	L1124.665,432.812z"/><path fill="#7AC143" d="M1331.936,432.812h24.38l1.178-155.764h-25.558v-29.885h99.505c49.964,0,66.072,28.714,66.072,56.633	c0,24.781-12.182,47.202-50.737,57.033v0.783c20.057,5.502,25.188,10.621,45.241,45.236c13.357,22.424,18.079,25.963,25.564,25.963	c3.14,0,6.282-0.794,9.04-1.18v31.062h-22.033c-29.109,0-32.626-3.527-55.435-48.773c-20.472-40.113-25.192-42.861-40.925-42.861	h-8.637l-0.401,61.754h25.552v29.882h-92.809v-29.884H1331.936z M1399.99,341.157h16.901c23.196,0,38.921-12.58,38.921-32.632	c0-19.669-9.813-31.476-29.491-31.476h-25.968L1399.99,341.157z"/><path fill="#7AC143" d="M1724.46,277.048h-25.575v-29.885h84.556v29.885h-24.388l-1.178,185.646h-32.25l-115.242-153.39h-0.78	l-1.19,123.508h25.577v29.882h-84.562v-29.882h24.387l1.178-155.765h-25.562v-29.885h63.718l109.339,145.921h0.786L1724.46,277.048	z"/><path fill="#7AC143" d="M1905.757,242.822c74.345,0,106.985,49.167,106.985,108.964c0,68.04-40.522,115.227-106.985,115.227	c-74.339,0-106.983-49.157-106.983-109.32C1798.773,290.044,1839.271,242.822,1905.757,242.822z M1905.757,432.412	c40.105,0,62.914-34.229,62.914-77.884c0-49.148-26.723-77.076-62.914-77.076c-40.123,0-62.93,34.213-62.93,78.66	C1842.827,404.491,1869.573,432.412,1905.757,432.412z"/><path fill="#7AC143" d="M2080.381,432.812h24.368l1.176-155.764h-43.237l-1.607,30.686h-32.614l2.336-60.571h193.141l2.357,60.571	h-32.659l-1.57-30.686h-43.264l-1.182,155.764h25.553v29.883h-92.795v-29.883H2080.381z"/><path fill="#7AC143" d="M2250.264,432.812h24.389l1.19-155.764h-25.579v-29.885h161.672l1.951,60.571h-31.848l-2.752-30.686	h-60.963l-0.394,60.96h61.728v29.902h-62.125l-0.401,64.9h61.352l3.957-34.63h34.587l-3.917,64.513h-162.847V432.812	L2250.264,432.812z"/></g></svg>