<?xml version="1.0" encoding="utf-8"?><!-- Generator: Adobe Illustrator 16.0.0, SVG Export Plug-In . SVG Version: 6.00 Build 0) --><!DOCTYPE svg PUBLIC "-//W3C//DTD SVG 1.1//EN" "http://www.w3.org/Graphics/SVG/1.1/DTD/svg11.dtd"><svg version="1.1" id="Layer_1" xmlns="http://www.w3.org/2000/svg" xmlns:xlink="http://www.w3.org/1999/xlink" x="0px" y="0px" width="165.668px" height="85.623px" viewBox="0 -0.002 165.668 85.623" enable-background="new 0 -0.002 165.668 85.623" xml:space="preserve"><path fill="#ACB2B9" d="M56.917,10.459c0,0,0,0,0.003,0h5.068c0.29-0.001,0.524-0.236,0.525-0.524c0-0.002-0.062-4.346-0.062-5.553	V4.367c0-0.992,0.208-1.856,0.571-2.581l0.173-0.325c-0.02,0.003-0.038,0.012-0.058,0.031l-9.848,9.766	c-0.019,0.015-0.031,0.036-0.037,0.057c0.204-0.101,0.482-0.239,0.521-0.256C54.632,10.671,55.672,10.459,56.917,10.459z M96.353,9.395c-0.402-2.155-1.685-3.217-2.845-3.635c-1.247-0.451-3.782-0.92-6.967-1.295c-2.561-0.302-5.571-0.277-7.391-0.222	c-0.219-1.495-1.269-2.861-2.441-3.334c-3.125-1.258-7.956-0.954-9.195-0.606c-0.986,0.276-2.077,0.84-2.685,1.709	c-0.407,0.582-0.67,1.326-0.672,2.366c0,0.588,0.016,1.975,0.031,3.207c0.015,1.235,0.032,2.341,0.032,2.348	c-0.001,1.1-0.894,1.995-1.998,1.997h-5.069c-1.081,0-1.907,0.182-2.539,0.468c-0.632,0.287-1.08,0.674-1.419,1.131	c-0.677,0.909-0.794,2.03-0.791,3.176c0,0,0.01,0.934,0.235,2.745c0.188,1.401,1.707,11.185,3.148,14.161	c0.56,1.157,0.933,1.641,2.031,2.15c2.449,1.049,8.042,2.215,10.664,2.549c2.616,0.335,4.259,1.038,5.237-1.014	c0.003-0.006,0.195-0.51,0.461-1.253c0.85-2.574,0.969-4.858,0.969-6.512c0-0.168,0.246-0.176,0.246,0	c0,1.167-0.224,5.298,2.896,6.405c1.232,0.437,3.787,0.826,6.385,1.131c2.347,0.271,4.051,1.193,4.051,7.217	c0,3.664-0.771,4.166-4.793,4.166c-3.262,0-4.505,0.084-4.505-2.507c0-2.094,2.071-1.875,3.605-1.875	c0.687,0,0.189-0.51,0.189-1.801c0-1.286,0.804-2.029,0.043-2.048c-5.31-0.146-8.432-0.006-8.432,6.633	c0,6.026,2.307,7.146,9.841,7.146c5.906,0,7.986-0.193,10.427-7.762c0.482-1.493,1.649-6.052,2.356-13.708	C97.908,27.691,97.04,13.082,96.353,9.395z M86.056,25.542c-0.73-0.025-1.433,0.021-2.087,0.126	c0.185-1.487,0.799-3.313,2.974-3.237c2.408,0.083,2.746,2.359,2.754,3.9C88.682,25.879,87.425,25.59,86.056,25.542z"/><path fill="#DDDDDD" d="M163.98,65.146c0.934,0,1.688,0.758,1.688,1.687c0,0.935-0.754,1.692-1.688,1.692	c-0.937,0-1.689-0.758-1.689-1.692C162.291,65.904,163.045,65.146,163.98,65.146z M163.98,68.229c0.754,0,1.371-0.615,1.371-1.396	c0-0.776-0.617-1.392-1.371-1.392c-0.756,0-1.373,0.615-1.373,1.392C162.607,67.613,163.225,68.229,163.98,68.229z M163.26,65.87	h0.742c0.478,0,0.726,0.167,0.726,0.555c0,0.353-0.226,0.5-0.498,0.55l0.52,0.825h-0.362l-0.509-0.811h-0.299V67.8h-0.317v-1.93	H163.26z M163.578,66.695h0.424c0.31,0,0.404-0.104,0.404-0.286c0-0.179-0.152-0.244-0.404-0.244h-0.424V66.695z"/><g><path fill="#ACB2B9" d="M0,82.438H2.27l0.108-14.498H0v-2.782h15.046l0.185,5.638h-2.966l-0.257-2.855H6.333l-0.037,5.675h5.748	v2.782H6.26l-0.035,6.041h5.711l0.365-3.223h3.223l-0.366,6.004H0V82.438z"/><path fill="#ACB2B9" d="M39.171,67.939h-1.902l-7.141,17.278h-4.1l-7.176-17.278h-2.015v-2.782h8.567v2.782h-2.014l4.94,13.619	h0.073l4.906-13.619h-2.416v-2.782h8.272v2.782H39.171z"/><path fill="#ACB2B9" d="M41.146,82.438h2.27l0.11-14.498h-2.38v-2.782h15.046l0.184,5.638h-2.965l-0.257-2.855h-5.675l-0.036,5.675	h5.747v2.782h-5.783l-0.037,6.041h5.711l0.366-3.223h3.222l-0.365,6.004H41.146V82.438z"/><path fill="#ACB2B9" d="M60.439,82.438h2.27l0.109-14.498h-2.379v-2.782h9.262c4.65,0,6.15,2.672,6.15,5.271	c0,2.307-1.136,4.395-4.724,5.309v0.074c1.867,0.512,2.345,0.987,4.211,4.209c1.244,2.088,1.685,2.418,2.379,2.418	c0.294,0,0.587-0.074,0.843-0.11v2.892H76.51c-2.709,0-3.036-0.328-5.159-4.539c-1.904-3.734-2.345-3.99-3.81-3.99h-0.805	l-0.037,5.748h2.379v2.781h-8.639V82.438z M66.773,73.907h1.574c2.157,0,3.623-1.171,3.623-3.039c0-1.83-0.914-2.929-2.746-2.929	h-2.416L66.773,73.907z"/><path fill="#ACB2B9" d="M96.975,67.939h-2.379v-2.782h7.868v2.782h-2.27l-0.109,17.278h-3.002L86.357,70.941h-0.072l-0.111,11.496	h2.382v2.78h-7.871v-2.78h2.27l0.109-14.498h-2.379v-2.782h5.932l10.176,13.582h0.074L96.975,67.939z"/><path fill="#ACB2B9" d="M113.85,64.754c6.92,0,9.959,4.576,9.959,10.141c0,6.334-3.771,10.727-9.959,10.727	c-6.918,0-9.957-4.576-9.957-10.176C103.893,69.148,107.662,64.754,113.85,64.754z M113.85,82.4c3.733,0,5.857-3.187,5.857-7.25	c0-4.575-2.487-7.174-5.857-7.174c-3.734,0-5.857,3.185-5.857,7.321C107.992,79.801,110.482,82.4,113.85,82.4z"/><path fill="#ACB2B9" d="M130.104,82.438h2.27l0.109-14.498h-4.025l-0.147,2.854h-3.037l0.219-5.638h17.976l0.22,5.638h-3.039	l-0.146-2.854h-4.026l-0.109,14.498h2.379v2.78h-8.639v-2.78H130.104z"/><path fill="#ACB2B9" d="M145.918,82.438h2.271l0.108-14.498h-2.379v-2.782h15.047l0.183,5.638h-2.965l-0.257-2.855h-5.674	l-0.037,5.675h5.746v2.782h-5.782l-0.037,6.041h5.711l0.367-3.223h3.221l-0.365,6.004h-15.156L145.918,82.438L145.918,82.438z"/></g></svg>