<?xml version="1.0" encoding="utf-8"?>
<!-- Generator: Adobe Illustrator 18.1.1, SVG Export Plug-In . SVG Version: 6.00 Build 0)  -->
<svg version="1.1" id="Layer_1" xmlns="http://www.w3.org/2000/svg" xmlns:xlink="http://www.w3.org/1999/xlink" x="0px" y="0px"
	 viewBox="-166 208.4 990.6 512" enable-background="new -166 208.4 990.6 512" xml:space="preserve">
<path fill="#ACB2B9" d="M174.3,270.9C174.3,270.9,174.3,270.9,174.3,270.9h30.3c1.7,0,3.1-1.4,3.1-3.1c0,0-0.4-26-0.4-33.2v-0.1
	c0-5.9,1.2-11.1,3.4-15.4l1-1.9c-0.1,0-0.2,0.1-0.3,0.2l-58.9,58.4c-0.1,0.1-0.2,0.2-0.2,0.3c1.2-0.6,2.9-1.4,3.1-1.5
	C160.7,272.2,166.9,270.9,174.3,270.9z M410.2,264.6c-2.4-12.9-10.1-19.2-17-21.7c-7.5-2.7-22.6-5.5-41.7-7.7
	c-15.3-1.8-33.3-1.7-44.2-1.3c-1.3-8.9-7.6-17.1-14.6-19.9c-18.7-7.5-47.6-5.7-55-3.6c-5.9,1.7-12.4,5-16.1,10.2
	c-2.4,3.5-4,7.9-4,14.1c0,3.5,0.1,11.8,0.2,19.2c0.1,7.4,0.2,14,0.2,14c0,6.6-5.3,11.9-11.9,11.9h-30.3c-6.5,0-11.4,1.1-15.2,2.8
	c-3.8,1.7-6.5,4-8.5,6.8c-4,5.4-4.7,12.1-4.7,19c0,0,0.1,5.6,1.4,16.4c1.1,8.4,10.2,66.9,18.8,84.7c3.3,6.9,5.6,9.8,12.1,12.9
	c14.6,6.3,48.1,13.2,63.8,15.2c15.6,2,25.5,6.2,31.3-6.1c0,0,1.2-3,2.8-7.5c5.1-15.4,5.8-29,5.8-38.9c0-1,1.5-1.1,1.5,0
	c0,7-1.3,31.7,17.3,38.3c7.4,2.6,22.6,4.9,38.2,6.8c14,1.6,24.2,7.1,24.2,43.2c0,21.9-4.6,24.9-28.7,24.9c-19.5,0-26.9,0.5-26.9-15
	c0-12.5,12.4-11.2,21.6-11.2c4.1,0,1.1-3,1.1-10.8c0-7.7,4.8-12.1,0.3-12.2c-31.8-0.9-50.4,0-50.4,39.7c0,36,13.8,42.7,58.8,42.7
	c35.3,0,47.8-1.2,62.3-46.4c2.9-8.9,9.9-36.2,14.1-82C419.5,374,414.3,286.6,410.2,264.6z M348.6,361.1c-4.4-0.1-8.6,0.1-12.5,0.8
	c1.1-8.9,4.8-19.8,17.8-19.4c14.4,0.5,16.4,14.1,16.5,23.3C364.3,363.1,356.8,361.4,348.6,361.1z"/>
<path fill="#DDDDDD" d="M814.5,597.9c5.6,0,10.1,4.5,10.1,10.1c0,5.6-4.5,10.1-10.1,10.1c-5.6,0-10.1-4.5-10.1-10.1
	C804.4,602.5,809,597.9,814.5,597.9z M814.5,616.4c4.5,0,8.2-3.7,8.2-8.3c0-4.6-3.7-8.3-8.2-8.3c-4.5,0-8.2,3.7-8.2,8.3
	C806.3,612.7,810,616.4,814.5,616.4z M810.2,602.3h4.4c2.9,0,4.3,1,4.3,3.3c0,2.1-1.4,3-3,3.3l3.1,4.9H817l-3-4.8h-1.8v4.8h-1.9
	L810.2,602.3L810.2,602.3z M812.1,607.2h2.5c1.9,0,2.4-0.6,2.4-1.7c0-1.1-0.9-1.5-2.4-1.5h-2.5V607.2z"/>
<g>
	<path fill="#ACB2B9" d="M-166,701.3h13.6l0.6-86.7H-166V598h90l1.1,33.7h-17.7l-1.5-17.1h-33.9l-0.2,33.9H-94v16.6h-34.6l-0.2,36.1
		h34.1l2.2-19.3h19.3l-2.2,35.9H-166V701.3z"/>
	<path fill="#ACB2B9" d="M68.2,614.6H56.9L14.2,718h-24.5l-42.9-103.3h-12V598h51.2v16.6h-12l29.5,81.4h0.4l29.3-81.4H18.7V598h49.5
		L68.2,614.6L68.2,614.6z"/>
	<path fill="#ACB2B9" d="M80,701.3h13.6l0.7-86.7H80V598h90l1.1,33.7h-17.7l-1.5-17.1h-33.9l-0.2,33.9h34.4v16.6h-34.6l-0.2,36.1
		h34.1l2.2-19.3h19.3l-2.2,35.9H80V701.3z"/>
	<path fill="#ACB2B9" d="M195.4,701.3H209l0.7-86.7h-14.2V598h55.4c27.8,0,36.8,16,36.8,31.5c0,13.8-6.8,26.3-28.2,31.7v0.4
		c11.2,3.1,14,5.9,25.2,25.2c7.4,12.5,10.1,14.5,14.2,14.5c1.8,0,3.5-0.4,5-0.7V718h-12.3c-16.2,0-18.2-2-30.8-27.1
		c-11.4-22.3-14-23.9-22.8-23.9h-4.8l-0.2,34.4h14.2V718h-51.7C195.4,718,195.4,701.3,195.4,701.3z M233.3,650.3h9.4
		c12.9,0,21.7-7,21.7-18.2c0-10.9-5.5-17.5-16.4-17.5h-14.4L233.3,650.3z"/>
	<path fill="#ACB2B9" d="M413.9,614.6h-14.2V598h47v16.6h-13.6L432.5,718h-18l-64.1-85.4H350l-0.7,68.7h14.2V718h-47.1v-16.6H330
		l0.7-86.7h-14.2V598h35.5l60.8,81.2h0.4L413.9,614.6z"/>
	<path fill="#ACB2B9" d="M514.8,595.6c41.4,0,59.6,27.4,59.6,60.6c0,37.9-22.5,64.1-59.6,64.1c-41.4,0-59.5-27.4-59.5-60.8
		C455.2,621.9,477.8,595.6,514.8,595.6z M514.8,701.1c22.3,0,35-19.1,35-43.4c0-27.4-14.9-42.9-35-42.9c-22.3,0-35,19-35,43.8
		C479.8,685.6,494.6,701.1,514.8,701.1z"/>
	<path fill="#ACB2B9" d="M612,701.3h13.6l0.7-86.7h-24.1l-0.9,17.1h-18.2l1.3-33.7h107.5l1.3,33.7H675l-0.9-17.1h-24.1l-0.7,86.7
		h14.2V718H612L612,701.3L612,701.3z"/>
	<path fill="#ACB2B9" d="M706.5,701.3h13.6l0.6-86.7h-14.2V598h90l1.1,33.7h-17.7l-1.5-17.1h-33.9l-0.2,33.9h34.4v16.6H744
		l-0.2,36.1h34.1l2.2-19.3h19.3l-2.2,35.9h-90.6L706.5,701.3L706.5,701.3z"/>
</g>
</svg>
