<?xml version="1.0" encoding="utf-8"?>
<!-- Generator: Adobe Illustrator 18.1.1, SVG Export Plug-In . SVG Version: 6.00 Build 0)  -->
<svg version="1.1" id="Layer_1" xmlns="http://www.w3.org/2000/svg" xmlns:xlink="http://www.w3.org/1999/xlink" x="0px" y="0px"
	 viewBox="48.5 168.4 428.3 512" enable-background="new 48.5 168.4 428.3 512" xml:space="preserve">
<path fill="#808084" d="M91.4,267.4c16.9-2,41.9,6.1,53-4.9c0,0-0.6-41.2-0.6-52.6c0.9-9.2,4.7-21.4,6.5-27.4
	c-31.1,31.1-62.8,61.9-93.6,93.1C67.6,270.8,80.7,267.7,91.4,267.4L91.4,267.4z M465,257.4c-3.8-20.5-16-30.5-26.9-34.5
	c-46.6-12.1-86.3-15.8-136.1-14.4c-9.4-35.3-43.4-39.3-73.4-40.1c-21.6-0.4-49.7,1.6-62.3,19c-11.2,23.1-6.2,52.5-5.8,75.1
	c0,10.4-8.4,19-19,19c-23.9,0.4-49.9-2.6-72.1,4.5c-16.2,8.1-20.9,25.3-20.9,40.8c8,47.9,10.1,111.5,32,160.3
	c5.3,11,8.8,15.5,19.2,20.4c23.2,10,76.2,20.9,101,24.2c24.8,3.1,40.4,9.9,49.7-9.6c8.8-22,13.5-49.4,13.6-73.5c0-1.6,2.4-1.7,2.4,0
	c0,11.1-2.1,50.2,27.5,60.7c11.7,4.2,35.9,7.9,60.5,10.7c22.3,2.6,38.4,11.3,38.4,68.4c0,34.7-7.3,39.5-45.4,39.5
	c-30.9,0-42.6,0.8-42.6-23.8c0-19.8,19.6-17.7,34.2-17.7c6.5,0,1.8-4.8,1.8-17.1c0-12.2,7.6-19.2,0.4-19.4
	c-50.3-1.4-79.9-0.1-79.9,62.8c0,57.1,21.9,67.8,93.3,67.8c56,0,75.7-1.8,98.8-73.5c4.5-14.1,15.6-57.3,22.4-129.9
	c4.3-45.9-4-184.3-10.5-219.3L465,257.4z M347.6,411.6c1.7-14.1,7.6-31.4,28.1-30.7c22.8,0.8,26.1,22.4,26.1,37
	C382.9,410.3,366.2,409.7,347.6,411.6L347.6,411.6z"/>
</svg>
