<?xml version="1.0" encoding="utf-8"?>
<!-- Generator: Adobe Illustrator 16.0.0, SVG Export Plug-In . SVG Version: 6.00 Build 0)  -->
<!DOCTYPE svg PUBLIC "-//W3C//DTD SVG 1.1//EN" "http://www.w3.org/Graphics/SVG/1.1/DTD/svg11.dtd">
<svg version="1.1" id="Layer_1" xmlns="http://www.w3.org/2000/svg" xmlns:xlink="http://www.w3.org/1999/xlink" x="0px" y="0px"
	 width="355px" height="112px" viewBox="27.705 -251 355 112" enable-background="new 27.705 -251 355 112" xml:space="preserve">
<g>
	<g>
		<g>
			<path fill="#4D4D4D" d="M68.731-203.301H43.859c0.114,1.479,0.445,2.788,0.987,3.926c0.545,1.138,1.291,2.146,2.244,3.024
				c0.952,0.877,2.053,1.589,3.304,2.133c1.25,0.546,2.609,0.816,4.071,0.816c2.198,0,4.175-0.58,5.938-1.743
				c1.766-1.162,3.046-2.736,3.842-4.719h3.708c-0.619,1.675-1.367,3.056-2.246,4.146c-1.397,1.74-3.071,3.085-5.024,4.036
				c-1.947,0.951-4.063,1.426-6.336,1.426c-3.904,0-7.224-1.365-9.961-4.097c-2.74-2.732-4.113-6.063-4.113-9.997
				c0-2.618,0.635-5.061,1.904-7.329c1.267-2.268,3.038-4.043,5.317-5.328c2.273-1.283,4.622-1.926,7.047-1.926
				c2.403,0,4.736,0.643,6.996,1.926c2.259,1.285,4.028,3.072,5.303,5.364c1.275,2.292,1.916,4.682,1.916,7.17
				C68.756-204.195,68.748-203.804,68.731-203.301z M65.197-206.447c-0.277-1.398-0.662-2.581-1.162-3.548
				c-0.493-0.967-1.188-1.886-2.083-2.756c-0.895-0.869-1.986-1.592-3.28-2.17c-1.294-0.577-2.677-0.865-4.158-0.865
				c-1.446,0-2.792,0.268-4.037,0.804c-1.242,0.537-2.328,1.223-3.255,2.061c-0.925,0.837-1.655,1.784-2.181,2.841
				c-0.529,1.057-0.922,2.268-1.183,3.633H65.197z"/>
		</g>
		<g>
			<path fill="#4D4D4D" d="M79.753-190.913l-11.534-27.312h3.754l9.636,22.971l9.776-22.971h3.755l-11.535,27.312L79.753-190.913
				L79.753-190.913z"/>
		</g>
		<g>
			<path fill="#4D4D4D" d="M94.602-204.398c0-2.048,0.375-3.95,1.124-5.706c0.749-1.755,1.738-3.251,2.973-4.487
				c1.237-1.236,2.604-2.211,4.099-2.926c1.935-0.943,3.966-1.415,6.095-1.415c2.439,0,4.785,0.638,7.037,1.914
				c2.251,1.277,4.021,3.061,5.301,5.353c1.286,2.292,1.929,4.649,1.929,7.072s-0.638,4.78-1.916,7.072
				c-1.277,2.292-3.041,4.076-5.292,5.352c-2.251,1.277-4.612,1.914-7.083,1.914c-1.755,0-3.435-0.308-5.035-0.927
				c-1.603-0.617-3.02-1.474-4.256-2.571c-1.234-1.097-2.192-2.215-2.875-3.353c-0.684-1.138-1.205-2.329-1.563-3.572
				C94.782-201.923,94.602-203.163,94.602-204.398z M98.091-204.447c0,1.901,0.466,3.719,1.403,5.45
				c0.936,1.732,2.275,3.097,4.023,4.098c1.747,1,3.54,1.499,5.377,1.499c1.839,0,3.607-0.483,5.317-1.449
				c1.706-0.967,3.043-2.329,4.009-4.086c0.969-1.755,1.454-3.666,1.454-5.73c0-2.097-0.494-3.995-1.476-5.694
				c-0.985-1.698-2.349-3.027-4.096-3.986c-1.75-0.959-3.494-1.439-5.233-1.439c-1.755,0-3.516,0.5-5.279,1.5
				c-1.764,1-3.123,2.377-4.072,4.132C98.568-208.397,98.091-206.495,98.091-204.447z"/>
		</g>
		<g>
			<path fill="#4D4D4D" d="M128.452-190.913v-36.968h3.485v36.967L128.452-190.913L128.452-190.913z"/>
		</g>
		<g>
			<path fill="#4D4D4D" d="M162.225-218.225v27.312h-3.293v-4.243h-0.098c-0.83,1.545-1.991,2.747-3.488,3.609
				c-1.495,0.862-3.282,1.292-5.363,1.292c-2.097,0-3.979-0.406-5.645-1.22c-1.666-0.812-2.987-1.869-3.963-3.169
				c-0.632-0.845-1.137-1.967-1.511-3.365c-0.374-1.396-0.562-3.112-0.562-5.145v-15.07h3.486v15.021
				c0,3.398,0.732,5.881,2.197,7.449c1.462,1.569,3.519,2.353,6.169,2.353c1.413,0,2.664-0.268,3.754-0.804
				c1.091-0.537,2.051-1.317,2.878-2.341c0.535-0.649,0.996-1.576,1.378-2.78c0.383-1.202,0.572-2.689,0.572-4.462v-14.436H162.225z
				"/>
		</g>
		<g>
			<path fill="#4D4D4D" d="M172-190.913v-24.167h-5.729v-3.145H172v-9.656h3.51v9.656h6.536v3.145h-6.536v24.167L172-190.913
				L172-190.913z"/>
		</g>
		<g>
			<path fill="#4D4D4D" d="M185.729-221.59v-6.291h3.489v6.291H185.729z M185.729-190.913v-27.312h3.489v27.312L185.729-190.913
				L185.729-190.913z"/>
		</g>
		<g>
			<path fill="#4D4D4D" d="M194.582-204.398c0-2.048,0.375-3.95,1.12-5.706c0.749-1.755,1.739-3.251,2.976-4.487
				c1.238-1.236,2.602-2.211,4.097-2.926c1.937-0.943,3.966-1.415,6.095-1.415c2.439,0,4.783,0.638,7.037,1.914
				c2.251,1.277,4.018,3.061,5.303,5.353c1.284,2.292,1.926,4.649,1.926,7.072s-0.638,4.78-1.916,7.072
				c-1.275,2.292-3.039,4.076-5.291,5.352c-2.254,1.277-4.614,1.914-7.085,1.914c-1.754,0-3.435-0.308-5.035-0.927
				c-1.601-0.617-3.02-1.474-4.253-2.571c-1.237-1.097-2.195-2.215-2.879-3.353c-0.681-1.138-1.205-2.329-1.56-3.572
				C194.76-201.923,194.582-203.163,194.582-204.398z M198.07-204.447c0,1.901,0.467,3.719,1.4,5.45
				c0.935,1.732,2.278,3.097,4.025,4.098c1.747,1,3.537,1.499,5.374,1.499c1.837,0,3.611-0.483,5.317-1.449
				c1.706-0.967,3.043-2.329,4.012-4.086c0.966-1.755,1.448-3.666,1.448-5.73c0-2.097-0.49-3.995-1.473-5.694
				c-0.984-1.698-2.349-3.027-4.099-3.986c-1.746-0.959-3.491-1.439-5.23-1.439c-1.755,0-3.516,0.5-5.279,1.5
				s-3.12,2.377-4.069,4.132C198.545-208.397,198.07-206.495,198.07-204.447z"/>
		</g>
		<g>
			<path fill="#4D4D4D" d="M228.428-190.913v-27.312h3.486v3.487h0.098c1.901-2.796,4.788-4.194,8.656-4.194
				c1.836,0,3.499,0.334,4.986,1c1.489,0.667,2.794,1.618,3.914,2.852c0.732,0.83,1.332,1.879,1.804,3.147
				c0.716,1.853,1.074,3.852,1.074,5.997v15.022h-3.488v-15.022c0-2.194-0.393-4.043-1.183-5.547
				c-0.787-1.502-1.872-2.596-3.255-3.28c-1.381-0.682-2.753-1.024-4.121-1.024c-1.446,0-2.873,0.378-4.278,1.134
				c-1.408,0.755-2.46,1.865-3.157,3.329c-0.7,1.48-1.05,3.275-1.05,5.388v15.022L228.428-190.913L228.428-190.913z"/>
		</g>
		<g>
			<path fill="#4D4D4D" d="M275.903-211.08h-6.486c-0.195-0.861-0.515-1.48-0.963-1.853c-0.448-0.375-1.003-0.562-1.671-0.562
				c-0.749,0-1.361,0.236-1.841,0.707c-0.478,0.472-0.719,1.042-0.719,1.708c0,0.553,0.195,1.024,0.586,1.415
				c0.391,0.39,1.397,0.829,3.024,1.317c2.517,0.78,4.311,1.482,5.376,2.108c1.063,0.625,1.904,1.503,2.523,2.633
				c0.618,1.129,0.927,2.458,0.927,3.987c0,2.716-0.93,4.994-2.793,6.84c-1.861,1.845-4.181,2.767-6.961,2.767
				c-1.69,0-3.206-0.305-4.546-0.915c-1.343-0.609-2.415-1.349-3.221-2.219c-0.805-0.87-1.405-1.813-1.804-2.829
				c-0.398-1.015-0.645-2.238-0.743-3.669h6.803c0.307,1.301,0.76,2.214,1.352,2.742c0.594,0.529,1.345,0.794,2.257,0.794
				c0.893,0,1.622-0.273,2.181-0.818c0.562-0.544,0.844-1.208,0.844-1.987s-0.258-1.386-0.771-1.816
				c-0.51-0.431-1.579-0.947-3.207-1.549c-2.373-0.845-3.982-1.537-4.826-2.072c-1.221-0.764-2.132-1.671-2.732-2.72
				c-0.602-1.048-0.903-2.255-0.903-3.62c0-1.658,0.401-3.173,1.207-4.548c0.806-1.374,1.942-2.439,3.416-3.195
				c1.47-0.755,3.002-1.134,4.595-1.134c1.43,0,2.727,0.277,3.89,0.83c1.162,0.552,2.114,1.219,2.854,2
				c0.738,0.78,1.293,1.622,1.668,2.524C275.593-213.31,275.821-212.267,275.903-211.08z"/>
		</g>
		<g>
			<path fill="#4D4D4D" d="M280.271-221.785v-6.096h6.633v6.095L280.271-221.785L280.271-221.785z M280.271-190.913v-27.726h6.633
				v27.726L280.271-190.913L280.271-190.913z"/>
		</g>
		<g>
			<path fill="#4D4D4D" d="M314.285-218.639h6.438v22.629c0,5.495-1.65,9.738-4.951,12.728c-2.716,2.438-6.006,3.658-9.875,3.658
				c-2.52,0-4.776-0.452-6.768-1.353c-1.992-0.902-3.622-2.068-4.889-3.5c-0.96-1.105-1.82-2.552-2.585-4.34h7.609
				c0.925,1.04,1.836,1.781,2.729,2.219c1.172,0.586,2.479,0.877,3.928,0.877c1.364,0,2.604-0.264,3.719-0.792
				c1.112-0.529,2.016-1.183,2.704-1.962c0.691-0.78,1.213-1.626,1.563-2.537c0.348-0.91,0.573-2.023,0.67-3.341l-0.098-0.097
				c-2.162,2.959-5.138,4.438-8.925,4.438c-2.422,0-4.777-0.654-7.059-1.963c-2.284-1.309-4.068-3.133-5.354-5.474
				c-1.283-2.341-1.926-4.845-1.926-7.511c0-2.258,0.404-4.259,1.208-5.998c0.806-1.74,1.792-3.19,2.962-4.353
				c1.172-1.162,2.455-2.093,3.854-2.792c1.967-0.975,4.022-1.463,6.169-1.463c1.788,0,3.445,0.358,4.975,1.075
				c1.527,0.714,2.794,1.804,3.803,3.267h0.097v-3.415H314.285z M314.089-205.056c0-1.089-0.252-2.228-0.756-3.415
				c-0.372-0.879-0.906-1.691-1.596-2.438c-0.691-0.748-1.53-1.366-2.512-1.854c-0.984-0.487-2.126-0.731-3.427-0.731
				c-2.194,0-4.069,0.809-5.62,2.427c-1.554,1.618-2.331,3.662-2.331,6.132c0,1.643,0.375,3.151,1.124,4.523
				c0.746,1.374,1.779,2.435,3.095,3.183c1.318,0.748,2.667,1.122,4.05,1.122c1.169,0,2.23-0.236,3.182-0.708
				c0.95-0.471,1.779-1.089,2.488-1.853c0.705-0.764,1.267-1.695,1.682-2.792C313.883-202.558,314.089-203.755,314.089-205.056z"/>
		</g>
		<g>
			<path fill="#4D4D4D" d="M325.285-190.913v-27.726h6.144v2.415c1.203-1.171,2.402-2.021,3.597-2.549
				c1.194-0.529,2.54-0.793,4.037-0.793c1.901,0,3.665,0.447,5.29,1.341c1.627,0.895,2.894,1.992,3.805,3.292
				c0.698,1.009,1.186,2.26,1.462,3.756c0.195,1.073,0.293,2.837,0.293,5.291v14.973h-6.657v-13.68c0-2.52-0.171-4.349-0.513-5.486
				c-0.358-1.138-0.953-1.991-1.779-2.561c-0.83-0.569-1.836-0.853-3.024-0.853c-1.284,0-2.417,0.337-3.402,1.011
				c-0.982,0.676-1.663,1.565-2.035,2.671c-0.391,1.122-0.585,3.023-0.585,5.706v13.192L325.285-190.913L325.285-190.913z"/>
		</g>
		<g>
			<path fill="#4D4D4D" d="M372.809-211.08h-6.486c-0.194-0.861-0.515-1.48-0.963-1.853c-0.447-0.375-1.004-0.562-1.671-0.562
				c-0.749,0-1.362,0.236-1.842,0.707c-0.478,0.472-0.719,1.042-0.719,1.708c0,0.553,0.195,1.024,0.586,1.415
				c0.391,0.39,1.397,0.829,3.024,1.317c2.518,0.78,4.311,1.482,5.376,2.108c1.064,0.625,1.904,1.503,2.523,2.633
				c0.618,1.129,0.928,2.458,0.928,3.987c0,2.716-0.93,4.994-2.794,6.84c-1.86,1.845-4.181,2.767-6.961,2.767
				c-1.69,0-3.207-0.305-4.546-0.915c-1.344-0.609-2.415-1.349-3.221-2.219s-1.405-1.813-1.804-2.829
				c-0.398-1.015-0.645-2.238-0.743-3.669h6.803c0.307,1.301,0.761,2.214,1.352,2.742c0.594,0.529,1.345,0.794,2.257,0.794
				c0.893,0,1.622-0.273,2.181-0.818c0.562-0.544,0.844-1.208,0.844-1.987s-0.258-1.386-0.771-1.816
				c-0.51-0.431-1.579-0.947-3.207-1.549c-2.373-0.845-3.982-1.537-4.825-2.072c-1.221-0.764-2.132-1.671-2.732-2.72
				c-0.601-1.048-0.903-2.255-0.903-3.62c0-1.658,0.402-3.173,1.207-4.548c0.806-1.374,1.943-2.439,3.416-3.195
				c1.47-0.755,3.003-1.134,4.596-1.134c1.43,0,2.727,0.277,3.889,0.83c1.162,0.552,2.114,1.219,2.854,2
				c0.738,0.78,1.294,1.622,1.668,2.524C372.499-213.311,372.728-212.267,372.809-211.08z"/>
		</g>
	</g>
	<g>
		<path fill="#4D4D4D" d="M184.756-162.461c-0.537-0.012-0.979-0.06-1.327-0.14c-0.347-0.082-0.653-0.198-0.922-0.35
			c-0.269-0.152-0.613-0.413-1.034-0.782c-0.634,0.389-1.239,0.676-1.814,0.865c-0.844,0.272-1.707,0.407-2.596,0.407
			c-1.188,0-2.276-0.22-3.255-0.661c-0.982-0.439-1.796-0.984-2.441-1.636c-0.643-0.651-1.142-1.352-1.497-2.102
			c-0.488-1.004-0.73-2.066-0.73-3.186c0-1.308,0.34-2.57,1.015-3.787c0.675-1.218,1.63-2.166,2.856-2.846
			c1.226-0.68,2.575-1.02,4.045-1.02c1.462,0,2.813,0.336,4.05,1.009c1.234,0.674,2.194,1.614,2.87,2.821
			c0.676,1.208,1.015,2.492,1.015,3.853c0,1.113-0.214,2.111-0.646,2.996c-0.431,0.883-1.025,1.692-1.782,2.423
			c0.364,0.311,0.697,0.521,1.003,0.631c0.31,0.111,0.705,0.165,1.191,0.165L184.756-162.461L184.756-162.461z M170.867-168.27
			c0.57-0.18,1.091-0.311,1.565-0.388c0.472-0.077,0.985-0.117,1.543-0.117c0.662,0,1.286,0.056,1.875,0.166
			c0.588,0.109,1.175,0.275,1.758,0.495c0.583,0.227,1.169,0.534,1.758,0.922c0.589,0.389,1.297,0.936,2.127,1.641
			c0.662-0.666,1.164-1.366,1.511-2.098c0.345-0.732,0.518-1.535,0.518-2.409c0-1.106-0.282-2.157-0.844-3.152
			c-0.564-0.993-1.356-1.769-2.379-2.326c-1.022-0.557-2.091-0.835-3.204-0.835c-0.998,0-1.958,0.22-2.875,0.661
			c-0.635,0.304-1.216,0.706-1.736,1.208s-0.944,1.093-1.267,1.773c-0.401,0.854-0.599,1.781-0.599,2.778
			C170.618-169.404,170.699-168.845,170.867-168.27z M171.469-167.016c0.538,0.964,1.302,1.742,2.292,2.332
			c0.99,0.588,2.13,0.883,3.421,0.883c1.248,0,2.301-0.317,3.155-0.952c-0.603-0.517-1.12-0.922-1.554-1.214
			c-0.439-0.291-0.917-0.548-1.438-0.772c-0.516-0.223-1.09-0.395-1.714-0.514c-0.624-0.121-1.25-0.181-1.877-0.181
			C172.913-167.434,172.15-167.294,171.469-167.016z"/>
		<path fill="#4D4D4D" d="M195.837-173.602v10.878h-1.313v-1.69h-0.038c-0.331,0.616-0.792,1.095-1.389,1.437
			c-0.597,0.343-1.308,0.515-2.137,0.515c-0.836,0-1.584-0.162-2.247-0.486c-0.665-0.323-1.191-0.745-1.579-1.263
			c-0.252-0.336-0.453-0.783-0.603-1.34c-0.149-0.556-0.223-1.24-0.223-2.05v-6.002h1.389v5.983c0,1.354,0.291,2.342,0.874,2.967
			c0.581,0.624,1.4,0.937,2.458,0.937c0.564,0,1.061-0.107,1.495-0.321c0.434-0.213,0.816-0.523,1.147-0.932
			c0.211-0.26,0.396-0.628,0.548-1.106c0.152-0.48,0.228-1.071,0.228-1.778v-5.75H195.837z"/>
		<path fill="#4D4D4D" d="M209.521-173.602v10.878h-1.397v-1.914h-0.04c-0.296,0.415-0.573,0.735-0.825,0.962
			c-0.415,0.357-0.912,0.648-1.495,0.875c-0.583,0.226-1.256,0.339-2.02,0.339c-1.121,0-2.117-0.252-2.992-0.757
			c-0.874-0.506-1.549-1.211-2.029-2.117c-0.48-0.907-0.719-1.852-0.719-2.836c0-0.997,0.252-1.948,0.756-2.851
			c0.508-0.902,1.213-1.604,2.125-2.107c0.908-0.502,1.888-0.753,2.937-0.753c0.692,0,1.327,0.104,1.902,0.315
			c0.578,0.211,1.077,0.5,1.498,0.869c0.291,0.248,0.579,0.581,0.863,1.001h0.04v-1.905H209.521z M199.391-168.133
			c0,0.783,0.185,1.52,0.553,2.21c0.37,0.689,0.903,1.23,1.598,1.622c0.697,0.392,1.443,0.588,2.238,0.588
			c0.798,0,1.541-0.193,2.23-0.578c0.689-0.386,1.229-0.927,1.617-1.622c0.388-0.696,0.584-1.439,0.584-2.229
			c0-0.798-0.196-1.55-0.589-2.259c-0.391-0.709-0.928-1.259-1.605-1.646c-0.681-0.388-1.414-0.583-2.195-0.583
			c-0.42,0-0.821,0.055-1.204,0.163c-0.383,0.105-0.751,0.26-1.104,0.461s-0.692,0.477-1.02,0.83
			c-0.326,0.353-0.591,0.797-0.794,1.331C199.495-169.312,199.391-168.741,199.391-168.133z"/>
		<path fill="#4D4D4D" d="M212.046-162.723v-14.723h1.389v14.723H212.046z"/>
		<path fill="#4D4D4D" d="M216.029-174.941v-2.505h1.389v2.505H216.029z M216.029-162.723v-10.878h1.389v10.878H216.029z"/>
		<path fill="#4D4D4D" d="M221.283-162.723v-9.625h-2.282v-1.253h2.282v-3.845h1.397v3.845h2.604v1.253h-2.604v9.625H221.283z"/>
		<path fill="#4D4D4D" d="M228.789-158.906l1.886-4.176l-4.235-10.519h1.476l3.456,8.674l3.702-8.674h1.465l-6.302,14.695H228.789
			L228.789-158.906z"/>
		<path fill="#4D4D4D" d="M242.746-166.841h1.476c0.038,0.621,0.182,1.163,0.429,1.622c0.244,0.46,0.602,0.811,1.072,1.054
			c0.469,0.243,0.971,0.363,1.5,0.363c0.551,0,1.063-0.122,1.541-0.369c0.475-0.246,0.841-0.597,1.096-1.054
			c0.257-0.456,0.385-0.947,0.385-1.472c0-0.44-0.077-0.832-0.229-1.174c-0.152-0.344-0.366-0.636-0.642-0.874
			c-0.274-0.241-0.646-0.464-1.113-0.672c-0.276-0.122-0.781-0.294-1.514-0.514c-0.737-0.226-1.23-0.399-1.476-0.515
			c-0.494-0.232-0.895-0.507-1.204-0.825c-0.313-0.318-0.543-0.679-0.694-1.084c-0.152-0.404-0.228-0.872-0.228-1.402
			c0-0.7,0.173-1.358,0.523-1.977c0.351-0.618,0.85-1.102,1.495-1.447c0.648-0.347,1.351-0.52,2.108-0.52
			c1.153,0,2.113,0.376,2.886,1.125c0.771,0.751,1.171,1.71,1.202,2.876h-1.476c-0.024-0.777-0.293-1.417-0.8-1.918
			c-0.507-0.502-1.123-0.753-1.841-0.753c-0.744,0-1.368,0.248-1.87,0.748s-0.751,1.107-0.751,1.825c0,0.693,0.222,1.22,0.665,1.579
			c0.445,0.359,1.205,0.698,2.282,1.02c1.08,0.32,1.831,0.613,2.259,0.879c0.575,0.375,1.037,0.867,1.378,1.475
			c0.345,0.609,0.515,1.287,0.515,2.029c0,0.765-0.192,1.488-0.577,2.172c-0.386,0.684-0.926,1.217-1.623,1.602
			c-0.697,0.386-1.446,0.579-2.249,0.579c-0.543,0-1.077-0.086-1.603-0.262c-0.524-0.175-0.979-0.416-1.364-0.723
			s-0.689-0.649-0.917-1.025c-0.225-0.375-0.391-0.764-0.493-1.165C242.813-165.941,242.765-166.342,242.746-166.841z"/>
		<path fill="#4D4D4D" d="M254.779-162.723v-9.625h-2.281v-1.253h2.281v-3.845h1.397v3.845h2.604v1.253h-2.604v9.625H254.779z"/>
		<path fill="#4D4D4D" d="M270.396-173.602v10.878h-1.4v-1.914h-0.038c-0.298,0.415-0.573,0.735-0.825,0.962
			c-0.415,0.357-0.914,0.648-1.498,0.875c-0.583,0.226-1.256,0.339-2.018,0.339c-1.121,0-2.119-0.252-2.992-0.757
			c-0.873-0.506-1.552-1.211-2.029-2.117c-0.48-0.907-0.719-1.852-0.719-2.836c0-0.997,0.252-1.948,0.757-2.851
			c0.504-0.902,1.212-1.604,2.121-2.107c0.909-0.502,1.891-0.753,2.938-0.753c0.695,0,1.327,0.104,1.904,0.315
			c0.575,0.211,1.074,0.5,1.495,0.869c0.293,0.248,0.581,0.581,0.865,1.001h0.038v-1.905H270.396z M260.267-168.133
			c0,0.783,0.185,1.52,0.553,2.21c0.369,0.689,0.9,1.23,1.598,1.622c0.694,0.392,1.44,0.588,2.238,0.588
			c0.795,0,1.538-0.193,2.229-0.578c0.689-0.386,1.227-0.927,1.617-1.622c0.387-0.696,0.581-1.439,0.581-2.229
			c0-0.798-0.196-1.55-0.586-2.259c-0.394-0.709-0.928-1.259-1.609-1.646c-0.678-0.388-1.41-0.583-2.194-0.583
			c-0.42,0-0.821,0.055-1.205,0.163c-0.382,0.105-0.749,0.26-1.101,0.461c-0.353,0.2-0.695,0.477-1.021,0.83
			c-0.328,0.353-0.591,0.797-0.797,1.331C260.367-169.312,260.267-168.741,260.267-168.133z"/>
		<path fill="#4D4D4D" d="M272.921-162.723v-10.878h1.389v1.389h0.038c0.757-1.114,1.907-1.669,3.448-1.669
			c0.732,0,1.394,0.133,1.986,0.397c0.595,0.266,1.113,0.645,1.56,1.137c0.29,0.331,0.532,0.747,0.719,1.253
			c0.285,0.738,0.426,1.534,0.426,2.389v5.983h-1.389v-5.983c0-0.873-0.154-1.61-0.469-2.209c-0.315-0.599-0.747-1.033-1.297-1.307
			c-0.551-0.271-1.099-0.408-1.641-0.408c-0.578,0-1.145,0.151-1.707,0.452c-0.559,0.301-0.979,0.743-1.256,1.327
			c-0.279,0.588-0.417,1.305-0.417,2.146v5.983L272.921-162.723L272.921-162.723z"/>
		<path fill="#4D4D4D" d="M296.056-177.446v14.723h-1.399v-1.914h-0.039c-0.304,0.427-0.591,0.755-0.866,0.982
			c-0.445,0.369-0.958,0.661-1.532,0.873c-0.578,0.214-1.21,0.32-1.896,0.32c-1.617,0-2.986-0.549-4.106-1.651
			c-1.121-1.1-1.68-2.425-1.68-3.973c0-1.055,0.252-2.031,0.756-2.933c0.505-0.899,1.213-1.602,2.122-2.107
			c0.912-0.504,1.88-0.757,2.908-0.757c0.985,0,1.875,0.223,2.672,0.67c0.583,0.329,1.123,0.822,1.622,1.476h0.039v-5.71
			L296.056-177.446L296.056-177.446z M294.743-168.152c0-0.731-0.179-1.453-0.543-2.166c-0.363-0.712-0.889-1.276-1.584-1.69
			c-0.692-0.415-1.457-0.623-2.292-0.623c-0.794,0-1.535,0.192-2.219,0.578c-0.681,0.387-1.215,0.928-1.601,1.628
			c-0.386,0.698-0.579,1.459-0.579,2.282c0,0.815,0.19,1.567,0.573,2.253c0.382,0.687,0.917,1.221,1.606,1.602
			c0.691,0.383,1.432,0.574,2.229,0.574s1.541-0.199,2.232-0.593c0.694-0.395,1.229-0.938,1.608-1.632
			C294.555-166.631,294.743-167.368,294.743-168.152z"/>
		<path fill="#4D4D4D" d="M297.862-165.947h1.389c0.024,0.472,0.092,0.841,0.204,1.106c0.149,0.369,0.374,0.649,0.675,0.84
			c0.301,0.191,0.668,0.287,1.102,0.287c0.621,0,1.109-0.175,1.468-0.524c0.355-0.351,0.534-0.813,0.534-1.389
			c0-0.493-0.141-0.906-0.423-1.243c-0.282-0.338-0.876-0.66-1.782-0.973c-0.719-0.252-1.229-0.471-1.525-0.659
			c-0.434-0.285-0.763-0.619-0.987-1.001c-0.223-0.382-0.333-0.829-0.333-1.34c0-0.875,0.29-1.6,0.868-2.176
			c0.58-0.577,1.308-0.864,2.181-0.864c0.597,0,1.134,0.143,1.612,0.427c0.48,0.285,0.849,0.679,1.106,1.184
			c0.168,0.331,0.266,0.781,0.293,1.351h-1.389c-0.059-0.564-0.235-0.989-0.535-1.277c-0.298-0.288-0.667-0.433-1.106-0.433
			c-0.467,0-0.857,0.158-1.172,0.472c-0.312,0.313-0.469,0.697-0.469,1.149c0,0.299,0.076,0.563,0.228,0.796
			c0.151,0.233,0.371,0.427,0.656,0.583c0.22,0.124,0.553,0.263,0.998,0.418c0.792,0.271,1.361,0.518,1.709,0.738
			c0.48,0.304,0.844,0.676,1.088,1.112c0.247,0.437,0.369,0.982,0.369,1.636c0,0.609-0.135,1.169-0.407,1.681
			c-0.271,0.511-0.668,0.903-1.185,1.176c-0.518,0.271-1.096,0.407-1.739,0.407c-0.612,0-1.147-0.114-1.601-0.345
			c-0.453-0.23-0.813-0.505-1.083-0.825c-0.271-0.321-0.461-0.66-0.575-1.02C297.919-165.009,297.862-165.443,297.862-165.947z"/>
		<path fill="#4D4D4D" d="M311.467-170.006c0-1.063,0.195-2.052,0.589-2.972c0.391-0.92,0.914-1.707,1.567-2.36
			c0.654-0.653,1.387-1.176,2.195-1.563c1.097-0.532,2.24-0.796,3.439-0.796c1.113,0,2.154,0.217,3.123,0.649
			c0.968,0.435,1.774,0.979,2.423,1.632c0.648,0.655,1.149,1.36,1.505,2.118c0.491,1.01,0.738,2.081,0.738,3.214
			c0,1.088-0.209,2.088-0.626,2.997c-0.418,0.91-0.95,1.68-1.598,2.313c-0.646,0.631-1.359,1.138-2.136,1.52
			c-1.096,0.531-2.24,0.796-3.439,0.796c-1.131,0-2.22-0.239-3.263-0.719c-0.855-0.4-1.606-0.921-2.252-1.559
			c-0.648-0.638-1.15-1.323-1.506-2.054C311.719-167.829,311.467-168.899,311.467-170.006z M312.942-170.006
			c0,0.892,0.2,1.764,0.602,2.612c0.293,0.614,0.703,1.189,1.231,1.724c0.526,0.535,1.175,0.979,1.943,1.334
			c0.765,0.357,1.614,0.535,2.539,0.535c1.08,0,2.125-0.279,3.131-0.84c1.009-0.56,1.791-1.332,2.346-2.316
			c0.557-0.983,0.836-2.02,0.836-3.107c0-0.687-0.114-1.36-0.338-2.021c-0.229-0.66-0.538-1.242-0.934-1.747
			c-0.396-0.506-0.835-0.941-1.321-1.308c-0.486-0.365-1.05-0.662-1.69-0.888c-0.64-0.227-1.318-0.34-2.029-0.34
			c-0.952,0-1.855,0.207-2.71,0.621c-0.659,0.317-1.267,0.751-1.814,1.301c-0.551,0.55-0.988,1.213-1.308,1.987
			C313.105-171.686,312.942-170.868,312.942-170.006z"/>
		<path fill="#4D4D4D" d="M338.662-173.602v10.878h-1.31v-1.69h-0.041c-0.331,0.616-0.792,1.095-1.389,1.437
			c-0.594,0.343-1.308,0.515-2.135,0.515c-0.836,0-1.587-0.162-2.249-0.486c-0.664-0.323-1.19-0.745-1.579-1.263
			c-0.252-0.336-0.453-0.783-0.602-1.34c-0.149-0.556-0.223-1.24-0.223-2.05v-6.002h1.389v5.983c0,1.354,0.29,2.342,0.873,2.967
			c0.584,0.624,1.402,0.937,2.458,0.937c0.562,0,1.062-0.107,1.495-0.321c0.434-0.213,0.816-0.523,1.145-0.932
			c0.214-0.26,0.398-0.628,0.551-1.106c0.152-0.48,0.228-1.071,0.228-1.778v-5.75H338.662z"/>
		<path fill="#4D4D4D" d="M342.557-162.723v-9.625h-2.281v-1.253h2.281v-3.845h1.4v3.845h2.602v1.253h-2.602v9.625H342.557z"/>
		<path fill="#4D4D4D" d="M350.044-170.085v-6.583h-1.738v-0.777h4.389v0.777h-1.739v6.583H350.044z M353.646-170.085v-7.361h1.291
			l2.721,6.052l2.71-6.052h1.31v7.361h-0.922v-6.157l-2.721,6.157h-0.765l-2.71-6.157v6.157H353.646z"/>
	</g>
</g>
</svg>
