<?xml version="1.0" encoding="utf-8"?>
<!-- Generator: Adobe Illustrator 18.1.1, SVG Export Plug-In . SVG Version: 6.00 Build 0)  -->
<svg version="1.1" id="Layer_1" xmlns="http://www.w3.org/2000/svg" xmlns:xlink="http://www.w3.org/1999/xlink" x="0px" y="0px"
	 viewBox="-153 154.2 512 512" enable-background="new -153 154.2 512 512" xml:space="preserve">
<g>
	<polygon fill="#FFFFFF" points="-153,154.2 359,154.2 359,666.2 -153,666.2 	"/>
	<path d="M73.9,345.3l-0.9,4.4c0,0-69.2-10.3-71.1-58.9h0.8C6.1,339.8,73.9,345.3,73.9,345.3L73.9,345.3z M126.7,338.9l-0.7-3.5
		c-24.9,0.7-63.9,1.9-83.1-5.6C60.5,339.2,89.7,338.9,126.7,338.9L126.7,338.9z M10.5,335c0,49,39.6,88.6,88.5,88.6
		c48.9,0,88.5-39.7,88.5-88.6c0-48.9-39.6-88.6-88.5-88.6c-33.6,0-62.9,18.8-77.9,46.5c7.9,12.7,32.7,20.6,62.5,21.4
		c4.2-8,21.8-36.7,33.4-35c9.7,1.4,9.3,21.2,8.2,33.3c2.6,0.1,4.1,2.7,4.4,5.9c0.2,1.9-0.1,3.2-0.1,3.2c21.9-1.5,31.4,4.3,30.7,15.2
		c-0.6,9.8-17,18.9-45.3,19c1.4,1.4,2.3,3.4,2.4,5.7c0.2,4.2-2.5,7.7-5.9,7.9c0,0-4.3,0-6,0c-10.2,14.9-20.1,31.7-32.3,28.3
		c-8.4-2.4-7.4-23.4-6.4-35.2C30.6,357.5,10.5,335,10.5,335L10.5,335z M1.4,337.5c0-4.6,0.3-9.1,0.9-13.5
		c-11.7-18.1-8-42.9-1.3-51.8h0.8c-15.6,31.2,9.8,74.7,69.6,83.5c0,0-5.7,38.4,3,39.5c14.3,1.8,39.8-47.4,39.8-47.4
		c25.2,1.6,42.9-5.4,43.1-11.3c0.3-11.4-13.1-11.2-17.2-11.7c-19.5-2.5-97.6,22.3-128-24.5H13c27.8,41,105.1,22.5,105.1,22.5
		c1.3-4.8,11.2-39.6-1.9-41.2c-10.1-1.2-29.9,38.3-29.9,38.3C5.9,317.9-1.7,269,34.2,251h1.8c-8.8,4.5-22.2,18.1-18.6,33.3
		C34.6,258.2,64.1,241,97.8,241c53.2,0,96.4,43.2,96.4,96.5c0,53.3-43.1,96.5-96.4,96.5C44.5,434,1.4,390.8,1.4,337.5L1.4,337.5z
		 M139.2,339c0,0-1.3,0-3.7,0l-0.7-3.5c2.4,0,3.7,0,3.7,0L139.2,339L139.2,339z M132.9,339l-0.7-3.5l-3.3,0l0.7,3.5L132.9,339
		L132.9,339z M129.8,260.7c4.1,1.8,8,4,11.6,6.4l-2.8,4.2c-3.2-2.7-6.6-5.2-10.1-7.4L129.8,260.7L129.8,260.7z M147.1,271.1
		l-3.6,4.5c23.8,23.2,33.5,58.8,22.5,92.2l4.2,2c1-2.2,2-4.6,2.9-6.9C185.2,329.1,173.8,292.4,147.1,271.1L147.1,271.1z
		 M112.4,367.5c-0.6,0-1.2-0.3-1.7-0.9c1.5-0.2,2.7-2.3,2.6-4.7c0-1.2-0.4-2.3-0.9-3.1l0.9-1.4c1,0.8,1.8,2.6,1.9,4.7
		C115.2,365,114,367.4,112.4,367.5L112.4,367.5z M125.6,321.8c0.7-0.6,1.2-1.8,1.2-3.2c-0.1-1.7-0.9-3.1-2-3.4
		c0.3-0.3,0.6-0.4,1-0.5c1.3,0,2.3,1.8,2.4,4c0,1.2-0.2,2.3-0.6,3L125.6,321.8L125.6,321.8z M118.1,285.1c0.5,1.7,0.7,4,0.8,6.4
		c0.1,3.9-0.3,8.1-0.5,10.2c-0.2,2-0.6,5.1-1,8.1c-0.4,2.9-0.8,5.8-1.1,7.7c0.3-1.1,0.6-2.6,1-4.3c0.6-2.7,1.3-5.9,2.1-9.5
		C121.8,290.8,119.1,286.3,118.1,285.1L118.1,285.1z M83.9,342.9c4.7,0.4,15.6,1.3,19.3,2.2c2,0.5,3.3,0.8,3.8,1.4
		c0.6,0.6,0.5,1.4-0.3,2.9c-0.2,0.3-0.7,1.3-1.4,2.8c-2.4,4.6-7,13.5-9.1,17.1c-1.4,2.3-3.9,6.5-6.9,10.8c-3,4.3-6.5,8.6-9.7,11.2
		c-0.2,0.2-0.4,0.3-0.6,0.4c0.3-0.1,0.5-0.3,0.7-0.5c2.3-1.6,4.8-4.4,7.2-7.4c2.3-3,4.5-6.2,6-8.4c4.6-6.8,8.6-13.6,11.8-18.8
		c1.6-2.7,3-5,4-6.6c1.9-2.9,1.5-4.5,0.3-5.3c-1.3-0.8-3.4-1-4.6-1.1C100.1,343.2,88.4,343,83.9,342.9L83.9,342.9z M152.7,328.7
		c1.3,3.9-5,6-5,6l-1.7-1.1c0,0,4-3,5.4-5.5L152.7,328.7L152.7,328.7z M197,378.5v0.9h-2.4v6.4h-1v-6.4h-2.4v-0.9H197L197,378.5z
		 M197.8,378.5h1.4l2.1,6.1l2.1-6.1h1.4v7.3h-0.9v-4.3c0-0.1,0-0.4,0-0.7c0-0.3,0-0.7,0-1.1l-2.1,6.1h-1l-2.1-6.1v0.2
		c0,0.2,0,0.4,0,0.8c0,0.4,0,0.6,0,0.8v4.3h-0.9L197.8,378.5L197.8,378.5z"/>
	<path d="M-118.6,545.1h4.8c2.7,0,4.7,0.9,5.9,2.8c1.3,1.9,1.9,4,1.9,6.3c0,2.9-0.7,5.2-2,7c-1.3,1.8-3.3,2.7-5.8,2.7h-4.8
		L-118.6,545.1L-118.6,545.1z M-112.6,566.5c2.8,0,5.1-1.2,7-3.5c1.8-2.3,2.7-5.2,2.7-8.5c0-3.3-0.9-6.1-2.8-8.4
		c-1.9-2.3-4.5-3.5-7.9-3.5h-8v23.9L-112.6,566.5L-112.6,566.5z M-95.2,563c-0.9-1.1-1.4-2.9-1.4-5.4c0-2.4,0.5-4.1,1.4-5.2
		c0.9-1.1,2.1-1.6,3.5-1.6c1.3,0,2.5,0.5,3.5,1.6c1,1.1,1.5,2.9,1.5,5.3c0,2.4-0.5,4.2-1.4,5.3c-0.9,1.1-2.1,1.7-3.5,1.7
		C-93.1,564.6-94.3,564.1-95.2,563L-95.2,563z M-86.1,564.3c1.5-1.7,2.3-4,2.3-6.7c0-2.6-0.7-4.8-2.1-6.6c-1.4-1.8-3.3-2.7-5.8-2.7
		c-2.3,0-4.2,0.8-5.7,2.5c-1.5,1.7-2.3,3.9-2.3,6.7c0,2.7,0.7,4.9,2,6.7c1.4,1.8,3.2,2.7,5.7,2.7C-89.6,566.9-87.6,566.1-86.1,564.3
		L-86.1,564.3z M-65.2,566.5h-2.6v-11.3c0-1.6-0.4-2.8-1.1-3.4c-0.7-0.7-1.6-1-2.6-1c-1.4,0-2.6,0.6-3.5,1.7
		c-0.9,1.1-1.4,2.6-1.4,4.4v9.7h-2.7v-17.7h2.6v3.2c1.4-2.5,3.3-3.7,5.6-3.7c1.3,0,2.4,0.3,3.4,1c0.9,0.7,1.6,1.5,1.9,2.3
		c0.3,0.9,0.5,2.4,0.5,4.6L-65.2,566.5L-65.2,566.5z M-47.2,564.5v2.2c-1,0.1-1.8,0.2-2.5,0.2c-3.4,0-5.1-1.8-5.1-5.4v-10.7h-3.1
		v-2.1h3.1l0.1-4.4l2.6-0.3v4.7h3.9v2.1H-52V562c0,1.8,0.9,2.7,2.8,2.7C-48.6,564.7-47.9,564.7-47.2,564.5L-47.2,564.5z
		 M-32.5,542.5h3.1v3.1h-3.1V542.5L-32.5,542.5z M-29.6,548.6V567c0,2.1-0.5,3.5-1.5,4.3c-1,0.8-2.2,1.2-3.6,1.2
		c-0.7,0-1.6-0.1-2.6-0.4V570c0.8,0.2,1.4,0.3,2,0.3c1,0,1.8-0.2,2.2-0.7c0.4-0.5,0.7-1.3,0.7-2.6v-18.4L-29.6,548.6L-29.6,548.6z
		 M-10.5,566.5H-13v-3.4c-1.3,2.6-3.1,3.9-5.6,3.9c-1.8,0-3.2-0.6-4.3-1.8c-1-1.2-1.5-2.9-1.5-5.1v-11.3h2.8V560
		c0,1.7,0.4,2.9,1.1,3.6c0.7,0.7,1.5,1,2.4,1c0.9,0,1.7-0.2,2.4-0.7c0.7-0.5,1.3-1.2,1.8-2.1c0.5-0.9,0.7-1.9,0.7-3v-9.9h2.7
		L-10.5,566.5L-10.5,566.5z M-6.8,561.8l2.6-0.5c0.6,2.2,2.4,3.3,5.5,3.3c1.1,0,2.1-0.3,2.9-0.8c0.8-0.5,1.2-1.2,1.2-2.1
		c0-1.4-1-2.2-3-2.6l-3.7-0.7c-1.5-0.3-2.6-0.8-3.5-1.6c-0.9-0.8-1.3-1.9-1.3-3.2c0-1.5,0.6-2.7,1.8-3.7c1.2-1,2.8-1.5,4.7-1.5
		c3.8,0,6.2,1.5,7.1,4.5L5,553.4c-0.7-1.8-2.2-2.7-4.4-2.7c-1.1,0-2,0.2-2.7,0.7c-0.7,0.5-1.1,1.1-1.1,1.9c0,1.3,0.9,2.1,2.7,2.4
		l3.4,0.7c3.6,0.7,5.4,2.4,5.4,5.2c0,1.6-0.7,2.9-2,3.9c-1.3,1-3.1,1.5-5.3,1.5C-3.2,566.9-5.8,565.2-6.8,561.8L-6.8,561.8z
		 M19.6,564.5v2.2c-1,0.1-1.8,0.2-2.5,0.2c-3.4,0-5.1-1.8-5.1-5.4v-10.7H8.9v-2.1H12l0.1-4.4l2.6-0.3v4.7h3.9v2.1h-3.9V562
		c0,1.8,0.9,2.7,2.8,2.7C18.2,564.7,18.9,564.7,19.6,564.5L19.6,564.5z M41,564.5v2.2c-1,0.1-1.8,0.2-2.5,0.2
		c-3.4,0-5.1-1.8-5.1-5.4v-10.7h-3.1v-2.1h3.1l0.1-4.4l2.6-0.3v4.7H40v2.1h-3.9V562c0,1.8,0.9,2.7,2.8,2.7
		C39.5,564.7,40.2,564.7,41,564.5L41,564.5z M46.2,566.5h-2.7v-17.7h2.4v4.2c0.8-1.9,1.7-3.2,2.5-3.8c0.9-0.6,1.7-0.9,2.6-0.9
		c0.3,0,0.6,0,1.1,0.1v2.6h-0.6c-1.5,0-2.8,0.6-3.8,1.7c-1,1.1-1.5,2.6-1.6,4.4L46.2,566.5L46.2,566.5z M66.7,558.8
		c0,1.6-0.5,3-1.6,4.2c-1.1,1.2-2.4,1.8-4.1,1.8c-1.2,0-2.1-0.3-2.8-0.9c-0.6-0.6-1-1.3-1-2.2c0-1.4,0.6-2.4,1.8-3.1
		c1.2-0.7,2.9-1.1,5-1.1c0.6,0,1.4,0,2.5,0.1C66.7,558.1,66.7,558.5,66.7,558.8L66.7,558.8z M69.4,563v-7.5c0-2.7-0.5-4.5-1.5-5.6
		c-1-1.1-2.7-1.6-5.2-1.6c-4.6,0-7.2,1.6-7.8,4.9l2.5,0.4c0.4-2.1,2.1-3.2,4.8-3.2c1.1,0,2.1,0.2,2.8,0.6c0.7,0.4,1.2,0.9,1.4,1.5
		c0.2,0.6,0.3,1.6,0.3,3c-1.1,0-1.8-0.1-2.3-0.1c-3.6,0-6.2,0.6-7.7,1.7c-1.5,1.2-2.2,2.6-2.2,4.4c0,1.5,0.5,2.7,1.6,3.8
		c1,1,2.6,1.6,4.5,1.6c2.9,0,4.9-1.2,6.1-3.7c0.1,1.6,0.2,2.6,0.3,3.2h2.7C69.5,565.4,69.4,564.3,69.4,563L69.4,563z M87.5,548.8
		l-6.1,17.7h-2.9l-6.3-17.7h3l4.9,14.4l4.9-14.4H87.5L87.5,548.8z M93.5,555.8c0.1-1.6,0.6-2.9,1.6-3.9c1-1,2.1-1.5,3.5-1.5
		c1,0,1.9,0.3,2.6,0.8c0.7,0.5,1.2,1.2,1.5,1.9c0.3,0.8,0.5,1.6,0.5,2.6L93.5,555.8L93.5,555.8z M98.6,564.6c-1.2,0-2.4-0.5-3.5-1.4
		c-1.1-0.9-1.7-2.7-1.7-5.4h12.8c0-3.2-0.8-5.6-2.2-7.2c-1.4-1.6-3.3-2.4-5.6-2.4c-2.3,0-4.3,0.9-5.8,2.6c-1.5,1.7-2.3,4-2.3,6.8
		c0,2.7,0.7,5,2.2,6.7c1.5,1.7,3.5,2.5,5.9,2.5c1.8,0,3.4-0.5,4.8-1.5c1.3-1,2.3-2.2,2.7-3.8l-2.6-0.5
		C102.4,563.5,100.8,564.6,98.6,564.6L98.6,564.6z M109.9,542.5h2.7v23.9h-2.7V542.5L109.9,542.5z M118,562.5h3.9v3.9H118V562.5
		L118,562.5z M-62.3,548.9l1.4-6.9h2.9l-2.7,6.9H-62.3L-62.3,548.9z M141.7,566.5h-3v-21.3h-6.8v-2.6h16.7v2.6h-6.8L141.7,566.5
		L141.7,566.5z M151.8,566.5H149v-17.7h2.4v4.2c0.8-1.9,1.7-3.2,2.6-3.8c0.9-0.6,1.7-0.9,2.6-0.9c0.3,0,0.6,0,1.1,0.1v2.6h-0.6
		c-1.5,0-2.8,0.6-3.8,1.7c-1,1.1-1.5,2.6-1.6,4.4V566.5L151.8,566.5z M172.3,558.8c0,1.6-0.5,3-1.6,4.2c-1.1,1.2-2.4,1.8-4.1,1.8
		c-1.2,0-2.1-0.3-2.8-0.9c-0.6-0.6-1-1.3-1-2.2c0-1.4,0.6-2.4,1.8-3.1c1.2-0.7,2.9-1.1,5-1.1c0.6,0,1.4,0,2.5,0.1
		C172.3,558.1,172.3,558.5,172.3,558.8L172.3,558.8z M175,563v-7.5c0-2.7-0.5-4.5-1.5-5.6c-1-1.1-2.7-1.6-5.2-1.6
		c-4.6,0-7.2,1.6-7.8,4.9l2.5,0.4c0.5-2.1,2.1-3.2,4.8-3.2c1.1,0,2.1,0.2,2.8,0.6c0.7,0.4,1.2,0.9,1.4,1.5c0.2,0.6,0.3,1.6,0.3,3
		c-1.1,0-1.8-0.1-2.3-0.1c-3.6,0-6.2,0.6-7.7,1.7c-1.5,1.2-2.3,2.6-2.3,4.4c0,1.5,0.5,2.7,1.6,3.8c1.1,1,2.6,1.6,4.5,1.6
		c2.9,0,4.9-1.2,6.1-3.7c0.1,1.6,0.2,2.6,0.3,3.2h2.7C175.1,565.4,175,564.3,175,563L175,563z M193.4,548.8l-6.1,17.7h-2.9
		l-6.3-17.7h3l4.9,14.4l4.9-14.4H193.4L193.4,548.8z M199,555.8c0.1-1.6,0.7-2.9,1.6-3.9c0.9-1,2.1-1.5,3.5-1.5c1,0,1.9,0.3,2.6,0.8
		c0.7,0.5,1.2,1.2,1.5,1.9c0.3,0.8,0.5,1.6,0.5,2.6L199,555.8L199,555.8z M204.1,564.6c-1.2,0-2.4-0.5-3.5-1.4
		c-1.1-0.9-1.7-2.7-1.7-5.4h12.8c0-3.2-0.8-5.6-2.2-7.2c-1.4-1.6-3.3-2.4-5.6-2.4c-2.3,0-4.3,0.9-5.8,2.6c-1.6,1.7-2.3,4-2.3,6.8
		c0,2.7,0.8,5,2.2,6.7c1.5,1.7,3.5,2.5,5.9,2.5c1.8,0,3.4-0.5,4.8-1.5c1.4-1,2.3-2.2,2.7-3.8l-2.6-0.5
		C207.9,563.5,206.3,564.6,204.1,564.6L204.1,564.6z M215.3,542.5h2.7v23.9h-2.7V542.5L215.3,542.5z M237.8,545.2h6.6
		c1.3,0,2.4,0.3,3.2,1c0.8,0.7,1.3,1.7,1.3,2.9c0,1.2-0.4,2.3-1.2,3.2c-0.8,0.9-2,1.3-3.7,1.3h-6.2L237.8,545.2L237.8,545.2z
		 M247.5,555.4c1.6-0.5,2.7-1.3,3.4-2.5c0.7-1.2,1-2.4,1-3.7c0-1.7-0.6-3.2-1.8-4.6c-1.2-1.4-3.1-2.1-5.7-2.1H235v23.9h2.8v-10.4
		h6.9l4.4,10.4h3.1L247.5,555.4L247.5,555.4z M257.4,542.5h3v3.1h-3V542.5L257.4,542.5z M257.5,548.8h2.7v17.7h-2.7V548.8
		L257.5,548.8z M269.7,557.2c-0.7-0.7-1.1-1.6-1.1-2.8c0-1.3,0.4-2.3,1.2-3c0.8-0.7,1.7-1,2.7-1c1.1,0,2,0.4,2.7,1.1
		c0.7,0.7,1.1,1.7,1.1,2.9c0,1.1-0.4,2.1-1.1,2.8c-0.7,0.7-1.7,1.1-2.8,1.1C271.3,558.3,270.4,557.9,269.7,557.2L269.7,557.2z
		 M280.2,545.9c-1.3,0-2.3,0.2-2.9,0.7c-0.6,0.5-1,1.3-1.2,2.4c-1.1-0.5-2.3-0.8-3.6-0.8c-1.9,0-3.5,0.6-4.8,1.7
		c-1.3,1.1-2,2.6-2,4.3c0,1.9,0.8,3.4,2.3,4.7c-1.6,0.7-2.4,1.8-2.4,3.1c0,1.1,0.6,2.1,1.7,2.9c-1.8,0.6-2.7,1.8-2.7,3.5
		c0,1.4,0.6,2.5,1.9,3.4c1.3,0.8,3.3,1.3,6.1,1.3c5.9,0,8.9-1.7,8.9-5.1c0-1.1-0.3-2-1-2.7c-0.7-0.7-1.5-1.2-2.4-1.4
		c-1-0.2-2.4-0.4-4.4-0.4c-2.4-0.1-3.9-0.2-4.5-0.4c-0.6-0.2-1-0.7-1-1.4c0-0.5,0.2-0.9,0.7-1.2c0.4-0.3,0.8-0.5,1.1-0.5
		c0.2,0,0.6,0.1,1.2,0.2c0.3,0.1,0.7,0.1,1.2,0.1c2.1,0,3.7-0.6,4.9-1.7c1.2-1.2,1.8-2.5,1.8-4.2c0-1.5-0.6-3-1.7-4.3
		c0.1-0.8,0.4-1.3,0.8-1.6c0.4-0.3,1.3-0.4,2.5-0.4V546C280.5,545.9,280.3,545.9,280.2,545.9L280.2,545.9z M273.5,566
		c1.6,0.1,2.7,0.1,3.4,0.2c0.6,0.1,1.2,0.3,1.5,0.7c0.4,0.3,0.5,0.8,0.5,1.3c0,1-0.6,1.7-1.9,2.1c-1.3,0.4-2.6,0.6-4.1,0.6
		c-1.6,0-3-0.2-4-0.7c-1-0.5-1.6-1.2-1.6-2.1c0-1,0.6-1.9,1.9-2.4C270.1,565.9,271.5,566,273.5,566L273.5,566z M298.6,566.5h-2.7
		v-10.7c0-1.3-0.1-2.2-0.2-2.8c-0.2-0.6-0.5-1.2-1.1-1.6c-0.6-0.5-1.3-0.7-2-0.7c-1.4,0-2.6,0.6-3.5,1.7c-0.9,1.1-1.4,2.7-1.4,4.6
		v9.5h-2.7v-23.9h2.7v9.5c1.3-2.5,3-3.7,5.4-3.7c1,0,2,0.2,2.8,0.6c0.8,0.4,1.4,0.9,1.9,1.6c0.4,0.7,0.7,1.3,0.9,2
		c0.2,0.6,0.2,1.7,0.2,3.2V566.5L298.6,566.5z M311.5,564.5v2.2c-1,0.1-1.8,0.2-2.5,0.2c-3.4,0-5.1-1.8-5.1-5.4v-10.7h-3.1v-2.1h3.1
		l0.1-4.4l2.6-0.3v4.7h3.9v2.1h-3.9V562c0,1.8,0.9,2.7,2.8,2.7C310.1,564.7,310.8,564.7,311.5,564.5L311.5,564.5z M315.5,562.5h3.9
		v3.9h-3.9V562.5L315.5,562.5z M316.7,544.9v0.5h-1.4v3.6h-0.6v-3.6h-1.4v-0.5H316.7L316.7,544.9z M317.6,544.9h0.8l1.2,3.4l1.2-3.4
		h0.8v4.1H321v-2.4c0-0.1,0-0.2,0-0.4c0-0.2,0-0.4,0-0.6l-1.2,3.4h-0.5l-1.2-3.4v0.1c0,0.1,0,0.2,0,0.5c0,0.2,0,0.4,0,0.4v2.4h-0.5
		L317.6,544.9L317.6,544.9z M-79.9,468h-27.8v11.9h21.9v11.1h-21.9v12.5h27.8V515h-41.6v-58.1h41.6V468L-79.9,468z M-36.6,472
		L-49,491.9l14.5,23.1H-49l-8.9-14.7l-8.8,14.7h-10.8l14.2-23.2L-75.6,472h14.5l6.9,11.5l6.8-11.5L-36.6,472L-36.6,472z M98.3,472
		H111V515H98.3V472L98.3,472z M98.3,456.8H111v11.4H98.3V456.8L98.3,456.8z M211.7,498.8c-0.5,5.1-2.5,9.3-6,12.4
		c-3.5,3.2-8.1,4.7-13.7,4.7c-6.1,0-11-2-14.8-6.1c-3.8-4-5.7-9.4-5.7-16.2s2-12.3,5.9-16.5c3.9-4.2,9.1-6.3,15.6-6.3
		c5.2,0,9.6,1.6,13,4.8c3.5,3.2,5.4,7.2,5.7,11.9l-11.7,0.7c-0.4-5.2-2.6-7.8-6.7-7.8c-5,0-7.5,4.1-7.5,12.4c0,5.5,0.7,9,2.1,10.5
		c1.4,1.5,3.1,2.2,5.1,2.2c3.9,0,6.3-2.5,7-7.5L211.7,498.8L211.7,498.8z M-19.7,489.7c0-3.6,0.7-6.2,2.1-7.7
		c1.4-1.5,2.9-2.3,4.7-2.3c4.5,0,6.7,4.3,6.7,12.8c0,6.1-0.7,10-2,11.8c-1.4,1.8-2.9,2.7-4.7,2.7c-1.4,0-2.7-0.5-3.9-1.4
		c-1.2-0.9-2-2-2.3-3.2c-0.4-1.2-0.6-3.3-0.6-6.3L-19.7,489.7L-19.7,489.7z M-19.7,529.5v-19.2c2.1,3.8,5.5,5.7,10.4,5.7
		c4.8,0,8.7-1.9,11.7-5.8c3-3.9,4.5-9.6,4.5-17.2c0-7.2-1.5-12.6-4.5-16.4c-3-3.8-6.8-5.6-11.5-5.6c-5.4,0-9.2,2.4-11.4,7.2V472H-32
		v57.4H-19.7L-19.7,529.5z M45.3,476.8c-4-3.9-8.7-5.9-14.2-5.9c-6.1,0-11.1,2.1-15.1,6.3s-5.9,9.8-5.9,16.7c0,4.6,1,8.6,2.9,11.9
		c1.9,3.3,4.4,5.8,7.4,7.6c3,1.7,6.6,2.6,10.9,2.6c9.8,0,16.3-5,19.5-14.9l-11.5-0.9c-0.8,4.4-3.4,6.7-7.5,6.7
		c-2.2,0-4.2-0.8-5.8-2.3c-1.6-1.6-2.4-3.9-2.4-6.9c0-0.6,0-1.2,0-2h27.6C51.3,487,49.3,480.7,45.3,476.8L45.3,476.8z M31.5,479.2
		c4.4,0,6.7,3,7.1,8.9H23.7C24.2,482.2,26.8,479.2,31.5,479.2L31.5,479.2z M81.2,456.9v19.4c-2.5-3.6-6-5.4-10.6-5.4
		c-5.2,0-9.2,2-11.9,6.1c-2.7,4.1-4.1,9.7-4.1,16.9c0,6.9,1.4,12.3,4.1,16.2c2.8,3.9,6.5,5.8,11.3,5.8c5,0,9-2.6,11.9-7.7v6.8h11.7
		v-58.1L81.2,456.9L81.2,456.9z M81.2,498c0,2.8-0.7,5-2,6.6c-1.3,1.5-2.9,2.3-4.6,2.3c-4.6,0-6.9-4.3-6.9-12.8
		c0-9.6,2.4-14.4,7.3-14.4c4.1,0,6.1,3.4,6.1,10.2L81.2,498L81.2,498z M153.8,506.9v-19.6c0-3.8-0.3-6.4-0.8-8
		c-0.5-1.5-1.5-3-2.9-4.3c-1.4-1.4-3.4-2.4-6-3.1c-2.6-0.7-5.3-1-8.2-1c-4.9,0-9.2,1-13,3.1c-3.8,2.1-6.1,5.5-6.9,10.4l11.7,1.1
		c0.5-4.2,2.9-6.3,7.3-6.3c4.1,0,6.2,2.1,6.2,6.3v2.5c-8.4,0.6-14.2,1.6-17.4,2.9c-3.2,1.3-5.5,3.1-6.9,5.4
		c-1.4,2.3-2.2,4.8-2.2,7.5c0,3.7,1.2,6.7,3.7,8.9c2.5,2.2,5.7,3.3,9.7,3.3c2.7,0,5.1-0.5,7.2-1.5c2.1-1,4.2-3.1,6.4-6.2
		c0,2.8,0.2,5,0.7,6.7h12.3C154,513.4,153.8,510.7,153.8,506.9L153.8,506.9z M141.1,498.4c0,2.7-0.7,5-2.2,6.8
		c-1.5,1.8-3.3,2.8-5.5,2.8c-1.7,0-3-0.5-3.9-1.6c-0.9-1.1-1.4-2.4-1.4-3.9c0-4.5,4.3-7.1,13-8V498.4L141.1,498.4z M164.9,503.6
		c1.8,0,3.3,0.6,4.5,1.8c1.2,1.2,1.8,2.7,1.8,4.5c0,1.7-0.6,3.2-1.8,4.5c-1.2,1.2-2.7,1.8-4.4,1.8c-1.7,0-3.2-0.6-4.4-1.8
		c-1.2-1.2-1.8-2.7-1.8-4.5c0-1.8,0.6-3.3,1.8-4.5C161.6,504.2,163.1,503.6,164.9,503.6L164.9,503.6z M321.2,515h-12.7v-24
		c0-3.4-0.1-5.6-0.3-6.6c-0.2-1-0.7-1.9-1.6-2.5c-0.8-0.7-2-1-3.5-1c-1.4,0-2.8,0.5-4.3,1.5c-1.5,1-2.2,3.9-2.2,8.6v24H284v-24
		c0-3.5-0.2-5.7-0.5-6.7c-0.3-1-0.9-1.8-1.7-2.5c-0.9-0.6-1.9-0.9-3.3-0.9c-2.2,0-3.8,0.7-4.8,2.1c-1.1,1.4-1.6,4.1-1.6,8.1v24
		h-12.3V472h12v6.2c2-4.9,6-7.4,12-7.4c5.4,0,9.4,2.5,11.8,7.4c2.4-4.9,6.6-7.4,12.5-7.4c2.8,0,5.3,0.6,7.3,1.8
		c2,1.2,3.5,2.7,4.4,4.6c0.9,1.9,1.3,5.1,1.3,9.7V515L321.2,515z M224.4,473.9c-2.9,2-5.2,4.6-6.8,7.8c-1.7,3.2-2.5,7.1-2.5,11.7
		c0,6.6,1.8,12.1,5.5,16.3c3.7,4.2,8.6,6.3,14.7,6.3c6.3,0,11.4-2.1,15.2-6.4c3.8-4.3,5.7-9.6,5.7-16c0-6.5-1.8-11.9-5.5-16.2
		c-3.7-4.3-8.8-6.5-15.3-6.5C230.9,470.9,227.3,471.9,224.4,473.9L224.4,473.9z M240.9,482.2c1.2,2,1.7,5.8,1.7,11.5
		c0,5.3-0.7,8.9-2,10.8c-1.3,1.9-3,2.8-5.1,2.8c-2.4,0-4.2-1.1-5.3-3.3c-1.1-2.2-1.7-5.9-1.7-10.9c0-5.5,0.6-9.2,1.8-11.1
		c1.2-1.9,3-2.8,5.3-2.8C238,479.2,239.8,480.2,240.9,482.2L240.9,482.2z M336.4,478.4c0,1.7-0.7,3.2-1.8,4.3
		c-1.1,1.1-2.6,1.8-4.3,1.8c-1.7,0-3.2-0.7-4.3-1.8c-1.1-1.1-1.8-2.6-1.8-4.3c0-1.7,0.7-3.2,1.8-4.3c1.1-1.1,2.6-1.8,4.3-1.8
		c1.7,0,3.2,0.7,4.3,1.8C335.7,475.2,336.4,476.7,336.4,478.4L336.4,478.4z M334.9,478.4c0-1.3-0.5-2.4-1.3-3.2
		c-0.8-0.8-2-1.3-3.2-1.3c-1.3,0-2.4,0.5-3.2,1.3c-0.8,0.8-1.3,2-1.3,3.2c0,1.3,0.5,2.4,1.3,3.2c0.8,0.8,1.9,1.3,3.2,1.3
		c1.3,0,2.4-0.5,3.2-1.3C334.4,480.8,334.9,479.6,334.9,478.4L334.9,478.4z M331.6,478.7l1,2.2l0.1,0.3h-1.1l-0.1-0.1l-0.9-2.2h-1.2
		v2.3h-1v-5.6h2.3c0.3,0,0.6,0,0.8,0.1c0.2,0.1,0.4,0.2,0.6,0.4l0,0c0.1,0.2,0.3,0.3,0.3,0.5c0.1,0.2,0.1,0.4,0.1,0.6
		c0,0.2,0,0.3-0.1,0.5c0,0.2-0.1,0.3-0.2,0.4c-0.1,0.2-0.2,0.3-0.4,0.4C331.8,478.6,331.7,478.6,331.6,478.7L331.6,478.7z
		 M329.4,476.5v1.5h1.2c0.2,0,0.3,0,0.4-0.1c0.1,0,0.2-0.1,0.3-0.2c0.1-0.1,0.1-0.2,0.2-0.3c0-0.1,0.1-0.2,0.1-0.3s0-0.2-0.1-0.3
		c0-0.1-0.1-0.2-0.2-0.2h0c-0.1-0.1-0.2-0.1-0.3-0.1c-0.1,0-0.2-0.1-0.3-0.1L329.4,476.5L329.4,476.5z"/>
</g>
</svg>
