<?xml version="1.0" standalone="no"?>
<!DOCTYPE svg PUBLIC "-//W3C//DTD SVG 20010904//EN"
 "http://www.w3.org/TR/2001/REC-SVG-20010904/DTD/svg10.dtd">
<svg version="1.0" xmlns="http://www.w3.org/2000/svg"
 width="380.000000pt" height="206.000000pt" viewBox="0 0 380.000000 206.000000"
 preserveAspectRatio="xMidYMid meet">
<metadata>
Created by potrace 1.13, written by Peter Selinger 2001-2015
</metadata>
<g transform="translate(0.000000,206.000000) scale(0.100000,-0.100000)"
fill="#000000" stroke="none">
<path d="M817 1018 l-458 -653 243 -3 c133 -1 248 0 254 2 7 3 67 84 135 180
l123 176 168 0 c148 0 170 2 183 17 8 10 66 90 128 178 l114 160 -168 5 -169
5 81 115 80 115 93 12 c236 30 334 78 521 256 l90 86 -481 1 -480 0 -457 -652z"/>
<path d="M2577 1638 c-13 -18 -100 -141 -194 -273 -93 -132 -229 -325 -302
-428 -73 -103 -131 -191 -128 -194 3 -3 111 0 239 6 128 6 388 16 578 23 197
7 330 15 310 19 -19 4 -177 12 -350 18 -325 12 -513 22 -507 27 1 2 203 10
447 19 245 9 459 20 475 24 19 5 -29 10 -135 14 -853 35 -866 38 -290 57 330
10 524 20 518 25 -2 2 -200 11 -441 21 -240 10 -434 21 -430 24 5 4 163 13
353 20 190 7 399 15 465 19 l120 6 -75 7 c-41 4 -226 13 -410 19 -184 6 -348
15 -365 18 -31 8 22 11 598 32 174 7 314 16 310 19 -5 4 -163 13 -353 20 -190
7 -388 15 -440 19 l-95 6 105 7 c58 4 273 13 478 20 204 6 372 15 372 18 0 3
-199 14 -442 24 -244 10 -444 20 -446 21 -6 6 163 15 473 25 309 10 489 20
483 25 -2 2 -198 11 -435 21 -238 10 -433 21 -433 24 0 3 208 14 463 24 254
10 463 19 465 21 5 5 -176 15 -488 25 -293 10 -387 16 -379 25 2 1 214 11 472
21 257 10 462 21 455 25 -7 3 -172 12 -367 19 -194 7 -388 16 -430 19 l-76 7
105 7 c58 3 260 12 450 18 190 6 356 13 370 17 21 5 -846 49 -1012 51 -53 1
-59 -1 -81 -31z"/>
<path d="M2261 673 c-97 -134 -219 -308 -217 -311 3 -3 645 35 734 44 35 3 62
7 60 9 -2 2 -124 12 -271 21 -147 10 -267 21 -267 24 0 3 136 14 303 24 166
10 303 19 305 21 6 6 -94 15 -298 26 -113 6 -216 14 -229 18 -21 6 454 41 559
42 24 0 30 2 20 8 -8 4 -110 14 -227 21 -116 6 -236 15 -265 19 l-53 7 75 6
c41 4 176 12 300 19 124 7 232 16 240 20 10 6 2 9 -25 9 -22 0 -182 9 -355 20
-173 11 -321 20 -328 20 -7 0 -34 -30 -61 -67z"/>
</g>
</svg>
