<?xml version="1.0" encoding="UTF-8" standalone="no"?>
<svg width="1296px" height="512px" viewBox="0 0 1296 512" version="1.1" xmlns="http://www.w3.org/2000/svg" xmlns:xlink="http://www.w3.org/1999/xlink">
    <!-- Generator: Sketch 3.6.1 (26313) - http://www.bohemiancoding.com/sketch -->
    <title>F1</title>
    <desc>Created with Sketch.</desc>
    <defs></defs>
    <g id="Page-1" stroke="none" stroke-width="1" fill="none" fill-rule="evenodd">
        <g id="F1" transform="translate(647.724981, 256.000000) scale(1, -1) translate(-647.724981, -256.000000) " fill="#000000">
            <path d="M179.141329,256.977846 L0,1.56455309 L95.0466005,0.391138273 C147.067991,-1.67366121e-14 192.048892,0.391138273 194.395722,1.17341482 C197.13369,2.34682964 220.601986,34.0290298 247.199389,71.578304 L295.309396,140.41864 L361.020626,140.41864 C418.909091,140.41864 427.514133,141.200917 432.59893,147.067991 C435.728037,150.979374 458.414057,182.270435 482.664629,216.690604 L527.254393,279.272727 L461.543163,281.228419 L395.440794,283.18411 L427.122995,328.165011 L458.414057,373.145913 L494.789916,377.839572 C587.098549,389.57372 625.430099,408.348358 698.572956,477.97097 L733.775401,511.608862 L545.637892,512 L357.89152,512 L179.141329,256.977846 L179.141329,256.977846 Z" id="Shape"></path>
            <path d="M867.544691,499.483575 C862.459893,492.443086 828.430863,444.333079 791.663866,392.702827 C755.288006,341.072574 702.093201,265.582888 673.540107,225.295646 C644.987013,185.008403 622.300993,150.588235 623.474408,149.41482 C624.647823,148.241406 666.890756,149.41482 716.956455,151.76165 C767.022154,154.10848 868.718105,158.019862 943.034377,160.75783 C1020.08862,163.495798 1072.11001,166.624905 1064.28724,168.189458 C1056.85561,169.754011 995.055768,172.883117 927.388846,175.229947 C800.268908,179.923606 726.734912,183.834989 729.081742,185.79068 C729.47288,186.572956 808.482811,189.702063 903.92055,193.222307 C999.749427,196.742552 1083.45302,201.045073 1089.71123,202.609626 C1097.14286,204.565317 1078.36822,206.521008 1036.90756,208.085561 C703.266616,221.775401 698.181818,222.948816 923.477464,230.380443 C1052.55309,234.291826 1128.43392,238.203209 1126.08709,240.1589 C1125.30481,240.941176 1047.85943,244.461421 953.595111,248.372804 C859.721925,252.284186 783.8411,256.586707 785.405653,257.760122 C787.361345,259.324675 849.161192,262.84492 923.477464,265.582888 C997.793736,268.320856 1079.54163,271.449962 1105.35676,273.014515 L1152.29335,275.361345 L1122.95798,278.099312 C1106.92131,279.663866 1034.56073,283.18411 962.591291,285.53094 C890.621849,287.877769 826.475172,291.398014 819.825821,292.571429 C807.700535,295.700535 828.430863,296.87395 1053.72651,305.087853 C1121.78457,307.825821 1176.54393,311.346066 1174.97937,312.519481 C1173.02368,314.084034 1111.22383,317.604278 1036.90756,320.342246 C962.591291,323.080214 885.145913,326.20932 864.806723,327.773873 L827.648587,330.120703 L868.718105,332.858671 C891.404125,334.423224 975.498854,337.943468 1055.6822,340.681436 C1135.47441,343.028266 1201.18564,346.54851 1201.18564,347.721925 C1201.18564,348.89534 1123.34912,353.197861 1028.30252,357.109244 C932.864782,361.020626 854.637128,364.932009 853.854851,365.323147 C851.508021,367.669977 917.61039,371.190222 1038.86325,375.101604 C1159.72498,379.012987 1230.12987,382.92437 1227.78304,384.880061 C1227.00076,385.662338 1150.33766,389.182582 1057.63789,393.093965 C964.546982,397.005348 888.275019,401.307869 888.275019,402.481283 C888.275019,403.654698 969.63178,407.957219 1069.37204,411.868602 C1168.72116,415.779985 1250.46906,419.300229 1251.25134,420.082506 C1253.20703,422.038197 1182.411,425.94958 1060.37586,429.860963 C945.772345,433.772345 909.005348,436.119175 912.134454,439.639419 C912.91673,440.030558 995.838044,443.94194 1096.75172,447.853323 C1197.27426,451.764706 1277.4576,456.067227 1274.71963,457.63178 C1271.98167,458.805195 1207.44385,462.325439 1131.17189,465.063407 C1055.29106,467.801375 979.410237,471.32162 962.982429,472.495034 L933.255921,475.233002 L974.325439,477.97097 C997.011459,479.144385 1076.02139,482.664629 1150.33766,485.011459 C1224.65393,487.358289 1289.58289,490.096257 1295.05882,491.66081 C1303.27273,493.616501 964.155844,510.826585 899.226891,511.608862 C878.496562,512 876.149733,511.217723 867.544691,499.483575 L867.544691,499.483575 Z" id="Shape"></path>
            <path d="M743.944996,122.035141 C706.004584,69.6226127 658.285714,1.56455309 659.067991,0.391138273 C660.241406,-0.782276547 911.352177,14.0809778 946.163484,17.6012223 C959.853323,18.7746371 970.414057,20.3391902 969.63178,21.1214668 C968.849503,21.9037433 921.130634,25.8151261 863.633308,29.3353705 C806.135982,33.2467532 759.199389,37.5492743 759.199389,38.7226891 C759.199389,39.8961039 812.394194,44.1986249 877.714286,48.1100076 C942.643239,52.0213904 996.229183,55.5416348 997.011459,56.3239114 C999.358289,58.670741 960.244461,62.1909855 880.452254,66.4935065 C836.253629,68.8403361 795.966387,71.9694423 790.881589,73.5339954 C782.667685,75.8808251 968.458365,89.5706646 1009.52788,89.9618029 C1018.9152,89.9618029 1021.26203,90.7440794 1017.35065,93.0909091 C1014.22154,94.6554622 974.325439,98.5668449 928.562261,101.304813 C883.190222,103.651642 836.253629,107.171887 824.910619,108.73644 L804.18029,111.474408 L833.515661,113.821238 C849.55233,115.385791 902.355997,118.514897 950.857143,121.252865 C999.358289,123.990833 1041.60122,127.511077 1044.73033,129.07563 C1048.64171,131.42246 1045.51261,132.595875 1034.95187,132.595875 C1026.34683,132.595875 963.764706,136.116119 896.097785,140.41864 C828.430863,144.721161 770.542399,148.241406 767.804431,148.241406 C765.066463,148.241406 754.50573,136.507257 743.944996,122.035141 L743.944996,122.035141 Z" id="Shape"></path>
        </g>
    </g>
</svg>