<?xml version="1.0" encoding="iso-8859-1"?><!-- Generator: Adobe Illustrator 16.0.0, SVG Export Plug-In . SVG Version: 6.00 Build 0) --><!DOCTYPE svg PUBLIC "-//W3C//DTD SVG 1.1//EN" "http://www.w3.org/Graphics/SVG/1.1/DTD/svg11.dtd"><svg version="1.1" id="Layer_1" xmlns="http://www.w3.org/2000/svg" xmlns:xlink="http://www.w3.org/1999/xlink" x="0px" y="0px" width="107.543px" height="207.085px" viewBox="88.428 12.828 107.543 207.085" style="enable-background:new 88.428 12.828 107.543 207.085;" xml:space="preserve"><path style="display:none;fill:#5FA9DD;" d="M270.332,28.818c-9.76,4.328-20.249,7.255-31.258,8.57	c11.237-6.735,19.867-17.401,23.93-30.11c-10.515,6.237-22.162,10.767-34.56,13.207c-9.928-10.578-24.072-17.187-39.725-17.187	c-30.059,0-54.427,24.368-54.427,54.423c0,4.266,0.481,8.419,1.409,12.403C90.47,67.854,50.368,46.187,23.525,13.26	c-4.685,8.038-7.368,17.387-7.368,27.361c0,18.881,9.608,35.54,24.211,45.3c-8.921-0.282-17.312-2.731-24.65-6.808	c-0.005,0.228-0.006,0.455-0.006,0.685c0,26.369,18.761,48.366,43.658,53.366c-4.566,1.242-9.375,1.907-14.339,1.907	c-3.507,0-6.916-0.341-10.24-0.976c6.927,21.622,27.025,37.357,50.841,37.797C67.005,186.489,43.538,195.19,18.04,195.19	c-4.393,0-8.725-0.258-12.982-0.76c24.085,15.442,52.692,24.451,83.427,24.451c100.106,0,154.847-82.93,154.847-154.85	c0-2.358-0.053-4.706-0.156-7.039C253.808,49.318,263.035,39.732,270.332,28.818z"/><path id="White_2_" style="display:none;fill:#FFFFFF;" d="M230.002,10.683H51.28c-6.125,0-11.088,4.963-11.088,11.088v178.723	c0,6.122,4.963,11.088,11.088,11.088h96.218v-77.799h-26.181v-30.319h26.181v-22.36c0-25.948,15.849-40.078,38.996-40.078	c11.088,0,20.618,0.826,23.396,1.194v27.118l-16.055,0.007c-12.589,0-15.026,5.982-15.026,14.76v19.358h30.023l-3.908,30.319	h-26.114v77.799h51.193c6.123,0,11.089-4.966,11.089-11.088V21.771C241.091,15.646,236.125,10.683,230.002,10.683z"/><path id="f" style="fill:#3C5A9A;" d="M158.232,219.912v-94.461h31.707l4.747-36.813h-36.454V65.134	c0-10.658,2.96-17.922,18.245-17.922l19.494-0.009V14.278c-3.373-0.447-14.944-1.449-28.406-1.449	c-28.106,0-47.348,17.155-47.348,48.661v27.149H88.428v36.813h31.788v94.461L158.232,219.912L158.232,219.912z"/></svg>