<?xml version="1.0" encoding="utf-8"?>
<!-- Generator: Adobe Illustrator 13.0.0, SVG Export Plug-In . SVG Version: 6.00 Build 14948)  -->
<!DOCTYPE svg PUBLIC "-//W3C//DTD SVG 1.1//EN" "http://www.w3.org/Graphics/SVG/1.1/DTD/svg11.dtd">
<svg version="1.1" id="Layer_1" xmlns="http://www.w3.org/2000/svg" xmlns:xlink="http://www.w3.org/1999/xlink" x="0px" y="0px"
	 width="283.011px" height="278.511px" viewBox="0 0 283.011 278.511" enable-background="new 0 0 283.011 278.511"
	 xml:space="preserve">
<g>
	<g>
		<path fill="#FFFFFF" d="M141.504,278.511C63.478,278.511,0,216.042,0,139.254C0,62.469,63.478,0,141.504,0
			s141.506,62.469,141.506,139.254C283.011,216.042,219.531,278.511,141.504,278.511L141.504,278.511z"/>
	</g>
	<path fill="#F37021" stroke="#F37021" d="M270.255,139.255c0-13.797-2.256-27.074-6.412-39.505
		c-19.477-46.363-65.932-78.995-120.15-78.995c-71.762,0-129.938,57.159-129.938,127.667c0,3.021,0.115,6.015,0.325,8.983
		c8.96,61.264,62.592,108.35,127.425,108.35C212.611,265.755,270.255,209.12,270.255,139.255z"/>
	<path fill="#488F3A" d="M166.005,85.645c0,0-11.5-6.25-24,5.5c0,0-10.5,9.75-20.25,10.75c0,0,1-1.5,1-5.75c0,0-16,17.5-39.75-7.25
		c0,0,7,4.25,20-13.25c0,0,14.25-19.5,26.5-13.25c0,0-1.25-3.5-3-4.5C126.505,57.895,159.005,50.895,166.005,85.645z"/>
	<linearGradient id="SVGID_1_" gradientUnits="userSpaceOnUse" x1="83.3047" y1="85.6333" x2="165.4404" y2="85.6333">
		<stop  offset="0.0656" style="stop-color:#488F3A"/>
		<stop  offset="0.3991" style="stop-color:#397132"/>
		<stop  offset="0.7094" style="stop-color:#305D2C"/>
		<stop  offset="0.888" style="stop-color:#2C5629"/>
	</linearGradient>
	<path fill="url(#SVGID_1_)" d="M142.005,91.145c10.874-10.221,20.986-6.823,23.436-5.765c-5.834-8.43-23.497-28.701-46.186-5.485
		c-15.963,16.335-29.852,12.41-35.95,9.306c23.584,24.291,39.45,6.944,39.45,6.944c0,4.25-1,5.75-1,5.75
		C131.505,100.895,142.005,91.145,142.005,91.145z"/>
	<path fill="#FFFFFF" d="M255.462,121.933c3.904-12.585,1.916-28.809-11.681-34.694c-3.334-1.443-6.835-2.177-10.408-2.177
		c-4.65,0-9,1.273-12.495,3.044c-0.213-3.425-1.872-6.518-4.929-9.193c-2.118-1.852-4.893-2.792-8.246-2.792
		c-2.486,0-5.31,0.52-8.426,1.547c-0.017-0.021-0.031-0.043-0.048-0.064l-0.1-0.137l-0.108-0.131
		c-1.443-1.746-9.068-10.45-17.475-10.45c-3.092,0-5.923,1.169-8.188,3.383c-5.596,5.461-4.336,13.21-2.446,18.706
		c-1.038,0.281-2.159,0.551-3.281,0.766c-2.509,0.479-6.748,2.856-7.445,7.192c-0.075,0.471-0.115,1.043-0.069,1.677
		c-0.881-0.078-1.773-0.133-2.691-0.133c-2.79,0-5.661,0.402-8.528,1.192c-7.369,2.036-11.813,7.044-14.338,11.211
		c-1.474-0.713-3.124-1.219-4.838-1.219c-1.723,0-3.36,0.51-4.735,1.478c-3.949,2.779-3.673,6.808-2.545,10.088
		c-1.705-2.088-3.648-3.812-5.859-5.161c-5.332-3.253-10.935-4.901-16.656-4.901c-6.434,0-12.294,2.147-16.955,5.275
		c1.509-2.629,2.603-5.309,3.056-7.958c0.734-4.295-0.196-8.325-2.688-11.649c-2.705-3.607-7.47-5.513-13.784-5.513
		c-7.364,0-16.044,2.55-22.655,6.655c-0.584,0.362-1.194,0.732-1.827,1.115C39.08,102.73,30.87,107.713,24,118.076
		c-4.275,6.453-5.33,12.75-4.337,25.89c0.141,3.341,2.663,47.427,36.493,71.187c3.047,2.141,7.104,4.596,11.475,4.596
		c3.33,0,11.087-1.581,11.227-16.222c0.027-2.878-0.084-5.785-0.331-8.729c1.875,2.502,4.08,4.611,6.55,6.134
		c3.776,2.327,7.771,3.509,11.873,3.509c11.788,0,20.391-9.444,20.737-17.918c0.093-2.251-0.11-4.21-0.544-5.917
		c3.432,1.145,6.99,1.663,10.523,1.956c0.534,0.045,1.026,0.064,1.478,0.064c5.024,0,7.023-2.602,7.769-4.152
		c0.924-1.924,0.798-3.891,0.286-5.599c1.979,1.089,4.197,1.657,6.637,1.657c0.754,0,1.536-0.056,2.317-0.17
		c4.996-0.724,8.877-3.199,11.224-7.158c1.115-1.88,1.803-3.98,2.164-6.169c0.52,1.171,1.171,2.284,1.969,3.302
		c2.587,3.296,6.257,5.04,10.614,5.04c1.569,0,3.233-0.234,4.95-0.692c8.575-2.296,13.356-9.495,15.239-18.175
		c1.104,0.973,2.495,1.505,3.988,1.505c3.083,0,5.406-2.203,7.354-4.279c0.327-0.352,4.026-4.43,6.919-11.613
		c0.849,1.328,1.769,2.4,2.661,3.115c3.38,2.706,7.575,4.256,11.511,4.256c4.582,0,8.474-2.138,10.615-5.769
		c2.82,2.563,6.528,4.329,11.109,5.276c0.77,0.159,1.513,0.238,2.215,0.238c2.824,0,5.173-1.301,6.44-3.57
		c1.722-3.077,0.771-6.712-0.688-9.088C254.162,130.139,253.333,128.79,255.462,121.933z"/>
	<path fill="#26306B" d="M78.921,143.645c-4.489-4.143-14.568,1.276-19.634,4.468c-1.602-3.367-3.357-6.853-5.282-10.468
		c0,0,35.696-23.821,25.25-37.75c-4.5-6-20-3.583-29.667,2.417c-5.901,3.663-14.394,8.112-21.333,18.583
		c-3.179,4.796-4.5,9.583-3.5,22.75c0,0,1.583,44.333,34.333,67.333c3.25,2.282,14.5,10,14.667-7.5
		c0.103-10.764-1.78-22.852-6.957-37.408C74.408,159.625,83.611,147.972,78.921,143.645z"/>
	<path fill="#26306B" d="M96.922,145.978c0,0-1.727-15.499-13.333-11.223c-6.333,2.333-7.091-1.884-5.5-5.5
		c3.667-8.333,19.167-19,35.833-8.833c7.42,4.526,11.833,14.667,12.5,34.89c0.367,11.136,4.333,16.166,4.333,16.166
		s5.333,6.667-2.667,6c-8-0.666-16.924-2.362-23-14.166c-4.833-9.39-13-5.723-14.667-1.89c-1.337,3.076-2.833,12,7.333,12.556
		c10.517,0.575,15.188,3.727,14.833,12.334c-0.333,8.11-12.477,17.895-24.833,10.277C75.588,189.089,68.255,159.978,96.922,145.978z
		"/>
	<path fill="#26306B" d="M136.588,118.645c0,0-5.416-5.622-8.667-3.333c-3,2.111,0.834,7.111,2,9.611s1.5,8.39,1.5,19.056
		c0,10.667,2.5,27,14,25.334c11.5-1.667,10.167-14.834,7.5-22c-2.666-7.167-11.671-20.104-5.332-29.723
		c4.833-7.333,13.845-3.754,16.332,1.89c3.501,7.944,1.72,18.249-0.332,26.611c-2.167,8.833,0.333,20.833,12.166,17.666
		c11.834-3.167,13.563-18.77,11.834-29.833c-1.833-11.723-14.928-35.518-37.334-29.333
		C139.588,107.533,136.588,118.645,136.588,118.645z"/>
	<path fill="#26306B" d="M212.589,82.754c-3.586-3.137-10.856-0.777-15.241,1.107c-0.715-1.08-1.463-2.171-2.259-3.274
		c0,0-11.167-13.5-18.167-6.667c-3.264,3.186-3.667,8.667,0.833,18.224c0,0-4.499,1.718-9.166,2.609
		c-1.546,0.295-6.5,3.333-0.5,6.667c6.996,3.887,12.333,4.333,16.833,4.667c0,0,12,16.5,10.167,34.667
		c-0.916,9.078,2.333,6.167,4.833,3.5c0,0,15.231-16.331,6.062-43.214c1.938-1.033,4.253-2.549,6.105-4.619
		C214.923,93.254,218.537,87.958,212.589,82.754z"/>
	<path fill="#26306B" d="M230.756,108.754c0,0-0.167-8.167-9.167-7.333c-7.616,0.705-4.616-3.713-3.167-5.333
		c2.834-3.167,12.644-8.794,23.334-4.167c11.167,4.833,11.833,18.833,8.833,28.5c-2.457,7.916-1.771,10.767-0.5,12.833
		c1.333,2.167,1.545,5.605-2.584,4.751c-3.625-0.75-11.393-2.689-13.249-12.917c-1.626-8.958-5.001-10.583-8.626-9.333
		c-3.013,1.039-5.431,7.191,0.25,9.125c6.124,2.084,7.25,5.75,5.376,9.708c-2.488,5.255-9.834,4.667-14.834,0.667
		c-2.708-2.167-7.833-13-0.166-21.167C222.629,107.3,229.09,108.421,230.756,108.754z"/>
	<g>
		<ellipse fill="none" stroke="#F37021" cx="141.505" cy="139.255" rx="128.75" ry="126.5"/>
	</g>
	<g>
		<path fill="#FFFFFF" d="M261.274,123.094c3.058,0,5.433,2.375,5.433,5.334c0,3.025-2.375,5.367-5.465,5.367
			c-3.057,0-5.497-2.342-5.497-5.367c0-2.96,2.44-5.334,5.497-5.334H261.274z M261.21,124.168c-2.342,0-4.099,1.918-4.099,4.261
			c0,2.375,1.757,4.261,4.163,4.261c2.342,0.033,4.066-1.886,4.066-4.261c0-2.342-1.725-4.261-4.099-4.261H261.21z M260.396,131.193
			h-1.235v-5.302c0.487-0.097,1.171-0.195,2.049-0.195c1.008,0,1.463,0.163,1.854,0.423c0.293,0.228,0.521,0.651,0.521,1.139
			c0,0.618-0.455,1.073-1.105,1.268v0.065c0.521,0.163,0.813,0.585,0.976,1.301c0.162,0.813,0.261,1.138,0.391,1.301h-1.334
			c-0.162-0.195-0.26-0.651-0.422-1.269c-0.099-0.585-0.423-0.846-1.106-0.846h-0.586V131.193z M260.43,128.201h0.585
			c0.684,0,1.236-0.228,1.236-0.781c0-0.487-0.357-0.813-1.139-0.813c-0.325,0-0.553,0.033-0.683,0.065V128.201z"/>
	</g>
	<path fill="#F04E23" d="M141.505,12.755c-71.106,0-128.75,56.636-128.75,126.5c0,6.164,0.458,12.222,1.325,18.149
		c-0.21-2.969-0.325-5.962-0.325-8.982c0-70.508,58.175-127.667,129.938-127.667c54.219,0,100.674,32.632,120.15,78.995
		C246.954,49.234,198.569,12.755,141.505,12.755z"/>
</g>
</svg>
