<?xml version="1.0" encoding="utf-8"?>
<!-- Generator: Adobe Illustrator 18.1.1, SVG Export Plug-In . SVG Version: 6.00 Build 0)  -->
<svg version="1.1" id="Layer_1" xmlns="http://www.w3.org/2000/svg" xmlns:xlink="http://www.w3.org/1999/xlink" x="0px" y="0px"
	 viewBox="-107 111.5 520.3 512" enable-background="new -107 111.5 520.3 512" xml:space="preserve">
<g>
	<g>
		<path fill="#FFFFFF" d="M153.1,623.5C9.7,623.5-107,508.6-107,367.5c0-141.2,116.7-256,260.1-256s260.1,114.8,260.1,256
			C413.3,508.6,296.6,623.5,153.1,623.5L153.1,623.5z"/>
	</g>
	<path fill="#F37021" stroke="#F37021" d="M389.8,367.5c0-25.4-4.1-49.8-11.8-72.6c-35.8-85.2-121.2-145.2-220.9-145.2
		c-131.9,0-238.9,105.1-238.9,234.7c0,5.6,0.2,11.1,0.6,16.5C-64.6,513.5,33.9,600,153.1,600C283.9,600,389.8,495.9,389.8,367.5z"/>
	<path fill="#488F3A" d="M198.2,268.9c0,0-21.1-11.5-44.1,10.1c0,0-19.3,17.9-37.2,19.8c0,0,1.8-2.8,1.8-10.6
		c0,0-29.4,32.2-73.1-13.3c0,0,12.9,7.8,36.8-24.4c0,0,26.2-35.8,48.7-24.4c0,0-2.3-6.4-5.5-8.3
		C125.6,217.9,185.3,205.1,198.2,268.9z"/>
	
		<linearGradient id="SVGID_1_" gradientUnits="userSpaceOnUse" x1="46.1436" y1="234.0643" x2="197.1381" y2="234.0643" gradientTransform="matrix(1 0 0 -1 0 502.978)">
		<stop  offset="6.560000e-02" style="stop-color:#488F3A"/>
		<stop  offset="0.3991" style="stop-color:#397132"/>
		<stop  offset="0.7094" style="stop-color:#305D2C"/>
		<stop  offset="0.888" style="stop-color:#2C5629"/>
	</linearGradient>
	<path fill="url(#SVGID_1_)" d="M154.1,279c20-18.8,38.6-12.5,43.1-10.6c-10.7-15.5-43.2-52.8-84.9-10.1
		c-29.3,30-54.9,22.8-66.1,17.1c43.4,44.7,72.5,12.8,72.5,12.8c0,7.8-1.8,10.6-1.8,10.6C134.8,297,154.1,279,154.1,279z"/>
	<path fill="#FFFFFF" d="M362.6,335.6c7.2-23.1,3.5-53-21.5-63.8c-6.1-2.7-12.6-4-19.1-4c-8.5,0-16.5,2.3-23,5.6
		c-0.4-6.3-3.4-12-9.1-16.9c-3.9-3.4-9-5.1-15.2-5.1c-4.6,0-9.8,1-15.5,2.8c0,0-0.1-0.1-0.1-0.1l-0.2-0.3l-0.2-0.2
		c-2.7-3.2-16.7-19.2-32.1-19.2c-5.7,0-10.9,2.1-15.1,6.2c-10.3,10-8,24.3-4.5,34.4c-1.9,0.5-4,1-6,1.4c-4.6,0.9-12.4,5.3-13.7,13.2
		c-0.1,0.9-0.2,1.9-0.1,3.1c-1.6-0.1-3.3-0.2-4.9-0.2c-5.1,0-10.4,0.7-15.7,2.2c-13.5,3.7-21.7,12.9-26.4,20.6
		c-2.7-1.3-5.7-2.2-8.9-2.2c-3.2,0-6.2,0.9-8.7,2.7c-7.3,5.1-6.8,12.5-4.7,18.5c-3.1-3.8-6.7-7-10.8-9.5c-9.8-6-20.1-9-30.6-9
		c-11.8,0-22.6,3.9-31.2,9.7c2.8-4.8,4.8-9.8,5.6-14.6c1.3-7.9-0.4-15.3-4.9-21.4c-5-6.6-13.7-10.1-25.3-10.1
		c-13.5,0-29.5,4.7-41.6,12.2c-1.1,0.7-2.2,1.3-3.4,2c-11,6.7-26.1,15.9-38.7,34.9c-7.9,11.9-9.8,23.4-8,47.6
		c0.3,6.1,4.9,87.2,67.1,130.9c5.6,3.9,13.1,8.4,21.1,8.4c6.1,0,20.4-2.9,20.6-29.8c0-5.3-0.2-10.6-0.6-16c3.4,4.6,7.5,8.5,12,11.3
		c6.9,4.3,14.3,6.5,21.8,6.5c21.7,0,37.5-17.4,38.1-32.9c0.2-4.1-0.2-7.7-1-10.9c6.3,2.1,12.9,3.1,19.3,3.6c1,0.1,1.9,0.1,2.7,0.1
		c9.2,0,12.9-4.8,14.3-7.6c1.7-3.5,1.5-7.2,0.5-10.3c3.6,2,7.7,3,12.2,3c1.4,0,2.8-0.1,4.3-0.3c9.2-1.3,16.3-5.9,20.6-13.2
		c2-3.5,3.3-7.3,4-11.3c1,2.2,2.2,4.2,3.6,6.1c4.8,6.1,11.5,9.3,19.5,9.3c2.9,0,5.9-0.4,9.1-1.3c15.8-4.2,24.6-17.5,28-33.4
		c2,1.8,4.6,2.8,7.3,2.8c5.7,0,9.9-4,13.5-7.9c0.6-0.6,7.4-8.1,12.7-21.3c1.6,2.4,3.3,4.4,4.9,5.7c6.2,5,13.9,7.8,21.2,7.8
		c8.4,0,15.6-3.9,19.5-10.6c5.2,4.7,12,8,20.4,9.7c1.4,0.3,2.8,0.4,4.1,0.4c5.2,0,9.5-2.4,11.8-6.6c3.2-5.7,1.4-12.3-1.3-16.7
		C360.2,350.7,358.7,348.2,362.6,335.6z"/>
	<path fill="#26306B" d="M38.1,375.6c-8.3-7.6-26.8,2.3-36.1,8.2c-2.9-6.2-6.2-12.6-9.7-19.2c0,0,65.6-43.8,46.4-69.4
		c-8.3-11-36.8-6.6-54.5,4.4c-10.8,6.7-26.5,14.9-39.2,34.2c-5.8,8.8-8.3,17.6-6.4,41.8c0,0,2.9,81.5,63.1,123.8
		c6,4.2,26.7,18.4,27-13.8c0.2-19.8-3.3-42-12.8-68.8C29.8,404.9,46.7,383.5,38.1,375.6z"/>
	<path fill="#26306B" d="M71.2,379.8c0,0-3.2-28.5-24.5-20.6c-11.6,4.3-13-3.5-10.1-10.1c6.7-15.3,35.2-34.9,65.9-16.2
		c13.6,8.3,21.8,27,23,64.1c0.7,20.5,8,29.7,8,29.7s9.8,12.3-4.9,11c-14.7-1.2-31.1-4.3-42.3-26c-8.9-17.3-23.9-10.5-27-3.5
		c-2.5,5.7-5.2,22.1,13.5,23.1c19.3,1.1,27.9,6.9,27.3,22.7c-0.6,14.9-22.9,32.9-45.7,18.9C32,459.1,18.5,405.6,71.2,379.8z"/>
	<path fill="#26306B" d="M144.1,329.6c0,0-10-10.3-15.9-6.1c-5.5,3.9,1.5,13.1,3.7,17.7c2.1,4.6,2.8,15.4,2.8,35
		c0,19.6,4.6,49.6,25.7,46.6c21.1-3.1,18.7-27.3,13.8-40.4c-4.9-13.2-21.5-37-9.8-54.6c8.9-13.5,25.5-6.9,30,3.5
		c6.4,14.6,3.2,33.5-0.6,48.9c-4,16.2,0.6,38.3,22.4,32.5c21.8-5.8,24.9-34.5,21.8-54.8c-3.4-21.6-27.4-65.3-68.6-53.9
		C149.6,309.2,144.1,329.6,144.1,329.6z"/>
	<path fill="#26306B" d="M283.8,263.6c-6.6-5.8-20-1.4-28,2c-1.3-2-2.7-4-4.2-6c0,0-20.5-24.8-33.4-12.3c-6,5.9-6.7,15.9,1.5,33.5
		c0,0-8.3,3.2-16.9,4.8c-2.8,0.5-11.9,6.1-0.9,12.3c12.9,7.1,22.7,8,30.9,8.6c0,0,22.1,30.3,18.7,63.7c-1.7,16.7,4.3,11.3,8.9,6.4
		c0,0,28-30,11.1-79.4c3.6-1.9,7.8-4.7,11.2-8.5C288.1,282.9,294.7,273.2,283.8,263.6z"/>
	<path fill="#26306B" d="M317.2,311.4c0,0-0.3-15-16.9-13.5c-14,1.3-8.5-6.8-5.8-9.8c5.2-5.8,23.2-16.2,42.9-7.7
		c20.5,8.9,21.8,34.6,16.2,52.4c-4.5,14.6-3.3,19.8-0.9,23.6c2.5,4,2.8,10.3-4.8,8.7c-6.7-1.4-20.9-4.9-24.4-23.7
		c-3-16.5-9.2-19.5-15.9-17.2c-5.5,1.9-10,13.2,0.5,16.8c11.3,3.8,13.3,10.6,9.9,17.8c-4.6,9.7-18.1,8.6-27.3,1.2
		c-5-4-14.4-23.9-0.3-38.9C302.3,308.7,314.1,310.8,317.2,311.4z"/>
	<g>
		<ellipse fill="none" stroke="#F37021" cx="153.1" cy="367.5" rx="236.7" ry="232.6"/>
	</g>
	<g>
		<path fill="#FFFFFF" d="M373.3,337.8c5.6,0,10,4.4,10,9.8c0,5.6-4.4,9.9-10,9.9c-5.6,0-10.1-4.3-10.1-9.9
			C363.1,342.1,367.6,337.8,373.3,337.8C373.3,337.8,373.3,337.8,373.3,337.8z M373.2,339.8c-4.3,0-7.5,3.5-7.5,7.8
			c0,4.4,3.2,7.8,7.7,7.8c4.3,0.1,7.5-3.5,7.5-7.8C380.8,343.3,377.6,339.8,373.2,339.8L373.2,339.8z M371.7,352.7h-2.3v-9.7
			c0.9-0.2,2.2-0.4,3.8-0.4c1.9,0,2.7,0.3,3.4,0.8c0.5,0.4,1,1.2,1,2.1c0,1.1-0.8,2-2,2.3v0.1c1,0.3,1.5,1.1,1.8,2.4
			c0.3,1.5,0.5,2.1,0.7,2.4h-2.5c-0.3-0.4-0.5-1.2-0.8-2.3c-0.2-1.1-0.8-1.6-2-1.6h-1.1L371.7,352.7L371.7,352.7z M371.8,347.2h1.1
			c1.3,0,2.3-0.4,2.3-1.4c0-0.9-0.7-1.5-2.1-1.5c-0.6,0-1,0.1-1.3,0.1L371.8,347.2L371.8,347.2z"/>
	</g>
	<path fill="#F04E23" d="M153.1,134.9c-130.7,0-236.7,104.1-236.7,232.6c0,11.3,0.8,22.5,2.4,33.4c-0.4-5.5-0.6-11-0.6-16.5
		c0-129.6,106.9-234.7,238.9-234.7c99.7,0,185.1,60,220.9,145.2C347,202,258,134.9,153.1,134.9z"/>
</g>
</svg>
