<?xml version="1.0" encoding="UTF-8" standalone="no"?>
<svg width="1174px" height="510px" viewBox="0 0 1174 510" version="1.1" xmlns="http://www.w3.org/2000/svg" xmlns:xlink="http://www.w3.org/1999/xlink">
    <!-- Generator: Sketch 3.6.1 (26313) - http://www.bohemiancoding.com/sketch -->
    <title>fast</title>
    <desc>Created with Sketch.</desc>
    <defs></defs>
    <g id="Page-1" stroke="none" stroke-width="1" fill="none" fill-rule="evenodd">
        <g id="fast" transform="translate(0.000000, -1.000000)" fill="#000000">
            <g id="Group">
                <path d="M1107.6356,73.9853403 C1112.19267,73.1811518 1115.94555,71.5727749 1117.28586,69.9643979 L1173.57906,1.87643979 C1034.72251,26.5382199 838.232461,61.9225131 806.332984,67.5518325 C668.012565,92.2136126 655.14555,108.833508 636.113089,130.546597 C612.52356,157.35288 603.677487,190.59267 605.82199,213.914136 C608.770681,245.54555 627.267016,262.165445 664.795812,265.114136 C696.427225,267.526702 714.92356,261.361257 761.298429,264.041885 C794.53822,265.918325 801.239791,305.859686 749.771728,325.964398 C722.161257,336.954974 679.271204,341.512042 662.115183,340.439791 C588.934031,336.686911 568.561257,294.601047 550.064921,201.583246 L529.692147,110.97801 L223.296335,470.182199 L547.652356,412.280628 L470.718325,366.173822 L381.721466,381.989529 L486.534031,259.216754 L486.534031,259.216754 L488.946597,256.268063 L489.21466,256.268063 C503.690052,347.94555 556.766492,400.485864 643.618848,400.753927 C680.343455,401.02199 732.347644,393.51623 774.969634,376.092147 C833.139267,352.502618 867.183246,298.890052 864.770681,257.072251 C862.894241,226.245026 840.913089,201.851309 797.486911,199.438743 C761.834555,197.294241 754.060733,201.583246 714.387435,201.583246 C672.301571,201.851309 666.136126,150.651309 733.687958,138.588482 C777.114136,130.81466 860.481675,117.679581 940.632461,103.472251 L872.544503,353.842932 L961.005236,338.027225 L1032.04188,87.3884817 L1107.6356,73.9853403 L1107.6356,73.9853403 Z" id="Shape"></path>
                <path d="M300.766492,321.943455 C300.766492,321.943455 350.358115,262.969634 359.472251,252.24712 C348.481675,254.391623 280.393717,267.258639 270.743455,269.135079 C232.410471,276.908901 209.893194,286.291099 190.59267,299.426178 L193.005236,294.601047 C209.357068,260.557068 228.657592,229.46178 297.549738,217.13089 L404.238743,198.098429 C405.579058,197.830366 406.919372,197.026178 407.991623,195.953927 L463.480628,129.206283 L315.77801,155.47644 C173.168586,180.942408 135.371728,228.389529 91.9455497,318.994764 L0.268062827,510.12356 L97.8429319,492.699476 L130.010471,425.68377 C157.620942,368.050262 193.005236,343.656545 241.79267,334.542408 C256.268063,331.86178 300.766492,321.943455 300.766492,321.943455 L300.766492,321.943455 Z" id="Shape"></path>
                <path d="M1100.12984,294.86911 L1084.85026,275.032461 L1084.04607,275.032461 L1071.71518,318.458639 L1077.07644,317.386387 L1086.19058,286.023037 L1099.32565,302.642932 L1119.96649,283.074346 L1111.92461,311.220942 L1117.55393,310.148691 L1129.88482,267.526702 L1129.08063,267.794764 L1100.12984,294.86911 Z" id="Shape"></path>
                <path d="M1074.12775,277.713089 L1033.11414,284.41466 L1031.50576,289.507853 L1049.46597,286.559162 L1038.47539,324.356021 L1044.37277,323.28377 L1055.09529,285.486911 L1072.78743,282.53822 L1074.12775,277.713089 Z" id="Shape"></path>
            </g>
        </g>
    </g>
</svg>