<?xml version="1.0" encoding="utf-8"?>
<!-- Generator: Adobe Illustrator 19.2.1, SVG Export Plug-In . SVG Version: 6.00 Build 0)  -->
<svg version="1.1" id="Layer_1" xmlns="http://www.w3.org/2000/svg" xmlns:xlink="http://www.w3.org/1999/xlink" x="0px" y="0px"
	 viewBox="0 0 512 199" style="enable-background:new 0 0 512 199;" xml:space="preserve">
<g>
	<path d="M450.2,31.6c1.7-0.3,3.1-0.9,3.6-1.5l21-25.4c-51.8,9.2-125.1,22.4-137,24.5c-51.6,9.2-56.4,15.4-63.5,23.5
		c-8.8,10-12.1,22.4-11.3,31.1c1.1,11.8,8,18,22,19.1c11.8,0.9,18.7-1.4,36-0.4c12.4,0.7,14.9,15.6-4.3,23.1
		c-10.3,4.1-26.3,5.8-32.7,5.4c-27.3-1.4-34.9-17.1-41.8-51.8l-7.6-33.8l-114.3,134l121-21.6l-28.7-17.2l-33.2,5.9l39.1-45.8v0
		l0.9-1.1c0,0,0.1,0,0.1,0c5.4,34.2,25.2,53.8,57.6,53.9c13.7,0.1,33.1-2.7,49-9.2c21.7-8.8,34.4-28.8,33.5-44.4
		c-0.7-11.5-8.9-20.6-25.1-21.5c-13.3-0.8-16.2,0.8-31,0.8c-15.7,0.1-18-19,7.2-23.5c16.2-2.9,47.3-7.8,77.2-13.1L362.5,136l33-5.9
		L422,36.6L450.2,31.6z"/>
	<path d="M149.2,124.1c0,0,18.5-22,21.9-26c-4.1,0.8-29.5,5.6-33.1,6.3c-14.3,2.9-22.7,6.4-29.9,11.3l0.9-1.8
		c6.1-12.7,13.3-24.3,39-28.9l39.8-7.1c0.5-0.1,1-0.4,1.4-0.8l20.7-24.9L154.8,62c-53.2,9.5-67.3,27.2-83.5,61l-34.2,71.3l36.4-6.5
		l12-25c10.3-21.5,23.5-30.6,41.7-34C132.6,127.8,149.2,124.1,149.2,124.1z"/>
	<polygon points="447.4,114 441.7,106.6 441.4,106.6 436.8,122.8 438.8,122.4 442.2,110.7 447.1,116.9 454.8,109.6 451.8,120.1 
		453.9,119.7 458.5,103.8 458.2,103.9 	"/>
	<polygon points="437.7,107.6 422.4,110.1 421.8,112 428.5,110.9 424.4,125 426.6,124.6 430.6,110.5 437.2,109.4 	"/>
</g>
</svg>
