<?xml version="1.0" standalone="no"?>
<!DOCTYPE svg PUBLIC "-//W3C//DTD SVG 20010904//EN"
 "http://www.w3.org/TR/2001/REC-SVG-20010904/DTD/svg10.dtd">
<svg version="1.0" xmlns="http://www.w3.org/2000/svg"
 width="450.000000pt" height="128.000000pt" viewBox="0 0 450.000000 128.000000"
 preserveAspectRatio="xMidYMid meet">
<metadata>
Created by potrace 1.13, written by Peter Selinger 2001-2015
</metadata>
<g transform="translate(0.000000,128.000000) scale(0.100000,-0.100000)"
fill="#000000" stroke="none">
<path d="M642 1144 c-175 -47 -314 -178 -374 -352 -29 -87 -31 -230 -4 -312
49 -147 153 -269 279 -329 80 -38 90 -39 71 -3 -17 32 -20 334 -4 377 5 14 21
36 35 49 l25 24 -24 16 c-25 16 -39 52 -51 129 -8 50 -69 110 -136 132 -27 9
-49 18 -49 21 0 2 185 4 410 4 l410 0 0 -56 c0 -48 -4 -59 -29 -85 l-29 -29
-175 0 c-97 0 -182 -3 -191 -6 -12 -5 -16 -21 -16 -70 l0 -64 155 0 155 0 0
-39 c0 -28 -7 -49 -24 -68 -24 -27 -27 -28 -153 -33 l-128 -5 -3 -173 -2 -172
32 0 c98 0 226 59 317 146 175 164 217 407 109 626 -40 81 -152 193 -230 230
-117 57 -261 73 -376 42z"/>
<path d="M3690 917 l0 -52 -44 3 c-63 5 -128 -25 -149 -71 -26 -54 -23 -165 6
-208 30 -44 95 -64 183 -54 l64 7 0 214 0 214 -30 0 c-30 0 -30 -1 -30 -53z
m0 -217 l0 -110 -50 0 c-74 0 -100 28 -100 110 0 82 26 110 100 110 l50 0 0
-110z"/>
<path d="M4110 790 c0 -214 8 -245 64 -256 50 -9 86 2 86 26 0 15 -8 19 -37
22 l-38 3 -3 193 -2 192 -35 0 -35 0 0 -180z"/>
<path d="M2500 895 c0 -31 -3 -35 -25 -35 -20 0 -25 -5 -25 -25 0 -20 5 -25
25 -25 l25 0 0 -113 c0 -129 9 -152 65 -163 52 -9 85 2 85 29 0 20 -4 23 -30
19 -52 -8 -60 8 -60 124 l0 104 45 0 c41 0 45 2 45 25 0 23 -4 25 -45 25 -45
0 -45 0 -45 35 0 32 -2 35 -30 35 -28 0 -30 -3 -30 -35z"/>
<path d="M1677 910 c-57 -18 -57 -19 -57 -201 l0 -169 30 0 30 0 0 80 0 80 90
0 c89 0 90 0 90 25 0 25 -1 25 -91 25 l-90 0 3 53 3 52 96 3 c87 2 97 5 102
22 3 11 2 22 -2 24 -16 10 -178 15 -204 6z"/>
<path d="M2710 725 l0 -185 30 0 30 0 1 153 0 152 54 -113 c54 -112 55 -113
87 -110 30 3 35 9 85 118 l53 115 0 -157 0 -158 30 0 30 0 0 185 0 185 -49 0
-48 0 -48 -105 c-27 -58 -51 -105 -55 -105 -4 0 -29 47 -55 105 l-48 105 -49
0 -48 0 0 -185z"/>
<path d="M1962 860 c-41 -10 -45 -14 -38 -37 5 -17 14 -18 73 -15 72 5 93 -7
93 -52 0 -19 -5 -21 -44 -18 -114 9 -184 -65 -145 -152 7 -13 26 -31 43 -38
34 -14 135 -17 179 -5 l27 7 0 121 c0 86 -4 128 -15 148 -23 45 -90 61 -173
41z"/>
<path d="M2250 859 c-45 -18 -60 -39 -60 -84 0 -58 23 -85 80 -91 91 -10 91
-11 88 -52 l-3 -37 -78 0 c-73 0 -77 -1 -77 -22 0 -12 4 -24 9 -27 22 -14 99
-17 139 -7 52 14 77 49 76 105 -2 54 -38 86 -99 86 -61 0 -75 7 -75 41 0 38
34 52 101 43 47 -6 49 -6 49 18 0 22 -6 26 -37 32 -51 8 -83 7 -113 -5z"/>
<path d="M3236 860 c-46 -14 -74 -48 -87 -106 -17 -74 1 -154 41 -188 54 -45
156 -45 210 1 59 50 63 208 6 262 -39 37 -108 49 -170 31z m124 -70 c16 -16
20 -33 20 -90 0 -88 -17 -110 -85 -110 -68 0 -85 22 -85 110 0 88 17 110 85
110 32 0 51 -6 65 -20z"/>
<path d="M3871 853 c-59 -31 -76 -64 -76 -146 0 -40 6 -87 14 -105 23 -54 93
-79 187 -67 50 6 54 8 54 33 l0 27 -74 -3 c-65 -3 -77 -1 -95 17 -12 12 -21
32 -21 46 l0 25 105 0 105 0 0 44 c0 93 -33 133 -118 142 -34 4 -57 0 -81 -13z"/>
<path d="M2415 393 c-32 -8 -45 -24 -45 -53 0 -34 20 -52 67 -59 61 -10 53
-31 -12 -31 -48 0 -56 -3 -53 -17 5 -26 77 -39 114 -22 22 11 30 22 32 49 4
41 -16 60 -65 60 -23 0 -33 5 -33 15 0 11 12 15 45 15 32 0 47 5 52 15 3 9 4
17 2 19 -8 7 -85 14 -104 9z"/>
<path d="M2573 393 c-22 -4 -23 -9 -23 -94 0 -88 0 -89 25 -89 21 0 25 5 25
30 0 28 2 30 38 30 21 0 46 6 56 13 21 16 24 73 5 92 -16 16 -90 26 -126 18z"/>
<path d="M2784 386 c-36 -16 -44 -32 -44 -91 0 -64 24 -89 89 -89 70 0 96 25
96 94 0 36 -5 55 -20 69 -27 26 -83 34 -121 17z"/>
<path d="M2983 393 c-22 -4 -23 -9 -23 -94 0 -88 0 -89 25 -89 21 0 25 5 25
30 0 19 5 30 14 30 7 0 19 -13 26 -30 10 -24 19 -30 42 -30 l30 0 -20 33 c-19
33 -19 34 -1 56 24 29 24 43 2 70 -18 21 -78 33 -120 24z"/>
<path d="M3362 393 c-33 -6 -55 -44 -43 -75 11 -28 29 -38 72 -38 19 0 29 -5
29 -15 0 -11 -12 -15 -50 -15 -42 0 -50 -3 -50 -19 0 -38 120 -39 140 -1 25
47 6 81 -51 89 -63 9 -63 31 0 31 43 0 51 3 51 19 0 13 -10 20 -31 25 -17 3
-34 5 -38 5 -3 -1 -16 -4 -29 -6z"/>
</g>
</svg>
