<?xml version="1.0" encoding="iso-8859-1"?><!-- Generator: Adobe Illustrator 16.0.0, SVG Export Plug-In . SVG Version: 6.00 Build 0) --><!DOCTYPE svg PUBLIC "-//W3C//DTD SVG 1.1//EN" "http://www.w3.org/Graphics/SVG/1.1/DTD/svg11.dtd"><svg version="1.1" id="Layer_1" xmlns="http://www.w3.org/2000/svg" xmlns:xlink="http://www.w3.org/1999/xlink" x="0px" y="0px" width="43.937px" height="30.378px" viewBox="0 0 43.937 30.378" style="enable-background:new 0 0 43.937 30.378;" xml:space="preserve"><g><path d="M27.067,15.554c0.578-0.179,1.13-0.634,1.462-1.193L27.067,15.554L27.067,15.554z"/><polygon points="30.382,14.168 29.993,14.168 29.993,13.155 29.715,13.812 29.448,13.812 29.17,13.155 29.17,14.168 28.801,14.168	28.801,12.656 29.254,12.656 29.592,13.414 29.929,12.656 30.382,12.656 30.382,14.168	"/><path d="M31.904,13.599c0,0.188-0.055,0.336-0.164,0.443c-0.109,0.108-0.263,0.163-0.46,0.163s-0.351-0.054-0.46-0.163	c-0.109-0.107-0.164-0.256-0.164-0.443c0-0.188,0.055-0.337,0.165-0.445c0.11-0.107,0.263-0.161,0.459-0.161	c0.199,0,0.353,0.055,0.461,0.162C31.85,13.264,31.904,13.412,31.904,13.599L31.904,13.599z M31.456,13.876	c0.024-0.029,0.042-0.064,0.053-0.105c0.012-0.041,0.019-0.097,0.019-0.17c0-0.067-0.006-0.123-0.019-0.168	c-0.013-0.045-0.029-0.082-0.052-0.108c-0.021-0.028-0.048-0.048-0.078-0.06c-0.031-0.012-0.063-0.017-0.099-0.017	s-0.067,0.004-0.094,0.014c-0.028,0.01-0.054,0.028-0.08,0.057c-0.022,0.026-0.041,0.062-0.053,0.109	c-0.014,0.046-0.021,0.104-0.021,0.173c0,0.062,0.006,0.116,0.018,0.162s0.028,0.082,0.051,0.11	c0.022,0.026,0.048,0.046,0.078,0.058c0.03,0.013,0.065,0.019,0.104,0.019c0.034,0,0.065-0.006,0.095-0.017	C31.409,13.921,31.435,13.903,31.456,13.876L31.456,13.876z"/><path d="M33.321,13.599c0,0.188-0.055,0.336-0.164,0.443c-0.11,0.108-0.263,0.163-0.461,0.163c-0.197,0-0.351-0.054-0.46-0.163	c-0.109-0.107-0.164-0.256-0.164-0.443c0-0.188,0.055-0.337,0.165-0.445c0.11-0.107,0.263-0.161,0.459-0.161	c0.199,0,0.353,0.055,0.462,0.162C33.267,13.264,33.321,13.412,33.321,13.599L33.321,13.599z M32.872,13.876	c0.024-0.029,0.042-0.064,0.054-0.105c0.012-0.041,0.018-0.097,0.018-0.17c0-0.067-0.006-0.123-0.018-0.168	c-0.013-0.045-0.029-0.082-0.052-0.108c-0.021-0.028-0.048-0.048-0.078-0.06c-0.031-0.012-0.064-0.017-0.1-0.017	c-0.035,0-0.066,0.004-0.094,0.014s-0.054,0.028-0.08,0.057c-0.022,0.026-0.04,0.062-0.054,0.109	c-0.013,0.046-0.02,0.104-0.02,0.173c0,0.062,0.006,0.116,0.018,0.162c0.011,0.046,0.028,0.082,0.051,0.11	c0.022,0.026,0.048,0.046,0.078,0.058c0.03,0.013,0.065,0.019,0.104,0.019c0.034,0,0.065-0.006,0.096-0.017	C32.825,13.921,32.852,13.903,32.872,13.876L32.872,13.876z"/><path d="M34.032,12.656l-0.047,1.079h-0.332l-0.047-1.079H34.032L34.032,12.656z M33.615,13.901h0.41v0.268h-0.41V13.901	L33.615,13.901z"/><path d="M11.943,20.287h1.108v1.688h-1.108v4.324H9.641v-4.324H8.779v-1.688h0.861v-0.271c0-0.246,0.026-0.515,0.079-0.809	s0.152-0.534,0.297-0.722c0.146-0.187,0.349-0.337,0.612-0.452c0.262-0.114,0.646-0.172,1.152-0.172	c0.404,0,0.991,0.047,1.761,0.141l-0.254,1.386c-0.277-0.045-0.502-0.068-0.672-0.068c-0.209,0-0.359,0.035-0.451,0.105	c-0.091,0.07-0.156,0.181-0.193,0.333C11.952,19.841,11.943,20.018,11.943,20.287L11.943,20.287z"/><path d="M15.438,22.238l-2.198-0.229c0.083-0.388,0.203-0.692,0.359-0.914c0.157-0.223,0.382-0.415,0.676-0.578	c0.211-0.118,0.501-0.21,0.872-0.273c0.37-0.065,0.769-0.098,1.2-0.098c0.69,0,1.244,0.039,1.664,0.116	c0.418,0.078,0.768,0.239,1.046,0.484c0.196,0.17,0.351,0.411,0.464,0.723c0.113,0.311,0.169,0.608,0.169,0.892v2.657	c0,0.282,0.019,0.505,0.055,0.665c0.035,0.161,0.114,0.365,0.235,0.615h-2.16c-0.086-0.155-0.143-0.272-0.169-0.354	c-0.027-0.08-0.053-0.207-0.079-0.381c-0.302,0.292-0.602,0.5-0.899,0.626c-0.407,0.166-0.88,0.25-1.419,0.25	c-0.716,0-1.26-0.167-1.631-0.499c-0.372-0.332-0.558-0.741-0.558-1.228c0-0.457,0.134-0.832,0.402-1.126	c0.268-0.295,0.761-0.514,1.481-0.656c0.864-0.174,1.423-0.296,1.68-0.365c0.256-0.069,0.527-0.161,0.814-0.274	c0-0.286-0.059-0.486-0.176-0.602c-0.117-0.114-0.323-0.172-0.619-0.172c-0.379,0-0.662,0.062-0.852,0.183	C15.647,21.795,15.528,21.975,15.438,22.238L15.438,22.238z M17.441,23.451c-0.318,0.113-0.648,0.213-0.992,0.299	c-0.468,0.125-0.765,0.247-0.889,0.367c-0.128,0.124-0.193,0.266-0.193,0.424c0,0.18,0.063,0.328,0.189,0.442	c0.126,0.115,0.312,0.172,0.559,0.172c0.257,0,0.496-0.062,0.717-0.186c0.221-0.124,0.378-0.275,0.47-0.454	s0.139-0.411,0.139-0.697V23.451L17.441,23.451z"/><path d="M23.197,18.001v2.285h1.266v1.688h-1.266v2.13c0,0.256,0.024,0.425,0.074,0.508c0.075,0.129,0.207,0.192,0.396,0.192	c0.17,0,0.408-0.05,0.714-0.147l0.17,1.595c-0.569,0.124-1.101,0.188-1.593,0.188c-0.573,0-0.995-0.074-1.266-0.222	c-0.271-0.146-0.472-0.37-0.602-0.669c-0.13-0.301-0.195-0.786-0.195-1.458v-2.116h-0.844v-1.688h0.844v-1.103L23.197,18.001	L23.197,18.001z"/><path d="M30.134,24.22c-0.325,2.031-1.997,2.217-2.507,2.217c-1.985,0-2.74-1.532-2.74-3.134c0-2.508,1.544-3.158,2.74-3.158	c0.568,0,1.497,0.162,2.031,0.94c0.256,0.36,0.325,0.708,0.372,0.964l-0.987,0.15c-0.209-0.87-0.743-1.219-1.37-1.219	c-1.59,0-1.741,1.591-1.741,2.299c0,0.383,0,2.321,1.683,2.321c1.3,0,1.474-1.207,1.509-1.509L30.134,24.22L30.134,24.22z"/><path d="M30.808,21.144c0.545-0.696,1.416-0.999,2.205-0.999c1.266,0,2.821,0.755,2.821,3.053c0,1.289-0.325,1.881-0.604,2.218	c-0.569,0.697-1.417,1.021-2.218,1.021c-0.812,0-1.66-0.313-2.229-1.021c-0.557-0.696-0.592-1.672-0.592-2.124	C30.192,22.641,30.297,21.793,30.808,21.144L30.808,21.144z M33.013,25.601c1.451,0,1.776-1.393,1.776-2.345	c0-1.602-0.859-2.275-1.776-2.275c-0.638,0-1.776,0.359-1.776,2.311C31.237,25.253,32.409,25.601,33.013,25.601L33.013,25.601z"/><path d="M35.671,20.285h1.057l0.964,3.471l0.069,0.291c0.035,0.104,0.187,0.673,0.278,0.997c0.012-0.022,0.221-0.858,0.244-0.963	c0.036-0.104,0.058-0.244,0.071-0.278l0.963-3.518h1.044l0.894,3.482c0.047,0.151,0.104,0.36,0.117,0.43	c0.116,0.418,0.139,0.534,0.174,0.72h0.023c0.046-0.174,0.081-0.302,0.197-0.673c0.059-0.186,0.117-0.407,0.14-0.488l1.033-3.471	h0.998l-1.892,6.014h-1.057l-0.952-3.61c-0.011,0-0.174-0.731-0.209-0.882c-0.012-0.048-0.023-0.117-0.023-0.141h-0.023	l-1.196,4.633h-1.068L35.671,20.285L35.671,20.285z"/><polygon points="9.562,26.942 10.552,26.942 10.908,28.829 11.431,26.942 12.412,26.942 12.937,28.824 13.297,26.942	14.282,26.942 13.538,30.317 12.515,30.317 11.922,28.192 11.333,30.317 10.312,30.317 9.562,26.942	"/><polygon points="14.304,26.942 17.089,26.942 17.089,27.663 15.35,27.663 15.35,28.199 16.966,28.199 16.966,28.884 15.35,28.884	15.35,29.552 17.142,29.552 17.142,30.317 14.304,30.317 14.304,26.942	"/><path d="M17.402,26.942h1.945c0.324,0,0.573,0.081,0.747,0.243c0.173,0.161,0.26,0.36,0.26,0.6c0,0.199-0.062,0.371-0.186,0.514	c-0.083,0.096-0.204,0.171-0.363,0.227c0.243,0.058,0.421,0.158,0.535,0.3c0.115,0.142,0.171,0.319,0.171,0.534	c0,0.174-0.041,0.331-0.122,0.471s-0.192,0.25-0.333,0.331c-0.087,0.051-0.219,0.087-0.395,0.11	c-0.234,0.03-0.39,0.046-0.466,0.046h-1.795V26.942L17.402,26.942z M18.456,28.269h0.449c0.161,0,0.273-0.028,0.336-0.084	c0.062-0.057,0.094-0.137,0.094-0.243c0-0.099-0.032-0.176-0.094-0.231c-0.063-0.056-0.173-0.083-0.329-0.083h-0.456V28.269	L18.456,28.269z M18.456,29.596h0.526c0.177,0,0.303-0.032,0.375-0.096c0.073-0.064,0.109-0.149,0.109-0.258	c0-0.1-0.036-0.18-0.108-0.241c-0.072-0.061-0.198-0.091-0.378-0.091h-0.524V29.596L18.456,29.596z"/><polygon points="20.754,26.942 21.8,26.942 21.8,28.128 22.933,28.128 22.933,26.942 23.979,26.942 23.979,30.317 22.933,30.317	22.933,28.955 21.8,28.955 21.8,30.317 20.754,30.317 20.754,26.942	"/><path d="M24.225,28.631c0-0.552,0.154-0.982,0.461-1.289c0.307-0.308,0.734-0.462,1.283-0.462c0.562,0,0.995,0.151,1.298,0.454	c0.304,0.302,0.456,0.725,0.456,1.27c0,0.396-0.066,0.72-0.199,0.972c-0.133,0.254-0.324,0.451-0.576,0.592	c-0.251,0.141-0.563,0.211-0.938,0.211c-0.381,0-0.696-0.062-0.946-0.183c-0.249-0.121-0.452-0.313-0.606-0.577	C24.303,29.356,24.225,29.027,24.225,28.631L24.225,28.631z M25.271,28.636c0,0.342,0.063,0.587,0.189,0.735	c0.126,0.149,0.298,0.225,0.515,0.225c0.223,0,0.396-0.073,0.518-0.22c0.122-0.146,0.184-0.408,0.184-0.786	c0-0.318-0.063-0.551-0.191-0.698s-0.301-0.221-0.52-0.221c-0.209,0-0.378,0.075-0.505,0.224	C25.334,28.044,25.271,28.292,25.271,28.636L25.271,28.636z"/><path d="M27.793,29.202l0.993-0.062c0.021,0.163,0.065,0.287,0.131,0.373c0.107,0.138,0.26,0.207,0.459,0.207	c0.149,0,0.264-0.035,0.344-0.105c0.081-0.07,0.121-0.152,0.121-0.245c0-0.088-0.039-0.167-0.116-0.236	c-0.078-0.069-0.257-0.135-0.535-0.197c-0.458-0.104-0.784-0.24-0.979-0.411c-0.197-0.171-0.295-0.389-0.295-0.653	c0-0.174,0.05-0.338,0.151-0.492c0.101-0.155,0.252-0.276,0.453-0.365c0.201-0.088,0.478-0.133,0.829-0.133	c0.43,0,0.759,0.08,0.984,0.24c0.227,0.16,0.361,0.416,0.404,0.765l-0.984,0.059c-0.026-0.153-0.081-0.265-0.163-0.335	c-0.083-0.069-0.198-0.104-0.344-0.104c-0.121,0-0.211,0.025-0.272,0.078c-0.061,0.052-0.091,0.114-0.091,0.188	c0,0.055,0.024,0.104,0.074,0.146c0.049,0.045,0.165,0.086,0.349,0.125c0.456,0.099,0.783,0.199,0.98,0.3s0.34,0.226,0.431,0.375	c0.089,0.149,0.135,0.316,0.135,0.502c0,0.217-0.061,0.417-0.18,0.601c-0.12,0.183-0.287,0.321-0.501,0.416	c-0.214,0.096-0.485,0.143-0.812,0.143c-0.573,0-0.97-0.11-1.191-0.332C27.947,29.825,27.822,29.543,27.793,29.202L27.793,29.202z"	/><polygon points="30.821,26.942 33.993,26.942 33.993,27.777 32.93,27.777 32.93,30.317 31.885,30.317 31.885,27.777 30.821,27.777	30.821,26.942	"/><polygon points="34.192,26.942 35.238,26.942 35.238,30.317 34.192,30.317 34.192,26.942	"/><polygon points="35.679,26.942 36.647,26.942 37.919,28.812 37.919,26.942 38.904,26.942 38.904,30.317 37.919,30.317	36.654,28.458 36.654,30.317 35.679,30.317 35.679,26.942	"/><path d="M40.986,29.095v-0.703h1.608v1.443c-0.308,0.21-0.581,0.353-0.818,0.429c-0.238,0.076-0.519,0.114-0.844,0.114	c-0.4,0-0.726-0.068-0.979-0.205c-0.252-0.138-0.448-0.341-0.587-0.611c-0.139-0.271-0.208-0.582-0.208-0.933	c0-0.369,0.076-0.69,0.228-0.964c0.151-0.272,0.375-0.479,0.667-0.621c0.229-0.109,0.537-0.164,0.924-0.164	c0.373,0,0.651,0.034,0.837,0.102c0.185,0.067,0.338,0.171,0.46,0.313c0.122,0.142,0.214,0.321,0.275,0.539l-1.002,0.18	c-0.042-0.128-0.112-0.226-0.211-0.294c-0.099-0.067-0.226-0.102-0.38-0.102c-0.229,0-0.412,0.08-0.548,0.239	c-0.137,0.16-0.205,0.413-0.205,0.759c0,0.367,0.068,0.63,0.206,0.787c0.138,0.158,0.328,0.236,0.574,0.236	c0.117,0,0.228-0.018,0.333-0.051c0.105-0.034,0.227-0.092,0.363-0.174v-0.32H40.986L40.986,29.095z"/><path d="M13.516,0.064h0.267c0,0,0.095-0.004,0.095,0.192c0,0.088-0.991,0.699-1.178,2.357c-0.06,0.527,0.51,1.925,1.454,1.925	c0.196,0,0.196-0.04,0.254-0.118V4.75c-0.148,0.17-0.312,0.345-0.49,0.26c-1.502-0.715-4.213-0.283-5.415-1.336	c-0.058,0.067-0.058,0.04-0.046,0.236c0.069,1.131,0.475,1.7,0.639,2.035c0.305,0.62,1.432,1.133,1.915,1.108	c0.784-0.041,2.711-1.178,2.907-1.178c0.197,0,0.463-0.048,0.578,0.168c0.086,0.168,0.007,0.439,0.007,0.439	c-1.827,0.443-2.618,1.277-3.414,1.277c-2.092,0-3.34-2.573-3.34-4.203c0-0.196,0.079-0.472,0.09-0.735	c0.176-0.216,0.264-0.091,0.46-0.091c0.295,0,0.773,0.466,1.077,0.604c0.913,0.422,2.202,0.547,3.116,0.734l0.13-0.126	c-0.446-0.659-0.472-0.857-0.472-1.368C12.148,1.808,12.664,0.417,13.516,0.064L13.516,0.064z"/><path d="M17.854,6.819c0.131,0.007,0.188,0.038,0.188,0.235c0,0.246-0.495,0.904-0.576,0.937c-0.159,0.065-0.261,0.031-0.274,0	c-0.11-0.249-0.028-0.632,0.035-0.817C17.289,6.991,17.574,6.803,17.854,6.819L17.854,6.819z"/><path d="M21.213,6.82c0.211,0.439,0.186,1.161,0.287,1.53c0.157,0.575,1.235,0.642,1.265,0.642c1.64,0,2.364-1.424,3.584-1.385	c0.477,0.651,0.855,1.345,0.92,2.117c0.032,0.395,0.05,0.958-0.035,1.365c-0.162,0.78-0.537,2.655-1.844,2.724	c-1.102,0.076-1.352,0.025-1.64-0.002c-0.177-0.039-2.643-0.155-2.643-1.452c0-0.197-0.059-0.568,0.168-0.802	c0.797,1.407,2.023,1.627,3.015,1.627c0.737,0,1.786-0.072,2.13-1.294c0.105-0.371,0.188-1.22,0.188-1.535	c0-0.796-0.171-1.838-0.598-2.201c-0.547,0.114-1.507,0.971-2.594,1.259c-0.618,0.163-1.159,0-1.159,0	c-1.099-0.17-1.281-1.075-1.274-1.694l-0.104-0.811C21.032,6.76,21.141,6.777,21.213,6.82L21.213,6.82z"/><path d="M18.548,7.169c0.177-0.283,0.527-0.127,0.583-0.025c0.045,0.081,0.089,0.146,0.089,0.342S19.06,7.92,18.812,8.161	c-0.129,0.125-0.245,0.045-0.285-0.014C18.322,7.851,18.379,7.438,18.548,7.169L18.548,7.169z"/><path d="M12.655,7.683c0.565-0.244,0.436,0.11,0.436,0.11c-1.507,1.266-1.968,2.179-2.051,3.641	c-0.029,0.503,0.245,1.593,0.245,1.789s0.235,0.59,0.235,0.786s-0.157-0.118-0.157,0.079c0,0.195,0.067,0.207,0.235,0.397	C6.097,17.042,1.88,21.926,0.99,24.813c0,0-0.31,0.451-0.517,0.842C0.136,25.936,0,25.756,0,25.756	c0.037-0.242,0.136-0.706,0.3-1.106c1.792-4.645,5.71-8.201,10.277-10.648c-0.245-0.441-0.606-1.486-0.477-2.771	C10.246,9.789,11.677,8.183,12.655,7.683L12.655,7.683z"/><path d="M23.061,14c0.845,0.149,1.189,0.804,1.189,1.423c0,0.629-0.167,1.139-0.903,1.14c-1.275,0.002-1.987-1.7-2.437-1.65	c-0.268,0.03-3.493,2.266-4.558,2.043c-0.851-0.178-1.618-1.831-1.674-2.035c0.275,0.198,1.37,1.31,2.146,1.25	c1.106-0.087,3.467-1.965,4.047-1.965c0.865,0,1.306,1.729,2.043,1.729c0.58,0,0.55-0.717,0.55-0.825	c0-0.187-0.135-0.633-0.386-0.933C23.079,14.175,22.903,14.029,23.061,14L23.061,14z"/><path d="M15.213,3.674c0.1,0.021,0.229-0.042,0.365-0.119l0.165,0.473c-0.156,0.037-0.32,0.079-0.487,0.118	c-1.12,0.088-1.614-1.61-1.614-2.239c0-0.6,0.115-0.985,0.728-1.838c0,0,0.206-0.155,0.288,0c0.154,0.081,0,0.277,0,0.277	c-0.259,0.314-0.623,0.893-0.623,1.324C14.035,2.093,14.261,3.47,15.213,3.674L15.213,3.674z"/><path d="M22.39,3.279c-0.372,0.391-1.471,1.569-2.253,1.825l0.273-1.008c0.397-0.208,1.289-0.94,1.562-1.245	c0.131-0.147,0.417-0.51,0.473-0.698c0.147-0.489,0-1.047,0-1.047c0.088-0.091,0.077-0.103,0.274-0.103	c0.422,0,0.511,0.776,0.511,0.992v1.002c0,0.756-0.756,2.87-2.17,3.027c-0.195,0.021-0.354,0.02-0.494-0.168	c-0.154-0.146,0-0.282,0-0.282c0.768-0.208,1.722-0.983,1.878-1.782C22.532,3.548,22.39,3.279,22.39,3.279L22.39,3.279z"/><path d="M20.488,4.119c-0.056,0.759-0.67,1.442-0.757,1.442c-0.196,0-0.411-0.24-0.589-0.349c0.356-0.349,0.741-0.662,0.707-1.342	c-0.029-0.558-0.557-1.041-0.656-1.062c-0.106,0.018-0.13,0.081-0.13,0.277s0.079,0.707,0.052,1.688	c-0.397-0.475-0.689-1.617-1.502-1.648c-0.268-0.008-0.347,0.208-0.281,0.498c0.116,0.091,0.759,0.634,0.857,0.967	c0.168,0.573,0.073,0.914-0.098,1.022c-0.167,0.106-0.373,0.137-0.569,0.137c-0.629,0-0.974-0.482-0.974-1.013	c0-0.197,0.157-0.472,0.176-0.753c-0.205-0.115-0.79-0.097-1.143,0.493c0,0-0.435-0.104-0.165-0.475	c0.124-0.071-0.228-0.468,0.479-0.665c0.274-0.076,1.037,0.036,1.037,0.036c-0.08-0.12-0.153-0.326-0.148-0.521	c0.011-0.402,0.304-0.511,0.511-0.511c0.197,0,0.806,0.319,1.174,0.55c0,0,0.233,0.209,0.127-0.136	c-0.005-0.061-0.162-0.179-0.162-0.375c0-0.285,0.344-0.354,0.393-0.354C19.712,2.024,20.555,3.217,20.488,4.119L20.488,4.119z M17.045,4.227c-0.113,0.112-0.152,0.383-0.152,0.579c0,0.079,0.188,0.421,0.512,0.414c0,0,0.127-0.007,0.235-0.059	C17.733,4.939,17.487,4.395,17.045,4.227L17.045,4.227z"/><path d="M20.488,4.119c-0.056,0.759-0.67,1.442-0.757,1.442c-0.196,0-0.411-0.24-0.589-0.349c0.356-0.349,0.741-0.662,0.707-1.342	c-0.029-0.558-0.557-1.041-0.656-1.062c-0.106,0.018-0.13,0.081-0.13,0.277s0.079,0.707,0.052,1.688	c-0.397-0.475-0.689-1.617-1.502-1.648c-0.268-0.008-0.347,0.208-0.281,0.498c0.116,0.091,0.759,0.634,0.857,0.967	c0.168,0.573,0.073,0.914-0.098,1.022c-0.167,0.106-0.373,0.137-0.569,0.137c-0.629,0-0.974-0.482-0.974-1.013	c0-0.197,0.157-0.472,0.176-0.753c-0.205-0.115-0.79-0.097-1.143,0.493c0,0-0.435-0.104-0.165-0.475	c0.124-0.071-0.228-0.468,0.479-0.665c0.274-0.076,1.037,0.036,1.037,0.036c-0.08-0.12-0.153-0.326-0.148-0.521	c0.011-0.402,0.304-0.511,0.511-0.511c0.197,0,0.806,0.319,1.174,0.55c0,0,0.233,0.209,0.127-0.136	c-0.005-0.061-0.162-0.179-0.162-0.375c0-0.285,0.344-0.354,0.393-0.354C19.712,2.024,20.555,3.217,20.488,4.119L20.488,4.119z M17.045,4.227c-0.113,0.112-0.152,0.383-0.152,0.579c0,0.079,0.188,0.421,0.512,0.414c0,0,0.127-0.007,0.235-0.059	C17.733,4.939,17.487,4.395,17.045,4.227L17.045,4.227z"/></g></svg>