<?xml version="1.0" encoding="iso-8859-1"?><!-- Generator: Adobe Illustrator 16.0.0, SVG Export Plug-In . SVG Version: 6.00 Build 0) --><!DOCTYPE svg PUBLIC "-//W3C//DTD SVG 1.1//EN" "http://www.w3.org/Graphics/SVG/1.1/DTD/svg11.dtd"><svg version="1.1" id="svg4279" xmlns:cc="http://creativecommons.org/ns#" xmlns:dc="http://purl.org/dc/elements/1.1/" xmlns:svg="http://www.w3.org/2000/svg" xmlns:rdf="http://www.w3.org/1999/02/22-rdf-syntax-ns#" xmlns="http://www.w3.org/2000/svg" xmlns:xlink="http://www.w3.org/1999/xlink" x="0px" y="0px" width="525.004px" height="284.15px" viewBox="0 0 525.004 284.15" style="enable-background:new 0 0 525.004 284.15;" xml:space="preserve"><g id="layer1" transform="translate(-339.60382,-265.28695)"><path id="path126" style="fill:#412C91;" d="M610.873,545.987c11.299,0,14.826-10.346,14.826-20.544s-3.527-20.555-14.826-20.555	c-11.29,0-14.954,10.356-14.954,20.555S599.584,545.987,610.873,545.987 M610.873,549.436c-14.09,0-19.159-10.926-19.159-23.993	c0-13.097,5.069-23.993,19.159-23.993c14.119,0,19.061,10.896,19.061,23.993C629.934,538.511,624.992,549.436,610.873,549.436"/><path id="path128" style="fill:#412C91;" d="M672.135,502.225h4.5v4.844h-4.5V502.225z M672.41,548.679v-29.525h-12.459v29.525	h-3.93v-29.525h-14.571v29.525h-3.911v-29.525h-5.256v-2.957h5.256v-6.219c0-5.453,3.008-8.529,8.559-8.529	c1.385,0,2.26,0.069,3.429,0.227v3.026c-0.767-0.118-1.444-0.177-2.22-0.177c-4.127,0-5.856,1.532-5.856,5.816v5.855h14.571v-6.219	c0-5.453,3.025-8.529,8.616-8.529c1.317,0,2.23,0.069,3.38,0.227v3.026c-0.756-0.118-1.474-0.177-2.221-0.177	c-4.137,0-5.846,1.532-5.846,5.816v5.855h16.379v32.482H672.41L672.41,548.679z"/><path id="path132" style="fill:#412C91;" d="M686.139,532.435c0,9.895,5.011,14.03,10.936,14.03c5.482,0,8.086-3.645,9.02-7.27	h3.733c-1.739,6.799-5.512,10.237-12.92,10.237c-7.938,0-14.944-4.884-14.944-16.997c0-12.135,7.006-16.998,14.944-16.998	c7.408,0,11.181,3.458,12.92,10.268h-3.733c-0.934-3.666-3.537-7.34-9.02-7.34C691.15,518.366,686.139,522.532,686.139,532.435"/><path id="path136" style="fill:#412C91;" d="M717.788,530.2h19.396c0-6.377-3.018-11.82-9.188-11.82	C722.416,518.38,718.575,522.604,717.788,530.2 M717.68,533.138c0,7.329,3.449,13.322,10.602,13.322	c5.492,0,8.057-3.635,9.029-7.26h2.712c-1.769,6.789-4.903,10.237-12.272,10.237c-9.903,0-14.266-7.319-14.266-16.418	c0-9.314,4.578-17.587,14.797-17.587c10.307,0,12.026,9.039,12.026,17.705H717.68L717.68,533.138z"/><path id="path140" style="fill:#01A0E0;" d="M739.776,483.833l-17.98-20.172l-17.833,20.172h-37.464l36.639-41.188l-36.639-41.168	h38.662l18.138,19.984l17.489-19.984h37.326l-36.481,41.001l36.973,41.354H739.776L739.776,483.833z"/><path id="path144" style="fill:#01A0E0;" d="M594.455,483.833V354.168h72.039v28.837h-41.521v18.472h41.521v27.795h-41.521v25.566	h41.521v28.994H594.455L594.455,483.833z"/><path id="path148" style="fill:#412C91;" d="M545.65,464.083c-11.201,0-18.147-10.434-18.147-21.32	c0-11.634,6.033-22.834,18.147-22.834c12.547,0,17.508,11.2,17.508,22.834C563.159,453.786,557.892,464.083,545.65,464.083 M437.7,429.684c1.896-8.263,8.292-13.627,16.291-13.627c8.774,0,14.846,5.217,16.418,13.627H437.7z M564.073,354.158v53.018	h-0.324c-6.73-7.723-15.121-10.415-24.858-10.415c-19.985,0-35.037,13.588-40.323,31.549	c-6.023-19.769-21.566-31.913-44.577-31.913c-18.727,0-33.495,8.381-41.208,22.106v-17.026H374.13v-18.472h42.199v-28.847h-76.726	v129.674h34.526v-54.56h34.349c-0.973,4.018-1.542,8.303-1.542,12.861c0,27.039,20.652,46.07,47.053,46.07	c22.176,0,36.805-10.464,44.538-29.437h-29.545c-3.979,5.708-7.025,7.398-14.993,7.398c-9.265,0-17.253-8.066-17.253-17.655h60.131	c2.604,21.507,19.356,40.008,42.327,40.008c9.953,0,19.012-4.834,24.554-13.058h0.324v8.371h30.38V354.158H564.073L564.073,354.158	z"/><path id="path152" style="fill:#01A0E0;" d="M794.172,469.865c0-9.226,7.28-15.475,15.543-15.475	c8.283,0,15.544,6.249,15.544,15.475c0,9.147-7.261,15.366-15.544,15.366C801.452,485.231,794.172,479.013,794.172,469.865 M809.775,468.097c2.672,0,3.409-1.444,3.409-2.701c0-1.465-0.737-2.624-3.409-2.624h-3.331v5.325H809.775z M806.444,470.514v8.44	h-2.761v-18.668h6.77c3.94,0,5.787,1.738,5.787,5.109c0,2.102-1.386,3.831-3.232,4.057v0.099c1.592,0.226,2.161,1.642,2.505,4.245	c0.275,1.602,0.561,4.49,1.16,5.158h-3.213c-0.747-1.739-0.668-4.195-1.248-6.27c-0.501-1.571-1.326-2.171-3.174-2.171H806.444	L806.444,470.514z M822.283,469.865c0-7.507-5.286-12.989-12.567-12.989c-7.261,0-12.536,5.482-12.536,12.989	c0,7.429,5.275,12.901,12.536,12.901C816.996,482.766,822.283,477.294,822.283,469.865"/><path id="path156" style="fill:#01A0E0;" d="M855.028,289.084c-11.23,3.203-22.578,7.359-33.946,12.468	c-1.218-12.351-3.341-24.269-6.15-35.578c-3.017-0.442-6.141-0.688-9.285-0.688c-3.37,0-6.661,0.265-9.904,0.767	c-2.81,11.289-4.873,23.188-6.091,35.499c5.207,2.358,10.483,4.952,15.69,7.713c2.859,1.503,5.729,3.095,8.548,4.726	c2.859,1.65,5.659,3.34,8.361,5.05c5.011,3.134,9.895,6.396,14.581,9.757c10.091-7.261,19.355-15.033,27.776-23.1	C862.269,299.626,859.027,294.046,855.028,289.084"/><path id="path160" style="fill:#40B93C;" d="M836.831,328.799c-4.687,3.37-9.56,6.642-14.581,9.766	c-2.712,1.72-5.502,3.4-8.371,5.05c-2.81,1.631-5.679,3.203-8.538,4.726c-5.207,2.751-10.483,5.325-15.69,7.703	c1.169,12.114,3.203,23.787,5.934,34.899c3.292,0.511,6.643,0.776,10.062,0.776c3.184,0,6.357-0.226,9.462-0.678	c2.722-11.132,4.766-22.863,5.974-34.998c11.24,5.06,22.471,9.187,33.583,12.38c4.067-4.991,7.359-10.582,9.776-16.644	C856.079,343.743,846.833,336.03,836.831,328.799"/><path id="path164" style="fill:#F36717;" d="M788.276,328.799c0-3.282,0.068-6.524,0.167-9.767	c0.187-5.905,0.629-11.741,1.209-17.489c-11.211-5.021-22.451-9.147-33.534-12.34c-4.019,5.06-7.28,10.719-9.609,16.87	c8.293,7.958,17.431,15.593,27.354,22.726c-9.864,7.113-18.943,14.689-27.156,22.579c2.367,6.18,5.679,11.859,9.785,16.909	c10.966-3.173,22.049-7.261,33.161-12.242c-0.58-5.728-1.022-11.555-1.209-17.479C788.345,335.332,788.276,332.071,788.276,328.799	"/><path id="path168" style="fill:#412C91;" d="M822.256,319.033c-2.711-1.709-5.512-3.399-8.371-5.04	c-2.81-1.631-5.688-3.223-8.548-4.726c-5.207-2.761-10.483-5.355-15.69-7.723c-0.57,5.748-1.022,11.584-1.199,17.489	c-0.107,3.243-0.167,6.485-0.167,9.767c0,3.271,0.059,6.534,0.167,9.766c0.177,5.925,0.629,11.751,1.199,17.469	c5.207-2.368,10.483-4.942,15.69-7.693c2.859-1.523,5.738-3.095,8.548-4.726c2.859-1.65,5.66-3.331,8.371-5.05	c5.012-3.125,9.885-6.396,14.581-9.766C832.141,325.43,827.268,322.167,822.256,319.033"/></g></svg>