<?xml version="1.0" encoding="utf-8"?>
<!-- Generator: Adobe Illustrator 18.1.1, SVG Export Plug-In . SVG Version: 6.00 Build 0)  -->
<svg version="1.1"
	 id="svg11524" xmlns:dc="http://purl.org/dc/elements/1.1/" xmlns:cc="http://creativecommons.org/ns#" xmlns:rdf="http://www.w3.org/1999/02/22-rdf-syntax-ns#" xmlns:svg="http://www.w3.org/2000/svg"
	 xmlns="http://www.w3.org/2000/svg" xmlns:xlink="http://www.w3.org/1999/xlink" x="0px" y="0px" viewBox="-174 284.7 1848 512"
	 enable-background="new -174 284.7 1848 512" xml:space="preserve">
<g id="g10048" transform="matrix(0.67436711,0,0,0.67436711,19.921921,-12.010502)">
	<path id="path9956" fill="#ADAFB2" d="M1151.1,439.9v732.7h406.6V1009h-234.5V864.6h234.5V707.5h-234.5V603.2h234.5V439.9
		L1151.1,439.9L1151.1,439.9z M1557.7,707.5l206.8,232.5l-206.8,232.6h211.8l100.5-114l101.7,114h219.1L1982,939.3l206-231.8h-210.6
		l-98.9,112.8L1776,707.5L1557.7,707.5L1557.7,707.5z M2364.6,1013.6c-46.8,0-88.2,35-88.2,87c0,52,41.4,87,88.2,87
		c46.9,0,88.2-35,88.2-87C2452.8,1048.6,2411.5,1013.6,2364.6,1013.6z M2364.6,1027.5c41.3,0,71.2,31,71.2,73.2
		c0,42.1-29.9,73.1-71.2,73.1c-41.2,0-71.2-31-71.2-73.1C2293.4,1058.5,2323.4,1027.5,2364.6,1027.5z M2330.4,1046.7v105.5h15.8
		v-47.7h15c10.3,0,15,3,17.7,11.9c3.3,11.7,2.7,26,6.9,35.8h18.1c-3.3-3.8-5.1-20.3-6.6-29.6c-1.9-14.5-5-22.5-13.8-23.9v-0.4
		c10.3-1.3,18.1-11,18.1-22.7c0-19.2-10.3-28.9-32.7-28.9H2330.4L2330.4,1046.7z M2346.2,1060.9h18.9c15,0,19.3,6.2,19.3,14.6
		c0,7-4.3,15-19.3,15h-18.9V1060.9z"/>
	<path id="path9962" fill="#4D148C" d="M875.4,1061c-63.2,0-102.5-59-102.5-120.4c0-65.7,34.2-129,102.5-129
		c70.9,0,99.1,63.2,99.1,129C974.5,1003,944.6,1061,875.4,1061z M265.9,866.8c10.8-46.5,46.9-77,92-77c49.6,0,83.8,29.5,92.9,77
		C454.5,866.8,265.9,866.8,265.9,866.8z M979.5,440v299.8h-1.9c-38-43.7-85.4-58.8-140.5-58.8c-112.8,0-197.7,76.7-227.5,178
		c-34-111.7-121.7-180.1-251.8-180.1c-105.6,0-189,47.4-232.5,124.6v-96H-93V603.3h238.2V440h-432.8v732.6H-93V864.6h194
		c-5.8,22.6-8.9,46.8-8.9,72.4c0,152.8,116.7,260,265.7,260c125.3,0,207.9-58.8,251.5-166.1H442.6c-22.6,32.2-39.7,41.8-84.8,41.8
		c-52.3,0-97.4-45.6-97.4-99.7H600c14.7,121.4,109.3,226.1,239,226.1c56,0,107.2-27.5,138.6-74h1.9v47.4H1151V440L979.5,440"/>
</g>
</svg>
