<?xml version="1.0" encoding="utf-8"?><!-- Generator: Adobe Illustrator 16.0.0, SVG Export Plug-In . SVG Version: 6.00 Build 0) --><!DOCTYPE svg PUBLIC "-//W3C//DTD SVG 1.1//EN" "http://www.w3.org/Graphics/SVG/1.1/DTD/svg11.dtd"><svg version="1.1" id="Layer_1" xmlns="http://www.w3.org/2000/svg" xmlns:xlink="http://www.w3.org/1999/xlink" x="0px" y="0px" width="487.385px" height="431.346px" viewBox="51.622 205.389 487.385 431.346" enable-background="new 51.622 205.389 487.385 431.346" xml:space="preserve"><path fill="#FFFFFF" d="M111.615,420.945L297.64,234.92l186.025,186.025L297.64,606.97L111.615,420.945z"/><path fill="#6CC655" d="M201.837,622.782L64.179,484.193c-16.742-16.742-16.742-53.017,0-68.829l197.187-198.117	c15.812-15.812,51.156-15.812,66.969,0L526.45,415.364c16.742,16.742,16.742,53.018,0,68.829L388.792,622.782	c-8.371,8.371-21.393,13.952-34.415,13.952H234.392C222.3,636.734,210.208,631.153,201.837,622.782L201.837,622.782z M327.404,568.835c2.791-2.79,2.791-8.371,0-11.161L300.43,530.7c-2.79-2.791-8.37-2.791-11.161,0l-26.974,26.974	c-2.79,2.79-2.79,8.371,0,11.161l21.393,20.463h22.323L327.404,568.835z M327.404,454.43c1.86-1.86,1.86-6.511,0-8.371	l-28.834-28.834c-1.859-1.86-6.51-1.86-8.37,0l-83.712,83.711c-2.79,2.791-2.79,9.302,0,12.092l19.533,19.533h22.323L327.404,454.43	z M327.404,340.954c1.86-1.86,2.791-7.441,0-9.301L299.5,303.749c-1.86-1.86-7.44-1.86-10.231,0L148.82,444.198	c-1.859,1.86-2.79,7.441-0.93,9.301l22.323,21.394h21.393L327.404,340.954z"/></svg>