<svg xmlns:svg="http://www.w3.org/2000/svg" xmlns="http://www.w3.org/2000/svg" version="1.0" width="639" height="84" viewBox="-0.514 -0.874 639 84" id="svg2" xml:space="preserve">
	<g>
		<path d="M 2.732,82.156 C 1.223,82.156 0,80.93 0,79.422 L 0,2.922 C 0,1.41 1.223,0.188 2.732,0.188 L 79.234,0.188 C 80.744,0.188 81.966,1.411 81.966,2.922 L 81.966,13.848 C 81.966,15.36 80.743,16.578 79.234,16.578 L 24.59,16.578 C 23.082,16.578 21.858,17.805 21.858,19.312 C 21.858,20.819 21.858,30.242 21.858,30.242 C 21.858,31.75 23.083,32.972 24.59,32.972 C 26.1,32.972 73.77,32.972 73.77,32.972 C 75.28,32.972 76.502,34.195 76.502,35.702 L 76.502,46.632 C 76.502,48.144 75.279,49.366 73.77,49.366 C 72.262,49.366 24.59,49.366 24.59,49.366 C 23.082,49.366 21.858,50.589 21.858,52.1 C 21.858,53.608 21.858,79.42 21.858,79.42 C 21.858,80.928 20.635,82.154 19.126,82.154 C 19.125,82.156 4.242,82.156 2.732,82.156 L 2.732,82.156 z " style="fill:#46b93a" id="path8"/>
		<path d="M 558.254,0 C 556.746,0 555.524,1.223 555.524,2.73 L 555.524,79.234 C 555.524,80.742 556.747,81.964 558.254,81.964 L 634.758,81.964 C 636.266,81.964 637.488,80.741 637.488,79.234 L 637.488,68.304 C 637.488,66.796 636.265,65.57 634.758,65.57 L 580.113,65.57 C 578.601,65.57 577.379,64.347 577.379,62.84 C 577.379,61.328 577.313,2.445 577.313,2.445 C 577.313,2.445 577.5,0.008 574.645,0 C 574.645,0 559.762,0 558.254,0 L 558.254,0 z " style="fill:#46b93a" id="path10"/>
		<path d="M 87.432,2.922 C 87.432,1.41 88.655,0.188 90.164,0.188 L 172.129,0.188 C 173.639,0.188 174.861,1.411 174.861,2.922 L 174.861,13.848 C 174.861,15.36 173.638,16.578 172.129,16.578 L 112.022,16.578 C 110.512,16.578 109.288,17.805 109.288,19.312 L 109.288,30.242 C 109.288,31.75 110.513,32.972 112.022,32.972 L 166.665,32.972 C 168.175,32.972 169.397,34.195 169.397,35.702 L 169.397,46.632 C 169.397,48.144 168.174,49.366 166.665,49.366 L 112.022,49.366 C 110.512,49.366 109.288,50.589 109.288,52.1 L 109.288,63.026 C 109.288,64.538 110.513,65.756 112.022,65.756 L 172.129,65.756 C 173.639,65.756 174.861,66.983 174.861,68.49 L 174.861,79.42 C 174.861,80.928 173.638,82.154 172.129,82.154 L 90.164,82.154 C 88.654,82.154 87.432,80.927 87.432,79.42 C 87.432,79.422 87.432,4.43 87.432,2.922 L 87.432,2.922 z " style="fill:#46b93a" id="path12"/>
		<path d="M 180.326,32.973 C 180.326,42.028 187.666,49.368 196.719,49.368 L 240.434,49.368 C 243.454,49.368 245.899,51.813 245.899,54.833 L 245.899,60.298 C 245.899,63.314 243.454,65.759 240.434,65.759 C 240.434,65.759 206.426,65.759 204.916,65.759 C 203.406,65.759 202.184,64.54 202.184,63.032 C 202.184,61.52 200.961,60.298 199.452,60.298 L 183.059,60.298 C 181.549,60.298 180.327,61.521 180.327,63.028 L 180.327,65.758 C 180.327,74.813 187.667,82.156 196.72,82.156 L 251.365,82.156 C 260.42,82.156 267.76,74.812 267.76,65.758 L 267.76,49.367 C 267.76,40.312 260.42,32.972 251.365,32.972 L 207.65,32.972 C 204.632,32.972 202.185,30.527 202.185,27.507 L 202.185,22.046 C 202.185,19.026 204.632,16.577 207.65,16.577 L 243.17,16.577 C 244.678,16.577 245.9,17.804 245.9,19.311 C 245.9,20.818 247.123,22.045 248.634,22.045 C 248.634,22.045 263.517,22.045 265.025,22.045 C 266.533,22.045 267.759,20.818 267.759,19.311 L 267.759,16.577 C 267.759,7.526 260.419,0.186 251.364,0.186 L 196.719,0.186 C 187.666,0.186 180.326,7.526 180.326,16.577 L 180.326,32.973 L 180.326,32.973 z " style="fill:#46b93a" id="path14"/>
		<path d="M 273.219,2.922 C 273.219,1.41 274.446,0.188 275.953,0.188 L 357.922,0.188 C 359.43,0.188 360.652,1.411 360.652,2.922 L 360.652,13.848 C 360.652,15.36 359.429,16.578 357.922,16.578 L 330.598,16.578 C 329.09,16.578 327.864,17.805 327.864,19.312 L 327.864,79.421 C 327.864,80.929 326.645,82.155 325.134,82.155 L 308.743,82.155 C 307.231,82.155 306.009,80.928 306.009,79.421 L 306.009,19.313 C 306.009,17.805 304.786,16.579 303.275,16.579 L 275.955,16.579 C 274.447,16.579 273.221,15.36 273.221,13.849 L 273.221,2.922 L 273.219,2.922 z " style="fill:#46b93a" id="path16"/>
		<path d="M 382.512,82.156 C 373.457,82.156 366.114,74.812 366.114,65.758 L 366.114,16.578 C 366.114,7.527 373.458,0.187 382.512,0.187 L 437.157,0.187 C 446.208,0.187 453.548,7.527 453.548,16.578 L 453.548,65.758 C 453.548,74.813 446.208,82.156 437.157,82.156 L 382.512,82.156 L 382.512,82.156 z M 393.438,65.758 L 426.223,65.758 C 429.243,65.758 431.692,63.313 431.692,60.297 L 431.692,22.047 C 431.692,19.027 429.243,16.578 426.223,16.578 L 393.438,16.578 C 390.422,16.578 387.973,19.027 387.973,22.047 L 387.973,60.297 C 387.973,63.313 390.422,65.758 393.438,65.758 L 393.438,65.758 z " style="fill:#46b93a" id="path18"/>
		<path d="M 477.457,82.383 C 468.398,82.383 461.062,75.047 461.062,65.992 L 461.062,16.812 C 461.062,7.757 468.398,0.417 477.457,0.417 L 532.098,0.417 C 541.153,0.417 548.493,7.757 548.493,16.812 L 548.493,65.992 C 548.493,75.047 541.153,82.383 532.098,82.383 L 477.457,82.383 L 477.457,82.383 z M 488.383,65.992 L 521.168,65.992 C 524.188,65.992 526.633,63.547 526.633,60.523 L 526.633,22.273 C 526.633,19.257 524.188,16.812 521.168,16.812 L 488.383,16.812 C 485.363,16.812 482.918,19.257 482.918,22.273 L 482.918,60.523 C 482.918,63.547 485.363,65.992 488.383,65.992 L 488.383,65.992 z " style="fill:#46b93a" id="path20"/>
	</g>
</svg>
