<?xml version="1.0" encoding="utf-8"?>
<!-- Generator: Adobe Illustrator 19.2.1, SVG Export Plug-In . SVG Version: 6.00 Build 0)  -->
<svg version="1.1" id="Calque_1" xmlns="http://www.w3.org/2000/svg" xmlns:xlink="http://www.w3.org/1999/xlink" x="0px" y="0px"
	 viewBox="0 0 841.9 595.3" style="enable-background:new 0 0 841.9 595.3;" xml:space="preserve">
<style type="text/css">
	.st0{fill-rule:evenodd;clip-rule:evenodd;fill:url(#SVGID_1_);}
	.st1{fill-rule:evenodd;clip-rule:evenodd;fill:url(#SVGID_2_);}
	.st2{fill-rule:evenodd;clip-rule:evenodd;fill:url(#SVGID_3_);}
	.st3{fill-rule:evenodd;clip-rule:evenodd;fill:url(#SVGID_4_);}
	.st4{fill-rule:evenodd;clip-rule:evenodd;fill:#9C9C9C;}
	.st5{fill-rule:evenodd;clip-rule:evenodd;fill:#198EBF;}
</style>
<g>
	<linearGradient id="SVGID_1_" gradientUnits="userSpaceOnUse" x1="192.78" y1="286.9553" x2="192.78" y2="203.3945">
		<stop  offset="0" style="stop-color:#2B5B9F"/>
		<stop  offset="1" style="stop-color:#198EBF"/>
	</linearGradient>
	<path class="st0" d="M283.1,203H102.4c-4,0-7.2,3.2-7.2,7.2v0.5c0,4,3.2,7.2,7.2,7.2h180.7c4,0,7.2-3.2,7.2-7.2v-0.5
		C290.3,206.2,287.1,203,283.1,203z"/>
	<linearGradient id="SVGID_2_" gradientUnits="userSpaceOnUse" x1="190.123" y1="286.9553" x2="190.123" y2="203.3945">
		<stop  offset="0" style="stop-color:#2B5B9F"/>
		<stop  offset="1" style="stop-color:#198EBF"/>
	</linearGradient>
	<path class="st1" d="M278.6,239.1h-174h-0.3H104c-4.8,0-8.8,3.9-8.8,8.8v31.4c0,4.8,3.9,8.8,8.8,8.8h0.5c4.8,0,8.8-3.9,8.8-8.8
		v-26.8h165.3c3.5,0,6.4-2.9,6.4-6.4v-0.5C285,242,282.1,239.1,278.6,239.1z"/>
	<linearGradient id="SVGID_3_" gradientUnits="userSpaceOnUse" x1="416.7496" y1="286.9553" x2="416.7496" y2="203.3945">
		<stop  offset="0" style="stop-color:#2B5B9F"/>
		<stop  offset="1" style="stop-color:#198EBF"/>
	</linearGradient>
	<path class="st2" d="M503.1,203h-0.5c-4.8,0-8.8,3.9-8.8,8.8v27.4H339.7v-27.4c0-4.8-3.9-8.8-8.8-8.8h-0.5c-4.8,0-8.8,3.9-8.8,8.8
		v33.5v0.5v33.5c0,4.8,3.9,8.8,8.8,8.8h0.5c4.8,0,8.8-3.9,8.8-8.8v-27.4h154.1v27.4c0,4.8,3.9,8.8,8.8,8.8h0.5
		c4.8,0,8.8-3.9,8.8-8.8v-67.5C511.9,206.9,507.9,203,503.1,203z"/>
	<linearGradient id="SVGID_4_" gradientUnits="userSpaceOnUse" x1="646.0317" y1="286.9553" x2="646.0317" y2="203.3945">
		<stop  offset="0" style="stop-color:#2B5B9F"/>
		<stop  offset="1" style="stop-color:#198EBF"/>
	</linearGradient>
	<path class="st3" d="M732.9,203.5c-8-0.8-14.2,2.2-17,4.8c-17.2,16.3-56.8,53.1-63.8,60c-0.4,0.4-2.3,2.1-6.4,2.1
		c-3.1,0-5.4-1.1-6.9-2.7c-12-12-32.8-29.2-60.8-57.2c-4.5-4.5-11.1-7.1-14.6-7.1h-0.5c-4.7,0-15.1,0.7-19.1,13.8v62.2
		c0,4.7,3.8,8.5,8.5,8.5h0.5c4.7,0,8.5-3.8,8.5-8.5c0,0,0-48.1,0-49.4c0-1.3,0.3-2.8,0.5-3.2c0.6-1.3,1.8-2.7,3.7-2.7
		c3.1,0,4.4,1.7,5.3,2.7c5.7,5.7,55,51.8,58.5,55.3c3.7,3.7,12.3,5.8,16.5,5.8s13.1-1.9,17-5.8c3.7-3.7,56.4-52.7,60.6-56.9
		c0.4-0.4,1.5-1.3,3.7-1.1c3.4,0.3,3.7,2.9,3.7,3.2c0,9.9,0.5,43.4,0.5,55.3c0,0.5,2.3,5.3,9,5.3c6.8,0,8-4.8,8-4.8s0-58.2,0-64.8
		C748.3,210.4,738.9,204.1,732.9,203.5z"/>
</g>
<path class="st4" d="M746.7,340.6l2.7-4.3c0,0-3.8-2.1-18.1-2.1c-14.3,0-21.8,6.5-21.8,11.7c0,6.7,10.7,9.4,15.4,10.6
	c4.7,1.2,18.6,3.8,18.6,9.6c0,5.7-11.4,6.9-15.9,6.9c-4.5,0-17-2.7-17-2.7l-2.1,4.8c0,0,8.9,2.1,18.6,2.1c9.7,0,25.5-2.3,25.5-10.6
	c0-8.3-5.5-9.7-13.3-12.2c-7.8-2.5-20.2-3.8-20.2-9c0-5.2,8.7-6.4,12.8-6.4C736.2,339.1,746.7,340.6,746.7,340.6z"/>
<polygon class="st4" points="622.9,377.3 630.4,377.3 630.4,341.7 669.1,377.3 676.6,377.3 676.6,334.2 669.1,334.2 669.1,369.3 
	630.4,334.2 622.9,334.2 "/>
<path class="st4" d="M557.6,334.2c-13.7,0-32.9,6.1-32.9,21.8c0,15.7,16.9,21.3,32.9,21.3c16,0,32.9-5.8,32.9-21.3
	C590.5,340.6,571.2,334.2,557.6,334.2z M557.6,373.6c-9.4,0-23.9-5.3-23.9-17.5c0-12.2,14.9-17.5,23.9-17.5c9,0,23.9,4.3,23.9,17.5
	C581.5,369.2,567,373.6,557.6,373.6z"/>
<rect x="484.2" y="334.2" class="st4" width="8" height="43"/>
<polygon class="st4" points="402.9,334.2 402.9,339 425.3,339 425.3,377.3 433.2,377.3 433.2,339 456.1,339 456.1,334.2 "/>
<path class="st4" d="M322.2,334.2h8c0,0,0,20.5,0,26c0,5.6,4.4,13.3,17.5,13.3c13.1,0,19.1-6.4,19.1-13.3s0-26,0-26h8
	c0,0,0,22.2,0,29.8c0,7.5-11.9,13.3-27.1,13.3c-14.4,0-25.5-6-25.5-13.8C322.1,354.6,322.2,334.2,322.2,334.2z"/>
<polygon class="st4" points="251.5,334.2 259.5,334.2 259.5,372.5 291.3,372.5 291.3,377.3 251.5,377.3 "/>
<path class="st4" d="M127.7,340.6l2.7-4.3c0,0-3.8-2.1-18.1-2.1s-21.8,6.5-21.8,11.7c0,6.7,10.7,9.4,15.4,10.6
	c4.7,1.2,18.6,3.8,18.6,9.6c0,5.7-11.4,6.9-15.9,6.9c-4.5,0-17-2.7-17-2.7l-2.1,4.8c0,0,8.9,2.1,18.6,2.1c9.7,0,25.5-2.3,25.5-10.6
	c0-8.3-5.5-9.7-13.3-12.2c-7.8-2.5-20.2-3.8-20.2-9c0-5.2,8.7-6.4,12.8-6.4C117.2,339.1,127.7,340.6,127.7,340.6z"/>
<g>
	<path class="st4" d="M193.5,382.1c8.8-2.8,16.8-6.9,23-12.9C211.7,376.5,203.3,381.6,193.5,382.1z"/>
	<path class="st4" d="M219.9,361.4c-2.1,4.6-7.1,9.5-17.7,14.5c-6.9,3.3-12.1,5-16.4,5.6c-4.7-0.9-9-3-12.6-5.8
		c7.6-0.4,14.3-1.9,25.1-7c12.3-5.9,20.1-12.7,21.9-17.6c0.2,1.4,0.4,2.8,0.4,4.2C220.6,357.5,220.3,359.5,219.9,361.4z"/>
	<path class="st5" d="M170.5,373.3c-2.5-2.6-4.4-5.6-5.7-8.9c4.2,0.7,11.8,0,25.2-6.1c19.6-8.9,23.5-16.6,24.2-19.6
		c2.5,2.8,4.3,6.1,5.4,9.7c-0.1,0.2-0.1,0.3-0.2,0.5c-1.2,2.8-9.8,10-18.3,14.9c-8.5,4.9-21.2,8.7-28.8,9.4
		C171.6,373.2,171,373.3,170.5,373.3z"/>
	<path class="st4" d="M165.9,344c4.6-9,14.5-15.3,26-15.3c1.6,0,3.2,0.1,4.8,0.4c-2.3,2.8-7.1,6.8-14.9,10.4
		C174.9,342.6,169.9,343.7,165.9,344z"/>
	<path class="st4" d="M163.6,360.4c-0.3-1.6-0.5-3.3-0.5-5c0-2.2,0.3-4.4,0.9-6.5c5.7,0,12.1-0.7,21.1-5.1
		c10.4-5.1,14.1-9,17.1-13.4c3.9,1.4,7.5,3.6,10.3,6.4c-1.2,3.5-7.5,9.5-21.9,16.4C179.4,358.6,169.8,360.5,163.6,360.4z"/>
</g>
</svg>
