<?xml version="1.0" encoding="UTF-8" standalone="no"?>
<svg width="1329px" height="502px" viewBox="0 0 1329 502" version="1.1" xmlns="http://www.w3.org/2000/svg" xmlns:xlink="http://www.w3.org/1999/xlink">
    <!-- Generator: Sketch 3.6.1 (26313) - http://www.bohemiancoding.com/sketch -->
    <title>Fidessa</title>
    <desc>Created with Sketch.</desc>
    <defs></defs>
    <g id="Page-1" stroke="none" stroke-width="1" fill="none" fill-rule="evenodd">
        <g id="Fidessa" transform="translate(-13.000000, -6.000000)">
            <g id="g11" transform="translate(674.055155, 256.087893) scale(1, -1) translate(-674.055155, -256.087893) translate(5.337206, 1.728919)">
                <path d="M7.79101538,2.80701538 L1335.83795,2.80701538 L1335.83795,503.882782 L7.79101538,503.882782 L7.79101538,2.80701538 L7.79101538,2.80701538 Z" id="path23" fill="#73797C"></path>
                <path d="M1245.41703,109.432615 C1242.43856,121.297231 1240.64164,138.979282 1240.64164,157.867487 L1240.64164,259.102359 C1240.64164,308.415179 1213.77805,334.466462 1163.02933,334.466462 C1132.096,334.466462 1106.30728,324.398769 1084.19446,303.705436 L1081.95446,301.588513 L1105.856,274.971077 L1106.52062,275.512615 C1124.47344,291.463385 1140.62933,298.19159 1160.7319,298.19159 C1189.11344,298.19159 1200.69908,286.121846 1200.69908,256.427487 L1200.69908,239.606974 L1194.56164,239.606974 C1136.97805,239.606974 1075.42318,219.012103 1075.42318,161.436718 C1075.42318,125.129026 1102.30318,99.6521026 1140.83446,99.6521026 C1164.03856,99.6521026 1186.79138,109.539282 1203.18523,126.376205 C1203.87446,119.606974 1204.76882,111.943385 1205.77805,107.750564 L1206.25395,105.042872 L1246.59856,105.042872 L1245.41703,109.432615 L1245.41703,109.432615 Z M1200.69908,164.021333 C1190.20472,150.573128 1172.53908,135.073641 1146.30728,135.073641 C1136.29703,135.073641 1117.63856,140.817231 1117.63856,162.363897 C1117.63856,192.796718 1143.50113,208.205949 1194.56164,208.205949 L1200.69908,208.205949 L1200.69908,164.021333 L1200.69908,164.021333 Z" id="path89" fill="#FFFFFF"></path>
                <path d="M714.730667,308.653128 C699.190154,325.563897 677.175795,334.466462 651.001436,334.466462 C592.392205,334.466462 549.873231,285.71159 549.873231,218.486974 C549.873231,146.281846 591.563487,99.6931282 656.014769,99.6931282 C698.369641,99.6931282 724.051692,116.759795 732.52759,122.363897 L735.12041,124.14441 L718.357333,155.988513 L713.762462,153.198769 C703.694769,146.823385 684.781949,135.073641 656.941949,135.073641 C603.961436,135.073641 593.499897,183.303385 592.211692,214.564923 L738.747077,214.564923 L739.009641,217.732103 C742.422974,256.279795 733.988103,287.639795 714.730667,308.653128 L714.730667,308.653128 Z M594.656821,247.762872 C599.128615,268.562872 612.035282,299.036718 650.123487,299.036718 C689.032205,299.036718 697.557333,268.382359 698.878359,247.762872 L594.656821,247.762872 L594.656821,247.762872 Z" id="path93" fill="#FFFFFF"></path>
                <path d="M275.641436,299.286154 L275.641436,105.078974 L316.158359,105.078974 L316.158359,337.226667 L275.641436,299.286154 L275.641436,299.286154 Z" id="path97" fill="#FFFFFF"></path>
                <path d="M236.301128,262.48041 L153.585231,262.48041 L153.585231,105.073231 L111.369846,105.073231 L111.369846,413.225026 L315.456,413.225026 L275.464205,376.474256 L153.585231,376.474256 L153.585231,299.288615 L275.644718,299.288615 L236.301128,262.48041 L236.301128,262.48041 Z" id="path101" fill="#FFFFFF"></path>
                <path d="M979.009641,99.2369231 C942.775795,99.2369231 917.462974,114.244103 908.330667,120.726154 L905.68041,122.457436 L923.633231,153.899487 L926.775795,151.667692 C935.604513,145.300513 953.975795,134.691282 978.533744,134.691282 C1004.14195,134.691282 1019.39528,145.070769 1019.39528,162.41641 C1019.39528,179.770256 1005.43015,187.589744 973.594256,201.284103 C941.019897,215.109744 911.776821,231.011282 911.776821,271.339487 C911.776821,309.156923 940.757333,334.469744 983.990154,334.469744 C1018.25477,334.469744 1040.31015,321.054359 1050.38605,313.021538 L1052.92144,310.921026 L1025.94297,286.313846 C1013.49579,294.707692 998.923487,299.04 983.514256,299.04 C962.771692,299.04 950.808615,289.513846 950.808615,272.701538 C950.808615,254.814359 966.488615,246.912821 990.258872,237.025641 C1021.29067,223.946667 1059.78913,207.618462 1059.78913,166.970256 C1059.78913,125.805128 1028.10092,99.2369231 979.009641,99.2369231" id="path113" fill="#FFFFFF"></path>
                <path d="M821.132308,99.2369231 C785.005128,99.2369231 759.643077,114.244103 750.502564,120.726154 L747.835897,122.457436 L765.846154,153.899487 L768.964103,151.667692 C777.727179,145.300513 796.155897,134.691282 820.779487,134.691282 C846.338462,134.691282 861.591795,145.070769 861.591795,162.41641 C861.591795,179.770256 847.585641,187.589744 815.725128,201.284103 C783.18359,215.109744 753.948718,231.011282 753.948718,271.339487 C753.948718,309.156923 782.945641,334.469744 826.112821,334.469744 C861.665641,334.469744 884.369231,319.462564 892.525128,313.021538 L895.052308,310.921026 L868.065641,286.404103 C855.528205,294.707692 841.062564,299.04 825.702564,299.04 C804.886154,299.04 793.046154,289.513846 793.046154,272.701538 C793.046154,254.814359 808.652308,246.912821 832.447179,237.025641 C863.413333,223.946667 901.952821,207.618462 901.952821,166.970256 C901.952821,125.805128 870.231795,99.2369231 821.132308,99.2369231" id="path117" fill="#FFFFFF"></path>
                <path d="M535.898256,109.389128 C533.239795,120.425026 530.564923,138.197333 530.564923,152.974769 L530.564923,412.921436 L490.589538,376.178872 L490.589538,319.424 C476.763897,329.417846 459.475692,334.472205 438.897231,334.472205 C380.411077,334.472205 339.533128,286.004513 339.533128,216.68759 C339.533128,145.573744 376.062359,99.6906667 432.562872,99.6906667 C455.750564,99.6906667 476.886974,108.675282 492.772103,125.216821 C493.682872,118.422974 495.126974,111.128615 496.177231,107.575795 L496.940308,105.073231 L536.907487,105.073231 L535.898256,109.389128 L535.898256,109.389128 Z M490.589538,164.018872 C477.658256,147.034256 458.154667,136.474256 439.364923,136.474256 C391.766974,136.474256 381.822359,180.519385 381.822359,217.557333 C381.822359,267.780923 404.895179,299.042462 442.089026,299.042462 C461.576205,299.042462 477.026462,293.397333 490.589538,281.155282 L490.589538,164.018872 L490.589538,164.018872 Z" id="path121" fill="#FFFFFF"></path>
            </g>
        </g>
    </g>
</svg>