<?xml version="1.0" encoding="utf-8"?>
<!-- Generator: Adobe Illustrator 19.0.1, SVG Export Plug-In . SVG Version: 6.00 Build 0)  -->
<svg version="1.1" id="Layer_1" xmlns="http://www.w3.org/2000/svg" xmlns:xlink="http://www.w3.org/1999/xlink" x="0px" y="0px"
	 viewBox="0 0 792 170" style="enable-background:new 0 0 792 170;" xml:space="preserve">
<style type="text/css">
	.st0{fill:#6B2A7F;}
	.st1{fill:#A98AB9;}
	.st2{fill:#8B609E;}
	.st3{fill:#D0C2DB;}
	.st4{fill:#F47E22;}
	.st5{fill:#FED7B8;}
	.st6{fill:#F89D5B;}
	.st7{fill:#FBBA88;}
	.st8{fill:#444345;}
	.st9{fill:#67696B;}
	.st10{fill:#B6B8BA;}
	.st11{fill:#E4E5E6;}
</style>
<g>
	<path class="st0" d="M35.7,145.4v-8l9.4-1c2.1-0.3,2.4-0.7,2.4-3V50c0-2.2-0.3-2.8-2.4-3l-9.4-1v-8.2h74v24.5l-10.1-0.6l-2.1-11.4
		c-0.3-1.5-0.9-1.9-2.5-1.9H61.1v37h39.1v10.7H61.1v37.2c0,2.4,0.1,2.7,2.4,3l21.9,1.2v8H35.7z"/>
	<path class="st0" d="M118.2,145.4v-8.2l9.8-0.9c2.1-0.1,2.4-0.7,2.4-3V82.8c0-1.6-0.4-2.7-1.9-3.1l-8.5-2.8l1.3-7.9h22.6v64.4
		c0,2.4,0.1,2.7,2.4,3l9.5,1v8H118.2z M135.1,52.5c-6.1,0-9.7-3.4-9.7-9.5c0-5.9,3.6-9.4,9.7-9.4c6.1,0,9.5,3.4,9.5,9.4
		C144.6,49.1,141.2,52.5,135.1,52.5z"/>
	<path class="st0" d="M211.2,90.3l-1.8-9.2c-0.1-1-0.3-1.6-1.5-1.9c-2.1-0.7-6.5-1.6-11.6-1.6c-10.9,0-15.8,4.8-15.8,11.2
		c0,8.5,8.9,10.3,18.6,12.8c11.6,3,24.2,6.5,24.2,22.6c0,17.2-14.4,23.2-30.2,23.2c-12,0-24.2-3.4-26.9-5.1v-19.8l10,0.6l1.8,10.3
		c0.1,1,0.4,1.6,1.8,2.1c1.9,0.7,7.1,2.4,14.6,2.4c10,0,16.4-3.7,16.4-11.7c0-8.9-8.5-11-18-13.2c-11.6-2.7-24.7-5.7-24.7-22
		c0-17,14.3-23.2,29.6-23.2c10.7,0,20.4,2.8,23.5,4.2v19.2L211.2,90.3z"/>
	<path class="st0" d="M296.6,141c-5.7,3.7-15.6,6.2-25.4,6.2c-25.4,0-36.3-15.6-36.3-39.1c0-28.3,16.4-40.6,39-40.6
		c10.9,0,19.3,3,22.6,4.6v19.8l-10-0.4l-1.8-9.8c-0.1-1-0.4-1.6-1.8-2.1c-2.1-0.7-5.9-1.3-10.1-1.3c-13.2,0-23.8,7.7-23.8,29
		c0,20.8,9.8,28.8,24.2,28.8c7.4,0,14.9-2.4,19-4.9L296.6,141z"/>
	<path class="st0" d="M357,145.4l-1.3-9.7l-0.4-0.1c-7.1,6.7-15.5,11.6-26.9,11.6c-18.6,0-21-12.8-21-20.4
		c0-14.9,9.2-21.9,27.1-23.3l20.1-1.6V94c0-10.9-2.1-16.2-15-16.2c-9.1,0-15.6,0.3-15.8,11.4l-12.8-1.3c0-18.3,17-20.4,28.7-20.4
		c21.1,0,28.3,5.9,28.3,26.5v39.4c0,2.4,0.1,2.7,2.4,3l7.6,1v8H357z M354.5,111.2l-16.8,1.5c-12.8,1.2-16.4,4.9-16.4,12.6
		c0,8,3.4,11.3,10.4,11.3c8.8,0,18.1-7.1,22.7-11.4V111.2z"/>
	<path class="st0" d="M388,145.4v-8.2l9.2-0.9c2.1-0.1,2.4-0.7,2.4-3V47c0-1.6-0.4-2.7-1.9-3.1l-8.9-2.8l1.3-7.9h23v100.2
		c0,2.4,0.1,2.7,2.4,3l8.9,1v8H388z"/>
	<path class="st1" d="M515.4,145.4l-54.3-90v77.8c0,2.4,0.1,2.7,2.4,3l10,1.2v8h-36.1v-8l9.4-1c2.1-0.3,2.4-0.7,2.4-3V49.8
		c0-2.2-0.3-2.8-2.4-3l-9.4-1v-8.2h29.1l52.9,89.4V49.8c0-2.2-0.3-2.8-2.4-3l-9.4-1v-8h36v8l-10,1.2c-2.2,0.3-2.4,0.6-2.4,2.8v95.6
		H515.4z"/>
	<path class="st1" d="M546.9,106.9c0-23.3,11.9-39.4,37.3-39.4c25.4,0,35.2,16.2,35.2,38.5c0,25-11.3,41.2-36.7,41.2
		C556.9,147.2,546.9,130.5,546.9,106.9z M605.5,106.9c0-19.5-7.1-28.1-21.6-28.1c-14.6,0-23,8.6-23,28.3c0,19.8,7.6,29.3,22.3,29.3
		C597.6,136.3,605.5,127.3,605.5,106.9z"/>
	<path class="st1" d="M681.1,142.6c-5.9,2.4-13.1,4.6-20.7,4.6c-14.3,0-20.7-6.7-20.7-20.1V80.7c0-0.9,0-1.5-1.2-1.5h-10.9v-8.6
		c11.6-1.5,14.9-6.1,16.8-21.3h8.8v18.1c0,0.9,0,1.5,1.2,1.5h21.9v10.3h-23v43.9c0,9.4,2.2,12.9,10.7,12.9c4.6,0,9.8-1.3,13.8-3
		L681.1,142.6z"/>
	<path class="st1" d="M751.3,140.5c-7.4,4.2-16.4,6.7-27.1,6.7c-26.9,0-35.7-17.7-35.7-39.8c0-27.2,15.2-39.8,33.9-39.8
		c18.1,0,30.6,9.8,30.6,35.5c0,1.9-0.1,4.9-0.3,7.4h-50c0.4,15,6.5,25.3,22.7,25.3c8.3,0,13.5-1.5,21.4-5.4L751.3,140.5z
		 M739.5,100.2c-0.3-17-8-21.9-17.1-21.9c-10,0-18.3,5.4-19.5,21.9H739.5z"/>
</g>
</svg>
