<?xml version="1.0" encoding="UTF-8" standalone="no"?>
<svg width="3194px" height="510px" viewBox="0 0 3194 510" version="1.1" xmlns="http://www.w3.org/2000/svg" xmlns:xlink="http://www.w3.org/1999/xlink">
    <!-- Generator: Sketch 3.6.1 (26313) - http://www.bohemiancoding.com/sketch -->
    <title>FiscalNote</title>
    <desc>Created with Sketch.</desc>
    <defs></defs>
    <g id="Page-1" stroke="none" stroke-width="1" fill="none" fill-rule="evenodd">
        <g id="FiscalNote" transform="translate(-3.000000, 0.000000)">
            <g id="Group">
                <path d="M3.11652174,500.424348 L3.11652174,464.806957 L44.9669565,460.354783 C54.3165217,459.01913 55.6521739,457.238261 55.6521739,446.998261 L55.6521739,75.6869565 C55.6521739,65.8921739 54.3165217,63.2208696 44.9669565,62.3304348 L3.11652174,57.8782609 L3.11652174,21.3704348 L332.577391,21.3704348 L332.577391,130.448696 L287.610435,127.777391 L278.26087,77.0226087 C276.925217,70.3443478 274.253913,68.5634783 267.130435,68.5634783 L116.201739,68.5634783 L116.201739,233.293913 L290.281739,233.293913 L290.281739,280.932174 L116.201739,280.932174 L116.201739,446.553043 C116.201739,457.238261 116.646957,458.573913 126.886957,459.909565 L224.389565,465.252174 L224.389565,500.869565 L3.11652174,500.869565 L3.11652174,500.424348 Z" id="Shape" fill="#6B2A7F"></path>
                <path d="M370.42087,500.424348 L370.42087,463.916522 L414.052174,459.909565 C423.401739,459.464348 424.737391,456.793043 424.737391,446.553043 L424.737391,221.718261 C424.737391,214.594783 422.956522,209.697391 416.278261,207.916522 L378.434783,195.450435 L384.222609,160.278261 L484.841739,160.278261 L484.841739,446.998261 C484.841739,457.683478 485.286957,459.01913 495.526957,460.354783 L537.822609,464.806957 L537.822609,500.424348 L370.42087,500.424348 L370.42087,500.424348 Z M445.662609,86.8173913 C418.504348,86.8173913 402.476522,71.68 402.476522,44.5217391 C402.476522,18.253913 418.504348,2.67130435 445.662609,2.67130435 C472.82087,2.67130435 487.958261,17.8086957 487.958261,44.5217391 C487.958261,71.68 472.82087,86.8173913 445.662609,86.8173913 L445.662609,86.8173913 Z" id="Shape" fill="#6B2A7F"></path>
                <path d="M784.473043,255.109565 L776.45913,214.149565 C776.013913,209.697391 775.123478,207.026087 769.78087,205.690435 C760.431304,202.573913 740.841739,198.566957 718.135652,198.566957 C669.606957,198.566957 647.791304,219.937391 647.791304,248.431304 C647.791304,286.274783 687.415652,294.288696 730.601739,305.41913 C782.246957,318.775652 838.344348,334.358261 838.344348,406.038261 C838.344348,482.615652 774.233043,509.328696 703.888696,509.328696 C650.462609,509.328696 596.146087,494.191304 584.125217,486.622609 L584.125217,398.469565 L628.646957,401.14087 L636.66087,446.998261 C637.106087,451.450435 638.441739,454.121739 644.674783,456.347826 C653.133913,459.464348 676.285217,467.033043 709.676522,467.033043 C754.198261,467.033043 782.692174,450.56 782.692174,414.942609 C782.692174,375.318261 744.848696,365.968696 702.553043,356.173913 C650.907826,344.153043 592.584348,330.796522 592.584348,258.226087 C592.584348,182.53913 656.250435,154.935652 724.368696,154.935652 C772.006957,154.935652 815.193043,167.401739 828.994783,173.634783 L828.994783,259.116522 L784.473043,255.109565 L784.473043,255.109565 Z" id="Shape" fill="#6B2A7F"></path>
                <path d="M1164.6887,480.834783 C1139.3113,497.307826 1095.23478,508.438261 1051.60348,508.438261 C938.518261,508.438261 889.989565,438.984348 889.989565,334.358261 C889.989565,208.361739 963.005217,153.6 1063.62435,153.6 C1112.15304,153.6 1149.5513,166.956522 1164.24348,174.08 L1164.24348,262.233043 L1119.72174,260.452174 L1111.70783,216.82087 C1111.26261,212.368696 1109.92696,209.697391 1103.69391,207.471304 C1094.34435,204.354783 1077.42609,201.683478 1058.72696,201.683478 C999.958261,201.683478 952.765217,235.965217 952.765217,330.796522 C952.765217,423.401739 996.396522,459.01913 1060.50783,459.01913 C1093.45391,459.01913 1126.84522,448.333913 1145.09913,437.203478 L1164.6887,480.834783 L1164.6887,480.834783 Z" id="Shape" fill="#6B2A7F"></path>
                <path d="M1433.6,500.424348 L1427.81217,457.238261 L1426.0313,456.793043 C1394.42087,486.622609 1357.02261,508.438261 1306.26783,508.438261 C1223.45739,508.438261 1212.77217,451.450435 1212.77217,417.613913 C1212.77217,351.276522 1253.73217,320.111304 1333.42609,313.878261 L1422.91478,306.754783 L1422.91478,271.582609 C1422.91478,223.053913 1413.56522,199.457391 1356.13217,199.457391 C1315.61739,199.457391 1286.67826,200.793043 1285.78783,250.212174 L1228.8,244.424348 C1228.8,162.949565 1304.48696,153.6 1356.57739,153.6 C1450.51826,153.6 1482.57391,179.867826 1482.57391,271.582609 L1482.57391,446.998261 C1482.57391,457.683478 1483.01913,459.01913 1493.25913,460.354783 L1527.09565,464.806957 L1527.09565,500.424348 L1433.6,500.424348 L1433.6,500.424348 Z M1422.46957,348.16 L1347.67304,354.838261 C1290.68522,360.18087 1274.65739,376.653913 1274.65739,410.935652 C1274.65739,446.553043 1289.79478,461.245217 1320.96,461.245217 C1360.13913,461.245217 1401.54435,429.634783 1422.02435,410.490435 L1422.02435,348.16 L1422.46957,348.16 Z" id="Shape" fill="#6B2A7F"></path>
                <path d="M1571.61739,500.424348 L1571.61739,463.916522 L1612.57739,459.909565 C1621.92696,459.464348 1623.26261,456.793043 1623.26261,446.553043 L1623.26261,62.3304348 C1623.26261,55.2069565 1621.48174,50.3095652 1614.80348,48.5286957 L1575.17913,36.0626087 L1580.96696,0.890434783 L1683.36696,0.890434783 L1683.36696,446.998261 C1683.36696,457.683478 1683.81217,459.01913 1694.05217,460.354783 L1733.67652,464.806957 L1733.67652,500.424348 L1571.61739,500.424348 L1571.61739,500.424348 Z" id="Shape" fill="#6B2A7F"></path>
                <path d="M2138.82435,500.424348 L1897.0713,99.7286957 L1897.0713,446.107826 C1897.0713,456.793043 1897.51652,458.128696 1907.75652,459.464348 L1952.27826,464.806957 L1952.27826,500.424348 L1791.55478,500.424348 L1791.55478,464.806957 L1833.40522,460.354783 C1842.75478,459.01913 1844.09043,457.238261 1844.09043,446.998261 L1844.09043,74.7965217 C1844.09043,65.0017391 1842.75478,62.3304348 1833.40522,61.44 L1791.55478,56.9878261 L1791.55478,20.48 L1921.11304,20.48 L2156.63304,418.504348 L2156.63304,74.7965217 C2156.63304,65.0017391 2155.29739,62.3304348 2145.94783,61.44 L2104.09739,56.9878261 L2104.09739,21.3704348 L2264.37565,21.3704348 L2264.37565,56.9878261 L2219.85391,62.3304348 C2210.05913,63.666087 2209.1687,65.0017391 2209.1687,74.7965217 L2209.1687,500.424348 L2138.82435,500.424348 L2138.82435,500.424348 Z" id="Shape" fill="#A98AB9"></path>
                <path d="M2279.06783,329.015652 C2279.06783,225.28 2332.0487,153.6 2445.13391,153.6 C2558.21913,153.6 2601.85043,225.725217 2601.85043,325.008696 C2601.85043,436.313043 2551.54087,508.438261 2438.45565,508.438261 C2323.58957,508.438261 2279.06783,434.086957 2279.06783,329.015652 L2279.06783,329.015652 Z M2539.96522,329.015652 C2539.96522,242.198261 2508.35478,203.909565 2443.79826,203.909565 C2378.79652,203.909565 2341.39826,242.198261 2341.39826,329.906087 C2341.39826,418.05913 2375.23478,460.354783 2440.68174,460.354783 C2504.79304,459.909565 2539.96522,419.84 2539.96522,329.015652 L2539.96522,329.015652 Z" id="Shape" fill="#A98AB9"></path>
                <path d="M2876.54957,487.958261 C2850.28174,498.643478 2818.22609,508.438261 2784.38957,508.438261 C2720.72348,508.438261 2692.22957,478.608696 2692.22957,418.949565 L2692.22957,212.368696 C2692.22957,208.361739 2692.22957,205.690435 2686.88696,205.690435 L2638.35826,205.690435 L2638.35826,167.401739 C2690.00348,160.723478 2704.69565,140.243478 2713.15478,72.5704348 L2752.33391,72.5704348 L2752.33391,153.154783 C2752.33391,157.161739 2752.33391,159.833043 2757.67652,159.833043 L2855.17913,159.833043 L2855.17913,205.690435 L2752.77913,205.690435 L2752.77913,401.14087 C2752.77913,442.991304 2762.57391,458.573913 2800.41739,458.573913 C2820.89739,458.573913 2844.0487,452.786087 2861.85739,445.217391 L2876.54957,487.958261 L2876.54957,487.958261 Z" id="Shape" fill="#A98AB9"></path>
                <path d="M3189.09217,478.608696 C3156.14609,497.307826 3116.07652,508.438261 3068.43826,508.438261 C2948.67478,508.438261 2909.49565,429.634783 2909.49565,331.241739 C2909.49565,210.142609 2977.1687,154.045217 3060.42435,154.045217 C3141.0087,154.045217 3196.66087,197.676522 3196.66087,312.097391 C3196.66087,320.556522 3196.21565,333.913043 3195.32522,345.043478 L2972.71652,345.043478 C2974.49739,411.826087 3001.65565,457.683478 3073.78087,457.683478 C3110.73391,457.683478 3133.88522,451.005217 3169.05739,433.641739 L3189.09217,478.608696 L3189.09217,478.608696 Z M3136.55652,299.186087 C3135.22087,223.49913 3100.93913,201.683478 3060.42435,201.683478 C3015.90261,201.683478 2978.94957,225.725217 2973.60696,299.186087 L3136.55652,299.186087 L3136.55652,299.186087 Z" id="Shape" fill="#A98AB9"></path>
            </g>
        </g>
    </g>
</svg>