<?xml version="1.0" encoding="utf-8"?>
<!-- Generator: Adobe Illustrator 18.1.1, SVG Export Plug-In . SVG Version: 6.00 Build 0)  -->
<svg version="1.1" id="Layer_1" xmlns="http://www.w3.org/2000/svg" xmlns:xlink="http://www.w3.org/1999/xlink" x="0px" y="0px"
	 viewBox="-1 190 512 127.2" enable-background="new -1 190 512 127.2" xml:space="preserve">
<g>
	<g>
		<path d="M189.2,234.9h-24c0-3.5,0-7.3,0-11.7c0.1-13.6,3.7-18.6,7.7-21.2c4.1-2.7,10.3-2.9,16.3-2.9c2.5,0,4.6-2,4.6-4.6
			c0-2.5-2-4.6-4.6-4.6c-6,0-14-0.2-21.2,4.3c-7.3,4.6-12,13.9-11.9,28.9c0,4.4,0,8.3,0,11.7h-9.4c-2.5,0-4.6,2-4.6,4.6
			c0,2.5,2,4.6,4.6,4.6h9.4c0,21.6,0,24.7,0,68.4c0,2.5,2,4.6,4.6,4.6c2.5,0,4.6-2.1,4.6-4.6c0-43.7,0-46.7,0-68.4h24
			c2.5,0,4.6-2,4.6-4.6C193.7,237,191.7,234.9,189.2,234.9z"/>
		<path d="M296.6,307.9L296.6,307.9c-7.7,0-13.9-0.4-17.4-3.1c-3.5-2.5-6.6-7.9-6.6-21.7c0-19.6,0-28.7,0-39h24c2.5,0,4.6-2,4.6-4.6
			s-2-4.6-4.6-4.6h-24c0-9.1,0-20.8,0-40.5c0-2.5-2.1-4.6-4.6-4.6c-2.5,0-4.5,2-4.5,4.6c0,19.7,0,31.4,0,40.5h-9.4
			c-2.5,0-4.6,2-4.6,4.6c0,2.5,2,4.6,4.6,4.6h9.4c0,10.3,0,19.3,0,39c-0.1,14.9,3.5,24.1,10.4,29.1c6.9,4.8,15,4.7,22.7,4.8
			c2.5,0,4.6-2,4.6-4.6C301.2,309.9,299.1,307.9,296.6,307.9z"/>
		<path d="M506.4,307.9L506.4,307.9c-9.8,0-15.9-1-18.8-3.7c-3-2.5-5.3-8.2-5.2-20.8c0-21.8,0-28.4,0-39.2h24c2.5,0,4.6-2,4.6-4.6
			c0-2.5-2-4.6-4.6-4.6h-24c0-8.5,0-20.6,0-40.5c0-2.5-2-4.6-4.6-4.6c-2.5,0-4.6,2-4.6,4.6c0,19.9,0,32,0,40.5h-9.4
			c-2.5,0-4.6,2-4.6,4.6c0,2.5,2,4.6,4.6,4.6h9.4c0,10.7,0,17.3,0,39.2c0,13.3,2.1,22.2,8.4,27.7c6.4,5.4,14.7,5.9,24.8,5.9
			c2.5,0,4.6-2,4.6-4.6C511,309.9,509,307.9,506.4,307.9z"/>
		<g>
			<g>
				<path d="M216.8,312.5v-72.9c0-2.5,2-4.6,4.6-4.6l0,0c2.5,0,4.6,2,4.6,4.6l0,0v72.9c0,2.5-2,4.6-4.6,4.6l0,0
					C218.9,317,216.8,315,216.8,312.5L216.8,312.5z"/>
			</g>
		</g>
		<g>
			<g>
				<g>
					<path d="M428.6,312.5v-72.9c0-2.5,2-4.6,4.5-4.6l0,0c2.5,0,4.6,2,4.6,4.6l0,0v72.9c0,2.5-2,4.6-4.6,4.6l0,0
						C430.6,317,428.6,315,428.6,312.5L428.6,312.5z"/>
				</g>
			</g>
		</g>
		<path d="M365.4,234.6c-13,0-24.6,6-32.2,15.4c0-12.5,0-21.3,0-55.5c0-2.5-2-4.6-4.6-4.6c-2.5,0-4.6,2-4.6,4.6
			c0,52.5,0,43.9,0,84.1c0,0.3,0.1,0.6,0.2,0.9c1.9,21.1,19.5,37.6,41.1,37.6c22.8,0,41.3-18.5,41.3-41.3
			C406.6,253.1,388.2,234.7,365.4,234.6z M365.4,308.1c-17.8,0-32.1-14.4-32.2-32.2c0-17.8,14.4-32.1,32.2-32.2
			c17.8,0,32.1,14.4,32.2,32.2C397.5,293.7,383.1,308.1,365.4,308.1z"/>
		<g>
			<path d="M214.9,216.6c-1.7-1.7-2.7-4.1-2.7-6.4l0,0c0-2.4,1-4.8,2.7-6.4l0,0c1.7-1.7,4-2.7,6.4-2.7l0,0c2.4,0,4.7,1,6.4,2.7l0,0
				c1.7,1.7,2.7,4,2.7,6.4l0,0c0,2.4-1,4.8-2.7,6.4l0,0c-1.7,1.7-4,2.7-6.4,2.7l0,0C219,219.3,216.6,218.3,214.9,216.6L214.9,216.6z
				"/>
		</g>
		<g>
			<path d="M426.7,216.6c-1.7-1.7-2.7-4.1-2.7-6.4l0,0c0-2.4,1-4.8,2.7-6.4l0,0c1.7-1.7,4-2.7,6.5-2.7l0,0c2.4,0,4.7,1,6.4,2.7l0,0
				c1.7,1.7,2.7,4,2.7,6.4l0,0c0,2.4-1,4.8-2.7,6.4l0,0c-1.7,1.7-4,2.7-6.4,2.7l0,0C430.7,219.3,428.4,218.3,426.7,216.6
				L426.7,216.6z"/>
		</g>
	</g>
	<g>
		<g>
			<path d="M44.7,303.4c-1.4-1.4-2.2-3.3-2.2-5.2l0,0c0-1.9,0.8-3.8,2.2-5.2l0,0c1.4-1.4,3.3-2.2,5.2-2.2l0,0c1.9,0,3.8,0.8,5.2,2.2
				l0,0c1.4,1.4,2.2,3.3,2.2,5.2l0,0c0,1.9-0.8,3.8-2.2,5.2l0,0c-1.4,1.4-3.3,2.2-5.2,2.2l0,0C47.9,305.6,46,304.8,44.7,303.4
				L44.7,303.4z"/>
		</g>
		<g>
			<path d="M44.7,259.9c-1.4-1.4-2.2-3.3-2.2-5.2l0,0c0-1.9,0.8-3.8,2.2-5.2l0,0c1.4-1.4,3.3-2.2,5.2-2.2l0,0c1.9,0,3.8,0.8,5.2,2.2
				l0,0c1.4,1.4,2.2,3.3,2.2,5.2l0,0c0,1.9-0.8,3.8-2.2,5.2l0,0c-1.4,1.4-3.3,2.2-5.2,2.2l0,0C47.9,262,46,261.3,44.7,259.9
				L44.7,259.9z"/>
		</g>
		<g>
			<path d="M44.7,216.4c-1.4-1.4-2.2-3.3-2.2-5.2l0,0c0-1.9,0.8-3.8,2.2-5.2l0,0c1.4-1.4,3.3-2.1,5.2-2.1l0,0c1.9,0,3.8,0.8,5.2,2.1
				l0,0c1.4,1.4,2.2,3.3,2.2,5.2l0,0c0,1.9-0.8,3.8-2.2,5.2l0,0c-1.4,1.4-3.3,2.2-5.2,2.2l0,0C47.9,218.5,46,217.7,44.7,216.4
				L44.7,216.4z"/>
		</g>
		<g>
			<path d="M44.5,237.9c-1.3-1.4-2-3.3-2-5.3l0,0c0.1-2,0.9-3.8,2.4-5.1l0,0c1.4-1.3,3.3-2,5.3-1.9l0,0c1.9,0.1,3.8,0.9,5.1,2.3l0,0
				c1.3,1.4,2,3.3,2,5.3l0,0c-0.1,1.9-0.9,3.8-2.4,5.1l0,0c-1.4,1.3-3.3,2-5.3,2l0,0C47.6,240.2,45.8,239.3,44.5,237.9L44.5,237.9z"
				/>
		</g>
		<g>
			<path d="M44.7,281.6c-1.4-1.4-2.2-3.3-2.2-5.2l0,0c0-1.9,0.8-3.8,2.2-5.2l0,0c1.4-1.4,3.3-2.2,5.2-2.2l0,0c1.9,0,3.8,0.8,5.2,2.2
				l0,0c1.4,1.4,2.2,3.3,2.2,5.2l0,0c0,1.9-0.8,3.8-2.2,5.2l0,0c-1.4,1.4-3.3,2.2-5.2,2.2l0,0C47.9,283.8,46,283,44.7,281.6
				L44.7,281.6z"/>
		</g>
		<g>
			<path d="M66.4,259.9c-1.4-1.4-2.2-3.3-2.2-5.2l0,0c0-1.9,0.8-3.8,2.2-5.2l0,0c1.4-1.4,3.3-2.2,5.2-2.2l0,0c1.9,0,3.8,0.8,5.2,2.2
				l0,0c1.4,1.4,2.2,3.3,2.2,5.2l0,0c0,1.9-0.8,3.8-2.2,5.2l0,0c-1.4,1.4-3.3,2.2-5.2,2.2l0,0C69.7,262,67.8,261.3,66.4,259.9
				L66.4,259.9z"/>
		</g>
		<g>
			<path d="M66.4,238.1c-1.4-1.4-2.2-3.3-2.2-5.2l0,0c0-1.9,0.8-3.8,2.2-5.2l0,0c1.4-1.4,3.3-2.1,5.2-2.1l0,0c1.9,0,3.8,0.8,5.2,2.1
				l0,0c1.4,1.4,2.2,3.3,2.2,5.2l0,0c0,1.9-0.8,3.8-2.2,5.2l0,0c-1.4,1.4-3.3,2.2-5.2,2.2l0,0C69.7,240.3,67.8,239.5,66.4,238.1
				L66.4,238.1z"/>
		</g>
		<g>
			<path d="M66.4,281.6c-1.4-1.4-2.2-3.3-2.2-5.2l0,0c0-1.9,0.8-3.8,2.2-5.2l0,0c1.4-1.4,3.3-2.2,5.2-2.2l0,0c1.9,0,3.8,0.8,5.2,2.2
				l0,0c1.4,1.4,2.2,3.3,2.2,5.2l0,0c0,1.9-0.8,3.8-2.2,5.2l0,0c-1.4,1.4-3.3,2.2-5.2,2.2l0,0C69.7,283.8,67.8,283,66.4,281.6
				L66.4,281.6z"/>
		</g>
		<g>
			<path d="M88.2,259.9c-1.4-1.4-2.2-3.3-2.2-5.2l0,0c0-1.9,0.8-3.8,2.2-5.2l0,0c1.4-1.4,3.3-2.2,5.2-2.2l0,0c1.9,0,3.8,0.8,5.2,2.2
				l0,0c1.4,1.4,2.1,3.3,2.1,5.2l0,0c0,1.9-0.8,3.8-2.1,5.2l0,0c-1.4,1.4-3.3,2.2-5.2,2.2l0,0C91.4,262,89.5,261.3,88.2,259.9
				L88.2,259.9z"/>
		</g>
		<g>
			<path d="M22.9,259.9c-1.4-1.4-2.2-3.3-2.2-5.2l0,0c0-1.9,0.8-3.8,2.2-5.2l0,0c1.4-1.4,3.3-2.2,5.2-2.2l0,0c1.9,0,3.8,0.8,5.2,2.2
				l0,0c1.4,1.4,2.2,3.3,2.2,5.2l0,0c0,1.9-0.8,3.8-2.2,5.2l0,0c-1.4,1.4-3.3,2.2-5.2,2.2l0,0C26.2,262,24.3,261.3,22.9,259.9
				L22.9,259.9z"/>
		</g>
		<g>
			<path d="M22.9,238.1c-1.4-1.4-2.2-3.3-2.2-5.2l0,0c0-1.9,0.8-3.8,2.2-5.2l0,0c1.4-1.4,3.3-2.1,5.2-2.1l0,0c1.9,0,3.8,0.8,5.2,2.1
				l0,0c1.4,1.4,2.2,3.3,2.2,5.2l0,0c0,1.9-0.8,3.8-2.2,5.2l0,0c-1.4,1.4-3.3,2.2-5.2,2.2l0,0C26.2,240.3,24.3,239.5,22.9,238.1
				L22.9,238.1z"/>
		</g>
		<g>
			<path d="M22.9,281.6c-1.4-1.4-2.1-3.3-2.1-5.2l0,0c0-1.9,0.8-3.8,2.1-5.2l0,0c1.4-1.4,3.3-2.2,5.2-2.2l0,0c1.9,0,3.8,0.8,5.2,2.2
				l0,0c1.4,1.4,2.2,3.3,2.2,5.2l0,0c0,1.9-0.8,3.8-2.2,5.2l0,0c-1.4,1.4-3.3,2.2-5.2,2.2l0,0C26.2,283.8,24.3,283,22.9,281.6
				L22.9,281.6z"/>
		</g>
		<g>
			<path d="M1.2,259.9c-1.4-1.4-2.2-3.3-2.2-5.2l0,0c0-1.9,0.8-3.8,2.2-5.2l0,0c1.4-1.4,3.3-2.2,5.2-2.2l0,0c1.9,0,3.8,0.8,5.2,2.2
				l0,0c1.4,1.4,2.2,3.3,2.2,5.2l0,0c0,1.9-0.8,3.8-2.2,5.2l0,0c-1.4,1.4-3.3,2.2-5.2,2.2l0,0C4.4,262,2.5,261.3,1.2,259.9
				L1.2,259.9z"/>
		</g>
	</g>
</g>
</svg>
