<?xml version="1.0" encoding="utf-8"?><!-- Generator: Adobe Illustrator 16.0.0, SVG Export Plug-In . SVG Version: 6.00 Build 0) --><!DOCTYPE svg PUBLIC "-//W3C//DTD SVG 1.1//EN" "http://www.w3.org/Graphics/SVG/1.1/DTD/svg11.dtd"><svg version="1.1" id="Layer_1" xmlns="http://www.w3.org/2000/svg" xmlns:xlink="http://www.w3.org/1999/xlink" x="0px" y="0px" width="495.049px" height="123.004px" viewBox="0 0 495.049 123.004" enable-background="new 0 0 495.049 123.004" xml:space="preserve"><path d="M183.857,43.463H160.62c0-3.348,0-7.072,0-11.348c0.1-13.133,3.596-18.012,7.439-20.516	c3.965-2.594,10.004-2.83,15.797-2.777c2.439,0,4.406-1.973,4.406-4.416c0-2.43-1.967-4.406-4.406-4.406	c-5.766,0.047-13.551-0.197-20.514,4.143c-7.082,4.43-11.637,13.406-11.545,27.973c0,4.275,0,8,0,11.348h-9.08	c-2.441,0-4.42,1.98-4.42,4.406c0,2.432,1.979,4.414,4.42,4.414h9.08c0,20.932,0,23.836,0,66.123c0,2.428,1.973,4.42,4.414,4.42	s4.416-1.992,4.416-4.42c-0.002-42.283-0.01-45.197-0.01-66.123h23.236c2.436,0,4.42-1.982,4.42-4.414	C188.277,45.443,186.291,43.463,183.857,43.463z"/><path d="M287.77,114.012v-0.02c-7.438,0.066-13.436-0.381-16.84-2.943c-3.369-2.395-6.361-7.631-6.4-20.975	c-0.006-18.98-0.01-27.756-0.01-37.672h23.246c2.438,0,4.414-1.979,4.414-4.414s-1.979-4.404-4.414-4.404H264.52	c0-8.787,0.01-20.129,0.01-39.17c0-2.438-1.982-4.414-4.42-4.414s-4.396,1.977-4.396,4.414c0,19.041,0,30.383,0,39.17h-9.092	c-2.426,0-4.404,1.971-4.404,4.404c0,2.436,1.979,4.414,4.404,4.414h9.092c0,9.917,0,18.686,0,37.672	c-0.051,14.363,3.354,23.293,10.076,28.145c6.705,4.674,14.541,4.545,21.979,4.607c2.434,0,4.408-1.977,4.408-4.42	C292.178,115.969,290.2,114.012,287.77,114.012z"/><path d="M490.645,114.021V114c-9.521,0.064-15.359-0.975-18.172-3.582c-2.9-2.396-5.088-7.943-5.072-20.158	c0-21.088,0-27.49,0-37.859h23.24c2.447,0,4.408-1.979,4.408-4.414s-1.961-4.404-4.408-4.404H467.4c0-8.26,0-19.895,0-39.178	c0-2.438-1.965-4.402-4.399-4.402c-2.438,0-4.419,1.965-4.419,4.402c0,19.283,0,30.918,0,39.178h-9.086	c-2.439,0-4.418,1.971-4.418,4.404c0,2.436,1.979,4.414,4.418,4.414h9.086c0,10.369,0,16.771,0,37.859	c0.027,12.896,2.023,21.424,8.121,26.822c6.186,5.213,14.17,5.674,23.941,5.742c2.432,0,4.404-1.979,4.404-4.406	C495.049,115.979,493.074,114.021,490.645,114.021z"/><g><g><path d="M210.594,118.406V47.875c0-2.432,1.979-4.412,4.402-4.412l0,0c2.436,0,4.416,1.98,4.416,4.412l0,0v70.531	c0,2.428-1.98,4.42-4.416,4.42l0,0C212.573,122.826,210.594,120.834,210.594,118.406L210.594,118.406z"/></g></g><g><g><g><path d="M415.342,118.406V47.875c0-2.432,1.957-4.412,4.391-4.412l0,0c2.445,0,4.418,1.98,4.418,4.412l0,0v70.531	c0,2.428-1.973,4.42-4.418,4.42l0,0C417.299,122.826,415.342,120.834,415.342,118.406L415.342,118.406z"/></g></g></g><path d="M354.225,43.168c-12.578,0.008-23.791,5.836-31.104,14.926c0-12.109,0-20.557,0-53.68c0-2.438-1.978-4.41-4.407-4.41	c-2.438,0-4.412,1.973-4.412,4.41c0,50.75,0,42.469,0,81.336c0,0.312,0.115,0.588,0.182,0.885	c1.795,20.385,18.883,36.369,39.744,36.369c22.043,0,39.906-17.859,39.906-39.908C394.131,61.045,376.268,43.178,354.225,43.168z M354.225,114.184c-17.182-0.033-31.082-13.91-31.104-31.088c0.022-17.189,13.925-31.072,31.104-31.102	c17.174,0.029,31.059,13.91,31.086,31.102C385.281,100.273,371.398,114.15,354.225,114.184z"/><g><path fill="#75C1C2" d="M208.771,25.764c-1.645-1.641-2.582-3.92-2.582-6.236l0,0c0-2.324,0.938-4.594,2.582-6.236l0,0	c1.635-1.645,3.91-2.582,6.229-2.582l0,0c2.32,0,4.592,0.938,6.232,2.582l0,0c1.646,1.643,2.584,3.912,2.584,6.236l0,0	c0,2.316-0.938,4.596-2.584,6.236l0,0c-1.643,1.637-3.912,2.586-6.232,2.586l0,0C212.682,28.35,210.406,27.4,208.771,25.764	L208.771,25.764z"/></g><g><path fill="#75C1C2" d="M413.504,25.764c-1.646-1.641-2.586-3.92-2.586-6.236l0,0c0-2.324,0.939-4.594,2.586-6.236l0,0	c1.645-1.645,3.914-2.582,6.239-2.582l0,0c2.317,0,4.583,0.938,6.231,2.582l0,0c1.635,1.643,2.578,3.912,2.578,6.236l0,0	c0,2.316-0.943,4.596-2.578,6.236l0,0c-1.648,1.637-3.914,2.586-6.231,2.586l0,0C417.418,28.35,415.148,27.4,413.504,25.764	L413.504,25.764z"/></g><g><path fill="#75C1C2" d="M44.148,109.641c-1.334-1.328-2.082-3.164-2.082-5.041l0,0c0-1.875,0.748-3.707,2.082-5.033l0,0	c1.33-1.326,3.162-2.088,5.041-2.088l0,0c1.875,0,3.711,0.762,5.039,2.088l0,0c1.328,1.326,2.084,3.158,2.084,5.033l0,0	c0,1.877-0.756,3.713-2.084,5.041l0,0c-1.328,1.322-3.164,2.092-5.039,2.092l0,0C47.311,111.732,45.479,110.963,44.148,109.641	L44.148,109.641z"/></g><g><path d="M44.148,67.574c-1.326-1.332-2.082-3.17-2.082-5.041l0,0c0-1.879,0.756-3.713,2.082-5.041l0,0	c1.326-1.324,3.162-2.084,5.035-2.084l0,0c1.881,0,3.709,0.76,5.045,2.084l0,0c1.328,1.328,2.084,3.162,2.084,5.041l0,0	c0,1.871-0.756,3.709-2.084,5.041l0,0c-1.336,1.322-3.164,2.082-5.045,2.082l0,0C47.311,69.656,45.475,68.896,44.148,67.574	L44.148,67.574z"/></g><g><path fill="#75C1C2" d="M44.15,25.506c-1.318-1.334-2.082-3.164-2.082-5.035l0,0c0-1.883,0.764-3.717,2.082-5.049l0,0	c1.324-1.322,3.16-2.072,5.035-2.072l0,0c1.879,0,3.715,0.75,5.039,2.072l0,0c1.33,1.332,2.088,3.166,2.088,5.049l0,0	c0,1.871-0.758,3.701-2.088,5.035l0,0c-1.324,1.322-3.16,2.082-5.039,2.082l0,0C47.311,27.588,45.475,26.828,44.15,25.506	L44.15,25.506z"/></g><g><path fill="#75C1C2" d="M43.963,46.34c-1.279-1.371-1.963-3.236-1.887-5.104l0,0c0.066-1.891,0.895-3.689,2.273-4.967l0,0	c1.379-1.273,3.234-1.951,5.117-1.879l0,0c1.865,0.068,3.678,0.893,4.943,2.27l0,0c1.271,1.385,1.977,3.236,1.898,5.125l0,0	c-0.072,1.869-0.908,3.67-2.285,4.949l0,0c-1.375,1.271-3.238,1.963-5.109,1.895l0,0C47.035,48.557,45.236,47.715,43.963,46.34	L43.963,46.34z"/></g><g><path fill="#75C1C2" d="M44.15,88.607c-1.32-1.332-2.084-3.164-2.084-5.041l0,0c0-1.879,0.764-3.711,2.084-5.039l0,0	c1.328-1.326,3.16-2.086,5.039-2.086l0,0c1.875,0,3.711,0.76,5.035,2.086l0,0c1.328,1.328,2.088,3.16,2.088,5.039l0,0	c0,1.877-0.76,3.709-2.088,5.041l0,0c-1.324,1.314-3.16,2.082-5.035,2.082l0,0C47.311,90.689,45.479,89.924,44.15,88.607	L44.15,88.607z"/></g><g><path d="M65.184,67.574c-1.322-1.332-2.086-3.17-2.086-5.041l0,0c0-1.879,0.764-3.713,2.086-5.041l0,0	c1.328-1.324,3.162-2.084,5.039-2.084l0,0c1.875,0,3.703,0.76,5.041,2.084l0,0c1.326,1.328,2.086,3.162,2.086,5.041l0,0	c0,1.871-0.76,3.709-2.086,5.041l0,0c-1.338,1.322-3.166,2.082-5.041,2.082l0,0C68.346,69.656,66.512,68.896,65.184,67.574	L65.184,67.574z"/></g><g><path d="M65.184,46.537c-1.322-1.322-2.08-3.16-2.08-5.031l0,0c0-1.885,0.758-3.711,2.08-5.047l0,0	c1.328-1.318,3.17-2.072,5.039-2.072l0,0c1.875,0,3.709,0.754,5.041,2.072l0,0c1.326,1.336,2.086,3.162,2.086,5.047l0,0	c0,1.871-0.76,3.709-2.086,5.031l0,0c-1.332,1.324-3.166,2.096-5.041,2.096l0,0C68.354,48.633,66.512,47.861,65.184,46.537	L65.184,46.537z"/></g><g><path d="M65.184,88.607c-1.326-1.332-2.086-3.164-2.086-5.041l0,0c0-1.879,0.76-3.711,2.086-5.039l0,0	c1.328-1.326,3.162-2.086,5.039-2.086l0,0c1.881,0,3.713,0.76,5.041,2.086l0,0c1.326,1.328,2.086,3.16,2.086,5.039l0,0	c0,1.877-0.76,3.709-2.086,5.041l0,0c-1.328,1.314-3.16,2.082-5.041,2.082l0,0C68.346,90.689,66.512,89.924,65.184,88.607	L65.184,88.607z"/></g><g><path d="M86.217,67.574c-1.326-1.332-2.082-3.17-2.082-5.041l0,0c0-1.879,0.756-3.713,2.082-5.041l0,0	c1.328-1.324,3.164-2.084,5.039-2.084l0,0c1.877,0,3.713,0.76,5.041,2.084l0,0c1.322,1.328,2.076,3.162,2.076,5.041l0,0	c0,1.871-0.754,3.709-2.076,5.041l0,0c-1.328,1.322-3.164,2.082-5.041,2.082l0,0C89.381,69.656,87.545,68.896,86.217,67.574	L86.217,67.574z"/></g><g><path d="M23.111,67.574c-1.322-1.332-2.084-3.17-2.084-5.041l0,0c0-1.879,0.762-3.713,2.084-5.041l0,0	c1.328-1.324,3.164-2.084,5.053-2.084l0,0c1.863,0,3.697,0.76,5.029,2.084l0,0c1.32,1.328,2.084,3.162,2.084,5.041l0,0	c0,1.871-0.764,3.709-2.084,5.041l0,0c-1.332,1.322-3.166,2.082-5.029,2.082l0,0C26.275,69.656,24.439,68.896,23.111,67.574	L23.111,67.574z"/></g><g><path fill="#75C1C2" d="M23.119,46.537c-1.337-1.322-2.094-3.16-2.094-5.031l0,0c0-1.885,0.757-3.711,2.094-5.047l0,0	c1.318-1.318,3.15-2.072,5.033-2.072l0,0c1.873,0,3.707,0.754,5.037,2.072l0,0c1.322,1.336,2.086,3.162,2.086,5.047l0,0	c0,1.871-0.764,3.709-2.086,5.031l0,0c-1.33,1.324-3.164,2.096-5.037,2.096l0,0C26.271,48.633,24.439,47.861,23.119,46.537	L23.119,46.537z"/></g><g><path fill="#75C1C2" d="M23.111,88.607c-1.322-1.332-2.072-3.164-2.072-5.041l0,0c0-1.879,0.75-3.711,2.072-5.039l0,0	c1.328-1.326,3.16-2.086,5.045-2.086l0,0c1.875,0,3.715,0.76,5.039,2.086l0,0c1.328,1.328,2.089,3.16,2.089,5.039l0,0	c0,1.877-0.761,3.709-2.089,5.041l0,0c-1.324,1.314-3.164,2.082-5.039,2.082l0,0C26.271,90.689,24.439,89.924,23.111,88.607	L23.111,88.607z"/></g><g><path d="M2.084,67.574C0.752,66.242,0,64.404,0,62.533l0,0c0-1.879,0.752-3.713,2.084-5.041l0,0	c1.33-1.324,3.164-2.084,5.039-2.084l0,0c1.873,0,3.713,0.76,5.037,2.084l0,0c1.322,1.328,2.081,3.162,2.081,5.041l0,0	c0,1.871-0.759,3.709-2.081,5.041l0,0c-1.324,1.322-3.164,2.082-5.037,2.082l0,0C5.248,69.656,3.414,68.896,2.084,67.574	L2.084,67.574z"/></g></svg>