<?xml version="1.0" encoding="utf-8"?>
<!-- Generator: Adobe Illustrator 18.0.0, SVG Export Plug-In . SVG Version: 6.00 Build 0)  -->
<!DOCTYPE svg PUBLIC "-//W3C//DTD SVG 1.1//EN" "http://www.w3.org/Graphics/SVG/1.1/DTD/svg11.dtd">
<svg version="1.1" id="Layer_1" xmlns="http://www.w3.org/2000/svg" xmlns:xlink="http://www.w3.org/1999/xlink" x="0px" y="0px"
	 viewBox="0 0 65 60" enable-background="new 0 0 65 60" xml:space="preserve">
<g>
	<polygon fill-rule="evenodd" clip-rule="evenodd" fill="#33495C" points="38.8,24.4 43.9,23.5 42.2,26.3 37.5,27.1 36.6,31.1 
		35.9,27.8 38.8,24.4 	"/>
	<path fill-rule="evenodd" clip-rule="evenodd" fill="#33495C" d="M32.5,40.3l2.8,1.9l3.1,0.6l-0.9,1.9L34,43.8
		C34,43.8,32.8,41.1,32.5,40.3L32.5,40.3L32.5,40.3z"/>
	<polygon fill-rule="evenodd" clip-rule="evenodd" fill="#33495C" points="40,36.6 46.3,29.7 46,24.4 47.9,30.8 40.9,38.9 40,36.6 	
		"/>
	<polygon fill-rule="evenodd" clip-rule="evenodd" fill="#ECEFF0" points="40.8,41.5 41.3,44.9 38.2,47.7 44.7,44.5 42,39.9 
		40.8,41.5 	"/>
	<polygon fill-rule="evenodd" clip-rule="evenodd" fill="#33495C" points="40.7,16.5 51.1,10.6 54,16.2 49.9,19.8 51.9,15.9 
		50.5,13 40.7,16.5 	"/>
	<polygon fill-rule="evenodd" clip-rule="evenodd" fill="#BCC1C6" points="39.8,17.2 58.5,33.9 52.3,42.4 56.5,34.5 39.8,17.2 	"/>
	<polygon fill-rule="evenodd" clip-rule="evenodd" fill="#ECEFF0" points="47.9,27 55.3,34.8 50.2,45.1 53.7,36.1 49.2,31.1 
		47.9,27 	"/>
	<polygon fill-rule="evenodd" clip-rule="evenodd" fill="#7E8B8C" points="48.6,31.8 52.7,36.4 48.2,47.5 50.3,38.8 46.5,34.6 
		48.6,31.8 	"/>
	<polygon fill-rule="evenodd" clip-rule="evenodd" fill="#92A4A4" points="46.1,35.3 49.3,39.2 46.8,48.6 47.7,41.6 44.2,37.3 
		46.1,35.3 	"/>
	<polygon fill-rule="evenodd" clip-rule="evenodd" fill="#ECEFF0" points="37.5,17.6 50.4,9.7 48.2,6.7 37.5,17.6 	"/>
	<polygon fill-rule="evenodd" clip-rule="evenodd" fill="#BCC1C6" points="36.6,17.3 42.8,5.3 47.4,6.3 36.6,17.3 	"/>
	<polygon fill-rule="evenodd" clip-rule="evenodd" fill="#7E8B8C" points="35,15.8 39.2,3.7 35,1.8 35,15.8 	"/>
	<polygon fill-rule="evenodd" clip-rule="evenodd" fill="#92A4A4" points="41.1,17.1 58.9,33.3 60.8,30.6 41.1,17.1 	"/>
	<polygon fill-rule="evenodd" clip-rule="evenodd" fill="#7E8B8C" points="42.6,16.8 57.5,25.1 59.8,28.9 42.6,16.8 	"/>
	<polygon fill-rule="evenodd" clip-rule="evenodd" fill="#7E8B8C" points="49.8,20 55,21.1 56.5,23.5 49.8,20 	"/>
	<polygon fill-rule="evenodd" clip-rule="evenodd" fill="#7E8B8C" points="50.8,19.6 53.1,18 54.4,20.3 50.8,19.6 	"/>
	<polygon fill-rule="evenodd" clip-rule="evenodd" fill="#BCC1C6" points="43.7,38.1 47,42.2 44.9,50.9 45.5,43.5 42.6,39.3 
		43.7,38.1 	"/>
	<polygon fill-rule="evenodd" clip-rule="evenodd" fill="#7E8B8C" points="44.6,45.7 44.3,49.5 42.3,51.2 41.7,47.1 44.6,45.7 	"/>
	<polygon fill-rule="evenodd" clip-rule="evenodd" fill="#92A4A4" points="41,47.5 41.8,51.7 39.7,53.4 38.6,48.7 41,47.5 	"/>
	<polygon fill-rule="evenodd" clip-rule="evenodd" fill="#BCC1C6" points="37.8,49 39,54 36.3,56.3 34.8,50.5 37.8,49 	"/>
	<polygon fill-rule="evenodd" clip-rule="evenodd" fill="#92A4A4" points="35.8,16.7 39.8,4.1 42,5 35.8,16.7 	"/>
	<polygon fill-rule="evenodd" clip-rule="evenodd" fill="#33495C" points="32.5,40.4 30.7,38 28.4,37.1 28.1,35 31.5,35.4 
		32.5,36.8 33.5,35.4 36.9,35 36.6,37.1 34.3,38 32.5,40.4 	"/>
	<polygon fill-rule="evenodd" clip-rule="evenodd" fill="#33495C" points="26.2,24.4 21.1,23.5 22.8,26.3 27.5,27.1 28.4,31.1 
		29.1,27.8 26.2,24.4 	"/>
	<path fill-rule="evenodd" clip-rule="evenodd" fill="#33495C" d="M32.5,40.3l-2.8,1.9l-3.1,0.6l0.9,1.9l3.5-0.8
		C31,43.8,32.2,41.1,32.5,40.3L32.5,40.3L32.5,40.3z"/>
	<polygon fill-rule="evenodd" clip-rule="evenodd" fill="#33495C" points="25,36.6 18.8,29.7 19,24.4 17.1,30.8 23.7,39 25,36.6 	
		"/>
	<polygon fill-rule="evenodd" clip-rule="evenodd" fill="#ECEFF0" points="24.2,41.5 23.7,44.9 26.8,47.7 20.3,44.5 23,39.9 
		24.2,41.5 	"/>
	<polygon fill-rule="evenodd" clip-rule="evenodd" fill="#33495C" points="27.6,45 29,46.8 32.5,46.7 36,46.8 37.4,45 37.1,48.4 
		32.5,50.5 32.5,50.2 32.5,50.5 27.9,48.4 27.6,45 	"/>
	<polygon fill-rule="evenodd" clip-rule="evenodd" fill="#33495C" points="24.3,16.5 13.9,10.6 11,16.2 15.1,19.8 13.1,15.9 
		14.5,13 24.3,16.5 	"/>
	<polygon fill-rule="evenodd" clip-rule="evenodd" fill="#BCC1C6" points="25.2,17.2 6.5,33.9 12.7,42.4 8.5,34.5 25.2,17.2 	"/>
	<polygon fill-rule="evenodd" clip-rule="evenodd" fill="#ECEFF0" points="17.1,27 9.7,34.8 14.8,45.1 11.3,36.1 15.8,31.1 17.1,27 
			"/>
	<polygon fill-rule="evenodd" clip-rule="evenodd" fill="#7E8B8C" points="16.4,31.8 12.3,36.4 16.8,47.5 14.7,38.8 18.5,34.6 
		16.4,31.8 	"/>
	<polygon fill-rule="evenodd" clip-rule="evenodd" fill="#92A4A4" points="18.9,35.3 15.7,39.2 18.2,48.6 17.3,41.6 20.8,37.3 
		18.9,35.3 	"/>
	<polygon fill-rule="evenodd" clip-rule="evenodd" fill="#ECEFF0" points="27.5,17.6 14.6,9.7 16.8,6.7 27.5,17.6 	"/>
	<polygon fill-rule="evenodd" clip-rule="evenodd" fill="#BCC1C6" points="28.4,17.3 22.2,5.3 17.6,6.3 28.4,17.3 	"/>
	<polygon fill-rule="evenodd" clip-rule="evenodd" fill="#7E8B8C" points="30,15.8 25.8,3.7 30,1.8 30,15.8 	"/>
	<polygon fill-rule="evenodd" clip-rule="evenodd" fill="#EF565F" points="32.5,18.2 31,16 30.6,0.5 32.5,4.5 34.4,0.5 34,16 
		32.5,18.2 	"/>
	<polygon fill-rule="evenodd" clip-rule="evenodd" fill="#92A4A4" points="23.9,17.1 6.1,33.3 4.2,30.6 23.9,17.1 	"/>
	<polygon fill-rule="evenodd" clip-rule="evenodd" fill="#7E8B8C" points="22.4,16.8 7.5,25.1 5.2,28.9 22.4,16.8 	"/>
	<polygon fill-rule="evenodd" clip-rule="evenodd" fill="#7E8B8C" points="15.2,20 10,21.1 8.5,23.5 15.2,20 	"/>
	<polygon fill-rule="evenodd" clip-rule="evenodd" fill="#7E8B8C" points="14.2,19.6 11.9,18 10.6,20.3 14.2,19.6 	"/>
	<polygon fill-rule="evenodd" clip-rule="evenodd" fill="#BCC1C6" points="21.3,38.1 18,42.2 20.1,50.9 19.5,43.5 22.4,39.3 
		21.3,38.1 	"/>
	<polygon fill-rule="evenodd" clip-rule="evenodd" fill="#7E8B8C" points="20.4,45.7 20.7,49.5 22.7,51.2 23.3,47.1 20.4,45.7 	"/>
	<polygon fill-rule="evenodd" clip-rule="evenodd" fill="#92A4A4" points="24,47.5 23.2,51.7 25.3,53.4 26.4,48.7 24,47.5 	"/>
	<polygon fill-rule="evenodd" clip-rule="evenodd" fill="#BCC1C6" points="27.2,49 26,54 28.7,56.3 30.2,50.5 27.2,49 	"/>
	<polygon fill-rule="evenodd" clip-rule="evenodd" fill="#ECEFF0" points="30.6,50.7 29.3,56.8 32.5,59.5 35.7,56.8 34.4,50.7 
		32.5,51.6 30.6,50.7 	"/>
	<polygon fill-rule="evenodd" clip-rule="evenodd" fill="#92A4A4" points="29.2,16.7 25.2,4.1 23,5 29.2,16.7 	"/>
</g>
</svg>
