<?xml version="1.0" encoding="utf-8"?>
<!-- Generator: Adobe Illustrator 19.2.1, SVG Export Plug-In . SVG Version: 6.00 Build 0)  -->
<svg version="1.1" id="Layer_1" xmlns="http://www.w3.org/2000/svg" xmlns:xlink="http://www.w3.org/1999/xlink" x="0px" y="0px"
	 viewBox="0 0 611.8 107.3" style="enable-background:new 0 0 611.8 107.3;" xml:space="preserve">
<style type="text/css">
	.st0{opacity:0.6;}
	.st1{fill:#F58425;}
	.st2{opacity:0.4;}
	.st3{fill:#50B748;}
	.st4{fill:#333333;}
</style>
<g>
	<g class="st0">
		<path class="st1" d="M147.7,25.5c0,21.7,0,43.5,0,65.2c0,0,0.7,9.8-8,9.9c-39.1-1-78.5-7.7-117.5-15.9c-8.5-1.8-8-9.6-8-9.6
			c0-21.7,0-43.5,0-65.2c0-9.7,8-9.9,8-9.9c39.1,1,78.5,7.7,117.5,15.9C139.7,15.9,147.7,17.4,147.7,25.5z"/>
	</g>
	<g class="st2">
		<path class="st3" d="M0,32.2c0,21.7,0,43.5,0,65.2c0,0-0.7,9.8,8,9.9c39.1-1,78.5-7.7,117.5-15.9c8.5-1.8,8-9.6,8-9.6
			c0-21.7,0-43.5,0-65.2c0-9.7-8-9.9-8-9.9C86.4,7.7,47,14.4,8,22.6C8,22.6,0,24,0,32.2z"/>
	</g>
	<g>
		<path class="st4" d="M165.7,21.6H216v3.2h-46.8v32h42.3V60h-42.3v33.8h-3.5V21.6z"/>
		<path class="st4" d="M223.7,21.6h3.5v69h43.5v3.2h-47L223.7,21.6L223.7,21.6z"/>
		<path class="st4" d="M278.3,21.6h3.5v72.2h-3.5V21.6z"/>
		<path class="st4" d="M296.1,21.6h25.8c16.9,0,27.3,8.1,27.3,21.9v0.2c0,14.4-11.6,22.4-28.1,22.4h-21.4v27.7h-3.5L296.1,21.6
			L296.1,21.6z M321.2,62.7c14.9,0,24.5-7,24.5-19v-0.2c0-11.9-9.3-18.8-24.1-18.8h-22v37.9h21.6V62.7z"/>
		<path class="st4" d="M421.8,95.9l-7.9-7.1c-6.1,3.9-13.4,6.2-21.4,6.2c-22.3,0-38.2-16.6-38.2-37.1v-0.2
			c0-20.5,16.2-37.3,38.5-37.3S431,37,431,57.5v0.2c0,7.6-2.4,14.7-6.4,20.7l7.4,6.3L421.8,95.9z M402.1,78.4l-11.8-10l10.1-11.3
			l11.9,10.7c1.2-2.9,2-6.3,2-9.9v-0.2c0-12.4-9.1-22.7-21.9-22.7s-21.7,10.1-21.7,22.5v0.2c0,12.4,9.1,22.7,21.9,22.7
			C396.1,80.4,399.3,79.7,402.1,78.4z"/>
		<path class="st4" d="M436.1,62.8V21.6H452v40.8c0,11.8,5.9,17.8,15.6,17.8s15.6-5.9,15.6-17.3V21.6h15.9v40.7
			c0,21.9-12.3,32.6-31.7,32.6C448,94.9,436.1,84.1,436.1,62.8z"/>
		<path class="st4" d="M508.2,21.6h15.9v72.2h-15.9L508.2,21.6L508.2,21.6z"/>
		<path class="st4" d="M532.2,81.7l39.7-46.2h-38.5V21.6h58.9v12l-39.7,46.2h39.7v13.9h-60.1L532.2,81.7L532.2,81.7z"/>
	</g>
	<g>
		<path class="st4" d="M596.9,23h-2.8v-1.2h6.9V23h-2.8v7.6h-1.3V23z M603,21.8h1.3l3.1,4.8l3.1-4.8h1.3v8.8h-1.2v-6.7l-3.1,4.8
			h-0.2l-3.1-4.8v6.7h-1.3v-8.8H603z"/>
	</g>
</g>
</svg>
