<?xml version="1.0" encoding="utf-8"?>
<!-- Generator: Adobe Illustrator 18.1.1, SVG Export Plug-In . SVG Version: 6.00 Build 0)  -->
<svg version="1.1" id="Layer_1" xmlns="http://www.w3.org/2000/svg" xmlns:xlink="http://www.w3.org/1999/xlink" x="0px" y="0px"
	 viewBox="-228 240 1018.7 512" enable-background="new -228 240 1018.7 512" xml:space="preserve">
<path fill="#2F9C5C" d="M94.7,391.9l-2.1,14.7H59.3c-8,93.9-14,170.3-20.7,205.7c-12.2,64-71.5,99.8-110.3,99.8
	c-13.1,0-30.3-7.1-30.3-22.7c0-8.8,7.6-15.6,16.4-15.6c13.9,0,24.4,9.7,31.6,21c21-11.8,24-21.5,32.4-63.5
	c3.8-18.9,16.1-156.4,22.4-224.6h-26.1l2.1-14.7H2.9l3.8-23.1C21,281.7,85.4,272,108.1,272c12.2,0,36.2,5.9,36.2,21.4
	c0,10.9-8.8,15.6-18.9,15.6c-15.6,0-22.7-9.7-30.3-22.3C68.1,298.5,63.5,362.9,61,391.9C61,391.9,94.7,391.9,94.7,391.9z"/>
<path d="M182.4,684.7c-42.1,34.5-95.8,55.2-154.4,55.2c-134.6,0-243.8-109.2-243.8-243.8c0-134.7,109.2-243.8,243.8-243.8
	c90.5,0,169.4,49.3,211.5,122.6c5.6,1.2,11.1,2.8,16.4,4.6C213.4,296.7,127.3,240,28,240c-141.4,0-256,114.6-256,256
	c0,141.4,114.6,256,256,256c66.7,0,127.5-25.5,173-67.4L182.4,684.7L182.4,684.7z"/>
<path fill="#2F9C5C" d="M286,449.5c0-45-27.4-65.7-73.7-65.7c-75.3,0-120.8,60.2-120.8,129.6c0,30.5,12.5,49.7,35,59h79.5
	C256.6,555.1,286,505.3,286,449.5z M152.6,502.6c0-27.4,5.5-102.7,44.6-102.7c26.5,0,27.8,42.9,27.8,61c0,26.9-5.5,102.3-44.6,102.3
	C153.8,563.2,152.6,520.3,152.6,502.6z"/>
<path fill="#2F9C5C" d="M496.4,449.5c0-45-27.4-65.7-73.7-65.7c-75.3,0-120.8,60.2-120.8,129.6c0,30.5,12.6,49.7,35,59h79.5
	C467.1,555.1,496.4,505.3,496.4,449.5z M363,502.6c0-27.4,5.5-102.7,44.6-102.7c26.5,0,27.8,42.9,27.8,61
	c0,26.9-5.5,102.3-44.6,102.3C364.2,563.2,363,520.3,363,502.6z"/>
<path fill="#2F9C5C" d="M635.2,508.1l0.9,0.9c-2.1,23.6-3,35.8-3,44.6c0,4.6-0.1,13.1,2.3,19h46.9c14.4-4.2,29.4-10.1,42.9-16.5
	l-3.8-11.8c-13.1,4.6-22.7,8-25.7,8c-5.5,0-5.5-7.1-5.5-12.6c0-20.2,29-220.1,29-258.8c0-6.3-1.3-6.3-5.1-6.3
	c-29,0.9-61.5,7.6-91.3,18.1l3.8,12.2c14.7-4.6,20.6-5.9,24.4-5.9c5.1,0,5.1,4.2,5.1,8.8c0,13.9-0.4,33.2-6.3,79.1h-15.2
	c-72.8,0-125,68.6-125,134.7c0,18.8,6.6,40.4,21.6,51H579C604.2,559.8,623.8,530.9,635.2,508.1z M641.1,402.8c2.1,0,4.6,0.4,6.7,1.3
	c-5.5,39.1-8.8,63.1-18.9,89.2c-5.5,14.3-21.9,45.9-40.4,45.9c-13.5,0-15.6-22.3-15.6-31.6C573,470.2,594.8,402.8,641.1,402.8z"/>
<polygon points="682.4,572.5 635.4,572.5 579,572.5 531.4,572.5 416.5,572.5 336.9,572.5 206.1,572.5 126.5,572.5 60.7,572.5 
	60.7,672.8 730.6,672.8 730.6,572.5 "/>
<path fill="#FFFFFF" d="M101,595.6h15.9l21.3,31.7h0.1v-31.7h13.1v59.7h-12.8l-24.4-33.8h-0.1v33.8H101L101,595.6L101,595.6z"/>
<path fill="#FFFFFF" d="M190.1,595.6h44.9v12.3h-27.9v10.8H225v12.3h-17.9v11.5H236v12.8h-45.8C190.1,655.3,190.1,595.6,190.1,595.6
	z"/>
<path fill="#FFFFFF" d="M284.4,607.4H268v-11.9h49.9v11.9h-16.4v47.9h-17.1C284.4,655.3,284.4,607.4,284.4,607.4z"/>
<path fill="#FFFFFF" d="M348.1,595.6H365l8.2,31.9h0.1l8.5-31.9h14.2l8.1,31.9h0.1l8.4-31.9h13.4l-15.9,59.7h-14.6l-8.4-31.8h-0.2
	l-8.4,31.8H364L348.1,595.6z"/>
<path fill="#FFFFFF" d="M485.8,656.4c-17.8,0-28.5-11.9-28.5-31s10.7-31,28.5-31s28.5,11.9,28.5,31S503.6,656.4,485.8,656.4z
	 M475.3,625.5c0,16.1,4.7,19.1,10.5,19.1c5.8,0,10.5-3.1,10.5-19.1c0-15.2-3.9-19.1-10.5-19.1C478.9,606.3,475.3,611,475.3,625.5z"
	/>
<path fill="#FFFFFF" d="M550.2,595.6h28.6c19.9,0,23.8,9.5,23.8,17.2c0,7.4-4.7,12.4-11.3,15l11.2,27.5h-19l-8.5-24.5h-7.7v24.5
	h-17.1L550.2,595.6L550.2,595.6z M567.2,619.4h8.9c4.9,0,8.5-2.1,8.5-6c0-3.8-2.5-6.5-7.7-6.5h-9.6L567.2,619.4L567.2,619.4z"/>
<path fill="#FFFFFF" d="M640.1,595.6h17.1v23.9h0.1l17.5-23.9H691l-14.7,19.8l18.6,40h-18.3l-11.8-25.5l-7.7,10.3v15.2h-17.1
	L640.1,595.6L640.1,595.6z"/>
<path d="M762.3,646.4v3.1h-8.9v23.1h-3.6v-23.1H741v-3.1H762.3z"/>
<path d="M770.6,646.4c0,0,6.7,19.7,7.5,22.2h0.1l7.5-22.2h5.1v26.3h-3.4v-16.8l0.1-5.2l-0.1,0l-7.4,22.1h-3.5l-7.4-22l-0.1,0
	l0.1,6.4v15.6h-3.4v-26.3L770.6,646.4L770.6,646.4z"/>
</svg>
