<?xml version="1.0" encoding="iso-8859-1"?><!-- Generator: Adobe Illustrator 16.0.0, SVG Export Plug-In . SVG Version: 6.00 Build 0) --><!DOCTYPE svg PUBLIC "-//W3C//DTD SVG 1.1//EN" "http://www.w3.org/Graphics/SVG/1.1/DTD/svg11.dtd"><svg version="1.1" id="Layer_1" xmlns="http://www.w3.org/2000/svg" xmlns:xlink="http://www.w3.org/1999/xlink" x="0px" y="0px" width="41.748px" height="20.983px" viewBox="0 0 41.748 20.983" style="enable-background:new 0 0 41.748 20.983;" xml:space="preserve"><path style="fill:#2F9C5C;" d="M13.224,6.225l-0.086,0.604h-1.363c-0.328,3.847-0.572,6.98-0.848,8.429	c-0.5,2.622-2.932,4.088-4.519,4.088c-0.535,0-1.242-0.293-1.242-0.932c0-0.362,0.311-0.638,0.673-0.638	c0.569,0,1,0.396,1.294,0.862c0.862-0.483,0.983-0.88,1.328-2.604c0.155-0.776,0.658-6.411,0.917-9.205H8.308l0.086-0.604h1.069	l0.155-0.948c0.586-3.57,3.225-3.967,4.156-3.967c0.5,0,1.483,0.242,1.483,0.879c0,0.448-0.362,0.639-0.776,0.639	c-0.638,0-0.931-0.397-1.241-0.915c-1.104,0.483-1.294,3.122-1.397,4.312H13.224z"/><path d="M16.82,18.223c-1.724,1.413-3.927,2.261-6.329,2.261c-5.518,0-9.991-4.474-9.991-9.991C0.5,4.974,4.974,0.5,10.492,0.5	c3.708,0,6.943,2.022,8.667,5.023c0.229,0.051,0.453,0.113,0.671,0.188C18.091,2.321,14.563,0,10.492,0C4.697,0,0,4.697,0,10.492	c0,5.794,4.697,10.491,10.492,10.491c2.734,0,5.224-1.047,7.091-2.761H16.82z"/><path style="fill:#2F9C5C;" d="M21.064,8.587c0-1.845-1.121-2.691-3.019-2.691c-3.087,0-4.95,2.467-4.95,5.312	c0,1.248,0.514,2.037,1.434,2.418h3.26C19.861,12.912,21.064,10.873,21.064,8.587z M15.597,10.761c0-1.121,0.224-4.208,1.828-4.208	c1.086,0,1.138,1.759,1.138,2.5c0,1.104-0.224,4.191-1.828,4.191C15.648,13.244,15.597,11.485,15.597,10.761z"/><path style="fill:#2F9C5C;" d="M29.687,8.587c0-1.845-1.121-2.691-3.019-2.691c-3.087,0-4.95,2.467-4.95,5.312	c0,1.248,0.515,2.037,1.434,2.418h3.26C28.485,12.912,29.687,10.873,29.687,8.587z M24.22,10.761c0-1.121,0.224-4.208,1.828-4.208	c1.086,0,1.138,1.759,1.138,2.5c0,1.104-0.224,4.191-1.828,4.191C24.271,13.244,24.22,11.485,24.22,10.761z"/><path style="fill:#2F9C5C;" d="M35.378,10.985l0.035,0.035c-0.086,0.966-0.121,1.466-0.121,1.828c0,0.188-0.005,0.536,0.094,0.78	h1.924c0.591-0.173,1.206-0.414,1.759-0.676l-0.155-0.483c-0.535,0.19-0.931,0.328-1.052,0.328c-0.224,0-0.224-0.293-0.224-0.518	c0-0.828,1.19-9.021,1.19-10.607c0-0.259-0.052-0.259-0.207-0.259c-1.19,0.035-2.519,0.311-3.743,0.742l0.155,0.5	c0.604-0.189,0.845-0.241,1-0.241c0.207,0,0.207,0.172,0.207,0.362c0,0.569-0.017,1.362-0.259,3.242h-0.621	c-2.984,0-5.123,2.812-5.123,5.52c0,0.771,0.271,1.655,0.886,2.09h1.95C34.106,13.104,34.909,11.922,35.378,10.985z M35.619,6.673	c0.086,0,0.19,0.018,0.276,0.052c-0.225,1.604-0.362,2.587-0.776,3.656c-0.224,0.587-0.897,1.88-1.656,1.88	c-0.552,0-0.638-0.914-0.638-1.293C32.825,9.433,33.722,6.673,35.619,6.673z"/><polygon points="37.31,13.627 35.386,13.627 33.074,13.627 31.124,13.627 26.413,13.627 23.152,13.627 17.789,13.627 14.529,13.627	11.83,13.627 11.83,17.736 39.287,17.736 39.287,13.627 "/><path style="fill:#FFFFFF;" d="M13.484,14.572h0.651l0.871,1.299h0.006v-1.299h0.538v2.448h-0.525l-0.998-1.386h-0.006v1.386h-0.538	V14.572z"/><path style="fill:#FFFFFF;" d="M17.136,14.572h1.842v0.505h-1.143v0.444h0.732v0.505h-0.732v0.47h1.179v0.524h-1.878V14.572z"/><path style="fill:#FFFFFF;" d="M20.999,15.058h-0.673v-0.486h2.046v0.486h-0.673v1.962h-0.7V15.058z"/><path style="fill:#FFFFFF;" d="M23.61,14.572h0.693l0.337,1.309h0.006l0.347-1.309h0.583l0.334,1.309h0.006l0.343-1.309h0.55	l-0.651,2.448H25.56l-0.346-1.305h-0.007l-0.346,1.305h-0.599L23.61,14.572z"/><path style="fill:#FFFFFF;" d="M29.254,17.065c-0.729,0-1.169-0.488-1.169-1.269s0.44-1.269,1.169-1.269	c0.729,0,1.169,0.488,1.169,1.269S29.982,17.065,29.254,17.065z M28.823,15.796c0,0.658,0.191,0.784,0.431,0.784	c0.236,0,0.431-0.126,0.431-0.784c0-0.622-0.159-0.784-0.431-0.784C28.972,15.013,28.823,15.204,28.823,15.796z"/><path style="fill:#FFFFFF;" d="M31.892,14.572h1.172c0.816,0,0.975,0.389,0.975,0.706c0,0.305-0.191,0.508-0.463,0.615l0.457,1.127	h-0.777l-0.347-1.004h-0.317v1.004h-0.699V14.572z M32.591,15.55h0.363c0.201,0,0.347-0.087,0.347-0.246	c0-0.156-0.101-0.265-0.317-0.265h-0.392V15.55z"/><path style="fill:#FFFFFF;" d="M35.576,14.572h0.699v0.981h0.006l0.716-0.981h0.667l-0.602,0.81l0.761,1.639h-0.748l-0.482-1.046	l-0.317,0.424v0.622h-0.699V14.572z"/><path d="M40.585,16.654v0.129h-0.364v0.947h-0.146v-0.947h-0.364v-0.129H40.585z"/><path d="M40.924,16.654c0,0,0.273,0.808,0.308,0.91h0.003l0.306-0.91h0.207v1.076h-0.141v-0.688l0.003-0.214l-0.003-0.002	l-0.303,0.904H41.16l-0.303-0.902l-0.003-0.002l0.003,0.264v0.641h-0.141v-1.076H40.924z"/></svg>