<?xml version="1.0" encoding="utf-8"?>
<!-- Generator: Adobe Illustrator 18.1.1, SVG Export Plug-In . SVG Version: 6.00 Build 0)  -->
<svg version="1.1"
	 id="svg2985" xmlns:dc="http://purl.org/dc/elements/1.1/" xmlns:cc="http://creativecommons.org/ns#" xmlns:rdf="http://www.w3.org/1999/02/22-rdf-syntax-ns#" xmlns:svg="http://www.w3.org/2000/svg" xmlns:sodipodi="http://sodipodi.sourceforge.net/DTD/sodipodi-0.dtd" xmlns:inkscape="http://www.inkscape.org/namespaces/inkscape" sodipodi:docname="Forbes-logo.svg" inkscape:version="0.48.4 r9939"
	 xmlns="http://www.w3.org/2000/svg" xmlns:xlink="http://www.w3.org/1999/xlink" x="0px" y="0px" viewBox="448.1 -129 1371.7 512"
	 enable-background="new 448.1 -129 1371.7 512" xml:space="preserve">
<sodipodi:namedview  inkscape:cy="170.72431" inkscape:cx="685.02581" inkscape:zoom="0.88622754" fit-margin-top="0" fit-margin-left="0" showgrid="false" guidetolerance="10" gridtolerance="10" objecttolerance="10" borderopacity="1" pagecolor="#ffffff" bordercolor="#666666" id="namedview2987" inkscape:current-layer="svg2985" inkscape:window-maximized="1" inkscape:window-y="-8" inkscape:window-x="-8" fit-margin-right="0" fit-margin-bottom="0" inkscape:window-height="877" inkscape:window-width="1440" inkscape:pageshadow="2" inkscape:pageopacity="0">
	</sodipodi:namedview>
<image overflow="visible" enable-background="new    " width="1503" height="561" id="image2993" xlink:href="C15388CE0583E7C5.png"  transform="matrix(0.9127 0 0 0.9127 448.0798 -128.9795)">
</image>
<path id="path2995" inkscape:connector-curvature="0" fill="#33629A" d="M812.7,292.6c-22.1-3.2-41.5-12.6-56.3-27.2
	c-12.3-12.2-20.3-25.6-26.2-44c-9.2-28.7-9.2-65.7,0-93.8c8.9-27.3,29-51,53.5-63.3c34-17.1,81.9-16,113.4,2.5
	c28.3,16.7,45.5,46.3,50.3,86.8c1.5,12.4,0.5,38.5-1.8,49.3c-9.4,44.1-36.8,75-76.9,86.6c-4.3,1.3-11,2.7-14.9,3.3
	C845.6,293.7,820.6,293.7,812.7,292.6L812.7,292.6z M860.6,289.2c16.2-3.8,29.1-9.6,40.6-18.2c28.1-21,43.4-53.1,44.9-93.8
	c1.4-40.1-10.7-74.3-34.1-96.3c-19-17.9-42.9-26.5-73.8-26.5c-32.8,0-59.2,10.2-79.5,30.6c-21.7,21.9-33.3,52.4-33.3,88.3
	c0,37.2,10.4,67.2,30.6,88.2c11.1,11.6,21.9,18.5,37.4,24.1c5.5,2,9.5,2.9,24.2,5.6c1.3,0.2,9.7,0.3,18.7,0.1
	C848.6,291.1,854.8,290.5,860.6,289.2z M826,276.2c-15-6.8-25.6-27.5-30.9-60.2c-3.4-20.7-3.7-66.8-0.6-89.4
	c4.3-31.7,13.5-50.5,27.7-56.8c9.7-4.3,23.2-1.8,31.9,6.1c19.3,17.4,29,67,24.8,126.3c-3,42.6-12.3,65.7-29.5,73.7
	C843.1,278.8,832,278.9,826,276.2z M845.8,274.8c6.5-1.9,14.4-9.4,18.7-17.5c8.8-16.8,12.7-41.6,12.8-81c0.1-49.4-7.6-80.8-24-97.3
	c-6.9-6.9-11.7-9.1-20.5-9c-19.5,0-31.8,20.4-36.7,60.4c-2.2,18.4-2.3,62.2,0,78.3C803,258.5,820.9,282.2,845.8,274.8L845.8,274.8z
	 M1204.7,292.6c-9.1-0.9-36.7-5.5-46.4-7.7l-6.7-1.5l0.5-35.7c1.3-86,1.4-132.9,0.6-178.5c-0.8-44.7-1-49.4-2.8-56
	c-2.2-8.4-5.3-14.2-9.1-16.9c-1.5-1-5.5-2.5-8.9-3.3c-11.4-2.6-10.7-2.1-11-7.3c-0.2-3,0.1-5,0.9-5.6c1-0.8,94.2-18.6,97.2-18.5
	c0.9,0,1,11.9,0.5,53c-0.3,29.1-0.4,52.9-0.1,52.9c0.3,0,3.7-1.5,7.6-3.3c11.8-5.4,22.6-7.8,38.3-8.3c10.5-0.4,15.3-0.1,20.7,1
	c35.2,7.3,61.2,36.1,70.3,77.7c2.4,10.9,3.3,37.9,1.7,51.4c-1.3,11.5-5.2,27.1-9.2,37.2c-15,38.1-47.3,62.9-90.1,69.3
	C1248.9,293.7,1218,293.9,1204.7,292.6L1204.7,292.6z M1256.2,290.4c27.7-4.2,48.1-13.7,65.3-30.6c24.9-24.4,36.9-58.9,35.3-101.3
	c-0.8-21.9-4.4-36.1-13.5-53.8c-12.3-24-33.3-40.8-57.1-45.8c-17.9-3.7-40.9-0.8-58.4,7.4c-4.4,2-8.5,3.7-9.3,3.7
	c-1.2,0-1.3-6.8-1-53.2l0.3-53.2l-3.7,0.7c-2,0.4-22.6,4.2-45.6,8.5c-23.1,4.3-42.9,8-44,8.2c-1.7,0.4-2,1-1.8,3.9
	c0.2,3.2,0.5,3.5,3.8,4.2c11.6,2.5,13.6,3.5,17.9,7.9c5.3,5.4,7.6,12.4,9.2,26.9c1.2,11.6,1.5,210.7,0.3,240.1l-0.7,17.4l9.4,2
	C1198.5,291.1,1234,293.7,1256.2,290.4L1256.2,290.4z M1223.7,276.5c-1.8-0.2-3.8-0.9-4.4-1.6c-1.6-1.9-3.3-125.8-2.2-162l0.8-28.7
	l7.3-2.1c10.8-3.1,22.4-2.6,30.6,1.3c16.5,7.8,27.4,27.2,33,58.8c1.8,10.3,1.6,46.1-0.4,58.8c-4.2,26.6-11.8,47.1-22.5,60.4
	c-5.2,6.4-13.7,12.5-20.4,14.5C1241.2,277.1,1231.9,277.4,1223.7,276.5z M1241.2,274.4c6.6-1.3,11.8-3.9,17.3-8.9
	c13.9-12.5,24.3-38.2,28.4-70.1c1.7-13,1.4-42.6-0.4-53.4c-5-29.3-15.8-48.6-31.4-56.3c-6.5-3.2-7.5-3.4-15.2-3.4
	c-5.5,0-10.3,0.6-14.3,1.8l-6,1.8l-0.4,33.4c-0.6,42.7,0.8,149.7,2,152.8c0.7,2,1.6,2.4,5.3,2.7
	C1235,275.3,1236.4,275.3,1241.2,274.4L1241.2,274.4z M1467.1,292.1c-45.3-8.2-77.7-40.3-88.2-87.5c-1.4-6.1-2-12.9-2.3-26
	c-0.5-20.8,1.2-33.7,6.5-49.8c10.3-30.8,28.8-52.6,55.6-65.7c28.3-13.8,67-14.7,92.1-2.2c28.2,14.1,44.8,42.4,49,83.4
	c0.6,5.5,0.9,12.1,0.7,14.6l-0.3,4.6l-67.5,0.2l-67.5,0.2l0.3,8c0.6,18.5,4.6,34.8,11.9,49c3.3,6.5,6,10,12.5,16.5
	c14.6,14.7,29.1,20.4,52,20.4c16.6,0,28.6-3.3,41-11.4c3.5-2.3,7-4.1,7.9-4.1c1.9,0,6.3,5.7,6.3,8.1c0,4-13.1,17-25.9,25.6
	c-10.5,7.1-27,13.5-41.4,16C1499.7,293.9,1477,293.9,1467.1,292.1L1467.1,292.1z M1507.6,290.3c21.1-3.4,42-13.6,56.9-27.8
	c8.2-7.8,10.9-11.5,9.8-13.5c-3-5.2-2.9-5.2-10.7-0.5c-12.4,7.6-18.6,9.7-33.1,11.2c-17,1.7-32.6-1.1-47.1-8.5
	c-9.6-4.9-21.1-16.3-26.8-26.5c-7.8-13.9-12.1-30.2-13.4-51.1c-0.5-8.8-0.4-11,0.6-11.6c0.7-0.4,31.1-0.8,68.1-0.8l66.9,0v-2.6
	c0-6-2-22.1-3.7-30.6c-7.1-34-25.8-58.3-52.6-68c-10.6-3.9-20.7-5.5-34-5.5c-31.4,0-57.1,10.3-77,30.9c-15.8,16.4-25.2,34.9-31,60.8
	c-1.7,7.8-2,11.9-2,28.3c0,16.3,0.3,20.5,2,28c10.6,47.9,42.1,79.4,87.4,87.5C1479.4,292,1496.3,292.2,1507.6,290.3z M1443.5,145.9
	c-0.7-1.1,1-17.4,2.7-25.8c4.1-20.3,10.6-34.9,19.5-43.9c4.8-4.9,7-6.4,10.9-7.5c2.7-0.8,5.8-1.5,6.8-1.5c4.2,0,9.1,2.1,12.8,5.5
	c9.9,9.1,15.5,28.6,16.6,57.6l0.6,14.3l-9.5,0.5C1484.9,146.2,1444,146.8,1443.5,145.9L1443.5,145.9z M1495.7,143.3l15.9-0.6
	l-0.6-11.3c-2-39.8-11.7-61.5-27.5-61.5c-17.2,0-30.9,22.1-36.6,58.8c-0.7,4.5-1.3,9.9-1.3,11.9l0,3.7l17.1-0.3
	C1472.1,144,1487,143.6,1495.7,143.3L1495.7,143.3z M1649.6,293c-16.3-1.7-42.1-7.4-50.8-11.1l-4.2-1.8l-0.6-20.9
	c-0.3-11.5-0.7-26.8-0.8-34.1l-0.2-13.2l2.5-1.2c1.4-0.7,4.2-1.3,6.2-1.4l3.7-0.2l3.2,7.8c12.3,30.3,26.7,46.6,45.6,51.5
	c7.2,1.9,20.7,1.9,26,0c14.9-5.3,23.1-16.5,23.1-32c0.1-18.3-9.9-27-47.9-41.8c-23.5-9.2-31.7-13.9-41.4-23.9
	c-10.5-10.8-15.6-23-16.5-40.1c-1.1-20.6,5.3-38,19.6-52.8c14.4-14.9,33.1-23,58.6-25.3c22.4-2,56.8,2.7,74.9,10.3l3.3,1.4l0.6,18.6
	c0.3,10.2,0.7,23.9,0.7,30.4l0.2,11.9l-4.4,1.6c-7,2.6-7.4,2.3-11.3-8c-10.9-28.9-23.5-42.5-43.3-46.7c-12-2.5-22.1,0.2-29.4,8
	c-5.7,6.1-7.9,11.5-8.5,20.6c-0.6,9.8,1.2,15.1,7.2,21.7c7.4,8.1,19.5,15.1,43.7,25.2c29.6,12.4,43.7,22.9,51.4,38.2
	c5,10,6.4,17.9,5.9,33.3c-0.4,11.5-0.7,13.9-3.4,21.6c-8.5,25.2-27.8,41.7-57.5,49.5c-10.1,2.6-11.5,2.8-31.5,3
	C1662.7,293.3,1651.6,293.2,1649.6,293z M1692.9,290.4c38.8-5.9,63.8-26.7,70.4-58.5c3.2-15.3,1.7-32.4-3.8-43.8
	c-7.7-16-20.7-25.6-52.9-39.2c-23.9-10.1-38.2-18.7-44.1-26.4c-4.8-6.4-6.4-11.2-6.4-19.7c0.1-12.8,4.9-22.6,14.2-28.7
	c7.7-5.1,17.5-6.4,28.8-3.7c13.7,3.2,23.9,11.6,33.2,27.1c3,4.9,9,18.8,12,27.3c0.5,1.3,1,1.4,4.2,0.4c2-0.6,3.9-1.4,4.3-1.7
	c0.3-0.3,0.3-13.4-0.1-29.1l-0.7-28.4l-3.3-1.4c-5.6-2.4-20.2-6.3-29.8-8.1c-7.2-1.3-13.6-1.7-30.6-1.7c-20.3,0-21.9,0.2-30.3,2.4
	c-24.3,6.6-42.4,20.3-51.8,39.4c-5,10.1-6.7,18-6.7,30.2c0.1,17.4,4.8,30.2,15.3,41.4c9,9.6,20.7,16.5,40.6,23.9
	c15.7,5.8,31.9,13.9,38,19c3.6,3,6.4,6.4,8.6,10.3c3,5.5,3.2,6.3,3.2,15c0,8.4-0.2,9.6-2.9,15.2c-6.9,14.6-20.8,21.9-39,20.4
	c-24.7-2-42.1-18.3-56.2-52.8c-3.7-9-3.9-9.2-9.6-7l-2.6,1l0.6,32.1c0.6,28.5,0.8,32.3,2.2,33.3c4.1,3.1,30.3,9.3,48.5,11.5
	C1660.5,292,1682.2,292.1,1692.9,290.4L1692.9,290.4z M498.5,287.5c-0.8-0.3-1.1-2.6-1.1-6.8c0-7.6-0.5-7.2,14.1-9.9
	c11.2-2.1,15.2-4.2,20.2-10.7c9.6-12.6,11.7-36.8,11.7-136.7c0-93.8-1.8-113.5-11.7-128c-4.4-6.4-11.8-9.9-24.3-11.4l-9.6-1.1
	l-0.3-7.5l-0.3-7.5l3-0.5c1.7-0.3,59.7-0.4,128.9-0.3l125.9,0.3l0.6,3.7c0.3,2,0.9,22.6,1.2,45.8l0.6,42.1l-6.5,2
	c-9.8,3-9.7,3-14.1-8.6c-10.8-28.6-23.2-45-40.1-53.4c-11.7-5.7-17.1-6.4-50.1-6.4H618l-0.5,4.8c-0.9,9-2.4,66.8-2.4,94l0,27.2
	l8.4,0c4.6,0,13.8-0.4,20.3-0.8c9.8-0.6,12.8-1.1,16.9-3c10.1-4.7,17-15,21.2-31.8l2.2-8.7l7.4-0.3l7.4-0.3v54.8v54.8l-7.5-0.3
	l-7.5-0.3L682,174c-4-16.3-11.6-28-21.1-32.1c-4.4-1.9-15.2-3-36.1-3.7l-9.8-0.3v20.6c0,22.4,1.2,52.8,2.8,69.3
	c2.2,23,8.1,35.7,18.6,40.3c2,0.9,8.4,2.3,14.2,3.2c5.8,0.9,11.2,1.9,12.1,2.4c2.2,1.1,2.4,13.1,0.2,13.9
	C661.2,288.2,500.1,288.2,498.5,287.5L498.5,287.5z M662.6,280.3c0-2.8-0.2-5-0.5-5c-4.3,0-24.6-4.4-27.9-6
	c-11.6-5.8-16.9-19.7-19-49.3c-1.5-21-2.9-82.7-2-83.7c0.9-0.9,39.5,0.7,44,1.8c12.5,3,22.1,15.3,26.9,34.3l2.1,8.4l5.6,0.3l5.6,0.3
	v-53v-53h-5.9c-5.5,0-5.9,0.1-5.9,2.1c0,3.5-3.5,14.4-6.7,21.3c-5.1,10.8-12.4,17.3-21.6,19.5c-2.3,0.5-12.9,1.4-23.7,1.9
	c-15.2,0.7-19.8,0.7-20.3-0.2c-1.1-1.6,1.4-121.8,2.6-127.3l0.5-2.1l33.5,0.3L683.1-9l7.8,2.8c18.1,6.5,31.1,19.7,41.9,42.6
	c2.4,5.2,5.6,12.6,6.9,16.7c1.4,4,2.6,7.4,2.7,7.6c0.1,0.2,3.1-0.6,6.7-1.7l6.5-2l-0.5-29.8c-0.2-16.4-0.7-36.1-1-43.7l-0.5-13.9
	H626.4H499.1l0.3,5.7l0.3,5.7l8.2,1c11,1.4,15,2.6,19.4,5.8c6.7,4.8,10.8,12,13.4,23.2c4,17.4,5.5,56.7,4.8,130.2
	c-0.7,77.7-1.7,93.8-6.6,109.5c-4.1,12.9-11.7,19.7-24.2,21.8c-3.4,0.6-8.3,1.5-10.8,2l-4.6,1v4.9v4.9h81.7h81.7L662.6,280.3
	L662.6,280.3z M948.4,287.3c-0.8-0.5-1.1-2.6-0.9-7.1l0.3-6.3l3.2-0.7c1.8-0.4,5.5-1.1,8.4-1.7c8.8-1.7,13.9-6.4,16.8-15.8
	c2.3-7.7,3.4-32.1,3.4-81.3c0.1-60.1-1.2-74.3-7.3-82.4c-3.3-4.4-5.7-5.6-13.7-7.1c-3.9-0.8-8.1-1.6-9.2-1.8c-1.8-0.4-2.1-1-2.1-5.4
	c0-4.3,0.3-5.1,2.1-5.9c2.7-1.1,93.1-19.2,96-19.2h2.3l-0.4,13.5c-0.2,7.4-0.6,18.2-0.9,24l-0.4,10.5l3.3-5.9
	c10.5-18.9,22.2-30.6,37.9-37.8c8.6-3.9,14.3-5.1,24.9-5.1c12.6,0,25.2,4.1,25.2,8.2c0,2.8-22.2,61.3-23.4,61.8
	c-0.6,0.2-4.9-1.4-9.6-3.7c-9.8-4.7-19-7-27.9-7c-11.1,0-23.5,4.1-28.4,9.4c-2.1,2.2-2.1,2.4-2.6,35.9c-0.5,33.2,0.6,73.7,2.5,90
	c1.6,13.9,5.3,20.7,12.9,23.9c2.5,1.1,18.6,3.3,23.9,3.3c0.4,0,0.6,3.2,0.5,7.1l-0.3,7.1l-67.5,0.2C980,288,949.1,287.7,948.4,287.3
	L948.4,287.3z M1083.3,280.4v-4.9l-7.1-0.6c-16.3-1.4-20.8-3-25.1-9.2c-6.2-8.9-7.6-25.4-7.6-92.3v-52.2l2.3-2.4
	c2.9-3,11.8-7.3,18.1-8.6c12.8-2.7,29.2-0.4,42,5.9c3.7,1.8,6.8,3.1,7,2.9c0.4-0.4,21.4-56,22.1-58.3c0.3-1.1-0.9-2-4.5-3.4
	c-7.6-3-14.1-4.1-22.6-3.6c-22.7,1.3-42.8,16.4-57.3,42.9c-2.4,4.4-4.9,8-5.5,8c-0.9,0-1-5-0.5-25.1l0.6-25.2l-2.2,0.5
	c-1.2,0.3-19.4,4-40.5,8.2c-45.2,9.1-51.5,10.4-52.6,11.1c-0.4,0.3-0.8,1.9-0.8,3.6c0,3.4-0.4,3.2,9.9,4.9
	c14.1,2.3,19.1,9.2,21.2,29.3c2.7,26.2,1.6,128.6-1.5,142.5c-1.6,7.1-5.8,14-10,16.5c-1.6,0.9-6.5,2.4-11,3.2l-8.1,1.6l-0.3,4.8
	l-0.3,4.8h67.1h67.1V280.4L1083.3,280.4z"/>
</svg>
