<?xml version="1.0" encoding="UTF-8" standalone="no"?>
<svg width="4440px" height="512px" viewBox="0 0 4440 512" version="1.1" xmlns="http://www.w3.org/2000/svg" xmlns:xlink="http://www.w3.org/1999/xlink">
    <!-- Generator: Sketch 3.6.1 (26313) - http://www.bohemiancoding.com/sketch -->
    <title>fortinet</title>
    <desc>Created with Sketch.</desc>
    <defs></defs>
    <g id="Page-1" stroke="none" stroke-width="1" fill="none" fill-rule="evenodd">
        <g id="fortinet">
            <path d="M554.456781,5.75685172 L554.456781,117.655657 L122.692902,117.655657 L122.692902,202.56922 L494.009838,202.56922 L494.009838,311.229796 L122.692902,311.229796 L122.692902,508.042164 L0,508.042164 L0,5.75685172 L554.456781,5.75685172 L554.456781,5.75685172 Z M1652.21644,5.75685172 L1747.9241,5.75685172 L1795.77793,5.75685172 L1801.17498,6.11665495 L1808.37105,6.11665495 L1813.7681,6.47645819 L1817.00632,6.47645819 L1822.40337,6.83626142 L1823.84259,6.83626142 L1827.44062,7.16368236 L1854.42586,9.61394238 C1884.86162,13.582572 1919.69057,22.0451441 1941.07727,45.6950105 C1954.67424,60.7275896 1962.49996,81.6645397 1967.3573,101.104708 C1970.55235,113.888517 1972.63202,126.86662 1973.9417,139.963457 L1974.63252,148.598735 L1974.95994,152.196767 L1975.31975,159.752635 L1975.31975,177.742797 L1974.95994,185.298665 L1974.63252,188.896697 L1973.5783,200.410401 C1972.26142,212.751651 1969.57009,226.388194 1965.72379,238.18974 C1961.58606,250.88 1955.92635,263.084526 1947.39542,273.450457 C1944.6825,276.742656 1941.59539,279.782994 1938.26001,282.445538 C1937.35331,283.165144 1934.52885,284.906592 1934.52885,286.057962 C1934.52885,287.533155 1938.8429,288.619761 1940.05903,289.202642 C1945.09628,291.624118 1949.9932,295.823022 1953.57324,300.075896 C1962.55753,310.740464 1968.22443,326.176022 1969.23547,340.014055 L1969.5629,344.331694 L1969.5629,363.401265 L1969.21748,367.718904 L1969.21748,372.756149 L1968.84329,378.513001 L1968.84329,508.042164 L1847.9494,508.042164 L1847.9494,463.426564 L1848.30921,458.029515 L1848.30921,374.195362 L1848.30921,355.845397 L1848.66901,350.448349 L1848.66901,342.532677 C1848.61144,337.797667 1847.42049,332.375432 1845.29765,328.140548 C1840.52666,318.623753 1829.89448,311.60759 1819.16514,311.589599 L1748.28391,311.589599 L1742.88686,311.229796 L1537.07941,311.229796 L1537.07941,508.042164 L1412.94729,508.042164 L1412.94729,5.75685172 L1652.21644,5.75685172 L1652.21644,5.75685172 Z M2497.39424,5.75685172 L2497.39424,117.655657 L2276.11525,117.655657 L2276.11525,508.042164 L2151.98313,508.042164 L2151.98313,117.655657 L2036.12649,117.655657 L2036.12649,5.75685172 L2497.39424,5.75685172 L2497.39424,5.75685172 Z M2680.17428,5.75685172 L2680.17428,508.042164 L2556.04216,508.042164 L2556.04216,5.75685172 L2680.17428,5.75685172 L2680.17428,5.75685172 Z M2883.46311,5.75685172 L2940.31202,5.75685172 L2945.70907,6.11665495 L3029.90302,6.11665495 L3068.40197,6.11665495 L3073.79902,6.47645819 L3173.82431,6.47645819 L3178.14195,6.82186929 L3182.45959,6.82186929 L3186.05762,7.16368236 C3192.22465,7.59544624 3198.33771,8.43018974 3204.40759,9.64272663 C3226.06415,13.9747576 3246.87517,22.926662 3264.85453,35.7752354 C3294.66423,57.0791848 3315.31334,87.147941 3325.09279,122.333099 C3327.66898,131.598032 3329.34207,141.172396 3330.0113,150.757554 L3330.33872,154.355587 L3330.69852,161.911455 L3330.69852,230.633872 L3330.69852,261.936753 L3331.05833,267.333802 L3331.05833,302.234715 L3331.05833,369.158117 L3331.05833,402.619817 L3331.41813,408.016866 L3331.41813,508.042164 L3207.28602,508.042164 L3207.28602,206.886859 L3207.28602,158.313422 C3207.28242,155.129164 3206.62038,152.00967 3205.74246,148.958538 C3202.15522,136.48416 3192.74277,125.646887 3180.66058,120.749965 C3176.30696,118.986929 3170.97827,117.662853 3166.26845,117.655657 L2894.61701,117.655657 L2894.61701,508.042164 L2770.12509,508.042164 L2770.12509,5.75685172 L2883.46311,5.75685172 L2883.46311,5.75685172 Z M3909.98173,5.75685172 L3909.98173,117.655657 L3538.66479,117.655657 L3538.66479,202.56922 L3795.9241,202.56922 L3795.9241,311.229796 L3538.66479,311.229796 L3538.66479,394.344343 L3911.78074,394.344343 L3911.78074,508.042164 L3414.53268,508.042164 L3414.53268,5.75685172 L3909.98173,5.75685172 L3909.98173,5.75685172 Z M4429.8974,5.75685172 L4429.8974,117.655657 L4207.1792,117.655657 L4207.1792,508.042164 L4084.4863,508.042164 L4084.4863,117.655657 L3968.98946,117.655657 L3968.98946,5.75685172 L4429.8974,5.75685172 L4429.8974,5.75685172 Z M1659.05271,202.929023 L1719.85945,202.929023 L1725.2565,203.288826 L1778.50738,203.288826 L1805.49262,203.288826 C1818.06774,203.288826 1829.2972,204.864765 1839.67393,195.984821 C1841.60967,194.326128 1843.35112,192.422769 1844.81192,190.33591 C1846.4958,187.932424 1847.87025,185.208714 1848.78774,182.420239 C1849.85996,179.167618 1850.46443,175.771075 1850.46803,172.345748 L1850.46803,155.7948 C1850.46803,151.344034 1850.66592,146.893268 1849.94991,142.48208 C1848.74817,135.073732 1844.45571,128.262656 1838.59452,123.653577 C1836.30617,121.854561 1833.74797,120.436936 1831.03865,119.386311 C1827.72486,118.101813 1824.16281,117.30305 1820.60436,117.295854 L1727.41532,117.295854 L1675.96346,117.295854 L1670.56641,117.655657 L1537.07941,117.655657 L1537.07941,202.929023 L1659.05271,202.929023 L1659.05271,202.929023 Z M4405.07098,414.748784 C4410.90339,416.400281 4416.06297,418.792973 4420.90232,422.495348 C4426.73833,426.960506 4431.70721,432.728152 4435.00301,439.319747 C4438.04694,445.407618 4439.18392,451.322783 4439.64447,458.029515 L4439.9611,461.267744 L4439.64447,464.505973 C4438.61903,479.430611 4432.39084,491.440843 4420.18271,500.428728 C4413.44,505.394013 4403.41948,509.107182 4394.99649,509.121574 L4387.80042,509.121574 C4384.0009,509.0748 4379.17234,507.923429 4375.56711,506.721687 C4362.77611,502.461616 4351.60062,491.897793 4346.80444,479.257906 C4344.97304,474.425748 4344.35418,470.669403 4343.84326,465.585383 L4343.54462,462.347154 C4343.48346,457.086831 4344.37937,450.052677 4346.09203,445.076599 C4350.63635,431.87182 4361.04545,421.023753 4374.1279,416.083654 C4379.25509,414.147913 4382.56888,413.950021 4387.80042,413.205228 C4392.56422,412.625945 4400.44031,413.4391 4405.07098,414.748784 L4405.07098,414.748784 Z M4366.21223,428.331356 C4358.588,434.548756 4353.25212,443.259592 4351.61501,452.99227 C4350.97456,456.816978 4351.05732,460.638089 4351.10049,464.505973 C4351.23362,475.681462 4357.60214,487.144793 4366.21223,494.009838 C4369.46485,496.60402 4372.73546,498.564947 4376.64652,500.011356 C4380.67992,501.50454 4386.0122,502.594743 4390.31904,502.645116 C4403.49504,502.796233 4414.51221,498.568545 4423.08992,488.252987 C4425.1516,485.773942 4427.12332,482.902713 4428.49777,479.977512 C4432.05982,472.396458 4432.50957,466.57844 4432.41602,458.389318 C4432.29369,448.059368 4427.38957,438.218749 4420.18271,431.044273 C4415.86507,426.748222 4410.57237,423.355278 4404.71117,421.588644 C4401.42977,420.602783 4397.70221,419.89397 4394.27688,419.940745 L4386.72101,419.940745 C4378.71179,421.167674 4372.62392,423.103415 4366.21223,428.331356 L4366.21223,428.331356 Z M4393.55727,433.562895 C4398.8032,433.562895 4403.77209,433.382994 4408.30921,436.599635 C4414.84323,441.2339 4415.46209,453.179368 4410.29892,459.076543 C4407.67595,462.073703 4403.52742,463.602867 4399.67393,464.14617 L4410.46803,480.337316 L4415.86507,488.972593 L4410.46803,488.972593 C4407.49245,488.915025 4407.31255,487.349881 4405.79058,485.014758 L4398.25271,473.141251 L4394.61869,467.384399 C4394.09338,466.549656 4393.23345,464.998904 4392.4023,464.513169 C4391.64672,464.070611 4390.45937,464.14617 4389.59944,464.14617 L4380.96416,464.14617 L4380.96416,488.972593 L4374.4877,488.972593 L4374.4877,433.562895 L4393.55727,433.562895 L4393.55727,433.562895 Z M4395.35629,458.389318 C4397.49352,458.364132 4401.06277,457.817231 4402.91216,456.75941 C4406.3159,454.816472 4406.90957,451.91286 4406.86999,448.314828 C4406.852,446.907997 4406.74766,445.652284 4406.1324,444.356992 C4405.42718,442.871005 4404.3046,441.777203 4402.91216,440.931665 C4400.90805,439.715531 4399.04427,439.542825 4396.7955,439.2226 L4380.96416,438.959944 L4380.96416,458.389318 L4395.35629,458.389318 L4395.35629,458.389318 Z" id="Selection" fill="#000000"></path>
            <path d="M675.34707,3.87508082 L682.172537,1.37804638 L684.406915,0.381391427 L692.981026,0.381391427 L709.172171,0.381391427 L811.716093,0.381391427 L811.716093,133.846803 L653.042867,133.846803 L609.866479,133.846803 C608.884216,133.846803 607.416219,134.055488 606.912495,133.022853 C606.282839,131.817512 606.772171,128.392186 606.912495,127.010541 L607.462994,121.253689 L607.462994,119.09487 C607.283092,117.162727 608.027885,115.093858 608.78707,113.338018 L607.70766,112.978215 L609.056922,109.052762 C609.355559,107.624343 608.031483,105.98364 610.226283,105.422347 L609.798117,103.11241 L610.316233,97.5678426 L611.08981,95.6752776 L612.44267,90.9294729 L614.457569,84.4422207 L615.983134,83.47435 L614.543921,83.1145467 L614.543921,82.3949403 C614.982881,82.0135488 616.069487,81.3695011 615.263528,80.9557273 L616.177428,77.357695 C616.634378,75.8968939 618.983893,70.3739143 619.94097,69.4420239 L619.221363,68.7224174 L621.020379,68.002811 L620.300773,66.9234013 L621.739986,66.563598 L621.020379,65.1243851 C622.265299,63.4513001 621.297428,62.6705271 623.539002,61.5263528 C623.197189,60.5332959 623.369895,60.5800703 624.258609,60.0871398 L624.618412,57.208714 L625.338018,55.7695011 L626.777231,55.4096978 L626.057625,54.6900914 L627.496838,54.3302881 L626.777231,53.2508784 C627.773886,51.5022347 628.641012,48.9476318 630.375264,47.8538299 L631.454673,46.414617 L631.814476,44.2557976 L633.253689,43.5361911 L632.534083,43.8959944 C633.257287,41.9926353 634.045257,40.7153338 635.772312,39.5783556 C635.196627,38.6320731 636.074547,38.2147013 636.851722,37.7793394 L637.931131,34.9009136 L639.010541,35.2607168 L639.010541,33.4617006 L640.449754,33.1018974 C640.831145,30.8099508 642.932396,29.2088264 644.400394,27.5213493 L646.940604,24.4666198 L654.122277,17.2705552 L654.841883,17.6303584 C655.63345,15.9752635 657.349712,14.359747 659.159522,14.0323261 L659.519325,12.9529164 L660.238932,13.3127196 C660.764245,12.1505552 660.73546,11.9598595 662.037948,11.8735067 L663.117358,11.1539002 L664.196767,10.4342937 L665.276177,9.71468728 L665.63598,8.63527758 L667.7948,8.27547435 L668.154603,7.19606465 L669.234013,7.55586788 C669.921237,5.8432045 670.410569,6.35772312 672.112439,5.39704849 L672.472242,6.11665495 L672.832045,6.11665495 L673.911455,4.31763879 L674.631061,4.67744202 L675.34707,3.87508082 L675.34707,3.87508082 Z M1065.01757,0.359803233 L1065.01757,133.846803 L912.101195,133.846803 L876.480675,133.846803 L868.565004,133.846803 C867.924554,133.843204 866.830752,133.907969 866.312635,133.490597 C865.549852,132.875334 865.686578,131.148278 865.686578,130.24877 L865.686578,0.359803233 L1065.01757,0.359803233 L1065.01757,0.359803233 Z M1214.69571,0.359803233 L1244.19958,0.359803233 C1245.10988,0.359803233 1246.06336,0.295038651 1246.92689,0.640449754 C1247.92354,1.04342937 1248.53881,1.98971188 1249.59663,1.43921293 L1251.75545,2.87842586 L1251.75545,2.1588194 C1253.63362,3.11229796 1253.95744,3.00075896 1255.35348,4.67744202 L1255.71328,3.59803233 L1256.43289,5.03724526 C1257.55907,4.64865777 1257.55907,5.09121574 1257.8721,6.11665495 L1258.95151,5.39704849 C1260.58142,6.63836964 1263.23677,7.17807449 1264.34856,8.99508082 L1266.50738,9.35488405 L1266.86718,10.794097 C1267.60478,10.3155587 1267.7415,11.2798313 1267.94659,11.8735067 C1268.19126,11.7511736 1268.16967,11.6108503 1268.62662,11.6036543 C1269.97588,11.578468 1273.84377,14.9858046 1274.42305,16.1911455 L1275.14266,15.8313422 L1275.14266,16.9107519 C1277.91314,17.4252706 1282.32073,22.707182 1284.30325,24.8875896 C1285.41864,26.1109206 1286.33973,26.7477723 1286.65636,28.4244554 C1288.81158,29.3311595 1288.81518,30.2990302 1290.0601,31.9721152 L1294.35615,37.3619677 L1296.37105,40.2979621 L1295.29164,40.6577653 L1296.60492,41.0211665 L1299.96908,45.6950105 L1299.24947,46.414617 C1301.07008,46.9327337 1301.12045,48.1740548 1302.1279,49.6528461 L1301.04849,49.2930429 L1302.4877,50.3724526 L1302.1279,51.4518623 L1302.84751,52.531272 C1304.84801,53.5675053 1306.39517,58.0722417 1307.52495,60.0871398 L1306.80534,61.1665495 L1308.60436,61.886156 L1307.88475,62.9655657 C1308.84543,63.3793394 1308.75188,63.3901335 1308.60436,64.4047786 L1310.04357,65.1243851 L1312.28514,71.0359522 L1313.2818,74.1194659 L1312.56219,74.8390724 L1312.56219,75.1988756 C1313.76753,75.6270415 1313.94384,75.8681096 1313.2818,76.9978918 C1315.19235,78.2176247 1314.9261,79.4625439 1315.62412,81.4162755 L1317.32959,86.6981869 L1318.14994,88.6123401 C1318.47376,89.7241321 1318.05999,90.040759 1319.03865,93.1890372 L1318.71843,93.9302319 L1320.02451,98.2406746 L1321.21546,104.443682 L1322.32006,107.94097 C1321.5033,108.696557 1322.11137,109.524104 1322.32006,110.46319 C1322.82378,112.197442 1322.66907,112.762333 1322.74462,114.417428 L1324.0759,122.333099 L1324.0759,133.846803 L1172.59874,133.846803 L1135.1792,133.846803 L1125.10471,133.846803 C1123.91016,133.843204 1123.06462,134.062684 1122.22628,133.127196 L1121.50668,133.127196 L1121.50668,133.846803 L1120.78707,133.846803 L1120.42727,133.127196 L1119.70766,133.846803 L1119.70766,119.09487 L1119.70766,89.5910049 L1119.70766,0.359803233 L1214.69571,0.359803233 L1214.69571,0.359803233 Z M675.350668,3.95783556 L675.710471,4.31763879 L675.710471,3.95783556 L675.350668,3.95783556 L675.350668,3.95783556 Z M1256.79269,5.39704849 L1257.15249,5.75685172 L1257.15249,5.39704849 L1256.79269,5.39704849 L1256.79269,5.39704849 Z M1266.86718,10.794097 L1267.22699,11.1539002 L1267.22699,10.794097 L1266.86718,10.794097 L1266.86718,10.794097 Z M658.080112,14.3921293 L658.439916,14.7519325 L658.439916,14.3921293 L658.080112,14.3921293 L658.080112,14.3921293 Z M1272.98384,15.1117358 L1273.34364,15.471539 L1273.34364,15.1117358 L1272.98384,15.1117358 L1272.98384,15.1117358 Z M1275.50246,16.9107519 L1275.86226,17.2705552 L1275.86226,16.9107519 L1275.50246,16.9107519 L1275.50246,16.9107519 Z M655.201687,17.2705552 L655.56149,17.6303584 L655.56149,17.2705552 L655.201687,17.2705552 L655.201687,17.2705552 Z M653.042867,18.7097681 L653.40267,19.0695713 L653.40267,18.7097681 L653.042867,18.7097681 L653.042867,18.7097681 Z M650.164441,21.588194 L650.524245,21.9479972 L650.524245,21.588194 L650.164441,21.588194 L650.164441,21.588194 Z M649.444835,22.3078004 L649.804638,22.6676037 L649.804638,22.3078004 L649.444835,22.3078004 L649.444835,22.3078004 Z M645.846803,25.9058327 L646.206606,26.265636 L646.206606,25.9058327 L645.846803,25.9058327 L645.846803,25.9058327 Z M643.687983,28.7842586 L644.047786,29.1440618 L644.047786,28.7842586 L643.687983,28.7842586 L643.687983,28.7842586 Z M1286.65636,28.7842586 L1287.01616,29.1440618 L1287.01616,28.7842586 L1286.65636,28.7842586 L1286.65636,28.7842586 Z M1289.53479,32.3822909 L1289.89459,32.7420942 L1289.89459,32.3822909 L1289.53479,32.3822909 L1289.53479,32.3822909 Z M1290.25439,33.1018974 L1290.6142,33.4617006 L1290.6142,33.1018974 L1290.25439,33.1018974 L1290.25439,33.1018974 Z M637.571328,36.3401265 L637.931131,36.6999297 L637.931131,36.3401265 L637.571328,36.3401265 L637.571328,36.3401265 Z M1296.73085,42.4567814 L1297.09065,42.8165847 L1297.09065,42.4567814 L1296.73085,42.4567814 L1296.73085,42.4567814 Z M1301.7681,50.7322558 L1302.1279,51.092059 L1302.1279,50.7322558 L1301.7681,50.7322558 L1301.7681,50.7322558 Z M1312.56219,73.7596627 L1312.922,74.1194659 L1312.922,73.7596627 L1312.56219,73.7596627 L1312.56219,73.7596627 Z M1312.922,76.2782853 L1313.2818,76.6380885 L1313.2818,76.2782853 L1312.922,76.2782853 L1312.922,76.2782853 Z M1318.31904,97.1468728 L1318.67885,97.506676 L1318.67885,97.1468728 L1318.31904,97.1468728 L1318.31904,97.1468728 Z M606.988053,132.767393 L607.347857,133.127196 L607.347857,132.767393 L606.988053,132.767393 L606.988053,132.767393 Z M866.046381,132.767393 L866.406184,133.127196 L866.406184,132.767393 L866.046381,132.767393 L866.046381,132.767393 Z M1122.22628,132.767393 L1122.58609,133.127196 L1122.58609,132.767393 L1122.22628,132.767393 L1122.22628,132.767393 Z M1144.89389,189.2565 L1189.14968,189.2565 L1324.0759,189.2565 L1324.0759,322.7435 L1119.70766,322.7435 L1119.70766,233.152495 L1119.70766,203.64863 L1119.70766,188.896697 L1144.89389,189.2565 L1144.89389,189.2565 Z M811.716093,189.2565 L811.716093,322.7435 L606.62825,322.7435 L606.62825,233.512298 L606.62825,204.008433 L606.62825,189.2565 L811.716093,189.2565 L811.716093,189.2565 Z M612.744905,377.433591 L629.295854,377.433591 L674.631061,377.433591 L811.716093,377.433591 L811.716093,511.640197 L710.611384,511.640197 L686.864371,511.640197 C681.535685,511.640197 682.777006,512.205088 677.973633,510.165004 C676.224989,509.423809 676.412087,509.967112 674.990864,508.401968 L674.631061,509.481377 C673.756739,508.499115 673.79272,508.423556 672.472242,508.401968 L672.112439,506.962755 L671.033029,507.682361 C669.478679,506.498609 668.834631,507.203823 667.7948,505.163739 C666.31241,505.717836 664.952354,504.609642 664.196767,503.364722 C662.635221,503.192017 662.502094,502.850204 661.678145,501.565706 L661.678145,502.285313 L661.318342,502.285313 L660.958538,501.925509 L661.678145,501.205903 C660.138187,501.155531 659.763992,501.274266 659.159522,499.76669 C657.547604,499.608377 656.806409,499.173015 656.281096,497.607871 C654.697962,497.312832 653.877611,496.388138 652.683064,495.351904 L645.951145,488.479663 C644.763795,487.234743 643.644807,486.410794 643.32818,484.654954 C641.770232,483.917358 640.737597,482.773183 640.449754,481.056922 C638.949375,480.466845 638.834238,479.833591 637.931131,478.538299 L639.010541,478.898103 L637.211525,478.178496 C636.574673,476.516205 634.757667,473.335545 633.253689,472.421644 L632.17428,470.262825 L632.893886,469.543219 L631.454673,469.183415 L632.534083,468.463809 L631.09487,468.463809 L631.454673,467.384399 L630.375264,467.024596 L630.735067,466.304989 C628.802923,465.049276 627.881827,462.106086 626.777231,460.188335 L627.137034,460.188335 L627.496838,459.468728 L626.057625,459.108925 L626.417428,458.029515 L624.978215,457.309909 L625.697822,456.590302 L624.258609,455.870696 L624.978215,455.151089 C623.470639,454.287561 623.175601,453.233338 623.179199,451.553057 C621.621251,450.765088 621.617653,449.009248 620.660576,447.595221 L621.739986,447.955025 L619.94097,445.796205 L621.020379,445.436402 L619.221363,443.997189 L619.94097,443.997189 L618.501757,442.557976 C618.904736,440.679803 616.976191,437.747407 616.263781,435.926803 C615.69889,434.48759 616.296163,434.440815 615.263528,432.483486 C615.695292,431.245762 615.486606,431.173802 614.543921,430.324666 L614.543921,429.60506 L615.623331,428.885453 C614.34603,428.140661 613.662403,427.798848 614.543921,426.366831 C612.989571,425.39896 612.784483,422.851553 612.399494,421.1209 L611.338074,417.015545 L610.244273,414.432157 L610.244273,410.909684 C609.949234,408.97754 609.704568,410.175685 609.916852,407.908925 C610.111145,405.886831 607.445004,404.318089 610.226283,403.339424 C609.287196,402.288798 608.286943,401.227379 608.258159,399.741391 C608.103443,398.672776 608.56759,398.190639 608.258159,396.862966 C608.150218,395.772762 607.552944,394.711342 607.355053,392.90513 C607.113985,390.677948 607.786817,390.904624 607.621307,389.274715 L606.642642,381.75123 L606.642642,377.433591 L612.744905,377.433591 L612.744905,377.433591 Z M871.803233,377.433591 L887.634575,377.433591 L931.890372,377.433591 L1065.01757,377.433591 L1065.01757,511.640197 L865.686578,511.640197 L865.686578,422.049192 L865.686578,392.185524 L865.686578,377.433591 L871.803233,377.433591 L871.803233,377.433591 Z M1127.26353,377.433591 L1140.57625,377.433591 L1184.11244,377.433591 L1324.0759,377.433591 L1324.0759,390.746311 C1324.0687,394.168039 1323.62254,393.495207 1323.08644,396.503162 C1322.53234,399.619058 1322.93532,399.734195 1322.72304,401.180604 L1321.99264,404.05903 L1321.76956,406.577653 L1321.16509,408.736472 C1320.72613,411.402614 1321.57526,410.218862 1319.75826,413.054111 L1320.83767,413.413914 L1318.67885,416.652143 C1320.15764,417.281799 1319.48121,418.033788 1318.31904,418.45116 L1319.03865,419.890372 L1318.23269,424.146845 L1316.07387,430.684469 L1315.08082,432.123682 L1315.44062,432.123682 L1315.80042,432.843289 L1314.00141,434.642305 C1315.16717,435.250372 1313.96543,435.883626 1313.2818,436.441321 L1314.36121,436.801124 L1312.56219,437.880534 L1313.2818,439.319747 C1312.40028,440.989234 1312.83924,440.751764 1312.39309,442.090232 L1311.51517,443.799297 C1310.39618,446.346704 1309.66578,449.275502 1307.52495,451.193254 L1308.60436,451.553057 L1306.80534,452.272663 L1307.52495,453.352073 C1306.52469,454.694139 1306.44194,456.806184 1304.64652,458.029515 L1305.00632,459.108925 L1303.92691,459.468728 C1303.85495,460.56253 1303.88014,460.522952 1302.84751,460.907941 L1302.1279,462.347154 C1302.53088,463.520112 1301.86164,463.678426 1301.04849,464.505973 L1302.1279,464.505973 L1299.60928,467.384399 L1298.52987,470.622628 L1297.45046,470.982431 L1296.73085,472.061841 L1295.65144,473.501054 C1296.38184,474.56967 1293.38468,477.681968 1292.41321,478.178496 C1292.22252,479.491778 1292.11817,479.660885 1290.974,480.337316 C1290.66097,482.075165 1289.64273,483.140183 1288.09557,483.935348 C1287.76455,485.917864 1286.27497,487.407449 1284.49754,488.252987 L1284.85734,488.972593 L1277.30148,496.528461 L1276.58187,496.168658 C1274.95916,499.572396 1271.54103,499.942994 1270.10541,502.285313 L1268.30639,502.645116 L1267.94659,503.724526 L1267.22699,503.364722 C1265.38119,505.969698 1260.52025,507.113872 1260.16405,507.326156 C1259.63154,507.639185 1259.06305,508.326409 1258.59171,508.761771 L1258.2319,507.322558 C1257.77855,509.359044 1257.09133,509.233113 1255.35348,510.200984 L1249.95643,511.640197 L1219.37316,511.640197 L1119.70766,511.640197 L1119.70766,422.408995 L1119.70766,392.545327 L1119.70766,377.793394 L1127.26353,377.433591 L1127.26353,377.433591 Z M1121.86648,377.793394 L1122.22628,378.153197 L1122.22628,377.793394 L1121.86648,377.793394 L1121.86648,377.793394 Z M609.866479,402.260014 L610.226283,402.619817 L610.226283,402.260014 L609.866479,402.260014 L609.866479,402.260014 Z M625.697822,456.950105 L626.057625,457.309909 L626.057625,456.950105 L625.697822,456.950105 L625.697822,456.950105 Z M1301.40829,462.706957 L1301.7681,463.06676 L1301.7681,462.706957 L1301.40829,462.706957 L1301.40829,462.706957 Z M632.893886,469.903022 L633.253689,470.262825 L633.253689,469.903022 L632.893886,469.903022 L632.893886,469.903022 Z M1295.29164,473.501054 L1295.65144,473.860857 L1295.65144,473.501054 L1295.29164,473.501054 L1295.29164,473.501054 Z M1289.53479,481.416725 L1289.89459,481.776528 L1289.89459,481.416725 L1289.53479,481.416725 L1289.53479,481.416725 Z M642.968377,483.935348 L643.32818,484.295151 L643.32818,483.935348 L642.968377,483.935348 L642.968377,483.935348 Z M643.687983,483.935348 L644.047786,484.295151 L644.047786,483.935348 L643.687983,483.935348 L643.687983,483.935348 Z M643.687983,484.654954 L644.047786,485.014758 L644.047786,484.654954 L643.687983,484.654954 L643.687983,484.654954 Z M643.687983,485.374561 L644.047786,485.734364 L644.047786,485.374561 L643.687983,485.374561 L643.687983,485.374561 Z M648.005622,489.6922 L648.365425,490.052003 L648.365425,489.6922 L648.005622,489.6922 L648.005622,489.6922 Z M648.725228,489.6922 L649.085032,490.052003 L649.085032,489.6922 L648.725228,489.6922 L648.725228,489.6922 Z M650.164441,489.6922 L650.524245,490.052003 L650.524245,489.6922 L650.164441,489.6922 L650.164441,489.6922 Z M648.725228,490.411806 L649.085032,490.771609 L649.085032,490.411806 L648.725228,490.411806 L648.725228,490.411806 Z M650.164441,490.411806 L650.524245,490.771609 L650.524245,490.411806 L650.164441,490.411806 L650.164441,490.411806 Z M1282.33872,490.411806 L1282.69852,490.771609 L1282.69852,490.411806 L1282.33872,490.411806 L1282.33872,490.411806 Z M649.444835,491.131413 L649.804638,491.491216 L649.804638,491.131413 L649.444835,491.131413 L649.444835,491.131413 Z M650.164441,491.131413 L650.524245,491.491216 L650.524245,491.131413 L650.164441,491.131413 L650.164441,491.131413 Z M1281.61911,491.131413 L1281.97892,491.491216 L1281.97892,491.131413 L1281.61911,491.131413 L1281.61911,491.131413 Z M650.164441,491.851019 L650.524245,492.210822 L650.524245,491.851019 L650.164441,491.851019 L650.164441,491.851019 Z M1279.4603,493.290232 L1279.8201,493.650035 L1279.8201,493.290232 L1279.4603,493.290232 L1279.4603,493.290232 Z M1278.74069,494.009838 L1279.10049,494.369642 L1279.10049,494.009838 L1278.74069,494.009838 L1278.74069,494.009838 Z M653.762474,495.449051 L654.122277,495.808855 L654.122277,495.449051 L653.762474,495.449051 L653.762474,495.449051 Z M1275.86226,496.168658 L1276.22207,496.528461 L1276.22207,496.168658 L1275.86226,496.168658 L1275.86226,496.168658 Z M655.201687,496.888264 L655.56149,497.248067 L655.56149,496.888264 L655.201687,496.888264 L655.201687,496.888264 Z M655.921293,496.888264 L656.281096,497.248067 L656.281096,496.888264 L655.921293,496.888264 L655.921293,496.888264 Z M1272.98384,499.047084 L1273.34364,499.406887 L1273.34364,499.047084 L1272.98384,499.047084 L1272.98384,499.047084 Z M1269.3858,501.205903 L1269.74561,501.565706 L1269.74561,501.205903 L1269.3858,501.205903 L1269.3858,501.205903 Z M1268.6662,501.925509 L1269.026,502.285313 L1269.026,501.925509 L1268.6662,501.925509 L1268.6662,501.925509 Z M1256.43289,508.401968 L1256.79269,508.761771 L1256.79269,508.401968 L1256.43289,508.401968 L1256.43289,508.401968 Z" id="Selection-#1" fill="#E6171C"></path>
        </g>
    </g>
</svg>