<?xml version="1.0" encoding="UTF-8" standalone="no"?>
<svg width="1925px" height="498px" viewBox="0 0 1925 498" version="1.1" xmlns="http://www.w3.org/2000/svg" xmlns:xlink="http://www.w3.org/1999/xlink">
    <!-- Generator: Sketch 3.6.1 (26313) - http://www.bohemiancoding.com/sketch -->
    <title>Franche-Comté</title>
    <desc>Created with Sketch.</desc>
    <defs>
        <path id="path-1" d="M0,496.789468 L0,0 L1924.10761,0 L1924.10761,496.789468"></path>
    </defs>
    <g id="Page-1" stroke="none" stroke-width="1" fill="none" fill-rule="evenodd">
        <g id="Franche-Comté" transform="translate(-5.000000, -10.000000)">
            <g id="layer1" transform="translate(4.547310, 0.495657)">
                <g id="g29" transform="translate(965.956771, 255.286549) scale(1, -1) translate(-965.956771, -255.286549) translate(0.624407, 3.935858)">
                    <g id="g31-Clipped">
                        <mask id="mask-2" fill="white">
                            <use xlink:href="#path-1"></use>
                        </mask>
                        <g id="path35"></g>
                        <g id="g31" mask="url(#mask-2)">
                            <path d="M505.604519,496.789468 L505.604519,0.106732975 L512.687508,0.106732975 L512.687508,496.789468 L505.604519,496.789468" id="path37" fill="#AEB3B6"></path>
                            <path d="M446.196217,321.814926 C465.156728,351.540679 475.683732,375.275616 475.683732,375.275616 C332.099832,402.468919 308.020509,492.420774 306.344765,496.661388 C291.528042,493.644743 287.244954,491.809081 271.617571,484.722595 C263.015549,480.816532 259.568693,472.414206 258.238428,468.472445 C247.402664,436.449055 249.035277,438.156637 231.949405,420.198905 C208.904408,395.986694 187.666367,390.174592 169.90141,389.697244 C158.851961,389.398392 151.015065,391.3123 145.685848,395.353727 C135.490189,403.079883 133.5663,418.434205 133.5663,418.434205 C133.5663,418.434205 123.42419,418.718413 110.36124,418.611899 C97.2945011,418.504947 91.595616,415.104063 91.595616,415.104063 L103.34229,392.372635 C110.986921,378.989705 114.281509,368.267521 114.281509,368.267521 L0,360.62646 L7.11453595,296.358711 C13.7279733,291.23633 33.9374431,290.638042 43.5637375,289.606412 C46.3100898,289.322422 101.958696,275.711454 117.852875,218.836184 C121.516766,205.723911 123.722751,192.796325 123.146466,180.608513 C120.613215,127.212155 82.6307747,85.6974717 77.0711888,78.226892 C84.627082,70.6924182 101.784572,55.2106728 125.430552,39.9992204 C202.323464,-9.49158493 268.377041,0.910909475 268.377041,0.910909475 C271.137527,18.9750829 277.850339,24.9159204 289.614134,38.7254917 C302.04033,53.3250326 316.379705,60.1698584 339.745046,57.8502193 C355.863838,56.2569474 358.567424,54.3852954 371.502077,52.0516682 C382.440567,50.0737932 393.105851,48.3520046 400.010418,48.380491 C416.075588,48.4729443 430.024532,52.3218155 441.272657,56.825947 C473.043312,69.560903 485.099548,98.5894307 485.099548,98.5894307 C485.099548,98.5894307 464.061058,131.117926 462.624279,133.124287 C453.751964,145.504438 443.741722,158.296367 437.327544,164.344156 C436.847501,164.792361 436.384724,165.226579 435.946937,165.589471 C416.584264,151.452634 393.585967,139.100678 366.642557,139.100678 C306.458128,139.100678 257.754669,187.132556 257.754669,247.302196 C257.754669,307.48648 306.540017,356.272046 366.720512,356.272046 C398.075309,356.272046 426.314085,343.003644 446.196217,321.814926" id="path39" fill="#ED1C24"></path>
                        </g>
                    </g>
                </g>
                <path d="M359.458392,346.262911 L407.251523,343.082822 C395.939323,261.910394 449.548981,241.277776 449.548981,241.277776 L434.014125,196.034508 L356.114515,190.300212 L313.813126,228.847813 C313.813126,228.847813 326.541653,253.194602 329.095913,273.308496 C329.095913,273.308496 330.365931,287.395995 327.715426,298.30956 C327.153571,300.600785 327.406623,302.336362 328.085411,303.631619 C328.480272,304.378259 328.651507,304.200869 331.123588,307.174607 C331.123588,307.174607 350.536456,331.372141 359.458392,346.262911" id="path43" fill="#4372C2"></path>
                <path d="M626.300949,406.809859 C617.443297,408.339291 608.589265,409.563074 598.970027,409.563074 C567.668571,409.563074 541.101925,393.220241 541.101925,356.729432 C541.101925,320.237537 567.668571,304.051459 598.970027,304.051459 C607.671286,304.051459 616.68202,305.27519 625.383796,306.953826 L627.062381,324.513513 C619.275533,322.222132 611.032747,320.237537 598.970027,320.237537 C578.664572,320.237537 564.157699,333.677382 564.157699,356.729432 C564.157699,379.787998 578.664572,393.376944 598.970027,393.376944 C610.879716,393.376944 619.734678,391.392349 628.286371,388.94442 L626.300949,406.809859" id="path45" fill="#63696E"></path>
                <path d="M675.464533,369.706356 C675.464533,384.668703 682.489897,394.593797 696.079619,394.593797 C709.668667,394.593797 716.691135,384.668703 716.691135,369.706356 C716.691135,354.744217 709.668667,344.975619 696.079619,344.975619 C682.489897,344.975619 675.464533,354.744217 675.464533,369.706356 L675.464533,369.706356 Z M738.072669,369.862853 C738.072669,393.071037 722.799295,409.563074 696.079619,409.563074 C669.356322,409.563074 654.088068,393.071037 654.088068,369.862853 C654.088068,346.498172 669.356322,330.013272 696.079619,330.013272 C722.799295,330.013272 738.072669,346.498172 738.072669,369.862853 L738.072669,369.862853 Z" id="path47" fill="#63696E"></path>
                <path d="M788.29899,344.363494 L788.605156,344.669712 C794.258618,333.371164 804.334571,330.013272 817.004089,330.013272 C833.039463,330.013272 846.932971,335.967884 846.932971,354.594754 L846.932971,407.72789 L825.557282,407.72789 L825.557282,359.475303 C825.557282,351.542044 818.228079,347.109624 809.980845,347.109624 C795.628347,347.109624 788.29899,354.900454 788.29899,378.414804 L788.29899,407.72789 L766.9233,407.72789 L766.9233,331.841267 L788.29899,331.841267 L788.29899,344.363494" id="path49" fill="#63696E"></path>
                <path d="M876.403019,389.862245 C883.572053,392.76513 890.901256,395.511622 898.390626,395.511622 C903.118972,395.511622 909.83636,393.526355 909.83636,388.489102 C909.83636,376.885372 878.843552,368.489762 878.843552,349.094633 C878.843552,344.057587 881.284293,330.013272 907.242641,330.013272 C914.724874,330.013272 922.360087,331.07999 929.835029,332.453185 L931.518009,348.027397 C926.33057,345.892926 917.624449,344.057587 911.825248,344.057587 C908.160672,344.057587 901.902274,345.124771 901.902274,350.31883 C901.902274,360.087169 932.894979,370.012263 932.894979,390.317821 C932.894979,404.675181 916.247635,409.563074 903.425034,409.563074 C895.1778,409.563074 886.784931,408.183467 878.843552,406.354747 L876.403019,389.862245" id="path51" fill="#63696E"></path>
                <path d="M1014.42725,360.699242 C1014.42725,349.856116 1009.54608,342.990196 997.794392,342.990196 C986.793374,342.990196 980.527683,350.7742 979.769975,360.699242 L1014.42725,360.699242 L1014.42725,360.699242 Z M1027.10412,406.660655 C1019.00997,408.488753 1010.91571,409.563074 1000.38082,409.563074 C973.657522,409.563074 958.394492,393.071037 958.394492,369.862853 C958.394492,346.654306 971.377209,330.013272 997.794392,330.013272 C1018.39784,330.013272 1034.73928,340.393684 1034.73928,364.974959 L1034.73928,370.930295 L979.769975,370.930295 L979.769975,373.370259 C979.769975,387.572002 990.304866,395.511622 1004.05279,395.511622 C1012.74427,395.511622 1020.9988,393.220241 1029.09306,390.623728 L1027.10412,406.660655 L1027.10412,406.660655 Z" id="path53" fill="#63696E"></path>
                <path d="M1063.43703,331.841267 L1084.82007,331.841267 L1084.82007,407.72789 L1063.43703,407.72789 L1063.43703,331.841267 L1063.43703,331.841267 Z M1063.13113,304.96949 L1084.96581,304.96949 L1084.96581,319.013598 L1063.13113,319.013598 L1063.13113,304.96949 L1063.13113,304.96949 Z" id="path55" fill="#63696E"></path>
                <path d="M1119.47745,305.886591 L1140.85298,305.886591 L1140.85298,407.72789 L1119.47745,407.72789 L1119.47745,305.886591" id="path57" fill="#63696E"></path>
                <path d="M1257.65456,341.617002 L1257.96062,341.922909 C1262.07695,334.744566 1268.18221,330.013272 1277.65344,330.013272 C1279.94099,330.013272 1282.08301,330.319386 1284.21769,330.774756 L1286.0536,348.333511 C1282.84801,347.572234 1280.24705,347.109624 1277.34732,347.109624 C1266.35349,347.109624 1258.71833,353.826133 1258.71833,369.250987 L1258.71833,407.72789 L1237.34254,407.72789 L1237.34254,331.841267 L1257.65456,331.841267 L1257.65456,341.617002" id="path59" fill="#63696E"></path>
                <path d="M1339.79896,301.155297 L1363.62258,301.155297 L1349.71449,320.699578 L1333.08168,320.699578 L1339.79896,301.155297 L1339.79896,301.155297 Z M1363.30928,360.699242 C1363.30928,349.856116 1358.42811,342.990196 1346.66912,342.990196 C1335.67529,342.990196 1329.40981,350.7742 1328.6521,360.699242 L1363.30928,360.699242 L1363.30928,360.699242 Z M1375.98624,406.660655 C1367.88459,408.488753 1359.79768,409.563074 1349.26295,409.563074 C1322.5396,409.563074 1307.26907,393.071037 1307.26907,369.862853 C1307.26907,346.654306 1320.25189,330.013272 1346.66912,330.013272 C1367.27262,330.013272 1383.62146,340.393684 1383.62146,364.974959 L1383.62146,370.930295 L1328.6521,370.930295 L1328.6521,373.370259 C1328.6521,387.572002 1339.18699,395.511622 1352.93481,395.511622 C1361.6264,395.511622 1369.88088,393.220241 1377.96789,390.623728 L1375.98624,406.660655 L1375.98624,406.660655 Z" id="path61" fill="#63696E"></path>
                <path d="M1468.35932,346.654306 C1464.84777,345.587691 1461.33607,344.975619 1457.81724,344.975619 C1437.51246,344.975619 1430.18315,356.729432 1430.18315,370.780884 C1430.18315,384.974403 1437.06076,393.682851 1449.27129,393.682851 C1460.26517,393.682851 1468.35932,382.839984 1468.35932,371.079447 L1468.35932,346.654306 L1468.35932,346.654306 Z M1417.51358,422.996196 C1427.4365,426.35414 1437.36672,428.9506 1447.44257,428.9506 C1459.04112,428.9506 1468.35932,425.436315 1468.35932,406.809859 L1468.35932,395.205715 L1468.05336,395.511622 C1463.01192,404.212777 1453.39485,408.645249 1442.40097,408.645249 C1421.94321,408.645249 1408.8147,395.511622 1408.8147,372.302765 C1408.8147,343.602217 1427.74256,330.013272 1453.39485,330.013272 C1463.01192,330.013272 1479.65916,331.997867 1489.73527,333.065051 L1489.73527,413.227184 C1489.73527,432.764535 1480.56985,443.913878 1453.54783,443.913878 C1442.09511,443.913878 1430.79512,442.391066 1419.6556,439.63723 L1417.51358,422.996196 L1417.51358,422.996196 Z" id="path63" fill="#63696E"></path>
                <path d="M1524.39229,331.841267 L1545.76803,331.841267 L1545.76803,407.72789 L1524.39229,407.72789 L1524.39229,331.841267 L1524.39229,331.841267 Z M1524.08643,304.96949 L1545.92101,304.96949 L1545.92101,319.013598 L1524.08643,319.013598 L1524.08643,304.96949 L1524.08643,304.96949 Z" id="path65" fill="#63696E"></path>
                <path d="M1596.91248,369.706356 C1596.91248,384.668703 1603.94312,394.593797 1617.53057,394.593797 C1631.11796,394.593797 1638.14131,384.668703 1638.14131,369.706356 C1638.14131,354.744217 1631.11796,344.975619 1617.53057,344.975619 C1603.94312,344.975619 1596.91248,354.744217 1596.91248,369.706356 L1596.91248,369.706356 Z M1659.5244,369.862853 C1659.5244,393.071037 1644.25387,409.563074 1617.53057,409.563074 C1590.80722,409.563074 1575.53669,393.071037 1575.53669,369.862853 C1575.53669,346.498172 1590.80722,330.013272 1617.53057,330.013272 C1644.25387,330.013272 1659.5244,346.498172 1659.5244,369.862853 L1659.5244,369.862853 Z" id="path67" fill="#63696E"></path>
                <path d="M1709.75067,344.363494 L1710.04954,344.669712 C1715.7031,333.371164 1725.7789,330.013272 1738.45566,330.013272 C1754.49124,330.013272 1768.37751,335.967884 1768.37751,354.594754 L1768.37751,407.72789 L1747.00896,407.72789 L1747.00896,359.475303 C1747.00896,351.542044 1739.6796,347.109624 1731.43242,347.109624 C1717.07997,347.109624 1709.75067,354.900454 1709.75067,378.414804 L1709.75067,407.72789 L1688.37503,407.72789 L1688.37503,331.841267 L1709.75067,331.841267 L1709.75067,344.363494" id="path69" fill="#63696E"></path>
                <path d="M1850.23023,368.489762 C1842.90097,375.049309 1817.54725,374.750694 1817.54725,388.183195 C1817.54725,395.511622 1824.73092,397.347633 1830.82879,397.347633 C1834.95975,397.347633 1838.93049,396.429653 1842.90097,395.056252 L1839.53511,408.183467 C1834.79948,408.645249 1828.23522,409.563074 1825.48873,409.563074 C1808.38959,409.563074 1797.23548,402.228234 1797.23548,386.959877 C1797.23548,357.646533 1849.15208,366.505167 1849.15208,351.542044 C1849.15208,343.29631 1840.75895,342.221783 1835.10559,342.221783 C1824.87655,342.221783 1814.95368,344.975619 1805.6357,348.639522 L1807.31847,334.4384 C1818.01374,331.841267 1828.99288,330.013272 1840.14714,330.013272 C1853.58155,330.013272 1870.53496,333.214461 1870.53496,350.624944 L1870.53496,407.72789 L1850.23023,407.72789 L1850.23023,368.489762" id="path71" fill="#63696E"></path>
                <path d="M1903.36362,305.886591 L1924.73202,305.886591 L1924.73202,407.72789 L1903.36362,407.72789 L1903.36362,305.886591" id="path73" fill="#63696E"></path>
                <path d="M625.625729,164.494998 L625.625729,190.542093 L579.365495,190.542093 L579.365495,238.623547 L541.116457,238.623547 L541.116457,117.139032 L634.551234,117.139032 L634.551234,143.185972 L579.365495,143.185972 L579.365495,164.494998 L625.625729,164.494998" id="path75" fill="#63696E"></path>
                <path d="M685.912747,157.572034 L686.275491,157.934882 C691.739669,150.649639 698.114327,145.555446 708.317194,145.555446 C710.682841,145.555446 713.414904,145.733042 715.784171,146.466133 L718.331087,175.785839 C715.054701,174.87541 711.774694,173.964464 708.679887,173.964464 C697.751583,173.964464 687.371326,180.339536 687.371326,197.457455 L687.371326,238.623547 L652.765091,238.623547 L652.765091,147.739669 L685.912747,147.739669 L685.912747,157.572034" id="path77" fill="#63696E"></path>
                <path d="M786.266402,198.005243 C779.163048,201.833296 759.856356,204.017261 759.856356,214.219869 C759.856356,219.861851 764.963581,221.505629 770.238371,221.505629 C773.516722,221.505629 776.613133,220.957789 779.71668,219.861851 L774.60961,239.719434 C769.87392,240.082334 764.963581,240.808029 760.220703,240.808029 C738.364095,240.808029 725.250069,230.242314 725.250069,212.7616 C725.250069,177.059375 785.180858,188.357922 785.180858,172.143295 C785.180858,166.131071 778.623948,164.857587 773.698922,164.857587 C760.949243,164.857587 747.660464,169.048436 736.003517,173.416624 L738.553535,151.19722 C752.753002,147.917576 767.141857,145.555446 782.448743,145.555446 C814.497823,145.555446 820.872637,159.941301 820.872637,169.774132 L820.872637,238.623547 L786.266402,238.623547 L786.266402,198.005243" id="path79" fill="#63696E"></path>
                <path d="M873.692729,160.852196 L874.057128,161.215043 C884.620981,149.561044 896.277773,145.555446 909.93814,145.555446 C929.60918,145.555446 945.273173,153.751686 945.273173,177.059375 L945.273173,238.623547 L910.666783,238.623547 L910.666783,190.179297 C910.666783,182.160705 907.024136,173.964464 896.095832,173.964464 C886.806704,173.964464 875.514104,180.339536 875.514104,206.934575 L875.514104,238.623547 L840.907817,238.623547 L840.907817,147.739669 L873.692729,147.739669 L873.692729,160.852196" id="path81" fill="#63696E"></path>
                <path d="M1037.0634,237.527867 C1028.32811,239.719434 1019.40327,240.808029 1010.29635,240.808029 C980.600604,240.808029 961.301152,224.778188 961.301152,192.000672 C961.301152,168.685537 972.404415,145.555446 1005.925,145.555446 C1019.03913,145.555446 1028.86715,146.64373 1038.16363,149.012997 L1041.61683,176.51893 C1033.61003,173.964464 1025.59604,171.595248 1017.764,171.595248 C1003.3678,171.595248 995.907439,179.791438 995.907439,193.089008 C995.907439,207.66027 1003.92153,214.760572 1017.93885,214.760572 C1025.59604,214.760572 1033.24574,212.398701 1040.89569,209.844234 L1037.0634,237.527867" id="path83" fill="#63696E"></path>
                <path d="M1093.16199,160.489296 L1093.52619,160.852196 C1102.26892,149.198196 1113.93311,145.555446 1127.59348,145.555446 C1147.25707,145.555446 1162.92815,153.751686 1162.92815,177.059375 L1162.92815,238.623547 L1128.32202,238.623547 L1128.32202,190.179297 C1128.32202,182.160705 1124.67911,173.964464 1113.75081,173.964464 C1104.45449,173.964464 1093.16199,180.339536 1093.16199,206.934575 L1093.16199,238.623547 L1058.55576,238.623547 L1058.55576,117.139032 L1093.16199,117.139032 L1093.16199,160.489296" id="path85" fill="#63696E"></path>
                <path d="M1243.41879,181.983056 C1243.41879,171.232401 1238.14405,165.953474 1229.40137,165.953474 C1219.56585,165.953474 1214.46602,173.964464 1213.55543,181.983056 L1243.41879,181.983056 L1243.41879,181.983056 Z M1266.55747,237.350271 C1256.53995,239.534235 1245.96865,240.808029 1231.76919,240.808029 C1193.52015,240.808029 1178.94909,220.772538 1178.94909,193.089008 C1178.94909,165.768275 1194.97718,145.555446 1228.67272,145.555446 C1258.71833,145.555446 1276.93229,161.037188 1276.93229,187.262035 L1276.93229,198.553135 L1213.55543,198.553135 C1213.55543,212.576297 1226.48716,217.862827 1238.5083,217.862827 C1249.25435,217.862827 1260.00066,214.760572 1270.01817,211.850705 L1266.55747,237.350271 L1266.55747,237.350271 Z" id="path87" fill="#63696E"></path>
                <path d="M1281.85722,179.428642 L1330.66292,179.428642 L1330.66292,204.20246 L1281.85722,204.20246 L1281.85722,179.428642" id="path89" fill="#63696E"></path>
                <path d="M1443.04211,238.075966 C1432.1138,238.986343 1417.17856,240.808029 1410.2572,240.808029 C1367.09053,240.808029 1337.58417,218.225726 1337.58417,177.792465 C1337.58417,137.536853 1367.09053,114.954757 1410.2572,114.954757 C1420.82131,114.954757 1431.93166,116.413337 1442.49566,118.234712 L1445.40998,146.466133 C1435.93875,143.73407 1426.46753,141.542452 1416.63206,141.542452 C1387.12576,141.542452 1375.83316,161.762883 1375.83316,177.970373 C1375.83316,196.731966 1386.94366,214.219869 1410.2572,214.219869 C1425.1927,214.219869 1435.93875,211.850705 1446.32067,209.296446 L1443.04211,238.075966" id="path91" fill="#63696E"></path>
                <path d="M1493.85138,193.089008 C1493.85138,206.749375 1500.4084,215.308412 1512.98317,215.308412 C1525.36855,215.308412 1531.92562,206.749375 1531.92562,193.089008 C1531.92562,180.161681 1525.36855,171.054804 1512.98317,171.054804 C1500.4084,171.054804 1493.85138,180.161681 1493.85138,193.089008 L1493.85138,193.089008 Z M1566.52451,193.089008 C1566.52451,226.784763 1540.12181,240.808029 1512.98317,240.808029 C1485.83745,240.808029 1459.2451,226.784763 1459.2451,193.089008 C1459.2451,159.393409 1485.83745,145.555446 1512.98317,145.555446 C1540.12181,145.555446 1566.52451,159.393409 1566.52451,193.089008 L1566.52451,193.089008 Z" id="path93" fill="#63696E"></path>
                <path d="M1615.51975,159.393409 L1615.88395,159.756257 C1622.07666,149.561044 1631.72998,145.555446 1643.92603,145.555446 C1655.59012,145.555446 1665.78259,149.012997 1671.8005,159.941301 C1678.17521,149.012997 1688.54999,145.555446 1700.94261,145.555446 C1717.15284,145.555446 1732.08819,152.293107 1732.08819,171.965492 L1732.08819,238.623547 L1697.4819,238.623547 L1697.4819,186.714143 C1697.4819,178.340305 1695.66053,172.143295 1687.28224,172.143295 C1680.72523,172.143295 1674.71466,178.702895 1674.71466,193.451804 L1674.71466,238.623547 L1640.10837,238.623547 L1640.10837,186.714143 C1640.10837,178.340305 1638.287,172.143295 1629.90871,172.143295 C1623.3517,172.143295 1617.34113,178.702895 1617.34113,193.451804 L1617.34113,238.623547 L1582.74208,238.623547 L1582.74208,147.739669 L1615.51975,147.739669 L1615.51975,159.393409" id="path95" fill="#63696E"></path>
                <path d="M1815.68233,171.595248 L1795.10086,171.595248 L1795.10086,202.381084 C1795.10086,210.207134 1797.29372,214.760572 1805.30766,214.760572 C1809.67191,214.760572 1813.68615,213.849884 1818.23953,212.213501 L1814.41458,237.898059 C1806.75749,239.897031 1798.93269,240.808029 1790.9188,240.808029 C1773.43348,240.808029 1760.49447,236.076425 1760.49447,216.041451 L1760.49447,171.595248 L1747.02344,171.595248 L1747.02344,147.739669 L1760.49447,147.739669 L1760.49447,131.347187 L1795.10086,124.061479 L1795.10086,147.739669 L1815.68233,147.739669 L1815.68233,171.595248" id="path97" fill="#63696E"></path>
                <path d="M1890.72337,181.983056 C1890.72337,171.232401 1885.44843,165.953474 1876.69126,165.953474 C1866.86309,165.953474 1861.77034,173.964464 1860.85981,181.983056 L1890.72337,181.983056 L1890.72337,181.983056 Z M1867.04518,109.853531 L1904.012,109.853531 L1884.88745,130.614148 L1856.65603,130.614148 L1867.04518,109.853531 L1867.04518,109.853531 Z M1913.85481,237.350271 C1903.83699,239.534235 1893.27334,240.808029 1879.07382,240.808029 C1840.82458,240.808029 1826.25342,220.772538 1826.25342,193.089008 C1826.25342,165.768275 1842.27442,145.555446 1875.97022,145.555446 C1906.02302,145.555446 1924.23662,161.037188 1924.23662,187.262035 L1924.23662,198.553135 L1860.85981,198.553135 C1860.85981,212.576297 1873.78419,217.862827 1885.7984,217.862827 C1896.55169,217.862827 1907.30504,214.760572 1917.32286,211.850705 L1913.85481,237.350271 L1913.85481,237.350271 Z" id="path99" fill="#63696E"></path>
            </g>
        </g>
    </g>
</svg>