<?xml version="1.0" encoding="UTF-8" standalone="no"?>
<svg width="1386px" height="512px" viewBox="0 0 1386 512" version="1.1" xmlns="http://www.w3.org/2000/svg" xmlns:xlink="http://www.w3.org/1999/xlink">
    <!-- Generator: Sketch 3.6.1 (26313) - http://www.bohemiancoding.com/sketch -->
    <title>Free</title>
    <desc>Created with Sketch.</desc>
    <defs></defs>
    <g id="Page-1" stroke="none" stroke-width="1" fill="none" fill-rule="evenodd">
        <path d="M408.742046,-2.84217094e-14 C370.994836,0.0465323213 330.220782,12.3899246 303.578219,24.7581174 L303.578219,24.6804963 C258.972316,45.0551078 229.888456,66.1033949 208.193486,89.2534137 C187.34726,111.490044 173.428148,135.476641 158.754847,162.130788 L78.1163192,162.130788 C75.7792755,162.130788 73.6682374,163.462608 72.6058871,165.545699 L62.0506989,186.190417 C61.0696882,188.115165 61.1569231,190.403174 62.2835369,192.244123 C63.4101481,194.08506 65.4802066,195.193371 67.6387445,195.193371 L144.008633,195.193371 L0.582255757,500.129649 C-0.511571231,502.450848 -0.0313737993,505.260398 1.74643044,507.114687 L4.61806168,510.063934 C6.02587728,511.532637 8.04042699,512.240775 10.0508802,511.926613 L68.5700837,502.846033 C70.5175155,502.544014 72.239874,501.333846 73.1491715,499.586352 L231.399383,195.193371 L332.061719,195.193371 C334.31865,195.193371 336.392449,193.979499 337.494537,192.011273 L348.981067,171.366585 C350.052092,169.44801 350.01483,167.128982 348.903471,165.235253 C347.792062,163.338407 345.746227,162.130788 343.548249,162.130788 L248.085894,162.130788 L277.267882,102.059345 L277.345478,101.981749 C284.005495,87.6701307 291.38078,72.8152804 303.578219,61.7012786 C309.684711,56.1287698 316.96159,51.422377 326.240845,48.0416036 C335.516977,44.6639491 346.842092,42.6119115 360.855627,42.6087925 C370.923412,42.599219 380.953962,44.9775119 390.968967,47.4983393 C400.983972,49.9881158 410.908961,52.6734867 421.159903,52.6983325 C426.508903,52.7046309 431.407746,51.3323431 435.518059,49.2057959 C441.708369,45.9957711 446.247097,41.193172 449.332943,36.3998642 C450.875866,33.9908026 452.067996,31.5972676 452.903083,29.2595967 C453.731974,26.9064015 454.206946,24.6370376 454.222465,22.2745536 C454.227504,19.9027455 453.710257,17.5898926 452.747867,15.5223283 C451.046628,11.8808026 448.162556,9.26061972 444.986719,7.29549706 C440.180991,4.34934357 434.447009,2.66361639 428.222562,1.55223963 C421.998114,0.45944054 415.32351,0.00309375693 408.742046,7.55803807e-06 L408.742046,-2.84217094e-14 Z M921.289544,129.999548 C850.501488,130.024489 780.523704,152.190263 727.881238,184.560551 C701.561555,200.765862 679.541614,219.578927 663.929226,239.664842 C648.344804,259.732113 639.112106,281.220019 639.093513,302.840769 C639.088474,312.05233 641.176584,321.482166 645.845688,330.237675 C652.843172,343.394078 665.577685,354.930289 684.729149,362.989803 C703.902355,371.069824 729.545241,375.789844 763.194559,375.79574 C848.933724,375.805817 920.029115,347.147399 983.766932,310.757134 C985.657576,309.676788 986.905559,307.658565 986.949018,305.479557 C986.995625,303.302716 985.84693,301.202514 983.999796,300.046739 L970.572966,291.664698 C968.744425,290.518522 966.450233,290.391496 964.519255,291.354239 C910.411487,318.315903 854.704916,336.77505 800.52575,336.757037 C778.623765,336.779711 759.729954,333.407642 746.973724,327.521291 C740.584713,324.596229 735.744873,321.119532 732.693164,317.354142 C729.647678,313.557362 728.222736,309.626804 728.191672,304.858665 C728.204269,293.758577 729.635182,283.425001 733.857354,272.727429 C785.088961,270.077984 854.538513,263.066316 912.364181,248.434937 C942.014969,240.909726 968.576787,231.444216 988.268399,219.175353 C998.109569,213.025403 1006.324,206.161419 1012.17281,198.220189 C1018.0185,190.310014 1021.42723,181.130117 1021.40861,171.288951 C1021.41868,166.920972 1020.38102,162.760998 1018.45936,159.103915 C1015.0755,152.665253 1009.34774,147.921639 1002.54896,144.202487 C992.30424,138.639267 979.225106,135.215035 965.062526,133.026383 C950.903046,130.859494 935.70048,130.002634 921.289544,129.999548 L921.289544,129.999548 Z M1285.52113,129.999548 C1214.73619,130.024489 1144.8422,152.190263 1092.19044,184.560551 C1065.86766,200.765862 1043.85389,219.578927 1028.23843,239.664842 C1012.65088,259.732113 1003.34371,281.220019 1003.32509,302.840769 C1003.32006,312.05233 1005.40819,321.482166 1010.07732,330.237675 C1017.07478,343.394078 1029.81239,354.930289 1048.96076,362.989803 C1068.13394,371.069824 1093.77682,375.789844 1127.42617,375.79574 C1213.19327,375.805817 1284.26075,347.14493 1347.99851,310.757134 C1349.89226,309.676788 1351.13404,307.658892 1351.18062,305.479557 C1351.22396,303.304253 1350.07544,301.204706 1348.23138,300.046739 L1334.80455,291.664698 C1332.97601,290.520059 1330.68184,290.391496 1328.75084,291.354239 C1274.61205,318.315903 1218.90551,336.77505 1164.75738,336.757037 C1142.85535,336.779711 1123.96159,333.407642 1111.20531,327.521291 C1104.81632,324.596229 1100.05405,321.119532 1097.00237,317.354142 C1093.95691,313.557362 1092.45432,309.626804 1092.4233,304.858665 C1092.4359,293.769511 1093.88014,283.437245 1098.08894,272.727429 C1149.32586,270.080453 1218.75329,263.072061 1276.59579,248.434937 C1306.24345,240.909726 1332.81149,231.444216 1352.50003,219.175353 C1362.33808,213.025403 1370.55558,206.161419 1376.40439,198.220189 C1382.24701,190.310014 1385.66193,181.126998 1385.64019,171.288951 C1385.65027,166.920972 1384.61262,162.760998 1382.69097,159.103915 C1379.30711,152.668372 1373.57932,147.921639 1366.78057,144.202487 C1356.53892,138.639267 1343.45051,135.215035 1329.29411,133.026383 C1315.14707,130.859494 1299.91034,130.002634 1285.52113,129.999548 L1285.52113,129.999548 Z M500.013393,135.89803 C487.222976,135.913398 473.262171,139.129784 458.956795,144.047263 C437.514238,151.438994 415.286274,162.751676 396.091326,174.005376 C376.89333,185.271481 360.784254,196.435131 351.54226,203.497815 C349.958977,204.705439 349.074207,206.630219 349.136284,208.620175 C349.198512,210.610156 350.198037,212.475908 351.852693,213.587318 L364.348171,221.969383 C366.400204,223.347768 369.097995,223.385029 371.177992,222.046979 C378.681486,217.213312 392.130033,209.045466 406.724151,202.178384 C414.016549,198.744817 421.588318,195.62176 428.765859,193.408263 C435.934053,191.185464 442.708021,189.906422 448.2464,189.915744 C453.266323,189.931112 456.262102,191.309635 458.025443,192.787357 C459.807427,194.265067 460.313438,195.972529 460.276176,196.512702 C460.288773,197.444054 460.040366,199.28499 459.422471,201.402274 C457.612573,207.850238 453.014842,217.00534 449.643402,222.512655 L449.565807,222.667847 L374.049618,358.79872 C373.552929,359.574855 372.932036,360.51578 372.342182,361.747967 C371.767847,362.973956 371.187339,364.57616 371.178017,366.637514 C371.175498,367.982366 371.547454,369.229115 372.031723,370.207654 C372.972396,372.054486 374.152105,373.134857 375.291404,374.010607 C377.30935,375.493645 379.479363,376.432378 381.966033,377.347909 C385.672747,378.686866 390.015924,379.763508 394.539132,380.530019 C399.059242,381.287788 403.756286,381.768051 408.043532,381.771805 C416.74228,381.769286 424.956709,381.65919 431.559914,381.073266 C434.878573,380.771524 437.759521,380.362659 440.33001,379.676263 C441.624576,379.325797 442.866362,378.874708 444.132988,378.201665 C445.365452,377.515269 446.812161,376.58175 447.935966,374.6315 L448.013562,374.553904 L465.243369,342.965965 C480.935822,317.953142 505.616872,281.820328 534.240145,252.160269 C548.592104,237.27436 563.887809,224.055528 579.41013,214.673836 C594.941798,205.267303 610.588297,199.759963 625.589063,199.772383 C636.417464,199.747189 648.850865,201.687842 661.057625,201.712682 C669.36207,201.717721 676.53029,199.952441 682.556062,196.978353 C691.621097,192.520345 697.895226,185.563233 701.803765,178.584393 C703.762682,175.082565 705.144166,171.580737 706.072393,168.262035 C706.997522,164.940277 707.466297,161.792355 707.469396,158.948643 C707.479473,155.328846 706.649828,151.752509 704.830608,148.626282 C703.477039,146.282409 701.598841,144.214845 699.397789,142.572579 C696.079105,140.10765 692.055709,138.511927 687.445608,137.450211 C682.829234,136.391582 677.616833,135.901098 671.612804,135.897979 C655.019433,135.929169 637.305357,141.784054 619.457781,150.56659 C592.709682,163.779204 565.576653,183.855779 542.54459,203.032089 C532.343254,211.529541 523.12799,219.709883 514.992467,227.169314 L535.171472,189.605272 L535.249068,189.527651 C538.195191,183.933411 540.644625,178.742739 542.466944,174.00533 C543.376553,171.633492 544.180628,169.320669 544.717702,167.175477 C545.248554,165.024081 545.56521,162.984451 545.571408,160.888952 C545.599372,156.365751 544.180628,152.056725 541.535592,148.626287 C539.570477,146.043391 537.018606,143.963389 534.162524,142.339763 C529.865931,139.905856 524.811845,138.381556 519.105829,137.372621 C513.402936,136.372977 507.010826,135.901103 500.013368,135.897984 L500.013393,135.89803 Z M899.247811,158.250202 C910.998242,158.228536 919.92358,160.311564 925.247739,163.29494 C927.926887,164.778898 929.680931,166.418048 930.758153,168.029265 C931.832302,169.656007 932.294854,171.264106 932.310398,173.306854 C932.300321,178.925941 930.820255,183.989322 927.964148,188.98443 C922.990783,197.698659 913.391772,205.968941 900.256784,213.121667 C880.593111,223.887966 853.326557,232.195485 823.88689,237.879784 C798.275571,242.84272 771.004229,245.923754 745.499076,247.270798 C749.337803,241.618368 754.502916,235.164408 760.788584,228.488746 C775.950789,212.333086 797.433731,194.594195 821.713778,181.068015 C845.996897,167.513933 873.061627,158.228475 899.247811,158.250204 L899.247811,158.250202 Z M1263.47944,158.250202 C1275.22982,158.228536 1284.17071,160.31465 1289.47935,163.29494 C1292.14917,164.775782 1293.91564,166.414931 1294.98976,168.029265 C1296.05771,169.656007 1296.52649,171.261019 1296.54198,173.306854 C1296.5319,178.929057 1295.05496,183.989322 1292.19573,188.98443 C1287.22551,197.698659 1277.62028,205.968941 1264.48836,213.121667 C1244.83089,223.887966 1217.62954,232.195485 1188.19609,237.879784 C1162.56185,242.847708 1135.2571,245.925845 1109.73071,247.270798 C1113.56926,241.618368 1118.7345,235.164408 1125.02019,228.488746 C1140.18552,212.333086 1161.73983,194.594195 1186.02295,181.068015 C1210.31232,167.513933 1237.28081,158.228475 1263.47944,158.250204 L1263.47944,158.250202 Z" id="Free" fill="#CD1E25"></path>
    </g>
</svg>