<?xml version="1.0" encoding="UTF-8" standalone="no"?>
<svg width="2834px" height="510px" viewBox="0 0 2834 510" version="1.1" xmlns="http://www.w3.org/2000/svg" xmlns:xlink="http://www.w3.org/1999/xlink">
    <!-- Generator: Sketch 3.6.1 (26313) - http://www.bohemiancoding.com/sketch -->
    <title>freeddom</title>
    <desc>Created with Sketch.</desc>
    <defs></defs>
    <g id="Page-1" stroke="none" stroke-width="1" fill="none" fill-rule="evenodd">
        <g id="freeddom" transform="translate(-2.000000, -2.000000)">
            <g id="Group">
                <path d="M2114.81005,190.106791 C2025.95423,190.106791 1953.92893,262.132093 1953.92893,350.981953 C1953.92893,439.837767 2025.96019,511.874977 2114.81005,511.874977 C2203.65991,511.874977 2275.68521,439.837767 2275.68521,350.981953 C2275.68521,262.132093 2203.65991,190.106791 2114.81005,190.106791 L2114.81005,190.106791 Z M2114.81005,431.437395 C2070.38512,431.437395 2034.36651,395.412837 2034.36651,350.987907 C2034.36651,306.562977 2070.38512,270.550326 2114.81005,270.550326 C2159.23498,270.550326 2195.25358,306.562977 2195.25358,350.987907 C2195.24763,395.412837 2159.23498,431.437395 2114.81005,431.437395 L2114.81005,431.437395 Z" id="Shape" fill="#EE3224"></path>
                <path d="M614.983442,382.154419 L846.973023,382.130605 C848.949581,372.051349 850.015256,361.656558 850.015256,350.987907 C850.015256,262.132093 777.984,190.106791 689.13414,190.106791 C600.284279,190.106791 528.253023,262.138047 528.253023,350.987907 C528.253023,439.837767 600.284279,511.874977 689.13414,511.874977 C744.346791,511.874977 793.052279,484.048372 822.021953,441.665488 L751.115907,402.259349 C736.363163,420.084093 714.073302,431.431442 689.13414,431.431442 C644.709209,431.431442 608.696558,395.418791 608.696558,350.987907 C608.696558,306.557023 644.709209,270.544372 689.13414,270.544372 C715.043721,270.544372 738.095628,282.802605 752.806698,301.824 C752.854326,301.883535 752.901953,301.94307 752.937674,301.996651" id="Shape" fill="#49A942"></path>
                <path d="M1020.13619,240.485209 L1167.7827,61.5471628 C1161.26958,53.6052093 1153.92298,46.1633488 1145.70121,39.3763721 C1077.17656,-17.1817674 975.770791,-7.47162791 919.218605,61.0530233 C862.666419,129.577674 872.364651,230.983442 940.895256,287.541581 C1009.41991,344.099721 1110.82567,334.389581 1167.37786,265.86493 C1202.52726,223.285581 1212.0707,168.007442 1197.81805,118.688744 L1122.29209,148.283535 C1126.64409,171.008 1121.21451,195.423256 1105.33656,214.670884 C1077.05749,248.927256 1026.35163,253.773395 992.095256,225.494326 C957.826977,197.215256 952.980837,146.521302 981.253953,112.253023 C997.75107,92.2731163 1021.8746,82.2891163 1045.90884,83.0571163 C1045.98623,83.0571163 1046.05767,83.0630698 1046.13507,83.0630698" id="Shape" fill="#862175"></path>
                <path d="M47.7350698,511.874977 L47.7350698,246.010047 L2.60167442,246.010047 L2.60167442,167.03107 L47.7350698,167.03107 L47.7350698,153.629767 C47.7350698,112.020837 60.427907,66.1849302 91.4574884,37.9773023 C118.25414,12.5916279 155.63014,3.42325581 186.659721,3.42325581 C210.634419,3.42325581 228.971163,6.2452093 243.783442,10.4781395 L239.556465,92.9875349 C230.388093,90.1655814 219.106233,88.052093 205.002419,88.052093 C169.739907,88.052093 154.933581,115.557209 154.933581,149.408744 L154.933581,167.037023 L224.041674,167.037023 L224.041674,246.021953 L155.636093,246.021953 L155.636093,511.886884 L47.7350698,511.886884 L47.7350698,511.874977 Z" id="Shape" fill="#007DC3"></path>
                <path d="M283.165767,280.564093 C283.165767,229.792744 281.754791,196.643721 280.343814,167.03107 L372.730047,167.03107 L376.254512,230.495256 L379.076465,230.495256 C396.704744,180.426419 439.016186,159.267721 472.165209,159.267721 C482.042047,159.267721 486.977488,159.267721 494.734884,160.678698 L494.734884,262.233302 C486.977488,260.119814 477.809116,258.702884 465.824744,258.702884 C426.335256,258.702884 399.532651,279.861581 392.483721,313.004651 C391.072744,320.059535 390.370233,328.519442 390.370233,336.979349 L390.370233,511.874977 L283.165767,511.874977 L283.165767,280.564093 L283.165767,280.564093 Z" id="Shape" fill="#007DC3"></path>
                <path d="M2314.44242,277.039628 C2314.44242,234.019721 2313.0374,197.346233 2311.62047,167.025116 L2401.88726,167.025116 L2406.8227,213.563535 L2408.93619,213.563535 C2423.74251,191.702326 2454.06958,159.261767 2513.30679,159.261767 C2557.73767,159.261767 2592.99423,181.831442 2607.80651,217.796465 L2609.21153,217.796465 C2621.91033,199.459721 2637.41916,186.064372 2653.64242,176.187535 C2672.68167,164.905674 2693.84037,159.261767 2719.232,159.261767 C2785.51814,159.261767 2835.59293,205.80614 2835.59293,308.765767 L2835.59293,511.869023 L2731.22233,511.869023 L2731.22233,324.292465 C2731.22233,274.223628 2714.99907,245.307535 2680.44502,245.307535 C2655.76186,245.307535 2638.13358,262.233302 2631.0787,282.677581 C2628.25674,290.44093 2626.85172,301.716837 2626.85172,310.182698 L2626.85172,511.874977 L2522.48112,511.874977 L2522.48112,318.642605 C2522.48112,274.920186 2506.96633,245.307535 2473.11479,245.307535 C2445.60967,245.307535 2429.38642,266.460279 2423.04595,284.094512 C2419.51553,292.554419 2418.81302,302.431256 2418.81302,310.891163 L2418.81302,511.88093 L2314.44242,511.88093 L2314.44242,277.039628 L2314.44242,277.039628 Z" id="Shape" fill="#007DC3"></path>
                <path d="M1481.48986,129.893209 L1481.48986,208.11014 C1481.52558,208.812651 1481.5494,209.223442 1481.5494,209.223442 C1457.94381,195.631628 1430.20056,187.427721 1401.00465,187.427721 C1312.15479,187.427721 1240.12949,259.46493 1240.12949,348.320744 C1240.12949,437.164651 1312.16074,509.195907 1401.00465,509.195907 C1430.1946,509.195907 1457.53898,501.378977 1481.14456,487.79907 C1481.15647,487.787163 1478.56074,487.019163 1481.15647,487.787163 L1481.5494,487.787163 L1481.5494,511.767814 C1504.81563,511.767814 1561.86195,511.916651 1561.95721,511.86307 L1561.95721,95.0772093 C1561.86195,95.0117209 1498.04651,122.707349 1481.48986,129.893209 L1481.48986,129.893209 Z M1400.9987,428.752372 C1356.57377,428.752372 1320.56112,392.733767 1320.56112,348.314791 C1320.56112,303.877953 1356.57377,267.859349 1400.9987,267.859349 C1445.42958,267.859349 1481.44223,303.877953 1481.44223,348.314791 C1481.44223,392.733767 1445.42958,428.752372 1400.9987,428.752372 L1400.9987,428.752372 Z" id="Shape" fill="#F58025"></path>
                <path d="M1836.95479,129.893209 L1836.95479,208.11014 C1836.99051,208.812651 1837.01433,209.223442 1837.01433,209.223442 C1813.40279,195.631628 1785.66549,187.427721 1756.46958,187.427721 C1667.61972,187.427721 1595.58847,259.46493 1595.58847,348.320744 C1595.58847,437.164651 1667.62567,509.195907 1756.46958,509.195907 C1785.65358,509.195907 1812.99795,501.378977 1836.60353,487.79907 C1836.6214,487.787163 1834.01972,487.019163 1836.6214,487.787163 L1837.01433,487.787163 L1837.01433,511.767814 C1860.28056,511.767814 1917.32093,511.916651 1917.42214,511.86307 L1917.42214,95.0772093 C1917.32093,95.0117209 1853.51144,122.707349 1836.95479,129.893209 L1836.95479,129.893209 Z M1756.46363,428.752372 C1712.03274,428.752372 1676.02009,392.733767 1676.02009,348.314791 C1676.02009,303.877953 1712.03274,267.859349 1756.46363,267.859349 C1800.89451,267.859349 1836.90716,303.877953 1836.90716,348.314791 C1836.90716,392.733767 1800.89451,428.752372 1756.46363,428.752372 L1756.46363,428.752372 Z" id="Shape" fill="#F58025"></path>
            </g>
        </g>
    </g>
</svg>