<?xml version="1.0" encoding="iso-8859-1"?><!-- Generator: Adobe Illustrator 16.0.0, SVG Export Plug-In . SVG Version: 6.00 Build 0) --><!DOCTYPE svg PUBLIC "-//W3C//DTD SVG 1.1//EN" "http://www.w3.org/Graphics/SVG/1.1/DTD/svg11.dtd"><svg version="1.1" id="Layer_1" xmlns="http://www.w3.org/2000/svg" xmlns:xlink="http://www.w3.org/1999/xlink" x="0px" y="0px" width="971.816px" height="124.752px" viewBox="14.796 15 971.816 124.752" style="enable-background:new 14.796 15 971.816 124.752;" xml:space="preserve"><g><path d="M121,85.529c-2.114,1.187-3.171,3.274-3.171,6.266v39.14c0,0.104-0.104,0.259-0.31,0.465	c-2.477,1.855-5.184,3.353-8.122,4.485c-2.939,1.137-5.982,1.987-9.127,2.555c-3.147,0.562-6.292,0.928-9.438,1.082	c-3.146,0.154-6.215,0.23-9.205,0.23c-4.54,0-9.128-0.155-13.769-0.464c-8.149-0.619-15.497-2.68-22.045-6.188	c-6.551-3.506-12.121-8.068-16.708-13.691c-4.59-5.62-8.122-12.015-10.597-19.184c-2.476-7.167-3.714-14.722-3.714-22.664	c0-9.18,1.649-17.302,4.95-24.366c3.3-7.063,7.813-12.996,13.537-17.791c5.726-4.795,12.401-8.404,20.034-10.83	c7.631-2.422,15.78-3.635,24.444-3.635c4.641,0,9.306,0.258,14,0.772c4.69,0.519,9.306,1.083,13.846,1.702	c2.062,0.311,4.1,0.619,6.11,0.929c2.012,0.31,4.047,0.568,6.11,0.773c0.411,0,0.619,0.208,0.619,0.619	c-0.208,3.713-0.568,7.349-1.083,10.907c-0.518,3.558-1.032,7.143-1.546,10.752c-0.104,0.723-0.208,1.419-0.31,2.088	c-0.104,0.672-0.208,1.314-0.31,1.934c0,0.311-0.182,0.491-0.542,0.542c-0.363,0.053-0.595-0.077-0.697-0.387	c-0.825-4.434-2.319-8.25-4.485-11.448c-2.167-3.196-4.823-5.852-7.967-7.967c-3.147-2.113-6.68-3.66-10.598-4.642	c-3.921-0.979-7.994-1.471-12.222-1.471c-7.116,0-13.745,1.188-19.879,3.56c-6.138,2.374-11.476,5.699-16.013,9.979	c-4.538,4.281-8.121,9.438-10.751,15.47C29.415,61.086,28.1,67.714,28.1,74.932c0,7.839,1.442,15.237,4.332,22.199	c2.887,6.962,6.832,13.049,11.835,18.255c5.001,5.211,10.931,9.336,17.791,12.378c6.856,3.042,14.257,4.562,22.2,4.562	c3.402,0,6.857-0.387,10.364-1.161c3.505-0.772,6.498-2.448,8.974-5.026V91.33c0-2.475-0.773-4.149-2.32-5.027	c-1.547-0.875-3.302-1.625-5.26-2.243c-0.826-0.206-1.651-0.465-2.476-0.774c-0.827-0.309-1.65-0.72-2.476-1.237	c-0.31-0.206-0.413-0.438-0.31-0.696c0.102-0.256,0.31-0.387,0.618-0.387c6.188,0,12.299,0.054,18.333,0.155	c6.034,0.104,12.145,0.31,18.333,0.619l0.155,1.237C125.51,83.493,123.112,84.344,121,85.529z"/><path d="M202.452,126.603c-1.291-0.102-2.656-0.206-4.1-0.31c-0.827-0.104-1.677-0.18-2.552-0.231	c-0.879-0.053-1.779-0.078-2.708-0.078c-2.374,0-4.745,0.104-7.116,0.311c-2.374,0.208-4.746,0.413-7.117,0.618	c-0.311,0-0.519-0.155-0.619-0.464c-0.104-0.31,0-0.566,0.309-0.773l6.034-2.938c-1.755-4.848-3.585-9.616-5.492-14.312	c-1.909-4.69-3.739-9.515-5.491-14.465H149.62c-0.517,1.342-1.264,3.326-2.243,5.956c-0.981,2.63-1.934,5.364-2.861,8.199	c-0.929,2.839-1.755,5.52-2.476,8.045c-0.723,2.528-1.083,4.357-1.083,5.492c0,1.546,0.669,2.553,2.012,3.016	c1.339,0.465,2.63,0.801,3.867,1.007v1.237c-1.96-0.205-3.971-0.387-6.033-0.542c-2.064-0.154-4.126-0.23-6.188-0.23	c-2.063,0-4.127,0.076-6.188,0.23c-2.064,0.155-4.126,0.337-6.188,0.542c-0.309,0.104-0.491-0.05-0.542-0.464	c-0.053-0.411,0.077-0.67,0.387-0.773c5.671-0.721,9.644-3.714,11.912-8.973v0.154c2.99-7.527,5.879-15.058,8.664-22.587	c2.785-7.527,5.517-15.107,8.2-22.742c1.855-5.156,3.66-10.288,5.414-15.394c1.753-5.104,3.608-10.233,5.569-15.393	c0.102-0.309,0.31-0.464,0.618-0.464c0.31,0,0.516,0.155,0.619,0.464c0.516,1.445,1.057,2.862,1.625,4.254	c0.565,1.392,1.107,2.812,1.624,4.254c4.229,11.552,8.637,23.155,13.229,34.809c4.587,11.655,9.823,23.051,15.702,34.188	c1.237,2.375,2.809,4.075,4.718,5.106c1.907,1.03,4.1,1.649,6.575,1.855v1.237C205.105,126.656,203.74,126.707,202.452,126.603z M161.687,56.677c-1.755,5.469-3.431,10.806-5.027,16.013c-1.6,5.209-3.379,10.597-5.337,16.167h19.957L161.687,56.677z"/><path d="M318.195,126.757c-4.125,0-8.303,0-12.531,0c-4.126,0-8.199-0.101-12.221-0.309c-0.619,0-0.827-0.258-0.619-0.773	c0.102-0.206,0.179-0.412,0.231-0.618c0.051-0.205,0.128-0.411,0.231-0.618c0.31-0.93,0.619-1.857,0.928-2.785	c0.31-0.929,0.465-1.804,0.465-2.631c0-5.878-0.286-11.68-0.853-17.403c-0.567-5.724-1.213-11.473-1.934-17.249	c-0.414-3.506-0.8-6.626-1.16-9.36c-0.363-2.73-0.646-5.902-0.852-9.514c-3.921,7.529-7.685,15.06-11.293,22.586	c-3.61,7.53-7.221,15.161-10.828,22.896c-1.238,2.579-2.452,5.132-3.637,7.656c-1.187,2.529-2.397,5.082-3.635,7.659	c-0.104,0.208-0.259,0.31-0.464,0.31c-0.208,0-0.414-0.102-0.619-0.31c-4.745-6.6-8.845-13.33-12.299-20.188	c-3.456-6.857-6.729-13.742-9.824-20.653c-1.651-3.609-3.121-6.885-4.409-9.824c-1.291-2.938-2.811-6.162-4.562-9.669	c-0.311,2.579-0.619,5.081-0.93,7.503c-0.31,2.425-0.618,4.823-0.928,7.193c-0.827,6.396-1.547,12.739-2.166,19.029	c-0.62,6.292-0.929,12.685-0.929,19.183c0,1.856,0.464,3.12,1.393,3.79c0.929,0.673,2.062,1.266,3.403,1.78	c0.411,0.207,0.979,0.438,1.701,0.694c0.721,0.261,1.185,0.439,1.393,0.542c0.311,0.207,0.411,0.464,0.311,0.773	c-0.104,0.309-0.311,0.464-0.619,0.464c-1.445,0-2.862-0.023-4.254-0.077c-1.394-0.052-2.812-0.128-4.255-0.231	c-1.445-0.102-2.889-0.181-4.332-0.232c-1.446-0.05-2.89-0.076-4.332-0.076c-1.032,0-2.064,0-3.095,0	c-0.928,0-1.96,0.104-3.094,0.31c-0.31,0.104-0.518-0.052-0.619-0.464c-0.104-0.411,0-0.671,0.311-0.773	c0.824-0.206,1.442-0.31,1.856-0.31c1.134-0.205,2.112-0.438,2.939-0.696c0.824-0.257,1.598-0.952,2.32-2.088	c0.206-0.312,0.487-1.648,0.851-4.023c0.36-2.371,0.773-5.387,1.238-9.05c0.464-3.659,0.979-7.812,1.546-12.453	c0.565-4.642,1.106-9.384,1.625-14.233c0.515-4.846,1.03-9.615,1.547-14.31c0.515-4.692,0.979-8.998,1.392-12.918	c0.411-3.403,0.722-6.42,0.929-9.05c0.206-2.63,0.411-4.511,0.619-5.647c0-0.31,0.128-0.487,0.387-0.542	c0.257-0.05,0.489,0.026,0.697,0.232c1.236,1.342,2.989,3.998,5.259,7.967c2.268,3.972,4.719,8.586,7.349,13.846	c2.63,5.261,5.361,10.829,8.199,16.708c2.835,5.879,5.438,11.347,7.812,16.398c1.753,3.612,3.196,6.706,4.332,9.283	c1.135,2.579,2.166,4.745,3.095,6.497c1.648-3.301,3.326-6.885,5.027-10.752c1.701-3.868,3.377-7.709,5.028-11.525	c3.608-8.354,7.426-16.809,11.448-25.371c4.021-8.56,8.301-16.191,12.84-22.896c0.206-0.206,0.411-0.283,0.619-0.233	c0.206,0.054,0.31,0.233,0.31,0.542c0.206,1.237,0.387,2.966,0.542,5.183c0.155,2.22,0.387,4.771,0.696,7.658	c0.31,3.817,0.696,7.994,1.16,12.531c0.464,4.539,0.953,9.181,1.47,13.923c0.515,4.745,1.03,9.36,1.547,13.846	c0.515,4.486,1.056,8.586,1.624,12.3c0.566,3.713,1.107,6.833,1.625,9.358c0.515,2.529,1.03,4.101,1.547,4.718	c1.134,1.652,2.217,2.709,3.249,3.173c1.029,0.465,2.268,0.801,3.713,1.007c0.721,0.207,1.471,0.336,2.243,0.387	c0.774,0.053,1.572,0.284,2.398,0.695L318.195,126.757z"/><path d="M367.804,118.945c-0.311,2.219-0.619,4.512-0.929,6.884c0,0.311-0.208,0.465-0.619,0.465l-0.153,0.154	c-0.827,0.309-1.496,0.464-2.011,0.464c-2.374,0-4.771-0.022-7.194-0.077c-2.425-0.052-4.822-0.078-7.193-0.078	c-2.063,0-4.075-0.023-6.034-0.075c-1.961-0.053-3.972-0.078-6.033-0.078c-2.785,0-5.597,0.025-8.432,0.078	c-2.838,0.052-5.646,0.13-8.431,0.23v-1.237c1.547,0,2.808-0.334,3.79-1.007c0.979-0.669,1.726-1.52,2.243-2.552	c0.515-1.03,0.851-2.191,1.006-3.481c0.154-1.287,0.231-2.603,0.231-3.943V50.334c0-2.062-0.49-3.402-1.47-4.021	c-0.98-0.619-2.038-1.135-3.171-1.547c-0.619-0.206-1.314-0.438-2.089-0.697c-0.773-0.256-1.573-0.644-2.397-1.16	c-0.208-0.206-0.285-0.438-0.231-0.696c0.05-0.256,0.231-0.387,0.541-0.387h44.09c0.412-0.206,0.851-0.387,1.315-0.542	c0.464-0.155,0.9-0.333,1.314-0.542c0.516-0.205,0.773,0,0.773,0.619c-0.31,2.683-0.696,5.182-1.16,7.503	c-0.464,2.32-0.955,4.667-1.47,7.039c-0.104,0.31-0.336,0.439-0.696,0.387c-0.362-0.051-0.542-0.231-0.542-0.542	c-0.208-3.609-1.445-5.979-3.712-7.117c-2.271-1.134-5.056-1.701-8.354-1.701h-12.222v31.715h17.945	c0.516,0,1.185-0.154,2.012-0.465c0.823-0.31,1.647-0.618,2.475-0.928c1.135-0.619,2.269-1.083,3.404-1.393	c0.515-0.205,0.773,0,0.773,0.618c-0.104,1.237-0.231,2.58-0.388,4.022c-0.153,1.445-0.336,2.784-0.542,4.022	c-0.208,1.236-0.361,2.527-0.464,3.868c-0.104,1.341-0.259,2.629-0.464,3.867c0,0.31-0.13,0.518-0.386,0.619	c-0.259,0.104-0.491,0.053-0.696-0.155c-0.518-0.515-0.851-1.029-1.006-1.547c-0.154-0.515-0.335-1.083-0.542-1.701	c-0.208-0.618-0.414-1.237-0.619-1.856c-0.208-0.619-0.568-1.185-1.083-1.701c-0.518-0.515-1.47-0.901-2.862-1.161	c-1.393-0.256-2.889-0.464-4.486-0.618c-1.601-0.154-3.171-0.231-4.719-0.231c-1.547,0-2.733,0-3.558,0h-4.642v31.869	c1.547,2.271,3.736,3.998,6.574,5.183c2.836,1.188,5.594,1.779,8.276,1.779c3.61,0,6.677-0.953,9.205-2.862	c2.526-1.907,4.201-4.614,5.028-8.122l1.236,0.31C368.524,114.434,368.113,116.729,367.804,118.945z"/><path d="M462.138,72.515c-0.061,0.178-0.192,0.253-0.4,0.222c-0.207-0.028-0.309-0.133-0.309-0.311	c0-1.953-0.532-3.328-1.598-4.127c-1.065-0.798-2.545-1.198-4.438-1.198c-0.83,0-1.613,0.045-2.354,0.134	c-0.739,0.088-1.523,0.191-2.352,0.31c-0.592,0.12-1.242,0.209-1.952,0.268c-0.71,0.06-1.362,0.089-1.953,0.089v17.395h11.98	c0.414,0,0.888-0.178,1.42-0.532c0.532-0.355,0.947-0.711,1.243-1.064c0.117-0.118,0.251-0.148,0.398-0.09	c0.148,0.061,0.223,0.178,0.223,0.355c-0.119,1.657-0.282,3.271-0.488,4.837c-0.207,1.567-0.458,3.122-0.754,4.659	c-0.061,0.178-0.192,0.252-0.399,0.222c-0.208-0.028-0.311-0.134-0.311-0.311c0.058-1.953-0.431-3.298-1.464-4.038	c-1.036-0.739-2.501-1.108-4.395-1.108h-7.455v17.75c0,0.708,0.147,1.448,0.444,2.219c0.295,0.769,0.71,1.449,1.243,2.041	s1.152,1.063,1.863,1.42c0.71,0.354,1.479,0.532,2.307,0.532v0.71h-0.621c-0.652,0-1.273-0.03-1.864-0.088	c-0.592-0.059-1.214-0.117-1.862-0.179c-0.652-0.058-1.273-0.101-1.864-0.132c-0.592-0.03-1.185-0.045-1.775-0.045	s-1.184,0.03-1.773,0.089c-0.593,0.06-1.186,0.118-1.775,0.177c-0.71,0.061-1.407,0.104-2.085,0.133	c-0.681,0.03-1.346,0.045-1.996,0.045h-0.533c-0.178,0-0.281-0.104-0.311-0.312c-0.031-0.207,0.044-0.339,0.222-0.398	c1.064-0.179,1.894-0.399,2.484-0.666c0.59-0.267,1.021-0.621,1.287-1.065c0.267-0.443,0.414-1.004,0.444-1.687	c0.028-0.68,0.043-1.553,0.043-2.617V69.055c0-1.361-0.267-2.204-0.798-2.53c-0.534-0.324-1.153-0.576-1.862-0.753	c-0.298-0.119-0.666-0.251-1.109-0.4c-0.444-0.146-0.903-0.368-1.375-0.666c-0.177-0.118-0.238-0.251-0.177-0.399	c0.058-0.146,0.177-0.222,0.354-0.222c3.729,0.177,7.483,0.267,11.271,0.267h6.301c0.295,0,0.605,0.015,0.932,0.045	c0.324,0.029,0.665,0.044,1.021,0.044c1.358,0.06,2.765,0.06,4.214,0c1.45-0.059,2.707-0.384,3.771-0.977	c0.118-0.119,0.25-0.119,0.4,0c0.146,0.119,0.191,0.267,0.132,0.444L462.138,72.515z"/><path d="M946.346,28.839c-0.109,3.634-0.597,6.911-1.462,9.838c-0.109,0.325-0.327,0.487-0.651,0.487	c-0.325,0-0.543-0.162-0.651-0.487c-0.543-2.709-1.382-4.903-2.521-6.586c-1.138-1.679-2.576-3.008-4.31-3.983	c-1.734-0.976-3.687-1.651-5.854-2.033c-2.171-0.377-4.447-0.569-6.831-0.569H511.51v94.969c0,4.337,1.383,8.024,4.146,11.059	c2.765,3.037,6.205,4.878,10.325,5.53c0.325,0.106,0.461,0.352,0.407,0.729c-0.056,0.38-0.245,0.568-0.569,0.568	c-3.795-0.324-7.618-0.595-11.465-0.812c-3.85-0.216-7.725-0.324-11.626-0.324c-2.821,0-5.61,0.08-8.375,0.243	c-2.764,0.163-5.556,0.354-8.375,0.569c-0.325,0-0.516-0.188-0.569-0.569c-0.057-0.378,0.082-0.623,0.407-0.73	c2.603-0.542,4.634-1.139,6.099-1.789c1.463-0.651,2.545-1.516,3.252-2.604c0.705-1.082,1.14-2.464,1.302-4.146	c0.163-1.681,0.245-3.823,0.245-6.424V25.667h-26.832c-3.473,0-6.534,1.219-9.189,3.659c-2.657,2.439-4.635,5.178-5.935,8.212	c-0.218,0.325-0.464,0.462-0.731,0.406c-0.271-0.054-0.407-0.244-0.407-0.569c-0.218-1.083-0.325-2.058-0.325-2.927	c0-2.167,0.27-4.281,0.812-6.342c0.542-2.059,1.138-4.172,1.79-6.342c0.324-1.083,0.65-2.141,0.976-3.172	c0.325-1.028,0.595-2.032,0.813-3.009c0.216-0.649,0.541-0.757,0.976-0.325c2.277,1.41,4.497,2.306,6.667,2.685	c2.169,0.38,4.66,0.568,7.48,0.568h463.457c0.867,0,1.813-0.135,2.846-0.406c1.029-0.271,1.978-0.514,2.847-0.731	c0.543-0.106,1.164-0.216,1.87-0.325c0.702-0.106,1.436-0.217,2.194-0.325c0.325,0,0.488,0.219,0.488,0.65v1.3	C946.51,21.82,946.452,25.207,946.346,28.839z"/><path d="M611.156,127.222c-5.468-0.311-10.882-0.466-16.244-0.466c-1.96,0-3.894,0.026-5.801,0.078	c-1.91,0.055-3.895,0.13-5.957,0.231c-0.309,0-0.49-0.178-0.541-0.541c-0.054-0.361,0.078-0.592,0.389-0.696	c3.193-0.929,5.259-2.166,6.187-3.713s1.394-3.97,1.394-7.271V82.667h-47.494v32.487c0,6.498,3.352,10.057,10.056,10.675	c0.311,0,0.465,0.208,0.465,0.619c0,0.414-0.154,0.618-0.465,0.618c-1.65,0-3.248,0-4.796,0c-1.445,0-2.991,0.054-4.642,0.154	c-1.135,0-2.45,0.026-3.944,0.077c-1.496,0.054-2.812,0.077-3.943,0.077c-1.238,0-2.53,0-3.868,0c-1.342,0-2.684-0.051-4.021-0.154	c-0.413,0-0.905-0.023-1.47-0.076c-0.568-0.053-1.06-0.078-1.471-0.078c-0.311,0-0.49-0.179-0.541-0.541	c-0.054-0.361,0.077-0.592,0.387-0.696c1.647-0.31,2.989-0.643,4.021-1.005c1.03-0.36,1.805-0.875,2.32-1.548	c0.516-0.67,0.851-1.521,1.006-2.553c0.154-1.029,0.23-2.371,0.23-4.021V50.798c0-2.268-0.902-3.969-2.707-5.104	c-1.805-1.133-3.737-1.752-5.801-1.856v-1.237c4.331,0.31,8.61,0.465,12.841,0.465c1.753,0,3.505-0.024,5.261-0.078	c1.752-0.05,3.505-0.077,5.259-0.077h3.25c0.309,0,0.464,0.208,0.464,0.619c0,0.414-0.155,0.619-0.464,0.619	c-1.856,0-3.534,0.567-5.028,1.702c-1.497,1.136-2.243,2.733-2.243,4.796v26.918h47.341v-26.3c0-2.477-0.646-4.048-1.936-4.72	c-1.291-0.669-2.861-1.262-4.718-1.778c-0.414-0.103-0.802-0.206-1.161-0.311c-0.361-0.102-0.749-0.206-1.16-0.31	c-0.31-0.103-0.439-0.333-0.386-0.696c0.05-0.36,0.229-0.541,0.542-0.541c4.949,0.309,9.745,0.464,14.386,0.464	c2.062,0,4.151-0.023,6.267-0.078c2.112-0.051,4.2-0.128,6.266-0.231c0.309,0,0.488,0.181,0.542,0.541	c0.051,0.362-0.077,0.595-0.388,0.696c-2.27,0.413-4.075,1.006-5.414,1.778c-1.342,0.774-2.012,2.451-2.012,5.028v63.429	c0,3.508,0.773,6.137,2.319,7.89c1.549,1.756,4.074,2.939,7.582,3.559L611.156,127.222z"/><path d="M694.127,128.382c-1.908,0.464-3.788,0.696-5.646,0.696c-3.094,0-5.879-0.566-8.354-1.702	c-2.475-1.133-4.693-2.576-6.651-4.332c-1.96-1.752-3.79-3.764-5.492-6.033c-1.7-2.267-3.326-4.588-4.872-6.961	c-1.445-2.166-2.967-4.305-4.562-6.42c-1.603-2.112-3.354-4.021-5.262-5.724s-3.971-3.067-6.188-4.1	c-2.218-1.03-4.718-1.548-7.503-1.548c-0.827,0-1.651,0-2.476,0c-0.724,0-1.496,0.104-2.32,0.31v21.968	c0,2.992,0.902,5.545,2.707,7.657c1.804,2.115,4.201,3.326,7.193,3.636v1.237c-2.374-0.204-4.719-0.386-7.039-0.541	c-2.319-0.155-4.666-0.231-7.037-0.231c-2.375,0-4.67,0.104-6.886,0.31c-2.22,0.208-4.514,0.464-6.885,0.772	c-0.311,0.104-0.542-0.023-0.696-0.387c-0.153-0.36-0.076-0.644,0.232-0.851c2.165-1.03,3.969-2.576,5.415-4.642	c1.442-2.062,2.165-4.279,2.165-6.653V53.119c0-2.372-0.852-4.46-2.553-6.266c-1.701-1.804-3.739-3.018-6.11-3.637	c-0.31-0.102-0.44-0.333-0.388-0.695c0.052-0.36,0.232-0.542,0.541-0.542h30.478c3.196,0,6.344,0.387,9.438,1.16	c3.093,0.773,5.824,1.987,8.198,3.636c2.371,1.65,4.278,3.815,5.725,6.497c1.442,2.683,2.165,5.879,2.165,9.592	c0,4.95-1.367,9.645-4.1,14.077c-2.734,4.436-5.802,8.253-9.205,11.449c1.135,1.236,2.371,2.811,3.714,4.718	c1.339,1.91,2.783,3.895,4.33,5.957c2.269,3.094,4.665,6.266,7.195,9.514c2.525,3.249,5.182,6.188,7.967,8.818	c2.784,2.631,5.67,4.694,8.663,6.188c2.99,1.496,6.034,2.038,9.127,1.625l0.465,1.237	C697.865,127.275,696.036,127.918,694.127,128.382z M659.318,60.544c-0.771-2.681-1.933-5.104-3.479-7.271	c-1.547-2.166-3.457-3.945-5.725-5.337c-2.27-1.393-4.899-2.088-7.891-2.088c-1.237,0-2.475,0.077-3.713,0.231	c-1.238,0.155-2.424,0.491-3.56,1.006v38.521c1.753,0.31,3.455,0.517,5.105,0.618c1.647,0.104,3.352,0.154,5.104,0.154	c5.775,0,9.771-1.57,11.989-4.719c2.217-3.145,3.326-7.503,3.326-13.073C660.479,65.908,660.094,63.227,659.318,60.544z"/><path d="M772.702,103.784c-2.425,5.106-5.646,9.514-9.67,13.227c-4.022,3.714-8.688,6.603-13.999,8.664	c-5.313,2.064-10.906,3.095-16.785,3.095c-4.851,0-9.878-1.186-15.084-3.559c-5.209-2.372-9.979-5.466-14.311-9.283	c-4.332-3.813-7.916-8.146-10.753-12.994c-2.837-4.848-4.254-9.746-4.254-14.697c0-7.527,0.696-14.001,2.089-19.416	s3.635-10.002,6.729-13.77c3.097-3.764,7.168-6.857,12.223-9.281c5.052-2.422,11.24-4.409,18.564-5.957l2.012-0.155	c6.6-0.515,12.736,0.44,18.409,2.862c5.671,2.424,10.621,5.828,14.853,10.21c4.228,4.385,7.554,9.566,9.979,15.547	c2.422,5.982,3.635,12.273,3.635,18.874C776.338,93.135,775.123,98.678,772.702,103.784z M730.709,44.772	c-1.323,0.022-2.607,0.107-3.854,0.255l-0.001,78.102c1.246,0.269,2.53,0.456,3.854,0.567L730.709,44.772z M739.926,123.289	c2.754-0.488,5.301-1.316,7.639-2.487c4.021-2.012,7.396-4.691,10.132-8.046c2.731-3.35,4.796-7.243,6.189-11.679	c1.391-4.434,2.086-9.127,2.086-14.078c0-5.052-0.748-10.105-2.241-15.161c-1.496-5.052-3.714-9.591-6.652-13.613	s-6.552-7.271-10.83-9.747c-1.971-1.141-4.078-2.018-6.322-2.633V123.289z M737.243,45.247c-1.247-0.219-2.53-0.363-3.854-0.433	v79.003c0.084,0,0.167,0,0.25,0c1.235,0,2.438-0.056,3.604-0.166L737.243,45.247z M724.194,45.447	c-2.396,0.478-4.638,1.203-6.723,2.179c-4.074,1.91-7.503,4.54-10.287,7.892c-2.785,3.353-4.926,7.22-6.421,11.602	c-1.496,4.385-2.242,9.051-2.242,14.001c0,5.158,0.773,10.264,2.32,15.315c1.547,5.054,3.841,9.617,6.885,13.69	c3.041,4.076,6.729,7.375,11.061,9.902c1.708,0.996,3.51,1.795,5.409,2.397L724.194,45.447z"/><path d="M868.11,43.759c-0.052-0.051-0.181-0.023-0.386,0.078c-1.446,0.413-2.966,0.929-4.564,1.547	c-1.6,0.619-2.396,1.702-2.396,3.249l0.154,37.284v6.343c0,5.982-0.104,11.889-0.311,17.714c-0.208,5.827-0.568,11.68-1.082,17.559	c0,0.208-0.131,0.387-0.388,0.541c-0.258,0.154-0.489,0.13-0.695-0.077c-4.951-4.229-9.899-8.792-14.852-13.691	c-4.951-4.896-9.824-9.9-14.62-15.006c-4.795-5.104-9.514-10.261-14.155-15.47c-4.64-5.207-9.076-10.288-13.305-15.239	c-1.444-1.547-2.733-3.017-3.867-4.408c-1.136-1.394-2.425-2.862-3.868-4.409c-0.309,2.785-0.464,5.468-0.464,8.045	c0,3.92,0.051,7.839,0.155,11.757c0.102,3.92,0.256,7.839,0.464,11.757c0.206,3.921,0.36,7.839,0.464,11.757	c0.104,3.921,0.155,7.891,0.155,11.913c0,1.755,0.155,3.171,0.464,4.254c0.311,1.083,0.696,1.935,1.16,2.554	c0.464,0.618,1.029,1.058,1.702,1.314c0.669,0.259,1.364,0.44,2.088,0.541c0.825,0.208,1.648,0.439,2.477,0.696	c0.823,0.259,1.802,0.8,2.938,1.624c0.206,0.207,0.281,0.438,0.231,0.697c-0.053,0.258-0.231,0.386-0.543,0.386	c-1.03-0.103-2.037-0.204-3.016-0.311c-0.981-0.101-1.986-0.205-3.019-0.309c-1.443-0.205-2.914-0.36-4.408-0.465	c-1.496-0.103-2.967-0.154-4.409-0.154c-1.855,0-3.765,0.131-5.725,0.387c-1.96,0.26-3.92,0.541-5.879,0.852	c-0.309,0.104-0.54,0-0.694-0.311c-0.155-0.309-0.131-0.565,0.076-0.772c0.824-0.721,1.572-1.289,2.244-1.701	c0.669-0.411,1.313-0.773,1.934-1.084c1.236-0.618,2.345-1.47,3.326-2.552c0.979-1.083,1.47-2.81,1.47-5.184v-72.4l1.237-2.477	c0.103-0.206,0.257-0.359,0.465-0.464c0.205-0.102,0.359-0.051,0.464,0.154c11.239,11.656,22.123,23.128,32.644,34.421	c10.52,11.293,21.193,22.974,32.022,35.041v-0.464c0-4.743-0.026-9.438-0.077-14.078c-0.053-4.641-0.13-9.384-0.232-14.232	c-0.104-4.434-0.208-9.151-0.309-14.155c-0.104-5.001-0.154-9.72-0.154-14.155c0-1.752-0.183-3.171-0.543-4.254	c-0.361-1.083-0.851-1.908-1.47-2.477c-0.618-0.565-1.291-0.951-2.011-1.159c-0.724-0.206-1.445-0.36-2.166-0.465	c-0.825-0.102-1.572-0.232-2.243-0.387c-0.671-0.155-1.265-0.488-1.779-1.005c-0.207-0.206-0.231-0.464-0.076-0.774	c0.155-0.309,0.334-0.41,0.542-0.309c2.371,0.309,4.586,0.464,6.65,0.464c2.168,0,4.333,0,6.498,0c1.341,0,2.707-0.023,4.101-0.077	c1.393-0.051,2.809-0.023,4.254,0.077c0.517,0,1.083,0.027,1.701,0.078c0.619,0.053,1.187,0.077,1.702,0.077l0.311,1.238	C868.291,43.785,868.162,43.812,868.11,43.759z"/><path d="M926.684,118.945c-0.31,2.219-0.619,4.512-0.928,6.884c0,0.311-0.209,0.465-0.619,0.465l-0.155,0.154	c-0.826,0.309-1.496,0.464-2.011,0.464c-2.373,0-4.771-0.022-7.194-0.077c-2.425-0.052-4.822-0.078-7.193-0.078	c-2.063,0-4.075-0.023-6.032-0.075c-1.96-0.053-3.972-0.078-6.033-0.078c-2.785,0-5.597,0.025-8.433,0.078	c-2.838,0.052-5.646,0.13-8.431,0.23v-1.237c1.546,0,2.809-0.334,3.79-1.007c0.979-0.669,1.725-1.52,2.242-2.552	c0.516-1.03,0.852-2.191,1.006-3.481c0.155-1.287,0.231-2.603,0.231-3.943V50.334c0-2.062-0.489-3.402-1.47-4.021	c-0.981-0.619-2.037-1.135-3.172-1.547c-0.617-0.206-1.313-0.438-2.088-0.697c-0.772-0.256-1.574-0.644-2.396-1.16	c-0.208-0.206-0.286-0.438-0.232-0.696c0.051-0.256,0.232-0.387,0.541-0.387h44.091c0.41-0.206,0.853-0.387,1.314-0.542	c0.465-0.155,0.901-0.333,1.315-0.542c0.516-0.205,0.773,0,0.773,0.619c-0.312,2.683-0.698,5.182-1.161,7.503	c-0.464,2.32-0.955,4.667-1.47,7.039c-0.104,0.31-0.336,0.439-0.696,0.387c-0.362-0.051-0.542-0.231-0.542-0.542	c-0.207-3.609-1.445-5.979-3.712-7.117c-2.271-1.134-5.056-1.701-8.354-1.701h-12.222v31.715h17.944	c0.515,0,1.187-0.154,2.012-0.465c0.825-0.31,1.647-0.618,2.476-0.928c1.135-0.619,2.268-1.083,3.403-1.393	c0.515-0.205,0.772,0,0.772,0.618c-0.104,1.237-0.232,2.58-0.386,4.022c-0.155,1.445-0.337,2.784-0.542,4.022	c-0.208,1.236-0.362,2.527-0.463,3.868c-0.105,1.341-0.261,2.629-0.466,3.867c0,0.31-0.13,0.518-0.387,0.619	c-0.258,0.104-0.491,0.053-0.697-0.155c-0.516-0.515-0.85-1.029-1.004-1.547c-0.156-0.515-0.337-1.083-0.542-1.701	c-0.209-0.618-0.413-1.237-0.619-1.856c-0.208-0.619-0.567-1.185-1.083-1.701c-0.518-0.515-1.469-0.901-2.862-1.161	c-1.392-0.256-2.889-0.464-4.484-0.618c-1.602-0.154-3.172-0.231-4.72-0.231c-1.546,0-2.733,0-3.559,0h-4.642v31.869	c1.548,2.271,3.738,3.998,6.575,5.183c2.836,1.188,5.594,1.779,8.275,1.779c3.609,0,6.679-0.953,9.205-2.862	c2.526-1.907,4.201-4.614,5.028-8.122l1.237,0.31C927.404,114.434,926.992,116.729,926.684,118.945z"/><path d="M983.748,114.381c-1.907,2.992-4.33,5.544-7.27,7.659c-2.939,2.114-6.188,3.767-9.747,4.949	c-3.56,1.188-6.938,1.779-10.133,1.779c-1.548,0-3.172-0.18-4.872-0.542c-1.703-0.36-3.25-0.951-4.643-1.778	c-1.394-0.824-2.529-1.881-3.404-3.172c-0.876-1.289-1.314-2.912-1.314-4.873c0-1.238,0.13-2.477,0.387-3.713	c0.258-1.237,0.489-2.422,0.697-3.56l0.772-3.712c0-0.31,0.206-0.465,0.619-0.465c0.411,0,0.62,0.155,0.62,0.465v2.32	c0,2.166,0.463,4.076,1.391,5.724c0.929,1.651,2.111,3.07,3.559,4.254c1.443,1.188,3.119,2.064,5.027,2.632	c1.907,0.566,3.842,0.85,5.803,0.85c1.856,0,3.764-0.309,5.725-0.927c1.957-0.619,3.735-1.521,5.338-2.708	c1.597-1.186,2.913-2.63,3.943-4.331c1.028-1.702,1.547-3.583,1.547-5.647c0-1.958-0.464-3.892-1.393-5.801	c-0.928-1.907-2.166-3.841-3.713-5.801c-1.547-1.958-3.302-3.918-5.261-5.879c-1.959-1.958-3.971-3.918-6.032-5.879	c-2.166-2.062-4.331-4.15-6.498-6.266c-2.166-2.113-4.076-4.278-5.725-6.498c-1.65-2.216-2.991-4.46-4.022-6.729	c-1.031-2.268-1.546-4.587-1.546-6.961c0-3.504,0.979-6.521,2.939-9.051c1.957-2.525,4.383-4.588,7.271-6.188	c2.885-1.597,6.032-2.785,9.437-3.558c3.403-0.774,6.549-1.161,9.438-1.161c4.124,0,7.891,0.517,11.293,1.547	c0.311,0.208,0.466,0.413,0.466,0.618c-0.414,5.055-1.032,10.264-1.856,15.625c-0.104,0.309-0.312,0.465-0.619,0.465	c-0.311,0-0.518-0.156-0.619-0.465c-0.826-3.609-2.398-6.703-4.719-9.282c-2.319-2.577-5.391-3.868-9.205-3.868	c-3.92,0-7.193,1.264-9.822,3.79c-2.63,2.529-3.945,5.75-3.945,9.668c0,2.065,0.438,3.972,1.315,5.725	c0.874,1.756,2.011,3.457,3.401,5.105c1.395,1.651,3.019,3.275,4.875,4.873c1.855,1.601,3.763,3.225,5.725,4.874	c2.165,1.755,4.304,3.584,6.42,5.492c2.112,1.909,3.996,3.92,5.646,6.034c1.648,2.114,2.99,4.357,4.022,6.729	c1.028,2.374,1.547,4.95,1.547,7.735C986.611,108.091,985.656,111.391,983.748,114.381z"/></g><path d="M432.162,99.897c-1.377,2.9-3.208,5.406-5.496,7.518c-2.285,2.11-4.938,3.75-7.957,4.923	c-3.021,1.173-6.198,1.76-9.541,1.76c-2.755,0-5.613-0.674-8.571-2.022c-2.961-1.348-5.671-3.106-8.134-5.276	c-2.462-2.167-4.5-4.63-6.11-7.385c-1.612-2.755-2.418-5.54-2.418-8.353c0-4.279,0.396-7.959,1.188-11.037	c0.792-3.077,2.066-5.685,3.824-7.824c1.76-2.14,4.074-3.898,6.947-5.275c2.871-1.377,6.388-2.506,10.551-3.386l1.144-0.088	c3.75-0.292,7.239,0.25,10.464,1.626c3.223,1.379,6.037,3.313,8.439,5.804c2.403,2.493,4.293,5.438,5.671,8.837	c1.376,3.399,2.066,6.976,2.066,10.727C434.229,93.845,433.539,96.996,432.162,99.897z M408.295,66.357	c-0.751,0.013-1.48,0.062-2.189,0.146v44.39c0.708,0.151,1.438,0.259,2.188,0.322L408.295,66.357z M413.533,110.983	c1.566-0.277,3.014-0.748,4.342-1.413c2.286-1.146,4.205-2.667,5.759-4.573c1.553-1.904,2.727-4.117,3.519-6.638	c0.791-2.521,1.187-5.188,1.187-8.003c0-2.871-0.425-5.743-1.275-8.615c-0.85-2.872-2.11-5.452-3.78-7.738	c-1.671-2.287-3.724-4.133-6.155-5.54c-1.12-0.646-2.318-1.146-3.595-1.496V110.983z M412.01,66.627	c-0.708-0.124-1.439-0.205-2.189-0.246v44.902c0.047,0,0.094,0,0.141,0c0.703,0,1.387-0.031,2.05-0.095L412.01,66.627z M404.594,66.742c-1.362,0.271-2.636,0.684-3.82,1.238c-2.316,1.086-4.264,2.581-5.847,4.484c-1.583,1.905-2.801,4.104-3.649,6.594	c-0.851,2.491-1.275,5.144-1.275,7.958c0,2.932,0.44,5.832,1.32,8.703c0.878,2.873,2.183,5.467,3.912,7.781	c1.729,2.318,3.826,4.193,6.287,5.628c0.97,0.567,1.995,1.021,3.074,1.364L404.594,66.742z"/></svg>