<?xml version="1.0" encoding="utf-8"?>
<!-- Generator: Adobe Illustrator 16.0.0, SVG Export Plug-In . SVG Version: 6.00 Build 0)  -->
<!DOCTYPE svg PUBLIC "-//W3C//DTD SVG 1.1//EN" "http://www.w3.org/Graphics/SVG/1.1/DTD/svg11.dtd">
<svg version="1.1" id="Layer_1" xmlns="http://www.w3.org/2000/svg" xmlns:xlink="http://www.w3.org/1999/xlink" x="0px" y="0px"
	 width="576px" height="216px" viewBox="0 0 576 216" enable-background="new 0 0 576 216" xml:space="preserve">
<g>
	<circle fill="#00AEEF" cx="123.781" cy="108" r="49.914"/>
	<g>
		<path fill="#FFFFFF" d="M137.29,125.146c-1.671,2.262-3.571,3.924-5.7,4.982c-2.129,1.061-4.63,1.588-7.503,1.588
			c-6.295,0-11.395-2.184-15.296-6.555c-3.902-4.369-5.853-10.109-5.853-17.222c0-7.172,1.946-12.908,5.838-17.207
			c3.892-4.299,9.077-6.449,15.557-6.449c5.643,0,10.248,1.35,13.814,4.049c3.565,2.701,5.684,6.414,6.357,11.143h-9.444
			c-0.571-2.344-1.737-4.127-3.5-5.35c-1.763-1.223-4.061-1.834-6.892-1.834c-3.77,0-6.729,1.381-8.878,4.141
			c-2.15,2.762-3.225,6.576-3.225,11.447c0,4.89,1.12,8.72,3.362,11.492c2.241,2.771,5.318,4.156,9.23,4.156
			c2.934,0,5.389-0.865,7.366-2.598c1.976-1.73,3.199-4.105,3.668-7.121h-10.208v-7.703h18.644v24.361h-6.205L137.29,125.146z"/>
	</g>
</g>
<g>
	<circle fill="#00AEEF" cx="233.26" cy="108" r="49.914"/>
	<g>
		<path fill="#FFFFFF" d="M252.466,115c-0.347,5.115-2.318,9.18-5.915,12.195s-8.288,4.521-14.074,4.521
			c-6.663,0-11.843-2.076-15.541-6.232c-3.698-4.158-5.547-9.984-5.547-17.484c0-7.66,1.885-13.529,5.654-17.604
			s9.189-6.113,16.26-6.113c5.746,0,10.284,1.4,13.616,4.203c3.332,2.801,5.16,6.758,5.486,11.873h-9.138
			c-0.387-2.547-1.426-4.488-3.118-5.822s-3.973-2.002-6.846-2.002c-4.076,0-7.172,1.314-9.292,3.943
			c-2.119,2.627-3.178,6.469-3.178,11.521c0,4.89,1.054,8.671,3.163,11.339c2.109,2.67,5.109,4.004,9.001,4.004
			c2.812,0,5.114-0.719,6.907-2.154c1.792-1.436,2.954-3.5,3.484-6.189H252.466z"/>
	</g>
</g>
<g>
	<circle fill="#00AEEF" cx="342.74" cy="108" r="49.914"/>
	<g>
		<path fill="#FFFFFF" d="M324.188,130.512V85.491h9.688l18.277,30.929V85.491h9.139v45.021h-9.566l-18.398-30.931v30.931H324.188z"
			/>
	</g>
</g>
<g>
	<circle fill="#00AEEF" cx="452.219" cy="108" r="49.914"/>
	<g>
		<path fill="#FFFFFF" d="M457.613,130.512h-9.26V113.73l-16.352-28.24h11.338l9.627,19.408l8.895-19.408h10.576l-14.824,28.24
			V130.512z"/>
	</g>
</g>
</svg>
