<?xml version="1.0" encoding="iso-8859-1"?><!-- Generator: Adobe Illustrator 16.0.0, SVG Export Plug-In . SVG Version: 6.00 Build 0) --><!DOCTYPE svg PUBLIC "-//W3C//DTD SVG 1.1//EN" "http://www.w3.org/Graphics/SVG/1.1/DTD/svg11.dtd"><svg version="1.1" id="Layer_1" xmlns="http://www.w3.org/2000/svg" xmlns:xlink="http://www.w3.org/1999/xlink" x="0px" y="0px" width="3429.556px" height="3429.59px" viewBox="42.704 47.348 3429.556 3429.59" style="enable-background:new 42.704 47.348 3429.556 3429.59;" xml:space="preserve"><g id="Layer_x0020_1"><ellipse style="fill:#FEFEFE;" cx="1759.32" cy="1762.488" rx="1712.736" ry="1714.248"/><g id="__x0023_3a73b8ff"><path d="M1633.392,52.128c338.328-25.775,683.641,53.28,977.328,223.128c234.936,135.433,438.048,326.521,585.072,554.616	c182.592,278.856,279.216,612.648,276.408,945.937c-2.16,348.336-113.041,695.376-315.648,978.984	c-205.488,290.879-504.288,514.943-841.464,629.567c-299.521,103.608-627.696,119.88-936.72,50.688	c-324.072-72.217-625.104-242.713-855.36-481.752c-244.08-252.792-409.248-581.761-459.721-929.881	c-49.607-310.031-8.567-633.527,112.536-922.823C288.288,831.456,471.385,592.92,700.633,412.92	C966.312,203.4,1295.713,75.6,1633.392,52.2 M1632.961,134.496c-201.024,14.4-398.809,68.184-580.536,155.16	C759.961,430.633,509.904,659.593,347.76,941.112C106.2,1347.12,59.544,1860.984,217.944,2305.44	c101.592,289.008,287.064,546.84,526.896,737.136c278.64,221.041,631.151,348.408,987.12,351.433	c259.92,5.688,521.063-53.353,753.119-170.353c295.633-146.304,544.033-385.632,702.864-674.567	c158.688-286.849,228.312-622.944,192.96-949.032c-46.943-529.272-377.567-1019.664-844.056-1271.017	c-273.601-150.768-592.128-219.815-903.672-194.399L1632.961,134.496z"/><path d="M1344.385,289.584c284.976-79.56,593.424-76.176,875.304,14.832c12.24,3.816,21.672,12.816,31.32,20.952	c-46.513-3.384-89.208-24.479-134.929-32.328c-115.271-23.04-234.647-34.416-351.432-16.992	c-73.152,13.177-149.976,41.473-196.416,102.601c-34.92,45.36-38.664,116.712,1.872,159.768c45,47.593,124.776,45,174.601,6.553	c58.896-43.2,115.992-94.752,189.432-110.809c149.328-37.008,305.928-7.271,450.576,35.784	C2558.377,517.32,2722.68,603,2855.953,724.536c222.119,196.2,355.535,477.864,406.224,766.656	c44.136,246.456,30.888,503.928-45.576,742.752c-2.664,11.16-9.864,17.712-21.456,19.512	c44.352-162.575,77.328-335.159,44.137-503.063c-17.425-81.072-57.312-172.44-142.633-200.088	c-65.304-23.112-144.792,21.744-150.048,92.735c-12.456,75.96,49.608,130.681,88.272,187.561	c83.016,119.16,72.72,273.672,52.416,410.4c-38.16,185.111-99.937,369.359-212.04,523.584	c-173.089,248.399-448.704,412.344-740.017,482.399c-253.152,60.553-521.496,60.12-774.216-2.16	c-33.265-9.936-71.063-14.399-96.912-39.888c48.168-0.071,92.88,20.808,140.04,28.296c128.809,23.4,263.448,37.944,392.112,5.688	c58.319-16.055,117.432-43.848,154.079-93.815c33.984-46.655,33.265-118.008-8.495-159.696	c-36.144-38.159-96.408-46.008-142.632-21.96c-54.937,29.736-96.912,78.624-152.928,106.776	c-113.041,54.936-244.225,46.872-364.896,26.496c-200.016-39.312-397.656-111.816-558.864-239.4	c-214.128-164.592-362.376-404.567-435.024-663.048c-76.896-270.576-77.399-561.384-7.271-833.4	c12.096-28.151,7.487-72.647,39.6-86.04c-41.04,155.448-73.439,318.385-48.528,479.377	c12.673,71.495,37.729,147.239,96.912,193.68c41.04,33.912,105.192,46.296,150.553,13.752	c48.384-28.296,64.368-95.473,41.832-145.08c-23.616-55.944-71.64-96.696-99.072-150.552	c-59.4-108.504-52.848-238.032-37.08-356.832c33.192-190.296,97.704-378.288,209.952-537.048	C801,530.64,1063.297,365.4,1344.24,289.511 M1382.76,867.24c-92.88,50.04-156.672,139.464-203.4,231.696	c-49.608,94.824-70.128,200.736-79.92,306.216c-45.792-6.12-82.728-41.688-93.239-86.256	c-21.385-65.16,1.224-132.048,12.815-196.416c5.185-18.648-9-33.912-16.56-49.248c-38.953-2.376-78.769,16.776-96.48,52.561	c-53.064,99.144-48.384,232.991,24.984,320.976c42.048,53.28,108.504,79.56,174.527,86.616	c22.248,68.615,65.809,135.576,135.792,162.504c85.608,34.488,179.568-1.656,254.017-46.656	c-2.664,27.576-4.176,55.872-13.752,82.152c-26.137,21.023-57.961,33.336-87.192,49.607	c-143.496,75.672-289.728,151.849-410.399,262.008c-87.912,82.513-157.033,192.24-170.28,313.776	c-6.408,95.544,31.607,200.448,115.344,252.937c87.479,57.96,202.824,54.72,298.151,18.792	c120.24-45.792,209.881-147.744,269.137-259.057c87.695-157.536,102.672-341.28,115.416-517.536	c3.527-20.592-0.864-49.823,23.4-58.752c143.207-80.496,282.384-168.191,415.439-264.672c15.768,19.368,31.32,38.88,46.152,58.896	c-68.473,40.824-136.801,84.888-188.496,146.735c-193.393,211.536-196.561,574.561,6.119,780.984	c103.608,109.296,262.944,156.096,410.4,134.208c135.576-19.296,258.84-104.544,327.24-222.696	c91.225-150.479,76.248-360.936-42.264-492.264c-110.881-122.472-326.736-120.096-435.168,4.248	c-85.32,89.712-88.057,248.4,0.936,336.312c36.072,35.929,98.856,57.744,144.145,26.712c29.231-21.023,26.424-66.023,2.88-90.359	c-30.456-36.792-66.528-79.416-57.384-130.752c9.144-66.816,83.808-107.784,146.735-93.601	c53.856,8.424,96.912,50.473,116.929,99.792c47.159,112.248,20.447,251.28-64.225,338.688	c-89.712,93.6-245.808,108.288-354.096,38.952c-96.192-59.185-150.912-168.912-167.76-277.849	c-17.713-131.327,7.487-272.951,88.92-380.016c52.416-67.752,125.567-123.408,209.735-143.496	c70.704,5.4,143.929,18.145,213.192-4.464c32.544-11.088,64.224-47.592,47.664-83.232c-17.928-36.575-61.992-47.592-98.641-55.224	c-54.791-10.872-109.296,3.744-162.936,13.968c-37.439-12.815-57.168-52.128-71.064-86.76	c104.041-77.76,206.856-162.216,277.561-272.736c41.04-66.456,67.752-147.96,48.527-226.008	c-15.264-51.696-57.6-95.688-111.743-105.479c-90.145-22.681-182.376,22.823-243.648,87.336	c-98.424,106.848-148.392,254.951-143.856,399.384c-1.367,29.88,10.225,61.128,1.729,89.856	c-73.8,59.472-156.312,107.352-235.729,158.76c-45.72,26.496-89.207,57.096-137.735,78.552	c0.864-46.008,3.239-92.664,16.344-137.017c34.92-47.808,78.841-89.352,106.632-142.416	c20.305-36.575,39.456-82.943,18.36-123.336c-19.368-29.951-62.28-27.071-90.36-12.096	c-59.904,30.024-92.736,93.456-116.928,152.928c-16.561,38.017-18.432,85.177-53.855,112.104	c-49.32,43.128-108.793,86.4-177.408,83.952c-39.168,0.216-65.305-36.721-73.584-71.28	c108.432-42.048,198.863-120.6,272.231-209.304c67.896-87.264,121.896-190.296,130.968-301.968	c5.112-56.305-15.047-120.024-66.455-149.473c-64.225-35.063-144.793-25.056-207.793,8.064L1382.76,867.24z"/><path d="M1444.969,970.56c25.199-19.08,66.744-11.016,78.624,19.8c9.216,37.944-4.752,76.392-20.952,110.232	c-45.936,93.672-114.408,174.96-192.744,243.144c-19.368,17.712-41.977,31.536-65.88,42.048	c3.24-83.304,31.824-163.655,67.248-238.319C1344.24,1081.224,1382.328,1013.184,1444.969,970.56z"/><path d="M2255.041,1003.104c22.248-25.704,60.623-51.408,94.607-33.912c37.296,22.104,17.856,71.496,3.096,101.736	c-51.264,94.607-127.367,174.384-209.88,242.496c-1.224-112.248,38.952-225.217,112.104-310.393L2255.041,1003.104z"/><path d="M1145.664,2091.744c96.696-81.359,203.977-151.199,318.744-204.264c-12.096,126.936-41.832,252.792-89.855,370.872	c-41.112,95.112-102.168,193.104-203.328,232.056c-52.416,19.656-120.816,32.04-166.248-9.432	c-42.984-38.16-40.104-102.816-27.576-154.008c26.137-95.473,96.264-170.712,168.192-235.225H1145.664z"/></g></g></svg>