<?xml version="1.0" encoding="utf-8"?>
<!-- Generator: Adobe Illustrator 16.0.0, SVG Export Plug-In . SVG Version: 6.00 Build 0)  -->
<!DOCTYPE svg PUBLIC "-//W3C//DTD SVG 1.1//EN" "http://www.w3.org/Graphics/SVG/1.1/DTD/svg11.dtd">
<svg version="1.1" id="katman_1" xmlns="http://www.w3.org/2000/svg" xmlns:xlink="http://www.w3.org/1999/xlink" x="0px" y="0px"
	 width="99px" height="21px" viewBox="0 0 99 21" enable-background="new 0 0 99 21" xml:space="preserve">
<g>
	<path fill="#ED7E85" d="M8.11,11.903c0-0.399,0.125-0.724,0.377-0.975c0.251-0.251,0.585-0.377,1.001-0.377h3.198
		c0.485,0,0.854,0.104,1.105,0.312c0.251,0.208,0.377,0.546,0.377,1.014v5.07c-0.208,0.347-0.459,0.676-0.754,0.988
		c-0.295,0.312-0.659,0.589-1.092,0.832c-0.434,0.242-0.949,0.433-1.547,0.571s-1.313,0.208-2.145,0.208
		c-1.075,0-2.024-0.165-2.847-0.494s-1.517-0.779-2.08-1.352s-0.988-1.239-1.274-2.002S2,14.122,2,13.255v-4.55
		c0-0.849,0.138-1.66,0.416-2.431c0.277-0.771,0.693-1.443,1.248-2.015c0.555-0.572,1.239-1.027,2.054-1.365
		c0.814-0.338,1.759-0.507,2.834-0.507c0.988,0,1.872,0.143,2.652,0.429c0.78,0.286,1.369,0.637,1.768,1.053
		c0.312,0.347,0.464,0.685,0.455,1.014s-0.126,0.602-0.351,0.819s-0.529,0.342-0.91,0.377c-0.382,0.035-0.771-0.078-1.17-0.338
		c-0.295-0.19-0.68-0.342-1.157-0.455C9.362,5.173,8.924,5.117,8.526,5.117c-0.988,0-1.816,0.273-2.483,0.819
		C5.375,6.482,5.042,7.345,5.042,8.523v4.94c0,0.572,0.091,1.07,0.273,1.495c0.182,0.425,0.438,0.776,0.767,1.053
		c0.329,0.278,0.706,0.481,1.131,0.611c0.424,0.13,0.888,0.195,1.391,0.195c0.502,0,0.905-0.039,1.209-0.117
		c0.303-0.078,0.593-0.195,0.871-0.352l0.468-0.338v-2.756H9.488c-0.416,0-0.75-0.126-1.001-0.377
		C8.235,12.627,8.11,12.303,8.11,11.903z"/>
	<path fill="#ED7E85" d="M28.312,11.305c0,0.815-0.156,1.386-0.468,1.716c-0.312,0.329-0.832,0.494-1.56,0.494h-6.162v0.676
		c0,0.832,0.255,1.499,0.767,2.002c0.511,0.503,1.235,0.754,2.171,0.754c0.468,0,0.897-0.03,1.287-0.091
		c0.39-0.061,0.697-0.144,0.923-0.247c0.243-0.121,0.477-0.243,0.702-0.364c0.225-0.121,0.433-0.182,0.624-0.182
		c0.346,0,0.615,0.104,0.806,0.312s0.295,0.477,0.312,0.806c0,0.278-0.121,0.556-0.364,0.832c-0.243,0.278-0.572,0.529-0.988,0.755
		c-0.416,0.225-0.906,0.411-1.469,0.559c-0.563,0.147-1.166,0.221-1.807,0.221c-0.884,0-1.69-0.139-2.418-0.416
		c-0.728-0.276-1.356-0.649-1.885-1.118c-0.529-0.468-0.94-1.018-1.235-1.65s-0.442-1.305-0.442-2.016v-2.755
		c0-0.763,0.143-1.482,0.429-2.158c0.286-0.676,0.68-1.265,1.183-1.768c0.502-0.502,1.1-0.901,1.794-1.196
		c0.693-0.294,1.456-0.442,2.288-0.442c0.988,0,1.829,0.16,2.522,0.481c0.693,0.321,1.261,0.737,1.703,1.248S27.792,8.835,28,9.459
		S28.312,10.699,28.312,11.305z M22.773,8.549c-0.78,0-1.4,0.247-1.859,0.741c-0.459,0.494-0.724,1.148-0.793,1.963h5.304v-0.39
		c0-0.711-0.247-1.274-0.741-1.69C24.19,8.757,23.554,8.549,22.773,8.549z"/>
	<path fill="#ED7E85" d="M32.601,6.287V3.609c0-0.312,0.138-0.593,0.416-0.845c0.277-0.251,0.658-0.377,1.144-0.377
		c0.451,0,0.81,0.126,1.079,0.377c0.269,0.251,0.403,0.533,0.403,0.845v2.678h1.924c0.294,0,0.555,0.108,0.78,0.325
		s0.338,0.498,0.338,0.845c0,0.381-0.113,0.681-0.338,0.897c-0.225,0.217-0.485,0.325-0.78,0.325h-1.924v6.292
		c0,0.729,0.095,1.223,0.286,1.482c0.19,0.26,0.468,0.39,0.832,0.39c0.347,0,0.641-0.029,0.884-0.091
		c0.242-0.061,0.52-0.091,0.832-0.091c0.398,0,0.689,0.108,0.871,0.325c0.182,0.217,0.273,0.516,0.273,0.896
		c0,0.33-0.087,0.599-0.26,0.807c-0.173,0.208-0.403,0.377-0.689,0.507s-0.616,0.221-0.988,0.272
		c-0.373,0.053-0.767,0.078-1.183,0.078c-1.352,0-2.34-0.351-2.964-1.053c-0.624-0.702-0.936-1.911-0.936-3.627V8.679h-1.04
		c-0.295,0-0.555-0.108-0.78-0.325c-0.226-0.216-0.338-0.516-0.338-0.897c0-0.347,0.112-0.628,0.338-0.845
		c0.225-0.217,0.485-0.325,0.78-0.325H32.601z"/>
	<path fill="#ED7E85" d="M43.312,6.287v-0.78c0-1.629,0.394-2.773,1.183-3.432c0.789-0.659,1.945-0.988,3.471-0.988
		c0.381,0,0.745,0.035,1.092,0.104c0.347,0.07,0.654,0.178,0.923,0.325c0.269,0.147,0.481,0.325,0.637,0.533
		c0.156,0.208,0.234,0.442,0.234,0.702c0,0.382-0.1,0.685-0.299,0.91c-0.2,0.226-0.499,0.338-0.897,0.338
		c-0.295,0-0.559-0.035-0.793-0.104c-0.234-0.069-0.533-0.104-0.897-0.104c-0.607,0-1.031,0.122-1.274,0.364
		s-0.364,0.659-0.364,1.248v0.884h2.002c0.294,0,0.555,0.108,0.78,0.325s0.338,0.498,0.338,0.845c0,0.381-0.113,0.681-0.338,0.897
		c-0.225,0.217-0.485,0.325-0.78,0.325h-2.002v9.646c0,0.312-0.135,0.594-0.403,0.845s-0.62,0.377-1.053,0.377
		c-0.485,0-0.867-0.126-1.144-0.377c-0.277-0.251-0.416-0.533-0.416-0.845V8.679h-0.91c-0.295,0-0.555-0.108-0.78-0.325
		c-0.226-0.216-0.338-0.516-0.338-0.897c0-0.347,0.112-0.628,0.338-0.845c0.225-0.217,0.485-0.325,0.78-0.325H43.312z"/>
	<path fill="#ED7E85" d="M51.944,11.981c0-0.814,0.117-1.582,0.351-2.301c0.234-0.719,0.589-1.352,1.066-1.898
		c0.477-0.546,1.087-0.975,1.833-1.287c0.745-0.312,1.629-0.468,2.652-0.468c1.005,0,1.88,0.156,2.626,0.468
		c0.745,0.312,1.36,0.741,1.846,1.287c0.485,0.546,0.845,1.179,1.079,1.898c0.234,0.719,0.351,1.486,0.351,2.301v1.794
		c0,0.779-0.117,1.517-0.351,2.21c-0.234,0.693-0.594,1.3-1.079,1.819c-0.486,0.521-1.101,0.933-1.846,1.235
		c-0.746,0.303-1.621,0.455-2.626,0.455c-1.023,0-1.907-0.152-2.652-0.455c-0.746-0.303-1.356-0.715-1.833-1.235
		c-0.477-0.52-0.832-1.126-1.066-1.819c-0.234-0.693-0.351-1.431-0.351-2.21V11.981z M55.012,13.801c0,0.954,0.251,1.69,0.754,2.21
		c0.502,0.521,1.196,0.78,2.08,0.78s1.577-0.26,2.08-0.78c0.502-0.52,0.754-1.256,0.754-2.21v-1.872c0-1.04-0.251-1.829-0.754-2.366
		c-0.503-0.537-1.196-0.806-2.08-0.806s-1.578,0.269-2.08,0.806c-0.503,0.538-0.754,1.326-0.754,2.366V13.801z"/>
	<path fill="#ED7E85" d="M72.614,8.861c-0.381,0-0.728,0.026-1.04,0.078c-0.312,0.052-0.577,0.156-0.793,0.312
		c-0.217,0.156-0.381,0.382-0.494,0.676c-0.113,0.295-0.169,0.676-0.169,1.144v7.254c0,0.312-0.134,0.594-0.403,0.845
		c-0.269,0.251-0.628,0.377-1.079,0.377c-0.468,0-0.845-0.126-1.131-0.377c-0.286-0.251-0.429-0.533-0.429-0.845v-7.15
		c0-1.646,0.442-2.916,1.326-3.809c0.884-0.893,2.288-1.339,4.212-1.339c0.884,0,1.556,0.173,2.015,0.52
		c0.459,0.347,0.637,0.832,0.533,1.456c-0.052,0.312-0.165,0.533-0.338,0.663C74.651,8.796,74.443,8.874,74.2,8.9
		c-0.243,0.026-0.503,0.026-0.78,0C73.143,8.874,72.874,8.861,72.614,8.861z"/>
	<path fill="#ED7E85" d="M90.84,6.053c1.005,0,1.837,0.143,2.496,0.429c0.659,0.286,1.179,0.685,1.56,1.196s0.65,1.118,0.806,1.82
		c0.156,0.702,0.234,1.46,0.234,2.275v6.552c0,0.312-0.139,0.594-0.416,0.845s-0.659,0.377-1.144,0.377
		c-0.433,0-0.784-0.126-1.053-0.377c-0.269-0.251-0.403-0.533-0.403-0.845v-6.656c0-0.953-0.178-1.655-0.533-2.106
		c-0.355-0.45-0.958-0.676-1.807-0.676c-1.508,0-2.262,0.927-2.262,2.782v6.76l-0.052,0.234l-0.052,0.078
		c-0.018,0.035-0.031,0.064-0.039,0.091c-0.009,0.026-0.031,0.057-0.065,0.091c-0.122,0.174-0.286,0.316-0.494,0.43
		c-0.208,0.112-0.451,0.177-0.728,0.194h-0.13c-0.399,0-0.728-0.096-0.988-0.286c-0.26-0.19-0.425-0.424-0.494-0.701l-0.026-0.053
		v-6.838c0-1.854-0.754-2.782-2.262-2.782c-0.867,0-1.474,0.226-1.82,0.676c-0.347,0.451-0.52,1.153-0.52,2.106v6.656
		c0,0.312-0.134,0.594-0.403,0.845c-0.269,0.251-0.628,0.377-1.079,0.377c-0.468,0-0.845-0.126-1.131-0.377
		s-0.429-0.533-0.429-0.845v-6.552c0-0.814,0.078-1.573,0.234-2.275c0.156-0.702,0.429-1.309,0.819-1.82s0.914-0.91,1.573-1.196
		c0.659-0.286,1.491-0.429,2.496-0.429s1.833,0.187,2.483,0.559c0.65,0.373,1.166,0.862,1.547,1.469
		c0.398-0.606,0.918-1.096,1.56-1.469C88.958,6.24,89.8,6.053,90.84,6.053z"/>
</g>
</svg>
