<?xml version="1.0" encoding="iso-8859-1"?><!-- Generator: Adobe Illustrator 16.0.0, SVG Export Plug-In . SVG Version: 6.00 Build 0) --><!DOCTYPE svg PUBLIC "-//W3C//DTD SVG 1.1//EN" "http://www.w3.org/Graphics/SVG/1.1/DTD/svg11.dtd"><svg version="1.1" id="Layer_1" xmlns="http://www.w3.org/2000/svg" xmlns:xlink="http://www.w3.org/1999/xlink" x="0px" y="0px" width="415.015px" height="49.077px" viewBox="0 0 415.015 49.077" style="enable-background:new 0 0 415.015 49.077;" xml:space="preserve"><g><path style="fill:#3CA6FE;" d="M56.049,43.215V5.825c0-1.941,0.442-3.398,1.328-4.37C58.262,0.484,59.407,0,60.811,0	c1.447,0,2.619,0.479,3.516,1.439s1.346,2.422,1.346,4.386v37.39c0,1.963-0.449,3.431-1.346,4.398	c-0.896,0.975-2.068,1.459-3.516,1.459c-1.382,0-2.522-0.492-3.418-1.475C56.496,46.618,56.049,45.155,56.049,43.215"/><path style="fill:#3CA6FE;" d="M317.484,49.073c-13.521,0-24.521-11-24.521-24.521c0-13.521,11.003-24.522,24.521-24.522	c13.521,0,24.521,11.001,24.521,24.522C342.005,38.073,331.008,49.073,317.484,49.073 M317.484,9.958	c-8.049,0-14.598,6.548-14.598,14.596c0,8.047,6.55,14.594,14.598,14.594c8.047,0,14.596-6.547,14.596-14.594	C332.08,16.505,325.531,9.958,317.484,9.958"/><path style="fill:#3CA6FE;" d="M207.402,49.073c-13.521,0-24.521-11-24.521-24.521c0-13.521,11-24.522,24.521-24.522	c13.521,0,24.521,11.001,24.521,24.522C231.924,38.073,220.924,49.073,207.402,49.073 M207.402,9.958	c-8.047,0-14.596,6.548-14.596,14.596c0,8.047,6.549,14.594,14.596,14.594c8.049,0,14.596-6.547,14.596-14.594	C221.998,16.505,215.451,9.958,207.402,9.958"/><path style="fill:#3CA6FE;" d="M285.107,24.536L285.107,24.536V24.53c-0.004-5.412-1.771-10.418-4.746-14.478	c-4.332-5.906-11.238-9.804-19.049-10.035C261.07,0.011,260.828,0,260.582,0L248.27,0.015c-2.104,0-3.625,0.479-4.566,1.437	c-0.94,0.957-1.412,2.506-1.412,4.644v18.411v0.059v18.413c0,2.139,0.472,3.686,1.412,4.645c0.941,0.957,2.463,1.438,4.566,1.438	l12.312,0.016c0.246,0,0.488-0.012,0.73-0.02c7.811-0.229,14.717-4.127,19.049-10.033c2.978-4.061,4.742-9.064,4.746-14.478	L285.107,24.536 M262.322,39.028c-1.188,0.076-2.463,0.09-3.836,0.09h-6.439V24.567v-0.06V9.956h6.439	c1.373,0,2.646,0.015,3.836,0.091c4.256,0.509,7.953,2.853,10.277,6.221c1.614,2.347,2.567,5.183,2.576,8.24v0.024v0.004v0.007	v0.022c-0.009,3.061-0.962,5.896-2.576,8.24C270.275,36.176,266.578,38.518,262.322,39.028"/><path style="fill:#3CA6FE;" d="M168.993,0.219c-1.792-0.558-3.728,0.147-4.771,1.736l-14.787,22.523L134.652,1.955	c-1.045-1.589-2.981-2.294-4.772-1.736c-1.792,0.557-3.015,2.246-3.015,4.16v40.028c0,2.401,1.904,4.35,4.254,4.35	c2.351,0,4.254-1.945,4.254-4.35V18.665l10.497,15.988l0.021,0.033l0.014,0.02l0.041,0.059c0.064,0.097,0.133,0.189,0.207,0.283	l0.1,0.111c0.06,0.067,0.116,0.139,0.179,0.199c0.057,0.061,0.117,0.11,0.178,0.166l0.129,0.119	c0.084,0.068,0.17,0.133,0.258,0.193l0.072,0.057l0.011,0.008c0.094,0.062,0.19,0.12,0.289,0.178l0.081,0.051	c0.074,0.041,0.15,0.07,0.229,0.107c0.431,0.2,0.882,0.326,1.335,0.373l0.01,0.002c0.09,0.008,0.18,0.01,0.269,0.016l0.147,0.006	l0.148-0.006c0.09-0.006,0.18-0.008,0.27-0.016l0.01-0.002c0.455-0.047,0.904-0.173,1.336-0.373	c0.076-0.037,0.152-0.066,0.227-0.107l0.082-0.051c0.099-0.058,0.195-0.111,0.289-0.178l0.013-0.008l0.07-0.057	c0.088-0.062,0.174-0.125,0.258-0.193l0.133-0.121c0.059-0.054,0.117-0.104,0.172-0.162c0.064-0.062,0.121-0.134,0.181-0.201	l0.102-0.111c0.072-0.094,0.141-0.188,0.207-0.283l0.041-0.059l0.012-0.02l0.021-0.033L163.5,18.665v25.742	c0,2.401,1.904,4.35,4.255,4.35c2.35,0,4.256-1.945,4.256-4.35V4.379C172.01,2.465,170.785,0.776,168.993,0.219"/><path style="fill:#3CA6FE;" d="M112.388,48.073H80.591c-1.674,0-3.532-1.045-4.221-2.674c-0.688-1.628-0.829-3.844,0.651-5.605	l26.012-30.182h-21.49c-2.349,0-4.254-2.035-4.254-4.545c0-2.51,1.905-4.044,4.254-4.044h28.979c1.673,0,3.405,0.266,4.917,1.924	c1.384,1.515,1.322,4.784-0.226,6.733L90.079,38.985h22.311c2.35,0,4.06,2.034,4.06,4.545	C116.449,46.04,114.738,48.073,112.388,48.073"/><path style="fill:#3CA6FE;" d="M24.345,49.073c-7.057,0-13.456-2.799-18.02-7.877C2.305,36.721,0,30.823,0,25.016	C0,6.792,15.149,0,24.699,0c9.389,0,16.281,4.604,16.57,4.8c2.115,1.435,2.68,4.334,1.264,6.477	c-1.413,2.135-4.262,2.711-6.375,1.293c-0.123-0.08-5.012-3.232-11.459-3.232c-5.986,0-14.24,3.949-14.24,15.68	c0,6.674,4.963,14.543,14.064,14.543c5.12,0,8.72-1.363,10.812-2.695v-6.938h-7.091c-2.546,0-4.608-2.09-4.608-4.668	s2.062-4.668,4.608-4.668h11.7c2.545,0,4.608,2.09,4.608,4.668v13.884c0,1.265-0.504,2.471-1.398,3.353	C40.065,45.526,33.285,49.073,24.345,49.073"/><rect x="361.977" y="0.737" style="fill:#FFFFFF;" width="1" height="48.01"/><path style="fill:#3CA6FE;" d="M383.091,15.667h1.692v11.005c-0.023,4.135,1.941,5.703,5.205,5.703	c3.287,0,5.254-1.568,5.229-5.703V15.667h1.692v11.378c0,3.66-1.968,6.771-6.923,6.771c-4.933,0-6.898-3.111-6.898-6.771	L383.091,15.667L383.091,15.667z"/><path style="fill:#3CA6FE;" d="M400.324,15.667h1.691v9.562l10.335-9.562h2.291l-7.942,7.346l8.315,10.434h-2.189l-7.396-9.263	l-3.411,3.162v6.103h-1.691L400.324,15.667L400.324,15.667z"/></g></svg>