<?xml version="1.0" encoding="utf-8"?>
<!-- Generator: Adobe Illustrator 18.1.1, SVG Export Plug-In . SVG Version: 6.00 Build 0)  -->
<svg version="1.1" id="Layer_1" xmlns="http://www.w3.org/2000/svg" xmlns:xlink="http://www.w3.org/1999/xlink" x="0px" y="0px"
	 viewBox="-41 226.9 3567.9 512" enable-background="new -41 226.9 3567.9 512" xml:space="preserve">
<g>
	<path fill="#3CA6FE" d="M543.7,677.8V287.7c0-20.2,4.6-35.4,13.9-45.6c9.2-10.1,21.2-15.2,35.8-15.2c15.1,0,27.3,5,36.7,15
		c9.4,10,14,25.3,14,45.8v390.1c0,20.5-4.7,35.8-14,45.9c-9.3,10.2-21.6,15.2-36.7,15.2c-14.4,0-26.3-5.1-35.7-15.4
		C548.4,713.3,543.7,698,543.7,677.8"/>
	<path fill="#3CA6FE" d="M3271.1,738.9c-141.1,0-255.8-114.8-255.8-255.8s114.8-255.8,255.8-255.8c141.1,0,255.8,114.8,255.8,255.8
		S3412.2,738.9,3271.1,738.9 M3271.1,330.8c-84,0-152.3,68.3-152.3,152.3c0,83.9,68.3,152.3,152.3,152.3
		c83.9,0,152.3-68.3,152.3-152.3C3423.4,399.1,3355.1,330.8,3271.1,330.8"/>
	<path fill="#3CA6FE" d="M2122.7,738.9c-141.1,0-255.8-114.8-255.8-255.8s114.8-255.8,255.8-255.8c141.1,0,255.8,114.8,255.8,255.8
		C2378.5,624.1,2263.8,738.9,2122.7,738.9 M2122.7,330.8c-83.9,0-152.3,68.3-152.3,152.3c0,83.9,68.3,152.3,152.3,152.3
		c84,0,152.3-68.3,152.3-152.3C2275,399.1,2206.7,330.8,2122.7,330.8"/>
	<path fill="#3CA6FE" d="M2933.3,482.9L2933.3,482.9L2933.3,482.9c0-56.5-18.5-108.7-49.5-151.1c-45.2-61.6-117.2-102.3-198.7-104.7
		c-2.5-0.1-5-0.2-7.6-0.2l-128.4,0.2c-21.9,0-37.8,5-47.6,15c-9.8,10-14.7,26.1-14.7,48.4v192.1v0.6v192.1
		c0,22.3,4.9,38.5,14.7,48.5c9.8,10,25.7,15,47.6,15l128.4,0.2c2.6,0,5.1-0.1,7.6-0.2c81.5-2.4,153.5-43.1,198.7-104.7
		c31.1-42.4,49.5-94.6,49.5-151L2933.3,482.9 M2695.6,634.1c-12.4,0.8-25.7,0.9-40,0.9h-67.2V483.2v-0.6V330.8h67.2
		c14.3,0,27.6,0.2,40,0.9c44.4,5.3,83,29.8,107.2,64.9c16.8,24.5,26.8,54.1,26.9,86v0.3v0v0.1v0.2c-0.1,31.9-10,61.5-26.9,86
		C2778.6,604.3,2740,628.8,2695.6,634.1"/>
	<path fill="#3CA6FE" d="M1722,229.2c-18.7-5.8-38.9,1.5-49.8,18.1l-154.3,235l-154.2-235c-10.9-16.6-31.1-23.9-49.8-18.1
		c-18.7,5.8-31.5,23.4-31.5,43.4v417.6c0,25,19.9,45.4,44.4,45.4c24.5,0,44.4-20.3,44.4-45.4V421.6l109.5,166.8l0.2,0.3l0.1,0.2
		l0.4,0.6c0.7,1,1.4,2,2.2,3l1,1.2c0.6,0.7,1.2,1.5,1.9,2.1c0.6,0.6,1.2,1.1,1.9,1.7l1.3,1.2c0.9,0.7,1.8,1.4,2.7,2l0.8,0.6l0.1,0.1
		c1,0.6,2,1.3,3,1.9l0.8,0.5c0.8,0.4,1.6,0.7,2.4,1.1c4.5,2.1,9.2,3.4,13.9,3.9l0.1,0c0.9,0.1,1.9,0.1,2.8,0.2l1.5,0.1l1.5-0.1
		c0.9-0.1,1.9-0.1,2.8-0.2l0.1,0c4.7-0.5,9.4-1.8,13.9-3.9c0.8-0.4,1.6-0.7,2.4-1.1l0.9-0.5c1-0.6,2-1.2,3-1.9l0.1-0.1l0.7-0.6
		c0.9-0.6,1.8-1.3,2.7-2l1.4-1.3c0.6-0.6,1.2-1.1,1.8-1.7c0.7-0.6,1.3-1.4,1.9-2.1l1.1-1.2c0.8-1,1.5-2,2.2-3l0.4-0.6l0.1-0.2
		l0.2-0.3l109.4-166.8v268.6c0,25,19.9,45.4,44.4,45.4c24.5,0,44.4-20.3,44.4-45.4V272.6C1753.5,252.6,1740.7,235,1722,229.2"/>
	<path fill="#3CA6FE" d="M1131.5,728.4H799.8c-17.5,0-36.8-10.9-44-27.9c-7.2-17-8.6-40.1,6.8-58.5l271.4-314.9H809.7
		c-24.5,0-44.4-21.2-44.4-47.4s19.9-42.2,44.4-42.2H1112c17.5,0,35.5,2.8,51.3,20.1c14.4,15.8,13.8,49.9-2.4,70.2L898.7,633.6h232.8
		c24.5,0,42.4,21.2,42.4,47.4C1173.8,707.2,1156,728.4,1131.5,728.4"/>
	<path fill="#3CA6FE" d="M213,738.9c-73.6,0-140.4-29.2-188-82.2C-17,610-41,548.5-41,487.9c0-190.1,158-261,257.7-261
		c97.9,0,169.8,48,172.9,50.1c22.1,15,28,45.2,13.2,67.6c-14.7,22.3-44.5,28.3-66.5,13.5c-1.3-0.8-52.3-33.7-119.5-33.7
		c-62.4,0-148.6,41.2-148.6,163.6c0,69.6,51.8,151.7,146.7,151.7c53.4,0,91-14.2,112.8-28.1v-72.4h-74c-26.6,0-48.1-21.8-48.1-48.7
		s21.5-48.7,48.1-48.7h122.1c26.6,0,48.1,21.8,48.1,48.7v144.8c0,13.2-5.3,25.8-14.6,35C377,701.9,306.2,738.9,213,738.9"/>
</g>
</svg>
