<?xml version="1.0" encoding="utf-8"?>
<!-- Generator: Adobe Illustrator 19.2.0, SVG Export Plug-In . SVG Version: 6.00 Build 0)  -->
<svg version="1.1" id="Layer_1" xmlns="http://www.w3.org/2000/svg" xmlns:xlink="http://www.w3.org/1999/xlink" x="0px" y="0px"
	 viewBox="0 0 600 128" style="enable-background:new 0 0 600 128;" xml:space="preserve">
<style type="text/css">
	.st0{fill:#00C1D5;}
</style>
<g>
	<path class="st0" d="M322.3196106,119.848114c-4.9622498,4.96241-12.9335022,7.9821701-21.9704895,7.9821701
		c-9.740509,0-17.0136719-2.4783936-23.7400513-10.6392593v9.5730515h-17.7172241V0.5h18.0742798v45.3981171
		c6.5532837-7.8036499,13.9941101-10.1089706,23.5615234-10.1089706c9.037323,0,16.8297119,3.0143127,21.7919617,7.9821739
		c9.0372925,9.0427589,10.0979004,24.2926674,10.0979004,37.9462395
		C332.4171753,95.3712997,331.3511353,110.8053513,322.3196106,119.848114z M295.7381592,51.9267349
		c-16.2992554,0-18.777832,13.8320999-18.777832,29.7909927s2.478241,29.9695129,18.777832,29.9695129
		c16.2992249,0,18.6047363-14.010788,18.6047363-29.9695129C314.3428955,65.7588348,312.0431824,51.9267349,295.7381592,51.9267349z
		"/>
	<path class="st0" d="M394.8851929,126.7642441v-8.1608658c-6.5533142,6.5643616-12.7546692,9.2214584-23.9185791,9.2214584
		c-11.1585083,0-18.5989685-2.6625443-24.0974426-8.1552505c-4.6051941-4.7893372-7.0892334-11.699852-7.0892334-19.3304214
		c0-15.0768356,10.4549561-25.8947906,31.0078125-25.8947906h23.7400513v-6.3802185
		c0-11.3480797-5.6712341-16.8520279-19.6653442-16.8520279c-9.9190369,0-14.7085266,2.3109398-19.6653137,8.6911583
		l-11.8671265-11.1695557c8.5013733-9.9302711,17.3598328-12.9445839,32.2468872-12.9445839
		c24.6275635,0,37.0306091,10.4605675,37.0306091,30.8572006v60.1177292h-17.7223206V126.7642441z M394.5335999,87.0373611
		h-21.0829773c-10.6280212,0-16.1207275,4.7893372-16.1207275,12.9445801s5.1353149,12.765892,16.4781189,12.765892
		c6.9103394,0,12.0514526-0.5302963,16.8297119-5.1409378c2.657074-2.6625443,3.8962097-6.9161377,3.8962097-13.3018036v-7.2677307
		H394.5335999z"/>
	<path class="st0" d="M477.6208801,126.7642441V71.9716034c0-14.0107956-7.9709167-20.0392456-18.0688171-20.0392456
		s-18.6047363,6.2071457-18.6047363,20.0392456v54.7926407H422.878479V36.855526h17.7172546v9.0427589
		c6.2016907-6.7374382,14.8815918-10.1089668,23.9185791-10.1089668c9.2158203,0,16.835144,3.0143089,22.1493225,8.1552467
		c6.9049072,6.7374382,9.0315247,15.2499046,9.0315247,25.3588715v57.4551849h-18.0742798V126.7642441z"/>
	<path class="st0" d="M562.6624146,126.7642441l-25.15802-41.4962921l-13.2905884,15.0768356v26.4194565h-18.0742493V0.5001704
		h18.0742493v77.8516541l34.9039917-41.4962959h21.9650269l-31.1808472,35.2891502l35.0770874,54.6195679H562.6624146z"/>
</g>
<g>
	<path class="st0" d="M592.2467651,26.6571255c-4.2869873,0-7.7590332-3.4720364-7.7590332-7.759016
		s3.4720459-7.759017,7.7590332-7.759017S600,14.6111279,600,18.8981094S596.5279541,26.6571255,592.2467651,26.6571255z
		 M592.2467651,12.5347548c-3.5166626,0-6.2350464,2.7240362-6.2350464,6.3635244s2.7238159,6.3635254,6.2350464,6.3635254
		c3.5166626,0,6.2351074-2.7240372,6.2351074-6.3635254S595.7576294,12.5347548,592.2467651,12.5347548z M593.4245605,23.1404591
		l-1.0493164-3.4274044h-0.7478638v3.4274044h-1.3900146v-8.4398985h2.2271118c0.7089844,0,1.2449341,0.1730738,1.5852661,0.5135994
		c0.4299316,0.4521036,0.5580444,1.0941458,0.5580444,1.992732c0,0.8372612-0.0838013,1.4121857-0.5358887,1.886776
		c-0.105957,0.1284428-0.256897,0.2400208-0.4074707,0.3238316l1.2002563,3.7287502h-1.4401245V23.1404591z M592.9946289,16.2020092
		c-0.128479-0.1284428-0.3015137-0.2120838-0.5359497-0.2120838h-0.8374023v2.4448357h0.8374023
		c0.234436,0,0.4074707-0.089262,0.5359497-0.2177048c0.2122192-0.2343979,0.234375-0.5582294,0.234375-1.0047131
		C593.2290039,16.7769337,593.1843872,16.4364071,592.9946289,16.2020092z"/>
</g>
<g>
	<g>
		<path class="st0" d="M187.0740967,0.5056215c-30.259964,0-55.5740356,21.1667767-62.0043335,49.5120239H95.9875946H54.4689827
			l9.1766548,28.2949905H95.993042c-5.4535217,12.4868622-17.9011993,21.2226562-32.3865852,21.2226562
			c-19.5144005,0-35.3394012-15.8360748-35.3394012-35.3673401c0-19.5368881,15.8192081-35.3673401,35.3394012-35.3673401
			c7.9542351,0,15.2945366,2.6346035,21.1947136,7.0723438h35.7802582
			C110.1711197,14.9182653,88.574379,0.5056215,63.6064568,0.5056215C28.4789696,0.5056215,0,29.0070782,0,64.1679535
			c0,35.1552505,28.479311,63.6623306,63.6064568,63.6623306c29.8633919,0,54.8929787-20.6197891,61.7310982-48.3957291
			c6.8323212,27.781395,31.8786011,48.3957291,61.7477875,48.3957291c35.1329346,0,63.6066284-28.5070801,63.6066284-63.6623306
			C250.6861725,29.0070782,222.2070312,0.5056215,187.0740967,0.5056215z M168.1177521,98.1788101V31.172884l54.9655609,33.2405396
			L168.1177521,98.1788101z"/>
	</g>
</g>
</svg>
