<?xml version="1.0" encoding="iso-8859-1"?><!-- Generator: Adobe Illustrator 16.0.0, SVG Export Plug-In . SVG Version: 6.00 Build 0) --><!DOCTYPE svg PUBLIC "-//W3C//DTD SVG 1.1//EN" "http://www.w3.org/Graphics/SVG/1.1/DTD/svg11.dtd"><svg version="1.1" id="Layer_1" xmlns="http://www.w3.org/2000/svg" xmlns:xlink="http://www.w3.org/1999/xlink" x="0px" y="0px" width="145.3px" height="213.9px" viewBox="-0.3 0.4 145.3 213.9" style="enable-background:new -0.3 0.4 145.3 213.9;" xml:space="preserve"><title>godaddy</title><desc>Created with Sketch.</desc><g><g><g><path d="M125.9,108.4C121.199,94.5,114,79.5,102.1,70.1C90.4,61,76.301,57.3,62.1,57.3c-14.1,0-28.3,3.6-41,9.3	c-2.6,1.2-4,4.1-3.3,6.9L50,209.7c0.4,1.8,1.7,3.399,3.4,4.1c0.8,0.3,1.6,0.5,2.4,0.5c1,0,2-0.2,2.899-0.7	c6.7-3.6,12.4-7.6,14.4-9c2.201-1.5,3.701-1.8,5.701-1.899c4.299-0.3,11.1,3.399,20.699,3.6c2.1,0,4.301-0.2,6.6-0.7	c6.4-1.399,10.801-5.399,13-9.5c2.201-4.1,2.5-8,2.5-10.5c0-1-0.1-1.8-0.1-2.3c-0.1-3.399-1.1-6.3-2.301-9.3	c-1.898-4.5-4.398-9.1-6.299-13.1c-1.6-3.2-2.701-6.301-3-7.7c0.6-0.3,1.5-0.7,2.5-1c2.9-1,6.799-1.9,10.1-2.8	c1.699-0.4,3.199-0.9,4.699-1.5c0.801-0.301,1.5-0.7,2.5-1.4c0.5-0.4,1.102-0.9,1.602-1.7c0.6-0.899,1.1-2.2,1.1-3.7	C132.4,135,130.5,122.4,125.9,108.4z"/><path style="fill:#FFFFFF;" d="M97,77c-9.801-7.6-21.9-10.9-34.6-10.9c-11.8,0-24,2.8-35.1,7.6L58.2,203.9	c4.8-2.801,8.7-5.5,10.3-6.601c3.6-2.5,7.301-3.5,10.801-3.5c7.5,0.101,13.799,3.601,20.699,3.5c1.5,0,3-0.2,4.6-0.5	c4.1-1,5.9-2.899,7.1-5c1.201-2.2,1.4-4.7,1.4-6.3c0-0.5,0-0.9-0.1-1.2v-1c0.1-2.7-2.6-8.6-5.5-14.3	c-2.9-5.8-6.1-11.4-6.199-16.6c0-1.9,0.6-4.101,2.299-5.601c2.9-2.399,7.101-3.5,11.4-4.7c3.6-0.899,7.301-1.8,8.9-2.5	c-0.301-5.199-2.1-16.699-6.1-28.5C113.5,98.1,106.6,84.4,97,77z"/><path d="M112.301,185.3c-11-1.5-18.602-4.7-24.5-9.6c-6-4.9-10.301-11.2-15.401-18.7c-0.9-1.3-0.6-3.1,0.7-4s3.099-0.6,4,0.7	c5.201,7.5,9.301,13.3,14.4,17.5s11.4,7,21.699,8.399c1.602,0.2,2.701,1.7,2.5,3.2c-0.199,1.5-1.398,2.5-2.898,2.5	C112.5,185.3,112.4,185.3,112.301,185.3z"/><path d="M23.8,77.4c-2.9,1.8-4.7,4.1-6.5,5.4c-1.9,1.6-2.2,3.3-2.3,5c0,0.7,0.1,1.4,0.5,2.2c0.3,0.8,1.2,1.9,2.7,2.3	c2.5,0.6,4.8,0.9,7,0.9H26.3L23.8,77.4z"/><path d="M51,83.8c2.4-1.4,5.5-2.5,8.3-3.7c0.6-0.2,1.1-1.4,0.899-2.4c-0.1-0.6-0.5-1.4-0.8-1.5c-2.3-0.5-3.9-0.7-6.8-1	c-3.2-0.4-5-0.2-7.6-1.4c-1.1-0.5-1.2-2.3-1.5-3.5c-1.2-4.5-2.6-8.9-4.5-12.7c-0.3-0.7-1.4-1.1-2.1-0.4c-0.7,0.6-1.2,1.8-0.9,3.1	c0.9,4.5-1.3,9-2.3,13.1L32.3,75.7C30.2,77.5,28,78.8,25.7,80.2c-2.2,1.3-4,3.5-6.2,5.2c-1.1,0.8-1.3,3.2-0.3,3.5	c3.7,1,7.3,0.9,10.8,0.4c0.1,4.4-1.5,8.6-3,12.3c-0.3,0.8-0.6,1.1-0.8,1.7c-0.6,1.4,1.101,3.1,2.2,2.9c3.3-0.6,5.5-4.6,8.6-8.3	c1.6-1.9,3.6-5.1,4.9-5c1.6,0,6.7,3.6,10.7,6.2c2.3,1.5,4.2,3.1,6.8,2.7c0.7,0,1.1-1,1.6-2c0.5-1.2-3.4-6.3-3.4-6.3	c-1.8-2.4-5.3-6.8-6.5-8.5C50.6,84.4,50.4,84.2,51,83.8z"/><path style="fill:#FFD200;" d="M23.5,85.7c0.3,1,6.7-0.3,6.8-0.4c2.3-0.3,3-0.7,2.7,0.7c-0.2,1-0.3,2.4-0.5,3.3	c-0.7,3-1.3,5.1-2.1,7.7c-0.1,0.3,0.3,0.4,0.6-0.1c1.8-2,2.9-3.5,4.5-5.5c1.7-2.2,3.7-5.1,5.8-3.5c3.399,2.6,4.6,3.3,7.5,5.7	c0.6,0.6,4,2.6,4.399,2.3c0.9-0.7-5.3-7.6-7.7-10.3c-1.7-1.9-1.4-3.3,0.2-4c1.7-0.7,7.601-2.4,7.5-2.9c-0.1-0.7-4.7-0.4-6.7-0.5	c-1.1-0.1-4.3,0.1-5-0.4c-0.6-0.4-1-0.6-1.6-2.7l-2.4-9.8c-0.3-0.9-0.7-1.4-1.1,0.4c-0.3,1.7-0.8,6.7-1,7.8	c-0.2,1-1.8,4.2-1.8,4.2s-4,3-5,3.8C27.4,82.5,23.3,85,23.5,85.7z"/><path d="M12.5,67c0.2,1.2,0.6,3.2,2.6,5.3c1.9,2,4.6,2.6,6,2.6h0.3c1.6,0,2.3-0.3,2.7-0.4h0.3c4.3,0,8.2-1.9,10.7-4.3	c2.1-2,3.5-4.4,4.4-6.9c0.8,0.1,1.5,0.2,2.2,0.2c1.8,0,3.5-0.3,5.2-0.9c1.4-0.5,2.9-1.3,4.3-2.6c0.5,0.8,1,1.5,1.5,2.1	c1.601,1.7,3.3,2.6,4.8,3.2h0.2c1.7,0.6,3.5,0.9,5.2,0.9c3.3,0,6.2-1.1,8.5-2.5c1.9-1.2,3.5-2.8,4.799-4.5c0.701,2.1,2,3.9,3.5,5	c2.301,1.8,4.9,2.5,7.4,2.5c2.801,0,5.9-1,8.4-3.5c5-5.1,7.9-10.6,7.9-16.4c0-3.5-1.1-6.6-2.301-8.9c-1.199-2.3-2.5-4-3.5-5.4	c-1.9-2.7-2.9-4.2-3.6-5.3c-0.699-1.1-1.199-2-2.199-4C91.699,23,91.6,22.9,91.6,22.8c2.801-3.1,3.201-6.1,3.301-8.8	c-0.1-3.4-0.9-7.2-4.7-10.5l-0.3-0.3L89.5,3c-2.1-1.4-4.699-2.6-7.801-2.6c-3.199,0-6.199,1.5-8,3.1c-0.3,0.3-0.5,0.6-0.8,0.9	c-1.2-0.9-2.3-1.3-3.2-1.6C68.3,2.4,67.1,2.2,65.8,2.2c-2,0-4,0.3-6.101,1.3c-2,0.8-4.3,2.3-6,4.8c-0.8-1.9-2.1-3.5-3.3-4.2	l-0.3-0.2l-0.3-0.2c-3-1.8-6.4-2.5-9.5-2.5c-4.7,0-9.1,1.5-12.8,4c-2.8,1.9-5.3,4.5-6.9,7.8c-0.4-0.2-0.7-0.5-1.1-0.6	c-1.8-0.8-3.2-0.9-4.4-1c-3.2,0.1-5.4,1-7.9,2.5c-2.3,1.5-4.9,3.9-5.9,8l-0.1,0.5l-0.1,0.5c-0.3,2.9-1.3,7-1.4,11.9	c0,2.2,0.2,4.7,1.2,7.2c0.8,2.4,2.4,4.9,4.6,6.8c3.5,3.7,6.8,6.3,9.6,9.1c-0.2,0.3-0.4,0.7-0.6,1.2c-0.7,1.4-1.5,2.4-2,5.4	C12.4,65.3,12.4,66.8,12.5,67z"/><path style="fill:#F58426;" d="M92.1,36.7c-3.799-5.4-4.299-6.2-6.299-10.3c-0.5-1-1.4-2.4-1.4-4.1c0-1.3,0.5-2.7,2.299-4.4	c1-1,1.4-2.4,1.4-3.9c0-1.8-0.6-3.7-2.1-4.9c-1.4-1.1-2.6-1.4-3.801-1.4c-2.5,0-4.1,2-5.199,4.2c-1.199,2.3-2.1,5.3-3,8	c-0.4,1.1-0.5,2.2-0.5,3.3c0.1,8.3,9.1,14.8,11,22.5c0.199,0.8,0.301,1.6,0.301,2.3c0,1.8-0.602,3.7-1.4,5.8	C83.199,54.4,83.1,55,83.1,55.5c0,2.5,2.301,3.9,4.301,3.9c1.1,0,2.4-0.4,3.199-1.3c4.201-4.3,5.801-8,5.801-11.3	C96.6,42.8,94.1,39.6,92.1,36.7z"/><path style="fill:#F58426;" d="M70,12.2c-0.1,5.4-4.7,10.5-4.6,15.3c0,0.3,0,0.7,0.1,1c0.8,6.5,7.3,12.9,7.4,20.2	c0,1.9-0.5,3.8-1.6,5.7c-1.5,2.4-4.5,4.6-7.9,4.6c-0.9,0-1.8-0.1-2.8-0.5c-1.7-0.7-3.1-1.8-3.2-3.8c0-0.4,0-0.6,0.2-1	c1.2-1.9,3.4-1.8,3.7-2.3c1.1-1.3,1.8-2.6,1.8-4c0-0.7-0.2-1.5-0.5-2.3c-2.1-4.7-4.8-8.6-6.7-13c-1-1.6-1.4-3.2-1.4-4.8	c0-5.1,3-9.7,5.9-14.8c1.8-2.9,3.8-3.5,5.9-3.6C68,8.8,69.9,9.7,70,12.2z"/><path style="fill:#F58426;" d="M36.9,18.9c0.5,5.6,5.5,9.6,8.9,15.3c2.1,3.4,4,7.6,4,11.9c0,2.7-0.8,5.5-2.8,8.1	c-1.2,1.3-3.2,1.9-5,1.9c-1,0-1.9-0.2-2.7-0.7c-0.8-0.5-1.4-1.4-1.3-2.5c0-0.4,0.1-0.8,0.2-1.2c0.601-2,1.101-3.7,1.101-5.4	c0-0.9-0.101-1.8-0.5-2.8C36.3,35.7,26.6,29.6,26.5,21c0-0.9,0.1-1.8,0.3-2.7c1.5-5.9,8-9.9,14.1-9.9c2,0,4,0.5,5.9,1.6	c0.6,0.4,1,1.1,1,1.7c-0.101,1.5-1.2,2.2-2.3,2.9c-1.1,0.7-2.4,1.2-3.4,1.5c-1.6,0.6-3.8,1-4.6,1.5	C37.1,17.8,36.7,17.9,36.9,18.9z"/><path style="fill:#F58426;" d="M8.8,23.7C8.2,26.8,7.7,30.8,7.4,34.9c-0.2,3.3,0.8,6.5,3.6,8.8c3.3,3.6,7.2,6.4,10.7,10.3	c1.101,1.3,1.5,2.4,1.5,3.7c0,0.8-0.2,1.7-0.6,2.6c-0.7,1.1-2.6,3.6-2.7,5.4c-0.2,1.2,0.8,2,1.5,2.1c0.8,0.2,2.2,0.1,3.4-0.1	c4.1-0.8,7.399-4.1,8.2-7.6c0.2-0.8,0.2-1.6,0.2-2.3c-0.2-9.3-11-13.6-14.3-20.5c-0.7-1.5-1-3.2-1-5.1c0-2.5,0.2-5.2,0.4-7.8	c0.3-3.1-0.2-7.3-4-7.2C9.8,17.4,9,22.4,8.8,23.7z"/><path d="M93.1,111.5c0.1,0,3.301-1.1,6.301-1.1c1,0,2,0.1,3,0.6c1.1,0.5,2.199,2,2.1,3.4h-0.4l-3.6,0.1l-0.4,0.7	c0,0-0.1,0-0.199-0.101h-0.6c-0.9,0-2.201,0.2-3.201,0.4s-1.699,0.4-1.699,0.4L93.1,111.5z"/><path style="fill:#82BC00;" d="M122.4,125c11.1,0,20.199-4.7,20.199-10.5s-9-10.5-20.199-10.5c-11.1,0-20.201,4.1-20.201,10.5	C102.199,120.9,111.199,125,122.4,125z"/><path d="M137.801,104.9c-4.102-2.1-9.5-3.3-15.4-3.3s-11.201,1-15.301,3.1c-4.1,2-7.199,5.399-7.199,9.8	c0,4.5,3.199,7.8,7.199,9.8c4.1,2,9.5,3.101,15.301,3.101c5.9,0,11.299-1.2,15.4-3.301c4-2.1,7.1-5.3,7.199-9.6	C144.9,110.2,141.801,107,137.801,104.9z M135.5,119.8c-3.199,1.7-7.9,2.8-13.199,2.8c-5.301,0-10-1-13.201-2.6	c-3.199-1.7-4.6-3.6-4.6-5.5c0-2,1.301-3.9,4.6-5.5c3.201-1.6,7.9-2.6,13.201-2.6c5.199,0,10,1.1,13.199,2.8	c3.301,1.7,4.699,3.8,4.6,5.3C140.199,116,138.801,118.1,135.5,119.8z"/><path style="fill:#82BC00;" d="M75.801,128.4c10,0,18.1-6.601,18.1-14.7c0-8.1-8.1-14.7-18.1-14.7c-10,0-18,6.6-18,14.7	C57.8,121.8,65.8,128.4,75.801,128.4z"/><path d="M75.801,96.7c-10.901,0-20.401,7.2-20.5,17c0.1,9.8,9.5,17,20.5,17.1c10.898,0,20.398-7.2,20.5-17.1	C96.199,103.9,86.699,96.7,75.801,96.7z M87.1,122.2c-2.799,2.3-6.799,3.7-11.299,3.7c-4.5,0-8.5-1.5-11.301-3.7	c-2.8-2.3-4.4-5.3-4.4-8.5s1.6-6.2,4.4-8.5c2.8-2.3,6.8-3.8,11.301-3.8c4.5,0,8.5,1.5,11.299,3.8c2.801,2.3,4.4,5.3,4.4,8.5	S89.9,119.9,87.1,122.2z"/><path d="M22.8,138.3c-0.7-1.5-1-3.3-1-5c0-3.1,0.8-6.399,2.8-8.899c3.5-4.7,10.7-11.4,31.1-12.2l0.2,4.8	c-19.6,1-24.4,6.5-27.5,10.3c-1.1,1.3-1.8,3.9-1.8,6c0,1.2,0.2,2.3,0.5,3s0.5,0.7,0.6,0.7l-1,4.7	C24.8,141.3,23.5,139.8,22.8,138.3z"/><path style="fill:#FFFFFF;" d="M38.1,159.4L31.6,132c0,0-10.5,3.2-7.6,15.9C26.9,160.5,36.9,156.4,38.1,159.4z"/><path d="M28.9,157.3c-3.6-2-6.5-5.5-6.8-10.2C22,146.2,22,145.4,22,144.6c0-3.8,0.9-7.5,3.7-10.5c2.7-3.1,7-5.5,13.3-7.699	l1.6,4.6c-5.9,2.1-9.4,4.2-11.2,6.3c-1.8,2.101-2.4,4.2-2.5,7.3c0,0.601,0,1.301,0.1,2.101c0.3,2.8,1.7,4.8,4.4,6.3	c2.6,1.5,6.4,2.3,10.4,2.3H44l0.3,4.9c-0.8,0.1-1.7,0.1-2.5,0.1C37,160.3,32.5,159.3,28.9,157.3z"/></g></g></g></svg>