<?xml version="1.0" encoding="UTF-8" standalone="no"?>
<!-- Created with Inkscape (http://www.inkscape.org/) -->

<svg
   xmlns:dc="http://purl.org/dc/elements/1.1/"
   xmlns:cc="http://creativecommons.org/ns#"
   xmlns:rdf="http://www.w3.org/1999/02/22-rdf-syntax-ns#"
   xmlns:svg="http://www.w3.org/2000/svg"
   xmlns="http://www.w3.org/2000/svg"
   xmlns:sodipodi="http://sodipodi.sourceforge.net/DTD/sodipodi-0.dtd"
   xmlns:inkscape="http://www.inkscape.org/namespaces/inkscape"
   id="svg2"
   version="1.1"
   inkscape:version="0.48.4 r9939"
   width="303.45377"
   height="65.497818"
   sodipodi:docname="Goodreads_logo paths.svg">
  <metadata
     id="metadata8">
    <rdf:RDF>
      <cc:Work
         rdf:about="">
        <dc:format>image/svg+xml</dc:format>
        <dc:type
           rdf:resource="http://purl.org/dc/dcmitype/StillImage" />
      </cc:Work>
    </rdf:RDF>
  </metadata>
  <defs
     id="defs6" />
  <sodipodi:namedview
     pagecolor="#ffffff"
     bordercolor="#666666"
     borderopacity="1"
     objecttolerance="10"
     gridtolerance="10"
     guidetolerance="10"
     inkscape:pageopacity="0"
     inkscape:pageshadow="2"
     inkscape:window-width="1366"
     inkscape:window-height="705"
     id="namedview4"
     showgrid="false"
     inkscape:zoom="1"
     inkscape:cx="450.36575"
     inkscape:cy="21.100665"
     inkscape:window-x="-8"
     inkscape:window-y="-8"
     inkscape:window-maximized="1"
     inkscape:current-layer="svg2"
     fit-margin-top="0"
     fit-margin-left="0"
     fit-margin-right="0"
     fit-margin-bottom="0" />
  <g
     transform="matrix(0.99371268,0,0,1.0063271,-0.82722027,-0.06341092)"
     style="font-size:72.05466461px;font-style:normal;font-variant:normal;font-weight:normal;font-stretch:normal;line-height:0%;letter-spacing:-2.65826273px;word-spacing:0px;fill:#000000;fill-opacity:1;stroke:none;font-family:Cordia New;-inkscape-font-specification:Cordia New"
     id="text3009">
    <path
       d="m 32.391553,50.161092 c -3.4e-5,4.899221 -1.332953,8.622013 -3.998761,11.168385 -2.665868,2.546353 -6.472585,3.819535 -11.420163,3.819549 -4.035791,-1.4e-5 -7.3026704,-0.936759 -9.8006485,-2.810238 -2.7853217,-2.113917 -4.2263549,-5.116192 -4.323104,-9.006833 l 1.4425006,0 c 0.1436582,3.458185 1.4402949,6.099835 3.889914,7.924958 2.2091839,1.633063 5.1154389,2.4496 8.7187729,2.449612 9.367431,-1.2e-5 14.051155,-4.515152 14.051187,-13.545433 l 0,-11.313514 -0.145129,0 c -0.719816,3.170872 -2.484825,5.716868 -5.295033,7.637996 -2.810261,1.921139 -5.896828,2.881705 -9.259711,2.881703 -4.947613,2e-6 -8.814801,-1.800923 -11.6015746,-5.40278 C 2.1049007,40.698358 0.83245224,36.518922 0.83245418,31.426176 0.83245224,26.238183 2.1532772,21.96346 4.794933,18.601994 c 2.930437,-3.65166 6.9171,-5.477506 11.960001,-5.477545 3.314505,3.9e-5 6.292958,1.008982 8.935368,3.026833 2.642356,2.017921 4.347628,4.611561 5.11582,7.780927 l 0.145129,0 0,-9.943579 1.440302,0 z M 30.878686,31.426176 C 30.878654,26.86268 29.701493,22.996225 27.347199,19.8268 24.70552,16.320268 21.174769,14.566987 16.754934,14.56695 c -4.610444,3.7e-5 -8.2372156,1.704942 -10.8803245,5.11472 -2.4012403,3.074138 -3.601857,6.98897 -3.6018536,11.744506 -3.4e-6,4.660289 1.1287815,8.4791 3.3863581,11.456445 2.5463561,3.362908 6.052919,5.044358 10.5197,5.044355 4.563498,3e-6 8.214458,-1.63307 10.952889,-4.899225 2.497958,-3.074098 3.746951,-6.941286 3.746983,-11.601575 z"
       style="font-weight:200;letter-spacing:-1.30000007000000010px;word-spacing:-0.85000001999999997px;fill:#59461b;fill-opacity:1;font-family:Aliquam;-inkscape-font-specification:Aliquam Ultra-Light"
       id="path3063"
       inkscape:connector-curvature="0" />
    <path
       d="m 69.346406,32.650982 c -3.5e-5,5.380072 -1.41688,9.895944 -4.250539,13.547632 -3.075604,4.034311 -7.230852,6.051465 -12.465756,6.051466 -5.188032,-10e-7 -9.343279,-2.017155 -12.465756,-6.051466 -2.786786,-3.651688 -4.180176,-8.16756 -4.180173,-13.547632 -3e-6,-5.331657 1.417575,-9.846797 4.252738,-13.545432 3.122476,-3.987364 7.276991,-5.981062 12.463557,-5.981101 5.187994,3.9e-5 9.319786,2.017925 12.39539,6.053665 2.833659,3.650259 4.250504,8.141211 4.250539,13.472868 z m -1.442501,0 c -3.4e-5,-4.899201 -1.272482,-9.054449 -3.817349,-12.465756 -2.835186,-3.745482 -6.630542,-5.618239 -11.386079,-5.618276 -4.755575,3.7e-5 -8.550198,1.872794 -11.383881,5.618276 -2.593281,3.362931 -3.889917,7.518179 -3.889914,12.465756 -3e-6,4.995992 1.272445,9.175428 3.817349,12.538321 2.835149,3.746986 6.65396,5.620475 11.456446,5.620475 4.803914,0 8.59927,-1.873489 11.386079,-5.620475 2.544867,-3.41127 3.817315,-7.590706 3.817349,-12.538321 z"
       style="font-weight:200;letter-spacing:-1.30000007000000010px;word-spacing:-0.85000001999999997px;fill:#59461b;fill-opacity:1;font-family:Aliquam;-inkscape-font-specification:Aliquam Ultra-Light"
       id="path3065"
       inkscape:connector-curvature="0" />
    <path
       d="m 105.48106,32.650982 c -4e-5,5.380072 -1.41688,9.895944 -4.25054,13.547632 -3.075606,4.034311 -7.230853,6.051465 -12.465758,6.051466 -5.188031,-10e-7 -9.343279,-2.017155 -12.465756,-6.051466 -2.786786,-3.651688 -4.180175,-8.16756 -4.180173,-13.547632 -2e-6,-5.331657 1.417576,-9.846797 4.252738,-13.545432 3.122476,-3.987364 7.276991,-5.981062 12.463557,-5.981101 5.187994,3.9e-5 9.319786,2.017925 12.395392,6.053665 2.83366,3.650259 4.2505,8.141211 4.25054,13.472868 z m -1.4425,0 c -4e-5,-4.899201 -1.27249,-9.054449 -3.81735,-12.465756 -2.835189,-3.745482 -6.630545,-5.618239 -11.386082,-5.618276 -4.755575,3.7e-5 -8.550198,1.872794 -11.383881,5.618276 -2.59328,3.362931 -3.889917,7.518179 -3.889914,12.465756 -3e-6,4.995992 1.272445,9.175428 3.81735,12.538321 2.835148,3.746986 6.653959,5.620475 11.456445,5.620475 4.803914,0 8.59927,-1.873489 11.386082,-5.620475 2.54486,-3.41127 3.81731,-7.590706 3.81735,-12.538321 z"
       style="font-weight:200;letter-spacing:-1.30000007000000010px;word-spacing:-0.85000001999999997px;fill:#59461b;fill-opacity:1;font-family:Aliquam;-inkscape-font-specification:Aliquam Ultra-Light"
       id="path3067"
       inkscape:connector-curvature="0" />
    <path
       d="m 139.02097,51.385899 -1.44031,0 0,-10.447135 -0.14512,0 c -0.96024,3.40982 -2.78535,6.14749 -5.47535,8.213018 -2.69005,2.065532 -5.81254,3.098297 -9.36746,3.098298 -5.09127,-10e-7 -9.07794,-2.041343 -11.96,-6.124031 -2.54637,-3.603311 -3.81955,-8.070807 -3.81955,-13.402502 0,-5.236371 1.29664,-9.703867 3.88992,-13.402502 2.88206,-4.131027 6.84527,-5.835153 11.88963,-5.835192 3.69859,3.9e-5 6.86908,0.996888 9.51149,2.990551 2.64236,1.993733 4.41946,4.768052 5.33132,8.322964 l 0.14512,0 0,-24.73635576 1.44031,0 z m -1.44031,-18.662352 c -3e-5,-5.187994 -1.17719,-9.390886 -3.53148,-12.608687 -2.64168,-3.698572 -6.46049,-5.547873 -11.45645,-5.54791 -4.65882,3.7e-5 -8.28559,1.92117 -10.88032,5.763406 -2.30595,3.36293 -3.45893,7.49399 -3.45893,12.393191 0,4.947615 1.12879,9.078674 3.38636,12.393191 2.59474,3.795362 6.2457,5.69304 10.95289,5.69304 4.70716,0 8.45414,-1.897678 11.24095,-5.69304 2.49796,-3.362893 3.74695,-7.493953 3.74698,-12.393191 z"
       style="font-weight:200;letter-spacing:-1.30000007000000010px;word-spacing:-0.85000001999999997px;fill:#59461b;fill-opacity:1;font-family:Aliquam;-inkscape-font-specification:Aliquam Ultra-Light"
       id="path3069"
       inkscape:connector-curvature="0"
       sodipodi:nodetypes="ccccsscsccccccccccccscscc" />
    <path
       d="m 146.47277,51.385899 0,-37.364285 4.86512,0 0,7.51416 c 1.45422,-2.650414 2.33791,-4.167712 3.56934,-5.01212 1.23138,-0.844371 2.79306,-2.14609 4.17418,-2.664959 1.81315,-0.681178 4.40261,-1.461524 6.50884,-0.393213 l 0.0862,5.291433 c -1.54807,-0.914725 -5.16648,0.185512 -6.91169,0.964336 -1.26107,0.56277 -2.83828,1.351857 -3.71743,2.412337 -1.03271,1.245712 -1.96983,1.788267 -2.43892,3.265922 -0.70367,2.251733 -0.98579,3.750792 -0.98578,6.424673 l 0,19.561716 z"
       style="letter-spacing:-3.06000017999999980px;fill:#59461b;fill-opacity:1"
       id="path3071"
       inkscape:connector-curvature="0"
       sodipodi:nodetypes="ccccssccsscscc" />
    <path
       id="path3073"
       style="letter-spacing:-3.06000017999999980px;fill:#59461b;fill-opacity:1"
       d="m 169.63583,29.89392 23.89196,0 c -0.32235,-3.59921 -1.23559,-6.298635 -2.73972,-8.098286 -2.30999,-2.793403 -5.30487,-4.190121 -8.98466,-4.190159 -3.33065,3.8e-5 -6.13081,1.114727 -8.40046,3.344069 -2.26969,2.229411 -3.52539,5.210867 -3.76712,8.944376 z m 23.19466,9.556766 5.9525,-0.06697 c -1.03207,3.823221 -3.23945,7.569136 -6.03059,9.680108 -2.79121,2.110977 -6.35641,3.166464 -10.69562,3.166465 -5.4651,-10e-7 -9.79846,-1.682916 -13.00009,-5.048752 -3.20166,-3.365827 -4.80248,-8.0862 -4.80248,-14.161134 0,-6.285994 1.61841,-11.164691 4.85525,-14.636104 3.23682,-3.471347 7.43531,-5.207037 12.59549,-5.207075 4.99596,3.8e-5 9.07717,1.700545 12.24367,5.101526 3.16643,3.401048 4.74966,8.185923 4.74969,14.354641 -3e-5,0.375303 -0.0118,0.938229 -0.0352,1.688781 l -29.24513,0 c 0.23454,4.104689 1.59275,8.123872 3.68028,10.305204 2.08751,2.181348 5.87411,3.272018 8.99369,3.272014 2.32205,4e-6 5.19132,-1.388656 6.83321,-2.608336 1.64184,-1.219668 2.94361,-3.166456 3.90531,-5.840368 z"
       inkscape:connector-curvature="0" />
    <path
       d="m 226.41528,46.776933 c -2.34555,1.993703 -4.60312,3.401019 -6.77271,4.221953 -2.16964,0.820935 -4.49757,1.231402 -6.98382,1.231403 -4.10469,-10e-7 -7.25942,-1.002713 -9.46421,-3.008141 -2.2048,-2.005424 -3.3072,-4.567912 -3.3072,-7.687473 0,-1.829501 0.41633,-3.500689 1.249,-5.013569 0.83266,-1.51285 1.92333,-2.726661 3.27201,-3.641435 1.34867,-0.914737 2.8674,-1.606667 4.55619,-2.075793 1.24312,-0.328354 3.11954,-0.645 5.62927,-0.94994 5.11324,-0.609815 8.87781,-1.336929 11.29373,-2.181342 0.0234,-0.867821 0.0352,-1.41902 0.0352,-1.653598 -3e-5,-2.580055 -0.59814,-5.46872 -1.79433,-6.524238 -1.61844,-1.430741 -4.0226,-2.146127 -7.2125,-2.14616 -2.97884,3.3e-5 -5.17777,0.521913 -6.5968,1.565641 -1.41906,1.043791 -3.1588,2.988247 -3.14888,6.612195 l -5.72462,-0.01689 c 0.56292,-2.650419 1.02183,-5.618213 2.31188,-7.248387 1.29003,-1.630108 3.15473,-2.884965 5.59409,-3.764575 2.43933,-0.879536 5.26569,-1.319322 8.47908,-1.31936 3.1899,3.8e-5 5.29372,0.375322 7.28744,1.125854 1.99367,0.750606 3.3202,1.901197 4.25844,3.038744 0.93818,1.137615 1.3858,2.367733 1.76112,4.103393 0.21106,1.078973 0.31661,3.02576 0.31664,5.840369 l 0,8.443906 c 0,5.887288 -0.21372,7.683323 0.056,9.243095 0.2697,1.55978 1.849,2.228985 3.90134,1.869945 l 0.0799,4.829118 c 0,0 -4.9276,0.291373 -6.62456,-0.354588 -1.3842,-0.526904 -2.26409,-2.780977 -2.4517,-4.540127 z m -0.52774,-14.763092 c -2.29865,0.938229 -4.97973,0.840801 -9.64666,1.772889 -2.95211,0.650656 -4.23565,0.866334 -5.31458,1.335425 -1.07895,0.46912 -3.17874,0.701066 -4.65909,2.471236 -1.19003,1.423005 -1.01901,2.869498 -1.019,4.453758 -1e-5,1.68879 1.40599,3.096106 2.68431,4.221953 1.2783,1.125859 3.77628,1.000397 6.2391,1.000392 2.43933,5e-6 4.60894,-0.533603 6.50884,-1.600823 1.89986,-1.06721 3.29545,-2.5273 4.18677,-4.380277 0.68018,-1.430761 1.02028,-3.541736 1.02031,-6.332929 z"
       style="letter-spacing:-3.06000017999999980px;fill:#59461b;fill-opacity:1"
       id="path3075"
       inkscape:connector-curvature="0"
       sodipodi:nodetypes="csssssccccccccccsccccccscccscccccscssscc" />
    <path
       d="m 266.23702,51.661255 0,-4.714515 c -2.36901,3.705938 -9.05891,5.558904 -13.65612,5.558905 -2.97884,-1e-6 -5.71724,-0.820935 -8.21522,-2.462806 -2.49799,-1.641867 -4.43305,-3.93462 -5.80518,-6.878265 -1.37214,-2.943628 -2.05821,-6.327051 -2.0582,-10.150279 -1e-5,-3.729369 0.62156,-7.112792 1.86469,-10.150278 1.24313,-3.037429 3.10782,-5.365365 5.59409,-6.983814 2.48625,-1.618378 5.2657,-2.427585 8.33836,-2.427623 2.25168,3.8e-5 7.4639,0.475007 9.22307,1.424909 1.75912,0.949975 3.18989,2.187241 4.29232,3.7118 l 0,-18.50622725 5.4612,0 0,51.57819325 z m -25.00048,-18.64696 c -1e-5,4.784894 1.00857,8.361823 3.02573,10.730798 2.01714,2.36899 6.5668,4.52701 9.31109,4.527006 2.7677,4e-6 7.93153,-2.105242 9.86662,-4.368683 1.93503,-2.263426 2.90256,-5.717215 2.90259,-10.361376 -3e-5,-5.113231 -0.98515,-8.866075 -2.95536,-11.258542 -1.97027,-2.392408 -6.61879,-4.756862 -9.50377,-4.756895 -2.81465,3.3e-5 -7.92654,2.317576 -9.81467,4.616163 -1.88816,2.298647 -2.83224,5.922486 -2.83223,10.871529 z"
       style="letter-spacing:-3.06000017999999980px;fill:#59461b;fill-opacity:1"
       id="path3077"
       inkscape:connector-curvature="0"
       sodipodi:nodetypes="ccsssssccccccccsssscccss" />
    <path
       d="m 275.66781,39.015995 4.73443,-0.06027 c 0.35182,2.509726 1.77473,5.211882 3.38143,6.548826 1.60667,1.336957 4.44405,2.200138 7.32906,2.200134 2.90844,4e-6 5.46068,-0.494888 6.86802,-1.679386 1.40729,-1.184485 3.19543,-2.087446 3.19546,-4.55859 -3e-5,-1.430762 -0.81878,-3.238086 -2.06189,-4.059034 -0.86787,-0.562913 -3.61728,-1.765062 -7.06519,-2.632923 -4.64416,-1.172748 -7.46905,-1.505718 -9.26337,-2.361855 -1.79433,-0.856098 -3.74627,-1.845883 -4.67275,-3.358771 -0.92648,-1.512842 -1.38973,-3.18403 -1.38972,-5.013569 -1e-5,-1.665297 0.38114,-3.207481 1.14344,-4.626557 0.76229,-1.419012 1.80019,-2.597639 3.11369,-3.535885 0.98512,-0.727078 1.83499,-1.342779 3.53551,-1.847105 1.7005,-0.504251 3.52414,-0.756395 5.47095,-0.756433 2.93189,3.8e-5 5.50611,0.422233 7.72265,1.266586 2.2165,0.844426 3.85251,1.987871 4.90802,3.430337 1.05546,1.442532 1.83186,4.345258 2.23064,6.761124 l -4.71337,-0.03179 c -0.28149,-1.923305 -2.13174,-4.787384 -3.4804,-5.866357 -1.3487,-1.078911 -4.73327,-1.423677 -7.19605,-1.42371 -2.90848,3.3e-5 -4.29415,1.259689 -5.53727,2.221324 -1.24314,0.961698 -1.8647,2.087551 -1.86469,3.377562 -1e-5,0.820963 -0.0378,1.75451 0.47825,2.411232 0.51601,0.680228 1.71958,1.72992 2.82199,2.175546 0.63328,0.234577 2.79374,1.066107 5.88985,1.910474 4.47994,1.196242 7.50677,1.494028 9.27767,2.256305 1.77084,0.762316 3.16057,1.870577 4.16918,3.324788 1.00854,1.454243 1.51283,3.260299 1.51286,5.418173 -3e-5,2.110985 -0.61573,4.098819 -1.8471,5.963508 -1.23143,1.864699 -3.00817,3.307199 -5.33022,4.327502 -2.32209,1.020305 -4.94908,1.530457 -7.88098,1.530458 -4.85525,-10e-7 -8.55532,-1.008577 -11.10021,-3.025733 -2.54491,-2.017151 -3.67624,-6.321962 -4.37989,-10.285911 z"
       style="letter-spacing:-3.06000017999999980px;fill:#59461b;fill-opacity:1"
       id="path3079"
       inkscape:connector-curvature="0"
       sodipodi:nodetypes="cccsscccccccccccccccccccccccccsssc" />
  </g>
</svg>
