<?xml version="1.0" encoding="utf-8"?><!-- Generator: Adobe Illustrator 16.0.0, SVG Export Plug-In . SVG Version: 6.00 Build 0) --><!DOCTYPE svg PUBLIC "-//W3C//DTD SVG 1.1//EN" "http://www.w3.org/Graphics/SVG/1.1/DTD/svg11.dtd"><svg version="1.1" id="Layer_1" xmlns="http://www.w3.org/2000/svg" xmlns:xlink="http://www.w3.org/1999/xlink" x="0px" y="0px" width="252px" height="90px" viewBox="0 0 252 90" enable-background="new 0 0 252 90" xml:space="preserve"><rect width="252" height="90"/><path fill="#FFFFFF" d="M66.127,39.943c0,2.504-1.552,4.365-4.655,5.586c-2.41,0.951-5.349,1.432-8.819,1.432H38.428	c-3.73,0-6.862-0.434-9.407-1.291c-3.498-1.176-5.252-3.053-5.252-5.635v-13.81c0-2.481,1.783-4.313,5.359-5.502	c2.823-0.889,5.936-1.338,9.348-1.338h5.648c1.523,0,2.284,0.68,2.284,2.041c0,1.367-0.761,2.055-2.284,2.055h-1.725	c-0.164,0-0.26-0.006-0.28-0.023c-0.433-0.014-0.819-0.021-1.156-0.029c-0.338-0.008-0.617-0.016-0.819-0.016	c-6.737,0-10.111,0.934-10.111,2.803v13.797c0,1.871,2.824,2.807,8.472,2.807h14.158c1.349,0,2.795-0.201,4.318-0.611	c1.918-0.516,2.881-1.205,2.881-2.086v-2.934h-8.803c-1.161,0-2.112-0.994-2.112-2.209c0-1.217,0.951-2.211,2.112-2.211h10.585	c0.535-0.055,1.302-0.049,2.286-0.049c1.465,0,2.197,0.588,2.197,1.77V39.943"/><path fill="#FFFFFF" d="M103.09,40.082v-8.357c0-1.717-2.429-2.6-7.344-2.6h-9.715c-1.793,0-3.412,0.186-4.858,0.557	c-2.024,0.559-3.007,1.348-3.007,2.414v7.986c0,1.021,1.041,1.811,3.065,2.275c1.388,0.324,3.007,0.465,4.858,0.465h9.657	c1.561,0,3.064-0.186,4.452-0.512C102.107,41.801,103.09,41.057,103.09,40.082 M109.104,40.082c0,2.508-1.504,4.318-4.569,5.434	c-2.139,0.883-5.031,1.347-8.616,1.347h-9.888c-3.296,0-6.246-0.464-8.906-1.347c-3.296-1.162-4.915-2.973-4.915-5.434v-7.986	c0-2.414,1.619-4.27,4.858-5.523c2.428-0.977,5.377-1.439,8.905-1.439h9.946c8.79,0,13.185,2.275,13.185,6.918V40.082z"/><path fill="#FFFFFF" d="M181.186,27.361c0,1.207-0.926,1.811-2.66,1.811c-0.231,0-0.578,0-1.041-0.047h-1.1	c-4.568,0-6.824,0.883-6.824,2.74v13.186c0,0.883-0.461,1.439-1.271,1.672c-0.349,0.094-1.215,0.14-2.603,0.14	c-1.389,0-2.082-0.604-2.082-1.812V31.865c0-2.879,1.793-4.783,5.437-5.803c2.197-0.652,5.493-0.93,9.89-0.93	C180.436,25.133,181.186,25.875,181.186,27.361"/><path fill="#FFFFFF" d="M216.182,40.082v-8.357c0-1.717-2.429-2.6-7.343-2.6h-9.715c-1.794,0-3.412,0.186-4.858,0.557	c-2.023,0.559-3.006,1.348-3.006,2.414v7.986c0,1.021,1.041,1.811,3.063,2.275c1.389,0.324,3.007,0.465,4.854,0.465h9.66	c1.561,0,3.062-0.186,4.451-0.512C215.198,41.801,216.182,41.057,216.182,40.082 M222.195,40.082c0,2.508-1.504,4.318-4.567,5.434	c-2.14,0.883-5.032,1.347-8.616,1.347h-9.888c-3.298,0-6.246-0.464-8.905-1.347c-3.298-1.162-4.916-2.973-4.916-5.434v-7.986	c0-2.414,1.618-4.27,4.856-5.523c2.43-0.977,5.378-1.439,8.905-1.439h9.945c8.789,0,13.186,2.275,13.186,6.918V40.082z"/><path fill="#FFFFFF" d="M151.957,29.387v-3.762c0-1.578-2.725-2.414-8.171-2.414h-22.195v9.566h22.195	C149.232,32.777,151.957,31.615,151.957,29.387 M158.216,29.572c0,2.74-1.737,4.736-5.157,5.992	c-2.666,0.881-5.854,1.299-9.619,1.299h-21.849v8.082c0,0.881-0.406,1.438-1.333,1.67c-0.232,0.094-1.159,0.141-2.724,0.141	c-1.449,0-2.202-0.604-2.202-1.811V20.889c0-1.162,0.753-1.766,2.202-1.766h26.194c3.535,0,6.549,0.418,9.039,1.162	c3.652,1.113,5.448,2.785,5.448,4.969V29.572L158.216,29.572z"/><path fill="#FFFFFF" d="M91.362,62.955c-0.266,1.113-0.06,2.418,0.202,2.904c0.262,0.483,1.118,0.916,1.768,0.916	c0.667,0,1.617-0.314,2.096-0.789c0.481-0.475,1.145-1.611,1.439-2.844c0.25-1.037,0.063-2.023-0.204-2.504	c-0.268-0.478-1.066-1.117-1.724-1.117c-0.626,0-1.637,0.287-2.134,0.772C92.311,60.779,91.632,61.834,91.362,62.955 M88.505,63.051	c0.432-1.799,1.527-3.287,2.682-4.287c1.157-1.002,2.64-1.203,4.273-1.203c1.675,0,2.901,0.687,3.572,1.672	c0.671,0.982,1.039,2.326,0.613,4.099c-0.309,1.289-0.833,2.312-1.426,3.133c-0.593,0.824-1.408,1.343-2.266,1.802	c-0.86,0.459-1.881,0.563-2.999,0.563c-1.135,0-2.028-0.197-2.678-0.595c-0.648-0.396-1.399-1.021-1.657-1.879	C88.363,65.5,88.196,64.34,88.505,63.051"/><path fill="#FFFFFF" d="M77.077,68.5l2.379-10.77l4.939,0.018c0.106,0,3.638-0.18,3.465,2.811c-0.124,2.176-1.08,2.42-2.998,3.431	c0.965,1.604,1.298,2.469,2.574,4.512H84.22c-0.357-1.021-1.89-3.905-1.898-3.905l-1.665-0.019l-0.845,3.938L77.077,68.5 M81.192,62.635h1.894c1.757,0,2.593-2.756,0.768-2.785l-1.982-0.037L81.192,62.635z"/><polygon fill="#FFFFFF" points="70.132,57.766 77.886,57.801 77.48,59.783 72.473,59.818 72.019,61.729 76.683,61.746	76.248,63.799 71.478,63.799 70.922,66.531 75.869,66.445 75.57,68.533 67.717,68.445 "/><polygon fill="#FFFFFF" points="58.504,57.73 61.332,57.748 60.371,61.674 64.441,61.779 65.314,57.766 68.122,57.801 65.671,68.5	62.882,68.516 63.951,63.814 59.881,63.779 58.758,68.516 55.982,68.5 "/><polygon fill="#FFFFFF" points="99.732,68.484 102.303,68.484 103.012,65.682 100.441,65.682 "/><rect x="110.044" y="53.648" fill="#00AEEF" width="23.841" height="18.229"/><rect x="138.801" y="53.648" fill="#00AEEF" width="23.842" height="18.229"/><rect x="167.747" y="53.646" fill="#005DAC" width="23.84" height="18.229"/><rect x="197.303" y="53.648" fill="#FFFFFF" width="23.842" height="18.229"/><path fill="#FFFFFF" d="M46.063,63.604h1.846c-0.02-0.636,0.433-0.957,1.345-0.953c0.754,0.016,1.175,0.258,1.262,0.715	c0,0.588,0.012,1.141,0.024,1.691c-0.405-0.474-1.159-0.746-2.262-0.822c-1.745,0.164-2.587,0.969-2.523,2.42	c0.063,1.268,0.968,1.941,2.713,2.014c0.917,0.041,1.615-0.23,2.106-0.846c0.013,0.268,0.013,0.508,0.013,0.75h1.701	c0.013-1.84,0.013-3.666,0.013-5.494c-0.428-0.953-1.147-1.461-2.143-1.523c-0.877-0.024-1.741-0.024-2.606-0.024	C46.473,61.832,45.989,62.52,46.063,63.604"/><path fill="#FFFFFF" d="M38.133,61.484h1.75c1.301,0,2.366,1.049,2.366,2.33v1.465h-4.733c-0.199,1.441,0.172,2.141,1.091,2.1	c0.336-0.02,0.692-0.02,1.05-0.02c0.61,0.055,0.898-0.275,0.885-1.072h1.708v0.041c0,1.281-1.065,2.33-2.366,2.33h-1.75	c-1.302,0-2.367-1.049-2.367-2.33v-2.514C35.766,62.533,36.831,61.484,38.133,61.484"/><path fill="#FFFFFF" d="M27.266,58.559v9.935h5.763c1.563,0.104,2.358-0.775,2.387-2.615c0.069-1.285-0.46-2.125-1.605-2.496	c0.899-0.172,1.38-0.928,1.421-2.286c-0.097-1.613-0.988-2.468-2.676-2.576C30.771,58.525,28.988,58.531,27.266,58.559"/><path d="M29.18,60.229v2.535c0.994-0.021,1.929-0.021,2.861-0.021c0.81,0.014,1.2-0.393,1.193-1.193	c-0.041-0.729-0.384-1.148-1.028-1.279C31.189,60.277,30.216,60.264,29.18,60.229"/><path d="M29.18,64.186v2.76c1.064-0.021,2.064-0.021,3.063-0.021c0.868,0.016,1.287-0.426,1.279-1.301	c-0.044-0.793-0.411-1.25-1.103-1.393C31.333,64.236,30.29,64.223,29.18,64.186"/><path d="M40.541,64.309c0.09-1.078-0.384-1.594-1.44-1.563c-1.174-0.008-1.702,0.521-1.585,1.586	C38.524,64.289,39.531,64.289,40.541,64.309"/><path d="M50.54,66.141c-0.343-0.606-1.095-0.811-2.259-0.604c-0.645,0.281-0.893,0.709-0.742,1.289	c0.168,0.73,0.949,0.941,2.358,0.6C50.408,67.221,50.622,66.797,50.54,66.141"/><path fill="#FFFFFF" d="M225.402,44.408c1.402,0,2.541,1.137,2.541,2.541c0,1.402-1.139,2.541-2.541,2.541	c-1.401,0-2.541-1.139-2.541-2.541C222.861,45.545,224.001,44.408,225.402,44.408"/><path d="M225.402,44.783c1.193,0,2.166,0.971,2.166,2.166s-0.973,2.164-2.166,2.164c-1.194,0-2.164-0.969-2.164-2.164	S224.208,44.783,225.402,44.783"/><path fill="#FFFFFF" d="M224.539,48.006v-2.402h1.07c0.216,0,0.379,0.02,0.488,0.063c0.113,0.043,0.201,0.119,0.271,0.229	c0.066,0.106,0.1,0.229,0.1,0.36c0,0.171-0.055,0.314-0.166,0.433c-0.109,0.117-0.283,0.188-0.515,0.223	c0.086,0.039,0.149,0.08,0.192,0.119c0.095,0.086,0.183,0.193,0.267,0.32l0.42,0.653h-0.401l-0.318-0.502	c-0.096-0.144-0.172-0.254-0.23-0.328c-0.062-0.079-0.117-0.133-0.164-0.163c-0.047-0.029-0.094-0.052-0.145-0.062	c-0.036-0.006-0.096-0.01-0.18-0.01h-0.369v1.065L224.539,48.006L224.539,48.006z"/><path d="M224.857,46.662h0.688c0.146,0,0.259-0.014,0.343-0.045c0.082-0.029,0.146-0.078,0.188-0.143	c0.043-0.066,0.062-0.14,0.062-0.218c0-0.112-0.039-0.207-0.123-0.278c-0.082-0.074-0.213-0.111-0.394-0.111h-0.765V46.662"/></svg>