<?xml version="1.0" encoding="utf-8"?>
<!-- Generator: Adobe Illustrator 19.2.1, SVG Export Plug-In . SVG Version: 6.00 Build 0)  -->
<svg version="1.1" id="Untitled-Page_201" xmlns="http://www.w3.org/2000/svg" xmlns:xlink="http://www.w3.org/1999/xlink" x="0px"
	 y="0px" viewBox="0 0 500 484.5" style="enable-background:new 0 0 500 484.5;" xml:space="preserve">
<style type="text/css">
	.st0{fill:#F7B20D;}
	.st1{fill:#CB267D;}
	.st2{fill:#0391CF;}
	.st3{fill:#FD7F1C;}
	.st4{fill:#FB4C99;}
	.st5{fill:#A4DCE9;}
</style>
<g>
	<path class="st0" d="M477.6,417.9c0,42.5-24.8,66.6-53.8,66.6c-34.7,0-63-33.3-63-70.8s22-65.1,55.9-65.1
		C446.5,348.5,477.6,381.8,477.6,417.9z"/>
	<path class="st1" d="M119.3,129c6.4,25.5-17,53.1-48.9,60.9c-34.7,8.5-63-7.1-69.4-33.3c-6.4-25.5,16.3-53.8,48.2-60.9
		C85.3,87.9,113,102.8,119.3,129z"/>
	<path class="st1" d="M212.1,259.3c-13.4-14.9-24.1-35.4-26.9-63c-7.1-68,43.9-108.3,87.1-121.1c-3.5,0.7-7.1,1.4-11.3,2.1
		c-45.3,10.6-44.6,28.3-68,33.3c-10.2,2-20.8,1-30.4-2.8c-12.8,12-24.1,25.5-33.3,41.8c-19.1,36.1-24.1,72.9-16.3,114
		c7.8,41.8,34.7,72.9,50.3,88.5s61.6,48.1,111.2,51.7c48.9,3.5,51.7-51.7,51.7-51.7v-3.5c0-7.8-2.8-27.6-28.3-39.6
		C279.4,299.7,239.7,289,212.1,259.3z"/>
	<path class="st2" d="M459.9,54c-8.5,17.7-31.2,20.5-52.4,10.6S375,33.4,382.8,16.4c7.8-16.3,31.9-21.3,53.1-11.3S468.4,37,459.9,54
		z"/>
	<path class="st0" d="M473.4,114.8c-5.7-7.8-26.2-22-43.2-14.2l-4.3,2.1c-12,7.8-17,21.2-5.7,43.9c6.4,14.2,9.2,37.5,4.3,60.9
		c-3.7,18.6-12.5,35.8-25.5,49.6c-32.6,33.3-71.5,44.6-123.2,35.4c-27.6-5-48.9-20.5-63-34c26.9,29.7,66.6,40.4,85.7,49.6
		c24.8,12,28.3,31.9,28.3,39.6c20.9,2.3,42.1,0.4,62.3-5.7c63-18.4,99.8-62.3,109-117.6C507.4,168.7,479.1,122.6,473.4,114.8z"/>
	<path class="st2" d="M272.3,74.5c37.8-5.8,76.3,4.5,106.2,28.3c29,23.4,49.6,63,46,104.8c5-23.4,2.1-46.7-4.3-60.9
		c-11.3-23.4-6.4-36.8,5.7-43.9c-10.6-17-36.8-56.7-99.8-77.9s-121.8,1.4-136.7,9.9s-46,22-46,44.6c0,12.8,7.8,22.7,19.1,27.6
		c8.5,4.3,19.8,5,30.4,2.8c24.1-5,23.4-22.7,68-33.3C264.5,75.9,268.8,75.2,272.3,74.5z"/>
	<path class="st3" d="M420.3,147.4c6.4,14.2,9.2,37.5,4.3,60.9c-0.7,10.5-3.1,20.8-7.1,30.4c-1.2,3.1,0,6.7,2.8,8.5
		c5,3.5,8.5,0,10.6-5s16.3-33.3,15.6-64.4s-9.9-56.7-19.8-73.6v-0.7C413.2,110.6,409,124.1,420.3,147.4z"/>
	<path class="st4" d="M297.8,308.9c-19.1-9.2-58.8-19.1-85.7-49.6c-12.8-12.8-20.5-24.1-21.2-25.5c-2.1-3.5-5.7-4.2-10.6-2.1
		c-4.3,2.1-3.5,7.8-3.5,7.8c3.5,8.5,22,51.7,67.3,80c24.9,15.6,53,25.5,82.1,29C326.1,340,323.3,320.9,297.8,308.9z"/>
	<path class="st5" d="M193,109.9c24.1-5,23.4-22.7,68-33.3c3.5-0.7,7.1-1.4,11.3-2.1c11.4-3.7,23.4-5.1,35.4-4.3c0,0,5.7,0,5.7-4.3
		c0-5-6.4-5.7-9.9-5.7s-48.9-5.7-87.1,12c-19.5,8.6-37.6,20.1-53.8,34C172.1,110.7,182.7,112,193,109.9z"/>
</g>
</svg>
