<?xml version="1.0" encoding="utf-8"?>
<!-- Generator: Adobe Illustrator 16.0.4, SVG Export Plug-In . SVG Version: 6.00 Build 0)  -->
<!DOCTYPE svg PUBLIC "-//W3C//DTD SVG 1.1//EN" "http://www.w3.org/Graphics/SVG/1.1/DTD/svg11.dtd">
<svg version="1.1" id="Layer_1" xmlns="http://www.w3.org/2000/svg" xmlns:xlink="http://www.w3.org/1999/xlink" x="0px" y="0px"
	 width="187.086px" height="169.904px" viewBox="0 0 187.086 169.904" enable-background="new 0 0 187.086 169.904"
	 xml:space="preserve">
<g>
	<g>
		<path fill-rule="evenodd" clip-rule="evenodd" fill="#2D368F" d="M93.556,168.591c-17.524,0-34.336-5.269-48.617-15.238
			c-13.635-9.559-24.023-22.717-30.061-38.075c-5.531-1.63-11.626-7.011-12.546-17.404c-1.023-6.816-1.082-17.44-0.139-25.792
			c1.263-12.632,9.071-16.432,12.754-17.526c6.037-15.356,16.425-28.517,30.06-38.076C59.255,6.558,76.042,1.313,93.556,1.313
			c17.443,0,34.23,5.244,48.545,15.166c13.64,9.562,24.027,22.723,30.064,38.081c3.683,1.114,11.495,4.949,12.755,17.533
			c0.912,8.067,0.854,18.689-0.145,25.819c-0.985,10.362-7.092,15.739-12.61,17.367c-5.943,15.29-16.332,28.45-30.062,38.074
			C127.893,163.321,111.105,168.591,93.556,168.591z"/>
		<path fill="#FFFFFF" d="M93.556,2.045c17.355,0,33.936,5.199,48.128,15.035c13.631,9.556,23.959,22.694,29.931,38.082
			c3.302,0.913,11.312,4.356,12.577,17.003c0.914,8.08,0.843,18.619-0.141,25.645c-0.983,10.328-7.167,15.458-12.437,16.863
			c-5.901,15.386-16.3,28.525-29.931,38.081c-14.122,9.907-30.773,15.106-48.128,15.106c-17.354,0-34.006-5.199-48.198-15.106
			c-13.63-9.555-23.958-22.694-29.931-38.081c-5.27-1.405-11.452-6.535-12.366-16.863c-1.053-7.026-1.053-17.565-0.14-25.645
			c1.264-12.647,9.204-16.09,12.577-17.003c5.972-15.387,16.3-28.525,29.931-38.082C59.55,7.244,76.202,2.045,93.556,2.045
			 M93.556,0.581c-17.664,0-34.596,5.29-48.964,15.298c-13.66,9.577-24.087,22.732-30.195,38.082
			c-3.959,1.27-11.663,5.358-12.932,18.058c-0.946,8.372-0.888,19.046,0.143,25.964c0.946,10.517,7.056,16.076,12.719,17.892
			c6.11,15.351,16.537,28.505,30.191,38.077c14.407,10.057,31.363,15.371,49.039,15.371c17.701,0,34.634-5.315,48.969-15.372
			c13.749-9.638,24.177-22.793,30.193-38.078c5.652-1.814,11.774-7.372,12.787-17.893c1.001-7.184,1.06-17.861,0.142-25.981
			c-1.264-12.626-8.973-16.745-12.93-18.035c-6.107-15.352-16.535-28.509-30.192-38.084C128.08,5.87,111.148,0.581,93.556,0.581
			L93.556,0.581z"/>
	</g>
	<path fill-rule="evenodd" clip-rule="evenodd" fill="#FFFFFF" d="M170.42,112.354c-0.421,0.069-0.772,0.351-0.913,0.771
		c-5.691,15.177-15.879,28.176-29.228,37.52c-13.772,9.626-29.862,14.684-46.724,14.684c-16.862,0-33.022-5.058-46.723-14.684
		c-13.419-9.344-23.537-22.343-29.299-37.52c-0.141-0.421-0.492-0.702-0.914-0.771c-4.567-0.983-10.188-5.411-11.101-14.826
		c0,0,0,0,0-0.069c-0.984-6.815-0.984-17.144-0.071-25.014C6.574,60.853,13.67,58.112,16.691,57.41
		c0.421-0.07,0.773-0.351,0.913-0.773c5.761-15.105,15.879-28.104,29.298-37.449C60.604,9.633,76.693,4.574,93.556,4.574
		c16.792,0,32.952,5.059,46.653,14.614c13.42,9.345,23.536,22.343,29.299,37.449c0.141,0.422,0.492,0.703,0.913,0.773
		c2.95,0.702,10.117,3.443,11.241,15.036c0.914,7.87,0.844,18.198-0.14,25.014c0,0.069,0,0.069,0,0.069
		C180.678,106.943,174.988,111.371,170.42,112.354L170.42,112.354L170.42,112.354z"/>
	<path fill-rule="evenodd" clip-rule="evenodd" fill="#F15B29" d="M167.611,56.918c-11.383-29.439-40.26-50.446-74.055-50.446
		c-33.795,0-62.672,21.007-74.054,50.446C66.155,49.119,120.886,48.698,167.611,56.918L167.611,56.918L167.611,56.918z"/>
	<path fill-rule="evenodd" clip-rule="evenodd" fill="#F15B29" d="M167.611,112.916c-11.383,29.509-40.26,50.517-74.055,50.517
		c-33.795,0-62.672-21.008-74.054-50.517C66.155,120.785,120.886,121.206,167.611,112.916L167.611,112.916L167.611,112.916z"/>
	<polygon fill-rule="evenodd" clip-rule="evenodd" fill="#2D368F" points="137.328,105.75 137.328,67.457 123.205,67.457 
		123.205,105.75 137.328,105.75 	"/>
	<path fill-rule="evenodd" clip-rule="evenodd" fill="#2D368F" d="M96.788,80.947h14.052v24.802H96.788v-0.844
		c-2.74,1.686-9.906,1.897-11.593,1.897c-1.686,0-13.279-1.475-13.279-10.328l0,0V80.947h14.123V92.54
		c-0.211,2.248,0.632,5.832,4.848,5.832c4.215,0,5.901-1.265,5.901-4.778l0,0V80.947L96.788,80.947z"/>
	<path fill-rule="evenodd" clip-rule="evenodd" fill="#2D368F" d="M152.083,105.75V90.854h-5.902v-9.907h5.902v-6.323
		c0.211-4.216,2.319-7.799,8.642-7.799c6.254,0,9.626,0.843,13.42,3.373l0,0l-0.21,7.377c-4.005-2.318-8.291-2.951-8.291,0.843l0,0
		v2.529h5.901v9.907h-5.901v14.896H152.083L152.083,105.75z"/>
	<path fill-rule="evenodd" clip-rule="evenodd" fill="#2D368F" d="M39.456,89.8v-7.588h21.429v23.538H46.833v-0.844
		c-2.74,0.844-7.939,0.844-10.68,0.844c-10.118,0.14-23.678-6.184-23.678-21.781c0-15.598,14.825-22.483,24.731-22.483
		s17.355,2.81,20.727,4.917l0,0v8.221c-4.637-1.476-8.993-3.583-14.895-3.583c-5.902,0-14.755,3.583-14.544,13.701
		c0.211,10.047,7.8,11.734,10.961,11.734s6.323-0.703,7.377-2.179l0,0V89.8H39.456L39.456,89.8z"/>
	<path fill-rule="evenodd" clip-rule="evenodd" fill="#2D368F" d="M171.825,102.236c-0.976,0-1.756,0.787-1.756,1.756
		c0,0.968,0.791,1.757,1.756,1.757c0.967,0,1.758-0.78,1.758-1.757C173.583,103.016,172.802,102.236,171.825,102.236
		L171.825,102.236z M173.301,103.993c0,0.774-0.68,1.475-1.477,1.475c-0.796,0-1.404-0.713-1.404-1.475
		c0-0.764,0.65-1.475,1.404-1.475C172.58,102.518,173.301,103.218,173.301,103.993L173.301,103.993z"/>
	<path fill-rule="evenodd" clip-rule="evenodd" fill="#2D368F" d="M171.755,103.922h-0.211v-0.562h0.141
		c0.194,0,0.492,0.014,0.492,0.281C172.177,103.848,171.902,103.922,171.755,103.922L171.755,103.922z M171.544,104.274h0.141h0.14
		c0.071,0,0.071,0,0.142,0c0.069,0.069,0.141,0.14,0.141,0.21c0,0,0,0.071,0,0.21c0,0.14,0.07,0.211,0.07,0.282l0,0h0.491
		l-0.07-0.071c0-0.095,0-0.188,0-0.281c0-0.211-0.069-0.351-0.141-0.421c-0.069-0.071-0.14-0.142-0.28-0.142
		c0.141,0,0.211-0.069,0.352-0.14c0.069-0.07,0.14-0.14,0.14-0.352c0-0.21-0.14-0.351-0.28-0.421c-0.07-0.07-0.211-0.14-0.353-0.14
		h-0.982v1.967h0.491V104.274L171.544,104.274z"/>
</g>
</svg>
