<?xml version="1.0" encoding="utf-8"?>
<!-- Generator: Adobe Illustrator 12.0.0, SVG Export Plug-In . SVG Version: 6.00 Build 51448)  -->
<!DOCTYPE svg PUBLIC "-//W3C//DTD SVG 1.1//EN" "http://www.w3.org/Graphics/SVG/1.1/DTD/svg11.dtd" [
	<!ENTITY ns_svg "http://www.w3.org/2000/svg">
	<!ENTITY ns_xlink "http://www.w3.org/1999/xlink">
]>
<svg  version="1.1" id="Layer_1" xmlns="&ns_svg;" xmlns:xlink="&ns_xlink;" width="168.879" height="55.248"
	 viewBox="0 0 168.879 55.248" overflow="visible" enable-background="new 0 0 168.879 55.248" xml:space="preserve">
<g>
	<polygon fill="#6bb623" points="0,0 55.25,0 55.25,55.248 0,55.248 0,0 	"/>
	<polygon points="67.529,21.508 70.799,21.508 70.799,26.2 74.677,26.2 74.677,21.508 77.957,21.508 77.957,33.783 74.677,33.783 
		74.677,28.52 70.799,28.52 70.799,33.783 67.529,33.783 67.529,21.508 	"/>
	<path d="M82.836,30.178c0-0.878,0.422-1.319,1.112-1.686c0.931,0.857,1.854,1.738,2.727,2.703
		c-0.612,0.463-1.128,0.676-1.865,0.676C83.821,31.871,82.836,31.236,82.836,30.178L82.836,30.178z M89.406,27.133
		c-0.032,0.789-0.242,1.599-0.806,2.217c-0.689-0.668-1.399-1.32-2.119-1.954c1.308-0.76,2.642-1.55,2.642-3.101
		c0-2.293-2.11-3.028-4.263-3.028c-1.926,0-4.091,0.769-4.091,2.938c0,1.077,0.496,1.919,1.485,2.696
		c-1.516,0.707-2.416,1.641-2.416,3.346c0,2.536,2.314,3.736,4.653,3.736c1.337,0,2.768-0.225,3.823-1.145
		c0.271,0.282,0.49,0.599,0.74,0.934h3.507l-2.183-2.431c1.14-1.131,1.812-2.644,1.887-4.209H89.406L89.406,27.133z M83.595,24.364
		c0-0.616,0.542-1.092,1.306-1.092c0.757,0,1.371,0.37,1.371,1.092c0,0.811-0.9,1.306-1.496,1.659
		C84.282,25.633,83.595,25.071,83.595,24.364L83.595,24.364z"/>
	<path d="M97.241,23.804h0.87c1.242,0,2.393,0.21,2.393,1.356c0,1.387-1.338,1.423-2.393,1.423h-0.87V23.804L97.241,23.804z
		 M93.968,33.772h3.273v-4.866h0.689c1.214,0,1.638,0.534,2.308,2.646l0.705,2.22h3.414l-1.191-3.351
		c-0.616-1.494-0.688-2.43-1.743-2.711v-0.032c1.578-0.372,2.355-1.464,2.355-3.104c0-2.112-1.773-3.098-3.963-3.098h-5.848V33.772
		L93.968,33.772z"/>
	<path d="M114.388,28.557h1c1.129,0,2.421,0.125,2.421,1.466c0,1.25-1.255,1.422-2.454,1.422h-0.967V28.557L114.388,28.557z
		 M111.11,33.772h5.178c2.207,0,4.798-0.615,4.798-3.562c0-1.493-0.851-2.377-2.483-2.709v-0.038c1.373-0.455,2.16-1.322,2.16-2.87
		c0-2.116-1.704-3.117-3.996-3.117h-5.656V33.772L111.11,33.772z M114.388,23.804h0.948c1.093,0,2.15,0.104,2.15,1.234
		c0,1.038-1.11,1.298-2.183,1.298h-0.916V23.804L114.388,23.804z"/>
	<polygon points="122.95,21.477 126.229,21.477 126.229,31.342 131.299,31.342 131.299,33.772 122.95,33.772 122.95,21.477 	"/>
	<path d="M135.097,27.627c0-2.132,0.791-3.931,2.779-3.931c1.993,0,2.79,1.799,2.79,3.931c0,2.027-0.797,3.926-2.79,3.926
		C135.888,31.553,135.097,29.654,135.097,27.627L135.097,27.627z M131.717,27.627c0,3.903,2.146,6.356,6.159,6.356
		c4.019,0,6.168-2.453,6.168-6.356c0-3.948-2.117-6.36-6.168-6.36C133.822,21.267,131.717,23.679,131.717,27.627L131.717,27.627z"/>
	<path d="M156.047,33.487c-0.934,0.229-1.979,0.496-3.647,0.496c-3.274,0-7.063-1.654-7.063-6.305c0-4.284,2.986-6.412,7.042-6.412
		c1.256,0,2.473,0.281,3.65,0.634l-0.264,2.655c-1.062-0.582-2.079-0.86-3.204-0.86c-2.334,0-3.848,1.69-3.848,3.983
		c0,2.414,1.71,3.874,4.106,3.874c1.077,0,2.171-0.28,3.064-0.638L156.047,33.487L156.047,33.487z"/>
	<polygon points="157.574,21.496 160.825,21.496 160.825,26.521 160.86,26.521 164.632,21.496 168.531,21.496 164.038,27.216 
		168.879,33.77 164.756,33.77 160.86,28.185 160.825,28.185 160.825,33.77 157.574,33.77 157.574,21.496 	"/>
</g>
</svg>
