<?xml version="1.0" encoding="iso-8859-1"?><!-- Generator: Adobe Illustrator 16.0.0, SVG Export Plug-In . SVG Version: 6.00 Build 0) --><!DOCTYPE svg PUBLIC "-//W3C//DTD SVG 1.1//EN" "http://www.w3.org/Graphics/SVG/1.1/DTD/svg11.dtd"><svg version="1.1" id="Layer_1" xmlns="http://www.w3.org/2000/svg" xmlns:xlink="http://www.w3.org/1999/xlink" x="0px" y="0px" width="192.744px" height="192.744px" viewBox="0 0 192.744 192.744" style="enable-background:new 0 0 192.744 192.744;" xml:space="preserve"><g><polygon style="fill-rule:evenodd;clip-rule:evenodd;fill:#FFFFFF;" points="0,0 192.744,0 192.744,192.744 0,192.744 0,0	"/><path style="fill-rule:evenodd;clip-rule:evenodd;" d="M189.879,70.498h-39.723l0,0c0.246-4.252,3.77-7.615,8.082-7.615l0,0v-17.76	l0,0c-36.693-1.284-53.865-13.257-61.769-19.312c-7.904,6.056-25.125,18.029-61.818,19.312l0,0v17.76l0,0	c4.313,0,7.837,3.363,8.082,7.615l0,0H2.792v49.105h37.122l0,0c0,1.569-0.831,6.217-10.804,7.326	c6.833,6.279,46.674,40.076,67.359,40.076s60.628-33.797,67.462-40.076c-9.328-1.017-10.805-5.11-10.805-7.326l0,0h36.752V70.498	L189.879,70.498L189.879,70.498z M38.706,59.85l0.006-11.078l0,0c33.207-1.722,49.593-11.687,57.757-17.811	c8.755,6.211,24.501,16.088,57.708,17.811l0,0L154.16,59.85l0,0c-4.518,1.63-7.779,5.604-7.932,10.648l0,0h-3.986l0,0	c0.131-5.711,3.252-10.395,7.859-13.122l0,0l0.012-5.017l0,0c-26.812-1.889-44.32-10.2-53.644-16.615	c-8.143,5.978-24.512,13.987-53.692,16.615l0,0l0.012,5.017l0,0c4.607,2.727,7.729,7.411,7.858,13.122l0,0H46.66l0,0	C46.508,65.454,43.224,61.479,38.706,59.85L38.706,59.85L38.706,59.85L38.706,59.85z M138.629,65.983c0,0.739,0,4.515,0,4.515l0,0	h-4.34v-3.545l0,0c0-1.108-1.34-1.616-1.939-1.616l0,0h-4.156v5.161h-4.34V51.439l10.436,2.17l0,0	c1.477,0.323,4.34,1.293,4.34,4.155l0,0v3.093l0,0c0,1.108-0.139,2.078-1.523,2.77C137.752,63.998,138.629,65.244,138.629,65.983	L138.629,65.983L138.629,65.983L138.629,65.983z M120.16,54.625V66.26l0,0c0.047,1.431-0.785,4.238-4.57,4.238l0,0h-5.68l0,0	c-1.893,0-4.34-1.006-4.34-4.423l0,0V49.084l0,0c0-2.031,2.078-3.324,4.387-2.493l0,0l7.572,2.909l0,0	C119.375,50.238,120.207,51.854,120.16,54.625L120.16,54.625L120.16,54.625L120.16,54.625z M88.58,49.315v-4.802l7.89-4.293	l8.269,4.524v4.802l-5.725-3.093v24.045h-4.709V46.175L88.58,49.315L88.58,49.315L88.58,49.315z M88.025,49.084v16.991l0,0	c0,3.417-2.447,4.423-4.34,4.423l0,0h-5.679l0,0c-3.787,0-4.618-2.807-4.571-4.238l0,0V54.625l0,0	c-0.046-2.771,0.785-4.387,2.632-5.125l0,0l7.572-2.909l0,0C85.948,45.76,88.025,47.053,88.025,49.084L88.025,49.084L88.025,49.084	L88.025,49.084z M63.139,70.498l-3.556-7.608v7.608h-4.34V54.486l4.34-0.785L63,60.997l3.786-8.819l4.063-1.062v19.382h-4.34	v-7.886L63.139,70.498L63.139,70.498L63.139,70.498z M154.697,128.591c-10.896,11.081-43.822,34.167-58.228,34.167	s-47.228-23.086-58.125-34.167c5.633-2.493,6.556-6.125,6.926-8.987l0,0h4.525l0,0c-0.277,2.678-0.831,6.956-4.525,9.542	c4.248,4.063,36.054,29.55,51.199,29.55c15.144,0,47.054-25.486,51.302-29.55c-3.693-2.586-4.248-6.864-4.525-9.542l0,0h4.525l0,0	C148.141,122.466,149.064,126.098,154.697,128.591L154.697,128.591L154.697,128.591L154.697,128.591z M59.186,131.167	c0.248,0.165,9.996,7.765,9.996,7.765l0,0v4.627l0,0c0,0-13.713-10.244-14.126-10.492c-0.496-0.33-1.157-1.486-1.322-2.312	s0-7.436,0-8.179s0.826-2.972,1.982-2.972l0,0h10.657v4.376h-6.361l0,0c-0.991-0.083-1.569,0.248-1.569,1.156l0,0v4.874l0,0	C58.443,130.341,58.856,131.002,59.186,131.167L59.186,131.167L59.186,131.167L59.186,131.167z M68.93,119.604h4.461l2.396,7.436	l3.883-7.436h4.213l-6.03,13.053v15.614l0,0c0,0.743-4.213-1.57-4.295-2.148c-0.166-0.578,0-13.631,0-13.631l0,0L68.93,119.604	L68.93,119.604L68.93,119.604z M89.756,147.925c0.248,0.496,5.7,3.057,5.7,3.057l0,0v5.122l0,0c0,0-8.757-3.718-9.583-4.544	c-0.909-0.908-0.992-1.899-0.992-2.312l0,0v-25.939l0,0c0-1.57,3.14-3.704,3.883-3.704l0,0h6.443v4.695l0,0	c0,0.165-3.717,0.165-4.626,0c-0.496-0.083-1.156,0.578-1.156,2.891l0,0v19.166l0,0C89.426,146.769,89.426,147.512,89.756,147.925	L89.756,147.925L89.756,147.925L89.756,147.925z M108.342,146.686v4.46l0,0c0,0-7.27,3.222-8.426,3.8	c-0.662,0.331-1.406-0.247-1.406-1.238l0,0v-34.104h4.957v29.064L108.342,146.686L108.342,146.686L108.342,146.686z M118.994,131.001v3.8h-4.627v9.17l5.617-2.644v4.048l-7.434,3.718l0,0c-0.91,0.413-2.066,0-2.066-0.826l0,0v-27.014l0,0	c0-1.074,0.908-1.649,1.652-1.649l0,0h8.674v4.706h-6.443v6.691H118.994L118.994,131.001L118.994,131.001z M133.277,131.32	c0,0-7.27,0.165-8.592,0c-1.238-0.165-1.734-0.413-1.734-1.322c0-0.825-0.082-6.277,0-7.848c0.164-1.569,2.643-2.383,3.801-2.547	c1.072-0.083,10.902,0,10.902,0l0,0v4.282h-10.49l0,0c-0.412,0-0.33,3.552,0,3.552l0,0h9.418l0,0c1.32,0,1.156,0.33,1.156,0.908	l0,0v5.288l0,0c0,0.577-0.826,1.239-1.156,1.569c-0.248,0.248-14.045,8.592-14.045,8.592l0,0v-3.718l0,0	c0,0,10.988-6.939,11.07-7.435C133.773,131.898,133.277,131.32,133.277,131.32L133.277,131.32L133.277,131.32L133.277,131.32z M185.908,115.479H6.948V75.217h178.96V115.479L185.908,115.479L185.908,115.479z M78.791,53.193l3.509-1.385l0,0	c0.646-0.277,1.385,0,1.385,1.016l0,0v11.82l0,0c0,0.785-0.369,1.431-1.339,1.431l0,0h-3.186l0,0c-1.016,0-1.386-0.508-1.386-1.339	l0,0v-9.419l0,0C77.775,54.302,77.868,53.655,78.791,53.193L78.791,53.193L78.791,53.193L78.791,53.193z M115.82,55.317v9.419l0,0	c0,0.831-0.369,1.339-1.385,1.339l0,0h-3.186l0,0c-0.971,0-1.34-0.646-1.34-1.431l0,0v-11.82l0,0c0-1.016,0.738-1.293,1.385-1.016	l0,0l3.51,1.385l0,0C115.729,53.655,115.82,54.302,115.82,55.317L115.82,55.317L115.82,55.317L115.82,55.317z M133.365,57.626	c0.924,0.185,0.924,1.062,0.924,1.847c0,0.785-0.139,1.524-0.971,1.524l0,0h-5.125v-4.433L133.365,57.626L133.365,57.626	L133.365,57.626z M11.104,78.911v32.412h170.742V78.911H11.104L11.104,78.911L11.104,78.911z M27.03,107.537h-3.759V96.699h-2.969	v10.838h-3.759V82.29h3.759v10.096h2.969V82.29h3.759V107.537L27.03,107.537L27.03,107.537z M35.783,107.537l-0.663-6.566h-2.752	l-0.77,6.566h-3.404l2.872-25.247h5.639l2.872,25.247H35.783L35.783,107.537L35.783,107.537z M51.522,90.197	c0,1.879-0.342,3.35-1.691,4.419c0.195,0.224,1.645,1.19,1.688,2.9l0,0l0.003,10.021h-3.759l0.001-8.444l0,0	c0-1.525-0.646-2.011-3.043-2.011l0,0v10.455h-3.759V82.29h6.211l0,0c3.014,0,4.35,1.063,4.35,4.326l0,0V90.197L51.522,90.197	L51.522,90.197z M61.273,107.537h-7.576V82.29h3.759v21.257h3.817V107.537L61.273,107.537L61.273,107.537z M70.372,107.537h-7.839	V82.29h7.769v3.944h-4.01V92.4h3.832v3.99h-3.832v7.156h4.08V107.537L70.372,107.537L70.372,107.537z M79.09,107.537h-3.759v-9.433	L71.466,82.29h3.865l2.026,8.82l2.087-8.82h3.511L79.09,97.928V107.537L79.09,107.537L79.09,107.537z M88.672,96.41h-6.88v-3.186	h6.88V96.41L88.672,96.41L88.672,96.41z M100.518,102.963c0,2.411-1.561,4.574-4.468,4.574l0,0h-5.354V82.29h4.539l0,0	c3.723,0,5.284,1.276,5.284,5.709l0,0V102.963L100.518,102.963L100.518,102.963z M109.104,107.537l-0.662-6.566h-2.752l-0.77,6.566	h-3.404l2.871-25.247h5.639l2.873,25.247H109.104L109.104,107.537L109.104,107.537z M119.451,107.537h-4.207l-3.529-25.247h3.832	l1.826,15.182l1.82-15.182h3.787L119.451,107.537L119.451,107.537L119.451,107.537z M127.799,107.537h-3.758V82.29h3.758V107.537	L127.799,107.537L127.799,107.537z M139.855,102.963c0,2.411-1.561,4.574-4.469,4.574l0,0h-5.354V82.29h4.539l0,0	c3.723,0,5.283,1.276,5.283,5.709l0,0V102.963L139.855,102.963L139.855,102.963z M152.088,90.86h-3.76v-3.522l0,0	c0-1.277-0.758-1.56-1.504-1.56c-0.779,0-1.492,0.283-1.492,1.56l0,0v2.797l0,0c0,1.809,6.709,5.007,6.709,7.56l0,0v6.084l0,0	c0,3.298-2.912,4.255-5.252,4.255c-2.305,0-5.17-0.957-5.17-4.255l0,0v-5.492h3.758v4.48l0,0c0,1.276,0.668,1.561,1.447,1.561	c0.746,0,1.459-0.284,1.459-1.561l0,0v-2.659l0,0c0-3.547-6.711-4.528-6.711-8.642l0,0v-5.417l0,0c0-3.298,2.912-4.255,5.217-4.255	c2.34,0,5.299,0.958,5.299,4.255l0,0V90.86L152.088,90.86L152.088,90.86z M164.293,103.778c0,3.298-3.029,4.255-5.334,4.255	c-2.307,0-5.264-0.957-5.264-4.255l0,0V86.049l0,0c0-3.298,2.957-4.255,5.264-4.255c2.305,0,5.334,0.958,5.334,4.255l0,0V103.778	L164.293,103.778L164.293,103.778z M177.197,107.537H172.6l-2.99-14.373v14.373h-3.777V82.29h5.084l2.457,12.836V82.29h3.824	V107.537L177.197,107.537L177.197,107.537z M32.815,96.703l0.875-9.804h0.249l0.734,9.804H32.815L32.815,96.703L32.815,96.703z M44.72,85.766h1.486l0,0c0.851,0,1.418,0.607,1.418,1.564l0,0v3.789l0,0c0,0.922-0.284,2.047-1.596,2.047l0,0H44.72V85.766	L44.72,85.766L44.72,85.766z M94.453,86.273h0.887l0,0c0.958,0,1.418,0.248,1.418,1.879l0,0v13.521l0,0	c0,1.632-0.461,1.88-1.418,1.88l0,0h-0.887V86.273L94.453,86.273L94.453,86.273z M106.135,96.703l0.877-9.804h0.248l0.734,9.804	H106.135L106.135,96.703L106.135,96.703z M133.791,86.273h0.887l0,0c0.957,0,1.418,0.248,1.418,1.879l0,0v13.521l0,0	c0,1.632-0.461,1.88-1.418,1.88l0,0h-0.887V86.273L133.791,86.273L133.791,86.273z M157.455,102.259V87.43l0,0	c0-1.276,0.758-1.561,1.539-1.561c0.779,0,1.539,0.284,1.539,1.561l0,0v14.829l0,0c0,1.276-0.76,1.56-1.539,1.56	C158.213,103.818,157.455,103.535,157.455,102.259L157.455,102.259L157.455,102.259L157.455,102.259z"/></g></svg>