<?xml version="1.0" encoding="UTF-8" ?>
<!DOCTYPE svg PUBLIC "-//W3C//DTD SVG 1.1//EN" "http://www.w3.org/Graphics/SVG/1.1/DTD/svg11.dtd">
<svg width="986pt" height="148pt" viewBox="0 0 986 148" version="1.1" xmlns="http://www.w3.org/2000/svg">
<g id="#006cb7ff">
<path fill="#006cb7" opacity="1.00" d=" M 488.93 11.36 C 537.62 1.59 587.88 1.74 637.05 7.61 C 657.37 10.25 678.52 12.92 696.43 23.65 C 706.89 29.71 714.98 40.72 715.36 53.09 C 681.84 53.78 648.32 53.43 614.81 53.33 C 604.80 41.64 588.80 37.98 574.07 37.31 C 554.33 36.65 533.81 38.14 515.73 46.74 C 500.45 53.98 487.34 67.39 483.30 84.14 C 481.33 91.77 486.26 99.66 492.96 103.11 C 505.91 109.72 520.76 110.49 535.02 111.02 C 553.68 111.77 573.12 108.28 588.96 97.93 C 590.53 97.04 591.90 95.35 593.90 95.60 C 627.79 95.48 661.69 95.53 695.58 95.68 C 683.91 108.74 668.39 117.71 652.23 124.05 C 631.97 132.01 610.45 136.19 588.95 139.06 C 565.09 141.90 541.06 143.65 517.03 143.30 C 484.52 143.12 451.64 141.01 420.28 131.91 C 405.82 127.40 391.23 120.49 381.80 108.19 C 373.94 98.44 372.84 84.27 377.99 73.02 C 384.67 58.22 397.74 47.52 411.45 39.46 C 435.40 25.69 461.94 16.90 488.93 11.36 Z" />
<path fill="#006cb7" opacity="1.00" d=" M 62.45 8.22 C 97.68 7.65 132.92 8.55 168.16 8.41 C 161.68 23.04 155.10 37.64 148.60 52.27 C 182.89 52.33 217.18 52.15 251.47 52.36 C 258.18 37.78 264.43 22.97 271.15 8.39 C 307.36 8.35 343.56 8.26 379.77 8.40 C 360.12 51.82 340.55 95.26 320.99 138.72 C 290.66 139.38 260.32 138.98 229.99 139.07 C 224.25 139.13 218.49 139.26 212.80 138.46 C 220.82 121.40 228.39 104.13 236.10 86.94 C 201.71 86.93 167.31 86.93 132.92 86.93 C 125.46 104.17 117.76 121.31 110.54 138.64 C 74.90 139.40 39.26 139.11 3.62 138.91 C 22.94 95.21 43.01 51.85 62.45 8.22 Z" />
<path fill="#006cb7" opacity="1.00" d=" M 766.16 8.00 C 802.57 8.00 838.99 8.00 875.40 8.00 C 860.65 41.08 845.81 74.11 830.91 107.13 C 881.09 107.16 931.28 107.28 981.46 107.27 C 976.69 117.85 971.93 128.43 967.15 139.00 C 880.62 139.07 794.09 139.09 707.57 138.99 C 726.86 95.22 746.58 51.64 766.16 8.00 Z" />
</g>
</svg>
