<?xml version="1.0" encoding="utf-8"?><!-- Generator: Adobe Illustrator 16.0.0, SVG Export Plug-In . SVG Version: 6.00 Build 0) --><!DOCTYPE svg PUBLIC "-//W3C//DTD SVG 1.1//EN" "http://www.w3.org/Graphics/SVG/1.1/DTD/svg11.dtd"><svg version="1.1" id="svg3608" xmlns:dc="http://purl.org/dc/elements/1.1/" xmlns:cc="http://creativecommons.org/ns#" xmlns:rdf="http://www.w3.org/1999/02/22-rdf-syntax-ns#" xmlns:svg="http://www.w3.org/2000/svg" xmlns:sodipodi="http://sodipodi.sourceforge.net/DTD/sodipodi-0.dtd" xmlns:inkscape="http://www.inkscape.org/namespaces/inkscape" sodipodi:docname="A.svg" inkscape:version="0.48.2 r9819" xmlns="http://www.w3.org/2000/svg" xmlns:xlink="http://www.w3.org/1999/xlink" x="0px" y="0px" width="999px" height="503.186px" viewBox="0.5 0.5 999 503.186" enable-background="new 0.5 0.5 999 503.186" xml:space="preserve"><sodipodi:namedview fit-margin-top="0.5" fit-margin-left="0.5" showgrid="false" inkscape:cy="438.7772" inkscape:cx="546.6317" inkscape:zoom="0.35" borderopacity="1.0" bordercolor="#666666" pagecolor="#ffffff" id="base" inkscape:window-maximized="0" inkscape:window-y="-21" inkscape:window-x="859" inkscape:window-height="1037" inkscape:window-width="1051" fit-margin-right="0.5" inkscape:current-layer="g4539" inkscape:document-units="px" inkscape:pageopacity="0.0" fit-margin-bottom="0.5" inkscape:pageshadow="2"></sodipodi:namedview><path id="path4843" inkscape:connector-curvature="0" d="M644.079,114.705c-1.428-4.395-5.498-7.199-9.872-7.219H535.55	l-30.485-93.828c-1.367-4.162-5.306-7.158-9.923-7.158s-8.545,2.998-9.922,7.169l-30.496,93.817h-98.636	c-4.384,0.021-8.454,2.825-9.881,7.219c-1.428,4.404,0.212,9.062,3.746,11.654l79.804,57.985l-30.486,93.817	c-1.326,4.182,0.102,8.91,3.817,11.634c3.746,2.724,8.688,2.592,12.25,0.04l79.804-57.985l79.805,57.985	c3.564,2.552,8.504,2.683,12.25-0.04c3.736-2.725,5.145-7.453,3.817-11.635l-30.486-93.816l79.804-57.985	c3.534-2.592,5.174-7.25,3.746-11.654"/><path id="path4547" inkscape:connector-curvature="0" fill="#FFFFFF" d="M644.079,108.705c-1.428-4.395-5.498-7.199-9.872-7.219	H535.55L505.064,7.658c-1.367-4.161-5.306-7.158-9.923-7.158s-8.545,2.997-9.922,7.168l-30.496,93.817h-98.636	c-4.384,0.021-8.454,2.825-9.881,7.219c-1.428,4.404,0.212,9.062,3.746,11.654l79.804,57.985l-30.486,93.818	c-1.326,4.182,0.102,8.909,3.817,11.633c3.746,2.724,8.688,2.592,12.25,0.041l79.804-57.986l79.805,57.985	c3.564,2.552,8.504,2.683,12.25-0.04c3.736-2.725,5.145-7.452,3.817-11.635l-30.486-93.816l79.804-57.985	c3.534-2.592,5.174-7.25,3.746-11.654"/><path id="path4551" inkscape:connector-curvature="0" fill="#ED1C24" d="M412.19,274.613c-0.688,0.496-1.63,0.527-2.349,0	c-0.729-0.525-1.022-1.346-0.759-2.146l31.711-97.634l-82.983-60.284c-0.688-0.506-0.982-1.367-0.708-2.217	c0.263-0.85,1.022-1.387,1.873-1.387h102.575l31.691-97.533c0.253-0.8,1.013-1.387,1.903-1.387s1.63,0.587,1.903,1.387	l31.681,97.533h102.586c0.84,0,1.63,0.537,1.903,1.387c0.273,0.851-0.041,1.721-0.729,2.217l-83.004,60.284l31.712,97.594	c0.253,0.81-0.031,1.661-0.75,2.187c-0.719,0.527-1.67,0.496-2.349,0l-82.953-60.303L412.19,274.613z"/><path id="path4555" inkscape:connector-curvature="0" fill="#048743" d="M259.039,264.229v-19.237h-3.776v-6.207h14.61v6.207h-3.949	v19.237H259.039z"/><path id="path4559" inkscape:connector-curvature="0" fill="#048743" d="M285.024,250.562c1.812,0,2.794-1.59,2.794-3.24	c0-2.228-1.347-3.179-3.23-3.068v6.277L285.024,250.562z M288.366,264.231l-3.817-10.591l-0.071,0.061	c0.041,1.246,0.111,2.502,0.111,3.746v6.784h-6.885v-25.444h6.642c5.974,0,10.287,1.752,10.287,8.464	c0,2.805-1.205,5.295-3.938,6.389l5.123,10.591H288.366z"/><path id="path4563" inkscape:connector-curvature="0" fill="#048743" d="M311.846,255.559l-0.739-5.903	c-0.202-1.589-0.334-3.209-0.496-4.799h-0.081c-0.192,1.59-0.364,3.21-0.638,4.799l-0.941,5.903H311.846z M313.162,264.226	l-0.506-3.271h-4.617l-0.577,3.271h-7.087l6.105-25.444h8.404l5.396,25.444H313.162z"/><path id="path4567" inkscape:connector-curvature="0" fill="#048743" d="M333.483,258.089c3.139-0.031,3.675-3.949,3.675-6.349	c0-2.764-0.537-6.612-3.675-6.612V258.089z M326.599,238.791h5.538c7.827,0,12.039,4.92,12.039,12.615	c0,11.746-7.381,12.818-11.573,12.818h-6.004V238.791z"/><path id="path4571" inkscape:connector-curvature="0" fill="#048743" d="M351.871,238.786h12.788v6.004h-5.903v3.544h5.295v6.003	h-5.295v3.879h5.903v6.014h-12.788V238.786z"/><path id="path4575" inkscape:connector-curvature="0" fill="#048743" d="M641.574,264.229l-0.638-15.998h-0.071	c-0.304,1.853-0.536,3.716-0.87,5.569l-1.954,10.429h-5.609l-2.399-15.998h-0.062c-0.04,1.894,0,3.747-0.101,5.639l-0.577,10.358	h-7.392l2.967-25.444h8.576l1.964,13.527h0.061c0.203-1.58,0.375-3.139,0.668-4.718l1.661-8.809h8.464l2.471,25.444H641.574z"/><path id="path4579" inkscape:connector-curvature="0" fill="#048743" d="M664.69,255.559l-0.739-5.903	c-0.202-1.589-0.334-3.209-0.506-4.799h-0.071c-0.202,1.59-0.364,3.21-0.638,4.799l-0.941,5.903H664.69z M666.007,264.226	l-0.507-3.271h-4.616l-0.577,3.271h-7.088l6.115-25.444h8.394l5.396,25.444H666.007z"/><path id="path4583" inkscape:connector-curvature="0" fill="#048743" d="M686.424,250.562c1.822,0,2.805-1.59,2.805-3.24	c0-2.228-1.356-3.179-3.24-3.068v6.277L686.424,250.562z M689.765,264.231l-3.816-10.591l-0.062,0.061	c0.031,1.246,0.102,2.502,0.102,3.746v6.784h-6.885v-25.444h6.642c5.984,0,10.298,1.752,10.298,8.464	c0,2.805-1.216,5.295-3.949,6.389l5.123,10.591H689.765z"/><path id="path4587" inkscape:connector-curvature="0" fill="#048743" d="M722.156,238.786l-5.498,12.281l6.136,13.163h-7.381	l-4.283-11.684h-0.04v11.684h-6.885v-25.444h6.885v10.833h0.04l3.767-10.833H722.156z"/><path id="path4591" inkscape:connector-curvature="0" fill="#048743" d="M192.209,434.113c-2.764-7.645-0.557-31.002,12.312-35.406	c13.537-4.646,21.859,2.328,25.899,15.977c1.508,5.062,1.174,10.408-0.476,12.404c-2.399,2.916-6.682,4.646-10.54,5.953	l-10.135,3.352C199.307,439.783,194.548,440.462,192.209,434.113 M256.147,462.443c-6.581,6.592-15.126,13.131-23.54,15.805	c-7.928,2.551-30.527,4.525-37.179-14.135c-1.438-4.049-0.273-5.295,3.392-6.379c5.447-1.619,19.501-5.75,34.324-11.309	c13.456-5.021,25.454-11.188,29.22-13.699c6.733-4.414,7.725-10.631,4.769-17.324c-9.437-21.23-30.81-43.455-66.328-36.701	c-28.229,5.385-48.448,30.799-48.448,59.867c0,36.004,21.698,57.043,49.298,63.574c25.525,6.064,55.525-6.307,68.363-27.104	C275.111,467.029,260.774,457.523,256.147,462.443"/><path id="path4595" inkscape:connector-curvature="0" fill="#048743" d="M522.833,434.113c-1.641-4.576-1.529-14.762,1.579-23.154	c2.116-5.641,5.235-10.055,10.732-12.252c6.187-2.49,11.482-1.812,15.623,0.576c4.738,2.725,8.12,8.121,10.276,15.4	c1.499,5.062,1.175,10.408-0.476,12.404c-2.42,2.916-6.156,4.373-10.55,5.953c-4.374,1.559-8.282,2.824-10.125,3.402	C529.87,439.582,525.172,440.462,522.833,434.113 M586.751,462.443c-6.561,6.592-15.116,13.131-23.51,15.805	c-7.938,2.551-30.547,4.525-37.188-14.135c-1.438-4.049-0.264-5.295,3.392-6.379c5.447-1.619,19.501-5.75,34.323-11.309	c13.456-5.021,25.465-11.188,29.211-13.699c6.743-4.414,7.735-10.631,4.778-17.324c-9.446-21.23-30.8-43.455-66.328-36.701	c-28.228,5.385-48.447,30.799-48.447,59.867c0,36.004,21.688,57.043,49.298,63.574c25.515,6.064,55.525-6.307,68.363-27.104	C605.735,467.029,591.398,457.523,586.751,462.443"/><path id="path4599" inkscape:connector-curvature="0" fill="#048743" d="M774.877,434.113c-1.66-4.576-1.529-14.762,1.579-23.154	c2.116-5.641,5.235-10.055,10.732-12.252c6.187-2.49,11.481-1.812,15.623,0.576c4.738,2.725,8.11,8.121,10.276,15.4	c1.488,5.062,1.175,10.408-0.485,12.404c-2.399,2.916-6.136,4.373-10.54,5.953c-4.385,1.559-8.293,2.824-10.135,3.402	C781.894,439.582,777.216,440.462,774.877,434.113 M838.795,462.443c-6.551,6.592-15.116,13.131-23.53,15.805	c-7.917,2.551-30.526,4.525-37.178-14.135c-1.428-4.049-0.254-5.295,3.401-6.379c5.447-1.619,19.49-5.75,34.323-11.309	c13.446-5.021,25.465-11.188,29.211-13.699c6.732-4.414,7.725-10.631,4.778-17.324c-9.446-21.23-30.81-43.455-66.328-36.701	c-28.238,5.385-48.447,30.799-48.447,59.867c0,36.004,21.688,57.043,49.298,63.574c25.515,6.064,55.515-6.307,68.354-27.104	C857.77,467.029,843.442,457.523,838.795,462.443"/><path id="path4603" inkscape:connector-curvature="0" fill="#048743" d="M60.207,424.652c-1.984,0-3.594,1.611-3.594,3.596	l0.01,40.773c0.04,6.326,1.944,10.559,5.396,12.088c1.863,0.83,5.923,2.703,8.221,3.736c1.58,0.719,1.64,2.328,1.407,4.395	c-0.202,1.842-0.739,7.098-0.941,9.031c-0.212,2.105-1.853,2.996-5.042,2.996H6.646c-2.987,0-4.84-0.525-5.093-2.996	c-0.203-1.934-0.75-7.482-0.952-9.324c-0.264-2.34,0.212-3.545,1.66-4.213c1.975-0.922,6.277-2.836,8.141-3.705	c3.665-1.701,5.224-6.662,5.224-11.877l-0.01-100.814c-0.01-5.629-1.59-10.174-5.69-12.078c-1.863-0.861-5.751-2.623-7.644-3.523	c-1.569-0.75-1.995-2.197-1.691-4.252c0.263-1.844,0.699-4.992,0.962-6.926c0.334-2.451,2.106-2.986,5.093-2.986H62.92	c2.997,0,4.708,0.535,5.052,2.986c0.263,1.934,0.699,5.082,0.962,6.926c0.304,2.055-0.101,3.473-1.63,4.293	c-2.005,1.082-4.819,2.662-6.622,3.645c-2.43,1.326-4.02,4.07-4.06,10.57l-0.01,29.383c0,1.994,1.61,3.604,3.594,3.604h31.509	c1.995,0,3.594-1.609,3.594-3.604l-0.01-29.383c-0.041-6.5-1.63-9.244-4.05-10.57c-1.812-0.982-4.617-2.562-6.622-3.645	c-1.529-0.82-1.944-2.238-1.641-4.293c0.264-1.844,0.699-4.992,0.962-6.926c0.344-2.451,2.065-2.986,5.052-2.986h56.274	c2.987,0,4.759,0.535,5.103,2.986c0.263,1.934,0.688,5.082,0.962,6.926c0.293,2.055-0.122,3.502-1.691,4.252	c-1.904,0.9-5.792,2.662-7.655,3.523c-4.09,1.904-5.67,6.449-5.68,12.078l-0.01,100.814c0,5.215,1.549,10.176,5.214,11.877	c1.863,0.869,6.176,2.783,8.15,3.705c1.448,0.668,1.914,1.873,1.661,4.213c-0.203,1.842-0.759,7.391-0.952,9.324	c-0.253,2.471-2.116,2.996-5.103,2.996H86.258c-3.189,0-4.83-0.891-5.042-2.996c-0.203-1.934-0.739-7.189-0.942-9.031	c-0.223-2.066-0.172-3.676,1.417-4.395c2.289-1.033,6.349-2.906,8.222-3.736c3.442-1.529,5.346-5.762,5.386-12.088l0.01-40.773	c0-1.984-1.6-3.596-3.594-3.596H60.207z"/><path id="path4607" inkscape:connector-curvature="0" fill="#048743" d="M692.748,421.398c0,0,21.374,38.666,27.205,49.287	c4.436,8.07,9.417,10.307,16.17,14.154c1.741,0.982,2.268,1.631,1.954,4.9c-0.233,2.521-0.628,6.379-0.82,8.385	c-0.273,2.793-2.258,3.139-5.032,3.139h-31.508c-3.989,0-5.549-0.83-6.967-3.402c-1.519-2.754-27.863-50.686-27.863-50.686	l-9.933,9.486v13.225c0.051,6.064,2.845,9.992,5.568,11.512c1.763,0.982,4.436,2.471,6.582,3.654	c1.65,0.912,1.771,2.066,1.549,4.658c-0.162,1.832-0.668,6.621-0.86,8.564c-0.223,2.146-1.681,2.988-5.053,2.988h-52.447	c-2.996,0-4.869-0.518-5.123-2.988c-0.202-1.943-0.698-7.086-0.9-8.92c-0.254-2.309,0.151-3.482,1.67-4.332	c2.005-1.135,4.83-2.715,6.632-3.707c2.582-1.428,4.678-5.295,4.678-11.623V367.291c-0.021-7.088-2.703-10.307-4.789-11.473	c-1.468-0.83-5.721-3.189-6.692-3.746c-1.468-0.83-1.752-2.43-1.468-4.395c0.263-1.822,0.587-4.191,0.86-6.125	c0.354-2.572,2.035-2.986,5.093-2.986h37.877c3.22,0,6.814,2.379,6.814,6.875l0.01,78.244c0,0,21.252-19.146,24.391-21.961	c2.238-2.014,1.601-4.16,0.345-4.748c-2.177-1.012-4.607-2.086-5.974-2.703c-1.509-0.689-2.278-1.498-2.025-3.988	c0.253-2.359,0.669-6.168,0.841-7.979c0.223-2.35,1.022-3.312,4.89-3.312h46.291c2.906,0,3.889,1.004,4.081,2.906	c0.202,2.168,0.729,6.662,0.932,8.83c0.161,1.73-1.043,2.732-3.595,3.664c-6.703,2.451-9.608,4.182-18.66,12.93	C701.81,412.791,692.748,421.398,692.748,421.398"/><path id="path4611" inkscape:connector-curvature="0" fill="#048743" d="M326.409,470.074c0.051,6.064,2.065,9.801,4.799,11.32	c1.762,0.992,4.435,2.471,6.581,3.654c1.64,0.912,1.772,2.076,1.539,4.658c-0.152,1.842-0.658,6.631-0.851,8.564	c-0.223,2.156-1.691,2.998-5.052,2.998h-52.457c-2.987,0-4.84-0.527-5.093-2.998c-0.192-1.934-0.719-7.076-0.921-8.92	c-0.253-2.299,0.162-3.473,1.67-4.334c2.005-1.133,4.83-2.703,6.622-3.695c2.582-1.438,4.688-5.295,4.688-11.633l-0.01-57.389	c-0.01-7.705-2.278-11.309-4.769-12.717c-1.479-0.83-3.554-2.023-4.536-2.58c-1.549-0.881-1.802-2.371-1.519-4.324	c0.263-1.822,0.668-4.9,0.941-6.834c0.334-2.451,2.106-2.986,5.093-2.986h39.75c1.944,0,3.513,1.568,3.513,3.523L326.409,470.074z"	/><path id="path4615" inkscape:connector-curvature="0" fill="#048743" d="M304.093,335.275c-11.633,0-21.05,9.092-21.05,20.311	s9.417,20.311,21.05,20.311c11.613,0,21.04-9.092,21.04-20.311S315.706,335.275,304.093,335.275"/><path id="path4619" inkscape:connector-curvature="0" fill="#048743" d="M463.178,412.349c0-21.07-9.548-29.109-20.604-32.643	c-12.768-4.061-28.177,2.621-36.085,6.277c-3.219,1.479-6.206,3.027-6.206,3.027c-2.045-4.799-3.129-6.156-6.156-6.156h-37.391	c-2.987,0-4.759,0.537-5.093,2.986c-0.273,1.934-0.678,5.012-0.942,6.834c-0.283,1.955-0.04,3.443,1.519,4.324	c0.972,0.557,3.058,1.762,4.526,2.592c2.5,1.396,4.759,5.002,4.779,12.707l0.01,57.387c0,6.34-2.106,10.197-4.688,11.635	c-1.802,0.992-4.627,2.561-6.622,3.705c-1.519,0.852-1.934,2.025-1.671,4.334c0.203,1.832,0.719,6.977,0.921,8.91	c0.243,2.471,2.106,2.996,5.093,2.996h52.447c3.361,0,4.83-0.84,5.052-2.996c0.192-1.934,0.699-6.723,0.86-8.566	c0.223-2.582,0.102-3.736-1.549-4.658c-2.146-1.174-4.819-2.652-6.581-3.654c-3.392-1.924-4.81-6.926-4.81-11.471l0.021-45.613	c0-11.918,5.812-18.609,13.79-19.592c5.305-0.668,12.109,2.602,12.109,11.988v61.447c0,17.496,14.873,24.209,26.547,24.209	c12.363,0,22.913-5.68,27.631-15.562c1.499-3.129-0.334-5.508-1.862-7.199c-1.752-1.934-3.331-3.654-6.187-2.195	c-2.814,1.447-5.771,4.242-7.473,3.301c-1.266-0.689-1.387-1.803-1.387-4.537V412.349z"/><path id="path4623" inkscape:connector-curvature="0" fill="#048743" d="M972.432,412.349c0-21.07-9.548-29.109-20.604-32.643	c-12.767-4.061-28.177,2.621-36.085,6.277c-3.209,1.479-6.206,3.027-6.206,3.027c-2.035-4.799-3.129-6.156-6.156-6.156h-37.392	c-2.986,0-4.758,0.537-5.103,2.986c-0.263,1.934-0.668,5.012-0.932,6.834c-0.293,1.955-0.04,3.443,1.509,4.324	c0.982,0.557,3.058,1.762,4.546,2.592c2.491,1.396,4.759,5.002,4.769,12.707l0.011,57.387c0,6.34-2.106,10.197-4.698,11.635	c-1.792,0.992-4.617,2.561-6.611,3.705c-1.519,0.852-1.934,2.025-1.671,4.334c0.192,1.832,0.719,6.977,0.922,8.91	c0.253,2.471,2.105,2.996,5.093,2.996h52.446c3.372,0,4.83-0.84,5.053-2.996c0.192-1.934,0.698-6.723,0.871-8.566	c0.212-2.582,0.091-3.736-1.56-4.658c-2.146-1.174-4.819-2.652-6.581-3.654c-3.402-1.924-4.81-6.926-4.81-11.471l0.021-45.613	c0-11.918,5.812-18.609,13.79-19.592c5.306-0.668,12.109,2.602,12.109,11.988v61.447c0,17.496,14.873,24.209,26.547,24.209	c12.363,0,22.913-5.68,27.642-15.562c1.478-3.129-0.345-5.508-1.884-7.199c-1.741-1.934-3.32-3.654-6.166-2.195	c-2.835,1.447-5.791,4.242-7.482,3.301c-1.255-0.689-1.387-1.803-1.387-4.537V412.349z"/><path id="path4627" inkscape:connector-curvature="0" fill="#048743" d="M980.384,341.255c0-2.014-2.106-2.723-3.857-2.723h-4.04	v5.74h4.597C979.047,344.273,980.384,342.978,980.384,341.255 M985.942,352.878c0.405,2.715,1.62,4.668,2.288,6.096	c-2.784,0-3.827-0.01-6.217-0.01c-1.185-2.662-1.447-4.455-2.045-6.297c-0.811-2.684-2.48-3.475-5.376-3.475h-2.146v9.771h-5.721	v-24.998h11.957c2.784,0,7.594,1.65,7.594,6.965c0,3.342-1.853,5.65-3.726,6.359C984.616,348.648,985.527,350.197,985.942,352.878 M994.771,347.341c0-10.246-8.252-18.508-18.447-18.508c-10.268,0-18.59,8.262-18.59,18.508c0,10.215,8.322,18.518,18.59,18.518	C986.52,365.859,994.771,357.556,994.771,347.341 M999.5,347.341c0,12.807-10.409,23.186-23.176,23.186	c-12.839,0-23.268-10.379-23.268-23.186c0-12.85,10.429-23.227,23.268-23.197C989.091,324.115,999.5,334.492,999.5,347.341"/></svg>