<?xml version="1.0" encoding="UTF-8" standalone="no"?>
<svg width="473px" height="177px" viewBox="0 0 473 177" version="1.1" xmlns="http://www.w3.org/2000/svg" xmlns:xlink="http://www.w3.org/1999/xlink">
    <!-- Generator: Sketch 3.6.1 (26313) - http://www.bohemiancoding.com/sketch -->
    <title>heureka-logo-corporate</title>
    <desc>Created with Sketch.</desc>
    <defs></defs>
    <g id="Page-1" stroke="none" stroke-width="1" fill="none" fill-rule="evenodd">
        <g id="heureka-logo-corporate" transform="translate(61.000000, 53.000000)">
            <path d="M123.4536,60.5732 C123.4536,63.2762 121.2566,65.4742 118.5536,65.4742 C115.8486,65.4742 113.6526,63.2762 113.6526,60.5732 L113.6526,40.2072 L89.4816,40.2072 L89.4816,60.5732 C89.4816,63.2762 87.2846,65.4742 84.5806,65.4742 C81.8756,65.4742 79.6806,63.2762 79.6806,60.5732 L79.6806,12.1512 C79.6806,9.4482 81.8756,7.2502 84.5806,7.2502 C87.2846,7.2502 89.4816,9.4482 89.4816,12.1512 L89.4816,31.2502 L113.6526,31.2502 L113.6526,12.1512 C113.6526,9.4482 115.8486,7.2502 118.5536,7.2502 C121.2566,7.2502 123.4536,9.4482 123.4536,12.1512 L123.4536,60.5732 Z" id="Fill-1" fill="#30A9D4"></path>
            <path d="M140.4351,41.2217 L157.1681,41.2217 C157.1681,37.0777 154.8021,33.0247 149.3091,33.0247 C144.4081,33.0247 140.8591,35.8127 140.4351,41.2217 M149.3091,25.2487 C163.5891,25.2487 166.2101,36.2357 166.2101,42.0687 C166.2101,45.1917 166.2101,48.8257 161.0561,48.8257 L140.1831,48.8257 C140.1831,54.9097 144.4931,57.6997 150.0691,57.6997 C153.7871,57.6997 156.4081,56.4327 158.4351,55.0797 C159.3661,54.4867 160.0411,54.1507 161.1391,54.1507 C163.3371,54.1507 165.1111,55.9247 165.1111,58.1207 C165.1111,59.4727 164.4351,60.5747 163.6751,61.2477 C162.2391,62.6017 157.7591,65.8977 150.0691,65.8977 C138.3241,65.8977 131.0561,59.5577 131.0561,45.4457 C131.0561,32.5177 137.8171,25.2487 149.3091,25.2487" id="Fill-3" fill="#30A9D4"></path>
            <path d="M181.251,30.3188 L181.251,50.0078 C181.251,53.8968 182.603,57.6128 188.858,57.6128 C195.027,57.6128 196.377,53.8968 196.377,50.0078 L196.377,30.3188 C196.377,27.7828 198.404,25.7568 200.939,25.7568 C203.477,25.7568 205.504,27.7828 205.504,30.3188 L205.504,50.0078 C205.504,58.2908 202.38,65.8978 188.858,65.8978 C175.25,65.8978 172.124,58.2908 172.124,50.0078 L172.124,30.3188 C172.124,27.7828 174.152,25.7568 176.688,25.7568 C179.224,25.7568 181.251,27.7828 181.251,30.3188" id="Fill-5" fill="#30A9D4"></path>
            <path d="M222.6553,30.7417 C224.2633,27.4467 228.2323,25.3337 231.7833,25.3337 C234.1483,25.3337 236.0923,27.2767 236.0923,29.6447 C236.0923,32.0107 234.1483,33.9527 231.7833,33.9527 C225.9533,33.9527 222.6553,37.6717 222.6553,43.3337 L222.6553,60.9097 C222.6553,63.4457 220.6313,65.4737 218.0913,65.4737 C215.5583,65.4737 213.5293,63.4457 213.5293,60.9097 L213.5293,30.3187 C213.5293,27.7827 215.5583,25.7567 218.0913,25.7567 C220.6313,25.7567 222.6553,27.7827 222.6553,30.3187 L222.6553,30.7417 Z" id="Fill-7" fill="#30A9D4"></path>
            <path d="M247.751,41.2217 L264.484,41.2217 C264.484,37.0777 262.116,33.0247 256.628,33.0247 C251.725,33.0247 248.173,35.8127 247.751,41.2217 M256.628,25.2487 C270.906,25.2487 273.527,36.2357 273.527,42.0687 C273.527,45.1917 273.527,48.8257 268.372,48.8257 L247.5,48.8257 C247.5,54.9097 251.809,57.6997 257.387,57.6997 C261.105,57.6997 263.727,56.4327 265.752,55.0797 C266.684,54.4867 267.358,54.1507 268.457,54.1507 C270.654,54.1507 272.428,55.9247 272.428,58.1207 C272.428,59.4727 271.751,60.5747 270.991,61.2477 C269.557,62.6017 265.075,65.8977 257.387,65.8977 C245.641,65.8977 238.373,59.5577 238.373,45.4457 C238.373,32.5177 245.133,25.2487 256.628,25.2487" id="Fill-9" fill="#30A9D4"></path>
            <path d="M304.71,63.6992 L292.116,46.7992 L289.412,48.9102 L289.412,61.0782 C289.412,63.6132 287.385,65.4732 284.849,65.4732 C282.231,65.4732 280.287,63.6132 280.287,61.0782 L280.287,9.0262 C280.287,6.4892 282.231,4.6302 284.849,4.6302 C287.385,4.6302 289.412,6.4892 289.412,9.0262 L289.412,38.8532 L304.71,26.8552 C305.806,26.0082 306.651,25.7572 307.666,25.7572 C310.115,25.7572 312.06,27.7002 312.06,30.1492 C312.06,31.4162 311.468,32.7702 310.369,33.6162 L299.3,42.0682 L311.723,58.3752 C312.397,59.3052 312.65,60.2362 312.65,61.0782 C312.65,63.5332 310.708,65.4732 308.257,65.4732 C306.651,65.4732 305.47,64.7142 304.71,63.6992" id="Fill-11" fill="#30A9D4"></path>
            <path d="M340.958,50.6855 L340.958,48.3185 L331.072,48.3185 C327.354,48.3185 325.326,50.0935 325.326,53.1365 C325.326,56.3475 327.605,58.2905 332.34,58.2905 C336.817,58.2905 340.958,55.4155 340.958,50.6855 M324.818,36.5745 C323.973,37.1645 323.297,37.4175 322.284,37.4175 C320.085,37.4175 318.311,35.6435 318.311,33.4495 C318.311,32.5175 318.646,31.5025 319.408,30.6575 C321.775,28.0395 326.001,25.2505 333.267,25.2505 C343.747,25.2505 350,30.4045 350,39.3615 L350,60.9965 C350,63.4445 347.973,65.4745 345.521,65.4745 C343.07,65.4745 341.045,63.4445 341.045,60.9965 C338.76,64.6285 335.04,65.8975 329.973,65.8975 C321.691,65.8975 316.199,60.7425 316.199,53.1365 C316.199,45.2775 322.534,41.2215 329.889,41.2215 L340.958,41.2215 L340.958,39.6995 C340.958,35.8945 338.169,33.3625 333.267,33.3625 C329.55,33.3625 326.932,35.0505 324.818,36.5745" id="Fill-13" fill="#30A9D4"></path>
            <path d="M8.4507,30.2622 C8.4507,18.3762 18.1197,8.7062 30.0057,8.7062 C34.3487,8.7062 38.3927,10.0032 41.7807,12.2232 L29.3847,32.1262 L24.2757,25.3782 C23.5097,24.3682 22.3417,23.7872 21.0737,23.7872 C20.1937,23.7872 19.3567,24.0702 18.6547,24.6042 C16.8897,25.9382 16.5407,28.4592 17.8777,30.2252 L26.5067,41.6232 C27.2627,42.6172 28.4567,43.2132 29.7057,43.2132 C29.7677,43.2132 29.8287,43.2112 29.8897,43.2062 C31.2117,43.1462 32.4157,42.4422 33.1127,41.3192 L47.6757,17.9392 C50.1207,21.4342 51.5607,25.6832 51.5607,30.2622 C51.5607,42.1492 41.8907,51.8202 30.0057,51.8202 C18.1197,51.8202 8.4507,42.1492 8.4507,30.2622 M63.5877,61.5602 L52.3197,50.2952 L52.3337,50.2822 C57.1027,44.9692 60.0107,37.9482 60.0107,30.2622 C60.0107,13.7192 46.5507,0.2592 30.0057,0.2592 C13.4617,0.2592 -0.0003,13.7192 -0.0003,30.2622 C-0.0003,46.8082 13.4617,60.2672 30.0057,60.2672 C35.0997,60.2672 39.8897,58.9722 44.0947,56.7202 L56.2597,68.8882 C58.2827,70.9102 61.5657,70.9102 63.5877,68.8882 C65.6087,66.8672 65.6087,63.5832 63.5877,61.5602" id="Fill-15" fill="#FF7A04"></path>
        </g>
    </g>
</svg>