<?xml version="1.0" encoding="utf-8"?>
<!-- Generator: Adobe Illustrator 18.1.1, SVG Export Plug-In . SVG Version: 6.00 Build 0)  -->
<svg version="1.1" id="Layer_1" xmlns="http://www.w3.org/2000/svg" xmlns:xlink="http://www.w3.org/1999/xlink" x="0px" y="0px"
	 viewBox="-241 246.4 512 287.1" enable-background="new -241 246.4 512 287.1" xml:space="preserve">
<polygon fill="#2360A5" points="-236.9,515.9 -236.9,504.9 -239.9,504.9 -239.9,531.9 -236.9,531.9 -236.9,518.7 -223.1,518.7 
	-223.1,531.9 -220.1,531.9 -220.1,504.9 -223.1,504.9 -223.1,515.9 "/>
<path fill="#2360A5" d="M-201.6,504.5c-7.7,0-14.1,6.3-14.1,14s6.3,13.9,14.1,13.9c7.6,0,14-6.3,14-13.9
	C-187.6,510.8-194,504.5-201.6,504.5L-201.6,504.5z M-201.6,507.3c6.1,0,11,5,11,11.1c0,6.1-4.9,11.1-11,11.1s-11-5-11-11.1
	C-212.6,512.2-207.8,507.3-201.6,507.3L-201.6,507.3z"/>
<polygon fill="#2360A5" points="-184.2,531.9 -181.1,531.9 -178.5,513.1 -169.4,533 -160.2,513.1 -157.7,531.9 -154.7,531.9 
	-158.8,503.4 -169.4,526.2 -179.8,503.4 "/>
<polygon fill="#2360A5" points="-135.6,507.7 -135.6,504.9 -149.5,504.9 -149.5,531.9 -135.6,531.9 -135.6,529.1 -146.5,529.1 
	-146.5,518.5 -135.9,518.5 -135.9,515.8 -146.5,515.8 -146.5,507.7 "/>
<path fill="#2360A5" d="M-113.2,516.5c3.8-2.8,4.8-4.2,4.8-6.7c0-3-2.5-5.3-5.7-5.3c-3.4,0-5.9,2.4-5.9,5.7c0,1.7,0.6,3,2.7,5.8
	c-1.9,1.2-2.5,1.7-3.2,2.2c-6.9,5.5-2.9,14.3,4.1,14.3c2.7,0,5.3-1.3,8.6-4.3l3,3.8h3.7l-4.6-5.9c1.3-1.3,2.4-2.6,3.4-4l-2.2-1.8
	c-1.1,1.4-2.1,2.5-3.1,3.5L-113.2,516.5L-113.2,516.5z M-109.6,525.9c-2.9,2.6-5,3.8-6.9,3.8c-2.5,0-4.8-2.3-4.8-4.9
	c0-2.1,1.1-3.5,4.3-5.6c1.4-1,1-0.7,1.5-1L-109.6,525.9L-109.6,525.9z M-114.9,514.2L-114.9,514.2c-0.1-0.2-0.2-0.2-0.2-0.2
	c-1.9-2.6-2.1-2.9-2.1-4c0-3.4,5.9-3.3,5.9-0.2c0,1.7-0.4,2.1-3.6,4.5L-114.9,514.2L-114.9,514.2z"/>
<path fill="#2360A5" d="M-76.2,518.3v2.8h8c-0.1,1.7-0.4,2.7-1.1,3.8c-1.6,2.7-5,4.6-8.3,4.6c-6,0-11-5-11-11
	c0-6.3,4.9-11.2,11.2-11.2c3.6,0,6.3,1.6,9,5l2.3-2c-3.4-4.1-6.8-5.9-11.2-5.9c-7.9,0-14.2,6.2-14.2,14c0,7.6,6.3,13.9,13.8,13.9
	c4,0,7.8-1.8,10.3-4.9c1.8-2.3,2.5-4.7,2.5-8.5v-0.6H-76.2L-76.2,518.3z"/>
<path fill="#2360A5" d="M-46.9,524.2l3.2,7.6h3.3l-12.2-28.2l-12.4,28.2h3.3l3.2-7.6H-46.9L-46.9,524.2z M-48,521.4h-9.1l4.6-10.8
	L-48,521.4L-48,521.4z"/>
<path fill="#2360A5" d="M-30.6,519.8c4.2-0.4,6.8-3.3,6.8-7.5c0-4.5-2.8-7.4-9.5-7.4h-4.3v27h3v-11.8h0.8l8.1,11.8h3.7L-30.6,519.8
	L-30.6,519.8z M-34.7,517.4v-9.7h1.8c4,0,6.1,1.6,6.1,4.7c0,3.3-2.1,5.1-5.9,5.1L-34.7,517.4L-34.7,517.4z"/>
<path fill="#2360A5" d="M-18.4,531.9h5.5c4.4,0,7.2-0.9,9.9-3.1C3.1,523.6,3,513-3,508c-2.6-2.2-5.5-3.1-9.9-3.1h-5.5V531.9
	L-18.4,531.9z M-15.4,529.1v-21.4h2.6c6.9,0,11.4,4.2,11.4,10.7c0,6.4-4.5,10.7-11.4,10.7L-15.4,529.1L-15.4,529.1z"/>
<polygon fill="#2360A5" points="20,507.7 20,504.9 6,504.9 6,531.9 20,531.9 20,529.1 9.1,529.1 9.1,518.5 19.7,518.5 19.7,515.8 
	9.1,515.8 9.1,507.7 "/>
<polygon fill="#2360A5" points="24.4,531.9 27.5,531.9 27.5,511.1 48.5,533.1 48.5,504.9 45.4,504.9 45.4,525.8 24.4,503.8 "/>
<polygon fill="#2360A5" points="69.1,507.7 75.6,507.7 75.6,504.9 59.5,504.9 59.5,507.7 66,507.7 66,531.9 69.1,531.9 "/>
<polygon fill="#2360A5" points="92.6,507.7 92.6,504.9 78.7,504.9 78.7,531.9 92.6,531.9 92.6,529.1 81.7,529.1 81.7,518.5 
	92.3,518.5 92.3,515.8 81.7,515.8 81.7,507.7 "/>
<polygon fill="#2360A5" points="100.1,504.9 97.1,504.9 97.1,531.9 107.5,531.9 107.5,529.1 100.1,529.1 "/>
<polygon fill="#2360A5" points="124.5,507.7 124.5,504.9 110.5,504.9 110.5,531.9 124.5,531.9 124.5,529.1 113.6,529.1 113.6,518.5 
	124.2,518.5 124.2,515.8 113.6,515.8 113.6,507.7 "/>
<polygon fill="#2360A5" points="129,504.9 125.7,504.9 136.6,533.5 147.6,504.9 144.3,504.9 136.7,525.5 "/>
<polygon fill="#2360A5" points="153.3,504.9 150.3,504.9 150.3,531.9 153.3,531.9 "/>
<path fill="#2360A5" d="M173.7,508.7c-1.6-2.8-3.9-4.2-7-4.2c-4.3,0-7.6,3-7.6,6.9c0,3,1.6,4.9,5.5,6.7l0.8,0.4l0.8,0.4l0.8,0.4
	c0.9,0.4,1.7,0.8,2.3,1.2c4.2,2.7,1.5,9.1-3.3,9.1c-2.8,0-4.7-1.7-5.4-4.9l-2.9,0.8c1,4.5,4,7,8.4,7c4.8,0,8.5-3.7,8.5-8.3
	c0-3.4-1.8-5.5-6.1-7.4l-0.8-0.4l-0.8-0.4l-0.8-0.4c-0.8-0.3-1.5-0.7-2.1-1.1c-3.4-2.3-1-7.1,2.8-7.1c2.1,0,3.3,0.7,4.6,2.9
	L173.7,508.7L173.7,508.7z"/>
<polygon fill="#2360A5" points="182.2,504.9 179.1,504.9 179.1,531.9 182.2,531.9 "/>
<path fill="#2360A5" d="M200.7,504.5c-7.7,0-14.1,6.3-14.1,14s6.3,13.9,14.1,13.9c7.6,0,14-6.3,14-13.9
	C214.7,510.8,208.4,504.5,200.7,504.5L200.7,504.5z M200.7,507.3c6.1,0,11,5,11,11.1c0,6.1-4.9,11.1-11,11.1c-6.1,0-11-5-11-11.1
	C189.7,512.2,194.6,507.3,200.7,507.3L200.7,507.3z"/>
<polygon fill="#2360A5" points="219.1,531.9 222.1,531.9 222.1,511.1 243.1,533.1 243.1,504.9 240.1,504.9 240.1,525.8 219.1,503.8 
	"/>
<polygon fill="#397DB7" points="-240.8,344.1 -187.5,344.1 -187.5,389.6 -155.4,389.6 -155.4,344.1 -105.6,344.1 -105.6,487.4 
	-154.9,487.4 -154.9,437.2 -188,437.2 -188,487.8 -240.8,487.8 "/>
<path fill="#2F9C5C" d="M228.2,345v6.1c3.2,0,21.3,0,21.2,0.2c-0.1,0.1-36.1,93.4-36.1,93.4s-34.2-92.6-34.2-93.1c0,0,19.8,0,20.2,0
	l0.1-6.5H44.9l-0.1,42.2l6.8-0.2c4.7-23.5,7.5-35.8,31.9-35.8h8.3c0,0,0,118.4-0.1,129.5c-0.2,0.1-13.8,0.1-21.4,0v5.6h71.5v-5.7
	c-8.1-0.1-22.2,0.1-22.1,0c-0.1-9.1-0.1-129.5-0.1-129.5h7.7c11.6,0,18.9,1.6,23.9,5.9c2.2,3.1,4.3,7.3,6.8,12.9l43.2,121.6h3.2
	l52.8-140.4c0.2,0,13.5,0.1,13.7-0.2V345H228.2z"/>
<polygon fill="#2F9C5C" points="-241,340.2 -104.4,246.4 42.5,340.2 "/>
<path fill="#2360A5" d="M220.1,483.7c-2.3,0-4.2,1.8-4.2,4.2c0,2.4,1.9,4.2,4.2,4.2c2.4,0,4.2-1.9,4.2-4.2
	C224.3,485.5,222.3,483.7,220.1,483.7L220.1,483.7z M220.1,484.4c1.9,0,3.4,1.5,3.4,3.5c0,1.9-1.4,3.5-3.4,3.5
	c-1.9,0-3.4-1.5-3.4-3.5C216.7,485.9,218.1,484.4,220.1,484.4L220.1,484.4z M218.5,485.5v4.8h0.7v-2.1h0.8l1.3,2.1h0.8l-1.4-2.1
	c0.7-0.1,1.3-0.4,1.3-1.3c0-1-0.7-1.4-1.7-1.4H218.5L218.5,485.5z M219.2,486.1h1c0.9,0,1.1,0.4,1.1,0.7c0,0.5-0.2,0.8-1.1,0.8h-0.9
	V486.1L219.2,486.1z"/>
<path fill="#2360A5" d="M-50.7,487.8h-51.4v-55.9C-96.8,460-77.8,480.5-50.7,487.8L-50.7,487.8z M41.2,442.2v45.6h-46
	c18.7-5.2,33.2-17.3,42-35.5C38.8,449,40.1,445.7,41.2,442.2L41.2,442.2z M4,344.1h37.3v62.5H-28v28.9H2.4
	C0,451.8-10,460.2-26.9,460.2c-22.2,0-38.1-18.6-38.1-44.9c0-25.7,15.8-44.7,37-44.7c14.3,0,24.2,7.3,30.6,22.7l35.4-14.5
	C29.5,361.6,18.4,350.2,4,344.1L4,344.1z M-102.2,344.1h44.3c-23.3,9-39.5,28.3-44.3,54V344.1L-102.2,344.1z"/>
</svg>
