<?xml version="1.0" encoding="iso-8859-1"?><!-- Generator: Adobe Illustrator 16.0.0, SVG Export Plug-In . SVG Version: 6.00 Build 0) --><!DOCTYPE svg PUBLIC "-//W3C//DTD SVG 1.1//EN" "http://www.w3.org/Graphics/SVG/1.1/DTD/svg11.dtd"><svg version="1.1" id="Layer_1" xmlns="http://www.w3.org/2000/svg" xmlns:xlink="http://www.w3.org/1999/xlink" x="0px" y="0px" width="15.362px" height="8.614px" viewBox="0 0 15.362 8.614" style="enable-background:new 0 0 15.362 8.614;" xml:space="preserve"><polygon style="fill:#2360A5;" points="0.124,8.087 0.124,7.757 0.033,7.757 0.033,8.566 0.124,8.566 0.124,8.171 0.537,8.171	0.537,8.566 0.627,8.566 0.627,7.757 0.537,7.757 0.537,8.087 0.124,8.087 "/><path style="fill:#2360A5;" d="M1.182,7.744c-0.231,0-0.422,0.189-0.422,0.419c0,0.23,0.189,0.417,0.422,0.417	c0.229,0,0.419-0.189,0.419-0.418S1.411,7.744,1.182,7.744L1.182,7.744z M1.181,7.829c0.183,0,0.33,0.149,0.33,0.334	c0,0.183-0.148,0.333-0.33,0.333c-0.182,0-0.33-0.149-0.33-0.333C0.851,7.977,0.997,7.829,1.181,7.829L1.181,7.829z"/><polygon style="fill:#2360A5;" points="1.704,8.566 1.796,8.566 1.876,8.004 2.147,8.6 2.423,8.004 2.498,8.566 2.59,8.566	2.465,7.711 2.147,8.396 1.837,7.712 1.704,8.566 "/><polygon style="fill:#2360A5;" points="3.163,7.841 3.163,7.757 2.745,7.757 2.745,8.566 3.163,8.566 3.163,8.482 2.836,8.482	2.836,8.166 3.155,8.166 3.155,8.083 2.836,8.083 2.836,7.841 3.163,7.841 "/><path style="fill:#2360A5;" d="M3.836,8.105C3.95,8.02,3.979,7.979,3.979,7.904c0-0.09-0.075-0.16-0.172-0.16	c-0.102,0-0.177,0.073-0.177,0.171c0,0.051,0.019,0.09,0.082,0.173c-0.056,0.037-0.075,0.05-0.096,0.065	C3.408,8.318,3.528,8.582,3.739,8.582c0.081,0,0.16-0.039,0.257-0.128l0.089,0.113h0.112L4.06,8.391	c0.04-0.04,0.072-0.079,0.103-0.12L4.098,8.216C4.065,8.257,4.036,8.291,4.006,8.322L3.836,8.105L3.836,8.105z M3.943,8.387	C3.857,8.466,3.794,8.5,3.735,8.5c-0.076,0-0.144-0.068-0.144-0.146c0-0.062,0.033-0.105,0.128-0.169	c0.042-0.029,0.029-0.02,0.044-0.031L3.943,8.387L3.943,8.387z M3.783,8.036L3.78,8.034C3.779,8.031,3.778,8.031,3.778,8.031	C3.721,7.954,3.716,7.944,3.716,7.91c0-0.101,0.177-0.1,0.177-0.006c0,0.05-0.013,0.064-0.109,0.136L3.783,8.036L3.783,8.036z"/><path style="fill:#2360A5;" d="M4.944,8.16v0.083h0.24c-0.003,0.05-0.012,0.082-0.033,0.114C5.104,8.439,5,8.496,4.903,8.496	c-0.18,0-0.329-0.149-0.329-0.331c0-0.188,0.148-0.336,0.336-0.336c0.107,0,0.19,0.047,0.269,0.151L5.247,7.92	C5.144,7.798,5.043,7.744,4.911,7.744c-0.238,0-0.427,0.186-0.427,0.419c0,0.228,0.188,0.417,0.415,0.417	c0.12,0,0.235-0.055,0.308-0.146c0.054-0.068,0.075-0.14,0.075-0.255V8.16H4.944L4.944,8.16z"/><path style="fill:#2360A5;" d="M5.825,8.337l0.096,0.229h0.1L5.656,7.719L5.284,8.566h0.099l0.097-0.229H5.825L5.825,8.337z M5.79,8.253H5.517L5.655,7.93L5.79,8.253L5.79,8.253z"/><path style="fill:#2360A5;" d="M6.312,8.205C6.437,8.193,6.515,8.107,6.515,7.98c0-0.134-0.083-0.223-0.284-0.223H6.101v0.809h0.091	V8.212h0.023l0.243,0.354h0.11L6.312,8.205L6.312,8.205z M6.191,8.132V7.841h0.054c0.119,0,0.182,0.049,0.182,0.14	c0,0.1-0.062,0.152-0.178,0.152H6.191L6.191,8.132z"/><path style="fill:#2360A5;" d="M6.678,8.566h0.165c0.131,0,0.216-0.027,0.296-0.094C7.325,8.318,7.321,8,7.141,7.851	C7.063,7.785,6.975,7.757,6.844,7.757H6.678V8.566L6.678,8.566z M6.769,8.482V7.841h0.079c0.207,0,0.342,0.126,0.342,0.322	c0,0.193-0.136,0.32-0.342,0.32H6.769L6.769,8.482z"/><polygon style="fill:#2360A5;" points="7.831,7.841 7.831,7.757 7.412,7.757 7.412,8.566 7.831,8.566 7.831,8.482 7.503,8.482	7.503,8.166 7.822,8.166 7.822,8.083 7.503,8.083 7.503,7.841 7.831,7.841 "/><polygon style="fill:#2360A5;" points="7.965,8.566 8.056,8.566 8.056,7.943 8.686,8.603 8.686,7.757 8.594,7.757 8.594,8.384	7.965,7.724 7.965,8.566 "/><polygon style="fill:#2360A5;" points="9.304,7.841 9.5,7.841 9.5,7.757 9.018,7.757 9.018,7.841 9.213,7.841 9.213,8.566	9.304,8.566 9.304,7.841 "/><polygon style="fill:#2360A5;" points="10.01,7.841 10.01,7.757 9.592,7.757 9.592,8.566 10.01,8.566 10.01,8.482 9.683,8.482	9.683,8.166 10.001,8.166 10.001,8.083 9.683,8.083 9.683,7.841 10.01,7.841 "/><polygon style="fill:#2360A5;" points="10.235,7.757 10.145,7.757 10.145,8.566 10.457,8.566 10.457,8.482 10.235,8.482	10.235,7.757 "/><polygon style="fill:#2360A5;" points="10.966,7.841 10.966,7.757 10.548,7.757 10.548,8.566 10.966,8.566 10.966,8.482	10.639,8.482 10.639,8.166 10.958,8.166 10.958,8.083 10.639,8.083 10.639,7.841 10.966,7.841 "/><polygon style="fill:#2360A5;" points="11.103,7.757 11.004,7.757 11.331,8.614 11.66,7.757 11.562,7.757 11.332,8.374	11.103,7.757 "/><polygon style="fill:#2360A5;" points="11.831,7.757 11.74,7.757 11.74,8.566 11.831,8.566 11.831,7.757 "/><path style="fill:#2360A5;" d="M12.443,7.87c-0.049-0.083-0.118-0.126-0.209-0.126c-0.128,0-0.227,0.09-0.227,0.207	c0,0.091,0.047,0.148,0.164,0.2l0.024,0.011l0.024,0.011l0.024,0.012c0.027,0.011,0.05,0.023,0.07,0.036	c0.127,0.08,0.046,0.274-0.098,0.274c-0.084,0-0.141-0.051-0.163-0.148l-0.087,0.024c0.031,0.134,0.121,0.209,0.251,0.209	c0.143,0,0.255-0.11,0.255-0.25c0-0.101-0.054-0.165-0.184-0.222l-0.025-0.011l-0.025-0.011l-0.025-0.012	c-0.023-0.01-0.044-0.022-0.063-0.034c-0.103-0.07-0.029-0.212,0.083-0.212c0.062,0,0.098,0.021,0.139,0.087L12.443,7.87	L12.443,7.87z"/><polygon style="fill:#2360A5;" points="12.698,7.757 12.606,7.757 12.606,8.566 12.698,8.566 12.698,7.757 "/><path style="fill:#2360A5;" d="M13.255,7.744c-0.231,0-0.422,0.189-0.422,0.419c0,0.23,0.189,0.417,0.422,0.417	c0.229,0,0.42-0.189,0.42-0.418S13.484,7.744,13.255,7.744L13.255,7.744z M13.254,7.829c0.183,0,0.33,0.149,0.33,0.334	c0,0.183-0.148,0.333-0.33,0.333s-0.33-0.149-0.33-0.333C12.924,7.977,13.071,7.829,13.254,7.829L13.254,7.829z"/><polygon style="fill:#2360A5;" points="13.807,8.566 13.897,8.566 13.897,7.943 14.527,8.603 14.527,7.757 14.436,7.757	14.436,8.384 13.807,7.724 13.807,8.566 "/><polygon style="fill:#397DB7;" points="0.006,2.931 1.604,2.931 1.604,4.296 2.57,4.296 2.57,2.931 4.064,2.931 4.064,7.231	2.583,7.231 2.583,5.725 1.591,5.725 1.591,7.244 0.006,7.244 0.006,2.931 "/><path style="fill:#2F9C5C;" d="M14.08,2.959v0.182c0.095,0,0.638,0,0.635,0.005c-0.003,0.004-1.084,2.803-1.084,2.803	s-1.027-2.78-1.027-2.794c0,0,0.594,0,0.607,0l0.003-0.196H8.578L8.576,4.225l0.205-0.006c0.141-0.705,0.226-1.074,0.957-1.074	h0.248c0,0,0,3.552-0.002,3.886c-0.006,0.003-0.415,0.003-0.643,0v0.169h2.144V7.03c-0.244-0.002-0.665,0.003-0.662,0	c-0.002-0.274-0.002-3.886-0.002-3.886h0.231c0.349,0,0.568,0.048,0.718,0.177c0.065,0.093,0.13,0.218,0.205,0.387l1.295,3.65h0.096	l1.585-4.212c0.007,0,0.405,0.002,0.412-0.005V2.959H14.08z"/><polygon style="fill:#2F9C5C;" points="0,2.816 4.1,0 8.508,2.816 0,2.816 "/><path style="fill:#2360A5;" d="M13.835,7.122c-0.069,0-0.127,0.054-0.127,0.125c0,0.072,0.058,0.125,0.127,0.125	c0.072,0,0.126-0.056,0.126-0.125C13.961,7.176,13.903,7.122,13.835,7.122L13.835,7.122z M13.835,7.143	c0.057,0,0.101,0.045,0.101,0.104c0,0.058-0.042,0.105-0.101,0.105c-0.058,0-0.102-0.045-0.102-0.104	C13.733,7.188,13.777,7.143,13.835,7.143L13.835,7.143z M13.787,7.175v0.144h0.022V7.257h0.025l0.038,0.062h0.024l-0.041-0.063	c0.02-0.002,0.038-0.013,0.038-0.04c0-0.031-0.022-0.041-0.051-0.041H13.787L13.787,7.175z M13.809,7.194h0.029	c0.028,0,0.032,0.011,0.032,0.021c0,0.014-0.006,0.023-0.033,0.023h-0.028V7.194L13.809,7.194z"/><path style="fill:#2360A5;" d="M5.709,7.244H4.166V5.567C4.327,6.411,4.896,7.024,5.709,7.244L5.709,7.244z M8.468,5.875v1.369	h-1.38C7.65,7.087,8.083,6.724,8.349,6.178C8.396,6.079,8.436,5.98,8.468,5.875L8.468,5.875z M7.351,2.931h1.118v1.874H6.391v0.867	h0.912C7.232,6.165,6.93,6.415,6.423,6.415c-0.667,0-1.143-0.558-1.143-1.348c0-0.77,0.475-1.341,1.11-1.341	c0.43,0,0.725,0.218,0.917,0.68L8.368,3.97C8.116,3.458,7.785,3.116,7.351,2.931L7.351,2.931z M4.166,2.931h1.33	c-0.7,0.27-1.184,0.85-1.33,1.621V2.931L4.166,2.931z"/></svg>