<?xml version="1.0" encoding="iso-8859-1"?><!-- Generator: Adobe Illustrator 16.0.0, SVG Export Plug-In . SVG Version: 6.00 Build 0) --><!DOCTYPE svg PUBLIC "-//W3C//DTD SVG 1.1//EN" "http://www.w3.org/Graphics/SVG/1.1/DTD/svg11.dtd"><svg version="1.1" id="Layer_1" xmlns="http://www.w3.org/2000/svg" xmlns:xlink="http://www.w3.org/1999/xlink" x="0px" y="0px" width="192.756px" height="192.756px" viewBox="0 0 192.756 192.756" style="enable-background:new 0 0 192.756 192.756;" xml:space="preserve"><g><polygon style="fill-rule:evenodd;clip-rule:evenodd;fill:#FFFFFF;" points="0,0 192.756,0 192.756,192.756 0,192.756 0,0	"/><path style="fill-rule:evenodd;clip-rule:evenodd;" d="M89.764,129.752l-47.093,5.064l9.297,9.07h37.795h28.875l-24.717-14.59	L89.764,129.752L89.764,129.752z M89.764,92.183l64.857-17.311c0,0,9.449-0.68,18.822-21.921L89.764,80.391l-65.084,21.24	c0,0-5.594,1.814-7.786,3.326c0,0-1.512,0.908-1.512,3.023c0,0,0.151,1.588,1.285,2.723l2.797,2.797l35.527-9.223	c0,0-2.192-2.873,2.192-3.477L89.764,92.183L89.764,92.183z M89.764,126.047c0.075,0.756,0.68,1.438,0.68,1.438l-0.68,0.074	l-49.361,5.594l-9.374-8.768l58.734-10.508l50.191-8.92c-8.238,16.178-24.869,16.178-24.869,16.178l-20.711,2.645	c-3.477,0.076-4.459,0.982-4.611,1.891C89.764,125.82,89.764,125.896,89.764,126.047L89.764,126.047z M89.764,98.078l68.41-17.309	c-8.088,18.293-24.34,18.897-24.34,18.897l-44.07,8.92l-14.438,2.947c-6.955,0.152-3.931,3.705-3.931,3.705l-42.104,7.182	l-7.861-6.955L89.764,98.078L89.764,98.078z M89.764,61.115l95.623-39.081c0,0-3.252,9.601-5.293,14.514	c0,0-2.494,7.786-12.471,10.885L89.764,74.949L22.261,98.684c0,0-8.692,3.1-10.129,6.729c0,0-2.041,4.156,3.478,8.844	l32.579,29.631H35.415l-26.23-25.701c0,0-5.896-4.838-6.35-11.717v-1.436c0.076-0.453,0.076-0.906,0.227-1.436	c0,0,1.134-7.56,12.472-12.17L89.764,61.115L89.764,61.115z"/><path style="fill-rule:evenodd;clip-rule:evenodd;" d="M20.22,148.725H3.289v4.158h3.854v12.623H3.289v4.309H20.22v-4.309h-4.157	V161.5h12.473v4.006h-4.082v4.309h16.706v-4.309h-4.006v-12.623h4.006v-4.158H24.378v4.158h4.158v4.156H16.063v-4.156h4.157	V148.725L20.22,148.725z M168.908,158.477h3.25l-3.25-4.914l-0.379-0.453l-2.947,5.367H168.908L168.908,158.477z M168.908,148.725	h6.727l10.129,16.781h4.158v4.309h-18.219v-4.309h4.082l-1.738-2.494h-5.139h-5.896l-1.361,2.494h4.006v4.309h-14.059v-4.309h4.309	l6.953-12.623h-4.686v-4.158H168.908L168.908,148.725z M136.479,165.279c4.006-0.453,6.35-1.965,6.35-5.896	c0-4.535-2.645-5.971-6.35-6.35c-0.68-0.076-1.361-0.076-2.115-0.076h-4.234v12.473h3.402	C134.59,165.43,135.572,165.355,136.479,165.279L136.479,165.279z M136.479,148.725h2.721c6.955,0,12.172,3.25,12.172,10.658	c0,8.541-4.914,10.281-14.893,10.432c-0.604,0-1.209,0-1.889,0h-17.084v-4.309h4.082v-12.623h-4.082v-4.158H136.479	L136.479,148.725z M58.923,166.262c3.931-0.076,7.03-3.174,7.03-6.955c0-4.006-3.175-7.029-7.03-7.029c-0.076,0-0.076,0-0.076,0	c-3.855,0-6.954,3.023-6.954,6.955c0,3.703,2.948,7.029,6.879,7.029C58.847,166.262,58.847,166.262,58.923,166.262L58.923,166.262z M58.923,147.666c0.076,0,0.151,0,0.227,0c9.902,0,16.403,3.705,16.403,11.34c0,7.029-5.972,11.715-16.63,11.715	c-0.076,0-0.151,0-0.302,0c-10.356,0-16.555-4.006-16.555-11.564C42.066,151.9,48.189,147.666,58.923,147.666L58.923,147.666z M93.619,148.725H76.914v4.158h4.006v12.623h-4.006v4.309h13.304v-4.309H86.06v-10.809l11.717,15.117h12.926v-16.932h4.232v-4.158	h-13.758v4.158h4.309v11.111L93.619,148.725L93.619,148.725z"/></g></svg>