<?xml version="1.0" encoding="utf-8"?>
<!-- Generator: Adobe Illustrator 18.1.1, SVG Export Plug-In . SVG Version: 6.00 Build 0)  -->
<svg version="1.1" id="Layer_1" xmlns="http://www.w3.org/2000/svg" xmlns:xlink="http://www.w3.org/1999/xlink" x="0px" y="0px"
	 viewBox="45.2 170.4 410.6 160.1" enable-background="new 45.2 170.4 410.6 160.1" xml:space="preserve">
<g>
	
		<linearGradient id="SVGID_1_" gradientUnits="userSpaceOnUse" x1="582.5129" y1="264.55" x2="68.9386" y2="264.55" gradientTransform="matrix(0.7529 0 0 -0.7529 0 449.6687)">
		<stop  offset="0" style="stop-color:#EE4851"/>
		<stop  offset="1" style="stop-color:#FA4975"/>
	</linearGradient>
	<path fill="url(#SVGID_1_)" d="M191,235.2l-52.2,59.6c-0.1,0.1-0.2,0.2-0.2,0.2c-0.3,0.4-0.7,0.7-1.1,1c-0.2,0.2-0.5,0.4-0.7,0.5
		c-0.5,0.3-0.9,0.5-1.4,0.8c-0.2,0.2-0.5,0.2-0.7,0.4c-0.6,0.2-1.2,0.5-1.8,0.6c-0.2,0-0.2,0.1-0.4,0.2c-0.8,0.2-1.5,0.2-2.3,0.2
		l0,0l0,0c-0.7,0-1.4-0.1-2.1-0.2c-0.2-0.1-0.5-0.2-0.8-0.2c-0.5-0.2-0.8-0.2-1.3-0.4c-0.3-0.1-0.5-0.2-0.8-0.4
		c-0.4-0.2-0.7-0.4-1.1-0.6c-0.3-0.2-0.5-0.4-0.8-0.6c-0.2-0.2-0.4-0.3-0.6-0.5c-0.1-0.1-0.2-0.2-0.2-0.3c-0.3-0.3-0.5-0.6-0.8-0.9
		c-0.2-0.3-0.5-0.5-0.7-0.8c-0.2-0.3-0.4-0.6-0.6-0.9c-0.2-0.3-0.4-0.6-0.5-1c-0.2-0.3-0.2-0.7-0.4-1c-0.2-0.4-0.2-0.7-0.3-1.1
		c-0.1-0.3-0.2-0.7-0.2-1.1c-0.1-0.4-0.1-0.8-0.2-1.2c0-0.2,0-0.2,0-0.4v-36.9c0-14.2-11.5-25.7-25.7-25.7s-25.7,11.5-25.7,25.7
		v36.9c0,6.2-5,11.2-11.2,11.2s-11.2-5-11.2-11.2V181.6c0-6.2,5-11.2,11.2-11.2s11.2,5,11.2,11.2v28.2c7.5-4.7,16.2-7.5,25.7-7.5
		c26.6,0,48.2,21.6,48.2,48.2v6.9l32.4-37c0.1-0.2,0.2-0.2,0.4-0.3c8.3-10.1,20.6-16.8,34.3-17.6c17-1.1,32.4,6.9,41.6,19.5
		l-14.8,16.9l-4.5-5.2l-0.1-0.2c-0.1-0.1-0.2-0.2-0.2-0.2c-4.7-5.2-11.5-8.5-19-8.5c-8.1,0-15.4,3.8-20.1,9.7l0,0l-0.4,0.4
		C191.1,235,191,235.1,191,235.2z M289.3,234.7c4.7-6,12-9.9,20.2-9.9c7.5,0,14.3,3.3,19,8.5c0.1,0.1,0.2,0.2,0.2,0.2l0.1,0.1
		l4.5,5.2l14.8-16.9c-9.3-12.6-24.6-20.5-41.6-19.4c-13.7,0.8-25.9,7.5-34.2,17.5c-0.2,0.2-0.3,0.2-0.4,0.4l-40.8,46.7l0,0l-0.2,0.2
		l0,0c-4.7,5.5-11.7,9.3-19.4,9c-9-0.4-15.5-3.8-19.7-9.2l0,0l-4.2-4.8l-14.8,17c9.3,12.6,24.6,20.4,41.6,19.4
		c13.3-0.8,25.1-7.1,33.4-16.6c0.1-0.1,0.2-0.2,0.2-0.2l39.6-45.3L289.3,234.7z M404.2,202.5c-13.6,0.9-25.7,7.6-34,17.6
		c-0.1,0.1-0.2,0.2-0.3,0.3l-14.3,16.3l0,0l-26.5,30.3l0,0c-4.7,5.6-11.7,9.1-19.6,9.1s-14.9-3.5-19.7-9.2l0,0l-4.2-4.8l-14.8,17
		c9.3,12.6,24.6,20.4,41.6,19.4c13.3-0.8,25.1-7,33.4-16.5c0.1-0.1,0.2-0.2,0.2-0.2l40.8-46.7l0,0l0.5-0.5
		c5.3-6.8,14.1-10.8,23.6-9.6c11.5,1.5,20.8,10.9,22.1,22.5c1.7,15.4-10.4,28.6-25.4,28.6c-5.9,0-11.5-2-15.8-5.5
		c-0.2-0.1-0.2-0.2-0.4-0.3c-1.4-1.1-3.1-1.7-4.8-2.1c-0.4-0.1-0.8-0.2-1.2-0.2l0,0c0,0-0.8-0.1-1.1-0.1c-0.2,0-0.5,0-0.8,0
		c-0.2,0-0.5,0.1-0.8,0.1s-0.5,0.1-0.6,0.1c-0.1,0-0.2,0-0.2,0.1c-5.1,1.1-9,5.6-9,11v4.5v35.5c0,6.2,5,11.2,11.2,11.2
		c6.2,0,11.2-5,11.2-11.2v-22.1c0.4,0.1,0.7,0.2,1.1,0.3c3.6,0.8,7.4,1.4,11.2,1.4c26.6,0,48.2-21.6,48.2-48.2
		C455.6,222.9,432.2,200.6,404.2,202.5z"/>
	
		<linearGradient id="SVGID_2_" gradientUnits="userSpaceOnUse" x1="582.5129" y1="264.55" x2="68.9386" y2="264.55" gradientTransform="matrix(0.7529 0 0 -0.7529 0 449.6687)">
		<stop  offset="0" style="stop-color:#EE4851"/>
		<stop  offset="1" style="stop-color:#FA4975"/>
	</linearGradient>
	<path fill="url(#SVGID_2_)" d="M191,235.2l-52.2,59.6c-0.1,0.1-0.2,0.2-0.2,0.2c-0.3,0.4-0.7,0.7-1.1,1c-0.2,0.2-0.5,0.4-0.7,0.5
		c-0.5,0.3-0.9,0.5-1.4,0.8c-0.2,0.2-0.5,0.2-0.7,0.4c-0.6,0.2-1.2,0.5-1.8,0.6c-0.2,0-0.2,0.1-0.4,0.2c-0.8,0.2-1.5,0.2-2.3,0.2
		l0,0l0,0c-0.7,0-1.4-0.1-2.1-0.2c-0.2-0.1-0.5-0.2-0.8-0.2c-0.5-0.2-0.8-0.2-1.3-0.4c-0.3-0.1-0.5-0.2-0.8-0.4
		c-0.4-0.2-0.7-0.4-1.1-0.6c-0.3-0.2-0.5-0.4-0.8-0.6c-0.2-0.2-0.4-0.3-0.6-0.5c-0.1-0.1-0.2-0.2-0.2-0.3c-0.3-0.3-0.5-0.6-0.8-0.9
		c-0.2-0.3-0.5-0.5-0.7-0.8c-0.2-0.3-0.4-0.6-0.6-0.9c-0.2-0.3-0.4-0.6-0.5-1c-0.2-0.3-0.2-0.7-0.4-1c-0.2-0.4-0.2-0.7-0.3-1.1
		c-0.1-0.3-0.2-0.7-0.2-1.1c-0.1-0.4-0.1-0.8-0.2-1.2c0-0.2,0-0.2,0-0.4v-36.9c0-14.2-11.5-25.7-25.7-25.7s-25.7,11.5-25.7,25.7
		v36.9c0,6.2-5,11.2-11.2,11.2s-11.2-5-11.2-11.2V181.6c0-6.2,5-11.2,11.2-11.2s11.2,5,11.2,11.2v28.2c7.5-4.7,16.2-7.5,25.7-7.5
		c26.6,0,48.2,21.6,48.2,48.2v6.9l32.4-37c0.1-0.2,0.2-0.2,0.4-0.3c8.3-10.1,20.6-16.8,34.3-17.6c17-1.1,32.4,6.9,41.6,19.5
		l-14.8,16.9l-4.5-5.2l-0.1-0.2c-0.1-0.1-0.2-0.2-0.2-0.2c-4.7-5.2-11.5-8.5-19-8.5c-8.1,0-15.4,3.8-20.1,9.7l0,0l-0.4,0.4
		C191.1,235,191,235.1,191,235.2z M289.3,234.7c4.7-6,12-9.9,20.2-9.9c7.5,0,14.3,3.3,19,8.5c0.1,0.1,0.2,0.2,0.2,0.2l0.1,0.1
		l4.5,5.2l14.8-16.9c-9.3-12.6-24.6-20.5-41.6-19.4c-13.7,0.8-25.9,7.5-34.2,17.5c-0.2,0.2-0.3,0.2-0.4,0.4l-40.8,46.7l0,0l-0.2,0.2
		l0,0c-4.7,5.5-11.7,9.3-19.4,9c-9-0.4-15.5-3.8-19.7-9.2l0,0l-4.2-4.8l-14.8,17c9.3,12.6,24.6,20.4,41.6,19.4
		c13.3-0.8,25.1-7.1,33.4-16.6c0.1-0.1,0.2-0.2,0.2-0.2l39.6-45.3L289.3,234.7z M404.2,202.5c-13.6,0.9-25.7,7.6-34,17.6
		c-0.1,0.1-0.2,0.2-0.3,0.3l-14.3,16.3l0,0l-26.5,30.3l0,0c-4.7,5.6-11.7,9.1-19.6,9.1s-14.9-3.5-19.7-9.2l0,0l-4.2-4.8l-14.8,17
		c9.3,12.6,24.6,20.4,41.6,19.4c13.3-0.8,25.1-7,33.4-16.5c0.1-0.1,0.2-0.2,0.2-0.2l40.8-46.7l0,0l0.5-0.5
		c5.3-6.8,14.1-10.8,23.6-9.6c11.5,1.5,20.8,10.9,22.1,22.5c1.7,15.4-10.4,28.6-25.4,28.6c-5.9,0-11.5-2-15.8-5.5
		c-0.2-0.1-0.2-0.2-0.4-0.3c-1.4-1.1-3.1-1.7-4.8-2.1c-0.4-0.1-0.8-0.2-1.2-0.2l0,0c0,0-0.8-0.1-1.1-0.1c-0.2,0-0.5,0-0.8,0
		c-0.2,0-0.5,0.1-0.8,0.1s-0.5,0.1-0.6,0.1c-0.1,0-0.2,0-0.2,0.1c-5.1,1.1-9,5.6-9,11v4.5v35.5c0,6.2,5,11.2,11.2,11.2
		c6.2,0,11.2-5,11.2-11.2v-22.1c0.4,0.1,0.7,0.2,1.1,0.3c3.6,0.8,7.4,1.4,11.2,1.4c26.6,0,48.2-21.6,48.2-48.2
		C455.6,222.9,432.2,200.6,404.2,202.5z"/>
</g>
</svg>
