<?xml version="1.0" encoding="iso-8859-1"?><!-- Generator: Adobe Illustrator 16.0.0, SVG Export Plug-In . SVG Version: 6.00 Build 0) --><!DOCTYPE svg PUBLIC "-//W3C//DTD SVG 1.1//EN" "http://www.w3.org/Graphics/SVG/1.1/DTD/svg11.dtd"><svg version="1.1" id="svg2" xmlns:dc="http://purl.org/dc/elements/1.1/" xmlns:cc="http://creativecommons.org/ns#" xmlns:rdf="http://www.w3.org/1999/02/22-rdf-syntax-ns#" xmlns:svg="http://www.w3.org/2000/svg" xmlns:sodipodi="http://sodipodi.sourceforge.net/DTD/sodipodi-0.dtd" xmlns:inkscape="http://www.inkscape.org/namespaces/inkscape" sodipodi:docname="House of Cards logo.svg" inkscape:version="0.48.2 r9819" xmlns="http://www.w3.org/2000/svg" xmlns:xlink="http://www.w3.org/1999/xlink" x="0px" y="0px" width="640px" height="136px" viewBox="0 0 640 136" style="enable-background:new 0 0 640 136;" xml:space="preserve"><sodipodi:namedview inkscape:snap-global="true" pagecolor="#ffffff" bordercolor="#666666" borderopacity="1.0" id="base" showgrid="false" inkscape:zoom="1.93125" inkscape:cx="320" inkscape:cy="67.999997" inkscape:document-units="px" inkscape:window-y="-8" inkscape:pageopacity="0.0" inkscape:pageshadow="2" inkscape:window-width="1366" inkscape:window-maximized="1" inkscape:window-x="-8" inkscape:window-height="716" inkscape:current-layer="layer1"></sodipodi:namedview><g id="layer1" transform="translate(0,-916.36218)" inkscape:groupmode="layer" inkscape:label="Ebene 1" sodipodi:insensitive="true"><rect id="rect9135" x="0" y="916.362" style="fill:#0B0B28;" width="640" height="136"/><g id="g9243" transform="translate(7.581645,-0.12768)"><path id="path3843" inkscape:connector-curvature="0" style="fill:#FFFFFF;" d="M367.132,973.419l-4.429,33.655	c-0.221,1.329-1.55,2.658-3.1,2.658h-1.771l-0.442,3.542h2.878c3.1,0,5.979-2.657,6.421-5.757l4.429-34.098h5.314l0.664-3.321	h-5.536l1.107-8.192c0.222-1.329,1.771-2.657,3.1-2.657h3.321l0.443-3.542h-4.207c-3.1,0-6.2,2.657-6.643,5.757l-1.107,8.635	h-3.321l-0.442,3.321"/><path id="path3861" inkscape:connector-curvature="0" style="fill:#FFFFFF;" d="M335.942,993.029	c-0.451,3.157,1.804,5.863,5.186,5.863h5.412c3.156,0,6.313-2.706,6.765-5.863l2.255-18.264c0.451-3.157-1.804-5.863-5.187-5.863	h-5.411c-3.157,0-6.314,2.706-6.539,5.863L335.942,993.029L335.942,993.029z M340,992.353l2.255-16.912	c0.226-1.353,1.578-2.706,2.932-2.706h4.059c1.353,0,2.48,1.353,2.255,2.706l-2.255,16.912c0,1.353-1.354,2.705-2.932,2.705	h-3.833C340.903,995.058,339.775,993.706,340,992.353"/><path id="path6101" inkscape:connector-curvature="0" style="fill:#FFFFFF;" d="M426.571,1003.449h7.529l1.943-8.744h9.958	l1.943,8.744h7.529l-10.93-41.533H437.5L426.571,1003.449z M437.258,988.877l3.886-16.031l3.644,16.031"/><path id="path6105" inkscape:connector-curvature="0" style="fill:#FFFFFF;" d="M392.713,995.92c0,4.129,3.4,7.529,7.529,7.529	h8.258c4.129,0,7.772-3.4,7.772-7.529v-6.314h-7.287v4.371c0,1.458-0.972,2.672-2.429,2.672h-4.129	c-1.457,0-2.429-1.214-2.429-2.672v-24.288c0-1.215,0.972-2.429,2.429-2.429h4.129c1.457,0,2.429,1.214,2.429,2.429v4.615h7.287	v-6.315c0-4.129-3.644-7.53-7.772-7.53h-8.258c-4.129,0-7.529,3.4-7.529,7.53V995.92"/><path id="path6107" inkscape:connector-curvature="0" style="fill:#FFFFFF;" d="M520.18,1003.449c4.129,0,7.772-3.643,7.772-7.529	v-26.474c0-4.129-3.644-7.529-7.772-7.529h-17.002v41.533H520.18z M510.465,996.648v-27.931h7.771c1.458,0,2.43,1.214,2.43,2.429	v22.831c0,1.458-0.972,2.672-2.43,2.672"/><path id="path6109" inkscape:connector-curvature="0" style="fill:#FFFFFF;" d="M215.714,1003.449h20.402v-7.043H223v-11.173	h9.229v-6.072H223v-10.93h12.63v-6.315h-19.916V1003.449"/><path id="path6115" inkscape:connector-curvature="0" style="fill:#FFFFFF;" d="M60.553,1003.449h7.793v-18.604H77.9v18.604h7.542	v-42.99H77.9v17.347h-9.554v-17.347h-7.793"/><path id="path6129" inkscape:connector-curvature="0" style="fill:#FFFFFF;" d="M100.658,995.92c0,3.887,3.4,7.529,7.529,7.529	h10.444c4.129,0,7.772-3.643,7.772-7.529v-27.931c0-4.129-3.644-7.53-7.772-7.53h-10.444c-4.129,0-7.529,3.4-7.529,7.53V995.92z M107.946,993.976v-24.288c0-1.215,0.972-2.429,2.429-2.429h6.072c1.457,0,2.429,1.214,2.429,2.429v24.288	c0,1.458-0.972,2.672-2.429,2.672h-6.072C108.917,996.648,107.946,995.434,107.946,993.976"/><path id="path6135" inkscape:connector-curvature="0" style="fill:#FFFFFF;" d="M489.301,980.375v-10.93	c0-4.129-3.643-7.529-7.772-7.529h-13.602v41.533h7.287v-15.545h1.214l7.772,15.545h8.016l-8.259-16.029	C486.872,986.447,489.301,983.776,489.301,980.375L489.301,980.375z M475.214,981.833v-13.602h4.129	c1.457,0,2.429,1.214,2.429,2.429v8.744c0,1.214-0.972,2.429-2.429,2.429"/><path id="path6137" inkscape:connector-curvature="0" style="fill:#FFFFFF;" d="M178.216,995.92c0,3.887,3.4,7.529,7.529,7.529	h8.016c4.129,0,7.529-3.643,7.529-7.529v-9.473c0-2.671-1.7-5.343-4.372-6.072l-10.201-2.671	c-0.729-0.243-1.457-1.214-1.457-2.186v-5.829c0-1.215,1.214-2.429,2.429-2.429h4.129c1.457,0,2.429,1.214,2.429,2.429v3.4h7.044	v-5.101c0-4.129-3.4-7.53-7.529-7.53h-8.016c-4.129,0-7.529,3.4-7.529,7.53v8.501c0,2.915,1.7,5.586,4.372,6.315l10.201,2.672	c0.729,0.242,1.214,1.215,1.214,2.186v6.314c0,1.458-0.971,2.672-2.429,2.672h-3.886c-1.457,0-2.429-1.214-2.429-2.672v-3.4	h-7.044V995.92"/><path id="path6141" inkscape:connector-curvature="0" style="fill:#FFFFFF;" d="M140.456,995.92c0,3.887,3.4,7.529,7.529,7.529	h8.743c4.372,0,7.529-3.643,7.529-7.529v-34.732h-7.286v32.789c0,1.458-0.972,2.43-2.186,2.43h-4.615	c-1.457,0-2.429-0.972-2.429-2.43v-32.789h-7.286"/><path id="path8278" inkscape:connector-curvature="0" style="fill:#FFFFFF;" d="M541.21,995.92c0,3.887,3.4,7.529,7.529,7.529	h8.016c4.129,0,7.529-3.643,7.529-7.529v-9.473c0-2.671-1.7-5.343-4.372-6.072l-10.201-2.671	c-0.729-0.243-1.457-1.214-1.457-2.186v-5.829c0-1.215,1.214-2.429,2.429-2.429h4.129c1.457,0,2.429,1.214,2.429,2.429v3.4h7.044	v-5.101c0-4.129-3.4-7.53-7.53-7.53h-8.015c-4.129,0-7.529,3.4-7.529,7.53v8.501c0,2.915,1.7,5.586,4.372,6.315l10.201,2.672	c0.729,0.242,1.214,1.215,1.214,2.186v6.314c0,1.458-0.972,2.672-2.429,2.672h-3.886c-1.458,0-2.429-1.214-2.429-2.672v-3.4	h-7.044V995.92"/></g><g id="g3006"><path id="rect8280" inkscape:connector-curvature="0" style="fill:#FFFFFF;" d="M258.061,959.937h74.462v43.384h-74.462V959.937z"	/><g id="g9115" transform="matrix(0.61708543,0,0,0.61708543,77.108621,569.89548)"><path id="rect9050" inkscape:connector-curvature="0" style="fill:#921116;" d="M293.238,696.968h120.667v5.407H293.238V696.968z	"/><path id="rect9052" inkscape:connector-curvature="0" style="fill:#921116;" d="M293.238,686.152h120.667v5.409H293.238V686.152z	"/><path id="rect9054" inkscape:connector-curvature="0" style="fill:#921116;" d="M293.238,675.337h120.667v5.408H293.238V675.337z	"/><path id="rect9056" inkscape:connector-curvature="0" sodipodi:nodetypes="ccccc" style="fill:#921116;" d="M293.238,664.52	h120.667v5.408H293.238V664.52z"/><path id="rect9058" inkscape:connector-curvature="0" style="fill:#921116;" d="M293.238,642.887h120.667v5.408H293.238V642.887z	"/><path id="rect9060" inkscape:connector-curvature="0" style="fill:#921116;" d="M293.238,632.071h120.667v5.408H293.238V632.071z	"/><path id="rect9062" inkscape:connector-curvature="0" style="fill:#921116;" d="M293.238,653.703h120.667v5.408H293.238V653.703z	"/></g><path id="rect9074" inkscape:connector-curvature="0" sodipodi:nodetypes="ccccc" style="fill:#232E8A;" d="M301.531,979.96	h30.992v23.361h-30.992V979.96z"/></g></g></svg>