<?xml version="1.0" encoding="UTF-8" standalone="no"?>
<svg width="307px" height="94px" viewBox="0 0 307 94" version="1.1" xmlns="http://www.w3.org/2000/svg" xmlns:xlink="http://www.w3.org/1999/xlink">
    <!-- Generator: Sketch 3.6.1 (26313) - http://www.bohemiancoding.com/sketch -->
    <title>Fill 1 + Group</title>
    <desc>Created with Sketch.</desc>
    <defs></defs>
    <g id="Page-1" stroke="none" stroke-width="1" fill="none" fill-rule="evenodd">
        <g id="Logo-horizontal-color" transform="translate(-36.000000, -84.000000)">
            <g id="Fill-1-+-Group" transform="translate(36.000000, 84.000000)">
                <path d="M59.6815886,49.0869667 L68.8916156,61.2344339 C69.6553626,62.2426829 69.6986917,63.9186733 68.9875173,64.9638587 L68.5218742,65.6460283 C67.8130106,66.6889053 66.3871954,68.1392371 65.3553858,68.8693087 L64.2478948,69.6472822 C63.2178184,70.3756223 61.5493604,70.3490743 60.5435483,69.5861062 L48.3796343,60.3739306 C47.3738221,59.6109626 45.7255843,59.6109626 44.7191945,60.3739306 L32.5558582,69.5861062 C31.5488906,70.3490743 29.8717668,70.3865878 28.83418,69.6732531 L28.0299925,69.1220924 C26.991828,68.4047177 25.5457925,66.9716998 24.8230637,65.938057 L24.1292208,64.9442362 C23.406492,63.9123248 23.4376889,62.2426829 24.1979696,61.2344339 L33.4207064,49.0811954 C34.1809872,48.0723692 34.1809872,46.4286982 33.4207064,45.4210264 L24.1979696,33.264325 C23.4376889,32.256076 23.4088029,30.5922054 24.1373089,29.5608711 L24.9212762,28.4545097 C25.6468937,27.4231755 27.0987064,25.9988145 28.1432258,25.2912511 L28.8278251,24.826083 C29.8717668,24.1150568 31.5488906,24.1618044 32.5558582,24.9213097 L44.7191945,34.1340624 C45.7255843,34.8964534 47.3738221,34.8964534 48.3796343,34.1340624 L60.5435483,24.9213097 C61.5493604,24.1618044 63.2611475,24.0602293 64.3518846,24.7019997 L65.624026,25.452848 C66.7141854,26.0940412 68.1053374,27.5235964 68.7182993,28.6276492 L69.1666107,29.4362107 C69.776684,30.5373779 69.6553626,32.264733 68.8916156,33.272982 L59.6815886,45.4267977 C58.9178416,46.4344696 58.9178416,48.0816033 59.6815886,49.0869667 L59.6815886,49.0869667 Z M46.6996218,0.591170199 C20.9713983,0.591170199 0.115095298,21.4256232 0.115095298,47.1252962 C0.115095298,72.8278548 20.9713983,93.6651934 46.6996218,93.6651934 C72.4284231,93.6651934 93.2847261,72.8278548 93.2847261,47.1252962 C93.2847261,21.4256232 72.4284231,0.591170199 46.6996218,0.591170199 L46.6996218,0.591170199 Z" id="Fill-1" fill="#0071CE"></path>
                <g id="Group" transform="translate(115.081559, 24.986526)" fill="#121312">
                    <path d="M0.266329345,5.06317608 C0.266329345,2.33045765 2.4298942,0.169099577 5.16540276,0.169099577 C7.90206677,0.169099577 10.0650539,2.33045765 10.0650539,5.06317608 L10.0650539,40.5348423 C10.0650539,43.268715 7.90206677,45.4300731 5.16540276,45.4300731 C2.4298942,45.4300731 0.266329345,43.268715 0.266329345,40.5348423 L0.266329345,5.06317608" id="Fill-4"></path>
                    <path d="M21.2006247,5.44523724 C21.2006247,2.71136455 23.3647672,0.550006475 26.1014312,0.550006475 L51.0456875,0.550006475 C53.5275766,0.550006475 55.4999158,2.5209111 55.4999158,4.99969159 C55.4999158,7.47904922 53.5275766,9.44995384 51.0456875,9.44995384 L31.0010824,9.44995384 L31.0010824,18.9212616 L48.1825026,18.9212616 C50.6638139,18.9212616 52.6355755,20.8921662 52.6355755,23.3709467 C52.6355755,25.8508814 50.6638139,27.8206318 48.1825026,27.8206318 L31.0010824,27.8206318 L31.0010824,40.5348423 C31.0010824,43.268715 28.8369398,45.4300731 26.1014312,45.4300731 C23.3647672,45.4300731 21.2006247,43.268715 21.2006247,40.5348423 L21.2006247,5.44523724" id="Fill-5"></path>
                    <path d="M63.3904281,5.06317608 C63.3904281,2.33045765 65.553993,0.169099577 68.2895015,0.169099577 C71.0261656,0.169099577 73.1897304,2.33045765 73.1897304,5.06317608 L73.1897304,40.5348423 C73.1897304,43.268715 71.0261656,45.4300731 68.2895015,45.4300731 C65.553993,45.4300731 63.3904281,43.268715 63.3904281,40.5348423 L63.3904281,5.06317608" id="Fill-6"></path>
                    <path d="M136.75983,5.06317608 C136.75983,2.33045765 138.923395,0.169099577 141.659481,0.169099577 C144.395567,0.169099577 146.559132,2.33045765 146.559132,5.06317608 L146.559132,40.5348423 C146.559132,43.268715 144.395567,45.4300731 141.659481,45.4300731 C138.923395,45.4300731 136.75983,43.268715 136.75983,40.5348423 L136.75983,5.06317608" id="Fill-7"></path>
                    <path d="M168.067682,9.57692281 L158.649098,9.57692281 C156.167786,9.57692281 154.132476,7.54311083 154.132476,5.06317608 C154.132476,2.58497272 156.167786,0.550006475 158.649098,0.550006475 L187.285568,0.550006475 C189.767457,0.550006475 191.803346,2.58497272 191.803346,5.06317608 C191.803346,7.54311083 189.767457,9.57692281 187.285568,9.57692281 L177.867562,9.57692281 L177.867562,40.5348423 C177.867562,43.268715 175.703419,45.4300731 172.967333,45.4300731 C170.231247,45.4300731 168.067682,43.268715 168.067682,40.5348423 L168.067682,9.57692281" id="Fill-8"></path>
                    <path d="M112.036263,23.061027 L125.991689,9.11983453 C127.942075,7.1725923 127.942075,4.01395071 125.991689,2.06555422 C124.041881,0.117734859 120.879437,0.117734859 118.930207,2.06555422 L104.97478,16.0067467 L91.0193535,2.06555422 C89.0695454,0.117734859 85.9082565,0.117734859 83.9578707,2.06555422 C82.0074848,4.01395071 82.0074848,7.17201517 83.9578707,9.11983453 L97.9132972,23.061027 L83.9578707,37.0016423 C82.0074848,38.9494617 82.0074848,42.1081032 83.9578707,44.0564997 C84.9330636,45.030698 86.2104045,45.51722 87.4889009,45.51722 C88.7662419,45.51722 90.0447383,45.030698 91.0193535,44.0564997 L104.97478,30.1153073 L118.929629,44.0564997 C119.9054,45.030698 121.182163,45.51722 122.460659,45.51722 C123.738578,45.51722 125.017074,45.030698 125.991689,44.0564997 C127.941498,42.1081032 127.941498,38.9494617 125.991689,37.0016423 L112.036263,23.061027" id="Fill-9"></path>
                </g>
            </g>
        </g>
    </g>
</svg>