<?xml version="1.0" encoding="utf-8"?>
<!-- Generator: Adobe Illustrator 16.0.0, SVG Export Plug-In . SVG Version: 6.00 Build 0)  -->
<!DOCTYPE svg PUBLIC "-//W3C//DTD SVG 1.1//EN" "http://www.w3.org/Graphics/SVG/1.1/DTD/svg11.dtd">
<svg version="1.1" id="ig-logo-svg" xmlns="http://www.w3.org/2000/svg" xmlns:xlink="http://www.w3.org/1999/xlink" x="0px"
	 y="0px" width="105px" height="27.984px" viewBox="0 0 105 27.984" enable-background="new 0 0 105 27.984" xml:space="preserve">
<path fill="#31A2F4" d="M37.098,13.505v3.641h7.364c-1.163,3.638-4.289,5.544-7.96,5.544c-4.653,0-8.433-3.846-8.433-8.496
	c0-4.617,3.78-8.669,8.433-8.669c3.271,0,6.106,1.919,7.524,4.344h3.053c-1.563-3.638-5.707-7.211-10.577-7.211
	c-3.332,0-6.317,1.572-8.371,3.87c-2.571-4.113-7.211-6.712-12.405-6.51C8.012,0.317,2.001,6.844,2.302,14.558
	c0.3,7.715,6.798,13.738,14.512,13.438c4.762-0.185,8.868-2.725,11.249-6.459c2.056,2.339,5.209,3.818,8.579,3.818
	c6.18,0,11.371-5.017,11.371-11.229v-0.624L37.098,13.505L37.098,13.505z M13.906,7.094c0.22-1.295,1.721-2.342,3.354-2.338
	c1.633,0.005,2.779,1.063,2.559,2.358c-0.22,1.296-1.722,2.343-3.354,2.338C14.833,9.445,13.687,8.391,13.906,7.094z M23.262,9.75
	c-1.333,0.464-4.208,2.1-4.806,2.36c-0.524,0.339-0.576,0.875-0.576,0.875l-1.837,8.184c0,0,0,0.138,0.042,0.171
	c0.231,0.176,0.673,0.52,1.275,0.776c0.083,0.035-0.012,0.102-0.012,0.102l-1.708-0.005L13.303,22.2l-2.547-0.007
	c-0.003-0.026,0.006-0.039,0.036-0.063c0.442-0.168,1.182-0.375,1.552-0.771c0.045-0.084,0,0,0.045-0.096
	c0.97-2.082,2.052-7.424,2.223-8.412c0.009-0.063-0.042-0.192-0.073-0.222c-0.841-0.738-2.091-0.937-4.486-2.686
	c-0.073-0.053-0.049-0.25,0.035-0.221c2.224,0.795,7.078,1.943,13.223-0.199C23.398,9.508,23.36,9.716,23.262,9.75z"/>
<path fill="#31A2F4" d="M49.225,2.591h2.425v23.042h-2.425V2.591z"/>
<path fill="#31A2F4" d="M68.635,17.873c0,4.107-3.345,7.488-7.488,7.488c-4.143,0-7.484-3.381-7.484-7.488
	c0-4.145,3.344-7.488,7.484-7.488C65.29,10.385,68.635,13.729,68.635,17.873z M65.836,17.873c0-2.581-2.107-4.688-4.689-4.688
	c-2.58,0-4.688,2.106-4.688,4.688s2.107,4.652,4.688,4.652C63.729,22.525,65.836,20.454,65.836,17.873z"/>
<path fill="#31A2F4" d="M84.792,17.873c0,4.146-3.331,7.488-7.476,7.488c-4.107,0-7.479-3.346-7.479-7.488V2.591h2.428v9.469
	c1.213-1.058,3.102-1.675,4.846-1.675C81.256,10.385,84.792,13.766,84.792,17.873z M81.993,17.873c0-2.581-2.108-4.651-4.688-4.651
	c-2.582,0-4.652,2.07-4.652,4.651s2.07,4.689,4.652,4.689C79.885,22.563,81.993,20.454,81.993,17.873z"/>
<path fill="#31A2F4" d="M102.583,2.591h2.425v23.042h-2.425V2.591z"/>
<path fill="#31A2F4" d="M97.732,9.867v2.154c0-0.118-0.229-0.229-0.387-0.334c-0.074-0.055-0.115-0.1-0.191-0.146
	c-0.113-0.067-0.205-0.142-0.322-0.207c-0.133-0.074-0.258-0.139-0.395-0.205c-0.063-0.027-0.121-0.063-0.188-0.091
	c-0.127-0.056-0.252-0.104-0.383-0.155c-0.087-0.03-0.175-0.063-0.263-0.096c-0.112-0.04-0.229-0.075-0.352-0.107
	c-0.111-0.032-0.227-0.063-0.342-0.09c-0.102-0.021-0.205-0.048-0.311-0.065c-0.146-0.028-0.291-0.049-0.441-0.067
	c-0.08-0.01-0.162-0.021-0.245-0.033c-0.235-0.021-0.474-0.034-0.716-0.034c-0.26,0-0.516,0.014-0.768,0.037
	c-3.781,0.385-6.724,3.564-6.724,7.45s2.938,7.066,6.724,7.449c0.252,0.025,0.508,0.039,0.768,0.039
	c0.242,0,0.479-0.014,0.716-0.035c0.083-0.01,0.165-0.021,0.247-0.033c0.148-0.02,0.295-0.041,0.439-0.064
	c0.104-0.021,0.209-0.045,0.313-0.068c0.113-0.025,0.229-0.056,0.341-0.089c0.119-0.032,0.235-0.069,0.353-0.108
	c0.09-0.025,0.177-0.062,0.263-0.095c0.131-0.051,0.26-0.101,0.386-0.156c0.063-0.026,0.126-0.062,0.188-0.092
	c0.14-0.063,0.272-0.131,0.404-0.204c0.115-0.063,0.228-0.136,0.336-0.204c0.08-0.05,0.082-0.096,0.158-0.146
	c0.16-0.106,0.387-0.219,0.387-0.335v1.907h2.428V17.88V9.867H97.732z M93.203,22.563c-2.581,0-4.689-2.108-4.689-4.689
	c0-2.58,2.108-4.688,4.689-4.688c2.58,0,4.688,2.106,4.688,4.688C97.893,20.454,95.783,22.563,93.203,22.563z"/>
</svg>
