<?xml version="1.0" encoding="utf-8"?>
<!-- Generator: Adobe Illustrator 18.1.1, SVG Export Plug-In . SVG Version: 6.00 Build 0)  -->
<svg version="1.1" id="Layer_1" xmlns="http://www.w3.org/2000/svg" xmlns:xlink="http://www.w3.org/1999/xlink" x="0px" y="0px"
	 viewBox="-153 154.2 512 512" enable-background="new -153 154.2 512 512" xml:space="preserve">
<g>
	<polygon fill="#FFFFFF" points="-153,154.2 359,154.2 359,666.2 -153,666.2 	"/>
	<path fill="#2360A5" d="M-145.5,322.6h496.9v175.2h-496.9V322.6L-145.5,322.6z M-140.4,410.7c0-44.4,109.4-80.4,244.3-80.4
		c134.9,0,244.3,36,244.3,80.4s-109.4,80.4-244.3,80.4C-31.1,491.1-140.4,455.1-140.4,410.7C-140.4,410.7-140.4,455.1-140.4,410.7
		L-140.4,410.7z"/>
	<path fill="#F6D33C" d="M-140.4,410.7c0-44.4,109.4-80.4,244.3-80.4c134.9,0,244.3,36,244.3,80.4s-109.4,80.4-244.3,80.4
		C-31.1,491.1-140.4,455.1-140.4,410.7C-140.4,410.7-140.4,455.1-140.4,410.7L-140.4,410.7z"/>
	<path fill="#2360A5" d="M-73.7,377.5h43.4c0,0-1.2,1.8-1.2,4.1c0,2.3,0,55.9,0,55.9c0,3,1.3,5.6,1.3,5.6h-43.7c0,0,1.3-2.6,1.3-5.2
		c0-2.6,0-55.9,0-55.9C-72.6,379.9-73.7,377.5-73.7,377.5L-73.7,377.5z"/>
	<path fill="#2360A5" d="M-8.7,377.7h41.3c0,0-1.2,1.9-1.2,3.7s0,20.1,0,20.1l14.6-18.7c0,0,0.9-1.3,0.9-2.7s0-2.1,0-2.1h42
		l-17.8,24.8c0,0-0.9,1-0.9,1.8c0,0.7,0.7,1.8,0.7,1.8l22.9,36.4H43.3c0,0,0.9-1.3,0.9-2.7c0-1.3-0.9-3-0.9-3l-12-19.6v21.3
		c0,1.8,1.3,4.2,1.3,4.2H-8.7c0,0,1.2-1.6,1.2-3.4s0-58.1,0-58.1C-7.5,379.6-8.7,377.7-8.7,377.7L-8.7,377.7z"/>
	<path fill="#2360A5" d="M106.2,378.1H180v19.8c0,0-1.6-1.5-3.6-1.5c-2,0-30.3,0-30.3,0v5.4h26.4v17.5c0,0-1.7-1.5-3.6-1.5
		s-23,0-23,0v6h31c1.7,0,2.8-2.8,2.8-2.8v21.7h-73.4c0,0,1.3-1.9,1.3-3.2c0-1.3,0-56.7,0-56.7C107.5,380.6,106.2,378.1,106.2,378.1
		L106.2,378.1z"/>
	<path fill="#2360A5" d="M212.7,377.4h59c0,0-1.2,2.7-1.2,4.3s1,4.3,1,4.3l23.6,57.1h-44.3c0,0,1-1.7,0.4-3
		c-0.6-1.4-3.6-9.1-3.6-9.1h-18.2c0,0-3.6,8.1-3.6,9.6c0,1.5,1.2,2.7,1.2,2.7h-36.5l22.9-59.7c0,0,0.9-1.2,0.9-2.7
		S212.7,377.4,212.7,377.4L212.7,377.4z M237.7,406.6l-4.3,11.7h9.6L237.7,406.6L237.7,406.6z"/>
</g>
</svg>
