<?xml version="1.0" encoding="iso-8859-1"?><!-- Generator: Adobe Illustrator 16.0.0, SVG Export Plug-In . SVG Version: 6.00 Build 0) --><!DOCTYPE svg PUBLIC "-//W3C//DTD SVG 1.1//EN" "http://www.w3.org/Graphics/SVG/1.1/DTD/svg11.dtd"><svg version="1.1" id="Layer_1" xmlns="http://www.w3.org/2000/svg" xmlns:xlink="http://www.w3.org/1999/xlink" x="0px" y="0px" width="192.756px" height="192.756px" viewBox="0 0 192.756 192.756" style="enable-background:new 0 0 192.756 192.756;" xml:space="preserve"><g><polygon style="fill-rule:evenodd;clip-rule:evenodd;fill:#FFFFFF;" points="0,0 192.756,0 192.756,192.756 0,192.756 0,0	"/><path style="fill-rule:evenodd;clip-rule:evenodd;fill:#2360A5;" d="M2.834,63.4h187.087v65.956H2.834V63.4L2.834,63.4z M4.737,96.537c0-16.725,41.17-30.283,91.958-30.283c50.787,0,91.957,13.558,91.957,30.283c0,16.725-41.17,30.283-91.957,30.283	C45.908,126.82,4.737,113.262,4.737,96.537C4.737,96.537,4.737,113.262,4.737,96.537L4.737,96.537z"/><path style="fill-rule:evenodd;clip-rule:evenodd;fill:#F6D33C;" d="M4.737,96.537c0-16.725,41.17-30.283,91.958-30.283	c50.787,0,91.957,13.558,91.957,30.283c0,16.725-41.17,30.283-91.957,30.283C45.908,126.82,4.737,113.262,4.737,96.537	C4.737,96.537,4.737,113.262,4.737,96.537L4.737,96.537z"/><path style="fill-rule:evenodd;clip-rule:evenodd;fill:#2360A5;" d="M29.842,84.052h16.346c0,0-0.436,0.686-0.436,1.543	c0,0.858,0,21.043,0,21.043c0,1.143,0.49,2.115,0.49,2.115H29.788c0,0,0.49-0.973,0.49-1.945c0-0.971,0-21.042,0-21.042	C30.278,84.966,29.842,84.052,29.842,84.052L29.842,84.052z"/><path style="fill-rule:evenodd;clip-rule:evenodd;fill:#2360A5;" d="M54.326,84.108h15.543c0,0-0.436,0.732-0.436,1.409	s0,7.55,0,7.55l5.508-7.043c0,0,0.328-0.507,0.328-1.014s0-0.789,0-0.789h15.815l-6.708,9.353c0,0-0.327,0.394-0.327,0.676	s0.273,0.676,0.273,0.676l8.617,13.691H73.904c0,0,0.328-0.506,0.328-1.014c0-0.506-0.328-1.127-0.328-1.127l-4.527-7.381v8.002	c0,0.676,0.491,1.576,0.491,1.576H54.326c0,0,0.436-0.619,0.436-1.295s0-21.862,0-21.862	C54.762,84.841,54.326,84.108,54.326,84.108L54.326,84.108z"/><path style="fill-rule:evenodd;clip-rule:evenodd;fill:#2360A5;" d="M97.568,84.279h27.803v7.468c0,0-0.6-0.553-1.361-0.553	c-0.764,0-11.395,0-11.395,0v2.046h9.922v6.583c0,0-0.654-0.553-1.363-0.553s-8.668,0-8.668,0v2.268h11.666	c0.654,0,1.037-1.051,1.037-1.051v8.186H97.568c0,0,0.492-0.719,0.492-1.217s0-21.351,0-21.351	C98.061,85.219,97.568,84.279,97.568,84.279L97.568,84.279z"/><path style="fill-rule:evenodd;clip-rule:evenodd;fill:#2360A5;" d="M137.672,84.011h22.23c0,0-0.436,1.029-0.436,1.601	s0.381,1.601,0.381,1.601l8.881,21.5h-16.672c0,0,0.381-0.629,0.162-1.143c-0.217-0.516-1.361-3.432-1.361-3.432h-6.865	c0,0-1.363,3.031-1.363,3.604c0,0.57,0.438,1.029,0.438,1.029h-13.732l8.609-22.473c0,0,0.328-0.458,0.328-1.029	S137.672,84.011,137.672,84.011L137.672,84.011z M147.098,94.99l-1.635,4.403h3.596L147.098,94.99L147.098,94.99z"/></g></svg>