<?xml version="1.0" encoding="utf-8"?>
<!-- Generator: Adobe Illustrator 18.1.1, SVG Export Plug-In . SVG Version: 6.00 Build 0)  -->
<svg version="1.1"
	 id="svg2" xmlns:dc="http://purl.org/dc/elements/1.1/" xmlns:cc="http://creativecommons.org/ns#" xmlns:rdf="http://www.w3.org/1999/02/22-rdf-syntax-ns#" xmlns:svg="http://www.w3.org/2000/svg"
	 xmlns="http://www.w3.org/2000/svg" xmlns:xlink="http://www.w3.org/1999/xlink" x="0px" y="0px" viewBox="34.1 351.8 123.3 512"
	 enable-background="new 34.1 351.8 123.3 512" xml:space="preserve">
<g id="layer1" transform="translate(-559.74952,-709.62564)">
	<g id="text2996" transform="matrix(0.93208065,0,0,0.9103974,44.122131,58.811339)">
		<g id="g3797">
			<path id="path3001" d="M713.2,1579.8c0,28.5-4.6,49.6-13.9,63.3c-9.3,13.7-23.5,20.5-42.8,20.5c-19.5,0-34-6.9-43.5-20.7
				c-9.5-13.8-14.3-34.8-14.3-63.1v-231.4c0-28.3,4.7-49.3,14.1-62.9c9.4-13.7,24-20.5,43.7-20.5c19.3,0,33.5,6.8,42.8,20.5
				c9.3,13.7,13.9,34.7,13.9,62.9V1579.8z"/>
			<path id="path3001-4" fill="#89C623" d="M589.8,1167.9c0-18.3,6.5-34,19.6-47.1c13.1-13.1,28.8-19.6,47.1-19.6
				c18.1,0,33.5,6.5,46.4,19.6c12.8,13.1,19.3,28.8,19.3,47.1c0,18.5-6.4,34.2-19.1,47.1c-12.7,12.8-28.2,19.3-46.5,19.3
				c-18.8,0-34.6-6.4-47.4-19.3C596.2,1202.2,589.8,1186.5,589.8,1167.9z"/>
		</g>
	</g>
</g>
</svg>
