<?xml version="1.0" encoding="iso-8859-1"?><!-- Generator: Adobe Illustrator 16.0.0, SVG Export Plug-In . SVG Version: 6.00 Build 0) --><!DOCTYPE svg PUBLIC "-//W3C//DTD SVG 1.1//EN" "http://www.w3.org/Graphics/SVG/1.1/DTD/svg11.dtd"><svg version="1.1" id="Layer_1" xmlns="http://www.w3.org/2000/svg" xmlns:xlink="http://www.w3.org/1999/xlink" x="0px" y="0px" width="595.279px" height="580.398px" viewBox="0 130.746 595.279 580.398" style="enable-background:new 0 130.746 595.279 580.398;" xml:space="preserve"><radialGradient id="SVGID_1_" cx="-183.6897" cy="328.9722" r="0.76" gradientTransform="matrix(545.6736 0 0 528.3113 100439.3047 -173525.125)" gradientUnits="userSpaceOnUse"><stop offset="0" style="stop-color:#4B2B36;stop-opacity:0.98"/><stop offset="1" style="stop-color:#250012"/></radialGradient><path style="fill:url(#SVGID_1_);" d="M24.803,155.549h545.674v530.792H24.803V155.549z"/><path style="fill:#FF408C;" d="M24.803,155.549h545.674v530.792H24.803V155.549z M0,711.145H595.28V130.746H0V711.145z M376.515,371.834c-3.721-1.736-8.682-2.48-14.635-2.48c-31.996,0-54.319,24.556-54.319,65.481c0,46.63,22.819,65.48,51.344,65.48	c6.2,0,12.649-0.744,17.61-2.976V371.834L376.515,371.834z M363.368,331.405c5.209,0,8.186,0,13.146,0.496v-65.977	c0-1.736,1.24-2.48,2.479-2.48h40.182c1.984,0,2.48,0.744,2.48,1.984V497.34c0,6.944,0,15.626,1.24,25.051	c0,1.736-0.496,1.984-2.232,2.977c-21.331,10.169-43.901,14.634-64.984,14.634c-54.815,0-94.005-33.98-94.005-103.182	C261.427,377.539,300.616,331.405,363.368,331.405z M217.774,533.057c0,2.479-0.496,3.224-3.225,3.224h-38.197	c-2.48,0-3.225-1.24-3.225-3.224V266.668c0-2.48,1.24-3.225,3.225-3.225h38.445c1.984,0,2.977,0.744,2.977,2.977V533.057	L217.774,533.057z"/></svg>