<?xml version="1.0" encoding="utf-8"?><svg version="1.1" xmlns="http://www.w3.org/2000/svg" xmlns:xlink="http://www.w3.org/1999/xlink" x="0px" y="0px"  viewBox="0 0 172.5 185" enable-background="new 0 0 172.5 185" xml:space="preserve"><g id="Background_xA0_Image_1_">   <image overflow="visible" width="345" height="370" id="Background_xA0_Image" xlink:href="351BF8D39641B80E.jpg"  transform="matrix(0.5 0 0 0.5 0 0)"> </image></g><g id="Ellipse_1_1_" enable-background="new    "> <g id="Ellipse_1">  <g>   <path fill-rule="evenodd" clip-rule="evenodd" d="M127.9,107.1c-2.1-2.1-5.6-2.1-7.8,0s-2.1,5.6,0,7.8l37,37    c2.1,2.1,5.6,2.1,7.8,0c2.1-2.1,2.1-5.6,0-7.8L127.9,107.1z M68.2,22.5c-25.8,0-46.8,20.9-46.8,46.8S42.4,116,68.2,116    S115,95.1,115,69.2S94.1,22.5,68.2,22.5z M68.8,105C49,105,33,89,33,69.2s16-35.8,35.8-35.8c19.7,0,35.8,16,35.8,35.8    S88.5,105,68.8,105z M170.9,175.1l-47.5-47.5c-2.2-2.2-5.6-2.2-7.8,0c-2.2,2.2-2.2,5.6,0,7.8l47.5,47.5c2.2,2.2,5.6,2.2,7.8,0    C173,180.7,173,177.2,170.9,175.1z M93.6,124.6c-0.4-0.4-1-0.8-1.5-1l-1.5-1.5c-6.9,2.9-14.4,4.5-22.4,4.5    c-32.2,0-58.3-26.1-58.3-58.2S36.1,10,68.3,10s58.3,26.1,58.3,58.2c0,7.9-1.6,15.5-4.5,22.4l7.1,7.1c0,0,0,0,0,0l27.7,27.7    c2.1,2.1,5.6,2.1,7.8,0s2.1-5.6,0-7.8l-31.1-31.1c1.7-5.9,2.5-12.1,2.5-18.4c0-37.6-30.4-68-68-68S0,30.4,0,68s30.4,68,68,68    c6.5,0,12.8-0.9,18.8-2.6l49.6,49.6c2.1,2.1,5.6,2.1,7.8,0s2.1-5.6,0-7.8L93.6,124.6z"/>  </g> </g></g></svg>