<?xml version="1.0" encoding="utf-8"?>
<!-- Generator: Adobe Illustrator 16.0.0, SVG Export Plug-In . SVG Version: 6.00 Build 0)  -->
<!DOCTYPE svg PUBLIC "-//W3C//DTD SVG 1.1//EN" "http://www.w3.org/Graphics/SVG/1.1/DTD/svg11.dtd">
<svg version="1.1" id="Layer_1" xmlns="http://www.w3.org/2000/svg" xmlns:xlink="http://www.w3.org/1999/xlink" x="0px" y="0px"
	 width="198.425px" height="198.426px" viewBox="0 0 198.425 198.426" enable-background="new 0 0 198.425 198.426"
	 xml:space="preserve">
<g>
	<linearGradient id="SVGID_1_" gradientUnits="userSpaceOnUse" x1="40.7803" y1="17.8135" x2="154.9522" y2="180.8679">
		<stop  offset="0.309" style="stop-color:#2FB4E9"/>
		<stop  offset="0.4731" style="stop-color:#008FCA"/>
		<stop  offset="0.7645" style="stop-color:#005899"/>
		<stop  offset="0.8989" style="stop-color:#004587"/>
	</linearGradient>
	<path fill="url(#SVGID_1_)" d="M198.425,99.155c0,54.833-45.075,99.271-100.685,99.271c-47.27,0-86.91-32.11-97.74-75.416
		c19.703-0.222,38.391-4.567,55.26-12.149V72.226c0-3.062-1.079-5.3-3.234-6.716c-2.151-1.409-5.975-2.12-11.479-2.12v-3.579
		c7.295-0.24,13.984-0.665,20.063-1.267c6.086-0.604,11.331-1.513,15.74-2.721l0.092,56.113c0,3.182,0,6.654,0,10.422
		c0,3.657-0.055,7.25-0.178,10.782c-0.122,3.537-0.303,6.833-0.539,9.895c-0.242,3.065-0.54,5.653-0.901,7.771
		c5.983,3.424,12.621,6.249,19.921,8.49c7.299,2.239,14.115,3.353,20.455,3.353c5.383,0,10.589-0.795,15.612-2.387
		c5.026-1.59,9.484-3.916,13.367-6.99c3.889-3.066,7.033-6.833,9.428-11.322c2.39-4.485,3.585-9.563,3.585-15.226
		c0-5.188-0.898-9.969-2.694-14.335c-1.795-4.368-4.313-8.139-7.552-11.329c-3.234-3.19-7.06-5.69-11.494-7.52
		c-4.437-1.834-9.286-2.749-14.557-2.749c-3.955,0-7.993,0.687-12.126,2.048c-4.139,1.371-7.879,3.065-11.231,5.079V81.217
		c18.133-18.684,30.894-42.471,35.809-68.97c-22.443-9.396-48.452-10.619-73.052-1.412C32.967,21.061,12.981,42.053,3.409,67.056
		c9.221-26.919,30.12-49.704,59.155-60.579c24.245-9.068,49.573-8.27,71.696,0.248c0.002-0.021,0.011-0.045,0.014-0.063
		C171.81,21.082,198.425,57.046,198.425,99.155z M100.598,149.993c2.746,4.661,7.408,6.986,13.987,6.986
		c6.564,0,11.233-2.325,13.985-6.986c2.749-4.652,4.123-11.988,4.123-22.013c0-10.014-1.374-17.353-4.123-22.008
		c-2.752-4.657-7.421-6.979-13.985-6.979c-6.58,0-11.242,2.322-13.987,6.979c-2.75,4.655-4.124,11.994-4.124,22.008
		C96.474,138.005,97.848,145.341,100.598,149.993z M74.363,44.669c2.793-2.686,4.185-6.045,4.185-10.084
		c0-4.037-1.392-7.397-4.185-10.086c-2.781-2.692-6.165-4.037-10.129-4.037c-3.968,0-7.351,1.345-10.137,4.037
		c-2.79,2.688-4.181,6.049-4.181,10.086c0,4.039,1.391,7.398,4.181,10.084c2.786,2.69,6.168,4.036,10.137,4.036
		C68.199,48.705,71.582,47.359,74.363,44.669z"/>
</g>
</svg>
