<?xml version="1.0" encoding="utf-8"?>
<!-- Generator: Adobe Illustrator 15.0.0, SVG Export Plug-In . SVG Version: 6.00 Build 0)  -->
<!DOCTYPE svg PUBLIC "-//W3C//DTD SVG 1.1//EN" "http://www.w3.org/Graphics/SVG/1.1/DTD/svg11.dtd">
<svg version="1.1" id="Layer_1" xmlns="http://www.w3.org/2000/svg" xmlns:xlink="http://www.w3.org/1999/xlink" x="0px" y="0px"
	 width="1024px" height="1023.088px" viewBox="0 0 1024 1023.088" enable-background="new 0 0 1024 1023.088" xml:space="preserve">
<g id="Layer_2">
	<path fill="#FFA111" d="M915.275,7.044H115.364C55.344,7.044,4.5,53.102,4.5,112.61v51.609h96.052h0.004
		c0.529-0.003,0.917-0.005,1.211-0.005c-0.497,0.002-1.038,0.005-0.848,0.005c22.904,0,44.206,16.388,44.206,39.294
		c0,22.907-21.531,43.66-44.436,43.66c-0.06,0-0.079,0.012-0.117,0.019l-0.02-0.019H4.5v122.248h96.052
		c22.904,0,44.572,16.387,44.572,39.293c0,22.836-21.522,43.602-44.348,43.729c-0.089,0-0.126,0-0.224,0v-0.069H4.5v117.883h96.052
		c0.03,0,0.045,0,0.068,0c22.905,0,44.504,16.388,44.504,39.294c0,22.904-21.531,43.66-44.436,43.66c-0.047,0-0.077,0-0.137,0H4.5
		v122.247h96.052c22.904,0,44.572,16.391,44.572,39.295c0,22.903-21.531,43.659-44.436,43.659c-0.024,0-0.039,0-0.069,0h-0.068H4.5
		v47.241c0,59.508,50.844,109.935,110.864,109.935h799.913c60.021,0,106.502-50.427,106.502-109.935V112.61
		C1021.777,53.102,975.298,7.044,915.275,7.044z M751.085,168.585l-3.684,87.321l-53.62-0.182l-3.819-87.14L751.085,168.585
		L751.085,168.585z M764.012,754.959l-14.742,14.762c-64.445,64.576-217.275,12.643-347.848-118.185
		c-89.963-90.104-145.774-194.47-145.774-272.444c0-31.55,9.61-57.884,27.777-76.096l14.783-14.778
		c10.992-11.041,25.574-17.105,41.146-17.105c15.563,0,30.194,6.05,41.19,17.121l58.987,59.069
		c22.064,22.017,22.031,60.529,0,82.562l-14.714,14.765c-4.75,4.748-7.065,10.83-7.065,18.647c0,14.746,8.587,48.071,66.036,105.646
		c67.494,67.625,108.332,74.846,124.057,59.104l14.77-14.763c22.721-22.787,59.691-22.739,82.384,0l58.987,59.115
		c11.008,11.044,17.075,25.689,17.075,41.291C781.06,729.283,774.991,743.933,764.012,754.959z M842.042,472.75l-53.846,36.384
		l-69.856-119.52L650.121,506.95l-54.029-33.836l78.042-120.064l-129.341-25.651l18.372-66.581l131.709,44.205
		c28.378,9.824,55.119,0,55.119,0l127.706-42.204l17.463,64.58l-130.979,26.196L842.042,472.75z"/>
</g>
</svg>
