<?xml version="1.0" encoding="utf-8"?>
<!-- Generator: Adobe Illustrator 19.2.1, SVG Export Plug-In . SVG Version: 6.00 Build 0)  -->
<svg version="1.1" id="Layer_1" xmlns="http://www.w3.org/2000/svg" xmlns:xlink="http://www.w3.org/1999/xlink" x="0px" y="0px"
	 viewBox="0 0 2056 2056" style="enable-background:new 0 0 2056 2056;" xml:space="preserve">
<g>
	<path d="M238.3,1617.7h24.6V1766h-24.6V1617.7z"/>
	<path d="M378,1617.5l98.7,88.9v-88.9h24.8v148.3v-0.2v0.4l-98.9-88.9v88.7H378V1617.5z"/>
	<path d="M616.5,1617.7h123.7v24.8h-49.3V1766h-24.8v-123.5h-49.6V1617.7z"/>
	<path d="M951,1766l-28.6-49.4h-41.9v49.4H856v-148.3h74.1c13.5,0,25.1,4.8,34.8,14.5c9.7,9.7,14.5,21.3,14.5,34.8
		c0,10.2-2.9,19.6-8.7,28c-5.7,8.3-13,14.2-21.8,17.7l30.5,53.2H951z M930.1,1642.5h-49.6v49.1l49.6,0.2c6.7,0,12.5-2.4,17.3-7.2
		c4.8-4.8,7.3-10.7,7.3-17.5c0-6.7-2.4-12.5-7.3-17.3C942.6,1644.9,936.8,1642.5,930.1,1642.5z"/>
	<path d="M1193.2,1617.7v24.8h-74.1v37.2h74.1v24.6h-74.1v37h74.1v24.8h-98.7v-148.3H1193.2z"/>
	<path d="M1348.7,1716.6v49.4h-24.6v-148.3h74.1c13.5,0,25.1,4.8,34.8,14.5c9.7,9.7,14.5,21.4,14.5,35c0,13.5-4.8,25.2-14.5,35
		c-9.7,9.6-21.3,14.3-34.8,14.3H1348.7z M1348.7,1642.5v49.3h49.6c6.7,0,12.5-2.4,17.3-7.2c4.8-4.8,7.3-10.6,7.3-17.3
		c0-6.8-2.4-12.7-7.3-17.5c-4.8-4.8-10.6-7.3-17.3-7.3H1348.7z"/>
	<path d="M1560.6,1617.7h24.6V1766h-24.6V1617.7z"/>
	<path d="M1711.3,1617.7h49.3c20.5,0,38,7.3,52.3,21.8c14.5,14.5,21.8,32,21.8,52.3c0,20.5-7.3,38-21.8,52.3
		c-14.4,14.5-31.8,21.8-52.3,21.8h-49.3V1617.7z M1760.6,1741.2c13.5,0,25.1-4.8,34.8-14.3c9.7-9.8,14.5-21.5,14.5-35
		c0-13.5-4.8-25.1-14.5-34.8c-9.7-9.7-21.3-14.5-34.8-14.5h-24.8v98.7H1760.6z"/>
</g>
<g>
	<path d="M1083.4,344l-84.8,91h51.9c132.2,0,239.5,107.2,239.5,239.3v0.5c0,16.1-1.7,32.1-4.8,47.1h204.6l345.7-378H1083.4z"/>
	<g>
		<path d="M1411.6,810h-259c26.2-31,41.9-72.7,41.9-117.2c0-102.3-82.9-185.1-185.2-185.1c-38.3,0-73.9,11.7-103.5,31.6L879.5,513
			c1.4-3.4,2.2-7.1,2.2-10.9c0-15.6-12.6-28.2-28.2-28.2c-15.6,0-28.2,12.6-28.2,28.2c0,15.6,12.6,28.2,28.2,28.2
			c4.7,0,9-1.1,12.9-3.1l24,23.9c-18.7,15.7-34.3,35.1-45.6,57l-381,0.2l-77.1,81.3L502,814.6l55.7-57.6h147.5l-50.6,54h97.5
			l-35.9,41h-97.9l-63.8,69h97.2l-37,40h-96.4l-64.9,69H644l-134.4,147.5l-267.5,0l120.4,128.8l241.9-0.2L920,961h275.5
			l-128.7,140.5l-50.2-54.3l-91.8,1.2l-119.3,128.8l134.2,0.2l31.1,33.9l-194.5,207.1l36.8,40.7l193.6-209.5l109.9,121.5
			l100.4-105.2l-109.1-120L1411.6,810z M1093.5,794h-34.1l-59-58.3l-107-106.3c22.4-41,65.9-68.7,116-68.7
			c73,0,132.1,58.8,132.1,131.8C1141.5,733.5,1122.8,771,1093.5,794z"/>
	</g>
</g>
</svg>
