<?xml version="1.0" encoding="utf-8"?>
<!-- Generator: Adobe Illustrator 19.2.1, SVG Export Plug-In . SVG Version: 6.00 Build 0)  -->
<svg version="1.1" id="Layer_1" xmlns="http://www.w3.org/2000/svg" xmlns:xlink="http://www.w3.org/1999/xlink" x="0px" y="0px"
	 viewBox="0 0 841.9 595.3" style="enable-background:new 0 0 841.9 595.3;" xml:space="preserve">
<style type="text/css">
	.st0{fill-rule:evenodd;clip-rule:evenodd;fill:#DB9035;}
	.st1{fill-rule:evenodd;clip-rule:evenodd;fill:#DDC98A;}
	.st2{fill:#E08F3C;}
	.st3{fill-rule:evenodd;clip-rule:evenodd;fill:#151515;}
	.st4{fill-rule:evenodd;clip-rule:evenodd;fill:#E08F3B;}
	.st5{fill-rule:evenodd;clip-rule:evenodd;fill:#8A6F42;}
	.st6{fill-rule:evenodd;clip-rule:evenodd;fill:#475157;}
	.st7{fill-rule:evenodd;clip-rule:evenodd;fill:#A39062;}
	.st8{fill:#475157;}
	.st9{fill:#9F5E2F;}
	.st10{fill-rule:evenodd;clip-rule:evenodd;fill:#FFFFFF;}
	.st11{fill-rule:evenodd;clip-rule:evenodd;fill:#9F5E2F;}
	.st12{fill:#9E5D2F;}
	.st13{fill:#151515;}
	.st14{fill:none;stroke:#69CCE2;stroke-width:1.000000e-02;stroke-miterlimit:10;}
</style>
<g id="XMLID_166_">
	<polygon id="XMLID_2400_" class="st0" points="503.8,351 503.8,351 503.8,339 316.7,339 321.2,341.7 333.1,350.6 496.7,351 	"/>
	<path id="XMLID_2399_" class="st1" d="M374.9,392.3h85.3v104.9h-7.8V493l-1.8,0.1l-0.1-4.4c-0.2-0.5-3,0.3-3.1-0.2
		c-0.1-27.7-22.1-29.5-28.7-46.1c-8.2,16.1-29,13.5-29.8,45.7c0,1.7-2.3,0-3.3,1.4l0.1,3.4l-2.1,0.7l0,3.5l-8.8,0V392.3z"/>
	<polygon id="XMLID_2398_" class="st2" points="494,383.1 494,383.3 494,383.3 491.3,388.7 491.3,530 463.6,538.3 463.6,390.9 
		373.1,390.9 373.1,538.8 333.7,530.3 333.7,358.1 487.2,358.1 487.2,370.1 493.3,381.6 	"/>
	<path id="XMLID_2397_" class="st3" d="M426.6,365.4c0,1.1-0.3,2.3-0.7,3.4c-0.6,1.5-1.4,2.2-2.4,2.2c-1.3,0-2.2-0.4-2.9-1.1
		c-0.7,1.1-1.9,1.9-3.7,2.2c1,3.2,1.5,5.9,1.4,8.2c-0.1,2.7-0.3,4-0.6,4c-0.2,0-0.4-0.8-0.7-2.5c-0.4-2.3-1-4.5-1.8-6.4
		c-0.7-1.6-1.6-3.2-2.6-4.9c-0.8-1.3-1.2-2.1-1.2-2.2c0-0.3,0.2-1,0.6-1.9c0.4-0.9,0.7-1.4,0.9-1.4c0.2,0,0.5,0.4,1,1.1
		c1.1,1.6,2.3,2.4,3.4,2.4c1,0,1.7-0.3,2.2-0.9c0.3-0.3,0.5-0.9,0.7-1.7c0.1-0.6,0.3-0.9,0.5-0.9c0.2,0,0.6,0.4,1,1.4
		c0.4,0.9,1.1,1.4,1.9,1.4c1,0,1.8-0.9,2.4-2.6c0.1-0.4,0.3-0.6,0.4-0.6C426.6,364.4,426.6,364.7,426.6,365.4"/>
	<path id="XMLID_2396_" class="st3" d="M445.2,381.4c0,0.4-0.2,1.1-0.5,2.1c-0.3,1-0.5,1.5-0.6,1.5c-0.3,0-1.1-0.8-2.1-2.3
		c-1.4-2-2.5-4.4-3.4-7.2c-0.3-0.4-0.7-1.9-1.4-4.3c-0.9,2.4-2.2,5.2-3.9,8.3c-1.5,2.9-2.7,4.8-3.5,5.8c0,0.1-0.1,0.1-0.2,0.1
		c-0.4,0-0.4-1,0-3.1c0-0.1,0.5-1,1.6-2.7c2.7-4.6,4.8-9.4,6.3-14.6c0.1-0.3,0.2-0.4,0.4-0.4c0.2,0,0.3,0.2,0.3,0.5
		c0.2,1.1,0.4,2.4,0.8,3.8c0.8,3,2,6,3.7,9c0.7,1.3,1.3,2.3,1.9,3C445.1,381.1,445.2,381.4,445.2,381.4"/>
	<path id="XMLID_2392_" class="st3" d="M386.8,371.8c-0.2-1.5,0-2.5,0.7-3.1c0.5-0.4,1.1-0.6,1.8-0.5c0.6,0.1,1.3,0.4,2.1,0.9
		c2.6,1.9,4.2,4,4.9,6.3c0.1,0.2,0.1,0.3,0,0.6c-0.1,0.7-0.5,1.6-1.1,2.5c-0.6,0.9-1.1,1.4-1.6,1.3c-0.2,0-1.5-0.3-3.9-0.9
		c-2.3,2.9-4.7,5.1-9.7,3.6c3-1.1,3.3-0.3,8.3-4.1c-2.1-0.8-3.1-1.9-2.9-3.4C385.5,373.9,386,372.8,386.8,371.8 M389.8,376
		c0.3-0.7,0.4-1.4,0.3-2.2c-0.1-0.9-0.4-1.4-1-1.4c-0.3,0-0.8,0.2-1.4,0.6c-0.6,0.5-0.9,0.9-1,1.1
		C386.7,374.8,387.7,375.4,389.8,376z M394.5,376.6c-0.4-1.4-1.4-2.5-2.8-3.3c-0.2,1.3-0.4,2.3-0.8,3.1c0.2,0.1,1.3,0.4,3.3,0.9
		c0.1,0,0.2,0,0.2,0C394.6,377.2,394.6,377,394.5,376.6z"/>
	<path id="XMLID_2391_" class="st3" d="M456.5,380.9c-0.6,2.7-1,4.1-1.3,4c-0.2,0-0.3-0.9-0.2-2.7c0.1-2.5-0.1-4.7-0.6-6.9
		c-0.4-1.7-0.9-3.5-1.6-5.4c-0.6-1.5-0.9-2.3-0.8-2.5c0.1-0.3,0.4-1,1-1.9c0.6-0.9,0.9-1.3,1.1-1.3c0.7,0.1,1.4,1.9,2.2,5.4
		C457.2,373.8,457.2,377.5,456.5,380.9"/>
	<path id="XMLID_2390_" class="st3" d="M404,380.9c-0.6,2.7-1,4.1-1.3,4c-0.2,0-0.3-0.9-0.2-2.7c0.1-2.5-0.1-4.7-0.6-6.9
		c-0.4-1.7-0.9-3.5-1.6-5.4c-0.6-1.5-0.9-2.3-0.8-2.5c0.1-0.3,0.4-1,1-1.9c0.6-0.9,0.9-1.3,1.1-1.3c0.7,0.1,1.4,1.9,2.2,5.4
		C404.7,373.8,404.7,377.5,404,380.9"/>
	<path id="XMLID_2387_" class="st4" d="M495.2,396"/>
	<path id="XMLID_2376_" class="st5" d="M421.5,318.9c-7.8-5.2-21.8-3.6-32.2-4.1c-6.7-0.5-5.2-2.6-5.7-7.2l-3.1-55.2
		c10.9,7.2,30.1-9.8,40.5,5.7L421.5,318.9z M460.4,314.3c-11.4,7.7-25.4-3.6-37.3,4.6l-0.5-60.9c5.7-15,28.5-1.5,38.4-4.1v9.3
		L460.4,314.3z M417.3,322c-1,0.5-6.7,2.6-8.8,3.1c-3.1-3.6-19.2-3.6-25.4-3.6l5.2-3.6C390.8,317.9,413.7,316.8,417.3,322z
		 M429.8,319.9c10.4-4.1,23.3,3.6,33.2,4.1c-6.2,3.6-25.4-2.1-32.2,2.1C430.8,324.6,430.3,322,429.8,319.9z M418.9,327.7
		c0-1.5,1.6-4.6,3.1-4.6c1.6,0,3.1,1.5,3.1,4.6C424.6,328.7,419.9,329.2,418.9,327.7z M387,259.6c10.5,4.4,25.4-4.7,28.8,3.6l1,47.5
		c-5.5-2.9-27.3,2.1-27.6-3.7C388.4,291.1,387,275.4,387,259.6z M457.2,305.5l0.5-48c-8.3,5.7-21.8-2.1-29.6,1
		c-1,0.5-3.1,2.6-3.1,5.7c0,14.4,0.5,31,0.5,44.4v4.1C432.3,311.2,457.2,316.8,457.2,305.5z M455.7,260.6v3.6l-0.5,41.8
		c0,5.2-26.5,4.6-27,4.1c0-14.4-1-31-1-45.9c0-1.5,0.5-3.1,1.6-3.6C434.9,257.5,448.4,264.7,455.7,260.6z M418.9,312.2l-1.3-50
		c-5.6-11.6-20,1.1-32.5-5.7c0,3.6,1.6,39.8,2.1,50.5c0.5,10.8,22.6,0.8,29.8,7C418.3,315.1,418.9,313.2,418.9,312.2z M428,330.6
		h-12.4c-5.6-6.4-35.2-2.4-42.4-8.1l-3.6-63.4l2.1-3.6c1,6.2,6.7,0,8.3-5.7c10.9,8.3,32.2-10.8,42,6.7c4.7-17.5,32.2,0.5,40.5-6.2
		c0,11.9,6.2,13.9,6.2,6.2h2.6l-1.6,63.4c0,1.5,0,3.1-0.5,4.1C465.2,330,431.9,325,428,330.6z"/>
	<path id="XMLID_2373_" class="st6" d="M443.5,132.9c-0.2-0.6-0.5-1.1-0.8-1.4c-0.2-0.2-0.2-0.4-0.1-0.7l0.9-2.6
		c0.2-0.5,0.4-0.8,0.6-0.7c0.2,0,0.4,0.2,0.6,0.6c0.7,1.1,7.1,9.6,6.9,10.2c0,0.1-3.1-1.7-3.5-1.9c0.2,0.8,0.1,0.5,2.7,5.1
		c4.7,8.4,7.4,13.3,8.2,14.7c3.6,6.6,4.8,11.9,3.7,15.8c-0.1,0.4-0.3,0.8-0.4,1.1c-1.1,2.3-1.8,3.4-1.9,3.4c-0.1,0,0-1.1,0.4-3.1
		c0.3-1.7,0.1-4-0.7-6.9c-0.8-2.8-1.9-5.5-3.4-8c-5.8-9.7-9.7-16.9-11.7-21.5c-0.4-0.9-0.7-1.7-0.9-2.6
		C443.8,134,443.6,133.5,443.5,132.9"/>
	<path id="XMLID_2372_" class="st6" d="M470.1,139c0.2-0.6,0.2-1.3,0.1-2.1c-0.1-0.8-0.1-1.3-0.1-1.4c0-0.1,0.3-0.7,0.9-1.6
		c0.6-0.9,0.9-1.4,0.9-1.5c0.2-0.2,0.3-0.4,0.4-0.3c0.1,0,0.2,0.2,0.2,0.4c0.2,0.7,0.5,2.1,0.9,4.2c0.4,2.3,0.7,3.9,0.7,4.6
		c0,0.5,0.2,2.4,0.1,2.6c-0.2-0.3-0.9-1.7-1.8-3.2c-0.3-0.6-2.4,13.1-2.6,14.3c-1.2,8-1.8,13.1-2.4,15.3c-1.3,4.7-3.5,8.6-6.6,11.1
		c-2.4,2-5,2.9-7.6,3.3c-1,0.2-2.6,0.3-4.9,0.3c-2.3,0-4-0.1-5-0.3c-0.4-0.1-2.5-0.2-2.5-0.3c0-0.1,2.2-0.2,2.7-0.4
		c2.3-0.6,6-1.6,11.1-3.1c1.6-0.5,3.4-1.4,5.2-2.5c2.4-1.5,3.7-2.9,4.1-4.3c0.8-2.8,1.7-9,3.1-18.7
		C468.6,145.7,469.8,140.2,470.1,139"/>
	<path id="XMLID_2369_" class="st6" d="M437,176c-2.3-0.3-3.9-1.2-4.9-2.6c-0.6-0.9-0.9-2.2-1-3.9c0-0.2-0.1-0.3-0.3-0.3
		c-0.3,0-0.6,0.1-0.8,0.4c-1.7,1.8-2.8,2.9-3.3,3.3c-3,2.2-10.4,3.6-12.8-0.6c-0.7-1.2-1.2-3.2-1.5-5.9c-0.9,4.4-1.7,7.2-2.6,8.4
		c-1.9,2.7-4.1,4.6-6.6,5.8c-1,0.4-2.6,1-5,1.6c-2.4,0.6-4.1,1-5.2,1.1c-0.4,0-0.7,0-0.7-0.1c0-0.1,0.2-0.3,0.7-0.6
		c2.2-1.2,5.7-3.3,10.6-6.3c5.4-3.5,8.1-8.7,8.1-15.6c0-8.9-0.4-16.7-1.2-23.4c-0.2-2.2-0.7-5.3-1.4-9.3c0.4-2.3,0.6-3.7,0.8-4.2
		c0.1-0.3,0.2-0.5,0.3-0.5c0.1,0,0.2,0.2,0.3,0.5c1.1,3.4,1.9,7.8,2.6,13.1c0.4,3.5,0.8,9,1,16.5c0.2,6.7,0.8,10.9,1.2,12.5
		c0.4,1.9,1.1,2.5,1.9,3.1c2,1.6,7.4,0.5,9.1-0.5c0.8-0.4,2.5-1.9,5.2-4.2c0.3-0.3,0.6-0.4,0.9-0.4c0.5,0.1,0.6,0.4,0.4,1
		c-0.2,0.6-0.3,1.2-0.3,1.7c0,1.2,0.6,2.2,1.6,3c1,0.7,2.2,1.2,3.8,1.4c2.2,0.3,4-0.4,5.4-2.1c0.9-1.2,1.7-2.5,2.6-3.8
		c0.3-0.3,0.6-0.5,0.8-0.4c0.2,0,0.4,0.2,0.4,0.6c0,0.2,0,0.3-0.1,0.5c-0.3,1.4-0.5,2.1-0.5,2c0,0.6,0.4,1.3,1.1,2
		c0.8,0.7,1.7,1.2,2.7,1.3c1.2,0.1,2-0.1,2.3-0.7c0-0.1-0.2-0.4-0.5-0.7c-0.4-0.4-0.5-0.6-0.5-0.8c0-0.2,0.3-1.4,1-3.6
		c0.1-0.4,0.2-0.5,0.4-0.5c0.3,0,0.7,0.6,1,1.5c0.3,0.9,0.5,1.5,0.5,1.9c0.1,2.2-0.3,4-1.2,5.4c-1,1.7-2.6,2.5-4.7,2.2
		c-1.5-0.2-2.9-1.5-4.3-3.9C442.5,175,440.1,176.4,437,176 M408.1,171.2c-0.6-7.4-4.2-12-8.4-17.9c-6.1-8.7-12.5-11.3-17.2-19.2
		c-0.4-0.6-0.8-1.1-1.2-1.4c-0.2-0.2-0.3-0.4-0.3-0.8l0.2-3.2c0-0.6,0.2-0.9,0.4-0.9c0.2,0,0.4,0.2,0.8,0.5l5.8,5.1
		c0.4,0.4,0.7,0.7,0.7,0.8c0,0.1-0.1,0.2-0.4,0.2c-0.5,0-1.4-0.2-2.7-0.6c1.5,2.4,5.9,4.7,15.9,16.3c5,5.9,7.6,10.8,7.6,14.8
		C409.3,166.1,408.4,170.7,408.1,171.2z"/>
	<path id="XMLID_2336_" class="st6" d="M398.6,162c-0.4-1.5-1-2.9-1.8-4c-1.1-1.5-2.3-2.1-3.7-1.8c-1.1,0.3-2.1,1.1-3,2.6
		c-0.6,1-1.1,2-1.3,3c-0.3,0.1-0.5,0.6-0.7,1.5c-0.4,1.8-0.6,3-0.7,3.3c-0.3,1.3-1.2,1.9-2.6,3c-1.9,1.4-6,3.3-6.9-0.4
		c-0.1-0.5-0.2-1-0.1-1.6c0-0.2,0-0.4,0-0.5c-0.1-0.3-0.2-0.4-0.4-0.4c-0.1,0-0.5,0.8-1.3,2.2c-0.9,1.6-1.4,2.5-1.5,2.7
		c-2.4,3.1-6.2,3.6-9.3,1.5c-0.9-0.6-1.8-0.9-2.7-1.5c-1-0.7-2.2-1.5-2.9-1.2c-1,0.4-1.9,1.4-2.6,3.1c-0.8,1.7-1,4.1-1.2,6.1
		c-0.2,2.4-0.3,4.8-0.4,7.2c-0.3,2.1-0.9,3.3-2,3.7c-2.4,0.9-4.6-0.8-6.7-5.3c1.3-1,2-2.8,1.6-5.2c-0.3-1.7-1.3-3.6-3-6
		c-1.2-1.6-2.3-2.8-3.5-3.6c-0.8-0.6-2-1.2-3.5-1.9c-0.5-0.2-0.7-0.1-0.6,0.4c0.6,1.5,1.2,2.8,1.8,4.1c0.1,0.2,0.3,0.4,0.6,0.5
		c2.8,1.3,4.4,2.2,4.8,2.9c0.6,2.1-1.2,4.5-3.3,4.5c-1.5,0-3.2-1-5.2-3c-0.7-0.7-2.2-2.6-4.6-5.8c-2.7-3.6-5.3-6.7-7.6-9.3
		c-2.9-3.2-5.3-5.6-7.3-7.1c-1.9-1.5-3.1-2-3.7-1.6c0.5,2.3,2.2,7,3.3,10.9c0.2-1-0.6-4.4-1-6c0.3-0.2,1.1,0.4,2.6,1.6
		c1.7,1.4,3.8,3.5,6.2,6.3c3.2,3.6,5.8,6.7,7.6,9.1c2.4,3.2,4.1,5.2,5,6.2c1.6,1.6,3.2,2.7,4.6,3.3c1.5,0.6,2.9,0.7,4,0.4
		c0.9,2.2,2.2,4.2,4,6c2,2,4,3.1,5.5,2.5c1-0.4,1.8-1.5,2.2-3.2c0.3-1.1,0.2-3.2,0.2-5.5c0-2.3,0.1-3.8,0.2-4.4
		c0.7-3.3,1.8-5.3,3.4-5.9c0.5-0.2,1.2,0,2,0.6c4,3.2,7.9,6,11.9,0.4c0.9-1.3,1.5-2.5,1.8-3.6c0.6,1.6,1.6,2.7,2.9,3.2
		c2.9,1.1,5.2-0.3,7-3c1.2-1.8,1.9-3.8,2.2-6.2c3.2,1.4,6.1,1.8,8.8,1.2c0.5-0.1,0.9-0.8,1.1-2C399,164.8,398.9,163.4,398.6,162z
		 M395.8,163.7c-0.1,0-0.3,0-0.6,0c-1.8-0.1-3.4-0.4-4.8-1c-0.1-0.3,0-0.5,0.3-0.9c0.4-0.4,0.9-0.7,1.7-0.9c0.5-0.1,1.1,0,1.8,0.3
		c0.6,0.4,1.1,0.8,1.5,1.4c0.1,0.2,0.2,0.4,0.2,0.6C396.1,163.5,396,163.6,395.8,163.7z"/>
	<path id="XMLID_2358_" class="st6" d="M286.2,239.9c0.3-1.2,0-2.3-0.9-3.3c-0.9-1-2.2-1.8-3.9-2.2c-2-0.6-3.8-0.6-5.2-0.1
		c-1.4,0.5-2.4,1.4-2.7,2.7c-0.5,1.7-0.6,3.3-0.5,5c-4.3-0.5-2.7-0.3-10.5-2c-5.8-1.3-8.5-1.9-8.4-1.8c-0.5-0.1-0.5-0.2-0.2-0.3
		c2.1-1,2.8-1.6,2-1.8c-0.2-0.1-0.6-0.1-1.1-0.1c-0.7,0-2.6,0.2-5.7,0.5c-2.9,0.3-4.7,0.5-5.4,0.6c-0.3,0.1-0.5,0.1-0.5,0.2
		c0,0.1,0.1,0.2,0.3,0.4c2,1.6,3.3,2.5,3.9,2.6c1.2-0.2,2.7-0.1,4.3,0.3c1.2,0.3,4.3,1,9.4,2.2c7.9,1.7,6.9,1.5,12.3,2.1l0.1,0.8
		c0.5,2.9,2,5.9-1.3,7.7c-1,0.5-1.9,0.7-2.7,0.4c-0.2-0.1-0.6-0.2-1-0.4c-0.5-0.2-0.8-0.3-1-0.4c-0.4-0.1-0.6,0-0.7,0.2
		c0,0.2,0,0.5,0.1,0.9c0.9,2.6,2,6.4,2.4,8.6c-2,0.1-3.7,0.4-5.3,1c-1.7,0.6-2.8,1.4-3.2,2.4c-0.6,1.3-0.4,2.8,0.5,4.6
		c1,1.9,2.5,3.2,4.4,4.1c2.6,1.1,4.7-0.3,6.3-4c0.7-1.7,1.1-3.2,1.2-4.3c0.6,0,1.2,0.2,1.7,0.4c0.7,0.3,1.7,2,2.9,5.1
		c1.3,3.4,2.2,6.9,2.7,10.2c0.6,4.1,0.4,7.4-0.6,9.8c-1.1,2.7-2.8,4.3-5,4.8c-0.3,0.1-0.5,0.1-0.8,0.1c-0.5-2.4-0.8-3.7-0.8-3.9
		c0-0.8-1.3-3.2-3.8-7c-2.9-4.5-5.9-8-8.8-10.6c-0.7-0.6-1.9-1.1-3.4-1.5c-1.2-0.3-2.3-0.4-3.2-0.4c-1.8,0.1-3.8,0.6-6.1,1.6
		c-1.4,0.6-2.9,1.3-4.3,2c0.2-1.1,0.4-1.7,0.4-2c0-0.2-0.1-0.3-0.2-0.3c-0.2,0-0.6,0.3-1.1,0.9c-1.4,1.5-2.8,2.8-4.1,4
		c-0.2,0.2-0.3,0.3-0.3,0.4c0,0.1,0.2,0.3,0.7,0.3c0.4,0.1,1.2,0.2,2.3,0.3c1.2,0.1,1.8,0.2,2,0.1c0.1,0,0.4-0.2,0.9-0.5
		c0.5-0.3,1.1-0.6,1.8-0.8c1.5-0.5,3.5-1.3,6-2.6c2.2-1.1,3.4-1.6,3.6-1.6c0.6,0,2.1,1.4,4.3,4.2c2.5,3.1,5,6.8,7.4,11
		c0.9,1.7,1.9,3.6,3,5.8c-0.1,0-0.2,0-0.2-0.1c-0.9-0.4-1.9-0.9-3.1-1.7c-0.4-0.6-0.8-1.1-1.2-1.5c-0.4-0.5-1.2-0.9-2.3-1.4
		c-0.4-0.2-0.8-0.3-1.1-0.5c-0.2-0.2-0.4-0.3-0.6-0.4c-0.1-0.1-0.2-0.1-0.3,0c0,0,0,0,0,0.1c-0.3-0.1-0.5-0.1-0.7-0.2
		c-1.9-0.3-3.4-0.3-4.8-0.1c-1.9,0.4-4.1,1.4-6.7,3c-2.3-2.3-4.2-4-5.5-5.2c-2.2-1.9-4.1-2.9-5.6-3.1c-1.3-0.2-1.9-0.2-1.9-0.1
		c0,0.2,0.4,0.5,1.4,1.1c1,0.6,2.6,2,4.9,4.1c2.8,2.5,4.3,4.1,4.7,4.6c-1.4,1.4-3.2,2.7-5.4,3.9c-0.5,0.3-0.9,0.5-0.9,0.5
		c-0.1,0,0-0.6,0.2-1.9c0.1-0.7,0.2-1,0-1l0,0c-0.1,0-0.3,0.2-0.8,0.5c-0.8,0.7-1.9,1.8-3.2,3.2c-1.4,1.4-2.1,2.2-2.1,2.4
		c0,0.2,0.5,0.4,1.5,0.8c1,0.4,2,0.6,2.8,0.8c0.5,0.1,1-0.1,1.6-0.4c0.9-0.6,1.5-1,1.8-1.2c3.2-1.5,5.8-3,7.9-4.4
		c2.6,2.4,4.7,4,6.3,5c1.9,1.1,4,1.8,6.3,2.2c3.3,0.5,5.2-0.4,5.7-2.7c0.3-1.4,0.1-3.2-0.7-5.4c-0.1-0.4-0.3-0.7-0.4-1
		c1,0.6,2.1,1.2,3.2,1.7c1.2,2.7,2.5,5.7,3.9,9.1c0.8,1.9,1.2,2.8,1.4,2.8c0.1,0,0.1-0.2,0.1-0.5c0-0.4-0.1-1.2-0.3-2.4
		c-0.2-1.1-0.8-3.7-1.7-7.9c1.5,0.3,3,0.3,4.4-0.1c2.6-0.6,4.4-2.2,5.5-4.8c1.3-3.1,1.3-7.4-0.1-12.9c-1-3.7-2.3-7.3-4.1-10.9
		c-0.8-1.5-1.9-2.9-3.5-4.3c-1.2-1-2.2-1.7-3.1-2.1c-0.3-1.9-1.3-5.4-2.1-7.8c0.4,0.1,0.8,0.2,1.2,0.3c1.4,0.4,2.7,0.3,3.9-0.4
		c4.1-2.4,2.5-6.9,1.5-10.7c1.5-0.3,3-0.8,4.4-1.6C284.6,242.9,285.8,241.5,286.2,239.9z M267.7,269.2c-0.8,1.9-1.7,2.7-2.6,2.3
		c-0.7-0.3-0.8-1.2-0.2-2.6c0.4-1,1.6-1.7,3.5-2.2C268.2,267.7,268,268.5,267.7,269.2z M264,301.3c-0.4,1.7-1.1,2.4-2.2,2.3
		c-0.8-0.1-2.3-1.1-4.4-2.9c-2-1.7-3.3-3-4-4c2.6-2.1,5.1-3.6,7.5-4.3c0.3,0,0.6,0.2,1,0.9c1,1.6,1.7,3.3,2,5.1
		C264.1,299.6,264.1,300.5,264,301.3z M281.1,238.3c-0.5,1.7-1.5,2.8-3.1,3.3c0.2-1.7,0.5-2.8,1-3.4c0.7-0.8,1.3-1.2,1.8-1.1
		C281.2,237.2,281.2,237.6,281.1,238.3z"/>
	<path id="XMLID_2348_" class="st6" d="M336.7,188.7c-1.2-1.6-2.4-2.6-3.8-3.1c-1.3-0.5-2.5-0.3-3.5,0.5c-1.5,1.2-2.6,2.6-3.5,4.2
		c-2.2-1.8-4.9-4.6-9.4-10.1c-3.5-4.3-5.2-6.3-5.1-6.2c-0.3-0.4-0.3-0.5,0-0.4c2.1,0.4,2.9,0.3,2.5-0.3c-0.1-0.2-0.4-0.4-0.8-0.8
		c-0.5-0.4-2-1.4-4.4-2.9c-2.3-1.4-3.8-2.3-4.3-2.6c-0.3-0.1-0.4-0.2-0.5-0.1c-0.1,0.1-0.1,0.2,0,0.5c0.6,2.4,1.1,3.8,1.4,4.3
		c1,0.5,2,1.4,3,2.7c0.7,0.9,2.6,3.3,5.7,7c4.8,5.8,7.8,8.6,10.7,11.1l-0.1,0.2c-1.3,2.5-1.5,8.1-4.7,8.9c-4.2,1.1-10-5.7-13.5-7.9
		c-5.9-3.8-11.3-5.9-16.1-6.4c-0.5,0-0.6,0.2-0.3,0.8c0.3,0.5,0.8,1.2,1.5,2.1c0.8,1,1.2,1.5,1.3,1.6c5.6,1.9,9.6,3.6,12,4.9
		c3.1,1.7,5.2,3.2,6.3,4.3c0.5,0.5,0.8,0.9,1,1.3c0,0,0.1,0.6,0.3,1.6c0.6,3.2,0.6,7-0.1,11.1c-0.8,5.4-2.4,9.5-5,12.4
		c-1.8,2-3.7,2-5.7,0.1c-0.8-0.8-1.8-2-2.9-3.6c0-0.8,0-1.6-0.1-2.6c-0.3-2.1-0.8-3.7-1.5-4.9c2,1,3.9,1.1,5.6,0.4
		c3.2-1.3,4.6-4.1,3.5-7.3c-0.8-2.2-2.6-4.2-5.3-6.1c-1.4-0.9-3.2-1.6-5.4-1.9c-0.7-0.1-1.1-0.1-1.2,0.1c-0.1,0.1,0,0.4,0.3,0.8
		c1.6,2,2.6,3,2.8,3.2c0.4,0.3,1,0.4,1.6,0.5c1.5,0,2.5,0.2,3,0.6c1.4,3.2-3.1,8.2-6.4,6c-0.5-0.3-1-0.8-1.5-1.4
		c-0.2-0.2-0.3-0.3-0.5-0.5c-0.3-0.2-0.5-0.2-0.7,0c-0.1,0.1,0.2,1.2,0.7,3.2c0.6,2.2,0.9,3.5,0.9,3.7c0.2,2.2-0.1,5.1-1.5,7
		c-2.3,3.1-7.5,0.1-8.8,3.2c-1.2,2.9,2.2,7.4,4,9.3c1.6,1.7,6,7,5.4,8.9c-0.7,1.9-5.6,2.3-9.6,0.7c-1.3-0.5-2.8-1.2-4.5-2.1
		c-0.7-0.4-1.1-0.5-1.2-0.3c-0.1,0.1,0.2,0.4,0.7,0.8c1.5,1.2,3.6,2.4,6.5,3.5c2.4,0.9,4.9,1.3,7.5,1.3c2.9-0.1,4.7-0.9,5.4-2.4
		c0.4-1,0.1-2.2-0.9-3.7c-1.9-2.6-4.3-4.7-6.2-7.3c-2-2.8-3.2-4.4-2.5-6c0.2-0.5,0.8-0.8,1.9-1c4.1-0.5,7.1-1.1,7.9-4.3
		c1.2,1.8,2.4,3.4,3.9,4.8c1.3,1.3,2.7,2,4,2.3c1.7,0.3,3.1-0.2,4.3-1.5c2.3-2.5,3.8-6.2,4.7-11.1c0.8-4.2,0.9-8.4,0.3-12.4
		c-0.3-2-1.1-4-2.6-6c2.9,2.1,5.1,5.4,8.9,4.6c5.1-1,4.4-6.7,5.9-10.5c1.3,0.7,2.7,1.1,4.1,1.3c2,0.2,3.6-0.2,4.8-1.2
		c0.9-0.7,1.3-1.8,1.2-3.1C338.2,191.3,337.7,190,336.7,188.7z M334.2,191.5c-1.3,1.1-2.7,1.4-4.1,0.8c1.1-1.2,1.9-1.9,2.7-2.1
		c1-0.3,1.6-0.2,1.9,0.2C334.9,190.7,334.7,191.1,334.2,191.5z"/>
	<path id="XMLID_2354_" class="st6" d="M261.5,220.7c-1.7-0.6-3.3-0.9-4.6-0.8c-0.6-0.2-1.9-1.3-3.9-3.2c-0.2-0.2-0.3-0.4-0.3-0.5
		c0-0.1,0.2-0.1,0.6-0.2c0.7-0.1,2.7-0.1,5.9-0.1c3.3,0,5.3,0,6.1,0.1c0.6,0.1,1,0.1,1.2,0.2c0.8,0.3,0,0.9-2.3,1.8
		c-0.3,0.1-0.2,0.2,0.3,0.4c6.1,2.3-0.9-0.4,5.1,1.9c4.2,1.6,10.9,3.9,13.6,6.4c0.6,0.5,1,0.9,1.2,1.2c0.3,0.4,0.3,0.6,0,0.5
		c-0.3-0.1-1-0.3-2-0.8c-1.4-0.7-3.2-0.9-5.2-1.6C268.6,222.7,270.1,223.9,261.5,220.7"/>
	<path id="XMLID_2353_" class="st6" d="M485.6,150.1c0.5-1.8,0.5-3.1,0.3-4.4c0.2-0.6,1.4-2.9,3.2-5c0.2-0.3,0.4-0.4,0.5-0.3
		c0.1,0,0.2,0.2,0.2,0.6c0.1,0.7,0.2,3.4,0.4,6.5c0.2,3.1,0.6,6.2-0.1,9.3c-0.2-0.3-0.5-1.5-1.6-4.2c-0.1-0.3-0.2-0.2-0.4,0.3
		c-1.9,6.2,0.3-1-1.6,5.2c-2.4,7.9-3.2,18.1-9.2,24.1c-0.4,0.3-0.6,0.3-0.5,0c0.8-1.5,2.5-6.2,3-8
		C482.4,165.5,482.8,158.9,485.6,150.1"/>
	<path id="XMLID_2349_" class="st6" d="M593.8,297.2c1.7-0.4,3-1.1,3.9-1.9c0.6-0.2,2.2,0,4.7,0.5c0.3,0.1,0.5,0.1,0.5,0.2
		c0,0.1-0.1,0.3-0.4,0.5c-0.5,0.5-2,1.6-4.4,3.4c-2.5,1.9-4.1,3-4.7,3.4c-0.5,0.3-0.8,0.4-1,0.5c-0.8,0.2-0.5-0.7,0.8-2.8
		c0.2-0.3,0.1-0.3-0.4-0.2c-0.2,0-4.8,1.7-14.1,5c-9.2,3.3-14.5,5.1-15.8,5.4c-4.1,1-7.8,1.3-11.2,0.7c-0.7-0.1-1.2-0.2-1.5-0.3
		c-0.5-0.2-0.6-0.3-0.3-0.5c0.3-0.2,1-0.3,2-0.4c1.4-0.2,3.1-0.5,4.9-1c1.6-0.4,7.8-2.5,18.6-6.3
		C586.3,299.7,592.4,297.6,593.8,297.2"/>
	<path id="XMLID_2238_" class="st6" d="M599.3,281.6c-2.2-0.5-3.6-0.8-4.1-0.6c-0.9,0.8-2.1,1.5-3.7,1.9c-1.7,0.4-7.1,2.3-16.4,5.6
		c-9.3,3.3-14.5,5.1-15.9,5.5c-2.2,0.6-3.5,0.7-3.9,0.2c-1.7-1.8-3-5.5-2.7-8.1c0.3-2.7,2.4-4.3,7-5.3c0.9,2,2,5,1.9,6.8
		c0.9,0.3,5,1.3,6.2,1.4c-2-7.6-2.7-9.5-2.3-19.1c0.2-7.3-5.5-11.5-12-10.3c0-3.3,1.2-4.5,4.2-6c0.8-0.4,3-1.7,6.8-3
		c4.3-1.4,8-2.8,11.2-4.2c3.9-1.7,6.9-3.3,9-4.7c1.9-1.4,3-2.6,2.8-3.4l-4.5,0.1c0.1,0.3-1.8,1.6-3.4,2.6c-1.9,1.2-4.5,2.5-7.9,3.9
		c-4.5,1.9-8.1,3.3-10.9,4.3c-3.8,1.2-6.3,2.2-7.4,2.8c-3,1.5-4.4,3.8-5.1,5.7c-0.7,2.8-1.5,7.6,5.4,15.2c2.7,2.9,4.4,4.9,5.2,6.1
		c0.2,0.2,0.4,0.7,0.7,1.2c-8.4,0-11.2,2.7-11.7,5.8c-0.5,3.6,1.1,8,4.5,9.6c2.8,1.3,6.6,1.4,11.1,0.2c1.6-0.4,6.4-2.1,14.6-5
		c8.1-2.9,12.3-4.4,12.4-4.4c0.4-0.1,0.5,0,0.3,0.2c-1.3,2.1-1.7,3-1,2.8c0.2-0.1,0.5-0.2,1-0.4c0.6-0.4,2-1.5,4.4-3.3
		c2.3-1.8,3.7-2.9,4.2-3.3c0.3-0.2,0.4-0.4,0.4-0.5C599.7,281.7,599.5,281.6,599.3,281.6z M553.2,262c4.4-2.1,9.7,6.8,7.6,13.4
		C557.7,270.5,554.2,268.4,553.2,262z"/>
	<path id="XMLID_2583_" class="st6" d="M558.3,238.8c-0.4-1.1-1.5-2-3.2-2.8c-1.2-0.5-2.3-0.8-3.5-1c-0.2-0.3-0.8-0.4-1.7-0.5
		c-7.7-0.5-11.9-9.7-11.3-16.7c3,1.5,5.3,2.8,7,3.7l3.6-0.7c0.5-0.1,0.8-0.2,0.9-0.3c0.2-0.1,0.2-0.7,0.2-1.6
		c-0.1-3.7-1.8-7.6-5-11.6c-1.6-2-3.6-4-6-5.9c-2.4-1.9-4-2.8-4.7-2.6l-4.2,1.1c-0.3,0.1-0.5,0.1-0.6,0.2c-0.2,0.2-0.2,0.3-0.1,0.5
		c0.1,0.1,0.3,0.2,0.5,0.3c0.8,0.3,1.5,0.9,2.4,2c0.3,0.3,0.5,0.8,0.7,1.5l1.7,0.2v5.7l-2.8,4.4c0.3,0.2,0.7,0.3,1.1,0.5
		c0,1-0.1,1.9-0.1,2.8c-0.3,8.1,4.4,14.5,6.7,15.6c2.1,1,3.6,1.9,6.2,1.9c-1.1,3.6-1.1,6.8,0,9.5c0.2,0.5,1,0.8,2.3,0.9
		c1.3,0,2.7-0.2,4.2-0.8c1.6-0.6,3-1.4,4-2.5C558.4,241.5,558.8,240.1,558.3,238.8z M538.8,207.8c0.7,0.5,1.3,1.3,2,2.1
		c1.9,2.4,2.9,4.2,3,5.5c-2-1-3.7-1.8-5-2.5C538.9,211.7,539,210,538.8,207.8z M553.1,240.7c-0.3,0.7-0.7,1.3-1.3,1.8
		c-0.2,0.2-0.4,0.3-0.6,0.3c-0.2,0.1-0.4,0-0.5-0.2c-0.1-0.2-0.1-0.3-0.1-0.6c-0.1-1.9,0-3.6,0.5-5.2c0.3-0.1,0.6,0,1,0.2
		c0.5,0.3,0.9,0.9,1.2,1.7C553.4,239.4,553.4,240,553.1,240.7z"/>
	<path id="XMLID_2340_" class="st6" d="M275.4,211.5c1.7-7.5,3.5-15.4,5.4-23.8c0.1-0.4,0.2-0.7,0.3-0.7c0.1,0,0.3,0.1,0.5,0.5
		c0.6,1.1,0.9,1.8,1,2.2c-1.6,7-3.3,15.4-5.1,25.1C276.7,213.8,276.1,212.7,275.4,211.5"/>
	<path id="XMLID_2339_" class="st6" d="M248.2,254.9c-0.6-4.1-1.2-8.5-1.9-13.1c0-0.2,0-0.4,0-0.4c0.1,0,0.3,0,0.5,0.1
		c0.8,0.4,1.3,0.7,1.5,0.9c0.5,3.9,1.3,8.4,2.5,13.7C250,255.8,249.1,255.4,248.2,254.9"/>
	<path id="XMLID_2338_" class="st6" d="M379.4,183l0.8-3.4c0.1-0.3,0.2-0.4,0.3-0.4c0.2,0,1.2,0.3,2.9,1c1.7,0.7,2.6,1.1,2.7,1.3
		c0.1,0.7-0.2,2.2-1.1,4.6c-0.1,0.3-0.3,0.4-0.5,0.3c-1.5-0.7-3.2-1.4-5.1-2.1c-0.3,1.4-0.6,2.5-0.9,3.5c-0.1,0.3-0.2,0.4-0.5,0.3
		c-1.7-0.8-3.5-1.5-5.3-2.2c-0.1,0-0.1-0.2-0.1-0.4l1.1-4.3c0.1-0.3,0.2-0.4,0.3-0.4c0.2,0,1,0.2,2.4,0.8
		C378,182.3,378.9,182.7,379.4,183"/>
	<path id="XMLID_2337_" class="st6" d="M468.2,136.4c-0.5,1-0.8,1.8-1.3,2c-3.7,1.6-7,3-10.1,5.1c0.4-2.6,1.8-3.8,2-3.9
		c-1.8-1-2.6-2-2.4-3c0.2-1.1,0.9-2.2,2.1-3.3c2.3-2,4.1-2.9,5.4-2.7c1.2,0.2,1.6,0.9,1.4,2.2c-0.1,0.7-0.6,1.5-1.4,2.5
		c-0.2,0.2-0.3,0.2-0.4-0.2c-0.2-0.8-0.6-1.3-1.2-1.4c-0.5-0.1-1.1,0.1-1.8,0.4c-0.7,0.3-1.1,0.7-1.2,1c-0.1,0.4,0.3,0.9,1,1.4
		c0.7,0.5,1.3,0.9,1.8,0.9c0.4,0.1,1.3-0.1,2.4-0.6c0.8-0.4,1.7-0.7,2.5-1.1c0.7-0.2,1.1-0.3,1.2-0.2
		C468.4,135.7,468.3,135.9,468.2,136.4"/>
	<path id="XMLID_2335_" class="st6" d="M589.8,245.7c0.4,1.4,0,2.8-1.2,4.4c-1.3,1.6-3.1,3-5.6,4.3c-0.3,0.1-0.4,0.2-0.5,0.2
		c0,0.1,0,0.1,0,0.1c0.1,0,0.2,0,0.5,0c1.6-0.3,4.1-0.5,7.5-0.7c2.5,0.2,3.9,0.8,4.3,1.9c0.2,0.6,0,1.2-0.6,2
		c-0.5,0.7-0.9,1.1-1.4,1.2c-0.3,0.1-0.7,0.1-1.3,0.1c-0.8,0-1.2-0.1-1.3-0.4c0-0.1,0.1-0.5,0.5-1.1c0.4-0.6,0.5-1.1,0.4-1.5
		c-0.3-1-2.9-1.1-7.8-0.4c-2.1,0.3-3.7,0.3-4.6,0.2c-0.7-0.1-1-0.3-1.1-0.5c-0.1-0.2,0.2-0.4,0.7-0.5c0.8-0.3,2.2-1.2,4.2-2.9
		c2-1.7,3-2.7,2.8-3.1c-0.1-0.3-0.2-0.4-0.4-0.4c-0.2,0-0.4-0.2-0.5-0.6c-0.1-0.4,0-1,0.4-1.9c0.4-0.9,0.8-1.4,1.1-1.5
		c0.2-0.1,0.8,0,1.9,0.3C589.2,245.4,589.8,245.6,589.8,245.7"/>
	<path id="XMLID_2334_" class="st6" d="M548.6,228.2c-0.5-0.1-0.8-0.2-0.8-0.4c0-0.2,0.3-0.3,0.9-0.3c0.6,0,1.3-0.1,2.1-0.2
		c2.8-0.6,5.2-2.7,7.3-6.3c0.1-0.2,0.3-0.3,0.6-0.2l1.7,0.6c0.2,0.1,0.2,0.2,0.1,0.4c-1.6,3.5-4.4,5.7-8.4,6.5
		C551,228.4,549.8,228.4,548.6,228.2"/>
	<path id="XMLID_2332_" class="st6" d="M478.9,151.7c-0.5,0.3-0.7,0.4-0.9,0.3c-0.2-0.1,0-0.4,0.4-0.9c0.4-0.4,0.9-1,1.4-1.8
		c1.6-2.5,1.8-5.8,0.5-10.1c-0.1-0.3,0-0.5,0.3-0.6l1.7-0.9c0.2-0.1,0.3,0,0.3,0.2c1.5,3.8,1.1,7.4-1.2,11
		C480.7,150,479.9,150.9,478.9,151.7"/>
	<path id="XMLID_2331_" class="st6" d="M438,146.4c-0.3,0.3-0.5,0.5-0.6,0.4c-0.2,0-0.1-0.3,0.2-0.8c0.2-0.4,0.4-0.9,0.7-1.6
		c0.7-2.2,0.1-4.8-1.7-7.7c-0.1-0.2-0.1-0.4,0.1-0.5l1.1-1c0.1-0.1,0.2-0.1,0.3,0.1c1.9,2.6,2.3,5.4,1.4,8.5
		C439.1,144.8,438.6,145.6,438,146.4"/>
	<path id="XMLID_2330_" class="st6" d="M407.3,152.3c-0.1,0.4-0.3,0.7-0.4,0.7c-0.2,0-0.2-0.3-0.2-0.8c0.1-0.5,0.1-1.1,0-1.9
		c-0.2-2.4-1.8-4.8-4.8-7c-0.2-0.1-0.2-0.3-0.1-0.6l0.7-1.5c0.1-0.1,0.2-0.1,0.3,0c2.9,1.8,4.5,4.4,4.8,7.9
		C407.7,150.2,407.6,151.2,407.3,152.3"/>
	<path id="XMLID_2283_" class="st6" d="M379.2,136.5c0-0.3-0.1-0.5-0.2-0.5c-0.1,0-0.2,0.1-0.5,0.4c-3.1,3.2-6.1,6.2-9,9.1
		c0.1-0.7,0.1-1.4,0-2.2c-0.4-4.8-2.6-8.4-6.6-10.9c-0.2-0.2-0.4-0.1-0.5,0l-0.9,2c-0.1,0.3-0.1,0.6,0.2,0.8c4.1,3,6.3,6.2,6.6,9.6
		c0.1,0.7,0.1,1.3,0.1,1.8c-1.2,1.3-2.5,2.5-3.7,3.7c0.1,1.2,0.2,2.2,0.4,3.2c5.3-5.9,10-10.9,14.1-15
		C379.3,138.2,379.3,137.6,379.2,136.5z"/>
	<path id="XMLID_2328_" class="st6" d="M315.3,193.4c0.1,0.6,0.1,0.9-0.1,1c-0.2,0.1-0.4-0.1-0.6-0.8c-0.2-0.6-0.5-1.2-1-2
		c-1.6-2.6-4.6-4.2-9.1-5c-0.3-0.1-0.4-0.2-0.5-0.6l-0.1-2c0-0.2,0.1-0.2,0.4-0.2c4.2,0.4,7.4,2.4,9.6,6
		C314.6,191,315,192.2,315.3,193.4"/>
	<path id="XMLID_2327_" class="st6" d="M276.7,209.8c0.2,0.4,0.3,0.7,0.2,0.8c-0.1,0.1-0.4,0-0.7-0.5c-0.3-0.4-0.8-0.9-1.4-1.4
		c-2-1.7-5-2.3-8.9-1.8c-0.3,0-0.4-0.1-0.5-0.3l-0.6-1.6c-0.1-0.1,0-0.2,0.2-0.3c3.6-0.8,6.8,0,9.6,2.5
		C275.4,207.9,276.2,208.8,276.7,209.8"/>
	<path id="XMLID_2121_" class="st6" d="M596.5,266.5l-1.7-0.6c-0.3-0.1-0.5,0-0.6,0.2c-2.1,3.7-4.5,5.8-7.3,6.3
		c-0.8,0.2-1.4,0.2-1.9,0.2c-5.2-6.3-10.1-12.5-15-18.4c-1.3-0.2-2.5-0.3-3.6-0.3c8.4,9.8,15.5,18.3,21.5,25.6
		c0.3,0.2,1.1,0.4,2.2,0.5c0.4,0,0.6,0,0.6-0.1c0-0.1-0.1-0.3-0.4-0.6c-1.6-2-3.2-3.9-4.8-5.9c0.9,0.1,1.8,0,2.7-0.2
		c3.9-0.8,6.7-2.9,8.4-6.5C596.6,266.7,596.6,266.6,596.5,266.5z"/>
	<path id="XMLID_2325_" class="st6" d="M570.5,299.1c-0.4-0.1-0.6-0.3-0.6-0.4c0-0.2,0.2-0.2,0.8-0.1c0.5,0.1,1,0.1,1.7,0
		c2.3-0.2,4.5-1.6,6.6-4.3c0.1-0.2,0.3-0.2,0.5-0.1l1.4,0.6c0.1,0.1,0.1,0.2,0,0.3c-1.7,2.7-4.2,4.1-7.5,4.3
		C572.5,299.5,571.5,299.4,570.5,299.1"/>
	<path id="XMLID_2324_" class="st6" d="M575,312.6c-0.3-0.1-0.5-0.2-0.5-0.3c0-0.1,0.2-0.2,0.6-0.1c0.4,0.1,0.9,0.1,1.4,0
		c1.9-0.1,3.7-1.3,5.5-3.6c0.1-0.1,0.3-0.2,0.5-0.1l1.1,0.5c0.1,0,0.1,0.1,0,0.3c-1.4,2.2-3.5,3.4-6.2,3.6
		C576.6,313,575.8,312.9,575,312.6"/>
	<path id="XMLID_2323_" class="st6" d="M536.7,243.5c1.5,1.4,10.4,8.9,10.3,9.1l-0.9,2.7c-3.1-3-5.8-5.7-10.3-9.1L536.7,243.5z"/>
	<path id="XMLID_2322_" class="st6" d="M455.8,148.7c1.6-0.5,10.5-3.4,10.6-3.3l1.5,1.8c-3.3,0.9-6.3,1.6-10.6,3.3L455.8,148.7z"/>
	<path id="XMLID_2319_" class="st6" d="M498.4,166.6c-0.2,1-0.7,1.7-1.6,2.3c-0.8,0.5-1.7,0.7-2.7,0.5c-1-0.2-1.8-0.7-2.3-1.6
		c-0.6-0.8-0.7-1.7-0.5-2.7c0.2-1,0.7-1.7,1.6-2.3c0.8-0.6,1.7-0.7,2.7-0.5c1,0.2,1.7,0.7,2.3,1.6
		C498.4,164.7,498.6,165.6,498.4,166.6 M500.3,157.8c-0.2,1-0.7,1.7-1.6,2.3c-0.8,0.6-1.7,0.7-2.7,0.5c-1-0.2-1.8-0.7-2.3-1.6
		c-0.5-0.9-0.7-1.8-0.5-2.7c0.2-1,0.7-1.7,1.6-2.3c0.8-0.5,1.7-0.7,2.7-0.5c1,0.2,1.7,0.7,2.3,1.6
		C500.3,155.9,500.5,156.8,500.3,157.8z"/>
	<path id="XMLID_2318_" class="st6" d="M572,226.8c1-0.7,2.1-1.7,3.3-2.9c1.4-1.4,2-2.2,1.9-2.5c-0.1-0.2-0.2-0.3-0.3-0.4
		c-0.1,0-0.3-0.2-0.4-0.5c-0.1-0.4,0-0.9,0.3-1.7c0.3-0.8,0.6-1.2,0.8-1.3c0.1,0,0.6,0,1.4,0.2c0.8,0.2,1.3,0.4,1.3,0.5
		c0.3,1.2,0,2.5-0.9,3.9c-0.9,1.4-2.3,2.7-4.1,3.8c-0.2,0.1-0.3,0.2-0.3,0.2c0,0.1,0,0.1,0,0.1c0,0,0.2,0,0.4,0
		c1.2-0.3,3-0.5,5.5-0.6c1.8,0.1,2.9,0.7,3.2,1.6c0.1,0.5,0,1.1-0.4,1.8c-0.4,0.6-0.7,1-1,1.1c-0.2,0.1-0.6,0.1-1,0.1
		c-0.6,0-0.9-0.1-0.9-0.4c0-0.1,0.1-0.4,0.4-0.9s0.4-0.9,0.3-1.3c-0.2-0.8-2.2-0.9-5.7-0.3c-1.4,0.2-2.5,0.3-3.4,0.2
		c0.1,0.7,0,1.7-0.5,3.1c-0.4,1.4-0.9,2.2-1.4,2.5c-0.1,0.1-0.5,0.1-1.2,0c-0.7-0.1-1.1-0.2-1.1-0.3c-0.5-0.9-1.1-1.9-1.6-2.8
		c-0.7-1.1-1.4-1.8-2-2.2c-1.3,1.1-5.6,5.3-8.4,4.6c4.9-1.8,3.1-2.7,7.8-5.3c1.4-0.6,2.6-0.5,3.6,0.2c0.5,0.3,1,1.1,1.7,2.2
		c0.3-0.7,0.4-1.3,0.2-1.8c-0.1-0.2-0.4-0.5-1-0.7c-0.6-0.2-0.9-0.4-0.9-0.4c0-0.1,0.2-0.2,0.6-0.3C570.1,225.8,571.4,226,572,226.8
		"/>
	<path id="XMLID_2317_" class="st6" d="M591.9,312.3c0.2,0,0.3,0.1,0.4,0.1c0.1,0,0.1,0.1,0,0.1c-0.1,0.1-0.2,0.1-0.4,0.1
		c-1.5,0.2-3,0.2-4.3-0.2c-1.3-0.3-2.1-0.9-2.3-1.7c-0.3-0.8,0-1.6,0.8-2.3c0.8-0.7,1.9-1.2,3.5-1.6c1.9-0.4,4.4-0.5,7.6-0.3
		c2.7,0.2,4.7,0.5,5.9,0.9c0.7,0.3,1.1,0.4,1.1,0.5c-0.1,0.1-0.5,0-1.1-0.1c-3.9-0.6-7.4-0.7-10.4-0.2c-0.3,0-0.7,0.1-1,0.2
		c-2.3,0.6-3.3,1.5-2.8,2.7C589.1,311.4,590.1,311.9,591.9,312.3"/>
	<path id="XMLID_2316_" class="st6" d="M559.5,306.6c-12.8,1-3.8-11.6,7.2-2.5C561.5,302,553.8,302.5,559.5,306.6"/>
	<path id="XMLID_2315_" class="st6" d="M588.1,265.5c-6,2.4-5.5-5.6,2.8-2.5C587.3,262.8,583.8,264.2,588.1,265.5"/>
	<path id="XMLID_2314_" class="st6" d="M573.5,270.9c-6,2.4-5.5-5.6,2.8-2.5C572.7,268.3,569.2,269.7,573.5,270.9"/>
	<path id="XMLID_2313_" class="st6" d="M532.3,193.9c-6,2.4-5.5-5.6,2.8-2.5C531.5,191.3,528,192.7,532.3,193.9"/>
	<path id="XMLID_2312_" class="st6" d="M542.6,259.9c-6,2.4-5.5-5.6,2.8-2.5C541.8,257.2,538.3,258.6,542.6,259.9"/>
	<path id="XMLID_2311_" class="st6" d="M488.8,193.6c-4.4,9.2-12.5-0.5,0.6-5.9C484.9,191.4,482.4,196.8,488.8,193.6"/>
	<path id="XMLID_2122_" class="st6" d="M496.6,178.2c0.4-1.3-0.4-3.1-1.3-3.2c-8.8-0.9-12.1,6.3-16.1,9.8c-1.8,1.4-2.5,1.7-3.7,1.2
		c-4.7-2.1-2.4-12-0.8-16.6c1.4,0.5,3.4-0.7,4.4-4.5c-5.3,4.4-5.3-3.3-0.2-9.4c-7,6.5-6.7,12.1-4.7,13.6c-3.4,4.4-3.2,13.5-3.2,14.9
		c0,3.1,1,6.2,2.7,7c1.1,0.5,2.5,0.2,4.1-0.8c1.1-0.7,2.5-2.6,4.3-4.3c2.6-2.5,6.9-7.3,10.3-6.2c-0.1,5.2-1.4,14.4,14.7,24l0.8-0.1
		v-6.1C500.4,192.1,494.2,186.3,496.6,178.2z"/>
	<path id="XMLID_2309_" class="st6" d="M434.9,154c-2.8,10.3-12.2,1.8-0.2-9.4C429.6,150.6,429.6,158.3,434.9,154"/>
	<path id="XMLID_2308_" class="st6" d="M367.1,185.5c3,7-6,6.4-4.3-5.1C362.7,186,366.1,190.3,367.1,185.5"/>
	<path id="XMLID_2307_" class="st6" d="M336.7,202.1c4.4,10.1-8.8,9.3-6.2-7.5C330.3,202.7,335.2,209,336.7,202.1"/>
	<path id="XMLID_2306_" class="st6" d="M327.6,175.3c3.3,10.5-9.6,8.3-5.4-8.1C321.1,175.3,325.4,182.1,327.6,175.3"/>
	<path id="XMLID_2305_" class="st6" d="M338.3,156.9c6.1,14.2-12.3,13-8.7-10.5C329.2,157.8,336.1,166.7,338.3,156.9"/>
	<path id="XMLID_2304_" class="st6" d="M290.1,197.5c5.9,7-2.9,10.2-5.8-1.1C286.3,201.6,291.5,203.4,290.1,197.5"/>
	<path id="XMLID_2303_" class="st6" d="M275.3,197.2c4.2,3.2-1.5,5.9-4.4-1.7C272.7,198.9,276.3,200.4,275.3,197.2"/>
	<path id="XMLID_2302_" class="st6" d="M277.4,280c5.7,4.4-2,8-5.9-2.3C274,282.4,278.8,284.4,277.4,280"/>
	<path id="XMLID_2301_" class="st6" d="M306,239.6c0.2,0.5,0.2,0.7,0.1,0.8c-0.1,0.1-0.4-0.1-0.7-0.6c-0.3-0.5-0.7-1-1.2-1.6
		c-1.8-1.9-4.7-2.8-8.7-2.6c-0.3,0-0.4-0.1-0.5-0.4l-0.4-1.7c0-0.2,0-0.2,0.3-0.3c3.6-0.4,6.7,0.7,9.3,3.4
		C304.9,237.6,305.5,238.6,306,239.6"/>
	<path id="XMLID_2300_" class="st6" d="M291.3,182.1c5.7,4.4-2,8-5.9-2.3C287.9,184.5,292.7,186.5,291.3,182.1"/>
	<path id="XMLID_2299_" class="st6" d="M261.9,245.1c5.7,4.4-2,8-5.9-2.3C258.4,247.5,263.2,249.5,261.9,245.1"/>
	<path id="XMLID_2298_" class="st6" d="M388.7,151.3c1.4,7.4-7.3,4.9-3-6C384.3,150.8,386.6,155.7,388.7,151.3"/>
	<path id="XMLID_2297_" class="st6" d="M499.8,148.8c-3.3,6.8-8.8-0.4,1.1-6.6C496.5,145.7,495.4,151.1,499.8,148.8"/>
	<path id="XMLID_2296_" class="st6" d="M550.4,188.7c-5.5,5.2-8.1-3.4,3.4-5.8C548.5,184.7,545.6,189.4,550.4,188.7"/>
	<path id="XMLID_2295_" class="st6" d="M537.1,185.4c-0.4,0.3-0.7,0.4-0.9,0.3c-0.2-0.1,0-0.4,0.4-0.8c0.4-0.4,0.8-1,1.3-1.7
		c1.5-2.4,1.7-5.6,0.5-9.7c-0.1-0.3,0-0.5,0.3-0.6l1.6-0.9c0.1-0.1,0.3,0,0.3,0.2c1.4,3.6,1,7.2-1.2,10.5
		C538.9,183.8,538.1,184.7,537.1,185.4"/>
	<path id="XMLID_2294_" class="st6" d="M569.3,241.7c-7.1,2.7-6.1-6.2,5.3-4C569.1,237.3,564.6,240.4,569.3,241.7"/>
	<path id="XMLID_2293_" class="st6" d="M535.3,241.9c-0.3-0.1-0.5-0.1-0.5-0.3c0-0.1,0.2-0.2,0.6-0.2c0.4,0,0.8,0,1.4-0.2
		c1.8-0.4,3.4-1.7,4.8-4.1c0.1-0.2,0.2-0.2,0.4-0.1l1.1,0.4c0.1,0,0.1,0.1,0,0.2c-1.1,2.3-2.9,3.7-5.4,4.2
		C536.9,242.1,536.1,242.1,535.3,241.9"/>
	<path id="XMLID_2292_" class="st6" d="M416.2,181.4c-1.1-0.2-1.7-0.3-1.8-0.3c0,0,0,0,0,0c0-0.1,0.5-0.1,1.4-0.2
		c0.8-0.1,2.2-0.3,4.1-0.7c1-0.4,2.5-1,4.5-1.9c1.3-0.6,2.7-1.1,4-1.4c1.6-0.3,3.1-0.2,4.3,0.3c0.3,0.1,0.6,0.4,1.1,0.8
		c0.4,0.4,0.8,0.6,1.1,0.8c0.6,0.3,1.3,0.3,1.9,0c0.5-0.3,1.1-0.7,1.6-1c0.4-0.2,0.6-0.3,0.8-0.2c0.1,0,0.1,0.1,0,0.3
		c-0.1,0.2-0.4,0.5-0.8,1c-0.2,0.2,0.3,0.6,1.6,1.2c0.1,0.1,0.2,0.1,0.3,0c0,0,0.1-0.4,0.2-1.1c0-0.2,0.2-0.4,0.6-0.6
		c0.6-0.4,0.9-0.6,1-0.5c0.2,0.4,0.1,1-0.2,1.6c-0.2,0.5-0.6,1.1-1.2,1.7c-0.6,0.6-1,0.9-1.3,1c-0.8,0.1-1.6-0.4-2.6-1.6
		c-1.5,0.6-2.8,0.7-3.8,0.2c-0.3-0.1-0.6-0.4-1-0.7c-0.4-0.4-0.7-0.6-0.9-0.7c-1.7-0.8-3.8-0.8-6.3,0.1c-1.8,0.7-3.7,1.3-5.6,2
		C418.1,181.5,417.1,181.5,416.2,181.4"/>
	<path id="XMLID_2288_" class="st6" d="M348.9,141.5c-0.5-1-0.6-1.8-0.2-2.4c0.3-0.4,0.7-0.7,1.1-0.8c0.5-0.1,1,0,1.7,0.2
		c2.3,0.7,4,1.9,5,3.4c0.1,0.1,0.1,0.2,0.2,0.4c0.1,0.6,0.1,1.3-0.2,2.1c-0.2,0.8-0.5,1.2-0.8,1.3c-0.1,0-1.1,0.1-3,0.3
		c-0.7,1.4-1.6,2.8-2.8,4.1c-2.3,2.5-3.4,3.4-6.5,5.3c-0.4,0.2-0.7,0.4-0.9,0.4c-0.1,0-0.1,0-0.1,0c0-0.1,0.2-0.4,0.6-0.8
		c2.8-2.5,6.3-5.8,8.5-8.9c-1.7-0.1-2.7-0.6-2.9-1.7C348.5,143.3,348.6,142.4,348.9,141.5 M352.1,143.8c0-0.5-0.1-1.1-0.3-1.6
		c-0.3-0.6-0.6-0.9-1-0.8c-0.2,0-0.5,0.3-0.8,0.8c-0.3,0.5-0.5,0.8-0.4,1C349.5,143.7,350.4,143.9,352.1,143.8z M355.5,143.1
		c-0.7-0.9-1.6-1.5-2.8-1.7c0.2,1,0.2,1.8,0.1,2.4c0.1,0,1,0,2.6-0.1c0.1,0,0.1,0,0.2-0.1C355.8,143.5,355.7,143.4,355.5,143.1z"/>
	<path id="XMLID_2287_" class="st6" d="M333.5,145.5c1.2-0.3,2.4,0,3.6,1c1.2,0.9,2.2,2.3,3.1,4c0.1,0.2,0.1,0.3,0.1,0.3
		c0.1,0,0.1,0,0.1,0c0,0,0-0.2,0.1-0.4c-0.1-1.1,0-2.9,0.2-5.3c0.4-1.8,1.1-2.8,2.1-3c0.5-0.1,1,0,1.7,0.5c0.5,0.4,0.8,0.7,0.9,1
		c0.1,0.2,0,0.5,0,0.9c-0.1,0.5-0.2,0.8-0.5,0.9c-0.1,0-0.4-0.1-0.8-0.4c-0.4-0.3-0.9-0.4-1.2-0.3c-0.9,0.2-1.2,2-1.2,5.4
		c0,1.5-0.1,2.6-0.3,3.3c-0.2,0.5-0.4,0.7-0.6,0.8c-0.2,0-0.3-0.1-0.4-0.5c-0.1-0.6-0.8-1.6-2-3c-1.2-1.5-2-2.1-2.3-2.1
		c-0.2,0.1-0.4,0.2-0.4,0.3c0,0.1-0.2,0.2-0.5,0.3c-0.4,0.1-0.9,0-1.6-0.3c-0.7-0.3-1.1-0.6-1.1-0.8c0-0.1,0.1-0.6,0.4-1.3
		C333.1,145.9,333.4,145.5,333.5,145.5"/>
	<path id="XMLID_2286_" class="st6" d="M389.2,176.7c1.7-0.8,10.8-5.8,10.9-5.7l2.2,1.4c-3.5,1.7-6.6,3.1-10.9,5.6L389.2,176.7z"/>
	<path id="XMLID_2285_" class="st6" d="M395.7,140.8c1.6-1,10.2-6.8,10.3-6.7l2.3,1.2c-3.3,2-6.3,3.7-10.3,6.7L395.7,140.8z"/>
	<path id="XMLID_2284_" class="st6" d="M560.4,207.5c0.5,1.1,0.4,2.3-0.2,3.7c-0.7,1.4-1.8,2.6-3.3,3.8c-0.2,0.1-0.3,0.2-0.3,0.2
		c0,0.1,0,0.1,0,0.1c0,0,0.2,0,0.4,0c1.1-0.3,2.9-0.6,5.2-0.9c1.8,0.1,2.9,0.5,3.4,1.4c0.2,0.5,0.2,1-0.1,1.7
		c-0.2,0.6-0.5,1-0.8,1.1c-0.2,0.1-0.5,0.2-0.9,0.2c-0.5,0-0.9-0.1-1-0.3c0-0.1,0-0.4,0.2-0.9c0.2-0.5,0.2-0.9,0-1.3
		c-0.4-0.8-2.2-0.8-5.6,0c-1.5,0.3-2.6,0.4-3.3,0.3c-0.5-0.1-0.8-0.2-0.9-0.4c-0.1-0.2,0.1-0.3,0.4-0.5c0.5-0.2,1.4-1.1,2.6-2.6
		c1.2-1.5,1.7-2.4,1.6-2.7c-0.1-0.2-0.2-0.3-0.4-0.3c-0.1,0-0.3-0.2-0.4-0.5c-0.2-0.3-0.2-0.9,0-1.6c0.1-0.7,0.3-1.2,0.6-1.3
		c0.1-0.1,0.6,0,1.4,0.2C559.9,207.2,560.4,207.3,560.4,207.5"/>
	<path id="XMLID_2123_" class="st6" d="M573.4,210.6c-5.9-4.2-11.7-8.3-17.6-12.4c-0.5-0.3-0.9-0.6-1.4-1c0.2-0.1,0.4-0.1,0.6-0.2
		c3.5-1.4,5.7-3.8,6.6-7.3c0.1-0.2,0-0.3-0.1-0.3l-1.7-0.2c-0.3,0-0.5,0.1-0.6,0.3c-1.3,3.7-3.2,6.1-5.7,7.1c-0.1,0-0.1,0-0.2,0.1
		c-10-7-15.4-10.7-16.1-10.9c-0.9-0.3-2-0.4-3.3-0.1l0,1.4c0.4,0.1,0.9,0.4,1.6,0.7c1.7,0.9,6.9,4.3,15.4,10.2
		c-7.7,1.3-6.7,7.8-0.9,4.6c-3.9-0.4-2.2-2.9,1.5-4.1c1.1,0.8,2.3,1.6,3.6,2.5c10.7,7.5,16.2,11.3,16.2,11.3c0.2,0.1,0.9-0.1,2-0.6
		c0.3-0.1,0.5-0.2,0.5-0.3C574,211,573.8,210.8,573.4,210.6z"/>
	<path id="XMLID_2282_" class="st6" d="M581.4,282.2c-0.3,0.1-1,0.1-2.3-0.2c-1.4-0.3-2.6-0.6-3.4-1.1c-0.5-0.3-1.7-1.5-3.6-3.7
		c-0.3-0.4-0.5-0.6-0.4-0.6c0.1,0,0.3,0.1,0.6,0.3c0.4,0.2,1.3,0.8,2.8,1.9c1.4,1,2.3,1.6,2.6,1.8c0.1,0,0.1,0,0.2,0
		c0.3-0.2-0.1-1.5-1.3-4c0,0-0.3-0.5-0.7-1.4c-0.2-0.4-0.3-0.7-0.2-0.7c0.1,0,0.2,0,0.5,0l1.9,0.2c0.6,0.1,1.1,0.4,1.5,1
		c0.2,0.2,0.5,0.8,0.9,1.7C581.7,280.3,582.1,281.8,581.4,282.2"/>
	<path id="XMLID_2281_" class="st6" d="M448.4,151.2c0,0.3-0.4,1-1.2,2.2c-0.9,1.2-1.8,2.2-2.6,2.7c-0.6,0.4-4.9,2.6-9.1,1.8
		c2.1-0.7,5.2-1.4,6.7-2.2c1.7-0.9,2.6-1.4,2.9-1.7c0.1,0,0.1-0.1,0.1-0.1c0-0.4-1.5-0.6-4.4-0.6c0,0-0.6,0-1.7,0.1
		c-0.5,0-0.8,0-0.8-0.1c0-0.1,0.1-0.2,0.2-0.5l1.1-1.7c0.3-0.5,0.9-0.8,1.7-1c0.3,0,1-0.1,2-0.1C446.8,150,448.5,150.4,448.4,151.2"
		/>
	<path id="XMLID_2280_" class="st6" d="M298.1,170.6c0.2,0.2,0.6,0.9,1,2.1c0.5,1.4,0.7,2.5,0.7,3.5c0,0.6-0.5,2.2-1.5,4.9
		c-0.2,0.5-0.3,0.7-0.3,0.7c0-0.1,0-0.3-0.1-0.7c0-0.5,0.1-1.6,0.3-3.4c0.2-1.7,0.3-2.8,0.3-3.1c0-0.1,0-0.1-0.1-0.1
		c-0.3-0.2-1.2,0.8-2.8,3.1c0,0-0.3,0.4-0.9,1.3c-0.3,0.4-0.4,0.6-0.5,0.6c-0.1,0-0.1-0.2-0.2-0.4l-0.8-1.7
		c-0.2-0.5-0.2-1.1,0.2-1.8c0.1-0.3,0.5-0.8,1-1.6C296.2,171.2,297.5,170.2,298.1,170.6"/>
	<path id="XMLID_2279_" class="st6" d="M400.8,129.8c4.4,7.8-6.3,8.2-5.6-5.5C395.7,130.9,400.2,135.6,400.8,129.8"/>
	<path id="XMLID_2278_" class="st6" d="M381.2,154.6c0.2,0.9,0.1,1.9-0.1,2.9c-0.3,1.3-0.9,2.1-1.7,2.2c-1.3,0.2-2.4-0.5-3.3-2.2
		c-0.2,2.4-1.7,4.9-3.4,5.2c-3.8,0.7-4.4-8-3.3-10.2c0,3.1,0.8,5.1,1.7,6.4c1.7,2.5,4.3-1.8,4-3.6c-0.1-0.4-0.3-1.2-0.8-2.2
		c-0.4-1-0.7-1.6-0.7-1.9c0-0.2,0-0.6,0.2-1.1c0.1-0.5,0.3-0.8,0.4-0.8c0.2,0,0.6,0.6,1.2,2c0.6,1.3,0.9,2.3,1,3
		c0.3,1.9,1.3,2.8,2.8,2.5c0.6-0.1,1-0.5,1-1.2c-1.7-2-2.6-3.6-2.9-4.8c-0.1-0.7-0.1-1.3,0.2-1.9c0.2-0.4,0.3-0.6,0.4-0.7
		c0.1,0,0.2,0.2,0.3,0.7c0.2,0.6,0.4,1.1,0.6,1.5c0,0,0.5,0.8,1.4,2.2C380.8,153.5,381.1,154.1,381.2,154.6"/>
	<path id="XMLID_2277_" class="st6" d="M248.2,258.7c0.9,0.2,1.8,0.7,2.7,1.3c1.2,0.8,1.8,1.7,1.8,2.5c0,1.3-0.9,2-2.6,2.1
		c2.2,1.2,3.4,2.6,3.4,4.3c0,0.6-0.3,1.1-0.9,1.4c-0.7,0.3-1.7,0.4-2.8,0.1l-2.8-0.7c-0.2-0.1-0.4,0.1-0.5,0.3
		c-0.1,0.3-0.3,0.4-0.7,0.3c-0.6-0.2-1.2-0.6-1.8-1.3c-0.5-0.6-0.8-1.1-0.8-1.3c0-0.3,0.6-0.3,1.8,0c0.6,0.2,1.2,0.3,1.6,0.6
		c0.4,0.2,0.8,0.4,1.1,0.4c0.7,0.2,1.3,0.2,1.9,0.1c0.7-0.1,1.1-0.5,1.1-0.9c0-0.6-0.3-1.3-0.8-2c-0.6-0.7-1.2-1.1-1.9-1.3
		c-0.4-0.1-1.2-0.2-2.2-0.2c-1,0-1.7-0.1-1.9-0.1c-0.2-0.1-0.6-0.3-1.1-0.6c-0.5-0.4-0.7-0.6-0.7-0.7c0-0.2,0.7-0.3,2.1-0.3
		c1.4,0,2.4,0.1,3,0.3c1.9,0.5,2.8,0,2.8-1.5c0-0.6-0.3-1.1-0.9-1.5c-2.2,0.7-3.9,0.9-5.1,0.6c-0.7-0.2-1.3-0.5-1.8-1
		c-0.4-0.3-0.6-0.5-0.6-0.6c0-0.1,0.2-0.1,0.7,0c0.6,0.1,1.1,0.1,1.5,0.1c0,0,0.8-0.1,2.3-0.3C247,258.5,247.7,258.5,248.2,258.7"/>
	<path id="XMLID_2276_" class="st6" d="M281.2,257.3c0.3-0.5,1-1.1,2.3-1.7c1.2-0.6,2.2-0.8,2.8-0.7c0.1,0,0.5,0.4,0.9,0.9
		c0.5,0.6,0.7,0.9,0.7,1c-0.2,1-0.3,2-0.5,3c-0.2,1.3-0.1,2.2,0.2,2.9c1.7,0.2,4.9-0.8,8.9,2.9c-4.6-2-8.2-1.7-9-2
		c-1.5-0.7-2.3-1.6-2.6-2.8c-0.1-0.6-0.1-1.5,0.1-2.7c-0.7,0.2-1.1,0.6-1.3,1c-0.1,0.2,0,0.6,0.3,1.2c0.3,0.6,0.4,0.9,0.4,1
		c0,0.1-0.3,0-0.6-0.2C281.5,259.7,280.6,258.5,281.2,257.3"/>
	<path id="XMLID_2273_" class="st6" d="M270.4,227.6c0.7,0.3,1.2,0.9,1.5,1.6c0.3,0.7,0.3,1.5-0.1,2.2c-0.3,0.7-0.9,1.2-1.6,1.5
		c-0.7,0.3-1.5,0.3-2.2-0.1c-0.7-0.3-1.2-0.9-1.5-1.6c-0.3-0.7-0.3-1.5,0.1-2.2c0.3-0.7,0.9-1.2,1.6-1.5
		C268.9,227.2,269.6,227.3,270.4,227.6 M263.8,224.6c0.7,0.3,1.2,0.9,1.5,1.6c0.3,0.7,0.3,1.5-0.1,2.2c-0.3,0.7-0.9,1.2-1.6,1.5
		c-0.8,0.3-1.5,0.3-2.2-0.1c-0.7-0.3-1.2-0.9-1.5-1.6c-0.3-0.7-0.3-1.5,0.1-2.2c0.3-0.7,0.9-1.2,1.6-1.5
		C262.3,224.2,263,224.3,263.8,224.6z"/>
	<path id="XMLID_2270_" class="st6" d="M241.1,291.1c0.7,0,1.3,0.3,1.7,0.8c0.5,0.5,0.7,1.1,0.6,1.8c0,0.7-0.3,1.3-0.8,1.7
		c-0.5,0.5-1.1,0.7-1.8,0.6c-0.7,0-1.3-0.3-1.7-0.8c-0.5-0.5-0.7-1.1-0.6-1.8c0-0.7,0.3-1.3,0.8-1.7
		C239.9,291.2,240.5,291,241.1,291.1 M235,290.7c0.7,0,1.3,0.3,1.7,0.8c0.5,0.5,0.7,1.1,0.6,1.8c0,0.7-0.3,1.3-0.8,1.7
		c-0.5,0.5-1.1,0.7-1.8,0.6c-0.7,0-1.3-0.3-1.7-0.8c-0.5-0.5-0.7-1.1-0.6-1.8c0-0.7,0.3-1.3,0.8-1.7
		C233.7,290.9,234.3,290.7,235,290.7z"/>
	<path id="XMLID_2269_" class="st6" d="M353.8,160l0.3-3.5c0-0.3,0.1-0.4,0.2-0.5c0.2-0.1,1.2,0.1,3,0.5c1.8,0.4,2.8,0.7,2.8,0.9
		c0.2,0.6,0.1,2.2-0.4,4.7c-0.1,0.3-0.2,0.4-0.4,0.4c-1.6-0.4-3.4-0.9-5.3-1.3c-0.1,1.4-0.2,2.6-0.4,3.6c-0.1,0.3-0.2,0.4-0.4,0.4
		c-1.8-0.5-3.7-1-5.6-1.3c-0.1,0-0.1-0.1-0.1-0.3l0.4-4.4c0-0.3,0.1-0.4,0.2-0.5c0.2-0.1,1,0.1,2.5,0.4
		C352.2,159.4,353.3,159.7,353.8,160"/>
	<path id="XMLID_2268_" class="st6" d="M323.4,215l-2.1-2.8c-0.2-0.2-0.2-0.4-0.1-0.5c0.1-0.2,1-0.7,2.6-1.6
		c1.7-0.9,2.6-1.3,2.7-1.2c0.6,0.3,1.6,1.6,2.9,3.8c0.2,0.3,0.1,0.4-0.1,0.5c-1.5,0.7-3.1,1.6-4.9,2.5c0.9,1.1,1.6,2.1,2.1,3
		c0.2,0.3,0.2,0.5-0.1,0.6c-1.7,0.8-3.4,1.7-5.1,2.6c-0.1,0-0.2,0-0.3-0.2l-2.6-3.6c-0.2-0.2-0.2-0.4-0.1-0.5
		c0.1-0.2,0.8-0.6,2.2-1.3C321.9,215.6,322.8,215.2,323.4,215"/>
	<path id="XMLID_2267_" class="st6" d="M549.7,272.4c0.1,0,0.1,0.1,0.1,0.3L549,277c0,0.3-0.1,0.4-0.3,0.4c-0.2,0-1.2-0.2-2.9-0.8
		c-1.7-0.6-2.6-1-2.7-1.2c-0.2-0.7,0.1-2.2,0.9-4.6c0.1-0.3,0.2-0.4,0.4-0.3C546.2,271.2,547.9,271.8,549.7,272.4"/>
	<path id="XMLID_2266_" class="st6" d="M347.2,194.8c0.1,0,0.2,0.1,0.2,0.3l0.4,4.3c0,0.3,0,0.4-0.1,0.5c-0.2,0.1-1.2,0.1-3,0
		c-1.8-0.1-2.8-0.2-2.9-0.4c-0.4-0.6-0.5-2.1-0.5-4.7c0-0.3,0.1-0.5,0.3-0.4C343.4,194.7,345.3,194.8,347.2,194.8"/>
	<path id="XMLID_2265_" class="st6" d="M284.4,210c0.1,0,0.2,0,0.3,0.1l3.1,3.3c0.2,0.2,0.3,0.4,0.2,0.5c-0.1,0.2-0.9,0.8-2.5,1.9
		c-1.6,1.1-2.4,1.6-2.6,1.5c-0.7-0.2-1.8-1.4-3.4-3.5c-0.2-0.3-0.2-0.4,0-0.6C281.2,212.3,282.8,211.1,284.4,210"/>
	<path id="XMLID_2264_" class="st6" d="M256.6,249.8c0.1-0.1,0.2-0.1,0.4,0l4.2,2.1c0.3,0.1,0.4,0.3,0.4,0.4c0,0.2-0.6,1.1-1.7,2.7
		c-1.1,1.6-1.8,2.4-2,2.4c-0.7,0-2.2-0.7-4.6-2.2c-0.3-0.2-0.4-0.4-0.2-0.5C254.3,253.2,255.5,251.5,256.6,249.8"/>
	<polygon id="XMLID_1367_" class="st7" points="324.8,457.9 324.8,472.4 293.7,526.7 286.9,524 	"/>
	<polygon id="XMLID_1975_" class="st7" points="324.8,396.8 324.8,406.5 242.7,487.7 236.8,483.3 	"/>
	<polygon id="XMLID_279_" class="st7" points="324.8,357.9 324.8,366 203.1,437 198.5,431.2 	"/>
	<polygon id="XMLID_1366_" class="st7" points="306.5,340.9 176.1,375.2 175.8,367.4 299.5,335.4 	"/>
	<path id="XMLID_1370_" class="st7" d="M339.6,332.4l-1.5,0.2l-3.9,1l-27.9,0l25.7-6.7c-1-5.3-1.7-10.6-2-15.9l-34.4-0.1v-6.4
		l40.1,0.2l0,0.1l0.3-0.1C335.9,313.8,338,323.1,339.6,332.4z"/>
	<path id="XMLID_2259_" class="st7" d="M167,303.7l0,6.9l60.1,0.2V308c0,0,0,0,0,0l0.1-0.2v-3.7L167,303.7z"/>
	<path id="XMLID_2258_" class="st7" d="M311.2,249.4l29.3,17.9c-2.5,4.6-4.2,9.5-5.8,14.5l-33.7-8.9l-1.6,6.3l39.6,10.4
		c1.5-8.6,5.2-17.1,9.8-24.6l-34.3-21.1L311.2,249.4z"/>
	<path id="XMLID_2257_" class="st7" d="M176.5,238.7l-1.2,7.1L231,261c0.6-2.2,1.4-4.6,2-6.8L176.5,238.7z"/>
	<path id="XMLID_2256_" class="st7" d="M202.6,175.9l-3.2,6.5l51.4,30.8c1.2-1.9,2.7-4,3.8-6L202.6,175.9z"/>
	<path id="XMLID_2255_" class="st7" d="M355.1,203.3l17.8,29.9c-4.6,2.6-10.1,7.4-14.1,10.8l-24-25.1l-4.7,4.5l28.3,29.4
		c5.8-6.6,15-13.4,22.8-17.3l-20.3-35.2L355.1,203.3z"/>
	<path id="XMLID_2254_" class="st7" d="M416.8,186.9l-0.1,33.6c-5.3,0-11.6,1-16.8,1.9l-7.9-33.5l-6.7,1.5l10.5,39.3
		c7.4-2,18.4-4.3,27-2.7l0.6-40L416.8,186.9z"/>
	<path id="XMLID_2253_" class="st7" d="M478.7,203.4L462.2,232c-4.5-2.7-11.9-5-16.8-6.8l9.2-32.6l-6.5-2.1l-9.9,38.9
		c7.4,2,18.9,6.2,25.6,11.9l20.6-34.6L478.7,203.4z"/>
	<path id="XMLID_2430_" class="st7" d="M506.1,265.9l-13.9,7.9c-2.9-8.3-10.8-16.6-16.2-22.1l28.7-29.3l1.4,1.1l0,7.6l-21,20.2
		c3.3,4.1,8,9.3,10.5,13.9l10.5-6.3L506.1,265.9z"/>
	<polygon id="XMLID_2432_" class="st7" points="506.3,265.8 506.1,265.9 506.1,258.9 506.2,258.8 	"/>
	<path id="XMLID_2251_" class="st7" d="M244.7,123.4l-3.8,6.2l39.2,42.6c1.6-1.6,3.6-3.2,5.3-4.8L244.7,123.4z"/>
	<path id="XMLID_2250_" class="st7" d="M296.3,83l-5.6,3.9l30,53.8c2-1.1,4.2-2.3,6.2-3.4L296.3,83z"/>
	<polygon id="XMLID_2249_" class="st7" points="356.5,59.1 350.3,61.5 366.5,121 372.9,121 	"/>
	<polygon id="XMLID_2248_" class="st7" points="420.8,52.1 413.9,52.1 414.5,114.6 421.1,114.6 	"/>
	<polygon id="XMLID_2247_" class="st7" points="484.3,60.2 490.5,62.5 474.3,122 467.9,122 	"/>
	<path id="XMLID_2246_" class="st7" d="M600.4,127.5l3.4,6.4l-44.7,43.3c-1.5-1.7-3.4-3.4-5-5.1L600.4,127.5z"/>
	<polygon id="XMLID_2245_" class="st7" points="674.5,312.9 674.5,320.1 611.7,319 610.3,311.6 	"/>
	<polygon id="XMLID_2244_" class="st7" points="664.2,247.1 665.5,254.8 605.4,269.6 604.2,262.5 	"/>
	<polygon id="XMLID_2243_" class="st7" points="638.3,182.5 641.3,189 587.2,219.9 584.3,213.5 	"/>
	<polygon id="XMLID_2242_" class="st7" points="665.4,377.4 662.8,384.4 535,347.1 540.2,341 	"/>
	<polygon id="XMLID_1371_" class="st7" points="637.8,437.9 633.3,444.4 534.6,383.6 535.9,383.6 535.9,381 538.2,376.5 	"/>
	<polygon id="XMLID_2240_" class="st7" points="600.8,486.8 595,492.2 534.8,431.4 535.3,422.3 	"/>
	<polygon id="XMLID_2352_" class="st7" points="547.6,528.4 540.2,530.4 535.9,522.5 535.9,522.5 536.1,516.8 536,516.8 536,508 	
		"/>
	<path id="XMLID_338_" class="st7" d="M552.1,91l-25.3,43.6c-1-0.1-2.1-0.2-3.1-0.7l-0.4-0.2l-1.5-3.3L546.5,87L552.1,91z"/>
	<path id="XMLID_2236_" class="st8" d="M419.3,133.7c0.3,0.1,0.4-0.4,0.7-0.2c0.9,0.8,1.7,1.8,2.3,2.9c0.7,1.2,1.3,2.5,1.7,3.7
		c0.1,0.1,0.1,0.2,0.1,0.3c-0.1,0.1-0.2,0.2-0.3,0.3c-0.6,1-1.1,2.3-1.1,3.5c0,0.1,0.1,0.1,0.2,0.1c0.3-0.4,0.4-0.9,0.8-1.2
		c0.7-0.3,1.3,0.1,1.8,0.6c-0.6,0.4-1.5,0.5-2.1,0.9c-1.5,0.8-1.9,2.7-2.1,4.1c-0.5,1.8,0.2,3.6,0.4,5.4c0.6,3.3,1.3,6.7,1.5,9.9
		c0.1,0.2-0.1,0.5,0.1,0.7c0.1,0.1,0.2,0,0.2,0c0.8-2.2,0.5-4.6,0.2-6.7c0-1.3-0.4-2.4-0.6-3.7c-0.3-1.5-0.6-3.1-0.8-4.6l0,0
		c0-0.1,0-0.2-0.1-0.4c0-0.3-0.1-0.6-0.1-0.9c0-0.2,0.1-0.4,0.3-0.6c1-0.9,2.3-1.3,3.5-1.6c0.7-0.2,1.5,0,2.2-0.1
		c0.1,0,0.3,0.1,0.4-0.1c0.3-0.5,0.3-1.3,0.5-1.8c0-0.2,0.1-0.5,0-0.7c-1-1.3-2.2-2.1-3.5-3c-0.3-0.1-0.5-0.2-0.8-0.1
		c0-0.1,0.1-0.3,0.1-0.4c0.8-2.6,0.8-5.3,1.1-8c0.2-0.7,0.1-1.6,0.7-2.2c0.3-0.2,0.5-0.1,0.7-0.1c0.9,0.2,1.4,1,1.9,1.7
		c0.1,0.2,0.3,0.3,0.5,0.2c0.2-0.1,0.3-0.3,0.5-0.5c0.3-0.8,1-1.6,0.6-2.4c-0.7-1-1.6-2.1-3-2c-1.5,0.4-1.8,2.2-2.4,3.4
		c-0.6,1.9-0.7,4-0.9,5.9c0,0.3,0,0.8-0.1,0.9c-0.3-0.9-0.8-1.7-1.1-2.5c-1.3-2.4-3.3-4.4-5.6-6.2c-0.1-0.1-0.3-0.2-0.3,0
		c-0.4,0.9-0.3,2-0.4,2.9C416.5,132.4,418.3,133,419.3,133.7L419.3,133.7z"/>
	<path id="XMLID_2177_" class="st9" d="M536,394.6v-8.5h-39l-0.4,143l36.9-11l2.5-0.8V508L536,394.6z M529.1,395.3v0.2l-4.6,5.3
		l-4.6-5.5H529.1z M519.9,483.6l4.5-5.2l4.3,5.2l-4.3,5.2L519.9,483.6z M528.7,496.1l-4.3,5.2l-4.6-5.2l4.5-5.2L528.7,496.1z
		 M519.9,471.1l4.5-5.2l4.3,5.2l-4.3,5.2L519.9,471.1z M519.9,458.4l4.5-5.2l4.3,5.2l-4.3,5.2L519.9,458.4z M519.9,445.9l4.5-5.2
		l4.3,5.2l-4.3,5.2L519.9,445.9z M519.9,433.4l4.5-5.2l4.3,5.2l-4.3,5.2L519.9,433.4z M519.9,420.7l4.5-5.2l4.3,5.2l-4.3,5.2
		L519.9,420.7z M519.9,408l4.5-5.2l4.3,5.2l-4.3,5.2L519.9,408z M518.8,396.4l4.9,5.5l-4.9,5.5V396.4z M518.8,408.8l4.9,5.5
		l-4.9,5.5V408.8z M518.8,421.6l4.9,5.5l-4.9,5.5V421.6z M518.8,434l4.9,5.5l-4.9,5.5V434z M518.8,446.6l4.9,5.5l-4.9,5.5V446.6z
		 M518.8,459.1l4.9,5.5l-4.9,5.5V459.1z M518.8,471.8l4.9,5.5l-4.9,5.5V471.8z M518.8,484.3l4.9,5.5l-4.9,5.5V484.3z M518.8,496.8
		l4.9,5.5l-4.9,5.5V496.8z M513,395.3v0.2l-4.8,5.5l-4.7-5.7H513z M503.4,487.1l4.7-5.4l4.5,5.4l-4.4,5.4L503.4,487.1z M512.6,500.2
		l-4.4,5.4l-4.7-5.4l4.7-5.4L512.6,500.2z M503.4,474.1l4.7-5.4l4.5,5.4l-4.4,5.4L503.4,474.1z M503.4,460.9l4.7-5.4l4.5,5.4
		l-4.4,5.4L503.4,460.9z M503.4,447.9l4.7-5.4l4.5,5.4l-4.4,5.4L503.4,447.9z M503.4,435l4.7-5.4l4.5,5.4l-4.4,5.4L503.4,435z
		 M503.4,421.7l4.7-5.4l4.5,5.4l-4.4,5.4L503.4,421.7z M503.4,408.5l4.7-5.4l4.5,5.4l-4.4,5.4L503.4,408.5z M502.3,396.4l5,5.8
		l-5,5.8V396.4z M502.3,409.3l5,5.8l-5,5.8V409.3z M502.3,422.6l5,5.8l-5,5.8V422.6z M502.3,435.6l5,5.8l-5,5.8V435.6z M502.3,448.6
		l5,5.8l-5,5.8V448.6z M502.3,461.6l5,5.8l-5,5.8V461.6z M502.3,474.8l5,5.8l-5,5.8V474.8z M502.3,487.9l5,5.8l-5,5.8V487.9z
		 M502.3,500.9l5,5.8l-5,5.8V500.9z M502.3,518.4l0.1-4.1l6.1-6.8l4.3,5.2l1.1,1.5L502.3,518.4z M513.9,512.4l-5-5.8l5-5.8V512.4z
		 M513.9,499.4l-5-5.8l5-5.8V499.4z M513.9,486.4l-5-5.8l5-5.8V486.4z M513.9,473.2l-5-5.8l5-5.8V473.2z M513.9,460.1l-5-5.8l5-5.8
		V460.1z M513.9,447.1l-5-5.8l5-5.8V447.1z M513.9,434.1l-5-5.8l5-5.8V434.1z M513.9,420.9l-5-5.8l5-5.8V420.9z M513.9,407.9l-5-5.8
		l5-5.8V407.9z M518.8,513.6l0.1-3.9l5.9-6.5l4.2,5l1,1.5L518.8,513.6z M530,507.9l-4.9-5.5l4.9-5.5V507.9z M530,495.4l-4.9-5.5
		l4.9-5.5V495.4z M530,482.9l-4.9-5.5l4.9-5.5V482.9z M530,470.2l-4.9-5.5l4.9-5.5V470.2z M530,457.7l-4.9-5.5l4.9-5.5V457.7z
		 M530,445.1l-4.9-5.5l4.9-5.5V445.1z M530,432.7l-4.9-5.5l4.9-5.5V432.7z M530,419.9l-4.9-5.5l4.9-5.5V419.9z M530,407.5l-4.9-5.5
		l4.9-5.5V407.5z"/>
	<polygon id="XMLID_2176_" class="st10" points="532.9,370.8 532.9,380.6 532.6,380.6 526.3,375.7 532.9,370.8 	"/>
	<polygon id="XMLID_2175_" class="st10" points="518.4,369.6 531.6,369.6 525,374.8 518.4,369.6 	"/>
	<polygon id="XMLID_2174_" class="st10" points="517.7,380.2 511.5,375.7 517.7,370.8 523.9,375.6 517.7,380.2 	"/>
	<polygon id="XMLID_2173_" class="st10" points="518.4,381.6 525,376.4 531.6,381.6 518.4,381.6 	"/>
	<polygon id="XMLID_2172_" class="st10" points="501.6,380.4 501.6,370.6 501.9,370.6 508.2,375.5 501.6,380.4 	"/>
	<polygon id="XMLID_2171_" class="st10" points="516.1,381.6 502.8,381.6 509.4,376.4 516.1,381.6 	"/>
	<polygon id="XMLID_2170_" class="st10" points="516.1,369.6 509.4,374.8 502.8,369.6 516.1,369.6 	"/>
	<path id="XMLID_2161_" class="st11" d="M524.9,149.3H508v51.3h16.9L524.9,149.3L524.9,149.3z M511.8,152.9l1.2,0.9l1.2-0.9l1.2,0.9
		l1.2-0.9l1.2,0.9c0.4-0.3,0.8-0.6,1.2-0.9c0.4,0.3,0.8,0.7,1.3,1l1.3-1l2,1.5l-0.8,0.6l-1.2-0.9l-1.3,1l-1.3-1
		c-0.4,0.3-0.8,0.6-1.2,0.9c-0.4-0.3-0.8-0.6-1.2-0.9c-0.4,0.3-0.8,0.6-1.2,0.9c-0.4-0.3-0.8-0.6-1.2-0.9c-0.4,0.3-0.8,0.6-1.2,1
		c-0.4-0.3-0.8-0.6-1.2-1l-1.2,0.9l-0.8-0.6L511.8,152.9z M511.8,160l1.2,0.9l1.2-0.9l1.2,0.9l1.2-0.9l1.2,0.9
		c0.4-0.3,0.8-0.6,1.2-0.9c0.4,0.3,0.8,0.7,1.3,1l1.3-1l2,1.5l-0.8,0.6l-1.2-0.9l-1.3,1l-1.3-1c-0.4,0.3-0.8,0.6-1.2,0.9
		c-0.4-0.3-0.8-0.6-1.2-0.9c-0.4,0.3-0.8,0.6-1.2,0.9c-0.4-0.3-0.8-0.6-1.2-0.9c-0.4,0.3-0.8,0.6-1.2,1c-0.4-0.3-0.8-0.6-1.2-1
		l-1.2,0.9l-0.8-0.6L511.8,160z M511.8,167l1.2,0.9l1.2-0.9l1.2,0.9l1.2-0.9l1.2,0.9c0.4-0.3,0.8-0.6,1.2-0.9c0.4,0.3,0.8,0.7,1.3,1
		l1.3-1l2,1.5l-0.8,0.6l-1.2-0.9l-1.3,1l-1.3-1c-0.4,0.3-0.8,0.6-1.2,0.9c-0.4-0.3-0.8-0.6-1.2-0.9c-0.4,0.3-0.8,0.6-1.2,0.9
		c-0.4-0.3-0.8-0.6-1.2-0.9c-0.4,0.3-0.8,0.6-1.2,1c-0.4-0.3-0.8-0.6-1.2-1l-1.2,0.9l-0.8-0.6L511.8,167z M511.8,174.1l1.2,0.9
		l1.2-0.9l1.2,0.9l1.2-0.9l1.2,0.9c0.4-0.3,0.8-0.6,1.2-0.9c0.4,0.3,0.8,0.7,1.3,1l1.3-1l2,1.5l-0.8,0.6l-1.2-0.9l-1.3,1l-1.3-1
		c-0.4,0.3-0.8,0.6-1.2,0.9c-0.4-0.3-0.8-0.6-1.2-0.9c-0.4,0.3-0.8,0.6-1.2,0.9c-0.4-0.3-0.8-0.6-1.2-0.9c-0.4,0.3-0.8,0.6-1.2,1
		c-0.4-0.3-0.8-0.6-1.2-1l-1.2,0.9l-0.8-0.6L511.8,174.1z M511.8,181.2l1.2,0.9l1.2-0.9l1.2,0.9l1.2-0.9l1.2,0.9
		c0.4-0.3,0.8-0.6,1.2-0.9c0.4,0.3,0.8,0.7,1.3,1l1.3-1l2,1.5l-0.8,0.6l-1.2-0.9l-1.3,1l-1.3-1c-0.4,0.3-0.8,0.6-1.2,0.9
		c-0.4-0.3-0.8-0.6-1.2-0.9c-0.4,0.3-0.8,0.6-1.2,0.9c-0.4-0.3-0.8-0.6-1.2-0.9c-0.4,0.3-0.8,0.6-1.2,1c-0.4-0.3-0.8-0.6-1.2-1
		l-1.2,0.9l-0.8-0.6L511.8,181.2z M511.6,188.2l1.3,1l1.3-1l1.3,1l1.3-1l1.3,1c0.4-0.3,0.8-0.7,1.2-1c0.4,0.3,0.9,0.7,1.3,1l1.4-1
		l2.1,1.6l-0.8,0.6l-1.3-1l-1.4,1l-1.3-1c-0.4,0.3-0.8,0.6-1.2,1c-0.4-0.3-0.8-0.7-1.3-1c-0.4,0.3-0.8,0.7-1.3,1
		c-0.4-0.3-0.8-0.7-1.3-1c-0.4,0.3-0.8,0.7-1.3,1c-0.4-0.3-0.8-0.7-1.3-1l-1.3,1l-0.8-0.6L511.6,188.2z M523.3,197.5l-1.3-1
		l-1.4,1.1l-1.4-1.1c-0.4,0.3-0.8,0.7-1.3,1c-0.4-0.3-0.9-0.7-1.3-1c-0.4,0.3-0.9,0.7-1.3,1c-0.4-0.3-0.9-0.7-1.3-1
		c-0.4,0.3-0.9,0.7-1.3,1.1c-0.4-0.3-0.9-0.7-1.3-1.1l-1.3,1l-0.8-0.7l2.2-1.7l1.3,1l1.3-1l1.3,1l1.3-1l1.3,1c0.4-0.3,0.8-0.7,1.3-1
		c0.5,0.4,0.9,0.7,1.4,1.1l1.4-1.1l2.2,1.7L523.3,197.5z"/>
	<polygon id="XMLID_2150_" class="st12" points="510.6,307.4 510.6,301.7 500.2,303.1 504.6,308.6 	"/>
	<rect id="XMLID_2149_" x="511.8" y="293.9" class="st12" width="10.6" height="6.7"/>
	<rect id="XMLID_2148_" x="511.8" y="308.6" class="st9" width="10.6" height="32.8"/>
	<polygon id="XMLID_2147_" class="st9" points="529.8,349.6 529.8,343.3 523.7,342.7 523.7,349 	"/>
	<rect id="XMLID_2146_" x="511.8" y="342.7" class="st11" width="10.6" height="6.3"/>
	<polygon id="XMLID_2145_" class="st11" points="511.8,301.7 511.9,307.4 522.4,307.4 522.4,301.7 	"/>
	<polygon id="XMLID_2144_" class="st11" points="504.6,309.4 504.6,342 510.6,341.4 510.6,308.6 	"/>
	<polygon id="XMLID_2143_" class="st11" points="510.6,293.9 510.6,300.6 499.1,301.7 494.2,295.6 	"/>
	<polygon id="XMLID_2142_" class="st11" points="529.8,309.4 529.8,342 523.7,341.5 523.7,308.6 	"/>
	<polygon id="XMLID_2141_" class="st11" points="504.6,349.6 510.6,349 510.6,342.7 504.6,343.3 	"/>
	<polygon id="XMLID_2140_" class="st11" points="493.1,365 493.1,351.2 495.8,351.2 499.3,357 534.3,357 538.3,351 541.4,351 
		541.3,368.2 533,365 	"/>
	<path id="XMLID_2133_" class="st11" d="M527,281.9h-20.9l-11.9,1.4v10.4l17.2-2l11.6,0l17.2,1.9v-10.2L527,281.9z M503.5,289.6
		h-3.2v-3.8h3.2V289.6z M510.8,289.6h-3.2v-3.8h3.2V289.6z M518.1,289.6h-3.2v-3.8h3.2V289.6z M525.4,289.6h-3.2v-3.8h3.2V289.6z
		 M532.7,289.6h-3.2v-3.8h3.2V289.6z"/>
	<path id="XMLID_2119_" class="st4" d="M495.8,393.5"/>
	<polygon id="XMLID_2118_" class="st11" points="533,355.7 529.8,350.9 523.7,350.3 525.5,355.7 	"/>
	<polygon id="XMLID_2117_" class="st11" points="523.7,355.7 522.4,350.3 511.8,350.3 510.6,355.7 	"/>
	<polygon id="XMLID_2116_" class="st11" points="501.5,355.7 504.6,350.9 510.6,350.3 508.9,355.7 	"/>
	<polygon id="XMLID_2115_" class="st12" points="523.7,307.4 523.7,301.7 534.2,303.1 529.8,308.6 	"/>
	<polygon id="XMLID_2114_" class="st11" points="523.7,293.9 523.7,300.6 535.3,301.7 540.2,295.6 	"/>
	<path id="XMLID_2016_" class="st13" d="M493.1,365"/>
	<path id="XMLID_2015_" class="st14" d="M523.7,301.9"/>
	<path id="XMLID_2014_" class="st14" d="M544,304.3"/>
	<path id="XMLID_2013_" class="st14" d="M523,291.7"/>
	<path id="XMLID_2012_" class="st14" d="M522.9,281.5"/>
	<path id="XMLID_2011_" class="st14" d="M527.8,311.1"/>
	<path id="XMLID_2010_" class="st14" d="M545.2,289.2"/>
	<path id="XMLID_2009_" class="st14" d="M529.7,308.6"/>
	<path id="XMLID_2008_" class="st14" d="M540.1,295.7"/>
	<path id="XMLID_1359_" class="st13" d="M536,516.8l-39.4,12.3l0.3-143l0.9-2.5l1.5-1.2c0,0-4.5-10.7-6.3-14.8l0.1-2.6l0-13.5h2.8
		l3.4,5.5l4.6-6.1l-170.8-0.3l-11.8-9h182.6v-8.2l-169.6,0.1l-27.9,0l-9.2,0l2.3,1.8l7,5.5l18.3,14.4v179.5l48.5,9.6l5.2-4.4v-42.5
		h6.3V493h1.8v-3.6h5.5c-0.8-33.1,16.6-24.9,27.2-43.4c6.9,17.3,27.6,14.8,26.5,43.4h4.4v3.6h1.8v4.5h5.4v42.7l6.3,4.2l72.3-21.8h0
		L536,516.8L536,516.8z M383,495.7h-4.5V493h4.5V495.7z M385.7,492.1h-7.2v-2.7h7.2V492.1z M434.8,432.4l4.8,4.7l-4.6,4.5l-4.8-4.7
		L434.8,432.4z M429.2,435.9l-4.7-4.7l4.6-4.5l4.8,4.7L429.2,435.9z M435.8,431.5l4.6-4.5l4.7,4.7l-4.6,4.5L435.8,431.5z
		 M440.6,438.1l4.7,4.7l-4.6,4.5l-4.7-4.7L440.6,438.1z M446.3,443.7l4.7,4.7l-4.6,4.5l-4.7-4.7L446.3,443.7z M446.3,441.8l-4.8-4.7
		l4.6-4.5l4.8,4.7L446.3,441.8z M446.2,430.7l-4.7-4.7l4.6-4.5l4.7,4.7L446.2,430.7z M440.4,425.1l-4.7-4.7l4.6-4.5l4.7,4.7
		L440.4,425.1z M439.4,426l-4.6,4.5l-4.7-4.7l4.6-4.5L439.4,426z M429.1,424.8l-4.8-4.7l4.6-4.5l4.7,4.7L429.1,424.8z M428.1,425.8
		l-4.6,4.5l-4.7-4.6l4.6-4.5L428.1,425.8z M417.7,424.6l-4.7-4.7l4.6-4.5l4.7,4.7L417.7,424.6z M416.7,425.6l-4.6,4.5l-4.7-4.7
		l4.6-4.5L416.7,425.6z M394.1,436.2l-4.6,4.5l-4.7-4.7l4.6-4.5L394.1,436.2z M390.3,430.6l4.6-4.5l4.8,4.7l-4.6,4.5L390.3,430.6z
		 M389.5,442.6l4.8,4.7l-4.6,4.5l-4.7-4.7L389.5,442.6z M390.5,441.7l4.6-4.5l4.7,4.7l-4.6,4.5L390.5,441.7z M396.1,436.3l4.6-4.5
		l4.7,4.7l-4.6,4.5L396.1,436.3z M401.7,430.8l4.6-4.5l4.8,4.7l-4.6,4.5L401.7,430.8z M406.3,424.4l-4.7-4.7l4.6-4.5l4.7,4.7
		L406.3,424.4z M405.3,425.4l-4.6,4.5l-4.7-4.6l4.6-4.5L405.3,425.4z M394.9,424.2l-3.2-3.1l-1.6-1.5l4.6-4.5l4.7,4.7L394.9,424.2z
		 M394,425.1l-4.6,4.5l-4.7-4.7l4.6-4.5L394,425.1z M383.6,424l-4.7-4.7l4.6-4.5l4.7,4.7L383.6,424z M383.6,425.9l4.7,4.7l-4.6,4.5
		l-4.8-4.7L383.6,425.9z M383.7,437l4.8,4.7l-4.6,4.5l-4.7-4.7L383.7,437z M383.9,448.1l4.7,4.7l-4.6,4.5l-4.8-4.7L383.9,448.1z
		 M384,459.2l4.8,4.7l-4.6,4.5l-4.7-4.7L384,459.2z M385,458.2l4.6-4.5l4.7,4.7l-4.6,4.5L385,458.2z M390.6,452.8l4.6-4.5l4.8,4.6
		l-4.6,4.5L390.6,452.8z M396.2,447.3l4.6-4.5l4.8,4.7L401,452L396.2,447.3z M401.8,441.9l4.6-4.5l4.7,4.7l-4.6,4.5L401.8,441.9z
		 M407.4,436.5l4.6-4.5l4.7,4.7l-4.6,4.5L407.4,436.5z M413.1,431l4.6-4.5l4.7,4.7l-4.6,4.5L413.1,431z M423.5,432.2l4.7,4.7
		l-4.6,4.5l-4.8-4.7L423.5,432.2z M429.2,437.9l4.7,4.7l-4.6,4.5l-4.7-4.7L429.2,437.9z M435,443.5l4.7,4.7l-4.6,4.5l-4.7-4.7
		L435,443.5z M440.7,449.2l4.7,4.7l-4.6,4.5l-4.7-4.7L440.7,449.2z M446.4,454.8l4.7,4.7l-4.6,4.5l-4.8-4.7L446.4,454.8z
		 M452.2,460.5l4.7,4.7l-4.6,4.5l-4.8-4.7L452.2,460.5z M452.2,458.5l-4.7-4.7l4.6-4.5l4.8,4.7L452.2,458.5z M452,447.4l-4.8-4.6
		l4.6-4.5l4.7,4.7L452,447.4z M451.9,436.4l-4.7-4.7l4.6-4.5l4.7,4.7L451.9,436.4z M451.8,425.3l-4.8-4.7l4.6-4.5l4.7,4.7
		L451.8,425.3z M452.6,415.2l2.1-1.9h2.6v6.4l0,0.2L452.6,415.2z M457.3,407.9h-9.8v-11.6h9.8V407.9z M448.7,413.3l2,1.9l-4.6,4.4
		l-3.2-3.1l-1.6-1.5l1.8-1.7H448.7z M445.4,407.9h-9.9v-11.6h9.9V407.9z M437.5,413.3l1.8,1.7l-4.6,4.5l-4.7-4.6l1.6-1.5H437.5z
		 M433.6,407.9h-9.9v-11.6h9.9V407.9z M426.4,413.3l1.5,1.5l-4.6,4.5l-4.8-4.6l1.4-1.3H426.4z M421.8,407.9H412v-11.6h9.8V407.9z
		 M415.3,413.3l1.3,1.2l-4.6,4.5l-4.8-4.6l1.2-1.1H415.3z M410,407.9h-8.9v-11.6h8.9V407.9z M404.1,413.3l1.1,1l-4.6,4.5l-4.7-4.6
		l0.9-0.9H404.1z M399.2,407.9h-8.9v-11.6h8.9V407.9z M393,413.3l0.9,0.8l-4.6,4.5l-4.8-4.6l0.7-0.6H393z M388.3,407.9h-9.8v-11.6
		h9.8V407.9z M381.8,413.3l0.6,0.6l-3.9,3.7v-4.2H381.8z M382.5,424.9l-4,3.8V421L382.5,424.9z M382.6,436l-4.1,4v-8L382.6,436z
		 M382.7,447.1l-4.2,4.1v-8.2L382.7,447.1z M382.9,458.2l-4.4,4.2v-8.5L382.9,458.2z M383,469.2l-4.5,4.3v-8.8L383,469.2z
		 M386.7,486.7H379l0.6-0.7l4.6-4.6l2.6,2.7C386.8,484.9,386.7,485.8,386.7,486.7z M378.5,484.8v-9l4.6,4.5L378.5,484.8z M387,482.1
		l-1.8-1.8l2.3-2.2C387.4,479.4,387.2,480.7,387,482.1z M388,475.7l-3.8,3.7l-4.8-4.7l4.6-4.5l4.2,4.1
		C388.2,474.8,388.1,475.3,388,475.7z M390.1,468.7l-0.6,1.4c-0.3,0.8-0.6,1.7-0.8,2.7l-3.6-3.5l4.6-4.5l1.5,1.6
		C390.8,467.1,390.5,467.9,390.1,468.7z M391.9,465.1l-1.2-1.3l4.6-4.5l0.6,0.7C394.5,461.5,393.1,463.1,391.9,465.1z M397.1,459.1
		l-0.7-0.7l4.6-4.5l1.4,1.3C400.5,456.5,398.7,457.7,397.1,459.1z M403.5,454.5L402,453l4.6-4.5l2.3,2.2
		C407,452.1,405.2,453.3,403.5,454.5z M409.9,449.9l-2.4-2.3l4.6-4.5l2.4,2.3C413.1,447.1,411.5,448.6,409.9,449.9z M418.1,440
		c-0.4,0.7-2.1,3.8-2.6,4.4l-2.3-2.2l4.6-4.5l4.7,4.7l-1.5,1.4C420.3,442.4,419.1,441.6,418.1,440z M422.2,444.6l1.4-1.3l4.7,4.7
		l-1.9,1.9C424.9,448.2,423.5,446.5,422.2,444.6z M427.4,450.8l2-1.9l4.8,4.7l-1.8,1.8C430.6,453.9,429,452.4,427.4,450.8z
		 M433.3,456.3l1.8-1.7l4.8,4.7l-1.6,1.5C436.6,459.3,435,457.8,433.3,456.3z M439.3,461.8l1.6-1.5l4.7,4.7l-1.9,1.8
		C442.3,465,440.8,463.3,439.3,461.8z M444.5,467.9l2.1-2l4.7,4.7l-3.6,3.5C446.9,471.8,445.8,469.8,444.5,467.9z M448.3,475.5
		l4-3.9l4.8,4.7l-4.6,4.5l-3.7-3.6C448.6,476.5,448.4,476,448.3,475.5z M449.3,479.3l2.2,2.3l-1.6,1.6
		C449.7,481.9,449.5,480.6,449.3,479.3z M449.9,486.7c0-0.9,0-1,0-1.5l2.5-2.4l3.8,3.8H449.9z M457.3,495.7h-3.6V493h3.6V495.7z
		 M457.3,492.1h-5.4v-2.7h5.4V492.1z M457.3,485.7l-4.1-4.1l4.1-4V485.7z M457.3,474.8l-4.3-4.2l4.3-4.1V474.8z M457.3,463.8
		l-4.4-4.3l4.4-4.2V463.8z M457.3,452.9l-4.5-4.4l4.5-4.4V452.9z M457.3,441.9l-4.6-4.6l4.6-4.5V441.9z M457.3,430.9v-0.1l-4.5-4.5
		l4.5-4.5v9l0.1,0.2L457.3,430.9z M494,383.3l-2.7,5.3V530l-27.8,8.4V390.9h-90.4v147.4l-39.4-8.4V358.1l153.4,0l0,12L494,383
		L494,383.3L494,383.3z"/>
	<polygon id="XMLID_1815_" class="st9" points="541.3,370.2 538.2,376.5 535.9,381 535.9,383.6 497.8,383.6 499.4,382.4 493,367.6 
		534.8,367.7 	"/>
	<line id="XMLID_2410_" class="st13" x1="499.3" y1="357" x2="503.8" y2="351"/>
	<path id="XMLID_2556_" class="st11" d="M506.1,221h-3.4l1.9,1.5l1.4,1.1l0,7.6l0,27.8l0,7.1l0,14.4H527v-56.7l3.5-2.7L506.1,221z
		 M524.6,276.3l-1.6-1.2l-1.7,1.3l-1.6-1.2c-0.5,0.4-1,0.8-1.6,1.2c-0.5-0.4-1.1-0.8-1.6-1.2c-0.5,0.4-1.1,0.8-1.6,1.2
		c-0.5-0.4-1-0.8-1.6-1.2c-0.5,0.4-1,0.8-1.6,1.2c-0.5-0.4-1-0.8-1.6-1.2l-1.6,1.2l-1-0.8l2.6-2l1.6,1.2l1.6-1.2l1.6,1.2l1.6-1.2
		l1.6,1.2c0.5-0.4,1-0.8,1.6-1.2c0.5,0.4,1.1,0.9,1.6,1.3l1.7-1.3l2.6,2L524.6,276.3z M524.6,268.4l-1.6-1.2l-1.7,1.3l-1.6-1.2
		c-0.5,0.4-1,0.8-1.6,1.2c-0.5-0.4-1.1-0.8-1.6-1.2c-0.5,0.4-1.1,0.8-1.6,1.2c-0.5-0.4-1-0.8-1.6-1.2c-0.5,0.4-1,0.8-1.6,1.2
		c-0.5-0.4-1-0.8-1.6-1.2l-1.6,1.2l-1-0.8l2.6-2l1.6,1.2l1.6-1.2l1.6,1.2l1.6-1.2l1.6,1.2c0.5-0.4,1-0.8,1.6-1.2
		c0.5,0.4,1.1,0.9,1.6,1.3l1.7-1.3l2.6,2L524.6,268.4z M524.6,260.5l-1.6-1.2l-1.7,1.3l-1.6-1.2c-0.5,0.4-1,0.8-1.6,1.2
		c-0.5-0.4-1.1-0.8-1.6-1.2c-0.5,0.4-1.1,0.8-1.6,1.2c-0.5-0.4-1-0.8-1.6-1.2c-0.5,0.4-1,0.8-1.6,1.2c-0.5-0.4-1-0.8-1.6-1.2
		l-1.6,1.2l-1-0.8l2.6-2l1.6,1.2l1.6-1.2l1.6,1.2l1.6-1.2l1.6,1.2c0.5-0.4,1-0.8,1.6-1.2c0.5,0.4,1.1,0.9,1.6,1.3l1.7-1.3l2.6,2
		L524.6,260.5z M524.6,252.7l-1.6-1.2l-1.7,1.3l-1.6-1.2c-0.5,0.4-1,0.8-1.6,1.2c-0.5-0.4-1.1-0.8-1.6-1.2c-0.5,0.4-1.1,0.8-1.6,1.2
		c-0.5-0.4-1-0.8-1.6-1.2c-0.5,0.4-1,0.8-1.6,1.2c-0.5-0.4-1-0.8-1.6-1.2l-1.6,1.2l-1-0.8l2.6-2l1.6,1.2l1.6-1.2l1.6,1.2l1.6-1.2
		l1.6,1.2c0.5-0.4,1-0.8,1.6-1.2c0.5,0.4,1.1,0.9,1.6,1.3l1.7-1.3l2.6,2L524.6,252.7z M524.6,244.8l-1.6-1.2l-1.7,1.3l-1.6-1.2
		c-0.5,0.4-1,0.8-1.6,1.2c-0.5-0.4-1.1-0.8-1.6-1.2c-0.5,0.4-1.1,0.8-1.6,1.2c-0.5-0.4-1-0.8-1.6-1.2c-0.5,0.4-1,0.8-1.6,1.2
		c-0.5-0.4-1-0.8-1.6-1.2l-1.6,1.2l-1-0.8l2.6-2l1.6,1.2l1.6-1.2l1.6,1.2l1.6-1.2l1.6,1.2c0.5-0.4,1-0.8,1.6-1.2
		c0.5,0.4,1.1,0.9,1.6,1.3l1.7-1.3l2.6,2L524.6,244.8z M524.6,236.9l-1.6-1.2l-1.7,1.3l-1.6-1.2c-0.5,0.4-1,0.8-1.6,1.2
		c-0.5-0.4-1.1-0.8-1.6-1.2c-0.5,0.4-1.1,0.8-1.6,1.2c-0.5-0.4-1-0.8-1.6-1.2c-0.5,0.4-1,0.8-1.6,1.2c-0.5-0.4-1-0.8-1.6-1.2
		l-1.6,1.2l-1-0.8l2.6-2l1.6,1.2l1.6-1.2l1.6,1.2l1.6-1.2l1.6,1.2c0.5-0.4,1-0.8,1.6-1.2c0.5,0.4,1.1,0.9,1.6,1.3l1.7-1.3l2.6,2
		L524.6,236.9z M524.6,229l-1.6-1.2l-1.7,1.3l-1.6-1.2c-0.5,0.4-1,0.8-1.6,1.2c-0.5-0.4-1.1-0.8-1.6-1.2c-0.5,0.4-1.1,0.8-1.6,1.2
		c-0.5-0.4-1-0.8-1.6-1.2c-0.5,0.4-1,0.8-1.6,1.2c-0.5-0.4-1-0.8-1.6-1.2l-1.6,1.2l-1-0.8l2.6-2l1.6,1.2l1.6-1.2l1.6,1.2l1.6-1.2
		l1.6,1.2c0.5-0.4,1-0.8,1.6-1.2c0.5,0.4,1.1,0.9,1.6,1.3l1.7-1.3l2.6,2L524.6,229z"/>
	<path id="XMLID_2648_" class="st11" d="M533.4,204.6l-8.5-1.1l-16.9,0l-0.8,0.1l-8.8,1.2l0,6.2l4.5,7.1l27.6,0l1.9-3l2.8-4.4v-5.7
		L533.4,204.6z M505.9,212.5h-3V209h3V212.5z M511.9,212.5h-3V209h3V212.5z M518,212.5h-3V209h3V212.5z M524,212.5h-3V209h3V212.5z
		 M530,212.5h-3V209h3V212.5z"/>
	<path id="XMLID_404_" class="st11" d="M526.8,134.6c-1-0.1-2.1-0.2-3.1-0.7l-0.4-0.2l-1.5-3.3l-1.3-3c-0.2-2.6,2.4-4.3-1.9-4.5
		c0.7-3.6,3.8-5.5,3.8-10.5c0-4.6-1.5-8.7-3.6-10.1v-2.8c0.6-0.4,1-0.9,1-1.6c0-0.7-0.4-1.2-1-1.6V94c0.5-0.3,0.9-0.8,0.9-1.4
		c0-0.6-0.4-1.1-0.9-1.4v-3.5c0.1,0,0.2-0.1,0.3-0.1c0.6-0.2,1.1-0.5,1.5-0.9c0.5-0.4,0.8-0.8,1-1.3c0.2-0.5,0.3-1,0.4-1.5
		c0-0.6-0.1-1.1-0.3-1.6c-0.2-0.5-0.6-0.9-1-1.3c-0.3-0.3-0.6-0.5-1-0.7c-0.4-0.2-0.7-0.3-0.8-0.2c0.2,0.1,0.3,0.2,0.4,0.2
		c0.3,0.2,0.4,0.3,0.5,0.3c0.3,0.3,0.6,0.6,0.7,1c0.2,0.3,0.2,0.7,0.2,1.1c0,0.8-0.3,1.4-1,2c-0.3,0.3-0.7,0.5-1,0.6
		c-0.4,0.2-0.8,0.2-1.2,0.2c-0.4,0-0.8-0.1-1.2-0.2c-0.4-0.1-0.7-0.4-1-0.6c-0.6-0.6-0.9-1.2-0.9-2c0-0.8,0.3-1.5,1-2
		c0.1-0.1,0.3-0.2,0.5-0.3c0.2-0.1,0.4-0.2,0.6-0.3c-0.2,0-0.5,0.1-1,0.2c-0.5,0.2-0.8,0.4-1.1,0.6c-0.5,0.4-0.9,1-1.1,1.5
		c-0.2,0.5-0.3,1-0.2,1.5c0,0.5,0.2,1,0.4,1.5c0.3,0.5,0.6,1,1,1.3c0.4,0.4,0.9,0.7,1.5,0.9c0.2,0.1,0.5,0.2,0.7,0.2v3.5
		c-0.5,0.3-0.8,0.8-0.8,1.4s0.3,1.1,0.8,1.4v2.2c-0.8,0.3-1.3,1-1.3,1.7c0,0.8,0.5,1.4,1.3,1.7v2.4c-2.3,0.9-4.1,5.5-4.1,10.4
		c0,5.2,2.7,6.7,3.7,10.7c-4.4,0-1.2,2-2.3,5l-3.3,5.4h-0.2c0,0-4.9,1.9-8.3,0.7l0,7.2l4.2,5.4l20.8,0l4-5.4v-7.2
		C530.7,134.2,529,134.7,526.8,134.6z M509.3,140.7h-2.6v-3.1h2.6V140.7z M515.2,140.7h-2.6v-3.1h2.6V140.7z M518.6,137.6h2.6v3.1
		h-2.6V137.6z M527.2,140.7h-2.6v-3.1h2.6V140.7z"/>
</g>
</svg>
