<?xml version="1.0" encoding="UTF-8" standalone="no"?>
<svg
   xmlns:dc="http://purl.org/dc/elements/1.1/"
   xmlns:cc="http://creativecommons.org/ns#"
   xmlns:rdf="http://www.w3.org/1999/02/22-rdf-syntax-ns#"
   xmlns:svg="http://www.w3.org/2000/svg"
   xmlns="http://www.w3.org/2000/svg"
   viewBox="0 0 708.66248 354.32501"
   height="354.32501"
   width="708.66248"
   xml:space="preserve"
   version="1.1"
   id="svg2"><metadata
     id="metadata8"><rdf:RDF><cc:Work
         rdf:about=""><dc:format>image/svg+xml</dc:format><dc:type
           rdf:resource="http://purl.org/dc/dcmitype/StillImage" /></cc:Work></rdf:RDF></metadata><defs
     id="defs6" /><g
     transform="matrix(1.25,0,0,-1.25,0,354.325)"
     id="g10"><g
       transform="scale(0.1,0.1)"
       id="g12"><path
         id="path14"
         style="fill:#ffaa00;fill-opacity:1;fill-rule:nonzero;stroke:none"
         d="m 4026.15,1794.42 c 13.38,-16.81 29.28,-36.18 55.41,-78.74 73.87,-120.49 220.92,-382.63 369.81,-642.46 96.27,-167.931 199.96,-354.161 256.07,-461.24 171.33,293.129 363.38,765.03 489.61,1184.96 12.66,42.06 32.48,62.45 68.91,62.45 19.45,0 52.17,-8.09 142.17,-35.51 54.16,-16.5 162.22,-49.62 202.4,-62.36 41.46,-13.14 58.77,-34.08 58.77,-60.78 0,-26.06 -14.94,-67.64 -36.02,-124.68 C 5465,1120.29 5231.52,624.98 4957.58,206.129 4853.14,46.3711 4737.21,0 4544.08,0 4340.2,0 4249.06,54.3906 4148.95,202.309 4080.96,302.762 4010.2,413.07 3914.36,561.441 c 146.38,245.457 208.92,542.619 208.92,835.399 0,187.2 -50.45,339.65 -97.13,397.58" /><path
         id="path16"
         style="fill:#a90061;fill-opacity:1;fill-rule:nonzero;stroke:none"
         d="m 4123.28,1396.84 c 0,-292.78 -62.56,-590.059 -208.92,-835.399 l -482.41,754.949 c -59.65,101.81 -75.62,144.9 -75.62,202.38 0,169.38 299.86,351.03 502.3,351.03 72.29,0 118.44,-17.57 167.52,-75.38 46.68,-57.93 97.13,-210.38 97.13,-397.58" /><path
         id="path18"
         style="fill:#867a24;fill-opacity:1;fill-rule:nonzero;stroke:none"
         d="M 3914.36,561.441 C 3698.67,208.039 3329.1,0.191406 2826.37,0.191406 c -380.5,0 -725.05,116.749594 -914.99,289.660594 239.49,200.437 403.05,509.039 403.05,885.368 l 0.14,-129.42 c 0,-218.062 45.82,-348.652 140.41,-445.749 99.14,-101.789 251.35,-157.699 448.48,-157.699 415.39,0 630.49,260.82 630.49,548.777 0,115.561 -34.09,209.541 -101.94,325.361 l 482.35,-755.049" /><path
         id="path20"
         style="fill:#19bec8;fill-opacity:1;fill-rule:nonzero;stroke:none"
         d="M 1911.52,289.852 C 1718.2,111.25 1391.11,0.140625 1077.36,0.140625 763.184,0.140625 432.578,86.5195 239.141,279.941 90.2539,428.781 4.98047,617.641 4.98047,948.359 l 0,828.461 c 0,40.92 14.49223,58.14 58.32033,58.14 l 622.9692,0 c 44.316,0 59.296,-17.84 59.296,-57.91 l 0,-916.429 c 0,-146.519 31.622,-245.66 99.239,-317.121 64.773,-68.469 173.545,-109.32 296.205,-109.32 125.66,0 239.92,42.332 312.62,120.429 82.69,88.891 120.17,215.7 120.17,449.641 l 0,72.25 c 0,-303.012 107.31,-586.012 337.68,-786.648 l 0.04,0 z M 375.215,2090.34 C 143.223,2090.34 0,2254.99 0,2462.49 c 0,207.52 143.223,372.16 375.215,372.16 231.973,0 375.195,-164.64 375.195,-372.16 0,-207.5 -143.222,-372.15 -375.195,-372.15" /><path
         id="path22"
         style="fill:#000000;fill-opacity:1;fill-rule:nonzero;stroke:none"
         d="m 1944.08,2640.38 c 138.79,0 256.5,-25.45 313.61,-77.52 38.75,-35.33 56.74,-82.59 56.74,-151.62 l 0,-576.26 585.77,0 c 44.33,0 59.86,-17.84 59.86,-57.91 l 0,-352.24 c 0,-40.07 -15.53,-57.91 -59.86,-57.91 l -328.87,0 c -102.53,0 -187.6,15.06 -256.9,44.69 l 0,-236.39 c 0,-376.208 -163.5,-685.079 -402.79,-885.368 -230.38,200.636 -337.84,484.16 -337.84,787.158 l 0,1334.17 c 0,68.75 17.93,116.35 56.68,151.68 57.11,52.07 172.78,77.52 313.6,77.52" /></g></g></svg>