<?xml version="1.0" encoding="utf-8"?>
<!-- Generator: Adobe Illustrator 17.0.0, SVG Export Plug-In . SVG Version: 6.00 Build 0)  -->
<!DOCTYPE svg PUBLIC "-//W3C//DTD SVG 1.1//EN" "http://www.w3.org/Graphics/SVG/1.1/DTD/svg11.dtd">
<svg version="1.1" id="Layer_1" xmlns="http://www.w3.org/2000/svg" xmlns:xlink="http://www.w3.org/1999/xlink" x="0px" y="0px"
	 width="800px" height="800px" viewBox="0 0 800 800" enable-background="new 0 0 800 800" xml:space="preserve">
<g id="lista">
</g>
<g>
	<path fill="#9AC130" d="M153.924,369.545c-9.496-2.026-19.156-3.405-28.741-4.936c-17.33-2.766-10.05-28.199,6.103-21.335
		c9.264,3.936,18.605,7.77,27.671,12.15c3.774,1.841,7.46,3.865,11.288,5.631c-0.317-0.134,4.001,1.831,4.011,1.794
		c5.903,1.548,3.51,10.691-2.395,9.137C171.866,371.966,154.4,369.711,153.924,369.545z"/>
	<path fill="#9AC130" d="M113.512,403.027c-19.797-1.984-15.815-26.758,3.729-23.695c11.736,1.848,23.559,4.748,35.368,6.074
		c5.655,1.179,11.267,2.562,16.954,3.644c6.655,1.217,11.149,10.511,1.32,10.412C161.053,399.373,124.482,404.124,113.512,403.027z"
		/>
	<path fill="#9AC130" d="M155.145,435.298c-9.623,0.82-19.274,1.712-28.899,2.729c-17.374,1.796-16.913-24.545,0.383-22.099
		c9.896,1.404,19.964,2.75,29.718,4.631c4.098,0.798,8.172,1.775,12.309,2.468c-0.338-0.059,4.32,0.719,4.32,0.672
		c6.08-0.033,6.157,9.245,0.052,9.407C166.925,433.272,155.671,435.279,155.145,435.298z"/>
	<path fill="#9AC130" d="M166.745,464.476c-7.592,1.702-15.178,3.492-22.744,5.354c-15.235,3.741-17.905-18.18-2.174-18.135
		c8.064,0.019,16.545,0.139,24.407,0.538c3.968,0.197,8.211,0.446,12.262,0.594c4.654,0.117,9.853,6.493,2.818,7.782
		C174.273,461.893,167.689,464.345,166.745,464.476z"/>
	<path fill="#9AC130" d="M240.881,338.103c-4.842-8.78-37.59-25.832-33.584-4.036C211.041,354.429,252.023,358.341,240.881,338.103
		C238.848,334.409,242.619,341.254,240.881,338.103z"/>
	<path fill="#9AC130" d="M149.509,401.315"/>
	<g>
		<path d="M301.304,388.142c-0.043-1.162-0.052-1.292-0.045-1.003c-0.799-16.905-6.052-31.524-24.686-33.072
			c-7.751-0.65-15.918,8.341-22.953,11.077c-14.824,5.753-25.919,3.874-38.808-5.037c-10.459-7.24-30.456-4.748-24.706,12.98
			c2.088,6.448,10.104,10.834,15.747,13.805c24.247,13.427,52.855,3.231,72.716-12.962c6.246,19.393-1.811,57.185-18.457,69.097
			c-20.997,15.012-42.399,2.435-14.855-8.094c19.448-7.43-1.291-21.235-17.452-14.491c-15.273,6.375-29.7,20.676-27.163,34.929
			c5.741,33.083,50.387,20.525,70.44,8.46c23.308-14.028,30.686-49.371,30.235-74.759
			C301.333,389.459,301.336,389.409,301.304,388.142z"/>
		<path d="M584.438,370.928c6.037,0.686,22.622-5.866,26.833-10.421c3.67-3.976,2.818-6.509-2.562-6.73
			c-3.945-0.157-7.993-0.242-12.15,0.124c-9.451,0.827-18.156,9.151-15.423,15.536C581.743,369.728,582.809,370.736,584.438,370.928
			z"/>
		<path d="M339.438,374.928c6.037,0.686,22.622-5.866,26.833-10.421c3.67-3.976,2.818-6.509-2.562-6.73
			c-3.945-0.157-7.993-0.242-12.15,0.124c-9.451,0.827-18.156,9.151-15.423,15.536C336.743,373.728,337.809,374.736,339.438,374.928
			z"/>
		<path d="M699.081,415.1c-0.291-0.519-0.669-0.96-1.136-1.323c-0.468-0.362-0.997-0.643-1.588-0.84
			c-0.592-0.197-1.189-0.296-1.79-0.296c-2.2,3.113-4.333,5.863-6.398,8.25c-2.065,2.387-3.954,4.385-5.666,5.993
			c-1.712,1.608-3.196,2.822-4.452,3.643c-1.256,0.82-2.174,1.229-2.755,1.229c-0.581,0-1.023-0.14-1.323-0.42
			c-0.301-0.28-0.451-0.773-0.451-1.479c0-0.539,0.129-1.271,0.389-2.194c0.26-0.924,0.597-1.967,1.012-3.129
			c0.415-1.162,0.893-2.402,1.433-3.721c0.539-1.317,1.079-2.625,1.618-3.923c0.54-1.297,1.069-2.542,1.588-3.735
			c0.519-1.193,0.966-2.258,1.339-3.191c1.162-2.698,2.028-5.147,2.6-7.348c0.571-2.199,0.857-4.13,0.857-5.79
			c0-1.246-0.177-2.439-0.529-3.581c-0.354-1.141-0.888-2.143-1.604-3.004c-0.716-0.861-1.619-1.552-2.708-2.07
			c-1.09-0.519-2.372-0.778-3.846-0.778c-1.391,0-2.885,0.369-4.482,1.105c-1.599,0.736-3.343,1.936-5.231,3.596
			c-1.889,1.66-3.933,3.84-6.134,6.538c-2.2,2.698-4.608,6.009-7.223,9.931c0.768-1.535,1.364-2.89,1.79-4.062
			c0.426-1.172,0.742-2.236,0.95-3.191c0.207-0.954,0.331-1.842,0.373-2.661c0.042-0.82,0.062-1.646,0.062-2.475
			c0-1.059-0.166-2.044-0.498-2.957c-0.332-0.913-0.814-1.707-1.448-2.382c-0.633-0.675-1.416-1.204-2.351-1.588
			c-0.934-0.384-2.003-0.576-3.206-0.576c-1.391,0-2.849,0.275-4.374,0.825c-1.525,0.55-3.155,1.561-4.889,3.035
			c-1.733,1.474-3.591,3.487-5.572,6.04c-1.982,2.553-4.136,5.843-6.46,9.869c0.768-1.682,1.405-3.233,1.914-4.654
			c0.509-1.422,0.913-2.725,1.215-3.907c0.301-1.184,0.514-2.257,0.638-3.223c0.125-0.965,0.188-1.842,0.188-2.631
			c0-1.93-0.452-3.305-1.354-4.125c-0.903-0.819-2.278-1.229-4.125-1.229c-1.308,0-2.668,0.244-4.079,0.732
			c-1.411,0.488-2.786,1.152-4.125,1.993c-1.339,0.84-2.61,1.821-3.813,2.941c-1.204,1.121-2.257,2.31-3.16,3.565
			c-0.902,1.257-1.619,2.543-2.148,3.861c-0.529,1.318-0.794,2.61-0.794,3.876c0,1.266,0.083,2.595,0.25,3.984
			c0.165,1.391,0.508,2.688,1.027,3.892c-0.046,0.126-0.087,0.255-0.132,0.382c-1.7,2.327-3.33,4.381-4.88,6.125
			c-1.826,2.055-3.486,3.747-4.98,5.075c-1.495,1.328-2.803,2.304-3.923,2.926c-1.121,0.623-2.004,0.935-2.647,0.935
			c-0.249,0-0.473-0.031-0.67-0.094c-0.197-0.062-0.363-0.196-0.498-0.404c-0.135-0.207-0.233-0.503-0.296-0.888
			c-0.062-0.384-0.093-0.897-0.093-1.541c0-0.83,0.108-1.972,0.327-3.425c0.218-1.452,0.57-3.289,1.058-5.51
			c0.488-2.221,1.121-4.857,1.899-7.908c0.778-3.051,1.727-6.579,2.849-10.585c0.519-1.785,0.882-3.425,1.09-4.919
			c0.207-1.495,0.312-2.657,0.312-3.487c0-1.121-0.291-2.288-0.872-3.502c-0.581-1.215-1.438-2.324-2.568-3.332
			c-1.132-1.006-2.527-1.841-4.188-2.506c-1.66-0.664-3.58-0.996-5.76-0.996c-0.893,0-1.732,0.135-2.522,0.404
			c-0.789,0.271-1.432,0.686-1.931,1.246l-0.404,7.409c-0.312-0.332-0.716-0.565-1.214-0.7c-0.498-0.135-1.194-0.202-2.086-0.202
			c-2.117,0-4.297,0.524-6.538,1.571c-2.241,1.049-4.421,2.491-6.538,4.328c-2.117,1.837-4.115,4.006-5.993,6.507
			c-1.879,2.501-3.523,5.199-4.934,8.095c-1.411,2.895-2.527,5.931-3.347,9.106c-0.039,0.151-0.065,0.302-0.102,0.454
			c-0.365,0.479-0.73,0.954-1.097,1.414c-1.723,2.159-3.383,4.017-4.982,5.573c-1.599,1.557-3.087,2.766-4.468,3.627
			c-1.38,0.861-2.568,1.292-3.564,1.292c-0.581,0-1.027-0.146-1.339-0.436c-0.312-0.291-0.467-0.789-0.467-1.495
			c0-0.393,0.088-1.068,0.265-2.023c0.176-0.954,0.42-2.111,0.731-3.471c0.311-1.359,0.675-2.885,1.09-4.577
			c0.415-1.691,0.866-3.475,1.354-5.354c0.487-1.879,0.99-3.804,1.51-5.775c0.519-1.972,1.037-3.928,1.557-5.868
			c0.518-1.94,1.027-3.819,1.525-5.636c0.498-1.815,0.965-3.491,1.401-5.027c1.598-2.989,3.009-5.677,4.233-8.064
			c1.225-2.387,2.283-4.53,3.176-6.43c0.893-1.898,1.64-3.59,2.242-5.074c0.602-1.483,1.084-2.828,1.447-4.031
			c0.363-1.204,0.623-2.31,0.778-3.316c0.155-1.006,0.233-1.977,0.233-2.911c0-1.618-0.208-3.004-0.623-4.156
			c-0.415-1.151-1.007-2.09-1.774-2.817c-0.768-0.726-1.702-1.255-2.802-1.588c-1.1-0.331-2.335-0.498-3.705-0.498
			c-2.511,0-4.935,0.628-7.27,1.884c-2.335,1.256-4.457,3.066-6.366,5.433c-1.91,2.366-3.544,5.251-4.903,8.655
			c-1.359,3.404-2.319,7.254-2.88,11.55c-0.291,2.18-0.643,4.525-1.059,7.036c-0.415,2.512-0.846,5.044-1.292,7.597
			c-0.446,2.553-0.903,5.059-1.37,7.518c-0.467,2.46-0.887,4.728-1.261,6.803c-0.166,0.892-0.41,2.023-0.732,3.393
			c-0.31,1.319-0.645,2.774-1.003,4.352c-1.086,1.377-2.233,2.685-3.45,3.913c-2.253,2.273-4.577,4.219-6.974,5.838
			c-2.397,1.618-4.806,2.869-7.224,3.751c-2.418,0.883-4.706,1.323-6.864,1.323c-1.245,0-2.268-0.197-3.066-0.592
			c-0.8-0.394-1.422-0.965-1.868-1.712c-0.446-0.747-0.758-1.676-0.935-2.786c-0.176-1.11-0.265-2.382-0.265-3.814
			c4.359-0.996,8.049-2.246,11.068-3.751c3.02-1.505,5.469-3.238,7.348-5.199c1.878-1.962,3.232-4.12,4.062-6.476
			c0.83-2.355,1.245-4.873,1.245-7.55c0-4.463-1.173-7.768-3.518-9.916c-2.346-2.148-5.719-3.223-10.118-3.223
			c-2.076,0-4.209,0.514-6.398,1.541c-2.189,1.027-4.322,2.449-6.397,4.266c-2.076,1.816-4.043,3.959-5.899,6.429
			c-1.858,2.471-3.482,5.147-4.873,8.032c-1.33,2.76-2.386,5.652-3.185,8.667c-1.907,2.641-3.728,4.951-5.455,6.894
			c-1.896,2.133-3.619,3.889-5.171,5.267c-0.75,0.667-1.453,1.245-2.113,1.74c0.03-0.047,0.062-0.089,0.092-0.136
			c2.44-3.809,4.572-8.131,6.398-12.967c1.826-4.836,3.273-10.154,4.344-15.956c1.068-5.801,1.604-12.001,1.604-18.602
			c0-4.815-0.572-9.153-1.713-13.014c-1.143-3.86-2.762-7.14-4.858-9.838c-2.096-2.698-4.617-4.773-7.564-6.227
			c-2.947-1.453-6.228-2.18-9.839-2.18c-2.822,0-5.272,0.354-7.348,1.059c-2.075,0.706-3.782,1.624-5.121,2.756
			c-1.339,1.131-2.335,2.423-2.989,3.876c-0.654,1.453-0.981,2.926-0.981,4.421c0,0.768,0.129,1.536,0.389,2.304
			c0.259,0.768,0.68,1.4,1.261,1.898c2.989,0.188,5.713,0.805,8.173,1.853c2.459,1.049,4.565,2.527,6.319,4.436
			c1.754,1.91,3.113,4.266,4.079,7.067c0.965,2.802,1.447,6.051,1.447,9.745c0,3.445-0.202,6.839-0.607,10.18
			c-0.404,3.342-0.944,6.513-1.618,9.512c-0.675,2.999-1.453,5.77-2.335,8.312c-0.883,2.542-1.811,4.742-2.787,6.6
			c-0.976,1.858-1.961,3.312-2.957,4.359c-0.996,1.048-1.941,1.571-2.833,1.571c-0.644,0-1.204-0.088-1.682-0.265
			c-0.478-0.176-0.877-0.483-1.198-0.918c-0.322-0.436-0.56-1.012-0.717-1.728c-0.155-0.717-0.233-1.614-0.233-2.693
			c0-1.515,0.114-3.134,0.343-4.857c0.229-1.723,0.581-3.472,1.059-5.246c0.478-1.774,1.079-3.549,1.806-5.324
			c0.727-1.774,1.582-3.466,2.568-5.074c0.985-1.608,2.111-3.103,3.378-4.483c1.266-1.38,2.678-2.568,4.234-3.564
			c0.082-0.27,0.129-0.529,0.14-0.778c0.011-0.249,0.016-0.498,0.016-0.747c0-1.682-0.482-3.021-1.447-4.017
			c-0.966-0.996-2.444-1.494-4.436-1.494c-1.702,0-3.519,0.482-5.448,1.447c-1.931,0.966-3.845,2.3-5.745,4.001
			c-1.899,1.702-3.715,3.721-5.448,6.056c-1.733,2.335-3.269,4.872-4.607,7.611c-1.339,2.74-2.403,5.625-3.191,8.655
			c-0.162,0.623-0.297,1.248-0.425,1.875c-0.634,0.8-1.259,1.572-1.863,2.282c-1.774,2.086-3.394,3.804-4.857,5.152
			c-1.463,1.35-2.755,2.351-3.876,3.005c-1.121,0.653-2.045,0.98-2.771,0.98c-0.519,0-0.945-0.13-1.276-0.39
			c-0.332-0.259-0.498-0.804-0.498-1.634c0-0.395,0.135-1.038,0.404-1.931c0.27-0.892,0.628-1.935,1.074-3.129
			c0.446-1.193,0.954-2.495,1.525-3.907c0.571-1.411,1.157-2.849,1.759-4.311c0.602-1.464,1.188-2.905,1.759-4.327
			c0.571-1.422,1.074-2.734,1.51-3.938c0.477-1.287,0.871-2.418,1.183-3.394c0.311-0.975,0.555-1.853,0.731-2.631
			c0.176-0.778,0.301-1.483,0.374-2.117c0.073-0.633,0.109-1.24,0.109-1.821c0-1.308-0.311-2.584-0.934-3.829
			c-0.623-1.245-1.484-2.351-2.584-3.315c-1.1-0.966-2.402-1.738-3.907-2.32c-1.505-0.58-3.149-0.871-4.934-0.871
			c-0.955,0-1.925,0.197-2.911,0.592c-0.986,0.395-1.801,1.007-2.444,1.836c-0.145,2.74-0.379,5.387-0.701,7.94
			c-0.322,2.553-0.752,5.163-1.292,7.83c-0.54,2.667-1.199,5.453-1.977,8.359c-0.778,2.905-1.708,6.081-2.786,9.526
			c-0.643,0.664-1.36,1.339-2.148,2.023c-0.789,0.685-1.588,1.303-2.397,1.853c-0.81,0.55-1.588,1.002-2.335,1.354
			c-0.747,0.353-1.391,0.529-1.93,0.529c-0.893,0-1.542-0.296-1.946-0.888c-0.405-0.592-0.608-1.405-0.608-2.443
			c0-1.018,0.182-2.434,0.545-4.25c0.363-1.816,0.866-3.887,1.51-6.211c3.279-5.334,5.733-9.869,7.363-13.605
			c1.629-3.735,2.444-6.631,2.444-8.686c0-0.955-0.135-1.76-0.405-2.413c-0.27-0.654-0.659-1.178-1.167-1.572
			c-0.509-0.394-1.142-0.68-1.899-0.857c-0.758-0.176-1.635-0.265-2.631-0.265c-1.495,0-3.051,0.363-4.67,1.09
			c-1.619,0.727-3.212,1.692-4.779,2.896c-1.567,1.204-3.062,2.579-4.483,4.125c-1.422,1.547-2.667,3.145-3.736,4.795
			c-1.069,1.649-1.92,3.274-2.553,4.872c-0.634,1.599-0.95,3.062-0.95,4.39c0,1.287,0.098,2.589,0.296,3.907
			c0.12,0.805,0.347,1.617,0.658,2.434c-1.542,2.081-3.023,3.926-4.44,5.52c-1.827,2.055-3.487,3.747-4.982,5.075
			c-1.494,1.328-2.802,2.304-3.923,2.926c-1.121,0.623-2.003,0.935-2.646,0.935c-0.249,0-0.473-0.031-0.669-0.094
			c-0.198-0.062-0.363-0.196-0.498-0.404c-0.135-0.207-0.234-0.503-0.296-0.888c-0.062-0.384-0.093-0.897-0.093-1.541
			c0-0.83,0.109-1.972,0.327-3.425c0.218-1.452,0.571-3.289,1.059-5.51c0.487-2.221,1.121-4.857,1.899-7.908
			c0.778-3.051,1.728-6.579,2.849-10.585c0.518-1.785,0.882-3.425,1.09-4.919c0.207-1.495,0.312-2.657,0.312-3.487
			c0-1.121-0.291-2.288-0.872-3.502c-0.581-1.215-1.438-2.324-2.568-3.332c-1.131-1.006-2.527-1.841-4.188-2.506
			c-1.661-0.664-3.58-0.996-5.759-0.996c-0.893,0-1.733,0.135-2.522,0.404c-0.789,0.271-1.432,0.686-1.93,1.246l-0.405,7.409
			c-0.311-0.332-0.716-0.565-1.214-0.7c-0.498-0.135-1.193-0.202-2.086-0.202c-2.117,0-4.296,0.524-6.538,1.571
			c-2.242,1.049-4.421,2.491-6.538,4.328c-2.117,1.837-4.115,4.006-5.993,6.507c-1.878,2.501-3.523,5.199-4.935,8.095
			c-1.412,2.895-2.527,5.931-3.347,9.106c-0.82,3.175-1.23,6.361-1.23,9.558c0,2.885,0.316,5.428,0.949,7.627
			c0.633,2.2,1.51,4.037,2.631,5.511c1.121,1.474,2.454,2.584,4,3.331c1.546,0.747,3.232,1.121,5.059,1.121
			c1.121,0,2.309-0.229,3.565-0.685c1.255-0.457,2.516-1.246,3.783-2.366c1.266-1.121,2.506-2.631,3.72-4.53
			c1.214-1.898,2.33-4.301,3.347-7.207c-0.124,0.955-0.223,1.848-0.296,2.678c-0.073,0.83-0.109,1.598-0.109,2.304
			c0,2.034,0.218,3.72,0.654,5.059c0.436,1.339,1.048,2.408,1.837,3.207c0.789,0.799,1.754,1.359,2.896,1.681
			c1.141,0.322,2.407,0.483,3.798,0.483c1.141,0,2.454-0.302,3.938-0.903c1.484-0.602,3.046-1.416,4.686-2.444
			c1.64-1.027,3.316-2.226,5.028-3.596c1.712-1.369,3.373-2.822,4.981-4.358c0.514-0.491,1.003-0.995,1.498-1.495
			c-0.155,1.1-0.237,2.061-0.237,2.865c0,1.909,0.135,3.611,0.405,5.105c0.27,1.494,0.753,2.751,1.448,3.767
			c0.695,1.017,1.645,1.79,2.849,2.319s2.74,0.794,4.608,0.794c1.432,0,2.978-0.338,4.639-1.012c1.66-0.675,3.347-1.713,5.059-3.113
			c1.712-1.401,3.414-3.165,5.106-5.293c1.691-2.127,3.305-4.644,4.841-7.55c-0.25,1.35-0.441,2.568-0.576,3.658
			c-0.135,1.09-0.203,2.081-0.203,2.973c0,1.661,0.192,3.025,0.576,4.095c0.384,1.069,0.944,1.914,1.681,2.537
			c0.736,0.623,1.624,1.053,2.662,1.292c1.038,0.238,2.21,0.358,3.518,0.358c1.349,0,2.765-0.239,4.25-0.717
			c1.483-0.477,3.004-1.141,4.561-1.992c1.557-0.85,3.118-1.853,4.686-3.004c1.567-1.152,3.098-2.392,4.592-3.721
			c1.572-1.378,3.066-2.833,4.511-4.339c0.176,0.956,0.379,1.881,0.641,2.735c0.799,2.605,1.93,4.764,3.394,6.476
			c1.463,1.713,3.232,2.989,5.308,3.829c1.68,0.681,3.525,1.072,5.518,1.202l-0.1,0.06c0,0,23.941,2.96,37.666-16.158
			c0.002-0.002,0.003-0.004,0.005-0.007c0.002-0.002,0.003-0.004,0.005-0.006c0.179,1.337,0.418,2.611,0.741,3.794
			c0.726,2.667,1.841,4.919,3.347,6.756c1.504,1.837,3.403,3.233,5.697,4.188c2.293,0.954,4.997,1.433,8.11,1.433
			c2.075,0,4.207-0.296,6.397-0.888c2.189-0.592,4.363-1.401,6.522-2.429c2.158-1.027,4.275-2.226,6.351-3.596
			c2.075-1.37,4.037-2.838,5.885-4.405c0.729-0.618,1.416-1.25,2.1-1.885c-0.143,1.39-0.232,2.704-0.232,3.893
			c0,1.661,0.176,3.103,0.529,4.328c0.352,1.225,0.929,2.241,1.727,3.051c0.799,0.809,1.842,1.417,3.129,1.821
			c1.286,0.404,2.853,0.607,4.701,0.607c1.598,0,3.305-0.291,5.121-0.872c1.816-0.581,3.663-1.38,5.542-2.397
			c1.878-1.017,3.746-2.21,5.603-3.58c1.857-1.37,3.632-2.828,5.324-4.374c0.853-0.779,1.674-1.575,2.466-2.386
			c0.13,0.691,0.278,1.362,0.461,1.996c0.633,2.2,1.51,4.037,2.631,5.511c1.121,1.474,2.454,2.584,4.001,3.331
			c1.546,0.747,3.233,1.121,5.059,1.121c1.121,0,2.309-0.229,3.565-0.685c1.256-0.457,2.517-1.246,3.783-2.366
			c1.266-1.121,2.506-2.631,3.72-4.53c1.215-1.898,2.33-4.301,3.348-7.207c-0.125,0.955-0.224,1.848-0.296,2.678
			c-0.073,0.83-0.109,1.598-0.109,2.304c0,2.034,0.218,3.72,0.654,5.059c0.435,1.339,1.048,2.408,1.837,3.207
			c0.788,0.799,1.753,1.359,2.894,1.681c1.142,0.322,2.408,0.483,3.799,0.483c1.141,0,2.454-0.302,3.938-0.903
			c1.483-0.602,3.045-1.416,4.686-2.444c1.639-1.027,3.315-2.226,5.027-3.596c1.713-1.369,3.373-2.822,4.982-4.358
			c0.931-0.889,1.822-1.798,2.691-2.719c0.085,1.732,0.403,3.393,0.982,4.976c0.634,1.733,1.505,3.265,2.615,4.593
			s2.424,2.382,3.938,3.16c1.515,0.778,3.165,1.167,4.95,1.167c0.727,0,1.344-0.026,1.853-0.078c0.509-0.052,0.949-0.14,1.323-0.265
			c0.373-0.124,0.711-0.295,1.012-0.514c0.301-0.218,0.608-0.482,0.918-0.794c0.104-2.158,0.25-4.249,0.436-6.272
			c0.187-2.024,0.42-4.058,0.7-6.103c0.28-2.044,0.602-4.15,0.965-6.32c0.363-2.168,0.763-4.478,1.199-6.927
			c1.245-1.723,2.371-3.149,3.378-4.28c1.006-1.132,1.889-2.034,2.646-2.709c0.757-0.674,1.4-1.146,1.93-1.417
			c0.529-0.27,0.939-0.404,1.229-0.404c0.518,0,0.903,0.114,1.152,0.343c0.249,0.228,0.374,0.622,0.374,1.183
			c0,0.311-0.068,0.727-0.203,1.245c-0.135,0.52-0.306,1.09-0.514,1.713c-0.207,0.622-0.44,1.281-0.7,1.977
			c-0.26,0.695-0.514,1.396-0.763,2.102c-0.561,1.516-1.106,3.108-1.635,4.779s-0.991,3.315-1.385,4.935
			c-0.394,1.618-0.712,3.181-0.95,4.686c-0.238,1.505-0.357,2.869-0.357,4.094c0.041,1.909,0.357,3.533,0.949,4.872
			s1.416,2.434,2.475,3.284c1.059,0.852,2.324,1.469,3.799,1.852c1.474,0.384,3.103,0.576,4.888,0.576
			c0.664,0,1.245-0.042,1.743-0.124c0.498-0.084,0.944-0.203,1.339-0.358c0.394-0.155,0.752-0.358,1.074-0.607
			c0.321-0.249,0.639-0.529,0.949-0.84c0.104-2.159,0.254-4.25,0.452-6.273c0.196-2.024,0.445-4.058,0.747-6.103
			c0.301-2.044,0.638-4.15,1.012-6.319c0.373-2.169,0.788-4.478,1.245-6.928c1.245-1.723,2.438-3.191,3.58-4.405
			c1.142-1.214,2.185-2.199,3.129-2.957c0.944-0.758,1.754-1.312,2.429-1.666c0.674-0.353,1.156-0.529,1.447-0.529
			c1.017,0,1.525,0.509,1.525,1.525c0,0.457-0.186,1.235-0.56,2.335c-0.374,1.101-0.841,2.393-1.401,3.876
			c-0.56,1.484-1.163,3.108-1.806,4.872c-0.643,1.765-1.245,3.545-1.806,5.34c-0.561,1.795-1.027,3.555-1.401,5.277
			c-0.373,1.723-0.56,3.289-0.56,4.7c0,1.744,0.172,3.265,0.514,4.562c0.343,1.297,0.908,2.371,1.697,3.222
			c0.788,0.852,1.826,1.484,3.113,1.899c1.286,0.415,2.874,0.623,4.764,0.623c1.473,0,3.087-0.338,4.841-1.012
			c1.754-0.675,3.564-1.583,5.433-2.725c1.868-1.141,3.752-2.47,5.65-3.984c1.899-1.516,3.73-3.118,5.495-4.811
			c1.764-1.691,3.409-3.425,4.935-5.199c1.525-1.774,2.859-3.481,4.001-5.121c1.141-1.64,2.039-3.176,2.692-4.607
			c0.654-1.433,0.982-2.646,0.982-3.643C699.518,416.2,699.372,415.619,699.081,415.1z M488.824,406.289
			c0.487-1.66,1.032-3.04,1.635-4.141c0.601-1.1,1.209-1.925,1.821-2.475s1.137-0.825,1.572-0.825c0.768,0,1.386,0.368,1.853,1.105
			c0.467,0.736,0.7,1.779,0.7,3.129c0,0.954-0.114,1.898-0.343,2.833c-0.228,0.934-0.664,1.806-1.307,2.615
			c-0.645,0.809-1.526,1.53-2.646,2.163c-1.121,0.634-2.574,1.105-4.359,1.417C487.978,409.891,488.337,407.95,488.824,406.289z
			 M329.097,423.724c-0.768,0.976-1.587,1.754-2.46,2.335c-0.872,0.581-1.754,0.872-2.646,0.872c-0.436,0-0.856-0.052-1.261-0.156
			c-0.405-0.104-0.758-0.337-1.059-0.7c-0.301-0.363-0.54-0.888-0.716-1.572c-0.176-0.685-0.265-1.619-0.265-2.802
			c0-2.47,0.353-4.939,1.059-7.41c0.706-2.47,1.639-4.805,2.802-7.005c1.163-2.199,2.491-4.177,3.985-5.931
			c1.494-1.754,3.04-3.139,4.639-4.156L329.097,423.724z M575.048,423.724c-0.768,0.976-1.588,1.754-2.459,2.335
			c-0.872,0.581-1.755,0.872-2.647,0.872c-0.436,0-0.857-0.052-1.261-0.156c-0.405-0.104-0.758-0.337-1.059-0.7
			c-0.302-0.363-0.54-0.888-0.716-1.572c-0.177-0.685-0.265-1.619-0.265-2.802c0-2.47,0.353-4.939,1.059-7.41
			c0.705-2.47,1.639-4.805,2.802-7.005c1.162-2.199,2.49-4.177,3.984-5.931c1.495-1.754,3.041-3.139,4.64-4.156L575.048,423.724z"/>
		<path d="M486.977,359.916c0,4.463,0.129,8.209,0.389,11.239c0.259,3.03,0.763,5.469,1.51,7.315
			c0.747,1.848,1.795,3.171,3.144,3.97c1.349,0.8,3.114,1.198,5.293,1.198c1.557,0,3.098-0.29,4.623-0.871
			c1.525-0.581,3.004-1.364,4.436-2.351c1.432-0.985,2.807-2.138,4.125-3.456c1.318-1.317,2.543-2.719,3.674-4.203
			c1.131-1.483,2.158-3.009,3.082-4.576c0.923-1.566,1.712-3.087,2.366-4.561c0.654-1.474,1.157-2.869,1.51-4.188
			c0.353-1.318,0.529-2.476,0.529-3.472c0-0.934-0.124-1.748-0.374-2.444c-0.249-0.694-0.586-1.276-1.012-1.743
			c-0.426-0.467-0.924-0.819-1.495-1.059c-0.571-0.238-1.178-0.357-1.821-0.357c-0.456,0-0.887,0.036-1.292,0.108
			c-0.404,0.073-0.825,0.202-1.261,0.39c-0.955,3.093-1.951,5.796-2.989,8.109c-1.038,2.315-2.055,4.24-3.051,5.775
			c-0.997,1.536-1.931,2.689-2.802,3.456c-0.872,0.768-1.629,1.152-2.273,1.152c-0.436,0-0.789-0.197-1.059-0.592
			c-0.27-0.395-0.477-1.09-0.622-2.086c-0.146-0.996-0.239-2.351-0.28-4.064c-0.042-1.712-0.062-3.886-0.062-6.521
			c0-2.221-0.4-3.881-1.198-4.982c-0.799-1.1-2.185-1.65-4.156-1.65c-0.997,0-1.961,0.136-2.896,0.405
			c-0.934,0.27-1.806,0.633-2.615,1.089c-0.81,0.457-1.531,0.986-2.163,1.588c-0.634,0.603-1.137,1.235-1.51,1.899
			c0.062,1.018,0.119,2.023,0.171,3.019C486.951,358.452,486.977,359.272,486.977,359.916z"/>
	</g>
</g>
</svg>
