<?xml version="1.0" encoding="utf-8"?>
<!-- Generator: Adobe Illustrator 18.1.1, SVG Export Plug-In . SVG Version: 6.00 Build 0)  -->
<svg version="1.1"
	 id="svg3727" xmlns:dc="http://purl.org/dc/elements/1.1/" xmlns:cc="http://creativecommons.org/ns#" xmlns:rdf="http://www.w3.org/1999/02/22-rdf-syntax-ns#" xmlns:svg="http://www.w3.org/2000/svg" xmlns:sodipodi="http://sodipodi.sourceforge.net/DTD/sodipodi-0.dtd" xmlns:inkscape="http://www.inkscape.org/namespaces/inkscape" sodipodi:docname="Neues Dokument 10" inkscape:version="0.48.3.1 r9886"
	 xmlns="http://www.w3.org/2000/svg" xmlns:xlink="http://www.w3.org/1999/xlink" x="0px" y="0px" viewBox="40.8 404.2 2213.5 512"
	 enable-background="new 40.8 404.2 2213.5 512" xml:space="preserve">
<g id="g3197" transform="translate(57.9409,740.7402)">
	<path id="path3199" inkscape:connector-curvature="0" fill="#D91920" d="M211.6-34.7c0,53-27.9,106.4-115.2,106.4
		C23.8,71.8-17.1,31.4-17.1-41.8v-24h51.8v16.4c0,45.3,12,77.5,62.8,77.5c47.5,0,62.2-27.3,62.2-70.4v-284.9h51.9V-34.7z"/>
</g>
<g id="g3201" transform="translate(94.3779,760.7349)">
	<path id="path3203" inkscape:connector-curvature="0" fill="#D91920" d="M494.5-229.9c-10.9-55.1-55.1-83-109.2-83
		c-92.8,0-132.1,76.4-132.1,157.8c0,89,39.3,163.2,132.6,163.2c68.3,0,107.5-48.1,112.5-112.5h51.8C540.3-7.2,479.7,51.7,381.5,51.7
		c-121.1,0-180.1-89.5-180.1-203.1c0-113,64.4-205.2,184.5-205.2c81.3,0,148.5,43.7,160.5,126.6H494.5z"/>
</g>
<g id="g3205" transform="translate(109.1807,752.8242)">
	<path id="path3207" inkscape:connector-curvature="0" fill="#D91920" d="M609.4-152.7h101.5c58.4,0.5,85.2-25.1,85.2-71.5
		c0-46.4-26.7-71.5-85.2-71.5H609.4V-152.7z M557.5-339.4h170.9c77.5,0,119.5,43.1,119.5,115.2c0,72.1-42,115.8-119.5,115.2h-119
		V50.4h-51.9C557.5,50.4,557.5-339.4,557.5-339.4z"/>
</g>
<g id="g3209" transform="translate(159.1978,748.8398)">
	<path id="path3211" inkscape:connector-curvature="0" fill="#D91920" d="M997.7-113.8c-2.2-44.2-35.5-79.7-81.3-79.7
		c-48.6,0-77.5,36.6-80.8,79.7H997.7z M1042.5-35.2c-12.6,62.2-57.3,96.1-120.7,96.1c-90.1,0-132.6-62.3-135.4-148.5
		c0-84.6,55.7-146.8,132.7-146.8c99.9,0,130.5,93.4,127.7,161.6H835.6C833.9-23.7,861.8,20,923.4,20c38.2,0,65-18.6,73.2-55.2
		C996.6-35.2,1042.5-35.2,1042.5-35.2z"/>
</g>
<g id="g3213" transform="translate(167.1875,761.8574)">
	<path id="path3215" inkscape:connector-curvature="0" fill="#D91920" d="M1059.7-240.9h43.7v44.8h1.1
		c19.6-34.9,51.3-51.3,91.7-51.3c74.3,0,97.2,42.6,97.2,103.1V41.4H1247v-191.1c0-34.4-21.8-56.7-57.3-56.7
		c-56.2,0-83.5,37.7-83.5,88.4V41.4h-46.4V-240.9z"/>
</g>
<g id="g3217" transform="translate(197.3398,761.8574)">
	<path id="path3219" inkscape:connector-curvature="0" fill="#D91920" d="M1293.8-240.9h43.7v44.8h1.1
		c19.7-34.9,51.3-51.3,91.7-51.3c74.3,0,97.2,42.6,97.2,103.1V41.4H1481v-191.1c0-34.4-21.8-56.7-57.3-56.7
		c-56.2,0-83.5,37.7-83.5,88.4V41.4h-46.4V-240.9z"/>
</g>
<g id="g3221" transform="translate(250.5332,748.8398)">
	<path id="path3223" inkscape:connector-curvature="0" fill="#D91920" d="M1706.8-113.8c-2.2-44.2-35.5-79.7-81.3-79.7
		c-48.6,0-77.5,36.6-80.8,79.7H1706.8z M1751.5-35.2c-12.5,62.2-57.3,96.1-120.6,96.1c-90.1,0-132.7-62.3-135.4-148.5
		c0-84.6,55.7-146.8,132.6-146.8c99.9,0,130.5,93.4,127.7,161.6h-211.2c-1.6,49.1,26.2,92.8,87.9,92.8c38.2,0,64.9-18.6,73.1-55.2
		C1705.7-35.2,1751.5-35.2,1751.5-35.2z"/>
</g>
<g id="g3225" transform="translate(270.4189,725.3574)">
	<path id="path3227" inkscape:connector-curvature="0" fill="#D91920" d="M1861.1,115.5c-21.3,55.1-40.4,75.3-81.9,75.3
		c-10.9,0-21.8-1.1-32.2-4.9v-42.5c8.7,2.7,18,6.5,27.3,6.5c19.1,0,29.4-9.3,38.2-25.7l19.1-48l-111.9-280.5h52.4l82.4,230.9h1.1
		l79.1-230.9h49.1L1861.1,115.5z"/>
</g>
</svg>
