<?xml version="1.0" encoding="utf-8"?>
<!-- Generator: Adobe Illustrator 19.2.1, SVG Export Plug-In . SVG Version: 6.00 Build 0)  -->
<svg version="1.1" id="Calque_5" xmlns="http://www.w3.org/2000/svg" xmlns:xlink="http://www.w3.org/1999/xlink" x="0px" y="0px"
	 viewBox="0 0 450 240" style="enable-background:new 0 0 450 240;" xml:space="preserve">
<g>
	<path d="M123.2,42.7c2.8,0,5.5,0,8.3,0c7,0.9,13.8,2.9,19,5.3c1.9,0.9,3.9,2.7,5.3,3c1.9,0.3,2.4-1.5,3.6-0.6c0.4,3,0.5,6,0.9,9.2
		c0.4,3,1.5,6.3,0.3,8.9c-7-11.7-14.3-23.1-31.7-23.1C105,45.3,94.3,62.5,95.1,84.1c0.7,20.7,12.9,39,32.6,40.3
		c10.9,0.7,20.5-3.1,26.7-9.5c1.9-2,3.8-5,5.3-7.1c0.4-0.6,0.6-2.2,1.8-1.8c-0.2,4.5-1.8,7.7-2.4,11.8c-7.2,6.3-18.2,9.4-29.6,9.8
		c-25.1,0.9-41.8-14.1-43.2-36.1C84.3,64.1,99.3,45.5,123.2,42.7z"/>
	<path d="M331.8,42.7c0.5,0,1,0,1.5,0c6,0.8,13.8,0.8,19.8,0c0.3,0,0.6,0,0.9,0c0.2,0.3,0.5,0.4,0.9,0.6c-0.3,1.8-3.8,2-4.4,3.6
		c-0.8,2,0.9,6.4,1.8,8.9c4.8,14,10.7,27,16.3,40c1.1,2.7,2.1,5.5,3.3,8c1.1,2.5,2,5.5,4.4,6.8c2-1.3,2.3-4,3.3-6.2
		c1.8-4.2,3.6-8.1,5.6-13c0.9-2.2,2.3-5,2.4-6.8c0.1-2.5-2.6-8.1-3.6-10.7c-1.4-3.7-2.8-6.5-4.1-9.8c-2.2-5.6-4.7-15.7-10.1-18.1
		c-2.4-1-5.5,0.1-6.5-2.4c0.3-0.6,1.4-0.4,1.8-0.9c0.5,0,1,0,1.5,0c4.3,0.6,9.8,1.1,14.8,0.9c2.5-0.1,5.2-0.9,7.1,0
		c-1.2,2.5-4.2,1.9-4.7,4.7c-0.6,3.4,2.1,8.5,3.6,12.4c0.8,2,1.7,3.9,2.4,5.6c0.8,2.1,1,4.5,2.7,5.3c1.9-0.3,2.4-3,3.3-5
		c0.8-1.9,1.6-3.9,2.4-5.9c2.2-5.6,5.8-12.7,0-15.4c-1-0.5-2.6,0-3.3-1.5c1.1-2,3.6-0.5,5.6-0.3c4.1,0.3,9.2-0.9,13,0
		c-0.5,2-3.6,1.9-5,3.3c-1.5,1.4-2.6,4.8-3.9,7.7c-2.5,5.7-4.4,10-6.8,16c-1.1,2.8-2.7,6.4-2.7,8.6c0.1,2.5,2.1,6.1,3.3,8.9
		c1.3,3.2,2.5,6.1,3.6,8.6c2.6,5.7,4.7,11.5,8.3,15.7c3.3-3.9,4.9-9.3,7.1-14.8c5-12.3,11.1-25.5,16-38.8c1.1-2.9,2.7-7.3,1.8-9.8
		c-1.1-2.9-6.1-2.5-7.7-4.7c0.8-1.2,3.3-0.4,4.7-0.3c4.7,0.3,10.3-0.2,15.1,0.3c0,0.5,0,1,0,1.5c-4.1,0.9-5.9,4.4-7.4,7.7
		c-9.9,21.1-18.4,43.4-27.5,64.6c-1.5,3.5-2.9,7.3-5,10.4c-2.1-2.7-3.1-6.1-4.4-9.2c-4.2-9.6-8-19.5-12.4-28.7
		c-2.8,2-3.5,5.8-4.7,8.9c-3.3,8.1-6.8,16.6-9.8,24.3c-0.6,1.7-0.9,3.7-2.4,4.7c-3.2-6.5-5.6-13.5-8.6-20.7
		c-5.8-14.1-11.5-27.2-17.2-41.8c-2.3-5.9-5.5-16.4-10.4-19.3c-2.1-1.2-5.1-1-6.8-2.4C329.8,42.7,331.4,43.3,331.8,42.7z"/>
	<path d="M219.8,84.7c3.2,7,8.3,13.6,13,20.7c2,3,4.5,6.5,7.1,9.8c2.4,3,5.3,6.8,8.3,8.3c1.6,0.8,3.6,0.6,5,1.8
		c-1.9,2.6-6,2-8.3,1.8c-8.1-0.8-11-5-15.1-11c-4.4-6.5-8.1-12.1-12.4-19.6c-1.9-3.2-4.8-7.5-7.4-8.6c-1.8-0.8-9.1-1.6-11.3-0.6
		c-3.1,1.5-2.1,11-2.1,16.3c0,6.2-0.1,12.4,1.8,16.3c2.2,4.5,7,4.8,12.4,6.2c-0.4,1.5-2.5,0.9-3.6,0.9c-3.8,0-8.1-0.9-12.1-0.9
		c-2.7,0-5.4,0.4-8,0.6c-2.5,0.2-5.4,0.9-7.1-0.3c0.7-1.4,2.7-1.5,4.1-2.4c1.2-0.7,2.6-1.8,3.3-3c1.8-3.3,1.5-11.5,1.5-17.5
		c0-12.6,0.1-24.1-0.3-37c-0.2-5.6,0.1-13.6-1.8-16.9c-1.7-3-7-3.1-9.2-4.7c1.5-2.2,4.9-1.3,7.4-1.2c15.8,0.6,35.3-3.3,43.8,5.9
		c8.7,9.4,4.7,23.9-3.9,31.1C223.3,82.4,221.1,82.9,219.8,84.7z M197.3,49.2c-1.8,3.3-0.6,12.4-0.6,16.9c0,5.2-1,14.6,0.9,16.6
		c1,1.1,3.6,1,5.6,1.2c12,1.1,20.9-3.2,22.2-12.7c2.2-15.5-8.2-25.5-24-24.3c-0.2,0-0.2,0.3-0.3,0.3
		C199.8,47.4,197.9,48.1,197.3,49.2z"/>
	<path d="M318.4,43.5c0,2.3-0.7,5-0.9,7.7c-0.2,2.6,0.7,5.7-1.2,7.1c-1.2-0.8-0.4-2.5-0.6-3.6c-1.1-7-7.4-7.7-16.6-7.7
		c-5.5,0-12.6-0.5-15.1,0.9c-3.2,1.8-2.4,11.7-2.4,15.7c0,6.7-0.6,12.8,1.2,16.9c3.5,1.6,9.2,0.8,14.2,0.6
		c8.2-0.4,13.9-1.1,14.8-8.6c1.8,0.3,0.6,2.3,0.6,3.6c0,4.1-0.2,9.4,0,13.9c0.1,2,0.9,4.1,0,5.3c-2.6-2.6-1.3-6.2-4.4-8.3
		c-1.4-1-4.3-1.3-6.5-1.5c-5.9-0.4-14.5-0.3-19,1.2c-1,4.6-0.6,10.8-0.6,16.9c0,2.7,0.1,5.7,0.3,8.6c0.2,2.4,0.1,5.8,1.2,7.4
		c2.7,3.9,14.5,1.6,19.3,0.9c10-1.4,15.3-2.7,19.8-8.3c0.7-0.9,1.4-2.5,3-2.4c0.1,3.4-2,6.5-3.9,9.2c-2.3,3.4-4.9,6.7-10.4,7.1
		c-6.7,0.6-15.4-0.8-23.7-0.9c-4.1-0.1-8.1,0.3-11.8,0.6c-3.8,0.3-7.7,1.5-10.7-0.3c0.3-1.6,3.5-0.7,5-1.5c6-2.8,4.1-23.1,4.1-34.1
		c0-6.9,0.3-12.8,0-18.4c-0.3-6.2,0-12.1-0.6-17.8c-0.5-4.6-3.2-7.3-8-8.3c-0.7-0.1-2.1,0-2.4-0.9c0.5-2,3.2-1.2,4.4-1.2
		C284.2,43.3,302.5,43.5,318.4,43.5z"/>
	<path d="M8.9,167.4c-1.4,0-2.8,0-4.1,0c-0.8-0.6-1.8-1-2.1-2.1c0-1.2,0-2.4,0-3.6c0.7-1.5,0.6-3.7,2.4-4.1c2.5,0.8,3.8,4.6,7.7,4.4
		c6.6-0.3,9.3-12.1,9.8-20.1c0.7-13.2,0-28.2,0-43.8c0-11.2,0-22.3,0-32.9c0-3.8,0.7-7.5,0.3-10.7c-0.6-4.7-2.8-6.5-6.5-7.7
		c-1.9-0.6-4.8-0.4-5-2.4c1.6-1.6,4.1-0.8,6.2-0.6c4.8,0.4,9,0.3,13.9,0.3c2.5,0,5.8-0.7,6.8,0.9c-0.5,1.5-2.5,1.2-3.6,1.8
		c-4.1,2.4-3.6,8.5-3.6,15.1c0.1,13.2,0.3,27.8,0.3,40.3C31.4,132.6,32.7,161.9,8.9,167.4z"/>
	<path d="M64,121.8c-2,2.9-4.3,5.6-7.1,7.7c-1.7-2.8-4.5-4.5-6.5-7.1c1.5-3.3,4.4-5.2,6.5-8C59.8,116.3,61.9,119,64,121.8z"/>
</g>
</svg>
