<?xml version="1.0" encoding="iso-8859-1"?><!-- Generator: Adobe Illustrator 16.0.0, SVG Export Plug-In . SVG Version: 6.00 Build 0) --><!DOCTYPE svg PUBLIC "-//W3C//DTD SVG 1.1//EN" "http://www.w3.org/Graphics/SVG/1.1/DTD/svg11.dtd"><svg version="1.1" id="Layer_1" xmlns="http://www.w3.org/2000/svg" xmlns:xlink="http://www.w3.org/1999/xlink" x="0px" y="0px" width="192.756px" height="192.756px" viewBox="0 0 192.756 192.756" style="enable-background:new 0 0 192.756 192.756;" xml:space="preserve"><g><polygon style="fill-rule:evenodd;clip-rule:evenodd;fill:#FFFFFF;" points="0,0 192.756,0 192.756,192.756 0,192.756 0,0	"/><path style="fill-rule:evenodd;clip-rule:evenodd;" d="M8.537,84.994C9.642,47.15,41.854,36.939,57.803,36.939	c15.382,0.068,31.624,7.835,35.075,8.046c4.576-2.819,13.171-9.511,21.558-9.652c8.385-0.141,11.977,5.073,11.977,5.073	s6.412-2.322,19.656-2.395c13.244-0.073,38.043,10.714,38.184,41.785c0,30.157-25.68,61.725-83.693,61.725	c-9.444-0.379-12.218-0.592-12.218-0.592s-5.964,2.709-10.623,2.709c-5.471,0-8.878-2.553-10.511-3.576	c-4.102-1.193-18.606-2.676-32.634-9.803C20.971,123.35,7.76,111.193,8.537,84.994L8.537,84.994z"/><path style="fill-rule:evenodd;clip-rule:evenodd;fill:#FFF22D;" d="M86.91,58.098c0,0-2.211,11.843-2.316,12.369	c-0.105,0.527,0,0.684,0.421,0.105c0.421-0.579,3.316-8.159,9.053-8.474c5.053,0.526,5.211,4.263,5.211,5.316	c0,1.053-1.053,8.738-8.896,8.632c-0.053,1.842,1.948,3.947,3.632,3.632c1.421,0,4.789-1,6.738-7.158	c0.842-6.001,2.473-20.528,2.473-20.528l6.105-0.369l-2.947,24.633c0,0-0.473,2.053,0.842,2.053c1.316,0,2.633-1.737,2.738-2.842	s3.053-24.106,3.053-24.106l6-0.316l-2.633,22.634c0,0-0.525,2.526,0.844,2.579c1.367,0.052,2.789-1,3-2.948	c0.211-1.947,1.684-13.685,1.684-13.685l5.316-0.684l-1.578,13.317c0,0,0,1.947,1.895,1.947s2.158-2.369,2.158-2.369l1.895-13.58	l5.211-0.842l-3.686,31.002c0,0-3.789,0.105-6.053,1.264c-2.422,0.736-5.684,3.579-5.684,3.579s0.314-3.105,2.314-5.158	c2.002-2.053,2.947-3.106,4.633-3.316c-0.053,0,0.789-8.422,0.789-8.422s-1.842,2.158-4.684,2.158c-2.844,0-3.053-2-3.053-2	s-2.791,4.316-5.896,4.316c-2.42,0-3.42-2.158-3.42-2.158s-3.105,4.053-6.316,4.053s-5.053-3.579-5.053-3.579	s-3.002,4.843-9.528,4.843c-6.527,0-7.316-4.79-6.896-10.106c0,0-0.21,0.158-0.315,0.526s-2.421,8.475-4.369,9.685	c-1.368,1.895-3.632,2.474-7.211,2.474s-9.579-1.737-9.579-10.685c0.684-6.79,5.79-7.526,7.316-7.526	c1.527-0.158,5.58,1.737,5.58,5.211c0.053,1-0.211,1.684,0.053,1.895c0.79,0.21,1.316-0.842,1.263-2	c-0.052-1.158-0.263-3.579-2.211-5.158c0,0,1.474-6.632,1.263-7.58c0,0-0.737-0.105-2.21-0.105c-1.474,0-2.421-0.632-2.421-0.632	l1.474-7.685c0,0,2.526,0.947,4.105,0.947c1.579,0,6.211-0.421,10.527-3.579c3.79-2.105,5.369-3.579,7.053-4.632	c1.684-1.052,13.688-8.984,19.581-8.842c6.473,0.158,13.684,1.895,14.947,14.001c-3.264-6.843-8.736-7.369-11.158-7.369	c-6.895-0.315-14.633,5.632-16.055,6.632c-1.42,1-6.579,4.58-8.737,5.843s-5.842,2.737-6.316,2.737L86.91,58.098L86.91,58.098z"/><path style="fill-rule:evenodd;clip-rule:evenodd;fill:#FFF22D;" d="M105.963,118.957c1.834-0.336,3.189-0.621,6.85-0.582	c-0.053,0,0.652-6.527,0.652-6.527s-1.738,2.227-4.58,2.227s-3.264-2.068-3.264-2.068s-2.789,4.244-5.895,4.244	c-2.422,0-3.316-2.018-3.316-2.018s-3.283,3.949-6.494,3.949c-3.21,0-4.77-3.475-4.77-3.475s-3,4.842-9.527,4.842	c-6.526,0-7.984-4.158-7.773-7.967c0,0-0.178-0.404-0.264,0.148c-2.292,6.107-6.957,8.697-10.224,8.697s-4.369-3.777-4.369-3.777	s-1.062,4.922-8.741,4.922s-8.994-6.658-8.909-9.123c-0.381-2.717,3.648-7.381,7.297-7.168c3.648,0.215,4.754,2.715,4.711,3.479	c-0.043,0.762-0.764,1.824-0.3,2.121c0.168,0,1.402,0.297,1.402-2.461c0-2.756-2.037-3.818-2.037-3.818s1.145-10.564,1.655-11.33	c3.181-8.869,11.115-8.781,12.432-8.781c1.315,0,6.066,0.721,6.066,6.534c0,5.813-5.092,7.253-5.388,7.382	c-0.296,0.129-0.086,0.34-0.086,0.34s0.296,0.127,1.951,0.084c1.655-0.043,3.353,3.014,4.076,4.584	c0.724,1.568,1.016,3.861,1.059,5.049c0.467,0,0.826-1.756,1.247-2.336c0.421-0.578,2.013-8.441,9.089-8.619	c4.589,0,5.211,4.408,5.211,5.461s-1.296,8.6-9.139,8.494c-0.053,1.842,1.385,3.385,3.876,3.77c1.421,0,4.72-1.211,6.668-7.369	c0.842-6,2.401-20.389,2.401-20.389l6.105-0.333l-2.984,24.6c0,0-0.47,2.018,0.846,2.018s2.701-1.736,2.806-2.842	c0.105-1.105,2.984-24.036,2.984-24.036l6.07-0.319l-2.811,22.669c0,0-0.49,2.422,0.879,2.475s2.898-0.895,3.109-2.842	c0.209-1.949,1.717-13.722,1.717-13.722l5.316-0.685l-1.615,13.284c0,0,0.035,1.912,1.93,1.912s2.264-2.264,2.264-2.264	l1.895-13.58l5.143-0.843l-3.721,30.829c0,0-4.658,0.105-8.418,1.246c-4.74,1.443-11.377,5.977-14.508,8.365	c-3.132,2.389-11.083,7.209-17.968,7.416c-7.625-0.166-12.905-3.211-18.425-13.268c0.375,0.039,6.474,7.047,13.356,7.129	c7.171-0.082,14.547-6.1,17.35-7.584C90.706,125.908,99.658,119.535,105.963,118.957L105.963,118.957z"/><path style="fill-rule:evenodd;clip-rule:evenodd;" d="M56.51,115.209c-1.355-0.041-2.753-2.166-2.628-3.607	s1.102-9.207,1.102-9.207s0.763-0.383,1.188-0.383c0.424,0,4.161,0.383,4.286,6.705C60.283,112.789,57.355,115.381,56.51,115.209	L56.51,115.209z"/><path style="fill-rule:evenodd;clip-rule:evenodd;" d="M55.322,99.002l1.02-7.639c0,0,0.717-3.135,2.628-3.096	c1.912,0.04,2.757,2.543,2.546,3.902c-0.21,1.359,0.083,3.438-1.74,4.712C57.954,98.152,55.322,99.002,55.322,99.002L55.322,99.002	z"/><path style="fill-rule:evenodd;clip-rule:evenodd;fill:#CC2229;" d="M121.807,95.468l2.527-0.342l-3.947,32.475	c0,0-1.605-0.525-3.186-0.525c-1.578,0-8.422,0.842-13.105,3.631c-4.711,2.369-8.501,5.527-9.475,6.422	c-0.974,0.895-3.263,2.475-3.447,2.475c0.026,0.314,7.422,0.367,8.422,0.42s10.404-0.164,13.316-0.447	c2.91-0.283,12.633-1.314,18.264-3.053c5.791-1.264,52.531-13.264,51.426-58.582c0.314-29.844-27.324-38.427-36.484-38.427	c-9.158,0-18.602,2.165-18.602,2.165s1.896,3.606,2.852,7.159c0.953,3.553,1.754,8.461,1.754,8.461l5.658-0.852l-0.354,3.552	l2.504-0.349l-3.855,32.436c0,0-3.404-0.552-5.506-0.401c-4.357,0.099-8.662,2.754-8.662,2.754L121.807,95.468L121.807,95.468z"/><path style="fill-rule:evenodd;clip-rule:evenodd;fill:#CC2229;" d="M131.119,57.496l-0.301,0.05l-0.25,2.355l-2.553,0.349	l0.15-2.25l-6.609,0.849l0.652-6.007l-2.504,0.201l0.299-2.853l-7.711,0.5l-0.348,2.553l-1.906,0.049l0.254-2.503l-4.457,0.25	c0,0,8.264-6.159,13.82-5.556C125.211,46.084,128.568,47.834,131.119,57.496L131.119,57.496z"/><path style="fill-rule:evenodd;clip-rule:evenodd;fill:#CC2229;" d="M102.18,53.341l-1.4,11.764c0,0-3.057-3.898-6.359-3.75	c-3.303,0.148-4.708,1.648-4.708,1.648l0.651-3.102c0,0,2.652-0.855,3.655-1.454C95.022,57.848,102.18,53.644,102.18,53.341	L102.18,53.341z"/><path style="fill-rule:evenodd;clip-rule:evenodd;fill:#CC2229;" d="M127.893,80.379l-0.453,3.79c0,0-5.406,2.385-6.773,8.069	c0.105,0.069-5.369,0.843-5.369,0.843l-0.422,2.352l-2.457,0.353l0.248-2.283l-6.844,0.947l0.773-6L104,88.659l0.35-2.912	l-7.755,0.457l-0.388,2.56l-2,0.142l0.315-2.632l-7.684,0.49l-1.718,13.791c0,0-2.635-3.925-6.878-3.895	c-4.879,0.035-8.001,5.473-8.001,5.473s-3.441-2.977-4.773-2.977c-0.243-0.42,0.316-0.461,0.316-0.461s5.02-1.438,5.441-6.279	c0.247-3.474-3.685-6.142-3.685-6.142s2.875,1.122,5.191,1.122s9.125-0.562,11.862-5.579c1.79,3.438,5.896,4.178,9.685,4.178	c4.842,0.174,7.192-3.932,7.192-3.932s1.934,2.175,5.65,2.175c3.719,0,6.35-2.77,6.35-2.77s0.912,0.947,4.211,0.947	s4.879-2.599,4.879-2.599s1.16,1.052,2.773,1.052C126.945,80.869,127.893,80.379,127.893,80.379L127.893,80.379z"/><path style="fill-rule:evenodd;clip-rule:evenodd;fill:#CC2229;" d="M64.592,137.945c0,0-17.58-2.686-30.581-9.791	c-13.001-7.105-23.949-17.842-23.949-43.107c1.421-39.002,35.634-46.898,48.424-46.582c12.001,0,31.739,7.791,32.687,7.791	c0,0-7.211,6.273-13.475,5.947c-5-0.263-5.369-0.842-5.369-0.842l-1.842,9.369c0,0,1.369,0.526,1.947,0.526	c0.579,0,2.685,0.316,2.685,0.316l-1.263,7.316c0,0-1.632-1.211-3.895-1.211s-6.79,1.474-7.948,7.896	c-0.21,6.948,3.685,9.58,3.685,9.58s-2.474-1.474-5.474-1.474c-3,0-10.948,1.369-13.369,11.054	c-0.369,2.684-1.421,10.37-1.421,10.37s-1.421-0.58-2.895-0.58s-8,1.633-8,7.527s2.842,9.527,8.421,10.738	c7.685,1.947,10.58-1.264,10.58-1.264s3.737,6.525,4.316,7.631C58.434,130.26,63.698,137.312,64.592,137.945L64.592,137.945z"/><path style="fill-rule:evenodd;clip-rule:evenodd;fill:#CC2229;" d="M55.75,122.523c0.053,0.053,1.263,0.264,2.263,0.264	s5.632-0.264,10.948-5.58c1.421,2.789,5.105,4.105,8.316,4.105c3.21,0,5.895,0.369,8.474-3.789	c0.948,0.736,1.369,1.947,5.842,2.158c3.632,0.209,6.105-2.844,6.105-2.844s1.58,1.369,4.107,1.158	c2.525-0.211,4.947-2.525,4.947-2.525s1.367,0.895,3.105,0.895c1.736,0,2.314-0.58,2.314-0.58l-0.209,1.738	c0,0-8.053,0.053-13.107,2.895c-5.158,1.578-20.106,14.211-27.685,13.527c-5.053-0.422-8.475-3.58-10.369-5.053	C59.066,127.523,56.224,124.154,55.75,122.523L55.75,122.523z"/><path style="fill-rule:evenodd;clip-rule:evenodd;" d="M126.168,104.23c0-1.475,1.199-2.674,2.686-2.674	c1.48,0,2.674,1.199,2.674,2.674c0,1.486-1.193,2.686-2.674,2.686C127.367,106.916,126.168,105.717,126.168,104.23L126.168,104.23	L126.168,104.23z M131.203,104.23c0-1.299-1.051-2.352-2.35-2.352c-1.303,0-2.355,1.053-2.355,2.352	c0,1.311,1.053,2.363,2.355,2.363C130.152,106.594,131.203,105.541,131.203,104.23L131.203,104.23L131.203,104.23z M130.188,105.73	h-0.436l-0.855-1.381h-0.674v1.381h-0.363v-2.994h1.303c0.254,0,0.506,0.014,0.73,0.146c0.225,0.127,0.336,0.393,0.336,0.645	c0,0.59-0.414,0.807-0.945,0.822L130.188,105.73L130.188,105.73L130.188,105.73z M128.785,104.061c0.42,0,1.072,0.07,1.072-0.539	c0-0.463-0.406-0.52-0.779-0.52h-0.855v1.059H128.785L128.785,104.061z"/><path style="fill-rule:evenodd;clip-rule:evenodd;fill:#FFF22D;" d="M28.801,93.153l-12.527,4.316c0,0-1.369-5.474-1.369-13.264	s3.685-19.159,11.264-27.896s20.528-15.053,32.318-14.106c0-0.105,0,0.631,0,0.631s-13.264,2.421-22.844,13.686	c-9.58,11.264-9.369,22.843-9.369,24.001C26.274,81.678,26.59,87.573,28.801,93.153L28.801,93.153z"/><path style="fill-rule:evenodd;clip-rule:evenodd;fill:#FFF22D;" d="M160.967,116.732l-8-7.158c0,0,5.791-2.789,10.105-9.842	c4.316-7.053,6.58-14.896,6.369-22.16c-0.209-7.264-0.684-21.686-16.475-31.844c24.266,1.21,26.002,27.528,26.107,32.266	c0.316,8.948-2.316,19.58-5.158,24.158C171.074,109.365,162.441,116.26,160.967,116.732L160.967,116.732z"/><path style="fill-rule:evenodd;clip-rule:evenodd;fill:#CC2229;" d="M56.908,112.26l0.895-8.475c0,0,2.21,1.475,1.737,5.58	c-0.684,3.736-1.737,4.053-2.105,4C56.908,113.365,56.908,112.26,56.908,112.26L56.908,112.26z"/><path style="fill-rule:evenodd;clip-rule:evenodd;fill:#CC2229;" d="M59.381,96.048c0,0-0.315-1.685-0.158-2.632	c0.158-0.948,0.579-1.895,1.316-2.211c0.316,0.842,0.264,1.79,0.053,2.527C60.382,94.469,60.066,95.837,59.381,96.048	L59.381,96.048z"/><path style="fill-rule:evenodd;clip-rule:evenodd;" d="M74.909,107.838c0,0,4.737,0,5.369-4c-0.105-1.264-0.315-1.789-1.369-1.789	C77.856,102.049,75.014,103.311,74.909,107.838L74.909,107.838z"/><path style="fill-rule:evenodd;clip-rule:evenodd;" d="M90.173,72.204c0,0,4.737,0,5.369-4c-0.105-1.263-0.316-1.79-1.369-1.79	S90.278,67.677,90.173,72.204L90.173,72.204z"/><path style="fill-rule:evenodd;clip-rule:evenodd;" d="M19.559,126.818c-2.352-1.051-3.751,0.42-3.971,0.234	c-0.048-0.039-0.061-0.102-0.001-0.172c0.034-0.041,0.188-0.186,0.353-0.322l1.865-1.578c0.146-0.135,0.219-0.143,0.267-0.102	c0.047,0.039,0.061,0.102,0.074,0.184c0.022,0.07,0.039,0.186,0.173,0.299l4.285,3.604c0.134,0.113,0.251,0.109,0.325,0.119	c0.082,0,0.146,0.002,0.193,0.043c0.048,0.039,0.052,0.111-0.056,0.279l-1.234,2.107c-0.107,0.186-0.223,0.361-0.257,0.402	c-0.059,0.07-0.123,0.068-0.17,0.029c-0.22-0.186,0.988-1.816-0.448-3.953l-4.69,5.576c-0.542,0.645-0.364,1.035,0.105,1.43	c0.114,0.096,0.146,0.174,0.062,0.275c-0.067,0.08-0.141,0.07-0.246-0.018c-0.545-0.459-1.016-0.889-1.465-1.268	s-0.955-0.768-1.499-1.227c-0.105-0.088-0.128-0.158-0.06-0.24c0.084-0.1,0.167-0.082,0.282,0.014	c0.469,0.395,0.884,0.504,1.426-0.141L19.559,126.818L19.559,126.818z"/><path style="fill-rule:evenodd;clip-rule:evenodd;" d="M23.37,134.404c1.105,0.012,1.771,0.027,2.478,0.5	c0.655,0.438,0.933,1.191,0.364,2.045l-1.957,2.934c-0.584,0.875,0.406,0.967,0.217,1.252c-0.051,0.076-0.108,0.117-0.212,0.047	c-0.271-0.18-0.693-0.494-1.244-0.861s-1.003-0.637-1.273-0.818c-0.104-0.068-0.088-0.137-0.037-0.215	c0.19-0.283,0.655,0.596,1.239-0.279l1.913-2.867c0.351-0.525,0.307-0.934-0.14-1.232c-0.375-0.25-0.838-0.275-1.515-0.252	l-2.088,3.131c-0.584,0.875,0.407,0.967,0.217,1.252c-0.051,0.076-0.108,0.117-0.212,0.047c-0.271-0.18-0.692-0.494-1.244-0.861	s-1.002-0.637-1.273-0.818c-0.104-0.068-0.088-0.139-0.037-0.215c0.19-0.283,0.655,0.596,1.239-0.279l3.76-5.635	c0.504-0.756-0.438-1.146-0.284-1.377c0.139-0.207,0.467,0.201,2.58,0.773L23.37,134.404L23.37,134.404z"/><path style="fill-rule:evenodd;clip-rule:evenodd;" d="M27.623,138.984c-0.681,1.453-0.15,2.59,0.783,3.045	c0.686,0.332,1.177,0.266,1.67,0.053c0.369-0.158,0.45-0.352,0.551-0.303c0.034,0.016,0.05,0.068,0.027,0.115	c-0.173,0.355-1.451,1.664-3.305,0.76c-1.517-0.738-1.953-2.355-1.134-4.035c0.761-1.561,2.394-2.229,3.843-1.521	c1.259,0.611,1.912,1.984,1.161,3.637L27.623,138.984L27.623,138.984L27.623,138.984z M30.008,139.795	c0.739-1.572,0.563-2.184-0.066-2.49c-0.719-0.352-1.548,0.152-2.181,1.395L30.008,139.795L30.008,139.795z"/><path style="fill-rule:evenodd;clip-rule:evenodd;" d="M38.468,140.686c1.788,0.641,2.556,2.426,1.993,3.998	c-0.563,1.572-2.29,2.463-4.079,1.82c-1.788-0.641-2.556-2.424-1.993-3.996S36.68,140.045,38.468,140.686L38.468,140.686	L38.468,140.686z M36.462,146.281c0.753,0.27,1.578-0.105,2.328-2.197s0.351-2.906-0.402-3.176s-1.578,0.105-2.328,2.197	C35.311,145.199,35.709,146.012,36.462,146.281L36.462,146.281z"/><path style="fill-rule:evenodd;clip-rule:evenodd;" d="M43.453,144.068l0.024,0.006c0.799-1.025,1.457-1.352,2.092-1.164	c0.54,0.158,0.862,0.611,0.694,1.18c-0.153,0.518-0.509,0.795-1.001,0.65c-0.647-0.191-0.318-0.863-0.738-0.986	c-0.54-0.16-1.183,0.691-1.295,1.07l-0.717,2.422c-0.299,1.01,0.675,0.805,0.578,1.133c-0.026,0.088-0.069,0.145-0.189,0.107	c-0.312-0.092-0.808-0.266-1.443-0.453c-0.635-0.189-1.146-0.312-1.458-0.404c-0.12-0.035-0.125-0.105-0.099-0.193	c0.097-0.328,0.802,0.373,1.101-0.637l0.937-3.166c0.258-0.871-0.623-0.98-0.559-1.193c0.071-0.24,0.386,0.018,2.559-0.012	L43.453,144.068L43.453,144.068z"/><path style="fill-rule:evenodd;clip-rule:evenodd;" d="M47.573,148.684c-0.264,1.02,0.847,0.816,0.762,1.148	c-0.023,0.09-0.064,0.146-0.185,0.115c-0.387-0.1-0.961-0.275-1.603-0.441c-0.641-0.166-1.229-0.291-1.616-0.393	c-0.121-0.031-0.128-0.1-0.105-0.189c0.086-0.332,0.959,0.385,1.224-0.635l0.814-3.146c0.228-0.879-0.79-0.938-0.72-1.205	c0.063-0.242,0.507,0.035,2.691-0.119L47.573,148.684L47.573,148.684L47.573,148.684z M48.797,140.818	c0.472,0.123,0.753,0.631,0.625,1.127s-0.622,0.805-1.094,0.682c-0.472-0.121-0.753-0.629-0.625-1.127	C47.832,141.004,48.325,140.697,48.797,140.818L48.797,140.818z"/><path style="fill-rule:evenodd;clip-rule:evenodd;" d="M54.957,144.141c-0.1,0.449-0.504,0.656-0.846,0.58	c-0.305-0.066-0.431-0.365-0.675-0.418c-0.195-0.045-0.406,0.098-0.54,0.473c1.552,0.506,2.162,1.449,1.94,2.451	c-0.262,1.182-1.459,1.617-3.172,1.318c-1-0.168-1.431,0.047-1.502,0.367c-0.105,0.475,0.144,0.68,2.072,1.105	c1.696,0.377,2.244,1.023,2.005,2.102c-0.318,1.439-2.016,1.588-3.772,1.199c-1.928-0.428-2.459-1.15-2.296-1.883	c0.102-0.463,0.425-0.768,1.038-0.875c-0.346-0.346-0.409-0.697-0.295-1.211c0.151-0.682,0.732-1.225,1.864-1.137l0.006-0.025	c-1.022-0.469-1.301-1.178-1.11-2.037c0.236-1.066,1.295-1.803,3.003-1.424c0.417-1.309,1.02-1.715,1.654-1.574	C54.793,143.256,55.056,143.691,54.957,144.141L54.957,144.141L54.957,144.141z M50.535,153.01c1.562,0.346,2.33,0.113,2.461-0.479	c0.08-0.359-0.023-0.705-1.219-0.971c-2.074-0.459-2.157-0.666-2.303-0.699c-0.317-0.07-0.631,0.305-0.693,0.588	C48.616,152.193,49.192,152.713,50.535,153.01L50.535,153.01L50.535,153.01z M51.862,148.346c0.5,0.111,0.983-0.105,1.291-1.492	s-0.04-1.787-0.54-1.898c-0.5-0.111-1.008,0.1-1.315,1.486C50.991,147.83,51.362,148.234,51.862,148.346L51.862,148.346z"/><path style="fill-rule:evenodd;clip-rule:evenodd;" d="M57.147,150.758c-0.194,1.033,0.9,0.758,0.837,1.094	c-0.017,0.09-0.054,0.15-0.177,0.127c-0.393-0.074-0.978-0.211-1.628-0.332c-0.651-0.123-1.246-0.209-1.638-0.283	c-0.123-0.023-0.135-0.092-0.118-0.184c0.063-0.336,0.982,0.32,1.178-0.715l0.602-3.193c0.168-0.893-0.851-0.883-0.8-1.154	c0.046-0.246,0.509,0.002,2.676-0.299L57.147,150.758L57.147,150.758L57.147,150.758z M57.84,142.826	c0.479,0.092,0.794,0.578,0.699,1.084c-0.095,0.504-0.566,0.844-1.045,0.752c-0.479-0.09-0.794-0.578-0.699-1.082	C56.89,143.076,57.361,142.736,57.84,142.826L57.84,142.826z"/><path style="fill-rule:evenodd;clip-rule:evenodd;" d="M61.181,147.33c1.007-0.455,1.617-0.719,2.457-0.588	c0.778,0.121,1.347,0.689,1.189,1.703l-0.543,3.484c-0.162,1.039,0.775,0.707,0.723,1.045c-0.014,0.09-0.049,0.152-0.173,0.133	c-0.321-0.051-0.835-0.158-1.49-0.26c-0.655-0.102-1.177-0.158-1.499-0.207c-0.123-0.02-0.138-0.088-0.124-0.18	c0.052-0.338,0.844,0.266,1.006-0.775l0.531-3.404c0.097-0.625-0.113-0.977-0.645-1.061c-0.444-0.068-0.876,0.104-1.48,0.408	l-0.58,3.719c-0.162,1.039,0.775,0.707,0.722,1.045c-0.014,0.09-0.049,0.15-0.172,0.133c-0.321-0.051-0.835-0.158-1.49-0.26	s-1.178-0.158-1.499-0.207c-0.124-0.02-0.138-0.088-0.124-0.18c0.052-0.338,0.844,0.266,1.006-0.775l0.509-3.262	c0.141-0.896-0.747-0.889-0.712-1.109c0.038-0.248,0.384-0.033,2.534-0.35L61.181,147.33L61.181,147.33z"/><path style="fill-rule:evenodd;clip-rule:evenodd;" d="M70.322,152.918c-0.03,0.248,0.067,0.379,0.266,0.402	c0.198,0.023,0.375-0.086,0.528-0.201c0.083-0.057,0.146-0.168,0.221-0.158c0.062,0.008,0.081,0.062,0.074,0.115	c-0.023,0.195-0.777,0.807-1.597,0.707c-0.707-0.084-0.947-0.393-1.056-1.055c-0.696,0.445-1.401,0.758-2.22,0.66	c-0.646-0.078-1.231-0.441-1.121-1.355c0.096-0.797,0.547-1.193,2.204-1.668l1.473-0.42l0.18-1.488	c0.052-0.432-0.043-0.682-0.404-0.725c-0.496-0.061-1.005,0.195-1.198,0.848c-0.264,0.938-0.519,1.277-1.165,1.199	c-0.372-0.045-0.596-0.377-0.544-0.809c0.113-0.939,2.036-1.637,3.488-1.461c0.968,0.117,1.448,0.625,1.299,1.854L70.322,152.918	L70.322,152.918L70.322,152.918z M69.063,150.207c-1.276,0.35-1.845,0.678-1.944,1.502c-0.091,0.758,0.125,1.049,0.547,1.1	c0.36,0.043,0.812-0.154,1.13-0.393L69.063,150.207L69.063,150.207z"/><path style="fill-rule:evenodd;clip-rule:evenodd;" d="M73.694,153.016c-0.103,1.049,0.964,0.678,0.93,1.018	c-0.009,0.092-0.04,0.154-0.165,0.143c-0.398-0.039-0.993-0.125-1.652-0.189s-1.26-0.098-1.657-0.137	c-0.125-0.012-0.143-0.08-0.134-0.172c0.033-0.34,1.007,0.232,1.11-0.816l0.661-6.742c0.089-0.902-0.926-0.805-0.898-1.078	c0.024-0.25,0.506-0.043,2.64-0.533L73.694,153.016L73.694,153.016z"/><path style="fill-rule:evenodd;clip-rule:evenodd;" d="M84.223,147.646c-0.03,0.461-0.398,0.727-0.748,0.703	c-0.312-0.021-0.482-0.295-0.731-0.312c-0.2-0.012-0.386,0.16-0.462,0.551c1.612,0.264,2.358,1.104,2.291,2.129	c-0.08,1.207-1.197,1.82-2.937,1.785c-1.013-0.014-1.408,0.264-1.429,0.592c-0.032,0.486,0.246,0.65,2.217,0.779	c1.734,0.113,2.374,0.67,2.301,1.771c-0.097,1.471-1.752,1.877-3.548,1.76c-1.971-0.129-2.606-0.764-2.557-1.512	c0.031-0.473,0.305-0.824,0.895-1.023c-0.395-0.289-0.511-0.627-0.476-1.152c0.046-0.695,0.538-1.322,1.671-1.408l0.002-0.025	c-1.083-0.309-1.465-0.967-1.407-1.846c0.072-1.09,1.007-1.979,2.754-1.863c0.215-1.359,0.748-1.852,1.396-1.809	C83.928,146.797,84.253,147.188,84.223,147.646L84.223,147.646L84.223,147.646z M81.196,157.09	c1.597,0.104,2.321-0.244,2.361-0.848c0.024-0.369-0.13-0.695-1.352-0.775c-2.121-0.139-2.234-0.33-2.384-0.34	c-0.324-0.021-0.578,0.396-0.597,0.686C79.175,156.574,79.824,157,81.196,157.09L81.196,157.09L81.196,157.09z M81.801,152.275	c0.511,0.033,0.956-0.254,1.049-1.672s-0.31-1.762-0.822-1.795s-0.981,0.252-1.074,1.67	C80.861,151.898,81.29,152.242,81.801,152.275L81.801,152.275z"/><path style="fill-rule:evenodd;clip-rule:evenodd;" d="M88.103,148.891c1.898,0.078,3.165,1.551,3.097,3.221	c-0.068,1.67-1.45,3.035-3.348,2.957c-1.898-0.076-3.165-1.551-3.096-3.219C84.823,150.18,86.205,148.814,88.103,148.891	L88.103,148.891L88.103,148.891z M87.861,154.832c0.799,0.033,1.474-0.572,1.565-2.793s-0.533-2.879-1.333-2.912	c-0.799-0.031-1.475,0.572-1.565,2.795C86.438,154.143,87.062,154.801,87.861,154.832L87.861,154.832z"/><path style="fill-rule:evenodd;clip-rule:evenodd;" d="M96.882,153.592c-0.015,0.908,0.862,0.777,0.858,1.002	c-0.004,0.25-0.375,0.086-2.46,0.695l0.017-1.025c-0.634,0.568-1.216,1.006-2.278,0.988c-1.075-0.018-1.504-0.525-1.489-1.473	l0.049-3.014c0.015-0.906-0.862-0.777-0.859-1c0.004-0.25,0.376-0.086,2.461-0.697l-0.076,4.658	c-0.01,0.633,0.222,0.898,0.823,0.908c0.512,0.01,0.979-0.26,1.374-0.74l0.05-3.064c0.015-0.908-0.862-0.779-0.858-1.002	c0.004-0.25,0.376-0.086,2.461-0.697L96.882,153.592L96.882,153.592z"/><path style="fill-rule:evenodd;clip-rule:evenodd;" d="M100.357,150.84h0.025c0.471-1.213,1.008-1.715,1.67-1.717	c0.562-0.002,1,0.338,1.004,0.93c0.002,0.539-0.26,0.91-0.773,0.912c-0.674,0.002-0.553-0.736-0.99-0.734	c-0.562,0.002-0.934,1.004-0.932,1.398l0.01,2.527c0.002,1.053,0.877,0.574,0.877,0.918c0,0.092-0.023,0.156-0.148,0.158	c-0.326,0-0.852-0.023-1.514-0.021s-1.188,0.031-1.512,0.033c-0.127,0-0.15-0.066-0.15-0.158c-0.002-0.342,0.875,0.129,0.871-0.924	l-0.012-3.303c-0.004-0.908-0.879-0.76-0.879-0.984c0-0.25,0.375-0.094,2.447-0.746L100.357,150.84L100.357,150.84z"/><path style="fill-rule:evenodd;clip-rule:evenodd;" d="M105.756,150.055c0.578-0.486,1.205-1.041,1.979-1.074	c0.65-0.029,1.186,0.197,1.494,0.934c0.576-0.525,1.291-1.059,2.09-1.094c0.938-0.041,1.41,0.465,1.455,1.449l0.156,3.51	c0.049,1.053,0.9,0.541,0.916,0.883c0.004,0.092-0.018,0.158-0.143,0.164c-0.324,0.014-0.85,0.012-1.512,0.041	s-1.186,0.078-1.436,0.09c-0.125,0.006-0.152-0.059-0.156-0.152c-0.016-0.34,0.805,0.098,0.758-0.955l-0.156-3.469	c-0.025-0.553-0.291-0.91-0.74-0.891c-0.363,0.016-0.775,0.299-1.197,0.672l0.17,3.773c0.047,1.051,0.824,0.543,0.84,0.885	c0.006,0.092-0.018,0.158-0.143,0.164c-0.25,0.012-0.775,0.008-1.438,0.037s-1.186,0.08-1.436,0.092	c-0.123,0.004-0.152-0.061-0.156-0.152c-0.016-0.342,0.805,0.096,0.758-0.955l-0.16-3.576c-0.023-0.525-0.285-0.803-0.723-0.783	c-0.275,0.012-0.668,0.188-1.209,0.672l0.17,3.773c0.047,1.051,0.824,0.543,0.84,0.885c0.004,0.092-0.018,0.158-0.143,0.164	c-0.25,0.01-0.775,0.008-1.438,0.037s-1.186,0.08-1.51,0.094c-0.125,0.006-0.154-0.059-0.158-0.15	c-0.016-0.342,0.881,0.092,0.834-0.961l-0.148-3.299c-0.041-0.906-0.908-0.723-0.918-0.947c-0.012-0.25,0.371-0.107,2.414-0.844	L105.756,150.055L105.756,150.055z"/><path style="fill-rule:evenodd;clip-rule:evenodd;" d="M115.229,151.268c0.176,1.596,1.219,2.291,2.252,2.193	c0.758-0.07,1.143-0.385,1.453-0.822c0.234-0.326,0.201-0.535,0.314-0.545c0.037-0.004,0.078,0.033,0.082,0.084	c0.037,0.395-0.373,2.176-2.426,2.369c-1.68,0.156-2.893-0.998-3.066-2.859c-0.162-1.729,0.885-3.146,2.49-3.297	c1.393-0.131,2.664,0.701,2.883,2.504L115.229,151.268L115.229,151.268L115.229,151.268z M117.688,150.721	c-0.186-1.727-0.654-2.16-1.35-2.094c-0.797,0.074-1.244,0.936-1.139,2.326L117.688,150.721L117.688,150.721z"/><path style="fill-rule:evenodd;clip-rule:evenodd;" d="M123.088,147.754l-0.219,0.664l-1.414,0.18l0.465,3.654	c0.104,0.809,0.479,1.08,0.938,1.021c0.396-0.051,0.609-0.25,0.799-0.553c0.094-0.145,0.09-0.277,0.164-0.285	c0.051-0.008,0.092,0.027,0.102,0.092c0.023,0.197-0.342,1.291-1.717,1.465c-1.08,0.137-1.709-0.447-1.838-1.465l-0.475-3.732	l-0.77,0.098c0.93-1.02,1.469-1.938,1.941-3.164l0.025-0.002l0.285,2.244L123.088,147.754L123.088,147.754z"/><path style="fill-rule:evenodd;clip-rule:evenodd;" d="M130.193,152.357c0.393,2.229-0.746,3.123-1.951,3.336	c-0.838,0.146-1.344-0.285-1.432-0.777c-0.076-0.441,0.148-0.814,0.531-0.883c0.381-0.066,0.744,0.191,0.826,0.658	c0.021,0.129,0.02,0.184,0.041,0.312c0.049,0.271,0.225,0.414,0.473,0.371c0.406-0.072,0.6-0.412,0.533-0.789	c-0.078-0.439-0.303-0.426-0.398-0.971l-0.891-5.066c-0.156-0.895-1.107-0.527-1.154-0.799c-0.045-0.246,0.477-0.178,2.398-1.223	L130.193,152.357L130.193,152.357L130.193,152.357z M127.895,143.812c0.479-0.084,0.945,0.262,1.035,0.766	c0.088,0.506-0.232,0.99-0.713,1.074s-0.947-0.262-1.035-0.766C127.092,144.381,127.414,143.896,127.895,143.812L127.895,143.812z"	/><path style="fill-rule:evenodd;clip-rule:evenodd;" d="M131.621,148.781c0.359,1.564,1.479,2.131,2.492,1.914	c0.746-0.16,1.092-0.516,1.35-0.988c0.193-0.352,0.137-0.555,0.246-0.578c0.037-0.008,0.082,0.023,0.094,0.074	c0.082,0.387-0.117,2.205-2.135,2.637c-1.648,0.354-2.988-0.65-3.379-2.479c-0.363-1.697,0.51-3.23,2.086-3.566	c1.369-0.295,2.729,0.383,3.156,2.148L131.621,148.781L131.621,148.781L131.621,148.781z M134,147.949	c-0.389-1.693-0.902-2.068-1.586-1.922c-0.783,0.168-1.125,1.076-0.859,2.445L134,147.949L134,147.949z"/><path style="fill-rule:evenodd;clip-rule:evenodd;" d="M138.58,149.629c0.262,1.02,1.137,0.307,1.223,0.639	c0.021,0.088,0.014,0.158-0.107,0.189c-0.387,0.1-0.975,0.223-1.615,0.387c-0.643,0.166-1.217,0.34-1.605,0.439	c-0.121,0.031-0.16-0.027-0.184-0.115c-0.086-0.332,1.025-0.127,0.764-1.146l-1.682-6.564c-0.225-0.879-1.145-0.439-1.213-0.707	c-0.062-0.242,0.461-0.213,2.297-1.404L138.58,149.629L138.58,149.629z"/><path style="fill-rule:evenodd;clip-rule:evenodd;" d="M142.041,148.662c0.293,1.012,1.145,0.27,1.24,0.6	c0.025,0.088,0.02,0.158-0.1,0.193c-0.385,0.111-0.969,0.254-1.605,0.438c-0.635,0.184-1.205,0.377-1.588,0.488	c-0.121,0.035-0.164-0.021-0.189-0.111c-0.094-0.328,1.021-0.158,0.729-1.17l-1.885-6.506c-0.252-0.873-1.158-0.404-1.234-0.67	c-0.07-0.24,0.453-0.229,2.254-1.475L142.041,148.662L142.041,148.662z"/><path style="fill-rule:evenodd;clip-rule:evenodd;" d="M142.906,144.158c-0.699-0.775-1.068-0.232-1.172-0.531	c-0.02-0.062,0.021-0.133,0.152-0.176c0.449-0.154,0.896-0.277,1.322-0.424c0.426-0.145,0.855-0.318,1.281-0.463	c0.094-0.033,0.158,0,0.18,0.062c0.061,0.174-0.504,0.227-0.348,0.688c0.035,0.102,0.205,0.293,0.336,0.443l2.061,2.328	l0.104-1.828c0.014-0.352-0.025-0.812-0.152-1.186c-0.361-1.059-1.082-0.465-1.168-0.715c-0.025-0.074,0.006-0.141,0.1-0.172	c0.355-0.121,0.719-0.217,1.074-0.338s0.701-0.266,1.057-0.389c0.07-0.023,0.131-0.002,0.152,0.061	c0.059,0.174-0.141,0.131-0.355,0.469c-0.189,0.258-0.363,0.832-0.42,1.754l-0.387,5.115c-0.041,0.695-0.273,1.094-0.748,1.254	c-0.438,0.15-0.922-0.074-1.08-0.535c-0.156-0.461-0.01-0.844,0.416-0.988c0.26-0.09,0.496-0.018,0.715,0.158	c0.201,0.168,0.236,0.268,0.354,0.227c0.119-0.039,0.152-0.176,0.154-0.398l0.059-0.305L142.906,144.158L142.906,144.158z"/><path style="fill-rule:evenodd;clip-rule:evenodd;" d="M152.312,140.291c0.322-0.787,0.734-1.385,1.461-1.721	c1.225-0.566,2.654-0.068,3.352,1.436c0.818,1.768,0.135,3.768-1.555,4.549c-0.738,0.342-1.324,0.324-2.227,0.162l-0.164,0.801	c-0.02,0.111-0.025,0.156-0.059,0.172c-0.023,0.012-0.045-0.008-0.062-0.043l-3.309-7.141c-0.383-0.824-1.207-0.225-1.322-0.475	c-0.105-0.227,0.414-0.295,2.002-1.799L152.312,140.291L152.312,140.291L152.312,140.291z M153.852,143.611	c0.387,0.836,0.949,1.039,1.584,0.744c1.021-0.473,1.1-1.697,0.441-3.119c-0.648-1.396-1.738-1.965-2.713-1.514	c-0.307,0.143-0.568,0.408-0.719,0.855L153.852,143.611L153.852,143.611z"/><path style="fill-rule:evenodd;clip-rule:evenodd;" d="M158.533,139.018c0.82,1.379,2.059,1.578,2.959,1.062	c0.662-0.379,0.881-0.824,0.982-1.352c0.076-0.395-0.039-0.57,0.059-0.625c0.033-0.02,0.086-0.004,0.111,0.041	c0.197,0.344,0.561,2.135-1.227,3.16c-1.465,0.84-3.047,0.293-3.977-1.328c-0.863-1.506-0.5-3.232,0.898-4.033	c1.215-0.697,2.717-0.467,3.664,1.084L158.533,139.018L158.533,139.018L158.533,139.018z M160.545,137.5	c-0.887-1.494-1.49-1.693-2.098-1.346c-0.693,0.398-0.742,1.365-0.07,2.588L160.545,137.5L160.545,137.5z"/><path style="fill-rule:evenodd;clip-rule:evenodd;" d="M167.926,135.777c0.143,0.205,0.303,0.238,0.467,0.123	s0.221-0.316,0.258-0.502c0.025-0.098-0.002-0.223,0.059-0.266c0.053-0.035,0.102-0.008,0.133,0.035	c0.113,0.162-0.041,1.121-0.717,1.594c-0.584,0.408-0.969,0.338-1.492-0.082c-0.221,0.797-0.537,1.5-1.213,1.973	c-0.533,0.371-1.211,0.492-1.74-0.262c-0.459-0.658-0.387-1.254,0.529-2.713l0.82-1.295l-0.859-1.229	c-0.25-0.355-0.488-0.479-0.785-0.271c-0.41,0.287-0.617,0.818-0.326,1.432c0.428,0.873,0.465,1.297-0.068,1.67	c-0.307,0.215-0.695,0.117-0.945-0.238c-0.541-0.777,0.426-2.578,1.625-3.416c0.799-0.559,1.496-0.498,2.205,0.514L167.926,135.777	L167.926,135.777L167.926,135.777z M165.18,134.598c-0.719,1.113-0.922,1.736-0.447,2.416c0.436,0.625,0.793,0.697,1.141,0.455	c0.297-0.209,0.502-0.656,0.58-1.049L165.18,134.598L165.18,134.598z"/><path style="fill-rule:evenodd;clip-rule:evenodd;" d="M167.854,130.158c0.293-1.064,0.48-1.703,1.117-2.266	c0.592-0.521,1.393-0.596,2.07,0.174l2.332,2.645c0.697,0.789,1.039-0.145,1.266,0.111c0.061,0.068,0.086,0.135-0.008,0.217	c-0.244,0.215-0.654,0.543-1.152,0.98c-0.496,0.439-0.873,0.807-1.117,1.021c-0.094,0.082-0.156,0.049-0.217-0.02	c-0.227-0.258,0.744-0.48,0.047-1.27l-2.279-2.584c-0.418-0.475-0.822-0.537-1.227-0.182c-0.338,0.297-0.48,0.738-0.633,1.398	l2.488,2.822c0.697,0.789,1.039-0.145,1.266,0.111c0.061,0.068,0.086,0.135-0.008,0.219c-0.244,0.215-0.654,0.541-1.152,0.98	c-0.496,0.438-0.873,0.805-1.117,1.02c-0.094,0.082-0.156,0.049-0.217-0.02c-0.227-0.258,0.744-0.48,0.047-1.27l-2.184-2.477	c-0.6-0.68-1.16,0.008-1.309-0.16c-0.164-0.188,0.221-0.318,1.352-2.174L167.854,130.158L167.854,130.158z"/><path style="fill-rule:evenodd;clip-rule:evenodd;" d="M175.123,128.396c0.346-0.377,0.936-0.377,1.324-0.021	c0.396,0.365,0.436,0.945,0.09,1.322c-0.34,0.367-0.928,0.387-1.326,0.021C174.824,129.361,174.783,128.764,175.123,128.396	L175.123,128.396z"/><path style="fill-rule:evenodd;clip-rule:evenodd;" d="M171.172,124.086c-0.736-1.275-0.297-2.914,0.99-3.658	c1.283-0.74,2.914-0.297,3.65,0.979c0.744,1.287,0.311,2.924-0.971,3.662C173.555,125.812,171.916,125.373,171.172,124.086	L171.172,124.086L171.172,124.086z M175.533,121.568c-0.648-1.125-2.086-1.51-3.209-0.861c-1.131,0.652-1.516,2.09-0.867,3.215	c0.656,1.135,2.094,1.52,3.225,0.867C175.805,124.141,176.189,122.703,175.533,121.568L175.533,121.568L175.533,121.568z M175.404,123.377l-0.377,0.217l-1.432-0.77l-0.584,0.338l0.691,1.195l-0.316,0.184l-1.498-2.594l1.131-0.652	c0.219-0.127,0.443-0.24,0.705-0.238c0.258-0.002,0.488,0.172,0.613,0.391c0.295,0.51,0.045,0.906-0.408,1.184L175.404,123.377	L175.404,123.377L175.404,123.377z M173.354,122.631c0.365-0.209,0.965-0.475,0.66-1.004c-0.232-0.4-0.611-0.246-0.934-0.059	l-0.742,0.428l0.531,0.916L173.354,122.631L173.354,122.631z"/></g></svg>