<?xml version="1.0" encoding="utf-8"?>
<!-- Generator: Adobe Illustrator 18.1.1, SVG Export Plug-In . SVG Version: 6.00 Build 0)  -->
<svg version="1.1"
	 id="Layer_1" xmlns:dc="http://purl.org/dc/elements/1.1/" xmlns:cc="http://creativecommons.org/ns#" xmlns:rdf="http://www.w3.org/1999/02/22-rdf-syntax-ns#" xmlns:svg="http://www.w3.org/2000/svg" xmlns:sodipodi="http://sodipodi.sourceforge.net/DTD/sodipodi-0.dtd" xmlns:inkscape="http://www.inkscape.org/namespaces/inkscape" sodipodi:docname="AJAX.svg" inkscape:version="0.48.1 "
	 xmlns="http://www.w3.org/2000/svg" xmlns:xlink="http://www.w3.org/1999/xlink" x="0px" y="0px" viewBox="85 119.3 1302.6 512"
	 enable-background="new 85 119.3 1302.6 512" xml:space="preserve">
<sodipodi:namedview  inkscape:cy="36.629003" inkscape:cx="358.12937" inkscape:zoom="1.3855368" fit-margin-top="0" fit-margin-left="0" showgrid="false" guidetolerance="10" gridtolerance="10" objecttolerance="10" borderopacity="1" pagecolor="#ffffff" bordercolor="#666666" id="namedview37" inkscape:current-layer="Layer_1" inkscape:window-maximized="1" inkscape:window-y="-8" inkscape:window-x="-8" fit-margin-right="0" fit-margin-bottom="0" inkscape:window-height="1004" inkscape:window-width="1280" inkscape:pageshadow="2" inkscape:pageopacity="0">
	</sodipodi:namedview>
<g id="g3" transform="translate(0,-3.1386552e-6)">
	<path id="path5" inkscape:connector-curvature="0" fill="#003876" d="M550.3,586.3l22.3-47.5l22.3,47.5H550.3L550.3,586.3
		L550.3,586.3L550.3,586.3z M508.2,628.7h22.1l11.3-24.5h61.5l11.2,24.5h22L584.5,522h-23.8L508.2,628.7L508.2,628.7L508.2,628.7z"
		/>
	<path id="polygon7" inkscape:connector-curvature="0" fill="#003876" d="M664.6,522h20.8v106.7h-20.8V522L664.6,522z"/>
	<path id="path9" inkscape:connector-curvature="0" fill="#003876" d="M746,569.4v-30.1h40.2c17,0,25.7,2.5,25.7,15
		c0,12.6-8.7,15.1-25.7,15.1H746L746,569.4L746,569.4L746,569.4z M725.2,628.7H746v-41.9h33l31,42h25.7l-32.7-43.4
		c15.7-0.9,29.8-11.7,29.8-31.4c0-26.1-18.2-31.8-43.4-31.8h-64.1L725.2,628.7L725.2,628.7L725.2,628.7z"/>
	<path id="polygon11" inkscape:connector-curvature="0" fill="#003876" d="M859,522h20.8l20.6,73.3h0.3L921,522h20l20.7,73.2h0.3
		l20.4-73.2h20.4l-31.1,106.7h-20L931.4,553h-0.3l-20.4,75.7h-20.4L859,522L859,522z"/>
	<path id="path13" inkscape:connector-curvature="0" fill="#003876" d="M1056.6,586.3l22.3-47.5l22.3,47.5H1056.6L1056.6,586.3
		L1056.6,586.3L1056.6,586.3z M1014.5,628.7h22.2l11.3-24.5h61.5l11.1,24.5h22L1090.8,522H1067L1014.5,628.7L1014.5,628.7
		L1014.5,628.7z"/>
	<path id="polygon15" inkscape:connector-curvature="0" fill="#003876" d="M1192.8,586l-52.1-63.9h25.5l37,45.2L1240,522h25.7
		l-52.1,63.9v42.7h-20.8L1192.8,586L1192.8,586z"/>
	<path id="path17" inkscape:connector-curvature="0" fill="#003876" d="M1366.2,554.5c-3.4-9.5-12-17.8-37.4-17.8
		c-14.1,0-28.3,3.5-28.3,13.3c0,4.6,2.6,9.4,23.9,12l25.2,3.8c23.9,3.7,38,12.9,38,30.8c0,25.2-24.1,34.6-52.5,34.6
		c-45.8,0-56.9-22.6-59.4-30.7l20.1-6.3c3.8,7.8,11.7,19.1,39.9,19.1c17,0,31.1-5.6,31.1-14.8c0-6.9-7.9-11.4-23.2-13.3l-25.5-3.5
		c-24.6-3.4-38.5-14.1-38.5-30.4c0-32,41.5-32,49.7-32c45.9,0,53.8,21.3,56.5,28.6L1366.2,554.5L1366.2,554.5L1366.2,554.5z"/>
	<path id="path19" inkscape:connector-curvature="0" fill="#003876" d="M121.6,206.7h43.5v232.9c0,36.2-26.4,60.5-63.1,60.5H85
		v-40.9h12.3c14.9,0,24.3-6.8,24.3-23V206.7L121.6,206.7L121.6,206.7z M121.6,119.3h43.5v43.5h-43.5V119.3L121.6,119.3z"/>
	<path id="path21" inkscape:connector-curvature="0" fill="#003876" d="M236.6,295.3c0.8-32.8,20-50.3,45.6-50.3
		c25.6,0,44.3,17.5,45.6,50.3H236.6L236.6,295.3L236.6,295.3z M371.2,331.1v-35.8c0-55.8-41.3-91.2-89-91.2
		c-41.8,0-89.1,27.3-89.1,111.2c0,88.6,51.5,109.9,95.9,109.9c29,0,56.7-10.2,77.9-35l-31.5-26.8c-12.8,13.2-30.7,20.9-47.3,20.9
		c-29.8,0-51.6-17.9-51.6-53.3L371.2,331.1L371.2,331.1z"/>
	<path id="path23" inkscape:connector-curvature="0" fill="#003876" d="M405.7,141.1h43.5v65.6h31.5v33.2h-31.5v125.7
		c0,11.9,4.7,16.2,15.3,16.2h16.2v40.9h-22.6c-30.3,0-52.4-19.2-52.4-53.3V239.9h-21.8v-33.2h21.8V141.1L405.7,141.1L405.7,141.1z"
		/>
	<path id="path25" inkscape:connector-curvature="0" fill="#003876" d="M625.1,288.1c34.1,0,49.4,21.7,49.4,45.6
		c0,23.9-15.3,45.6-49.4,45.6h-70.7v-91.2H625.1L625.1,288.1L625.1,288.1z M508.3,422.7h127.8c45.6,0,84.4-33.7,84.4-86.1
		c0-30.7-16.2-62.2-49.4-69.9v-0.8c35.4-15.8,44.8-40.1,44.8-65.2c0-47.7-30.7-81.4-89.9-81.4H508.3V422.7L508.3,422.7L508.3,422.7
		L508.3,422.7z M620.8,160.3c33.2,0,49,20,49,43.5c0,23.8-15.8,43.5-49,43.5h-66.5v-86.9H620.8L620.8,160.3z"/>
	<path id="path27" inkscape:connector-curvature="0" fill="#003876" d="M745.5,119.3H789v247.6c0,9.8,5.5,14.9,16.2,14.9h14.9v40.9
		h-19.2c-31.6,0-55.4-13.6-55.4-52.4V119.3L745.5,119.3L745.5,119.3z"/>
	<path id="path29" inkscape:connector-curvature="0" fill="#003876" d="M838.4,206.7h43.5v128.7c0,29.4,18.3,46.5,43.1,46.5
		c24.3,0,42.6-17,42.6-46.5V206.7h43.5v216h-43.5v-23h-0.8c-13.6,17.1-33.3,25.6-55.8,25.6c-34.1,0-72.4-26-72.4-75L838.4,206.7
		L838.4,206.7z"/>
	<path id="path31" inkscape:connector-curvature="0" fill="#003876" d="M1077.8,295.3c0.9-32.8,20-50.3,45.6-50.3
		c25.6,0,44.3,17.5,45.6,50.3H1077.8L1077.8,295.3L1077.8,295.3z M1212.4,331.1v-35.8c0-55.8-41.3-91.2-89.1-91.2
		c-41.8,0-89.1,27.3-89.1,111.2c0,88.6,51.6,109.9,95.9,109.9c29,0,56.7-10.2,78-35l-31.5-26.8c-12.8,13.2-30.7,20.9-47.3,20.9
		c-29.8,0-51.6-17.9-51.6-53.3L1212.4,331.1L1212.4,331.1L1212.4,331.1z"/>
</g>
</svg>
