<?xml version="1.0" encoding="UTF-8" standalone="no"?>
<svg width="107px" height="34px" viewBox="0 0 107 34" version="1.1" xmlns="http://www.w3.org/2000/svg" xmlns:xlink="http://www.w3.org/1999/xlink" xmlns:sketch="http://www.bohemiancoding.com/sketch/ns">
    <!-- Generator: Sketch 3.5.1 (25234) - http://www.bohemiancoding.com/sketch -->
    <title>Untitled</title>
    <desc>Created with Sketch.</desc>
    <defs></defs>
    <g id="Page-1" stroke="none" stroke-width="1" fill="none" fill-rule="evenodd" sketch:type="MSPage">
        <g id="j_jukedeck" sketch:type="MSLayerGroup" fill="#3498DB">
            <g id="Page-1" sketch:type="MSShapeGroup">
                <g id="j_jukedeck_make">
                    <g id="dashboard">
                        <g id="Artboard-20">
                            <g id="jukedeck">
                                <path d="M34,16.9998553 C34,7.61109252 26.3887146,0 17,0 C7.61133361,1.37045133e-15 0,7.61109252 0,16.9998553 C0,26.3887146 7.61138183,33.9997107 17,33.9997107 C26.3887628,33.9997107 34,26.3887146 34,16.9998553 L34,16.9998553 L34,16.9998553 Z M21.4125848,9.88459539 C21.4165959,9.47512799 21.2423873,9.1306484 20.8733993,8.95367988 C20.5076865,8.77803613 20.076397,8.82848817 19.7602898,9.08148434 L19.760069,9.08089555 C19.7548802,9.0842075 19.0206946,9.6592724 17.3460991,10.1345004 C16.4560678,10.3872758 15.7306771,10.6487726 15.1201008,10.9555328 C14.6629045,11.1858237 14.2683409,11.4438614 13.9338339,11.7492968 C13.6836345,11.9775637 13.4696826,12.233283 13.2994851,12.5087269 C13.0421834,12.9219846 12.8897233,13.3712322 12.8067038,13.8168367 C12.7234635,14.2643179 12.7021198,14.7119463 12.7016414,15.1779745 C12.7016414,15.7592953 13.1728583,16.2306226 13.7541791,16.2306226 C14.3356471,16.2306226 14.8067167,15.7592585 14.8067167,15.1779745 C14.8058703,14.707052 14.8373339,14.34064 14.9046033,14.0726296 C14.9550553,13.8700119 15.0192335,13.7221149 15.1108641,13.5829394 C15.1807095,13.4787234 15.2684025,13.3769361 15.3956918,13.2663906 C15.5857977,13.1017867 15.869411,12.9199607 16.2836992,12.7325043 C16.6973985,12.5447535 17.2379087,12.3532124 17.9201336,12.1599418 C18.4739652,12.0031393 18.9122466,11.8172285 19.3150165,11.6509687 L19.3150165,19.0476567 C19.3156053,19.5684424 19.3429105,20.0487856 19.2639021,20.482835 C19.2052438,20.8086573 19.1192067,21.1025376 19.0014853,21.3647337 C18.9132402,21.5615371 18.8078466,21.7407872 18.6782757,21.9086662 C18.4833491,22.159712 18.2347321,22.3884942 17.883555,22.600091 C17.5329667,22.810915 17.0766904,23.0020145 16.4818642,23.1502794 C16.2127867,23.217328 15.9760926,23.2445228 15.7723341,23.2443756 C15.5063845,23.244302 15.2959653,23.1993699 15.1265407,23.1326157 C14.8728821,23.03127 14.7038623,22.8833731 14.5823873,22.7023198 C14.4627891,22.5211194 14.3960349,22.3018315 14.3960349,22.0644383 C14.3968813,21.7810458 14.4891007,21.4760152 14.7189501,21.1834964 C14.9500874,20.8928544 15.3259937,20.6051196 15.9389252,20.4097145 C16.9356749,20.0940489 17.4701132,19.9291506 17.7497154,19.8448431 C17.8894429,19.8027813 17.9651761,19.7805912 18.0003564,19.7710234 L18.0188297,19.7646203 C18.5650807,19.6321423 18.914381,19.0914481 18.8024003,18.5353717 C18.688138,17.9654219 18.133092,17.5962499 17.562995,17.7109905 C17.5317891,17.7171729 16.6194205,17.985772 15.3031412,18.4028569 C14.3453621,18.7046491 13.5826201,19.2249564 13.0673543,19.8782937 C12.5511685,20.5300487 12.2898188,21.3054866 12.290702,22.0644751 C12.290702,22.4884046 12.3711456,22.9079183 12.529604,23.2995012 C12.7663716,23.8869307 13.1848917,24.4118379 13.7485119,24.7790964 C14.311433,25.1478636 15.011064,25.3512173 15.7723341,25.3497821 C16.162813,25.3497821 16.5703668,25.2979685 16.9908005,25.1930901 C17.8923132,24.9684663 18.6480634,24.6411721 19.2682812,24.2108026 C19.7331686,23.8887339 20.1185323,23.5087428 20.4212814,23.0929459 C20.8772633,22.468349 21.1421825,21.7747163 21.2900794,21.0873027 C21.4385652,20.3980859 21.4119224,19.7172962 21.412548,19.0477303 C21.4125848,18.8793361 21.4125848,9.88518418 21.4125848,9.88459539 L21.4125848,9.88459539 L21.4125848,9.88459539 Z" id="path9"></path>
                                <path d="M42.488,23.08 C44.744,23.08 45.688,21.736 45.688,19.304 L45.688,11.64 L44.312,11.64 L44.312,19.272 C44.312,21.112 43.544,21.752 42.44,21.752 C41.656,21.752 40.84,21.24 40.296,20.616 L39.512,21.64 C40.296,22.6 41.48,23.08 42.488,23.08 L42.488,23.08 L42.488,23.08 L42.488,23.08 Z M53.4239982,15.21 L53.4239982,18.986 C53.4239982,20.842 52.3519982,21.914 51.1199982,21.914 C49.8719982,21.914 49.2159982,21.258 49.2159982,19.482 L49.2159982,15.21 L47.9199982,15.21 L47.9199982,19.85 C47.9199982,22.074 49.0559982,23.098 50.8479982,23.098 C51.8559982,23.098 52.7839982,22.602 53.4079982,21.706 L53.4239982,21.706 L53.4239982,23.002 L54.7199982,23.002 L54.7199982,15.21 L53.4239982,15.21 L53.4239982,15.21 L53.4239982,15.21 Z M62.2680005,22.9960003 L63.7560005,22.9960003 L60.8280005,18.4360003 L63.7400005,15.2040003 L62.1560005,15.2040003 L58.3320005,19.4600003 L58.3000005,19.4600003 L58.3000005,11.2200003 L57.0200005,11.2200003 L57.0200005,22.9960003 L58.3000005,22.9960003 L58.3000005,21.2360003 L59.9320005,19.4280003 L59.9640005,19.4280003 L62.2680005,22.9960003 L62.2680005,22.9960003 Z M68.1079973,15.112 C66.9330826,15.112 65.9116672,15.6220139 65.2365726,16.4795209 C64.6981325,17.163449 64.3799973,18.0684277 64.3799973,19.112 C64.3799973,21.48 66.0439973,23.096 68.2519973,23.096 C69.6759973,23.096 70.7319973,22.504 71.4039973,21.64 L70.4919973,20.856 C70.0119973,21.464 69.2759973,21.912 68.2999973,21.912 C66.8919973,21.912 65.8679973,20.968 65.6919973,19.512 L71.6919973,19.512 C71.6919973,19.464 71.7239973,19.192 71.7239973,18.984 C71.7239973,16.744 70.2839973,15.112 68.1079973,15.112 L68.1079973,15.112 Z M68.1719979,16.3099995 C69.4199979,16.3099995 70.2359979,17.1579995 70.4439979,18.4379995 L65.7399979,18.4379995 C65.9799979,17.1099995 66.9559979,16.3099995 68.1719979,16.3099995 L68.1719979,16.3099995 L68.1719979,16.3099995 L68.1719979,16.3099995 Z M79.5900006,16.3720003 C78.9340006,15.5560003 77.9740006,15.1080003 76.9180006,15.1080003 C74.7100006,15.1080003 73.1100006,16.8520003 73.1100006,19.1560003 C73.1100006,21.5400003 74.7740006,23.0920003 76.9340006,23.0920003 C78.0540006,23.0920003 78.9980006,22.5960003 79.6220006,21.7640003 L79.6540006,21.7640003 L79.6540006,22.9960003 L80.8860006,22.9960003 L80.8860006,11.2200003 L79.5900006,11.2200003 L79.5900006,16.3720003 L79.5900006,16.3720003 Z M77.0439982,21.9099995 C75.4599982,21.9099995 74.4199982,20.7259995 74.4199982,19.1579995 C74.4199982,17.4299995 75.5879982,16.3099995 77.0599982,16.3099995 C78.5319982,16.3099995 79.6359982,17.5579995 79.6359982,19.1579995 C79.6359982,20.8059995 78.4199982,21.9099995 77.0439982,21.9099995 L77.0439982,21.9099995 L77.0439982,21.9099995 L77.0439982,21.9099995 Z M86.3179963,15.1099997 C84.2059963,15.1099997 82.5899963,16.7579997 82.5899963,19.1099997 C82.5899963,21.4779997 84.2539963,23.0939997 86.4619963,23.0939997 C87.8859963,23.0939997 88.9419963,22.5019997 89.6139963,21.6379997 L88.7019963,20.8539997 C88.2219963,21.4619997 87.4859963,21.9099997 86.5099963,21.9099997 C85.1019963,21.9099997 84.0779963,20.9659997 83.9019963,19.5099997 L89.9019963,19.5099997 C89.9019963,19.4619997 89.9339963,19.1899997 89.9339963,18.9819997 C89.9339963,16.7419997 88.4939963,15.1099997 86.3179963,15.1099997 L86.3179963,15.1099997 Z M86.3819969,16.3099995 C87.6299969,16.3099995 88.4459969,17.1579995 88.6539969,18.4379995 L83.9499969,18.4379995 C84.1899969,17.1099995 85.1659969,16.3099995 86.3819969,16.3099995 L86.3819969,16.3099995 L86.3819969,16.3099995 L86.3819969,16.3099995 Z M98.3919996,21.7819997 L97.4959996,20.9819997 C97.0159996,21.5099997 96.1999996,21.9099997 95.2879997,21.9099997 C93.7199997,21.9099997 92.6319997,20.7739997 92.6319997,19.1099997 C92.6319997,17.4619997 93.7199997,16.3099997 95.2879997,16.3099997 C96.2159996,16.3099997 96.9839996,16.6939997 97.4639996,17.2859997 L98.3599996,16.5019997 C97.5919996,15.5899997 96.3919996,15.1099997 95.2239997,15.1099997 C92.9359997,15.1099997 91.3199997,16.7579997 91.3199997,19.1099997 C91.3199997,21.4779997 92.9359997,23.0939997 95.1759997,23.0939997 C96.5679996,23.0939997 97.7359996,22.5179997 98.3919996,21.7819997 L98.3919996,21.7819997 Z M103.014,19.4280003 L105.318,22.9960003 L106.806,22.9960003 L103.878,18.4360003 L106.79,15.2040003 L105.206,15.2040003 L101.382,19.4600003 L101.35,19.4600003 L101.35,11.2200003 L100.07,11.2200003 L100.07,22.9960003 L101.35,22.9960003 L101.35,21.2360003 L102.982,19.4280003 L103.014,19.4280003 L103.014,19.4280003 L103.014,19.4280003 Z" id="Jukedeck-Copy"></path>
                            </g>
                        </g>
                    </g>
                </g>
            </g>
        </g>
    </g>
</svg>