<?xml version="1.0" encoding="iso-8859-1"?><!-- Generator: Adobe Illustrator 16.0.0, SVG Export Plug-In . SVG Version: 6.00 Build 0) --><!DOCTYPE svg PUBLIC "-//W3C//DTD SVG 1.1//EN" "http://www.w3.org/Graphics/SVG/1.1/DTD/svg11.dtd"><svg version="1.1" id="Layer_1" xmlns="http://www.w3.org/2000/svg" xmlns:xlink="http://www.w3.org/1999/xlink" x="0px" y="0px" width="192.756px" height="192.756px" viewBox="0 0 192.756 192.756" style="enable-background:new 0 0 192.756 192.756;" xml:space="preserve"><g><polygon style="fill-rule:evenodd;clip-rule:evenodd;fill:#FFFFFF;" points="0,0 192.756,0 192.756,192.756 0,192.756 0,0	"/><path style="fill-rule:evenodd;clip-rule:evenodd;fill:#367CA8;" d="M43.623,83.743c-0.575-0.479-1.246-0.958-1.917-1.15	l-1.15,22.519l5.558-15.523C46.689,87.192,45.348,85.18,43.623,83.743L43.623,83.743z"/><path style="fill-rule:evenodd;clip-rule:evenodd;fill:#367CA8;" d="M34.424,82.401l3.258,22.423l3.258-22.423	C39.023,81.731,36.533,81.635,34.424,82.401L34.424,82.401z"/><path style="fill-rule:evenodd;clip-rule:evenodd;fill:#367CA8;" d="M31.741,83.743c-1.821,1.438-3.066,3.45-2.587,5.75	l5.558,15.523l-1.054-22.423C32.987,82.785,32.22,83.264,31.741,83.743L31.741,83.743z"/><path style="fill-rule:evenodd;clip-rule:evenodd;fill:#367CA8;" d="M20.435,85.851c3.737,6.516,7.57,13.606,11.211,19.834	c-1.246-5.461-2.587-14.564-4.503-17.152C24.938,85.467,20.435,85.851,20.435,85.851L20.435,85.851z"/><path style="fill-rule:evenodd;clip-rule:evenodd;fill:#367CA8;" d="M13.823,89.109l15.235,17.727l-9.39-20.889	C17.177,86.042,15.068,87.289,13.823,89.109L13.823,89.109z"/><path style="fill-rule:evenodd;clip-rule:evenodd;fill:#367CA8;" d="M45.731,93.9l-2.491,12.168	c3.258-5.652,6.516-11.21,9.678-16.959C49.851,89.396,46.785,90.546,45.731,93.9L45.731,93.9z"/><path style="fill-rule:evenodd;clip-rule:evenodd;fill:#367CA8;" d="M53.78,89.109l-8.049,18.014l14.182-15.427	C58.284,89.971,56.175,89.205,53.78,89.109L53.78,89.109z"/><path style="fill-rule:evenodd;clip-rule:evenodd;fill:#367CA8;" d="M11.811,97.158c4.983,3.832,9.965,7.762,14.948,11.594	L13.344,89.78C12.098,91.888,11.715,94.379,11.811,97.158L11.811,97.158z"/><path style="fill-rule:evenodd;clip-rule:evenodd;fill:#367CA8;" d="M61.637,93.9c-0.288-0.575-0.671-1.15-1.15-1.629	l-12.265,16.672c4.887-3.641,9.582-7.281,14.182-11.02C62.5,96.486,62.308,95.05,61.637,93.9L61.637,93.9z"/><path style="fill-rule:evenodd;clip-rule:evenodd;fill:#367CA8;" d="M11.906,104.92l12.936,5.939	c-4.312-4.311-8.624-8.432-12.936-12.648V104.92L11.906,104.92z"/><path style="fill-rule:evenodd;clip-rule:evenodd;fill:#367CA8;" d="M62.404,105.303V99.17l-12.265,11.979	C54.355,109.23,58.188,107.314,62.404,105.303L62.404,105.303z"/><path style="fill-rule:evenodd;clip-rule:evenodd;fill:#367CA8;" d="M11.811,110.859c3.929,0.863,8.241,1.918,11.786,2.684	l-11.786-7.762V110.859L11.811,110.859z"/><path style="fill-rule:evenodd;clip-rule:evenodd;fill:#367CA8;" d="M62.404,111.148v-4.695c-3.641,2.395-7.474,4.791-10.828,7.186	L62.404,111.148L62.404,111.148z"/><polygon style="fill-rule:evenodd;clip-rule:evenodd;fill:#367CA8;" points="11.811,116.705 23.309,116.705 11.811,111.818	11.811,116.705	"/><path style="fill-rule:evenodd;clip-rule:evenodd;fill:#367CA8;" d="M62.404,116.705v-4.504c-3.737,1.629-6.995,2.971-10.54,4.504	H62.404L62.404,116.705z"/><rect x="58.475" y="83.168" style="fill-rule:evenodd;clip-rule:evenodd;fill:#367CA8;" width="0" height="0"/><path style="fill-rule:evenodd;clip-rule:evenodd;fill:#367CA8;" d="M58.475,83.168c0.191-6.803-9.965-6.899-9.773,0	C48.606,89.492,58.763,89.78,58.475,83.168L58.475,83.168z"/><path style="fill-rule:evenodd;clip-rule:evenodd;fill:#367CA8;" d="M25.8,79.623c0.288-6.899-10.349-6.611-9.965,0	C15.452,86.522,26.471,86.618,25.8,79.623L25.8,79.623z"/><path style="fill-rule:evenodd;clip-rule:evenodd;fill:#367CA8;" d="M37.682,80.964c4.024,0.096,5.558-2.779,5.653-5.558	c0.192-4.216-2.491-5.941-5.653-5.941s-5.653,1.821-5.558,5.941C32.22,77.707,33.178,80.868,37.682,80.964L37.682,80.964z"/><polygon style="fill-rule:evenodd;clip-rule:evenodd;fill:#367CA8;" points="95.366,96.871 97.57,96.871 97.57,84.126	95.366,84.126 95.366,96.871	"/><path style="fill-rule:evenodd;clip-rule:evenodd;fill:#367CA8;" d="M91.15,93.229l1.246,3.642h2.299l-4.408-12.745h-2.778	l-3.737,10.828l-3.641-4.6l4.887-6.228H82.43l-4.504,6.036v-6.036h-2.204v12.745h2.204v-6.229l4.695,6.229h0.479l0,0h2.108	l1.246-3.642H91.15L91.15,93.229z M88.754,86.138L88.754,86.138l1.82,5.271h-3.545L88.754,86.138L88.754,86.138z"/><path style="fill-rule:evenodd;clip-rule:evenodd;fill:#367CA8;" d="M111.367,113.16l-2.203-9.295h-3.93v12.84	c1.15,0,2.205,0,2.205,0v-10.924l2.779,10.924c0,0,0.957,0,2.299,0l2.779-10.924v10.924h2.107v-12.84h-3.736L111.367,113.16	L111.367,113.16z"/><path style="fill-rule:evenodd;clip-rule:evenodd;fill:#367CA8;" d="M122.963,103.865l-4.408,12.84h2.203l1.15-3.736h4.695	l1.246,3.736h2.299l-4.408-12.84H122.963L122.963,103.865z M122.482,111.244l1.725-5.367l0,0l1.82,5.367H122.482L122.482,111.244z"	/><path style="fill-rule:evenodd;clip-rule:evenodd;fill:#367CA8;" d="M139.156,113.734l-5.078-9.869h-2.971v12.84	c1.053,0,2.107,0,2.107,0v-9.678l5.078,9.678h2.971v-12.84h-2.107V113.734L139.156,113.734z"/><path style="fill-rule:evenodd;clip-rule:evenodd;fill:#367CA8;" d="M181.125,114.789h-5.27v-3.545h3.832v-1.918h-3.832v-3.545	c0.479,0,4.791,0,4.791,0v-1.916c-1.342,0-6.996,0-6.996,0v12.84h7.475V114.789L181.125,114.789z"/><path style="fill-rule:evenodd;clip-rule:evenodd;fill:#367CA8;" d="M160.906,103.865L160.906,103.865h-0.383v9.965l-5.078-9.965	h-2.971v10.924h-6.707v-3.545h3.928v-1.918h-3.928v-3.545c0.479,0,4.791,0,4.791,0v-1.916c-1.246,0-6.996,0-6.996,0v12.84h10.828	l0,0c0.096,0,0.191,0,0.191,0v-9.773l5.08,9.773h2.969v-10.924c1.342,0,2.779,0,3.93,0v10.924h2.203v-10.924h3.834l-0.096-1.916	H160.906L160.906,103.865z"/><path style="fill-rule:evenodd;clip-rule:evenodd;fill:#367CA8;" d="M102.072,110.285c0.672-0.67,1.246-1.533,1.246-2.779	c0-1.15-0.574-2.107-1.246-2.682c-0.766-0.672-1.82-0.959-3.736-0.959h-3.641v5.461l0,0v5.463h-6.803v-3.545h3.929v-1.918h-3.929	v-3.545c0.479,0,4.791,0,4.791,0v-1.916c-1.246,0-6.995,0-6.995,0v12.84h11.211v-5.461h1.054c1.055,1.629,3.258,5.461,3.258,5.461	h2.588l-3.451-5.654C101.115,110.955,101.594,110.668,102.072,110.285L102.072,110.285z M96.899,109.424v-3.643h1.82	c1.727,0,2.396,0.672,2.396,1.725c0,1.246-0.67,1.918-2.396,1.918H96.899L96.899,109.424z"/><path style="fill-rule:evenodd;clip-rule:evenodd;fill:#367CA8;" d="M119.896,91.504h1.148c0.959,1.533,3.162,5.367,3.162,5.367	h2.588l-3.449-5.559c0.766-0.191,1.342-0.479,1.725-0.862c0.67-0.575,1.246-1.533,1.246-2.683c0-1.245-0.48-2.108-1.246-2.683	c-0.768-0.671-1.82-0.958-3.641-0.958h-3.738v5.366l0,0v5.558h-6.803v-3.641h3.93v-1.821h-3.93v-3.641c0.574,0,4.887,0,4.887,0	v-1.82c-1.342,0-6.994,0-6.994,0v12.745h11.115V91.504L119.896,91.504z M119.896,89.492v-3.545h1.916	c1.629,0,2.299,0.671,2.299,1.82c0,1.246-0.67,1.821-2.299,1.821h-1.916V89.492L119.896,89.492z"/><path style="fill-rule:evenodd;clip-rule:evenodd;fill:#367CA8;" d="M83.101,104.824c-0.767-0.672-1.821-0.959-3.642-0.959h-3.737	v12.84h2.204v-5.27h1.533c1.821,0,2.875-0.287,3.642-0.959c0.67-0.67,1.245-1.629,1.245-2.875	C84.346,106.453,83.867,105.494,83.101,104.824L83.101,104.824z M79.747,109.52h-1.821v-3.738h1.821	c1.725,0,2.396,0.768,2.396,1.82C82.143,108.752,81.376,109.52,79.747,109.52L79.747,109.52z"/><path style="fill-rule:evenodd;clip-rule:evenodd;fill:#367CA8;" d="M107.344,93.229c0-1.82-1.15-2.97-3.354-3.833	c-1.725-0.575-2.588-1.054-2.588-2.108c0-0.767,0.768-1.629,2.396-1.629c1.053,0,2.203,0.383,2.682,0.671v-1.821	c-0.479-0.287-1.629-0.575-2.682-0.575c-2.779,0-4.6,1.533-4.6,3.545c0,1.917,1.438,2.97,3.545,3.737	c1.629,0.575,2.395,1.15,2.395,2.204c0,1.054-0.957,1.821-2.49,1.821c-1.15,0-2.684-0.384-3.449-0.959v2.012	c0.67,0.383,2.012,0.768,3.354,0.768C105.811,97.062,107.344,95.242,107.344,93.229L107.344,93.229z"/><path style="fill-rule:evenodd;clip-rule:evenodd;fill:#367CA8;" d="M182.658,114.021c0-1.244,0.959-2.203,2.203-2.203	c1.246,0,2.205,0.959,2.205,2.203c0,1.246-0.959,2.205-2.205,2.205C183.617,116.227,182.658,115.268,182.658,114.021	L182.658,114.021z M184.861,116.705c1.438,0,2.684-1.15,2.684-2.684s-1.246-2.682-2.684-2.682s-2.682,1.148-2.682,2.682	S183.424,116.705,184.861,116.705L184.861,116.705z M184.287,114.213h0.574l0.768,1.342h0.574l-0.959-1.342	c0.48-0.096,0.863-0.287,0.863-0.861s-0.383-0.863-1.15-0.863h-1.148v3.066h0.479V114.213L184.287,114.213z M184.287,113.83v-0.957	h0.67c0.287,0,0.672,0.096,0.672,0.479c0,0.479-0.385,0.479-0.768,0.479H184.287L184.287,113.83z"/></g></svg>