<?xml version="1.0" encoding="utf-8"?>
<!-- Generator: Adobe Illustrator 18.1.1, SVG Export Plug-In . SVG Version: 6.00 Build 0)  -->
<svg version="1.1" id="Layer_1" xmlns="http://www.w3.org/2000/svg" xmlns:xlink="http://www.w3.org/1999/xlink" x="0px" y="0px"
	 viewBox="-153 154.2 512 512" enable-background="new -153 154.2 512 512" xml:space="preserve">
<g>
	<polygon fill="#FFFFFF" points="-153,154.2 359,154.2 359,666.2 -153,666.2 	"/>
	<path fill="#367CA8" d="M-37.1,376.7c-1.5-1.3-3.3-2.5-5.1-3.1l-3.1,59.8l14.8-41.2C-29,385.8-32.5,380.5-37.1,376.7L-37.1,376.7z"
		/>
	<path fill="#367CA8" d="M-61.6,373.1l8.7,59.6l8.7-59.6C-49.3,371.3-56,371.1-61.6,373.1L-61.6,373.1z"/>
	<path fill="#367CA8" d="M-68.7,376.7c-4.8,3.8-8.1,9.2-6.9,15.3l14.8,41.2l-2.8-59.6C-65.4,374.1-67.4,375.4-68.7,376.7
		L-68.7,376.7z"/>
	<path fill="#367CA8" d="M-98.7,382.3c9.9,17.3,20.1,36.1,29.8,52.7c-3.3-14.5-6.9-38.7-12-45.6C-86.8,381.3-98.7,382.3-98.7,382.3
		L-98.7,382.3z"/>
	<path fill="#367CA8" d="M-116.3,390.9l40.5,47.1l-24.9-55.5C-107.4,382.8-113,386.1-116.3,390.9L-116.3,390.9z"/>
	<path fill="#367CA8" d="M-31.5,403.7l-6.6,32.3c8.7-15,17.3-29.8,25.7-45C-20.6,391.7-28.7,394.8-31.5,403.7L-31.5,403.7z"/>
	<path fill="#367CA8" d="M-10.1,390.9l-21.4,47.8l37.7-41C1.8,393.2-3.8,391.2-10.1,390.9L-10.1,390.9z"/>
	<path fill="#367CA8" d="M-121.6,412.3c13.2,10.2,26.5,20.6,39.7,30.8l-35.6-50.4C-120.9,398.3-121.9,404.9-121.6,412.3
		L-121.6,412.3z"/>
	<path fill="#367CA8" d="M10.7,403.7c-0.8-1.5-1.8-3.1-3.1-4.3l-32.6,44.3c13-9.7,25.5-19.3,37.7-29.3
		C13,410.5,12.5,406.7,10.7,403.7L10.7,403.7z"/>
	<path fill="#367CA8" d="M-121.4,432.9l34.4,15.8c-11.5-11.5-22.9-22.4-34.4-33.6V432.9L-121.4,432.9z"/>
	<path fill="#367CA8" d="M12.8,434v-16.3l-32.6,31.8C-8.6,444.4,1.6,439.3,12.8,434L12.8,434z"/>
	<path fill="#367CA8" d="M-121.6,448.7c10.4,2.3,21.9,5.1,31.3,7.1l-31.3-20.6V448.7L-121.6,448.7z"/>
	<path fill="#367CA8" d="M12.8,449.5V437c-9.7,6.4-19.9,12.7-28.8,19.1L12.8,449.5L12.8,449.5z"/>
	<polygon fill="#367CA8" points="-121.6,464.2 -91.1,464.2 -121.6,451.3 	"/>
	<path fill="#367CA8" d="M12.8,464.2v-12c-9.9,4.3-18.6,7.9-28,12H12.8L12.8,464.2z"/>
	<polygon fill="#367CA8" points="2.3,375.2 2.3,375.2 2.3,375.2 	"/>
	<path fill="#367CA8" d="M2.3,375.2c0.5-18.1-26.5-18.3-26,0C-23.9,392,3.1,392.7,2.3,375.2L2.3,375.2z"/>
	<path fill="#367CA8" d="M-84.5,365.7c0.8-18.3-27.5-17.6-26.5,0C-112,384.1-82.7,384.3-84.5,365.7L-84.5,365.7z"/>
	<path fill="#367CA8" d="M-52.9,369.3c10.7,0.3,14.8-7.4,15-14.8c0.5-11.2-6.6-15.8-15-15.8s-15,4.8-14.8,15.8
		C-67.4,360.6-64.9,369-52.9,369.3L-52.9,369.3z"/>
	<polygon fill="#367CA8" points="100.3,411.6 106.2,411.6 106.2,377.7 100.3,377.7 	"/>
	<path fill="#367CA8" d="M89.1,401.9l3.3,9.7h6.1l-11.7-33.9h-7.4l-9.9,28.8l-9.7-12.2l13-16.5H66l-12,16v-16h-5.9v33.9H54V395
		l12.5,16.5h1.3l0,0h5.6l3.3-9.7H89.1L89.1,401.9z M82.7,383L82.7,383l4.8,14h-9.4L82.7,383L82.7,383z"/>
	<path fill="#367CA8" d="M142.8,454.8l-5.9-24.7h-10.4v34.1c3.1,0,5.9,0,5.9,0v-29l7.4,29c0,0,2.5,0,6.1,0l7.4-29v29h5.6v-34.1h-9.9
		L142.8,454.8L142.8,454.8z"/>
	<path fill="#367CA8" d="M173.6,430.1l-11.7,34.1h5.9l3.1-9.9h12.5l3.3,9.9h6.1L181,430.1H173.6L173.6,430.1z M172.3,449.7l4.6-14.3
		l0,0l4.8,14.3H172.3L172.3,449.7z"/>
	<path fill="#367CA8" d="M216.6,456.3l-13.5-26.2h-7.9v34.1c2.8,0,5.6,0,5.6,0v-25.7l13.5,25.7h7.9v-34.1h-5.6V456.3L216.6,456.3z"
		/>
	<path fill="#367CA8" d="M328.1,459.1h-14v-9.4h10.2v-5.1h-10.2v-9.4c1.3,0,12.7,0,12.7,0v-5.1c-3.6,0-18.6,0-18.6,0v34.1h19.9
		V459.1L328.1,459.1z"/>
	<path fill="#367CA8" d="M274.4,430.1L274.4,430.1h-1v26.5l-13.5-26.5H252v29h-17.8v-9.4h10.4v-5.1h-10.4v-9.4c1.3,0,12.7,0,12.7,0
		v-5.1c-3.3,0-18.6,0-18.6,0v34.1h28.8l0,0c0.3,0,0.5,0,0.5,0v-26l13.5,26h7.9v-29c3.6,0,7.4,0,10.4,0v29h5.9v-29h10.2l-0.3-5.1
		H274.4L274.4,430.1z"/>
	<path fill="#367CA8" d="M118.1,447.2c1.8-1.8,3.3-4.1,3.3-7.4c0-3.1-1.5-5.6-3.3-7.1c-2-1.8-4.8-2.5-9.9-2.5h-9.7v14.5l0,0v14.5
		H80.5v-9.4h10.4v-5.1H80.5v-9.4c1.3,0,12.7,0,12.7,0v-5.1c-3.3,0-18.6,0-18.6,0v34.1h29.8v-14.5h2.8c2.8,4.3,8.7,14.5,8.7,14.5h6.9
		l-9.2-15C115.6,449,116.9,448.2,118.1,447.2L118.1,447.2z M104.4,444.9v-9.7h4.8c4.6,0,6.4,1.8,6.4,4.6c0,3.3-1.8,5.1-6.4,5.1
		H104.4L104.4,444.9z"/>
	<path fill="#367CA8" d="M165.5,397.3h3c2.5,4.1,8.4,14.3,8.4,14.3h6.9l-9.2-14.8c2-0.5,3.6-1.3,4.6-2.3c1.8-1.5,3.3-4.1,3.3-7.1
		c0-3.3-1.3-5.6-3.3-7.1c-2-1.8-4.8-2.5-9.7-2.5h-9.9V392l0,0v14.8h-18.1V397H152v-4.8h-10.4v-9.7c1.5,0,13,0,13,0v-4.8
		c-3.6,0-18.6,0-18.6,0v33.9h29.5V397.3L165.5,397.3z M165.5,392v-9.4h5.1c4.3,0,6.1,1.8,6.1,4.8c0,3.3-1.8,4.8-6.1,4.8h-5.1V392
		L165.5,392z"/>
	<path fill="#367CA8" d="M67.7,432.7c-2-1.8-4.8-2.5-9.7-2.5h-9.9v34.1H54v-14h4.1c4.8,0,7.6-0.8,9.7-2.5c1.8-1.8,3.3-4.3,3.3-7.6
		C71,437,69.8,434.5,67.7,432.7L67.7,432.7z M58.8,445.2H54v-9.9h4.8c4.6,0,6.4,2,6.4,4.8C65.2,443.1,63.2,445.2,58.8,445.2
		L58.8,445.2z"/>
	<path fill="#367CA8" d="M132.1,401.9c0-4.8-3.1-7.9-8.9-10.2c-4.6-1.5-6.9-2.8-6.9-5.6c0-2,2-4.3,6.4-4.3c2.8,0,5.9,1,7.1,1.8v-4.8
		c-1.3-0.8-4.3-1.5-7.1-1.5c-7.4,0-12.2,4.1-12.2,9.4c0,5.1,3.8,7.9,9.4,9.9c4.3,1.5,6.4,3.1,6.4,5.9s-2.5,4.8-6.6,4.8
		c-3.1,0-7.1-1-9.2-2.5v5.3c1.8,1,5.3,2,8.9,2C128.1,412.1,132.1,407.2,132.1,401.9L132.1,401.9z"/>
	<path fill="#367CA8" d="M332.2,457.1c0-3.3,2.5-5.9,5.9-5.9c3.3,0,5.9,2.5,5.9,5.9c0,3.3-2.5,5.9-5.9,5.9
		C334.7,463,332.2,460.4,332.2,457.1L332.2,457.1z M338,464.2c3.8,0,7.1-3.1,7.1-7.1s-3.3-7.1-7.1-7.1s-7.1,3-7.1,7.1
		S334.2,464.2,338,464.2L338,464.2z M336.5,457.6h1.5l2,3.6h1.5l-2.5-3.6c1.3-0.3,2.3-0.8,2.3-2.3s-1-2.3-3.1-2.3h-3v8.1h1.3
		L336.5,457.6L336.5,457.6z M336.5,456.6v-2.5h1.8c0.8,0,1.8,0.3,1.8,1.3c0,1.3-1,1.3-2,1.3L336.5,456.6L336.5,456.6z"/>
</g>
</svg>
