<?xml version="1.0" encoding="utf-8"?>
<!-- Generator: Adobe Illustrator 18.1.1, SVG Export Plug-In . SVG Version: 6.00 Build 0)  -->
<svg version="1.1" id="Layer_1" xmlns="http://www.w3.org/2000/svg" xmlns:xlink="http://www.w3.org/1999/xlink" x="0px" y="0px"
	 viewBox="0 0 500 500" enable-background="new 0 0 500 500" xml:space="preserve">
<g>
	<polygon fill="#FFFFFF" points="0,0 500,0 500,500 0,500 	"/>
	<path fill="#367CA8" d="M113.2,217.3c-1.5-1.3-3.2-2.4-5-3l-3,58.4l14.5-40.2C121.1,226.2,117.7,221,113.2,217.3L113.2,217.3z"/>
	<path fill="#367CA8" d="M89.3,213.8l8.5,58.2l8.5-58.2C101.3,212,94.7,211.8,89.3,213.8L89.3,213.8z"/>
	<path fill="#367CA8" d="M82.3,217.3c-4.7,3.7-7.9,9-6.7,14.9L90,272.5l-2.7-58.2C85.5,214.7,83.6,216,82.3,217.3L82.3,217.3z"/>
	<path fill="#367CA8" d="M53,222.8c9.7,16.9,19.6,35.3,29.1,51.5c-3.2-14.2-6.7-37.8-11.7-44.5C64.6,221.8,53,222.8,53,222.8
		L53,222.8z"/>
	<path fill="#367CA8" d="M35.8,231.2l39.6,46l-24.3-54.2C44.5,223.2,39.1,226.5,35.8,231.2L35.8,231.2z"/>
	<path fill="#367CA8" d="M118.7,243.7l-6.4,31.5c8.5-14.6,16.9-29.1,25.1-43.9C129.3,231.9,121.4,235,118.7,243.7L118.7,243.7z"/>
	<path fill="#367CA8" d="M139.6,231.2l-20.9,46.7l36.8-40C151.2,233.4,145.7,231.4,139.6,231.2L139.6,231.2z"/>
	<path fill="#367CA8" d="M30.7,252.1c12.9,10,25.9,20.1,38.8,30.1l-34.8-49.2C31.3,238.4,30.4,244.8,30.7,252.1L30.7,252.1z"/>
	<path fill="#367CA8" d="M159.9,243.7c-0.8-1.5-1.8-3-3-4.2L125,282.7c12.7-9.5,24.9-18.8,36.8-28.6
		C162.1,250.3,161.6,246.6,159.9,243.7L159.9,243.7z"/>
	<path fill="#367CA8" d="M30.9,272.2l33.6,15.4c-11.2-11.2-22.4-21.9-33.6-32.8V272.2L30.9,272.2z"/>
	<path fill="#367CA8" d="M161.9,273.2v-15.9l-31.8,31.1C141,283.4,151,278.4,161.9,273.2L161.9,273.2z"/>
	<path fill="#367CA8" d="M30.7,287.6c10.2,2.2,21.4,5,30.6,6.9l-30.6-20.1L30.7,287.6L30.7,287.6z"/>
	<path fill="#367CA8" d="M161.9,288.4v-12.2c-9.5,6.2-19.4,12.4-28.1,18.7L161.9,288.4L161.9,288.4z"/>
	<polygon fill="#367CA8" points="30.7,302.7 60.4,302.7 30.7,290.1 	"/>
	<path fill="#367CA8" d="M161.9,302.7V291c-9.7,4.2-18.2,7.7-27.3,11.7H161.9L161.9,302.7z"/>
	<path fill="#367CA8" d="M151.7,215.8L151.7,215.8L151.7,215.8z"/>
	<path fill="#367CA8" d="M151.7,215.8c0.5-17.7-25.9-17.9-25.4,0C126.1,232.2,152.4,232.9,151.7,215.8L151.7,215.8z"/>
	<path fill="#367CA8" d="M66.9,206.5c0.8-17.9-26.9-17.2-25.9,0C40,224.5,68.7,224.7,66.9,206.5L66.9,206.5z"/>
	<path fill="#367CA8" d="M97.8,210.1c10.4,0.3,14.5-7.2,14.6-14.5c0.5-10.9-6.4-15.4-14.6-15.4s-14.6,4.7-14.5,15.4
		C83.6,201.6,86,209.8,97.8,210.1L97.8,210.1z"/>
	<polygon fill="#367CA8" points="247.4,251.4 253.1,251.4 253.1,218.3 247.4,218.3 	"/>
	<path fill="#367CA8" d="M236.4,241.9l3.2,9.5h6l-11.4-33.1H227l-9.7,28.1l-9.5-11.9l12.7-16.1h-6.6L202.1,234v-15.6h-5.8v33.1h5.8
		v-16.3l12.2,16.1h1.3l0,0h5.5l3.2-9.5L236.4,241.9L236.4,241.9z M230.2,223.4L230.2,223.4l4.7,13.7h-9.2L230.2,223.4L230.2,223.4z"
		/>
	<path fill="#367CA8" d="M288.9,293.6l-5.8-24.1h-10.2v33.3c3,0,5.8,0,5.8,0v-28.3l7.2,28.3c0,0,2.4,0,6,0l7.2-28.3v28.3h5.5v-33.3
		h-9.7L288.9,293.6L288.9,293.6z"/>
	<path fill="#367CA8" d="M318.9,269.4l-11.4,33.3h5.8l3-9.7h12.2l3.2,9.7h6l-11.5-33.3H318.9L318.9,269.4z M317.7,288.6l4.5-14l0,0
		l4.7,14H317.7L317.7,288.6z"/>
	<path fill="#367CA8" d="M360.9,295l-13.2-25.6H340v33.3c2.7,0,5.5,0,5.5,0v-25.1l13.2,25.1h7.7v-33.3h-5.5V295L360.9,295z"/>
	<path fill="#367CA8" d="M469.8,297.8h-13.7v-9.2h10v-5h-10v-9.2c1.3,0,12.4,0,12.4,0v-5c-3.5,0-18.2,0-18.2,0v33.3h19.4V297.8
		L469.8,297.8z"/>
	<path fill="#367CA8" d="M417.4,269.4L417.4,269.4h-1v25.9l-13.2-25.9h-7.7v28.3h-17.4v-9.2h10.2v-5h-10.2v-9.2c1.3,0,12.4,0,12.4,0
		v-5c-3.2,0-18.2,0-18.2,0v33.3h28.1l0,0c0.3,0,0.5,0,0.5,0v-25.4l13.2,25.4h7.7v-28.3c3.5,0,7.2,0,10.2,0v28.3h5.8v-28.3h10l-0.3-5
		H417.4L417.4,269.4z"/>
	<path fill="#367CA8" d="M264.7,286.1c1.8-1.8,3.2-4,3.2-7.2c0-3-1.5-5.5-3.2-6.9c-2-1.8-4.7-2.4-9.7-2.4h-9.5v14.2l0,0v14.2H228
		v-9.2h10.2v-5H228v-9.2c1.3,0,12.4,0,12.4,0v-5c-3.2,0-18.2,0-18.2,0v33.3h29.1v-14.2h2.7c2.7,4.2,8.5,14.2,8.5,14.2h6.7l-9-14.6
		C262.3,287.9,263.6,287.1,264.7,286.1L264.7,286.1z M251.4,283.9v-9.5h4.7c4.5,0,6.2,1.8,6.2,4.5c0,3.2-1.8,5-6.2,5H251.4
		L251.4,283.9z"/>
	<path fill="#367CA8" d="M311,237.4h2.9c2.4,4,8.2,14,8.2,14h6.7l-9-14.5c2-0.5,3.5-1.3,4.5-2.2c1.8-1.5,3.2-4,3.2-6.9
		c0-3.2-1.3-5.5-3.2-6.9c-2-1.8-4.7-2.4-9.5-2.4h-9.7v13.9l0,0v14.5h-17.7v-9.6h10.3v-4.7h-10.2v-9.5c1.5,0,12.7,0,12.7,0v-4.7
		c-3.5,0-18.2,0-18.2,0v33.1H311V237.4L311,237.4z M311,232.2V223h5c4.2,0,6,1.8,6,4.7c0,3.2-1.8,4.7-6,4.7h-5V232.2L311,232.2z"/>
	<path fill="#367CA8" d="M215.5,272c-2-1.8-4.7-2.4-9.5-2.4h-9.7v33.3h5.8v-13.7h4c4.7,0,7.4-0.8,9.5-2.4c1.8-1.8,3.2-4.2,3.2-7.4
		C218.8,276.2,217.6,273.7,215.5,272L215.5,272z M206.8,284.2h-4.7v-9.7h4.7c4.5,0,6.2,2,6.2,4.7
		C213.1,282.1,211.1,284.2,206.8,284.2L206.8,284.2z"/>
	<path fill="#367CA8" d="M278.4,241.9c0-4.7-3-7.7-8.7-10c-4.5-1.5-6.7-2.7-6.7-5.5c0-2,2-4.2,6.2-4.2c2.7,0,5.8,1,6.9,1.8v-4.7
		c-1.3-0.8-4.2-1.5-6.9-1.5c-7.2,0-11.9,4-11.9,9.2c0,5,3.7,7.7,9.2,9.7c4.2,1.5,6.2,3,6.2,5.8s-2.4,4.7-6.4,4.7c-3,0-6.9-1-9-2.4
		v5.2c1.8,1,5.2,2,8.7,2C274.5,251.9,278.4,247.1,278.4,241.9L278.4,241.9z"/>
	<path fill="#367CA8" d="M473.8,295.8c0-3.2,2.4-5.8,5.8-5.8c3.2,0,5.8,2.4,5.8,5.8c0,3.2-2.4,5.8-5.8,5.8S473.8,299,473.8,295.8
		L473.8,295.8z M479.5,302.7c3.7,0,6.9-3,6.9-6.9s-3.2-6.9-6.9-6.9s-6.9,2.9-6.9,6.9S475.8,302.7,479.5,302.7L479.5,302.7z
		 M478,296.3h1.5l2,3.5h1.5l-2.4-3.5c1.3-0.3,2.2-0.8,2.2-2.2s-1-2.2-3-2.2h-2.9v7.9h1.3L478,296.3L478,296.3z M478,295.3v-2.4h1.8
		c0.8,0,1.8,0.3,1.8,1.3c0,1.3-1,1.3-2,1.3L478,295.3L478,295.3z"/>
</g>
</svg>
