<?xml version="1.0" encoding="utf-8"?>
<!-- Generator: Adobe Illustrator 19.2.0, SVG Export Plug-In . SVG Version: 6.00 Build 0)  -->
<!DOCTYPE svg PUBLIC "-//W3C//DTD SVG 1.1//EN" "http://www.w3.org/Graphics/SVG/1.1/DTD/svg11.dtd">
<svg version="1.1" id="Layer_1" xmlns="http://www.w3.org/2000/svg" xmlns:xlink="http://www.w3.org/1999/xlink" x="0px" y="0px"
	 viewBox="0 0 400 355" enable-background="new 0 0 400 355" xml:space="preserve">
<rect width="400" height="355"/>
<g>
	<polygon fill="#FFFFFF" points="101.5,171.3 101.5,142.6 109.8,133.6 131.5,171.3 156.7,171.3 125.2,117.7 153.9,85.4 158.9,79.9 
		132.2,79.9 101.5,115 101.5,87.7 101.5,79.9 80.7,79.9 80.7,171.3 	"/>
	<path fill="#FFFFFF" d="M167.5,168.2c0,2.5,0.1,3.1,3.2,3.1H233v-19.4l-44.4,0l0-18.4h34.7v-2.7c0-0.2,0-16.2,0-16.2h-2.7
		c-0.2,0-32,0-32,0V99.5l44.4,0V79.9h-62.2c-3.4,0-3.4,0.8-3.4,4.1L167.5,168.2z"/>
	<path fill="#FFFFFF" d="M101.7,255.7l0-68.6c0-3.2-0.2-3.3-2.6-3.3H80.7v88.1c0,2.5,0.3,3.3,3.3,3.3h56v-19.4H101.7z"/>
	<path fill="#FFFFFF" d="M204.3,188c-1.7-4.2-2.1-4.3-5.5-4.3l-12.9,0c-3.6,0-3.8,0.2-5.5,4.3l-31.2,87.1l21.5,0l21.6-63.3
		l21.5,63.2h21.5L204.3,188z"/>
	<path fill="#FFFFFF" d="M316.2,268.5l-17.4-26.4c8.3-2.9,18.6-13.1,18.6-27.6c0-8.9-2.8-16.8-7.8-21.8c-5.6-5.8-12-8.9-26.7-8.9
		l-33.8,0c-3.1,0-3.7,0.5-3.7,3.8l0.1,87.5h20.9l0-30.5l9.3,0l20.4,30.5h24.6L316.2,268.5z M283.8,226.2L283.8,226.2h-0.1l-17.3,0
		v-23l17.8,0c7,0,12.3,4.6,12.3,11.8c0,6.2-5.5,10.7-11.7,11.1H283.8z"/>
	<path fill="#FFFFFF" d="M246.2,171.3h21l0-27.1l15.1,0c22.9,0,35.2-12.8,35.2-32.1c0-19.2-12.1-32.2-35.1-32.2h-33.1
		c-3.1,0-3.1,0.4-3.1,2.8L246.2,171.3z M282.2,99.5c10.4,0,15,5.8,15,13c0,7-4.5,12.9-15,12.9l-15,0l0-26H282.2z"/>
</g>
</svg>
