<?xml version="1.0" encoding="utf-8"?>
<!-- Generator: Adobe Illustrator 17.1.0, SVG Export Plug-In . SVG Version: 6.00 Build 0)  -->
<!DOCTYPE svg PUBLIC "-//W3C//DTD SVG 1.1//EN" "http://www.w3.org/Graphics/SVG/1.1/DTD/svg11.dtd">
<svg version="1.1" xmlns="http://www.w3.org/2000/svg" xmlns:xlink="http://www.w3.org/1999/xlink" x="0px" y="0px"
	 viewBox="0 0 387.7 432.7" enable-background="new 0 0 387.7 432.7" xml:space="preserve">
<g id="Layer_2" display="none">
	<rect x="-189.2" y="-132.6" display="inline" fill="#FFFFFF" width="765.8" height="732.1"/>
</g>
<g id="Layer_3">
	<path d="M193.9,1.7C109.6,1.7,41.2,70,41.2,154.3c0,84.3,68.3,152.6,152.6,152.6c84.3,0,152.6-68.3,152.6-152.6
		C346.5,70,278.2,1.7,193.9,1.7z M276.9,122.1c0,4.2-3.4,7.6-7.6,7.6h-15.8c-4.2,0-7.6,3.4-7.6,7.6v33.9c0,4.2,3.4,7.6,7.6,7.6h15.7
		c4.2,0,7.6,3.4,7.6,7.6v33c0,4.2-3.4,7.6-7.6,7.6H118.4c-4.2,0-7.6-3.4-7.6-7.6v-33c0-4.2,3.4-7.6,7.6-7.6h15.8
		c4.2,0,7.6-3.4,7.6-7.6v-33.9c0-4.2-3.4-7.6-7.6-7.6h-15.7c-4.2,0-7.6-3.4-7.6-7.6v-34c0-4.2,3.4-7.6,7.6-7.6h150.8
		c4.2,0,7.6,3.4,7.6,7.6V122.1z"/>
	<g>
		<path d="M185.7,385c-4-1.5-8.2-1.9-10.6-2.9c-2.1-0.8-3.5-3.7-2.8-5.1c0,0,0-0.1,0-0.1c0.3-0.5,0.6-1.1,1.1-1.5c0,0,0,0,0.1,0
			c0,0,0,0,0,0c0.1-0.1,0.2-0.2,0.3-0.2c0,0,0,0,0,0c0.1,0,0.2-0.1,0.3-0.1c0.9-0.3,2.2-0.4,3.9-0.4c5.1,0,14,2.9,15.6,3.6
			c1.6,0.7,2.8,1.1,3.6,1.5c1.5,0.7,2.7,0.6,3.8-0.3c1.1-0.9,1.5-2.1,1.4-3.6l0-15.2c-0.1-0.7-0.4-1.3-0.9-1.9
			c-0.5-0.6-1.1-1-1.7-1.2c-3.9-1.3-18.4-3.2-23.7-3.2c-9.6,0-17.2,2.1-22.6,6.2c-5.4,4.1-8.6,10.1-8.1,17.8
			c0.6,10.3,8.1,16.5,9.5,17.4c8.5,5.7,19.4,6.7,21.8,7.6c5.4,1.9,4,4.3,4,5.5c0,0.7-0.5,1.2-1.4,1.5c-1,0.3-2.2,0.4-3.9,0.4
			c-5.1,0-10-0.9-14.9-2.8c-2.6-0.9-4.7-1.7-6.3-2.4c-1.6-0.7-2.8-1.1-3.6-1.5c-1.5-0.7-2.7-0.6-3.8,0.3c-1.1,0.9-1.5,2.1-1.4,3.6
			l-0.1,16c0.1,0.7,0.4,1.3,0.9,1.9c0.5,0.6,1.1,1,1.7,1.2c3.9,1.3,9.9,2.2,14.5,2.9c4.6,0.7,9.5,1.1,14.8,1.1
			c9.6,0,17.2-2.1,22.6-6.2c5.4-4.1,8.1-10.1,8.1-17.8C208.1,390.7,185.7,385,185.7,385z"/>
		<path d="M128,357h-20.8c-1,0-1.7,0.4-2.3,1.2c-0.6,0.8-0.9,1.7-0.9,2.7v31.7h0v31.8c0,1,0.3,1.9,0.9,2.7c0.6,0.8,1.4,1.2,2.3,1.2
			H128c0.9,0,1.6-0.4,2.2-1.2c0.6-0.8,0.9-1.7,0.9-2.7v-31.7h0v-31.8c0-1-0.3-1.9-0.9-2.7C129.6,357.4,128.8,357,128,357z"/>
		<path d="M299.4,359.1c-0.6-1.5-1.9-2.2-3.7-2.2h-23.8c-0.3,0-0.8,0.1-1.5,0.5c-0.6,0.3-1.1,0.6-1.4,0.8L251,383l0-22.1
			c0-1-0.4-1.9-1.2-2.7c-0.8-0.8-1.7-1.2-2.7-1.2h-22.4c-1,0-2,0.4-2.8,1.2c-0.8,0.8-1.2,1.7-1.2,2.7l0,31.7h0v31.9
			c0,1,0.4,1.9,1.2,2.7c0.8,0.8,1.7,1.2,2.8,1.2h22.4c1,0,1.9-0.4,2.7-1.2c0.8-0.8,1.2-1.7,1.2-2.7v-22.2l18.1,24.8
			c0.3,0.3,0.7,0.5,1.4,0.8c0.6,0.3,1.1,0.5,1.5,0.5h23.8c1.8,0,3-0.7,3.7-2.2c0.7-1.5,0.4-2.9-0.8-4.3l-20.6-29.3l20.6-29.3
			C299.8,362,300,360.6,299.4,359.1z"/>
		<path d="M91.8,359.2c-0.6-1.5-1.9-2.2-3.7-2.2H64.3c-0.3,0-0.8,0.1-1.5,0.5c-0.6,0.3-1.1,0.6-1.4,0.8l-18.1,24.8l0-22.2
			c0-1-0.4-1.9-1.2-2.7c-0.8-0.8-1.7-1.2-2.7-1.2H17.1c-1,0-2,0.4-2.8,1.2c-0.8,0.8-1.2,1.7-1.2,2.7l0,31.7h0v31.8
			c0,1,0.4,1.9,1.2,2.7c0.8,0.8,1.7,1.2,2.8,1.2h22.4c1,0,1.9-0.4,2.7-1.2c0.8-0.8,1.2-1.7,1.2-2.7v-22.1L61.5,427
			c0.3,0.3,0.7,0.5,1.4,0.8c0.7,0.3,1.1,0.5,1.5,0.5h23.8c1.8,0,3-0.7,3.7-2.2c0.6-1.5,0.4-2.9-0.8-4.3l-20.6-29.2L91,363.5
			C92.2,362.1,92.4,360.7,91.8,359.2z"/>
		<path d="M386,392.7c-0.1-11.7-3.8-21.1-11.2-27.9c-7.4-6.9-17.4-10.3-30-10.3c-12.5,0-22.4,3.4-29.8,10.3
			c-7.4,6.8-11.1,16.1-11.2,27.8h0c0.1,11.7,3.8,21.1,11.2,27.9c7.4,6.9,17.4,10.3,29.8,10.3c12.6,0,22.6-3.4,30-10.3
			C382.1,413.7,385.9,404.4,386,392.7L386,392.7z M344.8,407.5c-4.3,0-7.7-1.4-10.1-4.1c-2.3-2.6-3.5-6.2-3.6-10.7
			c0.1-4.6,1.3-8.2,3.6-10.8c2.4-2.7,5.8-4.1,10.1-4.1c4.4,0,7.8,1.4,10.2,4.1c2.3,2.6,3.5,6.2,3.6,10.7c-0.1,4.6-1.3,8.2-3.6,10.8
			C352.6,406.1,349.2,407.5,344.8,407.5z"/>
	</g>
</g>
<g id="Layer_1">
</g>
</svg>
