<?xml version="1.0" encoding="utf-8"?>
<!-- Generator: Adobe Illustrator 19.1.1, SVG Export Plug-In . SVG Version: 6.00 Build 0)  -->
<svg version="1.1" xmlns:svg="http://www.w3.org/2000/svg"
	 xmlns="http://www.w3.org/2000/svg" xmlns:xlink="http://www.w3.org/1999/xlink" x="0px" y="0px" viewBox="-185 330 240 131.2"
	 style="enable-background:new -185 330 240 131.2;" xml:space="preserve">
<style type="text/css">
	.st0{display:none;}
	.st1{fill:#C5000F;}
	.st2{fill:#FFFFFF;}
</style>
<g id="g4" transform="translate(0,0.244141)" class="st0">
</g>
<g id="g2446" transform="matrix(1.8999869,0,0,1.8999869,-86.404619,-86.582411)">
	<g id="g8" transform="translate(8.50391,48.6006)">
		<path id="path10" class="st1" d="M65.9,239.7H-60.4v-69H65.9V239.7z"/>
	</g>
	<g id="g12" transform="translate(19.8359,59.6201)">
		<path id="path14" class="st2" d="M-50,192.9l-5-9.6l-1.7,2.2v7.5h-6.9v-25.3h6.9V178l7.4-10.4h6.6l-7.5,10.4l8,15H-50z"/>
	</g>
	<g id="g16" transform="translate(51.3252,59.6201)">
		<path id="path18" class="st2" d="M-72.4,192.9v-25.3h6.9v19.7h7.5v5.7H-72.4z"/>
	</g>
	<g id="g20" transform="translate(73.7334,59.6201)">
		<path id="path22" class="st2" d="M-78.7,192.9v-25.3h16.8v5.3H-72v4.6h7.5v5.3H-72v4.9h10.4v5.3H-78.7z"/>
	</g>
	<g id="g24" transform="translate(101.217,59.6201)">
		<path id="path26" class="st2" d="M-86.5,192.9v-25.3h7v25.3H-86.5z"/>
	</g>
	<g id="g28" transform="translate(116.137,59.6201)">
		<path id="path30" class="st2" d="M-75.8,192.9l-8.9-14.3v14.3h-5.9v-25.3h6.5l8.4,13.5v-13.5h5.9v25.3H-75.8z"/>
	</g>
	<g id="g32" transform="translate(150.301,59.6201)">
		<path id="path34" class="st2" d="M-100.3,192.9v-25.3h16.8v5.3h-10.1v4.6h7.5v5.3h-7.5v4.9h10.4v5.3H-100.3z"/>
	</g>
	<g id="g36" transform="translate(19.709,99.8945)">
		<path id="path38" class="st2" d="M47.5,156.2h-111v2.7H47.5L47.5,156.2L47.5,156.2z"/>
	</g>
	<g id="g40" transform="translate(41.4023,108.757)">
		<path id="path42" class="st2" d="M-69.6,153.8v0.9l0.9,0.2c1.2,0.2,1.4,0.5,1.4,3.6v8.3c0,3-0.2,3.4-1.4,3.6l-0.9,0.2v1l4.7-0.1
			l6,0h2.7l0.8-3.9h-1c0,0-0.6,0.9-0.6,0.9c-1.2,1.7-1.6,1.7-3.5,1.7h-1.1c-2.2,0-2.6-0.2-2.6-2.9c0,0,0-4.2,0-4.3
			c0.1,0,1.8,0,1.8,0c2.7,0.1,2.9,0.3,3.1,1.9l0,0.5l0,0.1h1.1l0-1.2l0-2l0-2l0-1.2h-0.1h-1l-0.1,0.7c-0.2,1.5-0.5,1.7-3.1,1.7
			c0,0-1.7,0-1.8,0.1c0-0.1,0-6.2,0-6.4c0.6-0.1,1.3-0.2,2.4-0.2h0.4c2.2,0,2.7,0,3.8,1.6l0.7,1l0.9,0h0.1l-0.8-3.9h-2.1l-5.9,0
			L-69.6,153.8L-69.6,153.8z"/>
	</g>
	<g id="g44" transform="translate(63.0996,108.757)">
		<path id="path46" class="st2" d="M-67.6,153.7l-1,0l-2.9,0l-2.7,0l-1.5,0v1l1,0.2c1.5,0.3,1.8,0.4,1.8,3.6v8.3
			c0,3.2-0.2,3.3-1.8,3.6l-1,0.2v1l1.5,0l2.7,0l2.7,0l1.6,0v-1l-1-0.2c-1.5-0.3-1.8-0.4-1.8-3.6v-8.4c0-3.2,0.2-3.3,1.8-3.6
			c0,0,0.6-0.1,0.6-0.1l0.1,0L-67.6,153.7L-67.6,153.7z"/>
	</g>
	<g id="g48" transform="translate(75.1963,108.045)">
		<path id="path50" class="st2" d="M-62.9,153.9h-0.8c0,0-0.2,0.2-0.2,0.2c-0.5,0.4-0.6,0.5-6.9,0.5c-6,0-6.1-0.1-6.5-0.4l-0.2-0.2
			l-1,0l-0.6,5h0.9c0.1,0,0.7-1.3,0.7-1.3c0.8-1.6,1.2-1.8,3.6-1.8c0,0,1.3,0,1.5,0c0,0.1,0,11.7,0,11.7c0,3.2-0.3,3.3-1.8,3.6
			l-1,0.2v1l1.6,0l2.7,0l2.8,0l1.6,0v-1l-1-0.2c-1.6-0.3-1.8-0.4-1.8-3.6c0,0,0-11.6,0-11.7c0.1,0,1.6,0,1.6,0
			c2.3,0.1,2.7,0.2,3,1.8l0.3,1.3h1L-62.9,153.9L-62.9,153.9z"/>
	</g>
	<g id="g52" transform="translate(99,108.757)">
		<path id="path54" class="st2" d="M-68.4,153.7l-1.1,0l-1.8,0l-1.9,0l-1.2,0l0,0.1v0.9l0.6,0.1c1.6,0.3,1.9,0.6,1.9,3.6l0.1,6.1
			c0,3.5-1.7,5.5-4.7,5.5c-3.1,0-4.8-1.8-4.8-5.3v-6.3c0-3.2,0.2-3.3,1.6-3.6l1.1-0.2v-1l-1.5,0l-2.6,0l-2.9-0.1v1l0.1,0
			c1,0.2,1.3,0.7,1.3,3.6v6.9c0,3.2,1.8,6.6,6.9,6.6c4.5,0,7.1-2.5,7.2-6.7c0,0,0.1-6.6,0.1-6.6c0.1-3.1,0.3-3.4,1.8-3.7
			c0,0,0.2,0,0.2,0L-68.4,153.7L-68.4,153.7z"/>
	</g>
	<g id="g56" transform="translate(124.593,108.724)">
		<path id="path58" class="st2" d="M-90.7,153.8l-2.4-0.1l0,0.1v0.9l0.2,0l0.3,0.1c0.7,0.2,1.3,0.3,2,1c0,0-0.1,11-0.1,11
			c0,3.1-0.3,3.4-1.8,3.7l-0.4,0.1v1l1.2,0l1.8,0l2,0l1.2,0v-0.1v-0.9l-0.5-0.1c-1.6-0.3-1.9-0.6-1.9-3.6c0,0-0.1-9-0.1-9.4
			c0.6,0.7,11.8,14.2,11.8,14.2c0.1,0,0.7-0.2,0.7-0.2l0,0l0.1-13c0.1-3.1,0.3-3.4,1.8-3.6l0.4-0.1v-1l-1.2,0l-1.8,0l-2,0l-1.2,0
			v0.1v0.9l0.5,0.1c1.6,0.3,1.9,0.6,1.9,3.5c0,0,0.1,7.5,0.1,7.9c-0.3-0.3-10.3-12.5-10.3-12.5C-88.4,153.7-90.7,153.8-90.7,153.8z"
			/>
	</g>
	<g id="g60" transform="translate(152.35,108.405)">
		<path id="path62" class="st2" d="M-100.9,162.9c0,5.6,3.7,9.2,9.5,9.2c2.5,0,5.3-0.5,7-1.3l0-0.8v0l0,0c-1-0.4-1.1-0.5-1.1-2
			c0-2,0.2-2.4,1.4-2.6l0.5-0.1v-1l-0.8,0l-2.3,0l-2.5,0l-1.5,0l0,1l1,0.2c1.3,0.2,1.7,0.6,1.7,3.1v0.1c0,1.7-0.7,2.3-3,2.3
			c-4,0-6.3-2.9-6.3-8.3c0-4.6,2.2-7.5,5.7-7.5c2.3,0,3.5,0.8,4.7,3.1l0.5,1l1,0h0.1l-0.6-4.1c-1.6-0.9-3.4-1.3-5.4-1.3
			C-96,153.8-100.9,157-100.9,162.9z"/>
	</g>
	<g id="g64" transform="translate(18.457,108.037)">
		<path id="path66" class="st2" d="M-61.8,153.9L-61.8,153.9l-0.9,5.1h1c0.1,0,0.6-1.2,0.6-1.2c1-1.9,1.6-1.9,4.6-2
			c0,0,3.2-0.1,3.8-0.1c0,0,0,0.1,0,0.1c0,0-10.4,15.7-10.4,15.7l0.4,0.6l13.4,0l1.3-4.6h-1l-0.6,1.1c-1.1,2-2,2.1-5.4,2.2
			c0,0-3.6,0.1-4.2,0.1c0.1-0.2,10.5-15.7,10.5-15.7l-0.4-0.6l-4.8,0c-6.4,0-6.5-0.1-7.1-0.6l0,0l0,0H-61.8z"/>
	</g>
</g>
</svg>
