<?xml version="1.0" encoding="iso-8859-1"?><!-- Generator: Adobe Illustrator 16.0.0, SVG Export Plug-In . SVG Version: 6.00 Build 0) --><!DOCTYPE svg PUBLIC "-//W3C//DTD SVG 1.1//EN" "http://www.w3.org/Graphics/SVG/1.1/DTD/svg11.dtd"><svg version="1.1" id="Layer_1" xmlns="http://www.w3.org/2000/svg" xmlns:xlink="http://www.w3.org/1999/xlink" x="0px" y="0px" width="192.756px" height="192.756px" viewBox="0 0 192.756 192.756" style="enable-background:new 0 0 192.756 192.756;" xml:space="preserve"><g><polygon style="fill-rule:evenodd;clip-rule:evenodd;fill:#FFFFFF;" points="0,0 192.756,0 192.756,192.756 0,192.756 0,0	"/><polygon style="fill-rule:evenodd;clip-rule:evenodd;" points="189.922,119.525 2.834,119.525 2.834,73.23 163.189,73.23	163.258,73.23 189.922,73.23 189.922,119.525	"/><polygon style="fill-rule:evenodd;clip-rule:evenodd;fill:#FFFFFF;" points="17.194,77.071 17.194,88.365 20.494,88.365	30.963,77.071 43.764,77.071 29.906,91.81 44.817,106.652 44.817,77.071 53.789,77.071 53.789,107.338 30.963,107.338	20.494,95.472 17.194,95.472 17.194,107.338 6.344,107.338 6.344,77.071 17.194,77.071	"/><polygon style="fill-rule:evenodd;clip-rule:evenodd;fill:#FFFFFF;" points="66.686,77.071 66.686,82.591 57.358,82.562	57.358,77.071 66.686,77.071	"/><path style="fill-rule:evenodd;clip-rule:evenodd;fill:#FFFFFF;" d="M169.221,77.071v13.108c0-0.335,0.83-1.257,1.441-1.8	c2.752-2.887,7.139-2.234,10.938-2.234c2.209,0.374,5.662,1.163,5.773,4.205v17.016h-9.441V93.44	c-0.58-3.042-5.996-2.177-7.744-0.917c-1.189,1.121-0.781,2.887-0.986,4.417l0.02,10.398h-9.58V77.071H169.221L169.221,77.071z"/><path style="fill-rule:evenodd;clip-rule:evenodd;fill:#FFFFFF;" d="M125.826,88.379c0.986,0.985,1.223,2.437,1.088,3.864	l-8.898-0.025c-0.17-0.679-0.748-1.189-1.393-1.46c-2.141-0.442-5.543-0.462-6.76,0.136c-0.781,0.339-0.578,1.325-0.477,1.97	c0.85,1.086,2.344,0.951,3.67,1.053c4.551,0.374,9.543-0.306,13.348,1.868c2.004,1.699,2.377,4.687,1.562,7.099	c-1.801,4.041-6.318,4.246-10.189,4.652c-5.027,0.035-10.463,0.545-14.775-1.393c-1.902-1.121-2.752-3.314-2.684-5.488l8.967,0.02	c0.475,0.646,0.611,1.699,1.562,2.039c2.48,0.67,5.221,0.691,7.168,0.17c0.441-0.102,0.814-0.408,1.053-0.814	c0.135-0.68,0.17-1.496-0.307-2.039c-1.053-0.984-2.582-0.781-4.008-0.814c-4.721-0.104-9.68,0.271-13.281-2.514	c-1.801-1.937-1.461-5.469-0.34-7.575c2.344-3.125,6.217-2.819,9.783-3.125C116.146,86.205,121.818,85.288,125.826,88.379	L125.826,88.379z"/><path style="fill-rule:evenodd;clip-rule:evenodd;fill:#FFFFFF;" d="M156.736,90.655c0.35,1.2,0.57,2.337,0.475,3.601h-9.035	c-0.061-0.496-0.135-1.087-0.406-1.562c-1.529-1.8-4.688-1.359-6.861-0.985c-2.039,1.155-1.494,3.771-1.699,5.876	c0.17,1.699,0.068,3.871,1.971,4.484c2.174,0.203,5.367,0.916,6.658-1.223c0.066-0.578,0.236-1.123,0.17-1.801h9.307	c0.102,2.854-0.408,6.113-3.363,7.336c-4.891,1.664-10.732,1.359-16.135,0.918c-2.615-0.408-5.4-1.223-6.826-3.84	c-1.598-4.348-2.105-10.8,1.053-14.604c4.314-3.566,10.598-2.649,16.303-2.683C151.574,86.613,155.377,87.123,156.736,90.655	L156.736,90.655z"/><polygon style="fill-rule:evenodd;clip-rule:evenodd;fill:#FFFFFF;" points="66.686,86.145 66.686,107.338 57.358,107.338	57.358,86.155 66.686,86.145	"/><path style="fill-rule:evenodd;clip-rule:evenodd;fill:#FFFFFF;" d="M97.975,90.757c0.85,2.989,0.881,6.56,0.408,9.851	c-0.307,2.105-1.121,4.178-3.125,5.365c-3.975,2.039-9.864,2.209-13.906,0.17c-0.815-0.475-1.392-0.883-2.293-1.998v12.266h-9.01	V86.145h9.01l-0.003,3.288h0.17c2.276-4.348,7.948-3.566,12.228-3.159C94.035,86.714,96.93,87.269,97.975,90.757L97.975,90.757z M89.026,93.16c0.499,1.918,0.49,5.678-0.027,7.088c-1.614,2.568-6.531,1.947-8.381,1.242c-0.809-0.447-1.56-1.232-1.56-2.162	v-6.126c1.02-2.547,4.456-2.011,6.693-1.859C86.736,91.513,88.043,91.696,89.026,93.16L89.026,93.16z"/><path style="fill-rule:evenodd;clip-rule:evenodd;fill:#FFFFFF;" d="M184.906,79.148c0.473,0,0.924,0.118,1.357,0.353	s0.775,0.574,1.027,1.018c0.25,0.443,0.377,0.905,0.377,1.389c0,0.479-0.123,0.935-0.365,1.372	c-0.242,0.435-0.582,0.776-1.02,1.021c-0.438,0.245-0.895,0.368-1.377,0.368s-0.939-0.122-1.375-0.366	c-0.432-0.244-0.771-0.584-1.016-1.02c-0.246-0.437-0.369-0.894-0.369-1.375c0-0.483,0.125-0.944,0.373-1.385	c0.248-0.441,0.59-0.781,1.023-1.019S184.432,79.148,184.906,79.148L184.906,79.148z M184.91,79.688	c-0.379,0-0.742,0.095-1.09,0.283s-0.621,0.461-0.824,0.818c-0.201,0.356-0.303,0.729-0.303,1.119c0,0.384,0.098,0.751,0.293,1.102	c0.193,0.351,0.469,0.625,0.82,0.823c0.354,0.198,0.721,0.298,1.104,0.298c0.387,0,0.754-0.098,1.104-0.294	c0.352-0.195,0.623-0.47,0.82-0.823s0.295-0.722,0.295-1.106c0-0.387-0.1-0.758-0.299-1.111c-0.199-0.354-0.475-0.628-0.826-0.821	C185.65,79.784,185.287,79.688,184.91,79.688L184.91,79.688z M183.66,83.386v-2.93h0.594c0.576,0,0.889,0,0.938,0	c0.096,0,0.18,0.01,0.25,0.031c0.072,0.021,0.141,0.05,0.207,0.088c0.105,0.058,0.197,0.151,0.273,0.281	c0.074,0.129,0.113,0.269,0.113,0.422c0,0.208-0.068,0.39-0.205,0.541c-0.137,0.15-0.332,0.245-0.584,0.284	c0.088,0.033,0.156,0.07,0.205,0.111c0.047,0.037,0.113,0.11,0.199,0.224l0.215,0.357l0.348,0.591h-0.736l-0.246-0.476	c-0.164-0.313-0.301-0.512-0.41-0.598c-0.111-0.087-0.248-0.13-0.412-0.13h-0.154v1.204H183.66L183.66,83.386z M184.254,81.721	h0.24c0.35,0,0.564-0.014,0.645-0.04c0.08-0.027,0.145-0.073,0.193-0.139c0.047-0.066,0.072-0.141,0.072-0.225	c0-0.081-0.025-0.154-0.072-0.216c-0.041-0.062-0.107-0.107-0.195-0.137c-0.088-0.028-0.303-0.043-0.643-0.043h-0.24V81.721	L184.254,81.721z"/></g></svg>