<?xml version="1.0" encoding="utf-8"?>
<!-- Generator: Adobe Illustrator 18.1.1, SVG Export Plug-In . SVG Version: 6.00 Build 0)  -->
<svg version="1.1" id="Layer_1" xmlns="http://www.w3.org/2000/svg" xmlns:xlink="http://www.w3.org/1999/xlink" x="0px" y="0px"
	 viewBox="-153 154.3 512 512" enable-background="new -153 154.3 512 512" xml:space="preserve">
<g>
	<polygon fill="#FFFFFF" points="-153,154.3 359,154.3 359,666.3 -153,666.3 	"/>
	<polygon points="336.4,458.4 336.4,362.2 -130.4,362.2 -130.4,458.4 	"/>
	<polygon fill="#FFFFFF" points="-104.2,381.1 -75.2,381.1 -75.2,400.6 -75,400.6 -52.8,381.1 -20.1,381.1 -46.9,405 -15.9,437.7 
		-52.8,437.7 -75,414.6 -75.2,414.6 -75.2,437.7 -104.2,437.7 	"/>
	<path fill="#FFFFFF" d="M26,379.6c33.1,0,42.1,6.9,42.1,30c0,23.1-9,30-42.1,30c-32.9,0-41.9-6.9-41.9-30
		C-15.9,386.4-6.9,379.6,26,379.6L26,379.6L26,379.6z M26,427.9c13,0,12-14.3,12-18.9c0-4.8,0.2-17.8-12-17.8s-12,13-12,17.8
		C14,413.6,13.2,427.9,26,427.9L26,427.9z"/>
	<polygon fill="#FFFFFF" points="130.8,416.5 130.8,438.1 160.7,438.1 160.7,381.5 130.8,381.5 130.8,401 109.4,401 109.4,381.5 
		79.6,381.5 79.6,438.1 109.4,438.1 109.4,416.5 	"/>
	<path fill="#FFFFFF" d="M174.8,381.5h30.6v43c0,0,24.3,0.2,27.5,0.2c3.3,0,5.2-2.9,5.2-2.9v16.3h-63.3L174.8,381.5L174.8,381.5z"/>
	<path fill="#FFFFFF" d="M309.3,400.2c-6.3-5-11.7-6.5-17.4-6.7c-5.7,0-10.9,1.9-10.9,5.2c0,2.9,3.8,3.8,17.4,6.7
		c11.3,2.3,18.6,7.8,18.6,18.4c0,11.7-19.9,18.4-37.7,18.4c-12.6,0-22.2-2.1-30.8-5.9v-15.9c5.4,5.5,17.2,8.4,26.4,8.4
		c5,0,7.5-0.8,7.5-4.8c0-2.5-3.1-4.6-12.6-6.3c-18.2-3.3-24.3-8.4-24.3-17c0-12.6,15.9-19.9,35.4-19.9c10.5,0,20.1,0.2,28.5,4V400.2
		L309.3,400.2z"/>
	<path fill="#FFFFFF" d="M221.1,404.6l2.1-3.6c-6.3-3.1-8.2-10.9-5-15.3c3.4-4.8,13-6.9,18.2,0.6c4.4,6.3,0.2,11.7-1.7,13.2
		C232.8,401,221.1,404.6,221.1,404.6L221.1,404.6z"/>
</g>
</svg>
