<?xml version="1.0" encoding="utf-8"?>
<!-- Generator: Adobe Illustrator 19.2.1, SVG Export Plug-In . SVG Version: 6.00 Build 0)  -->
<svg version="1.1" id="Layer_1" xmlns="http://www.w3.org/2000/svg" xmlns:xlink="http://www.w3.org/1999/xlink" x="0px" y="0px"
	 viewBox="0 0 900 300" style="enable-background:new 0 0 900 300;" xml:space="preserve">
<style type="text/css">
	.st0{fill:#004289;}
	.st1{fill-rule:evenodd;clip-rule:evenodd;fill:#004289;}
	.st2{fill:none;stroke:#EC1C24;stroke-width:0.25;stroke-miterlimit:10;}
	.st3{fill:#CD3541;}
	.st4{fill:#C3002F;}
	.st5{fill:#305698;}
</style>
<g>
	<g>
		<path class="st0" d="M26.2,219.7c-0.7,0.6-1.1,1.3-1.4,2c-0.2,0.7-0.4,1.5-0.4,2.3c0,0.8,0.4,1.6,1,2.2c0.7,0.7,1.6,1.3,2.8,1.7
			c1.1,0.5,2.5,0.9,3.9,1.2c1.5,0.4,3,0.7,4.5,1.1c1.5,0.4,3,0.8,4.5,1.3c1.5,0.5,2.8,1.1,3.9,1.9c2.5,1.6,3.8,3.8,3.8,6.6
			c0,3.3-1.2,5.9-3.7,7.7c-2.5,1.8-5.9,2.6-10.3,2.6c-5,0-8.8-1-11.4-3.1c-2.3-1.9-3.6-4.5-4-8h4.2c0.1,2.4,1.3,4.3,3.5,5.6
			c1.9,1.1,4.5,1.7,7.7,1.7c6.6,0,10-2.1,10-6.3c0-1.4-0.6-2.6-1.8-3.4c-1.2-0.8-2.7-1.5-4.5-2.1c-1.8-0.5-3.7-1-5.8-1.5
			c-2.1-0.5-4-1.1-5.8-1.8c-1.8-0.7-3.3-1.7-4.5-2.9c-1.2-1.2-1.8-2.8-1.8-4.9c0-2.9,1.1-5.3,3.3-7.1c2.2-1.8,5.6-2.8,10-2.8
			c4.5,0,8,1,10.4,3.1c2.3,1.8,3.5,4.2,3.6,7.1h-4.1c-0.4-2.9-2.3-4.9-5.7-5.9c-1.2-0.4-2.7-0.5-4.5-0.5s-3.3,0.2-4.6,0.6
			C27.8,218.6,26.8,219.1,26.2,219.7z"/>
		<path class="st0" d="M75.7,218.1v12h19.7v3.9H75.7v12h22.1v3.9H71.7v-35.7h26.1v3.9H75.7z"/>
		<path class="st0" d="M151.9,249.9h-4.5l-4.3-10.4h-17.6l-4.3,10.4h-4.5l15.1-35.7h5L151.9,249.9z M141.5,235.8l-7.2-17.4
			l-7.2,17.4H141.5z"/>
		<path class="st0" d="M177,249.9h-4v-35.7h17c3.6,0,6.5,1,8.7,3c2.2,2,3.3,4.7,3.3,8.1c0,4.5-1.8,7.5-5.5,9.1c-1,0.5-2.1,0.8-3.1,1
			l9.3,14.4h-4.8l-8.6-13.7H177V249.9z M177,232.4h12.3c3.8,0,6.4-1.2,7.8-3.6c0.5-0.9,0.8-2,0.8-3.4c0-2.3-0.8-4.1-2.3-5.4
			c-1.5-1.3-3.6-2-6.1-2H177V232.4z"/>
		<path class="st0" d="M241.3,246.4c2.5,0,4.8-0.6,6.7-1.9c1.9-1.3,3.3-3,4.3-5.2h4.2c-1.2,3.4-3.1,6-5.9,8
			c-2.9,2.1-6.3,3.1-10.2,3.1c-5.2,0-9.4-1.8-12.6-5.3c-3-3.4-4.5-7.7-4.5-12.9c0-5.2,1.5-9.5,4.5-12.9c3.2-3.6,7.4-5.3,12.6-5.3
			c3.9,0,7.3,1,10.2,3.1c2.7,1.9,4.7,4.6,5.9,8h-4.2c-0.9-2.2-2.3-3.9-4.3-5.2c-1.9-1.3-4.1-1.9-6.7-1.9s-4.7,0.4-6.3,1.1
			c-1.7,0.7-3.1,1.7-4.2,3c-2.3,2.6-3.5,6-3.5,10.2c0,4.2,1.2,7.6,3.5,10.2C233.1,245,236.6,246.4,241.3,246.4z"/>
		<path class="st0" d="M307.7,214.2v35.7h-4V234h-20.6v15.9h-4v-35.7h4v15.9h20.6v-15.9H307.7z"/>
		<path class="st0" d="M362.9,216.6c1-0.9,2.2-1.5,3.7-2.1c1.5-0.5,3.1-0.7,5-0.7c1.9,0,3.5,0.2,4.8,0.6c1.3,0.4,2.4,1,3.4,1.7
			c1.7,1.3,2.7,3,3.2,5.1h-4.2c-0.3-0.9-1-1.7-2.2-2.5c-1.2-0.8-2.6-1.2-4.3-1.2c-1.7,0-3.1,0.2-4,0.5c-1,0.3-1.8,0.8-2.4,1.3
			c-1.2,1.1-1.8,2.5-1.8,4.3c0,1.9,0.7,3.4,2.1,4.5c1.2,0.9,2.9,1.4,4.9,1.4h8.6v-2.4h3.7v2.4h3.5v3.6h-3.5v6.9
			c0,3.1-1.1,5.6-3.2,7.4c-2.2,1.9-5.1,2.9-8.9,2.9c-3.4,0-6.3-1-8.7-3c-2.5-2-3.7-4.6-3.7-7.7c0-1.9,0.6-3.7,1.7-5.2
			c1.1-1.5,2.8-2.7,4.8-3.4c-1.3-0.4-2.5-1.3-3.6-2.7c-1.2-1.6-1.8-3.1-1.8-4.6c0-1.5,0.2-2.9,0.7-4
			C361.1,218.5,361.9,217.5,362.9,216.6z M370.4,233.1c-2.2,0-4,0.7-5.5,2c-1.4,1.2-2.1,2.8-2.1,4.6c0,1.9,0.8,3.5,2.4,4.8
			c1.6,1.4,3.6,2.1,6.1,2.1c2.6,0,4.7-0.7,6.3-2c1.4-1.2,2.1-2.6,2.1-4.4v-7.2H370.4z"/>
		<path class="st0" d="M440.9,219.7c-0.7,0.6-1.1,1.3-1.4,2c-0.2,0.7-0.4,1.5-0.4,2.3c0,0.8,0.4,1.6,1,2.2c0.7,0.7,1.6,1.3,2.8,1.7
			c1.1,0.5,2.5,0.9,3.9,1.2c1.5,0.4,3,0.7,4.5,1.1c1.5,0.4,3,0.8,4.5,1.3c1.5,0.5,2.8,1.1,3.9,1.9c2.5,1.6,3.8,3.8,3.8,6.6
			c0,3.3-1.2,5.9-3.7,7.7c-2.5,1.8-5.9,2.6-10.3,2.6c-5,0-8.8-1-11.4-3.1c-2.3-1.9-3.6-4.5-4-8h4.2c0.1,2.4,1.3,4.3,3.5,5.6
			c1.9,1.1,4.5,1.7,7.7,1.7c6.6,0,10-2.1,10-6.3c0-1.4-0.6-2.6-1.8-3.4c-1.2-0.8-2.7-1.5-4.5-2.1c-1.8-0.5-3.7-1-5.8-1.5
			c-2.1-0.5-4-1.1-5.8-1.8c-1.8-0.7-3.3-1.7-4.5-2.9c-1.2-1.2-1.8-2.8-1.8-4.9c0-2.9,1.1-5.3,3.3-7.1c2.2-1.8,5.6-2.8,10-2.8
			c4.5,0,8,1,10.4,3.1c2.3,1.8,3.5,4.2,3.6,7.1h-4.1c-0.4-2.9-2.3-4.9-5.7-5.9c-1.2-0.4-2.7-0.5-4.5-0.5c-1.8,0-3.3,0.2-4.6,0.6
			C442.5,218.6,441.5,219.1,440.9,219.7z"/>
		<path class="st0" d="M490.4,218.1v12h19.7v3.9h-19.7v12h22.1v3.9h-26.1v-35.7h26.1v3.9H490.4z"/>
		<path class="st0" d="M539.6,214.2V246h19.4v3.9h-23.4v-35.7H539.6z"/>
		<path class="st0" d="M584.8,218.1v12h19.7v3.9h-19.7v12h22.1v3.9h-26.1v-35.7h26.1v3.9H584.8z"/>
		<path class="st0" d="M645.1,246.4c2.5,0,4.8-0.6,6.7-1.9c1.9-1.3,3.3-3,4.3-5.2h4.2c-1.2,3.4-3.1,6-5.8,8
			c-2.9,2.1-6.3,3.1-10.2,3.1c-5.2,0-9.4-1.8-12.6-5.3c-3.1-3.4-4.6-7.7-4.6-12.9c0-5.2,1.5-9.5,4.6-12.9c3.2-3.6,7.4-5.3,12.6-5.3
			c3.9,0,7.3,1,10.2,3.1c2.7,1.9,4.7,4.6,5.8,8h-4.2c-0.9-2.2-2.3-3.9-4.3-5.2c-1.9-1.3-4.1-1.9-6.7-1.9s-4.6,0.4-6.3,1.1
			c-1.7,0.7-3.1,1.7-4.2,3c-2.3,2.6-3.5,6-3.5,10.2c0,4.2,1.2,7.6,3.5,10.2C637,245,640.5,246.4,645.1,246.4z"/>
		<path class="st0" d="M707.8,218.1h-12.4v31.8h-4v-31.8H679v-3.9h28.8V218.1z"/>
		<path class="st0" d="M733.5,249.9h-4v-35.7h4V249.9z"/>
		<path class="st0" d="M774.6,213.8c5.3,0,9.6,1.8,13,5.3c3.3,3.5,5,7.8,5,12.9c0,5.2-1.7,9.5-5,12.9c-3.4,3.6-7.7,5.3-13,5.3
			s-9.6-1.8-13-5.3c-3.3-3.5-5-7.8-5-12.9c0-5.2,1.7-9.5,5-12.9C764.9,215.6,769.3,213.8,774.6,213.8z M774.6,246.4
			c4.2,0,7.6-1.4,10.2-4.1c2.5-2.7,3.7-6.1,3.7-10.2c0-4.1-1.3-7.5-3.7-10.2c-2.6-2.8-6-4.2-10.2-4.2c-4.2,0-7.6,1.4-10.2,4.2
			c-2.5,2.7-3.7,6.1-3.7,10.2c0,4.1,1.2,7.5,3.7,10.2C766.9,245,770.4,246.4,774.6,246.4z"/>
		<path class="st0" d="M846.2,214.2v35.7h-4.7l-21.9-30.1v30.1h-4v-35.7h4.7l21.9,30v-30H846.2z"/>
	</g>
	<g>
		<path class="st1" d="M258.8,114.3c0,23.2-19,42.2-42.1,42.2c-23.3,0-42.1-19-42.1-42.2c0-23,18.8-42,42.1-42
			C239.8,72.3,258.8,91.3,258.8,114.3z M286.3,114.5c0-38.2-31.2-69.3-69.4-69.3c-38.5,0-69.6,31.2-69.6,69.3
			c0,38.3,31.2,69.5,69.6,69.5C255.2,184.1,286.3,152.9,286.3,114.5z"/>
		<path class="st1" d="M531.7,51.7c0,0.8,0,129.3,0,131.5c0,0.8,0.4,0.8,1.2,0.8c1.4,0,85.8,0,90.3,0c0.8,0,1-0.2,1-1v-24.7
			c0-0.6,0-1-0.8-1c-21.6,0-65,0-65,0v-27.9c0,0,28.7,0,45.7,0c0.8,0,1-0.2,1-1v-24.7c0-0.6,0-1-1-1c-4.1,0-47,0-47,0V77.6h63.3
			c0.8,0,1-0.4,1-1.2V51.5c0-0.4-0.2-0.8-1-1c-1,0-58.5,0-87.6,0C532.1,50.5,531.7,50.9,531.7,51.7z"/>
		<path class="st1" d="M880.6,76.2V51.3c0-0.4-0.2-0.8-1-0.8H775.1c-0.8,0-1.2,0.4-1.2,1v24.9c0,0.8,0.4,0.8,1.2,0.8
			c8.7,0,31.2,0,39.1,0c-0.2,36.8-0.2,70.2-0.2,106c0,0.8,0.4,0.8,1.2,0.8h24.5c0.8,0,1.2-0.2,1.2-1c0-35.4-0.2-70.6-0.2-105.8
			c13.2-0.2,25.7,0,38.7,0C880.2,77.2,880.6,77,880.6,76.2z"/>
		<path class="st0" d="M419,184h-24.5l-68.6-91.9v90.1c0.4,2.2-1.8,1.8-1.8,1.8h-23.9c0,0-1,0.2-1-1.6V51.5l26.7-1l67.6,90v-89
			l1.4-1h23.7h1.6l67.8,90.3v-89l24.9-1.2c2.2,0,1.8,1.2,1.8,1.2v131.1c0,1.4-1.4,1.2-1.4,1.2H488l-67.6-91.6v90.4
			C420.4,184.2,419,184,419,184z"/>
		<path class="st1" d="M52,183.1V51.5c0-0.6,0-1-1-1H26.4c-0.8,0-1.2,0.4-1.2,1v131.7c0,0.8,0.4,0.8,1.2,0.8h24.5
			C51.7,184.1,52,183.9,52,183.1z"/>
		<path class="st1" d="M664.4,183.2V51.6c0-0.6,0-1-1-1h-24.5c-0.8,0-1.2,0.4-1.2,1v131.8c0,0.8,0.4,0.8,1.2,0.8h24.5
			C664.1,184.2,664.4,184,664.4,183.2z"/>
		<path class="st2" d="M56.2,117.2"/>
		<polygon class="st3" points="56.2,117.2 76.5,95 157.7,184 117.2,184 		"/>
		<path class="st2" d="M87,149.6"/>
		<polygon class="st4" points="56.2,117.3 76.5,139.5 157.7,50.5 117.2,50.5 		"/>
		<polygon class="st3" points="56.2,117.3 56.2,117.3 157.7,50.5 117.2,50.5 		"/>
		<polygon class="st4" points="56.2,117.2 56.2,117.2 157.7,184 117.2,184 		"/>
		<path class="st2" d="M699.2,149.6"/>
		<polygon class="st5" points="668.3,117.3 688.6,139.5 769.9,50.5 729.3,50.5 		"/>
		<polygon class="st0" points="668.3,117.2 688.6,95 769.9,184 729.3,184 		"/>
		<polygon class="st5" points="668.3,117.2 668.3,117.2 769.9,184 729.3,184 		"/>
		<polygon class="st0" points="668.3,117.3 668.3,117.3 769.9,50.5 729.3,50.5 		"/>
	</g>
</g>
</svg>
