<?xml version="1.0" encoding="utf-8"?>
<!-- Generator: Adobe Illustrator 16.0.3, SVG Export Plug-In . SVG Version: 6.00 Build 0)  -->
<!DOCTYPE svg PUBLIC "-//W3C//DTD SVG 1.1//EN" "http://www.w3.org/Graphics/SVG/1.1/DTD/svg11.dtd">
<svg version="1.1" id="Layer_1" xmlns="http://www.w3.org/2000/svg" xmlns:xlink="http://www.w3.org/1999/xlink" x="0px" y="0px"
	 width="595.28px" height="242px" viewBox="0 0 595.28 242" enable-background="new 0 0 595.28 242" xml:space="preserve">
<g>
	<rect x="224.933" y="73.171" fill="#1C3C6D" width="2" height="99.174"/>
	<g>
		<g>
			<path fill="#1C3C6D" d="M254.648,96.794l-4.925,5.124v13.614h-5.313V73.171h5.313v21.995l4.372-4.87l13.531-15.053h6.42
				L258.19,93.031l17.101,22.5h-6.364L254.648,96.794z"/>
			<path fill="#1C3C6D" d="M293.609,90.185c-0.443-0.071-0.854-0.126-1.229-0.15c-0.379-0.031-0.811-0.039-1.289-0.039
				c-1.771,0-3.214,0.379-4.333,1.154c-1.115,0.774-1.949,1.818-2.502,3.131v21.251h-5.119v-29.94h4.981l0.083,3.455
				c0.774-1.233,1.743-2.214,2.905-2.925c1.162-0.728,2.573-1.083,4.234-1.083c0.368,0,0.794,0.039,1.273,0.126
				c0.479,0.079,0.811,0.166,0.996,0.261V90.185z"/>
			<path fill="#1C3C6D" d="M315.691,115.532c-0.182-0.372-0.332-0.838-0.443-1.399c-0.11-0.561-0.197-1.146-0.276-1.755
				c-0.475,0.498-1.021,0.973-1.621,1.423c-0.593,0.451-1.257,0.854-1.96,1.194c-0.712,0.34-1.479,0.608-2.316,0.799
				c-0.822,0.197-1.708,0.292-2.625,0.292c-1.534,0-2.918-0.229-4.167-0.695c-1.241-0.459-2.301-1.083-3.179-1.882
				c-0.877-0.791-1.557-1.724-2.035-2.807c-0.479-1.075-0.72-2.237-0.72-3.471c0-1.605,0.313-3.021,0.941-4.246
				c0.628-1.225,1.522-2.253,2.7-3.091c1.171-0.822,2.585-1.455,4.246-1.882c1.66-0.419,3.51-0.632,5.565-0.632h5.092v-2.356
				c0-1.787-0.537-3.21-1.613-4.27c-1.066-1.06-2.641-1.597-4.728-1.597c-0.964,0-1.834,0.134-2.625,0.395
				c-0.798,0.253-1.47,0.601-2.04,1.036c-0.561,0.435-0.996,0.933-1.313,1.51c-0.315,0.569-0.474,1.17-0.474,1.794h-5.143
				c0-1.067,0.281-2.127,0.842-3.186c0.565-1.043,1.359-1.993,2.396-2.831c1.035-0.838,2.285-1.525,3.747-2.048
				c1.471-0.529,3.107-0.79,4.91-0.79c1.628,0,3.131,0.205,4.498,0.624c1.376,0.411,2.554,1.044,3.534,1.882
				c0.973,0.838,1.739,1.882,2.293,3.139c0.553,1.257,0.83,2.72,0.83,4.404v13.915c0,1.012,0.087,2.08,0.261,3.194
				s0.442,2.079,0.791,2.894v0.443H315.691z M307.191,111.626c0.926,0,1.795-0.126,2.609-0.379c0.807-0.261,1.55-0.601,2.214-1.012
				c0.664-0.419,1.233-0.893,1.724-1.423c0.49-0.538,0.869-1.091,1.154-1.66V101h-4.27c-2.925,0-5.187,0.459-6.775,1.376
				c-1.589,0.909-2.38,2.293-2.38,4.135c0,0.72,0.119,1.392,0.364,2.016c0.236,0.632,0.601,1.17,1.091,1.621
				c0.49,0.451,1.091,0.814,1.794,1.083C305.429,111.5,306.259,111.626,307.191,111.626z"/>
			<path fill="#1C3C6D" d="M353.379,100.89c0,2.198-0.252,4.222-0.774,6.08c-0.521,1.85-1.272,3.455-2.269,4.814
				c-0.996,1.352-2.214,2.411-3.653,3.163c-1.438,0.759-3.075,1.138-4.925,1.138c-1.977,0-3.685-0.348-5.123-1.035
				c-1.439-0.696-2.657-1.685-3.653-2.981l-0.245,3.463h-4.704V73.028h5.123v15.86c0.997-1.241,2.19-2.19,3.59-2.854
				c1.407-0.664,3.052-0.996,4.957-0.996c1.882,0,3.55,0.371,4.997,1.106c1.446,0.735,2.664,1.779,3.652,3.115
				s1.731,2.941,2.253,4.814c0.522,1.874,0.774,3.953,0.774,6.238V100.89z M348.256,100.313c0-1.494-0.134-2.901-0.41-4.222
				c-0.277-1.32-0.728-2.475-1.345-3.471c-0.616-0.996-1.423-1.787-2.419-2.364c-0.996-0.585-2.214-0.877-3.652-0.877
				c-0.941,0-1.787,0.126-2.546,0.364s-1.439,0.569-2.032,0.996c-0.601,0.427-1.123,0.925-1.565,1.494s-0.822,1.194-1.131,1.858
				v12.95c0.333,0.664,0.72,1.281,1.171,1.85c0.458,0.569,0.98,1.067,1.581,1.494s1.28,0.759,2.031,0.996s1.605,0.356,2.546,0.356
				c1.384,0,2.569-0.285,3.542-0.854s1.779-1.344,2.411-2.324c0.625-0.98,1.084-2.127,1.376-3.447
				c0.301-1.32,0.442-2.72,0.442-4.222V100.313z"/>
			<path fill="#1C3C6D" d="M359.854,77.646c0-0.822,0.253-1.525,0.767-2.103c0.506-0.569,1.25-0.854,2.246-0.854
				s1.755,0.285,2.276,0.854c0.506,0.577,0.774,1.28,0.774,2.103c0,0.838-0.269,1.526-0.774,2.079
				c-0.521,0.554-1.28,0.831-2.276,0.831s-1.74-0.277-2.246-0.831C360.107,79.172,359.854,78.483,359.854,77.646z M365.381,115.532
				h-5.107v-29.94h5.107V115.532z"/>
			<path fill="#939598" d="M409.877,105.349c0-0.941-0.143-1.771-0.428-2.49c-0.284-0.72-0.79-1.376-1.518-1.977
				c-0.728-0.601-1.708-1.162-2.941-1.692c-1.249-0.521-2.814-1.067-4.712-1.62c-1.992-0.569-3.795-1.218-5.407-1.945
				c-1.613-0.728-2.989-1.573-4.127-2.522c-1.123-0.949-2.009-2.032-2.609-3.25c-0.617-1.217-0.917-2.609-0.917-4.174
				c0-1.573,0.332-3.028,0.98-4.364c0.664-1.336,1.581-2.499,2.782-3.487c1.202-0.988,2.641-1.755,4.317-2.308
				c1.676-0.553,3.558-0.831,5.613-0.831c2.276,0,4.301,0.34,6.071,1.028c1.771,0.68,3.258,1.581,4.459,2.704
				c1.218,1.13,2.135,2.427,2.752,3.906c0.633,1.479,0.948,2.996,0.948,4.569h-5.345c0-1.13-0.174-2.174-0.537-3.131
				c-0.363-0.956-0.901-1.786-1.645-2.49c-0.743-0.703-1.66-1.241-2.768-1.637c-1.106-0.379-2.419-0.577-3.937-0.577
				c-1.407,0-2.657,0.166-3.7,0.498c-1.06,0.333-1.913,0.791-2.609,1.368c-0.68,0.585-1.186,1.272-1.518,2.063
				c-0.332,0.791-0.49,1.66-0.49,2.601c0,0.846,0.174,1.621,0.537,2.325c0.364,0.703,0.918,1.344,1.677,1.937
				c0.743,0.593,1.724,1.139,2.909,1.629c1.202,0.506,2.625,0.98,4.285,1.438c2.277,0.648,4.254,1.368,5.914,2.151
				s3.035,1.676,4.111,2.672c1.074,0.996,1.881,2.111,2.403,3.344c0.537,1.233,0.79,2.641,0.79,4.206
				c0,1.645-0.332,3.123-0.996,4.451c-0.664,1.329-1.612,2.467-2.83,3.408c-1.233,0.94-2.704,1.668-4.428,2.174
				s-3.652,0.759-5.771,0.759c-1.233,0-2.467-0.118-3.716-0.348c-1.233-0.229-2.419-0.577-3.542-1.036
				c-1.139-0.458-2.197-1.036-3.162-1.716s-1.818-1.478-2.53-2.379c-0.728-0.901-1.28-1.921-1.691-3.044
				c-0.411-1.123-0.601-2.364-0.601-3.708h5.328c0,1.384,0.285,2.569,0.822,3.558s1.281,1.803,2.182,2.443
				c0.918,0.648,1.977,1.122,3.163,1.431c1.186,0.301,2.435,0.451,3.747,0.451c2.799,0,4.949-0.569,6.451-1.708
				C409.133,108.883,409.877,107.325,409.877,105.349z"/>
			<path fill="#939598" d="M433.231,111.911c0.917,0,1.771-0.15,2.608-0.443c0.822-0.3,1.565-0.703,2.198-1.217
				c0.632-0.522,1.154-1.13,1.55-1.842c0.395-0.711,0.632-1.479,0.711-2.316h4.839c-0.079,1.328-0.442,2.601-1.091,3.811
				c-0.664,1.21-1.519,2.27-2.594,3.179c-1.075,0.917-2.309,1.645-3.716,2.189c-1.423,0.546-2.909,0.814-4.506,0.814
				c-2.245,0-4.206-0.403-5.883-1.202c-1.66-0.806-3.052-1.889-4.158-3.257c-1.106-1.359-1.929-2.949-2.482-4.759
				c-0.538-1.803-0.807-3.716-0.807-5.724V99.98c0-2.008,0.269-3.921,0.807-5.732c0.554-1.803,1.376-3.392,2.482-4.759
				c1.106-1.36,2.498-2.443,4.158-3.25c1.661-0.798,3.605-1.201,5.866-1.201c1.74,0,3.337,0.276,4.76,0.83
				c1.439,0.553,2.672,1.313,3.716,2.285c1.044,0.964,1.866,2.111,2.451,3.439s0.917,2.76,0.996,4.293h-4.839
				c-0.079-0.925-0.3-1.786-0.664-2.585c-0.348-0.807-0.838-1.502-1.438-2.103c-0.617-0.601-1.345-1.075-2.183-1.423
				c-0.838-0.355-1.771-0.529-2.799-0.529c-1.597,0-2.909,0.316-3.953,0.94c-1.043,0.625-1.881,1.455-2.514,2.475
				c-0.633,1.028-1.091,2.183-1.344,3.463c-0.253,1.281-0.38,2.569-0.38,3.858v1.162c0,1.328,0.127,2.633,0.38,3.914
				s0.695,2.435,1.328,3.447c0.633,1.012,1.471,1.834,2.514,2.459C430.306,111.595,431.634,111.911,433.231,111.911z"/>
			<path fill="#939598" d="M456.017,89.22c1.06-1.313,2.34-2.34,3.843-3.076c1.486-0.735,3.162-1.106,5.012-1.106
				c1.455,0,2.768,0.197,3.953,0.593s2.182,1.036,3.021,1.913c0.822,0.878,1.47,2,1.913,3.376c0.459,1.376,0.68,3.036,0.68,4.989
				v19.623h-5.123v-19.67c0-1.17-0.127-2.158-0.379-2.98c-0.254-0.822-0.648-1.486-1.154-2c-0.506-0.522-1.139-0.901-1.882-1.138
				s-1.613-0.364-2.577-0.364c-1.661,0-3.131,0.443-4.381,1.328c-1.249,0.885-2.229,2.056-2.925,3.495v21.331h-5.123V73.028h5.123
				V89.22z"/>
			<path fill="#939598" d="M480.747,100.289c0-2.183,0.315-4.198,0.948-6.049c0.648-1.857,1.55-3.463,2.72-4.83
				c1.17-1.368,2.593-2.436,4.27-3.21c1.692-0.775,3.573-1.162,5.646-1.162c2.134,0,4.031,0.387,5.724,1.162
				c1.676,0.774,3.114,1.842,4.301,3.21c1.186,1.367,2.087,2.973,2.704,4.83c0.632,1.851,0.948,3.866,0.948,6.049v0.601
				c0,2.182-0.316,4.198-0.948,6.048c-0.617,1.858-1.519,3.463-2.704,4.815c-1.187,1.359-2.609,2.419-4.285,3.186
				c-1.692,0.767-3.573,1.146-5.677,1.146c-2.103,0-4-0.379-5.677-1.146c-1.676-0.767-3.099-1.826-4.285-3.186
				c-1.186-1.353-2.087-2.957-2.735-4.815c-0.633-1.85-0.948-3.866-0.948-6.048V100.289z M485.901,100.89
				c0,1.502,0.174,2.909,0.522,4.237c0.348,1.329,0.885,2.499,1.581,3.503c0.711,1.004,1.597,1.803,2.656,2.396
				c1.075,0.585,2.309,0.885,3.731,0.885c1.407,0,2.641-0.3,3.7-0.885c1.075-0.593,1.961-1.392,2.656-2.396
				c0.712-1.004,1.233-2.174,1.597-3.503c0.364-1.328,0.538-2.735,0.538-4.237v-0.601c0-1.479-0.174-2.886-0.538-4.222
				c-0.363-1.336-0.9-2.514-1.612-3.518c-0.696-1.004-1.597-1.803-2.656-2.403c-1.075-0.601-2.324-0.901-3.747-0.901
				c-1.393,0-2.625,0.3-3.669,0.901c-1.06,0.601-1.945,1.399-2.656,2.403c-0.696,1.004-1.233,2.182-1.581,3.518
				c-0.349,1.336-0.522,2.744-0.522,4.222V100.89z"/>
			<path fill="#939598" d="M513.066,100.289c0-2.183,0.316-4.198,0.949-6.049c0.648-1.857,1.55-3.463,2.72-4.83
				c1.17-1.368,2.593-2.436,4.27-3.21c1.691-0.775,3.573-1.162,5.645-1.162c2.135,0,4.032,0.387,5.724,1.162
				c1.677,0.774,3.115,1.842,4.302,3.21c1.186,1.367,2.087,2.973,2.704,4.83c0.632,1.851,0.948,3.866,0.948,6.049v0.601
				c0,2.182-0.316,4.198-0.948,6.048c-0.617,1.858-1.519,3.463-2.704,4.815c-1.187,1.359-2.609,2.419-4.285,3.186
				c-1.692,0.767-3.573,1.146-5.677,1.146s-4-0.379-5.677-1.146c-1.676-0.767-3.099-1.826-4.285-3.186
				c-1.186-1.353-2.087-2.957-2.735-4.815c-0.633-1.85-0.949-3.866-0.949-6.048V100.289z M518.222,100.89
				c0,1.502,0.174,2.909,0.521,4.237c0.349,1.329,0.886,2.499,1.581,3.503c0.712,1.004,1.598,1.803,2.657,2.396
				c1.075,0.585,2.309,0.885,3.731,0.885c1.407,0,2.641-0.3,3.7-0.885c1.075-0.593,1.96-1.392,2.656-2.396
				c0.712-1.004,1.233-2.174,1.597-3.503c0.364-1.328,0.538-2.735,0.538-4.237v-0.601c0-1.479-0.174-2.886-0.538-4.222
				c-0.363-1.336-0.9-2.514-1.612-3.518c-0.696-1.004-1.597-1.803-2.656-2.403c-1.075-0.601-2.325-0.901-3.748-0.901
				c-1.392,0-2.624,0.3-3.668,0.901c-1.06,0.601-1.945,1.399-2.657,2.403c-0.695,1.004-1.232,2.182-1.581,3.518
				c-0.348,1.336-0.521,2.744-0.521,4.222V100.89z"/>
			<path fill="#939598" d="M552.313,115.532h-5.123V73.028h5.123V115.532z"/>
			<path fill="#1C3C6D" d="M249.723,172.202h-5.313v-40.289h5.313V172.202z"/>
			<path fill="#1C3C6D" d="M263.862,142.263l0.166,3.763c1.071-1.344,2.36-2.403,3.874-3.17c1.514-0.767,3.21-1.146,5.092-1.146
				c1.459,0,2.775,0.197,3.957,0.593s2.186,1.035,3.016,1.913s1.47,2.001,1.925,3.376c0.45,1.376,0.676,3.036,0.676,4.989v19.622
				h-5.119v-19.67c0-1.17-0.13-2.158-0.388-2.98c-0.257-0.822-0.64-1.486-1.146-2c-0.51-0.522-1.139-0.901-1.882-1.139
				c-0.751-0.237-1.613-0.363-2.589-0.363c-1.66,0-3.119,0.442-4.372,1.328c-1.253,0.885-2.233,2.055-2.933,3.494v21.33h-5.12
				v-29.939H263.862z"/>
			<path fill="#1C3C6D" d="M297.234,135.013v7.25h5.594v3.961h-5.594v18.563c0,0.774,0.091,1.399,0.276,1.865
				c0.186,0.475,0.431,0.839,0.731,1.091c0.309,0.262,0.656,0.436,1.052,0.515c0.403,0.087,0.814,0.126,1.233,0.126
				s0.869-0.039,1.344-0.126c0.467-0.079,0.83-0.15,1.091-0.206v4.15c-0.403,0.111-0.933,0.229-1.573,0.364
				c-0.648,0.126-1.438,0.189-2.355,0.189c-0.941,0-1.831-0.134-2.673-0.403c-0.838-0.269-1.569-0.711-2.198-1.336
				c-0.628-0.633-1.126-1.455-1.494-2.482c-0.368-1.02-0.553-2.277-0.553-3.779v-18.531h-5.451v-3.961h5.451v-7.25H297.234z"/>
			<path fill="#1C3C6D" d="M321.226,172.756c-2.079,0-3.978-0.363-5.653-1.075c-1.691-0.727-3.139-1.724-4.332-3.004
				c-1.202-1.281-2.127-2.814-2.768-4.586c-0.648-1.771-0.973-3.7-0.973-5.803v-1.17c0-2.436,0.364-4.609,1.1-6.531
				c0.727-1.913,1.691-3.525,2.909-4.838s2.608-2.309,4.183-3.004c1.573-0.688,3.201-1.036,4.894-1.036
				c2.143,0,3.984,0.371,5.534,1.122c1.55,0.744,2.83,1.771,3.843,3.084c0.996,1.313,1.739,2.861,2.222,4.648
				s0.719,3.74,0.719,5.843v2.293h-20.287c0.04,1.384,0.27,2.672,0.68,3.874c0.412,1.201,1.013,2.245,1.771,3.131
				c0.767,0.885,1.691,1.581,2.768,2.103c1.075,0.515,2.309,0.775,3.668,0.775c1.803,0,3.336-0.372,4.594-1.107
				c1.257-0.743,2.348-1.724,3.297-2.94l3.123,2.435c-0.482,0.743-1.06,1.455-1.748,2.15c-0.68,0.688-1.471,1.305-2.387,1.851
				c-0.918,0.545-1.961,0.98-3.147,1.305C324.056,172.598,322.72,172.756,321.226,172.756z M320.585,145.915
				c-1.028,0-1.977,0.189-2.847,0.569c-0.869,0.379-1.645,0.925-2.324,1.645s-1.249,1.612-1.707,2.68
				c-0.443,1.075-0.76,2.301-0.918,3.685h14.99v-0.388c-0.047-0.996-0.213-1.984-0.475-2.965c-0.269-0.972-0.688-1.85-1.249-2.625
				c-0.569-0.774-1.288-1.399-2.174-1.882C322.996,146.152,321.897,145.915,320.585,145.915z"/>
			<path fill="#1C3C6D" d="M353.301,146.855c-0.443-0.071-0.854-0.126-1.233-0.149c-0.38-0.032-0.807-0.04-1.289-0.04
				c-1.771,0-3.218,0.38-4.333,1.154c-1.114,0.774-1.952,1.818-2.506,3.131v21.251h-5.115v-29.939h4.98l0.088,3.455
				c0.774-1.234,1.738-2.215,2.901-2.926c1.162-0.728,2.569-1.083,4.229-1.083c0.371,0,0.799,0.039,1.281,0.126
				c0.474,0.079,0.806,0.166,0.996,0.262V146.855z"/>
			<path fill="#1C3C6D" d="M362.835,142.263l0.174,3.763c1.075-1.344,2.356-2.403,3.874-3.17c1.519-0.767,3.21-1.146,5.092-1.146
				c1.455,0,2.768,0.197,3.953,0.593s2.182,1.035,3.02,1.913c0.822,0.878,1.471,2.001,1.93,3.376
				c0.442,1.376,0.664,3.036,0.664,4.989v19.622h-5.107v-19.67c0-1.17-0.143-2.158-0.396-2.98s-0.632-1.486-1.138-2
				c-0.522-0.522-1.139-0.901-1.882-1.139c-0.759-0.237-1.613-0.363-2.594-0.363c-1.66,0-3.114,0.442-4.38,1.328
				c-1.249,0.885-2.229,2.055-2.925,3.494v21.33h-5.124v-29.939H362.835z"/>
			<path fill="#1C3C6D" d="M407.758,172.202c-0.189-0.371-0.332-0.838-0.443-1.398c-0.11-0.562-0.205-1.146-0.284-1.756
				c-0.475,0.498-1.012,0.973-1.612,1.424c-0.602,0.45-1.266,0.854-1.961,1.193c-0.712,0.34-1.486,0.609-2.324,0.799
				c-0.822,0.197-1.708,0.292-2.625,0.292c-1.534,0-2.91-0.229-4.159-0.695c-1.249-0.459-2.309-1.083-3.178-1.882
				c-0.886-0.791-1.565-1.724-2.04-2.807c-0.475-1.075-0.728-2.237-0.728-3.471c0-1.605,0.316-3.021,0.949-4.246
				c0.632-1.225,1.518-2.253,2.704-3.091c1.17-0.822,2.577-1.455,4.237-1.882c1.66-0.419,3.511-0.633,5.565-0.633h5.092v-2.355
				c0-1.787-0.537-3.21-1.613-4.27c-1.059-1.06-2.641-1.597-4.728-1.597c-0.964,0-1.834,0.134-2.625,0.396
				c-0.79,0.253-1.47,0.601-2.04,1.035c-0.553,0.436-0.996,0.934-1.312,1.51c-0.316,0.569-0.475,1.17-0.475,1.795h-5.139
				c0-1.067,0.284-2.127,0.838-3.186c0.569-1.044,1.359-1.992,2.403-2.831c1.027-0.838,2.277-1.525,3.748-2.048
				c1.47-0.529,3.099-0.79,4.901-0.79c1.628,0,3.131,0.205,4.507,0.624c1.375,0.412,2.545,1.044,3.525,1.882
				c0.98,0.839,1.739,1.882,2.293,3.139s0.838,2.72,0.838,4.404v13.914c0,1.013,0.079,2.079,0.253,3.194s0.442,2.079,0.791,2.894
				v0.442H407.758z M399.251,168.297c0.933,0,1.802-0.126,2.608-0.38c0.807-0.26,1.55-0.601,2.214-1.012
				c0.664-0.419,1.233-0.893,1.724-1.423c0.49-0.538,0.869-1.091,1.154-1.66v-6.151h-4.27c-2.925,0-5.186,0.459-6.768,1.376
				c-1.597,0.909-2.388,2.293-2.388,4.135c0,0.72,0.127,1.392,0.364,2.017c0.236,0.632,0.601,1.17,1.091,1.62
				c0.49,0.451,1.091,0.814,1.803,1.083C397.496,168.171,398.317,168.297,399.251,168.297z"/>
			<path fill="#1C3C6D" d="M427.033,135.013v7.25h5.597v3.961h-5.597v18.563c0,0.774,0.095,1.399,0.284,1.865
				c0.189,0.475,0.427,0.839,0.728,1.091c0.316,0.262,0.664,0.436,1.059,0.515c0.396,0.087,0.807,0.126,1.234,0.126
				c0.41,0,0.869-0.039,1.344-0.126c0.459-0.079,0.822-0.15,1.091-0.206v4.15c-0.411,0.111-0.933,0.229-1.581,0.364
				c-0.648,0.126-1.439,0.189-2.356,0.189c-0.933,0-1.834-0.134-2.672-0.403c-0.838-0.269-1.565-0.711-2.198-1.336
				c-0.632-0.633-1.122-1.455-1.486-2.482c-0.379-1.02-0.553-2.277-0.553-3.779v-18.531h-5.455v-3.961h5.455v-7.25H427.033z"/>
			<path fill="#1C3C6D" d="M438.639,134.316c0-0.822,0.253-1.525,0.76-2.103c0.506-0.569,1.248-0.854,2.245-0.854
				c0.996,0,1.755,0.285,2.276,0.854c0.521,0.577,0.775,1.28,0.775,2.103c0,0.839-0.254,1.526-0.775,2.079
				c-0.521,0.554-1.28,0.83-2.276,0.83c-0.997,0-1.739-0.276-2.245-0.83C438.892,135.843,438.639,135.155,438.639,134.316z
				 M444.173,172.202h-5.123v-29.939h5.123V172.202z"/>
			<path fill="#1C3C6D" d="M451.004,156.96c0-2.183,0.316-4.198,0.949-6.049c0.648-1.857,1.549-3.463,2.719-4.83
				c1.171-1.368,2.594-2.436,4.27-3.21c1.677-0.774,3.559-1.162,5.646-1.162c2.118,0,4.032,0.388,5.724,1.162
				c1.676,0.774,3.115,1.842,4.301,3.21c1.17,1.367,2.072,2.973,2.704,4.83c0.633,1.851,0.948,3.866,0.948,6.049v0.601
				c0,2.183-0.315,4.198-0.948,6.048c-0.632,1.858-1.534,3.463-2.704,4.815c-1.186,1.359-2.608,2.419-4.301,3.186
				c-1.676,0.768-3.558,1.146-5.66,1.146c-2.104,0-4.001-0.379-5.677-1.146c-1.677-0.767-3.115-1.826-4.285-3.186
				c-1.187-1.353-2.087-2.957-2.735-4.815c-0.633-1.85-0.949-3.865-0.949-6.048V156.96z M456.143,157.561
				c0,1.502,0.174,2.909,0.538,4.237c0.348,1.328,0.87,2.499,1.581,3.503c0.712,1.004,1.598,1.803,2.656,2.396
				c1.06,0.585,2.309,0.886,3.732,0.886c1.391,0,2.625-0.301,3.699-0.886c1.076-0.593,1.961-1.392,2.656-2.396
				c0.696-1.004,1.234-2.175,1.598-3.503s0.537-2.735,0.537-4.237v-0.601c0-1.479-0.174-2.886-0.537-4.223
				c-0.363-1.336-0.901-2.514-1.613-3.518c-0.711-1.004-1.597-1.803-2.672-2.403c-1.06-0.601-2.309-0.901-3.731-0.901
				c-1.407,0-2.625,0.301-3.685,0.901c-1.043,0.601-1.929,1.399-2.641,2.403c-0.711,1.004-1.233,2.182-1.581,3.518
				c-0.364,1.337-0.538,2.744-0.538,4.223V157.561z"/>
			<path fill="#1C3C6D" d="M489.522,142.263l0.158,3.763c1.075-1.344,2.372-2.403,3.874-3.17c1.518-0.767,3.21-1.146,5.092-1.146
				c1.471,0,2.783,0.197,3.969,0.593c1.17,0.396,2.182,1.035,3.004,1.913c0.838,0.878,1.471,2.001,1.93,3.376
				c0.458,1.376,0.68,3.036,0.68,4.989v19.622h-5.123v-19.67c0-1.17-0.127-2.158-0.38-2.98c-0.269-0.822-0.648-1.486-1.154-2
				c-0.506-0.522-1.139-0.901-1.882-1.139s-1.612-0.363-2.593-0.363c-1.66,0-3.115,0.442-4.364,1.328
				c-1.249,0.885-2.229,2.055-2.941,3.494v21.33h-5.107v-29.939H489.522z"/>
			<path fill="#1C3C6D" d="M534.43,172.202c-0.19-0.371-0.332-0.838-0.443-1.398c-0.11-0.562-0.205-1.146-0.269-1.756
				c-0.49,0.498-1.028,0.973-1.629,1.424c-0.601,0.45-1.249,0.854-1.96,1.193c-0.712,0.34-1.487,0.609-2.309,0.799
				c-0.839,0.197-1.708,0.292-2.625,0.292c-1.534,0-2.926-0.229-4.175-0.695c-1.233-0.459-2.309-1.083-3.179-1.882
				c-0.869-0.791-1.549-1.724-2.039-2.807c-0.475-1.075-0.712-2.237-0.712-3.471c0-1.605,0.316-3.021,0.933-4.246
				c0.633-1.225,1.534-2.253,2.704-3.091c1.17-0.822,2.593-1.455,4.254-1.882c1.66-0.419,3.51-0.633,5.55-0.633h5.092v-2.355
				c0-1.787-0.521-3.21-1.598-4.27c-1.075-1.06-2.656-1.597-4.728-1.597c-0.964,0-1.834,0.134-2.641,0.396
				c-0.79,0.253-1.471,0.601-2.024,1.035c-0.568,0.436-1.012,0.934-1.313,1.51c-0.315,0.569-0.474,1.17-0.474,1.795h-5.155
				c0-1.067,0.285-2.127,0.854-3.186c0.554-1.044,1.359-1.992,2.388-2.831c1.027-0.838,2.293-1.525,3.747-2.048
				c1.471-0.529,3.115-0.79,4.918-0.79c1.628,0,3.114,0.205,4.49,0.624c1.376,0.412,2.562,1.044,3.526,1.882
				c0.98,0.839,1.755,1.882,2.309,3.139c0.553,1.257,0.822,2.72,0.822,4.404v13.914c0,1.013,0.095,2.079,0.269,3.194
				s0.427,2.079,0.791,2.894v0.442H534.43z M525.938,168.297c0.918,0,1.787-0.126,2.594-0.38c0.822-0.26,1.55-0.601,2.214-1.012
				c0.664-0.419,1.249-0.893,1.739-1.423c0.49-0.538,0.869-1.091,1.139-1.66v-6.151h-4.254c-2.941,0-5.202,0.459-6.783,1.376
				c-1.581,0.909-2.372,2.293-2.372,4.135c0,0.72,0.11,1.392,0.349,2.017c0.252,0.632,0.616,1.17,1.106,1.62
				c0.474,0.451,1.075,0.814,1.786,1.083C524.167,168.171,524.989,168.297,525.938,168.297z"/>
			<path fill="#1C3C6D" d="M552.328,172.202h-5.107v-42.503h5.107V172.202z"/>
		</g>
	</g>
	<g>
		<g>
			<path fill="#1C3C6D" d="M133.55,123.138c-7.084-18.849-38.037-52.939-38.037-52.939s32.091,35.988,44.116,37.119
				c9.361,0.877,24.683-35.665,24.683-35.665s-14.823,36.558-14.104,47.184c0.838,12.405,34.321,18.469,34.321,18.469
				s-35.419-5.566-40.622-0.183c-7.922,8.19-14.587,41.8-14.587,41.8S138.049,135.1,133.55,123.138z"/>
			<circle fill="#1C3C6D" cx="138.223" cy="92.754" r="8.902"/>
			<path fill="#1C3C6D" d="M157.577,115.729c0,0,8.009-21.275,18.619-21.275c13.393,0,12.76,34.7,30.684,34.7
				c0,0-0.972,0.506-3.629,0.506c-13.409,0-16.065-32.289-27.324-32.289C166.187,97.371,157.577,115.729,157.577,115.729z"/>
			<path fill="#1C3C6D" d="M45.761,141.464c41.389,20.809,124.601-11.804,161.119,4.949c0,0-18.548-7.725-71.558-0.127
				C58.537,157.292,45.761,141.464,45.761,141.464z"/>
			<path fill="#1C3C6D" d="M45.761,137.306c0,0,26.019-32.067,31.269-24.153c5.25,7.906,11.994,20.484,22.762,26.43
				c0,0-10.136-2.276-23.766-24.05C72.041,109.175,45.761,137.306,45.761,137.306z"/>
			<g>
				<g>
					<path fill="#1C3C6D" d="M109.444,107.278c0,3.107-2.514,5.621-5.621,5.621s-5.621-2.514-5.621-5.621s2.514-5.622,5.621-5.622
						S109.444,104.171,109.444,107.278z"/>
					<path fill="#1C3C6D" d="M83.331,102.392c4.459,2.965,16.468,15.133,22.264,14.547c6.325-0.632,14.429-20.619,14.429-20.619
						s-6.926,19.417-5.701,30.937c1.266,11.891,14.145,34.604,14.145,34.604s-13.946-23.797-20.849-23.671
						c-6.989,0.127-17.583,7.211-17.583,7.211s14.176-9.338,12.27-17.078C99.72,117.832,83.331,102.392,83.331,102.392z"/>
				</g>
			</g>
		</g>
	</g>
</g>
</svg>
