<?xml version="1.0" encoding="UTF-8" standalone="no"?>
<svg width="110px" height="122px" viewBox="0 0 110 122" version="1.1" xmlns="http://www.w3.org/2000/svg" xmlns:xlink="http://www.w3.org/1999/xlink" xmlns:sketch="http://www.bohemiancoding.com/sketch/ns">
    <!-- Generator: Sketch 3.4 (15575) - http://www.bohemiancoding.com/sketch -->
    <title>Symbol, Version 7.1</title>
    <desc>Created with Sketch.</desc>
    <defs></defs>
    <g id="Page-1" stroke="none" stroke-width="1" fill="none" fill-rule="evenodd" sketch:type="MSPage">
        <path d="M88.5609648,102.500712 C88.3709284,102.500712 87.9482306,103.939959 88.3833607,104.960667 C88.6150072,105.504236 89.1594906,105.733839 89.6149183,105.581528 C90.0637492,105.431743 90.1944151,105.004364 90.2068474,104.671706 C90.248965,103.553246 89.2685903,102.500712 88.5609648,102.500712 L88.5609648,102.500712 Z M85.296855,86.1794865 L85.4396995,87.7599296 L84.0767148,87.607619 L84.0767148,89.4070559 L85.4396995,89.2552505 L85.296855,90.9056605 L87.148251,90.9056605 L87.0051528,89.2552505 L88.3681375,89.4070559 L88.3681375,87.607619 L87.0051528,87.7599296 L87.148251,86.1794865 L85.296855,86.1794865 L85.296855,86.1794865 Z M86.2249633,92.4072961 C85.856308,92.4072961 85.5574256,92.7131801 85.5574256,93.0907992 C85.5574256,93.4681656 85.856308,93.7743023 86.2249633,93.7743023 C86.5936187,93.7743023 86.8925011,93.4681656 86.8925011,93.0907992 C86.8925011,92.7131801 86.5936187,92.4072961 86.2249633,92.4072961 L86.2249633,92.4072961 Z M86.2249633,95.1746501 C85.856308,95.1746501 85.5574256,95.4807867 85.5574256,95.8581532 C85.5574256,96.2357723 85.856308,96.5416563 86.2249633,96.5416563 C86.5936187,96.5416563 86.8925011,96.2357723 86.8925011,95.8581532 C86.8925011,95.4807867 86.5936187,95.1746501 86.2249633,95.1746501 L86.2249633,95.1746501 Z M86.2249633,97.981913 C85.856308,97.981913 85.5574256,98.2880497 85.5574256,98.6654161 C85.5574256,99.0432878 85.856308,99.3491718 86.2249633,99.3491718 C86.5936187,99.3491718 86.8925011,99.0432878 86.8925011,98.6654161 C86.8925011,98.2880497 86.5936187,97.981913 86.2249633,97.981913 L86.2249633,97.981913 Z M88.3808235,98.6654161 C88.3808235,99.0432878 88.6797058,99.3491718 89.0483612,99.3491718 C89.4170166,99.3491718 89.7158989,99.0432878 89.7158989,98.6654161 C89.7158989,98.2880497 89.4170166,97.981913 89.0483612,97.981913 C88.6797058,97.981913 88.3808235,98.2880497 88.3808235,98.6654161 L88.3808235,98.6654161 Z M91.1788493,98.6654161 C91.1788493,99.0432878 91.4779854,99.3491718 91.8466408,99.3491718 C92.2152961,99.3491718 92.5141785,99.0432878 92.5141785,98.6654161 C92.5141785,98.2880497 92.2152961,97.981913 91.8466408,97.981913 C91.4779854,97.981913 91.1788493,98.2880497 91.1788493,98.6654161 L91.1788493,98.6654161 Z M86.2249633,101.739917 C85.6535856,101.739917 84.2436627,104.644174 85.2945715,106.112973 C85.4955179,106.393851 85.8479352,106.551718 86.2249633,106.551718 C86.6019915,106.551718 86.9544088,106.393851 87.1553551,106.112973 C88.206264,104.644174 86.7963411,101.739917 86.2249633,101.739917 L86.2249633,101.739917 Z M83.8889619,102.500712 C83.1813364,102.500712 82.2009617,103.553246 82.2430793,104.671706 C82.2552578,105.004364 82.3861774,105.431743 82.8350084,105.581528 C83.2904361,105.733839 83.8349195,105.504236 84.066566,104.960667 C84.5016961,103.939959 84.0789983,102.500712 83.8889619,102.500712 L83.8889619,102.500712 Z M82.8027859,98.6654161 C82.8027859,99.0432878 83.1014145,99.3491718 83.4703236,99.3491718 C83.8392327,99.3491718 84.1378614,99.0432878 84.1378614,98.6654161 C84.1378614,98.2880497 83.8392327,97.981913 83.4703236,97.981913 C83.1014145,97.981913 82.8027859,98.2880497 82.8027859,98.6654161 L82.8027859,98.6654161 Z M80.0732645,98.6654161 C80.0732645,99.0432878 80.3721469,99.3491718 80.7408022,99.3491718 C81.1094576,99.3491718 81.4085937,99.0432878 81.4085937,98.6654161 C81.4085937,98.2880497 81.1094576,97.981913 80.7408022,97.981913 C80.3721469,97.981913 80.0732645,98.2880497 80.0732645,98.6654161 L80.0732645,98.6654161 Z M79.4151144,98.6654161 C79.4151144,98.0826957 79.5155876,97.5575652 79.5155876,97.5575652 L85.0631788,97.5575652 L85.0631788,97.0758799 L85.0634325,93.0147702 L85.0631788,93.014265 L85.0631788,91.8596853 C82.3854163,92.3300041 80.2437645,94.4004679 79.6054046,97.0751222 C79.4498741,97.2973996 78.946747,97.4113168 78.5920463,97.3714079 C76.5447784,97.1200828 72.401782,96.371412 72.401782,95.4868489 C72.401782,94.2441159 73.241342,93.7467702 74.0479183,93.7467702 C75.1982855,93.7467702 76.4694235,94.3714203 77.5276902,92.8354327 C73.7609608,93.0082029 76.6485499,87.5528075 73.5589996,86.5177019 C73.7122466,87.9107246 73.5602682,90.3615859 73.0731255,91.6571097 C73.0731255,91.6571097 71.9658908,90.4714617 70.722662,90.024381 C70.816031,91.0357433 70.6270095,93.1317184 70.1758951,94.0859959 C70.1758951,94.0859959 68.8595949,92.8642277 67.4943268,92.4072961 C68.7537936,94.2378012 68.7106612,96.8500663 68.3716911,98.4390973 C68.2735014,98.8988075 68.6152624,99.4709193 69.5758469,99.4287371 C71.078124,99.3623064 76.2093603,99.5891304 78.4349935,100.501478 C79.1268884,100.785135 79.7195786,101.110468 80.009327,101.605035 C80.2450331,102.270857 80.8283357,103.302679 81.5463637,103.831598 C81.8685883,102.680302 83.2427367,101.447168 84.1378614,101.491623 C84.4052824,101.504758 84.7011201,101.952596 84.7622667,102.391342 C84.8411736,101.983412 85.5016072,100.856112 86.2249633,100.856112 C86.8925011,100.856112 87.5339056,101.799023 87.7566719,102.578004 C87.8239077,102.077627 88.1189843,101.542646 88.3864053,101.542646 C89.2853358,101.542646 90.4159128,102.342087 90.8419089,103.662364 C91.1869684,103.231449 92.771197,101.190286 92.9500697,99.8510642 L79.5155876,99.8510642 C79.5155876,99.8510642 79.4151144,99.2716273 79.4151144,98.6654161 L79.4151144,98.6654161 Z M87.3864942,91.8606957 L87.3864942,97.5575652 L92.938906,97.5575652 C92.4563303,94.6530559 90.2213095,92.3603147 87.3864942,91.8606957 L87.3864942,91.8606957 Z M21.8645334,96.5515072 C21.980991,96.5906584 22.0989709,96.5628737 22.2151747,96.5009896 C21.8409375,97.0233416 21.8564144,97.3671139 22.0175267,97.5280124 C22.2707394,97.7793375 22.4582386,97.317354 23.0981208,96.6363768 C23.7385105,95.9564099 24.1815059,95.7490352 23.929308,95.4966998 C23.7666734,95.3347909 23.4297331,95.3302443 22.926606,95.741205 C22.9821707,95.6209731 23.0034832,95.5012464 22.9631417,95.3842981 C22.7512854,94.7702567 21.7658363,93.9526294 21.2226215,93.9508613 C21.1391475,93.9508613 21.062524,93.9705631 20.994527,93.998853 C21.2335314,93.6144141 21.1718774,93.3239379 21.0120337,93.1645549 C20.8359519,92.9895114 20.735225,93.1122692 20.537577,93.3656149 C20.5644714,93.1885507 20.5193092,92.981176 20.352615,92.7280828 C19.5371585,91.4911594 15.2244233,87.4184306 14.2450635,87.0092381 C13.6604923,86.7639752 13.4686799,87.1032008 13.4686799,87.1032008 C13.4686799,87.1032008 13.1451867,87.3120911 13.4009366,87.9064306 C13.8289625,88.900617 17.9732275,93.1531884 19.1992032,93.9536398 C19.4506399,94.1173168 19.6526011,94.1572257 19.8233548,94.1243892 C19.5851116,94.3335321 19.4709375,94.4413872 19.6460044,94.6159255 C19.8061018,94.7753085 20.0907759,94.8293623 20.4571478,94.5704596 C20.4320295,94.6416894 20.4157914,94.7202443 20.418836,94.8063768 C20.4373576,95.3648489 21.2614406,96.3529731 21.8645334,96.5515072 L21.8645334,96.5515072 Z M11.4980354,84.5025549 C11.3701605,84.5025549 11.1887506,84.5328654 11.0552938,84.6745673 C10.9200609,84.8180373 10.8726153,85.0400621 10.921837,85.2977019 C10.9758794,85.5775694 11.1349619,85.8617308 11.3706679,86.0971429 C11.6530585,86.3790311 12.0082667,86.5472547 12.3195813,86.5472547 C12.4482174,86.5472547 12.6283587,86.5179545 12.7620692,86.3762526 C13.05334,86.0663271 12.9094807,85.4146501 12.4469488,84.9534244 C12.1637971,84.6717888 11.8096038,84.5025549 11.4980354,84.5025549 L11.4980354,84.5025549 Z M24.9109513,99.6204513 C24.9073992,99.190294 24.0954947,98.4683975 23.1326268,98.4683975 C21.7024063,98.4683975 21.0833291,99.3787246 21.0833291,99.8424762 C21.0833291,100.715673 21.9236502,100.828075 22.1814299,100.842472 C23.1879378,100.905114 24.8109856,99.8717764 24.9109513,99.6204513 L24.9109513,99.6204513 Z M23.67914,101.801043 C23.2990672,102.289801 23.1567302,102.767193 23.2549199,103.219578 C23.3746758,103.767694 23.9143385,104.013714 24.3964068,104.013714 C24.9043546,104.013714 25.3592748,103.772998 25.6135024,103.36911 C26.1597619,102.504248 26.1838653,100.588116 25.9996645,100.378468 C25.5416996,100.378468 24.3235892,100.972302 23.67914,101.801043 L23.67914,101.801043 Z M11.127604,81.8531594 C10.7234278,81.4497764 9.89680757,82.0509358 9.40281443,81.7713209 C9.62177492,80.5394493 10.4900053,81.8321946 11.3290578,80.9415694 C11.663461,80.5859255 11.4840808,80.0304845 11.2920147,79.8630186 C10.9304635,80.2310393 10.3710105,80.1034824 10.3281318,79.8991387 C11.2803436,77.6389814 9.41955996,75.1194161 7.63311637,75.4351511 C7.9835039,75.9062277 8.08829032,77.5435031 7.93555079,77.9860373 C8.61577452,78.4765631 8.12964671,79.6321532 7.37888877,79.2964638 C6.87550799,79.090352 5.98748746,77.8264017 7.00871107,76.936029 C6.97927953,76.6149896 6.41754312,76.53694 5.8205396,77.3103644 C6.25846058,75.8908199 3.57714601,76.3358799 3.02606584,76.6766211 C2.71272145,77.2535321 2.36537856,80.0272008 3.72912438,79.5318758 C2.99764918,80.1709234 3.0910182,80.7463188 3.40334771,80.7670311 C4.23554981,79.6884803 5.4894348,80.5634451 5.70560437,81.0749358 C6.05523074,81.8377516 4.94824971,82.3729855 4.45095822,81.6887246 C4.02546952,81.8602319 2.43286812,81.8039048 1.96450072,81.4578592 C1.71484009,83.3060455 4.21855056,85.1413499 6.38303718,84.0913416 C6.58246122,84.1292298 6.72403706,84.6995735 6.37847021,85.0837598 C6.54744784,85.2769896 7.09142384,85.4436977 7.42658816,85.0878012 C8.26437211,84.197176 6.98207046,83.3436812 8.17125681,83.0792215 C8.4582143,83.5793458 7.90129857,84.4487536 8.30496733,84.8521366 C8.9517,85.4972464 9.76385821,84.2459255 10.5618081,84.1956605 C10.5851503,83.373234 11.774083,82.4987743 11.127604,81.8531594 L11.127604,81.8531594 Z M4.42507876,78.9999255 C4.42507876,78.9999255 4.00669423,78.701619 4.50829897,78.1550186 C5.022336,77.6213002 5.32603902,78.0428696 5.32603902,78.0428696 C5.32603902,78.0428696 5.79719734,79.0961615 5.93648971,79.5808778 C5.46127186,79.4528157 4.42507876,78.9999255 4.42507876,78.9999255 L4.42507876,78.9999255 L4.42507876,78.9999255 Z M8.56426933,82.2032464 C8.30471361,82.2360828 7.68969596,82.7859669 7.38142598,82.4780621 L5.96998077,81.0708944 L6.67557651,80.3191925 L7.38396318,79.5690062 L8.79388606,80.977942 C9.10240977,81.2848364 8.58811902,81.9355031 8.56426933,82.2032464 L8.56426933,82.2032464 Z M31.9481335,103.772998 C31.9958328,103.56234 31.9631029,103.393106 31.8529884,103.283482 C31.8184825,103.248878 31.7875286,103.229429 31.7687533,103.229429 C31.6893389,103.229429 31.512496,103.448928 31.341996,103.661607 C31.1999127,103.83766 31.0230698,104.057159 30.7972588,104.296108 C30.5724628,104.536319 30.3644123,104.724749 30.1974644,104.87706 C29.999309,105.056903 29.7937956,105.243565 29.7915122,105.327677 C29.7915122,105.347379 29.8118098,105.378952 29.847838,105.414567 C29.9209094,105.48807 30.0185917,105.524443 30.1373327,105.524443 C30.3187426,105.524443 30.7117552,105.431238 31.3034305,104.801789 C31.7525152,104.325408 31.9022101,103.979362 31.9481335,103.772998 L31.9481335,103.772998 Z M31.9565062,105.452708 C31.6489974,105.780315 31.3364142,106.012948 31.1636307,106.131917 C31.2861776,106.256696 31.6350428,106.477963 32.070934,106.477963 C32.3198335,106.477963 32.5522411,106.40446 32.7643512,106.259222 C33.1994812,105.539346 32.7795744,104.802799 32.5908066,104.615126 C32.4804383,104.797495 32.2637613,105.126617 31.9565062,105.452708 L31.9565062,105.452708 Z M27.1939252,101.447925 C26.9698903,101.658584 26.4520475,103.120311 26.6781122,104.010431 C26.775287,104.391839 26.9851136,104.554758 27.340068,104.535561 C27.7072011,104.512323 27.9073863,104.320356 27.969294,103.929602 C28.1101087,103.040745 27.4382577,101.627516 27.1939252,101.447925 L27.1939252,101.447925 Z M26.9105198,97.3855528 C26.9232058,97.410559 29.5674773,99.7434617 30.4547366,100.588116 C30.663802,100.787408 30.9520281,100.833379 31.2445675,100.683847 C31.4117691,100.598219 31.6195659,100.49971 31.8347205,100.400948 C34.478992,99.4635942 38.8285165,99.3580124 40.4239089,99.4287371 C41.3844934,99.4709193 41.7237172,98.8995652 41.6280647,98.4390973 C41.3154815,96.9351884 41.2457084,94.2378012 42.505429,92.4072961 C41.1401609,92.8642277 39.8238607,94.0859959 39.8238607,94.0859959 C39.3724926,93.1317184 39.183471,91.0357433 39.2768401,90.024381 C38.033865,90.4714617 36.9263766,91.6571097 36.9263766,91.6571097 C36.4394876,90.3615859 36.2872555,87.9107246 36.4407562,86.5177019 C33.3509522,87.5528075 36.238795,93.0082029 32.4718118,92.8354327 C33.5303323,94.3714203 34.8014703,93.7470228 35.9518375,93.7470228 C36.7584138,93.7470228 37.7603547,94.2766998 37.5979738,95.4868489 C37.4802477,96.3633292 32.4258885,97.4545093 30.3933364,97.4545093 C28.9725035,97.4545093 28.0210529,97.014501 27.3080993,96.0253665 C26.9650697,95.5499959 26.6151896,95.3347909 26.2234457,95.3951594 C25.7370641,95.4704306 25.1684773,95.9690393 25.1684773,97.123619 C25.1684773,97.941499 25.4980597,99.7346211 26.4771658,99.7346211 C27.1650011,99.7346211 27.1954476,98.3176025 26.9105198,97.3855528 L26.9105198,97.3855528 Z M30.1784354,103.679288 C30.6399523,103.187752 30.8015721,102.830087 30.687398,102.550977 C30.5224799,102.148099 29.4728396,100.976091 28.0986913,99.653793 C28.0565738,99.9445217 27.9807114,100.252427 27.9155054,100.460559 C28.8415839,101.687631 29.1874045,103.005383 28.8753287,104.112224 C28.9882342,104.187495 29.0582609,104.221847 29.0993636,104.23776 C29.4548255,104.379462 29.8985821,103.976836 30.1784354,103.679288 L30.1784354,103.679288 Z M23.4921482,97.0056605 C23.4852978,97.0127329 23.3142904,97.1817143 23.2036684,97.4095487 C23.4911333,97.4113168 23.8260439,97.460824 24.1272098,97.5421573 C24.1071659,97.2746667 24.0873757,96.9127081 24.1135089,96.6002567 C23.8592813,96.6575942 23.5862784,96.9031097 23.4921482,97.0056605 L23.4921482,97.0056605 Z M69.6786036,105.434774 C70.5491174,105.037453 71.1768211,103.95966 71.3419929,102.905358 C70.7904053,103.176133 70.1685372,103.307983 69.4515241,103.307983 C67.4791036,103.307983 65.0010189,102.211246 62.7550881,101.216807 C62.7550881,101.216807 62.2707363,101.624232 61.4682195,101.709354 C63.7344479,102.405992 68.187744,104.877818 68.515043,106.463313 C68.7337497,107.523677 68.0426161,107.928576 68.0426161,107.928576 C67.0518389,106.311507 64.4981455,103.801035 61.0899227,102.545168 C61.0970269,103.136224 60.983614,103.550973 60.983614,103.550973 C60.983614,103.550973 60.2919728,103.720965 58.8229332,103.465851 C60.1075183,104.537834 63.4817426,108.323623 63.8478608,111.196054 C64.0921933,113.113702 62.7522972,113.20236 62.7522972,113.20236 C62.5609922,110.318058 61.0483126,107.333478 58.3182838,104.336522 C58.3182838,104.336522 57.8707214,105.038464 57.2757477,105.392592 C57.2757477,105.392592 56.2674638,105.21376 55.4306947,104.66034 C55.7529193,108.46583 55.9432094,113.40923 55.7432779,114.905561 C55.6037319,115.947487 55.0001316,116.384211 55.0001316,116.384211 C55.0001316,116.384211 54.3942479,115.947487 54.2544481,114.905561 C54.0547703,113.40923 54.2448067,108.46583 54.5670313,104.66034 C53.730516,105.21376 52.7219784,105.392592 52.7219784,105.392592 C52.1270046,105.038464 51.6799497,104.336522 51.6799497,104.336522 C48.9494134,107.333478 47.4367339,110.318058 47.2456826,113.20236 C47.2456826,113.20236 45.9057865,113.113702 46.150119,111.196054 C46.5162372,108.323623 49.8904615,104.537834 51.1747929,103.465851 C49.7057532,103.720965 49.0141121,103.550973 49.0141121,103.550973 C49.0141121,103.550973 48.9006992,103.136224 48.9078033,102.545168 C45.4998342,103.801035 42.9463946,106.311507 41.95511,107.928576 C41.95511,107.928576 41.2639763,107.523677 41.4829368,106.463313 C41.8099821,104.877818 46.2632782,102.405992 48.5297603,101.709354 C47.7272435,101.624232 47.242638,101.216807 47.242638,101.216807 C44.9969609,102.211246 42.5186224,103.307983 40.546202,103.307983 C39.8294425,103.307983 39.2073207,103.176133 38.6559868,102.905358 C38.8209049,103.95966 39.4488623,105.037453 40.3191224,105.434774 C37.2719434,107.578994 39.1535321,112.603727 35.0668616,111.6593 C37.345776,115.890402 41.95511,116.315255 41.95511,116.315255 C40.9338864,114.077072 42.2070541,107.248609 48.3245007,104.145818 C44.5587862,107.900286 42.8431305,112.452427 43.8422805,115.663578 C44.7589714,118.61128 47.7389146,119.805768 49.9825619,119.857043 C48.3960498,114.983611 49.3738872,109.401921 52.6666674,105.888422 C51.2554759,109.741905 49.271638,120.027035 55.0001316,122 C60.7281178,120.027035 58.7425039,109.741905 57.3310587,105.888422 C60.6243462,109.401921 61.6016763,114.983611 60.0151642,119.857043 C62.2588115,119.805768 65.2387546,118.61128 66.1556993,115.663578 C67.1545955,112.452427 65.4389398,107.900286 61.6734791,104.145818 C67.7911794,107.248609 69.0638397,114.077072 68.0426161,116.315255 C68.0426161,116.315255 72.6522038,115.890402 74.9308645,111.6593 C70.844194,112.603727 72.7260363,107.578994 69.6786036,105.434774 L69.6786036,105.434774 Z M55.4862594,20.6649814 C55.4862594,20.3631387 55.2477625,20.117118 54.9554769,20.117118 C54.6624301,20.117118 54.4246943,20.3631387 54.4246943,20.6649814 C54.4246943,20.9678344 54.6624301,21.2141077 54.9554769,21.2141077 C55.2477625,21.2141077 55.4862594,20.9678344 55.4862594,20.6649814 L55.4862594,20.6649814 Z M58.1642756,20.6649814 C58.1642756,20.3631387 57.9267936,20.117118 57.6334931,20.117118 C57.3409537,20.117118 57.103218,20.3631387 57.103218,20.6649814 C57.103218,20.9678344 57.3409537,21.2141077 57.6334931,21.2141077 C57.9267936,21.2141077 58.1642756,20.9678344 58.1642756,20.6649814 L58.1642756,20.6649814 Z M54.0035189,6.43846791 C54.0035189,7.00401242 54.4490514,7.46574327 54.9968333,7.46574327 C55.5453762,7.46574327 55.9906551,7.00401242 55.9906551,6.43846791 C55.9906551,5.87216563 55.5453762,5.41093996 54.9968333,5.41093996 C54.4490514,5.41093996 54.0035189,5.87216563 54.0035189,6.43846791 L54.0035189,6.43846791 Z M54.3232063,4.25585507 L55.6757884,4.25585507 L55.5296456,2.61857971 L56.998939,2.77543685 L56.998939,1.48016563 L55.5296456,1.6365176 L55.6757884,0 L54.3232063,0 L54.4688416,1.6365176 L52.9998019,1.48016563 L52.9998019,2.77543685 L54.4688416,2.61857971 L54.3232063,4.25585507 L54.3232063,4.25585507 Z M52.8082432,20.6649814 C52.8082432,20.3631387 52.5697463,20.117118 52.2769532,20.117118 C51.9844139,20.117118 51.7461707,20.3631387 51.7461707,20.6649814 C51.7461707,20.9678344 51.9844139,21.2141077 52.2769532,21.2141077 C52.5697463,21.2141077 52.8082432,20.9678344 52.8082432,20.6649814 L52.8082432,20.6649814 Z M49.6202495,22.6970518 C49.7638551,22.7488323 49.9297881,22.7768696 50.1261675,22.7768696 L59.8730809,22.7768696 C60.069714,22.7768696 60.235647,22.7488323 60.3787451,22.6970518 C60.6933581,22.5838923 60.8846631,22.3472174 60.9590031,21.9688406 L49.0399915,21.9688406 C49.1140778,22.3472174 49.3053828,22.5838923 49.6202495,22.6970518 L49.6202495,22.6970518 Z M50.1561065,20.6649814 C50.1561065,20.3631387 49.918117,20.117118 49.6250702,20.117118 C49.3325309,20.117118 49.0940339,20.3631387 49.0940339,20.6649814 C49.0940339,20.9678344 49.3325309,21.2141077 49.6250702,21.2141077 C49.918117,21.2141077 50.1561065,20.9678344 50.1561065,20.6649814 L50.1561065,20.6649814 Z M60.8166661,20.6649814 C60.8166661,20.3631387 60.5781692,20.117118 60.286391,20.117118 C59.9933442,20.117118 59.755101,20.3631387 59.755101,20.6649814 C59.755101,20.9678344 59.9933442,21.2141077 60.286391,21.2141077 C60.5781692,21.2141077 60.8166661,20.9678344 60.8166661,20.6649814 L60.8166661,20.6649814 Z M61.4537574,19.364911 C61.7285363,19.0231594 63.0945656,16.3757847 63.0945656,13.7031511 C63.0945656,11.2977557 60.0783405,9.97368944 58.2837778,9.91306832 C58.075981,13.3492754 56.7406519,18.7427867 55.0001316,18.7427867 C53.3527267,18.7427867 51.9212376,13.3803437 51.715978,9.91306832 C49.921669,9.97368944 46.9054439,11.2977557 46.9054439,13.7031511 C46.9054439,16.3757847 48.2709657,19.0231594 48.5459984,19.364911 L61.4537574,19.364911 L61.4537574,19.364911 Z M55.0001316,17.0363023 C55.8196477,17.0363023 56.8789293,13.6144928 57.1496488,10.3758095 C57.1496488,9.7200911 56.3296252,8.71706418 55.0001316,8.69104762 C53.6698769,8.71706418 52.8498533,9.7200911 52.8498533,10.3758095 C53.0875891,13.3960041 54.1927941,17.0363023 55.0001316,17.0363023 L55.0001316,17.0363023 Z M28.9423108,34.5032671 C27.3517392,36.6952257 29.5512392,39.0943064 29.6869795,39.2600041 C29.782632,39.3769524 29.8645836,39.3241615 29.8501215,39.1930683 C29.8384504,39.0804141 30.9946531,35.7002816 37.6510013,37.4802692 C37.7933383,37.5184099 37.8806181,37.5211884 37.7471613,37.3830228 C36.5176334,36.406265 35.0587425,34.2170849 34.5870768,32.4560414 C34.5870768,32.4560414 30.5331362,32.3113085 28.9423108,34.5032671 L28.9423108,34.5032671 Z M32.510631,34.0448199 C32.510631,33.4325466 33.3996664,33.2635652 33.9106588,33.2635652 C33.9106588,33.2635652 34.1349474,33.8548737 34.3599972,34.1822277 C33.8413932,33.9498468 33.1210817,33.9261035 32.510631,34.0448199 L32.510631,34.0448199 Z M36.0439379,31.1845135 C35.6011962,31.1845135 35.4357707,31.4669068 35.5803912,31.9559172 C37.1098162,37.1218468 41.2791995,38.3468986 42.9253358,40.584323 C42.9253358,40.584323 42.9136647,39.8871801 43.6773624,38.2241408 C44.1969813,39.0794037 45.6048744,40.6813168 46.5197892,40.8851553 C46.3010825,40.4244348 46.0410193,38.6055487 46.2437417,37.3832754 C48.4044225,39.2774327 51.0679767,39.6497474 52.497436,38.5567992 C51.2803405,38.603528 49.6956044,37.2461201 48.8979082,36.0420331 C50.0117397,36.2999255 51.5449706,36.0339503 51.8611059,35.7134161 C51.1575399,35.5414037 50.304279,34.9159959 49.7904957,34.3216563 C50.580834,34.2668447 52.2954748,33.6176936 52.7856621,32.7028199 C52.0980805,32.8591718 51.0786329,32.5777888 50.414901,32.2259337 C50.9205653,31.9521284 52.1823156,30.5967412 52.4850037,29.4073043 C50.693232,30.2878261 47.8660284,31.1638012 43.6778698,31.1638012 C43.6778698,31.1638012 36.2776141,31.1845135 36.0439379,31.1845135 L36.0439379,31.1845135 Z M40.6672265,33.5393913 C39.4831145,34.0094576 38.8899168,34.6442112 38.8899168,34.6442112 C38.8899168,34.6442112 38.3218374,33.7096356 38.1404275,33.4093085 C37.9590176,33.1089814 37.9021843,32.7409607 38.5141573,32.7409607 L42.1847267,32.7409607 C42.1847267,32.9917805 41.8510847,33.0693251 40.6672265,33.5393913 L40.6672265,33.5393913 Z M28.137003,41.9450145 C28.5198668,42.4542319 29.604013,44.0094161 31.9818782,42.6189193 C34.3594898,41.2284224 35.5857193,40.4714161 35.5857193,40.4714161 C35.5857193,40.4714161 35.214273,41.1890186 35.4961561,42.0493333 C35.5126479,42.0988406 35.5684663,42.0965673 35.5900325,42.0455445 C35.8267534,41.488588 37.8917817,39.8773292 40.5251432,39.654294 C39.559738,38.808882 38.5004564,38.055412 38.5004564,38.055412 C37.3754612,38.2372754 35.1947365,39.0081739 32.3738759,40.8437308 C29.5527615,42.6792878 28.2532069,41.9126832 28.1991645,41.8783313 C28.1453758,41.8437267 28.069006,41.854588 28.137003,41.9450145 L28.137003,41.9450145 Z M61.8323079,100.550986 C62.2385138,100.421155 62.5784989,100.213528 62.753312,99.9806418 C60.9313476,99.9015818 59.4272946,98.3256853 58.8764681,97.3532215 C58.2713455,98.356501 57.1907514,99.1402816 57.1907514,99.1402816 C56.4214719,98.9369482 55.3700556,98.0973458 54.9998779,97.4550145 C54.6297002,98.0973458 53.5782839,98.9369482 52.8087507,99.1402816 C52.8087507,99.1402816 51.7284103,98.356501 51.123034,97.3532215 C50.5724612,98.3256853 49.0684082,99.9015818 47.24619,99.9806418 C47.4212569,100.213528 47.761242,100.421155 48.1674479,100.550986 C48.4394359,100.638381 48.740348,100.692182 49.0435436,100.692182 C49.3644996,100.692182 49.6867242,100.633834 49.9757114,100.498195 C49.7937941,101.160733 49.733155,101.978613 49.8663581,102.539358 C49.8663581,102.539358 50.8353153,102.615892 51.8357339,102.237263 C51.9077904,102.842969 52.1838379,103.576484 52.6364747,104.072315 C52.7255305,104.169308 52.8186457,104.260745 52.920895,104.336522 C53.4582743,104.336522 54.7555454,103.709346 54.9998779,103.322886 C55.2442104,103.709346 56.5414815,104.336522 57.0788608,104.336522 C57.18111,104.260745 57.2742253,104.169308 57.3632811,104.072315 C57.8159179,103.576484 58.0919654,102.842969 58.1637682,102.237263 C58.6138677,102.463582 59.1365313,102.554008 59.7150132,102.554008 C59.8512609,102.554008 59.990807,102.548957 60.133144,102.539358 C60.2666008,101.978613 60.2059617,101.160733 60.0237906,100.498195 C60.3130316,100.633834 60.6352562,100.692182 60.9559585,100.692182 C61.2596615,100.692182 61.5603199,100.638381 61.8323079,100.550986 L61.8323079,100.550986 Z M43.6474234,61.6319752 C43.2904391,61.6319752 43.0691952,61.8603147 43.0691952,62.2278302 L43.0691952,84.5414534 C43.0691952,86.6690021 43.906218,87.7485631 45.5569213,87.7485631 L49.6872316,87.7644762 C52.5172262,87.7644762 54.1867048,88.7402236 54.9998779,89.9496149 C55.691519,88.8218095 57.6347617,87.7644762 60.3127779,87.7644762 L64.4418197,87.7485631 C66.0927767,87.7485631 66.9297995,86.6690021 66.9297995,84.5414534 L66.9297995,62.2278302 C66.9297995,61.8603147 66.7083018,61.6319752 66.3523324,61.6319752 L43.6474234,61.6319752 L43.6474234,61.6319752 Z M47.6813201,82.5083727 C47.6417398,83.0021822 48.2146399,83.9003851 49.1602549,83.6192547 C49.1318382,83.8016232 49.1848657,84.2999793 49.3962146,84.6738095 C47.7209004,85.0539545 46.9983055,83.6738137 47.6813201,82.5083727 L47.6813201,82.5083727 L47.6813201,82.5083727 Z M62.8707845,75.1216894 C62.6401528,74.8761739 62.4120584,74.6283851 62.188531,74.3778178 C61.9495266,74.1115901 61.7790267,74.0082816 61.5352016,74.0082816 C60.9869123,74.0082816 60.4003113,74.3091139 60.0864595,74.5172464 C60.0656545,74.5258344 60.0499238,74.5460414 60.0420585,74.6003478 C60.3754468,74.5705424 60.7098499,74.5460414 61.0422233,74.5084058 C61.3340015,74.474559 61.6064969,74.4861781 61.8579336,74.6738509 C62.0560891,74.8208571 62.1677259,75.0029731 62.1783822,75.2406584 C62.2100972,76.0001905 62.8154735,77.5985673 62.8530241,78.0784845 C62.900216,78.2671677 62.6736439,78.3222319 62.3597921,79.2045217 C62.1281456,79.4639296 61.5017105,78.6404928 61.5925423,78.4477681 C61.9573919,77.9711346 62.0581188,77.6740911 61.965511,77.3189524 C61.8914247,77.033528 61.752386,76.5235528 61.6496294,76.2472215 C61.5118593,75.8784431 61.202067,75.7402774 60.8171736,75.872381 C59.3070312,76.3742733 59.0741161,75.7054203 57.5774209,76.334617 L59.3011956,79.0064928 C59.2948526,78.8130104 59.2022448,78.4634286 58.9234063,78.2121035 C58.9736429,77.9423395 59.5173652,77.8306957 59.7205951,78.0832836 C59.970002,78.4035652 60.4563835,78.8602443 60.8567539,78.9334948 C61.6260334,79.0759545 61.5679315,80.2456894 63.6233184,80.6372008 C63.3678222,80.9024182 62.7977131,80.8124969 62.549321,80.6925176 C62.6992696,80.924646 62.8717993,81.1433872 63.1815917,81.2226998 C62.8629191,81.5429814 61.9485117,80.7922899 62.0421344,81.5477805 C62.2002021,81.4560911 62.4191626,81.4411884 62.6043783,81.4879172 C63.0146438,81.5904679 63.6875096,83.9258965 62.2702289,84.9466046 C62.5719021,85.0372836 62.8964102,84.877648 63.2023967,84.877648 C63.3817769,84.877648 63.5494859,85.0519337 63.5672463,85.2464265 C63.6994345,85.3479669 63.7862068,85.4727453 63.863084,85.6326335 C63.7565215,85.6679959 63.5505008,85.6351594 63.436073,85.5591304 C63.48225,85.6884555 63.4713401,86.0001491 63.4231332,86.0059586 C63.2950046,86.0233872 63.1963074,85.9496315 63.0651341,85.8713292 C62.8827093,85.9650393 62.2831686,85.926646 62.1134298,85.774588 C61.6607931,85.8849689 61.2139919,86.0329855 60.7423261,86.0329855 C60.4878448,86.0329855 60.1524268,86.0165673 60.1643516,85.7051263 C60.1701872,85.5530683 60.2452883,85.474766 60.3044051,85.3085631 C60.0874744,85.0850228 59.7256695,85.3014907 59.2943452,85.3431677 C58.709774,85.3994948 58.4687398,85.3085631 58.3418797,85.1893416 C58.8939748,84.6773458 58.5608402,83.4295611 57.7083405,83.3191801 C58.409623,83.9925797 58.3180301,85.0819917 57.5330199,85.3267495 C57.7598457,85.4002526 57.8722437,85.5028033 57.959016,85.6644596 C58.2350636,85.7793872 58.2391231,85.979942 58.218318,86.0696108 C58.0673545,85.9622609 57.7953665,85.8561739 57.5784358,85.8849689 C57.5627052,85.979942 57.5231248,86.157764 57.4411732,86.2264679 C57.3475505,86.2060083 57.2252574,86.1198758 57.1778117,86.0514244 C56.9271362,85.8586998 55.3652349,86.2264679 55.2703436,85.9690807 C55.2102119,85.7298799 55.6273278,85.5288199 56.0119676,85.4439503 C55.0227127,85.079971 54.1643774,83.2128406 52.6412954,82.8966004 C51.9349385,82.750352 50.977906,83.0686128 50.977906,83.9898012 C50.977906,84.4424389 51.3409796,84.7907578 51.7334847,84.7907578 C52.0947822,84.7907578 52.2754309,84.5404431 52.2754309,84.2868447 C52.217329,84.3310476 52.1813007,84.3583271 52.1457799,84.3873747 C51.9247897,84.5692381 51.6431603,84.557619 51.439423,84.3583271 C51.2600429,84.1830311 51.2600429,83.8784099 51.4340949,83.6722981 C51.577193,83.5010435 51.7492153,83.4043023 51.9790858,83.3704555 C52.5753281,83.2833126 53.0629783,83.4740166 53.3915459,83.9539337 C53.5480912,84.1830311 53.6346098,84.4277888 53.6346098,84.6649689 C53.6346098,85.7263437 52.5743132,85.9673126 51.9874585,85.9673126 C50.5102998,85.9673126 49.639786,84.9069482 49.639786,83.6801284 C49.639786,83.536911 49.6468901,83.3919255 49.6712473,83.2459296 C49.9023863,81.8652836 51.1321679,81.2878675 52.1962702,81.1153499 C52.0605299,80.6346749 51.798437,80.2464472 51.42217,79.9291967 C51.2349246,79.7715818 51.2158955,79.6427619 51.3338754,79.4417019 C51.494734,79.1666335 51.6634579,78.8961118 51.7344995,78.5861863 C51.7507376,78.5167246 51.7580955,78.4432215 51.7631699,78.3676977 C51.2334022,78.8438261 50.4927931,79.2800455 49.4680174,79.5914865 C49.1447779,79.7412712 48.9737706,80.0365466 48.9326679,80.3760248 C48.8859834,80.7700621 48.8750734,81.1696563 48.8679693,81.5672298 C48.8661932,81.6589193 48.9324142,81.7586915 48.9826508,81.8465921 C49.1734483,82.1747039 49.384036,82.4939752 49.4309743,82.9031677 C49.4309743,83.1014493 48.4361376,83.1219089 48.4361376,82.9630311 C48.4267499,82.2434079 47.9474725,81.963793 47.9989777,81.4886749 C48.1314197,80.7496025 48.1608512,80.01053 48.0403341,79.2676687 C48.0098877,79.0807536 48.1090923,78.9577433 48.2420416,78.8582236 C48.4533905,78.6965673 48.6779329,78.5523395 48.889028,78.3919462 C49.3870807,78.0105383 49.5931015,77.5134451 49.4761365,76.8971304 C49.4609133,76.8168075 49.4256462,76.7395155 49.3908865,76.6639917 C49.1430019,76.1156232 48.9620994,75.5601822 48.9620994,74.9418468 C48.9620994,74.263648 48.1235543,74.302294 48.1783579,74.9688737 C48.1956109,75.1770062 48.3506339,75.4682402 48.4376599,75.6682899 C49.2972638,77.650853 47.7516006,79.0787329 46.1529099,79.0777226 C47.8335522,78.4944969 45.7601511,76.3379006 45.7601511,74.7289151 C45.7601511,73.7423064 46.5208041,73.0128323 47.4283611,73.0128323 C48.4752105,73.0128323 49.1389424,73.6890104 49.3289788,73.8052008 C49.8354042,73.0002029 51.3861418,72.8549648 51.9681758,72.762265 C51.9237748,72.328824 51.9846676,71.9436273 52.2498052,71.6109689 C52.2670581,71.5884886 52.2779681,71.5468116 52.2685805,71.5228157 C52.1858677,71.3177143 52.0978268,71.1153913 51.9836527,70.9171097 C51.5061514,71.4571429 51.3917236,72.1732298 51.3917236,72.5435238 C49.6238016,72.5175072 48.8441196,71.7415569 48.3217098,71.4359255 C48.3237395,71.3010435 48.793883,70.4526004 49.2109989,69.8926128 C48.7537952,70.2853872 48.3780356,70.7276687 48.1019881,71.2578509 C47.8492828,71.0749772 47.5836378,70.9095321 47.3238284,70.8011718 C47.722169,69.9459089 48.2501607,69.280087 48.9230265,68.5844596 C47.9756355,68.9347992 47.151045,70.0085507 46.8384618,70.6829607 C46.5682498,70.6521449 46.1688943,70.6415362 45.9458743,70.6849814 C46.9785153,69.4195155 47.4504348,66.9262195 49.720469,66.3669896 C49.1518821,68.6791801 50.5658645,69.6188075 51.5396425,69.0153747 C51.4127824,69.0153747 51.3260101,69.0355818 51.2443122,69.0153747 C49.345978,68.5326791 50.4709732,65.8979337 50.0112323,65.3493126 C49.8366728,65.1414327 49.7466021,64.9507288 49.7750188,64.6875321 C49.7851676,64.5948323 49.7577658,64.4874824 49.7153946,64.4021077 L48.7058421,62.7127992 C48.5787283,62.5001201 48.9717408,62.3488199 49.0564833,62.4465714 L50.0860797,64.1358799 C50.1127203,64.1783147 50.1454502,64.2401988 50.183762,64.2472712 C50.5602827,64.3137019 50.6767402,64.6264058 50.8289723,64.9029896 C50.8771791,64.9921532 50.9152372,65.0947039 50.9241174,65.1954865 C50.9312215,65.2725259 50.9101628,65.3801284 50.8589113,65.4324141 C50.6952618,65.598617 50.7269768,65.7617888 50.8535832,65.9772464 C51.056813,66.3225342 57.1559918,76.4937474 57.1559918,76.4937474 C55.8313188,77.036559 53.434932,77.0807619 52.7407537,77.0133209 C52.5968943,77.3664389 52.3715908,77.7387536 52.03871,78.0976812 C52.3710834,77.8809607 52.6281019,77.6061449 52.865584,77.3073333 C53.1335125,77.3384017 53.5354052,77.4457516 53.9461781,77.4758095 C53.7031142,77.9961408 53.3382646,78.5136936 52.8696435,78.9473872 C52.6491607,79.1648654 52.3761578,79.3573375 52.476631,79.7056563 C52.5897902,80.0976729 53.317967,80.8445756 53.583612,81.3292919 C53.8472272,81.3851139 54.2922524,81.4790766 54.6185365,81.6096646 C54.8047671,82.0102692 55.4345005,82.5134244 56.1936312,82.2530062 C54.6675045,82.2338095 54.7801562,80.6682692 55.2543592,79.8402857 C55.2031077,80.6094161 55.5740466,81.247706 56.0436826,81.3204513 C55.3393555,80.6768571 55.4098897,79.2151304 56.095949,78.4131636 C56.1936312,79.7152547 56.5879123,80.3995155 57.152186,80.5540994 C56.4065024,79.8673126 55.9589401,78.2777764 57.0849501,77.1196605 C57.1719761,80.0916108 59.8900801,79.555619 60.1369498,82.9961201 C61.1437114,82.9961201 61.2010521,81.6387122 60.6398232,81.3891553 C60.3122705,81.2663975 60.0164328,81.0504348 59.8487237,80.7564224 C59.7789507,80.6326542 59.7066404,80.4121449 59.6495534,80.2823147 C59.3504174,79.3982567 58.5055292,79.4543313 58.5260806,79.2424099 C58.5458707,79.1706749 58.6790738,79.1378385 58.8655581,79.1378385 L57.2737179,76.6753582 L57.1904977,76.5467909 C57.3825639,76.5078923 57.4251888,76.3959959 57.2280483,76.0845549 C57.2280483,76.0845549 51.2539536,66.1386501 51.2255369,66.0815652 C51.7809303,65.9850766 52.3145038,66.1358716 52.8341227,66.3371843 C52.6953378,66.2083644 52.5821786,66.0285217 52.5580752,65.8428696 C52.5380313,65.6938427 52.5436131,65.6066998 52.6636227,65.5119793 C52.7907365,65.4081656 52.9125222,65.2884389 53.001578,65.1530518 C53.2981768,64.7014244 53.8431677,64.4806625 54.3384295,64.6218592 C55.0856353,64.8345383 55.3500117,65.6804555 54.8007076,66.1252629 C54.508422,66.7706253 54.1458559,66.6892919 54.0712621,66.9785052 C54.2179124,67.0464513 55.2398972,67.8367992 55.3081479,68.1694576 C55.00343,68.8042112 54.8519591,69.7966294 55.1163354,70.3503023 C55.3137297,67.7117681 56.9007493,66.4212961 58.4464124,66.4212961 C58.8132918,66.4212961 59.1781414,66.4852008 59.5440058,66.6099793 C59.744191,66.6776729 59.9443762,66.7751718 60.1110704,66.901971 C60.3518508,67.0861077 60.5786766,67.2949979 60.7819065,67.5185383 C61.0835797,67.8501863 61.359881,68.2045673 61.8729031,68.2275528 C61.7229545,68.4414948 61.5522008,68.5980994 61.3773876,68.7519255 C61.2512887,68.8650849 61.1881124,69.0007246 61.1726355,69.1709689 C61.1368609,69.5374741 61.0165976,69.8731636 60.7474005,70.1429275 C60.7118797,70.1780373 60.6821944,70.2255238 60.6654489,70.2717474 C60.4939341,70.7701035 60.3201358,71.2664389 60.1587698,71.7675735 C60.1189357,71.8895735 60.1278159,72.0580497 59.9631515,72.056029 C59.8203071,72.0540083 59.6475237,72.0123313 59.5409612,71.9251884 C59.3143891,71.7415569 59.2331986,71.4743188 59.3143891,71.1919255 C59.3950721,70.9113002 59.3143891,70.6703313 59.225587,70.4091553 C59.1345015,70.1479793 59.1030402,69.8655859 59.0418936,69.5675321 C58.619957,69.4195155 57.8278427,70.3270642 58.4324578,71.0876066 C58.8252166,71.648352 59.1781414,72.6809317 59.2392879,73.1035114 C59.2519739,73.1451884 58.88205,73.3785797 58.3723262,73.313412 C56.6493126,73.0929027 55.5595846,71.895383 55.2284798,70.8852836 C55.2015854,72.5965673 56.6206422,73.8650642 58.7234749,73.7423064 C58.8092323,74.1408903 59.1345015,74.4116646 59.5135594,74.424294 C59.5922127,74.1669068 59.5904366,73.6268737 59.5262454,73.2836066 C59.497575,73.132559 59.5767357,73.0552671 59.7165355,73.0193996 C60.1762764,72.9024513 60.7748023,72.9479172 61.2868096,72.7650435 C61.7407149,72.601619 61.9556159,72.6973499 62.2377527,73.2469814 C62.4518925,73.6617308 62.8175032,74.1080538 63.1628164,74.415706 C63.3076906,74.5442733 63.4528185,74.6748613 63.5898274,74.8122692 C63.7643868,74.9873126 63.8552187,75.1934244 63.8689195,75.4477805 C63.8237574,75.846617 63.8767849,76.6493416 63.8767849,76.661971 C63.7770729,76.9251677 63.0501646,76.6465631 62.9329459,76.3639172 C62.8885449,76.258588 63.2437531,75.5185052 62.8707845,75.1216894 L62.8707845,75.1216894 Z M75.4124253,32.4560414 C74.9410133,34.2170849 73.4821224,36.406265 72.2525945,37.3830228 C72.1191377,37.5211884 72.2064175,37.5184099 72.3487545,37.4802692 C79.004849,35.7002816 80.1613054,39.0804141 80.1493806,39.1930683 C80.1351722,39.3241615 80.2171238,39.3769524 80.3125226,39.2600041 C80.4485166,39.0943064 82.6480166,36.6952257 81.057445,34.5032671 C79.4663659,32.3113085 75.4124253,32.4560414 75.4124253,32.4560414 L75.4124253,32.4560414 Z M75.6397586,34.1822277 C75.8645546,33.8548737 76.0893507,33.2635652 76.0893507,33.2635652 C76.6000894,33.2635652 77.488871,33.4325466 77.488871,34.0448199 C76.8784204,33.9261035 76.1583626,33.9498468 75.6397586,34.1822277 L75.6397586,34.1822277 Z M81.8627528,41.9450145 C81.9307498,41.854588 81.8541263,41.8437267 81.8003376,41.8783313 C81.7465489,41.9126832 80.4467406,42.6792878 77.6258799,40.8437308 C74.8047656,39.0081739 72.6242946,38.2372754 71.4992994,38.055412 C71.4992994,38.055412 70.4400178,38.808882 69.4743589,39.654294 C72.1077203,39.8773292 74.1730024,41.488588 74.4097233,42.0455445 C74.4315432,42.0965673 74.4868542,42.0988406 74.503346,42.0493333 C74.7854828,41.1890186 74.4137828,40.4714161 74.4137828,40.4714161 C74.4137828,40.4714161 75.6400123,41.2284224 78.0176238,42.6189193 C80.3957428,44.0094161 81.4796353,42.4542319 81.8627528,41.9450145 L81.8627528,41.9450145 Z M59.5848548,32.2259337 C58.9211229,32.5777888 57.9016753,32.8591718 57.2140937,32.7028199 C57.704281,33.6176936 59.4189218,34.2668447 60.2090063,34.3216563 C59.6954768,34.9159959 58.8419622,35.5414037 58.1386499,35.7134161 C58.4547852,36.0339503 59.9877624,36.2999255 61.1018476,36.0420331 C60.3038977,37.2461201 58.7191616,38.603528 57.502066,38.5567992 C58.9317791,39.6497474 61.595587,39.2774327 63.7560141,37.3832754 C63.9584828,38.6055487 63.6986733,40.4244348 63.4797128,40.8851553 C64.3946277,40.6813168 65.8027745,39.0794037 66.3223934,38.2241408 C67.0858374,39.8871801 67.07442,40.584323 67.07442,40.584323 C68.72081,38.3468986 72.8899396,37.1218468 74.4193646,31.9559172 C74.5639851,31.4669068 74.3983059,31.1845135 73.9558179,31.1845135 C73.7221417,31.1845135 66.3221397,31.1638012 66.3221397,31.1638012 C62.1334737,31.1638012 59.30627,30.2878261 57.5144983,29.4073043 C57.8171865,30.5967412 59.0789368,31.9521284 59.5848548,32.2259337 L59.5848548,32.2259337 Z M71.4855985,32.7409607 C72.0973178,32.7409607 72.0404845,33.1089814 71.8593283,33.4093085 C71.6779184,33.7096356 71.1095853,34.6442112 71.1095853,34.6442112 C71.1095853,34.6442112 70.5163875,34.0094576 69.3325293,33.5393913 C68.1486711,33.0693251 67.8150291,32.9917805 67.8150291,32.7409607 L71.4855985,32.7409607 L71.4855985,32.7409607 Z M44.0995527,40.4784886 C43.8610558,41.1544141 43.7907753,41.9000538 43.9176354,42.8699917 C44.6871686,44.5418716 45.059376,47.6464306 44.821894,49.3819627 C46.0478698,47.6714369 46.5923532,45.7477267 46.9432482,44.2084555 C47.6463067,44.9278261 48.5584307,45.9576273 49.1947608,46.7916729 C49.3041142,45.8881656 49.4979564,44.7724845 49.6679489,43.9667288 C50.5836249,44.841441 52.4839889,45.9396936 53.7690814,46.3291843 C52.9038957,42.6787826 51.4236924,40.351942 51.4236924,40.351942 C50.1675239,40.4784886 48.1441057,40.172352 47.2345189,39.2774327 C47.3968998,40.5999834 48.3067403,42.1205631 48.3067403,42.1205631 C46.3574083,42.3107619 44.9766633,41.6454451 44.0995527,40.4784886 L44.0995527,40.4784886 Z M65.8999494,40.4784886 C65.0230925,41.6454451 63.6423475,42.3107619 61.6930155,42.1205631 C61.6930155,42.1205631 62.6026023,40.5999834 62.7649832,39.2774327 C61.8553964,40.172352 59.8324856,40.4784886 58.5760634,40.351942 C58.5760634,40.351942 57.0958601,42.6787826 56.2304206,46.3291843 C57.5160207,45.9396936 59.4161309,44.841441 60.3318069,43.9667288 C60.5017994,44.7724845 60.6953879,45.8881656 60.8047413,46.7916729 C61.4413251,45.9576273 62.3531954,44.9278261 63.0567613,44.2084555 C63.4074026,45.7477267 63.951886,47.6714369 65.1778618,49.3819627 C64.940126,47.6464306 65.3125872,44.5418716 66.0818667,42.8699917 C66.2087268,41.9000538 66.1384463,41.1544141 65.8999494,40.4784886 L65.8999494,40.4784886 Z M49.1328531,51.9795776 C49.8686415,53.1621946 50.5232395,54.5845176 50.7500653,55.8512464 C51.4551536,54.9977516 52.200076,53.5143023 52.7047254,51.7421449 C53.3235489,52.5158219 54.4043967,54.0914658 54.9998779,55.3912836 C55.5951054,54.0914658 56.6762069,52.5158219 57.2947767,51.7421449 C57.7996798,53.5143023 58.5446021,54.9977516 59.2499442,55.8512464 C59.4765163,54.5845176 60.1311143,53.1621946 60.866649,51.9795776 C61.4261019,54.281412 63.5842455,56.520352 65.8111473,56.6888282 C64.3624052,54.8075528 64.3025273,51.5559876 64.4050302,50.4731429 C63.4403862,48.9727702 62.8050709,47.6194037 62.5011142,46.6997308 C61.8467699,47.3466087 60.8346802,48.6042443 59.9266158,50.0576356 C59.9266158,50.0399545 59.9004826,48.2352133 59.538424,46.0437598 C58.6021966,46.8899296 56.9068386,47.5024555 56.0005502,47.7403934 C55.428665,48.6732008 55.2718659,49.4009068 54.9998779,50.5716522 C54.7278899,49.4009068 54.5708371,48.6732008 53.9992056,47.7403934 C53.0926635,47.5024555 51.3975592,46.8899296 50.4610781,46.0437598 C50.0992732,48.2352133 50.0728863,50.0399545 50.0728863,50.0576356 C49.1645681,48.6042443 48.1529859,47.3466087 47.4983879,46.6997308 C47.1946849,47.6194037 46.5593696,48.9727702 45.5944718,50.4731429 C45.6974822,51.5559876 45.6370968,54.8075528 44.1883548,56.6888282 C46.415764,56.520352 48.5736539,54.281412 49.1328531,51.9795776 L49.1328531,51.9795776 Z M28.9542357,79.2017433 C30.2043148,78.3861366 30.9951606,76.9042029 31.8956134,75.0916315 C31.3714275,75.3086046 30.6117894,75.543764 29.850629,75.7016315 C29.1079901,77.138352 28.05632,76.5811429 28.0289183,76.3773043 C28.2562515,76.1252215 28.5158072,75.7529068 28.710918,75.4288364 C28.394529,74.8365176 28.0131876,73.9542277 27.8028536,73.4086377 C26.7405273,75.6458095 24.7889119,77.9183437 23.1547004,78.8049275 C24.1162998,80.1418758 27.0964967,80.413913 28.9542357,79.2017433 L28.9542357,79.2017433 Z M32.8173787,75.4311097 C31.9308805,77.3022816 32.1394384,80.1860787 34.9618214,80.2676646 C34.7276377,78.2257433 35.6473733,76.304559 36.6305389,75.4311097 C35.7848896,75.6394948 34.4082041,76.7488613 34.4082041,76.7488613 C34.4082041,76.7488613 34.2009147,77.2244845 34.1593046,77.8397888 C33.5683903,77.9453706 33.2418525,77.490207 33.4871999,76.5407288 C33.4871999,76.5407288 33.0601889,76.0524762 32.8173787,75.4311097 L32.8173787,75.4311097 Z M18.8460248,77.5677516 C19.2575589,77.5677516 19.6728988,77.5169814 20.0803733,77.4167039 C22.8058352,76.7433043 25.4011386,74.4124224 26.9437572,72.4553706 C26.0625871,72.7344803 25.1725368,72.9155859 24.1858191,73.0156108 C24.1858191,73.0156108 23.4949391,73.8241449 22.962888,74.1229565 C22.6931835,74.2757723 22.4237327,74.3487702 22.1684902,74.3487702 C21.3974346,74.3487702 21.0701356,73.7162899 21.0701356,73.7162899 C21.0701356,73.7162899 22.3136181,73.1201822 23.1049713,72.2735072 C22.9481722,71.6493623 22.8484602,70.7850062 22.8304461,69.923176 C20.684481,72.0792671 16.650838,74.1739793 13.8335295,74.580646 C14.3909526,75.7415404 16.3694624,77.5677516 18.8460248,77.5677516 L18.8460248,77.5677516 Z M13.3895192,72.994646 C13.5305876,72.994646 13.6731783,72.9875735 13.8129781,72.9741863 C16.6140486,72.6973499 19.9946159,70.9029648 22.1715348,69.3500538 C21.4786251,69.4909979 19.6564069,69.5316646 18.7919824,69.4111801 C18.4931001,69.6114824 17.1747701,70.4447702 16.0779379,70.5839462 C14.0773545,70.8375445 13.8657519,69.5996108 13.8657519,69.5996108 C15.1510982,69.442501 16.6328239,69.0085549 18.0490898,68.3490476 C18.1911731,67.2823685 18.4380428,66.3316273 18.6488842,65.6306957 C15.5608562,67.3505673 10.5232426,68.5604638 7.53467295,68.6003727 C8.13269135,70.0206749 10.4511861,72.994646 13.3895192,72.994646 L13.3895192,72.994646 Z M13.8299774,62.9042609 C14.2605405,62.1427081 14.9417791,61.2424845 15.5621249,60.5082112 C13.0967261,61.1874203 9.92294074,61.3293747 8.24052241,61.3293747 C6.25693826,61.3293747 4.32942626,61.1891884 3.22371384,60.9674161 C3.32190354,62.9603354 5.2174468,66.3983106 8.95728184,66.7337474 C9.15239264,66.7516812 9.36805477,66.7602692 9.59894011,66.7602692 C11.9321506,66.7602692 15.6428079,65.8160952 18.1962475,64.9100621 C16.3755517,64.6756605 14.617271,64.2434824 14.2161394,64.0752588 C13.2667186,64.3478012 10.9984605,64.7281988 10.2619109,64.6875321 C8.59014878,64.5958427 8.41102235,63.3119379 8.41102235,63.3119379 C8.41102235,63.3119379 11.4201434,63.4392422 13.8299774,62.9042609 L13.8299774,62.9042609 Z M4.8523435,59.2523437 C6.24171505,59.7014451 8.45745314,59.9588323 10.9319858,59.9588323 C12.4416207,59.9588323 14.0342221,59.8236977 15.3294635,59.6395611 C13.9304506,59.1631801 12.2041386,58.4430518 11.0821881,57.7297433 C9.67987684,57.701706 7.77646825,57.6617971 6.55429828,57.2874617 C4.756691,56.7373251 4.78231674,55.5077267 4.81428547,55.231648 C6.36832141,55.8565507 9.01183168,56.4544265 10.9657306,56.5708696 C11.6860421,55.8770104 12.798605,55.0500373 13.9725681,54.3299089 C9.33608603,54.3705756 3.4170486,52.5340083 0.0912848375,50.7729648 C-0.669114459,56.9613706 3.53274498,58.8252174 4.8523435,59.2523437 L4.8523435,59.2523437 Z M15.0445357,46.4203685 C14.3290449,45.0473002 13.6313145,43.2003768 13.5392141,41.6083147 C11.3706679,39.9041035 8.89537413,37.7356356 7.46312387,35.2569896 C6.63548873,33.8243106 6.94096779,32.5686957 7.52706134,32.1365176 C7.97411625,33.6929648 10.8863162,38.0513706 13.5257669,40.2370145 C13.546572,38.8402029 13.7815168,37.2337433 14.1456052,36.0253623 C11.0766063,32.6848861 7.63666845,27.1519462 6.80573495,24.984236 C5.87153735,25.757913 4.26168298,27.7041035 3.86587954,30.4467039 C3.46753891,33.2072381 4.36240988,36.0430435 6.5256279,38.8758178 C8.18927094,41.0546418 11.8517213,44.3034286 15.0445357,46.4203685 L15.0445357,46.4203685 Z M14.1623508,53.4407992 C12.0526677,52.0414617 10.5902247,50.7431594 9.81079644,49.5772133 C8.04794882,48.8914369 5.76827325,47.8444596 4.64530785,46.9010435 C3.10243561,45.6060248 3.5908469,44.4403313 3.77073449,44.2074451 C5.12915218,45.594911 8.07129107,47.5946501 10.1609302,48.4845176 C11.4655593,47.9758054 13.2783898,47.6032381 15.0445357,47.3857598 C9.810289,45.3173168 4.19165622,41.4342816 1.2553529,37.7737764 C0.660125419,38.9301242 -1.75858879,44.3696066 2.77589777,48.830058 C5.16391184,51.1796315 10.0830382,52.8007412 14.1623508,53.4407992 L14.1623508,53.4407992 Z M82.1969022,73.4086377 C81.9865682,73.9542277 81.6052268,74.8365176 81.288584,75.4288364 C81.4836948,75.7529068 81.7435043,76.1252215 81.9708375,76.3773043 C81.943182,76.5811429 80.8917657,77.138352 80.1493806,75.7016315 C79.3879664,75.543764 78.6283283,75.3086046 78.1041424,75.0916315 C79.0045952,76.9042029 79.7951872,78.3861366 81.0455201,79.2017433 C82.9032591,80.413913 85.883456,80.1418758 86.8448017,78.8049275 C85.2105902,77.9183437 83.2589748,75.6458095 82.1969022,73.4086377 L82.1969022,73.4086377 Z M77.1823771,75.4311097 C76.9395669,76.0524762 76.5125559,76.5407288 76.5125559,76.5407288 C76.7579033,77.490207 76.4313655,77.9453706 75.8401975,77.8397888 C75.7988411,77.2244845 75.591298,76.7488613 75.591298,76.7488613 C75.591298,76.7488613 74.2146125,75.6394948 73.3689632,75.4311097 C74.3521288,76.304559 75.2718644,78.2257433 75.0379344,80.2676646 C77.8603174,80.1860787 78.0688753,77.3022816 77.1823771,75.4311097 L77.1823771,75.4311097 Z M86.8950383,72.2735072 C87.6861377,73.1201822 88.9293664,73.7162899 88.9293664,73.7162899 C88.9293664,73.7162899 88.6020674,74.3487702 87.8312656,74.3487702 C87.5757694,74.3487702 87.3065723,74.2757723 87.0366141,74.1229565 C86.5048167,73.8241449 85.8139367,73.0156108 85.8139367,73.0156108 C84.827219,72.9155859 83.936915,72.7344803 83.0557449,72.4553706 C84.5986172,74.4124224 87.1939206,76.7433043 89.9191288,77.4167039 C90.3266033,77.5169814 90.7421969,77.5677516 91.153731,77.5677516 C93.6300397,77.5677516 95.6088032,75.7415404 96.1662263,74.580646 C93.3489178,74.1739793 89.3152748,72.0792671 87.169056,69.923176 C87.1510419,70.7850062 87.0513299,71.6493623 86.8950383,72.2735072 L86.8950383,72.2735072 Z M91.9504123,68.3490476 C93.3669319,69.0085549 94.8486576,69.442501 96.1342576,69.5996108 C96.1342576,69.5996108 95.9224013,70.8375445 93.9215642,70.5839462 C92.8249857,70.4447702 91.506402,69.6114824 91.2077734,69.4111801 C90.3433488,69.5316646 88.520877,69.4909979 87.828221,69.3500538 C90.0051399,70.9029648 93.3857072,72.6973499 96.186524,72.9741863 C96.3265775,72.9875735 96.4691682,72.994646 96.6102366,72.994646 C99.5485697,72.994646 101.866811,70.0206749 102.464829,68.6003727 C99.4762595,68.5604638 94.4388995,67.3505673 91.3508716,65.6306957 C91.561713,66.3316273 91.808329,67.2823685 91.9504123,68.3490476 L91.9504123,68.3490476 Z M94.4373772,60.5082112 C95.057723,61.2424845 95.7389616,62.1427081 96.1695247,62.9042609 C98.5796124,63.4392422 101.58848,63.3119379 101.58848,63.3119379 C101.58848,63.3119379 101.409607,64.5958427 99.7380987,64.6875321 C99.0010416,64.7281988 96.7330372,64.3478012 95.7836164,64.0752588 C95.3822311,64.2434824 93.6242041,64.6756605 91.8035083,64.9100621 C94.3566942,65.8160952 98.0678589,66.7602692 100.400816,66.7602692 C100.631701,66.7602692 100.847363,66.7516812 101.04222,66.7337474 C104.782309,66.3983106 106.677852,62.9603354 106.776042,60.9674161 C105.670583,61.1891884 103.742564,61.3293747 101.759233,61.3293747 C100.077069,61.3293747 96.9027759,61.1874203 94.4373772,60.5082112 L94.4373772,60.5082112 Z M109.908725,50.7729648 C106.582707,52.5340083 100.66367,54.3705756 96.026934,54.3299089 C97.2008971,55.0500373 98.3137137,55.8770104 99.0340252,56.5708696 C100.98767,56.4544265 103.631434,55.8565507 105.185217,55.231648 C105.217185,55.5077267 105.242811,56.7373251 103.445458,57.2874617 C102.223288,57.6617971 100.319879,57.701706 98.9175677,57.7297433 C97.7956172,58.4430518 96.0693052,59.1631801 94.6700386,59.6395611 C95.9655337,59.8236977 97.5578814,59.9588323 99.06777,59.9588323 C101.542303,59.9588323 103.758041,59.7014451 105.147412,59.2523437 C106.466757,58.8252174 110.669124,56.9613706 109.908725,50.7729648 L109.908725,50.7729648 Z M102.472694,32.1365176 C103.059042,32.5686957 103.364267,33.8243106 102.536632,35.2569896 C101.104128,37.7356356 98.6293416,39.9041035 96.4605417,41.6083147 C96.3684413,43.2003768 95.6704572,45.0473002 94.9549663,46.4203685 C98.1480345,44.3034286 101.810739,41.0546418 103.473874,38.8758178 C105.637346,36.0430435 106.532217,33.2072381 106.133623,30.4467039 C105.737819,27.7041035 104.128218,25.757913 103.193767,24.984236 C102.363087,27.1519462 98.9228958,32.6848861 95.8538968,36.0253623 C96.2179853,37.2337433 96.4531838,38.8402029 96.4739889,40.2370145 C99.1131859,38.0513706 102.025386,33.6929648 102.472694,32.1365176 L102.472694,32.1365176 Z M99.8385718,48.4845176 C101.928465,47.5946501 104.870604,45.594911 106.228768,44.2074451 C106.408655,44.4403313 106.897066,45.6060248 105.354194,46.9010435 C104.231229,47.8444596 101.951553,48.8914369 100.188959,49.5772133 C99.4092773,50.7431594 97.9470881,52.0414617 95.8371513,53.4407992 C99.9164639,52.8007412 104.835844,51.1796315 107.224112,48.830058 C111.758345,44.3696066 109.339377,38.9301242 108.744149,37.7737764 C105.8081,41.4342816 100.189467,45.3173168 94.9549663,47.3857598 C96.721366,47.6032381 98.5341965,47.9758054 99.8385718,48.4845176 L99.8385718,48.4845176 Z M87.6422441,42.2223561 C85.9420654,46.1692961 81.6323749,49.6880994 78.8444978,51.4499006 C77.5725987,52.253383 78.0366529,53.7772464 78.4433663,54.4534244 C82.2415569,60.7681242 75.3350407,65.4743437 69.0968233,62.3447785 C70.4580319,62.3596812 71.8321802,61.2020704 72.0224704,60.170501 C71.5898775,60.5445839 69.8184034,60.3389772 69.2949787,59.854766 C70.0985104,59.4339545 70.2895617,59.0075859 70.3311718,58.6087495 C69.33735,59.2192547 67.3286475,59.3033665 66.7367184,58.2720497 C63.4406399,58.1831387 61.2482441,55.6085093 61.0056876,54.865648 C60.7613551,55.6559959 60.3668203,57.037147 60.2371693,58.4001118 C59.3433132,57.7941532 57.816679,56.4233582 57.0207589,54.5643106 C56.1200524,55.8517516 55.4408435,57.3021118 54.9998779,58.8302692 C54.5586586,57.3021118 53.8799571,55.8517516 52.9787432,54.5643106 C52.182823,56.4233582 50.6561889,57.7941532 49.7625865,58.4001118 C49.6326818,57.037147 49.2386544,55.6559959 48.9940682,54.865648 C48.7515117,55.6085093 46.5588621,58.1831387 43.2630374,58.2720497 C42.6708545,59.3033665 40.6624058,59.2192547 39.668584,58.6087495 C39.7099404,59.0075859 39.9012453,59.4339545 40.7045234,59.854766 C40.1810987,60.3389772 38.4098783,60.5445839 37.9770317,60.170501 C38.1673218,61.2020704 39.5417239,62.3596812 40.9026788,62.3447785 C34.6644614,65.4743437 27.7579451,60.7681242 31.5561358,54.4534244 C31.9631029,53.7772464 32.4269034,52.253383 31.155258,51.4499006 C28.3673809,49.6880994 24.0574367,46.1692961 22.357258,42.2223561 C22.1552967,43.8318468 22.3093049,47.8257681 24.0361242,50.3109814 C22.7743739,50.7939296 21.1564005,51.5774576 20.0687022,52.3041532 C20.7567913,53.0869234 22.3585266,54.4387743 23.4345537,55.1738054 C22.5561746,55.9558178 21.1924288,57.4531594 20.4766842,58.4334534 C21.38348,58.9734865 23.2107726,59.6289524 24.6069946,60.071234 C23.9615305,61.1374079 22.9689773,63.0606128 22.7195703,64.205089 C24.2829939,64.4329234 25.8791474,64.4119586 27.287548,64.3675031 C27.1079141,65.7021781 27.2261477,67.3780994 27.3672161,68.5991097 C28.8182417,68.3902195 30.4143951,67.8006791 31.473423,67.2424596 C31.6743694,68.163648 32.2279868,69.8635652 32.7242634,70.7733872 C34.1009489,69.4654865 35.9165704,68.866853 37.5974664,69.2134037 C41.0389265,69.923176 42.0619262,73.4083851 42.0619262,73.4083851 L42.0672543,62.8065093 L42.0672543,61.622882 C42.0672543,60.9621118 42.4224625,60.6122774 43.0598075,60.61253 L66.9399483,60.61253 C67.5772933,60.6122774 67.9322478,60.9621118 67.9322478,61.622882 L67.9322478,62.8065093 L67.9375759,73.4083851 C67.9375759,73.4083851 68.9605756,69.923176 72.4020357,69.2134037 C74.0829317,68.866853 75.8988069,69.4654865 77.2754924,70.7733872 C77.7720227,69.8635652 78.3253864,68.163648 78.5263328,67.2424596 C79.5851069,67.8006791 81.1815141,68.3902195 82.6325397,68.5991097 C82.7736081,67.3780994 82.891588,65.7021781 82.7122078,64.3675031 C84.104624,64.5119834 85.7061056,64.5119834 87.2799317,64.205089 C87.0310323,63.0606128 86.0382253,61.1374079 85.3925075,60.071234 C86.8448017,59.6812381 88.6160221,58.9734865 89.5230716,58.4334534 C88.8075808,57.4531594 87.4435812,55.9558178 86.5652021,55.1738054 C87.6409755,54.4387743 89.2427108,53.0869234 89.9310536,52.3041532 C88.8431016,51.5774576 87.2251282,50.7939296 85.9636316,50.3109814 C87.6901972,47.8257681 87.8444591,43.8318468 87.6422441,42.2223561 L87.6422441,42.2223561 Z M44.2408748,29.8114451 L44.0990453,30.1835072 C48.2714732,30.1835072 52.2825351,28.7541118 53.3527267,23.7763602 L50.1566139,23.7763602 C49.5895494,27.3626046 47.4841795,29.8114451 44.2408748,29.8114451 L44.2408748,29.8114451 Z M26.2018794,21.7132215 C26.2018794,21.7132215 28.4843459,22.242646 29.3774409,25.4580911 C30.2707895,28.6737888 32.5154517,30.2117971 34.8184695,30.2117971 L34.67664,29.7735569 C33.3367438,29.6065963 31.4472899,27.6957681 31.0938577,24.1570104 C30.7376346,20.5942567 29.8648373,20.1353043 29.8648373,20.1353043 C28.9631159,19.5109068 26.69638,21.1600538 26.2018794,21.7132215 L26.2018794,21.7132215 Z M19.5259948,23.1514576 C21.4296571,23.0890683 22.7106901,23.6952795 25.1032712,21.5131718 C27.9276839,18.9360166 29.2685949,19.37653 29.2685949,19.37653 C27.8272107,18.4376605 25.8172397,18.0203851 25.1268672,18.5626915 C24.4367483,19.1052505 23.502297,20.5609151 21.932023,21.5972836 C19.7190758,23.0577474 17.445997,22.6722981 17.3442552,24.0334948 L17.4059092,24.0334948 C17.4059092,24.0334948 17.6228399,23.214352 19.5259948,23.1514576 L19.5259948,23.1514576 Z M21.281992,31.6939834 C22.4392096,32.8361863 22.5455183,35.183234 22.5455183,35.183234 C22.5455183,35.183234 23.9313378,32.6954948 22.7893434,30.050646 C21.6476027,27.4063023 19.3141385,25.3772629 21.6016794,23.83294 C20.2044425,23.8448116 18.6902406,23.5230145 18.0252401,24.4714824 C17.8182044,24.7667578 17.626392,25.4990104 18.3228538,26.5406832 C19.2080834,27.8644969 21.4187471,30.9427867 19.6071852,32.9925383 C20.9316044,32.7477805 21.281992,31.6939834 21.281992,31.6939834 L21.281992,31.6939834 Z M35.5745556,30.1976522 L43.4150157,30.1976522 C43.4150157,30.1976522 43.6091117,29.7212712 43.8562351,29.0329689 L35.1338437,29.0329689 C35.3812208,29.7212712 35.5745556,30.1976522 35.5745556,30.1976522 L35.5745556,30.1976522 Z M40.2663486,19.0511967 C40.2663486,18.6225549 39.927886,18.2744886 39.51077,18.2744886 C39.0934004,18.2744886 38.7549377,18.6225549 38.7549377,19.0511967 C38.7549377,19.4803437 39.0934004,19.8276522 39.51077,19.8276522 C39.927886,19.8276522 40.2663486,19.4803437 40.2663486,19.0511967 L40.2663486,19.0511967 Z M44.1822655,28.1542153 C44.5171761,27.1014286 44.8949654,25.5002733 44.8949654,24.7276066 C44.8949654,23.3156398 44.1360884,21.7523727 41.3961645,21.2711925 C41.3961645,22.977677 40.5680219,27.158766 39.5668422,27.158766 L39.4541904,27.158766 C38.4535182,27.158766 37.6251219,23.0087453 37.6251219,21.27094 C34.8763177,21.7513623 34.0946059,23.3151346 34.0946059,24.7276066 C34.0946059,25.5002733 34.472649,27.1014286 34.808067,28.1542153 L44.1822655,28.1542153 L44.1822655,28.1542153 Z M39.51077,25.9877681 C40.0324187,25.9877681 40.4551164,23.2577971 40.4551164,21.8986211 C40.4551164,21.1560124 40.0324187,20.6690228 39.51077,20.6690228 C38.9888677,20.6690228 38.5659162,21.1560124 38.5659162,21.8986211 C38.5659162,23.2577971 38.9888677,25.9877681 39.51077,25.9877681 L39.51077,25.9877681 Z M39.0066281,17.2391304 L40.0144045,17.2391304 L39.8885593,15.944617 L41.1480262,16.0741946 L41.1480262,15.0385839 L39.8885593,15.1681615 L40.0144045,13.873648 L39.0066281,13.873648 L39.132727,15.1681615 L37.8732602,15.0385839 L37.8732602,16.0741946 L39.132727,15.944617 L39.0066281,17.2391304 L39.0066281,17.2391304 Z M59.8431419,23.7763602 L56.6470291,23.7763602 C57.7174745,28.7541118 61.7282826,30.1835072 65.9007105,30.1835072 L65.7591347,29.8114451 C62.51583,29.8114451 60.4102064,27.3626046 59.8431419,23.7763602 L59.8431419,23.7763602 Z M75.18154,30.2117971 C77.4843041,30.2117971 79.7289663,28.6737888 80.6225686,25.4580911 C81.5154099,22.242646 83.7981301,21.7132215 83.7981301,21.7132215 C83.3033758,21.1600538 81.0368937,19.5109068 80.1349185,20.1353043 C80.1349185,20.1353043 79.2623749,20.5942567 78.9058981,24.1570104 C78.5527196,27.6957681 76.6632657,29.6065963 75.3233695,29.7735569 L75.18154,30.2117971 L75.18154,30.2117971 Z M84.8967383,21.5131718 C87.2890657,23.6952795 88.5700987,23.0890683 90.4740147,23.1514576 C92.3769159,23.214352 92.5938466,24.0334948 92.5938466,24.0334948 L92.6555006,24.0334948 C92.5537588,22.6722981 90.28068,23.0577474 88.0682402,21.5972836 C86.4977125,20.5609151 85.5630075,19.1052505 84.8728886,18.5626915 C84.1825161,18.0203851 82.1725451,18.4376605 80.7311609,19.37653 C80.7311609,19.37653 82.0720719,18.9360166 84.8967383,21.5131718 L84.8967383,21.5131718 Z M91.9745157,24.4714824 C91.3095152,23.5230145 89.795567,23.8448116 88.3980764,23.83294 C90.6856173,25.3772629 88.3526605,27.4063023 87.2104124,30.050646 C86.0686717,32.6954948 87.4542375,35.183234 87.4542375,35.183234 C87.4542375,35.183234 87.5607999,32.8361863 88.7177638,31.6939834 C88.7177638,31.6939834 89.0681514,32.7477805 90.3928243,32.9925383 C88.5810087,30.9427867 90.7916724,27.8644969 91.6771557,26.5406832 C92.3733638,25.4990104 92.1815514,24.7667578 91.9745157,24.4714824 L91.9745157,24.4714824 Z M74.4252002,30.1976522 C74.4252002,30.1976522 74.618535,29.7212712 74.8661658,29.0329689 L66.1437744,29.0329689 C66.3908979,29.7212712 66.5847401,30.1976522 66.5847401,30.1976522 L74.4252002,30.1976522 L74.4252002,30.1976522 Z M71.2448181,19.0511967 C71.2448181,18.6225549 70.9063554,18.2744886 70.4889858,18.2744886 C70.0718698,18.2744886 69.7334071,18.6225549 69.7334071,19.0511967 C69.7334071,19.4803437 70.0718698,19.8276522 70.4889858,19.8276522 C70.9063554,19.8276522 71.2448181,19.4803437 71.2448181,19.0511967 L71.2448181,19.0511967 Z M75.1919425,28.1542153 C75.5273605,27.1014286 75.9054036,25.5002733 75.9054036,24.7276066 C75.9054036,23.3151346 75.1234381,21.7513623 72.3746339,21.27094 C72.3746339,23.0087453 71.5464914,27.158766 70.5455654,27.158766 L70.4331673,27.158766 C69.4319876,27.158766 68.6035913,22.977677 68.6035913,21.2711925 C65.8636674,21.7523727 65.1050441,23.3156398 65.1050441,24.7276066 C65.1050441,25.5002733 65.4825797,27.1014286 65.8174903,28.1542153 L75.1919425,28.1542153 L75.1919425,28.1542153 Z M70.4889858,25.9877681 C71.0108881,25.9877681 71.4340933,23.2577971 71.4340933,21.8986211 C71.4340933,21.1560124 71.0108881,20.6690228 70.4889858,20.6690228 C69.9673371,20.6690228 69.5446394,21.1560124 69.5446394,21.8986211 C69.5446394,23.2577971 69.9673371,25.9877681 70.4889858,25.9877681 L70.4889858,25.9877681 Z M69.985605,17.2391304 L70.9931277,17.2391304 L70.8672825,15.944617 L72.1267493,16.0741946 L72.1267493,15.0385839 L70.8672825,15.1681615 L70.9931277,13.873648 L69.985605,13.873648 L70.1114502,15.1681615 L68.8517296,15.0385839 L68.8517296,16.0741946 L70.1114502,15.944617 L69.985605,17.2391304 L69.985605,17.2391304 Z M18.6887183,48.353677 C16.6521066,48.4029317 13.066026,48.8098509 11.244569,49.389793 C12.4827234,50.8808199 15.7153718,53.0215031 17.6525252,53.9308199 C16.1461886,54.5031843 13.444069,55.9560704 12.3172978,57.0045631 C13.7690845,57.9047867 16.9578394,58.9330725 18.4649371,59.2692671 C17.5875728,59.9833333 15.7808316,62.047735 15.1178609,63.1608903 C16.3659103,63.5513913 18.9320359,63.8911222 20.5614267,63.986853 C20.0390169,65.0790435 19.4440432,67.0065424 19.286483,68.2624099 C20.0940742,68.344501 22.792388,68.2045673 24.1284784,67.9039876 C24.0137968,68.9984513 24.0574367,70.9896025 24.2380855,71.8481491 C25.5561617,71.6582029 27.4382577,71.1262526 28.3140997,70.7867743 C28.5675661,71.7625217 29.4738545,73.8635487 29.792527,74.3629151 C30.8485103,74.1593292 32.1092457,73.7268986 33.0358317,73.2396563 C33.3286248,74.0216687 33.9941328,75.1916563 34.1780799,75.4871843 C37.2648392,72.3578716 41.6727195,74.8956232 41.6727195,78.2257433 C41.3560767,80.4197226 38.2670338,80.2969648 36.6409414,81.3282816 C34.5028417,82.6841739 34.8727656,85.8281366 32.671997,86.3108323 C34.7514874,87.6295942 35.35661,85.1544845 37.5165296,85.0840124 C37.2283035,86.41894 37.2557053,88.7892257 37.4721286,89.7818965 C38.3609103,89.0938468 39.6076911,88.5684638 40.4234014,88.5151677 C40.2219476,89.2938965 40.0646411,91.1160663 40.3561656,92.2511967 C40.9293194,91.815735 43.0691952,89.9496149 48.1501949,91.1494079 C48.7662275,91.294646 44.7036604,91.1345052 45.2105933,92.4487205 C45.6099488,93.4848364 45.7228542,94.2049648 45.2453529,95.6755321 C45.4607613,95.7530766 45.7106757,95.7899545 45.9798728,95.7899545 C47.11933,95.7899545 48.5964887,95.126911 49.1833434,94.0859959 C49.6367413,94.4239586 49.6367413,96.8318799 48.117465,97.4300083 C49.7402591,97.5487246 50.97613,96.2266791 51.2158955,95.4143561 C51.2158955,95.4143561 52.0092785,97.305735 52.9500728,97.9265963 C53.5407333,97.7189689 54.5931645,96.7369068 55.0001316,95.7169565 C55.4063376,96.7369068 56.4590225,97.7189689 57.0494293,97.9265963 C57.9902236,97.305735 58.7836065,95.4143561 58.7836065,95.4143561 C59.0233721,96.2266791 60.2594967,97.5487246 61.8822908,97.4300083 C60.3630145,96.8318799 60.3630145,94.4239586 60.8161587,94.0859959 C61.4032671,95.126911 62.8804258,95.7899545 64.019883,95.7899545 C64.2890801,95.7899545 64.5392482,95.7530766 64.7546566,95.6755321 C64.2771553,94.2049648 64.3900607,93.4848364 64.7894163,92.4487205 C65.2963491,91.1345052 61.233782,91.294646 61.8498146,91.1494079 C66.9297995,89.9496149 69.0706901,91.815735 69.6438439,92.2511967 C69.9353684,91.1160663 69.7780619,89.2938965 69.5766081,88.5151677 C70.3920647,88.5684638 71.6388455,89.0938468 72.5278809,89.7818965 C72.7437968,88.7892257 72.771706,86.41894 72.4829724,85.0840124 C74.6428921,85.1544845 75.2480147,87.6295942 77.3277588,86.3108323 C75.1269901,85.8281366 75.4966604,82.6841739 73.3585607,81.3282816 C71.7324682,80.2969648 68.6434254,80.4197226 68.3267826,78.2257433 C68.3267826,74.8956232 72.7346628,72.3578716 75.8216759,75.4871843 C76.0053693,75.1916563 76.6708773,74.0216687 76.9639241,73.2396563 C77.8902563,73.7268986 79.1512455,74.1593292 80.2072288,74.3629151 C80.5256476,73.8635487 81.4321897,71.7625217 81.6854024,70.7867743 C82.5614981,71.1262526 84.4435941,71.6582029 85.7616703,71.8481491 C85.9423191,70.9896025 85.985959,68.9984513 85.8712774,67.9039876 C87.2073678,68.2045673 89.9054279,68.344501 90.7130191,68.2624099 C90.5557126,67.0065424 89.9609926,65.0790435 89.4380753,63.986853 C91.0677199,63.8911222 93.6335918,63.5513913 94.8818949,63.1608903 C94.2186705,62.047735 92.4119293,59.9833333 91.5350724,59.2692671 C93.0416627,58.9330725 96.2304175,57.9047867 97.682458,57.0045631 C96.5556868,55.9560704 93.8533134,54.5031843 92.3469769,53.9308199 C94.284384,53.0215031 97.5167787,50.8808199 98.7551868,49.389793 C96.9334761,48.8098509 93.3473955,48.4029317 91.3110375,48.353677 C95.5263441,45.4693747 95.6562488,39.2130228 94.4421979,35.8131884 C93.6259802,37.8740538 90.919801,41.2602484 89.1729378,43.0857019 C89.3279608,44.8232547 88.7644483,47.9053333 87.7980283,49.7863561 C89.1815643,50.3119917 90.8216113,51.1048654 91.9833959,51.9889234 C91.2123404,52.9593665 89.5537717,54.4652961 88.5135191,55.2811553 C89.393928,56.2023437 90.8746388,57.8939255 91.5343112,58.8719462 C90.5592647,59.6024306 88.4376568,60.440265 87.3499585,60.8249565 C87.885308,61.9229565 88.6627066,63.9259793 88.8636529,65.308646 C87.6249911,65.5137474 85.9199917,65.6521656 84.1373539,65.6306957 C84.2238725,66.9545093 84.0378956,69.0045135 83.807264,70.2320911 C82.1540235,70.1004928 80.203423,69.4215362 79.3336703,68.9853168 C78.8734219,70.8150642 77.7365019,72.5902526 77.6867728,72.6847205 C72.518747,67.049735 67.9380834,72.3657019 67.9380834,77.3323395 L67.9380834,84.1001822 C67.9380834,87.3014824 66.9297995,88.7629565 64.0282558,88.7629565 L60.2734513,88.7629565 C57.9359275,88.7629565 55.9772079,89.7551222 54.9998779,91.6608986 C54.0225479,89.7551222 52.0638283,88.7629565 49.7263045,88.7629565 L45.9712463,88.7629565 C43.0697026,88.7629565 42.0614187,87.3014824 42.0614187,84.1001822 L42.0614187,77.3323395 C42.0614187,72.3657019 37.4810088,67.049735 32.312983,72.6847205 C32.2632539,72.5902526 31.1260802,70.8150642 30.6658318,68.9853168 C29.7960791,69.4215362 27.8454786,70.1004928 26.1927455,70.2320911 C25.9616065,69.0045135 25.7758833,66.9545093 25.8624019,65.6306957 C24.0797641,65.6521656 22.3747647,65.5137474 21.1358492,65.308646 C21.3370492,63.9259793 22.1144478,61.9229565 22.6497973,60.8249565 C21.5623527,60.440265 19.4404911,59.6024306 18.4654446,58.8719462 C19.1248632,57.8939255 20.6058278,56.2023437 21.4862367,55.2811553 C20.4457303,54.4652961 18.7871617,52.9593665 18.0163599,51.9889234 C19.1778907,51.1048654 20.8181915,50.3119917 22.2017275,49.7863561 C21.2353075,47.9053333 20.6715413,44.8232547 20.8265643,43.0857019 C19.079701,41.2602484 16.3735219,37.8740538 15.5573042,35.8131884 C14.3432532,39.2130228 14.4734117,45.4693747 18.6887183,48.353677 L18.6887183,48.353677 Z M7.05641046,80.6680166 L6.67633767,81.0736729 C6.67633767,81.0736729 7.46464619,82.1042319 8.10097633,81.7122153 C8.46328871,81.0431097 7.43825929,80.2641284 7.43825929,80.2641284 L7.05641046,80.6680166 L7.05641046,80.6680166 Z" id="Symbol,-Version-7.1" fill="#000000" sketch:type="MSShapeGroup"></path>
    </g>
</svg>