<?xml version="1.0" encoding="utf-8"?>
<!-- Generator: Adobe Illustrator 16.0.0, SVG Export Plug-In . SVG Version: 6.00 Build 0)  -->
<!DOCTYPE svg PUBLIC "-//W3C//DTD SVG 1.1//EN" "http://www.w3.org/Graphics/SVG/1.1/DTD/svg11.dtd">
<svg version="1.1" id="Layer_1" xmlns="http://www.w3.org/2000/svg" xmlns:xlink="http://www.w3.org/1999/xlink" x="0px" y="0px"
	 width="964.396px" height="339.691px" viewBox="0 0 964.396 339.691" enable-background="new 0 0 964.396 339.691"
	 xml:space="preserve">
<g>
	<g>
		
			<linearGradient id="SVGID_1_" gradientUnits="userSpaceOnUse" x1="274.187" y1="-187.7585" x2="562.2777" y2="-185.6085" gradientTransform="matrix(1 0 0 -1 -270 -19.3081)">
			<stop  offset="0" style="stop-color:#EE5B33"/>
			<stop  offset="0.8631" style="stop-color:#F49231"/>
		</linearGradient>
		<path fill="url(#SVGID_1_)" d="M270.81,215.066c15.644-10.032,25.659-16.714,25.659-16.714
			c-4.616-19.775-18.974-49.917-35.463-80.423l-36.65,30.474L270.81,215.066z"/>
		
			<linearGradient id="SVGID_2_" gradientUnits="userSpaceOnUse" x1="273.5547" y1="-120.5354" x2="561.6111" y2="-118.3858" gradientTransform="matrix(1 0 0 -1 -270 -19.3081)">
			<stop  offset="0" style="stop-color:#EE5B33"/>
			<stop  offset="0.8631" style="stop-color:#F49231"/>
		</linearGradient>
		<path fill="url(#SVGID_2_)" d="M87.304,63.694C43.656,90.262,3.667,116.313,3.667,116.313c3.442,7.242,7,14.504,10.618,21.742
			l133.388-25.803L87.304,63.694z"/>
		
			<linearGradient id="SVGID_3_" gradientUnits="userSpaceOnUse" x1="274.4243" y1="-219.0535" x2="562.5107" y2="-216.9036" gradientTransform="matrix(1 0 0 -1 -270 -19.3081)">
			<stop  offset="0" style="stop-color:#EE5B33"/>
			<stop  offset="0.8631" style="stop-color:#F49231"/>
		</linearGradient>
		<polygon fill="url(#SVGID_3_)" points="140.776,273.188 209.489,149.505 164.555,124.09 		"/>
		
			<linearGradient id="SVGID_4_" gradientUnits="userSpaceOnUse" x1="274.2598" y1="-197.262" x2="562.3491" y2="-195.1121" gradientTransform="matrix(1 0 0 -1 -270 -19.3081)">
			<stop  offset="0" style="stop-color:#EE5B33"/>
			<stop  offset="0.8631" style="stop-color:#F49231"/>
		</linearGradient>
		<path fill="url(#SVGID_4_)" d="M147.728,123.453L19.441,148.268c15.039,29.48,30.925,58.146,45.049,82.666L147.728,123.453z"/>
		
			<linearGradient id="SVGID_5_" gradientUnits="userSpaceOnUse" x1="273.3398" y1="-74.4583" x2="561.4332" y2="-72.3084" gradientTransform="matrix(1 0 0 -1 -270 -19.3081)">
			<stop  offset="0" style="stop-color:#EE5B33"/>
			<stop  offset="0.8631" style="stop-color:#F49231"/>
		</linearGradient>
		<path fill="url(#SVGID_5_)" d="M211.435,73.481l21.831-4.31c-7.932-13.366-15.384-25.533-21.563-35.46l-18.831,25.991
			L211.435,73.481z"/>
		
			<linearGradient id="SVGID_6_" gradientUnits="userSpaceOnUse" x1="273.5674" y1="-104.5642" x2="561.6563" y2="-102.4143" gradientTransform="matrix(1 0 0 -1 -270 -19.3081)">
			<stop  offset="0" style="stop-color:#EE5B33"/>
			<stop  offset="0.8631" style="stop-color:#F49231"/>
		</linearGradient>
		<polygon fill="url(#SVGID_6_)" points="187.426,69.365 174.308,98.501 200.807,79.298 		"/>
		
			<linearGradient id="SVGID_7_" gradientUnits="userSpaceOnUse" x1="273.1646" y1="-49.0457" x2="561.2368" y2="-46.8958" gradientTransform="matrix(1 0 0 -1 -270 -19.3081)">
			<stop  offset="0" style="stop-color:#EE5B33"/>
			<stop  offset="0.8631" style="stop-color:#F49231"/>
		</linearGradient>
		<path fill="url(#SVGID_7_)" d="M205.401,23.65c-6.182-9.8-10.047-15.733-10.047-15.733c-3.238-0.436-10.048,1.853-19.237,6.021
			l11.055,34.874L205.401,23.65z"/>
		
			<linearGradient id="SVGID_8_" gradientUnits="userSpaceOnUse" x1="273.7432" y1="-127.343" x2="561.825" y2="-125.1931" gradientTransform="matrix(1 0 0 -1 -270 -19.3081)">
			<stop  offset="0" style="stop-color:#EE5B33"/>
			<stop  offset="0.8631" style="stop-color:#F49231"/>
		</linearGradient>
		<path fill="url(#SVGID_8_)" d="M225.136,133.44l30.489-25.35c-5.432-9.814-10.989-19.536-16.443-28.869l-22.725,4.486
			L225.136,133.44z"/>
		
			<linearGradient id="SVGID_9_" gradientUnits="userSpaceOnUse" x1="273.1953" y1="-54.8772" x2="561.2874" y2="-52.7273" gradientTransform="matrix(1 0 0 -1 -270 -19.3081)">
			<stop  offset="0" style="stop-color:#EE5B33"/>
			<stop  offset="0.8631" style="stop-color:#F49231"/>
		</linearGradient>
		<path fill="url(#SVGID_9_)" d="M166.096,18.744c-7.423,3.719-15.804,8.213-24.76,13.213l34.633,17.932L166.096,18.744z"/>
		
			<linearGradient id="SVGID_10_" gradientUnits="userSpaceOnUse" x1="273.4805" y1="-93.0339" x2="561.5696" y2="-90.884" gradientTransform="matrix(1 0 0 -1 -270 -19.3081)">
			<stop  offset="0" style="stop-color:#EE5B33"/>
			<stop  offset="0.8631" style="stop-color:#F49231"/>
		</linearGradient>
		<path fill="url(#SVGID_10_)" d="M178.079,63.375l-48.176-24.943c-10.539,6.044-21.586,12.577-32.581,19.198l61.277,49.288
			L178.079,63.375z"/>
		
			<linearGradient id="SVGID_11_" gradientUnits="userSpaceOnUse" x1="274.6064" y1="-243.8601" x2="562.6968" y2="-241.7102" gradientTransform="matrix(1 0 0 -1 -270 -19.3081)">
			<stop  offset="0" style="stop-color:#EE5B33"/>
			<stop  offset="0.8631" style="stop-color:#F49231"/>
		</linearGradient>
		<path fill="url(#SVGID_11_)" d="M144.756,288.684c6.927-3.406,14.168-7.143,21.625-11.159
			c32.843-17.688,69.22-40.078,95.143-56.533l-44.045-63.206L144.756,288.684z"/>
		
			<linearGradient id="SVGID_12_" gradientUnits="userSpaceOnUse" x1="273.7974" y1="-135.366" x2="561.8857" y2="-133.2161" gradientTransform="matrix(1 0 0 -1 -270 -19.3081)">
			<stop  offset="0" style="stop-color:#EE5B33"/>
			<stop  offset="0.8631" style="stop-color:#F49231"/>
		</linearGradient>
		<polygon fill="url(#SVGID_12_)" points="206.205,88.977 170.48,114.87 215.119,140.051 		"/>
		
			<linearGradient id="SVGID_13_" gradientUnits="userSpaceOnUse" x1="274.5835" y1="-240.4993" x2="562.6708" y2="-238.3494" gradientTransform="matrix(1 0 0 -1 -270 -19.3081)">
			<stop  offset="0" style="stop-color:#EE5B33"/>
			<stop  offset="0.8631" style="stop-color:#F49231"/>
		</linearGradient>
		<path fill="url(#SVGID_13_)" d="M70.45,241.211c21.683,37.195,37.896,62.616,37.896,62.616c5.105-1.483,11-3.688,17.417-6.398
			L151.4,136.685L70.45,241.211z"/>
	</g>
	<g>
		<path fill="#808184" d="M366.308,6.672c0-1.909,1.563-3.47,3.472-3.47c1.908,0,3.47,1.562,3.47,3.47v69.929h20.649l37.653-37.654
			c0.695-0.692,1.563-1.04,2.43-1.04s1.908,0.348,2.604,1.04c0.693,0.694,1.041,1.563,1.041,2.43c0,0.868-0.347,1.734-1.041,2.43
			l-36.44,36.439l39.736,44.595c0.694,0.694,1.042,1.562,1.042,2.43c0,0.867-0.521,1.735-1.215,2.43
			c-0.693,0.693-1.563,0.867-2.429,0.867c-1.041,0-1.909-0.347-2.604-1.214l-40.604-45.81h-20.823v43.554
			c0,1.908-1.563,3.47-3.47,3.47c-1.909,0-3.472-1.562-3.472-3.47V6.672L366.308,6.672z"/>
		<path fill="#808184" d="M484.47,119.115l-27.937-76.696c-0.173-0.348-0.173-0.693-0.173-1.041c0-0.867,0.347-1.735,1.042-2.429
			c0.693-0.693,1.561-1.041,2.429-1.041c0.867,0,1.735,0.348,2.429,1.041c0.521,0.521,0.694,0.867,0.867,1.388l27.938,76.521
			c0.867,2.257,3.817,3.818,7.114,3.818s6.246-1.562,7.113-3.818l27.938-76.521c0.174-0.521,0.347-0.867,0.866-1.388
			c0.695-0.693,1.563-1.041,2.431-1.041s1.734,0.348,2.429,1.041c0.695,0.693,1.042,1.562,1.042,2.429c0,0.348,0,0.693-0.174,1.041
			l-42.34,115.912c-0.174,0.521-0.348,0.867-0.868,1.388c-0.693,0.694-1.562,1.041-2.429,1.041s-1.736-0.347-2.431-1.041
			c-0.693-0.694-1.04-1.562-1.04-2.429c0-0.349,0-0.694,0.173-1.041l10.585-28.979c-1.042,0.348-2.256,0.348-3.297,0.348
			C491.931,127.616,486.206,123.973,484.47,119.115z"/>
		<path fill="#808184" d="M585.974,122.064l-27.937-79.646c-0.174-0.348-0.174-0.693-0.174-1.041c0-0.867,0.347-1.735,1.04-2.429
			c0.694-0.693,1.563-1.041,2.431-1.041c0.867,0,1.734,0.348,2.43,1.041c0.521,0.521,0.693,0.867,0.867,1.388l27.938,79.473
			c0.866,2.256,3.816,3.817,7.113,3.817s6.247-1.562,7.114-3.817l27.938-79.473c0.173-0.521,0.347-0.867,0.866-1.388
			c0.693-0.693,1.563-1.041,2.43-1.041s1.734,0.348,2.43,1.041c0.693,0.693,1.042,1.562,1.042,2.429c0,0.348,0,0.693-0.174,1.041
			l-27.938,79.646c-1.734,4.858-7.461,8.502-13.708,8.502S587.708,126.922,585.974,122.064z"/>
		<path fill="#808184" d="M692.684,130.566c-18.912,0-33.314-12.146-33.314-30.365V69.834c0-18.046,14.056-31.928,33.314-31.928
			h12.842c19.262,0,33.488,13.882,33.488,31.928V100.2c0,18.22-14.574,30.365-33.488,30.365H692.684z M705.525,123.625
			c14.923,0,26.549-9.37,26.549-23.425V69.834c0-14.056-11.278-24.987-26.549-24.987h-12.842c-15.269,0-26.374,10.932-26.374,24.987
			V100.2c0,14.055,11.452,23.425,26.374,23.425H705.525z"/>
		<path fill="#808184" d="M764.445,130.566c-1.908,0-3.471-1.562-3.471-3.47c0-1.909,1.563-3.471,3.471-3.471h29.324
			c17.006,0,25.854-6.419,25.854-21.343c0-11.974-7.808-14.402-25.854-17.525c-17.524-2.95-32.274-5.032-32.274-23.946
			c0-16.831,12.841-22.904,32.103-22.904h25.16c1.909,0,3.47,1.562,3.47,3.47c0,1.909-1.561,3.47-3.47,3.47h-25.16
			c-15.097,0-25.16,4.165-25.16,15.964c0,12.84,12.146,14.749,26.549,17.178c22.037,3.818,31.58,6.941,31.58,24.294
			c0,19.781-11.279,28.283-32.795,28.283L764.445,130.566L764.445,130.566z"/>
		<path fill="#A6A8AB" d="M365.268,188.558c0-1.909,1.562-3.472,3.471-3.472s3.471,1.563,3.471,3.472v8.154
			c0,1.909-1.562,3.471-3.471,3.471s-3.471-1.562-3.471-3.471V188.558z M365.268,220.312c0-1.909,1.562-3.472,3.471-3.472
			s3.471,1.563,3.471,3.472v85.721c0,1.906-1.562,3.469-3.471,3.469s-3.471-1.563-3.471-3.469V220.312z"/>
		<path fill="#A6A8AB" d="M469.723,245.472c0-13.882-11.277-21.689-24.466-21.689h-13.188c-13.188,0-24.467,7.809-24.467,21.689
			v60.561c0,1.906-1.562,3.469-3.471,3.469s-3.47-1.563-3.47-3.469v-60.561c0-18.22,14.575-28.632,31.407-28.632h13.188
			c16.831,0,31.407,10.412,31.407,28.632v60.561c0,1.906-1.563,3.469-3.471,3.469c-1.907,0-3.471-1.563-3.471-3.469V245.472z"/>
		<path fill="#A6A8AB" d="M505.808,309.5c-1.906,0-3.47-1.563-3.47-3.469c0-1.909,1.563-3.473,3.47-3.473h29.326
			c17.004,0,25.854-6.42,25.854-21.344c0-11.972-7.809-14.401-25.854-17.525c-17.524-2.948-32.274-5.03-32.274-23.943
			c0-16.832,12.841-22.906,32.102-22.906h25.16c1.909,0,3.47,1.563,3.47,3.472c0,1.908-1.561,3.471-3.47,3.471h-25.16
			c-15.097,0-25.161,4.163-25.161,15.965c0,12.839,12.147,14.748,26.549,17.177c22.037,3.818,31.58,6.942,31.58,24.293
			c0,19.782-11.277,28.284-32.794,28.284L505.808,309.5L505.808,309.5z"/>
		<path fill="#A6A8AB" d="M593.084,188.558c0-1.909,1.561-3.472,3.47-3.472s3.472,1.563,3.472,3.472v8.154
			c0,1.909-1.563,3.471-3.472,3.471s-3.47-1.562-3.47-3.471V188.558z M593.084,220.312c0-1.909,1.561-3.472,3.47-3.472
			s3.472,1.563,3.472,3.472v85.721c0,1.906-1.563,3.469-3.472,3.469s-3.47-1.563-3.47-3.469V220.312z"/>
		<path fill="#A6A8AB" d="M702.918,298.742c0,27.591-7.98,40.949-36.785,40.949h-3.125c-18.219,0-28.108-5.552-32.969-16.483
			c-0.174-0.521-0.347-0.867-0.347-1.388c0-2.083,1.562-3.645,3.645-3.645c1.39,0,2.604,0.693,3.123,1.909
			c3.991,8.676,11.974,12.666,26.548,12.666h3.125c23.424,0,29.846-10.237,29.846-35.919c-5.727,6.247-14.575,9.718-24.293,9.718
			h-13.188c-16.831,0-31.233-10.411-31.233-28.631v-28.457c0-12.494,8.329-32.449,31.58-32.449h12.494
			c23.252,0,31.58,19.955,31.58,32.449V298.742L702.918,298.742z M671.685,299.61c13.015,0,24.294-7.809,24.294-21.689v-28.457
			c0-9.892-6.422-25.507-24.641-25.507h-12.494c-18.22,0-24.64,15.615-24.64,25.507v28.457c0,13.882,11.278,21.689,24.293,21.689
			H671.685z"/>
		<path fill="#A6A8AB" d="M801.819,245.645c0-13.881-11.278-21.688-24.293-21.688h-13.188c-13.014,0-24.293,7.808-24.293,21.688
			v60.388c0,1.906-1.562,3.469-3.47,3.469s-3.471-1.563-3.471-3.469V185.606c0-1.909,1.563-3.47,3.471-3.47s3.47,1.561,3.47,3.47
			v41.125c5.728-6.247,14.576-9.718,24.293-9.718h13.188c16.832,0,31.233,10.411,31.233,28.631v60.388
			c0,1.906-1.563,3.469-3.47,3.469c-1.909,0-3.472-1.563-3.472-3.469L801.819,245.645L801.819,245.645z"/>
		<path fill="#A6A8AB" d="M849.532,284.688c0,10.238,8.155,17.872,19.954,17.872h9.544c1.907,0,3.471,1.563,3.471,3.473
			c0,1.906-1.563,3.469-3.471,3.469h-9.544c-15.79,0-26.896-10.585-26.896-24.813v-57.956H829.23c-1.909,0-3.471-1.562-3.471-3.471
			s1.562-3.47,3.471-3.47h13.359v-34.186c0-1.909,1.563-3.47,3.472-3.47s3.471,1.561,3.471,3.47v34.186h29.498
			c1.907,0,3.471,1.561,3.471,3.47s-1.563,3.471-3.471,3.471h-29.498V284.688L849.532,284.688z"/>
		<path fill="#A6A8AB" d="M902.277,309.5c-1.908,0-3.471-1.563-3.471-3.469c0-1.909,1.563-3.473,3.471-3.473h29.325
			c17.005,0,25.854-6.42,25.854-21.344c0-11.972-7.808-14.401-25.854-17.525c-17.525-2.948-32.274-5.03-32.274-23.943
			c0-16.832,12.841-22.906,32.102-22.906h25.16c1.909,0,3.47,1.563,3.47,3.472c0,1.908-1.561,3.471-3.47,3.471h-25.16
			c-15.097,0-25.161,4.163-25.161,15.965c0,12.839,12.146,14.748,26.55,17.177c22.036,3.818,31.58,6.942,31.58,24.293
			c0,19.782-11.278,28.284-32.795,28.284L902.277,309.5L902.277,309.5z"/>
	</g>
</g>
</svg>
