<?xml version="1.0" encoding="UTF-8" standalone="no"?>
<!-- Created with Inkscape (http://www.inkscape.org/) -->
<svg
   xmlns:svg="http://www.w3.org/2000/svg"
   xmlns="http://www.w3.org/2000/svg"
   version="1.0"
   width="460"
   height="200.8"
   id="svg2233">
  <defs
     id="defs2236" />
  <g
     transform="matrix(1.8,0,0,1.8,5,4.9999999)"
     id="g3234">
    <path
       d="M 250.34341 52.94368 A 125 53.05632 0 1 1  0.34340668,52.94368 A 125 53.05632 0 1 1  250.34341 52.94368 z"
       transform="matrix(1,0,0,0.9989385,-0.3434067,0.1125208)"
       style="opacity:1;fill:#294785;fill-opacity:1"
       id="path2242" />
    <path
       d="M 144.75,17.0625 C 132.55907,16.54739 110.5625,24.452562 110.5625,50.834043 C 110.5625,77.215523 132.59018,83.5 144.75,83.5 C 155.0522,83.5 162.09375,77.84375 162.09375,77.84375 L 162.09375,68.21875 C 162.09375,68.218752 153.67857,75.26614 144.75,75.26614 C 135.82143,75.26614 120.53125,69.377999 120.53125,50.834043 C 120.53125,32.290085 134.80939,25.125 144.75,25.125 C 154.69061,25.125 162.09375,31.811813 162.09375,31.125 L 162.09375,21.53125 C 162.09375,21.53125 156.94938,17.577967 144.75,17.0625 z M 82.75,25.3125 L 60.4375,72.6875 L 44.65625,72.6875 L 44.65625,28.03125 L 37.4375,28.03125 L 37.4375,78.53125 L 65.59375,78.53125 L 71.09375,66.5 L 94.4375,66.5 L 100.625,78.53125 L 107.84375,78.53125 L 82.75,25.3125 z M 169.65625,28.03125 L 169.65625,78.53125 L 176.84375,78.53125 L 176.84375,28.03125 L 169.65625,28.03125 z M 184.40625,28.03125 L 184.40625,78.53125 L 212.5625,78.53125 L 212.5625,72 L 191.625,72 L 191.625,54.236687 L 212.5625,54.236687 L 212.5625,47.7669 L 191.625,47.7669 L 191.625,34.21875 L 212.90625,34.21875 L 212.90625,28.03125 L 184.40625,28.03125 z M 82.75,40.0625 L 91.6875,59.96875 L 73.15625,59.96875 L 82.75,40.0625 z "
       style="fill:#ffffff;fill-rule:evenodd;stroke:none;stroke-width:1px;stroke-linecap:butt;stroke-linejoin:miter;stroke-opacity:1"
       id="path2244" />
  </g>
</svg>
