<svg id="Warstwa_1" data-name="Warstwa 1" xmlns="http://www.w3.org/2000/svg" viewBox="0 0 257.01 47.24"><defs><style>.cls-1{fill:#3c3c3b;}.cls-2{fill:#009fe3;}.cls-3{fill:#e50051;}</style></defs><title>logo_po</title><path class="cls-1" d="M162.9,28.35h-4.54a0.57,0.57,0,0,0-.57.57V48.59L144,28.91a1.37,1.37,0,0,0-1-.57h-4.54a0.57,0.57,0,0,0-.57.57V56.13a0.57,0.57,0,0,0,.57.57h4.54a0.57,0.57,0,0,0,.57-0.57V36.45L157.4,56.13a1.37,1.37,0,0,0,1,.57h4.54a0.57,0.57,0,0,0,.57-0.57V28.91A0.57,0.57,0,0,0,162.9,28.35Z" transform="translate(-28.35 -18.9)"/><path class="cls-1" d="M124,28.91a0.89,0.89,0,0,0-.77-0.57h-4.58a0.89,0.89,0,0,0-.77.57l-9.66,27.21a0.39,0.39,0,0,0,.37.57h4.54a0.89,0.89,0,0,0,.77-0.57l7.05-19.86L128,56.13a0.89,0.89,0,0,0,.77.57h4.54a0.39,0.39,0,0,0,.37-0.57Z" transform="translate(-28.35 -18.9)"/><rect class="cls-1" x="174.8" y="9.45" width="5.67" height="28.35" rx="0.57" ry="0.57"/><rect class="cls-1" x="251.34" y="9.45" width="5.67" height="28.35" rx="0.57" ry="0.57"/><path class="cls-1" d="M239.43,28.35H234.9a0.57,0.57,0,0,0-.57.57V48.59L220.55,28.91a1.37,1.37,0,0,0-1-.57h-4.54a0.57,0.57,0,0,0-.57.57V56.13a0.57,0.57,0,0,0,.57.57h4.54a0.57,0.57,0,0,0,.57-0.57V36.45l13.78,19.68a1.37,1.37,0,0,0,1,.57h4.54a0.57,0.57,0,0,0,.57-0.57V28.91A0.57,0.57,0,0,0,239.43,28.35Z" transform="translate(-28.35 -18.9)"/><path class="cls-1" d="M103.37,51h-0.85c-4,0-7.09-4.22-7.09-8.43V28.91a0.57,0.57,0,0,0-.57-0.57H90.33a0.57,0.57,0,0,0-.57.57v7.74h0v6h0c0,7.31,5.55,14,12.75,14h0.85a0.57,0.57,0,0,0,.57-0.57V51.59A0.57,0.57,0,0,0,103.37,51Z" transform="translate(-28.35 -18.9)"/><path class="cls-1" d="M169.7,34h13.68c4.21,0,8.43,3,8.43,7.09h5.67c0-7.2-6.71-12.71-14-12.75H169.7a0.57,0.57,0,0,0-.57.57v4.54A0.57,0.57,0,0,0,169.7,34Z" transform="translate(-28.35 -18.9)"/><path class="cls-1" d="M191.81,43.94h0c0,4-4.22,7.09-8.43,7.09H169.7a0.57,0.57,0,0,0-.57.57v4.54a0.57,0.57,0,0,0,.57.57h13.76c7.31,0,14-5.55,14-12.75h-5.67Z" transform="translate(-28.35 -18.9)"/><path class="cls-1" d="M259.77,34h13.68a0.57,0.57,0,0,0,.57-0.57V28.91a0.57,0.57,0,0,0-.57-0.57H259.69c-7.31,0-14,5.55-14,12.75v2.83c0,7.2,6.71,12.71,14,12.75h13.76a0.57,0.57,0,0,0,.57-0.57V44.5a0.57,0.57,0,0,0-.57-0.57h-4.54a0.57,0.57,0,0,0-.57.57V51h-8.57c-4.21,0-8.43-3-8.43-7.09V41.1C251.34,37.06,255.56,34,259.77,34Z" transform="translate(-28.35 -18.9)"/><path class="cls-2" d="M29.29,28.35H52.08c7,0,14.05,5.07,14.05,11.81h9.45c0-12-11.18-21.19-23.37-21.25H29.29a1,1,0,0,0-.94.94V27.4A1,1,0,0,0,29.29,28.35Z" transform="translate(-28.35 -18.9)"/><path class="cls-3" d="M66.14,44.88h0c0,6.74-7,11.81-14.05,11.81H29.29a1,1,0,0,0-.94.94v7.56a1,1,0,0,0,.94.94H52.22c12.19-.07,23.37-9.25,23.37-21.25H66.14Z" transform="translate(-28.35 -18.9)"/></svg>