<?xml version="1.0" encoding="iso-8859-1"?><!-- Generator: Adobe Illustrator 16.0.0, SVG Export Plug-In . SVG Version: 6.00 Build 0) --><!DOCTYPE svg PUBLIC "-//W3C//DTD SVG 1.1//EN" "http://www.w3.org/Graphics/SVG/1.1/DTD/svg11.dtd"><svg version="1.1" id="Layer_1" xmlns="http://www.w3.org/2000/svg" xmlns:xlink="http://www.w3.org/1999/xlink" x="0px" y="0px" width="192.756px" height="192.756px" viewBox="0 0 192.756 192.756" style="enable-background:new 0 0 192.756 192.756;" xml:space="preserve"><g><polygon style="fill-rule:evenodd;clip-rule:evenodd;fill:#F2D696;" points="0,0 192.756,0 192.756,192.756 0,192.756 0,0	"/><path style="fill-rule:evenodd;clip-rule:evenodd;fill:#2C3536;" d="M165.07,116.744l-5.445-3.229v-4.363l17.898-16.189	l-13.861-14.937l-15.746,14.227c0,0,1.707,1.561,1.707,2.023v20.008c0,0.867-1.939,2.66-1.939,2.66l15.959,9.311l12.26-11.221	C171.221,118.225,167.416,117.713,165.07,116.744L165.07,116.744z M167.168,96.139l-7.543,6.824v-14.96L167.168,96.139	L167.168,96.139z"/><path style="fill-rule:evenodd;clip-rule:evenodd;fill:#2C3536;" d="M117.203,82.98l-4.531,4.077l0.004-20.229	c0.531,0.283,7.799,4.073,11.531,0.674l7.691-6.88c-9.83,3.816-17.533-4.502-17.533-4.502l-13.398,12.168c0,0,1.648,1.51,1.699,2	v25.776l-4.248,3.822l1.785,2.102l2.463-2.219v25.211c0,10.795-9.761,17.117-9.761,17.117s19.89-4.164,19.767-24.209l0.027-26.33	c0,0,4.164,3.817,7.865,0.521l6.07-5.436C119.986,87.742,117.203,82.98,117.203,82.98L117.203,82.98z"/><path style="fill-rule:evenodd;clip-rule:evenodd;fill:#2C3536;" d="M141.605,82.98l-4.529,4.077l0.002-20.229	c0.529,0.283,7.799,4.073,11.533,0.674l7.686-6.88c-9.828,3.816-17.531-4.502-17.531-4.502l-13.396,12.168c0,0,1.648,1.51,1.701,2	v25.776l-4.252,3.822l1.785,2.102l2.467-2.219v25.211c0,10.795-9.764,17.117-9.764,17.117s19.893-4.164,19.766-24.209l0.029-26.33	c0,0,4.166,3.817,7.863,0.521l6.072-5.436C144.389,87.742,141.605,82.98,141.605,82.98L141.605,82.98z"/><path style="fill-rule:evenodd;clip-rule:evenodd;fill:#2C3536;" d="M88.509,116.744l-5.443-3.229v-4.363l17.901-16.189	L87.102,78.026L71.355,92.253c0,0,1.706,1.561,1.706,2.023c0,0-0.032,11.19-0.048,11.2c-10.183,6.072-15.527,3.404-22.177,1.07	c0.83-0.682,6.567-5.455,8.067-8.242c7.063-13.118-17.655-23.207-10.019-34.792c0,0,10.867,3.335,14.26,10.738l-4.775,7.471	l3.209,1.926L72.93,66.344C66.488,54.872,50.72,50.695,50.58,50.658c-0.078,0.128-11.212,17.001-11.215,17.005	c-3.186,4.673-2.13,13.886,2.306,20.118l0.991,1.377c3.694,5.106,6.619,9.26,4.139,16.284l-0.734-0.191	c2.251-6.426-0.813-10.417-4.397-15.374l-0.997-1.386c-4.785-6.722-5.826-16.376-2.325-21.509l7.792-11.856	c-15.441,9.036-18.447,18.042-16.995,26.001c-7.817,2.583-6.944,10.454-6.944,10.454s4.068-5.014,9.073-3.95	c0.25,0.548,0.513,1.09,0.785,1.623c-7.006,2.86-5.782,10.707-5.782,10.707s3.08-4.316,9.394-4.519	c2.332,3.708,4.329,6.779,4.194,8.988c-2.345,0.004-4.958,0.301-7.942,1.049c-4.266,1.066-7.032,3.217-8.94,5.936l-11.642,16.5	c0,0,15.266-19.043,45.104-2.799c0,0,16.612-17.637,16.618-17.641v6.812c0,0.867-1.938,2.66-1.938,2.66l15.958,9.311l12.26-11.221	C94.662,118.225,90.856,117.713,88.509,116.744L88.509,116.744z M83.066,88.002l7.543,8.136l-7.543,6.824V88.002L83.066,88.002z"/><path style="fill-rule:evenodd;clip-rule:evenodd;fill:#2C3536;" d="M178.16,124.654h-0.504v-3.064h1.164	c0.738,0,1.117,0.26,1.117,0.881c0,0.555-0.34,0.785-0.801,0.838l0.859,1.346h-0.57l-0.791-1.309h-0.475V124.654L178.16,124.654z M178.723,122.916c0.377,0,0.711-0.039,0.711-0.482c0-0.371-0.363-0.412-0.666-0.412h-0.607v0.895H178.723L178.723,122.916z M178.709,125.838c-1.594,0-2.725-1.189-2.725-2.768c0-1.666,1.258-2.768,2.725-2.768c1.449,0,2.709,1.102,2.709,2.768	S180.158,125.838,178.709,125.838L178.709,125.838z M178.709,120.785c-1.199,0-2.133,0.939-2.133,2.285	c0,1.258,0.814,2.287,2.133,2.287c1.184,0,2.117-0.934,2.117-2.287C180.826,121.725,179.893,120.785,178.709,120.785	L178.709,120.785z"/></g></svg>