<?xml version="1.0" encoding="utf-8"?>
<!-- Generator: Adobe Illustrator 18.1.1, SVG Export Plug-In . SVG Version: 6.00 Build 0)  -->
<svg version="1.1" id="Layer_1" xmlns="http://www.w3.org/2000/svg" xmlns:xlink="http://www.w3.org/1999/xlink" x="0px" y="0px"
	 viewBox="-68 211.5 1866.6 512" enable-background="new -68 211.5 1866.6 512" xml:space="preserve">
<g>
	<g>
		<path fill="#A2C056" d="M1333.5,496l-2-3.6l-1.1-2v0l0,0l79.9-135.5l2.6-4.4l0.9-1.5h-5.5h-44.7v0l-2.9,4.8l0,0l1.1-1.9l-1.1,1.9
			l-48.4,80.2l-22.7,37.6c-1.2,2.1-2.3,3.9-3.2,5.6c-0.1,0.2-0.2,0.4-0.3,0.6c-0.3,0.6-0.7,1.2-0.9,1.7c-0.1,0.3-0.2,0.5-0.4,0.7
			c-0.2,0.4-0.4,0.7-0.5,1.1c-0.1,0.1-0.1,0.2-0.2,0.3c-0.1,0.3-0.2,0.5-0.3,0.8c-0.2,0.4-0.4,0.8-0.5,1.2c-0.1,0.2-0.2,0.5-0.3,0.7
			c-0.1,0.4-0.3,0.7-0.4,1.1c-0.1,0.2-0.1,0.5-0.2,0.7c-0.1,0.3-0.2,0.7-0.2,1c0,0.2-0.1,0.4-0.1,0.7c-0.1,0.3-0.1,0.7-0.1,1
			c0,0.2,0,0.4,0,0.6c0,0.3,0,0.7,0,1c0,0.2,0,0.4,0,0.5c0.1,0.4,0.1,0.7,0.2,1.1c0,0.1,0,0.3,0.1,0.4c0.1,0.5,0.2,0.9,0.4,1.4
			c0,0.1,0,0.1,0.1,0.2c0.7,2.2,1.9,4.6,3.5,7.5c0.1,0.1,0.2,0.3,0.3,0.5c0.5,0.8,1,1.7,1.5,2.6l83.9,146.4h48.2h0.4L1333.5,496z"/>
		<polygon fill="#A2C056" points="1232.6,219.8 1232.6,222.4 1232.6,225.7 1232.6,413.7 1232.6,651.1 1235.6,651.1 1276.8,651.1 
			1276.8,225.7 1276.8,221.3 1276.8,219.8 		"/>
	</g>
	<path fill="#A2C056" d="M1790.4,351.4c-3.1-1.3-6.2-2.5-9.5-3.5c-0.9-0.3-1.8-0.5-2.8-0.8c0,0-0.1,0-0.2,0
		c-0.8-0.2-1.6-0.4-2.4-0.6c-0.1,0-0.2,0-0.3-0.1c-0.7-0.2-1.5-0.3-2.2-0.5c-0.1,0-0.1,0-0.2,0c-5.1-1-10.7-1.7-17.1-1.9
		c-0.7,0-1.3,0-2,0l0,0l0,0c-0.1,0-0.1,0-0.1,0c-1.6,0-3.1,0.1-4.7,0.1c-0.4,0-0.9,0.1-1.3,0.1c-1.1,0.1-2.2,0.1-3.2,0.3
		c-0.6,0-1.1,0.1-1.7,0.2c-0.9,0.1-1.9,0.2-2.8,0.4c-0.6,0.1-1.1,0.2-1.7,0.3c-0.9,0.2-1.9,0.3-2.8,0.5c-0.4,0.1-0.7,0.1-1.1,0.2
		c-0.1,0-0.3,0.1-0.5,0.1c-1.1,0.2-2.1,0.5-3.1,0.7c-0.4,0.1-0.7,0.2-1.1,0.3c-1.4,0.4-2.7,0.8-4.1,1.2c-0.1,0-0.1,0-0.2,0.1
		c-0.1,0-0.3,0.1-0.4,0.1c-1.9,0.6-3.8,1.3-5.6,2c-0.2,0.1-0.4,0.2-0.6,0.2c-1.8,0.8-3.6,1.6-5.4,2.5c-0.2,0.1-0.4,0.2-0.6,0.3
		c-0.1,0.1-0.3,0.2-0.5,0.3c-1.2,0.7-2.5,1.3-3.7,2c0,0,0,0-0.1,0c-0.2,0.1-0.3,0.2-0.5,0.3c-1.2,0.7-2.3,1.4-3.5,2.2
		c-0.3,0.2-0.6,0.4-0.8,0.6c-0.1,0.1-0.3,0.2-0.4,0.3c-0.9,0.6-1.7,1.2-2.5,1.8c-0.2,0.1-0.4,0.3-0.6,0.4c-0.2,0.1-0.4,0.3-0.6,0.4
		c-1.1,0.8-2.1,1.6-3.2,2.5c0,0,0,0,0,0c-0.2,0.1-0.4,0.3-0.5,0.4c0,0,0,0,0,0c-1,0.9-2,1.7-3,2.6c-0.4,0.3-0.7,0.7-1.1,1.1
		c-0.7,0.7-1.4,1.4-2.2,2.1c-0.2,0.2-0.3,0.3-0.5,0.5c-0.2,0.2-0.4,0.4-0.5,0.6c-0.3,0.3-0.6,0.7-0.9,1c-0.6,0.7-1.2,1.3-1.8,2h0
		c-0.2,0.2-0.3,0.4-0.5,0.5c0,0,0,0,0,0c-0.8,1-1.7,2-2.5,3.1c-0.3,0.4-0.6,0.8-0.9,1.2c-0.5,0.6-0.9,1.2-1.4,1.9
		c-0.1,0.2-0.3,0.4-0.4,0.6c-0.1,0.2-0.3,0.4-0.4,0.6c-0.1,0.2-0.3,0.4-0.4,0.6c-0.8,1.1-1.5,2.2-2.2,3.4c0,0,0,0,0,0
		c-0.1,0.2-0.2,0.3-0.3,0.5c-0.4,0.7-0.8,1.5-1.2,2.2c-0.2,0.4-0.5,0.9-0.7,1.3c-0.1,0.1-0.1,0.2-0.1,0.3c-0.2,0.3-0.4,0.7-0.6,1
		c-0.5,0.9-0.9,1.8-1.4,2.7c0,0,0,0,0,0c-0.1,0.3-0.3,0.5-0.4,0.8c-0.1,0.2-0.1,0.3-0.2,0.5c-0.3,0.7-0.6,1.4-0.9,2.1
		c-0.3,0.6-0.5,1.1-0.8,1.7c0,0.1,0,0.1-0.1,0.2c0,0.1-0.1,0.1-0.1,0.2c-0.2,0.4-0.3,0.7-0.4,1.1c-0.4,0.9-0.7,1.8-1.1,2.7
		c-0.2,0.5-0.3,0.9-0.5,1.3c-0.4,1-0.7,2-1,3c-0.1,0.2-0.1,0.5-0.2,0.7c-0.1,0.2-0.1,0.4-0.2,0.6c-0.4,1.4-0.8,2.8-1.1,4.2v0
		c0,0,0,0,0,0s0,0,0,0c0,0,0,0,0,0.1c-0.5,2.2-1,4.4-1.3,6.6c0,0.1,0,0.1-0.1,0.2c-0.1,0.9-0.3,1.7-0.4,2.6
		c-0.1,0.5-0.1,0.9-0.2,1.4c0,0.2,0,0.4-0.1,0.7c-0.2,1.5-0.3,2.9-0.4,4.4c0,0.1,0,0.2,0,0.3c0,0.1,0,0.1,0,0.2
		c-0.1,1.3-0.1,2.7-0.1,4.1c0,0.5,0,1,0,1.5v0v5.9v0v209.5h2.9h41.2V435.7v0c0-12.4,5.6-25.4,14.5-34.6c0.8-0.8,1.5-1.6,2.3-2.3
		c0.7-0.7,1.4-1.3,2.2-1.9c5.2-4.2,11.1-7.1,17.6-8.2c0.8-0.1,1.6-0.2,2.4-0.3c1-0.1,2-0.1,3-0.1l48,1.1c0.4-7.1,0.8-14.9,1.2-23.6
		c0-0.6,0.1-1.2,0.1-1.8c0-0.1,0-0.3,0-0.5c0.1-1.3,0.1-2.6,0.2-3.9l0,0c0-0.1,0-0.2,0-0.3c0-0.1,0-0.2,0-0.3v0
		c0.1-1.3,0.1-2.6,0.2-3.9C1795.9,353.8,1793.2,352.5,1790.4,351.4z"/>
	<path fill="#A2C056" d="M1610.3,427.4c0-0.2,0-0.3,0-0.5c-0.1-1.3-0.2-2.5-0.3-3.8c0,0,0-0.1,0-0.1c0-0.2-0.1-0.4-0.1-0.6
		c-0.1-0.7-0.2-1.4-0.3-2.1c-0.1-0.4-0.1-0.9-0.2-1.3c0,0,0,0,0,0c-0.1-0.4-0.1-0.8-0.2-1.2c-0.1-1-0.3-1.9-0.5-2.9
		c-0.1-0.4-0.2-0.9-0.3-1.3c-0.2-0.8-0.3-1.5-0.5-2.3c0-0.1-0.1-0.2-0.1-0.4c0,0,0,0,0,0c-0.1-0.4-0.2-0.9-0.3-1.3
		c-0.1-0.5-0.3-1.1-0.4-1.6c-0.1-0.4-0.2-0.8-0.4-1.2c-0.1-0.3-0.2-0.7-0.3-1c-0.1-0.2-0.1-0.3-0.1-0.5c-0.4-1.1-0.7-2.2-1.1-3.3
		c-0.1-0.3-0.2-0.5-0.3-0.8c-0.4-1-0.7-1.9-1.1-2.9c-0.2-0.4-0.4-0.9-0.6-1.3c-0.2-0.5-0.5-1-0.7-1.5c-0.1-0.2-0.1-0.4-0.2-0.5
		c-0.8-1.6-1.5-3.2-2.4-4.8c-0.1-0.2-0.3-0.5-0.4-0.7c-0.7-1.4-1.6-2.7-2.4-4.1c-0.3-0.4-0.5-0.9-0.8-1.3c-0.8-1.2-1.6-2.3-2.4-3.5
		c-0.2-0.3-0.3-0.5-0.5-0.8c-0.1-0.1-0.1-0.1-0.2-0.2c-1.1-1.4-2.2-2.8-3.3-4.2c-0.3-0.4-0.6-0.8-1-1.1c-1-1.2-2.1-2.4-3.2-3.5
		c-0.1-0.1-0.1-0.1-0.2-0.2c-0.1-0.1-0.2-0.2-0.3-0.3c-1.1-1.2-2.3-2.3-3.5-3.3c-0.1-0.1-0.2-0.2-0.3-0.3l0,0
		c-0.3-0.3-0.6-0.5-0.9-0.8c-0.1,0-0.1-0.1-0.1-0.1c-1.2-1-2.3-2-3.5-2.9c-0.3-0.2-0.5-0.4-0.8-0.6v0c-1.4-1.1-2.9-2.1-4.4-3.1
		c-0.3-0.2-0.6-0.4-1-0.6c0,0-0.1-0.1-0.1-0.1c-1.3-0.8-2.6-1.6-3.9-2.3c-0.2-0.1-0.4-0.3-0.7-0.4c-0.1-0.1-0.2-0.1-0.3-0.2
		c-1.6-0.9-3.2-1.7-4.8-2.5c-0.1-0.1-0.3-0.1-0.4-0.2c-0.2-0.1-0.4-0.2-0.6-0.3c-1-0.5-2.1-0.9-3.2-1.4c-0.3-0.1-0.6-0.3-1-0.4
		c-0.4-0.2-0.8-0.3-1.2-0.5c-1.7-0.7-3.4-1.3-5.2-1.8c-0.3-0.1-0.6-0.2-0.9-0.3c-1.5-0.4-3-0.9-4.5-1.2c-0.4-0.1-0.9-0.2-1.4-0.3
		c-1.8-0.4-3.6-0.7-5.4-1c-0.2,0-0.4-0.1-0.6-0.1c-1.7-0.2-3.4-0.4-5-0.6c-0.5,0-1-0.1-1.5-0.1c-0.1,0-0.2,0-0.3,0
		c-1.7-0.1-3.4-0.2-5.1-0.2c-0.1,0-0.2,0-0.4,0c-1.2,0-2.3,0-3.5,0.1c-0.8,0-1.7,0.1-2.5,0.1c-0.9,0.1-1.9,0.1-2.8,0.2
		c-0.5,0.1-1,0.1-1.6,0.2c-0.6,0.1-1.3,0.2-1.9,0.3c-0.3,0-0.5,0.1-0.8,0.1v0c-0.6,0.1-1.2,0.2-1.7,0.3c-0.6,0.1-1.2,0.2-1.8,0.3
		c-0.2,0-0.5,0.1-0.7,0.1c-0.6,0.1-1.2,0.3-1.8,0.4c-0.8,0.2-1.6,0.3-2.3,0.5c-0.6,0.1-1.2,0.3-1.8,0.5c-0.7,0.2-1.5,0.4-2.2,0.6
		c-0.6,0.2-1.2,0.4-1.8,0.6c0,0,0,0-0.1,0c-0.2,0.1-0.4,0.2-0.6,0.2c-0.5,0.2-1,0.3-1.5,0.5c-0.6,0.2-1.2,0.5-1.8,0.7
		c-0.7,0.3-1.4,0.6-2.1,0.8c-0.6,0.3-1.2,0.5-1.8,0.8c-0.5,0.2-1,0.4-1.5,0.7c-0.2,0.1-0.4,0.2-0.5,0.3c-0.6,0.3-1.1,0.6-1.7,0.8
		c-0.7,0.3-1.4,0.7-2,1c-0.6,0.3-1.1,0.6-1.7,0.9c-0.7,0.4-1.3,0.7-1.9,1.1c-0.5,0.3-1.1,0.7-1.6,1c-0.6,0.4-1.2,0.8-1.9,1.2
		c-0.5,0.3-1,0.7-1.6,1.1l0,0c-0.1,0.1-0.1,0.1-0.2,0.1c-0.5,0.4-1.1,0.8-1.6,1.2c-0.5,0.4-1,0.7-1.5,1.1c-0.6,0.5-1.2,0.9-1.8,1.4
		c-0.5,0.4-0.9,0.8-1.4,1.2c-0.6,0.5-1.1,1-1.7,1.5c-0.5,0.4-0.9,0.8-1.3,1.2c-0.6,0.5-1.1,1-1.6,1.6c0,0,0,0,0,0
		c-0.4,0.4-0.9,0.8-1.3,1.3c-0.1,0.1-0.2,0.3-0.3,0.4c-0.4,0.4-0.9,0.9-1.2,1.3c0,0,0,0,0,0c-0.4,0.4-0.8,0.9-1.2,1.3c0,0,0,0,0,0
		c-0.5,0.6-1,1.2-1.5,1.7c0,0,0,0,0,0c-0.4,0.4-0.7,0.9-1.1,1.3c0,0,0,0,0,0c-0.2,0.2-0.4,0.5-0.6,0.8c-0.3,0.4-0.6,0.7-0.8,1.1
		c0,0-0.1,0.1-0.1,0.1c-0.3,0.5-0.7,0.9-1,1.4c0,0,0,0,0,0c-0.1,0.2-0.3,0.4-0.4,0.6c-0.3,0.4-0.6,0.9-0.9,1.3c0,0,0,0.1-0.1,0.1
		c-0.3,0.4-0.7,0.9-0.9,1.4c0,0,0,0,0,0c-0.2,0.3-0.3,0.5-0.5,0.7c-0.2,0.4-0.5,0.8-0.7,1.2c0,0.1-0.1,0.1-0.1,0.1
		c-0.3,0.5-0.6,0.9-0.8,1.4c0,0,0,0,0,0c-0.3,0.4-0.5,0.9-0.7,1.3c-0.1,0.3-0.3,0.5-0.4,0.7c0,0.1-0.1,0.1-0.1,0.2
		c-0.3,0.4-0.5,0.9-0.8,1.3c0,0,0,0,0,0c-0.1,0.3-0.3,0.7-0.5,1c-0.2,0.4-0.4,0.8-0.6,1.1c-0.1,0.1-0.1,0.2-0.1,0.3
		c-0.2,0.4-0.4,0.9-0.7,1.3c0,0,0,0,0,0c-0.3,0.7-0.6,1.4-0.9,2.1c0,0.1-0.1,0.1-0.1,0.1c0,0,0,0.1,0,0.1c-0.1,0.1-0.1,0.2-0.1,0.3
		c-0.2,0.4-0.4,0.8-0.5,1.2c0,0,0,0,0,0.1c-0.3,0.8-0.6,1.6-0.9,2.4c-0.2,0.5-0.4,1-0.6,1.5c-0.3,0.9-0.6,1.7-0.9,2.6
		c-0.1,0.5-0.3,0.9-0.5,1.4c-0.5,1.5-0.9,3-1.3,4.6v0c0,0,0,0,0,0c0,0.1,0,0.1,0,0.2c-0.3,1.1-0.6,2.2-0.8,3.4
		c-0.1,0.6-0.2,1.1-0.3,1.7c0,0,0,0,0,0s0,0,0,0.1c-0.1,0.8-0.3,1.6-0.4,2.4c-0.1,0.6-0.2,1.3-0.3,1.9c0,0,0,0,0,0c0,0,0,0.1,0,0.1
		c-0.1,0.7-0.2,1.5-0.3,2.2c-0.1,0.7-0.1,1.4-0.1,2.1c-0.1,0.6-0.1,1.3-0.1,1.9c0,0.1,0,0.2,0,0.3c-0.1,1.6-0.1,3.2-0.1,4.8
		c0,0,0,0,0,0v137c0,1.8,0.1,3.5,0.2,5.3c0,0.5,0.1,1,0.1,1.4c0.1,1.5,0.3,3,0.4,4.5c0,0.3,0.1,0.6,0.1,0.8c0.2,1.7,0.5,3.4,0.8,5.1
		c0.1,0.5,0.2,0.9,0.3,1.4c0.3,1.4,0.6,2.8,0.9,4.1c0.1,0.4,0.2,0.8,0.3,1.2c0.4,1.7,0.9,3.3,1.5,5c0.1,0.4,0.3,0.8,0.4,1.2
		c0.4,1.3,0.9,2.6,1.4,3.9c0.1,0.4,0.3,0.9,0.5,1.3c0.6,1.6,1.3,3.2,2,4.7c0.1,0.3,0.2,0.5,0.4,0.8c0.6,1.3,1.3,2.6,2,3.9
		c0.1,0.1,0.2,0.3,0.3,0.5c0.1,0.3,0.3,0.5,0.4,0.8c0.6,1,1.2,2.1,1.8,3.1c0.2,0.3,0.4,0.7,0.6,0.9c0.8,1.3,1.7,2.6,2.6,3.9
		c0.2,0.3,0.4,0.6,0.6,0.9c0.7,1,1.4,2,2.1,2.9c0.3,0.4,0.6,0.8,0.9,1.2c0.7,0.9,1.4,1.7,2.1,2.5c0.3,0.3,0.6,0.7,0.9,1.1
		c0.9,1,1.9,2.1,2.9,3.1c0.1,0.1,0.1,0.2,0.2,0.3c1.1,1.1,2.3,2.1,3.4,3.1c0.3,0.3,0.6,0.5,0.9,0.8c0.9,0.7,1.8,1.5,2.7,2.2
		c0.4,0.3,0.7,0.5,1.1,0.8c1,0.7,2,1.4,3,2.1c0.3,0.2,0.6,0.4,0.9,0.6c1.3,0.9,2.7,1.7,4,2.5c0.1,0,0.1,0.1,0.2,0.1
		c1.3,0.7,2.6,1.4,3.9,2c0.3,0.1,0.7,0.3,1,0.5c1.1,0.5,2.3,1,3.4,1.5c0.4,0.1,0.7,0.3,1.1,0.4c1.4,0.5,2.8,1,4.2,1.5
		c0.1,0,0.2,0.1,0.3,0.1c1.6,0.5,3.2,0.9,4.8,1.3c0.2,0.1,0.4,0.1,0.7,0.1c1.4,0.3,2.8,0.6,4.2,0.8c0.4,0.1,0.7,0.1,1.2,0.2
		c1.3,0.2,2.7,0.3,4.1,0.4c0.3,0,0.7,0.1,1,0.1c1.7,0.1,3.4,0.2,5.2,0.2c4.4,0,9-0.4,13.8-1.2l53-8.3c-0.1-1.1-0.2-2.2-0.4-3.4
		c-0.1-0.7-0.1-1.3-0.2-2c0-0.5-0.1-0.9-0.1-1.4c-0.1-0.7-0.1-1.5-0.2-2.3c0-0.4-0.1-0.8-0.1-1.2c-0.1-0.8-0.1-1.6-0.2-2.5
		c0-0.4,0-0.7-0.1-1.1c-0.1-0.9-0.1-1.8-0.2-2.7c0-0.3,0-0.6-0.1-0.8c-0.2-3.2-0.3-6.6-0.5-10.2c0-0.3,0-0.5,0-0.8c0,0,0-0.1,0-0.1
		c-0.1-1.4-0.1-2.8-0.2-4.3c0-0.4,0-0.7-0.1-1.1c0-0.1,0-0.2,0-0.4h-55.8c-1.4,0-2.7-0.1-4-0.2c-0.2,0-0.5,0-0.7-0.1
		c-1.3-0.1-2.6-0.3-3.9-0.6c0,0,0,0,0,0c-1.2-0.3-2.5-0.6-3.7-1c-0.1,0-0.1,0-0.1,0c-0.2-0.1-0.4-0.1-0.6-0.2
		c-1.2-0.4-2.4-0.8-3.6-1.3c-0.1,0-0.1-0.1-0.2-0.1c-1.1-0.5-2.2-1-3.2-1.5c-0.2-0.1-0.4-0.2-0.6-0.3c-1.1-0.6-2.2-1.3-3.2-2
		c-0.1-0.1-0.2-0.2-0.3-0.2c-0.9-0.7-1.9-1.4-2.7-2.1c-0.1-0.1-0.3-0.3-0.5-0.4c-0.9-0.8-1.9-1.6-2.7-2.5c-0.1-0.1-0.2-0.3-0.4-0.4
		c-0.8-0.8-1.5-1.6-2.2-2.5c-0.1-0.1-0.3-0.3-0.4-0.4c-0.8-1-1.5-1.9-2.2-2.9c-0.1-0.2-0.3-0.4-0.4-0.6c-0.3-0.4-0.5-0.8-0.8-1.2
		c0,0,0,0,0,0c-0.3-0.5-0.5-1-0.8-1.5c-0.1-0.2-0.3-0.5-0.4-0.7c-0.6-1.1-1.1-2.2-1.6-3.3c-0.1-0.2-0.2-0.5-0.3-0.7
		c-0.4-1-0.7-1.9-1.1-2.9c-0.1-0.3-0.2-0.6-0.3-0.9c-0.4-1.2-0.7-2.4-0.9-3.7c0-0.2-0.1-0.4-0.1-0.5c-0.2-1.1-0.4-2.2-0.5-3.3
		c-0.1-0.3-0.1-0.7-0.1-1c-0.1-1.3-0.2-2.6-0.2-3.9v-46.9l0,0h106.6c6.1,0,11.6-2.3,15.6-6.3c4-3.9,6.5-9.4,6.5-15.8v-67.8
		C1610.4,430.4,1610.3,428.9,1610.3,427.4z M1566.7,431.9v46.4h-1.5h-76.2h-4.4h-3v-46.4l0,0c0-19.3,12.4-35.7,29.8-41.1
		c4-1.3,8.3-1.9,12.8-1.9c1.3,0,2.6,0.1,3.9,0.2c0.4,0,0.8,0.1,1.2,0.1c0.9,0.1,1.9,0.3,2.8,0.4c0.4,0.1,0.8,0.1,1.2,0.2
		c1.1,0.3,2.2,0.5,3.3,0.9c0.1,0,0.2,0.1,0.3,0.1c1.2,0.4,2.4,0.8,3.5,1.3c0.3,0.1,0.7,0.3,1,0.4c0.8,0.4,1.7,0.8,2.5,1.2
		c0.3,0.2,0.7,0.4,1,0.6c0.9,0.5,1.8,1.1,2.6,1.6c0.2,0.1,0.4,0.2,0.5,0.3c1,0.7,2,1.5,3,2.2c0.3,0.2,0.5,0.4,0.8,0.7
		c0.7,0.6,1.4,1.2,2,1.9c0.3,0.3,0.6,0.6,0.8,0.9c0.7,0.7,1.3,1.4,2,2.2c0.2,0.2,0.4,0.4,0.5,0.6c0.8,0.9,1.5,1.9,2.2,2.9
		c0.2,0.3,0.4,0.6,0.6,0.9c0.5,0.8,1,1.6,1.4,2.4c0.2,0.4,0.4,0.7,0.6,1.1c0.4,0.8,0.8,1.7,1.2,2.5c0.1,0.3,0.3,0.6,0.4,0.9
		c0,0.1,0.1,0.2,0.1,0.2c0,0.1,0,0.1,0.1,0.2c0.2,0.5,0.4,1,0.6,1.6c0.2,0.6,0.5,1.2,0.7,1.9c0.2,0.8,0.4,1.5,0.6,2.3
		c0.2,0.6,0.3,1.2,0.5,1.8c0.2,0.9,0.3,1.8,0.4,2.8c0.1,0.5,0.2,0.9,0.2,1.4C1566.7,428.9,1566.7,430.4,1566.7,431.9L1566.7,431.9z"
		/>
	<path fill="#A2C056" d="M1142.2,437.8c0.4,0,0.7,0,1,0c0.7,0,1.4,0,2.1-0.1c0.9,0,1.9-0.1,2.9-0.1c0.6,0,1.1,0,1.7-0.1
		c1.4,0,2.8-0.1,4.2-0.1c0,0,0,0,0.1,0c5.4-0.1,11.1-0.2,17.2-0.4c1.4,0,2.9-0.1,4.4-0.1c0.3,0,0.6,0,0.9,0c2-0.1,4.1-0.1,6.3-0.2
		v-5.5c0-1-0.1-2.1-0.1-3.1c0-0.2,0-0.4,0-0.6c-0.1-0.8-0.1-1.5-0.1-2.2c-0.1-0.7-0.1-1.4-0.2-2.2c-0.1-0.7-0.1-1.4-0.2-2.1
		c0-0.1,0-0.2,0-0.3c-0.1-0.6-0.1-1.3-0.3-1.9c-0.1-0.7-0.2-1.4-0.3-2c-0.1-0.7-0.3-1.5-0.4-2.2c-0.1-0.7-0.3-1.3-0.4-2
		c-0.1-0.7-0.3-1.4-0.5-2.1c-0.2-0.7-0.4-1.3-0.5-2c0,0,0-0.1,0-0.1c-0.2-0.7-0.4-1.3-0.6-2c-0.2-0.7-0.4-1.3-0.6-1.9
		c-0.2-0.6-0.4-1.2-0.6-1.8c-0.1-0.1-0.1-0.1-0.1-0.2v0c-0.2-0.6-0.5-1.3-0.7-1.9c-0.2-0.6-0.5-1.2-0.7-1.8c0-0.1-0.1-0.1-0.1-0.2
		c-0.3-0.7-0.5-1.3-0.8-1.9c-0.2-0.4-0.3-0.7-0.5-1.1c-0.1-0.2-0.1-0.3-0.2-0.5c-0.7-1.6-1.5-3.1-2.3-4.6c-0.1-0.1-0.1-0.2-0.2-0.3
		c0,0,0,0,0,0v0c-0.9-1.6-1.8-3.2-2.8-4.7c-0.1-0.3-0.3-0.5-0.5-0.8c-0.1-0.1-0.1-0.2-0.2-0.3c-0.9-1.4-1.8-2.7-2.8-4
		c-0.1-0.2-0.2-0.4-0.4-0.5c-1.1-1.5-2.3-2.9-3.4-4.3c-0.3-0.3-0.6-0.6-0.8-0.9c-1.1-1.2-2.1-2.4-3.2-3.5c-0.1-0.1-0.2-0.2-0.3-0.3
		c-0.1-0.1-0.2-0.2-0.3-0.4c-1.3-1.3-2.6-2.6-4-3.8c-0.3-0.3-0.6-0.5-0.9-0.7c-1.2-1-2.4-2-3.6-3c-0.2-0.2-0.4-0.3-0.7-0.5
		c0,0-0.1-0.1-0.1-0.1v0c-1.5-1.1-3-2.2-4.5-3.2c-0.3-0.2-0.6-0.4-0.8-0.5c-1.3-0.9-2.7-1.7-4.1-2.5c-0.3-0.2-0.7-0.4-1-0.6
		c-1.6-0.9-3.3-1.7-4.9-2.5c-0.2-0.1-0.4-0.2-0.6-0.3c-0.1,0-0.1-0.1-0.1-0.1l0,0c-1.1-0.5-2.2-1-3.4-1.4c-0.4-0.1-0.7-0.3-1.1-0.5
		c-0.4-0.1-0.8-0.3-1.2-0.5c-1.7-0.7-3.5-1.3-5.3-1.8c-0.1,0-0.1,0-0.1,0c-0.2-0.1-0.4-0.1-0.6-0.2c-1.6-0.5-3.1-0.9-4.8-1.3
		c-0.5-0.1-0.9-0.2-1.3-0.3c-1.7-0.4-3.5-0.7-5.3-1c-0.1,0-0.2,0-0.3-0.1c-0.1,0-0.3,0-0.5-0.1c-0.4-0.1-0.8-0.1-1.2-0.1
		c-1.3-0.2-2.6-0.3-4-0.5c0,0,0,0,0,0c-0.5,0-1-0.1-1.5-0.1c-1.9-0.1-3.8-0.2-5.8-0.2c-0.8,0-1.6,0-2.3,0.1c0,0,0,0,0,0l0,0
		c-0.7,0-1.3,0-2,0c-0.1,0-0.1,0-0.1,0l0,0l0,0c-0.7,0-1.5,0.1-2.2,0.2c0,0-0.1,0-0.1,0c-0.7,0-1.4,0.1-2.1,0.2c0,0,0,0,0,0
		c-0.7,0.1-1.4,0.2-2.1,0.3c0,0-0.1,0-0.1,0c-0.7,0.1-1.4,0.2-2.1,0.3l0,0c-0.4,0.1-0.9,0.2-1.3,0.2c-0.3,0.1-0.6,0.1-0.9,0.1
		c-0.1,0-0.2,0-0.3,0.1c-0.6,0.1-1.1,0.2-1.7,0.3c0,0,0,0,0,0c-0.8,0.2-1.5,0.3-2.3,0.5c0,0-0.1,0-0.1,0c-0.6,0.1-1.1,0.3-1.7,0.4
		l0,0c-0.6,0.2-1.2,0.3-1.9,0.5c-0.2,0-0.4,0.1-0.6,0.2c-0.5,0.1-1.1,0.3-1.6,0.5c0,0,0,0,0,0l0,0c-0.1,0-0.2,0.1-0.4,0.1
		c-0.5,0.2-1,0.3-1.5,0.5c-0.3,0.1-0.5,0.2-0.8,0.3c-0.5,0.2-0.9,0.3-1.4,0.5c0,0,0,0,0,0c0,0,0,0,0,0c-0.2,0.1-0.4,0.1-0.5,0.2
		c-0.5,0.2-1,0.4-1.6,0.6c-0.3,0.1-0.5,0.2-0.7,0.3c-0.4,0.1-0.7,0.3-1.1,0.4c0,0,0,0,0,0c0,0,0,0-0.1,0c-0.7,0.3-1.5,0.7-2.2,1
		c-0.3,0.1-0.5,0.2-0.8,0.3c-0.2,0.1-0.5,0.2-0.7,0.3c0,0,0,0,0,0c-0.9,0.4-1.8,0.9-2.7,1.4c-0.2,0.1-0.4,0.2-0.5,0.3
		c-0.1,0.1-0.3,0.1-0.5,0.3c0,0,0,0,0,0c-0.7,0.4-1.3,0.8-2,1.1c-0.1,0-0.1,0-0.1,0.1c-0.5,0.3-0.9,0.5-1.4,0.8c0,0-0.1,0-0.1,0
		c0,0,0,0,0,0c0,0,0,0-0.1,0c-1,0.6-2,1.3-3,1.9c-0.6,0.4-1.1,0.8-1.7,1.2c-0.7,0.5-1.4,1-2.1,1.5c-0.4,0.3-0.8,0.6-1.2,1
		c-0.7,0.5-1.4,1.1-2,1.6c-0.4,0.4-0.9,0.7-1.3,1.1c-0.6,0.5-1.2,1.1-1.9,1.6c-0.3,0.3-0.7,0.6-1,1c-0.7,0.6-1.4,1.3-2,1.9
		c-0.3,0.3-0.5,0.5-0.8,0.8c-0.7,0.7-1.4,1.5-2.1,2.2c-1,1.2-2.1,2.4-3,3.6c-0.4,0.4-0.7,0.9-1,1.3c-0.7,0.8-1.3,1.7-1.9,2.5
		c-0.1,0.1-0.2,0.3-0.3,0.4c-0.3,0.4-0.5,0.8-0.8,1.2c-0.6,0.9-1.1,1.7-1.7,2.6c-0.2,0.3-0.4,0.5-0.5,0.8c-0.1,0.2-0.3,0.5-0.5,0.7
		c-0.5,0.9-1,1.7-1.5,2.6c-0.1,0.3-0.3,0.5-0.4,0.8c-0.1,0.3-0.3,0.5-0.4,0.8c-0.8,1.4-1.5,2.9-2.1,4.3c-0.1,0.1-0.1,0.1-0.1,0.2
		c-0.1,0.4-0.3,0.7-0.5,1.1c-0.5,1.1-0.9,2.2-1.4,3.3c-0.2,0.5-0.4,0.9-0.5,1.4c0,0.1,0,0.1,0,0.1c-0.4,1.1-0.8,2.3-1.2,3.4
		c-0.1,0.4-0.3,0.9-0.4,1.3c-0.5,1.5-0.9,2.9-1.3,4.4c0,0.1-0.1,0.2-0.1,0.3c0,0,0,0,0,0l0,0v0c-1.7,6.7-2.6,13.7-2.6,20.9v5.7
		v132.3c0,0.2,0,0.4,0,0.7c0,1.5,0.1,3,0.1,4.4c0,0.6,0.1,1.2,0.1,1.9c0.1,1.1,0.2,2.2,0.3,3.3c0.1,0.6,0.1,1.3,0.2,1.9
		c0.1,1.1,0.3,2.3,0.5,3.4c0.1,0.5,0.2,1,0.3,1.6c0.3,1.6,0.7,3.2,1.1,4.8c0.1,0.3,0.2,0.6,0.2,0.9c0.4,1.3,0.7,2.6,1.2,3.9
		c0.2,0.5,0.3,1,0.5,1.5c0.4,1.1,0.8,2.2,1.2,3.3c0.2,0.5,0.4,0.9,0.6,1.5c0.5,1.2,1,2.4,1.6,3.6c0.1,0.3,0.3,0.6,0.4,0.9
		c0.7,1.5,1.4,2.9,2.2,4.4c0,0.1,0.1,0.2,0.1,0.3c0.1,0.1,0.1,0.3,0.2,0.4c0.7,1.3,1.5,2.5,2.2,3.8c0.2,0.4,0.5,0.8,0.8,1.2
		c0.8,1.2,1.6,2.3,2.4,3.5c0.2,0.3,0.4,0.6,0.6,0.8c1,1.4,2,2.7,3.1,4c0.3,0.3,0.6,0.7,0.9,1c0.8,1,1.7,1.9,2.6,2.9
		c0.4,0.4,0.7,0.8,1.1,1.2c1,1.1,2.1,2.1,3.2,3.1c0.1,0.1,0.3,0.3,0.4,0.4c1.2,1.1,2.5,2.2,3.8,3.2c0.4,0.3,0.8,0.6,1.2,1
		c1,0.7,2,1.5,3,2.2c0.4,0.3,0.9,0.6,1.2,0.9c1.4,1,2.8,1.9,4.2,2.7c0.2,0.1,0.5,0.3,0.7,0.4c1.2,0.7,2.5,1.4,3.7,2.1
		c0.5,0.3,1,0.5,1.4,0.7c1.2,0.6,2.3,1.1,3.5,1.7c0.4,0.1,0.8,0.4,1.2,0.5c1.5,0.7,3.1,1.3,4.7,1.9c0.4,0.1,0.8,0.3,1.1,0.4
		c1.3,0.4,2.6,0.9,3.9,1.3c0.5,0.1,1,0.3,1.5,0.4c1.4,0.4,2.8,0.7,4.2,1c0.3,0.1,0.6,0.1,0.9,0.2c1.7,0.4,3.4,0.7,5.2,0.9
		c0.5,0.1,0.9,0.1,1.4,0.2c1.3,0.2,2.7,0.3,4.1,0.4c0.5,0,1,0.1,1.6,0.1c1.8,0.1,3.6,0.2,5.4,0.2c1.4,0,2.8,0,4.2-0.1
		c0.5,0,0.9-0.1,1.4-0.1c0.9-0.1,1.9-0.1,2.8-0.2c0.5-0.1,1.1-0.1,1.6-0.2c0.8-0.1,1.7-0.2,2.5-0.3c0.6-0.1,1.1-0.2,1.7-0.3
		c0.8-0.1,1.6-0.3,2.3-0.4c0.6-0.1,1.2-0.3,1.7-0.4c0.7-0.2,1.5-0.3,2.3-0.5c0.6-0.1,1.2-0.3,1.7-0.5c0.7-0.2,1.5-0.4,2.2-0.6
		c0.6-0.2,1.1-0.4,1.7-0.5c0.7-0.2,1.4-0.5,2.2-0.7c0.6-0.2,1.1-0.4,1.7-0.6c0.7-0.3,1.4-0.5,2.1-0.8c0.6-0.2,1.1-0.5,1.7-0.7
		c0.7-0.3,1.4-0.6,2-0.9c0.5-0.2,1.1-0.5,1.6-0.7c0.7-0.3,1.3-0.7,2-1c0.5-0.3,1-0.6,1.5-0.8c0.7-0.4,1.3-0.7,2-1.1
		c0.5-0.3,1-0.6,1.5-0.9c0.7-0.4,1.3-0.8,1.9-1.2c0.5-0.3,1-0.7,1.5-0.9c0.6-0.4,1.2-0.8,1.9-1.3c0.5-0.3,0.9-0.7,1.4-1
		c0.6-0.4,1.2-0.9,1.8-1.4c0.5-0.4,0.9-0.7,1.3-1c0.6-0.5,1.2-1,1.8-1.5c0.4-0.4,0.8-0.7,1.2-1.1c0.6-0.5,1.2-1,1.7-1.6
		c0.4-0.4,0.8-0.7,1.2-1.1c0.6-0.5,1.1-1.1,1.7-1.7c0.4-0.4,0.8-0.7,1.1-1.1c0.6-0.6,1.1-1.2,1.6-1.8c0.4-0.4,0.7-0.8,1-1.1
		c0.6-0.7,1.1-1.3,1.6-1.9c0.3-0.4,0.6-0.7,0.9-1.1c0.6-0.7,1.1-1.4,1.7-2.2c0.2-0.3,0.5-0.7,0.7-1c0.6-0.8,1.2-1.7,1.7-2.5
		c0.2-0.3,0.3-0.5,0.5-0.8c0.7-1.1,1.4-2.2,2.1-3.3c0,0,0,0,0,0c1.4-2.3,2.6-4.7,3.8-7.2c0.1-0.2,0.2-0.4,0.3-0.6
		c0.5-1,0.9-2,1.4-3.1c0.1-0.4,0.3-0.7,0.4-1c0.4-0.9,0.7-1.8,1-2.7c0.1-0.4,0.3-0.9,0.4-1.3c0.3-0.9,0.6-1.7,0.9-2.6
		c0.1-0.5,0.3-0.9,0.4-1.4c0.2-0.8,0.5-1.7,0.7-2.6c0.1-0.5,0.2-1,0.4-1.5c0.2-0.8,0.4-1.7,0.6-2.5c0.1-0.5,0.2-1,0.3-1.5
		c0.2-0.8,0.3-1.7,0.4-2.5c0.1-0.5,0.1-1,0.2-1.6c0.1-0.6,0.1-1.1,0.2-1.7c0-0.2,0.1-0.5,0.1-0.7c0.1-1.2,0.2-2.5,0.3-3.7
		c0-0.3,0.1-0.6,0.1-0.9c0-0.2,0.1-0.3,0.1-0.5c-1,0-9-0.4-20-1.1c-3.7-0.2-7.6-0.5-11.8-0.8c-3.9-0.3-7.9-0.6-11.9-0.9
		c0,1-0.1,1.9-0.2,2.8c-0.1,0.5-0.1,1-0.1,1.5c-0.4,2.9-1,5.7-2,8.4c-5.8,16.7-22,28.2-40.8,28.2c-1.3,0-2.6-0.1-3.8-0.2
		c-0.3,0-0.6-0.1-0.9-0.1c-1.2-0.1-2.5-0.3-3.7-0.5c-0.1,0-0.2,0-0.3-0.1c-1.2-0.2-2.3-0.5-3.4-0.9c-0.3-0.1-0.5-0.1-0.7-0.2
		c0,0,0,0-0.1,0c-1.2-0.4-2.3-0.8-3.4-1.2c-0.1-0.1-0.3-0.1-0.4-0.2c-1-0.4-2-0.9-3-1.4c-0.2-0.1-0.5-0.2-0.7-0.4
		c-1-0.6-2.1-1.2-3-1.8c-0.1-0.1-0.3-0.2-0.4-0.3c-0.9-0.6-1.8-1.3-2.6-1.9c-0.2-0.1-0.4-0.3-0.5-0.4c-0.9-0.8-1.8-1.5-2.7-2.4
		c-0.1-0.1-0.3-0.3-0.4-0.4c-0.8-0.8-1.5-1.6-2.2-2.4c-0.1-0.1-0.3-0.3-0.4-0.5c-0.8-0.9-1.5-1.9-2.2-2.9c-0.1-0.1-0.2-0.3-0.3-0.5
		c-0.3-0.4-0.5-0.8-0.8-1.2c0,0,0-0.1,0-0.1c-0.3-0.5-0.6-1-0.8-1.5c-0.1-0.2-0.2-0.4-0.3-0.6c-0.6-1.1-1.1-2.2-1.6-3.4
		c-0.1-0.2-0.1-0.4-0.2-0.6c-0.4-1-0.8-2-1.1-3c-0.1-0.3-0.2-0.5-0.3-0.8c-0.4-1.2-0.7-2.5-0.9-3.7c0-0.1,0-0.2-0.1-0.4
		c-0.2-1.2-0.4-2.4-0.5-3.6c0-0.3-0.1-0.6-0.1-0.9c-0.1-1.3-0.2-2.7-0.2-4.1v-138c0-13,5.9-24.9,15.3-32.7
		c7.3-6.1,16.5-9.8,26.7-9.8c1.3,0,2.7,0.1,4,0.2c0.4,0,0.8,0.1,1.2,0.1c0.9,0.1,1.9,0.3,2.8,0.4c0.4,0.1,0.8,0.1,1.2,0.2
		c1.1,0.2,2.1,0.5,3.2,0.8c0.2,0.1,0.4,0.1,0.6,0.1c1.2,0.4,2.4,0.8,3.5,1.3c0.3,0.1,0.7,0.3,1,0.4c0.8,0.4,1.7,0.8,2.5,1.2
		c0.4,0.2,0.7,0.4,1.1,0.6c0.9,0.5,1.7,1,2.6,1.5c0.2,0.1,0.5,0.3,0.7,0.4c1,0.7,2,1.4,3,2.2c0.2,0.2,0.5,0.4,0.7,0.6
		c0.7,0.6,1.4,1.2,2.1,1.9c0.3,0.3,0.6,0.6,0.9,0.8c0.7,0.7,1.3,1.3,1.9,2.1c0.2,0.2,0.4,0.5,0.7,0.7c0.8,1,1.5,2,2.2,3
		c0.1,0.2,0.2,0.4,0.4,0.6c0.6,0.9,1.1,1.7,1.6,2.6c0.2,0.3,0.4,0.7,0.5,1c0.5,0.8,0.9,1.7,1.2,2.5c0.1,0.3,0.3,0.6,0.4,0.9
		c0.1,0.2,0.1,0.3,0.2,0.5c0.1,0.1,0.1,0.1,0.1,0.2c0.2,0.5,0.4,1,0.5,1.6c0.2,0.5,0.4,1.1,0.6,1.6c0.2,0.8,0.4,1.5,0.6,2.3
		c0.1,0.5,0.3,1.1,0.4,1.6c0.2,0.9,0.3,1.8,0.4,2.6c0.1,0.5,0.2,0.9,0.2,1.4c0.1,1.4,0.2,2.8,0.2,4.2v6.6
		C1140.2,437.9,1141.2,437.8,1142.2,437.8z"/>
	<path fill="#A2C056" d="M950.9,434.7c0-0.8,0-1.7-0.1-2.5c0-0.6-0.1-1.2-0.1-1.8c0-0.6-0.1-1.1-0.1-1.7c0-0.3,0-0.5-0.1-0.8
		c0,0,0,0,0,0c-0.1-0.7-0.1-1.3-0.2-1.9c0,0,0,0,0,0c-0.1-0.8-0.2-1.5-0.3-2.3c0,0,0,0,0,0c-0.1-0.6-0.2-1.2-0.3-1.7
		c0-0.1,0-0.1,0-0.1c-0.1-0.5-0.1-0.9-0.2-1.3c-0.1-0.3-0.1-0.7-0.2-1c0,0,0,0,0,0c-0.1-0.5-0.2-1-0.3-1.6c0-0.1,0-0.2-0.1-0.3
		c-0.1-0.3-0.1-0.7-0.2-1c-0.1-0.5-0.2-0.9-0.3-1.4c0,0,0,0,0,0c-0.1-0.6-0.3-1.2-0.4-1.8l0,0c-0.1-0.4-0.2-0.8-0.3-1.2
		c-0.1-0.4-0.2-0.8-0.3-1.1c0,0,0,0,0,0c-0.1-0.5-0.3-1-0.4-1.5c0-0.1,0-0.1-0.1-0.2c-0.1-0.5-0.3-1-0.5-1.5
		c-0.1-0.3-0.2-0.6-0.3-0.9v0c-0.2-0.6-0.4-1.1-0.6-1.7c0.1,0.4,0.3,0.8,0.4,1.2c-0.1-0.4-0.3-0.8-0.4-1.2c-0.3-0.8-0.5-1.5-0.8-2.3
		c-0.2-0.6-0.4-1.1-0.6-1.7c0,0,0,0,0-0.1c-0.2-0.6-0.5-1.2-0.7-1.8c0-0.1-0.1-0.2-0.1-0.4c-0.3-0.6-0.5-1.2-0.8-1.8
		c-0.1-0.2-0.2-0.5-0.3-0.7c-0.1-0.2-0.2-0.4-0.3-0.6c-0.6-1.3-1.3-2.7-2-4c-0.1-0.3-0.3-0.5-0.4-0.8c-0.1-0.1-0.1-0.3-0.2-0.4
		c-0.9-1.6-1.8-3.2-2.7-4.7c-0.1-0.2-0.3-0.4-0.4-0.7c-0.8-1.3-1.7-2.6-2.6-3.9c-0.1-0.2-0.3-0.4-0.4-0.6c-0.2-0.2-0.3-0.4-0.5-0.7
		c-0.9-1.3-1.9-2.6-3-3.9c-0.1-0.2-0.2-0.3-0.4-0.5c-1.2-1.4-2.4-2.7-3.6-4c0,0,0,0,0,0c0,0-0.1-0.1-0.1-0.1c-0.3-0.3-0.6-0.7-1-1
		c-0.8-0.9-1.7-1.7-2.5-2.5c-0.2-0.1-0.3-0.3-0.4-0.4c0,0,0,0,0,0c-0.4-0.3-0.7-0.6-1-1c-1.3-1.2-2.7-2.4-4.1-3.5c0,0,0,0,0,0
		c-0.2-0.2-0.5-0.4-0.7-0.5c-0.1-0.1-0.1-0.1-0.2-0.2c-1.1-0.9-2.3-1.7-3.5-2.6c-0.5-0.3-0.9-0.6-1.4-0.9c-1.4-0.9-2.8-1.8-4.2-2.7
		c-0.1,0-0.2-0.1-0.2-0.1c-0.1-0.1-0.2-0.1-0.3-0.1c-1.6-0.9-3.2-1.8-4.8-2.6c-0.5-0.3-1-0.5-1.5-0.7c-1.3-0.6-2.7-1.2-4-1.8
		c-0.1-0.1-0.2-0.1-0.4-0.2c-0.3-0.1-0.6-0.3-0.9-0.4c-1.7-0.7-3.5-1.3-5.3-1.9l0,0c-0.4-0.1-0.8-0.3-1.3-0.4l0,0
		c-0.4-0.1-0.9-0.2-1.3-0.4c-1-0.3-2.1-0.6-3.1-0.9c-0.1,0-0.2,0-0.2-0.1c-0.5-0.1-0.9-0.2-1.4-0.3l0,0c-0.5-0.1-1-0.2-1.5-0.3
		c-1.4-0.3-2.9-0.6-4.4-0.8v-0.1c0,0,0,0,0,0c-0.1,0-0.2,0-0.3,0c-1.9-0.3-3.8-0.5-5.7-0.7c-0.3,0-0.7-0.1-1-0.1c-0.2,0-0.3,0-0.5,0
		c-0.6,0-1.3-0.1-2-0.1c-1.2-0.1-2.3-0.1-3.5-0.1c-0.4,0-0.9,0-1.3,0c-0.1,0-0.1,0-0.2,0c-0.2,0-0.4,0-0.7,0c-0.4,0-0.9,0-1.3,0
		c-2.4,0.1-4.8,0.2-7.2,0.5c-0.1,0-0.2,0-0.3,0c-2.4,0.2-4.8,0.5-7.2,0.9c-0.1,0-0.2,0-0.4,0.1c-2.4,0.4-4.8,0.8-7.2,1.2
		c0,0,0,0-0.1,0c-0.1,0-0.2,0-0.3,0.1c-2.1,0.4-4.1,0.9-6.2,1.3c-0.3,0.1-0.7,0.1-1,0.2c0,0,0,0,0,0c-0.1,0-0.2,0.1-0.4,0.1
		c-3.3,0.8-6.6,1.6-9.8,2.5c0,0-0.1,0-0.1,0c-0.1,0-0.1,0-0.1,0.1c-1.5,0.4-2.9,0.8-4.3,1.3c-0.1,0-0.1,0-0.2,0
		c-0.1,0-0.2,0.1-0.3,0.1c-1.5,0.4-2.9,0.9-4.3,1.4c-0.2,0.1-0.4,0.1-0.6,0.2c-0.5,0.1-1,0.3-1.4,0.5c-0.2,0.1-0.5,0.1-0.7,0.2
		c-0.3,0.1-0.6,0.2-0.8,0.3c-0.6,0.2-1.3,0.4-1.9,0.7c0,0.8,0.1,1.5,0.1,2.2c0,0.1,0,0.2,0,0.3c0,0.3,0,0.7,0.1,1
		c0.1,0.8,0.1,1.5,0.1,2.3c0.1,1.7,0.2,3.3,0.3,4.9c0.1,1.6,0.2,3.2,0.3,4.9c0,0,0,0.1,0,0.1c0,0.5,0.1,1,0.1,1.5c0,0.2,0,0.5,0,0.7
		c0,0.4,0,0.7,0.1,1.1c0,0.3,0,0.5,0,0.8c0,0.4,0.1,0.9,0.1,1.4c0,0.2,0,0.3,0,0.5c0,0.6,0.1,1.2,0.1,1.8c0,0.4,0,0.7,0.1,1.1
		c0,0.4,0,0.7,0,1.1c0,0.3,0,0.7,0.1,1c0,0.4,0,0.8,0.1,1.2c0,0.4,0,0.7,0.1,1.1c0,0.4,0,0.9,0.1,1.4c0,0.4,0,0.7,0,1.1
		c0,0.8,0.1,1.7,0.1,2.6c0.9-0.1,1.8-0.1,2.7-0.2c0.7,0,1.5-0.1,2.3-0.1c1.2-0.1,2.4-0.2,3.6-0.3c1.5-0.1,3-0.2,4.5-0.3
		c0.8-0.1,1.6-0.1,2.5-0.2c5.1-0.4,10.2-0.8,15.4-1.2c0.7,0,1.4-0.1,2.1-0.1c1.7-0.1,3.4-0.3,5.1-0.4c1.2-0.1,2.3-0.1,3.4-0.2
		c1.3-0.1,2.5-0.2,3.8-0.2c1.5-0.1,2.9-0.2,4.3-0.2c0.9,0,1.8-0.1,2.7-0.1c2.3-0.1,4.5-0.2,6.7-0.3h-0.6h0c2.3-0.2,4.5-0.4,6.6-0.4
		l0,0l0,0l0,0c1.5,0,2.9,0.1,4.2,0.2c0.4,0,0.7,0.1,1,0.1c1.3,0.1,2.6,0.3,3.8,0.5c0,0,0,0,0.1,0c1.2,0.2,2.4,0.6,3.5,0.9
		c0.3,0.1,0.6,0.2,0.9,0.3c1.1,0.4,2.2,0.8,3.2,1.2c0.1,0,0.1,0,0.1,0.1c1,0.5,2,1,2.9,1.5c0.3,0.1,0.5,0.3,0.7,0.5
		c0.9,0.6,1.7,1.1,2.5,1.8c0,0,0.1,0.1,0.1,0.1c0.8,0.7,1.6,1.4,2.3,2.1c0.2,0.2,0.4,0.4,0.6,0.6c0.7,0.7,1.3,1.5,2,2.2
		c0,0.1,0.1,0.1,0.1,0.2c0.6,0.8,1.2,1.7,1.7,2.5c0.1,0.3,0.3,0.5,0.5,0.8c0.5,0.8,0.9,1.7,1.4,2.6c0.1,0.1,0.1,0.2,0.2,0.4
		c0.3,0.7,0.7,1.4,0.9,2.2c0,0,0,0,0,0.1c0,0.1,0.1,0.2,0.1,0.4c1.1,2.8,1.9,5.8,2.4,9c0.1,0.5,0.2,0.9,0.2,1.4
		c0.2,1.2,0.3,2.4,0.4,3.6c0,0.5,0.1,1,0.1,1.5c0.1,1.7,0.2,3.4,0.2,5.1v29.3v5.5c-0.4-0.1-0.9-0.2-1.3-0.4c-0.1,0-0.1,0-0.2-0.1
		c-0.1,0-0.1,0-0.2-0.1c-0.4-0.1-0.7-0.2-1.1-0.3c-0.2,0-0.4-0.1-0.5-0.1c-0.2-0.1-0.4-0.1-0.7-0.2c0,0,0,0,0,0
		c-0.1,0-0.2-0.1-0.3-0.1c-0.2-0.1-0.4-0.1-0.6-0.1c-0.3-0.1-0.6-0.1-0.9-0.2c-0.1,0-0.2-0.1-0.3-0.1c-0.3-0.1-0.6-0.1-0.9-0.2
		c-0.1,0-0.2,0-0.3-0.1c-0.3-0.1-0.6-0.1-1-0.2c-0.3-0.1-0.7-0.1-1-0.2c-0.4-0.1-0.8-0.2-1.2-0.3h0c-0.3-0.1-0.7-0.1-1-0.2l0,0
		c-0.4-0.1-0.7-0.1-1.1-0.2v0c-0.4-0.1-0.8-0.1-1.2-0.2l0,0c-0.4-0.1-0.7-0.1-1.1-0.2c-0.4-0.1-0.9-0.1-1.3-0.2
		c-0.3-0.1-0.7-0.1-1-0.2c-0.2,0-0.4,0-0.5-0.1c-0.3-0.1-0.6-0.1-0.9-0.1l0,0c-0.3,0-0.6-0.1-0.9-0.1c0,0,0,0,0,0
		c-0.1,0-0.1,0-0.2,0c-0.5-0.1-0.9-0.1-1.4-0.2c-0.2,0-0.5-0.1-0.7-0.1c-0.2,0-0.5-0.1-0.7-0.1c-0.4-0.1-0.8-0.1-1.2-0.1l0,0
		c-0.2,0-0.4,0-0.5-0.1h0c-0.7-0.1-1.5-0.1-2.2-0.2l0,0c-0.1,0-0.1,0-0.2,0c0,0,0,0,0,0l0,0l0,0c-1.1-0.1-2.2-0.2-3.4-0.2
		c-0.4,0-0.9,0-1.4-0.1c0,0,0,0-0.1,0l0,0c-0.8,0-1.6-0.1-2.4-0.1c0,0,0,0-0.1,0c-0.4,0-0.8,0-1.2,0c-0.2,0-0.4,0-0.6,0
		c-0.7,0-1.4,0-2.2-0.1c-0.3,0-0.6,0-0.8,0c0,0-0.1,0-0.1,0c-0.1,0-0.1,0-0.1,0c0,0,0,0,0,0c-0.1,0-0.3,0-0.5,0c-0.2,0-0.4,0-0.5,0
		c-0.8,0-1.6,0-2.5,0l0,0h-0.1c-0.5,0-1,0-1.5,0c-1,0-2,0-3,0.1c0,0,0,0-0.1,0c-0.1,0-0.3,0-0.4,0c-0.6,0-1.1,0.1-1.6,0.1h0
		c-0.8,0-1.6,0.1-2.4,0.1h0c-0.3,0-0.5,0.1-0.8,0.1c-0.4,0-0.9,0.1-1.3,0.1c-0.4,0-0.9,0.1-1.3,0.1c-0.3,0-0.7,0.1-1,0.1l0,0
		c-0.5,0.1-1,0.1-1.5,0.2c-0.2,0-0.4,0-0.6,0.1c-0.5,0.1-1,0.1-1.5,0.2c-0.3,0-0.5,0.1-0.8,0.1c0,0,0,0,0,0c-0.7,0.1-1.3,0.2-2,0.3
		c0,0,0,0,0,0c-0.4,0.1-0.8,0.2-1.2,0.2c-0.4,0.1-0.8,0.2-1.1,0.2c0,0-0.1,0-0.1,0c-0.6,0.1-1.2,0.2-1.8,0.4l0,0
		c-0.6,0.1-1.1,0.3-1.6,0.4c-0.3,0.1-0.7,0.2-1,0.3c0,0-0.1,0-0.1,0c-0.6,0.2-1.3,0.3-1.9,0.5c-0.1,0-0.1,0-0.2,0.1
		c-1,0.3-2,0.6-3,0.9l0,0c-0.5,0.2-1,0.4-1.6,0.5c0,0-0.1,0-0.1,0c-0.7,0.2-1.4,0.5-2.2,0.8c0,0,0,0,0,0c-0.5,0.2-1.1,0.4-1.6,0.6
		c0,0,0,0,0,0c-0.7,0.3-1.4,0.5-2,0.8c0,0,0,0,0,0c-0.5,0.2-1,0.5-1.6,0.7c0,0,0,0,0,0c0,0,0,0,0,0c-0.3,0.1-0.5,0.3-0.8,0.4
		c-0.4,0.2-0.8,0.4-1.1,0.5c0,0,0,0-0.1,0c-0.5,0.3-1,0.5-1.5,0.8c0,0,0,0,0,0c-0.3,0.2-0.7,0.4-1,0.5c-0.3,0.2-0.7,0.4-1,0.5
		c0,0-0.1,0-0.1,0.1c-0.4,0.2-0.9,0.5-1.3,0.7c0,0,0,0,0,0c-0.6,0.4-1.2,0.7-1.8,1.1c-0.2,0.1-0.3,0.2-0.5,0.3
		c-0.1,0.1-0.2,0.1-0.2,0.1c-0.2,0.1-0.5,0.3-0.7,0.5c0,0,0,0,0,0c-1,0.7-2.1,1.4-3.1,2.1h0c-0.3,0.2-0.6,0.5-0.9,0.7
		c0,0-0.1,0.1-0.1,0.1c-0.7,0.5-1.3,1-1.9,1.5c0,0,0,0,0,0c-0.4,0.3-0.7,0.6-1.1,0.9c0,0,0,0-0.1,0.1c-0.6,0.5-1.1,1-1.7,1.4l0,0
		c0,0,0,0-0.1,0.1c-0.4,0.3-0.7,0.6-1,0.9c0,0-0.1,0-0.1,0.1c-0.5,0.5-1,1-1.5,1.5c0,0-0.1,0-0.1,0.1c0,0,0,0-0.1,0.1
		c-0.3,0.3-0.7,0.6-1,1c0,0,0,0-0.1,0c-0.5,0.5-0.9,1-1.4,1.5c-0.1,0.1-0.1,0.1-0.2,0.2c0,0-0.1,0.1-0.1,0.1
		c-0.3,0.3-0.5,0.6-0.8,0.9c0,0,0,0,0,0c-0.6,0.7-1.2,1.4-1.8,2.1c-0.1,0.1-0.1,0.2-0.2,0.3c-0.1,0.1-0.2,0.2-0.3,0.4c0,0,0,0,0,0
		c-0.8,1-1.5,2-2.2,2.9c0,0,0,0,0,0c-0.1,0.2-0.3,0.4-0.4,0.6c-0.1,0.1-0.1,0.1-0.1,0.2c-0.1,0.1-0.2,0.3-0.3,0.4
		c-0.4,0.6-0.9,1.2-1.3,1.9c0,0,0,0,0,0c-0.2,0.3-0.4,0.7-0.6,1c0,0.1-0.1,0.1-0.1,0.1c-0.4,0.7-0.8,1.3-1.2,2c0,0,0,0,0,0.1
		c-0.2,0.4-0.4,0.7-0.6,1.1c0,0,0,0,0,0.1c-0.4,0.6-0.7,1.3-1.1,2c0,0,0,0.1-0.1,0.1c0,0,0,0,0,0c0,0,0,0.1,0,0.1
		c-0.2,0.4-0.4,0.7-0.6,1.1c0,0,0,0.1,0,0.1c0,0.1-0.1,0.1-0.1,0.2c-0.3,0.7-0.7,1.4-1,2.1c0,0,0,0.1-0.1,0.1
		c-0.1,0.3-0.3,0.7-0.5,1c0,0,0,0,0,0c-0.4,0.9-0.8,1.9-1.2,2.9c0,0.1-0.1,0.1-0.1,0.1c-0.1,0.1-0.1,0.3-0.2,0.4c0,0,0,0,0,0.1
		c-0.5,1.2-0.9,2.4-1.3,3.6h0c-0.1,0.2-0.1,0.3-0.2,0.5c0,0.1,0,0.1-0.1,0.2c-0.1,0.4-0.2,0.8-0.3,1.1c-0.2,0.6-0.4,1.2-0.6,1.8
		c0,0,0,0,0,0c-0.1,0.3-0.2,0.7-0.3,1c0,0,0,0.1,0,0.1c0,0,0,0.1,0,0.1c-0.1,0.5-0.3,1.1-0.4,1.6c-0.1,0.3-0.2,0.7-0.3,1
		c0,0,0,0,0,0c-0.1,0.4-0.2,0.9-0.3,1.3c0,0,0,0,0,0.1c-0.1,0.4-0.2,0.9-0.3,1.3c-0.1,0.3-0.1,0.7-0.2,1c-0.1,0.8-0.3,1.7-0.4,2.5
		c-0.1,0.6-0.2,1.3-0.3,1.9c-0.1,0.9-0.2,1.8-0.3,2.7c-0.1,0.6-0.1,1.2-0.2,1.8c-0.1,1-0.2,2-0.2,3.1c0,0.5-0.1,1-0.1,1.5
		c-0.1,1.6-0.1,3.1-0.1,4.7v27.1c0,0,0,0,0,0c0,1.7,0.1,3.4,0.1,5c0,0.5,0.1,1,0.1,1.6c0.1,1.2,0.2,2.3,0.3,3.5
		c0.1,0.6,0.1,1.1,0.2,1.7c0.2,1.1,0.4,2.3,0.6,3.4c0.1,0.5,0.2,1,0.3,1.5c0.3,1.6,0.7,3.2,1.1,4.8c0,0.1,0.1,0.2,0.1,0.3
		c0.4,1.5,0.8,2.9,1.3,4.4c0.2,0.5,0.3,1,0.5,1.5c0.4,1.1,0.7,2.1,1.1,3.1c0.2,0.5,0.4,1.1,0.7,1.6c0.4,1,0.9,2,1.3,3
		c0.2,0.5,0.4,1,0.7,1.4c0.7,1.4,1.4,2.8,2.2,4.2c0,0.1,0.1,0.1,0.1,0.3c0,0.1,0.1,0.1,0.1,0.2c0.7,1.4,1.5,2.6,2.3,3.9
		c0.3,0.5,0.6,0.9,0.9,1.4c0.7,1,1.4,2.1,2.1,3.1c0.3,0.4,0.6,0.8,0.9,1.2c1,1.3,2,2.6,3.1,3.9c0.3,0.3,0.6,0.7,0.9,1
		c0.8,1,1.7,1.9,2.6,2.9c0.4,0.4,0.8,0.9,1.2,1.2c0.9,0.9,1.9,1.9,2.9,2.8c0.3,0.2,0.6,0.5,0.8,0.8c1.2,1.1,2.5,2.2,3.8,3.3
		c0.4,0.3,0.8,0.6,1.2,0.9c1,0.8,2,1.5,3,2.3c0.4,0.3,0.9,0.6,1.3,0.9c1.4,0.9,2.8,1.9,4.2,2.8c0.1,0.1,0.2,0.1,0.3,0.1
		c1.4,0.9,2.8,1.6,4.3,2.4c0.4,0.3,0.9,0.5,1.3,0.7c1.2,0.6,2.4,1.2,3.6,1.7c0.4,0.2,0.8,0.4,1.2,0.5c1.6,0.7,3.2,1.3,4.8,2
		c0.3,0.1,0.5,0.2,0.8,0.3c1.4,0.5,2.8,1,4.2,1.4c0.5,0.1,0.9,0.3,1.4,0.4c1.5,0.4,3,0.8,4.5,1.1c0.2,0.1,0.4,0.1,0.7,0.2
		c1.8,0.4,3.5,0.7,5.3,0.9c0.4,0,0.7,0.1,1.1,0.1c1.5,0.2,3,0.4,4.4,0.5c0.4,0,0.9,0.1,1.3,0.1c1.8,0.1,3.7,0.2,5.5,0.2
		c18.3,0,35.2-5.8,49.1-15.7c10.9-7.7,19.9-17.9,26.2-29.8c6.6-12.3,10.3-26.3,10.3-41.2V442.2v-2.6v-1.5v-1.8
		C951,435.7,950.9,435.2,950.9,434.7z M829,590.2c-0.3-0.5-0.5-1-0.8-1.4c-0.1-0.2-0.3-0.5-0.4-0.7c-0.6-1.1-1.1-2.2-1.6-3.3
		c-0.1-0.3-0.2-0.5-0.3-0.8c-0.4-0.9-0.7-1.9-1-2.8c-0.1-0.3-0.2-0.6-0.3-0.9c-0.3-1.2-0.6-2.4-0.9-3.6c-0.1-0.2-0.1-0.5-0.1-0.7
		c-0.2-1-0.3-2-0.5-3.1c0-0.4-0.1-0.8-0.1-1.2c-0.1-1.2-0.2-2.4-0.2-3.6c0-0.1,0-0.2,0-0.3v-32.1c0-11.9,4.7-22.5,12.4-30.2
		c7.7-7.7,18.3-12.4,30.2-12.4h42.5l0,0v5.9l0,0v22.6v46l0,0c0,4.9-0.9,9.7-2.4,14.1c-5.3,15.5-19,27-35.8,28.7
		c-1.4,0.2-2.9,0.2-4.4,0.2c-1.3,0-2.6-0.1-3.9-0.2c-0.3,0-0.6-0.1-0.9-0.1c-1.3-0.1-2.5-0.3-3.7-0.6c-0.1,0-0.2-0.1-0.3-0.1
		c-1.1-0.2-2.3-0.6-3.4-0.9c-0.1,0-0.1,0-0.2,0c-0.2-0.1-0.4-0.1-0.6-0.2c-1.2-0.4-2.3-0.8-3.4-1.3c-0.1-0.1-0.3-0.1-0.4-0.2
		c-1-0.4-2-0.9-3-1.5c-0.2-0.1-0.5-0.2-0.7-0.4c-1.1-0.6-2.1-1.2-3.1-1.9c-0.2-0.1-0.3-0.2-0.5-0.4c-0.9-0.6-1.7-1.2-2.6-1.9
		c-0.2-0.2-0.4-0.3-0.6-0.5c-0.9-0.8-1.8-1.6-2.6-2.5c-0.2-0.1-0.3-0.3-0.5-0.5c-0.7-0.7-1.4-1.5-2.1-2.3c-0.1-0.2-0.3-0.4-0.4-0.5
		c-0.7-0.9-1.5-1.9-2.1-2.9c-0.1-0.2-0.3-0.4-0.4-0.7C829.5,590.9,829.3,590.5,829,590.2C829,590.2,829,590.2,829,590.2z"/>
	<path fill="#A2C056" d="M724.5,434.6c0-1.4-0.1-2.8-0.1-4.2c0,0,0,0,0,0c0-0.5-0.1-1.1-0.1-1.6c0-0.1,0-0.1,0-0.2
		c-0.1-1-0.1-2-0.2-3c0,0,0,0,0-0.1c-0.1-0.6-0.1-1.2-0.2-1.9c0,0,0-0.1,0-0.1c-0.1-0.9-0.2-1.8-0.4-2.8c0,0,0,0,0-0.1
		c0-0.1,0-0.1,0-0.2c-0.1-0.6-0.2-1.1-0.3-1.7c0,0,0,0,0-0.1c-0.2-0.9-0.3-1.8-0.5-2.7c0,0,0-0.1,0-0.1c-0.1-0.4-0.2-0.8-0.3-1.2
		c0-0.2-0.1-0.4-0.1-0.7c0,0,0,0,0,0c-0.2-1-0.4-1.9-0.7-2.9c0-0.1,0-0.1,0-0.1c-0.1-0.5-0.3-1-0.4-1.6c0,0,0,0,0,0
		c-0.4-1.4-0.8-2.8-1.2-4.1c0,0,0,0,0-0.1c-0.1-0.2-0.2-0.5-0.2-0.7c0,0,0,0,0,0c-0.4-1.1-0.8-2.2-1.2-3.3c-0.1-0.2-0.2-0.5-0.3-0.7
		c0,0,0,0,0,0c-0.1-0.3-0.2-0.5-0.3-0.8c-0.1-0.2-0.2-0.4-0.3-0.6c-0.4-1-0.8-2-1.2-2.9c-0.1-0.3-0.3-0.6-0.4-0.8
		c-0.1-0.1-0.1-0.3-0.2-0.4c-0.6-1.3-1.3-2.7-2-4c-0.1-0.2-0.2-0.4-0.3-0.7c-0.1-0.1-0.2-0.3-0.2-0.4c-0.7-1.3-1.4-2.5-2.1-3.7
		c-0.2-0.3-0.4-0.6-0.5-0.9v0c-0.1-0.1-0.1-0.2-0.2-0.3c-0.1-0.2-0.3-0.4-0.4-0.6c-0.3-0.5-0.7-1.1-1-1.6c-0.1-0.2-0.3-0.4-0.4-0.6
		c-0.1-0.2-0.2-0.3-0.3-0.4c-0.2-0.3-0.4-0.7-0.7-1l0,0c-0.3-0.4-0.6-0.8-0.8-1.2c0,0,0,0,0,0c-1-1.4-2.1-2.9-3.2-4.2c0,0,0,0,0,0
		c-1.1-1.4-2.3-2.6-3.4-3.9c0,0,0,0,0,0c-0.2-0.2-0.4-0.4-0.5-0.6c-0.1-0.1-0.3-0.3-0.4-0.5v0c-1-1.1-2-2.1-3.1-3.1v0
		c-0.3-0.2-0.5-0.5-0.7-0.7c-1.3-1.2-2.6-2.3-4-3.4c1.2,1,2.5,2.1,3.7,3.2c-1.2-1.1-2.4-2.2-3.7-3.2c-0.2-0.2-0.4-0.4-0.7-0.5
		c-0.1-0.1-0.2-0.1-0.3-0.2c-1.1-0.9-2.3-1.8-3.4-2.6c-0.4-0.3-0.7-0.5-1-0.7c-1.5-1-2.9-2-4.4-2.9c-0.1-0.1-0.3-0.2-0.4-0.3
		c-1.4-0.8-2.8-1.6-4.2-2.3c-0.4-0.2-0.8-0.4-1.2-0.6c-1.5-0.7-2.9-1.4-4.5-2c0,0-0.1,0-0.1,0c-0.1,0-0.2-0.1-0.3-0.1
		c-1.6-0.7-3.3-1.3-5-1.9c-0.2-0.1-0.3-0.1-0.5-0.2c-0.2-0.1-0.4-0.1-0.6-0.2c-1.4-0.5-2.9-0.9-4.3-1.2c-0.2,0-0.4-0.1-0.5-0.1
		c-0.2,0-0.3-0.1-0.5-0.1c-1.8-0.4-3.5-0.8-5.4-1.1c-0.3,0-0.5-0.1-0.8-0.1c-1.6-0.2-3.1-0.4-4.7-0.6c-0.4,0-0.9-0.1-1.3-0.1
		c-0.1,0-0.2,0-0.3,0c-1.3-0.1-2.6-0.1-3.9-0.2c-0.5,0-0.9,0-1.4,0c-0.1,0-0.1,0-0.1,0l0,0h0h0h-0.1l0,0h-0.1l0,0c0,0,0,0,0,0l0,0
		l0,0h0c-0.1,0-0.1,0-0.2,0c-1.3,0-2.7,0-4.1,0.1c0,0,0,0,0,0c-0.1,0-0.2,0-0.3,0h0l0,0c-0.1,0-0.3,0-0.5,0c0,0-0.1,0-0.1,0
		c-0.1,0-0.1,0-0.2,0c0,0,0,0,0,0c-1,0-2.1,0.1-3.1,0.1c-0.3,0-0.7,0-1,0.1c-0.1,0-0.2,0-0.3,0c-0.1,0-0.2,0-0.3,0c0,0,0,0,0,0h0
		l0,0c0,0,0,0,0,0c-0.9,0-1.8,0.1-2.7,0.2c-0.7,0.1-1.5,0.1-2.2,0.2c0,0-0.1,0-0.1,0c0,0,0,0,0,0c0,0,0,0,0,0l0,0l0,0c0,0,0,0,0,0
		c-0.9,0.1-1.7,0.2-2.6,0.2c0.9-0.1,1.7-0.2,2.6-0.2c-0.1,0-0.1,0-0.2,0c-0.4,0-0.9,0.1-1.3,0.1c-1.1,0.1-2.1,0.2-3.2,0.3
		c0,0,0,0-0.1,0c0,0-0.1,0-0.1,0c-0.2,0-0.4,0-0.6,0.1c0,0,0,0,0,0c0,0,0,0,0,0c0,0,0,0,0,0c-1.1,0.1-2.3,0.3-3.4,0.4
		c-0.6,0.1-1.2,0.1-1.8,0.2c0,0-0.1,0-0.1,0c-0.1,0-0.1,0-0.2,0c-0.7,0.1-1.3,0.2-1.9,0.3c-1.1,0.1-2.2,0.3-3.3,0.5c0,0,0,0,0,0
		c-0.5,0.1-0.9,0.1-1.4,0.2c-0.3,0.1-0.7,0.1-1,0.2c-0.9,0.2-1.8,0.3-2.7,0.5v0c0,0,0,0,0,0l0,0c-0.1,0-0.2,0-0.3,0.1
		c-1.4,0.3-2.8,0.6-4.1,1c0,0,0,0,0,0c-0.1,0-0.2,0.1-0.3,0.1c-0.1,0-0.1,0-0.2,0.1c0,0,0,0,0,0c-0.9,0.2-1.8,0.5-2.6,0.8
		c0,0-0.1,0-0.1,0l0,0l0,0v-5.5v-120l0,0v-4.4v-1.5l0,0h-44.2v2.6v3.3v426.5h2.9h41.2v-210v-48.4l0,0l0,0h42c0.1,0,0.2,0,0.4,0
		c1.2,0,2.4,0.1,3.5,0.2c0.5,0,0.9,0.1,1.4,0.1c0.9,0.1,1.7,0.2,2.6,0.4c0.5,0.1,0.9,0.2,1.4,0.3c1,0.2,2,0.5,2.9,0.7
		c0.3,0.1,0.5,0.1,0.7,0.2c1.2,0.4,2.3,0.8,3.5,1.2c0.4,0.1,0.7,0.3,1.1,0.5c0.8,0.4,1.6,0.7,2.4,1.1c0.4,0.2,0.8,0.4,1.2,0.6
		c0.8,0.5,1.6,0.9,2.4,1.4c0.3,0.2,0.5,0.3,0.8,0.5c1,0.7,2,1.4,2.9,2.2c0.3,0.2,0.5,0.4,0.8,0.7c0.7,0.6,1.4,1.2,2,1.8
		c0.3,0.3,0.6,0.6,0.9,0.9c0.7,0.6,1.3,1.3,1.8,2c0.2,0.3,0.5,0.5,0.7,0.8c0.8,0.9,1.5,1.9,2.2,2.9c0.2,0.2,0.3,0.5,0.5,0.7
		c0.5,0.8,1,1.6,1.5,2.5c0.2,0.4,0.4,0.7,0.6,1.1c0.4,0.8,0.8,1.6,1.2,2.4c0.2,0.4,0.3,0.7,0.5,1.1c0.1,0.1,0.1,0.3,0.2,0.4
		c0,0.1,0.1,0.1,0.1,0.2c0.2,0.5,0.4,1,0.5,1.5c0.2,0.6,0.4,1.1,0.6,1.7c0.3,0.8,0.4,1.6,0.7,2.5c0.1,0.5,0.3,1,0.4,1.5
		c0.2,1,0.3,2,0.5,3.1c0.1,0.4,0.1,0.7,0.2,1.1c0.1,1.4,0.2,2.8,0.2,4.3v216h2.9h40.1V469.8v-28.7V441v-5.8
		C724.5,435,724.5,434.8,724.5,434.6z"/>
	<path fill="#A2C056" d="M500.3,429.7C500.3,429.7,500.3,429.6,500.3,429.7c0-1.3,0-2.5-0.1-3.7c0-0.1,0-0.2,0-0.3
		c0-0.1,0-0.2,0-0.3c0-0.6-0.1-1.1-0.1-1.7c0,0,0,0,0,0c-0.1-1-0.1-2-0.2-2.9c0,0,0,0,0,0c-0.1-0.7-0.2-1.4-0.3-2.1c0,0,0,0,0,0
		c-0.1-0.9-0.2-1.8-0.4-2.8l0,0c-0.1-0.7-0.2-1.3-0.3-1.9c0-0.1,0-0.2,0-0.3c0,0,0,0,0,0c0-0.1-0.1-0.3-0.1-0.4
		c-0.1-0.7-0.3-1.5-0.4-2.2c-0.1-0.6-0.3-1.2-0.4-1.8c0-0.1-0.1-0.3-0.1-0.4h0c-0.1-0.4-0.2-0.9-0.3-1.3c-0.1-0.4-0.2-0.9-0.3-1.3
		c-0.1-0.4-0.2-0.7-0.3-1.1c-0.1-0.4-0.2-0.7-0.3-1.1l0,0c-0.2-0.9-0.5-1.7-0.8-2.5c-0.2-0.7-0.5-1.4-0.7-2.1
		c-0.3-0.8-0.6-1.7-0.9-2.5c-0.3-0.7-0.5-1.3-0.8-2c-0.3-0.8-0.7-1.6-1-2.4c-0.2-0.5-0.4-0.9-0.6-1.4c-0.1-0.3-0.3-0.6-0.4-0.8
		c-0.2-0.4-0.3-0.7-0.5-1.1c-0.5-1-1-2.1-1.6-3.1c-0.1-0.2-0.2-0.4-0.3-0.6h0c-0.7-1.2-1.3-2.4-2-3.5c-0.1-0.1-0.1-0.2-0.2-0.3
		c-0.1-0.2-0.2-0.4-0.4-0.6c-0.6-0.9-1.1-1.8-1.7-2.7c-0.2-0.3-0.4-0.6-0.6-0.9c-0.3-0.5-0.7-0.9-1-1.4c-1.2-1.8-2.5-3.5-3.9-5.2
		c0,0,0,0,0,0c-0.2-0.3-0.5-0.5-0.7-0.8c-0.7-0.8-1.4-1.6-2.1-2.4c0,0,0,0,0,0c-0.1-0.2-0.3-0.3-0.5-0.5c-0.1-0.1-0.1-0.2-0.2-0.3
		l0,0c-0.3-0.3-0.6-0.7-0.9-1c-0.6-0.7-1.2-1.3-1.9-2l0,0c0,0-0.1-0.1-0.1-0.1c-0.1-0.1-0.2-0.2-0.3-0.3c-0.8-0.8-1.7-1.6-2.5-2.4
		c-0.3-0.3-0.6-0.5-0.9-0.8c-0.6-0.5-1.2-1.1-1.8-1.6c-0.2-0.2-0.5-0.4-0.7-0.6c0,0,0,0,0,0c-0.2-0.1-0.4-0.3-0.6-0.5h0
		c-0.7-0.6-1.5-1.2-2.2-1.7c-0.3-0.3-0.7-0.5-1-0.8l0,0c-0.2-0.2-0.5-0.4-0.7-0.5c0,0,0,0,0,0c-0.9-0.6-1.7-1.3-2.6-1.9c0,0,0,0,0,0
		c-0.3-0.2-0.6-0.4-0.9-0.6c0,0,0,0,0,0c-1.1-0.7-2.1-1.4-3.2-2.1c0,0,0,0,0,0c-0.1,0-0.1-0.1-0.2-0.1l0,0c-0.8-0.5-1.7-1-2.5-1.5
		c-0.3-0.2-0.7-0.4-1-0.6l0,0c-0.2-0.1-0.5-0.3-0.7-0.4c-0.1,0-0.1-0.1-0.2-0.1c-0.5-0.3-1-0.5-1.5-0.8c-0.4-0.2-0.9-0.5-1.3-0.7
		c0,0,0,0,0,0c-0.2-0.1-0.3-0.1-0.5-0.2c-0.1-0.1-0.3-0.1-0.4-0.2c-1-0.5-2.1-1-3.1-1.4c-0.2-0.1-0.4-0.2-0.7-0.3l0,0
		c-0.1,0-0.1-0.1-0.2-0.1c-0.1,0-0.1,0-0.2-0.1c0,0,0,0,0,0c0,0,0,0-0.1,0h0c0,0,0,0,0,0h0c-1.1-0.5-2.3-0.9-3.4-1.4v0
		c-0.4-0.1-0.7-0.3-1.1-0.4h0c-1-0.4-2.1-0.7-3.2-1.1l0,0c-0.3-0.1-0.5-0.2-0.8-0.3l0,0c-1.2-0.4-2.4-0.7-3.5-1
		c-0.2,0-0.3-0.1-0.5-0.1c-0.3-0.1-0.6-0.1-0.8-0.2c0,0,0,0,0,0c-0.2-0.1-0.4-0.1-0.6-0.2c-0.9-0.2-1.8-0.4-2.6-0.6
		c-0.2,0-0.4-0.1-0.6-0.1c-0.2,0-0.4-0.1-0.6-0.1h0c-1-0.2-2-0.4-3-0.5c-1.3-0.2-2.5-0.4-3.8-0.5c0,0,0,0,0,0c-1-0.1-2-0.2-3-0.3
		c-1-0.1-2-0.2-2.9-0.2l0,0c-0.2,0-0.5-0.1-0.7-0.1c-0.1,0-0.3,0-0.4,0c0,0-0.1,0-0.1,0l0,0c-0.6,0-1.1,0-1.7-0.1
		c-0.9,0-1.8-0.1-2.7-0.1c-0.9,0-1.8,0-2.7,0.1h0c0,0,0,0,0,0c-0.1,0-0.3,0-0.4,0c-0.3,0-0.7,0-1,0c-0.3,0-0.5,0-0.8,0l0,0l0,0
		c-0.9,0-1.7,0.1-2.6,0.2c0,0-0.1,0-0.1,0c-0.5,0-1,0.1-1.6,0.1c-0.2,0-0.4,0-0.6,0c-0.9,0.1-1.8,0.2-2.8,0.4
		c-0.7,0.1-1.3,0.1-2,0.3c-0.9,0.1-1.9,0.3-2.8,0.5c-0.4,0.1-0.8,0.1-1.2,0.2c-0.2,0-0.5,0.1-0.7,0.1c0,0,0,0,0,0
		c-0.7,0.1-1.3,0.3-2,0.5c-0.2,0-0.4,0.1-0.6,0.1c-0.1,0-0.2,0-0.2,0.1c-0.2,0.1-0.4,0.1-0.6,0.1c-0.4,0.1-0.8,0.2-1.2,0.3
		c-0.9,0.2-1.8,0.5-2.7,0.8c-0.1,0-0.1,0-0.2,0.1c-0.5,0.2-1.1,0.3-1.6,0.5l0,0c-0.1,0-0.2,0.1-0.3,0.1c-0.7,0.2-1.4,0.5-2,0.7
		c-0.2,0.1-0.3,0.1-0.5,0.2c-0.5,0.2-1,0.3-1.5,0.5c0,0-0.1,0-0.1,0c-0.4,0.2-0.9,0.4-1.3,0.5c-0.3,0.1-0.5,0.2-0.8,0.3
		c-0.2,0.1-0.4,0.2-0.7,0.3c-0.5,0.2-1,0.4-1.5,0.6c0,0,0,0,0,0c-0.2,0.1-0.5,0.2-0.7,0.3c-0.5,0.2-1.1,0.5-1.6,0.8
		c-0.2,0.1-0.4,0.1-0.5,0.2c-0.4,0.2-0.9,0.4-1.3,0.6v0c-0.7,0.4-1.5,0.7-2.2,1.1c-0.2,0.1-0.5,0.2-0.7,0.4
		c-0.4,0.2-0.8,0.4-1.2,0.6c0,0,0,0,0,0c-0.5,0.3-1,0.6-1.5,0.9c-0.4,0.3-0.9,0.5-1.3,0.8c-0.4,0.2-0.7,0.4-1.1,0.6c0,0,0,0,0,0
		c-0.4,0.3-0.8,0.5-1.2,0.8c0,0,0,0-0.1,0c-0.1,0.1-0.2,0.1-0.3,0.2c-0.4,0.3-0.9,0.5-1.3,0.8c-0.3,0.2-0.6,0.4-0.9,0.6c0,0,0,0,0,0
		c-0.5,0.3-1,0.7-1.5,1c-0.5,0.3-1,0.7-1.5,1c-0.2,0.2-0.5,0.4-0.7,0.5c0,0,0,0,0,0c-0.1,0.1-0.2,0.2-0.4,0.3
		c-0.1,0.1-0.3,0.2-0.5,0.4c-0.7,0.5-1.4,1.1-2.1,1.6c-0.2,0.2-0.4,0.3-0.6,0.5c0,0,0,0,0,0l0,0c0,0-0.1,0.1-0.1,0.1
		c-0.2,0.2-0.4,0.3-0.6,0.5c-0.7,0.7-1.5,1.3-2.2,1.9c-0.1,0.1-0.3,0.3-0.5,0.4c0,0,0,0,0,0c-0.1,0-0.1,0.1-0.1,0.1
		c-0.9,0.9-1.9,1.8-2.8,2.7c-0.1,0.1-0.2,0.2-0.3,0.3c-0.5,0.5-0.9,0.9-1.4,1.4c-0.2,0.3-0.5,0.5-0.7,0.8c-0.3,0.3-0.5,0.5-0.8,0.8
		c-0.1,0.1-0.2,0.1-0.2,0.2c-0.9,1-1.7,2-2.5,2.9c0,0,0,0,0,0c0,0-0.1,0.1-0.1,0.1c-0.2,0.3-0.5,0.6-0.7,0.9
		c-0.1,0.2-0.3,0.3-0.4,0.5c-0.7,0.8-1.3,1.7-2,2.6c-0.5,0.7-1,1.3-1.5,2c-1,1.4-1.9,2.9-2.9,4.3c-0.1,0.2-0.2,0.3-0.3,0.5
		c-0.1,0.2-0.3,0.5-0.4,0.7c-0.3,0.5-0.6,1-0.9,1.5c-0.6,1.1-1.2,2.2-1.8,3.3c-0.1,0.3-0.3,0.5-0.4,0.8c-0.3,0.6-0.7,1.3-1,1.9
		c-0.2,0.4-0.3,0.7-0.5,1.1c-0.5,1-0.9,1.9-1.3,2.9c-0.3,0.7-0.6,1.4-0.9,2c-0.6,1.4-1.1,2.9-1.6,4.3c-0.2,0.6-0.4,1.2-0.7,1.8
		c0,0,0,0,0,0c-0.1,0.2-0.1,0.4-0.2,0.6c-0.6,1.9-1.2,3.7-1.6,5.6h0c0,0,0,0,0,0.1c-1.8,7.3-2.8,14.9-2.8,22.8v5.8v91.4v33.2
		c0,0.1,0,0.1,0,0.2c0,1.8,0.1,3.6,0.2,5.4c0,0.6,0.1,1.1,0.1,1.7c0.1,1.5,0.3,3,0.4,4.5c0.1,0.4,0.1,0.8,0.1,1.2
		c0.2,1.8,0.5,3.6,0.9,5.5c0.1,0.5,0.2,1,0.3,1.5c0.3,1.4,0.6,2.8,0.9,4.2c0.1,0.5,0.2,1,0.4,1.5c0.5,1.8,1,3.5,1.5,5.2
		c0.1,0.4,0.3,0.8,0.4,1.2c0.5,1.4,1,2.8,1.5,4.2c0.2,0.5,0.4,1.1,0.6,1.6c0.7,1.7,1.4,3.3,2.1,5c0.1,0.2,0.2,0.4,0.3,0.6
		c0.7,1.5,1.5,3,2.2,4.4c0.1,0.2,0.2,0.4,0.3,0.5c0.2,0.4,0.4,0.8,0.6,1.2c0.5,0.9,1.1,1.9,1.7,2.9c0.3,0.5,0.6,1,0.9,1.5
		c0.9,1.4,1.8,2.8,2.7,4.2c0.1,0.2,0.2,0.3,0.3,0.5c0.9,1.2,1.8,2.4,2.7,3.6c0.4,0.4,0.7,0.9,1.1,1.3c0.7,0.9,1.5,1.8,2.3,2.7
		c0.4,0.4,0.8,0.9,1.2,1.3c0.9,0.9,1.7,1.9,2.6,2.8c0.3,0.3,0.6,0.6,0.9,0.9c1.2,1.2,2.4,2.3,3.7,3.4c0.3,0.3,0.7,0.6,1.1,0.9
		c0.9,0.8,1.9,1.6,2.9,2.3c0.5,0.4,0.9,0.7,1.4,1.1c0.9,0.7,1.9,1.4,2.8,2c0.5,0.3,0.9,0.6,1.4,0.9c1.4,0.9,2.7,1.7,4.2,2.5
		c0.2,0.1,0.4,0.2,0.5,0.3c1.3,0.7,2.7,1.5,4.1,2.1c0.5,0.2,1.1,0.5,1.6,0.7c1,0.5,2.1,0.9,3.2,1.4c0.6,0.2,1.2,0.5,1.7,0.7
		c1.2,0.4,2.3,0.8,3.5,1.2c0.5,0.1,0.9,0.3,1.4,0.5c1.6,0.5,3.3,0.9,4.9,1.3c0.5,0.1,1,0.2,1.6,0.3c1.2,0.2,2.4,0.5,3.7,0.7
		c0.7,0.1,1.3,0.2,2,0.3c1.2,0.2,2.4,0.3,3.5,0.4c0.7,0.1,1.3,0.1,2,0.2c1.6,0.1,3.3,0.2,4.9,0.2c0.2,0,0.4,0,0.6,0
		c2.4,0,4.8-0.1,7.3-0.3c2.4-0.2,4.9-0.5,7.4-0.9l57.2-8.7l4.7-0.7l-1.3-33.9l-0.7-18.2l-0.1-2.2l-0.1-2.3l-0.1-1.5h-65.8
		c-0.1,0-0.2,0-0.4,0c-0.9,0-1.8-0.1-2.6-0.2c-0.4,0-0.7-0.1-1.1-0.2c-0.6-0.1-1.2-0.2-1.9-0.4c-0.4-0.1-0.7-0.2-1-0.3
		c0,0-0.1,0-0.1,0c-0.6-0.2-1.2-0.4-1.8-0.6c-0.3-0.1-0.7-0.2-1-0.4c-0.9-0.3-1.7-0.7-2.5-1.2c-0.1-0.1-0.2-0.1-0.3-0.2
		c-0.7-0.4-1.5-0.9-2.2-1.4c-0.3-0.2-0.5-0.4-0.8-0.6c-0.5-0.4-1-0.8-1.5-1.2c-0.3-0.2-0.5-0.5-0.7-0.7c-0.5-0.5-1-1-1.4-1.5
		c-0.2-0.2-0.4-0.4-0.6-0.6c-0.6-0.7-1.2-1.4-1.7-2.2c0,0,0-0.1-0.1-0.1l0,0c-0.4-0.6-0.8-1.2-1.1-1.9c-0.1-0.2-0.2-0.4-0.3-0.7
		c-0.3-0.5-0.5-1-0.7-1.5c-0.1-0.2-0.2-0.4-0.3-0.7c-0.3-0.6-0.5-1.3-0.7-1.9c0-0.1-0.1-0.1-0.1-0.2c-0.2-0.7-0.4-1.5-0.6-2.2
		c0-0.3-0.1-0.5-0.1-0.8c-0.1-0.5-0.2-1.1-0.3-1.6c0-0.3-0.1-0.5-0.1-0.8c-0.1-0.7-0.1-1.4-0.1-2.2c0-0.1,0-0.1,0-0.2v-29.8H466
		c18.8,0,34.2-14.9,34.2-34.2v-60.5v-5.8C500.3,430.4,500.3,430,500.3,429.7z M380.4,462.8v-32c0-14.4,11.6-26,26-26
		c0.1,0,0.3,0,0.4,0c0.6,0,1.2,0,1.9,0.1c0.3,0,0.6,0.1,0.9,0.1c0.5,0.1,0.9,0.1,1.4,0.2c0.3,0.1,0.6,0.1,0.9,0.2
		c0.5,0.1,0.9,0.2,1.4,0.4c0.3,0.1,0.5,0.1,0.8,0.2c0.7,0.2,1.4,0.5,2,0.8c0.2,0.1,0.4,0.2,0.6,0.3c0.5,0.2,1,0.5,1.4,0.7
		c0.3,0.1,0.5,0.3,0.8,0.4c0.4,0.2,0.8,0.5,1.2,0.8c0.2,0.2,0.5,0.3,0.7,0.5c0.4,0.3,0.9,0.7,1.3,1c0.2,0.1,0.3,0.2,0.5,0.4
		c0.6,0.5,1.1,1,1.6,1.5c0.1,0.1,0.3,0.3,0.4,0.4c0.4,0.4,0.8,0.8,1.1,1.2c0.2,0.2,0.3,0.4,0.5,0.6c0.3,0.4,0.6,0.9,0.9,1.3
		c0.1,0.2,0.3,0.4,0.4,0.6c0.4,0.6,0.7,1.2,1.1,1.8c0,0.1,0.1,0.1,0.1,0.2c0.4,0.7,0.7,1.4,1,2.1c0.1,0.2,0.1,0.3,0.2,0.5
		c0.1,0.4,0.3,0.7,0.4,1.1c0,0,0,0,0,0c0.1,0.2,0.1,0.4,0.2,0.5c0.1,0.3,0.1,0.5,0.2,0.8c0.1,0.5,0.3,1,0.4,1.5
		c0.1,0.3,0.1,0.6,0.2,0.9c0.1,0.6,0.2,1.1,0.3,1.7c0,0.2,0.1,0.5,0.1,0.7c0.1,0.8,0.1,1.7,0.1,2.5v32l0,0h-1.5h-42.5h-4.4l0,0
		L380.4,462.8L380.4,462.8z"/>
	<path fill="#A2C056" d="M284.2,223L284.2,223l0,0.7L284.2,223L284.2,223l0.2-4.3c-0.4-0.3-1.1-0.6-1.9-1c-0.2-0.1-0.4-0.2-0.6-0.3
		c0.2,0.1,0.4,0.2,0.6,0.3c0.8,0.4,1.4,0.7,1.9,1c-0.4-0.3-1.1-0.6-1.8-1c-0.2-0.1-0.5-0.2-0.7-0.3c-0.2-0.1-0.4-0.2-0.6-0.3
		c-0.1,0-0.1-0.1-0.3-0.1c-0.3-0.1-0.6-0.2-0.9-0.3c-0.3-0.1-0.7-0.3-1.1-0.4c-0.5-0.2-1-0.4-1.6-0.6c0,0-0.1,0-0.2,0
		c-0.7-0.2-1.4-0.4-2.1-0.7c-0.2,0-0.3-0.1-0.5-0.1c0,0-0.1,0-0.1,0c0,0,0,0,0,0c-0.1,0-0.1,0-0.1,0c-0.3-0.1-0.6-0.2-0.9-0.3
		c-0.2-0.1-0.4-0.1-0.6-0.2c-0.1,0-0.3-0.1-0.5-0.1c-0.1,0-0.3-0.1-0.5-0.1c-0.1,0-0.2,0-0.3-0.1c-0.5-0.1-1-0.3-1.6-0.4h0
		c-0.2,0-0.4-0.1-0.6-0.1c-0.6-0.1-1.3-0.3-1.9-0.4c-0.1,0-0.3-0.1-0.4-0.1c-0.2,0-0.3-0.1-0.5-0.1c-0.5-0.1-1.1-0.2-1.7-0.3
		c0,0,0,0,0,0c-0.1,0-0.3,0-0.4-0.1c-0.1,0-0.1,0-0.2,0c-0.7-0.1-1.4-0.2-2.1-0.3h0c-0.2,0-0.4,0-0.5-0.1c-0.1,0-0.1,0-0.1,0
		c0,0,0,0,0,0c-0.1,0-0.1,0-0.2,0c-0.6-0.1-1.3-0.2-2-0.2c0,0,0,0,0,0c-0.3,0-0.5-0.1-0.8-0.1l0,0c-0.7-0.1-1.4-0.1-2.2-0.2
		c-0.1,0-0.3,0-0.5,0c-0.2,0-0.4,0-0.5,0c0,0,0,0-0.1,0c-0.7,0-1.3-0.1-2-0.1c-0.2,0-0.4,0-0.7,0c-0.1,0-0.3,0-0.4,0
		c-0.1,0-0.1,0-0.2,0c0,0,0,0,0,0c-0.6,0-1.3,0-2,0l0,0l0,0c-1.5,0-2.9,0-4.4,0.1c-0.2,0-0.4,0-0.6,0c-0.3,0-0.5,0.1-0.8,0.1
		c-1,0.1-2,0.1-3,0.3c-0.6,0.1-1.1,0.1-1.6,0.2c-0.9,0.1-1.8,0.2-2.7,0.4c-0.5,0.1-1.1,0.2-1.6,0.3c-0.9,0.2-1.8,0.4-2.7,0.5
		c-0.5,0.1-1,0.2-1.5,0.3c-1,0.2-2.1,0.5-3.1,0.8c-0.4,0.1-0.7,0.2-1.1,0.3c-1.4,0.4-2.7,0.8-4.1,1.3c-0.4,0.1-0.8,0.3-1.2,0.4
		c-1,0.3-1.9,0.7-2.8,1.1c-0.5,0.2-1,0.4-1.6,0.7c-0.8,0.3-1.6,0.7-2.4,1c-0.5,0.2-1,0.5-1.5,0.7c-1.2,0.6-2.4,1.2-3.5,1.8
		c-0.3,0.2-0.6,0.3-0.9,0.5c-1.4,0.8-2.8,1.6-4.1,2.4c0,0,0,0,0,0c-0.4,0.3-0.8,0.5-1.2,0.8c0.3-0.2,0.5-0.4,0.8-0.5
		c-0.3,0.2-0.5,0.4-0.8,0.5c-0.3,0.2-0.6,0.4-0.9,0.6c-0.7,0.5-1.4,0.9-2.1,1.4c-0.4,0.3-0.8,0.6-1.2,0.9l0,0
		c-1.3,0.9-2.6,1.9-3.8,2.9c0,0,0,0,0,0c-0.3,0.2-0.5,0.4-0.8,0.6c0.2-0.2,0.4-0.4,0.6-0.5c-0.2,0.2-0.4,0.4-0.6,0.5
		c-0.5,0.4-1,0.9-1.5,1.3c-0.5,0.4-1,0.8-1.5,1.2c-0.1,0.1-0.3,0.3-0.5,0.4c-0.3,0.2-0.5,0.4-0.8,0.7c-1,0.9-2,1.8-2.9,2.7
		c-0.2,0.2-0.5,0.5-0.7,0.7c-0.6,0.6-1.2,1.2-1.8,1.8c-0.5,0.5-1,1.1-1.5,1.6c-0.3,0.4-0.7,0.8-1,1.1c0,0,0,0,0,0c0,0,0,0,0,0
		c-0.8,0.9-1.6,1.8-2.4,2.7v0c-0.3,0.4-0.6,0.8-0.9,1.1c-0.6,0.7-1.2,1.5-1.7,2.2c-0.4,0.5-0.8,1-1.2,1.6c-0.1,0.1-0.2,0.2-0.2,0.3
		c-0.1,0.2-0.3,0.4-0.5,0.6c-0.2,0.2-0.3,0.5-0.5,0.7c-0.6,0.8-1.1,1.6-1.7,2.4c-0.2,0.2-0.3,0.5-0.5,0.7c-0.1,0.2-0.3,0.4-0.4,0.6
		h0c-0.8,1.2-1.5,2.4-2.3,3.7l0,0c-0.1,0.2-0.2,0.4-0.3,0.6v0c-0.8,1.4-1.6,2.8-2.3,4.3c-0.1,0.1-0.1,0.2-0.2,0.3
		c-0.2,0.3-0.3,0.7-0.5,1c0,0,0,0,0,0c-0.6,1.1-1.1,2.3-1.6,3.5c0,0,0,0,0,0c-0.2,0.4-0.4,0.8-0.5,1.2c-0.2,0.4-0.3,0.8-0.5,1.2
		c-0.5,1.1-1,2.2-1.4,3.4c0,0.1-0.1,0.1-0.1,0.2c-0.1,0.3-0.2,0.6-0.4,0.9c-0.2,0.6-0.4,1.2-0.6,1.7c-0.2,0.7-0.5,1.3-0.7,2
		c-0.1,0.2-0.1,0.3-0.1,0.5c-0.1,0.3-0.2,0.6-0.3,0.9c-0.4,1.3-0.7,2.6-1.1,3.9c-0.1,0.3-0.2,0.6-0.3,0.9v0l0,0c0,0,0,0,0,0l0,0l0,0
		l0,0v0l0,0c0,0,0,0,0,0c0,0.1-0.1,0.2-0.1,0.4c0-0.1,0.1-0.2,0.1-0.4c0,0,0,0,0,0c-0.1,0.3-0.1,0.6-0.2,0.9
		c0.1-0.2,0.1-0.4,0.1-0.6c-0.4,1.7-0.8,3.4-1.1,5.2c0,0.1,0,0.1,0,0.2c0,0.1,0,0.2,0,0.3l0,0l0,0c-0.3,1.6-0.6,3.3-0.8,5
		c-0.1,0.6-0.1,1.1-0.2,1.7c-0.1,1.2-0.3,2.5-0.4,3.8c-0.1,0.6-0.1,1.2-0.1,1.7c-0.1,1.7-0.2,3.4-0.2,5c0,0.1,0,0.2,0,0.3v5.9v407.2
		l3-0.2l65.5-3.7v-248h0l0,0h51.4V409v-4.4v-1.5h-44h-4.4l0,0h-2.9v0h0v-92.8c0-14.4,11.6-26,25.4-26h31.5l2.5-60l0,0L284.2,223
		L284.2,223l0.2-4.3L284.2,223z"/>
	<polygon fill="#A2C056" points="0.5,226 0.5,226 0.5,226.2 -65.1,222 -68,221.8 -68,229.6 -68,651.1 -65.1,651.1 0.5,651.1 
		0.5,226.5 0.5,226.2 	"/>
	<g>
		<g>
			<path fill="#A2C056" d="M117.4,281.7c0,0,0-0.1,0-0.1l0,0c0,0,0,0,0,0c0-0.4-0.1-0.7-0.2-1.1c0,0,0-0.1,0-0.1
				c-0.1-0.9-0.2-1.7-0.4-2.6c0,0,0,0,0-0.1c-0.1-0.5-0.2-0.9-0.3-1.4c0,0,0,0,0,0c-0.1-0.4-0.2-0.7-0.3-1c-0.1-0.4-0.2-0.8-0.3-1.2
				c-0.1-0.5-0.3-1-0.5-1.5c0,0,0,0,0,0c-0.2-0.5-0.4-1-0.6-1.5c-0.1-0.2-0.1-0.4-0.2-0.5c0,0,0,0,0,0c-0.1-0.3-0.3-0.6-0.4-1
				c0,0,0,0,0,0c-0.3-0.7-0.7-1.5-1-2.2c0,0,0,0,0,0c-0.2-0.3-0.3-0.6-0.5-0.9l0,0c-0.3-0.5-0.6-1-0.9-1.4c-0.2-0.3-0.4-0.7-0.6-1
				c0,0,0,0,0,0c0,0,0,0,0,0c-0.1-0.1-0.2-0.3-0.3-0.5v0c-0.6-0.9-1.3-1.8-2-2.7c0,0,0,0,0,0l0,0c-0.2-0.2-0.4-0.5-0.6-0.7h0
				c-0.5-0.6-1.1-1.3-1.7-1.9c-0.1-0.1-0.2-0.2-0.3-0.3c-0.2-0.2-0.3-0.3-0.5-0.5c-0.1-0.1-0.3-0.2-0.4-0.4c-0.5-0.5-1-1-1.6-1.4
				c-0.2-0.2-0.4-0.3-0.6-0.5c-0.4-0.4-0.9-0.7-1.4-1c-0.5-0.3-0.9-0.7-1.4-1c-0.2-0.1-0.4-0.3-0.6-0.4c-0.5-0.4-1.1-0.7-1.7-1
				c-0.2-0.1-0.4-0.3-0.6-0.4c-0.3-0.2-0.6-0.4-1-0.5c-0.7-0.4-1.5-0.7-2.2-1c0,0-0.1,0-0.1-0.1c-0.3-0.1-0.6-0.3-0.9-0.4
				c-0.8-0.3-1.6-0.6-2.4-0.9c-0.3-0.1-0.6-0.2-0.9-0.3c-0.2-0.1-0.3-0.1-0.5-0.1c-0.9-0.3-1.9-0.5-2.9-0.7
				c-0.3-0.1-0.7-0.1-1.1-0.2c-0.5-0.1-0.9-0.1-1.4-0.2c-0.4-0.1-0.8-0.1-1.2-0.2c-0.4,0-0.7-0.1-1.1-0.1l0,0c-0.1,0-0.1,0-0.1,0
				c-1.2-0.1-2.3-0.2-3.5-0.2c0,0,0,0,0,0c-1.3,0-2.6,0.1-3.9,0.2c-0.4,0-0.9,0.1-1.3,0.2c-0.8,0.1-1.7,0.2-2.5,0.4
				c-0.5,0.1-1,0.2-1.5,0.4c-0.7,0.1-1.4,0.3-2,0.5c-0.1,0-0.1,0-0.1,0h0c-0.5,0.2-1,0.4-1.6,0.5c-0.6,0.2-1.3,0.5-1.9,0.7
				c0,0,0,0,0,0c-0.5,0.2-1,0.5-1.5,0.7c-0.3,0.1-0.6,0.3-0.9,0.4c-0.3,0.1-0.6,0.3-0.9,0.4c-0.5,0.3-1,0.6-1.5,0.9
				c-0.5,0.3-1.1,0.6-1.6,1c0,0-0.1,0-0.1,0.1c-0.5,0.3-0.9,0.7-1.4,1c-0.5,0.4-1,0.8-1.5,1.2c0,0,0,0,0,0c-0.4,0.4-0.9,0.7-1.3,1.1
				c-0.1,0.1-0.3,0.2-0.4,0.3c-0.4,0.3-0.7,0.6-1.1,1c-0.4,0.4-0.7,0.7-1.1,1.1c0,0-0.1,0.1-0.1,0.1c-0.5,0.5-0.9,1-1.3,1.5
				c-0.3,0.3-0.5,0.7-0.8,1c-0.1,0.1-0.2,0.2-0.3,0.3l0,0c-0.2,0.3-0.4,0.5-0.6,0.8c-0.2,0.3-0.4,0.5-0.6,0.8v0
				c-0.2,0.2-0.3,0.5-0.5,0.7c-0.1,0.2-0.3,0.4-0.4,0.7c-0.3,0.5-0.6,0.9-0.9,1.4c-0.1,0.1-0.1,0.2-0.2,0.3l0,0l0,0
				c-0.3,0.5-0.6,1-0.8,1.5v0c-0.1,0.2-0.2,0.4-0.3,0.7c-0.2,0.4-0.4,0.8-0.6,1.1c0,0,0,0,0,0c-0.2,0.5-0.5,1-0.7,1.5l0,0
				c-0.3,0.6-0.5,1.3-0.7,1.9c0,0,0,0,0,0c-0.2,0.5-0.4,1-0.5,1.6c0,0,0,0,0,0c-0.1,0.3-0.2,0.7-0.3,1.1c-0.1,0.3-0.2,0.6-0.2,0.9
				c0,0,0,0,0,0c-0.1,0.3-0.2,0.6-0.2,0.9c-0.1,0.2-0.1,0.4-0.1,0.7v0l0,0c0,0.2-0.1,0.4-0.1,0.5c-0.1,0.5-0.2,1-0.2,1.6
				c0,0,0,0,0,0.1c-0.1,0.5-0.2,1.1-0.2,1.6c0,0,0,0,0,0c0,0.2,0,0.3,0,0.5c-0.1,1-0.2,2-0.2,3c0,1.2,0.1,2.4,0.2,3.6
				c0,0.3,0.1,0.6,0.1,0.9c0.1,1.1,0.3,2.1,0.5,3.1c0,0.1,0,0.3,0.1,0.4c0.2,1.1,0.5,2.2,0.9,3.3c0.1,0.3,0.2,0.5,0.3,0.8
				c0.3,0.9,0.6,1.8,1,2.7c0.1,0.2,0.2,0.4,0.3,0.6c0.4,1,0.9,2,1.5,3c0.1,0.2,0.3,0.5,0.4,0.7c0.2,0.4,0.5,0.8,0.7,1.1
				c0.3,0.4,0.5,0.8,0.8,1.2c0.1,0.2,0.3,0.4,0.4,0.6c0.6,0.9,1.3,1.8,2,2.6c0.2,0.2,0.3,0.4,0.5,0.6c0.6,0.7,1.3,1.4,1.9,2.1
				c0.1,0.1,0.3,0.3,0.4,0.4c0.8,0.8,1.6,1.5,2.4,2.2c0.2,0.2,0.4,0.3,0.6,0.5c0.8,0.6,1.6,1.2,2.4,1.8c0.1,0.1,0.3,0.2,0.4,0.3
				c0.9,0.6,1.9,1.2,2.9,1.7c0.2,0.1,0.4,0.2,0.6,0.4c0.9,0.5,1.9,1,2.9,1.4c0.1,0,0.2,0.1,0.3,0.1c1.1,0.4,2.1,0.8,3.2,1.2
				c0.2,0.1,0.4,0.1,0.7,0.2c1.1,0.3,2.2,0.6,3.4,0.9c0,0,0,0,0,0c1.2,0.2,2.4,0.4,3.5,0.5c0.2,0,0.5,0.1,0.7,0.1
				c1.2,0.1,2.4,0.2,3.6,0.2c1.3,0,2.7-0.1,3.9-0.2c0.2,0,0.4-0.1,0.6-0.1c1.1-0.1,2.2-0.3,3.2-0.5c0.4-0.1,0.7-0.2,1-0.3
				c0.9-0.2,1.8-0.4,2.6-0.7c0.4-0.1,0.8-0.3,1.2-0.4c0.8-0.3,1.6-0.5,2.3-0.9c0.4-0.2,0.9-0.4,1.3-0.6c0.7-0.3,1.4-0.7,2.1-1
				c0.4-0.2,0.9-0.5,1.3-0.7c0.7-0.4,1.3-0.8,1.9-1.2c0.4-0.3,0.8-0.6,1.3-0.9c0.6-0.4,1.2-0.8,1.7-1.3c0.4-0.3,0.8-0.7,1.2-1
				c0.5-0.5,1-0.9,1.5-1.4c0.4-0.4,0.8-0.8,1.1-1.2c0.5-0.5,0.9-1,1.4-1.5c0.4-0.4,0.7-0.9,1-1.3c0.4-0.5,0.8-1.1,1.2-1.6
				c0.3-0.5,0.7-0.9,0.9-1.4c0.4-0.6,0.7-1.1,1-1.7c0.3-0.5,0.6-1,0.8-1.5c0.3-0.6,0.6-1.2,0.9-1.8c0.2-0.5,0.5-1.1,0.7-1.6
				c0.2-0.6,0.5-1.2,0.7-1.9c0.2-0.6,0.4-1.1,0.5-1.7c0.2-0.6,0.4-1.3,0.5-1.9c0.1-0.6,0.3-1.2,0.4-1.8c0.1-0.7,0.2-1.3,0.3-2
				c0.1-0.6,0.2-1.2,0.2-1.8c0-0.2,0-0.5,0-0.7c0.1-0.9,0.1-1.8,0.1-2.7C117.6,284.2,117.5,283,117.4,281.7z"/>
			<polygon fill="#A2C056" points="44.1,340.7 44.1,343.3 44.1,346.6 44.1,562.6 44.1,651.1 47.1,651.1 112.6,651.1 112.6,351.7 
				112.6,351.7 112.6,350.3 112.6,350.3 112.6,345.9 112.6,344.6 112.6,344.6 			"/>
		</g>
	</g>
</g>
</svg>
