<?xml version="1.0" encoding="iso-8859-1"?><!-- Generator: Adobe Illustrator 16.0.0, SVG Export Plug-In . SVG Version: 6.00 Build 0) --><!DOCTYPE svg PUBLIC "-//W3C//DTD SVG 1.1//EN" "http://www.w3.org/Graphics/SVG/1.1/DTD/svg11.dtd"><svg version="1.1" id="Layer_1" xmlns="http://www.w3.org/2000/svg" xmlns:xlink="http://www.w3.org/1999/xlink" x="0px" y="0px" width="362.015px" height="79.507px" viewBox="0 0 362.015 79.507" style="enable-background:new 0 0 362.015 79.507;" xml:space="preserve"><g><g><path style="fill:#A2C056;" d="M217.637,44.182l-0.31-0.557l-0.178-0.312v-0.002l0,0l12.41-21.038l0.403-0.688l0.138-0.23h-0.86	h-6.945v0.001l-0.453,0.752l0,0l0.176-0.29l-0.176,0.29l-7.519,12.452l-3.521,5.834c-0.188,0.323-0.354,0.611-0.492,0.873	c-0.021,0.031-0.035,0.062-0.051,0.09c-0.051,0.096-0.102,0.188-0.145,0.271c-0.021,0.04-0.038,0.079-0.06,0.116	c-0.027,0.057-0.056,0.108-0.078,0.167c-0.011,0.015-0.02,0.031-0.025,0.049c-0.02,0.041-0.034,0.08-0.053,0.118	c-0.027,0.063-0.055,0.125-0.08,0.188c-0.014,0.035-0.024,0.074-0.041,0.11c-0.021,0.058-0.041,0.114-0.055,0.169	c-0.013,0.036-0.021,0.072-0.031,0.105c-0.018,0.054-0.025,0.107-0.036,0.156c-0.007,0.035-0.015,0.068-0.019,0.104	c-0.01,0.051-0.014,0.102-0.018,0.154c-0.005,0.029-0.007,0.061-0.007,0.094c-0.004,0.053,0,0.105,0.002,0.156	c0,0.029,0,0.059,0.005,0.084c0.008,0.061,0.018,0.115,0.024,0.178c0.006,0.021,0.006,0.045,0.012,0.066	c0.017,0.072,0.037,0.146,0.061,0.22c0.005,0.013,0.007,0.021,0.011,0.03c0.107,0.338,0.291,0.707,0.549,1.17	c0.014,0.023,0.025,0.047,0.039,0.07c0.074,0.127,0.149,0.262,0.229,0.4l13.036,22.729h7.49h0.057L217.637,44.182z"/><polygon style="fill:#A2C056;" points="201.971,1.286 201.971,1.693 201.971,2.203 201.971,31.396 201.971,68.27 202.428,68.27	208.832,68.27 208.832,2.203 208.832,1.516 208.832,1.286	"/></g><path style="fill:#A2C056;" d="M288.589,21.721c-0.481-0.201-0.97-0.381-1.481-0.536c-0.144-0.042-0.282-0.082-0.431-0.121	c-0.006-0.002-0.021-0.005-0.03-0.007c-0.121-0.033-0.248-0.064-0.379-0.095c-0.014-0.003-0.029-0.005-0.045-0.009	c-0.113-0.026-0.229-0.053-0.349-0.076c-0.012-0.001-0.021-0.003-0.028-0.005c-0.789-0.156-1.658-0.258-2.656-0.288	c-0.105-0.002-0.207-0.003-0.312-0.003l0,0l0,0c-0.008,0-0.015,0-0.021,0c-0.244,0.001-0.482,0.008-0.727,0.021	c-0.066,0.002-0.133,0.008-0.203,0.014c-0.167,0.011-0.334,0.021-0.503,0.04c-0.089,0.007-0.177,0.019-0.264,0.028	c-0.146,0.018-0.289,0.036-0.436,0.057c-0.088,0.013-0.176,0.026-0.267,0.041c-0.146,0.024-0.288,0.051-0.432,0.078	c-0.057,0.014-0.114,0.021-0.174,0.032c-0.023,0.005-0.049,0.014-0.072,0.019c-0.165,0.034-0.328,0.073-0.489,0.116	c-0.06,0.016-0.116,0.028-0.175,0.042c-0.215,0.059-0.422,0.12-0.633,0.188c-0.012,0.004-0.022,0.006-0.035,0.01	c-0.021,0.006-0.044,0.018-0.064,0.023c-0.296,0.099-0.584,0.203-0.866,0.318c-0.033,0.014-0.062,0.024-0.096,0.037	c-0.283,0.117-0.566,0.247-0.842,0.384c-0.028,0.016-0.06,0.027-0.092,0.042c-0.023,0.014-0.05,0.028-0.076,0.041	c-0.191,0.101-0.382,0.201-0.568,0.31c-0.002,0.001-0.006,0.004-0.01,0.005c-0.025,0.015-0.05,0.029-0.074,0.043	c-0.182,0.108-0.363,0.22-0.545,0.336c-0.043,0.029-0.086,0.06-0.131,0.088c-0.021,0.016-0.04,0.027-0.063,0.042	c-0.133,0.09-0.263,0.184-0.395,0.276c-0.032,0.022-0.062,0.046-0.094,0.069c-0.031,0.021-0.062,0.045-0.095,0.067	c-0.168,0.126-0.332,0.254-0.49,0.387c-0.002,0.001-0.002,0.002-0.002,0.003c-0.027,0.021-0.059,0.046-0.084,0.067	c0,0.001-0.002,0.002-0.002,0.002c-0.159,0.134-0.313,0.271-0.465,0.41c-0.06,0.053-0.112,0.109-0.172,0.164	c-0.113,0.106-0.224,0.217-0.336,0.329c-0.025,0.027-0.052,0.054-0.078,0.082c-0.027,0.03-0.056,0.058-0.082,0.087	c-0.049,0.049-0.095,0.102-0.142,0.152c-0.095,0.102-0.188,0.201-0.274,0.306h-0.002c-0.027,0.028-0.049,0.055-0.072,0.083	c-0.002,0.002-0.006,0.003-0.006,0.003c-0.129,0.158-0.262,0.314-0.385,0.477c-0.049,0.063-0.095,0.122-0.144,0.186	c-0.071,0.096-0.141,0.193-0.211,0.291c-0.023,0.03-0.047,0.06-0.065,0.09c-0.023,0.031-0.045,0.063-0.066,0.095	c-0.021,0.031-0.043,0.063-0.063,0.095c-0.118,0.173-0.234,0.347-0.344,0.524c0,0.001,0,0.002-0.002,0.003	c-0.019,0.026-0.033,0.054-0.05,0.081c-0.067,0.111-0.131,0.228-0.194,0.339c-0.037,0.067-0.082,0.134-0.116,0.202	c-0.01,0.014-0.02,0.027-0.022,0.04c-0.026,0.053-0.057,0.106-0.086,0.16c-0.072,0.14-0.146,0.281-0.219,0.424c0,0,0,0.001,0,0.003	c-0.021,0.042-0.043,0.082-0.062,0.125c-0.015,0.024-0.022,0.051-0.036,0.076c-0.053,0.107-0.1,0.218-0.146,0.328	c-0.039,0.088-0.082,0.175-0.119,0.263c-0.004,0.009-0.006,0.02-0.01,0.028c-0.005,0.011-0.013,0.022-0.015,0.037	c-0.024,0.058-0.046,0.116-0.065,0.175c-0.059,0.14-0.115,0.28-0.166,0.42c-0.025,0.071-0.05,0.141-0.07,0.208	c-0.057,0.155-0.104,0.31-0.153,0.466c-0.011,0.037-0.021,0.072-0.031,0.108c-0.01,0.035-0.021,0.065-0.031,0.1	c-0.062,0.219-0.123,0.438-0.178,0.659v0.001c-0.002,0-0.002,0-0.002,0s0,0.001,0,0.002c0,0.003,0,0.007,0,0.011	c-0.081,0.337-0.148,0.679-0.205,1.021c-0.004,0.009-0.004,0.019-0.008,0.028c-0.021,0.134-0.04,0.266-0.058,0.398	c-0.01,0.073-0.021,0.146-0.031,0.217c-0.005,0.033-0.005,0.067-0.009,0.104c-0.025,0.227-0.05,0.457-0.062,0.686	c-0.002,0.013-0.004,0.025-0.004,0.039c-0.002,0.009-0.002,0.02-0.004,0.026c-0.011,0.209-0.016,0.421-0.02,0.631	c-0.004,0.076-0.006,0.153-0.006,0.229v0.001v0.917v0.004V68.27h0.457h6.403V34.82v-0.001c0-1.919,0.87-3.938,2.244-5.38	c0.117-0.124,0.238-0.241,0.363-0.357c0.113-0.101,0.225-0.197,0.343-0.29c0.803-0.651,1.729-1.109,2.733-1.277	c0.123-0.02,0.246-0.036,0.373-0.048c0.152-0.015,0.305-0.023,0.461-0.023l7.459,0.172c0.063-1.11,0.123-2.316,0.188-3.67	c0.002-0.095,0.01-0.188,0.014-0.284c0-0.023,0.002-0.05,0.002-0.073c0.008-0.197,0.02-0.397,0.025-0.603l0,0	c0-0.015,0.004-0.029,0.004-0.044c0-0.014,0-0.026,0-0.042v-0.002c0.01-0.197,0.018-0.396,0.024-0.6	C289.445,22.091,289.02,21.898,288.589,21.721z"/><path style="fill:#A2C056;" d="M260.615,33.527c-0.003-0.024-0.005-0.05-0.005-0.076c-0.014-0.196-0.026-0.393-0.045-0.585	c0-0.006,0-0.011,0-0.017c-0.004-0.031-0.012-0.062-0.014-0.093c-0.012-0.111-0.025-0.22-0.039-0.33	c-0.013-0.069-0.02-0.139-0.027-0.208c0-0.001,0-0.001,0-0.001c-0.01-0.062-0.021-0.125-0.028-0.185	c-0.023-0.149-0.054-0.298-0.08-0.444c-0.012-0.067-0.027-0.135-0.042-0.203c-0.024-0.118-0.053-0.238-0.081-0.354	c-0.002-0.021-0.01-0.038-0.013-0.06c-0.002,0-0.002-0.002-0.002-0.002c-0.018-0.067-0.029-0.134-0.049-0.201	c-0.021-0.083-0.049-0.167-0.068-0.25c-0.021-0.063-0.036-0.127-0.057-0.19c-0.015-0.053-0.028-0.106-0.047-0.16	c-0.008-0.024-0.016-0.046-0.021-0.07c-0.057-0.171-0.11-0.342-0.172-0.51c-0.018-0.041-0.031-0.081-0.049-0.121	c-0.057-0.15-0.11-0.299-0.172-0.446c-0.03-0.069-0.059-0.14-0.09-0.209c-0.035-0.079-0.07-0.158-0.105-0.233	c-0.012-0.026-0.021-0.055-0.035-0.082c-0.118-0.25-0.237-0.499-0.37-0.74c-0.021-0.036-0.04-0.072-0.062-0.106	c-0.113-0.215-0.241-0.425-0.369-0.631c-0.042-0.068-0.083-0.135-0.129-0.203c-0.118-0.185-0.241-0.363-0.372-0.542	c-0.025-0.04-0.054-0.083-0.083-0.123c-0.01-0.011-0.018-0.023-0.024-0.034c-0.165-0.222-0.336-0.437-0.514-0.647	c-0.05-0.058-0.099-0.117-0.149-0.172c-0.161-0.188-0.323-0.369-0.497-0.547c-0.01-0.013-0.021-0.022-0.031-0.035	c-0.015-0.015-0.025-0.03-0.043-0.044c-0.176-0.18-0.358-0.352-0.547-0.52c-0.018-0.017-0.033-0.035-0.053-0.054l0,0	c-0.047-0.041-0.094-0.082-0.144-0.123c-0.008-0.007-0.014-0.014-0.021-0.021c-0.179-0.156-0.359-0.307-0.547-0.453	c-0.04-0.03-0.078-0.063-0.117-0.094v-0.001c-0.223-0.169-0.449-0.329-0.677-0.483c-0.05-0.034-0.1-0.065-0.149-0.097	c-0.004-0.004-0.014-0.009-0.016-0.013c-0.197-0.127-0.396-0.249-0.601-0.364c-0.033-0.021-0.065-0.041-0.104-0.062	c-0.018-0.011-0.031-0.021-0.052-0.031c-0.242-0.137-0.491-0.266-0.743-0.387c-0.021-0.01-0.042-0.019-0.063-0.029	c-0.03-0.015-0.064-0.03-0.099-0.044c-0.163-0.074-0.329-0.145-0.493-0.213c-0.049-0.021-0.098-0.044-0.148-0.063	c-0.062-0.026-0.126-0.053-0.19-0.077c-0.262-0.103-0.529-0.195-0.8-0.279c-0.049-0.015-0.098-0.025-0.145-0.041	c-0.229-0.069-0.467-0.132-0.701-0.188c-0.069-0.017-0.146-0.034-0.221-0.051c-0.275-0.062-0.559-0.116-0.846-0.161	c-0.029-0.005-0.064-0.008-0.098-0.013c-0.257-0.038-0.521-0.066-0.784-0.088c-0.075-0.006-0.153-0.013-0.231-0.019	c-0.013,0-0.027,0-0.043-0.001c-0.263-0.019-0.521-0.029-0.791-0.031c-0.021,0-0.037-0.001-0.057-0.001	c-0.183,0-0.363,0.006-0.547,0.014c-0.125,0.006-0.257,0.012-0.383,0.022c-0.146,0.009-0.288,0.017-0.433,0.032	c-0.08,0.008-0.162,0.02-0.244,0.03c-0.099,0.012-0.198,0.025-0.301,0.04c-0.039,0.005-0.08,0.008-0.117,0.014v0.001	c-0.09,0.014-0.179,0.029-0.271,0.047c-0.092,0.015-0.186,0.031-0.276,0.049c-0.035,0.007-0.07,0.012-0.105,0.019	c-0.094,0.021-0.188,0.043-0.28,0.064c-0.122,0.025-0.243,0.053-0.361,0.083c-0.095,0.023-0.188,0.052-0.283,0.078	c-0.116,0.032-0.229,0.063-0.346,0.099c-0.093,0.029-0.184,0.061-0.275,0.09c0,0.001-0.006,0.001-0.008,0.002	c-0.031,0.013-0.062,0.024-0.096,0.034c-0.08,0.026-0.156,0.053-0.238,0.081c-0.092,0.033-0.182,0.07-0.272,0.104	c-0.109,0.043-0.22,0.086-0.329,0.131c-0.094,0.04-0.186,0.08-0.272,0.12c-0.076,0.033-0.154,0.069-0.232,0.104	c-0.027,0.014-0.055,0.024-0.084,0.039c-0.088,0.042-0.173,0.086-0.262,0.129c-0.104,0.054-0.211,0.107-0.312,0.163	c-0.088,0.046-0.173,0.094-0.257,0.143c-0.104,0.057-0.203,0.114-0.301,0.174c-0.085,0.049-0.167,0.102-0.251,0.154	c-0.098,0.062-0.192,0.124-0.288,0.188c-0.084,0.054-0.16,0.108-0.242,0.166l0,0c-0.013,0.008-0.021,0.015-0.032,0.022	c-0.084,0.06-0.168,0.119-0.251,0.179c-0.078,0.058-0.152,0.115-0.229,0.175c-0.094,0.072-0.188,0.144-0.275,0.217	c-0.073,0.061-0.147,0.123-0.221,0.185c-0.09,0.076-0.178,0.152-0.266,0.23c-0.07,0.063-0.144,0.127-0.209,0.192	c-0.088,0.081-0.174,0.163-0.256,0.246c-0.003,0-0.003,0-0.003,0.001c-0.069,0.063-0.134,0.131-0.198,0.196	c-0.017,0.021-0.035,0.039-0.051,0.059c-0.066,0.066-0.132,0.134-0.191,0.2c0,0-0.004,0.004-0.006,0.004	c-0.062,0.067-0.121,0.135-0.183,0.203c-0.002,0.001-0.002,0.001-0.004,0.001c-0.08,0.09-0.158,0.182-0.231,0.271	c-0.002,0.003-0.006,0.004-0.006,0.007c-0.06,0.069-0.115,0.137-0.173,0.207c0,0,0,0,0,0.001c-0.03,0.038-0.062,0.079-0.092,0.118	c-0.043,0.055-0.087,0.109-0.129,0.165c-0.006,0.004-0.01,0.008-0.012,0.011c-0.051,0.07-0.104,0.142-0.158,0.211	c0,0,0,0.001,0,0.003c-0.021,0.03-0.045,0.063-0.063,0.092c-0.05,0.066-0.097,0.134-0.146,0.202	c-0.002,0.006-0.006,0.011-0.01,0.016c-0.049,0.069-0.102,0.14-0.146,0.212c-0.002,0.003-0.002,0.004-0.002,0.006	c-0.026,0.039-0.051,0.077-0.076,0.115c-0.038,0.063-0.08,0.125-0.116,0.188c-0.006,0.008-0.011,0.015-0.017,0.021	c-0.044,0.07-0.088,0.141-0.13,0.212c-0.005,0.002-0.005,0.004-0.007,0.007c-0.039,0.066-0.076,0.134-0.112,0.201	c-0.021,0.04-0.044,0.078-0.066,0.116c-0.002,0.009-0.01,0.018-0.016,0.026c-0.039,0.069-0.077,0.139-0.118,0.208	c0,0.004,0,0.006-0.004,0.007c-0.022,0.05-0.047,0.103-0.073,0.15c-0.031,0.062-0.059,0.119-0.089,0.178	c-0.008,0.015-0.017,0.027-0.021,0.041c-0.034,0.065-0.067,0.132-0.102,0.2c-0.002,0.001-0.002,0.005-0.004,0.007	c-0.049,0.106-0.095,0.214-0.145,0.323c-0.003,0.008-0.009,0.015-0.009,0.021c-0.004,0.004-0.004,0.008-0.006,0.012	c-0.008,0.014-0.014,0.027-0.02,0.042c-0.025,0.062-0.06,0.122-0.083,0.183c0,0.004,0,0.005-0.003,0.009	c-0.05,0.12-0.097,0.243-0.144,0.365c-0.033,0.08-0.062,0.159-0.093,0.24c-0.049,0.134-0.094,0.269-0.136,0.405	c-0.023,0.071-0.05,0.142-0.07,0.212c-0.07,0.232-0.137,0.472-0.195,0.709v0.003c-0.004,0-0.004,0.001-0.004,0.001	c0,0.012-0.004,0.023-0.004,0.038c-0.045,0.173-0.086,0.347-0.121,0.521c-0.018,0.086-0.033,0.175-0.051,0.262c0,0,0,0.002,0,0.005	s0,0.006,0,0.01c-0.022,0.124-0.048,0.25-0.066,0.378c-0.016,0.099-0.024,0.201-0.039,0.302c0,0,0,0.003,0,0.004	c0,0.006,0,0.011-0.004,0.017c-0.016,0.113-0.027,0.227-0.043,0.34c-0.012,0.109-0.018,0.219-0.023,0.329	c-0.013,0.1-0.02,0.197-0.021,0.299c0,0.012-0.004,0.027-0.004,0.041c-0.019,0.248-0.023,0.498-0.023,0.75c0,0.001,0,0.004,0,0.005	v21.268c0,0.275,0.011,0.55,0.027,0.821c0.002,0.074,0.008,0.149,0.014,0.222c0.019,0.237,0.039,0.469,0.066,0.702	c0.006,0.043,0.008,0.086,0.015,0.127c0.034,0.267,0.077,0.531,0.128,0.793c0.013,0.074,0.027,0.146,0.041,0.217	c0.045,0.215,0.094,0.428,0.146,0.64c0.014,0.062,0.025,0.121,0.041,0.181c0.069,0.259,0.146,0.515,0.226,0.769	c0.018,0.062,0.042,0.123,0.062,0.185c0.069,0.207,0.143,0.408,0.219,0.608c0.023,0.065,0.049,0.134,0.076,0.195	c0.096,0.25,0.202,0.493,0.313,0.731c0.019,0.045,0.037,0.085,0.06,0.126c0.1,0.206,0.199,0.409,0.311,0.612	c0.016,0.023,0.025,0.048,0.039,0.074c0.021,0.039,0.043,0.08,0.064,0.119c0.09,0.162,0.186,0.322,0.28,0.479	c0.027,0.052,0.058,0.101,0.089,0.147c0.128,0.205,0.262,0.404,0.397,0.603c0.031,0.045,0.063,0.09,0.098,0.132	c0.107,0.152,0.22,0.305,0.333,0.447c0.05,0.062,0.1,0.125,0.147,0.186c0.107,0.133,0.217,0.265,0.33,0.393	c0.049,0.054,0.096,0.109,0.146,0.164c0.147,0.163,0.299,0.322,0.456,0.477c0.012,0.016,0.023,0.028,0.035,0.04	c0.173,0.168,0.351,0.331,0.531,0.488c0.045,0.041,0.094,0.079,0.145,0.119c0.135,0.116,0.273,0.229,0.418,0.343	c0.06,0.043,0.114,0.084,0.172,0.128c0.148,0.11,0.304,0.22,0.459,0.322c0.043,0.03,0.087,0.063,0.132,0.092	c0.205,0.133,0.414,0.261,0.627,0.382c0.012,0.006,0.021,0.012,0.032,0.018c0.198,0.113,0.403,0.218,0.61,0.316	c0.053,0.023,0.11,0.049,0.163,0.075c0.174,0.08,0.35,0.152,0.523,0.226c0.059,0.021,0.114,0.043,0.17,0.063	c0.213,0.084,0.43,0.155,0.646,0.226c0.018,0.006,0.033,0.013,0.052,0.019c0.245,0.073,0.491,0.14,0.747,0.196	c0.029,0.009,0.064,0.017,0.101,0.021c0.211,0.047,0.428,0.088,0.649,0.121c0.06,0.01,0.116,0.019,0.179,0.026	c0.209,0.028,0.418,0.053,0.631,0.067c0.051,0.005,0.102,0.011,0.151,0.015c0.267,0.02,0.531,0.03,0.806,0.03	c0.69,0,1.403-0.06,2.137-0.188l8.231-1.288c-0.021-0.176-0.038-0.348-0.057-0.521c-0.01-0.104-0.021-0.205-0.029-0.309	c-0.006-0.074-0.012-0.146-0.02-0.221c-0.01-0.116-0.021-0.232-0.025-0.353c-0.007-0.063-0.013-0.127-0.018-0.188	c-0.01-0.125-0.02-0.252-0.028-0.381c-0.003-0.056-0.007-0.108-0.011-0.168c-0.01-0.139-0.02-0.273-0.027-0.42	c0-0.041-0.003-0.086-0.009-0.129c-0.027-0.494-0.054-1.018-0.076-1.585c-0.003-0.043-0.005-0.084-0.007-0.128	c0-0.006,0-0.013,0-0.017c-0.01-0.218-0.02-0.439-0.027-0.675c0-0.058-0.004-0.108-0.008-0.172c0-0.017,0-0.035,0-0.056h-8.663	c-0.211,0-0.416-0.013-0.623-0.034c-0.035-0.002-0.076-0.006-0.113-0.011c-0.205-0.021-0.408-0.05-0.605-0.093	c-0.002,0-0.002,0-0.004,0c-0.194-0.041-0.385-0.092-0.572-0.149c-0.011-0.003-0.018-0.003-0.021-0.006	c-0.031-0.008-0.057-0.017-0.086-0.026c-0.188-0.06-0.373-0.129-0.554-0.203c-0.013-0.006-0.022-0.012-0.034-0.02	c-0.17-0.07-0.338-0.15-0.5-0.24c-0.029-0.018-0.06-0.031-0.086-0.047c-0.172-0.094-0.338-0.195-0.496-0.306	c-0.018-0.015-0.033-0.024-0.051-0.034c-0.146-0.105-0.29-0.213-0.426-0.327c-0.023-0.019-0.047-0.039-0.07-0.058	c-0.146-0.123-0.289-0.255-0.423-0.393c-0.02-0.018-0.037-0.039-0.058-0.062c-0.119-0.122-0.236-0.253-0.349-0.39	c-0.021-0.022-0.039-0.045-0.06-0.066c-0.117-0.148-0.229-0.3-0.334-0.457c-0.022-0.032-0.039-0.064-0.062-0.097	c-0.039-0.063-0.084-0.118-0.117-0.187c-0.004,0-0.004-0.001-0.004-0.004c-0.045-0.074-0.082-0.15-0.129-0.229	c-0.021-0.035-0.039-0.07-0.057-0.106c-0.091-0.168-0.173-0.34-0.246-0.519c-0.014-0.034-0.027-0.072-0.043-0.109	c-0.063-0.148-0.113-0.301-0.164-0.456c-0.014-0.042-0.027-0.087-0.039-0.134c-0.059-0.188-0.104-0.376-0.146-0.567	c-0.006-0.028-0.008-0.055-0.016-0.082c-0.033-0.171-0.058-0.342-0.074-0.517c-0.008-0.051-0.014-0.105-0.018-0.157	c-0.021-0.201-0.029-0.403-0.029-0.612v-7.287l0,0h16.554c0.94,0,1.799-0.363,2.42-0.978c0.623-0.608,1.01-1.467,1.01-2.454V34.22	C260.633,33.989,260.625,33.758,260.615,33.527z M253.857,34.22v7.203h-0.228h-11.833h-0.688h-0.459V34.22l0,0	c0-2.997,1.925-5.54,4.623-6.389c0.625-0.195,1.289-0.301,1.98-0.301c0.205,0,0.401,0.012,0.602,0.03	c0.063,0.005,0.121,0.014,0.18,0.021c0.146,0.018,0.289,0.041,0.429,0.066c0.062,0.012,0.121,0.022,0.182,0.035	c0.17,0.039,0.344,0.083,0.513,0.135c0.016,0.006,0.036,0.011,0.052,0.016c0.187,0.059,0.369,0.129,0.548,0.204	c0.051,0.021,0.102,0.044,0.15,0.067c0.132,0.059,0.258,0.12,0.383,0.188c0.053,0.029,0.106,0.057,0.16,0.086	c0.141,0.08,0.276,0.165,0.411,0.255c0.025,0.018,0.055,0.033,0.078,0.051c0.158,0.108,0.313,0.226,0.459,0.347	c0.041,0.032,0.078,0.069,0.121,0.104c0.106,0.093,0.213,0.189,0.313,0.288c0.045,0.044,0.089,0.087,0.13,0.132	c0.104,0.109,0.207,0.222,0.307,0.338c0.026,0.033,0.056,0.063,0.084,0.097c0.119,0.146,0.232,0.302,0.34,0.458	c0.029,0.044,0.059,0.09,0.087,0.134c0.077,0.12,0.149,0.241,0.22,0.366c0.031,0.058,0.064,0.114,0.097,0.173	c0.067,0.128,0.129,0.258,0.188,0.389c0.021,0.049,0.046,0.098,0.063,0.146c0.006,0.013,0.014,0.025,0.02,0.038	c0.005,0.012,0.007,0.023,0.013,0.035c0.028,0.08,0.055,0.162,0.087,0.244c0.031,0.097,0.07,0.193,0.101,0.292	c0.035,0.117,0.063,0.235,0.092,0.354c0.025,0.092,0.052,0.184,0.07,0.276c0.029,0.142,0.045,0.286,0.064,0.432	c0.01,0.074,0.024,0.146,0.033,0.221C253.846,33.768,253.857,33.992,253.857,34.22L253.857,34.22z"/><path style="fill:#A2C056;" d="M187.934,35.145c0.055-0.001,0.108-0.002,0.16-0.004c0.108-0.004,0.223-0.007,0.333-0.01	c0.146-0.005,0.294-0.009,0.445-0.014c0.086-0.002,0.172-0.006,0.259-0.008c0.215-0.004,0.432-0.01,0.65-0.014	c0.005,0,0.005,0,0.01,0c0.836-0.019,1.723-0.033,2.673-0.055c0.224-0.005,0.45-0.013,0.681-0.018	c0.047-0.001,0.092-0.001,0.14-0.003c0.313-0.009,0.638-0.018,0.971-0.029v-0.857c0-0.163-0.008-0.327-0.015-0.489	c0-0.033,0-0.064,0-0.095c-0.008-0.118-0.016-0.232-0.021-0.348c-0.01-0.112-0.018-0.225-0.026-0.336	c-0.01-0.109-0.021-0.219-0.035-0.328c-0.002-0.018-0.002-0.032-0.006-0.048c-0.012-0.1-0.023-0.198-0.041-0.298	c-0.012-0.104-0.03-0.211-0.047-0.313c-0.021-0.113-0.041-0.229-0.062-0.341c-0.021-0.105-0.043-0.209-0.068-0.313	c-0.021-0.109-0.047-0.221-0.072-0.332c-0.026-0.103-0.057-0.206-0.082-0.309c-0.002-0.006-0.002-0.012-0.006-0.02	c-0.025-0.104-0.06-0.208-0.09-0.311c-0.029-0.101-0.062-0.2-0.094-0.299c-0.031-0.094-0.063-0.187-0.095-0.278	c-0.008-0.01-0.012-0.023-0.014-0.033v-0.001c-0.035-0.1-0.07-0.2-0.109-0.298c-0.034-0.094-0.072-0.187-0.11-0.28	c-0.004-0.008-0.008-0.016-0.012-0.025c-0.04-0.101-0.083-0.2-0.125-0.298c-0.025-0.058-0.053-0.11-0.078-0.166	c-0.009-0.024-0.021-0.049-0.031-0.072c-0.113-0.242-0.229-0.481-0.354-0.716c-0.012-0.019-0.02-0.034-0.028-0.052	c0-0.003,0-0.004-0.004-0.005v-0.001c-0.133-0.251-0.279-0.496-0.435-0.734c-0.023-0.043-0.051-0.082-0.076-0.122	c-0.012-0.018-0.021-0.034-0.032-0.05c-0.142-0.214-0.281-0.423-0.437-0.628c-0.018-0.027-0.037-0.057-0.055-0.084	c-0.174-0.228-0.351-0.448-0.531-0.666c-0.043-0.047-0.086-0.095-0.127-0.142c-0.164-0.187-0.33-0.37-0.504-0.548	c-0.015-0.014-0.027-0.025-0.041-0.04c-0.015-0.018-0.031-0.036-0.051-0.055c-0.197-0.201-0.406-0.396-0.617-0.583	c-0.047-0.039-0.092-0.077-0.138-0.116c-0.186-0.16-0.372-0.314-0.563-0.465c-0.037-0.026-0.066-0.054-0.104-0.08	c-0.006-0.004-0.009-0.009-0.019-0.012v-0.002c-0.229-0.172-0.463-0.336-0.695-0.493c-0.044-0.028-0.086-0.055-0.127-0.082	c-0.207-0.135-0.421-0.263-0.635-0.386c-0.049-0.028-0.102-0.058-0.148-0.086c-0.25-0.139-0.506-0.269-0.765-0.393	c-0.031-0.014-0.065-0.029-0.097-0.044c-0.01-0.003-0.018-0.008-0.023-0.01l0,0c-0.172-0.078-0.348-0.151-0.522-0.224	c-0.057-0.022-0.109-0.049-0.164-0.071c-0.062-0.023-0.123-0.049-0.184-0.071c-0.271-0.103-0.541-0.197-0.816-0.281	c-0.009-0.002-0.015-0.005-0.021-0.006c-0.029-0.01-0.06-0.017-0.091-0.026c-0.243-0.071-0.489-0.138-0.739-0.195	c-0.07-0.017-0.142-0.032-0.208-0.05c-0.271-0.059-0.544-0.109-0.817-0.152c-0.016-0.001-0.031-0.006-0.043-0.008	c-0.023-0.002-0.049-0.006-0.074-0.01c-0.062-0.01-0.129-0.014-0.19-0.021c-0.205-0.025-0.409-0.052-0.617-0.07	c-0.003,0-0.003,0-0.003,0c-0.077-0.007-0.151-0.012-0.229-0.018c-0.297-0.021-0.595-0.034-0.896-0.034	c-0.122,0-0.242,0.006-0.362,0.01c-0.003,0-0.003,0-0.006,0l0,0c-0.104,0.002-0.205,0.003-0.307,0.007	c-0.01,0.001-0.017,0.001-0.023,0.001l0,0l0,0c-0.115,0.007-0.229,0.019-0.34,0.026c-0.003,0.001-0.01,0.001-0.015,0.001	c-0.108,0.007-0.217,0.014-0.323,0.025c-0.001,0-0.001,0-0.001,0c-0.11,0.012-0.22,0.028-0.328,0.042	c-0.005,0.001-0.014,0.003-0.02,0.003c-0.106,0.014-0.215,0.024-0.321,0.04l0,0c-0.068,0.012-0.139,0.024-0.207,0.038	c-0.044,0.008-0.089,0.016-0.134,0.022c-0.016,0.002-0.032,0.006-0.048,0.008c-0.088,0.017-0.178,0.03-0.267,0.047	c0,0,0,0-0.002,0.003c-0.121,0.024-0.239,0.054-0.356,0.083c-0.006,0-0.013,0.003-0.021,0.005c-0.088,0.021-0.178,0.04-0.268,0.062	l-0.001,0.001c-0.098,0.024-0.192,0.054-0.289,0.082c-0.028,0.007-0.061,0.016-0.09,0.025c-0.083,0.023-0.169,0.046-0.251,0.07	c-0.003,0.002-0.003,0.002-0.003,0.002l0,0c-0.018,0.006-0.035,0.012-0.055,0.018c-0.076,0.025-0.15,0.051-0.229,0.078	c-0.041,0.014-0.08,0.026-0.119,0.042c-0.073,0.024-0.146,0.046-0.218,0.073c0,0,0,0-0.003,0c0,0,0,0,0,0.001	c-0.026,0.008-0.055,0.021-0.082,0.031c-0.082,0.03-0.16,0.063-0.242,0.097c-0.039,0.015-0.075,0.028-0.112,0.044	c-0.056,0.021-0.111,0.042-0.164,0.065c-0.002,0-0.002,0-0.004,0c-0.002,0.001-0.004,0.003-0.008,0.005	c-0.113,0.05-0.23,0.104-0.347,0.158c-0.041,0.02-0.082,0.035-0.123,0.054c-0.036,0.018-0.074,0.033-0.109,0.053	c-0.004,0-0.004,0-0.004,0c-0.14,0.066-0.277,0.142-0.415,0.214c-0.025,0.015-0.058,0.029-0.085,0.044	c-0.021,0.013-0.05,0.023-0.073,0.039c0,0,0,0-0.004,0.001c-0.101,0.056-0.201,0.117-0.306,0.176	c-0.008,0.004-0.01,0.007-0.017,0.009c-0.075,0.042-0.147,0.085-0.221,0.129c-0.004,0.001-0.01,0.004-0.013,0.007	c-0.001,0.001-0.003,0.004-0.005,0.004c-0.007,0.002-0.007,0.004-0.011,0.006c-0.159,0.097-0.313,0.198-0.47,0.301	c-0.091,0.06-0.175,0.122-0.263,0.184c-0.108,0.078-0.221,0.153-0.326,0.234c-0.063,0.049-0.127,0.1-0.19,0.15	c-0.105,0.083-0.215,0.167-0.318,0.252c-0.067,0.057-0.134,0.114-0.198,0.173c-0.097,0.084-0.193,0.167-0.291,0.253	c-0.054,0.049-0.104,0.1-0.157,0.152c-0.106,0.099-0.212,0.197-0.313,0.302c-0.039,0.041-0.078,0.083-0.119,0.125	c-0.108,0.114-0.219,0.227-0.322,0.343c-0.162,0.181-0.32,0.366-0.473,0.555c-0.055,0.067-0.106,0.139-0.157,0.207	c-0.104,0.129-0.201,0.26-0.298,0.393c-0.016,0.02-0.028,0.043-0.045,0.063c-0.041,0.061-0.084,0.12-0.123,0.182	c-0.092,0.132-0.178,0.264-0.264,0.399c-0.027,0.04-0.055,0.083-0.079,0.123c-0.022,0.038-0.047,0.074-0.07,0.112	c-0.081,0.133-0.155,0.27-0.232,0.407c-0.023,0.04-0.047,0.08-0.068,0.122c-0.021,0.039-0.049,0.079-0.068,0.12	c-0.118,0.222-0.229,0.447-0.333,0.675c-0.009,0.011-0.012,0.021-0.018,0.032c-0.021,0.056-0.047,0.111-0.071,0.166	c-0.074,0.17-0.147,0.34-0.218,0.514c-0.025,0.07-0.055,0.145-0.081,0.215c-0.003,0.008-0.006,0.013-0.006,0.019	c-0.066,0.177-0.128,0.354-0.188,0.533c-0.021,0.068-0.043,0.135-0.064,0.206c-0.07,0.227-0.139,0.456-0.195,0.688	c-0.001,0.017-0.008,0.034-0.013,0.051c0,0.002-0.002,0.004-0.002,0.007l0,0v0.001c-0.257,1.042-0.396,2.129-0.396,3.252v0.89	v20.552c0,0.036,0.002,0.067,0.002,0.104c0.002,0.229,0.01,0.46,0.022,0.684c0.002,0.1,0.016,0.194,0.023,0.294	c0.012,0.168,0.025,0.338,0.047,0.506c0.012,0.098,0.022,0.197,0.037,0.298c0.022,0.176,0.053,0.351,0.084,0.524	c0.014,0.08,0.024,0.162,0.043,0.244c0.051,0.252,0.104,0.498,0.168,0.741c0.012,0.046,0.026,0.087,0.035,0.134	c0.057,0.203,0.115,0.406,0.181,0.606c0.025,0.08,0.052,0.157,0.079,0.233c0.057,0.173,0.119,0.339,0.183,0.507	c0.029,0.075,0.061,0.147,0.087,0.228c0.08,0.188,0.16,0.373,0.244,0.559c0.023,0.047,0.042,0.093,0.063,0.139	c0.109,0.229,0.225,0.456,0.348,0.682c0.006,0.015,0.016,0.029,0.023,0.043c0.012,0.021,0.023,0.043,0.038,0.064	c0.109,0.195,0.226,0.393,0.348,0.585c0.038,0.063,0.077,0.125,0.119,0.19c0.12,0.184,0.242,0.36,0.37,0.537	c0.028,0.041,0.058,0.086,0.089,0.123c0.152,0.211,0.315,0.418,0.482,0.616c0.043,0.054,0.088,0.106,0.134,0.156	c0.131,0.149,0.264,0.301,0.399,0.444c0.058,0.061,0.109,0.117,0.169,0.179c0.16,0.165,0.329,0.329,0.5,0.489	c0.022,0.02,0.042,0.039,0.065,0.061c0.188,0.174,0.386,0.341,0.588,0.504c0.061,0.053,0.125,0.1,0.188,0.153	c0.152,0.112,0.307,0.229,0.461,0.344c0.066,0.045,0.132,0.093,0.193,0.138c0.213,0.148,0.431,0.289,0.651,0.424	c0.034,0.021,0.07,0.043,0.107,0.063c0.191,0.112,0.386,0.224,0.582,0.325c0.074,0.039,0.148,0.078,0.224,0.115	c0.182,0.094,0.358,0.177,0.545,0.262c0.062,0.023,0.125,0.057,0.188,0.085c0.24,0.103,0.482,0.198,0.732,0.29	c0.057,0.02,0.117,0.04,0.176,0.057c0.197,0.069,0.396,0.137,0.598,0.195c0.081,0.021,0.159,0.046,0.24,0.064	c0.217,0.062,0.435,0.115,0.654,0.162c0.047,0.01,0.093,0.022,0.139,0.032c0.266,0.056,0.531,0.101,0.801,0.14	c0.072,0.014,0.144,0.021,0.22,0.026c0.207,0.03,0.416,0.05,0.629,0.068c0.08,0.007,0.16,0.014,0.242,0.02	c0.274,0.015,0.555,0.028,0.839,0.028c0.218,0,0.434-0.007,0.65-0.02c0.07-0.004,0.142-0.011,0.211-0.015	c0.146-0.009,0.289-0.016,0.433-0.032c0.084-0.009,0.166-0.02,0.25-0.028c0.128-0.018,0.258-0.029,0.386-0.05	c0.09-0.013,0.178-0.028,0.266-0.045c0.121-0.019,0.242-0.039,0.361-0.061c0.092-0.021,0.18-0.039,0.271-0.059	c0.114-0.026,0.231-0.051,0.35-0.078c0.09-0.023,0.18-0.049,0.268-0.071c0.113-0.031,0.229-0.062,0.342-0.094	c0.091-0.025,0.176-0.056,0.264-0.084c0.113-0.035,0.224-0.071,0.334-0.11c0.089-0.029,0.175-0.062,0.263-0.095	c0.107-0.039,0.217-0.081,0.322-0.122c0.088-0.034,0.172-0.07,0.258-0.107c0.104-0.045,0.211-0.09,0.317-0.139	c0.084-0.038,0.165-0.076,0.248-0.115c0.104-0.051,0.207-0.102,0.312-0.154c0.082-0.043,0.158-0.086,0.239-0.127	c0.103-0.057,0.204-0.109,0.306-0.17c0.078-0.045,0.156-0.091,0.233-0.137c0.101-0.062,0.199-0.12,0.298-0.183	c0.075-0.05,0.149-0.101,0.228-0.147c0.099-0.062,0.192-0.13,0.288-0.197c0.07-0.051,0.147-0.101,0.218-0.153	c0.096-0.068,0.188-0.138,0.282-0.211c0.07-0.056,0.141-0.104,0.207-0.162c0.095-0.074,0.188-0.149,0.277-0.228	c0.065-0.057,0.129-0.109,0.194-0.166c0.093-0.08,0.183-0.162,0.271-0.246c0.062-0.059,0.123-0.112,0.186-0.172	c0.089-0.085,0.175-0.173,0.263-0.261c0.059-0.06,0.117-0.115,0.174-0.176c0.086-0.091,0.172-0.187,0.256-0.278	c0.055-0.062,0.107-0.117,0.158-0.176c0.088-0.102,0.172-0.201,0.254-0.302c0.047-0.06,0.1-0.114,0.142-0.175	c0.089-0.107,0.173-0.223,0.259-0.336c0.037-0.052,0.077-0.103,0.115-0.151c0.093-0.128,0.181-0.261,0.271-0.392	c0.025-0.041,0.053-0.078,0.078-0.119c0.112-0.168,0.221-0.342,0.325-0.518c0.002-0.003,0.002-0.004,0.004-0.006	c0.214-0.359,0.408-0.73,0.588-1.112c0.017-0.03,0.031-0.062,0.044-0.098c0.074-0.155,0.145-0.313,0.211-0.474	c0.021-0.055,0.04-0.106,0.063-0.16c0.057-0.141,0.111-0.278,0.162-0.42c0.022-0.064,0.045-0.133,0.066-0.195	c0.043-0.133,0.092-0.268,0.133-0.402c0.021-0.072,0.041-0.141,0.063-0.213c0.038-0.131,0.072-0.264,0.106-0.396	c0.021-0.076,0.037-0.152,0.055-0.229c0.033-0.131,0.062-0.261,0.093-0.392c0.014-0.079,0.028-0.158,0.044-0.239	c0.024-0.131,0.046-0.26,0.068-0.395c0.01-0.079,0.023-0.161,0.033-0.241c0.013-0.087,0.021-0.175,0.033-0.261	c0.002-0.035,0.008-0.071,0.01-0.104c0.021-0.194,0.035-0.387,0.049-0.58c0.006-0.044,0.01-0.088,0.012-0.132	c0-0.025,0.008-0.052,0.008-0.078c-0.155,0-1.397-0.062-3.1-0.172c-0.567-0.038-1.186-0.076-1.83-0.123	c-0.6-0.041-1.221-0.089-1.848-0.135c-0.004,0.148-0.02,0.294-0.031,0.438c-0.008,0.075-0.008,0.153-0.018,0.229	c-0.059,0.451-0.162,0.885-0.31,1.3c-0.905,2.587-3.421,4.382-6.332,4.382c-0.2,0-0.397-0.012-0.593-0.029	c-0.05-0.005-0.095-0.01-0.144-0.014c-0.19-0.02-0.382-0.048-0.572-0.085c-0.014-0.004-0.024-0.007-0.039-0.01	c-0.18-0.035-0.351-0.081-0.521-0.132c-0.039-0.01-0.078-0.021-0.116-0.031c-0.003-0.001-0.006-0.001-0.012-0.005	c-0.18-0.06-0.356-0.119-0.528-0.19c-0.021-0.009-0.04-0.017-0.058-0.025c-0.158-0.065-0.312-0.142-0.462-0.219	c-0.034-0.02-0.074-0.037-0.11-0.057c-0.16-0.089-0.32-0.188-0.473-0.287c-0.023-0.013-0.043-0.029-0.063-0.043	c-0.141-0.094-0.273-0.195-0.406-0.301c-0.028-0.021-0.055-0.043-0.079-0.068c-0.146-0.117-0.283-0.24-0.414-0.373	c-0.021-0.021-0.041-0.039-0.06-0.06c-0.121-0.12-0.231-0.246-0.342-0.378c-0.021-0.022-0.04-0.047-0.061-0.07	c-0.117-0.146-0.23-0.297-0.337-0.454c-0.018-0.022-0.032-0.052-0.051-0.077c-0.041-0.062-0.083-0.127-0.125-0.189	c-0.002-0.003-0.004-0.008-0.006-0.012c-0.045-0.073-0.086-0.152-0.129-0.229c-0.016-0.03-0.035-0.062-0.051-0.093	c-0.088-0.17-0.172-0.345-0.247-0.521c-0.013-0.032-0.023-0.063-0.036-0.098c-0.062-0.152-0.119-0.31-0.169-0.468	c-0.013-0.043-0.025-0.082-0.039-0.125c-0.055-0.189-0.104-0.385-0.146-0.581c-0.004-0.02-0.004-0.038-0.008-0.056	c-0.035-0.183-0.063-0.369-0.084-0.559c-0.002-0.045-0.01-0.089-0.012-0.135c-0.02-0.206-0.029-0.418-0.029-0.635V34.134	c0-2.026,0.922-3.861,2.369-5.081c1.127-0.948,2.57-1.521,4.147-1.521c0.209,0,0.414,0.012,0.617,0.03	c0.062,0.006,0.12,0.014,0.183,0.021c0.146,0.019,0.289,0.04,0.436,0.066c0.063,0.012,0.125,0.022,0.188,0.036	c0.168,0.037,0.332,0.078,0.496,0.128c0.025,0.009,0.058,0.015,0.086,0.021c0.187,0.06,0.371,0.128,0.551,0.203	c0.054,0.021,0.104,0.044,0.152,0.067c0.131,0.059,0.262,0.12,0.387,0.188c0.056,0.029,0.111,0.058,0.166,0.088	c0.134,0.075,0.265,0.153,0.396,0.237c0.035,0.023,0.07,0.044,0.106,0.069c0.158,0.107,0.313,0.223,0.464,0.344	c0.036,0.029,0.071,0.062,0.107,0.094c0.11,0.095,0.222,0.193,0.327,0.296c0.045,0.042,0.091,0.087,0.133,0.131	c0.103,0.104,0.197,0.209,0.293,0.32c0.033,0.038,0.066,0.073,0.101,0.112c0.121,0.149,0.239,0.303,0.349,0.46	c0.02,0.028,0.036,0.059,0.055,0.088c0.09,0.133,0.174,0.269,0.254,0.407c0.028,0.052,0.057,0.104,0.084,0.157	c0.07,0.128,0.133,0.257,0.188,0.387c0.021,0.051,0.048,0.099,0.068,0.147c0.012,0.027,0.021,0.052,0.03,0.077	c0.009,0.012,0.011,0.022,0.017,0.034c0.029,0.08,0.058,0.161,0.082,0.243c0.028,0.083,0.063,0.165,0.092,0.25	c0.033,0.118,0.063,0.24,0.093,0.361c0.021,0.085,0.048,0.168,0.062,0.254c0.029,0.134,0.049,0.273,0.063,0.411	c0.014,0.073,0.029,0.146,0.037,0.221c0.021,0.216,0.031,0.433,0.031,0.651v1.029C187.628,35.157,187.782,35.15,187.934,35.145z"/><path style="fill:#A2C056;" d="M158.228,34.657c-0.004-0.131-0.004-0.26-0.01-0.39c-0.005-0.091-0.012-0.183-0.019-0.274	c-0.006-0.086-0.012-0.171-0.018-0.258c-0.004-0.042-0.006-0.082-0.009-0.124c0,0,0,0,0-0.001c-0.009-0.101-0.021-0.199-0.03-0.299	c0-0.003,0-0.004,0-0.007c-0.015-0.118-0.027-0.237-0.043-0.354c0,0,0-0.001,0-0.003c-0.014-0.091-0.027-0.182-0.043-0.271	c0-0.008,0-0.014-0.002-0.02c-0.01-0.07-0.021-0.141-0.033-0.209c-0.01-0.052-0.016-0.104-0.024-0.157c0,0-0.002-0.001-0.002-0.003	c-0.014-0.082-0.031-0.161-0.046-0.242c-0.004-0.013-0.006-0.026-0.01-0.039c-0.009-0.052-0.021-0.105-0.031-0.156	c-0.017-0.071-0.028-0.141-0.046-0.212c0-0.001,0-0.003,0-0.005c-0.021-0.09-0.044-0.181-0.064-0.272l0,0	c-0.017-0.064-0.033-0.128-0.051-0.192c-0.017-0.059-0.027-0.117-0.043-0.175c-0.004-0.001-0.004-0.003-0.004-0.004	c-0.021-0.078-0.045-0.157-0.066-0.235c-0.004-0.011-0.004-0.021-0.008-0.031c-0.023-0.076-0.049-0.154-0.07-0.229	c-0.018-0.046-0.03-0.093-0.043-0.137v-0.001c-0.029-0.088-0.057-0.176-0.088-0.263c0.022,0.063,0.043,0.127,0.062,0.192	c-0.02-0.065-0.039-0.129-0.062-0.193c-0.042-0.118-0.084-0.236-0.127-0.354c-0.032-0.086-0.064-0.172-0.099-0.259	c-0.002-0.001-0.004-0.004-0.004-0.008c-0.037-0.09-0.075-0.184-0.114-0.275c-0.007-0.02-0.017-0.037-0.021-0.055	c-0.041-0.096-0.081-0.191-0.125-0.287c-0.016-0.036-0.033-0.07-0.051-0.106c-0.014-0.03-0.027-0.062-0.041-0.092	c-0.099-0.209-0.201-0.415-0.31-0.618c-0.021-0.041-0.041-0.081-0.062-0.122c-0.011-0.021-0.021-0.039-0.03-0.059	c-0.137-0.249-0.274-0.494-0.426-0.734c-0.021-0.034-0.045-0.067-0.068-0.101c-0.129-0.207-0.266-0.411-0.407-0.609	c-0.021-0.029-0.04-0.059-0.063-0.087c-0.025-0.034-0.049-0.067-0.074-0.101c-0.146-0.204-0.301-0.404-0.463-0.599	c-0.018-0.025-0.037-0.051-0.057-0.074c-0.179-0.215-0.367-0.421-0.558-0.625c0-0.002,0-0.002,0-0.002	c-0.007-0.006-0.012-0.011-0.018-0.017c-0.049-0.052-0.098-0.103-0.148-0.153c-0.131-0.132-0.262-0.262-0.395-0.389	c-0.025-0.021-0.047-0.044-0.068-0.064c-0.003-0.003-0.003-0.003-0.003-0.004c-0.056-0.05-0.108-0.1-0.161-0.15	c-0.206-0.186-0.418-0.366-0.633-0.54c0,0,0,0-0.002,0c-0.037-0.028-0.075-0.057-0.112-0.085c-0.011-0.009-0.023-0.019-0.037-0.027	c-0.176-0.139-0.357-0.271-0.543-0.4c-0.07-0.05-0.142-0.1-0.214-0.147c-0.215-0.143-0.432-0.279-0.652-0.412	c-0.014-0.005-0.024-0.015-0.036-0.021c-0.014-0.008-0.025-0.015-0.039-0.022c-0.242-0.142-0.496-0.273-0.75-0.4	c-0.078-0.039-0.155-0.075-0.233-0.111c-0.201-0.096-0.413-0.188-0.624-0.274c-0.02-0.008-0.037-0.018-0.059-0.024	c-0.047-0.02-0.094-0.04-0.14-0.058c-0.271-0.105-0.545-0.204-0.825-0.293l0,0c-0.064-0.021-0.131-0.039-0.196-0.059l-0.003-0.002	c-0.066-0.02-0.138-0.036-0.207-0.056c-0.161-0.047-0.324-0.093-0.487-0.133c-0.012-0.003-0.024-0.004-0.035-0.008	c-0.07-0.017-0.14-0.035-0.212-0.051l0,0c-0.076-0.018-0.157-0.028-0.235-0.047c-0.225-0.047-0.444-0.096-0.676-0.13V20.84	c-0.002,0-0.007,0-0.007,0c-0.018-0.002-0.034-0.003-0.054-0.007c-0.291-0.042-0.587-0.078-0.888-0.105	c-0.053-0.005-0.104-0.009-0.158-0.012c-0.027-0.001-0.053-0.004-0.079-0.006c-0.1-0.007-0.204-0.008-0.305-0.016	c-0.183-0.009-0.364-0.021-0.55-0.022c-0.066-0.001-0.134-0.005-0.199-0.005c-0.012,0-0.022,0-0.035,0c-0.033,0-0.067,0-0.102,0	c-0.069,0.001-0.14,0.001-0.209,0.002c-0.365,0.012-0.738,0.037-1.118,0.071c-0.018,0.001-0.032,0.002-0.048,0.005	c-0.367,0.035-0.739,0.08-1.113,0.134c-0.02,0.003-0.037,0.005-0.058,0.008c-0.371,0.055-0.746,0.118-1.119,0.19	c-0.002,0-0.006,0-0.009,0c-0.014,0.003-0.025,0.006-0.04,0.009c-0.32,0.062-0.641,0.132-0.959,0.204	c-0.053,0.011-0.106,0.021-0.16,0.033c-0.001,0-0.001,0-0.001,0c-0.02,0.004-0.036,0.009-0.056,0.014	c-0.518,0.12-1.024,0.25-1.517,0.389c-0.007,0.003-0.013,0.005-0.021,0.006c-0.009,0.004-0.018,0.006-0.023,0.01	c-0.229,0.063-0.453,0.13-0.672,0.198c-0.009,0.001-0.017,0.004-0.025,0.006c-0.013,0.005-0.025,0.01-0.039,0.014	c-0.229,0.069-0.455,0.143-0.674,0.216c-0.029,0.009-0.059,0.021-0.089,0.031c-0.075,0.023-0.149,0.051-0.225,0.076	c-0.036,0.012-0.072,0.023-0.108,0.036c-0.043,0.015-0.086,0.03-0.128,0.047c-0.099,0.033-0.195,0.067-0.288,0.102	c0.004,0.121,0.012,0.234,0.016,0.348c0.001,0.016,0.002,0.029,0.002,0.045c0.004,0.053,0.006,0.105,0.008,0.156	c0.008,0.12,0.014,0.239,0.019,0.355c0.016,0.267,0.027,0.518,0.043,0.767c0.014,0.251,0.028,0.502,0.043,0.759	c0,0.005,0,0.011,0,0.016c0.005,0.074,0.01,0.153,0.014,0.23c0,0.035,0.002,0.071,0.005,0.106c0.002,0.055,0.006,0.111,0.009,0.168	c0.001,0.042,0.005,0.083,0.007,0.124c0.004,0.069,0.008,0.142,0.01,0.216c0.002,0.028,0.004,0.054,0.004,0.083	c0.005,0.094,0.01,0.188,0.015,0.286c0.004,0.057,0.006,0.115,0.009,0.173c0.002,0.057,0.006,0.111,0.007,0.17	c0.003,0.054,0.004,0.108,0.008,0.163c0.002,0.062,0.006,0.125,0.008,0.188c0.003,0.059,0.004,0.116,0.008,0.177	c0.002,0.069,0.006,0.144,0.009,0.216c0.002,0.055,0.005,0.11,0.006,0.167c0.006,0.131,0.01,0.267,0.015,0.408	c0.138-0.009,0.282-0.019,0.423-0.027c0.116-0.007,0.233-0.016,0.354-0.021c0.187-0.015,0.373-0.024,0.562-0.039	c0.232-0.017,0.465-0.033,0.701-0.051c0.128-0.008,0.255-0.018,0.383-0.026c0.788-0.06,1.59-0.121,2.385-0.18	c0.11-0.007,0.22-0.017,0.328-0.023c0.267-0.02,0.529-0.039,0.793-0.058c0.181-0.013,0.354-0.023,0.532-0.035	c0.198-0.014,0.395-0.026,0.587-0.037c0.228-0.016,0.445-0.026,0.666-0.038c0.142-0.007,0.285-0.018,0.424-0.023	c0.355-0.017,0.703-0.032,1.039-0.042h-0.086h-0.001c0.361-0.038,0.705-0.056,1.032-0.056l0,0l0,0l0,0	c0.229,0,0.445,0.011,0.657,0.028c0.055,0.005,0.106,0.009,0.162,0.017c0.205,0.021,0.405,0.047,0.597,0.085	c0.002,0.001,0.007,0.002,0.015,0.003c0.188,0.038,0.371,0.086,0.548,0.141c0.048,0.016,0.093,0.028,0.138,0.044	c0.17,0.057,0.334,0.117,0.49,0.188c0.008,0.002,0.014,0.006,0.021,0.009c0.157,0.071,0.305,0.153,0.448,0.239	c0.039,0.023,0.077,0.046,0.116,0.07c0.137,0.086,0.268,0.177,0.392,0.275c0.006,0.005,0.015,0.012,0.021,0.017	c0.128,0.103,0.243,0.211,0.357,0.323c0.032,0.034,0.063,0.064,0.093,0.099c0.107,0.11,0.206,0.228,0.305,0.348	c0.006,0.009,0.014,0.02,0.021,0.029c0.095,0.125,0.182,0.258,0.271,0.395c0.022,0.04,0.047,0.08,0.071,0.121	c0.074,0.13,0.147,0.265,0.214,0.401c0.01,0.02,0.019,0.036,0.026,0.055c0.051,0.109,0.101,0.224,0.146,0.337	c0,0.003,0.003,0.006,0.004,0.012c0.005,0.018,0.01,0.036,0.018,0.057c0.168,0.438,0.295,0.907,0.378,1.398	c0.015,0.074,0.024,0.146,0.036,0.223c0.027,0.184,0.048,0.371,0.066,0.561c0.006,0.075,0.016,0.15,0.021,0.229	c0.02,0.259,0.029,0.521,0.029,0.789v4.544v0.857c-0.068-0.018-0.134-0.037-0.202-0.057c-0.009-0.002-0.019-0.005-0.027-0.008	c-0.012-0.001-0.021-0.004-0.028-0.008c-0.056-0.015-0.108-0.028-0.164-0.046c-0.029-0.007-0.058-0.014-0.084-0.021	c-0.033-0.009-0.066-0.019-0.103-0.027c0-0.001-0.004-0.001-0.006-0.001c-0.012-0.004-0.026-0.008-0.039-0.011	c-0.029-0.008-0.06-0.016-0.09-0.023c-0.047-0.013-0.093-0.022-0.14-0.034c-0.019-0.005-0.033-0.009-0.049-0.014	c-0.049-0.012-0.1-0.021-0.145-0.036c-0.014-0.004-0.028-0.006-0.039-0.009c-0.049-0.011-0.098-0.023-0.149-0.036	c-0.05-0.01-0.101-0.021-0.15-0.035c-0.062-0.013-0.119-0.026-0.18-0.04h-0.003c-0.054-0.012-0.107-0.021-0.163-0.034l0,0	c-0.058-0.01-0.113-0.021-0.173-0.033v-0.001c-0.061-0.013-0.119-0.023-0.182-0.035l0,0c-0.056-0.012-0.111-0.02-0.166-0.03	c-0.066-0.012-0.133-0.022-0.2-0.034c-0.05-0.009-0.103-0.017-0.152-0.024c-0.027-0.004-0.055-0.007-0.08-0.011	c-0.052-0.008-0.097-0.015-0.146-0.023l0,0c-0.046-0.005-0.092-0.011-0.137-0.018c0,0,0,0-0.003-0.001	c-0.011,0-0.023-0.002-0.035-0.003c-0.072-0.011-0.144-0.021-0.222-0.029c-0.035-0.004-0.076-0.008-0.115-0.013	c-0.037-0.004-0.075-0.009-0.111-0.012c-0.061-0.008-0.12-0.017-0.185-0.021l0,0c-0.027-0.003-0.056-0.005-0.085-0.008h-0.002	c-0.113-0.011-0.228-0.021-0.348-0.031l0,0c-0.009,0-0.019,0-0.028-0.003c0,0,0,0-0.003,0l0,0l0,0	c-0.17-0.016-0.349-0.024-0.529-0.034c-0.069-0.003-0.14-0.007-0.215-0.012c-0.003,0-0.006-0.001-0.011-0.001l0,0	c-0.118-0.005-0.245-0.012-0.372-0.015c-0.004,0-0.007,0-0.011-0.001c-0.061-0.001-0.117-0.007-0.18-0.007	c-0.029-0.001-0.059-0.002-0.088-0.002c-0.109-0.003-0.222-0.006-0.335-0.009c-0.042,0-0.086,0-0.13-0.001	c-0.007,0-0.013,0-0.019,0c-0.009-0.001-0.015-0.001-0.021-0.001c-0.002,0-0.002,0-0.004,0c-0.023,0-0.047,0-0.07,0	c-0.027-0.002-0.057-0.002-0.085-0.002c-0.126-0.001-0.255-0.002-0.387-0.002l0,0h-0.02c-0.08,0-0.16,0.004-0.24,0.005	c-0.155,0.001-0.312,0.004-0.468,0.01c-0.001,0-0.005,0-0.008,0c-0.021,0-0.045,0-0.067,0.002c-0.086,0.002-0.17,0.01-0.254,0.017	H143.9c-0.126,0.006-0.254,0.014-0.379,0.021h-0.001c-0.042,0.003-0.085,0.009-0.128,0.013c-0.068,0.003-0.137,0.014-0.204,0.019	c-0.068,0.007-0.137,0.016-0.208,0.021c-0.051,0.007-0.102,0.013-0.152,0.018l0,0c-0.079,0.011-0.157,0.021-0.235,0.032	c-0.031,0.003-0.062,0.007-0.092,0.01c-0.074,0.01-0.15,0.023-0.226,0.036c-0.041,0.007-0.084,0.011-0.125,0.02	c-0.002,0-0.003,0-0.003,0c-0.104,0.018-0.209,0.034-0.312,0.052c-0.001,0-0.001,0-0.001,0c-0.062,0.013-0.122,0.026-0.184,0.037	c-0.059,0.015-0.118,0.024-0.176,0.036c-0.005,0.002-0.008,0.002-0.014,0.002c-0.093,0.02-0.185,0.038-0.273,0.06l-0.002,0.001	c-0.087,0.02-0.171,0.043-0.256,0.062c-0.051,0.015-0.104,0.028-0.154,0.04c-0.004,0.001-0.009,0.003-0.014,0.004	c-0.1,0.025-0.199,0.05-0.297,0.08c-0.012,0.003-0.021,0.006-0.031,0.01c-0.155,0.044-0.311,0.09-0.463,0.14l0,0	c-0.084,0.026-0.162,0.059-0.244,0.085c-0.004,0-0.009,0.003-0.014,0.004c-0.11,0.038-0.224,0.078-0.334,0.118	c0,0-0.001,0.001-0.004,0.003c-0.084,0.029-0.168,0.064-0.253,0.1c-0.001,0-0.004,0-0.006,0.003	c-0.105,0.042-0.211,0.083-0.315,0.13c0,0,0,0-0.002,0c-0.081,0.036-0.162,0.073-0.242,0.108c-0.002,0-0.004,0.001-0.006,0.003	c-0.002,0-0.004,0-0.005,0.002c-0.043,0.02-0.085,0.039-0.126,0.059c-0.06,0.028-0.117,0.056-0.174,0.083	c-0.005,0.001-0.007,0.002-0.011,0.004c-0.076,0.04-0.153,0.076-0.231,0.117c-0.001,0.001-0.003,0.001-0.003,0.001	c-0.053,0.028-0.102,0.056-0.151,0.082c-0.05,0.027-0.102,0.055-0.153,0.082c-0.005,0.002-0.009,0.006-0.015,0.008	c-0.067,0.038-0.136,0.075-0.201,0.114c-0.002,0-0.004,0-0.004,0c-0.093,0.057-0.183,0.111-0.274,0.167	c-0.025,0.018-0.054,0.033-0.079,0.05c-0.014,0.009-0.024,0.015-0.036,0.021c-0.038,0.022-0.076,0.045-0.112,0.07	c0,0-0.001,0-0.001,0.002c-0.163,0.104-0.321,0.211-0.477,0.323h-0.003c-0.049,0.034-0.096,0.073-0.145,0.108	c-0.006,0.004-0.012,0.008-0.019,0.015c-0.102,0.075-0.2,0.149-0.299,0.229c-0.002,0.003-0.004,0.003-0.006,0.005	c-0.057,0.045-0.111,0.092-0.168,0.137c-0.004,0.004-0.006,0.007-0.01,0.01c-0.09,0.074-0.176,0.148-0.264,0.224l0,0	c-0.004,0.003-0.005,0.007-0.009,0.009c-0.055,0.047-0.108,0.099-0.162,0.147c-0.005,0.003-0.008,0.005-0.012,0.009	c-0.08,0.073-0.16,0.148-0.235,0.227c-0.004,0.002-0.009,0.005-0.011,0.008c-0.004,0.003-0.007,0.005-0.01,0.01	c-0.051,0.049-0.103,0.098-0.151,0.15c-0.003,0.002-0.006,0.004-0.009,0.006c-0.071,0.074-0.146,0.152-0.218,0.229	c-0.009,0.009-0.02,0.021-0.028,0.033c-0.006,0.005-0.011,0.009-0.016,0.015c-0.041,0.045-0.084,0.09-0.125,0.135	c-0.002,0.002-0.004,0.005-0.005,0.006c-0.097,0.109-0.19,0.222-0.285,0.333c-0.009,0.014-0.021,0.026-0.032,0.039	c-0.016,0.021-0.03,0.038-0.049,0.059c-0.002,0.002-0.003,0.003-0.004,0.005c-0.119,0.149-0.234,0.303-0.347,0.455	c0,0-0.003,0.004-0.005,0.006c-0.021,0.029-0.043,0.063-0.063,0.092c-0.008,0.011-0.016,0.021-0.021,0.029	c-0.015,0.021-0.027,0.039-0.041,0.062c-0.067,0.097-0.134,0.188-0.197,0.288c-0.001,0-0.002,0.003-0.004,0.003	c-0.033,0.054-0.063,0.104-0.097,0.151c-0.004,0.008-0.008,0.014-0.01,0.021c-0.065,0.104-0.131,0.209-0.194,0.315	c-0.003,0.004-0.004,0.006-0.006,0.01c-0.031,0.057-0.064,0.113-0.097,0.171c-0.003,0.002-0.004,0.006-0.006,0.011	c-0.057,0.1-0.113,0.202-0.166,0.309c-0.004,0.004-0.007,0.01-0.01,0.02c-0.002,0-0.002,0-0.002,0	c-0.002,0.003-0.003,0.008-0.005,0.01c-0.03,0.057-0.061,0.114-0.09,0.172c-0.001,0.004-0.004,0.008-0.004,0.01	c-0.005,0.011-0.01,0.021-0.014,0.03c-0.054,0.104-0.104,0.212-0.152,0.319c-0.004,0.003-0.006,0.013-0.01,0.019	c-0.022,0.052-0.048,0.103-0.07,0.152c-0.001,0.005-0.002,0.007-0.003,0.007c-0.064,0.146-0.126,0.297-0.185,0.445	c-0.004,0.009-0.008,0.015-0.012,0.021c-0.009,0.022-0.02,0.047-0.027,0.065c0,0.005,0,0.005-0.002,0.009	c-0.07,0.186-0.139,0.374-0.203,0.564h-0.001c-0.009,0.024-0.015,0.052-0.024,0.076c-0.002,0.01-0.006,0.021-0.009,0.031	c-0.019,0.059-0.036,0.117-0.054,0.178c-0.029,0.093-0.061,0.188-0.086,0.282c-0.002,0.003-0.002,0.003-0.002,0.005	c-0.017,0.049-0.027,0.102-0.041,0.153c-0.002,0.005-0.004,0.011-0.005,0.019c-0.001,0.002-0.001,0.008-0.003,0.011	c-0.021,0.079-0.041,0.164-0.063,0.241c-0.014,0.054-0.026,0.104-0.039,0.158c0,0.002-0.002,0.002-0.002,0.004	c-0.015,0.065-0.029,0.133-0.045,0.2c0,0.003-0.001,0.007-0.001,0.009c-0.015,0.064-0.026,0.133-0.041,0.195	c-0.01,0.051-0.021,0.102-0.032,0.15c-0.022,0.131-0.047,0.262-0.065,0.391c-0.018,0.098-0.033,0.198-0.047,0.298	c-0.021,0.14-0.037,0.282-0.054,0.421c-0.01,0.097-0.021,0.188-0.03,0.283c-0.016,0.158-0.024,0.316-0.035,0.479	c-0.005,0.078-0.013,0.156-0.017,0.238c-0.012,0.241-0.016,0.483-0.016,0.729v4.205c0,0,0,0.001,0,0.003	c0,0.264,0.008,0.523,0.022,0.781c0.005,0.082,0.013,0.162,0.021,0.246c0.014,0.181,0.031,0.36,0.052,0.541	c0.011,0.086,0.022,0.177,0.034,0.27c0.025,0.176,0.055,0.354,0.087,0.53c0.014,0.079,0.027,0.155,0.044,0.233	c0.048,0.25,0.104,0.497,0.166,0.743c0.006,0.015,0.011,0.028,0.017,0.044c0.059,0.229,0.127,0.457,0.198,0.682	c0.025,0.078,0.054,0.155,0.08,0.232c0.056,0.164,0.113,0.326,0.176,0.484c0.033,0.084,0.066,0.168,0.103,0.254	c0.063,0.158,0.134,0.316,0.204,0.47c0.034,0.076,0.066,0.149,0.102,0.224c0.104,0.222,0.216,0.439,0.334,0.655	c0.007,0.011,0.016,0.023,0.023,0.04c0.005,0.012,0.014,0.021,0.02,0.032c0.115,0.21,0.237,0.41,0.362,0.612	c0.046,0.072,0.092,0.146,0.139,0.217c0.107,0.162,0.218,0.322,0.332,0.482c0.043,0.062,0.087,0.127,0.133,0.187	c0.152,0.208,0.312,0.411,0.478,0.606c0.042,0.054,0.088,0.102,0.132,0.154c0.13,0.15,0.265,0.299,0.4,0.443	c0.061,0.066,0.122,0.132,0.183,0.193c0.146,0.146,0.293,0.293,0.443,0.438c0.045,0.038,0.086,0.081,0.131,0.121	c0.188,0.175,0.386,0.343,0.586,0.506c0.06,0.05,0.122,0.098,0.184,0.146c0.153,0.121,0.312,0.237,0.469,0.352	c0.066,0.049,0.134,0.1,0.201,0.146c0.216,0.146,0.434,0.293,0.656,0.431c0.017,0.01,0.027,0.017,0.039,0.021	c0.217,0.133,0.438,0.256,0.662,0.372c0.068,0.039,0.137,0.074,0.207,0.106c0.186,0.096,0.373,0.188,0.562,0.271	c0.061,0.027,0.119,0.058,0.18,0.082c0.248,0.106,0.498,0.208,0.752,0.305c0.041,0.011,0.084,0.024,0.127,0.041	c0.217,0.074,0.438,0.148,0.658,0.215c0.07,0.021,0.141,0.04,0.212,0.062c0.229,0.063,0.464,0.121,0.7,0.173	c0.034,0.01,0.067,0.02,0.103,0.027c0.274,0.059,0.55,0.105,0.83,0.146c0.058,0.007,0.113,0.016,0.171,0.021	c0.229,0.031,0.459,0.056,0.691,0.072c0.064,0.007,0.133,0.011,0.198,0.018c0.285,0.019,0.572,0.029,0.861,0.029	c2.844,0,5.467-0.907,7.623-2.442c1.688-1.201,3.086-2.787,4.074-4.629c1.018-1.908,1.596-4.088,1.596-6.393V35.824v-0.403v-0.236	v-0.277C158.232,34.822,158.228,34.741,158.228,34.657z M139.294,58.805c-0.045-0.074-0.083-0.148-0.125-0.224	c-0.021-0.037-0.043-0.074-0.063-0.114c-0.087-0.166-0.168-0.339-0.242-0.513c-0.018-0.039-0.03-0.078-0.046-0.117	c-0.058-0.146-0.109-0.293-0.156-0.442c-0.017-0.051-0.033-0.1-0.05-0.146c-0.053-0.184-0.1-0.368-0.139-0.559	c-0.008-0.037-0.012-0.071-0.02-0.11c-0.029-0.155-0.054-0.315-0.071-0.479c-0.007-0.061-0.013-0.123-0.02-0.183	c-0.016-0.187-0.025-0.368-0.026-0.558c0-0.015-0.002-0.025-0.002-0.041V50.34c0-1.841,0.729-3.492,1.919-4.684	c1.189-1.19,2.841-1.922,4.685-1.922h6.604l0,0v0.922l0,0v3.511v7.149l0,0c0,0.768-0.135,1.506-0.367,2.191	c-0.818,2.406-2.943,4.194-5.556,4.461c-0.225,0.024-0.451,0.036-0.683,0.036c-0.205,0-0.408-0.014-0.606-0.032	c-0.05-0.004-0.097-0.009-0.144-0.015c-0.197-0.021-0.392-0.049-0.582-0.088c-0.017-0.004-0.032-0.009-0.047-0.013	c-0.178-0.037-0.354-0.086-0.527-0.141c-0.01,0-0.021-0.002-0.032-0.007c-0.033-0.01-0.063-0.021-0.097-0.031	c-0.183-0.059-0.36-0.122-0.535-0.196c-0.021-0.01-0.045-0.021-0.067-0.03c-0.156-0.066-0.312-0.146-0.459-0.226	c-0.037-0.021-0.076-0.037-0.111-0.061c-0.164-0.092-0.323-0.189-0.479-0.294c-0.025-0.021-0.049-0.035-0.075-0.056	c-0.136-0.094-0.269-0.194-0.396-0.299c-0.029-0.026-0.062-0.051-0.091-0.076c-0.143-0.12-0.277-0.245-0.41-0.381	c-0.024-0.021-0.049-0.052-0.073-0.078c-0.112-0.115-0.223-0.236-0.327-0.362c-0.022-0.027-0.047-0.06-0.069-0.083	c-0.116-0.146-0.226-0.298-0.329-0.451c-0.022-0.036-0.046-0.068-0.069-0.105c-0.037-0.059-0.077-0.116-0.112-0.178	C139.296,58.809,139.296,58.807,139.294,58.805z"/><path style="fill:#A2C056;" d="M123.067,34.641c-0.001-0.22-0.008-0.438-0.019-0.657c0-0.003,0-0.005-0.001-0.007	c-0.004-0.084-0.012-0.168-0.018-0.253c-0.001-0.009-0.001-0.018-0.002-0.026c-0.011-0.156-0.022-0.312-0.038-0.465	c-0.001-0.003-0.003-0.007-0.003-0.011c-0.009-0.096-0.021-0.19-0.032-0.288c0-0.006-0.001-0.013-0.002-0.019	c-0.019-0.145-0.036-0.287-0.061-0.431c-0.001-0.003-0.001-0.006-0.001-0.011c-0.002-0.012-0.004-0.022-0.006-0.037	c-0.015-0.087-0.028-0.176-0.045-0.263c0-0.002,0-0.005,0-0.009c-0.026-0.143-0.054-0.284-0.082-0.423c0-0.005,0-0.008-0.002-0.011	c-0.014-0.063-0.026-0.127-0.041-0.189c-0.006-0.034-0.014-0.067-0.021-0.103c-0.003-0.001-0.003-0.004-0.004-0.007	c-0.035-0.149-0.069-0.299-0.11-0.447c-0.002-0.008-0.003-0.015-0.005-0.021c-0.021-0.08-0.041-0.162-0.063-0.241	c0-0.003,0-0.004-0.002-0.006c-0.06-0.214-0.125-0.428-0.194-0.639c-0.001-0.004-0.002-0.006-0.003-0.011	c-0.012-0.035-0.024-0.071-0.038-0.107c0-0.002-0.001-0.002-0.001-0.002c-0.058-0.173-0.121-0.343-0.187-0.514	c-0.015-0.035-0.026-0.074-0.04-0.11c0-0.001,0-0.001,0-0.001c-0.019-0.042-0.035-0.083-0.053-0.125	c-0.015-0.032-0.026-0.064-0.041-0.099c-0.063-0.153-0.127-0.308-0.194-0.458c-0.021-0.044-0.041-0.087-0.062-0.131	c-0.011-0.022-0.021-0.045-0.031-0.068c-0.099-0.208-0.2-0.413-0.307-0.617c-0.019-0.032-0.036-0.067-0.052-0.102	c-0.014-0.022-0.024-0.045-0.037-0.067c-0.104-0.195-0.219-0.385-0.332-0.574c-0.028-0.047-0.055-0.096-0.084-0.143v-0.002	c-0.009-0.015-0.018-0.027-0.025-0.041c-0.021-0.031-0.042-0.063-0.063-0.096c-0.052-0.085-0.108-0.165-0.163-0.247	c-0.021-0.032-0.043-0.063-0.065-0.095c-0.015-0.024-0.028-0.046-0.044-0.069c-0.036-0.053-0.069-0.105-0.106-0.157l0,0	c-0.043-0.063-0.086-0.125-0.131-0.186c0,0,0-0.001-0.002-0.001c-0.16-0.223-0.328-0.444-0.502-0.656	c-0.002-0.003-0.003-0.004-0.004-0.005c-0.172-0.21-0.353-0.411-0.535-0.609c-0.001-0.001-0.002-0.004-0.006-0.005	c-0.027-0.03-0.056-0.062-0.084-0.091c-0.021-0.023-0.045-0.048-0.068-0.072v-0.001c-0.156-0.164-0.316-0.325-0.479-0.479v-0.001	c-0.039-0.035-0.075-0.074-0.113-0.109c-0.201-0.185-0.406-0.361-0.614-0.534c0.194,0.158,0.384,0.325,0.569,0.497	c-0.187-0.172-0.375-0.339-0.57-0.498c-0.033-0.027-0.068-0.055-0.103-0.081c-0.014-0.012-0.028-0.023-0.043-0.033	c-0.174-0.139-0.352-0.273-0.53-0.403c-0.056-0.039-0.107-0.078-0.162-0.116c-0.228-0.154-0.455-0.307-0.689-0.446	c-0.022-0.015-0.045-0.025-0.065-0.039c-0.215-0.126-0.434-0.246-0.654-0.361c-0.061-0.032-0.122-0.062-0.185-0.093	c-0.229-0.113-0.458-0.219-0.692-0.318c-0.006-0.002-0.01-0.004-0.014-0.006c-0.017-0.005-0.029-0.013-0.045-0.02	c-0.256-0.104-0.519-0.201-0.781-0.289c-0.025-0.01-0.053-0.017-0.078-0.025c-0.033-0.009-0.064-0.02-0.096-0.028	c-0.224-0.071-0.447-0.136-0.675-0.193c-0.026-0.007-0.055-0.014-0.08-0.021c-0.025-0.007-0.053-0.015-0.076-0.021	c-0.273-0.064-0.551-0.123-0.831-0.167c-0.041-0.007-0.082-0.012-0.122-0.018c-0.243-0.038-0.489-0.067-0.736-0.089	c-0.065-0.005-0.133-0.011-0.196-0.017c-0.019,0-0.033-0.001-0.052-0.002c-0.197-0.016-0.398-0.023-0.6-0.028	c-0.074-0.002-0.146-0.005-0.221-0.005c-0.009,0-0.013,0-0.02,0l0,0h-0.004h-0.001h-0.016l0,0h-0.011l0,0c0,0,0,0-0.002,0l0,0l0,0	h-0.002c-0.012,0-0.022,0-0.035,0c-0.204,0.001-0.417,0.004-0.639,0.01c-0.001,0-0.004,0-0.006,0c-0.016,0-0.031,0.002-0.045,0.002	h-0.002l0,0c-0.023,0-0.047,0.002-0.07,0.003c-0.005,0-0.011,0-0.016,0c-0.01,0-0.021,0-0.029,0c-0.002,0-0.002,0.001-0.003,0.001	c-0.157,0.004-0.319,0.01-0.483,0.019c-0.052,0.002-0.106,0.005-0.159,0.008c-0.013,0-0.026,0.001-0.041,0.002	c-0.014,0.001-0.025,0.001-0.039,0.002c-0.002,0-0.004,0-0.006,0h-0.003l0,0c-0.002,0.001-0.005,0.001-0.006,0.001	c-0.143,0.007-0.282,0.015-0.427,0.024c-0.114,0.009-0.229,0.017-0.344,0.024c-0.004,0.001-0.008,0.001-0.012,0.001	c0,0,0,0.001-0.003,0.001c-0.002,0-0.003,0-0.005,0l0,0l0,0c-0.001,0-0.004,0-0.007,0c-0.134,0.012-0.268,0.024-0.401,0.036	c0.132-0.012,0.266-0.024,0.396-0.036c-0.009,0-0.021,0-0.032,0.002c-0.067,0.005-0.136,0.011-0.206,0.019	c-0.164,0.013-0.33,0.029-0.495,0.047c-0.004,0-0.007,0-0.012,0c-0.007,0.001-0.016,0.001-0.023,0.002	c-0.028,0.003-0.059,0.006-0.086,0.008c-0.002,0-0.002,0-0.004,0c-0.001,0-0.001,0-0.001,0c-0.002,0-0.002,0-0.002,0	c-0.178,0.021-0.354,0.042-0.53,0.063c-0.097,0.012-0.192,0.021-0.287,0.032c-0.004,0.002-0.008,0.002-0.01,0.004	c-0.01,0.001-0.019,0.001-0.026,0.003c-0.102,0.013-0.2,0.028-0.299,0.044c-0.17,0.023-0.341,0.047-0.507,0.075	c-0.002,0-0.004,0.003-0.005,0.003c-0.072,0.01-0.142,0.023-0.212,0.037c-0.052,0.011-0.103,0.021-0.153,0.029	c-0.143,0.027-0.285,0.051-0.421,0.08v0.001c-0.002,0-0.003,0-0.005,0l0,0c-0.016,0.003-0.03,0.006-0.046,0.011	c-0.223,0.048-0.435,0.099-0.64,0.153c0,0-0.002,0-0.004,0c-0.015,0.004-0.029,0.008-0.043,0.011	c-0.01,0.003-0.021,0.006-0.03,0.008c-0.001,0-0.003,0-0.003,0c-0.141,0.038-0.277,0.078-0.407,0.119	c-0.007,0.002-0.013,0.004-0.02,0.006l0,0l0,0V20.67V2.032l0,0V1.344V1.115l0,0h-6.86v0.406v0.511v66.235h0.458h6.401V35.651V28.13	l0,0l0,0h6.52c0.02,0,0.038,0.002,0.059,0.002c0.186,0.002,0.367,0.012,0.549,0.028c0.07,0.005,0.141,0.015,0.211,0.022	c0.135,0.017,0.271,0.036,0.403,0.062c0.07,0.012,0.14,0.025,0.21,0.04c0.152,0.033,0.306,0.071,0.457,0.114	c0.039,0.011,0.079,0.021,0.116,0.033c0.187,0.057,0.364,0.121,0.541,0.193c0.059,0.022,0.114,0.049,0.173,0.074	c0.124,0.055,0.246,0.111,0.366,0.174c0.062,0.029,0.12,0.062,0.18,0.094c0.128,0.07,0.253,0.144,0.375,0.223	c0.041,0.025,0.084,0.05,0.123,0.076c0.157,0.105,0.311,0.218,0.458,0.334c0.04,0.034,0.079,0.069,0.117,0.103	c0.109,0.092,0.217,0.185,0.317,0.282c0.047,0.047,0.093,0.092,0.138,0.138c0.101,0.099,0.195,0.203,0.287,0.311	c0.034,0.04,0.071,0.078,0.104,0.119c0.121,0.146,0.236,0.296,0.344,0.452c0.025,0.037,0.047,0.072,0.07,0.107	c0.082,0.125,0.162,0.254,0.236,0.385c0.03,0.056,0.063,0.113,0.094,0.17c0.063,0.121,0.123,0.244,0.18,0.371	c0.025,0.055,0.051,0.107,0.074,0.164c0.01,0.021,0.021,0.043,0.028,0.064c0.004,0.011,0.008,0.021,0.013,0.032	c0.03,0.078,0.057,0.16,0.083,0.24c0.031,0.087,0.064,0.174,0.093,0.264c0.04,0.126,0.068,0.255,0.102,0.385	c0.019,0.078,0.041,0.156,0.059,0.236c0.029,0.156,0.052,0.315,0.07,0.475c0.009,0.057,0.021,0.112,0.026,0.169	c0.022,0.221,0.034,0.442,0.034,0.669V68.27h0.457h6.23V40.106v-4.455v-0.015v-0.902C123.069,34.703,123.068,34.671,123.067,34.641	z"/><path style="fill:#A2C056;" d="M88.245,33.881c0-0.003,0-0.006,0-0.009c-0.001-0.188-0.007-0.373-0.016-0.559	c0-0.015,0-0.026,0-0.041c-0.001-0.016-0.002-0.031-0.004-0.047c-0.005-0.087-0.014-0.175-0.02-0.264c0-0.001,0-0.004-0.001-0.005	c-0.012-0.152-0.021-0.307-0.038-0.455c0-0.001,0-0.001,0-0.001c-0.012-0.112-0.027-0.221-0.042-0.33c0-0.001,0-0.003,0-0.003	c-0.02-0.145-0.037-0.287-0.06-0.429l0,0c-0.016-0.101-0.035-0.197-0.052-0.295c-0.003-0.014-0.005-0.025-0.007-0.04	c0,0,0,0,0-0.001c-0.003-0.021-0.008-0.044-0.013-0.065c-0.021-0.116-0.042-0.231-0.066-0.348	c-0.021-0.092-0.041-0.184-0.062-0.273c-0.005-0.019-0.009-0.04-0.014-0.06h-0.001c-0.016-0.066-0.032-0.133-0.049-0.198	c-0.017-0.068-0.032-0.136-0.05-0.204c-0.016-0.056-0.031-0.11-0.047-0.165c-0.017-0.055-0.03-0.11-0.046-0.164l0,0	c-0.038-0.132-0.079-0.263-0.12-0.394c-0.035-0.109-0.071-0.216-0.108-0.321c-0.045-0.129-0.091-0.259-0.141-0.386	c-0.04-0.105-0.079-0.208-0.123-0.313c-0.052-0.127-0.104-0.252-0.161-0.376c-0.03-0.071-0.062-0.143-0.096-0.215	c-0.02-0.043-0.039-0.087-0.059-0.13c-0.024-0.056-0.052-0.11-0.079-0.164c-0.078-0.161-0.16-0.321-0.243-0.479	c-0.017-0.031-0.031-0.063-0.048-0.094H86.48c-0.102-0.186-0.207-0.368-0.313-0.551c-0.011-0.014-0.021-0.029-0.027-0.043	c-0.019-0.028-0.037-0.059-0.055-0.086c-0.087-0.143-0.176-0.282-0.268-0.421c-0.031-0.047-0.063-0.097-0.097-0.145	c-0.049-0.073-0.102-0.146-0.154-0.217c-0.192-0.273-0.391-0.542-0.602-0.8c0,0,0,0,0-0.001c-0.036-0.043-0.072-0.085-0.108-0.13	c-0.104-0.126-0.212-0.25-0.32-0.373c0,0-0.001-0.001-0.001-0.002c-0.023-0.026-0.047-0.054-0.07-0.078	c-0.012-0.015-0.023-0.027-0.034-0.04l0,0c-0.047-0.053-0.097-0.103-0.146-0.153c-0.096-0.103-0.19-0.207-0.288-0.306l0,0	c-0.006-0.006-0.013-0.011-0.018-0.017c-0.016-0.017-0.033-0.03-0.049-0.048c-0.127-0.128-0.259-0.254-0.391-0.377	c-0.044-0.04-0.088-0.079-0.132-0.119c-0.095-0.085-0.19-0.168-0.287-0.251c-0.034-0.029-0.07-0.061-0.104-0.091	c-0.001-0.001-0.001-0.001-0.001-0.001c-0.03-0.023-0.058-0.05-0.087-0.075h-0.001c-0.112-0.094-0.228-0.182-0.34-0.271	c-0.052-0.04-0.104-0.083-0.156-0.122l0,0c-0.037-0.028-0.073-0.055-0.111-0.083c-0.001,0-0.001-0.001-0.003-0.002	c-0.134-0.1-0.271-0.197-0.409-0.292c0-0.002-0.001-0.002-0.001-0.002c-0.046-0.032-0.094-0.064-0.142-0.098	c0-0.001,0-0.001,0-0.001c-0.166-0.109-0.333-0.22-0.504-0.324c-0.001,0-0.001-0.001-0.002-0.001	c-0.008-0.007-0.017-0.013-0.026-0.018l-0.001-0.001c-0.13-0.079-0.262-0.154-0.395-0.229c-0.052-0.03-0.104-0.063-0.156-0.091	l-0.001-0.002c-0.038-0.019-0.075-0.039-0.112-0.06c-0.012-0.005-0.021-0.012-0.032-0.018c-0.078-0.041-0.157-0.081-0.236-0.121	c-0.069-0.037-0.137-0.074-0.208-0.108c0,0-0.001-0.001-0.002-0.001c-0.025-0.012-0.049-0.023-0.073-0.036	c-0.022-0.012-0.046-0.023-0.069-0.034c-0.158-0.076-0.319-0.148-0.479-0.22c-0.034-0.015-0.068-0.033-0.104-0.048l0,0	c-0.009-0.003-0.019-0.008-0.026-0.01c-0.008-0.003-0.017-0.007-0.024-0.009c0-0.001-0.002-0.001-0.003-0.001	c-0.003-0.004-0.006-0.004-0.008-0.005h-0.001c-0.001,0-0.001-0.002-0.001-0.002h-0.001c-0.176-0.073-0.352-0.143-0.529-0.21	v-0.001c-0.057-0.021-0.111-0.041-0.169-0.061H78.6c-0.162-0.061-0.327-0.116-0.491-0.168l-0.002-0.001	c-0.042-0.016-0.083-0.028-0.125-0.042l0,0c-0.182-0.058-0.366-0.108-0.551-0.158c-0.024-0.005-0.046-0.014-0.071-0.02	c-0.043-0.012-0.088-0.022-0.131-0.033c-0.002,0-0.002,0-0.002,0c-0.033-0.01-0.066-0.016-0.1-0.024	c-0.138-0.033-0.273-0.064-0.411-0.095c-0.03-0.007-0.062-0.013-0.091-0.021c-0.03-0.005-0.061-0.012-0.09-0.018h-0.001	c-0.154-0.031-0.312-0.06-0.47-0.085c-0.195-0.031-0.393-0.062-0.591-0.085c-0.001,0-0.003,0-0.005,0	c-0.155-0.019-0.31-0.038-0.467-0.052c-0.152-0.014-0.305-0.025-0.458-0.033l0,0c-0.036-0.003-0.07-0.008-0.104-0.01	c-0.022,0-0.043,0-0.065-0.001c-0.004,0-0.009-0.001-0.014-0.001l0,0c-0.088-0.005-0.178-0.005-0.265-0.008	c-0.14-0.004-0.278-0.011-0.418-0.011c-0.139,0-0.277,0.006-0.416,0.011h-0.001c-0.001,0-0.004,0-0.006,0	c-0.023,0.001-0.045,0.002-0.067,0.002c-0.054,0-0.105,0.002-0.159,0.003c-0.04,0.002-0.08,0.003-0.121,0.004l0,0l0,0	c-0.136,0.007-0.269,0.021-0.402,0.03c-0.004,0-0.01,0.001-0.017,0.001c-0.081,0.005-0.161,0.013-0.241,0.019	c-0.029,0.003-0.058,0.004-0.086,0.007c-0.145,0.016-0.286,0.036-0.429,0.056c-0.103,0.013-0.208,0.022-0.308,0.039	c-0.146,0.022-0.289,0.05-0.433,0.078c-0.061,0.011-0.121,0.021-0.183,0.032c-0.036,0.007-0.073,0.013-0.111,0.02c0,0,0,0-0.001,0	c-0.102,0.021-0.203,0.047-0.304,0.071c-0.031,0.006-0.061,0.014-0.094,0.021c-0.012,0.004-0.024,0.007-0.037,0.009	c-0.032,0.008-0.063,0.015-0.095,0.022c-0.061,0.013-0.12,0.026-0.182,0.041c-0.139,0.038-0.274,0.078-0.414,0.118	c-0.009,0.003-0.019,0.005-0.027,0.009c-0.085,0.024-0.171,0.047-0.254,0.073l-0.002,0.001c-0.015,0.004-0.027,0.009-0.042,0.014	c-0.106,0.034-0.212,0.073-0.318,0.108c-0.025,0.008-0.05,0.016-0.074,0.025c-0.075,0.025-0.15,0.05-0.226,0.076	c-0.007,0.003-0.016,0.006-0.022,0.007c-0.067,0.026-0.135,0.055-0.204,0.082c-0.042,0.017-0.084,0.034-0.126,0.051	c-0.035,0.014-0.067,0.026-0.103,0.041c-0.077,0.031-0.155,0.059-0.232,0.092c0,0-0.001,0-0.002,0	c-0.037,0.016-0.071,0.032-0.107,0.049c-0.084,0.038-0.171,0.076-0.256,0.117c-0.027,0.011-0.055,0.022-0.081,0.036	c-0.066,0.031-0.137,0.06-0.201,0.091v0.001c-0.114,0.055-0.226,0.113-0.336,0.173c-0.036,0.02-0.072,0.037-0.109,0.057	c-0.062,0.032-0.125,0.063-0.187,0.095c-0.001,0-0.002,0.001-0.005,0.003c-0.079,0.044-0.157,0.092-0.236,0.136	c-0.069,0.039-0.136,0.078-0.203,0.118c-0.056,0.033-0.114,0.064-0.169,0.098c0,0-0.001,0.001-0.003,0.002	c-0.065,0.041-0.13,0.083-0.193,0.125c-0.003,0.002-0.005,0.002-0.011,0.006c-0.017,0.011-0.032,0.021-0.05,0.032	c-0.065,0.042-0.132,0.084-0.197,0.125c-0.046,0.033-0.095,0.061-0.14,0.093c-0.001,0.001-0.002,0.002-0.004,0.003	c-0.078,0.053-0.153,0.107-0.229,0.162c-0.076,0.054-0.152,0.106-0.226,0.161c-0.038,0.028-0.079,0.055-0.116,0.082	c-0.002,0.002-0.002,0.003-0.004,0.005c-0.02,0.014-0.037,0.029-0.056,0.043c-0.023,0.019-0.048,0.038-0.072,0.059	c-0.109,0.083-0.216,0.167-0.322,0.254c-0.032,0.026-0.066,0.051-0.097,0.077c-0.002,0.001-0.005,0.003-0.007,0.005l-0.001,0.001	c-0.007,0.005-0.013,0.011-0.018,0.016c-0.03,0.025-0.059,0.051-0.088,0.075c-0.116,0.101-0.232,0.199-0.348,0.302	c-0.022,0.022-0.048,0.041-0.07,0.063c-0.003,0.003-0.005,0.004-0.007,0.007c-0.008,0.006-0.016,0.014-0.023,0.021	c-0.147,0.137-0.291,0.273-0.433,0.416c-0.016,0.015-0.03,0.028-0.045,0.044c-0.071,0.071-0.14,0.146-0.21,0.22	C63.041,23.959,63,24,62.962,24.042c-0.04,0.042-0.081,0.083-0.12,0.126c-0.012,0.012-0.024,0.022-0.036,0.037	c-0.134,0.148-0.261,0.305-0.39,0.458c0,0.001-0.001,0.001-0.001,0.001c-0.005,0.007-0.012,0.014-0.018,0.019	c-0.037,0.044-0.076,0.087-0.111,0.132c-0.02,0.024-0.04,0.047-0.06,0.072c-0.105,0.131-0.203,0.269-0.303,0.401	c-0.078,0.104-0.16,0.206-0.236,0.313c-0.154,0.22-0.302,0.445-0.444,0.673c-0.016,0.025-0.033,0.049-0.049,0.073	c-0.021,0.038-0.043,0.077-0.065,0.116c-0.048,0.077-0.09,0.157-0.135,0.236c-0.1,0.169-0.191,0.341-0.283,0.514	c-0.021,0.041-0.046,0.082-0.068,0.124c-0.051,0.1-0.101,0.199-0.148,0.3c-0.027,0.06-0.052,0.115-0.079,0.172	c-0.07,0.148-0.141,0.296-0.205,0.447c-0.046,0.105-0.09,0.21-0.133,0.317c-0.09,0.22-0.17,0.443-0.249,0.671	c-0.034,0.094-0.068,0.187-0.101,0.283c0,0,0,0.002,0,0.003c-0.009,0.032-0.019,0.062-0.027,0.097	c-0.093,0.289-0.179,0.58-0.251,0.876h-0.002c-0.001,0.003-0.001,0.005-0.001,0.009c-0.281,1.132-0.433,2.318-0.433,3.535v0.905	v14.187v5.151c0,0.01,0.001,0.022,0.001,0.034c0.002,0.281,0.011,0.56,0.027,0.838c0.006,0.087,0.011,0.172,0.018,0.259	c0.018,0.236,0.039,0.472,0.066,0.705c0.008,0.06,0.013,0.122,0.021,0.183c0.037,0.283,0.082,0.563,0.134,0.847	c0.016,0.079,0.032,0.157,0.049,0.235c0.045,0.221,0.094,0.44,0.146,0.658c0.021,0.077,0.037,0.154,0.058,0.232	c0.071,0.272,0.148,0.546,0.235,0.814c0.021,0.065,0.042,0.127,0.063,0.188c0.071,0.218,0.149,0.435,0.231,0.649	c0.031,0.08,0.063,0.164,0.095,0.244c0.104,0.262,0.213,0.52,0.329,0.771c0.015,0.031,0.029,0.062,0.044,0.093	c0.109,0.229,0.228,0.463,0.348,0.688c0.015,0.028,0.03,0.058,0.044,0.082c0.032,0.062,0.064,0.117,0.099,0.18	c0.082,0.146,0.169,0.298,0.259,0.445c0.049,0.082,0.096,0.162,0.145,0.239c0.138,0.218,0.277,0.438,0.427,0.646	c0.02,0.026,0.038,0.052,0.054,0.075c0.136,0.188,0.274,0.377,0.416,0.56c0.055,0.067,0.111,0.135,0.166,0.204	c0.115,0.139,0.229,0.275,0.35,0.413c0.06,0.065,0.12,0.139,0.182,0.204c0.133,0.146,0.271,0.289,0.41,0.43	c0.046,0.046,0.09,0.094,0.137,0.141c0.187,0.182,0.375,0.355,0.567,0.525c0.054,0.046,0.11,0.09,0.165,0.136	c0.146,0.124,0.295,0.243,0.447,0.362c0.072,0.056,0.146,0.109,0.221,0.166c0.144,0.107,0.29,0.211,0.438,0.311	c0.072,0.051,0.144,0.1,0.216,0.146c0.212,0.138,0.426,0.268,0.646,0.393c0.026,0.017,0.055,0.029,0.082,0.045	c0.207,0.113,0.418,0.226,0.632,0.325c0.081,0.038,0.165,0.076,0.247,0.114c0.162,0.074,0.326,0.145,0.49,0.211	c0.091,0.035,0.181,0.073,0.271,0.105c0.18,0.066,0.359,0.129,0.543,0.188c0.074,0.021,0.146,0.048,0.223,0.07	c0.25,0.075,0.505,0.145,0.764,0.204c0.079,0.018,0.159,0.031,0.241,0.051c0.188,0.038,0.377,0.075,0.57,0.104	c0.104,0.019,0.207,0.03,0.31,0.045c0.182,0.024,0.366,0.043,0.551,0.062c0.101,0.008,0.2,0.021,0.303,0.028	c0.252,0.016,0.506,0.024,0.764,0.025c0.028,0,0.057,0.002,0.086,0.002c0.372,0,0.749-0.015,1.133-0.05	c0.377-0.028,0.763-0.078,1.152-0.144l8.877-1.349l0.729-0.106l-0.202-5.271l-0.105-2.819l-0.013-0.338l-0.015-0.354l-0.009-0.23	H73.67c-0.021,0-0.038,0-0.058,0c-0.138-0.002-0.272-0.011-0.406-0.024c-0.059-0.007-0.113-0.019-0.17-0.026	c-0.098-0.013-0.193-0.033-0.288-0.055c-0.055-0.012-0.107-0.024-0.16-0.041c-0.005-0.001-0.01-0.001-0.015-0.004	c-0.096-0.026-0.188-0.061-0.28-0.09c-0.049-0.021-0.102-0.034-0.148-0.059c-0.133-0.054-0.263-0.109-0.388-0.179	c-0.018-0.009-0.033-0.021-0.049-0.029c-0.116-0.064-0.229-0.137-0.339-0.213c-0.039-0.024-0.078-0.058-0.117-0.089	c-0.081-0.061-0.16-0.122-0.237-0.188c-0.039-0.037-0.076-0.07-0.114-0.104c-0.076-0.073-0.149-0.149-0.221-0.228	c-0.028-0.03-0.059-0.063-0.086-0.097c-0.093-0.108-0.181-0.223-0.262-0.344c-0.003-0.003-0.005-0.008-0.01-0.011l0,0	c-0.063-0.096-0.121-0.194-0.177-0.293c-0.02-0.033-0.035-0.066-0.052-0.101c-0.039-0.071-0.074-0.148-0.108-0.227	c-0.016-0.032-0.03-0.067-0.046-0.104c-0.039-0.099-0.077-0.197-0.109-0.302c-0.003-0.011-0.009-0.021-0.012-0.032	c-0.033-0.111-0.062-0.226-0.087-0.339c-0.007-0.04-0.015-0.079-0.021-0.118c-0.016-0.082-0.029-0.164-0.039-0.248	c-0.004-0.043-0.009-0.082-0.014-0.125c-0.01-0.109-0.016-0.223-0.017-0.338c0-0.009-0.001-0.018-0.001-0.025v-4.631h13.293	c2.916,0,5.317-2.316,5.317-5.316v-9.39v-0.905C88.25,33.992,88.247,33.938,88.245,33.881z M69.639,39.021v-4.976	c0-2.229,1.8-4.03,4.031-4.03c0.021,0,0.043,0.003,0.064,0.004c0.098,0,0.193,0.005,0.288,0.015	c0.048,0.004,0.096,0.012,0.143,0.018c0.072,0.01,0.145,0.021,0.215,0.034c0.048,0.009,0.096,0.02,0.144,0.029	c0.072,0.018,0.145,0.036,0.215,0.058c0.041,0.012,0.084,0.021,0.125,0.036c0.106,0.035,0.211,0.074,0.314,0.118	c0.03,0.013,0.059,0.027,0.089,0.042c0.076,0.034,0.151,0.07,0.224,0.109c0.04,0.023,0.079,0.044,0.117,0.067	c0.063,0.038,0.126,0.077,0.188,0.117c0.038,0.024,0.075,0.049,0.109,0.073c0.068,0.049,0.135,0.101,0.199,0.153	c0.025,0.021,0.052,0.038,0.076,0.062c0.088,0.072,0.171,0.149,0.252,0.231c0.021,0.022,0.042,0.045,0.063,0.067	c0.06,0.063,0.117,0.127,0.174,0.193c0.024,0.03,0.049,0.063,0.074,0.093c0.05,0.064,0.099,0.132,0.146,0.198	c0.022,0.03,0.043,0.061,0.063,0.092c0.058,0.088,0.114,0.18,0.165,0.274c0.007,0.009,0.012,0.019,0.018,0.028	c0.055,0.105,0.107,0.215,0.155,0.327c0.011,0.025,0.02,0.052,0.029,0.08c0.022,0.056,0.048,0.112,0.067,0.17c0,0,0,0,0,0.002	c0.01,0.027,0.018,0.057,0.028,0.085c0.012,0.041,0.022,0.082,0.037,0.123c0.021,0.078,0.042,0.158,0.06,0.238	c0.011,0.045,0.021,0.087,0.028,0.132c0.017,0.087,0.028,0.175,0.04,0.265c0.006,0.036,0.011,0.073,0.014,0.108	c0.012,0.128,0.02,0.257,0.02,0.387v4.976l0,0h-0.229h-6.6h-0.689l0,0L69.639,39.021L69.639,39.021z"/><path style="fill:#A2C056;" d="M54.689,1.788L54.689,1.788l-0.005,0.113l0.003-0.113l0,0l0.031-0.672	c-0.069-0.046-0.17-0.1-0.292-0.158c-0.026-0.013-0.06-0.025-0.087-0.039c0.03,0.015,0.063,0.026,0.091,0.041	c0.123,0.057,0.219,0.109,0.288,0.154c-0.068-0.045-0.166-0.098-0.287-0.154c-0.032-0.017-0.074-0.031-0.109-0.048	c-0.03-0.015-0.062-0.026-0.093-0.041c-0.014-0.005-0.023-0.012-0.039-0.017c-0.042-0.017-0.088-0.036-0.133-0.052	c-0.054-0.021-0.108-0.042-0.167-0.062c-0.079-0.029-0.161-0.059-0.25-0.088c-0.007-0.001-0.015-0.005-0.024-0.007	c-0.102-0.033-0.211-0.065-0.324-0.101c-0.024-0.006-0.046-0.014-0.071-0.021c-0.004,0-0.009-0.002-0.014-0.004	c-0.002,0-0.002,0-0.002,0c-0.01-0.003-0.016-0.004-0.023-0.006c-0.048-0.014-0.098-0.026-0.146-0.039	c-0.032-0.009-0.066-0.019-0.1-0.026c-0.023-0.007-0.046-0.014-0.07-0.02c-0.023-0.007-0.05-0.012-0.074-0.018	c-0.015-0.004-0.028-0.007-0.044-0.012c-0.079-0.02-0.158-0.039-0.242-0.058h-0.002c-0.029-0.006-0.061-0.012-0.089-0.019	c-0.098-0.021-0.195-0.043-0.298-0.063c-0.022-0.004-0.047-0.008-0.069-0.013c-0.025-0.005-0.052-0.009-0.078-0.014	c-0.084-0.016-0.17-0.032-0.258-0.047c-0.001,0-0.001,0-0.001,0c-0.022-0.004-0.047-0.006-0.069-0.011	c-0.008,0-0.017-0.002-0.024-0.004c-0.109-0.016-0.219-0.034-0.331-0.048h-0.003c-0.026-0.004-0.057-0.007-0.085-0.011	c-0.008-0.001-0.015-0.001-0.021-0.003c-0.002,0-0.003-0.001-0.005-0.001c-0.009,0-0.021-0.001-0.027-0.001	c-0.1-0.014-0.201-0.025-0.304-0.036c0,0,0,0-0.001,0c-0.04-0.006-0.081-0.008-0.122-0.011l0,0	c-0.112-0.012-0.224-0.021-0.34-0.029c-0.023-0.001-0.047-0.002-0.071-0.004c-0.028-0.002-0.055-0.004-0.083-0.005	c-0.004,0-0.007,0-0.01,0c-0.103-0.007-0.205-0.012-0.31-0.017c-0.033-0.001-0.069-0.001-0.104-0.002c-0.021,0-0.042,0-0.063,0	c-0.011,0-0.022,0-0.035-0.001c-0.001,0-0.001,0-0.001,0c-0.1,0.003-0.2,0-0.303,0l0,0l0,0c-0.229,0-0.456,0.007-0.683,0.019	c-0.031,0.003-0.062,0.005-0.093,0.007c-0.043,0.003-0.085,0.008-0.128,0.011c-0.154,0.009-0.309,0.021-0.461,0.04	c-0.086,0.008-0.169,0.02-0.254,0.029c-0.143,0.019-0.283,0.038-0.425,0.062C47.272,0.18,47.185,0.194,47.1,0.211	c-0.142,0.025-0.284,0.055-0.426,0.085c-0.078,0.018-0.159,0.033-0.237,0.052c-0.161,0.037-0.321,0.08-0.48,0.124	C45.9,0.486,45.843,0.5,45.786,0.517c-0.212,0.063-0.424,0.128-0.632,0.2c-0.061,0.021-0.122,0.045-0.182,0.067	C44.824,0.837,44.676,0.89,44.53,0.95c-0.082,0.031-0.16,0.066-0.241,0.101c-0.125,0.052-0.25,0.107-0.374,0.163	c-0.077,0.036-0.154,0.072-0.23,0.106c-0.185,0.089-0.366,0.18-0.544,0.272c-0.049,0.026-0.098,0.05-0.146,0.078	c-0.218,0.117-0.432,0.242-0.643,0.372c-0.001,0-0.003,0-0.005,0.001c-0.061,0.039-0.123,0.078-0.185,0.118	c0.042-0.026,0.082-0.057,0.124-0.081c-0.042,0.024-0.082,0.055-0.124,0.081c-0.048,0.029-0.093,0.061-0.14,0.092	c-0.11,0.072-0.224,0.144-0.333,0.218c-0.062,0.044-0.127,0.087-0.189,0.132l0,0c-0.201,0.145-0.399,0.292-0.596,0.444	c0,0-0.001,0-0.001,0.001c-0.042,0.032-0.081,0.066-0.123,0.099c0.032-0.025,0.064-0.055,0.099-0.081	c-0.035,0.025-0.066,0.056-0.1,0.083c-0.081,0.064-0.156,0.132-0.235,0.197c-0.077,0.064-0.156,0.126-0.231,0.192	c-0.023,0.021-0.047,0.042-0.071,0.063c-0.039,0.034-0.078,0.069-0.117,0.104c-0.152,0.137-0.303,0.276-0.45,0.42	c-0.037,0.036-0.075,0.07-0.113,0.107c-0.094,0.095-0.184,0.191-0.275,0.287c-0.079,0.083-0.161,0.166-0.24,0.249	c-0.053,0.06-0.105,0.118-0.158,0.178c0,0.001,0,0.001,0,0.004c-0.002,0-0.003,0-0.003,0c-0.126,0.14-0.249,0.281-0.369,0.427V5.38	c-0.048,0.059-0.099,0.118-0.146,0.177c-0.094,0.114-0.181,0.231-0.27,0.347C38.036,5.987,37.97,6.066,37.91,6.15	c-0.015,0.019-0.026,0.035-0.038,0.054c-0.023,0.032-0.048,0.065-0.07,0.1c-0.027,0.038-0.052,0.076-0.08,0.115	c-0.087,0.124-0.174,0.249-0.26,0.376c-0.025,0.038-0.05,0.077-0.075,0.115c-0.021,0.029-0.042,0.062-0.061,0.093h-0.002	c-0.12,0.188-0.237,0.38-0.352,0.573l0,0c-0.018,0.029-0.037,0.059-0.054,0.089v0.001c-0.127,0.22-0.246,0.441-0.362,0.668	c-0.009,0.017-0.019,0.035-0.027,0.053c-0.025,0.052-0.051,0.104-0.077,0.154c0,0.003-0.001,0.004-0.001,0.004	c-0.089,0.178-0.173,0.355-0.255,0.537c0,0.001-0.001,0.002-0.001,0.003c-0.026,0.062-0.057,0.123-0.083,0.184	c-0.025,0.062-0.048,0.122-0.073,0.181c-0.075,0.175-0.148,0.349-0.215,0.526c-0.005,0.01-0.008,0.021-0.011,0.031	c-0.018,0.049-0.037,0.1-0.055,0.147c-0.033,0.089-0.062,0.18-0.092,0.268c-0.036,0.104-0.073,0.208-0.107,0.313	c-0.008,0.025-0.016,0.054-0.022,0.079c-0.017,0.047-0.032,0.095-0.047,0.143c-0.061,0.197-0.114,0.397-0.169,0.602	c-0.012,0.048-0.027,0.096-0.041,0.145v0.001l0,0c0,0,0,0,0,0.001l0,0l0,0l0,0v0.001l0,0c-0.001,0.002-0.001,0.002-0.002,0.004	c-0.004,0.018-0.008,0.037-0.013,0.055c0.005-0.018,0.009-0.038,0.014-0.056c0,0,0,0,0.001-0.002	c-0.014,0.05-0.021,0.099-0.033,0.147c0.008-0.029,0.012-0.06,0.019-0.089c-0.064,0.267-0.124,0.534-0.177,0.804	c-0.001,0.011-0.004,0.021-0.006,0.029c-0.003,0.015-0.004,0.029-0.007,0.043l0,0l0,0c-0.048,0.254-0.089,0.511-0.122,0.77	c-0.013,0.087-0.021,0.174-0.031,0.264c-0.023,0.193-0.042,0.388-0.055,0.583c-0.009,0.091-0.017,0.18-0.021,0.271	c-0.015,0.261-0.025,0.521-0.025,0.783c0,0.015-0.002,0.028-0.002,0.043v0.918v63.234l0.459-0.024l10.177-0.572V40.395h0.001l0,0	h7.975v-9.719v-0.688V29.76h-6.83h-0.687l0,0h-0.458v-0.001h-0.001V15.351c0-2.229,1.8-4.03,3.943-4.03h4.89l0.392-9.313l0,0	L54.689,1.788L54.689,1.788l0.029-0.673L54.689,1.788z"/><polygon style="fill:#A2C056;" points="10.635,2.26 10.635,2.26 10.635,2.289 0.458,1.633 0,1.603 0,2.818 0,68.27 0.458,68.27	10.635,68.27 10.635,2.326 10.635,2.289	"/><g><g><path style="fill:#A2C056;" d="M28.788,10.908c-0.001-0.007-0.001-0.013-0.001-0.021l0,0c0,0,0-0.001-0.001-0.002	c-0.006-0.056-0.019-0.109-0.024-0.165c0-0.005-0.002-0.011-0.002-0.016c-0.019-0.136-0.035-0.271-0.063-0.404	c0-0.003-0.002-0.007-0.002-0.011c-0.015-0.07-0.034-0.14-0.051-0.21c-0.002-0.001-0.002-0.003-0.002-0.005	c-0.013-0.055-0.028-0.107-0.042-0.161c-0.015-0.061-0.027-0.119-0.047-0.179C28.53,9.658,28.5,9.581,28.474,9.503	c0-0.001,0-0.002-0.001-0.003c-0.027-0.078-0.055-0.155-0.086-0.23c-0.01-0.026-0.019-0.056-0.029-0.082	c0-0.002,0-0.003-0.001-0.004c-0.021-0.05-0.043-0.099-0.065-0.149c0-0.001-0.002-0.003-0.005-0.006	c-0.051-0.113-0.104-0.228-0.161-0.337c-0.001-0.001-0.001-0.003-0.002-0.005c-0.026-0.05-0.053-0.099-0.08-0.147l-0.001-0.002	c-0.043-0.076-0.09-0.148-0.135-0.222c-0.032-0.052-0.062-0.104-0.095-0.151c0-0.002-0.001-0.002-0.001-0.004	c-0.001-0.001-0.001-0.002-0.002-0.004c-0.015-0.023-0.029-0.047-0.045-0.07V8.084c-0.098-0.146-0.204-0.282-0.313-0.417	c0-0.002,0-0.002,0-0.002L27.446,7.66c-0.029-0.038-0.062-0.072-0.094-0.11h-0.001c-0.084-0.1-0.173-0.196-0.264-0.29	c-0.018-0.016-0.032-0.032-0.048-0.048c-0.024-0.025-0.048-0.05-0.072-0.073c-0.021-0.018-0.041-0.035-0.062-0.055	c-0.079-0.074-0.159-0.15-0.243-0.223c-0.031-0.025-0.062-0.054-0.094-0.08c-0.067-0.057-0.142-0.106-0.212-0.159	c-0.07-0.054-0.139-0.109-0.211-0.158C26.113,6.441,26.08,6.421,26.047,6.4c-0.085-0.057-0.174-0.108-0.262-0.159	c-0.032-0.021-0.063-0.041-0.095-0.06c-0.05-0.028-0.1-0.055-0.149-0.081c-0.111-0.057-0.227-0.11-0.342-0.162	c-0.006-0.003-0.011-0.006-0.017-0.01c-0.043-0.019-0.087-0.04-0.133-0.059c-0.121-0.051-0.245-0.094-0.37-0.138	c-0.044-0.015-0.089-0.034-0.134-0.049c-0.027-0.009-0.053-0.015-0.079-0.021c-0.147-0.044-0.298-0.083-0.449-0.115	c-0.054-0.013-0.11-0.023-0.165-0.034c-0.071-0.014-0.145-0.021-0.216-0.033c-0.062-0.009-0.122-0.021-0.184-0.028	c-0.056-0.007-0.109-0.016-0.164-0.021l0,0c-0.008,0-0.013,0-0.019,0c-0.18-0.016-0.359-0.028-0.543-0.028	c-0.003,0-0.004,0-0.007,0c-0.203,0-0.401,0.013-0.598,0.031c-0.068,0.006-0.134,0.021-0.199,0.029	c-0.131,0.016-0.263,0.035-0.392,0.06c-0.077,0.017-0.153,0.038-0.231,0.059c-0.106,0.023-0.212,0.051-0.315,0.081	c-0.008,0.003-0.015,0.004-0.021,0.007h-0.001c-0.082,0.024-0.162,0.055-0.243,0.084c-0.1,0.037-0.201,0.07-0.299,0.109	c0,0.001-0.003,0.001-0.003,0.001c-0.081,0.034-0.158,0.072-0.237,0.109c-0.048,0.022-0.096,0.046-0.145,0.069	c-0.048,0.022-0.096,0.045-0.142,0.069c-0.078,0.042-0.154,0.087-0.229,0.134c-0.084,0.048-0.167,0.098-0.247,0.149	c-0.007,0.003-0.013,0.007-0.019,0.01c-0.073,0.05-0.146,0.104-0.218,0.154c-0.081,0.058-0.162,0.117-0.24,0.18	c-0.003,0.002-0.003,0.004-0.006,0.004c-0.067,0.055-0.135,0.114-0.202,0.174c-0.021,0.017-0.041,0.036-0.062,0.053	c-0.057,0.05-0.111,0.1-0.165,0.151c-0.059,0.056-0.115,0.113-0.17,0.173c-0.004,0.005-0.01,0.012-0.016,0.016	c-0.071,0.074-0.141,0.15-0.208,0.229c-0.044,0.05-0.083,0.103-0.126,0.152c-0.013,0.018-0.027,0.034-0.042,0.053l0,0	c-0.031,0.04-0.061,0.083-0.092,0.124c-0.032,0.041-0.062,0.08-0.092,0.122V7.99c-0.027,0.037-0.052,0.075-0.079,0.114	c-0.021,0.034-0.045,0.067-0.067,0.103c-0.048,0.072-0.093,0.147-0.137,0.224c-0.008,0.014-0.018,0.027-0.024,0.042l0,0	l-0.006,0.003c-0.043,0.075-0.086,0.151-0.127,0.23v0.001c-0.018,0.033-0.031,0.068-0.05,0.104	c-0.027,0.06-0.057,0.117-0.086,0.177c-0.001,0.002-0.001,0.002-0.001,0.005c-0.036,0.077-0.071,0.156-0.103,0.235l-0.001,0.004	c-0.04,0.097-0.075,0.197-0.109,0.296c-0.001,0.003-0.001,0.005-0.002,0.007c-0.027,0.081-0.056,0.161-0.079,0.243	c-0.001,0.001-0.001,0.001-0.001,0.005c-0.016,0.054-0.029,0.109-0.044,0.166c-0.011,0.049-0.025,0.099-0.038,0.146	c0,0.003,0,0.004,0,0.006c-0.011,0.049-0.028,0.098-0.038,0.146c-0.008,0.034-0.011,0.068-0.018,0.102v0.003l0,0	c-0.006,0.027-0.009,0.056-0.014,0.082c-0.014,0.082-0.025,0.162-0.037,0.246c-0.001,0.002-0.001,0.007-0.001,0.01	c-0.012,0.083-0.024,0.166-0.031,0.249c0,0.001,0,0.003,0,0.003c-0.004,0.026-0.003,0.053-0.004,0.079	c-0.013,0.154-0.024,0.311-0.024,0.471c0,0.188,0.011,0.374,0.028,0.557c0.003,0.044,0.009,0.088,0.015,0.133	c0.019,0.164,0.043,0.326,0.073,0.486c0.004,0.02,0.007,0.04,0.011,0.059c0.036,0.174,0.083,0.348,0.134,0.518	c0.014,0.042,0.027,0.085,0.041,0.125c0.046,0.141,0.098,0.278,0.153,0.415c0.014,0.031,0.025,0.063,0.039,0.098	c0.069,0.158,0.144,0.313,0.226,0.465c0.021,0.038,0.042,0.075,0.063,0.111c0.033,0.06,0.07,0.117,0.105,0.174	c0.039,0.063,0.077,0.131,0.118,0.192c0.021,0.03,0.04,0.062,0.061,0.093c0.096,0.141,0.196,0.274,0.306,0.407	c0.024,0.029,0.049,0.059,0.075,0.088c0.095,0.113,0.195,0.223,0.299,0.329c0.021,0.021,0.043,0.046,0.066,0.068	c0.121,0.121,0.248,0.234,0.379,0.344c0.028,0.024,0.059,0.05,0.09,0.073c0.119,0.097,0.242,0.189,0.369,0.276	c0.02,0.015,0.041,0.03,0.06,0.044c0.144,0.096,0.292,0.186,0.444,0.271c0.034,0.02,0.066,0.037,0.1,0.055	c0.146,0.077,0.292,0.148,0.443,0.214c0.013,0.005,0.025,0.011,0.04,0.018c0.164,0.069,0.332,0.131,0.502,0.186	c0.035,0.012,0.069,0.021,0.104,0.031c0.172,0.053,0.347,0.1,0.522,0.136c0,0,0.001,0.001,0.003,0.001	c0.181,0.038,0.365,0.063,0.55,0.084c0.036,0.004,0.071,0.009,0.107,0.011c0.186,0.019,0.373,0.029,0.563,0.029	c0.207,0,0.413-0.012,0.613-0.032c0.031-0.002,0.059-0.009,0.089-0.014c0.169-0.02,0.337-0.042,0.501-0.077	c0.055-0.009,0.107-0.028,0.161-0.039c0.137-0.033,0.274-0.065,0.408-0.106c0.063-0.021,0.126-0.044,0.188-0.066	c0.12-0.041,0.242-0.084,0.358-0.133c0.068-0.027,0.133-0.06,0.199-0.091c0.108-0.05,0.218-0.101,0.322-0.156	c0.069-0.035,0.135-0.077,0.2-0.115c0.101-0.059,0.198-0.117,0.294-0.18c0.066-0.045,0.131-0.092,0.196-0.138	c0.091-0.065,0.179-0.131,0.267-0.2c0.064-0.051,0.124-0.105,0.188-0.159c0.082-0.071,0.163-0.145,0.24-0.22	c0.061-0.057,0.119-0.119,0.177-0.18c0.074-0.077,0.146-0.155,0.215-0.236c0.056-0.064,0.11-0.132,0.163-0.2	c0.065-0.082,0.127-0.165,0.188-0.251c0.052-0.071,0.101-0.145,0.146-0.218c0.057-0.086,0.112-0.176,0.163-0.265	c0.044-0.078,0.088-0.156,0.128-0.233c0.048-0.092,0.093-0.185,0.134-0.279c0.038-0.082,0.075-0.165,0.11-0.247	c0.038-0.096,0.072-0.192,0.104-0.291c0.03-0.087,0.06-0.173,0.085-0.262c0.028-0.099,0.055-0.198,0.078-0.299	c0.021-0.092,0.044-0.182,0.062-0.273c0.019-0.103,0.033-0.205,0.047-0.311c0.014-0.094,0.028-0.188,0.035-0.283	c0.004-0.036,0.004-0.075,0.007-0.113c0.009-0.141,0.021-0.282,0.021-0.425C28.816,11.296,28.806,11.101,28.788,10.908z"/><polygon style="fill:#A2C056;" points="17.41,20.068 17.41,20.474 17.41,20.984 17.41,54.521 17.41,68.27 17.869,68.27	28.044,68.27 28.044,21.77 28.044,21.768 28.044,21.561 28.044,21.561 28.044,20.871 28.044,20.669 28.044,20.669	"/></g></g><rect x="308.977" y="20.85" style="fill:#FFFFFF;" width="1" height="48.011"/><path style="fill:#A2C056;" d="M330.09,35.778h1.692v11.007c-0.023,4.134,1.942,5.702,5.205,5.702c3.287,0,5.254-1.568,5.229-5.702	V35.778h1.692v11.38c0,3.66-1.968,6.771-6.923,6.771c-4.932,0-6.897-3.111-6.897-6.771L330.09,35.778L330.09,35.778z"/><path style="fill:#A2C056;" d="M347.323,35.778h1.692v9.563l10.335-9.563h2.291l-7.943,7.347l8.316,10.434h-2.19l-7.396-9.263	l-3.411,3.162v6.103h-1.692L347.323,35.778L347.323,35.778z"/></g></svg>