<?xml version="1.0" encoding="utf-8"?><!-- Generator: Adobe Illustrator 16.0.0, SVG Export Plug-In . SVG Version: 6.00 Build 0) --><!DOCTYPE svg PUBLIC "-//W3C//DTD SVG 1.1//EN" "http://www.w3.org/Graphics/SVG/1.1/DTD/svg11.dtd"><svg version="1.1" id="Layer_1" xmlns="http://www.w3.org/2000/svg" xmlns:xlink="http://www.w3.org/1999/xlink" x="0px" y="0px" width="377.764px" height="377.764px" viewBox="0 0 377.764 377.764" enable-background="new 0 0 377.764 377.764" xml:space="preserve"><path fill-rule="evenodd" clip-rule="evenodd" fill="#3ACE01" d="M77.315,0h223.133c42.523,0,77.315,34.792,77.315,77.315v223.133	c0,42.523-34.792,77.315-77.315,77.315H77.315C34.792,377.764,0,342.972,0,300.448V77.315C0,34.792,34.792,0,77.315,0z"/><path fill-rule="evenodd" clip-rule="evenodd" fill="#FFFFFF" d="M188.515,62.576c76.543,0,138.593,49.687,138.593,110.979	c0,21.409-7.576,41.398-20.691,58.351c-0.649,0.965-1.497,2.031-2.566,3.209l-0.081,0.088c-4.48,5.36-9.525,10.392-15.072,15.037	c-38.326,35.425-101.41,77.601-109.736,71.094c-7.238-5.656,11.921-33.321-10.183-37.925c-1.542-0.177-3.08-0.367-4.605-0.583	l-0.029-0.002v-0.002c-64.921-9.223-114.222-54.634-114.222-109.267C49.921,112.263,111.972,62.576,188.515,62.576z"/><path fill-rule="evenodd" clip-rule="evenodd" fill="#3ACE01" d="M108.103,208.954h0.465h0.138h27.349	c3.976,0,7.228-3.253,7.228-7.229v-0.603c0-3.976-3.252-7.228-7.228-7.228h-20.121v-45.779c0-3.976-3.252-7.228-7.228-7.228h-0.603	c-3.976,0-7.228,3.252-7.228,7.228v53.609C100.875,205.701,104.127,208.954,108.103,208.954L108.103,208.954z M281.308,175.351	v-0.603c0-3.976-3.253-7.228-7.229-7.228h-20.12v-11.445h20.12c3.976,0,7.229-3.252,7.229-7.228v-0.603	c0-3.976-3.253-7.228-7.229-7.228H246.73h-0.138h-0.465c-3.976,0-7.228,3.252-7.228,7.228v53.609c0,3.976,3.252,7.229,7.228,7.229	h0.465h0.138h27.349c3.976,0,7.229-3.253,7.229-7.229v-0.603c0-3.976-3.253-7.228-7.229-7.228h-20.12v-11.445h20.12	C278.055,182.579,281.308,179.326,281.308,175.351L281.308,175.351z M227.553,206.799l0.002-0.003c1.29-1.308,2.09-3.1,2.09-5.07	v-53.609c0-3.976-3.252-7.228-7.229-7.228h-0.603c-3.976,0-7.228,3.252-7.228,7.228v31.469l-26.126-35.042	c-1.248-2.179-3.598-3.655-6.276-3.655h-0.603c-3.976,0-7.229,3.252-7.229,7.228v53.609c0,3.976,3.252,7.229,7.229,7.229h0.603	c3.976,0,7.228-3.253,7.228-7.229v-32.058l26.314,35.941c0.162,0.252,0.339,0.494,0.53,0.724l0.001,0.002	c0.723,0.986,1.712,1.662,2.814,2.075c0.847,0.35,1.773,0.544,2.742,0.544h0.603c1.218,0,2.367-0.306,3.377-0.844	C226.515,207.766,227.124,207.322,227.553,206.799L227.553,206.799z M156.345,208.954h0.603c3.976,0,7.228-3.253,7.228-7.229	v-53.609c0-3.976-3.252-7.228-7.228-7.228h-0.603c-3.976,0-7.229,3.252-7.229,7.228v53.609	C149.116,205.701,152.369,208.954,156.345,208.954z"/></svg>