<svg id="Layer_1" data-name="Layer 1" xmlns="http://www.w3.org/2000/svg" viewBox="0 0 417.52 477"><defs><style>.cls-1{fill:#2b2b2b;}.cls-2{fill:#dfbb6b;}</style></defs><title>Untitled-1</title><path class="cls-1" d="M451.49,124.61l-192.22-111a16.54,16.54,0,0,0-16.55,0l-192.22,111a16.55,16.55,0,0,0-8.27,14.33V360.88a16.55,16.55,0,0,0,8.27,14.33l192.22,111a16.55,16.55,0,0,0,16.55,0l192.22-111a16.54,16.54,0,0,0,8.27-14.33V138.93A16.54,16.54,0,0,0,451.49,124.61Z" transform="translate(-42.24 -11.41)"/><path class="cls-2" d="M168,283.86a14.23,14.23,0,0,1-7.1-1.9l-58.61-33.84a14.24,14.24,0,0,1-7.1-12.3V168.13a14.23,14.23,0,0,1,7.1-12.3L160.89,122a14.2,14.2,0,0,1,14.2,0l58.61,33.84a14.24,14.24,0,0,1,7.1,12.3v67.68a14.24,14.24,0,0,1-7.1,12.3L175.09,282A14.22,14.22,0,0,1,168,283.86Z" transform="translate(-42.24 -11.41)"/><path class="cls-2" d="M334,283.86a14.23,14.23,0,0,1-7.1-1.9L268.3,248.11a14.24,14.24,0,0,1-7.1-12.3V168.13a14.24,14.24,0,0,1,7.1-12.3L326.92,122a14.21,14.21,0,0,1,14.2,0l58.62,33.84a14.24,14.24,0,0,1,7.1,12.3v67.68a14.24,14.24,0,0,1-7.1,12.3L341.12,282A14.24,14.24,0,0,1,334,283.86Z" transform="translate(-42.24 -11.41)"/><path class="cls-2" d="M251,427.64a14.23,14.23,0,0,1-7.1-1.9l-58.61-33.84a14.24,14.24,0,0,1-7.1-12.3V311.91a14.23,14.23,0,0,1,7.1-12.3l58.61-33.84a14.21,14.21,0,0,1,14.2,0l58.61,33.84a14.24,14.24,0,0,1,7.1,12.3v67.68a14.24,14.24,0,0,1-7.1,12.3L258.1,425.73A14.23,14.23,0,0,1,251,427.64Z" transform="translate(-42.24 -11.41)"/></svg>