<?xml version="1.0" encoding="iso-8859-1"?><!-- Generator: Adobe Illustrator 16.0.0, SVG Export Plug-In . SVG Version: 6.00 Build 0) --><!DOCTYPE svg PUBLIC "-//W3C//DTD SVG 1.1//EN" "http://www.w3.org/Graphics/SVG/1.1/DTD/svg11.dtd"><svg version="1.1" id="Layer_1" xmlns="http://www.w3.org/2000/svg" xmlns:xlink="http://www.w3.org/1999/xlink" x="0px" y="0px" width="192.756px" height="192.756px" viewBox="0 0 192.756 192.756" style="enable-background:new 0 0 192.756 192.756;" xml:space="preserve"><g><polygon style="fill-rule:evenodd;clip-rule:evenodd;fill:#FFFFFF;" points="0,0 192.756,0 192.756,192.756 0,192.756 0,0	"/><path style="fill-rule:evenodd;clip-rule:evenodd;" d="M169.98,172.395h2.039v17.236l-12.463-13.045v12.404h-2.096v-17.412	l12.52,13.104V172.395L169.98,172.395z M111.402,172.395v10.539c0,1.863-0.525,3.377-1.574,4.543	c-1.105,1.281-2.619,1.863-4.541,1.863c-1.805,0-3.318-0.582-4.426-1.863c-1.105-1.166-1.631-2.68-1.631-4.543v-10.539h2.098v9.84	c0,3.436,1.281,5.184,3.959,5.184c2.736,0,4.076-1.748,4.076-5.184v-9.84H111.402L111.402,172.395z M117.807,172.395h9.957v1.922	h-3.959v14.674h-1.98v-14.674h-4.018V172.395L117.807,172.395z M114.197,172.395h2.096v16.596h-2.096V172.395L114.197,172.395z M95.854,172.395h2.271l-7.221,17.527l-7.22-17.527h2.271l4.95,12.287L95.854,172.395L95.854,172.395z M153.617,180.721	c0,1.863-0.641,3.436-1.979,4.775c-1.223,1.281-2.795,1.922-4.602,1.922c-1.805,0-3.377-0.641-4.715-1.922	c-1.34-1.34-1.98-2.912-1.98-4.775s0.582-3.436,1.863-4.717c1.281-1.338,2.912-1.979,4.832-1.979c1.922,0,3.494,0.641,4.717,1.979	C152.977,177.285,153.617,178.857,153.617,180.721L153.617,180.721z M153.152,174.607c-1.746-1.689-3.785-2.562-6.115-2.562	c-2.387,0-4.424,0.873-6.172,2.562c-1.688,1.688-2.562,3.727-2.562,6.113c0,2.445,0.875,4.484,2.562,6.172	c1.689,1.631,3.727,2.447,6.172,2.447c2.389,0,4.484-0.816,6.115-2.447c1.689-1.688,2.562-3.727,2.562-6.172	C155.715,178.334,154.842,176.295,153.152,174.607L153.152,174.607z M137.838,172.395v1.922h-3.902v14.674h-2.096v-14.674h-3.959	v-1.922H137.838L137.838,172.395z M41.525,176.004c1.223,1.281,1.805,2.854,1.805,4.717s-0.641,3.436-1.921,4.775	c-1.281,1.281-2.854,1.922-4.659,1.922c-1.805,0-3.377-0.641-4.716-1.922c-1.223-1.34-1.921-2.912-1.921-4.775	s0.64-3.436,1.863-4.717c1.281-1.338,2.854-1.979,4.775-1.979C38.672,174.025,40.303,174.666,41.525,176.004L41.525,176.004z M42.865,174.607c-1.747-1.689-3.785-2.562-6.114-2.562c-2.388,0-4.483,0.873-6.114,2.562c-1.747,1.688-2.62,3.727-2.62,6.113	c0,2.445,0.874,4.484,2.62,6.172c1.631,1.631,3.669,2.447,6.114,2.447c2.446,0,4.484-0.816,6.114-2.447	c1.747-1.688,2.562-3.727,2.562-6.172C45.427,178.334,44.612,176.295,42.865,174.607L42.865,174.607z M49.212,182.234	c0,3.436,1.339,5.184,4.018,5.184c2.621,0,4.018-1.748,4.018-5.184v-9.84h2.038v10.539c0,1.863-0.524,3.377-1.631,4.543	c-1.106,1.281-2.62,1.863-4.425,1.863c-1.863,0-3.319-0.582-4.425-1.863c-1.165-1.166-1.688-2.68-1.688-4.543v-10.539h2.096	V182.234L49.212,182.234z M22.775,172.395v14.732h5.066v1.863h-7.104v-16.596H22.775L22.775,172.395z M72.678,179.207	c2.795,1.105,4.135,2.736,4.135,4.949c0,1.514-0.524,2.736-1.572,3.727c-0.99,0.99-2.213,1.457-3.669,1.457	c-1.339,0-2.504-0.408-3.493-1.34c-0.932-0.873-1.514-1.98-1.689-3.318l2.096-0.467c0,0.932,0.291,1.689,0.932,2.33	c0.641,0.582,1.339,0.873,2.271,0.873c0.874,0,1.572-0.35,2.213-0.99c0.524-0.582,0.815-1.34,0.815-2.271	c0-1.281-0.932-2.328-2.853-3.145l-1.165-0.406c-2.329-1.107-3.552-2.504-3.552-4.252c0-1.281,0.524-2.387,1.456-3.145	c0.99-0.814,2.096-1.164,3.436-1.164c1.921,0,3.319,0.873,4.25,2.562l-1.63,0.932c-0.641-0.99-1.514-1.514-2.679-1.514	c-0.699,0-1.398,0.174-1.922,0.582c-0.582,0.465-0.874,1.049-0.874,1.746c0,0.99,0.757,1.748,2.387,2.33L72.678,179.207	L72.678,179.207z M62.081,172.395h2.097v16.596h-2.097V172.395L62.081,172.395z"/><path style="fill-rule:evenodd;clip-rule:evenodd;" d="M143.85,22.377l-40.162,94.791l-11.08-24.313l20.466-55.705	c1.539-4.308,6.924-6.309,16.004-6.309l3.23-8.464H84.606l-3.078,8.464c6.771,0,9.541,2,8.463,6.309L79.836,65.464L59.832,22.377	c-3.693-4.616-1.847-6.925,5.386-6.925V5.451H19.053v10.002c8.618,0,14.003,2.309,16.312,6.925l33.854,72.017l-15.85,42.317	c-0.309,5.693-9.233,8.465-26.468,8.465l-3.231,8.463h131.721l18.312-38.932h-9.541c-8.924,20.158-19.234,30.469-30.775,30.469	H72.911l8.925-23.852l7.694,15.387h17.235l48.625-114.333c2.309-6.925,8.311-10.617,17.697-10.617V2.834h-39.701v8.926	C145.389,11.76,148.775,15.453,143.85,22.377L143.85,22.377z"/></g></svg>