<?xml version="1.0" encoding="utf-8"?>
<!-- Generator: Adobe Illustrator 16.0.4, SVG Export Plug-In . SVG Version: 6.00 Build 0)  -->
<!DOCTYPE svg PUBLIC "-//W3C//DTD SVG 1.1//EN" "http://www.w3.org/Graphics/SVG/1.1/DTD/svg11.dtd">
<svg version="1.1" id="Layer_1" xmlns="http://www.w3.org/2000/svg" xmlns:xlink="http://www.w3.org/1999/xlink" x="0px" y="0px"
	 width="300px" height="300px" viewBox="0 0 300 300" style="enable-background:new 0 0 300 300;" xml:space="preserve">
<style type="text/css">
<![CDATA[
	.st0{fill-rule:evenodd;clip-rule:evenodd;fill:#E01F26;}
	.st1{fill-rule:evenodd;clip-rule:evenodd;fill:#1C75BC;}
]]>
</style>
<g>
	<path class="st1" d="M156.3,225.8c18.3-0.3,38.4-7.5,55.9-22.1c10.4-8.7,22.3-10.7,34.9-5.8c12.7,4.9,20.3,14.5,22.2,28
		c2.8,19.3-9.3,36.5-28.4,40.2c-10.9,2.1-20.7-0.7-29.2-7.8c-13-10.8-27.9-17.8-44.6-20.4c-28-4.3-52.9,2.9-74.8,20.7
		c-11.1,9-23.6,10.8-36.5,5c-13.2-5.9-20.2-16.5-21-31c-0.5-9.3,2.5-17.5,8.4-24.8c28.6-35.4,28.4-85-0.3-120.4
		c-16.7-20.6-6.7-51,19-57.5c20.4-5.1,41.5,10.2,43.1,31.2c0.8,10.4-2.3,19.3-8.9,27.4c-10,12.1-16.1,26.1-19.2,41.6
		c-4.9,24.6-0.1,46.9,15.4,66.7C106.6,215.1,128.9,225.7,156.3,225.8z"/>
	<path class="st0" d="M157.4,80.1c35.6,0,64,28.9,64,65.1c0,35.5-28.9,64.5-64.2,64.5c-35.4,0-64.1-29.1-64.1-64.9
		C93.2,108.9,121.9,80.1,157.4,80.1z M188.8,144.9c0.1-17.5-13.9-31.8-31-31.9c-17.7-0.1-31.8,13.9-31.9,31.6
		c-0.1,17.7,14.1,32.1,31.4,32.1C174.7,176.6,188.7,162.4,188.8,144.9z"/>
</g>
</svg>
