<?xml version="1.0" encoding="UTF-8" standalone="no"?>
<svg
   xmlns:dc="http://purl.org/dc/elements/1.1/"
   xmlns:cc="http://creativecommons.org/ns#"
   xmlns:rdf="http://www.w3.org/1999/02/22-rdf-syntax-ns#"
   xmlns:svg="http://www.w3.org/2000/svg"
   xmlns="http://www.w3.org/2000/svg"
   viewBox="0 0 202.94667 82.253334"
   height="82.253334"
   width="202.94667"
   xml:space="preserve"
   id="svg2"
   version="1.1"><metadata
     id="metadata8"><rdf:RDF><cc:Work
         rdf:about=""><dc:format>image/svg+xml</dc:format><dc:type
           rdf:resource="http://purl.org/dc/dcmitype/StillImage" /></cc:Work></rdf:RDF></metadata><defs
     id="defs6"><clipPath
       id="clipPath20"
       clipPathUnits="userSpaceOnUse"><path
         id="path18"
         d="M 0,0 H 1522 V 616.879 H 0 Z" /></clipPath></defs><g
     transform="matrix(1.3333333,0,0,-1.3333333,0,82.253333)"
     id="g10"><g
       transform="scale(0.1)"
       id="g12"><g
         id="g14"><g
           clip-path="url(#clipPath20)"
           id="g16"><path
             id="path22"
             style="fill:#ffffff;fill-opacity:1;fill-rule:nonzero;stroke:none"
             d="M 915.969,0 H 482.004 V 333.391 H 1026.44 L 915.969,0" /><path
             id="path24"
             style="fill:#1c63b7;fill-opacity:1;fill-rule:nonzero;stroke:none"
             d="M 597.199,322.578 H 1011.58 L 908.203,10.7891 H 597.199 V 322.578" /><path
             id="path26"
             style="fill:#ce0f3e;fill-opacity:1;fill-rule:nonzero;stroke:none"
             d="m 493.008,10.7891 h 104.223 v 311.805 H 493.008 Z" /><path
             id="path28"
             style="fill:#ffffff;fill-opacity:1;fill-rule:nonzero;stroke:none"
             d="m 676.023,233.359 h 10.559 v -6.129 h 0.117 c 2.321,4.801 6.973,6.922 12.231,6.922 4.738,0 8.683,-2.062 10.484,-6.418 2.688,4.477 7.164,6.418 11.902,6.418 9.661,0 11.848,-5.464 11.848,-14.535 v -19.758 h -11.578 v 18.032 c 0,3.789 -1.359,6.625 -4.641,6.625 -4.121,0 -6.57,-3.293 -6.57,-10.516 v -14.141 h -11.578 v 18.032 c 0,3.789 -1.375,6.625 -4.641,6.625 -4.121,0 -6.554,-3.293 -6.554,-10.516 v -14.141 h -11.579 v 33.5" /><path
             id="path30"
             style="fill:#ffffff;fill-opacity:1;fill-rule:nonzero;stroke:none"
             d="m 761.934,219.805 c 0,3.851 -1.805,7.019 -6.442,7.019 -4.195,0 -6.187,-3.168 -6.437,-7.019 z m -12.746,-6.559 c 0.632,-4.629 4.179,-6.445 9.835,-6.445 3.161,0 6.778,0.715 10.25,2.59 v -8.168 c -3.738,-1.504 -7.992,-2.149 -12.32,-2.149 -11.047,0 -19.476,6.508 -19.476,17.574 0,11.086 7.515,17.504 17.957,17.504 12.406,0 16.925,-8.808 16.925,-18.781 v -2.125 h -23.171" /><path
             id="path32"
             style="fill:#ffffff;fill-opacity:1;fill-rule:nonzero;stroke:none"
             d="m 801.055,224.117 c -1.285,0.399 -2.586,0.399 -3.93,0.399 -5.391,0 -8.434,-3.946 -8.434,-10.508 v -14.149 h -11.593 v 33.5 h 10.578 v -6.14 h 0.133 c 1.992,4.23 4.886,6.933 9.91,6.933 1.343,0 2.773,-0.199 3.926,-0.355 l -0.59,-9.68" /><path
             id="path34"
             style="fill:#ffffff;fill-opacity:1;fill-rule:nonzero;stroke:none"
             d="m 816.961,238.848 h -11.578 v 8.515 h 11.578 z m -11.578,-5.489 h 11.562 v -33.5 h -11.562 v 33.5" /><path
             id="path36"
             style="fill:#ffffff;fill-opacity:1;fill-rule:nonzero;stroke:none"
             d="m 847.977,223.789 c -2.129,1.285 -4.254,1.863 -7.047,1.863 -4.977,0 -8.86,-3.449 -8.86,-9.246 0,-5.351 4.532,-8.84 9.539,-8.84 2.629,0 5.289,0.59 7.192,1.625 l 0.254,-8.609 c -2.867,-0.988 -6.367,-1.508 -9.453,-1.508 -11.063,0 -19.497,6.442 -19.497,17.516 0,11.144 8.434,17.562 19.497,17.562 3.5,0 6.586,-0.562 9.199,-1.871 l -0.824,-8.492" /><path
             id="path38"
             style="fill:#ffffff;fill-opacity:1;fill-rule:nonzero;stroke:none"
             d="m 886.27,199.859 c -0.516,2.637 -0.649,5.286 -0.649,7.922 v 12.489 c 0,10.234 -7.387,13.882 -15.965,13.882 -4.949,0 -9.273,-0.695 -13.394,-2.371 l 0.218,-7.863 c 3.208,1.809 6.926,2.539 10.665,2.539 4.195,0 7.589,-1.242 7.652,-5.812 -1.465,0.253 -3.531,0.457 -5.406,0.457 -6.176,0 -17.313,-1.223 -17.313,-11.457 0,-7.278 5.926,-10.571 12.555,-10.571 4.758,0 7.992,1.856 10.633,6.071 h 0.105 c 0,-1.75 0.207,-3.477 0.25,-5.286 z m -23.379,10.618 c 0,3.218 3.086,4.445 7.031,4.445 1.742,0 3.41,-0.149 4.875,-0.207 0,-3.922 -2.75,-7.906 -7.137,-7.906 -2.699,0 -4.769,1.347 -4.769,3.668" /><path
             id="path40"
             style="fill:#ffffff;fill-opacity:1;fill-rule:nonzero;stroke:none"
             d="m 891.852,233.359 h 10.562 v -6.129 h 0.145 c 2.32,4.801 6.914,6.922 12.214,6.922 9.145,0 12.821,-6.418 12.821,-13.375 v -20.918 h -11.61 v 16.207 c 0,6.317 -2.172,8.45 -5.332,8.45 -4.769,0 -7.207,-3.293 -7.207,-10.516 v -14.141 h -11.593 v 33.5" /><path
             id="path42"
             style="fill:#ffffff;fill-opacity:1;fill-rule:nonzero;stroke:none"
             d="m 663.336,145.695 c -3.41,-0.843 -7.223,-1.804 -13.32,-1.804 -11.965,0 -25.801,6.05 -25.801,23.054 0,15.633 10.926,23.418 25.738,23.418 4.551,0 8.996,-1.027 13.324,-2.312 l -0.976,-9.711 c -3.84,2.113 -7.574,3.152 -11.696,3.152 -8.507,0 -14.031,-6.187 -14.031,-14.547 0,-8.808 6.235,-14.164 14.977,-14.164 3.926,0 7.929,1.059 11.195,2.336 l 0.59,-9.422" /><path
             id="path44"
             style="fill:#ffffff;fill-opacity:1;fill-rule:nonzero;stroke:none"
             d="m 700.598,144.688 c -0.532,2.628 -0.649,5.253 -0.649,7.91 v 12.464 c 0,10.243 -7.398,13.918 -15.953,13.918 -4.961,0 -9.273,-0.722 -13.379,-2.375 l 0.192,-7.867 c 3.218,1.821 6.941,2.512 10.691,2.512 4.164,0 7.578,-1.227 7.637,-5.781 -1.477,0.246 -3.532,0.453 -5.407,0.453 -6.156,0 -17.308,-1.215 -17.308,-11.461 0,-7.27 5.906,-10.57 12.555,-10.57 4.753,0 7.961,1.882 10.632,6.05 h 0.118 c 0,-1.722 0.191,-3.449 0.25,-5.253 z m -23.352,10.644 c 0,3.195 3.09,4.391 7,4.391 1.758,0 3.414,-0.11 4.891,-0.192 0,-3.922 -2.762,-7.914 -7.133,-7.914 -2.719,0 -4.758,1.371 -4.758,3.715" /><path
             id="path46"
             style="fill:#ffffff;fill-opacity:1;fill-rule:nonzero;stroke:none"
             d="m 705.871,178.215 h 10.559 v -6.188 h 0.148 c 2.305,4.828 6.942,6.942 12.199,6.942 9.141,0 12.801,-6.426 12.801,-13.391 v -20.89 h -11.562 v 16.203 c 0,6.312 -2.2,8.441 -5.36,8.441 -4.758,0 -7.207,-3.285 -7.207,-10.508 v -14.136 h -11.578 v 33.527" /><path
             id="path48"
             style="fill:#ffffff;fill-opacity:1;fill-rule:nonzero;stroke:none"
             d="m 773.895,168.602 c -2.125,1.304 -4.239,1.882 -7.016,1.882 -5.004,0 -8.891,-3.492 -8.891,-9.238 0,-5.375 4.535,-8.855 9.539,-8.855 2.629,0 5.289,0.597 7.207,1.625 l 0.254,-8.641 c -2.926,-0.961 -6.367,-1.484 -9.453,-1.484 -11.047,0 -19.508,6.449 -19.508,17.523 0,11.129 8.461,17.555 19.508,17.555 3.485,0 6.527,-0.586 9.199,-1.867 l -0.839,-8.5" /><path
             id="path50"
             style="fill:#ffffff;fill-opacity:1;fill-rule:nonzero;stroke:none"
             d="m 813.281,158.062 v 2.114 c 0,9.988 -4.504,18.804 -16.922,18.804 -10.429,0 -17.961,-6.437 -17.961,-17.5 0,-11.089 8.434,-17.589 19.497,-17.589 4.312,0 8.582,0.66 12.3,2.129 v 8.171 c -3.484,-1.859 -7.086,-2.554 -10.234,-2.554 -5.668,0 -9.199,1.781 -9.852,6.425 z m -23.304,6.567 c 0.265,3.859 2.246,7.012 6.441,7.012 4.637,0 6.437,-3.153 6.437,-7.012 h -12.878" /><path
             id="path52"
             style="fill:#ffffff;fill-opacity:1;fill-rule:nonzero;stroke:none"
             d="m 841.98,168.941 c -1.285,0.383 -2.554,0.383 -3.914,0.383 -5.421,0 -8.449,-3.906 -8.449,-10.484 v -14.152 h -11.562 v 33.511 h 10.543 v -6.172 h 0.132 c 1.981,4.246 4.887,6.953 9.895,6.953 1.359,0 2.777,-0.199 3.93,-0.39 l -0.575,-9.649" /><path
             id="path54"
             style="fill:#ffffff;fill-opacity:1;fill-rule:nonzero;stroke:none"
             d="m 626.016,100.582 c 3.086,-1.6758 7.382,-2.9531 12.359,-2.9531 3.781,0 7.398,0.7383 7.398,4.3361 0,8.387 -21.25,3.105 -21.25,19.457 0,10.824 10.559,13.766 19.571,13.766 4.324,0 8.562,-0.653 11.594,-1.68 l -0.786,-9.25 c -3.086,1.41 -6.57,2.043 -9.953,2.043 -3.043,0 -8.078,-0.274 -8.078,-4.156 0,-7.282 21.25,-2.399 21.25,-18.618 0,-11.6364 -9.789,-14.7965 -19.746,-14.7965 -4.191,0 -9.406,0.6484 -13.395,1.9336 l 1.036,9.9179" /><path
             id="path56"
             style="fill:#ffffff;fill-opacity:1;fill-rule:nonzero;stroke:none"
             d="m 680.07,88.7148 c 11.075,0 19.508,6.4571 19.508,17.5232 0,11.129 -8.433,17.547 -19.508,17.547 -11.078,0 -19.496,-6.418 -19.496,-17.547 0,-11.0661 8.418,-17.5232 19.496,-17.5232 m 0,8.1172 c -5.332,0 -7.535,4.422 -7.535,9.406 0,5.024 2.203,9.453 7.535,9.453 5.344,0 7.532,-4.429 7.532,-9.453 0,-4.984 -2.188,-9.406 -7.532,-9.406" /><path
             id="path58"
             style="fill:#ffffff;fill-opacity:1;fill-rule:nonzero;stroke:none"
             d="m 730.074,113.426 c -2.125,1.289 -4.238,1.89 -7.027,1.89 -4.992,0 -8.891,-3.472 -8.891,-9.293 0,-5.324 4.532,-8.8003 9.524,-8.8003 2.66,0 5.304,0.5703 7.222,1.5937 l 0.25,-8.5859 c -2.894,-0.9922 -6.347,-1.5 -9.433,-1.5 -11.078,0 -19.528,6.4414 -19.528,17.4885 0,11.148 8.45,17.566 19.528,17.566 3.469,0 6.539,-0.562 9.183,-1.883 l -0.828,-8.476" /><path
             id="path60"
             style="fill:#ffffff;fill-opacity:1;fill-rule:nonzero;stroke:none"
             d="m 748.035,128.488 h -11.609 v 8.508 h 11.609 z m -11.609,-5.472 h 11.609 V 89.4922 h -11.609 v 33.5238" /><path
             id="path62"
             style="fill:#ffffff;fill-opacity:1;fill-rule:nonzero;stroke:none"
             d="m 787.984,102.902 v 2.106 c 0,9.969 -4.504,18.777 -16.91,18.777 -10.414,0 -17.972,-6.394 -17.972,-17.488 0,-11.0665 8.445,-17.5822 19.507,-17.5822 4.344,0 8.567,0.6641 12.289,2.1368 v 8.1523 c -3.488,-1.8555 -7.058,-2.5508 -10.218,-2.5508 -5.66,0 -9.219,1.8125 -9.852,6.4489 z m -23.304,6.547 c 0.265,3.852 2.273,6.989 6.453,6.989 4.637,0 6.437,-3.137 6.437,-6.989 h -12.89" /><path
             id="path64"
             style="fill:#ffffff;fill-opacity:1;fill-rule:nonzero;stroke:none"
             d="m 789.031,123.016 h 6.824 v 7.546 l 11.372,3.524 v -11.07 h 8.125 v -8.114 h -8.125 v -12.363 c 0,-4.0234 0.961,-6.0859 4.668,-6.0859 1.152,0 2.363,0.2461 3.5,0.4297 l 0.398,-7.5039 c -2.184,-0.2773 -4.387,-0.6484 -7.266,-0.6484 -10.367,0 -12.879,4.5468 -12.879,12.5235 v 13.648 h -6.617 v 8.114" /><path
             id="path66"
             style="fill:#ffffff;fill-opacity:1;fill-rule:nonzero;stroke:none"
             d="m 821.641,84.8008 c 1.55,-0.4922 2.968,-0.7227 4.578,-0.7227 2.836,0 5.008,1.6758 5.851,4.6367 l -13.574,34.3012 h 12.481 l 7.207,-21.864 h 0.132 l 6.899,21.864 h 11.578 L 844.52,91.8164 c -3.309,-8.4258 -5.821,-16.5859 -16.438,-16.5859 -2.453,0 -4.816,0.2304 -7.191,0.7617 l 0.75,8.8086" /><path
             id="path68"
             style="fill:#ffffff;fill-opacity:1;fill-rule:nonzero;stroke:none"
             d="m 869.879,117.602 v 3.019 h 1.844 c 1.05,0 2.394,-0.137 2.394,-1.371 0,-1.434 -0.844,-1.648 -2.113,-1.648 z m -2.617,-7.161 h 2.617 v 5.145 h 1.238 l 2.942,-5.145 h 2.671 l -3.218,5.274 c 1.859,0.168 3.218,1.047 3.218,3.262 0,2.742 -1.757,3.648 -4.875,3.648 h -4.593 z m -6.571,6.024 c 0,-6.024 4.918,-10.957 10.989,-10.957 6.039,0 10.988,4.933 10.988,10.957 0,6.094 -4.949,11.004 -10.988,11.004 -6.071,0 -10.989,-4.91 -10.989,-11.004 m 3.161,0 c 0,5.058 3.41,8.59 7.828,8.59 4.34,0 7.812,-3.532 7.812,-8.59 0,-5.078 -3.472,-8.543 -7.812,-8.543 -4.418,0 -7.828,3.465 -7.828,8.543" /><path
             id="path70"
             style="fill:#ffffff;fill-opacity:1;fill-rule:nonzero;stroke:none"
             d="m 557.637,114.523 c 2.082,1.61 6.289,2.239 8.535,-0.234 2.199,-2.469 1.726,-6.211 -0.707,-8.473 -2.75,-2.457 -23.336,-18.9449 -27.383,-21.9058 -1.449,-1.0508 -5.762,-1.3399 -7.77,1.0156 -2.082,2.3554 -1.003,6.7344 0.458,8.0195 2.277,2.0547 24.71,19.9417 26.867,21.5777" /><path
             id="path72"
             style="fill:#ffffff;fill-opacity:1;fill-rule:nonzero;stroke:none"
             d="m 553.809,91.8906 c 2.171,1.543 6.043,2.0742 8.226,-0.207 2.231,-2.4141 1.805,-6.2109 -0.605,-8.4609 -3.086,-2.8711 -17.926,-14.0235 -20.082,-15.5899 -1.493,-1.0273 -5.746,-1.3516 -7.77,0.918 -2.055,2.4492 -1.863,6.1719 0.5,8.0781 2.676,2.3242 17.383,13.6016 19.731,15.2617" /><path
             id="path74"
             style="fill:#ffffff;fill-opacity:1;fill-rule:nonzero;stroke:none"
             d="m 552.379,71.6641 0.09,-8.5703 c 3.984,-2.7657 4.429,-9.2344 0.765,-12.4571 -3.914,-3.5078 -11.371,-1.4414 -12.91,3.5352 v 8.7148 c 2.114,1.1367 12.055,8.7774 12.055,8.7774" /><path
             id="path76"
             style="fill:#ffffff;fill-opacity:1;fill-rule:nonzero;stroke:none"
             d="m 546.309,291.949 6.16,-14.926 V 133.48 l -6.086,-4.683 -6.059,4.832 v 143.394 l 5.985,14.926" /><path
             id="path78"
             style="fill:#ffffff;fill-opacity:1;fill-rule:nonzero;stroke:none"
             d="M 569.863,157.781 H 556.84 l 4.09,-6.535 -4.637,-6.676 c 5.465,-2.722 11.016,2.653 12.492,1.118 0.86,-0.805 1.535,-2.286 0.621,-3.016 l -42.429,-33.516 c -1.875,-2.355 -1.684,-5.597 0.457,-7.73 2.171,-2.1291 5.257,-2.2854 7.695,-0.488 l 43.566,34.226 c 3.543,4.305 3.989,8.867 2.188,14.164 -1.938,5.383 -5.645,7.68 -11.02,8.453" /><path
             id="path80"
             style="fill:#ffffff;fill-opacity:1;fill-rule:nonzero;stroke:none"
             d="m 522.484,157.68 h 13.469 l -4.148,-6.469 4.711,-6.676 c -5.508,-2.742 -11.578,2.512 -13.114,0.953 -0.754,-0.828 -1.343,-2.172 -0.445,-2.867 l 20.367,-16.129 -9.332,-7.293 -20.277,15.914 c -3.563,4.266 -4.051,8.891 -2.172,14.157 1.891,5.343 5.625,7.683 10.941,8.41" /><path
             id="path82"
             style="fill:#ffffff;fill-opacity:1;fill-rule:nonzero;stroke:none"
             d="m 623.43,199.859 h 12.172 l 3.527,9.575 h 16.867 l 3.352,-9.575 h 13.129 L 655.152,244.77 H 640.52 Z m 29.761,18.071 h -11.285 l 5.805,17.59 h 0.117 l 5.363,-17.59" /><path
             id="path84"
             style="fill:#ec54b2;fill-opacity:1;fill-rule:nonzero;stroke:none"
             d="m 274.777,314.297 -2.871,-2.91 -3.828,1.418 v 0 c -74.719,27.433 -90.406,76.363 -90.406,112.586 0,8.16 0.793,16.55 2.359,24.929 10.055,54.121 43.625,93.848 89.805,106.258 22.738,6.106 45.328,2.297 61.98,-10.441 12.864,-9.856 28.219,-29.813 28.282,-68.922 0.152,-68.82 -48.618,-125.942 -85.321,-162.918 z m 42.27,-23.582 -10.977,2.066 7.344,8.403 c 0.008,0.011 47.266,53.25 47.266,53.25 27.769,35.543 74.468,104.824 74.468,168.504 -0.066,32.8 -9.785,57.359 -28.878,73.226 -30.93,25.719 -76.813,21.992 -101.411,17.481 v 0 C 235.262,600.887 195.312,564.484 171.312,538.211 135.43,499.844 115.668,453.148 115.668,406.715 c 0.07,-53.988 27.152,-114.836 72.43,-163.043 l 4.972,-5.293 -5.91,-4.223 C 136.84,198.188 81.8203,171.531 27.9961,156.996 20.793,135.281 11.1367,114.422 0,96.1016 68.9922,117.715 142.359,157.016 212.535,210.227 c 0,0 -0.074,-0.094 -0.117,-0.137 0.391,0.379 1.289,1.164 3.969,3.445 l 0.929,0.805 3.895,-2.231 c 32.687,-18.761 76.937,-44.449 92.078,-89.925 32.918,53.636 63.637,97.98 86.649,124.953 0.027,0.031 1.898,2.093 3.152,3.461 -21.246,22.769 -50.258,36.55 -84.09,39.777 -0.062,0.012 -1.953,0.34 -1.953,0.34" /><path
             id="path86"
             style="fill:#ec54b2;fill-opacity:1;fill-rule:nonzero;stroke:none"
             d="m 1506.78,431.688 h 2.41 c 1.63,0 3.04,0.214 3.04,2.203 0,1.73 -1.59,2.019 -3,2.019 h -2.45 z m -2.74,6.316 h 5.48 c 3.54,0 5.45,-1.227 5.45,-4.332 0,-2.527 -1.45,-3.754 -3.86,-3.973 l 3.97,-6.457 h -2.82 l -3.82,6.352 h -1.66 v -6.352 h -2.74 z m 14.86,-7.438 c 0,6.098 -4.4,10.504 -9.85,10.504 -5.45,0 -9.85,-4.406 -9.85,-10.504 0,-6.097 4.4,-10.5 9.85,-10.5 5.45,0 9.85,4.403 9.85,10.5 z m -22.88,0 c 0,7.184 5.85,13.032 13.03,13.032 7.18,0 13.03,-5.848 13.03,-13.032 0,-7.179 -5.85,-13.023 -13.03,-13.023 -7.18,0 -13.03,5.844 -13.03,13.023" /><path
             id="path88"
             style="fill:#ec54b2;fill-opacity:1;fill-rule:nonzero;stroke:none"
             d="m 479.035,571.676 h 36.113 l 18.243,-57.188 h 0.242 l 19.101,57.188 h 34.758 v -86.024 h -22.433 l 0.371,66.063 h -0.25 l -21.938,-66.063 h -21.074 l -20.945,66.063 h -0.254 l 0.496,-66.063 h -22.43 v 86.024" /><path
             id="path90"
             style="fill:#ec54b2;fill-opacity:1;fill-rule:nonzero;stroke:none"
             d="m 640.109,553.926 h -0.246 l -11.082,-33.637 h 21.563 z m -14.043,17.75 h 28.094 l 33.16,-86.024 h -25.14 l -6.414,18.364 h -32.289 l -6.778,-18.364 h -23.301 l 32.668,86.024" /><path
             id="path92"
             style="fill:#ec54b2;fill-opacity:1;fill-rule:nonzero;stroke:none"
             d="m 693.852,571.676 h 22.921 v -35.121 h 0.25 l 25.879,35.121 h 27.61 l -31.797,-40.059 34.258,-45.965 h -29.207 l -26.743,39.071 h -0.25 v -39.071 h -22.921 v 86.024" /><path
             id="path94"
             style="fill:#ec54b2;fill-opacity:1;fill-rule:nonzero;stroke:none"
             d="m 776.547,485.652 h 22.9297 v 86.0234 H 776.547 Z" /><path
             id="path96"
             style="fill:#ec54b2;fill-opacity:1;fill-rule:nonzero;stroke:none"
             d="m 807.113,571.676 h 29.211 l 29.082,-58.418 h 0.242 l -0.359,58.418 h 20.945 v -86.024 h -28.472 l -30.071,58.786 h -0.246 l 0.743,-58.786 h -21.075 v 86.024" /><path
             id="path98"
             style="fill:#ec54b2;fill-opacity:1;fill-rule:nonzero;stroke:none"
             d="m 977.191,488.117 c -14.546,-3.699 -25.398,-3.941 -33.289,-3.941 -22.91,0 -49.414,11.582 -49.414,44.117 0,32.414 22.805,44.863 54.356,44.863 5.672,0 17.617,-0.617 25.996,-3.82 l -1.844,-18.734 c -7.148,4.191 -15.527,5.546 -20.949,5.546 -18.613,0 -33.895,-7.765 -33.895,-27.855 0,-16.883 11.961,-27.109 28.711,-27.109 3.094,0 6.043,0.492 8.145,1.472 v 17.016 h -13.43 v 16.262 h 35.613 v -47.817" /><path
             id="path100"
             style="fill:#ec54b2;fill-opacity:1;fill-rule:nonzero;stroke:none"
             d="m 1026.61,506.848 c 5.92,-3.203 14.17,-5.664 23.66,-5.664 7.27,0 14.17,1.472 14.17,8.378 0,16.02 -40.66,5.915 -40.66,37.219 0,20.707 20.2,26.375 37.46,26.375 8.26,0 16.39,-1.234 22.18,-3.207 l -1.48,-17.746 c -5.91,2.715 -12.57,3.945 -19.09,3.945 -5.8,0 -15.41,-0.492 -15.41,-8.011 0,-13.926 40.66,-4.559 40.66,-35.617 0,-22.305 -18.73,-28.344 -37.83,-28.344 -8.01,0 -17.99,1.23 -25.63,3.695 l 1.97,18.977" /><path
             id="path102"
             style="fill:#ec54b2;fill-opacity:1;fill-rule:nonzero;stroke:none"
             d="m 1111.53,554.668 h -21.21 v 17.008 h 65.33 v -17.008 h -21.2 v -69.016 h -22.92 v 69.016" /><path
             id="path104"
             style="fill:#ec54b2;fill-opacity:1;fill-rule:nonzero;stroke:none"
             d="m 1185.1,535.934 h 6.04 c 7.39,0 16.76,0.246 16.76,9.984 0,8.008 -8.01,9.488 -16.76,9.488 h -6.04 z m -22.92,35.742 h 40.91 c 15.29,0 27.74,-6.899 27.74,-21.692 0,-11.461 -5.43,-19.097 -16.52,-21.691 v -0.246 c 7.4,-1.969 7.89,-8.5 12.2,-18.977 l 8.38,-23.418 h -23.91 l -4.93,15.532 c -4.68,14.785 -7.64,18.488 -16.14,18.488 h -4.81 v -34.02 h -22.92 v 86.024" /><path
             id="path106"
             style="fill:#ec54b2;fill-opacity:1;fill-rule:nonzero;stroke:none"
             d="m 1238.71,485.652 h 22.9297 v 86.0234 H 1238.71 Z" /><path
             id="path108"
             style="fill:#ec54b2;fill-opacity:1;fill-rule:nonzero;stroke:none"
             d="m 1294.3,502.656 h 8.86 c 17.14,0 26.75,8.875 26.75,26.008 0,17.133 -9.98,26.004 -26.75,26.004 h -8.86 z m -22.93,69.02 h 31.3 c 29.96,0 50.9,-9.364 50.9,-42.641 0,-32.168 -21.57,-43.383 -50.9,-43.383 h -31.3 v 86.024" /><path
             id="path110"
             style="fill:#ec54b2;fill-opacity:1;fill-rule:nonzero;stroke:none"
             d="m 1359.25,571.676 h 60.63 v -16.27 h -37.72 V 537.66 h 35.62 v -16.269 h -35.62 v -19.469 h 39.07 v -16.27 h -61.98 v 86.024" /><path
             id="path112"
             style="fill:#ec54b2;fill-opacity:1;fill-rule:nonzero;stroke:none"
             d="m 1428.01,506.848 c 5.92,-3.203 14.18,-5.664 23.66,-5.664 7.28,0 14.18,1.472 14.18,8.378 0,16.02 -40.67,5.915 -40.67,37.219 0,20.707 20.21,26.375 37.47,26.375 8.25,0 16.39,-1.234 22.17,-3.207 l -1.47,-17.746 c -5.91,2.715 -12.57,3.945 -19.1,3.945 -5.8,0 -15.41,-0.492 -15.41,-8.011 0,-13.926 40.67,-4.559 40.67,-35.617 0,-22.305 -18.73,-28.344 -37.84,-28.344 -8.01,0 -17.99,1.23 -25.63,3.695 l 1.97,18.977" /><path
             id="path114"
             style="fill:#ec54b2;fill-opacity:1;fill-rule:nonzero;stroke:none"
             d="m 514.152,440.602 h -0.183 l -8.379,-25.426 h 16.301 z m -10.613,13.41 h 21.234 l 25.055,-65.008 h -19.004 l -4.844,13.875 h -24.394 l -5.129,-13.875 h -17.602 l 24.684,65.008" /><path
             id="path116"
             style="fill:#ec54b2;fill-opacity:1;fill-rule:nonzero;stroke:none"
             d="m 576.551,401.855 c 5.965,0 10.711,5.032 10.711,12.481 0,5.398 -3.168,11.457 -10.711,11.457 -6.239,0 -9.5,-5.496 -9.5,-12.105 0,-7.547 4.472,-11.833 9.5,-11.833 z m 26.914,-7.167 c 0,-19.93 -9.684,-26.356 -29.242,-26.356 -8.008,0 -14.618,1.676 -18.528,3.074 l 0.832,13.223 c 5.125,-2.512 9.411,-4.008 16.399,-4.008 9.676,0 14.894,4.567 14.894,14.067 v 2.609 h -0.183 c -4.004,-5.684 -9.594,-8.293 -16.297,-8.293 -13.32,0 -21.606,10.058 -21.606,24.402 0,14.434 6.793,25.239 21.883,25.239 7.164,0 12.942,-3.915 16.481,-9.875 h 0.187 v 8.757 h 15.18 v -42.839" /><path
             id="path118"
             style="fill:#ec54b2;fill-opacity:1;fill-rule:nonzero;stroke:none"
             d="m 630.754,399.062 c 6.328,0 10.336,5.778 10.336,11.458 -2.145,0.093 -4.563,0.281 -7.074,0.281 -5.68,0 -10.161,-1.77 -10.161,-6.43 0,-3.351 2.985,-5.309 6.899,-5.309 z m 11.547,-10.058 c -0.102,2.609 -0.371,5.125 -0.371,7.637 h -0.184 c -3.82,-6.051 -8.48,-8.754 -15.367,-8.754 -9.594,0 -18.168,4.75 -18.168,15.269 0,14.813 16.117,16.578 25.055,16.578 2.699,0 5.679,-0.281 7.824,-0.648 -0.094,6.609 -5.028,8.379 -11.078,8.379 -5.403,0 -10.809,-1.024 -15.461,-3.629 l -0.285,11.363 c 5.957,2.418 12.203,3.446 19.379,3.446 12.382,0 23.089,-5.309 23.089,-20.114 v -18.07 c 0,-3.82 0.184,-7.637 0.934,-11.457 h -15.367" /><path
             id="path120"
             style="fill:#ec54b2;fill-opacity:1;fill-rule:nonzero;stroke:none"
             d="m 663.812,437.527 h 16.762 v -48.523 h -16.762 z m 16.762,7.918 h -16.762 v 12.285 h 16.762 v -12.285" /><path
             id="path122"
             style="fill:#ec54b2;fill-opacity:1;fill-rule:nonzero;stroke:none"
             d="m 689.242,437.527 h 15.274 v -8.941 h 0.183 c 3.348,6.984 10.059,10.059 17.696,10.059 13.226,0 18.539,-9.317 18.539,-19.372 v -30.269 h -16.778 v 23.469 c 0,9.125 -3.16,12.199 -7.722,12.199 -6.895,0 -10.434,-4.746 -10.434,-15.176 v -20.492 h -16.758 v 48.523" /><path
             id="path124"
             style="fill:#ec54b2;fill-opacity:1;fill-rule:nonzero;stroke:none"
             d="m 748.562,402.414 c 3.911,-1.672 9.684,-3.352 15.739,-3.352 3.445,0 6.793,0.559 6.793,3.915 0,8.191 -23.832,2.418 -23.832,19.929 0,11.172 10.984,15.739 20.672,15.739 5.773,0 11.648,-0.657 17.035,-2.797 l -1.297,-11.637 c -3.543,2.141 -8.852,3.254 -13.043,3.254 -3.625,0 -7.723,-0.649 -7.723,-3.352 0,-7.547 24.953,-1.582 24.953,-20.015 0,-12.95 -11.64,-16.211 -22.632,-16.211 -7.536,0 -12.661,0.746 -17.594,2.328 l 0.929,12.199" /><path
             id="path126"
             style="fill:#ec54b2;fill-opacity:1;fill-rule:nonzero;stroke:none"
             d="m 789.91,437.527 h 9.863 v 10.891 l 16.497,5.129 v -16.02 h 11.722 V 425.793 H 816.27 V 407.91 c 0,-5.863 1.398,-8.848 6.699,-8.848 1.679,0 3.449,0.376 5.129,0.657 l 0.554,-10.895 c -3.172,-0.379 -6.332,-0.937 -10.527,-0.937 -14.988,0 -18.621,6.617 -18.621,18.16 v 19.746 h -9.594 v 11.734" /><path
             id="path128"
             style="fill:#ec54b2;fill-opacity:1;fill-rule:nonzero;stroke:none"
             d="m 878.008,401.297 h 5.125 c 6.324,0 12.941,0.933 12.941,7.547 0,7.074 -6.797,7.722 -12.765,7.722 h -5.301 z m 0,27.008 h 4.847 c 5.672,0 11.54,1.398 11.54,6.894 0,5.957 -5.586,6.516 -11.352,6.516 h -5.035 z m -17.324,25.707 h 29.894 c 12.113,0 21.149,-5.313 21.149,-16.485 0,-8.199 -4.2,-12.757 -11.465,-15.183 v -0.184 c 8.668,-1.765 13.133,-6.426 13.133,-14.344 0,-15.55 -13.688,-18.812 -25.329,-18.812 h -27.382 v 65.008" /><path
             id="path130"
             style="fill:#ec54b2;fill-opacity:1;fill-rule:nonzero;stroke:none"
             d="m 955.199,424.113 c -1.844,0.559 -3.719,0.559 -5.664,0.559 -7.824,0 -12.207,-5.68 -12.207,-15.176 V 389.004 H 920.57 v 48.523 h 15.274 v -8.941 h 0.187 c 2.875,6.144 7.071,10.059 14.348,10.059 1.945,0 3.996,-0.282 5.664,-0.563 l -0.844,-13.969" /><path
             id="path132"
             style="fill:#ec54b2;fill-opacity:1;fill-rule:nonzero;stroke:none"
             d="m 991.438,417.871 c 0,5.59 -2.614,10.156 -9.313,10.156 -6.055,0 -8.945,-4.566 -9.309,-10.156 z m -18.442,-9.496 c 0.934,-6.703 6.051,-9.313 14.246,-9.313 4.559,0 9.785,1.024 14.808,3.727 v -11.828 c -5.394,-2.137 -11.546,-3.074 -17.784,-3.074 -16.016,0 -28.223,9.41 -28.223,25.425 0,16.016 10.906,25.333 25.996,25.333 17.957,0 24.491,-12.758 24.491,-27.196 v -3.074 h -33.534" /><path
             id="path134"
             style="fill:#ec54b2;fill-opacity:1;fill-rule:nonzero;stroke:none"
             d="m 1033.62,399.062 c 6.33,0 10.34,5.778 10.34,11.458 -2.14,0.093 -4.56,0.281 -7.08,0.281 -5.68,0 -10.15,-1.77 -10.15,-6.43 0,-3.351 2.98,-5.309 6.89,-5.309 z m 11.56,-10.058 c -0.1,2.609 -0.38,5.125 -0.38,7.637 h -0.19 c -3.81,-6.051 -8.48,-8.754 -15.36,-8.754 -9.59,0 -18.16,4.75 -18.16,15.269 0,14.813 16.11,16.578 25.04,16.578 2.72,0 5.69,-0.281 7.83,-0.648 -0.09,6.609 -5.03,8.379 -11.08,8.379 -5.4,0 -10.81,-1.024 -15.46,-3.629 l -0.29,11.363 c 5.97,2.418 12.21,3.446 19.38,3.446 12.39,0 23.09,-5.309 23.09,-20.114 v -18.07 c 0,-3.82 0.2,-7.637 0.94,-11.457 h -15.36" /><path
             id="path136"
             style="fill:#ec54b2;fill-opacity:1;fill-rule:nonzero;stroke:none"
             d="m 1067.52,402.414 c 3.91,-1.672 9.69,-3.352 15.74,-3.352 3.44,0 6.8,0.559 6.8,3.915 0,8.191 -23.84,2.418 -23.84,19.929 0,11.172 10.99,15.739 20.68,15.739 5.76,0 11.63,-0.657 17.03,-2.797 l -1.3,-11.637 c -3.53,2.141 -8.85,3.254 -13.03,3.254 -3.64,0 -7.74,-0.649 -7.74,-3.352 0,-7.547 24.97,-1.582 24.97,-20.015 0,-12.95 -11.65,-16.211 -22.64,-16.211 -7.53,0 -12.66,0.746 -17.6,2.328 l 0.93,12.199" /><path
             id="path138"
             style="fill:#ec54b2;fill-opacity:1;fill-rule:nonzero;stroke:none"
             d="m 1108.87,437.527 h 9.88 v 10.891 l 16.48,5.129 v -16.02 h 11.74 v -11.734 h -11.74 V 407.91 c 0,-5.863 1.39,-8.848 6.7,-8.848 1.68,0 3.44,0.376 5.12,0.657 l 0.56,-10.895 c -3.16,-0.379 -6.33,-0.937 -10.52,-0.937 -14.99,0 -18.63,6.617 -18.63,18.16 v 19.746 h -9.59 v 11.734" /><path
             id="path140"
             style="fill:#ec54b2;fill-opacity:1;fill-rule:nonzero;stroke:none"
             d="m 1234.31,390.496 c -4.94,-1.211 -10.42,-2.609 -19.28,-2.609 -17.31,0 -37.34,8.754 -37.34,33.343 0,22.625 15.84,33.891 37.26,33.891 6.6,0 13.04,-1.484 19.27,-3.348 l -1.39,-14.058 c -5.59,3.07 -11,4.558 -16.96,4.558 -12.29,0 -20.29,-8.937 -20.29,-21.043 0,-12.757 9.02,-20.488 21.69,-20.488 5.68,0 11.46,1.488 16.2,3.356 l 0.84,-13.602" /><path
             id="path142"
             style="fill:#ec54b2;fill-opacity:1;fill-rule:nonzero;stroke:none"
             d="m 1259.74,399.062 c 6.33,0 10.33,5.778 10.33,11.458 -2.13,0.093 -4.56,0.281 -7.07,0.281 -5.69,0 -10.15,-1.77 -10.15,-6.43 0,-3.351 2.98,-5.309 6.89,-5.309 z m 11.54,-10.058 c -0.08,2.609 -0.37,5.125 -0.37,7.637 h -0.18 c -3.82,-6.051 -8.48,-8.754 -15.36,-8.754 -9.6,0 -18.17,4.75 -18.17,15.269 0,14.813 16.12,16.578 25.05,16.578 2.7,0 5.69,-0.281 7.82,-0.648 -0.09,6.609 -5.03,8.379 -11.07,8.379 -5.41,0 -10.81,-1.024 -15.47,-3.629 l -0.28,11.363 c 5.97,2.418 12.2,3.446 19.37,3.446 12.39,0 23.1,-5.309 23.1,-20.114 v -18.07 c 0,-3.82 0.19,-7.637 0.93,-11.457 h -15.37" /><path
             id="path144"
             style="fill:#ec54b2;fill-opacity:1;fill-rule:nonzero;stroke:none"
             d="m 1292.7,437.527 h 15.28 v -8.941 h 0.18 c 3.36,6.984 10.06,10.059 17.7,10.059 13.21,0 18.53,-9.317 18.53,-19.372 v -30.269 h -16.76 v 23.469 c 0,9.125 -3.17,12.199 -7.73,12.199 -6.9,0 -10.43,-4.746 -10.43,-15.176 v -20.492 h -16.77 v 48.523" /><path
             id="path146"
             style="fill:#ec54b2;fill-opacity:1;fill-rule:nonzero;stroke:none"
             d="m 1390.95,423.648 c -3.07,1.864 -6.15,2.704 -10.15,2.704 -7.26,0 -12.85,-5.032 -12.85,-13.411 0,-7.734 6.52,-12.757 13.79,-12.757 3.82,0 7.63,0.836 10.42,2.324 l 0.38,-12.481 c -4.19,-1.394 -9.23,-2.14 -13.69,-2.14 -16.03,0 -28.22,9.312 -28.22,25.332 0,16.109 12.19,25.426 28.22,25.426 5.03,0 9.5,-0.844 13.31,-2.7 l -1.21,-12.297" /><path
             id="path148"
             style="fill:#ec54b2;fill-opacity:1;fill-rule:nonzero;stroke:none"
             d="m 1430.72,417.871 c 0,5.59 -2.61,10.156 -9.32,10.156 -6.05,0 -8.93,-4.566 -9.3,-10.156 z m -18.44,-9.496 c 0.93,-6.703 6.06,-9.313 14.24,-9.313 4.57,0 9.78,1.024 14.82,3.727 v -11.828 c -5.41,-2.137 -11.55,-3.074 -17.79,-3.074 -16.02,0 -28.22,9.41 -28.22,25.425 0,16.016 10.9,25.333 25.98,25.333 17.98,0 24.49,-12.758 24.49,-27.196 v -3.074 h -33.52" /><path
             id="path150"
             style="fill:#ec54b2;fill-opacity:1;fill-rule:nonzero;stroke:none"
             d="m 1487.34,424.113 c -1.86,0.559 -3.73,0.559 -5.68,0.559 -7.83,0 -12.2,-5.68 -12.2,-15.176 v -20.492 h -16.76 v 48.523 h 15.27 v -8.941 h 0.19 c 2.88,6.144 7.08,10.059 14.34,10.059 1.95,0 4,-0.282 5.68,-0.563 l -0.84,-13.969" /></g></g></g></g></svg>