<?xml version="1.0" encoding="iso-8859-1"?><!-- Generator: Adobe Illustrator 16.0.0, SVG Export Plug-In . SVG Version: 6.00 Build 0) --><!DOCTYPE svg PUBLIC "-//W3C//DTD SVG 1.1//EN" "http://www.w3.org/Graphics/SVG/1.1/DTD/svg11.dtd"><svg version="1.1" id="Layer_1" xmlns="http://www.w3.org/2000/svg" xmlns:xlink="http://www.w3.org/1999/xlink" x="0px" y="0px" width="192.756px" height="192.756px" viewBox="0 0 192.756 192.756" style="enable-background:new 0 0 192.756 192.756;" xml:space="preserve"><g><polygon style="fill-rule:evenodd;clip-rule:evenodd;fill:#FFFFFF;" points="0,0 192.756,0 192.756,192.756 0,192.756 0,0	"/><path style="fill-rule:evenodd;clip-rule:evenodd;" d="M11.158,118.611l-2.654,0.038v-0.717c0,0,1.169,0.201,0.998-1.007	l0.249-8.265c0,0,0.31-1.623-1.247-1.585l0.038-0.582l2.655,0.066l2.406,8.021l2.172-8.165l2.616,0.077v0.582	c0,0-0.893-0.243-0.859,0.831v8.951c0,0-0.072,1.074,0.959,1.104v0.649l-3.543,0.038v-0.717c0,0,1.132,0.201,1.132-1.074	l-0.033-8.503c0,0-0.306,0.506-1.687,5.64l-1.135,4.859l-0.244-0.033l-2.612-9.783l-0.248,7.998c0,0,0.109,0.953,1.035,0.896	V118.611L11.158,118.611z"/><path style="fill-rule:evenodd;clip-rule:evenodd;" d="M19.939,118.577l-0.034-0.548c0,0,0.76,0.138,0.869-0.516l1.925-8.543	l0.825-0.93l2.444,9.333c0,0,0.105,0.688,0.759,0.727v0.477h-2.826v-0.548h0.282c0,0,0.683,0.138,0.41-1.104l-0.62-2.272h-1.929	l-0.621,2.721c0,0-0.206,0.727,0.731,0.615v0.588H19.939L19.939,118.577z M22.111,113.995h1.719l-0.997-3.306L22.111,113.995	L22.111,113.995z"/><path style="fill-rule:evenodd;clip-rule:evenodd;" d="M42.331,111.244c0,0-0.415-2.206-1.895-2.206c0,0-2.374-0.449-2.583,4.723	c0,0,0.31,4.406,2.65,4.34c0,0,1.69,0.305,2.034-2.277l0.448,0.243l-0.305,2.067c0,0-0.697,0.654-2.283,0.759	c0,0-3.752,0.101-3.958-5.132c0,0-0.206-4.994,3.857-5.443c0,0,1.687-0.038,2.383,1.036l0.062,1.891H42.331L42.331,111.244z"/><path style="fill-rule:evenodd;clip-rule:evenodd;" d="M28.418,118.545l0.034-0.556c0,0,0.826,0.212,0.788-0.791v-7.435	c0,0,0.172-0.621-0.821-0.659v-0.516h3.405c0,0,1.829,0.072,1.829,2.169c0,0,0.205,1.934-1.447,2.31c0,0,0.481,0.378,0.62,0.928	l1.375,3.279c0,0,0.311,0.787,0.831,0.755v0.516h-1.585c0,0.004-0.382,0.176-0.592-0.688l-1.371-3.658c0,0-0.138-0.716-1.003-0.683	v3.72c0,0,0.1,0.825,0.793,0.753v0.588L28.418,118.545L28.418,118.545z M32.276,111.072c0.066-2-0.931-1.891-0.931-1.891	c-0.765-0.071-0.827,0.645-0.827,0.645v3.075C32.409,113.173,32.276,111.072,32.276,111.072L32.276,111.072z"/><path style="fill-rule:evenodd;clip-rule:evenodd;" d="M153.338,118.545l0.037-0.556c0,0,0.828,0.212,0.789-0.791v-7.435	c0,0,0.176-0.621-0.826-0.659v-0.516h3.414c0,0,1.828,0.072,1.828,2.169c0,0,0.205,1.934-1.451,2.31c0,0,0.486,0.378,0.621,0.928	l1.375,3.279c0,0,0.314,0.787,0.83,0.755v0.516h-1.59c0,0.004-0.371,0.176-0.582-0.688l-1.375-3.658c0,0-0.133-0.716-0.998-0.683	v3.72c0,0,0.105,0.825,0.793,0.753v0.588L153.338,118.545L153.338,118.545z M157.201,111.072c0.07-2-0.926-1.891-0.926-1.891	c-0.766-0.071-0.832,0.645-0.832,0.645v3.075C157.338,113.173,157.201,111.072,157.201,111.072L157.201,111.072z"/><path style="fill-rule:evenodd;clip-rule:evenodd;" d="M48.152,109.001c0,0.004,2.482-0.378,2.616,4.793	c0,0,0.271,4.235-2.206,4.34c0,0-2.163,0.1-2.444-4.445C46.118,113.688,45.64,109.248,48.152,109.001L48.152,109.001z M44.703,113.589c0.072,5.399,3.581,5.229,3.581,5.229c3.791-0.062,3.863-5.301,3.863-5.301c0.034-5.237-3.757-5.271-3.757-5.271	C44.608,108.589,44.703,113.589,44.703,113.589L44.703,113.589z"/><path style="fill-rule:evenodd;clip-rule:evenodd;" d="M69.765,109.001c0,0.004,2.482-0.378,2.616,4.793	c0,0,0.278,4.235-2.206,4.34c0,0-2.167,0.1-2.44-4.445C67.735,113.688,67.25,109.248,69.765,109.001L69.765,109.001z M66.318,113.589c0.072,5.399,3.59,5.229,3.59,5.229c3.791-0.062,3.848-5.301,3.848-5.301c0.038-5.237-3.748-5.271-3.748-5.271	C66.218,108.589,66.318,113.589,66.318,113.589L66.318,113.589z"/><path style="fill-rule:evenodd;clip-rule:evenodd;" d="M86.123,109.001c0,0.004,2.482-0.378,2.622,4.793	c0,0,0.276,4.235-2.202,4.34c0,0-2.172,0.1-2.454-4.445C84.088,113.688,83.616,109.248,86.123,109.001L86.123,109.001z M82.685,113.589c0.066,5.399,3.581,5.229,3.581,5.229c3.781-0.062,3.857-5.301,3.857-5.301c0.028-5.237-3.757-5.271-3.757-5.271	C82.58,108.589,82.685,113.589,82.685,113.589L82.685,113.589z"/><path style="fill-rule:evenodd;clip-rule:evenodd;" d="M111.049,109.001c0,0.004,2.479-0.378,2.619,4.793	c0,0,0.271,4.235-2.203,4.34c0,0-2.166,0.1-2.447-4.445C109.018,113.688,108.533,109.248,111.049,109.001L111.049,109.001z M107.598,113.589c0.076,5.399,3.592,5.229,3.592,5.229c3.785-0.062,3.854-5.301,3.854-5.301c0.037-5.237-3.75-5.271-3.75-5.271	C107.502,108.589,107.598,113.589,107.598,113.589L107.598,113.589z"/><path style="fill-rule:evenodd;clip-rule:evenodd;" d="M164.797,109.001c0,0.004,2.479-0.378,2.617,4.793	c0,0,0.277,4.235-2.207,4.34c0,0-2.168,0.1-2.443-4.445C162.764,113.688,162.281,109.248,164.797,109.001L164.797,109.001z M161.35,113.589c0.066,5.399,3.576,5.229,3.576,5.229c3.797-0.062,3.863-5.301,3.863-5.301c0.037-5.237-3.758-5.271-3.758-5.271	C161.25,108.589,161.35,113.589,161.35,113.589L161.35,113.589z"/><path style="fill-rule:evenodd;clip-rule:evenodd;" d="M58.383,118.567v-0.682c0,0,0.859,0.315,0.998-0.907v-8.881	c0,0,0.229-1.179-0.998-1.003v-0.625c0,0,1.9-0.363,2.72-0.319c0,0,3.481-0.449,3.577,3.714c0,0,0.272,3.634-3.218,3.353v-0.769	c0,0,1.815,0.41,1.59-2.45c0,0,0.138-3.122-1.409-3.122c0,0-0.854-0.14-0.769,1.126l-0.047,8.938c0,0-0.086,1.08,1.094,0.993	l0.042,0.588L58.383,118.567L58.383,118.567z"/><path style="fill-rule:evenodd;clip-rule:evenodd;" d="M179.135,118.559v-0.563c0,0,0.701,0.263,0.811-0.75v-7.348	c0,0,0.182-0.974-0.811-0.825v-0.526c0,0,1.547-0.301,2.211-0.263c0,0,2.826-0.372,2.902,3.081c0,0,0.219,2.997-2.611,2.773v-0.64	c0,0,1.475,0.338,1.293-2.024c0,0,0.105-2.588-1.15-2.588c0,0-0.697-0.109-0.615,0.936l-0.039,7.391c0,0-0.08,0.898,0.879,0.821	l0.033,0.487L179.135,118.559L179.135,118.559z"/><path style="fill-rule:evenodd;clip-rule:evenodd;" d="M75.557,109.052v-0.548h2.946v0.548c0,0-0.908-0.051-0.859,0.765v6.757	c0,0-0.272,1.403,1.179,1.403c0,0,0.95,0.276,1.356-0.816l0.32-0.855h0.406l-0.368,2.307h-4.979l-0.047-0.592	c0,0,0.82,0.233,0.863-0.674v-7.481C76.373,109.864,76.373,108.962,75.557,109.052L75.557,109.052z"/><path style="fill-rule:evenodd;clip-rule:evenodd;" d="M131.209,109.052v-0.548h2.945v0.548c0,0-0.912-0.051-0.865,0.765v6.757	c0,0-0.271,1.403,1.176,1.403c0,0,0.949,0.276,1.359-0.816l0.32-0.855h0.406l-0.363,2.307h-4.979l-0.049-0.592	c0,0,0.816,0.233,0.859-0.674v-7.481C132.02,109.864,132.02,108.962,131.209,109.052L131.209,109.052z"/><path style="fill-rule:evenodd;clip-rule:evenodd;" d="M96.36,118.611v-0.679c0,0,1.13,0.182,1.044-0.954v-9.196	c0,0-0.139-0.815-1.044-0.725v-0.588l3.576-0.053l0.043,0.641c0,0-1.037-0.139-1.084,0.769v3.9h4.301v-3.757	c0,0,0-1.051-0.992-0.875v-0.678h3.441v0.641c0,0-0.814-0.091-0.955,0.815v9.339c0,0-0.084,0.765,0.955,0.674v0.682l-3.537,0.044	v-0.679c0,0,1.184,0.139,1.051-0.912v-4.44h-4.264v4.493c0,0-0.09,0.859,0.998,0.859v0.679H96.36L96.36,118.611z"/><path style="fill-rule:evenodd;clip-rule:evenodd;" d="M116.479,110.638l0.268-2.721h0.412c0,0,0.223,0.635,0.725,0.587h3.537	c0,0,0.631-0.043,0.723-0.587h0.41l-0.234,2.534h-0.449v-0.672c0,0,0.139-0.55-0.545-0.55h-1.131v7.982	c0,0,0.043,0.902,0.906,0.808v0.548h-3.035v-0.548c0,0,0.998,0.095,0.859-0.859v-7.969l-1.084,0.038c0,0-0.502-0.311-0.908,1.408	H116.479L116.479,110.638z"/><path style="fill-rule:evenodd;clip-rule:evenodd;" d="M123.908,108.504h4.803v2.182h-0.363c0,0,0.092-1.634-0.721-1.543h-1.041	c0,0-0.684-0.142-0.635,0.674v3.042h1.133c0,0,0.678,0,0.678-1.223h0.266v3.213h-0.357c0,0,0.229-1.451-0.586-1.308h-1.133v3.479	c0,0-0.096,1.051,0.811,0.912h1.182c0,0,0.404,0.087,0.59-0.5l0.406-1.084h0.541l-0.363,2.219h-5.248v-0.496	c0,0,0.902,0.182,0.902-0.95v-7.438c0,0,0-0.721-0.902-0.588L123.908,108.504L123.908,108.504z"/><path style="fill-rule:evenodd;clip-rule:evenodd;" d="M150.645,109.683h-0.5c0,0-0.406-2.764-2.488-2.716	c0,0-3.127-0.272-2.941,5.753c0,0-0.047,5.166,2.807,5.257c0,0,1.629,0.362,1.768-1.719v-1.452c0,0,0.311-1.083-1.361-1.041v-0.592	h3.535v0.635c0,0-0.908-0.267-0.818,1.094v2.941c0,0-1.223,1.131-3.123,1.046c0,0-4.578,0.223-4.625-6.394	c0,0,0.047-6.212,4.807-6.298c0,0,1.666-0.144,2.852,1.18L150.645,109.683L150.645,109.683z"/><path style="fill-rule:evenodd;clip-rule:evenodd;" d="M170.393,109.143v-0.582l2.992,0.028l0.035,0.516	c0,0-0.928-0.166-0.895,0.76v5.787c0,0-0.07,2.281,1.83,2.101c0,0,1.752,0.277,1.891-2.169l0.07-5.575c0,0,0.102-1.037-0.863-0.936	v-0.512h2.277v0.478c0,0-0.93-0.1-0.902,1.031v5.548c0,0,0.072,3.1-2.75,3.2c0,0-2.693,0.419-2.793-3.032v-5.959	C171.285,109.826,171.49,108.971,170.393,109.143L170.393,109.143z"/><path style="fill-rule:evenodd;clip-rule:evenodd;fill:#917E55;" d="M79.911,93.501c-0.31-0.251-0.62-0.979-0.62-0.979	c-0.574-1.347-0.931-2.276-0.931-2.276c-0.827-0.769-1.858-4.03-1.858-4.03c-0.363-0.926,0.774-0.669,0.774-0.669	c5.013,1.137,6.403,0.521,6.403,0.521c-0.821-4.603,0.363-6.618,0.363-6.618c0.672-1.756,4.187-4.487,4.187-4.487	c2.53-1.919,1.499-3.776,1.499-3.776c-0.51,1.394-1.732,1.188-1.732,1.188c0.153,1.079-0.697,0.778-0.697,0.778l-0.158,0.821	c-0.467,0.51-0.826,0.31-0.826,0.31l0.416-0.678c0.257-0.563-0.416-0.306-0.416-0.306l-0.306,1.037	c-0.263,0.568-0.779-0.053-0.779-0.053c-0.62-0.416-0.467-0.773-0.467-0.773l-0.253-0.827l0.93-1.083l1.753,1.083	c0.778,0.616,0.516-0.362,0.516-0.362l0.568-5.376c1.241-0.616,2.788-0.463,2.788-0.463c3.771,0.563,3.566,4.135,3.566,4.135	c0.411,3.309-2.167,7.076-2.167,7.076c-1.341,3.046,1.088,3.772,1.088,3.772c2.068,1.188,4.285-0.469,4.285-0.469	c2.582-1.694,5.684-1.6,5.684-1.6c3.516-0.094,4.811,2.016,4.811,2.016c0.1-1.6,1.334-1.757,1.334-1.757	c1.553,0,2.021,1.084,2.021,1.084c0.209,0.826,1.646,3.104,1.646,3.104c1.193,2.02,2.998,1.341,2.998,1.341l-0.568,2.221	c-3.771,0.83-4.803-6.045-4.803-6.045c-0.258-1.188-0.826-1.132-0.826-1.132c-0.988,0-1.031,0.821-1.031,0.821	c-0.152,1.137,0.412,1.604,0.412,1.604c2.324,3.152,1.135,7.806,1.135,7.806c0,0.979,1.447,1.753,1.447,1.753	c1.289,0.101,1.236,0.463,1.236,0.463c0.311,0.669-0.049,1.241-0.049,1.241l-1.912,4.909c-0.254,0.772-0.459,1.294-0.459,1.294	c0.148,0.562,0.047,0.716,0.047,0.716c-0.311,0.162-0.152,0.674-0.152,0.674c0.467,0.678-0.105,1.035-0.105,1.035	c-1.346-0.153-2.371,0.153-2.371,0.153c-0.207-0.463,1.287-1.391,1.287-1.391c0.26,0.053,0.463-0.625,0.463-0.625	c-0.309-0.72,0.727-1.751,0.727-1.751c0.053-0.416,0.254-0.831,0.254-0.831c1.035-1.605,0.988-4.235,0.988-4.235	c0-0.927-0.832-0.674-0.832-0.674c-1.494,0.368-3.303,0.31-3.303,0.31c-2.9-0.516-3.979-1.81-3.979-1.81	c0.926,1.868,2.584,2.125,2.584,2.125c0.619,0.1,0.619,0.621,0.619,0.621c0.102,0.716-0.576,0.769-0.576,0.769	c-1.186,0.468-2.783,2.272-2.783,2.272c-0.932,0.878-2.012,2.378-2.012,2.378c-0.314,0.157-0.42,0.572-0.42,0.572	c-0.053,0.463-0.053,0.669-0.053,0.669c-0.668,0.053-0.203,0.521-0.203,0.521c0.467,0.516-0.307,0.669-0.307,0.669	c-0.936,0.051-1.809,0.41-1.809,0.41c-0.879,0.156-0.369-0.359-0.369-0.359c0.783-0.931,1.557-1.551,1.557-1.551	c-0.156-0.468,0.568-0.878,0.568-0.878c2.062-1.653,3.719-4.446,3.719-4.446c0.879-1.599-0.156-1.804-0.156-1.804	c-1.395-0.363-1.543-0.621-1.543-0.621c-0.625-0.668-0.678-0.31-0.678-0.31c-0.363,0.21,0.053,0.616,0.053,0.616	c0,0.262,1.188,1.509,1.188,1.509c-3.307,1.694-8.01-0.416-8.01-0.416c-3.409-1.399-4.24-1.399-4.24-1.399l-0.257-0.878	l-2.425-1.494c-0.621,1.857-0.516,2.835-0.516,2.835c0.31,0.464,0.567,1.243,0.567,1.243c0,0.41,0.106,1.604,0.106,1.604	l0.821,3.251c-0.047,0.627,0.472,0.774,0.472,0.774c0.669,0.572,0.416,0.884,0.416,0.884c-0.368,0.566,0.253,0.463,0.253,0.463	c0.825,0,0.153,0.672,0.153,0.672c-0.259,0.153-1.084,1.343-1.084,1.343c-0.716,0.463-0.521-0.105-0.521-0.105	c-0.047-0.362,0.206-1.647,0.206-1.647c0.315-0.777-0.253-1.146-0.253-1.146c-0.257-0.406-0.205-0.716-0.205-0.716	c0.1-0.363-0.053-0.778-0.053-0.778c-0.827-4.545-1.758-5.629-1.758-5.629c-0.313-0.569-0.41-0.727-0.41-0.727	c-0.568-4.392-1.662-4.75-1.662-4.75l-1.699,0.053c-1.343,0.206-3.099-0.572-3.099-0.572l-2.019-0.826	c-0.616-0.364-0.402,0.051-0.402,0.051c0.359,0.621,0.765,2.278,0.765,2.278c0.053,0.875,0.873,2.163,0.873,2.163	c0.526,0.263,0.626,0.684,0.626,0.684c0.057,1.126,0.62,0.816,0.62,0.816c0.721,0,0.574,0.572,0.574,0.572v2.221	C80.579,95.464,79.911,93.501,79.911,93.501L79.911,93.501z M84.972,73.043c0.104,0.563,0.416,0.11,0.416,0.11l0.1-0.416	C84.661,72.322,84.972,73.043,84.972,73.043L84.972,73.043z M92.773,81.829l-0.31,0.672l0.772,0.312l0.211-0.674L92.773,81.829	L92.773,81.829z M92.153,83.638l0.979,0.516v-0.778l-0.878-0.563L92.153,83.638L92.153,83.638z M91.794,84.722l1.441,0.668	l-0.042-0.722L92,84.101L91.794,84.722L91.794,84.722z M91.642,85.084l-0.106,0.826l1.911,0.932v-0.831L91.642,85.084	L91.642,85.084z M91.273,87.1l2.174,1.032v-0.827l-2.068-0.982L91.273,87.1L91.273,87.1z M91.122,88.288l2.272,1.137v-0.831	l-2.172-1.031L91.122,88.288L91.122,88.288z M91.122,89.582l2.072,1.027l0.095-0.669L91.122,88.8V89.582L91.122,89.582z M91.122,90.919l8.106,4.14l1.604,0.047l-6.975-3.668h-0.878v-0.414l-1.915-0.983L91.122,90.919L91.122,90.919z M91.326,92.313	c0.21,0.315,2.321,0.878,2.321,0.878c0.678,0.625,3.976,1.553,3.976,1.553l-6.454-3.257L91.326,92.313L91.326,92.313z M96.188,92.213l5.47,2.788l0.932-0.257l-2.273-1.243l-0.053,0.521c-0.824-0.678-4.287-2.072-4.287-2.072L96.188,92.213	L96.188,92.213z M100.373,93.087l1.596,0.729l-0.721-1.088l-0.932-0.516L100.373,93.087L100.373,93.087z M100.164,91.645	l0.777,0.259l-0.418-0.927l-0.617-0.263L100.164,91.645L100.164,91.645z M98.303,81.519l0.721,0.363V80.85	C98.402,81.05,98.303,81.519,98.303,81.519L98.303,81.519z M97.787,82.654l1.236,0.569V82.45l-1.031-0.516L97.787,82.654	L97.787,82.654z M97.529,83.896l1.604,0.667v-0.72l-1.457-0.722L97.529,83.896L97.529,83.896z M97.676,85.185l1.605,0.725	l-0.053-0.725l-1.646-0.773L97.676,85.185L97.676,85.185z M98.455,86.842l1.037,0.564l-0.102-0.827l-1.555-0.772	C98.045,86.737,98.455,86.842,98.455,86.842L98.455,86.842z M98.977,88.394l0.82,0.354l-0.211-0.774l-1.184-0.567L98.977,88.394	L98.977,88.394z M99.586,90.094l0.578,0.153l-0.209-0.822l-0.674-0.262L99.586,90.094L99.586,90.094z M105.945,89.629v-1.341	c-4.955-3.05-6.148-7.701-6.148-7.701l-0.211,0.053C101.248,87.457,105.945,89.629,105.945,89.629L105.945,89.629z M107.139,87.716	l-0.162-1.079c-4.436-2.016-6.453-6.259-6.453-6.259h-0.312C102.541,85.863,107.139,87.716,107.139,87.716L107.139,87.716z"/><path style="fill-rule:evenodd;clip-rule:evenodd;fill:#917E55;" d="M93.395,80.793c0,0-1.037-0.927,0.31-3.099	c0,0,3.1-4.029,2.483-7.491c0,0.004-0.264-4.182-4.35-4.288c0,0-0.668-0.053-1.443,0.206c0,0,4.44-0.568,4.856,4.45	c0,0,0.368,2.941-2.12,7.07C93.132,77.641,91.642,79.813,93.395,80.793L93.395,80.793z"/><path style="fill-rule:evenodd;clip-rule:evenodd;fill:#917E55;" d="M86.266,66.25c-0.258,1.857,0.51,2.272,0.51,2.272	c-0.587,0.209-0.562,0.674-0.562,0.674c0.125,0.338-0.105,0.205-0.105,0.205c-0.257,0.668,0.206,0.827,0.206,0.827l-0.282,0.233	l-0.439,0.855c0.416,0,1.758,0.984,1.758,0.984l0.491-5.143C86.653,65.968,86.266,66.25,86.266,66.25L86.266,66.25z M86.805,69.749	c0,0-0.357-0.358-0.229-0.411c0,0,0.44-0.232,0.41,0.1C86.986,69.438,87.039,69.959,86.805,69.749L86.805,69.749z"/></g></svg>