<?xml version="1.0" encoding="utf-8"?>
<!-- Generator: Adobe Illustrator 17.0.0, SVG Export Plug-In . SVG Version: 6.00 Build 0)  -->
<!DOCTYPE svg PUBLIC "-//W3C//DTD SVG 1.1//EN" "http://www.w3.org/Graphics/SVG/1.1/DTD/svg11.dtd">
<svg version="1.1" id="Layer_1" xmlns="http://www.w3.org/2000/svg" xmlns:xlink="http://www.w3.org/1999/xlink" x="0px" y="0px"
	 width="500px" height="500px" viewBox="0 0 500 500" enable-background="new 0 0 500 500" xml:space="preserve">
<g>
	<path fill="#1FB6FF" d="M354.688,261.725c-105.209-8.375-191.978,17.55-211.792,27c-10.833,5.167-11.708,11.395-10.25,14.875
		c1.25,2.982,6.375,4.458,12.167,1.334c41.875-22.588,126.375-40.876,209.717-35.758
		C358.606,269.426,360.506,262.188,354.688,261.725z"/>
	<path fill="#1FB6FF" d="M380.981,229.856c-4.604,5.232-10.926,8.959-13.094,7.067c-2.172-1.893,0.053-7.693,0.053-7.693
		c10.326-6.455,30.49-23.876,30.49-37.251c0-12.375-10.619-16.113-22.456-4.791c-8.077,7.725-15.48,21.925-19.705,36.275
		c-6.007,6.005-15.289,13.599-23.831,13.599c-4.383,0-5.704-3.13-5.276-7.309c7.39-0.413,27.228-6.104,27.228-22.869
		c-0.301-7.344-5.951-10.074-11.017-10.074c-8.977,0-20.658,9.382-26.358,22.575c-1.497-0.256-3.031-0.78-4.428-1.727
		c1.818-4.06,3.008-7.642,3.345-10.103c0.921-6.72-1.743-11.368-7.257-11.121c-3.541,0.158-7.861,3.315-8.92,11.055
		c-0.721,5.273,1.996,10.803,1.996,10.803c-2.566,7.959-12.381,17.751-15.853,17.646c-3.18-0.096,0.658-14.31,3.974-24.675
		c2.083-2.215,3.832-4.672,4.378-6.827c0.877-3.458-0.451-5.005-1.524-5.784c-2.503-1.817-9.39-1.218-13.224,5.598
		c-0.988,1.756-2.329,4.561-3.688,7.988c-2.85,3.38-7.01,8.018-8.383,7.208c-2.086-1.232,4.139-9.811,3.467-14.716
		c-0.609-4.463-4.127-6.707-7.956-6.184c-5.374,0.736-12.679,12.02-12.679,12.02s1.469-3.37,1.363-6.338
		c-0.145-4.084-8.104-6.084-11.729,1.625c-1.327,2.823-3.606,12.541-5.661,22.168c-1.83,3.353-7.733,13.473-12.58,13.995
		c-3.973,0.431,0.854-17.987,1.418-18.901c2.115-3.429,5.034-10.65,4.677-13.949c-0.463-4.29-3.247-5.222-6.073-4.715
		c-3.989,0.715-6.064,4.905-6.064,4.905s-2.472-3.433-7.532-2.886c-16.605,1.791-27.398,30.794-26.027,45.074
		c0.708,7.391,4.571,11.954,10.571,11.267c7.447-0.854,13.232-11.848,13.232-11.848s1.706,8.723,9.456,7.535
		c5.275-0.809,10.534-5.322,14.873-10.3c-0.174,0.941-0.293,1.607-0.336,1.889c-1.1,7.202,10.951,6.692,11.775,0.702
		c3.812-27.688,13.139-39.354,15.854-39.354c2.243,0-6.039,13.158-1.166,18.5c3.91,4.287,10.131,0.724,15.221-3.744
		c-0.774,3.603-1.306,7.321-1.387,10.943c-0.18,7.959,2.708,14.251,10.332,13.885c10.178-0.489,20.755-12.884,27.698-24.813
		c1.57,1.104,3.544,2.034,6.015,2.514c-0.511,2.879-0.726,5.855-0.555,8.893c0.519,9.229,6.871,12.593,14.049,12.431
		c8.571-0.194,18.375-6.761,25.556-12.728c-0.048,0.345-0.098,0.692-0.14,1.035c-0.519,4.207,0.124,12.533,6.321,13.099
		c7.39,0.674,19.89-6.764,26.058-14.762C390.052,230.762,384.648,225.689,380.981,229.856z M387.542,191.683
		c0.672,0,1.006,0.507,1.006,1.549c0,7.896-19.441,24.664-19.441,24.664S381.875,191.683,387.542,191.683z M210.395,220.688
		c-0.613,4.805-8.748,25.802-13.167,25.925c-5.665,0.158,2.808-30.072,11.909-29.861
		C210.743,216.789,210.716,218.168,210.395,220.688z M340.699,208.527c1.583,0,2.48,0.921,2.48,2.515
		c0,4.191-5.863,7.548-12.442,8.037C333.709,213.378,337.86,208.527,340.699,208.527z"/>
	<path fill="#1FB6FF" d="M139.312,226.439c5.466,0.059-4.157,28.274-3.124,40.54c1.042,12.375,14.812,8.812,13.938,1.688
		c-1.487-12.111,6.626-50.061,14.854-50.061c5.773,0-6.394,26.162-4,42.915c1.584,11.084,15.961,7.239,14.5,0.667
		c-4.833-21.75,10.141-42.653,8.463-57.463c-0.734-6.48-4.653-9.649-8.573-9.68c-13.725-0.105-24.327,27.884-24.327,27.884
		s1.104-15.908-9.563-16.492c-16.332-0.895-32.5,39.75-32.042,76.042c0.146,11.578,14.637,9.606,13.875,0.375
		C121.896,265.687,131.521,226.356,139.312,226.439z"/>
</g>
</svg>
