<svg xmlns="http://www.w3.org/2000/svg" xmlns:xlink="http://www.w3.org/1999/xlink" preserveAspectRatio="xMidYMid" width="136" height="32" viewBox="0 0 136 32">
  <defs>
    <style>

      .cls-4 {
        fill: #87d96c;
      }

      .cls-5 {
        fill: #ffffff;
      }

      .cls-10 {
        fill: #abb3c9;
      }

      .cls-11 {
        fill: #10313f;
      }
      .cls-12 {
        fill: #b4bfd1;
      }

      .cls-14 {
        fill: #143b4c;
      }

      .cls-15 {
        fill: #d6dce6;
      }

      .cls-16 {
        fill: #99a0ba;
      }

      .cls-19 {
        fill: #61b9e8;
      }

      .cls-20 {
        fill: #4baad3;
      }

      .cls-21 {
        fill: #0d252c;
      }

      .cls-23 {
        fill: #0b0b0b;
      }

      .cls-25 {
        fill: #525365;
      }
    </style>
  </defs>
  <g id="logo-mashapesvg">
    <g id="logotype">
      <path d="M135.349,16.976 C135.329,17.126 135.292,17.243 135.240,17.328 C135.187,17.414 135.116,17.475 135.027,17.511 C134.937,17.547 134.824,17.566 134.686,17.566 C134.686,17.566 126.977,17.566 126.977,17.566 C127.067,18.847 127.411,19.787 128.011,20.386 C128.611,20.986 129.405,21.286 130.394,21.286 C130.881,21.286 131.300,21.230 131.653,21.116 C132.005,21.003 132.313,20.877 132.577,20.739 C132.840,20.601 133.071,20.476 133.270,20.362 C133.468,20.249 133.661,20.192 133.847,20.192 C133.969,20.192 134.074,20.217 134.163,20.265 C134.253,20.314 134.330,20.383 134.394,20.471 C134.394,20.471 135.270,21.566 135.270,21.566 C134.937,21.955 134.565,22.282 134.151,22.545 C133.738,22.808 133.306,23.019 132.856,23.177 C132.407,23.335 131.948,23.446 131.482,23.511 C131.016,23.576 130.564,23.608 130.127,23.608 C129.259,23.608 128.453,23.465 127.707,23.177 C126.961,22.889 126.313,22.464 125.762,21.901 C125.210,21.337 124.777,20.640 124.461,19.809 C124.144,18.978 123.986,18.015 123.986,16.921 C123.986,16.070 124.124,15.270 124.400,14.520 C124.675,13.770 125.070,13.117 125.585,12.562 C126.100,12.007 126.728,11.567 127.470,11.243 C128.212,10.919 129.049,10.756 129.981,10.756 C130.767,10.756 131.490,10.882 132.151,11.133 C132.812,11.385 133.381,11.752 133.860,12.234 C134.338,12.716 134.711,13.308 134.978,14.009 C135.246,14.710 135.379,15.511 135.379,16.410 C135.379,16.638 135.369,16.826 135.349,16.976 ZM132.522,14.654 C132.417,14.309 132.254,14.007 132.036,13.748 C131.817,13.488 131.541,13.284 131.209,13.134 C130.876,12.984 130.487,12.909 130.042,12.909 C129.166,12.909 128.481,13.156 127.987,13.650 C127.492,14.145 127.176,14.846 127.038,15.754 C127.038,15.754 132.680,15.754 132.680,15.754 C132.680,15.365 132.627,14.998 132.522,14.654 ZM121.099,21.748 C120.632,22.332 120.069,22.788 119.408,23.116 C118.748,23.445 118.008,23.608 117.189,23.608 C116.484,23.608 115.886,23.501 115.396,23.287 C114.905,23.072 114.466,22.774 114.077,22.393 C114.077,22.393 114.077,27.500 114.077,27.500 C114.077,27.500 111.074,27.500 111.074,27.500 C111.074,27.500 111.074,10.951 111.074,10.951 C111.074,10.951 112.910,10.951 112.910,10.951 C113.104,10.951 113.270,10.996 113.408,11.085 C113.546,11.174 113.635,11.312 113.676,11.498 C113.676,11.498 113.919,12.653 113.919,12.653 C114.421,12.078 114.999,11.612 115.651,11.255 C116.304,10.899 117.068,10.720 117.943,10.720 C118.624,10.720 119.246,10.862 119.810,11.146 C120.373,11.430 120.859,11.841 121.269,12.380 C121.678,12.919 121.994,13.584 122.217,14.374 C122.440,15.164 122.552,16.070 122.552,17.091 C122.552,18.024 122.426,18.887 122.175,19.681 C121.923,20.476 121.565,21.165 121.099,21.748 ZM119.275,15.237 C119.157,14.731 118.989,14.319 118.770,14.003 C118.551,13.687 118.286,13.456 117.974,13.310 C117.662,13.164 117.307,13.091 116.910,13.091 C116.286,13.091 115.753,13.223 115.311,13.487 C114.869,13.750 114.458,14.120 114.077,14.599 C114.077,14.599 114.077,20.192 114.077,20.192 C114.417,20.614 114.788,20.907 115.189,21.074 C115.591,21.240 116.022,21.323 116.484,21.323 C116.938,21.323 117.349,21.238 117.718,21.068 C118.087,20.897 118.399,20.638 118.655,20.289 C118.910,19.941 119.107,19.501 119.244,18.970 C119.382,18.439 119.451,17.813 119.451,17.091 C119.451,16.362 119.392,15.744 119.275,15.237 ZM106.101,23.299 C105.938,23.214 105.817,23.042 105.736,22.782 C105.736,22.782 105.468,21.894 105.468,21.894 C105.152,22.178 104.842,22.427 104.538,22.642 C104.234,22.857 103.920,23.037 103.596,23.183 C103.271,23.329 102.927,23.439 102.562,23.511 C102.197,23.584 101.792,23.621 101.346,23.621 C100.819,23.621 100.333,23.550 99.887,23.408 C99.441,23.265 99.058,23.052 98.738,22.767 C98.418,22.482 98.169,22.129 97.990,21.706 C97.812,21.283 97.723,20.791 97.723,20.229 C97.723,19.758 97.846,19.292 98.094,18.833 C98.341,18.373 98.752,17.959 99.328,17.588 C99.903,17.218 100.669,16.911 101.626,16.667 C102.582,16.423 103.770,16.301 105.189,16.301 C105.189,16.301 105.189,15.566 105.189,15.566 C105.189,14.725 105.012,14.102 104.660,13.698 C104.307,13.294 103.794,13.091 103.122,13.091 C102.635,13.091 102.230,13.148 101.906,13.261 C101.581,13.375 101.300,13.503 101.061,13.645 C100.821,13.786 100.600,13.914 100.398,14.027 C100.195,14.141 99.972,14.197 99.729,14.197 C99.526,14.197 99.352,14.145 99.206,14.039 C99.060,13.934 98.943,13.805 98.854,13.650 C98.854,13.650 98.307,12.690 98.307,12.690 C99.741,11.377 101.472,10.720 103.498,10.720 C104.228,10.720 104.879,10.840 105.450,11.079 C106.021,11.318 106.506,11.650 106.903,12.076 C107.300,12.502 107.602,13.010 107.809,13.602 C108.016,14.194 108.119,14.842 108.119,15.547 C108.119,15.547 108.119,23.426 108.119,23.426 C108.119,23.426 106.769,23.426 106.769,23.426 C106.485,23.426 106.263,23.383 106.101,23.299 ZM105.189,18.137 C104.313,18.137 103.582,18.192 102.994,18.302 C102.406,18.413 101.934,18.554 101.577,18.725 C101.221,18.897 100.967,19.097 100.817,19.325 C100.667,19.554 100.592,19.802 100.592,20.072 C100.592,20.603 100.749,20.982 101.061,21.211 C101.373,21.440 101.780,21.554 102.283,21.554 C102.591,21.554 102.874,21.526 103.134,21.470 C103.393,21.414 103.638,21.330 103.869,21.219 C104.100,21.107 104.323,20.969 104.538,20.806 C104.753,20.643 104.970,20.449 105.189,20.225 C105.189,20.225 105.189,18.137 105.189,18.137 Z" id="path-1" class="cls-4" fill-rule="evenodd"/>
      <path d="M93.078,23.426 C93.078,23.426 93.078,15.584 93.078,15.584 C93.078,14.651 92.865,13.928 92.440,13.413 C92.014,12.899 91.364,12.641 90.488,12.641 C89.848,12.641 89.250,12.796 88.695,13.103 C88.140,13.412 87.627,13.829 87.157,14.356 C87.157,14.356 87.157,23.426 87.157,23.426 C87.157,23.426 84.992,23.426 84.992,23.426 C84.992,23.426 84.992,5.516 84.992,5.516 C84.992,5.516 87.157,5.516 87.157,5.516 C87.157,5.516 87.157,12.763 87.157,12.763 C87.684,12.204 88.267,11.756 88.908,11.419 C89.548,11.083 90.286,10.915 91.121,10.915 C91.793,10.915 92.387,11.026 92.902,11.249 C93.417,11.472 93.846,11.788 94.191,12.197 C94.535,12.607 94.797,13.099 94.975,13.675 C95.153,14.250 95.242,14.887 95.242,15.584 C95.242,15.584 95.242,23.426 95.242,23.426 C95.242,23.426 93.078,23.426 93.078,23.426 ZM76.797,15.657 C77.097,15.811 77.438,15.947 77.819,16.064 C78.200,16.182 78.591,16.307 78.992,16.441 C79.393,16.575 79.784,16.723 80.165,16.885 C80.546,17.047 80.887,17.250 81.187,17.493 C81.487,17.736 81.728,18.034 81.910,18.386 C82.093,18.739 82.184,19.163 82.184,19.657 C82.184,20.224 82.082,20.749 81.880,21.232 C81.677,21.714 81.377,22.132 80.980,22.484 C80.583,22.836 80.096,23.115 79.521,23.317 C78.945,23.519 78.281,23.621 77.527,23.621 C76.668,23.621 75.889,23.481 75.192,23.202 C74.495,22.922 73.903,22.563 73.417,22.126 C73.417,22.126 73.928,21.298 73.928,21.298 C73.993,21.193 74.070,21.112 74.159,21.055 C74.248,20.998 74.366,20.970 74.511,20.970 C74.657,20.970 74.811,21.027 74.974,21.140 C75.136,21.254 75.332,21.380 75.563,21.517 C75.794,21.655 76.074,21.781 76.402,21.894 C76.730,22.008 77.142,22.065 77.636,22.065 C78.058,22.065 78.427,22.010 78.743,21.901 C79.059,21.791 79.322,21.643 79.533,21.456 C79.744,21.270 79.900,21.055 80.001,20.812 C80.102,20.569 80.153,20.310 80.153,20.034 C80.153,19.694 80.062,19.412 79.880,19.189 C79.697,18.966 79.456,18.776 79.156,18.617 C78.856,18.460 78.514,18.322 78.129,18.204 C77.744,18.087 77.351,17.963 76.949,17.833 C76.548,17.704 76.155,17.556 75.770,17.389 C75.385,17.223 75.042,17.014 74.742,16.763 C74.443,16.512 74.201,16.202 74.019,15.833 C73.837,15.465 73.745,15.016 73.745,14.489 C73.745,14.019 73.843,13.568 74.037,13.134 C74.232,12.700 74.515,12.319 74.888,11.991 C75.261,11.663 75.719,11.401 76.262,11.207 C76.805,11.012 77.425,10.915 78.123,10.915 C78.933,10.915 79.661,11.042 80.305,11.298 C80.950,11.553 81.507,11.904 81.977,12.349 C81.977,12.349 81.491,13.140 81.491,13.140 C81.394,13.318 81.243,13.407 81.041,13.407 C80.919,13.407 80.781,13.363 80.627,13.273 C80.473,13.185 80.285,13.085 80.062,12.976 C79.839,12.866 79.574,12.765 79.266,12.672 C78.957,12.579 78.593,12.532 78.171,12.532 C77.807,12.532 77.478,12.579 77.186,12.672 C76.895,12.765 76.645,12.892 76.439,13.054 C76.232,13.217 76.074,13.406 75.964,13.620 C75.855,13.835 75.800,14.068 75.800,14.319 C75.800,14.635 75.891,14.899 76.074,15.109 C76.256,15.321 76.497,15.503 76.797,15.657 ZM69.684,23.329 C69.555,23.264 69.469,23.127 69.429,22.916 C69.429,22.916 69.186,21.773 69.186,21.773 C68.861,22.065 68.545,22.326 68.237,22.557 C67.929,22.788 67.605,22.982 67.265,23.141 C66.924,23.299 66.561,23.418 66.176,23.499 C65.791,23.580 65.364,23.621 64.894,23.621 C64.415,23.621 63.967,23.554 63.550,23.420 C63.132,23.286 62.770,23.084 62.462,22.816 C62.154,22.547 61.909,22.207 61.726,21.797 C61.544,21.386 61.453,20.900 61.453,20.339 C61.453,19.851 61.586,19.381 61.854,18.930 C62.121,18.478 62.553,18.077 63.149,17.728 C63.745,17.378 64.525,17.091 65.489,16.868 C66.454,16.644 67.633,16.532 69.028,16.532 C69.028,16.532 69.028,15.566 69.028,15.566 C69.028,14.603 68.823,13.875 68.414,13.382 C68.004,12.888 67.398,12.641 66.596,12.641 C66.069,12.641 65.625,12.708 65.265,12.842 C64.904,12.976 64.592,13.126 64.328,13.292 C64.065,13.458 63.838,13.608 63.647,13.741 C63.457,13.875 63.268,13.943 63.082,13.943 C62.936,13.943 62.808,13.904 62.699,13.827 C62.590,13.750 62.502,13.655 62.438,13.541 C62.438,13.541 62.048,12.848 62.048,12.848 C62.729,12.191 63.463,11.701 64.249,11.377 C65.035,11.052 65.907,10.890 66.863,10.890 C67.552,10.890 68.164,11.004 68.699,11.231 C69.234,11.458 69.684,11.774 70.049,12.179 C70.414,12.585 70.689,13.075 70.876,13.650 C71.062,14.226 71.156,14.858 71.156,15.547 C71.156,15.547 71.156,23.426 71.156,23.426 C71.156,23.426 70.195,23.426 70.195,23.426 C69.984,23.426 69.814,23.394 69.684,23.329 ZM69.028,17.906 C68.031,17.906 67.184,17.969 66.487,18.096 C65.789,18.222 65.222,18.387 64.784,18.591 C64.347,18.795 64.028,19.035 63.830,19.313 C63.631,19.590 63.532,19.900 63.532,20.242 C63.532,20.568 63.584,20.849 63.690,21.086 C63.795,21.323 63.937,21.516 64.115,21.667 C64.294,21.818 64.505,21.928 64.748,21.997 C64.991,22.066 65.254,22.101 65.538,22.101 C65.919,22.101 66.268,22.062 66.584,21.986 C66.900,21.908 67.198,21.799 67.477,21.657 C67.757,21.515 68.025,21.343 68.280,21.140 C68.535,20.938 68.785,20.707 69.028,20.447 C69.028,20.447 69.028,17.906 69.028,17.906 ZM56.674,15.584 C56.674,14.619 56.463,13.888 56.042,13.389 C55.620,12.891 55.008,12.641 54.206,12.641 C53.849,12.641 53.511,12.704 53.191,12.830 C52.870,12.955 52.589,13.140 52.346,13.383 C52.102,13.626 51.910,13.932 51.768,14.301 C51.626,14.670 51.555,15.098 51.555,15.584 C51.555,15.584 51.555,23.426 51.555,23.426 C51.555,23.426 49.391,23.426 49.391,23.426 C49.391,23.426 49.391,15.584 49.391,15.584 C49.391,14.595 49.192,13.857 48.795,13.371 C48.398,12.885 47.818,12.641 47.056,12.641 C46.521,12.641 46.025,12.785 45.567,13.073 C45.109,13.361 44.689,13.752 44.308,14.246 C44.308,14.246 44.308,23.426 44.308,23.426 C44.308,23.426 42.144,23.426 42.144,23.426 C42.144,23.426 42.144,11.109 42.144,11.109 C42.144,11.109 43.433,11.109 43.433,11.109 C43.741,11.109 43.936,11.260 44.017,11.559 C44.017,11.559 44.175,12.824 44.175,12.824 C44.629,12.264 45.137,11.806 45.701,11.450 C46.264,11.093 46.919,10.915 47.664,10.915 C48.499,10.915 49.174,11.146 49.689,11.608 C50.203,12.070 50.574,12.694 50.801,13.480 C50.972,13.035 51.197,12.649 51.476,12.325 C51.756,12.001 52.070,11.734 52.419,11.523 C52.767,11.312 53.138,11.158 53.531,11.061 C53.924,10.963 54.323,10.915 54.729,10.915 C55.377,10.915 55.955,11.018 56.461,11.225 C56.968,11.432 57.398,11.734 57.750,12.131 C58.103,12.528 58.372,13.016 58.559,13.596 C58.745,14.175 58.838,14.838 58.838,15.584 C58.838,15.584 58.838,23.426 58.838,23.426 C58.838,23.426 56.674,23.426 56.674,23.426 C56.674,23.426 56.674,15.584 56.674,15.584 Z" id="path-2" class="cls-5" fill-rule="evenodd"/>
    </g>
    <g id="jason-head">
      <circle id="circle-1" class="cls-5" cx="16" cy="16" r="16"/>
      <g id="jason-head-1">
        <g id="bg-1">
          <path d="M25.029,18.751 C25.029,18.751 24.961,18.748 24.961,18.748 C24.961,18.748 24.957,18.694 24.957,18.694 C24.943,18.518 24.684,18.044 24.586,17.876 C24.586,17.876 24.537,17.793 24.537,17.793 C24.537,17.793 24.823,17.770 24.823,17.770 C24.588,17.468 24.533,17.134 24.674,16.840 C24.799,16.577 25.073,16.385 25.324,16.385 C25.356,16.388 25.980,16.452 25.949,17.611 C25.920,18.719 25.120,18.751 25.029,18.751 ZM21.537,18.454 C21.527,18.473 21.517,18.490 21.507,18.508 C21.379,18.772 21.229,19.129 21.099,19.451 C21.815,19.268 23.228,19.121 22.100,22.439 C21.781,23.375 20.874,24.169 19.568,24.685 C19.728,24.714 19.907,24.756 20.100,24.808 C19.002,25.087 17.548,25.330 15.774,25.342 C15.774,25.342 15.822,25.333 15.903,25.316 C13.198,25.314 10.239,24.424 9.726,22.439 C9.325,20.889 11.081,19.548 11.097,19.535 C11.097,19.535 11.167,19.484 11.167,19.484 C11.166,19.484 9.007,19.261 8.906,17.358 C8.805,15.457 9.881,15.498 10.452,14.382 C11.023,13.266 12.603,13.936 14.459,13.884 C16.314,13.832 16.469,14.096 18.179,13.756 C19.890,13.418 21.981,14.638 23.023,16.072 C24.036,17.467 21.932,17.863 21.537,18.454 ZM7.414,17.876 C7.315,18.044 7.057,18.518 7.043,18.694 C7.043,18.694 7.039,18.748 7.039,18.748 C7.039,18.748 6.971,18.751 6.971,18.751 C6.880,18.751 6.080,18.719 6.051,17.611 C6.020,16.452 6.644,16.388 6.670,16.386 C6.670,16.386 6.671,16.386 6.671,16.386 C6.927,16.386 7.201,16.577 7.326,16.840 C7.467,17.134 7.412,17.468 7.177,17.770 C7.177,17.770 7.463,17.793 7.463,17.793 C7.463,17.793 7.414,17.876 7.414,17.876 Z" id="path-3" class="cls-10" fill-rule="evenodd"/>
          <path d="M25.349,16.202 C25.349,16.202 25.338,16.200 25.338,16.200 C25.338,16.200 25.327,16.200 25.327,16.200 C25.267,16.200 25.206,16.210 25.146,16.225 C25.146,16.225 25.146,16.102 25.146,16.102 C25.146,16.102 25.151,16.102 25.151,16.102 C25.283,15.107 25.337,14.204 25.316,13.384 C25.316,13.383 25.316,13.383 25.316,13.383 C25.316,7.509 20.200,5.437 20.200,5.437 C20.200,5.437 20.200,5.944 20.200,5.944 C19.304,5.224 18.441,4.673 18.441,4.673 C18.441,4.673 18.441,5.506 18.441,5.506 C18.270,5.405 18.110,5.313 17.960,5.231 C17.514,4.931 16.864,4.468 16.530,4.099 C16.530,4.099 16.074,5.335 16.074,5.335 C16.074,5.335 15.730,4.222 15.730,4.222 C15.600,4.613 14.458,5.330 14.458,5.330 C14.458,5.330 14.458,5.330 14.458,5.330 C14.461,4.816 14.305,3.996 14.305,3.996 C14.305,3.996 12.014,5.842 12.014,5.842 C12.014,5.842 11.796,5.166 11.796,5.166 C11.796,5.166 10.632,5.914 9.946,6.722 C9.946,6.722 9.946,6.330 9.946,6.330 C9.946,6.330 6.521,8.597 6.521,13.167 C6.521,13.177 6.521,13.186 6.521,13.195 C6.485,13.821 6.495,14.493 6.556,15.218 C6.594,16.063 6.651,16.102 6.651,16.102 C6.651,16.102 6.651,16.202 6.651,16.202 C6.651,16.202 6.651,16.202 6.651,16.202 C6.617,16.204 5.817,16.285 5.853,17.617 C5.875,18.429 6.294,18.777 6.668,18.892 C6.687,19.497 7.065,25.636 14.882,26.118 C14.882,26.118 17.095,26.118 17.095,26.118 C24.885,25.638 25.287,19.540 25.308,18.900 C25.688,18.792 26.125,18.446 26.147,17.617 C26.182,16.285 25.383,16.204 25.349,16.202 ZM6.976,18.693 C6.976,18.693 6.973,18.693 6.968,18.693 C6.883,18.693 6.140,18.663 6.112,17.611 C6.083,16.495 6.673,16.447 6.673,16.447 C7.112,16.447 7.695,17.120 7.047,17.824 C7.047,17.824 7.355,17.848 7.355,17.848 C7.355,17.848 6.993,18.465 6.976,18.693 ZM22.002,17.129 C21.937,18.472 20.683,19.456 20.671,19.466 C20.671,19.466 20.603,19.520 20.603,19.520 C20.603,19.520 20.672,19.570 20.672,19.570 C20.689,19.583 22.042,20.288 21.640,21.841 C21.126,23.833 18.627,24.852 15.918,24.852 C13.209,24.852 10.710,23.833 10.196,21.841 C9.795,20.288 11.148,19.583 11.165,19.570 C11.165,19.570 11.234,19.520 11.234,19.520 C11.234,19.520 11.166,19.466 11.166,19.466 C11.153,19.456 9.900,18.472 9.835,17.129 C9.797,16.355 10.159,15.609 10.908,14.911 C11.415,14.439 12.096,14.202 12.932,14.202 C14.204,14.202 15.432,14.753 15.918,15.045 C16.404,14.753 17.632,14.202 18.904,14.202 C19.741,14.202 20.421,14.439 20.928,14.911 C21.678,15.609 22.040,16.355 22.002,17.129 ZM25.888,17.611 C25.860,18.663 25.117,18.693 25.032,18.693 C25.027,18.693 25.024,18.693 25.024,18.693 C25.007,18.465 24.645,17.848 24.645,17.848 C24.645,17.848 24.953,17.824 24.953,17.824 C24.305,17.120 24.888,16.447 25.327,16.447 C25.327,16.447 25.917,16.495 25.888,17.611 Z" id="path-4" class="cls-11" fill-rule="evenodd"/>
          <path d="M20.347,21.155 C20.347,22.457 18.401,23.512 16.000,23.512 C13.599,23.512 11.653,22.457 11.653,21.155 C11.653,19.854 13.599,18.799 16.000,18.799 C18.401,18.799 20.347,19.854 20.347,21.155 Z" id="path-5" class="cls-12" fill-rule="evenodd"/>
        </g>
        <g id="details">
          <path d="M9.455,14.153 C10.020,13.650 10.652,13.249 11.415,13.073 C12.516,12.817 13.684,13.004 14.732,13.370 C15.091,13.495 15.444,13.640 15.779,13.815 C15.987,13.924 15.996,13.967 16.207,13.854 C16.877,13.494 17.619,13.233 18.372,13.081 C19.265,12.900 20.226,12.890 21.088,13.203 C22.135,13.584 22.787,14.313 23.440,15.140 C22.998,14.133 22.350,13.274 21.303,12.765 C20.475,12.362 19.509,12.260 18.592,12.361 C17.778,12.450 16.981,12.678 16.241,13.011 C16.041,13.101 16.016,13.100 15.817,13.011 C15.633,12.927 15.445,12.851 15.254,12.782 C14.835,12.630 14.402,12.509 13.962,12.431 C12.976,12.256 11.929,12.278 10.996,12.655 C9.828,13.126 9.090,14.059 8.618,15.140 C8.888,14.799 9.149,14.466 9.455,14.153 Z" id="path-6" class="cls-14" fill-rule="evenodd"/>
          <path d="M16.750,19.924 C16.413,19.924 16.046,19.788 15.909,19.732 C15.771,19.788 15.404,19.924 15.068,19.924 C14.643,19.924 13.953,19.698 13.953,19.698 C13.953,19.698 13.602,19.163 14.137,18.649 C14.625,18.180 15.868,18.766 15.868,18.766 C15.868,18.766 15.909,18.766 15.909,18.766 C15.909,18.766 15.950,18.766 15.950,18.766 C15.950,18.766 17.142,18.233 17.680,18.649 C18.271,19.105 17.863,19.698 17.863,19.698 C17.863,19.698 17.174,19.924 16.750,19.924 ZM19.005,22.238 C19.005,22.238 17.990,23.013 15.971,23.013 C13.952,23.013 12.936,22.238 12.936,22.238 C12.936,22.238 14.098,22.641 15.987,22.641 C17.877,22.641 19.005,22.238 19.005,22.238 Z" id="path-7" class="cls-15" fill-rule="evenodd"/>
          <path d="M21.692,16.981 C20.278,14.031 15.912,15.771 15.912,15.771 C15.912,15.771 11.547,14.031 10.133,16.981 C10.133,16.981 10.019,15.067 12.282,14.516 C13.751,14.158 15.909,15.327 15.912,15.326 C15.916,15.327 18.074,14.158 19.543,14.516 C21.806,15.067 21.692,16.981 21.692,16.981 ZM13.785,18.988 C13.788,19.070 13.791,19.152 13.793,19.234 C13.208,19.219 12.674,19.505 12.201,19.798 C12.655,19.417 13.164,19.060 13.785,18.988 ZM19.574,19.798 C19.092,19.468 18.557,19.198 17.942,19.208 C17.946,19.126 17.950,19.045 17.954,18.962 C18.598,19.036 19.121,19.383 19.574,19.798 Z" id="path-8" class="cls-16" fill-rule="evenodd"/>
          <path d="M20.724,21.710 C20.681,21.573 20.662,21.432 20.621,21.295 C20.601,21.314 20.580,21.332 20.560,21.350 C20.251,21.623 19.890,21.843 19.515,22.023 C18.841,22.346 18.104,22.543 17.358,22.645 C16.370,22.780 15.345,22.769 14.361,22.600 C13.653,22.478 12.957,22.266 12.324,21.937 C11.985,21.760 11.658,21.551 11.380,21.295 C11.342,21.431 11.326,21.571 11.287,21.707 C11.174,21.533 11.153,21.308 11.242,21.121 C11.326,20.947 11.539,20.784 11.754,20.822 C11.669,20.879 11.590,20.948 11.526,21.026 C11.494,21.065 11.504,21.065 11.534,21.093 C11.554,21.111 11.574,21.130 11.594,21.147 C11.650,21.195 11.707,21.241 11.766,21.286 C11.952,21.428 12.151,21.553 12.357,21.665 C13.038,22.035 13.800,22.264 14.574,22.383 C15.639,22.547 16.756,22.530 17.813,22.317 C18.519,22.175 19.212,21.936 19.823,21.570 C19.999,21.465 20.167,21.349 20.324,21.220 C20.370,21.181 20.416,21.141 20.460,21.099 C20.467,21.093 20.477,21.086 20.483,21.077 C20.495,21.060 20.496,21.063 20.478,21.040 C20.411,20.957 20.323,20.885 20.232,20.825 C20.489,20.774 20.758,21.007 20.800,21.237 C20.830,21.402 20.814,21.562 20.724,21.710 ZM17.418,19.367 C17.418,19.542 17.197,19.685 16.924,19.685 C16.649,19.685 16.427,19.542 16.427,19.367 C16.427,19.192 16.649,19.050 16.924,19.050 C17.197,19.050 17.418,19.192 17.418,19.367 ZM17.939,19.212 C17.898,18.948 17.699,18.711 17.430,18.627 C17.102,18.525 16.735,18.562 16.401,18.618 C16.710,18.486 17.117,18.419 17.447,18.511 C17.603,18.554 17.742,18.627 17.848,18.745 C17.878,18.777 17.905,18.817 17.929,18.854 C17.942,18.874 18.055,19.102 18.032,19.107 C18.057,19.324 18.013,19.541 17.854,19.709 C17.919,19.545 17.966,19.390 17.939,19.212 ZM14.992,19.685 C14.719,19.685 14.497,19.542 14.497,19.367 C14.497,19.192 14.719,19.050 14.992,19.050 C15.265,19.050 15.487,19.192 15.487,19.367 C15.487,19.542 15.265,19.685 14.992,19.685 ZM14.079,18.845 C13.977,18.976 13.907,19.120 13.896,19.285 C13.887,19.437 13.933,19.570 13.988,19.709 C13.725,19.431 13.755,19.016 14.000,18.740 C14.086,18.658 14.170,18.593 14.284,18.547 C14.417,18.492 14.569,18.473 14.713,18.473 C14.957,18.472 15.219,18.520 15.441,18.618 C15.267,18.588 15.091,18.570 14.914,18.567 C14.618,18.562 14.269,18.604 14.079,18.845 Z" id="path-9" class="cls-11" fill-rule="evenodd"/>
        </g>
        <g id="bowtie">
          <path d="M12.470,25.232 C12.470,25.232 12.353,24.732 13.288,24.889 C14.223,25.047 15.255,25.436 15.255,25.436 C15.255,25.436 15.323,25.109 15.898,25.147 C16.472,25.186 16.784,25.482 16.784,25.482 C16.784,25.482 18.128,24.917 18.683,24.926 C19.238,24.936 19.277,24.797 19.345,25.000 C19.413,25.204 19.403,25.371 19.345,25.658 C19.287,25.945 19.014,26.269 19.014,26.463 C19.014,26.658 19.374,27.756 18.868,27.824 C18.362,27.892 16.716,27.046 16.716,27.046 C16.716,27.046 16.599,27.379 16.063,27.379 C15.528,27.379 15.245,27.157 15.245,27.157 C15.245,27.157 13.453,27.869 13.151,27.828 C12.849,27.787 12.830,27.491 12.869,27.222 C12.908,26.954 13.015,26.472 12.957,26.426 C12.898,26.380 12.470,25.232 12.470,25.232 Z" id="path-10" class="cls-19" fill-rule="evenodd"/>
          <path d="M13.216,26.511 C13.216,26.511 13.262,27.033 13.699,27.033 C14.137,27.033 15.073,26.350 15.073,26.350 C15.073,26.350 15.697,26.787 16.035,26.787 C16.373,26.787 16.651,26.350 16.651,26.350 C16.651,26.350 18.642,26.639 19.174,25.991 C19.705,25.342 19.050,26.485 19.050,26.485 C19.050,26.485 19.428,27.743 18.998,27.846 C18.567,27.948 16.778,27.110 16.778,27.110 C16.778,27.110 16.304,27.398 15.974,27.393 C15.644,27.387 15.292,27.176 15.292,27.176 C15.292,27.176 13.334,27.904 13.019,27.771 C12.703,27.639 12.944,26.681 13.216,26.511 Z" id="path-11" class="cls-20" fill-rule="evenodd"/>
          <path d="M19.676,25.036 C19.647,24.918 19.569,24.826 19.449,24.770 C18.898,24.511 17.353,25.113 16.796,25.347 C16.620,25.128 16.343,24.986 16.031,24.986 C15.719,24.986 15.441,25.129 15.265,25.348 C14.711,25.116 13.161,24.511 12.609,24.770 C12.489,24.826 12.411,24.918 12.382,25.036 C12.236,25.642 12.660,26.336 12.815,26.563 C12.729,26.801 12.533,27.447 12.771,27.837 C12.842,27.954 12.986,28.003 13.178,28.003 C13.690,28.003 14.547,27.653 15.303,27.285 C15.480,27.479 15.741,27.603 16.031,27.603 C16.338,27.603 16.612,27.464 16.789,27.250 C17.541,27.633 18.392,28.000 18.896,28.000 C19.079,28.000 19.217,27.952 19.287,27.837 C19.525,27.447 19.329,26.801 19.243,26.563 C19.398,26.336 19.822,25.642 19.676,25.036 ZM13.074,27.669 C12.909,27.399 13.095,26.793 13.173,26.601 C13.173,26.601 13.207,26.517 13.207,26.517 C13.207,26.517 13.152,26.443 13.152,26.443 C12.994,26.234 12.609,25.588 12.724,25.111 C12.727,25.097 12.732,25.083 12.764,25.069 C13.083,24.919 14.273,25.299 15.106,25.646 C15.080,25.728 15.066,25.815 15.066,25.906 C15.066,25.906 15.066,26.683 15.066,26.683 C15.066,26.793 15.087,26.899 15.125,26.996 C14.164,27.457 13.225,27.765 13.074,27.669 ZM16.647,26.683 C16.647,27.006 16.371,27.269 16.031,27.269 C15.692,27.269 15.416,27.006 15.416,26.683 C15.416,26.683 15.416,25.906 15.416,25.906 C15.416,25.582 15.692,25.319 16.031,25.319 C16.371,25.319 16.647,25.582 16.647,25.906 C16.647,25.906 16.647,26.683 16.647,26.683 ZM18.885,26.601 C18.964,26.792 19.150,27.398 18.992,27.661 C18.833,27.760 17.900,27.433 16.953,26.956 C16.981,26.869 16.997,26.777 16.997,26.683 C16.997,26.683 16.997,25.906 16.997,25.906 C16.997,25.815 16.982,25.727 16.956,25.644 C17.788,25.297 18.977,24.919 19.295,25.069 C19.326,25.083 19.331,25.097 19.335,25.111 C19.473,25.684 18.912,26.436 18.906,26.444 C18.906,26.444 18.851,26.517 18.851,26.517 C18.851,26.517 18.885,26.601 18.885,26.601 Z" id="path-12" class="cls-21" fill-rule="evenodd"/>
        </g>
        <g id="eyes">
          <path d="M19.486,18.009 C19.394,18.200 19.234,18.335 19.037,18.385 C19.019,18.389 19.002,18.394 18.984,18.397 C18.983,18.397 18.983,18.397 18.983,18.397 C18.598,18.466 18.200,18.194 18.078,17.780 C18.017,17.570 18.031,17.354 18.120,17.171 C18.211,16.981 18.371,16.846 18.569,16.796 C18.970,16.691 19.400,16.967 19.527,17.401 C19.588,17.610 19.575,17.826 19.486,18.009 ZM13.039,18.407 C13.020,18.404 13.003,18.402 12.985,18.398 C12.602,18.316 12.353,17.917 12.416,17.491 C12.449,17.276 12.555,17.083 12.714,16.949 C12.879,16.809 13.082,16.746 13.285,16.774 C13.698,16.829 13.973,17.244 13.907,17.690 C13.839,18.140 13.449,18.462 13.039,18.407 Z" id="path-13" class="cls-23" fill-rule="evenodd"/>
          <path d="M18.934,17.447 C18.786,17.474 18.644,17.382 18.616,17.242 C18.588,17.103 18.686,16.968 18.834,16.942 C18.982,16.914 19.125,17.005 19.152,17.145 C19.180,17.285 19.083,17.420 18.934,17.447 ZM13.351,17.491 C13.204,17.459 13.111,17.321 13.144,17.182 C13.178,17.043 13.323,16.957 13.470,16.989 C13.617,17.021 13.710,17.160 13.677,17.298 C13.644,17.437 13.498,17.523 13.351,17.491 Z" id="path-14" class="cls-5" fill-rule="evenodd"/>
          <path d="M19.237,17.998 C19.230,18.016 19.169,18.166 18.958,18.172 C18.920,18.174 18.885,18.172 18.852,18.165 C18.852,18.165 18.852,18.165 18.851,18.166 C18.851,18.166 18.850,18.165 18.848,18.165 C18.835,18.164 18.824,18.162 18.812,18.160 C18.809,18.159 18.805,18.158 18.801,18.158 C18.789,18.155 18.777,18.151 18.765,18.149 C18.763,18.148 18.761,18.148 18.760,18.146 C18.422,18.046 18.323,17.674 18.323,17.674 C18.335,17.690 18.349,17.703 18.362,17.718 C18.693,18.086 19.239,17.994 19.239,17.994 C19.239,17.994 19.238,17.996 19.237,17.998 ZM13.074,18.167 C13.039,18.155 13.008,18.138 12.980,18.121 C12.969,18.115 12.958,18.108 12.947,18.101 C12.944,18.099 12.939,18.097 12.936,18.094 C12.919,18.082 12.905,18.069 12.890,18.055 C12.888,18.055 12.885,18.053 12.884,18.050 C12.883,18.049 12.880,18.047 12.880,18.046 C12.870,18.039 12.862,18.030 12.854,18.019 C12.645,17.798 12.701,17.469 12.701,17.469 C12.706,17.489 12.712,17.505 12.717,17.524 C12.867,17.987 13.406,18.111 13.406,18.111 C13.406,18.111 13.405,18.112 13.405,18.114 C13.396,18.121 13.276,18.246 13.074,18.167 Z" id="path-15" class="cls-25" fill-rule="evenodd"/>
        </g>
      </g>
    </g>
  </g>
</svg>
