<?xml version="1.0" encoding="UTF-8" standalone="no"?>
<svg width="2425px" height="416px" viewBox="0 0 2425 416" version="1.1" xmlns="http://www.w3.org/2000/svg" xmlns:xlink="http://www.w3.org/1999/xlink" xmlns:sketch="http://www.bohemiancoding.com/sketch/ns">
    <!-- Generator: Sketch 3.5.2 (25235) - http://www.bohemiancoding.com/sketch -->
    <title>Mashable</title>
    <desc>Created with Sketch.</desc>
    <defs></defs>
    <g id="Page-1" stroke="none" stroke-width="1" fill="none" fill-rule="evenodd" sketch:type="MSPage">
        <g id="Mashable" sketch:type="MSLayerGroup" transform="translate(-61.000000, -15.000000)" fill="#00AEEF">
            <g id="layer1" transform="translate(1.133364, 0.989543)" sketch:type="MSShapeGroup">
                <g id="g13734" transform="translate(292.921570, 213.446557) scale(1, -1) translate(-292.921570, -213.446557) translate(0.400500, 4.502936)">
                    <path d="M417.887242,0 L417.887242,269.537271 L315.254135,0 L268.785074,0 L165.483348,269.537271 L165.483348,0 L60.3429177,0 L60.3429177,407.607216 L206.436297,407.607216 L292.019605,182.700302 L376.934292,407.607216 L523.027672,407.607216 L523.027672,0 L417.887242,0 L417.887242,0 Z" id="path13736"></path>
                </g>
                <g id="g13738" transform="translate(1282.484074, 253.889881) scale(1, -1) translate(-1282.484074, -253.889881) translate(480.512510, 0.316421)">
                    <g id="g13740-Clipped">
                        <g id="g13740" transform="translate(1.168743, 0.494165)">
                            <g id="g13746" transform="translate(2.367911, 0.999859)">
                                <path d="M250.732345,83.5774483 L250.732345,112.913133 C232.428884,90.9322638 196.908468,76.2226329 159.047884,76.2226329 C113.832485,76.2226329 57.5848619,107.397021 57.5848619,173.423205 C57.5848619,244.881924 113.832485,268.785074 159.047884,268.785074 C198.16213,268.785074 233.013926,255.914147 250.732345,233.933278 L250.732345,263.268962 C250.732345,288.927239 228.751476,306.645658 190.807315,306.645658 C161.47163,306.645658 132.135946,295.028393 108.316373,274.886228 L73.4645771,340.243792 C111.408739,372.671842 162.14025,386.044234 207.355649,386.044234 C278.229326,386.044234 344.840552,359.800915 344.840552,268.116454 L344.840552,83.5774483 L250.732345,83.5774483 L250.732345,83.5774483 Z M250.732345,159.382194 L250.732345,185.625513 C240.953784,199.666524 218.972915,206.436297 198.16213,206.436297 C173.757515,206.436297 151.108027,195.404074 151.108027,172.169544 C151.108027,148.935013 173.757515,137.986367 198.16213,137.986367 C218.972915,137.986367 240.953784,145.257605 250.732345,159.382194 L250.732345,159.382194 Z" id="path13748"></path>
                            </g>
                            <g id="g13750" transform="translate(353.894658, 39.495632)">
                                <path d="M0,83.5774483 L39.1142458,150.773717 C61.0951147,131.216594 108.149218,111.074429 143.001014,111.074429 C171.083037,111.074429 182.700302,119.014286 182.700302,131.885213 C182.700302,168.492136 11.0322232,130.631552 11.0322232,250.398035 C11.0322232,302.383208 56.2476227,347.598608 137.484903,347.598608 C187.631372,347.598608 229.169363,331.718892 260.928794,308.484362 L224.906913,241.873135 C207.188494,259.006512 173.59036,274.217608 138.153522,274.217608 C116.089076,274.217608 101.463022,265.692708 101.463022,254.075443 C101.463022,221.73097 272.546059,255.329105 272.546059,134.308959 C272.546059,78.0613368 223.06821,37.7770067 138.738564,37.7770067 C85.5833071,37.7770067 31.1743882,55.4954257 0,83.5774483" id="path13752"></path>
                            </g>
                            <g id="g13754" transform="translate(587.752716, 84.577307)">
                                <path d="M250.732345,0 L250.732345,171.751656 C250.732345,207.773537 231.760264,219.390802 201.839538,219.390802 C174.342557,219.390802 156.039096,204.096129 145.006873,190.64016 L145.006873,0 L50.898666,0 L50.898666,407.607216 L145.006873,407.607216 L145.006873,259.09009 C162.725292,279.900874 197.577088,302.466786 247.054937,302.466786 C314.251206,302.466786 344.840552,264.606201 344.840552,210.197283 L344.840552,0 L250.732345,0 L250.732345,0 Z" id="path13756"></path>
                            </g>
                            <g id="g13758" transform="translate(888.397514, 0.999859)">
                                <path d="M250.732345,83.5774483 L250.732345,112.913133 C232.428884,90.9322638 196.908468,76.2226329 159.047884,76.2226329 C113.832485,76.2226329 57.5848619,107.397021 57.5848619,173.423205 C57.5848619,244.881924 113.832485,268.785074 159.047884,268.785074 C198.16213,268.785074 233.013926,255.914147 250.732345,233.933278 L250.732345,263.268962 C250.732345,288.927239 228.751476,306.645658 190.807315,306.645658 C161.47163,306.645658 132.135946,295.028393 108.316373,274.886228 L73.4645771,340.243792 C111.408739,372.671842 162.14025,386.044234 207.355649,386.044234 C278.229326,386.044234 344.840552,359.800915 344.840552,268.116454 L344.840552,83.5774483 L250.732345,83.5774483 L250.732345,83.5774483 Z M250.732345,159.382194 L250.732345,185.625513 C240.953784,199.666524 218.972915,206.436297 198.16213,206.436297 C173.757515,206.436297 151.108027,195.404074 151.108027,172.169544 C151.108027,148.935013 173.757515,137.986367 198.16213,137.986367 C218.972915,137.986367 240.953784,145.257605 250.732345,159.382194 L250.732345,159.382194 Z" id="path13760"></path>
                            </g>
                            <g id="g13762" transform="translate(1265.582538, 0.999859)">
                                <path d="M0,83.5774483 L0,491.184664 L94.1082068,491.184664 L94.1082068,343.9212 C117.342737,373.256884 149.102168,386.044234 181.530218,386.044234 C255.49626,386.044234 311.660305,328.041485 311.660305,231.425954 C311.660305,131.216594 254.242598,76.2226329 181.530218,76.2226329 C148.517126,76.2226329 118.596399,89.6786021 94.1082068,117.760625 L94.1082068,83.5774483 L0,83.5774483 L0,83.5774483 Z M150.35583,159.382194 C187.631372,159.382194 215.713394,186.879174 215.713394,231.425954 C215.713394,275.47127 187.631372,302.96825 150.35583,302.96825 C130.213665,302.96825 105.725472,291.936027 94.1082068,276.056312 L94.1082068,185.625513 C105.725472,169.745798 130.213665,159.382194 150.35583,159.382194 L150.35583,159.382194 Z" id="path13764"></path>
                            </g>
                        </g>
                    </g>
                </g>
                <path d="M2069.94515,14.7929903 L2164.05341,14.7929903 L2164.05341,422.400206 L2069.94515,422.400206 L2069.94515,14.7929903 L2069.94515,14.7929903 Z" id="path13766"></path>
                <g id="g13776" transform="translate(2344.614218, 274.498220) scale(1, -1) translate(-2344.614218, -274.498220) translate(2177.459321, 107.343324)">
                    <path d="M0,167.154897 C0,252.738204 64.1874803,321.773176 156.456983,321.773176 C243.878994,321.773176 307.397855,257.585696 307.397855,157.376335 L307.397855,135.980508 L97.2005724,135.980508 C103.886768,109.73719 128.374961,87.6727433 171.083037,87.6727433 C191.893821,87.6727433 226.160575,96.8662626 243.210375,112.745978 L284.163324,51.0658209 C254.82764,24.7389247 205.934833,11.9515751 160.719433,11.9515751 C69.7035919,11.9515751 0,71.207986 0,167.154897 M156.456983,245.96843 C115.504034,245.96843 99.6243184,221.563816 95.9469107,200.167989 L217.552098,200.167989 C215.128352,220.978773 199.833679,245.96843 156.456983,245.96843" id="path13778"></path>
                </g>
            </g>
        </g>
    </g>
</svg>