<?xml version="1.0" encoding="utf-8"?>
<!-- Generator: Adobe Illustrator 18.1.1, SVG Export Plug-In . SVG Version: 6.00 Build 0)  -->
<svg version="1.1" id="Layer_1" xmlns="http://www.w3.org/2000/svg" xmlns:xlink="http://www.w3.org/1999/xlink" x="0px" y="0px"
	 viewBox="150.5 215 3532.6 512" enable-background="new 150.5 215 3532.6 512" xml:space="preserve">
<g>
	<path fill="#204095" d="M1806.7,215.2c33.4,0.5,66.9,0.9,100.7,0c1.4,50.6,0,101.7,0.5,152.3c31.6-20.9,69.6-32,107.2-28.3
		c37.1,3.7,73.8,21.8,95.2,52.9c16.7,23.7,23.7,52.9,23.7,81.7c0.9,77.5,0,155.1,0.5,233.1c-33.9,1.4-67.8,0-101.7,0.5
		c0-65.5,0-130.9,0-196.4c0-23.2-3.2-50.1-22.3-65.9c-26.5-20-71.5-15.8-90.5,12.5c-10.7,15.8-12.1,35.3-12.1,53.4
		c0,65.5,0,130.9,0,196.4c-33.9,0-67.8,0-101.7,0C1806.7,543.4,1805.8,379.6,1806.7,215.2z"/>
	<path fill="#204095" d="M2098.4,707.7c-8.3,0-16.8-0.1-24.9-0.1c-8.2-0.1-16.6-0.1-24.9-0.1c-5.7,0-10.9,0-15.7,0.1l-0.2,0V510.9
		c0-42.4-12.7-57.9-22.2-65.8c-10.5-7.9-24.4-12.3-39.1-12.3c-21.6,0-40.7,9.3-51.2,24.8c-10.6,15.6-12,34.8-12,53.3v196.6H1806
		v-0.2c0.2-70.2,0.1-141.7,0.1-210.7c-0.1-92.2-0.2-187.5,0.4-281.4V215h0.2c19,0.3,38.6,0.5,58,0.5c15.6,0,29.6-0.2,42.8-0.5l0.2,0
		l0,0.2c0.8,30.4,0.7,61.4,0.5,91.4c-0.1,19.8-0.2,40.4,0,60.5c28.2-18.6,61.1-28.8,92.6-28.8c4.8,0,9.7,0.2,14.4,0.7
		c39.6,4,75.3,23.8,95.3,53c15.5,22,23.7,50.3,23.7,81.8c0.5,44.3,0.5,89.4,0.4,133.1c-0.1,32.7-0.1,66.6,0.1,100v0.2l-0.2,0
		C2123.9,707.5,2112.5,707.7,2098.4,707.7z M2048.6,707c8.3,0,16.8,0.1,24.9,0.1c8.2,0.1,16.6,0.1,24.9,0.1
		c13.9,0,25.3-0.2,35.9-0.6c-0.2-33.3-0.1-67.1-0.1-99.8c0.1-43.6,0.1-88.7-0.4-133.1c0-31.5-8.2-59.7-23.6-81.6
		c-20-29.1-55.5-48.9-95-52.8c-4.7-0.5-9.6-0.7-14.4-0.7c-31.5,0-64.5,10.3-92.7,29l-0.3,0.2l0-0.4c-0.2-20.2-0.1-40.9,0-60.9
		c0.2-29.9,0.3-60.9-0.5-91.2c-13.1,0.4-27,0.5-42.6,0.5c-19.3,0-38.9-0.3-57.8-0.5c-0.5,93.9-0.5,189.1-0.4,281.2
		c0.1,69,0.1,140.3-0.1,210.5h101.2V510.9c0-18.5,1.5-37.8,12.1-53.5c10.5-15.7,29.8-25,51.5-25c14.7,0,28.7,4.4,39.3,12.4
		c20.1,16.6,22.4,45.7,22.4,66.1v196.2C2037.9,707,2042.9,707,2048.6,707z"/>
</g>
<g>
	<path fill="#204095" d="M1186,243.5c31.1,0,62.7,0,94.2,0c0,33.9,0.5,67.8-0.5,101.7c30.6,2.3,61.3,0.5,91.9,0.9
		c0,26,0,51.5,0,77.5c-28.3,0-56.2,0-84,0c0,55.7-0.5,111,0,166.2c-0.5,12.5,5.1,26.9,17.6,31.1c21.8,6,45-0.9,65-10.2
		c0,27.4,0,54.8,0,81.7c-39,22.7-88.2,26.9-130.9,13.5c-34.8-12.5-52-50.6-52.9-85.4c-1.9-65.5,0.5-131.4-0.9-197.3
		c-25.5,0.9-51.1,0.5-76.6,0.5c0-26,0-51.5,0-77.5c26,0,51.5,0.5,77.1,0C1185.5,311.8,1186,277.9,1186,243.5z"/>
	<path fill="#204095" d="M1289.7,713.8c-17.3,0-34.2-2.6-50.4-7.7c-16.2-5.8-29.8-17.8-39.3-34.5c-8.4-14.8-13.3-33-13.8-51.2
		c-1-34.6-0.8-70-0.6-104.2c0.2-30.4,0.3-61.9-0.3-92.8c-11,0.4-22.8,0.6-38.1,0.6c-6.4,0-12.9,0-19.1-0.1c-6.3,0-12.8-0.1-19.1-0.1
		h-0.2v-78h0.2c8.7,0,17.5,0.1,26,0.1c8.4,0.1,17.1,0.1,25.5,0.1c9.5,0,17.8-0.1,25.3-0.2c-0.3-22.8-0.2-45.8-0.1-68.1
		c0.1-11.2,0.1-22.8,0.1-34.3v-0.2h94.7v0.2c0,8.5,0,17.1,0.1,25.5c0.1,24.9,0.2,50.7-0.5,76c10.7,0.8,22.5,1.2,37.1,1.2
		c7.3,0,14.6-0.1,21.8-0.2c7.1-0.1,14.5-0.2,21.8-0.2c4,0,7.6,0,11.1,0.1h0.2v78h-84c0,18.5-0.1,37.3-0.1,55.5
		c-0.1,36.3-0.2,73.7,0.1,110.5c-0.4,11.9,4.8,26.7,17.5,30.9c5.4,1.5,11.2,2.2,17.1,2.2c14.1,0,29.7-4.1,47.7-12.5l0.3-0.1v82.2
		l-0.1,0.1C1346.7,706.5,1318.8,713.8,1289.7,713.8z M1185.7,423l0,0.2c0.7,31,0.5,62.6,0.3,93.1c-0.2,34.2-0.4,69.6,0.6,104.2
		c0.5,18.1,5.4,36.2,13.7,51c9.4,16.6,22.9,28.5,39.1,34.3c16.1,5.1,33,7.6,50.2,7.6c29,0,56.8-7.3,80.4-21v-81.2
		c-17.9,8.3-33.5,12.3-47.6,12.3c-6,0-11.8-0.8-17.3-2.3c-5.9-2-10.6-6.3-13.8-12.5c-2.8-5.5-4.2-12.2-4-18.8
		c-0.3-36.8-0.2-74.3-0.1-110.5c0.1-18.2,0.1-37.1,0.1-55.7v-0.2h84v-77.1c-3.4-0.1-7-0.1-10.9-0.1c-7.3,0-14.6,0.1-21.8,0.2
		c-7.1,0.1-14.5,0.2-21.8,0.2c-14.7,0-26.6-0.4-37.3-1.2l-0.2,0l0-0.2c0.7-25.4,0.6-51.2,0.5-76.2c0-8.3-0.1-16.8-0.1-25.2h-93.8
		c0,11.4-0.1,22.9-0.1,34.1c-0.1,22.3-0.2,45.4,0.1,68.3v0.2l-0.2,0c-7.6,0.1-16,0.2-25.6,0.2c-8.5,0-17.2-0.1-25.5-0.1
		c-8.4-0.1-17.1-0.1-25.7-0.1v77.1c6.3,0,12.7,0,18.9,0.1c6.3,0,12.8,0.1,19.1,0.1c15.5,0,27.3-0.2,38.3-0.6L1185.7,423z"/>
</g>
<g>
	<path fill="#204095" d="M325.2,343.8c40.4-10.2,88.7-2.3,117.9,30.2c6,6.5,9.3,15.3,16.2,20.9c20.9-21.4,44.6-41.8,74.7-49.7
		c41.3-10.7,91-7.4,124.4,22.3c28.8,25.1,38.1,65,38.5,101.7c0,79.4,0,158.8,0,238.2c-33.9-0.5-67.8,0.9-101.7-0.5
		c0.5-66.9,0-133.7,0-200.6c0-23.2-4.6-50.1-25.1-64.1c-25.5-15.8-64.5-12.1-82.6,13c-11.1,16.2-13,36.2-13,55.2
		c0,65.9,0,131.4,0,196.8c-33.4,0.5-67.3,0-100.7,0.5c-1.4-68.7,0-137.4-0.9-205.7c-0.5-23.2-6.5-49.7-28.3-61.7
		c-23.7-12.5-56.6-9.7-75.7,10.2c-14.4,16.2-16.7,39.5-16.7,59.9c0,65.9,0,131.4,0,196.8c-33.9,0-67.8,0-101.7,0
		c0-120.2,0-240.5,0-361.2c33.9,0,67.8,0,101.7,0c0,16.7-0.5,33.9,0.5,50.6C271.8,373.1,295.1,351.2,325.2,343.8z"/>
	<path fill="#204095" d="M373.8,708l0-0.2c-0.8-37.5-0.7-75.6-0.6-112.4c0.1-30.6,0.1-62.3-0.3-93.3c-0.8-38.4-15.8-54.7-28.2-61.6
		c-9.3-4.9-20.1-7.5-31.2-7.5c-17.3,0-33.5,6.5-44.2,17.7c-14.8,16.7-16.7,40.7-16.7,59.7v197.1H150.5V345.9h102.1v0.2
		c0,4.2,0,8.4-0.1,12.6c-0.1,12.3-0.2,25.1,0.5,37.5c23.9-29.6,46.9-46.3,72.2-52.6c11-2.8,22.4-4.2,33.8-4.2
		c16,0,31.9,2.9,45.8,8.3c15.2,5.9,28.2,14.7,38.5,26.1c2.6,2.8,4.7,6,6.7,9.1c2.7,4.2,5.5,8.4,9.4,11.6
		c19.6-20,43.8-41.5,74.7-49.6c14.3-3.7,28.9-5.6,43.2-5.6c22.8,0,55.4,4.8,81.4,27.9c31.2,27.2,38.2,70.4,38.6,101.8v238.4l-0.2,0
		c-4.9-0.1-10-0.1-15.7-0.1c-8.3,0-16.8,0.1-24.9,0.1c-8.2,0.1-16.6,0.1-24.9,0.1c-14,0-25.5-0.2-36.1-0.6l-0.2,0v-0.2
		c0.3-44.6,0.2-89.9,0.1-133.7c-0.1-21.9-0.1-44.6-0.1-66.9c0-31.1-8.4-52.6-25-63.9c-9.8-6.1-22.1-9.4-34.5-9.4
		c-19.8,0-37.7,8.4-47.8,22.4c-11.4,16.7-13,37.2-13,55.1v197.1l-0.2,0c-16.7,0.2-33.8,0.2-50.4,0.2s-33.7,0-50.4,0.2H373.8z
		 M313.4,432.6c11.2,0,22.1,2.6,31.4,7.6c12.5,6.9,27.7,23.3,28.4,61.9c0.4,31,0.4,62.7,0.3,93.3c-0.1,36.8-0.1,74.8,0.6,112.2
		c16.6-0.2,33.7-0.2,50.2-0.2s33.5,0,50.2-0.2V510.5c0-18,1.5-38.6,13-55.4c10.2-14.1,28.2-22.6,48.2-22.6c12.5,0,24.9,3.4,34.8,9.5
		c16.7,11.4,25.2,33,25.2,64.3c0,22.3,0.1,44.9,0.1,66.9c0.1,43.8,0.2,89-0.1,133.5c10.5,0.4,21.9,0.6,35.9,0.6
		c8.3,0,16.8-0.1,24.9-0.1s16.6-0.1,24.9-0.1c5.6,0,10.7,0,15.5,0.1V469.2c-0.4-31.4-7.4-74.5-38.5-101.5
		c-25.9-23-58.4-27.8-81.1-27.8c-14.3,0-28.8,1.9-43.1,5.6c-30.9,8.1-55.1,29.6-74.6,49.6l-0.1,0.1l-0.2-0.1
		c-4-3.2-6.9-7.6-9.6-11.8c-2-3.1-4.1-6.3-6.7-9.1c-10.2-11.4-23.1-20.1-38.3-26c-13.9-5.4-29.7-8.3-45.7-8.3
		c-11.4,0-22.8,1.4-33.7,4.2c-25.4,6.2-48.3,23-72.3,52.9l-0.4,0.4l0-0.6c-0.7-12.6-0.6-25.5-0.5-38.1c0-4.1,0.1-8.3,0.1-12.3H150.9
		v360.8h101.2V510.5c0-19.1,1.9-43.3,16.8-60C279.7,439.1,295.9,432.6,313.4,432.6z"/>
</g>
<g>
	<path fill="#204095" d="M1502.2,374.4c48.3-35.7,113.3-41.8,170.4-27.4c32,8.4,60.4,28.8,83.1,52.5c-20,23.7-41.3,45.5-61.7,68.2
		c-17.6-17.2-37.6-34.8-62.7-38.1c-26-5.1-54.3,0.9-73.4,19.5c-50.1,45-42.2,142.5,22.3,170.9c30.6,13.5,68.2,8.4,95.2-12.1
		c8.4-5.1,14.9-14.4,24.1-17.6c20,19,38.5,39.5,58.5,59.4c-27.4,28.8-60.8,54.8-100.7,61.7c-39.9,7-82.6,5.6-120.2-11.1
		c-51.1-20.9-90.1-66.4-104.5-119.3C1410.7,506.8,1438.1,419.5,1502.2,374.4z"/>
	<path fill="#204095" d="M1613.1,715.7c-28,0-53.7-5.1-76.2-15.1c-24.9-10.2-47.8-26.7-66.1-47.7c-18.1-20.8-31.4-45.6-38.5-71.8
		c-10.7-36.3-9.7-77,2.6-114.4c6.2-18.7,14.9-36,26.1-51.6c11.5-16.1,25.3-29.9,41-40.9c30.6-22.7,69.6-34.7,112.7-34.7
		c19.3,0,38.8,2.4,57.9,7.3c28.6,7.5,57.4,25.6,83.2,52.5l0.1,0.1l-0.1,0.1c-12.7,15-26.1,29.5-39.1,43.6
		c-7.5,8.1-15.2,16.4-22.6,24.7l-0.1,0.2l-0.2-0.2c-17.9-17.5-37.5-34.8-62.6-38c-5.9-1.2-11.9-1.7-17.8-1.7
		c-21.7,0-41.4,7.5-55.4,21.2c-12.6,11.3-22.2,26.6-27.5,44.2c-5.1,16.8-6.4,35.1-3.5,52.7c5.5,34.3,24.9,61.1,53.3,73.5
		c11.3,5,23.5,7.5,36.4,7.5c21.2,0,42-6.9,58.6-19.5c3.4-2.1,6.5-4.9,9.6-7.6c4.5-4,9.1-8.1,14.6-10.1l0.1,0l0.1,0.1
		c11.9,11.4,23.6,23.5,34.9,35.2c7.7,7.9,15.6,16.2,23.6,24.2l0.1,0.1l-0.1,0.2c-34,35.7-67,55.9-100.9,61.8
		C1642.2,714.3,1627.4,715.7,1613.1,715.7z M1614.7,340c-43,0-81.9,12-112.4,34.6c-15.6,11-29.4,24.7-40.9,40.8
		c-11.1,15.5-19.9,32.8-26,51.4c-12.3,37.4-13.3,77.9-2.6,114.1c7.1,26.1,20.4,50.9,38.4,71.6c18.2,21,41,37.4,65.9,47.6
		c22.5,10,48.1,15.1,76.1,15.1c14.2,0,29-1.3,44.1-3.9c33.8-5.9,66.6-26,100.5-61.5c-8-8-15.8-16.2-23.4-24
		c-11.3-11.7-22.9-23.8-34.8-35.1c-5.4,1.9-10,6-14.4,9.9c-3.1,2.7-6.2,5.6-9.6,7.6c-16.6,12.6-37.5,19.6-58.8,19.6
		c-12.9,0-25.2-2.5-36.5-7.5c-14.7-6.4-26.9-16.6-36.3-30.1c-8.7-12.5-14.6-27.6-17.2-43.7c-2.8-17.7-1.6-36.1,3.5-52.9
		c5.4-17.7,15-33,27.6-44.4c14.1-13.7,33.8-21.3,55.7-21.3c6,0,12,0.6,17.9,1.7c25.1,3.2,44.7,20.5,62.6,38
		c7.4-8.3,15.1-16.5,22.5-24.5c12.9-14,26.3-28.4,39-43.4c-25.8-26.8-54.4-44.8-82.9-52.3C1653.5,342.5,1634,340,1614.7,340z"/>
</g>
<g>
	<path fill="#204095" d="M2432.1,380.9c65-53.4,167.6-53.9,233.1-0.9c9.8,7.4,18.1,16.2,26.9,24.6c-11.6,12.5-23.7,25.1-35.7,37.6
		c-25.1-24.1-53.9-49.2-89.6-52.9c-40.4-6-83.1,7.9-110.5,38.1c-51.1,53.4-51.1,146.2-0.9,200.1c27.9,30.6,71.5,46,112.3,39.9
		c37.1-3.7,67.8-26.9,93.3-52.5c11.1,10.7,22.3,21.4,33.9,31.6c-29.7,33-68.2,61.7-113.3,67.3c-41.8,6.5-85.9,1.4-123-20
		c-56.2-29.7-93.3-91.5-95.6-155.1C2359.2,479.4,2385.7,418.5,2432.1,380.9z"/>
	<path fill="#204095" d="M2548,716.7c-32.8,0-63.8-7.8-89.5-22.6c-27.4-14.5-51-37-68.1-64.9c-16.9-27.7-26.5-58.9-27.7-90.3
		c-1.8-29.2,3.6-59.4,15.8-87.2c12.2-27.9,30.7-52.4,53.5-70.8c31.7-26,73.4-40.4,117.3-40.4c43.3,0,84.5,14,116,39.5
		c7.3,5.6,14,12,20.4,18.3c2.1,2.1,4.4,4.2,6.6,6.3l0.2,0.1l-0.1,0.2c-11.5,12.4-23.7,25-35.4,37.2l-0.5,0.5l-0.2-0.2
		c-24.5-23.6-53.7-49.2-89.5-52.9c-6.1-0.9-12.4-1.4-18.7-1.4c-17.1,0-34.4,3.5-50,10.1c-16.2,6.9-30.2,16.7-41.6,29.3
		c-12.4,13-22.1,28.5-28.7,46.1c-6.4,16.9-9.6,35-9.7,53.6c-0.1,18.6,3.1,36.6,9.3,53.7c6.5,17.7,15.9,33.3,28.1,46.4
		c23.4,25.8,58.7,41.2,94.4,41.2c6,0,12-0.4,17.8-1.3c40.6-4.1,72.6-31.9,93.2-52.4l0.1-0.1l0.2,0.1c10.9,10.5,22.2,21.3,33.9,31.6
		l0.2,0.1l-0.1,0.2c-16.3,18.1-33.5,32.9-50.9,44c-20.4,12.9-41.5,20.8-62.5,23.4C2570.4,715.8,2559,716.7,2548,716.7z
		 M2549.3,340.8c-43.9,0-85.4,14.3-117,40.3c-22.7,18.4-41.2,42.8-53.3,70.7c-12.1,27.8-17.6,57.8-15.8,87
		c1.1,31.4,10.7,62.5,27.6,90.1c17.1,27.9,40.6,50.3,67.9,64.7c25.7,14.8,56.6,22.6,89.3,22.6c11.1,0,22.4-0.9,33.6-2.6
		c21-2.6,41.9-10.5,62.3-23.4c17.4-11,34.4-25.7,50.7-43.7c-11.6-10.2-22.7-20.9-33.6-31.3c-20.6,20.6-52.6,48.3-93.3,52.4
		c-5.8,0.9-11.8,1.3-17.8,1.3c-35.8,0-71.2-15.4-94.7-41.3c-12.3-13.2-21.8-28.8-28.2-46.5c-6.2-17.1-9.4-35.2-9.3-53.8
		c0.1-18.7,3.3-36.8,9.7-53.7c6.6-17.7,16.3-33.3,28.8-46.3c11.4-12.6,25.5-22.5,41.8-29.4c15.7-6.6,33.1-10.2,50.2-10.2
		c6.3,0,12.6,0.5,18.7,1.4c35.8,3.7,65,29.2,89.6,52.8l0.2-0.2c11.7-12.2,23.8-24.7,35.3-37.1c-2.2-2-4.3-4.1-6.4-6.2
		c-6.4-6.2-13.1-12.7-20.4-18.3C2633.6,354.8,2592.5,340.8,2549.3,340.8z"/>
</g>
<g>
	<path fill="#204095" d="M2884.8,341.5c45-4.6,92.4,7,129.5,33.4c47.4,32.5,76.6,88.2,78,145.3c2.8,52-17.6,104-53.9,141.1
		c-56.6,58.5-152.3,72-223.8,33.4c-46-23.7-80.3-68.2-92.9-118.4c-12.1-49.7-4.6-104.5,22.7-148.1
		C2774.3,379.6,2827.7,346.6,2884.8,341.5 M2866.2,393c-36.2,10.2-66.4,37.6-81.2,72c-27.4,59.4-12.5,137.4,40.9,176.9
		c41.8,33,104,35.7,148.6,7c79.4-47.8,84-175.5,11.1-231.7C2953,390.2,2907.1,381.4,2866.2,393z"/>
	<path fill="#204095" d="M2903.2,716.8c-31.5,0-62.2-7.5-88.7-21.8c-45.5-23.4-80.3-67.8-93-118.5c-6-24.7-7.2-51.1-3.4-76.4
		c3.8-25.8,12.9-50.7,26.2-71.9c14.6-23.9,35.3-44.6,59.9-59.8c24.6-15.2,52.4-24.6,80.5-27.1c6.4-0.7,13-1,19.5-1
		c39.8,0,78.9,12.2,110.1,34.5c23.1,15.9,42.6,37.8,56.3,63.5c13.6,25.4,21.1,53.8,21.8,82c1.4,25.4-2.9,51.7-12.3,76.2
		c-9.3,24.2-23.7,46.7-41.6,65.1C3004.6,696.6,2955.2,716.8,2903.2,716.8z M2904.3,340.7c-6.5,0-13.1,0.3-19.5,1
		c-28,2.5-55.8,11.8-80.3,27c-24.5,15.2-45.2,35.8-59.8,59.7c-13.3,21.1-22.3,45.9-26.1,71.7c-3.8,25.2-2.6,51.6,3.4,76.2
		c12.7,50.6,47.3,94.9,92.7,118.2c26.4,14.2,57,21.8,88.5,21.8c51.9,0,101.1-20.1,135.1-55.1c17.9-18.3,32.2-40.8,41.5-64.9
		c9.4-24.4,13.6-50.7,12.3-76.1c-0.7-28.1-8.2-56.4-21.7-81.8c-13.7-25.6-33.1-47.5-56.2-63.4C2983.1,352.9,2944,340.7,2904.3,340.7
		z M2905.3,668.9C2905.3,668.9,2905.3,668.9,2905.3,668.9c-29.4,0-57.7-9.5-79.6-26.8c-25.4-18.8-43.5-47.6-50.8-81.1
		c-7.1-32.6-3.6-66.8,9.9-96.1c15.1-35,45.6-62,81.4-72.1c11.7-3.3,23.9-5,36.3-5c30.9,0,60.5,10.4,83.2,29.2
		c17.7,13.6,31.7,32.4,40.6,54.2c8.4,20.7,12.2,43.9,10.9,67c-1.3,22.5-7.4,44.3-17.6,63.1c-11,20.2-26.2,36.3-45.1,47.6
		C2954.4,662,2930.5,668.9,2905.3,668.9z M2902.4,388.2c-12.3,0-24.5,1.7-36.2,5c-35.7,10.1-66,36.9-81.1,71.8
		c-13.5,29.2-17,63.2-9.9,95.8c7.3,33.4,25.3,62.1,50.6,80.8c21.9,17.2,50,26.7,79.3,26.7c25.1,0,48.9-6.8,69-19.8
		c18.8-11.3,33.9-27.3,44.9-47.5c10.2-18.7,16.3-40.5,17.6-62.9c1.3-23.1-2.4-46.2-10.8-66.8c-8.9-21.8-22.9-40.5-40.5-54.1
		C2962.7,398.6,2933.3,388.2,2902.4,388.2z"/>
</g>
<g>
	<path fill="#204095" d="M3268.7,345.2c39.9-9.7,86.8-5.1,118.9,23.2c14.4,12.1,25.1,27.4,33.9,43.2c20.9-29.7,49.2-56.6,85.4-65.5
		c45.5-11.6,99.8-5.6,135.1,28.3c27.9,26.5,39.9,66.4,40.4,104c0.5,76.6-0.5,152.7,0.5,229.4c-18.1,1.4-36.2,0.9-54.3,0
		c0.5-70.1,0-140.7,0-210.8c0.5-33.4-8.8-70.6-37.1-91c-40.9-28.3-104-20-133.2,20.9c-18.1,23.7-23.7,54.8-22.8,84
		c-0.5,65.9,0.5,131.9-0.5,197.8c-17.6-0.5-35.3,0-52.9-0.9c0.5-70.1,0.5-140.7,0.5-211.2c0-28.8-6.5-60.4-27.4-81.7
		c-22.7-24.1-59.9-29.7-91-22.3c-52.5,13.9-79.9,72-75.2,123c0.5,64.5,0,128.6,0.5,192.7c-18.1,0.5-35.7,0-53.4,0.5
		c-1.9-119.8,0-239.6-0.9-359.8c17.6-0.9,35.7-0.5,53.9-0.5c0.5,20,0,39.5,0.5,59.4C3209.3,380,3234.8,354,3268.7,345.2z"/>
	<path fill="#204095" d="M3435.2,708.9l-0.2,0c-7.1-0.2-14.2-0.2-21.2-0.3c-10.4-0.1-21.2-0.1-31.8-0.7l-0.2,0v-0.2
		c0.5-70.1,0.5-141.9,0.5-211.2c0-24.5-4.7-58.5-27.3-81.6c-15.4-16.3-38.4-25.3-64.7-25.3c-8.8,0-17.6,1-26.1,3.1
		c-31.1,8.3-49.2,30.4-58.9,47.5c-12.6,22.2-18.5,49.7-16.2,75.3c0.2,32.3,0.2,64.9,0.2,96.5c0,31.5,0,64.1,0.2,96.2v0.2l-0.2,0
		c-9.1,0.2-18.1,0.2-26.9,0.2c-8.7,0-17.7,0-26.5,0.2l-0.2,0l0-0.2c-1.1-68.4-0.9-138.1-0.8-205.4c0.1-50.6,0.2-102.9-0.2-154.4
		v-0.2l0.2,0c7.6-0.4,15.9-0.6,26.8-0.6c4.5,0,9.1,0,13.5,0.1c4.5,0,9.1,0.1,13.6,0.1h0.2l0,0.2c0.2,10,0.2,20,0.2,29.7
		c0,9.5,0,19.3,0.2,29.1c24.8-34.5,50.7-54.8,79.1-62.2c12.6-3.1,25.5-4.6,38.3-4.6c22.4,0,54.7,4.8,80.8,27.9
		c12.5,10.5,23.2,24.1,33.8,42.9c25.1-35.6,53.8-57.6,85.4-65.3c14.1-3.6,28.5-5.4,43-5.4c36.8,0,69.6,12,92.3,33.8
		c25.2,23.9,39.9,61.9,40.5,104.2c0.2,32.8,0.1,66.1,0.1,98.2c-0.1,42.9-0.1,87.3,0.4,131.1l0,0.2l-0.2,0
		c-7.7,0.6-15.7,0.9-24.5,0.9c-8.6,0-18.1-0.3-29.8-0.9l-0.2,0v-0.2c0.3-46.8,0.2-94.5,0.1-140.6c-0.1-23-0.1-46.8-0.1-70.2
		c0.3-18.2-2.4-35.6-7.8-50.3c-6.3-17.4-16.2-31.1-29.3-40.5c-15.4-10.7-35.1-16.6-55.2-16.6c-31.9,0-60.9,14-77.7,37.4
		c-20.1,26.3-23.5,60.2-22.7,83.9c-0.2,28.3-0.1,57-0.1,84.8c0.1,37,0.2,75.3-0.4,113L3435.2,708.9z M3135.2,349.1
		c0.4,51.5,0.3,103.7,0.2,154.2c-0.1,67.3-0.3,136.8,0.8,205.2c8.8-0.2,17.7-0.2,26.3-0.2c8.7,0,17.7,0,26.7-0.2
		c-0.2-32-0.2-64.5-0.2-95.9c0-31.6,0-64.2-0.2-96.5c-2.3-25.7,3.6-53.2,16.2-75.6c6.6-11.7,14.9-21.7,24.5-29.7
		c10.3-8.6,22-14.6,34.6-18c8.5-2,17.3-3.1,26.2-3.1c26.5,0,49.6,9,65,25.4c22.7,23.2,27.4,57.3,27.4,81.9c0,69.3,0,141-0.5,211
		c10.5,0.5,21.2,0.6,31.5,0.7c6.9,0,14,0.1,21,0.3c0.5-37.6,0.5-75.8,0.4-112.8c-0.1-27.8-0.1-56.5,0.1-84.8
		c-0.8-23.8,2.6-57.7,22.8-84.2c16.9-23.6,46-37.6,78-37.6c20.3,0,40,5.9,55.5,16.7c13.2,9.5,23.1,23.2,29.4,40.7
		c5.3,14.8,8,32.2,7.8,50.5c0,23.3,0.1,47.1,0.1,70.2c0.1,46.1,0.2,93.7-0.1,140.4c11.6,0.6,21,0.9,29.6,0.9
		c8.7,0,16.7-0.3,24.3-0.9c-0.5-43.7-0.5-88.1-0.4-130.9c0.1-32.2,0.1-65.4-0.1-98.2c-0.5-42.1-15.2-80-40.3-103.8
		c-22.6-21.7-55.3-33.7-92-33.7c-14.4,0-28.8,1.8-42.9,5.4c-31.5,7.7-60.2,29.7-85.3,65.4l-0.2,0.3l-0.2-0.3
		c-10.6-18.9-21.3-32.6-33.8-43.1c-26-23-58.1-27.8-80.5-27.8c-12.7,0-25.6,1.6-38.2,4.6c-28.5,7.4-54.4,27.9-79.3,62.6l-0.4,0.5
		l0-0.6c-0.2-10-0.2-20-0.2-29.7c0-9.6,0-19.6-0.2-29.5c-4.5,0-9,0-13.4-0.1c-4.4,0-9-0.1-13.5-0.1
		C3151,348.5,3142.8,348.7,3135.2,349.1z"/>
</g>
<g>
	<path fill="#204095" d="M777,371.2c59-25.5,124.4-35.7,187.6-24.1c34.4,6,67.8,24.1,86.8,54.3c20,31.1,24.1,68.7,24.1,104.9
		c0,66.9-0.5,133.7,0.5,200.6c-33,1.4-65.9,0-98.9,0.5c0-12.5,0-25.5,0.5-38.5c-20.9,21.4-47.4,38.5-77.1,42.7
		c-43.6,7.4-94.2,0.5-125.8-33c-29.7-30.2-34.4-77.1-22.3-116.1c10.7-33.4,40.9-57.1,73.8-66.4c49.7-14.4,103.5-10.2,152.3,5.6
		c0.9-26-9.7-55.7-36.7-65c-46-14.9-95.6-2.8-139.7,12.5C794.2,423.2,784.9,397.2,777,371.2 M868.9,558.3
		c-24.1,10.7-32,45-16.7,65.9c13.5,17.2,37.1,20.4,57.6,18.6c23.7-1.4,48.7-11.1,61.7-32.5c8.8-14.4,7.9-32,7.9-48.3
		C945,548.1,903.7,542,868.9,558.3z"/>
	<path fill="#204095" d="M868.9,714.4c-39.1,0-72.6-12.7-94.4-35.7c-14-14.2-23.3-33.2-26.9-54.8c-3.3-20-1.7-41.2,4.5-61.4
		c5.1-15.9,15-30.5,28.6-42.3c12.8-11.1,28.5-19.4,45.4-24.2c20.2-5.9,41.9-8.8,64.3-8.8c28.9,0,58.4,4.8,87.8,14.3
		c0.4-13.7-2.3-27.3-7.9-38.4c-6.4-12.8-16.3-21.9-28.7-26.1c-13.9-4.5-29-6.8-45.1-6.8c-34.6,0-68.7,10.3-94.5,19.3l-0.2,0.1
		l-0.1-0.2c-3.9-13-8.3-26.2-12.5-39c-4.2-12.8-8.6-26-12.5-39l-0.1-0.2l0.2-0.1c43.7-18.9,90.3-28.9,134.8-28.9
		c17.9,0,35.7,1.6,52.9,4.8c37.6,6.6,69.3,26.4,87,54.4c21.4,33.4,24.2,73.7,24.2,105c0,16.7,0,33.8-0.1,50.2
		c-0.1,49.3-0.2,100.2,0.5,150.4v0.2l-0.2,0c-10.3,0.4-21.5,0.6-35.1,0.6c-8.1,0-16.3-0.1-24.3-0.1c-7.9-0.1-16.2-0.1-24.2-0.1
		c-5.6,0-10.6,0-15.3,0.1l-0.2,0v-0.2c0-12.4,0-25.2,0.4-38c-16.5,16.8-43.2,37.6-76.8,42.4C890,713.5,879.4,714.4,868.9,714.4z
		 M890.4,487.5c-22.4,0-44,3-64.2,8.8c-16.8,4.7-32.5,13.1-45.2,24.1c-13.6,11.8-23.4,26.3-28.5,42.2c-6.2,20.2-7.8,41.3-4.5,61.2
		c3.6,21.6,12.8,40.5,26.8,54.6c21.7,23,55.1,35.6,94.1,35.6c10.4,0,21-0.9,31.5-2.7c33.8-4.7,60.5-25.8,76.9-42.7l0.4-0.4l0,0.6
		c-0.5,12.9-0.5,25.8-0.5,38.3c4.7-0.1,9.6-0.1,15.1-0.1c8.1,0,16.3,0.1,24.2,0.1c7.9,0.1,16.2,0.1,24.3,0.1
		c13.6,0,24.6-0.2,34.9-0.6c-0.7-50.1-0.6-100.9-0.5-150.2c0-16.5,0.1-33.5,0.1-50.2c0-31.3-2.7-71.5-24.1-104.8
		c-17.6-27.9-49.2-47.6-86.7-54.2c-17.2-3.2-35-4.8-52.9-4.8c-44.4,0-90.8,10-134.4,28.8c3.9,12.9,8.3,26.1,12.5,38.8
		c4.2,12.7,8.5,25.9,12.5,38.8c25.9-9,59.9-19.2,94.5-19.2c16.1,0,31.3,2.3,45.2,6.8c12.4,4.3,22.4,13.4,28.9,26.3
		c5.6,11.2,8.4,25,7.9,38.9l0,0.3l-0.3-0.1C948.9,492.3,919.3,487.5,890.4,487.5z M899.8,643.5C899.8,643.5,899.8,643.5,899.8,643.5
		c-15,0-35.4-3.3-47.8-19.1c-7.5-10.2-9.8-24.4-6.2-37.9c3.5-13.1,11.9-23.4,23-28.3c13.9-6.5,29.6-9.8,46.6-9.8
		c20.1,0,42.3,4.7,64,13.5l0.1,0.1v0.1c0,1.4,0,2.8,0,4.2c0.1,15.2,0.2,30.9-7.9,44.2c-6.1,10.1-15.2,18.1-27,23.8
		c-10.3,5-22.4,8-35,8.8C906.4,643.3,903,643.5,899.8,643.5z M915.5,548.8c-17,0-32.6,3.3-46.5,9.7c-11,4.9-19.3,15.1-22.8,28
		c-3.6,13.4-1.3,27.4,6.2,37.6c12.3,15.7,32.6,18.9,47.4,18.9c0,0,0,0,0,0c3.2,0,6.6-0.2,9.9-0.5c12.5-0.7,24.6-3.8,34.8-8.7
		c11.7-5.7,20.7-13.6,26.8-23.7c8-13.1,7.9-28.8,7.9-43.9c0-1.4,0-2.7,0-4.1C957.5,553.4,935.5,548.8,915.5,548.8z"/>
</g>
<g>
	<path fill="#71CC00" d="M2229.7,606.1c33.9-11.1,72.9,13.5,78,48.3c7,33-18.6,67.3-51.5,71.5c-31.1,5.6-63.6-16.7-69.6-47.8
		C2179.1,647.4,2199.5,614,2229.7,606.1z"/>
	<path fill="#71CC00" d="M2246.5,727c-28.4,0-54.8-21.5-60.2-48.9c-7.4-30.5,12.9-64.2,43.3-72.2c5.5-1.8,11.2-2.7,17.1-2.7
		c14.2,0,28.3,5.2,39.8,14.7c11.7,9.6,19.3,22.6,21.3,36.5c3.3,15.4-0.5,32.2-10.4,46.1c-10.1,14.2-25.2,23.6-41.3,25.6
		C2253,726.7,2249.7,727,2246.5,727z M2246.8,603.6c-5.8,0-11.6,0.9-17,2.7c-30.3,7.9-50.4,41.4-43,71.7
		c5.3,27.2,31.5,48.5,59.7,48.5c3.2,0,6.5-0.3,9.7-0.9c16-2,31-11.3,41-25.4c9.8-13.8,13.6-30.5,10.3-45.8
		c-2-13.8-9.6-26.7-21.2-36.3C2274.9,608.8,2260.8,603.6,2246.8,603.6z"/>
</g>
</svg>
