<?xml version="1.0" encoding="utf-8"?><!-- Generator: Adobe Illustrator 16.0.0, SVG Export Plug-In . SVG Version: 6.00 Build 0) --><!DOCTYPE svg PUBLIC "-//W3C//DTD SVG 1.1//EN" "http://www.w3.org/Graphics/SVG/1.1/DTD/svg11.dtd"><svg version="1.1" id="Layer_1" xmlns="http://www.w3.org/2000/svg" xmlns:xlink="http://www.w3.org/1999/xlink" x="0px" y="0px" width="760.895px" height="110.28px" viewBox="20.453 19.251 760.895 110.28" enable-background="new 20.453 19.251 760.895 110.28" xml:space="preserve"><g><path fill="#204095" d="M377.2,19.3c7.2,0.1,14.4,0.2,21.7,0c0.3,10.9,0,21.9,0.1,32.8c6.8-4.5,15-6.9,23.1-6.1	c8,0.8,15.9,4.7,20.5,11.4C446.2,62.5,447.7,68.8,447.7,75c0.2,16.7,0,33.4,0.1,50.2c-7.3,0.3-14.6,0-21.899,0.1	c0-14.1,0-28.2,0-42.3c0-5-0.7-10.8-4.801-14.2c-5.699-4.3-15.399-3.4-19.5,2.7c-2.3,3.4-2.6,7.6-2.6,11.5c0,14.1,0,28.2,0,42.3	c-7.3,0-14.6,0-21.9,0C377.2,90,377,54.7,377.2,19.3z"/><path fill="#204095" d="M440.026,125.385c-1.791,0-3.611-0.016-5.371-0.03c-1.76-0.014-3.58-0.029-5.369-0.029	c-1.23,0-2.337,0.007-3.385,0.021l-0.048,0.001V83c0-9.14-2.73-12.461-4.784-14.164c-2.27-1.712-5.258-2.656-8.412-2.656	c-4.649,0-8.769,1.999-11.019,5.346c-2.278,3.367-2.592,7.504-2.592,11.474v42.347h-21.994V125.3	c0.043-15.127,0.03-30.511,0.019-45.388c-0.016-19.853-0.033-40.382,0.082-60.613l0-0.047l0.047,0	c4.087,0.057,8.313,0.116,12.489,0.116c3.361,0,6.373-0.038,9.208-0.116l0.047-0.001l0.001,0.047	c0.18,6.542,0.144,13.227,0.108,19.69c-0.023,4.275-0.047,8.694-0.009,13.025c6.084-4.007,13.164-6.213,19.947-6.213	c1.04,0,2.087,0.051,3.111,0.152c8.534,0.854,16.21,5.123,20.534,11.42c3.342,4.734,5.108,10.829,5.108,17.626	c0.114,9.547,0.098,19.264,0.082,28.66c-0.013,7.053-0.025,14.345,0.018,21.54v0.045l-0.045,0.002	C445.521,125.341,443.05,125.385,440.026,125.385z M429.286,125.231c1.79,0,3.609,0.016,5.37,0.029c1.76,0.015,3.58,0.03,5.37,0.03	c3.002,0,5.459-0.043,7.727-0.136c-0.043-7.182-0.03-14.457-0.018-21.495c0.016-9.396,0.032-19.112-0.082-28.66	c0-6.778-1.761-12.855-5.092-17.574c-4.309-6.275-11.96-10.53-20.467-11.38c-1.021-0.101-2.064-0.152-3.102-0.152	c-6.791,0-13.883,2.218-19.967,6.245l-0.072,0.048l-0.001-0.086c-0.04-4.359-0.016-8.809,0.008-13.112	c0.036-6.448,0.072-13.115-0.106-19.64c-2.823,0.077-5.821,0.114-9.165,0.114c-4.161,0-8.371-0.059-12.443-0.115	c-0.114,20.215-0.097,40.728-0.081,60.565c0.012,14.862,0.024,30.229-0.019,45.341h21.806V83c0-3.984,0.316-8.138,2.607-11.526	c2.268-3.374,6.416-5.387,11.097-5.387c3.175,0,6.184,0.95,8.471,2.676c4.32,3.583,4.819,9.841,4.819,14.238v42.252	C426.981,125.238,428.074,125.231,429.286,125.231z"/></g><g><path fill="#204095" d="M243.5,25.4c6.7,0,13.5,0,20.3,0c0,7.3,0.1,14.6-0.1,21.9c6.6,0.5,13.2,0.1,19.8,0.2c0,5.6,0,11.1,0,16.7	c-6.1,0-12.1,0-18.1,0c0,12-0.1,23.899,0,35.8c-0.1,2.7,1.1,5.8,3.8,6.7c4.7,1.3,9.7-0.2,14-2.2c0,5.9,0,11.8,0,17.6	c-8.4,4.9-19,5.801-28.2,2.9c-7.5-2.7-11.2-10.9-11.4-18.4c-0.4-14.1,0.1-28.3-0.2-42.5c-5.5,0.2-11,0.1-16.5,0.1	c0-5.6,0-11.1,0-16.7c5.6,0,11.1,0.1,16.6,0C243.4,40.1,243.5,32.8,243.5,25.4z"/><path fill="#204095" d="M265.833,126.696c-3.722,0-7.371-0.556-10.847-1.651c-3.496-1.259-6.422-3.825-8.464-7.422	c-1.81-3.188-2.864-7.103-2.968-11.022c-0.211-7.461-0.17-15.083-0.131-22.453c0.035-6.553,0.072-13.329-0.068-19.999	c-2.366,0.085-4.902,0.124-8.214,0.124c-1.374,0-2.77-0.006-4.121-0.013c-1.35-0.006-2.747-0.012-4.12-0.012h-0.047V47.453h0.047	c1.875,0,3.765,0.011,5.593,0.022c1.806,0.011,3.674,0.022,5.503,0.022c2.039,0,3.824-0.014,5.457-0.043	c-0.066-4.915-0.043-9.874-0.022-14.669c0.011-2.416,0.022-4.915,0.022-7.385v-0.047h20.394V25.4c0,1.827,0.006,3.685,0.013,5.482	c0.018,5.367,0.037,10.916-0.111,16.375c2.308,0.173,4.849,0.254,7.992,0.254c1.562,0,3.151-0.019,4.688-0.037	c1.537-0.019,3.126-0.038,4.689-0.038c0.856,0,1.636,0.006,2.384,0.017l0.046,0v16.793h-18.1c0,3.992-0.011,8.035-0.022,11.946	C265.403,84,265.38,92.073,265.447,100c-0.095,2.569,1.043,5.747,3.768,6.655c1.161,0.321,2.404,0.484,3.692,0.484	c3.032,0,6.393-0.877,10.273-2.683l0.066-0.03v17.7l-0.023,0.013C278.115,125.12,272.102,126.695,265.833,126.696z M243.446,64.052	l0.001,0.047c0.142,6.687,0.105,13.48,0.069,20.049c-0.04,7.369-0.081,14.99,0.131,22.45c0.104,3.904,1.154,7.803,2.956,10.978	c2.031,3.578,4.94,6.129,8.413,7.38c3.465,1.092,7.105,1.646,10.817,1.646c6.242-0.001,12.231-1.566,17.32-4.53v-17.499	c-3.865,1.79-7.218,2.66-10.246,2.66c-1.297,0-2.548-0.164-3.72-0.488c-1.264-0.421-2.293-1.354-2.979-2.699	c-0.604-1.184-0.908-2.621-0.855-4.048c-0.067-7.924-0.044-15.998-0.022-23.806c0.011-3.925,0.022-7.985,0.022-11.992v-0.047h18.1	V47.546c-0.733-0.011-1.499-0.017-2.337-0.017c-1.562,0-3.151,0.019-4.688,0.038c-1.537,0.018-3.126,0.037-4.689,0.037	c-3.166,0-5.722-0.082-8.043-0.258l-0.044-0.003l0.001-0.045c0.15-5.472,0.131-11.036,0.112-16.417	c-0.006-1.781-0.013-3.623-0.013-5.435h-20.206c0,2.455-0.011,4.938-0.022,7.338c-0.021,4.811-0.044,9.785,0.022,14.714l0,0.046	l-0.046,0.001c-1.646,0.03-3.446,0.044-5.505,0.044c-1.83,0-3.697-0.011-5.503-0.022c-1.813-0.011-3.688-0.022-5.546-0.022v16.606	c1.358,0,2.738,0.006,4.073,0.012c1.35,0.006,2.747,0.013,4.12,0.013c3.333,0,5.879-0.039,8.258-0.125L243.446,64.052z"/></g><g><path fill="#204095" d="M58.1,47c8.7-2.2,19.1-0.5,25.4,6.5c1.3,1.4,2,3.3,3.5,4.5c4.5-4.6,9.6-9,16.1-10.7	c8.9-2.3,19.6-1.6,26.8,4.8c6.2,5.4,8.2,14,8.3,21.9c0,17.1,0,34.2,0,51.3c-7.3-0.1-14.6,0.2-21.9-0.1c0.1-14.4,0-28.8,0-43.2	c0-5-1-10.8-5.4-13.8c-5.5-3.4-13.9-2.6-17.8,2.8c-2.4,3.5-2.8,7.8-2.8,11.9c0,14.199,0,28.3,0,42.399	c-7.2,0.101-14.5,0-21.7,0.101C68.3,110.6,68.6,95.8,68.4,81.1c-0.1-5-1.4-10.7-6.1-13.3C57.2,65.1,50.1,65.7,46,70	c-3.1,3.5-3.6,8.5-3.6,12.9c0,14.199,0,28.3,0,42.399c-7.3,0-14.6,0-21.9,0c0-25.899,0-51.8,0-77.8c7.3,0,14.6,0,21.9,0	c0,3.6-0.1,7.3,0.1,10.9C46.6,53.3,51.6,48.6,58.1,47z"/><path fill="#204095" d="M68.554,125.448l-0.001-0.047c-0.164-8.075-0.148-16.276-0.134-24.208	c0.012-6.594,0.024-13.413-0.066-20.093c-0.166-8.273-3.396-11.777-6.076-13.26c-2.007-1.062-4.333-1.625-6.727-1.625	c-3.736,0-7.205,1.391-9.517,3.816c-3.179,3.589-3.587,8.763-3.587,12.868v42.446H20.453V47.453h21.994V47.5	c0,0.897-0.006,1.817-0.012,2.707c-0.019,2.658-0.038,5.405,0.105,8.069c5.148-6.379,10.092-9.978,15.549-11.321	c2.369-0.599,4.822-0.903,7.29-0.903c3.454,0,6.867,0.617,9.871,1.785c3.283,1.276,6.07,3.171,8.285,5.632	c0.554,0.596,1.005,1.292,1.442,1.966c0.58,0.895,1.179,1.818,2.019,2.502c4.218-4.308,9.427-8.939,16.092-10.683	c3.085-0.797,6.219-1.201,9.315-1.201c4.911,0,11.938,1.043,17.528,6.012c6.717,5.851,8.23,15.157,8.316,21.935v51.348	l-0.047-0.001c-1.048-0.015-2.155-0.021-3.385-0.021c-1.79,0-3.61,0.016-5.371,0.029c-1.76,0.015-3.58,0.03-5.371,0.03	c-3.023,0-5.494-0.044-7.776-0.138l-0.045-0.002l0-0.045c0.067-9.601,0.044-19.36,0.022-28.8c-0.011-4.72-0.022-9.601-0.022-14.4	c0-6.697-1.81-11.327-5.379-13.761c-2.117-1.309-4.759-2.03-7.437-2.03c-4.27,0-8.119,1.801-10.298,4.819	c-2.46,3.587-2.792,8.015-2.792,11.873v42.445l-0.046,0.001c-3.6,0.051-7.286,0.051-10.85,0.051s-7.25,0-10.85,0.05L68.554,125.448	z M55.551,66.123c2.408,0,4.75,0.566,6.771,1.636c2.703,1.495,5.958,5.023,6.125,13.34c0.091,6.682,0.079,13.5,0.066,20.095	c-0.015,7.916-0.03,16.101,0.133,24.159c3.585-0.05,7.255-0.05,10.804-0.05c3.549,0,7.218,0,10.803-0.049V82.9	c0-3.872,0.333-8.317,2.809-11.927c2.197-3.043,6.076-4.859,10.375-4.859c2.695,0,5.354,0.727,7.488,2.045	c3.599,2.454,5.422,7.109,5.422,13.84c0,4.8,0.011,9.681,0.022,14.4c0.021,9.424,0.044,19.169-0.022,28.755	c2.268,0.093,4.724,0.136,7.727,0.136c1.79,0,3.61-0.016,5.37-0.03c1.76-0.014,3.581-0.029,5.371-0.029	c1.211,0,2.304,0.007,3.338,0.021V74c-0.085-6.757-1.592-16.037-8.284-21.865c-5.568-4.95-12.571-5.988-17.466-5.988	c-3.088,0-6.214,0.403-9.292,1.198c-6.659,1.742-11.865,6.38-16.078,10.688l-0.03,0.03l-0.033-0.026	c-0.87-0.696-1.481-1.639-2.072-2.551c-0.435-0.67-0.884-1.363-1.433-1.954c-2.206-2.45-4.981-4.337-8.25-5.607	c-2.993-1.164-6.395-1.779-9.837-1.779c-2.46,0-4.905,0.303-7.267,0.9c-5.464,1.345-10.413,4.962-15.575,11.384l-0.077,0.095	l-0.007-0.122c-0.15-2.705-0.131-5.497-0.113-8.196c0.006-0.874,0.013-1.777,0.013-2.659H20.547v77.706h21.806V82.9	c0-4.122,0.411-9.317,3.612-12.932C48.296,67.524,51.79,66.123,55.551,66.123z"/></g><g><path fill="#204095" d="M311.6,53.6c10.4-7.7,24.4-9,36.7-5.9c6.9,1.8,13,6.2,17.9,11.3c-4.3,5.1-8.9,9.8-13.3,14.7	c-3.8-3.7-8.1-7.5-13.5-8.2c-5.6-1.1-11.7,0.2-15.8,4.2c-10.8,9.7-9.1,30.7,4.8,36.8c6.6,2.9,14.7,1.8,20.5-2.6	c1.8-1.101,3.2-3.101,5.2-3.801c4.3,4.101,8.3,8.5,12.6,12.801c-5.9,6.199-13.1,11.8-21.7,13.3s-17.8,1.2-25.9-2.4	c-11-4.5-19.4-14.3-22.5-25.7C291.9,82.1,297.8,63.3,311.6,53.6z"/><path fill="#204095" d="M335.504,127.098c-6.039,0-11.564-1.096-16.423-3.255c-5.37-2.196-10.291-5.75-14.229-10.274	c-3.896-4.476-6.765-9.82-8.297-15.456c-2.299-7.826-2.099-16.577,0.563-24.64c1.328-4.021,3.218-7.757,5.618-11.105	c2.487-3.469,5.46-6.432,8.838-8.806c6.598-4.885,14.99-7.468,24.268-7.468c4.165,0,8.36,0.525,12.47,1.562	c6.158,1.606,12.355,5.518,17.923,11.312l0.029,0.031l-0.027,0.032c-2.729,3.238-5.624,6.361-8.423,9.382	c-1.608,1.735-3.271,3.529-4.878,5.319l-0.032,0.037l-0.035-0.034c-3.86-3.759-8.081-7.488-13.473-8.188	c-1.266-0.249-2.556-0.374-3.838-0.374c-4.674,0-8.908,1.62-11.923,4.562c-2.721,2.444-4.771,5.738-5.929,9.53	c-1.108,3.623-1.37,7.552-0.759,11.36c1.185,7.382,5.367,13.153,11.474,15.833c2.428,1.067,5.064,1.608,7.834,1.608	c4.565,0,9.046-1.492,12.619-4.202c0.732-0.448,1.408-1.053,2.061-1.638c0.961-0.861,1.956-1.752,3.152-2.17l0.027-0.01l0.021,0.02	c2.571,2.452,5.087,5.064,7.52,7.592c1.648,1.711,3.352,3.48,5.081,5.21l0.032,0.032l-0.031,0.033	c-7.314,7.685-14.421,12.04-21.726,13.313C341.771,126.811,338.573,127.098,335.504,127.098z M335.841,46.187	c-9.257,0-17.63,2.577-24.213,7.451c-3.37,2.369-6.335,5.324-8.816,8.785c-2.395,3.34-4.28,7.068-5.604,11.08	c-2.656,8.045-2.856,16.775-0.562,24.584c1.529,5.624,4.392,10.956,8.278,15.421c3.929,4.514,8.837,8.058,14.195,10.25	c4.848,2.154,10.36,3.247,16.386,3.247c3.064,0,6.256-0.286,9.488-0.85c7.274-1.269,14.354-5.604,21.643-13.253	c-1.719-1.72-3.412-3.479-5.05-5.18c-2.426-2.519-4.934-5.123-7.497-7.568c-1.166,0.417-2.146,1.294-3.093,2.142	c-0.657,0.588-1.335,1.196-2.071,1.646c-3.584,2.72-8.086,4.219-12.671,4.219c-2.783,0-5.432-0.544-7.872-1.616	c-3.165-1.389-5.798-3.573-7.826-6.491c-1.864-2.683-3.145-5.938-3.703-9.413c-0.613-3.822-0.35-7.766,0.762-11.402	c1.164-3.808,3.223-7.117,5.955-9.571c3.031-2.958,7.289-4.587,11.987-4.587c1.288,0,2.584,0.126,3.853,0.375	c5.402,0.7,9.626,4.419,13.488,8.179c1.598-1.779,3.249-3.561,4.846-5.284c2.789-3.01,5.673-6.122,8.394-9.347	c-5.548-5.766-11.72-9.658-17.849-11.256C344.186,46.711,339.998,46.187,335.841,46.187z"/></g><g><path fill="#204095" d="M511.9,55c14-11.5,36.1-11.6,50.199-0.2c2.101,1.6,3.9,3.5,5.801,5.3c-2.5,2.7-5.101,5.4-7.7,8.1	c-5.4-5.2-11.601-10.6-19.3-11.4c-8.7-1.3-17.9,1.7-23.801,8.2c-11,11.5-11,31.5-0.199,43.1c6,6.601,15.399,9.9,24.199,8.601	c8-0.8,14.601-5.8,20.101-11.3c2.399,2.3,4.8,4.6,7.3,6.8c-6.4,7.1-14.7,13.3-24.4,14.5c-9,1.399-18.5,0.3-26.5-4.3	C505.5,116,497.5,102.7,497,89C496.2,76.2,501.9,63.1,511.9,55z"/><path fill="#204095" d="M536.854,127.314c-7.066,0-13.732-1.686-19.277-4.873c-5.907-3.125-10.979-7.959-14.666-13.979	c-3.65-5.96-5.71-12.688-5.957-19.46c-0.394-6.296,0.784-12.792,3.404-18.783c2.627-6.007,6.608-11.282,11.514-15.255	c6.828-5.609,15.803-8.698,25.27-8.698c9.336,0,18.211,3.018,24.988,8.498c1.577,1.201,3.008,2.594,4.392,3.941	c0.461,0.448,0.938,0.912,1.412,1.362l0.033,0.032l-0.031,0.034c-2.477,2.674-5.094,5.394-7.626,8.023l-0.107,0.111l-0.033-0.033	c-5.286-5.09-11.57-10.587-19.272-11.388c-1.321-0.197-2.673-0.297-4.019-0.297c-3.683,0-7.41,0.754-10.779,2.181	c-3.496,1.48-6.512,3.601-8.963,6.301c-2.679,2.799-4.758,6.143-6.182,9.939c-1.368,3.648-2.069,7.531-2.082,11.542	c-0.012,4.004,0.661,7.894,2.001,11.561c1.391,3.805,3.431,7.167,6.062,9.994c5.046,5.552,12.646,8.865,20.332,8.865	c1.286,0,2.574-0.094,3.826-0.278c8.752-0.876,15.648-6.861,20.074-11.287l0.032-0.032l0.033,0.031	c2.354,2.256,4.787,4.589,7.299,6.799l0.035,0.031l-0.031,0.035c-3.518,3.902-7.21,7.089-10.973,9.471	c-4.403,2.787-8.931,4.484-13.457,5.045C541.683,127.123,539.242,127.314,536.854,127.314z M537.141,46.359	c-9.445,0-18.398,3.082-25.211,8.677c-4.893,3.964-8.865,9.227-11.486,15.22c-2.614,5.978-3.789,12.458-3.396,18.741	c0.246,6.757,2.302,13.47,5.943,19.416c3.678,6.006,8.737,10.828,14.631,13.946c5.533,3.181,12.183,4.861,19.232,4.861	c2.384,0,4.819-0.19,7.239-0.566c4.514-0.559,9.028-2.252,13.419-5.031c3.745-2.371,7.419-5.539,10.922-9.419	c-2.488-2.192-4.9-4.502-7.232-6.738c-4.438,4.434-11.339,10.405-20.097,11.281c-1.255,0.186-2.547,0.279-3.838,0.279	c-7.711,0-15.338-3.325-20.401-8.896c-2.64-2.836-4.687-6.209-6.081-10.025c-1.344-3.678-2.019-7.578-2.007-11.593	c0.014-4.022,0.716-7.916,2.088-11.575c1.429-3.808,3.515-7.163,6.2-9.97c2.46-2.71,5.487-4.838,8.995-6.324	c3.382-1.432,7.122-2.188,10.816-2.188c1.351,0,2.707,0.1,4.03,0.298c7.713,0.802,14.002,6.289,19.292,11.38l0.042-0.043	c2.521-2.619,5.127-5.325,7.594-7.988c-0.465-0.44-0.93-0.893-1.38-1.331c-1.382-1.345-2.811-2.735-4.384-3.934	C555.309,49.37,546.455,46.359,537.141,46.359z"/></g><g><path fill="#204095" d="M609.4,46.5c9.699-1,19.899,1.5,27.899,7.2c10.2,7,16.5,19,16.8,31.3c0.601,11.2-3.8,22.4-11.6,30.4	c-12.2,12.6-32.8,15.5-48.2,7.199c-9.899-5.1-17.3-14.699-20-25.5c-2.6-10.699-1-22.5,4.9-31.899C585.6,54.7,597.1,47.6,609.4,46.5 M605.4,57.6c-7.801,2.2-14.301,8.1-17.5,15.5c-5.9,12.8-2.7,29.6,8.8,38.1c9,7.1,22.399,7.7,32,1.5	c17.1-10.3,18.1-37.8,2.399-49.9C624.1,57,614.2,55.1,605.4,57.6z"/><path fill="#204095" d="M613.374,127.34c-6.79,0-13.394-1.625-19.097-4.699c-9.804-5.05-17.289-14.594-20.023-25.529	c-1.292-5.321-1.548-11.011-0.737-16.455c0.827-5.563,2.778-10.917,5.644-15.481c3.142-5.154,7.603-9.611,12.902-12.89	c5.293-3.274,11.286-5.291,17.334-5.832c1.386-0.143,2.802-0.215,4.21-0.215c8.577,0,17.002,2.637,23.721,7.424	c4.983,3.42,9.178,8.15,12.127,13.679c2.922,5.477,4.544,11.583,4.692,17.658c0.293,5.466-0.624,11.144-2.652,16.418	c-2.006,5.214-5.104,10.061-8.961,14.017C635.207,123,624.578,127.34,613.374,127.34z M613.606,46.332	c-1.404,0-2.818,0.072-4.201,0.215c-6.033,0.54-12.014,2.552-17.293,5.819c-5.287,3.271-9.738,7.718-12.872,12.859	c-2.858,4.554-4.806,9.895-5.632,15.445c-0.808,5.433-0.553,11.109,0.737,16.419c2.727,10.909,10.194,20.431,19.976,25.469	c5.69,3.067,12.278,4.688,19.053,4.688c11.18,0,21.783-4.33,29.093-11.878c3.848-3.947,6.938-8.782,8.939-13.984	c2.023-5.263,2.939-10.927,2.646-16.381c-0.147-6.062-1.767-12.154-4.682-17.618c-2.942-5.515-7.126-10.233-12.098-13.646	C630.569,48.962,622.164,46.332,613.606,46.332z M613.82,117.016C613.819,117.016,613.819,117.016,613.82,117.016	c-6.336,0-12.426-2.053-17.149-5.778c-5.479-4.05-9.365-10.253-10.941-17.465c-1.537-7.031-0.781-14.38,2.128-20.692	c3.263-7.546,9.816-13.35,17.53-15.525c2.52-0.716,5.149-1.079,7.816-1.079c6.666,0,13.031,2.233,17.926,6.288	c3.809,2.936,6.836,6.976,8.753,11.682c1.816,4.461,2.626,9.454,2.341,14.439c-0.278,4.847-1.589,9.548-3.793,13.596	c-2.371,4.357-5.637,7.809-9.706,10.26C624.395,115.537,619.239,117.016,613.82,117.016z M613.204,56.57	c-2.658,0-5.279,0.362-7.791,1.075c-7.688,2.168-14.218,7.952-17.47,15.474c-2.901,6.294-3.655,13.623-2.122,20.634	c1.571,7.189,5.444,13.372,10.907,17.409c4.708,3.715,10.777,5.76,17.091,5.76c5.401,0,10.539-1.474,14.855-4.261	c4.056-2.443,7.311-5.884,9.674-10.226c2.196-4.035,3.504-8.724,3.781-13.557c0.285-4.971-0.522-9.949-2.334-14.398	c-1.91-4.69-4.928-8.717-8.725-11.644C626.192,58.795,619.848,56.57,613.204,56.57z"/></g><g><path fill="#204095" d="M692.1,47.3c8.601-2.1,18.7-1.1,25.601,5c3.1,2.6,5.399,5.9,7.3,9.3c4.5-6.4,10.6-12.2,18.4-14.1	c9.8-2.5,21.5-1.2,29.1,6.1c6,5.7,8.6,14.3,8.7,22.4c0.1,16.5-0.101,32.9,0.1,49.4c-3.899,0.3-7.8,0.199-11.7,0	c0.101-15.101,0-30.301,0-45.4c0.101-7.2-1.899-15.2-8-19.6c-8.8-6.1-22.399-4.3-28.699,4.5C729,70,727.8,76.7,728,83	c-0.1,14.2,0.1,28.4-0.1,42.6c-3.801-0.1-7.601,0-11.4-0.199c0.1-15.101,0.1-30.301,0.1-45.5c0-6.2-1.399-13-5.899-17.601	c-4.9-5.2-12.9-6.4-19.601-4.8C679.8,60.5,673.9,73,674.9,84c0.1,13.9,0,27.7,0.1,41.5c-3.9,0.1-7.7,0-11.5,0.1	c-0.4-25.8,0-51.6-0.2-77.5c3.8-0.2,7.7-0.1,11.601-0.1c0.1,4.3,0,8.5,0.1,12.8C679.3,54.8,684.8,49.2,692.1,47.3z"/><path fill="#204095" d="M727.946,125.647l-0.047-0.001c-1.521-0.04-3.065-0.048-4.56-0.056c-2.242-0.012-4.562-0.024-6.843-0.144	l-0.044-0.002V125.4c0.1-15.101,0.1-30.555,0.1-45.5c0-5.27-1.021-12.595-5.886-17.568c-3.311-3.512-8.261-5.446-13.94-5.446	c-1.896,0-3.786,0.222-5.616,0.659c-6.699,1.779-10.595,6.544-12.682,10.228c-2.715,4.79-3.983,10.704-3.481,16.223	c0.05,6.954,0.05,13.988,0.05,20.792c0,6.79,0,13.812,0.05,20.712v0.046l-0.046,0.001c-1.95,0.05-3.901,0.05-5.789,0.05	c-1.874,0-3.812,0-5.711,0.05l-0.047,0.001l-0.001-0.047c-0.229-14.741-0.195-29.738-0.163-44.241	c0.023-10.893,0.049-22.157-0.037-33.259v-0.045l0.044-0.002c1.644-0.086,3.422-0.125,5.766-0.125c0.968,0,1.955,0.006,2.91,0.012	c0.959,0.006,1.951,0.013,2.928,0.013h0.046l0.001,0.046c0.05,2.15,0.05,4.311,0.05,6.401c0,2.044,0,4.156,0.047,6.259	c5.346-7.425,10.922-11.811,17.044-13.404c2.721-0.664,5.496-1.001,8.25-1.001c4.832,0,11.772,1.043,17.394,6.011	c2.688,2.255,5.001,5.195,7.273,9.248c5.411-7.675,11.597-12.404,18.385-14.058c3.032-0.774,6.147-1.166,9.259-1.166	c7.937,0,14.998,2.584,19.884,7.278c5.426,5.153,8.602,13.33,8.715,22.433c0.043,7.066,0.03,14.23,0.018,21.158	c-0.016,9.247-0.032,18.809,0.082,28.242l0.001,0.044l-0.044,0.004c-1.655,0.127-3.383,0.189-5.281,0.189	c-1.858,0-3.899-0.061-6.425-0.189l-0.045-0.002V125.4c0.067-10.071,0.044-20.348,0.022-30.286	c-0.011-4.958-0.022-10.085-0.022-15.114c0.055-3.918-0.523-7.665-1.672-10.834c-1.359-3.753-3.482-6.689-6.309-8.728	c-3.327-2.307-7.554-3.577-11.9-3.577c-6.861,0-13.117,3.015-16.733,8.066c-4.338,5.672-5.054,12.958-4.892,18.071	c-0.043,6.088-0.03,12.275-0.019,18.26c0.017,7.979,0.033,16.229-0.081,24.343L727.946,125.647z M663.347,48.145	c0.086,11.088,0.061,22.336,0.037,33.215c-0.032,14.487-0.065,29.468,0.162,44.192c1.886-0.049,3.808-0.049,5.666-0.049	c1.872,0,3.807,0,5.741-0.049c-0.05-6.885-0.05-13.891-0.05-20.666c0-6.804,0-13.838-0.05-20.788	c-0.503-5.534,0.77-11.467,3.493-16.273c1.432-2.527,3.21-4.681,5.284-6.404c2.219-1.842,4.728-3.144,7.457-3.869	c1.838-0.439,3.735-0.662,5.639-0.662c5.706,0,10.681,1.944,14.008,5.475c4.887,4.995,5.912,12.346,5.912,17.633	c0,14.931,0,30.369-0.1,45.455c2.265,0.118,4.566,0.13,6.793,0.142c1.479,0.008,3.009,0.016,4.515,0.055	c0.112-8.099,0.097-16.331,0.08-24.294c-0.012-5.984-0.024-12.172,0.019-18.258c-0.163-5.127,0.557-12.436,4.91-18.128	c3.633-5.075,9.917-8.104,16.809-8.104c4.365,0,8.61,1.276,11.954,3.594c2.843,2.05,4.977,5.001,6.343,8.772	c1.152,3.18,1.732,6.938,1.678,10.867c0,5.028,0.012,10.155,0.022,15.113c0.021,9.924,0.045,20.185-0.022,30.241	c2.503,0.128,4.53,0.188,6.376,0.188c1.879,0,3.591-0.062,5.229-0.186c-0.113-9.421-0.097-18.968-0.081-28.2	c0.013-6.928,0.025-14.092-0.018-21.157c-0.112-9.078-3.278-17.23-8.686-22.366c-4.868-4.677-11.907-7.252-19.819-7.252	c-3.104,0-6.211,0.391-9.236,1.163c-6.784,1.652-12.966,6.39-18.374,14.082l-0.043,0.061l-0.036-0.065	c-2.278-4.076-4.594-7.027-7.289-9.287c-5.6-4.95-12.516-5.989-17.332-5.989c-2.746,0-5.514,0.336-8.228,0.998	c-6.13,1.596-11.715,6.006-17.072,13.482l-0.082,0.114l-0.003-0.14c-0.05-2.15-0.05-4.311-0.05-6.401c0-2.074,0-4.219-0.049-6.353	c-0.962,0-1.938-0.006-2.883-0.013c-0.955-0.006-1.942-0.012-2.909-0.012C666.742,48.022,664.977,48.06,663.347,48.145z"/></g><g><path fill="#204095" d="M155.4,52.9c12.7-5.5,26.8-7.7,40.4-5.2c7.4,1.3,14.6,5.2,18.7,11.7c4.3,6.7,5.2,14.8,5.2,22.6	c0,14.4-0.1,28.8,0.1,43.2c-7.1,0.3-14.2,0-21.3,0.1c0-2.7,0-5.5,0.1-8.3c-4.5,4.6-10.2,8.3-16.6,9.2c-9.4,1.6-20.3,0.1-27.1-7.101	c-6.4-6.5-7.4-16.6-4.8-25c2.3-7.199,8.8-12.3,15.9-14.3c10.7-3.1,22.3-2.2,32.8,1.2c0.2-5.6-2.1-12-7.9-14	c-9.9-3.2-20.6-0.6-30.1,2.7C159.1,64.1,157.1,58.5,155.4,52.9 M175.2,93.2c-5.2,2.3-6.9,9.7-3.6,14.2c2.9,3.699,8,4.399,12.4,4	c5.1-0.301,10.5-2.4,13.3-7c1.9-3.101,1.7-6.9,1.7-10.4C191.6,91,182.7,89.7,175.2,93.2z"/><path fill="#204095" d="M175.201,126.827c-8.426,0.001-15.647-2.732-20.335-7.695c-3.015-3.062-5.016-7.146-5.787-11.812	c-0.71-4.299-0.373-8.876,0.977-13.234c1.093-3.422,3.225-6.575,6.164-9.121c2.752-2.384,6.13-4.186,9.768-5.21	c4.356-1.263,9.015-1.902,13.846-1.902c6.218,0,12.584,1.038,18.921,3.084c0.096-2.951-0.506-5.884-1.697-8.266	c-1.382-2.765-3.517-4.71-6.173-5.626c-2.986-0.965-6.252-1.455-9.707-1.455c-7.447,0-14.794,2.221-20.363,4.155l-0.046,0.016	l-0.014-0.046c-0.85-2.802-1.792-5.651-2.702-8.406c-0.909-2.751-1.849-5.596-2.698-8.394l-0.012-0.04l0.039-0.017	c9.41-4.075,19.446-6.229,29.024-6.229c3.862,0,7.698,0.345,11.402,1.026c8.104,1.423,14.931,5.695,18.731,11.721	c4.616,7.192,5.208,15.869,5.208,22.625c0,3.604-0.006,7.27-0.013,10.813c-0.019,10.614-0.038,21.591,0.112,32.386l0,0.046	l-0.045,0.002c-2.218,0.094-4.622,0.138-7.562,0.138c-1.742,0-3.512-0.016-5.224-0.03c-1.712-0.014-3.482-0.029-5.223-0.029	c-1.196,0-2.273,0.007-3.292,0.021l-0.047,0.001V125.3c0-2.666,0-5.421,0.096-8.181c-3.564,3.622-9.303,8.109-16.542,9.128	C179.742,126.632,177.452,126.827,175.201,126.827z M179.833,77.946c-4.822,0-9.472,0.639-13.82,1.898	c-3.625,1.021-6.991,2.816-9.732,5.19c-2.927,2.535-5.048,5.674-6.136,9.079c-1.345,4.345-1.681,8.906-0.973,13.19	c0.768,4.646,2.76,8.713,5.762,11.762c4.67,4.945,11.868,7.668,20.268,7.667c2.246,0,4.531-0.194,6.792-0.579	c7.271-1.023,13.027-5.561,16.574-9.188l0.085-0.086l-0.004,0.121c-0.1,2.782-0.1,5.562-0.1,8.25	c1.005-0.014,2.067-0.021,3.246-0.021c1.741,0,3.511,0.016,5.223,0.029c1.712,0.015,3.482,0.03,5.224,0.03	c2.919,0,5.309-0.043,7.513-0.136c-0.149-10.781-0.13-21.742-0.112-32.342c0.006-3.544,0.013-7.209,0.013-10.813	c0-6.743-0.59-15.403-5.193-22.575c-3.787-6.003-10.591-10.26-18.669-11.679c-3.699-0.68-7.529-1.025-11.386-1.025	c-9.553,0-19.562,2.145-28.949,6.205c0.846,2.784,1.781,5.615,2.685,8.352c0.905,2.74,1.841,5.574,2.688,8.362	c5.57-1.934,12.907-4.145,20.348-4.145c3.464,0,6.74,0.491,9.736,1.46c2.681,0.924,4.833,2.886,6.228,5.673	c1.206,2.412,1.812,5.386,1.705,8.373l-0.002,0.062l-0.059-0.019C192.438,78.989,186.061,77.946,179.833,77.946z M181.853,111.547	C181.852,111.547,181.852,111.547,181.853,111.547c-3.222,0-7.622-0.715-10.29-4.117c-1.618-2.207-2.12-5.262-1.343-8.173	c0.751-2.814,2.559-5.037,4.961-6.1c2.991-1.396,6.372-2.104,10.047-2.104c4.336,0,9.105,1.004,13.789,2.903l0.029,0.012V94	c0,0.303,0.001,0.608,0.003,0.915c0.016,3.277,0.033,6.666-1.71,9.51c-1.322,2.172-3.276,3.898-5.807,5.13	c-2.216,1.078-4.82,1.732-7.53,1.893C183.276,111.514,182.552,111.547,181.853,111.547z M185.229,91.147	c-3.662,0-7.029,0.705-10.008,2.096c-2.377,1.051-4.166,3.251-4.91,6.038c-0.77,2.884-0.273,5.908,1.327,8.092	c2.644,3.372,7.014,4.08,10.214,4.08c0,0,0,0,0.001,0c0.696,0,1.417-0.033,2.143-0.1c2.7-0.159,5.292-0.811,7.497-1.883	c2.514-1.224,4.455-2.938,5.768-5.095c1.729-2.821,1.712-6.196,1.696-9.461c-0.001-0.296-0.003-0.591-0.003-0.884	C194.289,92.145,189.544,91.147,185.229,91.147z"/></g><g><path fill="#71CC00" d="M468.3,103.5c7.3-2.4,15.7,2.9,16.8,10.4c1.5,7.1-4,14.5-11.1,15.399c-6.7,1.2-13.7-3.6-15-10.3	C457.4,112.4,461.8,105.2,468.3,103.5z"/><path fill="#71CC00" d="M471.913,129.531c-6.122,0-11.814-4.622-12.959-10.522c-1.592-6.567,2.77-13.837,9.334-15.554	c1.18-0.389,2.423-0.586,3.691-0.586c3.051,0,6.096,1.121,8.572,3.156c2.522,2.073,4.154,4.867,4.594,7.868	c0.702,3.321-0.115,6.942-2.242,9.933c-2.183,3.068-5.425,5.08-8.897,5.521C473.322,129.469,472.617,129.531,471.913,129.531z M471.979,102.963c-1.258,0-2.491,0.195-3.665,0.582c-6.52,1.705-10.85,8.922-9.269,15.444c1.137,5.859,6.788,10.448,12.867,10.448	c0.699,0,1.398-0.062,2.079-0.184c3.448-0.438,6.668-2.435,8.835-5.481c2.112-2.97,2.924-6.564,2.227-9.862	c-0.438-2.98-2.057-5.754-4.562-7.812C478.032,104.076,475.009,102.963,471.979,102.963z"/></g></svg>