<?xml version="1.0" encoding="UTF-8" standalone="no"?>
<!-- Created with Inkscape (http://www.inkscape.org/) -->

<svg
   xmlns:dc="http://purl.org/dc/elements/1.1/"
   xmlns:cc="http://creativecommons.org/ns#"
   xmlns:rdf="http://www.w3.org/1999/02/22-rdf-syntax-ns#"
   xmlns:svg="http://www.w3.org/2000/svg"
   xmlns="http://www.w3.org/2000/svg"
   xmlns:xlink="http://www.w3.org/1999/xlink"
   xmlns:sodipodi="http://sodipodi.sourceforge.net/DTD/sodipodi-0.dtd"
   xmlns:inkscape="http://www.inkscape.org/namespaces/inkscape"
   id="svg2"
   version="1.1"
   inkscape:version="0.48.3.1 r9886"
   width="707.5"
   height="747.5"
   xml:space="preserve"
   sodipodi:docname="MAZDA.svg"><metadata
     id="metadata8"><rdf:RDF><cc:Work
         rdf:about=""><dc:format>image/svg+xml</dc:format><dc:type
           rdf:resource="http://purl.org/dc/dcmitype/StillImage" /><dc:title></dc:title></cc:Work></rdf:RDF></metadata><defs
     id="defs6"><linearGradient
       id="linearGradient16011"><stop
         style="stop-color:#ffffff;stop-opacity:1;"
         offset="0"
         id="stop16013" /><stop
         style="stop-color:#919191;stop-opacity:1;"
         offset="1"
         id="stop16015" /></linearGradient><linearGradient
       id="linearGradient16003"><stop
         style="stop-color:#999999;stop-opacity:1;"
         offset="0"
         id="stop16005" /><stop
         style="stop-color:#d7d7d7;stop-opacity:1;"
         offset="1"
         id="stop16007" /></linearGradient><linearGradient
       inkscape:collect="always"
       xlink:href="#linearGradient16003"
       id="linearGradient16009"
       x1="483.47867"
       y1="445.6683"
       x2="478.43982"
       y2="240.38116"
       gradientUnits="userSpaceOnUse" /><radialGradient
       inkscape:collect="always"
       xlink:href="#linearGradient16011"
       id="radialGradient16017"
       cx="35.817532"
       cy="390.01233"
       fx="35.817532"
       fy="390.01233"
       r="35.058605"
       gradientTransform="matrix(2.8912705,2.1609521,-1.3344937,1.7855009,438.80675,-380.84379)"
       gradientUnits="userSpaceOnUse" /><radialGradient
       inkscape:collect="always"
       xlink:href="#linearGradient16011"
       id="radialGradient16075"
       gradientUnits="userSpaceOnUse"
       gradientTransform="matrix(3.6140881,-2.7011901,-1.6681171,-2.2318761,548.50844,1223.5547)"
       cx="35.817532"
       cy="390.01233"
       fx="35.817532"
       fy="390.01233"
       r="35.058605" /><linearGradient
       inkscape:collect="always"
       xlink:href="#linearGradient16003"
       id="linearGradient16078"
       gradientUnits="userSpaceOnUse"
       x1="483.47867"
       y1="445.6683"
       x2="478.43982"
       y2="240.38116"
       gradientTransform="matrix(1.25,0,0,-1.25,0,747.5)" /></defs><sodipodi:namedview
     pagecolor="#ffffff"
     bordercolor="#666666"
     borderopacity="1"
     objecttolerance="10"
     gridtolerance="10"
     guidetolerance="10"
     inkscape:pageopacity="0"
     inkscape:pageshadow="2"
     inkscape:window-width="640"
     inkscape:window-height="480"
     id="namedview4"
     showgrid="false"
     inkscape:zoom="0.42435952"
     inkscape:cx="121.24328"
     inkscape:cy="311.11774"
     inkscape:current-layer="svg2" /><g
     id="g16086"><path
       inkscape:connector-curvature="0"
       id="path14"
       style="fill:#43565c;fill-opacity:1;fill-rule:nonzero;stroke:none"
       d="m 291.0825,257.7425 c -20.83375,-28.20625 -45.6375,-44.02875 -71.17625,-56.74625 -4.1375,-2.06 -8.3,-4.04125 -12.475,-5.98375 12.0975,4.76125 23.7875,10.2 42.4725,20.8575 20.495,11.69 38.915,36.62625 50.55375,53.86625 1.44375,2.13875 2.91,4.28 4.38375,6.41375 -4.5325,-5.8825 -9.08125,-12.07375 -13.75875,-18.4075" /><path
       inkscape:connector-curvature="0"
       id="path220"
       style="fill:#657681;fill-opacity:1;fill-rule:evenodd;stroke:none"
       d="m 84.587875,303.40375 c 0.755375,6.36 1.80125,13.94375 3.24225,22.28 C 138.7725,496.05125 198.03875,508.70125 343.7,515.1475 c 113.15,5.00625 177.92125,-23.07375 216.0675,-58.23625 38.17875,-35.1925 49.91125,-77.67 56.595,-102.00125 4.8025,-17.48375 7.9825,-34.36625 9.38125,-51.50125 l 81.11,-0.005 c -3.2925,55.0275 -20.59125,108.28875 -57.14875,155.43 -45.2025,55.67375 -115.8775,81.28 -177.03375,92.9225 -61.18875,11.6475 -113.11875,9.37625 -121.0875,9.12375 -7.95625,-0.2525 -37.0525,0.15875 -72.9,-2.9475 C 242.825,554.82375 200.1025,548.19 164.9775,533.79375 149.5025,527.45125 136.13,520.9375 124.36575,514.09375 92.55225,494.92875 63.13475,467.0525 48.7525,446.59 30.69675,420.90125 9.021975,375.9025 2.8232375,303.41125 l 81.7646375,-0.007 z m 265.115875,0 c 2.48,3.435 4.42375,5.44 5.4775,5.71125 0.625,-0.11375 1.35,-0.62625 2.41875,-1.91125 0.83125,-0.99875 1.7375,-2.2975 2.6975,-3.795 l 70.83,-0.005 c -12.23,9.16125 -22.81875,19.64 -32.7825,32.1875 -16.2825,20.50375 -25.59625,40.67125 -28.5725,50.49625 -3.09875,10.2275 -8.9925,18.8475 -9.90875,20.12625 -1.0875,1.51875 -6.07875,2.8125 -7.75,-0.095 -1.72,-1.5375 -3.47375,-4.705 -5.0775,-8.85125 -2.095,-5.41 -4.71,-13.87625 -9.98875,-24.5225 -5.2525,-10.59125 -13.16125,-23.3725 -25.87,-37.475 -10.9725,-12.175 -22.385,-22.84875 -34.04375,-31.86125 l 72.57,-0.005" /><path
       inkscape:connector-curvature="0"
       id="path222"
       style="fill:#657681;fill-opacity:1;fill-rule:evenodd;stroke:none"
       d="m 2.8232375,303.40375 c -1.1167,-13.05625 -1.7309525,-27.0125 -1.7309525,-41.91 l 0,-0.465 0.00195,-0.45125 0.00195,-0.4525 0.00342,-0.45125 c 0.551265,-68.7425 32.11714,-131.075 55.11814,-157.9 C 59.379375,98.08625 70.982375,84.775 81.004375,75.34125 109.81,48.225 187.7125,-3.205 361.335,1.49875 460.07875,1.7275 520.21875,14.705 560.9075,32.3575 581.26,41.1875 596.71625,51.17625 609.685,61.28875 622.6,71.3625 633.0425,81.5625 643.4175,90.87 l 0.2775,0.25 0.1175,0.35375 c 0.0662,0.2 49.1525,59.25375 60.2825,142.83625 3.07875,23.1275 4.12375,46.26 2.75875,69.0875 l -81.11,0.006 c 1.42625,-17.49125 0.995,-35.25 -1.465,-54.18125 -1.72875,-9.8575 -3.5375,-17.74 -4.84375,-22.92625 0.28625,-0.19375 -1.7475,1.56875 -1.7475,1.56875 0,0 -14.4,8.92 -84.1475,29.93625 -46.37625,13.97375 -77.73375,27.11 -102.4125,45.6 l -70.83,0.002 c 0.1975,-0.30375 0.3975,-0.62125 0.6,-0.94625 2.38625,-3.8325 4.9375,-8.515 7.29375,-12.3525 5.20625,-8.47625 21.015,-30.99625 43.49,-52.0625 21.94,-20.565 74.6,-44.7875 113.51125,-59.24125 7.13125,-2.65 13.595,-5.24 19.395,-7.705 16.01125,-7.3825 31.86125,-16.75 46.0725,-26.12125 -0.93125,-3.6325 -1.985,-5.96375 -2.55125,-7.14125 0,0 -0.6825,-1.77125 -2.27,-4.755 -1.6175,-3.04125 -4.1825,-7.37 -7.97,-12.52125 C 570.285,110.2425 557.77625,96.59625 538.1075,83.36125 528.96875,77.05125 515.73375,70.055 498.40375,62.375 463.8975,48.2075 416.83625,37.71625 353.11625,37.71625 254.4075,37.71625 196.67875,62.61 163.6625,87.355 c -16.515,12.3775 -26.87625,24.73875 -33.1,33.98 -3.10375,4.60875 -5.18375,8.44875 -6.48687,11.1375 -1.27538,2.63125 -3.17675,6.40875 -3.17675,6.40875 -1.87738,5.25375 0.254,7.49375 4.0875,9.98625 7.75487,5.04125 19.37737,11.97 21.51112,13.2375 9.4225,4.6775 22.40625,10.52875 39.0075,16.69625 38.91,14.45375 91.57,38.67625 113.51,59.24125 22.50125,21.09 37.22375,44.035 42.4025,52.4675 2.34875,3.8225 5.11875,8.4075 7.74125,12.135 0.18375,0.2625 0.36625,0.5175 0.545,0.765 l -72.57,-0.006 c -15.4275,-11.9225 -31.28375,-20.94 -47.11,-26.6775 -28.03,-10.16125 -56.76125,-16.465 -69.375,-20.32 -6.0125,-1.8375 -13.25125,-4.1425 -19.18875,-6.05375 -4.12375,-1.32875 -7.63125,-2.47125 -9.65125,-3.13125 L 130.305,246.7025 c -13.63363,-4.755 -27.60675,-10.7575 -40.780625,-18.38375 -0.513125,-0.2975 -0.834875,-0.365 -1.00925,-0.37125 -0.150375,-0.006 -0.25775,0.0275 -0.377375,0.10625 -0.144125,0.0937 -0.3145,0.2575 -0.525875,0.535 -0.238875,0.315 -0.44975,0.65625 -0.65875,0.97 -0.76025,1.14125 -3.742125,25.44375 -4.245625,54.17 0.05962,-0.001 0.44875,7.635 1.880375,19.67875 l -81.7646375,-0.004" /><path
       id="path230"
       d="M 85.722125,322.97375 C 137.10875,497.23625 196.88625,510.2275 343.8525,516.73 570.675,526.7675 604.55125,404.1675 617.92875,355.46375 c 14.765,-53.75625 6.5,-124.04875 6.5,-124.04875 l 23.03625,78.56375 -45.4825,147.6775 -63.79625,47.26 L 470.2575,525.5875 361.57,537.99125 222.76,525.5875 144.19875,486.0125 104.62012,429.305 89.264125,375.54875 c 0,0 -6.4995,-38.39375 -3.542,-52.575 z"
       inkscape:connector-curvature="0"
       style="fill:#cccccc" /><path
       id="path642"
       d="m 620.31875,213.07 c 0,0 24.82375,102.79375 -14.79,184.925 C 565.915,480.1275 528.2275,530.3 352.15375,530.895 176.08,531.48875 139.51,458.2025 112.30913,407.43625 85.106875,356.66875 81.611875,283.9775 81.611875,283.9775 l -3.20125,85.3875 50.399375,94.7825 41.99125,38.42625 59.61125,25.9425 159.5,10.035 70.31125,-10.035 74.995,-18.88 71.49875,-59.68375 28.32,-102.20125 -2.90125,-113.3525 c -4.4,-17.40375 -8.34,-24.51375 -11.8175,-21.32875 z"
       inkscape:connector-curvature="0"
       style="fill:#666666" /><path
       id="path1070"
       d="m 50.399375,159.2325 16.339875,10.71125 c 0,0 -2.558625,118.92125 -3.069875,120.93375 -0.512125,2.0125 0,66.3175 0,66.3175 l 20.91075,81.60125 -9.176375,7.675 L 31.0235,329.12 35.628375,232.2025 44.80475,171.47875 50.399375,159.2325 z"
       inkscape:connector-curvature="0"
       style="fill:#808080" /><path
       id="path1222"
       d="m 625.1425,216.21 c 0,0 25.2,105.5 -12.9175,187.02875 C 574.1075,484.77 546.63375,525.9225 360.25125,533.2575 c -151.1825,3.79 -190.485,-35.57 -218.4275,-64.21375 -22.1025,-22.6575 -37.479,-60.56625 -37.479,-60.56625 0,0 -68.2315,-126.25 -61,-86.42375 9.475125,52.18375 24.600125,126.96 83.36775,173.895 35.99875,28.75 108.6025,46.47 108.6025,46.47 l 113.71375,8.99875 101.7475,-6.03375 160.93375,-62.0475 68.82125,-150.4575 C 677.325,262.95 670.585,205.10125 660.30875,159.3375 l -22.44625,19.3775 -12.72,37.495 z"
       inkscape:connector-curvature="0"
       style="fill:url(#linearGradient16078);fill-opacity:1" /><path
       id="path1650"
       d="m 57.1875,114.13375 c 0,0 -2.965875,31.725 4.128875,50.35125 -9.585875,15.3525 -22.2095,61.33875 -23.846625,98.2825 -1.63725,36.945 5.265125,133.35375 52.88575,188.38 -7.94875,15.04375 -12.685625,24.3075 -12.685625,24.3075 0,0 -74.9608875,-50.88375 -74.9608875,-213.77875 C 2.7089875,183.1125 45.03075,112.5175 67.477,93.89 c -6.857375,9.58625 -10.2895,20.24375 -10.2895,20.24375 z"
       inkscape:connector-curvature="0"
       style="fill:url(#radialGradient16075);fill-opacity:1" /><path
       inkscape:connector-curvature="0"
       id="path1960"
       style="fill:#121113;fill-opacity:1;fill-rule:nonzero;stroke:none"
       d="m 8.096675,292.95375 c 0,0 2.153813,78.93 31.653825,129.00125 29.5,50.07 56.11575,82.09125 125.97325,110.7225 69.8575,28.6325 170.2225,26.47875 186.11875,26.9825 15.89625,0.50375 207.1925,9.06875 296.9775,-101.51625 51.44125,-66.3325 64.81875,-144.8975 54.09875,-223.46125 -10.71875,-78.565 -50.5725,-124.46625 -50.5725,-124.46625 0,0 5.5425,14.24625 -1.00875,53.5975 9.7125,16.905 25.47,73.0225 22.4475,117.91625 -3.02375,44.89375 -11.2625,105.78875 -45.39625,153.46375 -21.9425,30.6475 -39.35,52.08625 -87.26625,74.53375 -47.915,22.44625 -121.29875,33.67 -187.63,32.6625 C 287.16125,541.38125 223.35,536.205 169.755,511.7425 116.15825,487.28 87.666,450.0825 67.235375,420.4425 46.80475,390.80375 62.5625,405.83 37.597125,381.23 12.631875,356.62875 8.096675,292.95375 8.096675,292.95375" /><path
       inkscape:connector-curvature="0"
       id="path1962"
       style="fill:#c9cdd1;fill-opacity:1;fill-rule:nonzero;stroke:none"
       d="m 58.746125,101.51 c 0,0 69.208875,-104.75375 302.765125,-98.4275 197.305,0.45375 239.77375,51.86125 281.1825,89.01375 0.89625,2.71 -16.40375,16.7375 -16.40375,16.7375 L 597.89,119.4975 516.54375,55.64 372.03625,24.1375 c 0,0 -135.99125,16.09875 -141.6425,15.4025 -5.65,-0.69625 -94.7375,49.07375 -94.7375,49.07375 L 119,139.68875 66.2275,99.8375 58.746125,101.51" /><path
       id="path1970"
       d="m 71.13775,93.5575 c 0,0 63.3385,-94.725 290.16975,-88.58 191.62375,0.44 238.17,55.3025 278.3875,91.38625 -12.83,10.9575 -26.3375,9.42375 -26.3375,9.42375 L 590.88125,118.04 511.87625,56.02125 371.53,25.42625 c 0,0 -132.075,15.63625 -137.56375,14.95875 C 228.47875,39.70875 141.955,88.04625 141.955,88.04625 L 96.05225,116.5725 68.332,99.87125 71.13775,93.5575 z"
       inkscape:connector-curvature="0"
       style="fill:#e6e6e6" /><path
       id="path2086"
       d="m 71.13775,104.08 c 0,0 76.45725,-85.57875 280.576,-85.57875 204.12,0 278.69875,69.10125 286.5275,79.53875 -8.86875,11.405 -24.88875,23.5775 -24.88875,23.5775 C 561.06,88.75875 511.9575,62.8025 466.04875,43.755 L 342.59625,25.51625 c 0,0 -145.9,33.67 -148.70625,33.67 -2.805,0 -78.56138,53.31125 -78.56138,53.31125 0,0 -6.19537,10.4225 -11.95562,9.1325 C 87.680625,108.91625 71.13775,104.08 71.13775,104.08 z"
       inkscape:connector-curvature="0"
       style="fill:#808080" /><path
       inkscape:connector-curvature="0"
       id="path2622"
       style="fill:#2a2e33;fill-opacity:1;fill-rule:nonzero;stroke:none"
       d="m 589.5225,137.4625 c 0,0 -38.28625,-100.9675 -236.1925,-100.9675 -197.905,0 -232.161,99.8375 -232.161,99.8375 l -9.462,-16.57625 33.66925,-46.0675 89.1975,-40.785 61.9525,-9.4725 59.1525,-2.925 75.82375,4.1225 59.705,12.72 82.40625,41.6925 44.63875,35.375 3.18875,3.57875 -31.91875,19.4675" /><path
       id="path2630"
       d="m 583.92625,153.1025 c 0,0 -19.1025,12.735 -58.0325,27.195 -38.92875,14.46125 -91.33125,38.60375 -113.03875,58.95 -22.3675,20.965 -38.1,43.38375 -43.25375,51.775 -5.15375,8.39 -11.24375,20.8275 -14.48125,19.61375 -0.40375,7.1775 -2.0225,50.04625 -2.0225,50.04625 l 2.4275,1.61875 20.4225,-35.28875 67.74375,-73.70875 30.83625,-32.86125 105.05375,-50.15375 4.345,-17.18625 z"
       inkscape:connector-curvature="0"
       style="fill:#b3b3b3" /><path
       inkscape:connector-curvature="0"
       id="path2848"
       style="fill:#121113;fill-opacity:1;fill-rule:nonzero;stroke:none"
       d="m 522.0175,182.86875 c -12.645,5.54375 -71.98,24.245 -101.36375,60.14 -10.01875,12.2375 -27.58625,44.465 -32.38375,52.26125 -4.7975,7.7975 -28.015,57.48875 -33.67,64.3425 -5.65375,6.855 30.1575,-28.9575 30.1575,-28.9575 0,0 97.15125,-86.36125 99.29375,-87.64625 2.1425,-1.285 36.6675,-32.385 36.6675,-32.385 0,0 11.2225,-32.10625 1.29875,-27.755" /><path
       id="path2856"
       d="m 645.97125,105.3275 c 0,0 -50.88875,44.895 -102.72125,68.1975 C 491.41875,196.83 426.7675,219.12125 388.0625,304.27125 358.63125,356.2025 434.01875,257.66 434.01875,257.66 L 473.685,229.215 565.69625,188.17625 612.73,158.01875 645.97125,105.3275 z"
       inkscape:connector-curvature="0"
       style="fill:#333333" /><path
       id="path3144"
       d="m 646.8275,104.47125 c 0,0 -36.20875,36.45875 -87.21375,65.19875 -16.8775,9.51 -61.755,29.16375 -82.41625,40.09625 -45.51875,24.08625 -69.0525,66.485 -76.42,75.1375 -7.3675,8.65375 -45.32,76.85125 -45.32,76.85125 l 16.3625,-3.5125 63.055,-83.27625 51.31875,-31.1 117.0275,-36.67 38.38125,-31.9575 c 0,0 9.29875,4.71625 12.08,-38.81 1.71375,-26.8175 -6.855,-31.9575 -6.855,-31.9575 z"
       inkscape:connector-curvature="0"
       style="fill:#e6e6e6" /><path
       id="path3344"
       d="M 560.74375,247.53125 483.235,272.4325 439.745,290.32 384.6825,331.35625 c 0,0 -12.9775,23.14875 -14.02875,28.05875 -1.0525,4.91 -9.11875,31.56625 -9.11875,31.56625 l -1.0525,8.76875 -2.80625,3.50625 -2.455,-15.7825 1.385,-21.53875 10.75,-19.89 12.41625,-21.3525 23.1475,-24.9025 31.915,-18.94 54.01125,-16.835 44.8925,-11.57375 27.005,-4.91 z"
       inkscape:connector-curvature="0"
       style="fill:#333333" /><path
       id="path3494"
       d="m 617.0675,226.91375 c 0,0 -14.255,8.79625 -83.7175,29.72625 -69.4625,20.93 -105.55625,40.0625 -135.89,78.26125 -16.38,20.6275 -25.78375,40.95125 -28.81625,50.96125 -3.0325,10.01 -8.82375,18.48375 -9.70625,19.7175 -0.91,1.27 -5.58875,1.8125 -5.64875,-0.9175 -0.0213,-0.94 4.01,2.55125 5.375,-7.4875 -0.0437,-11.64375 1.02375,-32.25375 7.8575,-44.37625 9.4025,-16.685 23.65875,-36.705 46.71125,-50.355 23.05375,-13.65 52.77875,-25.47875 72.19125,-32.45625 19.41375,-6.9775 67.945,-20.32375 88.875,-27.9075 20.92875,-7.58375 47.3175,-19.11125 47.3175,-19.11125 l -4.54875,3.945 z"
       inkscape:connector-curvature="0"
       style="fill:#999999" /><path
       id="path3726"
       d="m 357.1825,364.325 c 0,0 1.12625,31.9825 0,35.36 -1.125,3.3775 -6.71875,-1.69 -6.71875,-1.69 l -22.72875,-53.02 -31.98,-33.1075 -48.55125,-30.32875 -21.32,-8.40875 -34.2325,-10.66125 -14.0375,-4.22125 -2.815,-8.1275 71.56125,17.41625 53.5825,28.04 27.51125,25.825 20.47625,28.04125 9.2525,14.8825 z"
       inkscape:connector-curvature="0"
       style="fill:#b3b3b3" /><path
       id="path3796"
       d="m 127.19875,153.1025 c 0,0 19.1025,12.735 58.03125,27.195 38.93,14.46125 91.3325,38.60375 113.04,58.95 22.3675,20.965 37.01375,43.7875 42.16625,52.17875 5.15375,8.39125 12.33125,20.42375 15.56875,19.21 0.40375,7.1775 2.0225,50.04625 2.0225,50.04625 L 355.6,362.30125 335.17625,327.0125 267.43375,253.30375 236.59625,220.4425 131.5425,170.28875 127.19875,153.1025 z"
       inkscape:connector-curvature="0"
       style="fill:#cccccc" /><path
       id="path3912"
       d="m 348.6325,350.275 -27.76625,-34.6675 -50.42375,-43.27 -160.20225,-62.50125 -48.831125,-44.1425 c 0,0 -11.408625,-37.42375 -4.263125,-51.31875 -0.255875,-4.36 7.877,-27.0375 10.909125,-19.97625 8.2705,8.41125 18.228625,20.9 52.178745,43.06625 -2.92725,6.89 -0.19037,9.905 4.20213,12.76125 8.5865,5.58125 21.904,13.4725 21.904,13.4725 l 28.6,15.7725 55.68125,28.06875 29.4775,18.58375 28.83,30.365 21.5675,26.6325 23.325,30.365 23.8825,47.6575 -9.07125,-10.86875 z"
       inkscape:connector-curvature="0"
       style="fill:#e6e6e6" /><path
       id="path4180"
       clip-rule="evenodd"
       d="M 115.086,429.6825 C 102.7295,421.00875 87.209,413.82375 72.068375,404.12 59.8955,396.31875 50.3135,364.02375 45.549375,337.1625 28.5825,241.495 62.102,171.16875 62.102,171.16875 c 0,0 0.5875,-1.655 -0.0595,-2.24625 -2.434125,-2.22625 -0.6875,-6.23375 3.138625,-3.69125 42.799875,28.44 53.769125,28.68625 87.293875,44.3225 48.01125,22.39125 98.34375,22.1825 151.73875,75.9975 25.41625,25.61625 50.675,76.05375 53.605,75.425 -0.21,5.02375 -0.97,28.7425 -0.97,28.7425 0,0 1.355,-22.815 -5.91875,-34.26 -29.50125,-46.41375 -72.72,-65.7225 -72.72,-65.7225 0,0 -37.22625,-19.38375 -95.5675,-30.6075 -25.15125,-4.83875 -60.9755,-13.765 -92.201125,-31.8425 -2.5835,-1.495 -3.5425,0.3275 -4.441875,1.6775 -1.69875,2.55 -8.42575,66.84625 -1.451625,108.19875 6.473625,38.38625 15.349125,59.15625 30.538125,92.52 z"
       inkscape:connector-curvature="0"
       style="fill:#1a1a1a" /><path
       inkscape:connector-curvature="0"
       id="path4362"
       style="fill:#3c444b;fill-opacity:1;fill-rule:nonzero;stroke:none"
       d="m 68.401375,94.65125 c 0,0 18.753875,22.21125 50.787125,42.9225 C 105.7925,132.605 99.796375,131.83 87.69,122.59875 79.5625,116.4 68.401375,94.65125 68.401375,94.65125" /><path
       inkscape:connector-curvature="0"
       id="path4364"
       style="fill:#121113;fill-opacity:1;fill-rule:nonzero;stroke:none"
       d="m 642.245,93.67625 c 0,0 -14.88,16.0225 -24.85,23.48625 -9.97,7.46375 -26.6825,19.69375 -26.6825,19.69375 l 30.4425,-15.05 21.09,-28.13" /><path
       id="path4372"
       d="m 92.7105,114.61375 c 0,0 26.83787,-37.17625 71.7295,-58.9575 44.8925,-21.78125 74.83625,-26.43875 102.56,-30.52 26.625,-3.92 80.57625,-4.93875 84.8175,-5.01375 l 0.265,0 c 4.36625,0.0725 61.395,1.09 88.04875,5.01375 27.725,4.08125 57.89875,7.85 102.79125,29.63125 44.8925,21.78125 76.5075,60.92625 76.5075,60.92625 0,0 -11.2625,2.64625 -18.13875,8.28 -6.87625,5.63375 -9.46,3.09125 -9.46,3.09125 0,0 -0.6125,-15.55625 -21.505,-38.31375 -20.895,-22.7575 -53.18625,-36.2 -94.97375,-51.14875 -40.39625,-14.4525 -118.14,-14.935 -123.27,-14.95 l -0.265,0 c -4.9975,0.01625 -79.6625,0.50375 -120.03875,14.95 -41.7875,14.94875 -66.09625,32.1175 -86.99,54.875 -20.89325,22.7575 -25.24037,45.825 -25.24037,45.825 0,0 -6.83113,-8.695 -13.70713,-14.32875 -6.875875,-5.63375 -13.13075,-9.36 -13.13075,-9.36 z"
       inkscape:connector-curvature="0"
       style="fill:#1a1a1a" /><path
       inkscape:connector-curvature="0"
       id="path4848"
       style="fill:#3c444b;fill-opacity:1;fill-rule:evenodd;stroke:none"
       d="m 304.76375,276.20375 c -4.3775,-5.9925 -8.9275,-12.18375 -13.60625,-18.5175 -20.845,-28.22375 -45.66375,-44.05375 -71.20875,-56.775 -4.13875,-2.06 -8.30125,-4.04125 -12.4775,-5.985 12.01875,4.93375 23.705,10.37125 42.38625,21.02625 20.4725,11.6775 38.88125,36.595 50.5225,53.8375 1.4425,2.13875 2.90875,4.28 4.38375,6.41375 z M 62.577125,105.82 c 3.65675,4.04625 32.571375,28.445 80.164125,59.49125 48.63,31.72125 105.21125,38.61625 146.16,94.06125 31.89375,43.18375 35.1675,38.57125 63.89625,91.94875 -5.33625,-15.23125 -10.97125,-25.83625 -18.1925,-37.145 -7.22,-11.31 -20.29125,-28.77875 -31.9,-45.975 -11.60875,-17.195 -30.34375,-42.66375 -51.46125,-54.70875 -21.1175,-12.045 -33.36375,-17.46875 -47.16625,-22.9875 -13.80375,-5.5175 -36.29,-14.2525 -58.045,-26.665 -21.75413,-12.41375 -59.140875,-37.97625 -83.455375,-58.02" /><path
       id="path4856"
       d="m 359.15,361.52 c 21.51125,-46.57875 42.27375,-73.3275 85.38875,-104.52 24.95125,-18.05125 42.95625,-21.3775 71.43,-32.675 18.86,-7.485 30.19125,-9.885 48.98375,-17.5375 34.34375,-13.9875 49.645,-20.87 84.97375,-42.6625 2.455,8.325 -15.8125,41.01375 -28.85875,60.2 -36.7075,16.16875 -66.25625,25.1425 -110.22,35.43375 -26.37375,6.17375 -45.775,12.55 -72.575,23.3825 C 393.38,301.2875 380.38875,323.6325 359.15,361.52 z"
       inkscape:connector-curvature="0"
       style="fill:#1a1a1a" /><path
       id="path5044"
       d="m 347.155,359.415 c 6.96625,13.7675 10.17125,25.955 10.17125,38.23 0,12.27625 -4.56,10.17125 -8.76875,-0.70125 -4.20875,-10.8725 -10.52125,-34.02125 -36.12375,-62.43125 -25.6025,-28.40875 -53.66,-48.75125 -81.7175,-58.92375 -28.0575,-10.17 -56.8175,-16.48375 -69.44375,-20.3425 -12.625,-3.8575 -30.6625,-9.78 -30.6625,-9.78 l 31.715,8.0275 c 0,0 71.8975,16.13375 112.9325,40.33375 41.03375,24.20125 60.88625,43.82875 71.8975,65.5875 z"
       inkscape:connector-curvature="0"
       style="fill:#cccccc" /><path
       inkscape:connector-curvature="0"
       id="path5206"
       style="fill:#c9cdd1;fill-opacity:1;fill-rule:nonzero;stroke:none"
       d="m 57.140125,114.19125 c -1.565375,1.9025 -41.670875,51.4325 -54.4311375,147.485 0,-74.3525 38.0443875,-143.2925 61.1498875,-166.26 -3.233875,4.825 -6.742125,15.6025 -6.71875,18.775" /><path
       inkscape:connector-curvature="0"
       id="path5208"
       style="fill:#121113;fill-opacity:1;fill-rule:nonzero;stroke:none"
       d="m 119.39262,138.07875 c 0,0 -10.13724,-13.34625 -22.82187,-23.29375 -12.684,-9.94875 -22.3495,-14.00625 -22.3495,-14.00625 0,0 7.022875,8.6275 21.3115,19.89625 14.289,11.27 23.85987,17.40375 23.85987,17.40375" /><path
       inkscape:connector-curvature="0"
       id="path5210"
       style="fill:#c9cdd1;fill-opacity:1;fill-rule:nonzero;stroke:none"
       d="m 74.278375,100.8725 c 0,0 8.099125,2.49125 19.9345,12.0625 0,0 25.420375,-34.4875 63.024625,-53.63125 37.60375,-19.14125 74.75375,-31.07625 125.7475,-36.12 0,0 -62.92,2.13125 -126.83125,34.6325 -36.23575,18.42625 -62.2265,52.37125 -62.2265,52.37125 -6.334,-4.66875 -12.88375,-7.77375 -19.648875,-9.315" /><path
       id="path5218"
       d="m 650.4125,162.40625 c 0,0 6.91875,9.02625 15.505,43.70625 6.52625,26.36125 7.94375,52.2625 7.94375,52.2625 0,0 -5.54,-53.9025 -23.935,-94.2075 l 0.48625,-1.76125 z"
       inkscape:connector-curvature="0"
       style="fill:#e6e6e6" /><path
       id="path5384"
       d="m 352.09875,18.52 c 4.6225,-0.11375 61.58,0.805 88.30875,4.74 13.92,2.05 28.45375,4.0225 45.14375,8.215 16.725,4.20125 35.61125,10.62625 58.19875,21.58625 22.67375,11.00125 41.955,26.36375 55.54875,38.945 6.8125,6.305 12.4475,12.21875 16.38,16.55625 2.00125,2.2075 3.80375,4.305 5.09625,5.84 l -1.345,1.29125 c 0,0 -31.615,-39.145 -76.5075,-60.92625 C 498.03,32.98625 467.85625,29.2175 440.13125,25.13625 413.4775,21.2125 352.09875,18.52 352.09875,18.52 z"
       inkscape:connector-curvature="0"
       style="fill:#f2f2f2" /><path
       id="path5500"
       clip-rule="evenodd"
       d="m 186.235,493.02875 c 88.655,42.11625 266.65125,39.615 342.87875,0 -80.14375,48.3175 -255.2025,50.81875 -342.87875,0 z"
       inkscape:connector-curvature="0"
       style="fill:#e6e6e6" /><path
       id="path5538"
       d="m 615.92375,398.60625 30.735,0 c 0,0 -33.63125,87.59625 -127.75,118.08125 -39.38625,12.75875 -98.38125,13.455 -98.38125,13.455 107.63625,-6.31125 162.98375,-40.725 195.39625,-131.53625 z"
       inkscape:connector-curvature="0"
       style="fill:#cccccc" /><path
       inkscape:connector-curvature="0"
       id="path5648"
       style="fill:#ffffff;fill-opacity:1;fill-rule:nonzero;stroke:none"
       d="m 373.5925,332.91125 c 0,0 28.135,-59.10625 94.805,-92.5225 17.55625,-8.8 46.94375,-15.85375 46.94375,-15.85375 l -17.105,6.42875 c -19.14375,6.885 -34.3275,12.0225 -53.6975,26.03625 -33.265,24.06625 -53.22375,45.4875 -70.4875,75.41 l -0.45875,0.50125" /><path
       id="path5656"
       clip-rule="evenodd"
       d="m 363.67875,358.97875 c 0,0 12.9625,-57.57875 105.6975,-85.15125 -59.11375,22.35125 -85.43625,41.875 -105.6975,85.15125 z"
       inkscape:connector-curvature="0"
       style="fill:#b3b3b3" /><path
       id="path5700"
       d="m 354.0725,401.49625 c -0.695,-1.11875 -1.62375,-2.9075 -2.685,-5.6475 -2.12625,-5.49375 -4.79125,-14.08375 -10.15125,-24.8925 -5.4175,-10.92625 -13.54875,-24.04875 -26.54875,-38.475 -10.8,-11.98375 -22.05375,-22.57 -33.585,-31.5925 35.79875,22.0325 53.375,40.19375 63.345,59.89625 6.80125,13.44 9.845,25.15875 9.845,36.86 0,1.63125 -0.0875,2.9 -0.22,3.85125 z"
       inkscape:connector-curvature="0"
       style="fill:#e6e6e6" /><path
       id="path5874"
       d="m 589.625,137.9225 2.15125,6.4 c 0,0 10.7025,-5.905 29.9575,-20.745 19.255,-14.84125 25.2125,-19.25625 25.2125,-19.25625 0,0 5.52,4.25 24.99375,36.02875 0,0 -6.07,-18.705 -28.13875,-46.4 L 621.4025,121.59125 589.625,137.9225 z"
       inkscape:connector-curvature="0"
       style="fill:#ececec" /><path
       id="path5920"
       d="M 286.75625,256.52875 C 255.745,223.1625 233.87625,215.59 194.1675,201.3775 156.035,187.73 140.315,166.28375 137.3325,161.75875 c 1.775,1.17375 3.57875,2.35875 5.40875,3.5525 47.78625,31.17125 103.25,38.37 144.015,91.2175 z"
       inkscape:connector-curvature="0"
       style="fill:#666666" /><path
       inkscape:connector-curvature="0"
       id="path5946"
       style="fill:#0080c5;fill-opacity:1;fill-rule:nonzero;stroke:none"
       d="m 467.3425,720.99362 35.96875,0 c 0,0 15.71875,-0.10687 15.71875,-24.79199 0,-25.16701 -15.71875,-25.20413 -15.71875,-25.20413 l -35.96875,0 0,49.99612 z M 242.9675,704.1675 c -3.82625,0 -6.92875,3.54437 -6.92875,7.917 0,4.373 3.1025,7.9175 6.92875,7.9175 l 41.9425,-0.008 0,-15.82075 -41.9425,-0.006 z m 341.34875,0.001 c -3.82625,0 -6.92875,3.54438 -6.92875,7.91737 0,4.37263 3.1025,7.9175 6.92875,7.9175 l 41.9425,-0.008 0,-15.82088 -41.9425,-0.006 z M 569.67,683.72362 l 57.1975,5e-4 c 0.009,-5.57324 -0.37625,-14.39699 -13.44125,-14.40337 -13.495,-0.007 -58.6675,0 -58.6675,0 l 0,-25.12838 c 0,0 43.61375,0.0127 71.5,0.006 17.4125,-0.004 31.17375,7.09575 31.17625,27.89987 l -0.0137,75.30422 -87.56,0 0.99875,0.0654 c -11.595,0 -21.345,-10.20752 -24.08125,-24.00777 -7.79625,23.93941 -26.6475,23.93062 -41.23,23.894 l -70.4875,0.001 0,-80.84809 -99.18375,80.8935 -107.36375,0 0.9975,0.0654 c -9.63,0 -17.98875,-7.042 -22.11125,-17.33544 l -0.0163,17.27001 -30.63625,0 0,-66.43113 c 0,0 -0.0712,-8.84813 -9.4975,-8.86912 l -22.6475,0 0,75.30025 -30.30712,0 0,-75.30025 -31.780255,0 0,75.30025 -31.4155,0 0.04975,-103.21001 127.881875,-0.003 c 14.11375,0 28.40125,9.26762 28.40125,27.91313 l -0.0113,28.85537 c 4.1275,-10.25825 12.46125,-17.2705 22.07125,-17.2705 l -1.17125,0.0366 57.19875,5e-4 c 0.007,-5.57375 -0.3775,-14.397 -13.4425,-14.40375 -13.495,-0.006 -58.66625,0 -58.66625,0 l 0,-25.128 c 0,0 43.6125,0.0127 71.49875,0.006 17.4125,-0.004 31.175,7.09575 31.17625,27.89988 l -0.009,51.79199 100.15375,-79.69775 18.83,0 70.73125,0.001 c 18.61125,0 44.605,5e-4 44.605,51.45213 l -0.0113,1.85162 C 554.865,689.15475 562.355,683.687 570.84125,683.687 l -1.17125,0.0366 z m -242.6075,-39.53275 71.48875,0 -31.65625,27.90976 -39.8525,0 0.02,-27.90976 z m 98.71375,103.13042 -71.48875,0 31.6575,-27.90967 39.85125,0 -0.02,27.90967" /><path
       id="path22"
       clip-rule="evenodd"
       d="m 188.94125,260.34875 c 0,0 6.4075,1.4 8.45625,1.88 23.46,5.35 42.75375,11.765 56.59875,17.055 11.83875,5.365 25.11375,12.3925 39.52625,21.5975 59.125,37.765 59.44875,69.27 59.44875,69.27 0,0 -0.84125,-21.6875 -36.92125,-51.83375 -36.35875,-30.38 -98.15,-49.63625 -116.4225,-54.8725 -3.35,-0.96 -10.68625,-3.09625 -10.68625,-3.09625 z"
       inkscape:connector-curvature="0"
       style="fill:#808080" /></g></svg>