<?xml version="1.0" encoding="iso-8859-1"?>
<!-- Generator: Adobe Illustrator 13.0.0, SVG Export Plug-In . SVG Version: 6.00 Build 14948)  -->
<!DOCTYPE svg PUBLIC "-//W3C//DTD SVG 1.1//EN" "http://www.w3.org/Graphics/SVG/1.1/DTD/svg11.dtd">
<svg version="1.1" id="Layer_1" xmlns="http://www.w3.org/2000/svg" xmlns:xlink="http://www.w3.org/1999/xlink" x="0px" y="0px"
	 width="300px" height="180px" viewBox="0 0 300 180" style="enable-background:new 0 0 300 180;" xml:space="preserve">
<g>
	<polyline style="fill:#FCE500;" points="297.771,141.912 20.529,178.418 2.229,39.434 279.474,2.932 297.771,141.912 	"/>
</g>
<polyline points="271.36,13.509 228.165,19.194 223.622,56.906 223.242,58.363 224.07,57.241 231.736,48.841 234.126,51.033 
	225.914,59.964 224.703,60.625 246.824,57.714 246.346,62.294 230.733,64.346 228.83,64.6 230.925,64.835 238.033,67.432 
	236.773,70.801 223.041,65.68 222.376,65.057 222.534,65.951 221.498,74.591 217.313,75.142 218.039,69.166 218.494,67.373 
	217.317,69.272 212.584,74.406 210.188,72.213 215.124,66.891 216.411,66.234 184.011,70.5 184.486,65.923 212.405,62.246 
	214.243,62.01 212.48,61.743 199.712,56.981 200.967,53.612 218.453,60.132 219.302,60.754 219.192,59.755 224.084,19.734 
	12.808,47.551 28.644,167.837 287.198,133.799 271.36,13.509 "/>
<polygon style="fill:none;stroke:#231F20;stroke-width:0.1051;stroke-miterlimit:3.864;" points="271.36,13.509 228.165,19.194 
	223.622,56.906 223.242,58.363 224.07,57.241 231.736,48.841 234.126,51.033 225.914,59.964 224.703,60.625 246.824,57.714 
	246.346,62.294 230.733,64.346 228.83,64.6 230.925,64.835 238.033,67.432 236.773,70.801 223.041,65.68 222.376,65.057 
	222.534,65.951 221.498,74.591 217.313,75.142 218.039,69.166 218.494,67.373 217.317,69.272 212.584,74.406 210.188,72.213 
	215.124,66.891 216.411,66.234 184.011,70.5 184.486,65.923 212.405,62.246 214.243,62.01 212.48,61.743 199.712,56.981 
	200.967,53.612 218.453,60.132 219.302,60.754 219.192,59.755 224.084,19.734 12.808,47.551 28.644,167.837 287.198,133.799 "/>
<polyline style="fill:#FCE500;" points="228.277,18.236 224.2,18.777 224.084,19.734 228.165,19.194 228.277,18.236 "/>
<polyline style="fill:#FCE500;" points="219.302,60.754 218.453,60.132 200.967,53.612 199.712,56.981 212.48,61.743 214.243,62.01 
	212.405,62.246 184.486,65.923 184.011,70.5 216.411,66.234 215.124,66.891 210.188,72.213 212.584,74.406 217.317,69.272 
	218.494,67.373 218.039,69.166 217.313,75.142 221.498,74.591 222.534,65.951 222.376,65.057 223.041,65.68 236.773,70.801 
	238.033,67.432 230.925,64.835 228.83,64.6 230.733,64.346 246.346,62.294 246.824,57.714 224.703,60.625 225.914,59.964 
	234.126,51.033 231.736,48.841 224.07,57.241 223.242,58.363 223.622,56.906 228.165,19.194 224.084,19.734 219.192,59.755 
	219.302,60.754 "/>
<path style="fill:#FFFFFF;" d="M186.518,86.023c-1.392,0.188-2.899,1.443-3.591,3.095c-1.351,3.192-2.993,13.118-1.988,20.732
	c0.4,3.035,1.653,5.196,3.564,4.942c5.895-0.776,7.956-12.968,6.517-23.885C190.719,88.623,189.056,85.688,186.518,86.023
	 M251.127,82.801c0.496-0.961,3.449-3.027,6.749-3.455c3.309-0.441,5.808,2.049,5.391,4.704c-0.919,5.812-1.98,15.321-1.077,22.19
	c0.935,7.087,4.885,10.234,9.971,9.563c2.319-0.307,4.257-1.136,5.695-2.244c3.056-2.336,4.257-0.738,1.782,1.779
	c-2.397,2.432-5.332,4.057-8.874,4.519c-9.573,1.262-16.527-4.092-17.937-14.809c-0.345-2.585-0.76-5.147-0.941-6.551
	c-0.122-0.893-0.335-0.957-0.786-0.153c-1.272,2.241-2.829,5.62-3.32,8.12c-0.63,3.206-2.515,6.131-4.328,6.366
	c-1.033,0.141-2.517-0.678-3.636-1.44c-1.104-0.741-2.521-1.651-2.713-3.14c-0.113-0.838-0.276-1.844-0.332-2.727
	c-0.048-0.772-0.314-1.057-0.804-0.191c-1.574,2.792-4.655,8.384-10.231,9.119c-4.792,0.629-10.043-1.146-11.244-5.64
	c-0.238-0.893-0.509-0.801-0.848-0.154c-1.933,3.729-6.551,9.222-10.99,9.808c-3.702,0.484-6.462-1.226-8.688-2.836
	c-0.322-0.229-0.572-0.24-0.852,0.071c-1.823,2.021-4.854,5.056-8.535,5.542c-7.029,0.923-10.117-4.204-10.778-5.488
	c-0.175-0.331-0.485-0.258-0.746,0c-1.58,1.602-9.942,9.726-21.249,11.218c-12.811,1.683-23.333-5.572-25.225-19.911
	c-0.865-6.593,0.392-13.841,0.392-13.841s-6.234,4.622-13.454,5.576c-6.273,0.831-11.415-3.982-12.315-10.827
	c-0.879-6.657,3.703-16.765,5.909-19.224c1.577-1.755,5.504-3.236,8.673-3.657c2.28-0.297,3.7-0.103,4.933,1.218
	c1.131,1.207,2.076,2.959,2.399,5.422c0.656,4.946-1.258,8.617-3.735,8.945c-1.771,0.236-3.033-1.084-3.347-3.493
	c-0.159-1.204,0.08-2.497,0.241-3.15c0.07-0.277,0.255-0.582,0.642-0.636c0.542-0.068,1.387-0.465,1.232-1.652
	c-0.162-1.201-0.771-2.419-2.672-2.159c-4.372,0.571-7.196,10.094-6.187,17.719c0.646,4.919,4.334,6.894,9.15,6.257
	c4.5-0.595,5.268-3.076,5.405-3.992c0.14-0.92,0.676-1.249,1.499-1.361c0.826-0.106,2.389,0.01,2.389,0.01
	c2.448-13.73,10.498-27.054,12.434-28.85c1.45-1.357,7.56-4.446,14.163-5.315c7.716-1.016,15.954,2.887,17.377,13.669
	c1.419,10.786-2.87,21.15-9.852,22.066c-5.315,0.698-8.284-1.224-8.758-4.779c-0.581-4.46,1.232-11.421,1.889-13.662
	c0.127-0.438,0.527-0.899,1.226-0.995c1.358-0.182,3.769-0.723,3.447-3.103c-0.342-2.668-2.107-5.282-4.508-4.96
	c-2.032,0.267-3.537,1.17-4.858,2.897c-5.729,7.467-12.297,25.47-10.308,40.585c0.939,7.137,6.528,12.414,15.029,11.295
	c6.451-0.854,13.847-4.929,15.904-8.477c1.049-1.812,1.616-4.474,1.924-7.993c0.451-5.347,1.945-13.912,3.612-15.557
	c1.819-1.803,8.514-5.579,12.081-7.204c2.542-1.163,5.169-1.399,7.063-0.363c2.705,1.478,3.13,4.642,3.467,8.261
	c0.31,3.335,0.238,7.377,0.238,7.377s2.015-0.713,1.57,1.731c-0.36,1.951-1.136,9.301-0.65,12.992
	c0.481,3.673,1.348,5.356,3.134,5.124c4.56-0.605,8.397-11.104,9.91-24.129c0.061-0.595-0.948-1.816,0.745-2.685
	c1.557-0.797,4.088-1.529,6.173-1.803c1.719-0.226,3.214-0.144,3.344,0.872c0.15,1.143-0.623,1.693-0.866,2.794
	c-0.65,2.943-1.45,10.731-0.821,15.544c0.516,3.93,1.658,5.725,3.947,5.421c5.959-0.786,9.01-14.853,10.345-20.325
	c0.26-1.057,0.735-1.574,1.781-2.169c1.421-0.79,5.687-2.603,7.102-0.93c0.674,0.78,0.791,1.7,0.452,3.551
	c-0.411,2.339-0.168,5.491,0.081,6.923c0.24,1.399,0.462,1.501,1.082,0.39c0.632-1.111,2.175-5.381,3.194-8.655
	C250.461,85.729,250.617,83.769,251.127,82.801z"/>
<path style="fill:#FFFFFF;" d="M31.669,139.429c0.303,0.448,0.862,0.664,1.43,0.582c1.969-0.253,6.153-10.129,10.638-31.087
	c3.419-15.972,4.49-28.754,4.49-28.754s-0.343-0.465-0.456-1.296c-0.207-1.583,0.375-3.964,2.12-5.117
	c1.958-1.276,7.156-3.664,8.957-3.896c2.704-0.356,4.332,1.245,4.907,4.491c0.963,5.398,2.035,17.244,2.36,23.975
	c0.403,8.463,1.069,13.468,1.556,16.423c0.115,0.705,0.515,1.108,1.167,0.216c2.339-3.179,4.71-9.134,6.728-16.397
	C79.5,84.374,80.53,74.701,80.53,74.701s-0.959-4.417,1.423-6.964c1.579-1.69,6.321-4.594,9.449-5.001
	c2.333-0.308,3.773,1.526,4.178,3.979c0.89,5.384,1.161,15.003,1.44,30.703c0.281,15.9,0.144,22.751,1.698,26.614
	c0.694,1.716,2.821,1.815,2.306,3.303c-0.701,2.012-0.749,3.637-3.282,3.972c-3.997,0.523-10.043-1.258-11.36-9.334
	c-1.541-9.466-1.726-18.992-1.881-26.309c-0.024-1.101-0.503-1.474-0.927,0.126c-1.289,4.865-3.83,14.479-7.437,22.822
	c-2.869,6.638-7.791,11.36-10.136,11.668c-1.01,0.127-2.376-0.775-4.054-1.922c-1.986-1.361-3.331-2.278-3.454-3.811
	c-0.507-6.376-1.587-16.303-2.63-24.744c-0.197-1.58-0.722-1.577-1.19,0.157c-1.51,5.603-3.823,14.479-6.513,22.597
	c-2.701,8.109-7.775,20.872-12.615,21.508c-3.448,0.458-4.618-1.891-4.856-3.677C30.515,139.063,31.368,138.984,31.669,139.429"/>
</svg>
