<?xml version="1.0" encoding="utf-8"?>
<!-- Generator: Adobe Illustrator 19.2.1, SVG Export Plug-In . SVG Version: 6.00 Build 0)  -->
<svg version="1.1" id="Layer_1" xmlns="http://www.w3.org/2000/svg" xmlns:xlink="http://www.w3.org/1999/xlink" x="0px" y="0px"
	 viewBox="0 0 1020.2 254.6" style="enable-background:new 0 0 1020.2 254.6;" xml:space="preserve">
<style type="text/css">
	.st0{fill:#389EBB;}
	.st1{fill:#2E879F;}
	.st2{fill:#83B040;}
	.st3{fill:#97C93F;}
	.st4{fill:#E6C71F;}
	.st5{fill:#E4B723;}
	.st6{fill:#C23D33;}
	.st7{fill:#EF3B2C;}
	.st8{fill:#2D2E2D;}
</style>
<g>
	<g>
		<g>
			<path class="st0" d="M87.5,98.5V73.4c0-0.1,0-0.7,0-0.8c0-1.1-0.2-2-0.5-2.9c-0.1-0.4-0.3-0.8-0.5-1.2
				c-4.7-11.2-13.7-20.1-25-24.6c-0.3-0.2-1.8-0.7-3.1-0.7c-1.5,0-2.8,0.6-3.1,0.7c-5.8,2.3-10.9,5.8-15.2,10.1l46.6,46.6
				C87.2,100,87.5,99.3,87.5,98.5z"/>
			<path class="st1" d="M30,69.1c-0.2,0.4-0.8,2.2-0.8,3.3c0,1.3,0.6,2.9,0.8,3.3c4.6,11.3,13.6,20.3,24.9,24.9
				c0.2,0.1,0.5,0.2,0.7,0.3c0.9,0.3,1.8,0.6,2.9,0.6h1.2h24.9c0.8,0,1.5-0.3,2-0.8L40.1,53.9C35.8,58.2,32.4,63.3,30,69.1z"/>
		</g>
		<g>
			<path class="st2" d="M98.1,101.4h25.1c0.1,0,0.7,0,0.8,0c1.1,0,2-0.2,2.9-0.5c0.4-0.1,0.8-0.3,1.2-0.5
				c11.2-4.7,20.1-13.7,24.6-25c0.2-0.3,0.7-1.8,0.7-3.1c0-1.5-0.6-2.8-0.7-3.1c-2.3-5.8-5.8-10.9-10.1-15.2l-46.6,46.6
				C96.6,101.1,97.3,101.4,98.1,101.4z"/>
			<path class="st3" d="M127.6,43.9c-0.4-0.2-2.2-0.8-3.3-0.8c-1.3,0-2.9,0.6-3.3,0.8c-11.3,4.6-20.3,13.6-24.9,24.9
				c-0.1,0.2-0.2,0.5-0.3,0.7c-0.3,0.9-0.6,1.8-0.6,2.9v1.2v24.9c0,0.8,0.3,1.5,0.8,2l46.6-46.6C138.4,49.6,133.3,46.2,127.6,43.9z"
				/>
		</g>
		<g>
			<path class="st4" d="M84.7,109.1H59.5c-0.1,0-0.7,0-0.8,0c-1.1,0-2,0.2-2.9,0.5c-0.4,0.1-0.8,0.3-1.2,0.5
				c-11.2,4.7-20.1,13.7-24.6,25c-0.2,0.3-0.7,1.8-0.7,3.1c0,1.5,0.5,2.8,0.7,3.1c2.3,5.8,5.8,10.9,10.1,15.2l46.6-46.6
				C86.2,109.4,85.5,109.1,84.7,109.1z"/>
			<path class="st5" d="M55.2,166.6c0.4,0.2,2.2,0.8,3.3,0.8c1.3,0,2.9-0.6,3.3-0.8c11.3-4.6,20.2-13.6,24.9-24.9
				c0.1-0.2,0.2-0.5,0.3-0.7c0.3-0.9,0.6-1.8,0.6-2.9v-1.2V112c0-0.8-0.3-1.5-0.8-2l-46.6,46.6C44.4,160.8,49.5,164.3,55.2,166.6z"
				/>
		</g>
		<g>
			<path class="st6" d="M95.3,112v25.1c0,0.1,0,0.7,0,0.8c0,1.1,0.2,2,0.5,2.9c0.1,0.4,0.3,0.8,0.5,1.2c4.7,11.2,13.7,20.1,25,24.6
				c0.3,0.2,1.8,0.7,3.1,0.7c1.5,0,2.8-0.6,3.1-0.7c5.8-2.3,10.9-5.8,15.2-10.1l-46.6-46.6C95.6,110.5,95.3,111.2,95.3,112z"/>
			<path class="st7" d="M152.8,141.4c0.2-0.4,0.8-2.2,0.8-3.3c0-1.3-0.6-2.9-0.8-3.3c-4.6-11.3-13.6-20.3-24.9-24.9
				c-0.2-0.1-0.5-0.2-0.7-0.3c-0.9-0.3-1.8-0.6-2.9-0.6h-1.2H98.1c-0.8,0-1.5,0.3-2,0.8l46.6,46.6
				C147,152.3,150.4,147.1,152.8,141.4z"/>
		</g>
	</g>
	<g>
		<path class="st8" d="M247.9,202.4c-3.2,0-6.1,0-9.3,0v-67.5c-0.7-11.6-11.6-17-22.4-16.8c-11.9,0.4-23.9,7.6-23.9,19.2v65h-9.5
			v-91.5h9.5v8.8c6.9-7.6,16.6-9.9,25.3-9.9c11.4,0,22.2,4.5,26.1,13.2c5-8.8,16.8-12.9,27.4-12.9c16.2,0.2,32.4,8.4,32.4,25.9v66.3
			h-9.5v-66.5c0-11.9-11.6-17.1-23.1-17.1c-11.2,0-22.4,5-23.1,16.2V202.4z"/>
		<path class="st8" d="M322.9,177c0,3,0.6,5.4,2.2,7.8c3.2,4.3,8.9,7.3,15.5,8.4c5,0.9,9.7,0.9,14.7,0c6.9-0.9,13.2-3.7,17.3-9.5
			l8,4.8c-5.4,8.8-14.5,12.5-24,14c-5.6,0.9-10.6,1.1-16.2,0.2c-9.5-1.5-18.1-5.8-22.9-12.3c-3-4.3-4.1-8.9-4.1-14.2v-41.4
			c0-12.3,9.3-19.9,21.4-23.3c8.8-2.4,18.3-2.4,27,0c24.2,7.3,28.3,39.5,5.8,51.4c-13,7.1-32.2,4.5-44.7,4.5V177z M322.9,159.3
			c8-0.4,27.8,1.7,40.3-4.3c15.8-7.5,12.9-29.8-3.7-34.5c-7.1-1.9-15.1-1.9-22.2,0c-8,2.2-14.3,7.1-14.3,14.3V159.3z"/>
		<path class="st8" d="M459.7,71.2c0,43.6,0,87.4,0,131.2h-8.6v-10.2c-7.4,10.6-26.1,14.2-39.9,10.4c-11.9-3.2-21.2-11-21.2-23.3
			v-41.2c0-27.8,45.1-34.5,60.4-16.4V71.2H459.7z M450.4,136.4c0-20.3-50.9-22.2-50.9,1.3v41.6h-0.2c0,7.3,6.3,12.1,14.5,14.3
			c3.4,0.9,7.3,1.3,11,1.3c11.7,0,25.5-5.6,25.5-19.8V136.4z"/>
		<path class="st8" d="M472.8,71.5h10.6v16.6h-10.6V71.5z M473.3,110.9h9.5v91.5h-9.5V110.9z"/>
		<path class="st8" d="M566.1,178.3c0,12.3-9.3,20.1-21.2,23.3v0.2c-8.8,2.2-18.4,2.2-27.2,0c-11.5-3.2-21.2-11-21.2-23.9v-42.7
			c0-12.7,9.9-20.3,21.2-23.5c4.3-1.1,8.9-1.9,13.6-1.9c4.5,0,9.1,0.7,13.6,1.9c11.9,3.4,21.2,11,21.2,23.5h-9.3
			c0-7.5-6.3-12.3-14.5-14.5c-3.4-0.9-7.3-1.5-11-1.5c-3.9,0-7.6,0.6-11.2,1.5c-6.9,1.9-14.4,6.3-14.4,14.7V178
			c0,8.4,7.3,12.9,14.4,14.9c6.9,1.9,15.3,1.9,22.2,0h0.2c8-2.2,14.4-7.1,14.4-14.5H566.1z"/>
		<path class="st8" d="M579.2,71.5h10.6v16.6h-10.6V71.5z M579.8,110.9h9.5v91.5h-9.5V110.9z"/>
		<path class="st8" d="M663.1,202.4v-66.7c0-11-12.7-17-25.3-17c-12.7,0-25.5,5.8-25.5,18.5v65.2h-9.5v-91.7h9.5v8.6
			c6.9-7.5,16.6-9.7,25.4-9.7c17.3-0.2,35,8,35,26.3v66.5H663.1z"/>
		<path class="st8" d="M690.9,176.8c0,3,0.6,5.4,2.2,7.8c3.2,4.3,8.9,7.3,15.5,8.4c5,0.9,9.7,0.9,14.7,0c6.9-0.9,13.2-3.7,17.3-9.5
			l8,4.8c-5.4,8.8-14.5,12.5-24,14c-5.6,0.9-10.6,1.1-16.2,0.2c-9.5-1.5-18.1-5.8-22.9-12.3c-3-4.3-4.1-8.9-4.1-14.2v-41.4
			c0-12.3,9.3-19.9,21.4-23.3c8.8-2.4,18.3-2.4,27,0c24.2,7.3,28.3,39.5,5.8,51.4c-13,7.1-32.2,4.5-44.7,4.5V176.8z M690.9,159.1
			c8-0.4,27.8,1.7,40.3-4.3c15.8-7.5,12.9-29.8-3.7-34.5c-7.1-1.9-15.1-1.9-22.2,0c-8,2.2-14.4,7.1-14.4,14.3V159.1z"/>
		<g>
			<path class="st8" d="M809.1,111.7c-4.1-1.2-8.6-1.9-13.6-1.9c-4.8,0-9.3,0.6-13.5,1.8c-13.8,3.7-22,12.8-22,24.5v40.6
				c0,13,10.2,22.8,26.6,25.6c3.1,0.5,6.1,0.7,9.1,0.7c5.5,0,10.7-0.8,15.7-2.4c12.6-4.3,19.5-12.8,19.5-23.9v-40.6
				C831,124.5,822.8,115.4,809.1,111.7z M816.8,136.2v40.6c0,6.5-6.9,9.5-9.9,10.5c-5.4,1.9-11.7,2.3-17.9,1.3
				c-6.8-1.2-14.7-5-14.7-11.8v-40.6c0-6.6,7.2-9.6,11.4-10.8c3.4-0.9,6.6-1.3,9.8-1.3c3.2,0,6.5,0.4,9.8,1.3
				C808.8,126.4,816.8,129.3,816.8,136.2z"/>
			<path class="st8" d="M876.1,109.6l-0.5,0c-8.3,0-15.5,2-21.1,5.9v-4.8h-14.4v91.6h14.4v-64c0-10.1,10.7-14.6,21.2-14.6
				c10.2,0,21.1,4.6,21.1,13.2v65.4h14.4v-65.2C911.2,118.1,893.6,109.6,876.1,109.6z"/>
			<path class="st8" d="M976.6,180.2c-3.1,4.3-7.9,6.9-14.6,7.8c-4.4,0.8-8.4,0.8-12.9,0c-5.6-1-10.3-3.5-12.7-6.7
				c-1.1-1.7-1.6-3.3-1.6-5.8v-6.1c1.5,0,3.2,0.1,4.8,0.2c3.1,0.1,6.4,0.2,9.8,0.2c7.8,0,17.8-0.6,25.9-5
				c10.6-5.6,16.4-16.3,15.3-27.9c-1.2-12.1-9.3-21.8-21.2-25.4c-8.7-2.4-18.2-2.4-26.8,0c-14.1,3.9-22.1,12.8-22.1,24.5v38.9
				c0,5.8,1.4,10.7,4.4,14.9c4.8,6.4,13.3,11,23.3,12.6c2.5,0.4,4.9,0.6,7.3,0.6c2.7,0,5.6-0.3,8.8-0.8c11.6-1.8,19.6-6.5,24.5-14.4
				l1.4-2.3l-12-7.3L976.6,180.2z M934.8,156.1V136c0-6.9,8-9.9,11.4-10.8c6.2-1.6,13.3-1.6,19.4,0c6.3,1.8,10.7,7,11.2,13.4
				c0.5,6-2.5,11.2-8.2,13.9c-8.8,4.2-21.7,3.9-30.2,3.8C937.2,156.1,935.9,156.1,934.8,156.1z"/>
		</g>
	</g>
</g>
</svg>
