<?xml version="1.0" encoding="utf-8"?><!-- Generator: Adobe Illustrator 16.0.0, SVG Export Plug-In . SVG Version: 6.00 Build 0) --><!DOCTYPE svg PUBLIC "-//W3C//DTD SVG 1.1//EN" "http://www.w3.org/Graphics/SVG/1.1/DTD/svg11.dtd"><svg version="1.1" id="svg8575" xmlns:svg="http://www.w3.org/2000/svg" xmlns:sodipodi="http://sodipodi.sourceforge.net/DTD/sodipodi-0.dtd" xmlns:rdf="http://www.w3.org/1999/02/22-rdf-syntax-ns#" xmlns:dc="http://purl.org/dc/elements/1.1/" xmlns:inkscape="http://www.inkscape.org/namespaces/inkscape" xmlns:cc="http://creativecommons.org/ns#" sodipodi:docname="meetup_logo.gif" inkscape:version="0.48.4 r9939" xmlns="http://www.w3.org/2000/svg" xmlns:xlink="http://www.w3.org/1999/xlink" x="0px" y="0px" width="483px" height="322px" viewBox="0 0 483 322" enable-background="new 0 0 483 322" xml:space="preserve"><sodipodi:namedview fit-margin-top="0" inkscape:zoom="1.0365043" pagecolor="#ffffff" objecttolerance="10" guidetolerance="10" id="namedview8577" gridtolerance="10" showgrid="false" borderopacity="1" inkscape:cx="518.05951" fit-margin-left="0" bordercolor="#666666" inkscape:cy="251.36435" inkscape:window-y="33" fit-margin-right="0" inkscape:window-width="1920" inkscape:window-height="998" inkscape:window-maximized="1" fit-margin-bottom="0" inkscape:pageshadow="2" inkscape:window-x="0" inkscape:current-layer="svg8575" inkscape:pageopacity="0"></sodipodi:namedview><g id="g9361" transform="translate(39.067803,161)"><rect id="rect8591" x="-36.839" y="-79.818" fill="#FFFFFF" width="476.178" height="206.708"/><g id="g8585" transform="translate(-39.567803,-161)"><path id="path8589" sodipodi:nodetypes="sscccsscccsscccsscssccccccccccssssssssssscsscccssssssssssssccsssssssssssscsscsccssssscccsssssssscssscssssssssssccssssssssscssssscsssssssssssscsssssscsssssssssscsssssssssssssssssssss" inkscape:connector-curvature="0" fill="#F00101" d="	M20.241,319.875c-6.447-2.479-13.92-9.561-17.278-16.375l-2.463-5V161V23.5l2.463-5C6.421,11.483,13.781,4.6,20.526,2.076	L26.075,0H242h215.925l5.729,2.143c6.885,2.577,14.468,9.714,17.659,16.623L483.5,23.5V161v137.5l-2.188,4.734	c-3.191,6.908-10.774,14.046-17.659,16.622L457.925,322l-216.213-0.053C27.221,321.896,25.458,321.88,20.241,319.875z M478,182.5	V86H242H6v96.5V279h236h236V182.5z M380.139,265c-1.921-1.426-5.278-19.799-6.666-36.477c-0.676-8.116-1.022-9.234-3.61-11.651	c-4.11-3.84-3.415-8.872,1.226-8.872c1.748,0,2.784-3.383,3.522-11.5c0.985-10.846,5.531-27.831,9.619-35.944	c4.933-9.79,17.604-20.556,24.193-20.556c2.16,0,7.962,1.887,15.077,4.903c1.1,0.466,3.263,1.356,4.807,1.977	c3.625,1.458,7.369,9.482,8.23,17.636c0.764,7.235-0.837,16.864-3.965,23.854c-4.83,10.792-25.338,29.104-35.515,31.712	L392,221.378l0.03,9.562c0.038,11.861,1.454,23.145,3.613,28.799c0.904,2.368,1.317,4.634,0.917,5.034	C395.748,265.584,381.197,265.785,380.139,265L380.139,265z M402.42,196.945c4.085-3.881,8.57-9.241,9.968-11.913	c3.078-5.888,4.79-15.661,3.968-22.657c-0.938-7.979-1.816-8.553-5.951-3.883c-6.833,7.716-10.938,16.749-14.07,30.957	c-2.793,12.671-3.077,14.552-2.203,14.552C394.606,204,398.336,200.825,402.42,196.945z M276.206,211.395	c-0.645-10.191-1.392-18.886-1.661-19.321s-3.977-1.108-8.239-1.495c-8.765-0.794-10.306-1.638-10.306-5.645	c0-4.483,3.211-6.07,10.729-5.3l6.271,0.643l-0.044-3.888c-0.024-2.139-0.474-7.264-0.999-11.389	c-3.847-30.209-4.564-51.643-1.959-58.496c0.8-2.104,1.6-2.504,5.01-2.504c3.92,0,13.14,3.812,14.484,5.988	c0.349,0.564,0.858,13.286,1.133,28.269c0.643,35.086,0.652,32.731-0.154,36.493c-0.62,2.888-0.454,3.25,1.487,3.25	c1.795,0,2.128-0.49,1.863-2.75c-0.272-2.334,0.082-2.797,2.349-3.059c2.116-0.245,4.031,0.988,9.249,5.957	c3.619,3.447,6.581,6.797,6.581,7.445c0,1.433-3.546,2.232-17.706,3.992l-4.207,0.523l0.498,18.822	c0.564,21.348,1.146,19.879-8.146,20.6l-5.062,0.393L276.206,211.395z M129.607,227.418c-0.334-0.869-0.617-2.332-0.631-3.25	c-0.013-0.917-1.176-4.368-2.583-7.668c-2.855-6.691-7.801-22.344-9.479-30c-1.882-8.582-4.074-15.672-4.664-15.082	c-0.312,0.311-0.932,9.457-1.379,20.324c-0.446,10.867-1.404,21.783-2.128,24.258l-1.316,4.5l-9.877,0.914l-9.877,0.913	l-2.215-2.778c-1.219-1.528-5.038-7.459-8.488-13.179s-6.399-10.272-6.555-10.118c-0.154,0.155,0.335,4.699,1.089,10.097	c0.755,5.398,1.148,10.396,0.875,11.108c-0.878,2.287-10.77,5.893-15.775,5.751c-4.617-0.132-5.602-2.049-7.082-13.796	c-2.478-19.661-2.751-25.385-2.024-42.324l0.718-16.73l4.407-1.179c7.09-1.896,14.971-1.533,17.135,0.79	c1.008,1.083,5.843,9.745,10.743,19.25l8.91,17.281l1.262-9.5c1.901-14.317,8.396-35.876,12.861-42.689	c1.669-2.548,1.828-2.578,10.275-1.929c10.078,0.775,11.586,1.774,13.61,9.021c4.516,16.164,6.054,22.652,10.603,44.729	c1.092,5.298,2.658,11.542,3.481,13.876c0.824,2.334,1.498,5.073,1.498,6.087s1.125,5.29,2.5,9.502	c2.527,7.743,3.042,10.278,1.842,9.079c-0.362-0.362-1.263-0.156-2.003,0.457c-1.068,0.888-11.603,3.675-14.482,3.832	C130.503,228.984,129.941,228.288,129.607,227.418L129.607,227.418z M169.691,226.902c-4.748-1.117-6.812-2.21-13.545-7.173	c-7.743-5.708-8.973-9.112-9.108-25.229c-0.138-16.32,0.478-22.222,3.225-30.914c2.519-7.969,8.004-14.689,17.101-20.949	c6.177-4.251,6.735-4.279,18.938-0.935c4.634,1.271,6.11,2.19,7.345,4.579c3.175,6.139,4.218,40.087,1.373,44.69	c-0.988,1.6-16.113,1.691-23.015,0.142c-2.147-0.483-4.151-0.63-4.454-0.328c-0.302,0.302-0.539,3.737-0.527,7.632	c0.026,8.401,2.167,13.882,7.016,17.962c2.956,2.487,3.825,2.72,7.893,2.113c2.514-0.375,5.726-1.363,7.139-2.195	c3.473-2.046,12.703-0.232,15.845,3.112l2.181,2.321l-5.297,2.011C192.078,227.432,177.879,228.83,169.691,226.902	L169.691,226.902z M176,170c0-5.5-0.398-10-0.884-10c-1.032,0-4.932,9.246-6.118,14.506c-0.718,3.182-0.553,3.732,1.342,4.496	C175.754,181.186,176,180.795,176,170z M233.5,225.318c-14.812-1.885-20.139-4.662-26.251-13.684	c-4.526-6.68-4.776-7.411-5.325-15.572c-0.473-7.041-0.159-10.161,1.765-17.562c5.748-22.104,7.703-26.021,18.718-37.488	c5.017-5.222,6.256-6.009,9.435-5.99c2.013,0.012,5.62,0.912,8.019,2c2.397,1.088,4.899,1.978,5.561,1.978	c0.662,0,2.247,0.973,3.523,2.162c2.249,2.096,2.299,2.501,1.62,13.229c-0.385,6.087-1.109,11.562-1.609,12.164	c-0.501,0.603-1.032,6.978-1.182,14.165l-0.272,13.07l-5.635,1.576c-4.975,1.393-6.495,1.413-12.984,0.176	c-8.537-1.626-9.185-1.234-8.552,5.172c0.51,5.154,5.839,13.804,9.752,15.827c5.547,2.868,16.857,1.007,19.634-3.23	c1.854-2.828,3.798-2.906,8.035-0.322c4.188,2.554,4.413,6.149,0.5,7.968C248.69,225.398,242.582,226.475,233.5,225.318	L233.5,225.318z M231.369,182.75c0.332-1.237,0.592-7.2,0.577-13.25c-0.025-10.541-0.092-10.88-1.588-8.118	c-1.922,3.548-7.358,19.087-7.358,21.033c0,1.666,1.496,2.397,5.133,2.506C230.055,184.979,230.93,184.393,231.369,182.75	L231.369,182.75z M325.347,223.53c-5.155-3.61-9.451-18.747-11.231-39.579c-0.978-11.448-0.835-16.979,0.495-19.131	c0.942-1.523,6.308-0.834,11.112,1.43c8.882,4.184,8.614,3.506,9.48,24.026c0.879,20.789,1.413,25.019,3.092,24.458	c2.215-0.738,10.354-13.84,11.587-18.652c0.706-2.756,1.14-9.742,1.018-16.4c-0.295-16.059,0.783-17.078,12.387-11.707	c9.253,4.283,9.321,4.416,7.917,15.536c-1.261,9.983-2.582,14.009-5.454,16.628c-0.989,0.9-2.835,3.601-4.104,6	c-1.269,2.398-2.907,4.361-3.643,4.361c-0.734,0-1.52,0.675-1.745,1.5c-0.364,1.334-0.292,1.334,0.651,0	c0.583-0.825,1.061-1.05,1.061-0.5c0,2.203-9.779,11.585-13.055,12.524C339.63,225.54,327.789,225.241,325.347,223.53	L325.347,223.53z"/><path id="path8587" sodipodi:nodetypes="cssssssssssscsscccssssssssssssccsssscssssssssscssssssscccsscssssscssscsscsssssssscscsssssssssssssscsccssssssssssscsssssscssssssssssscssssssssssscsssssssssss" inkscape:connector-curvature="0" fill="#030303" d="	M380.139,265c-1.873-1.391-5.273-20.122-6.714-36.988c-0.647-7.576-1.032-8.775-3.575-11.152	c-4.113-3.842-3.394-8.859,1.271-8.859c1.8,0,2.702-2.6,3.348-9.652c1.154-12.598,5.453-29.24,9.762-37.792	c4.933-9.79,17.604-20.556,24.193-20.556c2.16,0,7.962,1.887,15.077,4.903c1.1,0.466,3.263,1.356,4.807,1.977	c1.945,0.782,3.539,2.74,5.189,6.375c4.351,9.583,4.21,21.509-0.396,33.771c-4.072,10.839-25.272,30.295-36.008,33.046	L392,221.378l0.03,9.562c0.038,11.861,1.454,23.145,3.613,28.799c0.904,2.368,1.317,4.634,0.917,5.034	C395.748,265.584,381.197,265.785,380.139,265L380.139,265z M402.42,196.945c4.139-3.931,8.612-9.322,10.104-12.174	c3.11-5.947,4.668-15.086,3.82-22.415c-0.936-8.095-1.791-8.556-6.326-3.405c-6.943,7.886-10.567,16.4-14.491,34.049	c-0.917,4.125-1.892,8.287-2.165,9.25C392.437,205.507,394.967,204.025,402.42,196.945L402.42,196.945z M276.206,211.395	c-0.645-10.191-1.392-18.886-1.661-19.321s-3.977-1.108-8.239-1.495c-8.765-0.794-10.306-1.638-10.306-5.645	c0-4.483,3.211-6.07,10.729-5.3l6.271,0.643l-0.044-3.888c-0.024-2.139-0.474-7.264-0.999-11.389	c-3.847-30.209-4.564-51.643-1.959-58.496c0.8-2.104,1.6-2.504,5.01-2.504c3.925,0,13.14,3.812,14.488,5.994	c0.497,0.804,1.334,30.703,1.639,58.506c0.019,1.65-0.28,4.463-0.664,6.25c-0.62,2.888-0.454,3.25,1.487,3.25	c1.795,0,2.128-0.49,1.863-2.75c-0.273-2.339,0.08-2.797,2.367-3.061c2.154-0.248,4.037,0.986,9.464,6.203	c3.726,3.582,6.445,6.843,6.042,7.246c-1.521,1.521-8.364,3.332-12.694,3.359c-9.575,0.062-8.978-1.355-8.413,19.984	c0.562,21.289,1.143,19.828-8.148,20.549l-5.062,0.393L276.206,211.395z M129.051,224.25c-0.652-2.612-2.276-7.225-3.609-10.25	c-2.604-5.909-5.962-17.07-9.479-31.5c-1.206-4.95-2.55-9.657-2.985-10.46c-1.124-2.073-1.793,4.485-2.392,23.46	c-0.278,8.8-1.103,18.025-1.832,20.5l-1.327,4.5l-9.877,0.914l-9.877,0.913l-2.215-2.778c-1.219-1.528-5.038-7.459-8.488-13.179	s-6.396-10.276-6.548-10.124c-0.152,0.151,0.306,4.505,1.017,9.674c0.71,5.169,1.089,10.176,0.84,11.127	c-0.684,2.613-10.112,6.318-15.675,6.161c-4.62-0.132-5.603-2.047-7.073-13.796c-2.51-20.038-2.733-24.686-2.015-41.923	l0.714-17.136l4.399-1.177c7.084-1.895,14.965-1.53,17.128,0.792c1.008,1.083,5.843,9.745,10.743,19.25l8.91,17.281l1.262-9.5	c1.859-14.001,7.398-32.745,12.171-41.184l1.875-3.316l8.83,0.216c7.265,0.178,9.179,0.565,10.798,2.184	c2.509,2.509,7.247,20.448,14.217,53.822c0.829,3.974,2.167,9.093,2.974,11.377c0.806,2.283,1.465,4.981,1.465,5.995	s1.125,5.29,2.5,9.502c2.527,7.743,3.042,10.278,1.842,9.079c-0.362-0.362-1.263-0.156-2.003,0.457	c-1.066,0.885-11.589,3.672-14.471,3.832C130.522,228.984,129.703,226.862,129.051,224.25L129.051,224.25z M169.691,226.902	c-4.748-1.117-6.812-2.21-13.545-7.173c-7.69-5.669-8.985-9.176-9.134-24.729c-0.151-15.912,0.558-22.838,3.197-31.234	c2.46-7.82,8.363-15.125,16.905-20.916c5.157-3.496,5.618-3.617,10.886-2.853c9.398,1.364,14.049,3.231,15.632,6.274	c3.112,5.983,4.191,40.16,1.41,44.66c-0.992,1.605-17.475,1.665-22.994,0.082c-1.833-0.525-3.719-0.717-4.19-0.426	s-0.848,3.766-0.836,7.721c0.026,8.516,2.145,13.971,7.016,18.069c2.956,2.487,3.825,2.72,7.893,2.113	c2.514-0.375,5.726-1.363,7.139-2.195c3.473-2.045,12.703-0.232,15.845,3.112l2.181,2.321l-5.297,2.011	C192.078,227.432,177.879,228.83,169.691,226.902L169.691,226.902z M176.19,176.25c0.479-5.789-0.267-16.25-1.159-16.25	c-0.962,0-4.891,9.448-6.032,14.506c-0.717,3.182-0.553,3.732,1.342,4.496C174.706,180.763,175.862,180.219,176.19,176.25z M233.5,225.318c-14.814-1.886-20.139-4.661-26.251-13.686c-4.586-6.771-4.77-7.324-5.349-16.072	c-0.412-6.244-0.2-10.148,0.683-12.561c0.705-1.925,1.99-6.756,2.857-10.734c3.084-14.155,6.412-20.266,17.096-31.388	c4.89-5.09,6.135-5.875,9.305-5.855c2.013,0.012,5.62,0.912,8.019,2c2.397,1.088,4.899,1.978,5.562,1.978	c0.661,0,2.246,0.973,3.522,2.162c2.249,2.096,2.299,2.501,1.62,13.229c-0.385,6.087-1.109,11.562-1.609,12.164	c-0.501,0.603-1.032,6.978-1.182,14.165l-0.272,13.07l-5.635,1.576c-4.975,1.393-6.495,1.413-12.984,0.176	c-8.131-1.549-8.839-1.238-8.866,3.892c-0.021,3.991,3.55,11.063,7.66,15.174c2.873,2.872,4.096,3.392,7.992,3.392	c6.405,0,12.256-1.953,14.048-4.688c1.854-2.828,3.798-2.906,8.035-0.322c5.039,3.072,4.47,6.239-1.591,8.847	C247.658,225.493,241.865,226.383,233.5,225.318L233.5,225.318z M231.369,182.75c0.332-1.237,0.592-7.2,0.577-13.25	c-0.025-10.541-0.092-10.88-1.588-8.118c-1.922,3.548-7.358,19.087-7.358,21.033c0,1.666,1.496,2.397,5.133,2.506	C230.055,184.979,230.93,184.393,231.369,182.75L231.369,182.75z M325.358,223.538c-5.2-3.643-9.455-18.87-11.326-40.538	c-0.911-10.551-0.735-16.052,0.579-18.18c0.942-1.523,6.308-0.834,11.112,1.43c8.882,4.184,8.614,3.506,9.48,24.026	c0.879,20.789,1.413,25.019,3.092,24.458c2.214-0.737,10.354-13.838,11.586-18.647c0.676-2.638,1.157-9.022,1.071-14.19	c-0.087-5.168-0.159-10.419-0.16-11.668c-0.002-2.873,1.918-5.229,4.26-5.229c2.517,0,14.373,5.602,15.996,7.558	c1.093,1.317,1.121,3.308,0.155,10.953c-1.261,9.983-2.582,14.009-5.454,16.628c-0.989,0.9-2.836,3.601-4.104,6	c-1.269,2.398-2.907,4.361-3.643,4.361c-0.734,0-1.52,0.675-1.745,1.5c-0.364,1.334-0.292,1.334,0.651,0	c0.583-0.825,1.061-1.05,1.061-0.5c0,2.203-9.779,11.585-13.055,12.524C339.644,225.536,327.789,225.241,325.358,223.538	L325.358,223.538z"/></g></g></svg>