<?xml version="1.0" encoding="utf-8"?>
<!-- Generator: Adobe Illustrator 17.0.0, SVG Export Plug-In . SVG Version: 6.00 Build 0)  -->
<!DOCTYPE svg PUBLIC "-//W3C//DTD SVG 1.1//EN" "http://www.w3.org/Graphics/SVG/1.1/DTD/svg11.dtd">
<svg version="1.1" xmlns="http://www.w3.org/2000/svg" xmlns:xlink="http://www.w3.org/1999/xlink" x="0px" y="0px"
	 width="1133.76px" height="1224.48px" viewBox="0 0 1133.76 1224.48" enable-background="new 0 0 1133.76 1224.48"
	 xml:space="preserve">
<g id="_x2B_2.2_1_" enable-background="new    ">
	<g id="_x2B_2.2">
		<g>
			<path fill-rule="evenodd" clip-rule="evenodd" d="M202.8,168c2.73-6.06-3.381-10.49-8.4-10.32
				c-2.141,1.329-3.006,1.903-4.08,4.32C190.207,168.61,200.018,175.097,202.8,168z M201.84,197.04
				c1.388-1.461,3.222-2.308,4.08-4.32c1.876-4.688-4.58-9.323-9.12-9.12C190.885,188.347,193.041,197.207,201.84,197.04z
				 M179.28,260.88c2.752,0.023,3.803-0.514,5.52-1.2c3.786-6.083-1.12-12.081-7.92-11.76
				C168.963,253.363,175.793,257.266,179.28,260.88z M201.36,222c2.876,0.992,5.347-2.334,6.24-4.32
				c0.156-5.135-3.151-8.695-8.16-8.64c-0.88,0.32-1.76,0.64-2.64,0.96c-1.353,1.901-1.809,3.582-1.68,7.2
				C196.78,218.882,198.803,221.324,201.36,222z M174.72,210c4.054,1.862,8.739-2.076,7.92-6c-1.04-1.76-2.08-3.52-3.12-5.28
				c-1.595-0.459-3.154-0.779-5.52-0.72c-3.867,1.457-4.075,2.254-3.84,7.68C171.419,207.197,172.859,209.146,174.72,210z
				 M200.4,143.28c1.408-6.424-2.662-10.082-8.88-9.84c-1.04,0.56-2.08,1.12-3.12,1.68c-1.335,5.172,0.324,8.838,4.32,10.56
				C196.087,147.183,199.066,144.754,200.4,143.28z M180.96,273.36c-1.862,1.16-2.871,2.21-5.04,3.12
				c-1.352,5.561,3.421,8.901,7.2,10.8c6.417-0.464,5.941-5.919,4.56-10.8C185.408,275.307,183.891,273.555,180.96,273.36z
				 M180.96,235.44c1.421-1.495,2.434-2.453,3.6-4.32c-0.314-4.611-3.18-8.47-8.16-8.4c-3.081,1.71-5.029,2.4-5.04,7.2
				C173.628,232.992,175.336,235.576,180.96,235.44z M226.08,195.12c3.762,0.158,6.108-0.412,7.2-2.88
				c2.508-5.577-3.825-10.628-7.68-10.8c-1.596,1.001-3.5,2.078-4.32,3.84C219.007,189.919,224.232,192.879,226.08,195.12z
				 M222.24,168.24c1.874,0.854,5.053,0.444,6.96,0c2.885-4.637,1.596-8.862-2.16-11.76c-2-0.08-4-0.16-6-0.24
				C217.808,159.378,218.132,166.266,222.24,168.24z M234.72,218.4c4.157-6.733-3.083-11.214-8.88-11.28
				C218.72,213.659,226.067,222.784,234.72,218.4z M206.88,286.8c-6.908,3.779-3.127,13.289,5.04,13.2
				c1.07-0.959,3.081-2.187,3.6-3.6C217.434,291.187,211.71,286.666,206.88,286.8z M211.68,270.96c0.78-1.282,0.807-3.501,0.72-5.76
				c-2.258-2.353-3.978-5.065-8.64-5.04c-0.8,0.32-1.6,0.64-2.4,0.96c-2.649,1.521-2.119,8.226,0,9.84
				C205.054,273.773,208.105,272.25,211.68,270.96z M209.04,244.56c1.504-6.494-1.917-10.378-8.88-10.08
				c-4.096,3.608-4.345,9.826,1.2,12.24C204.278,247.843,207.496,246.288,209.04,244.56z M227.04,143.52
				c3.101-5.559,0.421-12.521-7.2-12.24c-0.56,0.16-1.12,0.32-1.68,0.48C213.976,138.343,217.865,146.398,227.04,143.52z
				 M151.68,158.16c0.663-1.781-0.746-3.888-1.2-5.76c-2.006-1.241-4.017-3.228-6.72-3.36c-1.76,1.04-3.52,2.08-5.28,3.12
				C136.47,161.09,148.694,166.225,151.68,158.16z M220.08,120.48c4.034-0.187,5.037-3.002,6.72-5.52
				c-0.313-4.799-4.353-8.57-9.84-8.4C209.174,111.267,214.005,117.688,220.08,120.48z M198,118.56c0.118-4.946-1.56-7.898-4.8-9.36
				c-1.6-0.08-3.2-0.16-4.8-0.24c-0.8,0.88-1.6,1.76-2.4,2.64v6.24c0.96,1.04,1.92,2.08,2.88,3.12
				C193.945,121.113,195.184,120.752,198,118.56z M250.56,116.4c5.525-3.273,1.06-8.764-1.44-11.76c-1.84-0.08-3.68-0.16-5.52-0.24
				c-1.565,1.242-2.654,1.938-3.6,3.84C239.879,112.772,245.299,119.517,250.56,116.4z M303.6,142.08
				c-1.28,0.88-2.56,1.76-3.84,2.64c-1.749,3.579,2.68,8.335,4.08,9.36c2.281,0.507,4.779,0.325,7.44,0.24
				c1.946-2.853,1.154-6.246,0.48-9.84C309.336,142.997,307.795,141.95,303.6,142.08z M310.08,127.2
				c2.321-6.284-3.912-10.364-9.6-10.08c-0.88,0.8-1.76,1.6-2.64,2.4c-0.68,4.048,0.816,5.968,1.92,8.88
				C302.784,130.404,308.571,131.285,310.08,127.2z M666,185.04c18.762,8.442,31.843,24.277,42.96,40.56
				c5.679,8.317,11.801,15.82,16.32,25.68h0.96c1.461-1.37,0.962-4.092,2.16-5.76c1.374-1.914,3.761-4.186,5.52-5.76
				c4.622-4.136,17.393-5.399,23.28-9.6v-1.2c-6.886-2.036-17.445,8.027-28.56,3.36c-18.51-7.773-40.923-36.728-26.16-61.44
				c2.5-4.186,4.442-8.154,8.16-11.04v-1.2c-3.096-1.742-8.16,1.91-10.08,3.84c-6.743,6.779-11.461,16.11-22.56,18.48
				c-9.561,2.042-18.527-1.562-24.24-3.84c-5.946-2.371-14.96-4.262-18.72-8.88c-7.371-9.054-0.572-37.366,1.92-48
				c0.872-3.721,2.885-6.679,2.88-11.28c-0.48-0.08-0.96-0.16-1.44-0.24c-10.9,15.656-12.76,40.183-26.64,52.8
				c-2.771,2.519-10.46,2.359-15.12,1.44c-10.509-2.072-18.559-6.008-20.4-16.56c0.16-4.719,0.32-9.44,0.48-14.16l-0.72-0.72h-0.96
				c-3.344,2.876-5.268,11.189-7.2,15.84c-2.366,5.694-8.745,14.302-9.12,20.88c7.993,5.732,13.917,0.479,24,1.68
				c3.6-0.4,7.2-0.8,10.8-1.2c5.122-0.324,9.494,0.527,13.44,1.2c7.031,1.199,12.495,0.419,18.96,1.68
				c7.604,1.483,15.221,4.598,21.84,6.96C654.217,180.864,660.079,182.376,666,185.04z M237.6,242.64
				c3.364-5.449-3.652-10.197-8.16-10.32c-1.36,0.72-2.72,1.44-4.08,2.16c-3.978,5.523,3.384,11.407,8.16,11.28
				C234.88,244.72,236.24,243.68,237.6,242.64z M157.2,236.4c3.392-4.737,0.892-11.812-6-11.76
				C141.934,229.053,147.821,239.737,157.2,236.4z M171.36,135.36c1.12-1.2,2.24-2.4,3.36-3.6c0.135-5.63-3.201-9.502-8.88-9.36
				c-3.279,2.058-4.42,2.755-4.08,7.92C164.331,133.127,166.103,135.82,171.36,135.36z M153.12,185.04
				c1.161-3.753,0.203-6.067-1.44-8.64c-1.722-1.361-2.851-2.288-6-2.4c-6.268,3.346-4.515,9.071,0.48,12.48
				C149.481,187.201,150.812,186.29,153.12,185.04z M177.36,156.96c3.038-5.112-4.063-10.04-8.88-9.84
				c-2.354,1.238-4.33,2.731-4.56,6C166.325,156.72,172.741,164.732,177.36,156.96z M151.2,249.84c-0.8,1.12-1.6,2.24-2.4,3.36
				c-2.455,5.469,3.902,9.571,8.64,9.36c0.88-0.56,1.76-1.12,2.64-1.68C163.758,254.957,158.154,249.52,151.2,249.84z M180,180.72
				c0.587-3.761-2.497-7.41-5.28-8.64c-0.96-0.08-1.92-0.16-2.88-0.24c-0.96,0.24-1.92,0.48-2.88,0.72
				C163.406,181.177,174.452,188.624,180,180.72z M154.8,210.24c5.263-3.59-0.703-11.494-6.24-11.28
				c-1.4,0.663-2.498,0.931-3.6,1.68C143.082,207.214,148.237,214.717,154.8,210.24z M151.2,205.92h0.24
				c-0.16,0.16-0.32,0.32-0.48,0.48C151.04,206.24,151.12,206.08,151.2,205.92z M345.12,230.4c4.75-6.374,0.744-12.337-7.44-12.72
				c-0.56,0.32-1.12,0.64-1.68,0.96C332.072,225.803,337.099,231.665,345.12,230.4z M320.16,255.12
				c3.736-5.968,0.526-12.573-7.44-12.48C305.7,247.823,311.504,258.201,320.16,255.12z M315.84,268.32c-1.2,0.96-2.4,1.92-3.6,2.88
				c-0.08,2.08-0.16,4.16-0.24,6.24c3.475,3.57,7.034,5.888,12,2.4C325.563,273.514,322.123,268.193,315.84,268.32z M339.12,180.48
				c0.88-1.28,1.76-2.56,2.64-3.84c2.459-4.783-3.876-9.815-8.64-9.6c-1.173,0.986-2.634,1.42-3.36,2.88
				c-2.318,5.392,2.918,8.989,5.28,10.8C336.498,181.01,337.81,180.808,339.12,180.48z M336.96,155.76
				c3.309-5.457,3.147-12.78-5.52-13.2c-1.28,0.56-2.56,1.12-3.84,1.68c-3.369,5.509,2.22,7.452,3.12,11.04
				C332.069,156.11,334.976,156.198,336.96,155.76z M308.4,179.28c2.671,0.69,4.328-0.787,5.76-1.44
				c2.879-4.802-0.52-8.144-2.88-11.04c-1.52-0.08-3.04-0.16-4.56-0.24c-1.36,0.9-2.863,1.606-3.6,3.12
				C301.339,173.689,305.882,178.629,308.4,179.28z M318,230.16c2.682-6.258,1.204-5.456-0.48-11.04
				c-1.917-1.08-4.095-1.234-6.72-1.2c-0.56,0.32-1.12,0.64-1.68,0.96c-4.939,2.985,0.737,8.32,1.68,10.8
				C312.563,230.736,315.693,230.866,318,230.16z M315.36,205.44c1.157-2.007,2.839-3.289,3.12-6c-0.91-2.145-1.915-3.141-2.64-5.52
				c-2.166-0.703-3.334-1.872-6-1.92c-2.116,1.978-3.492,2.037-4.8,5.04C305.283,202.032,310.01,206.811,315.36,205.44z
				 M680.16,491.52c9.802-2.043,9.68-20.684-4.08-20.16c-1.44,0.72-2.88,1.44-4.32,2.16
				C666.32,479.537,669.87,493.665,680.16,491.52z M714.48,432.48c-0.08-0.24-0.16-0.48-0.24-0.72h-1.44
				c-2.894,3.337-28.928,10.187-35.04,12c-4.381,1.3-9.157,0.163-12.72,2.64c-0.24,0.16-0.48,0.32-0.72,0.48v0.96
				c2.368,1.066,28.61,0.146,31.92-0.72c3.569-0.934,6.498-3.583,9.84-4.32c0.32,0.24,0.64,0.48,0.96,0.72
				c1.351,6.359,0,17.456,0,25.92c0,15.682-1.538,34.24,1.2,48c1.194,6-0.142,13.242,0.72,18.48
				c1.195,7.266-0.372,18.405,2.64,23.76c0.16,0.24,0.32,0.48,0.48,0.72c0.48-0.08,0.96-0.16,1.44-0.24
				c0.16-6.079,0.32-12.161,0.48-18.24c1.646-7.716,0.96-18.27,0.96-27.36v-49.2C714.96,460.257,715.626,434.123,714.48,432.48z
				 M674.88,528.48c2.327,0.962,5.827-0.064,8.16-0.24c5.193-7.027,8.059-19.619-6.48-19.2c-1.6,0.88-3.2,1.76-4.8,2.64
				C668.012,516.685,669.659,526.322,674.88,528.48z M1103.28,97.92c-18.703-51.241-54.874-87.728-124.8-86.64
				c-3.92,0.24-7.84,0.48-11.76,0.72c-10.862,1.81-20.878,2.238-30,4.56c-1.44,0.08-2.88,0.16-4.32,0.24
				c-8.953,3.211-18.558,4.364-27.36,7.68c-6.694,2.522-13.482,6.659-20.64,8.16c-1.703,2.974-0.284,5.614-0.96,9.36
				c-2.704,14.994-0.627,39.533,2.16,53.52c2.13,10.689,3.619,20.148,6.48,29.52c0.16,1.92,0.32,3.84,0.48,5.76
				c10.47,29.785,24.028,56.458,42.96,77.76c7.072,7.957,13.474,17.684,22.08,24c9.234,6.777,17.931,14.323,27.6,20.64
				c3.651,2.385,11.128,4.33,12.96,8.4c-1.132,3.004-3.115,4.584-4.56,6.96c-5.991,9.853-12.432,18.152-19.2,27.12
				c-2.741,3.632-7.081,6.504-9.84,10.08c-6.089,7.891-12.875,15.855-20.64,22.08c-3.955,3.17-6.622,7.692-10.8,10.8
				c-1.84,2.08-3.68,4.16-5.52,6.24c-6.559,5.695-12.249,12.508-19.44,17.52c-2.378,1.657-4.069,5-6.24,6.96
				c-6.094,5.5-12.059,11.259-18.72,16.08c-4.42,3.199-7.377,7.84-12.24,10.8c-1.52,1.76-3.04,3.52-4.56,5.28
				c-12.23,9.406-22.851,20.522-34.8,30c-3.667,2.908-12.123,7.837-14.16,11.76c-2.159-0.116-2.949-1.311-3.6-2.88
				c6.581-15.93-6.965-25.548-15.12-31.68c-6.98-5.248-13.985-11.228-21.12-16.32c-5.906-4.215-12.436-6.63-18.72-10.56
				c-0.32-0.64-0.64-1.28-0.96-1.92c-2.405-1.684-5.463-1.66-7.92-3.12c-8.058-4.788-17.114-8.384-26.16-12.48
				c0.159-5.867,5.838-16.937,7.68-22.56c0.08-1.52,0.16-3.04,0.24-4.56c2.137-7.423,5.132-25.044,3.36-35.28
				c-0.469-2.707-1.367-4.776-1.44-8.16c1.92-1.44,3.84-2.88,5.76-4.32c5.908,0.178,14.4,5.398,19.44,7.44
				c1.28,0.08,2.56,0.16,3.84,0.24c7.816,2.147,15.229,4.321,25.92,4.32h6.24c3.809-1.217,8.063-2.632,12-3.84
				c1.76-1.28,3.52-2.56,5.28-3.84c8.632-5.959,12.896-14.704,16.08-26.16c0.08-4,0.16-8,0.24-12c0.847-1.466,2.495-1.623,3.84-2.64
				c1.563-1.182,9.636-9.101,10.56-10.56c4.381-6.919,9.166-13.544,12.48-21.6c3.777-9.181,3.418-26.926,0.24-36
				c-6.251-17.85-19.312-32.49-32.88-43.2c-3.591-2.834-8.859-4.849-12-8.16c-1.123-1.184-1.92-2.504-3.36-3.36
				c-6.061-3.605-11.934-6.745-17.52-10.56c-3.895-2.66-9.495-2.73-12.24-6.48c-1.129-1.543-0.635-2.925-1.2-5.28
				c-1.92-6.159-3.84-12.321-5.76-18.48c-6.954-17.935-21.207-30.978-37.2-40.08c-12.829-7.302-45.95-9.407-63.84-4.32
				c-7.021,1.996-14.312,4.583-21.6,6.72c-2.285,0.67-4.335,3.697-8.16,2.64c-2.446-0.676-4.268-3.78-6.24-5.04
				c-3.823-2.443-7.865-4.674-11.76-6.72c-11.713-6.152-23.905-8.73-37.68-13.2H576c-13.282,0.001-20.784,1.206-29.76,4.8
				c-18.188,7.283-34.769,17.58-42.72,34.8c-0.24,1.76-0.48,3.52-0.72,5.28c-1.04,2.88-2.08,5.76-3.12,8.64
				c-0.729,3.246,0.013,6.87-0.72,10.56c-0.71,3.576-1.527,10.786-0.48,15.6c1.596,7.339,2.229,14.57,4.32,21.6
				c3.796,12.764,17.96,30.792,27.36,38.4c3.569,2.888,11.985,7.402,14.16,11.04c-3.126,4.469-5.759,10.085-8.64,14.88
				c-0.956,1.591-0.489,3.772-1.68,5.04c-2.88,2-5.76,4-8.64,6c-5.148,3.882-9.393,8.563-14.64,12.48
				c-0.96,1.52-1.92,3.04-2.88,4.56c-1.52,1.36-3.04,2.72-4.56,4.08c-2.909,3.974-5.125,7.746-7.92,12
				c-8.362,12.727-13.505,25.99-18.96,42v3.6c-0.656,3.43-1.59,8.942-2.4,12.48c0.08,3.2,0.16,6.4,0.24,9.6
				c-0.08,5.519-0.16,11.041-0.24,16.56c2.587,13.657,5.123,26.577,9.84,38.16c1.954,4.797,6.88,9.465,6.96,15.36
				c-9.715,5.868-19.945,10.407-29.04,16.8c-9.201-8.815-17.923-18.312-25.92-28.32c-2.96-2.8-5.92-5.6-8.88-8.4
				c-4.993-6.999-10.913-12.388-16.08-19.2c-1.528-2.015-4.758-3.143-6.24-5.28c-6.935-9.997-15.838-17.843-23.28-27.36
				c-1.6-1.68-3.2-3.36-4.8-5.04c-1.351-1.009-3.771-2.631-3.12-5.52c0.349-1.551,1.845-1.578,2.4-2.64
				c2.098-4.018,3.501-6.866,5.76-10.56c0.72-0.64,1.44-1.28,2.16-1.92c1.372-3.013,1.492-4.569,2.88-7.44
				c12.546-25.956,21.721-65.344,12-102.24c-11.987-45.494-42.633-85.371-82.8-102.48c-5.27-2.245-11.713-6.427-17.28-8.16
				c-9.548-2.972-20.752-4.463-31.92-6.72c-7.45-1.505-22.897-1.601-30,0c-9.249,2.084-17.397,0.679-25.68,3.36
				c-20.143,6.52-35.179,14.476-50.64,25.2c-6.742,4.676-14.06,9.834-19.2,16.08c-5.192,6.31-13.895,15.447-17.52,22.56
				c-1.498,2.939-3.704,5.401-4.8,8.16c-0.16,0.96-0.32,1.92-0.48,2.88c-2.71,3.663-6.219,9.686-7.68,14.16
				c-3.933,12.045-7.739,26.254-9.36,39.36c-3.216,25.997,2.928,49.757,9.36,67.92c14.541,41.064,41.931,67.159,77.76,86.88
				c5.346,2.943,10.57,3.827,16.8,6c33.098,11.546,71.869,10.846,103.44-1.68c5.949-2.36,27.06-11.054,29.04-15.36
				c8.788-1.705,18.503,16.353,24.72,20.4c5.902,3.842,13.192,12.15,17.52,17.76c1.68,1.36,3.36,2.72,5.04,4.08
				c2.403,2.467,4.741,5.589,6.72,8.4c2.08,1.76,4.16,3.52,6.24,5.28c4.977,5.487,10.07,10.217,15.36,15.36
				c3.468,3.371,13.159,16.974,17.04,18c2.154,3.74-3.503,8.001-5.76,9.84c-3.638,2.963-13.988,18.829-15.36,24
				c-1.096,4.131,1.906,10.026,0.96,12.96c-1.695,5.253-8.389,10.924-11.04,15.84c-1.585,2.938-1.594,5.773-3.12,8.64
				c-11.032,20.725-22.074,60.273-11.04,88.8c4.245,10.974,12.599,18.129,21.36,24.72c-0.828,5.678-5.261,9.63-7.68,13.92
				c-2.398,4.252-4.38,8.697-6.48,12.72c-8.887,17.027-14.369,36.149-20.64,55.68c-0.982,3.057-1.159,9.865-0.48,13.68
				c0.4,2,0.8,4,1.2,6c-1.467,11.076-5.567,22.51-7.92,33.6c-1,4.715-1.832,10.01-2.64,14.16c-0.439,2.256,0.298,4.824-0.48,6.48
				c-2.298,3.607-10.257,4.152-14.16,6.24c-4.863,2.602-13.952,8.85-17.04,13.2c-2.818,3.97-6.441,8.854-7.2,13.92
				c-5.512,36.773,23.872,45.718,51.84,53.76c3.6,0.24,7.2,0.48,10.8,0.72c2.852,0.842,20.358,2.264,25.2,0.96
				c5.207-1.402,11.065-1.558,16.56-2.88c14.041-3.378,30.287-9.465,37.44-19.92c3.242-4.738,12.795-15.175,9.6-23.52
				c2.779-5.067,11.255-7.518,16.8-9.84c10.178-4.263,21.277-8.976,32.88-12c4.799-0.88,9.6-1.76,14.4-2.64
				c10.306-2.94,24.136-3.387,34.8-6h11.04c10.038-2.925,40.981-2.49,51.12,0c4.16-0.08,8.32-0.16,12.48-0.24
				c7.519,0.8,15.041,1.6,22.56,2.4c8.292,2.488,16.242,3.675,24.72,6c11.931,3.272,23.492,8.82,34.56,12.72
				c8.541,3.01,15.912,6.888,23.52,10.32c4.551,2.053,9.096,3.399,12.96,6c1.129,6.367,1.932,11.692,5.04,16.08
				c26.593,37.548,137.5,38.056,147.12-13.68c3.326-17.885-8.949-30.992-17.76-37.2c-4.16-2.32-8.32-4.64-12.48-6.96
				c-2.382-2.941-2.831-8.971-4.08-12.72c-2.786-8.358-6.356-16.716-10.08-24.96c-2.026-4.485-5.132-9.813-7.68-13.92
				c-2.244-3.616-2.733-7.375-5.04-11.04c-1.901-3.02-5.569-5.98-6.72-9.6c-1.506-4.736-0.275-10.18-1.2-14.88
				c-1.273-6.467-3.465-14.846-5.04-21.12c-1.456-5.801-1.247-11.165-3.6-16.32c-1.813-3.973-2.516-8.214-4.32-12.72
				c-3.521-8.798-8.291-18.09-12.48-26.16c-1.575-3.035-6.661-9.441-4.8-12.72c0.7-1.11,1.32-0.726,2.4-1.44
				c2.861-1.89,9.366-7.983,11.28-10.8c10.974-16.15,19.187-40.464,12.48-66.96c-0.16-1.92-0.32-3.84-0.48-5.76
				c-2.559-8.612-5.536-17.167-9.36-24.96c-1.092-2.226-3.609-3.454-3.84-6.72c10.568-11.274,23.977-21.829,36.24-31.44
				c3.224-2.527,5.358-7.079,8.88-9.36c7.321-4.741,13.733-11.115,19.44-17.52c1.596-1.792,4.208-2.934,6.24-4.32
				c0.72-0.96,1.44-1.92,2.16-2.88c6.637-4.989,12.589-10.28,18.96-15.6c14.185-11.844,26.525-25.847,41.52-36.96
				c0.4-0.72,0.8-1.44,1.2-2.16c3.359-3.026,6.733-5.86,10.56-8.4c1.305-0.866,1.897-2.573,2.88-3.84c1.44-1.04,2.88-2.08,4.32-3.12
				c3.828-3.043,6.876-6.855,11.04-9.6c6.562-4.327,11.404-11.906,17.52-16.8c37.936-30.357,69.02-59.372,88.8-108.24
				c1.765-4.359,1.794-8.396,3.12-13.2C1116.954,158.092,1113.017,124.597,1103.28,97.92z M499.92,251.28
				c3.387-6.143,7.206-11.383,11.28-16.8c1.308-1.739,3.8-2.853,5.04-4.56c3.568-4.912,17.529-17.356,23.28-19.44
				c2.24-0.16,4.48-0.32,6.72-0.48c3.888-1.101,8.386-1.385,13.44-2.4c36.567-7.345,71.291,10.025,86.4,28.08h1.44
				c0.894-4.753-12.758-15.683-16.32-18.24c-15.677-11.254-30.42-15.796-54-19.68c-9.54-1.571-20.846,1.277-30-0.24
				c-0.309-9.011,10.957-16.606,14.16-23.28c0.08-0.48,0.16-0.96,0.24-1.44c-1.26-1.38-2.838-1.181-4.32-2.4
				c-5.766-4.741-13.358-7.356-18.96-12.24c-17.682-15.414-37.666-42.618-26.88-77.04c1.27-4.053,1.037-7.877,3.12-11.04
				c1.107-1.68,3.575-3.106,4.8-4.8c0.4-0.8,0.8-1.6,1.2-2.4c6.243-5.958,15.467-13.115,24.48-15.84
				c6.237-1.886,15.071-1.495,20.64-4.08c19.509,0.18,39.041,9.088,51.6,16.8c4.365,2.68,12.188,10.891,17.04,11.76
				c6.982-4.586,15.402-6.21,24-9.36c28.907-10.59,58.154-6.059,77.28,9.84c7.661,6.368,15.06,21.075,18.48,31.68
				c2.04,6.325,2.013,13.405,4.08,19.44c7.187,4.44,15.31,6.703,22.32,11.28c21.627,14.122,49.745,30.752,55.92,59.76
				c3.891,18.28-10.971,38.123-19.44,44.4c-3.28,2.4-6.56,4.8-9.84,7.2c-2.577,3.363,1.207,7.625,0.48,12
				c-1.322,7.959-2.857,14.191-6.96,19.2c-13.909,16.98-55.981-0.915-68.16-9.12c-0.88,0.08-1.76,0.16-2.64,0.24
				c-2.164,3.443-7.365,10.44-12,11.04c-1.313-1.057-1.492-3.132-1.92-5.04c-4.333-1.935-25.606,1.133-30.24,1.92
				c-4.64,0.08-9.28,0.16-13.92,0.24c-1.395,0.467-2.629,1.51-4.8,0.96c-4.213-1.768-4.355-8.722-8.64-10.8
				c-10.343-5.017-22.182-5.022-35.52-7.2c-12.962-2.117-32.406,1.853-41.52,4.8c-2.558,0.827-13.934,6.915-14.88,6.72
				c-6.476-1.336-13.306-7.268-19.68-9.84c-9.094-3.67-19.438-3.841-31.44-3.84h-9.12c-2.708,0.618-6.217,1.904-9.36,2.4
				c-0.16-0.32-0.32-0.64-0.48-0.96C495.778,256.463,498.977,252.991,499.92,251.28z M488.64,285.6
				c2.788-19.676,5.601-16.065,23.04-20.16c2.32-0.24,4.64-0.48,6.96-0.72c11.228,0.08,23.676,2.359,31.44,6.72
				c2.192,1.231,3.299,6.47,4.8,6.96c1.712,0.559,5.904-1.598,8.88-1.2c2.48,0.56,4.96,1.12,7.44,1.68
				c1.52-1.68,3.04-3.36,4.56-5.04c2.56-0.72,5.12-1.44,7.68-2.16c13.81-4.293,36.049-7.245,51.6-2.88
				c6.751,1.895,16.922,1.799,20.64,6.72c4.636,6.137,1.963,22.847-0.96,29.52c-3.103,7.083-11.296,5.428-19.44,7.68
				c-13.68,3.783-45.417,3.184-52.56-5.52c-3.33-4.058-6.488-10.234-8.64-15.12c-1.442-3.273-1.785-7.457-4.56-9.36
				c-2.072-1.42-6.583-2.124-9.6-2.16c-1.44,1.04-2.88,2.08-4.32,3.12c-1.489,2.084-0.426,5.355-0.96,7.92
				c-0.798,3.835-2.49,11.217-4.8,14.16c-2.215,2.821-5.607,2.946-9.36,4.32c-18.954,6.942-36.617-0.135-49.92-7.68
				C487.584,300.583,488.016,290.005,488.64,285.6z M415.2,391.68c-3.722-3.408-6.072-8.666-10.08-11.76
				c-5.589-4.314-10.161-9.469-14.88-14.64c-6.062-6.643-13.12-12.295-18.72-19.44c-11.439-11.039-22.881-22.081-34.32-33.12h-1.92
				c-3.072,3.021-6.559,4.508-10.32,6.96c-9.817,6.4-20.706,12.664-32.88,16.8c-5.813,1.975-12.261,2.637-18,4.32
				c-7.2,2.111-15.379,0.119-23.52,1.44c-8.471,1.374-19.669-0.43-26.16-2.4c-6.2-1.881-11.862-1.177-17.52-3.36
				c-46.624-17.986-83.536-50.998-96-102.72c-1.36-8.399-2.72-16.801-4.08-25.2c0.16-4.8,0.32-9.601,0.48-14.4
				c-1.718-8.955,4.147-32.883,7.2-40.8c14.378-37.278,40.689-67.447,78-81.6c8.549-3.243,17.678-5.697,27.12-7.68
				c6.159-0.72,12.321-1.44,18.48-2.16c73.47-0.053,117.957,41.182,139.2,93.6c8.175,20.173,11.798,50.074,6.48,76.08
				c-0.56,3.52-1.12,7.04-1.68,10.56c-3.328,9.575-6.624,19.601-11.28,28.08c-4.962,9.037-11.333,16.978-17.04,25.2
				c0.802,5.448,14.185,15.577,17.52,20.4c6.408,9.268,15.314,16.62,22.08,25.68c2.987,4,8.153,6.936,11.04,11.04
				c4.682,6.654,10.777,11.583,16.08,17.52c1.36,2,2.72,4,4.08,6c6.841,4.994,13.25,13.059,18.48,19.68
				c2.064,2.613,5.346,3.6,5.52,8.16c-3.821,2.271-8.349,6.146-11.04,9.6h-0.72C428.788,407.287,422.687,398.536,415.2,391.68z
				 M815.04,568.56c-2.735,2.943-7.082,9.048-12,9.36c-0.16-0.08-0.32-0.16-0.48-0.24c-1.805-7.828-0.647-15.556-2.88-23.52
				c-2.245-8.011-3.25-17.23-6-25.2c-5.981-17.332-15.078-34.785-28.08-45.36c-5.764-4.688-13.604-12.254-23.52-12.24
				c-0.08,0.48-0.16,0.96-0.24,1.44c4.597,2.958,9.216,5.376,13.44,8.64c17.701,13.676,24.901,36.636,32.64,60.48
				c0.24,3.6,0.48,7.2,0.72,10.8c1.927,5.237,1.466,13.866,2.4,19.68v8.64c1.637,0.302,2.385-0.09,3.6-0.72
				c0.16,0.16,0.32,0.32,0.48,0.48c-0.48,1.2-0.96,2.4-1.44,3.6c5.129,5.319,8.765,12.519,12.24,19.44c2.32,4,4.64,8,6.96,12
				c6.082,13.681,9.729,27.382,14.4,42.72c2.111,6.933,2.303,14.223,4.08,22.32c0.558,2.543,2.02,7.262,1.44,10.8
				c-0.248,1.512-1.519,1.695-1.92,3.36c2.701,3.777,6.605,7.201,8.88,11.28c7.5,13.451,13.861,26.645,19.68,42
				c2.606,6.876,9.737,19.266,9.84,27.6c2.437,1.734,5.65,1.976,8.64,3.36c7.556,3.498,16.162,9.77,18.72,18.24
				c4.411,14.605-10.617,23.006-19.44,27.36c-28.295,13.962-89.474,10.102-100.32-16.32c-1.336-3.254-0.536-8.292-0.48-12.24
				c-2.343-2.321-5.626-3.086-8.64-4.8c-7.037-4.001-15.411-7.567-22.56-11.28c-3.615-1.878-7.112-2.005-10.8-3.84
				c-23.657-11.767-51.002-17.64-80.88-23.28h-12c-5.075-0.851-9.826-1.441-16.08-1.44c-3.36,0.08-6.72,0.16-10.08,0.24
				c-5.819-0.926-14.41-0.691-19.44,0c-3.04-0.08-6.08-0.16-9.12-0.24c-5.423,0.025-11.29,0.548-15.84,1.44
				c-3.36,0.08-6.72,0.16-10.08,0.24c-12.5,2.874-25.39,2.939-37.44,6.24c-17.613,4.824-33.356,10.708-49.2,16.56
				c-2.898,1.07-10.526,5.306-13.44,7.2c-2.534,1.647-4.94,4.604-8.16,5.52c-1.818,2.883,1.218,9.225,0.72,13.68
				c-0.536,4.797-6.46,10.993-9.6,13.68c-23.431,20.047-105.963,18.698-111.6-15.36c-2.271-13.721,14.036-23.025,22.8-26.4
				c4.94-1.903,11.643-2.23,15.84-5.04c1.554-8.204,1.673-17.716,3.12-24.48c0.08-1.6,0.16-3.2,0.24-4.8
				c1.893-5.875,2.234-12.611,4.08-19.2c1.909-6.812,5.159-14.356,5.04-22.56c2.252,0.464,2.453,1.677,3.84,2.16
				c0.8-0.08,1.6-0.16,2.4-0.24c3.257,0.418,7.594,1.477,11.52,2.4c13.012,3.059,26.636,4.085,40.56,6.96
				c20.526,4.239,42.369,4.773,64.56,8.4c6.293,1.029,11.941-0.062,17.76,0.72c11.178,1.503,25.153,2.641,37.68,2.64
				c18.978-0.001,40.204,1.775,57.12-0.96h15.12c5.803-2.381,18.835-2.432,26.4-3.84c3.52-0.24,7.04-0.48,10.56-0.72
				c8.966-3.013,20.056-5.026,29.76-6.96c0.31-0.626,0.428-0.837,0.48-1.92c-5.243-1.373-25.222,2.17-30.72,3.36
				c-3.36,0.08-6.72,0.16-10.08,0.24c-6.361,1.521-15.426,2.18-22.32,3.36h-10.8c-6.308,1.003-23.023,2.049-30,0.72
				c-14.549-2.771-35.411,1.008-50.16-3.12c-3.837-1.074-9.257-0.325-12.48-1.2h-10.56c-15.004-4.054-32.59-3.092-48.24-6.24
				c-9.439-1.52-18.881-3.04-28.32-4.56c-3.52-0.32-7.04-0.64-10.56-0.96c-17.594-4.022-35.78-6.339-54-9.36
				c-0.4-0.72-0.8-1.44-1.2-2.16c0.674-7.213,4.669-13.823,6.48-20.4c4.641-16.859,13.183-35.864,22.32-48.72
				c5.183-7.292,7.453-16.89,14.16-22.56c-0.06-2.293-0.696-2.28-1.2-3.84v-0.24h3.84c1.883-2.976-0.273-8.136,0.96-12.24
				c1.031-3.431,1.417-8.593,2.4-12.72c3.142-13.194,6.615-26.621,12.72-37.2c5.287-9.163,12.323-19.22,20.4-25.68
				c2.491-1.993,12.335-7.136,12.96-9.84c-4.406-1.933-13.858,7.537-16.8,9.6c-16.359,11.47-29.336,37.489-34.8,59.04
				c-1.168,4.606-4.208,27.389-6.24,28.8c-36.048-10.588-29.851-53.737-18.72-85.44c2.29-6.522,5.424-17.403,9.12-22.32
				c3.479-4.628,6.867-9.624,10.56-14.16c1.726-2.12,4.494-3.133,5.76-5.76c0.08-0.48,0.16-0.96,0.24-1.44
				c-1.94-1.978-5.381-4.341-6.48-6.96c-0.709-3.788,11.31-18.103,13.92-21.12c11.605-13.414,25.443-24.422,40.56-34.32
				c3.76-2.462,7.773-3.588,11.76-6c3.184-1.926,16.882-10.323,20.64-9.36c2.38,1.112,3.235,4.262,5.28,5.52
				c5.632,3.466,10.064,8.953,15.6,12.24c23.312,13.841,52.857,33.744,91.44,23.28c0.16-0.16,0.32-0.32,0.48-0.48v-1.2
				c-2.487-0.657-6.4-0.151-8.88,0.24c-6.317,0.995-19.356,0.81-24.24-0.96c-4.669-1.692-10.507-2.528-15.84-4.32
				c-17.536-5.893-32.037-16.298-45.36-26.4c-5.426-4.114-11.673-7.598-16.32-12.48c-6.596-6.93-11.639-18.755-15.6-28.32
				c-3.786-9.142-9.755-28.301-8.4-40.32c2.059-0.901,13.696,5.468,17.52,6.48c13.527,3.579,36.089,4.255,48.96-0.48
				c4.745-1.746,9.307-7.368,10.8-12.24c1.037-3.385,0.838-10.769,2.4-12.72h1.92c2.687,5.718,5.555,20.007,10.08,23.04
				c14.943,10.018,43.052,11.016,65.28,6.24c6.221-1.337,12.208-1.402,17.04-4.56c5.712-3.734,5.65-14.386,9.36-20.16
				c5.71-1.214,15.595-1.254,22.32-2.4h6.48c3.205-0.695,11.47-2.799,15.36-1.2c2.087,1.463,1.202,19.702,1.2,24.24
				c-0.008,15.504-5.592,27.613-9.84,39.84c-1.526,4.392-8.031,10.297-8.16,14.88c3.546,2.068,8.596,2.244,12.48,3.6
				c5.645,1.971,11.171,4.302,17.04,6.72c19.078,7.861,38.652,21.852,53.76,34.08c5.904,4.779,11.663,7.9,16.32,13.92
				c-1.39,3.527-3.261,6.937-6,9.12v1.68c5.088,3.203,9.209,10.313,12.48,15.36c12.559,19.377,23.255,33.239,28.32,60.96
				C833.642,540.438,824.997,557.843,815.04,568.56z M1096.32,176.64c-2.182,11.284-5.158,22.406-8.88,32.4
				c-2.107,5.659-6.292,11.322-8.88,16.56c-16.757,33.919-46.624,56.886-74.4,79.92c-2.655,2.201-4.889,5.531-7.44,7.92
				c-5.922,5.545-13.172,11.725-19.68,16.56c-0.48,0.88-0.96,1.76-1.44,2.64c-1.751,1.598-3.729,2.517-5.76,3.84
				c-4.405,2.869-7.756,7.677-12.24,10.8c-1.44,1.68-2.88,3.36-4.32,5.04c-7.359,5.406-13.426,11.764-20.64,17.28
				c-0.56,0.88-1.12,1.76-1.68,2.64c-3.031,2.917-6.812,5.293-10.08,7.92c-8.797,7.071-16.146,15.566-25.44,22.32
				c-1.48,1.076-2.201,2.841-3.36,4.32c-1.84,1.36-3.68,2.72-5.52,4.08c-2.941,2.35-5.363,5.461-8.16,7.92
				c-9.058,7.963-18.225,15.391-27.36,23.28c-5.834,5.038-10.913,10.738-17.28,15.36c-1.705,1.238-2.324,3.599-4.56,4.32
				c-2.27-1.369-4.983-6.249-6.48-8.4c-0.791-3.192,9.595-9.823,12-11.76c13.811-11.122,26.28-23.805,40.32-34.8
				c6.31-4.941,11.708-11.551,17.76-16.8c10.289-8.924,20.541-17.844,29.76-27.84c8.178-8.867,18.164-15.85,25.68-25.44
				c2.084-2.659,5.075-4.55,7.68-6.72c2.51-2.09,4.638-5.605,6.72-8.16c5.267-6.462,12.199-11.569,16.56-18.96
				c3.323-5.632,10.458-11.738,14.4-17.28c3.059-4.301,4.655-9.474,7.92-13.68c2.334-3.007,6.54-8.336,6.72-12.96
				c-5.394-5.478-17.784-8.824-24.24-13.92c-13.706-10.819-29.751-20.443-39.6-35.04c-0.96-0.48-1.92-0.96-2.88-1.44
				c-2.94-4.785-8.532-9.43-10.08-14.64c-0.64-0.08-1.28-0.16-1.92-0.24c-0.687-3.891-3.898-6.071-5.76-8.88
				c-3.25-4.904-5.343-9.64-7.92-15.12c-1.493-3.174-4.812-6.663-6.24-10.08c-6.578-15.734-10.539-30.036-15.12-48.24
				c-0.56-0.96-1.12-1.92-1.68-2.88c0.16-1.28,0.32-2.56,0.48-3.84c-0.789-4.344-1.048-9.969-2.16-15.12
				c-1.097-5.08-0.151-14.553-1.68-19.68c-0.826-2.77-1.505-8.455-0.96-12c0.485-3.159-0.822-7.726,0.48-10.08
				c0.435-0.756,0.671-0.811,1.44-1.2c11.935,3.836,20.425,13.8,29.76,20.4c0.8,0.16,1.6,0.32,2.4,0.48
				c3.273,3.114,6.479,7.141,10.08,9.84c9.277,6.953,17.343,16.573,24,26.16c1.21,1.743,3.848,2.841,5.04,4.56
				c4.867,7.02,10.778,13.89,15.12,21.12c14.063,23.415,28.267,48.195,40.32,73.2h1.2c0.08-0.08,0.16-0.16,0.24-0.24
				c-0.493-4.53-3.105-8.376-4.56-12c-4.914-12.238-10.066-23.67-15.84-34.56c-0.8-2-1.6-4-2.4-6c-0.72-0.8-1.44-1.6-2.16-2.4v-2.4
				c-2.211-4.544-6.467-9.693-9.36-13.92c-2.606-3.809-4.3-7.598-6.72-11.52c-4.482-7.265-10.569-13.889-15.6-20.88
				c-3.849-5.349-9.58-9.531-13.68-14.64c-1.6-2-3.2-4-4.8-6c-1.975-1.475-6.473-4.471-7.92-6.24
				c-6.559-8.017-15.087-14.52-24-20.16c-4.63-2.929-8.151-7.342-13.92-9.36c0.08-0.48,0.16-0.96,0.24-1.44
				c1.218-1.943,9.627-3.657,12.48-4.56c9.134-2.89,19.583-5.765,29.52-7.92c5.477-1.188,12.331-1.206,17.04-2.4
				c4.64-1.176,10.065,1.239,12.96-0.96c66.705-0.032,103.511,30.725,119.28,81.12
				C1094.931,124.412,1101.305,150.858,1096.32,176.64z M619.44,424.32c1.247,0.197,1.469,0.064,2.4-0.48v-1.2
				c-0.64-0.08-1.28-0.16-1.92-0.24C619.301,423.148,619.179,423.184,619.44,424.32z M340.08,242.88
				c-1.101,0.771-2.249,1.127-2.88,2.4c-4.193,4.99,3.074,10.812,6.72,11.28c1.36-0.48,2.72-0.96,4.08-1.44
				C352.031,249.134,346.703,242.593,340.08,242.88z M340.56,205.2c0.96-0.72,1.92-1.44,2.88-2.16c3.44-5.54-1.433-11.182-7.2-11.52
				c-1.28,0.88-2.56,1.76-3.84,2.64C332.052,200.606,334.379,204.952,340.56,205.2z M291.12,281.04c-1.2,0.64-2.4,1.28-3.6,1.92
				c-2.471,8.394,3.588,13.506,10.8,10.08c1.025-1.361,1.728-3.994,0.96-6.48C297.988,283.666,295.227,281.146,291.12,281.04z
				 M262.32,282.24c-7.787,4.401-4.251,13.92,5.28,12.72c0.8-0.96,1.6-1.92,2.4-2.88C273.54,287.51,266.209,282.281,262.32,282.24z
				 M262.32,215.28c1.721-6.193-1.461-10.837-6.96-11.28c-1.986,0.915-3.756,1.08-5.04,2.64
				C248.502,214.771,257.743,221.447,262.32,215.28z M261.36,242.64c0.96-0.88,1.92-1.76,2.88-2.64
				c1.375-6.27-2.248-10.837-7.92-10.8c-1.488,0.881-2.997,1.375-4.08,2.64C250.793,237.994,254.824,242.886,261.36,242.64z
				 M265.92,267.6c2.925-4.88,0.343-9.011-3.36-11.76c-1.84-0.08-3.68-0.16-5.52-0.24c-0.88,1.44-1.76,2.88-2.64,4.32
				C254.361,266.538,259.644,269.235,265.92,267.6z M293.76,267.6c3.513-5.288,1.532-5.759,0.48-11.04
				c-2.141-1.184-3.931-2.448-7.2-2.4c-0.915,0.815-2.04,1.247-2.64,2.4c-2.222,4.629,1.087,9.493,4.08,11.04H293.76z M235.2,285.36
				c-0.64,0.16-1.28,0.32-1.92,0.48c-7.17,3.151,1.144,16.474,9.6,9.84C244.314,289.925,241.199,285.159,235.2,285.36z
				 M254.16,140.4c4.164-6.134-0.819-11.87-8.16-11.52c-2.043,1.678-3.017,3.527-2.88,7.44
				C245.941,139.589,248.46,142.678,254.16,140.4z M251.04,166.08c1.955,0.779,3.835-0.562,5.52-0.96
				c1.149-1.646,2.197-5.289,0.96-7.92c-1.147-2.106-4.505-4.274-7.68-4.32c-0.72,0.32-1.44,0.64-2.16,0.96
				C244.092,158.357,246.585,164.136,251.04,166.08z M259.44,190.8c2.055-3.037,0.669-5.198,0.24-8.88
				c-2.633-1.931-4.646-2.681-8.64-2.88c-0.88,1.04-1.76,2.08-2.64,3.12c-2.241,4.717,2.992,8.647,6,9.84
				C256.324,192.788,258.053,191.386,259.44,190.8z M289.2,215.76c5.293-2.392,1.006-9.989-1.68-11.76
				c-1.76-0.08-3.52-0.16-5.28-0.24c-1.12,0.96-2.24,1.92-3.36,2.88C278.629,212.414,282.842,219.002,289.2,215.76z M282,190.8
				c1.52,0.08,3.04,0.16,4.56,0.24c7.511-3.323,2.611-12.765-6-12.48c-1.223,1.06-2.632,1.796-3.36,3.36
				C275.656,185.579,279.826,189.854,282,190.8z M293.04,239.28c1.64-6.327-1.923-10.841-8.64-10.56c-1.04,0.96-2.08,1.92-3.12,2.88
				C279.335,240.452,287.844,243.406,293.04,239.28z M240.48,267.36c0.07-5.162-3.212-8.954-8.16-9.12
				c-1.04,0.32-2.08,0.64-3.12,0.96c-3.876,6.332,0.719,11.874,7.2,12.48C238.237,270.672,239.54,269.263,240.48,267.36z
				 M282.48,139.92c1.602-0.95,2.042-4.597,1.92-7.2c-2.003-2.93-3.909-4.723-8.64-5.04c-6.789,4.029-3.547,7.996,0,12.48
				C277.88,140.272,280.855,140.843,282.48,139.92z M285.84,163.68c1.81-1.022,1.977-4.427,1.2-6.72
				c-1.238-2.618-4.547-4.692-8.64-4.56c-1.12,0.64-2.24,1.28-3.36,1.92C272.977,161.47,279.366,167.799,285.84,163.68z
				 M280.08,115.2c1.329-2.075,1.806-3.868,1.68-7.68c-1.904-1.954-3.955-4.23-7.44-4.56c-1.12,0.4-2.24,0.8-3.36,1.2
				C266.099,112.114,273.375,117.505,280.08,115.2z M676.8,548.16c-1.354,1.322-2.904,1.25-4.56,2.4
				c-4.326,3.006-1.912,11.065-0.72,15.12c4.057,2.509,11.238,4.323,14.4-0.72C690.33,557.925,686.17,547.834,676.8,548.16z"/>
		</g>
	</g>
</g>
<g id="Forma_1_1_" enable-background="new    ">
	<g id="Forma_1">
		<g>
			<path fill-rule="evenodd" clip-rule="evenodd" d="M546.72,1133.04c-9.434,4.572-16.465,10.808-27.6,13.44
				c-3.219,0.761-11.18,3.893-14.64,1.92c-0.456-0.336-0.146-0.019-0.48-0.48c-2.14-5.12,0.311-12.623-0.72-18.72
				c-0.56-3.12-1.12-6.24-1.68-9.36c0.56-0.8,1.12-1.6,1.68-2.4c6.813-1.189,14.906-0.02,20.88,0.96c2.72,0.08,5.44,0.16,8.16,0.24
				c2.761,0.489,6.532,1.596,9.36,0.24c1.277-6.906,1.872-13.851,3.84-21.12c0.96-3.52,1.92-7.04,2.88-10.56
				c-3.544-2.224-29.445,0.48-36.96,0.48c-2.4-0.08-4.8-0.16-7.2-0.24c-1.734-1.46-0.162-22.796,0.72-25.68
				c0.48-0.24,0.96-0.48,1.44-0.72c3.115-0.695,8.78,0.812,11.52,1.44c2.08-0.08,4.16-0.16,6.24-0.24
				c5.359,0.56,10.721,1.12,16.08,1.68c2.872,0.506,5.872,1.878,9.12,0.72c0.08-3.28,0.16-6.56,0.24-9.84
				c2.298-12.615,3.668-27.664,3.84-41.04c-1.023-0.592-2.432-0.915-4.08-0.96c-42.796,0.16-85.604,0.32-128.4,0.48
				c-1.611,2.828-0.24,8.644-0.24,13.44c0,3.118,0.845,6.278,0.96,8.16c0.08,5.279,0.16,10.561,0.24,15.84c0.4,3.6,0.8,7.2,1.2,10.8
				c-0.785,6.842,0.266,14.192,1.2,19.92v12.72c0,7.321,0.42,14.47,1.44,20.64c-0.08,6.879-0.16,13.761-0.24,20.64
				c1.549,9.016-0.381,19.977,1.2,30.24c1.808,11.736,0.834,24.066,1.68,36.24c4.007,2.138,25.543,0.72,32.64,0.72
				c27.197,0.08,54.403,0.16,81.6,0.24c2.363-3.918,2.208-9.641,3.36-14.64c2.966-12.875,4.47-27.163,7.68-40.56
				c1.114-4.648,3.876-16.253,2.16-18.96C552.224,1129.184,549.374,1131.754,546.72,1133.04z M697.2,1122.24
				c-4.08,0.08-8.16,0.16-12.24,0.24c-0.24,0.08-0.48,0.16-0.72,0.24c-1.026,4.603,1.232,12.365,2.16,17.28v7.92
				c0.333,1.403,0.961,3.79,1.2,5.76c-0.08,2.32-0.16,4.64-0.24,6.96c0.575,3.466,1.469,6.467,1.44,11.04
				c-0.08,0.16-0.16,0.32-0.24,0.48c-10.005,2.773-20.936-3.41-27.12-6.96c-20.894-11.995-23.7-36.108-9.6-57.12
				c6.411-9.553,23.392-17.833,37.44-20.16c8.195-1.357,15.296,0.305,23.28,0.48c2.975,0.065,7.048,3.181,8.64,0.48
				c0.63-1.706-1.843-19.229-2.4-22.08c-1.36-17.678-2.72-35.362-4.08-53.04c-3.619-1.742-7.355-0.759-12.48-1.68
				c-12.107-2.175-29.322-1.521-42.96-1.44c-4.4,0.64-8.8,1.28-13.2,1.92c-7.765,1.752-15.235,4.225-22.08,6.24
				c-2.212,0.651-5.198,3.13-7.2,4.08c-17.646,8.375-29.703,20.915-40.08,36.48c-1.393,2.089-1.792,5.746-2.88,8.16
				c-1.98,4.394-4.428,9.547-5.76,14.88c-0.56,4.24-1.12,8.48-1.68,12.72c-4.881,23.262,2.057,47.981,9.84,62.64
				c24.327,45.817,88.81,58.343,154.08,45.12c2.64-3.992,0.513-14.528,1.44-20.4c1.074-6.803,1.15-16.385,2.16-22.32
				c-0.08-3.52-0.16-7.04-0.24-10.56c0.4-0.64,0.8-1.28,1.2-1.92v-11.28c1.405-3.512,1.697-7.664,1.68-13.2
				C732.887,1120.861,704.992,1122.24,697.2,1122.24z M371.04,849.84H304.8c-5.954,0-23.567-1.29-27.6,0.48
				c-2.764,1.368-2.936,5.61-4.32,8.4c-4.031,8.127-8.016,15.712-11.28,24.72c-1.272,3.51-4.07,7.176-6,10.08
				c-0.16,1.04-0.32,2.08-0.48,3.12c-0.56,0.4-1.12,0.8-1.68,1.2c-1.04,2.48-2.08,4.96-3.12,7.44c-0.56,0.48-1.12,0.96-1.68,1.44
				c-9.94,21.173-23.787,39.545-34.08,60c-0.4,0.08-0.8,0.16-1.2,0.24c-6.247-5.876-8.921-15.164-13.68-22.56
				c-13.375-20.786-24.606-43.282-35.28-67.2c-3.168-7.097-10.19-18.291-11.52-25.92c-5.357-3.485-28.586-1.44-37.44-1.44
				c-32.557-0.08-65.123-0.16-97.68-0.24c-0.56,0.16-1.12,0.32-1.68,0.48c-0.16,0.32-0.32,0.64-0.48,0.96
				c-0.639,4.24,1.801,21.282,2.88,27.84c-0.08,4.32-0.16,8.64-0.24,12.96c0.48,0.64,0.96,1.28,1.44,1.92v9.12
				c0.48,2.96,0.96,5.92,1.44,8.88v9.84c0.8,4.66,0.618,10.891,1.44,16.32c-0.08,1.76-0.16,3.52-0.24,5.28
				c0.854,3.219-0.115,9.381,0.96,13.68c0.757,3.028,1.598,7.42,1.92,10.8c0.373,3.915-1.076,9.621-0.24,13.68
				c0.4,0.64,0.8,1.28,1.2,1.92v16.08c1.027,6.464-0.217,15.206,0.96,22.8c2.213,14.282,1.177,33.588,2.88,46.8
				c-0.08,4.16-0.16,8.32-0.24,12.48c0,8.554,0.394,15.921,1.44,23.52c-0.08,2-0.16,4-0.24,6c1.196,3.943,10.228,11.379,13.2,14.64
				c12.542,13.765,24.443,28.48,39.36,39.84c9.156,6.973,16.249,16.741,26.16,23.04c3.357,2.133,5.314,6.77,9.84,7.68h0.24
				c1.826-4.036,0.48-23.174,0.48-29.28c0.001-15.443,0.96-31.739,0.96-48.48c0-6.469,1.531-15.17,0.24-19.68
				c0.439-0.52,0.678-0.762,1.2-1.2c4.042,1.627,8.964,10.651,11.52,14.4c1.04,0.8,2.08,1.6,3.12,2.4
				c3.064,4.066,5.56,8.348,8.64,12.48c3.377,4.53,8.344,8.523,11.52,13.2c7.872,11.592,16.294,22.578,24.96,33.6
				c3.22,4.096,6.93,7.653,9.84,12.24c5.859,9.234,14.838,16.71,20.64,26.16c0.4-0.08,0.8-0.16,1.2-0.24
				c2.351-1.707,3.355-5.705,5.04-8.16c1.146-1.67,3.391-2.945,4.56-4.56c3.492-4.822,6.442-9.799,9.6-14.88
				c5.04-8.11,12.185-15.683,17.76-23.52c8.748-12.298,16.509-24.936,25.68-36.96c0.72-0.4,1.44-0.8,2.16-1.2
				c0.24-0.88,0.48-1.76,0.72-2.64c3.391-5.202,14.121-15.722,15.12-21.84c0.8-0.24,1.6-0.48,2.4-0.72
				c0.32,0.08,0.64,0.16,0.96,0.24c0.805,1.791,0.334,5.047,0.24,7.2c0.16,7.119,0.32,14.241,0.48,21.36
				c2.878,18.708-0.944,42.216,1.92,61.2c0.876,5.81-0.388,11.168,0.48,16.08c4.203,2.434,15.696,0.96,22.32,0.96
				c20.478-0.08,40.962-0.16,61.44-0.24c0.48-0.32,0.96-0.64,1.44-0.96c0.16-12.799,0.32-25.601,0.48-38.4
				c0-14.083-0.585-27.82,1.44-41.04v-15.6c0-8.495,0.536-17.217,1.68-24.48c-0.08-7.919-0.16-15.841-0.24-23.76
				c4.533-18.716-0.7-45.032,3.6-64.8v-16.08c2.842-17.992,1.138-38.792,4.08-57.36c-0.08-3.36-0.16-6.72-0.24-10.08
				c1.096-7.174-0.082-15.11,1.2-23.28c1.784-11.371,2.729-25.022,2.64-37.44C396.515,848.148,378.091,849.84,371.04,849.84z
				 M1048.56,1157.04c-1.942-5.711-1.445-10.776-3.36-16.8c-4.402-13.85-7.828-29.565-11.52-44.4
				c-7.879-31.657-15.148-64.66-23.28-95.52c-1.701-6.454-1.191-11.077-2.88-17.52c-2.808-10.711-5.778-23.223-8.64-34.08
				c-1.561-5.921-1.382-10.944-2.64-16.32c-4.221-18.044-8.326-36.592-12.24-55.44c-1.488-7.164-4.705-15.823-4.56-23.76
				c-3.237-1.831-32.195-0.48-39.12-0.48c-33.997-0.08-68.003-0.16-102-0.24c-0.72,0.32-1.44,0.64-2.16,0.96
				c-2.282,3.447-2.713,17.056-3.84,22.32c-3.048,14.239-4.44,30.176-8.64,43.68c-0.4,3.52-0.8,7.04-1.2,10.56
				c-0.56,0.72-1.12,1.44-1.68,2.16c0.08,1.12,0.16,2.24,0.24,3.36c-0.79,4.828-1.368,9.763-2.64,14.88
				c-4.457,17.938-7.954,37.494-12.24,55.2c-0.8,4.719-1.6,9.44-2.4,14.16c-3.461,12.786-6.897,27.069-10.56,39.6
				c-2.617,8.954-3.453,17.931-6.24,25.92c-1.361,3.902-0.654,6.813-1.68,10.56c-2.423,8.846-5.69,18.947-7.92,28.08
				c-5.262,21.544-9.626,40.882-15.12,61.92c-0.741,2.839-5.806,19.969-5.52,20.88c1.022,1.61,12.169,0.96,16.32,0.96
				c17.118-0.08,34.242-0.16,51.36-0.24c2.374-3.503,2.446-8.491,3.84-12.96c3.08-9.874,5.834-19.562,8.64-30.24
				c0.32-0.16,0.64-0.32,0.96-0.48c3.823,0.552,7.005,4.491,10.32,5.76h2.64c3.307,0.886,7.677,2.93,10.8,4.08
				c5.71,2.103,11.288,1.54,17.52,2.88c6.379,1.372,14.137,3.121,21.12,4.56c5.817,1.199,11.916,1.717,16.56,2.4
				c2.503,0.368,6.491-0.722,7.92,0.72v3.12c1.249,5.312,4.528,15.861,7.44,19.92c6.799,0.16,13.601,0.32,20.4,0.48H1020
				c3.718-0.966,6.087-5.198,8.88-7.2c0.88-0.16,1.76-0.32,2.64-0.48c0.56-0.88,1.12-1.76,1.68-2.64
				c5.165-4.667,11.305-7.918,16.08-12.96c1.367-1.443,3.903-1.943,4.8-3.84C1055.05,1178.51,1049.449,1159.655,1048.56,1157.04z
				 M910.32,1132.08c-1.832,3.068-10.105,2.96-14.16,3.84c-10.886,2.361-23.405,3.81-35.76,5.28
				c-3.517,0.419-11.448,2.784-14.4,0.96c-1.049-0.84,4.077-19.298,5.28-23.28c4.866-16.109,10.945-33.208,18-47.76
				c3.2-6.601,3.74-14.175,7.44-20.4c0.48,0.08,0.96,0.16,1.44,0.24c2.526,1.471,5.186,11.006,6.72,14.16
				c7.038,14.47,14.071,30.216,19.44,46.08C905.615,1115.027,911.93,1130.199,910.32,1132.08z"/>
		</g>
	</g>
</g>
</svg>
