<?xml version="1.0" encoding="utf-8"?>
<!-- Generator: Adobe Illustrator 19.2.1, SVG Export Plug-In . SVG Version: 6.00 Build 0)  -->
<svg version="1.1" xmlns="http://www.w3.org/2000/svg" xmlns:xlink="http://www.w3.org/1999/xlink" x="0px" y="0px"
	 viewBox="0 0 736 317" style="enable-background:new 0 0 736 317;" xml:space="preserve">
<style type="text/css">
	.st0{fill:#8CBA29;}
	.st1{fill:#FFFFFF;}
</style>
<g id="Background">
</g>
<g id="M">
</g>
<g id="E">
</g>
<g id="L">
</g>
<g id="T">
</g>
<g id="Y">
	<g>
		<rect class="st0" width="736" height="317"/>
		<g>
			<g>
				<g>
					<path class="st1" d="M219.3,214.8v-57.1c0-15.8-5-23.8-14.9-23.8c-6.7,0-11.8,3.9-14.1,10.7c-1.1,2.7-1.2,6.7-1.2,8.9v61.3
						h-38.9v-58.2c0-18.7-8.1-22.6-14.9-22.6c-8.4,0-12.4,6.4-14.1,10.1c-0.9,2.6-1.3,5.5-1.3,9.2v61.5H81.2v-75.2
						c0-11.6-0.3-16.7-0.6-23c-0.1-1.9-0.2-3.9-0.3-6.2l33.4-8.8l1.6,14.3h2.6l0.4-0.5c7.9-10.9,19.5-16.7,33.5-16.7
						c14.5,0,25.5,6.5,30.3,17.9l0.3,0.7h1.9l0.4-0.5c4.2-5.7,9.3-10.1,15.6-13.6c5.8-3,12.6-4.6,20-4.6c24.3,0,38.2,18,38.2,49.3
						v67H219.3z"/>
				</g>
			</g>
		</g>
		<g>
			<path class="st1" d="M330.7,215.6c-17.1,0-32.6-5.6-43.5-15.8c-11.5-10.7-17.5-25.6-17.5-43.1c0-33.5,25.5-58.7,59.4-58.7
				c34.3,0,57.3,25.1,57.3,62.5v7.6h-80.8l0.2,0.7c2.3,9.2,11.2,19,28.9,19c8.2,0,20.9-3.5,27.5-9.3l15,22.7
				C367,210,349.2,215.6,330.7,215.6z M329.1,125.8c-12.4,0-22.3,9.3-23.8,18.1l-0.1,0.7h48l-0.1-0.7
				C352,135,342.8,125.8,329.1,125.8z"/>
		</g>
		<g>
			<g>
				<polygon class="st1" points="398.1,214.8 398.1,61.3 438.4,50.1 438.4,214.8 				"/>
			</g>
		</g>
		<g>
			<g>
				<path class="st1" d="M503.7,217.4c-11.2,0-21.7-3.8-28.2-10.3c-7.1-7.1-10.5-18.6-10.5-35.2v-42h-14.4v-28.8h14.4v-22l39.1-10.7
					v32.7h20.9l10.9,28.8h-31.8v34.4c0,12.8,2.4,20.8,14.6,20.8c4.2,0,6.2,0,9-0.6v30C522.4,216.3,513.3,217.4,503.7,217.4z"/>
			</g>
		</g>
		<path class="st1" d="M620.9,101l-17,66.2c0,0.2-0.4,1.6-1.1,3.7c-0.7-2.2-1.2-3.6-1.2-3.6L579.8,101h-42.2l41.8,104.2
			c1.6,3.1,1.8,5.2,1.8,6.7c0,2.1-1.3,4.4-2.4,5.9c-2.6,3.5-7.7,8.1-13,10.5c-0.4,0.2-0.8,0.3-1.1,0.5c-0.7,0.3-1.4,0.6-2.1,0.9
			c-0.3,0.1-0.5,0.2-0.7,0.3c-0.4,0.2-0.9,0.4-1.4,0.5c-0.3,0.1-0.6,0.2-0.9,0.3c-0.4,0.1-0.8,0.3-1.3,0.4c-0.3,0.1-0.6,0.2-0.8,0.3
			c-0.5,0.2-1,0.3-1.5,0.5c-1.9,0.5-3.6,0.9-5,1.2l8.2,33.6c14-1.7,26.4-7.3,37-16.6c12.1-10.7,23.1-27.4,40.9-76.9l24.2-72.3H620.9
			z"/>
	</g>
</g>
</svg>
