<svg id="레이어_1" data-name="레이어 1" xmlns="http://www.w3.org/2000/svg" viewBox="0 0 484 465.91"><defs><style>.cls-1{fill:#ef7e20;}.cls-2{fill:#fff;}.cls-3{fill:none;}</style></defs><title>mi</title><path class="cls-1" d="M23.84,11.55H461.63A9.37,9.37,0,0,1,471,20.92V456.54a9.37,9.37,0,0,1-9.37,9.37H23.85a9.37,9.37,0,0,1-9.37-9.37V20.92a9.37,9.37,0,0,1,9.37-9.37h0Z"/><path class="cls-2" d="M364.8,122.22h56.29V355H364.8V122.22ZM164.31,212h57.56v141H164.31V212ZM65,122.22l56.29,0.63H261.42c35.62,0,59.72,31.77,59.74,65,0,53.09.63,166.45,0.63,166.45l-54.62.23-1-149.11C266,184.64,252,171.13,231.7,170.84c-26.2-.38-92.65.42-110.4,0.65V355H65V122.22Z"/><rect class="cls-3" width="484" height="218"/></svg>