<?xml version="1.0" encoding="iso-8859-1"?><!-- Generator: Adobe Illustrator 16.0.0, SVG Export Plug-In . SVG Version: 6.00 Build 0) --><!DOCTYPE svg PUBLIC "-//W3C//DTD SVG 1.1//EN" "http://www.w3.org/Graphics/SVG/1.1/DTD/svg11.dtd"><svg version="1.1" xmlns="http://www.w3.org/2000/svg" xmlns:xlink="http://www.w3.org/1999/xlink" x="0px" y="0px" width="191.32px" height="191.343px" viewBox="0 0 191.32 191.343" style="enable-background:new 0 0 191.32 191.343;" xml:space="preserve"><g id="Layer_3"></g><g id="Layer_2"></g><g id="Layer_1"><rect style="fill:#FFFFFF;" width="191.32" height="191.343"/><rect x="0.847" y="0.848" style="fill:#FFFFFF;" width="189.76" height="189.76"/><path style="fill:#FFFFFF;" d="M173.335,135.269V13.316H19.18v121.953H173.335z"/><g><linearGradient id="SVGID_1_" gradientUnits="userSpaceOnUse" x1="47.6919" y1="92.6587" x2="89.8944" y2="50.4562"><stop offset="0.1695" style="stop-color:#C9CA4C"/><stop offset="0.4181" style="stop-color:#C8C94C"/><stop offset="0.578" style="stop-color:#C2C74D"/><stop offset="0.7128" style="stop-color:#B9C350"/><stop offset="0.8337" style="stop-color:#ABBD52"/><stop offset="0.9443" style="stop-color:#9AB656"/><stop offset="1" style="stop-color:#90B258"/></linearGradient><path style="fill:url(#SVGID_1_);" d="M95.063,56.689L52.538,36.813v59.628l42.526-0.155V56.689z"/></g><g><linearGradient id="SVGID_2_" gradientUnits="userSpaceOnUse" x1="100.064" y1="50.5698" x2="142.0849" y2="92.5908"><stop offset="0" style="stop-color:#637E3E"/><stop offset="0.077" style="stop-color:#78974A"/><stop offset="0.1512" style="stop-color:#89AB54"/><stop offset="0.1921" style="stop-color:#90B258"/><stop offset="0.1969" style="stop-color:#93B357"/><stop offset="0.2289" style="stop-color:#A3BA54"/><stop offset="0.2657" style="stop-color:#B2C051"/><stop offset="0.3087" style="stop-color:#BDC54F"/><stop offset="0.362" style="stop-color:#C4C84D"/><stop offset="0.4367" style="stop-color:#C8CA4C"/><stop offset="0.6441" style="stop-color:#C9CA4C"/></linearGradient><path style="fill:url(#SVGID_2_);" d="M137.203,36.813L95.039,56.689v39.752h42.164V36.813z"/></g><g><linearGradient id="SVGID_3_" gradientUnits="userSpaceOnUse" x1="96.4902" y1="81.5811" x2="140.0027" y2="125.0936"><stop offset="0" style="stop-color:#66813F"/><stop offset="0.226" style="stop-color:#90B258"/><stop offset="0.2586" style="stop-color:#96B457"/><stop offset="0.3788" style="stop-color:#A8BC53"/><stop offset="0.5067" style="stop-color:#B7C250"/><stop offset="0.6441" style="stop-color:#C1C74E"/><stop offset="0.7976" style="stop-color:#C8C94C"/><stop offset="1" style="stop-color:#C9CA4C"/></linearGradient><path style="fill:url(#SVGID_3_);" d="M144.463,119.538v-5.239l-34.977-44.683v49.922H144.463z"/></g><g><linearGradient id="SVGID_4_" gradientUnits="userSpaceOnUse" x1="93.8257" y1="81.8628" x2="50.3133" y2="125.3752"><stop offset="0" style="stop-color:#577036"/><stop offset="0.2712" style="stop-color:#90B258"/><stop offset="0.3164" style="stop-color:#9AB656"/><stop offset="0.4093" style="stop-color:#ABBD53"/><stop offset="0.5107" style="stop-color:#B9C350"/><stop offset="0.6234" style="stop-color:#C2C74D"/><stop offset="0.7564" style="stop-color:#C8C94C"/><stop offset="0.9605" style="stop-color:#C9CA4C"/></linearGradient><path style="fill:url(#SVGID_4_);" d="M80.813,119.835V69.914l-34.976,44.683v5.238H80.813z"/></g><g><linearGradient id="SVGID_5_" gradientUnits="userSpaceOnUse" x1="45.6147" y1="42.668" x2="78.685" y2="42.668"><stop offset="0" style="stop-color:#000000"/><stop offset="0" style="stop-color:#839363"/><stop offset="0.0451" style="stop-color:#89986A"/><stop offset="0.3732" style="stop-color:#B5BF9F"/><stop offset="0.6532" style="stop-color:#D8DECC"/><stop offset="0.871" style="stop-color:#F0F3EC"/><stop offset="1" style="stop-color:#FFFFFF"/></linearGradient><path style="fill:url(#SVGID_5_);" d="M43.062,28.647l7.165,6.625c10.323,7.55,25.269,14.638,44.837,21.417v-3.698L43.062,28.647z	"/></g><g><linearGradient id="SVGID_6_" gradientUnits="userSpaceOnUse" x1="95.1484" y1="43.6694" x2="137.3068" y2="43.6694"><stop offset="0" style="stop-color:#DEE6E1"/><stop offset="1" style="stop-color:#78875B"/></linearGradient><path style="fill:url(#SVGID_6_);" d="M137.203,36.813l5.084-6.163l-47.26,22.333l0.01,3.706	C115.684,48.214,129.731,41.589,137.203,36.813z"/></g><g><linearGradient id="SVGID_7_" gradientUnits="userSpaceOnUse" x1="109.3301" y1="93.6963" x2="157.6338" y2="93.6963"><stop offset="0" style="stop-color:#FFFFFF"/><stop offset="0.1339" style="stop-color:#EFF1EA"/><stop offset="0.3723" style="stop-color:#D3DAC6"/><stop offset="0.6862" style="stop-color:#ABB793"/><stop offset="1" style="stop-color:#839363"/></linearGradient><path style="fill:url(#SVGID_7_);" d="M109.33,65.153l0.154,4.854c11.247,16.178,23.343,31.663,36.131,46.532l12.019,5.701	L109.33,65.153z"/></g><g><linearGradient id="SVGID_8_" gradientUnits="userSpaceOnUse" x1="25.4634" y1="94.1685" x2="71.4158" y2="94.1685"><stop offset="0" style="stop-color:#739148"/><stop offset="1" style="stop-color:#DEE6E1"/></linearGradient><path style="fill:url(#SVGID_8_);" d="M80.805,70.248l0.077-5.007l-45.761,57.856l8.551-5.162	C54.149,107.997,66.553,92.127,80.805,70.248z"/></g><g><radialGradient id="SVGID_9_" cx="95.208" cy="77.2539" r="106.5904" gradientUnits="userSpaceOnUse"><stop offset="0" style="stop-color:#000000"/><stop offset="0.0311" style="stop-color:#4B4B4D"/><stop offset="0.0824" style="stop-color:#747577"/><stop offset="0.1361" style="stop-color:#959799"/><stop offset="0.1912" style="stop-color:#B3B5B7"/><stop offset="0.248" style="stop-color:#CDCFD0"/><stop offset="0.307" style="stop-color:#E2E2E3"/><stop offset="0.3692" style="stop-color:#F0F1F1"/><stop offset="0.4368" style="stop-color:#FAFAFA"/><stop offset="0.5198" style="stop-color:#FFFFFF"/></radialGradient><path style="fill:url(#SVGID_9_);" d="M128.575,91.973c8.782,11.325,18.72,22.265,30.045,32.896l-1.694-110.166	c-24.113,26.424-39.983,43.296-47.61,50.46C117.174,76.565,123.567,85.501,128.575,91.973z"/></g><g><radialGradient id="SVGID_10_" cx="95.334" cy="77.2158" r="108.1457" gradientUnits="userSpaceOnUse"><stop offset="0" style="stop-color:#000000"/><stop offset="0.0688" style="stop-color:#5A5A5C"/><stop offset="0.171" style="stop-color:#8F9193"/><stop offset="0.2631" style="stop-color:#BCBEC0"/><stop offset="0.3416" style="stop-color:#DEDFE0"/><stop offset="0.4033" style="stop-color:#F4F4F5"/><stop offset="0.4407" style="stop-color:#FFFFFF"/></radialGradient><path style="fill:url(#SVGID_10_);" d="M129.548,38.431c10.632-5.393,17.411-10.631,20.492-15.484L92,16.053l-54.667,4.812	c4.776,6.548,13.173,12.866,25.192,18.797c4.545,2.312,9.938,4.7,16.332,7.242c2.543,1.002,8.013,3.159,16.178,6.317	C110.135,47.444,121.613,42.591,129.548,38.431z"/></g><g><path style="fill:#FFFFFF;" d="M34.28,13.316h-3.775l0.308,112.4c6.164-4.545,13.328-11.71,21.648-21.571	c9.321-11.017,18.72-23.959,28.428-38.905L67.021,51.835c-5.008-5.007-9.245-9.244-12.558-12.943	C47.068,30.958,40.366,22.406,34.28,13.316z"/></g><g><path style="fill:#FFFFFF;" d="M19.147,130.477v4.775h154.155v-3.467c-11.864-6.778-22.265-13.097-31.201-18.874	c-17.18-11.325-32.896-23.188-47.07-35.746c-13.944,13.79-29.429,26.04-46.609,36.748c-7.858,4.931-17.025,10.092-27.58,15.716	L19.147,130.477z"/></g><g><g><path style="fill:#9ABF5E;" d="M174.571,133.666h-0.396l-0.477,1.504c-0.078,0.119-0.118,0.238-0.118,0.316	c-0.04-0.078-0.08-0.158-0.119-0.276l-0.516-1.544h-0.396v2.138h0.238v-1.821l0.634,1.821h0.236l0.635-1.782v1.782h0.277V133.666	L174.571,133.666z"/><polygon style="fill:#9ABF5E;" points="171.561,133.942 172.234,133.942 172.234,133.666 170.571,133.666 170.571,133.942	171.284,133.942 171.284,135.804 171.561,135.804 171.561,133.942	"/></g><polygon style="fill:#9ABF5E;" points="161.766,133.669 149.838,143.32 137.969,133.669 131.256,133.669 146.541,146.018	131.256,158.366 137.969,158.366 149.838,148.655 161.766,158.366 168.419,158.366 153.194,146.018 168.419,133.669	161.766,133.669	"/><path style="fill:#9ABF5E;" d="M129.278,146.018c0-5.515-1.438-9.59-4.195-12.349h-24.396c-2.878,2.759-4.316,6.834-4.316,12.349	c0,5.514,1.438,9.59,4.316,12.349h24.396C127.84,155.607,129.278,151.472,129.278,146.018L129.278,146.018z M125.202,146.018	c0,1.858-0.418,3.775-1.199,5.755l-1.139,2.577h-20.021l-1.139-2.577c-0.839-1.979-1.199-3.896-1.199-5.755	c0-2.937,0.78-5.695,2.338-8.272h20.021C124.423,140.322,125.202,143.081,125.202,146.018L125.202,146.018z"/><path style="fill:#9ABF5E;" d="M90.138,147.037v-2.038l1.798-0.96c-0.42-4.615-1.798-8.091-4.136-10.37H63.403	c-2.338,2.219-3.776,5.695-4.136,10.31h-3.955v4.077h3.955c0.36,4.614,1.798,8.032,4.136,10.311H87.8	c2.338-2.339,3.715-5.755,4.136-10.311L90.138,147.037L90.138,147.037z M85.582,137.745c1.079,1.858,1.857,3.896,2.218,6.233	H63.403c0.36-2.337,1.079-4.375,2.218-6.233H85.582L85.582,137.745z M87.8,148.056c-0.36,2.338-1.139,4.436-2.218,6.294H65.621	c-1.139-1.858-1.858-3.956-2.218-6.294H87.8L87.8,148.056z"/><polygon style="fill:#9ABF5E;" points="41.885,146.018 57.109,133.669 50.396,133.669 38.528,143.32 26.6,133.669 20.006,133.669	35.171,146.018 20.006,158.366 26.6,158.366 38.528,148.655 50.396,158.366 57.109,158.366 41.885,146.018	"/></g><g><path style="fill:#90B258;" d="M148.2,30.858h-0.396l-0.476,1.504c-0.078,0.12-0.118,0.238-0.118,0.317	c-0.04-0.079-0.08-0.159-0.119-0.277l-0.516-1.544h-0.396v2.138h0.238v-1.822l0.634,1.822h0.236l0.634-1.783v1.783h0.278V30.858	L148.2,30.858z"/><polygon style="fill:#90B258;" points="145.189,31.135 145.863,31.135 145.863,30.858 144.2,30.858 144.2,31.135 144.913,31.135	144.913,32.997 145.189,32.997 145.189,31.135	"/></g></g></svg>