<?xml version="1.0" encoding="iso-8859-1"?><!-- Generator: Adobe Illustrator 16.0.0, SVG Export Plug-In . SVG Version: 6.00 Build 0) --><!DOCTYPE svg PUBLIC "-//W3C//DTD SVG 1.1//EN" "http://www.w3.org/Graphics/SVG/1.1/DTD/svg11.dtd"><svg version="1.1" id="svg2" inkscape:version="0.48.3.1 r9886" sodipodi:docname="l.svg" xmlns:rdf="http://www.w3.org/1999/02/22-rdf-syntax-ns#" xmlns:sodipodi="http://sodipodi.sourceforge.net/DTD/sodipodi-0.dtd" xmlns:dc="http://purl.org/dc/elements/1.1/" xmlns:inkscape="http://www.inkscape.org/namespaces/inkscape" xmlns:svg="http://www.w3.org/2000/svg" xmlns:cc="http://creativecommons.org/ns#" xmlns="http://www.w3.org/2000/svg" xmlns:xlink="http://www.w3.org/1999/xlink" x="0px" y="0px" width="114.74px" height="107.5px" viewBox="0 0 114.74 107.5" style="enable-background:new 0 0 114.74 107.5;" xml:space="preserve"><sodipodi:namedview id="namedview122" inkscape:window-y="0" inkscape:window-width="1280" fit-margin-bottom="0" inkscape:pageshadow="2" fit-margin-right="0" inkscape:window-maximized="1" inkscape:window-x="0" inkscape:window-height="960" inkscape:pageopacity="0" inkscape:current-layer="svg2" fit-margin-left="0" objecttolerance="10" bordercolor="#666666" guidetolerance="10" inkscape:cx="155.29607" showgrid="false" borderopacity="1" pagecolor="#ffffff" inkscape:cy="53.75" inkscape:zoom="1.0905983" gridtolerance="10" fit-margin-top="0"></sodipodi:namedview><path id="path38" inkscape:connector-curvature="0" style="fill:#733781;" d="M57.438,0h7.538c0,9.2,0,18.388,0,27.587	c9.162-0.175,18.324-0.05,27.5-0.087c-0.014-1.538-0.014-3.075,0-4.612c-2.338-0.863-6.051-0.475-6.875-3.425	c-1.801-4.625,3.137-7.65,5.699-10.688c2.938-2.762,6.075-7.737,10.812-5.825c3.35,1.925,5.676,5.162,8.45,7.8	c1.899,2.163,4.888,4.475,4.024,7.763c-0.35,3.575-4.475,3.587-7.111,4.387c0.012,13.613-0.038,27.238,0.037,40.85	c-0.088,2.537,0.1,5.287-1.287,7.55c-2.264,1.312-4.963,1.175-7.451,1.237C91.25,72.5,83.737,72.487,76.226,72.5	c-0.014,1.537-0.014,3.075,0,4.6c2.6,0.801,6.75,0.75,7.111,4.301c0.938,3-1.637,5.274-3.438,7.25c-2.725,2.688-5.174,5.699-8.25,8	c-2.012,1.425-4.5,0.3-6.688,0.087c0.014,3.588,0.014,7.175,0.014,10.763h-7.851c-19.012-3.475-38.087-6.65-57.125-10	c0-29.162,0-58.325,0-87.475C19.15,6.675,38.3,3.413,57.438,0z"/><path id="path42" inkscape:connector-curvature="0" style="fill:#FFFFFF;" d="M98.312,7.05c1.438-1.837,3.5-0.112,4.562,1.175	c2.899,3.375,6.774,6.087,8.625,10.262c-2.601,0.188-5.2,0.263-7.774,0.312c-0.025,16.638,0.049,33.263-0.051,49.9	c-9.15,0.1-18.3,0.024-27.449,0.05c-0.014-2.5-0.014-5,0-7.5c6.662,0,13.324,0,20,0c0-14.15,0-28.3,0-42.45	c-2.613-0.05-5.213-0.125-7.788-0.287C90.625,13.888,94.925,10.763,98.312,7.05z"/><path id="path70" inkscape:connector-curvature="0" style="fill:#FFFFFF;" d="M65.05,31.312c9.138-0.125,18.275-0.038,27.426-0.062	c-0.014,2.5-0.014,5,0,7.5c-6.676,0-13.338,0-20,0c0,14.163,0,28.312,0,42.475C75,81.25,77.55,81.287,80.101,81.4	c-1.764,4.8-6.413,7.774-9.688,11.537c-1.926,2.2-4.025-0.65-5.463-1.875C65.05,71.15,64.862,51.225,65.05,31.312z"/><path id="path84" inkscape:connector-curvature="0" style="fill:#FFFFFF;" d="M27.413,32.888c2.487-0.125,4.975-0.263,7.475-0.4	c0.163,14.175,0.05,28.362,0.088,42.538c-2.538-0.301-5.062-0.588-7.575-0.875C27.413,60.4,27.375,46.638,27.413,32.888z"/><path id="path104" inkscape:connector-curvature="0" style="fill:#FFFFFF;" d="M76.226,42.5c5.412,0,10.824,0,16.25,0c0,5,0,10,0,15	c-5.426,0-10.838,0-16.25,0C76.212,52.5,76.212,47.5,76.226,42.5z"/></svg>