<?xml version="1.0" encoding="iso-8859-1"?><!-- Generator: Adobe Illustrator 16.0.0, SVG Export Plug-In . SVG Version: 6.00 Build 0) --><!DOCTYPE svg PUBLIC "-//W3C//DTD SVG 1.1//EN" "http://www.w3.org/Graphics/SVG/1.1/DTD/svg11.dtd"><svg version="1.1" id="svg2" inkscape:version="0.48.3.1 r9886" sodipodi:docname="n.svg" xmlns:rdf="http://www.w3.org/1999/02/22-rdf-syntax-ns#" xmlns:sodipodi="http://sodipodi.sourceforge.net/DTD/sodipodi-0.dtd" xmlns:dc="http://purl.org/dc/elements/1.1/" xmlns:inkscape="http://www.inkscape.org/namespaces/inkscape" xmlns:svg="http://www.w3.org/2000/svg" xmlns:cc="http://creativecommons.org/ns#" xmlns="http://www.w3.org/2000/svg" xmlns:xlink="http://www.w3.org/1999/xlink" x="0px" y="0px" width="111.272px" height="107.5px" viewBox="0 0 111.272 107.5" style="enable-background:new 0 0 111.272 107.5;" xml:space="preserve"><sodipodi:namedview id="namedview122" inkscape:window-y="0" inkscape:window-width="1280" fit-margin-bottom="0" inkscape:pageshadow="2" fit-margin-right="0" inkscape:window-maximized="1" inkscape:window-x="0" inkscape:window-height="960" inkscape:pageopacity="0" inkscape:current-layer="svg2" fit-margin-left="0" objecttolerance="10" bordercolor="#666666" guidetolerance="10" inkscape:cx="-13.79109" showgrid="false" borderopacity="1" pagecolor="#ffffff" inkscape:cy="53.75" inkscape:zoom="1.0905983" gridtolerance="10" fit-margin-top="0"></sodipodi:namedview><path id="path30" inkscape:connector-curvature="0" style="fill:#077467;" d="M57.559,0h7.426c0,7.5,0,15,0,22.5	c2.925,0,5.862,0,8.8,0c0.35-4.462-1.663-11.55,3.962-13.375c7.775-0.913,15.663-0.087,23.488-0.413	c3.087,0.275,7.037-0.75,9.362,1.888c0.662,1.788,0.575,3.75,0.662,5.637c-0.037,17.075-0.062,34.163,0.013,51.237	c-0.05,2.275-0.013,4.625-0.775,6.801c-3.787,1.237-7.862,0.625-11.762,0.737c-0.188,5.7,0.487,11.487-0.4,17.138	c-1.062,2.925-4.537,2.787-7.075,2.862C82.496,95.037,73.746,94.975,64.985,95c0,4.162,0,8.338,0,12.5h-7.738	c-19.062-3.463-38.162-6.65-57.237-10c-0.013-29.162-0.013-58.325,0-87.487C19.184,6.675,38.384,3.388,57.559,0z"/><path id="path44" inkscape:connector-curvature="0" style="fill:#FFFFFF;" d="M79.834,12.875c9.188-0.812,18.438-0.175,27.65-0.375	c0,19.163,0,38.337,0,57.5c-2.926,0-5.838,0-8.75,0c-0.025-15.025,0.037-30.038-0.025-45.062	C92.834,20.288,84.947,18.35,79.834,12.875z"/><path id="path62" inkscape:connector-curvature="0" style="fill:#FFFFFF;" d="M64.985,26.25c9.587,0,19.162,0,28.75,0	c0,21.663,0,43.338,0,65c-9.588,0-19.163,0-28.75,0c-0.013-2.5-0.013-5,0-7.5c7.087,0,14.162,0,21.25,0	c-0.013-1.662-0.013-3.338,0-5c-7.088,0-14.163,0-21.25,0c-0.013-2.088-0.013-4.162,0-6.25c7.087,0,14.162,0,21.25,0	c-0.013-1.662-0.013-3.338,0-5c-7.088,0-14.163,0-21.25,0c-0.013-2.088-0.013-4.162,0-6.25c7.087,0,14.162,0,21.25,0	c-0.013-1.662-0.013-3.338,0-5c-7.088,0-14.163,0-21.25,0c-0.013-2.087-0.013-4.163,0-6.25c7.087,0,14.162,0,21.25,0	c0-5.837,0-11.663,0-17.5c-7.088,0-14.163,0-21.25,0C64.972,30.413,64.972,28.337,64.985,26.25z"/><path id="path82" inkscape:connector-curvature="0" style="fill:#FFFFFF;" d="M19.985,33.087c6.812,0.212,15.087-2.75,20.737,2.363	c5.362,6.562,3.925,18.537-4.062,22.45c-2.838,1.449-6.088,1.262-9.163,1.137c-0.012,4.9-0.024,9.801-0.012,14.713	c-2.525-0.25-5.051-0.5-7.562-0.775C20.047,59.675,19.934,46.388,19.985,33.087z"/><path id="path100" inkscape:connector-curvature="0" style="fill:#077467;" d="M27.485,39.8c2.475-0.137,5.574-0.587,7.225,1.8	c1.375,2.45,1.275,5.637,0.112,8.15c-1.45,2.562-4.649,2.312-7.149,2.6C27.422,48.175,27.459,43.987,27.485,39.8z"/></svg>