<?xml version="1.0" encoding="iso-8859-1"?><!-- Generator: Adobe Illustrator 16.0.0, SVG Export Plug-In . SVG Version: 6.00 Build 0) --><!DOCTYPE svg PUBLIC "-//W3C//DTD SVG 1.1//EN" "http://www.w3.org/Graphics/SVG/1.1/DTD/svg11.dtd"><svg version="1.1" id="svg2" inkscape:version="0.48.3.1 r9886" sodipodi:docname="excle.svg" xmlns:rdf="http://www.w3.org/1999/02/22-rdf-syntax-ns#" xmlns:sodipodi="http://sodipodi.sourceforge.net/DTD/sodipodi-0.dtd" xmlns:dc="http://purl.org/dc/elements/1.1/" xmlns:inkscape="http://www.inkscape.org/namespaces/inkscape" xmlns:svg="http://www.w3.org/2000/svg" xmlns:cc="http://creativecommons.org/ns#" xmlns="http://www.w3.org/2000/svg" xmlns:xlink="http://www.w3.org/1999/xlink" x="0px" y="0px" width="110.031px" height="107.5px" viewBox="0 0 110.031 107.5" style="enable-background:new 0 0 110.031 107.5;" xml:space="preserve"><sodipodi:namedview id="namedview122" inkscape:window-y="0" inkscape:window-width="1280" fit-margin-bottom="0" inkscape:pageshadow="2" fit-margin-right="0" inkscape:window-maximized="1" inkscape:window-x="0" inkscape:window-height="960" inkscape:pageopacity="0" inkscape:current-layer="svg2" fit-margin-left="0" objecttolerance="10" bordercolor="#666666" guidetolerance="10" inkscape:cx="70.49345" showgrid="false" borderopacity="1" pagecolor="#ffffff" inkscape:cy="53.75" inkscape:zoom="1.0905983" gridtolerance="10" fit-margin-top="0"></sodipodi:namedview><g id="g3607" transform="translate(-223.01556,0)"><path id="path14" inkscape:connector-curvature="0" style="fill:#D24625;" d="M280.909,0h7.087c0,3.75,0,7.5,0,11.25	c13.363,0.075,26.738-0.138,40.088,0.062c2.875-0.275,5.125,1.962,4.838,4.837c0.212,23.35-0.051,46.712,0.125,70.075	c-0.125,2.525,0.25,5.325-1.2,7.562c-1.825,1.325-4.2,1.15-6.338,1.25c-12.5-0.062-25-0.037-37.513-0.037c0,4.162,0,8.338,0,12.5	h-7.774c-19.05-3.475-38.138-6.65-57.2-10c-0.013-29.162,0-58.325,0-87.475C242.308,6.688,261.596,3.288,280.909,0z"/><path id="path54" inkscape:connector-curvature="0" style="fill:#FFFFFF;" d="M287.996,15c13.75,0,27.5,0,41.25,0	c0,25.413,0,50.838,0,76.25c-13.75,0-27.5,0-41.25,0c0-3.338,0-6.662,0-10c10,0,20,0,30,0c0-1.662,0-3.338,0-5c-10,0-20,0-30,0	c0-2.088,0-4.162,0-6.25c10,0,20,0,30,0c0-1.662,0-3.338,0-5c-10,0-20,0-29.987,0c-0.013-2.45-0.013-4.9-0.024-7.35	c4.949,1.537,10.587,1.5,15.012-1.476c4.788-2.837,7.288-8.25,7.7-13.65c-5.487-0.038-10.975-0.025-16.45-0.025	c-0.012-5.438,0.062-10.875-0.112-16.3c-2.05,0.4-4.1,0.825-6.138,1.262C287.996,23.312,287.996,19.15,287.996,15z"/><path id="path60" inkscape:connector-curvature="0" style="fill:#D24625;" d="M296.759,23.587c8.688,0.4,15.987,7.712,16.45,16.375	C307.721,40.025,302.234,40,296.746,40C296.746,34.525,296.734,29.05,296.759,23.587z"/><path id="path74" inkscape:connector-curvature="0" style="fill:#FFFFFF;" d="M243.071,33.025c6.788,0.325,15.013-2.688,20.638,2.4	c5.388,6.538,3.963,18.562-4.025,22.476c-2.837,1.449-6.087,1.25-9.175,1.149c-0.013,4.888-0.024,9.775-0.013,14.663	c-2.475-0.213-4.962-0.426-7.438-0.625C242.946,59.737,242.922,46.375,243.071,33.025z"/><path id="path94" inkscape:connector-curvature="0" style="fill:#D24625;" d="M250.496,39.788c2.463-0.113,5.513-0.562,7.176,1.75	c1.425,2.45,1.35,5.675,0.162,8.2c-1.425,2.575-4.65,2.325-7.138,2.625C250.433,48.175,250.459,43.987,250.496,39.788z"/></g></svg>