<?xml version="1.0" encoding="iso-8859-1"?><!-- Generator: Adobe Illustrator 16.0.0, SVG Export Plug-In . SVG Version: 6.00 Build 0) --><!DOCTYPE svg PUBLIC "-//W3C//DTD SVG 1.1//EN" "http://www.w3.org/Graphics/SVG/1.1/DTD/svg11.dtd"><svg version="1.1" id="Layer_1" xmlns="http://www.w3.org/2000/svg" xmlns:xlink="http://www.w3.org/1999/xlink" x="0px" y="0px" width="192.756px" height="192.756px" viewBox="0 0 192.756 192.756" style="enable-background:new 0 0 192.756 192.756;" xml:space="preserve"><g><polygon style="fill-rule:evenodd;clip-rule:evenodd;fill:#FFFFFF;" points="0,0 192.756,0 192.756,192.756 0,192.756 0,0	"/><path style="fill-rule:evenodd;clip-rule:evenodd;" d="M182.977,71.045c-1.629,0-2.902,1.139-2.902,2.801	c0,1.661,1.281,2.794,2.902,2.794s2.902-1.14,2.902-2.794C185.879,72.185,184.604,71.045,182.977,71.045L182.977,71.045	L182.977,71.045L182.977,71.045z M182.977,75.846c-1.162,0-2.025-0.851-2.025-1.999c0-1.149,0.855-2.006,2.025-2.006	c1.154,0,2.025,0.87,2.025,2.006C185.002,74.975,184.125,75.846,182.977,75.846L182.977,75.846L182.977,75.846L182.977,75.846z"/><path style="fill-rule:evenodd;clip-rule:evenodd;" d="M106.926,65.681c-1.547,2.236-2.236,5.16-0.172,6.365s4.299,0,5.674-1.548	c1.377-1.548,2.064-4.816,0.689-6.193C111.74,62.928,108.645,62.756,106.926,65.681L106.926,65.681L106.926,65.681L106.926,65.681z	"/><path style="fill-rule:evenodd;clip-rule:evenodd;" d="M182.176,52.339l-5.508,6.199l0,0c-0.861,0.861-0.861,0.861-0.516-0.517l0,0	l1.205-3.616l-8.264,2.239l0,0c0,0-3.441,9.644-4.818,12.744c-2.41,4.994-6.988,10.427-10.154,11.882	c-3.186,1.464-4.303-1.033-4.303-3.1c11.703-4.994,11.875-13.088,11.531-14.638c-0.344-2.238-2.467-4.28-8.777-1.033	c-6.025,3.1-10.242,11.71-10.672,16.188c-1.377,3.789-4.82,7.578-5.68,7.578c-0.861,0-1.721,0.344-0.689-3.1l0,0l11.359-31.515	l-8.434,2.756l0,0c0,0-9.293,24.282-11.359,29.448c-2.064,5.166-4.99,7.663-6.539,7.922c-1.074,0.179-1.205-0.172-0.346-2.928l0,0	l11.877-32.376l-8.779,2.928l0,0c0,0-9.982,24.626-12.047,30.481c-2.066,5.855-4.82,6.199-5.68,6.371	c-0.861,0.173-1.723-0.344-0.689-3.443l0,0l5.852-15.671l-8.434,2.583l0,0c0,0-3.959,10.161-6.195,15.155	c-2.238,4.994-5.508,8.008-8.176,8.008c-1.549,0-1.205-1.722-0.344-4.822l0,0l10.499-26.004l0,0	c3.1-8.094-2.237-15.327-4.302-17.049l0,0L78.819,66.977l0,0c-0.172-3.616-3.098-7.836-4.475-9.213l0,0L56.788,71.885l0,0	c-1.205-3.789-3.442-7.233-6.541-10.333c-8.778-6.716-20.344-7.129-33.907-0.344C1.883,68.44,2.055,81.873,3.432,84.628	c4.992,14.293,20.31,10.333,23.924,8.783c11.36-4.649,11.36-16.016,10.671-19.632l0,0l-14.286,7.578l0,0	c1.721,4.133-1.549,7.75-4.131,8.783c-2.582,1.033-10.155,1.206-12.393-6.544c-2.237-7.749,3.27-15.154,12.909-19.459	s18.761-2.239,23.752,3.272s3.442,14.293-1.033,24.282c-4.475,9.989-21.171,37.542-22.547,39.781l0,0l15.663-5.166l0,0	c3.27-5.339,16.351-30.481,18.933-37.542c1.537-4.205,2.237-9.3,2.065-13.088l0,0l7.659-6.2l0,0	c2.237,2.411,1.463,7.405,0.603,9.816c-2.41,11.882-14.975,38.92-17.212,42.708l0,0l13.941-4.821l0,0	c1.894-1.723,12.221-27.727,13.77-33.409c1.289-4.729,2.754-8.611,2.754-12.572l0,0l7.315-5.941l0,0	c2.753,1.55,0.947,8.868-0.086,11.279c0,0-6.541,15.844-8.95,22.043c-2.41,6.2-1.205,12.228,3.787,12.571	c7.573-0.344,13.167-8.18,14.716-9.901c0.688,1.55,2.554,4.048,5.164,3.271c3.184-0.947,7.057-4.478,9.295-6.544	c1.031,1.033,2.064,2.928,4.818,2.066c4.131-1.033,8.951-6.199,10.5-7.749c1.205,2.066,1.721,3.1,6.195,1.55	s9.037-7.405,10.93-9.816c0,1.55,3.867,4.803,7.66,3.617c4.131-1.292,9.725-7.405,11.445-9.472l0,0l-1.205,4.478l7.66-2.239l0,0	c0,0,3.957-10.677,6.539-15.499c2.363-4.413,3.615-2.239,4.303-1.378c0.689,0.861,1.377,1.55,3.443,1.378	c4.303-0.344,6.713-4.822,7.918-7.061C183.381,57.85,183.209,54.75,182.176,52.339L182.176,52.339L182.176,52.339L182.176,52.339z M155.34,65.836c1.896-1.208,2.107-0.136,1.725,0.95c-0.518,1.467-1.984,4.834-5.176,6.733c-0.861,0.345-0.861-0.172-0.861-0.604	C151.631,70.757,153.441,67.045,155.34,65.836L155.34,65.836L155.34,65.836L155.34,65.836z"/><path style="fill-rule:evenodd;clip-rule:evenodd;" d="M184.701,81.176c-0.004,0.001-0.006,0.001-0.01,0.002l0,0L16.898,140.56l0,0	c0,0-0.007,0.014-0.017,0.036l0,0l0.355,0.511l0,0c0.03-0.01,0.058-0.019,0.091-0.031c35.14-13.148,80.417-22.858,104.646-16.758	c11.514-14.952,45.02-35.319,62.891-42.451l0.002,0l0,0L184.701,81.176L184.701,81.176L184.701,81.176z"/><path style="fill-rule:evenodd;clip-rule:evenodd;" d="M183.473,74.044c0.41-0.021,0.729-0.232,0.729-0.798	c0-0.729-0.477-0.913-1.273-0.913l0,0h-1.145v3.027h0.764v-1.289h0.129l0.695,1.289h0.879L183.473,74.044L183.473,74.044	L183.473,74.044z M182.982,73.555h-0.434v-0.698h0.365l0,0c0.225,0,0.482,0.027,0.482,0.319	C183.396,73.487,183.248,73.555,182.982,73.555L182.982,73.555L182.982,73.555L182.982,73.555z"/></g></svg>