<?xml version="1.0" encoding="utf-8"?>
<!-- Generator: Adobe Illustrator 18.0.0, SVG Export Plug-In . SVG Version: 6.00 Build 0)  -->
<!DOCTYPE svg PUBLIC "-//W3C//DTD SVG 1.1//EN" "http://www.w3.org/Graphics/SVG/1.1/DTD/svg11.dtd">
<svg version="1.1" id="Layer_1" xmlns="http://www.w3.org/2000/svg" xmlns:xlink="http://www.w3.org/1999/xlink" x="0px" y="0px"
	 viewBox="0 0 792 612" enable-background="new 0 0 792 612" xml:space="preserve">
<g>
	<path fill="#FF0037" d="M153.3,346v-31.8c0-7.7-1.2-12.6-13.5-12.6h-4.7c-9.7,0-14.6,5.3-14.6,13.5v31h-19.4v-31.2
		c0-7.8-2.8-13.2-14-13.2h-5.7c-9.4,0-13,5.3-13,13.1V346H48.9v-57.8h19.4v9c4.4-5.5,8.7-9,18.5-9h11.4c12.8,0,17.9,4.9,19.8,8.4
		c3.5-5.1,7.3-8.4,21.8-8.4h6.9c18.7,0,26.1,9,26.1,22.1V346H153.3z"/>
	<path fill="#FF0037" d="M237,346h-27.1c-16.3,0-25.4-9.5-25.4-22.8v-12.1c0-12.8,8.3-23.2,25.4-23.2h27c17,0,25.4,10.3,25.4,23.2
		v12.3C262.3,336.7,253.5,346,237,346z M242.8,312.7c0-6.8-4-11.4-12.5-11.4h-13.2c-9,0-13.2,3.7-13.2,11.2v9.5
		c0,7.3,4.2,10.6,13.2,10.6h13.2c8.5,0,12.5-3,12.5-10.8V312.7z"/>
	<path fill="#FF0037" d="M332.7,346v-30.2c0-10.1-3.7-14.3-13.7-14.3h-9.6c-9.8,0-15.4,5.5-15.4,15.8V346h-19.4v-57.8H294v8.2
		c0.4-0.9,3.4-8.2,16.7-8.2h15.7c17.1,0,25.7,8.8,25.7,23.8v34H332.7z"/>
	<path fill="#FF0037" d="M417.6,346h-27.1c-16.3,0-25.4-9.5-25.4-22.8v-12.1c0-12.8,8.3-23.2,25.4-23.2h27c17,0,25.4,10.3,25.4,23.2
		v12.3C442.8,336.7,434.1,346,417.6,346z M423.4,312.7c0-6.8-4-11.4-12.5-11.4h-13.2c-9,0-13.2,3.7-13.2,11.2v9.5
		c0,7.3,4.2,10.6,13.2,10.6h13.2c8.5,0,12.5-3,12.5-10.8V312.7z"/>
	<path fill="#FF0037" d="M501.9,346l-20.7-25h-7.1v25h-19.4v-81.2h19.4V309h7.1l19.5-20.7h21.9l-27,26.8l29.5,31H501.9z"/>
	<path fill="#FF0037" d="M578.8,346h-28.4c-16.3,0-23.9-9.5-23.9-22.1v-14.6c0-10.2,6.9-21.3,24.2-21.3h27.6
		c19.1,0,24.8,11.9,24.8,23.5v9.8h-57.2v2.2c0,5,1.3,10.4,9.2,10.4h22.5c4.7,0,6.9-2.3,6.9-6.9h18.6
		C603.2,337.3,598.4,346,578.8,346z M573.7,300.1h-17.9c-7.6,0-9.8,4.9-9.8,10.5h38.6C584.6,305,582,300.1,573.7,300.1z"/>
</g>
<g>
	<circle fill="#FF0037" cx="644.3" cy="285" r="19.9"/>
	<circle fill="#FF0037" cx="683.4" cy="326.1" r="19.9"/>
	<circle fill="#FF0037" cx="722.5" cy="285" r="19.9"/>
</g>
</svg>
