<?xml version="1.0" encoding="utf-8"?>
<!-- Generator: Adobe Illustrator 18.1.1, SVG Export Plug-In . SVG Version: 6.00 Build 0)  -->
<svg version="1.1" id="Layer_1" xmlns="http://www.w3.org/2000/svg" xmlns:xlink="http://www.w3.org/1999/xlink" x="0px" y="0px"
	 viewBox="-153 154.2 512 512" enable-background="new -153 154.2 512 512" xml:space="preserve">
<g>
	<polygon fill="#FFFFFF" points="-153,154.2 359,154.2 359,666.2 -153,666.2 	"/>
	<path fill="#384391" d="M-12.2,408.1c-6.6-22.2-27.1-41.2-56.1-44.8c-39.8-5-51.1,28-47.9,48.6c1.4,9.5,10.2,32.3,37.5,43.9
		c0.5,0.2,1.1,0.5,1.8,0.9c13.1,5.4,28.5-1.1,33.9-14.5c5.4-13.1-1.1-28.5-14.5-33.7c-1.6-0.7-3.2-1.1-4.7-1.6
		c8.4,10.6,6.6,33.7,0,40.5c-1.6,1.6-3.4,1.1-3.2,0.7c2.9-4.1,2.3-34.6-8.8-40.7c-7.5,2.3-14,7.5-17.2,15.4
		c-2,5.2-2.3,10.9-1.1,16.1c-0.7-0.7-0.9-0.9-0.9-0.9c-11.5-11.5-17.2-28.3-14-40c6.1-22.2,28.5-23.3,43.9-17.2
		c15.1,6.1,24.4,17.2,29.4,26c4.3,7.9,6.6,18.1,5.7,26c-4.3,36-44.5,38.2-70.1,16.1c-45.7-40.3-22.4-107.9,38.9-93.8
		c0.5,0,0.9,0,1.4,0.2c-23.7-10.2-50.2-7.2-64.2,14c-16.5,24.6-6.3,63.3,22.4,85.5c28.7,22.4,64.9,21.9,82.3-3.6
		C-9.9,439.1-8.6,423.1-12.2,408.1L-12.2,408.1z"/>
	<path fill="#868B43" d="M261.3,405.9c0,2.3-2.7,4.1-5,4.1h-9.7c0,0,0-1.8,0.5-3.6c0.7-3.6,3.4-8.4,7.5-8.4
		C258.4,397.9,261.3,402.5,261.3,405.9L261.3,405.9z M117.1,412c-2-6.1-7.7-9.3-11.3-7.7c2,2.3,3.2,5.4,3.2,9c0,2-0.5,4.1-1.1,5.7
		l0,0c-0.7,1.8-2.9,4.7-7.9,4.7s-8.4-4.3-9-8.4c0,0,0,0,0-0.2c0-0.5-0.2-1.1-0.2-1.8c0-0.2,0-0.7,0.2-1.1c0-6.8,5.9-13.8,12.7-13.8
		c4.1,0,7.9,1.8,10.9,5.2l0.7-0.5c-3.2-4.7-8.6-7.9-15.1-7.9c-10.9,0-18.3,8.1-18.3,18.1c0,10,7.5,18.1,18.3,18.1
		c7.7,0,13.8-4.3,16.5-10.4c1.6-3.8,0.9-7.7,0.7-8.8C117.1,412,117.1,412,117.1,412L117.1,412z M151.7,395.5
		c-7.5,0-12.7,3.8-15.1,6.3c0-2.9-2.3-4.7-5.9-4.7h-5v6.8c0,0.2,0,0.2,0,0.2v26h7.7l3.2-14.9c1.4-5.9,5-17.2,11.1-17.2
		c4.3,0,5.4,4.7,5.4,7.5v24.6h9v-24.4C162.1,400.2,158.9,395.5,151.7,395.5L151.7,395.5z M196,402.5c-1.8-1.8-5.4-4.5-8.8-4.5
		c-2.7,0-6.6,2-6.6,5c0,7,16.3,9.7,16.3,18.1c0,5.4-6.1,10-12.9,10c-5.4,0-9-1.4-12.2-4.5l1.8-1.4c2,1.8,3.6,3.2,7,3.2
		c2.5,0,5.4-1.6,5.4-4.8c0-5.9-17-9.9-17-18.3c0-5.9,7.9-9.7,14.5-9.7c5,0,11.3,2.3,14,5.4L196,402.5L196,402.5z M64.9,430v-24.2
		c0-2-0.9-6.1-3.6-6.1c-4.5,0-7.2,10.9-7.7,13.8l-2.9,16.5h-6.1v-23.5c0-2-0.5-6.8-3.6-6.8c-4.7,0-7.5,11.1-7.9,14l-2.7,16.3h-7
		l0.2-25.8c0-2.7-1.1-6.8-5.9-6.8h-5.2V395h16.1c4.3,0,5.9,3.8,5.9,6.8c2.5-2.7,7.2-6.3,12-6.3s7.2,2.9,7.7,6.6
		c3.2-3.2,7.7-6.6,13.3-6.6c5.7,0,7,4.3,7,8.1V430H64.9L64.9,430z M224.7,397.9h5.2v-2.5h-11.8c-3.4,0-5.2-0.2-6.6-3.2
		c-0.9-1.6,0-5.4-5-5.4v14.5c0,0.2,0,0.2,0,0.4v22.2c0,4.7,4.5,7.5,10,7.5c5.2,0,10.6-2.9,12.9-7l-1.4-0.9c-1.1,1.8-4.5,4.5-7.5,4.5
		c-2,0-3.2-1.6-3.2-3.2v-21.5C217.5,399.5,220.4,397.9,224.7,397.9L224.7,397.9z M310.2,395.5h-2.9c-3.8,0-7,0.7-10,2.9l-5,3.8
		c-1.4,1.1-2.5,1.6-3.4,1.4c-0.9,0-1.4-0.7-1.4-1.4v-0.5c0-2.9-2.5-4.7-6.1-4.7h-4.1v6.8h0.2v26.2h8.6l1.1-7.2
		c0.9-7,2.7-13.3,8.6-18.5l3.2-2.5c2.3-1.8,4.5-3.4,8.1-3.4h2.9C310.2,395.5,310.2,395.5,310.2,395.5L310.2,395.5z M269.9,405.9
		c0-5.9-7.9-10.4-15.2-10.4c-11.8,0-19.7,8.1-19.7,17.9c0,9.3,8.6,18.1,20.1,18.1c5,0,10.4-1.8,13.1-5.4l-1.6-1.4
		c-2.5,2.3-6.1,3.8-9.9,3.8c-5.2,0-10.6-4.5-10.6-9v-2.5c0-2,2.3-3.8,4.7-3.8h9C265.2,413.1,269.9,410.4,269.9,405.9L269.9,405.9z"
		/>
	<polygon points="35.4,449.4 30.9,449.4 30.9,460.5 29.2,460.5 29.2,449.4 24.7,449.4 24.7,447.9 35.4,447.9 	"/>
	<path d="M44.9,460.5h-1.6v-5.4c0-0.4,0-0.8-0.1-1.2c-0.1-0.4-0.1-0.7-0.3-0.9c-0.1-0.2-0.3-0.4-0.6-0.5c-0.3-0.1-0.6-0.2-1-0.2
		c-0.4,0-0.9,0.1-1.4,0.3c-0.5,0.2-0.9,0.5-1.4,0.8v7.1H37v-13.2h1.6v4.8c0.5-0.4,1-0.7,1.5-1c0.5-0.2,1.1-0.4,1.6-0.4
		c1,0,1.8,0.3,2.4,0.9c0.5,0.6,0.8,1.5,0.8,2.7L44.9,460.5L44.9,460.5z"/>
	<path d="M56,456h-7c0,0.6,0.1,1.1,0.3,1.5c0.2,0.4,0.4,0.8,0.7,1.1c0.3,0.3,0.6,0.5,1,0.6c0.4,0.1,0.9,0.2,1.3,0.2
		c0.6,0,1.3-0.1,2-0.4c0.7-0.3,1.1-0.5,1.4-0.8h0.1v1.7c-0.5,0.2-1.1,0.4-1.6,0.6c-0.6,0.2-1.2,0.2-1.8,0.2c-1.6,0-2.8-0.4-3.7-1.3
		c-0.9-0.9-1.3-2.1-1.3-3.6c0-1.6,0.4-2.8,1.3-3.7c0.8-0.9,2-1.4,3.3-1.4c1.3,0,2.3,0.4,3,1.1c0.7,0.7,1,1.8,1,3.2L56,456L56,456z
		 M54.4,454.7c0-0.8-0.2-1.5-0.6-1.9c-0.4-0.5-1.1-0.7-1.9-0.7c-0.9,0-1.5,0.2-2,0.8c-0.5,0.5-0.8,1.1-0.9,1.9H54.4L54.4,454.7z"/>
	<polygon points="76.5,451 74,460.5 72.5,460.5 70.1,453.2 67.7,460.5 66.2,460.5 63.7,451 65.4,451 67.1,458.4 69.5,451 70.8,451 
		73.2,458.4 74.9,451 	"/>
	<path d="M86.9,455.8c0,1.6-0.4,2.8-1.2,3.7c-0.8,0.9-1.9,1.3-3.2,1.3c-1.3,0-2.4-0.4-3.2-1.3c-0.8-0.9-1.2-2.1-1.2-3.7
		c0-1.6,0.4-2.8,1.2-3.7c0.8-0.9,1.9-1.3,3.2-1.3c1.3,0,2.4,0.5,3.2,1.3C86.5,453,86.9,454.2,86.9,455.8L86.9,455.8z M85.2,455.8
		c0-1.2-0.2-2.1-0.7-2.7c-0.5-0.6-1.2-0.9-2-0.9c-0.9,0-1.5,0.3-2,0.9c-0.5,0.6-0.7,1.5-0.7,2.7c0,1.2,0.2,2.1,0.7,2.7
		c0.5,0.6,1.2,0.9,2,0.9c0.8,0,1.5-0.3,2-0.9C85,457.9,85.2,457,85.2,455.8L85.2,455.8z"/>
	<path d="M95.3,452.8L95.3,452.8c-0.3-0.1-0.6-0.1-0.8-0.1c-0.2,0-0.5,0-0.8,0c-0.5,0-1,0.1-1.4,0.3c-0.5,0.2-0.9,0.5-1.3,0.8v6.7
		h-1.6V451H91v1.4c0.6-0.5,1.2-0.9,1.7-1.1c0.5-0.2,1-0.3,1.5-0.3c0.3,0,0.5,0,0.6,0c0.1,0,0.3,0,0.6,0.1L95.3,452.8L95.3,452.8z"/>
	<polygon points="98.4,460.5 96.8,460.5 96.8,447.3 98.4,447.3 	"/>
	<path d="M109.3,460.5h-1.6v-1c-0.5,0.4-0.9,0.7-1.4,0.9c-0.5,0.2-1,0.3-1.6,0.3c-1.1,0-2-0.4-2.7-1.3c-0.7-0.9-1-2.1-1-3.6
		c0-0.8,0.1-1.5,0.3-2.1c0.2-0.6,0.5-1.2,0.9-1.6c0.4-0.4,0.8-0.8,1.4-1s1-0.3,1.6-0.3c0.5,0,0.9,0.1,1.3,0.2s0.8,0.3,1.2,0.5v-4.1
		h1.6V460.5L109.3,460.5z M107.7,458.2v-5.5c-0.4-0.2-0.8-0.3-1.2-0.4c-0.3-0.1-0.7-0.1-1.1-0.1c-0.9,0-1.6,0.3-2.1,0.9
		s-0.7,1.5-0.7,2.7c0,1.1,0.2,2,0.6,2.6s1,0.9,1.9,0.9c0.5,0,0.9-0.1,1.4-0.3C106.9,458.8,107.3,458.5,107.7,458.2L107.7,458.2z"/>
	<polygon points="114.2,447.3 113.8,452.2 112.6,452.2 112.3,447.3 	"/>
	<path d="M123.9,457.8c0,0.9-0.4,1.6-1.1,2.1c-0.7,0.6-1.7,0.8-2.9,0.8c-0.7,0-1.3-0.1-1.9-0.3c-0.6-0.2-1.1-0.3-1.5-0.5v-1.8h0.1
		c0.5,0.4,1.1,0.7,1.7,0.9c0.6,0.2,1.2,0.3,1.8,0.3c0.7,0,1.3-0.1,1.6-0.3c0.4-0.2,0.6-0.6,0.6-1.1c0-0.4-0.1-0.7-0.3-0.9
		c-0.2-0.2-0.6-0.4-1.2-0.5c-0.2-0.1-0.5-0.1-0.9-0.2c-0.4-0.1-0.7-0.1-1-0.2c-0.8-0.2-1.4-0.5-1.8-1c-0.3-0.4-0.5-1-0.5-1.6
		c0-0.4,0.1-0.8,0.2-1.1c0.2-0.3,0.4-0.7,0.7-0.9c0.3-0.3,0.7-0.5,1.2-0.6c0.5-0.2,1-0.2,1.6-0.2c0.6,0,1.1,0.1,1.7,0.2
		c0.6,0.1,1.1,0.3,1.5,0.5v1.7h-0.1c-0.4-0.3-0.9-0.6-1.5-0.8c-0.6-0.2-1.2-0.3-1.7-0.3c-0.6,0-1.1,0.1-1.5,0.3
		c-0.4,0.2-0.6,0.6-0.6,1c0,0.4,0.1,0.7,0.4,0.9c0.2,0.2,0.6,0.4,1.2,0.5c0.3,0.1,0.6,0.1,1,0.2c0.4,0.1,0.7,0.1,0.9,0.2
		c0.7,0.2,1.3,0.5,1.7,0.9C123.7,456.6,123.9,457.1,123.9,457.8L123.9,457.8z"/>
	<polygon points="134,460.5 132.4,460.5 132.4,447.3 134,447.3 	"/>
	<path d="M145.1,456h-7c0,0.6,0.1,1.1,0.3,1.5c0.2,0.4,0.4,0.8,0.7,1.1c0.3,0.3,0.6,0.5,1,0.6c0.4,0.1,0.9,0.2,1.3,0.2
		c0.6,0,1.3-0.1,1.9-0.4c0.7-0.3,1.1-0.5,1.4-0.8h0.1v1.7c-0.5,0.2-1.1,0.4-1.6,0.6c-0.6,0.2-1.2,0.2-1.8,0.2
		c-1.6,0-2.8-0.4-3.7-1.3c-0.9-0.9-1.3-2.1-1.3-3.6c0-1.6,0.4-2.8,1.3-3.7c0.8-0.9,2-1.4,3.3-1.4c1.3,0,2.3,0.4,3,1.1
		c0.7,0.7,1,1.8,1,3.2L145.1,456L145.1,456z M143.5,454.7c0-0.8-0.2-1.5-0.6-1.9c-0.4-0.5-1.1-0.7-1.9-0.7s-1.5,0.2-2,0.8
		c-0.5,0.5-0.8,1.1-0.9,1.9H143.5L143.5,454.7z"/>
	<path d="M154.9,460.5h-1.6v-1c-0.1,0.1-0.3,0.2-0.6,0.4c-0.2,0.2-0.5,0.3-0.7,0.4c-0.3,0.1-0.6,0.2-0.9,0.3
		c-0.3,0.1-0.7,0.1-1.2,0.1c-0.9,0-1.6-0.3-2.2-0.9c-0.6-0.6-0.9-1.3-0.9-2.2c0-0.7,0.2-1.3,0.5-1.7c0.3-0.4,0.7-0.8,1.3-1.1
		c0.6-0.3,1.3-0.4,2.1-0.5c0.8-0.1,1.7-0.2,2.6-0.2V454c0-0.4-0.1-0.7-0.2-0.9c-0.1-0.2-0.3-0.4-0.5-0.6c-0.2-0.1-0.5-0.2-0.8-0.3
		c-0.3,0-0.6-0.1-1-0.1c-0.4,0-0.9,0.1-1.4,0.2c-0.5,0.1-1,0.3-1.6,0.5h-0.1v-1.6c0.3-0.1,0.8-0.2,1.4-0.3c0.6-0.1,1.2-0.2,1.7-0.2
		c0.7,0,1.3,0.1,1.7,0.2c0.5,0.1,0.9,0.3,1.3,0.6c0.4,0.3,0.6,0.6,0.8,1c0.2,0.4,0.3,0.9,0.3,1.5L154.9,460.5L154.9,460.5z
		 M153.3,458.2v-2.6c-0.5,0-1.1,0.1-1.7,0.1c-0.7,0.1-1.2,0.1-1.6,0.2c-0.5,0.1-0.8,0.3-1.1,0.6c-0.3,0.3-0.4,0.7-0.4,1.1
		c0,0.5,0.2,0.9,0.5,1.2c0.3,0.3,0.8,0.4,1.5,0.4c0.6,0,1.1-0.1,1.5-0.3C152.5,458.8,152.9,458.5,153.3,458.2L153.3,458.2z"/>
	<path d="M165.7,460.5h-1.6v-1c-0.5,0.4-0.9,0.7-1.4,0.9c-0.5,0.2-1,0.3-1.6,0.3c-1.1,0-2-0.4-2.7-1.3c-0.7-0.9-1-2.1-1-3.6
		c0-0.8,0.1-1.5,0.3-2.1c0.2-0.6,0.5-1.2,0.9-1.6c0.4-0.4,0.8-0.8,1.3-1c0.5-0.2,1-0.3,1.6-0.3c0.5,0,0.9,0.1,1.3,0.2
		c0.4,0.1,0.8,0.3,1.2,0.5v-4.1h1.6L165.7,460.5L165.7,460.5z M164.1,458.2v-5.5c-0.4-0.2-0.8-0.3-1.2-0.4c-0.3-0.1-0.7-0.1-1.1-0.1
		c-0.9,0-1.6,0.3-2.1,0.9c-0.5,0.6-0.7,1.5-0.7,2.7c0,1.1,0.2,2,0.6,2.6c0.4,0.6,1,0.9,1.9,0.9c0.5,0,0.9-0.1,1.4-0.3
		C163.2,458.8,163.7,458.5,164.1,458.2L164.1,458.2z"/>
	<path d="M170.6,449.5h-1.8v-1.7h1.8V449.5L170.6,449.5z M170.4,460.5h-1.6V451h1.6V460.5L170.4,460.5z"/>
	<path d="M181.6,460.5H180v-5.4c0-0.4,0-0.8-0.1-1.2c-0.1-0.4-0.1-0.7-0.3-0.9c-0.1-0.2-0.3-0.4-0.6-0.5c-0.3-0.1-0.6-0.2-1-0.2
		c-0.4,0-0.9,0.1-1.4,0.3c-0.5,0.2-0.9,0.5-1.4,0.8v7.1h-1.6V451h1.6v1.1c0.5-0.4,1-0.7,1.6-1c0.5-0.2,1.1-0.4,1.6-0.4
		c1,0,1.8,0.3,2.4,0.9c0.5,0.6,0.8,1.5,0.8,2.7V460.5L181.6,460.5z"/>
	<path d="M192.3,459.5c0,1.6-0.4,2.8-1.1,3.5c-0.7,0.8-1.9,1.1-3.4,1.1c-0.5,0-1,0-1.5-0.1c-0.5-0.1-1-0.2-1.4-0.3v-1.6h0.1
		c0.3,0.1,0.7,0.2,1.2,0.4c0.6,0.2,1.1,0.2,1.7,0.2c0.5,0,1-0.1,1.4-0.2c0.4-0.1,0.6-0.3,0.8-0.5c0.2-0.2,0.3-0.5,0.4-0.8
		c0.1-0.3,0.1-0.7,0.1-1v-0.9c-0.5,0.4-0.9,0.7-1.4,0.9c-0.4,0.2-1,0.3-1.7,0.3c-1.1,0-2-0.4-2.7-1.2c-0.7-0.8-1-2-1-3.5
		c0-0.8,0.1-1.5,0.3-2.1c0.2-0.6,0.5-1.1,0.9-1.5c0.4-0.4,0.8-0.7,1.3-0.9c0.5-0.2,1.1-0.3,1.6-0.3c0.6,0,1,0.1,1.4,0.2
		c0.4,0.1,0.8,0.3,1.2,0.5l0.1-0.4h1.5L192.3,459.5L192.3,459.5z M190.7,457.9v-5.2c-0.4-0.2-0.8-0.3-1.2-0.4
		c-0.4-0.1-0.7-0.1-1.1-0.1c-0.9,0-1.6,0.3-2.1,0.9c-0.5,0.6-0.8,1.4-0.8,2.6c0,1.1,0.2,1.9,0.6,2.4c0.4,0.5,1,0.8,1.9,0.8
		c0.5,0,0.9-0.1,1.4-0.3C189.9,458.5,190.4,458.2,190.7,457.9L190.7,457.9z"/>
	<path d="M208.6,460c-0.5,0.3-1,0.5-1.5,0.6c-0.5,0.1-1,0.2-1.5,0.2c-0.7,0-1.3-0.1-1.9-0.3c-0.6-0.2-1.1-0.5-1.5-0.9
		c-0.4-0.4-0.7-0.9-1-1.6c-0.2-0.6-0.3-1.4-0.3-2.2c0-1.6,0.4-2.8,1.3-3.7c0.9-0.9,2-1.3,3.4-1.3c0.5,0,1.1,0.1,1.6,0.2
		c0.5,0.2,1,0.3,1.4,0.6v1.8h-0.1c-0.5-0.4-1-0.7-1.5-0.9s-1-0.3-1.5-0.3c-0.9,0-1.6,0.3-2.1,0.9c-0.5,0.6-0.8,1.5-0.8,2.7
		c0,1.1,0.3,2,0.8,2.6c0.5,0.6,1.2,0.9,2.2,0.9c0.3,0,0.7,0,1-0.1c0.3-0.1,0.6-0.2,0.9-0.3c0.2-0.1,0.5-0.2,0.7-0.4
		c0.2-0.1,0.4-0.2,0.5-0.3h0.1V460L208.6,460z"/>
	<path d="M218.1,460.5h-1.6v-1c-0.1,0.1-0.3,0.2-0.6,0.4c-0.2,0.2-0.5,0.3-0.7,0.4c-0.3,0.1-0.6,0.2-0.9,0.3
		c-0.3,0.1-0.7,0.1-1.2,0.1c-0.9,0-1.6-0.3-2.2-0.9c-0.6-0.6-0.9-1.3-0.9-2.2c0-0.7,0.2-1.3,0.5-1.7c0.3-0.4,0.7-0.8,1.3-1.1
		c0.6-0.3,1.3-0.4,2.1-0.5c0.8-0.1,1.7-0.2,2.6-0.2V454c0-0.4-0.1-0.7-0.2-0.9c-0.1-0.2-0.3-0.4-0.5-0.6c-0.2-0.1-0.5-0.2-0.8-0.3
		c-0.3,0-0.6-0.1-1-0.1c-0.4,0-0.9,0.1-1.4,0.2c-0.5,0.1-1,0.3-1.6,0.5h-0.1v-1.6c0.3-0.1,0.8-0.2,1.4-0.3c0.6-0.1,1.2-0.2,1.7-0.2
		c0.7,0,1.3,0.1,1.7,0.2c0.5,0.1,0.9,0.3,1.3,0.6c0.4,0.3,0.6,0.6,0.8,1c0.2,0.4,0.3,0.9,0.3,1.5L218.1,460.5L218.1,460.5z
		 M216.5,458.2v-2.6c-0.5,0-1.1,0.1-1.7,0.1c-0.7,0.1-1.2,0.1-1.6,0.2c-0.5,0.1-0.8,0.3-1.1,0.6c-0.3,0.3-0.4,0.7-0.4,1.1
		c0,0.5,0.2,0.9,0.5,1.2c0.3,0.3,0.8,0.4,1.5,0.4c0.6,0,1.1-0.1,1.5-0.3C215.7,458.8,216.1,458.5,216.5,458.2L216.5,458.2z"/>
	<path d="M227.1,452.8L227.1,452.8c-0.3-0.1-0.6-0.1-0.8-0.1c-0.2,0-0.5,0-0.8,0c-0.5,0-1,0.1-1.4,0.3c-0.5,0.2-0.9,0.5-1.3,0.8v6.7
		h-1.6V451h1.6v1.4c0.6-0.5,1.2-0.9,1.7-1.1c0.5-0.2,1-0.3,1.5-0.3c0.3,0,0.5,0,0.6,0c0.1,0,0.3,0,0.6,0.1L227.1,452.8L227.1,452.8z
		"/>
	<path d="M236.6,456h-7c0,0.6,0.1,1.1,0.3,1.5c0.2,0.4,0.4,0.8,0.7,1.1c0.3,0.3,0.6,0.5,1,0.6c0.4,0.1,0.9,0.2,1.3,0.2
		c0.6,0,1.3-0.1,1.9-0.4c0.7-0.3,1.1-0.5,1.4-0.8h0.1v1.7c-0.5,0.2-1.1,0.4-1.6,0.6c-0.6,0.2-1.2,0.2-1.8,0.2
		c-1.6,0-2.8-0.4-3.7-1.3c-0.9-0.9-1.3-2.1-1.3-3.6c0-1.6,0.4-2.8,1.3-3.7c0.9-0.9,2-1.4,3.3-1.4c1.3,0,2.3,0.4,3,1.1
		c0.7,0.7,1,1.8,1,3.2V456L236.6,456z M235,454.7c0-0.8-0.2-1.5-0.6-1.9c-0.4-0.5-1.1-0.7-1.9-0.7c-0.9,0-1.5,0.2-2,0.8
		c-0.5,0.5-0.8,1.1-0.9,1.9H235L235,454.7z"/>
	<path d="M246.9,456h-7c0,0.6,0.1,1.1,0.3,1.5c0.2,0.4,0.4,0.8,0.7,1.1c0.3,0.3,0.6,0.5,1,0.6s0.9,0.2,1.3,0.2
		c0.6,0,1.3-0.1,1.9-0.4c0.7-0.3,1.1-0.5,1.4-0.8h0.1v1.7c-0.5,0.2-1.1,0.4-1.6,0.6c-0.6,0.2-1.2,0.2-1.8,0.2
		c-1.6,0-2.8-0.4-3.7-1.3c-0.9-0.9-1.3-2.1-1.3-3.6c0-1.6,0.4-2.8,1.3-3.7c0.9-0.9,2-1.4,3.3-1.4c1.3,0,2.3,0.4,3,1.1
		c0.7,0.7,1,1.8,1,3.2V456L246.9,456z M245.4,454.7c0-0.8-0.2-1.5-0.6-1.9c-0.4-0.5-1.1-0.7-1.9-0.7c-0.9,0-1.5,0.2-2,0.8
		c-0.5,0.5-0.8,1.1-0.9,1.9H245.4L245.4,454.7z"/>
	<path d="M255.3,452.8L255.3,452.8c-0.3-0.1-0.6-0.1-0.8-0.1c-0.2,0-0.5,0-0.8,0c-0.5,0-1,0.1-1.4,0.3c-0.5,0.2-0.9,0.5-1.3,0.8v6.7
		h-1.6V451h1.6v1.4c0.6-0.5,1.2-0.9,1.7-1.1c0.5-0.2,1-0.3,1.5-0.3c0.3,0,0.5,0,0.6,0c0.1,0,0.3,0,0.6,0.1L255.3,452.8L255.3,452.8z
		"/>
	<path d="M270.9,460.5h-1.6v-5.4c0-0.4,0-0.8-0.1-1.2c-0.1-0.4-0.1-0.7-0.3-0.9c-0.1-0.2-0.3-0.4-0.6-0.5c-0.3-0.1-0.6-0.2-1-0.2
		c-0.4,0-0.9,0.1-1.4,0.3c-0.5,0.2-0.9,0.5-1.4,0.8v7.1h-1.6V451h1.6v1.1c0.5-0.4,1-0.7,1.5-1c0.5-0.2,1.1-0.4,1.6-0.4
		c1,0,1.8,0.3,2.4,0.9c0.5,0.6,0.8,1.5,0.8,2.7L270.9,460.5L270.9,460.5z"/>
	<path d="M281.9,456h-7c0,0.6,0.1,1.1,0.3,1.5c0.2,0.4,0.4,0.8,0.7,1.1c0.3,0.3,0.6,0.5,1.1,0.6s0.9,0.2,1.3,0.2
		c0.6,0,1.3-0.1,2-0.4c0.7-0.3,1.1-0.5,1.4-0.8h0.1v1.7c-0.5,0.2-1.1,0.4-1.6,0.6c-0.6,0.2-1.2,0.2-1.8,0.2c-1.6,0-2.8-0.4-3.7-1.3
		c-0.9-0.9-1.3-2.1-1.3-3.6c0-1.6,0.4-2.8,1.3-3.7c0.8-0.9,2-1.4,3.3-1.4c1.3,0,2.3,0.4,3,1.1c0.7,0.7,1,1.8,1,3.2L281.9,456
		L281.9,456z M280.4,454.7c0-0.8-0.2-1.5-0.6-1.9c-0.4-0.5-1-0.7-1.9-0.7c-0.9,0-1.5,0.2-2,0.8c-0.5,0.5-0.8,1.1-0.9,1.9H280.4
		L280.4,454.7z"/>
	<path d="M289.3,460.5c-0.3,0.1-0.6,0.1-1,0.2c-0.4,0-0.7,0.1-0.9,0.1c-1,0-1.7-0.3-2.2-0.8c-0.5-0.5-0.8-1.4-0.8-2.5v-5.1h-1.1V451
		h1.1v-2.7h1.6v2.7h3.3v1.3H286v4.3c0,0.5,0,0.9,0,1.2c0,0.3,0.1,0.5,0.2,0.8c0.1,0.2,0.3,0.4,0.5,0.5c0.2,0.1,0.5,0.2,1,0.2
		c0.3,0,0.5,0,0.8-0.1c0.3-0.1,0.5-0.1,0.6-0.2h0.1L289.3,460.5L289.3,460.5z"/>
	<polygon points="303.2,451 300.7,460.5 299.2,460.5 296.8,453.2 294.3,460.5 292.9,460.5 290.4,451 292,451 293.8,458.4 296.2,451 
		297.5,451 299.9,458.4 301.6,451 	"/>
	<path d="M313.6,455.8c0,1.6-0.4,2.8-1.2,3.7c-0.8,0.9-1.9,1.3-3.2,1.3c-1.3,0-2.4-0.4-3.2-1.3c-0.8-0.9-1.2-2.1-1.2-3.7
		c0-1.6,0.4-2.8,1.2-3.7c0.8-0.9,1.9-1.3,3.2-1.3c1.3,0,2.4,0.5,3.2,1.3C313.2,453,313.6,454.2,313.6,455.8L313.6,455.8z
		 M311.9,455.8c0-1.2-0.2-2.1-0.7-2.7c-0.5-0.6-1.2-0.9-2-0.9c-0.9,0-1.5,0.3-2,0.9c-0.5,0.6-0.7,1.5-0.7,2.7c0,1.2,0.2,2.1,0.7,2.7
		c0.5,0.6,1.2,0.9,2,0.9c0.9,0,1.5-0.3,2-0.9C311.7,457.9,311.9,457,311.9,455.8L311.9,455.8z"/>
	<path d="M322,452.8L322,452.8c-0.3-0.1-0.6-0.1-0.8-0.1c-0.2,0-0.5,0-0.8,0c-0.5,0-1,0.1-1.4,0.3c-0.5,0.2-0.9,0.5-1.3,0.8v6.7
		h-1.6V451h1.6v1.4c0.6-0.5,1.2-0.9,1.7-1.1c0.5-0.2,1-0.3,1.5-0.3c0.3,0,0.5,0,0.6,0c0.1,0,0.3,0,0.6,0.1L322,452.8L322,452.8z"/>
	<polygon points="332.1,460.5 330,460.5 326.2,456.4 325.2,457.4 325.2,460.5 323.6,460.5 323.6,447.3 325.2,447.3 325.2,455.8 
		329.8,451 331.8,451 327.4,455.4 	"/>
	<polygon points="336.4,460.5 334.4,460.5 334.4,458.1 336.4,458.1 	"/>
</g>
</svg>
