<?xml version="1.0" encoding="utf-8"?>
<!-- Generator: Adobe Illustrator 19.0.0, SVG Export Plug-In . SVG Version: 6.00 Build 0)  -->
<svg version="1.1" id="Layer_1" xmlns="http://www.w3.org/2000/svg" xmlns:xlink="http://www.w3.org/1999/xlink" x="0px" y="0px"
	 viewBox="0 0 502.5 111.3" style="enable-background:new 0 0 502.5 111.3;" xml:space="preserve">
<style type="text/css">
	.st0{fill:#363C60;}
	.st1{fill:#EF4C54;}
</style>
<g>
	<path id="XMLID_16_" class="st0" d="M23,38.3h14.7v4c0,1.5-0.2,2.8-0.2,2.8h0.2c2.1-3.2,6.4-7.9,13.6-7.9c5.8,0,10.4,2.6,12.8,7.7
		h0.2c2.4-3.8,7.8-7.7,14.6-7.7c8.3,0,14.8,4.5,14.8,17.1v29.7H78.4V57c0-3.4-0.6-5.8-3.6-5.8c-4.9,0-7.5,3.6-8.4,8.6
		c-0.4,1.6-0.4,3.5-0.4,5.3v18.9H50.7V57c0-3.4-0.6-5.8-3.6-5.8c-4.8,0-7.3,3.4-8.3,8.3c-0.4,1.7-0.4,3.7-0.4,5.7v18.9H23V38.3z"/>
	<path class="st0" d="M202,37.3c9.2,0,12,3.6,12,3.6h0.2c0,0-0.1-0.9-0.1-2V20.6h15.4v63.5h-14.4v-3c0-1.4,0.1-2.6,0.1-2.6H215
		c0,0-3.8,6.7-13.2,6.7c-12.4,0-20.6-9.8-20.6-24C181.2,46.7,189.9,37.3,202,37.3 M205.6,72.4c4.6,0,9-3.4,9-11.3
		c0-5.5-2.9-10.9-9-10.9c-4.8,0-9,3.9-9,10.9C196.6,68,200.3,72.4,205.6,72.4"/>
	<path id="XMLID_13_" class="st0" d="M232.7,20.6H248v20.1c0,2.3-0.2,3.9-0.2,3.9h0.2c2.6-4.5,7.9-7.3,13.9-7.3
		c9.2,0,16.4,4.3,16.4,17.1v29.7H263V57.3c0-4.3-1.7-6-5.1-6c-4.7,0-7.8,2.8-9.1,6.7c-0.6,1.8-0.8,3.7-0.8,5.9v20.2h-15.4V20.6z"/>
	<path class="st0" d="M307.6,37.3c14.5,0,26,9.7,26,24.1c0,14.3-11.5,23.8-25.9,23.8c-14.4,0-25.9-9.5-25.9-23.8
		C281.7,47,293.3,37.3,307.6,37.3 M307.7,72.3c5.6,0,10.4-4.2,10.4-11c0-6.9-4.8-11.3-10.4-11.3c-5.6,0-10.4,4.4-10.4,11.3
		C297.3,68.2,302.1,72.3,307.7,72.3"/>
	<path id="XMLID_10_" class="st0" d="M336.4,38.3h15.4v26.8c0,4.3,1.7,6,4.9,6c6.6,0,9.7-5.8,9.7-12.6V38.3h15.4v45.7H367v-4
		c0-1.5,0.2-2.8,0.2-2.8H367c-2.5,4.9-8.2,7.9-14.3,7.9c-9.1,0-16.2-4.3-16.2-17.1V38.3z"/>
	<path id="XMLID_9_" class="st0" d="M390,68.1c0,0,5.1,4.6,11.6,4.6c2.3,0,4.5-0.6,4.5-2.1c0-4-21.4-4.4-21.4-19.4
		c0-8.6,8.3-13.9,18.8-13.9c10.7,0,16.1,5.2,16.1,5.2l-5.2,10.9c0,0-4.4-3.7-10.8-3.7c-2.3,0-4.5,0.6-4.5,2.2
		c0,3.5,21.4,4,21.4,18.7c0,7.8-6.9,14.5-18.7,14.5c-11.5,0-18.3-6.7-18.3-6.7L390,68.1z"/>
	<path class="st0" d="M445.7,37.3c13.5,0,21.1,9.4,21.1,22.1c0,1.5-0.4,4.8-0.4,4.8h-28.9c1.2,5.6,5.8,8.2,10.7,8.2
		c6.6,0,12.6-4.6,12.6-4.6l5.7,10.7c0,0-7.4,6.7-19.5,6.7c-16.3,0-25.1-11.8-25.1-24C421.9,47.8,431,37.3,445.7,37.3 M451.4,55.4
		c0-3.5-2.4-6.6-6-6.6c-4.4,0-6.6,3.2-7.4,6.6H451.4z"/>
	<path class="st0" d="M475.8,32.3c3.7,0,6.7,3,6.7,6.8c0,3.8-3,6.8-6.7,6.8c-3.6,0-6.6-3-6.6-6.8C469.2,35.3,472.2,32.3,475.8,32.3
		 M475.8,44.4c2.8,0,5-2.3,5-5.3c0-2.9-2.2-5.3-5-5.3c-2.8,0-5,2.3-5,5.3C470.9,42,473,44.4,475.8,44.4 M473.5,35.7h2.8
		c1.3,0,2.2,0.9,2.2,2.1c0,1.1-0.7,1.6-1.2,1.8v0c0,0,0.1,0.1,0.2,0.4l1.3,2.4h-1.7l-1.1-2.5h-0.9v2.5h-1.6V35.7z M476,38.8
		c0.6,0,1-0.4,1-1c0-0.6-0.4-1-1-1h-0.9v2H476z"/>
	<path class="st1" d="M154.3,37.3c-6.5,0-12.5,2.4-16.8,6.5c-4.3-4.1-10.3-6.5-16.9-6.5c-13.3,0-24,9.7-24,24.1
		c0,14.3,10.7,23.8,24.1,23.8c5.2,0,10-1.5,13.9-4.1c-3.3-3.2-5.7-7.3-7-11.9c-1.8,2-4.3,3.2-7,3.2c-5.2,0-9.6-4.2-9.6-11
		c0-6.9,4.5-11.3,9.6-11.3c5.2,0,9.6,4.4,9.6,11.3h0v0c0,14.3,10.7,23.8,24.1,23.8c13.3,0,24.1-9.5,24.1-23.8
		C178.5,47,167.8,37.3,154.3,37.3 M154.4,72.3c-5.2,0-9.6-4.2-9.6-11c0-6.9,4.4-11.3,9.6-11.3c5.2,0,9.6,4.4,9.6,11.3
		C164,68.2,159.6,72.3,154.4,72.3"/>
</g>
</svg>
