<?xml version="1.0" encoding="utf-8"?>
<!-- Generator: Adobe Illustrator 18.0.0, SVG Export Plug-In . SVG Version: 6.00 Build 0)  -->
<!DOCTYPE svg PUBLIC "-//W3C//DTD SVG 1.1//EN" "http://www.w3.org/Graphics/SVG/1.1/DTD/svg11.dtd">
<svg version="1.1" id="图层_1" xmlns="http://www.w3.org/2000/svg" xmlns:xlink="http://www.w3.org/1999/xlink" x="0px" y="0px"
	 viewBox="0 0 390.9 213" enable-background="new 0 0 390.9 213" xml:space="preserve">
<g>
	<g>
		<g>
			<g>
				<path fill="#36568B" d="M111.9,51.9v59H95.4V69.8l-11.5,41.1h-9.6L62.5,70.5v40.4h-5.7v-59h17.4l10.1,35.6l10.1-35.6H111.9z"/>
			</g>
		</g>
		<g>
			<circle fill="#EC701C" cx="39.8" cy="109.4" r="7"/>
			<circle fill="#EC701C" cx="31.2" cy="93" r="6.1"/>
			<circle fill="#EC701C" cx="28.8" cy="74.9" r="5.3"/>
			<circle fill="#EC701C" cx="33.1" cy="56.9" r="4.5"/>
			<circle fill="#EC701C" cx="44.1" cy="41" r="3.8"/>
			<circle fill="#EC701C" cx="59.5" cy="30.5" r="3.2"/>
			<circle fill="#EC701C" cx="77.2" cy="26.3" r="2.7"/>
			<circle fill="#EC701C" cx="95.4" cy="28.5" r="2.6"/>
			<circle fill="#EC701C" cx="112.2" cy="37.4" r="2.8"/>
		</g>
		<g>
			<circle fill="#36568B" cx="123.5" cy="51" r="7"/>
			<circle fill="#36568B" cx="133.1" cy="67.3" r="6.1"/>
			<circle fill="#36568B" cx="136.1" cy="85.7" r="5.3"/>
			<circle fill="#36568B" cx="132.4" cy="104" r="4.5"/>
			<circle fill="#36568B" cx="121.7" cy="120.4" r="3.8"/>
			<circle fill="#36568B" cx="106.2" cy="131.4" r="3.2"/>
			<circle fill="#36568B" cx="88.2" cy="135.9" r="2.7"/>
			<circle fill="#36568B" cx="69.8" cy="133.8" r="2.6"/>
			<circle fill="#36568B" cx="52.8" cy="124.8" r="2.8"/>
		</g>
	</g>
	<g>
		<g>
			<g>
				<g>
					<path fill="#36568B" d="M173.2,43.3c-0.4-0.6-0.1-1.4,0.7-1.8l0.8-0.4c0.8-0.4,1.8-0.2,2.3,0.5l1.6,2.4
						c0.5,0.7,1.6,1.3,2.4,1.3h17.6c0.9,0,1.6,0.7,1.6,1.6v0.3c0,0.9-0.7,1.6-1.6,1.6h-41.6c-0.9,0-1.6,0.7-1.6,1.6v13.9
						c0,0.9-0.1,2.2-0.1,3.1l-4.9,23.3c-0.3,0.8-0.9,1-1.3,0.5c-0.4-0.5-2.1-3.3-1.8-4.1l4.3-19.6c0.1-0.8,0.2-2.2,0.2-3.1V46.8
						c0-0.9,0.7-1.6,1.6-1.6h19.7C173.7,45.3,173.6,43.8,173.2,43.3z M157,83.5c-0.9,0-1.6-0.7-1.6-1.6v-0.1c0-0.9,0.7-1.6,1.6-1.6
						h16.5c0.9,0,1.6-0.7,1.6-1.6v-0.2c0-0.9-0.7-1.6-1.6-1.6h-13.8c-0.9,0-1.6-0.7-1.6-1.5c0-0.8,0.7-1.5,1.6-1.5h13.8
						c0.9,0,1.6-0.7,1.6-1.6v-0.2c0-0.9-0.7-1.5-1.6-1.5l-13.3,0.3c-0.9,0-1.7-0.6-1.9-1.5l0-0.2c-0.2-0.8,0.4-1.5,1.3-1.6l32.1-1.4
						c0.9-0.1,1.9,0.5,2.2,1.3l0.2,0.4c0.3,0.8-0.1,1.5-1,1.5l-12.6,0.7c-0.9,0-1.6,0.8-1.6,1.6v0.4c0,0.9,0.7,1.6,1.6,1.6h13.9
						c0.9,0,1.6,0.7,1.6,1.5c0,0.8-0.7,1.5-1.6,1.5h-13.9c-0.9,0-1.6,0.7-1.6,1.6v0.2c0,0.9,0.7,1.6,1.6,1.6H198
						c0.9,0,1.6,0.7,1.6,1.6v0.1c0,0.9-0.7,1.6-1.6,1.6h-17.6c-0.9,0-1.6,0.3-1.6,0.7c0,0.4-0.2,1.3-0.5,2.1c0,0-1.6,5.1-5.7,5.1
						c-2.1,0-4.6-0.1-4.6-0.1c-0.9,0-1.7-0.6-1.8-1.3c-0.1-0.7,0.3-2.7,1.2-2.6c0,0,2.5,0.3,4.3,0.3c2.2,0,2.9-2.1,2.9-2.1
						c0.3-0.8,0.5-1.6,0.5-1.8s-0.7-0.3-1.6-0.3H157z M156.4,64.2c-0.5-0.5-0.2-1.3,0.5-1.8l6.3-5.1c0.6-0.6,0.4-1.1-0.5-1.1h-4.3
						c-0.9,0-1.6-0.7-1.6-1.4c0-0.8,0.7-1.4,1.6-1.4h5.1c0.9,0,1.6-0.7,1.6-1.6V51c0-0.9,0.7-1.6,1.6-1.6h0.2c0.9,0,1.6,0.7,1.6,1.6
						v0.8c0,0.9,0.7,1.6,1.6,1.6h2.8c0.9,0,1.6,0.7,1.6,1.4c0,0.8-0.7,1.4-1.6,1.4h-2.8c-0.9,0-1.6,0.6-1.6,1.3c0,0.7,0.3,1,0.7,0.6
						c0.4-0.4,1.3-0.3,2.1,0.2l2.5,1.7c0.7,0.5,0.8,1.4,0.2,1.9s-1.6,0.6-2.3,0l-1.8-1.3c-0.7-0.5-1.3-0.2-1.3,0.6v3.4
						c0,0.9-0.7,1.6-1.6,1.6h-0.2c-0.9,0-1.6-0.7-1.6-1.6v-3.9c0-0.9-0.5-1-1.1-0.4l-5.1,4.8C158.4,65.6,156.9,64.7,156.4,64.2z
						 M174.3,64.8c-0.5-0.5-0.3-1.3,0.4-1.7l7.6-5.7c0.6-0.6,0.5-1-0.4-1h-3.3c-0.9,0-1.6-0.7-1.6-1.4c0-0.8,0.7-1.4,1.6-1.4h4.5
						c0.9,0,1.6-0.7,1.6-1.6V51c0-0.9,0.7-1.6,1.6-1.6h0.2c0.9,0,1.6,0.7,1.6,1.6v0.8c0,0.9,0.7,1.6,1.6,1.6h6.4
						c0.9,0,1.6,0.7,1.6,1.4c0,0.8-0.7,1.4-1.6,1.4h-5.4c-0.9,0-1,0.4-0.4,1l8.6,5.6c0.8,0.4,1,1.1,0.5,1.7
						c-0.5,0.5-2.2,1.5-2.9,1.1l-7.2-5.9c-0.6-0.6-1.1-0.4-1.1,0.5v3.7c0,0.9-0.7,1.6-1.6,1.6h-0.2c-0.9,0-1.6-0.7-1.6-1.6v-3.7
						c0-0.9-0.5-1-1.1-0.4l-6.6,5.7C176.3,65.9,174.8,65.3,174.3,64.8z"/>
				</g>
			</g>
			<g>
				<g>
					<path fill="#36568B" d="M217,41.7c0.4-0.7,1.5-1.1,2.3-0.9l1.2,0.4c0.8,0.3,1.2,1.1,0.8,1.9l-1.7,3.1c-0.4,0.7,0,1.4,0.8,1.4
						h32.3c0.9,0,1.6,0.7,1.6,1.6V50c0,0.9-0.3,2.2-0.8,2.9l-4.5,7.3c-0.5,0.7-1.4,1-2,0.7c-0.6-0.3-2.5-1.8-2-2.5l3.5-5.5
						c0.4-0.7,0.1-1.3-0.8-1.3h-29.9c-0.9,0-2,0.6-2.5,1.2l-8.8,10.4c-0.6,0.6-1.5,0.7-2,0.2c-0.5-0.5-2-2.7-1.4-3.4L217,41.7z
						 M215.7,64c0.4-0.8,1.4-1.1,2.2-0.7l1.3,0.6c0.8,0.3,1.1,1.2,0.7,2l-12,19c-0.5,0.7-1.4,0.9-2.1,0.5c-0.7-0.4-2.2-2.4-1.7-3.1
						L215.7,64z M227.5,55.8c0-0.9,0.7-1.6,1.6-1.6h1.2c0.9,0,1.6,0.7,1.6,1.6v27.5c0,0.9-0.2,2.2-0.5,3c0,0-1.7,5.1-6.2,5.1
						c-1.9,0-4.4,0-7.4-0.1c-0.2-1.4-0.5-3-0.5-3c-0.2-0.8,0.4-1.5,1.2-1.4c0,0,4.2,0.3,5.6,0.3c2.3,0,3-2,3-2
						c0.3-0.8,0.5-2.2,0.5-3V55.8z M238.4,66.3c-0.5-0.7-0.3-1.7,0.4-2.2l0.8-0.6c0.7-0.5,1.7-0.3,2.2,0.4l12.3,17.8
						c0.5,0.7,0.3,1.7-0.5,2.1l-1.4,0.9c-0.7,0.5-1.7,0.3-2.2-0.5L238.4,66.3z"/>
				</g>
			</g>
			<g>
				<g>
					<path fill="#36568B" d="M257.5,81.6c-0.3-0.7-0.2-1.9,0.2-2.7l7.1-14.5c0.3-0.8-0.1-1.4-1-1.4h-4.6c-0.9,0-1.6-0.7-1.6-1.6
						v-0.3c0-0.9,0.7-1.6,1.6-1.6h5.1c0.9,0,1.6-0.7,1.6-1.6v-16c0-0.9,0.7-1.6,1.6-1.6h0.4c0.9,0,1.6,0.7,1.6,1.6v16
						c0,0.9,0.7,1.6,1.6,1.6h3.8c0.9,0,1.6,0.7,1.6,1.6v0.3c0,0.9-0.7,1.6-1.6,1.6H271c-0.9,0-1.6,0.7-1.6,1.6V68
						c0,0.9,0.4,1.2,1,0.8s1.5-0.3,2.1,0.3l5.1,5.1c0.6,0.6,0.6,1.6-0.1,2.2l-0.5,0.4c-0.6,0.6-1.6,0.5-2.2-0.1l-4.4-4.9
						c-0.6-0.6-1.1-0.4-1.1,0.4v18.5c0,0.9-0.7,1.6-1.6,1.6h-0.4c-0.9,0-1.6-0.7-1.6-1.6v-19c0-0.9-0.3-0.9-0.6-0.1l-5.9,11.6
						C258.9,83.9,257.8,82.4,257.5,81.6z M258.2,47c-0.3-0.8,0.2-1.7,1-2l0.2-0.1c0.8-0.3,1.7,0.1,2,0.9l2.7,7.7
						c0.3,0.8-0.2,1.7-1,2.1l-0.5,0.2c-0.8,0.3-1.7-0.1-1.9-0.9L258.2,47z M271.9,55.8c-0.8-0.3-1.2-1.3-0.9-2.1l2.9-7.8
						c0.3-0.8,1.1-1.2,2-1l0.5,0.2c0.8,0.3,1.3,1.2,1,2l-3.1,8c-0.3,0.8-1.2,1.2-2,0.8L271.9,55.8z M277.9,60.4
						c0-0.9,0.7-1.6,1.6-1.6h10.8c0.9,0,1.6-0.7,1.6-1.6v-0.5c0-0.9-0.7-1.6-1.6-1.6h-8.5c-0.9,0-1.6-0.7-1.6-1.6v-0.2
						c0-0.9,0.7-1.6,1.6-1.6h8.5c0.9,0,1.6-0.7,1.6-1.6V50c0-0.9-0.7-1.6-1.6-1.6h-9.9c-0.9,0-1.6-0.7-1.6-1.6v-0.2
						c0-0.9,0.7-1.6,1.6-1.6h9.9c0.9,0,1.6-0.7,1.6-1.6v-1.6c0-0.9,0.7-1.6,1.6-1.6h0.7c0.9,0,1.6,0.7,1.6,1.6v1.6
						c0,0.9,0.7,1.6,1.6,1.6h11c0.9,0,1.6,0.7,1.6,1.6v0.2c0,0.9-0.7,1.6-1.6,1.6h-11c-0.9,0-1.6,0.7-1.6,1.6v0.4
						c0,0.9,0.7,1.6,1.6,1.6h9.4c0.9,0,1.6,0.7,1.6,1.6v0.2c0,0.9-0.7,1.6-1.6,1.6h-9.4c-0.9,0-1.6,0.7-1.6,1.6v0.5
						c0,0.9,0.7,1.6,1.6,1.6h11.8c0.9,0,1.6,0.7,1.6,1.6v0.2c0,0.9-0.7,1.6-1.6,1.6h-29.6c-0.9,0-1.6-0.7-1.6-1.6V60.4z M284.3,90.5
						c0,0.9-0.7,1.6-1.6,1.6H282c-0.9,0-1.6-0.7-1.6-1.6V67c0-0.9,0.7-1.6,1.6-1.6h23.9c0.9,0,1.6,0.7,1.6,1.6v17.4
						c0,0.9-0.2,2.2-0.5,3l-4,3.8c-0.8,0.3-2.2,0.5-3.1,0.5h-5.6c-0.9,0-1.7-0.6-1.8-1.2s0.1-2.8,1-2.7c0,0,4.5,0.2,6.7,0.2
						c2.3,0,2.9-1.4,2.9-1.4c0.3-0.8,0.6-2,0.6-2.6s-0.7-1.2-1.6-1.2h-16.2c-0.9,0-1.6,0.7-1.6,1.6V90.5z M303.6,70.3
						c0-0.9-0.7-1.6-1.6-1.6h-16.2c-0.9,0-1.6,0.7-1.6,1.6v0.6c0,0.9,0.7,1.6,1.6,1.6H302c0.9,0,1.6-0.7,1.6-1.6V70.3z M284.3,77.8
						c0,0.9,0.7,1.6,1.6,1.6H302c0.9,0,1.6-0.7,1.6-1.6v-0.6c0-0.9-0.7-1.6-1.6-1.6h-16.2c-0.9,0-1.6,0.7-1.6,1.6V77.8z"/>
				</g>
			</g>
			<g>
				<g>
					<path fill="#36568B" d="M312.9,73.5c0-0.9,0.7-1.6,1.6-1.6h3.6c0.9,0,1.6-0.7,1.6-1.6V59.6c0-0.9,0.7-1.6,1.6-1.6h14.4
						c0.9,0,1.6-0.7,1.6-1.6l0-2.1c0-0.9,0.7-1.6,1.6-1.6h1.1c0.9,0,1.6,0.7,1.6,1.6l0,2.1c0,0.9,0.7,1.6,1.6,1.6h14.2
						c0.9,0,1.6,0.7,1.6,1.6v10.8c0,0.9,0.7,1.6,1.6,1.6h3.8c0.9,0,1.6,0.7,1.6,1.6V74c0,0.9-0.7,1.6-1.6,1.6h-20.2
						c-0.9,0-1.1,0.5-0.4,1l21,10.4c0.8,0.2,1.1,1,0.6,1.6l-1.3,1.7c-0.5,0.7-1.6,1-2.4,0.7l-21.1-13c-0.6-0.6-1.6-0.6-2.1,0
						l-21.3,13.7c-0.8,0.3-1.9,0.1-2.4-0.6c-0.5-0.7-1.5-2.9-0.7-3.2l20.7-11.5c0.6-0.6,0.4-1.1-0.4-1.1h-19.7
						c-0.9,0-1.6-0.7-1.6-1.6V73.5z M313.2,48.1c0-0.9,0.7-1.6,1.6-1.6h10.9c0.9,0,1.6-0.7,1.6-1.6v-3.1c0-0.9,0.7-1.6,1.6-1.6h1
						c0.9,0,1.6,0.7,1.6,1.6V45c0,0.9,0.7,1.6,1.6,1.6h12.5c0.9,0,1.6-0.7,1.6-1.6v-3.1c0-0.9,0.7-1.6,1.6-1.6h1
						c0.9,0,1.6,0.7,1.6,1.6V45c0,0.9,0.7,1.6,1.6,1.6H364c0.9,0,1.6,0.7,1.6,1.6v0.6c0,0.9-0.7,1.6-1.6,1.6h-11.1
						c-0.9,0-1.6,0.7-1.6,1.6v1.7c0,0.9-0.7,1.6-1.6,1.6h-1c-0.9,0-1.6-0.7-1.6-1.6v-1.7c0-0.9-0.7-1.6-1.6-1.6h-12.5
						c-0.9,0-1.6,0.7-1.6,1.6v1.7c0,0.9-0.7,1.6-1.6,1.6h-1c-0.9,0-1.6-0.7-1.6-1.6v-1.7c0-0.9-0.7-1.6-1.6-1.6h-10.9
						c-0.9,0-1.6-0.7-1.6-1.6V48.1z M337.2,63.2c0-0.9-0.7-1.6-1.6-1.6h-10.1c-0.9,0-1.6,0.7-1.6,1.6v7.2c0,0.9,0.7,1.6,1.6,1.6h9.9
						c0.9,0,1.6-0.7,1.6-1.5L337.2,63.2z M341.3,70.4c0,0.9,0.7,1.5,1.5,1.5H353c0.9,0,1.6-0.7,1.6-1.6v-7.2c0-0.9-0.7-1.6-1.6-1.6
						h-10c-0.9,0-1.6,0.7-1.6,1.6L341.3,70.4z"/>
				</g>
			</g>
		</g>
		<g>
			<path fill="#36568B" d="M168.9,104.5h-0.7c-0.7,0-1.3,0.6-1.5,1.3l-3.2,10.8c0,0,0,0.1,0,0.1c0,0,0,0,0-0.1l-2.8-10.9
				c-0.2-0.6-0.8-1.3-1.5-1.3h-0.9c-0.7,0-1.3,0.6-1.5,1.3l-2.1,7.8c-0.1,0.5-0.7,2.7-0.9,3.5c0,0,0,0,0,0l-3.1-11.2
				c-0.2-0.6-0.8-1.3-1.5-1.3h-0.9c-0.3,0-0.6,0.3-0.8,0.5c-0.2,0.2-0.2,0.6-0.1,1l4.5,14.5c0.2,0.6,0.9,1,1.5,1h0.9
				c0.7,0,1.3-0.4,1.5-1l2.8-10.6l0.2,0.9c0.1,0.5,0.3,1.4,0.5,2l2.1,7.8c0.2,0.6,0.8,1,1.5,1h0.9c0.7,0,1.3-0.4,1.5-1l4.5-14.5
				c0.1-0.3,0.1-0.8-0.1-1C169.5,104.8,169.2,104.5,168.9,104.5z"/>
			<path fill="#36568B" d="M191.8,104.5h-0.7c-0.7,0-1.3,0.6-1.5,1.3l-3.2,10.8c0,0,0,0.1,0,0.1c0,0,0,0,0-0.1l-2.8-10.9
				c-0.2-0.6-0.8-1.3-1.5-1.3h-0.9c-0.7,0-1.3,0.6-1.5,1.3l-2.1,7.8c-0.1,0.5-0.7,2.7-0.9,3.5c0,0,0,0,0,0l-3.1-11.2
				c-0.2-0.6-0.8-1.3-1.5-1.3h-0.9c-0.3,0-0.6,0.3-0.8,0.5c-0.2,0.2-0.2,0.6-0.1,1l4.5,14.5c0.2,0.6,0.9,1,1.5,1h0.9
				c0.7,0,1.3-0.4,1.5-1l2.8-10.6l0.2,0.9c0.1,0.5,0.3,1.4,0.5,2l2.1,7.8c0.2,0.6,0.8,1,1.5,1h0.9c0.7,0,1.3-0.4,1.5-1l4.5-14.5
				c0.1-0.3,0.1-0.8-0.1-1C192.4,104.8,192.1,104.5,191.8,104.5z"/>
			<path fill="#36568B" d="M214.7,104.5H214c-0.7,0-1.3,0.6-1.5,1.3l-3.2,10.8c0,0,0,0.1,0,0.1c0,0,0,0,0-0.1l-2.8-10.9
				c-0.2-0.6-0.8-1.3-1.5-1.3h-0.9c-0.7,0-1.3,0.6-1.5,1.3l-2.1,7.8c-0.1,0.5-0.7,2.7-0.9,3.5c0,0,0,0,0,0l-3.1-11.2
				c-0.2-0.6-0.8-1.3-1.5-1.3h-0.9c-0.3,0-0.6,0.3-0.8,0.5c-0.2,0.2-0.2,0.6-0.1,1l4.5,14.5c0.2,0.6,0.9,1,1.5,1h0.9
				c0.7,0,1.3-0.4,1.5-1l2.8-10.6l0.2,0.9c0.1,0.5,0.3,1.4,0.5,2l2.1,7.8c0.2,0.6,0.8,1,1.5,1h0.9c0.7,0,1.3-0.4,1.5-1l4.5-14.5
				c0.1-0.3,0.1-0.8-0.1-1C215.4,104.8,215.1,104.5,214.7,104.5z"/>
			<path fill="#36568B" d="M220.9,119.8c0-0.7-0.6-1.2-1.2-1.2h-1.5c-0.7,0-1.2,0.6-1.2,1.2v1.5c0,0.7,0.6,1.2,1.2,1.2h1.5
				c0.7,0,1.2-0.6,1.2-1.2V119.8z"/>
			<path fill="#36568B" d="M246.3,105.9c-0.9-1-2.2-1.4-3.9-1.4c-2.2,0-4.4,2.2-4.5,2.3c-0.3,0.3-0.6,0.2-0.8-0.1
				c0,0-0.4-0.8-1.3-1.3c-0.8-0.5-1.9-0.8-3.1-0.8c-1.1,0-2.2,0.3-3.1,0.8c-0.9,0.5-1.5,1.2-1.5,1.2c-0.1,0.1-0.2,0.1-0.2,0.2
				c0,0,0-0.1,0-0.2v-0.3c0-0.7-0.5-1.5-1.2-1.5h-0.5c-0.7,0-1.3,0.8-1.3,1.5v14.5c0,0.7,0.6,1,1.3,1h0.8c0.7,0,0.9-0.3,0.9-1V114
				c0-0.5,0.2-1.4,0.2-2c0,0,0.2-1.6,0.5-2.4c0.3-0.7,0.8-1.3,1.4-1.7c0.6-0.4,1.3-0.6,2.1-0.6c0.9,0,1.6,0.3,2,0.8
				c0.4,0.6,0.6,1.7,0.6,1.7c0.1,0.5,0.2,1.4,0.2,2v8.7c0,0.7,0.4,1,1.1,1h0.8c0.7,0,1.2-0.3,1.2-1V113c0-0.5,0.1-1.4,0.2-2
				c0,0,0.3-1.9,1-2.6c0.7-0.7,1.6-1.1,2.7-1.1c0.6,0,1.1,0.1,1.5,0.4c0.4,0.3,0.7,0.6,0.9,1.1c0.2,0.4,0.4,1.3,0.4,1.3
				c0,0.5,0.3,1.4,0.3,2v8.4c0,0.7,0.1,1,0.8,1h0.8c0.7,0,1.4-0.3,1.4-1v-9.3c0-0.6-0.1-1.5-0.2-2
				C247.6,109.1,247.2,106.8,246.3,105.9z"/>
			<path fill="#36568B" d="M258.3,104.5c-2.1,0-4.3,1.3-4.4,1.4c-0.5,0.3-1.2,0.9-1.5,1.4c-0.1,0.1-2,3-2,6.1c0,2.8,0.7,5,2.2,6.6
				c1.5,1.5,3.4,2.3,5.8,2.3c1.5,0,2.9-0.3,4.1-1c1.3-0.7,2.2-1.7,2.9-2.9c0.7-1.2,1-3,1-5.1c0-2.7-0.7-4.8-2.2-6.3
				C262.5,105.2,260.6,104.5,258.3,104.5z M262.8,113.2c0,2.1-0.4,3.7-1.3,4.7c-0.9,1-1.9,1.5-3.3,1.5c-1.3,0-2.4-0.5-3.3-1.5
				c-0.9-1-1.3-2.5-1.3-4.6s0.4-3.6,1.3-4.6c0.9-1,2-1.5,3.3-1.5c1.3,0,2.4,0.5,3.3,1.5C262.4,109.7,262.8,111.2,262.8,113.2z"/>
			<path fill="#36568B" d="M275.9,104.5c-2.1,0-4.3,1.3-4.4,1.4c-0.5,0.3-1.2,0.9-1.5,1.4c-0.1,0.1-2,3-2,6.1c0,2.8,0.7,5,2.2,6.6
				c1.5,1.5,3.4,2.3,5.8,2.3c1.5,0,2.9-0.3,4.1-1c1.3-0.7,2.2-1.7,2.9-2.9c0.7-1.2,1-3,1-5.1c0-2.7-0.7-4.8-2.2-6.3
				C280.2,105.2,278.2,104.5,275.9,104.5z M280.5,113.2c0,2.1-0.4,3.7-1.3,4.7c-0.9,1-1.9,1.5-3.3,1.5c-1.3,0-2.4-0.5-3.3-1.5
				c-0.9-1-1.3-2.5-1.3-4.6s0.4-3.6,1.3-4.6c0.9-1,2-1.5,3.3-1.5c1.3,0,2.4,0.5,3.3,1.5C280,109.7,280.5,111.2,280.5,113.2z"/>
			<path fill="#36568B" d="M295,105c0,0-1.1-0.5-2.1-0.5c-0.7,0-1.3,0.2-1.9,0.6c-0.6,0.4-1.3,1.5-1.3,1.5c0,0,0.1,0.1,0.1,0.1
				c0,0,0.1-0.1,0.1-0.1v-0.5c0-0.7-0.8-1.5-1.5-1.5h-0.5c-0.7,0-1,0.8-1,1.5v14.5c0,0.7,0.3,1,1,1h0.8c0.7,0,1.2-0.3,1.2-1v-6.6
				c0-0.5,0-1.4,0.1-2l0.2-1.3c0.1-0.5,0.4-1.3,0.6-1.8c0,0,0.1-0.2,0.5-0.5c0.4-0.3,0.9-0.5,1.5-0.5c0.6,0,1,0.2,1,0.2
				c0.6,0.3,1.4,0,1.6-0.7l0.3-0.7C295.9,106,295.6,105.2,295,105z"/>
			<path fill="#36568B" d="M304.2,104.5c-2.3,0-4.3,0.8-5.7,2.4c-1.5,1.6-2.2,3.8-2.2,6.6c0,2.7,0.7,4.9,2.2,6.4
				c1.5,1.5,3.4,2.3,5.9,2.3c2,0,3.6-0.5,4.9-1.4c1.3-1,2.2-3,2.2-3.1c0.1-0.3,0.1-0.6,0-0.9c-0.2-0.3-0.4-0.4-0.8-0.5l-0.9-0.1
				c-0.7-0.1-1.4,0.3-1.7,0.9c0,0-0.5,1.1-1.2,1.6c-0.7,0.5-1.5,0.8-2.5,0.8c-1.3,0-2.4-0.4-3.3-1.4c-0.9-0.9-1.3-3-1.3-3
				c0-0.2,0-0.2,0.1-0.3c0.1-0.1,0.3-0.1,0.5-0.1h10.3c0.7,0,1.2-0.6,1.2-1.1v-0.2c0-2.8-0.7-5-2.1-6.5
				C308.3,105.2,306.5,104.5,304.2,104.5z M307.8,111.5h-7.2c-0.2,0-0.3-0.1-0.4-0.2c-0.1-0.1-0.1-0.3-0.1-0.5c0,0,0.4-1.6,1.2-2.3
				c0.8-0.8,1.8-1.2,3.1-1.2c1.3,0,2.5,0.9,2.5,0.9c0.4,0.3,0.9,1,1.2,1.4c0.2,0.4,0.4,1.2,0.4,1.2c0,0.2,0,0.4-0.1,0.5
				C308.1,111.4,307.9,111.5,307.8,111.5z"/>
			<path fill="#36568B" d="M319.9,119.8c0-0.7-0.6-1.2-1.2-1.2h-1.5c-0.7,0-1.2,0.6-1.2,1.2v1.5c0,0.7,0.6,1.2,1.2,1.2h1.5
				c0.7,0,1.2-0.6,1.2-1.2V119.8z"/>
			<path fill="#36568B" d="M332,105c0,0-1.1-0.5-2.1-0.5c-0.7,0-1.3,0.2-1.9,0.6c-0.6,0.4-1.3,1.5-1.3,1.5c0,0,0,0.1,0,0.1
				c0,0,0.1-0.1,0.1-0.1v-0.5c0-0.7-0.8-1.5-1.4-1.5h-0.5c-0.7,0-1,0.8-1,1.5v14.5c0,0.7,0.4,1,1,1h0.8c0.7,0,1.2-0.3,1.2-1v-6.6
				c0-0.5,0.1-1.4,0.1-2l0.2-1.3c0.1-0.5,0.4-1.4,0.6-1.8c0,0,0.1-0.2,0.5-0.5c0.4-0.3,0.9-0.5,1.5-0.5c0.6,0,1,0.2,1,0.2
				c0.6,0.3,1.4,0,1.6-0.7l0.3-0.7C333,106,332.7,105.2,332,105z"/>
			<path fill="#36568B" d="M341.3,104.5c-2.3,0-4.3,0.8-5.7,2.4c-1.5,1.6-2.2,3.8-2.2,6.6c0,2.7,0.7,4.9,2.2,6.4
				c1.5,1.5,3.4,2.3,5.9,2.3c2,0,3.6-0.5,4.9-1.4c1.3-1,2.2-3,2.2-3.1c0.1-0.3,0.1-0.6,0-0.9c-0.2-0.3-0.4-0.4-0.8-0.5l-0.9-0.1
				c-0.7-0.1-1.4,0.3-1.7,0.9c0,0-0.5,1.1-1.2,1.6c-0.7,0.5-1.5,0.8-2.5,0.8c-1.3,0-2.4-0.5-3.3-1.4c-0.9-0.9-1.3-3-1.3-3
				c0-0.2,0-0.2,0.1-0.3c0.1-0.1,0.3-0.1,0.5-0.1h10.3c0.7,0,1.1-0.6,1.1-1.1v-0.2c0-2.8-0.7-5-2.1-6.5
				C345.3,105.2,343.5,104.5,341.3,104.5z M345.4,110.8c0,0.2,0,0.4-0.1,0.5c-0.1,0.1-0.3,0.2-0.5,0.2h-7.2c-0.2,0-0.3-0.1-0.4-0.2
				c-0.1-0.1-0.1-0.3-0.1-0.5c0,0,0.4-1.6,1.2-2.3c0.8-0.8,1.9-1.2,3.1-1.2c1.3,0,2.5,0.9,2.5,0.9c0.4,0.3,0.9,1,1.2,1.4
				C345.2,110,345.4,110.8,345.4,110.8z"/>
			<path fill="#36568B" d="M365.7,109.4c0-0.4-0.2-1.2-0.4-1.7c0,0-0.2-0.6-0.6-1.2c-0.4-0.6-1.1-1.1-2-1.5
				c-0.9-0.4-1.8-0.6-2.8-0.6c-2.4,0-4.6,2-4.7,2.1c-0.1,0.1-0.2,0.1-0.3,0.1c0,0-0.1-0.1-0.1-0.3v-0.3c0-0.7-0.5-1.5-1.2-1.5h-0.5
				c-0.7,0-1.3,0.8-1.3,1.5v14.5c0,0.7,0.6,1,1.3,1h0.8c0.7,0,0.9-0.3,0.9-1v-7c0-0.5,0.2-1.4,0.3-2c0.1-0.7,0.5-2.6,1.2-3.1
				c0.8-0.7,1.8-1.1,3-1.1c0.7,0,1.3,0.2,1.8,0.5c0.5,0.3,0.9,0.7,1.1,1.2c0.2,0.5,0.4,1.5,0.4,1.5c0,0.6,0.2,1.4,0.2,2v8
				c0,0.7,0.2,1,0.9,1h0.8c0.7,0,1.3-0.3,1.3-1v-8.1C365.9,111.9,365.8,109.8,365.7,109.4z"/>
		</g>
	</g>
</g>
<g>
	<path fill="#36568B" d="M46.4,152.9c3.5,5.6,8.7,9.1,15.8,10.7c-0.9,1.1-1.5,2.2-1.8,3.4c-2-0.8-3.7-1.6-5.1-2.5v2.4
		c-1.1-0.1-2.8-0.1-5.2-0.1h-3.6v6h5.7c2.1,0,3.8,0,5.1-0.1v2.7c-1.3-0.1-3-0.1-5.1-0.1h-5.7v6.7h5.8c3,0,5.4-0.1,7.3-0.3v3.1
		c-1.8-0.3-4.1-0.4-7-0.4H36.3c-3,0-5.2,0-6.7,0.1v-2.7c1.5,0.1,3.7,0.1,6.7,0.1h7.3v-6.7h-4.2c-3.4,0-5.6,0.1-6.7,0.1v-2.7
		c1.1,0.1,3.3,0.1,6.6,0.1h4.3v-6h-3c-3.1,0-5.1,0.1-6,0.1v-2.4c-0.9,0.7-2.6,1.7-5.1,3.1c-0.6-1.2-1.3-2.2-2.1-3.1
		c2.4-0.6,5.2-2.1,8.3-4.5c3.2-2.4,5.7-5.5,7.6-9.4c1.2,0.5,2.4,1,3.7,1.5L46.4,152.9z M40.8,164.2h8.9c2,0,3.5,0,4.6-0.1
		c-4.3-2.2-7.4-5.4-9.5-9.5c-2.7,4.1-5.8,7.2-9.2,9.5C36.7,164.2,38.5,164.2,40.8,164.2z"/>
	<path fill="#36568B" d="M74.4,155.7c1.1,0,2.2,0,3.4-0.1v2.7c-1.3-0.1-2.8-0.1-4.6-0.1v7.6c1.3,0,2.6,0,3.9-0.1v2.7
		c-1.3-0.1-2.6-0.1-3.9-0.1v8.9c1.8-0.6,3.3-1.2,4.5-1.8c0.2,0.9,0.4,1.7,0.6,2.4c-1.8,0.5-3.8,1.2-6,2.1s-4,1.7-5.3,2.5
		c-0.4-0.9-0.8-1.9-1.3-3c1.3-0.2,2.9-0.7,4.9-1.5v-9.7c-1.7,0-3.2,0.1-4.5,0.1v-2.7c1.4,0.1,2.9,0.1,4.5,0.1v-7.6
		c-2,0-3.6,0.1-4.9,0.1v-2.7c1.3,0.1,2.4,0.1,3.3,0.1H74.4z M97,167.7c-1.1,1.1-2.5,2.4-3.9,3.6c3,4.1,5.6,6.8,7.7,8
		c-1,0.4-1.9,1.1-2.8,2.2c-3.1-2.9-5.8-6.8-8.2-11.6v11.8c0,1.3-0.3,2.2-1,2.6c-0.7,0.4-1.8,0.8-3.4,1.1c-0.3-1-0.8-2-1.5-3.1
		c2.2,0,3.3-0.2,3.3-0.7v-9.4c-0.8,1.1-1.8,2.4-2.9,3.9c-1.1,1.5-2.4,3.1-3.8,4.8c-0.7-0.9-1.6-1.5-2.7-1.9c1.7-1.4,3.4-3.1,5-5
		s3.1-4,4.4-6.3v-7.9c-3.9,0-6.5,0.1-7.7,0.1v-2.5c1.3,0.1,3.9,0.1,7.7,0.1c0-3.3-0.1-5.6-0.1-6.9h3.1c-0.3,1.3-0.4,3.6-0.3,6.9h4.8
		c1.5,0,2.9,0,4.2-0.1v2.5c-1.3-0.1-2.7-0.1-4.2-0.1h-4.8v5.1c0.5,1.7,1.2,3.1,2.1,4.3c1.7-1.5,3.4-3.5,5.1-6.1
		c0.7,0.7,1.6,1.4,2.7,2.2C99,165.8,98.1,166.6,97,167.7z M79.6,164.5c0.8-0.6,1.5-1.1,2.1-1.5c1.2,1.4,2.3,2.9,3.3,4.5
		c-0.7,0.5-1.5,1.1-2.5,1.8C81.6,167.4,80.6,165.8,79.6,164.5z M96.5,154.6l-2.2,1.5c-1-1.6-2-2.9-3-4c0.8-0.5,1.5-1,2.2-1.5
		C94.5,151.7,95.5,153.1,96.5,154.6z"/>
	<path fill="#36568B" d="M119.2,164.2v-9.4c0-1.2-0.1-2.4-0.1-3.6h3.4c-0.1,1-0.1,2.4-0.1,4.2v8.8h7.1c2,0,4,0,6-0.1v2.8
		c-2-0.1-4.2-0.1-6.6-0.1h-6.6v5.5h9.5c2.2,0,4.2,0,6.1-0.1v2.8c-1.9-0.1-3.9-0.1-6-0.1h-9.7v5.7c0,1.3,0,2.8,0.1,4.6h-3.6
		c0.2-1.9,0.3-3.4,0.3-4.6v-5.7h-9.5c-2.1,0-4.2,0.1-6.3,0.1v-2.8c2.1,0.1,4.7,0.1,7.9,0.1h7.9v-5.5h-6.7c-2.1,0-4.3,0.1-6.6,0.1
		v-2.8c2.2,0.1,4.1,0.1,5.8,0.1H119.2z M115.2,159.8c-0.8,0.5-1.8,1.2-3,2.1c-1.5-2.4-3.3-4.7-5.4-6.9c1-0.5,1.9-1.2,2.8-2.1
		C111.8,155.4,113.6,157.7,115.2,159.8z M131.3,153.1c1,0.8,2.1,1.4,3.3,1.9c-0.3,0.3-1,1.3-2.2,3c-1.2,1.7-2.2,3.1-3,4.2
		c-0.8-0.7-1.7-1.3-2.8-1.8C128.3,158.3,129.9,155.8,131.3,153.1z"/>
	<path fill="#36568B" d="M165.1,171.4c0-0.9-0.1-2-0.1-3.4h3.3c-0.1,1.6-0.1,2.7-0.1,3.4h3c1.5,0,3.3,0,5.4-0.1v2.7
		c-2.1-0.1-3.9-0.1-5.4-0.1h-3v6.6c0,1.8-0.5,3-1.5,3.6c-1,0.6-2.8,1.1-5.4,1.6c-0.3-1.3-0.7-2.5-1.3-3.6c2.6,0,4.1-0.1,4.5-0.4
		s0.7-0.8,0.7-1.6v-6.1h-16.5c-2.1,0-4.2,0.1-6.4,0.1v-2.7c2,0.1,4.1,0.1,6.3,0.1H165.1z M170.6,151.3c-0.1,1-0.1,2.5-0.1,4.5
		c0,1.9,0,3.5,0.1,4.8h-21v2.1c0,1.4,0.9,2.1,2.7,2.1h15.9c1.5,0,2.5-0.2,2.9-0.6c0.4-0.4,0.7-1.5,0.8-3.3c1,0.8,2.1,1.4,3.4,1.8
		c-0.9,2.3-1.6,3.6-2.1,4c-0.5,0.4-1.5,0.6-3,0.6h-20.3c-2.3,0-3.4-1.2-3.4-3.6v-8.5c0-1.3-0.1-2.6-0.3-3.9H170.6z M154.2,180.9
		c-1.1,0.7-2,1.3-2.7,1.8c-1.1-2-2.4-4-4-6c0.8-0.5,1.5-1.1,2.2-1.9C151.3,176.5,152.8,178.5,154.2,180.9z M167.6,158v-4.3h-18v4.3
		H167.6z"/>
	<path fill="#36568B" d="M187.3,159.2v19.1c0,3.1,0,5.3,0.1,6.7h-3c0.1-1.3,0.1-3.5,0.1-6.6v-14c-0.5,1.1-1.5,2.8-3,5.1
		c-0.5-0.9-1.2-1.6-2.1-2.2c1.2-1.2,2.6-3.5,4.2-7.1c1.6-3.5,2.6-6.5,3-9c1.1,0.5,2.2,0.9,3.4,1.3
		C189.4,153.4,188.5,155.6,187.3,159.2z M200,158.7c0-3.6-0.1-6.1-0.2-7.6h3c-0.1,1.4-0.2,3.9-0.2,7.6h6.6c2,0,3.4,0,4.3-0.1v2.7
		c-0.9-0.1-2.3-0.1-4.3-0.1h-4c1.6,6.4,4.9,10.8,10,13.4c-1.1,0.6-1.9,1.4-2.5,2.5c-5.4-4.1-8.7-9.3-10-15.8v14.3
		c2.9,0,4.8,0,5.7-0.1v2.7c-0.9-0.1-2.8-0.1-5.7-0.1c0,2.2,0,4.6,0.2,7.1h-3c0.1-2.7,0.2-5.1,0.2-7.1c-1.8,0-3.7,0.1-5.7,0.1v-2.7
		c2,0.1,3.9,0.1,5.7,0.1v-14.4c-1.1,6.6-4.4,12.1-9.8,16.7c-0.6-0.9-1.5-1.6-2.7-2.2c5.2-3.4,8.4-8.2,9.8-14.4h-3.1
		c-1.6,0-3,0.1-4.2,0.1v-2.7c1.2,0.1,2.6,0.1,4.2,0.1H200z"/>
	<path fill="#36568B" d="M231.1,177v3.3c0,1.5,0,3.1,0.1,4.9h-3.1c0.1-1.8,0.1-3.4,0.1-4.9v-2.5c-0.9,0.2-2.2,0.5-3.9,1
		c-1.7,0.4-3.6,1-5.4,1.7c-0.4-1.6-0.7-2.7-1-3.4c0.7,0,1.7-0.1,3.1-0.4v-21.9c-0.9,0-1.8,0.1-2.8,0.1V152c1.4,0.1,2.6,0.1,3.7,0.1
		h8.3c1.2,0,2.5,0,4-0.1v2.8c-1.1-0.1-2.1-0.1-3.1-0.1v19.8c1.1-0.2,2.1-0.4,3-0.7c0,1.4,0,2.3,0.1,2.7
		C233.1,176.6,232.1,176.8,231.1,177z M228.3,159.6v-4.9h-4.6v4.9H228.3z M228.3,168v-5.8h-4.6v5.8H228.3z M228.3,175.3v-4.8h-4.6
		v5.7C225.4,175.8,227,175.6,228.3,175.3z M234.4,179.6c1.2-1.7,2.6-3.8,3.9-6.4c1.3,0.9,2.3,1.5,3,1.9c-0.9,1-2,2.5-3.4,4.5
		c-1.3,2-2.6,3.7-3.8,5.2c-0.7-0.7-1.6-1.4-2.7-2.1C232.2,182.3,233.2,181.3,234.4,179.6z M250,159.6v5.4c0,2.2,0,4.1,0.1,5.8h-14.9
		c0.1-1.7,0.1-3.6,0.1-5.8v-5.1c0-2.8-0.1-5.1-0.1-6.9h14.9C250.1,154.9,250,157,250,159.6z M247.2,168.3v-12.7h-9.1v12.7H247.2z
		 M249.9,177.6c1.1,1.7,2.2,3.3,3.1,4.9c-1.4,0.7-2.4,1.3-3,1.8c-0.6-1.3-1.5-3-2.8-5.1c-1.2-2.1-2.2-3.6-2.9-4.5
		c0.4-0.3,1.3-0.8,2.7-1.6C247.8,174.5,248.8,175.9,249.9,177.6z"/>
	<path fill="#36568B" d="M271.3,151.7c-0.2,2.8-0.3,5.2-0.3,7.1v21.9h4.9v-23.7c0-1.6-0.1-3.4-0.3-5.4h3.7c-0.2,1.6-0.3,3.3-0.3,5.1
		v24h5.8c1.6,0,3.5-0.1,5.8-0.3v3.3c-2.3-0.2-4.2-0.3-5.7-0.3h-22.6c-1.4,0-3.4,0.1-6,0.3v-3.3c2.6,0.2,4.5,0.3,5.8,0.3h5.5v-22
		c0-2.1-0.1-4.4-0.4-7H271.3z M265.5,172.7c-1.1,0.2-2.2,0.6-3.4,1.2c-1.8-5.8-3.4-10.2-4.8-13.4c1-0.4,2.1-0.8,3.3-1.3
		C261.8,162.2,263.4,166.8,265.5,172.7z M284,174.2c-1-0.6-2-1-3.1-1.3c2.1-3.9,3.7-8.5,4.8-14c1.1,0.4,2.3,0.8,3.7,1.2
		C288,163.4,286.2,168.2,284,174.2z"/>
	<path fill="#36568B" d="M309,170.5c-0.7,0.6-1.5,1.2-2.5,1.9c-0.6-1.3-1.6-3-3.1-5.2v10.9c0,2,0,4.2,0.1,6.7h-3.3
		c0.1-2.5,0.1-4.7,0.1-6.7v-9.5c-0.5,1.5-1,2.9-1.6,4.2s-1.4,2.9-2.5,4.5c-0.9-1-1.7-1.8-2.4-2.4c0.8-0.9,1.8-2.6,3.1-5.2
		c1.3-2.6,2.3-5.5,3-8.6H299c-1.4,0-2.8,0.1-4.2,0.3v-2.8c1.4,0.1,2.7,0.1,4,0.1h1.5v-3c0-1.6-0.1-3.1-0.1-4.5h3.4
		c-0.2,1-0.3,2.5-0.3,4.5v3h1.6c1.1,0,2.3,0,3.7-0.1v2.7c-2.2-0.1-4-0.1-5.4-0.1v6c0.6-0.5,1.3-1,2.1-1.6
		C307,167.6,308.2,169.3,309,170.5z M322.8,160.4v19.4c0,1.3,0.3,2,0.9,2.1c0.6,0.1,1.1,0.1,1.5,0.1c0.4-0.1,0.7-0.4,0.8-1
		c0.1-0.6,0.2-1.6,0.2-2.9c0.9,0.5,1.9,0.9,3.1,1.2c-0.4,2.1-0.8,3.5-1.2,4.2c-0.4,0.7-1,1-1.9,1h-3.1c-1.2,0-2.1-0.3-2.6-0.8
		c-0.5-0.5-0.8-1.7-0.7-3.4v-24.4h-5.7c0,5.7-0.1,10.1-0.2,13.2c-0.1,3.1-0.6,6-1.3,8.5c-0.7,2.5-2.2,5.1-4.4,7.7
		c-0.5-0.6-1.4-1.4-2.7-2.4c1.4-1.1,2.5-2.4,3.4-4c0.8-1.6,1.4-3.2,1.7-4.9c0.3-1.7,0.5-3.5,0.6-5.4c0.1-1.9,0.1-4.3,0.1-7.1
		c0-3-0.1-5.7-0.1-8H323C322.9,156,322.8,158.4,322.8,160.4z"/>
	<path fill="#36568B" d="M367.2,164.2c-0.9,0.8-1.6,1.7-2.1,2.7c-6.8-3.1-11.9-7-15.3-11.9c-4.7,5.3-9.8,9.5-15.3,12.7
		c-1-1.4-1.8-2.2-2.5-2.5c3.7-1.3,7.2-3.4,10.5-6.4c3.3-3,5.6-5.7,6.8-8.2c0.9,0.6,1.9,1.1,3.1,1.6l-0.9,0.9
		C354.9,158,360.2,161.8,367.2,164.2z M341.6,181.4c6.6-0.2,11.6-0.4,15.2-0.6c-0.9-1-2.2-2.3-4-3.9c0.7-0.6,1.4-1.2,2.1-1.9
		c1.4,1.3,2.7,2.6,4,3.8c1.3,1.2,2.8,2.8,4.5,4.5c-0.7,0.6-1.5,1.3-2.5,2.2c-0.9-1.3-1.6-2.2-2.2-2.7c-2.3,0.1-6,0.3-11.1,0.6
		c-5.1,0.3-8.4,0.6-9.9,1c-0.5-1.3-0.9-2.3-1.2-3c1.6-0.5,3.5-1.8,5.7-3.8c2.2-2,3.7-3.7,4.6-5h-4.3c-2.7,0-5.2,0.1-7.4,0.1v-2.5
		c2.4,0.1,4.8,0.1,7.3,0.1h14.9c2.5,0,4.9,0,7.3-0.1v2.5c-2.4-0.1-5-0.1-7.9-0.1h-8.9c0.8,0.8,1.5,1.4,2.2,1.8
		C349.1,175,346.4,177.3,341.6,181.4z M352.5,163.6c2.2,0,4,0,5.4-0.1v2.7c-1.5-0.1-3.3-0.1-5.4-0.1h-6.4c-1.9,0-3.5,0.1-4.8,0.1
		v-2.7c1.3,0.1,2.8,0.1,4.6,0.1H352.5z"/>
</g>
</svg>
