<?xml version="1.0" encoding="iso-8859-1"?><!-- Generator: Adobe Illustrator 16.0.0, SVG Export Plug-In . SVG Version: 6.00 Build 0) --><!DOCTYPE svg PUBLIC "-//W3C//DTD SVG 1.1//EN" "http://www.w3.org/Graphics/SVG/1.1/DTD/svg11.dtd"><svg version="1.1" id="Layer_1" xmlns="http://www.w3.org/2000/svg" xmlns:xlink="http://www.w3.org/1999/xlink" x="0px" y="0px" width="192.756px" height="192.756px" viewBox="0 0 192.756 192.756" style="enable-background:new 0 0 192.756 192.756;" xml:space="preserve"><g><polygon style="fill-rule:evenodd;clip-rule:evenodd;" points="0,0 192.756,0 192.756,192.756 0,192.756 0,0	"/><polygon style="fill-rule:evenodd;clip-rule:evenodd;fill:#FBE02F;" points="8.504,73.712 184.252,73.712 184.252,119.045	8.504,119.045 8.504,73.712	"/><path style="fill:none;stroke:#FFFFFF;stroke-width:1.8809;stroke-miterlimit:2.6131;" d="M38.504,84.799	c-0.251,0.377-0.44,0.692-0.629,1.069c-1.762,2.832-3.523,5.663-5.285,8.432c0,0-6.104-9.879-6.669-10.822	c-0.252-0.504-0.629-0.881-1.07-1.259c-0.881-0.692-1.951-1.006-3.083-1.006c-1.259,0-2.328,0.377-3.209,1.069	s-1.51,1.762-1.699,2.958l-0.251,20.827l-0.126,0.818v0.062c0,1.133,0.503,2.203,1.322,2.957c0.817,0.693,1.824,1.133,2.894,1.133	c2.202,0,3.775-1.385,4.09-3.713c0,0,0.566-4.027,1.196-8.053c1.258,4.342,2.579,8.682,2.579,8.682	c0.566,1.951,2.077,3.084,4.153,3.084c1.888,0,3.272-1.133,3.901-3.084c0,0,1.258-4.34,2.58-8.682	c0.566,4.025,1.132,8.053,1.132,8.053c0.377,2.328,1.95,3.713,4.153,3.713c1.195,0,2.265-0.504,3.02-1.385	c0.692-0.754,1.07-1.762,1.07-2.957v-0.125L48.32,85.24c-0.189-1.196-0.755-2.203-1.762-2.958	c-0.881-0.692-1.951-1.069-3.146-1.069C40.958,81.213,39.636,82.974,38.504,84.799L38.504,84.799z M80.724,103.486	c-0.88-1.133-1.573-3.334-1.762-4.027v-0.314c0,0,0,0.062-0.063,0.127c0-0.064,0-0.064,0-0.064v0.189	c-0.251,0.756-0.944,2.957-1.762,4.09c-1.007,1.385-2.769,3.146-2.391,5.223c0.377,1.951,1.698,3.461,4.026,3.523v0.062	c2.517,0.064,3.901-1.51,4.279-3.523C83.492,106.695,81.667,104.871,80.724,103.486L80.724,103.486z M157.551,81.464	c-1.195,0-2.203,0.44-3.021,1.258v0.063c-0.754,0.755-1.133,1.825-1.133,2.895v20.828c0,1.131,0.379,2.139,1.07,2.893	c0.756,0.818,1.824,1.26,3.02,1.26h8.684c1.07,0,2.014-0.379,2.77-1.133c0.754-0.756,1.133-1.699,1.133-2.77	c0-1.068-0.379-2.012-1.07-2.768v-0.062c-0.756-0.756-1.699-1.133-2.832-1.133c0,0-2.768,0-4.656,0c0-1.133,0-1.637,0-2.77	c1.699,0,3.965,0,3.965,0c1.068,0,2.014-0.439,2.768-1.195c0.756-0.754,1.133-1.699,1.133-2.768c0-1.07-0.377-2.014-1.133-2.769	c-0.754-0.755-1.699-1.133-2.768-1.133c0,0-2.203,0-3.965,0c0-1.132,0-1.636,0-2.768c1.826,0,4.342,0,4.342,0	c1.133,0,2.076-0.378,2.832-1.196l0.062-0.063c0.691-0.755,1.008-1.699,1.008-2.706c0-1.069-0.379-2.013-1.07-2.769	c-0.693-0.755-1.637-1.195-2.77-1.195H157.551L157.551,81.464z M134.584,81.464c-2.58,0-4.152,1.573-4.152,4.09v21.016	c0,1.51,0.691,2.453,1.258,2.957c0.756,0.754,1.762,1.133,2.957,1.133h6.67c2.832,0,5.16-0.881,6.922-2.643	c1.824-1.762,2.705-4.09,2.705-6.859c0-1.824-0.439-3.461-1.385-4.908c-0.439-0.691-1.006-1.321-1.635-1.824	c0.754-1.195,1.195-2.58,1.195-4.215c0-2.643-0.943-4.782-2.705-6.418c-1.762-1.51-3.902-2.328-6.482-2.328H134.584L134.584,81.464	z M139.555,89.33c0.377,0,0.691,0.126,1.006,0.377c0.252,0.188,0.316,0.44,0.316,0.755c0,0.377-0.064,0.566-0.379,0.818	c-0.377,0.315-0.754,0.44-1.258,0.44c0,0-0.377,0-0.629,0c0-1.007,0-1.384,0-2.391C139.051,89.33,139.555,89.33,139.555,89.33	L139.555,89.33z M140.877,99.334c0.502,0,0.881,0.189,1.258,0.566c0.377,0.314,0.566,0.691,0.566,1.195s-0.127,0.881-0.504,1.195	c-0.439,0.441-0.881,0.566-1.447,0.566c0,0-1.068,0-2.201,0c0-1.322,0-2.201,0-3.523C139.682,99.334,140.812,99.334,140.877,99.334	L140.877,99.334z M121.244,82.534L121.244,82.534c-0.691,0.818-1.006,1.825-1.006,2.895v13.906c0,1.258-0.314,2.201-0.881,2.895	c-0.629,0.756-1.447,1.068-2.58,1.068s-2.014-0.312-2.58-1.006c-0.629-0.756-0.943-1.699-0.943-2.957V85.366	c0-1.07-0.314-2.077-0.943-2.895h-0.062c-0.693-0.818-1.574-1.258-2.58-1.258c-1.07,0-1.951,0.44-2.643,1.258h-0.064	c-0.629,0.818-1.006,1.824-1.006,2.957v13.906c0,3.523,1.07,6.355,3.084,8.557c2.012,2.076,4.592,3.146,7.738,3.146	s5.727-1.07,7.74-3.209c2.012-2.139,3.02-5.033,3.02-8.557V85.366c0-1.07-0.377-2.077-1.07-2.895v-0.063	c-0.691-0.755-1.635-1.195-2.643-1.195C122.818,81.213,121.938,81.653,121.244,82.534L121.244,82.534z M90.099,82.471	c-0.755,0.755-1.133,1.762-1.133,2.832v21.016c0,0.691,0.252,1.447,0.818,2.453c0.251,0.504,1.069,1.889,2.58,1.889h8.62	c1.07,0,2.076-0.379,2.832-1.133c0.754-0.756,1.133-1.699,1.133-2.832c0-1.07-0.379-2.014-1.133-2.768l-0.064-0.064l-0.062-0.062	c-0.754-0.691-1.697-1.068-2.768-1.068c0,0-2.203,0-3.902,0c0-2.959,0-17.43,0-17.43c0-1.07-0.376-2.077-1.069-2.832v-0.063l0,0	c-0.818-0.818-1.825-1.259-2.957-1.259C91.861,81.149,90.792,81.59,90.099,82.471L90.099,82.471z M55.493,81.464	c-1.133,0-2.14,0.44-2.958,1.195l-0.063,0.063c-0.755,0.818-1.132,1.825-1.132,2.958v21.205c0,1.068,0.377,2.076,1.195,2.895	c0.755,0.818,1.762,1.258,2.895,1.258c1.07,0,2.076-0.439,2.832-1.258c0.817-0.756,1.258-1.762,1.258-2.832c0,0,0-1.637,0-3.02	c2.328,2.705,4.845,5.6,4.845,5.6c0.818,1.006,1.888,1.51,3.146,1.51c1.133,0,2.14-0.439,2.895-1.258	c0.755-0.756,1.133-1.762,1.133-2.832c0-1.006-0.315-1.951-1.007-2.705c0,0-2.517-2.707-4.53-4.908	c1.069-0.377,2.013-1.008,2.831-1.824c1.636-1.574,2.517-3.713,2.517-6.292c0-2.895-0.944-5.286-2.832-7.047	c-1.888-1.825-4.342-2.706-7.173-2.706H55.493L55.493,81.464z M61.218,89.393c0.566,0,1.007,0.188,1.384,0.566	c0.377,0.314,0.503,0.692,0.503,1.195c0,0.441-0.126,0.755-0.44,1.07c-0.314,0.315-0.692,0.503-1.133,0.503c0,0-1.006,0-2.076,0	c0-1.321,0-2.014,0-3.334C60.337,89.393,61.218,89.393,61.218,89.393L61.218,89.393z"/><path style="fill-rule:evenodd;clip-rule:evenodd;fill:#0D6FAB;" d="M38.504,84.799c-0.251,0.377-0.44,0.692-0.629,1.069	c-1.762,2.832-3.523,5.663-5.285,8.432c0,0-6.104-9.879-6.669-10.822c-0.252-0.504-0.629-0.881-1.07-1.259	c-0.881-0.692-1.951-1.006-3.083-1.006c-1.259,0-2.328,0.377-3.209,1.069s-1.51,1.762-1.699,2.958l-0.251,20.827l-0.126,0.818	v0.062c0,1.133,0.503,2.203,1.322,2.957c0.817,0.693,1.824,1.133,2.894,1.133c2.202,0,3.775-1.385,4.09-3.713	c0,0,0.566-4.027,1.196-8.053c1.258,4.342,2.579,8.682,2.579,8.682c0.566,1.951,2.077,3.084,4.153,3.084	c1.888,0,3.272-1.133,3.901-3.084c0,0,1.258-4.34,2.58-8.682c0.566,4.025,1.132,8.053,1.132,8.053	c0.377,2.328,1.95,3.713,4.153,3.713c1.195,0,2.265-0.504,3.02-1.385c0.692-0.754,1.07-1.762,1.07-2.957v-0.125L48.32,85.24	c-0.189-1.196-0.755-2.203-1.762-2.958c-0.881-0.692-1.951-1.069-3.146-1.069C40.958,81.213,39.636,82.974,38.504,84.799	L38.504,84.799z M80.724,103.486c-0.88-1.133-1.573-3.334-1.762-4.027v-0.314c0,0,0,0.062-0.063,0.127c0-0.064,0-0.064,0-0.064	v0.189c-0.251,0.756-0.944,2.957-1.762,4.09c-1.007,1.385-2.769,3.146-2.391,5.223c0.377,1.951,1.698,3.461,4.026,3.523v0.062	c2.517,0.064,3.901-1.51,4.279-3.523C83.492,106.695,81.667,104.871,80.724,103.486L80.724,103.486z M157.551,81.464	c-1.195,0-2.203,0.44-3.021,1.258v0.063c-0.754,0.755-1.133,1.825-1.133,2.895v20.828c0,1.131,0.379,2.139,1.07,2.893	c0.756,0.818,1.824,1.26,3.02,1.26h8.684c1.07,0,2.014-0.379,2.77-1.133c0.754-0.756,1.133-1.699,1.133-2.77	c0-1.068-0.379-2.012-1.07-2.768v-0.062c-0.756-0.756-1.699-1.133-2.832-1.133c0,0-2.768,0-4.656,0c0-1.133,0-1.637,0-2.77	c1.699,0,3.965,0,3.965,0c1.068,0,2.014-0.439,2.768-1.195c0.756-0.754,1.133-1.699,1.133-2.768c0-1.07-0.377-2.014-1.133-2.769	c-0.754-0.755-1.699-1.133-2.768-1.133c0,0-2.203,0-3.965,0c0-1.132,0-1.636,0-2.768c1.826,0,4.342,0,4.342,0	c1.133,0,2.076-0.378,2.832-1.196l0.062-0.063c0.691-0.755,1.008-1.699,1.008-2.706c0-1.069-0.379-2.013-1.07-2.769	c-0.693-0.755-1.637-1.195-2.77-1.195H157.551L157.551,81.464z M134.584,81.464c-2.58,0-4.152,1.573-4.152,4.09v21.016	c0,1.51,0.691,2.453,1.258,2.957c0.756,0.754,1.762,1.133,2.957,1.133h6.67c2.832,0,5.16-0.881,6.922-2.643	c1.824-1.762,2.705-4.09,2.705-6.859c0-1.824-0.439-3.461-1.385-4.908c-0.439-0.691-1.006-1.321-1.635-1.824	c0.754-1.195,1.195-2.58,1.195-4.215c0-2.643-0.943-4.782-2.705-6.418c-1.762-1.51-3.902-2.328-6.482-2.328H134.584L134.584,81.464	z M139.555,89.33c0.377,0,0.691,0.126,1.006,0.377c0.252,0.188,0.316,0.44,0.316,0.755c0,0.377-0.064,0.566-0.379,0.818	c-0.377,0.315-0.754,0.44-1.258,0.44c0,0-0.377,0-0.629,0c0-1.007,0-1.384,0-2.391C139.051,89.33,139.555,89.33,139.555,89.33	L139.555,89.33z M140.877,99.334c0.502,0,0.881,0.189,1.258,0.566c0.377,0.314,0.566,0.691,0.566,1.195s-0.127,0.881-0.504,1.195	c-0.439,0.441-0.881,0.566-1.447,0.566c0,0-1.068,0-2.201,0c0-1.322,0-2.201,0-3.523C139.682,99.334,140.812,99.334,140.877,99.334	L140.877,99.334z M121.244,82.534L121.244,82.534c-0.691,0.818-1.006,1.825-1.006,2.895v13.906c0,1.258-0.314,2.201-0.881,2.895	c-0.629,0.756-1.447,1.068-2.58,1.068s-2.014-0.312-2.58-1.006c-0.629-0.756-0.943-1.699-0.943-2.957V85.366	c0-1.07-0.314-2.077-0.943-2.895h-0.062c-0.693-0.818-1.574-1.258-2.58-1.258c-1.07,0-1.951,0.44-2.643,1.258h-0.064	c-0.629,0.818-1.006,1.824-1.006,2.957v13.906c0,3.523,1.07,6.355,3.084,8.557c2.012,2.076,4.592,3.146,7.738,3.146	s5.727-1.07,7.74-3.209c2.012-2.139,3.02-5.033,3.02-8.557V85.366c0-1.07-0.377-2.077-1.07-2.895v-0.063	c-0.691-0.755-1.635-1.195-2.643-1.195C122.818,81.213,121.938,81.653,121.244,82.534L121.244,82.534z M90.099,82.471	c-0.755,0.755-1.133,1.762-1.133,2.832v21.016c0,0.691,0.252,1.447,0.818,2.453c0.251,0.504,1.069,1.889,2.58,1.889h8.62	c1.07,0,2.076-0.379,2.832-1.133c0.754-0.756,1.133-1.699,1.133-2.832c0-1.07-0.379-2.014-1.133-2.768l-0.064-0.064l-0.062-0.062	c-0.754-0.691-1.697-1.068-2.768-1.068c0,0-2.203,0-3.902,0c0-2.959,0-17.43,0-17.43c0-1.07-0.376-2.077-1.069-2.832v-0.063l0,0	c-0.818-0.818-1.825-1.259-2.957-1.259C91.861,81.149,90.792,81.59,90.099,82.471L90.099,82.471z M55.493,81.464	c-1.133,0-2.14,0.44-2.958,1.195l-0.063,0.063c-0.755,0.818-1.132,1.825-1.132,2.958v21.205c0,1.068,0.377,2.076,1.195,2.895	c0.755,0.818,1.762,1.258,2.895,1.258c1.07,0,2.076-0.439,2.832-1.258c0.817-0.756,1.258-1.762,1.258-2.832c0,0,0-1.637,0-3.02	c2.328,2.705,4.845,5.6,4.845,5.6c0.818,1.006,1.888,1.51,3.146,1.51c1.133,0,2.14-0.439,2.895-1.258	c0.755-0.756,1.133-1.762,1.133-2.832c0-1.006-0.315-1.951-1.007-2.705c0,0-2.517-2.707-4.53-4.908	c1.069-0.377,2.013-1.008,2.831-1.824c1.636-1.574,2.517-3.713,2.517-6.292c0-2.895-0.944-5.286-2.832-7.047	c-1.888-1.825-4.342-2.706-7.173-2.706H55.493L55.493,81.464z M61.218,89.393c0.566,0,1.007,0.188,1.384,0.566	c0.377,0.314,0.503,0.692,0.503,1.195c0,0.441-0.126,0.755-0.44,1.07c-0.314,0.315-0.692,0.503-1.133,0.503c0,0-1.006,0-2.076,0	c0-1.321,0-2.014,0-3.334C60.337,89.393,61.218,89.393,61.218,89.393L61.218,89.393z"/><path style="fill-rule:evenodd;clip-rule:evenodd;fill:#0D6FAB;" d="M176.619,104.398c0.832,0,1.568,0.295,2.209,0.887	c0.672,0.623,1.008,1.375,1.008,2.256c0,1.066-0.379,1.889-1.139,2.469c-0.59,0.449-1.25,0.674-1.977,0.674h-0.158	c-0.752,0-1.441-0.314-2.07-0.943s-0.941-1.34-0.941-2.135v-0.129c0-0.869,0.297-1.6,0.896-2.191	C175.045,104.693,175.768,104.398,176.619,104.398L176.619,104.398z M176.924,107.355c0.258,0,0.461-0.061,0.605-0.184	c0.145-0.125,0.217-0.271,0.217-0.445c0-0.166-0.066-0.311-0.199-0.434c-0.131-0.123-0.314-0.186-0.549-0.186h-1.156v1.248H176.924	L176.924,107.355z M176.693,104.852c-0.611,0-1.182,0.209-1.711,0.629c-0.666,0.523-0.998,1.232-0.998,2.125	c0,0.684,0.27,1.305,0.809,1.863c0.539,0.557,1.148,0.836,1.826,0.836h0.111c0.678,0,1.289-0.275,1.834-0.828	c0.545-0.551,0.818-1.195,0.818-1.936c0-0.727-0.27-1.357-0.811-1.891C178.035,105.117,177.408,104.852,176.693,104.852	L176.693,104.852z M175.389,105.73h1.664c0.377,0,0.676,0.104,0.896,0.312c0.197,0.191,0.297,0.42,0.297,0.684	c0,0.254-0.096,0.475-0.283,0.662s-0.447,0.281-0.781,0.281l-0.129-0.008l1.055,1.625h-0.527l-1.018-1.553h-0.721v1.553h-0.453	V105.73L175.389,105.73z"/></g></svg>