<?xml version="1.0" encoding="utf-8"?>
<!-- Generator: Adobe Illustrator 17.0.0, SVG Export Plug-In . SVG Version: 6.00 Build 0)  -->
<!DOCTYPE svg PUBLIC "-//W3C//DTD SVG 1.1//EN" "http://www.w3.org/Graphics/SVG/1.1/DTD/svg11.dtd">
<svg version="1.1" id="Capa_1" xmlns="http://www.w3.org/2000/svg" xmlns:xlink="http://www.w3.org/1999/xlink" x="0px" y="0px"
	 width="198px" height="86px" viewBox="0 0 198 86" enable-background="new 0 0 198 86" xml:space="preserve">
<path fill-rule="evenodd" clip-rule="evenodd" fill="#003782" d="M34.99,35.9c5.901,0,11.804,0,17.705,0
	c0.252,4.639,0.505,9.279,0.757,13.918c0.107-0.08,0.014,0.012,0.095-0.095c0.186-0.168,0.079-0.208,0.189-0.379
	c0.063-0.032,0.126-0.063,0.189-0.095c0-0.063,0-0.126,0-0.189c0.063-0.032,0.126-0.063,0.189-0.095c0-0.063,0-0.126,0-0.189
	c0.063-0.032,0.126-0.063,0.189-0.095c0-0.063,0-0.126,0-0.189c0.063-0.032,0.126-0.063,0.189-0.095c0-0.063,0-0.126,0-0.189
	c0.063-0.032,0.126-0.063,0.189-0.095c0-0.063,0-0.126,0-0.189c0.063-0.032,0.126-0.063,0.189-0.095
	c0.032-0.126,0.063-0.252,0.095-0.379c0.063-0.032,0.126-0.063,0.189-0.095c0-0.063,0-0.126,0-0.189
	c0.063-0.032,0.126-0.063,0.189-0.095c0-0.063,0-0.126,0-0.189c0.063-0.032,0.126-0.063,0.189-0.095c0-0.063,0-0.126,0-0.189
	c0.063-0.032,0.126-0.063,0.189-0.095c0.032-0.126,0.063-0.252,0.095-0.379c0.063-0.032,0.126-0.063,0.189-0.095
	c0-0.063,0-0.126,0-0.189c0.063-0.032,0.126-0.063,0.189-0.095c0-0.063,0-0.126,0-0.189c0.063-0.032,0.126-0.063,0.189-0.095
	c0-0.063,0-0.126,0-0.189c0.063-0.032,0.126-0.063,0.189-0.095c0.032-0.126,0.063-0.252,0.095-0.379
	c0.063-0.032,0.126-0.063,0.189-0.095c0-0.063,0-0.126,0-0.189c0.032,0,0.063,0,0.095,0c0.032-0.095,0.063-0.189,0.095-0.284
	c0.063-0.032,0.126-0.063,0.189-0.095c0-0.063,0-0.126,0-0.189c0.063-0.032,0.126-0.063,0.189-0.095
	c0.032-0.095,0.063-0.189,0.095-0.284c0.032,0,0.063,0,0.095,0c0.032-0.126,0.063-0.252,0.095-0.379
	c0.063-0.032,0.126-0.063,0.189-0.095c0-0.063,0-0.126,0-0.189c0.063-0.032,0.126-0.063,0.189-0.095c0-0.063,0-0.126,0-0.189
	c0.063-0.032,0.126-0.063,0.189-0.095c0-0.063,0-0.126,0-0.189c0.063-0.032,0.126-0.063,0.189-0.095
	c0.032-0.095,0.063-0.189,0.095-0.284c0.032,0,0.063,0,0.095,0c0.032-0.126,0.063-0.252,0.095-0.379
	c0.095-0.063,0.189-0.126,0.284-0.189c0.032-0.126,0.063-0.252,0.095-0.379c0.063-0.032,0.126-0.063,0.189-0.095
	c0.032-0.095,0.063-0.189,0.095-0.284c0.032,0,0.063,0,0.095,0c0.032-0.126,0.063-0.252,0.095-0.379
	c0.063-0.032,0.126-0.063,0.189-0.095c0-0.063,0-0.126,0-0.189c0.063-0.032,0.126-0.063,0.189-0.095c0-0.063,0-0.126,0-0.189
	c0.063-0.032,0.126-0.063,0.189-0.095c0-0.063,0-0.126,0-0.189c0.063-0.032,0.126-0.063,0.189-0.095c0-0.063,0-0.126,0-0.189
	c0.063-0.032,0.126-0.063,0.189-0.095c0-0.063,0-0.126,0-0.189c0.063-0.032,0.126-0.063,0.189-0.095
	c0.032-0.126,0.063-0.252,0.095-0.379c0.095-0.063,0.189-0.126,0.284-0.189c0-0.063,0-0.126,0-0.189
	c0.221-0.189,0.442-0.379,0.663-0.568c0.063-0.095,0.126-0.189,0.189-0.284c0.063,0,0.126,0,0.189,0
	c0.063-0.095,0.126-0.189,0.189-0.284c0.189-0.063,0.379-0.126,0.568-0.189c0.032-0.063,0.063-0.126,0.095-0.189
	c0.095,0,0.189,0,0.284,0c0-0.032,0-0.063,0-0.095c0.063,0,0.126,0,0.189,0c0-0.032,0-0.063,0-0.095c0.095,0,0.189,0,0.284,0
	c0-0.032,0-0.063,0-0.095c0.095,0,0.189,0,0.284,0c0-0.032,0-0.063,0-0.095c0.126,0,0.252,0,0.379,0c0-0.032,0-0.063,0-0.095
	c0.158,0,0.316,0,0.473,0c0-0.032,0-0.063,0-0.095c1.325,0,2.651,0,3.976,0c3.85,0,7.701,0,11.551,0
	c-0.095,0.41-0.189,0.821-0.284,1.231c-0.032,0-0.063,0-0.095,0c-0.032,0.221-0.063,0.442-0.095,0.663c-0.032,0-0.063,0-0.095,0
	c0,0.126,0,0.252,0,0.379c-0.032,0-0.063,0-0.095,0c0,0.095,0,0.189,0,0.284c-0.032,0-0.063,0-0.095,0c0,0.095,0,0.189,0,0.284
	c-0.032,0-0.063,0-0.095,0c0,0.095,0,0.189,0,0.284c-0.032,0-0.063,0-0.095,0c-0.032,0.221-0.063,0.442-0.095,0.663
	c-0.032,0-0.063,0-0.095,0c-0.063,0.316-0.126,0.631-0.189,0.947c-0.032,0-0.063,0-0.095,0c-0.063,0.316-0.126,0.631-0.189,0.947
	c-0.032,0-0.063,0-0.095,0c0,0.126,0,0.252,0,0.379c-0.032,0-0.063,0-0.095,0c0,0.095,0,0.189,0,0.284c-0.032,0-0.063,0-0.095,0
	c0,0.095,0,0.189,0,0.284c-0.032,0-0.063,0-0.095,0c-0.063,0.316-0.126,0.631-0.189,0.947c-0.032,0-0.063,0-0.095,0
	c0,0.126,0,0.252,0,0.379c-0.772,2.127-1.319,4.509-2.083,6.627c-0.126,0.568-0.252,1.136-0.379,1.704c-0.032,0-0.063,0-0.095,0
	c0,0.095,0,0.189,0,0.284c-0.032,0-0.063,0-0.095,0c0,0.095,0,0.189,0,0.284c-0.032,0-0.063,0-0.095,0c0,0.095,0,0.189,0,0.284
	c-0.032,0-0.063,0-0.095,0c-0.032,0.221-0.063,0.442-0.095,0.663c-0.032,0-0.063,0-0.095,0c-0.063,0.316-0.126,0.631-0.189,0.947
	c-0.032,0-0.063,0-0.095,0c0,0.126,0,0.252,0,0.379c-0.032,0-0.063,0-0.095,0c0,0.095,0,0.189,0,0.284c-0.032,0-0.063,0-0.095,0
	c0,0.095,0,0.189,0,0.284c-0.032,0-0.063,0-0.095,0c0,0.126,0,0.252,0,0.379c-0.032,0-0.063,0-0.095,0
	c-0.063,0.316-0.126,0.631-0.189,0.947c-0.204,0.563-0.489,1.197-0.568,1.894c-4.229,0-8.458,0-12.687,0
	c0.063-0.347,0.126-0.694,0.189-1.041c0.032,0,0.063,0,0.095,0c0-0.126,0-0.252,0-0.379c0.032,0,0.063,0,0.095,0
	c0-0.126,0-0.252,0-0.379c0.032,0,0.063,0,0.095,0c0-0.126,0-0.252,0-0.379c0.032,0,0.063,0,0.095,0c0-0.095,0-0.189,0-0.284
	c0.032,0,0.063,0,0.095,0c0.032-0.252,0.063-0.505,0.095-0.757c0.032,0,0.063,0,0.095,0c0-0.126,0-0.252,0-0.379
	c0.032,0,0.063,0,0.095,0c0-0.126,0-0.252,0-0.379c0.032,0,0.063,0,0.095,0c0-0.126,0-0.252,0-0.379c0.032,0,0.063,0,0.095,0
	c0-0.095,0-0.189,0-0.284c0.032,0,0.063,0,0.095,0c0-0.126,0-0.252,0-0.379c0.032,0,0.063,0,0.095,0c0-0.126,0-0.252,0-0.379
	c0.032,0,0.063,0,0.095,0c0-0.126,0-0.252,0-0.379c0.032,0,0.063,0,0.095,0c0-0.126,0-0.252,0-0.379
	c0.386-1.122,0.657-2.471,1.041-3.598c0-0.126,0-0.252,0-0.379c0.032,0,0.063,0,0.095,0c0-0.126,0-0.252,0-0.379
	c0.032,0,0.063,0,0.095,0c0-0.095,0-0.189,0-0.284c0.032,0,0.063,0,0.095,0c0-0.126,0-0.252,0-0.379c0.032,0,0.063,0,0.095,0
	c0.065-0.187,0.036-0.327,0.095-0.473c-0.032,0-0.063,0-0.095,0c-2.588,3.881-5.176,7.764-7.764,11.645c-3.534,0-7.07,0-10.604,0
	c-0.08-0.107,0.012-0.014-0.095-0.095c-0.063-1.01-0.126-2.02-0.189-3.03c-0.032,0-0.063,0-0.095,0c0-0.379,0-0.757,0-1.136
	c-0.032,0-0.063,0-0.095,0c0-0.379,0-0.757,0-1.136c-0.032,0-0.063,0-0.095,0c0-0.379,0-0.757,0-1.136c-0.032,0-0.063,0-0.095,0
	c0-0.347,0-0.694,0-1.041c-0.032,0-0.063,0-0.095,0c0-0.379,0-0.757,0-1.136c-0.032,0-0.063,0-0.095,0c0-0.347,0-0.694,0-1.041
	c0-0.032,0-0.063,0-0.095c-0.032,0-0.063,0-0.095,0c0-0.379,0-0.757,0-1.136c-0.032,0-0.063,0-0.095,0c0-0.252,0-0.505,0-0.757
	c-0.032,0-0.063,0-0.095,0c-0.095,0.41-0.189,0.821-0.284,1.231c-0.032,0-0.063,0-0.095,0c0,0.095,0,0.189,0,0.284
	c-0.032,0-0.063,0-0.095,0c0,0.126,0,0.252,0,0.379c-0.032,0-0.063,0-0.095,0c0,0.095,0,0.189,0,0.284c-0.032,0-0.063,0-0.095,0
	c0,0.095,0,0.189,0,0.284c-0.032,0-0.063,0-0.095,0c-0.032,0.221-0.063,0.442-0.095,0.663c-0.032,0-0.063,0-0.095,0
	c-0.032,0.221-0.063,0.442-0.095,0.663c-0.032,0-0.063,0-0.095,0c0,0.126,0,0.252,0,0.379c-0.032,0-0.063,0-0.095,0
	c0,0.095,0,0.189,0,0.284c-0.032,0-0.063,0-0.095,0c0,0.095,0,0.189,0,0.284c-0.032,0-0.063,0-0.095,0
	c-0.063,0.316-0.126,0.631-0.189,0.947c-0.032,0-0.063,0-0.095,0c-0.063,0.316-0.126,0.631-0.189,0.947c-0.032,0-0.063,0-0.095,0
	c-0.032,0.221-0.063,0.442-0.095,0.663c-0.032,0-0.063,0-0.095,0c-0.063,0.316-0.126,0.631-0.189,0.947c-0.032,0-0.063,0-0.095,0
	c0,0.063,0,0.126,0,0.189c-0.032,0-0.063,0-0.095,0c0,0.063,0,0.126,0,0.189c-0.032,0-0.063,0-0.095,0c0,0.063,0,0.126,0,0.189
	c-0.032,0-0.063,0-0.095,0c0,0.063,0,0.126,0,0.189c-0.032,0-0.063,0-0.095,0c0,0.063,0,0.126,0,0.189
	c-0.095,0.063-0.189,0.126-0.284,0.189c0,0.063,0,0.126,0,0.189c-0.221,0.189-0.442,0.379-0.663,0.568
	c-0.095,0.126-0.189,0.252-0.284,0.379c-0.063,0-0.126,0-0.189,0c-0.063,0.095-0.126,0.189-0.189,0.284c-0.063,0-0.126,0-0.189,0
	c0,0.032,0,0.063,0,0.095c-0.063,0-0.126,0-0.189,0c0,0.032,0,0.063,0,0.095c-0.063,0-0.126,0-0.189,0c0,0.032,0,0.063,0,0.095
	c-0.063,0-0.126,0-0.189,0c0,0.032,0,0.063,0,0.095c-0.126,0.032-0.252,0.063-0.379,0.095c0,0.032,0,0.063,0,0.095
	c-0.126,0-0.252,0-0.379,0c0,0.032,0,0.063,0,0.095c-0.095,0-0.189,0-0.284,0c0,0.032,0,0.063,0,0.095c-0.126,0-0.252,0-0.379,0
	c0,0.032,0,0.063,0,0.095c-1.041,0.032-2.083,0.063-3.124,0.095c-2.177,0-4.355,0-6.533,0c0.032-0.189,0.063-0.379,0.095-0.568
	c0.032,0,0.063,0,0.095,0c0-0.126,0-0.252,0-0.379c0.032,0,0.063,0,0.095,0c0-0.095,0-0.189,0-0.284c0.032,0,0.063,0,0.095,0
	c0-0.095,0-0.189,0-0.284c0.032,0,0.063,0,0.095,0c0.063-0.316,0.126-0.631,0.189-0.947c0.032,0,0.063,0,0.095,0
	c0-0.126,0-0.252,0-0.379c0.032,0,0.063,0,0.095,0c0-0.095,0-0.189,0-0.284c0.032,0,0.063,0,0.095,0c0-0.095,0-0.189,0-0.284
	c0.032,0,0.063,0,0.095,0c0-0.126,0-0.252,0-0.379c0.032,0,0.063,0,0.095,0c0-0.095,0-0.189,0-0.284c0.032,0,0.063,0,0.095,0
	c0-0.095,0-0.189,0-0.284c0.032,0,0.063,0,0.095,0c0.063-0.316,0.126-0.631,0.189-0.947c0.032,0,0.063,0,0.095,0
	c0.063-0.316,0.126-0.631,0.189-0.947c0.032,0,0.063,0,0.095,0c0-0.126,0-0.252,0-0.379c0.032,0,0.063,0,0.095,0
	c0-0.095,0-0.189,0-0.284c0.032,0,0.063,0,0.095,0c0-0.126,0-0.252,0-0.379c0.614-1.685,1.096-3.62,1.704-5.302
	c0-0.126,0-0.252,0-0.379c0.032,0,0.063,0,0.095,0c0-0.095,0-0.189,0-0.284c0.032,0,0.063,0,0.095,0c0-0.126,0-0.252,0-0.379
	c0.032,0,0.063,0,0.095,0c0-0.095,0-0.189,0-0.284c0.032,0,0.063,0,0.095,0c0-0.095,0-0.189,0-0.284c0.032,0,0.063,0,0.095,0
	c0-0.095,0-0.189,0-0.284c0.032,0,0.063,0,0.095,0c0.032-0.221,0.063-0.442,0.095-0.663c0.032,0,0.063,0,0.095,0
	c0.063-0.316,0.126-0.631,0.189-0.947c0.032,0,0.063,0,0.095,0c0.063-0.316,0.126-0.631,0.189-0.947c0.032,0,0.063,0,0.095,0
	c0-0.126,0-0.252,0-0.379c0.032,0,0.063,0,0.095,0c0-0.095,0-0.189,0-0.284c0.032,0,0.063,0,0.095,0c0-0.126,0-0.252,0-0.379
	c0.032,0,0.063,0,0.095,0c0-0.095,0-0.189,0-0.284c0.032,0,0.063,0,0.095,0c0-0.095,0-0.189,0-0.284c0.032,0,0.063,0,0.095,0
	c0-0.095,0-0.189,0-0.284c0.032,0,0.063,0,0.095,0c0.063-0.316,0.126-0.631,0.189-0.947c0.032,0,0.063,0,0.095,0
	c0.063-0.316,0.126-0.631,0.189-0.947c0.032,0,0.063,0,0.095,0c0-0.126,0-0.252,0-0.379c0.032,0,0.063,0,0.095,0
	c0-0.095,0-0.189,0-0.284c0.032,0,0.063,0,0.095,0c0-0.126,0-0.252,0-0.379c0.032,0,0.063,0,0.095,0
	C34.801,36.594,34.895,36.247,34.99,35.9z"/>
<path fill-rule="evenodd" clip-rule="evenodd" fill="#003782" d="M114.708,40.918c-0.063-0.379-0.126-0.757-0.189-1.136
	c-0.032,0-0.063,0-0.095,0c0-0.063,0-0.126,0-0.189c-0.032,0-0.063,0-0.095,0c0-0.095,0-0.189,0-0.284c-0.032,0-0.063,0-0.095,0
	c0-0.063,0-0.126,0-0.189c-0.032,0-0.063,0-0.095,0c0-0.063,0-0.126,0-0.189c-0.063-0.032-0.126-0.063-0.189-0.095
	c0-0.063,0-0.126,0-0.189c-0.063-0.032-0.126-0.063-0.189-0.095c0-0.063,0-0.126,0-0.189c-0.032,0-0.063,0-0.095,0
	c-0.111-0.141-0.131-0.168-0.189-0.379c-0.063,0-0.126,0-0.189,0c0-0.063,0-0.126,0-0.189c-0.063,0-0.126,0-0.189,0
	c0-0.063,0-0.126,0-0.189c-0.245-0.068-0.307-0.148-0.473-0.284c0-0.032,0-0.063,0-0.095c-0.063,0-0.126,0-0.189,0
	c-0.032-0.063-0.063-0.126-0.095-0.189c-0.063,0-0.126,0-0.189,0c-0.032-0.063-0.063-0.126-0.095-0.189c-0.095,0-0.189,0-0.284,0
	c-0.032-0.063-0.063-0.126-0.095-0.189c-0.095,0-0.189,0-0.284,0c0-0.032,0-0.063,0-0.095c-0.063,0-0.126,0-0.189,0
	c0-0.032,0-0.063,0-0.095c-0.158-0.032-0.316-0.063-0.473-0.095c0-0.032,0-0.063,0-0.095c-0.126,0-0.253,0-0.379,0
	c0-0.032,0-0.063,0-0.095c-0.126,0-0.253,0-0.379,0c0-0.032,0-0.063,0-0.095c-0.158,0-0.316,0-0.473,0c0-0.032,0-0.063,0-0.095
	c-0.252,0-0.505,0-0.757,0c0-0.032,0-0.063,0-0.095c-1.578,0-3.156,0-4.734,0c-3.945,0-7.89,0-11.835,0
	c-2.566,0-5.522-0.24-7.101,0.757c-0.032,0.063-0.063,0.126-0.095,0.189c-0.063,0-0.126,0-0.189,0
	c-0.032,0.063-0.063,0.126-0.095,0.189c-0.063,0-0.126,0-0.189,0c-0.158,0.189-0.316,0.379-0.473,0.568c-0.063,0-0.126,0-0.189,0
	c-0.07,0.245-0.147,0.306-0.284,0.473c-0.032,0-0.063,0-0.095,0c0,0.063,0,0.126,0,0.189c-0.063,0.032-0.126,0.063-0.189,0.095
	c0,0.063,0,0.126,0,0.189c-0.063,0.032-0.126,0.063-0.189,0.095c0,0.063,0,0.126,0,0.189c-0.032,0-0.063,0-0.095,0
	c0,0.063,0,0.126,0,0.189c-0.032,0-0.063,0-0.095,0c0,0.095,0,0.189,0,0.284c-0.032,0-0.063,0-0.095,0c0,0.063,0,0.126,0,0.189
	c-0.032,0-0.063,0-0.095,0c0,0.126,0,0.253,0,0.379c-0.032,0-0.063,0-0.095,0c0,0.095,0,0.189,0,0.284c-0.032,0-0.063,0-0.095,0
	c0,0.095,0,0.189,0,0.284c-0.032,0-0.063,0-0.095,0c-0.063,0.316-0.126,0.631-0.189,0.947c-0.032,0-0.063,0-0.095,0
	c-0.063,0.316-0.126,0.631-0.189,0.947c-0.032,0-0.063,0-0.095,0c0,0.126,0,0.253,0,0.379c-0.798,2.215-1.374,4.703-2.178,6.911
	c0,0.126,0,0.253,0,0.379c-0.032,0-0.063,0-0.095,0c-0.032,0.221-0.063,0.442-0.095,0.663c-0.032,0-0.063,0-0.095,0
	c-0.063,0.316-0.126,0.631-0.189,0.947c-0.032,0-0.063,0-0.095,0c0,0.095,0,0.189,0,0.284c-0.032,0-0.063,0-0.095,0
	c0,0.095,0,0.189,0,0.284c-0.032,0-0.063,0-0.095,0c0,0.126,0,0.252,0,0.379c-0.032,0-0.063,0-0.095,0
	c-0.063,0.316-0.126,0.631-0.189,0.947c-0.032,0-0.063,0-0.095,0c-0.063,0.316-0.126,0.631-0.189,0.947c-0.031,0-0.063,0-0.095,0
	c-0.063,0.316-0.126,0.631-0.189,0.947c-0.032,0-0.063,0-0.095,0c0,0.095,0,0.189,0,0.284c-0.032,0-0.063,0-0.095,0
	c0,0.095,0,0.189,0,0.284c-0.031,0-0.063,0-0.095,0c0,0.126,0,0.253,0,0.379c-0.032,0-0.063,0-0.095,0c0,0.095,0,0.189,0,0.284
	c-0.032,0-0.063,0-0.095,0c0,0.126,0,0.253,0,0.379c-0.032,0-0.063,0-0.095,0c-0.158,0.6-0.316,1.199-0.473,1.799
	c2.24,0,4.482,0,6.722,0c1.088,0,2.292,0.06,3.124-0.189c0.158,0,0.316,0,0.473,0c0-0.032,0-0.063,0-0.095
	c0.284-0.063,0.568-0.126,0.852-0.189c0-0.032,0-0.063,0-0.095c0.189-0.063,0.379-0.126,0.568-0.189c0-0.032,0-0.063,0-0.095
	c0.063,0,0.126,0,0.189,0c0.032-0.063,0.063-0.126,0.095-0.189c0.063,0,0.126,0,0.189,0c0.063-0.095,0.126-0.189,0.189-0.284
	c0.063,0,0.126,0,0.189,0c0.063-0.095,0.126-0.189,0.189-0.284c0.189-0.158,0.379-0.316,0.568-0.473c0-0.063,0-0.126,0-0.189
	c0.095-0.063,0.189-0.126,0.284-0.189c0-0.063,0-0.126,0-0.189c0.063-0.032,0.126-0.063,0.189-0.095
	c0.031-0.126,0.063-0.253,0.095-0.379c0.032,0,0.063,0,0.095,0c0-0.095,0-0.189,0-0.284c0.032,0,0.063,0,0.095,0
	c0-0.063,0-0.126,0-0.189c0.032,0,0.063,0,0.095,0c0-0.095,0-0.189,0-0.284c0.032,0,0.063,0,0.095,0
	c0.063-0.316,0.126-0.631,0.189-0.947c0.032,0,0.063,0,0.095,0c0.081-0.107-0.013-0.015,0.095-0.095
	c0.884,1.641,1.767,3.282,2.651,4.923c4.923,0,9.847,0,14.77,0c-0.032-0.095-0.063-0.189-0.095-0.284
	c-0.063-0.032-0.126-0.063-0.189-0.095c-0.032-0.126-0.063-0.253-0.095-0.379c-0.063-0.032-0.126-0.063-0.189-0.095
	c-0.032-0.126-0.063-0.253-0.095-0.379c-0.063-0.032-0.126-0.063-0.189-0.095c-0.063-0.189-0.126-0.379-0.189-0.568
	c-0.063-0.032-0.126-0.063-0.189-0.095c-0.032-0.095-0.063-0.189-0.095-0.284c-0.032,0-0.063,0-0.095,0
	c-0.063-0.189-0.126-0.379-0.189-0.568c-0.063-0.032-0.126-0.063-0.189-0.095c0-0.063,0-0.126,0-0.189
	c-0.063-0.032-0.126-0.063-0.189-0.095c-0.063-0.189-0.126-0.379-0.189-0.568c-0.063-0.032-0.126-0.063-0.189-0.095
	c-0.032-0.095-0.063-0.189-0.095-0.284c-0.032,0-0.063,0-0.095,0c-0.063-0.189-0.126-0.379-0.189-0.568
	c-0.063-0.032-0.126-0.063-0.189-0.095c-0.032-0.095-0.063-0.189-0.095-0.284c-0.032,0-0.063,0-0.095,0
	c-0.032-0.126-0.063-0.253-0.095-0.379c-0.032,0-0.063,0-0.095,0c0-0.063,0-0.126,0-0.189c-0.063-0.032-0.126-0.063-0.189-0.095
	c0-0.063,0-0.126,0-0.189c-0.063-0.032-0.126-0.063-0.189-0.095c0-0.063,0-0.126,0-0.189c-0.032,0-0.063,0-0.095,0
	c0-0.063,0-0.126,0-0.189c-0.032,0-0.063,0-0.095,0c0-0.063,0-0.126,0-0.189c-0.063-0.032-0.126-0.063-0.189-0.095
	c0-0.063,0-0.126,0-0.189c-0.032,0-0.063,0-0.095,0c-0.13-0.213,0.037-0.128-0.189-0.284c0-0.032,0-0.063,0-0.095
	c0.663-0.095,1.326-0.189,1.988-0.284c0-0.032,0-0.063,0-0.095c0.221-0.032,0.442-0.063,0.663-0.095c0-0.032,0-0.063,0-0.095
	c0.095,0,0.189,0,0.284,0c0-0.032,0-0.063,0-0.095c0.095,0,0.189,0,0.284,0c0-0.032,0-0.063,0-0.095
	c0.189-0.032,0.379-0.063,0.568-0.095c0-0.032,0-0.063,0-0.095c0.189-0.063,0.379-0.126,0.568-0.189c0-0.032,0-0.063,0-0.095
	c0.063,0,0.126,0,0.189,0c0-0.032,0-0.063,0-0.095c0.063,0,0.126,0,0.189,0c0-0.032,0-0.063,0-0.095
	c0.189-0.063,0.379-0.126,0.568-0.189c0.031-0.063,0.063-0.126,0.095-0.189c0.063,0,0.126,0,0.189,0
	c0.032-0.063,0.063-0.126,0.095-0.189c0.4-0.267,0.785-0.336,1.041-0.757c0.063,0,0.126,0,0.189,0c0-0.063,0-0.126,0-0.189
	c0.063,0,0.126,0,0.189,0c0.158-0.189,0.316-0.379,0.473-0.568c0.032,0,0.063,0,0.095,0c0-0.063,0-0.126,0-0.189
	c0.063,0,0.126,0,0.189,0c0.058-0.21,0.078-0.238,0.189-0.379c0.032,0,0.063,0,0.095,0c0.032-0.095,0.063-0.189,0.095-0.284
	c0.063-0.032,0.126-0.063,0.189-0.095c0-0.063,0-0.126,0-0.189c0.063-0.032,0.126-0.063,0.189-0.095c0-0.063,0-0.126,0-0.189
	c0.063-0.032,0.126-0.063,0.189-0.095c0.063-0.189,0.126-0.379,0.189-0.568c0.032,0,0.063,0,0.095,0
	c0.095-0.284,0.189-0.568,0.284-0.852c0.31-0.705,0.656-1.542,0.663-2.556c0-0.536,0-1.073,0-1.609
	C114.772,40.918,114.74,40.918,114.708,40.918z M103.442,44.61c-0.032,0-0.063,0-0.095,0c0,0.158,0,0.316,0,0.473
	c-0.032,0-0.063,0-0.095,0c-0.032,0.158-0.063,0.316-0.095,0.473c-0.032,0-0.063,0-0.095,0c0,0.063,0,0.126,0,0.189
	c-0.032,0-0.063,0-0.095,0c-1.007,1.773-3.43,1.515-5.965,1.515c-1.527,0-3.299,0.069-4.544,0c0.473-1.483,0.947-2.967,1.42-4.45
	c1.799,0,3.598,0,5.397,0c0.925,0,1.864-0.032,2.556,0.189c0.126,0,0.253,0,0.379,0c0,0.032,0,0.063,0,0.095
	c0.095,0,0.189,0,0.284,0c0,0.032,0,0.063,0,0.095c0.063,0,0.126,0,0.189,0c0,0.032,0,0.063,0,0.095c0.063,0,0.126,0,0.189,0
	c0,0.032,0,0.063,0,0.095c0.126,0.095,0.252,0.189,0.379,0.284c0.032,0.158,0.063,0.316,0.095,0.473c0.032,0,0.063,0,0.095,0
	C103.442,44.294,103.442,44.452,103.442,44.61z"/>
<path fill-rule="evenodd" clip-rule="evenodd" fill="#003782" d="M129.762,43.095c-0.001,0.501-0.152,0.787-0.284,1.136
	c0,0.095,0,0.189,0,0.284c-0.032,0-0.063,0-0.095,0c0,0.095,0,0.189,0,0.284c-0.032,0-0.063,0-0.095,0c0,0.126,0,0.252,0,0.379
	c-0.032,0-0.063,0-0.095,0c0,0.095,0,0.189,0,0.284c-0.032,0-0.063,0-0.095,0c0,0.095,0,0.189,0,0.284c-0.032,0-0.063,0-0.095,0
	c-0.063,0.316-0.126,0.631-0.189,0.947c-0.032,0-0.063,0-0.095,0c-0.063,0.316-0.126,0.631-0.189,0.947c-0.032,0-0.063,0-0.095,0
	c0,0.126,0,0.252,0,0.379c-0.032,0-0.063,0-0.095,0c0,0.095,0,0.189,0,0.284c-0.032,0-0.063,0-0.095,0c0,0.095,0,0.189,0,0.284
	c-0.032,0-0.063,0-0.095,0c-0.063,0.316-0.126,0.631-0.189,0.947c-0.032,0-0.063,0-0.095,0c0,0.126,0,0.252,0,0.379
	c-0.096,0.266-0.239,0.483-0.284,0.852c0.032,0,0.063,0,0.095,0c0-0.063,0-0.126,0-0.189c0.319-0.198,0.273-0.375,0.473-0.663
	c0.095-0.063,0.189-0.126,0.284-0.189c0-0.063,0-0.126,0-0.189c0.095-0.063,0.189-0.126,0.284-0.189c0-0.063,0-0.126,0-0.189
	c0.095-0.063,0.189-0.126,0.284-0.189c0-0.063,0-0.126,0-0.189c0.095-0.063,0.189-0.126,0.284-0.189c0-0.063,0-0.126,0-0.189
	c0.063-0.032,0.126-0.063,0.189-0.095c0-0.063,0-0.126,0-0.189c0.095-0.063,0.189-0.126,0.284-0.189c0-0.063,0-0.126,0-0.189
	c0.095-0.063,0.189-0.126,0.284-0.189c0-0.063,0-0.126,0-0.189c0.095-0.063,0.189-0.126,0.284-0.189c0-0.063,0-0.126,0-0.189
	c0.063-0.032,0.126-0.063,0.189-0.095c0-0.063,0-0.126,0-0.189c0.095-0.063,0.189-0.126,0.284-0.189c0-0.063,0-0.126,0-0.189
	c0.095-0.063,0.189-0.126,0.284-0.189c0-0.063,0-0.126,0-0.189c0.095-0.063,0.189-0.126,0.284-0.189c0-0.063,0-0.126,0-0.189
	c0.063-0.032,0.126-0.063,0.189-0.095c0-0.063,0-0.126,0-0.189c0.063-0.032,0.126-0.063,0.189-0.095
	c0.032-0.095,0.063-0.189,0.095-0.284c0.095-0.063,0.189-0.126,0.284-0.189c0-0.063,0-0.126,0-0.189
	c0.063-0.032,0.126-0.063,0.189-0.095c0-0.063,0-0.126,0-0.189c0.095-0.063,0.189-0.126,0.284-0.189c0-0.063,0-0.126,0-0.189
	c0.095-0.063,0.189-0.126,0.284-0.189c0-0.063,0-0.126,0-0.189c0.126-0.095,0.252-0.189,0.379-0.284c0-0.032,0-0.063,0-0.095
	c4.355,0,8.711,0,13.066,0c0.08,0.107-0.012,0.014,0.095,0.095c-0.284,1.104-0.568,2.209-0.852,3.314
	c-0.032,0.252-0.063,0.505-0.095,0.757c-0.032,0-0.063,0-0.095,0c0,0.158,0,0.316,0,0.473c-0.032,0-0.063,0-0.095,0
	c0,0.126,0,0.252,0,0.379c-0.032,0-0.063,0-0.095,0c0,0.126,0,0.252,0,0.379c-0.032,0-0.063,0-0.095,0c0,0.126,0,0.252,0,0.379
	c-0.032,0-0.063,0-0.095,0c0,0.158,0,0.316,0,0.473c-0.137,0.423-0.32,0.906-0.379,1.42c0.032,0,0.063,0,0.095,0
	c0.063-0.095,0.126-0.189,0.189-0.284c0.032,0,0.063,0,0.095,0c0-0.063,0-0.126,0-0.189c0.095-0.063,0.189-0.126,0.284-0.189
	c0-0.063,0-0.126,0-0.189c0.095-0.063,0.189-0.126,0.284-0.189c0-0.063,0-0.126,0-0.189c0.095-0.063,0.189-0.126,0.284-0.189
	c0-0.063,0-0.126,0-0.189c0.063-0.032,0.126-0.063,0.189-0.095c0.032-0.095,0.063-0.189,0.095-0.284
	c0.126-0.095,0.252-0.189,0.379-0.284c0-0.063,0-0.126,0-0.189c0.126-0.095,0.252-0.189,0.379-0.284c0-0.063,0-0.126,0-0.189
	c0.095-0.063,0.189-0.126,0.284-0.189c0-0.063,0-0.126,0-0.189c0.095-0.063,0.189-0.126,0.284-0.189c0-0.063,0-0.126,0-0.189
	c0.095-0.063,0.189-0.126,0.284-0.189c0-0.063,0-0.126,0-0.189c0.095-0.063,0.189-0.126,0.284-0.189c0-0.063,0-0.126,0-0.189
	c0.063-0.032,0.126-0.063,0.189-0.095c0.032-0.095,0.063-0.189,0.095-0.284c0.095-0.063,0.189-0.126,0.284-0.189
	c0-0.063,0-0.126,0-0.189c0.126-0.095,0.252-0.189,0.379-0.284c0-0.063,0-0.126,0-0.189c0.126-0.095,0.252-0.189,0.379-0.284
	c0.032-0.095,0.063-0.189,0.095-0.284c0.063-0.032,0.126-0.063,0.189-0.095c0-0.063,0-0.126,0-0.189
	c0.095-0.063,0.189-0.126,0.284-0.189c0-0.063,0-0.126,0-0.189c0.095-0.063,0.189-0.126,0.284-0.189
	c0.207-0.289,0.108-0.415,0.568-0.473c0.173-0.151,0.628-0.094,0.947-0.095c0.852,0,1.704,0,2.556,0
	c3.341,0,7.239-0.048,10.13,0.095c0,0.095,0,0.189,0,0.284c-0.095,0.063-0.189,0.126-0.284,0.189c0,0.063,0,0.126,0,0.189
	c-0.126,0.095-0.252,0.189-0.379,0.284c0,0.063,0,0.126,0,0.189c-0.095,0.063-0.189,0.126-0.284,0.189c0,0.063,0,0.126,0,0.189
	c-0.126,0.095-0.252,0.189-0.379,0.284c0,0.063,0,0.126,0,0.189c-0.095,0.063-0.189,0.126-0.284,0.189c0,0.063,0,0.126,0,0.189
	c-0.095,0.063-0.189,0.126-0.284,0.189c0,0.063,0,0.126,0,0.189c-0.095,0.063-0.189,0.126-0.284,0.189c0,0.063,0,0.126,0,0.189
	c-0.095,0.063-0.189,0.126-0.284,0.189c0,0.063,0,0.126,0,0.189c-0.095,0.063-0.189,0.126-0.284,0.189c0,0.063,0,0.126,0,0.189
	c-0.063,0.032-0.126,0.063-0.189,0.095c0,0.032,0,0.063,0,0.095c-0.063,0.032-0.126,0.063-0.189,0.095c0,0.063,0,0.126,0,0.189
	c-0.126,0.095-0.252,0.189-0.379,0.284c0,0.063,0,0.126,0,0.189c-0.095,0.063-0.189,0.126-0.284,0.189c0,0.063,0,0.126,0,0.189
	c-0.095,0.063-0.189,0.126-0.284,0.189c0,0.063,0,0.126,0,0.189c-0.095,0.063-0.189,0.126-0.284,0.189c0,0.063,0,0.126,0,0.189
	c-0.095,0.063-0.189,0.126-0.284,0.189c0,0.063,0,0.126,0,0.189c-0.126,0.095-0.252,0.189-0.379,0.284c0,0.063,0,0.126,0,0.189
	c-0.095,0.063-0.189,0.126-0.284,0.189c0,0.063,0,0.126,0,0.189c-0.095,0.063-0.189,0.126-0.284,0.189c0,0.063,0,0.126,0,0.189
	c-0.126,0.095-0.252,0.189-0.379,0.284c0,0.063,0,0.126,0,0.189c-0.095,0.063-0.189,0.126-0.284,0.189c0,0.063,0,0.126,0,0.189
	c-0.095,0.063-0.189,0.126-0.284,0.189c0,0.063,0,0.126,0,0.189c-0.095,0.063-0.189,0.126-0.284,0.189c0,0.063,0,0.126,0,0.189
	c-0.095,0.063-0.189,0.126-0.284,0.189c0,0.063,0,0.126,0,0.189c-0.126,0.095-0.252,0.189-0.379,0.284c0,0.063,0,0.126,0,0.189
	c-0.126,0.095-0.252,0.189-0.379,0.284c0,0.063,0,0.126,0,0.189c-0.095,0.063-0.189,0.126-0.284,0.189c0,0.063,0,0.126,0,0.189
	c-0.095,0.063-0.189,0.126-0.284,0.189c0,0.063,0,0.126,0,0.189c-0.095,0.063-0.189,0.126-0.284,0.189c0,0.063,0,0.126,0,0.189
	c-0.095,0.063-0.189,0.126-0.284,0.189c0,0.063,0,0.126,0,0.189c-0.063,0.032-0.126,0.063-0.189,0.095
	c-0.032,0.095-0.063,0.189-0.095,0.284c-0.126,0.095-0.252,0.189-0.379,0.284c0,0.063,0,0.126,0,0.189
	c-0.063,0.032-0.126,0.063-0.189,0.095c-0.032,0.095-0.063,0.189-0.095,0.284c-0.126,0.095-0.253,0.189-0.379,0.284
	c0,0.063,0,0.126,0,0.189c-0.095,0.063-0.189,0.126-0.284,0.189c0,0.063,0,0.126,0,0.189c-0.095,0.063-0.189,0.126-0.284,0.189
	c0,0.063,0,0.126,0,0.189c-0.095,0.063-0.189,0.126-0.284,0.189c0,0.063,0,0.126,0,0.189c-0.095,0.063-0.189,0.126-0.284,0.189
	c0,0.063,0,0.126,0,0.189c-0.126,0.095-0.252,0.189-0.379,0.284c0,0.032,0,0.063,0,0.095c-5.933,0-11.867,0-17.799,0
	c-0.01-0.817,0.186-1.635,0.379-2.272c0.126-0.915,0.253-1.831,0.379-2.746c0.032,0,0.063,0,0.095,0c0-0.158,0-0.316,0-0.473
	c0.032,0,0.063,0,0.095,0c0-0.189,0-0.379,0-0.568c0.032,0,0.063,0,0.095,0c0-0.189,0-0.379,0-0.568c0.032,0,0.063,0,0.095,0
	c0-0.189,0-0.379,0-0.568c0.173-0.568,0.349-1.294,0.379-1.988c-0.032,0-0.063,0-0.095,0c0,0.032,0,0.063,0,0.095
	c-0.196,0.163-0.226,0.352-0.379,0.568c-0.095,0.063-0.189,0.126-0.284,0.189c0,0.063,0,0.126,0,0.189
	c-0.126,0.095-0.252,0.189-0.379,0.284c0,0.063,0,0.126,0,0.189c-0.126,0.095-0.252,0.189-0.379,0.284c0,0.063,0,0.126,0,0.189
	c-0.095,0.063-0.189,0.126-0.284,0.189c0,0.063,0,0.126,0,0.189c-0.063,0.032-0.126,0.063-0.189,0.095
	c-0.032,0.095-0.063,0.189-0.095,0.284c-0.126,0.095-0.252,0.189-0.379,0.284c0,0.063,0,0.126,0,0.189
	c-0.126,0.095-0.252,0.189-0.379,0.284c0,0.063,0,0.126,0,0.189c-0.095,0.063-0.189,0.126-0.284,0.189c0,0.063,0,0.126,0,0.189
	c-0.095,0.063-0.189,0.126-0.284,0.189c0,0.063,0,0.126,0,0.189c-0.095,0.063-0.189,0.126-0.284,0.189c0,0.063,0,0.126,0,0.189
	c-0.126,0.095-0.252,0.189-0.379,0.284c0,0.063,0,0.126,0,0.189c-0.063,0.032-0.126,0.063-0.189,0.095
	c-0.032,0.095-0.063,0.189-0.095,0.284c-0.126,0.095-0.252,0.189-0.379,0.284c0,0.063,0,0.126,0,0.189
	c-0.095,0.063-0.189,0.126-0.284,0.189c0,0.063,0,0.126,0,0.189c-0.284,0.252-0.568,0.505-0.852,0.757
	c-0.095,0.126-0.189,0.252-0.284,0.379c-0.063,0-0.126,0-0.189,0c-0.032,0.063-0.063,0.126-0.095,0.189c-0.063,0-0.126,0-0.189,0
	c-0.032,0.063-0.063,0.126-0.095,0.189c-0.063,0-0.126,0-0.189,0c-0.032,0.063-0.063,0.126-0.095,0.189
	c-0.126,0.032-0.252,0.063-0.379,0.095c0,0.032,0,0.063,0,0.095c-0.126,0.032-0.252,0.063-0.379,0.095c0,0.032,0,0.063,0,0.095
	c-0.158,0.032-0.316,0.063-0.473,0.095c0,0.032,0,0.063,0,0.095c-0.126,0-0.252,0-0.379,0c-1.312,0.467-3.032,0.379-4.829,0.379
	c-3.471,0-6.943,0-10.415,0c1.546-5.207,3.093-10.415,4.639-15.622c0.769-0.28,2.952-0.095,3.976-0.095
	C123.955,43.095,126.859,43.095,129.762,43.095z"/>
<path fill-rule="evenodd" clip-rule="evenodd" fill="#DC0024" d="M131.94,36.089c-0.032,0.126-0.063,0.252-0.095,0.379
	c-0.032,0-0.063,0-0.095,0c0,0.126,0,0.252,0,0.379c-0.032,0-0.063,0-0.095,0c0,0.063,0,0.126,0,0.189c-0.032,0-0.063,0-0.095,0
	c0,0.126,0,0.252,0,0.379c-0.032,0-0.063,0-0.095,0c-0.032,0.221-0.063,0.442-0.095,0.663c-0.032,0-0.063,0-0.095,0
	c0,0.095,0,0.189,0,0.284c-0.032,0-0.063,0-0.095,0c0,0.095,0,0.189,0,0.284c-0.032,0-0.063,0-0.095,0c0,0.095,0,0.189,0,0.284
	c-0.032,0-0.063,0-0.095,0c0,0.126,0,0.252,0,0.379c-0.032,0-0.063,0-0.095,0c0,0.063,0,0.126,0,0.189c-0.032,0-0.063,0-0.095,0
	c-0.126,0.536-0.252,1.073-0.379,1.61c-4.229,0-8.458,0-12.687,0c-0.001-0.293,0.005-0.459,0.095-0.663c0.032,0,0.063,0,0.095,0
	c0-0.126,0-0.252,0-0.379c0.032,0,0.063,0,0.095,0c0-0.063,0-0.126,0-0.189c0.032,0,0.063,0,0.095,0c0-0.126,0-0.252,0-0.379
	c0.032,0,0.063,0,0.095,0c0-0.095,0-0.189,0-0.284c0.032,0,0.063,0,0.095,0c0-0.126,0-0.252,0-0.379c0.032,0,0.063,0,0.095,0
	c0-0.095,0-0.189,0-0.284c0.032,0,0.063,0,0.095,0c0-0.095,0-0.189,0-0.284c0.032,0,0.063,0,0.095,0c0-0.095,0-0.189,0-0.284
	c0.032,0,0.063,0,0.095,0c0-0.126,0-0.252,0-0.379c0.032,0,0.063,0,0.095,0c0-0.063,0-0.126,0-0.189c0.032,0,0.063,0,0.095,0
	c0-0.126,0-0.252,0-0.379c0.032,0,0.063,0,0.095,0c0-0.063,0-0.126,0-0.189c0.032,0,0.063,0,0.095,0
	c0.032-0.221,0.063-0.442,0.095-0.663c0.032,0,0.063,0,0.095,0c0.173-0.151,0.628-0.094,0.947-0.095c0.789,0,1.578,0,2.367,0
	C125.691,36.089,128.816,36.089,131.94,36.089z"/>
<path fill-rule="evenodd" clip-rule="evenodd" fill="#DC0024" d="M147.94,36.089c-0.013,0.46-0.175,0.798-0.284,1.136
	c0,0.158,0,0.316,0,0.473c-0.032,0-0.063,0-0.095,0c0,0.095,0,0.189,0,0.284c-0.032,0-0.063,0-0.095,0c0,0.189,0,0.379,0,0.568
	c-0.032,0-0.063,0-0.095,0c0,0.095,0,0.189,0,0.284c-0.032,0-0.063,0-0.095,0c0,0.158,0,0.316,0,0.473
	c-0.16,0.492-0.35,0.966-0.379,1.61c-0.733,0.375-2.613,0.189-3.692,0.189c-2.872,0-5.744,0-8.616,0c0-0.095,0-0.189,0-0.284
	c0.063,0,0.126,0,0.189,0c0.168-0.683,0.949-1.03,1.136-1.704c0.063,0,0.126,0,0.189,0c0.066-0.308,0.201-0.472,0.379-0.663
	c0.063-0.032,0.126-0.063,0.189-0.095c0-0.063,0-0.126,0-0.189c0.063-0.032,0.126-0.063,0.189-0.095c0-0.063,0-0.126,0-0.189
	c0.126-0.095,0.252-0.189,0.379-0.284c0-0.063,0-0.126,0-0.189c0.063-0.032,0.126-0.063,0.189-0.095
	c0.032-0.095,0.063-0.189,0.095-0.284c0.032,0,0.063,0,0.095,0c0.111-0.141,0.131-0.169,0.189-0.379c0.063,0,0.126,0,0.189,0
	c0.059-0.267,0.104-0.337,0.284-0.473c0-0.032,0-0.063,0-0.095c0.726,0,1.452,0,2.178,0
	C142.954,36.089,145.447,36.089,147.94,36.089z"/>
<path fill-rule="evenodd" clip-rule="evenodd" fill="#DC0024" d="M169.906,36.089c-0.107,0.408-0.3,0.326-0.473,0.568
	c-0.032,0.095-0.063,0.189-0.095,0.284c-0.063,0.032-0.126,0.063-0.189,0.095c0,0.063,0,0.126,0,0.189
	c-0.158,0.126-0.316,0.252-0.473,0.379c-0.032,0.095-0.063,0.189-0.095,0.284c-0.063,0.032-0.126,0.063-0.189,0.095
	c0,0.063,0,0.126,0,0.189c-0.158,0.126-0.316,0.252-0.473,0.379c-0.032,0.095-0.063,0.189-0.095,0.284
	c-0.063,0.032-0.126,0.063-0.189,0.095c0,0.063,0,0.126,0,0.189c-0.126,0.095-0.252,0.189-0.379,0.284
	c-0.032,0.095-0.063,0.189-0.095,0.284c-0.063,0.032-0.126,0.063-0.189,0.095c-0.032,0.095-0.063,0.189-0.095,0.284
	c-0.032,0-0.063,0-0.095,0c-0.111,0.141-0.131,0.168-0.189,0.379c-0.063,0-0.126,0-0.189,0c-0.074,0.299-0.253,0.401-0.379,0.663
	c-4.639,0-9.279,0-13.918,0c0-0.095,0-0.189,0-0.284c0.032,0,0.063,0,0.095,0c0.151-0.214,0.296-0.276,0.379-0.568
	c0.063,0,0.126,0,0.189,0c0.131-0.506,0.624-0.658,0.757-1.136c0.063,0,0.126,0,0.189,0c0.115-0.464,1.232-1.589,1.704-1.704
	c0-0.063,0-0.126,0-0.189c0.095-0.032,0.189-0.063,0.284-0.095c0-0.032,0-0.063,0-0.095c0.095,0,0.189,0,0.284,0
	c0.032-0.063,0.063-0.126,0.095-0.189c0.063,0,0.126,0,0.189,0c0.032-0.063,0.063-0.126,0.095-0.189c0.126,0,0.252,0,0.379,0
	c0.032-0.063,0.063-0.126,0.095-0.189c0.126,0,0.252,0,0.379,0c0.032-0.063,0.063-0.126,0.095-0.189c0.189,0,0.379,0,0.568,0
	c0-0.032,0-0.063,0-0.095c0.095,0,0.189,0,0.284,0c0-0.032,0-0.063,0-0.095C162.078,36.089,165.993,36.089,169.906,36.089z"/>
</svg>
