<?xml version="1.0" encoding="utf-8"?>
<!-- Generator: Adobe Illustrator 13.0.0, SVG Export Plug-In . SVG Version: 6.00 Build 14948)  -->
<!DOCTYPE svg PUBLIC "-//W3C//DTD SVG 1.1//EN" "http://www.w3.org/Graphics/SVG/1.1/DTD/svg11.dtd">
<svg version="1.1" id="Layer_1" xmlns="http://www.w3.org/2000/svg" xmlns:xlink="http://www.w3.org/1999/xlink" x="0px" y="0px"
	 width="315.051px" height="142.431px" viewBox="0 0 315.051 142.431" enable-background="new 0 0 315.051 142.431"
	 xml:space="preserve">
<g>
	<path fill="#737375" d="M245.208,138.377v1.308h-0.399v-3.128h1.707c0.308,0,0.578,0.076,0.783,0.254
		c0.179,0.221,0.256,0.438,0.256,0.657c0,0.087,0,0.206-0.065,0.357c-0.063,0.154-0.19,0.233-0.321,0.295l-0.268,0.128
		c0.127,0.079,0.205,0.154,0.268,0.269l0.656,1.168h-0.526l-0.526-1.168l-0.128-0.139L245.208,138.377L245.208,138.377z
		 M246.722,136.939h-1.514v1.051h1.566c0.088,0,0.204-0.078,0.281-0.129c0.065-0.051,0.103-0.115,0.131-0.23
		c0.025-0.115,0.025-0.244-0.015-0.373C247.121,137.118,246.849,136.939,246.722,136.939z"/>
	<g>
		
			<radialGradient id="SVGID_1_" cx="279.6299" cy="714.6543" r="15.7291" gradientTransform="matrix(1 0 0 -1 0 791.0391)" gradientUnits="userSpaceOnUse">
			<stop  offset="0" style="stop-color:#19CCBA"/>
			<stop  offset="1" style="stop-color:#1CA190"/>
		</radialGradient>
		<path fill="url(#SVGID_1_)" d="M295.122,74.435c0,0,0,0.009-0.01,0.02c-0.046,0-2.101-1.826-4.682-3.909
			C292.029,71.801,293.599,73.058,295.122,74.435z"/>
		
			<radialGradient id="SVGID_2_" cx="279.6328" cy="714.6543" r="15.7201" gradientTransform="matrix(1 0 0 -1 0 791.0391)" gradientUnits="userSpaceOnUse">
			<stop  offset="0" style="stop-color:#19CCBA"/>
			<stop  offset="1" style="stop-color:#1CA190"/>
		</radialGradient>
		<path fill="url(#SVGID_2_)" d="M295.112,74.454c-0.036,0.063-0.165,0.34-0.376,0.762c-0.596,1.173-1.826,3.523-3.294,5.936
			c-0.203,0.34-0.412,0.668-0.633,1.009c-0.137,0.212-0.265,0.404-0.384,0.589c-0.157,0.255-0.322,0.504-0.496,0.751
			c-0.193,0.285-0.358,0.532-0.486,0.715c-0.1,0.147-0.203,0.287-0.303,0.422c-0.01,0-0.01,0.009-0.01,0.009
			c-3.561,4.837-6.964,6.746-7.579,7.065c-0.028,0.02-0.064,0.036-0.092,0.046c0,0-0.083,0.037-0.229,0.093
			c-0.624,0.22-2.412,0.761-4.596,0.328c0,0-0.012,0.011-0.02,0c-2.146-0.513-3.752-1.733-4.202-2.101
			c-0.038-0.026-0.083-0.063-0.12-0.099c0,0-0.203-0.175-0.542-0.523c-0.58-0.605-1.579-1.716-2.688-3.339
			c-0.028-0.027-0.047-0.057-0.064-0.093c-1.101-1.661-1.936-3.229-2.294-3.945c-0.074-0.136-0.147-0.275-0.211-0.422l-1.119-2.523
			c0,0,0-0.009-0.01-0.028c-0.018-0.072-0.064-0.284-0.129-0.586c-0.036-0.165-0.082-0.368-0.127-0.587
			c-0.028-0.156-0.064-0.312-0.102-0.487c0-0.008,0-0.018-0.01-0.028c-0.109-0.605-0.237-1.33-0.365-2.127
			c-0.02-0.073-0.028-0.147-0.038-0.22c-0.11-0.734-0.191-1.404-0.255-1.991c-0.021-0.193-0.038-0.386-0.057-0.56
			c-0.074-0.668-0.108-1.34-0.128-1.991c0.249-7.202,3.679-9.35,3.276-9.258c0,0,0.265-0.174,0.743-0.348
			c2.559-0.937,6.403,0.201,8.34,0.898c0.063,0.019,0.129,0.037,0.191,0.073c0.101,0.037,0.203,0.074,0.286,0.11
			c0.239,0.091,0.478,0.193,0.725,0.294c0,0,0.338,0.146,0.918,0.431c3.798,1.862,7.448,4.468,8.559,5.295
			c0.11,0.072,0.231,0.165,0.339,0.255c0.928,0.734,1.846,1.441,2.754,2.147c0.046,0.047,0.1,0.084,0.146,0.121
			C293.011,72.627,295.066,74.454,295.112,74.454z"/>
		
			<radialGradient id="SVGID_3_" cx="279.665" cy="714.6553" r="15.6908" gradientTransform="matrix(1 0 0 -1 0 791.0391)" gradientUnits="userSpaceOnUse">
			<stop  offset="0" style="stop-color:#19CCBA"/>
			<stop  offset="1" style="stop-color:#1CA190"/>
		</radialGradient>
		<path fill="url(#SVGID_3_)" d="M290.809,82.16c-0.119,0.192-0.249,0.396-0.384,0.588C290.544,82.564,290.671,82.372,290.809,82.16
			z"/>
		
			<radialGradient id="SVGID_4_" cx="279.6128" cy="714.6533" r="15.7468" gradientTransform="matrix(1 0 0 -1 0 791.0391)" gradientUnits="userSpaceOnUse">
			<stop  offset="0" style="stop-color:#19CCBA"/>
			<stop  offset="1" style="stop-color:#1CA190"/>
		</radialGradient>
		<path fill="url(#SVGID_4_)" d="M289.929,83.5c-0.157,0.249-0.321,0.486-0.486,0.716C289.57,84.032,289.735,83.785,289.929,83.5z"
			/>
		
			<radialGradient id="SVGID_5_" cx="279.6362" cy="714.6553" r="15.7238" gradientTransform="matrix(1 0 0 -1 0 791.0391)" gradientUnits="userSpaceOnUse">
			<stop  offset="0" style="stop-color:#19CCBA"/>
			<stop  offset="1" style="stop-color:#1CA190"/>
		</radialGradient>
		<path fill="url(#SVGID_5_)" d="M289.14,84.647c0.321,0-3.487,5.166-7.589,7.065c0.613-0.321,4.019-2.229,7.578-7.065H289.14z"/>
		
			<radialGradient id="SVGID_6_" cx="279.6362" cy="714.6543" r="15.7228" gradientTransform="matrix(1 0 0 -1 0 791.0391)" gradientUnits="userSpaceOnUse">
			<stop  offset="0" style="stop-color:#19CCBA"/>
			<stop  offset="1" style="stop-color:#1CA190"/>
		</radialGradient>
		<path fill="url(#SVGID_6_)" d="M278.633,62.727c1.605,0.771,5.074,2.578,8.559,5.294
			C286.085,67.196,282.433,64.591,278.633,62.727z"/>
		
			<radialGradient id="SVGID_7_" cx="279.6431" cy="714.7646" r="15.608" gradientTransform="matrix(1 0 0 -1 0 791.0391)" gradientUnits="userSpaceOnUse">
			<stop  offset="0" style="stop-color:#19CCBA"/>
			<stop  offset="1" style="stop-color:#1CA190"/>
		</radialGradient>
		<path fill="url(#SVGID_7_)" d="M276.706,61.892c0.093,0.028,0.195,0.064,0.286,0.11C276.908,61.966,276.807,61.929,276.706,61.892
			z"/>
		
			<radialGradient id="SVGID_8_" cx="279.6357" cy="714.6514" r="15.7263" gradientTransform="matrix(1 0 0 -1 0 791.0391)" gradientUnits="userSpaceOnUse">
			<stop  offset="0" style="stop-color:#19CCBA"/>
			<stop  offset="1" style="stop-color:#1CA190"/>
		</radialGradient>
		<path fill="url(#SVGID_8_)" d="M270.798,60.424c0,0,2.063,0,5.714,1.395c-1.936-0.698-5.78-1.835-8.34-0.899
			C268.76,60.68,269.669,60.424,270.798,60.424z"/>
		
			<radialGradient id="SVGID_9_" cx="279.6343" cy="714.6582" r="15.726" gradientTransform="matrix(1 0 0 -1 0 791.0391)" gradientUnits="userSpaceOnUse">
			<stop  offset="0" style="stop-color:#19CCBA"/>
			<stop  offset="1" style="stop-color:#1CA190"/>
		</radialGradient>
		<path fill="url(#SVGID_9_)" d="M276.614,92.18c-1.311-0.255-2.78-0.861-4.202-2.101C272.862,90.446,274.469,91.666,276.614,92.18z
			"/>
		
			<radialGradient id="SVGID_10_" cx="279.6362" cy="714.6553" r="15.7238" gradientTransform="matrix(1 0 0 -1 0 791.0391)" gradientUnits="userSpaceOnUse">
			<stop  offset="0" style="stop-color:#19CCBA"/>
			<stop  offset="1" style="stop-color:#1CA190"/>
		</radialGradient>
		<path fill="url(#SVGID_10_)" d="M266.705,82.078c0.358,0.716,1.194,2.285,2.294,3.945C268.257,84.94,267.459,83.62,266.705,82.078
			z"/>
		
			<radialGradient id="SVGID_11_" cx="277.6753" cy="712.3457" r="52.3105" gradientTransform="matrix(1 0 0 -1 0 791.0391)" gradientUnits="userSpaceOnUse">
			<stop  offset="0" style="stop-color:#C2DAA0"/>
			<stop  offset="0.7582" style="stop-color:#86C34E"/>
			<stop  offset="1" style="stop-color:#B2D67C"/>
		</radialGradient>
		<path fill="url(#SVGID_11_)" d="M269.064,86.115c0.781,1.165,1.699,2.368,2.688,3.34c0.339,0.348,0.542,0.523,0.542,0.523
			c0.036,0.036,0.082,0.073,0.12,0.099c1.422,1.24,2.89,1.846,4.202,2.101c0.01,0.011,0.02,0,0.02,0
			c1.376,0.322,2.954,0.35,4.596-0.329c0.147-0.057,0.229-0.094,0.229-0.094c0.026-0.009,0.065-0.025,0.092-0.045
			c4.102-1.899,7.91-7.065,7.589-7.065v-0.009c0.1-0.137,0.203-0.274,0.303-0.422c0.165-0.229,0.331-0.468,0.486-0.716
			c0.175-0.247,0.339-0.496,0.496-0.751c0.138-0.193,0.265-0.396,0.386-0.589c0.219-0.339,0.432-0.668,0.632-1.009
			c0.983-1.597,2.165-3.633,3.294-5.936c0.211-0.422,0.34-0.699,0.376-0.762c0,0,5.423,4.77,9.452,9.634
			c0,0,8.79,10.286,10.286,19.827c0,0,0.842,5.708-0.937,10.286c0,0-1.991,5.451-7.02,7.02c-3.191,0.991-6.56,1.184-10.001,0.275
			c0,0-4.588-1.211-9.165-4.302c0,0-15.241-10.104-21.792-35.628l-0.56-2.431l1.119,2.523c0.064,0.147,0.138,0.286,0.211,0.422
			c0.753,1.542,1.551,2.862,2.294,3.945C269.017,86.06,269.036,86.087,269.064,86.115z"/>
		
			<radialGradient id="SVGID_12_" cx="279.6436" cy="714.6563" r="15.7294" gradientTransform="matrix(1 0 0 -1 0 791.0391)" gradientUnits="userSpaceOnUse">
			<stop  offset="0" style="stop-color:#19CCBA"/>
			<stop  offset="1" style="stop-color:#1CA190"/>
		</radialGradient>
		<path fill="url(#SVGID_12_)" d="M264.338,73.078c0.064,0.586,0.146,1.257,0.257,1.991
			C264.494,74.435,264.402,73.766,264.338,73.078z"/>
		
			<radialGradient id="SVGID_13_" cx="279.5449" cy="714.6514" r="15.6346" gradientTransform="matrix(1 0 0 -1 0 791.0391)" gradientUnits="userSpaceOnUse">
			<stop  offset="0" style="stop-color:#19CCBA"/>
			<stop  offset="1" style="stop-color:#1CA190"/>
		</radialGradient>
		<path fill="url(#SVGID_13_)" d="M264.284,72.517c0.018,0.175,0.035,0.368,0.056,0.56
			C264.311,72.893,264.292,72.701,264.284,72.517z"/>
		
			<radialGradient id="SVGID_14_" cx="279.6353" cy="714.6553" r="15.7221" gradientTransform="matrix(1 0 0 -1 0 791.0391)" gradientUnits="userSpaceOnUse">
			<stop  offset="0" style="stop-color:#19CCBA"/>
			<stop  offset="1" style="stop-color:#1CA190"/>
		</radialGradient>
		<path fill="url(#SVGID_14_)" d="M264.155,70.526c0,0-0.184-7.111,3.276-9.258C267.833,61.176,264.402,63.324,264.155,70.526z"/>
		
			<radialGradient id="SVGID_15_" cx="278.4941" cy="718.4814" r="72.9908" gradientTransform="matrix(1 0 0 -1 0 791.0391)" gradientUnits="userSpaceOnUse">
			<stop  offset="0" style="stop-color:#3EC6EC"/>
			<stop  offset="0.7582" style="stop-color:#4484C4"/>
			<stop  offset="1" style="stop-color:#61A9DB"/>
		</radialGradient>
		<path fill="url(#SVGID_15_)" d="M265.366,79.104c-0.203-0.484-3.505-8.56-5.23-19.616c0,0-2.148-12.818-1.314-23.471
			c0,0,0.938-11.881,6.36-21.333c0,0,6.642-11.405,16.185-14.029c1.412-0.422,2.882-0.697,4.489-0.651c0,0,4.302,0,8.23,2.248
			c0,0,3.742,2.056,6.54,5.799c0,0,6.084,8.23,6.369,20.764c0,0,0.184,9.543-3.744,23.664c0,0-3.366,12.415-8.129,21.957
			c-1.523-1.376-3.093-2.633-4.688-3.889c-0.046-0.037-0.1-0.073-0.146-0.121c-0.882-0.706-1.818-1.45-2.752-2.147
			c-0.111-0.091-0.229-0.184-0.342-0.255c-3.485-2.718-6.953-4.525-8.56-5.295c-0.578-0.284-0.917-0.431-0.917-0.431
			c-0.249-0.101-0.487-0.203-0.725-0.294c-0.093-0.046-0.193-0.083-0.287-0.11c-0.063-0.037-0.127-0.055-0.193-0.073
			c-3.651-1.395-5.714-1.395-5.714-1.395c-1.129,0-2.038,0.257-2.625,0.496c-0.478,0.174-0.743,0.349-0.743,0.349
			c-3.461,2.147-3.276,9.258-3.276,9.258c0.02,0.651,0.056,1.321,0.127,1.991c0.01,0.184,0.028,0.376,0.058,0.56
			c0.063,0.688,0.155,1.356,0.255,1.991c0.01,0.074,0.02,0.147,0.038,0.22c0.091,0.669,0.219,1.386,0.366,2.128
			c0.008,0.01,0.008,0.02,0.008,0.027c0.028,0.165,0.064,0.321,0.102,0.487c0.036,0.192,0.082,0.394,0.127,0.586
			C265.302,78.821,265.348,79.032,265.366,79.104z"/>
		
			<radialGradient id="SVGID_16_" cx="255.1826" cy="702.9414" r="32.795" gradientTransform="matrix(1 0 0 -1 0 791.0391)" gradientUnits="userSpaceOnUse">
			<stop  offset="0" style="stop-color:#FFC933"/>
			<stop  offset="1" style="stop-color:#ED8620"/>
		</radialGradient>
		<path fill="url(#SVGID_16_)" d="M262.604,85.252c1.927,3.276,4.074,9.524,5.478,12.865c0,0,2.43,7.294,2.716,11.22
			c0,0,0.844,8.424-3.561,9.258c0,0-4.202,0.844-9.249-5.605c0,0-7.11-8.606-8.982-21.14c0,0-0.651-3.836-0.752-7.102
			c2.981,3.413,6.211,6.175,6.605,6.506c0.028,0.027,0.038,0.036,0.038,0.036c0.164,0.138,0.321,0.275,0.477,0.405
			c0.973,0.808,1.825,1.385,2.551,1.798c0.249,0.146,0.486,0.275,0.707,0.385c0.725,0.376,1.45,0.652,2.053,0.669
			c0.065,0.01,0.102,0.01,0.102,0.01s2.89,0.725,2.266-6.102c0-0.055-0.008-0.101-0.008-0.147c-0.028-0.523-0.092-1.156-0.257-2.019
			C262.733,85.96,262.667,85.612,262.604,85.252z"/>
		<path fill="#F15637" d="M262.787,86.289c0.167,0.863,0.229,1.495,0.257,2.019C262.99,87.702,262.897,87.033,262.787,86.289z"/>
		<path fill="#F15637" d="M261.622,82.105c0.046,0.147,0.102,0.294,0.147,0.439l-3.324-5.478
			C259.503,78.748,260.999,80.226,261.622,82.105z"/>
		
			<radialGradient id="SVGID_17_" cx="256.002" cy="707.8467" r="56.0223" gradientTransform="matrix(1 0 0 -1 0 791.0391)" gradientUnits="userSpaceOnUse">
			<stop  offset="0" style="stop-color:#F09E2E"/>
			<stop  offset="0.7582" style="stop-color:#EE5020"/>
			<stop  offset="1" style="stop-color:#F78A69"/>
		</radialGradient>
		<path fill="url(#SVGID_17_)" d="M255.548,67.159c0.184,0.376,4.597,9.396,6.222,15.387c-0.046-0.146-0.102-0.292-0.147-0.439
			c-0.624-1.881-2.119-3.358-3.176-5.038c-0.972-1.578-1.861-2.761-2.641-3.651c-0.056-0.056-0.082-0.084-0.082-0.092
			c-0.158-0.173-0.303-0.349-0.469-0.522c0,0-0.707-0.789-1.643-1.387c-0.018,0-0.026-0.009-0.036-0.018
			c-0.101-0.065-0.201-0.13-0.303-0.184c-0.833-0.487-1.283-0.477-1.283-0.477c-0.45-0.011-0.808,0.054-1.112,0.255
			c-0.045,0.027-0.091,0.056-0.137,0.101c-0.376,0.267-0.697,0.716-0.964,1.212c-0.063,0.119-0.129,0.238-0.192,0.365
			c-0.248,0.505-0.486,1.138-0.68,1.946c-0.018,0.055-0.025,0.11-0.036,0.164c-0.038,0.147-0.056,0.229-0.056,0.229
			c-0.027,0.111-0.056,0.221-0.073,0.34c-0.019,0.056-0.027,0.119-0.037,0.184c-0.155,0.762-0.266,1.716-0.358,2.597
			c-0.036,0.348-0.064,0.733-0.101,1.156c0,0.009,0,0.028,0,0.037c-0.009,0.11-0.019,0.239-0.027,0.359
			c-0.038,0.567-0.056,0.943-0.056,0.943l0.091,4.12l-3.551-4.211c0,0-11.79-14.029-16.553-25.26c0,0-2.531-5.89-3.273-10.753
			c0,0-0.937-7.762,2.43-9.441c0.605-0.348,1.257-0.504,1.964-0.467c0,0,3.128,0.036,7.487,3.743c0.019,0,5.899,5.826,7.753,8.414
			C246.373,49.358,249.667,54.698,255.548,67.159z"/>
		<path fill="#F15637" d="M255.374,91.695c0.561,0.438,1.514,1.184,2.55,1.798C257.2,93.079,256.346,92.501,255.374,91.695z"/>
		<path fill="#F15637" d="M258.446,77.068c-0.906-1.211-1.649-2.45-2.641-3.65C256.585,74.306,257.476,75.49,258.446,77.068z"/>
		<path fill="#F15637" d="M248.253,84.748l6.607,6.505C254.464,90.924,251.236,88.161,248.253,84.748z"/>
		<path fill="#F15637" d="M251.989,70.739c0,0,0.449-0.011,1.283,0.477c-0.76-0.414-1.633-0.643-2.395-0.221
			C251.181,70.792,251.539,70.728,251.989,70.739z"/>
		<path fill="#F15637" d="M250.74,71.095c0.046-0.045,0.092-0.073,0.137-0.101c0.762-0.422,1.635-0.193,2.395,0.22
			c0.093,0.055,0.193,0.12,0.303,0.184c0.01,0.009,0.02,0.018,0.036,0.018c0.533,0.368,1.249,0.955,2.112,1.909
			c0,0.009,0.026,0.037,0.082,0.093c0.992,1.202,1.735,2.439,2.641,3.65l3.324,5.478c0.514,1.605,0.825,2.809,1.018,3.743
			c0.11,0.745,0.203,1.413,0.257,2.019c0,0.045,0.008,0.093,0.008,0.147c0.083,1.357,0.432,6.102-2.266,6.102c0,0-0.036,0-0.1-0.01
			c-0.249-0.019-0.954-0.137-2.055-0.669c-0.219-0.11-0.458-0.238-0.707-0.385c-1.038-0.614-1.992-1.358-2.55-1.798
			c-0.157-0.129-0.313-0.266-0.478-0.404c0,0-0.01-0.009-0.037-0.037l-6.606-6.505l-0.093-4.12c0,0,0.02-0.376,0.056-0.944
			c0.01-0.11,0.02-0.229,0.028-0.359c0-0.009,0-0.028,0-0.037c0.028-0.348,0.064-0.743,0.102-1.155
			c0.092-0.881,0.201-1.836,0.357-2.597c0.009-0.064,0.028-0.128,0.037-0.184c0.018-0.119,0.045-0.229,0.073-0.34
			c0,0,0.018-0.082,0.055-0.229c0.01-0.046,0.027-0.1,0.037-0.165c0.119-0.449,0.349-1.22,0.679-1.945
			c0.064-0.128,0.127-0.248,0.193-0.366C250.171,71.619,250.547,71.251,250.74,71.095z"/>
		<path fill="#F15637" d="M249.776,72.308c0.267-0.496,0.587-0.945,0.964-1.212C250.547,71.251,250.171,71.619,249.776,72.308z"/>
		<path fill="#F15637" d="M248.74,75.352c-0.01,0.057-0.027,0.119-0.037,0.184C248.713,75.471,248.721,75.409,248.74,75.352z"/>
	</g>
	<path fill="#737375" d="M244.156,140.21c0.27,0.244,0.591,0.398,0.912,0.526c0.333,0.128,0.667,0.257,1.05,0.257
		c0.385,0,0.822-0.13,1.181-0.257c0.347-0.128,0.642-0.282,0.912-0.526c0.269-0.243,0.526-0.551,0.654-0.911
		c0.13-0.359,0.206-0.782,0.206-1.18c0-0.398-0.077-0.821-0.206-1.18c-0.127-0.36-0.385-0.642-0.654-0.911
		c-0.257-0.27-0.578-0.462-0.912-0.616c-0.346-0.167-0.769-0.167-1.181-0.167c-0.409-0.013-0.845,0.027-1.204,0.167
		c-0.347,0.154-0.63,0.359-0.885,0.616c-0.243,0.257-0.423,0.511-0.552,0.873l-0.012,0.05c-0.116,0.373-0.219,0.771-0.219,1.168
		c0,0.396,0.103,0.82,0.257,1.18C243.655,139.659,243.887,139.967,244.156,140.21z M244.811,140.994
		c-0.424-0.167-0.77-0.386-1.041-0.657c-0.293-0.281-0.486-0.5-0.626-0.896c-0.129-0.399-0.232-0.859-0.219-1.334
		c-0.014-0.296,0.052-0.629,0.103-0.911c0.039-0.285,0.128-0.424,0.218-0.642c0.307-0.539,0.718-0.938,1.192-1.207
		c0.258-0.115,0.401-0.23,0.708-0.282c0.306-0.063,0.602-0.103,0.976-0.079c0.37,0.015,0.923,0.027,1.333,0.192
		c0.398,0.154,0.732,0.321,1.016,0.603c0.293,0.295,0.538,0.629,0.69,1.026c0.155,0.4,0.256,1.053,0.232,1.311
		c-0.026,0.257,0.026,0.372-0.116,0.885c-0.141,0.512-0.487,1-0.807,1.333c-0.31,0.336-0.424,0.36-0.643,0.526
		c-0.271,0.116-0.526,0.218-0.797,0.27c-0.307,0.103-0.601,0.117-0.909,0.13C245.656,141.263,245.221,141.159,244.811,140.994z"/>
	<path fill="#737375" d="M238.665,109.483v31.78h-8.761v-31.78c0-4.451-1.577-7.195-1.577-7.195
		c-1.823-3.131-4.696-4.965-4.696-4.965c-2.616-1.963-6.799-3.002-6.799-3.002c-2.771-0.578-5.801-0.886-8.905-0.926
		c-3.078-0.037-6.003,0.166-8.89,0.926c-4.311,1.039-6.926,3.002-6.926,3.002c-2.875,1.834-4.581,4.965-4.581,4.965
		c-1.566,3.141-1.566,7.195-1.566,7.195v31.78h-8.632V91.832h8.632c4.965-3.541,10.343-5.105,10.343-5.105
		c4.183-1.27,7.774-1.464,12.15-1.437c4.374,0.025,9.058,0.627,13.085,1.707c5.362,1.564,9.417,4.693,9.417,4.693
		c3.785,3.286,5.747,7.725,5.747,7.725C238.665,103.995,238.665,109.483,238.665,109.483z"/>
	<path fill="#737375" d="M165.563,117.72c1.309,3.003,1.309,7.056,1.309,7.056c0,4.581-1.962,8.108-1.962,8.108
		c-2.091,3.271-5.749,5.491-5.749,5.491c-4.054,2.232-7.159,2.771-9.16,3.142c-2.001,0.373-7.557,0.925-12.034,0.913
		c-4.478,0-8.968-0.118-14.651-1.167c-5.671-1.065-13.458-4.708-13.458-4.708v-9.289c6.53,3.668,11.034,5.195,13.458,5.619
		c2.437,0.436,10.776,1.732,14.651,1.834c3.875,0.103,5.67-0.19,8.506-0.654c2.091-0.36,4.183-0.935,6.273-1.822
		c2.617-1.053,3.926-3.015,3.926-3.015c1.437-1.707,1.437-4.454,1.437-4.454c0.051-1.039-0.05-1.95-0.782-3.129
		c-0.731-1.18-3.144-2.22-3.144-2.22c-2.219-0.923-5.889-1.576-5.889-1.576l-9.673-1.042l-7.453-0.526
		c-2.22-0.128-4.439-0.46-6.672-0.923c-1.95-0.397-3.862-0.962-5.747-1.693c-2.758-1.04-3.9-1.875-4.452-2.488
		c-0.551-0.603-1.899-2.002-2.874-3.927c-0.975-1.911-1.18-5.49-1.18-5.49c0-3.002,0.718-4.672,1.18-5.876
		c0.462-1.219,1.873-2.989,3.143-4.324c1.45-1.373,2.899-2.206,4.567-3.001c1.681-0.796,3.553-1.489,5.362-1.964
		c1.707-0.539,3.862-0.82,5.889-1.052c2.027-0.218,3.657-0.372,5.491-0.255c4.978,0.052,9.917,0.476,14.78,1.438
		c7.056,1.308,13.202,4.052,13.202,4.052v8.893c-7.185-3.528-13.728-5.096-13.728-5.096c-4.683-1.18-9.442-1.707-14.253-1.707
		c-2.373-0.036-4.862,0.336-6.928,0.657c-2.065,0.333-3.618,0.744-5.234,1.576c-2.091,1.042-3.271,2.605-3.271,2.605
		c-1.181,1.576-1.181,3.669-1.181,3.669c0,1.692,0.795,2.872,0.795,2.872c0.731,1.028,1.745,1.72,3.002,2.091
		c2.129,0.783,4.157,1.183,6.145,1.311l9.943,0.924c4.4,0.462,8.25,0.605,13.202,1.437c4.965,0.821,8.633,2.874,8.633,2.874
		C163.998,114.705,165.563,117.72,165.563,117.72z"/>
	<path fill="#737375" d="M99.531,109.483v31.78h-8.775v-31.78c0-3.797-1.437-6.799-1.437-6.799
		c-1.437-3.014-3.926-5.104-3.926-5.104c-2.605-2.22-5.748-3.13-5.748-3.13c-2.399-0.847-4.965-1.053-7.197-1.053
		c-2.219,0-3.413-0.013-6.261,0.462c-3.13,0.783-6.542,3.465-6.542,3.465c-2.489,2.091-4.067,4.965-4.067,4.965
		c-1.436,3.141-1.436,7.195-1.436,7.195l-0.116,31.78h-8.763l0.116-31.78c0-4.183-1.565-7.195-1.565-7.195
		c-1.565-3.131-3.926-4.965-3.926-4.965c-2.604-2.092-5.748-2.874-5.748-2.874c-2.348-0.693-4.721-1.142-7.197-1.053
		c-2.271-0.115-4.529,0.233-6.799,1.053c-3.144,0.782-5.889,2.874-5.889,2.874c-2.604,2.091-4.041,4.965-4.041,4.965
		c-1.579,2.887-1.579,7.195-1.579,7.195v31.78H0V91.832h8.634c2.438-1.886,5.017-3.619,8.108-4.836
		c3.336-1.065,4.414-1.642,10.2-1.707c5.786-0.066,11.162,1.347,14.125,3.002c3.028,1.707,9.02,7.723,9.02,7.852
		c3.797-4.965,9.288-7.852,9.288-7.852c5.889-3.002,13.074-3.002,13.074-3.002c3.887,0,7.633,0.523,11.251,1.707
		c5.234,1.834,8.621,4.963,8.621,4.963c3.413,3.143,5.234,7.712,5.234,7.712C99.531,104.121,99.531,109.483,99.531,109.483z"/>
</g>
</svg>
