<?xml version="1.0" encoding="iso-8859-1"?><!-- Generator: Adobe Illustrator 16.0.0, SVG Export Plug-In . SVG Version: 6.00 Build 0) --><!DOCTYPE svg PUBLIC "-//W3C//DTD SVG 1.1//EN" "http://www.w3.org/Graphics/SVG/1.1/DTD/svg11.dtd"><svg version="1.1" id="Layer_1" xmlns="http://www.w3.org/2000/svg" xmlns:xlink="http://www.w3.org/1999/xlink" x="0px" y="0px" width="192.756px" height="192.756px" viewBox="0 0 192.756 192.756" style="enable-background:new 0 0 192.756 192.756;" xml:space="preserve"><g><polygon style="fill-rule:evenodd;clip-rule:evenodd;fill:#FFFFFF;" points="0,0 192.756,0 192.756,192.756 0,192.756 0,0	"/><path style="fill-rule:evenodd;clip-rule:evenodd;fill:#CC2229;" d="M124.832,189.596c1.013-1.912,2.812-8.1-0.562-14.625	c1.013-3.6-1.688-4.389-2.812-12.375c1.125-2.363,1.912-5.176,1.8-8.326c-0.225-2.812-2.25-4.162-3.375-6.299	c-1.8-7.201-2.812-14.85-5.513-21.6c-0.899-3.264-3.149-6.076-4.725-9.113c-1.575-8.1-2.362-16.762-4.837-24.412	c0.449-0.337,0.899-0.788,1.237-1.238c-1.688-6.862-4.163-16.875-7.763-19.913c0.899-3.375,2.25-7.312,2.7-10.35	c1.574-2.137,3.374-4.5,6.862-6.075c1.8,4.95,2.588,11.138,3.6,16.087c2.25,4.95,5.4,9.337,6.3,13.838	c-5.737,2.25-9.675,7.538-9.675,13.724c0,7.988,6.413,14.4,14.287,14.4c5.851,0,10.913-3.713,13.163-8.775v71.775	C135.52,182.732,131.02,188.133,124.832,189.596L124.832,189.596z"/><path style="fill-rule:evenodd;clip-rule:evenodd;fill:#33348E;" d="M118.099,189.809c-2.25-5.4-0.9-9.9-0.45-16.088	c-0.562-2.812-1.013-5.625-1.463-8.324c-3.149-4.838-4.274-9.225-5.062-14.4c-5.962-5.287-12.938-9.9-17.662-15.637	c-8.438-7.988-14.625-16.201-18.9-25.426c-1.462-0.111-2.924-0.225-4.5-0.225c-2.7-7.312-8.887-16.2-8.325-21.937	c0.225-5.063,1.8-9.675,3.712-14.85c-1.688-0.338-3.262,0.225-5.062-0.788c-2.812-1.8-2.362-4.95-2.475-7.763	c1.237-5.625,4.275-10.35,6.3-15.412c2.025-4.388,3.938-8.775,5.85-13.05c2.7-3.038,4.388-5.175,7.762-6.638	c2.925-0.338,5.851,0.112,9-0.562c1.35-0.45,3.038-0.788,3.601-1.688c1.35-1.913,1.012-3.938,1.575-6.3	c-1.8-1.012-1.575-6.187,0.45-7.987c0-3.6,1.462-8.438,4.5-9.675l-26.1-0.225c-7.537,0-13.612,6.075-13.612,13.613v159.861	c0,7.537,6.075,13.613,13.612,13.613L118.099,189.809L118.099,189.809z M65.898,156.51h5.963l4.387,14.061V156.51h5.4v23.512	h-6.075l-4.5-14.062v14.062h-5.175V156.51L65.898,156.51z M82.548,156.51h6.975c9.112,0,6.75,11.023,3.375,11.248	c5.062-0.561,5.737,12.264-2.475,12.264h-7.875V156.51L82.548,156.51z M87.948,160.334v5.287h1.351c2.25,0,2.25-5.287,0-5.287	H87.948L87.948,160.334z M87.948,169.672v6.525h1.351c2.587,0,2.25-6.525,0-6.525H87.948L87.948,169.672z M100.773,156.51h7.2	l4.162,23.512h-5.512l-0.451-4.162h-3.824l-0.676,4.162h-5.399L100.773,156.51L100.773,156.51z M102.911,171.697h2.812	l-1.463-11.701L102.911,171.697L102.911,171.697z"/><path style="fill-rule:evenodd;clip-rule:evenodd;fill:#CC2229;" d="M106.238,3.421c3.825,3.6,6.188,8.775,2.588,15.075	c2.25,1.462-1.688,4.05-2.588,6.075c-1.124,3.15-4.949,4.95-4.499,6.075c4.949,3.038,8.887,6.075,13.837,10.012	c2.588,3.263,3.6,16.312,5.062,26.212c2.138,6.188,5.175,11.475,6.3,18.45c3.938,1.462,6.975,4.5,8.55,8.1v-76.95	c0-7.537-6.075-13.612-13.612-13.612L106.238,3.421L106.238,3.421z"/></g></svg>