<?xml version="1.0" encoding="utf-8"?>
<!-- Generator: Adobe Illustrator 16.0.0, SVG Export Plug-In . SVG Version: 6.00 Build 0)  -->
<!DOCTYPE svg PUBLIC "-//W3C//DTD SVG 1.1//EN" "http://www.w3.org/Graphics/SVG/1.1/DTD/svg11.dtd">
<svg version="1.1" id="Layer_1" xmlns="http://www.w3.org/2000/svg" xmlns:xlink="http://www.w3.org/1999/xlink" x="0px" y="0px"
	 width="414.398px" height="100px" viewBox="0 0 414.398 100" enable-background="new 0 0 414.398 100" xml:space="preserve">
<g>
	<g>
		<path fill="#0076A3" d="M99.549,68.222V20.438l5.491,4.439c3.66-3.814,8.179-5.725,13.552-5.725c5.375,0,9.891,1.831,13.553,5.492
			c3.66,3.662,5.491,8.178,5.491,13.552v30.024h-6.426V38.197c0-3.66-1.227-6.678-3.681-9.055c-2.453-2.374-5.432-3.563-8.938-3.563
			c-3.504,0-6.483,1.228-8.937,3.681c-2.454,2.453-3.681,5.433-3.681,8.938v30.024H99.549z"/>
		<path fill="#0076A3" d="M184.717,53.151l5.608,3.154c-2.104,3.973-5.141,7.186-9.113,9.638c-3.972,2.454-8.335,3.681-13.085,3.681
			c-6.854,0-12.773-2.492-17.758-7.477s-7.477-10.904-7.477-17.759c0-7.009,2.492-12.968,7.477-17.874
			c4.984-4.907,10.904-7.361,17.758-7.361c4.361,0,8.471,1.092,12.326,3.271c3.855,2.182,6.834,4.947,8.938,8.295l-32.596,28.74
			c3.271,2.494,7.048,3.738,11.332,3.738c3.582,0,6.835-0.895,9.756-2.687C180.803,58.721,183.082,56.267,184.717,53.151z
			 M152.473,54.904l27.922-24.769c-3.505-3.038-7.594-4.557-12.268-4.557c-5.297,0-9.754,1.812-13.377,5.433
			c-3.621,3.622-5.432,8.082-5.432,13.377C149.318,48.205,150.369,51.711,152.473,54.904z"/>
		<path fill="#0076A3" d="M220.934,69.624c-7.478,0-13.748-2.805-18.81-8.412V100h-6.426V20.438l7.009,6.543
			c5.062-5.217,11.138-7.828,18.227-7.828c7.01,0,12.968,2.454,17.875,7.361c4.906,4.906,7.359,10.865,7.359,17.874
			c0,6.854-2.453,12.774-7.359,17.759C233.901,67.132,227.943,69.624,220.934,69.624z M220.934,63.198
			c5.295,0,9.755-1.811,13.377-5.433c3.621-3.621,5.433-8.079,5.433-13.377c0-5.295-1.812-9.755-5.433-13.377
			c-3.622-3.621-8.082-5.433-13.377-5.433c-5.219,0-9.658,1.832-13.318,5.491c-3.662,3.662-5.491,8.102-5.491,13.318
			c0,5.22,1.829,9.658,5.491,13.319C211.275,61.37,215.715,63.198,220.934,63.198z"/>
		<path fill="#0076A3" d="M258.317,26.864h-8.646v-6.426h8.646V7.003l6.425-3.153v16.589h8.529v6.426h-8.529v41.357h-6.425V26.864z"
			/>
		<path fill="#0076A3" d="M316.613,20.438v47.783l-5.49-4.439c-3.662,3.817-8.178,5.725-13.553,5.725
			c-5.373,0-9.892-1.829-13.553-5.491c-3.66-3.659-5.49-8.178-5.49-13.552V20.438h6.426v30.025c0,3.505,1.266,6.484,3.797,8.938
			c2.529,2.453,5.471,3.681,8.82,3.681c3.66,0,6.678-1.266,9.055-3.798c2.375-2.529,3.562-5.47,3.562-8.82V20.438H316.613z"/>
		<path fill="#0076A3" d="M323.623,68.222V20.438l5.49,4.439c3.66-3.814,8.179-5.725,13.553-5.725c5.375,0,9.891,1.831,13.553,5.492
			c3.66,3.662,5.49,8.178,5.49,13.552v30.024h-6.426V38.197c0-3.66-1.227-6.678-3.68-9.055c-2.453-2.374-5.433-3.563-8.938-3.563
			s-6.484,1.228-8.938,3.681s-3.68,5.433-3.68,8.938v30.024H323.623z"/>
		<path fill="#0076A3" d="M408.791,53.151l5.607,3.154c-2.103,3.973-5.141,7.186-9.112,9.638c-3.972,2.454-8.335,3.681-13.085,3.681
			c-6.854,0-12.773-2.492-17.758-7.477c-4.985-4.984-7.477-10.904-7.477-17.759c0-7.009,2.491-12.968,7.477-17.874
			c4.984-4.907,10.903-7.361,17.758-7.361c4.361,0,8.471,1.092,12.326,3.271c3.854,2.182,6.834,4.947,8.937,8.295l-32.595,28.74
			c3.271,2.494,7.048,3.738,11.332,3.738c3.582,0,6.834-0.895,9.756-2.687C404.877,58.721,407.156,56.267,408.791,53.151z
			 M376.547,54.904l27.922-24.769c-3.506-3.038-7.594-4.557-12.268-4.557c-5.297,0-9.755,1.812-13.377,5.433
			c-3.621,3.622-5.433,8.082-5.433,13.377C373.392,48.205,374.443,51.711,376.547,54.904z"/>
	</g>
	<g id="XMLID_7_">
		<g>
			<path fill="#0076A3" d="M69.792,79.025c-0.455,0.469-1.033,0.804-1.573,1.165c-3.746,2.479-8.01,4.65-13.091,5.935
				c1.435-4.772,2.902-9.812,4.338-14.65c0.831,0.618,1.693,1.393,2.523,2.066c0.812,0.663,1.68,1.284,2.524,1.917
				C66.219,76.734,67.958,77.932,69.792,79.025z"/>
			<path fill="#0076A3" d="M87.613,44.396c0,3.291-0.434,6.39-1.066,9.201c-1.255,5.568-3.505,10.237-6.227,14.423
				c-0.688,1.051-1.409,2.083-2.168,3.043c-0.771,0.974-1.598,1.887-2.445,2.741c-3.617-2.169-7.096-4.599-10.249-7.323
				c-0.132-0.114-0.296-0.188-0.438-0.303c-0.495-0.419-0.986-0.954-1.573-1.465c-0.229-0.197-0.522-0.422-0.829-0.713
				c-0.24-0.229-0.686-0.607-0.708-0.788c-0.015-0.117,0.142-0.465,0.236-0.788c1.718-5.87,3.441-11.661,5.166-17.54
				c1.72-5.89,3.382-11.509,5.162-17.353c0.059-0.199,0.085-0.365,0.157-0.602c1.079-3.544,2.157-7.241,3.191-10.854
				c0.161-0.553,0.354-1.036,0.474-1.616c0.032-0.007,0.037,0.016,0.041,0.039C82.771,21.721,87.613,31.245,87.613,44.396z"/>
			<path fill="#0076A3" d="M33.016,1.353c0.033-0.008,0.036,0.013,0.04,0.036c-1.822,6.057-3.622,12.087-5.441,18.068
				c-1.377,4.53-2.666,9.068-4.059,13.521c-0.46,1.469-0.905,2.958-1.341,4.431c-3.464,11.78-7.152,23.695-10.762,35.794
				c-0.07,0.15-0.225-0.062-0.236-0.075c-0.212-0.196-0.43-0.512-0.631-0.751c-0.819-0.974-1.646-1.993-2.404-3.08
				c-2.939-4.213-5.526-9.172-6.898-14.871c-0.475-1.976-0.78-4.013-1.024-6.123c-0.794-6.826,0.33-13.524,2.128-18.779
				c2.42-7.072,6.404-12.864,11.472-17.692c2.495-2.375,5.329-4.429,8.515-6.197c0.776-0.43,1.563-0.878,2.404-1.275
				c0.419-0.197,0.829-0.41,1.262-0.603c1.219-0.543,2.597-1.079,3.98-1.54C31.014,1.889,32.028,1.601,33.016,1.353z"/>
			<path fill="#0076A3" d="M68.65,7.7c0.424,0.288,0.835,0.609,1.224,0.938c-1.729,6.067-3.562,11.989-5.324,18.03
				c-0.51,1.751-1.038,3.562-1.538,5.22c-1.089,3.63-2.092,7.307-3.27,11.079c-0.077,0.248-0.166,0.504-0.236,0.753
				c-0.123,0.437-0.23,0.795-0.354,1.275c-0.463,1.768-1.096,3.631-1.618,5.41c-0.589,1.999-1.178,3.991-1.735,6.01
				c-0.385-0.384-0.705-0.844-1.023-1.277c-1.59-2.182-3.111-4.52-4.454-6.985c-0.532-0.98-1.09-1.952-1.577-2.968
				c-2.912-6.104-5.162-12.936-6.229-20.695c-0.177-1.292-0.338-2.618-0.434-3.945c-0.049-0.696-0.094-1.398-0.156-2.102
				c-0.065-0.686-0.036-1.367-0.08-2.065c-0.007-0.082-0.075-0.145-0.079-0.226c-0.052-1.041,0-2.715,0-4.058
				c0-4.163,0.521-8.221,1.182-11.98c0-0.063,0.032-0.099,0.078-0.112c8.984-0.046,15.755,2.14,21.487,5.219
				C65.945,5.991,67.32,6.799,68.65,7.7z"/>
			<path fill="#0076A3" d="M47.993,58.93c1.554,2.212,3.451,4.374,5.168,6.386c-2.226,7.403-4.437,14.982-6.585,22.234
				c-9.545,0.453-16.921-1.688-23.062-4.881c-1.637-0.852-3.46-1.936-5.046-3.08c-0.246-0.178-0.566-0.432-0.59-0.527
				c-0.024-0.103,0.128-0.54,0.236-0.901c2.652-8.809,5.437-18.072,8.079-26.817c1.589-5.249,3.102-10.356,4.615-15.436
				c0.166-0.571,0.383-1.122,0.549-1.689c0.347-1.169,0.66-2.335,1.026-3.495c0.748-2.366,1.418-4.749,2.127-7.06
				c0.035-0.006,0.04,0.015,0.041,0.038c0.585,4.993,1.524,9.564,2.878,13.859c0.421,1.339,0.826,2.658,1.339,3.981
				c0.55,1.414,1.118,2.881,1.736,4.281c1.42,3.23,3.026,6.335,4.886,9.275c0.37,0.584,0.8,1.121,1.107,1.729
				c0.327,0.329,0.519,0.758,0.785,1.125C47.518,58.279,47.75,58.583,47.993,58.93z"/>
		</g>
	</g>
</g>
</svg>
