<?xml version="1.0" encoding="utf-8"?>
<!-- Generator: Adobe Illustrator 18.1.1, SVG Export Plug-In . SVG Version: 6.00 Build 0)  -->
<svg version="1.1"
	 id="svg3262" xmlns:dc="http://purl.org/dc/elements/1.1/" xmlns:cc="http://creativecommons.org/ns#" xmlns:rdf="http://www.w3.org/1999/02/22-rdf-syntax-ns#" xmlns:svg="http://www.w3.org/2000/svg"
	 xmlns="http://www.w3.org/2000/svg" xmlns:xlink="http://www.w3.org/1999/xlink" x="0px" y="0px" viewBox="-99 210.6 1887.3 512"
	 enable-background="new -99 210.6 1887.3 512" xml:space="preserve">
<g id="layer1" transform="translate(-384.28572,-428.81172)">
	<g id="g3235" transform="matrix(2.5445375,0,0,2.5445375,1157.1714,-1457.8678)">
		<path id="path3015" fill="#B81D24" d="M290.5,1012.7c10.3,1,20.7,2.1,31,3.2l22.7-56.2l21.6,61.3c11.1,1.4,22.2,2.8,33.2,4.4
			l-37.9-107.6l37.9-93.6h-32.1l-0.3,0.5l-20.5,50.6l-18-51h-31.7l32.7,92.9L290.5,1012.7z"/>
		<path id="path3019" fill="#B81D24" d="M266.5,1010.5V824.2h-31.7v183.6C245.4,1008.7,256,1009.5,266.5,1010.5"/>
		<path id="path3023" fill="#B81D24" d="M28.5,1000c8.6,0,17.1,0.1,25.6,0.1v-68.4h38.1v-29.1H54.1v-49.2h43.8v-29.2H22.3v175.8
			C24.4,1000.1,26.4,1000,28.5,1000"/>
		<path id="path3035" fill="#B81D24" d="M-69.9,1001.8c10.6-0.4,21.1-0.7,31.7-1V853.4h29.6v-29.2h-90.9v29.2h29.6V1001.8
			L-69.9,1001.8z"/>
		<path id="path3039" fill="#B81D24" d="M-312.2,1021.5V910.5l37.5,106.5c11.5-1.3,23.1-2.5,34.7-3.7V824.2h-30.4v114.9l-40.5-114.9
			h-1.3h-30.4v201.2h0.2C-332.4,1024.1-322.3,1022.7-312.2,1021.5"/>
		<path id="path3051" fill="#B81D24" d="M-130.1,853.4v-29.2h-75.7V981v29.2v0c25.1-2.2,50.3-4,75.6-5.5v0v-8.4v-20.8
			c-14.6,0.8-29.2,1.8-43.8,2.9v-46.6h38.1v-29.2h-38.1v-49.2L-130.1,853.4L-130.1,853.4z"/>
		<path id="path3055" fill="#B81D24" d="M160.8,974.1V824.2h-31.8v148.5v29.2v0c25.3,0.9,50.5,2.2,75.7,3.9v0v-9.4v-19.7
			C190,975.6,175.4,974.8,160.8,974.1"/>
	</g>
</g>
</svg>
