<?xml version="1.0" encoding="iso-8859-1"?><!-- Generator: Adobe Illustrator 16.0.0, SVG Export Plug-In . SVG Version: 6.00 Build 0) --><!DOCTYPE svg PUBLIC "-//W3C//DTD SVG 1.1//EN" "http://www.w3.org/Graphics/SVG/1.1/DTD/svg11.dtd"><svg version="1.1" id="Layer_1" xmlns="http://www.w3.org/2000/svg" xmlns:xlink="http://www.w3.org/1999/xlink" x="0px" y="0px" width="192.756px" height="192.756px" viewBox="0 0 192.756 192.756" style="enable-background:new 0 0 192.756 192.756;" xml:space="preserve"><g><polygon style="fill-rule:evenodd;clip-rule:evenodd;fill:#FFFFFF;" points="0,0 192.756,0 192.756,192.756 0,192.756 0,0	"/><path style="fill-rule:evenodd;clip-rule:evenodd;" d="M23.926,155.875c0,0,43.365-56.586,3.701-92.549	c0,0,6.875-13.75,21.154-20.625c0,0,9.521,26.441,32.261,42.307c0,0-8.462-33.846-25.915-43.365c0,0,12.694-21.154,27.501-25.385	c0,0-6.346,16.393,0.528,31.73l14.807,39.136c0,0,26.443-39.137,20.627-68.751c0,0,22.213,17.98,25.914,25.385	c0,0-12.164,1.586-17.982,17.452c-5.713,15.583-19.037,42.837-19.037,42.837s17.98,13.221,24.855,21.154	c0,0-12.164-55.529,15.865-75.626c0,0,14.807,6.349,19.566,13.751c0,0-26.441,12.162-19.566,50.24	c7.152,39.613,20.625,39.135,20.625,39.135s-23.268,22.74-27.5,23.797c0,0-0.002-32.258-37.02-60.289l-0.529,40.725	c0,0,7.934,12.162,9.521,12.691c1.584,0.529-15.867,5.289-37.55,0c0,0,11.105-12.166,10.577-21.154	c-0.527-8.99-0.527-42.309-0.527-42.309S58.831,82.893,55.657,78.133c0,0,10.046,30.145-6.876,82.5l-1.057,15.338	C47.724,175.971,25.512,161.162,23.926,155.875L23.926,155.875z"/></g></svg>