<?xml version="1.0" encoding="utf-8"?>
<!-- Generator: Adobe Illustrator 18.1.1, SVG Export Plug-In . SVG Version: 6.00 Build 0)  -->
<svg version="1.1" id="Layer_1" xmlns="http://www.w3.org/2000/svg" xmlns:xlink="http://www.w3.org/1999/xlink" x="0px" y="0px"
	 viewBox="-153 154.2 512 512" enable-background="new -153 154.2 512 512" xml:space="preserve">
<g>
	<polygon fill="#FFFFFF" points="-153,154.2 359,154.2 359,666.2 -153,666.2 	"/>
	
		<path fill="none" stroke="#0E4C7D" stroke-width="2.5398" stroke-linecap="round" stroke-linejoin="round" stroke-miterlimit="2.6131" d="
		M-78.2,196.4c59.2,38.2,117.6,42.6,176.1-19c56.1,61.8,122.3,61.5,186.3,19 M284.2,196.4v342.7 M284.2,539.1
		c0,28-21.9,62.6-95,51.9c-40.2,2.9-65.5,27.3-91.3,50.6c15.9,12.2-38.9-55.3-84.5-48c-43.3,6.5-91.6-26.5-91.6-52.2 M-78.2,541.4
		v-345l0,0"/>
	<path fill="#0E4C7D" d="M-78.2,196.4c59.2,38.2,117.6,42.6,176.1-19c56.1,61.8,122.3,61.5,186.3,19l0,0v179.4H-78.2V196.4
		L-78.2,196.4L-78.2,196.4z"/>
	<polygon fill="#FFFFFF" points="-58.3,354.2 -69.8,345.6 -55.2,344.9 -50.2,331.4 -45.3,344.9 -30.9,345.6 -42.4,354.2 -38,367.7 
		-50.2,359.9 -62,367.7 -58.3,354.2 	"/>
	<polygon fill="#FFFFFF" points="-58.3,310.3 -69.8,301.8 -55.2,301 -50.2,287.5 -45.3,301 -30.9,301.8 -42.4,310.3 -38,323.8 
		-50.2,316.1 -62,323.8 -58.3,310.3 	"/>
	<polygon fill="#FFFFFF" points="-58.3,266.5 -69.8,257.9 -55.2,257.1 -50.2,243.6 -45.3,257.1 -30.9,257.9 -42.4,266.5 -38,280 
		-50.2,272.2 -62,280 -58.3,266.5 	"/>
	<polygon fill="#FFFFFF" points="-14.3,354.2 -25.7,345.6 -11.1,344.9 -6.2,331.4 -1.2,344.9 13.1,345.6 1.7,354.2 6.1,367.7 
		-6.2,359.9 -17.9,367.7 -14.3,354.2 	"/>
	<polygon fill="#FFFFFF" points="-14.3,310.3 -25.7,301.8 -11.1,301 -6.2,287.5 -1.2,301 13.1,301.8 1.7,310.3 6.1,323.8 
		-6.2,316.1 -17.9,323.8 -14.3,310.3 	"/>
	<polygon fill="#FFFFFF" points="-14.3,266.5 -25.7,257.9 -11.1,257.1 -6.2,243.6 -1.2,257.1 13.1,257.9 1.7,266.5 6.1,280 
		-6.2,272.2 -17.9,280 -14.3,266.5 	"/>
	<polygon fill="#FFFFFF" points="29.8,354.2 18.4,345.6 33,344.9 37.9,331.4 42.9,344.9 57.2,345.6 46,354.2 50.2,367.7 37.9,359.9 
		26.2,367.7 29.8,354.2 	"/>
	<polygon fill="#FFFFFF" points="29.8,310.3 18.4,301.8 33,301 37.9,287.5 42.9,301 57.2,301.8 46,310.3 50.2,323.8 37.9,316.1 
		26.2,323.8 29.8,310.3 	"/>
	<polygon fill="#FFFFFF" points="29.8,266.5 18.4,257.9 33,257.1 37.9,243.6 42.9,257.1 57.2,257.9 46,266.5 50.2,280 37.9,272.2 
		26.2,280 29.8,266.5 	"/>
	<polygon fill="#FFFFFF" points="90.1,225.7 78.4,217.4 93,216.6 98.2,202.9 102.9,216.6 117,217.4 105.7,225.7 110.2,239.5 
		98.2,231.7 86.2,239.5 90.1,225.7 	"/>
	<polygon fill="#FFFFFF" points="73.9,354.2 62.4,345.6 77,344.9 82,331.4 87,344.9 101.3,345.6 90.1,354.2 94.3,367.7 82,359.9 
		70.3,367.7 73.9,354.2 	"/>
	<polygon fill="#FFFFFF" points="73.9,310.3 62.4,301.8 77,301 82,287.5 87,301 101.3,301.8 90.1,310.3 94.3,323.8 82,316.1 
		70.3,323.8 73.9,310.3 	"/>
	<polygon fill="#FFFFFF" points="73.9,266.5 62.4,257.9 77,257.1 82,243.6 87,257.1 101.3,257.9 90.1,266.5 94.3,280 82,272.2 
		70.3,280 73.9,266.5 	"/>
	<polygon fill="#FFFFFF" points="117.7,354.2 106.3,345.6 120.9,344.9 125.8,331.4 130.8,344.9 145.1,345.6 133.9,354.2 
		138.1,367.7 125.8,359.9 114.1,367.7 117.7,354.2 	"/>
	<polygon fill="#FFFFFF" points="117.7,310.3 106.3,301.8 120.9,301 125.8,287.5 130.8,301 145.1,301.8 133.9,310.3 138.1,323.8 
		125.8,316.1 114.1,323.8 117.7,310.3 	"/>
	<polygon fill="#FFFFFF" points="117.7,266.5 106.3,257.9 120.9,257.1 125.8,243.6 130.8,257.1 145.1,257.9 133.9,266.5 138.1,280 
		125.8,272.2 114.1,280 117.7,266.5 	"/>
	<polygon fill="#FFFFFF" points="161.8,354.2 150.3,345.6 165,344.9 169.9,331.4 174.9,344.9 189.2,345.6 178,354.2 182.2,367.7 
		169.9,359.9 158.2,367.7 161.8,354.2 	"/>
	<polygon fill="#FFFFFF" points="161.8,310.3 150.3,301.8 165,301 169.9,287.5 174.9,301 189.2,301.8 178,310.3 182.2,323.8 
		169.9,316.1 158.2,323.8 161.8,310.3 	"/>
	<polygon fill="#FFFFFF" points="161.8,266.5 150.3,257.9 165,257.1 169.9,243.6 174.9,257.1 189.2,257.9 178,266.5 182.2,280 
		169.9,272.2 158.2,280 161.8,266.5 	"/>
	<polygon fill="#FFFFFF" points="205.9,354.2 194.4,345.6 209,344.9 214,331.4 218.9,344.9 233.3,345.6 222.1,354.2 226.3,367.7 
		214,359.9 202.3,367.7 205.9,354.2 	"/>
	<polygon fill="#FFFFFF" points="205.9,310.3 194.4,301.8 209,301 214,287.5 218.9,301 233.3,301.8 222.1,310.3 226.3,323.8 
		214,316.1 202.3,323.8 205.9,310.3 	"/>
	<polygon fill="#FFFFFF" points="205.9,266.5 194.4,257.9 209,257.1 214,243.6 218.9,257.1 233.3,257.9 222.1,266.5 226.3,280 
		214,272.2 202.3,280 205.9,266.5 	"/>
	<polygon fill="#FFFFFF" points="250,354.2 238.5,345.6 253.1,344.9 258.1,331.4 263,344.9 277.4,345.6 266.2,354.2 270.3,367.7 
		258.1,359.9 246.3,367.7 250,354.2 	"/>
	<polygon fill="#FFFFFF" points="250,310.3 238.5,301.8 253.1,301 258.1,287.5 263,301 277.4,301.8 266.2,310.3 270.3,323.8 
		258.1,316.1 246.3,323.8 250,310.3 	"/>
	<polygon fill="#FFFFFF" points="250,266.5 238.5,257.9 253.1,257.1 258.1,243.6 263,257.1 277.4,257.9 266.2,266.5 270.3,280 
		258.1,272.2 246.3,280 250,266.5 	"/>
	<path fill="#FFFFFF" d="M96.6,275.5c-33.9,15.8-54.8,43.9-46.2,62.3c8.6,18.4,43.6,20.3,77.5,4.4c33.9-15.8,54.8-43.9,46.2-62
		C165.5,261.8,130.5,259.7,96.6,275.5L96.6,275.5L96.6,275.5L96.6,275.5z"/>
	
		<line fill="none" stroke="#0E4C7D" stroke-width="2.5398" stroke-linecap="round" stroke-linejoin="round" stroke-miterlimit="2.6131" x1="47" y1="342.5" x2="173.3" y2="275.5"/>
	<path fill="#CC2229" d="M-41.6,538.8V425.9l0,0c0-27.3-12.3-12.2-12.3-23.9l0,0v-10.6h37.3l43.8,89l0.3-64.9l0,0
		c0-9.9-17.2-9.1-17.2-12.2l0,0v-10.4l47-1.6V402l0,0c0,6.7-3.1,0.5-3.4,17.9l0,0l-2.3,147.5l0,0c2.3,14.5-13.6,16.6-22.2-0.5l0,0
		l-45.9-98.9l-1.3,70.9l0,0c-0.3,16.1-3.6,16.1,5,17.9l0,0v10.1l0,0c-13,0-28.4,0-38.9-17.7l0,0v-10.4l0,0
		C-46.9,528.4-44.8,546.3-41.6,538.8L-41.6,538.8L-41.6,538.8L-41.6,538.8z M83.6,436c0-33.5-14.3-29.6-14.3-34l0,0v-10.4h84.3
		l16.2,30.4l0,0c0,9.6-7.3,9.3-13.8,1c-8.1-17.9-17.7-10.6-10.7-10.9l0,0l-31.6-1v49.6l0,0c3.9,0.8,23.7,3.9,25,2.1
		c10.7-17.9,4.7-17.4,20.1-20.5l0,0v60l0,0c-19.8-5.5-10.2-20-17.2-18.2c-2.9,0.5-24,0-27.9,0l0,0v54.8l0,0c0,18.4-2.4,34.5,5,34.5
		c0.3,11.7,0.8,23.1,1.3,34.8c-15.4-8.3-22.2-18.2-45.9-24.4l0,0v-9.9l0,0c0-6,9.7,7.8,9.7-39.5l0,0L83.6,436L83.6,436L83.6,436z
		 M181.6,525.8V420.9l0,0c0-11.7-13.3-9.1-13.3-19.5l0,0v-10.6h54.8v10.6l0,0c0,9.1-14.9-1.3-14.9,16.9l0,0v120.7l0,0
		c0,7.8-0.5,15.6,7.6,15.6c12.5,0,29.2-3.9,30-35.6c-51.6,1.3-23.2-54.8,1-37.1c6.3,4.7,15.9,8.3,18,16.1
		c20.6,72.2-29.5,83.9-99.1,81.3C161.8,558,181.6,563.7,181.6,525.8L181.6,525.8L181.6,525.8L181.6,525.8z"/>
</g>
</svg>
