<?xml version="1.0" encoding="UTF-8" standalone="no"?>
<!-- Created with Inkscape (http://www.inkscape.org/) -->
<svg
   xmlns:dc="http://purl.org/dc/elements/1.1/"
   xmlns:cc="http://web.resource.org/cc/"
   xmlns:rdf="http://www.w3.org/1999/02/22-rdf-syntax-ns#"
   xmlns:svg="http://www.w3.org/2000/svg"
   xmlns="http://www.w3.org/2000/svg"
   xmlns:sodipodi="http://sodipodi.sourceforge.net/DTD/sodipodi-0.dtd"
   xmlns:inkscape="http://www.inkscape.org/namespaces/inkscape"
   id="svg2"
   sodipodi:version="0.32"
   inkscape:version="0.45.1"
   width="800"
   height="800"
   version="1.0"
   sodipodi:docbase="C:\Wiki Uploads\To Upload"
   sodipodi:docname="NIH_logo.svg"
   inkscape:output_extension="org.inkscape.output.svg.inkscape">
  <metadata
     id="metadata7">
    <rdf:RDF>
      <cc:Work
         rdf:about="">
        <dc:format>image/svg+xml</dc:format>
        <dc:type
           rdf:resource="http://purl.org/dc/dcmitype/StillImage" />
        <dc:title>NIH Logo</dc:title>
        <dc:date>26 April 2007</dc:date>
        <dc:creator>
          <cc:Agent>
            <dc:title>United States Federal Government</dc:title>
          </cc:Agent>
        </dc:creator>
        <dc:description>Logo of the National Institues of Health.</dc:description>
        <dc:publisher>
          <cc:Agent>
            <dc:title>Wikimedia Commons</dc:title>
          </cc:Agent>
        </dc:publisher>
        <dc:contributor>
          <cc:Agent>
            <dc:title>Vectorized by Wikimedia user King of Hearts.</dc:title>
          </cc:Agent>
        </dc:contributor>
        <cc:license
           rdf:resource="http://web.resource.org/cc/PublicDomain" />
        <dc:rights>
          <cc:Agent>
            <dc:title>Public domain</dc:title>
          </cc:Agent>
        </dc:rights>
      </cc:Work>
      <cc:License
         rdf:about="http://web.resource.org/cc/PublicDomain">
        <cc:permits
           rdf:resource="http://web.resource.org/cc/Reproduction" />
        <cc:permits
           rdf:resource="http://web.resource.org/cc/Distribution" />
        <cc:permits
           rdf:resource="http://web.resource.org/cc/DerivativeWorks" />
      </cc:License>
    </rdf:RDF>
  </metadata>
  <defs
     id="defs5" />
  <sodipodi:namedview
     inkscape:window-height="573"
     inkscape:window-width="744"
     inkscape:pageshadow="2"
     inkscape:pageopacity="0.0"
     guidetolerance="10.0"
     gridtolerance="10.0"
     objecttolerance="10.0"
     borderopacity="1.0"
     bordercolor="#666666"
     pagecolor="#ffffff"
     id="base"
     height="800px"
     width="800px"
     inkscape:zoom="0.47125"
     inkscape:cx="400"
     inkscape:cy="400"
     inkscape:window-x="132"
     inkscape:window-y="174"
     inkscape:current-layer="svg2" />
  <path
     style="fill:#000000"
     d="M 374.62778,772.1504 C 374.28177,756.83311 373.72605,734.9815 373.39285,723.59125 L 372.78702,702.88172 L 387.24921,702.88172 C 395.20341,702.88172 411.23855,702.58574 422.88285,702.22398 L 444.05431,701.56623 L 444.05431,707.71326 L 444.05431,713.86026 L 427.70341,713.86026 C 418.71042,713.86026 405.87923,714.15385 399.18965,714.51267 L 387.02678,715.16506 L 387.02678,729.60588 L 387.02678,744.04669 L 413.53958,743.31207 L 440.05238,742.57746 L 440.05238,748.56108 L 440.05238,754.54472 L 414.03982,755.27935 L 388.02726,756.01397 L 388.02726,771.92493 L 388.02726,787.83592 L 417.54151,787.12479 L 447.05576,786.41367 L 447.05576,792.55411 L 447.05576,798.69453 L 429.79743,798.69736 C 420.30534,798.69891 404.1506,798.99263 393.898,799.35009 L 375.2569,800 L 374.62778,772.1504 z M 458.71885,785.7429 C 460.11824,772.51483 465.77043,720.8905 467.87002,702.16052 C 468.31445,698.19583 468.87799,694.76885 469.12236,694.54498 C 469.3667,694.32113 472.58118,693.46058 476.26564,692.63267 C 482.38929,691.25665 483.08691,691.26783 484.38826,692.76283 C 485.17125,693.66232 491.1252,702.25794 497.61926,711.86417 C 504.11332,721.4704 512.65023,734.04583 516.59016,739.80957 C 520.53011,745.57331 527.67405,756.02293 532.46559,763.03095 C 538.1596,771.3589 540.73104,775.92282 539.88872,776.20584 C 539.1799,776.44401 536.65837,777.13505 534.28532,777.74147 C 531.91227,778.34792 529.37182,779.07333 528.63985,779.35354 C 527.78275,779.68164 524.37419,775.40384 519.06434,767.33606 C 511.36382,755.63594 510.64689,754.85061 508.20184,755.43737 C 506.76203,755.78289 501.53206,757.13842 496.57966,758.44965 C 491.62727,759.76086 484.36035,761.56109 480.43095,762.45014 L 473.28657,764.06659 L 472.56879,774.5719 C 472.174,780.34982 471.56095,787.10001 471.20644,789.57231 L 470.56187,794.06741 L 464.03203,795.65546 L 457.5022,797.2435 L 458.71885,785.7429 z M 490.70598,747.60476 C 499.57033,745.35786 502.80766,744.14404 502.29436,743.25977 C 501.9026,742.58488 496.62969,734.35798 490.57678,724.97778 C 477.75121,705.10199 479.15449,704.50042 476.64402,730.95049 C 474.64276,752.03545 474.64335,752.16279 476.7373,751.36121 C 477.65471,751.01003 483.94061,749.31962 490.70598,747.60476 z M 333.40674,795.07882 L 327.30965,793.63542 L 332.6899,772.07887 C 335.64904,760.22276 337.86765,750.3203 337.62013,750.07339 C 337.11177,749.56627 289.64436,737.76093 289.46219,738.09631 C 289.39761,738.21521 286.96162,748.00929 284.0489,759.86093 L 278.75302,781.40939 L 272.61805,779.99553 C 269.24381,779.21789 266.34064,778.43955 266.16654,778.26588 C 265.59086,777.69161 288.37956,686.18061 289.3358,685.2267 C 289.5738,684.98927 292.54488,685.36705 295.93817,686.06623 C 301.40721,687.19309 302.04309,687.56834 301.53791,689.37079 C 301.22446,690.48914 300.24294,694.548 299.35677,698.39049 C 298.47059,702.23298 296.51157,710.09991 295.00339,715.87255 L 292.26127,726.36825 L 316.21135,732.21198 C 329.4314,735.43762 340.50361,737.66609 340.92518,737.18605 C 341.34524,736.70775 343.61998,728.33456 345.98015,718.57899 C 348.34034,708.82342 350.66847,700.59677 351.15378,700.29757 C 352.52687,699.45102 363.0152,702.7969 363.0152,704.08148 C 363.0152,704.71069 359.61834,718.95779 355.4666,735.7417 C 351.31488,752.52561 346.24993,773.10121 344.21117,781.46525 C 342.1724,789.82929 340.27921,796.63877 340.00408,796.59741 C 339.72894,796.55607 336.76014,795.87271 333.40674,795.07882 z M 532.28383,726.28835 C 520.62539,702.93277 511.08811,683.50822 511.08987,683.12268 C 511.09163,682.73713 513.68038,681.19137 516.84265,679.68766 L 522.59222,676.95363 L 541.46193,714.61942 C 551.84027,735.33559 560.44273,752.40827 560.57851,752.55867 C 560.7143,752.70909 570.23161,748.11144 581.72812,742.34167 C 593.22463,736.57192 603.10392,731.84534 603.6821,731.83818 C 605.13094,731.82024 609.43928,740.908 608.44032,741.87487 C 607.32375,742.95554 555.3955,768.75303 554.33676,768.75303 C 553.86608,768.75303 543.94227,749.64392 532.28383,726.28835 z M 593.63439,700.6361 C 581.10638,681.83534 570.56204,666.12368 570.20253,665.7213 C 569.84301,665.31893 563.49661,669.03594 556.09941,673.98131 L 542.64996,682.97291 L 540.98207,680.76712 C 540.06475,679.55394 538.58176,677.32444 537.68656,675.81267 L 536.05893,673.06403 L 568.65322,651.40297 C 586.74955,639.37676 601.60407,630.13761 602.04914,630.63152 C 602.49005,631.1208 604.02485,633.28824 605.45983,635.44804 L 608.06886,639.37494 L 595.34503,647.7985 C 588.34693,652.43145 582.25207,656.55677 581.80092,656.9659 C 581.34976,657.37502 590.81748,672.47694 602.84028,690.52574 C 614.86311,708.57454 625.41369,724.45953 626.28605,725.82572 C 627.84984,728.27474 627.80243,728.3555 622.91792,731.5645 C 620.1931,733.35465 617.61469,734.81932 617.18814,734.81932 C 616.76158,734.81932 606.1624,719.43687 593.63439,700.6361 z M 152.32696,715.25258 C 149.62323,713.33877 147.29758,711.45369 147.15882,711.06352 C 147.02005,710.67335 150.31426,705.41669 154.47928,699.38206 C 158.64428,693.34743 164.51884,684.81701 167.53386,680.42559 C 170.54887,676.03417 175.98321,668.17452 179.61015,662.95971 C 183.23709,657.7449 189.12748,649.21157 192.6999,643.99675 C 196.27232,638.78194 199.76202,633.9077 200.45479,633.1651 C 201.74346,631.78374 208.60737,636.07194 236.95433,655.96801 C 242.18185,659.63708 248.77873,664.21838 251.61406,666.14867 L 256.76919,669.65831 L 253.74675,674.2934 C 250.88303,678.68507 248.73565,679.99045 247.54264,678.06482 C 247.24834,677.58978 241.2564,673.30837 234.22719,668.55055 C 227.198,663.79274 217.97901,657.44661 213.74054,654.44805 L 206.03423,648.99609 L 203.63691,652.23522 C 202.31838,654.01673 198.49039,659.38089 195.13025,664.15557 L 189.02092,672.8368 L 196.72977,678.21141 C 200.96965,681.16743 209.61613,687.0919 215.94419,691.37687 C 222.27224,695.66186 227.6057,699.29815 227.7963,699.45752 C 228.34818,699.91895 221.93669,708.87001 221.05429,708.87001 C 220.61613,708.87001 215.565,705.61387 209.82958,701.63415 C 204.09413,697.65443 197.38333,693.06609 194.91668,691.43784 C 192.45004,689.8096 188.71083,687.16355 186.60734,685.55773 C 182.073,682.0962 182.93991,681.45261 173.35475,695.39633 C 169.58133,700.88561 164.41246,708.38181 161.86839,712.05455 L 157.2428,718.73226 L 152.32696,715.25258 z M 673.99864,691.15463 C 673.81523,690.74293 670.06341,687.2436 665.66129,683.37833 C 661.25916,679.51306 651.8046,671.21435 644.65115,664.93676 C 637.49769,658.65917 631.15026,653.06377 630.54574,652.50254 C 629.94121,651.94131 623.52561,646.36397 616.28885,640.10841 C 609.05209,633.85286 603.1311,628.54396 603.1311,628.31086 C 603.1311,628.07776 604.99294,625.68438 607.26851,622.99225 L 611.40593,618.09746 L 614.52201,620.67773 C 616.23587,622.09689 619.66408,625.11773 622.14028,627.39073 C 624.61647,629.66372 629.96519,634.42805 634.02631,637.97816 L 641.41014,644.43287 L 646.379,638.97504 C 649.11187,635.97325 655.2437,629.02717 660.0053,623.53932 C 664.76689,618.05147 669.89876,612.21287 671.40943,610.56466 C 672.92012,608.91646 674.15822,607.31102 674.16077,606.99704 C 674.16331,606.68306 667.85526,600.90241 660.14288,594.15116 C 652.43049,587.39993 645.87154,581.47455 645.56742,580.98368 C 645.2633,580.4928 646.95289,577.92472 649.32206,575.27685 L 653.62964,570.46251 L 666.1486,581.49314 C 673.03404,587.55999 678.89268,592.76535 679.16781,593.06059 C 679.44294,593.35585 683.04404,596.51622 687.17027,600.08365 C 691.29647,603.65108 695.19201,607.05543 695.827,607.64891 C 696.462,608.24237 703.54042,614.482 711.55683,621.51476 L 726.13212,634.30157 L 723.19767,637.99761 C 721.58373,640.03043 719.57993,642.25936 718.74479,642.95078 C 717.05496,644.34978 716.79989,644.17213 703.22572,632.14192 C 695.54068,625.33101 689.2529,619.85755 685.55695,616.76143 C 683.46511,615.00909 683.26823,615.18762 667.54826,633.09232 C 658.80671,643.04876 651.52475,651.53563 651.36616,651.95203 C 651.20755,652.36844 656.38505,657.36532 662.87171,663.05623 C 669.35836,668.74714 675.15049,673.86052 675.7431,674.41933 C 676.33568,674.97813 678.49629,676.90058 680.54441,678.69146 L 684.26828,681.94757 L 680.06071,686.92536 C 675.95227,691.78588 674.67645,692.67598 673.99864,691.15463 z M 113.89492,676.2118 C 107.25116,673.90814 99.517495,668.4744 93.814808,662.10329 C 75.804916,641.98244 77.357265,616.46042 97.833918,596.02551 C 118.98187,574.92065 146.0207,572.58914 165.34164,590.20444 C 180.22019,603.76955 185.56634,621.72844 179.86366,638.98718 C 174.53287,655.12039 159.4648,669.69668 141.96629,675.64764 C 134.00051,678.35667 120.84339,678.6211 113.89492,676.2118 z M 142.40869,660.90315 C 150.97333,656.70518 161.45671,646.77268 165.51978,639.0065 C 168.08943,634.09484 168.39318,632.51954 168.40643,624.03576 C 168.41911,615.91912 168.06777,613.86404 165.96566,609.75929 C 161.34284,600.73237 151.25797,593.32545 141.3598,591.68727 C 126.7484,589.26904 105.78008,602.23837 97.773914,618.64603 C 94.848829,624.64063 94.41948,626.50257 94.459808,633.01821 C 94.53769,645.60127 101.22689,655.95374 113.17364,661.98048 C 118.92152,664.88009 120.00978,665.09025 127.40144,664.72805 C 134.01554,664.40396 136.62135,663.73981 142.40869,660.90315 z M 22.426638,533.62037 L 20.63595,526.04316 L 23.994549,522.48781 C 25.841779,520.53237 28.028475,518.18431 28.853873,517.26989 C 29.679272,516.35549 35.532097,510.03242 41.860152,503.21866 C 48.188207,496.40488 56.48429,487.45393 60.295892,483.32765 C 64.107494,479.20136 69.735211,473.12531 72.801929,469.82533 C 83.502177,458.31117 83.797423,458.98997 69.738811,462.78286 C 62.934666,464.61857 48.138183,468.69333 36.857737,471.83791 C 7.3870356,480.05328 8.8417659,479.71526 7.7298967,478.60609 C 7.1858033,478.06332 6.1432496,475.36016 5.4131106,472.59905 L 4.0855853,467.57889 L 11.717435,465.34679 C 15.914952,464.11913 28.128523,460.72386 38.858703,457.80174 C 79.463032,446.74406 94.43478,442.59116 95.959168,441.96306 C 97.22727,441.44057 97.894296,442.76272 99.394427,448.77226 L 101.25602,456.22985 L 93.318594,464.99251 C 88.953006,469.81197 84.705837,474.48062 83.880437,475.36731 C 81.565049,477.85462 74.351281,485.73415 63.370536,497.7701 C 57.86788,503.80155 51.490021,510.76295 49.197518,513.23988 C 46.905013,515.71681 43.866046,519.00163 42.444257,520.53947 C 39.922186,523.26739 39.072978,524.83326 40.63938,523.86753 C 41.068486,523.60298 51.31093,520.67406 63.400368,517.35882 C 75.489805,514.04359 91.891521,509.53742 99.848626,507.34514 C 107.80572,505.15284 114.39131,503.45175 114.48326,503.56492 C 114.97032,504.1645 117.96809,515.50811 117.70594,515.75964 C 117.53581,515.9229 111.54379,517.63053 104.39033,519.55439 C 83.644904,525.13369 51.402145,533.99768 38.22133,537.74518 C 31.54272,539.644 25.65966,541.19759 25.147862,541.19759 C 24.636065,541.19759 23.411513,537.78784 22.426638,533.62037 z M 744.79109,540.34745 C 744.5014,539.87987 744.9579,537.06537 745.80553,534.09299 L 747.34666,528.6887 L 753.2141,528.6887 C 758.09507,528.6887 759.80692,528.18809 763.39604,525.71117 C 772.76329,519.24668 777.84603,501.07746 772.71297,492.40601 C 768.53006,485.33969 757.39305,482.84821 752.67761,487.92389 C 751.34036,489.3633 746.33959,497.27132 741.56477,505.4973 C 731.55217,522.74686 729.55749,525.34411 723.68636,528.77645 C 711.64135,535.81813 693.92696,530.47593 687.33199,517.81291 C 680.33519,504.37839 685.90519,476.27659 697.71773,465.41464 C 705.17259,458.55969 713.45727,455.66856 722.43804,456.78792 C 730.40786,457.78125 730.68406,458.12527 728.65841,464.53574 L 726.93798,469.98029 L 721.67395,469.54482 C 714.23352,468.92931 709.97179,470.66386 704.7851,476.41867 C 696.27661,485.85914 692.70638,504.60789 698.00574,512.01969 C 701.07461,516.31184 705.34955,518.40787 711.04469,518.41277 C 715.32875,518.41647 716.0315,518.03928 720.18761,513.50558 C 722.66381,510.80442 728.25087,502.43798 732.60332,494.91348 C 741.25878,479.94992 745.41245,475.17458 751.93341,472.69026 C 760.32513,469.49322 772.25158,473.20349 779.57436,481.28922 C 786.28022,488.69375 788.2677,497.47834 785.77044,508.67572 C 782.48463,523.40891 774.51795,535.43497 765.48498,539.29753 C 760.82987,541.28809 745.84487,542.04837 744.79109,540.34745 z M 229.95095,537.53653 C 211.83041,534.67436 199.05752,530.03194 186.07275,521.58862 C 147.88276,496.75567 131.57219,449.39082 146.08991,405.48108 C 150.13936,393.23328 157.89201,380.29958 167.59642,369.60195 C 173.03424,363.60757 180.91123,357.47824 208.08777,338.09438 C 214.24463,333.70296 223.02544,327.41524 227.60067,324.12168 C 232.17591,320.82811 240.67589,314.76495 246.4895,310.648 C 252.30312,306.53105 260.75247,300.45617 265.26584,297.14829 C 269.77921,293.84041 278.56849,287.55269 284.7976,283.17559 C 291.02669,278.79848 298.9055,273.16193 302.30604,270.64991 C 305.70659,268.13788 321.09495,257.09288 336.50239,246.10547 C 351.90983,235.11805 371.85081,220.85183 380.81569,214.40273 C 390.55296,207.39801 397.70208,202.90168 398.57247,203.23487 C 401.45767,204.33933 433.14349,228.02494 432.84963,228.85754 C 432.5327,229.75549 424.24544,235.96838 408.95281,246.77279 C 403.90258,250.34082 395.12406,256.62853 389.44496,260.74549 C 380.62857,267.13677 357.32666,283.8242 342.73666,294.19518 C 340.40834,295.85021 331.62643,302.13793 323.22132,308.16788 C 314.8162,314.19782 306.03696,320.48554 303.7119,322.14057 C 301.38684,323.79562 292.6076,330.08334 284.20248,336.11328 C 275.79736,342.14323 267.01812,348.42879 264.69306,350.08119 C 262.368,351.73358 254.16264,357.59018 246.45892,363.09584 C 238.7552,368.6015 226.28342,377.51378 218.74386,382.9009 C 201.16065,395.46434 194.94461,401.72142 189.88518,411.95009 C 186.00481,419.79505 182.92825,431.27061 182.92825,437.8994 C 182.92825,444.5115 186.00116,455.99724 189.88426,463.89911 C 196.84448,478.06274 209.9755,488.87698 225.63903,493.34546 C 232.25795,495.2337 236.97386,495.28728 396.53137,495.28728 C 556.08887,495.28728 560.80478,495.2337 567.4237,493.34546 C 588.18527,487.42261 604.20445,470.14891 608.52933,449.02071 C 610.52042,439.29367 610.53119,436.23794 608.60712,426.94553 C 606.84277,418.42463 604.12745,411.8243 599.76929,405.46276 C 594.12078,397.21775 592.59278,395.9839 551.10599,366.168 C 534.21953,354.03196 517.5078,342.00645 500.08136,329.45143 C 492.1025,323.70298 480.05178,315.03991 473.30196,310.20013 L 461.02958,301.40054 L 464.79785,298.70383 C 483.74053,285.14784 497.35463,275.71624 497.97943,275.71624 C 498.39448,275.71624 502.85249,278.74783 507.88611,282.45308 C 512.91974,286.15834 522.68445,293.23203 529.58546,298.17237 C 536.48647,303.11272 547.73884,311.19692 554.59072,316.13728 C 561.44261,321.07762 572.80359,329.26535 579.83736,334.33222 C 586.87114,339.39908 598.5493,347.83028 605.78887,353.06819 C 623.70255,366.02901 633.91855,377.22984 641.54421,392.2704 C 654.34718,417.5225 655.70808,448.68592 645.15591,474.97466 C 634.11832,502.47268 611.24007,523.90334 583.12144,533.08397 C 567.04454,538.333 571.52162,538.21399 395.64995,538.06753 C 305.89116,537.99277 231.32661,537.75383 229.95095,537.53653 z M 234.88494,472.33234 C 224.12332,470.4936 213.80804,462.53153 209.02415,452.37113 C 205.4804,444.84461 205.31394,431.37746 208.67467,424.09686 C 212.52338,415.75912 216.44887,412.00824 235.71142,398.2627 C 246.02467,390.90329 272.24637,372.14533 293.98186,356.57835 C 315.71735,341.01138 338.00311,325.06511 343.50577,321.1422 C 349.00842,317.2193 366.34179,304.81307 382.02436,293.57281 C 397.70693,282.33255 420.10671,266.28995 431.80164,257.92258 L 453.06516,242.70918 L 469.31976,254.37907 C 478.25978,260.79751 486.60916,266.84621 487.87393,267.82063 L 490.17351,269.5923 L 476.42196,279.3911 C 468.85862,284.78045 459.7199,291.3001 456.1137,293.87921 C 452.5075,296.45832 447.76832,299.82674 445.58221,301.36458 C 443.39608,302.90243 435.28535,308.65191 427.55835,314.14117 C 419.83135,319.63045 411.71522,325.37992 409.52249,326.91776 C 407.32976,328.45562 402.57857,331.82404 398.96427,334.40315 C 395.34999,336.98225 367.2114,357.02209 336.43408,378.93611 C 305.65679,400.85014 276.73404,421.50977 272.16136,424.84642 L 263.84737,430.91305 L 329.93925,431.16969 C 366.28978,431.31083 425.85802,431.31083 462.31312,431.16969 L 528.59512,430.91305 L 520.09102,424.69842 C 515.41376,421.28037 494.25355,406.05613 473.06831,390.86676 C 400.66989,338.95856 404.5034,341.75736 405.10851,341.24994 C 406.21039,340.32592 436.87447,318.73535 439.2688,317.1977 C 442.41503,315.17716 441.45911,314.65631 462.063,329.61738 C 487.07456,347.77898 495.03846,353.53333 506.35162,361.61838 C 512.82673,366.24586 523.72109,374.07409 530.56129,379.01444 C 537.4015,383.95479 548.70036,392.03899 555.66986,396.97934 C 575.11377,410.76222 577.96492,413.16808 581.63224,418.8871 C 586.00157,425.70084 587.50646,431.81574 586.89885,440.28725 C 585.93438,453.73416 577.42807,465.64804 565.3011,470.53689 L 559.61009,472.83115 L 399.53282,472.97221 C 311.49031,473.04981 237.39877,472.76186 234.88494,472.33234 z M 788.66035,455.6418 L 784.59807,455.269 L 784.899,449.57835 C 785.06452,446.4485 785.65446,436.46515 786.20995,427.39315 C 786.76547,418.32116 787.21998,408.16952 787.21998,404.83397 L 787.21998,398.76931 L 779.5654,398.12385 C 775.35538,397.76883 768.82723,397.47836 765.0584,397.47836 C 758.27445,397.47836 758.20496,397.50579 758.10513,400.223 C 758.04967,401.73255 757.4869,413.29746 756.85452,425.9228 L 755.70477,448.87795 L 749.80026,449.18178 L 743.89576,449.48562 L 744.55869,435.20908 C 744.92329,427.35698 745.50533,415.47103 745.8521,408.79585 L 746.4826,396.65915 L 741.08885,396.11181 C 738.1223,395.81078 730.85526,395.34659 724.93992,395.0803 L 714.18472,394.59611 L 714.18472,398.97669 C 714.18472,406.00498 712.22713,443.48555 711.61749,448.12941 L 711.06066,452.37113 L 705.46947,452.37113 L 699.87825,452.37113 L 700.47097,439.14696 C 701.32129,420.17583 703.38719,381.03186 703.54549,380.89206 C 703.61927,380.82692 710.4329,381.13732 718.68689,381.58186 C 726.94087,382.02641 748.5513,383.14106 766.71007,384.0589 C 784.86884,384.97671 799.79848,385.78911 799.88708,385.86423 C 800.16974,386.10392 797.32458,441.60193 796.6438,449.12746 C 796.11292,454.99605 795.68061,456.33038 794.35594,456.18895 C 793.45761,456.09305 790.89461,455.84683 788.66035,455.6418 z M 82.879954,435.81392 C 71.280499,431.32408 40.213691,419.59093 14.34687,409.93072 L 0.34010841,404.69975 L 0.34010841,396.92301 L 0.34010841,389.14628 L 8.8442138,386.25122 C 13.521472,384.65894 29.05397,379.06229 43.360878,373.81423 C 57.667783,368.56618 71.174304,363.7036 73.375366,363.00851 C 75.576429,362.31342 81.766917,360.14803 87.132007,358.19654 L 96.886716,354.6484 L 96.886716,361.8583 L 96.886716,369.06817 L 88.632732,371.91365 C 84.093041,373.47866 77.789998,375.66447 74.62597,376.771 L 68.873194,378.78287 L 68.873194,397.94671 L 68.873194,417.11056 L 82.629835,422.12259 L 96.386476,427.13463 L 96.682309,433.76457 C 96.902702,438.70386 96.647576,440.37832 95.681826,440.33097 C 94.96885,440.29601 89.208009,438.26334 82.879954,435.81392 z M 56.867397,397.87061 C 56.867397,386.61896 56.582006,383.40088 55.616793,383.76875 C 54.928961,384.03091 46.037169,387.0433 35.857254,390.46295 C 25.67734,393.8826 16.942241,396.92871 16.445923,397.23207 C 15.58987,397.75532 52.980438,412.20612 55.616793,412.37094 C 56.563775,412.43013 56.867397,408.90974 56.867397,397.87061 z M 787.38457,371.10084 C 785.00533,354.46682 783.90959,347.07126 783.79781,346.89267 C 783.73442,346.79138 778.06287,347.57951 771.19439,348.64407 C 764.32588,349.70863 751.05251,351.71896 741.698,353.11146 C 732.34348,354.50397 719.12136,356.54458 712.3155,357.64614 C 705.50965,358.74772 699.79585,359.50396 699.61816,359.32671 C 699.44048,359.14945 699.15607,356.11374 698.98616,352.58066 L 698.67723,346.15689 L 706.68109,344.95014 C 719.30707,343.04653 760.75932,336.74207 771.07142,335.15705 C 776.22149,334.36545 780.68185,333.47171 780.98333,333.17096 C 781.28482,332.8702 780.97755,328.9146 780.30051,324.3807 C 779.62347,319.84682 778.58268,312.87572 777.98766,308.88938 C 777.39263,304.90303 777.08794,301.46343 777.31058,301.24583 C 777.53323,301.02822 780.18948,300.6968 783.21335,300.50933 L 788.71131,300.16847 L 790.88575,314.6402 C 792.0817,322.59965 794.67892,339.8471 796.65736,352.96786 C 798.6358,366.08862 800.13561,376.92489 799.99027,377.04845 C 799.84493,377.172 797.20842,377.69677 794.13138,378.21459 L 788.53676,379.15607 L 787.38457,371.10084 z M 5.8427648,363.20665 C 2.8163038,362.72838 0.20348693,362.21051 0.036505138,362.05581 C -0.29403816,361.74957 1.6318379,350.87062 5.3384305,332.10608 C 6.6395985,325.51895 8.878689,313.84176 10.314187,306.15677 C 13.695005,288.05746 14.32526,285.17937 14.884645,285.28556 C 15.139134,285.33386 17.766197,285.69348 20.722562,286.08469 L 26.09777,286.79601 L 25.530005,289.98907 C 25.217734,291.74525 23.981382,298.34704 22.782557,304.6597 C 21.583732,310.97236 20.545926,316.78139 20.476321,317.56864 C 20.343783,319.06771 19.95706,318.98042 65.371502,327.70118 C 76.927081,329.92016 90.225201,332.47507 94.922879,333.37877 L 103.46411,335.02184 L 102.25165,340.89107 C 101.58481,344.11914 100.79571,347.00321 100.4981,347.30008 C 100.20048,347.59697 91.049711,346.14376 80.163039,344.07073 C 28.947894,334.31841 24.932078,333.56506 20.830448,332.94032 L 17.309196,332.40398 L 14.327309,348.2401 L 11.345421,364.07622 L 5.8427648,363.20665 z M 701.88574,315.10627 C 693.33777,311.9767 686.71559,305.45709 681.64413,295.17823 C 677.18589,286.14222 675.44418,275.93523 677.02264,268.09463 C 679.59721,255.30609 686.68141,248.52016 704.83501,241.45325 C 721.05373,235.13957 738.87337,228.35269 749.94684,224.27174 L 759.19616,220.86305 L 760.76693,224.58596 C 763.74796,231.65134 763.711,233.35573 760.55013,234.58747 C 758.9857,235.19709 748.02605,239.33886 736.19534,243.79136 C 700.56578,257.20064 701.02359,256.99777 695.83429,261.67582 C 691.35948,265.70973 689.17136,270.88975 689.18241,277.42307 C 689.19908,287.27193 695.66801,298.17407 703.63825,301.78566 C 711.57785,305.38334 716.54421,304.33612 746.70041,292.70551 C 770.96157,283.34848 780.64923,279.71865 781.37535,279.71331 C 782.50516,279.70497 786.12862,291.62327 785.17501,292.2112 C 784.6784,292.51737 779.64531,294.50603 773.99036,296.63042 C 768.3354,298.75483 755.82982,303.48 746.20017,307.13083 C 736.57052,310.78164 726.66574,314.40902 724.18955,315.19168 C 718.536,316.97862 706.8778,316.93397 701.88574,315.10627 z M 64.371019,293.39526 C 39.609065,285.09433 19.19086,278.19894 18.997231,278.07217 C 18.498094,277.74535 21.93345,267.41044 22.886397,266.37202 C 23.320868,265.89858 44.141328,272.35541 69.154088,280.72053 L 114.63183,295.92984 L 112.55867,302.29087 C 111.41843,305.78943 110.23963,308.61498 109.93912,308.56986 C 109.63862,308.52475 89.132973,301.69617 64.371019,293.39526 z M 85.381162,272.84923 C 64.840652,266.94064 47.910819,250.94779 43.921041,233.68371 C 39.344837,213.88213 51.29913,190.0033 70.373917,180.84381 C 76.937908,177.69186 78.036382,177.47903 87.882369,177.45183 C 96.147938,177.42899 99.812375,177.89805 105.07152,179.65206 C 124.37064,186.08865 140.07994,201.65345 143.88706,218.11055 C 145.13202,223.4922 145.12993,231.06732 143.88191,236.79229 C 141.23852,248.91812 129.73524,264.71597 119.89534,269.73385 C 109.75849,274.90316 96.638414,276.08743 85.381162,272.84923 z M 114.04108,258.17648 C 129.38552,250.41978 136.29567,231.78551 129.50657,216.47148 C 122.43119,200.5117 98.688696,187.70192 82.025899,190.85427 C 71.383804,192.86761 64.02924,198.73691 58.754,209.42639 C 51.31151,224.50746 57.534933,242.3008 73.920954,252.79011 C 88.056375,261.83874 102.86372,263.82672 114.04108,258.17648 z M 653.18328,233.68945 C 651.4535,230.88503 650.28636,228.34297 650.58962,228.04044 C 650.8929,227.7379 657.55962,223.33023 665.40455,218.2456 C 711.49437,188.3729 720.18761,182.58972 720.18761,181.80121 C 720.18761,181.32094 716.30365,174.99015 711.55658,167.73277 C 706.8095,160.47541 703.41806,154.37379 704.02002,154.17362 C 704.62199,153.97345 706.72507,152.71938 708.69356,151.38678 C 710.66203,150.05418 712.59027,148.97092 712.97854,148.97954 C 713.3668,148.98814 716.23019,152.91797 719.34162,157.71247 C 722.45306,162.50698 728.79256,172.26834 733.42941,179.4044 C 750.4366,205.57826 754.8328,212.36461 755.51171,213.49265 C 756.16757,214.58236 748.61348,219.82544 746.38762,219.82544 C 745.86129,219.82544 741.66439,213.99315 737.06119,206.8648 C 731.56084,198.34718 728.22337,194.07487 727.32551,194.40211 C 726.57409,194.67597 722.29702,197.2907 717.82091,200.2126 C 713.34481,203.13451 706.30591,207.69738 702.17892,210.3523 C 698.05194,213.00723 688.82247,218.9902 681.66902,223.64779 C 660.69813,237.30187 658.3047,238.78838 657.29106,238.78838 C 656.76156,238.78838 654.91306,236.49386 653.18328,233.68945 z M 156.50224,203.57302 C 154.34892,201.25884 139.49175,185.94996 123.4863,169.55333 C 107.48087,153.15668 94.269098,139.4469 94.126817,139.08715 C 93.984537,138.72739 96.301995,136.03527 99.276722,133.10463 L 104.68532,127.7762 L 148.55317,138.79179 C 172.68049,144.85035 192.561,149.66773 192.73208,149.49706 C 192.90317,149.3264 185.87217,141.83837 177.10767,132.857 C 152.74981,107.89647 140.40772,94.885793 140.40772,94.168988 C 140.40772,93.811334 142.37394,91.74667 144.77709,89.580843 L 149.14647,85.642976 L 166.19438,103.08121 C 194.09369,131.61931 212.31851,150.42102 214.37149,152.78338 C 216.30033,155.0029 216.30019,155.00336 212.37052,159.04882 C 210.20905,161.274 207.65847,163.52088 206.70257,164.0419 C 205.46142,164.71837 198.02497,163.28661 180.69001,159.03359 C 167.339,155.758 147.95489,151.00814 137.61419,148.47832 C 127.27349,145.94851 118.04404,143.60555 117.10429,143.27175 C 116.16454,142.93796 121.02336,148.39374 127.90168,155.39572 C 134.78001,162.3977 142.4337,170.24279 144.9099,172.82924 C 147.38609,175.41569 154.12588,182.32671 159.88721,188.18706 L 170.36234,198.84224 L 165.93191,203.34553 C 163.49519,205.82235 161.25757,207.8335 160.95943,207.81474 C 160.66131,207.79599 158.65557,205.88722 156.50224,203.57302 z M 628.64342,201.15266 C 623.98227,195.62734 623.75286,194.94525 625.92404,193.06739 C 651.6285,170.83532 664.74951,159.47554 679.05521,147.06798 C 698.14244,130.5133 696.68786,131.06915 702.32889,138.17422 C 705.36628,141.9999 705.38008,142.06969 703.43394,143.75951 C 697.68956,148.7473 658.01094,183.10778 649.7386,190.25805 C 646.48378,193.07138 643.33226,195.82713 642.73522,196.38193 C 639.29074,199.58273 632.70196,204.84413 632.21515,204.78262 C 631.9015,204.74299 630.29422,203.10951 628.64342,201.15266 z M 598.88193,171.20142 C 596.54172,169.15995 594.44343,167.36747 594.21906,167.21813 C 593.88967,166.99888 601.10132,158.23068 605.61813,153.35871 C 606.17619,152.75676 609.1508,149.38834 612.22836,145.87333 C 631.79078,123.53032 640.81244,113.28602 642.46682,111.53699 C 643.50525,110.43914 645.52782,108.02912 646.96141,106.18139 L 649.56794,102.82191 L 646.05397,99.69408 C 637.75755,92.309297 627.7134,83.516335 626.52015,82.593539 C 625.51798,81.818505 626.09354,80.594605 629.09589,77.116298 C 632.69131,72.950904 633.09126,72.745869 634.80473,74.189601 C 635.81813,75.043473 649.14817,86.641354 664.42702,99.96267 L 692.20676,124.18325 L 689.11591,128.07628 C 687.41593,130.21746 685.63313,132.21095 685.15413,132.50627 C 684.67513,132.80159 679.26196,128.65343 673.12486,123.28816 C 666.98778,117.92287 661.42881,113.22651 660.7716,112.85179 C 660.01915,112.42276 649.40385,123.7827 632.10425,143.53011 C 616.99442,160.77791 604.29546,174.89501 603.88435,174.90146 C 603.47324,174.90791 601.22215,173.24289 598.88193,171.20142 z M 217.50862,151.70063 C 217.30641,151.01881 216.39694,144.84692 215.48758,137.98532 C 214.57822,131.12373 213.19938,121.01847 212.4235,115.5292 C 211.64761,110.03992 210.08483,98.587293 208.95063,90.078915 C 207.81644,81.570538 206.22471,69.886815 205.41343,64.115087 C 204.60216,58.343359 203.9384,52.890617 203.9384,51.997881 C 203.9384,51.0138 206.44898,49.07621 210.31494,47.076683 L 216.69148,43.778641 L 220.06965,46.579015 C 221.92764,48.119221 225.24868,51.021514 227.44974,53.028555 C 229.6508,55.035597 237.52961,62.032052 244.95819,68.576234 C 252.38678,75.120415 260.94358,82.747965 263.9733,85.526343 C 269.73123,90.806597 282.80182,102.43623 289.22958,107.99824 C 291.29306,109.78383 292.97603,111.53507 292.9695,111.8899 C 292.96298,112.24473 290.24563,114.02117 286.93095,115.83754 L 280.90427,119.14002 L 269.96613,108.99323 L 259.02801,98.846433 L 251.74297,102.80631 C 247.73622,104.98425 240.406,108.91273 235.45361,111.5363 C 230.50121,114.15986 226.15262,116.58065 225.79006,116.91585 C 225.4275,117.25104 225.57839,120.22003 226.12535,123.5136 C 226.67233,126.80716 227.66173,133.34932 228.32404,138.05173 L 229.52825,146.60155 L 223.70227,149.77094 C 219.69074,151.95325 217.76178,152.55423 217.50862,151.70063 z M 236.7095,97.40954 L 249.2605,90.767461 L 242.80176,84.6844 C 227.63876,70.403368 217.51121,61.235671 217.21944,61.526718 C 216.92909,61.816369 217.90542,69.053867 221.47503,93.073066 C 222.25003,98.287878 222.8984,102.89139 222.91584,103.30308 C 222.97045,104.59152 223.8417,104.21927 236.7095,97.40954 z M 565.61299,145.57949 C 555.13521,143.02722 541.82358,135.2029 535.79047,128.05041 C 528.4476,119.34511 526.40679,105.54792 530.96059,95.397141 L 533.27603,90.235838 L 538.4392,93.25743 C 541.27894,94.919307 543.74129,96.407385 543.9111,96.56427 C 544.0809,96.721156 543.51812,98.524838 542.66049,100.57245 C 537.82501,112.11725 544.53491,123.95455 560.09271,131.32559 C 572.53494,137.22053 581.66089,135.73176 586.08253,127.08568 C 590.47761,118.49157 588.08419,114.05373 569.75412,96.810014 C 552.78239,80.844116 549.65448,74.307518 553.62039,63.094259 C 557.11428,53.215607 567.31078,45.403218 577.9404,44.460666 C 592.60472,43.160351 613.7759,56.54718 618.97411,70.406844 C 621.69034,77.648962 621.69491,81.363759 618.9977,89.560035 L 616.85562,96.069422 L 611.7442,93.105912 C 606.37392,89.992309 606.41571,90.103532 607.69774,82.335925 C 609.67282,70.369206 595.417,56.71406 580.92139,56.687823 C 573.94488,56.675195 570.59245,58.797874 567.32011,65.29984 C 565.11765,69.676012 565.08996,70.020705 566.632,73.865264 C 567.68655,76.494444 571.10331,80.479346 576.57453,85.461064 C 598.90664,105.79514 601.45805,109.29506 601.48777,119.63623 C 601.52079,131.11807 593.38253,142.33844 582.73344,145.49318 C 576.87819,147.22778 572.4709,147.25 565.61299,145.57949 z M 506.33861,114.24074 L 500.08983,112.68893 L 495.01986,96.643185 C 492.23139,87.818024 489.55724,79.474632 489.07733,78.102313 C 488.59742,76.729995 486.77899,70.891401 485.03637,65.127661 C 483.29374,59.363921 480.59531,50.606031 479.03983,45.665683 C 477.48436,40.725334 475.42394,34.106225 474.46112,30.95655 C 473.4983,27.806876 472.59183,25.348291 472.44674,25.493027 C 472.11645,25.822522 463.73859,56.797085 457.54236,80.597438 C 454.97001,90.478135 452.67882,98.864225 452.45084,99.23319 C 452.11577,99.77549 441.41121,97.374128 440.22607,96.490802 C 439.95941,96.292051 446.00947,72.735049 450.07524,58.14131 C 450.61049,56.220063 454.02418,43.42007 457.66122,29.69688 C 461.29825,15.973691 464.5958,4.399916 464.98912,3.9773813 C 466.10096,2.7829632 479.15838,6.5458989 480.12288,8.3386797 C 480.59541,9.217004 481.87253,13.034546 482.96093,16.822106 C 484.04934,20.609667 485.83729,26.627876 486.93417,30.195905 C 492.33415,47.761475 496.39029,61.070561 497.58015,65.127661 C 501.80987,79.549961 506.07731,93.398825 506.38689,93.707648 C 506.71877,94.038718 513.68641,68.533477 522.64674,34.188106 C 524.72327,26.228656 526.51603,19.586561 526.63064,19.427895 C 526.74526,19.26923 528.80991,19.824097 531.21877,20.660934 C 533.62762,21.49777 536.43889,22.18899 537.46603,22.19698 C 538.7647,22.20708 539.18168,22.743532 538.83494,23.958091 C 538.56071,24.918716 535.30809,37.157305 531.60691,51.154958 C 517.92589,102.89587 514.40905,115.41974 513.50895,115.60395 C 513.00209,115.70768 509.77544,115.09423 506.33861,114.24074 z M 294.5098,111.78651 C 293.16695,107.6979 270.86217,23.588741 270.68551,21.947433 C 270.50819,20.299949 271.55956,19.638976 276.68456,18.175959 C 282.44441,16.531716 282.93443,16.523183 283.38857,18.059217 C 283.65805,18.970657 285.73858,26.90234 288.012,35.685182 C 293.44299,56.666773 302.83595,91.758834 304.06428,95.656514 L 305.0357,98.738988 L 328.24236,92.465781 C 341.00601,89.015517 351.67205,86.415077 351.94466,86.687025 C 352.39932,87.14058 354.86488,95.722303 354.96718,97.20727 C 354.99145,97.559835 351.74725,98.615112 347.75782,99.55233 C 343.76839,100.48955 339.15367,101.66183 337.50287,102.15742 C 331.33501,104.00908 296.79419,113.03407 295.87533,113.03407 C 295.34965,113.03407 294.73516,112.47267 294.5098,111.78651 z M 415.05486,95.318679 C 415.06877,93.64976 416.12221,78.826542 419.50564,32.691031 C 420.35103,21.163552 421.33257,9.092283 421.68685,5.8659886 L 422.33099,0 L 428.35931,0.6285523 C 431.67489,0.9742561 434.55106,1.4201309 434.7508,1.6193852 C 434.95054,1.8186395 434.42226,11.586008 433.57683,23.324649 C 432.73141,35.06329 431.35225,54.997452 430.51204,67.622787 C 429.67182,80.248121 428.75297,92.037589 428.47014,93.821603 L 427.95591,97.065266 L 421.49811,97.065266 C 416.00926,97.065266 415.04248,96.8032 415.05486,95.318679 z "
     id="path2161" />
</svg>
