<?xml version="1.0" encoding="UTF-8" standalone="no"?>
<!-- Created with Inkscape (http://www.inkscape.org/) -->
<svg
   xmlns:svg="http://www.w3.org/2000/svg"
   xmlns="http://www.w3.org/2000/svg"
   version="1.0"
   width="990"
   height="445"
   id="svg1354">
  <defs
     id="defs1357" />
  <path
     d="M 166.99725,430.00943 C 148.82409,425.01963 131.10866,408.18103 123.35927,388.53142 C 118.16456,375.35953 99.393374,309.27606 33.598624,72.531425 L 23.732654,37.031425 L 68.250494,36.770995 C 92.735314,36.627755 113.08168,36.852755 113.46467,37.270995 C 113.84765,37.689235 130.51479,102.20612 150.50275,180.64185 L 186.8445,323.25229 L 204.11859,257.14185 C 245.13954,100.14878 252.10698,74.831585 257.284,63.957685 C 264.26041,49.304305 276.453,38.833585 290.93074,35.062615 C 298.55892,33.075725 316.13804,33.054525 323.69589,35.023095 C 339.6507,39.178795 352.12104,50.682615 358.98642,67.578435 C 363.17301,77.881685 372.18286,111.05103 405.83014,240.03142 C 417.16499,283.48142 426.76527,319.81695 427.16408,320.77705 C 427.61552,321.86384 441.66501,268.55562 464.38919,179.53321 L 500.88919,36.543745 L 546.10781,36.537585 C 581.84882,36.532715 591.23577,36.793415 590.89393,37.781425 C 590.65606,38.468925 581.02736,73.006425 569.49682,114.53142 C 514.39371,312.97448 495.21121,379.61562 489.80897,391.3717 C 480.63257,411.34093 465.21213,425.21693 446.89457,429.98803 C 439.24302,431.98103 422.60657,431.99953 415.02025,430.02353 C 404.4554,427.27173 398.41237,423.63433 389.34856,414.57133 C 382.26931,407.49273 380.00963,404.40583 376.14254,396.53142 C 369.82036,383.65771 363.7264,362.66102 324.91613,220.03142 C 315.78699,186.48142 308.06581,158.35642 307.75794,157.53142 C 307.45008,156.70642 298.03019,189.51145 286.82487,230.43148 C 262.19695,320.3687 249.22366,366.83033 245.19231,379.53142 C 236.47842,406.98523 220.63449,424.56123 199.74485,429.94723 C 192.21172,431.88953 173.97076,431.92413 166.99725,430.00943 z M 635.38919,292.03142 L 635.38919,155.53142 L 677.88919,155.53142 L 720.38919,155.53142 L 720.38919,292.03142 L 720.38919,428.53143 L 677.88919,428.53143 L 635.38919,428.53143 L 635.38919,292.03142 z M 806.38919,292.03142 L 806.38919,155.53142 L 848.88919,155.53142 L 891.38919,155.53142 L 891.38919,292.03142 L 891.38919,428.53143 L 848.88919,428.53143 L 806.38919,428.53143 L 806.38919,292.03142 z M 923.38919,415.03143 L 923.38919,401.53143 L 918.38919,401.53143 C 913.72252,401.53143 913.38919,401.36473 913.38919,399.03142 L 913.38919,396.53142 L 926.38919,396.53142 L 939.38919,396.53142 L 939.38919,399.03142 C 939.38919,401.36473 939.05586,401.53143 934.38919,401.53143 L 929.38919,401.53143 L 929.38919,415.03143 L 929.38919,428.53143 L 926.38919,428.53143 L 923.38919,428.53143 L 923.38919,415.03143 z M 941.38919,412.53143 L 941.38919,396.53142 L 945.84625,396.53142 L 950.3033,396.53142 L 953.34625,406.39223 C 955.01987,411.81573 956.38919,416.85573 956.38919,417.59223 C 956.38919,420.71423 958.34278,416.41373 961.30027,406.78143 L 964.44741,396.53142 L 968.91831,396.53142 L 973.38921,396.53142 L 973.38921,412.53143 L 973.38921,428.53143 L 970.38921,428.53143 L 967.38921,428.53143 L 967.31031,417.28143 C 967.22491,405.11893 967.27431,405.09043 962.86577,419.83893 C 960.23521,428.63933 960.2305,428.64623 957.09155,428.33893 C 954.01227,428.03753 953.89,427.82343 950.91961,417.53143 L 947.88919,407.03143 L 947.60536,417.78143 L 947.32153,428.53143 L 944.35536,428.53143 L 941.38919,428.53143 L 941.38919,412.53143 z M 665.88919,108.42761 C 646.62812,104.5251 630.67898,88.035525 627.4079,68.642365 C 623.42279,45.015955 639.17722,21.249625 662.92415,15.064335 C 675.04317,11.907735 690.56644,13.547125 701.6264,19.151625 C 708.25028,22.508205 718.31464,32.141135 721.70407,38.368635 C 733.34444,59.755825 726.44893,87.659125 706.33347,100.56718 C 695.1802,107.72421 678.45804,110.97419 665.88919,108.42761 z M 836.88919,108.42761 C 811.94619,103.37388 794.29101,78.516825 798.31934,54.124385 C 801.40933,35.413775 815.61053,19.834425 833.92415,15.064335 C 846.03206,11.910625 861.5668,13.547305 872.60205,19.139285 C 879.24974,22.507925 888.62989,31.460845 892.38135,38.017715 C 904.42947,59.075645 897.57198,87.580165 877.33347,100.56718 C 866.1802,107.72421 849.45804,110.97419 836.88919,108.42761 z "
     style="fill:#999999"
     id="path1372" />
  <path
     d=""
     style="fill:#000000"
     id="path1363" />
</svg>
