<?xml version="1.0" standalone="no"?>
<!DOCTYPE svg PUBLIC "-//W3C//DTD SVG 20010904//EN"
 "http://www.w3.org/TR/2001/REC-SVG-20010904/DTD/svg10.dtd">
<svg version="1.0" xmlns="http://www.w3.org/2000/svg"
 width="1000.000000pt" height="400.000000pt" viewBox="0 0 1000.000000 400.000000"
 preserveAspectRatio="xMidYMid meet">
<metadata>
Created by potrace 1.13, written by Peter Selinger 2001-2015
</metadata>
<g transform="translate(0.000000,400.000000) scale(0.100000,-0.100000)"
fill="#000000" stroke="none">
<path d="M2630 3340 l0 -210 220 0 220 0 0 210 0 210 -220 0 -220 0 0 -210z"/>
<path d="M6590 3410 l-205 -97 -3 -1136 -2 -1137 210 0 210 0 0 278 0 277 108
115 c85 89 110 111 118 100 5 -8 104 -184 220 -390 l211 -375 238 -3 c211 -2
237 -1 231 13 -3 9 -141 256 -306 551 -165 294 -300 536 -300 539 0 3 123 162
273 353 151 192 277 354 281 360 5 9 -49 12 -232 12 l-239 0 -293 -342 c-160
-189 -296 -344 -301 -346 -5 -2 -10 264 -11 661 l-3 665 -205 -98z"/>
<path d="M1425 3293 c-206 -26 -343 -89 -472 -216 l-63 -61 0 122 0 122 -205
0 -205 0 0 -1115 0 -1115 205 0 205 0 0 653 c0 629 1 655 21 727 55 199 187
365 354 444 67 32 171 63 180 54 3 -2 -26 -26 -63 -53 -169 -124 -292 -285
-292 -383 0 -41 46 -107 97 -140 62 -40 109 -90 171 -182 84 -125 140 -170
212 -170 28 0 34 5 55 55 15 32 29 91 35 141 5 48 11 89 14 91 5 5 12 -30 21
-102 6 -47 11 -55 96 -135 58 -56 92 -97 98 -118 6 -18 8 -118 5 -225 -3 -106
-2 -286 3 -401 8 -189 11 -210 29 -223 47 -35 272 -79 337 -66 l27 5 0 229 c0
126 2 229 5 229 3 0 27 -15 53 -34 68 -49 174 -98 186 -86 6 6 -15 36 -60 82
-69 72 -112 123 -170 203 -32 44 -33 45 84 -48 86 -70 162 -115 162 -97 0 6
-28 43 -63 83 -69 79 -126 160 -176 248 -25 44 -31 67 -30 110 1 98 1 121 0
442 -1 367 -9 425 -73 557 -33 69 -58 102 -127 170 -103 102 -187 150 -327
186 -93 23 -227 30 -329 17z m627 -1276 c124 -244 259 -445 399 -592 39 -41
69 -75 65 -75 -4 0 -22 7 -42 15 -56 23 -143 96 -259 217 -179 186 -296 366
-294 453 0 30 2 35 8 20 7 -16 9 -12 15 20 10 50 13 55 34 55 12 0 35 -36 74
-113z m309 -312 c39 -55 93 -124 118 -154 l46 -55 -44 25 c-72 40 -179 145
-191 187 -10 36 -14 110 -6 101 2 -2 37 -49 77 -104z"/>
<path d="M2630 1993 c-1 -494 -5 -929 -10 -967 -7 -57 -14 -74 -41 -102 -44
-46 -86 -58 -181 -51 -74 5 -78 4 -83 -16 -17 -69 -73 -363 -70 -365 10 -10
125 -34 218 -44 186 -21 302 7 433 105 69 51 114 109 137 179 31 90 37 290 37
1229 l0 929 -220 0 -220 0 0 -897z"/>
<path d="M5415 2864 c-33 -7 -116 -21 -185 -29 -69 -9 -131 -23 -139 -30 -11
-11 -9 -30 13 -121 58 -247 61 -292 61 -991 0 -353 4 -645 8 -650 5 -4 97 -9
206 -11 165 -3 200 -1 210 12 10 11 10 105 0 448 -13 447 -6 659 23 753 17 54
83 118 144 139 68 24 178 30 314 17 90 -8 117 -8 127 2 15 16 30 128 39 293 7
132 7 132 -17 145 -17 10 -59 14 -139 13 -165 -1 -238 -26 -421 -140 -47 -30
-91 -54 -98 -54 -16 0 -27 34 -35 108 -9 76 -21 112 -38 111 -7 -1 -40 -7 -73
-15z"/>
<path d="M8012 2198 c4 -667 4 -685 26 -761 12 -43 34 -101 49 -129 53 -97
199 -204 332 -245 60 -18 232 -17 306 2 33 8 102 36 154 61 77 38 110 62 178
129 l83 82 0 -124 0 -123 190 0 190 0 0 895 0 895 -204 0 -204 0 -5 -557 c-5
-579 -9 -649 -48 -731 -29 -59 -98 -125 -167 -159 -51 -25 -67 -28 -162 -28
-118 0 -157 14 -217 77 -76 79 -82 143 -83 851 l0 547 -211 0 -210 0 3 -682z"/>
<path d="M3965 2839 c-76 -11 -215 -54 -280 -86 -207 -105 -355 -289 -432
-540 -25 -82 -27 -100 -27 -273 1 -168 3 -194 27 -284 68 -256 205 -424 432
-532 158 -75 223 -89 425 -89 197 0 251 10 379 71 152 71 301 207 384 349 131
224 162 543 76 800 -137 410 -537 648 -984 584z m298 -389 c119 -45 225 -163
268 -298 29 -91 37 -269 15 -369 -43 -207 -181 -349 -369 -384 -225 -42 -445
119 -502 366 -21 87 -21 271 0 348 46 177 167 308 324 353 67 19 193 12 264
-16z"/>
</g>
</svg>
