<?xml version="1.0" encoding="UTF-8" standalone="no"?>
<svg width="1025px" height="156px" viewBox="0 0 1025 156" version="1.1" xmlns="http://www.w3.org/2000/svg" xmlns:xlink="http://www.w3.org/1999/xlink">
    <!-- Generator: Sketch 3.6.1 (26313) - http://www.bohemiancoding.com/sketch -->
    <title>Nobly Logo - white background</title>
    <desc>Created with Sketch.</desc>
    <defs></defs>
    <g id="Nobly-Logo" stroke="none" stroke-width="1" fill="none" fill-rule="evenodd">
        <g id="Nobly-Logo---white-background">
            <g id="logo-white" transform="translate(9.000000, 5.000000)">
                <g id="N-+-nobly">
                    <g id="N" fill="#46B548">
                        <path d="M359.429251,0.671076412 L315.823833,0.671076412 C304.38511,0.691860465 294.984097,5.12925581 289.19326,16.2902924 L243.721674,105.017415 L255.214978,127.996784 C259.789427,136.814419 264.098767,141.30897 271.332115,142.836598 C280.436828,141.379116 290.446035,137.614605 294.841145,130.875375 C295.436344,129.966073 296.028943,129.020399 296.577357,127.996784 C296.577357,127.996784 296.577357,127.98899 296.603348,127.96301 L296.577357,127.96301 L352.414229,16.2902924 C358.199868,5.12925581 356.154361,0.691860465 367.567093,0.671076412 L359.429251,0.671076412 L359.429251,0.671076412 Z M285.497313,136.263641 C285.97815,136.032419 286.495374,135.824578 286.958018,135.582963 C287.145154,135.502425 287.321894,135.437475 287.506432,135.359535 C286.835859,135.6661 286.165286,136.009037 285.497313,136.263641 L285.497313,136.263641 Z" id="Fill-4"></path>
                        <path d="M98.7922026,1.12053156 C89.1598678,2.29483056 77.8329075,6.06453821 73.1051101,13.3415548 C72.5099119,14.2534551 71.8965198,15.1913355 71.3585022,16.2331362 C71.3585022,16.2331362 71.3455066,16.2435282 71.3455066,16.2747043 L15.5112335,127.942226 C9.72559471,139.113654 11.7814978,143.530266 0.347973568,143.55105 L52.125022,143.55105 C63.5611454,143.530266 72.9517621,139.113654 78.7244053,127.942226 L123.949075,39.7165183 L112.237445,16.2902924 C107.44467,7.00761462 105.760441,2.4247309 98.7922026,1.12053156 L98.7922026,1.12053156 Z M80.8011013,8.71190698 C80.6269604,8.78984718 80.4606167,8.84440532 80.2968722,8.91974751 C81.01163,8.59239867 81.7237885,8.2130897 82.4515419,7.95588704 C81.9031278,8.2130897 81.3079295,8.43911628 80.8011013,8.71190698 L80.8011013,8.71190698 Z" id="Fill-5"></path>
                        <path d="M243.82304,127.996784 L187.988767,16.2902924 C182.200529,5.12925581 165.623348,0.691860465 154.184626,0.671076412 L105.609692,0.671076412 C117.043216,0.691860465 118.189427,5.12925581 123.959471,16.2902924 L179.785947,127.96301 L179.80674,127.98899 C185.58978,139.113654 202.172159,143.55105 213.58489,143.55105 L266.110485,143.55105 C254.70815,143.55105 249.595683,139.113654 243.82304,127.996784" id="Fill-6"></path>
                    </g>
                    <g id="nobly" transform="translate(403.000000, 8.000000)" fill="#1C1F23">
                        <path d="M107.731762,132.516578 L13.9607489,31.6983322 L13.9607489,132.129475 L0.013876652,132.129475 L0.013876652,1.46013289 L93.4574009,101.356086 L93.4574009,0.958717608 L107.731762,0.958717608" id="Fill-7"></path>
                        <path d="M280.10793,65.7036412 C280.10793,84.0949302 273.654317,99.7635083 260.710705,112.701581 C247.769692,125.655243 232.122996,132.129475 213.749824,132.129475 C195.14533,132.129475 179.145154,125.878671 165.775286,113.377063 C152.392423,100.872857 145.697093,85.557608 145.697093,67.3845515 C145.697093,48.9932625 152.1637,33.3350764 165.104714,20.3762193 C178.03533,7.43035216 193.695022,0.958717608 212.065595,0.958717608 C230.672687,0.958717608 246.646872,7.20692359 260.029736,19.7059336 C273.435991,32.2153355 280.10793,47.5487708 280.10793,65.7036412 L280.10793,65.7036412 Z M264.658767,65.3581063 C264.658767,51.1054419 259.512511,39.058485 249.209604,29.1912558 C238.8963,19.3292226 226.514097,14.398206 212.065595,14.398206 C197.851013,14.398206 185.798899,19.5526512 175.948238,29.8589435 C166.094978,40.206804 161.146256,52.5915017 161.146256,67.0546047 C161.146256,81.2968771 166.282115,93.3152558 176.517445,103.125329 C186.765771,112.956186 199.179163,117.840439 213.749824,117.840439 C227.987797,117.840439 240.006123,112.691189 249.880176,102.379701 C259.733436,92.0604186 264.658767,79.719887 264.658767,65.3581063 L264.658767,65.3581063 Z" id="Fill-8"></path>
                        <path d="M387.500925,51.2431362 C384.249427,56.9197807 379.376079,60.7128704 372.886079,62.5938272 C380.387137,64.046113 386.24815,67.7612625 390.43533,73.7158937 C394.640705,79.6627309 396.74859,86.3863721 396.74859,93.9153953 C396.74859,99.5244917 395.649163,104.743887 393.460705,109.565787 C391.274846,114.400678 388.007753,118.500332 383.654229,121.864751 C380.958943,123.561249 377.98815,124.974565 374.734053,126.164452 C371.479956,127.343947 368.181674,128.209083 364.805419,128.770252 L320.295507,128.770252 L320.295507,4.48421262 L358.934009,4.99601993 C367.906167,4.99601993 375.573568,8.22534219 381.959604,14.6839867 C388.337841,21.1374352 391.52696,28.5287641 391.52696,36.8865515 C391.52696,41.773402 390.185815,46.5693223 387.500925,51.2431362 L387.500925,51.2431362 Z M375.911454,33.7455615 C374.669075,28.5209701 371.898414,24.4966578 367.599471,21.6648306 C363.277137,18.8278073 358.318018,17.4066977 352.724714,17.4066977 L334.580264,17.4066977 L334.580264,59.0657342 L357.759207,59.0657342 C363.586432,58.1746179 368.127093,55.844206 371.381189,52.0744983 C374.611894,48.2995947 376.233744,43.6205847 376.233744,38.0686445 C376.233744,37.4113488 376.176564,36.6241528 376.077797,35.7512226 C375.968634,34.8523123 375.911454,34.1924186 375.911454,33.7455615 L375.911454,33.7455615 Z M372.537797,75.7345449 C370.536476,74.3861794 368.293436,73.2846246 365.83207,72.4272824 C363.365507,71.5907243 360.948326,71.1646512 358.60652,71.1646512 L334.580264,71.1646512 L334.580264,117.019468 L361.626696,116.668738 C367.677445,115.878944 372.439031,113.335495 375.911454,109.04099 C379.376079,104.720505 381.125286,99.6959601 381.125286,93.9153953 C381.125286,90.2911761 380.410529,86.9605316 379.014802,83.8948837 C377.619075,80.8344319 375.472203,78.135103 372.537797,75.7345449 L372.537797,75.7345449 Z" id="Fill-9"></path>
                        <path d="M482.514317,128.770252 L436.452731,128.770252 L436.452731,4.48421262 L451.91489,4.48421262 L451.91489,115.338558 L482.514317,115.338558 L482.514317,128.770252" id="Fill-10"></path>
                        <path d="M601.517577,4.48421262 L560.693216,73.0040399 L560.693216,128.770252 L545.563744,128.770252 L545.563744,73.0144319 L503.382643,4.48421262 L521.922159,4.46342857 L553.854934,59.8581262 L584.288018,4.52837874 L601.517577,4.48421262" id="Fill-11"></path>
                    </g>
                </g>
            </g>
        </g>
    </g>
</svg>