<?xml version="1.0" encoding="utf-8"?>
<!-- Generator: Adobe Illustrator 16.0.0, SVG Export Plug-In . SVG Version: 6.00 Build 0)  -->
<!DOCTYPE svg PUBLIC "-//W3C//DTD SVG 1.1//EN" "http://www.w3.org/Graphics/SVG/1.1/DTD/svg11.dtd">
<svg version="1.1" id="Layer_1" xmlns="http://www.w3.org/2000/svg" xmlns:xlink="http://www.w3.org/1999/xlink" x="0px" y="0px"
	 width="549.808px" height="549.904px" viewBox="0 0 549.808 549.904" enable-background="new 0 0 549.808 549.904"
	 xml:space="preserve">
<g>
	<path fill-rule="evenodd" clip-rule="evenodd" d="M274.911,515.831C147.77,516.852,37.544,415.413,33.741,282.839
		C29.814,145.973,136.571,41.741,260.546,35.2c141.972-7.49,251.036,103.543,254.777,232.759
		C519.279,404.541,409.423,516.097,274.911,515.831z M44.749,270.399c-0.923,13.552,0.821,30.214,4.237,46.713
		c0.272,1.312,1.978,3.022,3.271,3.28c2.382,0.474,4.973,0.183,7.441-0.1c12.731-1.455,24.12-6.605,35.349-12.491
		c13.209-6.923,26.938-12.321,42.409-10.093c11.568,1.667,21.732,6.991,31.952,12.177c11.466,5.819,23.063,11.482,36.376,10.594
		c11.886-0.792,22.594-5.566,33.319-10.491c10.052-4.617,20.31-9.346,30.986-11.903c13.644-3.268,26.619,1.412,38.845,7.659
		c11.068,5.656,21.983,11.852,34.546,13.442c5.979,0.757,12.574,1.835,18.071,0.128c11.312-3.511,22.254-8.413,33.015-13.452
		c12.737-5.965,25.827-11.113,39.841-7.707c10.677,2.595,20.696,7.838,31.075,11.724c9.745,3.649,19.538,7.177,29.401,10.488
		c2.082,0.698,4.535,0.764,5.197-2.771c5.962-31.8,5.904-63.414-1.407-95.079c-8.37-36.244-25.438-67.966-49.075-96.264
		c-19.75-23.645-43.731-42.227-71.176-56.198c-26.662-13.573-55.007-21.209-84.819-23.983c-22.26-2.072-44.213-0.167-66.035,3.719
		c-19.266,3.431-37.419,10.54-54.87,19.198c-42.311,20.993-75.154,52.312-98.602,93.177
		C55.513,194.55,45.091,229.454,44.749,270.399z M495.77,339.431c-3.87-0.842-7.28-1.089-10.279-2.328
		c-10.111-4.177-20.203-8.443-30.069-13.162c-15.21-7.275-30.782-11.069-47.133-4.796c-9.112,3.497-17.847,8.023-26.619,12.355
		c-15.522,7.665-31.539,10.95-48.155,4.455c-10.348-4.044-20.232-9.267-30.347-13.913c-13.44-6.174-27.317-8.444-41.495-3.115
		c-8.354,3.141-16.425,7.082-24.478,10.965c-13.682,6.597-27.688,12.38-43.119,8.235c-9.218-2.476-17.952-6.768-26.875-10.314
		c-8.916-3.545-17.559-8.042-26.749-10.568c-14.041-3.859-27.194,0.718-39.834,6.818c-13.137,6.34-25.794,13.974-40.841,15.206
		c-1.919,0.157-3.821,0.518-6.342,0.869c0.965,2.976,1.737,5.482,2.588,7.963c2.774,8.085,3.009,8.691,11.111,5.715
		c11.944-4.386,23.703-9.377,35.228-14.778c15.963-7.479,32.103-9.795,48.694-2.92c8.879,3.68,17.389,8.25,26.084,12.378
		c13.47,6.395,27.5,9.682,41.995,4.552c9.49-3.359,18.612-7.88,27.638-12.4c16.764-8.396,33.897-12.08,51.89-4.612
		c9.18,3.809,18.027,8.42,27.02,12.678c13.019,6.164,26.557,9.238,40.593,4.527c8.44-2.833,16.52-6.827,24.58-10.68
		c9.615-4.597,19.19-9.219,29.955-10.359c13.091-1.388,24.858,2.955,36.393,8.498c8.816,4.238,17.696,8.399,26.782,12.003
		c5.422,2.149,7.82,2.335,8.9-4.221C493.361,345.584,494.658,342.823,495.77,339.431z M483.655,371.968
		c-13.711-6.207-26.596-12.712-39.986-17.912c-13.19-5.123-26.728-4.294-39.724,1.567c-7.563,3.411-15.04,7.024-22.474,10.711
		c-15.332,7.604-31.186,10.779-47.648,4.482c-9.125-3.49-17.916-7.915-26.688-12.26c-15.041-7.449-30.563-10.652-46.703-4.592
		c-9.141,3.433-17.871,8.004-26.663,12.315c-15.351,7.528-31.178,10.907-47.673,4.624c-9.125-3.476-17.937-7.853-26.668-12.262
		c-16.703-8.435-33.659-10.82-51.228-3.027c-13.889,6.16-27.712,12.47-41.775,18.807c1.342,2.588,3.13,5.567,4.469,8.738
		c1.558,3.691,3.887,3.942,7.105,2.381c8.064-3.912,16.166-7.748,24.247-11.624c13.936-6.686,28.489-9.948,43.441-4.687
		c10.608,3.732,20.746,8.878,30.919,13.756c13.819,6.626,28.081,9.958,42.928,4.736c9.198-3.234,17.995-7.703,26.766-12.035
		c14.865-7.341,30.193-12.144,46.591-6.609c9.706,3.276,18.932,8.027,28.258,12.361c11.402,5.299,22.903,9.949,35.876,8.49
		c11.108-1.251,21.014-5.896,30.785-10.928c11.385-5.863,22.796-11.757,36.006-12.112c17.988-0.484,33.003,7.72,47.74,16.641
		c1.472,0.891,2.905,1.843,4.675,2.97C478.861,381.351,481.163,376.845,483.655,371.968z M467.366,400.934
		c-0.601-0.69-0.932-1.345-1.461-1.636c-3.49-1.913-7.021-3.749-10.541-5.607c-18.235-9.623-36.68-10.856-55.508-1.631
		c-9.077,4.449-18.158,8.947-27.495,12.796c-11.541,4.758-23.643,6-35.507,1.528c-10.211-3.849-20.148-8.494-29.995-13.228
		c-15.315-7.363-31.02-10.34-47.294-4.118c-8.81,3.367-17.259,7.734-25.716,11.96c-15.311,7.649-31.121,10.96-47.593,4.714
		c-9.271-3.516-18.193-8.024-27.076-12.479c-18.445-9.249-36.918-10.224-55.629-0.979c-6.909,3.414-13.81,6.843-20.75,10.283
		c0.625,1.209,0.803,1.681,1.084,2.081c6.686,9.511,6.719,9.574,17.067,4.637c14.391-6.868,29.368-10.634,44.879-5.209
		c10.755,3.762,20.973,9.108,31.312,14c15.209,7.194,30.687,9.854,46.672,2.959c9.118-3.933,18.041-8.324,27.01-12.597
		c13.684-6.518,27.992-9.458,42.565-4.426c10.778,3.722,21.016,9.062,31.378,13.927c13.488,6.334,27.453,9.938,41.934,4.761
		c10.742-3.842,21.068-8.94,31.349-13.95c16.965-8.267,33.93-9.529,51.469-1.835C460.392,411.656,460.506,411.394,467.366,400.934z
		 M448.966,425.712c-12.343-5.548-24.394-7.334-36.178-3.346c-12.029,4.071-23.426,10.03-35.052,15.27
		c-14.532,6.549-29.426,8.552-44.524,2.604c-8.932-3.518-17.522-7.932-26.145-12.188c-14.889-7.348-30.271-10.391-46.291-4.631
		c-7.931,2.852-15.734,6.362-23.07,10.505c-22.396,12.646-44.403,12.578-66.907,0.13c-8.658-4.79-17.92-8.88-27.375-11.746
		c-14.121-4.28-27.785-1.362-41.998,6.005c2.851,2.568,5.432,4.255,7.146,6.582c2.718,3.689,5.879,4.255,9.977,3.054
		c10.129-2.97,20.225-2.114,29.829,1.765c9.813,3.964,19.341,8.653,28.889,13.244c15.566,7.483,31.439,9.534,47.662,2.583
		c8.838-3.787,17.367-8.291,26.083-12.366c12.48-5.836,25.521-9.51,39.072-5.054c10.642,3.499,20.982,8.09,31.119,12.906
		c14.456,6.87,29.091,12.009,45.097,6.585c8.13-2.754,16.104-6.198,23.747-10.116c14.402-7.383,28.847-13.782,45.648-10.05
		c0.795,0.176,2.037-0.316,2.657-0.922C441.759,433.203,445.036,429.748,448.966,425.712z M415.653,457.311
		c-0.213-0.371-0.425-0.741-0.638-1.111c-0.746,0.177-1.542,0.243-2.231,0.548c-10.138,4.492-20.39,8.751-30.357,13.593
		c-15.509,7.531-31.422,11.391-48.102,4.921c-10.802-4.188-21.128-9.596-31.711-14.36c-12.991-5.85-26.498-8.186-40.114-3.046
		c-10.976,4.143-21.521,9.442-32.197,14.36c-14.14,6.515-28.72,8.915-43.53,3.173c-10.797-4.187-21.112-9.609-31.698-14.357
		c-6.979-3.13-14.13-5.712-22.998-5.397c1.584,1.487,2.329,2.322,3.204,2.986c17.168,13.042,36.033,22.973,55.792,31.54
		c11.715,5.08,22.739,3.904,33.759-0.729c9.779-4.112,19.172-9.133,28.85-13.501c14.772-6.669,29.918-7.629,45.013-1.378
		c11.021,4.564,21.634,10.108,32.646,14.696c6.837,2.849,13.907,5.56,21.66,2.596c16.018-6.127,31.409-13.486,45.787-22.856
		C404.513,465.255,410.037,461.212,415.653,457.311z M315.732,501.416c-27.44-15.918-60.329-15.331-75.664,0.98
		C252.269,506.892,295.276,506.412,315.732,501.416z"/>
</g>
<g>
	<path fill="#010101" d="M191.967,128.275h8.851V180.7h-9.601l-29.7-38.25v38.25h-8.85v-52.425h8.85l30.45,39.15V128.275z"/>
	<path fill="#010101" d="M259.243,173.462c-5.301,5.175-11.851,7.763-19.65,7.763s-14.351-2.588-19.65-7.763
		s-7.949-11.625-7.949-19.35c0-7.726,2.649-14.176,7.949-19.351S231.792,127,239.592,127s14.35,2.588,19.65,7.763
		c5.299,5.175,7.949,11.625,7.949,19.351C267.192,161.837,264.542,168.288,259.243,173.462z M252.754,140.65
		c-3.575-3.699-7.963-5.55-13.162-5.55c-5.201,0-9.588,1.851-13.162,5.55c-3.576,3.701-5.363,8.188-5.363,13.463
		s1.787,9.763,5.363,13.462c3.574,3.701,7.961,5.55,13.162,5.55c5.199,0,9.587-1.849,13.162-5.55
		c3.574-3.699,5.363-8.187,5.363-13.462S256.329,144.351,252.754,140.65z"/>
	<path fill="#010101" d="M322.242,173.462c-5.301,5.175-11.85,7.763-19.649,7.763c-7.801,0-14.352-2.588-19.65-7.763
		c-5.301-5.175-7.95-11.625-7.95-19.35c0-7.726,2.649-14.176,7.95-19.351c5.299-5.175,11.85-7.763,19.65-7.763
		c7.8,0,14.349,2.588,19.649,7.763c5.3,5.175,7.95,11.625,7.95,19.351C330.192,161.837,327.542,168.288,322.242,173.462z
		 M315.754,140.65c-3.575-3.699-7.963-5.55-13.162-5.55c-5.201,0-9.589,1.851-13.163,5.55c-3.575,3.701-5.362,8.188-5.362,13.463
		s1.787,9.763,5.362,13.462c3.574,3.701,7.962,5.55,13.163,5.55c5.199,0,9.587-1.849,13.162-5.55
		c3.574-3.699,5.362-8.187,5.362-13.462S319.329,144.351,315.754,140.65z"/>
	<path fill="#010101" d="M380.667,128.275h8.85V180.7h-9.6l-29.7-38.25v38.25h-8.85v-52.425h8.85l30.45,39.15V128.275z"/>
	<path fill="#010101" d="M160.469,212.85c3.648,3.05,5.475,7.751,5.475,14.1c0,6.351-1.863,11.001-5.588,13.95
		c-3.725,2.951-9.438,4.425-17.137,4.425h-9.301V260.7h-8.85v-52.425h18C151.019,208.275,156.819,209.8,160.469,212.85z
		 M154.207,234.488c1.774-1.875,2.662-4.625,2.662-8.25s-1.125-6.188-3.375-7.688s-5.774-2.25-10.575-2.25h-9v21h10.275
		C149.093,237.3,152.431,236.363,154.207,234.488z"/>
	<path fill="#010101" d="M180.944,248.775l-5.25,11.925h-9.45l23.1-52.425h9.45l23.101,52.425h-9.45l-5.25-11.925H180.944z
		 M203.593,240.6L194.069,219l-9.525,21.601H203.593z"/>
	<path fill="#010101" d="M253.092,252.675c3.05,0,5.675-0.513,7.875-1.538c2.2-1.024,4.5-2.662,6.9-4.912l5.7,5.85
		c-5.55,6.15-12.288,9.226-20.213,9.226s-14.501-2.551-19.725-7.65c-5.226-5.1-7.838-11.55-7.838-19.35
		c0-7.801,2.663-14.3,7.987-19.5c5.325-5.2,12.05-7.801,20.176-7.801c8.124,0,14.912,3,20.362,9l-5.625,6.15
		c-2.501-2.4-4.863-4.074-7.088-5.025c-2.226-0.949-4.837-1.425-7.837-1.425c-5.301,0-9.75,1.714-13.351,5.138
		c-3.6,3.426-5.399,7.8-5.399,13.125s1.787,9.775,5.362,13.35C243.955,250.888,248.192,252.675,253.092,252.675z"/>
	<path fill="#010101" d="M284.367,208.275h8.851V260.7h-8.851V208.275z"/>
	<path fill="#010101" d="M316.617,216.525v14.4h23.25v8.175h-23.25v21.6h-8.85v-52.425h34.949l-0.074,8.25H316.617z"/>
	<path fill="#010101" d="M353.066,208.275h8.85V260.7h-8.85V208.275z"/>
	<path fill="#010101" d="M400.39,252.675c3.05,0,5.675-0.513,7.875-1.538c2.2-1.024,4.5-2.662,6.9-4.912l5.7,5.85
		c-5.55,6.15-12.288,9.226-20.213,9.226s-14.501-2.551-19.725-7.65c-5.226-5.1-7.838-11.55-7.838-19.35
		c0-7.801,2.663-14.3,7.987-19.5c5.325-5.2,12.05-7.801,20.176-7.801c8.124,0,14.912,3,20.362,9l-5.625,6.15
		c-2.501-2.4-4.863-4.074-7.088-5.025c-2.226-0.949-4.837-1.425-7.837-1.425c-5.301,0-9.75,1.714-13.351,5.138
		c-3.6,3.426-5.399,7.8-5.399,13.125s1.787,9.775,5.362,13.35C391.252,250.888,395.49,252.675,400.39,252.675z"/>
</g>
</svg>
