<?xml version="1.0" encoding="utf-8"?>
<!-- Generator: Adobe Illustrator 17.0.0, SVG Export Plug-In . SVG Version: 6.00 Build 0)  -->
<!DOCTYPE svg PUBLIC "-//W3C//DTD SVG 1.1//EN" "http://www.w3.org/Graphics/SVG/1.1/DTD/svg11.dtd">
<svg version="1.1" id="Layer_1" xmlns="http://www.w3.org/2000/svg" xmlns:xlink="http://www.w3.org/1999/xlink" x="0px" y="0px"
	 width="540.537px" height="115.147px" viewBox="0 0 540.537 115.147" enable-background="new 0 0 540.537 115.147"
	 xml:space="preserve">
<g>
	<g>
		<g>
			<path fill="#005284" d="M78.215,85.64c0,17.373,14.906,29.508,36.243,29.508c21.336,0,36.237-12.135,36.237-29.508
				c0-17.374-14.901-29.506-36.237-29.506C93.121,56.134,78.215,68.266,78.215,85.64z M93.084,85.642
				c0-10.254,8.59-17.145,21.375-17.145c12.784,0,21.375,6.891,21.375,17.145c0,10.252-8.59,17.142-21.375,17.142
				C101.673,102.783,93.084,95.894,93.084,85.642z"/>
			<path fill="#005284" d="M171.26,62.002c0-1.22,0-4.414,0-4.414h-14.304v56.061h14.436V83.805c0-5.104,0.579-10.299,7.471-12.821
				c2.283-0.838,4.57-1.209,7.419-1.202l2.07,0.004V56.121C188.352,56.121,179.034,56.121,171.26,62.002z"/>
			<path fill="#005284" d="M247.17,36.976c0,0,0,22.525,0,24.973c-5.646-3.737-13.513-5.884-21.904-5.884
				c-21.338,0-36.24,12.131-36.24,29.506c0,17.372,14.902,29.502,36.24,29.502c8.371,0,15.879-1.892,21.91-5.378
				c0,1.268,0,3.929,0,3.929h14.323v-28.22c0,0.012,0.001-0.118,0.001-0.118v-48.31H247.17z M203.892,85.642
				c0-10.254,8.591-17.145,21.374-17.145c12.785,0,21.373,6.891,21.373,17.145c0,10.252-8.588,17.142-21.373,17.142
				C212.483,102.783,203.892,95.894,203.892,85.642z"/>
			<path fill="#005284" d="M345.593,85.611c0,17.65,14.455,29.508,35.965,29.508c8.742,0,16.696-1.538,22.169-5.353
				c0,1.505,0.008,3.912,0.008,3.912h14.329V85.912c0-17.829-14.56-29.808-36.233-29.808
				C360.493,56.105,345.593,68.24,345.593,85.611z M360.452,85.611c0-10.253,8.592-17.141,21.378-17.141
				c12.784,0,21.374,6.888,21.374,17.141c0,10.252-8.59,17.141-21.374,17.141C369.044,102.752,360.452,95.863,360.452,85.611z"/>
			<path fill="#005284" d="M340.378,91.214c-1.821,9.029-7.942,15.315-14.814,19.081c-6.242,3.417-13.076,4.839-21.201,4.826
				c-22.223-0.027-36.126-13.512-36.123-29.177c0-17.641,15.31-29.975,36.123-29.832c27.655,0.182,35.963,17.334,36.577,28.079
				c0,0.022-53.142,11.533-53.909,11.697c3.761,4.388,9.728,6.763,17.332,6.867c9.03,0.123,15.685-3.434,18.784-7.812
				L340.378,91.214z M283.425,84.167c1.788-0.387,37.277-8.078,39.214-8.499c-3.113-4.094-9.429-7.258-18.271-7.324
				C292.198,68.677,284.022,75.126,283.425,84.167z"/>
		</g>
		<path fill="#005284" d="M58.255,113.64l13.877,0.13V44.65H57.768v47.231L14.228,44.616H0c0,2.33,0.019,69.191,0.019,69.191h14.359
			l-0.013-46.242L58.255,113.64z"/>
	</g>
	<g>
		<path fill="#005284" d="M445.177,38.891c5.637,20.503,2.744,38.748-5.227,48.953c38.686-12.427,82.225-54.08,74.225-76.397
			c-4.661-13.001-38.086-14.591-85.271-3.789C435.892,15.159,441.638,26.017,445.177,38.891z"/>
		<path fill="#005284" d="M518.398,30.254c4.632-9.545,5.669-18.071,3.119-25.322c-0.654-1.848-1.578-3.458-2.709-4.931
			c13.059,1.86,24.68,21.283,21.058,43.264c-2.777,16.864-9.249,31.605-16.349,40.36c-9.08-4.49-28.195-5.579-49.616-2.117
			c-4.853,0.785-8.713,1.566-13.108,2.678C485.276,71.299,509.004,49.61,518.398,30.254z"/>
	</g>
</g>
</svg>
