<?xml version="1.0" encoding="UTF-8" standalone="no"?>
<svg width="493px" height="119px" viewBox="0 0 493 119" version="1.1" xmlns="http://www.w3.org/2000/svg" xmlns:xlink="http://www.w3.org/1999/xlink" xmlns:sketch="http://www.bohemiancoding.com/sketch/ns">
    <!-- Generator: Sketch 3.3.3 (12081) - http://www.bohemiancoding.com/sketch -->
    <title>logo-horizontal</title>
    <desc>Created with Sketch.</desc>
    <defs></defs>
    <g id="Page-1" stroke="none" stroke-width="1" fill="none" fill-rule="evenodd" sketch:type="MSPage">
        <g id="logo-horizontal" sketch:type="MSLayerGroup">
            <path d="M446.223,95.609 L446.223,80.397 L419.159,107.46 C416.324,110.295 412.556,111.856 408.548,111.856 C404.539,111.856 400.77,110.294 397.936,107.458 L386.081,95.604 C380.23,89.753 380.23,80.232 386.081,74.382 L413.684,46.78 L397.387,46.78 C384.492,46.78 374.001,36.287 374.001,23.39 C374.001,10.493 384.492,0.001 397.387,0.001 L477.995,0 C486.269,0 493,6.727 493,14.994 L493,95.609 C493,108.507 482.508,119 469.611,119 C456.715,119 446.223,108.507 446.223,95.609 Z M437.826,36.78 L397.386,36.78 C389.994,36.78 384.001,30.787 384.001,23.39 C384.001,15.996 389.993,10.001 397.386,10.001 L461.126,10.001 C461.16,10 461.194,10 461.228,10 L477.995,10 C480.759,10 483,12.23 483,14.994 L483,95.61 C483,103.005 477.007,109 469.611,109 C462.217,109 456.222,103.012 456.222,95.61 L456.222,56.254 L412.088,100.389 C410.133,102.344 406.966,102.346 405.009,100.389 L393.152,88.532 C391.197,86.578 391.2,83.406 393.152,81.453 L437.826,36.78 Z" id="arrow" fill="#CE0686" sketch:type="MSShapeGroup"></path>
            <g id="typography" transform="translate(0.000000, 16.000000)" fill="#FFFFFF" sketch:type="MSShapeGroup">
                <path d="M322.827,77.971 C334.431,77.971 342.359,69.022 342.359,57.947 C342.359,46.865 334.431,37.767 322.827,37.767 C311.231,37.767 303.295,46.865 303.295,57.947 C303.295,69.022 311.231,77.971 322.827,77.971 L322.827,77.971 Z M322.827,19.555 C345.262,19.555 362.199,36.701 362.199,57.947 C362.199,79.186 345.262,96.182 322.827,96.182 C300.393,96.182 283.456,79.186 283.456,57.947 C283.456,36.701 300.393,19.555 322.827,19.555 L322.827,19.555 Z" id="o"></path>
                <path d="M279.892,94.661 C277.297,95.571 271.349,96.182 267.531,96.182 C255.627,96.182 246.926,92.237 241.893,85.562 C238.075,80.551 236.395,74.026 236.395,63.555 L236.395,0.591 L256.235,0.591 L256.235,21.077 L280.657,21.077 L280.657,37.767 L256.235,37.767 L256.235,65.837 C256.235,70.386 257,73.116 258.68,75.092 C260.66,77.367 263.87,78.731 268.753,78.731 C271.649,78.731 275.467,78.277 276.839,77.971 L279.892,94.661 L279.892,94.661 Z" id="t"></path>
                <path d="M195.263,79.492 C200.604,79.492 204.722,76.912 204.722,73.265 C204.722,62.191 168.861,66.136 168.861,42.465 C168.861,28.356 182.595,19.555 197.244,19.555 C206.859,19.555 217.39,23.195 222.273,26.991 L212.965,41.257 C209.147,38.527 204.114,36.246 198.774,36.246 C193.276,36.246 188.7,38.371 188.7,42.167 C188.7,51.72 224.561,47.932 224.561,73.422 C224.561,87.531 210.677,96.182 195.113,96.182 C184.882,96.182 174.051,92.692 165.35,86.316 L174.966,72.206 C179.999,76.755 187.785,79.492 195.263,79.492 L195.263,79.492 Z" id="s"></path>
                <path d="M122.467,77.971 C134.063,77.971 141.999,69.022 141.999,57.947 C141.999,46.865 134.063,37.767 122.467,37.767 C110.87,37.767 102.934,46.865 102.934,57.947 C102.934,69.022 110.87,77.971 122.467,77.971 L122.467,77.971 Z M122.467,19.555 C144.901,19.555 161.838,36.701 161.838,57.947 C161.838,79.186 144.901,96.182 122.467,96.182 C100.032,96.182 83.095,79.186 83.095,57.947 C83.095,36.701 100.032,19.555 122.467,19.555 L122.467,19.555 Z" id="o"></path>
                <path d="M0.532,94.661 L0.532,21.077 L19.614,21.077 L19.614,26.991 C25.255,22.441 32.275,19.555 40.519,19.555 C50.742,19.555 60.051,24.112 66.156,31.391 C71.039,37.155 73.785,44.591 73.785,57.186 L73.785,94.661 L53.945,94.661 L53.945,55.665 C53.945,48.386 52.265,44.591 49.52,41.861 C46.924,39.281 42.956,37.767 38.381,37.767 C29.988,37.767 23.124,43.077 20.372,46.865 L20.372,94.661 L0.532,94.661 L0.532,94.661 Z" id="n"></path>
            </g>
        </g>
    </g>
</svg>