<?xml version="1.0" encoding="utf-8"?>
<!-- Generator: Adobe Illustrator 18.1.1, SVG Export Plug-In . SVG Version: 6.00 Build 0)  -->
<svg version="1.1"
	 id="svg2199" xmlns:dc="http://purl.org/dc/elements/1.1/" xmlns:cc="http://creativecommons.org/ns#" xmlns:rdf="http://www.w3.org/1999/02/22-rdf-syntax-ns#" xmlns:svg="http://www.w3.org/2000/svg" xmlns:sodipodi="http://sodipodi.sourceforge.net/DTD/sodipodi-0.dtd" xmlns:inkscape="http://www.inkscape.org/namespaces/inkscape" sodipodi:docname="AJAX.svg" inkscape:version="0.48.2 r9819"
	 xmlns="http://www.w3.org/2000/svg" xmlns:xlink="http://www.w3.org/1999/xlink" x="0px" y="0px"
	 viewBox="-171.8 222.2 1469.8 512" enable-background="new -171.8 222.2 1469.8 512" xml:space="preserve">
<sodipodi:namedview  inkscape:cy="-10.705596" inkscape:cx="61.159167" inkscape:zoom="2.8007501" fit-margin-top="0" fit-margin-left="0" showgrid="false" guidetolerance="10" gridtolerance="10" objecttolerance="10" borderopacity="1" pagecolor="#ffffff" bordercolor="#666666" id="namedview19" inkscape:current-layer="layer1" inkscape:window-maximized="1" inkscape:window-y="-8" inkscape:window-x="-8" fit-margin-right="0" fit-margin-bottom="0" inkscape:window-height="1004" inkscape:window-width="1280" inkscape:pageshadow="2" inkscape:pageopacity="0" showguides="true" inkscape:guide-bbox="true">
	</sodipodi:namedview>
<g id="layer1" transform="translate(-146.23819,-345.87978)">
	<g id="g8" transform="translate(144.41879,344.04288)">
		<path id="path10" inkscape:connector-curvature="0" fill="#FFFFFF" d="M-170,736h1469.8V224H-170V736z"/>
	</g>
	<g id="g12" transform="translate(146.23819,345.87978)">
		<path id="path14" inkscape:connector-curvature="0" fill="#FF330D" d="M-155.4,717.8h479v-479h-479V717.8z"/>
	</g>
	<g id="g16" transform="translate(199.22839,345.87978)">
		<path id="path18" inkscape:connector-curvature="0" d="M270.7,717.8h479v-479h-479V717.8z"/>
	</g>
	<g id="g20" transform="translate(252.21819,345.87978)">
		<path id="path22" inkscape:connector-curvature="0" fill="#3366CC" d="M696.7,717.8h479v-479h-479V717.8z"/>
	</g>
	<g id="g24" transform="translate(160.40909,358.27038)">
		<path id="path26" inkscape:connector-curvature="0" fill="#FFFFFF" d="M116.5,588.1V446.7c0-20.8-4-36.1-12.1-45.7
			c-8-9.6-21.1-14.4-39.3-14.4c-8.4,0-17.4,2.4-27,7.1c-9.6,4.7-17,10.6-22.4,17.6v176.8h-57.3V342.5h41.3l10.5,22.9
			c15.6-18,38.6-27,69-27c29.2,0,52.2,8.7,69.1,26.2c16.9,17.5,25.3,41.8,25.3,73.1v150.4H116.5z"/>
	</g>
	<g id="g28" transform="translate(213.43539,358.27038)">
		<path id="path30" inkscape:connector-curvature="0" fill="#FFFFFF" d="M478.7,387.4c26.3,0,45.2,5.9,56.7,17.7
			c11.4,11.8,17.1,32.2,17.1,61.1c0,27.1-5.7,47-17.3,59.5c-11.5,12.6-30.4,18.9-56.8,18.9c-13.9,0-26-4.2-36.3-12.6V403.4
			C452.8,392.7,465,387.4,478.7,387.4z M491.4,592.9c37.5,0,67-10.8,88.6-32.5c21.6-21.7,32.5-52.6,32.5-92.8
			c0-86.1-39.1-129.2-117.4-129.2c-20.9,0-38.6,6.9-53,20.6v-16.5h-57.2V684h57.2V582.1C457,589.3,473.4,592.9,491.4,592.9z"/>
	</g>
	<g id="g32" transform="translate(270.08519,358.27038)">
		<path id="path34" inkscape:connector-curvature="0" fill="#FFFFFF" d="M981.7,396.3c-10.2-6.4-21.4-9.7-33.5-9.7
			c-13.2,0-25,6-35.2,18c-10.3,12-15.4,26.7-15.4,44.1v139.3h-57.3V342.5h57.3V366c15.9-18.4,37.2-27.6,63.6-27.6
			c19.5,0,34.4,3,44.7,8.9C1005.9,347.3,981.7,396.3,981.7,396.3z"/>
	</g>
</g>
</svg>
