<?xml version="1.0" encoding="utf-8"?><!-- Generator: Adobe Illustrator 16.0.0, SVG Export Plug-In . SVG Version: 6.00 Build 0) --><!DOCTYPE svg PUBLIC "-//W3C//DTD SVG 1.1//EN" "http://www.w3.org/Graphics/SVG/1.1/DTD/svg11.dtd"><svg version="1.1" id="Layer_1" xmlns="http://www.w3.org/2000/svg" xmlns:xlink="http://www.w3.org/1999/xlink" x="0px" y="0px" width="703.199px" height="245.275px" viewBox="0.001 0 703.199 245.275" enable-background="new 0.001 0 703.199 245.275" xml:space="preserve"><path d="M113.543,0c65.747,0,81.102,64.754,71.882,122.608c-9.234,57.888-45.363,122.667-111.11,122.667	S-6.795,180.497,2.46,122.608C11.721,64.754,47.796,0,113.543,0z M83.853,185.453c24.492,0,33.121-48.092,35.5-62.844	c2.376-14.754,9.103-62.86-15.344-62.86c-24.495,0-33.105,48.106-35.476,62.86C66.157,137.361,59.404,185.453,83.853,185.453z"/><path d="M219.582,4.064h76.224c38.093,0,79.994,16.361,71.773,67.62c-4.277,26.68-25.075,47.466-52.388,47.466l-0.1,0.655	c31.334,2.533,45.086,21.962,40,53.763c-4.685,29.232-28.622,67.59-86.399,67.59h-87.026L219.582,4.064z M260.078,189.893	c14.286,0,28.07-6.904,30.665-22.936c2.559-16.044-8.791-22.639-23.709-22.639h-5.1l-7.297,45.572h5.44V189.893z M273.458,96.229	c13.312,0,26.586-5.353,29.033-20.776c2.276-14.181-6.615-20.127-19.975-20.127h-6.342l-6.514,40.903H273.458z"/><path d="M397.407,4.064h120.379l-8.979,55.951H453.25l-5.276,33.048h49.884l-8.974,55.948h-49.858l-5.73,36.173h55.527	l-8.979,55.975H359.491L397.407,4.064z"/><path d="M544.569,241.158l16.105-100.648L523.419,4.064h67.314l10.556,73.263h0.627l34.257-73.263h67.026l-77.766,136.445	l-16.061,100.648L544.569,241.158L544.569,241.158z"/><path d="M677.215,234.114c-4.703,4.709-10.355,7.044-17.025,7.044c-6.627,0-12.286-2.335-16.951-7.044	c-4.644-4.683-6.96-10.349-6.96-17.015c0-6.582,2.338-12.231,7.021-16.925c4.671-4.655,10.308-6.974,16.892-6.974	c6.67,0,12.322,2.318,17.025,6.974c4.688,4.683,7.024,10.312,7.024,16.925C684.24,223.734,681.902,229.417,677.215,234.114z M645.601,202.559c-4.025,4.016-6.032,8.873-6.032,14.572c0,5.747,1.985,10.633,6.003,14.686c4.035,4.031,8.922,6.049,14.661,6.049	c5.752,0,10.645-2.018,14.669-6.049c4.021-4.053,6.048-8.938,6.048-14.686c0-5.699-2.027-10.558-6.048-14.572	c-4.044-4.047-8.931-6.069-14.669-6.069C654.525,196.489,649.65,198.512,645.601,202.559z M659.767,203.807	c3.277,0,5.68,0.313,7.211,0.959c2.715,1.129,4.09,3.362,4.09,6.666c0,2.368-0.869,4.106-2.58,5.204	c-0.921,0.587-2.178,1.017-3.814,1.271c2.05,0.334,3.528,1.188,4.493,2.594c0.931,1.389,1.406,2.768,1.406,4.085v1.926	c0,0.619,0.017,1.265,0.051,1.966c0.064,0.709,0.139,1.166,0.254,1.371l0.19,0.334h-4.418c-0.024-0.087-0.043-0.173-0.067-0.265	c-0.006-0.08-0.039-0.183-0.062-0.301l-0.104-0.845v-2.072c0-3.057-0.837-5.063-2.497-6.055c-0.986-0.56-2.695-0.845-5.182-0.845	h-3.665v10.38h-4.524v-26.373H659.767z M664.755,208.085c-1.173-0.651-3.064-0.979-5.666-0.979h-4.016v9.401h4.237	c1.986,0,3.49-0.184,4.485-0.581c1.823-0.705,2.744-2.066,2.744-4.042C666.541,209.98,665.951,208.73,664.755,208.085z"/></svg>