<?xml version="1.0" encoding="utf-8"?><!-- Generator: Adobe Illustrator 16.0.0, SVG Export Plug-In . SVG Version: 6.00 Build 0) --><!DOCTYPE svg PUBLIC "-//W3C//DTD SVG 1.1//EN" "http://www.w3.org/Graphics/SVG/1.1/DTD/svg11.dtd"><svg version="1.1" id="Layer_1" xmlns="http://www.w3.org/2000/svg" xmlns:xlink="http://www.w3.org/1999/xlink" x="0px" y="0px" width="944.831px" height="336.135px" viewBox="76.348 78.461 944.831 336.135" enable-background="new 76.348 78.461 944.831 336.135" xml:space="preserve"><path fill="#221E1F" stroke="#221E1F" stroke-width="0.0938" d="M219,81c21.1-3.6,42.9-3.3,64,0.9c10.4,1.8,20,6.8,29,12	c10.2,6.1,20.6,11.7,31.1,17.1c25.3,16.8,46,40.8,57.8,69c6.7,15.6,10.7,32.3,12.4,49.2c4,22.2,1.8,45.2-5.5,66.5	c-5.8,21.1-19.1,38.7-29.8,57.398c-1.5,2.5-3.6,4.7-5.5,7C358.7,376.7,342.4,391.7,322.2,400c0.9-1.2,1.4-2.5,1.6-3.9	c-2.3,0.5-4.6,1.102-6.9,1.802c1.3-1.7,3.3-2.602,5.1-3.802c6.6-4.3,12.9-9,18.9-14.1c1-0.9,2.4-1.4,2.8-2.8c-2.4,1-3.9,3.3-6.1,4.7	C305.9,404.8,266.2,417.4,227,414c-40.4-3.3-78.9-22.9-105.9-53.1c-18.7-20.7-32.3-46-39.2-73c-8.2-31-7.3-64.4,3.1-94.8	c6-17.6,14.8-34.3,26.6-48.7c18.5-23.1,42.2-42.5,69.5-54.2C193.7,86.9,206.1,83.1,219,81 M221,90.5c-28.7,5.1-55.7,18.7-77.6,37.9	c-23.5,20.5-41.3,47.5-50.7,77.2c-3.4,16.9-7,34.1-6.8,51.4c3.6,25.7,11.4,51.3,26,73c10,15,23.3,27.7,38.3,37.5	c0.8,0.5,1.7,0.9,2.5,1.2c-8.8-6.2-16.3-13.9-24-21.4c-25-25.3-39-60.8-38.9-96.3c-0.2-30.4,9.4-60.7,26.4-85.9	c7.3-7.5,12.2-16.9,19.2-24.8c23.1-22.1,52.5-37.2,83.4-45c33.7-5,68.8,0.7,99.5,15.4c29,13.8,54.2,35.9,70.4,63.7	c12.4,21,19.2,45.2,19.8,69.5c0.4-8.9,1.2-18.1-1.4-26.8c-3.2-13.2-6.2-26.7-12.4-38.8c-11.1-18.6-22.5-37.6-38.8-52.1	c-12.4-11-26.9-19.5-42.3-25.6c-13.4-3.6-26.9-6.8-40.4-10.2C256,87.3,238.2,87.5,221,90.5 M225,114.1c-26.2,6.4-50.3,19.9-70.9,37	c-5.9,5.6-11.5,11.7-14.7,19.3c-0.7,1.7-1.1,3.6-2.2,5.2c0.3,0,0.8-0.1,1.1-0.2c5.7-7.9,11.7-15.6,18.9-22.2	c20.3-18.9,47.3-29.9,74.7-32.2c30.9-2.8,62.5,4.9,88.7,21.2c9,5.1,17.4,11.2,24.6,18.7c12.8,13.2,22,29.9,27.3,47.5	c5.6,16.2,10.2,33.4,8,50.7c-2.9,18.301-3.3,37.4-10.8,54.7c-6.4,9.9-12.3,20.102-18.9,29.8c-21.5,24.4-49.1,44.4-80.9,52.2	c-3,0.3-5.7,2-8.8,1.7c3.1,0.7,5.9-1.1,9-1.1c30.8-5.7,59.5-21.602,80.9-44.4c20-21.3,33.5-49,37.1-78.1c0.1-12,0-23.9,0-35.9	c0.4-6.8-1.5-13.4-3.1-20c-8.3-31.5-28.3-59.3-54.2-78.8c-7.6-5.6-15.4-11.1-24.2-14.7C281.1,113.4,252.5,110.8,225,114.1 M184.4,200.5c-12.3,15.5-18.2,36-15.6,55.6c1.5,11.801,6.1,22.9,12.3,32.9c-0.8-0.6-2.4-1.9-3.2-2.5c-1.9-0.7-1.9,1.5-1,2.5	c4.8,9.4,12.7,16.8,21.1,23.1c7.3,4,14.2,8.802,22,11.9c9.3,3.3,19.1,5.5,29,4.7c11.4-1.102,23-3.102,33.3-8.4	c10.7-5.2,19.7-13.5,27.6-22.3c5.6-5.7,6.2-14.1,10.4-20.6c4.7-7.9,5.6-17.4,5.7-26.4c0.2-9.7-1.8-19.3-4.6-28.5	c-1.4-6.4-5-12-8.5-17.4c-11.3-15.9-27.7-28.6-46.9-33.1C236.3,164.4,203.1,176.4,184.4,200.5z"/><path fill="#221E1F" stroke="#221E1F" stroke-width="0.0938" d="M908.5,145.1c26.8,47.9,53.4,96.1,80.1,144.1	c10.802,19.6,21.9,39,32.5,58.7C1003.4,347.8,985.8,348.1,968.2,347.8c-19.7-36-39.9-71.7-59.602-107.7	c-14.8,25.2-28.898,50.8-43.3,76.1c-5.898,10.5-12,20.898-17.7,31.5c-17.398,0.3-34.8,0.1-52.198,0.2	C806.3,328.3,817.3,308.7,828.2,289.1C854.9,241.1,881.8,193.1,908.5,145.1z"/><path fill="#221E1F" stroke="#221E1F" stroke-width="0.0938" d="M699.5,146.6c15-0.3,29.9-0.4,44.9,0c-0.2,41.4-0.2,82.7-0.2,124.1	c-0.2,10.1,0,20.1-0.102,30.2c19.4,0.1,38.802,0,58.2,0.1c-8.7,15.6-18,31.1-26.7,46.8c-25.398,0.2-50.8,0.102-76.3,0	C699.4,315.9,699.4,283.9,699.5,252C699.4,216.8,699.7,181.7,699.5,146.6z"/><path fill="#221E1F" stroke="#221E1F" stroke-width="0.0938" d="M499.5,192.4c17.8-28,50.2-46,83.5-46c32.7-0.6,65,16.1,83.6,43	c12.7,18.1,19.102,40.5,18,62.6c-1.3,32.4-19.6,63.4-47.198,80.4C616.2,345.9,589.7,350.8,565,346c-32-5.9-60.2-28.4-73.1-58.2	C478.2,257.4,481.1,220.2,499.5,192.4 M572.5,194.6c-14.8,3.2-28.1,13.1-35.4,26.4c-6.8,12-8.6,26.7-4.898,40	c3.6,13.7,12.898,25.7,25.1,32.7s27.2,8.898,40.7,5.2c13.7-3.7,25.7-13,32.7-25.301c6.898-12.101,8.8-27,5.1-40.5	c-3.7-13.8-13.2-26-25.8-33C598.7,193.8,585.1,191.9,572.5,194.6z"/><path fill="#D7DF20" stroke="#D7DF20" stroke-width="0.0938" d="M184.4,200.5c18.7-24.1,51.9-36.1,81.6-28.5	c19.2,4.5,35.6,17.2,46.9,33.1c3.5,5.4,7.1,11,8.5,17.4c2.8,9.2,4.8,18.8,4.6,28.5c-0.1,9-1,18.5-5.7,26.4	c-4.2,6.5-4.8,14.898-10.4,20.6c-7.9,8.8-16.9,17.1-27.6,22.3c-10.3,5.3-21.9,7.3-33.3,8.4c-9.9,0.8-19.7-1.4-29-4.7	c-7.8-3.1-14.7-7.9-22-11.9c-8.4-6.3-16.3-13.698-21.1-23.1c-0.9-1-0.9-3.2,1-2.5c0.8,0.6,2.4,1.9,3.2,2.5	c-6.2-10-10.8-21.1-12.3-32.9C166.2,236.5,172.1,216,184.4,200.5 M220.9,180.1c-1,0.4-2.1,0.9-2.9,1.7c21.9-9.4,48.3-7,68.1,6.2	c5.2,4.8,12,7.9,15.7,14.1c7.3,10,13.7,20.9,16.8,32.9c4.9,28.2-7.5,58.5-30.7,75.2c-6.2,4.898-13.6,7.898-20.9,10.8	c-5.4,2-11.4,1.7-16.9,3.4c3.6,0.1,7.3,1.8,10.9,0.698c6.4-1.698,13-3.198,19-6.3c10.7-6.5,21.6-13.6,28.6-24.3	c1.1-1.899,2.9-3.601,3.1-5.899l0.5-0.899c0.1-0.101,0.3-0.4,0.4-0.601c4.2-5.899,4.8-13.301,6.6-20.199c4.2-15,2.4-31.3-3.7-45.5	c-7.9-18.1-22.9-32.8-40.9-40.8c-9.9-4.6-20.9-5.8-31.6-6.3C235.3,174.7,228,177.3,220.9,180.1 M275.3,196.2	c5.8,5.1,11.2,10.5,15.9,16.5c8.9,11.3,15.7,25.5,14,40.2c-0.9,11-7.1,20.5-12.9,29.5c-5.2,7.8-11,15.5-18.5,21.398	c-3.7,3-8.5,4.2-12.8,6.3c-4,1.9-7.7,4.4-12,5.5c6.3,1.302,12.5-1.1,18.3-3.1c15.6-6.1,28.4-18.2,36.3-32.8	c6-12.602,7.3-27,5.6-40.7c-3.1-12.4-9.6-23.7-17.9-33.4c-3.4-3.4-7.2-7-12.2-7.4C277.7,197.7,276.6,196.8,275.3,196.2 M178.1,265.9	C185,293.6,211,315.8,239.8,316.5c-7.4-2.4-14.5-5.5-21.5-8.8c-6.9-4.7-14.7-8.3-20.7-14.4c-9.1-8.899-17.3-19.6-20.2-32.2	C177,262.7,177.6,264.3,178.1,265.9z"/><path fill="#AEAF85" stroke="#AEAF85" stroke-width="0.0938" d="M312.2,287.7c0.1-0.101,0.3-0.4,0.4-0.601	C312.5,287.3,312.3,287.6,312.2,287.7z"/><path fill="#221E1F" stroke="#221E1F" stroke-width="0.0938" d="M267,321c18.2-4.8,34.5-16.5,44.7-32.4c-0.2,2.301-2,4-3.1,5.9	c-7,10.7-17.9,17.8-28.6,24.3c-6,3.102-12.6,4.602-19,6.3c-3.6,1.102-7.3-0.6-10.9-0.698C255.6,322.7,261.6,323,267,321z"/></svg>