<svg id="Layer_1" data-name="Layer 1" xmlns="http://www.w3.org/2000/svg" viewBox="0 0 806.35 716.36"><defs><style>.cls-1{fill:#2d2d2d;}</style></defs><title>Otenteko-Logo</title><path class="cls-1" d="M202.7,842.65h-8.28V838.7h21.14v3.94h-8.28v21.28H202.7V842.65Z" transform="translate(-97.61 -148)"/><path class="cls-1" d="M220,851.82h10.7v3.94H220v-3.94Z" transform="translate(-97.61 -148)"/><path class="cls-1" d="M239.83,857.47a10.11,10.11,0,0,0,6.29,2.67c1.92,0,3.66-1,3.66-3.06,0-4.51-11.9-3.73-11.9-11.48,0-4.19,3.62-7.32,8.46-7.32a10.73,10.73,0,0,1,7.53,2.7l-2,3.73a9.21,9.21,0,0,0-5.58-2.2c-2.13,0-3.8,1.24-3.8,3,0,4.48,11.87,3.38,11.87,11.44,0,4-3.06,7.39-8.31,7.39a12.21,12.21,0,0,1-8.71-3.45Z" transform="translate(-97.61 -148)"/><path class="cls-1" d="M262.5,838.7h4.58v10.7h11.55V838.7h4.58v25.23h-4.58V853.34H267.08v10.59H262.5V838.7Z" transform="translate(-97.61 -148)"/><path class="cls-1" d="M293.16,838.7h4.58v25.23h-4.58V838.7Z" transform="translate(-97.61 -148)"/><path class="cls-1" d="M307.69,838.7h8.14c2.74,0,4,.21,5.08.71a7.13,7.13,0,0,1,4.12,6.89,7.26,7.26,0,0,1-4.26,6.89v0.07a6.16,6.16,0,0,1,.85,1.24l5.19,9.42h-5.12l-5-9.42h-4.41v9.42h-4.58V838.7Zm8.71,11.83a3.66,3.66,0,0,0,4-4c0-2.42-1-3.91-4.62-3.91h-3.48v7.89h4.12Z" transform="translate(-97.61 -148)"/><path class="cls-1" d="M339.85,842.65h-8.28V838.7h21.14v3.94h-8.28v21.28h-4.58V842.65Z" transform="translate(-97.61 -148)"/><path class="cls-1" d="M360.17,857.47a10.11,10.11,0,0,0,6.29,2.67c1.92,0,3.66-1,3.66-3.06,0-4.51-11.9-3.73-11.9-11.48,0-4.19,3.62-7.32,8.46-7.32a10.73,10.73,0,0,1,7.53,2.7l-2,3.73a9.21,9.21,0,0,0-5.58-2.2c-2.13,0-3.8,1.24-3.8,3,0,4.48,11.87,3.38,11.87,11.44,0,4-3.06,7.39-8.31,7.39a12.21,12.21,0,0,1-8.71-3.45Z" transform="translate(-97.61 -148)"/><path class="cls-1" d="M396.31,838.7h4.9l4.94,12.47c0.57,1.49,1.28,3.7,1.28,3.7h0.07s0.68-2.2,1.24-3.7l4.94-12.47h4.9l2,25.23h-4.55L415,849.83c-0.11-1.67,0-3.91,0-3.91h-0.07s-0.75,2.45-1.35,3.91l-4.09,9.77h-4l-4.05-9.77c-0.6-1.46-1.39-3.94-1.39-3.94h-0.07s0.07,2.27,0,3.94l-1.07,14.11h-4.58Z" transform="translate(-97.61 -148)"/><path class="cls-1" d="M442.32,857.47h-8.85l-2.13,6.47h-4.73l8.88-25.23h4.8l8.88,25.23h-4.73Zm-4.44-14.39s-0.57,2.49-1.07,3.91l-2.24,6.75h6.61L438.94,847c-0.46-1.42-1-3.91-1-3.91h-0.07Z" transform="translate(-97.61 -148)"/><path class="cls-1" d="M456,838.7h8.6c7.78,0,12.86,4.62,12.86,12.58s-5.08,12.65-12.86,12.65H456V838.7ZM464.31,860c5.12,0,8.39-3,8.39-8.71s-3.34-8.63-8.39-8.63h-3.77V860h3.77Z" transform="translate(-97.61 -148)"/><path class="cls-1" d="M485.77,838.7h15.1v3.94H490.36v6.61h8.49v3.94h-8.49V860h11.09v3.94H485.77V838.7Z" transform="translate(-97.61 -148)"/><path class="cls-1" d="M542.34,856.15a19.93,19.93,0,0,1,.46,2.66h0.07a22.32,22.32,0,0,1,.43-2.66l4.16-17.45h4.73l-6.5,25.23h-5.29L536.51,849a30.08,30.08,0,0,1-.64-3.3H535.8a30.08,30.08,0,0,1-.64,3.3l-3.87,14.92H526l-6.32-25.23h4.73l4,17.45a22.32,22.32,0,0,1,.43,2.66h0.07a19.93,19.93,0,0,1,.46-2.66l4.55-17.45h4Z" transform="translate(-97.61 -148)"/><path class="cls-1" d="M559.82,838.7h4.58v25.23h-4.58V838.7Z" transform="translate(-97.61 -148)"/><path class="cls-1" d="M579.57,842.65H571.3V838.7h21.14v3.94h-8.28v21.28h-4.58V842.65Z" transform="translate(-97.61 -148)"/><path class="cls-1" d="M599.33,838.7h4.58v10.7h11.55V838.7H620v25.23h-4.58V853.34H603.91v10.59h-4.58V838.7Z" transform="translate(-97.61 -148)"/><path class="cls-1" d="M642.18,838.7h9.74c4.73,0,8,3.3,8,8.21s-3.3,8.31-8,8.31h-5.15v8.71h-4.58V838.7Zm8.88,12.54a4,4,0,0,0,4.23-4.33,3.91,3.91,0,0,0-4.16-4.26h-4.37v8.6h4.3Z" transform="translate(-97.61 -148)"/><path class="cls-1" d="M679.35,857.47H670.5l-2.13,6.47h-4.73l8.88-25.23h4.8l8.88,25.23h-4.73Zm-4.44-14.39s-0.57,2.49-1.07,3.91l-2.24,6.75h6.61L676,847c-0.46-1.42-1-3.91-1-3.91H674.9Z" transform="translate(-97.61 -148)"/><path class="cls-1" d="M693.56,857.47a10.11,10.11,0,0,0,6.29,2.67c1.92,0,3.66-1,3.66-3.06,0-4.51-11.9-3.73-11.9-11.48,0-4.19,3.62-7.32,8.46-7.32a10.73,10.73,0,0,1,7.53,2.7l-2,3.73a9.21,9.21,0,0,0-5.58-2.2c-2.13,0-3.8,1.24-3.8,3,0,4.48,11.87,3.38,11.87,11.44,0,4-3.06,7.39-8.31,7.39a12.21,12.21,0,0,1-8.71-3.45Z" transform="translate(-97.61 -148)"/><path class="cls-1" d="M716.79,857.47a10.11,10.11,0,0,0,6.29,2.67c1.92,0,3.66-1,3.66-3.06,0-4.51-11.9-3.73-11.9-11.48,0-4.19,3.62-7.32,8.46-7.32a10.73,10.73,0,0,1,7.53,2.7l-2,3.73a9.21,9.21,0,0,0-5.58-2.2c-2.13,0-3.8,1.24-3.8,3,0,4.48,11.87,3.38,11.87,11.44,0,4-3.06,7.39-8.31,7.39a12.21,12.21,0,0,1-8.71-3.45Z" transform="translate(-97.61 -148)"/><path class="cls-1" d="M739.46,838.7H744v25.23h-4.58V838.7Z" transform="translate(-97.61 -148)"/><path class="cls-1" d="M765.29,838.28a12.74,12.74,0,0,1,13,12.86,13,13,0,1,1-26.08,0A12.74,12.74,0,0,1,765.29,838.28Zm0,21.89c4.62,0,8.31-3.84,8.31-9a8.32,8.32,0,1,0-16.63,0C757,856.33,760.67,860.17,765.29,860.17Z" transform="translate(-97.61 -148)"/><path class="cls-1" d="M786.54,838.7h4.58l9.56,14.57a38.25,38.25,0,0,1,2.1,3.91h0.07s-0.25-2.42-.25-3.91V838.7h4.55v25.23H802.6L793,849.4a38.23,38.23,0,0,1-2.1-3.91h-0.07s0.25,2.42.25,3.91v14.53h-4.58V838.7Z" transform="translate(-97.61 -148)"/><path class="cls-1" d="M583.84,246.44c7.77-1,17.41-7.74,23-11.35q12.11-7.82,23.44-16.77A303.21,303.21,0,0,0,653.45,198c6-5.81,16.12-13.48,18.76-21.47,3.8-11.51-4.16-23-14.61-27.3-12-5-24.76,5.67-32.22,14.18-15.34,17.47-31.25,34.8-45.54,53.16-4.23,5.44-8.78,11.26-7.8,18.6C573.32,244.64,578.06,247.15,583.84,246.44Z" transform="translate(-97.61 -148)"/><path class="cls-1" d="M687.92,253.22c-50.08,9.53-99.4,21.5-148.38,34.66-1-1.24-1.94-2.48-2.87-3.76-19.74-27.1-23.09-59.66-17.26-91.6a26.74,26.74,0,0,0,1.76-9.16,11,11,0,0,0-.45-4.67,18.44,18.44,0,0,0-9-12.35c-8.58-5-23-2.75-27.49,7.21q-32.42,72.58-59.67,146.95c-40.92,12-81.84,24.12-123,35.68-10.94,3.07-17.18,19.41-7.25,27.45q42.73,34.6,86.61,67.73-13.52,45-25.24,90.65c-6.41,25-12.55,50-18.87,75.06-5.28,20.89,19.84,34.71,35.31,20.55,39.06-35.75,76.65-72.82,113.36-110.69,37,25.67,74.67,50.38,114.07,71.86,9.14,5,20.64-8.14,11.68-15.13-34.47-26.9-70.39-51.88-106-77.23,32.27-33.83,63.93-68.23,95.36-102.87a105.08,105.08,0,0,1,10,21.61A132.79,132.79,0,0,1,606,518.72c-4.09,9.51-2.75,20.31,6.83,26,8.66,5.18,21.13,2.15,26-6.83,28.83-52.66,20.92-115.87-12.14-163.35q40-44.41,80.07-88.92C720.25,270.79,706.92,249.6,687.92,253.22Zm-49,49q-19.35,21.26-38.66,42.56c-9.95-9.13-20.59-17.72-30.88-26.64Q604,309.62,639,302.18ZM491,261a129.38,129.38,0,0,0,4.73,15.46,133.38,133.38,0,0,0,10,20.72q-16.24,4.54-32.45,9.18Q482,283.56,491,261ZM340.75,379.66q34.8-9.44,69.48-19.13Q400,390.14,390.55,420,365.47,400.07,340.75,379.66Zm54.78,177.89q10.37-39.82,21.53-79.36,10.28,7.51,20.63,14.93l13.5,9.64Q423.65,530.44,395.53,557.55Zm76-75.39c-4.77-3.49-9.54-7-14.28-10.53q-15.79-11.81-31.38-23.88c10-33.72,20.72-67.24,32.44-100.51q35.5-9.75,71.11-19c7.75,8.38,16.1,16.32,24.65,24.12,7.15,6.53,14.35,13.09,21.17,20q-15,16.38-30,32.66Q508.87,444,471.55,482.16Z" transform="translate(-97.61 -148)"/><path class="cls-1" d="M388.77,754.86H330c2,14,8.89,16.51,19.41,16.51,6.89,0,13.61-2.72,21.95-8.53l14.51,19.59A62.7,62.7,0,0,1,346,796.76c-35.56,0-52.24-22-52.24-51.88,0-28.3,16.14-52.24,48.25-52.24,28.66,0,47.53,18.32,47.53,50.79C389.5,746.51,389.13,751.41,388.77,754.86Zm-34.65-21.59c-0.18-9.8-2.18-18-11.43-18-7.62,0-11.61,4.35-12.88,19.23h24.31v-1.27Z" transform="translate(-97.61 -148)"/><path class="cls-1" d="M496.39,721.66v71.47H460.47V728.19c0-7.62-2.18-9.44-5.44-9.44-3.81,0-8,3.08-12.16,9.61v64.76H407V696.26h31.38l2.54,10c8.89-9.43,17.78-13.61,29.39-13.61C486.41,692.64,496.39,703.16,496.39,721.66Z" transform="translate(-97.61 -148)"/><path class="cls-1" d="M687.5,754.86H628.73c2,14,8.89,16.51,19.41,16.51,6.89,0,13.61-2.72,21.95-8.53l14.51,19.59a62.7,62.7,0,0,1-39.91,14.33c-35.56,0-52.24-22-52.24-51.88,0-28.3,16.14-52.24,48.25-52.24,28.66,0,47.53,18.32,47.53,50.79C688.23,746.51,687.86,751.41,687.5,754.86Zm-34.65-21.59c-0.18-9.8-2.18-18-11.43-18-7.62,0-11.61,4.35-12.88,19.23h24.31v-1.27Z" transform="translate(-97.61 -148)"/><polygon class="cls-1" points="608.08 649.31 608.08 529.42 644 525.79 644 649.31 608.08 649.31"/><polygon class="cls-1" points="703.3 649.31 663.57 649.31 640.35 596.34 666.29 552.44 701.84 552.44 676.27 594.89 703.3 649.31"/><path class="cls-1" d="M800.29,748.74c0-25.78,19.09-48.3,51.74-48.3,32.84,0,51.93,22.53,51.93,48.3s-19.09,48.5-51.93,48.5C819.38,797.24,800.29,774.51,800.29,748.74Zm68.35,0c0-10.12-5.92-17.95-16.61-17.95-10.5,0-16.42,7.83-16.42,17.95,0,10.31,5.92,18.14,16.42,18.14C862.72,766.88,868.64,759.05,868.64,748.74Z" transform="translate(-97.61 -148)"/><path class="cls-1" d="M97.61,748.74c0-25.78,19.09-48.3,51.74-48.3,32.84,0,51.93,22.53,51.93,48.3s-19.09,48.5-51.93,48.5C116.7,797.24,97.61,774.51,97.61,748.74Zm68.35,0c0-10.12-5.92-17.95-16.61-17.95-10.5,0-16.42,7.83-16.42,17.95,0,10.31,5.92,18.14,16.42,18.14C160,766.88,166,759.05,166,748.74Z" transform="translate(-97.61 -148)"/><path class="cls-1" d="M283.82,761.8l-6.9,1.45a19.48,19.48,0,0,1-3.42.27c-9.64,0-14.33-4.21-14.33-12.87v-19.1h23.07V700.45H259.17V670.6L223,674.89v25.56H209.27v31.11h13.13v22.21c0,16.77,6.35,28.93,18.89,36.14,9.86,5.67,21.23,6.86,29,6.86a50.69,50.69,0,0,0,8.86-.69l4.65-.91V761.8Z" transform="translate(-97.61 -148)"/><path class="cls-1" d="M583,761.8l-6.9,1.45a19.48,19.48,0,0,1-3.42.27c-9.64,0-14.33-4.21-14.33-12.87v-19.1H581.4V700.45H558.32V670.6l-36.18,4.29v25.56H508.42v31.11h13.13v22.21c0,16.77,6.35,28.93,18.89,36.14,9.86,5.67,21.23,6.86,29,6.86a50.69,50.69,0,0,0,8.86-.69l4.65-.91V761.8Z" transform="translate(-97.61 -148)"/></svg>