<?xml version="1.0" encoding="utf-8"?>
<!-- Generator: Adobe Illustrator 12.0.0, SVG Export Plug-In  -->
<!DOCTYPE svg PUBLIC "-//W3C//DTD SVG 1.1//EN" "http://www.w3.org/Graphics/SVG/1.1/DTD/svg11.dtd" [
	<!ENTITY ns_flows "http://ns.adobe.com/Flows/1.0/">
	<!ENTITY ns_svg "http://www.w3.org/2000/svg">
	<!ENTITY ns_xlink "http://www.w3.org/1999/xlink">
]>
<svg  version="1.1" xmlns="&ns_svg;" xmlns:xlink="&ns_xlink;" xmlns:a="http://ns.adobe.com/AdobeSVGViewerExtensions/3.0/"
	 width="501" height="501" viewBox="-0.3779297 -0.3779297 501 501" enable-background="new -0.3779297 -0.3779297 501 501"
	 xml:space="preserve">
<defs>
</defs>
<polygon opacity="0" fill-rule="evenodd" clip-rule="evenodd" fill="#FFFFFF" points="0,0 500,0 500,500 0,500 0,0 "/>
<path fill-rule="evenodd" clip-rule="evenodd" fill="#155428" d="M22.0585938,477.8808594L22.0585938,477.8808594
	L22.0585938,477.8808594L22.0585938,477.8808594z M250.0673828,477.7490234
	c125.53125,0,227.8740234-102.3398438,227.8740234-227.8745117c0-125.4179688-102.3427734-227.7587891-227.8740234-227.7587891
	c-125.4741211,0-227.7578125,102.3408203-227.7578125,227.7587891
	C22.3095703,375.4091797,124.5932617,477.7490234,250.0673828,477.7490234L250.0673828,477.7490234z"/>
<path fill-rule="evenodd" clip-rule="evenodd" fill="#FFFFFF" d="M250.0673828,470.3623047
	c-60.6313477,0-115.6098633-24.8046875-155.7036133-64.7275391
	c-39.8642578-40.0341797-64.6713867-95.0693359-64.6713867-155.7602539c0-60.5742188,24.8071289-115.609375,64.6713867-155.6474609
	C134.4575195,54.3056641,189.4360352,29.5,250.0673828,29.5c60.6904297,0,115.8984375,24.8056641,155.7626953,64.7270508
	C445.75,134.2651367,470.5566406,189.300293,470.5566406,249.8745117c0,60.690918-24.8066406,115.7260742-64.7265625,155.7602539
	C365.9658203,445.5576172,310.7578125,470.3623047,250.0673828,470.3623047L250.0673828,470.3623047z"/>
<path fill-rule="evenodd" clip-rule="evenodd" fill="#155428" d="M250.0673828,465.8076172
	c59.4765625,0,113.4765625-24.34375,152.5878906-63.4609375C441.6533203,363.3515625,466,309.2382813,466,249.8745117
	c0-59.2480469-24.3466797-113.3598633-63.3447266-152.3579102c-39.1113281-39.1132813-93.1113281-63.4584961-152.5878906-63.4584961
	c-59.2470703,0-113.1870117,24.3452148-152.3583984,63.4584961
	c-39.1713867,38.9980469-63.4580078,93.1098633-63.4580078,152.3579102c0,59.3637695,24.2866211,113.4770508,63.4580078,152.472168
	C136.8803711,441.4638672,190.8203125,465.8076172,250.0673828,465.8076172L250.0673828,465.8076172z"/>
<polygon fill-rule="evenodd" clip-rule="evenodd" fill="#FFFFFF" points="133.7075195,95.2670898 130.9389648,101.4389648 
	135.9570313,105.9960938 129.1503906,105.246582 126.4389648,111.4199219 124.9379883,104.7851563 118.4199219,104.0356445 
	124.1879883,100.6894531 122.8037109,94.0546875 127.7651367,98.6118164 133.7075195,95.2670898 "/>
<polygon fill-rule="evenodd" clip-rule="evenodd" fill="#FFFFFF" points="118.4199219,113.3803711 115.9960938,121.5727539 
	123.0927734,126.418457 114.4960938,126.7070313 112.2470703,134.8413086 109.1894531,126.9946289 100.7094727,127.168457 
	107.4008789,122.034668 104.5170898,113.8427734 111.6123047,118.6875 118.4199219,113.3803711 "/>
<polygon fill-rule="evenodd" clip-rule="evenodd" fill="#FFFFFF" points="102.2661133,139.859375 101.9204102,150.3022461 
	111.9008789,153.590332 101.8051758,156.7631836 101.8051758,167.0327148 95.574707,158.7250977 85.7675781,161.609375 
	91.9399414,153.4750977 85.9414063,144.706543 95.9204102,148.1669922 102.2661133,139.859375 "/>
<polygon fill-rule="evenodd" clip-rule="evenodd" fill="#FFFFFF" points="90.6137695,172.9741211 93.3242188,187.9160156 
	108.4394531,190.050293 94.8251953,197.262207 97.5366211,212.2607422 86.5175781,201.8193359 73.0751953,208.9160156 
	79.7094727,195.300293 68.6918945,184.4545898 83.9794922,186.5317383 90.6137695,172.9741211 "/>
<polygon fill-rule="evenodd" clip-rule="evenodd" fill="#FFFFFF" points="366.5429688,95.2670898 369.4287109,101.4389648 
	364.2939453,105.9960938 371.1005859,105.246582 373.8134766,111.4199219 375.3105469,104.7851563 381.9443359,104.0356445 
	376.0605469,100.6894531 377.5625,94.0546875 372.4277344,98.6118164 366.5429688,95.2670898 "/>
<polygon fill-rule="evenodd" clip-rule="evenodd" fill="#FFFFFF" points="381.9443359,113.3803711 384.2519531,121.5727539 
	377.1015625,126.418457 385.7519531,126.7070313 388.0039063,134.8413086 391.0029297,126.9946289 399.484375,127.168457 
	392.8496094,122.034668 395.7353516,113.8427734 388.6376953,118.6875 381.9443359,113.3803711 "/>
<polygon fill-rule="evenodd" clip-rule="evenodd" fill="#FFFFFF" points="398.1572266,139.859375 398.2734375,150.3022461 
	388.4648438,153.590332 398.4453125,156.7631836 398.5595703,167.0327148 404.6191406,158.7250977 414.4833984,161.609375 
	408.2519531,153.4750977 414.3105469,144.706543 404.3300781,148.1669922 398.1572266,139.859375 "/>
<polygon fill-rule="evenodd" clip-rule="evenodd" fill="#FFFFFF" points="409.6367188,172.9741211 407.0410156,187.9160156 
	391.8115234,190.050293 405.3691406,197.262207 402.6552734,212.2607422 413.8476563,201.8193359 427.1738281,208.9160156 
	420.4814453,195.300293 431.6757813,184.4545898 416.2714844,186.5317383 409.6367188,172.9741211 "/>
<path fill-rule="evenodd" clip-rule="evenodd" fill="#FFFFFF" d="M174.9550781,281.2568359
	c-0.4609375-0.2890625-1.3842773-0.2890625-1.8452148,0.171875l-72.4003906,95.9414063
	c-0.8662109,1.2109375-0.5776367,2.8828125,0.3457031,3.9765625c12.4023438,13.5576172,25.0947266,25.0380859,39.8632813,35.4794922
	c0.9233398,0.6386719,2.5961914,1.9658203,3.3461914,0.1777344l7.7299805-18.1728516
	c0.4038086-1.0390625,0.1166992-2.5390625-0.75-3.1767578c-7.7299805-5.1328125-14.3642578-11.1308594-20.8833008-17.3623047
	c-0.9233398-0.921875-0.7495117-3.171875,0-4.3828125l56.9975586-82.84375c0.2885742-0.2890625,0-1.0390625-0.4609375-1.2109375
	C182.6279297,287.1435547,178.590332,284.3164063,174.9550781,281.2568359L174.9550781,281.2568359z"/>
<path fill-rule="evenodd" clip-rule="evenodd" fill="#FFFFFF" d="M242.222168,450.4052734
	c1.0371094,0,1.0371094-0.7548828,1.0371094-1.3876953l1.0400391-140.2412109c0-0.4609375-0.5776367-0.921875-1.0400391-0.921875
	c-3.4604492-0.1162109-7.0952148-0.5771484-10.7290039-1.0380859c-0.4614258-0.1777344-1.0385742,0.1113281-1.3847656,0.75
	l-16.9033203,38.9951172c-0.4614258,0.921875-0.75,0.75-0.9223633-0.171875l-1.3271484-43.7890625
	c0-0.6328125-0.1738281-0.921875-0.4614258-0.921875c-4.2124023-1.4990234-8.1918945-3.1708984-12.2299805-5.1318359
	c-0.347168-0.1728516-0.9233398-0.1728516-1.2119141,0.4609375l-50.9394531,122.5341797
	c-0.2900391,0.6328125,0,1.3828125,0.4609375,1.671875c4.9614258,3.1708984,9.9794922,5.8818359,15.1142578,8.6533203
	c0.5776367,0.2880859,1.7885742,0.5771484,2.0771484-0.4609375l31.3251953-87.6884766
	c0.2885742-1.0380859,0.5776367-1.2109375,0.5776367,0.1728516l1.3842773,74.3632813
	c0,3.9208984,0.2885742,3.9208984,1.9604492,0.2832031l29.7685547-66.2265625
	c0.2885742-0.8613281,0.5761719-0.8613281,0.4609375,0.171875l-7.7299805,96.7470703
	c-0.1152344,0.5771484,0.6347656,1.3271484,1.2124023,1.4990234
	C229.9916992,449.6503906,236.1640625,450.1171875,242.222168,450.4052734L242.222168,450.4052734z"/>
<path fill-rule="evenodd" clip-rule="evenodd" fill="#FFFFFF" d="M293.2177734,316.796875
	c-6.3447266,1.9609375-13.265625,3.7490234-22.9580078,5.4208984c-0.4628906,0-1.0410156,0.75-1.0410156,1.3828125
	l0.8662109,36.8632813c0,0.5771484,0.4619141,1.4990234,1.5585938,1.3876953
	c9.171875-1.3876953,18.2871094-3.0595703,27.3457031-5.0205078c1.2099609-0.2890625,1.671875,0,1.9599609,1.671875l2.25,14.4794922
	c0.1748047,0.8105469,0.2880859,1.8486328-0.75,2.1376953c-9.9804688,2.421875-20.0751953,4.3828125-30.2285156,5.8818359
	c-0.75,0.1728516-1.6738281,0.4609375-1.6738281,1.8496094l0.9238281,38.2451172c0,1.9609375,1.2109375,3,2.25,2.8271484
	c11.6523438-0.75,23.3046875-3.9208984,34.6132813-6.8085938c0.7490234-0.1113281,1.8466797-0.4003906,2.1347656,1.2158203
	l3,19.9560547c0.3466797,1.0996094-0.75,2.1376953-2.0771484,2.4267578
	c-19.0371094,5.8818359-37.2099609,9.4033203-57.9208984,9.8642578c-1.4990234,0-2.7109375-0.4609375-2.7109375-1.8496094
	l0.921875-139.3740234c0-0.75,1.328125-1.2158203,2.25-1.2158203c13.3271484-0.8613281,24.5185547-2.7109375,36.1152344-7.0927734
	c1.3857422-0.4609375,1.84375-0.2890625,1.84375,0.34375l2.2519531,14.0185547
	C294.3154297,316.3310547,293.9707031,316.5078125,293.2177734,316.796875L293.2177734,316.796875z"/>
<path fill-rule="evenodd" clip-rule="evenodd" fill="#FFFFFF" d="M322.8710938,436.4990234
	c-0.4609375,0.1162109-1.2109375,0.1162109-1.3828125-0.6337891l-25.0957031-136.7802734
	c-0.1171875-0.2890625,0-0.4609375,0.4609375-0.5771484c3.8076172-1.671875,7.5585938-3.6328125,11.1914063-5.5986328
	c0.2890625-0.171875,1.0380859-0.2890625,1.0380859,0.1162109l34.7880859,131.8203125
	c0.2890625,1.0390625,0.1728516,1.5-0.2890625,1.8496094C336.7763672,430.2675781,330.1416016,433.4433594,322.8710938,436.4990234
	L322.8710938,436.4990234z"/>
<path fill-rule="evenodd" clip-rule="evenodd" fill="#FFFFFF" d="M432.1367188,258.46875
	c-0.9248047,4.5039063-2.1357422,8.7138672-3.4628906,12.9794922c-0.171875,0.2890625-0.4609375,1.0380859-1.3828125,0.75
	l-3.0019531-1.671875c-0.4609375-0.2890625-1.0361328,0.171875-1.3828125,0.4609375l-4.6738281,11.6572266
	c-0.2890625,0.75-0.2890625,1.5,0.75,2.25l20.9990234,14.0742188c0.75,0.4609375,2.1357422,0.5771484,2.5966797-1.2109375
	c4.0966797-16.9619141,5.8847656-33.7470703,5.7099609-50.8823242c0-0.7514648-0.2890625-1.5009766-1.2109375-1.8466797
	l-34.7294922-12.0581055c-1.3828125-0.6342773-3.4599609-0.4609375-4.3828125,1.3276367
	c-3.0595703,5.8842773-5.8837891,10.7304688-8.5966797,15.1152344c-0.4619141,0.4609375-1.2109375,1.3842773-2.421875,0.7495117
	l-17.0761719-8.3071289c-0.8085938-0.4624023-1.3857422-0.8652344-0.8085938-2.2509766l2.7695313-6.0566406
	c0.2880859-0.75,1.3271484-0.5776367,1.9599609-0.2885742l5.8847656,2.2504883
	c0.5771484,0.2875977,1.3271484,0.2875977,1.6748047-0.5776367l2.7099609-7.2685547
	c0.2890625-0.5766602-0.6357422-1.3847656-1.2109375-1.6733398l-22.8466797-7.8452148
	c-0.8632813-0.2890625-1.4990234,0.2875977-1.7880859,0.9233398c-2.59375,7.8452148-5.7675781,15.1142578-9.6914063,22.4980469
	c-0.75,1.3842773-0.1142578,2.4233398,0.6357422,2.9995117l43.2080078,29.1367188
	c0.75,0.4609375,2.1357422,0.4609375,2.8847656-0.9277344c4.3847656-6.9208984,8.4228516-14.0185547,12.4052734-20.9384766
	c0.2861328-0.4628906,0.7470703-0.9238281,1.7880859-0.4628906l11.9414063,5.3056641
	C431.9619141,256.796875,432.3085938,257.3740234,432.1367188,258.46875L432.1367188,258.46875z"/>
<path fill-rule="evenodd" clip-rule="evenodd" fill="#FFFFFF" d="M63.5571289,317.0800781
	c-0.2890625-0.7490234,0.5776367-1.671875,1.2119141-2.1328125l87.3422852-55.3242188
	c0.4609375-0.2880859,1.3842773,0,1.671875,0.3447266c2.5961914,3.0048828,5.1347656,6.0039063,7.8461914,9.0585938
	c0.3457031,0.578125,0.75,1.3271484,0.4609375,1.9609375L98.1713867,375.7539063
	c-0.4624023,0.5771484-1.9619141,0.1162109-2.4228516-0.4609375c-2.5966797-3.3496094-5.1347656-6.5205078-7.3857422-10.1533203
	c-0.4609375-0.5771484-0.3457031-1.6767578,0.1166992-2.2490234l14.9990234-24.0605469
	c0.7495117-1.3271484,0.7495117-2.0771484,0.2871094-3.4599609c-2.5952148-6.8095703-4.8447266-13.4414063-6.9799805-20.25
	c-0.1152344-0.6337891-1.4995117-0.75-2.0771484-0.4609375l-23.8828125,16.0400391
	c-0.6342773,0.2880859-1.8466797,0.1162109-2.1337891-0.4619141
	C66.9033203,326.0224609,65.0566406,321.4677734,63.5571289,317.0800781L63.5571289,317.0800781z M134.9199219,287.8935547
	l-24.8071289,16.6728516c-0.6347656,0.2841797-0.9233398,1.2109375-0.6347656,1.9609375
	c1.2109375,4.3828125,2.5952148,8.4199219,4.2685547,12.2304688c0.2885742,1.0380859,1.2119141,1.671875,1.7880859,0.5771484
	l19.4990234-31.2695313C135.2075195,287.8935547,135.0336914,287.7773438,134.9199219,287.8935547L134.9199219,287.8935547z"/>
<path fill-rule="evenodd" clip-rule="evenodd" fill="#FFFFFF" d="M398.734375,382.3857422
	c-0.4609375,0.4658203-1.2109375,0.9267578-1.7880859,0.1767578l-38.5371094-46.7314453
	c-0.3466797-0.4609375-0.9248047-0.921875-1.5576172-0.4609375l-6.6347656,4.6708984
	c-0.5771484,0.4658203-1.3857422,1.0996094-0.921875,2.3105469l23.8828125,63.2832031c0.34375,0.75,0,1.2109375-0.4609375,1.6767578
	c-6.1738281,4.84375-12.5195313,9.4033203-19.1533203,13.6132813c-0.4609375,0.2890625-1.2109375,0.5771484-1.3857422-0.171875
	l-38.2480469-130.7265625l0.7490234-1.0390625c9.9814453-6.5195313,17.0761719-11.8242188,24.9794922-20.7109375
	c2.8271484-3.1708984,6.1738281-1.09375,7.5595703,1.2109375l25.3818359,41.828125
	c2.4248047,3.8046875,2.25,9.2304688-0.6328125,12.7460938l-0.75,0.8671875l37.9589844,42.171875
	c0.75,0.75,0.578125,1.4990234,0.1142578,1.9599609C405.8300781,373.7929688,402.5419922,377.8310547,398.734375,382.3857422
	L398.734375,382.3857422z M352.0634766,313.4482422l-10.4414063-20.5390625c-0.3476563-0.75-0.9248047-0.921875-1.6748047-0.4609375
	c-2.2490234,1.4990234-4.5566406,3.4599609-6.9814453,4.9648438c-0.2861328,0.3447266-0.2861328,0.6328125-0.1132813,0.921875
	l8.5947266,22.9609375c0.1748047,0.3447266,0.4609375,0.6328125,0.9248047,0.3447266l9.0556641-6.5205078
	C351.8886719,314.8310547,352.4658203,314.1982422,352.0634766,313.4482422L352.0634766,313.4482422z"/>
<path fill-rule="evenodd" clip-rule="evenodd" fill="#FFFFFF" d="M436.0576172,319.0458984
	c-0.1132813,0.4609375-0.4609375,0.9228516-1.0380859,0.6337891l-20.7089844-14.2519531
	c-0.4628906-0.1113281-1.0380859-0.1113281-1.3857422,0.3496094l-8.5947266,21.75
	c-0.1748047,0.5722656,0,1.2109375,0.2890625,1.671875l14.3632813,23.8828125
	c0.2880859,0.4052734,0.2880859,1.0380859,0.171875,1.3271484c-2.59375,4.09375-5.1318359,8.0195313-7.8457031,11.9414063
	c-0.171875,0.2890625-0.8046875,0.4609375-1.09375,0l-63.4580078-105.5166016c-0.2890625-0.4052734-0.2890625-0.8662109,0-1.3271484
	c2.7099609-3.3994141,5.1318359-6.9208984,7.5556641-10.5556641c0.1142578-0.2875977,0.578125-0.5761719,1.0390625-0.2875977
	l84.9746094,54.6870117c0.2919922,0.2890625,0.578125,0.75,0.4052734,1.3271484
	C439.4042969,309.3544922,437.9042969,314.1982422,436.0576172,319.0458984L436.0576172,319.0458984z M398.5595703,294.6972656
	l-23.421875-15.8623047c-0.8632813-0.578125-1.0380859-0.4609375-0.5742188,0.4609375l18.2861328,30.4033203
	c0.2890625,0.4609375,1.0390625,1.4990234,1.671875,0.1162109c0.578125-1.5,3.7519531-8.8867188,4.9628906-13.1523438
	C399.65625,295.796875,399.0234375,295.1582031,398.5595703,294.6972656L398.5595703,294.6972656z"/>
<path fill-rule="evenodd" clip-rule="evenodd" fill="#FFFFFF" d="M102.2661133,283.8554688
	C95.574707,275.375,89.6904297,265.8544922,84.0947266,255.46875c-0.4624023-1.0380859-1.3261719-1.0380859-2.0771484-0.75
	l-27.6914063,9.4638672c-1.671875,0.6337891-1.9609375-0.4609375-1.9609375-1.2099609
	c-0.5771484-6.4648438-0.4609375-12.9248047-0.4609375-19.2700195c0-1.5009766,0.75-2.1357422,1.671875-2.309082
	l79.3237305-15.6904297c0.9233398-0.1733398,1.6728516,0.2875977,1.8461914,0.75
	c3.9228516,9.6918945,8.4799805,17.8256836,13.9033203,26.4775391c0.4614258,0.578125,0,1.6162109-0.4619141,1.9609375
	l-43.2094727,29.5361328C104.0556641,285.0664063,103.1313477,284.8945313,102.2661133,283.8554688L102.2661133,283.8554688z
	 M127.6499023,252.4697266c-2.4233398-3.5185547-4.6728516-7.0952148-6.8066406-10.7290039
	c-0.1738281-0.1738281-0.4624023-0.1738281-0.75,0l-20.4223633,7.0952148c-0.9233398,0.1152344-0.75,0.75-0.5776367,1.0385742
	c2.5385742,5.1333008,5.597168,9.7485352,9.0576172,14.3081055c0.4619141,0.6337891,1.4995117,0.9228516,2.0771484,0.4619141
	l17.421875-11.5976563C127.7651367,252.9306641,127.7651367,252.5859375,127.6499023,252.4697266L127.6499023,252.4697266z"/>
<path fill-rule="evenodd" clip-rule="evenodd" fill="#FFFFFF" d="M250.0673828,289.7373047
	c63.5732422,0,115.5537109-51.8041992,115.5537109-115.5507813c0-63.6318359-51.9804688-115.6679688-115.5537109-115.6679688
	c-63.6318359,0-115.4946289,52.0361328-115.4946289,115.6679688
	C134.5727539,237.9331055,186.4355469,289.7373047,250.0673828,289.7373047L250.0673828,289.7373047z"/>
<path fill-rule="evenodd" clip-rule="evenodd" fill="#155428" d="M250.0673828,285.0664063
	c-30.4018555,0-58.2094727-12.5800781-78.2851563-32.5966797c-20.1333008-19.9599609-32.4785156-47.6513672-32.4785156-78.2832031
	c0-61.09375,49.7280273-110.9956055,110.7636719-110.9956055c30.4599609,0,58.1523438,12.5771484,78.2275391,32.6523438
	c20.1337891,20.1333008,32.6523438,47.7666016,32.6523438,78.3432617
	C360.9472656,235.3950195,311.0439453,285.0664063,250.0673828,285.0664063L250.0673828,285.0664063z"/>
<path fill-rule="evenodd" clip-rule="evenodd" fill="#FFFFFF" d="M217.8769531,87.0166016
	c11.8833008-6.9804688,21.3442383-14.5380859,28.0371094-20.5375977
	C214.5888672,67.690918,186.6660156,82.4594727,167.6875,105.015625
	C184.4165039,102.5927734,201.3203125,96.5932617,217.8769531,87.0166016L217.8769531,87.0166016z"/>
<path fill-rule="evenodd" clip-rule="evenodd" fill="#FFFFFF" d="M282.3154297,87.0166016
	c16.5566406,9.5766602,33.4023438,15.5761719,50.1894531,17.9990234c-2.0185547-2.3657227-4.0957031-4.6723633-6.3457031-6.8647461
	c-18.6337891-18.6918945-43.9023438-30.5180664-71.7636719-31.671875
	C260.9707031,72.421875,270.4326172,80.0361328,282.3154297,87.0166016L282.3154297,87.0166016z"/>
<path fill-rule="evenodd" clip-rule="evenodd" fill="#FFFFFF" d="M181.8212891,205.2807617
	c-15.402832-31.2109375-23.0756836-65.4785156-20.7695313-91.5532227
	c-11.7104492,17.2480469-18.5756836,38.074707-18.5756836,60.4589844c0,29.7670898,12.0566406,56.6513672,31.5571289,75.9765625
	c18.3452148,18.3466797,43.324707,30.2275391,70.9003906,31.5546875
	C211.9926758,257.4902344,192.4921875,227.0292969,181.8212891,205.2807617L181.8212891,205.2807617z"/>
<path fill-rule="evenodd" clip-rule="evenodd" fill="#FFFFFF" d="M339.3144531,114.0732422
	c2.1328125,25.9609375-5.5957031,60.1699219-20.8837891,91.2075195
	c-15.0009766,30.7490234-36.7480469,57.0532227-63.171875,76.4370117
	c56.8261719-2.7109375,102.5146484-49.9008789,102.5146484-107.53125
	C357.7734375,151.9174805,350.9667969,131.2075195,339.3144531,114.0732422L339.3144531,114.0732422z"/>
<path fill-rule="evenodd" clip-rule="evenodd" fill="#FFFFFF" d="M250.0673828,281.4287109
	c29.7099609-21,51.1708984-48.9189453,65.3613281-77.6474609c17.2509766-35.1918945,23.4804688-71.0170898,19.8476563-94.784668
	c-21.4609375-2.5395508-39.9228516-10.3847656-54.5742188-19.0375977
	C266.625,81.6523438,256.0673828,72.7675781,250.0673828,67.171875
	c-5.8833008,5.5957031-16.3266602,14.4804688-30.4018555,22.7871094
	c-14.6533203,8.652832-33.2299805,16.3261719-54.690918,18.9223633
	c-3.4604492,23.8828125,2.5380859,59.7080078,19.9614258,94.8999023
	C198.9541016,232.3364258,220.4150391,260.4287109,250.0673828,281.4287109L250.0673828,281.4287109z"/>
<path fill-rule="evenodd" clip-rule="evenodd" fill="#155428" d="M250.0673828,277.3349609
	c-2.8842773-2.1328125-5.7680664-4.2099609-8.5966797-6.5205078
	c-23.3061523-18.5166016-40.8432617-42.2275391-53.0732422-66.5722656
	c-14.480957-29.0185547-21.6347656-58.7856445-22.0371094-81.3422852c0-3.9223633,0.1152344-8.0200195,0.5761719-11.9423828
	c5.5957031-0.5766602,11.1914063-1.4995117,16.7885742-2.9995117c9.5180664-2.2504883,18.4018555-5.769043,26.5942383-9.6918945
	c12.6923828-6.1733398,23.1342773-13.4418945,30.4018555-19.152832c3.2880859-2.769043,6.4619141-5.4804688,9.3461914-8.4799805
	c2.9423828,2.8837891,6,5.7109375,9.2871094,8.3061523c7.2705078,5.8847656,17.7119141,13.1533203,30.5761719,19.3266602
	c9.171875,4.3837891,19.5,8.3076172,30.5195313,10.6152344c4.2099609,1.0385742,8.5947266,1.6733398,12.9794922,2.0761719
	c0.2890625,3.8071289,0.4609375,7.4423828,0.4609375,11.0771484c-0.171875,22.4985352-7.2705078,52.7280273-22.0380859,82.2075195
	c-12.2890625,24.4599609-29.9394531,48.2275391-53.3613281,66.921875
	C255.7783203,273.2363281,252.8945313,275.375,250.0673828,277.3349609L250.0673828,277.3349609z"/>
<path fill-rule="evenodd" clip-rule="evenodd" fill="#FFFFFF" d="M262.4121094,85.4599609
	c-5.4228516-4.0976563-9.6914063-7.7314453-12.3447266-10.4428711c-2.5957031,2.7114258-6.8081055,6.3452148-12.2304688,10.4428711
	H262.4121094L262.4121094,85.4599609z"/>
<path fill-rule="evenodd" clip-rule="evenodd" fill="#FFFFFF" d="M282.4902344,97.9775391
	c-5.7119141-3.0004883-11.0195313-6.3457031-15.5761719-9.3461914h-33.6342773
	c-4.5,3.0004883-9.8071289,6.3457031-15.5761719,9.3461914H282.4902344L282.4902344,97.9775391z"/>
<path fill-rule="evenodd" clip-rule="evenodd" fill="#FFFFFF" d="M314.2763672,110.6699219
	c-9.2304688-2.4228516-17.8837891-5.7124023-25.5566406-9.5195313H211.53125
	c-7.8461914,3.8071289-16.4995117,7.0966797-25.7304688,9.5195313H314.2763672L314.2763672,110.6699219z"/>
<path fill-rule="evenodd" clip-rule="evenodd" fill="#FFFFFF" d="M330.71875,123.534668c0-3.3461914,0-6.519043-0.2910156-9.5200195
	h-160.605957c-0.2890625,3.0009766-0.2890625,6.1738281-0.2890625,9.5200195H330.71875L330.71875,123.534668z"/>
<path fill-rule="evenodd" clip-rule="evenodd" fill="#FFFFFF" d="M329.7949219,136.2270508
	c0.3466797-3.1743164,0.6328125-6.347168,0.7490234-9.5200195H169.6484375
	c0.1733398,3.1728516,0.4609375,6.3457031,0.921875,9.5200195H329.7949219L329.7949219,136.2270508z"/>
<path fill-rule="evenodd" clip-rule="evenodd" fill="#FFFFFF" d="M327.7177734,148.9179688
	c0.7490234-3.1738281,1.2099609-6.3457031,1.6152344-9.3461914H170.8603516
	c0.4599609,3.0004883,1.0371094,6.1723633,1.671875,9.3461914H327.7177734L327.7177734,148.9179688z"/>
<path fill-rule="evenodd" clip-rule="evenodd" fill="#FFFFFF" d="M324.8320313,161.609375
	c0.7519531-3.1728516,1.5019531-6.3457031,2.2519531-9.5185547H173.1098633
	c0.8066406,3.1728516,1.5576172,6.3457031,2.4228516,9.5185547H324.8320313L324.8320313,161.609375z"/>
<path fill-rule="evenodd" clip-rule="evenodd" fill="#FFFFFF" d="M320.9111328,174.3017578
	c1.0380859-3.1728516,2.0771484-6.347168,2.9990234-9.5200195H176.4545898
	c0.9248047,3.1728516,1.7885742,6.347168,2.8852539,9.5200195H320.9111328L320.9111328,174.3017578z"/>
<path fill-rule="evenodd" clip-rule="evenodd" fill="#FFFFFF" d="M316.2373047,187.1660156
	c1.2109375-3.3461914,2.3652344-6.519043,3.5761719-9.5195313H180.5522461
	c1.0371094,3.0004883,2.2495117,6.1733398,3.6337891,9.5195313H316.2373047L316.2373047,187.1660156z"/>
<path fill-rule="evenodd" clip-rule="evenodd" fill="#FFFFFF" d="M310.46875,199.8574219
	c1.5-3.1728516,3-6.3457031,4.3847656-9.5185547H185.512207c1.3857422,3.1728516,2.7114258,6.3457031,4.2695313,9.5185547H310.46875
	L310.46875,199.8574219z"/>
<path fill-rule="evenodd" clip-rule="evenodd" fill="#FFFFFF" d="M303.8349609,212.5483398
	c1.7880859-3.1728516,3.4599609-6.3452148,5.1347656-9.5180664H191.3979492
	c1.5566406,3.1728516,3.3452148,6.3452148,5.0180664,9.5180664H303.8349609L303.8349609,212.5483398z"/>
<path fill-rule="evenodd" clip-rule="evenodd" fill="#FFFFFF" d="M295.9316406,225.2407227
	c2.1328125-3.1728516,4.0957031-6.3452148,6.0566406-9.5180664H198.3779297
	c1.7871094,3.1728516,3.7490234,6.3452148,5.8847656,9.5180664H295.9316406L295.9316406,225.2407227z"/>
<path fill-rule="evenodd" clip-rule="evenodd" fill="#FFFFFF" d="M286.8730469,237.9331055
	c2.4238281-3.1728516,4.6728516-6.1733398,6.9814453-9.5195313h-87.4575195c2.2490234,3.3461914,4.5,6.3466797,6.9228516,9.5195313
	H286.8730469L286.8730469,237.9331055z"/>
<path fill-rule="evenodd" clip-rule="evenodd" fill="#FFFFFF" d="M276.0283203,250.5092773
	c2.8271484-2.8842773,5.7099609-6.0571289,8.3056641-9.4033203h-68.4189453
	c2.7119141,3.3461914,5.4223633,6.519043,8.3076172,9.4033203H276.0283203L276.0283203,250.5092773z"/>
<path fill-rule="evenodd" clip-rule="evenodd" fill="#FFFFFF" d="M262.9902344,263.1445313
	c3.5185547-3.0605469,6.8066406-6.2314453,9.9804688-9.4638672h-45.7490234
	c3.1728516,3.2324219,6.519043,6.4033203,10.1542969,9.4638672H262.9902344L262.9902344,263.1445313z"/>
<path fill-rule="evenodd" clip-rule="evenodd" fill="#FFFFFF" d="M250.0673828,273.4140625
	c3.1152344-2.25,6.1162109-4.5595703,9.1738281-6.9814453h-18.2299805
	C244.0092773,268.8544922,247.0678711,271.1640625,250.0673828,273.4140625L250.0673828,273.4140625z"/>
<path fill-rule="evenodd" clip-rule="evenodd" fill="#155428" d="M207.8964844,225.2407227
	c4.5571289,0,9.9804688,0.1738281,12.690918-4.2114258c1.6743164-2.3076172,1.6743164-5.0180664,1.6743164-5.5957031V161.609375
	c0-0.5766602-0.4619141-1.5-1.3852539-2.2495117c-1.7885742-1.6733398-5.7114258-3.0576172-8.019043-3.3466797
	c2.3076172-0.4609375,6.2304688-1.7880859,8.1923828-3.3461914c0.75-0.7495117,1.2119141-1.4995117,1.2119141-2.0756836v-32.8261719
	c0-1.0385742-0.1748047-1.7885742-0.6357422-2.5380859c-0.5761719-1.2124023-1.4995117-2.1342773-2.7104492-2.8852539
	c-3.0004883-1.4995117-8.0185547-1.0371094-11.019043-0.2875977c0.2885742-1.2119141,1.6728516-3.8071289,2.1342773-4.5571289
	c3.75-6.519043,8.3071289-7.8466797,12.6923828-7.269043c4.0957031,0.4614258,7.8452148,2.8842773,10.4414063,4.7294922
	c3.9228516-3.6337891,8.4228516-6.3457031,12.8066406-8.1918945c6.1733398-2.421875,12.3452148-3.3452148,17.190918-3.3452148
	c11.1914063,0,21.4609375,4.8457031,28.8457031,12.5756836c7.7304688,7.7314453,12.4042969,18.1147461,12.4042969,29.3061523
	c0,9.8085938-4.9619141,21.1723633-13.1542969,29.6533203c-7.2675781,7.5576172-16.9042969,12.9799805-27.5175781,13.1533203
	c-5.4238281,0.1152344-10.8457031-1.3842773-14.7119141-4.2695313c-3.6337891-2.5385742-6.2299805-6.4609375-6.2299805-11.1914063
	c0-0.5766602,0-1.2109375,0.1733398-1.7885742c0.1152344-3.6352539,1.3276367-6.9799805,3.6337891-9.3461914
	c2.2509766-2.4228516,5.3662109-4.0961914,9.9228516-4.0961914c0.4609375,0,0.8662109,0,1.4990234,0.1152344l0,0
	c3.1738281,0.1738281,5.5957031,1.097168,7.0986328,2.4243164c1.9599609,1.8457031,2.5957031,4.0947266,2.5957031,6.3457031
	c0,3.8071289-2.3095703,7.7299805-6.4033203,8.0185547c0.8056641,0.2890625,1.671875,0.4609375,2.7685547,0.6347656
	c6.8066406,0.1152344,15.8652344-6.3457031,17.1904297-13.1533203c0.6357422-2.7119141-0.1142578-5.0195313-0.8642578-7.4428711
	c-0.7519531-1.9604492-1.3857422-4.0375977-1.3857422-6.4604492c-0.171875-3.8076172,0.9248047-6.0571289,1.9609375-8.1923828
	c1.2109375-2.421875,2.2519531-4.4990234,0.75-8.7685547c-1.5-4.0375977-4.0966797-7.8452148-7.6708984-10.3833008
	c-3.3457031-2.3076172-7.4423828-3.6352539-12.7490234-3.6352539c-4.0410156,0-8.8857422,2.0771484-12.4619141,5.25
	c-3.4619141,2.8852539-6.0581055,6.5180664-6.0581055,9.980957v117.4545898
	c-3.7490234-0.921875-7.0957031-1.9604492-9.9794922-4.8447266c-1.5009766-1.3271484-2.7119141-3.1738281-3.4614258-4.847168
	c-2.4228516,1.9619141-4.9614258,3.3466797-7.8466797,3.5200195
	C216.8383789,233.7207031,209.5693359,229.9130859,207.8964844,225.2407227L207.8964844,225.2407227z"/>
<path fill-rule="evenodd" clip-rule="evenodd" fill="#FFFFFF" d="M214.4155273,227.9526367
	c2.5380859,1.6733398,4.8457031,2.4228516,6.921875,2.3076172c4.0961914-0.347168,8.0200195-4.2695313,9.6918945-6.519043
	c0.1162109,2.4228516,1.2119141,6.171875,3.9238281,8.7685547c1.3842773,1.2109375,2.8837891,2.1352539,4.6723633,2.8852539
	V122.1503906c0-4.5004883,3.0576172-9.0576172,7.0966797-12.4038086c4.2099609-3.5766602,9.9223633-6.1733398,14.5961914-6
	c5.9404297,0,10.7861328,1.6152344,14.5380859,4.2114258c4.2099609,2.9995117,7.0947266,7.269043,8.9394531,11.9414063
	c1.9628906,5.4233398,0.5771484,8.1352539-0.9228516,11.1928711c-0.7490234,1.7871094-1.8466797,3.7490234-1.6738281,6.6342773
	c0,2.1328125,0.6357422,3.9223633,1.2128906,5.5957031c0.921875,2.8837891,1.7890625,5.5957031,1.0390625,9.2294922
	c-1.7890625,8.3076172-12.0576172,15.6918945-20.5390625,15.5766602c-2.2490234-0.1738281-4.2099609-0.9233398-5.7675781-1.8466797
	c-3.7490234-2.5385742-4.0380859-6.3457031-3.4609375-8.7685547c0.6337891,1.0966797,2.59375,2.8837891,4.3828125,3.3461914l0,0
	c0.4628906,0.2885742,0.9248047,0.2885742,1.4990234,0.2885742c2.7714844,0,3.9824219-2.4228516,3.9824219-4.8457031
	c0-1.4995117-0.3466797-2.8271484-1.5576172-3.9228516c-1.0390625-0.8662109-2.7128906-1.5004883-5.2509766-1.6728516l0,0l0,0l0,0
	c-0.4619141-0.1152344-0.9228516-0.1152344-1.2109375-0.1152344c-3.6337891,0-6.0571289,1.2109375-7.5,2.9990234
	c-1.8452148,1.9619141-2.7685547,4.6738281-2.8837891,7.5576172c-0.1733398,0.4614258-0.1733398,1.0957031-0.1733398,1.5
	c0,3.6337891,1.9619141,6.519043,4.6152344,8.652832c3.5200195,2.4233398,8.3657227,3.7504883,13.1538086,3.6352539
	c9.6914063-0.1733398,18.6337891-5.1347656,25.2675781-12.2880859c7.5566406-7.8452148,12.2304688-18.2885742,12.2304688-27.3457031
	c0-10.2680664-4.3847656-19.9599609-11.4804688-27.1704102c-6.8066406-6.9814453-16.3261719-11.5385742-26.5957031-11.5385742
	c-4.5566406,0-10.2675781,0.8066406-15.9790039,3.1723633c-4.5,1.8466797-8.8837891,4.5576172-12.690918,8.3662109
	l-0.9248047,1.0371094l-1.0371094-0.75c-2.4233398-1.671875-6.3457031-4.5571289-10.2685547-5.1333008
	c-3.0004883-0.2885742-6.2314453,0.75-8.9418945,4.9614258c2.421875-0.2890625,5.0180664,0.171875,7.0952148,1.3842773
	c1.8466797,0.9233398,3.3466797,2.4228516,4.0961914,4.2114258c0.6347656,1.2119141,0.9223633,2.4228516,0.9223633,3.9223633
	v32.8261719c0,1.4995117-0.75,3.1728516-2.2495117,4.4985352c-0.4609375,0.3461914-0.9223633,0.6347656-1.3842773,0.9233398
	c0.4619141,0.2890625,0.9233398,0.6347656,1.2119141,0.9233398c1.671875,1.5,2.421875,3.2880859,2.421875,4.6728516v53.8242188
	c0,0.9233398-0.1723633,4.2114258-2.1342773,7.3842773C221.7998047,225.2407227,219.0878906,227.375,214.4155273,227.9526367
	L214.4155273,227.9526367z"/>
</svg>
