<?xml version="1.0" encoding="iso-8859-1"?><!-- Generator: Adobe Illustrator 16.0.0, SVG Export Plug-In . SVG Version: 6.00 Build 0) --><!DOCTYPE svg PUBLIC "-//W3C//DTD SVG 1.1//EN" "http://www.w3.org/Graphics/SVG/1.1/DTD/svg11.dtd"><svg version="1.1" id="Layer_1" xmlns="http://www.w3.org/2000/svg" xmlns:xlink="http://www.w3.org/1999/xlink" x="0px" y="0px" width="192.756px" height="192.756px" viewBox="0 0 192.756 192.756" style="enable-background:new 0 0 192.756 192.756;" xml:space="preserve"><g><polygon style="fill-rule:evenodd;clip-rule:evenodd;fill:#FFFFFF;" points="0,0 192.756,0 192.756,192.756 0,192.756 0,0	"/><path style="fill-rule:evenodd;clip-rule:evenodd;" d="M170.217,65.136l-0.352-0.776L141.988,2.835h-19.76l27.732,61.202h-11.363	V82.18l0,0c0,7.29-5.932,13.221-13.221,13.221l0,0h-3.826h-0.549v32.085h19.65V96.5h3.275l0,0c3.826,0,7.422-1.49,10.127-4.194	c2.703-2.705,4.193-6.301,4.193-10.126l0,0V65.136h11.117H170.217L170.217,65.136L170.217,65.136z"/><path style="fill-rule:evenodd;clip-rule:evenodd;" d="M105.074,2.835L69.338,2.868l0,0c-25.806,0-46.8,20.995-46.8,46.801	c0,10.652,3.718,21.088,10.469,29.385c6.543,8.042,15.641,13.756,25.655,16.14l0,0v32.292h45.078V96.5h3.275l0,0	c3.826,0,7.422-1.49,10.127-4.195c2.703-2.705,4.193-6.301,4.193-10.125l0,0V65.136h11.969L105.074,2.835L105.074,2.835	L105.074,2.835z M96.886,56.463c-6.186,0-11.201-5.015-11.201-11.201c0-6.187,5.015-11.202,11.201-11.202	s11.202,5.015,11.202,11.202C108.088,51.448,103.072,56.463,96.886,56.463L96.886,56.463L96.886,56.463L96.886,56.463z"/><path style="fill-rule:evenodd;clip-rule:evenodd;" d="M65.3,169.293c8.751,0,15.846-7.095,15.846-15.847	c0-8.751-7.094-15.846-15.846-15.846l0,0l-21.927,0.005v8.887h6.375v34.193h-6.375v8.887h22.41v-8.887h-6.375v-11.397L65.3,169.293	L65.3,169.293L65.3,169.293z M59.408,146.48H65.3l0,0c3.848,0,6.967,3.118,6.967,6.966s-3.119,6.967-6.967,6.967l0,0h-5.892V146.48	L59.408,146.48L59.408,146.48z"/><path style="fill-rule:evenodd;clip-rule:evenodd;" d="M112.285,161.492c2.922-1.897,4.734-4.811,4.734-9.108	c0-8.186-6.635-14.821-14.82-14.821l0,0H80.852v8.93h6.375v34.193h-6.375v8.887h16.035l6.858-0.007l0,0	c8.639,0,15.641-7.003,15.641-15.641C119.385,168.438,116.561,164,112.285,161.492L112.285,161.492L112.285,161.492	L112.285,161.492z M96.886,146.492l5.313,0.018l0,0c3.244,0,5.873,2.63,5.873,5.874s-2.629,5.874-5.873,5.874l0,0h-5.313V146.492	L96.886,146.492L96.886,146.492z M103.744,180.687h-6.858v-13.523h6.858l0,0c3.734,0,6.762,3.027,6.762,6.762	S107.479,180.687,103.744,180.687L103.744,180.687L103.744,180.687L103.744,180.687z"/><path style="fill-rule:evenodd;clip-rule:evenodd;" d="M139.578,157.252c-3.797-0.877-7.725-2.356-7.697-6.333	c0.023-3.603,2.924-5.549,6.137-5.549c3.699,0,7.49,2.434,7.684,6.521l0,0h8.979v-14.505h-8.377v2.54l0,0	c-1.797-2.224-6.045-3.065-8.207-3.031c-8.367,0.131-16.053,5.058-15.98,14.71c0.078,10.632,9.477,13.726,18.6,15.779	c3.309,0.745,6.809,2.334,6.734,7.494c-0.045,3.2-3.408,6.427-7.01,6.427c-4.869,0-8.201-2.067-9.822-8.176l0,0h-8.115v16.443	h8.477v-3.415l0,0c3.482,3.512,6.959,3.716,10.201,3.765c9.025,0.134,15.699-7.497,15.939-15.537	C157.451,163.299,148.926,159.394,139.578,157.252L139.578,157.252L139.578,157.252L139.578,157.252z"/></g></svg>