<?xml version="1.0" encoding="utf-8"?><!-- Generator: Adobe Illustrator 19.2.0, SVG Export Plug-In . SVG Version: 6.00 Build 0) --><svg version="1.1" id="Layer_1" xmlns="http://www.w3.org/2000/svg" xmlns:xlink="http://www.w3.org/1999/xlink" x="0px" y="0px" viewBox="0 0 129.1 114.9" style="enable-background:new 0 0 129.1 114.9;" xml:space="preserve"><style type="text/css">.st0{fill:#4C269F;}	.st1{fill:url(#SVGID_1_);}</style><path class="st0" d="M61.9,14.2c2.4-4.5,3.3-9.6,5.5-14.2c2.6,1.2,5.5,1.7,8,3.2c-0.3,0.8-0.9,2.5-1.2,3.4C81,2.6,88.6-0.2,96.5,0	c9-0.1,17.6,3.2,24.7,8.5c-2.3,4-5.5,7.4-9.2,10.2c6.8,5.9,12.6,13.2,15.2,21.9c5,16.3,0.1,34.7-11.2,47.2	c-12.3,13.8-29.7,21.8-47.3,26.5c-4.7,1.7-9.5-0.4-14-1.6c-15.9-5.1-31.5-13-42.4-25.9C2.7,75.5-1.9,60,0.8,45.4	c2.4-12.8,10.9-24.3,22.4-30.3C35,8.7,49.9,8.2,61.9,14.2"/><linearGradient id="SVGID_1_" gradientUnits="userSpaceOnUse" x1="33.3953" y1="28.6394" x2="93.062" y2="88.6394" gradientTransform="matrix(1 0 0 -1 0 115.28)"><stop offset="0" style="stop-color:#F9687F"/><stop offset="1" style="stop-color:#FCB6A8"/></linearGradient><path class="st1" d="M39.9,18.9c5.6-0.5,11.4,0,16.5,2.3c-4.5,4.2-7.9,9.2-10.8,14.6c2.2,2,5.3,2.7,8,3.8c4.5-10.1,14-18,25-20.2	c13.4-3,28.1,3,35.8,14.4c6.7,9.6,7.6,22.3,3.9,33.2c-3.3,10.3-10.9,18.6-19.7,24.7c-9.5,6.6-20.4,11-31.5,14.1	c-3.4,1.1-6.9-0.7-10.2-1.6C42.3,99.5,27.8,92.2,18,80C9.9,69.9,6.6,55.7,10.4,43.2C14.3,30.2,26.4,20.2,39.9,18.9z"/></svg>