<?xml version="1.0" encoding="utf-8"?>
<!-- Generator: Adobe Illustrator 18.1.1, SVG Export Plug-In . SVG Version: 6.00 Build 0)  -->
<svg version="1.1"
	 id="Layer_1" xmlns:dc="http://purl.org/dc/elements/1.1/" xmlns:cc="http://creativecommons.org/ns#" xmlns:rdf="http://www.w3.org/1999/02/22-rdf-syntax-ns#" xmlns:svg="http://www.w3.org/2000/svg" xmlns:sodipodi="http://sodipodi.sourceforge.net/DTD/sodipodi-0.dtd" xmlns:inkscape="http://www.inkscape.org/namespaces/inkscape" sodipodi:docname="AJAX.svg" inkscape:version="0.48.1 "
	 xmlns="http://www.w3.org/2000/svg" xmlns:xlink="http://www.w3.org/1999/xlink" x="0px" y="0px" viewBox="-105 196.2 1344.6 512"
	 enable-background="new -105 196.2 1344.6 512" xml:space="preserve">
<sodipodi:namedview  inkscape:cy="49.107458" inkscape:cx="83.761791" inkscape:zoom="4.8083261" fit-margin-top="0" fit-margin-left="0" showgrid="false" guidetolerance="10" gridtolerance="10" objecttolerance="10" borderopacity="1" pagecolor="#ffffff" bordercolor="#666666" id="namedview35" inkscape:current-layer="g15" inkscape:window-maximized="1" inkscape:window-y="-8" inkscape:window-x="-8" fit-margin-right="0" fit-margin-bottom="0" inkscape:window-height="1004" inkscape:window-width="1280" inkscape:pageshadow="2" inkscape:pageopacity="0">
	</sodipodi:namedview>
<g id="g3" transform="translate(-5.366,-5.833)">
	<path id="path5" inkscape:connector-curvature="0" fill="#FFFFFF" d="M156.3,711.7C16.4,711.7-97.3,597.9-97.3,458
		c0-139.9,113.8-253.7,253.6-253.7c139.8,0,253.6,113.8,253.6,253.7C409.8,597.9,296.1,711.7,156.3,711.7
		C156.3,711.7,156.3,711.7,156.3,711.7z"/>
	<path id="path7" inkscape:connector-curvature="0" fill="#004883" d="M156.3,206.7c138.7,0,251.2,112.5,251.2,251.3
		S295,709.3,156.3,709.3C17.5,709.3-95,596.8-95,458S17.5,206.7,156.3,206.7 M156.3,202C15.2,202-99.6,316.8-99.6,458
		S15.2,714,156.3,714c141.1,0,255.9-114.8,255.9-256C412.2,316.8,297.4,202,156.3,202L156.3,202z"/>
</g>
<g id="g9" transform="translate(-5.366,-5.833)">
	<g id="g11">
		<g id="g13">
			<g id="g15">
				<path id="path17" inkscape:connector-curvature="0" fill="#004883" d="M1240.2,354.9c2.8-3.3,4.7-7,4.7-11.7
					c0-5.2-1.9-9.4-4.7-12.7c-3.3-3.3-7.5-5.2-12.2-5.2c-4.7,0-8.5,1.9-12.2,5.2c-3.3,3.3-4.7,7.5-4.7,12.7c0,4.7,1.4,8.5,4.7,11.7
					c3.8,3.3,7.5,4.7,12.2,4.7C1232.7,359.6,1236.9,358.2,1240.2,354.9z"/>
				<path id="path19" inkscape:connector-curvature="0" fill="#004883" d="M1241.2,528V376.1h-25.4l0.5,151.9H1241.2z"/>
				<path id="path21" inkscape:connector-curvature="0" fill="#004883" d="M1182.4,383.6l-4.2-1.9c-11.3-6.6-24.9-9.9-41.4-9.9
					c-17.9,0-32.5,4.2-43.3,12.7c-5.6,4.2-9.4,8.5-12.2,14.1c-2.8,5.2-4.2,10.3-4.2,16.5c0,10.4,4.7,18.8,13.2,26.3
					c8,7.1,19.7,12.7,35.3,17.4c13.2,4.2,22.1,8.5,27.8,12.7c4.7,4.7,7.5,9.9,7.5,16.5c0,7.1-3.8,12.7-10.4,17.4
					c-6.6,3.8-16,6.1-27.8,6.1c-12.7,0-25.4-3.3-38.6-9.4l-3.3-2.3l-10.8,19.8l3.8,1.9c14.6,7.1,30.6,10.3,48,10.3
					c18.8,0,34.3-3.8,46.6-12.2c6.1-3.8,10.3-8.9,13.6-14.1c3.3-6.1,4.7-12.7,4.7-19.3v-0.5c0-11.3-4.7-21.2-13.6-29.2
					c-7.5-6.6-19.8-12.2-35.8-16.9c-12.2-4.3-21.2-8.5-26.3-11.8c-5.6-4.2-8-8.9-8-14.1c0-6.1,2.3-10.8,7.5-15
					c5.6-3.8,13.2-6.1,23-6.1c13.6,0,24.9,2.4,33.9,8l3.3,2.4L1182.4,383.6L1182.4,383.6z"/>
				<path id="path23" inkscape:connector-curvature="0" fill="#004883" d="M1029,394.9c-17.4-15.1-39-23-64-23
					c-24.5,0-44.7,7.5-61.1,22.1c-18.4,16.5-27.8,39-27.8,68.7v118.1h24.4v-76.2c7.5,8.5,16.9,15.1,28.2,19.8
					c11.3,5.2,23.5,7.5,36.7,7.5c24.9,0,46.1-7.5,63.5-23.5c17.9-15.5,26.8-34.3,26.8-56.4C1055.8,429.2,1046.9,410.4,1029,394.9z
					 M965,393c18.4,0,34.3,5.7,46.6,16.9c12.7,11.3,19.3,25.4,19.3,42.3c0,16-5.7,29.2-16.9,40.4c-12.2,11.8-28.7,17.9-48.4,17.9
					c-19.8,0-35.8-6.1-48.5-17.9c-11.8-11.8-17.4-24.9-17.4-40.4c0-15.5,5.6-29.2,17.4-40.5C929.3,399.6,945.3,393,965,393L965,393z
					"/>
				<path id="path25" inkscape:connector-curvature="0" fill="#004883" d="M837.1,402.4c-16.4-20.7-40-30.6-71.5-30.6
					c-23.5,0-43.8,6.6-61.2,20.7c-18.8,14.6-28.2,34.3-28.2,58.8c0,13.6,3.8,27.3,11.8,40c7.1,12.2,17.9,22.1,32.5,29.6
					c14.6,7.1,30.1,10.3,47,10.3c16,0,31-3.3,45.6-10.3c14.6-7.5,25.4-17.4,32.5-29.6l4.7-8H823c-5.6,8-13.7,14.6-24,19.8
					c-10.3,5.2-21.6,7.5-32.5,7.5c-15.1,0-27.8-3.8-39-11.3c-11.3-8-18.8-17.9-23.5-31c15.5-6.1,31-9.4,48-9.4l25.4,2.8l39.5,3.8
					c12.2,0,22.6-1.9,32-4.7c3.8-1.4,6.1-3.3,7.1-5.7c1.4-1.9,1.4-5.2,0.5-8.9C853.5,429.2,847.4,414.7,837.1,402.4L837.1,402.4z
					 M830.5,441l0.5,0.9l-13.6,1.9l-29.6-2.8l-41.4-3.3h-7.1c-13.2,0.9-25.4,3.3-37.2,7.5c1.9-17.4,10.3-31.1,24.5-40.9
					c11.8-7.5,24.9-11.8,39-11.8c22.1,0,39,7.1,51.7,21.2C823.9,422.2,828.6,431.1,830.5,441L830.5,441z"/>
				<path id="path27" inkscape:connector-curvature="0" fill="#004883" d="M566.6,371.8c-24,0-44.7,7.5-61.2,22.1
					c-18.3,16.5-27.3,39-27.3,68.7l-0.5,118.1h25.4l-0.5-76.2c7.5,8.5,16.9,15.1,27.8,19.8c11.8,5.2,24,7.5,37.2,7.5
					c24.9,0,46.1-7.5,63.5-23.5c17.9-15.5,26.3-34.3,26.3-56.4c0-22.6-8.5-41.4-25.9-56.9C613.6,379.8,592.5,371.8,566.6,371.8
					L566.6,371.8z M518.6,411.8c12.7-12.2,28.2-18.8,48-18.8c18.8,0,34.3,5.7,47,16.9c12.7,11.3,18.8,25.4,18.8,42.3
					c0,16-5.6,29.2-16.5,40.4c-12.2,11.8-28.2,17.9-48.9,17.9c-19.3,0-35.7-6.1-48.5-17.9c-11.3-11.8-16.9-24.9-16.9-40.4
					C501.7,436.8,507.3,423.1,518.6,411.8z"/>
			</g>
		</g>
	</g>
	<g id="g29">
		<path id="path31" inkscape:connector-curvature="0" fill="#E32934" d="M299.9,267.5c-2.1-1.6-4.1-3.4-6.1-5.3
			c-38.9-27.4-86.3-43.5-137.5-43.5C24.2,218.7-82.9,325.8-82.9,458c0,53.6,17.6,103,47.3,142.9c80-23.6,149.9-64.7,209.7-124.2
			C233.9,417.6,275.9,347.6,299.9,267.5z"/>
		<path id="path33" inkscape:connector-curvature="0" fill="#004883" d="M156.3,697.3c132.1,0,239.2-107.1,239.2-239.3
			c0-46.8-13.4-90.4-36.6-127.2c-0.6-0.6-1.2-1.3-1.6-2c4.8,15.9,7.3,32.4,7.3,49.5c0,27.2-6.3,52.8-18.6,76.9
			c-12.3,23-29,42.4-50.1,58.1c-16.7,12.3-36.8,22.8-60.4,31.3c-18.8,6.9-43.3,14-73.5,20.9l-87.4,19.7c-37.1,8.5-71,17.6-101.1,27
			C17.2,664.2,82.9,697.3,156.3,697.3z"/>
	</g>
</g>
</svg>
