<?xml version="1.0" encoding="UTF-8" standalone="no"?>
<!-- Generator: Adobe Illustrator 14.0.0, SVG Export Plug-In . SVG Version: 6.00 Build 43363)  -->

<svg
   xmlns:dc="http://purl.org/dc/elements/1.1/"
   xmlns:cc="http://creativecommons.org/ns#"
   xmlns:rdf="http://www.w3.org/1999/02/22-rdf-syntax-ns#"
   xmlns:svg="http://www.w3.org/2000/svg"
   xmlns="http://www.w3.org/2000/svg"
   xmlns:sodipodi="http://sodipodi.sourceforge.net/DTD/sodipodi-0.dtd"
   xmlns:inkscape="http://www.inkscape.org/namespaces/inkscape"
   version="1.1"
   id="Layer_1"
   x="0px"
   y="0px"
   width="288.457"
   height="109.843"
   viewBox="0 0 288.457 109.843"
   enable-background="new 0 0 300 120"
   xml:space="preserve"
   inkscape:version="0.48.1 "
   sodipodi:docname="AJAX.svg"><metadata
   id="metadata39"><rdf:RDF><cc:Work
       rdf:about=""><dc:format>image/svg+xml</dc:format><dc:type
         rdf:resource="http://purl.org/dc/dcmitype/StillImage" /></cc:Work></rdf:RDF></metadata><defs
   id="defs37" /><sodipodi:namedview
   pagecolor="#ffffff"
   bordercolor="#666666"
   borderopacity="1"
   objecttolerance="10"
   gridtolerance="10"
   guidetolerance="10"
   inkscape:pageopacity="0"
   inkscape:pageshadow="2"
   inkscape:window-width="1280"
   inkscape:window-height="1004"
   id="namedview35"
   showgrid="false"
   fit-margin-top="0"
   fit-margin-left="0"
   fit-margin-right="0"
   fit-margin-bottom="0"
   inkscape:zoom="4.8083261"
   inkscape:cx="83.761791"
   inkscape:cy="49.107458"
   inkscape:window-x="-8"
   inkscape:window-y="-8"
   inkscape:window-maximized="1"
   inkscape:current-layer="g15" />
<g
   id="g3"
   transform="translate(-5.366,-5.833)">
	<path
   d="m 60.266,115.177 c -29.996,0 -54.4,-24.414 -54.4,-54.421 0,-30.009 24.404,-54.422 54.4,-54.422 29.995,0 54.398,24.414 54.398,54.422 0,30.007 -24.403,54.421 -54.398,54.421 l 0,0 z"
   id="path5"
   inkscape:connector-curvature="0"
   style="fill:#ffffff" />
	<path
   d="m 60.266,6.833 c 29.766,0 53.898,24.141 53.898,53.922 0,29.781 -24.132,53.921 -53.898,53.921 -29.768,0 -53.9,-24.14 -53.9,-53.921 0,-29.781 24.132,-53.922 53.9,-53.922 m 0,-1 c -30.272,0 -54.9,24.638 -54.9,54.922 0,30.284 24.628,54.921 54.9,54.921 30.271,0 54.898,-24.638 54.898,-54.921 0,-30.284 -24.627,-54.922 -54.898,-54.922 l 0,0 z"
   id="path7"
   inkscape:connector-curvature="0"
   style="fill:#004883" />
</g>
<g
   id="g9"
   transform="translate(-5.366,-5.833)">
	<g
   id="g11">
		<g
   id="g13">
			<g
   id="g15">
				<path
   d="m 292.814,38.639 c 0.604,-0.706 1.009,-1.511 1.009,-2.52 0,-1.111 -0.404,-2.02 -1.009,-2.726 -0.709,-0.708 -1.613,-1.112 -2.625,-1.112 -1.007,0 -1.814,0.405 -2.624,1.112 -0.703,0.707 -1.009,1.615 -1.009,2.726 0,1.009 0.306,1.814 1.009,2.52 0.81,0.707 1.617,1.009 2.624,1.009 1.012,0 1.916,-0.302 2.625,-1.009 z"
   id="path17"
   style="fill:#004883;fill-opacity:1"
   inkscape:connector-curvature="0" />
				<path
   d="M 293.019,75.778 V 43.181 h -5.453 l 0.103,32.597 h 5.35 z"
   id="path19"
   style="fill:#004883;fill-opacity:1"
   inkscape:connector-curvature="0" />
				<path
   d="m 280.4,44.797 -0.906,-0.405 c -2.423,-1.414 -5.35,-2.119 -8.881,-2.119 -3.836,0 -6.964,0.907 -9.285,2.724 -1.211,0.909 -2.019,1.816 -2.624,3.029 -0.604,1.109 -0.91,2.219 -0.91,3.53 0,2.221 1.011,4.037 2.829,5.651 1.714,1.515 4.236,2.726 7.567,3.734 2.825,0.908 4.742,1.818 5.954,2.726 1.01,1.009 1.617,2.118 1.617,3.531 0,1.514 -0.808,2.725 -2.223,3.735 -1.414,0.807 -3.433,1.312 -5.954,1.312 -2.726,0 -5.449,-0.708 -8.275,-2.021 l -0.706,-0.502 -2.322,4.238 0.809,0.403 c 3.127,1.515 6.56,2.22 10.293,2.22 4.037,0 7.367,-0.807 9.991,-2.623 1.313,-0.808 2.22,-1.917 2.927,-3.026 0.703,-1.313 1.009,-2.727 1.009,-4.139 v -0.103 c 0,-2.421 -1.009,-4.541 -2.926,-6.255 -1.613,-1.411 -4.239,-2.624 -7.67,-3.632 -2.625,-0.912 -4.542,-1.819 -5.653,-2.525 -1.21,-0.91 -1.714,-1.917 -1.714,-3.027 0,-1.313 0.504,-2.32 1.616,-3.228 1.209,-0.809 2.822,-1.314 4.943,-1.314 2.926,0 5.348,0.505 7.267,1.716 l 0.707,0.505 2.52,-4.135 z"
   id="path21"
   style="fill:#004883;fill-opacity:1"
   inkscape:connector-curvature="0" />
				<path
   d="m 247.503,47.218 c -3.735,-3.229 -8.376,-4.944 -13.727,-4.944 -5.247,0 -9.586,1.613 -13.117,4.742 -3.937,3.534 -5.954,8.376 -5.954,14.734 v 25.33 h 5.245 V 70.732 c 1.616,1.816 3.636,3.229 6.057,4.24 2.422,1.109 5.045,1.612 7.873,1.612 5.348,0 9.888,-1.612 13.623,-5.046 3.835,-3.33 5.749,-7.366 5.749,-12.11 0,-4.844 -1.914,-8.879 -5.749,-12.21 z m -13.727,-0.405 c 3.937,0 7.368,1.213 9.991,3.633 2.726,2.422 4.139,5.448 4.139,9.085 0,3.429 -1.213,6.255 -3.633,8.677 -2.624,2.523 -6.156,3.836 -10.394,3.836 -4.241,0 -7.674,-1.313 -10.397,-3.836 -2.521,-2.522 -3.731,-5.347 -3.731,-8.677 0,-3.333 1.21,-6.258 3.731,-8.682 2.626,-2.622 6.057,-4.036 10.294,-4.036 z"
   id="path23"
   style="fill:#004883;fill-opacity:1"
   inkscape:connector-curvature="0" />
				<path
   d="m 206.327,48.834 c -3.529,-4.442 -8.577,-6.561 -15.339,-6.561 -5.046,0 -9.387,1.413 -13.12,4.439 -4.036,3.129 -6.053,7.369 -6.053,12.616 0,2.926 0.806,5.853 2.521,8.577 1.516,2.623 3.836,4.744 6.965,6.357 3.128,1.515 6.458,2.22 10.091,2.22 3.431,0 6.659,-0.705 9.79,-2.22 3.126,-1.613 5.448,-3.734 6.962,-6.357 l 1.009,-1.716 h -5.852 c -1.212,1.716 -2.93,3.13 -5.147,4.239 -2.22,1.109 -4.642,1.615 -6.964,1.615 -3.229,0 -5.954,-0.809 -8.376,-2.423 -2.422,-1.716 -4.036,-3.835 -5.046,-6.661 3.329,-1.312 6.661,-2.018 10.295,-2.018 l 5.449,0.605 8.476,0.808 c 2.623,0 4.846,-0.404 6.863,-1.008 0.808,-0.304 1.312,-0.708 1.515,-1.213 0.301,-0.403 0.301,-1.107 0.101,-1.918 -0.608,-3.631 -1.92,-6.758 -4.14,-9.381 z m -1.411,8.277 0.1,0.2 -2.927,0.403 -6.358,-0.604 -8.881,-0.709 h -1.513 c -2.827,0.202 -5.45,0.709 -7.973,1.615 0.403,-3.735 2.22,-6.663 5.249,-8.78 2.521,-1.617 5.348,-2.524 8.375,-2.524 4.742,0 8.376,1.514 11.101,4.542 1.414,1.818 2.422,3.734 2.827,5.857 z"
   id="path25"
   style="fill:#004883;fill-opacity:1"
   inkscape:connector-curvature="0" />
				<path
   d="m 148.299,42.273 c -5.147,0 -9.587,1.613 -13.119,4.742 -3.936,3.534 -5.854,8.376 -5.854,14.734 l -0.1,25.33 h 5.45 l -0.102,-16.348 c 1.615,1.816 3.633,3.229 5.955,4.24 2.522,1.109 5.147,1.612 7.972,1.612 5.35,0 9.89,-1.612 13.624,-5.046 3.834,-3.33 5.651,-7.366 5.651,-12.11 0,-4.844 -1.817,-8.879 -5.55,-12.21 -3.835,-3.229 -8.375,-4.944 -13.927,-4.944 z m -10.293,8.577 c 2.725,-2.623 6.056,-4.037 10.293,-4.037 4.038,0 7.367,1.213 10.091,3.633 2.727,2.422 4.037,5.448 4.037,9.085 0,3.429 -1.21,6.255 -3.533,8.677 -2.622,2.523 -6.054,3.836 -10.494,3.836 -4.138,0 -7.669,-1.313 -10.395,-3.836 -2.422,-2.522 -3.633,-5.347 -3.633,-8.677 10e-4,-3.332 1.211,-6.257 3.634,-8.681 z"
   id="path27"
   style="fill:#004883;fill-opacity:1"
   inkscape:connector-curvature="0" />
			</g>
		</g>
	</g>
	<g
   id="g29">
		<path
   d="M 91.086,19.897 C 90.635,19.561 90.199,19.175 89.77,18.757 81.425,12.878 71.247,9.422 60.266,9.422 31.929,9.422 8.957,32.404 8.957,60.754 8.957,72.245 12.735,82.853 19.11,91.41 36.28,86.34 51.26,77.52 64.098,64.771 76.92,52.083 85.93,37.066 91.086,19.897 z"
   id="path31"
   inkscape:connector-curvature="0"
   style="fill:#e32934" />
		<path
   d="m 60.266,112.087 c 28.335,0 51.307,-22.986 51.307,-51.333 0,-10.035 -2.88,-19.392 -7.854,-27.297 -0.131,-0.133 -0.25,-0.274 -0.35,-0.427 1.031,3.408 1.569,6.95 1.569,10.626 0,5.825 -1.346,11.338 -3.99,16.5 -2.645,4.93 -6.231,9.098 -10.759,12.461 -3.586,2.646 -7.89,4.888 -12.957,6.725 -4.033,1.476 -9.279,3.002 -15.778,4.479 l -18.74,4.216 c -7.967,1.826 -15.223,3.781 -21.687,5.782 9.411,11.172 23.495,18.268 39.239,18.268 z"
   id="path33"
   inkscape:connector-curvature="0"
   style="fill:#004883" />
	</g>
</g>
</svg>