<?xml version="1.0" encoding="iso-8859-1"?><!-- Generator: Adobe Illustrator 16.0.0, SVG Export Plug-In . SVG Version: 6.00 Build 0) --><!DOCTYPE svg PUBLIC "-//W3C//DTD SVG 1.1//EN" "http://www.w3.org/Graphics/SVG/1.1/DTD/svg11.dtd"><svg version="1.1" id="Layer_1" xmlns="http://www.w3.org/2000/svg" xmlns:xlink="http://www.w3.org/1999/xlink" x="0px" y="0px" width="399.809px" height="73.31px" viewBox="0 0 399.809 73.31" style="enable-background:new 0 0 399.809 73.31;" xml:space="preserve"><path style="fill:#1978BE;" d="M40.602,27.084c0,9.129-4.415,15.312-15.596,15.312h-3.533V13.322	c1.256-0.071,2.429-0.071,3.533-0.071C35.593,13.25,40.602,18.254,40.602,27.084 M29.125,55.055	c20.006,0,32.655-10.307,32.655-28.262C61.779,7.064,48.247,0,26.183,0C17.65,0,7.353,0.587,0,1.47v70.37h21.474V55.055H29.125z M316.843,27.084c0,9.129-4.409,15.312-15.593,15.312h-3.521V13.322c1.245-0.071,2.42-0.071,3.521-0.071	C311.838,13.25,316.843,18.254,316.843,27.084 M305.379,55.055c19.99,0,32.646-10.307,32.646-28.262	C338.025,7.064,324.495,0,302.429,0c-8.531,0-18.834,0.587-26.188,1.47v70.37h21.485V55.055H305.379z M365.969,19.429	c0-3.826,3.829-5.595,10.001-5.595c6.769,0,14.129,1.473,19.126,3.542l-1.763-15.315C387.74,0.883,382.739,0,373.622,0	c-17.359,0-29.123,6.848-29.123,21.201c0,24.725,33.543,19.724,33.543,31.206c0,4.412-3.241,6.766-11.188,6.766	c-7.05,0-17.943-2.354-24.414-5.591l2.36,16.198c6.466,2.355,15.292,3.529,22.355,3.529c17.94,0,32.653-5.89,32.653-23.558	C399.808,26.206,365.969,30.618,365.969,19.429 M260.067,1.47h-21.474v70.37h21.474V1.47z M172.984,1.47h-21.476v70.37h21.476V1.47z M210.346,57.703V1.47H188.87v70.37h38.837l3.233-14.137H210.346z M135.623,1.47h-21.476v27.97H91.788V1.47H70.308v70.37h21.479	V44.161h22.359V71.84h21.476L135.623,1.47L135.623,1.47z"/></svg>