<?xml version="1.0" encoding="utf-8"?>
<!-- Generator: Adobe Illustrator 16.0.0, SVG Export Plug-In . SVG Version: 6.00 Build 0)  -->
<!DOCTYPE svg PUBLIC "-//W3C//DTD SVG 1.1//EN" "http://www.w3.org/Graphics/SVG/1.1/DTD/svg11.dtd">
<svg version="1.1" id="Capa_1" xmlns="http://www.w3.org/2000/svg" xmlns:xlink="http://www.w3.org/1999/xlink" x="0px" y="0px"
	 width="255.118px" height="255.118px" viewBox="0 41 255.118 255.118" enable-background="new 0 41 255.118 255.118"
	 xml:space="preserve">
<g>
	<g>
		<g>
			<g>
				<path fill="#1F1E21" d="M103.435,126.563l-5.35-5.357l27.672-27.669l5.35,5.35L103.435,126.563z"/>
			</g>
			<g>
				<polygon fill="#1F1E21" points="150.895,91.005 123.222,118.674 95.55,146.343 100.903,151.7 128.572,124.024 156.244,96.355 
									"/>
			</g>
		</g>
		<g>
			<g>
				<path fill="#1F1E21" d="M50.644,195.055c-2.293,1.912-5.564,2.859-9.815,2.859h-8.149v14.074h-8.121v-39.131H41.36
					c3.873,0,6.961,1.012,9.266,3.031c2.304,2.018,3.452,5.135,3.452,9.365C54.078,189.877,52.934,193.143,50.644,195.055z
					 M44.402,180.959c-1.034-0.869-2.486-1.305-4.351-1.305h-7.372v11.52h7.372c1.865,0,3.317-0.463,4.351-1.404
					s1.551-2.426,1.551-4.459C45.954,183.271,45.437,181.822,44.402,180.959z"/>
			</g>
			<g>
				<path fill="#1F1E21" d="M65.078,179.598h-7.672v-6.977h7.672V179.598z M57.406,183.057h7.672v28.932h-7.672V183.057z"/>
			</g>
			<g>
				<path fill="#1F1E21" d="M87.732,193.436c-0.139-1.084-0.503-2.055-1.091-2.924c-0.849-1.17-2.172-1.748-3.962-1.748
					c-2.557,0-4.301,1.262-5.247,3.795c-0.492,1.34-0.745,3.123-0.745,5.35c0,2.117,0.253,3.822,0.745,5.113
					c0.906,2.404,2.611,3.604,5.115,3.604c1.772,0,3.031-0.471,3.777-1.428c0.745-0.963,1.198-2.203,1.359-3.715h7.725
					c-0.179,2.295-1.01,4.471-2.497,6.525c-2.379,3.311-5.892,4.965-10.55,4.965c-4.662,0-8.089-1.383-10.286-4.145
					c-2.197-2.76-3.295-6.334-3.295-10.734c0-4.965,1.209-8.824,3.642-11.592c2.425-2.76,5.774-4.137,10.047-4.137
					c3.631,0,6.602,0.812,8.916,2.439c2.308,1.627,3.677,4.508,4.102,8.631H87.732z"/>
			</g>
			<g>
				<path fill="#1F1E21" d="M114.941,183.029c1.84,0.756,3.324,2.16,4.455,4.186v-4.158h7.379v27.447
					c0,3.73-0.627,6.549-1.883,8.439c-2.161,3.26-6.302,4.893-12.425,4.893c-3.699,0-6.72-0.727-9.052-2.182
					c-2.34-1.449-3.627-3.617-3.877-6.506h8.231c0.21,0.885,0.556,1.525,1.034,1.912c0.813,0.691,2.187,1.033,4.116,1.033
					c2.725,0,4.547-0.912,5.471-2.73c0.596-1.17,0.899-3.133,0.899-5.893v-1.861c-0.728,1.24-1.505,2.168-2.336,2.789
					c-1.505,1.148-3.459,1.725-5.867,1.725c-3.716,0-6.688-1.305-8.909-3.916c-2.218-2.609-3.328-6.148-3.328-10.605
					c0-4.301,1.066-7.918,3.207-10.842c2.14-2.932,5.171-4.395,9.094-4.395C112.601,182.365,113.864,182.586,114.941,183.029z
					 M117.52,203.777c1.212-1.34,1.822-3.473,1.822-6.391c0-2.738-0.578-4.828-1.733-6.262c-1.152-1.434-2.696-2.154-4.64-2.154
					c-2.643,0-4.465,1.254-5.475,3.744c-0.524,1.326-0.789,2.967-0.789,4.914c0,1.684,0.278,3.176,0.845,4.488
					c1.02,2.439,2.857,3.658,5.496,3.658C114.809,205.775,116.3,205.111,117.52,203.777z"/>
			</g>
			<g>
				<path fill="#1F1E21" d="M138.482,211.988h-7.566v-39.131h7.566V211.988z"/>
			</g>
			<g>
				<path fill="#1F1E21" d="M155.346,194.391c1.408-0.178,2.41-0.398,3.021-0.662c1.088-0.465,1.629-1.178,1.629-2.154
					c0-1.186-0.416-2.006-1.248-2.455c-0.834-0.449-2.061-0.678-3.674-0.678c-1.814,0-3.096,0.443-3.848,1.328
					c-0.539,0.656-0.898,1.541-1.08,2.652h-7.301c0.16-2.531,0.873-4.607,2.137-6.234c2.008-2.553,5.455-3.822,10.346-3.822
					c3.178,0,6.006,0.627,8.477,1.883c2.473,1.256,3.707,3.631,3.707,7.111v13.275c0,0.928,0.014,2.033,0.053,3.346
					c0.051,0.998,0.199,1.662,0.453,2.018c0.246,0.357,0.617,0.643,1.109,0.877v1.113h-8.225c-0.232-0.578-0.393-1.127-0.479-1.641
					c-0.092-0.514-0.16-1.098-0.213-1.754c-1.053,1.133-2.262,2.096-3.635,2.895c-1.633,0.936-3.484,1.406-5.553,1.406
					c-2.637,0-4.809-0.75-6.527-2.24c-1.719-1.498-2.578-3.623-2.578-6.363c0-3.559,1.383-6.133,4.145-7.725
					c1.516-0.869,3.744-1.49,6.689-1.854L155.346,194.391z M159.971,197.914c-0.484,0.307-0.973,0.551-1.465,0.736
					c-0.496,0.186-1.17,0.355-2.037,0.52l-1.719,0.314c-1.615,0.285-2.775,0.627-3.477,1.033c-1.191,0.693-1.787,1.77-1.787,3.219
					c0,1.291,0.363,2.225,1.092,2.795c0.727,0.578,1.611,0.863,2.652,0.863c1.652,0,3.174-0.471,4.568-1.434
					c1.395-0.955,2.119-2.695,2.172-5.229V197.914z"/>
			</g>
			<g>
				<path fill="#1F1E21" d="M173.643,189.213v-6.156h22.883v6.285l-14.199,16.434h14.705v6.213h-24.402v-5.893l14.344-16.883
					H173.643z"/>
			</g>
			<g>
				<path fill="#1F1E21" d="M219.676,183.643c2.021,0.898,3.684,2.332,5,4.279c1.184,1.719,1.953,3.709,2.303,5.977
					c0.203,1.334,0.285,3.246,0.25,5.742H206.15c0.121,2.91,1.131,4.943,3.027,6.105c1.156,0.736,2.547,1.092,4.174,1.092
					c1.723,0,3.125-0.441,4.201-1.326c0.588-0.479,1.105-1.141,1.555-1.99h7.725c-0.203,1.719-1.137,3.459-2.807,5.229
					c-2.588,2.818-6.215,4.223-10.881,4.223c-3.855,0-7.25-1.191-10.197-3.559c-2.945-2.377-4.414-6.234-4.414-11.592
					c0-5.008,1.33-8.852,3.986-11.527c2.658-2.674,6.105-4.008,10.348-4.008C215.385,182.287,217.656,182.736,219.676,183.643z
					 M208.355,190.176c-1.07,1.105-1.74,2.596-2.016,4.479h13.031c-0.135-2.01-0.805-3.529-2.014-4.572
					c-1.207-1.041-2.701-1.561-4.488-1.561C210.93,188.521,209.424,189.07,208.355,190.176z"/>
			</g>
		</g>
		<g>
			<g>
				<path fill="#1F1E21" d="M229.561,178.57c-0.645,0.621-1.418,0.934-2.324,0.934c-0.936,0-1.723-0.32-2.361-0.963
					c-0.643-0.635-0.963-1.426-0.963-2.361c0-0.969,0.346-1.775,1.037-2.418c0.652-0.605,1.412-0.904,2.287-0.904
					c0.916,0,1.701,0.328,2.35,0.977c0.652,0.648,0.975,1.434,0.975,2.346C230.561,177.129,230.229,177.922,229.561,178.57z
					 M225.285,174.254c-0.527,0.543-0.795,1.186-0.795,1.926c0,0.771,0.27,1.428,0.805,1.963c0.539,0.541,1.186,0.807,1.941,0.807
					s1.398-0.271,1.936-0.807c0.531-0.549,0.803-1.199,0.803-1.963c0-0.734-0.268-1.375-0.799-1.926
					c-0.539-0.549-1.184-0.826-1.939-0.826C226.473,173.428,225.824,173.705,225.285,174.254z M225.781,178.027v-3.68
					c0.229,0,0.566,0,1.023,0s0.709,0.008,0.764,0.008c0.287,0.021,0.533,0.084,0.723,0.191c0.328,0.178,0.492,0.471,0.492,0.877
					c0,0.307-0.086,0.535-0.256,0.672c-0.176,0.143-0.389,0.221-0.643,0.248c0.232,0.043,0.406,0.115,0.525,0.215
					c0.217,0.172,0.324,0.449,0.324,0.82v0.328c0,0.043,0.004,0.078,0.006,0.113c0.004,0.037,0.016,0.072,0.025,0.107l0.035,0.1
					h-0.92c-0.027-0.113-0.049-0.285-0.061-0.506c-0.01-0.221-0.031-0.371-0.061-0.449c-0.047-0.129-0.139-0.221-0.271-0.271
					c-0.07-0.027-0.182-0.049-0.328-0.057l-0.213-0.014h-0.199v1.297H225.781z M227.539,175.074
					c-0.133-0.049-0.318-0.078-0.561-0.078h-0.23v1.062h0.371c0.227,0,0.402-0.043,0.531-0.127c0.121-0.094,0.186-0.236,0.186-0.436
					C227.836,175.289,227.734,175.154,227.539,175.074z"/>
			</g>
		</g>
	</g>
	<g>
		<path fill="#1F1E21" d="M78.555,239.443h0.956l2.546,6.512h-0.959l-0.709-1.961h-2.753l-0.731,1.961h-0.892L78.555,239.443z
			 M77.906,243.268h2.208l-1.084-3.039h-0.018L77.906,243.268z"/>
		<path fill="#1F1E21" d="M85.221,239.443h0.924l3.427,5.279h0.018v-5.279h0.82v6.512h-0.949l-3.398-5.221h-0.021v5.221h-0.82
			V239.443z"/>
		<path fill="#1F1E21" d="M91.815,239.443h4.494v0.734h-3.627v2.068h3.385v0.729h-3.385v2.254h3.656v0.727h-4.522V239.443z"/>
		<path fill="#1F1E21" d="M103.268,245.955h-0.902l-1.483-5.471h-0.018l-1.505,5.471h-0.902l-1.669-6.512h0.885l1.277,5.422h0.018
			l1.459-5.422h0.938l1.441,5.422h0.018l1.323-5.422h0.867L103.268,245.955z"/>
		<path fill="#1F1E21" d="M108.371,239.443h2.854c1.294,0,1.994,0.721,1.994,1.926s-0.699,1.934-1.994,1.926h-1.99v2.66h-0.863
			V239.443z M109.234,242.568h1.698c0.974,0.006,1.423-0.422,1.423-1.199s-0.449-1.191-1.423-1.191h-1.698V242.568z"/>
		<path fill="#1F1E21" d="M114.281,239.443h0.867v2.803h3.428v-2.803h0.867v6.512h-0.867v-2.98h-3.428v2.98h-0.867V239.443z"/>
		<path fill="#1F1E21" d="M123.618,239.293c2.068,0,3.117,1.641,3.117,3.41s-1.049,3.41-3.117,3.41c-2.069,0-3.117-1.641-3.117-3.41
			S121.549,239.293,123.618,239.293z M123.618,245.379c1.587,0,2.25-1.363,2.25-2.676s-0.664-2.682-2.25-2.682
			s-2.25,1.369-2.25,2.682S122.031,245.379,123.618,245.379z"/>
		<path fill="#1F1E21" d="M129.275,240.178h-2.173v-0.734h5.208v0.734h-2.174v5.777h-0.861V240.178z"/>
		<path fill="#1F1E21" d="M135.783,239.293c2.068,0,3.117,1.641,3.117,3.41s-1.049,3.41-3.117,3.41s-3.117-1.641-3.117-3.41
			S133.715,239.293,135.783,239.293z M135.783,245.379c1.588,0,2.254-1.363,2.254-2.676s-0.666-2.682-2.254-2.682
			c-1.586,0-2.25,1.369-2.25,2.682S134.197,245.379,135.783,245.379z"/>
		<path fill="#1F1E21" d="M142.5,239.443h4.275v0.734h-3.414v2.068h2.994v0.729h-2.994v2.98H142.5V239.443z"/>
		<path fill="#1F1E21" d="M147.73,239.443h4.498v0.734h-3.631v2.068h3.385v0.729h-3.385v2.254h3.656v0.727h-4.523V239.443z"/>
		<path fill="#1F1E21" d="M153.307,239.443h4.492v0.734h-3.627v2.068h3.381v0.729h-3.381v2.254h3.656v0.727h-4.521V239.443z"/>
		<path fill="#1F1E21" d="M158.881,239.443h0.863v5.785h3.445v0.727h-4.309V239.443z"/>
		<path fill="#1F1E21" d="M163.984,239.443h0.865v6.512h-0.865V239.443z"/>
		<path fill="#1F1E21" d="M166.303,239.443h0.92l3.428,5.279h0.018v-5.279h0.82v6.512h-0.945l-3.402-5.221h-0.018v5.221h-0.82
			V239.443z"/>
		<path fill="#1F1E21" d="M177.766,245.143c-0.504,0.686-1.324,0.971-2.088,0.971c-1.943,0-3.102-1.592-3.102-3.281
			c0-1.898,1.041-3.539,3.102-3.539c1.42,0,2.551,0.635,2.797,2.162h-0.867c-0.17-0.984-0.967-1.434-1.93-1.434
			c-1.58,0-2.236,1.369-2.236,2.76c0,1.363,0.785,2.598,2.236,2.598c1.338,0,2.141-0.936,2.088-2.119h-2.08v-0.734h2.854v3.43
			h-0.547L177.766,245.143z"/>
	</g>
</g>
</svg>
