<?xml version="1.0" encoding="iso-8859-1"?><!-- Generator: Adobe Illustrator 16.0.0, SVG Export Plug-In . SVG Version: 6.00 Build 0) --><!DOCTYPE svg PUBLIC "-//W3C//DTD SVG 1.1//EN" "http://www.w3.org/Graphics/SVG/1.1/DTD/svg11.dtd"><svg version="1.1" id="Layer_1" xmlns="http://www.w3.org/2000/svg" xmlns:xlink="http://www.w3.org/1999/xlink" x="0px" y="0px" width="192.756px" height="192.756px" viewBox="0 0 192.756 192.756" style="enable-background:new 0 0 192.756 192.756;" xml:space="preserve"><g><polygon style="fill-rule:evenodd;clip-rule:evenodd;fill:#FFFFFF;" points="0,0 192.756,0 192.756,192.756 0,192.756 0,0	"/><path style="fill-rule:evenodd;clip-rule:evenodd;fill:#BAA059;stroke:#000000;stroke-width:0.2293;stroke-linecap:round;stroke-linejoin:round;stroke-miterlimit:2.6131;" d="	M169.637,109.311l-2.83-0.016l-0.697-0.48c0.039-0.006-0.23-0.227-0.23-0.227c-0.941,0.834-2.227,1.08-3.264,0.398	c-0.451-0.297-1.018-0.701-1.312-2.188c-0.316-1.59,2.324-3.289,5.201-3.756c0-0.186,0.041-0.666-0.16-1.008	c-0.236-0.396-0.82-1.082-1.521-1.002c-0.699,0.08-1.773,0.588-2.621,1.326l-0.447-0.494c1.229-1.15,4.604-2.932,5.555-1.742	c0.168,0.211,0.346,0.43,0.457,0.596c0.436,0.656,0.656,1.279,0.652,2.322c-0.004,0.873,0,3.465,0,4.393	S169.258,108.957,169.637,109.311L169.637,109.311z M69.266,102.631c-1.476,1.025-3.803,1.074-3.803,1.074	c-0.028,1.037,0.236,3.516,1.799,3.9c1.272,0.312,2.194-2.111,1.679-3.244c0.492-0.096,1.177,0.451,1.373,0.668	c0.418,0.467,0.398,1.883-0.29,2.848c-0.769,1.076-2.168,1.746-3.292,1.725c-1.125-0.021-2.911-0.479-3.753-2.23	c-1.201-2.496-0.319-7.805,0.962-9.508c2.781-3.699,5.457-2.254,6.456-1.062C71.391,97.988,71.326,101.201,69.266,102.631	L69.266,102.631z M140.148,102.631c-1.477,1.025-3.803,1.074-3.803,1.074c-0.029,1.037,0.236,3.516,1.799,3.9	c1.271,0.312,2.195-2.111,1.678-3.244c0.492-0.096,1.178,0.451,1.373,0.668c0.418,0.467,0.398,1.883-0.289,2.848	c-0.77,1.076-2.168,1.746-3.293,1.725s-2.91-0.479-3.754-2.23c-1.201-2.496-0.318-7.805,0.963-9.508	c2.781-3.699,5.457-2.254,6.457-1.062C142.273,97.988,142.207,101.201,140.148,102.631L140.148,102.631z M33.646,94.353	c-0.914-0.382-1.073-0.638-1.257-0.972c-0.224-0.407,0.458-1.417,0.752-1.736L32.154,91.3c-0.704,5.663-4.157,9.745-8.49,12.092	c-0.056,1.422-0.085,7.467,0.215,8.535c0.336,1.195,0.815,2.215,1.739,2.998c-4.348-0.934-7.422,3.531-11.88-0.043	c-0.352-0.281-0.761-0.582-1.092-0.896c-1.708-1.627-0.317-3.74,0.354-4.104c0.677-0.367,0.757-0.896,1.413-0.742	c0.601,0.141,2.666,1.551,2.262,3.486c-0.185,0.883-0.688,1.139-1.119,1.434c0.713,0.309,1.775,0.078,2.501-0.244	c0.724-0.322,1.508-1.979,1.51-3.547c0.003-1.566,0.011-5.639,0.011-5.639c-2.333,0.533-6.508-0.221-8.68-2.482	c-2.113-2.201-1.667-4.473-0.975-6.206c1.291-3.237,5.571-5.287,9.69-6.181c-0.345-5.584,3.792-6.763,3.792-6.763l0.821,0.694	c-0.908,0.899-0.587,4.766-0.589,5.581l4.131-0.276c0.257-2.543-0.794-5.543-2.929-7.542s-4.42-2.576-6.867-2.254	c-2.447,0.323-4.944,3.02-4.719,6.313c0.383-0.29-0.003-0.214,0.563-0.214c1.095,0,2.904,1.672,1.714,3.01	c-0.942,1.059-2.286,0.717-3.882-0.444c-1.656-1.204-0.756-3.133-0.113-4.84c0.643-1.707,2.912-5.066,1.295-7.064	c-0.543-0.67-0.985-1.147-0.985-1.147c9.373-6.427,21.933,4.797,20.428,14.87c0.596,0.252,0.591,0.036,1.325,0.585	c0.798,0.595,1.52,0.143,2.162,2.054C36.261,93.812,34.789,94.831,33.646,94.353L33.646,94.353z M27.785,90.641	c-1.345,0.094-4.151,0.418-4.151,0.418l-0.017,9.275C25.87,97.762,27.778,94.798,27.785,90.641L27.785,90.641z M116.547,120	c1.336-0.758,1.033-12.979,1.033-12.979c-1.549,2.191-3.582,2.75-4.664,2.25c-0.371-0.172-0.869-0.365-1.205-0.666	c-2.914-2.611,0.127-11.561,2.688-12.894c0.895-0.466,1.742,0.005,2.244,0.367c0.479,0.342,0.938,1,0.938,1l2.654-1.525l0.764,0.38	c-0.672,0.928-0.768,1.915-0.768,2.973c0,1.061,0,16.885,0,17.51c0,0.908,0.725,1.58,1.094,1.889l-3.918,2.08L116.547,120	L116.547,120z M97.164,109.502c0.035,0.01-1.634-0.645-1.634-0.645c0.051-0.137,0.908-1.334,0.918-1.92	c-2.48,2.449-5.494,3.398-8.797,1.344c-0.682,0.457-2.399,1.312-3.908,1.135l-1.245-0.461c0,0,4.245-3.25,4.028-4.191	c-0.171-0.912-0.18-0.953-0.171-2.217c0,0,0.046-7.953,0.055-10.538c0.009-2.585-5.251-6.83-3.572-9.09	c0.859-1.156,3.303-4.167,3.303-4.167c0.24,0.118,1.104,0.583,1.104,0.583s-0.434,0.759-0.652,1.229	c-1.934,4.162,4.204,5.762,4.195,9.321c-0.003,1.099,0,4.453,0,4.453v7.673c0,0-0.136,1.902,0.287,2.57	c0.615,0.969,1.574,1.068,2.421,1.068s1.891,0.141,2.613-1.107c0.413-0.715,0.319-2.129,0.326-3.072	c0.024-3.775,0.024-11.631,0.024-12.702c0-4.225,4.266-5.795,4.266-5.795l0.99,0.521c-0.625,0.707-1.254,1.334-1.254,2.67	c0,1.325-0.039,17.806-0.039,19.835c0,1.57,0.951,2.799,1.961,3.502H97.164L97.164,109.502z M31.956,109.414l-0.955-0.5	c0,0,1.886-1.039,1.886-1.4c0.001-0.668,0.012-6.605-0.001-7.396c-0.011-0.705-0.037-1.223-0.046-1.381	c-0.047-0.779-0.33-1.896-1.211-2.586l3.126-0.652l0.842,0.626c0,0,0,9.701,0,9.969c0,1.328,0.341,2.508,1.627,3.32	C36.628,109.414,31.956,109.414,31.956,109.414L31.956,109.414z M37.847,109.416l-0.923-0.502c0.087-0.029,0.626-0.156,0.73-0.205	c0.613-0.287,0.944-0.852,0.939-1.141c-0.012-0.744,0.012-13.655,0-14.591c-0.012-0.937,1.309-1.992,1.845-2.497l0.878,0.404	c0,0-0.016,15.981-0.016,16.694c0,1.107,0.544,1.402,1.14,1.838H37.847L37.847,109.416z M148.82,109.455l-1.256-0.541	c0.086-0.029,0.625-0.156,0.73-0.205c0.613-0.287,0.943-0.852,0.939-1.141c-0.012-0.744,0.012-13.655,0-14.591	c-0.012-0.937,1.309-1.992,1.844-2.497l0.879,0.404c0,0-0.016,15.981-0.016,16.694c0,1.107,0.566,1.441,1.162,1.877	C152.168,109.455,150.08,109.455,148.82,109.455L148.82,109.455z M68.134,97.828c-0.632-0.648-1.25-0.184-1.615,0.098	c-0.936,0.723-0.96,2.312-1.077,4.244C68.103,101.971,69.042,98.76,68.134,97.828L68.134,97.828z M139.016,97.828	c-0.631-0.648-1.25-0.184-1.615,0.098c-0.936,0.723-0.959,2.312-1.076,4.244C138.984,101.971,139.924,98.76,139.016,97.828	L139.016,97.828z M143.402,109.455l-1.32-0.602c0,0,0.756-0.381,0.938-0.479c0.514-0.275,0.803-0.52,0.797-0.795	c-0.012-0.744,0.014-13.655,0-14.592c-0.012-0.937,1.152-1.931,1.855-2.507l0.867,0.415c0,0-0.014,15.98-0.014,16.695	c0,1.264,0.492,1.406,1.16,1.865C146.75,109.455,144.662,109.455,143.402,109.455L143.402,109.455z M19.6,92.161	c-2.608,1.12-5.723,3.376-5.76,5.917c-0.023,1.637,0.359,2.295,1.444,3.115c1.084,0.822,3.162,1.188,4.297,0.68	C19.567,98.451,19.594,95.043,19.6,92.161L19.6,92.161z M109.422,99.385l-0.785-0.512c-0.143-0.223,0.172-0.686-0.096-0.768	c-0.717-0.246-1.428,0.529-1.65,0.912c-0.277,0.479-0.299,1.242-0.299,2.389c0,0.832,0,5.174,0,5.682	c0.002,1.396,1.605,2.352,1.605,2.352h-4.352l-1.35-0.582c0,0,1.438-0.76,1.439-1.096c0.006-0.691,0-6.654,0-9.266	c0-0.939,1.789-3.012,1.789-3.012l0.867,0.4v1.383c0.492-0.68,1.15-1.467,2.031-1.673c0.451-0.192,1.338,0.04,1.338,0.04	l0.771,0.549L109.422,99.385L109.422,99.385z M78.55,99.385l-0.786-0.512c-0.144-0.223,0.17-0.686-0.096-0.768	c-0.718-0.246-1.428,0.529-1.649,0.912c-0.278,0.479-0.3,1.242-0.3,2.389c0,0.832-0.001,5.174,0,5.682	c0.002,1.396,1.605,2.352,1.605,2.352h-4.351l-1.35-0.582c0,0,1.438-0.76,1.44-1.096c0.004-0.691,0-6.654,0-9.266	c0-0.939,1.788-3.012,1.788-3.012l0.867,0.4v1.383c0.492-0.68,1.149-1.467,2.031-1.673c0.451-0.192,1.338,0.04,1.338,0.04	l0.77,0.549L78.55,99.385L78.55,99.385z M117.447,99.605c-0.119-1.229-1.152-2.527-2.254-1.529	c-1.508,1.365-2.018,6.609-1.395,8.006c0.324,0.729,0.764,1.188,1.465,0.916C118.359,105.793,117.584,101,117.447,99.605	L117.447,99.605z M132.578,109.439c-0.35-0.289-1.135-0.916-1.135-1.738c0-1.236,0-9.66,0-10.334s0.293-1.129,0.744-1.396	l-0.811-0.513c-0.928,0-2.572,0.917-2.572,1.64s-0.004,7.328,0,7.764s0,0.914-0.324,1.309c-0.379,0.463-1.588,1.07-2.037,0.938	c-0.35-0.104-0.734-0.369-0.734-1.115c0-1.057,0-8.197,0-8.967c0-0.65-0.312-1.036-0.312-1.036l-0.906-0.483	c0,0-1.973,0.951-1.756,1.312c0.211,0.354,0.336,0.842,0.336,2.047c0,0.857-0.326,6.66-0.326,7.604c0,1.059-0.15,1.951,0.408,2.383	c0.637,0.494,2.32,0.83,3.291,0.479c0.969-0.352,1.953-1.242,2.457-1.82c0.002,0.184-0.914,0.945-0.881,1.305l1.486,0.625H132.578	L132.578,109.439z M48.964,99.537l-0.757-0.59c0.002-0.012-0.341-0.672-0.604-0.809c-0.384-0.197-0.794-0.221-1.164,0.15	c-1.398,1.402,4.124,3.566,3.478,8.008c-0.624,4.283-5.828,3.873-7.237,1.412c-0.498-0.869,0.133-0.959,0.319-1.762	c0.157-0.68,0.943-2.037,1.292-2.299l0.758,0.59c0.018,0.094-0.476,0.588-0.549,1.25c-0.232,2.1,2.269,2.203,2.635,0.551	c0.604-2.729-4.832-4.922-3.441-8.154c1.032-2.398,3.794-2.431,5.282-2.023l0.758,0.59L48.964,99.537L48.964,99.537z M58.678,109.436l-0.953-0.607c0.002-1.58,0.488-7.557,0.489-8.309c0.002-1.107-0.413-1.678-1.025-1.941	c-0.593-0.254-2.042,0.32-2.042,1.566c0.006,1.512-0.014,5.668,0,7.295c0.01,1.158,0.504,1.727,0.921,1.992	c-0.399,0-4.254-0.004-4.254-0.004l-0.862-0.6c0,0,1.57-1.146,1.57-1.406c0.001-0.705-0.02-7.211-0.02-7.211	c0.001-0.732,1.194-4.588,1.652-4.753l0.992,0.583c0,0,0,1.201,0,1.598c0.671-0.85,1.071-2.257,2.285-2.273	c0.471,0.021,1.48,0.474,2.377,1.424c0.517,0.547,1.004,1.861,1.002,3.352c-0.004,2.172-0.01,6.389-0.01,7.189	c0,0.846,0.47,1.678,0.927,2.105H58.678L58.678,109.436z M166.408,104.158c-0.818,0.195-1.887,0.719-2.357,1.666	c-0.338,0.676,0.037,1.627,0.709,2.006c0.738,0.416,1.738,0.055,1.738-0.869C166.498,106.072,166.408,104.158,166.408,104.158	L166.408,104.158z M179.402,101.938l-0.551-0.43c0.002-0.008-0.248-0.49-0.441-0.588c-0.279-0.145-0.578-0.162-0.846,0.107	c-1.02,1.021,3.002,2.598,2.531,5.832c-0.453,3.119-4.244,2.82-5.27,1.027c-0.363-0.633,0.098-0.697,0.232-1.283	c0.113-0.494,0.686-1.482,0.941-1.672l0.551,0.43c0.014,0.066-0.346,0.428-0.4,0.908c-0.168,1.529,1.654,1.605,1.92,0.402	c0.439-1.988-3.518-3.586-2.506-5.939c0.752-1.744,2.764-1.77,3.846-1.473l0.553,0.43L179.402,101.938L179.402,101.938z M183.094,106.344c0.666,0.434,1.158,0.857,1.158,1.58c0,0.721-0.586,1.311-1.307,1.311c-0.719,0-1.098-0.488-1.592-1.094	C180.898,107.58,182.49,105.951,183.094,106.344L183.094,106.344z M172.256,106.418c0.666,0.434,1.158,0.857,1.158,1.58	c0,0.721-0.586,1.311-1.307,1.311c-0.719,0-1.098-0.488-1.592-1.094C170.061,107.654,171.652,106.025,172.256,106.418	L172.256,106.418z M158.369,106.98c-0.445,2.193-1.518,4.199-3.48,5.463l-0.717-0.51c0.75-1.461,2.748-3.615,3.545-5.398	L158.369,106.98L158.369,106.98z"/><path style="fill-rule:evenodd;clip-rule:evenodd;fill:#166E55;stroke:#000000;stroke-width:0.2293;stroke-linecap:round;stroke-linejoin:round;stroke-miterlimit:2.6131;" d="	M95.454,108.814c0,0-0.013-1.625,0.001-2.404c-1.722,1.932-5.005,2.904-8.011,1.842c-0.396-0.139-0.401-0.219-0.799-0.391	c-0.681,0.457-2.044,1.084-4.033,1.027c1.25-0.912,3.037-2.627,3.037-4.447c-0.003-0.869-0.003-12.588,0-13.121	c0.015-2.585-6.12-5.941-3.793-8.986c1.587-2.077,3.431-2.976,4.165-3.441c0,0-0.397,0.886-0.579,1.311	c-2.31,4.4,4.214,6.932,4.214,9.853c0,1.1,0,3.96,0,3.96v7.466c0,0-0.156,1.641,0.283,2.445c0.549,1.008,1.256,1.564,2.527,1.564	c1.271,0,1.797-0.17,2.511-1.271c0.515-0.795,0.375-2.129,0.381-3.072c0.024-3.775,0.016-14.47-0.003-15.541	c-0.024-1.339-0.677-2.087-1.767-2.633h7.022c0,0-1.281,1.328-1.281,2.663c0,0.577-0.039,16.96-0.039,19.921	c0,1.473,0.609,2.496,1.469,3.254H95.454L95.454,108.814z M31.006,108.836c0.528-0.371,0.971-0.76,0.971-1.996	c0-0.67,0.012-6.605-0.001-7.396c-0.011-0.705-0.036-1.223-0.046-1.383c-0.046-0.779-0.33-1.869-1.211-2.558h3.982	c-0.042,0.367-0.005,10.778-0.006,11.044c-0.002,0.977,0.506,1.703,1.286,2.289H31.006L31.006,108.836z M36.859,108.828	c0.412-0.375,0.846-0.93,0.846-1.674c0-1.168,0.013-13.655,0-14.592c-0.012-0.937-0.677-1.523-1.176-2.082h3.9	c0,0-0.032,15.969-0.016,16.684c0.016,0.715,0.324,1.209,0.802,1.664H36.859L36.859,108.828z M147.518,108.811	c0.412-0.377,0.826-0.912,0.826-1.656c0-1.168,0.014-13.655,0-14.592c-0.012-0.937-0.676-1.523-1.176-2.082h3.9	c0,0-0.031,15.969-0.016,16.684s0.27,1.195,0.748,1.65C150.863,108.814,148.777,108.811,147.518,108.811L147.518,108.811z M68.377,102.217c-1.476,1.025-3.803,1.074-3.803,1.074c-0.028,1.035,0.237,3.516,1.8,3.9c1.271,0.312,2.759-1.59,2.243-2.721	c0.29-0.23,0.612-0.072,0.808,0.145c0.418,0.467,0.398,1.883-0.29,2.846c-0.77,1.078-2.168,1.746-3.292,1.725	c-1.125-0.02-2.512-0.492-3.354-2.244c-1.201-2.496-0.722-7.793,0.562-9.492c2.61-3.456,5.735-2.037,6.457-1.062	C70.428,97.631,70.436,100.785,68.377,102.217L68.377,102.217z M67.245,97.412c-0.631-0.646-1.25-0.184-1.615,0.1	c-0.936,0.723-0.96,2.311-1.076,4.244C67.213,101.557,68.153,98.344,67.245,97.412L67.245,97.412z M139.26,102.217	c-1.477,1.025-3.805,1.074-3.805,1.074c-0.027,1.035,0.238,3.516,1.801,3.9c1.271,0.312,2.758-1.59,2.242-2.721	c0.291-0.23,0.613-0.072,0.809,0.145c0.418,0.467,0.398,1.883-0.291,2.846c-0.77,1.078-2.168,1.746-3.291,1.725	c-1.125-0.02-2.512-0.492-3.355-2.244c-1.201-2.496-0.721-7.793,0.562-9.492c2.611-3.456,5.736-2.037,6.457-1.062	C141.311,97.631,141.318,100.785,139.26,102.217L139.26,102.217z M138.127,97.412c-0.631-0.646-1.25-0.184-1.615,0.1	c-0.936,0.723-0.961,2.311-1.076,4.244C138.096,101.557,139.035,98.344,138.127,97.412L138.127,97.412z M142.1,108.826	c0.412-0.377,0.84-0.918,0.828-1.662s0.012-13.654,0-14.591c-0.012-0.937-0.678-1.534-1.176-2.092h3.898	c0,0-0.031,15.98-0.016,16.695c0.016,0.713,0.27,1.195,0.748,1.65C145.447,108.826,143.359,108.826,142.1,108.826L142.1,108.826z M32.699,93.76c-1.195-0.673-1.005-2.249-0.521-2.854l-0.986-0.344c-0.704,5.663-4.157,9.745-8.491,12.092	c-0.002,1.387-0.085,7.467,0.216,8.535c0.336,1.193,0.815,2.215,1.739,2.998c-4.348-0.934-7.367,3.414-11.872-0.08	c-2.675-2.074-1.688-4.414-0.748-4.963c2.424-1.414,4.076,1.094,3.923,2.432c-0.095,0.836-0.411,1.383-0.842,1.678	c0.714,0.309,1.25,0.146,1.976-0.176c0.724-0.322,1.507-1.979,1.511-3.547c0.003-1.566,0.01-5.639,0.01-5.639	c-2.333,0.533-6.302-0.111-8.392-2.334c-2.089-2.223-1.954-4.621-1.263-6.354c1.291-3.237,5.57-5.287,9.69-6.181	c0-1.406,0.458-4.52-1.817-6.036h6.43c-0.908,0.899-0.589,4.798-0.589,5.547c1.974-0.272,4.131-0.276,4.131-0.276	c0.257-2.543-0.794-5.543-2.929-7.542s-4.42-2.576-6.867-2.253c-2.447,0.322-4.943,3.019-4.718,6.313	c1.786-0.172,3.671,1.434,2.579,2.989c-1.053,1.5-2.856,1.001-4.243-0.506c-1.387-1.507-0.698-3.265-0.055-4.972	c0.643-1.707,2.911-5.066,1.294-7.064c-0.542-0.671-0.985-1.147-0.985-1.147c3.556-2.438,9.866-2.443,14.371,1.172	c4.504,3.615,6.64,9.729,6.026,13.837c2.106,0.563,4.034,1.518,4.177,2.88C35.608,93.427,34.318,94.672,32.699,93.76L32.699,93.76z M26.875,89.919c-1.345,0.094-4.151,0.417-4.151,0.417l-0.017,9.275C24.96,97.041,26.868,94.077,26.875,89.919L26.875,89.919z M18.69,91.438c-2.607,1.121-5.723,3.377-5.759,5.917c-0.024,1.637,0.359,2.295,1.444,3.117c1.084,0.82,3.162,1.188,4.297,0.68	C18.69,100.623,18.69,91.784,18.69,91.438L18.69,91.438z M48.207,98.947c-0.439-0.625-1.574-2.205-2.526-1.248	c-1.399,1.402,4.039,3.555,3.478,8.008c-0.646,5.129-7.907,4.021-6.919-0.35c0.154-0.68,0.511-1.062,0.86-1.322	c0.405-0.303,0.816-0.426,1.19-0.387c0.018,0.092-0.476,0.588-0.549,1.25c-0.232,2.098,2.27,2.203,2.636,0.551	c0.604-2.73-4.6-4.922-3.209-8.154c1.235-2.871,4.612-2.131,5.808-1.434L48.207,98.947L48.207,98.947z M57.712,108.84	c-0.328-0.387-0.482-1.002-0.475-2.088c0.003-1.58,0.01-6.076,0.012-6.826c0.001-1.109-0.414-1.68-1.025-1.943	c-0.593-0.254-2.042,0.322-2.042,1.566c0.006,1.512-0.014,5.668,0,7.297c0.01,1.156,0.504,1.727,0.921,1.99	c-0.399,0-4.254-0.004-4.254-0.004c0.543-0.279,0.707-0.637,0.708-2.006c0.001-0.705-0.019-7.211-0.019-7.211	c0.001-0.732-0.281-3.457-1.357-4.17h4.001c0,0,0,1.201,0,1.6c0.671-0.852,1.419-1.818,2.633-1.834	c0.471,0.021,1.132,0.033,2.029,0.983c0.517,0.547,1.004,1.861,1.001,3.352c-0.003,2.172-0.01,6.389-0.01,7.189	c0,0.846,0.47,1.678,0.928,2.105H57.712L57.712,108.84z M108.648,98.83c-0.246-0.432-0.463-0.975-0.996-1.139	c-0.719-0.248-1.385,0.477-1.586,0.85c-0.201,0.371-0.363,0.699-0.363,2.068c0,0.83,0,5.557,0,6.064	c0,1.412,0.959,2.107,0.959,2.107h-4.119c0.43-0.322,0.523-0.822,0.504-1.938c-0.012-0.691,0-6.15,0-8.762	c0-0.939-0.369-2.049-0.85-2.614l3.506,0.001v1.384c0.492-0.68,1.148-1.468,2.031-1.673c0.758-0.186,1.6-0.042,2.215,0.432	C109.518,96.703,109.037,97.719,108.648,98.83L108.648,98.83z M77.776,98.83c-0.247-0.432-0.463-0.975-0.997-1.139	c-0.718-0.248-1.385,0.477-1.585,0.85c-0.201,0.371-0.364,0.699-0.364,2.068c0,0.83,0,5.557,0,6.064	c0,1.412,0.958,2.107,0.958,2.107H71.67c0.429-0.322,0.524-0.822,0.504-1.938c-0.013-0.691,0-6.15,0-8.762	c0-0.939-0.369-2.049-0.851-2.614l3.506,0.001v1.384c0.492-0.68,1.149-1.468,2.031-1.673c0.759-0.186,1.6-0.042,2.214,0.432	C78.646,96.703,78.165,97.719,77.776,98.83L77.776,98.83z M116.689,119.199c0-0.578,0-12.592,0-12.592	c-1.547,2.191-3.58,2.75-4.662,2.25c-3.188-1.475-3.482-9.227-0.293-12.209c1.688-1.577,3.885-1.852,4.955,0.014	c-0.01-0.415,0-1.144,0-1.144h3.42c-0.672,0.927-0.768,1.915-0.768,2.974c0,1.061,0,16.867,0,17.494	c0,0.918,0.725,1.596,1.094,1.904l-3.854,1.992C116.582,119.883,116.689,119.674,116.689,119.199L116.689,119.199z M116.559,99.191	c-0.121-1.229-1.152-2.529-2.256-1.529c-1.506,1.365-2.016,6.609-1.395,8.006c0.326,0.729,0.766,1.188,1.467,0.914	C117.471,105.379,116.693,100.584,116.559,99.191L116.559,99.191z M131.273,108.805c-0.348-0.289-0.719-0.572-0.719-1.518	c0-1.156,0-9.576,0-10.41c0-0.674,0.26-1.128,0.711-1.396H127.1c0.287,0.186,0.816,0.747,0.816,1.468c0,0.723,0.006,7.061,0,7.496	c-0.01,0.611,0,0.916-0.324,1.311c-0.379,0.463-1.174,1.236-2.039,0.938c-0.344-0.119-0.729-0.369-0.732-1.115	c-0.006-0.746,0-8.291,0-9.062c0-0.649-0.312-1.035-0.312-1.035h-3.096c0,0,0.217,0.169,0.432,0.531	c0.213,0.354,0.336,0.842,0.336,2.045c0,0.857,0,6.867,0,7.811c0,1.059,0.064,2.08,0.66,2.742c0.451,0.5,1.744,0.658,2.713,0.307	c0.971-0.354,1.955-1.244,2.459-1.822c0.004,0.334-0.004,1.711-0.004,1.711H131.273L131.273,108.805z M168.555,108.771h-2.508	c-0.158-0.273-0.311-0.594-0.303-0.836c-1.16,1.021-2.369,1.357-3.5,0.496c-0.486-0.369-0.988-0.996-0.992-2.295	c-0.006-1.562,1.564-3.596,4.441-4.064c0-0.186,0.043-0.664-0.16-1.006c-0.236-0.398-0.617-0.678-1.318-0.598	c-0.699,0.08-1.738,0.738-2.42,1.27l0.701-2.361c1.395-0.584,3.121-0.82,4.459,0.373c0.707,0.629,0.857,1.355,0.857,2.334	c0,0.93,0,4.248,0,5.387C167.812,108.111,168.291,108.549,168.555,108.771L168.555,108.771z M165.688,103.617	c-0.818,0.193-1.715,0.896-2.047,1.428c-0.398,0.641-0.201,1.486,0.309,1.814c0.713,0.459,1.738,0.055,1.738-0.867	C165.688,105.102,165.688,103.617,165.688,103.617L165.688,103.617z M178.852,101.508c-0.32-0.455-1.146-1.605-1.84-0.91	c-1.018,1.021,2.941,2.588,2.533,5.832c-0.471,3.734-5.758,2.928-5.037-0.256c0.111-0.494,0.371-0.771,0.625-0.963	c0.295-0.219,0.594-0.309,0.867-0.279c0.012,0.066-0.348,0.428-0.4,0.908c-0.17,1.529,1.652,1.605,1.92,0.402	c0.439-1.988-3.35-3.584-2.338-5.939c0.898-2.09,3.359-1.551,4.229-1.043L178.852,101.508L178.852,101.508z M182.502,106.215	c0.719,0,1.307,0.588,1.307,1.311s-0.588,1.311-1.307,1.311c-0.721,0-1.307-0.588-1.307-1.311S181.781,106.215,182.502,106.215	L182.502,106.215z M171.664,106.289c0.719,0,1.305,0.588,1.305,1.311s-0.586,1.311-1.305,1.311c-0.721,0-1.307-0.588-1.307-1.311	S170.943,106.289,171.664,106.289L171.664,106.289z M157.68,106.48c-0.445,2.191-1.518,4.197-3.48,5.461l-0.047-0.062	c0.75-1.461,1.158-3.578,1.047-5.398H157.68L157.68,106.48z"/></g></svg>