<?xml version="1.0" encoding="iso-8859-1"?><!-- Generator: Adobe Illustrator 16.0.0, SVG Export Plug-In . SVG Version: 6.00 Build 0) --><!DOCTYPE svg PUBLIC "-//W3C//DTD SVG 1.1//EN" "http://www.w3.org/Graphics/SVG/1.1/DTD/svg11.dtd"><svg version="1.1" id="Layer_1" xmlns="http://www.w3.org/2000/svg" xmlns:xlink="http://www.w3.org/1999/xlink" x="0px" y="0px" width="2834.65px" height="2834.649px" viewBox="49.605 0 2834.65 2834.649" style="enable-background:new 49.605 0 2834.65 2834.649;" xml:space="preserve"><circle style="fill:#CA3737;" cx="1466.93" cy="1417.324" r="1417.324"/><path style="fill:#FFFFFF;" d="M1466.93,714.568c-389.765,0-702.757,312.992-702.757,702.757	c0,289.371,171.26,531.496,419.292,643.701c0-47.244,0-106.299,11.812-159.449c11.811-59.055,88.582-383.857,88.582-383.857	s-23.622-47.244-23.622-112.206c0-106.299,59.056-183.071,135.827-183.071c64.961,0,94.488,47.244,94.488,106.3	c0,64.961-41.339,159.45-59.055,248.032c-17.717,76.771,41.338,135.826,112.204,135.826c135.827,0,224.41-171.26,224.41-372.046	c0-153.544-106.3-265.749-289.37-265.749c-212.6,0-342.521,159.449-342.521,336.615c0,59.055,17.717,106.299,47.244,135.827	c11.812,17.717,17.717,23.621,11.812,41.338c-5.905,11.812-11.812,41.34-11.812,59.057c-5.904,17.715-17.716,23.621-35.433,17.715	c-100.394-41.338-141.732-147.637-141.732-265.748c0-200.787,165.354-437.009,501.97-437.009	c265.748,0,442.914,194.883,442.914,401.576c0,277.559-153.544,478.346-377.953,478.346c-76.772,0-147.639-41.338-171.261-88.582	c0,0-41.339,159.449-47.244,194.883c-17.716,53.148-41.339,106.299-70.866,147.637c64.961,17.717,129.922,29.527,200.787,29.527	c389.766,0,702.758-312.992,702.758-702.756C2169.687,1027.561,1856.695,714.568,1466.93,714.568z"/></svg>