<?xml version="1.0" encoding="iso-8859-1"?><!-- Generator: Adobe Illustrator 16.0.0, SVG Export Plug-In . SVG Version: 6.00 Build 0) --><!DOCTYPE svg PUBLIC "-//W3C//DTD SVG 1.1//EN" "http://www.w3.org/Graphics/SVG/1.1/DTD/svg11.dtd"><svg version="1.1" id="svg2" xmlns:rdf="http://www.w3.org/1999/02/22-rdf-syntax-ns#" xmlns:sodipodi="http://sodipodi.sourceforge.net/DTD/sodipodi-0.dtd" xmlns:dc="http://purl.org/dc/elements/1.1/" xmlns:inkscape="http://www.inkscape.org/namespaces/inkscape" xmlns:svg="http://www.w3.org/2000/svg" xmlns:cc="http://creativecommons.org/ns#" xmlns="http://www.w3.org/2000/svg" xmlns:xlink="http://www.w3.org/1999/xlink" x="0px" y="0px" width="392px" height="400.999px" viewBox="0 0.001 392 400.999" style="enable-background:new 0 0.001 392 400.999;" xml:space="preserve"><g id="layer1" transform="translate(-127.79516,-209.89935)" inkscape:groupmode="layer" inkscape:label="Layer 1"><path id="path4002" style="fill:#221E1F;" d="M186.544,405.334c0,0-30.96,35.129-45.722,109.76c0,0-2.46,18.453,4.579,19.273	c6.971,0.819,11.208-9.705,13.669-16.13c1.025-2.733,46.542-107.982,38.272-113.724c0,0,28.431-1.572,31.507,17.77	c3.144,19.272-26.791,34.24-35.539,36.017c-8.816,1.709-8.611,5.263-8.064,5.741s2.46,3.007,13.806,1.299	c11.345-1.777,37.452-9.637,48.797-33.762c0,0,10.936-22.827-9.431-39.571c-20.435-16.812-50.369-8.338-61.578-1.025	c-11.276,7.313-7.244,15.309-6.151,16.402C171.849,408.546,174.447,409.981,186.544,405.334"/><path id="path4006" style="fill:#221E1F;" d="M284.234,384.482c0,0,0.341-4.169,3.349-4.579c3.075-0.41,5.194,0.41,5.809,9.295	c0.684,8.953-3.69,21.938-10.798,34.445c-3.212,5.74-9.294,19.819-9.158,21.254c0,0,2.119,5.878-4.715,5.81	c-6.834-0.067-11.072-10.935-9.978-19.546C259.835,422.55,262.364,413.255,284.234,384.482"/><path id="path4010" style="fill:#221E1F;" d="M342.217,389.574c0,0-18.385,3.827-28.431,2.802c0,0-15.241-1.982-11.072-10.73	c0,0,1.777-3.622,6.014-3.349s9.636,0.957,17.086-0.273c7.449-1.162,29.729-1.777,32.668-1.435c2.938,0.342,7.244,3.349,5.33,9.5	c-1.981,6.151-17.428,23.1-17.428,23.1l-24.603,23.305c0,0,16.402-3.279,35.949,0.068c19.547,3.35,30.002,4.238,34.65,3.691	c4.578-0.547,12.574-2.256,14.693-3.145s3.965-0.205,4.716,1.094c0.82,1.299,0.479,3.213-2.733,5.194	c-3.213,1.981-14.353,9.227-35.334,8.475s-33.215-0.615-33.215-0.615s-23.579-0.342-36.496,3.417c0,0-10.183,5.399-14.557,0.41	c-4.374-4.988-1.025-11.481,1.23-15.104C293.966,430.785,310.779,415.271,342.217,389.574"/><path id="path4014" style="fill:#221E1F;" d="M369.185,372.399c0,0-1.913-4.853,1.025-7.586c0.819-0.82,2.665-1.708,4.032-1.777	c1.367,0,2.324,0.547,4.374,0.82c1.845,0.342,35.812-4.579,35.812-4.579s10.525-1.64,16.266,4.306	c4.854,5.126-3.963,14.557-3.963,14.557s-29.389,30.14-30.414,30.481c0,0,8.27,0.889,10.594,1.162s15.65,2.528,20.23,1.845	c4.578-0.683,5.604-0.819,6.15-0.956c0.615-0.205,3.485-1.025,4.237,1.366c0.819,2.461-2.118,6.083-10.319,9.705	c-8.27,3.623-20.367,3.964-25.492,3.759c-5.059-0.341-19.342-0.956-24.535-0.546c-5.264,0.409-10.799,1.845-11.414,1.845	c-0.752,0.068-6.014-0.273-3.008-8.475c3.008-8.201,11.482-14.284,11.482-14.284l33.898-27.679c0,0-28.773,3.622-33.488,1.64	C372.465,377.115,369.8,374.723,369.185,372.399"/><path id="path4018" style="fill:#221E1F;" d="M211.79,518.258c7.107-1.298,19.136-2.802,19.136-2.802s24.467-55.837,34.65-56.179	c10.184-0.341-9.978,50.984-9.978,50.984l29.935-6.355c0,0,6.971-24.399,13.6-35.471c6.561-11.071,8.748-11.481,9.842-11.481	c1.093,0,5.467,0.205,4.647,5.33c-0.82,5.127-6.083,35.607-6.083,35.607l8.27-3.075c0,0,1.914-0.957,3.007,0.82	c1.093,1.845-1.914,4.169-1.914,4.169l-11.687,7.586c0,0-8.064,35.129-11.208,39.845c-3.144,4.715-6.971,7.449-10.73,7.176	c-3.69-0.273-7.381-3.964-7.04-12.507c0.273-8.543,3.759-20.708,3.964-21.665c0,0-27.201,10.866-31.37,11.276	c0,0-9.09,36.563-11.823,41.28c-2.666,4.715-8.406,7.791-12.985,7.244c-6.219-0.752-7.108-9.363-7.176-14.489	c-0.069-5.126,3.896-21.87,7.039-31.506c0,0-14.01-1.504-16.402-4.853c0,0-2.05-2.393-1.504-6.22	C206.595,519.078,211.79,518.258,211.79,518.258"/><path id="path4022" style="fill:#FCC607;" d="M387.932,538.133c0,0,40.869-12.576,65.541-15.378	c24.672-2.87,35.949-3.622,35.949-3.622s2.46-0.547,3.007,2.188c0.479,2.528-3.349,3.075-3.349,3.075	c-75.451,22.622-128.691,45.38-134.979,48.046c-5.946,2.392-82.627,36.085-82.627,36.085s-9.432,3.417-17.086,2.05	c-7.723-1.366-9.227-4.92-9.842-8.406c0,0-2.255-7.859,8.885-11.618c10.251-3.485,37.726-15.787,37.726-15.787l72.24-28.636	L387.932,538.133L387.932,538.133z"/><path id="path4026" style="fill:#221E1F;" d="M484.358,382.33c-0.615,1.64-0.82,4.101-0.82,4.101s-9.637,5.536-14.01,7.245	c-4.512,1.777-10.047,1.435-10.047,1.435c5.535-18.794,29.114-22.485,29.114-22.485S484.973,380.758,484.358,382.33 M519.555,394.153c-0.342-1.367-7.791-2.255-10.525-2.529c-2.734-0.205-5.125-1.572-6.287-4.715	c-1.094-3.007,2.869-12.507,4.646-19.205c1.846-6.698-1.846-9.09-3.963-9.295c-2.051-0.205-4.648,1.709-4.648,1.709	c-27.405-5.741-58.434,23.236-60.211,36.085c-1.298,9.363,1.367,15.993,9.158,17.633c7.723,1.64,14.763-1.162,20.846-3.554	c6.014-2.255,18.043-11.55,18.043-11.55c1.161,2.939,7.654,5.877,13.6,6.083c5.945,0.273,16.266-4.511,18.043-5.741	C520.033,397.912,519.965,395.52,519.555,394.153"/><path id="path4030" style="fill:#009867;" d="M310.115,331.967c0,0,3.144-1.572,4.442-0.205s0.547,3.417-0.479,5.262	c-1.025,1.846-15.446,24.125-20.298,28.431c-3.076,2.666-7.45,3.144-10.867,1.093c-3.485-1.982-3.007-8.68-1.777-11.481	c1.23-2.802,5.331-10.662,13.805-15.924C303.349,333.949,310.115,331.967,310.115,331.967"/><path id="path4034" style="fill:#EE1C23;" d="M497.78,302.518l-6.082-4.237c-17.223-13.464-87.07-41.143-87.07-41.143	s-4.92-11.071-7.723-16.471c-7.859-15.172-19.682-27.132-20.229-27.542c-0.615-0.342-1.162-0.342-1.162-0.342l-0.547,0.137	l-20.504,5.467l-47.02,13.601c0,0-32.258,10.115-33.762,10.662c-1.503,0.615-2.597,1.64-2.597,1.64s-11.003,18.931-11.892,21.118	c-0.957,2.187-13.6,26.654-13.6,26.654l-31.438,14.83c-2.87,1.572-2.87,1.436-24.604,14.558l-26.312,18.384	c0,0-24.946,18.863-26.996,20.776c-2.051,1.845-4.374,5.877-2.188,9.363c2.119,3.485,7.518,2.871,7.518,2.871l25.219-6.63	l50.643-12.849l60.279-12.575l8.27-1.435c1.777-1.64,3.827-3.28,6.151-4.715c8.064-4.989,14.694-7.176,16.197-7.655	c3.144-1.435,7.244-1.777,10.046,1.093c1.162,1.162,2.187,3.007,2.119,5.536l3.417-0.615h0.136l64.448-8.338	c0,0,41.144-4.169,54.949-4.579c33.352-1.025,49.412-6.014,49.412-6.014c1.367-0.615,5.877-2.187,6.766-5.877	S497.78,302.518,497.78,302.518"/><path id="path4038" style="fill:#221E1F;" d="M409.596,479.378c0,0-17.564,0.068-17.975-6.493	c-0.409-6.562,7.04-7.996,10.389-6.288c0,0,1.914,0.41,3.76,0.137c1.845-0.273,11.003-1.913,11.003-1.913	s13.806-22.349,16.334-24.672c0,0,2.733-3.69,7.108-0.752c4.373,3.007,1.229,9.909,1.229,9.909l-5.741,11.619l41.348-7.723	c0,0,2.529-0.615,3.008,1.436c0.41,1.708-3.965,3.621-3.965,3.621s-42.577,17.086-47.088,17.838l-11.756,31.78l-9.636,28.567	c0,0-1.161,2.323-3.554,2.187c-2.393-0.068-3.555-4.236-3.623-5.262c-0.137-1.025-1.024-16.061,0.752-26.176	c1.777-10.114,8.406-27.61,8.406-27.61"/><path id="path4042" style="fill:#221E1F;" d="M325.104,491.487c0,0-1.367-3.143-4.238-4.578c-2.87-1.504-3.349-2.939-1.982-4.442	c1.23-1.436,6.972-3.007,12.712-1.846c5.809,1.094,9.773,8.064,10.252,12.849s-0.137,12.644-3.35,20.913	c0,0,25.561-15.924,30.755-24.604c0,0,6.356-12.985,9.295-15.309c0,0,5.946-4.511,8.475,2.255c0,0,0.205,5.331-1.708,16.061	c-1.914,10.73-2.051,31.507-1.709,32.122c0.342,0.684,2.802,4.101-1.094,6.355c0,0-2.734,0.889-6.629-2.255	c-3.896-3.144-10.662-9.021-10.32-20.845c0,0-12.233,17.633-22.553,22.279c-10.32,4.648-14.764,5.126-21.255,0.273	c-6.493-4.783-1.982-19.614-1.982-19.614s5.126-15.445,5.195-15.787C325.035,494.905,325.719,492.786,325.104,491.487"/><path id="path4046" style="fill:#221E1F;" d="M245.873,285.876c-0.068,0.273-0.615,0.342-1.094,0.137	c-0.547-0.205-1.162-0.82-0.615-2.255c0.479-1.504,12.507-26.244,20.367-39.503c0,0,0.751-2.255,3.827-3.212	c3.007-0.957,79.825-22.963,79.825-22.963l19.888-5.126c0,0,3.76-0.615,5.126,3.281c1.299,3.896-2.46,5.536-3.28,5.809	c-0.752,0.341-46.952,14.831-46.952,14.831l-51.941,12.233C271.023,249.107,246.01,285.671,245.873,285.876"/><path id="path4050" style="fill:#221E1F;" d="M385.807,210.91c0,0-0.273-0.684,0.341-0.957c0.615-0.273,1.094,0.615,1.094,0.615	s5.263,9.637,5.946,11.755s11.959,33.283,11.959,33.283s38.273,11.14,40.255,11.687c2.05,0.546,43.534,15.104,64.653,26.039	c0,0,1.982,0.957,2.188,1.093s2.459,2.324,1.366,5.058c-1.024,2.666-3.759,3.144-4.647,3.076s-5.672-1.914-5.672-1.914	s-76.066-27.338-95.818-32.053c0,0-9.91-3.281-11.346-6.424c-1.366-3.144-3.895-19.751-3.895-19.751L385.807,210.91z"/><path id="path4054" style="fill:#221E1F;" d="M476.485,305.983c-1.436-7.45-14.011-7.859-15.855-7.654	c-1.846,0.136-127.324,16.676-135.662,18.042c-45.38,7.449-123.292,26.996-123.292,26.996l-47.772,14.079	c0.889-1.777,39.093-28.773,41.348-30.481c2.255-1.708,46.542-28.909,46.542-28.909s3.554-1.367,2.392-3.554	c-0.957-1.981-2.802-1.367-2.802-1.367s-2.734,1.162-10.662,4.511c-15.377,6.561-40.049,21.392-40.049,21.392	c-19.478,10.798-60.348,43.945-60.348,43.945s-4.032,2.734-1.914,7.654c2.05,4.989,7.586,4.374,7.586,4.374l59.322-15.992	c4.374-1.982,81.807-17.77,81.807-17.77l8.406-1.503c1.914-1.777,4.032-3.554,6.629-5.125c7.996-4.989,14.625-7.176,16.129-7.655	c3.144-1.367,7.313-1.777,10.047,1.094c1.23,1.23,2.323,3.144,2.187,5.809l3.417-0.547l0.068-0.068	c44.082-7.586,141.129-14.01,141.129-14.01C468.694,318.695,478.33,315.483,476.485,305.983"/><path id="path4058" style="fill:#221E1F;" d="M490.365,538.57h0.889c1.024,0,1.98-0.41,1.98-1.367c0-0.684-0.546-1.367-1.98-1.367	c-0.41,0-0.684,0-0.889,0.068V538.57z M490.365,542.943h-1.23v-7.859c0.615-0.137,1.23-0.205,2.188-0.205	c1.229,0,1.98,0.205,2.459,0.547c0.479,0.41,0.752,0.889,0.752,1.641c0,1.094-0.684,1.709-1.572,1.914v0.068	c0.684,0.137,1.162,0.751,1.367,1.981c0.137,1.23,0.342,1.709,0.479,1.913h-1.299c-0.205-0.204-0.41-0.956-0.547-1.981	c-0.204-1.025-0.683-1.436-1.707-1.436h-0.889V542.943L490.365,542.943z M491.663,532.829c-3.075,0-5.673,2.665-5.673,6.014	s2.598,6.015,5.741,6.015s5.673-2.666,5.673-6.015s-2.529-6.014-5.673-6.014H491.663L491.663,532.829z M491.732,531.735	c3.896,0,6.972,3.144,6.972,7.107c0,4.032-3.076,7.108-7.04,7.108c-3.827,0-6.972-3.076-6.972-7.108	c0-3.964,3.145-7.107,6.972-7.107H491.732z"/></g></svg>