<?xml version="1.0" encoding="utf-8"?>
<!-- Generator: Adobe Illustrator 18.1.1, SVG Export Plug-In . SVG Version: 6.00 Build 0)  -->
<svg version="1.1" id="Layer_1" xmlns:sketch="http://www.bohemiancoding.com/sketch/ns"
	 xmlns="http://www.w3.org/2000/svg" xmlns:xlink="http://www.w3.org/1999/xlink" x="0px" y="0px" viewBox="-54 162 652 238"
	 enable-background="new -54 162 652 238" xml:space="preserve">
<title>pm-logo-new</title>
<desc>Created with Sketch.</desc>
<g id="Page-1" sketch:type="MSPage">
	<g id="pm-logo-new" transform="translate(9.000000, 9.000000)" sketch:type="MSLayerGroup">
		<g id="Group-Copy-2" sketch:type="MSShapeGroup">
			<g>
				<g id="Stroke-1">
					<path fill="#78D64B" d="M28.6,332.2c-33.9,0-61.6-27.7-61.6-61.7s27.6-61.7,61.6-61.7c33.9,0,61.6,27.7,61.6,61.7
						S62.5,332.2,28.6,332.2z M28.6,216.7c-29.6,0-53.7,24.2-53.7,53.8s24.1,53.8,53.7,53.8s53.7-24.2,53.7-53.8
						C82.3,240.9,58.2,216.7,28.6,216.7z"/>
				</g>
				<path id="Fill-2" fill="#78D64B" d="M44.4,235.9H30.4v71.9h8.5v-26.9h5.5c11.6,0,13.2-1.7,13.2-13.6v-18.4
					C57.5,237.5,55.6,235.9,44.4,235.9L44.4,235.9z M49.9,260.9v6.9c0,4.5-1.2,5.4-5.9,5.4h-5.2v-30.3h5.2c4.9,0,5.9,1.4,5.9,5.7
					V260.9L49.9,260.9z"/>
				<path id="Fill-3" fill="#78D64B" d="M-1,271.5c0-15.3,14.5-27.8,21.7-28.1v-7.8C9,235.8-8.6,251.8-8.6,271.4S9,307,20.8,307.3
					v-7.8C13.4,299.3-1,286.8-1,271.5"/>
				<path id="Fill-4" fill="#78D64B" d="M14.6,271.5c0-6.7,3.9-11.4,6.2-11.9v-7.8C16.3,252.1,7,260.6,7,271.5
					c0,10.9,9.3,19.4,13.8,19.7v-7.8C18.5,282.9,14.6,278.2,14.6,271.5"/>
			</g>
		</g>
		<g id="Group" transform="translate(348.622951, 52.000000)" sketch:type="MSShapeGroup">
			<path id="Shape" fill="#243A54" d="M-191.9,209.3c1.1,3.3,1.5,6.4,1.5,12.2c0,5.9-0.5,8.9-1.5,12.2c-2.3,6.9-7.6,10.5-15,10.5
				c-5.8,0-9.4-2.1-11.5-5.1h-0.1v11c0,0.4,0.2,0.5,0.5,0.5h3.9c0.5,0,0.9,0.4,0.9,0.9v7c0,0.5-0.4,0.9-0.9,0.9h-18.9
				c-0.5,0-0.9-0.4-0.9-0.9v-7c0-0.5,0.4-0.9,0.9-0.9h3.9c0.4,0,0.5-0.2,0.5-0.5v-40.9c0-0.4-0.2-0.5-0.5-0.5h-3.9
				c-0.5,0-0.9-0.4-0.9-0.9v-7c0-0.5,0.4-0.9,0.9-0.9h13.6c0.5,0,0.9,0.4,0.9,0.9v3.2h0.1c2.1-3,5.7-5.1,11.5-5.1
				C-199.6,198.9-194.1,202.4-191.9,209.3L-191.9,209.3z M-217.6,213.5c-0.6,2-0.9,4.1-0.9,8.1c0,4,0.3,6.1,0.9,8.1
				c1.2,3.6,4,5.6,8.1,5.6c4,0,6.8-2,8-5.6c0.6-2,0.9-4.1,0.9-8.1c0-4-0.3-6.1-0.9-8.1c-1.2-3.6-4-5.6-8-5.6
				C-213.6,207.9-216.5,209.9-217.6,213.5L-217.6,213.5z"/>
			<path id="Shape_1_" fill="#243A54" d="M-171.7,182.1c0.5,0,0.9,0.4,0.9,0.9v47.5c0,3,1.2,4,3.8,4h2c0.5,0,0.9,0.4,0.9,0.9v7.3
				c0,0.5-0.4,0.9-0.9,0.9h-4c-8.5,0-11.9-4.3-11.9-12.7v-39.4c0-0.4-0.2-0.5-0.5-0.5h-3.9c-0.5,0-0.9-0.4-0.9-0.9v-7
				c0-0.5,0.4-0.9,0.9-0.9H-171.7L-171.7,182.1z"/>
			<path id="Shape_2_" fill="#243A54" d="M-122.3,214v19.9c0,0.4,0.2,0.5,0.5,0.5h3.9c0.5,0,0.9,0.4,0.9,0.9v7
				c0,0.5-0.4,0.9-0.9,0.9h-12.9c-0.5,0-0.9-0.4-0.9-0.9v-3.1h-0.1c-2.1,3-6,5-12,5c-7.8,0-14.5-4.2-14.5-13.3
				c0-9.4,6.7-13.8,17.3-13.8h8.6c0.4,0,0.5-0.2,0.5-0.5v-1.7c0-5-1.9-7.6-8.9-7.6c-1.5,0-3.5,0.3-4.7,0.5c-0.4,0.1-0.5,0.3-0.5,0.6
				v3.9c0,0.5-0.4,0.9-0.9,0.9h-7.9c-0.5,0-0.9-0.4-0.9-0.9v-9.2c0-0.5,0.2-0.9,0.7-1.2c3.8-1.8,8.9-3.1,14.5-3.1
				C-127.1,198.9-122.3,203.4-122.3,214L-122.3,214z M-139.4,224.6c-6.4,0-9.3,1.9-9.3,6c0,3.6,2.6,5.5,7.4,5.5
				c6.1,0,9.4-2.4,9.4-7.4v-3.5c0-0.4-0.2-0.5-0.5-0.5H-139.4L-139.4,224.6z"/>
			<path id="Shape_3_" fill="#243A54" d="M-78.5,202.3c0.5,0.3,0.7,0.6,0.7,1.2v9.9c0,0.5-0.4,0.9-0.9,0.9h-7.6
				c-0.5,0-0.9-0.4-0.9-0.9v-4c0-0.4-0.1-0.5-0.5-0.6c-0.9-0.5-3.2-0.9-5.5-0.9c-4.6,0-7.6,1.9-8.9,5.7c-0.7,2.1-0.9,4.7-0.9,8
				c0,3.3,0.2,6,0.9,8.1c1.2,3.7,4.3,5.6,8.9,5.6c2.7,0,4.6-0.4,5.5-0.8c0.4-0.2,0.5-0.3,0.5-0.6v-4c0-0.5,0.4-0.9,0.9-0.9h7.6
				c0.5,0,0.9,0.4,0.9,0.9v10c0,0.5-0.2,0.9-0.7,1.2c-4,2.1-9,3.3-14.9,3.3c-9.4,0-15.9-4-18.4-11.7c-0.9-2.7-1.4-6.4-1.4-11
				s0.5-8,1.4-10.7c2.5-7.7,9.3-12,18.4-12C-87.5,198.9-82.1,200.3-78.5,202.3L-78.5,202.3z"/>
			<path id="Shape_4_" fill="#243A54" d="M-34.6,210.9c1,3.1,1.4,6,1.4,13.1c0,0.5-0.4,0.9-1,0.9h-26.7c-0.4,0-0.5,0.2-0.5,0.5
				c0,1.2,0.3,2.3,0.6,3.3c1.4,4.2,4.9,6.6,9.7,6.6s8-1.8,10.2-4.1c0.5-0.5,0.9-0.5,1.4-0.2l5.3,4.7c0.5,0.4,0.5,0.8,0.1,1.2
				c-3.7,4.3-9.8,7.4-17.8,7.4c-9.2,0-15.7-4.5-18.1-12.1c-0.9-2.8-1.5-6.1-1.5-10.6s0.5-7.9,1.4-10.7c2.4-7.6,9.1-12,17.7-12
				C-43.5,198.9-37,203.5-34.6,210.9L-34.6,210.9z M-60.9,213c-0.4,1.1-0.5,2.1-0.5,3.7c0,0.4,0.2,0.5,0.5,0.5h17
				c0.4,0,0.5-0.2,0.5-0.5c0-1.5-0.2-2.6-0.5-3.7c-1.2-3.5-4.4-5.6-8.5-5.6C-56.5,207.4-59.7,209.6-60.9,213L-60.9,213z"/>
			<path id="Shape_5_" fill="#243A54" d="M40.6,215v18.9c0,0.4,0.2,0.5,0.5,0.5h3.7c0.5,0,0.9,0.4,0.9,0.9v7c0,0.5-0.4,0.9-0.9,0.9
				H26.1c-0.5,0-0.9-0.4-0.9-0.9v-7c0-0.5,0.4-0.9,0.9-0.9H30c0.4,0,0.5-0.2,0.5-0.5v-16.6c0-5.6-2.7-9.4-8.1-9.4
				c-5.2,0-8.1,3.9-8.1,9.4v16.6c0,0.4,0.2,0.5,0.5,0.5h3.9c0.5,0,0.9,0.4,0.9,0.9v7c0,0.5-0.4,0.9-0.9,0.9H-0.1
				c-0.5,0-0.9-0.4-0.9-0.9v-7c0-0.5,0.4-0.9,0.9-0.9h3.9c0.4,0,0.5-0.2,0.5-0.5v-16.6c0-5.6-2.7-9.4-8.1-9.4
				c-5.2,0-8.1,3.9-8.1,9.4v16.6c0,0.4,0.2,0.5,0.5,0.5h3.9c0.5,0,0.9,0.4,0.9,0.9v7c0,0.5-0.4,0.9-0.9,0.9h-18.9
				c-0.5,0-0.9-0.4-0.9-0.9v-7c0-0.5,0.4-0.9,0.9-0.9h3.9c0.4,0,0.5-0.2,0.5-0.5v-24.6c0-0.4-0.2-0.5-0.5-0.5h-3.9
				c-0.5,0-0.9-0.4-0.9-0.9v-7c0-0.5,0.4-0.9,0.9-0.9h13.5c0.5,0,0.9,0.4,0.9,0.9v3.1h0.1c1.9-2.7,5.7-5,11.2-5
				c5,0,9.2,2.1,11.8,5.7h0.1c3.3-3.6,7.6-5.7,13.7-5.7C35,198.9,40.6,205.8,40.6,215L40.6,215z"/>
			<path id="Shape_6_" fill="#243A54" d="M85.7,210.9c1,3.1,1.4,6,1.4,13.1c0,0.5-0.4,0.9-1,0.9H59.5c-0.4,0-0.5,0.2-0.5,0.5
				c0,1.2,0.3,2.3,0.6,3.3c1.4,4.2,4.9,6.6,9.7,6.6c4.8,0,8-1.8,10.2-4.1c0.5-0.5,0.9-0.5,1.4-0.2l5.3,4.7c0.5,0.4,0.5,0.8,0.1,1.2
				c-3.7,4.3-9.8,7.4-17.8,7.4c-9.2,0-15.7-4.5-18.1-12.1c-0.9-2.8-1.5-6.1-1.5-10.6s0.5-7.9,1.4-10.7c2.4-7.6,9.1-12,17.7-12
				C76.8,198.9,83.3,203.5,85.7,210.9L85.7,210.9z M59.4,213c-0.4,1.1-0.5,2.1-0.5,3.7c0,0.4,0.2,0.5,0.5,0.5h17
				c0.4,0,0.5-0.2,0.5-0.5c0-1.5-0.2-2.6-0.5-3.7c-1.2-3.5-4.4-5.6-8.5-5.6C63.9,207.4,60.6,209.6,59.4,213L59.4,213z"/>
			<path id="Shape_7_" fill="#243A54" d="M105.7,186.6c0.5,0,0.9,0.4,0.9,0.9v11.9c0,0.4,0.2,0.5,0.5,0.5h5.7c0.5,0,0.9,0.4,0.9,0.9
				v7c0,0.5-0.4,0.9-0.9,0.9h-5.7c-0.4,0-0.5,0.2-0.5,0.5v21.2c0,3.1,1.2,4,4,4h2.3c0.5,0,0.9,0.4,0.9,0.9v7.3
				c0,0.5-0.4,0.9-0.9,0.9h-4.3c-8.7,0-12-4.2-12-12.7v-21.7c0-0.4-0.2-0.5-0.5-0.5h-2.9c-0.5,0-0.9-0.4-0.9-0.9v-7
				c0-0.5,0.4-0.9,0.9-0.9H96c0.4,0,0.5-0.2,0.5-0.5v-11.9c0-0.5,0.4-0.9,0.9-0.9L105.7,186.6L105.7,186.6z"/>
			<path id="Shape_8_" fill="#243A54" d="M155.5,210.9c1,3.1,1.4,6,1.4,13.1c0,0.5-0.4,0.9-1,0.9h-26.7c-0.4,0-0.5,0.2-0.5,0.5
				c0,1.2,0.3,2.3,0.6,3.3c1.4,4.2,4.9,6.6,9.7,6.6s8-1.8,10.2-4.1c0.5-0.5,0.9-0.5,1.4-0.2l5.3,4.7c0.5,0.4,0.5,0.8,0.1,1.2
				c-3.7,4.3-9.8,7.4-17.8,7.4c-9.2,0-15.7-4.5-18.1-12.1c-0.9-2.8-1.5-6.1-1.5-10.6s0.5-7.9,1.4-10.7c2.4-7.6,9.1-12,17.7-12
				C146.6,198.9,153.1,203.5,155.5,210.9L155.5,210.9z M129.2,213c-0.4,1.1-0.5,2.1-0.5,3.7c0,0.4,0.2,0.5,0.5,0.5h17
				c0.4,0,0.5-0.2,0.5-0.5c0-1.5-0.2-2.6-0.5-3.7c-1.2-3.5-4.4-5.6-8.5-5.6C133.6,207.4,130.4,209.6,129.2,213L129.2,213z"/>
			<path id="Shape_9_" fill="#243A54" d="M193.4,199.7c0.5,0.1,0.9,0.4,0.9,0.9v7.8c0,0.6-0.4,1.1-1.1,0.9c-1.4-0.3-3.5-0.7-5.3-0.7
				c-6.4,0-9.7,3.4-9.7,11.2v14.1c0,0.4,0.2,0.5,0.5,0.5h4.2c0.5,0,0.9,0.4,0.9,0.9v7c0,0.5-0.4,0.9-0.9,0.9h-19.3
				c-0.5,0-0.9-0.4-0.9-0.9v-7c0-0.5,0.4-0.9,0.9-0.9h3.9c0.4,0,0.5-0.2,0.5-0.5v-24.7c0-0.4-0.2-0.5-0.5-0.5h-3.9
				c-0.5,0-0.9-0.4-0.9-0.9v-7c0-0.5,0.4-0.9,0.9-0.9h13.6c0.5,0,0.9,0.4,0.9,0.9v4.5h0.1c1.8-3,5.3-6,10.9-6
				C191,199.3,192.6,199.6,193.4,199.7L193.4,199.7z"/>
		</g>
	</g>
</g>
</svg>
