<?xml version="1.0" standalone="no"?><!DOCTYPE svg PUBLIC "-//W3C//DTD SVG 1.1//EN" "http://www.w3.org/Graphics/SVG/1.1/DTD/svg11.dtd"><svg width="100%" height="100%" viewBox="0 0 122 177" version="1.1" xmlns="http://www.w3.org/2000/svg" xmlns:xlink="http://www.w3.org/1999/xlink" xml:space="preserve" style="fill-rule:evenodd;clip-rule:evenodd;stroke-linejoin:round;stroke-miterlimit:1.41421;"><g id="Layer3"><g id="Layer1"><path d="M87.513,79.696c-13.786,-7.519 -25.466,-29.134 -25.516,-47.202c-0.013,-5.257 0.956,-9.821 2.788,-13.204c0.02,-0.036 0.04,-0.073 0.06,-0.109c0.288,-0.527 0.623,-0.966 0.949,-1.418c0.79,-1.04 1.672,-1.975 2.724,-2.77c0.016,-0.014 0.02,-0.036 0.032,-0.045c3.749,-2.634 8.789,-2.493 14.528,0.635c13.786,7.519 25.466,29.135 25.515,47.203c0.012,5.288 -0.953,9.877 -2.805,13.265c-3.641,6.661 -10.301,7.996 -18.275,3.645M11.217,102.937l-0.073,-23.914l44.47,-28.135l0.088,23.726l-44.485,28.323ZM23.395,158.829l-5.748,-3.142l40.4,-25.723l12.476,6.819l-40.394,25.727l-6.734,-3.681ZM83.298,138.05l-3.486,-32.919l27.044,-17.232l-0.038,-0.06c2.659,-1.798 4.996,-4.252 6.782,-7.518c2.604,-4.764 3.909,-10.655 3.894,-17.528c-0.059,-21.639 -13.311,-45.79 -30.169,-54.995c-8.696,-4.737 -17.118,-4.664 -23.486,-0.391l-0.029,-0.048l-48.928,31.169l0.032,0.057c-6.902,4.627 -10.688,13.538 -10.659,25.102l0.197,61.017l-0.229,31.195c-0.008,1.633 0.877,3.14 2.301,3.934c0.122,0.067 4.856,2.662 4.981,2.723l7.637,4.055l9.048,4.945c1.425,0.779 3.164,0.722 4.525,-0.148l48.934,-31.166c0.65,-0.408 1.159,-0.964 1.51,-1.606c0.097,-0.176 0.07,-0.403 0.139,-0.586Z" style="fill:url(#_Linear1);fill-rule:nonzero;"/></g></g><defs><linearGradient id="_Linear1" x1="0" y1="0" x2="1" y2="0" gradientUnits="userSpaceOnUse" gradientTransform="matrix(-42.5938,-166.507,166.507,-42.5938,71.1741,172.616)"><stop offset="0%" style="stop-color:#ff6f22;stop-opacity:1"/><stop offset="100%" style="stop-color:#ff2034;stop-opacity:1"/></linearGradient></defs></svg>