<?xml version="1.0" standalone="no"?><!DOCTYPE svg PUBLIC "-//W3C//DTD SVG 1.1//EN" "http://www.w3.org/Graphics/SVG/1.1/DTD/svg11.dtd"><svg width="100%" height="100%" viewBox="0 0 256 112" version="1.1" xmlns="http://www.w3.org/2000/svg" xmlns:xlink="http://www.w3.org/1999/xlink" xml:space="preserve" style="fill-rule:evenodd;clip-rule:evenodd;stroke-linejoin:round;stroke-miterlimit:1.41421;"><g id="Layer1"><g><path d="M9.607,70.386l0,40.568l-9.618,1.008l0.001,-85.214l16.621,-1.742c5.366,-0.562 9.6,0.563 12.701,3.375c3.101,2.811 4.652,6.761 4.652,11.85l0,10.56c0,6.97 -2.496,11.653 -7.235,14.659c-3.485,2.247 -9.108,4.096 -17.122,4.936ZM24.242,41.249c0,-5.297 -2.474,-7.687 -7.422,-7.168l-7.213,0.756l0,26.348l7.422,-0.778c4.809,-0.504 7.213,-3.37 7.213,-8.597l0,-10.561Z" style="fill:#000;fill-rule:nonzero;"/><path d="M38.353,108.046l0.002,-85.109l9.617,-1.008l-0.001,76.013l22.057,-2.312l-1.957,9.302l-29.718,3.114Z" style="fill:#000;fill-rule:nonzero;"/><path d="M109.189,100.518l-3.554,-16.565l-19.129,2.004c-0.907,3.72 -2.161,9.497 -3.764,17.333l-9.617,1.008l18.713,-87.07l9.617,-1.008l17.351,83.291l-9.617,1.007ZM96.437,39.957l-7.945,36.591l15.366,-1.61c-1.533,-7.228 -4.007,-18.888 -7.421,-34.981Z" style="fill:#000;fill-rule:nonzero;"/><path d="M140.21,54.504l-0.001,42.764l-10.662,1.117l0,-42.763l-15.784,-40.692l10.244,-1.073c1.394,3.757 4.948,13.004 10.663,27.74l10.035,-29.909l10.14,-1.063l-14.635,43.879Z" style="fill:#000;fill-rule:nonzero;"/><path d="M160.099,95.288l0.001,-85.318l31.36,-3.286l0,9.096l-21.325,2.235l0,26.871l17.894,-1.875l0,9.201l-17.894,1.875l-0.001,31.053l21.325,-2.235l0,9.097l-31.36,3.286Z" style="fill:#000;fill-rule:nonzero;"/><path d="M224.811,47.122l12.597,40.065l-9.618,1.007l-11.916,-39.423l-6.586,0.69l0,40.568l-9.617,1.008l0.001,-85.214l16.969,-1.778c5.296,-0.555 9.478,0.575 12.544,3.391c3.066,2.815 4.599,6.767 4.599,11.855l0,10.56c0,8.365 -1.694,12.959 -8.973,17.271ZM216.85,13.119l-7.561,0.793l-0.001,26.348l7.666,-0.803c4.739,-0.497 7.108,-3.289 7.108,-8.378l0.001,-10.978c0,-5.158 -2.405,-7.485 -7.213,-6.982Z" style="fill:#000;fill-rule:nonzero;"/><path d="M247.462,68.951l-3.623,-67.756l11.29,-1.183l-3.625,68.516l-4.042,0.423ZM243.838,86.304l3.624,-9.72l4.042,-0.424l3.624,8.961l-3.572,0.374l-7.718,0.809Z" style="fill:#000;fill-rule:nonzero;"/></g></g></svg>