<?xml version="1.0" encoding="utf-8"?>
<!-- Generator: Adobe Illustrator 19.1.0, SVG Export Plug-In . SVG Version: 6.00 Build 0)  -->
<svg version="1.1" id="Layer_1" xmlns="http://www.w3.org/2000/svg" xmlns:xlink="http://www.w3.org/1999/xlink" x="0px" y="0px"
	 viewBox="0 0 300 150" style="enable-background:new 0 0 300 150;" xml:space="preserve">
<style type="text/css">
	.st0{fill:#00AEEF;}
</style>
<g>
	<g>
		<path class="st0" d="M178.8,90.7c1.7-2.6,3.3-5.2,5-7.7c1.8-2.7,1.7-5.7,2.1-8.7c1.1-8.8,3.4-17.1,8.5-24.5
			c1.6-2.3,3.5-4.4,6.1-5.6c4.3-2.1,9.2-0.9,12.7,3.1c1,1.1,1.6,2.6,2.4,3.9c0.3,0.4,0.8,0.9,1.3,1c2.5,0.4,4.9,1.3,7,2.8
			c1.1,0.8,1.6,1.9,1.4,3.2c-0.5,3.2-0.9,6.4-1.3,9.6c-0.6,5.6-1.5,11.2-0.7,16.8c0.1,1,0.8,1.9,1.1,2.8c0.9-0.6,2.2-0.9,2.6-1.7
			c1.8-3.4,3.4-7,4.9-10.6c1-2.6,1.7-5.4,2.5-8.1c3-0.7,5.8,1.9,5.1,5c-1.5,7.3-3.6,14.4-7.6,20.8c-1.2,1.8-2.5,3.6-4.8,4.1
			c-2.8,0.6-5.3-0.5-7.4-2.1c-2.5-1.9-4.6-4.4-6.8-6.6c-0.3-0.3-0.5-0.6-0.8-1c-0.7,2.2-1.3,4.4-2.2,6.5c-0.8,1.7-1.7,3.5-3,4.9
			c-2.1,2.3-4.9,2.7-7.8,2c-4.6-1.2-7.9-4-10.3-8c-0.4-0.6-0.7-1.2-1.1-2c-1.3,1.8-2.5,3.6-3.9,5.2c-1.7,1.8-3.5,3.6-5.4,5.1
			c-0.8,0.7-1.2,1.4-1.4,2.4c-1.1,5-2,10-3.3,14.9c-1,3.8-2.6,7.3-5,10.5c-3.8,5.1-9.8,5.4-14.6,1.6c-0.8-0.6-1.7-1.1-2.6-1.3
			c-9.2-2.5-12.4-13.3-6-20.3c4.2-4.6,9.6-7.1,15.2-9.3c0.1,0,0.2,0,0.3-0.1c3.3-1.1,3.3-1.1,3.5-4.6c0.2-2.9,0.5-5.7,0.7-8.9
			c-1.2,2.9-2.2,5.4-3.4,8c-0.4,0.9-1,1.7-1.7,2.5c-2.4,2.7-5.2,3.2-9.2,1.7c-3.3-1.2-5.9-3.3-8-6c-0.2-0.3-0.4-0.5-0.6-0.8
			c-0.1-0.1-0.2-0.2-0.3-0.3c-0.7,1-1.3,2-2.1,3c-2.9,3.7-5.7,4.4-10,2.3c-3.5-1.7-6.1-4.3-8.4-7.3c-0.3-0.4-0.6-0.8-0.7-1
			c-1.3,2.9-2.4,5.9-3.9,8.6c-1.5,2.7-3.8,4.5-7,4.7c-1.1,0.1-2.3-0.3-3.3-0.7c-3.9-1.6-6.6-4.6-9-7.9c-0.1-0.2-0.3-0.4-0.4-0.6
			c0,0-0.1,0-0.1,0c-1.1,2-2,4-3.2,5.9c-2.2,3.6-4.4,4.2-8.3,2.7c-7.5-2.9-13-11.3-12.9-20.1c0.3-13,0.7-26,1.2-39
			c0.3-7.1,0.8-14.1,1.2-21.2c0.1-1.6,0.4-3.2,0.6-4.7c0.2-1,0.8-1.6,1.9-1.6c3.7,0.1,6.9,1.7,9.4,4.4c0.6,0.6,0.7,1.9,0.8,2.8
			c0.1,4,0.3,8.1,0.2,12.1c-0.4,15.9-1,31.8-1.4,47.7c-0.1,2.5-0.2,5-0.2,7.5c0,1.1,0,2.5,1.3,2.9c1.4,0.4,2-1,2.5-2
			c2.2-4.6,4-9.2,4.4-14.5c0.6-8.6,1.9-17.1,3.1-25.6c0.4-2.8,1.6-3.4,4.2-2.5c3.2,1.1,5.8,3.1,7.9,5.9c1.5,2,0.9,4.2,0.7,6.3
			c-0.6,9.1-1.3,18.2-1.9,27.2c-0.1,1.1,0.1,2.3,0.3,3.4c0.1,0.6,0.6,1.6,0.9,1.6c0.7-0.1,1.5-0.4,1.9-1c0.8-1.3,1.7-2.6,2.1-4.1
			c1.5-5.1,3.1-10.3,4.3-15.5c0.8-3.8,0.8-7.8,1.3-11.6c0.4-2.9,1.1-5.7,1.7-8.6c0.3-1.2,1-1.8,2.3-1.7c3.6,0.1,6.9,1.2,9.8,3.4
			c1,0.7,1.3,1.7,1.1,2.9c-1.2,9.4-2.5,18.8-2.2,28.3c0,1,0.3,2,0.5,3c0.3,1,1,1.2,1.9,0.7c0.5-0.3,1-0.7,1.3-1.1
			c1.8-2.6,3.1-5.3,3.3-8.7c0.6-10.4,3.4-20.3,9.4-28.9c1.7-2.5,3.9-4.6,6.7-5.7c4.4-1.8,9.3-0.5,12.6,3.4c1,1.2,1.6,2.6,2.5,3.9
			c0.3,0.4,0.7,0.8,1.2,1.1c0.5,0.3,1,0.5,1.6,0.7c4.8,1.6,6.1,5.4,6.1,9.9c-0.1,8.2-0.3,16.4-0.4,24.6c0,1.4-0.2,2.8-0.3,4.2
			C178.5,90.5,178.7,90.6,178.8,90.7z M165.7,55.2c-1.1,0.5-2.4,0.8-3.2,1.5c-1.3,1.1-2.5,2.5-3.4,3.9c-3.5,5.6-5.5,11.8-6.5,18.3
			c-0.4,2.8-0.4,5.7-0.2,8.6c0,0.9,0.9,2.3,1.6,2.4c0.8,0.1,2.1-0.7,2.7-1.4c0.9-1.1,1.7-2.4,2.2-3.7c1.9-5.7,3.8-11.5,5.5-17.2
			C165.6,63.7,166.4,59.7,165.7,55.2z M212,56.9c-1.4-0.4-2.7-0.1-3.7,0.8c-1.2,1.2-2.5,2.5-3.3,3.9c-4.2,7.7-6.2,16-6.4,24.7
			c0,1.1,0.2,2.3,0.6,3.4c0.6,2,2.1,2.4,3.4,0.8c1.1-1.2,2-2.7,2.6-4.3c1.4-4.3,2.8-8.6,3.8-13C210.2,67.9,211,62.5,212,56.9z
			 M162.6,106.9c-4.6,2.9-7.5,6.9-8.2,12.3c-0.2,1.7,0.1,3.4,1.8,4.8C160.6,119,161.5,112.9,162.6,106.9z"/>
		<path class="st0" d="M31.1,80.4c-0.2,4.8-0.5,9.5-0.7,14.2c-0.1,1.7-0.2,3.5-0.3,5.2c-0.1,1.3-0.9,2.2-2.2,2.2
			c-2.2-0.1-4.4-0.3-6.5-0.8c-3.5-0.9-5.5-3.5-5.6-7c-0.2-4.8,0-9.5,0-14.3c0-0.9-0.3-1.9-0.8-2.6c-1.9-2.9-1.6-5.7,0.9-8.2
			c0.3-0.3,0.4-0.7,0.4-1.1c0.3-3.7,0.5-7.4,0.8-11.1c0.3-4.2,0.8-8.4,1.2-12.6c0.1-0.9-0.1-1.5-0.7-2.2c-2.9-3.4-4.9-7.3-5.7-11.8
			c-0.3-1.5,0.3-2.7,1.4-3.7c3.4-3.2,7.6-5.2,11.9-6.8c4.5-1.7,9.1-2.8,13.9-2.8c7.6,0,14.5,3.6,17.8,11.4c0.5,1.3,1.2,2.2,2.5,2.9
			c5.5,3,8.6,7.7,9,14C69,54.6,65,62.1,58.1,68.3C51,74.5,41.3,78.6,31.1,80.4z M31.3,65.2c0.7-0.2,1-0.2,1.4-0.4
			c4.6-1.6,8.9-3.7,12.8-6.7c4.8-3.7,7.8-8.5,8-14.7c0.1-3.8-0.8-7.2-4.1-9.5c-0.4-0.3-1.1-0.4-1.6-0.4c-4.9,0.7-9.6,2.3-14.2,4.2
			c-2.6,1.1-5.2,2.3-8,3.6c1,0.5,1.6,0.9,2.3,1.2c1.7,1,2.9,2.3,2.9,4.4c0,2.9,0.4,5.9,0.5,8.8C31.4,59,31.3,62,31.3,65.2z"/>
	</g>
	<g>
		<path class="st0" d="M292.5,88.4c0.1-0.5,0.1-1,0.2-1.5c0.3-3.3,0.1-6.6-1.3-9.7c-1.2-2.7-3.1-4.5-6.2-5c-0.2,0-0.5-0.3-0.7-0.5
			c-1.5-1.7-3.8-2.3-5.9-1.6c-1.9,0.6-3.1,2-4.1,3.6c-2.3,3.9-3.1,8.1-3.2,12.5c-0.1,1.5-0.4,2.7-1.4,3.8c-0.5,0.6-1,1.2-1.5,1.7
			c-2.2,2.1-4.8,3.2-7.9,3c-2-0.1-3.4-1.2-3.8-3.1c-0.2-1-0.2-2,0-3c0.4-2.7,1.4-5.2,2.8-7.5c1-1.7,2.2-3.3,3.9-4.5
			c0.8,0.7,0.8,1.5,0.6,2.4c-0.4,1.9-1.4,3.5-2.5,5.1c-0.5,0.6-0.4,1.1,0.1,1.7c0.9,1.1,2.2,1.3,3.5,0.5c1.9-1.2,3.1-2.9,3.8-4.9
			c1.1-2.9,0.7-5.6-1.9-7.3c-0.2-0.1-0.3-0.5-0.4-0.7c-0.8-1.8-1.9-3.3-4-3.6c-1.9-0.2-3.5,0.5-5,1.6c-3.1,2.3-5.1,5.4-6.4,8.9
			c-1.1,2.9-1.5,5.9-0.7,8.9c0.3,1.2,1,2.4,1.5,3.6c0.9,2.6,2.3,4.8,4.4,6.6c1.5,1.3,3.2,2.3,5.3,2.2c2.5-0.1,4.7-1,6.5-2.7
			c1.5-1.4,2.8-3,4.2-4.5c0,0,0.1,0.1,0.1,0.2c1.3,2.5,3.3,4.2,6.1,4.7c0.2,0,0.5,0.2,0.7,0.4c1.4,1.6,3.2,1.7,5.1,1.1
			c1.9-0.6,3.3-1.9,4.4-3.6c0.8-1.2,1.5-2.5,2.2-3.8c0.2,0,0.3,0,0.4,0c0.3-1.8,0.8-3.5,1.3-5.2C292.8,88.3,292.7,88.5,292.5,88.4z
			 M284.6,79.6c-1.1,2.4-1.1,4.9-0.3,7.3c0.3,0.8,0.3,1.5,0,2.3c-0.6,2-1.2,4.1-2.4,5.8c-0.3,0.4-0.6,0.7-1,1
			c-0.6,0.5-1,0.4-1.3-0.3c-0.3-0.8-0.5-1.6-0.6-2.4c-0.1-0.6,0-1.3,0-1.9c0.1-4.1,0.6-8.2,2.2-12c0.3-0.8,0.8-1.5,1.2-2.2
			c0.3-0.4,0.7-0.7,1.2-1c0.8-0.4,1-0.3,1.4,0.5C285.4,77.8,285.1,78.6,284.6,79.6z"/>
		<path class="st0" d="M239,96.6c0-3.2,1.9-5.3,4.9-5.3c2.4,0,4.7,2.3,4.8,4.6c0,2.9-2.2,5.2-5.2,5.2C240.7,101.1,239,99.4,239,96.6
			z"/>
	</g>
</g>
</svg>
