<svg version="1.1" xmlns="http://www.w3.org/2000/svg" xmlns:xlink="http://www.w3.org/1999/xlink" width="390" height="87" viewBox="0 0 390 87">
<path id="name" d="M306.203,30.001 C306.203,26.395 305.353,23.584 303.653,21.569 C301.716,19.262 298.682,18.109 294.549,18.109 C282.855,18.109 282.855,18.109 282.855,18.109 L282.855,67.944 L290.272,67.944 L290.272,49.171 C290.272,49.171 294.549,49.171 294.549,49.171 C294.784,49.171 295.006,49.171 295.216,49.171 C299.712,67.944 299.712,67.944 299.712,67.944 L307.733,67.944 C307.733,67.944 302.240,46.188 302.240,46.188 C304.883,43.749 306.203,40.767 306.203,37.240 C306.203,37.240 306.203,30.001 306.203,30.001 zM297.747,40.461 C296.924,41.310 295.923,41.734 294.745,41.734 C290.272,41.734 290.272,41.734 290.272,41.734 L290.272,25.785 C290.272,25.785 294.745,25.785 294.745,25.785 C297.571,25.785 298.983,27.230 298.983,30.120 C298.983,37.398 298.983,37.398 298.983,37.398 C298.983,38.591 298.571,39.612 297.747,40.461 zM333.819,67.944 L333.819,60.387 L320.125,60.387 L320.125,46.785 L330.131,46.785 L330.131,39.228 L320.125,39.228 L320.125,25.626 L333.819,25.626 L333.819,18.069 L312.709,18.069 L312.709,67.944 L333.819,67.944 zM355.590,42.927 C355.040,42.344 353.902,41.323 352.176,39.864 C350.710,38.644 349.612,37.584 348.880,36.682 C346.943,34.323 345.976,32.003 345.976,29.722 C345.976,28.264 346.264,27.044 346.839,26.063 C347.545,24.844 348.578,24.233 349.940,24.233 C351.221,24.233 352.202,24.644 352.882,25.466 C353.824,26.607 354.399,28.197 354.609,30.239 C361.712,28.926 361.712,28.926 361.712,28.926 C361.528,26.752 360.986,24.829 360.083,23.159 C359.181,21.489 357.997,20.190 356.532,19.261 C354.648,18.068 352.386,17.471 349.744,17.471 C346.997,17.471 344.694,18.175 342.838,19.581 C339.829,21.916 338.325,25.353 338.325,29.892 C338.325,32.413 338.874,34.748 339.972,36.898 C340.993,38.809 342.732,40.972 345.192,43.387 C348.121,46.200 350.319,48.310 351.784,49.717 C353.641,51.760 354.570,53.818 354.570,55.887 C354.570,57.321 354.321,58.421 353.825,59.191 C352.856,60.757 351.561,61.567 349.940,61.620 C348.789,61.674 347.768,61.207 346.878,60.221 C345.675,58.915 344.916,56.810 344.603,53.905 C337.540,54.422 337.540,54.422 337.540,54.422 C337.697,57.074 338.240,59.428 339.169,61.483 C340.097,63.538 341.359,65.162 342.955,66.355 C344.864,67.813 347.271,68.543 350.176,68.543 C351.745,68.543 353.118,68.356 354.296,67.985 C356.493,67.297 358.193,66.116 359.397,64.446 C361.228,61.980 362.118,59.010 362.066,55.537 C362.040,54.132 361.673,52.541 360.967,50.765 C360.678,50.046 360.298,49.265 359.827,48.416 C358.833,46.613 357.420,44.783 355.590,42.927 zM255.005,18.109 L255.005,67.944 L262.421,67.944 L262.421,49.171 C262.421,49.171 266.698,49.171 266.698,49.171 C269.916,49.171 272.656,48.005 274.919,45.671 C277.182,43.338 278.314,40.528 278.314,37.240 C278.314,30.001 278.314,30.001 278.314,30.001 C278.314,26.581 277.319,23.770 275.332,21.569 C273.186,19.262 270.309,18.109 266.698,18.109 C266.698,18.109 255.005,18.109 255.005,18.109 zM269.897,40.461 C269.073,41.310 268.072,41.734 266.895,41.734 C262.421,41.734 262.421,41.734 262.421,41.734 L262.421,25.785 C262.421,25.785 266.895,25.785 266.895,25.785 C268.176,25.785 269.204,26.182 269.975,26.978 C270.746,27.774 271.132,28.821 271.132,30.120 C271.132,37.398 271.132,37.398 271.132,37.398 C271.132,38.591 270.720,39.612 269.897,40.461 zM388.071,48.416 C387.077,46.613 385.664,44.783 383.834,42.927 C383.284,42.344 382.146,41.323 380.420,39.864 C378.954,38.644 377.856,37.584 377.124,36.682 C375.187,34.323 374.220,32.003 374.220,29.722 C374.220,28.264 374.508,27.044 375.083,26.063 C375.789,24.844 376.822,24.233 378.184,24.233 C379.465,24.233 380.446,24.644 381.126,25.466 C382.068,26.607 382.643,28.197 382.853,30.239 C389.956,28.926 389.956,28.926 389.956,28.926 C389.772,26.752 389.230,24.829 388.328,23.159 C387.425,21.489 386.241,20.190 384.776,19.261 C382.892,18.068 380.630,17.471 377.988,17.471 C375.241,17.471 372.938,18.175 371.082,19.581 C368.073,21.916 366.569,25.353 366.569,29.892 C366.569,32.413 367.118,34.748 368.216,36.898 C369.237,38.809 370.976,40.972 373.436,43.387 C376.365,46.200 378.563,48.310 380.028,49.717 C381.885,51.760 382.814,53.818 382.814,55.887 C382.814,57.321 382.565,58.421 382.069,59.191 C381.100,60.757 379.805,61.567 378.184,61.620 C377.032,61.674 376.012,61.207 375.122,60.221 C373.919,58.915 373.160,56.810 372.847,53.905 C365.784,54.422 365.784,54.422 365.784,54.422 C365.941,57.074 366.484,59.428 367.413,61.483 C368.341,63.538 369.603,65.162 371.199,66.355 C373.108,67.813 375.515,68.543 378.420,68.543 C379.989,68.543 381.362,68.356 382.540,67.985 C384.737,67.297 386.437,66.116 387.641,64.446 C389.472,61.980 390.362,59.010 390.310,55.537 C390.282,54.130 389.916,52.539 389.210,50.763 C388.921,50.046 388.542,49.265 388.071,48.416 zM164.626,21.032 C162.324,23.352 161.173,26.170 161.173,29.484 C161.173,56.689 161.173,56.689 161.173,56.689 C161.173,59.951 162.317,62.748 164.607,65.081 C166.896,67.415 169.675,68.581 172.945,68.581 C176.163,68.581 178.922,67.428 181.225,65.121 C183.526,62.814 184.678,60.004 184.678,56.689 C184.678,39.269 184.678,39.269 184.678,39.269 L172.866,39.269 L172.866,46.826 L176.986,46.826 C176.986,46.826 176.986,56.622 176.986,56.622 C176.986,57.811 176.568,58.823 175.731,59.656 C174.893,60.489 173.887,60.905 172.710,60.905 C171.533,60.905 170.532,60.487 169.708,59.652 C168.884,58.817 168.472,57.802 168.472,56.609 C168.472,29.325 168.472,29.325 168.472,29.325 C168.472,28.132 168.884,27.112 169.708,26.262 C170.532,25.414 171.533,24.990 172.710,24.990 C173.887,24.990 174.894,25.414 175.731,26.262 C176.568,27.111 176.986,28.132 176.986,29.325 C176.986,35.172 176.986,35.172 176.986,35.172 L184.677,35.172 C184.677,35.172 184.677,29.484 184.677,29.484 C184.677,26.196 183.539,23.386 181.263,21.052 C178.988,18.719 176.215,17.552 172.945,17.552 C169.701,17.552 166.928,18.712 164.626,21.032 zM102.605,18.109 L102.605,67.944 L110.022,67.944 L110.022,49.171 C110.022,49.171 114.299,49.171 114.299,49.171 C117.516,49.171 120.257,48.005 122.520,45.671 C124.782,43.338 125.914,40.528 125.914,37.240 C125.914,30.001 125.914,30.001 125.914,30.001 C125.914,26.581 124.919,23.770 122.932,21.569 C120.787,19.262 117.909,18.109 114.299,18.109 C114.299,18.109 102.605,18.109 102.605,18.109 zM118.733,37.398 C118.733,38.591 118.321,39.612 117.497,40.461 C116.673,41.310 115.672,41.734 114.495,41.734 C110.022,41.734 110.022,41.734 110.022,41.734 L110.022,25.785 C110.022,25.785 114.495,25.785 114.495,25.785 C115.777,25.785 116.804,26.182 117.576,26.978 C118.347,27.773 118.734,28.821 118.734,30.120 C118.734,37.398 118.734,37.398 118.734,37.398 C118.734,37.398 118.733,37.398 118.733,37.398 zM138.783,18.069 L130.457,18.069 L130.457,67.944 L137.873,67.944 L137.873,36.007 L148.076,67.945 L156.041,67.945 L156.041,18.069 L148.625,18.069 L148.625,51.588 L138.783,18.069 zM219.156,67.944 L219.156,60.387 L205.462,60.387 L205.462,46.785 L215.468,46.785 L215.468,39.228 L205.462,39.228 L205.462,25.626 L219.156,25.626 L219.156,18.069 L198.045,18.069 L198.045,67.944 L219.156,67.944 zM242.024,18.109 L236.570,33.501 L231.077,18.109 L222.876,18.109 L232.528,42.887 L222.876,67.945 L230.838,67.945 L236.571,52.075 L242.263,67.945 L250.225,67.945 L240.573,42.888 L250.225,18.110 L242.024,18.110 L242.024,18.109 z" fill="#3C3C3C" />
<path id="logo" d="M21.833,8.190 C21.833,5.292 22.933,2.509 24.798,0.327 C10.766,2.450 0.000,14.752 0.000,29.614 C0.000,57.253 0.000,57.253 0.000,57.253 C0.000,69.839 7.724,80.583 18.610,84.870 C31.396,65.412 31.396,65.412 31.396,65.412 C26.604,64.629 21.833,59.558 21.833,53.377 C21.833,53.377 21.833,8.190 21.833,8.190 zM67.966,65.412 C76.569,78.504 76.569,78.504 76.569,78.504 C82.024,73.122 85.419,65.593 85.419,57.253 C85.419,29.614 85.419,29.614 85.419,29.614 C85.419,21.775 82.419,14.653 77.529,9.356 C77.529,53.377 77.529,53.377 77.529,53.377 C77.529,59.558 72.758,64.629 67.966,65.412 zM65.187,47.721 C62.166,47.721 59.717,50.206 59.717,53.271 C59.717,56.336 62.166,58.820 65.187,58.820 C68.208,58.820 70.656,56.336 70.656,53.271 C70.656,50.207 68.207,47.721 65.187,47.721 zM49.669,6.261 L49.681,6.261 L49.694,6.261 C49.694,6.261 55.734,6.261 55.734,6.261 C56.880,6.261 57.778,5.307 57.778,4.198 C57.778,0.606 57.778,0.606 57.778,0.606 C57.778,0.407 57.738,0.218 57.682,0.036 C57.224,0.014 56.763,0.000 56.299,0.000 C41.692,0.000 41.692,0.000 41.692,0.000 C41.629,0.193 41.585,0.395 41.585,0.606 C41.585,4.198 41.585,4.198 41.585,4.198 C41.584,5.307 42.483,6.261 43.629,6.261 C43.629,6.261 49.669,6.261 49.669,6.261 zM34.050,47.721 C31.029,47.721 28.580,50.206 28.580,53.271 C28.580,56.336 31.029,58.820 34.050,58.820 C37.070,58.820 39.519,56.336 39.519,53.271 C39.519,50.207 37.070,47.721 34.050,47.721 zM49.669,29.464 L49.681,29.464 L49.694,29.464 C49.694,29.464 64.637,29.464 64.637,29.464 C68.074,29.464 70.885,27.071 70.853,23.162 C70.853,15.027 70.853,15.027 70.853,15.027 C70.853,11.647 68.698,8.696 64.637,8.696 C49.694,8.696 49.694,8.696 49.694,8.696 L49.669,8.696 C49.669,8.696 34.726,8.696 34.726,8.696 C30.665,8.696 28.510,11.647 28.510,15.027 C28.510,23.162 28.510,23.162 28.510,23.162 C28.478,27.071 31.290,29.464 34.726,29.464 C34.726,29.464 49.669,29.464 49.669,29.464 zM49.694,71.994 L49.681,71.994 L49.669,71.994 L35.596,71.994 L33.273,75.449 L66.090,75.449 L63.767,71.994 L49.694,71.994 zM25.735,86.661 C26.846,86.792 27.974,86.867 29.120,86.867 C56.299,86.867 56.299,86.867 56.299,86.867 C61.675,86.867 66.707,85.380 71.029,82.796 C70.914,82.625 70.914,82.625 70.914,82.625 L28.449,82.625 C28.449,82.625 25.735,86.661 25.735,86.661 z" fill="#3C3C3C" />
</svg>
