<?xml version="1.0" encoding="utf-8"?><!-- Generator: Adobe Illustrator 16.0.0, SVG Export Plug-In . SVG Version: 6.00 Build 0) --><!DOCTYPE svg PUBLIC "-//W3C//DTD SVG 1.1//EN" "http://www.w3.org/Graphics/SVG/1.1/DTD/svg11.dtd"><svg version="1.1" id="Layer_1" xmlns="http://www.w3.org/2000/svg" xmlns:xlink="http://www.w3.org/1999/xlink" x="0px" y="0px" width="445.529px" height="401.074px" viewBox="75.247 261.708 445.529 401.074" enable-background="new 75.247 261.708 445.529 401.074" xml:space="preserve"><path fill="#EF4056" d="M114.219,261.708c-24.275,1.582-38.972,15.44-38.972,40.088v147.611	c0,119.893,119.242,214.114,222.393,213.37c115.986-0.837,223.137-98.779,223.137-213.37V301.796	c0-24.741-15.626-38.693-40.088-40.088H114.219z M208.162,381.787L297.64,466.8l89.571-85.013	c40.088-16.835,57.574,28.927,41.111,42.321L311.685,535.443c-3.813,3.628-24.183,3.628-27.996,0L167.051,424.107	C151.331,409.318,171.794,362.812,208.162,381.787L208.162,381.787z"/></svg>