<?xml version="1.0" encoding="UTF-8" standalone="no"?>
<svg
   xmlns:dc="http://purl.org/dc/elements/1.1/"
   xmlns:cc="http://creativecommons.org/ns#"
   xmlns:rdf="http://www.w3.org/1999/02/22-rdf-syntax-ns#"
   xmlns:svg="http://www.w3.org/2000/svg"
   xmlns="http://www.w3.org/2000/svg"
   xmlns:sodipodi="http://sodipodi.sourceforge.net/DTD/sodipodi-0.dtd"
   xmlns:inkscape="http://www.inkscape.org/namespaces/inkscape"
   xml:space="preserve"
   enable-background="new 0 0 280 103"
   viewBox="0 0 269.46899 98.814003"
   height="98.814003"
   width="269.46899"
   y="0px"
   x="0px"
   id="Layer_1"
   version="1.1"
   inkscape:version="0.48.4 r9939"
   sodipodi:docname="English_Pokémon_logo.svg"><metadata
     id="metadata105"><rdf:RDF><cc:Work
         rdf:about=""><dc:format>image/svg+xml</dc:format><dc:type
           rdf:resource="http://purl.org/dc/dcmitype/StillImage" /></cc:Work></rdf:RDF></metadata><sodipodi:namedview
     pagecolor="#ffffff"
     bordercolor="#666666"
     borderopacity="1"
     objecttolerance="10"
     gridtolerance="10"
     guidetolerance="10"
     inkscape:pageopacity="0"
     inkscape:pageshadow="2"
     inkscape:window-width="1280"
     inkscape:window-height="706"
     id="namedview103"
     showgrid="false"
     inkscape:zoom="4.1563223"
     inkscape:cx="134.7345"
     inkscape:cy="49.407001"
     inkscape:window-x="-8"
     inkscape:window-y="-8"
     inkscape:window-maximized="1"
     inkscape:current-layer="Layer_1" /><defs
     id="defs202" /><linearGradient
     gradientTransform="translate(-408,-677.5)"
     y2="714.04132"
     x2="416.7337"
     y1="732.71002"
     x1="426.75101"
     gradientUnits="userSpaceOnUse"
     id="SVGID_1_"><stop
       id="stop12"
       style="stop-color:#0070B6"
       offset="0" /><stop
       id="stop14"
       style="stop-color:#1D2C5E"
       offset="1" /></linearGradient><polygon
     transform="translate(-5.451,-1.686)"
     style="fill:url(#SVGID_1_)"
     id="polygon16"
     points="5.451,38.243 17.477,58.544 22.278,53.965 9.189,34.446 " /><polygon
     transform="translate(-5.451,-1.686)"
     style="fill:#0071b9"
     id="polygon18"
     points="184.009,22.288 183.544,24.964 189.296,23.108 188.579,19.83 " /><linearGradient
     gradientTransform="translate(-408,-677.5)"
     y2="680.94922"
     x2="561.64203"
     y1="694.57318"
     x1="548.92682"
     gradientUnits="userSpaceOnUse"
     id="SVGID_2_"><stop
       id="stop21"
       style="stop-color:#0070B6"
       offset="0" /><stop
       id="stop23"
       style="stop-color:#1D2C5E"
       offset="1" /></linearGradient><polygon
     transform="translate(-5.451,-1.686)"
     style="fill:url(#SVGID_2_)"
     id="polygon25"
     points="150.495,4.012 131.987,25.236 137.373,23.687 154.994,1.686 " /><polygon
     transform="translate(-5.451,-1.686)"
     style="fill:#1d2c5e"
     id="polygon27"
     points="249.507,33.031 254.05,30.61 252.752,41.986 " /><polygon
     transform="translate(-5.451,-1.686)"
     style="fill:#1d2c5e"
     id="polygon29"
     points="221.271,40.326 225.309,41.153 230.463,38.651 225.99,36.982 " /><linearGradient
     gradientTransform="translate(-408,-677.5)"
     y2="704.54773"
     x2="491.9368"
     y1="717.28607"
     x1="493.45309"
     gradientUnits="userSpaceOnUse"
     id="SVGID_3_"><stop
       id="stop32"
       style="stop-color:#0070B6"
       offset="0" /><stop
       id="stop34"
       style="stop-color:#1D2C5E"
       offset="1" /></linearGradient><polygon
     transform="translate(-5.451,-1.686)"
     style="fill:url(#SVGID_3_)"
     id="polygon36"
     points="82.049,28.247 82.695,41.43 88.331,39.153 86.644,25.782 " /><linearGradient
     gradientTransform="translate(-408,-677.5)"
     y2="703.336"
     x2="631.74219"
     y1="714.83398"
     x1="632.34772"
     gradientUnits="userSpaceOnUse"
     id="SVGID_4_"><stop
       id="stop39"
       style="stop-color:#125D9E"
       offset="0" /><stop
       id="stop41"
       style="stop-color:#1D2C5E"
       offset="1" /></linearGradient><polygon
     transform="translate(-5.451,-1.686)"
     style="fill:url(#SVGID_4_)"
     id="polygon43"
     points="225.641,24.313 221.105,26.761 221.271,40.326 225.837,37.986 227.27,31.42 " /><polygon
     transform="translate(-5.451,-1.686)"
     style="fill:#312370"
     id="polygon45"
     points="225.018,41.191 220.023,85.561 228.008,83.986 229.572,38.798 " /><polygon
     transform="translate(-5.451,-1.686)"
     style="fill:#21386e"
     id="polygon47"
     points="234.796,87.688 234.938,93.705 250.266,98.59 254.828,96.172 239.788,84.52 224.553,83.182 220.023,85.561 " /><polygon
     transform="translate(-5.451,-1.686)"
     style="fill:#21386e"
     id="polygon49"
     points="177.934,77.105 181.701,75.076 184.102,79.512 187.652,77.561 188.359,83.409 210.643,87.361 215.096,84.912 184.368,66.189 162.57,69.925 158.318,73.966 " /><linearGradient
     gradientTransform="translate(-408,-677.5)"
     y2="719.48871"
     x2="576.56763"
     y1="698.26068"
     x1="589.91107"
     gradientUnits="userSpaceOnUse"
     id="SVGID_5_"><stop
       id="stop52"
       style="stop-color:#125D9E"
       offset="0" /><stop
       id="stop54"
       style="stop-color:#1D2C5E"
       offset="1" /></linearGradient><polygon
     transform="translate(-5.451,-1.686)"
     style="fill:url(#SVGID_5_)"
     id="polygon56"
     points="170.838,22.514 166.377,24.969 158.318,73.966 162.832,71.621 170.568,44.11 " /><polygon
     transform="translate(-5.451,-1.686)"
     style="fill:#1d2c5e"
     id="polygon58"
     points="135.24,29.081 131.686,30.974 131.985,32.159 140.443,26.786 136.747,22.82 131.987,25.236 " /><polygon
     transform="translate(-5.451,-1.686)"
     style="fill:#21386e"
     id="polygon60"
     points="144.957,86.958 108.617,68.957 113.179,65.508 149.479,84.516 " /><polygon
     transform="translate(-5.451,-1.686)"
     style="fill:#1d2c5e"
     id="polygon62"
     points="112.032,19.963 106.525,30.406 112.344,28.644 116.543,17.516 " /><linearGradient
     gradientTransform="translate(-413.451,-679.186)"
     y2="750.20251"
     x2="480.91931"
     y1="732.30957"
     x1="471.82129"
     gradientUnits="userSpaceOnUse"
     id="SVGID_6_"><stop
       id="stop65"
       style="stop-color:#105FA1"
       offset="0" /><stop
       id="stop67"
       style="stop-color:#1D2C5E"
       offset="1" /></linearGradient><path
     style="fill:url(#SVGID_6_)"
     id="path69"
     d="m 56.633,61.419 -4.646,3.189 c 0,0 0.986,5.184 2.257,8.79 1.278,3.619 4.32,6.526 4.32,6.526 1.954,1.91 4.349,3.3 7.021,4.08 5.139,1.479 10.939,0.515 15.918,-2.66 1.302,-0.824 3.069,-2.143 4.155,-3.184 C 80.764,81.13 56.633,61.419 56.633,61.419 Z" /><polygon
     transform="translate(-5.451,-1.686)"
     style="fill:#1d2c5e"
     id="polygon71"
     points="86.947,40.355 91.187,87.131 108.511,84.568 113.146,82.139 91.647,37.551 87.224,39.041 82.695,41.43 " /><linearGradient
     gradientTransform="translate(-408,-677.5)"
     y2="750.61151"
     x2="448.0217"
     y1="726.20209"
     x1="437.49219"
     gradientUnits="userSpaceOnUse"
     id="SVGID_7_"><stop
       id="stop74"
       style="stop-color:#105FA1"
       offset="0" /><stop
       id="stop76"
       style="stop-color:#1D2C5E"
       offset="1" /></linearGradient><polygon
     transform="translate(-5.451,-1.686)"
     style="fill:url(#SVGID_7_)"
     id="polygon78"
     points="22.001,56.602 41.357,100.5 59.746,94.568 64.236,91.55 26.068,51.615 21.292,54.477 17.477,58.544 " /><path
     style="fill:#1d2c5e"
     id="path80"
     d="m 208.381,75.627 0.26,2.155 c 1.584,-0.178 3.248,-0.383 4.672,-0.89 1.66,-0.568 5.266,-2.174 6.637,-3.357 -0.514,0.187 -8.963,2.377 -11.569,2.092" /><path
     style="fill:#1d2c5e"
     id="path82"
     d="m 143.322,64.418 0.69,3.47 c 3.722,-0.554 6.917,-1.931 10.058,-3.819 1.971,-1.174 4.135,-2.945 4.818,-3.417 -0.482,0.308 -15.566,3.766 -15.566,3.766 z" /><g
     transform="translate(-5.451,-1.686)"
     id="g84"><path
       style="fill:#ffcb05"
       id="path86"
       d="M 46.389,96.338 44.952,93.145 26.6,52.186 l -0.377,-0.84 -0.834,0.385 -0.557,0.256 -3.267,1.604 C 21.083,52.783 20.283,51.429 19.727,50.49 L 12.34,38.006 10.408,34.747 13.604,32.722 c 3.023,-1.928 6.437,-3.709 10.151,-5.295 7.395,-3.15 14.943,-4.816 21.826,-4.816 2.264,0 4.455,0.183 6.513,0.541 3.431,0.391 6.604,1.517 9.225,3.263 3.906,2.184 6.981,5.572 8.718,9.58 1.426,3.294 1.704,7.152 0.798,11.154 l -0.532,2.351 1.953,-1.416 c 1.316,-0.955 2.746,-1.771 4.25,-2.426 2.6,-1.099 5.29,-1.66 7.985,-1.66 2.551,0 4.963,0.505 7.17,1.498 l 1.423,0.638 -0.143,-1.553 -0.619,-6.711 -0.1,-1.064 -1.036,0.269 -3.109,0.806 -0.545,-11.427 22.774,-7.276 -0.184,8.881 1.715,0.44 4.974,-9.532 14.897,13.212 0.621,0.553 0.606,-0.57 c 2.041,-1.918 4.46,-3.457 7.189,-4.574 l 1.14,-0.466 -0.781,-0.953 -2.686,-3.274 17.103,-19.714 8.957,13.365 -13.711,7.37 -3.045,1.638 3.457,0.073 c 6.5,0.137 12.256,2.887 16.205,7.742 l 1.428,1.761 0.92,1.131 -1.528,1.622 -1.019,1.082 -3.426,3.654 -0.637,0.679 0.689,0.622 3.211,2.891 1.242,1.117 0.266,-1.648 1.232,-7.627 0.315,-1.958 0.01,0.011 0.324,-2 1.839,-11.26 16.418,0 0.77,0 0.13,-0.759 0.321,-1.928 14.785,0 3.582,22.621 0.233,1.465 1.2,-0.871 c 1.451,-1.054 3.054,-1.921 4.766,-2.576 2.279,-0.86 4.625,-1.299 6.967,-1.299 2.788,0 5.495,0.644 7.836,1.861 0.062,0.045 0.15,0.103 0.27,0.151 l 1.111,0.446 0.131,-1.192 0.268,-2.465 0.088,-0.808 -0.795,-0.177 -2.998,-0.67 -0.146,-11.792 22.857,5.031 1.717,8.485 1.775,0.035 1.771,-7.302 19.06,4.635 -19.478,58.703 -13.938,-4.377 -0.099,-5.407 -0.014,-0.775 -0.769,-0.108 -13.908,-1.963 0.787,-7.069 0.187,-1.682 -1.505,0.771 c -0.713,0.363 -1.403,0.668 -2.055,0.908 -2.274,0.86 -4.603,1.295 -6.922,1.295 -0.671,0 -1.345,-0.037 -2.001,-0.111 l -1.188,-0.133 0.186,1.18 0.979,6.217 -20.291,-3.579 -1.063,-9.226 -0.342,-2.957 -1.367,2.643 -2.336,4.505 -4.301,-7.94 -1.293,-2.385 -0.408,2.68 -0.937,6.146 -17.784,-2.799 1.379,-8.435 0.315,-1.934 -1.681,1.005 c -2.911,1.745 -6.254,3.058 -10.217,4.015 -1.385,0.338 -2.832,0.572 -4.305,0.694 l -0.834,0.07 0,0.837 0,15.918 -35.023,-17.309 -1.316,-0.649 0.001,1.467 0.024,14.804 -15.659,2.307 -0.658,-7.109 -0.178,-1.902 -1.365,1.338 c -2.069,2.025 -4.4,3.595 -6.927,4.667 -2.585,1.099 -5.252,1.655 -7.925,1.655 -2.669,0 -5.177,-0.558 -7.455,-1.649 -4.22,-2.03 -7.264,-5.713 -8.57,-10.36 C 62.87,68.121 62.701,65.816 62.99,63.45 l 0.309,-2.52 -1.838,1.75 c -1.296,1.23 -2.692,2.405 -4.152,3.484 l -0.495,0.365 0.156,0.595 5.275,20.248 0.932,3.593 -3.532,1.123 -9.932,3.18 -3.324,1.07 0,0 z m 4.458,-54.356 c -0.512,0 -1.041,0.047 -1.574,0.143 l -0.676,0.13 -0.998,0.192 0.301,0.972 0.196,0.632 2.84,9.293 0.284,0.893 0.422,1.34 1.05,-0.934 0.697,-0.621 c 2.753,-2.474 3.718,-4.986 3.137,-8.154 -0.366,-1.901 -1.838,-2.848 -2.684,-3.244 -0.884,-0.426 -1.896,-0.642 -2.995,-0.642 l 0,0 z m 76.135,0.305 -1.775,1.728 -4.675,4.543 -1.018,0.989 1.325,0.512 5.014,1.935 1.54,0.593 -0.318,-1.618 c -0.414,-2.09 -0.522,-4.182 -0.328,-6.217 l 0.235,-2.465 0,0 z m 20.416,-5.167 c -1.939,0 -3.815,0.834 -5.148,2.286 -2.022,2.208 -2.415,5.465 -0.977,8.103 l 0.381,0.715 0.613,1.143 0.863,-0.966 0.555,-0.615 6.858,-7.83 0.539,-0.62 0.865,-0.994 -1.234,-0.457 -0.769,-0.284 c -0.807,-0.316 -1.671,-0.481 -2.546,-0.481 l 0,0 z" /></g><path
     style="fill:#7d7f68"
     id="path88"
     d="m 152.438,47.032 c -0.066,0.058 -0.127,0.132 -0.179,0.208 0.069,-0.063 0.136,-0.118 0.207,-0.176 l -0.028,-0.032 z" /><polygon
     transform="translate(-5.451,-1.686)"
     style="fill:#7d7f68"
     id="polygon90"
     points="163.802,43.241 167.227,39.587 166.055,40.831 166.089,40.674 165.053,41.767 161.631,45.41 164.837,48.294 165.418,44.702 167.014,46.131 " /><polygon
     transform="translate(-5.451,-1.686)"
     style="fill:#7d7f68"
     id="polygon92"
     points="163.802,43.241 167.014,46.131 168.244,38.505 167.227,39.587 " /><path
     style="fill:#7d7f68"
     id="path94"
     d="m 115.715,47.522 0.052,0.022 -0.052,-0.022 z" /><path
     style="fill:#c7a008"
     id="path96"
     d="m 134.677,50.694 c 0.274,0.277 0.021,0.078 0.328,0.288 l 2.095,-1.477 c -0.311,-0.22 -0.619,-0.456 -0.902,-0.72 -3.04,-2.77 -2.25,-9 -0.278,-12.41 -5.191,4.188 -4.921,10.635 -1.243,14.319" /><path
     style="fill:#c7a008"
     id="path98"
     d="m 159.967,54.182 c -3.46,2.862 -7.404,4.728 -12.615,5.987 -1.139,0.261 -2.255,0.451 -3.347,0.547 -8.271,0.813 -15.21,-2.985 -17.843,-9.145 -0.328,-0.746 -0.581,-1.501 -0.772,-2.307 -1.218,-5.188 -0.178,-9.824 2.385,-13.458 0.254,-0.352 0.521,-0.689 0.801,-1.032 -0.131,0.112 -0.265,0.208 -0.374,0.313 -0.985,0.877 -1.857,1.838 -2.598,2.888 -2.566,3.634 -3.606,8.273 -2.377,13.453 0.188,0.806 0.437,1.572 0.758,2.301 2.634,6.174 9.575,9.97 17.839,9.163 1.101,-0.106 2.213,-0.288 3.353,-0.563 5.217,-1.259 9.158,-3.117 12.618,-5.979 0.845,-0.695 1.66,-1.453 2.451,-2.282 l -0.073,-0.07 c -0.079,0.068 -0.138,0.127 -0.206,0.184" /><polygon
     transform="translate(-5.451,-1.686)"
     style="fill:#c7a008"
     id="polygon100"
     points="107.129,40.185 116.37,27.199 115.995,26.853 107.079,39.377 " /><polygon
     transform="translate(-5.451,-1.686)"
     style="fill:#c7a008"
     id="polygon102"
     points="168.244,38.505 167.014,46.131 165.418,44.702 164.837,48.294 161.631,45.41 165.053,41.767 166.089,40.674 166.055,40.831 167.227,39.587 " /><polygon
     transform="translate(-5.451,-1.686)"
     style="fill:#c7a008"
     id="polygon104"
     points="156.825,17.115 160.061,15.727 154.146,8.136 152.208,10.843 " /><path
     style="fill:#c7a008"
     id="path106"
     d="M 61.785,34.235 C 46.849,16.04 19.936,25.82 10.263,34.331 l 0.378,0.653 c 2.224,-1.276 4.569,-2.43 7.036,-3.465 9.608,-4.104 18.768,-5.307 26.112,-4.022 2.596,0.298 5.346,1.068 7.739,2.67 3.313,1.855 5.824,4.494 7.292,7.876 2.605,5.99 0.31,13.955 -5.825,20.623 7.695,-7.061 12.96,-13.817 8.79,-24.431 z" /><path
     style="fill:#c7a008"
     id="path108"
     d="m 92.257,55.433 c -0.07,-0.33 -0.14,-0.665 -0.247,-0.988 -0.841,-3.025 -2.648,-5.44 -5.017,-7.047 -3.834,-2.604 -9.186,-3.139 -14.52,-0.887 -2.806,1.213 -5.246,3.08 -7.175,5.31 1.483,-1.276 3.178,-2.339 5.009,-3.131 5.322,-2.259 10.674,-1.725 14.521,0.876 2.369,1.609 4.161,4.023 5.02,7.044 0.095,0.324 0.169,0.664 0.243,1.005 0.228,1.15 0.334,2.313 0.29,3.504 -0.111,3.482 -1.402,6.988 -3.549,9.982 -0.346,0.474 -0.71,0.916 -1.087,1.354 1.222,-1.055 2.313,-2.222 3.245,-3.529 2.156,-2.975 3.444,-6.488 3.558,-9.991 0.048,-1.169 -0.049,-2.351 -0.291,-3.502" /><path
     style="fill:#c7a008"
     id="path110"
     d="m 77.55,50.992 c -0.021,0.033 2.167,-2.168 2.142,-2.168 -2.737,-0.104 -3.894,2.477 -3.989,2.68 0.562,-0.272 1.182,-0.449 1.847,-0.512" /><path
     style="fill:#c7a008"
     id="path112"
     d="m 82.705,54.147 c 0.111,0.371 0.169,0.74 0.169,1.144 0,0.57 -0.127,1.117 -0.358,1.621 0.438,-0.229 3.603,-1.764 2.376,-5.016 0.066,0.1 -2.266,2.241 -2.187,2.251" /><path
     style="fill:#c7a008"
     id="path114"
     d="m 70.255,55.957 c 0,-1.338 2.291,-4.584 3.005,-5.667 -3.618,2.3 -5.176,5.404 -5.176,7.849 0,4.189 3.681,7.558 8.082,7.558 2.082,0 5.895,-1.101 8.389,-5.137 -1.307,0.86 -4.629,2.918 -6.372,2.918 -4.4,-0.001 -7.928,-3.309 -7.928,-7.521" /><polygon
     transform="translate(-5.451,-1.686)"
     style="fill:#c7a008"
     id="polygon116"
     points="106.678,61.477 106.735,78.432 109.426,78.586 108.894,59.258 " /><polygon
     transform="translate(-5.451,-1.686)"
     style="fill:#c7a008"
     id="polygon118"
     points="91.232,29.197 91.287,30.703 104.04,26.906 104.985,43.146 107.113,40.164 106.659,23.867 " /><polygon
     transform="translate(-5.451,-1.686)"
     style="fill:#c7a008"
     id="polygon120"
     points="129.783,35.012 117.804,24.018 116.37,27.199 126.913,37.104 " /><path
     style="fill:#c7a008"
     id="path122"
     d="m 122.511,53.814 -14.064,-4.65 -2.049,2.164 14.011,5.607 c 1.589,2.994 3.997,5.559 7.029,7.434 2.935,1.795 6.289,2.87 9.841,3.211 l 0,6.92 2.172,1.084 0.687,-10.396 -17.627,-11.374 z" /><path
     style="fill:#c7a008"
     id="path124"
     d="m 145.095,51.858 c 3.454,-0.833 5.446,-2.635 7.161,-4.618 -1.287,1.056 -7.739,2.462 -8.823,2.829 l -2.125,2.263 c 0.971,0.086 2.595,-0.176 3.787,-0.474" /><path
     style="fill:#c7a008"
     id="path126"
     d="m 138.813,27.943 c -6.369,0.834 -9.688,6.181 -10.237,6.832 2.352,-1.987 5.3,-3.462 8.62,-4.248 7.881,-1.906 14.83,0.497 19.125,5.807 l 2.658,-2.25 c -4.254,-5.218 -12.287,-8.041 -20.166,-6.141" /><path
     style="fill:#c7a008"
     id="path128"
     d="m 160.174,53.998 c 0.768,-0.646 2.133,-1.299 2.859,-2.06 l -8.528,-7.62 c -0.653,0.781 -1.245,2.068 -2.042,2.745 l 7.711,6.935 z" /><path
     style="fill:#c7a008"
     id="path130"
     d="m 203.938,74.418 c -8.947,-7.354 -8.412,-23.123 -4.02,-28.126 l -3.942,-24.715 -8.622,1.113 -0.384,2.177 6.524,0 3.455,22.424 c -4.396,5.019 -6.52,11.743 -5.051,17.899 1.137,4.757 4.059,8.607 8.265,10.834 0.423,0.232 0.86,0.434 1.307,0.625 l 0.056,0.329 2.565,0.405 c 0,-10e-4 0.267,-2.751 -0.153,-2.965 z" /><polygon
     transform="translate(-5.451,-1.686)"
     style="fill:#c7a008"
     id="polygon132"
     points="175.001,26.9 174.63,29.078 184.464,29.078 187.361,44.959 189.543,42.755 187.249,25.99 " /><polygon
     transform="translate(-5.451,-1.686)"
     style="fill:#c7a008"
     id="polygon134"
     points="191.836,57.73 188.661,65.932 189.447,68.066 193.988,55.575 " /><polygon
     transform="translate(-5.451,-1.686)"
     style="fill:#c7a008"
     id="polygon136"
     points="182.407,52.564 180.221,54.747 177.878,69.561 180.122,70.418 " /><path
     style="fill:#c7a008"
     id="path138"
     d="m 221.123,46.146 c 1.287,0.919 2.385,2.082 3.211,3.465 0.652,1.061 1.145,2.249 1.46,3.553 1.071,4.453 -0.21,9.269 -3.041,13.133 -0.285,0.392 -0.599,0.771 -0.899,1.143 1.15,-0.989 15.118,-11.292 1.471,-24.824 -15.01,-4.948 -20.692,4.845 -21.223,5.466 1.586,-1.348 3.416,-2.463 5.398,-3.221 5.08,-1.924 10.078,-1.257 13.623,1.285" /><path
     style="fill:#c7a008"
     id="path140"
     d="m 213.556,47.122 c 0.042,0.095 2.155,-2.202 2.198,-2.202 -2.671,0.11 -3.954,1.399 -3.822,1.994 -0.16,0.231 -0.29,0.46 -0.392,0.713 0.57,-0.284 1.624,-0.502 2.016,-0.505" /><path
     style="fill:#c7a008"
     id="path142"
     d="m 218.578,50.479 c 0.096,0.358 0.142,0.733 0.134,1.136 -0.024,0.516 -0.158,0.989 -0.354,1.43 0.406,-0.183 3.643,-1.188 2.407,-4.75 0.032,0.101 -2.222,2.186 -2.187,2.184" /><path
     style="fill:#c7a008"
     id="path144"
     d="m 211.487,61.789 c 3.021,0.129 6.362,-1.727 8.758,-5.007 -6.148,1.261 -12.611,-8.977 -11.963,-9.979 -2.323,1.684 -4.379,4.932 -4.473,7.202 -0.16,4.209 3.267,7.608 7.678,7.784" /><polygon
     transform="translate(-5.451,-1.686)"
     style="fill:#c7a008"
     id="polygon146"
     points="250.629,90.15 252.07,91.114 269.658,38.329 256.495,35.287 256.33,38.379 266.948,40.735 " /><polygon
     transform="translate(-5.451,-1.686)"
     style="fill:#c7a008"
     id="polygon148"
     points="229.742,29.629 229.857,32.577 243.852,35.388 249.24,60.941 251.421,58.743 246.288,32.927 " /><polygon
     transform="translate(-5.451,-1.686)"
     style="fill:#c7a008"
     id="polygon150"
     points="240.512,58.748 236.659,80.54 238.878,81.259 242.703,56.602 " /><polygon
     transform="translate(-5.451,-1.686)"
     style="fill:#c7a008"
     id="polygon152"
     points="58.896,88.536 52.35,64.803 49.954,66.479 56.021,89.216 " /><path
     style="fill:#c7a008"
     id="path154"
     d="m 51.746,51.162 c -1.51,1.602 -4.857,4.715 -6.764,5.943 l -1.158,-3.718 -2.536,-8.152 -1.612,-5.519 -1.573,2.019 1.606,5.527 2.536,8.146 1.153,3.729 c 2.611,-1.682 6.409,-4.839 8.348,-7.975" /><path
     style="fill:#7d7f68"
     id="path156"
     d="m 144.498,37.129 c -2.066,-0.795 -4.992,-0.556 -6.572,1.173 -0.367,0.401 -1.081,1.424 -1.307,1.881 1.529,-1.216 4.252,-1.479 6.037,-0.835 l 1.842,-2.219 z" /><path
     style="fill:#7d7f68"
     id="path158"
     d="m 49.857,44.493 c -0.232,-1.22 -1.427,-2.189 -2.013,-2.458 -1.048,-0.506 -2.861,-0.585 -4.185,-0.344 0.238,0.822 0.511,1.786 0.627,2.181 0.537,0.075 1.419,0.235 1.882,0.446 0.581,0.28 1.597,0.94 1.833,2.168 0.316,1.639 0.233,3.171 -0.45,4.415 1.873,-1.838 2.782,-3.837 2.306,-6.408" /><g
     transform="translate(-5.451,-1.686)"
     id="g160"><g
       id="g162"><path
         style="fill:#3c5aa6"
         id="path164"
         d="M 58.588,46.145 C 57.689,41.321 51.381,38.662 45.127,42.073 l 1.612,5.521 2.536,8.159 1.157,3.716 c 4.692,-3.017 9.408,-6.642 8.156,-13.324 z m -6.212,7.418 c -0.683,-2.229 -2.181,-7.042 -2.181,-7.042 0.007,0.022 -0.295,-1.03 -0.653,-2.234 1.326,-0.237 2.6,-0.141 3.648,0.363 0.586,0.279 1.616,0.93 1.841,2.164 0.518,2.774 -0.417,4.754 -2.655,6.749 z" /></g></g><g
     transform="translate(-5.451,-1.686)"
     id="g166"><g
       id="g168"><path
         style="fill:#3567b0"
         id="path170"
         d="m 153.223,38.491 c -3.496,-3.207 -8.93,-2.958 -12.119,0.535 -3.208,3.487 -2.956,8.924 0.545,12.118 0.285,0.275 0.593,0.5 0.903,0.721 l 11.277,-12.771 c -0.199,-0.208 -0.399,-0.415 -0.606,-0.603 z m -10.648,8.983 c -1.103,-2.025 -0.88,-4.596 0.769,-6.398 1.586,-1.728 4.016,-2.22 6.088,-1.421 l -6.857,7.819 z" /></g></g><polygon
     transform="translate(-5.451,-1.686)"
     style="fill:#1e2d5f"
     id="polygon172"
     points="168.291,37.089 162.046,43.106 167.979,48.434 " /><path
     style="fill:#3466af"
     id="path174"
     d="m 220.748,48.295 c 0.095,0.379 0.144,0.754 0.132,1.153 -0.104,2.386 -2.347,4.228 -5.021,4.103 -2.672,-0.092 -4.771,-2.12 -4.666,-4.5 0.09,-2.231 2.078,-3.997 4.533,-4.11 -0.466,-0.105 -0.953,-0.16 -1.461,-0.178 -4.473,-0.193 -8.129,2.975 -8.283,6.919 -0.172,4.218 3.209,7.657 7.611,7.848 4.479,0.179 8.133,-3 8.311,-7.198 0.052,-1.455 -0.378,-2.85 -1.156,-4.037" /><linearGradient
     gradientTransform="matrix(1,0,0,-1,-569.451,-926.686)"
     y2="-982.76947"
     x2="655.63483"
     y1="-982.76947"
     x1="639.70612"
     gradientUnits="userSpaceOnUse"
     id="SVGID_8_"><stop
       id="stop177"
       style="stop-color:#3C5AA6"
       offset="0" /><stop
       id="stop179"
       style="stop-color:#2B73B9"
       offset="0.9331" /><stop
       id="stop181"
       style="stop-color:#2A75BB"
       offset="1" /></linearGradient><path
     style="fill:url(#SVGID_8_)"
     id="path183"
     d="m 85.053,53.112 c 0,2.396 -2.179,4.316 -4.848,4.316 -2.676,0 -4.847,-1.921 -4.847,-4.316 0,-2.233 1.91,-4.074 4.358,-4.288 -0.469,-0.085 -0.957,-0.134 -1.461,-0.134 -4.472,0 -8,3.317 -8,7.267 0,4.215 3.529,7.521 7.928,7.521 4.476,0 8.001,-3.308 8.001,-7.521 0,-1.459 -0.482,-2.834 -1.311,-3.966 0.112,0.341 0.18,0.719 0.18,1.121" /><g
     transform="translate(-5.451,-1.686)"
     id="g185"><g
       id="g187"><linearGradient
         gradientTransform="matrix(1,0,0,-1,-564,-925)"
         y2="-974.57031"
         x2="838.9209"
         y1="-974.57031"
         x1="573.17767"
         gradientUnits="userSpaceOnUse"
         id="SVGID_9_"><stop
           id="stop190"
           style="stop-color:#3C5AA6"
           offset="0" /><stop
           id="stop192"
           style="stop-color:#2B73B9"
           offset="0.9331" /><stop
           id="stop194"
           style="stop-color:#2A75BB"
           offset="1" /></linearGradient><path
         style="fill:url(#SVGID_9_)"
         id="path196"
         d="m 254.02,30.598 -1.986,8.185 -1.834,-9.063 -24.559,-5.406 0.172,13.656 3.701,0.83 -0.267,2.463 c -0.048,-0.019 -0.078,-0.048 -0.104,-0.069 -4.588,-2.421 -10.276,-2.669 -15.629,-0.647 -1.796,0.687 -3.463,1.59 -4.975,2.688 l -3.705,-23.388 -16.333,0 -0.45,2.689 -17.191,0 -1.963,12.023 -1.426,-1.761 c -4.166,-5.118 -10.205,-7.937 -16.895,-8.077 l 14.596,-7.845 -10.178,-15.189 -18.389,21.189 3.174,3.87 c -2.875,1.175 -5.387,2.795 -7.468,4.752 l -15.767,-13.989 -5.513,10.566 0.212,-10.154 -24.651,7.875 0.632,13.244 4.194,-1.088 0.62,6.712 c -4.792,-2.152 -10.552,-2.099 -15.894,0.158 -1.583,0.69 -3.059,1.538 -4.419,2.524 0.924,-4.089 0.705,-8.12 -0.853,-11.715 -1.84,-4.248 -5.078,-7.759 -9.048,-9.974 -2.783,-1.854 -6.1,-3.009 -9.571,-3.402 -8.53,-1.491 -18.773,0.04 -28.854,4.335 -3.706,1.581 -7.163,3.375 -10.281,5.361 l -3.941,2.499 2.38,4.019 7.386,12.483 c 0,0 2.26,3.825 2.275,3.823 l 3.994,-1.963 0.557,-0.256 18.353,40.961 1.77,3.937 4.098,-1.32 9.93,-3.181 4.352,-1.383 -1.148,-4.43 -5.274,-20.245 c 1.517,-1.123 2.933,-2.314 4.24,-3.561 -0.295,2.419 -0.14,4.868 0.526,7.212 1.379,4.908 4.593,8.785 9.053,10.933 4.817,2.315 10.694,2.321 16.131,0.015 2.727,-1.157 5.152,-2.845 7.207,-4.854 l 0.749,8.063 17.39,-2.561 -0.027,-15.593 36.337,17.959 0,-17.389 c 1.458,-0.122 2.946,-0.352 4.442,-0.719 4.002,-0.967 7.427,-2.293 10.47,-4.116 l -1.526,9.339 19.592,3.083 1.075,-7.05 5.117,9.453 3.128,-6.027 1.143,9.896 22.213,3.916 -1.178,-7.473 c 3.041,0.344 6.246,-0.064 9.342,-1.232 0.733,-0.271 1.457,-0.601 2.15,-0.955 l -0.885,7.951 14.784,2.086 0.11,6.063 15.416,4.839 20.071,-60.495 -20.9,-5.08 z m -86.793,8.99 1.019,-1.083 -1.231,7.627 -3.211,-2.892 3.423,-3.652 z m -13.018,-31.156 5.382,7.311 -15.387,7.628 -1.063,-1.615 11.068,-13.324 z M 52.32,64.809 58.459,88.364 48.523,91.538 28.134,46.004 c -1.109,0.583 -3.157,1.561 -5.038,2.483 L 15.713,36.015 c 2.936,-1.875 6.156,-3.537 9.581,-4.984 9.612,-4.088 18.783,-5.308 26.118,-4.012 2.595,0.292 5.342,1.057 7.748,2.654 3.301,1.859 5.826,4.505 7.282,7.875 3.551,8.206 -2.381,20.015 -14.122,27.261 z m 45.681,-4.192 c -0.114,3.507 -1.402,7.021 -3.558,9.994 -2.051,2.875 -4.916,5.248 -8.287,6.699 -8.62,3.652 -17.24,0 -19.543,-8.184 -2.231,-7.913 2.96,-17.333 11.312,-20.931 5.334,-2.252 10.686,-1.718 14.52,0.887 2.368,1.606 4.174,4.021 5.017,7.047 0.106,0.321 0.176,0.658 0.247,0.988 0.241,1.153 0.338,2.335 0.292,3.5 z m 46.901,16.653 -36.055,-18.033 0.064,18.894 -9.327,1.272 -0.65,-7.788 c 2.88,-4.938 3.933,-10.757 2.43,-16.093 -0.825,-2.933 -2.349,-5.479 -4.42,-7.519 l -1.338,-15.879 -4.188,1.086 -0.185,-4.015 14.978,-4.46 0.918,15.448 11.034,-15.503 10.787,10.273 -15.085,15.892 14.172,5.606 c 1.583,3 3.998,5.549 7.028,7.427 2.929,1.808 6.285,2.877 9.835,3.228 l 0.002,10.164 0,0 z m -18.721,-26.126 -5.015,-1.935 4.675,-4.544 c -0.2,2.086 -0.097,4.267 0.34,6.479 z m 39.237,4.724 c -3.46,2.862 -7.404,4.728 -12.615,5.987 -1.139,0.261 -2.255,0.451 -3.347,0.547 -8.271,0.813 -15.21,-2.985 -17.843,-9.145 -0.328,-0.746 -0.581,-1.501 -0.772,-2.307 -1.218,-5.188 -0.178,-9.825 2.385,-13.458 0.738,-1.06 1.614,-2.026 2.598,-2.896 2.414,-2.154 5.496,-3.72 9,-4.562 7.879,-1.9 14.818,0.505 19.072,5.725 L 148.882,51.74 c 1.018,0.192 2.637,-0.075 3.832,-0.361 3.576,-0.872 5.577,-2.77 7.34,-4.838 l 6,5.398 1.818,1.642 c -0.788,0.815 -1.616,1.584 -2.454,2.287 z m 31.853,21.327 -3.266,-21.635 -4.619,11.935 -6.916,-14.917 -0.078,0 -2.733,17.275 -11.527,-2.006 1.621,-9.64 c 0.435,-0.409 0.863,-0.819 1.284,-1.252 l 3.736,-3.847 -3.631,-3.252 3.858,-22.957 11.63,0 2.911,15.892 3.262,-18.417 8.319,0 3.452,22.438 c -4.393,5.004 -6.527,11.731 -5.059,17.885 1.135,4.771 4.067,8.613 8.27,10.857 0.423,0.213 0.861,0.424 1.313,0.606 l 0.44,2.909 -12.267,-1.874 z m 28.725,-7.049 c -1.271,0.905 -2.67,1.674 -4.174,2.229 -2.969,1.131 -5.922,1.366 -8.553,0.843 -1.834,-0.362 -3.506,-1.077 -4.961,-2.112 -2.314,-1.674 -4.018,-4.146 -4.769,-7.25 -0.876,-3.729 -0.069,-7.711 1.937,-11.199 1,-1.705 2.283,-3.307 3.801,-4.688 1.693,-1.518 3.656,-2.761 5.84,-3.601 5.083,-1.896 10.096,-1.242 13.625,1.295 1.298,0.92 2.375,2.091 3.224,3.452 0.644,1.075 1.144,2.26 1.447,3.554 1.081,4.478 -0.206,9.274 -3.031,13.138 -1.21,1.647 -2.685,3.127 -4.386,4.339 z m 25.955,20.392 -8.524,-2.539 -0.743,-31.426 -4.287,24.243 -9.299,-1.484 0.666,-6.98 c 6.072,-5.131 9.291,-13.225 7.527,-20.56 -0.775,-3.248 -2.445,-6.076 -4.799,-8.226 l 0.785,-8.232 -3.516,-0.936 0.235,-4.395 16.021,3.22 5.387,25.546 5.525,-22.903 12.188,2.693 -17.166,51.979 z" /></g></g><g
     transform="matrix(0.93943959,0,0,0.93943959,14.793383,6.4307935)"
     style="font-size:4px;font-style:normal;font-variant:normal;font-weight:normal;font-stretch:normal;line-height:125%;letter-spacing:0px;word-spacing:0px;fill:#000000;fill-opacity:1;stroke:none;font-family:Arial;-inkscape-font-specification:Arial"
     id="flowRoot3115"><path
       d="m 254.09961,90.904794 0,-2.525391 -0.94336,0 0,-0.33789 2.26953,0 0,0.33789 -0.94726,0 0,2.525391 z"
       style=""
       id="path3084" /><path
       d="m 255.80469,90.904794 0,-2.863281 0.57031,0 0.67773,2.027343 c 0.0625,0.188803 0.10808,0.330079 0.13672,0.423829 0.0325,-0.104167 0.0833,-0.257161 0.15235,-0.458985 l 0.68554,-1.992187 0.50977,0 0,2.863281 -0.36524,0 0,-2.396484 -0.83203,2.396484 -0.34179,0 -0.82813,-2.4375 0,2.4375 z"
       style=""
       id="path3086" /></g></svg>