<?xml version="1.0" encoding="utf-8"?>
<!-- Generator: Adobe Illustrator 19.2.0, SVG Export Plug-In . SVG Version: 6.00 Build 0)  -->
<svg version="1.1" id="Layer_1" xmlns="http://www.w3.org/2000/svg" xmlns:xlink="http://www.w3.org/1999/xlink" x="0px" y="0px"
	 viewBox="0 0 606.3 185.1" enable-background="new 0 0 606.3 185.1" xml:space="preserve">
<g>
	<path fill="#010101" d="M53.8,62h23.6C90.2,62,99,67.9,99,81.5c0,14-7.6,20.1-21,20.1h-8.7v19.7H53.8V62z M69.2,89.2h2.6
		c5.6,0,11.1,0,11.1-7.2c0-7.5-5.1-7.6-11.1-7.6h-2.6V89.2z"/>
	<path fill="#010101" d="M148,101.2c0,13.7-11.3,21.5-24.3,21.5c-12.9,0-24.3-7.7-24.3-21.5c0-13.8,11.3-21.6,24.3-21.6
		C136.6,79.6,148,87.4,148,101.2z M114.5,101.2c0,5.1,3.4,9,9.2,9c5.8,0,9.2-3.9,9.2-9c0-5-3.4-9.1-9.2-9.1
		C117.8,92.1,114.5,96.2,114.5,101.2z"/>
	<path fill="#010101" d="M165.6,87.6h0.2c2.8-4.9,7.5-7.2,13.1-7.2h2.8v13.8c-2-1.1-3.9-1.3-6.1-1.3c-7.9,0-9.9,5.3-9.9,12.2v16.3
		h-14.3V81h14.3V87.6z"/>
	<path fill="#010101" d="M238.7,125l-4.7-5.6c-4.6,2.7-9.9,3.8-16.3,3.8c-19,0-32.8-13.5-32.8-32.7c0-17.9,15.7-30.5,32.8-30.5
		c18.5,0,32.8,12.5,32.8,31.8c0,7.9-2.7,14.7-7.6,20.9l10,10.1L238.7,125z M231.7,100.6c1.8-2.5,2.7-5.7,2.7-8.7
		c0-8.9-7.4-16.9-16.7-16.9c-9.2,0-16.8,7.5-16.8,15.7c0,10.2,7.6,17.7,16.8,17.7c1.6,0,3.2-0.2,4.7-0.8l-9.5-9.4l14.5-1.8
		L231.7,100.6z"/>
	<path fill="#010101" d="M269.8,81v21.6c0,5.1,1.3,8.7,7.2,8.7c5.9,0,7.2-3.6,7.2-8.7V81h14.3v24.3c0,13.3-9.4,17.4-21.5,17.4
		c-12.1,0-21.5-4.1-21.5-17.4V81H269.8z"/>
	<path fill="#010101" d="M347.5,103.6h-30.1c0,5.8,3.1,9,9,9c3.1,0,5.3-1,6.8-3.7h13.8c-1.1,4.7-3.9,8.2-7.6,10.5
		c-3.7,2.3-8.3,3.4-12.9,3.4c-13.4,0-23.4-7.6-23.4-21.5c0-13.5,9.2-21.6,22.3-21.6c14,0,22.1,8.7,22.1,22.4V103.6z M334.2,95.3
		c-0.7-3.8-4.2-6.4-8.1-6.4c-4.2,0-7.6,2.2-8.5,6.4H334.2z"/>
	<path fill="#010101" d="M412.6,121.3h-15.4V85H397l-28.2,36.3h-16.3V62h16.3v36.3h0.2L397.2,62h15.4V121.3z"/>
	<path fill="#010101" d="M463.3,121.3H449v-4.5h-0.2c-2.5,4-7.5,5.8-12.2,5.8c-12,0-20.4-10-20.4-21.6c0-11.6,8.3-21.5,20.2-21.5
		c4.6,0,9.5,1.7,12.5,5.3V81h14.3V121.3z M425.7,72.9l-0.1-0.9c0-2.5,0.5-4.9,1.7-7c1.4-2.4,4.1-4.4,7-4.4c4,0,9.7,2.7,12.8,2.7
		c2,0,2.5-1.2,3.1-2.8h6.7c-0.5,5.7-3.5,12.4-10.2,12.4c-4,0-8.3-2.9-11.9-2.9c-1.9,0-2.2,1.4-2.7,2.9H425.7z M431.1,101.2
		c0,5.1,3.4,9,9.2,9c5.8,0,9.2-3.9,9.2-9c0-5-3.4-9.1-9.2-9.1C434.5,92.1,431.1,96.2,431.1,101.2z"/>
	<path fill="#010101" d="M515.3,101.2c0,13.7-11.3,21.5-24.3,21.5c-12.9,0-24.3-7.7-24.3-21.5c0-13.8,11.3-21.6,24.3-21.6
		C504,79.6,515.3,87.4,515.3,101.2z M481.8,101.2c0,5.1,3.4,9,9.2,9c5.8,0,9.2-3.9,9.2-9c0-5-3.4-9.1-9.2-9.1
		C485.2,92.1,481.8,96.2,481.8,101.2z"/>
	<path fill="#010101" d="M523.8,86.3c1.1,0.2,2.2,0.4,3.3,0.4c4.5,0,10.2-2.6,10.2-7.8c0-3.2-2.4-5.9-5.7-5.9c-3.6,0-5.5,2.6-5.5,6
		h-15.6c0.1-12,10.5-18.5,21.5-18.5c5,0,9.9,1.6,13.8,4.9c3.9,3.3,6.8,8.4,6.8,13.6c0,8.9-6.2,14.5-14.2,17v5.6h-14.4V86.3z
		 M540.5,113.7c0,5-4.1,9.2-9.2,9.2s-9.2-4.2-9.2-9.2c0-5.1,4.1-9.2,9.2-9.2S540.5,108.6,540.5,113.7z"/>
</g>
</svg>
