<?xml version="1.0" encoding="UTF-8" standalone="no"?>
<svg width="490px" height="79px" viewBox="0 0 490 79" version="1.1" xmlns="http://www.w3.org/2000/svg" xmlns:xlink="http://www.w3.org/1999/xlink">
    <!-- Generator: Sketch 3.6.1 (26313) - http://www.bohemiancoding.com/sketch -->
    <title>Untitled</title>
    <desc>Created with Sketch.</desc>
    <defs></defs>
    <g id="Page-1" stroke="none" stroke-width="1" fill="none" fill-rule="evenodd">
        <g id="Group" fill="#000000">
            <g opacity="0.2" id="Shape">
                <path d="M164.5,13 C155.7,21.4 138.8,27.1 119.3,27.1 C104.8,27.1 91.7,23.9 82.3,18.8 C71.5,12.9 56.6,4.7 37.1,4.7 C22.6,4.7 9.5,7.9 0.1,13 L0.1,9 C9.5,3.9 22.6,0.7 37.1,0.7 C56.6,0.7 71.5,8.9 82.3,14.8 C91.7,19.9 104.8,23.1 119.3,23.1 C138.8,23.1 155.7,17.4 164.5,9 L164.5,13 L164.5,13 Z"></path>
                <path d="M164.5,30 C155.7,38.4 138.8,44.1 119.3,44.1 C104.8,44.1 91.7,40.9 82.3,35.8 C71.5,29.9 56.6,21.7 37.1,21.7 C22.6,21.7 9.5,24.9 0.1,30 L0.1,26 C9.5,20.9 22.6,17.7 37.1,17.7 C56.6,17.7 71.5,25.9 82.3,31.8 C91.7,36.9 104.8,40.1 119.3,40.1 C138.8,40.1 155.7,34.4 164.5,26 L164.5,30 L164.5,30 Z"></path>
                <path d="M164.5,47 C155.7,55.4 138.8,61.1 119.3,61.1 C104.8,61.1 91.7,57.9 82.3,52.8 C71.5,46.9 56.6,38.7 37.1,38.7 C22.6,38.7 9.5,41.9 0.1,47 L0.1,43 C9.5,37.9 22.6,34.7 37.1,34.7 C56.6,34.7 71.5,42.9 82.3,48.8 C91.7,53.9 104.8,57.1 119.3,57.1 C138.8,57.1 155.7,51.4 164.5,43 L164.5,47 L164.5,47 Z"></path>
                <path d="M164.5,64 C155.7,72.4 138.8,78.1 119.3,78.1 C104.8,78.1 91.7,74.9 82.3,69.8 C71.5,63.9 56.6,55.7 37.1,55.7 C22.6,55.7 9.5,58.9 0.1,64 L0.1,60 C9.5,54.9 22.6,51.7 37.1,51.7 C56.6,51.7 71.5,59.9 82.3,65.8 C91.7,70.9 104.8,74.1 119.3,74.1 C138.8,74.1 155.7,68.4 164.5,60 L164.5,64 L164.5,64 Z"></path>
            </g>
            <g transform="translate(68.000000, 1.000000)" id="Shape">
                <path d="M8.9,9.4 L0.4,9.4 L0.4,0.9 L30.5,0.9 C49.3,0.9 53.2,13.3 53.2,21.9 C53.2,28.8 50.4,34.1 47.5,37 C42.8,41.7 36.4,42.8 26.7,42.8 L19.1,42.8 L19.1,60.3 L28,60.3 L28,68.8 L0.4,68.8 L0.4,60.3 L8.9,60.3 L8.9,9.4 L8.9,9.4 Z M27.6,34.6 C40.1,34.6 42.8,28.8 42.8,21.8 C42.8,13.8 38.3,9.4 30.8,9.4 L19.1,9.4 L19.1,34.6 L27.6,34.6 L27.6,34.6 Z"></path>
                <path d="M81.4,20.2 C95.6,20.2 106.2,30.9 106.2,45.2 C106.2,59.5 95.5,70.2 81.3,70.2 C67.1,70.2 56.5,59.5 56.5,45.2 C56.5,30.9 67.1,20.2 81.4,20.2 L81.4,20.2 Z M81.3,61.2 C89.8,61.2 96.2,54.4 96.2,45.2 C96.2,36.1 89.8,29.2 81.3,29.2 C72.9,29.2 66.5,36.1 66.5,45.2 C66.5,54.4 72.9,61.2 81.3,61.2 L81.3,61.2 Z"></path>
                <path d="M114.1,52.6 L122.4,52.6 L122.4,54.2 C123.2,58.9 127.5,61.8 133.7,61.8 C139.6,61.8 143.4,59.5 143.4,55.9 C143.4,47.1 126.8,52.7 117.8,43.7 C115.6,41.5 114.1,38.2 114.1,34.7 C114.1,26.6 121.1,20.8 130.7,20.8 C135,20.8 139.1,21.8 142.2,23.5 L142.2,21.6 L150.4,21.6 L150.4,37.2 L142.2,37.2 L142.2,34.3 C139.5,30.3 136,28.5 131.2,28.5 C126.2,28.5 122.9,30.8 122.9,34.3 C122.9,42.2 141.1,37.6 148.9,45.4 C151.7,48.2 152.9,51.9 152.9,55.2 C152.9,63.8 145.6,69.6 134.8,69.6 C129.7,69.6 125.8,68.5 122.4,66.2 L122.4,68.8 L114.1,68.8 L114.1,52.6 L114.1,52.6 Z"></path>
                <path d="M158.8,21.6 L164.9,21.6 L164.9,14.3 L174.3,5.8 L174.3,21.6 L183,21.6 L183,29.8 L174.3,29.8 L174.3,57.1 C174.3,61.7 178.4,61.5 183,59.9 L183,68.3 C180.8,69 178.3,69.6 176.1,69.6 C169.5,69.6 164.9,66.6 164.9,58.4 L164.9,29.8 L158.8,29.8 L158.8,21.6 L158.8,21.6 Z"></path>
                <path d="M197.4,29.8 L189.5,29.8 L189.5,21.6 L206.8,21.6 L206.8,27.5 C212.3,23.1 217.6,20.8 222.8,20.8 C228.1,20.8 232.2,23.4 234.2,28.2 C241,22.9 245.8,20.8 251.2,20.8 C259,20.8 263.8,25.6 263.8,33.8 L263.8,60.6 L271.9,60.6 L271.9,68.8 L254.4,68.8 L254.4,35.9 C254.4,31.3 252.3,29 248.7,29 C244.9,29 240,31.3 235.3,35.2 L235.3,60.6 L243.4,60.6 L243.4,68.8 L225.9,68.8 L225.9,36.1 C225.9,31.1 223.1,29.4 220.1,29.4 C216.7,29.4 212.5,31.2 206.8,35.2 L206.8,60.6 L214.9,60.6 L214.9,68.8 L188.8,68.8 L188.8,60.6 L197.4,60.6 L197.4,29.8 L197.4,29.8 Z"></path>
                <path d="M324.5,68.8 L308.1,68.8 L308.1,63 C302.2,67.8 298.1,69.6 292.9,69.6 C283.9,69.6 276.9,63 276.9,54.6 C276.9,46 284.4,39.3 294.1,39.3 C298.3,39.3 303.2,40.8 307,43.3 L307,37.1 C307,30.4 302.1,28 296.5,28 C292,28 288.5,29.9 286.4,33.6 L277.5,31.2 C281.5,23.9 288.3,20.2 297.9,20.2 C311.7,20.2 316.4,27.1 316.4,34.7 L316.4,60.6 L324.5,60.6 L324.5,68.8 L324.5,68.8 Z M307,51.2 C303,48.1 298.8,46.5 294.8,46.5 C289.6,46.5 285.8,49.9 285.8,54.6 C285.8,59.2 289.3,62.4 294.3,62.4 C298.5,62.4 303.2,60.3 307,56.8 L307,51.2 L307,51.2 Z"></path>
                <path d="M337.3,29.8 L327.8,29.8 L327.8,21.6 L344.7,21.6 L344.7,32.2 L344.9,32.2 C347.9,24.3 353.9,20.8 359.8,20.8 L365.9,20.8 L365.9,30.2 L360.9,30.2 C350,30.2 346.7,36.3 346.7,47.1 L346.7,60.6 L356.9,60.6 L356.9,68.8 L328,68.8 L328,60.6 L337.3,60.6 L337.3,29.8 L337.3,29.8 Z"></path>
                <path d="M376.2,9.1 L367.7,9.1 L367.7,0.9 L385.6,0.9 L385.6,43.3 L403.3,29.4 L403.3,29.2 L395.4,29.2 L395.4,21.6 L421.6,21.6 L421.6,29.2 L414.3,29.2 L396.6,43.9 L413.3,60.6 L421.4,60.6 L421.4,68.8 L409.4,68.8 L385.6,45 L385.6,60.6 L392.6,60.6 L392.6,68.8 L367.6,68.8 L367.6,60.6 L376.2,60.6 L376.2,9.1 L376.2,9.1 Z"></path>
            </g>
        </g>
    </g>
</svg>