<?xml version="1.0" encoding="utf-8"?>
<!-- Generator: Adobe Illustrator 18.1.1, SVG Export Plug-In . SVG Version: 6.00 Build 0)  -->
<svg version="1.1" id="Layer_1" xmlns="http://www.w3.org/2000/svg" xmlns:xlink="http://www.w3.org/1999/xlink" x="0px" y="0px"
	 viewBox="-153 154.2 512 512" enable-background="new -153 154.2 512 512" xml:space="preserve">
<g>
	<polygon fill="#FFFFFF" points="-153,154.2 359,154.2 359,666.2 -153,666.2 	"/>
	<polygon points="58.7,425.4 54.6,425.4 52.2,437.9 52.2,437.9 47.4,425.4 42.1,425.4 37.9,447 41.7,447 44.5,432.4 44.7,432.4 
		50.2,447 54.4,447 	"/>
	<path d="M72.5,447c-0.2-0.9,0-1.7,0.2-2.4l1.5-7.6c0.4-1.8,0.7-3.7-0.6-5c-1.1-1.1-3.1-1.5-4.8-1.5c-3.3,0-7.4,1.1-8.7,5l4.4,0.5
		c0.2-1.7,1.7-2.4,3.1-2.4c0.7,0,1.5,0.2,1.8,0.7c0.4,0.6,0,1.5,0,2l-0.2,0.6c-2,0.2-4.6,0.2-6.4,0.9c-2.2,0.7-4.1,2.4-4.6,4.8
		c-0.6,2.9,1.5,4.4,4.2,4.4c2.4,0,3.9-0.9,5.7-2.8c-0.4,0.9-0.4,1.7-0.4,2.6L72.5,447L72.5,447z M68.8,440c-0.2,1.1-0.4,2-1.3,2.9
		c-0.6,0.9-1.5,1.3-2.6,1.3c-1.3,0-1.8-0.7-1.5-2c0.4-2.4,3.7-2.8,5.5-2.9L68.8,440L68.8,440z"/>
	<path d="M78.2,430.9l-3.1,16h4.6l1.7-8.5c0.4-1.8,0.7-4.2,3.1-4.2c2.4,0,1.7,2.6,1.3,4.2l-1.7,8.5h4.6l1.7-8.5
		c0.2-0.9,0.4-2.2,0.9-2.9c0.4-0.7,1.5-1.1,2.2-1.1c0.9,0,1.7,0.2,1.7,1.3c0.2,0.6-0.2,2-0.4,2.8l-1.7,8.5h4.6l2-10
		c0.2-1.7,0.7-3.5,0-4.8c-0.7-1.1-2.2-1.7-3.7-1.7c-1.8,0-3.9,0.9-5.2,2.8c-0.6-1.8-1.7-2.8-3.7-2.8c-2.2,0-3.9,0.9-5,2.8h-0.2
		l0.6-2.4H78.2L78.2,430.9z"/>
	<path d="M116.7,439.8c0.4-2.2,0.5-4.6-0.4-6.3c-1.1-1.8-3.1-2.9-5.3-2.9c-5,0-8.5,3.9-9.4,8.5c-0.9,4.8,1.5,8.1,6.3,8.1
		c5.5,0,8.3-4.6,8.3-5.5l-4.1-0.2c-0.4,1.5-2,2.4-3.5,2.4c-1.8,0-2.6-1.5-2.4-3.3l0.2-0.7L116.7,439.8L116.7,439.8z M107,437
		c0.6-1.8,1.7-3.3,3.7-3.3s2.2,1.5,2,3.3H107L107,437z"/>
	<polygon points="148.6,425.4 144,425.4 138.3,433.5 135.9,425.4 130,425.4 134.4,437.7 132.6,447 137.7,447 139.4,437.7 	"/>
	<path d="M152.7,430.6c-5,0-8.3,3.7-9.2,8.3c-0.9,4.6,1.1,8.3,5.9,8.3c4.8,0,8.5-3.5,9.4-8.1C159.7,434.2,157.6,430.6,152.7,430.6
		L152.7,430.6z M152.1,433.7c1.1,0,1.7,0.4,1.8,1.5c0.2,1.1,0,2.6-0.2,3.9c-0.4,1.8-1.1,5.2-3.7,5.2c-2.8,0-1.8-4.1-1.7-5.7
		C148.8,436.6,149.5,433.7,152.1,433.7L152.1,433.7z"/>
	<path d="M173.3,447l3.1-16h-4.6l-1.7,8.5c-0.2,0.9-0.4,1.8-0.7,2.6c-0.7,0.9-1.7,1.5-2.8,1.5c-1.7,0-1.5-1.3-1.1-2.4l1.8-10.1h-4.6
		l-2,10c-0.2,1.7-0.5,3.1,0,4.6c0.6,1.3,2,1.7,3.5,1.7c2.2,0,4.1-0.9,5.2-2.9h0.2l-0.6,2.8L173.3,447L173.3,447z"/>
	<path d="M179.9,430.9l-3.1,16h4.6l1.1-6.3c0.7-2.8,1.7-5.5,5.2-5.3l0.9-4.6l-0.9-0.2c-1.8-0.2-3.1,1.7-4.1,3.3l0,0l0.6-2.9
		L179.9,430.9L179.9,430.9z"/>
	<path d="M205.2,447.1c2.9,0,5.7-1.1,7.9-3.7c1.8-2,2.9-5,3.5-7.4c0.5-2.6,0.4-5.7-0.9-7.7c-1.1-2.4-3.3-3.3-6.1-3.3
		c-6.4,0-10.3,5.3-11.4,11.1c-0.5,2.8-0.4,5.5,0.7,7.7C200.2,446.2,202.4,447.1,205.2,447.1L205.2,447.1z M208.7,429.1
		c1.7,0,2.4,0.7,2.8,2.2c0.4,1.3,0.2,3.3-0.2,4.8c-0.2,1.5-0.7,3.1-1.5,4.6c-0.9,1.5-2,2.4-3.7,2.4c-3.7,0-3.1-4.2-2.6-7
		c0.2-1.3,0.7-3.1,1.5-4.4C205.9,430,207,429.1,208.7,429.1L208.7,429.1z"/>
	<polygon points="241.8,430.9 238.2,430.9 233.7,440.7 233.5,440.7 233.2,430.9 228.9,430.9 224.7,440.7 224.5,440.7 224,430.9 
		219,430.9 220.8,447 224.9,447 229.3,436.6 229.3,436.6 229.9,447 233.9,447 	"/>
	<path d="M243.7,430.9l-3.1,16h4.6l1.7-8.7c0.2-0.9,0.6-1.8,1.1-2.8c0.5-0.7,1.3-1.3,2.2-1.3c2.4,0,1.7,2.4,1.3,4.1l-1.7,8.7h4.6
		l1.8-10c0.4-1.5,0.7-3.5,0.2-4.6c-0.7-1.3-2.2-1.8-3.7-1.8c-2.2,0-3.9,1.1-5.2,3.1l0,0l0.6-2.8L243.7,430.9L243.7,430.9z"/>
	<path d="M273.9,438.9h3.1c2.4,0,4.4,0,6.4-1.5c1.8-1.3,2.9-3.5,3.5-5.5c0.4-2.2-0.2-4.1-1.8-5.3c-1.5-1.1-3.5-1.1-5.5-1.1h-8.1
		l-4.2,21.6h5L273.9,438.9L273.9,438.9z M274.6,435l1.1-5.7h2.8c0.9,0,2,0,2.6,0.6c0.7,0.5,0.9,1.5,0.7,2.2c-0.2,0.7-0.5,1.5-1.1,2
		c-1.1,0.9-2,0.9-3.3,0.9L274.6,435L274.6,435z"/>
	<path d="M289.7,430.9l-3.1,16h4.6l1.3-6.3c0.6-2.8,1.5-5.5,5-5.3l0.9-4.6l-0.7-0.2c-2-0.2-3.3,1.7-4.1,3.3h-0.2l0.6-2.9
		L289.7,430.9L289.7,430.9z"/>
	<path d="M304.9,430.9h-4.6l-2.9,16h4.6L304.9,430.9L304.9,430.9z M306.1,425h-4.6l-0.9,4.4h4.6L306.1,425L306.1,425z"/>
	<path d="M321.4,436.6c0.4-3.7-2-6.1-5.7-6.1c-5.2,0-8.7,3.7-9.8,8.5c-0.9,4.8,1.3,8.1,6.3,8.1c3.9,0,7.4-2.4,8.5-6.3l-4.4-0.2
		c-0.4,1.5-1.5,2.8-3.1,2.8c-2.6,0-2.2-2.8-1.7-4.8c0.4-2,1.1-4.6,3.7-4.6c1.7,0,2,1.5,1.8,2.9L321.4,436.6L321.4,436.6z"/>
	<path d="M338,439.8c0.4-2.2,0.6-4.6-0.4-6.3c-1.1-1.8-3.1-2.9-5.3-2.9c-5,0-8.5,3.9-9.4,8.5c-0.9,4.8,1.5,8.1,6.3,8.1
		c5.3,0,8.1-4.6,8.3-5.5l-4.2-0.2c-0.2,1.5-1.8,2.4-3.3,2.4c-1.8,0-2.8-1.5-2.4-3.3l0.2-0.7L338,439.8L338,439.8z M328.3,437
		c0.5-1.8,1.7-3.3,3.7-3.3s2.2,1.5,2,3.3H328.3L328.3,437z"/>
	<path d="M206.1,452.7c12.5-3.7,24.3-3.9,37.4-2.8c3.5,0.4,3.1,3.9-0.4,3.5c-12.2-1.1-25.6,0.4-33.7,4.8
		C203.7,460,202.6,453.6,206.1,452.7L206.1,452.7z"/>
	<path d="M344.5,426.1c-0.2-0.5-0.4-1.7-2.2-1.7c-1.5,0-2,0.7-2,1.7c0,0.9,0.9,1.3,1.3,1.3l1.1,0.4c0.9,0.2,1.1,0.4,1.1,0.9
		c0,0.7-0.9,0.9-1.3,0.9c-0.7,0-1.7-0.2-1.7-1.3H340c0,0.6,0.2,0.9,0.5,1.5c0.4,0.2,0.7,0.5,1.8,0.5c0.9,0,2.2-0.4,2.2-1.8
		c0-0.7-0.7-1.3-1.3-1.5l-1.7-0.4c-0.4,0-0.7-0.2-0.7-0.6c0-0.9,0.9-1.1,1.3-1.1c0.7,0,1.5,0.4,1.5,1.1L344.5,426.1L344.5,426.1z"/>
	<path d="M350.9,430.2v-5.7h-1.1l-1.7,4.8l0,0l-1.7-4.8h-0.9v5.7h0.7v-3.3c0-0.2-0.2-0.9-0.2-1.5h0.2l1.5,4.8h0.7l1.7-4.8l0,0
		c0,0.6,0,1.3,0,1.5v3.3H350.9L350.9,430.2z"/>
	<path fill="#1E5645" d="M-142.3,377.1v52h15.5v-16.9c2.6,3.1,5.7,5,9.8,5c8.7,0,18.2-5.5,18.2-20.8c0-10.7-5.7-20.3-17.3-20.3
		c-4.4,0-10,2.2-12.2,6.8h-0.2v-5.7H-142.3L-142.3,377.1z M-121,405.3c-4.1,0-6.3-3.7-6.3-9.2c0-5.2,2.6-8.7,6.3-8.7
		c4.1,0,6.6,2.9,6.6,9C-114.3,401.8-116.9,405.3-121,405.3L-121,405.3z"/>
	<path fill="#1E5645" d="M-97.6,416h15.5v-13.5c0-8.3,3.1-11.4,9.4-11.4c1.1,0,2.2,0.4,3.3,0.6v-14.6c-0.7-0.2-1.5,0-2,0
		c-6.1,0-9.8,1.8-12,7.9h-0.2v-7.9h-14L-97.6,416L-97.6,416z"/>
	<polygon fill="#1E5645" points="-68.1,373.6 -52.6,373.6 -52.6,362.6 -68.1,362.6 	"/>
	<polygon fill="#1E5645" points="-68.1,416 -52.6,416 -52.6,377.1 -68.1,377.1 	"/>
	<path fill="#1E5645" d="M-7.6,391.9C-8.7,380.4-18.5,376-28.8,376c-12.9,0-22.3,7.6-22.3,20.8c0,13.1,9.8,20.3,22.3,20.3
		c5.3,0,10.3-1.1,14.2-3.7c3.9-2.6,6.6-6.6,7.4-12.5h-15.7c-0.4,3.1-2,5.7-5.9,5.7c-4.6,0-6.8-3.7-6.8-9.6c0-4.6,0.9-10.7,6.8-10.7
		c1.7,0,2.9,0.6,3.9,1.7c1.1,0.9,1.7,2.2,1.7,3.9L-7.6,391.9L-7.6,391.9z"/>
	<path fill="#1E5645" d="M8.8,392.2c0-4.2,2.6-6.8,7.2-6.8c3.5,0,6.8,3.1,6.8,6.8H8.8L8.8,392.2z M38.1,400c0.4-14-8.5-24-22.7-24
		c-12.5,0-22.1,8.1-22.1,20.8c0,13.1,9.6,20.3,22.1,20.3c9,0,18.8-3.3,21.6-12.9H22.2c-1.1,2.4-3.5,3.5-5.9,3.5
		c-4.1,0-7.6-3.1-7.6-7.7L38.1,400L38.1,400z"/>
	<polygon fill="#425A88" points="39.3,416 54.6,416 54.6,362.6 39.3,362.6 	"/>
	<polygon fill="#425A88" points="57.2,416 72.5,416 72.5,377.1 57.2,377.1 	"/>
	<polygon fill="#425A88" points="57.2,373.6 72.5,373.6 72.5,362.6 57.2,362.6 	"/>
	<path fill="#425A88" d="M74.9,416h15.5v-19.9c0-5,1.1-7.9,5.9-7.9c4.4,0,5.3,3.3,5.3,7.2V416h15.5v-23.4c0-10.5-4.8-16.6-15.1-16.6
		c-5.7,0-9.6,2.6-13.1,7.2v-6.1h-14V416L74.9,416z"/>
	<path fill="#425A88" d="M134.2,392.2c0-4.2,2.6-6.8,7.2-6.8c3.7,0,6.8,3.1,6.8,6.8H134.2L134.2,392.2z M163.7,400
		c0.2-14-8.5-24-22.8-24c-12.5,0-21.9,8.1-21.9,20.8c0,13.1,9.6,20.3,21.9,20.3c9,0,18.8-3.3,21.6-12.9h-14.7
		c-1.1,2.4-3.3,3.5-5.9,3.5c-4.1,0-7.6-3.1-7.6-7.7L163.7,400L163.7,400z"/>
	<path fill="#425A88" d="M163.5,408.3c0-4.2,3.3-7.6,7.6-7.6c4.2,0,7.6,3.5,7.6,7.6c0,4.2-3.3,7.7-7.6,7.7
		C166.8,416,163.5,412.5,163.5,408.3L163.5,408.3z"/>
	<path fill="#425A88" d="M222.1,391.9c-1.1-11.4-10.9-15.8-21.2-15.8c-12.9,0-22.3,7.6-22.3,20.8c0.2,13.1,9.8,20.3,22.3,20.3
		c5.3,0,10.3-1.1,14.2-3.7c3.9-2.6,6.6-6.6,7.4-12.5h-15.7c-0.4,3.1-2,5.7-5.9,5.7c-4.6,0-6.8-3.7-6.8-9.6c0-4.6,0.9-10.7,6.8-10.7
		c1.7,0,2.9,0.6,3.9,1.7c1.1,0.9,1.7,2.2,1.7,3.9L222.1,391.9L222.1,391.9z"/>
	<path fill="#425A88" d="M246.4,386.3c3.9-0.2,6.4,4.1,6.4,9.8c0,7.4-2.6,10.5-6.6,10.5c-3.9,0-6.6-3.1-6.6-10.5
		C239.6,391.9,241.1,386.3,246.4,386.3L246.4,386.3z M224.1,397c0,13.3,9.6,20.1,22.1,20.1c12.3,0,22.1-6.6,22.1-21
		c0-12-8.5-20.1-22.3-20.1C233,376,224.1,383.6,224.1,397L224.1,397z"/>
	<path fill="#425A88" d="M270.2,416h15.3v-19.2c0-4.8,0.9-8.7,5.3-8.7c4.1,0,5.3,2.2,5.3,7.9V416h15.3v-19.2c0-4.8,0.9-8.7,5.3-8.7
		c4.2,0,5.3,2.2,5.3,7.9V416h15.3v-23c0-10.5-3.5-17-14.9-17c-5.5,0-10,2.4-13.3,7.2c-1.8-4.2-5.7-7.2-12.7-7.2
		c-5.5,0-10.3,3.9-12.3,6.8v-5.7h-14L270.2,416L270.2,416z"/>
	<path fill="#425A88" d="M338.9,382.5c0,0.4,0,0.7,0.2,0.9c0.4,0.6,0.9,0.7,1.8,0.7c0.4,0,0.7,0,0.9-0.2c0.7-0.2,0.9-0.6,0.9-1.1
		c0-0.4,0-0.7-0.4-0.7c-0.2-0.2-0.5-0.4-1.1-0.6l-1.1-0.2c-0.5-0.2-1.1-0.4-1.3-0.6c-0.6-0.2-0.7-0.7-0.7-1.3c0-0.7,0.2-1.3,0.7-1.7
		c0.4-0.4,1.1-0.6,1.8-0.6s1.5,0.2,2,0.6c0.6,0.4,0.7,0.9,0.7,1.7h-0.9c0-0.4-0.2-0.6-0.4-0.9c-0.2-0.4-0.7-0.6-1.5-0.6
		c-0.6,0-0.9,0.2-1.3,0.4c-0.2,0.4-0.4,0.6-0.4,0.9s0.2,0.6,0.6,0.7c0.2,0.2,0.5,0.4,1.3,0.4l0.9,0.4c0.5,0,0.9,0.2,1.3,0.4
		c0.4,0.4,0.5,0.9,0.5,1.5c0,0.9-0.2,1.5-0.7,1.8c-0.7,0.4-1.3,0.6-2.2,0.6c-0.9,0-1.7-0.4-2-0.7c-0.5-0.6-0.7-1.1-0.7-1.8H338.9
		L338.9,382.5z"/>
	<path fill="#425A88" d="M344.5,377.5h1.3l2.2,6.1l2-6.1h1.5v7.2h-0.9v-4.2c0-0.2,0-0.4,0-0.7c0-0.4,0-0.7,0-1.1l-2.2,6.1h-0.9
		l-2-6.1v0.2c0,0.2,0,0.6,0,0.9c0,0.4,0,0.6,0,0.7v4.2h-0.9L344.5,377.5L344.5,377.5z"/>
</g>
</svg>
