<?xml version="1.0" encoding="iso-8859-1"?><!-- Generator: Adobe Illustrator 16.0.0, SVG Export Plug-In . SVG Version: 6.00 Build 0) --><!DOCTYPE svg PUBLIC "-//W3C//DTD SVG 1.1//EN" "http://www.w3.org/Graphics/SVG/1.1/DTD/svg11.dtd"><svg version="1.1" id="Layer_1" xmlns="http://www.w3.org/2000/svg" xmlns:xlink="http://www.w3.org/1999/xlink" x="0px" y="0px" width="192.756px" height="192.756px" viewBox="0 0 192.756 192.756" style="enable-background:new 0 0 192.756 192.756;" xml:space="preserve"><g><polygon style="fill-rule:evenodd;clip-rule:evenodd;fill:#FFFFFF;" points="0,0 192.756,0 192.756,192.756 0,192.756 0,0	"/><polygon style="fill-rule:evenodd;clip-rule:evenodd;" points="79.696,102.084 78.169,102.084 77.268,106.801 77.268,106.801	75.464,102.084 73.453,102.084 71.857,110.201 73.314,110.201 74.354,104.721 74.424,104.721 76.504,110.201 78.1,110.201	79.696,102.084	"/><path style="fill-rule:evenodd;clip-rule:evenodd;" d="M84.898,110.201c-0.069-0.348,0-0.625,0.07-0.902l0.555-2.844	c0.139-0.693,0.278-1.389-0.208-1.873c-0.417-0.416-1.18-0.555-1.804-0.555c-1.249,0-2.775,0.416-3.261,1.873l1.666,0.207	c0.069-0.625,0.624-0.902,1.179-0.902c0.277,0,0.555,0.07,0.693,0.277c0.139,0.209,0,0.557,0,0.764l-0.069,0.209	c-0.763,0.068-1.734,0.068-2.428,0.346c-0.833,0.277-1.526,0.902-1.734,1.805c-0.208,1.109,0.555,1.664,1.595,1.664	c0.902,0,1.457-0.346,2.15-1.041c-0.139,0.348-0.139,0.625-0.139,0.973H84.898L84.898,110.201z M83.511,107.564	c-0.069,0.416-0.139,0.764-0.486,1.109c-0.208,0.348-0.555,0.486-0.971,0.486c-0.486,0-0.693-0.277-0.555-0.764	c0.139-0.902,1.387-1.041,2.081-1.109L83.511,107.564L83.511,107.564z"/><path style="fill-rule:evenodd;clip-rule:evenodd;" d="M87.048,104.166l-1.179,6.035h1.734l0.625-3.191	c0.139-0.693,0.277-1.596,1.179-1.596s0.624,0.971,0.485,1.596l-0.625,3.191h1.734l0.625-3.191	c0.069-0.348,0.139-0.832,0.347-1.109c0.138-0.277,0.555-0.418,0.832-0.418c0.347,0,0.624,0.07,0.624,0.486	c0.07,0.209-0.069,0.764-0.139,1.041l-0.624,3.191h1.734l0.763-3.746c0.069-0.625,0.277-1.318,0-1.805	c-0.277-0.416-0.832-0.623-1.387-0.623c-0.694,0-1.457,0.346-1.942,1.039c-0.208-0.693-0.625-1.039-1.387-1.039	c-0.833,0-1.457,0.346-1.873,1.039h-0.069l0.208-0.9H87.048L87.048,104.166z"/><path style="fill-rule:evenodd;clip-rule:evenodd;" d="M101.547,107.494c0.139-0.832,0.207-1.732-0.139-2.357	c-0.416-0.693-1.18-1.109-2.012-1.109c-1.873,0-3.191,1.455-3.538,3.189c-0.347,1.805,0.555,3.053,2.358,3.053	c2.082,0,3.121-1.734,3.121-2.08l-1.525-0.07c-0.139,0.555-0.764,0.902-1.318,0.902c-0.693,0-0.971-0.555-0.902-1.248l0.07-0.279	H101.547L101.547,107.494z M97.869,106.455c0.209-0.693,0.625-1.25,1.389-1.25s0.832,0.557,0.764,1.25H97.869L97.869,106.455z"/><polygon style="fill-rule:evenodd;clip-rule:evenodd;" points="113.547,102.084 111.812,102.084 109.662,105.137 108.762,102.084	106.541,102.084 108.205,106.732 107.512,110.201 109.455,110.201 110.078,106.732 113.547,102.084	"/><path style="fill-rule:evenodd;clip-rule:evenodd;" d="M115.072,104.027c-1.871,0-3.121,1.387-3.467,3.121	c-0.348,1.734,0.416,3.121,2.219,3.121c1.805,0,3.191-1.318,3.539-3.053C117.709,105.414,116.947,104.027,115.072,104.027	L115.072,104.027z M114.865,105.205c0.416,0,0.625,0.141,0.693,0.557c0.07,0.416,0,0.971-0.068,1.455	c-0.139,0.695-0.418,1.943-1.389,1.943c-1.039,0-0.693-1.527-0.623-2.15C113.617,106.316,113.895,105.205,114.865,105.205	L114.865,105.205z"/><path style="fill-rule:evenodd;clip-rule:evenodd;" d="M122.842,110.201l1.18-6.035h-1.734l-0.623,3.189	c-0.07,0.348-0.139,0.695-0.277,0.973c-0.279,0.346-0.625,0.555-1.041,0.555c-0.625,0-0.555-0.486-0.416-0.902l0.693-3.814h-1.734	l-0.764,3.746c-0.068,0.623-0.207,1.178,0,1.732c0.209,0.486,0.764,0.625,1.318,0.625c0.832,0,1.525-0.346,1.943-1.109h0.068	l-0.209,1.041H122.842L122.842,110.201z"/><path style="fill-rule:evenodd;clip-rule:evenodd;" d="M125.34,104.166l-1.18,6.035h1.734l0.416-2.359	c0.277-1.041,0.625-2.08,1.943-2.012l0.346-1.734l-0.346-0.068c-0.695-0.07-1.18,0.623-1.527,1.248l0,0l0.209-1.109H125.34	L125.34,104.166z"/><path style="fill-rule:evenodd;clip-rule:evenodd;" d="M134.844,110.27c1.109,0,2.15-0.416,2.982-1.387	c0.693-0.764,1.109-1.873,1.318-2.775c0.207-0.971,0.139-2.15-0.348-2.914c-0.416-0.9-1.248-1.248-2.289-1.248	c-2.428,0-3.885,2.012-4.301,4.162c-0.207,1.041-0.139,2.082,0.277,2.914C132.971,109.924,133.803,110.27,134.844,110.27	L134.844,110.27z M136.162,103.471c0.623,0,0.9,0.279,1.039,0.834c0.139,0.484,0.07,1.248-0.068,1.803	c-0.07,0.555-0.277,1.18-0.555,1.734c-0.348,0.555-0.764,0.902-1.389,0.902c-1.387,0-1.18-1.596-0.971-2.637	c0.07-0.484,0.277-1.18,0.555-1.664C135.121,103.818,135.537,103.471,136.162,103.471L136.162,103.471z"/><polygon style="fill-rule:evenodd;clip-rule:evenodd;" points="148.646,104.166 147.26,104.166 145.596,107.842 145.525,107.842	145.387,104.166 143.791,104.166 142.195,107.842 142.127,107.842 141.918,104.166 140.045,104.166 140.74,110.201	142.266,110.201 143.93,106.316 143.93,106.316 144.139,110.201 145.664,110.201 148.646,104.166	"/><path style="fill-rule:evenodd;clip-rule:evenodd;" d="M149.342,104.166l-1.18,6.035h1.734l0.623-3.262	c0.07-0.346,0.209-0.693,0.418-1.039c0.207-0.277,0.484-0.486,0.832-0.486c0.9,0,0.623,0.902,0.486,1.525l-0.625,3.262h1.734	l0.693-3.746c0.139-0.555,0.277-1.318,0.068-1.734c-0.277-0.486-0.832-0.693-1.387-0.693c-0.832,0-1.457,0.416-1.943,1.178l0,0	l0.209-1.039H149.342L149.342,104.166z"/><path style="fill-rule:evenodd;clip-rule:evenodd;" d="M160.717,107.148h1.18c0.902,0,1.664,0,2.428-0.555	c0.693-0.486,1.109-1.318,1.318-2.082c0.139-0.832-0.07-1.525-0.693-2.012c-0.555-0.416-1.318-0.416-2.082-0.416h-3.051	l-1.596,8.117h1.873L160.717,107.148L160.717,107.148z M160.994,105.691l0.418-2.15h1.039c0.348,0,0.764,0,0.973,0.209	c0.275,0.207,0.346,0.555,0.275,0.832c-0.068,0.277-0.207,0.555-0.414,0.764c-0.418,0.346-0.764,0.346-1.25,0.346H160.994	L160.994,105.691z"/><path style="fill-rule:evenodd;clip-rule:evenodd;" d="M166.684,104.166l-1.18,6.035h1.734l0.484-2.359	c0.209-1.041,0.557-2.08,1.873-2.012l0.348-1.734l-0.277-0.068c-0.764-0.07-1.248,0.623-1.525,1.248h-0.07l0.209-1.109H166.684	L166.684,104.166z"/><path style="fill-rule:evenodd;clip-rule:evenodd;" d="M172.371,104.166h-1.734l-1.109,6.035h1.734L172.371,104.166	L172.371,104.166z M172.857,101.945h-1.734l-0.348,1.666h1.734L172.857,101.945L172.857,101.945z"/><path style="fill-rule:evenodd;clip-rule:evenodd;" d="M178.615,106.316c0.139-1.389-0.764-2.289-2.15-2.289	c-1.943,0-3.262,1.387-3.678,3.189c-0.346,1.805,0.486,3.053,2.359,3.053c1.455,0,2.775-0.902,3.189-2.357l-1.664-0.07	c-0.139,0.555-0.555,1.041-1.18,1.041c-0.971,0-0.832-1.041-0.623-1.805c0.139-0.762,0.416-1.732,1.387-1.732	c0.625,0,0.764,0.555,0.693,1.109L178.615,106.316L178.615,106.316z"/><path style="fill-rule:evenodd;clip-rule:evenodd;" d="M184.857,107.494c0.139-0.832,0.209-1.732-0.139-2.357	c-0.416-0.693-1.18-1.109-2.012-1.109c-1.873,0-3.191,1.455-3.537,3.189c-0.348,1.805,0.555,3.053,2.357,3.053	c2.012,0,3.053-1.734,3.123-2.08l-1.596-0.07c-0.07,0.555-0.695,0.902-1.25,0.902c-0.693,0-1.039-0.555-0.9-1.248l0.068-0.279	H184.857L184.857,107.494z M181.182,106.455c0.207-0.693,0.623-1.25,1.387-1.25s0.832,0.557,0.764,1.25H181.182L181.182,106.455z"	/><path style="fill-rule:evenodd;clip-rule:evenodd;" d="M135.189,112.352c4.717-1.389,9.156-1.457,14.082-1.041	c1.318,0.139,1.18,1.457-0.139,1.318c-4.578-0.416-9.643,0.139-12.693,1.803C134.289,115.125,133.871,112.697,135.189,112.352	L135.189,112.352z"/><path style="fill-rule:evenodd;clip-rule:evenodd;" d="M187.285,102.361c-0.068-0.207-0.139-0.623-0.832-0.623	c-0.555,0-0.764,0.277-0.764,0.623c0,0.348,0.348,0.486,0.486,0.486l0.416,0.139c0.348,0.07,0.416,0.139,0.416,0.346	c0,0.279-0.348,0.348-0.486,0.348c-0.277,0-0.623-0.068-0.623-0.486h-0.277c0,0.209,0.068,0.348,0.207,0.557	c0.139,0.068,0.277,0.207,0.693,0.207c0.348,0,0.834-0.139,0.834-0.693c0-0.277-0.277-0.486-0.486-0.555l-0.625-0.139	c-0.139,0-0.277-0.07-0.277-0.209c0-0.346,0.348-0.416,0.486-0.416c0.277,0,0.555,0.139,0.555,0.416H187.285L187.285,102.361z"/><path style="fill-rule:evenodd;clip-rule:evenodd;" d="M189.713,103.889v-2.15h-0.416l-0.625,1.803l0,0l-0.623-1.803h-0.348v2.15	h0.277v-1.25c0-0.068-0.068-0.346-0.068-0.555h0.068l0.555,1.805h0.279l0.623-1.805l0,0c0,0.209,0,0.486,0,0.555v1.25H189.713	L189.713,103.889z"/><path style="fill-rule:evenodd;clip-rule:evenodd;fill:#1E5645;" d="M4.015,83.91v19.561h5.827V97.09	c0.971,1.18,2.15,1.873,3.677,1.873c3.26,0,6.867-2.08,6.867-7.839c0-4.023-2.15-7.63-6.521-7.63c-1.665,0-3.746,0.833-4.579,2.566	H9.217v-2.15H4.015L4.015,83.91z M12.062,94.523c-1.527,0-2.358-1.388-2.358-3.469c0-1.942,0.971-3.26,2.358-3.26	c1.526,0,2.497,1.11,2.497,3.399C14.559,93.205,13.588,94.523,12.062,94.523L12.062,94.523z"/><path style="fill-rule:evenodd;clip-rule:evenodd;fill:#1E5645;" d="M20.872,98.547h5.827v-5.064c0-3.122,1.179-4.301,3.538-4.301	c0.416,0,0.833,0.139,1.249,0.208v-5.48c-0.277-0.069-0.555,0-0.763,0c-2.289,0-3.676,0.694-4.509,2.983h-0.069V83.91h-5.272	V98.547L20.872,98.547z"/><polygon style="fill-rule:evenodd;clip-rule:evenodd;fill:#1E5645;" points="31.97,82.592 37.797,82.592 37.797,78.43 31.97,78.43	31.97,82.592	"/><polygon style="fill-rule:evenodd;clip-rule:evenodd;fill:#1E5645;" points="31.97,98.547 37.797,98.547 37.797,83.91 31.97,83.91	31.97,98.547	"/><path style="fill-rule:evenodd;clip-rule:evenodd;fill:#1E5645;" d="M54.723,89.459c-0.416-4.301-4.093-5.966-7.978-5.966	c-4.855,0-8.394,2.844-8.394,7.838c0,4.926,3.677,7.631,8.394,7.631c2.012,0,3.885-0.416,5.341-1.387	c1.457-0.973,2.498-2.498,2.775-4.718h-5.896c-0.139,1.179-0.763,2.15-2.22,2.15c-1.734,0-2.566-1.387-2.566-3.607	c0-1.734,0.347-4.023,2.566-4.023c0.625,0,1.11,0.208,1.457,0.624c0.416,0.347,0.624,0.833,0.624,1.457H54.723L54.723,89.459z"/><path style="fill-rule:evenodd;clip-rule:evenodd;fill:#1E5645;" d="M60.897,89.598c0-1.596,0.971-2.567,2.705-2.567	c1.318,0,2.567,1.179,2.567,2.567H60.897L60.897,89.598z M71.926,92.512c0.139-5.272-3.191-9.018-8.532-9.018	c-4.717,0-8.324,3.052-8.324,7.838c0,4.926,3.607,7.631,8.324,7.631c3.399,0,7.076-1.248,8.116-4.856h-5.549	c-0.417,0.902-1.318,1.318-2.22,1.318c-1.526,0-2.844-1.18-2.844-2.914H71.926L71.926,92.512z"/><polygon style="fill-rule:evenodd;clip-rule:evenodd;fill:#425A88;" points="72.412,98.547 78.169,98.547 78.169,78.43	72.412,78.43 72.412,98.547	"/><polygon style="fill-rule:evenodd;clip-rule:evenodd;fill:#425A88;" points="79.141,98.547 84.898,98.547 84.898,83.91	79.141,83.91 79.141,98.547	"/><polygon style="fill-rule:evenodd;clip-rule:evenodd;fill:#425A88;" points="79.141,82.592 84.898,82.592 84.898,78.43	79.141,78.43 79.141,82.592	"/><path style="fill-rule:evenodd;clip-rule:evenodd;fill:#425A88;" d="M85.8,98.547h5.827v-7.492c0-1.873,0.416-2.983,2.22-2.983	c1.665,0,2.012,1.249,2.012,2.706v7.77h5.827v-8.81c0-3.954-1.805-6.243-5.688-6.243c-2.15,0-3.607,0.971-4.925,2.705V83.91H85.8	V98.547L85.8,98.547z"/><path style="fill-rule:evenodd;clip-rule:evenodd;fill:#425A88;" d="M108.137,89.598c0-1.596,0.971-2.567,2.705-2.567	c1.387,0,2.566,1.179,2.566,2.567H108.137L108.137,89.598z M119.234,92.512c0.07-5.272-3.189-9.018-8.6-9.018	c-4.719,0-8.256,3.052-8.256,7.838c0,4.926,3.607,7.631,8.256,7.631c3.398,0,7.074-1.248,8.115-4.856h-5.549	c-0.418,0.902-1.25,1.318-2.221,1.318c-1.525,0-2.844-1.18-2.844-2.914H119.234L119.234,92.512z"/><path style="fill-rule:evenodd;clip-rule:evenodd;fill:#425A88;" d="M119.166,95.633c0-1.596,1.248-2.844,2.844-2.844	s2.844,1.318,2.844,2.844c0,1.595-1.248,2.914-2.844,2.914S119.166,97.229,119.166,95.633L119.166,95.633z"/><path style="fill-rule:evenodd;clip-rule:evenodd;fill:#425A88;" d="M141.225,89.459c-0.416-4.301-4.092-5.966-7.977-5.966	c-4.855,0-8.395,2.844-8.395,7.838c0.07,4.926,3.678,7.631,8.395,7.631c2.012,0,3.885-0.416,5.342-1.387	c1.455-0.973,2.496-2.498,2.773-4.718h-5.896c-0.139,1.179-0.762,2.15-2.219,2.15c-1.734,0-2.566-1.387-2.566-3.607	c0-1.734,0.346-4.023,2.566-4.023c0.623,0,1.109,0.208,1.457,0.624c0.416,0.347,0.623,0.833,0.623,1.457H141.225L141.225,89.459z"	/><path style="fill-rule:evenodd;clip-rule:evenodd;fill:#425A88;" d="M150.381,87.378c1.457-0.07,2.428,1.526,2.428,3.676	c0,2.775-0.971,3.954-2.496,3.954c-1.457,0-2.498-1.179-2.498-3.954C147.814,89.459,148.369,87.378,150.381,87.378L150.381,87.378z M141.988,91.402c0,4.995,3.607,7.561,8.324,7.561c4.648,0,8.324-2.498,8.324-7.908c0-4.509-3.191-7.561-8.395-7.561	C145.318,83.494,141.988,86.338,141.988,91.402L141.988,91.402z"/><path style="fill-rule:evenodd;clip-rule:evenodd;fill:#425A88;" d="M159.33,98.547h5.758v-7.215c0-1.803,0.346-3.26,2.012-3.26	c1.525,0,2.012,0.833,2.012,2.983v7.492h5.758v-7.215c0-1.803,0.346-3.26,2.012-3.26c1.596,0,2.012,0.833,2.012,2.983v7.492h5.758	v-8.671c0-3.954-1.318-6.382-5.619-6.382c-2.082,0-3.746,0.902-4.996,2.705c-0.693-1.595-2.15-2.705-4.785-2.705	c-2.082,0-3.885,1.457-4.648,2.566v-2.15h-5.271V98.547L159.33,98.547z"/><path style="fill-rule:evenodd;clip-rule:evenodd;fill:#425A88;" d="M185.205,85.921c0,0.139,0,0.277,0.068,0.347	c0.139,0.208,0.348,0.278,0.693,0.278c0.139,0,0.277,0,0.348-0.07c0.277-0.069,0.346-0.208,0.346-0.416	c0-0.139,0-0.277-0.139-0.277c-0.068-0.069-0.207-0.139-0.416-0.208l-0.416-0.069c-0.207-0.069-0.416-0.139-0.484-0.208	c-0.209-0.069-0.277-0.277-0.277-0.486c0-0.277,0.068-0.485,0.277-0.625c0.139-0.139,0.416-0.208,0.693-0.208	s0.555,0.069,0.762,0.208c0.209,0.139,0.279,0.347,0.279,0.625h-0.348c0-0.139-0.07-0.208-0.139-0.347	c-0.07-0.138-0.277-0.208-0.555-0.208c-0.209,0-0.348,0.069-0.486,0.139c-0.068,0.139-0.139,0.208-0.139,0.347	c0,0.139,0.07,0.208,0.209,0.277c0.068,0.069,0.207,0.138,0.484,0.138l0.348,0.139c0.207,0,0.346,0.069,0.486,0.139	c0.139,0.139,0.207,0.347,0.207,0.555c0,0.347-0.068,0.555-0.277,0.694c-0.277,0.139-0.486,0.208-0.832,0.208	c-0.348,0-0.625-0.139-0.764-0.278c-0.207-0.208-0.277-0.417-0.277-0.694H185.205L185.205,85.921z"/><path style="fill-rule:evenodd;clip-rule:evenodd;fill:#425A88;" d="M187.285,84.048h0.486l0.832,2.29l0.764-2.29h0.555v2.706	h-0.348v-1.596c0-0.069,0-0.138,0-0.277s0-0.278,0-0.417l-0.832,2.29h-0.348l-0.762-2.29v0.07c0,0.069,0,0.208,0,0.347	s0,0.208,0,0.277v1.596h-0.348V84.048L187.285,84.048z"/></g></svg>