<?xml version="1.0" encoding="utf-8"?>
<!-- Generator: Adobe Illustrator 19.2.1, SVG Export Plug-In . SVG Version: 6.00 Build 0)  -->
<svg version="1.1" id="Layer_1" xmlns="http://www.w3.org/2000/svg" xmlns:xlink="http://www.w3.org/1999/xlink" x="0px" y="0px"
	 viewBox="0 0 290.6 289.6" style="enable-background:new 0 0 290.6 289.6;" xml:space="preserve">
<style type="text/css">
	.st0{fill:#FFF100;}
	.st1{fill:#231F20;}
</style>
<rect class="st0" width="290.6" height="289.6"/>
<g>
	<path class="st1" d="M63.9,241.3c0-9.2-7.3-16.6-16.5-16.6c-9.5,0-16.9,7.2-16.9,16.6c0,9.2,7.5,16.6,16.9,16.6
		C56.7,257.9,63.9,250.7,63.9,241.3z M36.5,241.4c0-6.2,4.7-10.9,10.8-10.9c5.9,0,10.6,4.8,10.6,10.9c0,6.2-4.5,10.8-10.6,10.8
		C41.3,252.2,36.5,247.4,36.5,241.4z"/>
	<path class="st1" d="M81.3,244.7c0,3.2-0.3,4.7-0.9,5.8c-0.9,1.4-2.4,2.2-4.4,2.2c-2.8,0-4.6-1.2-4.6-7.5v-11.8h-5.8v12.9
		c0,8.5,3.6,11.7,9.2,11.7c2.9,0,5-0.5,6.9-2.5v1.9h5.3v-24h-5.8V244.7z"/>
	<path class="st1" d="M51,260.7c-2.9-0.7-5.9-1.5-9.9-1.1l-2.7,6.3c4.8-1.1,7.8-0.4,11.3,0.5c2.5,0.6,5.3,1.3,8.8,1.3
		c2.2,0,4.8-0.3,7.8-1v-6C59,262.7,55.1,261.7,51,260.7z"/>
	<rect x="200.2" y="233.4" class="st1" width="5.8" height="24"/>
	<rect x="200.3" y="225.4" class="st1" width="5.8" height="5.3"/>
	<path class="st1" d="M220.6,232.8c-7,0-12.7,5.7-12.7,12.6c0,6.9,5.7,12.6,12.8,12.6c7,0,12.8-5.6,12.8-12.4
		C233.4,238.4,227.8,232.8,220.6,232.8z M220.7,252.7c-3.9,0-7-3.3-7-7.4c0-3.9,3.2-7.2,6.9-7.2c3.9,0,7,3.3,7,7.3
		C227.6,249.4,224.5,252.7,220.7,252.7z"/>
	<path class="st1" d="M140.7,225.4l-5.8,2v6h-3.3v5.3h3.3v7.6c0,8.5,3.6,11.7,9.2,11.7h2.9v-5.3h-1.8c-2.3,0-4.6-1.2-4.6-7.5v-6.5
		h6.3v-5.3h-6.3V225.4z"/>
	<path class="st1" d="M129.5,245.5c-4.2-2.6-7.7-3.1-7.7-5c0-1,0.7-1.7,2.1-1.7h5.7v-5.4h-5.8c-4.5,0-7.8,2.8-7.8,7.4
		c0,2.4,1,5.8,6.4,7.9c4.5,1.8,6.1,3.8,6.1,6c0,2.4-1.6,4.4-4,4.4c-2.4,0-4.3-1.8-4.3-4.3c0-0.7,0.2-1.5,0.4-2.1h-6.4
		c-0.1,0.6-0.2,1.3-0.2,1.9c0,5.5,4.4,9.9,10.4,9.9c5.8,0,10.4-4,10.4-9.9C134.6,250.6,132.7,247.4,129.5,245.5z"/>
	<path class="st1" d="M102.5,232.8c-2.9,0-5.2,0.8-6.9,2.2v-9.7h-5.8v32.1h5.8v-1.7c1.8,1.5,4.1,2.3,7,2.3c7,0,12.8-5.6,12.8-12.4
		C115.3,238.4,109.7,232.8,102.5,232.8z M102.6,252.7c-3.9,0-7-3.3-7-7.4c0-3.9,3.2-7.2,6.9-7.2c3.9,0,7,3.3,7,7.3
		C109.5,249.4,106.4,252.7,102.6,252.7z"/>
	<path class="st1" d="M191.8,235.1c-1.8-1.4-4.1-2.2-6.9-2.2c-7.2,0-12.8,5.6-12.8,12.8c0,6.8,5.8,12.4,12.8,12.4
		c2.8,0,5.2-0.9,7-2.3v1.7h5.8v-32.1h-5.8V235.1z M184.8,252.7c-3.8,0-6.9-3.3-6.9-7.3c0-4,3.1-7.3,7-7.3c3.8,0,6.9,3.3,6.9,7.2
		C191.8,249.5,188.7,252.7,184.8,252.7z"/>
	<path class="st1" d="M164.6,244.7c0,3.2-0.3,4.7-0.9,5.8c-0.9,1.4-2.4,2.2-4.4,2.2c-2.8,0-4.6-1.2-4.6-7.5v-11.8H149v12.9
		c0,8.5,3.6,11.7,9.2,11.7c2.9,0,5-0.5,6.9-2.5v1.9h5.3v-24h-5.8V244.7z"/>
</g>
<g>
	<g>
		<path class="st1" d="M32.6,32.2h11.9c19.7,0,23,13.3,23,21.7c0,4.6-1.2,21.2-22.9,21.2H32.6V32.2z M44.4,67.4
			c4.4,0,15.1-0.5,15.1-13.5c0-13.6-11.2-14-15.6-14h-3.5v27.5H44.4z"/>
		<path class="st1" d="M71.3,32.2h23v7.7H79.3v9.9h14.5v7.7H79.3v9.9h15.1v7.7h-23V32.2z"/>
		<path class="st1" d="M106.5,63.1c0.2,3.4,2.7,5.4,5.7,5.4c3.5,0,5.8-2.3,5.8-5.4c0-4.4-3.7-6-6.3-6.8c-1.4-0.5-2.8-0.9-4.2-1.5
			c-6.5-2.7-7.8-7.8-7.8-11.1c0-5.6,4.4-12.2,12.8-12.2c8.2,0,12.1,6.3,12.4,12.2h-8.2c0-2.1-1.3-4.5-4.5-4.5
			c-3.2,0-4.6,2.2-4.6,4.5c0,3.4,3.1,4.5,5.5,5.2c1.4,0.5,2.7,0.9,4.1,1.4c2,0.8,8.7,3.8,8.7,12.3c0,7.6-5.7,13.6-13.9,13.6
			c-6.4,0-13.8-4.4-13.9-13.1H106.5z"/>
		<path class="st1" d="M132,32.2h8v42.9h-8V32.2z"/>
		<path class="st1" d="M190.4,53.2c-0.1,10.2-6.4,22.9-22.8,22.9c-15.6,0-22.9-11.9-22.9-22.2c0-10.3,7.8-22.5,22.8-22.5
			c9.9,0,17.6,5,20.8,13.4h-9.5c-3.3-5.5-9.2-5.7-11.3-5.7c-10,0-14.9,7.8-14.9,14.5c0,7.3,5.3,14.8,15.2,14.8
			c5.2,0,10.2-2.4,12.5-7.7h-17.9v-7.5H190.4z"/>
		<path class="st1" d="M195.5,32.2h8l19.2,29v-29h8v42.9h-8l-19.2-29v29h-8V32.2z"/>
	</g>
	<g>
		<path class="st1" d="M33.4,99h-9.9v-7.7h27.8V99h-9.9v35.2h-8V99z"/>
		<path class="st1" d="M55.8,91.3h8v17.2h15.7V91.3h8v42.9h-8v-18H63.8v18h-8V91.3z"/>
		<path class="st1" d="M139.9,99H130v-7.7h27.8V99h-9.9v35.2h-8V99z"/>
		<g>
			<polygon class="st1" points="118.4,134.2 118.4,105.2 99.3,134.2 89.8,134.2 118.4,91.3 126.4,91.3 126.4,134.2 			"/>
			<rect x="103.2" y="118.5" class="st1" width="17.9" height="7.5"/>
		</g>
	</g>
</g>
<g>
	<path class="st1" d="M136.5,171.8c0,12.4-9.9,22.3-22.6,22.3c-12.8,0-22.6-9.9-22.6-22.3c0-12.4,9.8-22.5,22.6-22.5
		C126.7,149.3,136.5,159.4,136.5,171.8z M128.5,171.6c0-8-6.3-14.6-14.7-14.6c-8.4,0-14.7,6.6-14.7,14.6c0,8.1,6.3,14.7,14.6,14.7
		C122.3,186.4,128.5,179.6,128.5,171.6z"/>
	<path class="st1" d="M139.8,150.1h12.4c14.4,0,16.1,9.5,16.1,13.6c0,6.8-4.6,12.8-11.6,13.5l12.1,15.8H159l-11.1-15.8h-0.1V193h-8
		V150.1z M147.8,170.6h4.7c1.9,0,8-0.2,8-6.4c0-6.2-6.1-6.4-8-6.4h-4.7V170.6z"/>
	<path class="st1" d="M175.5,150.1h8v18.6l13.3-18.6h9.5l-16.2,21.1l16.2,21.8h-9.5l-13.3-18.8V193h-8V150.1z"/>
	<path class="st1" d="M214.5,181c0.2,3.4,2.7,5.4,5.7,5.4c3.5,0,5.8-2.3,5.8-5.4c0-4.4-3.7-6-6.3-6.8c-1.4-0.5-2.8-0.9-4.2-1.5
		c-6.5-2.7-7.8-7.8-7.8-11.1c0-5.6,4.4-12.2,12.8-12.2c8.2,0,12.1,6.3,12.4,12.2h-8.2c0-2.1-1.3-4.5-4.5-4.5c-3.2,0-4.6,2.2-4.6,4.5
		c0,3.4,3.1,4.5,5.5,5.2c1.4,0.5,2.7,0.9,4.1,1.4c2,0.8,8.7,3.8,8.7,12.3c0,7.6-5.7,13.6-13.9,13.6c-6.4,0-13.8-4.4-13.9-13.1H214.5
		z"/>
	<polygon class="st1" points="41.3,149.9 41.3,178.9 60.5,149.9 67.9,149.9 67.9,178.9 87,149.9 96.2,149.9 67.9,192.8 60.5,192.8 
		60.5,163.8 41.3,192.8 33.4,192.8 33.4,149.9 	"/>
</g>
</svg>
