<?xml version="1.0" encoding="utf-8"?>
<!-- Generator: Adobe Illustrator 17.0.0, SVG Export Plug-In . SVG Version: 6.00 Build 0)  -->
<!DOCTYPE svg PUBLIC "-//W3C//DTD SVG 1.1//EN" "http://www.w3.org/Graphics/SVG/1.1/DTD/svg11.dtd">
<svg version="1.1" id="Layer_1" xmlns="http://www.w3.org/2000/svg" xmlns:xlink="http://www.w3.org/1999/xlink" x="0px" y="0px"
	 width="800px" height="600px" viewBox="0 0 800 600" enable-background="new 0 0 800 600" xml:space="preserve">
<path fill="#F05B26" d="M277.271,261.939l-14.72,10.802c5.13,6.829,7.312,14.676,6.421,23.542c-0.485,4.86-1.833,9.19-3.963,13.051
	l17.831,5.529c2.317-5.08,3.988-10.525,4.602-16.585C288.803,284.616,285.325,272.535,277.271,261.939z"/>
<path d="M296.152,266.487h18.316v34.76c0,6.775,0.471,11.467,1.393,14.102c0.93,2.639,2.434,4.676,4.491,6.135
	c2.06,1.463,4.602,2.193,7.609,2.193c3.027,0,5.582-0.723,7.686-2.16c2.103-1.441,3.665-3.551,4.69-6.332
	c0.757-2.078,1.131-6.525,1.131-13.339v-35.358h18.113v30.577c0,12.615-0.993,21.237-2.981,25.882
	c-2.432,5.656-6.021,9.998-10.757,13.031c-4.724,3.039-10.746,4.549-18.038,4.549c-7.924,0-14.326-1.768-19.211-5.307
	c-4.885-3.541-8.318-8.473-10.319-14.793c-1.413-4.383-2.124-12.348-2.124-23.886V266.487z"/>
<path d="M379.149,236.776c3.181,0,5.91,1.156,8.169,3.447c2.278,2.304,3.415,5.092,3.415,8.37c0,3.22-1.123,5.977-3.376,8.26
	c-2.246,2.272-4.936,3.409-8.073,3.409c-3.213,0-5.962-1.156-8.234-3.478c-2.271-2.325-3.407-5.146-3.407-8.455
	c0-3.194,1.129-5.906,3.376-8.165C373.263,237.906,375.98,236.776,379.149,236.776z M370.102,266.508h18.107v72.172h-18.107V266.508
	z"/>
<path d="M405.724,239.894h18.12v26.614h10.746v15.583h-10.746v56.589h-18.12v-56.589h-9.279v-15.583h9.279V239.894z"/>
<path fill="#F05B26" d="M458.866,238.41v35.828c3.273-3.264,6.809-5.725,10.61-7.357c3.813-1.638,7.879-2.465,12.21-2.465
	c9.429,0,17.43,3.563,24.018,10.688c6.59,7.124,9.888,16.249,9.888,27.4c0,10.745-3.401,19.739-10.217,26.974
	c-6.807,7.229-14.887,10.842-24.218,10.842c-4.156,0-8.029-0.736-11.61-2.219c-3.581-1.484-7.138-3.912-10.681-7.268v7.627h-17.977
	V238.41H458.866z M477.903,281.144c-5.697,0-10.435,1.941-14.189,5.833c-3.763,3.898-5.641,8.978-5.641,15.258
	c0,6.425,1.878,11.603,5.641,15.565c3.755,3.961,8.492,5.941,14.189,5.941c5.538,0,10.19-2.02,13.973-6.045
	c3.775-4.021,5.672-9.151,5.672-15.387c0-6.194-1.864-11.273-5.575-15.236C488.256,283.124,483.57,281.144,477.903,281.144z"/>
<path fill="#F05B26" d="M532.731,236.776c3.183,0,5.905,1.156,8.17,3.447c2.278,2.304,3.414,5.092,3.414,8.37
	c0,3.22-1.13,5.977-3.374,8.26c-2.247,2.272-4.939,3.409-8.074,3.409c-3.221,0-5.964-1.156-8.234-3.478
	c-2.272-2.325-3.407-5.146-3.407-8.455c0-3.194,1.13-5.906,3.368-8.165C526.84,237.906,529.562,236.776,532.731,236.776z
	 M523.684,266.508h18.108v72.172h-18.108V266.508z"/>
<path fill="#F05B26" d="M558.552,239.894h18.121v26.614h10.744v15.583h-10.744v56.589h-18.121v-56.589h-9.28v-15.583h9.28V239.894z"
	/>
<polygon points="296.456,344.94 296.444,345.019 296.515,345.019 "/>
<path fill="#F05B26" d="M282.838,314.867c-0.368,1.191-4.666,0.94-9.604-0.551c-4.915-1.505-8.618-3.685-8.257-4.88
	c0.361-1.186,4.652-0.941,9.573,0.562C279.483,311.499,283.186,313.678,282.838,314.867z"/>
<path d="M278.664,326.561c-7.956-5.801-20.508-6.266-30.525-2.328l-0.032-0.059c-4.395,1.682-9.054,2.4-14.094,1.891
	c-7.757-0.781-14.384-3.92-19.883-9.395c-7.092-7.03-10.093-15.91-9.009-26.659c0.968-9.623,4.827-17.265,11.584-22.898
	c6.744-5.626,14.597-8.009,23.6-7.106c7.77,0.788,14.236,3.964,19.463,9.441l14.785-10.945c-8.621-9.71-19.339-15.268-32.234-16.564
	c-9.073-0.909-17.772,0.528-26.084,4.285c-8.325,3.768-15.114,9.318-20.392,16.664c-5.279,7.343-8.377,15.648-9.293,24.934
	c-1.407,13.868,2.213,26.311,10.848,37.37c8.628,11.037,20.231,17.295,34.829,18.748c8.124,0.818,15.648-0.336,22.709-3.008
	l0.012,0.053c5.39-2.061,10.015-1.518,11.868,2.42l0.059-0.045c0,0,0.29,1.521,1.677,1.658h19.193
	c0.639-0.072,0.922-0.557,1.045-1.016C288.196,334.931,281.705,328.892,278.664,326.561z"/>
</svg>
