<?xml version="1.0" encoding="utf-8"?>
<!-- Generator: Adobe Illustrator 19.2.1, SVG Export Plug-In . SVG Version: 6.00 Build 0)  -->
<!DOCTYPE svg PUBLIC "-//W3C//DTD SVG 1.1//EN" "http://www.w3.org/Graphics/SVG/1.1/DTD/svg11.dtd">
<svg version="1.1" id="Layer_1" xmlns="http://www.w3.org/2000/svg" xmlns:xlink="http://www.w3.org/1999/xlink" x="0px" y="0px"
	 viewBox="0 0 960 560" style="enable-background:new 0 0 960 560;" xml:space="preserve">
<g>
	<path d="M536.6,302.5l3.8,4.5c3.2,3.8,4.5,8.3,4.5,12.8c0,10.2-8.6,20.5-20.5,20.5c-6.1,0-11.5-2.6-15.7-7.4l-5.4-6.1
		c-15,6.7-32,10.6-50.6,10.6c-64.3,0-111.4-46.1-111.4-110.4s47.1-110.4,111.4-110.4c64.7,0,111.7,46.1,111.7,110.4
		C564.5,257,554.2,283.2,536.6,302.5z M452.7,156.8c-39.4,0-64.7,30.1-64.7,70.1c0,39.7,25.3,70.1,64.7,70.1c8,0,15.4-1.3,22.4-3.5
		l-11.8-13.8c-3.2-3.5-4.5-8-4.5-12.5c0-10.2,8.6-20.5,20.5-20.5c5.8,0,11.2,2.2,15.4,7l12.2,14.1c7-11.5,10.9-25.6,10.9-41
		C517.7,186.9,492.1,156.8,452.7,156.8z"/>
</g>
</svg>
