<?xml version="1.0" encoding="UTF-8" standalone="no"?>
<!-- Created with Inkscape (http://www.inkscape.org/), Gigaone -->

<svg
   xmlns:dc="http://purl.org/dc/elements/1.1/"
   xmlns:cc="http://creativecommons.org/ns#"
   xmlns:rdf="http://www.w3.org/1999/02/22-rdf-syntax-ns#"
   xmlns:svg="http://www.w3.org/2000/svg"
   xmlns="http://www.w3.org/2000/svg"
   xmlns:inkscape="http://www.inkscape.org/namespaces/inkscape"
   version="1.1"
   width="355.73749"
   height="79.525002"
   viewBox="0 0 355.73749 79.525002" preserveAspectRatio="none"
   id="svg2"
   xml:space="preserve"><metadata
     id="metadata8"><rdf:RDF><cc:Work
         rdf:about=""><dc:format>image/svg+xml</dc:format><dc:type
           rdf:resource="http://purl.org/dc/dcmitype/StillImage" /></cc:Work></rdf:RDF></metadata><defs
     id="defs6"><clipPath
       id="clipPath18"><path
         d="m 0,0 2845.93,0 0,636 L 0,636 0,0 z"
         inkscape:connector-curvature="0"
         id="path20" /></clipPath></defs><g
     transform="matrix(1.25,0,0,-1.25,0,79.525)"
     id="g10"><g
       transform="scale(0.1,0.1)"
       id="g12"><g
         id="g14"><g
           clip-path="url(#clipPath18)"
           id="g16"><path
             d="m 222.871,522.324 -126.2694,0 0,-124.199 126.2694,0 c 44.848,0 69,20.703 69,62.793 0,43.469 -26.223,61.406 -69,61.406 z m 57.27,-389.16 -86.25,173.887 -97.2894,0 0,-173.887 -96.6016,0 0,483.008 224.941,0 c 91.079,0 166.289,-50.371 166.289,-153.184 0,-72.453 -31.05,-117.988 -92.46,-142.148 l 92.46,-187.676 -111.089,0"
             inkscape:connector-curvature="0"
             id="path22"
             style="fill:#6f4323;fill-opacity:1;fill-rule:nonzero;stroke:none" /><path
             d="m 924.59,413.301 c -29.672,0 -44.856,-12.422 -58.652,-30.352 l 0,-136.621 c 14.492,-20.019 36.574,-31.055 64.167,-31.055 36.575,0 56.583,31.739 56.583,92.461 0,74.524 -24.84,105.567 -62.098,105.567 z m 17.937,-287.727 c -31.742,0 -59.339,12.414 -76.589,28.293 l 0,-106.2693 L 770.719,0 l 0,495.41 95.219,0 0,-22.762 c 17.941,15.868 42.089,30.36 76.589,30.36 77.273,0 140.763,-57.969 140.763,-193.203 0,-108.328 -51.06,-184.231 -140.763,-184.231"
             inkscape:connector-curvature="0"
             id="path24"
             style="fill:#6f4323;fill-opacity:1;fill-rule:nonzero;stroke:none" /><path
             d="m 1127.45,133.164 0,362.246 95.23,0 0,-362.246 -95.23,0 z m 47.61,391.926 c -29.67,0 -54.51,24.832 -54.51,54.5 0,29.68 24.84,54.512 54.51,54.512 29.67,0 54.51,-24.832 54.51,-54.512 0,-29.668 -24.84,-54.5 -54.51,-54.5"
             inkscape:connector-curvature="0"
             id="path26"
             style="fill:#6f4323;fill-opacity:1;fill-rule:nonzero;stroke:none" /><path
             d="m 1482.79,382.258 c -14.49,20.008 -36.56,31.043 -64.16,31.043 -36.58,0 -56.58,-31.739 -56.58,-92.461 0,-74.512 24.83,-105.567 62.09,-105.567 29.68,0 44.86,12.422 58.65,30.364 l 0,136.621 z m 0,-249.094 0,22.774 c -17.93,-15.879 -42.09,-30.364 -76.58,-30.364 -77.28,0 -140.76,57.961 -140.76,193.196 0,108.339 51.05,184.238 140.76,184.238 31.74,0 59.34,-12.422 76.58,-28.289 l 0,113.847 95.23,47.606 0,-503.008 -95.23,0"
             inkscape:connector-curvature="0"
             id="path28"
             style="fill:#6f4323;fill-opacity:1;fill-rule:nonzero;stroke:none" /><path
             d="m 1810.55,125.574 c -80.73,0 -151.12,33.813 -187.68,87.629 l 69.69,62.102 c 33.81,-39.328 77.28,-55.207 123.51,-55.207 57.27,0 84.18,15.879 84.18,52.441 0,31.055 -16.56,44.856 -107.64,65.559 -89.02,20.691 -151.11,48.992 -151.11,144.207 0,87.636 77.28,141.445 172.5,141.445 75.21,0 130.41,-28.281 175.95,-75.898 l -69.7,-67.618 c -31.04,31.739 -65.54,49.688 -109.7,49.688 -51.75,0 -69.01,-22.09 -69.01,-43.477 0,-30.359 20.71,-40.019 97.3,-57.961 76.59,-17.937 161.45,-44.16 161.45,-149.043 0,-91.765 -57.95,-153.867 -189.74,-153.867"
             inkscape:connector-curvature="0"
             id="path30"
             style="fill:#f14624;fill-opacity:1;fill-rule:nonzero;stroke:none" /><path
             d="m 2207.99,125.574 c -80.73,0 -151.11,33.813 -187.69,87.629 l 69.7,62.102 c 33.81,-39.328 77.28,-55.207 123.51,-55.207 57.27,0 84.18,15.879 84.18,52.441 0,31.055 -16.56,44.856 -107.65,65.559 -89,20.691 -151.1,48.992 -151.1,144.207 0,87.636 77.27,141.445 172.5,141.445 75.2,0 130.41,-28.281 175.94,-75.898 l -69.68,-67.618 c -31.06,31.739 -65.55,49.688 -109.71,49.688 -51.76,0 -69.01,-22.09 -69.01,-43.477 0,-30.359 20.71,-40.019 97.29,-57.961 76.6,-17.937 161.46,-44.16 161.46,-149.043 0,-91.765 -57.95,-153.867 -189.74,-153.867"
             inkscape:connector-curvature="0"
             id="path32"
             style="fill:#f14624;fill-opacity:1;fill-rule:nonzero;stroke:none" /><path
             d="m 2561.95,228.379 0,387.793 -96.6,0 0,-483.008 261.62,0 -55.54,95.215 -109.48,0"
             inkscape:connector-curvature="0"
             id="path34"
             style="fill:#f14624;fill-opacity:1;fill-rule:nonzero;stroke:none" /><path
             d="m 620.992,239.426 c -10.347,-17.258 -35.191,-33.117 -66.242,-33.117 -40.707,0 -55.199,22.761 -55.199,48.3 0,28.977 19.32,45.539 55.199,45.539 33.812,0 49.684,-4.836 66.242,-15.187 l 0,-45.535 z m -51.75,263.582 c -39.594,0 -68.465,-5.801 -96.019,-16.903 l 0,-84.191 c 31.308,16.543 54.062,22.434 96.019,22.434 34.496,0 51.75,-20.703 51.75,-46.235 l 0,-17.937 c -15.18,7.59 -36.566,14.492 -69.687,14.492 -82.117,0 -146.973,-40.02 -146.973,-120.059 0,-87.636 67.621,-129.035 135.238,-129.035 33.813,0 64.168,13.801 81.422,31.742 l 0,-24.152 95.219,0 0,242.883 c 0,81.414 -59.336,126.961 -146.969,126.961"
             inkscape:connector-curvature="0"
             id="path36"
             style="fill:#6f4323;fill-opacity:1;fill-rule:nonzero;stroke:none" /><path
             d="m 2802.47,197.355 -12.38,0 0,-13.3 12.38,0 c 4.75,0 7.38,2.359 7.38,6.707 0,4.609 -2.77,6.593 -7.38,6.593 z m 8.3,-21.464 10,-20.422 -12.38,0 -9.34,18.965 -8.96,0 0,-18.965 -10.92,0 0,51.886 24.08,0 c 10.02,0 17.79,-5.265 17.79,-16.328 0,-8.957 -4.74,-13.039 -10.27,-15.136 z m -12.38,43.711 c -22.25,0 -39.1,-16.86 -39.1,-39.106 0,-22.254 16.85,-39.109 39.1,-39.109 22.24,0 39.1,16.855 39.1,39.109 0,22.246 -16.86,39.106 -39.1,39.106 z m 0,-86.641 c -26.99,0 -47.54,20.535 -47.54,47.535 0,26.992 20.55,47.531 47.54,47.531 26.99,0 47.54,-20.539 47.54,-47.531 0,-27 -20.55,-47.535 -47.54,-47.535"
             inkscape:connector-curvature="0"
             id="path38"
             style="fill:#f14624;fill-opacity:1;fill-rule:nonzero;stroke:none" /></g></g></g></g></svg>