<?xml version="1.0" encoding="utf-8"?>
<!-- Generator: Adobe Illustrator 18.0.0, SVG Export Plug-In . SVG Version: 6.00 Build 0)  -->
<!DOCTYPE svg PUBLIC "-//W3C//DTD SVG 1.1//EN" "http://www.w3.org/Graphics/SVG/1.1/DTD/svg11.dtd">
<svg version="1.1" id="Layer_1" xmlns="http://www.w3.org/2000/svg" xmlns:xlink="http://www.w3.org/1999/xlink" x="0px" y="0px"
	 viewBox="0 0 612 140.7" enable-background="new 0 0 612 140.7" xml:space="preserve">
<g>
	<path d="M79,41.1c-19.9,0-35.3,14.6-35.3,35.9c0,21.2,16.1,35.9,35.3,35.9c14.6,0,25.3-7.4,31.5-17.6l-12.9-5.8
		c-2.3,5.8-8.6,10.2-17.9,10.2c-13,0-20.7-8.8-20.7-19h52.2l1.5-4.4C112.8,54.9,97.5,41.1,79,41.1z M59.8,67.7
		c2.3-7.6,8.5-13.5,19.2-13.5c9.2,0,16.9,5.9,17.7,13.5H59.8z"/>
	<path d="M609.5,73.3h-26.7v12.3h12.6c-0.7,9.1-9,14.1-18.1,14.1c-15.2,0-21.8-11.1-21.8-22.4c0-11.4,6.6-23,22-23
		c8.6,0,15.1,4.5,18.4,10.6l12.5-6.2c-6.2-11.4-16.9-17.6-30.9-17.7c-21.6,0.1-37.1,15.5-37.1,36.3c0,21.7,16.9,35.6,35.7,35.6
		C595,112.9,611,99,611,77.7L609.5,73.3z"/>
	<path d="M17.3,50.5l-0.8-0.7L15,42.5H1.2v68.9h15.3V71.2c0.3-8.5,6.1-15.5,18-15.5h8.1V42.5c-3.1-1.4-4.6-1.4-7.6-1.4
		C28.6,41.1,22.7,43.8,17.3,50.5z"/>
	<polygon points="311.7,90 293.4,42.5 277.6,42.5 304.1,109.2 291.9,140.7 306.3,140.7 344.6,42.5 330.2,42.5 	"/>
	<path d="M257.6,48.4l-0.7,0.7l-0.8-0.7c-4.6-4.4-12.4-7.3-19.9-7.3c-19.9,0-36.8,14.6-36.8,35.9c0,21.2,16.9,35.9,36.8,35.9
		c7.7,0,15.4-3,19.9-7.4l0.8-0.7l0.7,0.7l1.5,5.9h13.8V0h-15.3V48.4z M236.9,99.6c-14.6,0-22.4-10.2-22.4-22.7s7.8-22.8,22.4-22.8
		c13,0,22.2,10.3,22.2,22.8S250,99.6,236.9,99.6z"/>
	<path d="M175.8,48.4l-0.7,0.7l-0.7-0.7c-4.7-4.4-12.3-7.3-19.9-7.3c-19.9,0-36.8,14.6-36.8,35.9c0,21.2,16.9,35.9,36.8,35.9
		c7.6,0,15.3-3,19.9-7.4l0.7-0.7l0.7,0.7l1.6,5.9h13.8V42.5h-13.8L175.8,48.4z M155.1,99.6c-14.5,0-22.4-10.2-22.4-22.7
		s7.9-22.8,22.4-22.8c13,0,22.3,10.3,22.3,22.8S168.1,99.6,155.1,99.6z"/>
	<path d="M427.7,41.1c-6.1,0-13.8,2.9-17.6,7.3l-3.8,4.4c-4-7.2-12-11.7-23-11.7c-6.1,0-13.8,2.9-16.9,7.3l-0.7,0.7l-0.8-0.7
		l-1.5-5.9h-13.8v68.9h15.3V69.7c0.3-8.5,7.9-15.5,16.9-15.5c7.7,0,12.3,4.4,12.3,13.2v44h15.4V69.7c0.3-8.5,7.8-15.5,16.9-15.5
		c7.6,0,12.3,4.4,12.3,13.2v44h15.3V65.9C453.8,51.3,444.7,41.1,427.7,41.1z"/>
	<path d="M518.8,48.4l-0.7,0.7l-0.8-0.7c-4.6-4.4-12.2-7.3-19.9-7.3c-19.9,0-36.8,14.6-36.8,35.9c0,21.2,16.9,35.9,36.8,35.9
		c7.7,0,15.4-3,19.9-7.4l0.8-0.7l0.7,0.7l1.5,5.9h13.8V42.5h-13.8L518.8,48.4z M498.1,99.6c-14.5,0-22.4-10.2-22.4-22.7
		s7.8-22.8,22.4-22.8c13,0,22.3,10.3,22.3,22.8S511.1,99.6,498.1,99.6z"/>
</g>
</svg>
