<?xml version="1.0" encoding="UTF-8" standalone="no"?>
<!-- Created with Inkscape (http://www.inkscape.org/) -->

<svg
   xmlns:dc="http://purl.org/dc/elements/1.1/"
   xmlns:cc="http://creativecommons.org/ns#"
   xmlns:rdf="http://www.w3.org/1999/02/22-rdf-syntax-ns#"
   xmlns:svg="http://www.w3.org/2000/svg"
   xmlns="http://www.w3.org/2000/svg"
   xmlns:sodipodi="http://sodipodi.sourceforge.net/DTD/sodipodi-0.dtd"
   xmlns:inkscape="http://www.inkscape.org/namespaces/inkscape"
   width="373.12723"
   height="229.04054"
   id="svg2"
   version="1.1"
   inkscape:version="0.48.2 r9819"
   sodipodi:docname="Nouveau document 1">
  <defs
     id="defs4" />
  <sodipodi:namedview
     id="base"
     pagecolor="#ffffff"
     bordercolor="#666666"
     borderopacity="1.0"
     inkscape:pageopacity="0.0"
     inkscape:pageshadow="2"
     inkscape:zoom="1.4"
     inkscape:cx="158.84322"
     inkscape:cy="188.58231"
     inkscape:document-units="px"
     inkscape:current-layer="g2993"
     showgrid="false"
     fit-margin-bottom="5"
     fit-margin-top="5"
     fit-margin-right="5"
     fit-margin-left="5"
     inkscape:window-width="1366"
     inkscape:window-height="706"
     inkscape:window-x="-8"
     inkscape:window-y="-8"
     inkscape:window-maximized="1" />
  <metadata
     id="metadata7">
    <rdf:RDF>
      <cc:Work
         rdf:about="">
        <dc:format>image/svg+xml</dc:format>
        <dc:type
           rdf:resource="http://purl.org/dc/dcmitype/StillImage" />
        <dc:title></dc:title>
      </cc:Work>
    </rdf:RDF>
  </metadata>
  <g
     inkscape:label="Calque 1"
     inkscape:groupmode="layer"
     id="layer1"
     transform="translate(-23.208633,-239.22442)">
    <g
       transform="matrix(1.25,0,0,-1.25,-192.34253,898.29471)"
       inkscape:label="RBCI Track Qualifier"
       id="g2993">
      <path
         inkscape:connector-curvature="0"
         d="m 298.79367,424.66621 21.29113,-0.0453 -0.0875,-74.36345 -24.85801,0.0907 c -1.18572,-0.26241 -2.61765,-0.48595 -4.17594,-0.45355 -8.74711,0 -16.49317,3.53448 -20.55572,13.43816 -5.66943,-10.48358 -14.35175,-14.37119 -24.1712,-14.37119 -3.46321,0 -6.3368,0.58638 -8.705,1.52265 0.0842,-0.0518 -61.0905,0.0875 -61.0905,0.0875 l 0.11663,70.8322 29.59441,-0.0389 c 11.47816,0 22.29218,-8.79248 22.29218,-23.03084 0,-6.12298 -2.91894,-10.93713 -2.91894,-10.93713 4.10466,7.98579 12.65092,11.78269 20.99632,11.74057 8.59809,0 17.64001,-2.59822 22.8818,-15.80312 3.99128,9.9134 9.57971,15.40788 22.20472,15.30745 2.87683,0 4.1727,-0.40172 7.14024,-1.15656 l 0.0454,27.18085 z"
         style="fill:#ffffff;fill-opacity:1;fill-rule:nonzero;stroke:none"
         id="path3251" />
      <path
         inkscape:connector-curvature="0"
         d="m 424.71683,424.22464 42.22589,-0.0454 -0.094,-74.09131 -53.36389,0.081 c -3.81957,-1.33475 -7.81085,-2.14466 -10.74923,-2.14466 -6.88106,-0.0389 -18.75446,2.32284 -22.16584,13.48351 -2.48159,-5.98367 -12.94249,-11.29674 -17.86031,-11.25138 l -34.27898,0.0486 0.15227,70.47908 27.65708,-0.0421 c 11.27082,0 22.05569,-5.5366 22.0071,-19.9985 0.0194,-1.03346 -0.17495,-2.54315 -0.53455,-4.06579 l 46.93314,-0.0421 0.0713,27.58905 z"
         style="fill:#ffffff;fill-opacity:1;fill-rule:nonzero;stroke:none"
         id="path3255" />
      <path
         inkscape:connector-curvature="0"
         d="m 395.92359,370.03302 0.0259,22.40558 -12.32372,0.0453 -0.0259,-24.81913 c -0.0194,-8.38751 8.6402,-15.22322 19.35056,-15.22322 10.73304,-0.0356 19.44452,6.78387 19.44452,15.1811 l 0.0453,24.8159 -12.27836,0 -0.0227,-22.40558 c 0,-3.7483 -3.19431,-6.78387 -7.09488,-6.78387 -3.97508,0 -7.1208,3.03557 -7.1208,6.78387 m 45.77658,-15.84848 -12.45979,0.0454 0.0745,65.52562 12.47274,-0.0486 -0.0875,-65.52238 z m 20.99955,0 -12.4533,0 0.11015,65.57098 12.45654,-0.0486 -0.11339,-65.52238 z m -93.31216,57.45236 c 2.89951,-3.04206 4.50963,-6.96854 4.50963,-11.16392 0,-4.68456 -2.11875,-8.97065 -5.51069,-12.14229 8.32272,-3.88113 10.86263,-8.97065 10.8853,-16.02018 -0.0453,-9.73198 -8.56893,-17.76636 -19.05575,-17.89595 l -27.49186,0 0.0907,62.00085 21.28465,-0.0972 c 7.09488,0 12.32047,-1.38334 15.28801,-4.68132 M 266.23963,371.32889 c 0.12635,0.88443 0.16846,1.78182 0.12635,2.67597 0.15874,13.43492 -8.705,20.84405 -20.02442,20.84405 -11.37773,0.0486 -20.5946,-9.2849 -20.62052,-20.80193 -0.0194,-11.42309 9.13264,-20.79546 20.51685,-20.84406 8.66288,0 15.44352,3.88113 18.94237,10.09158 l -10.08511,4.63921 c -1.28615,-2.76668 -4.30552,-4.72992 -7.80761,-4.68456 -4.71048,0 -8.4847,3.43729 -8.4847,7.7169 0.0259,0.31425 -0.0907,0.18466 -0.0648,0.45031 l 27.50158,-0.0875 z m -64.152,34.94635 -7.89832,-0.0421 -0.10691,-51.51079 -13.19843,0 0.0454,62.3151 21.85159,-0.0939 c 0.29157,0 1.76562,0.0454 2.07663,0.0454 10.33132,0 18.70263,-8.25793 18.72531,-18.43698 -0.0227,-8.65965 -6.1165,-15.88736 -14.30639,-17.85384 l 18.23611,-26.05992 -15.57958,0 -13.21463,20.43585 0.0292,14.8701 3.07769,0.0389 c 4.88218,0 8.85726,3.66407 8.85726,8.12834 0,4.50963 -3.68027,8.16398 -8.59485,8.16398 m 101.3078,-46.82623 c -3.33038,-3.30447 -7.72338,-5.3487 -12.58936,-5.3487 -10.24061,0 -18.59249,9.19419 -18.59249,20.39698 0.0486,11.24814 8.39076,20.35162 18.66052,20.35162 4.81739,0 9.19095,-2.05071 12.52133,-5.26446 l 0.013,30.84816 12.38851,-0.0486 -0.0842,-65.93381 -12.36583,0 0.0486,4.99881 z M 238.777,378.55674 c 0,4.23749 3.44378,7.63267 7.61647,7.59379 4.1727,0 7.60676,-3.39841 7.56788,-7.59379 l -15.18435,0 z"
         style="fill:#dd0741;fill-opacity:1;fill-rule:nonzero;stroke:none"
         id="path3259" />
      <path
         inkscape:connector-curvature="0"
         d="m 279.95044,478.31843 c 0.0227,24.9228 20.22528,45.02821 45.1254,44.9375 24.87421,0 45.01201,-20.20584 44.96989,-45.11892 -0.0259,-24.87745 -20.23175,-44.99258 -45.12215,-44.99258 -24.87745,0.0486 -44.99258,20.2512 -44.97314,45.174"
         style="fill:#ffd500;fill-opacity:1;fill-rule:nonzero;stroke:none"
         id="path3263" />
      <path
         inkscape:connector-curvature="0"
         d="m 228.81156,464.48827 c -0.76456,1.20839 -1.39306,3.76774 -1.65871,7.22771 -10.64233,-1.6652 -15.49536,5.25151 -15.11307,11.40688 0.24297,4.75584 1.43841,6.64133 6.75795,10.81727 -5.23531,0.85203 -8.2644,5.3487 -7.81733,9.15855 0.37905,3.19108 0.88119,3.99128 1.57448,5.07333 l 0.58315,0.76456 0.87795,-0.54426 c 0.0389,-0.0356 3.90704,-2.69217 5.52364,-3.40814 0.0453,-0.0421 0.15874,-0.0421 0.51511,-0.13606 0.34016,-0.0421 0.69653,-0.0907 1.14684,-0.12959 0.89415,-0.13931 2.03775,-0.3596 3.18784,-0.72569 2.19326,-0.66413 4.80119,-2.01831 5.49772,-5.01825 0.69653,-2.75048 0.15551,-4.85627 -1.27967,-6.74176 -0.67385,-0.85203 -1.5518,-1.70407 -2.49131,-2.46863 -0.92006,-0.80668 -2.04099,-1.65547 -3.18459,-2.59822 -1.68463,-1.39305 -2.52047,-3.01289 -2.36497,-4.54202 0.22678,-1.88225 1.70407,-2.73752 3.41462,-2.78287 2.11551,0 4.13058,1.12416 6.46963,2.78287 1.1436,0.76133 2.34876,1.70731 3.55068,2.51723 1.24727,0.85851 2.53018,1.70731 3.94268,2.3358 1.23431,0.63174 2.35524,0.93951 3.34982,1.16953 1.05289,0.17494 1.92437,0.26241 2.82499,0.34988 1.63604,0.1879 2.89627,0.36284 4.33469,1.21812 0.42115,0.26889 0.89739,0.67709 1.49996,1.25375 0.63174,0.54426 1.31207,1.16628 2.00536,1.7559 1.4287,1.16628 3.27207,2.28721 5.53984,2.42004 0.58638,0.0486 1.21164,0.0486 1.79478,0.0875 0.65117,0.0551 1.10797,0.14254 1.30883,0.17818 0.1717,0.0972 0.39848,0.27537 0.82611,0.58962 0.35637,0.35961 0.82936,0.80344 1.33151,1.30559 1.07233,0.97838 2.53018,2.1479 4.5485,2.82499 2.60794,0.8488 4.38328,1.39306 6.06791,2.10579 1.60687,0.68033 3.14572,1.48377 5.39081,2.9643 1.36066,0.9881 6.91022,2.92219 12.74487,-0.98162 1.75267,-1.25699 3.16192,-2.29369 4.80444,-3.68675 1.59392,-1.29911 3.45349,-2.91246 6.06143,-5.12192 0.784,-0.8002 1.65547,-1.83365 2.44271,-2.82175 0.80992,-1.03022 1.57448,-2.01832 2.1803,-2.78612 2.80879,-3.45349 4.91458,-6.10678 5.37138,-9.38533 0.80667,-5.75042 1.3477,-9.06137 3.5442,-14.90898 0.0259,-0.0389 0.0875,-0.0907 0.18142,-0.22353 0.12959,-0.13283 0.26565,-0.26566 0.39848,-0.4406 l 0.52159,-0.54426 c 0.19762,-0.17819 0.3758,-0.39848 0.58638,-0.62526 0.35636,-0.50215 0.67385,-1.0367 0.94274,-1.6166 0.28833,-0.49567 0.5799,-1.08205 0.91683,-1.61983 0.57666,-1.03022 1.30235,-1.88225 2.33904,-2.51075 1.3639,-0.71921 1.67815,-0.9881 2.21918,-1.48053 0.98486,-0.90063 0.46975,-2.29693 -0.31425,-2.96754 -0.51511,-0.49567 -1.1922,-0.76132 -2.02156,-0.89739 0.37905,-1.52913 -0.79048,-3.09713 -3.21051,-3.18784 -4.91782,-0.13606 -8.17046,2.24509 -9.54732,3.45349 l -0.1717,-0.12958 c -0.52483,-0.35961 -1.32502,-0.94599 -2.3358,-1.38982 -1.21488,-0.58962 -2.58526,-0.54103 -3.63815,-0.50215 -0.58639,0.10043 -1.16953,0.1393 -1.65872,0.1393 -0.51834,0.0486 -0.99134,0.0486 -1.35418,0 -0.87147,-0.22677 -1.90817,-0.57666 -2.96106,-0.9395 -1.07881,-0.32073 -2.32933,-0.68357 -3.45673,-0.7678 -2.13495,-0.0389 -3.50533,0.81639 -4.1727,2.19973 -0.20734,0.22354 -0.33693,0.58314 -0.4082,0.90063 -0.78076,-1.57124 -1.7235,-2.82499 -2.55286,-3.28179 -0.8326,-0.311 -1.82718,-0.44707 -2.61118,-0.53778 -0.40496,-0.0842 -0.80344,-0.0842 -1.11768,-0.13283 -0.0454,0 -0.20734,0 -0.27538,-0.0421 -3.43081,-1.6166 -8.88642,-3.68351 -11.0408,-3.72563 -2.37792,-0.094 -4.86923,1.83366 -6.26229,4.5809 -1.06261,-0.0454 -2.31636,0.2203 -2.78936,0.66413 -1.32178,1.35743 -3.24939,5.08305 -3.36602,6.51498 -0.0453,1.03346 0.60906,1.70731 1.23432,2.01832 0.58638,0.31749 1.39306,0.53779 2.09283,0.63174 1.36714,0.311 2.95782,0.26889 3.65111,0.22029 l 0.69977,0 c 0.2041,0 0.46975,-0.0421 0.69329,-0.0842 0.18142,0 0.27213,-0.0518 0.43088,-0.13606 0.46975,0.67709 1.43517,0.90063 2.11226,1.03021 l 0.44384,0 c -0.4244,0.35961 -0.78076,0.72569 -1.09825,1.07557 -0.2203,-0.12634 -0.4244,-0.17818 -0.6447,-0.26889 -0.63497,-0.17494 -1.48701,-0.3596 -2.39088,-0.39524 -2.87035,-0.19114 -7.58083,0.26241 -8.01171,0.26241 -0.76456,-0.0421 -2.10578,-0.26241 -3.49884,-0.45355 -1.15333,-0.2203 -2.46863,-0.34988 -3.45997,-0.31101 -0.51187,-0.98162 -1.03346,-2.02155 -1.43194,-2.87683 -0.49891,-0.97838 -1.03345,-1.96648 -1.3963,-2.45891 -0.62525,-0.85203 -1.41249,-1.30235 -2.11226,-1.70731 -0.35313,-0.0972 -0.6447,-0.27861 -0.91683,-0.36284 -0.26889,-0.13607 -0.49243,-0.22354 -0.6285,-0.36608 -0.58638,-0.34989 -1.59716,-0.93951 -2.67273,-1.4287 -1.03021,-0.45031 -2.33256,-0.90387 -3.47941,-0.71273 -2.62413,0.39848 -4.55821,0.6285 -5.43293,0.66414 -0.35636,0 -0.76456,-0.13607 -1.34446,-0.49243 -0.27213,-0.2203 -0.58314,-0.45032 -0.89739,-0.6771 -0.34017,-0.26241 -0.6285,-0.54102 -0.99134,-0.84879 -1.37038,-1.12093 -3.16516,-2.51399 -5.76662,-2.3358 -0.2041,0.0518 -0.69977,0.0518 -1.21487,0.13606 -0.24622,0.0875 -0.51187,0.13931 -0.76457,0.17818 -0.18142,-0.22677 -0.3596,-0.49243 -0.51186,-0.80343 -0.15875,-0.23002 -0.29481,-0.49891 -0.4244,-0.71921 -0.18466,-0.27861 -0.34341,-0.53779 -0.51511,-0.76456 -0.85851,-1.12741 -2.07015,-1.97944 -4.25369,-2.07016 -0.0648,0 -0.2365,0 -0.48271,0.0907 -0.15874,0 -0.38552,0.0486 -0.58962,0.094 -0.4244,0.0421 -0.94275,0.17818 -1.45785,0.26889 -0.54103,0.1393 -1.0367,0.22678 -1.45786,0.31101 l -0.49891,0.0907 c -0.1555,-0.0907 -0.30453,-0.22678 -0.42439,-0.26242 -0.20734,-0.1393 -0.473,-0.23001 -0.80992,-0.23001 -0.33693,0 -1.43518,0.0907 -2.55934,0.31749 -0.53779,0.17494 -1.11769,0.35312 -1.70731,0.67061 -0.46651,0.26889 -1.10149,0.71921 -1.29587,1.48377 -0.25593,1.07557 -0.0972,1.79802 0.26241,2.42327 0.13931,0.26566 0.31101,0.49243 0.43088,0.71273 0.11015,0.22678 0.17818,0.36608 0.31749,0.68033 0.10691,0.49243 0.19762,0.98162 0.26241,1.48053 0.13607,0.49243 0.23002,1.07881 0.42764,1.61984 0.47299,1.16952 1.35094,2.05719 3.08093,2.1965 l 0.12958,0.0875 c 1.12417,2.73428 4.1727,4.31524 6.08735,4.21805 l 0.0875,0 c 1.46109,-0.31425 2.38116,-1.16304 2.87359,-2.10902 0.33693,0.31748 0.67061,0.62525 0.80992,0.94598 0.0421,0.0907 0.0875,0.27213 0.19762,0.40496 0.0713,0.22678 0.13606,0.44383 0.20086,0.71921 0.1393,0.54102 0.36932,1.11768 0.58638,1.7073 0.45031,1.07881 1.30235,2.69217 3.07769,2.69217 1.568,0 3.14572,0.21706 4.1565,0.63174 0.46975,0.17494 0.67061,0.31425 0.85203,0.40172 m 62.29567,0.44707 c -1.27968,-0.2203 -2.49455,-0.49567 -3.52477,-0.67385 0.27213,-0.71273 0.71597,-1.52913 1.23108,-2.42004 0.43411,0.75809 0.92654,1.48053 1.41897,2.01832 0.28833,0.35312 0.58314,0.66413 0.87472,1.07557 m 69.30631,-11.49112 c -0.54426,-1.70406 -1.91465,-3.41137 -4.42863,-3.60251 -1.20516,-0.0356 -2.7602,0.50539 -4.01396,0.99458 -0.62849,0.26565 -1.26347,0.48919 -1.88225,0.71596 -0.54426,0.18791 -0.94274,0.31101 -1.30882,0.31101 -0.2041,0.0518 -0.40172,0 -0.64794,0 -0.27537,0 -0.56694,-0.0356 -0.85851,-0.0356 -0.68681,-0.0875 -1.47729,-0.18143 -2.24185,-0.13931 -1.27644,0 -2.72133,0.31425 -3.90705,1.39306 -2.8088,-2.96754 -6.10678,-3.72886 -8.9091,-3.63815 -1.1922,0 -3.57012,0.90387 -3.14572,2.6954 -3.54096,0.0421 -5.11544,3.0453 -2.78612,4.71697 0.34017,0.21382 0.66089,0.44707 1.12417,0.80668 0.43087,0.40172 1.05937,0.94274 1.95352,1.96972 1.81746,1.80126 2.96106,3.9524 3.81309,6.37567 0.92007,2.46863 1.50645,5.16728 2.14143,7.86269 1.25375,5.39081 2.62089,11.31294 6.95233,15.9813 3.28179,3.59604 5.84113,5.569 12.32372,10.1499 1.84985,1.34446 3.81957,3.18784 5.67914,4.62301 1.77859,1.49025 3.75479,2.96754 5.52041,3.09713 2.92866,0.3596 7.86592,-0.75485 11.72113,-5.64675 0,0 0.0777,-0.0518 0.0907,-0.10043 0.13931,-0.0389 0.29481,-0.0875 0.52483,-0.17494 0.53779,-0.18143 1.16304,-0.32073 1.90493,-0.49243 1.5518,-0.4082 3.52152,-0.90387 5.54308,-1.98268 1.27643,-0.71273 2.10902,-1.34447 2.85415,-1.96972 0.35312,-0.23002 0.67061,-0.49567 1.07557,-0.76781 0.33369,-0.26241 0.65765,-0.53778 1.09825,-0.71273 0.49243,-0.36284 1.01078,-0.45355 1.64575,-0.50214 0.31101,-0.0389 0.60258,-0.0875 0.9881,-0.17819 0.39848,-0.0421 0.78076,-0.13606 1.22784,-0.26241 1.25699,-0.36608 2.5885,-1.08205 3.81957,-1.84337 1.1922,-0.71921 2.32933,-1.57124 3.43082,-2.29045 1.21487,-0.80992 2.37468,-1.12093 3.91028,-1.43842 0.76132,-0.17494 1.57124,-0.36284 2.44271,-0.53778 0.89739,-0.26242 1.82394,-0.58314 2.89951,-1.03022 1.99564,-0.94274 3.66083,-1.84661 5.1608,-2.78612 1.41574,-0.90387 2.62089,-1.75266 3.79366,-2.51074 2.24509,-1.52913 4.02043,-2.47511 6.29144,-2.47511 1.63603,0 2.78612,0.94598 2.80232,2.56258 -0.0162,0.71921 -0.40172,1.61336 -1.26024,2.68893 -0.40819,0.45355 -0.9395,1.03993 -1.43193,1.53236 -0.60906,0.62526 -1.18896,1.12093 -1.74942,1.70407 -1.21812,1.12093 -2.49131,2.3844 -3.36602,3.63815 -0.96867,1.30235 -1.66196,2.73429 -1.57772,4.39948 0.13606,1.66195 0.94598,3.40813 2.13818,4.48694 2.46215,2.15763 4.71372,2.96106 6.63485,3.46321 0.91035,0.26242 1.69435,0.44708 2.45567,0.67062 0.72245,0.27213 1.23108,0.49243 1.71055,0.89738 0.55074,0.4892 1.06909,0.90387 1.38658,1.12093 0.20086,0.13931 0.40172,0.31749 0.66737,0.35961 0.27537,0.0486 0.92331,0.1393 1.32827,-0.45356 0.74188,-1.16304 1.05613,-2.19326 1.23755,-3.1846 0.15227,-0.89415 0.094,-1.71054 0.094,-2.37144 0,-3.7807 -2.04747,-7.01065 -6.78711,-8.18017 3.70294,-3.45349 6.44047,-7.40913 6.44047,-11.27082 -0.0162,-7.26659 -6.48583,-10.67796 -11.44901,-10.67796 -0.28509,0 -0.91358,0.0356 -1.69758,0.12958 0.3596,-1.61335 0.15226,-3.19107 -0.10043,-4.44483 -0.17495,-0.80667 -0.39524,-1.52264 -0.5961,-2.06043 l -0.21382,-0.62849 c -0.01,-0.31425 0,-0.45356 0.72244,-0.54103 0.45032,-0.094 0.8812,-0.094 1.30559,-0.094 l 0.71921,0 c 0.27213,-0.094 0.51511,-0.094 0.73541,-0.18142 2.40707,-0.66737 2.95134,-2.55934 3.21375,-3.98804 0.20734,-0.71921 0.31425,-1.39306 0.5637,-2.07015 0.0842,-0.17818 0.15551,-0.3596 0.20086,-0.54102 1.01078,1.16628 2.26777,1.66519 3.32067,1.66519 1.57448,0 4.84979,-2.83148 5.39081,-3.77422 0.24946,-0.49243 0.31425,-0.93951 0.31425,-1.29911 0,-0.18142 -0.0648,-0.31749 -0.0648,-0.45355 0.13282,0.85527 1.70407,0.67061 2.57554,-0.85204 0.56694,-0.98486 0.9233,-1.74618 0.79048,-3.23319 0.0227,-0.0842 0.0616,-0.17494 0.11015,-0.31425 0.0875,-0.22354 0.19762,-0.53455 0.31424,-0.84879 0.13607,-0.40172 0.31101,-0.76781 0.37905,-1.12417 0.068,-0.35636 0.1393,-0.80992 0.068,-1.26347 -0.0842,-0.71273 -0.5637,-1.16629 -0.96218,-1.48053 -0.42764,-0.31101 -0.96543,-0.57343 -1.45786,-0.71273 -0.9881,-0.36284 -2.1317,-0.58638 -2.92218,-0.62526 -0.53779,0 -0.94599,0.22354 -1.30235,0.39848 -0.73864,-0.0875 -1.90169,-0.13606 -3.5442,-0.13606 -2.67273,0.094 -4.15002,1.16628 -4.96318,2.24833 -0.40172,0.49567 -0.63174,0.93626 -0.87471,1.29911 -0.29157,-0.0486 -0.51835,-0.17819 -0.76456,-0.22678 -0.26566,-0.1717 -0.53455,-0.26241 -0.784,-0.35636 -0.11987,-0.0421 -0.27538,-0.0421 -0.33693,-0.0907 -0.13931,0 -0.31425,-0.0842 -0.47299,-0.0842 -1.9762,-0.0453 -3.38546,0.98486 -4.57766,1.92437 -0.63174,0.45355 -1.23756,0.94598 -2.00536,1.39306 -0.67385,0.40496 -1.45461,0.7678 -2.39412,1.03021 -0.58638,0.13607 -1.27967,0.31425 -2.02479,0.36933 -0.78076,0.13606 -1.61336,0.0875 -2.47511,-0.14255 -2.9967,-0.80344 -5.22559,0.59286 -6.90698,1.66195 -0.46976,0.31425 -0.89091,0.54103 -1.37038,0.85528 -0.4244,0.31101 -0.94275,0.7192 -1.37039,1.29911 -1.2991,1.79801 -2.08634,4.03987 -2.39411,6.46638 -0.99134,-0.31101 -2.09283,-0.44383 -2.96754,-0.44383 l -4.75584,0.31425 c -3.50857,0 -5.1284,-0.45356 -7.79789,-0.58963 -1.54533,-0.0907 -3.9686,0 -5.00206,0.0486 -0.068,-0.0486 -0.2041,-0.22354 -0.36608,-0.27537 0.5961,-0.12635 0.90387,-0.39848 1.21487,-0.85204 0.11015,0.0486 0.34989,0.0972 0.50215,0.0972 l 5.08629,-0.0486 c 1.44165,-0.0875 2.65005,-0.62526 2.65005,-2.69541 0.0259,-0.98162 -1.74618,-5.78605 -5.09276,-6.41455 -0.4244,-1.84337 -1.8369,-4.89515 -5.27743,-4.76556 -2.37792,0 -7.00417,1.29911 -10.57429,2.52047 -0.33369,0.13282 -0.6285,0.34988 -0.8326,0.53778 -0.15226,0.17818 -0.3596,0.31425 -0.5151,0.48919 -0.11663,0.13607 -0.21706,0.22354 -0.28834,0.36285 -0.82935,-0.0518 -1.39629,0 -1.82069,0.0421 -0.51511,0.0875 -0.93951,0.22354 -1.29911,0.53779 -0.9719,0.90387 -1.52589,2.02155 -1.91465,3.23643 -0.0356,0.26565 -0.1231,0.53779 -0.1717,0.76456 m 0.57666,8.25793 c 0.27213,0.45355 0.47623,0.89739 0.67385,1.30235 0.22678,0.45031 0.43412,0.85527 0.65442,1.16952 -0.65442,0.0389 -1.18896,0.0389 -1.75266,0.13606 -0.31425,0 -0.67062,0.0421 -1.03346,0.0907 0.49243,-0.85204 1.01726,-1.80126 1.45785,-2.69865"
         style="fill:#ffffff;fill-opacity:1;fill-rule:nonzero;stroke:none"
         id="path3267" />
      <path
         inkscape:connector-curvature="0"
         d="m 218.79838,502.82623 c 2.76344,-0.71921 5.81197,-0.80344 7.87888,-2.9643 1.16305,-1.4287 1.28292,-3.8131 0.40172,-5.29687 -1.57124,-2.78612 -4.82387,-4.26341 -6.84542,-6.64133 -1.95353,-1.66195 -2.73753,-4.2634 -2.06368,-6.73528 0.69329,-2.19973 2.85416,-3.72562 5.11869,-3.86168 3.45673,-0.0907 6.0841,1.61983 8.80219,3.23319 2.77964,1.93408 5.3649,4.49018 8.59809,5.29686 2.04099,0.77105 4.46427,0.35961 6.48582,1.16952 2.26777,0.45032 3.9524,2.33257 5.72774,3.90057 1.95029,1.62308 4.26989,2.56258 6.88431,2.47511 2.31312,-0.40496 3.62195,1.74942 5.18671,3.09713 2.62414,2.37792 6.22342,2.64681 9.31406,4.03987 2.20298,0.71921 4.02368,2.28721 6.04199,3.36602 1.97944,0.85203 4.69105,0.99134 6.68993,0.22354 1.35094,-0.62526 2.64681,-1.16629 3.77421,-2.02156 l 9.47281,-7.94044 c 0.15226,-0.27537 0.51187,-0.49891 0.78724,-0.7192 2.66949,-3.28179 5.49772,-6.47287 7.6521,-9.97172 0.72245,-1.25699 1.03346,-2.59821 1.34447,-3.9524 0.43088,-5.33574 1.91465,-10.01059 3.67055,-14.72431 0.46651,-0.76132 1.34446,-1.21488 1.87901,-1.97944 1.48053,-2.05719 2.44919,-4.71048 4.82711,-6.15214 l 1.46109,-0.71272 c 0.0162,-0.0907 0.0875,-0.31101 0,-0.45032 l -0.24621,-0.22354 c -2.91571,-0.49243 -5.09925,1.35095 -6.62189,3.45997 -0.92331,1.79478 -2.18354,3.85845 -4.26665,4.61654 -0.0907,0.0518 -0.15875,-0.12311 -0.29481,-0.17171 0.29481,-0.62849 0.90063,-1.16952 1.24403,-1.80125 0.75485,-1.29911 1.51941,-2.73429 1.90169,-4.03664 0.40496,-1.48377 2.07015,-2.60793 3.36602,-3.45673 l 1.91141,-0.94598 c 0.24621,-0.13283 0.28833,-0.54103 0.0907,-0.76456 l -0.29481,-0.12959 c -3.11981,-0.094 -5.95128,0.94274 -8.08299,3.22995 -0.54426,0.58314 -1.18896,1.12093 -1.97296,1.12093 -1.39306,-1.25051 -2.76992,-2.51075 -4.69104,-2.60794 -1.88873,0.31749 -4.11115,0.36609 -5.86705,-0.39848 -1.5842,-0.53778 -3.18784,-1.25699 -4.98262,-1.30558 -0.82611,0 -1.77858,0.40819 -2.06043,1.21487 -0.0292,0.99458 -0.78724,2.19974 -0.11663,3.22996 l 1.18896,1.75266 c 0,0.27537 -0.18142,0.40496 -0.42439,0.49243 -0.49243,0.0486 -1.29911,-0.80344 -1.49997,0.0972 0.12958,1.83689 1.88225,2.87035 3.09389,4.12734 0.26565,1.43518 0.80991,2.69217 1.84013,3.81634 -0.0162,0.13282 -0.1555,0.31425 -0.31425,0.40172 -1.52588,-0.22354 -3.00642,-0.62202 -4.66837,-0.62202 -1.27643,-0.68357 -2.87035,-1.16952 -4.38003,-0.68357 -0.35313,0.23002 -0.24298,0.5961 -0.13283,0.85527 1.62307,2.16086 2.22241,4.98262 1.79478,7.72986 -0.15227,0.12311 -0.39848,0.44384 -0.6447,0.40172 -0.27213,0 -0.53778,-0.31425 -0.6123,-0.49243 -0.42763,-2.5561 -0.71596,-4.54202 -2.04423,-6.69316 -1.01078,-1.07557 -2.69217,-1.03346 -4.03663,-1.48377 -0.31425,-0.12959 -0.70301,-0.45032 -0.67061,-0.85528 -0.068,-0.85527 0.5799,-1.5194 0.93626,-2.28721 l 3.05177,-5.56575 c 0.11987,-1.52589 -0.57666,-3.04854 -0.91682,-4.40272 0.2041,-0.26565 0.40172,-0.12959 0.55722,-0.0389 1.13065,0.98486 1.8207,2.24509 2.2289,3.58307 0.11338,0.63498 -0.13607,1.30883 -0.31425,1.75915 l -3.12629,6.2882 c 0.1879,0.40172 0.69653,0.31425 1.07881,0.44384 0.76781,0.0486 1.34771,-0.35961 2.04748,-0.53779 0.72244,-1.92437 1.45461,-3.82281 2.82175,-5.47829 0.32073,-0.99134 0.6123,-2.38116 -0.0842,-3.3239 -0.65441,-1.39306 -1.42222,-2.55934 -2.30989,-3.86169 -0.7678,-0.80668 -2.02155,-0.75484 -3.12304,-0.85527 l -0.96542,0 c -2.73753,-1.52589 -5.68239,-2.42328 -8.64021,-3.31419 -1.32827,-0.58962 -2.85415,-0.18142 -3.83901,0.71273 -1.06261,0.80344 -1.48701,2.02479 -2.17706,3.05177 -0.79048,1.03994 -2.09283,0.13607 -3.01614,0.67709 -0.75484,1.34771 -1.54208,2.64681 -2.28721,3.95564 -0.0453,0.34989 0,0.71273 0.33693,0.93951 1.01078,0.3596 2.17706,0.40172 3.32066,0.53778 1.13065,0.0454 2.15439,-0.13606 2.91895,-0.90063 1.37038,-1.66195 1.90817,-3.85521 4.03987,-4.93402 1.64252,-0.1393 3.10037,0.40172 4.44483,1.07881 0.8326,0.48919 1.7559,1.20516 1.7559,2.2451 -0.11662,2.01507 -1.48377,3.67702 -3.16516,4.84331 -1.77534,0.90063 -3.61223,2.24509 -4.89514,3.86493 -0.6285,0.85527 -0.80992,1.92436 -1.1922,2.96106 -0.1555,0.17818 -0.71597,0.31425 -0.93951,0.17818 -0.67061,-0.67385 -0.094,-1.08205 -0.0292,-1.79154 0.094,-0.49243 0,-1.08529 -0.31425,-1.5356 -0.97838,-0.75485 -1.92761,-0.48596 -3.22995,-0.53455 -2.58202,0.18466 -4.75908,0.41144 -7.49337,0.2203 -2.58202,-0.17171 -6.15214,-1.568 -8.1089,0.99782 -0.89415,2.41679 -0.13606,5.33898 0.33693,7.76225 0,0.31425 -0.47299,0.54103 -0.69329,0.54103 -0.23002,0.0875 -0.82612,-0.0875 -0.87795,-0.31425 -0.65118,-2.3844 -0.85204,-5.07009 -1.4125,-7.62943 -0.96542,-2.20946 -2.51399,-4.001 -4.78176,-5.20939 -2.02155,-1.03994 -4.33468,-1.3963 -6.75471,-1.57448 -4.3768,-0.0421 -8.51062,-0.98486 -11.25463,-4.71373 -0.1717,-0.3596 -0.5799,-1.16628 -0.46975,-1.66519 0.2041,-0.12635 0.45356,-0.26565 0.65765,-0.12635 3.02586,3.4049 6.93614,4.70725 11.28702,4.57442 5.85409,0 8.1251,0.3596 11.04729,4.30553 0.64793,0.77104 1.10149,1.62307 1.73322,2.47511 0.46651,0.0875 0.84556,-0.54103 1.12093,-0.85204 0.12959,-1.21488 -0.92655,-2.07015 -1.32503,-3.14896 -0.57018,-1.16952 -1.1274,-2.56258 -2.38116,-3.18784 -1.41897,-0.31101 -2.58202,-1.25699 -3.81633,-2.01507 -1.30883,-0.58315 -2.90275,-0.86176 -4.40272,-0.45356 -1.93084,0.35961 -4.48694,0.85527 -6.35299,0 -0.94275,-0.5799 -1.70731,-1.65871 -2.6047,-2.23537 -1.36714,-0.54103 -2.47187,-1.62308 -4.01719,-1.5842 -1.05614,0.1879 -2.35849,0.90063 -3.23644,-0.0389 -1.14036,-1.07557 -1.48053,-2.87035 -2.9319,-3.58956 -1.73647,-0.90062 -3.55392,0.0454 -5.32602,0.2203 0.29157,1.71055 0.49243,3.40814 1.63927,4.62949 0.67385,0.0486 1.30235,0.2203 1.7721,0.6771 0.71921,0.57342 1.25376,1.42869 1.72675,2.14466 1.45785,0.95246 3.23319,1.66519 4.17918,3.28503 0.69652,1.5194 0.76132,2.9157 1.9276,4.21481 l 0.60582,0.36284 3.12628,0.17495 c 1.27967,0.49243 2.48483,1.17276 3.63168,2.07015 0.36284,0.40496 0.43087,0.94598 0.36284,1.43841 -0.56694,1.52589 -1.05937,2.60146 -1.43518,4.17594 -0.40495,1.70407 -0.1393,3.27531 -0.27537,5.11868 -0.12958,0.22354 -0.22353,0.43736 -0.53778,0.48919 -2.06691,-0.40172 -4.10467,-1.02697 -6.4016,-0.67385 -3.13276,0.4082 -6.37567,2.42652 -7.49336,5.56576 -1.05613,2.74076 -0.78724,6.55386 1.14685,8.66936 1.92436,2.33905 4.28284,4.13058 6.53118,5.96424 0.3596,0.32073 0.42439,0.67709 0.47299,1.08205 -0.0227,0.50215 -0.43088,0.85203 -0.85528,1.03994 -1.40925,0.311 -3.00641,-0.13931 -4.41567,0.44059 -2.40384,0.90063 -4.33792,3.18784 -4.60681,5.7083 -0.094,1.16305 0.11014,2.10903 0.72244,3.00318 1.54209,-0.80668 2.90923,-2.1479 4.66513,-2.65005 m 154.72028,-0.35313 c 1.27967,-0.85527 1.80126,-2.52046 3.36926,-2.92218 2.52047,-0.54103 5.09277,-1.11769 7.41561,-2.28397 1.67491,-0.85203 3.20404,-2.07339 4.5971,-3.37574 1.43517,-0.66737 3.13924,-0.62526 4.67161,-1.16628 2.15114,-0.53779 3.97184,-2.24185 5.91888,-3.50209 2.57878,-2.05719 6.24609,-1.74618 9.09376,-3.04853 4.69429,-1.53236 8.44259,-5.16404 12.75135,-7.2763 2.24833,-1.2084 5.57224,-1.71055 7.82381,-0.31749 1.49673,1.03993 2.45891,2.42975 2.14466,4.35736 -0.85203,4.71696 -6.05818,7.2763 -8.57541,11.2287 -0.48595,0.94275 -0.784,2.15763 -0.5637,3.32391 0.92978,2.33904 3.43729,3.54096 5.50744,4.44483 1.63928,0.76456 3.67703,0.62849 5.25151,1.52588 0.58638,0.31101 1.01078,0.8488 1.43517,1.257 0.38229,0 0.35961,-0.4082 0.45356,-0.62526 0.46327,-2.83471 -0.0486,-5.71154 -2.44919,-7.32814 -0.96543,-0.66737 -2.06691,-0.89091 -3.20404,-1.25375 -0.88443,-0.35961 -2.74724,0.45031 -2.67921,-1.2084 0.21706,-0.72245 0.96218,-1.30559 1.568,-1.84337 3.25587,-2.69541 6.1975,-6.1489 6.57654,-10.37668 0.16198,-3.22671 -2.05719,-6.06142 -4.89515,-7.40589 -2.02155,-0.85527 -4.71048,-1.16628 -6.95233,-0.53454 -0.58962,0.0453 -1.48377,0.67385 -1.97944,-0.13931 -0.094,-0.89415 0.5151,-1.57124 0.53778,-2.51075 0.22354,-1.48053 0.18466,-3.46321 -0.29157,-4.8919 -0.24621,-1.22136 -1.43517,-2.56258 -0.34016,-3.81957 1.06261,-1.57125 3.14572,-1.07882 4.89838,-1.34771 0.92331,-0.22354 1.23755,-1.26023 1.50321,-1.97944 0.31425,-0.84879 0.4082,-1.9276 0.74512,-2.64357 -0.0259,-1.71055 1.93409,-2.3844 2.91571,-3.55068 1.18896,-1.257 2.15762,-3.50209 4.26665,-3.36602 0.62849,-1.44166 1.05289,-2.73429 1.26347,-4.31201 l -0.2527,-0.26889 c -1.68463,0.0454 -3.86492,-0.45355 -5.07332,0.71921 -1.40926,0.9395 -1.88873,3.4956 -3.90705,2.87359 -0.92006,-0.71597 -2.17706,-0.98486 -3.27531,-0.48919 -1.01077,0.30777 -1.75914,1.25699 -2.65977,1.7883 -2.76992,2.06691 -6.45667,3.10036 -10.12073,2.33904 -2.06044,-0.58638 -3.72239,0.85203 -5.3811,1.84013 -2.16086,0.94599 -2.78288,3.27855 -3.27855,5.30011 l -0.38228,2.47187 c 0,0.22354 0.17818,0.48919 0.42116,0.54102 l 0.34016,-0.0518 c 1.57448,-3.63815 3.09713,-5.88325 6.80331,-7.14024 3.10037,-1.25699 5.74394,0.27537 8.66613,-0.26565 2.9319,-0.36285 5.25151,-2.2451 7.47068,-4.001 0.23326,-0.0356 0.392,0.1879 0.43088,0.31425 l 0.0162,0.1879 c -2.61766,3.35954 -6.3044,5.64999 -10.63261,5.32926 -3.61871,-0.70949 -7.16615,0.4568 -9.22658,3.50857 -1.08529,1.75266 -2.02156,3.05825 -2.29369,5.07333 -0.31425,2.34228 -0.85204,4.89838 -1.61336,7.00741 -0.18142,0.17494 -0.63174,0.40172 -0.92007,0.22353 l -0.4691,-0.3596 c 0.40172,-2.24833 1.49673,-4.89838 0.67061,-7.31518 -0.5637,-1.79802 -2.47187,-2.51075 -4.21805,-2.60794 -1.80126,-0.094 -3.39194,0.0972 -5.21588,0.0972 -4.20833,0.17171 -7.58407,-1.08205 -11.93819,-0.63497 0.33045,1.03021 1.01078,1.83689 0.6285,2.96754 -0.15875,0.26241 -0.67061,0.26241 -0.94923,0.17818 -0.77428,-0.49243 -0.69329,-1.5356 -1.18896,-2.20298 -0.93626,-1.52912 -2.62413,-2.83147 -4.41891,-3.18784 -1.23432,-0.9881 -2.42004,-2.33256 -3.41138,-3.41461 -0.45031,-0.40172 -0.42763,-1.03346 -0.29481,-1.57124 0.8812,-2.06691 3.23644,-2.33257 5.11869,-2.87359 0.99134,-0.094 1.84985,0.22354 2.29369,1.07881 0.79048,1.26347 0.94922,3.36602 2.85091,3.54744 l 4.06579,0 c 0.31101,-0.0875 0.62201,-0.31425 0.73864,-0.62849 l -0.16198,-0.62526 c -0.89091,-1.08205 -1.25699,-2.47187 -2.46539,-3.27855 -0.65442,-0.22354 -1.52913,0.0389 -1.95029,-0.58638 -0.27537,-1.3963 -0.63497,-2.87359 -2.00211,-3.64139 -1.0367,-0.88767 -2.57878,-0.44384 -3.70295,-0.0842 -2.15762,0.85203 -4.51286,1.25375 -6.66725,1.93408 -0.96866,0.26565 -1.34446,1.4287 -2.3196,1.65547 -0.88767,0.31749 -1.9438,-0.49243 -2.70837,0.35961 -0.54426,1.02697 -0.7192,1.7559 -0.98486,2.92542 -0.34664,0.62526 -0.53778,1.47729 -0.67709,2.24185 -0.18142,0.67062 0.0194,1.16629 0.24946,1.79478 l 2.95782,5.43617 c 0.27537,0.31425 0.49243,0.66738 0.85203,0.8488 0.71921,-0.18142 1.50645,-0.53455 2.15762,-0.89739 l -0.11015,-0.36608 -3.09712,-4.79472 c -0.69005,-1.52913 0.0389,-3.19432 0.69005,-4.49343 0.15874,-0.0842 0.22353,-0.3596 0.3596,-0.22353 -0.0454,0.9395 -0.15226,1.88549 0.0454,2.87359 0.20734,0.89739 0.7678,1.79477 1.30234,2.59821 l 2.46864,3.60252 c 0.26889,0.62526 0.13282,1.51941 -0.17819,2.05719 -1.07881,1.12741 -2.62737,1.39306 -3.54744,2.83795 -1.9762,2.64358 -1.63603,5.7407 -1.88549,9.19744 0,0.22677 -0.42439,0.62525 -0.71597,0.7192 -0.26889,0.0907 -0.76456,-0.22677 -0.90062,-0.4082 -0.64794,-2.15762 -0.21706,-4.8919 0.29481,-6.82275 0.42439,-1.57448 1.04965,-3.00641 1.70406,-4.44483 0.0907,-0.31101 -0.0842,-0.58638 -0.3272,-0.62525 -1.5842,-0.13931 -3.217,0 -4.84007,0.1717 -2.15115,0.31749 -3.62844,1.98268 -5.35842,3.24291 -0.15875,0.13283 -0.41144,-0.0907 -0.54103,-0.28185 0.49243,-2.32933 3.05825,-3.67055 3.88113,-5.87353 0.54103,-1.70083 2.16086,-3.05825 2.5885,-4.89514 -0.0292,-0.27213 -0.23002,-0.58314 -0.45356,-0.76133 -0.60905,-0.0907 -1.16952,0.26242 -1.68139,-0.0453 -0.11014,-0.98162 0.56047,-2.06367 0.11663,-3.05501 -0.57018,-0.90063 -1.39306,-1.93085 -2.49455,-1.9762 -2.07339,0.76456 -4.13058,1.61983 -6.19749,2.24833 -1.5518,0.12959 -3.11656,-0.094 -4.53554,-0.27213 -1.32827,0.31749 -2.31313,1.48053 -3.36602,2.28721 -0.31749,0.0972 -0.6285,0.13282 -0.87795,-0.13283 -2.35848,-2.33256 -4.87571,-4.88867 -8.39399,-4.71372 -0.20734,0.0518 -0.36285,0.26889 -0.38229,0.45031 l 0.0194,0.26565 c 1.568,1.35743 3.39194,2.83472 4.06579,4.72021 0.45032,1.61659 1.90493,2.78288 2.39736,4.35088 0.0713,0.31425 -0.15226,0.40172 -0.35312,0.45355 l -0.41144,-0.18142 c -1.67815,-1.80126 -3.02586,-3.68351 -4.21806,-5.61435 -1.25699,-1.34447 -3.18459,-2.10903 -5.09276,-1.61336 -0.24946,0.17818 -0.24946,0.49243 -0.11339,0.71921 7.24715,4.44483 8.0765,12.34963 10.07862,19.52874 1.43518,4.75584 2.42004,9.69634 6.19749,13.56451 5.61112,6.10031 12.64445,9.78705 18.72207,15.12927 0.91683,0.80668 1.88549,1.56801 3.05177,1.70407 2.89951,0.22354 5.2094,-0.98486 7.3411,-2.69217 m -98.22363,-46.42774 c 0.0518,-0.54103 0.85851,-1.07881 0.32397,-1.52589 -0.94923,-0.72569 -2.03128,-1.21488 -3.23644,-1.03669 -0.91682,0.67709 -0.87147,2.07015 -1.69758,2.96754 -0.16523,0.61877 -1.2408,0.67385 -1.0367,1.43841 l 0.33693,0.2203 c 1.27319,0.0421 2.58525,0.0421 3.86169,0.27213 1.29586,-0.094 0.89738,-1.61984 1.44813,-2.3358 m 102.56155,1.02373 c -0.1555,-1.06909 -0.51834,-2.19326 -0.89415,-3.22023 -0.36932,-0.72569 -1.37686,-0.50215 -2.05071,-0.40496 -0.7354,0.26241 -1.86929,0.34988 -1.97944,1.34446 -0.0842,0.93951 0.36284,1.87901 0.8164,2.55934 1.07233,0.17819 2.3358,-0.0453 3.41137,0.0907 0.28833,0.0875 0.59934,-0.0486 0.69653,-0.36933 M 216.93619,455.6437 c -0.69653,-1.16629 -1.48377,-2.52047 -2.67273,-3.23968 -0.47299,-0.13282 -1.05938,-0.13282 -1.50645,0.094 -0.24298,0.21706 -0.71597,0.53779 -0.69977,0.94599 0.0583,0.40496 -0.0842,0.98162 0.27213,1.29587 0.9881,0.58962 1.93409,1.21488 2.78936,1.9276 0.26889,0.094 0.65118,0.23002 0.87471,0.0486 0.35637,-0.26565 0.784,-0.62526 0.94275,-1.07233 m 217.04186,0.54102 c 0.92331,-0.85527 2.15438,-1.48701 2.91895,-2.52046 0.0907,-0.54103 -0.18143,-0.94923 -0.49567,-1.34771 -0.35637,-0.26565 -0.78076,-0.57666 -1.36715,-0.57666 -0.60905,0.0875 -1.09824,0.34989 -1.48053,0.85204 -0.54102,0.85203 -1.3477,1.65547 -1.59715,2.64681 0.43087,0.62525 1.1922,1.57124 2.02155,0.94598 m -222.18322,-5.39405 0,-0.44384 c -0.56047,-1.30883 -0.92331,-3.06473 -1.39306,-4.67161 -1.10473,0.17819 -1.95676,0.53779 -2.80556,0.80344 -0.2041,0.22678 -0.0518,0.49243 0,0.80344 1.03022,0.90711 0.75808,2.07015 0.99134,3.37574 0.15551,0.67061 0.82936,1.29911 1.45461,1.65871 0.82936,-0.17818 1.30235,-0.9881 1.75267,-1.52588 m 228.11182,0.0972 c 0.58638,-0.90387 0.33693,-2.1641 0.53455,-3.06473 0.13606,-0.66414 1.03669,-1.25052 0.56694,-1.96972 l -2.53666,-0.80992 c -0.45356,-0.0454 -0.31749,0.53778 -0.43088,0.80992 -0.33369,1.48053 -0.64793,2.56258 -1.11769,3.9524 -0.11014,0.80344 0.71273,1.43193 1.29911,1.88225 0.67385,0.17494 1.14685,-0.45032 1.68463,-0.8002"
         style="fill:#dd0741;fill-opacity:1;fill-rule:nonzero;stroke:none"
         id="path3271" />
      <path
         inkscape:connector-curvature="0"
         d="m 289.06494,484.91635 -0.0259,-0.0907 -0.0421,-0.0454 c -0.15226,-0.13931 -0.42439,-0.22678 -0.59934,-0.0842 l -0.0972,0.0842 0,0.0875 c -0.3596,1.66843 -0.73864,3.27531 -1.32502,4.85627 -0.0875,0.17494 -0.2203,0.39524 -0.38228,0.5799 -0.15875,0.22354 -0.29158,0.45032 -0.44708,0.67385 -0.30777,0.53779 -0.48919,1.03346 -0.1555,1.70407 l 0.0421,0.0939 c 0.31425,0.31101 0.85528,0.35961 1.23108,0.2203 l 0.13606,-0.0875 c 0.6771,-0.44708 1.10149,-1.21488 1.41574,-1.84014 0.83584,-1.79801 0.78724,-4.2634 0.24946,-6.15213"
         style="fill:#ffffff;fill-opacity:1;fill-rule:nonzero;stroke:none"
         id="path3275" />
      <path
         inkscape:connector-curvature="0"
         d="m 309.31613,469.33644 c -0.0907,-0.094 -0.13283,-0.17819 -0.15551,-0.31749 -0.0227,-0.13931 -0.0713,-0.22354 -0.0713,-0.35637 -0.11015,-0.27213 -0.24621,-0.4989 -0.65117,-0.63173 -0.4244,-0.0875 -0.784,0.18142 -0.7678,0.58314 -0.0421,0.54426 -0.0616,1.08205 -0.13283,1.57448 -0.10691,0.49567 -0.25918,0.93951 -0.51187,1.34446 -0.18142,0.13607 -0.34341,0.41144 -0.56046,0.63498 -0.16199,0.2203 -0.38552,0.48919 -0.58638,0.66413 -0.40496,0.36285 -0.80344,0.6771 -1.26024,0.6771 -0.31424,-0.0875 -0.64793,-0.36285 -0.91358,-0.6771 -0.13931,-0.12958 -0.31425,-0.31101 -0.40496,-0.53778 l -0.38228,-0.4406 c -0.13607,-0.27861 -0.49243,-0.18466 -0.54103,-0.18466 l -0.11015,0.0842 -0.068,0.10043 c -0.24946,0.66737 -0.11015,1.25376 0.11015,1.79478 0.2041,0.49567 0.54102,0.94275 0.72244,1.43194 l 0.0648,0.13282 c 0.0842,0.094 0.2041,0.26566 0.3434,0.54427 0.0583,0.26241 0.19438,0.57666 0.26566,0.85203 0.311,0.57666 0.76132,1.03022 1.7235,0.62526 0.56694,-0.26889 0.92655,-0.75808 1.21812,-1.21488 0.13283,-0.2203 0.26565,-0.44707 0.37904,-0.71273 0.13607,-0.17818 0.29157,-0.36284 0.43088,-0.54102 1.38658,-1.48377 2.32932,-3.2332 1.85957,-5.42969"
         style="fill:#ffffff;fill-opacity:1;fill-rule:nonzero;stroke:none"
         id="path3279" />
      <path
         inkscape:connector-curvature="0"
         d="m 304.32995,458.42652 -0.0259,-0.0454 -0.0162,0 c -0.83583,-0.22678 -1.68463,-0.3596 -2.55934,-0.27213 l -0.0292,0 -0.0129,0 c -0.0972,0.0453 -0.13607,0.0453 -0.21058,0.094 -0.0616,0 -0.15551,0.0356 -0.21382,0.0875 -0.11663,0.13607 -0.27213,0.31425 -0.13607,0.58638 0.3758,1.11769 1.47729,2.28397 2.75372,2.5561 l 0.31425,0 c 0.0454,0 0.18142,0 0.34017,-0.0453 0.17818,-0.0842 0.4244,-0.22678 0.51835,-0.58962 0.0454,-0.71273 0.0454,-1.79154 -0.72245,-2.37144"
         style="fill:#ffffff;fill-opacity:1;fill-rule:nonzero;stroke:none"
         id="path3283" />
      <path
         inkscape:connector-curvature="0"
         d="m 367.19061,494.20352 c -0.0227,-0.12635 -0.11339,-0.26566 -0.20086,-0.35313 l -0.18142,-0.27213 c -0.85203,-0.85204 -1.7721,-1.65871 -2.60146,-2.47187 -0.85203,-0.8488 -1.68463,-1.65871 -2.22565,-2.59822 -0.4244,-0.58314 -0.784,-1.25699 -1.09825,-1.93408 -0.10691,-0.22354 -0.36284,-0.26566 -0.58638,-0.22354 l -0.094,0.0486 -0.0616,0.13607 c -0.1555,0.53455 -0.1393,1.07233 -0.0389,1.57124 0.0842,0.48919 0.24297,1.03022 0.41792,1.48053 0.85527,2.28397 2.76344,4.43835 4.71696,5.88325 0.40172,0.26241 1.54856,0.48919 1.90493,-0.36285 0.12958,-0.26889 0.12958,-0.62525 0.0486,-0.90386"
         style="fill:#ffffff;fill-opacity:1;fill-rule:nonzero;stroke:none"
         id="path3287" />
      <path
         inkscape:connector-curvature="0"
         d="m 350.8024,471.98163 c 0.0907,-0.17818 0.0907,-0.31425 0.0907,-0.44708 -0.0907,-0.12958 -0.13606,-0.27213 -0.13606,-0.40495 -0.13607,-0.17495 -0.24622,-0.35637 -0.43088,-0.44708 -0.1717,-0.094 -0.4244,-0.13283 -0.62849,0.0421 -0.2365,0.0486 -0.41792,0.23001 -0.53455,0.40496 -0.11663,0.0972 -0.16198,0.18466 -0.2041,0.27537 l -0.12635,0.22354 c -0.21058,0.31424 -0.3434,0.48919 -0.68033,0.48919 -0.31425,0 -0.60906,-0.13607 -0.85527,-0.31425 -0.12959,-0.13607 -0.21706,-0.17494 -0.35313,-0.31101 -0.13282,-0.0518 -0.28833,-0.13931 -0.45355,-0.26565 -0.27861,-0.22678 -0.53779,-0.45356 -0.81316,-0.6771 -0.28833,-0.22677 -0.57666,-0.49891 -0.8002,-0.7678 -0.49243,-0.48919 -0.85527,-1.03021 -0.96542,-1.65223 -0.068,-0.1879 -0.094,-0.32073 -0.12959,-0.41144 0,-0.18142 -0.0259,-0.26565 -0.0551,-0.44383 -0.068,-0.27538 -0.14903,-0.63174 -0.51511,-0.8164 -0.49243,-0.17494 -0.96866,0.18466 -0.96866,0.58962 -0.19762,1.88549 0.45679,3.72562 1.84661,5.02797 0.68033,0.53131 1.21164,1.12093 1.72999,1.79478 0.58314,0.67061 1.09501,1.39306 1.63603,1.9762 l 0.13607,0.0875 c 0.76132,0.18142 1.25375,-0.45355 1.5518,-0.85203 0.69653,-0.93951 1.2084,-1.97296 1.65871,-3.10037"
         style="fill:#ffffff;fill-opacity:1;fill-rule:nonzero;stroke:none"
         id="path3291" />
      <path
         inkscape:connector-curvature="0"
         d="m 349.9008,458.69217 c 0.13607,-0.31101 0.2041,-0.67061 -0.0162,-1.03022 l -0.0259,-0.0875 -0.0421,-0.0486 c -0.31425,-0.22354 -0.67061,-0.22354 -1.06261,-0.22354 -0.3758,0 -0.71597,0.0453 -1.05613,0.0875 l -0.0389,0 0,0.0486 c -0.89739,0.49243 -1.0043,1.47729 -1.09825,2.2872 0,0.2203 0.0421,0.54103 0.30453,0.76133 l 0.12311,0.0486 0.0389,0 c 0.87795,0 1.8207,-0.18142 2.44596,-0.9881 l 0,-0.0421 c 0.16198,-0.27214 0.31748,-0.54103 0.42763,-0.81316"
         style="fill:#ffffff;fill-opacity:1;fill-rule:nonzero;stroke:none"
         id="path3295" />
      <path
         inkscape:connector-curvature="0"
         d="m 285.22754,374.09687 c 0.0227,5.52688 4.11115,9.99439 9.16828,9.99439 5.05065,-0.0454 9.08728,-4.50315 9.08728,-10.04623 0,-5.48152 -4.08847,-9.95227 -9.10996,-9.95227 -5.06361,0 -9.17475,4.47075 -9.1456,10.00411"
         style="fill:#ffffff;fill-opacity:1;fill-rule:nonzero;stroke:none"
         id="path3299" />
      <path
         inkscape:connector-curvature="0"
         d="m 357.93649,365.25418 -11.87016,0 0.0421,40.44407 8.28385,-0.0453 c 3.63815,0.0453 6.60569,-2.94487 6.58301,-6.60246 0.0227,-3.6673 -2.97402,-6.56681 -6.61541,-6.56681 l -4.32172,0 0,-11.15743 7.89832,-0.0907 c 4.39299,0.0454 7.77197,-3.57011 7.77197,-7.98579 -0.20734,-4.55498 -2.9967,-7.72014 -7.77197,-7.99551"
         style="fill:#ffffff;fill-opacity:1;fill-rule:nonzero;stroke:none"
         id="path3303" />
    </g>
  </g>
</svg>
