<?xml version="1.0" encoding="utf-8"?><!-- Generator: Adobe Illustrator 16.0.0, SVG Export Plug-In . SVG Version: 6.00 Build 0) --><!DOCTYPE svg PUBLIC "-//W3C//DTD SVG 1.1//EN" "http://www.w3.org/Graphics/SVG/1.1/DTD/svg11.dtd"><svg version="1.1" id="Layer_1" xmlns="http://www.w3.org/2000/svg" xmlns:xlink="http://www.w3.org/1999/xlink" x="0px" y="0px" width="53.521px" height="44.858px" viewBox="-4.771 0.104 53.521 44.858" enable-background="new -4.771 0.104 53.521 44.858" xml:space="preserve"><g><path fill="#FFFFFF" d="M29.909,35.89c-1.999,1.997-5.218,2.382-7.921,2.382c-2.7,0-5.922-0.385-7.918-2.382 M36.021,4.276	L25.899,1.894L21.969,13.89l3.931-11.996 M44.141,5.095c0,2.203-1.785,3.99-3.99,3.99c-2.203,0-3.99-1.786-3.99-3.99	c0-2.203,1.786-3.991,3.99-3.991C42.354,1.104,44.141,2.891,44.141,5.095z M44.802,29.001c0,8.262-10.263,14.961-22.922,14.961	c-12.66,0-22.922-6.698-22.922-14.961c0-8.262,10.262-14.961,22.922-14.961C34.539,14.04,44.802,20.738,44.802,29.001z M-0.744,26.676c-1.783-0.783-3.027-2.564-3.027-4.636c0-2.795,2.265-5.061,5.06-5.061c1.554,0,2.946,0.701,3.875,1.804 M38.732,18.886c0.928-1.161,2.355-1.907,3.957-1.907c2.795,0,5.061,2.266,5.061,5.061l0,0c0,2.149-1.34,3.986-3.23,4.72"/><path d="M21.879,44.963c-13.191,0-23.922-7.16-23.922-15.961c0-0.608,0.051-1.21,0.151-1.801c-1.772-1.093-2.879-3.039-2.879-5.161	c0-3.342,2.719-6.061,6.06-6.061c1.493,0,2.916,0.546,4.017,1.522c4.149-2.663,9.73-4.339,15.887-4.455L25.235,0.71l0.882,0.208	c0.007,0.001,0.014,0.003,0.021,0.005l9.421,2.218c0.763-1.783,2.533-3.036,4.592-3.036c2.752,0,4.99,2.239,4.99,4.991	c0,2.751-2.238,4.99-4.99,4.99c-2.75,0-4.987-2.235-4.99-4.984l-8.596-2.024l-3.273,9.99c5.933,0.231,11.291,1.912,15.291,4.517	c1.113-1.029,2.567-1.605,4.108-1.605c3.342,0,6.061,2.719,6.061,6.061c0,2.227-1.185,4.217-3.08,5.28	c0.087,0.553,0.132,1.113,0.132,1.681C45.802,37.803,35.07,44.963,21.879,44.963z M0.157,27.11c-0.132,0.619-0.2,1.25-0.2,1.892	c0,7.699,9.834,13.961,21.922,13.961c12.088,0,21.922-6.263,21.922-13.961c0-0.612-0.062-1.215-0.183-1.807	c-0.012-0.024-0.022-0.048-0.032-0.073c-0.046-0.119-0.067-0.242-0.067-0.362c-0.669-2.627-2.494-5.012-5.13-6.934	c-0.1-0.036-0.194-0.089-0.281-0.158c-0.056-0.044-0.104-0.093-0.148-0.146c-4.007-2.755-9.732-4.482-16.081-4.482	c-6.285,0-11.961,1.693-15.962,4.401c-0.033,0.038-0.07,0.074-0.11,0.108c-0.089,0.075-0.188,0.132-0.291,0.171	c-2.693,1.923-4.565,4.324-5.26,6.974c-0.002,0.128-0.029,0.259-0.084,0.384C0.167,27.089,0.163,27.1,0.157,27.11z M40.254,18.791	c2.319,1.855,4.021,4.064,4.891,6.488c1-0.753,1.605-1.936,1.605-3.239c0-2.239-1.821-4.061-4.061-4.061	C41.798,17.979,40.949,18.268,40.254,18.791z M1.289,17.979c-2.239,0-4.06,1.822-4.06,4.061c0,1.213,0.54,2.34,1.436,3.1	c0.899-2.405,2.618-4.596,4.946-6.433C2.936,18.238,2.129,17.979,1.289,17.979z M40.15,2.104c-1.648,0-2.99,1.342-2.99,2.991	s1.342,2.99,2.99,2.99s2.99-1.341,2.99-2.99S41.799,2.104,40.15,2.104z M21.988,39.271c-4.005,0-6.827-0.875-8.626-2.675	c-0.39-0.391-0.39-1.023,0-1.414s1.024-0.391,1.415,0c1.405,1.405,3.763,2.089,7.211,2.089c3.447,0,5.807-0.684,7.214-2.089	c0.39-0.391,1.023-0.391,1.414,0c0.39,0.391,0.39,1.024-0.001,1.414C28.814,38.396,25.993,39.271,21.988,39.271z"/></g><path id="eyes" fill="#FF4500" d="M30.097,22.35c-2.038,0-3.749,1.707-3.749,3.745c0,2.037,1.711,3.688,3.749,3.688	s3.688-1.651,3.688-3.688C33.785,24.057,32.134,22.35,30.097,22.35z M13.939,22.35c-2.036,0-3.745,1.709-3.745,3.745	s1.708,3.688,3.745,3.688s3.688-1.652,3.688-3.688S15.975,22.35,13.939,22.35z"/></svg>