<svg xmlns="http://www.w3.org/2000/svg" xmlns:xlink="http://www.w3.org/1999/xlink" preserveAspectRatio="xMidYMid" width="231" height="236" viewBox="0 0 231 236">
  <defs>
    <style>

      .cls-2 {
        fill: #000000;
      }
    </style>
  </defs>
  <path d="M163.220,127.064 C163.220,127.064 81.750,127.064 76.285,127.064 C70.820,127.064 67.190,123.610 67.190,118.062 C67.190,112.514 70.741,108.874 76.250,108.874 C81.759,108.874 163.436,108.874 163.436,108.874 C190.793,108.874 210.651,90.898 210.651,63.538 C210.651,36.181 190.793,18.091 163.436,18.091 C163.436,18.091 14.573,18.091 9.087,18.091 C3.600,18.091 0.005,14.501 0.005,9.101 C0.005,3.702 3.656,0.011 9.078,0.011 C14.500,0.011 163.220,0.011 163.220,0.011 C200.313,0.011 230.607,26.451 230.607,63.536 C230.607,100.628 200.313,127.064 163.220,127.064 ZM92.128,145.233 C92.128,145.233 172.903,145.233 172.903,145.233 C175.665,145.233 177.903,147.471 177.903,150.233 C177.903,150.233 177.903,158.388 177.903,158.388 C177.903,161.149 175.665,163.388 172.903,163.388 C172.903,163.388 92.128,163.388 92.128,163.388 C89.367,163.388 87.128,161.149 87.128,158.388 C87.128,158.388 87.128,150.233 87.128,150.233 C87.128,147.471 89.367,145.233 92.128,145.233 ZM110.283,181.543 C110.283,181.543 191.058,181.543 191.058,181.543 C193.820,181.543 196.058,183.781 196.058,186.543 C196.058,186.543 196.058,194.698 196.058,194.698 C196.058,197.459 193.820,199.698 191.058,199.698 C191.058,199.698 110.283,199.698 110.283,199.698 C107.522,199.698 105.283,197.459 105.283,194.698 C105.283,194.698 105.283,186.543 105.283,186.543 C105.283,183.781 107.522,181.543 110.283,181.543 ZM128.438,217.853 C128.438,217.853 209.214,217.853 209.214,217.853 C211.975,217.853 214.214,220.091 214.214,222.853 C214.214,222.853 214.214,231.008 214.214,231.008 C214.214,233.769 211.975,236.008 209.214,236.008 C209.214,236.008 128.438,236.008 128.438,236.008 C125.677,236.008 123.438,233.769 123.438,231.008 C123.438,231.008 123.438,222.853 123.438,222.853 C123.438,220.091 125.677,217.853 128.438,217.853 Z" id="path-1" class="cls-2" fill-rule="evenodd"/>
</svg>
