<?xml version="1.0" encoding="UTF-8" ?>
<!DOCTYPE svg PUBLIC "-//W3C//DTD SVG 1.1//EN" "http://www.w3.org/Graphics/SVG/1.1/DTD/svg11.dtd">
<svg width="512pt" height="375pt" viewBox="0 0 512 375" version="1.1" xmlns="http://www.w3.org/2000/svg">
<g id="#000000ff">
<path fill="#000000" opacity="1.00" d=" M 229.00 0.00 L 284.00 0.00 C 284.00 6.33 283.99 12.66 284.01 19.00 C 290.00 19.01 296.00 18.99 301.99 19.00 C 302.00 37.00 302.00 55.00 302.00 73.00 C 296.00 73.01 290.00 72.99 284.00 73.00 C 283.99 79.33 284.01 85.66 284.00 91.99 C 277.67 92.01 271.33 91.99 265.00 92.00 C 264.99 98.00 265.00 104.00 265.00 109.99 C 283.33 110.01 301.67 109.99 320.00 110.01 C 320.00 116.00 320.00 122.00 320.00 128.00 C 301.67 128.00 283.34 128.00 265.01 128.00 C 264.99 152.33 265.00 176.67 265.00 201.00 C 259.00 201.00 253.00 201.00 247.00 201.00 C 247.00 176.67 247.01 152.34 247.00 128.00 C 228.66 127.99 210.33 128.01 192.00 128.00 C 191.99 122.00 192.00 116.00 192.00 110.00 C 210.33 110.00 228.66 110.01 247.00 110.00 C 247.00 104.00 247.00 98.00 247.00 92.00 C 241.00 91.99 235.00 92.01 229.01 92.00 C 228.99 85.67 229.01 79.33 229.00 73.00 C 223.00 72.99 217.00 73.01 211.00 73.00 C 211.00 55.00 211.00 37.00 211.00 19.00 C 217.00 18.99 223.00 19.01 229.00 19.00 C 229.01 12.66 229.00 6.33 229.00 0.00 Z" />
<path fill="#000000" opacity="1.00" d=" M 156.01 55.00 C 168.00 55.00 180.00 55.00 191.99 55.00 C 192.01 73.34 192.00 91.67 192.00 110.00 C 186.00 110.00 180.00 110.01 174.00 110.00 C 173.99 97.66 174.01 85.33 174.00 73.00 C 168.00 72.99 162.00 73.01 156.00 72.99 C 156.00 67.00 155.99 61.00 156.01 55.00 Z" />
<path fill="#000000" opacity="1.00" d=" M 320.00 128.00 C 326.33 128.00 332.66 127.99 338.99 128.00 C 339.01 140.33 338.99 152.67 339.01 165.00 C 345.00 165.01 351.00 164.99 357.00 165.00 C 357.00 171.00 357.00 177.00 356.99 183.00 C 344.66 183.00 332.33 183.00 320.01 183.00 C 319.99 164.66 320.00 146.33 320.00 128.00 Z" />
<path fill="#000000" opacity="1.00" d=" M 192.00 201.00 C 210.34 200.99 228.67 201.00 247.00 201.00 C 247.00 207.33 247.01 213.66 247.00 220.00 C 228.66 220.01 210.33 220.00 192.00 220.00 C 192.00 213.67 191.99 207.34 192.00 201.00 Z" />
<path fill="#000000" opacity="1.00" d=" M 265.00 201.00 C 283.33 201.00 301.66 200.99 320.00 201.00 C 320.01 207.34 320.00 213.67 320.00 220.00 C 301.67 220.00 283.34 220.01 265.00 220.00 C 264.99 213.66 265.00 207.33 265.00 201.00 Z" />
<path fill="#000000" opacity="1.00" d=" M 174.00 220.00 C 180.00 219.99 186.00 220.00 192.00 220.00 C 192.00 238.33 192.00 256.66 192.00 274.99 C 180.00 275.01 168.00 275.00 156.01 275.00 C 155.99 268.66 155.99 262.33 156.01 256.00 C 162.00 255.99 168.00 256.01 173.99 256.00 C 174.01 244.00 173.99 232.00 174.00 220.00 Z" />
<path fill="#000000" opacity="1.00" d=" M 320.00 220.00 C 326.33 220.00 332.66 219.99 339.00 220.00 C 339.01 232.00 338.99 244.00 339.00 255.99 C 345.00 256.01 351.00 255.99 357.00 256.01 C 357.00 262.33 357.00 268.66 357.00 274.99 C 344.67 275.01 332.34 275.00 320.01 275.00 C 319.99 256.66 320.00 238.33 320.00 220.00 Z" />
<path fill="#000000" opacity="1.00" d=" M 0.00 293.00 C 18.33 293.00 36.66 292.99 55.00 293.00 C 55.00 296.00 55.00 299.00 55.01 302.00 C 58.00 302.00 61.00 302.00 63.99 302.00 C 64.00 311.33 64.00 320.66 63.99 330.00 C 61.00 329.99 58.00 330.00 55.00 330.00 C 55.00 333.00 55.00 336.00 55.00 339.00 C 52.00 338.99 49.00 339.00 46.01 339.00 C 45.99 342.00 45.99 345.00 46.01 348.00 C 49.00 348.00 52.00 348.00 54.99 348.00 C 55.00 351.00 55.00 354.00 55.00 357.00 C 58.00 356.99 61.00 357.00 64.00 357.00 C 64.01 363.00 64.00 369.00 64.00 375.00 L 46.00 375.00 C 46.00 372.00 46.00 369.00 45.99 366.00 C 43.00 366.00 40.00 365.99 37.00 365.99 C 37.00 362.99 37.00 360.00 37.00 357.00 C 34.00 357.00 31.00 356.99 28.01 357.00 C 28.00 354.00 28.00 351.00 28.00 348.01 C 25.00 347.99 22.00 347.99 19.01 348.00 C 18.99 354.00 19.01 360.00 19.00 366.00 C 15.67 365.99 12.33 366.00 9.00 366.00 C 9.00 369.00 9.00 372.00 9.00 375.00 L 0.00 375.00 L 0.00 293.00 M 19.00 311.00 C 19.00 317.33 19.00 323.66 19.00 330.00 C 25.00 330.00 31.00 330.00 37.00 330.00 C 37.00 326.66 37.00 323.33 37.00 320.00 C 40.00 320.00 43.00 320.00 46.00 320.00 C 46.00 317.00 46.00 314.00 46.00 311.01 C 37.00 310.99 28.00 311.00 19.00 311.00 Z" />
<path fill="#000000" opacity="1.00" d=" M 73.00 293.00 C 88.33 293.00 103.67 293.00 119.00 293.00 C 119.00 296.00 119.00 299.00 119.00 302.00 C 122.00 301.99 125.00 302.00 128.00 302.00 C 128.00 305.00 128.00 308.00 128.00 311.00 C 116.00 311.01 104.00 310.99 92.00 311.01 C 92.00 317.33 92.00 323.66 92.00 330.00 C 98.00 330.01 104.00 329.99 110.00 330.00 C 110.00 333.00 110.00 336.00 110.00 339.00 C 107.00 338.99 104.00 339.00 101.00 339.00 C 101.00 342.00 101.00 344.99 101.00 347.99 C 98.00 347.99 95.00 348.00 92.00 348.00 C 91.99 351.00 91.99 354.00 92.01 357.00 C 101.00 357.01 110.00 356.99 119.00 357.01 C 119.00 360.00 119.00 363.00 119.01 366.00 C 122.00 365.99 125.00 366.00 128.00 366.01 C 128.00 369.00 128.00 372.00 128.00 375.00 L 73.00 375.00 C 73.00 347.67 72.99 320.34 73.00 293.00 Z" />
<path fill="#000000" opacity="1.00" d=" M 147.00 293.00 C 165.00 293.00 183.00 292.99 201.00 293.01 C 201.00 296.00 201.00 299.00 201.00 302.00 C 204.33 301.99 207.66 302.00 210.99 302.00 C 211.01 308.00 211.00 313.99 211.00 319.99 C 207.66 320.00 204.33 320.00 201.00 319.99 C 201.00 316.99 201.00 314.00 200.99 311.00 C 195.00 311.00 189.00 310.99 183.01 311.00 C 182.99 332.34 183.00 353.67 183.00 375.00 L 165.00 375.00 C 165.00 353.67 165.01 332.33 164.99 311.00 C 159.00 311.00 153.00 310.99 147.00 311.01 C 147.00 314.00 147.00 316.99 147.00 319.99 C 143.67 320.00 140.33 320.00 137.00 320.00 C 137.00 314.00 137.00 308.00 137.00 302.00 C 140.33 302.00 143.66 301.99 147.00 302.00 C 147.00 299.00 147.00 296.00 147.00 293.00 Z" />
<path fill="#000000" opacity="1.00" d=" M 220.00 293.00 C 238.33 293.00 256.66 293.00 275.00 293.00 C 275.00 296.00 275.00 299.00 275.00 302.00 C 278.00 302.00 281.00 302.00 284.00 302.00 C 284.00 311.33 284.00 320.66 284.00 329.99 C 281.00 329.99 278.00 330.00 275.00 330.00 C 275.00 333.00 275.00 336.00 275.00 339.00 C 271.66 338.99 268.33 339.00 265.01 339.00 C 264.99 342.00 264.99 345.00 265.00 348.00 C 268.33 347.99 271.66 348.00 274.99 348.00 C 274.99 351.00 275.00 354.00 275.01 357.00 C 278.00 356.99 281.00 357.00 283.99 357.00 C 284.01 363.00 284.00 369.00 284.00 375.00 L 265.00 375.00 C 265.00 372.00 265.00 369.00 264.99 366.00 C 262.00 366.00 259.00 365.99 256.00 365.99 C 256.00 362.99 256.00 360.00 255.99 357.00 C 253.00 357.00 250.00 356.99 247.00 357.00 C 247.00 354.00 247.00 351.00 247.00 348.00 C 244.00 347.99 241.00 347.99 238.01 348.00 C 237.99 354.00 238.01 360.00 238.00 366.00 C 235.00 366.00 232.00 366.00 229.00 366.00 C 229.00 369.00 228.99 372.00 229.00 375.00 L 220.00 375.00 C 220.00 347.67 219.99 320.34 220.00 293.00 M 238.00 311.00 C 238.00 317.33 238.00 323.66 238.00 330.00 C 244.00 330.00 250.00 330.00 256.00 330.00 C 256.00 326.66 256.00 323.33 256.00 320.00 C 259.00 320.00 262.00 320.00 265.00 320.00 C 265.00 317.00 265.00 314.00 264.99 311.00 C 256.00 311.00 247.00 311.00 238.00 311.00 Z" />
<path fill="#000000" opacity="1.00" d=" M 293.00 293.00 C 302.00 293.00 311.00 293.00 320.00 293.00 C 320.01 317.33 319.99 341.66 320.00 366.00 C 323.00 365.99 325.99 366.00 328.99 366.00 C 329.00 369.00 329.00 372.00 329.00 375.00 L 302.00 375.00 C 302.00 350.67 302.01 326.33 301.99 302.00 C 299.00 302.00 296.00 302.00 293.00 302.00 C 292.99 299.00 292.99 296.00 293.00 293.00 Z" />
<path fill="#000000" opacity="1.00" d=" M 339.00 293.01 C 354.00 292.99 369.00 293.00 384.00 293.00 C 383.99 296.00 384.00 299.00 384.01 302.00 C 387.00 302.00 390.00 302.00 392.99 302.00 C 393.00 305.00 393.00 308.00 393.00 311.00 C 381.00 311.01 369.00 310.99 357.01 311.00 C 356.99 317.33 356.99 323.66 357.01 330.00 C 363.00 330.01 369.00 329.99 374.99 330.00 C 375.00 333.00 375.00 336.00 375.00 338.99 C 372.00 338.99 369.00 339.00 366.00 339.00 C 366.00 342.00 365.99 345.00 366.00 348.00 C 363.00 347.99 360.00 348.00 357.00 348.00 C 356.99 357.00 357.00 366.00 357.00 375.00 L 339.00 375.00 C 339.00 347.67 339.00 320.34 339.00 293.01 Z" />
<path fill="#000000" opacity="1.00" d=" M 403.01 293.00 C 412.00 293.00 421.00 292.99 430.00 293.01 C 430.01 317.34 429.99 341.67 430.01 366.00 C 433.00 365.99 436.00 366.00 439.00 366.00 C 439.00 369.00 439.00 372.00 439.00 375.00 L 412.00 375.00 C 412.00 350.67 412.01 326.34 412.00 302.00 C 409.00 302.00 406.00 301.99 403.00 302.00 C 402.99 299.00 402.99 296.00 403.01 293.00 Z" />
<path fill="#000000" opacity="1.00" d=" M 467.00 293.00 C 482.00 292.99 497.00 293.00 512.00 293.00 L 512.00 302.00 C 509.00 301.99 506.00 302.00 503.00 302.01 C 503.00 305.00 502.99 308.00 503.00 311.00 C 494.00 311.01 485.00 310.99 476.00 311.00 C 476.00 314.00 475.99 316.99 476.00 319.99 C 473.00 319.99 470.00 320.00 467.01 320.00 C 466.99 329.33 467.00 338.66 467.00 348.00 C 470.00 347.99 473.00 348.00 476.00 348.01 C 475.99 351.00 476.00 354.00 476.00 356.99 C 485.00 357.01 494.00 356.99 503.00 357.00 C 502.99 360.00 503.00 363.00 503.00 366.00 C 506.00 366.00 509.00 366.00 512.00 366.00 L 512.00 375.00 L 467.00 375.00 C 467.00 372.00 467.00 369.00 467.00 366.00 C 463.66 366.00 460.33 365.99 457.01 366.00 C 457.00 363.00 456.99 360.00 457.00 357.00 C 453.99 357.00 451.00 356.99 448.00 356.99 C 448.00 341.66 448.00 326.33 448.00 311.00 C 451.00 311.00 454.00 310.99 457.00 311.00 C 456.99 308.00 457.00 305.00 457.00 302.00 C 460.33 302.00 463.66 301.99 467.00 302.00 C 466.99 299.00 467.00 296.00 467.00 293.00 Z" />
</g>
</svg>
