<?xml version="1.0" encoding="utf-8"?>
<!-- Generator: Adobe Illustrator 18.1.1, SVG Export Plug-In . SVG Version: 6.00 Build 0)  -->
<svg version="1.1" id="Layer_1" xmlns="http://www.w3.org/2000/svg" xmlns:xlink="http://www.w3.org/1999/xlink" x="0px" y="0px"
	 viewBox="-124 215 1782.1 512" enable-background="new -124 215 1782.1 512" xml:space="preserve">
<path fill="#666666" d="M687.5,556.3h-29.3c-2.6,0-3.6-2.4-4.8-4.8l-34.6-58.3h-5.3c-6.3,0-25.7-0.7-31.2-1v59.2
	c0,2.6-1.9,4.8-4.6,4.8h-24c-2.6,0-4.8-2.2-4.8-4.8V394c0-4.8,2.8-6.5,7.7-7.2c12.5-1.9,39.4-3.1,56.9-3.1c37,0,71.2,13.2,71.2,54.3
	v2.2c0,25.4-12.7,39.4-32.4,47l37.7,64.3c0.5,0.7,0.5,1.4,0.5,1.9C690.4,555.1,689.4,556.3,687.5,556.3z M651.5,438
	c0-18-14-25.7-38-25.7c-5.1,0-26.9,0.5-31.2,0.9v52.1c3.8,0.2,27.1,0.7,31.2,0.7c24.7,0,38-4.8,38-25.9V438z M754.5,508.9
	c0,20.2,0.8,20.7,18.9,20.7h60.8c2.7,0,4.8,2.2,4.8,4.8v15.3c0,3.4-1.2,4.6-4.8,5.1c-7.7,1.2-23.3,3.3-51.9,3.3
	c-39.9,0-61,0.3-61-49.2v-76c0-49.5,21.2-49.2,61-49.2c28.6,0,44.2,2.2,51.9,3.4c3.6,0.5,4.8,1.7,4.8,5.1v15.4
	c0,2.6-2.2,4.8-4.8,4.8h-60.8c-18.2,0-18.9,0.5-18.9,20.6v22h76.9c2.6,0,4.8,2.2,4.8,4.8v17.3c0,2.6-2.2,4.8-4.8,4.8h-76.9
	L754.5,508.9L754.5,508.9z M946.9,558.2c-38.6,0-72-16.8-72-68v-100c0-2.7,2.2-4.6,4.8-4.6h23.7c2.7,0,4.8,1.9,4.8,4.6v100
	c0,27.4,12.7,40.4,38.6,40.4c26,0,38.6-13,38.6-40.4v-100c0-2.7,2.1-4.6,4.8-4.6h23.8c2.7,0,4.8,1.9,4.8,4.6v100
	C1018.9,541.4,985.6,558.2,946.9,558.2z M1176.9,413.5H1129v138c0,2.6-2.2,4.8-4.9,4.8h-23.8c-2.6,0-4.8-2.2-4.8-4.8v-138h-48
	c-2.6,0-4.8-1.6-4.8-4.3v-19c0-2.7,2.2-4.6,4.8-4.6h129.3c2.6,0,4.8,1.9,4.8,4.6v19C1181.7,411.8,1179.5,413.5,1176.9,413.5z
	 M1503.2,556.3h-29.3c-2.6,0-3.6-2.4-4.8-4.8l-34.6-58.3h-5.4c-6.2,0-25.6-0.7-31.2-1v59.2c0,2.6-1.9,4.8-4.5,4.8h-24
	c-2.7,0-4.8-2.2-4.8-4.8V394c0-4.8,2.8-6.5,7.7-7.2c12.5-1.9,39.4-3.1,56.9-3.1c37,0,71.2,13.2,71.2,54.3v2.2
	c0,25.4-12.8,39.4-32.4,47l37.8,64.3c0.5,0.7,0.5,1.4,0.5,1.9C1506.1,555.1,1505.1,556.3,1503.2,556.3z M1467.2,438
	c0-18-14-25.7-38.1-25.7c-5,0-26.9,0.5-31.2,0.9v52.1c3.9,0.2,27.2,0.7,31.2,0.7c24.8,0,38.1-4.8,38.1-25.9L1467.2,438L1467.2,438z
	 M1594.9,558.3c-21.2,0-42.8-3.6-54.3-6.3c-2.4-0.5-4.6-2.2-4.6-4.8v-17.3c0-2.6,2.2-4.6,4.6-4.6c0.2,0,0.2,0,0.5,0
	c9.6,1.2,32.1,4.3,54.3,4.3c21.4,0,27.9-7.7,27.9-21.6c0-18-43-28-64-36.7c-20.9-8.6-28.3-25.2-28.3-42c0-26.4,21.3-45.7,66-45.7
	c22.9,0,43.9,4.4,52,6.3c2.4,0.5,4.3,2.2,4.3,4.6v17.8c0,2.4-1.6,4.3-4.1,4.3c-0.2,0-0.2,0-0.5,0c-15.9-1.4-32.3-4.4-53.2-4.4
	c-17.8,0-31.1,6.2-31.1,17.1c0,7.9,9,15.2,19.7,19.4c10.7,4.2,24.7,9.6,40.6,16.1c20.2,8.2,33.4,20.1,33.4,43.2
	C1658.1,532.3,1643,558.3,1594.9,558.3z M1239.6,508.9c0,20.2,0.7,20.7,19,20.7h60.9c2.6,0,4.8,2.2,4.8,4.8v15.3
	c0,3.4-1.2,4.6-4.8,5.1c-7.7,1.2-23.4,3.3-51.9,3.3c-40,0-61.1,0.3-61.1-49.2v-76c0-49.5,21.1-49.2,61.1-49.2
	c28.6,0,44.2,2.2,51.9,3.4c3.6,0.5,4.8,1.7,4.8,5.1v15.4c0,2.6-2.2,4.8-4.8,4.8h-60.9c-18.2,0-19,0.5-19,20.6v22h76.9
	c2.7,0,4.8,2.2,4.8,4.8v17.3c0,2.6-2.1,4.8-4.8,4.8h-76.9V508.9z"/>
<g>
	
		<linearGradient id="SVGID_1_" gradientUnits="userSpaceOnUse" x1="156.1328" y1="73.3707" x2="9.5887" y2="-11.236" gradientTransform="matrix(0.9996 2.860000e-02 2.860000e-02 -0.9996 64.7321 499.6486)">
		<stop  offset="0" style="stop-color:#FF9100"/>
		<stop  offset="5.000000e-02" style="stop-color:#FF8D00"/>
		<stop  offset="0.2503" style="stop-color:#FF8300"/>
		<stop  offset="0.5" style="stop-color:#FF8000"/>
		<stop  offset="0.7497" style="stop-color:#FF8300"/>
		<stop  offset="0.95" style="stop-color:#FF8D00"/>
		<stop  offset="1" style="stop-color:#FF9100"/>
	</linearGradient>
	<path fill="url(#SVGID_1_)" d="M120.2,396c2.8,5.2,0.9,11.7-4.3,14.5c-5.2,2.8-11.7,0.8-14.5-4.4c-2.8-5.2-0.9-11.7,4.3-14.4
		C110.9,388.9,117.4,390.8,120.2,396z M67.3,479.7c-3,1.7-4.2,5.5-2.5,8.6c1.7,3.1,5.5,4.2,8.5,2.5c3.1-1.6,4.3-5.5,2.6-8.5
		C74.2,479.2,70.5,478,67.3,479.7z M66.3,454c-3.5,1.9-4.8,6.4-2.9,9.9c2,3.6,6.4,4.9,10,3c3.5-1.9,4.9-6.4,3-10
		C74.3,453.3,69.9,452,66.3,454z M72.9,429.2c-4.1,2.2-5.6,7.3-3.4,11.4c2.2,4,7.3,5.6,11.4,3.4c4.1-2.2,5.6-7.3,3.4-11.4
		C82.1,428.6,77,427.1,72.9,429.2z M86.6,407.8c-4.6,2.5-6.4,8.2-3.8,12.8c2.5,4.5,8.1,6.3,12.7,3.8c4.7-2.5,6.4-8.2,3.9-12.8
		C96.9,407.1,91.1,405.3,86.6,407.8z M76.1,504c-2.6,1.3-3.5,4.5-2.1,7.2c1.4,2.5,4.5,3.5,7.1,2.1c2.5-1.4,3.5-4.6,2.1-7.2
		C81.8,503.7,78.7,502.7,76.1,504z M197.7,416.5c1.6,3,5.4,4.2,8.6,2.6c3-1.7,4.2-5.5,2.6-8.6c-1.7-3.1-5.5-4.2-8.5-2.5
		C197.2,409.6,196.1,413.4,197.7,416.5z M176.3,402.9c1.9,3.6,6.5,4.9,9.9,2.9c3.6-1.9,4.9-6.4,3-9.9c-1.9-3.6-6.4-4.9-9.9-3
		C175.8,394.8,174.4,399.4,176.3,402.9z M151.7,396.3c2.2,4.1,7.2,5.6,11.3,3.4c4.2-2.2,5.6-7.3,3.4-11.4c-2.2-4.1-7.3-5.6-11.3-3.3
		C151,387.1,149.5,392.2,151.7,396.3z M125.9,397.3c2.4,4.7,8.2,6.3,12.8,3.9c4.6-2.5,6.2-8.2,3.8-12.8c-2.4-4.6-8.2-6.3-12.8-3.8
		C125.1,387,123.5,392.7,125.9,397.3z M213.7,435.7c1.4,2.6,4.6,3.5,7,2.1c2.6-1.4,3.5-4.5,2.1-7c-1.4-2.6-4.5-3.5-7.1-2.2
		C213.3,430,212.3,433.2,213.7,435.7z M195.6,535.8c-2.8-5.2-9.3-7.3-14.5-4.4c-5.2,2.8-7.2,9.3-4.3,14.5c2.8,5.2,9.3,7.1,14.5,4.3
		C196.5,547.4,198.4,540.8,195.6,535.8z M99.2,525.4c-1.6-3-5.4-4.1-8.5-2.5c-3.1,1.6-4.2,5.5-2.6,8.5c1.6,3.1,5.4,4.2,8.5,2.5
		C99.7,532.3,100.8,528.5,99.2,525.4z M120.6,539c-2-3.5-6.4-4.9-9.9-2.9c-3.6,2-4.9,6.4-3,9.9c1.8,3.6,6.3,4.9,9.9,3
		C121.2,547,122.5,542.5,120.6,539z M145.3,545.6c-2.2-4.1-7.3-5.5-11.4-3.4c-4.1,2.2-5.5,7.3-3.4,11.4c2.2,4.1,7.3,5.6,11.4,3.4
		C146,554.9,147.5,549.7,145.3,545.6z M171.1,544.6c-2.5-4.6-8.2-6.3-12.8-3.8c-4.6,2.4-6.2,8.1-3.7,12.8c2.4,4.5,8.1,6.4,12.7,3.8
		C171.9,554.9,173.5,549.1,171.1,544.6z M229.5,462.3c3.1-1.8,4.3-5.6,2.7-8.6c-1.7-3.1-5.5-4.2-8.5-2.5c-3.1,1.6-4.3,5.5-2.6,8.5
		C222.7,462.7,226.6,463.8,229.5,462.3z M230.7,487.9c3.6-1.9,4.8-6.4,2.9-9.9c-1.9-3.6-6.3-4.9-9.9-3c-3.6,2-4.9,6.4-3,10
		C222.6,488.5,227.2,489.8,230.7,487.9z M224,512.7c4.2-2.2,5.6-7.3,3.5-11.4c-2.2-4-7.3-5.6-11.4-3.4c-4.1,2.2-5.6,7.4-3.4,11.4
		C214.9,513.3,220,514.8,224,512.7z M210.4,534c4.6-2.4,6.3-8.2,3.8-12.7c-2.5-4.6-8.2-6.3-12.8-3.8c-4.6,2.5-6.3,8.2-3.8,12.8
		C200.1,534.8,205.8,536.5,210.4,534z"/>
	
		<linearGradient id="SVGID_2_" gradientUnits="userSpaceOnUse" x1="223.7678" y1="149.0661" x2="-4.0872" y2="149.0661" gradientTransform="matrix(0.9595 0.2818 0.2818 -0.9595 1.0547 583.0702)">
		<stop  offset="0" style="stop-color:#FF9100"/>
		<stop  offset="5.000000e-02" style="stop-color:#FF8D00"/>
		<stop  offset="0.2503" style="stop-color:#FF8300"/>
		<stop  offset="0.5" style="stop-color:#FF8000"/>
		<stop  offset="0.7497" style="stop-color:#FF8300"/>
		<stop  offset="0.95" style="stop-color:#FF8D00"/>
		<stop  offset="1" style="stop-color:#FF9100"/>
	</linearGradient>
	<path fill="url(#SVGID_2_)" d="M192.3,370.5c-2.1,7.2-9.8,11.4-17.1,9.2c-7.4-2.2-11.4-9.8-9.3-17.1c2.1-7.3,9.7-11.5,17.1-9.4
		C190.4,355.5,194.6,363.1,192.3,370.5z M60.5,403c-3.6-1-7.4,1-8.4,4.6c-1.1,3.6,1,7.3,4.6,8.4c3.6,1.1,7.3-1,8.4-4.6
		C66.2,407.9,64,404.1,60.5,403z M84.3,376.7c-4.5-1.3-9.1,1.3-10.4,5.7c-1.3,4.5,1.2,9.1,5.7,10.4c4.4,1.3,9.1-1.3,10.4-5.7
		C91.3,382.7,88.8,378.1,84.3,376.7z M114.9,358.2c-5.7-1.6-11.6,1.6-13.3,7.2c-1.6,5.6,1.6,11.6,7.3,13.2
		c5.6,1.7,11.6-1.5,13.2-7.2C123.7,365.8,120.5,359.9,114.9,358.2z M148.8,350.7c-6.4-1.9-13,1.8-14.9,8.1c-1.9,6.4,1.7,13,8.1,14.9
		c6.4,1.9,13-1.8,14.9-8.1C158.7,359.2,155.1,352.5,148.8,350.7z M45.4,435.5c-2.7-0.8-5.5,0.7-6.3,3.4c-0.8,2.7,0.7,5.6,3.4,6.4
		c2.7,0.8,5.5-0.8,6.3-3.5C49.6,439.1,48.1,436.3,45.4,435.5z M250.8,466c-1.1,3.6,1,7.4,4.6,8.4c3.6,1.1,7.4-1,8.4-4.6
		c1-3.5-1-7.3-4.6-8.4C255.7,460.4,251.8,462.4,250.8,466z M243,432c-1.4,4.5,1.3,9.2,5.7,10.4c4.5,1.3,9.1-1.2,10.4-5.7
		c1.3-4.5-1.2-9.1-5.7-10.4C249,425.1,244.2,427.6,243,432z M224.5,401.5c-1.7,5.7,1.6,11.6,7.2,13.2c5.7,1.7,11.5-1.6,13.2-7.3
		c1.7-5.6-1.5-11.5-7.2-13.2C232.1,392.7,226.2,395.9,224.5,401.5z M198.5,377.8c-1.9,6.3,1.8,13,8.1,14.9c6.4,1.9,13-1.8,14.9-8.2
		c1.9-6.3-1.7-13-8.1-14.9C207,367.7,200.3,371.4,198.5,377.8z M248.1,500.3c-0.7,2.7,0.8,5.5,3.4,6.3c2.7,0.8,5.5-0.7,6.3-3.4
		c0.8-2.7-0.7-5.5-3.4-6.3C251.7,496.1,248.8,497.6,248.1,500.3z M131,579.4c2.1-7.3-2-15-9.3-17.1c-7.3-2.1-15,2-17.1,9.3
		c-2.1,7.4,2,15,9.3,17.1C121.2,590.8,128.9,586.6,131,579.4z M46.1,476c1.1-3.6-1-7.3-4.6-8.4c-3.6-1.1-7.3,1-8.5,4.6
		c-1.1,3.6,1,7.3,4.6,8.4C41.3,481.7,45,479.6,46.1,476z M54,509.9c1.3-4.4-1.3-9.1-5.7-10.3c-4.5-1.4-9.2,1.2-10.4,5.6
		c-1.2,4.4,1.2,9.1,5.7,10.4C48,517,52.7,514.4,54,509.9z M72.5,540.5c1.6-5.6-1.6-11.6-7.3-13.3c-5.7-1.6-11.5,1.6-13.2,7.3
		c-1.7,5.6,1.5,11.5,7.2,13.2C64.9,549.4,70.8,546.2,72.5,540.5z M98.5,564.3c1.8-6.3-1.8-13-8.2-14.9c-6.4-1.9-13,1.8-14.8,8.2
		c-1.9,6.3,1.7,12.9,8.1,14.8C90,574.2,96.6,570.6,98.5,564.3z M236.4,539c3.7,1.1,7.4-1,8.5-4.6c1-3.6-1-7.4-4.6-8.5
		c-3.6-1-7.4,1-8.4,4.6C230.8,534.2,232.9,538,236.4,539z M212.6,565.3c4.4,1.3,9.1-1.2,10.4-5.6c1.3-4.5-1.2-9.2-5.6-10.4
		c-4.5-1.3-9.1,1.3-10.5,5.7C205.6,559.3,208.2,563.9,212.6,565.3z M182,583.8c5.7,1.7,11.6-1.5,13.2-7.2c1.6-5.6-1.5-11.5-7.2-13.2
		c-5.6-1.7-11.6,1.6-13.3,7.2C173.2,576.2,176.4,582.1,182,583.8z M148.2,591.3c6.4,1.9,13-1.7,14.9-8c1.8-6.4-1.7-13-8.1-14.9
		c-6.4-1.9-13,1.8-14.9,8.1C138.2,582.8,141.9,589.4,148.2,591.3z"/>
	
		<linearGradient id="SVGID_3_" gradientUnits="userSpaceOnUse" x1="222.7817" y1="37.7338" x2="-35.0654" y2="197.0719" gradientTransform="matrix(0.9732 0.2298 0.2298 -0.9732 30.1308 563.6494)">
		<stop  offset="0" style="stop-color:#FF9100"/>
		<stop  offset="5.000000e-02" style="stop-color:#FF8D00"/>
		<stop  offset="0.2503" style="stop-color:#FF8300"/>
		<stop  offset="0.5" style="stop-color:#FF8000"/>
		<stop  offset="0.7497" style="stop-color:#FF8300"/>
		<stop  offset="0.95" style="stop-color:#FF8D00"/>
		<stop  offset="1" style="stop-color:#FF9100"/>
	</linearGradient>
	<path fill="url(#SVGID_3_)" d="M260.8,377.5c-6.7,7-17.9,7.4-25,0.7c-7.1-6.7-7.4-17.9-0.7-25c6.7-7.1,17.8-7.5,25-0.8
		C267.2,359.1,267.5,370.3,260.8,377.5z M84.7,337.3c-3.5-3.3-9-3.1-12.3,0.4c-3.3,3.5-3.1,9,0.4,12.3c3.5,3.3,9,3.1,12.3-0.4
		C88.3,346.2,88.2,340.6,84.7,337.3z M128.8,320.5c-4.4-4.1-11.1-3.8-15.2,0.5c-4.1,4.3-3.9,11.1,0.5,15.2c4.3,4,11.1,3.8,15.2-0.5
		C133.4,331.5,133.2,324.6,128.8,320.5z M176.2,317.1c-5.5-5.2-14.1-4.9-19.3,0.6c-5.1,5.5-4.9,14.1,0.6,19.3
		c5.5,5.2,14.2,4.9,19.3-0.6C182,330.9,181.7,322.3,176.2,317.1z M221,328.6c-6.3-5.9-15.9-5.5-21.7,0.6c-5.8,6.2-5.6,15.9,0.6,21.7
		c6.2,5.8,16,5.5,21.7-0.6C227.4,344.1,227.2,334.4,221,328.6z M47.3,366.8c-2.7-2.4-6.7-2.3-9.2,0.3c-2.5,2.6-2.4,6.7,0.2,9.2
		c2.7,2.5,6.7,2.4,9.2-0.3C50,373.3,49.9,369.2,47.3,366.8z M273.4,527c-3.3,3.5-3.1,9,0.4,12.3c3.5,3.3,9.1,3.1,12.4-0.4
		c3.3-3.5,3.1-9-0.4-12.3C282.2,523.3,276.7,523.5,273.4,527z M284.5,482c-4,4.3-3.8,11.1,0.5,15.2c4.4,4.1,11.1,3.9,15.2-0.5
		c4.1-4.3,3.9-11.1-0.5-15.2C295.5,477.5,288.6,477.7,284.5,482z M281.1,434.6c-5.2,5.5-4.9,14.1,0.6,19.3
		c5.5,5.2,14.1,4.9,19.3-0.6c5.2-5.5,4.9-14.1-0.6-19.3C294.9,428.9,286.3,429.1,281.1,434.6z M264.6,390.7
		c-5.8,6.2-5.5,15.9,0.7,21.7c6.2,5.8,15.9,5.5,21.7-0.7c5.8-6.2,5.6-15.9-0.7-21.7C280.2,384.2,270.4,384.6,264.6,390.7z
		 M249.4,566.1c-2.4,2.6-2.3,6.7,0.3,9.2c2.6,2.4,6.7,2.3,9.2-0.3c2.5-2.6,2.4-6.7-0.3-9.1C256,563.3,251.8,563.4,249.4,566.1z
		 M61.8,588.8c6.7-7.1,6.4-18.3-0.7-25c-7.2-6.7-18.3-6.3-25,0.7c-6.7,7.2-6.4,18.2,0.8,25C44,596.2,55.2,595.9,61.8,588.8z
		 M23.6,415c3.2-3.5,3.1-9-0.4-12.3c-3.5-3.3-9-3.1-12.3,0.3c-3.3,3.5-3.1,9,0.4,12.3C14.7,418.6,20.2,418.4,23.6,415z M12.3,460
		c4.1-4.3,3.8-11.2-0.4-15.2c-4.4-4.1-11.2-3.9-15.2,0.5c-4,4.4-3.9,11.1,0.4,15.2C1.4,464.5,8.3,464.3,12.3,460z M15.8,507.3
		c5.2-5.5,4.9-14.1-0.6-19.4c-5.5-5.2-14.1-4.9-19.3,0.6c-5.1,5.5-4.9,14.2,0.6,19.3C2,513.1,10.6,512.8,15.8,507.3z M32.3,551.3
		c5.8-6.2,5.5-15.9-0.6-21.7c-6.2-5.9-15.9-5.5-21.7,0.7c-5.8,6.1-5.6,15.9,0.6,21.7C16.8,557.7,26.5,557.4,32.3,551.3z
		 M212.2,604.6c3.5,3.3,9,3.1,12.3-0.4c3.3-3.5,3.1-9-0.4-12.3c-3.5-3.3-9-3.2-12.3,0.4C208.6,595.8,208.7,601.4,212.2,604.6z
		 M168.1,621.4c4.3,4.1,11.1,3.8,15.2-0.5c4.1-4.3,3.9-11.1-0.4-15.2c-4.4-4.1-11.2-3.9-15.2,0.5
		C163.6,610.5,163.8,617.3,168.1,621.4z M120.7,624.8c5.5,5.2,14.1,5,19.3-0.5c5.2-5.5,5-14.2-0.5-19.3c-5.5-5.2-14.2-4.9-19.4,0.5
		C114.9,611,115.2,619.7,120.7,624.8z M76,613.4c6.2,5.8,15.9,5.5,21.7-0.6c5.8-6.2,5.6-15.9-0.6-21.7c-6.2-5.8-15.9-5.5-21.7,0.7
		C69.5,597.8,69.8,607.6,76,613.4z"/>
	
		<linearGradient id="SVGID_4_" gradientUnits="userSpaceOnUse" x1="229.2938" y1="-95.2531" x2="29.4029" y2="250.9676" gradientTransform="matrix(0.9932 0.1161 0.1161 -0.9932 10.9272 533.322)">
		<stop  offset="0" style="stop-color:#FF9100"/>
		<stop  offset="5.000000e-02" style="stop-color:#FF8D00"/>
		<stop  offset="0.2503" style="stop-color:#FF8300"/>
		<stop  offset="0.5" style="stop-color:#FF8000"/>
		<stop  offset="0.7497" style="stop-color:#FF8300"/>
		<stop  offset="0.95" style="stop-color:#FF8D00"/>
		<stop  offset="1" style="stop-color:#FF9100"/>
	</linearGradient>
	<path fill="url(#SVGID_4_)" d="M332.6,414.9c-10.9,4.7-23.4-0.3-28.1-11.2c-4.7-10.9,0.3-23.4,11.2-28.1
		c10.8-4.7,23.4,0.3,28.1,11.2C348.4,397.6,343.4,410.2,332.6,414.9z M182.2,278.7c-1.3-6.5-7.5-10.6-13.9-9.3
		c-6.4,1.3-10.6,7.4-9.3,13.9c1.3,6.4,7.5,10.5,13.9,9.3C179.4,291.3,183.5,285,182.2,278.7z M232.9,289.7
		c-2-7.7-9.8-12.3-17.4-10.3c-7.7,1.9-12.3,9.7-10.3,17.4c1.9,7.7,9.8,12.3,17.4,10.3C230.3,305.1,234.9,297.3,232.9,289.7z
		 M279.7,312.3c-3-9.4-12.9-14.7-22.3-11.7c-9.4,2.9-14.7,12.9-11.7,22.3c2.9,9.4,13,14.6,22.4,11.7
		C277.4,331.7,282.6,321.6,279.7,312.3z M317,345.5c-3.8-10.2-15.1-15.4-25.3-11.6c-10.2,3.8-15.4,15-11.6,25.3
		c3.8,10.2,15.1,15.4,25.3,11.6C315.5,367,320.8,355.7,317,345.5z M80.6,291.9c-1.9-4.4-7-6.4-11.3-4.5c-4.4,1.9-6.4,6.9-4.5,11.3
		c1.9,4.3,7,6.3,11.3,4.5C80.4,301.4,82.5,296.3,80.6,291.9z M295.1,575.6c-5.3,3.8-6.6,11.2-2.8,16.5c3.8,5.4,11.2,6.6,16.5,2.8
		c5.3-3.8,6.6-11.1,2.8-16.5C307.8,573.1,300.4,571.8,295.1,575.6z M318.6,529.5c-6.7,4.2-8.7,13.1-4.5,19.7
		c4.2,6.7,13.1,8.7,19.7,4.4c6.7-4.2,8.7-13,4.4-19.7C334.1,527.3,325.2,525.3,318.6,529.5z M329.7,477.7
		c-8.6,4.8-11.7,15.7-6.8,24.3c4.9,8.6,15.7,11.6,24.3,6.8c8.6-4.8,11.7-15.7,6.8-24.3C349.1,475.9,338.3,472.8,329.7,477.7z
		 M329,425.7c-9.7,4.8-13.7,16.6-8.9,26.3c4.9,9.8,16.6,13.7,26.4,8.9c9.7-4.8,13.7-16.5,8.9-26.3
		C350.6,424.8,338.7,420.8,329,425.7z M220.8,638.8c-4.4,1.9-6.4,6.9-4.5,11.3c1.9,4.4,6.9,6.4,11.3,4.5c4.4-1.9,6.4-6.9,4.5-11.3
		C230.2,638.9,225.2,636.9,220.8,638.8z M-18.7,566.4c10.8-4.7,15.8-17.3,11.1-28.2c-4.7-10.9-17.3-15.8-28.1-11.2
		c-10.8,4.7-15.9,17.2-11.2,28.1C-42.2,566.1-29.6,571.1-18.7,566.4z M1.8,366.4c5.3-3.8,6.6-11.2,2.8-16.4
		c-3.8-5.4-11.1-6.6-16.5-2.8c-5.3,3.8-6.6,11.1-2.8,16.5C-10.9,368.9-3.5,370.1,1.8,366.4z M-21.7,412.5c6.7-4.2,8.7-13.1,4.4-19.8
		c-4.2-6.7-13.1-8.6-19.8-4.4c-6.7,4.2-8.7,13-4.4,19.7C-37.2,414.7-28.4,416.7-21.7,412.5z M-32.8,464.3
		c8.6-4.8,11.7-15.7,6.8-24.3c-4.8-8.6-15.7-11.6-24.3-6.8c-8.6,4.8-11.7,15.7-6.8,24.3C-52.3,466.1-41.4,469.2-32.8,464.3z
		 M-32.1,516.4c9.7-4.8,13.7-16.6,8.9-26.4c-4.8-9.8-16.6-13.7-26.4-8.9c-9.7,4.8-13.8,16.6-8.9,26.3
		C-53.7,517.2-41.9,521.2-32.1,516.4z M114.6,663.4c1.3,6.4,7.5,10.6,13.9,9.3c6.4-1.3,10.5-7.5,9.3-13.9
		c-1.3-6.4-7.5-10.5-13.9-9.3C117.5,650.7,113.3,657,114.6,663.4z M63.9,652.3c2,7.7,9.7,12.3,17.4,10.3c7.7-2,12.3-9.7,10.3-17.4
		c-1.9-7.7-9.8-12.3-17.4-10.3C66.6,636.9,62,644.6,63.9,652.3z M17.2,629.7c2.9,9.5,12.9,14.7,22.3,11.7
		c9.4-2.9,14.7-12.9,11.7-22.3c-2.9-9.4-13-14.6-22.4-11.7C19.5,610.3,14.2,620.3,17.2,629.7z M-20.1,596.5
		c3.8,10.3,15.1,15.4,25.3,11.6c10.2-3.8,15.4-15,11.6-25.3C13,572.6,1.7,567.4-8.5,571.2C-18.7,575-23.9,586.3-20.1,596.5z
		 M261.3,613.8c-4,3.2-4.7,9-1.5,13c3.2,4,9,4.7,13,1.5c4-3.2,4.7-8.9,1.5-13C271.2,611.3,265.4,610.7,261.3,613.8z M174.8,651.1
		c-5,0.7-8.5,5.4-7.8,10.5c0.7,5.1,5.4,8.5,10.5,7.8c5-0.7,8.6-5.4,7.8-10.5C184.6,653.9,179.9,650.4,174.8,651.1z M129.9,280.4
		c-0.7-5.1-5.4-8.5-10.5-7.8c-5,0.7-8.5,5.4-7.8,10.5c0.7,5.1,5.4,8.5,10.5,7.8C127.1,290.1,130.6,285.4,129.9,280.4z M37.1,315.2
		c-3.2-4-9-4.6-13-1.5c-4,3.2-4.7,8.9-1.5,13c3.2,4,9,4.7,13,1.5C39.5,325,40.2,319.2,37.1,315.2z"/>
	
		<linearGradient id="SVGID_5_" gradientUnits="userSpaceOnUse" x1="148.4267" y1="-223" x2="148.4267" y2="289" gradientTransform="matrix(1 0 0 -1 0 504)">
		<stop  offset="0" style="stop-color:#FF9100"/>
		<stop  offset="5.000000e-02" style="stop-color:#FF8D00"/>
		<stop  offset="0.2503" style="stop-color:#FF8300"/>
		<stop  offset="0.5" style="stop-color:#FF8000"/>
		<stop  offset="0.7497" style="stop-color:#FF8300"/>
		<stop  offset="0.95" style="stop-color:#FF8D00"/>
		<stop  offset="1" style="stop-color:#FF9100"/>
	</linearGradient>
	<path fill="url(#SVGID_5_)" d="M393.4,498.4c-15.1,0-27.4-12.3-27.4-27.4c0-15.2,12.3-27.4,27.4-27.4c15.1,0,27.4,12.2,27.4,27.4
		C420.9,486.1,408.6,498.4,393.4,498.4z M285.8,261.9c1.8-8.2-3.5-16.2-11.6-17.9c-8.2-1.7-16.2,3.4-18,11.6
		c-1.7,8.2,3.5,16.2,11.7,18C276,275.3,284,270.1,285.8,261.9z M339.8,300.6c1.6-10.1-5.3-19.4-15.2-21c-10-1.6-19.4,5.2-21,15.2
		c-1.6,10,5.2,19.4,15.2,21C328.8,317.5,338.2,310.6,339.8,300.6z M383.3,350.9c1.3-12.6-7.8-23.8-20.3-25.1
		c-12.5-1.3-23.8,7.7-25.1,20.4c-1.3,12.5,7.8,23.8,20.3,25.1C370.8,372.5,382,363.4,383.3,350.9z M410.3,408.9
		c0.7-14-10-25.7-23.8-26.5c-13.9-0.7-25.8,9.8-26.5,23.8c-0.7,13.9,10,25.8,23.8,26.5C397.7,433.5,409.6,422.8,410.3,408.9z
		 M159.5,226c0-6.1-4.9-11-11-11c-6.1,0-11,4.9-11,11c0,6.1,4.9,11,11,11C154.5,237,159.5,232.1,159.5,226z M267.8,668.4
		c-8.2,1.7-13.4,9.8-11.7,17.9c1.7,8.2,9.8,13.4,18,11.7c8.2-1.7,13.4-9.7,11.6-18C284,671.9,276,666.7,267.8,668.4z M318.8,626.1
		c-10,1.6-16.8,11-15.3,21c1.6,10,11,16.8,21,15.2c10-1.6,16.8-10.9,15.2-21C338.2,631.4,328.8,624.6,318.8,626.1z M358.2,570.8
		c-12.5,1.3-21.7,12.6-20.3,25.1c1.3,12.6,12.6,21.6,25.1,20.3c12.6-1.3,21.7-12.5,20.3-25.1C382,578.5,370.8,569.5,358.2,570.8z
		 M383.8,509.3c-13.8,0.7-24.5,12.6-23.8,26.5c0.7,14,12.6,24.6,26.5,23.8c13.9-0.7,24.6-12.5,23.8-26.5
		C409.6,519.2,397.7,508.5,383.8,509.3z M148.4,705c-6.1,0-11,4.9-11,11c0,6.1,4.9,11,11,11c6.1,0,11-4.9,11-11
		C159.5,709.9,154.5,705,148.4,705z M-96.6,498.4c15.1,0,27.4-12.3,27.4-27.4c0-15.2-12.3-27.4-27.4-27.4
		c-15.1,0-27.4,12.2-27.4,27.4C-124,486.1-111.7,498.4-96.6,498.4z M29,273.6c8.2-1.7,13.4-9.8,11.7-18c-1.7-8.2-9.8-13.4-17.9-11.6
		c-8.2,1.7-13.4,9.7-11.7,17.9C12.8,270.1,20.9,275.3,29,273.6z M-21.9,315.9c10-1.6,16.8-11,15.3-21c-1.6-10-11-16.8-21-15.2
		c-10,1.6-16.8,10.9-15.2,21C-41.3,310.6-31.9,317.4-21.9,315.9z M-61.4,371.2c12.5-1.3,21.7-12.6,20.3-25.1
		c-1.3-12.6-12.6-21.7-25.1-20.4c-12.6,1.3-21.7,12.5-20.3,25.1C-85.2,363.4-73.9,372.5-61.4,371.2z M-86.9,432.7
		c13.9-0.7,24.6-12.6,23.8-26.5c-0.7-14-12.6-24.6-26.5-23.8c-13.8,0.7-24.6,12.5-23.8,26.5C-112.7,422.8-100.8,433.5-86.9,432.7z
		 M11.1,680.1c-1.8,8.2,3.5,16.2,11.6,18c8.2,1.7,16.2-3.5,18-11.7c1.7-8.1-3.5-16.2-11.7-17.9C20.9,666.7,12.8,671.9,11.1,680.1z
		 M-42.9,641.4c-1.6,10.1,5.2,19.4,15.2,21c10,1.6,19.4-5.2,21-15.2c1.6-10-5.2-19.4-15.3-21C-31.9,624.6-41.3,631.4-42.9,641.4z
		 M-86.5,591.1c-1.3,12.6,7.8,23.8,20.3,25.1c12.5,1.3,23.8-7.7,25.1-20.3c1.3-12.6-7.8-23.8-20.3-25.1
		C-73.9,569.4-85.1,578.6-86.5,591.1z M-113.5,533.1c-0.7,14,10,25.7,23.8,26.5c13.9,0.7,25.8-9.8,26.5-23.8
		c0.7-13.9-10-25.7-23.8-26.5C-100.8,508.5-112.7,519.2-113.5,533.1z M208.8,696.2c-6.3,1.7-10,8.2-8.4,14.5
		c1.7,6.3,8.2,10,14.5,8.3c6.3-1.7,10.1-8.1,8.4-14.5C221.6,698.3,215.1,694.5,208.8,696.2z M88.1,696.2c-6.3-1.7-12.8,2-14.5,8.4
		c-1.7,6.3,2.1,12.8,8.4,14.5c6.3,1.7,12.8-2,14.5-8.4C98.2,704.4,94.4,697.9,88.1,696.2z M223.3,237.4c1.7-6.3-2.1-12.8-8.4-14.5
		c-6.3-1.7-12.8,2-14.5,8.3c-1.7,6.3,2.1,12.8,8.4,14.5C215.1,247.5,221.6,243.7,223.3,237.4z M96.5,231.3c-1.7-6.3-8.2-10-14.5-8.3
		c-6.3,1.7-10.1,8.1-8.4,14.4c1.7,6.3,8.2,10.1,14.5,8.4C94.4,244.1,98.2,237.6,96.5,231.3z"/>
</g>
</svg>
