<?xml version="1.0" encoding="UTF-8" standalone="no"?>
<!-- Created with Inkscape (http://www.inkscape.org/) -->
<svg
   xmlns:svg="http://www.w3.org/2000/svg"
   xmlns="http://www.w3.org/2000/svg"
   version="1.0"
   width="200"
   height="36.093304"
   id="svg2870">
  <defs
     id="defs2872">
    <clipPath
       id="clipPath3582">
      <path
         d="M 0.059998,793.74 L 609.54,793.74 L 609.54,0.06 L 0.059998,0.06 L 0.059998,793.74 z"
         id="path3584" />
    </clipPath>
    <clipPath
       id="clipPath3576">
      <path
         d="M -0.224,793.35 L 609.224,793.35 L 609.224,-0.35 L -0.224,-0.35 L -0.224,793.35 z"
         id="path3578" />
    </clipPath>
    <clipPath
       id="clipPath3570">
      <path
         d="M -580.287,793.35 L 178.358,793.35 L 178.358,401.393 L -580.287,401.393 L -580.287,793.35 z"
         id="path3572" />
    </clipPath>
    <clipPath
       id="clipPath3564">
      <path
         d="M -610.96,793.389 L -610.96,43.232 L 166.365,43.232 L 166.365,793.389"
         id="path3566" />
    </clipPath>
    <clipPath
       id="clipPath3124">
      <path
         d="M 0,793.8 L 609.6,793.8 L 609.6,0 L 0,0 L 0,793.8 z"
         id="path3126" />
    </clipPath>
    <clipPath
       id="clipPath3118">
      <path
         d="M 0,794 L 609,794 L 609,0 L 0,0 L 0,794 z"
         id="path3120" />
    </clipPath>
    <clipPath
       id="clipPath3112">
      <path
         d="M 38.13,744.07 L 137.93,744.07 L 137.93,702.29 L 38.13,702.29 L 38.13,744.07 z"
         id="path3114" />
    </clipPath>
  </defs>
  <g
     transform="translate(-219.13624,-147.37412)"
     id="layer1">
    <g
       transform="matrix(1.3413911,0,0,-1.3413911,-345.83023,1241.261)"
       id="g21287">
      <path
         d="M 480.019,802.104 C 480.019,797.123 483.71,793.447 489.871,793.447 C 492.47,793.447 494.925,793.858 497.462,795.043 L 499.766,791.892 C 496.578,790.206 493.509,789.325 488.793,789.325 C 478.96,789.325 471.729,794.06 471.729,802.102 L 471.729,802.105 C 471.729,810.145 478.96,814.882 488.793,814.882 C 493.509,814.882 496.219,814.191 499.542,812.767 L 497.175,809.147 C 494.662,810.486 492.47,810.76 489.871,810.76 C 483.71,810.76 480.019,807.092 480.019,802.11"
         id="path4448"
         style="fill:#d7063b;fill-opacity:1;fill-rule:nonzero;stroke:none" />
      <path
         d="M 517.542,814.887 C 508.021,814.887 501.153,810.148 501.153,802.106 C 501.153,794.061 508.021,789.326 517.542,789.326 C 527.063,789.326 533.929,794.061 533.929,802.106 C 533.929,810.148 527.063,814.887 517.542,814.887 M 517.542,793.302 C 512.303,793.302 509.411,797.238 509.411,802.11 C 509.411,806.982 512.303,810.915 517.542,810.915 C 522.778,810.915 525.67,806.982 525.67,802.11 C 525.67,797.238 522.778,793.302 517.542,793.302"
         id="path4450"
         style="fill:#d7063b;fill-opacity:1;fill-rule:nonzero;stroke:none" />
      <path
         d="M 558.683,800.257 L 558.683,789.971 L 566.551,789.971 L 566.551,814.243 L 558.683,814.243 L 558.683,804.992 L 546.656,804.992 L 546.656,814.243 L 538.804,814.243 L 538.804,789.971 L 546.656,789.971 L 546.656,800.257 L 558.683,800.257 z"
         id="path4452"
         style="fill:#d7063b;fill-opacity:1;fill-rule:nonzero;stroke:none" />
      <path
         d="M 458.699,789.971 L 466.986,789.971 L 466.986,814.243 L 458.699,814.243 L 458.699,789.971 z"
         id="path4454"
         style="fill:#d7063b;fill-opacity:1;fill-rule:nonzero;stroke:none" />
      <path
         d="M 434.933,803.134 L 434.931,800.812 C 438.83,797.799 442.801,793.793 445.714,789.971 L 454.988,789.971 C 451.76,793.761 446.812,798.267 443.166,800.532 C 447.444,800.711 452.218,802.442 452.218,807.354 C 452.218,813.662 445.479,814.812 438.668,814.812 C 433.104,814.812 427.974,814.558 424.907,814.305 L 424.907,789.971 L 432.635,789.971 L 432.635,810.645 C 434.066,810.798 435.604,810.968 438.705,810.968 C 442.688,810.968 444.703,809.654 444.703,807.354 C 444.703,805.396 443.869,803.049 434.933,803.134"
         id="path4456"
         style="fill:#d7063b;fill-opacity:1;fill-rule:nonzero;stroke:none" />
    </g>
  </g>
</svg>
