<?xml version="1.0" encoding="utf-8"?>
<!-- Generator: Adobe Illustrator 19.2.1, SVG Export Plug-In . SVG Version: 6.00 Build 0)  -->
<svg version="1.1" id="Capa_1" xmlns="http://www.w3.org/2000/svg" xmlns:xlink="http://www.w3.org/1999/xlink" x="0px" y="0px"
	 viewBox="0 0 788 615.1" style="enable-background:new 0 0 788 615.1;" xml:space="preserve">
<style type="text/css">
	.st0{fill:#563124;}
</style>
<g>
	<g>
		<g>
			<path class="st0" d="M531.5,276.9c-9-8.1-20.4-12.2-34.2-12.2c-8,0-16.1,1-24.3,3l-24.2,6.1c-6.5,1.6-12.2,2.7-16.9,3.2
				c4-4.6,9.6-11.5,16.8-20.6c4.1-5.3,7.2-9.1,9.2-11.7c4.2-5.1,7.3-9.1,9.4-12c13,19.5,22.6,29.2,28.8,29.2c3,0,8.7-1.9,16.9-5.8
				c21.8-10.2,32.8-27,32.8-50.5c0-14.3-5.3-25.5-15.8-33.5c-10.5-8-25.2-12-44.2-12c-17.7,0-51,3.2-99.9,9.7
				c-22.7,3.1-38.5,4.7-47.6,4.9c-4.9-4.4-9.6-8.5-14.1-12.3l6.1-15.2c5.6-0.4,11.5-0.6,17.8-0.6c8,0,15.5,0.2,22.6,0.6
				c3.1-9.1,10.5-16,22.4-20.7c24.5-9.5,36.7-23.6,36.7-42.2c0-14-8.1-24.8-24.2-32.3c-16.1-7.5-39.3-11.3-69.5-11.3
				c-30.3,0-59.5,3.5-87.7,10.5c-28.2,7-52.1,16.7-71.7,29.1c-21.1,13.4-37.4,29.2-48.9,47.4c-11.5,18.2-17.2,37.3-17.2,57.2
				c0,22.2,7.3,40.3,21.9,54.3c14.6,14,33.5,21,56.8,21c3,0,6.1-0.2,9.1-0.4c-3.3,9-5.1,18.9-5.1,29.8c0,24.7,8.3,45,25,61.1
				c16.7,16.1,37.8,24.2,63.3,24.2c31.1,0,65.3-16.4,102.5-49.2l3.2-2.9c17.8,20.3,32.4,34,43.8,41.1c11.4,7.1,24.4,10.7,39,10.7
				c19.9,0,37.4-6.7,52.5-20.2c15-13.4,22.6-29,22.6-46.8C545,295.3,540.5,285,531.5,276.9z M377.9,188.9
				c53.4-6.8,88.9-10.2,106.4-10.2c16.2,0,28.6,3.3,37.3,9.9c8.7,6.6,13,16.1,13,28.4c0,8.5-2.4,15.7-7.1,21.7c-4.7,6-10.4,9-17.1,9
				c-6.4,0-12.7-3.2-18.6-9.6c-6-6.4-9-13.1-9-19.9c0-4.7,1-8.6,2.9-12l-5.3-1.7c-0.9,1.4-1.6,2.4-2,2.9l-2.7,3.8l-5.1,7.6
				c-3.3,4.9-10.5,14.2-21.6,28.2c-11.1,13.9-19.1,23.7-24.1,29.4l-0.9,1.1c-2.2,0.2-3.7,0.3-4.5,0.3c-7.4,0-13.4-1.9-18.1-5.7
				c-4.7-3.8-7.1-8.6-7.1-14.5c0-0.1,0-0.2,0-0.3l3,3.1c9.4-6.9,20.1-15.3,31.9-25.2l-3.8-4.4c-7.3,5.6-12.9,8.4-16.8,8.4
				c-1.4,0-3-0.6-4.8-1.7c0.1-0.1,0.2-0.2,0.3-0.4c-0.3,0-0.5,0.1-0.8,0.1c-0.8-0.5-1.6-1.1-2.4-1.8c-3-2.5-9.6-8.9-19.9-19.1
				l-13-13.1c-4.1-4.1-8.1-8.1-12-11.8C362.7,190.8,369.9,189.9,377.9,188.9z M202.9,248.5c-21.6,0-39.2-6.5-52.7-19.4
				c-13.5-13-20.3-29.8-20.3-50.5c0-32.9,15.1-61.8,45.4-86.6c35-28.7,84.3-43,147.8-43c56.9,0,85.4,12.6,85.4,37.9
				c0,13.5-5.3,24.1-15.8,31.8c-10.5,7.7-25,11.5-43.4,11.5c-2.4,0-6.6-0.2-12.3-0.5c4.9-14.1,9.6-30.8,14.2-49.9l0.8-2.8
				c-13.1,4.3-28.1,8.2-45,11.7l1.4,5.4c4.2-0.8,7.3-1.2,9.5-1.2c6.8,0,10.2,2.9,10.2,8.8c0,4.1-1.6,11.6-4.7,22.4
				c-3.2,10.9-6.5,20.3-10.1,28.4c-0.9-0.6-1.7-1.1-2.3-1.5l-9.6-7.4c-10.1-7.6-20.4-11.4-31.1-11.4c-14.2,0-29.4,6.5-45.6,19.4
				c-16.2,13-24.3,25.2-24.3,36.6c0,7.9,3.9,14,11.7,18.3c-1-4.9-1.5-9.1-1.5-12.4c0-13.7,4.4-25,13.1-33.8
				c8.7-8.8,19.9-13.2,33.4-13.2c15.1,0,31.3,7.8,48.5,23.4c-6.8,14.9-13.8,27.2-21.2,37.1c-2-0.2-4.1-0.3-6.1-0.3
				c-19.7,0-37.7,6.2-53.9,18.5c-8.7,6.5-15.4,14.2-20.4,22.7C203.5,248.5,203.2,248.5,202.9,248.5z M275.2,218.2
				c-1.6,1.6-3.1,3.1-4.7,4.5c-8.8,7.8-19.4,14-31.8,18.7c-9,3.4-17.8,5.6-26.4,6.5c2.4-4.1,5.2-8.1,8.5-11.7
				c11.7-12.8,26.1-19.2,43.2-19.2C267.7,217.1,271.5,217.5,275.2,218.2z M292.9,364.1c-24.3,0-45.3-8-63-23.9
				c-17.8-15.9-26.6-34.7-26.6-56.4c0-9.1,1.4-17.4,4.1-25.1c20.6-3.5,41.6-12.8,63-28.2c4.5-3.2,8.7-6.6,12.8-10.3
				c7.5,2.5,14.9,6.4,22,11.9c13.2,10.1,31.2,29.3,54,57.7c9.4,11.5,17,20.7,23,27.4l1.4,1.5C351.1,349,320.9,364.1,292.9,364.1z
				 M393.8,302.1c-5.6-6.5-12.3-14.3-19.9-23.6C350.4,250,334,232,324.8,224.7c-9.8-7.8-20-12.9-30.6-15.4
				c4.9-5.4,9.5-11.3,13.7-17.6c4.3,1.3,9.7,2,16.3,2c1.9,0,3.9-0.1,6.1-0.1c15.2,14.4,34.5,33.7,57.9,57.6c0,0.6-0.1,1.2-0.1,1.9
				c0,17.3,7.3,30.7,21.9,40.2c-2.9,3.5-7.1,7.8-12.7,12.7L393.8,302.1z M519.4,350c-10.8,10-23.4,15-38,15
				c-16,0-32.8-8.1-50.3-24.4c-12.1-11.1-22.1-21.2-30-30.2c0.8-0.9,1.3-1.5,1.5-1.7l6.5-6.5l5.7-6.1c0.2-0.3,0.7-0.9,1.5-1.7
				c2.5,0.5,5,0.8,7.5,0.8c7.6,0,18.1-1.7,31.7-5.2c22.2-5.6,37.3-8.3,45.3-8.3c10.3,0,18.6,3,25.1,9.1c6.4,6.1,9.7,14,9.7,23.8
				C535.5,328.2,530.2,340,519.4,350z"/>
		</g>
	</g>
	<g>
		<path class="st0" d="M272.8,536.7h8.2c0.6,0,1.1,0,1.7,0c0.6,0,1.1,0,1.7,0.1c1.1,0.1,2.2,0.2,3.3,0.4c1.1,0.2,2.1,0.7,3.1,1.3
			c1.7,1.1,3.1,2.5,4,4.3c0.9,1.8,1.4,3.8,1.4,6c0,3-1,5.6-3,7.8c-2,2.2-4.4,3.3-7.2,3.3l9.7,13.8h-4.3l-11.7-16.8h1
			c0.1,0,0.2,0,0.3,0c0.1,0,0.2,0,0.3,0c0.4,0,0.9,0,1.3,0c0.4,0,0.9,0,1.3,0c0.7,0,1.5-0.1,2.2-0.3c0.7-0.1,1.4-0.4,2.1-0.7
			c1.4-0.7,2.5-1.7,3.3-3.1c0.8-1.3,1.2-2.8,1.2-4.5c0-0.1,0-0.1,0-0.2c0-0.1,0-0.1,0-0.1c-0.1-1.2-0.4-2.4-1-3.6
			c-0.6-1.1-1.3-2.1-2.3-2.8c-1-0.7-2-1.2-3.1-1.4c-1.1-0.2-2.3-0.3-3.4-0.4c-0.2,0-0.4,0-0.6,0c-0.2,0-0.4,0-0.6,0h-5.4v33.6h-3.4
			V536.7z"/>
		<path class="st0" d="M302.2,561.3c0.1,2.6,1.2,4.9,3.4,6.7c2.1,1.9,4.5,2.8,7,2.8c0,0,0.1,0,0.1,0c0,0,0.1,0,0.1,0
			c2,0,3.9-0.6,5.7-1.7c1.8-1.1,3.1-2.5,3.9-4.4l3.9-0.1c-0.9,2.8-2.7,5.1-5.2,6.9c-2.5,1.8-5.3,2.7-8.2,2.7c-4,0-7.5-1.4-10.3-4.1
			c-2.8-2.8-4.2-6.1-4.2-10.1c0-4,1.4-7.3,4.2-10.1c2.8-2.8,6.2-4.2,10.2-4.2c2.2,0,4.2,0.5,6.1,1.4c1.9,0.9,3.6,2.2,4.9,3.9
			c1.3,1.6,2.1,3.2,2.5,4.8c0.4,1.7,0.6,3.5,0.7,5.4H302.2z M323.4,557.9c-0.5-2.4-1.7-4.4-3.7-6.1c-2-1.7-4.3-2.5-6.8-2.5
			c-2.6,0-4.9,0.8-6.9,2.4c-2,1.6-3.3,3.7-3.8,6.2H323.4z"/>
		<path class="st0" d="M329.8,565.6h3.7c0,0,0,0.1,0,0.1c0,0,0,0,0,0.1c0,0,0,0.1,0,0.1c0,1.3,0.5,2.5,1.4,3.5c1,1,2.1,1.5,3.5,1.5
			c1.3,0,2.5-0.4,3.4-1.3c0.9-0.9,1.4-1.9,1.4-3.3c0-1.7-0.5-2.9-1.6-3.6s-2.3-1.3-3.7-1.7c-0.1,0-0.3-0.1-0.4-0.1
			c-0.1,0-0.3-0.1-0.5-0.2c-0.7-0.2-1.4-0.5-2.1-0.8c-0.7-0.3-1.3-0.7-1.9-1.3c-0.7-0.7-1.3-1.5-1.6-2.4c-0.4-0.9-0.5-1.9-0.5-2.8
			c0-2.2,0.8-4.1,2.3-5.5c1.6-1.4,3.4-2.2,5.5-2.2c2.1,0,3.8,0.7,5.3,2.2c1.5,1.5,2.2,3.2,2.2,5.2l-3.7,0c0-1.2-0.4-2.1-1.2-2.8
			c-0.8-0.7-1.8-1-3-1c-1,0-1.9,0.4-2.7,1.1c-0.7,0.7-1.1,1.6-1.1,2.7c0,1.5,0.5,2.5,1.5,3.1c1,0.6,2.1,1.1,3.3,1.4
			c2.1,0.6,3.8,1.5,5.4,2.6c1.5,1.1,2.3,2.9,2.3,5.4c0,2.6-0.8,4.7-2.5,6.3c-1.7,1.6-3.8,2.4-6.3,2.4c-2.2,0-4.2-0.8-5.8-2.5
			c-1.6-1.6-2.5-3.6-2.5-5.8c0,0,0-0.1,0-0.1s0-0.1,0-0.1c0,0,0-0.1,0-0.1C329.8,565.7,329.8,565.7,329.8,565.6L329.8,565.6z"/>
		<path class="st0" d="M353.4,549.6h-5.7v-3.4h5.7v-9.6h3.7v9.6h6.4v3.4h-6.4v24h-3.7V549.6z"/>
		<path class="st0" d="M392.1,573.7h-3.5v-5.2h-0.1c-1,2-2.4,3.4-4.3,4.4c-1.9,1-3.9,1.4-6,1.4c-0.6,0-1.1,0-1.6-0.1
			c-0.5-0.1-1.1-0.2-1.6-0.3c-1.5-0.3-3-0.9-4.4-1.8c-1.5-0.9-2.8-2.1-4.1-3.5c-0.1-0.2-0.3-0.4-0.5-0.6c-0.2-0.3-0.4-0.5-0.5-0.9
			c-0.4-0.8-0.8-1.9-1.1-3.1c-0.3-1.3-0.5-2.6-0.5-4.1c0-1.9,0.4-3.6,1.1-5.3c0.7-1.7,1.6-3.1,2.8-4.3c1.3-1.4,2.8-2.5,4.5-3.3
			c1.7-0.8,3.7-1.2,6-1.2c0,0,0.1,0,0.1,0c0,0,0.1,0,0.1,0c2.1,0,4,0.5,5.9,1.5c1.9,1,3.3,2.4,4.2,4.3l0.1,0v-5.2h3.5V573.7z
			 M370.7,552.4c-2.1,2.1-3.2,4.7-3.2,7.7c0,3,1.1,5.5,3.3,7.6c2.2,2.1,4.7,3.1,7.5,3.1c2.8,0,5.2-1.1,7.3-3.2
			c2.1-2.1,3.1-4.6,3.1-7.5c0-3-1-5.6-3-7.8c-2-2.1-4.5-3.2-7.5-3.2C375.3,549.3,372.8,550.3,370.7,552.4z"/>
		<path class="st0" d="M420.6,573.7h-3.4v-4.3h-0.1c-0.8,1.8-2,3-3.5,3.8c-1.6,0.8-3.3,1.1-5.1,1.1c-1.4,0-2.8-0.2-4-0.7
			c-1.3-0.5-2.5-1.3-3.7-2.5c-0.3-0.3-0.5-0.5-0.7-0.8c-0.2-0.3-0.5-0.6-0.7-0.9c-0.8-0.9-1.3-2.1-1.5-3.6c-0.2-1.6-0.3-3.2-0.3-5
			v-14.5h3.6v14.5c0,1.1,0.1,2.1,0.2,3.2c0.1,1,0.5,2,1,3c0.7,1.3,1.7,2.3,2.9,3c1.2,0.7,2.5,1,4,1c1.3,0,2.5-0.3,3.6-0.9
			c1.1-0.6,2.1-1.4,2.8-2.5c0.7-1,1.1-2,1.3-3.2c0.2-1.2,0.3-2.3,0.3-3.5v-14.5h3.6V573.7z"/>
		<path class="st0" d="M426.5,546.3h3.3v4h0.1c0.6-1.6,1.6-2.7,3-3.4c1.4-0.7,2.8-1,4.4-1.1v3.6c-0.8,0.1-1.4,0.2-2,0.4
			c-0.6,0.2-1.2,0.5-1.8,0.8c-0.1,0.1-0.3,0.2-0.4,0.3c-0.1,0.1-0.3,0.2-0.4,0.4c-0.2,0.2-0.4,0.4-0.6,0.6c-0.2,0.2-0.4,0.4-0.5,0.7
			c-0.7,0.8-1.1,1.7-1.2,2.6c-0.2,0.9-0.2,2-0.2,3.3v15.3h-3.5V546.3z"/>
		<path class="st0" d="M465.8,573.7h-3.5v-5.2h-0.1c-1,2-2.4,3.4-4.3,4.4c-1.9,1-3.9,1.4-6,1.4c-0.6,0-1.1,0-1.6-0.1
			c-0.5-0.1-1.1-0.2-1.6-0.3c-1.5-0.3-3-0.9-4.5-1.8c-1.5-0.9-2.8-2.1-4.1-3.5c-0.1-0.2-0.3-0.4-0.5-0.6c-0.2-0.3-0.4-0.5-0.5-0.9
			c-0.4-0.8-0.8-1.9-1.2-3.1c-0.3-1.3-0.5-2.6-0.5-4.1c0-1.9,0.3-3.6,1.1-5.3c0.7-1.7,1.6-3.1,2.8-4.3c1.3-1.4,2.8-2.5,4.5-3.3
			c1.7-0.8,3.7-1.2,6-1.2c0,0,0.1,0,0.1,0c0,0,0.1,0,0.1,0c2.1,0,4,0.5,5.9,1.5c1.9,1,3.3,2.4,4.2,4.3l0.1,0v-5.2h3.5V573.7z
			 M444.3,552.4c-2.1,2.1-3.2,4.7-3.2,7.7c0,3,1.1,5.5,3.3,7.6c2.2,2.1,4.7,3.1,7.6,3.1c2.8,0,5.2-1.1,7.3-3.2
			c2.1-2.1,3.1-4.6,3.1-7.5c0-3-1-5.6-3-7.8c-2-2.1-4.5-3.2-7.5-3.2C448.9,549.3,446.4,550.3,444.3,552.4z"/>
		<path class="st0" d="M471.2,546.3h3.4v4h0.1c1-1.4,2.1-2.5,3.5-3.3c1.3-0.8,2.9-1.2,4.6-1.2c1.8,0,3.5,0.4,5.1,1.2
			c1.6,0.8,3,1.9,4.2,3.4c1,1.3,1.7,2.7,2,4.2c0.3,1.5,0.4,3.1,0.4,4.8v14.4h-3.5v-14.4c0-1.1-0.1-2.3-0.3-3.4
			c-0.2-1.1-0.6-2.1-1.3-3.1c-0.8-1.2-1.8-2-3-2.6c-1.2-0.6-2.4-0.9-3.8-0.9c-0.1,0-0.2,0-0.3,0c-0.1,0-0.2,0-0.3,0
			c-1.2,0.1-2.2,0.4-3.3,1c-1,0.6-1.9,1.4-2.6,2.3c-0.6,0.8-0.9,1.7-1.1,2.6c-0.2,0.9-0.2,1.9-0.2,2.8c0,0.1,0,0.3,0,0.4
			c0,0.1,0,0.3,0,0.4c0,0.1,0,0.2,0,0.3c0,0.1,0,0.1,0,0.2v14.4h-3.5V546.3z"/>
		<path class="st0" d="M502.1,549.6h-5.3v-3.4h5.3v-9.6h3.5v9.6h6v3.4h-6v24h-3.5V549.6z"/>
		<path class="st0" d="M516.3,561.3c0.1,2.6,1.2,4.9,3.2,6.7c2.1,1.9,4.3,2.8,6.8,2.8c0,0,0.1,0,0.1,0c0,0,0.1,0,0.1,0
			c1.9,0,3.7-0.6,5.5-1.7c1.7-1.1,3-2.5,3.8-4.4l3.7-0.1c-0.9,2.8-2.6,5.1-5,6.9c-2.4,1.8-5.1,2.7-7.9,2.7c-3.9,0-7.2-1.4-9.9-4.1
			c-2.7-2.8-4.1-6.1-4.1-10.1c0-4,1.3-7.3,4-10.1c2.7-2.8,6-4.2,9.8-4.2c2.1,0,4.1,0.5,5.9,1.4c1.8,0.9,3.4,2.2,4.8,3.9
			c1.2,1.6,2,3.2,2.5,4.8c0.4,1.7,0.6,3.5,0.7,5.4H516.3z M536.8,557.9c-0.5-2.4-1.6-4.4-3.6-6.1c-1.9-1.7-4.1-2.5-6.6-2.5
			c-2.5,0-4.7,0.8-6.7,2.4c-2,1.6-3.2,3.7-3.6,6.2H536.8z"/>
		<path class="st0" d="M570.2,558.2v3.4h-11v-3.4H570.2z"/>
		<path class="st0" d="M589.8,536.7h8.2c1.4,0,2.8,0.2,4.1,0.4c1.4,0.2,2.6,0.7,3.8,1.6c1.3,0.9,2.3,2,3,3.4
			c0.7,1.4,1.1,2.9,1.1,4.5c0,1.6-0.3,3-1,4.2c-0.7,1.2-1.6,2.3-2.8,3.2c1.9,0.8,3.3,2,4.3,3.7c1,1.6,1.5,3.5,1.5,5.7
			c0,1.7-0.4,3.3-1.1,4.8c-0.8,1.5-1.8,2.8-3.2,3.7c-0.1,0.1-0.3,0.2-0.4,0.3c-0.1,0.1-0.3,0.2-0.5,0.2c-1.3,0.7-2.6,1.1-3.9,1.3
			c-1.3,0.1-2.7,0.2-4.2,0.2c-0.1,0-0.2,0-0.3,0c-0.1,0-0.2,0-0.4,0h-8.2V536.7z M597.1,552.5c0,0,0.1,0.1,0.1,0.1c0,0,0.1,0,0.2,0
			c0.3,0,0.6,0,0.9,0s0.6,0,0.9,0c0.8,0,1.6-0.1,2.3-0.3c0.8-0.2,1.5-0.4,2.2-0.8c0.8-0.4,1.4-1.1,1.9-2c0.5-0.9,0.8-1.8,0.9-2.8
			c0-0.1,0-0.1,0-0.2c0-0.1,0-0.2,0-0.2c0,0,0-0.1,0-0.1c0,0,0-0.1,0-0.2c-0.1-0.9-0.4-1.8-0.9-2.7c-0.5-0.9-1.2-1.6-1.9-2.1
			c-0.5-0.4-1.1-0.6-1.8-0.8c-0.7-0.2-1.3-0.3-2-0.3c-0.2,0-0.4,0-0.7,0s-0.4,0-0.7,0c-0.1,0-0.2,0-0.3,0c-0.1,0-0.2,0-0.3,0
			c-0.1,0-0.2,0-0.4,0c-0.1,0-0.2,0-0.3,0h-4.1v12.4H597.1z M597.6,570.3c0.1,0,0.2,0,0.3,0c0.1,0,0.2,0,0.4,0c0.1,0,0.2,0,0.4,0
			c0.1,0,0.2,0,0.3,0c0.3,0,0.5,0,0.7,0c0.2,0,0.5,0,0.7,0c0.8,0,1.6-0.1,2.4-0.3c0.8-0.1,1.5-0.4,2.2-0.8c0.9-0.5,1.6-1.2,2.2-2.2
			c0.6-0.9,1-1.9,1.1-3c0-0.1,0-0.3,0-0.4c0-0.1,0-0.2,0-0.3v0v0c0-1.6-0.3-2.9-1.1-4.1c-0.8-1.2-1.9-2-3.2-2.5
			c-0.7-0.2-1.4-0.4-2.1-0.5c-0.7-0.1-1.5-0.2-2.2-0.2c-0.4,0-0.8,0-1.2,0c-0.4,0-0.8,0-1.2,0c-0.1,0-0.1,0-0.2,0
			c-0.1,0-0.1,0-0.2,0h-3.7v14.4H597.6z"/>
		<path class="st0" d="M642.7,573.7h-3.4v-5.2h-0.1c-0.9,2-2.3,3.4-4.1,4.4c-1.8,1-3.7,1.4-5.8,1.4c-0.5,0-1.1,0-1.6-0.1
			c-0.5-0.1-1.1-0.2-1.6-0.3c-1.5-0.3-2.9-0.9-4.3-1.8c-1.4-0.9-2.7-2.1-3.9-3.5c-0.1-0.2-0.3-0.4-0.4-0.6c-0.2-0.3-0.3-0.5-0.5-0.9
			c-0.4-0.8-0.8-1.9-1.1-3.1c-0.3-1.3-0.5-2.6-0.5-4.1c0-1.9,0.3-3.6,1-5.3c0.7-1.7,1.6-3.1,2.7-4.3c1.2-1.4,2.7-2.5,4.3-3.3
			c1.7-0.8,3.6-1.2,5.8-1.2c0,0,0.1,0,0.1,0c0,0,0.1,0,0.1,0c2,0,3.9,0.5,5.7,1.5c1.8,1,3.2,2.4,4.1,4.3l0.1,0v-5.2h3.4V573.7z
			 M621.9,552.4c-2,2.1-3.1,4.7-3.1,7.7c0,3,1,5.5,3.1,7.6c2.1,2.1,4.5,3.1,7.3,3.1c2.7,0,5.1-1.1,7.1-3.2c2-2.1,3-4.6,3-7.5
			c0-3-1-5.6-2.9-7.8c-1.9-2.1-4.3-3.2-7.2-3.2C626.4,549.3,623.9,550.3,621.9,552.4z"/>
		<path class="st0" d="M648.7,546.3h3.3v4h0.1c0.6-1.6,1.6-2.7,3-3.4c1.4-0.7,2.8-1,4.4-1.1v3.6c-0.8,0.1-1.4,0.2-2,0.4
			c-0.6,0.2-1.2,0.5-1.8,0.8c-0.1,0.1-0.3,0.2-0.4,0.3c-0.1,0.1-0.3,0.2-0.5,0.4c-0.2,0.2-0.4,0.4-0.6,0.6c-0.2,0.2-0.4,0.4-0.5,0.7
			c-0.7,0.8-1.1,1.7-1.2,2.6c-0.2,0.9-0.2,2-0.2,3.3v15.3h-3.5V546.3z"/>
	</g>
	<g>
		<path class="st0" d="M113.5,465.7l-2.4,8.1c5.1,5.7,10.9,12.9,17.4,21.6l5.2,6.9c4.1,5.4,6.7,8.8,7.9,10.1c1.2,1.3,2.2,2,3.1,2
			c1.5,0,3.8-1.5,6.7-4.5l1.5,2.4c-4.7,5.3-8.9,9.7-12.7,13.4l-2.1-2.9c-13.4-18.4-23.5-31.7-30.5-39.9c-4.7,11.1-10.7,20.1-18,27
			c-11,10.5-21.8,15.8-32.3,15.8c-9.3,0-16.8-3.7-22.6-11.1c-5.8-7.4-8.7-17-8.7-28.8c0-10.6,2.3-20.7,6.9-30.4
			c4.6-9.6,11.1-18,19.5-25.1c7.8-6.6,17.3-11.7,28.5-15.4c11.2-3.7,22.9-5.6,34.9-5.6c12,0,21.2,2,27.7,6c6.4,4,9.6,9.7,9.6,17.2
			c0,9.9-4.9,17.4-14.6,22.4c-4.7,2.5-7.7,6.2-8.9,11c-2.8-0.2-5.8-0.3-9-0.3C118.1,465.4,115.7,465.5,113.5,465.7z M104.2,434.5
			c6.7-1.8,12.7-3.9,17.9-6.2l-0.3,1.5c-1.8,10.2-3.7,19-5.6,26.5c2.3,0.2,3.9,0.2,4.9,0.2c7.3,0,13.1-2,17.3-6.1
			c4.2-4.1,6.3-9.7,6.3-16.9c0-13.4-11.3-20.1-34-20.1c-25.3,0-44.9,7.6-58.9,22.8c-12.1,13.2-18.1,28.5-18.1,46
			c0,11,2.7,19.9,8.1,26.8c5.4,6.9,12.4,10.3,21,10.3c4.6,0,9.3-1.2,14.2-3.7c4.9-2.5,9.1-5.8,12.7-9.9c5-5.8,9.6-15.1,14-27.7
			c-6.8-8.3-13.3-12.4-19.3-12.4c-5.4,0-9.8,2.3-13.3,7c-3.5,4.7-5.2,10.7-5.2,17.9c0,1.8,0.2,4,0.6,6.6c-3.1-2.3-4.7-5.5-4.7-9.7
			c0-6.1,3.2-12.6,9.7-19.4c6.5-6.9,12.5-10.3,18.2-10.3c4.2,0,8.4,2,12.4,6l3.8,3.9c0.2,0.2,0.5,0.5,0.9,0.8
			c1.4-4.3,2.8-9.3,4-15.1c1.3-5.8,1.9-9.7,1.9-11.9c0-3.1-1.4-4.6-4.1-4.6c-0.9,0-2.1,0.2-3.8,0.7L104.2,434.5z"/>
		<path class="st0" d="M180.4,453.8v0.9c0,5.1-2.5,15.2-7.5,30.3l-4.5,13.7c-2.4,7.3-3.6,11.8-3.7,13.4c0,1.7,0.6,2.5,2.1,2.4
			c0.8-0.1,2.1-0.6,4-1.7l0.8,2.4c-6.4,4.1-11.4,7-15.2,8.7c0.2-5.1,0.8-9.8,1.9-14.1c1-4.3,3.3-11.5,6.7-21.5
			c4.4-12.8,6.6-20.3,6.7-22.5c0.1-1.7-0.4-2.5-1.6-2.5c-0.5,0-1.2,0.2-2.1,0.6l-2.5,1.2c-0.2,0.1-0.5,0.2-1.2,0.6l-0.6-2.6l1.3-0.6
			c4.5-2.2,9.1-4.7,13.7-7.5L180.4,453.8z M183.9,432.9c1.9,0,2.8,1.3,2.8,3.8c0,1.4-0.4,2.7-1.2,3.8c-0.8,1.1-1.8,1.7-2.8,1.7
			c-1.9,0-2.9-1.2-2.9-3.7c0-1.4,0.4-2.7,1.2-3.8C181.9,433.5,182.8,432.9,183.9,432.9z"/>
		<path class="st0" d="M218.7,511.7l1,2.2c-4.9,4.7-10.6,7.9-17.2,9.8c0.9-9,4.8-22.6,11.8-40.8l3.9-10.1c1.3-3.5,2-5.7,2-6.7
			c0-1.5-0.4-2.2-1.3-2.2c-1.3,0-3.6,1.9-7.1,5.7c-3.5,3.8-6.9,8.2-10.2,13.2c-6.9,10.3-12.6,22.7-17.3,37.2
			c-1.9,0.6-4.6,1.9-8.1,3.9c3.7-10.2,7.5-21.7,11.3-34.4c3.8-12.7,5.7-20.3,5.7-22.6c0-2-0.6-2.9-1.8-2.9c-0.6,0-1.9,0.4-3.9,1.2
			c-0.2,0.1-0.4,0.1-0.7,0.2l-0.4-2.6c5.7-2.2,10.8-4.6,15.3-7.3l0.8-0.5c0.1,0.7,0.1,1.2,0.1,1.5c0,4.8-2.6,15.1-7.9,30.9l-0.8,2.4
			l1-1.5c6.6-10.2,12.8-18.2,18.4-24c5.6-5.8,10-8.8,13.1-8.8c2,0,3,1.4,3,4.1c0,2.8-2.6,11.2-7.9,25c-6.4,16.5-9.5,25.8-9.5,27.9
			c0,1.6,0.5,2.4,1.6,2.4c1.2,0,2.9-0.9,5-2.7L218.7,511.7z"/>
		<path class="st0" d="M270.2,454.9l-8.6,21.4h-2.1l0.5-1.4c1.4-4.1,2.1-7,2.1-8.6c0-2-1.5-2.9-4.6-2.9c-4.7,0-8.8,2.7-12.3,8.1
			c-3.3,5.1-6.1,11.2-8.4,18.3c-2.3,7.1-3.5,13.1-3.5,17.9c0,6,2,9,6.1,9c3.5,0,7.1-2,10.7-6c3.7-4,6.8-9.3,9.3-15.9l1.6-4.1
			c0.1-0.2,0.3-0.7,0.5-1.4c0.4,1,0.7,2.1,0.7,3.2c0,4.7-2.6,10.4-7.8,17.1c-7.6,9.9-14.6,14.8-20.9,14.8c-5.4,0-8.1-4.1-8.1-12.2
			c0-7,1.8-14.6,5.3-22.7c3.5-8.1,8.2-15.4,14-21.8c7.8-8.6,15.4-13,22.9-13C268.2,454.8,269,454.8,270.2,454.9z"/>
		<path class="st0" d="M307.4,463.3c-2.1-0.3-3.9-0.4-5.3-0.4c-10.6,0-18.8,5.5-24.5,16.5c-2.2,4.3-4.1,9.3-5.6,15
			c-1.5,5.6-2.3,10.3-2.3,14.1c0,2.7,0.6,4.8,1.7,6.6c1.2,1.7,2.6,2.6,4.4,2.6c4.2,0,8.9-4.5,14-13.6c5.1-9.1,7.6-17.4,7.6-24.9
			c0-1.7-0.3-3.1-1-4.3c-0.7-1.2-1.5-1.8-2.4-1.8c-3.2,0-6.3,4.3-9.3,13c-0.2-1.1-0.3-2-0.3-2.9c0-3.4,1.6-6.9,4.7-10.6
			c3.1-3.7,6.1-5.5,8.9-5.5c1.9,0,3.4,1,4.7,3.1c1.3,2,1.9,4.5,1.9,7.5c0,9.8-4.7,20.3-14,31.3c-8,9.6-14.7,14.3-20,14.3
			c-2.3,0-4.2-1.1-5.7-3.3c-1.5-2.2-2.3-5-2.3-8.4c0-7.4,1.9-15.2,5.8-23.4c3.9-8.1,8.9-15.1,15.3-21c3.5-3.2,7.3-5.8,11.4-7.9
			c4.1-2.1,7.6-3.1,10.5-3.1c1.8,0,2.7,1.1,2.7,3.2C308.2,460.1,307.9,461.5,307.4,463.3z M309.3,425.3l2.3,7.1
			c-7.2,3.4-13,10.3-17.5,20.9C296,437.9,301,428.5,309.3,425.3z"/>
		<path class="st0" d="M345.1,511.7l1,2.2c-4.9,4.7-10.6,7.9-17.2,9.8c0.9-9,4.8-22.6,11.8-40.8l3.9-10.1c1.3-3.5,2-5.7,2-6.7
			c0-1.5-0.4-2.2-1.3-2.2c-1.3,0-3.6,1.9-7.1,5.7c-3.5,3.8-6.9,8.2-10.2,13.2c-6.9,10.3-12.6,22.7-17.3,37.2
			c-1.9,0.6-4.6,1.9-8.1,3.9c3.7-10.2,7.5-21.7,11.3-34.4c3.8-12.7,5.7-20.3,5.7-22.6c0-2-0.6-2.9-1.8-2.9c-0.6,0-1.9,0.4-3.9,1.2
			c-0.2,0.1-0.4,0.1-0.7,0.2l-0.4-2.6c5.7-2.2,10.8-4.6,15.3-7.3l0.8-0.5c0.1,0.7,0.1,1.2,0.1,1.5c0,4.8-2.6,15.1-7.9,30.9l-0.8,2.4
			l1-1.5c6.6-10.2,12.8-18.2,18.4-24c5.6-5.8,10-8.8,13.1-8.8c2,0,3,1.4,3,4.1c0,2.8-2.6,11.2-7.9,25c-6.4,16.5-9.5,25.8-9.5,27.9
			c0,1.6,0.5,2.4,1.6,2.4c1.2,0,2.9-0.9,5-2.7L345.1,511.7z"/>
		<path class="st0" d="M446.7,411.7c-0.2,3.6-2.1,11.5-5.7,23.9l-4.5,15.2l-1.8,5.9c2.4,1.3,3.7,4,3.9,8c-1.7-0.8-3.6-1.2-5.8-1.4
			l-0.4,1.5l-7.8,26.7c-3.6,12.4-5.5,19.5-5.5,21.3c0,1.5,0.5,2.3,1.6,2.3c1.1,0,3-1.1,5.6-3.2c0.1-0.1,0.3-0.3,0.6-0.5l1.2,2
			c-4.4,4.1-10.5,7.6-18.3,10.6l0.5-2.7c1.3-6.5,3.4-14.7,6.4-24.5c0.9-3,1.8-5.8,2.5-8.4l6.8-23.8l0.6-1.8c-4.4,0-9.1,1.6-14.1,4.7
			c-5.1,3.1-9.5,7.2-13.3,12.2c-7.1,9.5-10.7,19.3-10.7,29.3c0,4.6,1.3,6.9,3.8,6.9c2.5,0,5.6-2.3,9.3-6.8c3.7-4.6,7-10.1,9.8-16.6
			c2.7-6.2,4.9-13.1,6.6-20.8c0.7,2,1,4.2,1,6.4c0,4.5-1.4,9.8-4.3,15.7c-2.9,6-6.8,11.8-11.6,17.4c-7.2,8.3-12.9,12.4-16.9,12.4
			c-3.1,0-4.6-2.6-4.6-7.7c0-4.5,1.1-9.7,3.2-15.6c2.2-5.9,5-11.5,8.6-16.8c10.1-14.8,21.8-23.8,35.1-26.8l1.6-5.6l4.4-15.4
			c1.3-4.5,2-7.5,2-9.1c0.1-2.3-0.8-3.5-2.6-3.5c-1.1,0-2.2,0.4-3.5,1.1l-0.7-2.4l1-0.5C437.1,417.8,442.5,414.7,446.7,411.7z"/>
		<path class="st0" d="M465.8,487.4c0.6,1.5,0.9,2.9,0.9,4.1c0,5.2-2.7,11.2-8.1,18c-7.8,9.9-14.5,14.9-20,14.9
			c-4.7,0-7.1-3.6-7.1-10.8c0-8.2,1.9-16.7,5.6-25.7c3.7-9,8.4-16.4,14.2-22.2c7-7.1,13.3-10.6,18.8-10.6c3.2,0,4.8,1.6,4.8,4.7
			c0,2.1-0.8,4.6-2.3,7.5c-1.5,2.9-3.5,5.5-5.8,7.9c-2.1,2.1-4.9,4.1-8.2,5.9c-3.3,1.8-5.8,2.7-7.6,2.7c-1.9,0-3.2-1.4-3.9-4.2
			c1.7,0.3,3.1,0.5,4.1,0.5c4,0,7.8-1.6,11.2-4.7c3.4-3.1,5.1-6.5,5.1-10.1c0-2.6-1.3-3.9-3.8-3.9c-4.5,0-9.1,3.7-13.8,11.1
			c-3.3,5.2-6,11.3-8.2,18.3c-2.1,7-3.2,13.1-3.2,18.6c0,5.6,1.7,8.4,5.2,8.4c3.8,0,7.8-2.8,11.9-8.4
			C459.7,503.5,463.1,496.2,465.8,487.4z"/>
		<path class="st0" d="M503.7,411.4c0,6.6-3.3,19.9-9.8,39.9c-11.4,34.7-17.1,54.9-17.4,60.5c-0.1,2.4,0.6,3.6,2.2,3.5
			c1.2-0.1,3.3-1.7,6.2-4.8l0.7-0.7l1.2,2.1c-6.5,7.7-11.3,11.5-14.3,11.5c-2.4,0-3.6-2.3-3.6-6.8c0-3.5,0.8-8.5,2.5-14.8
			c1.7-6.4,5.7-19.8,12-40.2l5.8-18.6c3.5-11.1,5.2-17.6,5.2-19.5c0-1.5-0.6-2.2-1.9-2.2c-0.4,0-1.5,0.4-3.2,1.1
			c-0.2,0.1-0.5,0.2-0.9,0.4l-0.6-2.4l0.9-0.5C495.7,416.2,500.7,413.4,503.7,411.4z"/>
		<path class="st0" d="M638.8,448c-0.8,1.5-2.1,3.7-3.8,6.4c-0.8,1.4-2,3.5-3.7,6.3c-2.9,4.9-5.1,8.6-6.7,11.1
			c1.9-0.3,4.2-0.8,6.8-1.7l9.7-3.3c3.3-1.1,6.6-1.6,9.8-1.6c5.5,0,10.1,2.2,13.7,6.6c3.6,4.4,5.4,9.9,5.4,16.6c0,9.6-3,18-9.1,25.2
			c-6,7.2-13.1,10.8-21.1,10.8c-5.9,0-11.1-1.9-15.7-5.7c-4.6-3.8-10.4-11.2-17.6-22.1l-1.3,1.5c-15,17.7-28.7,26.5-41.2,26.5
			c-10.3,0-18.8-4.3-25.5-13c-6.7-8.7-10-19.6-10-32.9c0-14.6,4.1-26,12.4-34.4c6.5-6.6,13.7-9.9,21.7-9.9c6.6,0,12.8,3.1,18.7,9.4
			c3.7,4,10.3,13.6,19.7,28.9c3.1,5,5.7,9.2,8,12.7l1.4,2c2.2-2.7,3.9-4.9,5.1-6.8c-5.9-5.1-8.8-12.3-8.8-21.6
			c0-5.7,2.1-8.5,6.4-8.5c-2.6,4-3.9,7.7-3.9,11c0,3.2,0.9,5.7,2.9,7.8c1.9,2,4.3,3.1,7.3,3.1c0.3,0,0.9-0.1,1.8-0.2l0.4-0.6
			c2-3,5.3-8.3,9.7-15.8c4.4-7.5,7.3-12.6,8.7-15.2l2.1-4.1l1.1-2c0.2-0.3,0.4-0.8,0.8-1.6l2.1,0.9c-0.8,1.8-1.2,3.9-1.2,6.4
			c0,3.7,1.2,7.3,3.6,10.7c2.4,3.5,4.9,5.2,7.5,5.2c2.7,0,5-1.6,6.9-4.8c1.9-3.2,2.9-7.1,2.9-11.7c0-6.6-1.7-11.7-5.2-15.3
			c-3.5-3.6-8.5-5.3-15-5.3c-7,0-21.3,1.8-42.8,5.5c-9.7,1.7-16.9,2.5-21.6,2.5c-4.2,0-7.3-0.9-9.2-2.7l0.4-1.6
			c1.4-6.1,2.5-12,3.5-17.6l2.2,0.7c-0.4,2.3-0.6,4.2-0.6,5.7c0,3.7,2.8,5.5,8.4,5.5c3.4,0,10.1-0.9,20.1-2.7
			c19.7-3.5,33-5.2,40.2-5.2c7.6,0,13.5,2.1,17.7,6.4c4.2,4.3,6.3,10.3,6.3,18c0,12.6-4.4,21.7-13.2,27.1c-3.3,2.1-5.6,3.1-6.8,3.1
			C647.8,463.7,644,458.5,638.8,448z M605.1,494.3l-0.5-0.8c-2.4-3.6-5.5-8.6-9.2-14.8c-9.2-15.3-16.4-25.6-21.7-31
			c-5.3-5.4-10.8-8.1-16.6-8.1c-6.9,0-12.7,3.4-17.4,10.3c-4.7,6.9-7,15.4-7,25.6c0,11.7,3.6,21.8,10.7,30.4
			c7.1,8.6,15.6,12.8,25.3,12.8C579.9,518.7,592.1,510.5,605.1,494.3z M612.1,489.8c3.2,4.8,7.2,10.2,12.1,16.2
			c7,8.8,13.8,13.1,20.2,13.1c5.9,0,11-2.7,15.3-8.1c4.3-5.4,6.5-11.7,6.5-19c0-5.3-1.3-9.5-3.9-12.8c-2.6-3.3-5.9-4.9-10.1-4.9
			c-3.2,0-9.3,1.5-18.2,4.5c-5.5,1.8-9.7,2.8-12.7,2.8c-1,0-2-0.1-3-0.4c-0.3,0.4-0.5,0.7-0.6,0.9l-2.3,3.3l-2.6,3.5
			C612.7,489,612.5,489.3,612.1,489.8z"/>
		<path class="st0" d="M698.1,453.8v0.9c0,5.1-2.5,15.2-7.5,30.3l-4.5,13.7c-2.4,7.3-3.6,11.8-3.7,13.4c0,1.7,0.6,2.5,2.1,2.4
			c0.8-0.1,2.1-0.6,4-1.7l0.8,2.4c-6.4,4.1-11.4,7-15.2,8.7c0.2-5.1,0.8-9.8,1.9-14.1c1-4.3,3.3-11.5,6.7-21.5
			c4.4-12.8,6.6-20.3,6.7-22.5c0.1-1.7-0.4-2.5-1.6-2.5c-0.5,0-1.2,0.2-2.1,0.6L683,465c-0.2,0.1-0.5,0.2-1.2,0.6l-0.6-2.6l1.3-0.6
			c4.5-2.2,9.1-4.7,13.7-7.5L698.1,453.8z M701.6,432.9c1.9,0,2.8,1.3,2.8,3.8c0,1.4-0.4,2.7-1.2,3.8s-1.8,1.7-2.8,1.7
			c-1.9,0-2.9-1.2-2.9-3.7c0-1.4,0.4-2.7,1.2-3.8C699.6,433.5,700.5,432.9,701.6,432.9z"/>
		<path class="st0" d="M729,457.5l-0.5,2.5h-9.8l-16.5,62.6c-1.6,0-2.6,0.2-3.2,0.7c-0.5,0.5-1.1,1.8-1.8,3.9
			c-3.4,10.6-6.2,18.3-8.5,23c-2.7,5.7-5.7,10.2-9.2,13.5c-3.5,3.4-6.7,5.1-9.7,5.1c-1.7,0-3-0.6-4.2-1.7c-1.1-1.1-1.7-2.6-1.7-4.3
			c0-0.5,0.1-1.3,0.3-2.4c2.2,0.7,4.3,1.1,6.3,1.1c7.1,0,12.7-4.5,16.8-13.4c4.1-8.9,10.3-29.8,18.4-62.5l5.6-22.8l0.7-2.8h-6.7
			l0.7-2.3c0.4,0,0.7,0,0.7,0l1.7-0.2c2.9,0,5.2-2.8,7-8.3c2.4-7.3,5.1-13.2,8.1-17.6c3-4.4,7.2-8.7,12.7-12.9
			c5.9-4.5,10.8-6.8,14.7-6.8c2.8,0,4.1,0.8,4.1,2.4c0,0.7-0.4,2.4-1.2,5.3l-2.9,11.3h-1.9c0.8-3.3,1.2-5.8,1.2-7.6
			c0-2.8-1.9-4.2-5.6-4.2c-5.5,0-10.1,2.7-13.8,8.1c-3.7,5.4-7.3,14.7-10.9,27.9l-0.5,2.1H729z"/>
		<path class="st0" d="M753,487.4c0.6,1.5,0.9,2.9,0.9,4.1c0,5.2-2.7,11.2-8.1,18c-7.8,9.9-14.5,14.9-20,14.9
			c-4.7,0-7.1-3.6-7.1-10.8c0-8.2,1.9-16.7,5.6-25.7c3.7-9,8.4-16.4,14.2-22.2c7-7.1,13.3-10.6,18.8-10.6c3.2,0,4.8,1.6,4.8,4.7
			c0,2.1-0.8,4.6-2.3,7.5c-1.5,2.9-3.5,5.5-5.8,7.9c-2.1,2.1-4.9,4.1-8.2,5.9c-3.3,1.8-5.8,2.7-7.6,2.7c-1.9,0-3.2-1.4-3.9-4.2
			c1.7,0.3,3.1,0.5,4.1,0.5c4,0,7.8-1.6,11.2-4.7c3.4-3.1,5.1-6.5,5.1-10.1c0-2.6-1.3-3.9-3.8-3.9c-4.5,0-9.1,3.7-13.8,11.1
			c-3.3,5.2-6,11.3-8.2,18.3c-2.1,7-3.2,13.1-3.2,18.6c0,5.6,1.7,8.4,5.2,8.4c3.8,0,7.8-2.8,11.9-8.4
			C746.9,503.5,750.3,496.2,753,487.4z"/>
	</g>
	<g>
		<g>
			<path class="st0" d="M713.4,544.8h1.3l3,9.5l3-9.5h1.3v11.2h-0.8V546l-3.1,9.9h-0.7l-3.1-9.9v9.9h-0.8V544.8z"/>
			<path class="st0" d="M723.8,544.8h2c0.1,0,0.3,0,0.4,0c0.1,0,0.3,0,0.4,0c0.3,0,0.5,0.1,0.8,0.1c0.3,0.1,0.5,0.2,0.7,0.4
				c0.4,0.3,0.7,0.8,1,1.3c0.2,0.5,0.3,1.1,0.3,1.8c0,0.9-0.2,1.7-0.7,2.3c-0.5,0.6-1.1,1-1.7,1l2.3,4.1h-1l-2.8-5.1h0.2
				c0,0,0,0,0.1,0c0,0,0,0,0.1,0c0.1,0,0.2,0,0.3,0c0.1,0,0.2,0,0.3,0c0.2,0,0.4,0,0.5-0.1c0.2,0,0.3-0.1,0.5-0.2
				c0.3-0.2,0.6-0.5,0.8-0.9c0.2-0.4,0.3-0.9,0.3-1.3c0,0,0,0,0-0.1c0,0,0,0,0,0c0-0.4-0.1-0.7-0.2-1.1c-0.1-0.3-0.3-0.6-0.5-0.8
				c-0.2-0.2-0.5-0.4-0.8-0.4c-0.3-0.1-0.5-0.1-0.8-0.1c-0.1,0-0.1,0-0.2,0c0,0-0.1,0-0.2,0h-1.3v10.1h-0.8V544.8z"/>
		</g>
		<g>
			<path class="st0" d="M720.8,563.1c-6.6,0-11.9-5.4-11.9-12.1s5.3-12.1,11.9-12.1c6.6,0,11.9,5.4,11.9,12.1
				S727.4,563.1,720.8,563.1z M720.8,539.8c-6.1,0-11,5-11,11.2s4.9,11.2,11,11.2c6.1,0,11-5,11-11.2S726.9,539.8,720.8,539.8z"/>
		</g>
	</g>
</g>
</svg>
