<?xml version="1.0" encoding="UTF-8" standalone="no"?>
<svg
   xmlns:dc="http://purl.org/dc/elements/1.1/"
   xmlns:cc="http://creativecommons.org/ns#"
   xmlns:rdf="http://www.w3.org/1999/02/22-rdf-syntax-ns#"
   xmlns:svg="http://www.w3.org/2000/svg"
   xmlns="http://www.w3.org/2000/svg"
   viewBox="0 0 329.66251 198.78751"
   height="198.78751"
   width="329.66251"
   xml:space="preserve"
   version="1.1"
   id="svg2"><metadata
     id="metadata8"><rdf:RDF><cc:Work
         rdf:about=""><dc:format>image/svg+xml</dc:format><dc:type
           rdf:resource="http://purl.org/dc/dcmitype/StillImage" /></cc:Work></rdf:RDF></metadata><defs
     id="defs6" /><g
     transform="matrix(1.25,0,0,-1.25,0,198.7875)"
     id="g10"><g
       transform="scale(0.1,0.1)"
       id="g12"><path
         id="path14"
         style="fill:#2d1b14;fill-opacity:1;fill-rule:nonzero;stroke:none"
         d="m 2432.6,100.23 c 0,0 -5.84,0 -5.84,5.852 l 0,50.438 c 0,0 0,5.851 5.84,5.851 l 176.45,0 c 0,0 5.84,0 5.84,5.84 l 0,73.98 c 0,0 0,5.86 -5.84,5.86 l -176.45,0 c 0,0 -5.84,0 -5.84,5.84 l 0,47.64 c 0,0 0,5.86 5.84,5.86 l 196.05,0 c 0,0 5.85,0 5.85,5.859 l 0,80.68 c 0,0 0,5.859 -5.85,5.859 l -303.54,0 c 0,0 -5.85,0 -5.85,-5.859 l 0,-380.2503 c 0,0 0,-5.84767 5.85,-5.84767 l 306.34,0 c 0,0 5.83,0 5.83,5.84767 l 0,80.6992 c 0,0 0,5.8511 -5.83,5.8511 l -198.85,0 z M 2054.39,13.6797 c 0,0 0,-5.84767 5.84,-5.84767 l 97.5,0 c 0,0 5.84,0 5.84,5.84767 l 0,380.2503 c 0,0 0,5.859 -5.84,5.859 l -97.5,0 c 0,0 -5.84,0 -5.84,-5.859 l 0,-380.2503 z m -142.24,191.2423 0,1.129 c 0,113.109 -81.21,193.738 -221.19,193.738 l -145.32,0 c 0,0 -5.85,0 -5.85,-5.859 l 0,-380.2503 c 0,0 0,-5.84767 5.85,-5.84767 l 143.08,0 c 141.1,0 223.43,83.97657 223.43,197.08997 m -111.43,-1.684 c 0,-63.269 -43.11,-99.09 -108.06,-99.09 l -38.39,0 c 0,0 -5.85,0 -5.85,5.84 l 0,187.621 c 0,0 0,5.852 5.85,5.852 l 38.39,0 c 64.95,0 108.06,-36.379 108.06,-99.102 l 0,-1.121 z M 1299.02,13.25 c 0,0 2.21,-5.41797 8.07,-5.41797 l 104.75,0 c 0,0 5.84,0 3.57,5.38677 L 1253.12,397.191 c 0,0 -2.28,5.399 -8.14,5.399 l -93.01,0 c 0,0 -5.84,0 -8.11,-5.399 L 981.563,13.2188 c 0,0 -2.278,-5.38677 3.574,-5.38677 l 102.503,0 c 0,0 5.84,0 8.02,5.43747 l 23.67,59.1211 c 0,0 2.17,5.4297 8.01,5.4297 l 139.49,0 c 0,0 5.85,0 8.06,-5.4101 L 1299.02,13.25 Z m -59.85,154.559 c 0,0 2.14,-5.438 -3.71,-5.438 l -76.18,0 c 0,0 -5.86,0 -3.7,5.438 l 39.92,100.543 c 0,0 2.16,5.437 4.29,0 l 39.38,-100.543 z m -343.818,35.992 0,1.121 c 0,112.558 -89.582,202.699 -210.539,202.699 -120.946,0 -211.649,-91.262 -211.649,-203.82 l 0,-1.121 C 473.164,90.1406 562.742,0 683.699,0 804.648,0 895.352,91.2617 895.352,203.801 M 784.473,202.68 c 0,-56.539 -39.746,-104.6917 -99.66,-104.6917 -59.344,0 -100.223,49.2617 -100.223,105.8127 l 0,1.121 c 0,56.558 39.746,104.719 99.109,104.719 59.895,0 100.774,-49.282 100.774,-105.84 l 0,-1.121 z M 360.586,7.83203 l 0,0 L 267.09,144.461 c 48.699,20.699 80.613,60.461 80.613,120.371 l 0,1.117 c 0,38.641 -11.765,68.883 -34.695,91.281 -26.328,26.879 -67.766,42.559 -127.676,42.559 l -179.48044,0 c 0,0 -5.85156,0 -5.85156,-5.859 L 0,13.6797 c 0,0 0,-5.84767 5.85156,-5.84767 l 96.91444,0 c 0,0 5.847,0 5.847,5.84767 l 0,107.0113 c 0,0 0,5.848 5.84,5.848 l 41.192,0 c 0,0 0.554,0 3.796,-4.867 L 231.926,12.6992 c 0,0 3.238,-4.86717 9.082,-4.86717 l 119.578,0 z M 238.523,258.121 c 0,-28.562 -21.277,-46.473 -58.242,-46.473 l -65.828,0 c 0,0 -5.84,0 -5.84,5.852 l 0,82.352 c 0,0 0,5.859 5.84,5.859 l 65.281,0 c 36.399,0 58.789,-15.66 58.789,-46.473 l 0,-1.117" /><path
         id="path16"
         style="fill:#45c0b8;fill-opacity:1;fill-rule:nonzero;stroke:none"
         d="m 1324.38,596.688 c -274.39,0 -496.829,222.429 -496.829,496.832 0,274.39 222.439,496.81 496.829,496.81 274.39,0 496.82,-222.42 496.82,-496.81 0,-274.403 -222.43,-496.832 -496.82,-496.832" /><path
         id="path18"
         style="fill:#2d1b14;fill-opacity:1;fill-rule:nonzero;stroke:none"
         d="m 1416.06,1160.24 c 0,-35.1 -26.14,-57.1 -71.55,-57.1 l -80.88,0 c 0,0 -7.17,0 -7.17,7.19 l 0,101.18 c 0,0 0,7.2 7.17,7.2 l 80.21,0 c 44.71,0 72.22,-19.25 72.22,-57.1 l 0,-1.37 z m 125.35,19.29 c 0,0 16.25,144.2 -190.7,144.2 l -220.53,0 c 0,0 -7.17,0 -7.17,-7.2 l 0,-213.39 -295.217,0 c -0.059,-3.21 -0.242,-6.39 -0.242,-9.62 0,-11.66 0.547,-23.18 1.336,-34.63 l 588.143,0 c 71.1,0 124.38,36.97 124.38,120.64" /><path
         id="path20"
         style="fill:#2d1b14;fill-opacity:1;fill-rule:nonzero;stroke:none"
         d="m 1130.18,852.723 119.09,0 c 0,0 7.19,0 7.19,7.187 l 0,131.465 c 0,0 0.03,5.215 4.5,6.75 l 53.81,0 c 0.56,-0.551 1.68,-1.863 4.14,-5.539 l 89.05,-133.875 c 0,0 3.97,-5.988 11.16,-5.988 l 146.92,0 -115.34,159.577 c -0.02,0.03 -0.04,0.06 -0.06,0.09 l -4.64,6.43 c -17.41,21.37 -42.78,23.41 -49.38,23.55 l -566.464,0 c 1.532,-14.96 3.809,-29.71 6.641,-44.245 l 286.213,0 0,-138.215 c 0,0 0,-7.187 7.17,-7.187" /></g></g></svg>