<?xml version="1.0" encoding="utf-8"?><!-- Generator: Adobe Illustrator 16.0.0, SVG Export Plug-In . SVG Version: 6.00 Build 0) --><!DOCTYPE svg PUBLIC "-//W3C//DTD SVG 1.1//EN" "http://www.w3.org/Graphics/SVG/1.1/DTD/svg11.dtd"><svg version="1.1" id="svg3671" xmlns:cc="http://creativecommons.org/ns#" xmlns:dc="http://purl.org/dc/elements/1.1/" xmlns:svg="http://www.w3.org/2000/svg" xmlns:rdf="http://www.w3.org/1999/02/22-rdf-syntax-ns#" xmlns="http://www.w3.org/2000/svg" xmlns:xlink="http://www.w3.org/1999/xlink" x="0px" y="0px" width="339.266px" height="319.582px" viewBox="6.525 7.459 339.266 319.582" enable-background="new 6.525 7.459 339.266 319.582" xml:space="preserve"><g id="layer1" transform="translate(-328.50774,-40.933616)"><g id="g2384" transform="matrix(1.0844784,0,0,1.1092381,-28.277611,-37.042263)"><g><path id="rect2245_1_" fill="#FFA500" d="M395.013,80.439h192.832c31.208,0,56.508,23.243,56.508,51.915v177.159	c0,28.672-25.299,51.915-56.508,51.915H395.013c-31.208,0-56.507-23.243-56.507-51.915V132.354	C338.506,103.682,363.805,80.439,395.013,80.439z"/><path d="M587.844,364.846H395.013c-33.086,0-60.003-24.822-60.003-55.333V132.354c0-30.511,26.917-55.333,60.003-55.333h192.832	c33.086,0,60.003,24.822,60.003,55.333v177.159C647.848,340.024,620.93,364.846,587.844,364.846z M395.013,83.857	c-29.23,0-53.011,21.755-53.011,48.497v177.159c0,26.741,23.78,48.497,53.011,48.497h192.832	c29.231,0,53.012-21.756,53.012-48.497V132.354c0-26.741-23.781-48.497-53.012-48.497H395.013z"/></g><path id="path18" d="M446.49,128.006l58.069,0.134c12.136-0.089,21.198,1.805,27.184,5.682	c7.31,4.753,10.963,12.931,10.963,24.533c0,19.104-9.062,29.926-27.185,32.466v0.268c7.992,1.946,12.032,8.415,12.122,19.408	c0,5.63-0.215,12.842-0.646,21.636c0,5.898,1.277,11,3.833,15.308h-31.82c-1.486-1.575-2.228-4.783-2.228-9.626	c0.608-8.096,0.913-14.737,0.913-19.921c0-10.473-5.147-15.709-15.442-15.709h-20.589l-8.98,42.359H421.69L446.49,128.006z M495.579,152.294h-22.817l-5.95,28.12h24.689c13.801,0,20.745-5.325,20.835-15.976	C512.337,156.342,506.75,152.294,495.579,152.294z"/><path id="path20" d="M535.042,247.307l22.974-38.928l6.194,39.196h39.195l-35.362,24.823l5.661,38.928l-30.617-23.486	l-41.156,24.422l19.252-41.446l-22.438-23.62L535.042,247.307z"/><path id="flowRoot3616" d="M639.763,349.978c1.272,0,2.514,0.326,3.726,0.979c1.212,0.652,2.156,1.586,2.831,2.802	c0.677,1.215,1.015,2.482,1.015,3.801c0,1.306-0.333,2.561-1,3.765c-0.666,1.206-1.601,2.141-2.802,2.808	c-1.201,0.666-2.458,0.999-3.771,0.999c-1.311,0-2.568-0.334-3.771-0.999c-1.202-0.667-2.137-1.601-2.807-2.808	c-0.669-1.204-1.004-2.46-1.004-3.765c0-1.319,0.34-2.586,1.02-3.801c0.68-1.215,1.625-2.149,2.837-2.802	C637.25,350.303,638.492,349.978,639.763,349.978L639.763,349.978z M639.763,351.232c-1.064,0-2.1,0.273-3.108,0.819	c-1.007,0.546-1.795,1.325-2.365,2.339c-0.569,1.015-0.854,2.071-0.854,3.168c0,1.092,0.28,2.138,0.838,3.139	c0.559,1,1.341,1.78,2.345,2.34c1.004,0.558,2.051,0.838,3.143,0.838c1.091,0,2.14-0.28,3.144-0.838	c1.004-0.56,1.784-1.34,2.339-2.34c0.556-1.001,0.834-2.047,0.834-3.139c0-1.098-0.284-2.153-0.849-3.168	c-0.565-1.014-1.354-1.793-2.365-2.339C641.856,351.505,640.822,351.232,639.763,351.232L639.763,351.232z M636.44,361.747v-8.154	h2.801c0.958,0,1.65,0.075,2.079,0.225c0.429,0.151,0.77,0.414,1.024,0.789c0.255,0.375,0.382,0.773,0.382,1.195	c0,0.596-0.212,1.115-0.638,1.556c-0.425,0.442-0.989,0.689-1.692,0.743c0.287,0.121,0.519,0.265,0.692,0.432	c0.329,0.321,0.73,0.86,1.205,1.616l0.994,1.597h-1.606l-0.722-1.285c-0.569-1.01-1.028-1.644-1.376-1.898	c-0.241-0.188-0.593-0.282-1.055-0.282h-0.773v3.465H636.44z M637.755,357.157h1.597c0.764,0,1.284-0.114,1.562-0.342	c0.277-0.227,0.416-0.529,0.416-0.904c0-0.24-0.067-0.456-0.201-0.647c-0.134-0.191-0.319-0.333-0.557-0.427	c-0.238-0.093-0.677-0.141-1.32-0.141h-1.497V357.157z"/><path id="path3659" fill="#FFFFFF" d="M561.826,269.612l23.486-16.355H559.33l-4.501-28.366L538.34,252.99h-26.249l15.954,16.756	l-13.191,28.121l28.633-16.89l22.573,17.292L561.826,269.612z"/></g></g></svg>