<?xml version="1.0" encoding="UTF-8"?>
<!-- Generator: Adobe Illustrator 15.0.0, SVG Export Plug-In . SVG Version: 6.00 Build 0)  -->
<!DOCTYPE svg PUBLIC "-//W3C//DTD SVG 1.1//EN" "http://www.w3.org/Graphics/SVG/1.1/DTD/svg11.dtd">
<svg version="1.1" id="svg3671" sodipodi:version="0.32" inkscape:version="0.45+0.46pre3+devel" sodipodi:docname="Rockstar_logo.svg" inkscape:output_extension="org.inkscape.output.svg.inkscape" xmlns:dc="http://purl.org/dc/elements/1.1/" xmlns:cc="http://creativecommons.org/ns#" xmlns:rdf="http://www.w3.org/1999/02/22-rdf-syntax-ns#" xmlns:svg="http://www.w3.org/2000/svg" xmlns:sodipodi="http://sodipodi.sourceforge.net/DTD/sodipodi-0.dtd" xmlns:inkscape="http://www.inkscape.org/namespaces/inkscape" xmlns="http://www.w3.org/2000/svg" xmlns:xlink="http://www.w3.org/1999/xlink" x="0px" y="0px" width="325.842px" height="300px" viewBox="0 0 325.842 300" enable-background="new 0 0 325.842 300" xml:space="preserve">
<defs>
	
	
		<inkscape:perspective id="perspective3679" inkscape:persp3d-origin="372.04724 : 350.78739 : 1" inkscape:vp_z="744.09448 : 526.18109 : 1" inkscape:vp_y="0 : 1000 : 0" inkscape:vp_x="0 : 526.18109 : 1" sodipodi:type="inkscape:persp3d">
		</inkscape:perspective>
</defs>
<sodipodi:namedview id="base" inkscape:window-y="18" inkscape:window-x="35" inkscape:window-height="667" inkscape:window-width="924" inkscape:current-layer="layer1" inkscape:document-units="px" inkscape:pageshadow="2" inkscape:pageopacity="0.0" showgrid="false" objecttolerance="10" guidetolerance="10" gridtolerance="10000" borderopacity="1.0" inkscape:cy="113.19557" bordercolor="#666666" inkscape:cx="230.69619" pagecolor="#ffffff" inkscape:zoom="0.7">
	</sodipodi:namedview>
<g id="layer1" transform="translate(-328.50774,-70.933616)" inkscape:groupmode="layer" inkscape:label="Layer 1">
	<g id="g2384">
		<path id="rect2245" fill="#FF0000" stroke="#000000" stroke-width="7.5827" d="M395.013,80.439h192.832    c31.208,0,56.507,23.243,56.507,51.915v177.16c0,28.672-25.299,51.914-56.507,51.914H395.013    c-31.208,0-56.507-23.242-56.507-51.914v-177.16C338.506,103.682,363.805,80.439,395.013,80.439z"/>
		<path id="path18" d="M446.49,128.006l58.069,0.133c12.137-0.089,21.197,1.805,27.185,5.682    c7.309,4.754,10.963,12.932,10.963,24.533c0,19.104-9.062,29.926-27.185,32.466v0.267c7.992,1.946,12.032,8.416,12.121,19.408    c0,5.63-0.215,12.843-0.646,21.637c0,5.897,1.277,11,3.833,15.309h-31.82c-1.485-1.575-2.229-4.783-2.229-9.627    c0.609-8.096,0.914-14.736,0.914-19.92c0-10.473-5.147-15.709-15.442-15.709h-20.589l-8.98,42.36h-30.996L446.49,128.006z     M495.579,152.294h-22.817l-5.949,28.121h24.689c13.8,0,20.746-5.326,20.834-15.977    C512.336,156.342,506.751,152.294,495.579,152.294z"/>
		<path id="path20" d="M535.042,247.308l22.974-38.928l6.194,39.195h39.195l-35.363,24.823l5.66,38.929l-30.616-23.486    l-41.156,24.422l19.253-41.446l-22.439-23.62L535.042,247.308z"/>
		<path id="flowRoot3616" d="M639.764,349.978c1.271,0,2.514,0.326,3.726,0.979c1.211,0.652,2.155,1.586,2.832,2.801    c0.676,1.215,1.014,2.482,1.014,3.801c0,1.307-0.333,2.561-0.999,3.766s-1.601,2.141-2.802,2.808    c-1.201,0.666-2.459,0.999-3.771,0.999c-1.313,0-2.569-0.333-3.771-0.999c-1.202-0.667-2.138-1.603-2.807-2.808    c-0.67-1.205-1.005-2.459-1.005-3.766c0-1.318,0.34-2.586,1.02-3.801c0.679-1.215,1.625-2.148,2.837-2.801    C637.249,350.304,638.491,349.978,639.764,349.978L639.764,349.978z M639.764,351.232c-1.064,0-2.101,0.273-3.108,0.818    c-1.008,0.546-1.796,1.326-2.365,2.34c-0.568,1.015-0.854,2.07-0.854,3.168c0,1.092,0.279,2.138,0.839,3.139    s1.341,1.781,2.345,2.34s2.053,0.838,3.144,0.838s2.139-0.279,3.144-0.838c1.004-0.559,1.783-1.339,2.339-2.34    s0.833-2.047,0.834-3.139c-0.001-1.098-0.283-2.153-0.849-3.168c-0.566-1.014-1.354-1.794-2.365-2.34    C641.855,351.506,640.821,351.232,639.764,351.232L639.764,351.232z M636.439,361.746v-8.153h2.802    c0.957,0,1.65,0.075,2.078,0.226c0.43,0.15,0.771,0.414,1.025,0.789c0.254,0.374,0.381,0.772,0.381,1.194    c0,0.596-0.213,1.114-0.638,1.557s-0.989,0.689-1.692,0.743c0.289,0.12,0.52,0.264,0.693,0.432c0.328,0.321,0.73,0.86,1.205,1.617    l0.994,1.596h-1.606l-0.724-1.285c-0.568-1.011-1.027-1.643-1.375-1.897c-0.241-0.188-0.593-0.281-1.055-0.281h-0.773v3.464    H636.439z M637.755,357.157h1.597c0.763,0,1.284-0.114,1.562-0.341c0.277-0.229,0.417-0.529,0.417-0.904    c0-0.24-0.067-0.457-0.201-0.647s-0.319-0.333-0.558-0.427c-0.237-0.094-0.678-0.141-1.32-0.141h-1.496V357.157z"/>
		<path id="path3659" fill="#FFFFFF" d="M561.825,269.612l23.486-16.355H559.33l-4.501-28.366l-16.489,28.099h-26.249l15.954,16.757    l-13.19,28.121l28.633-16.891l22.572,17.291L561.825,269.612z"/>
	</g>
</g>
</svg>