<?xml version="1.0" encoding="UTF-8" standalone="no"?>
<!-- Created with Inkscape (http://www.inkscape.org/) -->
<svg
   xmlns:dc="http://purl.org/dc/elements/1.1/"
   xmlns:cc="http://creativecommons.org/ns#"
   xmlns:rdf="http://www.w3.org/1999/02/22-rdf-syntax-ns#"
   xmlns:svg="http://www.w3.org/2000/svg"
   xmlns="http://www.w3.org/2000/svg"
   xmlns:sodipodi="http://sodipodi.sourceforge.net/DTD/sodipodi-0.dtd"
   xmlns:inkscape="http://www.inkscape.org/namespaces/inkscape"
   width="325.84167"
   height="300"
   id="svg3671"
   sodipodi:version="0.32"
   inkscape:version="0.45+0.46pre3+devel"
   version="1.0"
   sodipodi:docname="Rockstar_Leeds_logo.svg"
   inkscape:output_extension="org.inkscape.output.svg.inkscape">
  <defs
     id="defs3673">
    <inkscape:perspective
       sodipodi:type="inkscape:persp3d"
       inkscape:vp_x="0 : 526.18109 : 1"
       inkscape:vp_y="0 : 1000 : 0"
       inkscape:vp_z="744.09448 : 526.18109 : 1"
       inkscape:persp3d-origin="372.04724 : 350.78739 : 1"
       id="perspective3679" />
  </defs>
  <sodipodi:namedview
     id="base"
     pagecolor="#ffffff"
     bordercolor="#666666"
     borderopacity="1.0"
     gridtolerance="10000"
     guidetolerance="10"
     objecttolerance="10"
     inkscape:pageopacity="0.0"
     inkscape:pageshadow="2"
     inkscape:zoom="0.7"
     inkscape:cx="101.34362"
     inkscape:cy="126.73469"
     inkscape:document-units="px"
     inkscape:current-layer="layer1"
     showgrid="false"
     inkscape:window-width="924"
     inkscape:window-height="667"
     inkscape:window-x="35"
     inkscape:window-y="18" />
  <metadata
     id="metadata3676">
    <rdf:RDF>
      <cc:Work
         rdf:about="">
        <dc:format>image/svg+xml</dc:format>
        <dc:type
           rdf:resource="http://purl.org/dc/dcmitype/StillImage" />
      </cc:Work>
    </rdf:RDF>
  </metadata>
  <g
     inkscape:label="Layer 1"
     inkscape:groupmode="layer"
     id="layer1"
     transform="translate(-328.50774,-70.933616)">
    <g
       id="g2384">
      <rect
         ry="51.914581"
         rx="56.50713"
         y="80.439255"
         x="338.50562"
         height="280.98871"
         width="305.84595"
         id="rect2245"
         style="fill:#ffffff;fill-opacity:1;stroke:#005da9;stroke-width:7.58270692999999870;stroke-miterlimit:4;stroke-dasharray:none;stroke-opacity:1" />
      <path
         style="fill:#005da9;fill-opacity:1;stroke-linecap:round;stroke-linejoin:round"
         id="path18"
         d="M 446.49031,128.00565 L 504.55911,128.13934 C 516.69577,128.05022 525.75741,129.94425 531.74404,133.82145 C 539.05276,138.57509 542.70714,146.75285 542.70714,158.35472 C 542.70714,177.45846 533.64549,188.28044 515.52221,190.82066 L 515.52221,191.08805 C 523.51429,193.03408 527.55488,199.5035 527.64402,210.49632 C 527.64402,216.12641 527.42861,223.33859 526.99782,232.13285 C 526.99782,238.03034 528.27536,243.13308 530.83044,247.44108 L 499.01071,247.44108 C 497.5252,245.86643 496.78244,242.65771 496.78244,237.81494 C 497.39149,229.71888 497.69602,223.07862 497.69602,217.89418 C 497.69602,207.4213 492.54872,202.18485 482.2541,202.18485 L 461.66485,202.18485 L 452.68491,244.54432 L 421.68964,244.54432 L 446.49031,128.00565 z M 495.57917,152.29383 L 472.76165,152.29383 L 466.81217,180.41463 L 491.50142,180.41463 C 505.30187,180.41463 512.24665,175.08906 512.33578,164.43791 C 512.33578,156.34185 506.75024,152.29383 495.57917,152.29383 z" />
      <path
         id="path20"
         d="M 535.04188,247.30738 L 558.01537,208.37945 L 564.20997,247.57477 L 603.40529,247.57477 L 568.0426,272.39774 L 573.70241,311.32566 L 543.08594,287.83967 L 501.92974,312.26153 L 521.18203,270.81566 L 498.74332,247.19597 L 535.04188,247.30738 z"
         style="fill:#005da9;fill-opacity:1;stroke-linecap:round;stroke-linejoin:round" />
      <path
         id="flowRoot3616"
         d="M 639.76336,349.97742 C 641.03534,349.97743 642.27719,350.3038 643.48893,350.95651 C 644.70065,351.60926 645.64459,352.54315 646.32077,353.75822 C 646.99691,354.97331 647.33499,356.24026 647.335,357.5591 C 647.33499,358.86456 647.00193,360.11981 646.33583,361.32484 C 645.6697,362.52988 644.7358,363.46545 643.53412,364.13156 C 642.33242,364.79768 641.0755,365.13074 639.76336,365.13074 C 638.4512,365.13074 637.19429,364.79768 635.9926,364.13156 C 634.79091,363.46545 633.85535,362.52988 633.18588,361.32484 C 632.51641,360.11981 632.18168,358.86456 632.18168,357.5591 C 632.18168,356.24026 632.52143,354.97331 633.20094,353.75822 C 633.88044,352.54315 634.82606,351.60926 636.03779,350.95651 C 637.24951,350.3038 638.49137,349.97743 639.76336,349.97742 L 639.76336,349.97742 z M 639.76336,351.23267 C 638.69891,351.23268 637.66291,351.50549 636.65538,352.05109 C 635.64783,352.59671 634.85954,353.37664 634.2905,354.39086 C 633.72145,355.40511 633.43693,356.46119 633.43693,357.5591 C 633.43693,358.65033 633.71643,359.69637 634.27543,360.69722 C 634.83443,361.69807 635.61603,362.47799 636.62023,363.03699 C 637.62442,363.596 638.67213,363.8755 639.76336,363.8755 C 640.85459,363.8755 641.90228,363.596 642.90649,363.03699 C 643.91068,362.47799 644.69061,361.69807 645.24627,360.69722 C 645.80191,359.69637 646.07974,358.65033 646.07976,357.5591 C 646.07974,356.46119 645.79689,355.40511 645.23121,354.39086 C 644.6655,353.37664 643.87721,352.59671 642.86633,352.05109 C 641.85543,351.50549 640.8211,351.23268 639.76336,351.23267 L 639.76336,351.23267 z M 636.43947,361.7466 L 636.43947,353.59253 L 639.24118,353.59253 C 640.19851,353.59254 640.8914,353.66785 641.31987,353.81847 C 641.74831,353.96912 642.08974,354.23188 642.34415,354.60676 C 642.59853,354.98168 642.72573,355.38001 642.72574,355.80176 C 642.72573,356.39759 642.51317,356.91642 642.08808,357.35826 C 641.66295,357.80011 641.09893,358.04781 640.39601,358.10137 C 640.68387,358.22188 640.91483,358.36581 641.0889,358.53317 C 641.41694,358.85453 641.81861,359.39344 642.29393,360.14992 L 643.28809,361.7466 L 641.68137,361.7466 L 640.95836,360.46123 C 640.3893,359.45035 639.93072,358.8177 639.58261,358.5633 C 639.34159,358.37585 638.99013,358.28212 638.5282,358.28212 L 637.75497,358.28212 L 637.75497,361.7466 L 636.43947,361.7466 z M 637.75497,357.15743 L 639.35165,357.15743 C 640.11483,357.15743 640.63533,357.04362 640.91317,356.816 C 641.19099,356.58838 641.3299,356.28713 641.32991,355.91221 C 641.3299,355.67122 641.26295,355.45532 641.12907,355.26451 C 640.99517,355.07373 640.8094,354.93146 640.57174,354.83774 C 640.33407,354.74402 639.8939,354.69715 639.25122,354.69714 L 637.75497,354.69714 L 637.75497,357.15743 z"
         style="font-size:40px;font-style:normal;font-weight:normal;fill:#005da9;fill-opacity:1;stroke:none;stroke-width:1px;stroke-linecap:butt;stroke-linejoin:miter;stroke-opacity:1;font-family:Bitstream Vera Sans" />
      <path
         id="path3659"
         d="M 561.82572,269.6124 L 585.31172,253.25687 L 559.33006,253.25687 L 554.82894,224.89095 L 538.33972,252.98947 L 512.09067,252.98947 L 528.0451,269.74609 L 514.85373,297.8669 L 543.48704,280.97658 L 566.05944,298.26798 L 561.82572,269.6124 z"
         style="fill:#ffffff;fill-opacity:1;stroke-linecap:round;stroke-linejoin:round" />
    </g>
  </g>
</svg>
