<?xml version="1.0" encoding="UTF-8" standalone="no"?>
<svg width="1506px" height="483px" viewBox="0 0 1506 483" version="1.1" xmlns="http://www.w3.org/2000/svg" xmlns:xlink="http://www.w3.org/1999/xlink" xmlns:sketch="http://www.bohemiancoding.com/sketch/ns">
    <!-- Generator: Sketch 3.5.2 (25235) - http://www.bohemiancoding.com/sketch -->
    <title>Rotten Tomatoes</title>
    <desc>Created with Sketch.</desc>
    <defs></defs>
    <g id="Page-1" stroke="none" stroke-width="1" fill="none" fill-rule="evenodd" sketch:type="MSPage">
        <g id="Rotten-Tomatoes" sketch:type="MSLayerGroup" transform="translate(-15.000000, -14.000000)">
            <g id="g943" transform="translate(0.718475, 0.018231)" sketch:type="MSShapeGroup">
                <g id="g848" transform="translate(768.000000, 253.490196) scale(1, -1) translate(-768.000000, -253.490196) translate(0.000000, 0.000000)">
                    <g id="g850-Clipped" transform="translate(0.000000, 0.000000)">
                        <g id="g850" transform="translate(0.344365, 4.496093)">
                            <g id="g856" transform="translate(3.326717, 5.630056)" fill="#110F0D">
                                <path d="M1061.71822,280.175642 L1052.70836,280.175642 L1052.53141,329.840461 L1061.71822,329.648761 L1061.71822,280.175642 L1061.71822,280.175642 Z M981.160351,197.877733 C985.83486,187.702934 991.895502,168.99015 971.531156,152.754709 C969.879595,143.951295 970.4252,134.867706 970.4252,133.76175 C964.364558,134.867706 938.499923,133.76175 934.651194,134.041925 C933.043871,134.159894 931.348071,135.693487 929.150904,112.851799 L926.938991,112.851799 L927.499342,153.58049 C927.499342,153.58049 956.386926,154.126095 964.92491,154.126095 C970.15977,165.687027 973.728323,168.444545 975.099709,194.854786 C976.485841,221.265026 981.160351,234.21209 967.947857,233.386309 C957.522374,232.737482 937.128537,233.386309 932.454027,233.386309 L931.628247,275.766562 C931.628247,275.766562 987.486422,284.02437 988.592378,325.564096 C989.137984,290.335695 988.061519,262.922721 993.266888,255.38747 C995.74423,251.818917 997.115616,250.712961 1004.00204,250.712961 C999.976357,247.542552 996.00966,245.492846 992.721283,241.644118 C992.95722,238.28201 998.487002,234.21209 1004.82782,225.128501 C997.941397,217.431044 983.637693,208.332709 981.160351,197.877733 L981.160351,197.877733 Z M881.521045,278.007967 C878.527589,269.897619 864.01744,234.919902 862.306894,230.658283 C855.907093,230.658283 842.42917,229.861995 838.418234,229.375374 C831.590796,228.520101 830.573316,231.572541 831.16316,204.203804 C819.572736,215.912197 783.916699,238.237772 731.597585,228.903499 C705.438027,224.243736 689.276317,221.235534 665.195958,185.859673 C665.195958,214.009952 655.38981,238.326248 628.920585,247.719505 C628.920585,247.719505 669.885213,259.663835 673.719195,306.600628 C683.967725,298.490281 730.255691,276.56285 757.358998,310.434611 C759.261243,271.563927 835.23308,234.241582 861.894004,299.77319 C870.844878,289.097024 881.078662,282.269586 896.871721,278.86324 C887.49321,278.86324 891.327192,278.86324 881.521045,278.007967 L881.521045,278.007967 Z M604.751749,313.870449 L591.9374,314.460292 L591.789939,326.684798 L605.046671,326.832259 L604.751749,313.870449 L604.751749,313.870449 Z M1499.17562,144.732838 C1498.27611,172.190051 1491.97953,184.768463 1484.97514,192.406935 C1481.33286,196.358887 1471.05483,206.533686 1447.65279,205.42773 C1441.62164,205.147554 1468.85767,205.059077 1468.85767,205.059077 C1474.38745,205.236031 1485.62397,206.150288 1482.8517,222.503698 C1473.76811,276.282675 1404.88914,271.033068 1404.88914,271.033068 C1400.03768,271.165783 1386.58925,269.927112 1369.51328,265.871938 C1348.10196,260.81403 1331.7633,243.266187 1326.33674,231.42508 C1313.95003,204.41025 1332.5301,160.245721 1327.45744,169.491517 C1304.94017,210.603606 1259.419,207.787103 1248.63961,207.787103 C1242.43151,207.787103 1201.33417,207.787103 1176.57549,175.699619 C1176.57549,175.699619 1175.60225,189.280765 1174.12764,197.376366 C1172.21065,207.757611 1169.34991,220.866882 1163.7169,227.561605 C1157.49405,234.919902 1146.03634,224.273228 1139.00246,228.874007 C1131.37873,233.828692 1132.4552,249.149876 1132.4552,249.149876 C1129.6092,256.375458 1123.81399,254.945088 1123.41585,256.921063 C1123.0177,258.926531 1122.4721,263.571548 1123.26839,269.145569 L1128.85715,269.602698 C1128.85715,271.917833 1128.65071,277.255916 1128.65071,284.732182 C1128.65071,304.683637 1128.60647,368.091809 1128.51799,372.486142 C1128.20832,387.645119 1103.61185,428.801446 1039.87927,391.670801 C1038.8028,394.91494 1037.25446,398.940621 1035.23425,399.250289 C1032.41775,399.677926 1013.42479,400.017086 1004.60663,399.869625 C999.032608,399.707418 991.143451,401.417964 987.45693,391.641309 C986.498434,423.699301 909.155211,474.602791 856.231507,410.855459 C855.774378,414.099598 856.541175,418.508678 853.149575,420.897544 C849.595768,422.136215 841.706612,421.826548 825.618631,421.988755 C826.385428,437.472145 825.603885,452.926044 823.760625,453.707586 C818.643733,455.845769 793.8998,455.093718 782.147169,452.468915 C782.147169,452.468915 771.456256,418.12528 768.374324,418.12528 C765.970712,418.12528 762.947764,417.668151 762.018761,418.434948 C761.237218,419.098522 761.694347,429.936895 761.694347,435.525662 C761.694347,441.099682 761.812316,448.752901 753.834683,448.752901 C745.85705,448.752901 730.462136,449.372237 730.462136,449.372237 C730.078738,457.748014 734.17815,481.710404 727.527665,482.32974 C719.196126,483.111283 688.081884,482.949076 686.533545,480.162065 C681.254446,470.665586 672.937653,445.317063 672.451032,445.346555 C667.201425,445.656223 647.85456,444.889427 647.85456,444.889427 C647.85456,433.711893 648.002021,414.409266 647.85456,408.053703 C647.810322,406.549602 648.164228,394.767479 648.164228,394.767479 C649.712567,394.295604 660.845862,394.605272 660.845862,394.605272 C660.698401,390.269923 658.987855,373.710068 658.987855,373.710068 C629.908573,413.318056 563.079309,420.440415 530.873856,360.718766 C528.883135,361.927945 527.939385,363.726967 524.754231,366.513977 C527.143097,370.495421 573.622761,439.094215 503.637835,469.279454 C476.90318,475.649763 426.515803,483.096537 376.762508,469.825059 C366.587708,466.344982 360.718766,462.142348 360.718766,462.142348 C360.718766,429.037384 362.768472,335.738895 361.559292,305.819086 C361.382339,301.365768 360.394352,277.226424 363.240346,276.48912 C369.433703,274.881797 362.576772,260.415886 369.536925,257.201239 C369.536925,257.201239 411.858193,255.534931 427.783966,258.056512 C431.662187,258.661102 427.931427,277.16744 431.558965,276.90201 C437.427907,276.48912 434.065799,321.744859 434.065799,321.744859 C447.057101,323.425913 456.273405,322.585386 456.273405,322.585386 C457.954459,318.810388 465.489709,261.403874 468.424181,260.976237 C493.197606,257.437176 527.791924,258.616863 537.878248,258.616863 C540.576781,258.616863 540.753734,276.164706 541.343578,274.395176 C543.452268,268.113343 566.072765,248.825462 566.072765,248.825462 C548.067793,249.238352 537.155689,234.580742 537.155689,234.580742 C490.749755,277.137948 441.276636,237.633182 439.094215,240.862575 C436.410427,244.829272 434.47869,245.4781 431.971855,245.890991 C426.235627,246.849486 386.70137,245.4781 380.419537,244.637573 C375.656551,244.003492 370.053038,241.644118 369.93507,236.24705 C369.536925,213.626554 369.890831,186.641216 370.731358,161.086248 L357.45988,175.036046 C367.192297,185.107623 367.413489,191.124026 364.493764,193.925782 C352.092305,205.825874 333.76292,202.154098 333.76292,202.154098 C341.29817,207.064545 343.288891,225.58563 343.288891,225.58563 C322.334703,230.835237 306.630121,221.014343 306.630121,221.014343 C295.511571,239.992556 266.712465,243.266187 266.712465,243.266187 C266.712465,236.881132 268.01012,217.077138 268.01012,217.077138 C237.249784,229.522835 208.450677,213.154679 203.879391,209.23222 C194.294434,201.01865 196.668554,206.607417 184.237603,188.292777 L169.845423,155.556465 C168.65099,181.892976 165.908218,224.273228 165.760757,235.671953 C165.701773,239.255252 208.421185,233.666485 210.426653,236.055351 C212.417375,238.458963 211.635832,245.640307 214.024698,252.423507 C216.413564,259.206707 216.811708,280.750739 217.209853,287.121048 C217.607997,293.506104 218.404286,314.253847 213.626554,319.44447 C208.834076,324.620346 202.847165,325.416635 197.258398,324.620346 C191.684377,323.824057 70.4125626,312.66127 46.4944104,313.457559 C22.5615122,314.253847 13.3747004,312.263126 11.3839787,304.270747 C9.39325704,296.293114 12.1802674,238.458963 12.1802674,235.671953 C12.1802674,232.870196 17.7690341,225.703598 17.7690341,221.309265 C17.7690341,216.914931 18.9634671,210.544622 24.9503782,210.131731 C30.9372893,209.748333 74.8068963,215.720498 76.797618,212.933488 C78.8030857,210.131731 82.784529,94.8615738 82.784529,87.6802297 C82.784529,80.4988857 88.3732958,74.1138302 88.3732958,71.3268199 C88.3732958,68.5398096 82.3863847,54.1771214 107.91186,54.1771214 C133.452082,54.1771214 166.95519,54.5752658 169.344056,55.7696988 C171.732922,56.9641318 174.136534,64.9417645 174.136534,69.3360983 C174.136534,73.730432 177.719833,76.5174423 177.719833,77.7118753 C177.719833,78.9063083 178.516122,86.0876524 177.719833,88.4765184 C176.923545,90.8801305 177.719833,100.450341 180.108699,97.6633302 C182.497565,94.8615738 188.086332,-1.26816343 302.574947,17.0759681 C303.356489,25.9678582 314.489785,66.5490879 347.21135,42.9848419 C347.21135,42.9848419 362.488296,55.7696988 370.923057,76.0455676 C375.420614,64.7795576 372.073252,56.7429405 374.860262,56.33005 C374.860262,56.33005 412.271084,56.0498744 437.840797,57.7309283 C446.599973,58.3060256 452.719599,77.4169536 453.678094,84.480329 L453.35368,162.265935 L472.258163,162.177458 C472.258163,162.177458 472.4941,94.8615738 473.305135,91.2635287 C474.086678,87.6802297 477.286579,83.285896 478.481012,78.9063083 C479.675445,74.5267207 476.49029,63.7473315 483.27349,61.7566098 C490.056689,59.7658882 552.285174,59.3677438 554.275896,63.3491872 C556.664762,68.1416653 561.059095,80.1007413 561.059095,86.8839411 C561.059095,93.6671408 561.45724,167.456557 561.45724,167.456557 L580.995804,167.456557 C580.995804,167.456557 581.792093,87.6802297 581.792093,83.285896 C581.792093,78.9063083 585.788282,80.1007413 585.788282,76.9155867 C585.788282,73.730432 579.801371,56.5659874 606.52128,57.3770222 C633.255934,58.1585648 655.183365,59.3677438 657.586977,58.5714552 C659.975843,57.7604204 662.364709,31.8662927 703.653751,23.6822148 C716.173178,21.2048722 752.522281,23.8591678 774.464458,38.2218559 C777.251468,33.8275222 774.464458,24.2573121 793.604878,26.2480338 C812.760044,28.2535015 839.081808,29.8460789 843.461396,29.8460789 C847.85573,29.8460789 846.661297,29.8460789 848.253874,39.4162889 C849.846451,48.986499 852.633462,48.1902104 852.633462,50.9919668 C852.633462,53.7789771 850.64274,66.9472323 850.64274,71.7249642 C850.64274,76.5174423 848.253874,82.5043534 848.253874,89.6709514 C851.837173,81.7080647 855.435218,34.2256665 921.645146,37.8237116 C945.1799,39.4162889 979.479297,43.8106227 985.466208,101.246629 C992.249408,90.4819862 1005.81581,69.3360983 1031.34128,64.9417645 C1036.93005,68.9379539 1053.10651,93.1215356 1070.16773,59.1612986 C1074.94546,57.9521196 1123.47483,53.7789771 1151.00577,94.8615738 C1153.40939,83.6987864 1154.20567,1.12070257 1252.73902,0.722558234 C1351.24288,0.324413901 1342.88185,80.1007413 1342.88185,88.4765184 C1349.6503,81.2951743 1365.19268,59.7658882 1414.65105,65.3546549 C1464.10943,70.9286756 1501.25482,80.1449796 1499.17562,144.732838 L1499.17562,144.732838 Z" id="path858"></path>
                            </g>
                            <g id="g860" transform="translate(373.418095, 277.468260)" fill="#F4EF0D">
                                <path d="M103.222605,117.968691 L59.2940134,118.145644 L59.5299508,156.63293 L104.225339,157.075312 L103.222605,117.968691 L103.222605,117.968691 Z M154.509493,78.331211 C151.61926,90.5704627 138.126591,97.7075685 120.681971,104.004147 C131.80052,105.788424 161.690837,107.749653 158.196015,152.695725 C152.9759,219.967371 2.35937382,186.43477 2.35937382,186.43477 L3.6865216,12.9323178 L51.5080798,13.1535091 L49.325659,78.0805275 L97.9877441,78.685117 C99.7867667,62.3169611 104.225339,13.3747004 104.225339,13.3747004 C104.225339,13.3747004 149.864476,13.5958917 162.959001,13.5958917 C161.174724,39.6227342 159.493671,57.2295613 154.509493,78.331211 L154.509493,78.331211 Z" id="path862"></path>
                            </g>
                            <g id="g864" transform="translate(537.994742, 272.658087)" fill="#F4EF0D">
                                <path d="M44.2382592,44.2382592 L49.9007564,93.7998556 L80.0122648,93.357473 L83.5070873,38.1186333 L44.2382592,44.2382592 L44.2382592,44.2382592 Z M65.1777019,127.140757 C30.4801606,127.140757 2.34462774,99.1969232 2.34462774,64.7500654 C2.34462774,30.2737154 30.6718597,-1.22392517 65.1777019,2.34462774 C115.03422,7.50575798 128.010776,30.2737154 128.010776,64.7500654 C128.010776,99.1969232 99.8752432,127.140757 65.1777019,127.140757 L65.1777019,127.140757 Z" id="path866"></path>
                            </g>
                            <g id="g868" transform="translate(661.982785, 313.728887)" fill="#F4EF0D">
                                <path d="M58.9843456,162.20695 L58.9843456,130.989485 L90.0838418,130.252181 L89.9216349,99.5213371 L55.4305388,99.2411615 L53.764231,43.3092558 L72.9636355,43.3092558 L72.9488894,57.34753 L95.407179,57.8931352 L94.7878434,36.3196108 C94.7878434,36.3196108 92.6201687,13.1977473 62.2727229,11.9000917 C34.3731274,10.7204048 21.6914931,17.4741124 13.6253838,33.7095535 C13.2567317,55.7107144 13.5369073,63.6441089 17.6510654,101.423582 C10.1600535,100.494579 12.9913021,101.983934 1.22392517,101.158153 L1.41562429,127.081773 L21.7504774,127.170249 L36.5408021,162.590349 L58.9843456,162.20695 L58.9843456,162.20695 Z" id="path870"></path>
                            </g>
                            <g id="g872" transform="translate(758.969270, 286.302640)" fill="#F4EF0D">
                                <path d="M58.9843456,162.20695 L58.9843456,131.004232 L90.0838418,130.252181 L89.9216349,99.5213371 L55.4305388,99.2411615 L53.764231,43.3092558 L72.9636355,43.3092558 L72.9488894,57.34753 L95.407179,57.8931352 L94.7878434,36.3196108 C94.7878434,36.3196108 92.6201687,13.1977473 62.2727229,11.9000917 C34.3731274,10.7204048 21.6914931,17.4741124 13.6253838,33.7095535 C13.2567317,55.7107144 13.5369073,63.6441089 17.6363193,101.423582 C10.1453074,100.494579 12.9913021,101.983934 1.22392517,101.158153 L1.40087821,127.081773 L21.7504774,127.170249 L36.5408021,162.590349 L58.9843456,162.20695 L58.9843456,162.20695 Z" id="path874"></path>
                            </g>
                            <g id="g876" transform="translate(834.947006, 68.725610)" fill="#F4EF0D">
                                <path d="M88.4765184,206.44521 L87.8571828,162.73781 L133.142414,162.339665 L131.594075,119.78246 L84.3033759,119.78246 L84.3033759,41.0236124 L108.826118,40.4632611 L109.121039,62.2432307 L139.94036,61.6828794 L139.881376,31.4828945 C139.881376,31.4828945 133.098176,1.72529211 95.2597181,1.72529211 C57.4212604,1.72529211 41.2595497,3.99618941 27.9585798,33.3998857 C29.1530128,63.2312185 25.9826042,58.8516308 33.621077,122.186072 C24.8766478,122.422009 11.8558535,122.746423 11.8558535,122.746423 L12.1360291,156.396992 L37.5730281,156.677168 L59.6331734,205.589937 L88.4765184,206.44521 L88.4765184,206.44521 Z" id="path878"></path>
                            </g>
                            <g id="g880" transform="translate(848.037107, 302.309517)" fill="#F4EF0D">
                                <path d="M58.9843456,103.222605 L92.9150904,103.222605 L92.9150904,82.2979082 L58.6746778,82.5485917 L58.9843456,103.222605 L58.9843456,103.222605 Z M89.5529827,36.5997864 C82.5633378,36.5997864 53.6167702,37.897442 53.6167702,37.897442 C53.8969458,46.6713635 52.7614971,59.6774117 52.7614971,59.6774117 C70.2208634,59.6774117 87.8276906,59.9575873 137.315557,61.3732116 C137.315557,114.606584 104.225339,132.626301 71.0466443,132.228157 C44.0023218,131.918489 10.8383735,108.678657 10.8383735,72.019886 C10.8383735,35.3611152 29.875571,8.11034752 79.6288666,8.21357012 C133.407844,8.31679273 133.923957,50.343139 133.923957,50.343139 C126.064293,50.343139 90.0838418,49.3846434 90.0838418,49.3846434 C89.7151897,44.9313253 89.5529827,36.5997864 89.5529827,36.5997864 L89.5529827,36.5997864 Z" id="path882"></path>
                            </g>
                            <g id="g884" transform="translate(1160.052498, 28.980484)" fill="#F4EF0D">
                                <path d="M73.730432,132.714778 L117.835976,133.673273 L118.307851,104.608737 L72.6392216,105.080612 L73.730432,132.714778 L73.730432,132.714778 Z M113.721818,44.0170679 C104.240085,44.0170679 64.514128,43.7663844 64.514128,43.7663844 C63.5556324,55.6222379 64.0275071,72.8456668 64.0275071,72.8456668 C87.7097219,72.8456668 110.566156,74.7921502 177.218466,75.264025 C177.454404,150.410081 135.781964,172.735656 89.435014,172.853625 C44.4004662,172.956847 6.59150062,140.043583 6.59150062,90.0543496 C6.59150062,40.0651167 29.860825,1.8432608 103.532273,4.26161897 C170.995618,6.47353193 173.340246,62.1842463 173.340246,62.1842463 C162.678825,62.1842463 112.984514,60.0018256 112.984514,60.0018256 C112.512639,53.9559301 113.721818,44.0170679 113.721818,44.0170679 L113.721818,44.0170679 Z" id="path886"></path>
                            </g>
                            <g id="g888" transform="translate(989.384243, 275.740019)" fill="#F4EF0D">
                                <path d="M14.7460864,117.968691 L47.9837651,117.629531 L48.8390382,104.903659 C48.8390382,104.903659 72.5507451,124.619176 94.8468277,124.397985 C120.947401,124.132555 127.376694,112.969768 128.689096,103.399558 C130.266927,91.8976104 129.131479,7.06337539 129.131479,7.06337539 L87.5770071,6.22284846 C87.5770071,6.22284846 85.8074768,89.2875532 85.6305237,88.6239793 C85.3208559,87.3705619 67.1979157,87.8719289 55.6222379,87.6507376 C55.6222379,82.5190995 53.3660867,11.3102483 53.3660867,11.3102483 L14.3479421,11.0300726 L14.7460864,117.968691 L14.7460864,117.968691 Z" id="path890"></path>
                            </g>
                            <g id="g892" transform="translate(24.624490, 85.444723)" fill="#F4EF0D">
                                <path d="M0,221.191296 C0,221.191296 110.197504,226.794809 182.89571,235.922636 C183.23487,223.152525 184.208111,192.377443 183.883697,182.232136 C175.463682,181.185164 150.233128,181.214656 131.240169,181.53907 C131.903743,175.979795 144.954029,9.40800312 145.293189,2.21191296 C138.406767,2.53632686 81.6638265,1.17968691 75.4557241,1.5188469 C75.4557241,9.68817876 68.0089505,141.63616 64.5731123,162.929509 C56.0646205,162.280681 11.9295839,158.372968 2.80175642,158.726874 C2.80175642,169.521009 0.987987789,207.447943 0,221.191296" id="path894"></path>
                            </g>
                            <g id="g896" transform="translate(172.604416, 34.957072)" fill="#F4EF0D">
                                <path d="M176.953037,44.2382592 C176.953037,44.2382592 134.086164,66.4901036 127.863315,13.477923 C114.76879,11.8411074 53.248118,-2.22665905 22.1633679,74.6741815 C22.1633679,74.6741815 31.6451014,97.2504398 12.3424743,105.434518 C13.3304621,125.400719 21.8242079,210.485637 110.197504,174.166026 C111.170745,183.64776 110.521918,189.870608 107.248286,203.289547 C113.456389,200.989158 128.187729,193.468654 132.449348,173.502453 C136.371807,178.088485 139.645438,186.921391 162.221696,190.519436 C159.611639,183.98692 155.674434,177.439658 144.880299,168.606752 C156.013594,166.630776 173.354992,166.630776 183.161139,161.72033 C175.965049,156.809883 171.393762,158.137031 153.713205,153.550998 C168.444545,145.352174 186.110356,147.328149 198.216893,113.94301 C194.618848,109.696137 193.970021,110.123773 191.359963,104.770944 C191.138772,103.76821 189.708402,99.2264154 192.982033,91.3667513 C195.85752,84.480329 199.204881,83.5218334 196.594824,74.9985954 C193.350685,64.4993819 183.500299,49.148706 176.953037,44.2382592" id="path898"></path>
                            </g>
                            <g id="g900" transform="translate(369.911476, 78.000899)" fill="#F4EF0D">
                                <path d="M14.7460864,162.20695 L65.2071941,162.295427 L65.2071941,145.602857 C65.2071941,145.602857 120.755702,207.315229 168.975404,146.413892 C176.407432,163.681559 258.985515,200.576267 284.304546,135.899932 C287.194779,74.8363885 287.976321,11.3987248 287.976321,11.3987248 L227.782797,13.138763 C227.782797,13.138763 225.600376,82.2831621 225.600376,120.047889 C213.847745,119.841444 191.890822,120.431288 183.426569,120.622987 C183.220124,117.334609 183.426569,23.7117069 183.426569,16.0732342 C176.422178,16.0732342 127.701108,16.6630776 118.42582,16.6630776 C118.219375,24.5079956 118.42582,104.667721 118.42582,118.278359 C104.1811,117.880215 88.4617723,117.909707 75.6621693,117.703262 C75.6621693,109.651898 74.7774041,21.7504774 74.7774041,14.3184499 C64.2339524,14.0235282 31.910531,12.9913021 14.1562429,14.0235282 C14.3774342,22.2813366 14.7460864,148.15393 14.7460864,162.20695" id="path902"></path>
                            </g>
                            <g id="g904" transform="translate(667.887118, 52.021244)" fill="#F4EF0D">
                                <path d="M103.222605,44.2382592 L60.8276064,41.2153115 L61.107782,68.0679348 L104.918405,75.9865832 L103.222605,44.2382592 L103.222605,44.2382592 Z M170.479505,112.645354 C171.305286,136.312823 161.11574,171.806653 97.279932,171.526477 C33.444124,171.261047 9.18681183,153.049631 8.6706988,115.122697 C37.0126769,115.388126 55.3420623,115.284903 66.6228184,115.004728 C66.6228184,126.020054 67.8319974,131.358138 67.5665679,135.767217 C71.4152964,135.487042 101.128661,134.10091 117.924453,128.055014 C118.470058,117.600039 117.364102,114.296916 117.364102,106.864888 C103.325827,107.145064 27.6046737,104.10737 11.4134709,81.0002526 C0.825780838,65.8707679 -14.170989,21.5587783 30.4064302,6.42929367 C57.9226274,2.02021384 71.9609016,-1.00273388 112.424163,21.5587783 C115.019474,23.0038948 117.526309,11.7673769 119.222109,5.70673544 C119.222109,5.70673544 148.065454,9.82089354 175.43419,10.2780222 C174.49044,30.8340667 169.167103,64.6026045 170.479505,112.645354 L170.479505,112.645354 Z" id="path906"></path>
                            </g>
                            <g id="g908" transform="translate(973.983431, 83.141384)" fill="#F4EF0D">
                                <path d="M58.9843456,14.7460864 C68.2301418,12.3129821 87.3410697,40.9203898 104.358053,7.32880494 C104.358053,7.32880494 221.736901,7.77118753 184.208111,140.412235 C172.868371,138.672197 151.928928,135.619757 150.616526,169.211341 C135.781964,173.576183 120.947401,171.836145 103.060398,163.976481 C109.165278,171.836145 110.905316,173.1338 118.76498,188.853129 C110.905316,186.228325 96.5131355,172.278527 88.2258349,167.89894 C87.7834523,174.888585 87.3410697,182.305866 83.8609934,193.645607 C79.0537692,189.280765 74.6889276,182.305866 73.391272,163.534098 C66.4016271,166.158902 55.9319057,173.1338 36.2901186,165.716519 C41.5249793,161.351677 53.7494849,153.934396 59.4267282,148.271899 C45.0198018,143.907057 25.8203973,135.619757 21.8979383,122.952868 C28.0028181,117.290371 32.8100422,88.9336471 11.8558535,76.2667589 C12.7406186,59.6921577 27.5751816,23.048133 58.9843456,14.7460864" id="path910"></path>
                            </g>
                            <g id="g912" transform="translate(1321.610621, 90.305033)" fill="#F4EF0D">
                                <path d="M73.730432,44.2382592 L71.5627573,53.6167702 C67.1979157,53.5282936 33.1639483,53.6167702 22.2518444,53.6167702 C22.2518444,50.9919668 26.1743034,-2.44785034 97.958252,7.3730432 C126.963804,11.0743109 169.742201,16.3386637 168.415053,62.5676446 C167.102651,108.383735 139.615946,111.436175 125.444957,114.488615 C111.259222,117.541055 69.1443991,117.098672 59.1170604,116.449844 C59.3235056,121.47826 58.4682326,132.154426 58.4682326,137.389287 C65.885514,138.052861 92.2810087,140.235282 101.880711,140.01409 C104.490768,139.792899 105.581979,140.456473 106.245553,129.544369 C113.648088,128.880795 138.967118,131.063216 152.931662,132.154426 C151.176878,142.417702 142.683132,171.423254 102.529539,173.178039 C62.3759455,172.735656 49.5173581,172.30802 28.1355329,156.3675 C17.238175,145.470142 6.97489887,122.56947 21.160634,93.7556173 C29.6691258,78.6998631 42.6161897,72.8899051 53.6757545,69.9849261 C65.2366862,66.9324862 96.8522955,66.6965488 124.353747,66.047721 L124.353747,45.9930435 C119.340077,45.6686296 88.3438036,44.2382592 73.730432,44.2382592" id="path914"></path>
                            </g>
                            <g id="g916" transform="translate(1024.673103, 115.643233)" fill="#486B32">
                                <path d="M58.9843456,73.730432 C56.4775109,76.9008406 56.9788778,83.123689 57.9078813,88.8156784 C60.2230169,103.148874 61.4027038,119.059902 45.1377705,118.08666 C25.1420773,116.877481 33.0312335,96.6900885 34.8007639,93.4459495 C36.4375795,90.4672401 42.2475375,83.4923412 44.208767,76.5026962 C44.7543722,74.5119746 46.6418713,66.0034827 43.5894314,65.1039715 C39.8881637,64.0275071 34.8450022,70.6190078 34.0339674,74.1875607 C30.214731,91.0423374 17.916495,94.212746 11.2512639,86.2056211 C6.62099279,80.6610926 6.01640325,74.9985954 14.170989,67.5665679 C21.1016496,61.2552429 35.7297673,62.4939142 33.4293779,52.1716537 C32.4708823,47.8952886 26.3660025,49.0012451 16.1764568,48.3229251 C9.24579617,47.8657965 2.75751816,41.2595497 5.70673544,34.299397 C8.64120663,27.3392442 21.1753801,26.4839712 26.793639,31.8368005 C32.426644,37.1896299 34.653303,47.3201913 40.0061324,46.258473 C45.3589618,45.1820087 46.1994887,39.8586715 45.1377705,30.7603362 C44.0613062,21.6620009 41.2742958,4.58603287 58.2175491,6.13437194 C73.1110964,7.4762658 69.3066061,21.9864148 65.9150062,29.8313328 C62.9952811,36.5997864 64.8385419,41.2300576 69.7637348,42.0116002 C74.3497676,42.7194123 79.6141205,37.0864073 83.0057203,29.8313328 C88.0488819,19.0961819 108.663911,10.9710883 114.42963,25.3780147 C119.045156,36.9242003 109.902582,42.3655062 102.41157,44.7691183 C94.9205582,47.1874765 95.923292,46.258473 86.869195,49.5468503 C81.7817952,51.3901111 77.4611919,51.2426502 77.6233988,57.4065144 C77.9183205,69.114907 106.732173,61.7271177 105.965377,81.7375569 C105.405026,96.1739755 94.2569843,100.066942 85.4683168,94.6698747 C75.3672476,88.4765184 76.0160754,83.5218334 70.2356095,73.892639 C68.8347313,71.5775034 63.9685228,67.419107 58.9843456,73.730432" id="path918"></path>
                            </g>
                            <g id="g920" transform="translate(1460.891830, 211.572424)" fill="#110F0D">
                                <path d="M58.9843456,29.4921728 C58.9843456,16.3976481 48.3524173,5.78046587 35.2726387,5.78046587 C22.1633679,5.78046587 11.5461857,16.3976481 11.5461857,29.4921728 C11.5461857,42.6014436 22.1633679,53.2186258 35.2726387,53.2186258 C48.3524173,53.2186258 58.9843456,42.6014436 58.9843456,29.4921728" id="path922"></path>
                            </g>
                        </g>
                    </g>
                </g>
                <g id="text924" transform="translate(1485.803922, 245.960784)" fill="#F4EF0D">
                    <path d="M20.3700204,23.8304125 C19.8227827,23.8304125 19.3211399,23.6175962 18.8650918,23.1919636 C15.7944638,20.3138811 12.4198149,18.3174643 8.7411451,17.2027131 C8.85258039,20.1517361 8.90829804,21.7883926 8.90829804,22.1126827 C8.90829804,22.6903258 8.70562301,23.181829 8.30027294,23.5871925 C7.89488941,23.982423 7.38817673,24.1800383 6.7801349,24.1800383 C6.17209307,24.1800383 5.66539712,23.982423 5.26004706,23.5871925 C4.85466353,23.181829 4.65197176,22.6903258 4.65197176,22.1126827 C4.65197176,21.3526237 4.66201098,20.217605 4.68208941,18.7076267 C4.70216784,17.1875121 4.71220706,16.0474269 4.71220706,15.2873713 L4.74232471,3.02004706 C4.74232471,2.36133061 4.93994667,1.76341835 5.33519059,1.22631027 C5.85200941,0.537191739 6.5664502,0.228102693 7.47851294,0.299043137 C9.94109908,0.481455686 11.2027942,0.577731765 11.2635984,0.587871373 C12.6823739,0.760144314 13.8883346,1.09963545 14.8814808,1.60634478 C19.2087508,3.78517584 21.3723859,6.48591226 21.3723859,9.70855404 C21.3723859,11.0361198 20.9163545,12.2116752 20.0042918,13.2352201 C19.1023352,14.2486287 17.7443639,15.1049604 15.930378,15.8042152 C18.6159017,17.3040607 20.6376492,18.8343082 21.9956204,20.3949578 C22.3503059,20.8003213 22.5276486,21.2512878 22.5276486,21.7478576 C22.5276486,22.3153677 22.314834,22.8068727 21.8892047,23.2223724 C21.4641778,23.6277325 20.957783,23.8304125 20.3700204,23.8304125 L20.3700204,23.8304125 Z M10.626058,4.70737318 C10.545075,4.69733396 9.95224261,4.65679226 8.84756078,4.58574808 L8.84756078,12.6575586 C9.10088366,12.6675978 9.32382118,12.6726174 9.51637333,12.6726174 C11.9992387,12.6726174 13.8385903,12.3635267 15.0344282,11.7453453 C15.5512471,11.4818493 16.0224711,11.1322236 16.4481004,10.6964681 C16.8838693,10.2607025 17.1017537,9.93134431 17.1017537,9.70839341 C17.1017537,8.57337642 16.3822431,7.47889443 14.943222,6.42494745 C13.5751111,5.43190839 12.1360565,4.85938363 10.626058,4.70737318 L10.626058,4.70737318 Z" id="path941"></path>
                </g>
                <g id="g928" transform="translate(1488.313725, 256.782782) scale(1, -1) translate(-1488.313725, -256.782782) translate(1455.686275, 219.135723)" stroke="#F4EF0D" stroke-width="0.619854046">
                    <g id="g930-Clipped" transform="translate(0.000000, 0.000000)">
                        <g id="g930" transform="translate(4.520644, 0.117773)">
                            <g id="g936" transform="translate(10.592114, 5.515036)">
                                <path d="M44.2382592,29.4921728 C44.2382592,19.6122949 36.2163882,11.5904239 26.3217642,11.5904239 C16.4271402,11.5904239 8.42001533,19.6122949 8.42001533,29.4921728 C8.42001533,39.3867968 16.4271402,47.3939217 26.3217642,47.3939217 C36.2163882,47.3939217 44.2382592,39.3867968 44.2382592,29.4921728 L44.2382592,29.4921728 Z" id="path938"></path>
                            </g>
                        </g>
                    </g>
                </g>
            </g>
        </g>
    </g>
</svg>