<?xml version="1.0" encoding="UTF-8" standalone="no"?>
<!-- Created with Inkscape (http://www.inkscape.org/) -->

<svg
   xmlns:dc="http://purl.org/dc/elements/1.1/"
   xmlns:cc="http://creativecommons.org/ns#"
   xmlns:rdf="http://www.w3.org/1999/02/22-rdf-syntax-ns#"
   xmlns:svg="http://www.w3.org/2000/svg"
   xmlns="http://www.w3.org/2000/svg"
   version="1.1"
   width="300"
   height="96.026215"
   id="svg5542">
  <defs
     id="defs5544">
    <clipPath
       id="clipPath852">
      <path
         d="M 0,792 612,792 612,0 0,0 0,792 Z"
         id="path854" />
    </clipPath>
    <clipPath
       id="clipPath932">
      <path
         d="M 0,792 612,792 612,0 0,0 0,792 Z"
         id="path934" />
    </clipPath>
  </defs>
  <metadata
     id="metadata5547">
    <rdf:RDF>
      <cc:Work
         rdf:about="">
        <dc:format>image/svg+xml</dc:format>
        <dc:type
           rdf:resource="http://purl.org/dc/dcmitype/StillImage" />
        <cc:license
           rdf:resource="" />
        <dc:title></dc:title>
      </cc:Work>
    </rdf:RDF>
  </metadata>
  <g
     transform="translate(-2.0599913,-0.39871185)"
     id="g943">
    <g
       transform="matrix(2.9376969,0,0,-2.9376969,-91.796443,2271.5859)"
       id="g848">
      <g
         clip-path="url(#clipPath852)"
         id="g850">
        <g
           transform="translate(103.2256,759.3818)"
           id="g856">
          <path
             d="M 0,0 -0.611,0 -0.623,3.368 0,3.355 0,0 z m -5.463,-5.581 c 0.317,-0.69 0.728,-1.959 -0.653,-3.06 -0.112,-0.597 -0.075,-1.213 -0.075,-1.288 -0.411,0.075 -2.165,0 -2.426,0.019 -0.109,0.008 -0.224,0.112 -0.373,-1.437 l -0.15,0 0.038,2.762 c 0,0 1.959,0.037 2.538,0.037 0.355,0.784 0.597,0.971 0.69,2.762 0.094,1.791 0.411,2.669 -0.485,2.613 -0.707,-0.044 -2.09,0 -2.407,0 l -0.056,2.874 c 0,0 3.788,0.56 3.863,3.377 0.037,-2.389 -0.036,-4.248 0.317,-4.759 0.168,-0.242 0.261,-0.317 0.728,-0.317 -0.273,-0.215 -0.542,-0.354 -0.765,-0.615 0.016,-0.228 0.391,-0.504 0.821,-1.12 -0.467,-0.522 -1.437,-1.139 -1.605,-1.848 m -6.757,5.434 c -0.203,-0.55 -1.187,-2.922 -1.303,-3.211 -0.434,0 -1.348,-0.054 -1.62,-0.087 -0.463,-0.058 -0.532,0.149 -0.492,-1.707 -0.786,0.794 -3.204,2.308 -6.752,1.675 -1.774,-0.316 -2.87,-0.52 -4.503,-2.919 0,1.909 -0.665,3.558 -2.46,4.195 0,0 2.778,0.81 3.038,3.993 0.695,-0.55 3.834,-2.037 5.672,0.26 0.129,-2.636 5.281,-5.167 7.089,-0.723 0.607,-0.724 1.301,-1.187 2.372,-1.418 -0.636,0 -0.376,0 -1.041,-0.058 m -18.769,2.432 -0.869,0.04 -0.01,0.829 0.899,0.01 L -30.989,2.285 z m 60.655,-11.47 c -0.061,1.862 -0.488,2.715 -0.963,3.233 -0.247,0.268 -0.944,0.958 -2.531,0.883 -0.409,-0.019 1.438,-0.025 1.438,-0.025 0.375,0.012 1.137,0.074 0.949,1.183 -0.616,3.647 -5.287,3.291 -5.287,3.291 -0.329,0.009 -1.241,-0.075 -2.399,-0.35 -1.452,-0.343 -2.56,-1.533 -2.928,-2.336 -0.84,-1.832 0.42,-4.827 0.076,-4.2 -1.527,2.788 -4.614,2.597 -5.345,2.597 -0.421,0 -3.208,0 -4.887,-2.176 0,0 -0.066,0.921 -0.166,1.47 -0.13,0.704 -0.324,1.593 -0.706,2.047 -0.422,0.499 -1.199,-0.223 -1.676,0.089 -0.517,0.336 -0.444,1.375 -0.444,1.375 -0.193,0.49 -0.586,0.393 -0.613,0.527 -0.027,0.136 -0.064,0.451 -0.01,0.829 l 0.379,0.031 c 0,0.157 -0.014,0.519 -0.014,1.026 0,1.353 -0.003,5.653 -0.009,5.951 -0.021,1.028 -1.689,3.819 -6.011,1.301 -0.073,0.22 -0.178,0.493 -0.315,0.514 -0.191,0.029 -1.479,0.052 -2.077,0.042 -0.378,-0.011 -0.913,0.105 -1.163,-0.558 -0.065,2.174 -5.31,5.626 -8.899,1.303 -0.031,0.22 0.021,0.519 -0.209,0.681 -0.241,0.084 -0.776,0.063 -1.867,0.074 0.052,1.05 -0.001,2.098 -0.126,2.151 -0.347,0.145 -2.025,0.094 -2.822,-0.084 0,0 -0.725,-2.329 -0.934,-2.329 -0.163,0 -0.368,-0.031 -0.431,0.021 -0.053,0.045 -0.022,0.78 -0.022,1.159 0,0.378 0.008,0.897 -0.533,0.897 -0.541,0 -1.585,0.042 -1.585,0.042 -0.026,0.568 0.252,2.193 -0.199,2.235 -0.565,0.053 -2.675,0.042 -2.78,-0.147 -0.358,-0.644 -0.922,-2.363 -0.955,-2.361 -0.356,0.021 -1.668,-0.031 -1.668,-0.031 0,-0.758 0.01,-2.067 0,-2.498 -0.003,-0.102 0.021,-0.901 0.021,-0.901 0.105,-0.032 0.86,-0.011 0.86,-0.011 -0.01,-0.294 -0.126,-1.417 -0.126,-1.417 -1.972,2.686 -6.504,3.169 -8.688,-0.881 -0.135,0.082 -0.199,0.204 -0.415,0.393 0.162,0.27 3.314,4.922 -1.432,6.969 -1.813,0.432 -5.23,0.937 -8.604,0.037 -0.69,-0.236 -1.088,-0.521 -1.088,-0.521 0,-2.245 0.139,-8.572 0.057,-10.601 -0.012,-0.302 -0.079,-1.939 0.114,-1.989 0.42,-0.109 -0.045,-1.09 0.427,-1.308 0,0 2.87,-0.113 3.95,0.058 0.263,0.041 0.01,1.296 0.256,1.278 0.398,-0.028 0.17,3.041 0.17,3.041 0.881,0.114 1.506,0.057 1.506,0.057 0.114,-0.256 0.625,-4.149 0.824,-4.178 1.68,-0.24 4.026,-0.16 4.71,-0.16 0.183,0 0.195,1.19 0.235,1.07 0.143,-0.426 1.677,-1.734 1.677,-1.734 -1.221,0.028 -1.961,-0.966 -1.961,-0.966 -3.147,2.886 -6.502,0.207 -6.65,0.426 -0.182,0.269 -0.313,0.313 -0.483,0.341 -0.389,0.065 -3.07,-0.028 -3.496,-0.085 -0.323,-0.043 -0.703,-0.203 -0.711,-0.569 -0.027,-1.534 -0.003,-3.364 0.054,-5.097 l -0.9,0.946 c 0.66,0.683 0.675,1.091 0.477,1.281 -0.841,0.807 -2.084,0.558 -2.084,0.558 0.511,0.333 0.646,1.589 0.646,1.589 -1.421,0.356 -2.486,-0.31 -2.486,-0.31 -0.754,1.287 -2.707,1.509 -2.707,1.509 0,-0.433 0.088,-1.776 0.088,-1.776 -2.086,0.844 -4.039,-0.266 -4.349,-0.532 -0.65,-0.557 -0.489,-0.178 -1.332,-1.42 l -0.976,-2.22 c -0.081,1.786 -0.267,4.66 -0.277,5.433 -0.004,0.243 2.893,-0.136 3.029,0.026 0.135,0.163 0.082,0.65 0.244,1.11 0.162,0.46 0.189,1.921 0.216,2.353 0.027,0.433 0.081,1.84 -0.243,2.192 -0.325,0.351 -0.731,0.405 -1.11,0.351 -0.378,-0.054 -8.602,-0.811 -10.224,-0.757 -1.623,0.054 -2.246,-0.081 -2.381,-0.623 -0.135,-0.541 0.054,-4.463 0.054,-4.652 0,-0.19 0.379,-0.676 0.379,-0.974 0,-0.298 0.081,-0.73 0.487,-0.758 0.406,-0.026 3.381,0.379 3.516,0.19 0.136,-0.19 0.406,-8.007 0.406,-8.494 0,-0.487 0.379,-0.92 0.379,-1.109 0,-0.189 -0.406,-1.163 1.325,-1.163 1.732,0 4.004,0.027 4.166,0.108 0.162,0.081 0.325,0.622 0.325,0.92 0,0.298 0.243,0.487 0.243,0.568 0,0.081 0.054,0.568 0,0.73 -0.054,0.163 0,0.812 0.162,0.623 0.162,-0.19 0.541,-6.709 8.305,-5.465 0.053,0.603 0.808,3.355 3.027,1.757 0,0 1.036,0.867 1.608,2.242 0.305,-0.764 0.078,-1.309 0.267,-1.337 0,0 2.537,-0.019 4.271,0.095 0.594,0.039 1.009,1.335 1.074,1.814 l -0.022,5.275 1.282,-0.006 c 0,0 0.016,-4.565 0.071,-4.809 0.053,-0.243 0.27,-0.541 0.351,-0.838 0.081,-0.297 -0.135,-1.028 0.325,-1.163 0.46,-0.135 4.68,-0.162 4.815,0.108 0.162,0.325 0.46,1.136 0.46,1.596 0,0.46 0.027,5.464 0.027,5.464 l 1.325,0 c 0,0 0.054,-5.41 0.054,-5.708 0,-0.297 0.271,-0.216 0.271,-0.432 0,-0.216 -0.406,-1.38 1.406,-1.325 1.813,0.053 3.3,0.135 3.463,0.081 0.162,-0.055 0.324,-1.811 3.124,-2.366 0.849,-0.168 3.314,0.012 4.802,0.986 0.189,-0.298 0,-0.947 1.298,-0.812 1.299,0.136 3.084,0.244 3.381,0.244 0.298,0 0.217,0 0.325,0.649 0.108,0.649 0.297,0.595 0.297,0.785 0,0.189 -0.135,1.082 -0.135,1.406 0,0.325 -0.162,0.731 -0.162,1.217 0.243,-0.54 0.487,-3.76 4.977,-3.516 1.596,0.108 3.922,0.406 4.328,4.301 0.46,-0.73 1.38,-2.164 3.111,-2.462 0.379,0.271 1.476,1.911 2.633,-0.392 0.324,-0.082 3.615,-0.365 5.482,2.421 0.163,-0.757 0.217,-6.357 6.899,-6.384 6.68,-0.027 6.113,5.383 6.113,5.951 0.459,-0.487 1.513,-1.947 4.867,-1.568 3.354,0.378 5.873,1.003 5.732,5.383"
             id="path858"
             style="fill:#110f0d;fill-opacity:1;fill-rule:nonzero;stroke:none" />
        </g>
        <g
           transform="translate(63.3232,766.8164)"
           id="g860">
          <path
             d="m 0,0 -2.979,0.012 0.016,2.61 3.031,0.03 L 0,0 z m 3.478,-2.688 c -0.196,0.83 -1.111,1.314 -2.294,1.741 0.754,0.121 2.781,0.254 2.544,3.302 C 3.374,6.917 -6.84,4.643 -6.84,4.643 l 0.09,-11.766 3.243,0.015 -0.148,4.403 3.3,0.041 c 0.122,-1.11 0.423,-4.429 0.423,-4.429 0,0 3.095,0.015 3.983,0.015 -0.121,1.765 -0.235,2.959 -0.573,4.39"
             id="path862"
             style="fill:#f4ef0d;fill-opacity:1;fill-rule:nonzero;stroke:none" />
        </g>
        <g
           transform="translate(70.4839,761.4902)"
           id="g864">
          <path
             d="M 0,0 0.384,3.361 2.426,3.331 2.663,-0.415 0,0 z m 1.42,5.622 c -2.353,0 -4.261,-1.895 -4.261,-4.231 0,-2.338 1.921,-4.474 4.261,-4.232 3.381,0.35 4.261,1.894 4.261,4.232 0,2.336 -1.908,4.231 -4.261,4.231"
             id="path866"
             style="fill:#f4ef0d;fill-opacity:1;fill-rule:nonzero;stroke:none" />
        </g>
        <g
           transform="translate(79.8921,772.2754)"
           id="g868">
          <path
             d="m 0,0 0,-2.117 2.109,-0.05 -0.011,-2.084 -2.339,-0.019 -0.113,-3.793 1.302,0 -0.001,0.952 1.523,0.037 -0.042,-1.463 c 0,0 -0.147,-1.568 -2.205,-1.656 -1.892,-0.08 -2.752,0.378 -3.299,1.479 -0.025,1.492 -0.006,2.03 0.273,4.592 -0.508,-0.063 -0.316,0.038 -1.114,-0.018 l 0.013,1.758 1.379,0.006 1.003,2.402 L 0,0 Z"
             id="path870"
             style="fill:#f4ef0d;fill-opacity:1;fill-rule:nonzero;stroke:none" />
        </g>
        <g
           transform="translate(86.4692,770.4155)"
           id="g872">
          <path
             d="m 0,0 0,-2.116 2.109,-0.051 -0.011,-2.084 -2.339,-0.019 -0.113,-3.793 1.302,0 -0.001,0.952 1.523,0.037 -0.042,-1.463 c 0,0 -0.147,-1.568 -2.205,-1.656 -1.892,-0.08 -2.752,0.378 -3.299,1.479 -0.025,1.492 -0.006,2.03 0.272,4.592 -0.508,-0.063 -0.315,0.038 -1.113,-0.018 l 0.012,1.758 1.38,0.006 1.003,2.402 L 0,0 Z"
             id="path874"
             style="fill:#f4ef0d;fill-opacity:1;fill-rule:nonzero;stroke:none" />
        </g>
        <g
           transform="translate(93.6216,758.6606)"
           id="g876">
          <path
             d="m 0,0 -0.042,-2.964 3.071,-0.027 -0.105,-2.886 -3.207,0 0,-5.341 1.663,-0.038 0.02,1.477 2.09,-0.038 -0.004,-2.048 c 0,0 -0.46,-2.018 -3.026,-2.018 -2.566,0 -3.662,0.154 -4.564,2.148 0.081,2.023 -0.134,1.726 0.384,6.021 -0.593,0.016 -1.476,0.038 -1.476,0.038 l 0.019,2.282 1.725,0.019 1.496,3.317 L 0,0 Z"
             id="path878"
             style="fill:#f4ef0d;fill-opacity:1;fill-rule:nonzero;stroke:none" />
        </g>
        <g
           transform="translate(92.5093,767.501)"
           id="g880">
          <path
             d="m 0,0 2.301,0 0,-1.419 -2.322,0.017 L 0,0 z m 2.073,-4.518 c -0.474,0 -2.437,0.088 -2.437,0.088 0.019,0.595 -0.058,1.477 -0.058,1.477 1.184,0 2.378,0.019 5.734,0.115 0,3.61 -2.244,4.832 -4.494,4.805 -1.834,-0.021 -4.083,-1.597 -4.083,-4.083 0,-2.486 1.291,-4.334 4.665,-4.327 3.647,0.007 3.682,2.857 3.682,2.857 -0.533,0 -2.973,-0.065 -2.973,-0.065 C 2.084,-3.953 2.073,-4.518 2.073,-4.518"
             id="path882"
             style="fill:#f4ef0d;fill-opacity:1;fill-rule:nonzero;stroke:none" />
        </g>
        <g
           transform="translate(114.6685,750.9653)"
           id="g884">
          <path
             d="M 0,0 2.991,0.065 3.023,-1.906 -0.074,-1.874 0,0 z m 2.712,-6.015 c -0.643,0 -3.337,-0.017 -3.337,-0.017 -0.065,0.804 -0.033,1.972 -0.033,1.972 1.606,0 3.156,0.132 7.676,0.164 0.016,5.096 -2.81,6.61 -5.953,6.618 -3.054,0.007 -5.618,-2.225 -5.618,-5.615 0,-3.39 1.578,-5.982 6.574,-5.818 4.575,0.15 4.734,3.928 4.734,3.928 -0.723,0 -4.093,-0.148 -4.093,-0.148 -0.032,-0.41 0.05,-1.084 0.05,-1.084"
             id="path886"
             style="fill:#f4ef0d;fill-opacity:1;fill-rule:nonzero;stroke:none" />
        </g>
        <g
           transform="translate(99.0947,766.6992)"
           id="g888">
          <path
             d="m 0,0 2.254,-0.023 0.058,-0.863 c 0,0 1.608,1.337 3.12,1.322 1.77,-0.018 2.206,-0.775 2.295,-1.424 0.107,-0.78 0.03,-6.533 0.03,-6.533 L 4.939,-7.578 c 0,0 -0.12,5.633 -0.132,5.588 -0.021,-0.085 -1.25,-0.051 -2.035,-0.066 0,-0.348 -0.153,-5.177 -0.153,-5.177 L -0.027,-7.252 0,0 Z"
             id="path890"
             style="fill:#f4ef0d;fill-opacity:1;fill-rule:nonzero;stroke:none" />
        </g>
        <g
           transform="translate(32.6699,760.7944)"
           id="g892">
          <path
             d="m 0,0 c 0,0 7.473,0.38 12.403,0.999 0.023,-0.866 0.089,-2.953 0.067,-3.641 -0.571,-0.071 -2.282,-0.069 -3.57,-0.047 0.045,-0.377 0.93,-11.673 0.953,-12.161 -0.467,0.022 -4.315,-0.07 -4.736,-0.047 0,0.554 -0.505,9.502 -0.738,10.946 C 3.802,-3.995 0.809,-4.26 0.19,-4.236 0.19,-3.504 0.067,-0.932 0,0"
             id="path894"
             style="fill:#f4ef0d;fill-opacity:1;fill-rule:nonzero;stroke:none" />
        </g>
        <g
           transform="translate(54.7051,745.3706)"
           id="g896">
          <path
             d="m 0,0 c 0,0 -2.907,1.509 -3.329,-2.086 -0.888,-0.111 -5.06,-1.065 -7.168,4.15 0,0 0.643,1.531 -0.666,2.086 0.067,1.354 0.643,7.124 6.636,4.661 0.066,0.643 0.022,1.065 -0.2,1.975 0.421,-0.156 1.42,-0.666 1.709,-2.02 0.266,0.311 0.488,0.91 2.019,1.154 C -1.176,9.477 -1.443,9.033 -2.175,8.434 -1.42,8.3 -0.244,8.3 0.421,7.967 -0.067,7.634 -0.377,7.724 -1.576,7.413 -0.577,6.857 0.621,6.991 1.442,4.727 1.198,4.439 1.154,4.468 0.977,4.105 0.962,4.037 0.865,3.729 1.087,3.196 1.282,2.729 1.509,2.664 1.332,2.086 1.112,1.374 0.444,0.333 0,0"
             id="path898"
             style="fill:#f4ef0d;fill-opacity:1;fill-rule:nonzero;stroke:none" />
        </g>
        <g
           transform="translate(57.0854,756.2896)"
           id="g900">
          <path
             d="m 0,0 3.422,0.006 0,-1.132 c 0,0 3.767,4.185 7.037,0.055 0.504,1.171 6.104,3.673 7.821,-0.713 0.196,-4.141 0.249,-8.443 0.249,-8.443 l -4.082,0.118 c 0,0 -0.148,4.689 -0.148,7.25 -0.797,-0.014 -2.286,0.026 -2.86,0.039 -0.014,-0.223 0,-6.572 0,-7.09 -0.475,0 -3.779,0.04 -4.408,0.04 -0.014,0.532 0,5.968 0,6.891 -0.966,-0.027 -2.032,-0.025 -2.9,-0.039 0,-0.546 -0.06,-6.507 -0.06,-7.011 -0.715,-0.02 -2.907,-0.09 -4.111,-0.02 C -0.025,-9.489 0,-0.953 0,0"
             id="path902"
             style="fill:#f4ef0d;fill-opacity:1;fill-rule:nonzero;stroke:none" />
        </g>
        <g
           transform="translate(83.2925,746.5278)"
           id="g904">
          <path
             d="M 0,0 -2.875,-0.205 -2.856,1.616 0.115,2.153 0,0 Z M 4.561,4.639 C 4.617,6.244 3.926,8.651 -0.403,8.632 -4.732,8.614 -6.377,7.379 -6.412,4.807 c 1.922,0.018 3.165,0.011 3.93,-0.008 0,0.747 0.082,1.109 0.064,1.408 C -2.157,6.188 -0.142,6.094 0.997,5.684 1.034,4.975 0.959,4.751 0.959,4.247 0.007,4.266 -5.128,4.06 -6.226,2.493 -6.944,1.467 -7.961,-1.538 -4.938,-2.564 -3.072,-2.863 -2.12,-3.068 0.624,-1.538 0.8,-1.44 0.97,-2.202 1.085,-2.613 c 0,0 1.956,0.279 3.812,0.31 -0.064,1.394 -0.425,3.684 -0.336,6.942"
             id="path906"
             style="fill:#f4ef0d;fill-opacity:1;fill-rule:nonzero;stroke:none" />
        </g>
        <g
           transform="translate(101.0503,746.6382)"
           id="g908">
          <path
             d="m 0,0 c 0.627,-0.165 1.923,1.775 3.077,-0.503 0,0 7.96,0.03 5.415,9.025 C 7.723,8.404 6.303,8.197 6.214,10.475 5.208,10.771 4.202,10.653 2.989,10.12 3.403,10.653 3.521,10.741 4.054,11.807 3.521,11.629 2.545,10.683 1.983,10.386 1.953,10.86 1.923,11.363 1.687,12.132 1.361,11.836 1.065,11.363 0.977,10.09 0.503,10.268 -0.207,10.741 -1.539,10.238 -1.184,9.942 -0.355,9.439 0.03,9.055 -0.947,8.759 -2.249,8.197 -2.515,7.338 -2.101,6.954 -1.775,5.031 -3.196,4.172 -3.136,3.048 -2.13,0.563 0,0"
             id="path910"
             style="fill:#f4ef0d;fill-opacity:1;fill-rule:nonzero;stroke:none" />
        </g>
        <g
           transform="translate(125.6245,749.124)"
           id="g912">
          <path
             d="m 0,0 -0.147,0.636 c -0.296,-0.006 -2.604,0 -3.344,0 0,-0.178 0.266,-3.802 5.134,-3.136 1.967,0.251 4.868,0.608 4.778,3.743 C 6.332,4.35 4.468,4.557 3.507,4.764 2.545,4.971 -0.311,4.941 -0.991,4.897 -0.977,5.238 -1.035,5.962 -1.035,6.317 -0.532,6.362 1.258,6.51 1.909,6.495 2.086,6.48 2.16,6.525 2.205,5.785 2.707,5.74 4.424,5.888 5.371,5.962 5.252,6.658 4.676,8.625 1.953,8.744 -0.77,8.714 -1.642,8.685 -3.092,7.604 -3.831,6.865 -4.527,5.312 -3.565,3.358 -2.988,2.337 -2.11,1.943 -1.36,1.746 -0.576,1.539 1.568,1.523 3.433,1.479 l 0,-1.36 C 3.093,0.097 0.991,0 0,0"
             id="path914"
             style="fill:#f4ef0d;fill-opacity:1;fill-rule:nonzero;stroke:none" />
        </g>
        <g
           transform="translate(104.4878,752.8423)"
           id="g916">
          <path
             d="M 0,0 C -0.17,0.215 -0.136,0.637 -0.073,1.023 0.084,1.995 0.164,3.074 -0.939,3.008 -2.295,2.926 -1.76,1.557 -1.64,1.337 c 0.111,-0.202 0.505,-0.675 0.638,-1.149 0.037,-0.135 0.165,-0.712 -0.042,-0.773 -0.251,-0.073 -0.593,0.374 -0.648,0.616 -0.259,1.143 -1.093,1.358 -1.545,0.815 -0.314,-0.376 -0.355,-0.76 0.198,-1.264 0.47,-0.428 1.462,-0.344 1.306,-1.044 -0.065,-0.29 -0.479,-0.215 -1.17,-0.261 -0.47,-0.031 -0.91,-0.479 -0.71,-0.951 0.199,-0.472 1.049,-0.53 1.43,-0.167 0.382,0.363 0.533,1.05 0.896,0.978 0.363,-0.073 0.42,-0.434 0.348,-1.051 -0.073,-0.617 -0.262,-1.775 0.887,-1.67 1.01,0.091 0.752,1.075 0.522,1.607 -0.198,0.459 -0.073,0.773 0.261,0.826 0.311,0.048 0.668,-0.334 0.898,-0.826 0.342,-0.728 1.74,-1.279 2.131,-0.302 0.313,0.783 -0.307,1.152 -0.815,1.315 -0.508,0.164 -0.44,0.101 -1.054,0.324 -0.345,0.125 -0.638,0.115 -0.627,0.533 0.02,0.794 1.974,0.293 1.922,1.65 C 3.148,1.522 2.392,1.786 1.796,1.42 1.111,1 1.155,0.664 0.763,0.011 0.668,-0.146 0.338,-0.428 0,0"
             id="path918"
             style="fill:#486b32;fill-opacity:1;fill-rule:nonzero;stroke:none" />
        </g>
        <g
           transform="translate(134.0698,756.3477)"
           id="g920">
          <path
             d="m 0,0 c 0,-0.888 -0.721,-1.608 -1.608,-1.608 -0.889,0 -1.609,0.72 -1.609,1.608 0,0.889 0.72,1.609 1.609,1.609 C -0.721,1.609 0,0.889 0,0"
             id="path922"
             style="fill:#110f0d;fill-opacity:1;fill-rule:nonzero;stroke:none" />
        </g>
      </g>
    </g>
    <g
       id="text924"
       style="font-size:6.20206594px;font-variant:normal;font-weight:bold;font-stretch:normal;writing-mode:lr-tb;fill:#f4ef0d;fill-opacity:1;fill-rule:nonzero;stroke:none;font-family:Comic Sans MS;-inkscape-font-specification:ComicSansMS-Bold">
      <path
         d="m 299.05809,51.747465 q -0.16353,0 -0.29981,-0.127191 -0.91759,-0.860052 -2.01688,-1.193171 0.0333,0.881251 0.0333,0.978158 0,0.172616 -0.12113,0.29375 -0.12114,0.118106 -0.30284,0.118106 -0.1817,0 -0.30283,-0.118106 -0.12114,-0.121134 -0.12114,-0.29375 0,-0.227127 0.006,-0.678351 0.006,-0.454253 0.006,-0.681379 l 0.006,-2.443881 q 0,-0.196843 0.11811,-0.357346 0.15444,-0.205928 0.42699,-0.184729 0.73589,0.05451 0.75406,0.05754 0.42397,0.05148 0.72075,0.202899 1.29311,0.651096 1.29311,1.614112 0,0.396714 -0.27255,0.702578 -0.26953,0.302835 -0.8116,0.511792 0.80251,0.448196 1.20831,0.914562 0.10599,0.121134 0.10599,0.269523 0,0.169588 -0.12719,0.293751 Q 299.23373,51.747465 299.05809,51.747465 z m -1.94118,-3.809668 q -0.0242,-0.003 -0.35431,-0.02423 l 0,1.608056 q 0.0757,0.003 0.13324,0.003 0.74195,0 1.0993,-0.18473 0.15444,-0.07874 0.28163,-0.208956 0.13022,-0.130219 0.13022,-0.196843 0,-0.339175 -0.43002,-0.654124 Q 297.56814,47.983222 297.11691,47.937797 Z"
         id="path941" />
    </g>
    <g
       transform="matrix(2.9376969,0,0,-2.9376969,-91.796443,2271.5859)"
       id="g928">
      <g
         clip-path="url(#clipPath932)"
         id="g930">
        <g
           transform="translate(133.7183,756.374)"
           id="g936">
          <path
             d="m 0,0 c 0,-0.67 -0.544,-1.214 -1.215,-1.214 -0.671,0 -1.214,0.544 -1.214,1.214 0,0.671 0.543,1.214 1.214,1.214 C -0.544,1.214 0,0.671 0,0 Z"
             id="path938"
             style="fill:none;stroke:#f4ef0d;stroke-width:0.211;stroke-linecap:butt;stroke-linejoin:miter;stroke-miterlimit:4;stroke-opacity:1;stroke-dasharray:none" />
        </g>
      </g>
    </g>
  </g>
</svg>
