<?xml version="1.0" encoding="utf-8"?>
<!-- Generator: Adobe Illustrator 18.1.1, SVG Export Plug-In . SVG Version: 6.00 Build 0)  -->
<svg version="1.1" id="Layer_1" xmlns="http://www.w3.org/2000/svg" xmlns:xlink="http://www.w3.org/1999/xlink" x="0px" y="0px"
	 viewBox="-153 154.2 512 512" enable-background="new -153 154.2 512 512" xml:space="preserve">
<g>
	<polygon fill="#FFFFFF" points="-153,154.2 359,154.2 359,666.2 -153,666.2 	"/>
	<polygon points="337.6,396.2 -5.4,550.5 102.8,658.7 351.5,410 	"/>
	<path d="M41,488c-3.3-5.3-16.5-10.9-38.2-1.1c-18.7,8.4-31,22.1-25,35.4c5.9,13.2,23.5,13.5,42.8,4.8c20.9-9.4,25.5-19.9,24.8-29.2
		l-15.2,6.8c0.2,4-4.8,10.8-12.9,14.4c-10,4.5-19.3,3.2-22.7-4.3c-3.8-8.6,4.6-16,12-19.3c9.7-4.4,15.9-3.1,19.1-0.7L41,488L41,488z
		"/>
	<polygon points="80.2,453.3 64.4,460.4 81.5,498.5 133.2,475.2 129.6,467.2 93.8,483.4 	"/>
	<path d="M203,398l-16.4,7.4l10.6,23.5c2.1,4.6,0,8.8-10.5,13.4c-7.1,3.2-13.1,3.1-15.5-2.2L160.8,417l-16.4,7.4l11.4,25.2
		c1.9,3.7,4.8,6.1,9.8,6.7c8.2,0.8,18.5-2.8,25.2-5.8c18.3-8.2,27.9-17.7,23.4-27.8L203,398L203,398z"/>
	<path d="M253.7,421l-17.1-38.1l35.4-15.9c17.8-8,25-4.2,26.8-0.3c2.4,5.3,0.6,8.1-2.2,10.4c6.2-1.4,10.1,0.9,12.2,5.6
		c1.4,3,0.2,7-2.7,10.7c-3.2,4-6.6,7.1-21.4,13.8L253.7,421L253.7,421z M260.8,397.7l4.1,9.2l17.8-8c7.4-3.3,11.3-6,9.6-9.9
		c-1.5-3.3-7.5-2.2-13,0.3L260.8,397.7L260.8,397.7z M254.3,383.4l3.3,7.4l16.9-7.6c6-2.7,10.4-5.6,9-8.6c-1.4-3.1-5.9-1.7-12.8,1.4
		L254.3,383.4L254.3,383.4z"/>
	<path d="M-80,476c1.5-0.1,3.1-0.3,4.8-0.5c4.4-0.5,8.7-1.8,12.4-3.4c7.9-3.5,11.3-8.6,9.1-13.5c-2.2-4.9-5.3-5.5-19.8-3.2
		c-12.6,2.1-21,2-27.7-0.5L-80,476L-80,476z"/>
	<path d="M219.4,278c-3.3,0.7-6.4,1.7-9.4,3c-8.2,3.7-11.6,8.4-9.4,13.3c1.7,3.9,4.5,4.8,10.8,3.7c11.8-1.9,16.6-2.5,22.3-2.7
		c1,0,2,0,3,0.1L219.4,278L219.4,278z"/>
	<path d="M265.6,324.2l22.4,22.4L-54.9,501l-4.7-4.7c2.9-0.9,5.8-1.9,8.4-3.1c20.8-9.3,29.9-29.5,21.6-48.1
		c-5.5-12.3-15.7-18.6-29-18.4c-5.8,0.3-10.5,0.8-22.3,2.7c-6.3,1.1-9,0.1-10.8-3.7c-2.2-4.9,1.2-9.6,9.4-13.3
		c3.4-1.5,7-2.6,10.8-3.3c8.9-1.5,12.9-1,22.5,2.9l-12.7-28.2c-12.9-1.7-22.9-0.4-34,4.6c-21.8,9.8-31.2,29.5-23,48.7l-26.8-26.8
		l248.7-248.7l94.7,94.7c-0.4,0.2-0.8,0.3-1.2,0.5c-22.1,9.9-31.4,30-22.7,49.5c2.3,5.2,5.9,9.6,10.3,12.9c7.7,6,17.2,7.3,34.6,4.4
		c14.5-2.2,17.6-1.7,19.8,3.2c2.2,4.9-1.2,10-9.1,13.5c-3.7,1.7-8,2.9-12.4,3.4c-8.7,1.2-13.2,0.8-23.4-3.2l11.6,25.7
		c3.1,0.6,5.4,0.8,7,0.9c8.5,0.6,19.8-1.6,28.7-5.6C258,354.1,267.2,339.4,265.6,324.2L265.6,324.2z M1,441.1l30.6-13.8l15.6,18.8
		l26.7-12l-73-86l-39.3,17.7l17,111l24.7-11.1L1,441.1L1,441.1z M135.7,287.5L97,304.9l20.5,81.2l-50.1-67.9l-37.2,16.7l44.5,98.8
		l24.9-11.2L68,352.4l47.2,63.1l24.8-11.1l-15-77.7l31.7,70.4l23.5-10.6L135.7,287.5L135.7,287.5z M139.3,274.4
		c2,4.4,2.6,5.8,4.3,10.2c2.8,7.3,5,12.9,6.5,18.3c1.2,4,2,7.9,2.6,12.1l13.6-7.2c-0.6-12.8-2.2-20.6-4.4-27.6
		c-1.4-4.4-3-8.5-4.8-13.3L139.3,274.4L139.3,274.4z"/>
	<polygon points="17.4,408.7 -8.3,378.8 -3.5,418.1 	"/>
</g>
</svg>
