<?xml version="1.0" encoding="iso-8859-1"?><!-- Generator: Adobe Illustrator 16.0.0, SVG Export Plug-In . SVG Version: 6.00 Build 0) --><!DOCTYPE svg PUBLIC "-//W3C//DTD SVG 1.1//EN" "http://www.w3.org/Graphics/SVG/1.1/DTD/svg11.dtd"><svg version="1.1" id="Layer_1" xmlns="http://www.w3.org/2000/svg" xmlns:xlink="http://www.w3.org/1999/xlink" x="0px" y="0px" width="192.756px" height="192.756px" viewBox="0 0 192.756 192.756" style="enable-background:new 0 0 192.756 192.756;" xml:space="preserve"><g><polygon style="fill-rule:evenodd;clip-rule:evenodd;fill:#FFFFFF;" points="0,0 192.756,0 192.756,192.756 0,192.756 0,0	"/><polygon style="fill-rule:evenodd;clip-rule:evenodd;" points="184.707,91.083 55.564,149.188 96.297,189.922 189.922,96.297	184.707,91.083	"/><path style="fill-rule:evenodd;clip-rule:evenodd;" d="M73.027,125.66c-1.258-1.979-6.199-4.096-14.396-0.408	c-7.054,3.174-11.671,8.324-9.417,13.336c2.228,4.951,8.848,5.068,16.131,1.791c7.875-3.543,9.604-7.508,9.355-11l-5.719,2.574	c0.076,1.506-1.804,4.053-4.85,5.422c-3.771,1.697-7.264,1.199-8.53-1.613c-1.448-3.221,1.725-6.014,4.53-7.277	c3.657-1.645,5.986-1.172,7.176-0.252L73.027,125.66L73.027,125.66z"/><polygon style="fill-rule:evenodd;clip-rule:evenodd;" points="87.808,112.58 81.85,115.262 88.299,129.596 107.75,120.844	106.395,117.832 92.902,123.902 87.808,112.58	"/><path style="fill-rule:evenodd;clip-rule:evenodd;" d="M134.023,91.787l-6.189,2.786l3.98,8.847	c0.781,1.736-0.014,3.295-3.941,5.062c-2.67,1.201-4.92,1.156-5.818-0.84l-3.918-8.709l-6.189,2.787l4.275,9.502	c0.723,1.402,1.816,2.303,3.697,2.514c3.078,0.318,6.959-1.043,9.475-2.176c6.902-3.105,10.521-6.678,8.824-10.451L134.023,91.787	L134.023,91.787z"/><path style="fill-rule:evenodd;clip-rule:evenodd;" d="M153.115,100.434l-6.451-14.334l13.309-5.987	c6.711-3.02,9.414-1.596,10.08-0.118c0.898,1.997,0.227,3.045-0.846,3.909c2.332-0.543,3.807,0.331,4.605,2.105	c0.512,1.138,0.082,2.627-1.035,4.019c-1.203,1.501-2.467,2.669-8.07,5.191L153.115,100.434L153.115,100.434z M155.768,91.654	l1.562,3.476l6.719-3.022c2.783-1.253,4.258-2.255,3.602-3.712c-0.564-1.258-2.84-0.811-4.898,0.116L155.768,91.654L155.768,91.654	z M153.35,86.283l1.25,2.777l6.354-2.858c2.25-1.013,3.916-2.1,3.404-3.237c-0.531-1.178-2.213-0.639-4.807,0.528L153.35,86.283	L153.35,86.283z"/><path style="fill-rule:evenodd;clip-rule:evenodd;" d="M27.5,121.123c0.563-0.035,1.16-0.104,1.821-0.197	c1.653-0.207,3.262-0.662,4.659-1.291c2.96-1.332,4.245-3.254,3.416-5.098c-0.83-1.842-2-2.055-7.463-1.209	c-4.74,0.775-7.919,0.744-10.411-0.182L27.5,121.123L27.5,121.123z"/><path style="fill-rule:evenodd;clip-rule:evenodd;" d="M140.199,46.576c-1.232,0.25-2.406,0.625-3.523,1.128	c-3.072,1.381-4.354,3.167-3.523,5.01c0.654,1.452,1.682,1.796,4.057,1.399c4.443-0.723,6.232-0.924,8.404-1.027	c0.379-0.007,0.752,0,1.117,0.021L140.199,46.576L140.199,46.576z"/><path style="fill-rule:evenodd;clip-rule:evenodd;" d="M157.605,63.982l8.451,8.45L36.915,130.537l-1.76-1.758	c1.099-0.32,2.169-0.707,3.16-1.152c7.821-3.52,11.257-11.111,8.114-18.094c-2.086-4.637-5.91-7.014-10.903-6.916	c-2.17,0.104-3.961,0.305-8.404,1.027c-2.374,0.396-3.401,0.053-4.055-1.4c-0.83-1.842,0.449-3.627,3.522-5.01	c1.285-0.578,2.645-0.988,4.081-1.231c3.369-0.574,4.868-0.376,8.482,1.087l-4.775-10.613c-4.854-0.637-8.603-0.16-12.792,1.726	c-8.212,3.694-11.746,11.104-8.676,18.329L2.834,96.459L96.458,2.834l35.645,35.646c-0.145,0.062-0.287,0.126-0.434,0.19	c-8.322,3.745-11.84,11.306-8.547,18.624c0.879,1.955,2.236,3.628,3.859,4.846c2.896,2.257,6.469,2.732,13.037,1.657	c5.463-0.846,6.635-0.634,7.463,1.21c0.83,1.843-0.455,3.765-3.416,5.097c-1.396,0.628-3.004,1.083-4.658,1.29	c-3.281,0.469-4.975,0.29-8.807-1.21l4.35,9.664c1.17,0.213,2.016,0.302,2.645,0.355c3.197,0.241,7.453-0.6,10.807-2.108	C154.748,75.24,158.207,69.701,157.605,63.982L157.605,63.982z M57.962,107.98l11.519-5.184l5.89,7.082l10.055-4.523L57.96,72.977	l-14.803,6.66l6.417,41.789l9.309-4.188L57.962,107.98L57.962,107.98z M108.678,50.157l-14.562,6.552l7.734,30.582L82.998,61.71	l-14.004,6.301l16.743,37.209l9.356-4.209L83.205,74.589l17.782,23.771l9.328-4.197l-5.633-29.237l11.932,26.514l8.848-3.981	L108.678,50.157L108.678,50.157z M110.035,45.248c0.77,1.643,0.979,2.188,1.605,3.824c1.051,2.736,1.869,4.864,2.465,6.892	c0.441,1.508,0.762,2.96,0.961,4.567l5.111-2.698c-0.215-4.811-0.838-7.757-1.672-10.394c-0.527-1.668-1.139-3.212-1.789-5.024	L110.035,45.248L110.035,45.248z"/><polygon style="fill-rule:evenodd;clip-rule:evenodd;" points="64.145,95.802 54.462,84.551 56.269,99.346 64.145,95.802	"/></g></svg>