<?xml version="1.0" encoding="utf-8"?>
<!-- Generator: Adobe Illustrator 19.0.0, SVG Export Plug-In . SVG Version: 6.00 Build 0)  -->
<svg version="1.1" id="Calque_1" xmlns="http://www.w3.org/2000/svg" xmlns:xlink="http://www.w3.org/1999/xlink" x="0px" y="0px"
	 viewBox="0 0 595.3 841.9" style="enable-background:new 0 0 595.3 841.9;" xml:space="preserve">
<style type="text/css">
	.st0{fill:#E30613;}
</style>
<path class="st0" d="M66.5,373.3c0-23.6,21.5-44.7,55.1-44.7c32.6,0,45.1,14.8,45.1,28.4v14l0,0c-8.8-8.8-25.7-12.7-39.5-12.7
	c-18,0-24.2,4.8-24.2,12.3c0,5.9,2.5,9.2,27.1,14.2c27.2,5.6,40.3,16.7,40.3,37.2c0,27.4-20.1,45.1-55.4,45.1
	c-29.2,0-45.2-14-45.2-33v-13l0,0c8.2,8.4,26.8,16.3,42,16.3c16.9,0,22.3-4,22.3-12.9c0-8.1-7.3-10.7-27.4-14.8
	C77.6,404,66.5,393.4,66.5,373.3"/>
<path class="st0" d="M221.7,467.3c-20.4,0-45.3-9.6-45.3-33.7c0-23.5,16.7-32.3,55.2-32.3h5.5v-7.6c0-8.7-6.7-10.8-21.2-10.8
	c-19.8,0-28.1,4.6-35.6,11.6l0,0v-12.9c0-13.1,13.7-26.2,43.9-26.2c29.3,0,48.3,14.8,48.3,46v16.4
	C272.5,456.3,260.2,467.3,221.7,467.3z M237.9,420.9h-7.6c-14.5,0-20.3,3.6-20.3,11.1c0,7,4.4,10.7,15.1,10.7
	c6.8,0,12.9-3.4,12.9-13.5V420.9z"/>
<path class="st0" d="M346.5,456.9c-3.7,5.4-9.9,8.6-16.4,8.6l0,0c-12.1,0-17.8-5.8-24-15.3c-14.2-22.1-29-60.8-33.6-91.7h19
	c11.9,0,19.4,8.4,20.7,15.2c3.3,16.9,12.7,38.5,17.5,47.5c6.7-12.5,16.1-39,20-62.6h17.5c9.2,0,14.8,5.6,14.8,14.4
	c0,7.7-2.5,15.3-5,22.6C371.1,412.3,358,440,346.5,456.9z"/>
<path class="st0" d="M433.6,421.1h-17.2c0.3,13.1,11.5,20.7,26.7,20.7c16.9,0,29.5-4.4,35.5-8.4l0,0v8.4c0,13.4-10.9,25.5-41.1,25.5
	c-36.5,0-55.7-24.6-55.7-53.8c0-32.1,21.7-58.2,54.3-58.2c27.6,0,49.1,15.5,49.1,42.4C485.3,419,469.3,421.1,433.6,421.1z
	 M435.9,382.9c-12.9,0-18,8.2-19,18.4h14.3c17.3,0,20.3-2.9,20.3-7.5C451.5,388.4,446.5,382.9,435.9,382.9z"/>
</svg>
