<?xml version="1.0" encoding="iso-8859-1"?><!-- Generator: Adobe Illustrator 16.0.0, SVG Export Plug-In . SVG Version: 6.00 Build 0) --><!DOCTYPE svg PUBLIC "-//W3C//DTD SVG 1.1//EN" "http://www.w3.org/Graphics/SVG/1.1/DTD/svg11.dtd"><svg version="1.1" id="Layer_1" xmlns="http://www.w3.org/2000/svg" xmlns:xlink="http://www.w3.org/1999/xlink" x="0px" y="0px" width="192.756px" height="192.756px" viewBox="0 0 192.756 192.756" style="enable-background:new 0 0 192.756 192.756;" xml:space="preserve"><g><polygon style="fill-rule:evenodd;clip-rule:evenodd;fill:#FFFFFF;" points="0,0 192.756,0 192.756,192.756 0,192.756 0,0	"/><polygon style="fill-rule:evenodd;clip-rule:evenodd;fill:#202467;" points="90.545,70.221 90.545,81.815 96.306,75.91	90.545,70.221	"/><polygon style="fill-rule:evenodd;clip-rule:evenodd;fill:#202467;" points="85.216,76.63 85.216,87.144 90.545,81.815	85.216,76.63	"/><polygon style="fill-rule:evenodd;clip-rule:evenodd;fill:#202467;" points="85.216,64.893 85.216,75.406 90.545,70.221	85.216,64.893	"/><polygon style="fill-rule:evenodd;clip-rule:evenodd;fill:#202467;" points="80.032,71.302 80.032,80.663 84.712,75.91	80.032,71.302	"/><polygon style="fill-rule:evenodd;clip-rule:evenodd;fill:#202467;" points="80.032,59.708 80.032,69.069 84.712,64.316	80.032,59.708	"/><polygon style="fill-rule:evenodd;clip-rule:evenodd;fill:#202467;" points="80.032,82.968 80.032,92.329 84.712,87.72	80.032,82.968	"/><polygon style="fill-rule:evenodd;clip-rule:evenodd;fill:#202467;" points="69.59,72.454 69.59,79.439 73.046,75.91 69.59,72.454	"/><polygon style="fill-rule:evenodd;clip-rule:evenodd;fill:#202467;" points="74.918,66.117 74.918,74.254 78.951,70.221	74.918,66.117	"/><polygon style="fill-rule:evenodd;clip-rule:evenodd;fill:#202467;" points="74.918,77.783 74.918,85.848 78.951,81.815	74.918,77.783	"/><polygon style="fill-rule:evenodd;clip-rule:evenodd;fill:#202467;" points="102.211,70.221 102.211,81.815 96.306,75.91	102.211,70.221	"/><polygon style="fill-rule:evenodd;clip-rule:evenodd;fill:#202467;" points="107.469,76.63 107.469,87.144 102.211,81.815	107.469,76.63	"/><polygon style="fill-rule:evenodd;clip-rule:evenodd;fill:#202467;" points="107.469,64.893 107.469,75.406 102.211,70.221	107.469,64.893	"/><polygon style="fill-rule:evenodd;clip-rule:evenodd;fill:#202467;" points="112.652,71.302 112.652,80.663 108.045,75.91	112.652,71.302	"/><polygon style="fill-rule:evenodd;clip-rule:evenodd;fill:#202467;" points="112.652,59.708 112.652,69.069 108.045,64.316	112.652,59.708	"/><polygon style="fill-rule:evenodd;clip-rule:evenodd;fill:#202467;" points="112.652,82.968 112.652,92.329 108.045,87.72	112.652,82.968	"/><polygon style="fill-rule:evenodd;clip-rule:evenodd;fill:#202467;" points="123.166,72.454 123.166,79.439 119.639,75.91	123.166,72.454	"/><polygon style="fill-rule:evenodd;clip-rule:evenodd;fill:#202467;" points="117.838,66.117 117.838,74.254 113.805,70.221	117.838,66.117	"/><polygon style="fill-rule:evenodd;clip-rule:evenodd;fill:#202467;" points="117.838,77.783 117.838,85.848 113.805,81.815	117.838,77.783	"/><polygon style="fill-rule:evenodd;clip-rule:evenodd;fill:#27A687;" points="90.545,70.221 102.211,70.221 96.306,75.91	90.545,70.221	"/><polygon style="fill-rule:evenodd;clip-rule:evenodd;fill:#27A687;" points="97.025,64.893 107.469,64.893 102.211,70.221	97.025,64.893	"/><polygon style="fill-rule:evenodd;clip-rule:evenodd;fill:#27A687;" points="85.216,64.893 95.73,64.893 90.545,70.221	85.216,64.893	"/><polygon style="fill-rule:evenodd;clip-rule:evenodd;fill:#27A687;" points="91.697,59.708 101.059,59.708 96.306,64.316	91.697,59.708	"/><polygon style="fill-rule:evenodd;clip-rule:evenodd;fill:#27A687;" points="80.032,59.708 89.465,59.708 84.712,64.316	80.032,59.708	"/><polygon style="fill-rule:evenodd;clip-rule:evenodd;fill:#27A687;" points="103.291,59.708 112.652,59.708 108.045,64.316	103.291,59.708	"/><polygon style="fill-rule:evenodd;clip-rule:evenodd;fill:#27A687;" points="92.921,49.194 99.762,49.194 96.306,52.723	92.921,49.194	"/><polygon style="fill-rule:evenodd;clip-rule:evenodd;fill:#27A687;" points="86.512,54.523 94.65,54.523 90.545,58.555	86.512,54.523	"/><polygon style="fill-rule:evenodd;clip-rule:evenodd;fill:#27A687;" points="98.105,54.523 106.244,54.523 102.211,58.555	98.105,54.523	"/><polygon style="fill-rule:evenodd;clip-rule:evenodd;fill:#27A687;" points="90.545,81.815 102.211,81.815 96.306,75.91	90.545,81.815	"/><polygon style="fill-rule:evenodd;clip-rule:evenodd;fill:#27A687;" points="97.025,87.144 107.469,87.144 102.211,81.815	97.025,87.144	"/><polygon style="fill-rule:evenodd;clip-rule:evenodd;fill:#27A687;" points="85.216,87.144 95.73,87.144 90.545,81.815	85.216,87.144	"/><polygon style="fill-rule:evenodd;clip-rule:evenodd;fill:#27A687;" points="91.697,92.329 101.059,92.329 96.306,87.72	91.697,92.329	"/><polygon style="fill-rule:evenodd;clip-rule:evenodd;fill:#27A687;" points="80.032,92.329 89.465,92.329 84.712,87.72	80.032,92.329	"/><polygon style="fill-rule:evenodd;clip-rule:evenodd;fill:#27A687;" points="103.291,92.329 112.652,92.329 108.045,87.72	103.291,92.329	"/><polygon style="fill-rule:evenodd;clip-rule:evenodd;fill:#27A687;" points="92.921,102.844 99.762,102.844 96.306,99.314	92.921,102.844	"/><polygon style="fill-rule:evenodd;clip-rule:evenodd;fill:#27A687;" points="86.512,97.514 94.65,97.514 90.545,93.41	86.512,97.514	"/><polygon style="fill-rule:evenodd;clip-rule:evenodd;fill:#27A687;" points="98.105,97.514 106.244,97.514 102.211,93.41	98.105,97.514	"/><path style="fill-rule:evenodd;clip-rule:evenodd;fill:#202467;" d="M13.42,116.957c-0.504-2.305-2.664-3.961-4.681-3.961	c-1.873,0-3.168,1.152-3.168,2.664c0,2.018,1.8,2.809,4.825,4.682c2.88,1.943,4.681,3.168,4.681,6.193	c0,3.312-2.664,5.689-6.553,5.689c-1.944,0-3.312-0.721-4.176-0.721c-0.648,0-0.937,0.145-1.008,0.504H2.834v-5.545h0.504	c0.36,2.881,2.376,4.68,5.185,4.68c2.016,0,3.385-1.295,3.385-2.951c0-1.873-1.8-2.664-4.681-4.537	c-2.665-1.873-4.393-3.168-4.393-6.338c0-3.023,2.521-5.328,5.689-5.328c1.512,0,2.881,0.504,3.889,0.504	c0.36,0,0.792-0.072,1.008-0.359h0.504v4.824H13.42L13.42,116.957z"/><path style="fill-rule:evenodd;clip-rule:evenodd;fill:#202467;" d="M23.646,132.152c-4.032,0-6.697-2.809-6.697-6.482	c0-3.889,2.953-6.84,7.346-6.84c1.872,0,3.168,0.504,3.816,0.504c0.504,0,0.72-0.217,1.008-0.504h0.504v4.32h-0.504	c-0.647-2.16-2.16-3.529-4.32-3.529c-2.232,0-4.033,1.873-3.889,5.33c0,3.24,2.017,5.256,4.393,5.256	c1.656,0,3.169-0.648,4.321-2.16l0.36,0.289C28.759,130.711,26.311,132.152,23.646,132.152L23.646,132.152z"/><path style="fill-rule:evenodd;clip-rule:evenodd;fill:#202467;" d="M31.64,125.527c0-3.889,3.024-6.555,7.561-6.555	c4.681,0,7.633,2.666,7.633,6.555c0,3.959-2.952,6.697-7.633,6.697C34.664,132.225,31.64,129.486,31.64,125.527L31.64,125.527z M43.017,125.527c0-3.746-1.368-5.762-3.816-5.762c-2.232,0-3.673,2.016-3.673,5.762c0,3.959,1.44,5.977,3.673,5.977	C41.649,131.504,43.017,129.486,43.017,125.527L43.017,125.527z"/><path style="fill-rule:evenodd;clip-rule:evenodd;fill:#202467;" d="M74.126,111.916c1.152,0,2.16,1.008,2.16,2.232	c0,1.297-1.008,2.305-2.16,2.305c-1.296,0-2.305-1.008-2.305-2.305C71.822,112.924,72.83,111.916,74.126,111.916L74.126,111.916z"	/><path style="fill-rule:evenodd;clip-rule:evenodd;fill:#202467;" d="M78.159,131.215v0.504h-7.705v-0.504	c1.656-0.504,2.017-1.008,2.017-2.232v-6.84c0-1.514-0.36-2.377-2.017-2.377v-0.648h5.689v9.865	C76.143,130.207,76.503,130.711,78.159,131.215L78.159,131.215z"/><path style="fill-rule:evenodd;clip-rule:evenodd;fill:#202467;" d="M80.679,127.543c1.009,2.809,2.665,3.816,4.465,3.816	c1.08,0,2.017-0.863,2.017-1.873c0-1.439-1.296-1.943-3.312-2.807c-2.16-1.01-3.673-2.018-3.673-3.889	c0-2.305,1.801-3.961,4.465-3.961c1.08,0,2.088,0.504,2.593,0.504c0.432,0,0.792-0.217,0.936-0.504h0.504v4.031h-0.504	c-0.504-2.088-2.16-3.24-3.528-3.24c-1.296,0-2.088,0.648-2.088,1.514c0,1.008,1.081,1.512,2.809,2.232	c2.665,1.15,4.176,2.16,4.176,4.607c0,2.377-1.8,4.178-4.537,4.178c-1.296,0-2.16-0.504-3.024-0.504c-0.505,0-0.937,0-1.297,0.359	h-0.504v-4.465H80.679L80.679,127.543z"/><path style="fill-rule:evenodd;clip-rule:evenodd;fill:#202467;" d="M98.395,131.215v0.504h-7.706v-0.504	c1.656-0.504,2.017-1.008,2.017-2.232V114.58c0-1.439-0.144-2.592-2.017-2.664v-0.648h5.689v10.586	c1.368-2.016,3.024-2.881,4.897-2.881c2.664,0,4.104,1.514,4.104,4.322v5.688c0,1.225,0.361,1.729,1.873,2.232v0.504h-7.561v-0.504	c1.512-0.359,2.016-0.863,2.016-2.232v-5.688c0-1.514-0.793-2.305-2.016-2.305c-1.297,0-2.16,0.791-3.313,2.016v5.834	C96.378,130.352,96.882,130.855,98.395,131.215L98.395,131.215z"/><path style="fill-rule:evenodd;clip-rule:evenodd;fill:#202467;" d="M126.191,117.678c0,3.168-2.664,5.473-6.842,5.473	c-0.721,0-1.729,0-2.881-0.289v5.113c0,2.088,0.648,3.168,2.521,3.24v0.504h-9.361v-0.504c1.943-0.072,2.52-1.152,2.52-3.24	v-11.809c0-2.09-0.576-3.025-2.52-3.242v-0.504h9.361C123.67,112.42,126.191,114.438,126.191,117.678L126.191,117.678z M116.469,121.639c0.361,0.143,0.865,0.215,1.369,0.215c2.52,0,3.816-1.512,3.816-4.031c0-2.738-1.512-4.178-4.393-4.178	c-0.289,0-0.504,0-0.793,0V121.639L116.469,121.639z"/><path style="fill-rule:evenodd;clip-rule:evenodd;fill:#202467;" d="M125.688,125.455c0-3.961,2.951-6.625,7.633-6.625	c4.537,0,7.561,2.664,7.561,6.625c0,3.889-3.023,6.697-7.561,6.697C128.639,132.152,125.688,129.344,125.688,125.455	L125.688,125.455z M136.92,125.455c0-3.816-1.367-5.834-3.6-5.834c-2.449,0-3.816,2.018-3.816,5.834	c0,3.889,1.367,5.904,3.816,5.904C135.553,131.359,136.92,129.344,136.92,125.455L136.92,125.455z"/><path style="fill-rule:evenodd;clip-rule:evenodd;fill:#202467;" d="M140.521,119.766v-0.648c0,0,7.273,0,7.201,0v0.648	c-0.793,0.072-1.297,0.863-0.793,2.088l2.449,5.617l2.592-6.121l-0.072-0.215c-0.432-0.793-0.936-1.369-2.016-1.369v-0.648h7.273	v0.648c-0.721,0.072-1.369,0.863-0.863,2.088l2.664,5.473l1.656-3.816c0.504-1.008,0.719-1.729,0.719-2.232	c0-0.791-0.504-1.439-1.512-1.512v-0.648h4.682v0.648c-1.369,0.359-2.018,1.512-2.736,3.24l-3.961,9.146h-0.721l-4.465-9.795	l-4.32,9.795h-0.576l-4.465-9.65C142.537,120.846,141.746,119.838,140.521,119.766L140.521,119.766z"/><path style="fill-rule:evenodd;clip-rule:evenodd;fill:#202467;" d="M170.551,132.152c-3.602,0-6.553-2.953-6.553-6.625	c0-3.746,2.951-6.697,6.84-6.697c3.312,0,5.689,2.16,6.049,5.473h-8.93v0.072c0,3.816,1.584,5.832,4.393,5.832	c1.514,0,3.025-0.863,4.178-2.52l0.359,0.287C175.52,130.639,173.502,132.152,170.551,132.152L170.551,132.152z M172.998,123.51	c0-2.375-1.008-3.889-2.664-3.744c-1.297,0-2.305,1.369-2.377,3.744H172.998L172.998,123.51z"/><path style="fill-rule:evenodd;clip-rule:evenodd;fill:#202467;" d="M187.904,118.973c0.793,0,1.514,0.217,2.018,0.793	l-0.721,3.529c-1.08-0.938-1.943-1.441-2.953-1.441c-1.008,0-1.727,0.504-2.52,1.801v5.186c0,1.512,0.359,1.871,2.016,2.375v0.504	h-7.705v-0.504c1.512-0.504,2.018-1.008,2.018-2.232v-6.84c0-1.297-0.361-2.305-2.018-2.377v-0.648h5.689v3.24	C185.096,120.125,186.393,118.973,187.904,118.973L187.904,118.973z"/><path style="fill-rule:evenodd;clip-rule:evenodd;fill:#202467;" d="M66.565,130.496c0.576,0,1.369-0.289,2.017-0.793l0.216,0.359	c-1.008,1.441-2.52,2.09-4.177,2.09c-2.521,0-3.889-1.656-3.889-4.465v-7.418h-2.304v-0.287l5.977-5.186v4.32h4.033v1.152h-4.033	v6.914C64.405,129.486,65.125,130.496,66.565,130.496L66.565,130.496z"/><path style="fill-rule:evenodd;clip-rule:evenodd;fill:#202467;" d="M55.259,130.496c0.648,0,1.44-0.289,2.016-0.793l0.289,0.359	c-1.009,1.297-2.521,2.09-4.177,2.09c-2.521,0-3.961-1.656-3.961-4.465v-7.418h-2.232v-0.287l5.905-5.186v4.32h4.104v1.152h-4.104	v6.914C53.099,129.486,53.891,130.496,55.259,130.496L55.259,130.496z"/></g></svg>