<?xml version="1.0" encoding="iso-8859-1"?><!-- Generator: Adobe Illustrator 16.0.0, SVG Export Plug-In . SVG Version: 6.00 Build 0) --><!DOCTYPE svg PUBLIC "-//W3C//DTD SVG 1.1//EN" "http://www.w3.org/Graphics/SVG/1.1/DTD/svg11.dtd"><svg version="1.1" id="Layer_1" xmlns="http://www.w3.org/2000/svg" xmlns:xlink="http://www.w3.org/1999/xlink" x="0px" y="0px" width="192.756px" height="192.756px" viewBox="0 0 192.756 192.756" style="enable-background:new 0 0 192.756 192.756;" xml:space="preserve"><g><polygon style="fill-rule:evenodd;clip-rule:evenodd;fill:#374B75;" points="0,0 192.756,0 192.756,192.756 0,192.756 0,0	"/><polygon style="fill-rule:evenodd;clip-rule:evenodd;fill:#D2D3D9;" points="73.825,71.22 54.058,49.296 83.889,67.266	73.825,71.22	"/><polygon style="fill-rule:evenodd;clip-rule:evenodd;fill:#3EA3AB;" points="73.825,71.22 67.715,80.205 54.058,49.296	73.825,71.22	"/><polygon style="fill-rule:evenodd;clip-rule:evenodd;fill:#3EA3AB;" points="73.825,122.795 54.058,144.717 83.889,126.748	73.825,122.795	"/><polygon style="fill-rule:evenodd;clip-rule:evenodd;fill:#D2D3D9;" points="73.825,122.795 67.715,113.809 54.058,144.717	73.825,122.795	"/><polygon style="fill-rule:evenodd;clip-rule:evenodd;fill:#D2D3D9;" points="116.953,72.658 137.619,48.937 122.346,80.924	116.953,72.658	"/><polygon style="fill-rule:evenodd;clip-rule:evenodd;fill:#3EA3AB;" points="116.953,72.658 107.609,67.266 137.619,48.937	116.953,72.658	"/><polygon style="fill-rule:evenodd;clip-rule:evenodd;fill:#3EA3AB;" points="117.941,121.178 138.607,144.896 123.334,112.91	117.941,121.178	"/><polygon style="fill-rule:evenodd;clip-rule:evenodd;fill:#D2D3D9;" points="117.941,121.178 108.598,126.568 138.607,144.896	117.941,121.178	"/><path style="fill-rule:evenodd;clip-rule:evenodd;fill:#3EA3AB;" d="M60.168,97.188c0,19.469,15.84,35.311,35.312,35.311	c19.47,0,35.312-15.842,35.312-35.311c0-19.472-15.842-35.312-35.312-35.312C76.008,61.875,60.168,77.716,60.168,97.188	L60.168,97.188z"/><path style="fill-rule:evenodd;clip-rule:evenodd;fill:#FFFFFF;" d="M130.072,97.188c0,19.104-15.488,34.592-34.593,34.592	c-19.105,0-34.593-15.488-34.593-34.592c0-19.105,15.488-34.593,34.593-34.593C114.584,62.594,130.072,78.082,130.072,97.188	L130.072,97.188z"/><polygon style="fill-rule:evenodd;clip-rule:evenodd;fill:#922E43;" points="75.982,116.684 76.97,115.965 77.15,118.213	76.701,118.75 77.15,118.84 79.216,120.1 78.587,120.639 75.533,119.199 75.982,118.572 75.982,116.684	"/><polygon style="fill-rule:evenodd;clip-rule:evenodd;fill:#922E43;" points="78.784,115.5 79.849,114.9 79.768,117.152	79.259,117.637 79.695,117.777 81.602,119.268 80.914,119.729 78.046,117.947 78.565,117.375 78.784,115.5	"/><polygon style="fill-rule:evenodd;clip-rule:evenodd;fill:#922E43;" points="81.568,114.135 82.687,113.643 82.385,115.875	81.832,116.307 82.251,116.49 84.004,118.158 83.275,118.551 80.595,116.496 81.167,115.979 81.568,114.135	"/><polygon style="fill-rule:evenodd;clip-rule:evenodd;fill:#922E43;" points="84.949,113.117 86.081,112.658 85.714,114.881	85.148,115.295 85.562,115.49 87.265,117.211 86.524,117.582 83.906,115.451 84.494,114.949 84.949,113.117	"/><polygon style="fill-rule:evenodd;clip-rule:evenodd;fill:#922E43;" points="73.146,118.689 73.954,117.771 74.62,119.926	74.299,120.549 74.757,120.539 77.048,121.314 76.553,121.979 73.257,121.244 73.558,120.531 73.146,118.689	"/><polygon style="fill-rule:evenodd;clip-rule:evenodd;fill:#922E43;" points="71.052,120.395 71.956,119.572 72.379,121.785	71.992,122.371 72.448,122.412 74.639,123.436 73.825,124.232 71.759,122.436 71.052,120.395	"/><polygon style="fill-rule:evenodd;clip-rule:evenodd;fill:#922E43;" points="109.738,80.419 108.59,80.839 108.674,78.899	109.254,78.503 109.207,78.024 107.564,76.248 108.316,75.902 110.859,78.123 110.256,78.604 109.738,80.419	"/><polygon style="fill-rule:evenodd;clip-rule:evenodd;fill:#922E43;" points="112.672,79.065 111.59,79.634 111.734,77.385	112.258,76.917 111.826,76.763 109.961,75.221 110.66,74.778 113.479,76.64 112.943,77.198 112.672,79.065	"/><polygon style="fill-rule:evenodd;clip-rule:evenodd;fill:#922E43;" points="115.576,77.599 114.637,78.38 114.312,76.151	114.725,75.583 114.271,75.523 112.127,74.402 112.721,73.823 115.863,75.06 115.455,75.716 115.576,77.599	"/><polygon style="fill-rule:evenodd;clip-rule:evenodd;fill:#922E43;" points="118.086,76.184 117.07,76.865 116.977,74.613	117.447,74.092 117,73.985 114.982,72.649 115.633,72.134 118.631,73.688 118.158,74.299 118.086,76.184	"/><path style="fill-rule:evenodd;clip-rule:evenodd;fill:#922E43;" d="M120.459,74.095l-0.91,0.784l-0.35-2.671l-1.887-1.079	l0.18-0.539C118.84,71.22,120.01,72.837,120.459,74.095L120.459,74.095z"/><polygon style="fill-rule:evenodd;clip-rule:evenodd;fill:#922E43;" points="106.562,81.22 105.416,81.64 105.859,79.431	106.439,79.035 106.031,78.826 104.389,77.049 105.143,76.704 107.686,78.924 107.08,79.405 106.562,81.22	"/><polygon style="fill-rule:evenodd;clip-rule:evenodd;fill:#922E43;" points="115.965,117.223 117.492,117.404 114.707,118.75	113.719,118.213 113.629,118.66 113.5,120.572 112.371,120.1 112.73,117.492 114.258,117.674 115.965,117.223	"/><polygon style="fill-rule:evenodd;clip-rule:evenodd;fill:#922E43;" points="118.57,118.738 120.1,118.918 117.312,120.266	116.324,119.727 116.234,120.176 116.105,122.088 114.977,121.613 115.336,119.008 116.863,119.188 118.57,118.738	"/><polygon style="fill-rule:evenodd;clip-rule:evenodd;fill:#922E43;" points="112.451,115.656 113.973,115.441 111.623,117.453	110.529,117.184 110.557,117.641 110.918,119.521 109.705,119.352 109.391,116.74 110.914,116.525 112.451,115.656	"/><polygon style="fill-rule:evenodd;clip-rule:evenodd;fill:#922E43;" points="109.496,113.988 110.664,114.078 108.328,115.875	107.699,115.684 107.609,116.133 107.48,118.045 106.352,117.57 106.711,114.965 108.238,115.145 109.496,113.988	"/><polygon style="fill-rule:evenodd;clip-rule:evenodd;fill:#922E43;" points="82.182,80.564 80.654,80.205 82.99,78.677	83.822,78.795 83.952,78.356 84.252,76.464 85.333,77.037 84.742,79.6 83.237,79.284 82.182,80.564	"/><polygon style="fill-rule:evenodd;clip-rule:evenodd;fill:#922E43;" points="75.263,77.419 73.825,76.88 77.011,75.92	77.843,76.039 77.973,75.599 78.273,73.707 79.355,74.28 78.763,76.843 77.258,76.527 75.263,77.419	"/><polygon style="fill-rule:evenodd;clip-rule:evenodd;fill:#922E43;" points="78.893,78.97 77.458,78.334 80.036,77.265	80.832,77.535 81.041,77.126 81.685,75.323 82.643,76.085 81.587,78.495 80.167,77.906 78.893,78.97	"/><polygon style="fill-rule:evenodd;clip-rule:evenodd;fill:#922E43;" points="72.633,75.996 71.195,75.457 74.381,74.497	75.213,74.615 75.343,74.176 75.643,72.284 76.725,72.857 76.133,75.419 74.628,75.104 72.633,75.996	"/><polygon style="fill-rule:evenodd;clip-rule:evenodd;fill:#922E43;" points="69.961,74.185 71.399,72.837 72.967,73.087	73.097,72.648 73.397,70.756 74.479,71.329 73.887,73.892 72.381,73.576 69.961,74.185	"/><polygon style="fill-rule:evenodd;clip-rule:evenodd;fill:#3EA3AB;" points="83.889,85.596 95.39,14.075 95.39,97.098	83.889,85.596	"/><polygon style="fill-rule:evenodd;clip-rule:evenodd;fill:#3EA3AB;" points="83.889,108.777 12.367,97.277 95.39,97.277	83.889,108.777	"/><polygon style="fill-rule:evenodd;clip-rule:evenodd;fill:#D2D3D9;" points="107.25,108.777 178.771,97.277 95.749,97.277	107.25,108.777	"/><polygon style="fill-rule:evenodd;clip-rule:evenodd;fill:#D2D3D9;" points="106.891,85.956 95.39,14.434 95.39,97.457	106.891,85.956	"/><polygon style="fill-rule:evenodd;clip-rule:evenodd;fill:#D2D3D9;" points="84.068,108.598 95.569,180.119 95.569,97.098	84.068,108.598	"/><polygon style="fill-rule:evenodd;clip-rule:evenodd;fill:#3EA3AB;" points="107.07,108.598 95.569,180.119 95.569,97.098	107.07,108.598	"/><polygon style="fill-rule:evenodd;clip-rule:evenodd;fill:#3EA3AB;" points="107.25,85.776 178.771,97.277 95.749,97.277	107.25,85.776	"/><polygon style="fill-rule:evenodd;clip-rule:evenodd;fill:#D2D3D9;" points="83.889,85.776 12.367,97.277 95.39,97.277	83.889,85.776	"/></g></svg>