<?xml version="1.0" encoding="utf-8"?>
<!-- Generator: Adobe Illustrator 18.1.1, SVG Export Plug-In . SVG Version: 6.00 Build 0)  -->
<svg version="1.1" id="Layer_1" xmlns="http://www.w3.org/2000/svg" xmlns:xlink="http://www.w3.org/1999/xlink" x="0px" y="0px"
	 viewBox="-153 154.2 512 512" enable-background="new -153 154.2 512 512" xml:space="preserve">
<g>
	<polygon points="-153,154.2 359,154.2 359,666.2 -153,666.2 	"/>
	<path fill="#FFFFFF" d="M-32.3,437.2l-4.2,0.2c0.5,6,4.5,9.6,10.6,9.6c6.1,0,10.4-3.8,10.4-8.9c0-5.2-3.1-7.6-9.5-9.7
		c-1.9-0.7-3.8-1.1-5.3-2.2c-1.1-0.8-1.7-2.1-1.7-3.7c0-3,2.2-5.2,5.7-5.2c3.6,0,5.7,2,6.2,6.1h4.2c-0.3-6-4.2-9.6-10.4-9.6
		c-5.9,0-9.6,3.4-9.6,8.6c0,2.8,0.9,4.9,2.7,6.4c2.2,1.8,4.6,2.5,6.9,3.3c4.3,1.5,6.7,2.6,6.7,6.2c0,2.9-2.3,5-6.1,5
		C-29.9,443.3-32.3,441-32.3,437.2L-32.3,437.2z"/>
	<polygon fill="#FFFFFF" points="-3.8,446.4 12.8,446.4 12.8,442.6 0.4,442.6 0.4,431.9 12.8,431.9 12.8,428.2 0.4,428.2 0.4,418.2 
		12.8,418.2 12.8,414.4 -3.8,414.4 	"/>
	<path fill="#FFFFFF" d="M25.4,446.4h4.1v-11H33c6.7,0,11.2-4.3,11.2-10.4c0-6.3-4.5-10.5-12-10.5h-6.8L25.4,446.4L25.4,446.4z
		 M29.5,431.6v-13.4h2.6c5.1,0,7.8,2.3,7.8,6.6c0,4.3-2.6,6.8-7.1,6.8H29.5L29.5,431.6z"/>
	<polygon fill="#FFFFFF" points="54.1,446.4 58.2,446.4 58.2,431.8 75,431.8 75,446.4 79.1,446.4 79.1,414.4 75,414.4 75,428 
		58.2,428 58.2,414.4 54.1,414.4 	"/>
	<path fill="#FFFFFF" d="M106.5,447c4.7,0,8.5-1.5,11.6-4.4c3.2-3.1,4.9-7.3,4.9-12.2s-1.7-9.1-5-12.2c-3-2.9-6.8-4.4-11.5-4.4
		c-4.7,0-8.6,1.5-11.5,4.4c-3.2,3.1-5,7.4-5,12.2s1.7,9,4.9,12.2C98,445.5,101.8,447,106.5,447L106.5,447z M106.4,443.2
		c-3.5,0-6.3-1.1-8.5-3.4c-2.4-2.4-3.7-5.7-3.7-9.4c0-3.8,1.3-7,3.7-9.4c2.2-2.2,5.1-3.4,8.5-3.4c3.5,0,6.3,1.2,8.6,3.4
		c2.4,2.5,3.7,5.7,3.7,9.4c0,3.7-1.3,7-3.7,9.4C112.8,442.1,109.9,443.2,106.4,443.2L106.4,443.2z"/>
	<path fill="#FFFFFF" d="M134.4,446.4h4.1v-13l11.3,13h5.2L143.8,434h0.2c5.7,0,9.6-4.2,9.6-9.8c0-6-4.3-9.7-12.1-9.7h-7.3
		L134.4,446.4L134.4,446.4z M138.5,430.8v-12.6h2.8c5.4,0,8.1,2.2,8.1,6.1c0,4.2-2.7,6.6-7.9,6.6H138.5L138.5,430.8z"/>
	<path fill="#FFFFFF" d="M162,446.4h4.4l2.8-7.4h15l2.8,7.4h4.8l-13.4-31.9H175L162,446.4L162,446.4z M170.8,435.2l5.1-12.8
		c0.1-0.3,0.5-1.3,1-3c0.5,1.7,0.8,2.7,1,3l5,12.8H170.8L170.8,435.2z"/>
	<path fill="#FFFFFF" d="M202,444.2c0,1.4,1.3,2.7,2.7,2.7c1.5,0,2.7-1.2,2.7-2.7c0-1.5-1.2-2.6-2.7-2.6
		C203.2,441.6,202,442.8,202,444.2L202,444.2z"/>
	<path fill="#FFFFFF" d="M242.6,420.9l2.7-3c-2.9-2.7-6.7-4.1-11.2-4.1c-4.7,0-8.6,1.5-11.6,4.4c-3.2,3.1-4.9,7.4-4.9,12.2
		s1.7,9.1,4.9,12.2c3,2.9,6.9,4.4,11.6,4.4c4.6,0,8.4-1.5,11.5-4.4l-2.8-3c-2.1,2.4-5.1,3.6-8.7,3.6c-3.5,0-6.4-1.2-8.6-3.4
		c-2.4-2.5-3.7-5.7-3.7-9.4s1.3-7,3.7-9.4c2.2-2.2,5.1-3.4,8.6-3.4C237.7,417.6,240.5,418.8,242.6,420.9L242.6,420.9z"/>
	<path fill="#FFFFFF" d="M270.8,447c4.7,0,8.5-1.5,11.6-4.4c3.2-3.1,4.9-7.3,4.9-12.2s-1.8-9.1-5-12.2c-3-2.9-6.8-4.4-11.5-4.4
		c-4.7,0-8.6,1.5-11.5,4.4c-3.2,3.1-5,7.4-5,12.2s1.7,9,4.9,12.2C262.3,445.5,266.1,447,270.8,447L270.8,447z M270.8,443.2
		c-3.5,0-6.3-1.1-8.5-3.4c-2.4-2.4-3.7-5.7-3.7-9.4c0-3.8,1.3-7,3.7-9.4c2.2-2.2,5.1-3.4,8.5-3.4c3.5,0,6.3,1.2,8.6,3.4
		c2.4,2.5,3.7,5.7,3.7,9.4c0,3.7-1.3,7-3.7,9.4C277.1,442.1,274.2,443.2,270.8,443.2L270.8,443.2z"/>
	<path fill="#FFFFFF" d="M298.7,446.4h4.1l-0.2-22.3c0-1.2-0.2-2.4-0.6-3.6c0.3,1.1,0.8,2.1,1.5,3.3l12.3,22.9l11.9-22.4
		c0.6-1.2,1.2-2.6,1.8-4.2c-0.4,2.2-0.5,3.7-0.5,4.5l-0.3,21.7h4.2v-31.9h-4.2l-12.1,22.8c-0.4,0.8-0.7,1.7-0.8,2.6
		c-0.1-1-0.4-1.9-0.8-2.6l-12.1-22.8h-4.1L298.7,446.4L298.7,446.4z"/>
	<polygon fill="#FFFFFF" points="-126.8,373.1 -52.6,373.1 -52.6,447.4 -126.8,447.4 	"/>
	<path d="M-93.8,444.6c1.5-5,3-13.7,3.2-22.5c0.2-7.4-2.9-13.6-3-18.5c-0.3-7.3,5.9-23.5,8.1-27.8c-1.6,5.1-2.5,19.2-2.5,26.2
		c0,4.9,2.1,11.6,2.2,18.9C-85.9,429.8-91.5,440.2-93.8,444.6L-93.8,444.6z"/>
</g>
</svg>
