<?xml version="1.0" encoding="iso-8859-1"?><!-- Generator: Adobe Illustrator 16.0.0, SVG Export Plug-In . SVG Version: 6.00 Build 0) --><!DOCTYPE svg PUBLIC "-//W3C//DTD SVG 1.1//EN" "http://www.w3.org/Graphics/SVG/1.1/DTD/svg11.dtd"><svg version="1.1" id="Layer_1" xmlns="http://www.w3.org/2000/svg" xmlns:xlink="http://www.w3.org/1999/xlink" x="0px" y="0px" width="192.756px" height="192.756px" viewBox="0 0 192.756 192.756" style="enable-background:new 0 0 192.756 192.756;" xml:space="preserve"><g><polygon style="fill-rule:evenodd;clip-rule:evenodd;" points="0,0 192.756,0 192.756,192.756 0,192.756 0,0	"/><path style="fill-rule:evenodd;clip-rule:evenodd;fill:#FFFFFF;" d="M45.428,106.531l-1.586,0.062	c0.188,2.266,1.696,3.621,3.988,3.621c2.293,0,3.91-1.449,3.91-3.354c0-1.967-1.178-2.848-3.58-3.664	c-0.723-0.252-1.429-0.41-2.01-0.834c-0.408-0.299-0.628-0.787-0.628-1.385c0-1.148,0.833-1.951,2.136-1.951	c1.351,0,2.136,0.771,2.324,2.312h1.57c-0.11-2.264-1.57-3.617-3.91-3.617c-2.229,0-3.627,1.289-3.627,3.256	c0,1.039,0.346,1.855,1.021,2.406c0.832,0.693,1.743,0.928,2.606,1.227c1.633,0.551,2.513,0.992,2.513,2.328	c0,1.086-0.864,1.873-2.293,1.873C46.354,108.812,45.444,107.963,45.428,106.531L45.428,106.531z"/><polygon style="fill-rule:evenodd;clip-rule:evenodd;fill:#FFFFFF;" points="56.188,109.977 62.421,109.977 62.421,108.561	57.742,108.561 57.742,104.518 62.421,104.518 62.421,103.133 57.742,103.133 57.742,99.375 62.421,99.375 62.421,97.959	56.188,97.959 56.188,109.977	"/><path style="fill-rule:evenodd;clip-rule:evenodd;fill:#FFFFFF;" d="M67.151,109.977h1.555v-4.137h1.303	c2.512,0,4.208-1.637,4.208-3.918c0-2.359-1.681-3.963-4.507-3.963h-2.56V109.977L67.151,109.977z M68.706,104.408v-5.033h0.989	c1.916,0,2.921,0.881,2.921,2.484c0,1.605-0.989,2.549-2.67,2.549H68.706L68.706,104.408z"/><polygon style="fill-rule:evenodd;clip-rule:evenodd;fill:#FFFFFF;" points="77.973,109.977 79.528,109.977 79.528,104.486	85.825,104.486 85.825,109.977 87.379,109.977 87.379,97.959 85.825,97.959 85.825,103.07 79.528,103.07 79.528,97.959	77.973,97.959 77.973,109.977	"/><path style="fill-rule:evenodd;clip-rule:evenodd;fill:#FFFFFF;" d="M97.684,110.215c1.773,0,3.203-0.553,4.35-1.67	c1.209-1.18,1.852-2.754,1.852-4.578s-0.658-3.412-1.867-4.592c-1.115-1.086-2.576-1.652-4.334-1.652	c-1.759,0-3.22,0.566-4.334,1.652c-1.209,1.18-1.869,2.768-1.869,4.592s0.644,3.398,1.853,4.578	C94.479,109.662,95.924,110.215,97.684,110.215L97.684,110.215z M97.668,108.797c-1.304,0-2.372-0.426-3.204-1.275	c-0.911-0.912-1.382-2.154-1.382-3.555c0-1.416,0.471-2.643,1.382-3.555c0.816-0.834,1.916-1.273,3.204-1.273	c1.303,0,2.387,0.439,3.219,1.273c0.91,0.928,1.396,2.139,1.396,3.555c0,1.4-0.471,2.643-1.381,3.555	C100.07,108.371,98.971,108.797,97.668,108.797L97.668,108.797z"/><path style="fill-rule:evenodd;clip-rule:evenodd;fill:#FFFFFF;" d="M108.191,109.977h1.555v-4.893l4.271,4.893h1.963l-4.225-4.672	h0.094c2.152,0,3.611-1.574,3.611-3.697c0-2.266-1.602-3.648-4.537-3.648h-2.732V109.977L108.191,109.977z M109.746,104.125v-4.75	h1.051c2.043,0,3.062,0.816,3.062,2.279c0,1.574-1.035,2.471-2.982,2.471H109.746L109.746,104.125z"/><path style="fill-rule:evenodd;clip-rule:evenodd;fill:#FFFFFF;" d="M118.605,109.977h1.664l1.068-2.785h5.637l1.068,2.785h1.82	l-5.057-12.018h-1.303L118.605,109.977L118.605,109.977z M121.887,105.775l1.916-4.818c0.047-0.125,0.172-0.502,0.361-1.113	c0.188,0.643,0.314,1.004,0.361,1.113l1.885,4.818H121.887L121.887,105.775z"/><path style="fill-rule:evenodd;clip-rule:evenodd;fill:#FFFFFF;" d="M133.635,109.174c0,0.535,0.473,1.01,1.006,1.01	c0.549,0,1.004-0.459,1.004-1.01c0-0.566-0.439-0.99-1.004-0.99C134.09,108.184,133.635,108.623,133.635,109.174L133.635,109.174z"	/><path style="fill-rule:evenodd;clip-rule:evenodd;fill:#FFFFFF;" d="M148.949,100.396l1.004-1.133	c-1.1-1.021-2.512-1.541-4.207-1.541c-1.76,0-3.221,0.551-4.35,1.652c-1.211,1.18-1.854,2.768-1.854,4.592s0.643,3.414,1.854,4.594	c1.113,1.086,2.59,1.654,4.35,1.654c1.742,0,3.172-0.553,4.318-1.654l-1.037-1.117c-0.801,0.896-1.916,1.354-3.281,1.354	c-1.305,0-2.404-0.441-3.221-1.275c-0.91-0.928-1.381-2.139-1.381-3.555s0.471-2.627,1.381-3.555	c0.834-0.834,1.916-1.273,3.221-1.273C147.096,99.139,148.133,99.609,148.949,100.396L148.949,100.396z"/><path style="fill-rule:evenodd;clip-rule:evenodd;fill:#FFFFFF;" d="M159.551,110.215c1.775,0,3.203-0.553,4.35-1.67	c1.209-1.18,1.854-2.754,1.854-4.578s-0.66-3.412-1.869-4.592c-1.115-1.086-2.574-1.652-4.334-1.652	c-1.758,0-3.219,0.566-4.334,1.652c-1.209,1.18-1.869,2.768-1.869,4.592s0.645,3.398,1.854,4.578	C156.348,109.662,157.793,110.215,159.551,110.215L159.551,110.215z M159.535,108.797c-1.303,0-2.371-0.426-3.203-1.275	c-0.91-0.912-1.383-2.154-1.383-3.555c0-1.416,0.473-2.643,1.383-3.555c0.816-0.834,1.916-1.273,3.203-1.273	c1.303,0,2.387,0.439,3.219,1.273c0.912,0.928,1.398,2.139,1.398,3.555c0,1.4-0.471,2.643-1.383,3.555	C161.938,108.371,160.838,108.797,159.535,108.797L159.535,108.797z"/><path style="fill-rule:evenodd;clip-rule:evenodd;fill:#FFFFFF;" d="M170.059,109.977h1.555l-0.078-8.385	c0-0.439-0.078-0.896-0.221-1.369c0.127,0.41,0.314,0.803,0.551,1.26l4.615,8.639l4.492-8.418c0.234-0.457,0.455-0.977,0.66-1.59	c-0.143,0.834-0.205,1.385-0.205,1.699l-0.109,8.164h1.57V97.959h-1.586l-4.555,8.572c-0.156,0.299-0.25,0.629-0.283,0.99	c-0.047-0.393-0.141-0.707-0.297-0.99l-4.57-8.572h-1.539V109.977L170.059,109.977z"/><polygon style="fill-rule:evenodd;clip-rule:evenodd;fill:#FFFFFF;" points="9.861,82.38 37.81,82.38 37.81,110.375 9.861,110.375	9.861,82.38	"/><path style="fill-rule:evenodd;clip-rule:evenodd;" d="M22.289,109.326c0.566-1.885,1.125-5.174,1.199-8.469	c0.062-2.77-1.076-5.121-1.144-6.97c-0.101-2.755,2.218-8.841,3.039-10.458c-0.607,1.937-0.95,7.229-0.939,9.85	c0.008,1.849,0.793,4.365,0.812,7.134C25.279,103.742,23.167,107.639,22.289,109.326L22.289,109.326z"/></g></svg>