<?xml version="1.0" encoding="utf-8"?>
<!-- Generator: Adobe Illustrator 19.0.0, SVG Export Plug-In . SVG Version: 6.00 Build 0)  -->
<!DOCTYPE svg PUBLIC "-//W3C//DTD SVG 1.1//EN" "http://www.w3.org/Graphics/SVG/1.1/DTD/svg11.dtd">
<svg version="1.1" id="Layer_1" xmlns="http://www.w3.org/2000/svg" xmlns:xlink="http://www.w3.org/1999/xlink" x="0px" y="0px"
	 viewBox="0 0 2000 305" style="enable-background:new 0 0 2000 305;" xml:space="preserve">
<style type="text/css">
	.st0{fill:#F16B2E;}
	.st1{fill:#225165;}
	.st2{fill:#26A9E0;}
	.st3{display:none;fill:#F16B2E;}
	.st4{fill:#404041;}
</style>
<g>
	<g>
		<polygon class="st0" points="152.2,146 237.7,96.7 323.2,146 323.2,244.7 237.7,294.1 152.2,244.7 		"/>
		<polygon class="st1" points="194.5,39.5 142.5,9.5 90.4,39.5 90.4,99.6 142.5,129.7 194.5,99.6 		"/>
		<polygon class="st2" points="133,145.3 94,122.8 55,145.3 55,190.4 94,212.9 133,190.4 		"/>
		<polygon class="st3" points="67.3,45 38.1,28.1 8.9,45 8.9,78.8 38.1,95.6 67.3,78.8 		"/>
	</g>
	<g>
		<path class="st4" d="M395.6,259.8l16.6-26.3c11.8,12.1,34.9,23.5,56.7,23.5c21.8,0,32.9-9.3,32.9-22.5c0-32.9-101-9.3-101-73.3
			c0-27.3,23.5-50.9,65.7-50.9c28.4,0,49.8,10,65,23.5l-15.2,25.6c-10-11.4-28.7-20.1-49.5-20.1c-19,0-31.1,8.6-31.1,20.4
			c0,29.8,101,7.6,101,74c0,29.4-24.6,51.9-69.5,51.9C438.8,285.7,412.9,276.7,395.6,259.8z"/>
		<path class="st4" d="M559.9,71.6c0-12.5,10.4-22.5,22.5-22.5c12.5,0,22.5,10,22.5,22.5c0,12.5-10,22.5-22.5,22.5
			C570.3,94,559.9,84,559.9,71.6z M564.4,281.6V114.5h36.3v167.1H564.4z"/>
		<path class="st4" d="M653,281.6V146.3h-27.7v-31.8H653v-9.3c0-36.3,21.1-57.8,52.9-57.8c14.9,0,29.8,3.8,40.1,14.5l-14.2,22.5
			c-4.8-4.5-11.1-7.3-19.4-7.3c-14.2,0-23.2,9.3-23.2,28v9.3h33.9v31.8h-33.9v135.3H653z"/>
		<path class="st4" d="M749.5,242.8v-96.5h-27.7v-31.8h27.7V86.1l36.3-11.5v39.9h33.9v31.8h-33.9v87.5c0,11.4,5.5,19.7,15.9,19.7
			c6.9,0,13.5-2.8,16.3-5.9l8.6,27.3c-6.6,6.2-17.3,10.7-34.2,10.7C764.4,285.7,749.5,270.5,749.5,242.8z"/>
		<path class="st4" d="M892.4,259.8l16.6-26.3c11.8,12.1,34.9,23.5,56.7,23.5c21.8,0,32.9-9.3,32.9-22.5c0-32.9-101-9.3-101-73.3
			c0-27.3,23.5-50.9,65.7-50.9c28.4,0,49.8,10,65,23.5l-15.2,25.6c-10-11.4-28.7-20.1-49.5-20.1c-19,0-31.1,8.6-31.1,20.4
			c0,29.8,101,7.6,101,74c0,29.4-24.6,51.9-69.5,51.9C935.6,285.7,909.7,276.7,892.4,259.8z"/>
		<path class="st4" d="M1051.2,197.8c0-50.5,35.6-87.5,86.5-87.5c32.5,0,52.2,13.8,64,29.8l-23.9,22.1
			c-9.3-13.1-22.1-19.7-38.4-19.7c-30.4,0-50.5,22.8-50.5,55.4c0,32.5,20.1,55.7,50.5,55.7c16.3,0,29.1-6.9,38.4-19.7l23.9,22.1
			c-11.8,15.9-31.5,29.7-64,29.7C1086.8,285.7,1051.2,248.7,1051.2,197.8z"/>
		<path class="st4" d="M1220.3,71.6c0-12.5,10.4-22.5,22.5-22.5c12.4,0,22.5,10,22.5,22.5c0,12.5-10,22.5-22.5,22.5
			C1230.7,94,1220.3,84,1220.3,71.6z M1224.8,281.6V114.5h36.3v167.1H1224.8z"/>
		<path class="st4" d="M1289.2,197.8c0-48.4,35.3-87.5,84.8-87.5c50.2,0,82.3,38.4,82.3,91v8.6h-129c2.8,25.3,21.8,46,53.3,46
			c16.3,0,35.6-6.6,47.4-18.3l16.6,23.9c-16.6,15.9-41.2,24.2-67.8,24.2C1326.5,285.7,1289.2,250.8,1289.2,197.8z M1373.9,140.1
			c-31.1,0-45.3,23.9-47.1,44.3h94.1C1420.3,164.6,1406.8,140.1,1373.9,140.1z"/>
		<path class="st4" d="M1596.4,281.6V177.1c0-25.9-13.1-34.6-33.6-34.6c-18.7,0-34.6,11.1-42.9,22.5v116.6h-36.3V114.5h36.3v22.8
			c11.1-13.1,32.5-27,58.8-27c36,0,54,19.4,54,53.6v117.6H1596.4z"/>
		<path class="st4" d="M1660.7,197.8c0-50.5,35.6-87.5,86.5-87.5c32.5,0,52.2,13.8,64,29.8l-23.9,22.1
			c-9.3-13.1-22.1-19.7-38.4-19.7c-30.4,0-50.5,22.8-50.5,55.4c0,32.5,20.1,55.7,50.5,55.7c16.3,0,29.1-6.9,38.4-19.7l23.9,22.1
			c-11.8,15.9-31.5,29.7-64,29.7C1696.4,285.7,1660.7,248.7,1660.7,197.8z"/>
		<path class="st4" d="M1824,197.8c0-48.4,35.3-87.5,84.8-87.5c50.2,0,82.3,38.4,82.3,91v8.6h-129c2.8,25.3,21.8,46,53.3,46
			c16.3,0,35.6-6.6,47.4-18.3l16.6,23.9c-16.6,15.9-41.2,24.2-67.8,24.2C1861.4,285.7,1824,250.8,1824,197.8z M1908.8,140.1
			c-31.1,0-45.3,23.9-47.1,44.3h94.1C1955.1,164.6,1941.6,140.1,1908.8,140.1z"/>
	</g>
	<polygon class="st0" points="71.7,39.5 42.4,22.6 13.2,39.5 13.2,73.3 42.4,90.2 71.7,73.3 	"/>
</g>
</svg>
