<?xml version="1.0" encoding="utf-8"?>
<!-- Generator: Adobe Illustrator 19.2.0, SVG Export Plug-In . SVG Version: 6.00 Build 0)  -->
<svg version="1.1" id="Layer_1" xmlns="http://www.w3.org/2000/svg" xmlns:xlink="http://www.w3.org/1999/xlink" x="0px" y="0px"
	 viewBox="0 0 378.3 98.1" style="enable-background:new 0 0 378.3 98.1;" xml:space="preserve">
<style type="text/css">
	.st0{fill:#3E3935;}
	.st1{fill:#0076A9;}
</style>
<path class="st0" d="M113.8,79.3H109c-4.7,0-10.4-2-10.4-11.7v-4h10v4.3c0,1.6,0.7,2.3,2.4,2.3h1.4c1.2,0,1.9-0.4,1.9-2.3V58
	c0-1.1-0.3-1.3-0.3-1.3c-0.3-0.2-0.8-0.7-1.9-1.3l-7.3-4.1c-1.7-0.9-2.9-1.6-3.7-2.3c-0.9-0.7-1.5-1.7-1.9-2.8
	c-0.4-1.1-0.5-2.4-0.5-4V30.3c0-7.2,3.6-11,10.4-11h4.8c6.8,0,10.4,3.8,10.4,11V37h-10v-6.2c0-1.7-0.6-2.3-2.3-2.3h-1.2
	c-1.3,0-2.2,0.4-2.2,2.3v9.6c0,1.1,0.3,1.3,0.3,1.3c0.3,0.2,0.8,0.7,1.9,1.3l7.3,3.9c1.7,1,2.9,1.7,3.6,2.2c0.8,0.6,1.4,1.4,1.9,2.2
	c0.5,0.9,0.7,2.4,0.7,4.7v12.3C124.2,75.5,120.6,79.3,113.8,79.3"/>
<path class="st0" d="M144.2,79.3h-10V19.2h10V79.3z"/>
<path class="st0" d="M190.4,79.3h-10l0.6-27.2l-3.5,16.7h-7.8l-3.5-16.7l0.6,27.2h-10V19.2h10.6l6.3,29.7l6.3-29.7h10.6V79.3z"/>
<path class="st0" d="M215.7,79.3H211c-4.7,0-10.4-2-10.4-11.7v-4h10v4.3c0,1.6,0.7,2.3,2.4,2.3h1.4c1.2,0,1.9-0.4,1.9-2.3V58
	c0-1.1-0.3-1.3-0.3-1.3c-0.3-0.2-0.8-0.7-1.9-1.3l-7.3-4.1c-1.7-0.9-2.9-1.6-3.7-2.3c-0.9-0.7-1.5-1.7-1.9-2.8
	c-0.4-1.1-0.5-2.4-0.5-4V30.3c0-7.2,3.6-11,10.4-11h4.8c6.8,0,10.4,3.8,10.4,11V37h-10v-6.2c0-1.7-0.6-2.3-2.3-2.3h-1.2
	c-1.3,0-2.2,0.4-2.2,2.3v9.6c0,1.1,0.3,1.3,0.3,1.3c0.3,0.2,0.8,0.6,1.9,1.3L220,47c1.7,1,2.9,1.7,3.6,2.2c0.8,0.6,1.4,1.4,1.9,2.2
	c0.5,0.9,0.7,2.4,0.7,4.7v12.3C226.2,75.5,222.6,79.3,215.7,79.3"/>
<path class="st0" d="M251.2,79.3h-5c-6.8,0-10.4-3.8-10.4-10.9V30.2c0-7.2,3.6-10.9,10.4-10.9h5c6.8,0,10.4,3.8,10.4,10.9v7.6h-10
	v-7.1c0-1.6-0.7-2.3-2.4-2.3h-1.5c-1.2,0-1.9,0.4-1.9,2.3v37.1c0,1.9,0.7,2.3,1.9,2.3h1.9c1.2,0,1.9-0.4,1.9-2.3v-4.3h10v4.8
	C261.6,75.5,258,79.3,251.2,79.3"/>
<path class="st0" d="M297.4,79.3h-10V58.1h-6.6v21.2h-10v-49c0-7.2,3.6-11,10.4-11h5.8c6.8,0,10.4,3.8,10.4,11V79.3z M280.8,48.9
	h6.6V30.7c0-1.6-0.6-2.3-2.3-2.3h-2.1c-1.6,0-2.3,0.6-2.3,2.3V48.9z"/>
<path class="st0" d="M330.1,79.3h-20.6V19.2h10v50.8h10.6V79.3z"/>
<path class="st0" d="M359.6,79.3h-21.4V19.2h21.4v9.2h-11.4v15.3h10.2V53h-10.2v17h11.4V79.3z"/>
<path class="st1" d="M48.4,45.8c-10.1,9.3-24.3,14-29.1,15.4V68c9.1-1.7,22.1-5.2,33.4-12.1c6.7-4.2,19-12.8,26.7-24.2l0,0l0-12.4
	l-12.3,0C65.9,22.3,59.9,35.2,48.4,45.8"/>
<path class="st0" d="M54.3,58.6c-12,7.2-25.6,10.8-35,12.6v6.7l0.1,0c3.4-0.3,21.9-2.4,36.5-9.4c11.3-5.4,21.6-14.6,23.5-16.4
	l0-15.2C71.5,47,60.5,54.7,54.3,58.6"/>
<path class="st0" d="M46.3,43.6c9.8-9.1,15.5-20.1,17.5-24.2l-34.4,0c-5.6,0-10.1,4.5-10.1,10.1v28.6C24.5,56.5,37.4,51.9,46.3,43.6
	"/>
<path class="st0" d="M57.2,71.2c-9.2,4.4-19.6,6.9-27.3,8.3h26.8h12.6c5.6,0,10.1-4.5,10.1-10.1l0-13.2
	C75.4,59.7,66.8,66.6,57.2,71.2"/>
</svg>
