<?xml version="1.0" encoding="utf-8"?>
<!-- Generator: Adobe Illustrator 16.0.0, SVG Export Plug-In . SVG Version: 6.00 Build 0)  -->
<!DOCTYPE svg PUBLIC "-//W3C//DTD SVG 1.1//EN" "http://www.w3.org/Graphics/SVG/1.1/DTD/svg11.dtd">
<svg version="1.1" id="Layer_1" xmlns="http://www.w3.org/2000/svg" xmlns:xlink="http://www.w3.org/1999/xlink" x="0px" y="0px"
	 width="150px" height="150px" viewBox="0 0 150 150" enable-background="new 0 0 150 150" xml:space="preserve">
<path fill="#6ED79A" d="M108.655,94.431c-0.173,0.293-0.427,0.541-0.731,0.717l-2.363,1.353l-29.592,16.971
	c-0.615,0.354-1.373,0.354-1.989,0L52.051,100.9c-1.336-0.766-1.341-2.689-0.009-3.464l14.657-8.508
	c0.618-0.358,1.378-0.36,1.998-0.006l5.282,3.027c0.616,0.354,1.373,0.354,1.989-0.001l14.325-8.217l-12.278-7.129
	c-1.33-0.772-1.316-2.695,0.017-3.462l28.041-16.065c1.333-0.766,3.102,0.196,3.102,1.734v32.288v0.406v1.908
	c0,0.364-0.225,0.714-0.404,1.019 M41.282,55.57c0.172-0.293,0.428-0.542,0.732-0.716l2.364-1.354l29.592-16.97
	c0.615-0.354,1.374-0.354,1.99,0l21.928,12.57c1.336,0.766,1.342,2.69,0.01,3.464l-14.657,8.509
	c-0.617,0.358-1.378,0.36-1.997,0.005l-5.283-3.027c-0.616-0.353-1.373-0.353-1.989,0l-14.325,8.218l12.279,7.128
	c1.331,0.772,1.314,2.695-0.02,3.462L43.93,92.924c-1.333,0.766-3.039-0.196-3.039-1.733V58.902v-0.407v-1.907
	c0-0.365,0.163-0.715,0.341-1.019 M75,2C34.684,2,2,34.683,2,75c0,40.316,32.684,73,73,73s73-32.684,73-73
	C148,34.683,115.316,2,75,2"/>
</svg>
