<?xml version="1.0" encoding="utf-8"?>
<!-- Generator: Adobe Illustrator 16.0.4, SVG Export Plug-In . SVG Version: 6.00 Build 0)  -->
<!DOCTYPE svg PUBLIC "-//W3C//DTD SVG 1.1//EN" "http://www.w3.org/Graphics/SVG/1.1/DTD/svg11.dtd">
<svg version="1.1" id="Vrstva_1" xmlns="http://www.w3.org/2000/svg" xmlns:xlink="http://www.w3.org/1999/xlink" x="0px" y="0px"
	 width="448.676px" height="56.158px" viewBox="0 0 448.676 56.158" enable-background="new 0 0 448.676 56.158"
	 xml:space="preserve">
<g>
	<path fill="#00BAFF" d="M24.539,15.54l-2.52,5.1c-2.82-1.74-6.36-2.82-9.18-2.82c-2.7,0-4.68,0.9-4.68,3.18
		c0,5.881,16.979,2.7,16.919,14.279c0,6.541-5.82,9.48-12.239,9.48c-4.68,0-9.66-1.561-12.84-4.439l2.46-4.92
		c2.76,2.459,7.2,3.959,10.68,3.959c2.94,0,5.22-1.02,5.22-3.42c0-6.539-16.799-2.879-16.739-14.398c0-6.48,5.64-9.24,11.76-9.24
		C17.399,12.299,21.659,13.5,24.539,15.54z"/>
	<path fill="#00BAFF" d="M85.377,24.659v19.859h-6.899V26.579c0-4.859-2.88-7.799-7.56-7.799c-5.459,0.18-8.759,4.379-8.759,9.959
		v15.779h-6.9V26.579c0-4.859-2.82-7.799-7.5-7.799c-5.52,0.18-8.88,4.379-8.88,9.959v15.779h-6.84V12.599h6.84v6.181
		c2.22-4.5,6.3-6.42,11.58-6.42c5.7,0,9.6,2.819,11.1,7.68c2.04-5.34,6.3-7.68,12.12-7.68C80.997,12.36,85.377,17.04,85.377,24.659z
		"/>
	<path fill="#00BAFF" d="M113.759,40.618c-2.28,2.82-5.94,4.2-10.56,4.2c-6.9,0-11.22-4.26-11.22-9.899c0-5.82,4.38-9.539,12.06-9.6
		h9.66v-0.96c0-4.021-2.58-6.42-7.62-6.42c-3.06,0-6.24,1.08-9.42,3.24l-2.82-4.8c4.44-2.641,7.68-4.02,13.739-4.02
		c8.22,0,12.84,4.199,12.9,11.219l0.06,20.939h-6.779V40.618z M113.699,33.298v-2.939h-8.64c-4.5,0-6.6,1.2-6.6,4.26
		c0,2.88,2.34,4.739,6.18,4.739C109.559,39.358,113.338,36.778,113.699,33.298z"/>
	<path fill="#00BAFF" d="M136.679,18.959c2.16-4.32,6-6.6,11.04-6.6v6.6c-6.42-0.36-10.5,3.42-11.04,8.879v16.68h-6.899V12.599
		h6.899V18.959z"/>
	<path fill="#00BAFF" d="M171.479,42.478c-2.52,1.5-5.16,2.34-7.859,2.34c-4.8,0-8.94-2.76-8.94-9.3V18.959h-4.499v-5.16h4.499V5.04
		h6.84v8.76h9.42v5.16h-9.42v15.299c0,3.3,1.26,4.32,3.42,4.32c1.44,0,2.94-0.48,4.8-1.381L171.479,42.478z"/>
	<path fill="#00BAFF" d="M231.177,24.659v19.859h-6.899V26.579c0-4.859-2.88-7.799-7.56-7.799c-5.46,0.18-8.76,4.379-8.76,9.959
		v15.779h-6.899V26.579c0-4.859-2.82-7.799-7.5-7.799c-5.52,0.18-8.88,4.379-8.88,9.959v15.779h-6.84V12.599h6.84v6.181
		c2.22-4.5,6.3-6.42,11.579-6.42c5.7,0,9.6,2.819,11.1,7.68c2.04-5.34,6.3-7.68,12.12-7.68
		C226.797,12.36,231.177,17.04,231.177,24.659z"/>
	<path fill="#00BAFF" d="M270.718,28.559c0,9.6-6.779,16.199-16.619,16.199c-9.899,0-16.68-6.6-16.68-16.199
		c0-9.66,6.78-16.199,16.68-16.199C263.938,12.36,270.718,18.899,270.718,28.559z M244.319,28.619c0,6.18,4.02,10.38,9.779,10.38
		c5.7,0,9.72-4.2,9.72-10.38c0-6.12-4.02-10.319-9.72-10.319C248.339,18.299,244.319,22.499,244.319,28.619z"/>
	<path fill="#00BAFF" d="M304.198,17.579l-3.78,4.44c-2.22-2.28-5.279-3.66-9.119-3.601c-5.52,0-9.479,4.141-9.479,10.2
		s3.96,10.2,9.479,10.2c4.02,0,7.26-1.32,9.419-3.84l3.84,3.84c-2.88,3.779-7.499,5.939-13.559,5.939
		c-9.48,0-16.08-6.54-16.08-16.14c0-9.659,6.6-16.259,16.08-16.259C296.759,12.36,301.258,14.219,304.198,17.579z"/>
	<path fill="#00BAFF" d="M318.958,35.579v8.939h-6.9V0h6.9v26.879l14.099-14.28h7.92l-11.819,12.36l12.72,19.559h-8.16l-9.359-14.64
		L318.958,35.579z"/>
	<path fill="#00BAFF" d="M376.436,44.518h-6.899v-6.24c-2.16,4.44-6.18,6.42-11.399,6.48c-7.319,0-11.699-4.68-11.699-12.3V12.599
		h6.899v17.939c0,4.8,2.82,7.739,7.439,7.739c5.521-0.119,8.76-4.379,8.76-9.959v-15.72h6.899V44.518z"/>
	<path fill="#00BAFF" d="M420.236,28.678c0,9.54-6,16.08-15.119,16.08c-5.1,0-8.939-2.04-11.279-5.76v17.159h-6.9V12.599h6.9v5.521
		c2.34-3.721,6.18-5.76,11.159-5.76C414.057,12.36,420.236,18.959,420.236,28.678z M413.276,28.439c0-5.94-4.02-10.319-9.719-10.319
		c-5.7,0-9.72,4.319-9.72,10.319c0,6.18,4.02,10.439,9.72,10.439C409.257,38.878,413.276,34.559,413.276,28.439z"/>
	<path fill="#00BAFF" d="M448.136,15.54l-2.52,5.1c-2.82-1.74-6.36-2.82-9.18-2.82c-2.7,0-4.68,0.9-4.68,3.18
		c0,5.881,16.979,2.7,16.919,14.279c0,6.541-5.819,9.48-12.239,9.48c-4.68,0-9.66-1.561-12.84-4.439l2.46-4.92
		c2.76,2.459,7.2,3.959,10.68,3.959c2.939,0,5.22-1.02,5.22-3.42c0-6.539-16.799-2.879-16.739-14.398c0-6.48,5.64-9.24,11.76-9.24
		C440.996,12.299,445.256,13.5,448.136,15.54z"/>
</g>
</svg>
