<svg xmlns="http://www.w3.org/2000/svg" x="0px" y="0px" width="475px" height="160px" viewBox="0 0 475 160"><g fill-rule="evenodd" clip-rule="evenodd" fill="#00BC66"><path d="M64.03,70.373c-12.219,0-22.125,10.31-22.125,23.027 c0,20.816,24.676,30.001,17.701,46.139c11.321-7.824,26.55-30.067,26.55-46.139C86.155,80.683,76.249,70.373,64.03,70.373z M64.03,98.829c-4.888,0-8.85-4.023-8.85-8.986c0-4.963,3.962-8.986,8.85-8.986c4.888,0,8.85,4.023,8.85,8.986 C72.88,94.806,68.918,98.829,64.03,98.829z"/><path d="M78.78,71.871l-2.95-50.922h-23.6l-2.95,50.922 c0,0,4.892-4.493,14.75-4.493C73.888,67.378,78.78,71.871,78.78,71.871z"/></g><g fill-rule="evenodd" clip-rule="evenodd" fill="#00BC66"><path d="M64.1,70.53c-12.258,0-22.195,10.342-22.195,23.1 c0,20.882,24.754,30.097,17.757,46.286c11.357-7.848,26.634-30.162,26.634-46.286C86.295,80.872,76.358,70.53,64.1,70.53z M64.1,99.076c-4.903,0-8.878-4.036-8.878-9.015c0-4.979,3.975-9.015,8.878-9.015c4.903,0,8.878,4.036,8.878,9.015 C72.978,95.041,69.003,99.076,64.1,99.076z"/><path d="M78.897,72.033l-2.959-51.083H52.263l-2.959,51.083 c0,0,4.908-4.508,14.797-4.508C73.989,67.525,78.897,72.033,78.897,72.033z"/></g><g fill="#333"><path d="M120.152 52.03c-1.231-2.27-3.137-3.425-5.714-3.463-1.5 0-2.75.461-3.751 1.385-1.001.923-1.483 2.018-1.443 3.289 0 .923.451 1.751 1.356 2.481.903.732 2.337 1.25 4.299 1.557 4.656.808 8.032 2.377 10.128 4.704 2.098 2.329 3.146 4.992 3.146 7.994 0 3.309-1.25 6.243-3.751 8.8-2.502 2.559-5.618 3.837-9.35 3.837-5.925-.076-10.33-3.076-13.215-9.003l5.828-2.943c1.809 3.732 4.309 5.597 7.503 5.597 1.847.04 3.442-.605 4.789-1.933 1.347-1.326 2.02-2.875 2.02-4.645.038-1.191-.482-2.376-1.557-3.55-1.079-1.172-2.983-2.01-5.714-2.511-3.694-.538-6.522-1.663-8.485-3.376-1.963-1.711-2.943-3.759-2.943-6.145-.078-2.847.923-5.472 3-7.878 2.079-2.405 4.829-3.607 8.254-3.607 4.808.114 8.387 2.386 10.733 6.809L120.152 52.03zM158.818 81.924h-5.426l-14.774-26.201v26.201h-6.118V43.257h6.118l14.082 24.701V43.257h6.118V81.924zM194.884 81.924h-6.463l-3.808-10.85h-12.062l-3.808 10.85h-6.522l13.274-38.667h6.118L194.884 81.924zM182.42 64.841l-3.808-10.85-3.924 10.85H182.42zM224.26 81.924h-26.315v-5.54l17.947-27.009h-16.447v-6.118h24.815v5.597l-18.237 26.837h18.237V81.924zM254.558 81.924h-26.315v-5.54l17.947-27.009h-16.447v-6.118h24.815v5.597l-18.237 26.837h18.237V81.924zM291.148 43.257L277.759 65.13v16.794h-6.118V65.13l-13.563-21.873h7.33l9.234 14.947 9.35-14.947H291.148zM340.203 81.924h-6.118V59.531l-8.946 22.393-8.946-22.393v22.393h-6.118V43.257h6.118l8.946 21.699 8.946-21.699h6.118V81.924zM376.672 81.924h-6.463l-3.81-10.85h-12.06l-3.808 10.85h-6.522l13.274-38.667h6.116L376.672 81.924zM364.207 64.841l-3.808-10.85-3.922 10.85H364.207zM393.064 65.13h-7.33v16.794h-6.118V43.257h12.755c2.846 0 5.136.413 6.867 1.24 1.732.829 3.145 2.147 4.241 3.953 1.098 1.809 1.646 3.693 1.646 5.656 0 2.039-.442 3.886-1.328 5.54-.884 1.654-2.221 2.991-4.011 4.011C397.999 64.678 395.757 65.168 393.064 65.13zM398.951 54.222c0-1.5-.453-2.655-1.356-3.461-.905-.808-1.914-1.231-3.031-1.271h-8.946v9.523h9.176c1.155 0 2.136-.423 2.944-1.269C398.547 56.897 398.951 55.723 398.951 54.222zM425.15 52.03c-1.231-2.27-3.137-3.425-5.714-3.463-1.5 0-2.75.461-3.751 1.385-1.001.923-1.483 2.018-1.443 3.289 0 .923.451 1.751 1.356 2.481.903.732 2.337 1.25 4.299 1.557 4.656.808 8.032 2.377 10.128 4.704 2.098 2.329 3.146 4.992 3.146 7.994 0 3.309-1.25 6.243-3.751 8.8-2.502 2.559-5.618 3.837-9.35 3.837-5.925-.076-10.329-3.076-13.215-9.003l5.828-2.943c1.809 3.732 4.309 5.597 7.503 5.597 1.847.04 3.442-.605 4.789-1.933 1.347-1.326 2.02-2.875 2.02-4.645.038-1.191-.482-2.376-1.557-3.55-1.079-1.172-2.982-2.01-5.714-2.511-3.693-.538-6.522-1.663-8.484-3.376-1.963-1.711-2.943-3.759-2.943-6.145-.078-2.847.922-5.472 3-7.878 2.079-2.405 4.829-3.607 8.254-3.607 4.808.114 8.387 2.386 10.733 6.809L425.15 52.03z"/></g><g fill="#5AD1B6"><path d="M104.658 96.512h11.07v1.233h-9.651v8.079h8.141v1.233h-8.141v9.775h-1.418V96.512zM118.438 102.032h1.172l.123 2.745h.092c.987-1.821 2.436-3.114 4.193-3.114.555 0 .987.061 1.481.307l-.309 1.235c-.494-.185-.772-.248-1.356-.248-1.326 0-2.899 1.018-4.04 3.794v10.081h-1.356V102.032zM133.112 101.662c3.515 0 5.674 2.497 5.674 6.844 0 .369 0 .74-.062 1.11h-10.668c.061 3.732 2.251 6.414 5.58 6.414 1.604 0 2.868-.525 3.978-1.326l.555 1.049c-1.172.709-2.497 1.448-4.656 1.448-3.792 0-6.844-2.898-6.844-7.739C126.668 104.622 129.812 101.662 133.112 101.662zM137.49 108.569c0-3.792-1.696-5.736-4.347-5.736-2.528 0-4.779 2.19-5.088 5.736H137.49zM148 101.662c3.515 0 5.674 2.497 5.674 6.844 0 .369 0 .74-.063 1.11h-10.668c.061 3.732 2.251 6.414 5.58 6.414 1.604 0 2.868-.525 3.978-1.326l.555 1.049c-1.172.709-2.497 1.448-4.656 1.448-3.792 0-6.844-2.898-6.844-7.739C141.556 104.622 144.7 101.662 148 101.662zM152.378 108.569c0-3.792-1.696-5.736-4.347-5.736-2.528 0-4.779 2.19-5.088 5.736H152.378zM162.761 114.149c1.264 1.049 2.591 1.881 4.718 1.881 2.312 0 3.515-1.358 3.515-2.93 0-1.848-1.913-2.651-3.607-3.267-2.252-.803-4.718-1.696-4.718-4.224 0-2.159 1.696-3.947 4.779-3.947 1.573 0 3.145.647 4.224 1.541l-.74.956c-.987-.741-2.034-1.327-3.544-1.327-2.282 0-3.331 1.327-3.331 2.683 0 1.635 1.727 2.344 3.484 2.991 2.313.864 4.841 1.633 4.841 4.533 0 2.22-1.788 4.162-4.994 4.162-2.19 0-4.101-.924-5.427-2.034L162.761 114.149zM176.634 103.204h-2.311v-1.049l2.343-.123.186-4.286h1.172v4.286h4.285v1.172h-4.285v9.65c0 1.881.461 3.146 2.497 3.146.555 0 1.326-.217 1.85-.463l.369 1.11c-.864.309-1.788.555-2.405.555-2.866 0-3.7-1.819-3.7-4.47V103.204zM185.326 122.32c1.819 0 3.052-1.665 3.792-3.915l.4-1.295-6.074-15.077h1.481l3.576 9.312c.463 1.233 1.049 2.837 1.604 4.132h.123c.463-1.295.956-2.899 1.358-4.132l3.175-9.312h1.387l-5.857 16.65c-.832 2.466-2.313 4.902-4.964 4.902-.555 0-1.11-.123-1.51-.309l.309-1.202C184.431 122.196 184.894 122.32 185.326 122.32zM199.351 94.662h1.356v20.382c0 .647.277.955.648.955.123 0 .246 0 .555-.062l.246 1.11c-.277.094-.555.154-.987.154-1.203 0-1.819-.739-1.819-2.343V94.662zM211.867 101.662c3.515 0 5.674 2.497 5.674 6.844 0 .369 0 .74-.062 1.11h-10.668c.061 3.732 2.251 6.414 5.58 6.414 1.604 0 2.868-.525 3.978-1.326l.555 1.049c-1.172.709-2.497 1.448-4.656 1.448-3.792 0-6.844-2.898-6.844-7.739C205.423 104.622 208.567 101.662 211.867 101.662zM216.245 108.569c0-3.792-1.696-5.736-4.347-5.736-2.528 0-4.779 2.19-5.088 5.736H216.245zM220.495 114.149c1.264 1.049 2.591 1.881 4.718 1.881 2.312 0 3.515-1.358 3.515-2.93 0-1.848-1.913-2.651-3.609-3.267-2.251-.803-4.717-1.696-4.717-4.224 0-2.159 1.696-3.947 4.779-3.947 1.573 0 3.146.647 4.224 1.541l-.74.956c-.987-.741-2.034-1.327-3.546-1.327-2.28 0-3.329 1.327-3.329 2.683 0 1.635 1.727 2.344 3.484 2.991 2.313.864 4.841 1.633 4.841 4.533 0 2.22-1.788 4.162-4.996 4.162-2.188 0-4.099-.924-5.426-2.034L220.495 114.149zM245.836 95.897c-.617-.309-1.235-.432-1.79-.432-1.573 0-2.311 1.233-2.311 3.361v3.206h3.421v1.172h-3.421v13.628h-1.358v-13.628h-2.034v-1.049l2.034-.123v-3.3c0-2.929 1.326-4.439 3.669-4.439.678 0 1.481.186 2.159.493L245.836 95.897zM253.357 101.662c3.576 0 6.659 2.835 6.659 7.8 0 4.902-3.083 7.739-6.659 7.739-3.546 0-6.629-2.837-6.629-7.739C246.727 104.497 249.811 101.662 253.357 101.662zM253.357 115.999c2.99 0 5.24-2.651 5.24-6.537 0-3.915-2.251-6.598-5.24-6.598-2.991 0-5.211 2.683-5.211 6.598C248.146 113.348 250.365 115.999 253.357 115.999zM264.451 102.032h1.172l.123 2.745h.092c.987-1.821 2.436-3.114 4.193-3.114.555 0 .987.061 1.481.307l-.309 1.235c-.494-.185-.772-.248-1.356-.248-1.327 0-2.899 1.018-4.04 3.794v10.081h-1.356V102.032zM288.094 96.143c2.745 0 4.439 1.295 5.519 2.435l-.832.926c-1.049-1.141-2.467-2.065-4.687-2.065-4.656 0-7.524 3.544-7.524 9.187 0 5.643 2.745 9.282 7.37 9.282 1.819 0 3.546-.555 4.533-1.543v-6.32h-4.841v-1.202h6.197v8.048c-1.264 1.356-3.361 2.312-6.012 2.312-5.211 0-8.725-4.101-8.725-10.576C279.091 100.181 282.729 96.143 288.094 96.143zM303.383 101.662c3.576 0 6.659 2.835 6.659 7.8 0 4.902-3.083 7.739-6.659 7.739-3.546 0-6.629-2.837-6.629-7.739C296.754 104.497 299.837 101.662 303.383 101.662zM303.383 115.999c2.99 0 5.24-2.651 5.24-6.537 0-3.915-2.251-6.598-5.24-6.598-2.991 0-5.211 2.683-5.211 6.598C298.172 113.348 300.392 115.999 303.383 115.999zM319.102 101.662c3.576 0 6.659 2.835 6.659 7.8 0 4.902-3.083 7.739-6.659 7.739-3.546 0-6.629-2.837-6.629-7.739C312.473 104.497 315.556 101.662 319.102 101.662zM319.102 115.999c2.989 0 5.24-2.651 5.24-6.537 0-3.915-2.251-6.598-5.24-6.598-2.991 0-5.211 2.683-5.211 6.598C313.891 113.348 316.111 115.999 319.102 115.999zM330.381 116.276v-.123c-.74-.432-1.295-1.233-1.295-2.374 0-1.327.955-2.251 1.604-2.714v-.123c-.926-.803-1.85-2.282-1.85-4.07 0-3.054 2.313-5.211 5.211-5.211.801 0 1.481.184 1.942.369h5.027v1.141h-3.454c.955.832 1.635 2.159 1.635 3.73 0 3.022-2.251 5.211-5.15 5.211-.832 0-1.788-.215-2.466-.616-.648.524-1.203 1.141-1.203 2.128 0 1.079.617 1.942 2.837 1.942h3.175c3.331 0 4.873 1.049 4.873 3.392 0 2.559-2.745 4.994-6.998 4.994-3.732 0-6.074-1.602-6.074-4.099C328.193 118.559 329.025 117.263 330.381 116.276zM334.42 122.843c3.331 0 5.459-1.88 5.459-3.73 0-1.635-1.203-2.251-3.423-2.251h-3.175c-.309 0-1.08-.062-1.85-.246-1.358.924-1.944 2.065-1.944 3.112C329.487 121.579 331.276 122.843 334.42 122.843zM337.874 106.873c0-2.499-1.727-4.101-3.823-4.101-2.096 0-3.855 1.573-3.855 4.101 0 2.497 1.789 4.162 3.855 4.162C336.086 111.035 337.874 109.37 337.874 106.873zM344.437 94.662h1.356v20.382c0 .647.277.955.648.955.123 0 .246 0 .555-.062l.246 1.11c-.277.094-.555.154-.987.154-1.202 0-1.819-.739-1.819-2.343V94.662zM356.953 101.662c3.515 0 5.674 2.497 5.674 6.844 0 .369 0 .74-.063 1.11h-10.668c.061 3.732 2.251 6.414 5.58 6.414 1.604 0 2.868-.525 3.978-1.326l.555 1.049c-1.172.709-2.497 1.448-4.656 1.448-3.792 0-6.844-2.898-6.844-7.739C350.51 104.622 353.654 101.662 356.953 101.662zM361.332 108.569c0-3.792-1.696-5.736-4.347-5.736-2.528 0-4.779 2.19-5.088 5.736H361.332zM372.825 96.512h1.973l4.255 11.932 1.604 4.503h.123l1.573-4.503 4.224-11.932h2.005v20.319h-1.387v-13.35c0-1.665.092-3.792.184-5.488h-.123l-1.573 4.47-4.378 12.148h-1.233l-4.378-12.148-1.604-4.47h-.123c.062 1.696.154 3.823.154 5.488v13.35h-1.295V96.512zM401.495 107.551c.062-2.251-.586-4.687-3.484-4.687-2.005 0-3.732.987-4.718 1.727l-.616-1.018c1.047-.74 3.083-1.911 5.488-1.911 3.515 0 4.685 2.528 4.685 5.703v9.466h-1.141l-.153-1.911h-.062c-1.51 1.202-3.3 2.28-5.242 2.28-2.343 0-4.316-1.264-4.316-4.07C391.937 109.862 394.928 108.291 401.495 107.551zM396.47 116.03c1.696 0 3.206-.832 5.025-2.405v-5.027c-6.074.709-8.139 2.128-8.139 4.472C393.355 115.198 394.774 116.03 396.47 116.03zM408.734 118.127v5.396h-1.356v-21.491h1.172l.123 1.85h.092c1.45-1.141 3.206-2.219 5.025-2.219 3.947 0 5.92 2.96 5.92 7.553 0 5.025-3.052 7.985-6.535 7.985-1.387 0-2.899-.678-4.441-1.819V118.127zM413.113 115.999c2.991 0 5.15-2.774 5.15-6.784 0-3.638-1.295-6.352-4.687-6.352-1.481 0-3.052.864-4.841 2.436v8.786C410.43 115.475 411.972 115.999 413.113 115.999zM423.097 114.149c1.264 1.049 2.591 1.881 4.718 1.881 2.311 0 3.515-1.358 3.515-2.93 0-1.848-1.913-2.651-3.608-3.267-2.251-.803-4.717-1.696-4.717-4.224 0-2.159 1.696-3.947 4.779-3.947 1.573 0 3.146.647 4.224 1.541l-.74.956c-.987-.741-2.034-1.327-3.546-1.327-2.28 0-3.329 1.327-3.329 2.683 0 1.635 1.727 2.344 3.484 2.991 2.313.864 4.841 1.633 4.841 4.533 0 2.22-1.788 4.162-4.996 4.162-2.188 0-4.099-.924-5.426-2.034L423.097 114.149z"/></g></svg>