<?xml version="1.0" encoding="utf-8"?>
<!-- Generator: Adobe Illustrator 19.2.1, SVG Export Plug-In . SVG Version: 6.00 Build 0)  -->
<svg version="1.1" id="Layer_1" xmlns="http://www.w3.org/2000/svg" xmlns:xlink="http://www.w3.org/1999/xlink" x="0px" y="0px"
	 viewBox="0 0 383.1 101.5" style="enable-background:new 0 0 383.1 101.5;" xml:space="preserve">
<style type="text/css">
	.st0{fill:#7C154D;}
	.st1{fill:#9D2463;}
	.st2{fill:#901F5B;}
	.st3{fill:#FFFFFF;}
	.st4{fill:#414042;}
</style>
<polygon class="st0" points="81.2,0 0,0 0,81.2 40.6,81.2 60.9,101.5 60.9,81.2 81.2,81.2 "/>
<polygon class="st1" points="81.2,81.2 81.2,0 0,0 "/>
<polygon class="st2" points="0,0 0,81.2 40.6,40.6 "/>
<path class="st3" d="M70.8,34.8c-0.5-5.7-5-10-10.4-10.6c-1.6-6.6-7.8-11.2-14.8-10.6c-4,0.3-7.6,2.4-10,5.6
	c-1.6,2.1-3.9,3.4-6.6,3.6c-0.7,0.1-1.5,0-2.4-0.1c-1.2-0.2-2.4-0.2-3.6-0.1h0c-7.7,0.7-13.4,7.5-12.7,15.1
	c0.6,6.9,6.1,12.2,12.7,12.7l1.5,17l3.3-1.9c4.9-2.9,10.3-4.6,16-5.1c5.7-0.5,11.3,0.3,16.6,2.2l3.6,1.3L62.5,47
	C67.7,45.4,71.3,40.4,70.8,34.8 M59.7,42.7c-0.8,0.1-1.5,0-2.4-0.2l1.3,14.6c-4.9-1.4-10-1.8-15.2-1.4c-5.2,0.5-10.1,1.8-14.7,4
	l-1.3-14.6c-0.9,0.3-1.5,0.5-2.4,0.5c-5.1,0.4-9.5-3.3-10-8.4c-0.4-5.1,3.3-9.5,8.4-10h0c0.8-0.1,1.6,0,2.3,0.1
	c1.2,0.2,2.5,0.3,3.6,0.2c4.1-0.4,7.6-2.3,10-5.6c1.6-2.1,4-3.4,6.6-3.6c5.1-0.4,9.5,3.3,10,8.4c0.3,3.8-1.8,7.5-5.2,9.1l3.5,3.5
	c3.6-2.3,6-6.1,6.4-10.3c2.8,0.7,5,3.1,5.3,6.1C66.3,39,63.5,42.4,59.7,42.7"/>
<path class="st4" d="M150,40.6c0,2.1-0.3,4.1-0.9,5.8c-0.6,1.7-1.5,3.2-2.6,4.5c-1.1,1.2-2.5,2.2-4.1,2.9c-1.6,0.7-3.4,1-5.3,1
	c-1.9,0-3.7-0.3-5.2-1c-1.6-0.7-2.9-1.6-4.1-2.9c-1.1-1.2-2-2.7-2.6-4.5c-0.6-1.8-1-3.7-1-5.8c0-2.1,0.3-4.1,1-5.8
	c0.6-1.7,1.5-3.2,2.7-4.5c1.1-1.2,2.5-2.2,4.1-2.9c1.6-0.7,3.3-1,5.2-1c1.9,0,3.6,0.3,5.2,1c1.6,0.7,3,1.6,4.1,2.9
	c1.1,1.2,2,2.7,2.7,4.5C149.7,36.6,150,38.5,150,40.6 M143.6,40.6c0-2.7-0.6-4.8-1.7-6.4c-1.2-1.6-2.8-2.3-4.8-2.3
	c-2.1,0-3.7,0.8-4.8,2.3c-1.2,1.6-1.7,3.7-1.7,6.4c0,2.7,0.6,4.9,1.7,6.4c1.1,1.6,2.8,2.4,4.8,2.4c2.1,0,3.7-0.8,4.8-2.4
	C143.1,45.5,143.6,43.3,143.6,40.6 M187.6,19.3c0,1.2-0.4,2.1-1.1,2.8c-0.8,0.7-1.6,1-2.7,1c-1.1,0-2-0.3-2.7-1
	c-0.8-0.7-1.1-1.6-1.1-2.8c0-1.2,0.4-2.1,1.1-2.8c0.8-0.7,1.7-1,2.7-1c1,0,1.9,0.3,2.7,1C187.3,17.2,187.6,18.1,187.6,19.3
	 M258.8,40.7c0,2.2-0.3,4.1-1,5.8c-0.6,1.7-1.5,3.2-2.7,4.4c-1.2,1.2-2.6,2.2-4.3,2.8c-1.7,0.6-3.6,1-5.7,1c-2.1,0-4-0.2-5.9-0.5
	c-1.9-0.3-3.4-0.7-4.7-1V15.8l6.2-1.1v13.4c0.7-0.4,1.6-0.7,2.7-1c1-0.3,2.2-0.5,3.5-0.5c1.9,0,3.6,0.3,5.1,1
	c1.5,0.7,2.7,1.6,3.7,2.9c1,1.2,1.8,2.7,2.3,4.4C258.5,36.7,258.8,38.6,258.8,40.7 M252.4,40.6c0-2.6-0.5-4.7-1.6-6.3
	c-1-1.5-2.7-2.3-5-2.3c-1,0-2,0.2-2.9,0.5c-0.9,0.3-1.6,0.7-2.2,1V49c0.5,0.1,1,0.2,1.7,0.3c0.7,0.1,1.6,0.1,2.5,0.1
	c2.3,0,4.1-0.8,5.4-2.3C251.8,45.5,252.4,43.3,252.4,40.6 M296.6,37.7c0.8-0.8,1.6-1.7,2.5-2.6c0.9-0.9,1.8-1.9,2.6-2.8
	c0.9-0.9,1.7-1.9,2.4-2.7c0.8-0.9,1.4-1.6,2-2.3h7.4c-1.7,1.9-3.5,3.9-5.4,6c-1.9,2.1-3.8,4.1-5.7,6c1,0.9,2.1,1.9,3.2,3.1
	c1.1,1.2,2.2,2.5,3.3,3.9c1.1,1.4,2.1,2.7,3,4.1c0.9,1.4,1.7,2.6,2.3,3.8H307c-0.6-1.1-1.3-2.2-2.1-3.3c-0.8-1.2-1.7-2.3-2.6-3.4
	c-0.9-1.1-1.9-2.1-2.8-3.1c-1-1-1.9-1.8-2.8-2.5v12.3h-6.2V15.9l6.2-1.1V37.7z M226.9,54.1V14.8l-6.2,1.1v38.2H226.9z M186.9,54.1
	V26.5l-6.2,1.1v26.5H186.9z M120.2,43.9c-0.3-0.9-0.8-1.6-1.5-2.3c-0.7-0.7-1.5-1.3-2.5-1.8c-1-0.5-2.3-1.1-3.8-1.6
	c-0.9-0.3-1.6-0.6-2.3-0.9c-0.6-0.3-1.1-0.6-1.5-0.9c-0.4-0.3-0.6-0.6-0.8-1c-0.2-0.3-0.2-0.7-0.2-1.2c0-0.9,0.4-1.5,1.2-2
	c0.8-0.4,1.8-0.6,3.1-0.6c1.4,0,2.6,0.1,3.7,0.4c1.1,0.3,1.9,0.5,2.6,0.8l1.1-5c-0.7-0.3-1.8-0.6-3.2-0.8c-1.4-0.3-3-0.4-4.5-0.4
	c-3.1,0-5.6,0.7-7.4,2.1c-1.8,1.4-2.7,3.4-2.7,5.8c0,1.3,0.2,2.3,0.6,3.2c0.4,0.9,0.9,1.6,1.6,2.2c0.7,0.6,1.5,1.2,2.4,1.6
	c0.9,0.5,2,0.9,3.1,1.3c1.9,0.7,3.2,1.3,4,1.9c0.8,0.6,1.2,1.3,1.2,2.2c0,1-0.4,1.6-1.1,2c-0.8,0.4-2,0.6-3.6,0.6
	c-1.6,0-3.1-0.2-4.4-0.5c-1.2-0.3-2.3-0.7-3.2-1l-1.2,5.2c0.6,0.2,1.6,0.6,3,0.9c1.4,0.4,3.3,0.6,5.7,0.6c3.5,0,6.2-0.7,8.1-2
	c1.9-1.3,2.9-3.3,2.9-5.8C120.7,45.7,120.5,44.7,120.2,43.9 M174,48.4c-0.7,0.3-1.5,0.5-2.4,0.7c-1,0.2-2.1,0.3-3.1,0.3
	c-2.8,0-4.9-0.8-6.1-2.3c-1.2-1.6-1.8-3.7-1.8-6.4c0-2.8,0.6-4.9,1.9-6.5c1.3-1.5,3.1-2.3,5.6-2.3c1,0,2,0.1,2.9,0.3
	c0.9,0.2,1.7,0.5,2.4,0.8l1.2-5.2c-2.2-0.9-4.6-1.3-7-1.3c-2.1,0-3.9,0.4-5.6,1.1c-1.6,0.7-3,1.7-4.2,3c-1.1,1.3-2,2.8-2.6,4.5
	c-0.6,1.7-0.9,3.6-0.9,5.6c0,2,0.3,3.9,0.8,5.6c0.5,1.7,1.4,3.2,2.5,4.5c1.1,1.2,2.5,2.2,4.2,2.9c1.7,0.7,3.7,1.1,6,1.1
	c1.5,0,2.9-0.1,4.3-0.4c1.4-0.3,2.4-0.6,3.1-0.9L174,48.4z M213.4,32.8c-0.4-1.3-1-2.4-1.8-3.4c-0.8-0.9-2-1.6-3.4-2.2
	c-1.4-0.5-3.1-0.8-5.2-0.8c-1.7,0-3.3,0.1-4.8,0.4c-1.5,0.3-2.6,0.5-3.4,0.8l1.1,4.9c0.7-0.2,1.6-0.4,2.6-0.6c1.2-0.2,2.5-0.3,4-0.3
	c1.1,0,1.9,0.1,2.6,0.4c0.7,0.3,1.3,0.7,1.7,1.2c0.4,0.5,0.7,1.1,0.9,1.7c0.2,0.7,0.3,1.3,0.3,2.1v1c-0.9-0.2-1.7-0.4-2.4-0.4
	c-0.8-0.1-1.5-0.1-2.2-0.1c-1.5,0-2.9,0.1-4.2,0.4c-1.3,0.3-2.5,0.8-3.6,1.4c-1,0.7-1.8,1.5-2.4,2.6c-0.6,1.1-0.9,2.4-0.9,3.9
	c0,1.6,0.3,3,0.8,4.1c0.5,1.1,1.3,2,2.2,2.7c0.9,0.7,2.1,1.2,3.4,1.5c1.3,0.3,2.8,0.5,4.4,0.5c2.4,0,4.6-0.1,6.6-0.4
	c1.9-0.3,3.4-0.5,4.3-0.7V37.2C214,35.6,213.8,34.2,213.4,32.8 M208,49.4c-1,0.2-2.5,0.3-4.4,0.3c-1.6,0-2.8-0.3-3.8-0.9
	c-0.9-0.6-1.4-1.6-1.4-3.1c0-0.8,0.2-1.4,0.5-1.9c0.3-0.5,0.8-0.9,1.4-1.2c0.6-0.3,1.2-0.5,1.9-0.6c0.7-0.1,1.4-0.2,2.1-0.2
	c0.8,0,1.5,0.1,2.2,0.2c0.7,0.1,1.1,0.2,1.5,0.3V49.4z M283.8,32.8c-0.4-1.3-1-2.4-1.8-3.4c-0.8-0.9-2-1.6-3.4-2.2
	c-1.4-0.5-3.1-0.8-5.2-0.8c-1.7,0-3.3,0.1-4.8,0.4c-1.5,0.3-2.6,0.5-3.4,0.8l1.1,4.9c0.7-0.2,1.6-0.4,2.6-0.6c1.2-0.2,2.5-0.3,4-0.3
	c1.1,0,1.9,0.1,2.6,0.4c0.7,0.3,1.3,0.7,1.7,1.2c0.4,0.5,0.7,1.1,0.9,1.7c0.2,0.7,0.3,1.3,0.3,2.1v1c-0.8-0.2-1.7-0.4-2.4-0.4
	c-0.8-0.1-1.5-0.1-2.2-0.1c-1.5,0-2.9,0.1-4.2,0.4c-1.4,0.3-2.5,0.8-3.6,1.4c-1,0.7-1.8,1.5-2.4,2.6c-0.6,1.1-0.9,2.4-0.9,3.9
	c0,1.6,0.3,3,0.8,4.1c0.5,1.1,1.3,2,2.2,2.7c0.9,0.7,2.1,1.2,3.4,1.5c1.3,0.3,2.8,0.5,4.4,0.5c2.4,0,4.6-0.1,6.6-0.4
	c1.9-0.3,3.4-0.5,4.3-0.7V37.2C284.3,35.6,284.1,34.2,283.8,32.8 M278.3,49.4c-1,0.2-2.5,0.3-4.4,0.3c-1.6,0-2.8-0.3-3.8-0.9
	c-0.9-0.6-1.4-1.6-1.4-3.1c0-0.8,0.2-1.4,0.5-1.9c0.3-0.5,0.8-0.9,1.4-1.2c0.6-0.3,1.2-0.5,1.9-0.6c0.7-0.1,1.4-0.2,2.1-0.2
	c0.8,0,1.5,0.1,2.2,0.2c0.6,0.1,1.1,0.2,1.5,0.3V49.4z M336.5,30c-2.1-2.3-5-3.4-8.7-3.4c-1.6,0-3.1,0.3-4.6,0.9
	c-1.5,0.6-2.8,1.5-4,2.7c-1.2,1.2-2.1,2.7-2.8,4.4c-0.7,1.8-1.1,3.9-1.1,6.2c0,2,0.3,3.9,0.8,5.6c0.6,1.7,1.4,3.2,2.5,4.4
	c1.1,1.2,2.6,2.2,4.3,2.9c1.8,0.7,3.8,1.1,6.2,1.1c0.9,0,1.8,0,2.7-0.2c0.9-0.1,1.7-0.2,2.5-0.4c0.8-0.2,1.5-0.3,2.1-0.5
	c0.6-0.2,1.1-0.4,1.4-0.5l-1.1-5c-0.7,0.3-1.6,0.5-2.7,0.7c-1.3,0.3-2.6,0.4-4.1,0.4c-2.6,0-4.5-0.6-5.9-1.8c-1.4-1.2-2.1-2.9-2.3-5
	h17.7c0-0.3,0.1-0.7,0.1-1.2c0-0.4,0-0.8,0-1.2C339.6,35.7,338.5,32.3,336.5,30 M321.8,38c0.1-0.8,0.3-1.6,0.6-2.3
	c0.3-0.8,0.7-1.4,1.2-2c0.5-0.6,1.1-1.1,1.8-1.4c0.7-0.4,1.6-0.5,2.5-0.5c0.9,0,1.7,0.2,2.4,0.5c0.7,0.3,1.2,0.8,1.7,1.3
	c0.5,0.6,0.8,1.2,1.1,2c0.2,0.8,0.4,1.6,0.4,2.4H321.8z M361.1,27.6L361.1,27.6c-0.3-0.2-0.7-0.3-1.2-0.4c-0.5-0.1-1-0.2-1.6-0.3
	c-0.5-0.1-1.1-0.2-1.6-0.2c-0.5,0-1-0.1-1.4-0.1c-2.2,0-4.2,0.2-6,0.6c-1.8,0.4-3.3,0.8-4.5,1.3v25.6h6.2V32.6
	c0.3-0.1,0.8-0.2,1.6-0.4c0.8-0.1,1.5-0.2,2.2-0.2c1.2,0,2.2,0.1,3.2,0.3c0.9,0.2,1.5,0.3,2,0.5L361.1,27.6z M382.6,43.9
	c-0.3-0.9-0.8-1.6-1.5-2.3c-0.7-0.7-1.5-1.3-2.5-1.8c-1-0.5-2.3-1.1-3.8-1.6c-0.9-0.3-1.6-0.6-2.3-0.9c-0.6-0.3-1.1-0.6-1.5-0.9
	c-0.4-0.3-0.6-0.6-0.8-1c-0.2-0.3-0.2-0.7-0.2-1.2c0-0.9,0.4-1.5,1.2-2c0.8-0.4,1.8-0.6,3.1-0.6c1.4,0,2.6,0.1,3.7,0.4
	c1.1,0.3,1.9,0.5,2.6,0.8l1.1-5c-0.7-0.3-1.8-0.6-3.2-0.8c-1.4-0.3-2.9-0.4-4.5-0.4c-3.1,0-5.6,0.7-7.4,2.1
	c-1.8,1.4-2.7,3.4-2.7,5.8c0,1.3,0.2,2.3,0.6,3.2c0.4,0.9,0.9,1.6,1.6,2.2c0.7,0.6,1.5,1.2,2.4,1.6c0.9,0.5,2,0.9,3.1,1.3
	c1.8,0.7,3.2,1.3,4,1.9c0.8,0.6,1.2,1.3,1.2,2.2c0,1-0.4,1.6-1.1,2c-0.8,0.4-2,0.6-3.6,0.6c-1.6,0-3.1-0.2-4.4-0.5
	c-1.2-0.3-2.3-0.7-3.2-1l-1.2,5.2c0.6,0.2,1.6,0.6,3,0.9c1.4,0.4,3.3,0.6,5.7,0.6c3.5,0,6.2-0.7,8.2-2c1.9-1.3,2.9-3.3,2.9-5.8
	C383.1,45.7,382.9,44.7,382.6,43.9"/>
</svg>
