<?xml version="1.0" encoding="utf-8"?><!-- Generator: Adobe Illustrator 16.0.0, SVG Export Plug-In . SVG Version: 6.00 Build 0) --><!DOCTYPE svg PUBLIC "-//W3C//DTD SVG 1.1//EN" "http://www.w3.org/Graphics/SVG/1.1/DTD/svg11.dtd"><svg version="1.1" id="Layer_1" xmlns="http://www.w3.org/2000/svg" xmlns:xlink="http://www.w3.org/1999/xlink" x="0px" y="0px" width="595.279px" height="153.33px" viewBox="-76 344.28 595.279 153.33" enable-background="new -76 344.28 595.279 153.33" xml:space="preserve"><rect x="-76" y="344.28" fill="none" width="595.279" height="153.33"/><g><path fill="#00B675" d="M116.714,350.895c0-2.405-2.104-4.51-4.51-4.51H98.676v120.259h18.038V350.895z"/><path fill="#00B675" d="M157.603,377.652c0,0-12.928-0.601-26.457,5.712v15.934c0,0,11.424-5.412,25.254-5.412	c8.719,0,19.843,2.706,19.843,17.438h-18.64c-19.242,0-33.673,9.32-33.673,28.562c0,15.333,9.621,28.862,29.163,28.862	c15.032,0,22.849-7.517,22.849-7.517v5.713h18.039v-55.62C193.981,387.272,179.249,377.652,157.603,377.652z M175.942,443.493	c0,0-8.719,9.02-20.144,9.02c-11.123,0-13.229-7.816-13.229-12.627s1.504-12.627,15.634-12.627c2.405,0,17.738,0,17.738,0V443.493z	"/><path fill="#00B675" d="M91.761,423.05c0-22.248-12.026-45.398-41.188-45.398c-29.163,0-41.188,23.15-41.188,45.398	s12.326,45.397,41.188,45.397C79.735,468.447,91.761,445.298,91.761,423.05z M28.024,423.05c0-18.64,9.32-29.463,22.549-29.463	S73.12,404.41,73.12,423.05c0,18.64-9.02,29.162-22.548,29.162C37.344,452.513,28.024,441.689,28.024,423.05z"/><rect x="347.01" y="379.756" fill="#00B675" width="18.038" height="86.887"/><path fill="#00B675" d="M420.367,452.212c-7.216,0-12.627-2.705-12.627-10.823v-45.397h23.751l-6.614-16.235H407.74v-18.039	c0-2.405-2.104-4.51-4.51-4.51h-13.529v22.548h-15.634v16.235h15.634v48.705v0.301c0,10.522,6.614,23.45,27.659,23.45	c11.425,0,18.941-3.308,21.646-4.51c-0.901-2.706-4.81-11.726-5.712-14.131C429.387,451.311,425.178,452.212,420.367,452.212z"/><path fill="#00B675" d="M220.739,411.324c0-14.731,11.124-17.438,19.843-17.438c2.705,0,5.411,0.301,8.117,0.602	c0.301-3.307,0.901-6.313,1.503-9.02c0.602-2.405,1.203-4.51,1.804-6.614c-7.516-1.503-12.928-1.203-12.928-1.203	c-21.646,0-36.378,9.621-36.378,33.672v55.319h18.039V411.324z"/><path fill="#00B675" d="M500.941,379.756l-24.653,61.032l-24.052-61.032h-18.339l33.371,82.678l-14.431,33.973h15.333	c1.804,0,3.307-0.901,3.908-2.405l47.201-114.246H500.941z"/><path fill="#00B675" d="M310.33,468.447c13.83,0,25.855-5.111,27.961-5.712v-18.039c-4.811,2.104-14.732,6.313-27.66,6.313	c-6.313,0-34.574-2.706-34.574-44.796s27.96-45.397,34.574-45.397c10.223,0,17.438,3.006,21.346,4.509	c0.602-1.804,6.313-16.235,6.313-16.235c-2.104-0.3-13.228-4.81-27.659-4.81c-10.222,0-54.718,4.81-54.718,62.234	C255.914,464.238,298.906,468.447,310.33,468.447z"/><rect x="347.01" y="352.097" fill="#00B675" width="18.038" height="18.339"/><path fill="#00B675" d="M-33.308,397.194c-15.333-3.908-23.149-7.215-23.149-17.438c0-8.117,3.607-17.738,22.548-17.738	c11.726,0,21.947,3.607,26.457,5.712c1.203-2.405,6.614-16.235,6.614-16.235s-12.928-7.215-33.672-7.215	c-23.451,0-41.188,12.627-41.188,36.078c0,22.849,16.535,29.463,36.679,33.973c16.234,3.607,23.149,7.517,23.149,18.038	c0,9.922-4.209,18.641-25.855,18.641c-20.744,0-34.273-8.117-34.273-8.117v18.038c5.712,3.909,19.542,7.817,33.371,7.817	c34.274,0,45.999-18.34,45.999-36.679C3.37,408.017-13.165,401.403-33.308,397.194z"/></g></svg>