<?xml version="1.0" encoding="utf-8"?>
<!-- Generator: Adobe Illustrator 12.0.0, SVG Export Plug-In . SVG Version: 6.00 Build 51448)  -->
<!DOCTYPE svg PUBLIC "-//W3C//DTD SVG 1.1//EN" "http://www.w3.org/Graphics/SVG/1.1/DTD/svg11.dtd" [
	<!ENTITY ns_svg "http://www.w3.org/2000/svg">
	<!ENTITY ns_xlink "http://www.w3.org/1999/xlink">
]>
<svg  version="1.1" id="Layer_1" xmlns="&ns_svg;" xmlns:xlink="&ns_xlink;" width="666.291" height="202.335"
	 viewBox="0 0 666.291 202.335" overflow="visible" enable-background="new 0 0 666.291 202.335" xml:space="preserve">
<g>
	<path fill-rule="evenodd" clip-rule="evenodd" fill="#FFFFFF" d="M608.299,103.101c3.867-1.289,18.043-2.578,18.043-2.578
		l-3.867-14.176c-2.578-9.021-5.156-20.621-9.02-30.93v-1.289c0-1.289,6.441-25.775,6.441-25.775l2.578-9.021
		c1.289,0,1.289-2.578,1.289-3.867c0-3.867-2.578-10.311-11.598-12.889c-10.313-1.289-19.332-2.576-30.934-1.289
		c-15.465,1.289-29.641,9.023-37.371,21.91c0-9.02,0-21.91,0-21.91H393.076c0,0,0,14.178,0,15.467
		c-10.313-11.6-25.777-16.754-43.82-15.467c-12.889,1.289-24.486,5.156-33.508,12.891c1.289-1.289,2.578-6.445,2.578-6.445
		l-12.889-2.578l0,0L293.84,2.575c-7.734-1.289-15.465-1.289-24.488-1.289c-11.598,1.289-27.063,3.867-36.086,15.467
		c-2.576,5.154-5.152,11.6-6.441,19.332l0,0c0-1.289-12.889-18.043-38.664-28.354c-30.93-10.309-56.705-10.309-88.926,0
		C74.748,14.177,56.707,30.931,46.396,39.95c-21.91-5.154-36.086-3.865-42.529,3.865C1.289,47.683,0,51.548,0,56.704
		c0,11.6,5.156,24.488,10.311,33.508c-1.287,3.867-2.578,10.311-2.578,19.33v6.445c1.291,10.309,5.154,19.332,7.734,25.777
		c-3.867,2.578-5.156,6.441-5.156,11.598c0,11.598,11.6,19.332,27.064,20.621c14.176,12.887,29.641,20.621,46.396,21.906
		c20.621,1.293,36.086-5.152,46.395-9.02l7.732-2.578c10.311-2.578,24.486-3.863,33.508-2.578
		c27.064,2.578,38.664,9.023,38.664,9.023l15.465,11.598l2.578-19.332l1.287-3.863c0-7.734-2.576-21.91-14.176-38.664
		c-3.867-5.156-7.734-9.023-12.887-12.887c10.309-2.578,21.906-1.293,23.197-1.293c0,2.578,0,12.891,0,12.891s18.041,0,21.908,0
		c0,5.156,0,55.418,0,55.418h54.129c0,0,0-50.262,0-55.418c3.865,0,10.311,0,12.887,0c0,5.156,0,55.418,0,55.418h72.172h51.551
		c0,0,2.574-11.602,2.574-14.176c2.582,0,5.156,0,7.734,0c1.289,2.574,3.867,14.176,3.867,14.176h175.27
		C627.627,194.604,609.588,108.257,608.299,103.101L608.299,103.101z M475.557,105.679c5.152,0,16.754,0,16.754,0s5.152,0,9.02,0
		c-1.289,5.152-7.734,32.219-10.309,45.105C487.154,139.187,478.135,110.831,475.557,105.679L475.557,105.679z M400.807,143.05
		c0-10.309,0-20.617,0-20.617l0,0c0,0,0-12.891,0-16.754c2.578,0,5.156,0,5.156,0s3.863,0,7.73,0
		C412.404,110.831,405.963,127.589,400.807,143.05L400.807,143.05z M194.604,60.571c10.311-3.867,23.197-5.154,23.197-5.154
		s7.734-1.289,11.6-1.289c1.289,3.865,3.865,7.732,6.443,10.309c0,2.578-5.154,18.043-5.154,18.043s0,3.867-1.289,6.445
		c-5.156-6.445-10.311-12.887-16.754-18.043C207.49,67.015,201.047,63.149,194.604,60.571L194.604,60.571z"/>
	<path fill-rule="evenodd" clip-rule="evenodd" fill="#0065AD" d="M95.369,100.522c-6.443,1.289-6.443,9.02-5.154,19.332
		c1.289,11.598,5.154,19.332,11.598,18.043c6.445,0,6.445-9.023,5.156-19.332S103.102,100.522,95.369,100.522L95.369,100.522z"/>
	<path fill-rule="evenodd" clip-rule="evenodd" fill="#0065AD" d="M228.113,113.409c0,0-3.869-18.041-23.199-33.506
		c-18.043-12.889-37.375-11.6-37.375-11.6s5.156-10.311,19.332-18.043c12.889-6.445,30.93-7.73,30.93-7.73
		s-11.598-14.178-34.795-23.199c-28.354-10.311-51.551-10.311-79.904-1.289c-30.932,10.311-52.84,34.797-52.84,34.797
		s-30.93-9.023-36.086-1.291c-6.443,7.736,9.023,37.377,9.023,37.377s-3.867,9.021-2.58,25.773
		c1.291,18.043,11.602,30.934,11.602,30.934l0,0c-5.156,1.285-10.311,3.863-10.311,7.73s7.732,7.734,16.754,7.734
		c1.289,0,2.578,0,3.867,0l0,0c9.02,9.02,21.908,20.617,41.24,21.906c24.486,1.289,39.951-7.73,50.262-10.309
		c11.598-3.867,28.352-3.867,38.662-3.867c30.93,3.867,43.816,11.602,43.816,11.602s1.289-14.18-11.598-33.512
		c-10.311-14.176-30.932-19.328-30.932-19.328s10.311-9.023,23.199-11.602C213.936,112.124,228.113,113.409,228.113,113.409
		L228.113,113.409z M32.221,135.319c-2.578-5.156-3.867-10.309-5.156-25.777c0-7.73,2.578-16.75,6.443-18.041
		c5.156-1.289,5.156,7.734,7.734,15.467c0,2.574,2.576,6.441,3.865,10.309c-1.289-1.289-1.289-1.289-1.289,0
		c-3.865,0-5.154,7.734-2.576,16.754c1.289,5.156,3.865,10.313,6.443,11.602c-2.578,0-5.154-1.289-9.021-1.289
		c0,0-1.289,0-1.289,1.289C36.086,143.05,33.508,139.187,32.221,135.319L32.221,135.319z M112.123,135.319
		c-6.443,12.887-16.754,16.754-28.352,16.754c-11.602,0-19.332-6.441-30.932-5.156c2.58-2.574,2.58-9.02,1.289-16.754
		c-1.289-1.289-1.289-2.574-2.578-5.152c3.869,2.578,6.445-1.289,6.445-1.289s1.287-19.332,7.732-32.221
		c5.154-10.309,12.887-18.043,24.486-19.33c10.311-2.578,18.043,5.154,21.908,16.754
		C115.988,100.522,117.279,122.433,112.123,135.319L112.123,135.319z"/>
	<path fill-rule="evenodd" clip-rule="evenodd" fill="#0065AD" d="M582.521,14.177c9.023-1.289,18.043-1.289,28.352,1.287
		c-2.574,9.023-5.152,18.043-7.73,27.066c-12.887-16.756-42.531,12.887-25.773,24.484c5.152,3.867,12.887,2.578,16.754-1.289
		c2.578-1.289,5.152-3.865,7.73-6.441c2.578,10.309,6.445,20.619,9.02,30.928c-10.309,1.289-23.195,5.156-36.082,2.58
		C530.971,82.479,536.127,18.042,582.521,14.177L582.521,14.177z"/>
	<path fill-rule="evenodd" clip-rule="evenodd" fill="#0065AD" d="M269.352,14.177c7.734-1.289,16.754,0,23.197,1.287
		c3.867,0,10.311,1.289,10.311,1.289c-2.576,6.443-3.865,11.6-5.154,18.043c-5.156,0-27.064-2.578-29.641,1.289
		c0,1.289,0,3.865,0,5.154c1.287,3.865,21.908,2.576,28.352,7.734c3.867,2.574,6.443,6.443,7.732,12.887
		c2.578,18.043-10.309,29.641-25.773,30.932c-9.023,1.287-18.043,0-25.777,0c-3.865,0-6.441-1.291-11.6-1.291
		c0,0,3.869-14.176,5.158-19.33c6.441,0,24.484,2.576,28.352-1.289c0-1.289,1.287-3.867,0-5.156
		c-2.576-2.576-6.443-2.576-10.311-2.576c-12.887-1.289-23.199-3.865-24.486-19.334c-1.287-7.73,0-15.463,3.865-19.328
		C248.732,16.753,257.754,14.177,269.352,14.177L269.352,14.177z"/>
	<path fill-rule="evenodd" clip-rule="evenodd" fill="#0065AD" d="M405.963,12.888h32.219l20.621,42.529V12.888h24.484v81.191
		l-33.508-1.287c0,0-12.887-24.488-19.332-37.375c0,12.887,0,38.662,0,38.662s-16.754-1.287-24.484-1.287c0-7.734,0-37.375,0-54.131
		C405.963,33.507,405.963,12.888,405.963,12.888L405.963,12.888z"/>
	<path fill-rule="evenodd" clip-rule="evenodd" fill="#0065AD" d="M393.076,38.661c-6.445-16.754-20.625-27.064-43.82-25.773
		c-14.176,1.289-27.064,9.02-32.219,19.33c-5.154,7.732-7.734,20.621-5.154,32.219c10.309,38.664,72.17,38.664,82.479-1.287
		C395.65,55.417,395.65,45.104,393.076,38.661L393.076,38.661z M369.877,52.839c-1.289,6.445-10.309,15.465-16.754,16.754
		s-10.313,0-14.176-3.867c-10.311-10.309,6.441-27.064,16.75-28.352C364.721,36.085,372.451,42.53,369.877,52.839L369.877,52.839z"
		/>
	<polygon fill-rule="evenodd" clip-rule="evenodd" fill="#0065AD" points="502.619,94.079 530.971,94.079 530.971,12.888 
		502.619,12.888 502.619,94.079 	"/>
	<polygon fill-rule="evenodd" clip-rule="evenodd" fill="#0065AD" points="260.332,127.589 238.424,127.589 238.424,101.812 
		311.883,101.812 311.883,127.589 288.686,127.589 288.686,181.714 260.332,181.714 260.332,127.589 	"/>
	<polygon fill-rule="evenodd" clip-rule="evenodd" fill="#0065AD" points="387.92,101.812 327.344,101.812 327.344,181.714 
		389.209,181.714 389.209,161.097 356.99,161.097 356.99,152.073 389.209,152.073 389.209,131.452 356.99,131.452 356.99,122.433 
		387.92,122.433 387.92,101.812 	"/>
	<path fill-rule="evenodd" clip-rule="evenodd" fill="#0065AD" d="M461.381,101.812h-33.512l-27.063,79.902h27.063l3.867-12.887
		h25.773l3.871,12.887h27.063L461.381,101.812L461.381,101.812z M444.623,144.343h-6.441l6.441-20.621l7.734,20.621H444.623
		L444.623,144.343z"/>
	<polygon fill-rule="evenodd" clip-rule="evenodd" fill="#0065AD" points="595.408,101.812 564.482,101.812 554.17,137.897 
		545.15,101.812 514.217,101.812 497.463,181.714 523.24,181.714 530.971,140.476 539.994,181.714 569.635,181.714 578.658,140.476 
		586.389,181.714 612.166,181.714 595.408,101.812 	"/>
	<polygon fill-rule="evenodd" clip-rule="evenodd" fill="#040506" points="635.361,32.218 635.361,16.753 630.209,16.753 
		630.209,12.888 644.381,12.888 644.381,16.753 639.229,16.753 639.229,32.218 635.361,32.218 	"/>
	<polygon fill-rule="evenodd" clip-rule="evenodd" fill="#040506" points="648.248,32.218 648.248,12.888 654.693,12.888 
		657.271,25.774 661.139,12.888 666.291,12.888 666.291,32.218 662.424,32.218 662.424,16.753 659.85,32.218 655.982,32.218 
		652.115,16.753 652.115,32.218 648.248,32.218 	"/>
</g>
</svg>
