<?xml version="1.0" encoding="utf-8"?><!-- Generator: Adobe Illustrator 16.0.0, SVG Export Plug-In . SVG Version: 6.00 Build 0) --><!DOCTYPE svg PUBLIC "-//W3C//DTD SVG 1.1//EN" "http://www.w3.org/Graphics/SVG/1.1/DTD/svg11.dtd"><svg version="1.1" id="Layer_1" xmlns="http://www.w3.org/2000/svg" xmlns:xlink="http://www.w3.org/1999/xlink" x="0px" y="0px" width="962.043px" height="184.253px" viewBox="0 0 962.043 184.253" enable-background="new 0 0 962.043 184.253" xml:space="preserve"><path fill="#222222" d="M436.401,65.328v111.263h-25.698V2.498l114.998,116.19V6.829h25.712v174.729L436.401,65.328z"/><path fill="#222222" d="M702.791,0c-50.31,0-91.225,41.263-91.225,92.021c0,50.734,40.915,91.994,91.225,91.994	c50.295,0,91.229-41.26,91.229-91.994C794.02,41.263,753.086,0,702.791,0z M702.791,157.884c-35.659,0-64.693-29.553-64.693-65.863	c0-36.315,29.034-65.863,64.693-65.863c35.674,0,64.676,29.548,64.676,65.863C767.467,128.332,738.465,157.884,702.791,157.884z"/><path fill="#222222" d="M259.239,0c-50.309,0-91.226,41.263-91.226,92.021c0,50.734,40.917,91.994,91.226,91.994	c50.319,0,91.225-41.26,91.225-91.994C350.464,41.263,309.559,0,259.239,0z M259.239,157.884c-35.674,0-64.672-29.553-64.672-65.863	c0-36.315,28.998-65.863,64.672-65.863c35.662,0,64.69,29.548,64.69,65.863C323.93,128.332,294.901,157.884,259.239,157.884z"/><path fill="#222222" d="M56.113,104.947l-0.104-0.044c-17.176-5.502-28.673-10.924-37.335-17.602C6.292,77.788,0,65.648,0,51.226	C0,37.72,6.227,24.558,17.078,15.042C28.164,5.335,43.44,0,60.078,0c34.827,0,54.729,23.405,55.564,24.409l-21.132,14.4	c-4.894-3.688-17.753-11.967-34.433-11.967c-20.949,0-33.471,12.396-33.471,24.384c0,8.363,4.547,17.559,37.448,28.12l0.127,0.021	c17.131,5.486,28.67,10.924,37.322,17.583c12.394,9.534,18.677,21.674,18.677,36.098c0,13.505-6.229,26.688-17.103,36.184	c-11.062,9.688-26.333,15.021-42.989,15.021c-34.816,0-54.72-23.383-55.553-24.392l21.149-14.399	c4.887,3.695,17.746,11.971,34.403,11.971c20.958,0,33.49-12.371,33.49-24.385C93.58,124.685,89.045,115.487,56.113,104.947z"/><path fill="#222222" d="M897.98,104.947l-0.114-0.044c-17.163-5.502-28.672-10.924-37.317-17.603	c-12.374-9.515-18.693-21.655-18.693-36.077c0-13.506,6.244-26.667,17.103-36.183C870.007,5.335,885.268,0,901.951,0	c34.825,0,54.738,23.405,55.584,24.409l-21.159,14.4c-4.883-3.688-17.742-11.967-34.425-11.967	c-20.966,0-33.492,12.396-33.492,24.384c0,8.363,4.553,17.559,37.479,28.12l0.128,0.021c17.151,5.486,28.65,10.924,37.317,17.583	c12.36,9.534,18.66,21.674,18.66,36.098c0,13.505-6.225,26.688-17.067,36.184c-11.079,9.688-26.354,15.021-43.021,15.021	c-34.817,0-54.705-23.383-55.546-24.392l21.138-14.399c4.901,3.695,17.724,11.971,34.408,11.971	c20.979,0,33.476-12.371,33.476-24.385C935.427,124.685,930.896,115.487,897.98,104.947z"/></svg>