<?xml version="1.0" encoding="iso-8859-1"?><!-- Generator: Adobe Illustrator 16.0.0, SVG Export Plug-In . SVG Version: 6.00 Build 0) --><!DOCTYPE svg PUBLIC "-//W3C//DTD SVG 1.1//EN" "http://www.w3.org/Graphics/SVG/1.1/DTD/svg11.dtd"><svg version="1.1" id="Layer_1" xmlns="http://www.w3.org/2000/svg" xmlns:xlink="http://www.w3.org/1999/xlink" x="0px" y="0px" width="192.756px" height="192.756px" viewBox="0 0 192.756 192.756" style="enable-background:new 0 0 192.756 192.756;" xml:space="preserve"><g><polygon style="fill-rule:evenodd;clip-rule:evenodd;fill:#FFFFFF;" points="0,0 192.756,0 192.756,192.756 0,192.756 0,0	"/><path style="fill-rule:evenodd;clip-rule:evenodd;" d="M150.75,127.996c0.746,0,1.375-0.096,1.887-0.283	c0.279-0.102,0.551-0.25,0.811-0.445c0.41-0.309,0.717-0.689,0.92-1.139c0.205-0.449,0.307-0.924,0.307-1.422	c0-1.383-0.566-2.344-1.701-2.881c-0.629-0.301-1.396-0.449-2.305-0.449h-2.697v0.184c0.371,0.027,0.611,0.092,0.719,0.197	c0.107,0.104,0.16,0.338,0.16,0.703v4.449c0,0.379-0.055,0.613-0.166,0.707c-0.111,0.092-0.348,0.158-0.713,0.197v0.182H150.75	L150.75,127.996z"/><path style="fill-rule:evenodd;clip-rule:evenodd;" d="M158.475,127.184c0.619,0.637,1.396,0.953,2.334,0.953	c0.877,0,1.625-0.287,2.244-0.859c0.689-0.643,1.035-1.504,1.035-2.59c0-1.068-0.334-1.922-1.002-2.564	c-0.615-0.592-1.375-0.889-2.277-0.889c-0.898,0-1.656,0.295-2.271,0.885c-0.67,0.645-1.006,1.5-1.006,2.568	C157.531,125.705,157.846,126.537,158.475,127.184L158.475,127.184z"/><path style="fill-rule:evenodd;clip-rule:evenodd;" d="M124.602,127.996v-0.182c-0.377-0.033-0.623-0.098-0.734-0.197	c-0.113-0.1-0.168-0.336-0.168-0.707v-1.969l0.557-0.023l2.383,3.078h1.613v-0.182c-0.199-0.02-0.361-0.064-0.488-0.137	c-0.129-0.072-0.256-0.186-0.383-0.342l-2.061-2.535c0.557-0.084,0.998-0.26,1.32-0.527c0.324-0.268,0.486-0.65,0.486-1.148	c0-0.742-0.363-1.252-1.094-1.529c-0.385-0.146-0.865-0.219-1.441-0.219h-2.77v0.184c0.361,0.031,0.596,0.1,0.701,0.209	s0.158,0.34,0.158,0.691v4.332c0,0.418-0.047,0.684-0.141,0.797c-0.096,0.113-0.334,0.189-0.719,0.225v0.182H124.602	L124.602,127.996z"/><path style="fill-rule:evenodd;clip-rule:evenodd;" d="M60.513,127.996c0.558,0,1.026-0.076,1.407-0.23	c0.723-0.293,1.084-0.83,1.084-1.611c0-0.467-0.163-0.828-0.488-1.088c-0.326-0.258-0.718-0.443-1.178-0.555	c0.372-0.09,0.65-0.205,0.835-0.346c0.329-0.244,0.494-0.604,0.494-1.076c0-0.627-0.236-1.07-0.706-1.328	c-0.471-0.258-1.106-0.385-1.908-0.385H57.25v0.184c0.403,0.02,0.665,0.084,0.784,0.189s0.178,0.342,0.178,0.711v4.449	c0,0.375-0.06,0.613-0.178,0.717c-0.119,0.102-0.38,0.166-0.784,0.188v0.182H60.513L60.513,127.996z"/><path style="fill-rule:evenodd;clip-rule:evenodd;" d="M67.194,127.184c0.619,0.637,1.397,0.953,2.335,0.953	c0.876,0,1.624-0.287,2.243-0.859c0.69-0.643,1.035-1.504,1.035-2.59c0-1.068-0.334-1.922-1.001-2.564	c-0.616-0.592-1.375-0.889-2.277-0.889c-0.899,0-1.656,0.295-2.271,0.885c-0.671,0.645-1.006,1.5-1.006,2.568	C66.251,125.705,66.565,126.537,67.194,127.184L67.194,127.184z"/><path style="fill-rule:evenodd;clip-rule:evenodd;" d="M90.538,127.094c0.688,0.707,1.553,1.059,2.595,1.059	c0.974,0,1.804-0.318,2.492-0.955c0.767-0.713,1.151-1.672,1.151-2.877c0-1.186-0.371-2.137-1.113-2.85	c-0.684-0.658-1.527-0.988-2.53-0.988c-0.999,0-1.84,0.328-2.524,0.982c-0.746,0.717-1.118,1.67-1.118,2.855	C89.49,125.449,89.839,126.375,90.538,127.094L90.538,127.094z"/><path style="fill-rule:evenodd;clip-rule:evenodd;" d="M17.574,127.795c-0.261-0.021-0.438-0.055-0.532-0.098	c-0.152-0.072-0.228-0.203-0.228-0.391c0-0.094,0.028-0.223,0.084-0.383c0.056-0.162,0.229-0.605,0.518-1.332h2.91l0.461,1.068	c0.065,0.152,0.116,0.297,0.152,0.434c0.036,0.139,0.054,0.234,0.054,0.289c0,0.162-0.047,0.264-0.141,0.307	c-0.094,0.041-0.304,0.076-0.63,0.105v0.201h2.828v-0.201c-0.261-0.037-0.446-0.104-0.556-0.203	c-0.111-0.1-0.258-0.359-0.442-0.779l-2.769-6.303h-0.217l-2.318,5.455c-0.348,0.818-0.593,1.32-0.735,1.504	c-0.144,0.186-0.357,0.293-0.644,0.326v0.201h2.204V127.795L17.574,127.795z"/><path style="fill-rule:evenodd;clip-rule:evenodd;" d="M15.03,107.525c-0.063-0.418-0.269-0.668-0.539-0.818	c-0.269-0.148-0.602-0.217-0.966-0.217c-0.824,0-1.188,0.25-1.188,0.684c0,1.801,6.558,0.684,6.558,5.053	c0,2.785-2.202,4.135-5.338,4.135c-3.01,0-4.974-1.85-5.053-4.018h3.581c0.079,0.434,0.3,0.75,0.617,0.949	c0.301,0.201,0.697,0.301,1.062,0.301c0.935,0,1.553-0.316,1.553-0.883c0-1.818-6.559-0.568-6.559-5.152	c0-2.553,2.091-3.836,4.942-3.836c3.168,0,4.609,1.701,4.879,3.803H15.03L15.03,107.525z"/><path style="fill-rule:evenodd;clip-rule:evenodd;" d="M31.678,109.977c0,4.084-2.614,6.385-5.988,6.385	c-3.58,0-5.972-2.334-5.972-6.42c0-3.768,2.423-6.219,5.972-6.219C29.761,103.723,31.678,106.809,31.678,109.977L31.678,109.977z"	/><path style="fill-rule:evenodd;clip-rule:evenodd;fill:#FFFFFF;" d="M23.457,109.977c0,1.533,0.443,3.451,2.233,3.451	c1.616,0,2.25-1.469,2.25-3.451c0-1.635-0.633-3.369-2.281-3.318C23.963,106.658,23.457,108.459,23.457,109.977L23.457,109.977z"/><path style="fill-rule:evenodd;clip-rule:evenodd;" d="M32.133,104.039h3.739v7.188c0,1.184,0.222,2.201,1.758,2.201	c1.347,0,1.743-0.9,1.743-2.201v-7.188h3.738v6.787c0,3.852-1.695,5.535-5.481,5.535c-3.532,0-5.497-1.416-5.497-5.553V104.039	L32.133,104.039z"/><polygon style="fill-rule:evenodd;clip-rule:evenodd;" points="43.44,104.039 53.895,104.039 53.895,107.191 50.537,107.191	50.537,116.045 46.799,116.045 46.799,107.191 43.44,107.191 43.44,104.039	"/><polygon style="fill-rule:evenodd;clip-rule:evenodd;" points="83.825,113.244 83.825,111.359 88.53,111.359 88.53,108.559	83.825,108.559 83.825,106.842 89.385,106.842 89.385,104.039 80.155,104.039 80.086,104.039 76.543,104.039 75.26,111.459	75.228,111.459 73.866,104.039 70.777,104.039 69.415,111.459 69.383,111.459 68.1,104.039 65.22,104.039 64.488,104.039	61.482,104.039 61.482,108.092 57.95,108.092 57.95,104.039 54.211,104.039 54.211,116.045 57.95,116.045 57.95,111.393	61.482,111.393 61.482,116.045 65.22,116.045 65.22,107.141 67.324,116.045 70.999,116.045 72.298,109.076 72.33,109.076	73.645,116.045 77.319,116.045 80.086,104.328 80.086,116.045 89.607,116.045 89.607,113.244 83.825,113.244	"/><path style="fill-rule:evenodd;clip-rule:evenodd;" d="M99.494,104.039v1.744c-0.715-1.225-2.086-2.061-4.307-2.061	c-2.852,0-4.942,1.283-4.942,3.836c0,4.584,6.558,3.334,6.558,5.152c0,0.566-0.618,0.883-1.552,0.883	c-0.364,0-0.76-0.1-1.061-0.301c-0.317-0.199-0.539-0.516-0.618-0.949h-3.581c0.08,2.168,2.044,4.018,5.054,4.018	c3.135,0,5.338-1.35,5.338-4.135c0-4.369-6.558-3.252-6.558-5.053c0-0.434,0.364-0.684,1.188-0.684	c0.364,0,0.697,0.068,0.966,0.217c0.269,0.15,0.475,0.4,0.539,0.818h3.549c-0.016-0.113-0.033-0.225-0.055-0.334h2.842v8.854h3.738	v-8.854h3.357v-3.152H99.494L99.494,104.039z"/><polygon style="fill-rule:evenodd;clip-rule:evenodd;" points="121.949,104.039 121.949,113.572 118.705,104.039 114.902,104.039	110.816,116.045 114.475,116.045 114.902,114.461 118.625,114.461 119.068,116.045 125.688,116.045 125.688,104.039	121.949,104.039	"/><polygon style="fill-rule:evenodd;clip-rule:evenodd;fill:#FFFFFF;" points="115.615,111.959 116.771,107.658 117.977,111.959	115.615,111.959	"/><path style="fill-rule:evenodd;clip-rule:evenodd;" d="M130.344,111.859v4.186h-3.738v-12.006h5.385	c3.803,0,5.055,1.084,5.055,3.418c0,1.385-0.586,2.553-1.918,2.936c1.205,0.467,1.934,0.768,1.934,3.186	c0,1.566-0.047,2.1,0.396,2.1v0.367h-3.787c-0.096-0.268-0.189-1.033-0.189-2.102c0-1.566-0.254-2.084-1.996-2.084H130.344	L130.344,111.859z"/><path style="fill-rule:evenodd;clip-rule:evenodd;fill:#FFFFFF;" d="M130.344,109.225h1.473c1.156,0,1.775-0.299,1.775-1.133	c0-0.852-0.635-1.25-1.506-1.25h-1.742V109.225L130.344,109.225z"/><polygon style="fill-rule:evenodd;clip-rule:evenodd;" points="137.58,116.045 137.58,104.039 141.318,104.039 141.318,113.244	146.451,113.244 146.451,116.045 137.58,116.045	"/><polygon style="fill-rule:evenodd;clip-rule:evenodd;" points="146.684,116.045 146.684,104.039 150.422,104.039 150.422,116.045	146.684,116.045	"/><polygon style="fill-rule:evenodd;clip-rule:evenodd;" points="158.484,110.592 158.342,107.857 158.342,104.039 161.922,104.039	161.922,116.045 158.422,116.045 154.35,109.51 154.492,112.244 154.492,116.045 150.912,116.045 150.912,104.039 154.414,104.039	158.484,110.592	"/><polygon style="fill-rule:evenodd;clip-rule:evenodd;" points="162.43,116.045 162.43,104.039 171.729,104.039 171.729,106.842	166.168,106.842 166.168,108.559 170.873,108.559 170.873,111.359 166.168,111.359 166.168,113.244 171.949,113.244	171.949,116.045 162.43,116.045	"/><path style="fill-rule:evenodd;clip-rule:evenodd;" d="M178.76,107.525c-0.062-0.418-0.27-0.668-0.537-0.818	c-0.27-0.148-0.604-0.217-0.967-0.217c-0.824,0-1.189,0.25-1.189,0.684c0,1.801,6.559,0.684,6.559,5.053	c0,2.785-2.201,4.135-5.338,4.135c-3.01,0-4.975-1.85-5.053-4.018h3.58c0.078,0.434,0.301,0.75,0.617,0.949	c0.301,0.201,0.697,0.301,1.061,0.301c0.936,0,1.553-0.316,1.553-0.883c0-1.818-6.557-0.568-6.557-5.152	c0-2.553,2.09-3.836,4.941-3.836c3.168,0,4.609,1.701,4.879,3.803H178.76L178.76,107.525z"/><path style="fill-rule:evenodd;clip-rule:evenodd;" d="M183.961,104.615c-0.195-0.193-0.43-0.291-0.705-0.291	s-0.51,0.098-0.703,0.291s-0.291,0.43-0.291,0.703c0,0.277,0.096,0.512,0.289,0.707s0.428,0.293,0.705,0.293	c0.275,0,0.51-0.098,0.705-0.293c0.193-0.195,0.291-0.432,0.291-0.707S184.154,104.809,183.961,104.615L183.961,104.615z"/><path style="fill-rule:evenodd;clip-rule:evenodd;fill:#FFFFFF;" d="M183.861,104.711c0.166,0.168,0.25,0.371,0.25,0.607	c0,0.238-0.084,0.441-0.25,0.609c-0.166,0.17-0.369,0.254-0.605,0.254c-0.238,0-0.441-0.084-0.607-0.254	c-0.166-0.168-0.248-0.371-0.248-0.609c0-0.236,0.082-0.439,0.248-0.607c0.168-0.168,0.369-0.252,0.607-0.252	C183.492,104.459,183.693,104.543,183.861,104.711L183.861,104.711z"/><path style="fill-rule:evenodd;clip-rule:evenodd;" d="M182.854,105.863h0.191v-0.434h0.152c0.104,0,0.174,0.014,0.215,0.037	c0.068,0.039,0.104,0.123,0.104,0.25v0.088l0.004,0.035c0,0.004,0.002,0.008,0.002,0.012c0.002,0.004,0.002,0.008,0.004,0.012h0.18	l-0.006-0.016c-0.006-0.008-0.008-0.027-0.01-0.057s-0.004-0.055-0.004-0.08v-0.08c0-0.057-0.02-0.113-0.059-0.17	c-0.041-0.059-0.104-0.094-0.189-0.107c0.068-0.012,0.121-0.029,0.16-0.053c0.07-0.047,0.105-0.119,0.105-0.217	c0-0.137-0.057-0.229-0.168-0.275c-0.064-0.027-0.164-0.041-0.299-0.041h-0.383V105.863L182.854,105.863z"/><path style="fill-rule:evenodd;clip-rule:evenodd;fill:#FFFFFF;" d="M183.402,105.271c-0.041,0.016-0.102,0.025-0.184,0.025h-0.174	V104.9h0.164c0.107,0,0.186,0.014,0.234,0.041c0.047,0.027,0.072,0.08,0.072,0.16C183.516,105.186,183.479,105.242,183.402,105.271	L183.402,105.271z"/><polygon style="fill-rule:evenodd;clip-rule:evenodd;fill:#FFFFFF;" points="18.881,122.078 20.168,125.141 17.612,125.141	18.881,122.078	"/><path style="fill-rule:evenodd;clip-rule:evenodd;" d="M29.864,125.76h0.255c0.188,0.498,0.409,0.896,0.662,1.193	c0.442,0.518,0.99,0.775,1.645,0.775c0.354,0,0.661-0.111,0.92-0.336s0.388-0.537,0.388-0.939c0-0.361-0.13-0.676-0.391-0.943	c-0.17-0.17-0.528-0.426-1.074-0.766l-0.95-0.592c-0.286-0.182-0.514-0.363-0.684-0.549c-0.315-0.35-0.473-0.738-0.473-1.16	c0-0.562,0.187-1.029,0.559-1.4c0.373-0.373,0.867-0.561,1.482-0.561c0.253,0,0.558,0.062,0.915,0.188	c0.356,0.125,0.56,0.188,0.61,0.188c0.138,0,0.232-0.033,0.285-0.098c0.052-0.064,0.093-0.158,0.123-0.277h0.228l0.244,2.367	h-0.266c-0.181-0.713-0.472-1.211-0.871-1.492c-0.4-0.283-0.795-0.424-1.187-0.424c-0.304,0-0.569,0.09-0.795,0.27	c-0.227,0.178-0.339,0.428-0.339,0.746c0,0.285,0.087,0.529,0.261,0.732c0.174,0.207,0.443,0.422,0.809,0.646l0.977,0.602	c0.611,0.377,1.042,0.723,1.292,1.037c0.246,0.318,0.369,0.695,0.369,1.129c0,0.582-0.22,1.068-0.66,1.459	c-0.439,0.393-1.001,0.588-1.685,0.588c-0.344,0-0.703-0.066-1.078-0.195c-0.375-0.131-0.589-0.195-0.643-0.195	c-0.13,0-0.218,0.039-0.264,0.119c-0.045,0.08-0.075,0.164-0.089,0.254h-0.244L29.864,125.76L29.864,125.76z"/><path style="fill-rule:evenodd;clip-rule:evenodd;" d="M37.581,121.377h2.799v0.184c-0.234-0.006-0.411,0.012-0.528,0.055	s-0.176,0.133-0.176,0.273c0,0.043,0.01,0.096,0.029,0.158c0.02,0.064,0.063,0.148,0.132,0.252l1.48,2.223l1.437-2.256	c0.059-0.096,0.097-0.174,0.115-0.234c0.018-0.062,0.027-0.107,0.027-0.137c0-0.145-0.077-0.238-0.229-0.283	c-0.092-0.031-0.248-0.047-0.469-0.051v-0.184h2.188v0.184c-0.202,0.012-0.383,0.07-0.542,0.182	c-0.248,0.172-0.526,0.494-0.835,0.963l-1.48,2.256v1.949c0,0.389,0.062,0.631,0.188,0.727s0.406,0.156,0.843,0.178v0.182h-3.058	v-0.182c0.453-0.025,0.733-0.094,0.843-0.203c0.109-0.109,0.164-0.381,0.164-0.818v-1.738l-1.309-1.92	c-0.453-0.662-0.771-1.086-0.953-1.273c-0.183-0.186-0.404-0.287-0.665-0.301V121.377L37.581,121.377z"/><path style="fill-rule:evenodd;clip-rule:evenodd;" d="M45.897,127.996v-0.182c0.413-0.043,0.679-0.135,0.796-0.281	c0.117-0.145,0.176-0.48,0.176-1.008v-4.064c0-0.361-0.057-0.598-0.171-0.707c-0.114-0.107-0.373-0.174-0.776-0.193v-0.184H47.9	l2.315,5.045l2.213-5.045h1.993v0.184c-0.371,0.027-0.61,0.094-0.718,0.203c-0.107,0.109-0.161,0.342-0.161,0.697v4.449	c0,0.365,0.054,0.6,0.161,0.701c0.108,0.104,0.347,0.17,0.718,0.203v0.182h-2.804v-0.182c0.404-0.033,0.656-0.105,0.755-0.217	c0.099-0.113,0.149-0.381,0.149-0.805v-4.494l-2.56,5.697h-0.137l-2.516-5.463v3.992c0,0.547,0.08,0.902,0.239,1.068	c0.104,0.107,0.337,0.182,0.699,0.221v0.182H45.897L45.897,127.996z"/><path style="fill-rule:evenodd;clip-rule:evenodd;fill:#FFFFFF;" d="M59.375,127.559c-0.098-0.051-0.147-0.162-0.147-0.334v-2.492	c0.085,0.004,0.147,0.004,0.188,0.004c0.041,0,0.138,0,0.291,0c0.625,0,1.14,0.104,1.543,0.309s0.606,0.588,0.606,1.148	c0,0.562-0.173,0.943-0.518,1.143s-0.773,0.299-1.285,0.299C59.699,127.635,59.473,127.609,59.375,127.559L59.375,127.559z"/><path style="fill-rule:evenodd;clip-rule:evenodd;fill:#FFFFFF;" d="M59.229,124.352v-2.258c0-0.16,0.025-0.256,0.074-0.293	c0.049-0.035,0.177-0.053,0.386-0.053c0.55,0,0.96,0.057,1.231,0.17c0.489,0.209,0.733,0.611,0.733,1.207	c0,0.504-0.212,0.855-0.635,1.051c-0.222,0.1-0.5,0.154-0.835,0.16L59.229,124.352L59.229,124.352z"/><path style="fill-rule:evenodd;clip-rule:evenodd;fill:#FFFFFF;" d="M68.008,122.352c0.415-0.504,0.922-0.756,1.521-0.756	c0.58,0,1.081,0.242,1.504,0.729c0.424,0.484,0.636,1.273,0.636,2.363c0,1.078-0.209,1.863-0.628,2.354	c-0.419,0.49-0.923,0.734-1.512,0.734c-0.602,0-1.11-0.252-1.524-0.754c-0.414-0.504-0.62-1.281-0.62-2.334	C67.385,123.633,67.592,122.854,68.008,122.352L68.008,122.352z"/><path style="fill-rule:evenodd;clip-rule:evenodd;" d="M75.49,127.996v-0.182c0.368-0.039,0.606-0.105,0.716-0.197	c0.109-0.094,0.163-0.328,0.163-0.707v-4.449c0-0.355-0.054-0.588-0.161-0.697s-0.347-0.176-0.718-0.203v-0.184h2.829v0.184	c-0.369,0.02-0.615,0.08-0.74,0.182s-0.188,0.318-0.188,0.65v4.807c0,0.111,0.019,0.197,0.056,0.262	c0.037,0.062,0.12,0.104,0.247,0.119c0.075,0.01,0.154,0.016,0.237,0.02c0.083,0.004,0.238,0.006,0.466,0.006	c0.889,0,1.49-0.074,1.802-0.221c0.313-0.146,0.616-0.521,0.909-1.123h0.254l-0.489,1.734H75.49L75.49,127.996z"/><path style="fill-rule:evenodd;clip-rule:evenodd;fill:#FFFFFF;" d="M91.441,121.723c0.461-0.559,1.025-0.838,1.691-0.838	c0.644,0,1.201,0.27,1.672,0.809c0.47,0.539,0.706,1.416,0.706,2.627c0,1.199-0.233,2.07-0.698,2.613	c-0.465,0.545-1.025,0.818-1.68,0.818c-0.669,0-1.234-0.281-1.693-0.84c-0.46-0.559-0.689-1.422-0.689-2.592	C90.75,123.148,90.98,122.283,91.441,121.723L91.441,121.723z"/><path style="fill-rule:evenodd;clip-rule:evenodd;" d="M99.742,127.996v-0.182c0.395-0.043,0.639-0.115,0.736-0.217	c0.096-0.104,0.143-0.371,0.143-0.805v-4.332c0-0.355-0.053-0.588-0.16-0.697s-0.348-0.176-0.719-0.203v-0.184h5.33l0.033,1.436	h-0.277c-0.068-0.459-0.197-0.75-0.387-0.873c-0.188-0.121-0.561-0.182-1.117-0.182h-1.369c-0.133,0-0.219,0.021-0.256,0.068	c-0.037,0.045-0.057,0.135-0.057,0.268v2.232h1.445c0.428,0,0.699-0.062,0.816-0.189s0.211-0.385,0.283-0.771h0.234v2.314h-0.234	c-0.074-0.387-0.17-0.645-0.287-0.77s-0.389-0.188-0.812-0.188h-1.445v2.188c0,0.369,0.057,0.604,0.168,0.707	c0.113,0.102,0.357,0.168,0.736,0.197v0.182H99.742L99.742,127.996z"/><path style="fill-rule:evenodd;clip-rule:evenodd;" d="M113.209,127.996v-0.201c0.438-0.047,0.711-0.129,0.816-0.242	c0.107-0.113,0.16-0.412,0.16-0.893v-4.814c0-0.395-0.059-0.652-0.178-0.773s-0.385-0.197-0.799-0.225v-0.207h5.922l0.039,1.596	h-0.311c-0.076-0.51-0.219-0.834-0.428-0.969c-0.211-0.137-0.625-0.203-1.244-0.203h-1.52c-0.148,0-0.242,0.025-0.285,0.076	c-0.041,0.051-0.062,0.15-0.062,0.297v2.482h1.607c0.475,0,0.775-0.072,0.906-0.213s0.236-0.426,0.314-0.857h0.262v2.572h-0.262	c-0.082-0.43-0.189-0.715-0.32-0.854c-0.129-0.141-0.43-0.209-0.9-0.209h-1.607v2.432c0,0.408,0.062,0.67,0.188,0.783	c0.125,0.115,0.398,0.188,0.818,0.221v0.201H113.209L113.209,127.996z"/><path style="fill-rule:evenodd;clip-rule:evenodd;fill:#FFFFFF;" d="M123.699,122.104c0-0.15,0.031-0.244,0.094-0.285	c0.064-0.041,0.238-0.061,0.521-0.061c0.42,0,0.756,0.057,1.012,0.17c0.475,0.213,0.713,0.607,0.713,1.188	c0,0.602-0.266,1.012-0.797,1.23c-0.309,0.125-0.824,0.199-1.543,0.225V122.104L123.699,122.104z"/><path style="fill-rule:evenodd;clip-rule:evenodd;" d="M130.096,127.996v-0.182c0.369-0.039,0.607-0.105,0.717-0.197	c0.109-0.094,0.164-0.328,0.164-0.707v-4.449c0-0.355-0.055-0.588-0.162-0.697s-0.348-0.176-0.719-0.203v-0.184h5.316l0.033,1.436	h-0.254c-0.084-0.443-0.211-0.73-0.381-0.859c-0.17-0.131-0.547-0.195-1.133-0.195h-1.359c-0.146,0-0.236,0.023-0.27,0.07	c-0.035,0.047-0.053,0.137-0.053,0.266v2.232h1.539c0.428,0,0.699-0.062,0.816-0.189s0.211-0.385,0.283-0.771h0.234v2.314h-0.234	c-0.074-0.387-0.172-0.645-0.289-0.77s-0.387-0.188-0.811-0.188h-1.539v2.477c0,0.199,0.062,0.316,0.189,0.352	c0.125,0.035,0.5,0.055,1.125,0.055c0.678,0,1.178-0.074,1.5-0.223s0.611-0.508,0.869-1.078h0.279l-0.455,1.691H130.096	L130.096,127.996z"/><path style="fill-rule:evenodd;clip-rule:evenodd;" d="M139.01,127.996v-0.182c0.367-0.039,0.605-0.105,0.715-0.197	c0.109-0.094,0.164-0.328,0.164-0.707v-4.449c0-0.355-0.055-0.588-0.162-0.697s-0.346-0.176-0.717-0.203v-0.184h5.314l0.035,1.436	h-0.256c-0.084-0.443-0.211-0.73-0.381-0.859c-0.17-0.131-0.547-0.195-1.133-0.195h-1.357c-0.146,0-0.238,0.023-0.271,0.07	c-0.035,0.047-0.051,0.137-0.051,0.266v2.232h1.539c0.426,0,0.697-0.062,0.814-0.189s0.213-0.385,0.283-0.771h0.234v2.314h-0.234	c-0.074-0.387-0.17-0.645-0.287-0.77s-0.389-0.188-0.811-0.188h-1.539v2.477c0,0.199,0.062,0.316,0.188,0.352	s0.5,0.055,1.127,0.055c0.676,0,1.176-0.074,1.498-0.223s0.613-0.508,0.871-1.078h0.277l-0.453,1.691H139.01L139.01,127.996z"/><path style="fill-rule:evenodd;clip-rule:evenodd;fill:#FFFFFF;" d="M149.865,122.139c0-0.166,0.041-0.273,0.121-0.322	c0.078-0.049,0.232-0.074,0.457-0.074c0.9,0,1.625,0.223,2.174,0.664c0.637,0.518,0.957,1.291,0.957,2.316	c0,1.15-0.387,1.961-1.162,2.438c-0.506,0.309-1.148,0.465-1.93,0.465c-0.252,0-0.418-0.027-0.496-0.078	c-0.08-0.053-0.121-0.16-0.121-0.322V122.139L149.865,122.139z"/><path style="fill-rule:evenodd;clip-rule:evenodd;fill:#FFFFFF;" d="M159.287,122.352c0.416-0.504,0.924-0.756,1.521-0.756	c0.58,0,1.082,0.242,1.506,0.729c0.424,0.484,0.635,1.273,0.635,2.363c0,1.078-0.209,1.863-0.627,2.354	c-0.42,0.49-0.924,0.734-1.514,0.734c-0.602,0-1.109-0.252-1.523-0.754c-0.414-0.504-0.621-1.281-0.621-2.334	C158.664,123.633,158.873,122.854,159.287,122.352L159.287,122.352z"/><path style="fill-rule:evenodd;clip-rule:evenodd;" d="M166.77,127.996v-0.182c0.414-0.043,0.68-0.135,0.797-0.281	c0.117-0.145,0.176-0.48,0.176-1.008v-4.064c0-0.361-0.057-0.598-0.172-0.707c-0.113-0.107-0.373-0.174-0.775-0.193v-0.184h1.979	l2.314,5.045l2.213-5.045h1.994v0.184c-0.371,0.027-0.611,0.094-0.719,0.203s-0.16,0.342-0.16,0.697v4.449	c0,0.365,0.053,0.6,0.16,0.701c0.107,0.104,0.348,0.17,0.719,0.203v0.182h-2.805v-0.182c0.404-0.033,0.656-0.105,0.754-0.217	c0.1-0.113,0.15-0.381,0.15-0.805v-4.494l-2.561,5.697h-0.137l-2.516-5.463v3.992c0,0.547,0.08,0.902,0.24,1.068	c0.104,0.107,0.336,0.182,0.697,0.221v0.182H166.77L166.77,127.996z"/><path style="fill-rule:evenodd;clip-rule:evenodd;" d="M175.934,122.963h0.051c0.037,0.1,0.082,0.18,0.133,0.238	c0.088,0.104,0.197,0.156,0.328,0.156c0.07,0,0.133-0.023,0.184-0.068c0.053-0.045,0.078-0.107,0.078-0.188	c0-0.072-0.025-0.135-0.078-0.189c-0.033-0.033-0.105-0.084-0.215-0.152l-0.189-0.119c-0.059-0.035-0.104-0.072-0.137-0.109	c-0.064-0.07-0.096-0.146-0.096-0.232c0-0.111,0.037-0.205,0.113-0.279c0.074-0.074,0.172-0.111,0.295-0.111	c0.051,0,0.111,0.012,0.184,0.037c0.07,0.025,0.111,0.037,0.121,0.037c0.029,0,0.047-0.006,0.059-0.02	c0.01-0.014,0.018-0.031,0.023-0.055h0.045l0.051,0.473h-0.055c-0.035-0.143-0.094-0.242-0.174-0.299s-0.158-0.084-0.236-0.084	c-0.061,0-0.115,0.018-0.16,0.053c-0.045,0.037-0.068,0.086-0.068,0.15c0,0.057,0.018,0.105,0.053,0.146s0.09,0.084,0.162,0.129	l0.195,0.119c0.123,0.076,0.209,0.145,0.258,0.209c0.051,0.062,0.074,0.139,0.074,0.225c0,0.117-0.043,0.215-0.131,0.293	s-0.201,0.117-0.338,0.117c-0.068,0-0.141-0.014-0.215-0.039c-0.076-0.027-0.119-0.039-0.129-0.039	c-0.027,0-0.043,0.008-0.053,0.023s-0.016,0.033-0.018,0.051H176L175.934,122.963L175.934,122.963z"/><path style="fill-rule:evenodd;clip-rule:evenodd;" d="M177.102,123.41v-0.041c0.092-0.01,0.15-0.029,0.178-0.062	c0.025-0.031,0.039-0.105,0.039-0.223v-0.904c0-0.08-0.014-0.133-0.039-0.156c-0.025-0.025-0.082-0.039-0.172-0.043v-0.041h0.439	l0.514,1.121l0.492-1.121h0.443v0.041c-0.082,0.006-0.135,0.02-0.16,0.045c-0.023,0.023-0.035,0.076-0.035,0.154v0.988	c0,0.082,0.012,0.135,0.035,0.156c0.025,0.023,0.078,0.039,0.16,0.045v0.041h-0.623v-0.041c0.09-0.006,0.145-0.023,0.168-0.047	c0.021-0.025,0.033-0.086,0.033-0.18v-0.998l-0.57,1.266h-0.029l-0.559-1.215v0.889c0,0.121,0.018,0.199,0.053,0.236	c0.023,0.025,0.074,0.041,0.154,0.049v0.041H177.102L177.102,123.41z"/><path style="fill-rule:evenodd;clip-rule:evenodd;" d="M63.541,92.33l8.476,1.112c0,0,0.556,1.389,1.807,1.389	c0,0,0.973,0.139,2.015-0.556c0,0,2.362,0.139,2.918,0.695c0,0-0.417,1.599,2.224,1.321c0,0,2.709,5.697,9.727,3.125	c0,0,8.454,5.467,17.995-1.018c0,0,5.744-0.186,9.543-3.429c0,0,1.389,0.417,4.168-0.185c0,0,1.854,1.343,5.096,0.093	c0,0,1.852,3.242,5.742,3.242s8.939-2.964,9.912-5.28c0,0,8.801,0.093,10.746-0.092c1.945-0.186,3.973-1.58,4.447-2.687	c0.416-0.973-15.842-1.945-15.842-1.945s-3.148-4.91-9.541-1.112h-2.408c0,0,10.932-6.669,10.932-16.675	c0,0-0.094-4.446-3.336-6.762c0,0-3.52-4.632-9.818-4.632c-6.301,0-11.766,3.706-15.936,7.781	c-4.168,4.076-13.854,12.882-14.637,13.525c-1.165,0.957-3.056,1.945-3.612,0.648c-0.555-1.297-5.373-13.062-5.373-13.062	s-0.604-0.648-1.112-0.463c-1.019,0.371-2.177,1.296,1.019,17.462c0,0-1.899-0.092-3.891,1.39c0,0-37.38,1.25-46.829,1.806	c0,0-1.112,0.417-2.501,2.224l24.596,1.806C60.067,92.052,60.298,95.387,63.541,92.33L63.541,92.33z"/><polygon style="fill-rule:evenodd;clip-rule:evenodd;fill:#FFFFFF;" points="83.11,87.513 38.459,88.439 38.737,89.087	82.462,88.532 83.11,87.513	"/><path style="fill-rule:evenodd;clip-rule:evenodd;fill:#FFFFFF;" d="M61.198,91.443c0.562-0.455,1.185-0.618,1.39-0.364	c0.204,0.253-0.086,0.827-0.649,1.281c-0.563,0.454-1.186,0.617-1.39,0.364C60.344,92.471,60.634,91.898,61.198,91.443	L61.198,91.443z"/><path style="fill-rule:evenodd;clip-rule:evenodd;fill:#FFFFFF;" d="M73.913,92.282c0.68-0.549,1.432-0.746,1.679-0.44	c0.247,0.306-0.104,0.999-0.784,1.548c-0.681,0.549-1.432,0.746-1.679,0.44C72.882,93.523,73.233,92.831,73.913,92.282	L73.913,92.282z"/><path style="fill-rule:evenodd;clip-rule:evenodd;fill:#FFFFFF;" d="M80.343,93.464c0,0-1.32,1.042-1.355,1.32	c-0.034,0.278,0,0.973,0.591,0.695s1.181-1.286,1.181-1.286S80.76,93.569,80.343,93.464L80.343,93.464z"/><path style="fill-rule:evenodd;clip-rule:evenodd;fill:#FFFFFF;" d="M82.948,88.497c0,0-2.223,2.362-1.806,5.836	c0,0,0.694,0.035,1.459-1.771C82.861,91.946,82.323,91.033,82.948,88.497L82.948,88.497z"/><path style="fill-rule:evenodd;clip-rule:evenodd;fill:#FFFFFF;" d="M89.479,85.331c-3.554,0-6.436,2.397-6.436,5.355	s2.882,5.355,6.436,5.355c3.555,0,6.436-2.398,6.436-5.355S93.034,85.331,89.479,85.331L89.479,85.331z"/><path style="fill-rule:evenodd;clip-rule:evenodd;" d="M89.479,85.795c0,0,4.898,0.166,4.898,4.334	c0,4.064-4.585,4.011-4.585,4.011c-2.686,0-4.829-1.762-4.829-4.149C84.963,85.926,89.479,85.795,89.479,85.795L89.479,85.795z"/><path style="fill-rule:evenodd;clip-rule:evenodd;" d="M89.479,95.402c-3.12,0-5.649-2.111-5.649-4.716	c0-1.937,1.054-3.711,3.134-4.483c-1.469,0.777-2.443,2.156-2.443,3.823c0,2.605,2.376,4.473,5.306,4.473	c1.835,0,3.452-0.732,4.405-1.92C93.803,93.956,92.608,95.402,89.479,95.402L89.479,95.402z"/><path style="fill-rule:evenodd;clip-rule:evenodd;fill:#FFFFFF;" d="M93.162,82.603c0,0-1.343,0.741-2.872,0.231	c0,0-3.289-8.847-3.289-12.83c0,0-0.093-1.575,0.787-1.853c0,0,0.48-0.177,1.204,2.176C89.734,72.737,93.162,82.603,93.162,82.603	L93.162,82.603z"/><path style="fill-rule:evenodd;clip-rule:evenodd;fill:#FFFFFF;" d="M143.279,91.82l-0.186,0.556h10.098	c0,0,1.436-0.046,2.871-1.019c0,0-6.484-1.019-9.402,0.463H143.279L143.279,91.82z"/><polygon style="fill-rule:evenodd;clip-rule:evenodd;fill:#FFFFFF;" points="142.816,89.18 143.094,89.921 155.6,90.384	155.506,90.153 142.816,89.18	"/><path style="fill-rule:evenodd;clip-rule:evenodd;fill:#FFFFFF;" d="M120.352,93.21c0,0,2.5-3.474,5.512-3.474	c3.01,0-0.139,2.594-1.715,3.289L120.352,93.21L120.352,93.21z"/><path style="fill-rule:evenodd;clip-rule:evenodd;fill:#FFFFFF;" d="M125.047,94.307c0.697-0.302,1.158-0.79,1.029-1.088	c-0.131-0.299-0.801-0.296-1.498,0.006s-1.156,0.789-1.027,1.088S124.352,94.609,125.047,94.307L125.047,94.307z"/><path style="fill-rule:evenodd;clip-rule:evenodd;fill:#FFFFFF;" d="M133.273,87.235c0,0-5.512,1.436-5.373,4.632	c0,0-0.064,1.118,1.482,0.973c1.482-0.139,2.547-1.112,2.965-3.104C132.656,88.26,133.273,87.235,133.273,87.235L133.273,87.235z"	/><path style="fill-rule:evenodd;clip-rule:evenodd;fill:#FFFFFF;" d="M139.527,95.062c0,0-1.992,0.232-3.521-0.324	c0,0-0.729-0.316-1.018,0.093C134.734,95.188,138.416,96.452,139.527,95.062L139.527,95.062z"/><path style="fill-rule:evenodd;clip-rule:evenodd;fill:#FFFFFF;" d="M138.219,86.038c-0.193,0-0.383,0.015-0.57,0.042	c-1.154-0.145-3.977-0.119-4.744,3.39c0,0,1.176-2.564,2.883-2.603c-1.027,0.78-1.695,2.032-1.695,3.402	c0,2.279,1.848,4.126,4.127,4.126s4.127-1.848,4.127-4.126S140.498,86.038,138.219,86.038L138.219,86.038z"/><path style="fill-rule:evenodd;clip-rule:evenodd;fill:#FFFFFF;" d="M128.482,95.343l3.82-2.015	c0.137-0.071,0.188-0.239,0.117-0.375c-0.072-0.136-0.24-0.188-0.375-0.116l-3.822,2.014c-0.135,0.072-0.188,0.24-0.115,0.376	C128.178,95.363,128.346,95.415,128.482,95.343L128.482,95.343z"/><path style="fill-rule:evenodd;clip-rule:evenodd;" d="M138.219,93.939c2.035,0,3.684-1.628,3.684-3.636s-1.648-3.635-3.684-3.635	s-3.686,1.627-3.686,3.635S136.184,93.939,138.219,93.939L138.219,93.939z"/><path style="fill-rule:evenodd;clip-rule:evenodd;fill:#FFFFFF;" d="M134.848,90.234c0,0-0.104,1.876,1.391,2.71	c0,0,1.529-1.32-0.139-1.633C136.1,91.311,136.828,90.025,134.848,90.234L134.848,90.234z"/><path style="fill-rule:evenodd;clip-rule:evenodd;fill:#FFFFFF;" d="M136.689,91.307c0.189,0,0.344-0.154,0.344-0.344	s-0.154-0.344-0.344-0.344s-0.344,0.154-0.344,0.344S136.5,91.307,136.689,91.307L136.689,91.307z"/><path style="fill-rule:evenodd;clip-rule:evenodd;fill:#FFFFFF;" d="M93.162,85.475c0,0,18.342-17.717,25.499-22.581	c0,0,6.531-4.099,11.324-2.432c0,0,0.418,0.486-0.486,0.486c-0.902,0-4.377,0.348-5.418,0.764	c-1.043,0.417-5.004,2.224-5.004,2.224l-0.693,2.432l3.266,0.625c0,0,8.615-5.072,16.049-2.154c0,0,2.016,1.667,1.807,4.238	c0,0-10.006-3.891-36.686,16.05c0,0-0.902-0.417-2.918-0.139C97.887,85.266,93.162,85.475,93.162,85.475L93.162,85.475z"/><path style="fill-rule:evenodd;clip-rule:evenodd;fill:#FFFFFF;" d="M103.791,86.378c0,0,19.523-15.771,32.725-16.05	c0,0,2.432-0.208,2.432,1.32c0,1.32-3.404,9.379-13.965,10.283c0,0-9.379,8.268-16.119,8.06c0,0-4.168-0.139-5.559-1.598	C103.305,88.393,104,87.768,103.791,86.378L103.791,86.378z"/><path style="fill-rule:evenodd;clip-rule:evenodd;" d="M138.566,71.718c0,0-0.279,2.084-3.613,5.628l-0.244-0.139	c0,0,1.182-1.528,0.973-1.702c0,0-0.693-0.486-0.174-1.111c0.521-0.625,1.807-2.293,1.877-3.266c0,0,0.277-0.66,0.799-0.348	C138.711,71.097,138.566,71.718,138.566,71.718L138.566,71.718z"/><path style="fill-rule:evenodd;clip-rule:evenodd;fill:#FFFFFF;" d="M94.505,86.702c0,0,0.764,0.788,1.019,1.598l3.845-0.162	c0,0,0.301-1.158-0.418-1.575L94.505,86.702L94.505,86.702z"/><path style="fill-rule:evenodd;clip-rule:evenodd;fill:#FFFFFF;" d="M102.773,86.401c0,0,0.949,0.394,0.369,1.552h-1.088	c0,0-0.717-1.436-0.186-1.505C102.402,86.378,102.773,86.401,102.773,86.401L102.773,86.401z"/><path style="fill-rule:evenodd;clip-rule:evenodd;fill:#FFFFFF;" d="M99.623,86.679c0,0,0.74-0.486,1.273-0.023l-0.092,0.648	l0.717,0.741l-1.574,0.093l0.232-0.857L99.623,86.679L99.623,86.679z"/><path style="fill-rule:evenodd;clip-rule:evenodd;fill:#FFFFFF;" d="M139.535,69.346c-1.357-0.35-2.656-0.304-2.73-0.307	c-5.48,0.029-12.844,2.797-21.9,8.229c-6.729,4.036-11.746,7.935-11.797,7.976l0.162,0.619	c0.205-0.162,20.709-16.199,33.525-16.268c0,0,1.406-0.083,2.691,0.386L139.535,69.346L139.535,69.346z"/><polygon style="fill-rule:evenodd;clip-rule:evenodd;fill:#FFFFFF;" points="126.412,64.179 125.275,64.655 124.324,61.851	119.26,64.021 118.695,66.228 121.295,66.627 126.52,64.435 126.412,64.179	"/><polygon style="fill-rule:evenodd;clip-rule:evenodd;" points="119.496,64.222 121.271,63.461 121.186,66.329 119.041,66	119.496,64.222	"/><polygon style="fill-rule:evenodd;clip-rule:evenodd;" points="121.467,66.254 121.553,63.341 124.158,62.224 125.02,64.763	121.467,66.254	"/><polygon style="fill-rule:evenodd;clip-rule:evenodd;fill:#FFFFFF;" points="120.727,64.006 119.686,64.422 119.32,65.847	119.65,65.882 120.779,64.509 120.727,64.006	"/><polygon style="fill-rule:evenodd;clip-rule:evenodd;fill:#FFFFFF;" points="122.029,63.398 122.029,65.639 122.916,65.152	122.898,64.527 124.01,63.38 123.785,62.686 122.029,63.398	"/><polygon style="fill-rule:evenodd;clip-rule:evenodd;fill:#FFFFFF;" points="125.764,62.13 124.965,62.425 125.242,63.293	125.973,62.633 125.764,62.13	"/><polygon style="fill-rule:evenodd;clip-rule:evenodd;fill:#FFFFFF;" points="126.529,63.693 126.807,63.589 127.883,62.355	127.883,61.817 127.484,61.852 126.512,63.363 126.529,63.693	"/><path style="fill-rule:evenodd;clip-rule:evenodd;fill:#FFFFFF;" d="M131.514,62.755l-0.729,0.434l1.354-0.069l-1.094-1.807	c0,0,2.414-0.208,3.596,1.563l-0.521,0.312l1.529,0.052c0,0-1.912-2.467-5.125-2.258L131.514,62.755L131.514,62.755z"/><path style="fill-rule:evenodd;clip-rule:evenodd;" d="M113.172,67.874c0,0-1.992,1.621-2.408,2.084c0,0-0.742,3.243,0.092,6.902	l2.363-1.667C113.219,75.192,112.801,69.819,113.172,67.874L113.172,67.874z"/><path style="fill-rule:evenodd;clip-rule:evenodd;fill:#FFFFFF;" d="M112.43,69.17l-1.158,0.973c0,0-0.74,2.594,0.047,5.744	l1.25-0.833l-0.139-1.945h-0.51l-0.045-1.205l0.602-0.417L112.43,69.17L112.43,69.17z"/><polygon style="fill-rule:evenodd;clip-rule:evenodd;" points="108.586,72.228 108.633,74.265 109.512,73.617 109.512,71.301	108.586,72.228	"/><polygon style="fill-rule:evenodd;clip-rule:evenodd;" points="107.984,72.737 107.195,73.339 107.336,75.377 107.984,74.868	107.984,72.737	"/><polygon style="fill-rule:evenodd;clip-rule:evenodd;" points="106.549,73.918 105.76,74.52 105.898,76.558 106.549,76.049	106.549,73.918	"/><polygon style="fill-rule:evenodd;clip-rule:evenodd;" points="105.043,75.192 104.277,75.864 104.418,77.902 105.066,77.392	105.043,75.192	"/><polygon style="fill-rule:evenodd;clip-rule:evenodd;" points="103.676,76.442 102.912,77.114 103.051,79.152 103.699,78.643	103.676,76.442	"/><polygon style="fill-rule:evenodd;clip-rule:evenodd;" points="102.311,77.67 101.545,78.341 101.684,80.379 102.332,79.87	102.311,77.67	"/><polygon style="fill-rule:evenodd;clip-rule:evenodd;" points="100.943,78.92 100.18,79.592 100.318,81.63 100.967,81.121	100.943,78.92	"/><polygon style="fill-rule:evenodd;clip-rule:evenodd;" points="99.045,80.634 98.279,81.306 98.396,83.02 99.045,82.51	99.045,80.634	"/><polygon style="fill-rule:evenodd;clip-rule:evenodd;" points="97.979,81.583 97.215,82.255 97.33,83.854 97.979,83.344	97.979,81.583	"/><polygon style="fill-rule:evenodd;clip-rule:evenodd;" points="96.797,82.672 96.034,83.344 96.219,84.78 96.867,84.271	96.797,82.672	"/><path style="fill-rule:evenodd;clip-rule:evenodd;" d="M87.93,69.915c0.031-0.017,0.045-0.041,0.049-0.067	c0.004-0.026,0-0.056-0.01-0.085c-0.023-0.069-0.053-0.092-0.087-0.081c-0.142,0.048,0.13,0.563-0.214,0.68	c-0.22,0.074-0.388-0.072-0.476-0.333c-0.084-0.25,0.006-0.462,0.175-0.526l0.101,0.297c-0.032,0.019-0.051,0.045-0.058,0.077	c-0.007,0.031-0.004,0.066,0.006,0.096c0.026,0.078,0.068,0.12,0.113,0.105c0.144-0.049-0.14-0.56,0.222-0.682	c0.201-0.068,0.361,0.071,0.441,0.308c0.089,0.263-0.005,0.428-0.163,0.506L87.93,69.915L87.93,69.915z"/><path style="fill-rule:evenodd;clip-rule:evenodd;" d="M88.371,71.849c-0.322,0.109-0.577-0.046-0.672-0.326	c-0.101-0.297,0.016-0.559,0.338-0.667c0.298-0.101,0.559,0.035,0.659,0.329C88.81,71.523,88.62,71.764,88.371,71.849	L88.371,71.849z"/><path style="fill-rule:evenodd;clip-rule:evenodd;fill:#FFFFFF;" d="M88.139,71.167c-0.121,0.042-0.259,0.129-0.209,0.278	c0.045,0.134,0.179,0.147,0.335,0.095c0.129-0.044,0.248-0.143,0.198-0.278C88.416,71.12,88.259,71.126,88.139,71.167	L88.139,71.167z"/><path style="fill-rule:evenodd;clip-rule:evenodd;" d="M89.044,72.295l0.105,0.311l-0.567,0.192	c-0.093,0.031-0.167,0.077-0.124,0.205c0.038,0.112,0.12,0.121,0.223,0.086l0.566-0.192l0.105,0.31l-0.535,0.181	c-0.304,0.103-0.484,0.007-0.591-0.307c-0.099-0.293-0.042-0.494,0.283-0.604L89.044,72.295L89.044,72.295z"/><polygon style="fill-rule:evenodd;clip-rule:evenodd;" points="89.555,73.8 89.849,74.668 89.6,74.752 89.506,74.473	88.808,74.709 88.703,74.399 89.401,74.163 89.307,73.884 89.555,73.8	"/><polygon style="fill-rule:evenodd;clip-rule:evenodd;" points="89.104,75.581 90.05,75.26 90.156,75.571 89.836,75.679	89.936,75.972 90.255,75.864 90.36,76.174 89.414,76.495 89.308,76.184 89.675,76.06 89.576,75.767 89.209,75.892 89.104,75.581	"/><polygon style="fill-rule:evenodd;clip-rule:evenodd;" points="90.267,77.822 90.268,77.825 90.889,77.733 90.991,78.033	89.964,78.118 89.861,77.813 90.374,77.518 90.373,77.516 89.787,77.594 89.684,77.289 90.55,76.733 90.652,77.033 90.103,77.337	90.104,77.34 90.727,77.255 90.814,77.511 90.267,77.822	"/><polygon style="fill-rule:evenodd;clip-rule:evenodd;" points="90.239,78.923 91.185,78.603 91.446,79.374 91.226,79.449	91.069,78.988 90.934,79.034 91.066,79.424 90.845,79.499 90.712,79.108 90.564,79.159 90.727,79.638 90.506,79.713 90.239,78.923	"/><path style="fill-rule:evenodd;clip-rule:evenodd;" d="M91.553,80.591c0.031-0.017,0.045-0.041,0.049-0.067s0-0.056-0.01-0.086	c-0.023-0.068-0.053-0.092-0.087-0.08c-0.142,0.048,0.131,0.562-0.214,0.679c-0.219,0.074-0.388-0.073-0.476-0.333	c-0.084-0.25,0.006-0.462,0.175-0.526l0.101,0.297c-0.032,0.018-0.051,0.045-0.058,0.077c-0.007,0.03-0.004,0.065,0.006,0.096	c0.026,0.078,0.068,0.12,0.113,0.105c0.143-0.049-0.14-0.56,0.222-0.682c0.201-0.068,0.361,0.07,0.441,0.307	c0.089,0.263-0.004,0.428-0.163,0.507L91.553,80.591L91.553,80.591z"/><polygon style="fill-rule:evenodd;clip-rule:evenodd;" points="92.123,81.364 92.416,82.232 92.167,82.316 92.073,82.038	91.375,82.274 91.27,81.963 91.968,81.727 91.874,81.449 92.123,81.364	"/><path style="fill-rule:evenodd;clip-rule:evenodd;fill:#FFFFFF;" d="M88.993,93.128c1.004,0,1.818-0.814,1.818-1.817	c0-1.004-0.814-1.818-1.818-1.818c-1.003,0-1.817,0.814-1.817,1.818C87.175,92.314,87.989,93.128,88.993,93.128L88.993,93.128z"/><path style="fill-rule:evenodd;clip-rule:evenodd;" d="M89.445,91.275c0.325,0,0.589-0.264,0.589-0.589s-0.264-0.589-0.589-0.589	c-0.326,0-0.59,0.264-0.59,0.589S89.119,91.275,89.445,91.275L89.445,91.275z"/></g></svg>