<?xml version="1.0" encoding="utf-8"?>
<!-- Generator: Adobe Illustrator 18.1.1, SVG Export Plug-In . SVG Version: 6.00 Build 0)  -->
<svg version="1.1" id="Layer_1" xmlns="http://www.w3.org/2000/svg" xmlns:xlink="http://www.w3.org/1999/xlink" x="0px" y="0px"
	 viewBox="-153 154.2 512 512" enable-background="new -153 154.2 512 512" xml:space="preserve">
<g>
	<polygon fill="#FFFFFF" points="-153,154.2 359,154.2 359,666.2 -153,666.2 	"/>
	<path d="M247.4,494.2c2,0,3.7-0.3,5-0.8c0.7-0.3,1.5-0.7,2.2-1.2c1.1-0.8,1.9-1.8,2.4-3c0.5-1.2,0.8-2.5,0.8-3.8
		c0-3.7-1.5-6.2-4.5-7.7c-1.7-0.8-3.7-1.2-6.1-1.2H240v0.5c1,0.1,1.6,0.2,1.9,0.5c0.3,0.3,0.4,0.9,0.4,1.9v11.8c0,1-0.1,1.6-0.4,1.9
		c-0.3,0.2-0.9,0.4-1.9,0.5v0.5L247.4,494.2L247.4,494.2z"/>
	<path d="M267.9,492.1c1.6,1.7,3.7,2.5,6.2,2.5c2.3,0,4.3-0.8,6-2.3c1.8-1.7,2.7-4,2.7-6.9c0-2.8-0.9-5.1-2.7-6.8
		c-1.6-1.6-3.7-2.4-6-2.4c-2.4,0-4.4,0.8-6,2.4c-1.8,1.7-2.7,4-2.7,6.8C265.4,488.1,266.3,490.4,267.9,492.1L267.9,492.1z"/>
	<path d="M178,494.2v-0.5c-1-0.1-1.7-0.3-1.9-0.5c-0.3-0.3-0.4-0.9-0.4-1.9v-5.2l1.5-0.1l6.3,8.2h4.3v-0.5c-0.5-0.1-1-0.2-1.3-0.4
		c-0.3-0.2-0.7-0.5-1-0.9l-5.5-6.7c1.5-0.2,2.7-0.7,3.5-1.4c0.9-0.7,1.3-1.7,1.3-3c0-2-1-3.3-2.9-4.1c-1-0.4-2.3-0.6-3.8-0.6h-7.4
		v0.5c1,0.1,1.6,0.3,1.9,0.6c0.3,0.3,0.4,0.9,0.4,1.8V491c0,1.1-0.1,1.8-0.4,2.1c-0.3,0.3-0.9,0.5-1.9,0.6v0.5L178,494.2L178,494.2z
		"/>
	<path d="M7.7,494.2c1.5,0,2.7-0.2,3.7-0.6c1.9-0.8,2.9-2.2,2.9-4.3c0-1.2-0.4-2.2-1.3-2.9c-0.9-0.7-1.9-1.2-3.1-1.5
		c1-0.2,1.7-0.5,2.2-0.9c0.9-0.6,1.3-1.6,1.3-2.9c0-1.7-0.6-2.8-1.9-3.5c-1.3-0.7-2.9-1-5.1-1h-7.4v0.5c1.1,0.1,1.8,0.2,2.1,0.5
		c0.3,0.3,0.5,0.9,0.5,1.9v11.8c0,1-0.2,1.6-0.5,1.9c-0.3,0.3-1,0.4-2.1,0.5v0.5L7.7,494.2L7.7,494.2z"/>
	<path d="M25.5,492.1c1.6,1.7,3.7,2.5,6.2,2.5c2.3,0,4.3-0.8,6-2.3c1.8-1.7,2.7-4,2.7-6.9c0-2.8-0.9-5.1-2.7-6.8
		c-1.6-1.6-3.7-2.4-6-2.4c-2.4,0-4.4,0.8-6,2.4c-1.8,1.7-2.7,4-2.7,6.8C23,488.1,23.8,490.4,25.5,492.1L25.5,492.1z"/>
	<path d="M87.5,491.8c1.8,1.9,4.1,2.8,6.9,2.8c2.6,0,4.8-0.8,6.6-2.5c2-1.9,3.1-4.4,3.1-7.6c0-3.2-1-5.7-3-7.6
		c-1.8-1.7-4.1-2.6-6.7-2.6c-2.7,0-4.9,0.9-6.7,2.6c-2,1.9-3,4.4-3,7.6C84.7,487.5,85.6,489.9,87.5,491.8L87.5,491.8z"/>
	<path d="M-106.3,493.7c-0.7-0.1-1.2-0.1-1.4-0.3c-0.4-0.2-0.6-0.5-0.6-1c0-0.2,0.1-0.6,0.2-1c0.1-0.4,0.6-1.6,1.4-3.5h7.7l1.2,2.8
		c0.2,0.4,0.3,0.8,0.4,1.2c0.1,0.4,0.1,0.6,0.1,0.8c0,0.4-0.1,0.7-0.4,0.8c-0.2,0.1-0.8,0.2-1.7,0.3v0.5h7.5v-0.5
		c-0.7-0.1-1.2-0.3-1.5-0.5c-0.3-0.3-0.7-1-1.2-2.1l-7.4-16.7h-0.6l-6.2,14.5c-0.9,2.2-1.6,3.5-2,4c-0.4,0.5-0.9,0.8-1.7,0.9v0.5
		h5.9L-106.3,493.7L-106.3,493.7z"/>
	<path d="M-113.1,439.9c-0.2-1.1-0.7-1.8-1.4-2.2c-0.7-0.4-1.6-0.6-2.6-0.6c-2.2,0-3.2,0.7-3.2,1.8c0,4.8,17.4,1.8,17.4,13.4
		c0,7.4-5.8,11-14.2,11c-8,0-13.2-4.9-13.4-10.7h9.5c0.2,1.2,0.8,2,1.6,2.5c0.8,0.5,1.9,0.8,2.8,0.8c2.5,0,4.1-0.8,4.1-2.3
		c0-4.8-17.4-1.5-17.4-13.7c0-6.8,5.6-10.2,13.1-10.2c8.4,0,12.2,4.5,13,10.1L-113.1,439.9L-113.1,439.9z"/>
	<path d="M-68.9,446.4c0,10.8-6.9,17-15.9,17c-9.5,0-15.9-6.2-15.9-17.1c0-10,6.4-16.5,15.9-16.5C-73.9,429.8-68.9,438-68.9,446.4
		L-68.9,446.4z"/>
	<path fill="#FFFFFF" d="M-90.7,446.4c0,4.1,1.2,9.2,5.9,9.2c4.3,0,6-3.9,6-9.2c0-4.3-1.7-8.9-6.1-8.8
		C-89.3,437.5-90.7,442.3-90.7,446.4L-90.7,446.4z"/>
	<path d="M-67.6,430.6h9.9v19.1c0,3.1,0.6,5.8,4.7,5.8c3.6,0,4.6-2.4,4.6-5.8v-19.1h9.9v18c0,10.2-4.5,14.7-14.6,14.7
		c-9.4,0-14.6-3.8-14.6-14.7L-67.6,430.6L-67.6,430.6z"/>
	<polygon points="-37.6,430.6 -9.8,430.6 -9.8,439 -18.8,439 -18.8,462.5 -28.7,462.5 -28.7,439 -37.6,439 	"/>
	<polygon points="69.7,455 69.7,450 82.2,450 82.2,442.6 69.7,442.6 69.7,438 84.4,438 84.4,430.6 59.9,430.6 59.7,430.6 
		50.3,430.6 46.9,450.3 46.8,450.3 43.2,430.6 35,430.6 31.4,450.3 31.3,450.3 27.9,430.6 20.2,430.6 18.3,430.6 10.3,430.6 
		10.3,441.4 0.9,441.4 0.9,430.6 -9,430.6 -9,462.5 0.9,462.5 0.9,450.1 10.3,450.1 10.3,462.5 20.2,462.5 20.2,438.8 25.8,462.5 
		35.6,462.5 39,444 39.1,444 42.6,462.5 52.4,462.5 59.7,431.4 59.7,462.5 85,462.5 85,455 	"/>
	<path d="M111.3,430.6v4.6c-1.9-3.3-5.5-5.5-11.4-5.5c-7.6,0-13.1,3.4-13.1,10.2c0,12.2,17.4,8.9,17.4,13.7c0,1.5-1.6,2.3-4.1,2.3
		c-1,0-2-0.3-2.8-0.8c-0.8-0.5-1.4-1.4-1.6-2.5H86c0.2,5.8,5.4,10.7,13.4,10.7c8.3,0,14.2-3.6,14.2-11c0-11.6-17.4-8.6-17.4-13.4
		c0-1.2,1-1.8,3.2-1.8c1,0,1.9,0.2,2.6,0.6c0.7,0.4,1.3,1.1,1.4,2.2h9.4c0-0.3-0.1-0.6-0.1-0.9h7.5v23.5h9.9V439h8.9v-8.4
		L111.3,430.6L111.3,430.6z"/>
	<polygon points="170.9,430.6 170.9,455.9 162.3,430.6 152.2,430.6 141.4,462.5 151.1,462.5 152.2,458.3 162.1,458.3 163.3,462.5 
		180.9,462.5 180.9,430.6 	"/>
	<polygon fill="#FFFFFF" points="154.1,451.6 157.2,440.2 160.4,451.6 	"/>
	<path d="M193.2,451.4v11.1h-9.9v-31.9h14.3c10.1,0,13.4,2.9,13.4,9.1c0,3.7-1.6,6.8-5.1,7.8c3.2,1.2,5.1,2,5.1,8.5
		c0,4.2-0.1,5.6,1.1,5.6v1h-10.1c-0.3-0.7-0.5-2.7-0.5-5.6c0-4.2-0.7-5.5-5.3-5.5L193.2,451.4L193.2,451.4z"/>
	<path fill="#FFFFFF" d="M193.2,444.4h3.9c3.1,0,4.7-0.8,4.7-3c0-2.3-1.7-3.3-4-3.3h-4.6V444.4L193.2,444.4z"/>
	<polygon points="212.4,462.5 212.4,430.6 222.4,430.6 222.4,455 236,455 236,462.5 	"/>
	<polygon points="236.6,462.5 236.6,430.6 246.6,430.6 246.6,462.5 	"/>
	<polygon points="268,448 267.6,440.7 267.6,430.6 277.1,430.6 277.1,462.5 267.8,462.5 257,445.1 257.4,452.4 257.4,462.5 
		247.9,462.5 247.9,430.6 257.2,430.6 	"/>
	<polygon points="278.4,462.5 278.4,430.6 303.1,430.6 303.1,438 288.4,438 288.4,442.6 300.9,442.6 300.9,450 288.4,450 288.4,455 
		303.7,455 303.7,462.5 	"/>
	<path d="M321.8,439.9c-0.2-1.1-0.7-1.8-1.4-2.2c-0.7-0.4-1.6-0.6-2.6-0.6c-2.2,0-3.2,0.7-3.2,1.8c0,4.8,17.4,1.8,17.4,13.4
		c0,7.4-5.8,11-14.2,11c-8,0-13.2-4.9-13.4-10.7h9.5c0.2,1.2,0.8,2,1.6,2.5c0.8,0.5,1.9,0.8,2.8,0.8c2.5,0,4.1-0.8,4.1-2.3
		c0-4.8-17.4-1.5-17.4-13.7c0-6.8,5.6-10.2,13.1-10.2c8.4,0,12.2,4.5,13,10.1L321.8,439.9L321.8,439.9z"/>
	<path d="M335.6,432.1c-0.5-0.5-1.1-0.8-1.9-0.8c-0.7,0-1.4,0.3-1.9,0.8c-0.5,0.5-0.8,1.1-0.8,1.9c0,0.7,0.3,1.4,0.8,1.9
		c0.5,0.5,1.1,0.8,1.9,0.8c0.7,0,1.4-0.3,1.9-0.8c0.5-0.5,0.8-1.1,0.8-1.9S336.2,432.6,335.6,432.1L335.6,432.1z"/>
	<path fill="#FFFFFF" d="M335.4,432.4c0.4,0.4,0.7,1,0.7,1.6c0,0.6-0.2,1.2-0.7,1.6c-0.4,0.5-1,0.7-1.6,0.7c-0.6,0-1.2-0.2-1.6-0.7
		c-0.4-0.4-0.7-1-0.7-1.6c0-0.6,0.2-1.2,0.7-1.6c0.4-0.4,1-0.7,1.6-0.7C334.4,431.7,334.9,431.9,335.4,432.4L335.4,432.4z"/>
	<path d="M332.7,435.4h0.5v-1.2h0.4c0.3,0,0.5,0,0.6,0.1c0.2,0.1,0.3,0.3,0.3,0.7v0.2l0,0.1c0,0,0,0,0,0c0,0,0,0,0,0h0.5l0,0
		c0,0,0-0.1,0-0.2s0-0.1,0-0.2v-0.2c0-0.2-0.1-0.3-0.2-0.5c-0.1-0.2-0.3-0.2-0.5-0.3c0.2,0,0.3-0.1,0.4-0.1c0.2-0.1,0.3-0.3,0.3-0.6
		c0-0.4-0.2-0.6-0.4-0.7c-0.2-0.1-0.4-0.1-0.8-0.1h-1L332.7,435.4L332.7,435.4z"/>
	<path fill="#FFFFFF" d="M334.2,433.9c-0.1,0-0.3,0.1-0.5,0.1h-0.5v-1.1h0.4c0.3,0,0.5,0,0.6,0.1c0.1,0.1,0.2,0.2,0.2,0.4
		C334.5,433.6,334.4,433.8,334.2,433.9L334.2,433.9z"/>
	<polygon fill="#FFFFFF" points="-102.8,478.5 -99.4,486.6 -106.2,486.6 	"/>
	<path d="M-73.7,488.3h0.7c0.5,1.3,1.1,2.4,1.8,3.2c1.2,1.4,2.6,2.1,4.4,2.1c0.9,0,1.8-0.3,2.4-0.9c0.7-0.6,1-1.4,1-2.5
		c0-1-0.3-1.8-1-2.5c-0.5-0.5-1.4-1.1-2.9-2l-2.5-1.6c-0.8-0.5-1.4-1-1.8-1.5c-0.8-0.9-1.3-2-1.3-3.1c0-1.5,0.5-2.7,1.5-3.7
		c1-1,2.3-1.5,3.9-1.5c0.7,0,1.5,0.2,2.4,0.5c0.9,0.3,1.5,0.5,1.6,0.5c0.4,0,0.6-0.1,0.8-0.3c0.1-0.2,0.2-0.4,0.3-0.7h0.6l0.6,6.3
		h-0.7c-0.5-1.9-1.3-3.2-2.3-4c-1.1-0.8-2.1-1.1-3.2-1.1c-0.8,0-1.5,0.2-2.1,0.7c-0.6,0.5-0.9,1.1-0.9,2c0,0.8,0.2,1.4,0.7,1.9
		c0.5,0.5,1.2,1.1,2.1,1.7l2.6,1.6c1.6,1,2.8,1.9,3.4,2.8c0.7,0.8,1,1.8,1,3c0,1.5-0.6,2.8-1.8,3.9c-1.2,1-2.7,1.6-4.5,1.6
		c-0.9,0-1.9-0.2-2.9-0.5c-1-0.3-1.6-0.5-1.7-0.5c-0.3,0-0.6,0.1-0.7,0.3c-0.1,0.2-0.2,0.4-0.2,0.7h-0.6L-73.7,488.3L-73.7,488.3z"
		/>
	<path d="M-53.2,476.6h7.4v0.5c-0.6,0-1.1,0-1.4,0.1c-0.3,0.1-0.5,0.4-0.5,0.7c0,0.1,0,0.3,0.1,0.4c0.1,0.2,0.2,0.4,0.4,0.7l3.9,5.9
		l3.8-6c0.2-0.3,0.3-0.5,0.3-0.6c0-0.2,0.1-0.3,0.1-0.4c0-0.4-0.2-0.6-0.6-0.8c-0.2-0.1-0.7-0.1-1.2-0.1v-0.5h5.8v0.5
		c-0.5,0-1,0.2-1.4,0.5c-0.7,0.5-1.4,1.3-2.2,2.6l-3.9,6v5.2c0,1,0.2,1.7,0.5,1.9c0.3,0.3,1.1,0.4,2.2,0.5v0.5h-8.1v-0.5
		c1.2-0.1,1.9-0.2,2.2-0.5c0.3-0.3,0.4-1,0.4-2.2v-4.6l-3.5-5.1c-1.2-1.8-2-2.9-2.5-3.4c-0.5-0.5-1.1-0.8-1.8-0.8L-53.2,476.6
		L-53.2,476.6z"/>
	<path d="M-31.1,494.2v-0.5c1.1-0.1,1.8-0.4,2.1-0.7c0.3-0.4,0.5-1.3,0.5-2.7v-10.8c0-1-0.2-1.6-0.5-1.9c-0.3-0.3-1-0.5-2.1-0.5
		v-0.5h5.3l6.1,13.4l5.9-13.4h5.3v0.5c-1,0.1-1.6,0.2-1.9,0.5c-0.3,0.3-0.4,0.9-0.4,1.9v11.8c0,1,0.1,1.6,0.4,1.9
		c0.3,0.3,0.9,0.5,1.9,0.5v0.5h-7.4v-0.5c1.1-0.1,1.7-0.3,2-0.6c0.3-0.3,0.4-1,0.4-2.1v-11.9l-6.8,15.1h-0.4l-6.7-14.5v10.6
		c0,1.5,0.2,2.4,0.6,2.8c0.3,0.3,0.9,0.5,1.9,0.6v0.5L-31.1,494.2L-31.1,494.2z"/>
	<path fill="#FFFFFF" d="M4.7,493.1c-0.3-0.1-0.4-0.4-0.4-0.9v-6.6c0.2,0,0.4,0,0.5,0c0.1,0,0.4,0,0.8,0c1.7,0,3,0.3,4.1,0.8
		s1.6,1.6,1.6,3c0,1.5-0.5,2.5-1.4,3c-0.9,0.5-2.1,0.8-3.4,0.8C5.6,493.3,5,493.2,4.7,493.1L4.7,493.1z"/>
	<path fill="#FFFFFF" d="M4.3,484.5v-6c0-0.4,0.1-0.7,0.2-0.8c0.1-0.1,0.5-0.1,1-0.1c1.5,0,2.5,0.2,3.3,0.5c1.3,0.6,1.9,1.6,1.9,3.2
		c0,1.3-0.6,2.3-1.7,2.8c-0.6,0.3-1.3,0.4-2.2,0.4L4.3,484.5L4.3,484.5z"/>
	<path fill="#FFFFFF" d="M27.6,479.2c1.1-1.3,2.4-2,4-2c1.5,0,2.9,0.6,4,1.9c1.1,1.3,1.7,3.4,1.7,6.3c0,2.9-0.6,4.9-1.7,6.3
		c-1.1,1.3-2.5,1.9-4,1.9c-1.6,0-2.9-0.7-4-2c-1.1-1.3-1.6-3.4-1.6-6.2C26,482.6,26.5,480.6,27.6,479.2L27.6,479.2z"/>
	<path d="M47.5,494.2v-0.5c1-0.1,1.6-0.3,1.9-0.5c0.3-0.2,0.4-0.9,0.4-1.9v-11.8c0-0.9-0.1-1.6-0.4-1.9c-0.3-0.3-0.9-0.5-1.9-0.5
		v-0.5H55v0.5c-1,0.1-1.6,0.2-2,0.5c-0.3,0.3-0.5,0.8-0.5,1.7v12.8c0,0.3,0.1,0.5,0.1,0.7c0.1,0.2,0.3,0.3,0.7,0.3
		c0.2,0,0.4,0,0.6,0.1c0.2,0,0.6,0,1.2,0c2.4,0,4-0.2,4.8-0.6c0.8-0.4,1.6-1.4,2.4-3h0.7l-1.3,4.6L47.5,494.2L47.5,494.2z"/>
	<path fill="#FFFFFF" d="M89.9,477.6c1.2-1.5,2.7-2.2,4.5-2.2c1.7,0,3.2,0.7,4.4,2.1c1.2,1.4,1.9,3.8,1.9,7c0,3.2-0.6,5.5-1.9,6.9
		c-1.2,1.4-2.7,2.2-4.5,2.2c-1.8,0-3.3-0.7-4.5-2.2c-1.2-1.5-1.8-3.8-1.8-6.9C88.1,481.4,88.7,479.1,89.9,477.6L89.9,477.6z"/>
	<path d="M111.9,494.2v-0.5c1-0.1,1.7-0.3,2-0.6c0.3-0.3,0.4-1,0.4-2.1v-11.5c0-0.9-0.1-1.6-0.4-1.9s-0.9-0.5-1.9-0.5v-0.5h14.2
		l0.1,3.8h-0.7c-0.2-1.2-0.5-2-1-2.3c-0.5-0.3-1.5-0.5-3-0.5h-3.6c-0.4,0-0.6,0.1-0.7,0.2c-0.1,0.1-0.2,0.4-0.2,0.7v5.9h3.8
		c1.1,0,1.9-0.2,2.2-0.5c0.3-0.3,0.6-1,0.8-2h0.6v6.1h-0.6c-0.2-1-0.5-1.7-0.8-2c-0.3-0.3-1-0.5-2.2-0.5H117v5.8
		c0,1,0.2,1.6,0.4,1.9c0.3,0.3,0.9,0.4,2,0.5v0.5L111.9,494.2L111.9,494.2z"/>
	<path d="M147.7,494.2v-0.5c1.2-0.1,1.9-0.3,2.2-0.6c0.3-0.3,0.4-1.1,0.4-2.4v-12.8c0-1-0.2-1.7-0.5-2.1c-0.3-0.3-1-0.5-2.1-0.6
		v-0.5h15.7l0.1,4.2h-0.8c-0.2-1.4-0.6-2.2-1.1-2.6c-0.6-0.4-1.7-0.5-3.3-0.5h-4c-0.4,0-0.6,0.1-0.8,0.2c-0.1,0.1-0.2,0.4-0.2,0.8
		v6.6h4.3c1.3,0,2.1-0.2,2.4-0.6c0.3-0.4,0.6-1.1,0.8-2.3h0.7v6.8h-0.7c-0.2-1.1-0.5-1.9-0.8-2.3c-0.3-0.4-1.1-0.6-2.4-0.6h-4.3v6.5
		c0,1.1,0.2,1.8,0.5,2.1c0.3,0.3,1.1,0.5,2.2,0.6v0.5L147.7,494.2L147.7,494.2z"/>
	<path fill="#FFFFFF" d="M175.6,478.6c0-0.4,0.1-0.6,0.2-0.8c0.2-0.1,0.6-0.2,1.4-0.2c1.1,0,2,0.2,2.7,0.5c1.3,0.6,1.9,1.6,1.9,3.2
		c0,1.6-0.7,2.7-2.1,3.3c-0.8,0.3-2.2,0.5-4.1,0.6L175.6,478.6L175.6,478.6z"/>
	<path d="M192.6,494.2v-0.5c1-0.1,1.6-0.3,1.9-0.5c0.3-0.2,0.4-0.9,0.4-1.9v-11.8c0-0.9-0.1-1.6-0.4-1.9c-0.3-0.3-0.9-0.5-1.9-0.5
		v-0.5h14.1l0.1,3.8h-0.7c-0.2-1.2-0.6-1.9-1-2.3c-0.5-0.3-1.5-0.5-3-0.5h-3.6c-0.4,0-0.6,0.1-0.7,0.2c-0.1,0.1-0.1,0.4-0.1,0.7v5.9
		h4.1c1.1,0,1.9-0.2,2.2-0.5c0.3-0.3,0.6-1,0.8-2h0.6v6.1h-0.6c-0.2-1-0.5-1.7-0.8-2c-0.3-0.3-1-0.5-2.2-0.5h-4.1v6.6
		c0,0.5,0.2,0.8,0.5,0.9c0.3,0.1,1.3,0.1,3,0.1c1.8,0,3.1-0.2,4-0.6s1.6-1.3,2.3-2.9h0.7l-1.2,4.5L192.6,494.2L192.6,494.2z"/>
	<path d="M216.2,494.2v-0.5c1-0.1,1.6-0.3,1.9-0.5c0.3-0.2,0.4-0.9,0.4-1.9v-11.8c0-0.9-0.1-1.6-0.4-1.9c-0.3-0.3-0.9-0.5-1.9-0.5
		v-0.5h14.1l0.1,3.8h-0.7c-0.2-1.2-0.6-1.9-1-2.3c-0.5-0.3-1.5-0.5-3-0.5h-3.6c-0.4,0-0.6,0.1-0.7,0.2c-0.1,0.1-0.1,0.4-0.1,0.7v5.9
		h4.1c1.1,0,1.9-0.2,2.2-0.5c0.3-0.3,0.6-1,0.8-2h0.6v6.1h-0.6c-0.2-1-0.5-1.7-0.8-2c-0.3-0.3-1-0.5-2.2-0.5h-4.1v6.6
		c0,0.5,0.2,0.8,0.5,0.9s1.3,0.1,3,0.1c1.8,0,3.1-0.2,4-0.6s1.6-1.3,2.3-2.9h0.7l-1.2,4.5L216.2,494.2L216.2,494.2z"/>
	<path fill="#FFFFFF" d="M245.1,478.7c0-0.4,0.1-0.7,0.3-0.9c0.2-0.1,0.6-0.2,1.2-0.2c2.4,0,4.3,0.6,5.8,1.8
		c1.7,1.4,2.5,3.4,2.5,6.2c0,3.1-1,5.2-3.1,6.5c-1.3,0.8-3,1.2-5.1,1.2c-0.7,0-1.1-0.1-1.3-0.2c-0.2-0.1-0.3-0.4-0.3-0.9V478.7
		L245.1,478.7z"/>
	<path fill="#FFFFFF" d="M270.1,479.2c1.1-1.3,2.5-2,4-2c1.5,0,2.9,0.6,4,1.9c1.1,1.3,1.7,3.4,1.7,6.3c0,2.9-0.6,4.9-1.7,6.3
		c-1.1,1.3-2.5,1.9-4,1.9c-1.6,0-2.9-0.7-4-2c-1.1-1.3-1.6-3.4-1.6-6.2C268.4,482.6,269,480.6,270.1,479.2L270.1,479.2z"/>
	<path d="M290,494.2v-0.5c1.1-0.1,1.8-0.4,2.1-0.7c0.3-0.4,0.5-1.3,0.5-2.7v-10.8c0-1-0.2-1.6-0.5-1.9c-0.3-0.3-1-0.5-2.1-0.5v-0.5
		h5.3l6.1,13.4l5.9-13.4h5.3v0.5c-1,0.1-1.6,0.2-1.9,0.5s-0.4,0.9-0.4,1.9v11.8c0,1,0.1,1.6,0.4,1.9c0.3,0.3,0.9,0.5,1.9,0.5v0.5
		h-7.5v-0.5c1.1-0.1,1.7-0.3,2-0.6c0.3-0.3,0.4-1,0.4-2.1v-11.9l-6.8,15.1h-0.4l-6.7-14.5v10.6c0,1.5,0.2,2.4,0.6,2.8
		c0.3,0.3,0.9,0.5,1.9,0.6v0.5L290,494.2L290,494.2z"/>
	<path d="M314.3,480.9h0.1c0.1,0.3,0.2,0.5,0.4,0.6c0.2,0.3,0.5,0.4,0.9,0.4c0.2,0,0.4-0.1,0.5-0.2c0.1-0.1,0.2-0.3,0.2-0.5
		c0-0.2-0.1-0.4-0.2-0.5c-0.1-0.1-0.3-0.2-0.6-0.4l-0.5-0.3c-0.2-0.1-0.3-0.2-0.4-0.3c-0.2-0.2-0.3-0.4-0.3-0.6
		c0-0.3,0.1-0.5,0.3-0.7c0.2-0.2,0.5-0.3,0.8-0.3c0.1,0,0.3,0,0.5,0.1c0.2,0.1,0.3,0.1,0.3,0.1c0.1,0,0.1,0,0.2-0.1
		c0,0,0-0.1,0.1-0.1h0.1l0.1,1.3h-0.1c-0.1-0.4-0.2-0.6-0.5-0.8c-0.2-0.2-0.4-0.2-0.6-0.2c-0.2,0-0.3,0-0.4,0.1
		c-0.1,0.1-0.2,0.2-0.2,0.4c0,0.2,0,0.3,0.1,0.4s0.2,0.2,0.4,0.3l0.5,0.3c0.3,0.2,0.6,0.4,0.7,0.6c0.1,0.2,0.2,0.4,0.2,0.6
		c0,0.3-0.1,0.6-0.3,0.8c-0.2,0.2-0.5,0.3-0.9,0.3c-0.2,0-0.4,0-0.6-0.1c-0.2-0.1-0.3-0.1-0.3-0.1c-0.1,0-0.1,0-0.1,0.1
		c0,0,0,0.1,0,0.1h-0.1L314.3,480.9L314.3,480.9z"/>
	<path d="M317.4,482v-0.1c0.2,0,0.4-0.1,0.5-0.2c0.1-0.1,0.1-0.3,0.1-0.6v-2.4c0-0.2,0-0.4-0.1-0.4c-0.1-0.1-0.2-0.1-0.5-0.1v-0.1
		h1.2l1.4,3l1.3-3h1.2v0.1c-0.2,0-0.4,0.1-0.4,0.1c-0.1,0.1-0.1,0.2-0.1,0.4v2.6c0,0.2,0,0.4,0.1,0.4c0.1,0.1,0.2,0.1,0.4,0.1v0.1
		h-1.7v-0.1c0.2,0,0.4-0.1,0.4-0.1c0.1-0.1,0.1-0.2,0.1-0.5v-2.7l-1.5,3.4h-0.1l-1.5-3.2v2.4c0,0.3,0,0.5,0.1,0.6
		c0.1,0.1,0.2,0.1,0.4,0.1v0.1L317.4,482L317.4,482z"/>
	<path d="M15.8,399.5l22.5,3c0,0,1.5,3.7,4.8,3.7c0,0,2.6,0.4,5.4-1.5c0,0,6.3,0.4,7.8,1.8c0,0-1.1,4.2,5.9,3.5
		c0,0,7.2,15.1,25.8,8.3c0,0,22.5,14.5,47.8-2.7c0,0,15.3-0.5,25.3-9.1c0,0,3.7,1.1,11.1-0.5c0,0,4.9,3.6,13.5,0.2
		c0,0,4.9,8.6,15.3,8.6c10.3,0,23.7-7.9,26.3-14c0,0,23.4,0.2,28.5-0.2c5.2-0.5,10.6-4.2,11.8-7.1c1.1-2.6-42.1-5.2-42.1-5.2
		s-8.4-13-25.3-3h-6.4c0,0,29-17.7,29-44.3c0,0-0.2-11.8-8.9-18c0,0-9.3-12.3-26.1-12.3c-16.7,0-31.3,9.8-42.3,20.7
		c-11.1,10.8-36.8,34.2-38.9,35.9c-3.1,2.5-8.1,5.2-9.6,1.7c-1.5-3.4-14.3-34.7-14.3-34.7s-1.6-1.7-3-1.2c-2.7,1-5.8,3.4,2.7,46.4
		c0,0-5-0.2-10.3,3.7c0,0-99.3,3.3-124.4,4.8c0,0-3,1.1-6.6,5.9l65.3,4.8C6.6,398.8,7.2,407.6,15.8,399.5L15.8,399.5z"/>
	<polygon fill="#FFFFFF" points="67.8,386.7 -50.8,389.2 -50.1,390.9 66,389.4 	"/>
	<path fill="#FFFFFF" d="M9.6,397.1c1.5-1.2,3.1-1.6,3.7-1c0.5,0.7-0.2,2.2-1.7,3.4c-1.5,1.2-3.2,1.6-3.7,1
		C7.3,399.9,8.1,398.3,9.6,397.1L9.6,397.1z"/>
	<path fill="#FFFFFF" d="M43.3,399.4c1.8-1.5,3.8-2,4.5-1.2c0.7,0.8-0.3,2.7-2.1,4.1c-1.8,1.5-3.8,2-4.5,1.2
		C40.6,402.7,41.5,400.8,43.3,399.4L43.3,399.4z"/>
	<path fill="#FFFFFF" d="M60.4,402.5c0,0-3.5,2.8-3.6,3.5c-0.1,0.7,0,2.6,1.6,1.8c1.6-0.7,3.1-3.4,3.1-3.4S61.5,402.8,60.4,402.5
		L60.4,402.5z"/>
	<path fill="#FFFFFF" d="M67.3,389.3c0,0-5.9,6.3-4.8,15.5c0,0,1.8,0.1,3.9-4.7C67.1,398.5,65.7,396,67.3,389.3L67.3,389.3z"/>
	<path fill="#FFFFFF" d="M84.7,380.9c-9.4,0-17.1,6.4-17.1,14.2s7.7,14.2,17.1,14.2c9.4,0,17.1-6.4,17.1-14.2S94.1,380.9,84.7,380.9
		L84.7,380.9z"/>
	<path d="M84.7,382.1c0,0,13,0.4,13,11.5c0,10.8-12.2,10.7-12.2,10.7c-7.1,0-12.8-4.7-12.8-11C72.7,382.5,84.7,382.1,84.7,382.1
		L84.7,382.1z"/>
	<path d="M84.7,407.7c-8.3,0-15-5.6-15-12.5c0-5.1,2.8-9.9,8.3-11.9c-3.9,2.1-6.5,5.7-6.5,10.2c0,6.9,6.3,11.9,14.1,11.9
		c4.9,0,9.2-1.9,11.7-5.1C96.2,403.8,93,407.7,84.7,407.7L84.7,407.7z"/>
	<path fill="#FFFFFF" d="M94.5,373.7c0,0-3.6,2-7.6,0.6c0,0-8.7-23.5-8.7-34.1c0,0-0.2-4.2,2.1-4.9c0,0,1.3-0.5,3.2,5.8
		C85.4,347.4,94.5,373.7,94.5,373.7L94.5,373.7z"/>
	<path fill="#FFFFFF" d="M227.6,398.1l-0.5,1.5h26.8c0,0,3.8-0.1,7.6-2.7c0,0-17.2-2.7-25,1.2H227.6L227.6,398.1z"/>
	<polygon fill="#FFFFFF" points="226.3,391.1 227.1,393.1 260.3,394.3 260.1,393.7 	"/>
	<path fill="#FFFFFF" d="M166.7,401.8c0,0,6.6-9.2,14.6-9.2c8,0-0.4,6.9-4.6,8.7L166.7,401.8L166.7,401.8z"/>
	<path fill="#FFFFFF" d="M179.2,404.7c1.9-0.8,3.1-2.1,2.7-2.9c-0.3-0.8-2.1-0.8-4,0c-1.9,0.8-3.1,2.1-2.7,2.9
		C175.5,405.6,177.3,405.5,179.2,404.7L179.2,404.7z"/>
	<path fill="#FFFFFF" d="M201,386c0,0-14.6,3.8-14.3,12.3c0,0-0.2,3,3.9,2.6c3.9-0.4,6.8-3,7.9-8.2C199.4,388.7,201,386,201,386
		L201,386z"/>
	<path fill="#FFFFFF" d="M217.6,406.7c0,0-5.3,0.6-9.4-0.9c0,0-1.9-0.8-2.7,0.2C204.9,407.1,214.7,410.4,217.6,406.7L217.6,406.7z"
		/>
	<path fill="#FFFFFF" d="M214.1,382.8c-0.5,0-1,0-1.5,0.1c-3.1-0.4-10.6-0.3-12.6,9c0,0,3.1-6.8,7.7-6.9c-2.7,2.1-4.5,5.4-4.5,9
		c0,6.1,4.9,11,11,11s11-4.9,11-11S220.2,382.8,214.1,382.8L214.1,382.8z"/>
	<path fill="#FFFFFF" d="M188.3,407.5l10.1-5.4c0.4-0.2,0.5-0.6,0.3-1c-0.2-0.4-0.6-0.5-1-0.3l-10.2,5.3c-0.4,0.2-0.5,0.6-0.3,1
		C187.5,407.5,187.9,407.7,188.3,407.5L188.3,407.5z"/>
	<path d="M214.1,403.8c5.4,0,9.8-4.3,9.8-9.7s-4.4-9.7-9.8-9.7s-9.8,4.3-9.8,9.7S208.7,403.8,214.1,403.8L214.1,403.8z"/>
	<path fill="#FFFFFF" d="M205.2,393.9c0,0-0.3,5,3.7,7.2c0,0,4.1-3.5-0.4-4.3C208.5,396.8,210.4,393.4,205.2,393.9L205.2,393.9z"/>
	<path fill="#FFFFFF" d="M210.1,396.8c0.5,0,0.9-0.4,0.9-0.9c0-0.5-0.4-0.9-0.9-0.9c-0.5,0-0.9,0.4-0.9,0.9
		C209.2,396.4,209.6,396.8,210.1,396.8L210.1,396.8z"/>
	<path fill="#FFFFFF" d="M94.5,381.3c0,0,48.7-47.1,67.7-60c0,0,17.3-10.9,30.1-6.5c0,0,1.1,1.3-1.3,1.3c-2.4,0-11.6,0.9-14.4,2
		c-2.8,1.1-13.3,5.9-13.3,5.9l-1.8,6.5l8.7,1.7c0,0,22.9-13.5,42.6-5.7c0,0,5.4,4.4,4.8,11.3c0,0-26.6-10.3-97.4,42.6
		c0,0-2.4-1.1-7.8-0.4C107,380.7,94.5,381.3,94.5,381.3L94.5,381.3z"/>
	<path fill="#FFFFFF" d="M122.7,383.7c0,0,51.9-41.9,86.9-42.6c0,0,6.5-0.6,6.5,3.5c0,3.5-9,24.9-37.1,27.3c0,0-24.9,22-42.8,21.4
		c0,0-11.1-0.4-14.8-4.2C121.4,389,123.2,387.4,122.7,383.7L122.7,383.7z"/>
	<path d="M215.1,344.7c0,0-0.7,5.5-9.6,14.9l-0.6-0.4c0,0,3.1-4.1,2.6-4.5c0,0-1.8-1.3-0.5-3c1.4-1.7,4.8-6.1,5-8.7
		c0,0,0.7-1.8,2.1-0.9C215.4,343.1,215.1,344.7,215.1,344.7L215.1,344.7z"/>
	<path fill="#FFFFFF" d="M98,384.5c0,0,2,2.1,2.7,4.2l10.2-0.4c0,0,0.8-3.1-1.1-4.2L98,384.5L98,384.5z"/>
	<path fill="#FFFFFF" d="M120,383.7c0,0,2.5,1,1,4.1h-2.9c0,0-1.9-3.8-0.5-4C119,383.7,120,383.7,120,383.7L120,383.7z"/>
	<path fill="#FFFFFF" d="M111.6,384.5c0,0,2-1.3,3.4-0.1l-0.2,1.7l1.9,2l-4.2,0.2l0.6-2.3L111.6,384.5L111.6,384.5z"/>
	<path fill="#FFFFFF" d="M217.6,338.4c-3.6-0.9-7.1-0.8-7.3-0.8c-14.6,0.1-34.1,7.4-58.2,21.9c-17.9,10.7-31.2,21.1-31.3,21.2
		l0.4,1.6c0.5-0.4,55-43,89-43.2c0,0,3.7-0.2,7.1,1L217.6,338.4L217.6,338.4z"/>
	<polygon fill="#FFFFFF" points="182.8,324.7 179.8,326 177.2,318.5 163.8,324.3 162.3,330.2 169.2,331.2 183.1,325.4 	"/>
	<polygon points="164.4,324.8 169.1,322.8 168.9,330.4 163.2,329.6 	"/>
	<polygon points="169.6,330.2 169.9,322.5 176.8,319.5 179.1,326.3 	"/>
	<polygon fill="#FFFFFF" points="167.7,324.3 164.9,325.4 163.9,329.1 164.8,329.2 167.8,325.6 	"/>
	<polygon fill="#FFFFFF" points="171.1,322.6 171.1,328.6 173.5,327.3 173.4,325.6 176.4,322.6 175.8,320.8 	"/>
	<polygon fill="#FFFFFF" points="181.1,319.3 178.9,320.1 179.7,322.4 181.6,320.6 	"/>
	<polygon fill="#FFFFFF" points="183.1,323.4 183.8,323.1 186.7,319.9 186.7,318.4 185.6,318.5 183,322.5 	"/>
	<path fill="#FFFFFF" d="M196.3,320.9l-1.9,1.2l3.6-0.2l-2.9-4.8c0,0,6.4-0.6,9.6,4.2l-1.4,0.8l4.1,0.1c0,0-5.1-6.6-13.6-6
		L196.3,320.9L196.3,320.9z"/>
	<path d="M147.6,334.5c0,0-5.3,4.3-6.4,5.5c0,0-2,8.6,0.2,18.3l6.3-4.4C147.7,354,146.6,339.7,147.6,334.5L147.6,334.5z"/>
	<path fill="#FFFFFF" d="M145.6,338l-3.1,2.6c0,0-2,6.9,0.1,15.3l3.3-2.2l-0.4-5.2h-1.4l-0.1-3.2l1.6-1.1L145.6,338L145.6,338z"/>
	<polygon points="135.4,346.1 135.6,351.5 137.9,349.8 137.9,343.6 	"/>
	<polygon points="133.8,347.4 131.7,349 132.1,354.5 133.8,353.1 	"/>
	<polygon points="130,350.6 127.9,352.2 128.3,357.6 130,356.2 	"/>
	<polygon points="126,354 124,355.8 124.4,361.2 126.1,359.8 	"/>
	<polygon points="122.4,357.3 120.4,359.1 120.7,364.5 122.4,363.1 	"/>
	<polygon points="118.8,360.6 116.7,362.3 117.1,367.7 118.8,366.4 	"/>
	<polygon points="115.1,363.9 113.1,365.7 113.5,371.1 115.2,369.7 	"/>
	<polygon points="110.1,368.4 108,370.2 108.4,374.8 110.1,373.4 	"/>
	<polygon points="107.3,370.9 105.2,372.7 105.5,377 107.3,375.6 	"/>
	<polygon points="104.1,373.8 102.1,375.6 102.6,379.4 104.3,378.1 	"/>
	<path d="M80.6,340c0.1,0,0.1-0.1,0.1-0.2c0-0.1,0-0.1,0-0.2c-0.1-0.2-0.1-0.2-0.2-0.2c-0.4,0.1,0.3,1.5-0.6,1.8
		c-0.6,0.2-1-0.2-1.3-0.9c-0.2-0.7,0-1.2,0.5-1.4l0.3,0.8c-0.1,0.1-0.1,0.1-0.2,0.2c0,0.1,0,0.2,0,0.3c0.1,0.2,0.2,0.3,0.3,0.3
		c0.4-0.1-0.4-1.5,0.6-1.8c0.5-0.2,1,0.2,1.2,0.8c0.2,0.7,0,1.1-0.4,1.3L80.6,340L80.6,340z"/>
	<path d="M81.7,345.1c-0.9,0.3-1.5-0.1-1.8-0.9c-0.3-0.8,0-1.5,0.9-1.8c0.8-0.3,1.5,0.1,1.8,0.9C82.9,344.2,82.4,344.9,81.7,345.1
		L81.7,345.1z"/>
	<path fill="#FFFFFF" d="M81.1,343.3c-0.3,0.1-0.7,0.3-0.6,0.7c0.1,0.4,0.5,0.4,0.9,0.3c0.3-0.1,0.7-0.4,0.5-0.7
		C81.9,343.2,81.4,343.2,81.1,343.3L81.1,343.3z"/>
	<path d="M83.5,346.3l0.3,0.8l-1.5,0.5c-0.2,0.1-0.4,0.2-0.3,0.5c0.1,0.3,0.3,0.3,0.6,0.2l1.5-0.5l0.3,0.8l-1.4,0.5
		c-0.8,0.3-1.3,0-1.6-0.8c-0.3-0.8-0.1-1.3,0.8-1.6L83.5,346.3L83.5,346.3z"/>
	<polygon points="84.9,350.3 85.7,352.6 85,352.8 84.7,352.1 82.9,352.7 82.6,351.9 84.5,351.2 84.2,350.5 	"/>
	<polygon points="83.7,355 86.2,354.2 86.5,355 85.6,355.3 85.9,356 86.7,355.8 87,356.6 84.5,357.4 84.2,356.6 85.2,356.3 
		84.9,355.5 84,355.8 	"/>
	<polygon points="86.8,361 86.8,361 88.4,360.7 88.7,361.5 86,361.7 85.7,360.9 87.1,360.1 87,360.1 85.5,360.3 85.2,359.5 
		87.5,358.1 87.8,358.9 86.3,359.7 86.3,359.7 88,359.4 88.2,360.1 	"/>
	<polygon points="86.7,363.9 89.2,363 89.9,365.1 89.3,365.3 88.9,364.1 88.5,364.2 88.9,365.2 88.3,365.4 87.9,364.4 87.6,364.5 
		88,365.8 87.4,366 	"/>
	<path d="M90.2,368.3c0.1,0,0.1-0.1,0.1-0.2c0-0.1,0-0.1,0-0.2c-0.1-0.2-0.1-0.2-0.2-0.2c-0.4,0.1,0.3,1.5-0.6,1.8
		c-0.6,0.2-1-0.2-1.3-0.9c-0.2-0.7,0-1.2,0.5-1.4L89,368c-0.1,0-0.1,0.1-0.2,0.2c0,0.1,0,0.2,0,0.3c0.1,0.2,0.2,0.3,0.3,0.3
		c0.4-0.1-0.4-1.5,0.6-1.8c0.5-0.2,1,0.2,1.2,0.8c0.2,0.7,0,1.1-0.4,1.3L90.2,368.3L90.2,368.3z"/>
	<polygon points="91.7,370.4 92.5,372.7 91.8,372.9 91.6,372.2 89.7,372.8 89.4,372 91.3,371.3 91,370.6 	"/>
	<path fill="#FFFFFF" d="M83.4,401.6c2.7,0,4.8-2.2,4.8-4.8c0-2.7-2.2-4.8-4.8-4.8c-2.7,0-4.8,2.2-4.8,4.8
		C78.6,399.4,80.7,401.6,83.4,401.6L83.4,401.6z"/>
	<path d="M84.6,396.7c0.9,0,1.6-0.7,1.6-1.6c0-0.9-0.7-1.6-1.6-1.6c-0.9,0-1.6,0.7-1.6,1.6C83,396,83.7,396.7,84.6,396.7L84.6,396.7
		z"/>
</g>
</svg>
