<?xml version="1.0" encoding="utf-8"?>
<!-- Generator: Adobe Illustrator 18.1.1, SVG Export Plug-In . SVG Version: 6.00 Build 0)  -->
<svg version="1.1"
	 id="Southwest_Logo_1_" xmlns:dc="http://purl.org/dc/elements/1.1/" xmlns:cc="http://creativecommons.org/ns#" xmlns:rdf="http://www.w3.org/1999/02/22-rdf-syntax-ns#" xmlns:svg="http://www.w3.org/2000/svg" xmlns:sodipodi="http://sodipodi.sourceforge.net/DTD/sodipodi-0.dtd" xmlns:inkscape="http://www.inkscape.org/namespaces/inkscape" sodipodi:docname="swa_logo_light.svg" inkscape:version="0.48.2 r9819"
	 xmlns="http://www.w3.org/2000/svg" xmlns:xlink="http://www.w3.org/1999/xlink" x="0px" y="0px" viewBox="250.5 178.1 3494.7 512"
	 enable-background="new 250.5 178.1 3494.7 512" xml:space="preserve">
<sodipodi:namedview  inkscape:cy="-115.24767" inkscape:cx="537.13497" inkscape:zoom="0.82659083" fit-margin-top="0.5" fit-margin-left="0.5" showgrid="false" guidetolerance="10" gridtolerance="10" objecttolerance="10" borderopacity="1" pagecolor="#ffffff" bordercolor="#666666" id="namedview39" inkscape:current-layer="Southwest_Logo_1_" inkscape:window-maximized="1" inkscape:window-y="-8" inkscape:window-x="-8" fit-margin-right="0.5" fit-margin-bottom="0.5" inkscape:window-height="1028" inkscape:window-width="1920" inkscape:pageshadow="2" inkscape:pageopacity="0">
	</sodipodi:namedview>
<g id="Type" transform="matrix(4.6848402,0,0,4.6848402,-1.6034932,-8.7525594)">
	<g id="g4">
		<path id="path6" inkscape:connector-curvature="0" fill="#2E4BB1" d="M258.6,127.5c-3.2,0.6-6.9,1.1-10.9,1.1
			c-11.2,0-13.6-3.9-13.6-11.1V74.9h-21l0,44.6c0,19.8,11.1,28.9,33.7,28.9c11,0,21.1-2,33.1-5.1V74.9h-21.2
			C258.6,74.9,258.6,127.5,258.6,127.5z M326.8,129.4c-7.6,0-8.7-3.6-8.7-9.4l0-27.4l17.4,0V74.9h-17.4v-21h-21v21l-10.6,0v17.6
			l10.6,0l0,28.8c0,12.7,2.6,27.1,23.5,27.2c6.4,0,11.6-1.5,17.3-3.1l-2.1-17.5C332.7,128.8,330,129.4,326.8,129.4z M106.3,90.1
			c-3.9-1.5-8.2-2.9-12.9-4.2c-12.3-3.5-16-5.4-16-10.8c0-6.4,4.7-9.3,15.7-9.3c9,0,17.1,2.3,25.2,5.4l4.4-20.6
			c-9.4-3.5-18.3-6.6-29.2-6.6c-25.3,0-39.3,14.4-39.3,31.6c0,12.8,5.8,21.5,18.2,26.5c3.7,1.5,7.9,2.9,12.6,4.3
			c13.7,4.2,17.7,6.2,17.7,11.5c0,6.4-5.2,9.8-16,9.8c-9.9,0-19-2.7-28.5-7.1l-4.4,20.8c10.4,4.1,20.7,7.1,33.2,7.2
			c25.8,0,39.1-14.4,39.1-31.7C126.1,102.7,118.1,94.6,106.3,90.1z M381.9,71.3c-6.9,0-13.5,1.6-18.2,3.2V39.9h-21v108.5h20.9
			l0-54.4c3.8-1.5,8.2-2.9,13.3-2.9c8.2,0,11.1,3.1,11.1,10.8l0,46.5h21l0-48.8C409.1,80.5,400.5,71.3,381.9,71.3L381.9,71.3z
			 M169.1,71c-21.2,0-38.4,14.9-38.4,38.5c0,23.6,17,39.1,38.4,39.1c21.3,0,38.4-15.4,38.4-39.1S190.4,71,169.1,71z M169.1,127.9
			c-9.1,0-16.4-6.6-16.4-18.5s7.1-18.1,16.5-18.1c9.4,0,16.3,6.2,16.3,18.2C185.4,121.5,178.2,127.9,169.1,127.9z M640.4,103.7
			c-3-1-6.4-2.1-10-3.2c-7.4-1.9-10.2-3.2-10.2-6.2c0-3.2,2.9-5.3,9.3-5.3c6.9,0,13.3,1.4,20.2,3.4l3.3-18.1
			c-7.6-1.7-15.1-3.1-23.5-3.1c-19.9,0-30.6,10.2-30.6,24.1c0,9.9,4.8,16.1,14.7,20.3c2.8,1.2,6.1,2.4,9.8,3.6
			c7.8,2.2,11.5,3.1,11.5,6.7c0,3.3-4.6,4.8-10.8,4.8c-7.6,0-14.7-1.2-22-4.1l-3.3,18c9,2.6,17.5,4.3,26.9,4.3
			c20.9,0,30.3-10.9,30.3-24.5C656.2,115,652.2,107.8,640.4,103.7L640.4,103.7z M561.4,71c-22.2,0-37.6,15.5-37.6,39.8
			c0,22.7,13.7,37.7,38,37.8c10.9,0,19.7-3,28.8-6.9l-3.2-17.4c-6.9,3.1-13.9,5.5-22.2,5.5c-12.5,0-17.7-5.4-18.5-13l47.2,0
			c0,0,0.7-8.6,0.7-10.2C594.6,86.9,583.6,71.1,561.4,71L561.4,71z M547,102.8c1.3-6.4,4.7-14.4,13.5-14.4c9.1,0,11.8,9.2,12.1,14.4
			L547,102.8z M697.6,129.4c-7.6,0-8.7-3.6-8.6-9.4l0-27.3l17.6,0V74.9H689v-21h-21.1v21l-10.7,0v17.8l10.7,0l0,28.7
			c0,12.7,3.1,27.1,24,27.2c6.4,0,11.7-1.5,17.4-3.1l-2.6-17.5C703.6,128.8,700.8,129.4,697.6,129.4L697.6,129.4z M711.6,44.2
			c-5.1,0-9.3,4.2-9.3,9.3c0,5.1,4.2,9.3,9.3,9.3c5.1,0,9.3-4.2,9.3-9.3C720.9,48.4,716.8,44.3,711.6,44.2z M711.6,61.2
			c-4.3,0-7.5-3.1-7.5-7.7c0-4.5,3.2-7.7,7.5-7.6c4.3,0,7.5,3.1,7.5,7.7C719.1,58.1,715.9,61.2,711.6,61.2L711.6,61.2z M712.8,54
			c1.6-0.2,2.7-1.2,2.7-2.8c0-1.8-1.2-3.1-3.6-3.1l-3.7,0l0,10.8l2,0v-4.6c0.7,0,1,0.2,1.5,1l2.3,3.6h2.3l-2.2-3.3
			C713.5,54.7,713.2,54.3,712.8,54L712.8,54z M711.2,52.8l-1.1,0l0-3.1l1.4,0c1.4,0,1.8,0.6,1.8,1.6
			C713.3,52.5,712.3,52.8,711.2,52.8z M504.3,74.9l-13.1,40.4l-13.6-40.4h-18.3l-13.6,40.4l-13.1-40.4h-22.8l26.1,73.4h19.4
			l13.4-39.7l13.2,39.7h19.4l26.1-73.4L504.3,74.9L504.3,74.9z"/>
	</g>
</g>
<g id="g8" transform="matrix(4.6848402,0,0,4.6848402,-1.6034932,-8.7525594)">
	<g id="g10">
		<path id="path12" inkscape:connector-curvature="0" fill="#CCCCCC" d="M776.2,70.7c-7.1,0-12.8,2.5-17.4,5.1
			c-4.6-2.6-10.3-5.1-17.4-5.1c-14.2,0-23.6,9.3-23.6,25.1c0,19.3,18.5,38.2,40.9,53.4c22.5-15.2,40.9-34,40.9-53.4
			C799.8,80,790.4,70.7,776.2,70.7z"/>
		
			<linearGradient id="path21_1_" gradientUnits="userSpaceOnUse" x1="238.0203" y1="126.8886" x2="292.0927" y2="126.8886" gradientTransform="matrix(4.6848 0 0 4.6848 -394.8763 -475.8298)">
			<stop  offset="0" style="stop-color:#3656CC"/>
			<stop  offset="0.35" style="stop-color:#304CB2"/>
			<stop  offset="0.72" style="stop-color:#283B80"/>
		</linearGradient>
		<path id="path21" inkscape:connector-curvature="0" fill="url(#path21_1_)" d="M720.2,96.2c0,19.8,20.8,38.1,38.6,50.3
			c5.1-3.5,10.4-7.5,15.4-12c-23.6-19.7-45.7-37.4-53.6-43.7C720.4,92.5,720.2,94.3,720.2,96.2L720.2,96.2z"/>
		
			<linearGradient id="path28_1_" gradientUnits="userSpaceOnUse" x1="239.6596" y1="117.7709" x2="300.7448" y2="160.5431" gradientTransform="matrix(4.6848 0 0 4.6848 -394.8763 -475.8298)">
			<stop  offset="0.3" style="stop-color:#E61C23"/>
			<stop  offset="0.8" style="stop-color:#C3161C"/>
		</linearGradient>
		<path id="path28" inkscape:connector-curvature="0" fill="url(#path28_1_)" d="M795.9,105.3c-17.1-14.1-27.4-21.3-38.5-27.9
			c-3-1.8-9-4.4-15.7-4.4c-6.4,0-11.9,2-15.6,5.9c-2.4,2.5-4.1,5.7-5,9.6c8.8,6.2,32.9,23.4,57.1,42.5
			C786.2,123.3,793,114.5,795.9,105.3L795.9,105.3z"/>
		
			<linearGradient id="path37_1_" gradientUnits="userSpaceOnUse" x1="247.7429" y1="116.5906" x2="282.6684" y2="141.0458" gradientTransform="matrix(4.6848 0 0 4.6848 -394.8763 -475.8298)">
			<stop  offset="0" style="stop-color:#FDBC11"/>
			<stop  offset="0.25" style="stop-color:#FCB415"/>
			<stop  offset="0.8" style="stop-color:#F89E1C"/>
		</linearGradient>
		<path id="path37" inkscape:connector-curvature="0" fill="url(#path37_1_)" d="M791.6,78.9c-3.7-3.8-9.1-5.9-15.3-5.9
			c-6.6,0-11.7,2.1-15.2,4.1c6.6,3.7,21,12,35.9,23c0.2-1.5,0.4-3,0.4-4.5C797.4,88.7,795.3,82.8,791.6,78.9z"/>
	</g>
</g>
</svg>
