<?xml version="1.0" encoding="UTF-8" standalone="no"?>
<!-- Generator: Adobe Illustrator 16.0.3, SVG Export Plug-In . SVG Version: 6.00 Build 0)  -->

<svg
   xmlns:dc="http://purl.org/dc/elements/1.1/"
   xmlns:cc="http://creativecommons.org/ns#"
   xmlns:rdf="http://www.w3.org/1999/02/22-rdf-syntax-ns#"
   xmlns:svg="http://www.w3.org/2000/svg"
   xmlns="http://www.w3.org/2000/svg"
   xmlns:sodipodi="http://sodipodi.sourceforge.net/DTD/sodipodi-0.dtd"
   xmlns:inkscape="http://www.inkscape.org/namespaces/inkscape"
   version="1.1"
   id="Southwest_Logo_1_"
   x="0px"
   y="0px"
   width="1000"
   height="147.35909"
   viewBox="0 0 1000 147.35909"
   enable-background="new 0 0 223 34"
   xml:space="preserve"
   inkscape:version="0.48.2 r9819"
   sodipodi:docname="swa_logo_light.svg"><metadata
   id="metadata43"><rdf:RDF><cc:Work
       rdf:about=""><dc:format>image/svg+xml</dc:format><dc:type
         rdf:resource="http://purl.org/dc/dcmitype/StillImage" /><dc:title></dc:title></cc:Work></rdf:RDF></metadata><defs
   id="defs41" /><sodipodi:namedview
   pagecolor="#ffffff"
   bordercolor="#666666"
   borderopacity="1"
   objecttolerance="10"
   gridtolerance="10"
   guidetolerance="10"
   inkscape:pageopacity="0"
   inkscape:pageshadow="2"
   inkscape:window-width="1920"
   inkscape:window-height="1028"
   id="namedview39"
   showgrid="false"
   fit-margin-left="0.5"
   fit-margin-bottom="0.5"
   fit-margin-top="0.5"
   fit-margin-right="0.5"
   inkscape:zoom="0.82659083"
   inkscape:cx="537.13497"
   inkscape:cy="-115.24767"
   inkscape:window-x="-8"
   inkscape:window-y="-8"
   inkscape:window-maximized="1"
   inkscape:current-layer="Southwest_Logo_1_" />
<g
   id="Type"
   style="fill:#2e4bb1;fill-opacity:1"
   transform="matrix(4.6848402,0,0,4.6848402,-1.6034932,-8.7525594)">
	<g
   id="g4"
   style="fill:#2e4bb1;fill-opacity:1">
		<path
   d="m 59,27.005 c -0.91,0.17 -1.972,0.319 -3.114,0.319 -3.192,-0.004 -3.895,-1.102 -3.894,-3.168 V 11.995 h -6.006 l -0.012,12.762 c -0.005,5.66 3.167,8.254 9.623,8.261 3.132,0.002 6.045,-0.576 9.464,-1.449 V 11.995 H 59 v 15.01 z m 19.497,0.558 c -2.184,-0.002 -2.485,-1.03 -2.484,-2.678 l 0.007,-7.845 4.982,0.005 v -5.05 H 76.02 V 5.986 h -6.016 v 6.008 l -3.035,10e-4 v 5.037 l 3.035,0.003 -0.007,8.238 c -0.003,3.627 0.734,7.761 6.708,7.766 1.827,0.002 3.32,-0.438 4.952,-0.9 l -0.598,-5.002 c -0.884,0.256 -1.658,0.426 -2.562,0.426 z M 15.444,16.317 C 14.331,15.891 13.089,15.491 11.757,15.123 8.251,14.133 7.172,13.58 7.173,12.041 c 0.001,-1.818 1.35,-2.653 4.494,-2.65 2.583,0.002 4.878,0.67 7.212,1.547 L 20.141,5.047 C 17.451,4.045 14.896,3.152 11.797,3.15 4.561,3.144 0.57,7.255 0.565,12.188 c -0.003,3.654 1.648,6.136 5.21,7.576 1.046,0.422 2.252,0.84 3.588,1.233 3.928,1.206 5.072,1.771 5.071,3.282 -10e-4,1.832 -1.498,2.808 -4.576,2.805 -2.829,-0.003 -5.43,-0.781 -8.15,-2.032 l -1.259,5.943 c 2.969,1.172 5.926,2.041 9.483,2.044 7.362,0.007 11.181,-4.115 11.185,-9.063 0.004,-4.046 -2.278,-6.36 -5.673,-7.659 z m 78.783,-5.363 c -1.972,-0.002 -3.856,0.456 -5.193,0.92 V 1.975 h -6.007 v 31.013 h 5.988 l 0.013,-15.546 c 1.083,-0.415 2.333,-0.825 3.811,-0.824 2.339,0.002 3.185,0.899 3.183,3.084 L 96.011,32.988 H 102 l 0.011,-13.939 c 0.005,-5.479 -2.469,-8.091 -7.784,-8.095 z M 33.419,10.855 c -6.074,-0.005 -10.977,4.26 -10.983,11 -0.006,6.742 4.873,11.179 10.963,11.184 6.086,0.006 10.973,-4.407 10.979,-11.163 0.006,-6.756 -4.89,-11.015 -10.959,-11.021 z m -0.015,16.284 c -2.611,-0.002 -4.702,-1.878 -4.699,-5.275 0.003,-3.397 2.029,-5.188 4.708,-5.186 2.675,0.002 4.658,1.771 4.655,5.192 -0.002,3.426 -2.055,5.273 -4.664,5.269 z m 134.713,-6.933 c -0.855,-0.297 -1.816,-0.604 -2.863,-0.906 -2.104,-0.554 -2.92,-0.907 -2.919,-1.774 0.001,-0.915 0.815,-1.524 2.665,-1.523 1.986,0.002 3.816,0.411 5.777,0.979 l 0.955,-5.188 c -2.162,-0.473 -4.303,-0.889 -6.729,-0.892 -5.688,-0.005 -8.75,2.906 -8.754,6.876 -0.002,2.82 1.367,4.602 4.203,5.801 0.801,0.341 1.743,0.686 2.812,1.021 2.217,0.64 3.297,0.9 3.297,1.901 -0.002,0.953 -1.314,1.386 -3.074,1.384 -2.166,-0.002 -4.188,-0.355 -6.275,-1.178 l -0.934,5.154 c 2.584,0.736 5.008,1.22 7.697,1.222 5.981,0.006 8.664,-3.128 8.668,-6.995 0.003,-2.647 -1.138,-4.692 -4.526,-5.882 z m -22.56,-9.327 c -6.348,-0.006 -10.752,4.418 -10.758,11.387 -0.005,6.502 3.922,10.791 10.863,10.797 3.102,0.002 5.631,-0.867 8.232,-1.974 l -0.902,-4.967 c -1.96,0.882 -3.987,1.569 -6.354,1.567 -3.578,-0.004 -5.052,-1.541 -5.283,-3.713 l 13.483,0.012 c 0,0 0.195,-2.446 0.195,-2.922 0.008,-5.659 -3.129,-10.182 -9.476,-10.187 z m -4.116,9.088 c 0.383,-1.842 1.342,-4.124 3.865,-4.122 2.6,0.003 3.383,2.64 3.45,4.128 l -7.315,-0.006 z m 43.049,7.596 c -2.184,-0.002 -2.473,-1.03 -2.471,-2.678 l 0.008,-7.797 5.039,0.005 v -5.098 h -5.041 V 5.986 h -6.027 v 6.008 l -3.063,10e-4 v 5.085 l 3.063,0.003 -0.008,8.19 c -0.004,3.627 0.877,7.761 6.851,7.766 1.827,0.002 3.333,-0.438 4.966,-0.9 l -0.742,-5.002 c -0.883,0.256 -1.67,0.426 -2.575,0.426 z m 4,-24.344 c -1.461,-10e-4 -2.65,1.188 -2.652,2.655 -0.002,1.467 1.188,2.657 2.646,2.659 1.469,0.001 2.658,-1.188 2.66,-2.655 0.002,-1.467 -1.187,-2.657 -2.654,-2.659 z m -0.006,4.844 c -1.23,-0.001 -2.148,-0.892 -2.148,-2.188 0.002,-1.289 0.922,-2.187 2.152,-2.185 1.24,10e-4 2.152,0.899 2.15,2.188 0.001,1.296 -0.913,2.185 -2.154,2.185 z m 0.33,-2.066 c 0.457,-0.07 0.764,-0.341 0.764,-0.804 0,-0.506 -0.355,-0.891 -1.032,-0.892 l -1.048,-0.001 -0.002,3.084 0.57,10e-4 V 6.067 c 0.207,10e-4 0.285,0.064 0.428,0.293 l 0.662,1.026 h 0.654 L 189.177,6.431 C 189.035,6.218 188.93,6.083 188.814,5.997 z m -0.447,-0.342 -0.301,-0.001 0.002,-0.897 0.392,0.001 c 0.386,0 0.521,0.179 0.521,0.449 -0.002,0.377 -0.293,0.448 -0.614,0.448 z m -59.138,6.34 -3.754,11.548 -3.887,-11.548 h -5.238 l -3.886,11.548 -3.755,-11.548 h -6.527 l 7.453,20.991 h 5.539 L 119,21.625 l 3.766,11.361 h 5.539 l 7.452,-20.991 h -6.528 z"
   id="path6"
   style="fill:#2e4bb1;fill-opacity:1"
   inkscape:connector-curvature="0" />
	</g>
</g>
<g
   id="g8"
   transform="matrix(4.6848402,0,0,4.6848402,-1.6034932,-8.7525594)">
	<g
   id="g10">
		<path
   d="m 206.955,10.784 c -2.029,0 -3.663,0.707 -4.969,1.45 -1.307,-0.743 -2.938,-1.45 -4.968,-1.45 -4.057,0 -6.736,2.65 -6.736,7.178 0,5.524 5.275,10.921 11.704,15.254 6.43,-4.334 11.704,-9.729 11.704,-15.254 0,-4.527 -2.677,-7.178 -6.735,-7.178 z"
   id="path12"
   inkscape:connector-curvature="0"
   style="fill:#cccccc" />
		
			<linearGradient
   id="SVGID_1_"
   gradientUnits="userSpaceOnUse"
   x1="190.94431"
   y1="10.52"
   x2="206.4014"
   y2="10.52"
   gradientTransform="matrix(1,0,0,-1,0,35)">
			<stop
   offset="0"
   style="stop-color:#3656CC"
   id="stop15" />
			<stop
   offset="0.35"
   style="stop-color:#304CB2"
   id="stop17" />
			<stop
   offset="0.72"
   style="stop-color:#283B80"
   id="stop19" />
		</linearGradient>
		<path
   d="m 190.944,18.059 c 0,5.648 5.956,10.902 11.042,14.38 1.464,-1.002 2.976,-2.152 4.415,-3.416 -6.738,-5.644 -13.062,-10.693 -15.331,-12.501 -0.081,0.483 -0.126,0.998 -0.126,1.537 z"
   id="path21"
   style="fill:url(#SVGID_1_)"
   inkscape:connector-curvature="0" />
		
			<linearGradient
   id="SVGID_2_"
   gradientUnits="userSpaceOnUse"
   x1="193.14059"
   y1="22.730499"
   x2="210.60201"
   y2="10.5039"
   gradientTransform="matrix(1,0,0,-1,0,35)">
			<stop
   offset="0.3"
   style="stop-color:#E61C23"
   id="stop24" />
			<stop
   offset="0.8"
   style="stop-color:#C3161C"
   id="stop26" />
		</linearGradient>
		<path
   d="m 212.577,20.679 c -4.883,-4.027 -7.84,-6.077 -11.011,-7.98 -0.854,-0.516 -2.569,-1.27 -4.492,-1.27 -1.842,0 -3.389,0.573 -4.455,1.69 -0.694,0.725 -1.165,1.636 -1.434,2.741 2.529,1.766 9.396,6.676 16.313,12.154 2.31,-2.199 4.245,-4.7 5.079,-7.335 z"
   id="path28"
   style="fill:url(#SVGID_2_)"
   inkscape:connector-curvature="0" />
		
			<linearGradient
   id="SVGID_3_"
   gradientUnits="userSpaceOnUse"
   x1="203.9639"
   y1="24.309601"
   x2="213.9473"
   y2="17.319099"
   gradientTransform="matrix(1,0,0,-1,0,35)">
			<stop
   offset="0"
   style="stop-color:#FDBC11"
   id="stop31" />
			<stop
   offset="0.25"
   style="stop-color:#FCB415"
   id="stop33" />
			<stop
   offset="0.8"
   style="stop-color:#F89E1C"
   id="stop35" />
		</linearGradient>
		<path
   d="m 211.343,13.122 c -1.05,-1.094 -2.589,-1.683 -4.36,-1.683 -1.9,0 -3.348,0.614 -4.357,1.162 1.894,1.054 6.009,3.439 10.272,6.579 0.066,-0.424 0.103,-0.85 0.103,-1.278 -0.001,-1.989 -0.582,-3.655 -1.658,-4.78 z"
   id="path37"
   style="fill:url(#SVGID_3_)"
   inkscape:connector-curvature="0" />
	</g>
</g>
</svg>