<?xml version="1.0" encoding="utf-8"?>
<!-- Generator: Adobe Illustrator 17.1.0, SVG Export Plug-In . SVG Version: 6.00 Build 0)  -->
<!DOCTYPE svg PUBLIC "-//W3C//DTD SVG 1.1//EN" "http://www.w3.org/Graphics/SVG/1.1/DTD/svg11.dtd">
<svg version="1.1" id="Layer_1" xmlns="http://www.w3.org/2000/svg" xmlns:xlink="http://www.w3.org/1999/xlink" x="0px" y="0px"
	 viewBox="0 0 1074.7 258.6" enable-background="new 0 0 1074.7 258.6" xml:space="preserve">
<g>
	<g>
		<path fill="#010101" d="M85.5,197.9c-16.9,0-37.3-4.9-53.1-18.1l14.8-18.6c13.6,9.4,24.9,12.9,37.8,12.9c13.9,0,25.6-7,25.6-20.2
			c0-28.9-68.6-42-68.6-85.7c0-27.5,24-40.6,48.6-40.6c16.2,0,31.2,3.8,45.3,14.8l-14.8,18.1c-9.6-7.3-20.7-9.9-28.7-9.9
			c-9.2,0-21.6,4-21.6,17.6c0,27.5,68.6,40.6,68.6,85.7C139.5,185.4,108.9,197.9,85.5,197.9z"/>
		<path fill="#010101" d="M209.2,198.1c-11.5,0-20.4-5.2-26.3-13.2v51.7h-26.3v-124h26.3v10.8c5.6-8.2,14.8-13.4,25.8-13.4
			c26.3,0,40.9,21.1,40.9,43.7C249.6,176.3,234.8,198.1,209.2,198.1z M203.1,132.8c-12.2,0-19.7,9.4-20.2,20.4
			c0,11.3,7,22.1,20.2,22.1c12.2,0,20.2-9.6,20.2-21.4S215.3,132.8,203.1,132.8z"/>
		<path fill="#010101" d="M296.9,85.6c0,8.7-7,15.5-15.7,15.5c-8.7,0-15.5-6.8-15.5-15.5c0-8.7,6.8-15.7,15.5-15.7
			C289.8,69.9,296.9,76.9,296.9,85.6z M267.7,194.4v-81.7h26.5v81.7"/>
		<path fill="#010101" d="M340.3,194.4h-26.8v-81.7h26.8v8.7c4.9-7,13.6-11.5,23.3-11.5c24.7,0,36.4,15.5,36.4,40.2v44.4h-26.8V150
			c0-13.2-7-19-16.4-19c-8.7,0-16.2,5.6-16.4,18.1V194.4z"/>
		<path fill="#010101" d="M420.4,147.4V134h-10.8v-21.4h10.8V87h26.5v25.6h16.4V134h-16.4v12.9c0,22.1,2.3,27,9.2,27
			c1.6,0,3.8-0.7,5.6-1.2l3.3,20.4c-7.8,2.8-12.9,4-17.6,4C420.4,197.2,420.4,176.7,420.4,147.4z"/>
		<path fill="#010101" d="M513.9,109.8c11.7,0,20.2,5.2,26.1,13.4v-10.6H566v81.7h-26.1v-9.9c-5.9,8.2-14.6,13.4-25.8,13.4
			c-26.1,0-40.9-21.1-40.9-43.7C473.2,131.7,488,109.8,513.9,109.8z M519.7,175.1c12.4,0,20-10.1,20-21.4c0-11-7.5-21.1-20-21.1
			c-12,0-20,9.6-20,21.4S507.8,175.1,519.7,175.1z"/>
		<path fill="#010101" d="M612.8,194.4H586v-81.7h26.8v8.7c4.9-7,13.6-11.5,23.3-11.5c24.7,0,36.4,15.5,36.4,40.2v44.4h-26.8V150
			c0-13.2-7-19-16.4-19c-8.7,0-16.2,5.6-16.4,18.1V194.4z"/>
		<path fill="#010101" d="M717.7,162.2v32.2h-26.3V25.2h26.3v121.2l31.9-33.8h31.5L741,153l40.2,41.3H749L717.7,162.2z"/>
		<line fill="#010101" x1="263.7" y1="194.4" x2="290.3" y2="194.4"/>
	</g>
	<g>
		<polygon fill="#010101" points="917.6,25.4 889.6,25.4 856,59.4 889.7,93.2 917.6,93.2 883.7,59.3 		"/>
		<path fill="#010101" d="M1022.7,27.9c-2.6-2.6-5.4-2.5-5.4-2.5h-25l-53.7,53.8c0,0-5.8,5.7-8.2,8.1c-3.3,3.3-6.1,0.1-6.1,0.1
			l11.3-11.1l-17-17l33.9-33.9h-27.9l-33.8,33.8l31.2,31.5c2.6,2.6,5.4,2.5,5.4,2.5h25l53.7-53.8c0,0,5.8-5.7,8.2-8.1
			c2.8-2.8,5.4-0.8,5.4-0.8l-11.3,11.1l17.7,17.7l-33.9,33.9h27.9l33.8-33.8L1022.7,27.9z"/>
	</g>
</g>
</svg>
