<svg xmlns="http://www.w3.org/2000/svg" width="185" height="38" viewBox="0 0 185.5 38.4"><path d="M9.6 31.4c-3.1 0-6.8-.9-9.6-3.3l2.7-3.4C5.2 26.4 7.2 27 9.6 27c2.5 0 4.6-1.3 4.6-3.7 0-5.2-12.5-7.6-12.5-15.6 0-5 4.4-7.4 8.8-7.4 2.9 0 5.7.7 8.2 2.7L16 6.3c-1.7-1.3-3.8-1.8-5.2-1.8-1.5.1-3.8.8-3.8 3.3 0 5 12.5 7.4 12.5 15.6 0 5.7-5.6 8-9.9 8zM32.1 31.4c-2.1 0-3.7-.9-4.8-2.4v9.4h-4.8V15.9h4.8v2c1-1.5 2.7-2.4 4.7-2.4 4.8 0 7.4 3.8 7.4 7.9.1 4-2.6 8-7.3 8zM31 19.5c-2.2 0-3.6 1.7-3.7 3.7 0 2 1.3 4 3.7 4 2.2 0 3.7-1.7 3.7-3.9s-1.5-3.8-3.7-3.8zM48 11c0 1.6-1.3 2.8-2.9 2.8-1.6 0-2.8-1.2-2.8-2.8 0-1.6 1.2-2.9 2.8-2.9 1.7 0 2.9 1.3 2.9 2.9zm-5.3 19.7V15.9h4.8v14.8M55.9 30.7H51V15.9h4.9v1.6c.9-1.3 2.5-2.1 4.2-2.1 4.5 0 6.6 2.8 6.6 7.3v8.1h-4.9v-8.1c0-2.4-1.3-3.5-3-3.5-1.6 0-2.9 1-3 3.3v8.2zM70.5 22.2v-2.4h-2v-3.9h2v-4.6h4.8v4.6h3v3.9h-3v2.3c0 4 .4 4.9 1.7 4.9.3 0 .7-.1 1-.2l.6 3.7c-1.4.5-2.3.7-3.2.7-4.9 0-4.9-3.7-4.9-9zM87.4 15.4c2.1 0 3.7.9 4.7 2.4v-1.9h4.7v14.8h-4.7v-1.8c-1.1 1.5-2.6 2.4-4.7 2.4-4.7 0-7.4-3.8-7.4-7.9.1-4.1 2.8-8 7.4-8zm1.1 11.8c2.3 0 3.6-1.8 3.6-3.9 0-2-1.4-3.8-3.6-3.8s-3.6 1.7-3.6 3.9 1.4 3.8 3.6 3.8zM105.4 30.7h-4.9V15.9h4.9v1.6c.9-1.3 2.5-2.1 4.2-2.1 4.5 0 6.6 2.8 6.6 7.3v8.1h-4.9v-8.1c0-2.4-1.3-3.5-3-3.5-1.6 0-2.9 1-3 3.3v8.2zM124.5 24.9v5.8h-4.8V0h4.8v22l5.8-6.1h5.7l-7.3 7.3 7.3 7.5h-5.8l-5.7-5.8zM42 30.7h4.8M160.8 0h-5.1l-6.1 6.2 6.1 6.1h5.1l-6.2-6.1z"/><path d="M179.9.5c-.5-.5-1-.4-1-.4h-4.5l-9.8 9.8s-1.1 1-1.5 1.5c-.6.6-1.1 0-1.1 0l2.1-2-3.1-3.2 6.2-6.2H162l-6.1 6.1 5.7 5.7c.5.5 1 .4 1 .4h4.5l9.8-9.8s1.1-1 1.5-1.5c.5-.5 1-.1 1-.1l-2.1 2 3.2 3.2-6.2 6.2h5.1l6.1-6.1-5.6-5.6z"/></svg>