<?xml version="1.0" standalone="no"?>
<!DOCTYPE svg PUBLIC "-//W3C//DTD SVG 20010904//EN"
 "http://www.w3.org/TR/2001/REC-SVG-20010904/DTD/svg10.dtd">
<svg version="1.0" xmlns="http://www.w3.org/2000/svg"
 width="1231.000000pt" height="547.000000pt" viewBox="0 0 1231.000000 547.000000"
 preserveAspectRatio="xMidYMid meet">
<metadata>
Created by potrace 1.13, written by Peter Selinger 2001-2015
</metadata>
<g transform="translate(0.000000,547.000000) scale(0.100000,-0.100000)"
fill="#000000" stroke="none">
<path d="M11795 4883 c-33 -8 -54 -32 -148 -173 -299 -447 -400 -576 -481
-614 -93 -44 -141 -36 -798 128 -184 46 -223 53 -253 45 -47 -13 -78 -61 -71
-108 10 -63 34 -77 291 -170 352 -128 582 -215 592 -224 12 -13 54 -147 72
-232 18 -88 31 -227 31 -341 0 -69 5 -126 14 -150 20 -57 4 -287 -34 -482 -12
-64 -29 -101 -52 -116 -24 -15 -154 9 -253 46 -161 61 -154 59 -194 48 -57
-15 -84 -50 -89 -115 -4 -53 -3 -56 34 -93 48 -47 210 -120 338 -152 112 -28
236 -25 308 7 131 59 213 219 285 558 8 35 12 40 40 43 29 3 34 -1 51 -40 44
-97 62 -141 62 -148 0 -5 -15 -23 -34 -42 -49 -49 -55 -92 -22 -164 60 -131
156 -200 268 -192 94 7 131 54 143 183 12 123 -25 317 -109 570 -37 111 -44
147 -50 245 -15 256 -78 522 -181 756 l-26 61 106 199 c59 109 127 237 152
284 25 47 65 121 89 166 56 103 59 150 13 188 -17 14 -34 26 -39 26 -5 0 -14
2 -22 4 -7 2 -22 1 -33 -1z"/>
<path d="M10907 4860 c-186 -47 -304 -222 -275 -406 47 -300 420 -408 621
-180 102 115 115 293 31 427 -73 118 -248 191 -377 159z"/>
<path d="M1775 3710 c-189 -14 -347 -86 -489 -219 -95 -91 -164 -219 -188
-351 l-11 -58 -181 -4 c-176 -4 -182 -4 -222 -30 -57 -37 -84 -83 -84 -146 0
-64 21 -91 80 -103 25 -5 139 -8 255 -8 208 0 210 0 225 -22 55 -84 139 -194
226 -296 204 -239 248 -311 263 -432 8 -67 -3 -207 -18 -226 -5 -5 -12 -21
-16 -35 -13 -43 -92 -146 -146 -189 -109 -87 -239 -124 -363 -103 -277 46
-415 307 -299 562 41 89 92 143 203 215 108 70 127 89 145 141 26 76 -19 151
-106 174 -98 27 -271 -48 -396 -169 -146 -142 -226 -333 -227 -541 -1 -290
140 -519 394 -638 136 -63 373 -82 547 -42 48 11 97 24 108 29 160 71 194 93
299 196 77 75 104 112 149 200 61 121 72 172 72 340 -1 130 -4 160 -24 225
-27 83 -75 178 -130 256 -35 50 -205 266 -227 288 -6 6 -18 23 -28 39 l-18 27
115 0 c234 0 411 31 500 87 63 40 137 122 166 183 24 51 26 65 26 195 0 134
-1 142 -29 200 -62 126 -212 232 -353 250 -91 11 -128 12 -218 5z m154 -311
c30 -6 64 -23 87 -43 34 -30 38 -38 42 -93 4 -58 3 -62 -33 -101 -62 -69 -101
-77 -370 -77 l-230 0 3 33 c4 52 46 125 99 172 114 100 260 140 402 109z"/>
<path d="M4155 3713 c-11 -2 -30 -6 -42 -8 -33 -7 -86 -65 -109 -120 -38 -88
-63 -152 -143 -365 -17 -47 -35 -94 -40 -105 -5 -11 -30 -76 -56 -145 -26 -69
-51 -134 -55 -145 -5 -11 -30 -76 -56 -145 -26 -69 -50 -129 -54 -135 -4 -5
-10 -23 -14 -40 -4 -16 -13 -43 -21 -60 -7 -16 -23 -57 -35 -90 -13 -33 -29
-73 -36 -90 -60 -144 -78 -203 -78 -265 -1 -75 15 -106 72 -142 36 -22 46 -23
286 -26 275 -4 307 1 360 57 l27 28 82 -41 82 -41 410 -3 410 -3 41 27 c55 36
95 98 147 234 136 349 160 408 182 441 26 41 95 79 141 79 31 0 90 -32 111
-59 26 -34 15 -114 -33 -238 -25 -65 -49 -127 -54 -138 -49 -102 -63 -211 -32
-256 56 -85 75 -89 374 -89 227 0 257 2 295 19 23 11 51 30 63 44 l21 24 82
-41 82 -41 140 0 c114 0 149 4 187 19 47 18 48 18 97 -3 46 -20 66 -21 303
-21 233 0 257 2 298 21 25 11 54 31 65 45 l20 26 26 -21 c15 -11 53 -31 85
-43 51 -20 77 -23 189 -23 101 0 142 4 184 19 53 18 53 18 97 -4 42 -20 55
-21 252 -18 197 3 209 4 245 27 21 13 42 32 48 42 13 24 19 24 49 -3 45 -41
101 -60 192 -66 73 -4 98 -1 157 18 39 13 74 21 77 17 4 -4 -12 -58 -35 -121
l-42 -113 -227 -6 c-316 -8 -430 -38 -543 -144 -125 -117 -169 -255 -136 -431
44 -230 224 -373 472 -373 152 0 277 52 381 158 90 92 181 258 253 463 l16 45
200 5 c160 4 206 8 230 22 72 39 107 119 81 182 -26 62 -51 71 -221 74 -82 2
-156 5 -162 7 -9 3 -5 27 17 87 17 46 35 92 40 103 5 11 32 83 61 160 29 77
78 210 111 295 179 472 177 465 148 526 -49 101 -206 95 -276 -10 -8 -13 -40
-88 -70 -167 -30 -79 -59 -153 -63 -164 -23 -53 -91 -236 -91 -244 0 -25 -66
-95 -106 -113 -109 -48 -226 40 -192 145 20 63 139 382 151 406 7 13 12 54 12
92 0 59 -3 70 -25 89 -90 79 -218 42 -277 -80 -32 -68 -185 -486 -207 -570
l-23 -85 -108 -3 c-60 -1 -112 1 -116 5 -5 5 19 80 52 168 33 88 72 192 86
230 14 39 31 84 38 100 31 73 37 98 37 143 0 59 -13 87 -55 112 -62 38 -167
16 -215 -45 -11 -14 -22 -25 -25 -25 -4 0 -29 13 -57 30 -139 82 -351 79 -521
-7 -45 -23 -96 -62 -147 -111 -86 -84 -118 -129 -152 -213 -12 -30 -27 -64
-32 -76 -13 -26 -16 -211 -5 -270 l7 -43 -139 0 c-77 0 -142 4 -146 9 -5 8 16
73 44 136 5 11 14 34 20 50 15 46 80 217 90 240 5 11 30 76 56 145 25 69 50
134 54 145 13 30 56 142 81 210 12 33 26 69 31 80 17 40 81 211 91 245 6 19
13 37 17 40 3 3 19 44 35 92 35 107 31 143 -20 187 -24 22 -46 31 -72 32 -85
3 -108 -6 -156 -58 -25 -27 -49 -78 -99 -213 -52 -139 -100 -266 -112 -295 -7
-16 -39 -100 -70 -185 -32 -85 -61 -158 -65 -163 -3 -4 -31 6 -61 22 -110 60
-235 75 -374 46 -216 -46 -406 -228 -470 -450 -19 -65 -25 -192 -12 -267 l8
-48 -139 0 c-76 0 -141 2 -144 5 -6 6 14 60 82 235 94 239 103 279 78 364 -18
61 -99 137 -169 159 -106 33 -251 14 -337 -44 -52 -35 -55 -35 -76 -4 -40 61
-127 82 -203 50 -60 -25 -78 -53 -137 -205 -13 -36 -59 -153 -101 -260 -42
-107 -86 -219 -97 -248 l-20 -53 -286 3 c-318 3 -333 6 -372 71 -35 57 -35 57
141 57 265 0 357 24 437 115 50 57 72 119 72 203 0 158 -94 275 -256 316 -177
46 -377 -13 -529 -155 -164 -154 -232 -363 -188 -580 l6 -29 -130 0 c-71 0
-132 3 -135 6 -6 5 8 48 32 99 5 11 23 56 39 100 17 44 50 132 74 195 134 352
306 801 348 913 62 164 65 213 15 263 -19 19 -43 34 -54 34 -11 0 -26 2 -34 4
-7 2 -22 2 -33 -1z m508 -1104 c30 -16 37 -28 37 -70 0 -59 -31 -73 -173 -77
-64 -2 -124 -1 -133 2 -15 6 -15 9 1 34 50 78 121 122 198 122 27 0 58 -5 70
-11z m2288 -32 c156 -119 37 -433 -181 -479 -49 -10 -60 -9 -101 9 -26 12 -59
37 -75 59 -26 34 -29 45 -29 118 0 69 4 90 29 140 56 115 153 185 258 186 49
0 62 -4 99 -33z m1255 8 c153 -90 88 -372 -109 -470 -97 -48 -200 -21 -245 65
-33 63 -28 173 12 246 83 152 234 222 342 159z m904 -1245 c0 -19 -61 -142
-102 -207 -95 -151 -239 -211 -348 -144 -96 58 -104 211 -15 289 28 26 91 51
160 65 46 10 305 7 305 -3z"/>
<path d="M2581 2865 c-50 -22 -87 -71 -121 -160 -17 -44 -38 -96 -45 -115 -8
-19 -37 -96 -65 -170 -54 -144 -77 -203 -164 -428 -31 -78 -56 -145 -56 -148
0 -3 -7 -20 -15 -37 -8 -18 -35 -88 -61 -157 -49 -131 -82 -217 -158 -415
-150 -386 -164 -437 -132 -493 42 -77 166 -84 239 -14 41 39 74 114 219 502
28 74 59 158 70 185 11 28 28 73 38 100 33 90 149 385 155 395 3 5 23 -1 44
-15 20 -14 64 -35 97 -46 52 -18 74 -20 184 -16 132 5 193 21 278 70 99 56
214 179 263 282 11 22 29 73 39 114 76 286 -74 528 -353 572 -68 10 -93 10
-181 -6 -95 -16 -105 -16 -134 -1 -38 20 -96 20 -141 1z m420 -276 c165 -71
124 -353 -68 -466 -120 -70 -224 -41 -274 75 -25 57 -24 108 2 179 37 100 109
179 194 212 65 26 86 26 146 0z"/>
</g>
</svg>
