<?xml version="1.0" encoding="UTF-8" standalone="no"?>
<!-- Created with Inkscape (http://www.inkscape.org/) -->

<svg
   xmlns:dc="http://purl.org/dc/elements/1.1/"
   xmlns:cc="http://creativecommons.org/ns#"
   xmlns:rdf="http://www.w3.org/1999/02/22-rdf-syntax-ns#"
   xmlns:svg="http://www.w3.org/2000/svg"
   xmlns="http://www.w3.org/2000/svg"
   xmlns:sodipodi="http://sodipodi.sourceforge.net/DTD/sodipodi-0.dtd"
   xmlns:inkscape="http://www.inkscape.org/namespaces/inkscape"
   id="svg2"
   version="1.1"
   inkscape:version="0.48.2 r9819"
   width="223.57736"
   height="300"
   xml:space="preserve"
   sodipodi:docname="fichasocio.pdf"><metadata
     id="metadata8"><rdf:RDF><cc:Work
         rdf:about=""><dc:format>image/svg+xml</dc:format><dc:type
           rdf:resource="http://purl.org/dc/dcmitype/StillImage" /><dc:title></dc:title></cc:Work></rdf:RDF></metadata><defs
     id="defs6"><clipPath
       clipPathUnits="userSpaceOnUse"
       id="clipPath16"><path
         d="m 0,841.89 595.276,0 L 595.276,0 0,0 0,841.89 z"
         id="path18"
         inkscape:connector-curvature="0" /></clipPath><clipPath
       clipPathUnits="userSpaceOnUse"
       id="clipPath24"><path
         d="m 595.674,-0.161 -595.276,0 0,841.89 595.276,0 0,-841.89 z"
         id="path26"
         inkscape:connector-curvature="0" /></clipPath><clipPath
       clipPathUnits="userSpaceOnUse"
       id="clipPath32"><path
         d="m -3.589,845.696 603.248,0 0,-849.824 -603.248,0 0,849.824 z"
         id="path34"
         inkscape:connector-curvature="0" /></clipPath><clipPath
       clipPathUnits="userSpaceOnUse"
       id="clipPath102"><path
         d="m 50.7603,604.14 484.8087,0 0,-45.718 -484.8087,0 0,45.718 z"
         id="path104"
         inkscape:connector-curvature="0" /></clipPath><clipPath
       clipPathUnits="userSpaceOnUse"
       id="clipPath450"><path
         d="m 318.285,46.6572 6.662,0 0,-6.6621 -6.662,0 0,6.6621 z"
         id="path452"
         inkscape:connector-curvature="0" /></clipPath><clipPath
       clipPathUnits="userSpaceOnUse"
       id="clipPath2734"><path
         d="m 206.198,506.319 12.162,0 0,-12.162 -12.162,0 0,12.162 z"
         id="path2736"
         inkscape:connector-curvature="0" /></clipPath><clipPath
       clipPathUnits="userSpaceOnUse"
       id="clipPath2778"><path
         d="m 306.671,506.319 12.162,0 0,-12.162 -12.162,0 0,12.162 z"
         id="path2780"
         inkscape:connector-curvature="0" /></clipPath><clipPath
       clipPathUnits="userSpaceOnUse"
       id="clipPath2808"><path
         d="m 370.338,506.319 12.162,0 0,-12.162 -12.162,0 0,12.162 z"
         id="path2810"
         inkscape:connector-curvature="0" /></clipPath><clipPath
       clipPathUnits="userSpaceOnUse"
       id="clipPath2840"><path
         d="m 437.28,506.319 12.162,0 0,-12.162 -12.162,0 0,12.162 z"
         id="path2842"
         inkscape:connector-curvature="0" /></clipPath><clipPath
       clipPathUnits="userSpaceOnUse"
       id="clipPath2854"><path
         d="m 503.919,506.319 12.162,0 0,-12.162 -12.162,0 0,12.162 z"
         id="path2856"
         inkscape:connector-curvature="0" /></clipPath><clipPath
       clipPathUnits="userSpaceOnUse"
       id="clipPath3314"><path
         d="m 308.919,456.819 12.162,0 0,-12.162 -12.162,0 0,12.162 z"
         id="path3316"
         inkscape:connector-curvature="0" /></clipPath><clipPath
       clipPathUnits="userSpaceOnUse"
       id="clipPath3328"><path
         d="m 413.919,456.819 12.162,0 0,-12.162 -12.162,0 0,12.162 z"
         id="path3330"
         inkscape:connector-curvature="0" /></clipPath><clipPath
       clipPathUnits="userSpaceOnUse"
       id="clipPath3342"><path
         d="m 338.919,456.819 12.162,0 0,-12.162 -12.162,0 0,12.162 z"
         id="path3344"
         inkscape:connector-curvature="0" /></clipPath><clipPath
       clipPathUnits="userSpaceOnUse"
       id="clipPath3356"><path
         d="m 278.919,456.819 12.162,0 0,-12.162 -12.162,0 0,12.162 z"
         id="path3358"
         inkscape:connector-curvature="0" /></clipPath><clipPath
       clipPathUnits="userSpaceOnUse"
       id="clipPath3370"><path
         d="m 203.919,456.819 12.162,0 0,-12.162 -12.162,0 0,12.162 z"
         id="path3372"
         inkscape:connector-curvature="0" /></clipPath><clipPath
       clipPathUnits="userSpaceOnUse"
       id="clipPath3384"><path
         d="m 233.919,456.819 12.162,0 0,-12.162 -12.162,0 0,12.162 z"
         id="path3386"
         inkscape:connector-curvature="0" /></clipPath><clipPath
       clipPathUnits="userSpaceOnUse"
       id="clipPath3398"><path
         d="m 218.919,456.819 12.162,0 0,-12.162 -12.162,0 0,12.162 z"
         id="path3400"
         inkscape:connector-curvature="0" /></clipPath><clipPath
       clipPathUnits="userSpaceOnUse"
       id="clipPath3412"><path
         d="m 293.919,456.819 12.162,0 0,-12.162 -12.162,0 0,12.162 z"
         id="path3414"
         inkscape:connector-curvature="0" /></clipPath><clipPath
       clipPathUnits="userSpaceOnUse"
       id="clipPath3426"><path
         d="m 263.919,456.819 12.162,0 0,-12.162 -12.162,0 0,12.162 z"
         id="path3428"
         inkscape:connector-curvature="0" /></clipPath><clipPath
       clipPathUnits="userSpaceOnUse"
       id="clipPath3440"><path
         d="m 353.919,456.819 12.162,0 0,-12.162 -12.162,0 0,12.162 z"
         id="path3442"
         inkscape:connector-curvature="0" /></clipPath><clipPath
       clipPathUnits="userSpaceOnUse"
       id="clipPath3454"><path
         d="m 248.919,456.819 12.162,0 0,-12.162 -12.162,0 0,12.162 z"
         id="path3456"
         inkscape:connector-curvature="0" /></clipPath><clipPath
       clipPathUnits="userSpaceOnUse"
       id="clipPath3468"><path
         d="m 203.919,442.819 12.162,0 0,-12.161 -12.162,0 0,12.161 z"
         id="path3470"
         inkscape:connector-curvature="0" /></clipPath><clipPath
       clipPathUnits="userSpaceOnUse"
       id="clipPath3482"><path
         d="m 233.919,442.819 12.162,0 0,-12.161 -12.162,0 0,12.161 z"
         id="path3484"
         inkscape:connector-curvature="0" /></clipPath><clipPath
       clipPathUnits="userSpaceOnUse"
       id="clipPath3496"><path
         d="m 218.919,442.819 12.162,0 0,-12.161 -12.162,0 0,12.161 z"
         id="path3498"
         inkscape:connector-curvature="0" /></clipPath><clipPath
       clipPathUnits="userSpaceOnUse"
       id="clipPath3510"><path
         d="m 248.919,442.819 12.162,0 0,-12.161 -12.162,0 0,12.161 z"
         id="path3512"
         inkscape:connector-curvature="0" /></clipPath><clipPath
       clipPathUnits="userSpaceOnUse"
       id="clipPath3524"><path
         d="m 398.919,456.819 12.162,0 0,-12.162 -12.162,0 0,12.162 z"
         id="path3526"
         inkscape:connector-curvature="0" /></clipPath><clipPath
       clipPathUnits="userSpaceOnUse"
       id="clipPath3538"><path
         d="m 98.9194,456.819 12.1626,0 0,-12.162 -12.1626,0 0,12.162 z"
         id="path3540"
         inkscape:connector-curvature="0" /></clipPath><clipPath
       clipPathUnits="userSpaceOnUse"
       id="clipPath3552"><path
         d="m 113.919,456.819 12.163,0 0,-12.162 -12.163,0 0,12.162 z"
         id="path3554"
         inkscape:connector-curvature="0" /></clipPath><clipPath
       clipPathUnits="userSpaceOnUse"
       id="clipPath3566"><path
         d="m 128.919,456.819 12.163,0 0,-12.162 -12.163,0 0,12.162 z"
         id="path3568"
         inkscape:connector-curvature="0" /></clipPath><clipPath
       clipPathUnits="userSpaceOnUse"
       id="clipPath3580"><path
         d="m 143.919,456.819 12.163,0 0,-12.162 -12.163,0 0,12.162 z"
         id="path3582"
         inkscape:connector-curvature="0" /></clipPath><clipPath
       clipPathUnits="userSpaceOnUse"
       id="clipPath3594"><path
         d="m 383.919,456.819 12.162,0 0,-12.162 -12.162,0 0,12.162 z"
         id="path3596"
         inkscape:connector-curvature="0" /></clipPath><clipPath
       clipPathUnits="userSpaceOnUse"
       id="clipPath3608"><path
         d="m 83.9194,456.819 12.1621,0 0,-12.162 -12.1621,0 0,12.162 z"
         id="path3610"
         inkscape:connector-curvature="0" /></clipPath><clipPath
       clipPathUnits="userSpaceOnUse"
       id="clipPath3622"><path
         d="m 323.919,456.819 12.162,0 0,-12.162 -12.162,0 0,12.162 z"
         id="path3624"
         inkscape:connector-curvature="0" /></clipPath><clipPath
       clipPathUnits="userSpaceOnUse"
       id="clipPath3636"><path
         d="m 428.919,456.819 12.162,0 0,-12.162 -12.162,0 0,12.162 z"
         id="path3638"
         inkscape:connector-curvature="0" /></clipPath><clipPath
       clipPathUnits="userSpaceOnUse"
       id="clipPath3650"><path
         d="m 68.9194,456.819 12.1621,0 0,-12.162 -12.1621,0 0,12.162 z"
         id="path3652"
         inkscape:connector-curvature="0" /></clipPath><clipPath
       clipPathUnits="userSpaceOnUse"
       id="clipPath3664"><path
         d="m 98.9194,470.819 12.1626,0 0,-12.162 -12.1626,0 0,12.162 z"
         id="path3666"
         inkscape:connector-curvature="0" /></clipPath><clipPath
       clipPathUnits="userSpaceOnUse"
       id="clipPath3678"><path
         d="m 113.919,470.819 12.163,0 0,-12.162 -12.163,0 0,12.162 z"
         id="path3680"
         inkscape:connector-curvature="0" /></clipPath><clipPath
       clipPathUnits="userSpaceOnUse"
       id="clipPath3692"><path
         d="m 128.919,470.819 12.163,0 0,-12.162 -12.163,0 0,12.162 z"
         id="path3694"
         inkscape:connector-curvature="0" /></clipPath><clipPath
       clipPathUnits="userSpaceOnUse"
       id="clipPath3706"><path
         d="m 83.9194,470.819 12.1621,0 0,-12.162 -12.1621,0 0,12.162 z"
         id="path3708"
         inkscape:connector-curvature="0" /></clipPath><clipPath
       clipPathUnits="userSpaceOnUse"
       id="clipPath3720"><path
         d="m 68.9194,470.819 12.1621,0 0,-12.162 -12.1621,0 0,12.162 z"
         id="path3722"
         inkscape:connector-curvature="0" /></clipPath><clipPath
       clipPathUnits="userSpaceOnUse"
       id="clipPath3734"><path
         d="m 368.919,456.819 12.162,0 0,-12.162 -12.162,0 0,12.162 z"
         id="path3736"
         inkscape:connector-curvature="0" /></clipPath><clipPath
       clipPathUnits="userSpaceOnUse"
       id="clipPath3748"><path
         d="m 443.919,456.819 12.162,0 0,-12.162 -12.162,0 0,12.162 z"
         id="path3750"
         inkscape:connector-curvature="0" /></clipPath><clipPath
       clipPathUnits="userSpaceOnUse"
       id="clipPath3762"><path
         d="m 173.919,456.819 12.163,0 0,-12.162 -12.163,0 0,12.162 z"
         id="path3764"
         inkscape:connector-curvature="0" /></clipPath><clipPath
       clipPathUnits="userSpaceOnUse"
       id="clipPath3776"><path
         d="m 158.919,456.819 12.163,0 0,-12.162 -12.163,0 0,12.162 z"
         id="path3778"
         inkscape:connector-curvature="0" /></clipPath><clipPath
       clipPathUnits="userSpaceOnUse"
       id="clipPath3790"><path
         d="m 218.919,470.819 12.162,0 0,-12.161 -12.162,0 0,12.161 z"
         id="path3792"
         inkscape:connector-curvature="0" /></clipPath><clipPath
       clipPathUnits="userSpaceOnUse"
       id="clipPath3804"><path
         d="m 293.919,470.819 12.162,0 0,-12.161 -12.162,0 0,12.161 z"
         id="path3806"
         inkscape:connector-curvature="0" /></clipPath><clipPath
       clipPathUnits="userSpaceOnUse"
       id="clipPath3818"><path
         d="m 203.919,470.819 12.162,0 0,-12.161 -12.162,0 0,12.161 z"
         id="path3820"
         inkscape:connector-curvature="0" /></clipPath><clipPath
       clipPathUnits="userSpaceOnUse"
       id="clipPath3832"><path
         d="m 413.919,470.819 12.162,0 0,-12.161 -12.162,0 0,12.161 z"
         id="path3834"
         inkscape:connector-curvature="0" /></clipPath><clipPath
       clipPathUnits="userSpaceOnUse"
       id="clipPath3846"><path
         d="m 308.919,470.819 12.162,0 0,-12.161 -12.162,0 0,12.161 z"
         id="path3848"
         inkscape:connector-curvature="0" /></clipPath><clipPath
       clipPathUnits="userSpaceOnUse"
       id="clipPath3860"><path
         d="m 323.919,470.819 12.162,0 0,-12.161 -12.162,0 0,12.161 z"
         id="path3862"
         inkscape:connector-curvature="0" /></clipPath><clipPath
       clipPathUnits="userSpaceOnUse"
       id="clipPath3874"><path
         d="m 353.919,470.819 12.162,0 0,-12.161 -12.162,0 0,12.161 z"
         id="path3876"
         inkscape:connector-curvature="0" /></clipPath><clipPath
       clipPathUnits="userSpaceOnUse"
       id="clipPath3888"><path
         d="m 263.919,470.819 12.162,0 0,-12.161 -12.162,0 0,12.161 z"
         id="path3890"
         inkscape:connector-curvature="0" /></clipPath><clipPath
       clipPathUnits="userSpaceOnUse"
       id="clipPath3902"><path
         d="m 278.919,470.819 12.162,0 0,-12.161 -12.162,0 0,12.161 z"
         id="path3904"
         inkscape:connector-curvature="0" /></clipPath><clipPath
       clipPathUnits="userSpaceOnUse"
       id="clipPath3916"><path
         d="m 248.919,470.819 12.162,0 0,-12.161 -12.162,0 0,12.161 z"
         id="path3918"
         inkscape:connector-curvature="0" /></clipPath><clipPath
       clipPathUnits="userSpaceOnUse"
       id="clipPath3930"><path
         d="m 338.919,470.819 12.162,0 0,-12.161 -12.162,0 0,12.161 z"
         id="path3932"
         inkscape:connector-curvature="0" /></clipPath><clipPath
       clipPathUnits="userSpaceOnUse"
       id="clipPath3944"><path
         d="m 398.919,470.819 12.162,0 0,-12.161 -12.162,0 0,12.161 z"
         id="path3946"
         inkscape:connector-curvature="0" /></clipPath><clipPath
       clipPathUnits="userSpaceOnUse"
       id="clipPath3958"><path
         d="m 233.919,470.819 12.162,0 0,-12.161 -12.162,0 0,12.161 z"
         id="path3960"
         inkscape:connector-curvature="0" /></clipPath><clipPath
       clipPathUnits="userSpaceOnUse"
       id="clipPath3972"><path
         d="m 143.919,470.819 12.163,0 0,-12.161 -12.163,0 0,12.161 z"
         id="path3974"
         inkscape:connector-curvature="0" /></clipPath><clipPath
       clipPathUnits="userSpaceOnUse"
       id="clipPath3986"><path
         d="m 383.919,470.819 12.162,0 0,-12.161 -12.162,0 0,12.161 z"
         id="path3988"
         inkscape:connector-curvature="0" /></clipPath><clipPath
       clipPathUnits="userSpaceOnUse"
       id="clipPath4000"><path
         d="m 368.919,470.819 12.162,0 0,-12.161 -12.162,0 0,12.161 z"
         id="path4002"
         inkscape:connector-curvature="0" /></clipPath><clipPath
       clipPathUnits="userSpaceOnUse"
       id="clipPath4014"><path
         d="m 173.919,470.819 12.163,0 0,-12.161 -12.163,0 0,12.161 z"
         id="path4016"
         inkscape:connector-curvature="0" /></clipPath><clipPath
       clipPathUnits="userSpaceOnUse"
       id="clipPath4028"><path
         d="m 443.919,470.819 12.162,0 0,-12.161 -12.162,0 0,12.161 z"
         id="path4030"
         inkscape:connector-curvature="0" /></clipPath><clipPath
       clipPathUnits="userSpaceOnUse"
       id="clipPath4042"><path
         d="m 428.919,470.819 12.162,0 0,-12.161 -12.162,0 0,12.161 z"
         id="path4044"
         inkscape:connector-curvature="0" /></clipPath><clipPath
       clipPathUnits="userSpaceOnUse"
       id="clipPath4056"><path
         d="m 158.919,470.819 12.163,0 0,-12.161 -12.163,0 0,12.161 z"
         id="path4058"
         inkscape:connector-curvature="0" /></clipPath><clipPath
       clipPathUnits="userSpaceOnUse"
       id="clipPath4070"><path
         d="m 188.919,470.819 12.162,0 0,-12.161 -12.162,0 0,12.161 z"
         id="path4072"
         inkscape:connector-curvature="0" /></clipPath><clipPath
       clipPathUnits="userSpaceOnUse"
       id="clipPath4084"><path
         d="m 218.919,484.819 12.162,0 0,-12.161 -12.162,0 0,12.161 z"
         id="path4086"
         inkscape:connector-curvature="0" /></clipPath><clipPath
       clipPathUnits="userSpaceOnUse"
       id="clipPath4098"><path
         d="m 293.919,484.819 12.162,0 0,-12.161 -12.162,0 0,12.161 z"
         id="path4100"
         inkscape:connector-curvature="0" /></clipPath><clipPath
       clipPathUnits="userSpaceOnUse"
       id="clipPath4112"><path
         d="m 203.919,484.819 12.162,0 0,-12.161 -12.162,0 0,12.161 z"
         id="path4114"
         inkscape:connector-curvature="0" /></clipPath><clipPath
       clipPathUnits="userSpaceOnUse"
       id="clipPath4126"><path
         d="m 413.919,484.819 12.162,0 0,-12.161 -12.162,0 0,12.161 z"
         id="path4128"
         inkscape:connector-curvature="0" /></clipPath><clipPath
       clipPathUnits="userSpaceOnUse"
       id="clipPath4140"><path
         d="m 308.919,484.819 12.162,0 0,-12.161 -12.162,0 0,12.161 z"
         id="path4142"
         inkscape:connector-curvature="0" /></clipPath><clipPath
       clipPathUnits="userSpaceOnUse"
       id="clipPath4154"><path
         d="m 323.919,484.819 12.162,0 0,-12.161 -12.162,0 0,12.161 z"
         id="path4156"
         inkscape:connector-curvature="0" /></clipPath><clipPath
       clipPathUnits="userSpaceOnUse"
       id="clipPath4168"><path
         d="m 353.919,484.819 12.162,0 0,-12.161 -12.162,0 0,12.161 z"
         id="path4170"
         inkscape:connector-curvature="0" /></clipPath><clipPath
       clipPathUnits="userSpaceOnUse"
       id="clipPath4182"><path
         d="m 263.919,484.819 12.162,0 0,-12.161 -12.162,0 0,12.161 z"
         id="path4184"
         inkscape:connector-curvature="0" /></clipPath><clipPath
       clipPathUnits="userSpaceOnUse"
       id="clipPath4196"><path
         d="m 278.919,484.819 12.162,0 0,-12.161 -12.162,0 0,12.161 z"
         id="path4198"
         inkscape:connector-curvature="0" /></clipPath><clipPath
       clipPathUnits="userSpaceOnUse"
       id="clipPath4210"><path
         d="m 248.919,484.819 12.162,0 0,-12.161 -12.162,0 0,12.161 z"
         id="path4212"
         inkscape:connector-curvature="0" /></clipPath><clipPath
       clipPathUnits="userSpaceOnUse"
       id="clipPath4224"><path
         d="m 338.919,484.819 12.162,0 0,-12.161 -12.162,0 0,12.161 z"
         id="path4226"
         inkscape:connector-curvature="0" /></clipPath><clipPath
       clipPathUnits="userSpaceOnUse"
       id="clipPath4238"><path
         d="m 398.919,484.819 12.162,0 0,-12.161 -12.162,0 0,12.161 z"
         id="path4240"
         inkscape:connector-curvature="0" /></clipPath><clipPath
       clipPathUnits="userSpaceOnUse"
       id="clipPath4252"><path
         d="m 233.919,484.819 12.162,0 0,-12.161 -12.162,0 0,12.161 z"
         id="path4254"
         inkscape:connector-curvature="0" /></clipPath><clipPath
       clipPathUnits="userSpaceOnUse"
       id="clipPath4266"><path
         d="m 143.919,484.819 12.163,0 0,-12.161 -12.163,0 0,12.161 z"
         id="path4268"
         inkscape:connector-curvature="0" /></clipPath><clipPath
       clipPathUnits="userSpaceOnUse"
       id="clipPath4280"><path
         d="m 383.919,484.819 12.162,0 0,-12.161 -12.162,0 0,12.161 z"
         id="path4282"
         inkscape:connector-curvature="0" /></clipPath><clipPath
       clipPathUnits="userSpaceOnUse"
       id="clipPath4294"><path
         d="m 368.919,484.819 12.162,0 0,-12.161 -12.162,0 0,12.161 z"
         id="path4296"
         inkscape:connector-curvature="0" /></clipPath><clipPath
       clipPathUnits="userSpaceOnUse"
       id="clipPath4308"><path
         d="m 173.919,484.819 12.163,0 0,-12.161 -12.163,0 0,12.161 z"
         id="path4310"
         inkscape:connector-curvature="0" /></clipPath><clipPath
       clipPathUnits="userSpaceOnUse"
       id="clipPath4322"><path
         d="m 443.919,484.819 12.162,0 0,-12.161 -12.162,0 0,12.161 z"
         id="path4324"
         inkscape:connector-curvature="0" /></clipPath><clipPath
       clipPathUnits="userSpaceOnUse"
       id="clipPath4336"><path
         d="m 458.919,456.819 12.162,0 0,-12.162 -12.162,0 0,12.162 z"
         id="path4338"
         inkscape:connector-curvature="0" /></clipPath><clipPath
       clipPathUnits="userSpaceOnUse"
       id="clipPath4350"><path
         d="m 458.919,470.819 12.162,0 0,-12.161 -12.162,0 0,12.161 z"
         id="path4352"
         inkscape:connector-curvature="0" /></clipPath><clipPath
       clipPathUnits="userSpaceOnUse"
       id="clipPath4364"><path
         d="m 458.919,484.819 12.162,0 0,-12.161 -12.162,0 0,12.161 z"
         id="path4366"
         inkscape:connector-curvature="0" /></clipPath><clipPath
       clipPathUnits="userSpaceOnUse"
       id="clipPath4378"><path
         d="m 428.919,484.819 12.162,0 0,-12.161 -12.162,0 0,12.161 z"
         id="path4380"
         inkscape:connector-curvature="0" /></clipPath><clipPath
       clipPathUnits="userSpaceOnUse"
       id="clipPath4392"><path
         d="m 158.919,484.819 12.163,0 0,-12.161 -12.163,0 0,12.161 z"
         id="path4394"
         inkscape:connector-curvature="0" /></clipPath><clipPath
       clipPathUnits="userSpaceOnUse"
       id="clipPath4406"><path
         d="m 188.919,484.819 12.162,0 0,-12.161 -12.162,0 0,12.161 z"
         id="path4408"
         inkscape:connector-curvature="0" /></clipPath><clipPath
       clipPathUnits="userSpaceOnUse"
       id="clipPath4420"><path
         d="m 188.919,456.819 12.162,0 0,-12.162 -12.162,0 0,12.162 z"
         id="path4422"
         inkscape:connector-curvature="0" /></clipPath><clipPath
       clipPathUnits="userSpaceOnUse"
       id="clipPath4434"><path
         d="m 143.919,400.819 12.163,0 0,-12.162 -12.163,0 0,12.162 z"
         id="path4436"
         inkscape:connector-curvature="0" /></clipPath><clipPath
       clipPathUnits="userSpaceOnUse"
       id="clipPath4448"><path
         d="m 158.919,400.819 12.163,0 0,-12.162 -12.163,0 0,12.162 z"
         id="path4450"
         inkscape:connector-curvature="0" /></clipPath><clipPath
       clipPathUnits="userSpaceOnUse"
       id="clipPath4462"><path
         d="m 173.919,400.819 12.163,0 0,-12.162 -12.163,0 0,12.162 z"
         id="path4464"
         inkscape:connector-curvature="0" /></clipPath><clipPath
       clipPathUnits="userSpaceOnUse"
       id="clipPath4476"><path
         d="m 188.919,400.819 12.162,0 0,-12.162 -12.162,0 0,12.162 z"
         id="path4478"
         inkscape:connector-curvature="0" /></clipPath><clipPath
       clipPathUnits="userSpaceOnUse"
       id="clipPath4490"><path
         d="m 218.919,400.819 12.162,0 0,-12.162 -12.162,0 0,12.162 z"
         id="path4492"
         inkscape:connector-curvature="0" /></clipPath><clipPath
       clipPathUnits="userSpaceOnUse"
       id="clipPath4504"><path
         d="m 233.919,400.819 12.162,0 0,-12.162 -12.162,0 0,12.162 z"
         id="path4506"
         inkscape:connector-curvature="0" /></clipPath><clipPath
       clipPathUnits="userSpaceOnUse"
       id="clipPath4518"><path
         d="m 248.919,400.819 12.162,0 0,-12.162 -12.162,0 0,12.162 z"
         id="path4520"
         inkscape:connector-curvature="0" /></clipPath><clipPath
       clipPathUnits="userSpaceOnUse"
       id="clipPath4532"><path
         d="m 488.919,400.819 12.162,0 0,-12.162 -12.162,0 0,12.162 z"
         id="path4534"
         inkscape:connector-curvature="0" /></clipPath><clipPath
       clipPathUnits="userSpaceOnUse"
       id="clipPath4546"><path
         d="m 398.919,400.819 12.162,0 0,-12.162 -12.162,0 0,12.162 z"
         id="path4548"
         inkscape:connector-curvature="0" /></clipPath><clipPath
       clipPathUnits="userSpaceOnUse"
       id="clipPath4560"><path
         d="m 473.919,400.819 12.162,0 0,-12.162 -12.162,0 0,12.162 z"
         id="path4562"
         inkscape:connector-curvature="0" /></clipPath><clipPath
       clipPathUnits="userSpaceOnUse"
       id="clipPath4574"><path
         d="m 323.919,400.819 12.162,0 0,-12.162 -12.162,0 0,12.162 z"
         id="path4576"
         inkscape:connector-curvature="0" /></clipPath><clipPath
       clipPathUnits="userSpaceOnUse"
       id="clipPath4588"><path
         d="m 383.919,400.819 12.162,0 0,-12.162 -12.162,0 0,12.162 z"
         id="path4590"
         inkscape:connector-curvature="0" /></clipPath><clipPath
       clipPathUnits="userSpaceOnUse"
       id="clipPath4602"><path
         d="m 353.919,400.819 12.162,0 0,-12.162 -12.162,0 0,12.162 z"
         id="path4604"
         inkscape:connector-curvature="0" /></clipPath><clipPath
       clipPathUnits="userSpaceOnUse"
       id="clipPath4616"><path
         d="m 413.919,400.819 12.162,0 0,-12.162 -12.162,0 0,12.162 z"
         id="path4618"
         inkscape:connector-curvature="0" /></clipPath><clipPath
       clipPathUnits="userSpaceOnUse"
       id="clipPath4630"><path
         d="m 338.919,400.819 12.162,0 0,-12.162 -12.162,0 0,12.162 z"
         id="path4632"
         inkscape:connector-curvature="0" /></clipPath><clipPath
       clipPathUnits="userSpaceOnUse"
       id="clipPath4644"><path
         d="m 368.919,400.819 12.162,0 0,-12.162 -12.162,0 0,12.162 z"
         id="path4646"
         inkscape:connector-curvature="0" /></clipPath><clipPath
       clipPathUnits="userSpaceOnUse"
       id="clipPath4658"><path
         d="m 503.919,400.819 12.162,0 0,-12.162 -12.162,0 0,12.162 z"
         id="path4660"
         inkscape:connector-curvature="0" /></clipPath><clipPath
       clipPathUnits="userSpaceOnUse"
       id="clipPath4672"><path
         d="m 428.919,400.819 12.162,0 0,-12.162 -12.162,0 0,12.162 z"
         id="path4674"
         inkscape:connector-curvature="0" /></clipPath><clipPath
       clipPathUnits="userSpaceOnUse"
       id="clipPath4686"><path
         d="m 443.919,400.819 12.162,0 0,-12.162 -12.162,0 0,12.162 z"
         id="path4688"
         inkscape:connector-curvature="0" /></clipPath><clipPath
       clipPathUnits="userSpaceOnUse"
       id="clipPath4700"><path
         d="m 458.919,400.819 12.162,0 0,-12.162 -12.162,0 0,12.162 z"
         id="path4702"
         inkscape:connector-curvature="0" /></clipPath><clipPath
       clipPathUnits="userSpaceOnUse"
       id="clipPath4714"><path
         d="m 488.919,387.319 12.162,0 0,-12.162 -12.162,0 0,12.162 z"
         id="path4716"
         inkscape:connector-curvature="0" /></clipPath><clipPath
       clipPathUnits="userSpaceOnUse"
       id="clipPath4728"><path
         d="m 398.919,387.319 12.162,0 0,-12.162 -12.162,0 0,12.162 z"
         id="path4730"
         inkscape:connector-curvature="0" /></clipPath><clipPath
       clipPathUnits="userSpaceOnUse"
       id="clipPath4742"><path
         d="m 473.919,387.319 12.162,0 0,-12.162 -12.162,0 0,12.162 z"
         id="path4744"
         inkscape:connector-curvature="0" /></clipPath><clipPath
       clipPathUnits="userSpaceOnUse"
       id="clipPath4756"><path
         d="m 383.919,387.319 12.162,0 0,-12.162 -12.162,0 0,12.162 z"
         id="path4758"
         inkscape:connector-curvature="0" /></clipPath><clipPath
       clipPathUnits="userSpaceOnUse"
       id="clipPath4770"><path
         d="m 353.919,387.319 12.162,0 0,-12.162 -12.162,0 0,12.162 z"
         id="path4772"
         inkscape:connector-curvature="0" /></clipPath><clipPath
       clipPathUnits="userSpaceOnUse"
       id="clipPath4784"><path
         d="m 413.919,387.319 12.162,0 0,-12.162 -12.162,0 0,12.162 z"
         id="path4786"
         inkscape:connector-curvature="0" /></clipPath><clipPath
       clipPathUnits="userSpaceOnUse"
       id="clipPath4798"><path
         d="m 338.919,387.319 12.162,0 0,-12.162 -12.162,0 0,12.162 z"
         id="path4800"
         inkscape:connector-curvature="0" /></clipPath><clipPath
       clipPathUnits="userSpaceOnUse"
       id="clipPath4812"><path
         d="m 368.919,387.319 12.162,0 0,-12.162 -12.162,0 0,12.162 z"
         id="path4814"
         inkscape:connector-curvature="0" /></clipPath><clipPath
       clipPathUnits="userSpaceOnUse"
       id="clipPath4826"><path
         d="m 503.919,387.319 12.162,0 0,-12.162 -12.162,0 0,12.162 z"
         id="path4828"
         inkscape:connector-curvature="0" /></clipPath><clipPath
       clipPathUnits="userSpaceOnUse"
       id="clipPath4840"><path
         d="m 428.919,387.319 12.162,0 0,-12.162 -12.162,0 0,12.162 z"
         id="path4842"
         inkscape:connector-curvature="0" /></clipPath><clipPath
       clipPathUnits="userSpaceOnUse"
       id="clipPath4854"><path
         d="m 443.919,387.319 12.162,0 0,-12.162 -12.162,0 0,12.162 z"
         id="path4856"
         inkscape:connector-curvature="0" /></clipPath><clipPath
       clipPathUnits="userSpaceOnUse"
       id="clipPath4868"><path
         d="m 458.919,387.319 12.162,0 0,-12.162 -12.162,0 0,12.162 z"
         id="path4870"
         inkscape:connector-curvature="0" /></clipPath><clipPath
       clipPathUnits="userSpaceOnUse"
       id="clipPath4882"><path
         d="m 143.919,428.819 12.163,0 0,-12.162 -12.163,0 0,12.162 z"
         id="path4884"
         inkscape:connector-curvature="0" /></clipPath><clipPath
       clipPathUnits="userSpaceOnUse"
       id="clipPath4896"><path
         d="m 158.919,428.819 12.163,0 0,-12.162 -12.163,0 0,12.162 z"
         id="path4898"
         inkscape:connector-curvature="0" /></clipPath><clipPath
       clipPathUnits="userSpaceOnUse"
       id="clipPath4910"><path
         d="m 128.919,428.819 12.163,0 0,-12.162 -12.163,0 0,12.162 z"
         id="path4912"
         inkscape:connector-curvature="0" /></clipPath><clipPath
       clipPathUnits="userSpaceOnUse"
       id="clipPath4924"><path
         d="m 113.919,428.819 12.163,0 0,-12.162 -12.163,0 0,12.162 z"
         id="path4926"
         inkscape:connector-curvature="0" /></clipPath><clipPath
       clipPathUnits="userSpaceOnUse"
       id="clipPath4938"><path
         d="m 173.919,428.819 12.163,0 0,-12.162 -12.163,0 0,12.162 z"
         id="path4940"
         inkscape:connector-curvature="0" /></clipPath><clipPath
       clipPathUnits="userSpaceOnUse"
       id="clipPath4952"><path
         d="m 188.919,428.819 12.162,0 0,-12.162 -12.162,0 0,12.162 z"
         id="path4954"
         inkscape:connector-curvature="0" /></clipPath><clipPath
       clipPathUnits="userSpaceOnUse"
       id="clipPath4966"><path
         d="m 203.919,428.819 12.162,0 0,-12.162 -12.162,0 0,12.162 z"
         id="path4968"
         inkscape:connector-curvature="0" /></clipPath><clipPath
       clipPathUnits="userSpaceOnUse"
       id="clipPath4980"><path
         d="m 218.919,428.819 12.162,0 0,-12.162 -12.162,0 0,12.162 z"
         id="path4982"
         inkscape:connector-curvature="0" /></clipPath><clipPath
       clipPathUnits="userSpaceOnUse"
       id="clipPath4994"><path
         d="m 233.919,428.819 12.162,0 0,-12.162 -12.162,0 0,12.162 z"
         id="path4996"
         inkscape:connector-curvature="0" /></clipPath><clipPath
       clipPathUnits="userSpaceOnUse"
       id="clipPath5008"><path
         d="m 248.919,428.819 12.162,0 0,-12.162 -12.162,0 0,12.162 z"
         id="path5010"
         inkscape:connector-curvature="0" /></clipPath><clipPath
       clipPathUnits="userSpaceOnUse"
       id="clipPath5022"><path
         d="m 263.919,428.819 12.162,0 0,-12.162 -12.162,0 0,12.162 z"
         id="path5024"
         inkscape:connector-curvature="0" /></clipPath><clipPath
       clipPathUnits="userSpaceOnUse"
       id="clipPath5036"><path
         d="m 278.919,428.819 12.162,0 0,-12.162 -12.162,0 0,12.162 z"
         id="path5038"
         inkscape:connector-curvature="0" /></clipPath><clipPath
       clipPathUnits="userSpaceOnUse"
       id="clipPath5050"><path
         d="m 293.919,428.819 12.162,0 0,-12.162 -12.162,0 0,12.162 z"
         id="path5052"
         inkscape:connector-curvature="0" /></clipPath><clipPath
       clipPathUnits="userSpaceOnUse"
       id="clipPath5064"><path
         d="m 308.919,428.819 12.162,0 0,-12.162 -12.162,0 0,12.162 z"
         id="path5066"
         inkscape:connector-curvature="0" /></clipPath><clipPath
       clipPathUnits="userSpaceOnUse"
       id="clipPath5078"><path
         d="m 323.919,428.819 12.162,0 0,-12.162 -12.162,0 0,12.162 z"
         id="path5080"
         inkscape:connector-curvature="0" /></clipPath><clipPath
       clipPathUnits="userSpaceOnUse"
       id="clipPath5092"><path
         d="m 338.919,428.819 12.162,0 0,-12.162 -12.162,0 0,12.162 z"
         id="path5094"
         inkscape:connector-curvature="0" /></clipPath><clipPath
       clipPathUnits="userSpaceOnUse"
       id="clipPath5106"><path
         d="m 353.919,428.819 12.162,0 0,-12.162 -12.162,0 0,12.162 z"
         id="path5108"
         inkscape:connector-curvature="0" /></clipPath><clipPath
       clipPathUnits="userSpaceOnUse"
       id="clipPath5120"><path
         d="m 368.919,428.819 12.162,0 0,-12.162 -12.162,0 0,12.162 z"
         id="path5122"
         inkscape:connector-curvature="0" /></clipPath><clipPath
       clipPathUnits="userSpaceOnUse"
       id="clipPath5134"><path
         d="m 383.919,428.819 12.162,0 0,-12.162 -12.162,0 0,12.162 z"
         id="path5136"
         inkscape:connector-curvature="0" /></clipPath><clipPath
       clipPathUnits="userSpaceOnUse"
       id="clipPath5148"><path
         d="m 398.919,428.819 12.162,0 0,-12.162 -12.162,0 0,12.162 z"
         id="path5150"
         inkscape:connector-curvature="0" /></clipPath><clipPath
       clipPathUnits="userSpaceOnUse"
       id="clipPath5162"><path
         d="m 413.919,428.819 12.162,0 0,-12.162 -12.162,0 0,12.162 z"
         id="path5164"
         inkscape:connector-curvature="0" /></clipPath><clipPath
       clipPathUnits="userSpaceOnUse"
       id="clipPath5176"><path
         d="m 428.919,428.819 12.162,0 0,-12.162 -12.162,0 0,12.162 z"
         id="path5178"
         inkscape:connector-curvature="0" /></clipPath><clipPath
       clipPathUnits="userSpaceOnUse"
       id="clipPath5190"><path
         d="m 443.919,428.819 12.162,0 0,-12.162 -12.162,0 0,12.162 z"
         id="path5192"
         inkscape:connector-curvature="0" /></clipPath><clipPath
       clipPathUnits="userSpaceOnUse"
       id="clipPath5204"><path
         d="m 458.919,428.819 12.162,0 0,-12.162 -12.162,0 0,12.162 z"
         id="path5206"
         inkscape:connector-curvature="0" /></clipPath><clipPath
       clipPathUnits="userSpaceOnUse"
       id="clipPath5218"><path
         d="m 488.919,428.819 12.162,0 0,-12.162 -12.162,0 0,12.162 z"
         id="path5220"
         inkscape:connector-curvature="0" /></clipPath><clipPath
       clipPathUnits="userSpaceOnUse"
       id="clipPath5232"><path
         d="m 473.919,428.819 12.162,0 0,-12.162 -12.162,0 0,12.162 z"
         id="path5234"
         inkscape:connector-curvature="0" /></clipPath><clipPath
       clipPathUnits="userSpaceOnUse"
       id="clipPath5246"><path
         d="m 503.919,428.819 12.162,0 0,-12.162 -12.162,0 0,12.162 z"
         id="path5248"
         inkscape:connector-curvature="0" /></clipPath><clipPath
       clipPathUnits="userSpaceOnUse"
       id="clipPath5260"><path
         d="m 323.919,414.819 12.162,0 0,-12.162 -12.162,0 0,12.162 z"
         id="path5262"
         inkscape:connector-curvature="0" /></clipPath><clipPath
       clipPathUnits="userSpaceOnUse"
       id="clipPath5274"><path
         d="m 338.919,414.819 12.162,0 0,-12.162 -12.162,0 0,12.162 z"
         id="path5276"
         inkscape:connector-curvature="0" /></clipPath><clipPath
       clipPathUnits="userSpaceOnUse"
       id="clipPath5288"><path
         d="m 353.919,414.819 12.162,0 0,-12.162 -12.162,0 0,12.162 z"
         id="path5290"
         inkscape:connector-curvature="0" /></clipPath><clipPath
       clipPathUnits="userSpaceOnUse"
       id="clipPath5302"><path
         d="m 368.919,414.819 12.162,0 0,-12.162 -12.162,0 0,12.162 z"
         id="path5304"
         inkscape:connector-curvature="0" /></clipPath><clipPath
       clipPathUnits="userSpaceOnUse"
       id="clipPath5316"><path
         d="m 383.919,414.819 12.162,0 0,-12.162 -12.162,0 0,12.162 z"
         id="path5318"
         inkscape:connector-curvature="0" /></clipPath><clipPath
       clipPathUnits="userSpaceOnUse"
       id="clipPath5330"><path
         d="m 398.919,414.819 12.162,0 0,-12.162 -12.162,0 0,12.162 z"
         id="path5332"
         inkscape:connector-curvature="0" /></clipPath><clipPath
       clipPathUnits="userSpaceOnUse"
       id="clipPath5344"><path
         d="m 413.919,414.819 12.162,0 0,-12.162 -12.162,0 0,12.162 z"
         id="path5346"
         inkscape:connector-curvature="0" /></clipPath><clipPath
       clipPathUnits="userSpaceOnUse"
       id="clipPath5358"><path
         d="m 428.919,414.819 12.162,0 0,-12.162 -12.162,0 0,12.162 z"
         id="path5360"
         inkscape:connector-curvature="0" /></clipPath><clipPath
       clipPathUnits="userSpaceOnUse"
       id="clipPath5372"><path
         d="m 443.919,414.819 12.162,0 0,-12.162 -12.162,0 0,12.162 z"
         id="path5374"
         inkscape:connector-curvature="0" /></clipPath><clipPath
       clipPathUnits="userSpaceOnUse"
       id="clipPath5386"><path
         d="m 473.919,414.819 12.162,0 0,-12.162 -12.162,0 0,12.162 z"
         id="path5388"
         inkscape:connector-curvature="0" /></clipPath><clipPath
       clipPathUnits="userSpaceOnUse"
       id="clipPath5400"><path
         d="m 458.919,414.819 12.162,0 0,-12.162 -12.162,0 0,12.162 z"
         id="path5402"
         inkscape:connector-curvature="0" /></clipPath><clipPath
       clipPathUnits="userSpaceOnUse"
       id="clipPath5414"><path
         d="m 503.919,414.819 12.162,0 0,-12.162 -12.162,0 0,12.162 z"
         id="path5416"
         inkscape:connector-curvature="0" /></clipPath><clipPath
       clipPathUnits="userSpaceOnUse"
       id="clipPath5428"><path
         d="m 488.919,414.819 12.162,0 0,-12.162 -12.162,0 0,12.162 z"
         id="path5430"
         inkscape:connector-curvature="0" /></clipPath><clipPath
       clipPathUnits="userSpaceOnUse"
       id="clipPath5442"><path
         d="m 233.919,414.819 12.162,0 0,-12.162 -12.162,0 0,12.162 z"
         id="path5444"
         inkscape:connector-curvature="0" /></clipPath><clipPath
       clipPathUnits="userSpaceOnUse"
       id="clipPath5456"><path
         d="m 248.919,414.819 12.162,0 0,-12.162 -12.162,0 0,12.162 z"
         id="path5458"
         inkscape:connector-curvature="0" /></clipPath><clipPath
       clipPathUnits="userSpaceOnUse"
       id="clipPath5470"><path
         d="m 263.919,414.819 12.162,0 0,-12.162 -12.162,0 0,12.162 z"
         id="path5472"
         inkscape:connector-curvature="0" /></clipPath><clipPath
       clipPathUnits="userSpaceOnUse"
       id="clipPath5484"><path
         d="m 278.919,414.819 12.162,0 0,-12.162 -12.162,0 0,12.162 z"
         id="path5486"
         inkscape:connector-curvature="0" /></clipPath><clipPath
       clipPathUnits="userSpaceOnUse"
       id="clipPath5498"><path
         d="m 293.919,414.819 12.162,0 0,-12.162 -12.162,0 0,12.162 z"
         id="path5500"
         inkscape:connector-curvature="0" /></clipPath><clipPath
       clipPathUnits="userSpaceOnUse"
       id="clipPath5512"><path
         d="m 308.919,414.819 12.162,0 0,-12.162 -12.162,0 0,12.162 z"
         id="path5514"
         inkscape:connector-curvature="0" /></clipPath><clipPath
       clipPathUnits="userSpaceOnUse"
       id="clipPath5526"><path
         d="m 68.9194,414.819 12.1621,0 0,-12.162 -12.1621,0 0,12.162 z"
         id="path5528"
         inkscape:connector-curvature="0" /></clipPath><clipPath
       clipPathUnits="userSpaceOnUse"
       id="clipPath5540"><path
         d="m 83.9194,414.819 12.1621,0 0,-12.162 -12.1621,0 0,12.162 z"
         id="path5542"
         inkscape:connector-curvature="0" /></clipPath><clipPath
       clipPathUnits="userSpaceOnUse"
       id="clipPath5554"><path
         d="m 218.919,414.819 12.162,0 0,-12.162 -12.162,0 0,12.162 z"
         id="path5556"
         inkscape:connector-curvature="0" /></clipPath><clipPath
       clipPathUnits="userSpaceOnUse"
       id="clipPath5568"><path
         d="m 158.919,414.819 12.163,0 0,-12.162 -12.163,0 0,12.162 z"
         id="path5570"
         inkscape:connector-curvature="0" /></clipPath><clipPath
       clipPathUnits="userSpaceOnUse"
       id="clipPath5582"><path
         d="m 113.919,414.819 12.163,0 0,-12.162 -12.163,0 0,12.162 z"
         id="path5584"
         inkscape:connector-curvature="0" /></clipPath><clipPath
       clipPathUnits="userSpaceOnUse"
       id="clipPath5596"><path
         d="m 143.919,414.819 12.163,0 0,-12.162 -12.163,0 0,12.162 z"
         id="path5598"
         inkscape:connector-curvature="0" /></clipPath><clipPath
       clipPathUnits="userSpaceOnUse"
       id="clipPath5610"><path
         d="m 188.919,414.819 12.162,0 0,-12.162 -12.162,0 0,12.162 z"
         id="path5612"
         inkscape:connector-curvature="0" /></clipPath><clipPath
       clipPathUnits="userSpaceOnUse"
       id="clipPath5624"><path
         d="m 98.9194,414.819 12.1626,0 0,-12.162 -12.1626,0 0,12.162 z"
         id="path5626"
         inkscape:connector-curvature="0" /></clipPath><clipPath
       clipPathUnits="userSpaceOnUse"
       id="clipPath5638"><path
         d="m 128.919,414.819 12.163,0 0,-12.162 -12.163,0 0,12.162 z"
         id="path5640"
         inkscape:connector-curvature="0" /></clipPath><clipPath
       clipPathUnits="userSpaceOnUse"
       id="clipPath5652"><path
         d="m 173.919,414.819 12.163,0 0,-12.162 -12.163,0 0,12.162 z"
         id="path5654"
         inkscape:connector-curvature="0" /></clipPath><clipPath
       clipPathUnits="userSpaceOnUse"
       id="clipPath5666"><path
         d="m 203.919,414.819 12.162,0 0,-12.162 -12.162,0 0,12.162 z"
         id="path5668"
         inkscape:connector-curvature="0" /></clipPath><clipPath
       clipPathUnits="userSpaceOnUse"
       id="clipPath5680"><path
         d="m 233.919,387.319 12.162,0 0,-12.162 -12.162,0 0,12.162 z"
         id="path5682"
         inkscape:connector-curvature="0" /></clipPath><clipPath
       clipPathUnits="userSpaceOnUse"
       id="clipPath5694"><path
         d="m 248.919,387.319 12.162,0 0,-12.162 -12.162,0 0,12.162 z"
         id="path5696"
         inkscape:connector-curvature="0" /></clipPath><clipPath
       clipPathUnits="userSpaceOnUse"
       id="clipPath5708"><path
         d="m 218.919,387.319 12.162,0 0,-12.162 -12.162,0 0,12.162 z"
         id="path5710"
         inkscape:connector-curvature="0" /></clipPath><clipPath
       clipPathUnits="userSpaceOnUse"
       id="clipPath5722"><path
         d="m 158.919,387.319 12.163,0 0,-12.162 -12.163,0 0,12.162 z"
         id="path5724"
         inkscape:connector-curvature="0" /></clipPath><clipPath
       clipPathUnits="userSpaceOnUse"
       id="clipPath5736"><path
         d="m 113.919,387.319 12.163,0 0,-12.162 -12.163,0 0,12.162 z"
         id="path5738"
         inkscape:connector-curvature="0" /></clipPath><clipPath
       clipPathUnits="userSpaceOnUse"
       id="clipPath5750"><path
         d="m 143.919,387.319 12.163,0 0,-12.162 -12.163,0 0,12.162 z"
         id="path5752"
         inkscape:connector-curvature="0" /></clipPath><clipPath
       clipPathUnits="userSpaceOnUse"
       id="clipPath5764"><path
         d="m 188.919,387.319 12.162,0 0,-12.162 -12.162,0 0,12.162 z"
         id="path5766"
         inkscape:connector-curvature="0" /></clipPath><clipPath
       clipPathUnits="userSpaceOnUse"
       id="clipPath5778"><path
         d="m 98.9194,387.319 12.1626,0 0,-12.162 -12.1626,0 0,12.162 z"
         id="path5780"
         inkscape:connector-curvature="0" /></clipPath><clipPath
       clipPathUnits="userSpaceOnUse"
       id="clipPath5792"><path
         d="m 128.919,387.319 12.163,0 0,-12.162 -12.163,0 0,12.162 z"
         id="path5794"
         inkscape:connector-curvature="0" /></clipPath><clipPath
       clipPathUnits="userSpaceOnUse"
       id="clipPath5806"><path
         d="m 173.919,387.319 12.163,0 0,-12.162 -12.163,0 0,12.162 z"
         id="path5808"
         inkscape:connector-curvature="0" /></clipPath><clipPath
       clipPathUnits="userSpaceOnUse"
       id="clipPath5820"><path
         d="m 203.919,387.319 12.162,0 0,-12.162 -12.162,0 0,12.162 z"
         id="path5822"
         inkscape:connector-curvature="0" /></clipPath><clipPath
       clipPathUnits="userSpaceOnUse"
       id="clipPath5834"><path
         d="m 143.919,372.819 12.162,0 0,-12.162 -12.162,0 0,12.162 z"
         id="path5836"
         inkscape:connector-curvature="0" /></clipPath><clipPath
       clipPathUnits="userSpaceOnUse"
       id="clipPath5848"><path
         d="m 158.919,372.819 12.162,0 0,-12.162 -12.162,0 0,12.162 z"
         id="path5850"
         inkscape:connector-curvature="0" /></clipPath><clipPath
       clipPathUnits="userSpaceOnUse"
       id="clipPath5862"><path
         d="m 173.919,372.819 12.162,0 0,-12.162 -12.162,0 0,12.162 z"
         id="path5864"
         inkscape:connector-curvature="0" /></clipPath><clipPath
       clipPathUnits="userSpaceOnUse"
       id="clipPath5876"><path
         d="m 188.919,372.819 12.162,0 0,-12.162 -12.162,0 0,12.162 z"
         id="path5878"
         inkscape:connector-curvature="0" /></clipPath><clipPath
       clipPathUnits="userSpaceOnUse"
       id="clipPath5890"><path
         d="m 203.919,372.819 12.162,0 0,-12.162 -12.162,0 0,12.162 z"
         id="path5892"
         inkscape:connector-curvature="0" /></clipPath><clipPath
       clipPathUnits="userSpaceOnUse"
       id="clipPath5904"><path
         d="m 218.919,372.819 12.162,0 0,-12.162 -12.162,0 0,12.162 z"
         id="path5906"
         inkscape:connector-curvature="0" /></clipPath><clipPath
       clipPathUnits="userSpaceOnUse"
       id="clipPath5918"><path
         d="m 233.919,372.819 12.162,0 0,-12.162 -12.162,0 0,12.162 z"
         id="path5920"
         inkscape:connector-curvature="0" /></clipPath><clipPath
       clipPathUnits="userSpaceOnUse"
       id="clipPath5932"><path
         d="m 248.919,372.819 12.162,0 0,-12.162 -12.162,0 0,12.162 z"
         id="path5934"
         inkscape:connector-curvature="0" /></clipPath><clipPath
       clipPathUnits="userSpaceOnUse"
       id="clipPath5946"><path
         d="m 263.919,372.819 12.162,0 0,-12.162 -12.162,0 0,12.162 z"
         id="path5948"
         inkscape:connector-curvature="0" /></clipPath><clipPath
       clipPathUnits="userSpaceOnUse"
       id="clipPath5960"><path
         d="m 338.919,372.819 12.162,0 0,-12.162 -12.162,0 0,12.162 z"
         id="path5962"
         inkscape:connector-curvature="0" /></clipPath><clipPath
       clipPathUnits="userSpaceOnUse"
       id="clipPath5974"><path
         d="m 353.919,372.819 12.162,0 0,-12.162 -12.162,0 0,12.162 z"
         id="path5976"
         inkscape:connector-curvature="0" /></clipPath><clipPath
       clipPathUnits="userSpaceOnUse"
       id="clipPath5988"><path
         d="m 368.919,372.819 12.162,0 0,-12.162 -12.162,0 0,12.162 z"
         id="path5990"
         inkscape:connector-curvature="0" /></clipPath><clipPath
       clipPathUnits="userSpaceOnUse"
       id="clipPath6002"><path
         d="m 383.919,372.819 12.162,0 0,-12.162 -12.162,0 0,12.162 z"
         id="path6004"
         inkscape:connector-curvature="0" /></clipPath><clipPath
       clipPathUnits="userSpaceOnUse"
       id="clipPath6016"><path
         d="m 398.919,372.819 12.162,0 0,-12.162 -12.162,0 0,12.162 z"
         id="path6018"
         inkscape:connector-curvature="0" /></clipPath><clipPath
       clipPathUnits="userSpaceOnUse"
       id="clipPath6030"><path
         d="m 413.919,372.819 12.162,0 0,-12.162 -12.162,0 0,12.162 z"
         id="path6032"
         inkscape:connector-curvature="0" /></clipPath><clipPath
       clipPathUnits="userSpaceOnUse"
       id="clipPath6044"><path
         d="m 428.919,372.819 12.162,0 0,-12.162 -12.162,0 0,12.162 z"
         id="path6046"
         inkscape:connector-curvature="0" /></clipPath><clipPath
       clipPathUnits="userSpaceOnUse"
       id="clipPath6058"><path
         d="m 443.919,372.819 12.162,0 0,-12.162 -12.162,0 0,12.162 z"
         id="path6060"
         inkscape:connector-curvature="0" /></clipPath><clipPath
       clipPathUnits="userSpaceOnUse"
       id="clipPath6072"><path
         d="m 458.919,372.819 12.162,0 0,-12.162 -12.162,0 0,12.162 z"
         id="path6074"
         inkscape:connector-curvature="0" /></clipPath><clipPath
       clipPathUnits="userSpaceOnUse"
       id="clipPath6086"><path
         d="m 143.919,358.819 12.163,0 0,-12.16 -12.163,0 0,12.16 z"
         id="path6088"
         inkscape:connector-curvature="0" /></clipPath><clipPath
       clipPathUnits="userSpaceOnUse"
       id="clipPath6100"><path
         d="m 188.919,358.819 12.162,0 0,-12.16 -12.162,0 0,12.16 z"
         id="path6102"
         inkscape:connector-curvature="0" /></clipPath><clipPath
       clipPathUnits="userSpaceOnUse"
       id="clipPath6114"><path
         d="m 233.919,358.819 12.162,0 0,-12.16 -12.162,0 0,12.16 z"
         id="path6116"
         inkscape:connector-curvature="0" /></clipPath><clipPath
       clipPathUnits="userSpaceOnUse"
       id="clipPath6128"><path
         d="m 248.919,358.819 12.162,0 0,-12.16 -12.162,0 0,12.16 z"
         id="path6130"
         inkscape:connector-curvature="0" /></clipPath><clipPath
       clipPathUnits="userSpaceOnUse"
       id="clipPath6142"><path
         d="m 218.919,358.819 12.162,0 0,-12.16 -12.162,0 0,12.16 z"
         id="path6144"
         inkscape:connector-curvature="0" /></clipPath><clipPath
       clipPathUnits="userSpaceOnUse"
       id="clipPath6156"><path
         d="m 203.919,358.819 12.162,0 0,-12.16 -12.162,0 0,12.16 z"
         id="path6158"
         inkscape:connector-curvature="0" /></clipPath><clipPath
       clipPathUnits="userSpaceOnUse"
       id="clipPath6170"><path
         d="m 158.919,358.819 12.163,0 0,-12.16 -12.163,0 0,12.16 z"
         id="path6172"
         inkscape:connector-curvature="0" /></clipPath><clipPath
       clipPathUnits="userSpaceOnUse"
       id="clipPath6184"><path
         d="m 263.919,358.819 12.162,0 0,-12.16 -12.162,0 0,12.16 z"
         id="path6186"
         inkscape:connector-curvature="0" /></clipPath><clipPath
       clipPathUnits="userSpaceOnUse"
       id="clipPath6198"><path
         d="m 293.919,358.819 12.162,0 0,-12.16 -12.162,0 0,12.16 z"
         id="path6200"
         inkscape:connector-curvature="0" /></clipPath><clipPath
       clipPathUnits="userSpaceOnUse"
       id="clipPath6212"><path
         d="m 173.919,358.819 12.163,0 0,-12.16 -12.163,0 0,12.16 z"
         id="path6214"
         inkscape:connector-curvature="0" /></clipPath><clipPath
       clipPathUnits="userSpaceOnUse"
       id="clipPath6226"><path
         d="m 278.919,358.819 12.162,0 0,-12.16 -12.162,0 0,12.16 z"
         id="path6228"
         inkscape:connector-curvature="0" /></clipPath><clipPath
       clipPathUnits="userSpaceOnUse"
       id="clipPath6240"><path
         d="m 308.919,358.819 12.162,0 0,-12.16 -12.162,0 0,12.16 z"
         id="path6242"
         inkscape:connector-curvature="0" /></clipPath><clipPath
       clipPathUnits="userSpaceOnUse"
       id="clipPath6254"><path
         d="m 323.919,358.819 12.162,0 0,-12.16 -12.162,0 0,12.16 z"
         id="path6256"
         inkscape:connector-curvature="0" /></clipPath><clipPath
       clipPathUnits="userSpaceOnUse"
       id="clipPath6268"><path
         d="m 338.919,358.819 12.162,0 0,-12.16 -12.162,0 0,12.16 z"
         id="path6270"
         inkscape:connector-curvature="0" /></clipPath><clipPath
       clipPathUnits="userSpaceOnUse"
       id="clipPath6282"><path
         d="m 353.919,358.819 12.162,0 0,-12.16 -12.162,0 0,12.16 z"
         id="path6284"
         inkscape:connector-curvature="0" /></clipPath><clipPath
       clipPathUnits="userSpaceOnUse"
       id="clipPath6296"><path
         d="m 368.919,358.819 12.162,0 0,-12.16 -12.162,0 0,12.16 z"
         id="path6298"
         inkscape:connector-curvature="0" /></clipPath><clipPath
       clipPathUnits="userSpaceOnUse"
       id="clipPath6310"><path
         d="m 383.919,358.819 12.162,0 0,-12.16 -12.162,0 0,12.16 z"
         id="path6312"
         inkscape:connector-curvature="0" /></clipPath><clipPath
       clipPathUnits="userSpaceOnUse"
       id="clipPath6324"><path
         d="m 398.919,358.819 12.162,0 0,-12.16 -12.162,0 0,12.16 z"
         id="path6326"
         inkscape:connector-curvature="0" /></clipPath><clipPath
       clipPathUnits="userSpaceOnUse"
       id="clipPath6338"><path
         d="m 413.919,358.819 12.162,0 0,-12.16 -12.162,0 0,12.16 z"
         id="path6340"
         inkscape:connector-curvature="0" /></clipPath><clipPath
       clipPathUnits="userSpaceOnUse"
       id="clipPath6352"><path
         d="m 428.919,358.819 12.162,0 0,-12.16 -12.162,0 0,12.16 z"
         id="path6354"
         inkscape:connector-curvature="0" /></clipPath><clipPath
       clipPathUnits="userSpaceOnUse"
       id="clipPath6366"><path
         d="m 488.919,358.819 12.162,0 0,-12.16 -12.162,0 0,12.16 z"
         id="path6368"
         inkscape:connector-curvature="0" /></clipPath><clipPath
       clipPathUnits="userSpaceOnUse"
       id="clipPath6380"><path
         d="m 473.919,358.819 12.162,0 0,-12.16 -12.162,0 0,12.16 z"
         id="path6382"
         inkscape:connector-curvature="0" /></clipPath><clipPath
       clipPathUnits="userSpaceOnUse"
       id="clipPath6394"><path
         d="m 503.919,358.819 12.162,0 0,-12.16 -12.162,0 0,12.16 z"
         id="path6396"
         inkscape:connector-curvature="0" /></clipPath><clipPath
       clipPathUnits="userSpaceOnUse"
       id="clipPath6408"><path
         d="m 443.919,358.819 12.162,0 0,-12.16 -12.162,0 0,12.16 z"
         id="path6410"
         inkscape:connector-curvature="0" /></clipPath><clipPath
       clipPathUnits="userSpaceOnUse"
       id="clipPath6422"><path
         d="m 458.919,358.819 12.162,0 0,-12.16 -12.162,0 0,12.16 z"
         id="path6424"
         inkscape:connector-curvature="0" /></clipPath><clipPath
       clipPathUnits="userSpaceOnUse"
       id="clipPath6436"><path
         d="m 113.919,358.819 12.163,0 0,-12.16 -12.163,0 0,12.16 z"
         id="path6438"
         inkscape:connector-curvature="0" /></clipPath><clipPath
       clipPathUnits="userSpaceOnUse"
       id="clipPath6450"><path
         d="m 128.919,358.819 12.163,0 0,-12.16 -12.163,0 0,12.16 z"
         id="path6452"
         inkscape:connector-curvature="0" /></clipPath><clipPath
       clipPathUnits="userSpaceOnUse"
       id="clipPath6464"><path
         d="m 263.919,442.819 12.162,0 0,-12.161 -12.162,0 0,12.161 z"
         id="path6466"
         inkscape:connector-curvature="0" /></clipPath><clipPath
       clipPathUnits="userSpaceOnUse"
       id="clipPath6478"><path
         d="m 278.919,442.819 12.162,0 0,-12.161 -12.162,0 0,12.161 z"
         id="path6480"
         inkscape:connector-curvature="0" /></clipPath><clipPath
       clipPathUnits="userSpaceOnUse"
       id="clipPath6492"><path
         d="m 293.919,442.819 12.162,0 0,-12.161 -12.162,0 0,12.161 z"
         id="path6494"
         inkscape:connector-curvature="0" /></clipPath><clipPath
       clipPathUnits="userSpaceOnUse"
       id="clipPath6506"><path
         d="m 308.919,442.819 12.162,0 0,-12.161 -12.162,0 0,12.161 z"
         id="path6508"
         inkscape:connector-curvature="0" /></clipPath><clipPath
       clipPathUnits="userSpaceOnUse"
       id="clipPath6520"><path
         d="m 323.919,442.819 12.162,0 0,-12.161 -12.162,0 0,12.161 z"
         id="path6522"
         inkscape:connector-curvature="0" /></clipPath><clipPath
       clipPathUnits="userSpaceOnUse"
       id="clipPath6534"><path
         d="m 338.919,442.819 12.162,0 0,-12.161 -12.162,0 0,12.161 z"
         id="path6536"
         inkscape:connector-curvature="0" /></clipPath><clipPath
       clipPathUnits="userSpaceOnUse"
       id="clipPath6548"><path
         d="m 353.919,442.819 12.162,0 0,-12.161 -12.162,0 0,12.161 z"
         id="path6550"
         inkscape:connector-curvature="0" /></clipPath><clipPath
       clipPathUnits="userSpaceOnUse"
       id="clipPath6562"><path
         d="m 368.919,442.819 12.162,0 0,-12.161 -12.162,0 0,12.161 z"
         id="path6564"
         inkscape:connector-curvature="0" /></clipPath><clipPath
       clipPathUnits="userSpaceOnUse"
       id="clipPath6576"><path
         d="m 383.919,442.819 12.162,0 0,-12.161 -12.162,0 0,12.161 z"
         id="path6578"
         inkscape:connector-curvature="0" /></clipPath><clipPath
       clipPathUnits="userSpaceOnUse"
       id="clipPath6590"><path
         d="m 398.919,442.819 12.162,0 0,-12.161 -12.162,0 0,12.161 z"
         id="path6592"
         inkscape:connector-curvature="0" /></clipPath><clipPath
       clipPathUnits="userSpaceOnUse"
       id="clipPath6604"><path
         d="m 413.919,442.819 12.162,0 0,-12.161 -12.162,0 0,12.161 z"
         id="path6606"
         inkscape:connector-curvature="0" /></clipPath><clipPath
       clipPathUnits="userSpaceOnUse"
       id="clipPath6618"><path
         d="m 428.919,442.819 12.162,0 0,-12.161 -12.162,0 0,12.161 z"
         id="path6620"
         inkscape:connector-curvature="0" /></clipPath><clipPath
       clipPathUnits="userSpaceOnUse"
       id="clipPath6632"><path
         d="m 503.919,442.819 12.162,0 0,-12.161 -12.162,0 0,12.161 z"
         id="path6634"
         inkscape:connector-curvature="0" /></clipPath><clipPath
       clipPathUnits="userSpaceOnUse"
       id="clipPath6646"><path
         d="m 458.919,442.819 12.162,0 0,-12.161 -12.162,0 0,12.161 z"
         id="path6648"
         inkscape:connector-curvature="0" /></clipPath><clipPath
       clipPathUnits="userSpaceOnUse"
       id="clipPath6660"><path
         d="m 443.919,442.819 12.162,0 0,-12.161 -12.162,0 0,12.161 z"
         id="path6662"
         inkscape:connector-curvature="0" /></clipPath><clipPath
       clipPathUnits="userSpaceOnUse"
       id="clipPath6674"><path
         d="m 473.919,442.819 12.162,0 0,-12.161 -12.162,0 0,12.161 z"
         id="path6676"
         inkscape:connector-curvature="0" /></clipPath><clipPath
       clipPathUnits="userSpaceOnUse"
       id="clipPath6688"><path
         d="m 488.919,442.819 12.162,0 0,-12.161 -12.162,0 0,12.161 z"
         id="path6690"
         inkscape:connector-curvature="0" /></clipPath><clipPath
       clipPathUnits="userSpaceOnUse"
       id="clipPath6750"><path
         d="m 119.919,344.509 12.163,0 0,-12.162 -12.163,0 0,12.162 z"
         id="path6752"
         inkscape:connector-curvature="0" /></clipPath><clipPath
       clipPathUnits="userSpaceOnUse"
       id="clipPath6764"><path
         d="m 203.919,344.509 12.162,0 0,-12.162 -12.162,0 0,12.162 z"
         id="path6766"
         inkscape:connector-curvature="0" /></clipPath><clipPath
       clipPathUnits="userSpaceOnUse"
       id="clipPath6778"><path
         d="m 263.919,344.509 12.162,0 0,-12.162 -12.162,0 0,12.162 z"
         id="path6780"
         inkscape:connector-curvature="0" /></clipPath><clipPath
       clipPathUnits="userSpaceOnUse"
       id="clipPath7040"><path
         d="m 383.92,344.509 12.162,0 0,-12.162 -12.162,0 0,12.162 z"
         id="path7042"
         inkscape:connector-curvature="0" /></clipPath><clipPath
       clipPathUnits="userSpaceOnUse"
       id="clipPath7054"><path
         d="m 368.92,344.509 12.162,0 0,-12.162 -12.162,0 0,12.162 z"
         id="path7056"
         inkscape:connector-curvature="0" /></clipPath><clipPath
       clipPathUnits="userSpaceOnUse"
       id="clipPath7068"><path
         d="m 488.919,344.509 12.162,0 0,-12.162 -12.162,0 0,12.162 z"
         id="path7070"
         inkscape:connector-curvature="0" /></clipPath><clipPath
       clipPathUnits="userSpaceOnUse"
       id="clipPath7082"><path
         d="m 428.92,344.509 12.162,0 0,-12.162 -12.162,0 0,12.162 z"
         id="path7084"
         inkscape:connector-curvature="0" /></clipPath><clipPath
       clipPathUnits="userSpaceOnUse"
       id="clipPath7096"><path
         d="m 398.92,344.509 12.162,0 0,-12.162 -12.162,0 0,12.162 z"
         id="path7098"
         inkscape:connector-curvature="0" /></clipPath><clipPath
       clipPathUnits="userSpaceOnUse"
       id="clipPath7110"><path
         d="m 503.919,344.509 12.162,0 0,-12.162 -12.162,0 0,12.162 z"
         id="path7112"
         inkscape:connector-curvature="0" /></clipPath><clipPath
       clipPathUnits="userSpaceOnUse"
       id="clipPath7124"><path
         d="m 443.92,344.509 12.162,0 0,-12.162 -12.162,0 0,12.162 z"
         id="path7126"
         inkscape:connector-curvature="0" /></clipPath><clipPath
       clipPathUnits="userSpaceOnUse"
       id="clipPath7138"><path
         d="m 458.92,344.509 12.162,0 0,-12.162 -12.162,0 0,12.162 z"
         id="path7140"
         inkscape:connector-curvature="0" /></clipPath><clipPath
       clipPathUnits="userSpaceOnUse"
       id="clipPath7152"><path
         d="m 413.92,344.509 12.162,0 0,-12.162 -12.162,0 0,12.162 z"
         id="path7154"
         inkscape:connector-curvature="0" /></clipPath><clipPath
       clipPathUnits="userSpaceOnUse"
       id="clipPath7166"><path
         d="m 473.92,344.509 12.161,0 0,-12.162 -12.161,0 0,12.162 z"
         id="path7168"
         inkscape:connector-curvature="0" /></clipPath><clipPath
       clipPathUnits="userSpaceOnUse"
       id="clipPath7180"><path
         d="m 188.919,330.177 12.163,0 0,-12.162 -12.163,0 0,12.162 z"
         id="path7182"
         inkscape:connector-curvature="0" /></clipPath><clipPath
       clipPathUnits="userSpaceOnUse"
       id="clipPath7194"><path
         d="m 233.919,330.177 12.163,0 0,-12.162 -12.163,0 0,12.162 z"
         id="path7196"
         inkscape:connector-curvature="0" /></clipPath><clipPath
       clipPathUnits="userSpaceOnUse"
       id="clipPath7208"><path
         d="m 218.919,330.177 12.163,0 0,-12.162 -12.163,0 0,12.162 z"
         id="path7210"
         inkscape:connector-curvature="0" /></clipPath><clipPath
       clipPathUnits="userSpaceOnUse"
       id="clipPath7222"><path
         d="m 143.919,330.177 12.163,0 0,-12.162 -12.163,0 0,12.162 z"
         id="path7224"
         inkscape:connector-curvature="0" /></clipPath><clipPath
       clipPathUnits="userSpaceOnUse"
       id="clipPath7236"><path
         d="m 203.919,330.177 12.163,0 0,-12.162 -12.163,0 0,12.162 z"
         id="path7238"
         inkscape:connector-curvature="0" /></clipPath><clipPath
       clipPathUnits="userSpaceOnUse"
       id="clipPath7250"><path
         d="m 248.919,330.177 12.163,0 0,-12.162 -12.163,0 0,12.162 z"
         id="path7252"
         inkscape:connector-curvature="0" /></clipPath><clipPath
       clipPathUnits="userSpaceOnUse"
       id="clipPath7264"><path
         d="m 173.919,330.177 12.163,0 0,-12.162 -12.163,0 0,12.162 z"
         id="path7266"
         inkscape:connector-curvature="0" /></clipPath><clipPath
       clipPathUnits="userSpaceOnUse"
       id="clipPath7278"><path
         d="m 158.919,330.177 12.163,0 0,-12.162 -12.163,0 0,12.162 z"
         id="path7280"
         inkscape:connector-curvature="0" /></clipPath><clipPath
       clipPathUnits="userSpaceOnUse"
       id="clipPath7292"><path
         d="m 263.919,330.177 12.163,0 0,-12.162 -12.163,0 0,12.162 z"
         id="path7294"
         inkscape:connector-curvature="0" /></clipPath><clipPath
       clipPathUnits="userSpaceOnUse"
       id="clipPath7306"><path
         d="m 383.92,330.175 12.162,0 0,-12.16 -12.162,0 0,12.16 z"
         id="path7308"
         inkscape:connector-curvature="0" /></clipPath><clipPath
       clipPathUnits="userSpaceOnUse"
       id="clipPath7320"><path
         d="m 458.919,330.175 12.162,0 0,-12.16 -12.162,0 0,12.16 z"
         id="path7322"
         inkscape:connector-curvature="0" /></clipPath><clipPath
       clipPathUnits="userSpaceOnUse"
       id="clipPath7334"><path
         d="m 368.92,330.175 12.162,0 0,-12.16 -12.162,0 0,12.16 z"
         id="path7336"
         inkscape:connector-curvature="0" /></clipPath><clipPath
       clipPathUnits="userSpaceOnUse"
       id="clipPath7348"><path
         d="m 428.919,330.175 12.162,0 0,-12.16 -12.162,0 0,12.16 z"
         id="path7350"
         inkscape:connector-curvature="0" /></clipPath><clipPath
       clipPathUnits="userSpaceOnUse"
       id="clipPath7362"><path
         d="m 488.919,330.175 12.162,0 0,-12.16 -12.162,0 0,12.16 z"
         id="path7364"
         inkscape:connector-curvature="0" /></clipPath><clipPath
       clipPathUnits="userSpaceOnUse"
       id="clipPath7376"><path
         d="m 413.919,330.175 12.162,0 0,-12.16 -12.162,0 0,12.16 z"
         id="path7378"
         inkscape:connector-curvature="0" /></clipPath><clipPath
       clipPathUnits="userSpaceOnUse"
       id="clipPath7390"><path
         d="m 503.919,330.175 12.162,0 0,-12.16 -12.162,0 0,12.16 z"
         id="path7392"
         inkscape:connector-curvature="0" /></clipPath><clipPath
       clipPathUnits="userSpaceOnUse"
       id="clipPath7404"><path
         d="m 473.919,330.175 12.162,0 0,-12.16 -12.162,0 0,12.16 z"
         id="path7406"
         inkscape:connector-curvature="0" /></clipPath><clipPath
       clipPathUnits="userSpaceOnUse"
       id="clipPath7434"><path
         d="m 188.919,315.844 12.163,0 0,-12.162 -12.163,0 0,12.162 z"
         id="path7436"
         inkscape:connector-curvature="0" /></clipPath><clipPath
       clipPathUnits="userSpaceOnUse"
       id="clipPath7448"><path
         d="m 233.919,315.844 12.163,0 0,-12.162 -12.163,0 0,12.162 z"
         id="path7450"
         inkscape:connector-curvature="0" /></clipPath><clipPath
       clipPathUnits="userSpaceOnUse"
       id="clipPath7462"><path
         d="m 218.919,315.844 12.163,0 0,-12.162 -12.163,0 0,12.162 z"
         id="path7464"
         inkscape:connector-curvature="0" /></clipPath><clipPath
       clipPathUnits="userSpaceOnUse"
       id="clipPath7476"><path
         d="m 203.919,315.844 12.163,0 0,-12.162 -12.163,0 0,12.162 z"
         id="path7478"
         inkscape:connector-curvature="0" /></clipPath><clipPath
       clipPathUnits="userSpaceOnUse"
       id="clipPath7490"><path
         d="m 248.919,315.844 12.163,0 0,-12.162 -12.163,0 0,12.162 z"
         id="path7492"
         inkscape:connector-curvature="0" /></clipPath><clipPath
       clipPathUnits="userSpaceOnUse"
       id="clipPath7504"><path
         d="m 173.919,315.844 12.163,0 0,-12.162 -12.163,0 0,12.162 z"
         id="path7506"
         inkscape:connector-curvature="0" /></clipPath><clipPath
       clipPathUnits="userSpaceOnUse"
       id="clipPath7518"><path
         d="m 278.918,315.844 12.163,0 0,-12.162 -12.163,0 0,12.162 z"
         id="path7520"
         inkscape:connector-curvature="0" /></clipPath></defs><sodipodi:namedview
     pagecolor="#ffffff"
     bordercolor="#666666"
     borderopacity="1"
     objecttolerance="10"
     gridtolerance="10"
     guidetolerance="10"
     inkscape:pageopacity="0"
     inkscape:pageshadow="2"
     inkscape:window-width="1366"
     inkscape:window-height="716"
     id="namedview4"
     showgrid="false"
     fit-margin-top="0"
     fit-margin-left="0"
     fit-margin-right="0"
     fit-margin-bottom="0"
     inkscape:zoom="1"
     inkscape:cx="135.64843"
     inkscape:cy="135.54373"
     inkscape:window-x="-8"
     inkscape:window-y="-8"
     inkscape:window-maximized="1"
     inkscape:current-layer="g14" /><g
     id="g10"
     inkscape:groupmode="layer"
     inkscape:label="fichasocio"
     transform="matrix(1.25,0,0,-1.25,-236.39905,370.6375)"><g
       id="g12"><g
         id="g14"
         clip-path="url(#clipPath16)"><path
           d="m 278.54595,259.72392 c 2.13263,0.0224 21.50594,-0.0898 40.81938,-11.29174 7.23599,-4.22037 15.28014,-6.01628 21.63315,-6.74212 6.21083,-0.68843 12.79581,-0.17959 12.79581,-0.17959 l 1.15985,-1.86325 c 0.34421,-0.54626 8.81489,-14.51689 12.25704,-50.85399 1.82583,-19.47807 0.75577,-41.05884 -7.0564,-60.81377 C 339.15768,74.903041 281.45681,57.385503 278.54595,56.51 c -2.91835,0.875503 -60.60425,18.393041 -81.60883,71.46946 -7.81218,19.75493 -8.88972,41.3357 -7.02647,60.81377 3.39725,36.3371 11.88289,50.30773 12.2271,50.85399 l 1.16734,1.86325 c 0,0 6.60743,-0.50884 12.79581,0.17959 6.37545,0.72584 14.37471,2.52175 21.64063,6.74212 19.30596,11.20194 38.67178,11.31419 40.80442,11.29174"
           style="fill:#ffffff;fill-opacity:1;fill-rule:nonzero;stroke:none"
           id="path344"
           inkscape:connector-curvature="0" /><path
           d="m 192.87389,188.87554 171.51622,0 c -2.50678,35.92555 -11.69581,49.62679 -11.69581,49.62679 -0.0374,0 -18.81957,-1.57142 -34.63849,7.61762 -19.64269,11.41147 -39.4051,10.89515 -39.4051,10.89515 0,0 -19.74745,0.51632 -39.38266,-10.89515 -15.81143,-9.18904 -34.5861,-7.61762 -34.5861,-7.61762 0,0 -9.27135,-13.43934 -11.80806,-49.62679 m 172.08493,-11.91282 -172.64615,0 c -0.0524,-2.1925 -0.0599,-4.50473 -0.0599,-6.89178 0,-1.69114 0.0299,-3.35235 0.10476,-4.9986 l 172.55636,0 c 0.0599,1.64625 0.10476,3.30746 0.10476,5.02853 0,2.35712 -0.0225,4.66935 -0.0599,6.86185 m -1.14489,-23.84062 -170.37134,0 c 0.60612,-4.13057 1.41427,-8.09653 2.42447,-11.93527 l 165.58226,0 c 0.98775,3.83874 1.78094,7.8047 2.36461,11.93527 M 278.6956,59.398411 c -2.16256,0.636049 -58.32943,17.771958 -78.95987,69.905529 l 157.78505,0 C 336.92028,77.192817 280.79083,60.071874 278.6956,59.428343 l 0,-0.02993 z"
           style="fill:#008457;fill-opacity:1;fill-rule:evenodd;stroke:none"
           id="path346"
           inkscape:connector-curvature="0" /><path
           d="m 227.5872,113.64965 0.90543,-0.90543 c 1.32448,-1.38435 1.9306,-2.64896 1.15237,-3.39725 -0.71088,-0.69592 -1.8857,-0.15715 -3.03807,0.99522 l -1.1823,1.17482 2.16257,2.13264 z m -0.80816,4.19044 -9.27135,-9.12169 2.46188,-2.53671 3.77888,3.67411 1.98298,-2.02039 c 2.49181,-2.55168 5.02105,-2.55168 6.50267,-1.07754 1.81835,1.77346 1.12243,4.42241 -0.97279,6.5326 l -4.48227,4.54962 z m 16.88149,-19.934524 c -1.12244,-2.102703 -3.74147,-2.619025 -6.11355,-1.339444 -2.43196,1.279581 -3.56936,3.741468 -2.46189,5.851648 1.12992,2.08026 3.7265,2.43944 6.136,1.18231 2.40951,-1.2721 3.56188,-3.59181 2.43944,-5.694514 m 3.32242,-1.713591 c 1.45917,2.73127 0.3068,7.250955 -4.45234,9.772705 -4.77411,2.53672 -9.2489,0.90544 -10.67814,-1.86325 -1.5789,-2.91086 -0.23198,-7.460479 4.38499,-9.929845 4.57207,-2.416987 9.19652,-0.965298 10.74549,2.02039 m 7.47545,2.342157 1.7061,-0.448975 c 1.2721,-0.389113 2.30475,-0.987747 2.10271,-2.027874 -0.24694,-1.055093 -1.60883,-1.129923 -2.85848,-0.830605 l -1.81835,0.546253 0.86802,2.761201 z m -2.75372,3.457118 -3.7265,-12.548877 3.41221,-1.055093 1.51156,5.118324 0.99523,-0.329249 c 2.14011,-0.516322 2.23739,-3.127865 2.89589,-6.195866 l 3.82378,-0.815639 c -0.80816,4.212889 -1.04013,5.537368 -2.26733,6.599944 1.75849,0.202039 3.04555,0.987746 3.4646,2.372088 0.5238,1.86325 -0.62109,4.055748 -3.41222,4.908798 l -6.69722,1.94557 z m 26.33243,-6.764572 c 0,0 -1.45917,0 -2.70882,0.05986 -1.45917,0.05986 -2.82107,0.142176 -2.82107,0.142176 l -0.91292,-10.595829 -3.56187,0.306801 0.91292,10.588345 c 0,0 -1.8857,0.209522 -2.90338,0.329249 -1.14489,0.194556 -2.46188,0.396595 -2.46188,0.396595 l 0.32925,2.387055 c 1.92311,-0.359181 4.45234,-0.703396 7.13871,-0.905435 2.49182,-0.239454 4.7367,-0.336732 7.04144,-0.299317 l -0.0524,-2.409503 z m 15.9985,3.846225 1.04761,-7.550276 c 0.36666,-4.332616 -3.068,-6.28566 -6.95912,-6.659807 -4.16051,-0.35918 -7.5428,1.234684 -7.91694,5.238051 l -0.18708,7.53531 3.56188,0.149658 0.38163,-7.378168 c 0.17959,-1.840801 1.66869,-3.008138 3.88364,-2.83603 1.87073,0.164624 3.77139,1.212234 3.56936,3.561874 l -0.92041,7.348237 3.53943,0.591151 z m 17.3155,1.302027 c -1.97549,0.17211 -3.76391,0 -5.41764,-0.598631 -3.65167,-1.264615 -5.05846,-4.048265 -4.4299,-5.844168 0.77823,-2.207464 3.95847,-2.738752 6.75709,-1.743523 0.8306,0.269386 1.19727,0.501356 2.06529,1.204752 l -0.47143,1.444205 -1.97549,-0.703395 -0.78571,2.267328 5.32037,1.870732 1.73604,-5.065943 c -0.6585,-1.257133 -2.93331,-2.828548 -5.07343,-3.606772 -4.75166,-1.653728 -9.80264,-0.43401 -11.08222,3.217659 -1.29455,3.748948 1.94556,7.729866 6.76457,9.421006 1.99794,0.68843 4.11561,0.9653 5.68702,0.85306 l 0.90544,-2.71631 z m 13.14002,2.40951 -4.43737,-2.798619 -0.4415,5.896549 4.87887,-3.09793 z m -4.48227,6.80198 -3.5095,-2.22243 0.82313,-14.367225 3.30745,1.66121 -0.19455,2.918342 6.16593,3.786363 2.31971,-1.586381 3.0231,2.214951 -11.93527,7.59517 z m 22.16444,2.83603 c 0,0 -1.92312,-2.52923 -3.92106,-4.69928 -1.99046,-2.14012 -4.06323,-3.89112 -4.06323,-3.89112 l -9.02441,9.5557 2.49181,2.43195 7.39314,-7.77476 c 0,0 0.5238,0.39659 2.39453,2.44691 1.84081,1.98298 2.88842,3.39725 2.88842,3.39725 l 1.8408,-1.46665 z"
           style="fill:#ffffff;fill-opacity:1;fill-rule:evenodd;stroke:none"
           id="path348"
           inkscape:connector-curvature="0" /><path
           d="m 228.69467,228.72214 c -2.60406,-1.66869 -4.40745,-3.35235 -8.14891,-6.75708 l 10.36386,-12.48901 3.33738,3.01562 -3.77139,4.69179 3.31493,2.8061 c 3.16528,2.61154 3.1129,5.95641 1.82584,7.81966 -1.40679,2.01291 -4.16051,2.5891 -6.92171,0.91292 m -2.60406,-6.24076 1.67618,1.41427 c 1.99046,1.72108 3.26255,2.07277 4.08568,1.13741 1.07005,-1.13741 0.0823,-2.61155 -1.19727,-3.66664 l -2.21495,-1.93059 -2.34964,3.04555 z"
           style="fill:#ffffff;fill-opacity:1;fill-rule:nonzero;stroke:none"
           id="path350"
           inkscape:connector-curvature="0" /><path
           d="m 259.47944,233.64591 c -1.39182,4.67683 -6.45028,6.98905 -13.14002,4.13058 -6.42036,-2.73876 -8.4632,-7.52783 -7.40062,-11.44889 1.15237,-4.2054 5.48499,-7.43055 12.99785,-4.5122 6.45028,2.47685 8.74006,7.85707 7.54279,11.83051 m -4.36255,-1.71359 c 0.90544,-2.67889 -1.27958,-5.70948 -4.30268,-6.92171 -3.75643,-1.50407 -6.86933,-0.15714 -7.64007,2.74623 -0.80816,2.851 1.59386,5.70948 4.11561,6.70471 3.83874,1.534 6.8394,0.42653 7.82714,-2.52923"
           style="fill:#ffffff;fill-opacity:1;fill-rule:nonzero;stroke:none"
           id="path352"
           inkscape:connector-curvature="0" /><path
           d="m 262.56241,241.72747 1.8408,-16.26789 4.45983,0.60612 -0.7483,6.36049 1.40679,0.13469 c 2.40951,0.22449 3.94351,-2.67888 6.18839,-5.95641 l 5.2605,-0.0225 c -2.92583,4.50473 -4.90132,7.73735 -6.46526,7.43055 1.66121,0.33673 3.98841,2.04284 3.74147,4.63942 -0.45646,3.96595 -4.24282,4.17547 -7.51286,4.01085 -3.24759,-0.19456 -8.17136,-0.93537 -8.17136,-0.93537 m 4.82649,-2.37957 2.4993,0.2619 c 1.65372,0.14966 3.3748,0.14966 3.60677,-1.48162 0.29183,-1.86325 -1.59387,-2.43195 -3.16528,-2.51426 l -2.4993,-0.27687 -0.44149,4.01085 z"
           style="fill:#ffffff;fill-opacity:1;fill-rule:nonzero;stroke:none"
           id="path354"
           inkscape:connector-curvature="0" /><path
           d="m 298.30088,237.96356 c 0,0 -1.01768,0.2619 -3.14283,0.62857 -2.11767,0.38911 -3.30746,0.50883 -3.30746,0.50883 l -1.62379,-13.33458 -4.45234,0.50136 1.65372,13.46179 c 0,0 -0.71836,0.11973 -3.285,0.24694 -2.34216,0.13469 -3.2027,0.13469 -3.2027,0.13469 l 0.17211,2.75372 c 2.99317,-0.0673 6.62239,-0.35918 9.08428,-0.63605 2.48433,-0.29932 5.46254,-0.84557 8.65775,-1.50407 l -0.55374,-2.7612 z"
           style="fill:#ffffff;fill-opacity:1;fill-rule:nonzero;stroke:none"
           id="path356"
           inkscape:connector-curvature="0" /><path
           d="m 302.68588,222.82559 -4.30269,1.21972 4.45983,15.71415 4.30268,-1.2272 -4.45982,-15.70667 z"
           style="fill:#ffffff;fill-opacity:1;fill-rule:nonzero;stroke:none"
           id="path358"
           inkscape:connector-curvature="0" /><path
           d="m 322.07415,212.49167 -3.1129,2.33467 -3.71153,13.46927 -4.30269,-8.88972 -4.08568,1.84829 7.04144,14.74137 3.62922,-1.67618 4.21289,-14.03797 5.62716,8.58292 3.83874,-2.67889 -9.13665,-13.69376 z"
           style="fill:#ffffff;fill-opacity:1;fill-rule:nonzero;stroke:none"
           id="path360"
           inkscape:connector-curvature="0" /><path
           d="m 344.30593,203.19039 c -0.5238,2.61154 -1.95304,5.7394 -3.33739,7.75979 -2.64895,3.76392 -5.81423,4.07072 -7.99925,2.40951 -1.80338,-1.29455 -2.46188,-4.54962 -0.50884,-7.83463 0.60612,-0.95782 2.02039,-2.64147 3.18025,-3.42718 l 1.82583,0.9653 -1.57889,3.00813 2.28977,1.2721 3.49453,-6.95912 -5.16322,-2.71631 c -1.9306,0.72585 -5.12581,3.70405 -6.75709,6.09111 -3.60677,5.1707 -3.31493,10.67814 0.69592,13.46927 4.06323,2.88093 9.33121,1.13741 13.07267,-4.05575 1.72108,-2.31222 3.26256,-5.74689 3.85371,-7.76728 l -3.068,-2.21494 z"
           style="fill:#ffffff;fill-opacity:1;fill-rule:nonzero;stroke:none"
           id="path362"
           inkscape:connector-curvature="0" /><path
           d="m 218.64509,214.46716 c -2.48433,-2.04284 -3.75643,-3.39725 -4.71424,-4.90132 -0.98026,-1.59386 -1.15985,-2.85848 -0.50884,-3.30745 1.8857,-1.3619 6.92919,7.84959 11.65092,4.90132 2.46937,-1.50407 2.44692,-5.15574 0.0224,-9.06183 -1.90815,-3.13535 -3.47956,-4.27276 -5.28295,-5.61968 l -2.91834,1.7959 c 2.86596,1.78094 4.30268,3.068 5.5224,5.02853 1.02516,1.69114 1.0102,3.068 0.21701,3.55439 -2.24488,1.37686 -6.54757,-8.0666 -11.38902,-5.06594 -2.34964,1.45169 -2.57413,4.79656 -0.0224,8.88972 1.23468,1.98297 2.66392,3.61425 4.79656,5.41016 l 2.6265,-1.6238 z"
           style="fill:#ffffff;fill-opacity:1;fill-rule:nonzero;stroke:none"
           id="path364"
           inkscape:connector-curvature="0" /><path
           d="m 278.66567,102.80688 c 0,0 48.38463,13.97812 48.38463,61.98859 0,28.21065 -6.95913,38.29764 -6.95913,38.29764 0,0 -10.53596,-0.90544 -19.35085,4.2503 -11.00739,6.40539 -22.07465,6.11355 -22.07465,6.11355 0,0 -11.05228,0.29184 -22.06716,-6.11355 -8.84482,-5.15574 -19.3284,-4.2503 -19.3284,-4.2503 0,0 -6.99654,-10.08699 -6.99654,-38.29764 0.015,-48.01047 48.3921,-61.98858 48.3921,-61.98858"
           style="fill:#008457;fill-opacity:1;fill-rule:nonzero;stroke:none"
           id="path366"
           inkscape:connector-curvature="0" /><path
           d="m 278.66567,105.55312 c 0,0 45.95267,13.30465 45.95267,58.88317 0.0449,26.85624 -6.60742,36.39697 -6.60742,36.39697 0,0 -9.9972,-0.80815 -18.39304,4.06323 -10.46114,6.08363 -20.95221,5.78431 -20.95221,5.78431 0,0 -10.50603,0.29932 -20.94472,-5.78431 -8.41829,-4.87138 -18.42297,-4.06323 -18.42297,-4.06323 0,0 -6.59246,-9.54073 -6.59246,-36.39697 0,-45.57852 45.96015,-58.88317 45.96015,-58.88317"
           style="fill:#ffffff;fill-opacity:1;fill-rule:nonzero;stroke:none"
           id="path368"
           inkscape:connector-curvature="0" /><path
           d="m 278.66567,108.35174 c 0,0 43.55065,12.54887 43.55065,55.7553 0,25.43448 -6.27817,34.47386 -6.27817,34.47386 0,0 -9.43598,-0.78571 -17.41278,3.85371 -9.92985,5.71696 -19.8597,5.47002 -19.8597,5.47002 0,0 -9.95978,0.24694 -19.83724,-5.47002 -7.96932,-4.63942 -17.45768,-3.85371 -17.45768,-3.85371 0,0 -6.25573,-9.03938 -6.25573,-34.47386 0.015,-43.20643 43.55065,-55.7553 43.55065,-55.7553"
           style="fill:#008457;fill-opacity:1;fill-rule:nonzero;stroke:none"
           id="path370"
           inkscape:connector-curvature="0" /><path
           d="m 261.58214,189.96805 c 0,0 1.6687,-0.93537 3.86868,-1.03265 2.89589,-0.14217 8.47816,2.38706 10.55093,0.43401 -0.41904,0.0898 -2.43195,0.50136 -5.17819,-0.51632 -2.44692,-0.8755 -4.15302,-1.26461 -5.47002,-1.26461 -3.38228,0 -3.9884,2.62651 -3.7714,2.37957"
           style="fill:#fabb00;fill-opacity:1;fill-rule:nonzero;stroke:none"
           id="path372"
           inkscape:connector-curvature="0" /><path
           d="m 294.06554,188.90547 c -0.14217,2.83603 -2.43195,3.80881 -3.91357,3.7714 -1.49659,-0.0299 -2.41699,-1.02516 -2.41699,-1.02516 0.0299,0.14966 -0.32925,1.92311 1.82584,2.40202 1.87073,0.45646 3.60677,-0.77074 3.85371,-0.9204 0.0748,0.32925 0.15714,2.58161 -3.4646,2.88841 -1.77345,0.11224 -4.31765,-0.51632 -5.10336,0.38163 0,0 1.45917,0 2.55916,0.5238 1.1,0.50884 1.95305,1.43673 1.95305,1.43673 -2.29726,-0.71837 -5.58227,0.94284 -7.55776,1.02516 -2.77617,0.0823 -3.30745,-1.17482 -3.30745,-1.17482 -0.79319,0.41904 -2.42447,0.57618 -3.00066,0.57618 -0.44149,0.0299 -2.85848,0.0898 -2.85848,-1.35441 0,-2.17005 6.29315,-0.93536 6.47274,-0.90543 0,0 -0.0524,-0.62857 -2.5891,-1.19727 -1.02516,-0.21701 -1.40679,-0.67346 -1.64624,-1.23468 0.0823,0.16462 -0.0823,0.50884 -0.3068,0.80815 -0.41905,0.53877 -1.12244,1.11496 -3.38229,0.99523 -0.79319,-0.0299 -3.45711,-0.50884 -3.45711,-1.63876 0,-1.0102 2.15508,-0.5687 2.15508,-0.5687 0,0 0.007,-0.17211 -0.71836,-0.47891 -0.48639,-0.20952 -0.78571,-0.47142 -0.86053,-0.93537 -0.21701,-1.07754 1.0925,-2.00542 1.0925,-2.00542 0,0 0.9204,1.7959 3.86868,1.7959 3.09793,0 4.59452,-1.70611 4.48227,-3.16528 -0.0748,-0.76326 -0.67346,-1.7959 -2.92582,-1.90066 -2.19998,-0.0823 -3.85371,0.50135 -3.85371,0.50135 0,0 -0.40408,-1.0925 0.32925,-1.75848 1.08502,-0.95034 1.58638,-1.67618 1.52652,-2.79862 0,0 1.32447,2.19998 3.15031,2.50678 0.77074,0.14966 1.94556,-0.0299 1.91563,-1.03264 -0.0599,-1.95305 -4.01833,-2.58161 -4.80404,-2.79862 -3.39725,-0.80815 -4.46731,-1.86325 -4.60949,-2.7612 0.80816,0.32177 1.63876,0.38911 2.96324,0.32177 2.2374,-0.0823 3.27004,1.1823 3.27004,1.1823 0.16463,-1.65373 -3.16528,-2.72379 -6.23328,-3.7714 -4.13057,-1.43672 -4.84145,-4.05574 -4.97615,-5.41764 0,0 -7.49789,-5.29043 -11.21691,-5.14825 -3.33738,0.14966 -3.03807,2.08025 -5.47002,2.05032 -2.57413,-0.0299 -2.93331,-2.34964 -2.93331,-2.34964 0,0 0.75578,0.44898 2.11767,0.35918 1.13741,-0.0823 1.59387,-0.47891 1.78842,-0.83809 0,0 -2.55168,0.35918 -3.9884,-0.72584 -1.90066,-1.43672 -0.47891,-3.48705 -0.47891,-3.48705 0,0 0.47891,0.9653 1.91563,1.46666 1.49659,0.58367 2.79114,0.15714 2.79114,0.15714 -0.23946,-0.0898 -2.61903,-0.38911 -3.25508,-2.1476 -0.50135,-1.40679 0.80068,-2.40202 1.19727,-2.57413 0,0 1.32448,2.88093 5.88907,3.78636 4.36254,0.84557 7.6251,-0.93536 7.6251,-0.93536 -0.23197,0.84557 -0.88298,1.41427 -1.06257,1.56393 -0.74081,0.6585 -1.6238,0.93536 -1.6238,0.93536 0,0 0.23945,0.6585 1.29455,0.7483 2.75371,0.217 3.35983,-2.24488 6.59246,-2.52175 1.93808,-0.11973 3.16528,0.9653 3.16528,0.9653 0,0 -1.08503,-0.47891 -2.64148,1.23468 -1.39182,1.56393 -3.19521,1.32448 -3.19521,1.32448 0,0 1.12992,0.89795 2.8061,0.84557 2.43944,-0.15714 3.82378,-2.4993 5.6122,-2.91834 1.99046,-0.48639 2.78365,-0.0374 2.78365,-0.0374 -0.0973,-0.14965 -0.23197,-0.59863 -1.30952,-1.08502 -0.32924,-0.20952 -1.19726,-0.32925 -1.52651,-0.29932 0,0 0.28435,-3.46459 10.49106,-6.05369 3.39725,-0.86802 3.84623,-1.65373 3.70405,-2.91834 -0.24693,-2.31971 -3.15779,-3.21766 -3.34487,-7.49041 -0.15714,-4.3401 3.29249,-5.48499 4.04827,-7.35572 0.81564,-1.92312 -0.3068,-3.44215 -0.3068,-3.44215 1.09251,-0.23197 1.87073,0.83061 2.66392,1.27958 1.45169,0.80816 2.86596,-0.0898 2.56665,-2.40202 -0.24694,-2.05781 -2.29726,-7.46796 -4.81153,-7.37817 -1.76597,0.0599 -1.58638,0.3966 -3.27752,0.41156 -1.60883,0.0299 -1.81835,-1.16733 -1.8408,-1.64624 -0.0748,-0.91292 0.74081,-2.17005 0.74081,-2.17005 0,0 0.29183,0.68843 1.44421,1.04761 0.89046,0.29183 1.51155,0.26938 2.25984,0.26938 0,0 -2.16257,-1.16733 -2.33467,-2.91086 -0.12721,-1.29454 0.51632,-1.72107 0.51632,-1.72107 0,0 0.46394,0.72585 1.72855,0.93537 1.4068,0.17959 2.30475,0.5687 3.7714,2.4993 0,0 0.47143,-0.27687 -0.26938,-1.69115 -0.63605,-1.26461 0,-2.19249 0,-2.19249 0,0 0.47142,0.65849 1.08502,0.89795 0.97278,0.43401 2.61154,0.5687 2.82855,1.90066 0.23945,1.30203 -1.57142,2.34964 -0.60612,4.66187 0.76326,1.8408 2.14012,2.29726 3.24011,2.90337 2.1027,1.04761 1.99794,1.70611 1.99794,1.70611 -0.74829,-0.32925 -1.51155,0.0599 -2.44692,0 -0.80815,-0.0898 -1.30203,-0.59863 -1.30203,-0.59863 0,0 0,1.62379 1.75101,2.88841 1.85577,1.38434 4.6918,1.56393 6.06866,3.69656 1.28706,2.05033 0.15714,3.22515 0.15714,3.22515 -0.0374,-0.51633 -0.6136,-1.25714 -2.51427,-2.07277 -1.71359,-0.7483 -2.43195,-1.35441 -2.95575,-2.04284 0,0 -0.19456,3.84622 4.03329,5.38022 4.7816,1.78094 3.39725,4.22037 3.18773,4.54962 0,0 -0.93536,-1.65372 -2.82855,-1.69114 -2.80609,-0.0823 -2.94827,3.47208 -3.0231,3.49453 0.99523,-0.53877 2.42447,-0.69591 4.10065,-0.33673 2.66392,0.6136 3.44214,2.14012 3.60677,2.93331 -0.19456,-0.12721 -2.42447,-1.99046 -3.64419,-0.82313 0,0 4.66187,1.02517 4.84146,6.42036 0.20952,6.10607 -4.55711,9.30128 -6.98906,15.76653 -0.90543,2.38705 -2.15508,9.39856 3.67412,10.53596 0.9204,0.1796 1.76597,-0.0524 1.56393,0 0,0 -1.42175,-3.47956 2.57413,-3.78636 3.75643,-0.29931 5.44009,1.48162 5.44009,1.48162 0,0 -1.70611,-0.45646 -3.33739,-0.0299 -1.76597,0.44149 -1.54896,1.52652 -1.54896,1.52652 0,0 1.40679,-0.72585 2.83603,-0.80068 2.55916,-0.19455 3.47956,1.1 3.60677,1.36938 0,0 -1.26462,-0.39659 -2.50678,-0.23197 -2.03536,0.23197 -1.98298,1.20475 -1.98298,1.20475 0,0 1.30951,-0.47891 3.05304,-0.18707 2.50678,0.41904 2.9333,1.93059 2.77616,2.41698 0,0 -0.54625,-1.42175 -3.58432,-0.90543 -1.60883,0.29932 -1.7959,0.6585 -3.47956,0.72584 -1.75849,0.10477 -3.14283,-1.24216 -3.29249,-1.60883 0,0 -0.94285,0.15715 -2.11767,0.0449 -1.21223,-0.0973 -6.136,-1.42924 -5.95641,-8.26115 0.16462,-6.89178 6.80946,-14.56927 6.59994,-19.65018 -0.17211,-3.56187 -2.67889,-4.4673 -3.86119,-4.54962 -2.47685,-0.14965 -5.65709,1.04761 -8.5904,8.10402 -1.60883,3.81629 -2.14012,7.75979 -1.85577,11.60602 0,0 -0.9204,-0.41156 -1.29455,-1.83332 -0.25442,-0.98774 -0.1721,-1.62379 0,-2.31222 0,0 -1.87073,0.71836 -1.65372,3.44963 0.18707,2.99317 0.99523,3.79384 1.18978,6.21831 0.14966,1.85577 -0.95781,3.39725 -0.95781,3.39725 0,0 2.46188,-0.29931 2.92582,-3.49453 0.83809,-5.5673 3.08297,-5.11832 3.10542,-5.14825 -1.45917,2.31971 -0.52381,5.74689 -0.99523,8.64278 -0.7034,4.36255 -3.75643,3.3748 -3.84623,3.3748 0,0 0.47891,1.59387 2.01291,1.59387 1.15237,0 2.1925,-1.13741 3.14283,-3.52446 0.93537,-2.31223 2.22991,-1.87073 2.22991,-1.87073 -1.1374,1.26461 -0.80815,3.44214 -1.49658,5.35777 -1.72856,4.602 -5.05098,3.6816 -5.08839,3.6816 0.0823,0.17211 0.36666,1.56394 2.11767,1.58639 1.24216,0.0299 2.37957,-0.89796 3.05303,-2.49182 0.63605,-1.47414 1.70611,-1.2721 1.75849,-1.2721 -0.50136,0.48639 -0.71836,0.63605 -0.86054,3.068"
           style="fill:#fabb00;fill-opacity:1;fill-rule:nonzero;stroke:none"
           id="path374"
           inkscape:connector-curvature="0" /><path
           d="m 249.99857,191.1728 c 0.0673,0.0299 1.85577,0.98026 3.26256,-0.66598 1.12244,-1.34693 1.24965,-5.29043 4.70676,-7.27341 5.09587,-2.91834 10.11692,-2.48433 10.11692,-2.48433 -2.21495,-1.34693 -2.58909,-2.76868 -4.13058,-4.24282 -3.55439,-3.45711 -6.7496,-2.34216 -6.95164,-2.04284 0,0 0.88299,0.17959 1.75849,0.98775 0.8755,0.81563 1.19727,1.33196 2.1027,1.90066 1.00272,0.68843 1.8857,0.75578 1.8857,0.75578 0,0 -0.44897,0.63604 -1.90815,0.17959 -1.62379,-0.47891 -2.24487,-1.87074 -4.52717,-1.95305 -2.28977,-0.0973 -2.83603,0.62857 -2.83603,0.62857 0,0 0.50136,-0.0898 1.43672,0.31428 0.7483,0.32925 1.2721,1.09251 1.94557,1.58638 0.99523,0.68843 2.04284,0.62857 2.04284,0.62857 0,0 -0.51633,0.6585 -1.69863,0.62856 -1.99046,-0.0524 -2.11767,-0.90543 -3.69657,-0.5687 0,0 0.75578,0.85305 0.78571,1.71359 0.0225,0.8755 -0.5238,3.00814 -5.02104,3.22514 -2.634,0.11225 -3.96596,1.61632 -4.31017,2.01291 -0.42653,0.41905 -0.86802,0.6585 -1.2721,0.73333 0.51632,0.86054 2.25984,1.19727 3.95847,0.23197 0.9653,-0.54625 1.42924,-0.54625 1.42924,-0.54625 -0.24694,0.54625 -1.34693,1.81087 -2.39454,2.0129 -0.75577,0.18708 -1.1374,0.0973 -1.80338,-0.0823 0,0 0.66598,1.89318 2.80609,1.99046 2.16257,0.0823 3.51698,-1.77345 3.98841,-2.65644 0,0 0.0748,0.68843 -0.4415,1.68366 -0.26938,0.54625 -0.9204,1.09251 -1.23468,1.30203"
           style="fill:#fabb00;fill-opacity:1;fill-rule:nonzero;stroke:none"
           id="path376"
           inkscape:connector-curvature="0" /><path
           d="m 277.41602,155.49419 c -1.63127,-1.01768 -3.5469,-0.44897 -6.68225,-0.62856 -3.65167,-0.18708 -4.53466,-2.91835 -4.53466,-4.24282 0.0299,-2.70883 2.22243,-3.92106 2.05781,-5.79179 -0.14218,-2.21495 -3.63671,-3.88364 -5.98635,-3.66664 -2.35712,0.24694 -3.80881,2.44692 -6.00131,2.35713 -2.49929,-0.0973 -2.63399,-2.19999 -2.63399,-2.19999 0,0 0.84557,0.38163 1.90815,0.20204 1.28706,-0.1721 1.4891,-1.16733 1.5789,-1.50407 0,0 -2.64148,1.12244 -4.40745,-0.2619 -1.751,-1.39182 -0.47142,-3.67412 -0.56122,-3.55439 0,0 0.56122,1.01768 1.71359,1.40679 1.36938,0.48639 2.44692,0.17959 2.44692,0.17959 0,0 -1.09999,-0.41156 -1.83332,-1.29455 -0.7857,-0.92788 -0.67346,-1.95304 -0.67346,-1.95304 1.07754,0.81564 1.85577,0.217 2.93331,0.0898 2.43195,-0.24693 2.62651,2.74624 5.79179,3.1578 3.39725,0.3966 5.94144,-1.04761 5.94144,-1.04761 0,0 0.015,0.90544 -0.79319,1.60135 -0.76326,0.62108 -1.68366,0.62108 -1.68366,0.62108 0,0 0.83809,0.6136 1.99795,0.58367 2.05032,-0.0374 3.05303,-1.15237 5.2156,-1.2721 2.40202,-0.12721 3.74146,1.20475 3.74146,1.20475 0,0 -1.33944,-0.0299 -2.70882,0.9653 -1.42175,0.99523 -3.06052,0.50136 -3.06052,0.50136 0,0 0.45646,1.84828 3.22515,1.81087 2.73127,-0.0524 5.32036,-1.50407 5.32036,-1.50407 0,0 -1.51155,1.751 -0.82312,5.14825 0.69591,3.24011 3.05303,4.78159 3.05303,4.78159 0,0 -1.82583,0.16463 -3.55439,-0.71087 -1.99046,-0.9653 -2.64896,-1.96801 -2.64896,-1.96801 0,0 -0.0823,1.33944 1.41428,2.70882 1.75849,1.56393 2.7612,1.78093 2.7612,1.78093 -0.54626,0.0898 -2.10271,-0.0224 -4.17548,-0.5687 -2.64147,-0.71836 -3.66663,-1.47414 -3.66663,-1.47414 0,0 -0.11973,1.57142 2.46936,2.43196 3.23263,1.0925 2.85848,2.11018 2.85848,2.11018"
           style="fill:#fabb00;fill-opacity:1;fill-rule:nonzero;stroke:none"
           id="path378"
           inkscape:connector-curvature="0" /><path
           d="m 263.86444,169.83149 c 0,0 0.88298,2.6714 4.15302,3.33738 3.83875,0.77823 4.36255,1.60135 5.24554,2.73875 0,0 0.41156,-3.00813 -3.18025,-4.36254 -2.06529,-0.78571 -3.03807,-0.50884 -4.52717,-0.86802 -1.15237,-0.33674 -1.69114,-0.84557 -1.69114,-0.84557"
           style="fill:#008457;fill-opacity:1;fill-rule:nonzero;stroke:none"
           id="path380"
           inkscape:connector-curvature="0" /><path
           d="m 269.10997,168.05055 c 0,0 -0.0898,1.80338 4.56459,3.27752 5.11832,1.6238 4.44486,4.30269 4.44486,4.30269 0.74081,-0.86054 1.12244,-4.42242 -2.55916,-6.05369 -1.38434,-0.56122 -2.92583,-0.4415 -4.51221,-0.74081 -0.54625,-0.0973 -1.15985,-0.24694 -1.93808,-0.78571"
           style="fill:#008457;fill-opacity:1;fill-rule:nonzero;stroke:none"
           id="path382"
           inkscape:connector-curvature="0" /><path
           d="m 275.94189,166.39682 c 0,0 -0.35918,1.15237 1.04012,2.17005 2.11019,1.50407 4.28772,1.56393 5.47003,3.78636 0.74829,1.48162 0.71836,2.5891 0.51632,3.22515 0,0 0.34421,-0.0898 0.77822,-1.08503 0.35918,-0.78571 0.9653,-3.57684 -0.77822,-5.14826 -1.25713,-1.10747 -3.39725,-1.46665 -4.94622,-1.7959 -0.95033,-0.27687 -1.60883,-0.71088 -2.08025,-1.15237"
           style="fill:#008457;fill-opacity:1;fill-rule:nonzero;stroke:none"
           id="path384"
           inkscape:connector-curvature="0" /><path
           d="m 268.661,166.03016 c 0,0 0.71836,0.71836 2.04284,0.68843 2.22991,-0.0524 3.11289,-1.64625 4.28023,-2.13264 0.72585,-0.26938 1.12992,-0.20952 1.12992,-0.20952 -0.19455,-0.17211 -0.58366,-0.59863 -1.60883,-0.51632 -2.04284,0.12721 -3.12786,1.78093 -4.31765,2.11767 -0.92788,0.26938 -1.52651,0.0524 -1.52651,0.0524"
           style="fill:#008457;fill-opacity:1;fill-rule:nonzero;stroke:none"
           id="path386"
           inkscape:connector-curvature="0" /><path
           d="m 272.38001,160.8819 c 0,0 2.32719,-0.86054 4.93125,-0.77822 1.9306,0.0823 4.10065,0.80815 5.58227,1.64624 0,0 -1.69114,-2.4095 -5.39519,-2.66392 -3.35236,-0.20952 -5.14078,1.82583 -5.11833,1.7959"
           style="fill:#008457;fill-opacity:1;fill-rule:nonzero;stroke:none"
           id="path388"
           inkscape:connector-curvature="0" /><path
           d="m 277.45344,158.24043 c 0,0 2.53671,-0.56871 4.27275,-0.48639 2.20747,0.11972 3.48705,0.39659 4.59452,0.85305 0,0 -1.19727,-1.66869 -4.48976,-1.82583 -3.13535,-0.11225 -4.37751,1.45917 -4.37751,1.45917"
           style="fill:#008457;fill-opacity:1;fill-rule:nonzero;stroke:none"
           id="path390"
           inkscape:connector-curvature="0" /><path
           d="m 285.81935,150.62281 c 0,0 -2.61902,-2.76869 -2.47685,-5.59724 0.0748,-2.08025 1.04761,-3.03807 2.12516,-4.75914 0.68094,-1.06258 0.80815,-1.90066 0.80815,-1.90066 0.65102,1.31699 -0.90543,3.70405 -1.45169,5.81423 -0.65101,2.70134 0.99523,6.44281 0.99523,6.44281"
           style="fill:#008457;fill-opacity:1;fill-rule:nonzero;stroke:none"
           id="path392"
           inkscape:connector-curvature="0" /><path
           d="m 244.63331,284.38017 c -6.31559,-0.53877 -9.87747,-1.20475 -13.07268,-2.59658 -3.39725,-1.47413 -5.1707,-3.30745 -4.53465,-4.74417 1.8408,-4.31017 20.59302,5.1707 24.85829,-4.85642 2.39454,-5.47751 -2.34964,-11.31419 -10.76794,-14.89852 -6.62239,-2.86596 -10.46113,-2.95575 -14.85361,-3.12786 l -2.66393,6.20335 c 6.6224,-0.3966 10.36386,0.0599 14.5543,1.83332 3.57684,1.56393 5.10336,3.36731 4.385,5.05846 -2.01291,4.69928 -20.53316,-5.3054 -24.97054,4.95369 -2.11018,5.00608 2.11767,10.69311 10.8727,14.46451 4.24282,1.83332 8.35095,2.79861 13.76859,3.27004 l 2.42447,-5.55982 z"
           style="fill:#008457;fill-opacity:1;fill-rule:nonzero;stroke:none"
           id="path394"
           inkscape:connector-curvature="0" /><path
           d="m 297.10361,267.64086 c -5.74689,-2.2823 -10.0795,-3.12787 -16.16313,-3.16528 -16.00598,-0.0224 -23.98279,7.80469 -24.00523,15.83388 -0.0449,8.34346 8.96455,16.14068 24.6787,16.20054 5.73192,0 10.88018,-0.89795 14.91348,-2.70882 l 0.0299,-6.95913 c -4.54214,1.90067 -9.11421,3.16528 -14.18764,3.16528 -8.74754,-0.0374 -14.88354,-3.97343 -14.88354,-9.50332 0.0224,-5.58974 6.136,-9.51828 14.67402,-9.51828 5.38023,0 9.00197,1.29454 14.91348,3.45711 l 0.0299,-6.80198 z"
           style="fill:#008457;fill-opacity:1;fill-rule:nonzero;stroke:none"
           id="path396"
           inkscape:connector-curvature="0" /><path
           d="m 313.6783,291.45154 -9.57067,-29.34805 9.05435,-2.89589 3.81629,11.77813 8.29857,-2.74624 c 8.92714,-2.92582 14.33729,0.5687 15.6917,4.7367 1.29455,3.96595 -1.16733,9.99719 -10.00467,12.84819 l -17.28557,5.62716 z m 7.28089,-8.27612 4.01833,-1.36938 c 5.23805,-1.66869 7.68497,-3.29249 6.87682,-5.79178 -0.7034,-2.22992 -3.54691,-2.76869 -8.0217,-1.3619 l -5.0884,1.71359 2.21495,6.80947 z"
           style="fill:#008457;fill-opacity:1;fill-rule:nonzero;stroke:none"
           id="path398"
           inkscape:connector-curvature="0" /></g></g></g></svg>