<?xml version="1.0" encoding="iso-8859-1"?><!-- Generator: Adobe Illustrator 16.0.0, SVG Export Plug-In . SVG Version: 6.00 Build 0) --><!DOCTYPE svg PUBLIC "-//W3C//DTD SVG 1.1//EN" "http://www.w3.org/Graphics/SVG/1.1/DTD/svg11.dtd"><svg version="1.1" id="Layer_1" xmlns="http://www.w3.org/2000/svg" xmlns:xlink="http://www.w3.org/1999/xlink" x="0px" y="0px" width="192.756px" height="192.756px" viewBox="0 0 192.756 192.756" style="enable-background:new 0 0 192.756 192.756;" xml:space="preserve"><g><polygon style="fill-rule:evenodd;clip-rule:evenodd;fill:#FFFFFF;" points="0,0 192.756,0 192.756,192.756 0,192.756 0,0	"/><path style="fill-rule:evenodd;clip-rule:evenodd;" d="M96.289,101.586c2.016-0.008,2.848,1.4,2.848,1.4s0.672-4.256,1.793-6.943	c1.119-2.689,2.389-3.137,2.389-3.137s0.545,0.576-0.299,2.987c-2.09,5.974-2.09,9.111-2.09,9.111s1.414-3.934,4.629-11.65	c2.24-5.377,5.707-8.771,7.617-11.5c0.521-0.747,2.102-2.424,3.285-5.975c0.299-0.896,2.391-1.493,2.391-1.493	s-1.047-2.39-0.748-5.675c0.299-3.286,1.344-5.078,2.24-10.753s-0.447-7.169-0.746-9.858c-0.299-2.688,1.045-3.285,1.045-6.571	c0-3.285-2.838-11.351-2.838-11.351s-1.193-4.032-2.389-6.422s-0.256-6.228-2.838-10.305c-1.42-2.24-1.531-4.593-1.531-4.593	l1.055-0.131c0,0,1.373,3.379,3.463,7.71c1.91,3.956,0.896,1.643,2.24,3.435c3.148,4.195,0.252,0.706,2.391,9.259	c1.045,4.182,2.986,10.306,5.377,15.682c1.346,3.03-1.494,11.649-1.346,18.818c0.15,7.169,0.578,6.705,0.301,10.604	c-0.15,2.091-2.391,3.286-2.391,3.286s0.596,1.494,0,2.987c-0.598,1.494-3.137,3.286-4.779,7.02	c-1.643,3.733-2.24,5.825-3.883,7.916c-6.098,7.758-8.365,10.752-8.365,10.752s6.039-5.627,9.262-8.213	c9.109-7.319,9.258-5.676,9.258-5.676s-0.525-2.323,3.885-7.467c2.688-3.137,4.33-10.754,4.928-13.89	c0.336-1.766,2.838-5.675,2.838-5.675s2.391-12.694,2.539-13.89c0.611-4.888,0.299-5.825,0.299-5.825s0.299-0.747-1.195-3.883	c-1.045-2.197-1.943-5.161-1.943-5.161l0.748-0.664c0,0,1.047,1.344,2.24,4.48c1.195,3.136,2.24,2.838,2.689,5.376	c0.447,2.539,0.613-1.141-0.15,3.435c-0.447,2.688-1.045,3.883-1.643,9.708c-0.746,7.286,0.449,9.708,0,12.396	c-0.447,2.688-1.941,2.838-2.24,4.78c-0.299,1.941-2.344,7.184-4.48,13.591c-1.193,3.584-4.928,4.63-4.928,4.63	s-0.15,1.941-1.047,2.838c-0.895,0.896-1.791,0.299-3.732,2.688c-2.172,2.674-3.436,4.93-7.02,7.318	c-5.48,3.654-8.514,5.525-8.514,5.525s1.867-0.721,6.869-1.643c5.676-1.045,7.768,1.195,7.768,1.195s2.09,0,4.779,1.195	c2.688,1.195,3.137,2.539,6.422,4.629c3.404,2.168,3.137,1.494,4.033,2.988c1.32,2.203,0.994,1.213,1.941,6.422	c1.195,6.57,2.838,13.441,2.838,13.441s-0.799,0.006-1.07-0.178c-1.436-0.977-0.805-5.301-2.812-10.576	c-2.391-6.273-4.184-6.57-4.184-6.57s-2.688,0.148-6.869-2.689s-4.48-3.883-4.48-3.883s-1.645,0.746-4.631,0.299	c-6.055-0.908-9.408,1.045-9.408,1.045s3.451-0.83,9.857,2.988c7.766,4.629,5.824,6.721,5.824,6.721s1.494,0.299,3.734,4.33	c2.154,3.879,1.92,6.039,3.436,12.098c1.492,5.975,2.389,4.629,2.986,7.916c0.598,3.285-1.475,5.793-3.137,12.994	c-0.896,3.883-1.377,6.104-4.631,11.797c-2.389,4.182-5.33,7.113-5.33,7.113c-0.373-0.41-0.719-0.295-0.672-0.561	c0.146-0.797,1.939-2.312,5.107-9.24c2.389-5.227,3.193-7.627,4.33-14.637c0.896-5.525-2.07-2.588-1.941-6.57	c0.15-4.631-2.539-12.547-4.93-18.52c-2.389-5.975-4.031-3.883-4.629-4.93c-1.729-3.023-4.994-3.988-5.973-4.33	c-2.988-1.047-4.631-0.449-4.631-0.449s2.016,0.373,3.809,3.66c1.793,3.285,3.734,6.646,3.734,13.217	c0,6.572-2.771,12.262-6.834,16.148c-4.742,4.541-11.902,4.594-11.902,4.594s-6.469,0.135-11.761-4.65	c-4.17-3.77-6.833-9.576-6.833-16.148c0-6.57,1.942-9.932,3.733-13.217c1.792-3.285,3.809-3.658,3.809-3.658	s-1.643-0.598-4.63,0.447c-0.979,0.344-4.246,1.307-5.974,4.33c-0.597,1.047-2.24-1.045-4.629,4.93s-5.079,13.891-4.928,18.52	c0.128,3.982-2.838,1.045-1.942,6.572c1.136,7.008,1.942,9.408,4.331,14.635c2.886,6.314,4.771,8.375,5.19,9.186l-0.411,0.523	c-1.494-0.412-3.286-2.838-5.676-7.02c-3.253-5.693-3.733-7.916-4.629-11.799c-1.662-7.201-3.734-9.709-3.137-12.994	s1.494-1.941,2.987-7.916c1.515-6.059,1.28-8.219,3.435-12.098c2.24-4.031,3.734-4.33,3.734-4.33s-1.941-2.092,5.824-6.721	c6.405-3.818,9.858-2.986,9.858-2.986s-3.354-1.955-9.41-1.047c-2.987,0.449-4.63-0.299-4.63-0.299s-0.299,1.047-4.48,3.883	c-4.182,2.838-6.87,2.689-6.87,2.689s-1.792,0.299-4.182,6.57c-2.091,5.49-2.353,10.418-3,10.678	c-0.243,0.098-0.529,0.133-0.884,0.076c0,0,1.643-6.869,2.837-13.441c0.947-5.207,0.62-4.219,1.941-6.422	c0.896-1.494,0.628-0.82,4.033-2.986c3.286-2.092,3.734-3.436,6.422-4.631c2.688-1.195,4.78-1.195,4.78-1.195	s2.09-2.24,7.766-1.193c5.002,0.922,6.87,1.643,6.87,1.643s-3.032-1.873-8.513-5.525c-3.584-2.391-4.848-4.646-7.02-7.318	c-1.941-2.391-2.838-1.793-3.734-2.689c-0.896-0.896-1.045-2.837-1.045-2.837s-3.734-1.045-4.929-4.63	c-2.136-6.407-4.182-11.649-4.48-13.591c-0.298-1.941-1.793-2.091-2.24-4.779c-0.448-2.688,0.748-5.109,0-12.396	c-0.597-5.825-1.195-7.02-1.643-9.708c-0.763-4.577-0.597-0.896-0.15-3.436c0.449-2.539,1.495-2.24,2.689-5.376	c1.194-3.137,1.643-4.107,2.24-4.48l0.716,0.469c0.03,0.24-0.791,3.003-1.911,5.355c-1.495,3.137-1.195,3.883-1.195,3.883	s-0.312,0.937,0.299,5.825c0.149,1.195,2.539,13.89,2.539,13.89s2.501,3.908,2.838,5.675c0.597,3.137,2.24,10.753,4.928,13.89	c4.409,5.145,3.883,7.468,3.883,7.468s0.15-1.643,9.26,5.675c3.221,2.588,9.26,8.215,9.26,8.215s-2.267-2.994-8.364-10.754	c-1.643-2.091-2.24-4.182-3.883-7.916s-4.182-5.526-4.779-7.02c-0.597-1.493,0-2.987,0-2.987s-2.24-1.194-2.39-3.285	c-0.278-3.899,0.149-3.436,0.299-10.604c0.149-7.169-2.691-15.788-1.345-18.818c2.391-5.377,4.332-11.5,5.377-15.682	c2.139-8.554-0.757-5.064,2.39-9.26c1.345-1.792,0.331,0.521,2.24-3.435c2.091-4.331,3.211-7.878,3.211-7.878h0.896	c0.112,1.12,0.423,2.454-1.12,4.891c-2.582,4.077-1.643,7.916-2.838,10.305c-1.195,2.39-2.39,6.422-2.39,6.422	s-2.837,8.065-2.837,11.351c0,3.286,1.344,3.883,1.045,6.571c-0.299,2.688-1.643,4.182-0.747,9.857	c0.896,5.675,1.942,7.468,2.24,10.753c0.299,3.286-0.747,5.675-0.747,5.675s2.092,0.598,2.391,1.494	c1.183,3.551,2.763,5.227,3.285,5.974c1.91,2.728,5.377,6.124,7.617,11.5c3.215,7.716,4.629,11.649,4.629,11.649s0-3.137-2.09-9.11	c-0.844-2.411-0.299-2.987-0.299-2.987s1.269,0.448,2.389,3.136s1.792,6.946,1.792,6.946s0.896-1.354,2.912-1.346H96.289	L96.289,101.586z"/><path style="fill-rule:evenodd;clip-rule:evenodd;fill:#B01842;" d="M91.883,129.926c-1.941,1.195-0.771,3.256,1.568,5.488	c1.232,1.178,0.982,2.168,1.064,3.809c0.056,1.121-1.176,2.24-1.513,2.576c-2.463,2.463-3.584,0.504-4.088,3.25	c-0.514,2.795,0.495,3.445,2.352,3.975c3.137,0.896,2.156,0.756,5.293,0.756c3.137,0,1.905,0.17,5.042-0.727	c1.855-0.531,2.865-1.182,2.352-3.977c-0.504-2.744-1.625-0.785-4.088-3.248c-0.336-0.336-1.568-1.457-1.514-2.576	c0.084-1.641-0.168-2.633,1.064-3.809c2.34-2.232,3.51-4.295,1.568-5.488c-1.941-1.195-4.424-1.064-4.424-1.064	S93.825,128.73,91.883,129.926L91.883,129.926z"/></g></svg>