<?xml version="1.0" encoding="iso-8859-1"?><!-- Generator: Adobe Illustrator 16.0.0, SVG Export Plug-In . SVG Version: 6.00 Build 0) --><!DOCTYPE svg PUBLIC "-//W3C//DTD SVG 1.1//EN" "http://www.w3.org/Graphics/SVG/1.1/DTD/svg11.dtd"><svg version="1.1" id="Layer_1" xmlns="http://www.w3.org/2000/svg" xmlns:xlink="http://www.w3.org/1999/xlink" x="0px" y="0px" width="192.756px" height="192.756px" viewBox="0 0 192.756 192.756" style="enable-background:new 0 0 192.756 192.756;" xml:space="preserve"><g><polygon style="fill-rule:evenodd;clip-rule:evenodd;fill:#FFFFFF;" points="0,0 192.756,0 192.756,192.756 0,192.756 0,0	"/><polygon style="fill-rule:evenodd;clip-rule:evenodd;fill:#2360A5;" points="8.504,79.346 42.687,79.346 42.687,113.41	8.504,113.41 8.504,79.346	"/><polygon style="fill-rule:evenodd;clip-rule:evenodd;fill:#FFF361;" points="11.569,82.528 39.623,82.528 39.623,110.346	11.569,110.346 11.569,82.528	"/><path style="fill-rule:evenodd;clip-rule:evenodd;fill:#2360A5;" d="M14.28,85.239h19.449c0.118,0,3.183,2.829,3.183,2.711v16.974	c0,0.117-2.947,2.711-3.065,2.711H14.162v-4.008h3.182V89.011H14.28V85.239L14.28,85.239z"/><polygon style="fill-rule:evenodd;clip-rule:evenodd;fill:#FFF361;" points="21.588,89.247 32.904,89.247 32.904,103.627	21.588,103.627 21.588,89.247	"/><polygon style="fill-rule:evenodd;clip-rule:evenodd;fill:#2360A5;" points="64.965,97.145 184.135,97.145 184.135,99.029	64.965,99.029 64.965,97.145	"/><path style="fill-rule:evenodd;clip-rule:evenodd;fill:#2360A5;" d="M70.387,104.57c-0.943-0.943-1.886-1.178-2.593-1.178	c-1.061,0-1.768,0.588-1.768,1.295c0,2.123,4.833,2.123,4.833,5.658c0,1.768-1.415,3.064-3.182,3.064	c-1.179,0-2.122-0.354-3.065-1.061v-2.004c0.825,1.061,1.886,1.533,2.947,1.533c1.179,0,1.768-0.707,1.768-1.297	c0-2.357-4.833-2.594-4.833-5.658c0-1.768,1.414-2.947,3.418-2.947c0.825,0,1.65,0.236,2.476,0.826V104.57L70.387,104.57z"/><path style="fill-rule:evenodd;clip-rule:evenodd;fill:#2360A5;" d="M77.931,107.871c-0.825-0.59-1.415-0.707-2.122-0.707	c-1.296,0-2.122,0.943-2.122,2.357c0,1.531,0.943,2.475,2.475,2.475c0.59,0,1.179-0.117,1.886-0.471v1.414	c-0.472,0.236-1.415,0.471-2.24,0.471c-2.122,0-3.654-1.531-3.654-3.654c0-2.475,1.415-4.008,3.654-4.008	c0.825,0,1.415,0.236,2.122,0.473V107.871L77.931,107.871z"/><path style="fill-rule:evenodd;clip-rule:evenodd;fill:#2360A5;" d="M81.231,106.928L81.231,106.928	c0.589-0.707,1.415-1.18,2.24-1.18c1.414,0,2.475,0.943,2.475,2.947v4.48h-1.533v-4.48c0-1.061-0.471-1.768-1.414-1.768	c-0.589,0-1.061,0.236-1.768,1.061v5.188h-1.415v-11.08h1.415V106.928L81.231,106.928z"/><path style="fill-rule:evenodd;clip-rule:evenodd;fill:#2360A5;" d="M89.482,106.928L89.482,106.928	c0.589-0.707,1.415-1.18,2.24-1.18c1.296,0,2.475,0.943,2.475,2.947v4.48h-1.415v-4.48c0-1.061-0.589-1.768-1.532-1.768	c-0.589,0-1.061,0.236-1.768,1.061v5.188h-1.415v-7.309h1.415V106.928L89.482,106.928z"/><path style="fill-rule:evenodd;clip-rule:evenodd;fill:#2360A5;" d="M97.498,108.814c0.117-1.18,0.824-1.77,1.887-1.77	c1.061,0,1.648,0.707,1.768,1.77H97.498L97.498,108.814z M102.449,111.053c-0.826,0.59-1.65,0.943-2.594,0.943	c-1.414,0-2.24-0.824-2.475-2.24h5.186c0-2.711-1.178-4.008-3.182-4.008s-3.419,1.533-3.419,3.773c0,2.004,1.296,3.889,3.537,3.889	c1.297,0,2.004-0.354,2.947-0.943V111.053L102.449,111.053z"/><path style="fill-rule:evenodd;clip-rule:evenodd;fill:#2360A5;" d="M104.334,105.867h1.414v7.309h-1.414V105.867L104.334,105.867z M105.041,104.57c-0.471,0-0.824-0.354-0.824-0.824c0-0.473,0.354-0.943,0.824-0.943c0.473,0,0.826,0.471,0.826,0.943	C105.867,104.217,105.514,104.57,105.041,104.57L105.041,104.57z"/><path style="fill-rule:evenodd;clip-rule:evenodd;fill:#2360A5;" d="M112.822,111.996h-1.416c-1.65,0-2.238-1.061-2.238-2.357	c0-1.531,0.941-2.594,2.357-2.594c0.471,0,0.824,0.119,1.297,0.354V111.996L112.822,111.996z M114.354,102.096h-1.531v4.008	c-0.59-0.236-1.062-0.355-1.533-0.355c-2.121,0-3.537,1.533-3.537,3.654c0,2.357,1.297,3.773,3.537,3.773h3.064V102.096	L114.354,102.096z"/><path style="fill-rule:evenodd;clip-rule:evenodd;fill:#2360A5;" d="M117.537,108.814c0.234-1.18,0.941-1.77,2.002-1.77	c1.062,0,1.65,0.707,1.65,1.77H117.537L117.537,108.814z M122.486,111.053c-0.824,0.59-1.65,0.943-2.475,0.943	c-1.414,0-2.24-0.824-2.475-2.24h5.068c0-2.711-1.18-4.008-3.066-4.008c-2.002,0-3.418,1.533-3.418,3.773	c0,2.004,1.18,3.889,3.537,3.889c1.178,0,2.004-0.354,2.828-0.943V111.053L122.486,111.053z"/><path style="fill-rule:evenodd;clip-rule:evenodd;fill:#2360A5;" d="M125.904,105.867v1.768l0,0	c0.826-1.297,1.533-1.887,2.123-1.887s1.178,0.355,1.768,0.826l-0.707,1.297c-0.471-0.473-1.061-0.707-1.414-0.707	c-0.943,0-1.77,0.943-1.77,2.238v3.773h-1.414v-7.309H125.904L125.904,105.867z"/><polygon style="fill-rule:evenodd;clip-rule:evenodd;fill:#2360A5;" points="142.172,103.51 137.457,103.51 137.457,106.928	141.936,106.928 141.936,108.342 137.457,108.342 137.457,111.76 142.289,111.76 142.289,113.176 135.807,113.176 135.807,102.096	142.172,102.096 142.172,103.51	"/><polygon style="fill-rule:evenodd;clip-rule:evenodd;fill:#2360A5;" points="143.939,102.096 145.354,102.096 145.354,113.176	143.939,113.176 143.939,102.096	"/><path style="fill-rule:evenodd;clip-rule:evenodd;fill:#2360A5;" d="M148.773,108.814c0.234-1.18,0.824-1.77,2.004-1.77	c0.941,0,1.648,0.707,1.648,1.77H148.773L148.773,108.814z M153.723,111.053c-0.824,0.59-1.65,0.943-2.594,0.943	c-1.295,0-2.121-0.824-2.355-2.24h5.068c0-2.711-1.18-4.008-3.184-4.008s-3.418,1.533-3.418,3.773c0,2.004,1.297,3.889,3.537,3.889	c1.295,0,2.121-0.354,2.945-0.943V111.053L153.723,111.053z"/><path style="fill-rule:evenodd;clip-rule:evenodd;fill:#2360A5;" d="M160.914,107.871c-0.826-0.59-1.416-0.707-2.004-0.707	c-1.297,0-2.24,0.943-2.24,2.357c0,1.531,1.061,2.475,2.475,2.475c0.59,0,1.18-0.117,2.004-0.471v1.414	c-0.588,0.236-1.414,0.471-2.238,0.471c-2.123,0-3.654-1.531-3.654-3.654c0-2.475,1.414-4.008,3.535-4.008	c0.826,0,1.416,0.236,2.123,0.473V107.871L160.914,107.871z"/><path style="fill-rule:evenodd;clip-rule:evenodd;fill:#2360A5;" d="M164.568,105.867h2.238v1.297h-2.238v3.771	c0,0.824,0.588,1.178,1.061,1.178c0.471,0,1.061-0.234,1.531-0.588v1.297c-0.471,0.354-1.178,0.588-1.65,0.588	c-1.65,0-2.357-1.061-2.357-2.357v-3.889h-1.297v-0.119l2.713-2.592V105.867L164.568,105.867z"/><path style="fill-rule:evenodd;clip-rule:evenodd;fill:#2360A5;" d="M169.99,105.867v1.768l0,0	c0.707-1.297,1.414-1.887,2.121-1.887c0.59,0,1.178,0.355,1.768,0.826l-0.824,1.297c-0.473-0.473-0.943-0.707-1.297-0.707	c-1.061,0-1.768,0.943-1.768,2.238v3.773h-1.416v-7.309H169.99L169.99,105.867z"/><path style="fill-rule:evenodd;clip-rule:evenodd;fill:#2360A5;" d="M175.059,105.867h1.414v7.309h-1.414V105.867L175.059,105.867z M175.766,104.57c-0.473,0-0.826-0.354-0.826-0.824c0-0.473,0.354-0.943,0.826-0.943c0.471,0,0.824,0.471,0.824,0.943	C176.59,104.217,176.236,104.57,175.766,104.57L175.766,104.57z"/><path style="fill-rule:evenodd;clip-rule:evenodd;fill:#2360A5;" d="M184.135,107.871c-0.826-0.59-1.416-0.707-2.123-0.707	c-1.295,0-2.121,0.943-2.121,2.357c0,1.531,0.943,2.475,2.477,2.475c0.588,0,1.178-0.117,1.885-0.471v1.414	c-0.471,0.236-1.414,0.471-2.24,0.471c-2.121,0-3.652-1.531-3.652-3.654c0-2.475,1.414-4.008,3.652-4.008	c0.826,0,1.416,0.236,2.123,0.473V107.871L184.135,107.871z"/><path style="fill-rule:evenodd;clip-rule:evenodd;fill:#2360A5;" d="M75.456,82.057c0,0,2.357-0.118,2.711,0.943	c0,0,0.118,0.118,0.59,1.532v1.179h-2.476c0-1.296-0.472-1.768-1.768-1.768c-1.65-0.118-4.479-0.118-5.776,0	c-0.825,0-1.296,0.589-1.296,1.533c0,1.414,0.943,1.414,2.711,1.414h5.422c2.593,0,3.3,1.061,3.3,2.24v2.004	c0,2.122-2.357,2.593-3.89,2.593c-1.296,0-4.007-0.118-6.247,0c-2.004,0.118-3.654-0.707-3.654-1.886	c-0.118-0.59-0.236-2.122-0.118-2.24h2.239c0,2.24,0.589,2.24,3.064,2.24h4.597c1.532,0,1.532-1.062,1.532-1.533	c0-1.179-0.471-1.532-1.061-1.532c-5.304-0.118-2.476,0-6.601,0c-1.65,0-3.771-0.589-3.771-2.357v-2.004	c0-1.768,1.65-2.357,3.064-2.357C68.973,81.939,70.151,82.057,75.456,82.057L75.456,82.057z"/><path style="fill-rule:evenodd;clip-rule:evenodd;fill:#2360A5;" d="M91.486,82.057c3.182,0,3.89,1.179,3.89,3.418	c0,0.471,0,5.422,0,5.422c0.118,0,1.297,0.825,1.297,0.825s-1.061,1.768-1.415,1.768c0,0-0.943-0.589-0.943-0.471	c0,0-1.296,0.589-2.122,0.589c-3.182,0.118-4.243,0.118-7.897,0c-3.301,0-4.244-1.179-4.361-2.829c0-2.003,0-4.833,0-5.068	c-0.118-2.946,1.061-3.654,3.418-3.654H91.486L91.486,82.057z M82.292,86.182l0.118,3.3c0,1.886-0.118,2.122,2.357,2.122h6.955	v-0.118l-3.654-2.357c-0.118-0.118,1.061-1.768,1.179-1.768c0.236,0,3.772,2.357,3.772,2.24c0,0.236,0-2.947,0-3.065	c-0.118-2.239-0.354-2.357-2.24-2.475h-6.247C82.174,83.942,82.292,84.296,82.292,86.182L82.292,86.182z"/><path style="fill-rule:evenodd;clip-rule:evenodd;fill:#2360A5;" d="M99.619,82.057v7.897c0,1.65,1.061,1.887,1.887,1.887h6.012	c1.65,0,1.531-2.358,1.65-2.24v-7.426h2.357v7.544c0,2.947-0.707,4.008-3.301,4.008h-7.898c-1.768,0-3.299-1.297-3.299-3.3v-8.369	H99.619L99.619,82.057z"/><path style="fill-rule:evenodd;clip-rule:evenodd;fill:#2360A5;" d="M118.244,82.057h2.828l7.191,11.551	c-0.119-0.118-3.066,0.118-3.066,0c-0.117,0-1.65-2.475-1.768-2.475h-7.426c0-0.118-1.533,2.475-1.533,2.475l-2.828-0.118	L118.244,82.057L118.244,82.057z M117.184,89.011h5.186c-0.236-0.354-2.594-4.125-2.711-4.244	C119.305,85.122,117.184,88.893,117.184,89.011L117.184,89.011z"/><polygon style="fill-rule:evenodd;clip-rule:evenodd;fill:#2360A5;" points="144.059,82.057 156.316,82.057 156.316,84.061	146.414,84.061 146.414,86.536 155.844,86.536 155.844,88.657 146.414,88.657 146.414,91.486 156.199,91.486 156.199,93.608	144.059,93.608 144.059,82.057	"/><path style="fill-rule:evenodd;clip-rule:evenodd;fill:#2360A5;" d="M179.066,82.174c4.361,0,4.949,1.886,5.068,3.772	c0.117,1.768,0.117,2.711,0,4.479c0,2.003-1.533,2.946-3.418,3.182c0,0-13.557,0.118-13.557,0c0,0,0.119-2.122,0-2.122	c0,0.118,2.123,0,2.004,0c0.119,0.236,0.119-7.426,0-7.308c0.119,0-1.885,0-1.885,0v-2.004H179.066L179.066,82.174z M171.758,84.296c-0.119,0-0.119,7.19,0,7.19c-0.119,0,7.779,0.118,7.779,0c0.117-0.118,2.357,0.236,2.357-1.886v-3.183	c0-0.825-0.236-2.476-2.24-2.122C179.537,84.296,171.639,84.296,171.758,84.296L171.758,84.296z"/><path style="fill-rule:evenodd;clip-rule:evenodd;fill:#2360A5;" d="M128.734,82.057h11.434c0.59,0,2.357,0.825,2.357,2.947V86.3	c0,0.942-0.354,1.532-1.18,2.239c0.236,0.354,0.943,0.825,0.943,0.707c0,0,0,2.711,0,4.361h-2.24v-2.947	c0-0.589-0.471-1.296-1.414-1.296h-7.543v4.125c-0.117,0-1.768,0-2.357,0V82.057L128.734,82.057z M131.209,84.061v3.3h8.488	c0.234-0.354,0.352-0.472,0.352-0.707v-1.297c0-0.825-0.471-1.296-1.295-1.296H131.209L131.209,84.061z"/></g></svg>