<?xml version="1.0" encoding="utf-8"?>
<!-- Generator: Adobe Illustrator 18.1.1, SVG Export Plug-In . SVG Version: 6.00 Build 0)  -->
<svg version="1.1" id="Layer_1" xmlns="http://www.w3.org/2000/svg" xmlns:xlink="http://www.w3.org/1999/xlink" x="0px" y="0px"
	 viewBox="-153 154.2 512 512" enable-background="new -153 154.2 512 512" xml:space="preserve">
<g>
	<polygon fill="#FFFFFF" points="-153,154.2 359,154.2 359,666.2 -153,666.2 	"/>
	<polygon fill="#C83047" points="-130.4,342.6 317.2,296 336.4,477.8 -111.2,524.5 	"/>
	<path fill="#FFFFFF" d="M134.9,432l-5.6-54c-0.8-7.4,4.9-14.1,12.6-14.9c7.7-0.8,14.3,4.1,15.6,11.8l6.1,22.3l-12.3,4.4l-7.7-25.1
		l-0.5,0.3l5.1,48.4l33.5-3.6l1.5,13.6l-38.9,4.1c0,0-0.5,0-1.3,0.3C139,439.7,135.1,435.9,134.9,432L134.9,432z M-75.6,411.5
		c-0.8-1-1-2-1.3-3.6c-0.8-6.7,5.6-9.5,11-10c12.3-1.5,14.3,6.1,15.1,9.5l13.6-1.5c-1-9-8.2-23-28.9-20.7
		c-22.3,2.3-24.8,17.2-23.8,25.1c0,0.5,0,0.8,0,1.3c2,15.1,12.8,16.4,23.8,17.9l7.4,1.3c7.4,1,12.8,2,13.3,7.7
		c0.8,7.7-6.4,10.2-13.3,11c-12.3,1.3-15.1-6.4-15.6-10.2l-13.6,1.3c1,9.2,6.9,24.1,31.8,21.5c5.9-0.8,26.6-4.9,24.3-26.9
		c-1.5-13.1-10.5-16.4-20-17.7l-17.2-2.8C-71,414.3-74.1,413.8-75.6,411.5L-75.6,411.5z M-9.5,455.1l14.1-1.5l-6.1-60.2l20.5-2
		l-1.3-13.1l-55.6,5.9l1.5,12.8l20.5-2L-9.5,455.1L-9.5,455.1z M11.7,452.8l15.1-1.5l3.1-15.6L55,433l5.9,14.6l15.6-1.5l-31.8-70.7
		l-16.4,1.8L11.7,452.8L11.7,452.8z M49.6,420.7l-17.2,1.8l5.6-29.7l0,0L49.6,420.7L49.6,420.7z M80.1,445.6l14.1-1.5l-2.8-26.4
		l16.4-1.5c5.1-0.5,9-2.3,11.8-4.6c7.4-6.1,8.2-16.4,7.7-21c-1.5-14.3-10.5-22.5-23.8-21.3l-31,3.3L80.1,445.6L80.1,445.6z
		 M186.4,434.6l52-5.6l-1.5-12.8l-37.6,3.8l-2-18.7l33.3-3.6l-1.5-13.1l-33.3,3.6l-1.5-15.4l36.1-3.8l-1.3-12.8l-50.2,5.1
		L186.4,434.6L186.4,434.6z M241.4,411.5c2.6,8.5,10.2,18.2,30.7,15.9c4.9-0.5,19.2-3.3,23.3-15.9c1-3.1,1.5-6.7,1-10.8
		c-1.3-13.1-10.5-16.4-20-17.9l-17.2-2.6c-2.8-0.5-7.4-1-7.9-6.9c-0.8-6.7,5.6-9.5,11-10c12.3-1.3,14.3,6.4,15.1,9.5l13.6-1.3
		c-1-9-8.2-23-28.9-21c-22.3,2.6-24.8,17.2-23.8,25.4c1.5,16.1,12.6,17.7,23.8,19.2l7.4,1c7.4,1,12.8,2,13.3,7.9
		c0.5,3.3-0.8,5.6-2.8,7.4c-2.8,2-6.7,3.1-10.2,3.3c-6.7,0.8-10.5-1-12.8-3.3c-2-2.3-2.8-4.9-3.1-6.9l-13.6,1.5
		C240.6,407.7,240.9,409.5,241.4,411.5L241.4,411.5z M90.1,405.1l-2.3-21.5l11.5-1c8.7-1,12.8,1.5,13.6,8.7c0.3,3.3,1,11.3-9.5,12.5
		L90.1,405.1L90.1,405.1z"/>
	<path fill="#FFFFFF" d="M295.2,348.6c1-0.1,2,0.1,3,0.6c1,0.4,1.8,1.1,2.4,2c0.6,0.9,0.9,1.9,1,2.9c0.1,1-0.1,2-0.6,3
		c-0.5,1-1.1,1.8-2,2.4c-0.9,0.6-1.9,0.9-2.9,1c-1,0.1-2-0.1-3-0.6c-1-0.5-1.8-1.1-2.4-2c-0.6-0.9-0.9-1.9-1-2.9
		c-0.1-1,0.1-2.1,0.6-3c0.5-1,1.2-1.8,2.1-2.4C293.2,349,294.2,348.7,295.2,348.6L295.2,348.6z M295.3,349.6
		c-0.8,0.1-1.6,0.3-2.4,0.8c-0.8,0.5-1.3,1.1-1.7,2c-0.4,0.8-0.5,1.7-0.5,2.5c0.1,0.9,0.3,1.7,0.8,2.4c0.5,0.8,1.2,1.3,2,1.7
		c0.8,0.4,1.7,0.5,2.5,0.5c0.9-0.1,1.7-0.3,2.4-0.8c0.8-0.5,1.3-1.2,1.7-2c0.4-0.8,0.5-1.7,0.5-2.5c-0.1-0.9-0.3-1.7-0.8-2.4
		c-0.5-0.8-1.2-1.3-2-1.7C296.9,349.7,296.1,349.5,295.3,349.6L295.3,349.6z M293.2,358l-0.5-6.4l2.2-0.2c0.8-0.1,1.3,0,1.6,0.1
		c0.3,0.1,0.6,0.3,0.8,0.6c0.2,0.3,0.3,0.6,0.4,0.9c0,0.5-0.1,0.9-0.4,1.3c-0.3,0.4-0.7,0.6-1.3,0.7c0.2,0.1,0.4,0.2,0.6,0.3
		c0.3,0.2,0.6,0.6,1,1.2l0.9,1.2l-1.3,0.1l-0.6-1c-0.5-0.8-0.9-1.2-1.2-1.4c-0.2-0.1-0.5-0.2-0.8-0.2l-0.6,0l0.2,2.7L293.2,358
		L293.2,358z M294,354.4l1.3-0.1c0.6,0,1-0.2,1.2-0.4c0.2-0.2,0.3-0.4,0.3-0.7c0-0.2-0.1-0.4-0.2-0.5c-0.1-0.1-0.3-0.2-0.5-0.3
		c-0.2-0.1-0.5-0.1-1,0l-1.2,0.1L294,354.4L294,354.4z"/>
</g>
</svg>
