<?xml version="1.0" encoding="iso-8859-1"?><!-- Generator: Adobe Illustrator 16.0.0, SVG Export Plug-In . SVG Version: 6.00 Build 0) --><!DOCTYPE svg PUBLIC "-//W3C//DTD SVG 1.1//EN" "http://www.w3.org/Graphics/SVG/1.1/DTD/svg11.dtd"><svg version="1.1" id="Layer_1" xmlns="http://www.w3.org/2000/svg" xmlns:xlink="http://www.w3.org/1999/xlink" x="0px" y="0px" width="192.756px" height="192.756px" viewBox="0 0 192.756 192.756" style="enable-background:new 0 0 192.756 192.756;" xml:space="preserve"><g><polygon style="fill-rule:evenodd;clip-rule:evenodd;fill:#FFFFFF;" points="0,0 192.756,0 192.756,192.756 0,192.756 0,0	"/><polygon style="fill-rule:evenodd;clip-rule:evenodd;fill:#C83047;" points="8.504,70.927 177.021,53.381 184.252,121.83	15.734,139.375 8.504,70.927	"/><path style="fill-rule:evenodd;clip-rule:evenodd;fill:#FFFFFF;" d="M108.381,104.572l-2.121-20.341	c-0.289-2.796,1.832-5.302,4.725-5.592c2.891-0.289,5.398,1.542,5.881,4.435l2.312,8.388l-4.627,1.639l-2.893-9.447l-0.193,0.096	l1.93,18.222l12.629-1.352l0.578,5.111l-14.654,1.541c0,0-0.191,0-0.482,0.098C109.924,107.465,108.477,106.02,108.381,104.572	L108.381,104.572z M29.135,96.859c-0.289-0.385-0.385-0.771-0.482-1.349c-0.289-2.506,2.121-3.567,4.146-3.76	c4.627-0.578,5.398,2.314,5.688,3.567l5.109-0.579c-0.385-3.375-3.085-8.677-10.894-7.809c-8.387,0.868-9.351,6.459-8.965,9.448	c0,0.192,0,0.29,0,0.481c0.771,5.689,4.82,6.17,8.965,6.75l2.796,0.48c2.796,0.387,4.82,0.771,5.013,2.893	c0.289,2.893-2.41,3.857-5.013,4.146c-4.627,0.482-5.688-2.41-5.881-3.857l-5.109,0.482c0.386,3.471,2.603,9.062,11.955,8.098	c2.217-0.289,10.026-1.832,9.158-10.121c-0.579-4.918-3.953-6.172-7.52-6.652l-6.459-1.061	C30.87,97.92,29.713,97.729,29.135,96.859L29.135,96.859z M54.008,113.25l5.302-0.58l-2.313-22.655l7.712-0.771l-0.482-4.917	l-20.92,2.217l0.578,4.82l7.712-0.771L54.008,113.25L54.008,113.25z M62.009,112.381l5.688-0.578l1.157-5.881l9.448-0.963	l2.217,5.494l5.881-0.578L74.446,83.267l-6.17,0.675L62.009,112.381L62.009,112.381z M76.277,100.33l-6.459,0.676l2.121-11.184l0,0	L76.277,100.33L76.277,100.33z M87.75,109.682l5.303-0.578l-1.061-9.93l6.17-0.578c1.928-0.193,3.373-0.867,4.434-1.736	c2.797-2.313,3.086-6.169,2.893-7.905c-0.578-5.398-3.953-8.483-8.966-8.001l-11.665,1.253L87.75,109.682L87.75,109.682z M127.758,105.537l19.57-2.121l-0.578-4.82l-14.172,1.445l-0.771-7.037l12.533-1.35l-0.578-4.917l-12.533,1.35l-0.578-5.784	l13.594-1.446l-0.482-4.82l-18.896,1.928L127.758,105.537L127.758,105.537z M148.486,96.859c0.963,3.182,3.855,6.846,11.568,5.979	c1.832-0.193,7.23-1.254,8.771-5.979c0.387-1.156,0.58-2.506,0.387-4.048c-0.482-4.917-3.953-6.17-7.52-6.749l-6.459-0.964	c-1.061-0.193-2.797-0.386-2.988-2.603c-0.289-2.507,2.119-3.567,4.145-3.76c4.627-0.482,5.398,2.41,5.688,3.567l5.109-0.482	c-0.385-3.374-3.084-8.677-10.893-7.905c-8.389,0.964-9.352,6.459-8.967,9.544c0.578,6.074,4.725,6.652,8.967,7.23l2.795,0.386	c2.797,0.386,4.82,0.771,5.014,2.989c0.193,1.253-0.289,2.121-1.061,2.795c-1.061,0.771-2.506,1.158-3.857,1.254	c-2.506,0.289-3.951-0.385-4.82-1.254c-0.77-0.867-1.059-1.831-1.156-2.602l-5.109,0.578	C148.195,95.414,148.293,96.089,148.486,96.859L148.486,96.859z M91.509,94.45l-0.867-8.098l4.338-0.386	c3.278-0.386,4.821,0.578,5.11,3.278c0.096,1.253,0.385,4.242-3.567,4.724L91.509,94.45L91.509,94.45z"/><path style="fill-rule:evenodd;clip-rule:evenodd;fill:#FFFFFF;" d="M168.732,73.167c0.377-0.027,0.75,0.044,1.123,0.21	c0.375,0.168,0.672,0.423,0.902,0.768c0.223,0.347,0.352,0.715,0.379,1.106c0.027,0.388-0.043,0.766-0.217,1.136	c-0.17,0.371-0.43,0.669-0.768,0.891c-0.344,0.224-0.709,0.351-1.098,0.377c-0.389,0.028-0.768-0.043-1.137-0.216	c-0.371-0.17-0.668-0.427-0.891-0.771c-0.227-0.342-0.352-0.707-0.379-1.094c-0.029-0.39,0.045-0.772,0.219-1.147	c0.176-0.375,0.436-0.671,0.781-0.89C167.994,73.319,168.355,73.196,168.732,73.167L168.732,73.167z M168.758,73.54	c-0.314,0.024-0.615,0.125-0.904,0.308c-0.285,0.184-0.502,0.432-0.648,0.743c-0.148,0.312-0.207,0.631-0.186,0.957	c0.023,0.325,0.129,0.627,0.314,0.911c0.188,0.288,0.436,0.501,0.746,0.645c0.309,0.146,0.627,0.204,0.947,0.182	c0.326-0.023,0.629-0.128,0.914-0.315c0.285-0.188,0.5-0.435,0.643-0.745c0.143-0.307,0.203-0.622,0.18-0.946	c-0.023-0.326-0.127-0.633-0.318-0.922c-0.189-0.286-0.439-0.5-0.75-0.641C169.383,73.575,169.072,73.518,168.758,73.54	L168.758,73.54z M168,76.724l-0.176-2.415l0.83-0.059c0.283-0.021,0.492-0.014,0.621,0.021c0.129,0.035,0.236,0.105,0.318,0.211	c0.086,0.107,0.131,0.221,0.141,0.347c0.014,0.177-0.041,0.335-0.156,0.474c-0.117,0.14-0.279,0.226-0.486,0.257	c0.088,0.028,0.16,0.067,0.213,0.113c0.107,0.088,0.236,0.241,0.395,0.456l0.328,0.449l-0.477,0.034l-0.242-0.364	c-0.189-0.286-0.338-0.465-0.447-0.532c-0.076-0.051-0.182-0.072-0.318-0.062l-0.229,0.018l0.074,1.025L168,76.724L168,76.724z M168.291,75.338l0.473-0.034c0.225-0.016,0.377-0.062,0.453-0.135c0.078-0.074,0.113-0.166,0.105-0.278	c-0.004-0.072-0.029-0.132-0.074-0.188c-0.043-0.052-0.1-0.091-0.174-0.112c-0.072-0.025-0.203-0.028-0.395-0.016l-0.443,0.033	L168.291,75.338L168.291,75.338z"/></g></svg>