<?xml version="1.0" encoding="iso-8859-1"?><!-- Generator: Adobe Illustrator 16.0.0, SVG Export Plug-In . SVG Version: 6.00 Build 0) --><!DOCTYPE svg PUBLIC "-//W3C//DTD SVG 1.1//EN" "http://www.w3.org/Graphics/SVG/1.1/DTD/svg11.dtd"><svg version="1.1" id="Layer_1" xmlns="http://www.w3.org/2000/svg" xmlns:xlink="http://www.w3.org/1999/xlink" x="0px" y="0px" width="192.756px" height="192.756px" viewBox="0 0 192.756 192.756" style="enable-background:new 0 0 192.756 192.756;" xml:space="preserve"><g><polygon style="fill-rule:evenodd;clip-rule:evenodd;fill:#FFFFFF;" points="0,0 192.756,0 192.756,192.756 0,192.756 0,0	"/><path style="fill-rule:evenodd;clip-rule:evenodd;" d="M5.669,81.215v12.65c0,0,32.702,0,37.003,0s9.796-3.977,9.796-10.556	c0-2.646,1.012-4.372-2.098-7.872l-4.733-5.608c-2.712-2.53,0.324-2.53,2.602-2.53c1.265,0,15.623,0,15.623,0v26.566h12.39V67.299	h16.699V55.922H38.877c-6.579,0-9.796,6.317-9.615,9.606c0.182,3.289,0.787,7.427,6.254,12.398	c4.987,4.533-2.469,3.289-3.218,3.289C28.503,81.215,5.669,81.215,5.669,81.215L5.669,81.215z"/><path style="fill-rule:evenodd;clip-rule:evenodd;" d="M120.348,55.922h-19.988L89.155,93.866h12.47l2.023-5.313h13.156	l1.953,5.313h12.215L120.348,55.922L120.348,55.922z M106.432,79.444l4.301-13.916l4.049,13.916H106.432L106.432,79.444z"/><path style="fill-rule:evenodd;clip-rule:evenodd;" d="M170.443,81.215c-4.807,0-4.807-1.771-4.807-1.771	c4.119,0,7.771-6.001,7.771-12.145s-6-11.377-10.809-11.377c-4.807,0-26.891,0-26.891,0v37.944h13.664v-12.65	c0,0,5.818,6.831,8.854,9.614c3.037,2.783,3.289,3.036,7.41,3.036c4.119,0,21.449,0,21.449,0v-12.65	C187.086,81.215,175.25,81.215,170.443,81.215L170.443,81.215z M158.045,72.36c-3.471,0-8.672,0-8.672,0v-6.832	c0,0,5.889,0,8.672,0C162.021,65.528,162.709,72.36,158.045,72.36L158.045,72.36z"/><polygon style="fill-rule:evenodd;clip-rule:evenodd;" points="5.669,98.672 19.648,98.672 23.19,111.324 26.479,98.672	41.154,98.672 44.949,111.324 48.745,98.672 60.889,98.672 49.756,136.625 38.624,136.625 33.746,118.66 28.25,136.625	16.865,136.625 5.669,98.672	"/><path style="fill-rule:evenodd;clip-rule:evenodd;" d="M89.578,98.891H69.59l-11.204,37.943h12.469l2.024-5.312h13.157l1.953,5.312	h12.216L89.578,98.891L89.578,98.891z M75.663,122.412l4.301-13.916l4.048,13.916H75.663L75.663,122.412z"/><path style="fill-rule:evenodd;clip-rule:evenodd;" d="M170.695,110.059c-2.275,0-4.756,0.266-2.043,2.795l4.734,5.609	c3.109,3.5,3.059,4.959,3.059,7.607c0,6.578-6.508,10.555-10.809,10.555l-29.896,0.201c-4.119,0-4.371-0.252-7.408-3.035	c-3.035-2.783-8.855-9.615-8.855-9.615v12.65h-13.662V98.883c0,0,22.084,0,26.891,0s10.809,5.234,10.809,11.377	c0,6.145-3.652,12.145-7.773,12.145c0,0,1.812,1.822,4.848,1.822c3.037,0,14.727,0.012,14.727,0.012	c0.748,0,8.203,1.244,3.217-3.289c-5.467-4.971-6.072-9.107-6.254-12.396s2.662-9.881,9.238-9.881h25.57v11.387H170.695	L170.695,110.059z M128.15,115.32c-3.471,0-8.674,0-8.674,0v-6.832c0,0,5.891,0,8.674,0	C132.127,108.488,132.814,115.32,128.15,115.32L128.15,115.32z"/></g></svg>