<?xml version="1.0" encoding="utf-8"?>
<!-- Generator: Adobe Illustrator 16.0.0, SVG Export Plug-In . SVG Version: 6.00 Build 0)  -->
<!DOCTYPE svg PUBLIC "-//W3C//DTD SVG 1.1//EN" "http://www.w3.org/Graphics/SVG/1.1/DTD/svg11.dtd">
<svg version="1.1" id="Layer_1" xmlns="http://www.w3.org/2000/svg" xmlns:xlink="http://www.w3.org/1999/xlink" x="0px" y="0px"
	 width="3499.2px" height="643.44px" viewBox="0 0 3499.2 643.44" enable-background="new 0 0 3499.2 643.44" xml:space="preserve">
<path fill-rule="evenodd" clip-rule="evenodd" fill="#2C659D" d="M604.179,555.076c-31.339,11.989-61.973,15.34-67.495,8.052
	l-0.159,0.064c-76.887-66.124-177.935-106.975-275.703-106.975c-95.765,0-163.315,40.256-207.419,105.096h-0.218
	c-0.625,1.796-5.461,3.694-10.784,3.694c-5.945,0-10.655-1.208-10.655-4.02c0-0.175,0.019-0.35,0.055-0.521
	c-0.006-0.092,0.006-0.175,0.043-0.255c52.453-113.815,149.333-186.833,289.123-186.833c118.491,0,245.967,54.403,337.626,140.345
	l-0.153,0.061c0.853,0.642,1.457,1.401,1.772,2.291C663.276,524.669,639.029,541.742,604.179,555.076z"/>
<path fill-rule="evenodd" clip-rule="evenodd" fill="#5697D1" d="M540.177,411.263c-0.829-0.475-8.775-4.373-14.034-7.021
	c-9.56-4.812-23.213-10.455-40.333-16.856c-2.128-0.804-4.262-1.593-6.396-2.367c-3.748-1.375-7.647-2.783-11.686-4.222
	c-24.422-8.702-52.731-15.992-84.828-20.402c-5.435-0.747-11.83-1.43-18.821-2.004c-13.272-1.303-26.496-1.971-39.607-1.971
	c-6.604,0-13.112,0.163-19.525,0.486c-6.529,0.242-12.837,0.641-18.698,1.236c-37.888,3.845-59.414,11.189-65.876,13.444
	c-3.938,1.372-8.3,0.695-8.82-2.808c-0.955-6.469,1.491-20.689,2.657-29.464c5.111-38.447,7.544-81.424-4.842-126.182
	c-12.383-44.758-43.603-86.723-52.242-99.977c-9.545-14.647-2.98-19.746,8.04-21.811c48.183-9.028,149.665,17.776,200.37,41.164
	c60.233,27.78,172.479,116.598,181.05,268.855C547.135,411.079,544.856,413.932,540.177,411.263z"/>
<path fill="#565555" d="M981.623,494.909c-39.933,0-77.111-4.59-111.536-13.77v-39.014c34.424,12.242,71.603,18.359,111.536,18.359
	c56.457,0,84.685-20.654,84.685-61.963c0-35.188-20.809-52.783-62.424-52.783h-42.228c-68.699,0-103.044-29.834-103.044-89.502
	c0-62.727,43.985-94.092,131.961-94.092c38.247,0,73.819,4.59,106.717,13.77v39.014c-32.897-12.239-68.47-18.36-106.717-18.36
	c-59.669,0-89.504,19.891-89.504,59.668c0,35.191,20.196,52.783,60.587,52.783h42.228c69.918,0,104.881,29.834,104.881,89.502
	C1108.765,462.78,1066.383,494.909,981.623,494.909L981.623,494.909z M1173.202,212.633h26.622l9.18,39.014h65.177v34.424h-58.522
	v138.384c0,22.49,9.714,33.735,29.146,33.735h29.375v34.424h-40.392c-40.392,0-60.587-21.647-60.587-64.946V212.633z
	 M1409.731,492.614c-57.375,0-86.062-24.247-86.062-72.749c0-49.416,32.588-74.126,97.766-74.126c20.959,0,41.919,1.531,62.882,4.59
	v-22.72c0-27.69-21.652-41.538-64.948-41.538c-24.786,0-50.185,3.826-76.193,11.475v-34.424
	c26.008-7.648,51.407-11.475,76.193-11.475c71.604,0,107.405,24.939,107.405,74.814v166.152h-23.868l-14.688-23.867
	C1464.197,484.661,1438.035,492.614,1409.731,492.614L1409.731,492.614z M1484.318,384.752c-20.963-3.059-41.923-4.59-62.882-4.59
	c-36.874,0-55.309,13.006-55.309,39.014c0,26.012,14.534,39.014,43.604,39.014c29.376,0,54.237-7.803,74.587-23.408V384.752
	L1484.318,384.752z M1602.699,492.614V251.647h28.687l7.574,30.752c21.114-20.5,46.509-30.752,76.193-30.752v35.342
	c-28.766,0-52.096,10.176-69.997,30.522v175.103H1602.699z M1781.087,212.633h26.622l9.18,39.014h65.178v34.424h-58.522v138.384
	c0,22.49,9.714,33.735,29.146,33.735h29.376v34.424h-40.393c-40.391,0-60.587-21.647-60.587-64.946V212.633z M2167.224,251.647
	v240.967h-29.146l-7.344-30.752c-29.226,20.504-58.601,30.752-88.127,30.752c-55.389,0-83.078-29.909-83.078-89.731V251.647h42.457
	v151.924c0,35.801,17.746,53.701,53.243,53.701c24.327,0,47.506-10.173,69.538-30.522V251.647H2167.224z M2243.101,261.515
	c31.976-6.577,65.023-9.868,99.144-9.868c77.262,0,115.896,38.174,115.896,114.517c0,84.303-38.864,126.45-116.585,126.45
	c-19.278,0-37.946-3.822-55.997-11.475v98.682h-42.458V261.515z M2285.559,443.502c16.674,8.262,35.264,12.393,55.768,12.393
	c50.03,0,75.046-30.063,75.046-90.19c0-52.475-24.865-78.716-74.587-78.716c-21.422,0-40.162,1.836-56.227,5.508V443.502z
	 M2605.182,164.439v233.624c0,63.035-37.104,94.551-111.307,94.551V458.19c45.9,0,68.85-20.041,68.85-60.127V164.439H2605.182z
	 M2791.25,492.384c-76.193,0-114.444-40.082-114.749-120.254c0-80.322,38.247-120.483,114.749-120.483
	c76.498,0,114.749,40.161,114.749,120.483C2905.999,452.302,2867.748,492.384,2791.25,492.384L2791.25,492.384z M2718.958,371.212
	c0,57.986,24.097,86.978,72.292,86.978c48.194,0,72.292-28.991,72.292-86.978c0-56.76-24.098-85.142-72.292-85.142
	C2743.055,286.071,2718.958,314.453,2718.958,371.212L2718.958,371.212z M2970.428,164.44h42.457v98.682
	c18.205-7.648,37.713-11.475,58.521-11.475c76.193,0,114.29,38.555,114.29,115.664c0,83.535-40.011,125.303-120.027,125.303
	c-34.579,0-66.325-3.288-95.241-9.868V164.44z M3012.885,450.617c13.92,4.439,30.828,6.655,50.719,6.655
	c53.549,0,80.324-30.522,80.324-91.567c0-51.557-24.251-77.339-72.751-77.339c-22.032,0-41.464,4.131-58.292,12.393V450.617z
	 M3333.64,492.614c-28.916,0-57.528-3.822-85.832-11.475V444.42c28.304,9.18,56.916,13.77,85.832,13.77
	c38.401,0,57.604-11.475,57.604-34.424c0-21.418-13.39-32.129-40.162-32.129h-34.425c-52.021,0-78.029-23.713-78.029-71.143
	c0-45.898,33.428-68.848,100.29-68.848c28.763,0,57.296,3.826,85.604,11.475v36.719c-28.308-9.18-56.841-13.77-85.604-13.77
	c-40.086,0-60.128,11.475-60.128,34.424c0,21.422,12.622,32.129,37.867,32.129h34.425c55.079,0,82.619,23.717,82.619,71.143
	C3433.701,469.665,3400.345,492.614,3333.64,492.614L3333.64,492.614z"/>
</svg>
