<?xml version="1.0" encoding="utf-8"?>
<!-- Generator: Adobe Illustrator 16.0.0, SVG Export Plug-In . SVG Version: 6.00 Build 0)  -->
<!DOCTYPE svg PUBLIC "-//W3C//DTD SVG 1.1//EN" "http://www.w3.org/Graphics/SVG/1.1/DTD/svg11.dtd">
<svg version="1.1" xmlns="http://www.w3.org/2000/svg" xmlns:xlink="http://www.w3.org/1999/xlink" x="0px" y="0px"
	 width="3075.097px" height="451.128px" viewBox="0 0 3075.097 451.128" enable-background="new 0 0 3075.097 451.128"
	 xml:space="preserve">
<g id="Laag_2">
	<g>
		<g>
			<path fill="#33a0d3" d="M384.851,292.439h-0.062c0.471-1.189,0.884-2.414,1.22-3.681c4.633-17.463-5.766-35.382-23.23-40.013
				c-2.803-0.744-5.616-1.096-8.386-1.098v-0.011H222.077l71.765,71.789h60.551v-0.014h18.909L384.851,292.439z M497.049,273.042
				c13.3-50.136-16.549-101.562-66.676-114.865c-7.786-2.066-15.603-3.089-23.303-3.158v-0.006H129.704l71.779,71.873h165.817
				c3.475,0.108,6.989,0.59,10.491,1.52c24.824,6.588,39.607,32.06,33.026,56.891c-0.132,0.495-0.305,0.967-0.452,1.455l0.057,0.017
				l-0.22,0.505c-0.502,1.61-1.078,3.178-1.729,4.698l-0.006,0.041l-5.559,13.004l-31.731,74.235h81.536l39.382-92.132
				C494.084,282.633,495.751,277.937,497.049,273.042z M499.205,68.902c-13.157-3.491-26.367-5.168-39.368-5.199v-0.007H38.197
				l71.044,71.065h309.13v0.164c9.097,0.002,18.343,1.155,27.548,3.599c57.28,15.199,91.388,73.966,76.195,131.25
				c-1.271,4.794-2.863,9.416-4.719,13.869l0.013,0.044l-0.895,2.109l-39.821,93.456h82.327l41.708-97.893
				c0.519-1.165,1.013-2.345,1.503-3.527l0.835-1.959h-0.022c2.302-5.766,4.294-11.724,5.926-17.876
				C630.854,175.463,581.719,90.8,499.205,68.902z"/>
		</g>
	</g>
</g>
<g id="Laag_3">
	<path fill="#3D3D3E" d="M849.988,145.794c-6.542-8.324-15.097-14.948-25.652-19.855c-10.562-4.908-20.746-7.363-30.562-7.363
		c-5.066,0-10.199,0.449-15.396,1.34c-5.203,0.893-9.893,2.605-14.054,5.131c-4.168,2.531-7.661,5.8-10.485,9.814
		c-2.831,4.015-4.237,9.148-4.237,15.396c0,5.352,1.113,9.816,3.347,13.384c2.228,3.57,5.503,6.693,9.818,9.37
		c4.307,2.678,9.434,5.132,15.388,7.363c5.948,2.229,12.643,4.539,20.082,6.915c10.705,3.57,21.862,7.515,33.466,11.823
		c11.595,4.317,22.154,10.041,31.673,17.179c9.52,7.137,17.406,15.992,23.649,26.55c6.246,10.56,9.37,23.723,9.37,39.487
		c0,18.148-3.348,33.84-10.041,47.071c-6.692,13.24-15.689,24.171-26.99,32.794c-11.312,8.633-24.25,15.025-38.821,19.188
		c-14.573,4.16-29.601,6.246-45.062,6.246c-22.61,0-44.475-3.945-65.589-11.822c-21.128-7.881-38.673-19.112-52.652-33.688
		l49.969-50.866c7.735,9.522,17.92,17.478,30.569,23.871c12.635,6.401,25.205,9.593,37.703,9.593c5.645,0,11.152-0.593,16.51-1.786
		c5.355-1.185,10.039-3.122,14.051-5.801c4.018-2.677,7.208-6.245,9.593-10.708c2.38-4.461,3.569-9.816,3.569-16.062
		c0-5.948-1.487-11.002-4.459-15.173c-2.978-4.16-7.214-7.955-12.715-11.376c-5.508-3.417-12.351-6.54-20.526-9.369
		c-8.185-2.826-17.479-5.871-27.89-9.146c-10.113-3.271-20.007-7.142-29.672-11.602c-9.669-4.462-18.293-10.185-25.877-17.178
		c-7.583-6.987-13.682-15.463-18.294-25.432c-4.611-9.964-6.918-22.086-6.918-36.365c0-17.548,3.571-32.572,10.712-45.066
		c7.142-12.494,16.509-22.753,28.108-30.785c11.605-8.033,24.688-13.903,39.269-17.626c14.564-3.716,29.296-5.577,44.17-5.577
		c17.846,0,36.065,3.277,54.66,9.816c18.584,6.545,34.872,16.216,48.856,29.003L849.988,145.794z"/>
	<path fill="#3D3D3E" d="M1076.211,128.84v250.757h-76.299V128.84h-89.237V63.696h254.768v65.144H1076.211z"/>
	<path fill="#3D3D3E" d="M1387.65,379.597l-24.541-62.02h-122.259l-23.2,62.02h-82.99l132.518-315.901h74.067l131.179,315.901
		H1387.65z M1302.87,148.024l-40.151,108.425h79.416L1302.87,148.024z"/>
	<path fill="#3D3D3E" d="M1607.168,128.84v250.757h-76.303V128.84h-89.232V63.696h254.769v65.144H1607.168z"/>
	<path fill="#3D3D3E" d="M2090.363,379.822h-75.409l-62.465-213.723h-1.337l-62.468,213.723h-75.854L1723.15,63.919h82.098
		l49.971,210.157h1.344l56.215-210.157h79.425l56.663,210.157h1.342l50.868-210.157h79.414L2090.363,379.822z"/>
	<path fill="#3D3D3E" d="M2213.062,379.822V63.919h76.742v315.903H2213.062z"/>
	<path fill="#3D3D3E" d="M2555.733,379.822l-127.165-206.584h-1.339l1.786,206.584h-74.069V63.919h87.007l126.721,206.141h1.335
		l-1.785-206.141h74.068v315.903H2555.733z"/>
	<path fill="#3D3D3E" d="M2933.871,380.266c-20.681,5.057-43.212,7.586-67.603,7.586c-25.281,0-48.564-4.016-69.824-12.046
		c-21.272-8.031-39.566-19.333-54.883-33.912c-15.323-14.568-27.294-32.047-35.919-52.427c-8.63-20.37-12.939-43.055-12.939-68.043
		c0-25.278,4.388-48.187,13.165-68.712c8.769-20.525,20.895-37.996,36.364-52.427c15.463-14.423,33.611-25.501,54.437-33.243
		c20.815-7.731,43.275-11.6,67.374-11.6c24.982,0,48.186,3.794,69.604,11.38c21.416,7.583,38.82,17.777,52.202,30.562
		l-48.187,54.881c-7.437-8.625-17.254-15.686-29.447-21.194c-12.201-5.5-26.032-8.254-41.496-8.254
		c-13.388,0-25.731,2.453-37.031,7.362c-11.312,4.908-21.128,11.756-29.448,20.524c-8.335,8.778-14.802,19.188-19.415,31.233
		c-4.612,12.048-6.909,25.212-6.909,39.489c0,14.578,2.075,27.963,6.243,40.157c4.166,12.2,10.332,22.685,18.52,31.458
		c8.177,8.778,18.289,15.617,30.336,20.524c12.049,4.908,25.803,7.361,41.274,7.361c8.919,0,17.397-0.668,25.429-2.008
		c8.033-1.338,15.465-3.492,22.313-6.47v-57.559h-60.237v-61.574h130.289v167.32
		C2972.612,368.667,2954.543,375.212,2933.871,380.266z"/>
</g>
</svg>
