<?xml version="1.0" encoding="iso-8859-1"?><!-- Generator: Adobe Illustrator 16.0.0, SVG Export Plug-In . SVG Version: 6.00 Build 0) --><!DOCTYPE svg PUBLIC "-//W3C//DTD SVG 1.1//EN" "http://www.w3.org/Graphics/SVG/1.1/DTD/svg11.dtd"><svg version="1.1" id="Layer_1" xmlns="http://www.w3.org/2000/svg" xmlns:xlink="http://www.w3.org/1999/xlink" x="0px" y="0px" width="192.756px" height="192.756px" viewBox="0 0 192.756 192.756" style="enable-background:new 0 0 192.756 192.756;" xml:space="preserve"><g><polygon style="fill-rule:evenodd;clip-rule:evenodd;fill:#FFFFFF;" points="0,0 192.756,0 192.756,192.756 0,192.756 0,0	"/><path style="fill-rule:evenodd;clip-rule:evenodd;fill:#FFFFFF;stroke:#CF4044;stroke-width:0.1749;stroke-miterlimit:2.6131;" d="	M127.945,67.696c0.764-0.51,16.408-10.594,20.223-13.146c-1.145-3.319-4.959-20.298-20.213-27.32	c-19.234-8.854-32.362-0.425-37.629,3.574c0.254,5.234,1.263,12.841,1.899,20.374L127.945,67.696L127.945,67.696z"/><path style="fill-rule:evenodd;clip-rule:evenodd;fill:#FFFFFF;stroke:#003562;stroke-width:1.061;stroke-linecap:round;stroke-miterlimit:2.6131;" d="	M134.615,91.75c0.139-2.7,3.281-13.247-7.949-23.27c0,0-8.539-8.779-15.365-11.25c-5.74-2.08-10.312-3.814-18.958-4.197	c-3.642,0-24.691,1.465-19.343,18.187c2.548,7.965,21.807,10.657,25.156,12.843c3.84,2.507,8.061,2.67,18.889,10.271	C122.717,98.316,134.754,96.303,134.615,91.75L134.615,91.75z"/><path style="fill-rule:evenodd;clip-rule:evenodd;fill:#003562;" d="M88.018,68.581c1.486-3.695,9.654-3.865,18.24-0.38	c8.586,3.487,14.344,9.308,12.855,13.003c-1.486,3.696-9.65,3.866-18.238,0.38C92.288,78.098,86.532,72.276,88.018,68.581	L88.018,68.581z"/><path style="fill-rule:evenodd;clip-rule:evenodd;fill:#003562;" d="M91.963,47.796c1.017-0.51,12.965-7.277,25.295-1.277	c12.332,6.001,13.221,17.617,14.365,18.894c-2.295,1.216-4.957,3.064-4.957,3.064s-8.557-8.762-15.383-11.234	c-5.74-2.079-10.297-3.83-18.939-4.212C92.098,51.391,91.971,48.958,91.963,47.796L91.963,47.796z"/><polygon style="fill-rule:evenodd;clip-rule:evenodd;fill:#FFFFFF;" points="106.252,45.373 105.23,48.19 102.172,48.19	104.467,50.11 103.445,53.696 106.252,51.52 109.438,53.568 108.545,50.11 110.842,48.19 107.652,48.19 106.252,45.373	"/><polygon style="fill-rule:evenodd;clip-rule:evenodd;fill:#FFFFFF;" points="118.363,52.288 115.049,50.11 116.068,53.953	113.52,56.129 117.344,56.513 118.236,59.842 119.639,56.641 123.463,56.513 120.658,53.953 121.041,50.496 118.363,52.288	"/><polygon style="fill-rule:evenodd;clip-rule:evenodd;fill:#FFFFFF;" points="95.92,47.026 95.524,48.902 93.584,49.177	95.208,50.189 94.88,52.552 96.465,50.922 98.666,51.935 97.795,49.824 99.078,48.401 97.059,48.687 95.92,47.026	"/><polygon style="fill-rule:evenodd;clip-rule:evenodd;fill:#FFFFFF;" points="126.273,60.773 125.877,62.65 123.938,62.924	125.562,63.936 125.232,66.299 126.816,64.668 129.02,65.682 128.148,63.57 129.432,62.148 127.412,62.433 126.273,60.773	"/><path style="fill-rule:evenodd;clip-rule:evenodd;fill:#CF4044;stroke:#CF4044;stroke-width:0.1749;stroke-miterlimit:2.6131;" d="	M106.27,42.172l2.271-16.915c0.359-0.722,8.607-0.708,10.896,0.567c-0.918,2.391-5.467,17.618-5.467,17.618	c1.158,0.353,2.336,0.754,3.561,1.277c1.701,0.725,3.24,1.592,4.576,2.554l10.664-15.449c1.078,0,6.498,6.002,7.133,7.788	c-1.383,1.714-12.646,12.784-12.646,12.784c1.4,1.874,2.459,3.727,3.24,5.474l13.475-10.47c0,0,2.107,3.829,1.854,5.232	c-0.254,1.404-13.676,9.705-13.676,9.705c0.471,1.491,0.691,2.431,0.889,2.297c0.764-0.51,11.314-7.533,15.129-10.085	c-1.145-3.319-4.959-20.298-20.213-27.32c-19.234-8.854-32.362-0.425-37.629,3.574c0.254,5.234,0.763,7.788,1.398,15.32	c0.644-0.449,1.546-1.064,2.797-1.659l-0.763-14.172c0,0,5-3.28,5.466-2.681c0.131,3.25,0.371,15.158,0.371,15.158	C101.521,42.326,103.811,42.101,106.27,42.172L106.27,42.172z"/><path style="fill:none;stroke:#003562;stroke-width:1.061;stroke-linecap:round;stroke-miterlimit:2.6131;" d="M75.037,59.04	c9.002-7.232,45.994,0.987,59.578,22.19"/><path style="fill-rule:evenodd;clip-rule:evenodd;fill:#F0C660;stroke:#003562;stroke-width:1.0613;stroke-linecap:round;stroke-miterlimit:2.6131;" d="	M57.737,162.311c-0.338-0.193-0.666-0.311-0.938-0.283c-3.512,0.342-1.898,3.207,1.951,5.535c3.805,2.303,10.487,3.332,6.731-2.107	c-0.439-5.484,33.013-69.822,33.013-69.822s9.52-15.023,10.752-18.207c0.57-1.475-5.424-7.622-11.623-4.599	C96.182,79.012,67.471,150.166,57.737,162.311L57.737,162.311L57.737,162.311z"/><path style="fill:none;stroke:#003562;stroke-width:1.0613;stroke-linecap:round;stroke-miterlimit:2.6131;" d="M59.823,164.379	c-0.108-0.361-1.138-1.521-2.086-2.068"/><path style="fill:none;stroke:#003562;stroke-width:0.3538;stroke-linecap:round;stroke-linejoin:round;stroke-miterlimit:2.6131;" d="	M104.85,76.004c-2.193,3.302-43.32,82.053-41.859,89.393 M106.471,78.066c-1.461,2.568-43.114,79.625-42.018,86.596 M99.895,73.296	c-0.73,4.036-36.765,87.11-39.461,88.063"/><path style="fill:none;stroke:#003562;stroke-width:0.8843;stroke-linecap:round;stroke-miterlimit:2.6131;" d="M59.823,164.379	c-0.108-0.361-1.138-1.521-2.086-2.068"/><path style="fill-rule:evenodd;clip-rule:evenodd;fill:#FFFFFF;" d="M51.652,101.318c-0.075,1.002,0.241,1.775,1.353,1.998	c2.292,0.461,4.808-1.422,6.335-3.377c0.531-0.678,4.178-6.292,5.732-9.778c0.177-0.396-1.216-2.242-2.88-2.242	c-3.275,0-5.623,3.358-9.511,10.369C52.229,99.105,51.73,100.291,51.652,101.318L51.652,101.318L51.652,101.318z M22.007,115.223	c-3.8,2.771-6.72,6.02-6.72,9.652c0,1.338,1.047,1.557,1.972,1.557c2.993,0,9.431-6.201,10.597-8.119	c1.793-2.953,2.755-5.191,4.322-9.045c-1.256,0.656-2.723,1.412-4.259,2.26C25.964,112.609,23.896,113.844,22.007,115.223	L22.007,115.223L22.007,115.223z M137.119,87.028c-0.498,0.12-1.098,0.374-1.777,0.923c-1.309,1.058-2.924,3.224-4.619,7.665	c7.508-1.005,9.414-6.266,9.414-7.002c0-0.784-0.705-1.697-1.773-1.697c-0.158,0-0.346-0.003-0.561,0.01	C137.6,86.939,137.369,86.966,137.119,87.028L137.119,87.028L137.119,87.028z M153.748,87.028c-0.498,0.12-1.098,0.374-1.777,0.923	c-1.309,1.058-2.924,3.224-4.617,7.665c7.506-1.005,9.412-6.266,9.412-7.002c0-0.784-0.703-1.697-1.771-1.697	c-0.158,0-0.346-0.003-0.561,0.01C154.229,86.939,154,86.966,153.748,87.028L153.748,87.028L153.748,87.028z M112.748,95	c-1.27,0.629-2.889,0.867-4.277,0.375c-1.439,3.452-2.111,5.625-2.111,5.625c-0.664,1.258-1.559,2.352-2.285,3.141	c-0.732,0.797-1.311,1.303-1.311,1.303c-0.016,0.014-0.156,0.066-0.178,0.068l-3.604,0.033c-0.324,0-0.514-0.303-0.373-0.596	l2.713-5.641c-0.637,0.664-1.4,1.422-2.234,2.174c-2.233,2.016-5.14,4.131-7.568,4.131c-1.895-0.164-3.76-1.271-3.701-4.238	c0.043-2.145,1.668-4.994,3.192-7.276c0.772-1.156,1.542-2.197,2.119-2.976c0.285-0.384,0.521-0.701,0.687-0.935l0.163-0.24	c0.026-0.095,0.115-0.527,0.021-0.94c-0.091-0.396-0.347-0.783-1.134-0.783c-1.894,0-5.764,3.33-7.013,5.284	c-1.726,2.702-6.298,11.806-6.298,11.806c-0.062,0.123-0.232,0.229-0.37,0.229h-4.919c-0.334,0-0.522-0.318-0.363-0.613	l7.439-13.818c0.053-0.096,0.489-0.906,0.723-1.683c0.12-0.396,0.172-0.737,0.13-0.963c-0.032-0.172-0.105-0.265-0.344-0.265	c-0.9,0-2.063,0.938-3.469,2.64c-1.375,1.667-2.848,3.889-4.364,6.11c-2.972,4.354-6.332,9.111-9.536,9.111	c-1.987,0-3.078-0.5-3.76-1.344c-0.326-0.404-0.538-0.865-0.717-1.314c-0.11-0.277-0.211-0.564-0.324-0.854l-0.089,0.117	c-0.136,0.178-0.278,0.371-0.44,0.572c-0.353,0.439-0.797,0.922-1.361,1.369c-1.134,0.9-2.733,1.641-5.01,1.641	c-4.352,0-5.146-3.395-5.216-5.1c-1.674,1.053-5.786,3.287-7.553,3.77c-0.796,1.588-3.213,6.047-4.493,8.439	c-4.991,9.334-11.63,15.455-18.542,15.455c-2.354,0-4.846-1.738-4.846-4.553c0-8.014,6.872-11.936,20.797-18.09	c0.197-0.086,0.934-1.535,1.767-3.428c0.581-1.32,1.165-2.736,1.571-3.742c-1.538,1.143-3.393,2.488-5.322,3.637	c-2.447,1.459-5.09,2.648-7.395,2.648c-4.159,0-6.399-3.229-6.399-6.039c0-5.765,2.333-10.518,6.134-15.279	c1.893-2.37,4.16-4.754,6.705-7.28c2.25-2.235,4.719-4.583,7.336-7.133c-2.89,0.438-5.666,0.136-8.181-0.277	c-1.447-0.239-2.819-0.516-4.092-0.717c-1.267-0.199-2.405-0.316-3.41-0.249c-3.851,0.258-7.014,1.394-8.894,3.004	c-0.488,0.419-1.085,0.752-1.532,0.699c-0.34-0.04-0.576-0.304-0.558-0.67c0.013-0.266,0.158-0.56,0.36-0.859	c3.316-4.918,8.052-6.361,10.87-6.361c2.662,0,4.933,0.248,6.913,0.588c1.971,0.339,3.653,0.77,5.145,1.14	c2.99,0.741,5.061,1.179,7.157,0.259c0.719-0.316,1.418-0.327,1.881-0.033c0.554,0.353,0.587,1.012,0.147,1.526	c-3.507,4.086-7.267,8.252-10.72,12.727c-3.444,4.464-6.572,9.222-8.836,14.506c-2.084,4.863-2.278,7.679,1.712,7.679	c2.347,0,9.505-5.186,12.689-7.936c1.533-3.709,3.004-7.356,4.455-10.565c1.462-3.237,2.917-6.058,4.404-8.048	c1.61-2.155,3.603-4.08,5.571-5.763c1.962-1.676,3.915-3.122,5.464-4.323c0.133-0.103,0.356-0.108,0.493-0.01	c0.053,0.038,0.136,0.083,0.262,0.147c0.129,0.067,0.268,0.137,0.396,0.214c0.234,0.143,0.635,0.423,0.642,0.907	c0.002,0.135-0.098,0.306-0.215,0.371c-3.81,2.097-6.669,6.952-9.099,11.454c-2.326,4.308-4.118,9.024-5.64,13.287	c-1.317,3.688-2.434,7.039-3.517,9.507c2.044-1.148,6.034-3.463,6.875-3.951c0.421-1.922,0.884-3.238,2.483-5.771	c2.032-3.216,6.899-6.584,10.843-6.584c2.838,0,4.204,0.72,5.46,2.258c0.146-0.211,0.33-0.506,0.507-0.805	c0.266-0.447,0.493-0.856,0.505-0.876c0.063-0.115,0.231-0.215,0.361-0.215h4.638c0.347,0,0.534,0.336,0.353,0.632l-8.272,13.558	c-0.321,0.66-0.712,1.615-0.813,2.389c-0.104,0.787,0.087,1.053,0.592,1.053c0.859,0,1.984-0.932,3.371-2.645	c1.354-1.674,2.822-3.902,4.36-6.133c3.025-4.386,6.531-9.136,10.101-9.136c3.426,0,4.075,1.908,4.012,3.739	c3.087-2.372,4.661-3.43,6.491-3.43c3.622,0,5.241,2.175,5.241,4.68c0,1.109-0.695,2.48-1.552,3.838	c-0.866,1.374-1.971,2.838-2.926,4.18c-0.962,1.352-1.717,2.508-1.958,3.309c-0.183,0.611-0.116,0.891,0.805,0.891	c1.458,0,10.502-7.974,11.28-9.633c10.072-21.506,16.914-29.008,24.242-29.008c1.77,0,4.631,0.861,4.631,6.055	c0,1.757-1.965,4.69-4.42,6.139c-1.131,0.352-1.611-0.87-1.232-1.325c2.129-2.556,2.994-4.107,2.994-5.239	c0-1.453-0.633-3.104-2.816-3.104c-4.928,0-12.027,13.605-16.658,23.976c0.902-0.187,1.721-0.201,2.646,0.198	c3.773-4.555,7.535-7.464,11.082-3.725c0.24,0.254,0.535,1.622,0.535,2.336c0,1.283-0.869,2.465-2.102,2.465	s-2.104-1.182-2.104-2.465c0-0.658,0.084-1.193,0.441-1.581c-0.898-0.138-2.41,0.544-3.521,1.655	c-0.816,0.819-1.373,1.613-2.32,2.655c1.129,0.999,1.887,2.432,1.887,4.103c0,0.611-0.361,1.434-0.766,2.234	c-0.412,0.82-0.93,1.727-1.352,2.57c-0.428,0.855-0.709,1.564-0.73,2.035c-0.016,0.316,0.049,0.498,0.605,0.498	c2.848,0,8.867-5.352,9.619-6.031c3.244-8.294,8.238-13.283,13.412-13.283c3.557,0,4.762,2.27,4.762,5.631	c0,4.364-8.338,8.787-12.787,7.96c-0.738,2.225-0.621,5.723,2.965,5.723c2.043,0,4.588-1.396,8.768-6.133	c1.553-4.926,5.561-13.04,13.139-13.04c3.875,0,4.912,3.736,4.912,5.206c0,2.384-2.863,7.636-12.729,8.564	c-0.66,2.637-0.488,5.686,2.344,5.686c3.26,0,8.912-5.865,9.883-7.807c1.209-2.42,4.717-1.569,4.717,0.893	c0,0.242-0.131,0.434-0.236,0.561c-0.113,0.135-0.264,0.266-0.416,0.389c-0.293,0.24-0.682,0.516-1.057,0.836	c-0.74,0.637-1.277,1.336-1.113,2.225c0.314,1.705,2.258,2.486,4.934,2.486c2.039,0,3.223-0.881,3.908-1.748	c0.348-0.438,0.57-0.879,0.705-1.207c0.096-0.234,0.146-0.408,0.166-0.486c-0.014-0.689-0.314-1.27-0.818-1.844	c-0.258-0.297-0.564-0.584-0.904-0.883c-0.344-0.299-0.711-0.598-1.078-0.91c-1.482-1.259-3.096-2.812-3.096-5.48	c0-4.621,5.014-6.479,8.416-6.479c4.457,0,6.451,3.727,6.451,5.065c0,2.105-1.08,3.942-3.363,3.942c-0.643,0-1.078,0-1.383-0.019	c-0.295-0.017-0.568-0.052-0.775-0.193c-0.117-0.078-0.195-0.178-0.252-0.277c-0.053-0.095-0.086-0.195-0.111-0.272	c-0.049-0.146-0.104-0.34-0.232-0.599c-0.744-1.494,0.342-2.322,1.268-2.69c0.477-0.191,0.984-0.302,1.363-0.365l0.17-0.027	c-0.418-1.383-1.283-1.903-2.713-1.903c-2.641,0-4.357,1.105-4.357,2.687c0,0.903,1.369,2.296,3.035,3.932	c0.396,0.39,0.795,0.781,1.166,1.165c0.379,0.39,0.732,0.772,1.037,1.143c0.59,0.72,1.08,1.494,1.08,2.22	c0,0.514,0.072,0.744,0.104,0.939l0.016,0.129c0.184-0.045,0.371-0.068,0.561-0.08c0.451-0.029,0.967,0.01,1.574,0.01	c3.383,0,4.055,12.342,4.055,16.104c0,10.08-12.869,17.42-21.287,18.312c-2.375,0.252-11.393,2.398-24.055,2.398	c-17.689,0-37.211-5.125-54.895-5.125c-18.265,0-31.159,6.471-39.102,11.547c-0.81,0.518-9.014,12.568-2.707-10.004	c5.196-18.598,30.413-21.787,44.705-21.787c26.167,0,48.627,6.998,65.342,6.998c13.244,0,29.654-2.52,29.635-13.662	c-0.004-1.768-0.863-2.312-1.881-2.459c-0.543-0.078-1.141-0.039-1.697,0.041c-0.463,0.066-0.881,0.156-1.197,0.219	c-1.711,3.186-5.715,4.17-9.273,4.17c-5.232,0-6.881-3.314-7.373-4.957c-0.471,0.572-1.229,1.412-2.229,2.252	c-1.758,1.479-4.309,2.988-7.393,2.988c-3.25,0-4.994-1.535-5.904-3.096c-0.443-0.76-0.684-1.518-0.814-2.086	c-0.482,0.574-1.254,1.391-2.312,2.205c-1.93,1.486-4.824,2.977-8.66,2.977c-3.287,0-4.699-1.723-5.238-3.465	c-0.262-0.846-0.316-1.684-0.307-2.311c-0.768,0.656-2.051,1.699-3.576,2.742c-2.475,1.693-5.693,3.457-8.43,3.457	c-3.861,0-4.398-4.531-3.607-6.361c0.494-1.148,1.277-2.402,1.918-3.457c0.324-0.531,0.594-0.99,0.775-1.349	c0.086-0.168,0.15-0.313,0.189-0.433L112.748,95L112.748,95z"/><path style="fill-rule:evenodd;clip-rule:evenodd;fill:#FFFFFF;" d="M166.098,97.504c-0.143,0.721-0.527,1.211-0.691,1.406	c-0.25,0.297-0.531,0.533-0.707,0.676c-0.281,0.229-0.652,0.488-1.012,0.797c-0.141,0.121-0.238,0.219-0.305,0.289	c0.068,0.07,0.168,0.158,0.295,0.219c0.461,0.219,1.262,0.395,2.43,0.395c1.303,0,1.893-0.516,2.221-0.93	c0.133-0.168,0.234-0.34,0.311-0.492c-0.047-0.084-0.109-0.182-0.189-0.273c-0.166-0.189-0.389-0.404-0.699-0.674	c-0.336-0.295-0.695-0.588-1.055-0.893C166.506,97.863,166.305,97.689,166.098,97.504L166.098,97.504L166.098,97.504z M154.156,98.725c-1.504,0.617-3.248,1.107-5.252,1.41c-0.039,0.529-0.008,0.969,0.08,1.277c0.033,0.117,0.068,0.188,0.092,0.223	c0.033,0.012,0.158,0.068,0.32,0.068C150.453,101.703,152.424,100.299,154.156,98.725L154.156,98.725L154.156,98.725z M137.924,98.34c-2.053,0.986-4.25,1.602-6.135,1.74c0.002,0.301,0.039,0.572,0.113,0.787c0.088,0.268,0.189,0.553,1.061,0.553	C133.777,101.42,135.217,100.98,137.924,98.34L137.924,98.34L137.924,98.34z M118.707,90.44c-0.076-0.348-0.113-0.694-0.113-1.027	c0-0.732,0.061-2.02,1.018-3.054l-4.5,4.86L118.707,90.44L118.707,90.44L118.707,90.44z M123.838,93.928	c-0.307,0.074-0.637,0.114-0.986,0.114c-1.99,0-3.301-1.297-3.893-2.783c-0.264,0.281-0.504,0.565-0.75,0.861	c0.748,1.158,1.18,2.581,1.18,4.125c0,0.686-0.191,1.328-0.365,1.799c-0.166,0.453-0.393,0.938-0.631,1.412l-0.211,0.408	c0.385-0.254,0.77-0.523,1.141-0.793c1.488-1.084,2.816-2.217,3.48-2.799C123.127,95.468,123.473,94.686,123.838,93.928	L123.838,93.928L123.838,93.928z M124.047,104.334c-0.307,0.223-0.625,0.447-0.955,0.674c-2.473,1.691-6.182,3.832-9.643,3.832	c-4.08,0-5.605-2.893-5.941-5.562c-0.623,0.936-1.297,1.73-1.85,2.332c-0.826,0.898-1.479,1.465-1.479,1.465	c-0.402,0.354-1.037,0.596-1.574,0.602l-3.613,0.033c-1.137,0-2.042-0.701-2.411-1.637c-1.626,0.973-3.419,1.701-5.155,1.701	c-2.717-0.236-5.85-2.049-5.762-6.441c0.058-2.879,2.092-6.245,3.558-8.438c-0.626,0.59-1.19,1.213-1.555,1.786	c-1.697,2.657-6.188,11.614-6.188,11.614c-0.428,0.85-1.342,1.416-2.293,1.416h-4.919c-1.967,0-3.194-2.068-2.259-3.807	l0.898-1.668c-0.648,0.846-1.314,1.656-1.991,2.383c-1.638,1.762-3.839,3.611-6.431,3.611c-2.26,0-4.05-0.561-5.288-1.973	l-0.066,0.053c-1.491,1.184-3.555,2.107-6.346,2.107c-3.833,0-5.715-1.975-6.611-3.963c-1.52,0.828-3.291,1.719-4.641,2.236	c-1.03,1.979-2.998,5.613-4.111,7.695c-5.066,9.475-12.255,16.596-20.441,16.596c-3.212,0-7.001-2.398-7.001-6.717	c0-7.951,5.803-12.359,15.32-16.971c-0.584,0.102-1.168,0.16-1.746,0.16c-5.48,0-8.554-4.334-8.554-8.203	c0-6.433,2.632-11.653,6.608-16.632c1.94-2.429,4.263-4.876,6.87-7.465c1.088-1.082,2.228-2.188,3.41-3.332	c-1.083-0.098-2.118-0.246-3.087-0.405c-1.442-0.238-2.809-0.514-4.077-0.713c-1.228-0.194-2.174-0.279-2.933-0.228	c-3.576,0.24-6.231,1.285-7.638,2.491c-0.509,0.437-1.744,1.375-3.186,1.202c-1.449-0.172-2.532-1.409-2.456-2.929	c0.045-0.888,0.481-1.598,0.728-1.964c3.763-5.582,9.207-7.312,12.654-7.312c2.802,0,5.192,0.261,7.277,0.619	c2.03,0.35,3.761,0.791,5.297,1.171c3.112,0.771,4.455,0.959,5.777,0.379c1.071-0.471,2.597-0.708,3.898,0.121	c1.898,1.209,1.733,3.476,0.625,4.767c-3.483,4.059-7.219,8.194-10.647,12.639c-3.382,4.383-6.394,8.98-8.562,14.036	c-1.067,2.49-1.358,3.871-1.268,4.496c0.011,0.008,0.21,0.164,1.001,0.164c0.021,0,0.495-0.088,1.56-0.625	c0.985-0.496,2.123-1.186,3.287-1.955c2.207-1.459,4.5-3.199,6.052-4.504c1.47-3.564,2.887-7.058,4.284-10.148	c1.473-3.258,3.006-6.262,4.643-8.453c1.744-2.333,3.868-4.376,5.898-6.111c1.991-1.702,3.972-3.17,5.543-4.389	c0.885-0.686,2.153-0.709,3.063-0.057c0.172,0.089,0.347,0.166,0.518,0.269c0.174,0.105,0.559,0.347,0.911,0.749	c0.374,0.426,0.761,1.094,0.773,1.982c0.013,0.935-0.517,1.848-1.333,2.298c-3.156,1.737-5.744,5.962-8.24,10.587	c-2.273,4.21-4.019,8.82-5.506,12.986c-0.483,1.352-0.939,2.659-1.378,3.895l0.827-0.479c0.449-1.726,1.077-3.195,2.545-5.519	c2.315-3.667,7.794-7.589,12.662-7.589c2.106,0,3.684,0.363,4.993,1.148c0.48-0.489,1.154-0.787,1.841-0.787h4.638	c2.03,0,3.251,2.188,2.19,3.927l-0.225,0.368c0.308-0.349,0.619-0.687,0.934-1.008c1.775-1.812,4.084-3.569,6.791-3.569	c2.718,0,4.339,0.979,5.232,2.315c0.507-0.348,0.989-0.653,1.451-0.911c1.223-0.68,2.435-1.096,3.819-1.096	c4.803,0,7.395,3.135,7.395,6.845c0,1.815-1.057,3.681-1.887,4.996l-0.223,0.35c1.793-1.589,3.383-3.106,3.652-3.683	c9.902-21.143,17.268-30.251,26.193-30.251c2.787,0,6.785,1.663,6.785,8.219c0,2.814-2.662,6.342-5.484,8.004l-0.213,0.127	l-0.238,0.074c-3.127,0.975-5.316-2.625-3.523-4.779c2.215-2.661,2.492-3.625,2.492-3.852c0-0.464-0.109-0.729-0.176-0.822	c-0.033-0.016-0.213-0.117-0.486-0.117c-0.316,0-1.145,0.285-2.506,1.654c-1.271,1.275-2.668,3.15-4.115,5.44	c-1.828,2.89-3.639,6.281-5.297,9.662c0.854-0.7,1.74-1.287,2.656-1.696c2.691-1.203,5.492-0.798,7.891,1.732	c0.656,0.691,0.959,2.063,1.074,3.014c3.025-3.992,6.777-6.492,10.973-6.492c4.104,0,6.014,2.331,6.656,5.237	c2.428-2.859,5.754-5.096,10.189-5.096c5.783,0,7.066,5.582,7.066,7.37c0,0.885-0.213,1.867-0.666,2.872	c0.594-0.043,1.195,0.021,1.76,0.188c-0.123-0.551-0.193-1.144-0.193-1.786c0-6.643,7.02-8.643,10.57-8.643	c5.719,0,8.605,4.769,8.605,7.229c0,2.611-1.408,5.776-4.949,6.083c0.275,0.428,0.539,0.931,0.707,1.492l0.273,0.002	c2.299,0,3.484,2.041,4.029,3.271c0.65,1.467,1.086,3.342,1.391,5.178c0.615,3.689,0.789,7.867,0.789,9.818	c0,11.859-14.529,19.545-23.215,20.465c-2.396,0.254-11.5,2.41-24.281,2.41c-17.689,0-37.211-5.123-54.895-5.123	c-17.722,0-30.213,6.268-37.945,11.207c-0.031,0.02-0.047,0.135-0.137,0.236c-0.302,0.352-0.681,0.795-1.091,1.238	c-0.419,0.453-0.92,0.965-1.444,1.393c-0.458,0.373-1.208,0.922-2.112,1.092c-1.294,0.242-2.536-0.357-3.147-1.623	c-0.438-0.906-0.492-2.031-0.436-3.119c0.119-2.295,0.848-5.973,2.429-11.633c5.692-20.369,32.833-23.365,46.78-23.365	c26.167,0,48.627,6.998,65.342,6.998c6.541,0,13.668-0.629,19.08-2.531c5.457-1.918,8.406-4.797,8.398-8.961	c0-0.271-0.033-0.408-0.047-0.451c-0.252-0.037-0.6,0.104-1.074,0.17c-2.514,3.535-7.344,4.41-10.771,4.41	c-4.082,0-6.496-1.689-7.891-3.49c-0.105,0.092-0.217,0.188-0.328,0.281c-1.951,1.641-4.98,3.492-8.775,3.492	c-3.756,0-6.104-1.695-7.436-3.646l-0.285,0.225c-2.203,1.695-5.545,3.422-9.971,3.422	C127.193,108.416,125.047,106.531,124.047,104.334L124.047,104.334L124.047,104.334z M154.318,89.117l-0.066,0.015	c-0.184,0.044-0.496,0.154-0.93,0.505c-0.494,0.399-1.162,1.123-1.938,2.428c0.818-0.479,1.441-1.015,1.908-1.521	C153.771,90.025,154.102,89.523,154.318,89.117L154.318,89.117L154.318,89.117z M137.688,89.117l-0.066,0.015	c-0.182,0.044-0.494,0.154-0.928,0.505c-0.496,0.399-1.162,1.123-1.938,2.428c0.818-0.479,1.441-1.015,1.908-1.521	C137.143,90.025,137.473,89.523,137.688,89.117L137.688,89.117L137.688,89.117z M27.708,114.129	c-1.494,0.861-3.016,1.811-4.434,2.844c-3.447,2.516-5.47,4.971-5.787,7.27c1.969-0.385,7.433-5.25,8.53-7.057	C26.67,116.111,27.206,115.137,27.708,114.129L27.708,114.129L27.708,114.129z M62.627,90.284c-0.222-0.16-0.387-0.199-0.436-0.199	c-0.757,0-1.621,0.331-2.898,1.81c-1.315,1.521-2.775,3.922-4.73,7.448c-0.344,0.621-0.637,1.357-0.734,1.914	c1.012-0.047,2.52-0.994,3.815-2.652C58.036,98.104,60.977,93.591,62.627,90.284L62.627,90.284z"/><path style="fill-rule:evenodd;clip-rule:evenodd;fill:#003562;" d="M112.748,95c-1.27,0.629-2.889,0.867-4.277,0.375	c-1.439,3.452-2.111,5.625-2.111,5.625c-0.664,1.258-1.559,2.352-2.285,3.141c-0.732,0.797-1.311,1.303-1.311,1.303	c-0.016,0.014-0.156,0.066-0.178,0.068l-3.604,0.033c-0.324,0-0.514-0.303-0.373-0.596l2.713-5.641	c-0.637,0.664-1.4,1.422-2.234,2.174c-2.233,2.016-5.14,4.131-7.568,4.131c-1.895-0.164-3.76-1.271-3.701-4.238	c0.043-2.145,1.668-4.994,3.192-7.276c0.772-1.156,1.542-2.197,2.119-2.976c0.285-0.384,0.521-0.701,0.687-0.935l0.163-0.24	c0.026-0.095,0.115-0.527,0.021-0.94c-0.091-0.396-0.347-0.783-1.134-0.783c-1.894,0-5.764,3.33-7.013,5.284	c-1.726,2.702-6.298,11.806-6.298,11.806c-0.062,0.123-0.232,0.229-0.37,0.229h-4.919c-0.334,0-0.522-0.318-0.363-0.613	l7.439-13.818c0.053-0.096,0.489-0.906,0.723-1.683c0.12-0.396,0.172-0.737,0.13-0.963c-0.032-0.172-0.105-0.265-0.344-0.265	c-0.9,0-2.063,0.938-3.469,2.64c-1.375,1.667-2.848,3.889-4.364,6.11c-2.972,4.354-6.332,9.111-9.536,9.111	c-1.987,0-3.078-0.5-3.76-1.344c-0.326-0.404-0.538-0.865-0.717-1.314c-0.11-0.277-0.211-0.564-0.324-0.854l-0.089,0.117	c-0.136,0.178-0.278,0.371-0.44,0.572c-0.353,0.439-0.797,0.922-1.361,1.369c-1.134,0.9-2.733,1.641-5.01,1.641	c-4.352,0-5.146-3.395-5.216-5.1c-1.674,1.053-5.786,3.287-7.553,3.77c-0.796,1.588-3.213,6.047-4.493,8.439	c-4.991,9.334-11.63,15.455-18.542,15.455c-2.354,0-4.846-1.738-4.846-4.553c0-8.014,6.872-11.936,20.797-18.09	c0.197-0.086,0.934-1.535,1.767-3.428c0.581-1.32,1.165-2.736,1.571-3.742c-1.538,1.143-3.393,2.488-5.322,3.637	c-2.447,1.459-5.09,2.648-7.395,2.648c-4.159,0-6.399-3.229-6.399-6.039c0-5.765,2.333-10.518,6.134-15.279	c1.893-2.37,4.16-4.754,6.705-7.28c2.25-2.235,4.719-4.583,7.336-7.133c-2.89,0.438-5.666,0.136-8.181-0.277	c-1.447-0.239-2.819-0.516-4.092-0.717c-1.267-0.199-2.405-0.316-3.41-0.249c-3.851,0.258-7.014,1.394-8.894,3.004	c-0.488,0.419-1.085,0.752-1.532,0.699c-0.34-0.04-0.576-0.304-0.558-0.67c0.013-0.266,0.158-0.56,0.36-0.859	c3.316-4.918,8.052-6.361,10.87-6.361c2.662,0,4.933,0.248,6.913,0.588c1.971,0.339,3.653,0.77,5.145,1.14	c2.99,0.741,5.061,1.179,7.157,0.259c0.719-0.316,1.418-0.327,1.881-0.033c0.554,0.353,0.587,1.012,0.147,1.526	c-3.507,4.086-7.267,8.252-10.72,12.727c-3.444,4.464-6.572,9.222-8.836,14.506c-2.084,4.863-2.278,7.679,1.712,7.679	c2.347,0,9.505-5.186,12.689-7.936c1.533-3.709,3.004-7.356,4.455-10.565c1.462-3.237,2.917-6.058,4.404-8.048	c1.61-2.155,3.603-4.08,5.571-5.763c1.962-1.676,3.915-3.122,5.464-4.323c0.133-0.103,0.356-0.108,0.493-0.01	c0.053,0.038,0.136,0.083,0.262,0.147c0.129,0.067,0.268,0.137,0.396,0.214c0.234,0.143,0.635,0.423,0.642,0.907	c0.002,0.135-0.098,0.306-0.215,0.371c-3.81,2.097-6.669,6.952-9.099,11.454c-2.326,4.308-4.118,9.024-5.64,13.287	c-1.317,3.688-2.434,7.039-3.517,9.507c2.044-1.148,6.034-3.463,6.875-3.951c0.421-1.922,0.884-3.238,2.483-5.771	c2.032-3.216,6.899-6.584,10.843-6.584c2.838,0,4.204,0.72,5.46,2.258c0.146-0.211,0.33-0.506,0.507-0.805	c0.266-0.447,0.493-0.856,0.505-0.876c0.063-0.115,0.231-0.215,0.361-0.215h4.638c0.347,0,0.534,0.336,0.353,0.632l-8.272,13.558	c-0.321,0.66-0.712,1.615-0.813,2.389c-0.104,0.787,0.087,1.053,0.592,1.053c0.859,0,1.984-0.932,3.371-2.645	c1.354-1.674,2.822-3.902,4.36-6.133c3.025-4.386,6.531-9.136,10.101-9.136c3.426,0,4.075,1.908,4.012,3.739	c3.087-2.372,4.661-3.43,6.491-3.43c3.622,0,5.241,2.175,5.241,4.68c0,1.109-0.695,2.48-1.552,3.838	c-0.866,1.374-1.971,2.838-2.926,4.18c-0.962,1.352-1.717,2.508-1.958,3.309c-0.183,0.611-0.116,0.891,0.805,0.891	c1.458,0,10.502-7.974,11.28-9.633c10.072-21.506,16.914-29.008,24.242-29.008c1.77,0,4.631,0.861,4.631,6.055	c0,1.757-1.965,4.69-4.42,6.139c-1.131,0.352-1.611-0.87-1.232-1.325c2.129-2.556,2.994-4.107,2.994-5.239	c0-1.453-0.633-3.104-2.816-3.104c-4.928,0-12.027,13.605-16.658,23.976c0.902-0.187,1.721-0.201,2.646,0.198	c3.773-4.555,7.535-7.464,11.082-3.725c0.24,0.254,0.535,1.622,0.535,2.336c0,1.283-0.869,2.465-2.102,2.465	s-2.104-1.182-2.104-2.465c0-0.658,0.084-1.193,0.441-1.581c-0.898-0.138-2.41,0.544-3.521,1.655	c-0.816,0.819-1.373,1.613-2.32,2.655c1.129,0.999,1.887,2.432,1.887,4.103c0,0.611-0.361,1.434-0.766,2.234	c-0.412,0.82-0.93,1.727-1.352,2.57c-0.428,0.855-0.709,1.564-0.73,2.035c-0.016,0.316,0.049,0.498,0.605,0.498	c2.848,0,8.867-5.352,9.619-6.031c3.244-8.294,8.238-13.283,13.412-13.283c3.557,0,4.762,2.27,4.762,5.631	c0,4.364-8.338,8.787-12.787,7.96c-0.738,2.225-0.621,5.723,2.965,5.723c2.043,0,4.588-1.396,8.768-6.133	c1.553-4.926,5.561-13.04,13.139-13.04c3.875,0,4.912,3.736,4.912,5.206c0,2.384-2.863,7.636-12.729,8.564	c-0.66,2.637-0.488,5.686,2.344,5.686c3.26,0,8.912-5.865,9.883-7.807c1.209-2.42,4.717-1.569,4.717,0.893	c0,0.242-0.131,0.434-0.236,0.561c-0.113,0.135-0.264,0.266-0.416,0.389c-0.293,0.24-0.682,0.516-1.057,0.836	c-0.74,0.637-1.277,1.336-1.113,2.225c0.314,1.705,2.258,2.486,4.934,2.486c2.039,0,3.223-0.881,3.908-1.748	c0.348-0.438,0.57-0.879,0.705-1.207c0.096-0.234,0.146-0.408,0.166-0.486c-0.014-0.689-0.314-1.27-0.818-1.844	c-0.258-0.297-0.564-0.584-0.904-0.883c-0.344-0.299-0.711-0.598-1.078-0.91c-1.482-1.259-3.096-2.812-3.096-5.48	c0-4.621,5.014-6.479,8.416-6.479c4.457,0,6.451,3.727,6.451,5.065c0,2.105-1.08,3.942-3.363,3.942c-0.643,0-1.078,0-1.383-0.019	c-0.295-0.017-0.568-0.052-0.775-0.193c-0.117-0.078-0.195-0.178-0.252-0.277c-0.053-0.095-0.086-0.195-0.111-0.272	c-0.049-0.146-0.104-0.34-0.232-0.599c-0.744-1.494,0.342-2.322,1.268-2.69c0.477-0.191,0.984-0.302,1.363-0.365l0.17-0.027	c-0.418-1.383-1.283-1.903-2.713-1.903c-2.641,0-4.357,1.105-4.357,2.687c0,0.903,1.369,2.296,3.035,3.932	c0.396,0.39,0.795,0.781,1.166,1.165c0.379,0.39,0.732,0.772,1.037,1.143c0.59,0.72,1.08,1.494,1.08,2.22	c0,0.514,0.072,0.744,0.104,0.939l0.016,0.129c0.184-0.045,0.371-0.068,0.561-0.08c0.451-0.029,0.967,0.01,1.574,0.01	c3.383,0,4.055,12.342,4.055,16.104c0,10.08-12.869,17.42-21.287,18.312c-2.375,0.252-11.393,2.398-24.055,2.398	c-17.689,0-37.211-5.125-54.895-5.125c-18.265,0-31.159,6.471-39.102,11.547c-0.81,0.518-9.014,12.568-2.707-10.004	c5.196-18.598,30.413-21.787,44.705-21.787c26.167,0,48.627,6.998,65.342,6.998c13.244,0,29.654-2.52,29.635-13.662	c-0.004-1.768-0.863-2.312-1.881-2.459c-0.543-0.078-1.141-0.039-1.697,0.041c-0.463,0.066-0.881,0.156-1.197,0.219	c-1.711,3.186-5.715,4.17-9.273,4.17c-5.232,0-6.881-3.314-7.373-4.957c-0.471,0.572-1.229,1.412-2.229,2.252	c-1.758,1.479-4.309,2.988-7.393,2.988c-3.25,0-4.994-1.535-5.904-3.096c-0.443-0.76-0.684-1.518-0.814-2.086	c-0.482,0.574-1.254,1.391-2.312,2.205c-1.93,1.486-4.824,2.977-8.66,2.977c-3.287,0-4.699-1.723-5.238-3.465	c-0.262-0.846-0.316-1.684-0.307-2.311c-0.768,0.656-2.051,1.699-3.576,2.742c-2.475,1.693-5.693,3.457-8.43,3.457	c-3.861,0-4.398-4.531-3.607-6.361c0.494-1.148,1.277-2.402,1.918-3.457c0.324-0.531,0.594-0.99,0.775-1.349	c0.086-0.168,0.15-0.313,0.189-0.433L112.748,95L112.748,95L112.748,95z M153.748,87.028c-0.498,0.12-1.098,0.374-1.777,0.923	c-1.309,1.058-2.924,3.224-4.617,7.665c7.506-1.005,9.412-6.266,9.412-7.002c0-0.784-0.703-1.697-1.771-1.697	c-0.158,0-0.346-0.003-0.561,0.01C154.229,86.939,154,86.966,153.748,87.028L153.748,87.028L153.748,87.028z M137.119,87.028	c-0.498,0.12-1.098,0.374-1.777,0.923c-1.309,1.058-2.924,3.224-4.619,7.665c7.508-1.005,9.414-6.266,9.414-7.002	c0-0.784-0.705-1.697-1.773-1.697c-0.158,0-0.346-0.003-0.561,0.01C137.6,86.939,137.369,86.966,137.119,87.028L137.119,87.028	L137.119,87.028z M109.416,93.512c0.598,0.172,1.184,0.086,1.77-0.182c-0.484-0.263-0.996-0.472-1.42-0.625L109.416,93.512	L109.416,93.512L109.416,93.512z M22.007,115.223c-3.8,2.771-6.72,6.02-6.72,9.652c0,1.338,1.047,1.557,1.972,1.557	c2.993,0,9.431-6.201,10.597-8.119c1.793-2.953,2.755-5.191,4.322-9.045c-1.256,0.656-2.723,1.412-4.259,2.26	C25.964,112.609,23.896,113.844,22.007,115.223L22.007,115.223L22.007,115.223z M51.652,101.318	c-0.075,1.002,0.241,1.775,1.353,1.998c2.292,0.461,4.808-1.422,6.335-3.377c0.531-0.678,4.178-6.292,5.732-9.778	c0.177-0.396-1.216-2.242-2.88-2.242c-3.275,0-5.623,3.358-9.511,10.369C52.229,99.105,51.73,100.291,51.652,101.318	L51.652,101.318z"/><path style="fill-rule:evenodd;clip-rule:evenodd;fill:#FFFFFF;" d="M109.416,93.512c0.598,0.172,1.184,0.086,1.77-0.182	c-0.484-0.263-0.996-0.472-1.42-0.625L109.416,93.512L109.416,93.512z"/><path style="fill-rule:evenodd;clip-rule:evenodd;fill:#FFFFFF;" d="M48.463,130.156v3.125c0,1.465,0.889,1.371,5.228-0.479	c3.058-1.303,4.161-2.221,4.161-3.506v-3.143c0-0.805-0.32-0.988-1.529-0.848l-3.272,0.357c-0.533,0.068-0.605,0.045-0.605-0.35	v-1.73c0-0.412,0.214-0.682,0.712-0.893c0.497-0.213,0.711-0.125,0.711,0.303v1.965l3.983-1.697v-2.25	c0-1.57-0.924-1.535-5.121,0.254c-3.521,1.5-4.268,2.176-4.268,3.838v2c0,0.963,0.392,1.135,2.027,0.938l2.561-0.34	c0.534-0.049,0.64-0.059,0.782,0.004c0.036,0.039,0.036,0.039,0.036,0.129c0,0.055,0,0.215,0,0.465v2.232	c0,0.445-0.178,0.664-0.711,0.893c-0.498,0.211-0.712,0.143-0.712-0.305v-2.66L48.463,130.156L48.463,130.156z"/><path style="fill-rule:evenodd;clip-rule:evenodd;fill:#FFFFFF;" d="M65.294,127.52l-0.711,0.205	c-0.782,0.225-0.889,0.203-0.854-0.344v-6.32l1.564-0.449v-1.412l-1.6,0.461v-2.195l-3.556,1.023v2.195l-0.924,0.268v1.41	l0.924-0.266v6.393c0,1.518,0.641,1.707,3.343,0.93l1.813-0.521V127.52L65.294,127.52z"/><path style="fill-rule:evenodd;clip-rule:evenodd;fill:#FFFFFF;" d="M71.48,126.098c0,0.484-0.328,0.746-0.836,0.816	c-0.547,0.078-0.911-0.139-0.911-0.717v-1.715c0-0.578,0.158-0.758,0.725-1.021c0.145-0.076,0.358-0.178,0.642-0.307l0.38-0.172	V126.098L71.48,126.098L71.48,126.098z M71.211,127.883l3.521-0.498v-7.428c0-2.105-0.392-2.248-4.588-1.654	c-2.738,0.387-3.627,0.904-3.592,2.113v1.75l3.181-0.486v-1.572c0-0.215,0.518-0.41,0.874-0.461	c0.391-0.055,0.604,0.076,0.604,0.344v1.803l-3.059,1.469c-1.422,0.682-1.636,0.91-1.636,1.748v1.805	c0,1.23,0.818,1.633,2.703,1.367c0.747-0.105,1.316-0.293,1.992-0.691V127.883L71.211,127.883z"/><path style="fill-rule:evenodd;clip-rule:evenodd;fill:#FFFFFF;" d="M82.456,125.559l-0.711,0.037	c-0.783,0.041-0.889-0.006-0.854-0.543v-6.322l1.564-0.082v-1.41l-1.6,0.084v-2.197l-3.557,0.188v2.197l-0.925,0.049v1.41	l0.925-0.049v6.393c0,1.518,0.64,1.859,3.343,1.717l1.814-0.096V125.559L82.456,125.559z"/><path style="fill-rule:evenodd;clip-rule:evenodd;fill:#FFFFFF;" d="M94.706,127.584l3.556,0.502l-0.27-7.893	c0-0.34,0.412-0.443,0.803-0.389s0.838,0.242,0.838,0.545v7.893l3.289,0.502v-7.947c0-1.23-0.783-1.895-2.561-2.145	c-0.855-0.121-1.354-0.049-2.1,0.273v-0.535l-3.556-0.502V127.584L94.706,127.584z"/><polygon style="fill-rule:evenodd;clip-rule:evenodd;fill:#FFFFFF;" points="108.26,129.631 112.312,130.273 112.312,118.383	108.26,117.738 108.26,129.631	"/><path style="fill-rule:evenodd;clip-rule:evenodd;fill:#FFFFFF;" d="M114.512,127.068v1.625c0,1.662,0.641,2.043,4.02,2.461	c3.449,0.424,4.195,0.213,4.195-1.27v-1.713c0-1.125-0.143-1.305-1.637-1.916l-2.168-0.875c-0.604-0.254-0.746-0.324-0.854-0.445	c-0.035-0.057-0.072-0.205-0.072-0.42v-1.338c0-0.287,0.215-0.422,0.605-0.373c0.428,0.053,1.449,0.24,1.449,0.543v1.482	l2.676,0.43v-1.75c0-1.32-0.781-1.686-4.586-2.154c-2.775-0.342-3.629-0.037-3.629,1.232v1.658c0,0.895,0.285,1.232,1.566,1.766	l2.133,0.869l0.605,0.236c0.389,0.156,0.426,0.213,0.426,0.713v1.607c0,0.303-0.213,0.42-0.641,0.367	c-0.391-0.047-1.412-0.217-1.412-0.539v-1.768L114.512,127.068L114.512,127.068z"/><polygon style="fill-rule:evenodd;clip-rule:evenodd;fill:#FFFFFF;" points="124.871,131.844 128.426,132.154 128.426,120.262	124.871,119.951 124.871,131.844	"/><path style="fill-rule:evenodd;clip-rule:evenodd;fill:#FFFFFF;" d="M134.773,131.805c-0.652-0.035-1.115-0.389-1.115-1.107v-1.715	c0-0.738,0.285-1.004,0.967-1.189c0.148-0.047,0.363-0.107,0.645-0.182l0.674-0.176v3.396	C135.943,131.57,135.367,131.836,134.773,131.805L134.773,131.805L134.773,131.805z M135.406,132.617l3.52,0.186v-7.428	c0-2.107-0.391-2.324-4.588-2.545c-2.738-0.145-3.627,0.201-3.592,1.416v1.48l3.451,0.182v-1.301c0-0.215,0.248-0.361,0.604-0.344	c0.393,0.021,0.605,0.193,0.605,0.461v1.803l-3.061,0.875c-1.422,0.408-1.635,0.594-1.635,1.432v1.805	c0,1.23,0.818,1.793,2.703,1.891c0.746,0.039,1.316-0.037,1.992-0.305V132.617L135.406,132.617z"/><path style="fill-rule:evenodd;clip-rule:evenodd;fill:#FFFFFF;" d="M141.477,132.842l3.287-0.25v-7.893	c0-0.338,0.412-0.475,0.803-0.502c0.391-0.025,0.838,0.121,0.838,0.426v7.891l3.287-0.248v-7.947c0-1.232-0.781-1.73-2.561-1.605	c-0.852,0.061-1.352,0.238-2.098,0.719v-0.535l-3.557,0.25V132.842L141.477,132.842z"/><path style="fill-rule:evenodd;clip-rule:evenodd;fill:#FFFFFF;" d="M156.293,130.441c-0.51,0.1-0.82-0.039-0.82-0.615l-0.035-6.17	c0-0.475,0.373-0.725,0.787-0.807c0.402-0.078,0.891,0.025,0.891,0.584v6.16C157.115,130.094,156.791,130.344,156.293,130.441	L156.293,130.441L156.293,130.441z M156.844,130.896v0.465l3.557-0.695v-11.891l-3.557,0.693v2.732	c-0.781-0.277-1.314-0.314-2.133-0.156c-1.885,0.369-2.561,1.037-2.561,2.5v5.84c0,1.393,0.711,1.771,2.561,1.41	C155.564,131.629,156.027,131.449,156.844,130.896L156.844,130.896z"/><path style="fill-rule:evenodd;clip-rule:evenodd;fill:#FFFFFF;" d="M87.442,120.082c0-0.781,0.107-1.16,0.806-1.16	c0.494,0,0.771,0.254,0.775,0.748l0.03,0.4l0,1.26h-1.611V120.082L87.442,120.082L87.442,120.082z M92.417,123.996h-3.634v0.891	c0,0.635-0.119,0.799-0.536,0.799c-0.357,0-0.536-0.182-0.536-0.508v-0.326v-2.051h4.706v-2.484c0-1.615-0.029-1.812-0.357-2.176	c-0.537-0.58-1.042-0.672-3.753-0.672c-2.174,0-2.74,0.055-3.276,0.273c-0.805,0.344-0.953,0.67-0.953,2.34v4.805v0.762	c0,1.451,0.774,1.76,4.081,1.76c2.204,0,2.8-0.055,3.365-0.291c0.715-0.326,0.894-0.707,0.894-1.977V123.996L92.417,123.996z"/><path style="fill-rule:evenodd;clip-rule:evenodd;fill:#003562;" d="M174.83,137.631h-1.637v4.492h-1.109v-4.492h-1.643v-0.965	h4.389V137.631L174.83,137.631L174.83,137.631z M182.262,142.133h-1.111v-4.35h-0.027l-1.572,4.35h-1.072l-1.521-4.35h-0.025v4.34	h-1.111v-5.457h1.924l1.264,3.561h0.027l1.314-3.561h1.912V142.133L182.262,142.133z"/></g></svg>