<?xml version="1.0" encoding="utf-8"?>
<!-- Generator: Adobe Illustrator 16.0.0, SVG Export Plug-In . SVG Version: 6.00 Build 0)  -->
<!DOCTYPE svg PUBLIC "-//W3C//DTD SVG 1.1//EN" "http://www.w3.org/Graphics/SVG/1.1/DTD/svg11.dtd">
<svg version="1.1" id="Vector_Smart_Object_xA0_Image_1_"
	 xmlns="http://www.w3.org/2000/svg" xmlns:xlink="http://www.w3.org/1999/xlink" x="0px" y="0px" width="615px" height="693px"
	 viewBox="0 0 615 693" enable-background="new 0 0 615 693" xml:space="preserve">
<g>
	<path fill="#1E7FC3" d="M474.092,204.304c-0.304,11.815-5.432,20.619-15.329,26.552c-1.824,1.093-2.459,2.204-2.454,4.286
		c0.063,32.228,0.059,64.458,0.009,96.679c-0.003,1.935,0.49,3.104,2.265,4.132c11.452,6.612,17.244,18.818,15.187,31.645
		c-1.972,12.295-11.8,22.396-24.528,24.815c-7.381,1.406-14.531,0.285-20.999-3.684c-1.971-1.207-3.361-0.996-5.207,0.072
		c-27.707,16.047-55.443,32.055-83.209,48.002c-1.899,1.09-2.612,2.293-2.608,4.506c0.03,15.508-11.938,29.004-26.889,30.506
		c-15.922,1.603-30-8.397-33.439-23.854c-0.528-2.375-0.706-4.855-0.761-7.291c-0.039-1.644-0.497-2.656-1.961-3.505
		c-28.152-16.192-56.28-32.424-84.395-48.684c-1.524-0.885-2.72-0.889-4.254,0.037c-18.37,11.059-41.788,0.457-45.683-20.201
		c-2.46-13.049,2.854-25.256,14.532-32.127c1.847-1.088,2.681-2.187,2.677-4.443c-0.083-32.229-0.071-64.456-0.02-96.682
		c0.002-1.937-0.501-3.081-2.274-4.11c-11.728-6.812-17.243-18.647-14.991-31.935c2.235-13.2,12.445-22.883,25.728-24.773
		c7.122-1.013,13.987,0.284,20.149,4.218c1.431,0.915,2.494,0.886,3.951,0.046c28.033-16.222,56.089-32.398,84.167-48.538
		c1.697-0.975,2.359-2.097,2.364-4.097c0.048-17.751,14.072-31.336,31.845-30.979c13.852,0.278,26.812,11.711,28.778,25.381
		c0.18,1.257,0.461,2.03,0.461,3.762c0,3.789,1.396,5.396,4.347,7.082c27.244,15.588,54.41,31.3,81.563,47.039
		c1.864,1.082,3.22,1.129,5.162,0.025c18.441-10.519,40.802-0.438,45.29,20.375C473.985,200.498,473.945,202.535,474.092,204.304z
		 M233.671,314.867c-0.278,0.236-0.466,0.442-0.699,0.571c-15.282,8.829-30.555,17.681-45.893,26.409
		c-0.847,0.479-2.497,0.379-3.356-0.141c-4.055-2.45-8.369-4.075-13.094-4.201c-15.718-0.401-25.278,12.44-25.813,23.592
		c-0.622,13.063,9.262,26.445,25.249,26.324c14.019-0.101,24.687-11.343,24.549-25.369c-0.024-2.506,0.712-3.924,2.913-5.172
		c16.287-9.275,32.509-18.662,48.717-28.071c1.567-0.914,2.827-1.062,4.532-0.261c10.106,4.75,20.559,5.556,31.334,2.51
		c1.07-0.301,2.492,0.004,3.564,0.461c3.168,1.349,6.193,3.06,9.383,4.346c1.818,0.736,2.432,1.729,2.428,3.66
		c-0.055,25.403-0.053,50.803-0.005,76.204c0.002,1.791-0.564,2.809-2.198,3.594c-8.561,4.125-15.019,14.771-13.257,26.16
		c2.046,13.226,15.637,23.219,28.749,20.654c11.554-2.26,19.145-10.144,20.771-22.281c1.102-8.229-2.859-19.098-13.444-24.537
		c-1.434-0.733-2.226-1.535-2.221-3.301c0.053-24.674,0.056-49.346,0-74.016c-0.002-2.193,1.006-2.642,2.925-2.982
		c5.071-0.891,10.152-1.87,15.106-3.262c2.241-0.626,4.014-0.718,6.186,0.217c10.861,4.675,21.44,3.874,31.556-2.231
		c1.445-0.868,2.48-0.907,3.931-0.06c13.364,7.782,26.753,15.531,40.2,23.167c2.174,1.23,3.016,2.594,2.95,5.145
		c-0.387,14.761,12.484,26.822,27.496,25.224c14.735-1.566,25.174-15.752,21.756-30.094c-4.097-17.188-22.714-24.94-37.752-15.652
		c-1.585,0.978-2.731,1.243-4.42,0.256c-12.726-7.437-25.481-14.818-38.29-22.111c-1.893-1.073-2.145-2.074-1.543-4.104
		c3.863-13.015,1.239-24.592-8.081-34.561c-1.822-1.95-10.367-15.597-11.558-18.114c-0.942-1.99-0.544-3.052,1.354-4.14
		c19.419-11.121,38.81-22.297,58.168-33.526c1.559-0.901,2.618-0.918,4.146,0.11c5.456,3.664,11.573,4.821,17.99,3.698
		c12.492-2.188,21.546-13.492,20.432-26.835c-1.21-14.476-15.41-25.296-29.591-22.158c-12.444,2.755-20.261,12.482-20.119,25.267
		c0.022,2.18-0.585,3.423-2.527,4.533c-19.664,11.25-39.28,22.577-58.86,33.973c-1.766,1.026-2.731,0.815-4.151-0.554
		c-9.227-8.888-20.326-13.88-32.992-15.462c-4.274-0.538-4.276-0.514-4.276-4.926c-0.002-23.125,0.056-46.25-0.069-69.373
		c-0.016-3.228,0.738-5.098,3.761-6.835c10.842-6.229,14.965-19.642,10.003-31.076c-5.003-11.535-17.784-17.698-29.77-14.047
		c-10.909,3.321-16.989,11.03-18.06,22.245c-0.824,8.655,3.271,18.27,13.149,23.667c1.517,0.828,2.576,1.557,2.568,3.639
		c-0.083,25.495-0.077,50.984-0.012,76.479c0.004,2.021-0.917,2.705-2.566,3.539c-4.932,2.488-10.223,4.661-14.41,8.124
		c-4.83,3.988-9.345,6.291-16.07,6.291c-0.656-0.021-1.077,0.044-1.76,0.029c-1.667-0.037-3.539-0.106-4.901-0.884
		c-19.837-11.313-39.567-22.812-59.428-34.087c-2.837-1.609-4.207-3.331-3.733-6.602c0.188-1.302-0.213-2.697-0.425-4.04
		c-1.94-12.214-13.885-22.431-28.305-20.06c-14.144,2.327-23.125,15.128-20.793,28.829c2.977,17.499,22.945,26.357,38.012,16.786
		c1.7-1.081,2.876-1.166,4.617-0.149c14.932,8.708,29.924,17.313,44.896,25.953c2.565,1.481,5.123,2.975,7.672,4.456
		C223.089,273.919,221.158,293.494,233.671,314.867z"/>
	<path fill="#1E7FC3" d="M275.034,255.974c3.936,0.35,5.896-0.975,8.772-3.646c12.416-11.54,27.065-15.113,43.147-9.771
		c15.812,5.251,25.617,16.488,28.866,32.971c0.633,3.229,1.904,5.169,4.788,6.813c8.243,4.695,12.993,14.853,11.361,23.315
		c-2.114,10.959-9.297,18.554-19.456,20.164c-5.41,0.86-10.782,0.245-15.544-2.689c-2.133-1.314-3.822-1.17-6.025-0.247
		c-14.146,5.947-27.842,4.937-40.86-3.251c-1.999-1.258-3.672-1.357-5.836-0.648c-18.344,5.991-37.424-4.417-42.084-22.713
		C236.825,275.298,253.559,255.016,275.034,255.974z"/>
	<path fill="#1E7FC3" d="M436.637,362.519c-0.002-4.102,2.949-7.086,6.988-7.074c3.889,0.015,7.2,3.226,7.24,7.027
		c0.042,3.656-3.496,7.192-7.184,7.197C439.735,369.669,436.64,366.529,436.637,362.519z"/>
	<path fill="#1E7FC3" d="M299.567,125.427c0.015-3.974,3.113-7.041,7.119-7.044c4.009-0.002,7.086,3.055,7.099,7.046
		c0.012,3.826-3.328,7.206-7.087,7.162C302.875,132.552,299.554,129.211,299.567,125.427z"/>
	<path fill="#1E7FC3" d="M176.709,362.55c-0.014,4-3.139,7.151-7.063,7.119c-3.708-0.033-7.137-3.494-7.154-7.229
		c-0.021-3.73,3.373-6.996,7.265-6.996C173.792,355.447,176.725,358.445,176.709,362.55z"/>
	<path fill="#1E7FC3" d="M306.762,434.521c4.001,0.027,7.042,3.072,7.021,7.033c-0.023,3.947-3.111,6.918-7.165,6.895
		c-4.022-0.024-7.096-3.092-7.051-7.037C299.613,437.488,302.745,434.494,306.762,434.521z"/>
	<path fill="#1E7FC3" d="M169.838,211.4c-4.055,0.037-7.225-2.917-7.345-6.837c-0.119-3.818,3.088-7.023,7.087-7.082
		c4.172-0.061,7.074,2.72,7.132,6.835C176.773,208.449,173.943,211.365,169.838,211.4z"/>
	<path fill="#1E7FC3" d="M443.537,211.412c-4.099-0.03-6.941-2.949-6.902-7.084c0.043-4.104,2.951-6.896,7.125-6.842
		c4,0.055,7.186,3.232,7.092,7.07C450.755,208.447,447.564,211.439,443.537,211.412z"/>
</g>
<g enable-background="new    ">
	<path fill="#1E7FC3" d="M87.889,530.289c-1.658,1.364-2.486,3.168-2.486,5.414c0,2.248,1.012,4.033,3.039,5.359
		c2.025,1.325,6.702,2.892,14.032,4.695c7.329,1.806,13.019,4.513,17.071,8.121c4.05,3.61,6.077,8.877,6.077,15.8
		c0,6.925-2.596,12.541-7.79,16.85c-5.193,4.31-12.026,6.464-20.496,6.464c-12.228,0-23.241-4.53-33.037-13.59l10.275-12.596
		c8.323,7.292,16.021,10.938,23.093,10.938c3.166,0,5.652-0.681,7.458-2.045c1.804-1.361,2.707-3.204,2.707-5.524
		s-0.958-4.16-2.873-5.524c-1.916-1.361-5.709-2.743-11.38-4.143c-8.988-2.136-15.562-4.917-19.722-8.343
		c-4.163-3.425-6.243-8.801-6.243-16.131c0-7.329,2.633-12.982,7.9-16.96c5.266-3.979,11.84-5.967,19.722-5.967
		c5.155,0,10.312,0.884,15.469,2.651c5.155,1.769,9.649,4.273,13.48,7.514l-8.729,12.596c-6.704-5.083-13.628-7.624-20.772-7.624
		C91.811,528.245,89.546,528.927,87.889,530.289z"/>
	<path fill="#1E7FC3" d="M168.379,529.792v62.316h-17.236v-62.316h-21.877v-14.916h60.99v14.916H168.379z"/>
	<path fill="#1E7FC3" d="M261.742,581.446c-7.809,7.624-17.421,11.436-28.838,11.436c-11.418,0-21.031-3.812-28.838-11.436
		c-7.809-7.624-11.712-17.107-11.712-28.451c0-11.343,3.903-20.827,11.712-28.451c7.807-7.624,17.419-11.436,28.838-11.436
		c11.417,0,21.029,3.812,28.838,11.436c7.807,7.624,11.712,17.108,11.712,28.451C273.454,564.339,269.549,573.822,261.742,581.446z
		 M255.886,553.05c0-6.886-2.21-12.761-6.629-17.623c-4.42-4.861-9.853-7.292-16.297-7.292c-6.446,0-11.877,2.431-16.297,7.292
		c-4.419,4.862-6.629,10.737-6.629,17.623c0,6.889,2.21,12.745,6.629,17.568c4.42,4.825,9.851,7.237,16.297,7.237
		c6.445,0,11.877-2.412,16.297-7.237C253.676,565.795,255.886,559.938,255.886,553.05z"/>
	<path fill="#1E7FC3" d="M346.707,540.51c0,12.375-4.899,20.368-14.695,23.977l19.557,27.622h-21.214l-17.126-24.64h-11.933v24.64
		h-17.236v-77.232h29.28c12.005,0,20.568,2.027,25.688,6.077C344.147,525.005,346.707,531.523,346.707,540.51z M325.936,549.68
		c2.135-1.915,3.203-4.953,3.203-9.115c0-4.161-1.104-7.017-3.314-8.563c-2.209-1.547-6.076-2.32-11.602-2.32h-12.927v22.871h12.596
		C319.783,552.552,323.797,551.596,325.936,549.68z"/>
	<path fill="#1E7FC3" d="M362.397,529.681v-14.806h40.218v50.384c0,9.208-2.376,16.095-7.127,20.661
		c-4.751,4.568-10.847,6.851-18.286,6.851c-9.281,0-17.385-3.572-24.308-10.718l8.95-12.375c4.641,5.011,9.502,7.514,14.584,7.514
		c2.432,0,4.512-0.939,6.243-2.817c1.729-1.879,2.597-4.696,2.597-8.453v-36.24H362.397z"/>
	<path fill="#1E7FC3" d="M416.481,590.175c-1.879-1.878-2.817-4.18-2.817-6.905c0-2.725,0.938-5.027,2.817-6.906
		c1.879-1.878,4.18-2.817,6.906-2.817c2.724,0,5.027,0.939,6.904,2.817c1.879,1.879,2.818,4.182,2.818,6.906
		c0,2.726-0.939,5.027-2.818,6.905c-1.877,1.878-4.181,2.817-6.904,2.817C420.66,592.992,418.36,592.052,416.481,590.175z"/>
	<path fill="#1E7FC3" d="M444.821,514.876h17.236v77.232h-17.236V514.876z"/>
	<path fill="#1E7FC3" d="M542.05,581.446c-7.809,7.624-17.421,11.436-28.838,11.436c-11.418,0-21.03-3.812-28.837-11.436
		c-7.809-7.624-11.713-17.107-11.713-28.451c0-11.343,3.904-20.827,11.713-28.451c7.807-7.624,17.419-11.436,28.837-11.436
		c11.417,0,21.029,3.812,28.838,11.436c7.807,7.624,11.712,17.108,11.712,28.451C553.762,564.339,549.857,573.822,542.05,581.446z
		 M536.195,553.05c0-6.886-2.21-12.761-6.63-17.623c-4.419-4.861-9.853-7.292-16.297-7.292c-6.446,0-11.878,2.431-16.297,7.292
		c-4.42,4.862-6.63,10.737-6.63,17.623c0,6.889,2.21,12.745,6.63,17.568c4.419,4.825,9.851,7.237,16.297,7.237
		c6.444,0,11.878-2.412,16.297-7.237C533.985,565.795,536.195,559.938,536.195,553.05z"/>
</g>
</svg>
