<svg xmlns="http://www.w3.org/2000/svg" xmlns:xlink="http://www.w3.org/1999/xlink" version="1.1" id="streame_svg_logo" x="0px" y="0px" width="351.323px" height="85.656px" viewBox="0 0 351.323 85.656" enable-background="new 0 0 351.323 85.656" xml:space="preserve">
  <path fill="#AAAAAA" d="M44.644 69.164C42.287 80.203 33.75 85.723 19.037 85.723 6.346 85.723 0 81.619 0 73.418c0-1.326 0.166-2.742 0.496-4.254h11.039c-0.075 0.371-0.11 0.701-0.11 0.996 0 3.018 3.328 4.527 9.984 4.527 7.36 0 11.424-1.84 12.195-5.523 0.146-0.621 0.22-1.211 0.22-1.762 0-2.502-1.526-3.753-4.579-3.753h-5.52c-12.691 0-19.037-4.099-19.037-12.31 0-1.322 0.165-2.738 0.496-4.245 2.357-11.035 10.89-16.554 25.606-16.554 12.691 0 19.037 4.099 19.037 12.305 0 1.326-0.165 2.738-0.496 4.249H38.294c0.075-0.37 0.11-0.7 0.11-0.991 0-3.018-3.328-4.528-9.984-4.528-7.36 0-11.424 1.841-12.195 5.52-0.149 0.625-0.22 1.211-0.22 1.762 0 2.506 1.526 3.754 4.579 3.754h5.516c12.695 0 19.04 4.106 19.04 12.309C45.139 66.242 44.974 67.658 44.644 69.164z"/>
  <path fill="#AAAAAA" d="M58.908 30.541l1.16-5.52c0.146-0.625 0.221-1.216 0.221-1.766 0-2.502-1.526-3.753-4.58-3.753l2.373-11.035h5.515c6.625 0 9.934 1.487 9.934 4.469 0 0.334-0.036 0.681-0.11 1.047l-3.478 16.558h5.52L73.09 41.576h-5.519l-5.85 27.588c-0.071 0.371-0.11 0.701-0.11 0.996 0 3.018 3.333 4.527 9.993 4.527l-2.376 11.035c-12.691 0-19.036-4.104-19.036-12.305 0-1.326 0.165-2.742 0.496-4.254l5.85-27.588h-5.519l2.372-11.035H58.908z"/>
  <path fill="#AAAAAA" d="M80.734 47.095c0.146-0.625 0.22-1.212 0.22-1.767 0-2.502-1.526-3.753-4.579-3.753l2.372-11.035h5.52c2.982 0 4.469 1.231 4.469 3.694v0.5c4.304-2.797 10.174-4.193 17.605-4.193h11.035l-2.372 11.035h-11.035c-7.36 0-11.424 1.841-12.199 5.52l-7.062 33.108c-0.771 3.68-4.839 5.52-12.195 5.52h-5.52l2.376-11.035c3.678 0 5.901-1.84 6.676-5.523L80.734 47.095z"/>
  <path fill="#AAAAAA" d="M114.37 47.095c2.353-11.035 10.889-16.554 25.603-16.554 12.695 0 19.041 4.099 19.041 12.305 0 1.326-0.165 2.738-0.496 4.249-2.357 11.035-10.894 16.554-25.606 16.554h-11.039l-1.157 5.515c-0.074 0.371-0.11 0.701-0.11 0.996 0 3.018 3.328 4.527 9.988 4.527 7.357 0 11.42-1.84 12.196-5.523h11.035c-2.356 11.039-10.889 16.559-25.603 16.559-12.695 0-19.041-4.104-19.041-12.305 0-1.326 0.165-2.742 0.496-4.254L114.37 47.095zM124.248 52.611h11.035c7.356 0 11.424-1.838 12.195-5.516 0.075-0.37 0.11-0.7 0.11-0.991 0-3.018-3.328-4.528-9.989-4.528-7.356 0-11.424 1.841-12.195 5.52L124.248 52.611z"/>
  <path fill="#AAAAAA" d="M197.724 85.723c-3.018 0-4.524-1.25-4.524-3.752v-0.441c-4.269 2.793-10.118 4.193-17.55 4.193-12.691 0-19.037-4.104-19.037-12.305 0-1.326 0.166-2.742 0.496-4.254 2.356-11.034 10.89-16.553 25.606-16.553h11.035l1.16-5.516c0.071-0.37 0.11-0.7 0.11-0.991 0-3.018-3.328-4.528-9.988-4.528-7.356 0-11.424 1.841-12.195 5.52h-11.039c2.356-11.035 10.89-16.554 25.606-16.554 12.691 0 19.036 4.099 19.036 12.305 0 1.326-0.161 2.738-0.495 4.249l-4.689 22.069c-0.149 0.631-0.22 1.217-0.22 1.771 0 2.502 1.525 3.752 4.578 3.752l-2.372 11.035H197.724zM191.378 63.649h-11.035c-7.36 0-11.424 1.841-12.195 5.515-0.075 0.371-0.11 0.701-0.11 0.996 0 3.018 3.328 4.527 9.984 4.527 7.36 0 11.425-1.84 12.195-5.523L191.378 63.649z"/>
  <path fill="#AAAAAA" d="M218.723 80.203c-0.774 3.68-4.839 5.52-12.199 5.52h-5.516l2.372-11.035c3.679 0 5.905-1.84 6.677-5.523l4.692-22.069c0.146-0.625 0.221-1.212 0.221-1.767 0-2.502-1.526-3.753-4.579-3.753l2.372-11.035c5.04 0 8.167 0.861 9.379 2.592 3.127-1.731 7.36-2.592 12.695-2.592 4.669 0 8.202 0.661 10.594 1.982 2.979-1.322 6.802-1.982 11.476-1.982 9.639 0 14.458 2.813 14.458 8.442 0 0.806-0.091 1.672-0.275 2.592l-5.847 27.588c-0.149 0.631-0.224 1.217-0.224 1.771 0 2.502 1.526 3.752 4.583 3.752l-2.372 11.035h-5.52c-6.66 0-9.988-1.506-9.988-4.523 0-0.299 0.035-0.625 0.109-0.996l7.062-33.108c0.146-0.625 0.221-1.212 0.221-1.767 0-2.502-1.526-3.753-4.579-3.753-3.679 0-5.905 1.841-6.676 5.52l-8.223 38.627h-11.038l8.226-38.627c0.146-0.625 0.221-1.212 0.221-1.767 0-2.502-1.531-3.753-4.584-3.753-3.678 0-5.9 1.841-6.676 5.52L218.723 80.203z"/>
  <path fill="#AAAAAA" d="M275.975 47.095c2.356-11.035 10.89-16.554 25.606-16.554 12.691 0 19.036 4.099 19.036 12.305 0 1.326-0.165 2.738-0.495 4.249-2.353 11.035-10.89 16.554-25.603 16.554H283.48l-1.156 5.515c-0.075 0.371-0.11 0.701-0.11 0.996 0 3.018 3.328 4.527 9.984 4.527 7.36 0 11.424-1.84 12.195-5.523h11.039c-2.356 11.039-10.894 16.559-25.606 16.559-12.691 0-19.037-4.104-19.037-12.305 0-1.326 0.165-2.742 0.496-4.254L275.975 47.095zM285.853 52.611h11.039c7.356 0 11.42-1.838 12.191-5.516 0.074-0.37 0.11-0.7 0.11-0.991 0-3.018-3.328-4.528-9.984-4.528-7.36 0-11.425 1.841-12.196 5.52L285.853 52.611z"/>
  <path fill="#AAAAAA" d="M326.817 21.024c4.98 3.95 8.08 9.843 8.498 16.2 0.078 1.247 0.173 2.656-0.551 3.568-0.818 1.035-2.53 1.479-3.95 1.578-2.667 0.173-4.965-1.845-5.146-4.501-0.244-3.646-2.011-7.018-4.854-9.276-2.849-2.258-6.53-3.21-10.106-2.632-2.636 0.441-5.126-1.333-5.563-3.969-0.236-1.416-0.17-3.25 0.664-4.28 0.725-0.889 2.102-1.07 3.32-1.274C315.394 15.399 321.837 17.075 326.817 21.024L326.817 21.024z"/>
  <path fill="#AAAAAA" d="M308.47 0.249c-1.322 0.146-2.936 0.484-3.706 1.452-0.771 0.968-0.696 2.565-0.551 3.887 0.299 2.667 2.702 4.575 5.351 4.265 7.655-0.857 15.2 1.31 21.259 6.117 6.059 4.8 9.874 11.665 10.787 19.32 0.307 2.652 2.715 4.56 5.374 4.241 1.313-0.161 2.958-0.448 3.729-1.424 0.763-0.96 0.652-2.608 0.503-3.934-1.211-10.224-6.325-19.379-14.387-25.771C328.757 1.996 318.689-0.908 308.47 0.249L308.47 0.249z"/>
  <path fill="#AAAAAA" d="M122.439-17.97"/>
</svg>
