<?xml version="1.0" encoding="utf-8"?>
<!-- Generator: Adobe Illustrator 16.0.0, SVG Export Plug-In . SVG Version: 6.00 Build 0)  -->
<!DOCTYPE svg PUBLIC "-//W3C//DTD SVG 1.0//EN" "http://www.w3.org/TR/2001/REC-SVG-20010904/DTD/svg10.dtd">
<svg version="1.0" id="streame_svg_logo" xmlns="http://www.w3.org/2000/svg" xmlns:xlink="http://www.w3.org/1999/xlink" x="0px"
	 y="0px" width="351.322px" height="85.656px" viewBox="0 0 351.322 85.656" enable-background="new 0 0 351.322 85.656"
	 xml:space="preserve">
<g>
	<g>
		<path fill="#9D53D9" d="M44.644,69.164C42.287,80.203,33.75,85.723,19.037,85.723C6.346,85.723,0,81.619,0,73.418
			c0-1.326,0.166-2.742,0.496-4.254h11.039c-0.075,0.371-0.11,0.701-0.11,0.996c0,3.018,3.328,4.527,9.984,4.527
			c7.359,0,11.424-1.84,12.194-5.523c0.146-0.621,0.221-1.211,0.221-1.762c0-2.502-1.526-3.754-4.579-3.754h-5.521
			c-12.69,0-19.037-4.099-19.037-12.31c0-1.321,0.165-2.737,0.496-4.245C7.541,36.059,16.074,30.54,30.79,30.54
			c12.69,0,19.037,4.099,19.037,12.305c0,1.326-0.165,2.738-0.496,4.249H38.294c0.075-0.369,0.109-0.699,0.109-0.99
			c0-3.019-3.327-4.528-9.983-4.528c-7.36,0-11.424,1.841-12.195,5.52c-0.148,0.625-0.22,1.212-0.22,1.763
			c0,2.506,1.525,3.754,4.579,3.754H26.1c12.695,0,19.04,4.105,19.04,12.309C45.139,66.242,44.974,67.658,44.644,69.164z"/>
		<path fill="#9D53D9" d="M58.908,30.541l1.159-5.52c0.146-0.625,0.222-1.216,0.222-1.766c0-2.502-1.526-3.753-4.58-3.753
			l2.373-11.035h5.515c6.625,0,9.934,1.487,9.934,4.469c0,0.334-0.035,0.681-0.109,1.047l-3.479,16.558h5.521L73.09,41.576h-5.52
			l-5.85,27.588c-0.071,0.371-0.11,0.701-0.11,0.996c0,3.018,3.333,4.527,9.993,4.527l-2.376,11.035
			c-12.69,0-19.036-4.104-19.036-12.306c0-1.326,0.165-2.742,0.496-4.254l5.851-27.588h-5.52l2.372-11.035L58.908,30.541
			L58.908,30.541z"/>
		<path fill="#9D53D9" d="M80.734,47.095c0.146-0.625,0.221-1.212,0.221-1.767c0-2.502-1.526-3.753-4.579-3.753l2.372-11.035h5.52
			c2.982,0,4.469,1.231,4.469,3.694v0.5c4.305-2.797,10.175-4.193,17.605-4.193h11.035l-2.372,11.035h-11.035
			c-7.36,0-11.424,1.841-12.199,5.52l-7.062,33.108c-0.771,3.68-4.839,5.521-12.195,5.521h-5.52l2.376-11.035
			c3.678,0,5.9-1.84,6.676-5.523L80.734,47.095z"/>
		<path fill="#9D53D9" d="M114.37,47.095c2.353-11.035,10.889-16.554,25.603-16.554c12.695,0,19.041,4.099,19.041,12.305
			c0,1.326-0.165,2.738-0.496,4.249c-2.356,11.035-10.894,16.554-25.605,16.554h-11.039l-1.157,5.516
			c-0.074,0.371-0.11,0.701-0.11,0.996c0,3.018,3.328,4.527,9.988,4.527c7.357,0,11.42-1.84,12.196-5.523h11.035
			c-2.356,11.039-10.89,16.559-25.604,16.559c-12.695,0-19.041-4.104-19.041-12.305c0-1.326,0.165-2.742,0.496-4.254L114.37,47.095z
			 M124.248,52.611h11.035c7.355,0,11.424-1.838,12.194-5.517c0.075-0.37,0.11-0.7,0.11-0.991c0-3.018-3.328-4.527-9.989-4.527
			c-7.355,0-11.424,1.841-12.195,5.52L124.248,52.611z"/>
		<path fill="#9D53D9" d="M197.724,85.723c-3.018,0-4.523-1.25-4.523-3.752v-0.44c-4.27,2.793-10.118,4.192-17.551,4.192
			c-12.69,0-19.037-4.104-19.037-12.305c0-1.326,0.166-2.742,0.496-4.254c2.356-11.034,10.891-16.553,25.606-16.553h11.035
			l1.16-5.517c0.07-0.37,0.109-0.7,0.109-0.991c0-3.018-3.328-4.527-9.987-4.527c-7.356,0-11.425,1.841-12.195,5.52h-11.039
			c2.355-11.035,10.89-16.554,25.605-16.554c12.691,0,19.036,4.099,19.036,12.305c0,1.326-0.161,2.738-0.495,4.249l-4.688,22.069
			c-0.149,0.631-0.22,1.217-0.22,1.771c0,2.502,1.524,3.752,4.577,3.752l-2.371,11.035H197.724z M191.378,63.648h-11.035
			c-7.36,0-11.424,1.842-12.195,5.516c-0.074,0.371-0.109,0.701-0.109,0.996c0,3.018,3.328,4.527,9.983,4.527
			c7.36,0,11.425-1.84,12.195-5.523L191.378,63.648z"/>
		<path fill="#9D53D9" d="M218.723,80.203c-0.773,3.68-4.839,5.52-12.199,5.52h-5.516l2.372-11.035c3.679,0,5.905-1.84,6.677-5.522
			l4.692-22.069c0.146-0.625,0.221-1.212,0.221-1.767c0-2.502-1.526-3.753-4.579-3.753l2.372-11.035c5.04,0,8.167,0.861,9.379,2.592
			c3.127-1.731,7.36-2.592,12.695-2.592c4.669,0,8.202,0.661,10.594,1.982c2.979-1.322,6.802-1.982,11.476-1.982
			c9.64,0,14.458,2.813,14.458,8.442c0,0.806-0.091,1.672-0.274,2.592l-5.847,27.588c-0.149,0.631-0.225,1.217-0.225,1.771
			c0,2.502,1.526,3.752,4.583,3.752l-2.372,11.035h-5.52c-6.66,0-9.988-1.506-9.988-4.522c0-0.3,0.035-0.625,0.109-0.996
			l7.062-33.108c0.146-0.625,0.221-1.212,0.221-1.767c0-2.502-1.525-3.753-4.578-3.753c-3.68,0-5.905,1.841-6.677,5.52
			l-8.223,38.627h-11.038l8.227-38.627c0.146-0.625,0.221-1.212,0.221-1.767c0-2.502-1.531-3.753-4.584-3.753
			c-3.678,0-5.9,1.841-6.676,5.52L218.723,80.203z"/>
		<path fill="#9D53D9" d="M275.975,47.095c2.356-11.035,10.891-16.554,25.606-16.554c12.69,0,19.035,4.099,19.035,12.305
			c0,1.326-0.165,2.738-0.495,4.249c-2.353,11.035-10.89,16.554-25.603,16.554H283.48l-1.155,5.516
			c-0.075,0.371-0.11,0.701-0.11,0.996c0,3.018,3.328,4.527,9.984,4.527c7.359,0,11.424-1.84,12.194-5.523h11.039
			c-2.356,11.039-10.894,16.559-25.605,16.559c-12.691,0-19.037-4.104-19.037-12.305c0-1.326,0.165-2.742,0.496-4.254
			L275.975,47.095z M285.853,52.611h11.039c7.356,0,11.42-1.838,12.19-5.517c0.074-0.37,0.11-0.7,0.11-0.991
			c0-3.018-3.328-4.527-9.983-4.527c-7.36,0-11.425,1.841-12.196,5.52L285.853,52.611z"/>
	</g>
	<path fill="#9D53D9" d="M326.817,21.024c4.98,3.95,8.08,9.843,8.498,16.2c0.078,1.247,0.173,2.656-0.551,3.568
		c-0.818,1.035-2.53,1.479-3.95,1.578c-2.667,0.173-4.965-1.845-5.146-4.501c-0.244-3.646-2.012-7.018-4.854-9.276
		c-2.849-2.258-6.53-3.21-10.106-2.632c-2.636,0.441-5.125-1.333-5.563-3.969c-0.235-1.416-0.17-3.25,0.664-4.28
		c0.725-0.889,2.102-1.07,3.32-1.274C315.394,15.399,321.837,17.075,326.817,21.024L326.817,21.024z"/>
	<path fill="#9D53D9" d="M308.47,0.249c-1.322,0.146-2.936,0.484-3.706,1.452c-0.771,0.968-0.696,2.565-0.551,3.887
		c0.299,2.667,2.701,4.575,5.351,4.265c7.655-0.857,15.2,1.31,21.259,6.117c6.06,4.8,9.874,11.665,10.787,19.32
		c0.308,2.652,2.715,4.56,5.374,4.241c1.313-0.161,2.958-0.448,3.729-1.424c0.763-0.96,0.651-2.608,0.503-3.934
		c-1.211-10.224-6.325-19.379-14.388-25.771C328.757,1.996,318.689-0.908,308.47,0.249L308.47,0.249z"/>
</g>
<path fill="#9D53D9" d="M122.439-17.97"/>
</svg>
