<?xml version="1.0" encoding="UTF-8" standalone="no"?>
<!-- Created with Inkscape (http://www.inkscape.org/) -->

<svg
   xmlns:dc="http://purl.org/dc/elements/1.1/"
   xmlns:cc="http://creativecommons.org/ns#"
   xmlns:rdf="http://www.w3.org/1999/02/22-rdf-syntax-ns#"
   xmlns:svg="http://www.w3.org/2000/svg"
   xmlns="http://www.w3.org/2000/svg"
   xmlns:sodipodi="http://sodipodi.sourceforge.net/DTD/sodipodi-0.dtd"
   xmlns:inkscape="http://www.inkscape.org/namespaces/inkscape"
   id="svg2"
   version="1.1"
   inkscape:version="0.48.4 r9939"
   width="744.09375"
   height="1052.3625"
   xml:space="preserve"
   sodipodi:docname="survata-logo.ai"><metadata
     id="metadata8"><rdf:RDF><cc:Work
         rdf:about=""><dc:format>image/svg+xml</dc:format><dc:type
           rdf:resource="http://purl.org/dc/dcmitype/StillImage" /><dc:title></dc:title></cc:Work></rdf:RDF></metadata><defs
     id="defs6"><clipPath
       clipPathUnits="userSpaceOnUse"
       id="clipPath16"><path
         d="m 0,841.89 595.275,0 L 595.275,0 0,0 0,841.89 z"
         id="path18" /></clipPath></defs><sodipodi:namedview
     pagecolor="#ffffff"
     bordercolor="#666666"
     borderopacity="1"
     objecttolerance="10"
     gridtolerance="10"
     guidetolerance="10"
     inkscape:pageopacity="0"
     inkscape:pageshadow="2"
     inkscape:window-width="1576"
     inkscape:window-height="942"
     id="namedview4"
     showgrid="false"
     inkscape:zoom="1"
     inkscape:cx="216.54344"
     inkscape:cy="825.36605"
     inkscape:window-x="1679"
     inkscape:window-y="176"
     inkscape:window-maximized="0"
     inkscape:current-layer="g10" /><g
     id="g10"
     inkscape:groupmode="layer"
     inkscape:label="survata-logo"
     transform="matrix(1.25,0,0,-1.25,0,1052.3625)"><g
       id="g12"><g
         id="g14"
         clip-path="url(#clipPath16)"><g
           id="g20"
           transform="translate(128.6387,583.5928)"><path
             d="m 4.150559,-6.9368302 c 3.6720901,0 7.183425,-0.6917908 10.41118,-1.9489349 -1.674387,-0.947374 -2.847541,-2.6786579 -3.019134,-4.6944239 -2.323731,0.77849 -4.8082166,1.201151 -7.392046,1.201151 -12.840575,0 -23.252658,-10.413889 -23.252658,-23.253561 0,-12.840576 10.412083,-23.253562 23.252658,-23.253562 12.841479,0 23.253562,10.412986 23.253562,23.253562 0,4.165194 -1.097293,8.075709 -3.016425,11.456994 l 0,1.750248 c 0,1.822499 -1.133417,3.390317 -2.729232,4.034242 1.049427,1.018721 1.728574,2.417655 1.811661,3.974636 5.76101,-5.248939 9.376203,-12.810772 9.376203,-21.21612 0,-6.639746 -2.256899,-12.75207 -6.042783,-17.613571 l 13.682284,-13.589262 c 1.600331,-1.590397 1.609362,-4.202223 0.01897,-5.802553 l -0.693597,-0.698113 c -1.58859,-1.600331 -4.199513,-1.610265 -5.80165,-0.01897 l -13.939674,13.844847 c -4.555343,-3.043518 -10.030063,-4.819958 -15.919315,-4.819958 -15.846162,0 -28.694866,12.852317 -28.694866,28.697576 -4e-6,15.845263 12.8487,28.6957728 28.694862,28.6957728"
             style="fill:#225996;fill-opacity:1;fill-rule:evenodd;stroke:none"
             id="path22"
             inkscape:connector-curvature="0" /></g><g
           id="g24"
           transform="translate(114.2783,562.3223)"><path
             d="m 5.5417791,-4.8761671 c 2.591957,0 4.6944229,-2.1024659 4.6944229,-4.694423 0,-2.5919579 -2.1024659,-4.6953269 -4.6944229,-4.6953269 -2.5919575,0 -4.6953265,2.103369 -4.6953265,4.6953269 0,2.5919571 2.103369,4.694423 4.6953265,4.694423 M 18.700253,2.6161254 c 2.591958,0 4.695327,-2.10336902 4.695327,-4.6944234 0,-2.5919575 -2.103369,-4.6962296 -4.695327,-4.6962296 -2.591957,0 -4.69623,2.1042721 -4.69623,4.6962296 0,2.59105438 2.104273,4.6944234 4.69623,4.6944234 M 24.30412,-34.384745 c -1.888427,-0.574385 -3.892452,-0.883252 -5.967825,-0.883252 -1.812564,0 -3.567328,0.236617 -5.241714,0.67734 l 0,23.995024 c 0,1.6861269 1.379065,3.065193 3.064289,3.065193 l 5.082766,0 c 1.685224,0 3.062484,-1.3808721 3.062484,-3.065193 l 0,-23.789112 z m 13.159377,12.19665 c -2.018476,-5.185721 -6.087939,-9.349109 -11.209539,-11.494022 l 0,32.5268087 c 0,1.68612708 1.379066,3.065193 3.06429,3.065193 l 5.081862,0 c 1.685224,0 3.063387,-1.38087222 3.063387,-3.065193 l 0,-21.0327867 z M 31.85963,11.870407 c 2.591958,0 4.694424,-2.1024662 4.694424,-4.6944232 0,-2.591958 -2.102466,-4.6953266 -4.694424,-4.6953266 -2.591957,0 -4.695326,2.1033686 -4.695326,4.6953266 0,2.591957 2.103369,4.6944232 4.695326,4.6944232 M 11.145645,-33.970212 c -4.8985284,1.833335 -8.9083859,5.48646 -11.2095384,10.134824 l 0,5.725788 c 0,1.685224 1.3781627,3.064289 3.0651929,3.064289 l 5.0809596,0 c 1.6852229,0 3.0633859,-1.379969 3.0633859,-3.064289 l 0,-15.860612 z"
             style="fill:#00adef;fill-opacity:1;fill-rule:evenodd;stroke:none"
             id="path26"
             inkscape:connector-curvature="0" /></g><g
           id="g28"
           transform="translate(187.0728,547.0166)"><path
             d="m 0,0 c 3.574,-1.736 7.514,-3.377 12.015,-5.307 3.879,-1.663 7.386,-2.427 6.664,-7.062 -0.375,-4.007 -1.828,-5.871 -4.959,-6.759 -2.8,-0.795 -7.548,-1.033 -10.051,0.527 -2.799,1.747 -1.713,5.396 -1.595,9.222 0,0.686 -0.667,0.979 -1.468,0.979 l -6.847,0 c -1.537,0 -1.868,-0.975 -1.954,-2.219 l -0.492,-7.074 c 1.258,-8.244 10.7,-10.272 16.63,-10.272 11.077,0.109 21.032,2.982 21.032,16.63 l 0,4.401 c 0,11.939 -23.237,9.829 -23.477,17.657 -0.648,9.908 15.853,8.698 15.74,3.386 L 21.237,10.644 C 21.236,9.479 21.132,8.621 22.664,8.661 l 6.358,0 c 1.582,0 2.397,1.343 2.397,2.991 l 0,5.381 c 0,5.946 -8.696,9.292 -15.162,9.292 C 9.242,26.5 2.583,25.474 -1.165,20.878 -5.385,15.704 -6.724,3.265 0,0 m 64.001,11.567 9.065,0 c 0.399,0 0.684,-0.326 0.633,-0.725 l -4.776,-37.529 c -0.05,-0.398 -0.419,-0.724 -0.818,-0.724 l -9.064,0 c -0.399,0 -0.684,0.326 -0.633,0.724 l 0.368,2.892 c -6.683,-4.664 -16.915,-6.293 -21.361,0.537 -1.388,2.132 -1.18,3.407 -1.054,5.905 0.082,1.649 0.243,3.309 0.561,4.769 l 0.017,0.002 2.981,23.424 c 0.051,0.399 0.419,0.725 0.818,0.725 l 9.065,0 c 0.398,0 0.683,-0.326 0.633,-0.725 l -2.83,-22.233 0.053,0.006 -0.476,-3.185 c -0.249,-1.662 -0.562,-3.185 1.244,-4.176 2.398,-1.317 7.043,0.213 11.402,3.223 l 3.355,26.365 c 0.051,0.399 0.419,0.725 0.817,0.725 M 91.412,-1.049 c 4.036,2.626 8.131,4.562 11.442,4.316 1.026,0.255 1.666,0.799 1.922,1.633 l 0.768,5.861 c 0.152,1.044 -0.438,1.553 -1.825,1.441 C 99.986,12.077 96.253,10.327 92.52,7.656 l 0.405,3.186 c 0.051,0.399 -0.234,0.725 -0.633,0.725 l -9.064,0 c -0.399,0 -0.767,-0.326 -0.818,-0.725 l -4.776,-37.529 c -0.051,-0.398 0.234,-0.724 0.633,-0.724 l 9.065,0 c 0.398,0 0.766,0.326 0.817,0.724 l 3.263,25.638 z m 16.972,12.616 9.065,0 c 0.398,0 0.791,-0.326 0.873,-0.725 l 4.888,-23.958 10.295,23.958 c 0.172,0.399 0.639,0.725 1.037,0.725 l 9.065,0 c 0.398,0 0.586,-0.326 0.414,-0.725 l -16.125,-37.529 c -0.172,-0.398 -0.639,-0.724 -1.037,-0.724 l -1.455,0 -7.61,0 -1.455,0 c -0.4,0 -0.793,0.326 -0.873,0.724 l -7.659,37.529 c -0.081,0.399 0.178,0.725 0.577,0.725 m 64.625,0 7.922,0 c 0.713,0 1.221,-0.584 1.131,-1.296 l -4.631,-36.385 c -0.09,-0.714 -0.748,-1.297 -1.461,-1.297 l -7.922,0 c -0.713,0 -1.222,0.583 -1.132,1.297 l 3.306,25.968 c -4.267,2.738 -12.443,6.545 -13.631,-1.177 -0.611,-3.985 -1.299,-7.968 -1.863,-11.949 -1.219,-8.616 6.061,-6.606 13.516,-2.419 l -1.069,-8.389 c -5.273,-3.086 -12.271,-5.956 -19.193,-2.147 -4.471,2.459 -3.83,9.545 -3.16,14.419 0.568,4.138 1.26,8.257 1.877,12.387 0.648,4.347 2.427,8.453 6.369,10.425 5.816,2.911 12.922,0.06 18.162,-3.229 l 0.316,2.496 c 0.092,0.712 0.75,1.296 1.463,1.296 m 22.657,9.421 7.099,0 c 0.94,0 1.615,-0.769 1.502,-1.709 l -0.967,-7.99 7.352,0 c 0.951,0 1.637,-0.76 1.523,-1.689 L 211.593,4.812 C 211.48,3.883 210.609,3.123 209.658,3.123 l -7.344,0 -2.348,-19.405 c -0.002,-0.025 -0.006,-0.05 -0.009,-0.074 0.062,-1.767 1.318,-2.271 2.732,-2.523 l 5.525,0 c 0.573,0 0.996,-0.43 0.944,-0.955 l -0.629,-6.196 c -0.055,-0.525 -0.567,-0.954 -1.139,-0.954 l -4.9,0 -0.004,-0.013 c -6.731,0 -13.912,-0.102 -13.043,10.423 -0.006,0.095 -0.002,0.192 0.01,0.292 l 2.345,19.405 -2.797,0 c -0.949,0 -2.355,0.76 -2.244,1.689 0.295,2.431 -0.175,6.477 3.334,6.477 l 2.694,0 0.966,7.99 c 0.114,0.94 0.975,1.709 1.915,1.709 m 47.326,-9.421 7.922,0 c 0.712,0 1.222,-0.584 1.13,-1.296 l -4.63,-36.385 c -0.09,-0.714 -0.748,-1.297 -1.461,-1.297 l -7.922,0 c -0.713,0 -1.223,0.583 -1.131,1.297 l 3.305,25.968 c -4.266,2.738 -12.444,6.545 -13.629,-1.177 -0.612,-3.985 -1.301,-7.968 -1.864,-11.949 -1.218,-8.616 6.061,-6.606 13.514,-2.419 l -1.068,-8.389 c -5.274,-3.086 -12.27,-5.956 -19.194,-2.147 -4.468,2.459 -3.83,9.545 -3.16,14.419 0.569,4.138 1.26,8.257 1.877,12.387 0.649,4.347 2.428,8.453 6.369,10.425 5.817,2.911 12.922,0.06 18.162,-3.229 l 0.319,2.496 c 0.09,0.712 0.748,1.296 1.461,1.296"
             style="fill:#00adef;fill-opacity:1;fill-rule:evenodd;stroke:none"
             id="path30" /></g></g></g></g></svg>