<?xml version="1.0" encoding="iso-8859-1"?><!-- Generator: Adobe Illustrator 16.0.0, SVG Export Plug-In . SVG Version: 6.00 Build 0) --><!DOCTYPE svg PUBLIC "-//W3C//DTD SVG 1.1//EN" "http://www.w3.org/Graphics/SVG/1.1/DTD/svg11.dtd"><svg version="1.1" id="Layer_1" xmlns="http://www.w3.org/2000/svg" xmlns:xlink="http://www.w3.org/1999/xlink" x="0px" y="0px" width="153.588px" height="185.084px" viewBox="0 0 153.588 185.084" style="enable-background:new 0 0 153.588 185.084;" xml:space="preserve"><path style="fill:#FF0016;" d="M55.487,39.154c1.426-4.656,5.037-2.28,5.037-2.28S69.882,44,95.549,60.333S153.215,54,153.215,54	l-76-54c-33.334,35.333-76,48-76,48l0.121,0.047l97.147,68.121c-1.426,4.656-5.037,2.281-5.037,2.281s-9.358-7.127-35.025-23.461	c-25.667-16.333-57.666,6.334-57.666,6.334l76,54c33.334-35.334,76-48,76-48l-0.123-0.048L55.487,39.154z"/><g><g><path style="fill:#015CD0;" d="M0,176.761l11.692,0.062c0.201,1.1-0.115,1.096,0.5,1.67c0.963,0.896,2.457,1.1,3.711,0.879	c1.027-0.18,2.619-0.494,2.695-1.769c0.083-1.384-0.875-1.866-2.077-2.024c-1.662-0.217-3.339-0.274-4.996-0.539	c-4.269-0.701-6.539-1.015-8.357-2.174c-1.834-1.16-1.992-3.686-1.992-5.484c0-1.182,0.469-2.297,1.407-3.35	c0.938-1.049,2.349-1.875,4.232-2.478c1.884-0.601,4.465-0.899,7.746-0.899c4.024,0,7.095,0.545,9.206,1.635	c2.114,1.09,3.371,3.521,3.772,5.896c0,0-9.936,0-9.941,0c0.074-0.141-0.195-0.777-0.238-0.936	c-0.381-1.379-1.712-1.781-2.987-2.063c-1.045-0.231-2.239-0.251-3.181,0.325c-0.573,0.352-1.018,0.723-1.018,1.227	c0,0.365,0.236,0.694,0.71,0.987c0.461,0.302,1.55,0.585,3.269,0.845c4.255,0.672,7.302,1.348,9.144,2.031	c1.84,0.688,3.179,1.535,4.018,2.548c0.837,1.013,1.257,2.147,1.257,3.401c0,1.474-0.559,2.832-1.677,4.074	c-1.116,1.242-2.677,2.188-4.682,2.83c-2.006,0.643-4.533,0.963-7.583,0.963c-5.355,0-9.066-0.752-11.127-2.256	C1.439,180.66,0.272,179.083,0,176.761z"/><path style="fill:#015CD0;" d="M47.439,161.087h8.641v16.246c0,3.334-2.071,5.695-6.214,7.09c-1.917,0.636-4.215,0.66-6.817,0.66	c-2.333,0-4.426,0.043-6.362-0.461c-4.56-1.822-6.839-4.252-6.839-7.289v-16.246h8.702V175c0,2.533,0.336,4.418,4.5,4.418	c4.248,0,4.333-1.967,4.333-4.5L47.439,161.087z"/><path style="fill:#015CD0;" d="M103.938,161.087h8.642v16.246c0,3.334-2.071,5.695-6.214,7.09c-1.916,0.636-4.215,0.66-6.817,0.66	c-2.333,0-4.427,0.043-6.362-0.461c-4.561-1.822-6.84-4.252-6.84-7.289v-16.246h8.702V175c0,2.533,0.337,4.418,4.5,4.418	c4.248,0,4.333-1.967,4.333-4.5L103.938,161.087z"/><path style="fill:#015CD0;" d="M57.858,161.255h26.766v4.994L71.549,178h13.076v6.541H57.858v-5.623l12.774-11.584h-12.75	L57.858,161.255z"/><path style="fill:#015CD0;" d="M114.72,184.5v-23.285h8.579l-0.002,8.619l9.253-8.619h10.737L130.966,172.5l12.834,12h-11.584	l-8.834-8.332l0.084,8.332H114.72L114.72,184.5z"/><path style="fill:#015CD0;" d="M153.588,161.212V184.5h-8.562v-23.285h8.562V161.212z"/></g></g></svg>