<?xml version="1.0" encoding="iso-8859-1"?>
<!-- Generator: Adobe Illustrator 19.2.1, SVG Export Plug-In . SVG Version: 6.00 Build 0)  -->
<svg version="1.1" id="Layer_1" xmlns="http://www.w3.org/2000/svg" xmlns:xlink="http://www.w3.org/1999/xlink" x="0px" y="0px"
	 viewBox="0 0 507.156 144.583" style="enable-background:new 0 0 507.156 144.583;" xml:space="preserve">
<g>
	<g>
		<g>
			<g>
				<polygon style="fill-rule:evenodd;clip-rule:evenodd;fill:#ED7E23;" points="488.815,52.716 497.55,35.105 472.659,35.105 				
					"/>
				<path style="fill-rule:evenodd;clip-rule:evenodd;fill:#44413C;" d="M365.733,132.036l5.617-29.078h0.281
					c2.387,1.547,7.16,2.809,11.941,2.809c24.582,0,39.895-21.633,39.895-45.516c0-14.747-7.723-26.69-22.617-26.69
					c-7.844,0-15.684,3.514-21.027,10.393h-0.281l0.984-9.551h-21.375c-0.844,7.164-2.527,20.231-4.074,28.376l-13.207,69.258
					H365.733L365.733,132.036z M290.386,132.036h-23.867l13.207-69.258c1.547-8.145,3.234-21.212,4.078-28.376h21.375l-0.984,9.555
					h0.285c5.336-6.883,13.176-10.397,21.023-10.397c14.891,0,22.617,11.943,22.617,26.69c0,23.883-15.313,45.516-39.898,45.516
					c-4.774,0-9.555-1.262-11.941-2.809h-0.281L290.386,132.036L290.386,132.036z M301.808,71.63l-2.101,13.062
					c1.961,1.973,4.348,3.09,7.578,3.09c8.969,0,15.691-13.906,15.691-25.563c0-4.777-1.949-9.273-7.141-9.273
					C308.972,52.946,303.913,60.532,301.808,71.63L301.808,71.63z M263.905,104.219c-0.281-8.984,1.266-23.176,2.668-30.625
					l7.449-36.237c-6.18-1.971-15.738-3.797-24.608-3.797c-35.633,0-50.246,24.585-50.246,47.62c0,15.039,8.99,24.586,21.355,24.586
					c7.277,0,15.828-3.231,21.727-13.484h0.418c-0.137,3.937-0.418,8.008-0.701,11.937H263.905L263.905,104.219z M244.213,65.872
					c-2.945,16.293-8.82,20.648-13.178,20.648c-4.07,0-6.863-3.371-6.863-9.832c0-10.113,7.426-25.145,18.496-25.145
					c1.27,0,2.953,0.137,4.5,0.418L244.213,65.872L244.213,65.872z M107.256,35.105h24.303l-0.842,25.286
					c-0.143,7.586-0.424,14.891-1.127,23.461h0.424c2.529-8.57,5.9-15.875,8.707-22.898l10.537-25.849h19.387l0.562,24.868
					c0.141,8.285,0.281,15.309-0.142,23.879h0.283c2.527-8.57,5.199-16.016,8.146-24.586l8.711-24.161h24.162l-33.293,69.114
					h-22.617l-0.982-18.258c-0.283-7.586-0.283-14.473-0.283-23.602h-0.281c-4.074,10.957-5.619,16.016-8.289,22.477l-8.287,19.383
					h-22.617L107.256,35.105L107.256,35.105z M377.155,71.63c2.109-11.098,7.168-18.684,14.027-18.684
					c5.199,0,7.141,4.496,7.141,9.273c0,11.656-6.723,25.563-15.687,25.563c-3.227,0-5.617-1.117-7.586-3.09L377.155,71.63
					L377.155,71.63z M425.898,35.105h25.285l3.098,27.114c0.84,6.883,1.543,11.656,1.961,15.73h0.285
					c1.402-4.074,2.668-8.426,5.473-15.871l9.367-24.294l16.137,17.583l-13.977,28.207c-9.977,19.805-18.687,32.449-27.816,40.734
					c-8.148,7.586-18.262,11.098-23.043,11.801l-5.199-20.648c3.371-0.84,7.586-2.527,11.383-4.914
					c4.633-2.953,8.145-6.469,10.254-10.258c0.562-0.984,0.703-1.824,0.281-3.371L425.898,35.105z"/>
			</g>
			<g>
				<path style="fill-rule:evenodd;clip-rule:evenodd;fill:#44413C;" d="M70.094,105.383c-5.35,1.539-11.289,2.348-17.82,2.348
					c-6.836,0-13.039-0.977-18.637-2.938c-4.566-1.594-8.605-3.644-12.09-6.164c-0.686,2.875-1.225,5.922-1.664,9.234L9.606,80.735
					l26.891-8.516c-2.326,2.438-4.326,4.793-6.055,7.133c0.828,0.731,1.762,1.422,2.797,2.074c1.848,1.188,3.926,2.188,6.203,3.031
					c2.305,0.812,4.738,1.434,7.34,1.906c2.603,0.469,5.252,0.687,7.933,0.687c4.654,0,13.092-0.215,16.045-4.703
					c1.381-2.109,1.309-4.988-2.596-8.324C97.287,85.286,89.938,99.688,70.094,105.383L70.094,105.383z M44.715,9.783
					c5.352-1.539,11.293-2.348,17.82-2.348c6.838,0,13.043,0.973,18.633,2.936c4.57,1.594,8.613,3.65,12.094,6.168
					c0.691-2.873,1.227-5.926,1.664-9.238l10.277,27.135l-26.895,8.514c2.33-2.441,4.332-4.797,6.064-7.139
					c-0.832-0.727-1.764-1.418-2.803-2.072c-1.852-1.189-3.926-2.189-6.199-3.031c-2.307-0.813-4.742-1.434-7.344-1.904
					c-2.602-0.467-5.246-0.687-7.932-0.687c-4.66,0-13.1,0.215-16.045,4.707c-1.383,2.109-1.305,4.982,2.59,8.32
					C17.522,29.875,24.871,15.476,44.715,9.783z"/>
				<path style="fill-rule:evenodd;clip-rule:evenodd;fill:#ED7E23;" d="M60.395,67.837l-0.105-0.02l-0.047-0.012
					c-1.957-0.395-4.168-0.75-6.617-1.086c-6.551-0.84-12.109-2.148-16.717-3.871c-4.57-1.746-8.287-3.809-11.078-6.215
					c-2.822-2.437-4.848-5.152-6.084-8.152c-1.231-3.03-1.766-6.247-1.606-9.649c0.215-4.596,1.443-8.779,3.658-12.652
					c0.576-0.99,1.205-1.943,1.885-2.861c0.178,0.74,0.393,1.473,0.633,2.195c1.258,3.764,3.461,6.982,6.336,9.654
					c3.178,2.953,7.094,5.078,11.141,6.658c5.053,1.975,10.586,3.137,15.988,3.912c1.707,0.246,3.529,0.477,5.424,0.736l0.006-0.061
					c1.01,0.162,2.059,0.321,3.152,0.478c5.926,0.844,10.93,2.062,15.008,3.652c4.084,1.59,7.336,3.527,9.785,5.813
					c2.457,2.277,4.205,4.906,5.195,7.867c0.984,2.937,1.393,6.219,1.225,9.844c-0.221,4.617-1.389,8.899-3.545,12.836
					c-1.078,2.008-2.383,3.875-3.9,5.602c-0.24-1.789-0.633-3.555-1.205-5.273c-1.256-3.758-3.459-6.977-6.34-9.645
					c-3.172-2.953-7.088-5.086-11.141-6.668C67.928,69.548,64.174,68.567,60.395,67.837z"/>
			</g>
		</g>
	</g>
</g>
</svg>
