<svg id="Layer_1" data-name="Layer 1" xmlns="http://www.w3.org/2000/svg" viewBox="0 0 1024 1024">
  <title>swipes-logo-3-clean</title>
  <g>
    <circle cx="512" cy="512" r="512" fill="#fff"/>
    <g>
      <g>
        <path d="M641,441c16.15,0,31.51,2.11,46,7L822,297l-438,0c-79.54,0-144.94,64.72-144.94,144.06,0,63.23,41,116.74,97.94,135.94L459,441H641Z" fill="#3ecdfd"/>
        <path d="M687,448L565,584H383c-16.15,0-31.51-2.11-46-7L202,727H641c79.54,0,144-63.66,144-143C785,520.77,743.9,467.19,687,448Z" fill="#fc461e"/>
      </g>
      <path d="M565,584L687,448c-14.49-4.89-29.85-7-46-7H459L337,577c14.49,4.89,29.85,7,46,7H565Z" fill="#000c2f"/>
    </g>
    <path d="M512,1004C232.57,1004,5.44,780.15.11,502,0,505.33,0,508.66,0,512c0,282.77,229.23,512,512,512s512-229.23,512-512c0-3.34,0-6.67-.11-10C1018.56,780.15,791.43,1004,512,1004Z" fill="#000c2f" opacity="0.1"/>
    <path d="M512,20c279.43,0,506.56,223.85,511.89,502,0.06-3.33.11-6.66,0.11-10C1024,229.23,794.77,0,512,0S0,229.23,0,512c0,3.34,0,6.67.11,10C5.44,243.85,232.57,20,512,20Z" fill="#000c2f" opacity="0.05"/>
  </g>
</svg>
