<?xml version="1.0" encoding="utf-8"?>
<!-- Generator: Adobe Illustrator 18.1.1, SVG Export Plug-In . SVG Version: 6.00 Build 0)  -->
<svg version="1.1"
	 id="svg2008" xmlns:dc="http://purl.org/dc/elements/1.1/" xmlns:cc="http://web.resource.org/cc/" xmlns:rdf="http://www.w3.org/1999/02/22-rdf-syntax-ns#" xmlns:svg="http://www.w3.org/2000/svg" xmlns:sodipodi="http://sodipodi.sourceforge.net/DTD/sodipodi-0.dtd" xmlns:inkscape="http://www.inkscape.org/namespaces/inkscape" sodipodi:docname="T-Mobile.svg" inkscape:version="0.44" sodipodi:version="0.32" sodipodi:docbase="C:\Dokumente und Einstellungen\Andreas\Eigene Dateien\Eigene Bilder\sonstiges\Logos\Vektor\communications"
	 xmlns="http://www.w3.org/2000/svg" xmlns:xlink="http://www.w3.org/1999/xlink" x="0px" y="0px" viewBox="71.2 543.5 3072.8 512"
	 enable-background="new 71.2 543.5 3072.8 512" xml:space="preserve">
<sodipodi:namedview  width="186.67mm" height="27.6mm" inkscape:cy="520" inkscape:cx="350" inkscape:zoom="0.35" borderopacity="1.0" pagecolor="#ffffff" bordercolor="#666666" id="base" inkscape:current-layer="layer1" inkscape:window-y="115" inkscape:window-x="115" inkscape:window-height="574" inkscape:window-width="904" inkscape:pageshadow="2" inkscape:pageopacity="0.0" inkscape:document-units="px" units="mm">
	</sodipodi:namedview>
<g>
	<path id="path18" fill="#999B9E" d="M71.2,772.4h100.5V875H71.2V772.4z"/>
	<path id="path20" fill="#ED008C" d="M312.5,567.8h11.9c77,0,112.9,41.2,127.9,151l23.8-1.1L473,543.5H81.2l-3.9,174.3l22.9,1.1
		c4-41.2,8.7-63.4,19.1-85.6c18.3-41.2,56.4-65.5,103.3-65.5h16.7V947c0,40.1-2.4,52.8-11.9,62.3c-8,7.4-23.9,10.6-42.1,10.6h-18.3
		v25.3h217.8v-25.3h-18.4c-18.2,0-34.2-3.2-42-10.6c-9.5-9.5-11.9-22.2-11.9-62.3L312.5,567.8"/>
	<path id="path22" fill="#999B9E" d="M378.6,772.4h100.5V875H378.6V772.4z"/>
	<path id="path24" fill="#999B9E" d="M675.3,772.4h100.6V875H675.3V772.4z"/>
	<path id="path26" fill="#999B9E" d="M976.8,772.4h100.5V875H976.8V772.4z"/>
	<path id="path28" fill="#999B9E" d="M1349,1045.2l127-443v347.6c0,37.9-2.2,51.3-10.8,60.5c-6.5,7.2-21.4,10.3-38,10.3h-6.5v24.6
		h179.5v-24.6h-9.3c-16.5,0-31.6-3.1-38-10.3c-8.6-9.2-10.8-22.6-10.8-60.5V653.5c0-37.9,2.2-52.3,10.8-61.5
		c7.2-6.2,21.5-10.3,38-10.3h9.3v-23.6h-139.2L1356.1,916l-102.5-357.9H1115v23.6h12.9c38,0,45.2,8.2,45.2,57.4v282
		c0,45.1-2.2,63.6-8.6,76.9c-7.2,13.3-22.4,22.6-38,22.6H1115v24.6h147.9v-24.6h-9.3c-18.7,0-33.7-7.2-42.5-21.5
		c-8.5-14.4-10.7-27.7-10.7-77.9V602.2l126.2,443L1349,1045.2"/>
	<path id="path30" fill="#999B9E" d="M1754.5,698.6c-89,0-147.1,69.7-147.1,179.5c0,105.6,58.1,177.4,144.9,177.4
		c87.6,0,145.7-71.8,145.7-178.4C1897.9,771.4,1839.8,698.6,1754.5,698.6 M1751.6,722.2c25.7,0,48,16.4,60.2,44.1
		c11.5,25.6,16.5,60.5,16.5,110.7c0,103.6-25.1,154.8-76.1,154.8c-50.9,0-75.4-51.3-75.4-155.9c0-49.2,5.1-84.1,16.6-109.7
		C1704.9,739.6,1727.9,722.2,1751.6,722.2"/>
	<path id="path32" fill="#999B9E" d="M2017.2,553l-101.9,5.1v22.6h4.9c30.2,0,36.7,10.3,36.7,58.4v333.3c0,43.1-1.4,54.3-7.2,72.8
		h23.7c17.8-29.7,22.2-34.9,29.4-34.9c3.5,0,7,1,12.1,6.2c35.3,28.7,50.3,34.9,82.6,34.9c77.4,0,133.4-74.9,133.4-181.5
		c0-100.5-51.8-168.2-129.2-168.2c-40.2,0-69.5,19.5-84.6,54.3L2017.2,553 M2091.6,727.3c46,0,69.7,49.2,69.7,145.6
		c0,101.5-24.4,153.8-71.1,153.8c-51.7,0-78.9-53.3-78.9-150.7c0-49.2,6.5-83.1,21.5-108.7C2046.5,742.7,2069.6,727.3,2091.6,727.3"
		/>
	<path id="path34" fill="#999B9E" d="M2363.8,703.7l-104.7,6.2v22.6h7.9c30,0,36.5,10.3,36.5,57.4v173.3c0,47.2-6.5,58.5-36.5,58.5
		h-11.4v23.6h156.3v-23.6h-11.3c-30.3,0-36.8-10.3-36.8-58.5L2363.8,703.7 M2329.4,554c-22.2,0-40.2,17.4-40.2,41
		c0,21.5,17.9,40,39.5,40c22.2,0,39.5-17.4,39.5-40S2351,554,2329.4,554"/>
	<path id="path36" fill="#999B9E" d="M2545.4,553l-104.7,5.1v22.6h7.8c30.1,0,36.6,10.3,36.6,58.4v324c0,48.2-6.5,58.5-36.6,58.5
		h-11.4v23.6h156.4v-23.6H2582c-30.3,0-36.6-10.3-36.6-58.5L2545.4,553"/>
	<path id="path38" fill="#999B9E" d="M2879.1,875c-3.5-108.7-55.2-176.4-133.3-176.4c-75.5,0-129.9,73.8-129.9,176.4
		c0,109.7,53.7,180.5,137,180.5c53.8,0,91.2-28.7,122-92.3l-21.5-11.3c-25.1,53.3-50.2,74.9-89,74.9c-56.7,0-81-45.1-81.7-151.8
		L2879.1,875 M2683.3,849.3c0.6-76.9,25.6-125.1,65.9-125.1c40.2,0,63.9,47.2,63.2,125.1H2683.3"/>
	<path id="path40" fill="#999B9E" d="M2969.7,772.4h100.5V875h-100.5V772.4z"/>
	<g>
		<g>
			<path fill="#999B9E" d="M3107.9,690.3c6.1,0,12,1.6,17.8,4.7c5.8,3.1,10.3,7.6,13.5,13.4c3.2,5.8,4.8,11.8,4.8,18.1
				c0,6.2-1.6,12.2-4.8,17.9c-3.2,5.7-7.6,10.2-13.4,13.4c-5.7,3.2-11.7,4.8-18,4.8c-6.3,0-12.2-1.6-18-4.8
				c-5.7-3.2-10.2-7.6-13.4-13.4c-3.2-5.7-4.8-11.7-4.8-17.9c0-6.3,1.6-12.3,4.9-18.1c3.2-5.8,7.7-10.2,13.5-13.4
				C3095.9,691.8,3101.8,690.3,3107.9,690.3z M3107.9,696.3c-5.1,0-10,1.3-14.8,3.9c-4.8,2.6-8.6,6.3-11.3,11.1
				c-2.7,4.8-4.1,9.9-4.1,15.1c0,5.2,1.3,10.2,4,14.9c2.7,4.8,6.4,8.5,11.2,11.1c4.8,2.7,9.8,4,15,4c5.2,0,10.2-1.3,15-4
				c4.8-2.7,8.5-6.4,11.1-11.1c2.6-4.8,4-9.7,4-14.9c0-5.2-1.3-10.3-4-15.1c-2.7-4.8-6.4-8.5-11.3-11.1
				C3117.9,697.6,3112.9,696.3,3107.9,696.3z M3092,746.3v-38.9h13.4c4.6,0,7.9,0.4,9.9,1.1c2.1,0.7,3.7,2,4.9,3.8
				c1.2,1.8,1.8,3.7,1.8,5.7c0,2.8-1,5.3-3.1,7.4c-2,2.1-4.7,3.3-8.1,3.5c1.4,0.6,2.5,1.3,3.3,2.1c1.6,1.5,3.5,4.1,5.8,7.7l4.7,7.6
				h-7.7l-3.5-6.1c-2.7-4.8-4.9-7.8-6.5-9c-1.1-0.9-2.8-1.4-5-1.4h-3.7v16.5L3092,746.3L3092,746.3z M3098.3,724.5h7.6
				c3.6,0,6.1-0.5,7.5-1.6c1.3-1.1,2-2.5,2-4.3c0-1.2-0.3-2.2-1-3.1c-0.6-0.9-1.5-1.6-2.7-2c-1.1-0.4-3.2-0.7-6.3-0.7h-7.2
				L3098.3,724.5L3098.3,724.5z"/>
		</g>
	</g>
</g>
</svg>
