<svg id="ECHMOG" xmlns="http://www.w3.org/2000/svg" viewBox="0 0 486.39 80.18"><defs><style>.cls-1{isolation:isolate;}.cls-2{fill-rule:evenodd;}</style></defs><title>logo</title><path d="M119.66,189V112.9h51.16v15.48H137.4v14.4H169v14.73H137.4v15.8h35.36V189H119.66Z" transform="translate(-50.24 -110.86)"/><path d="M230.56,187.66A40.74,40.74,0,0,1,213.47,191a44.59,44.59,0,0,1-16.28-2.9,37.59,37.59,0,0,1-21.55-21,44.58,44.58,0,0,1,.05-32.89,36.81,36.81,0,0,1,8.76-12.63,38.8,38.8,0,0,1,13.11-8,47,47,0,0,1,32.08.05A30.36,30.36,0,0,1,242.27,122l-12.47,12.47a15.43,15.43,0,0,0-6.77-5.27,22.48,22.48,0,0,0-8.6-1.72,21.78,21.78,0,0,0-8.87,1.77,20.81,20.81,0,0,0-6.93,4.89,22.3,22.3,0,0,0-4.51,7.36,26,26,0,0,0-1.61,9.3,26.74,26.74,0,0,0,1.61,9.46,22,22,0,0,0,4.46,7.36,20.06,20.06,0,0,0,6.82,4.78,21.69,21.69,0,0,0,8.71,1.72,20.25,20.25,0,0,0,9.57-2.15,18.54,18.54,0,0,0,6.56-5.59l12.79,12A36.22,36.22,0,0,1,230.56,187.66Z" transform="translate(-50.24 -110.86)"/><path d="M290.51,189V157.19H260.85V189H242.47V112.9h18.38v28.8h29.66V112.9h18.38V189H290.51Z" transform="translate(-50.24 -110.86)"/><path d="M361.23,189l0.43-53.85h-0.32L341.56,189h-12.9l-19.24-53.85H309.1L309.53,189h-17.3V112.9h26.15l17.33,48.8h0.43l16.57-48.8h26.58V189H361.23Z" transform="translate(-50.24 -110.86)"/><path d="M463.8,150.63a42.45,42.45,0,0,1-3.12,16.5A37.59,37.59,0,0,1,452,179.92a38.52,38.52,0,0,1-13.17,8.22,48.51,48.51,0,0,1-33.05,0,38.61,38.61,0,0,1-13.11-8.22A37.53,37.53,0,0,1,384,167.13a42.41,42.41,0,0,1-3.12-16.5,41.91,41.91,0,0,1,3.12-16.5,36.11,36.11,0,0,1,8.65-12.52,38.55,38.55,0,0,1,13.11-8,50.25,50.25,0,0,1,33.05,0,38.48,38.48,0,0,1,13.17,8,36.16,36.16,0,0,1,8.65,12.52A42,42,0,0,1,463.8,150.63Zm-19.67,0a26.13,26.13,0,0,0-1.61-9.24,22.07,22.07,0,0,0-4.46-7.36,20.59,20.59,0,0,0-6.88-4.84,21.77,21.77,0,0,0-8.87-1.77A21.15,21.15,0,0,0,406.62,134a20.92,20.92,0,0,0-4.46,7.36,26.92,26.92,0,0,0-1.56,9.24,27.2,27.2,0,0,0,1.61,9.51,22.51,22.51,0,0,0,4.46,7.47,20.33,20.33,0,0,0,6.83,4.89,22.78,22.78,0,0,0,17.63,0,21,21,0,0,0,6.88-4.89,22.05,22.05,0,0,0,4.51-7.47A27.2,27.2,0,0,0,444.13,150.63Z" transform="translate(-50.24 -110.86)"/><path d="M523.57,189.11a68.48,68.48,0,0,1-16.28,1.83,47.22,47.22,0,0,1-16.82-2.9,38.8,38.8,0,0,1-13.22-8.17,37.21,37.21,0,0,1-8.65-12.63,44.72,44.72,0,0,1,.05-32.94,36.81,36.81,0,0,1,8.76-12.63,38.79,38.79,0,0,1,13.11-8,46.25,46.25,0,0,1,16.23-2.79,49.88,49.88,0,0,1,16.77,2.74A34.67,34.67,0,0,1,536.09,121l-11.61,13.22a20.13,20.13,0,0,0-7.09-5.1,24.07,24.07,0,0,0-10-2,22.16,22.16,0,0,0-8.92,1.77,21.46,21.46,0,0,0-7.09,4.94,22.42,22.42,0,0,0-4.67,7.52,26.36,26.36,0,0,0-1.67,9.51,29.72,29.72,0,0,0,1.5,9.67,20.76,20.76,0,0,0,4.46,7.58,20.28,20.28,0,0,0,7.31,4.94,26.17,26.17,0,0,0,9.94,1.77,37.27,37.27,0,0,0,6.13-.48,22.84,22.84,0,0,0,5.37-1.56V158.9H505.25V144.07h31.38v40.3A58.43,58.43,0,0,1,523.57,189.11Z" transform="translate(-50.24 -110.86)"/><g id="Shape_1" data-name="Shape 1" class="cls-1"><g id="Shape_1-2" data-name="Shape 1"><path class="cls-2" d="M65.22,113.1c-9.42,10.1-15,16-15,16h28V189h18V129.08h21v-16H65.22Z" transform="translate(-50.24 -110.86)"/></g></g></svg>