<?xml version="1.0" encoding="UTF-8"?>
<!DOCTYPE svg PUBLIC "-//W3C//DTD SVG 1.1//EN" "http://www.w3.org/Graphics/SVG/1.1/DTD/svg11.dtd">
<!-- Creator: CorelDRAW X6 -->
<svg xmlns="http://www.w3.org/2000/svg" xml:space="preserve" width="5.82677in" height="4.13386in" version="1.1" style="shape-rendering:geometricPrecision; text-rendering:geometricPrecision; image-rendering:optimizeQuality; fill-rule:evenodd; clip-rule:evenodd"
viewBox="0 0 5827 4134"
 xmlns:xlink="http://www.w3.org/1999/xlink">
 <defs>
  <style type="text/css">
   <![CDATA[
    .fil0 {fill:none}
    .fil1 {fill:#195BA2}
    .fil2 {fill:#ED323D}
   ]]>
  </style>
 </defs>
 <g id="Layer_x0020_1">
  <metadata id="CorelCorpID_0Corel-Layer"/>
  <g id="_597127512">
   <rect class="fil0" width="5827" height="4134"/>
   <g>
    <path class="fil1" d="M628 2574l657 0c8,0 8,4 0,8 -73,35 -181,142 -181,142 -73,73 -131,119 -258,119l-631 0c-4,0 -4,-8 0,-8 69,-38 173,-146 173,-146 42,-50 131,-115 238,-115z"/>
    <path class="fil1" d="M4949 2574l661 0c4,0 4,4 0,8 -77,35 -181,142 -181,142 -77,73 -135,119 -258,119l-631 0c-4,0 -4,-8 0,-8 69,-38 173,-146 173,-146 42,-50 127,-115 235,-115z"/>
    <path class="fil1" d="M1708 2574l657 0c8,0 8,4 0,8 -73,35 -181,142 -181,142 -73,73 -131,119 -258,119l-627 0c-8,0 -8,-8 -4,-8 69,-38 173,-146 173,-146 42,-50 131,-115 238,-115z"/>
    <path class="fil1" d="M2788 2574l657 0c8,0 8,4 0,8 -73,35 -181,142 -181,142 -73,73 -131,119 -254,119l-631 0c-4,0 -4,-8 -4,-8 73,-38 173,-146 173,-146 42,-50 131,-115 238,-115z"/>
    <path class="fil1" d="M3869 2574l661 0c4,0 4,4 -4,8 -73,35 -181,142 -181,142 -73,73 -131,119 -254,119l-631 0c-4,0 -4,-8 0,-8 69,-38 173,-146 173,-146 38,-50 127,-115 235,-115z"/>
    <path class="fil2" d="M4050 1290c-415,0 -692,215 -692,542 0,300 254,500 631,500 123,0 231,-15 358,-50l0 -250c-88,100 -196,138 -311,138 -223,0 -377,-146 -377,-361 0,-211 158,-365 381,-365 119,0 215,46 292,127l0 -254c-81,-15 -181,-27 -281,-27z"/>
    <path class="fil2" d="M951 1467c154,0 338,31 415,96l0 -238 -1092 0 0 238c77,-65 242,-92 419,-92l0 654c0,96 -8,123 -46,173l350 0c-38,-50 -46,-77 -46,-173l0 -657z"/>
    <path class="fil2" d="M2066 1702c-62,23 -177,27 -235,27l-92 0 0 -258 123 0c112,0 300,23 373,88l0 -235 -796 0c38,46 46,77 46,169l0 631c0,96 -8,123 -42,173l846 0 0 -238c-115,88 -338,88 -427,88l-123 0 0 -273 88 0c62,0 173,8 238,31l0 -204z"/>
    <path class="fil2" d="M3246 1356c-127,-42 -292,-65 -419,-65 -231,0 -454,73 -454,319 0,423 692,200 692,461 0,85 -123,119 -223,119 -177,0 -300,-31 -454,-131l0 215c115,38 273,62 442,62 238,0 461,-69 461,-319 0,-446 -688,-246 -688,-461 0,-88 112,-119 208,-119 161,0 338,50 434,146l0 -227z"/>
    <path class="fil2" d="M5022 1306c-373,0 -638,215 -638,519 0,300 238,496 588,496 377,0 638,-208 638,-515 0,-300 -238,-500 -588,-500zm-27 869c-200,0 -327,-161 -327,-361 0,-200 127,-361 327,-361 196,0 327,161 327,361 0,200 -131,361 -327,361z"/>
   </g>
  </g>
 </g>
</svg>
