<?xml version="1.0" encoding="utf-8"?>
<!-- Generator: Adobe Illustrator 19.1.0, SVG Export Plug-In . SVG Version: 6.00 Build 0)  -->
<svg version="1.1" id="Layer_1" xmlns="http://www.w3.org/2000/svg" xmlns:xlink="http://www.w3.org/1999/xlink" x="0px" y="0px"
	 viewBox="70 0 652 612" style="enable-background:new 70 0 652 612;" xml:space="preserve">
<style type="text/css">
	.st0{fill:#500000;}
	.st1{fill:#FFFFFF;}
	.st2{fill:#B6B6B6;}
</style>
<g>
	<g>
		<rect x="88.1" y="10.4" class="st0" width="585.5" height="590.1"/>
	</g>
	<polygon class="st1" points="595.8,245.3 552.3,245.3 549.8,245.3 548.7,247.6 517.2,313.2 485.5,247.5 484.4,245.3 481.9,245.3 
		439.9,245.3 435.9,245.3 435.9,249.3 435.9,271.7 435.9,275.7 439.9,275.7 447.1,275.7 447.1,369.7 439.3,369.7 435.3,369.7 
		435.3,373.7 435.3,396 435.3,400.1 439.3,400.1 486.5,400.1 490.5,400.1 490.5,396 490.5,373.7 490.5,369.7 486.5,369.7 
		478.4,369.7 478.4,303 513.6,375.7 517.2,383.1 520.8,375.7 556.4,302.8 556.4,369.7 548.7,369.7 544.6,369.7 544.6,373.7 
		544.6,396 544.6,400.1 548.7,400.1 595.8,400.1 599.9,400.1 599.9,396 599.9,373.7 599.9,369.7 595.8,369.7 587.7,369.7 
		587.7,275.7 595.8,275.7 599.9,275.7 599.9,271.7 599.9,249.3 599.9,245.3 	"/>
	<path class="st1" d="M321.8,369.6h-12.5l-40.8-94.4h3.9h4v-4v-22.4v-4h-4h-57.7h-4v4v22.4v4h4h5l-40.8,94.4h-13h-4v4V396v4h4h51.5
		h4v-4v-22.4v-4h-4h-4.7l6.8-15.7h49.1l6.8,15.7h-5.1h-4v4V396v4h4h51.5h4v-4v-22.4v-4H321.8z M255.4,323.5h-22.8l11.4-26.4
		L255.4,323.5z"/>
	<rect x="220.5" y="133.2" class="st2" width="312.5" height="27.9"/>
	<rect x="518.2" y="137.6" class="st2" width="26.2" height="77.7"/>
	<rect x="377.6" y="152.4" class="st2" width="27.1" height="297.7"/>
	<rect x="416.9" y="430.1" class="st2" width="25.3" height="46.3"/>
	<path class="st1" d="M545.9,127.3H214.7h-4.6v4.6v88.5v4.6h4.6h57.2h4.6v-4.6v-32.9h70.7v233.1h-32.9h-4.6v4.6v57.2v4.6h4.6h132.1
		h4.6v-4.6v-57.2v-4.6h-4.6h-32.8V187.4h70.2v32.4v4.6h4.6h57.6h4.6v-4.6v-88.1v-4.6H545.9z M423.3,447.8l14-14.4v39.5l-14-13.4
		V447.8z M400,434.4l-14,13.8V159.9l14,14V434.4z M238.2,154.9l-14.4-14h306.1l-18.1,14H238.2z M537.3,211.7l-14-13.4v-35.6l14-14.4
		V211.7z"/>
	<g>
		<path class="st0" d="M694.4,592.8c0-6.5,5.3-11.7,11.7-11.7c6.5,0,11.7,5.3,11.7,11.7c0,6.5-5.3,11.7-11.7,11.7
			C699.7,604.6,694.4,599.3,694.4,592.8z M715,592.8c0-5.5-4-9.5-8.9-9.5c-4.9,0-8.9,4-8.9,9.5c0,5.5,4,9.5,8.9,9.5
			C711.1,602.3,715,598.3,715,592.8z M701.6,586.1h4.9c3.2,0,4.9,1.1,4.9,3.9c0,2.3-1.3,3.4-3.5,3.6l3.6,5.8H709l-3.4-5.7h-1.5v5.7
			h-2.5L701.6,586.1L701.6,586.1z M704.1,591.8h2.2c1.5,0,2.7-0.2,2.7-2c0-1.6-1.4-1.8-2.7-1.8h-2.2V591.8z"/>
	</g>
</g>
</svg>
