<?xml version="1.0" encoding="utf-8"?>
<!-- Generator: Adobe Illustrator 19.1.0, SVG Export Plug-In . SVG Version: 6.00 Build 0)  -->
<svg version="1.1" id="Layer_1" xmlns="http://www.w3.org/2000/svg" xmlns:xlink="http://www.w3.org/1999/xlink" x="0px" y="0px"
	 viewBox="-89 29.1 612 511.5" style="enable-background:new -89 29.1 612 511.5;" xml:space="preserve">
<style type="text/css">
	.st0{fill:#500000;}
</style>
<g>
	<g>
		<polygon class="st0" points="504.3,198.9 445.5,198.9 442.1,198.9 440.6,202 398,290.7 355.2,202 353.7,198.9 350.3,198.9 
			293.5,198.9 288.1,198.9 288.1,204.3 288.1,234.6 288.1,240 293.5,240 303.2,240 303.2,367.1 292.7,367.1 287.3,367.1 
			287.3,372.5 287.3,402.7 287.3,408.2 292.7,408.2 356.5,408.2 361.9,408.2 361.9,402.7 361.9,372.5 361.9,367.1 356.5,367.1 
			345.5,367.1 345.5,276.9 393.1,375.2 398,385.2 402.9,375.2 451,276.7 451,367.1 440.5,367.1 435.1,367.1 435.1,372.5 
			435.1,402.7 435.1,408.2 440.5,408.2 504.3,408.2 509.7,408.2 509.7,402.7 509.7,372.5 509.7,367.1 504.3,367.1 493.3,367.1 
			493.3,240 504.3,240 509.7,240 509.7,234.6 509.7,204.3 509.7,198.9 		"/>
		<path class="st0" d="M133.8,367h-16.9L61.6,239.3h5.3h5.4v-5.4v-30.3v-5.4h-5.4H-11h-5.4v5.4v30.3v5.4h5.4h6.8L-59.4,367H-77h-5.4
			v5.4v30.3v5.4h5.4h69.6h5.4v-5.4v-30.3V367h-5.4h-6.3l9.2-21.3h66.4l9.2,21.3h-6.9h-5.4v5.4v30.3v5.4h5.4h69.7h5.4v-5.4v-30.3V367
			H133.8z M44.1,304.6H13.3l15.4-35.7L44.1,304.6z"/>
		<path class="st0" d="M436.8,39.4H-10.9h-6.2v6.2v119.6v6.2h6.2h77.3h6.1v-6.2v-44.4h95.5v315.2h-44.4h-6.2v6.2v77.3v6.2h6.2h178.5
			h6.2v-6.2v-77.3v-6.2h-6.2h-44.4V120.7h94.9v43.9v6.2h6.2h77.8h6.2v-6.2v-119v-6.2L436.8,39.4L436.8,39.4z M270.7,473.1l18.9-19.5
			v53.5L270.7,489V473.1z M239.1,455l-18.9,18.7V83.6l18.9,18.9V455z M20.1,76.7L0.6,57.8h414.2l-24.5,18.9H20.1z M424.9,153.5
			L406,135.5V87.3l18.9-19.5V153.5z"/>
	</g>
	<g>
		<path class="st0" d="M329.3,507c0-10.1,8.3-18.4,18.4-18.4c10.1,0,18.4,8.2,18.4,18.4c0,10.2-8.2,18.3-18.4,18.3
			C337.6,525.3,329.3,517.1,329.3,507z M361.6,507c0-8.6-6.2-14.8-13.9-14.8c-7.7,0-13.8,6.2-13.8,14.8c0,8.6,6.2,14.8,13.8,14.8
			C355.4,521.7,361.6,515.6,361.6,507z M340.6,496.5h7.7c5,0,7.7,1.8,7.7,6.1c0,3.5-2,5.3-5.4,5.6l5.6,9.1h-4l-5.4-9h-2.3v9h-3.9
			V496.5z M344.5,505.4h3.4c2.3,0,4.3-0.3,4.3-3.1c0-2.4-2.2-2.9-4.2-2.9h-3.5L344.5,505.4L344.5,505.4z"/>
	</g>
</g>
</svg>
