<?xml version="1.0" encoding="iso-8859-1"?><!-- Generator: Adobe Illustrator 16.0.0, SVG Export Plug-In . SVG Version: 6.00 Build 0) --><!DOCTYPE svg PUBLIC "-//W3C//DTD SVG 1.1//EN" "http://www.w3.org/Graphics/SVG/1.1/DTD/svg11.dtd"><svg version="1.1" id="Layer_1" xmlns="http://www.w3.org/2000/svg" xmlns:xlink="http://www.w3.org/1999/xlink" x="0px" y="0px" width="192.756px" height="192.756px" viewBox="0 0 192.756 192.756" style="enable-background:new 0 0 192.756 192.756;" xml:space="preserve"><g><polygon style="fill-rule:evenodd;clip-rule:evenodd;fill:#FFFFFF;" points="0,0 192.756,0 192.756,192.756 0,192.756 0,0	"/><polygon style="fill-rule:evenodd;clip-rule:evenodd;fill:#365185;" points="4.512,96.377 96.048,187.914 188.238,96.348	96.048,4.841 4.512,96.377	"/><path style="fill-rule:evenodd;clip-rule:evenodd;fill:#C8C7CD;" d="M95.21,4.002L2.834,96.377l93.211,93.213l93.876-93.242	L96.046,3.167L95.21,4.002L95.21,4.002z M96.052,6.515c1.631,1.62,88.852,88.195,90.502,89.833	c-1.65,1.637-88.871,88.271-90.502,89.893c-1.627-1.627-88.231-88.23-89.863-89.863C7.821,94.746,94.426,8.142,96.052,6.515	L96.052,6.515z"/><polygon style="fill-rule:evenodd;clip-rule:evenodd;fill:#C8C7CD;" points="95.65,4.881 95.65,188.377 96.598,188.377	96.598,4.881 95.65,4.881	"/><polygon style="fill-rule:evenodd;clip-rule:evenodd;fill:#C8C7CD;" points="87.687,13.564 87.687,180.07 88.635,180.07	88.635,13.564 87.687,13.564	"/><polygon style="fill-rule:evenodd;clip-rule:evenodd;fill:#C8C7CD;" points="79.722,21.116 79.722,171.764 80.671,171.764	80.671,21.116 79.722,21.116	"/><polygon style="fill-rule:evenodd;clip-rule:evenodd;fill:#C8C7CD;" points="71.759,29.045 71.759,163.836 72.708,163.836	72.708,29.045 71.759,29.045	"/><polygon style="fill-rule:evenodd;clip-rule:evenodd;fill:#C8C7CD;" points="63.795,36.596 63.795,155.529 64.745,155.529	64.745,36.596 63.795,36.596	"/><polygon style="fill-rule:evenodd;clip-rule:evenodd;fill:#C8C7CD;" points="55.832,44.903 55.832,147.979 56.781,147.979	56.781,44.903 55.832,44.903	"/><polygon style="fill-rule:evenodd;clip-rule:evenodd;fill:#C8C7CD;" points="47.869,52.454 47.869,140.049 48.817,140.049	48.817,52.454 47.869,52.454	"/><polygon style="fill-rule:evenodd;clip-rule:evenodd;fill:#C8C7CD;" points="39.905,60.76 39.905,132.498 40.854,132.498	40.854,60.76 39.905,60.76	"/><polygon style="fill-rule:evenodd;clip-rule:evenodd;fill:#C8C7CD;" points="31.941,68.312 31.941,124.568 32.89,124.568	32.89,68.312 31.941,68.312	"/><polygon style="fill-rule:evenodd;clip-rule:evenodd;fill:#C8C7CD;" points="23.978,75.863 23.978,116.641 24.927,116.641	24.927,75.863 23.978,75.863	"/><polygon style="fill-rule:evenodd;clip-rule:evenodd;fill:#C8C7CD;" points="16.014,84.546 16.014,108.711 16.963,108.711	16.963,84.546 16.014,84.546	"/><polygon style="fill-rule:evenodd;clip-rule:evenodd;fill:#C8C7CD;" points="8.05,92.476 8.05,101.16 9,101.16 9,92.476	8.05,92.476	"/><polygon style="fill-rule:evenodd;clip-rule:evenodd;fill:#C8C7CD;" points="103.613,13.564 103.613,180.07 104.562,180.07	104.562,13.564 103.613,13.564	"/><polygon style="fill-rule:evenodd;clip-rule:evenodd;fill:#C8C7CD;" points="111.578,21.116 111.578,171.764 112.525,171.764	112.525,21.116 111.578,21.116	"/><polygon style="fill-rule:evenodd;clip-rule:evenodd;fill:#C8C7CD;" points="119.541,29.045 119.541,163.836 120.488,163.836	120.488,29.045 119.541,29.045	"/><polygon style="fill-rule:evenodd;clip-rule:evenodd;fill:#C8C7CD;" points="127.504,36.596 127.504,155.529 128.453,155.529	128.453,36.596 127.504,36.596	"/><polygon style="fill-rule:evenodd;clip-rule:evenodd;fill:#C8C7CD;" points="135.469,44.903 135.469,147.979 136.416,147.979	136.416,44.903 135.469,44.903	"/><polygon style="fill-rule:evenodd;clip-rule:evenodd;fill:#C8C7CD;" points="143.432,52.454 143.432,140.049 144.379,140.049	144.379,52.454 143.432,52.454	"/><polygon style="fill-rule:evenodd;clip-rule:evenodd;fill:#C8C7CD;" points="151.395,60.76 151.395,132.498 152.344,132.498	152.344,60.76 151.395,60.76	"/><polygon style="fill-rule:evenodd;clip-rule:evenodd;fill:#C8C7CD;" points="159.359,68.312 159.359,124.568 160.307,124.568	160.307,68.312 159.359,68.312	"/><polygon style="fill-rule:evenodd;clip-rule:evenodd;fill:#C8C7CD;" points="167.322,75.863 167.322,116.641 168.27,116.641	168.27,75.863 167.322,75.863	"/><polygon style="fill-rule:evenodd;clip-rule:evenodd;fill:#C8C7CD;" points="175.287,84.546 175.287,108.711 176.234,108.711	176.234,84.546 175.287,84.546	"/><polygon style="fill-rule:evenodd;clip-rule:evenodd;fill:#C8C7CD;" points="183.25,92.476 183.25,101.16 184.197,101.16	184.197,92.476 183.25,92.476	"/><path style="fill-rule:evenodd;clip-rule:evenodd;fill:#AC3530;" d="M96.352,34.876c-34.095,0-61.733,27.638-61.733,61.731	c0,34.094,27.638,61.732,61.733,61.732c34.093,0,61.732-27.639,61.732-61.732C158.084,62.514,130.445,34.876,96.352,34.876	L96.352,34.876z M96.351,143.615c-25.961,0-47.006-21.047-47.006-47.008c0-25.961,21.045-47.006,47.006-47.006	c25.96,0,47.007,21.045,47.007,47.006C143.357,122.568,122.311,143.615,96.351,143.615L96.351,143.615z"/><path style="fill-rule:evenodd;clip-rule:evenodd;fill:#C8C7CD;" d="M96.351,47.336c-27.213,0-49.272,22.059-49.272,49.272	c0,27.212,22.059,49.272,49.272,49.272c27.211,0,49.272-22.061,49.272-49.272C145.623,69.395,123.562,47.336,96.351,47.336	L96.351,47.336z M96.351,143.615c-25.96,0-47.006-21.047-47.006-47.008c0-25.961,21.046-47.006,47.006-47.006	c25.96,0,47.007,21.045,47.007,47.006C143.357,122.568,122.311,143.615,96.351,143.615L96.351,143.615z"/><path style="fill-rule:evenodd;clip-rule:evenodd;fill:#FFFFFF;" d="M47.516,111.332l1.202,3.176	c0.238,0.629,0.389,1.107,0.454,1.436c0.065,0.33,0.06,0.646-0.014,0.953c-0.073,0.307-0.217,0.594-0.432,0.859	c-0.214,0.268-0.493,0.467-0.835,0.596c-0.372,0.141-0.75,0.17-1.136,0.088c-0.386-0.082-0.72-0.262-1.004-0.545	c0.042,0.535-0.058,0.998-0.299,1.385c-0.242,0.389-0.592,0.67-1.051,0.844c-0.362,0.135-0.745,0.186-1.15,0.146	c-0.405-0.039-0.765-0.166-1.079-0.379c-0.314-0.213-0.576-0.523-0.784-0.934c-0.13-0.256-0.392-0.895-0.787-1.914l-1.023-2.705	L47.516,111.332L47.516,111.332z M43.652,114.633l-2.127,0.805l0.563,1.486c0.219,0.58,0.375,0.939,0.465,1.082	c0.134,0.223,0.313,0.379,0.539,0.465c0.225,0.086,0.479,0.076,0.761-0.031c0.238-0.09,0.419-0.225,0.542-0.402	c0.123-0.18,0.181-0.393,0.173-0.641c-0.007-0.248-0.148-0.736-0.425-1.467L43.652,114.633L43.652,114.633z M46.806,113.438	l-1.837,0.695l0.397,1.051c0.236,0.625,0.392,1.01,0.468,1.154c0.136,0.262,0.312,0.441,0.53,0.539	c0.216,0.098,0.453,0.098,0.709,0c0.245-0.092,0.419-0.234,0.521-0.43c0.103-0.193,0.12-0.43,0.051-0.709	c-0.042-0.166-0.206-0.625-0.492-1.381L46.806,113.438L46.806,113.438z"/><path style="fill-rule:evenodd;clip-rule:evenodd;fill:#FFFFFF;" d="M48.913,132.514l-1.011-1.549l1.213-1.668l-1.869-2.865	l-1.999,0.465l-0.994-1.523l8.91-1.879l0.99,1.516L48.913,132.514L48.913,132.514z M50.009,128.045l1.99-2.717l-3.267,0.76	L50.009,128.045L50.009,128.045z"/><path style="fill-rule:evenodd;clip-rule:evenodd;fill:#FFFFFF;" d="M53.89,134.174l1.294,1.064	c-0.326,0.467-0.473,0.902-0.442,1.305s0.23,0.787,0.598,1.154c0.39,0.389,0.766,0.598,1.129,0.629	c0.363,0.031,0.655-0.064,0.877-0.287c0.142-0.143,0.222-0.305,0.239-0.488c0.017-0.182-0.041-0.414-0.174-0.693	c-0.092-0.191-0.326-0.602-0.702-1.23c-0.485-0.807-0.741-1.459-0.767-1.955c-0.036-0.699,0.184-1.285,0.66-1.762	c0.306-0.309,0.679-0.508,1.118-0.604c0.44-0.096,0.892-0.051,1.356,0.135c0.465,0.184,0.927,0.506,1.387,0.965	c0.751,0.748,1.151,1.479,1.2,2.191c0.048,0.709-0.195,1.352-0.728,1.926l-1.26-1.168c0.255-0.359,0.366-0.691,0.331-0.994	c-0.034-0.303-0.22-0.623-0.558-0.961c-0.349-0.348-0.694-0.547-1.035-0.6c-0.22-0.033-0.408,0.027-0.562,0.182	c-0.142,0.143-0.204,0.324-0.185,0.545c0.024,0.279,0.26,0.783,0.707,1.51s0.737,1.305,0.869,1.734	c0.133,0.432,0.148,0.855,0.049,1.273c-0.1,0.416-0.339,0.816-0.72,1.197c-0.345,0.348-0.763,0.574-1.256,0.686	c-0.492,0.111-0.986,0.066-1.482-0.137c-0.496-0.201-1.005-0.561-1.526-1.082c-0.758-0.756-1.166-1.514-1.222-2.271	C53.028,135.68,53.297,134.926,53.89,134.174L53.89,134.174z"/><polygon style="fill-rule:evenodd;clip-rule:evenodd;fill:#FFFFFF;" points="61.25,144.559 65.912,137.465 71.167,140.92	70.38,142.119 66.56,139.607 65.528,141.176 69.08,143.512 68.292,144.709 64.741,142.373 63.472,144.305 67.426,146.904	66.639,148.102 61.25,144.559	"/><path style="fill-rule:evenodd;clip-rule:evenodd;fill:#FFFFFF;" d="M74.804,142.824l3.164,1.232	c0.626,0.242,1.083,0.451,1.371,0.623c0.288,0.172,0.521,0.389,0.699,0.646c0.178,0.26,0.296,0.559,0.351,0.898	c0.055,0.338,0.016,0.678-0.117,1.02c-0.144,0.369-0.375,0.67-0.694,0.902c-0.318,0.23-0.678,0.357-1.078,0.379	c0.426,0.328,0.703,0.713,0.83,1.15c0.126,0.441,0.101,0.889-0.077,1.346c-0.141,0.359-0.36,0.678-0.66,0.953	c-0.3,0.273-0.635,0.457-1.004,0.547c-0.369,0.092-0.775,0.078-1.218-0.041c-0.277-0.074-0.927-0.307-1.949-0.697l-2.695-1.049	L74.804,142.824L74.804,142.824z M74.669,147.904l-0.825,2.119l1.482,0.574c0.576,0.225,0.949,0.352,1.116,0.381	c0.255,0.049,0.49,0.02,0.705-0.092c0.214-0.107,0.376-0.303,0.486-0.584c0.092-0.238,0.114-0.463,0.062-0.674	c-0.051-0.211-0.17-0.396-0.359-0.557c-0.189-0.16-0.647-0.381-1.376-0.666L74.669,147.904L74.669,147.904z M75.893,144.76	l-0.712,1.83l1.046,0.408c0.622,0.242,1.012,0.385,1.17,0.424c0.286,0.074,0.538,0.064,0.754-0.033	c0.218-0.094,0.377-0.27,0.476-0.525c0.095-0.244,0.105-0.471,0.03-0.676s-0.239-0.377-0.493-0.512	c-0.151-0.08-0.603-0.266-1.354-0.559L75.893,144.76L75.893,144.76z"/><path style="fill-rule:evenodd;clip-rule:evenodd;fill:#FFFFFF;" d="M91.485,155.955l-1.828-0.285l-0.43-2.018l-3.379-0.523	l-0.991,1.795l-1.797-0.277l4.559-7.883l1.79,0.277L91.485,155.955L91.485,155.955z M88.894,152.15l-0.689-3.295l-1.62,2.938	L88.894,152.15L88.894,152.15z"/><polygon style="fill-rule:evenodd;clip-rule:evenodd;fill:#FFFFFF;" points="96.633,156.072 96.239,147.654 97.955,147.574	98.281,154.561 102.527,154.361 102.594,155.793 96.633,156.072	"/><polygon style="fill-rule:evenodd;clip-rule:evenodd;fill:#FFFFFF;" points="107.971,154.975 105.982,146.785 107.652,146.379	109.301,153.176 113.432,152.174 113.77,153.566 107.971,154.975	"/><path style="fill-rule:evenodd;clip-rule:evenodd;fill:#FFFFFF;" d="M127.996,143.336l1.689-0.441	c0.275,0.926,0.283,1.738,0.018,2.436c-0.264,0.697-0.783,1.287-1.559,1.77c-0.957,0.596-1.949,0.758-2.973,0.488	c-1.025-0.271-1.891-0.975-2.598-2.113c-0.75-1.201-1.021-2.328-0.814-3.379c0.205-1.051,0.814-1.891,1.824-2.52	c0.881-0.549,1.76-0.734,2.635-0.557c0.52,0.104,1.043,0.393,1.564,0.867l-1.221,1.24c-0.318-0.318-0.68-0.502-1.084-0.549	c-0.406-0.047-0.803,0.049-1.189,0.291c-0.535,0.332-0.85,0.795-0.943,1.387c-0.096,0.592,0.125,1.318,0.66,2.178	c0.568,0.912,1.137,1.461,1.705,1.643c0.568,0.184,1.115,0.111,1.641-0.215c0.387-0.24,0.643-0.57,0.768-0.99	S128.203,143.939,127.996,143.336L127.996,143.336z"/><polygon style="fill-rule:evenodd;clip-rule:evenodd;fill:#FFFFFF;" points="135.541,141.521 129.738,135.41 130.984,134.227	135.801,139.299 138.883,136.373 139.869,137.412 135.541,141.521	"/><path style="fill-rule:evenodd;clip-rule:evenodd;fill:#FFFFFF;" d="M136.477,128.432l0.98-1.408l3.779,2.635	c0.598,0.418,0.998,0.672,1.199,0.76c0.328,0.139,0.656,0.156,0.986,0.053c0.33-0.105,0.631-0.354,0.904-0.744	c0.275-0.396,0.402-0.752,0.381-1.068c-0.023-0.314-0.139-0.576-0.348-0.783s-0.59-0.502-1.143-0.887l-3.855-2.691l0.982-1.408	l3.662,2.555c0.838,0.584,1.402,1.035,1.695,1.352c0.295,0.318,0.488,0.66,0.584,1.031c0.096,0.369,0.094,0.775-0.004,1.215	c-0.096,0.439-0.336,0.936-0.719,1.484c-0.465,0.664-0.893,1.113-1.285,1.35s-0.781,0.367-1.166,0.395	c-0.385,0.029-0.734-0.02-1.049-0.146c-0.463-0.186-1.084-0.551-1.865-1.096L136.477,128.432L136.477,128.432z"/><path style="fill-rule:evenodd;clip-rule:evenodd;fill:#FFFFFF;" d="M142.402,119.15l1.299-3.135	c0.258-0.621,0.477-1.072,0.652-1.357c0.18-0.283,0.4-0.512,0.664-0.684c0.264-0.174,0.564-0.283,0.904-0.33	c0.338-0.049,0.678-0.002,1.016,0.139c0.367,0.152,0.664,0.389,0.889,0.713s0.344,0.686,0.357,1.086	c0.336-0.418,0.727-0.688,1.166-0.805c0.441-0.115,0.891-0.08,1.344,0.107c0.357,0.148,0.67,0.375,0.938,0.68	c0.27,0.307,0.445,0.645,0.527,1.016s0.061,0.777-0.068,1.217c-0.082,0.275-0.328,0.922-0.738,1.936l-1.107,2.67L142.402,119.15	L142.402,119.15z M144.361,118.104l1.814,0.754l0.43-1.039c0.256-0.615,0.406-1.002,0.449-1.16	c0.082-0.283,0.076-0.535-0.016-0.756c-0.09-0.219-0.262-0.381-0.516-0.486c-0.242-0.1-0.469-0.115-0.676-0.043	c-0.207,0.068-0.381,0.23-0.521,0.48c-0.084,0.148-0.279,0.596-0.588,1.342L144.361,118.104L144.361,118.104z M147.477,119.396	l2.1,0.871l0.609-1.469c0.238-0.572,0.371-0.941,0.402-1.109c0.057-0.254,0.031-0.488-0.074-0.705	c-0.104-0.219-0.297-0.385-0.574-0.5c-0.236-0.098-0.459-0.123-0.672-0.076c-0.211,0.045-0.398,0.162-0.564,0.348	c-0.164,0.184-0.396,0.637-0.695,1.359L147.477,119.396L147.477,119.396z"/><polygon style="fill-rule:evenodd;clip-rule:evenodd;fill:#FFFFFF;" points="41.551,78.04 40.709,80.409 39.356,79.929	41.612,73.58 42.965,74.06 42.123,76.43 48.774,78.792 48.202,80.403 41.551,78.04	"/><polygon style="fill-rule:evenodd;clip-rule:evenodd;fill:#FFFFFF;" points="43.859,68.882 47.088,63.474 48.321,64.21	45.967,68.152 47.586,69.119 49.776,65.453 51.008,66.188 48.819,69.855 50.794,71.035 53.227,66.961 54.459,67.698 51.15,73.237	43.859,68.882	"/><polygon style="fill-rule:evenodd;clip-rule:evenodd;fill:#FFFFFF;" points="54.859,60.157 50.087,59.366 51.439,57.885	54.606,58.464 53.711,55.398 55.056,53.926 56.32,58.664 61.503,59.461 60.111,60.985 56.676,60.402 57.567,63.771 56.175,65.295	54.859,60.157	"/><path style="fill-rule:evenodd;clip-rule:evenodd;fill:#FFFFFF;" d="M68.673,53.958l-1.719-1.131l-2.755,1.98l0.554,1.969	l-1.483,1.066l-2.271-8.828l1.474-1.06l7.722,4.909L68.673,53.958L68.673,53.958z M65.674,51.98l-2.795-1.877l0.908,3.234	L65.674,51.98L65.674,51.98z"/><path style="fill-rule:evenodd;clip-rule:evenodd;fill:#FFFFFF;" d="M73.09,48.162c0.253,0.368,0.938,1.362,2.349,0.741	c1.096-0.483,1.276-1.25,1.057-1.749c-0.287-0.651-0.892-0.554-2.478-0.27c-0.857,0.144-2.758,0.476-3.514-1.239	c-0.373-0.847-0.402-2.416,1.877-3.419c1.519-0.669,3.172-0.685,4.012,1.045l-1.545,0.759c-0.242-0.373-0.683-1.048-1.92-0.503	c-0.467,0.206-1.251,0.72-0.974,1.35c0.22,0.499,0.804,0.501,2.182,0.244c1.308-0.239,3.082-0.566,3.923,1.344	c0.416,0.944,0.168,2-0.371,2.6c-0.552,0.632-1.323,0.998-1.682,1.156c-0.836,0.368-2.932,1.2-4.374-1.249L73.09,48.162	L73.09,48.162z"/><path style="fill-rule:evenodd;clip-rule:evenodd;fill:#FFFFFF;" d="M87.649,37.871l3.592-0.321	c1.265-0.112,1.689-0.019,1.957,0.041c1.013,0.279,1.501,1.211,1.575,2.039c0.082,0.921-0.307,1.778-1.103,2.194	c-0.284,0.156-0.594,0.279-0.922,0.344l0.002,0.023c0.744,0.338,1.103,0.616,2.074,1.899L96,45.653l-2.044,0.182l-1.393-1.733	c-1.164-1.432-1.285-1.588-2.431-1.486l-0.343,0.031l0.315,3.533l-1.701,0.151L87.649,37.871L87.649,37.871z M89.669,41.299	l1.264-0.113c0.52-0.046,1.241-0.111,1.527-0.243c0.572-0.254,0.583-0.803,0.561-1.051c-0.03-0.342-0.178-0.663-0.514-0.823	c-0.336-0.161-0.548-0.142-1.694-0.04l-1.335,0.119L89.669,41.299L89.669,41.299z"/><path style="fill-rule:evenodd;clip-rule:evenodd;fill:#FFFFFF;" d="M105.033,46.508l-0.494-1.997l-3.367-0.418l-0.93,1.821	l-1.812-0.225l4.328-8.021l1.803,0.224l2.332,8.848L105.033,46.508L105.033,46.508z M104.174,43.019l-0.775-3.275l-1.531,2.99	L104.174,43.019L104.174,43.019z"/><polygon style="fill-rule:evenodd;clip-rule:evenodd;fill:#FFFFFF;" points="112.908,39.579 114.475,40.131 115.844,46.626	115.865,46.634 117.752,41.288 119.25,41.816 116.426,49.825 114.803,49.253 113.447,42.9 113.426,42.893 111.582,48.117	110.084,47.588 112.908,39.579	"/><path style="fill-rule:evenodd;clip-rule:evenodd;fill:#FFFFFF;" d="M125.852,49.782l3.123,1.961l-1.797,2.863	c-0.68,0.146-2.318,0.1-3.773-0.815c-2.592-1.627-2.486-4.138-1.301-6.027c1.104-1.758,3.285-3.091,5.889-1.458	c1.164,0.731,2.457,2.02,1.738,4.033l-1.617-0.637c0.344-1.171-0.463-1.873-0.895-2.145c-0.613-0.385-1.385-0.604-2.191-0.256	c-0.602,0.266-1.043,0.789-1.389,1.341c-0.67,1.064-1.23,2.785,0.457,3.845c0.844,0.53,1.812,0.48,2.082,0.453l0.568-0.904	l-1.658-1.041L125.852,49.782L125.852,49.782z"/><polygon style="fill-rule:evenodd;clip-rule:evenodd;fill:#FFFFFF;" points="135.6,52.083 140.104,56.486 139.1,57.512	135.816,54.303 134.498,55.651 137.551,58.637 136.549,59.663 133.494,56.677 131.887,58.323 135.279,61.64 134.275,62.667	129.66,58.155 135.6,52.083	"/><path style="fill-rule:evenodd;clip-rule:evenodd;fill:#FFFFFF;" d="M143.779,60.888l2.004,2.998	c0.705,1.056,0.828,1.473,0.904,1.736c0.24,1.023-0.344,1.899-1.033,2.36c-0.77,0.514-1.707,0.584-2.455,0.085	c-0.273-0.174-0.531-0.388-0.744-0.645l-0.02,0.014c0.059,0.815-0.012,1.263-0.672,2.731l-0.807,1.781l-1.141-1.706l0.854-2.054	c0.699-1.708,0.777-1.889,0.139-2.846l-0.191-0.286l-2.949,1.97l-0.949-1.42L143.779,60.888L143.779,60.888z M141.74,64.306	l0.705,1.055c0.291,0.434,0.693,1.035,0.947,1.223c0.496,0.381,0.982,0.127,1.189-0.012c0.287-0.19,0.496-0.474,0.477-0.846	c-0.021-0.372-0.139-0.549-0.777-1.506l-0.746-1.115L141.74,64.306L141.74,64.306z"/><path style="fill-rule:evenodd;clip-rule:evenodd;fill:#FFFFFF;" d="M145.568,75.022c-0.377,0.24-1.395,0.89-0.822,2.322	c0.445,1.113,1.205,1.319,1.713,1.117c0.66-0.264,0.584-0.872,0.355-2.467c-0.115-0.861-0.383-2.773,1.359-3.469	c0.857-0.343,2.426-0.319,3.352,1.994c0.615,1.542,0.574,3.194-1.184,3.974l-0.705-1.571c0.381-0.229,1.07-0.646,0.568-1.901	c-0.189-0.474-0.676-1.275-1.314-1.02c-0.506,0.202-0.529,0.786-0.318,2.172c0.191,1.315,0.459,3.099-1.48,3.875	c-0.957,0.383-2.004,0.099-2.584-0.461c-0.613-0.573-0.953-1.357-1.098-1.721c-0.34-0.848-1.1-2.972,1.398-4.328L145.568,75.022	L145.568,75.022z"/><path style="fill-rule:evenodd;clip-rule:evenodd;fill:#FFFFFF;" d="M45.148,96.062c0,2.398-1.944,4.342-4.342,4.342	s-4.342-1.943-4.342-4.342c0-2.398,1.944-4.342,4.342-4.342S45.148,93.665,45.148,96.062L45.148,96.062z"/><path style="fill-rule:evenodd;clip-rule:evenodd;fill:#FFFFFF;" d="M147.555,96.062c0,2.398,1.943,4.342,4.342,4.342	s4.342-1.943,4.342-4.342c0-2.398-1.943-4.342-4.342-4.342S147.555,93.665,147.555,96.062L147.555,96.062z"/><polygon style="fill-rule:evenodd;clip-rule:evenodd;fill:#C8C7CD;" points="113.92,101.873 142.043,80.68 106.939,80.68	96.183,48.022 85.692,80.68 49.975,80.68 78.897,101.836 67.694,136.711 96.696,114.855 125.02,135.572 113.92,101.873	"/><polygon style="fill-rule:evenodd;clip-rule:evenodd;fill:#FFFFFF;" points="113.92,101.873 97.84,96.217 142.043,80.68	106.939,80.68 96.815,95.476 96.183,48.022 85.692,80.68 95.975,95.834 49.975,80.68 78.897,101.836 96.011,96.785 67.694,136.711	96.696,114.855 96.877,96.662 125.02,135.572 113.92,101.873	"/></g></svg>