<?xml version="1.0" encoding="utf-8"?>
<!-- Generator: Adobe Illustrator 19.1.0, SVG Export Plug-In . SVG Version: 6.00 Build 0)  -->
<svg version="1.1" id="Layer_1" xmlns="http://www.w3.org/2000/svg" xmlns:xlink="http://www.w3.org/1999/xlink" x="0px" y="0px"
	 viewBox="-89 186.6 622.6 160.5" style="enable-background:new -89 186.6 622.6 160.5;" xml:space="preserve">
<style type="text/css">
	.st0{fill:#500000;}
	.st1{fill:#FFFFFF;}
</style>
<g>
	<rect x="-82.1" y="195.2" class="st0" width="591.2" height="143.5"/>
	<g>
		<rect x="74.3" y="226.5" class="st1" width="2.1" height="80.9"/>
	</g>
	<polygon class="st1" points="39.5,253.8 30.6,253.8 30.1,253.8 29.9,254.3 23.4,267.7 17,254.3 16.7,253.8 16.2,253.8 7.7,253.8 
		6.8,253.8 6.8,254.6 6.8,259.2 6.8,260 7.7,260 9.1,260 9.1,279.2 7.5,279.2 6.7,279.2 6.7,280 6.7,284.6 6.7,285.4 7.5,285.4 
		17.2,285.4 18,285.4 18,284.6 18,280 18,279.2 17.2,279.2 15.5,279.2 15.5,265.6 22.7,280.4 23.4,281.9 24.2,280.4 31.4,265.6 
		31.4,279.2 29.8,279.2 29,279.2 29,280 29,284.6 29,285.4 29.8,285.4 39.5,285.4 40.3,285.4 40.3,284.6 40.3,280 40.3,279.2 
		39.5,279.2 37.8,279.2 37.8,260 39.5,260 40.3,260 40.3,259.2 40.3,254.6 40.3,253.8 	"/>
	<path class="st1" d="M-16.4,279.2H-19l-8.3-19.3h0.8h0.8v-0.8v-4.6v-0.8h-0.8h-11.8h-0.8v0.8v4.6v0.8h0.8h1l-8.3,19.3h-2.6h-0.8
		v0.8v4.6v0.8h0.8h10.5h0.8v-0.8V280v-0.8h-0.8h-1l1.4-3.2h10l1.4,3.2h-1h-0.8v0.8v4.6v0.8h0.8h10.5h0.8v-0.8V280v-0.8H-16.4z
		 M-30,269.8h-4.7l2.3-5.4L-30,269.8z"/>
	<path class="st1" d="M29.3,229.8h-67.6h-0.9v0.9v18v0.9h0.9h11.7h0.9v-0.9V242h14.4v47.6H-18h-0.9v0.9v11.7v0.9h0.9H9h0.9v-0.9
		v-11.7v-0.9H9H2.3V242h14.3v6.6v0.9h0.9h11.7h0.9v-0.9v-18v-0.9L29.3,229.8L29.3,229.8z M4.3,295.1l2.8-2.9v8.1l-2.8-2.7V295.1z
		 M-0.5,292.4l-2.9,2.8v-58.8l2.9,2.9V292.4z M-33.5,235.4l-2.9-2.9H26l-3.7,2.9H-33.5z M27.5,247l-2.8-2.7V237l2.8-2.9V247z"/>
	<g>
		<g>
			<path class="st1" d="M151.1,241.9h-3c-0.3-2.6-0.9-4.6-1.7-5.9c-0.9-1.3-1.9-2-2.9-2.3c-1-0.3-2.2-0.4-3.6-0.4h-5.4v31.3
				c0,1.2,0.1,2.2,0.4,2.9c0.3,0.7,0.8,1.2,1.8,1.6c0.9,0.4,2.3,0.6,4.1,0.6v2.9h-21.4v-2.9c2.6,0,4.3-0.4,5.1-1.1
				c0.8-0.8,1.1-2.1,1.1-3.9v-31.3H121c-1.8,0-3.3,0.1-4.4,0.4c-1.2,0.3-2.2,1.1-3.1,2.3c-0.9,1.3-1.4,3.2-1.5,5.9h-3v-12.1h42.2
				L151.1,241.9L151.1,241.9z"/>
		</g>
		<g>
			<path class="st1" d="M192.8,258.4l-0.3,14h-38v-2.9c2.6,0,4.3-0.4,5.1-1.1c0.8-0.8,1.1-2.1,1.1-3.9v-26.8c0-1.2-0.1-2.2-0.4-2.9
				c-0.2-0.7-0.8-1.2-1.7-1.6c-0.9-0.4-2.3-0.6-4.1-0.6v-2.9h35.4l0.6,11.1h-2.9c-0.6-2.5-1.4-4.2-2.3-5.3c-0.8-1.1-1.8-1.7-2.9-2
				c-1.1-0.2-2.7-0.4-4.8-0.4h-8v15.1h4.3c1.5,0,2.6-0.1,3.3-0.4s1.2-0.8,1.5-1.5c0.3-0.7,0.5-1.9,0.6-3.5h3v14.2h-2.9
				c-0.1-1.6-0.3-2.7-0.6-3.5c-0.3-0.7-0.9-1.2-1.6-1.5c-0.7-0.3-1.8-0.4-3.3-0.4h-4.4v10c0,1.7,0,2.9,0.1,3.7
				c0.1,0.8,0.3,1.4,0.7,1.9c0.4,0.5,1,0.9,1.8,1.1c0.8,0.2,2,0.3,3.5,0.3h3.4c1.5,0,2.8-0.2,4.1-0.5c1.3-0.4,2.6-1.3,3.9-2.8
				c1.3-1.5,2.1-3.9,2.6-7.2L192.8,258.4L192.8,258.4L192.8,258.4z"/>
		</g>
		<g>
			<path class="st1" d="M245.6,272.5h-24.9v-2.9h2c1.1,0,2.1-0.1,2.9-0.4c0.9-0.3,1.3-0.9,1.3-1.9c0-0.5-0.6-1.5-1.7-2.9l-6.9-9.1
				l-6.6,7.7c-1.6,1.8-2.3,3.1-2.3,4.1c0,0.8,0.3,1.4,0.8,1.7c0.5,0.4,1.1,0.6,1.9,0.7c0.7,0.1,1.7,0.1,3,0.1v2.9h-18.8v-2.9
				c1.4,0,2.6-0.2,3.6-0.6c1.1-0.4,2.3-1.1,3.6-2.3c1.3-1.1,3.1-3,5.2-5.5l7.6-8.9l-10.3-13.5c-1.6-2-2.7-3.4-3.4-4.1
				c-0.7-0.7-1.5-1.2-2.4-1.6c-0.9-0.3-2.2-0.5-3.9-0.5v-2.9h23.3v2.9h-1.6c-1.2,0-2.1,0.1-2.7,0.3c-0.6,0.2-0.9,0.7-0.9,1.4
				c0,0.5,0.6,1.6,1.9,3.4l5.9,7.7l6.8-7.9c0.6-0.8,1-1.4,1.2-1.7c0.2-0.3,0.3-0.7,0.3-1.2c0-0.7-0.3-1.2-0.8-1.5
				c-0.5-0.3-1.5-0.5-3-0.5h-1.5v-2.9h17.6v2.9c-1.6,0-3,0.3-4.1,0.8c-1.1,0.5-2.2,1.2-3,2c-0.9,0.8-2.1,2.2-3.8,4.1l-7.6,8.8
				l10.4,13.6c1.6,2.1,2.8,3.6,3.8,4.7c1,1,2,1.8,3,2.2c1,0.4,2.4,0.7,4.1,0.7L245.6,272.5L245.6,272.5L245.6,272.5z"/>
		</g>
		<g>
			<path class="st1" d="M285.3,272.5h-20.1v-2.9c1.7,0,2.9-0.1,3.7-0.4c0.8-0.2,1.2-0.8,1.2-1.7c0-0.6-0.1-1.3-0.4-1.9l-2-5h-13.8
				l-1,2.8c-0.6,1.6-0.9,2.7-0.9,3.4c0,1.3,0.5,2.1,1.5,2.4c1,0.3,2.1,0.5,3.4,0.5v2.9h-14.7v-2.9c1.2,0,2.2-0.2,3-0.7
				c0.8-0.4,1.6-1.3,2.3-2.5c0.7-1.2,1.5-3,2.4-5.2l12.3-32.2h3l13,33.2c0.9,2.3,1.6,3.9,2.1,4.8c0.4,0.8,1.1,1.5,1.8,1.9
				c0.8,0.4,1.9,0.7,3.3,0.7L285.3,272.5L285.3,272.5z M266.5,257.4l-5.9-14.9l-5.6,14.9H266.5z"/>
		</g>
		<g>
			<path class="st1" d="M317.5,259.7c0,1.3-0.3,2.7-0.8,4.1c-0.5,1.5-1.4,2.8-2.5,4.2c-1.1,1.3-2.5,2.4-4.2,3.2
				c-1.7,0.8-3.7,1.2-5.9,1.2c-2.2,0-4.4-0.5-6.6-1.4c-2.2-1-4-2.4-5.6-4.3c-0.7,1.5-1.1,2.9-1.3,4.2h-2.8v-14.3h2.8
				c0.5,2,1.2,4,2.1,5.8c0.9,1.8,2.2,3.4,3.8,4.7c1.6,1.3,3.7,2,6.1,2c2.1,0,3.8-0.6,5-1.7c1.3-1.1,1.9-2.6,1.9-4.3
				c0-1-0.2-1.8-0.6-2.6c-0.4-0.7-1-1.4-1.7-2c-0.7-0.6-1.7-1.2-3-1.9c-1.3-0.7-2.7-1.4-4.4-2.1c-2.5-1.2-4.6-2.4-6.2-3.6
				c-1.6-1.2-2.8-2.4-3.7-3.5c-0.8-1.2-1.4-2.2-1.7-3.3c-0.3-1-0.5-2.1-0.5-3.1c0-1.9,0.5-3.7,1.5-5.5c1-1.8,2.5-3.3,4.4-4.5
				c1.9-1.2,4.2-1.7,6.7-1.7c2,0,3.8,0.4,5.6,1.3c1.8,0.9,3.3,2.1,4.6,3.6c0.4-0.9,0.7-2.1,1-3.7h2.9v11.7h-2.9
				c-2.1-6.3-5.6-9.5-10.7-9.5c-1.8,0-3.3,0.5-4.4,1.5c-1.1,1-1.7,2.2-1.7,3.8c0,1.2,0.3,2.2,1,3.1c0.7,0.9,1.6,1.7,2.8,2.3
				c1.1,0.6,3,1.6,5.5,2.7c3.1,1.5,5.5,2.7,7.2,3.8c1.7,1.1,3.2,2.4,4.4,4C316.9,255.5,317.5,257.4,317.5,259.7z"/>
		</g>
		<g>
			<path class="st1" d="M382.7,272.5h-20.1v-2.9c1.7,0,2.9-0.1,3.7-0.4c0.8-0.2,1.2-0.8,1.2-1.7c0-0.6-0.1-1.3-0.4-1.9l-2-5h-13.8
				l-1,2.8c-0.6,1.6-0.9,2.7-0.9,3.4c0,1.3,0.5,2.1,1.5,2.4c1,0.3,2.1,0.5,3.4,0.5v2.9h-14.7v-2.9c1.2,0,2.2-0.2,3-0.7
				c0.8-0.4,1.6-1.3,2.4-2.5c0.7-1.2,1.5-3,2.4-5.2l12.3-32.2h3l13,33.2c0.9,2.3,1.6,3.9,2.1,4.8c0.4,0.8,1.1,1.5,1.8,1.9
				c0.8,0.4,1.9,0.7,3.3,0.7L382.7,272.5L382.7,272.5z M363.9,257.4l-5.9-14.9l-5.6,14.9H363.9z"/>
		</g>
		<g>
			<path class="st1" d="M475.7,272.5h-21.4v-2.9c1.8,0,3.2-0.2,4.1-0.5c0.9-0.4,1.4-0.9,1.7-1.6c0.3-0.7,0.4-1.7,0.4-2.9v-26.8
				l-16.1,34.7h-1.9l-16.3-34.7v25.4c0,1.3,0,2.4,0.1,3.1c0.1,0.7,0.3,1.3,0.7,1.8c0.4,0.5,1,0.9,1.8,1.1c0.8,0.2,2,0.4,3.5,0.4v2.9
				h-15.8v-2.9c1.5,0,2.7-0.1,3.5-0.4c0.8-0.2,1.4-0.6,1.8-1.1c0.4-0.5,0.6-1.1,0.7-1.8c0.1-0.7,0.1-1.7,0.1-3.1V239
				c0-1.8-0.1-3.1-0.3-3.9c-0.2-0.8-0.7-1.4-1.6-1.8c-0.9-0.4-2.3-0.6-4.3-0.6v-2.9h15.6l14.2,30.1l14.2-30.1h15.3v2.9
				c-2.6,0-4.3,0.4-5.1,1.1c-0.8,0.8-1.1,2.1-1.1,3.9v26.8c0,1.2,0.1,2.1,0.4,2.8c0.2,0.7,0.8,1.3,1.7,1.7c0.9,0.4,2.3,0.6,4.1,0.6
				L475.7,272.5L475.7,272.5L475.7,272.5z"/>
		</g>
		<g>
			<g>
				<path class="st1" d="M133.9,287.2c-0.8,0-1.4,0.1-1.7,0.3c-0.3,0.2-0.6,0.4-0.6,0.8c-0.1,0.3-0.1,0.9-0.1,1.6v6.5
					c0,1.2,0,2.1-0.1,2.7c-0.1,0.6-0.3,1.2-0.7,1.8c-0.7,1.2-1.6,2-2.8,2.4c-1.2,0.4-2.3,0.7-3.4,0.7c-0.8,0-1.6-0.1-2.5-0.3
					c-0.8-0.2-1.6-0.6-2.4-1c-0.7-0.5-1.3-1.1-1.7-1.9c-0.2-0.4-0.4-0.9-0.5-1.3c-0.1-0.4-0.2-0.9-0.2-1.2c0-0.4,0-0.9,0-1.5l0-7.3
					c0-0.8-0.2-1.3-0.4-1.6c-0.3-0.3-1-0.5-2.1-0.5v-1.2h8.9v1.2c-0.8,0-1.3,0.1-1.7,0.2c-0.4,0.2-0.6,0.4-0.7,0.7
					c-0.1,0.3-0.2,0.7-0.2,1.2v7.3c0,0.8,0,1.4,0.1,2c0.1,0.6,0.2,1.1,0.3,1.5c0.3,0.7,0.8,1.3,1.5,1.7c0.7,0.4,1.5,0.6,2.3,0.6
					c0.9,0,1.8-0.2,2.5-0.7c0.8-0.5,1.3-1,1.6-1.7c0.2-0.6,0.4-1.1,0.5-1.7c0.1-0.6,0.1-1.3,0.1-2.1v-6.3c0-0.6,0-1-0.1-1.3
					c0-0.3-0.1-0.5-0.3-0.7c-0.2-0.2-0.4-0.4-0.8-0.5c-0.4-0.1-0.9-0.1-1.5-0.1v-1.2h6.5L133.9,287.2L133.9,287.2z"/>
			</g>
			<g>
				<path class="st1" d="M175.4,287.2c-0.8,0-1.4,0.1-1.8,0.3c-0.4,0.2-0.6,0.4-0.7,0.7c-0.1,0.3-0.1,0.9-0.1,1.6v14h-1.2L160,290.1
					v9.7c0,0.7,0,1.3,0.1,1.6c0.1,0.3,0.3,0.6,0.7,0.8c0.4,0.2,1,0.3,1.8,0.3v1.2h-6.5v-1.2c0.8,0,1.3-0.1,1.7-0.3
					c0.3-0.2,0.6-0.4,0.7-0.8c0.1-0.3,0.1-0.9,0.1-1.6v-9c0-0.7,0-1.3-0.1-1.6c0-0.4-0.1-0.7-0.3-0.9c-0.1-0.3-0.4-0.5-0.7-0.7
					c-0.3-0.2-0.8-0.3-1.4-0.4v-1.2h5.1l10,11.8v-8c0-0.7-0.1-1.2-0.1-1.5c-0.1-0.3-0.3-0.6-0.7-0.8c-0.4-0.2-0.9-0.3-1.7-0.3v-1.2
					h6.6L175.4,287.2L175.4,287.2z"/>
			</g>
			<g>
				<path class="st1" d="M206.5,303.6h-8.9v-1.2c0.7,0,1.3-0.1,1.7-0.2c0.4-0.1,0.6-0.3,0.7-0.6c0.1-0.3,0.2-0.7,0.2-1.2v-11
					c0-0.8-0.2-1.3-0.5-1.6c-0.3-0.3-1-0.5-2.1-0.5v-1.2h8.9v1.2c-0.7,0-1.3,0.1-1.7,0.2c-0.4,0.1-0.6,0.4-0.7,0.6
					c-0.1,0.3-0.2,0.7-0.2,1.2v11c0,0.5,0.1,0.9,0.2,1.2c0.1,0.3,0.3,0.5,0.7,0.7c0.4,0.2,0.9,0.2,1.7,0.2V303.6z"/>
			</g>
			<g>
				<path class="st1" d="M248.1,287.2c-0.4,0-0.8,0.1-1.1,0.2c-0.3,0.1-0.6,0.3-0.8,0.5c-0.2,0.2-0.4,0.5-0.6,0.9
					c-0.2,0.4-0.5,1-0.8,1.8l-5.7,13.4h-1.2l-6-14c-0.4-0.9-0.7-1.5-0.9-1.8c-0.2-0.3-0.5-0.6-0.8-0.7c-0.3-0.1-0.9-0.2-1.5-0.2
					v-1.2h9v1.2c-0.9,0-1.4,0.1-1.8,0.2c-0.3,0.1-0.5,0.4-0.5,0.8c0,0.4,0.1,0.8,0.3,1.2l4,9.4l3.7-8.8c0.3-0.8,0.5-1.3,0.5-1.6
					c0-0.6-0.2-0.9-0.6-1.1c-0.4-0.1-1-0.2-1.8-0.2v-1.2h6.5L248.1,287.2L248.1,287.2L248.1,287.2z"/>
			</g>
			<g>
				<path class="st1" d="M286.2,297.9l-0.2,5.8h-15.7v-1.2c1.1,0,1.8-0.2,2.1-0.5c0.3-0.3,0.5-0.9,0.5-1.6v-11
					c0-0.5-0.1-0.9-0.1-1.2c-0.1-0.3-0.3-0.5-0.7-0.7c-0.4-0.2-0.9-0.2-1.7-0.2v-1.2H285l0.2,4.6H284c-0.3-1-0.6-1.7-0.9-2.2
					c-0.4-0.4-0.8-0.7-1.2-0.8c-0.4-0.1-1.1-0.2-2-0.2h-3.3v6.2h1.8c0.6,0,1.1-0.1,1.4-0.2c0.3-0.1,0.5-0.3,0.6-0.6
					c0.1-0.3,0.2-0.8,0.2-1.4h1.2v5.9h-1.2c0-0.7-0.1-1.1-0.3-1.4c-0.1-0.3-0.3-0.5-0.6-0.6c-0.3-0.1-0.8-0.2-1.4-0.2h-1.8v4.1
					c0,0.7,0,1.2,0.1,1.5c0,0.3,0.1,0.6,0.3,0.8c0.1,0.2,0.4,0.4,0.7,0.5c0.3,0.1,0.8,0.1,1.5,0.1h1.4c0.6,0,1.2-0.1,1.7-0.2
					c0.5-0.1,1.1-0.5,1.6-1.2c0.5-0.6,0.9-1.6,1.1-2.9L286.2,297.9L286.2,297.9z"/>
			</g>
			<g>
				<path class="st1" d="M328.1,303.6h-4.7c-0.2-0.2-0.4-0.5-0.6-0.8c-0.3-0.4-0.5-0.8-0.8-1.3c-0.3-0.5-0.5-0.9-0.7-1.2l-1.2-2
					c-0.5-0.9-0.9-1.5-1.2-1.8c-0.3-0.3-0.6-0.5-0.9-0.6c-0.3-0.1-0.9-0.1-1.8-0.1h-0.7v4.6c0,0.5,0,0.9,0.2,1.2
					c0.1,0.3,0.3,0.5,0.7,0.7c0.4,0.2,0.9,0.2,1.7,0.2v1.2h-8.8v-1.2c1.1,0,1.8-0.2,2.1-0.5c0.3-0.3,0.5-0.8,0.5-1.6v-11.1
					c0-0.8-0.1-1.3-0.4-1.6c-0.3-0.3-1-0.5-2.1-0.5V286l4.1-0.1c0.3,0,0.7,0,1.1,0c0.4,0,0.8,0,1.1,0c0.3,0,0.7,0,1.3,0
					c0.9,0,1.7,0.1,2.5,0.2c0.8,0.1,1.4,0.2,1.8,0.3c0.7,0.2,1.3,0.4,1.9,0.8c0.6,0.4,1,0.9,1.4,1.5c0.4,0.6,0.5,1.3,0.5,2.2
					c0,0.6-0.1,1.2-0.4,1.7c-0.3,0.6-0.7,1.1-1.2,1.5c-0.6,0.4-1.3,0.8-2.2,1c0.6,0.4,1.2,0.8,1.6,1.4c0.4,0.5,1.1,1.6,2.1,3
					c0.5,0.8,1,1.5,1.3,1.9c0.3,0.4,0.7,0.7,1,0.9c0.3,0.1,0.7,0.2,1.1,0.3L328.1,303.6L328.1,303.6z M320.8,290.7
					c0-1.4-0.4-2.3-1.3-2.8c-0.8-0.5-2-0.7-3.3-0.7c-0.2,0-0.3,0-0.4,0c-0.1,0-0.2,0-0.4,0v7.1h0.8c1.3,0,2.4-0.2,3.3-0.6
					C320.4,293.3,320.8,292.3,320.8,290.7z"/>
			</g>
			<g>
				<path class="st1" d="M363.5,298.6c0,0.5-0.1,1.1-0.4,1.7c-0.2,0.6-0.6,1.2-1.1,1.8c-0.5,0.6-1.1,1-1.8,1.4
					c-0.7,0.3-1.6,0.5-2.5,0.5c-0.9,0-1.9-0.2-2.8-0.6c-0.9-0.4-1.7-1-2.3-1.8c-0.3,0.6-0.4,1.2-0.5,1.8h-1.2v-6h1.2
					c0.2,0.9,0.5,1.7,0.9,2.4c0.4,0.8,0.9,1.4,1.6,2c0.7,0.5,1.5,0.8,2.6,0.8c0.9,0,1.6-0.2,2.1-0.7c0.5-0.5,0.8-1.1,0.8-1.8
					c0-0.4-0.1-0.8-0.2-1.1c-0.2-0.3-0.4-0.6-0.7-0.8c-0.3-0.2-0.7-0.5-1.3-0.8c-0.5-0.3-1.2-0.6-1.8-0.9c-1.1-0.5-1.9-1-2.6-1.5
					c-0.7-0.5-1.2-1-1.6-1.5c-0.3-0.5-0.6-0.9-0.7-1.4c-0.1-0.4-0.2-0.9-0.2-1.3c0-0.8,0.2-1.6,0.6-2.3c0.4-0.8,1.1-1.4,1.9-1.9
					c0.8-0.5,1.8-0.7,2.8-0.7c0.8,0,1.6,0.2,2.3,0.6c0.7,0.4,1.4,0.9,1.9,1.5c0.2-0.4,0.3-0.9,0.4-1.5h1.2v4.9H361
					c-0.9-2.7-2.4-4-4.5-4c-0.8,0-1.4,0.2-1.9,0.6c-0.5,0.4-0.7,0.9-0.7,1.6c0,0.5,0.1,0.9,0.4,1.3c0.3,0.4,0.7,0.7,1.2,1
					c0.5,0.3,1.3,0.7,2.3,1.2c1.3,0.6,2.3,1.2,3,1.6c0.7,0.5,1.4,1,1.9,1.7C363.2,296.8,363.5,297.6,363.5,298.6z"/>
			</g>
			<g>
				<path class="st1" d="M395.3,303.6h-8.9v-1.2c0.8,0,1.3-0.1,1.7-0.2c0.4-0.1,0.6-0.3,0.7-0.6c0.1-0.3,0.2-0.7,0.2-1.2v-11
					c0-0.8-0.2-1.3-0.5-1.6c-0.3-0.3-1-0.5-2.1-0.5v-1.2h8.9v1.2c-0.7,0-1.3,0.1-1.7,0.2c-0.4,0.1-0.6,0.4-0.8,0.6
					c-0.1,0.3-0.2,0.7-0.2,1.2v11c0,0.5,0.1,0.9,0.2,1.2c0.1,0.3,0.4,0.5,0.7,0.7c0.4,0.2,0.9,0.2,1.7,0.2L395.3,303.6L395.3,303.6z
					"/>
			</g>
			<g>
				<path class="st1" d="M435.2,291H434c-0.1-1.1-0.3-1.9-0.7-2.4c-0.4-0.5-0.8-0.8-1.2-1c-0.4-0.1-0.9-0.2-1.4-0.2h-2.2v12.9
					c0,0.5,0.1,0.9,0.2,1.2c0.1,0.3,0.3,0.5,0.7,0.7c0.4,0.2,0.9,0.2,1.7,0.2v1.2h-8.8v-1.2c1.1,0,1.8-0.2,2.1-0.5
					c0.3-0.3,0.5-0.8,0.5-1.6v-12.9h-1.9c-0.7,0-1.3,0.1-1.8,0.2c-0.5,0.1-0.9,0.4-1.3,1c-0.4,0.5-0.6,1.3-0.6,2.4h-1.2v-5h17.4
					L435.2,291L435.2,291z"/>
			</g>
			<g>
				<path class="st1" d="M475.7,287.2c-0.5,0-0.9,0.1-1.2,0.3c-0.3,0.2-0.6,0.5-0.9,0.9c-0.3,0.4-0.8,1.1-1.4,2l-3.7,5.7v4.2
					c0,0.5,0.1,0.9,0.2,1.2c0.1,0.3,0.3,0.5,0.7,0.7c0.4,0.2,0.9,0.3,1.7,0.3v1.2h-8.9v-1.2c0.7,0,1.3-0.1,1.7-0.2
					c0.4-0.1,0.6-0.3,0.7-0.6c0.1-0.3,0.2-0.7,0.2-1.2v-3.9l-4.4-7.4c0,0-0.1-0.1-0.1-0.2c0-0.1-0.1-0.1-0.1-0.1
					c-0.4-0.6-0.7-1-1-1.2c-0.3-0.2-0.7-0.3-1.3-0.3v-1.2h8.3v1.2c-0.4,0-0.7,0-1,0c-0.2,0-0.4,0.1-0.6,0.2
					c-0.2,0.1-0.2,0.3-0.2,0.5c0,0.2,0,0.4,0.2,0.6c0.1,0.2,0.3,0.7,0.7,1.3l2.7,4.6l2.6-4.1c0.6-0.9,0.8-1.6,0.8-2
					c0-0.5-0.2-0.9-0.5-1c-0.3-0.1-0.8-0.2-1.5-0.2v-1.2h6.4L475.7,287.2L475.7,287.2L475.7,287.2z"/>
			</g>
		</g>
		<g>
			<path class="st1" d="M414.7,262.3c-1,1.5-2.1,2.2-3.5,2.2c-1.1,0-2.1-0.3-3-0.9c-0.9-0.6-2.3-2.2-3.9-4.5c0.7-1,1.5-2.4,2.3-4.4
				c1-2.5,2-4.1,3-5c0.9-0.9,2.1-1.5,3.3-1.8l0.2-0.1v-1.6h-10.9v1.6l0.2,0c2.4,0.3,3.5,1.2,3.5,2.9c0,0.7-0.3,1.8-0.8,3.1
				c-0.5,1.2-1.2,2.4-2,3.6c-0.5-0.6-7.4-10.3-7.7-10.7c4.5-2.3,6.9-4.8,6.9-7.3c0-1.7-0.7-3.1-2.2-4.1c-1.4-1-3.1-1.5-4.9-1.5
				c-2,0-3.7,0.7-5.1,2.1c-1.3,1.4-2,2.9-2,4.7c0,2.1,0.9,4.5,2.7,7.1c-3,2-5.1,3.8-6.2,5.1c-1.1,1.4-1.7,3.2-1.7,5.3
				c0,1.8,0.5,3.4,1.4,4.8c0.9,1.4,2.1,2.5,3.5,3.3c1.4,0.8,3,1.2,4.6,1.2c3.2,0,6.2-1.6,9-4.7c2.4,3.1,5.2,4.7,8.3,4.7
				c1.5,0,2.8-0.4,4-1.3c1.2-0.8,1.9-2,2.3-3.4l0.1-0.3L414.7,262.3L414.7,262.3z M391.7,239.3c0-1.1,0.3-2,1-2.7
				c0.7-0.7,1.5-1.1,2.6-1.1c1.1,0,2,0.4,2.7,1.1c0.7,0.8,1,1.8,1,3c0,2-1.6,3.9-4.5,5.7C392.6,242.8,391.7,240.7,391.7,239.3z
				 M388.3,252.4c0.8-1.3,2.1-2.4,3.6-3.4c2.4,3.1,5.2,7.2,8.5,12.1c-1.8,2-3.8,3.1-5.9,3.1c-1.9,0-3.7-0.9-5.2-2.6
				c-1.6-1.7-2.3-3.5-2.3-5.4C386.9,255.1,387.4,253.7,388.3,252.4z"/>
			<path class="st1" d="M414.2,262c-0.9,1.3-1.8,1.9-3.1,1.9c-0.9,0-1.9-0.3-2.7-0.9c-0.9-0.6-2.2-2.1-3.8-4.3l0,0.6
				c0.8-1,1.5-2.5,2.4-4.5c1-2.4,1.9-4,2.8-4.8c0.9-0.8,1.9-1.4,3.1-1.7l0.2-0.1l0.4-0.1v-0.4v-1.6v-0.5H413h-10.9h-0.5v0.5v1.6v0.5
				l0.5,0.1l0.2,0c2.7,0.3,3.1,1.5,3.1,2.4c0,0.5-0.1,1.4-0.7,2.9c-0.4,1.1-1.1,2.2-1.9,3.5l0.9,0l-0.2-0.2l-7.6-10.5l-0.2,0.8
				c4.7-2.4,7.2-5.1,7.2-7.8c0-1.9-0.8-3.4-2.4-4.5c-1.6-1.1-3.3-1.6-5.2-1.6c-2.2,0-4,0.7-5.5,2.2c-1.4,1.5-2.2,3.2-2.2,5
				c0,2.2,1,4.7,2.9,7.4l0.1-0.8c-3.1,2.1-5.2,3.9-6.3,5.3c-1.2,1.5-1.8,3.4-1.8,5.6c0,1.9,0.5,3.7,1.5,5.1c1,1.5,2.2,2.6,3.8,3.4
				c1.5,0.8,3.2,1.2,4.8,1.2c3.3,0,6.4-1.6,9.4-4.8l-0.8,0c2.5,3.2,5.5,4.9,8.8,4.9c1.6,0,3.1-0.5,4.3-1.4c1.3-0.9,2.1-2.2,2.5-3.7
				c0,0,0.1-0.3,0.1-0.3l0.2-0.7h-0.7h-1.5h-0.3L414.2,262z M415.6,262.1l-0.1,0.3c-0.3,1.3-1,2.3-2.1,3.1c-1.1,0.8-2.3,1.2-3.7,1.2
				c-2.9,0-5.6-1.5-7.9-4.5l-0.4-0.5l-0.4,0.5c-2.8,3-5.7,4.5-8.6,4.5c-1.5,0-2.9-0.4-4.3-1.1c-1.4-0.7-2.5-1.8-3.4-3.1
				c-0.9-1.3-1.3-2.8-1.3-4.5c0-2,0.5-3.6,1.6-4.9c1-1.3,3.1-3,6.1-5l0.4-0.3l-0.3-0.4c-1.8-2.5-2.7-4.8-2.7-6.8
				c0-1.6,0.6-3,1.9-4.3c1.2-1.3,2.8-1.9,4.7-1.9c1.7,0,3.2,0.5,4.6,1.4c1.3,0.9,2,2.1,2,3.7c0,2.3-2.2,4.6-6.6,6.8l-0.6,0.3
				c0,0,0.4,0.5,0.4,0.5l7.6,10.5l0.2,0.2l0.4,0.6l0.4-0.6c0.9-1.3,1.6-2.5,2-3.7c0.6-1.4,0.8-2.5,0.8-3.3c0-2-1.4-3.2-4-3.5l-0.2,0
				l0.5,0.5v-1.6l-0.5,0.5H413l-0.5-0.5v1.6l0.4-0.5l-0.2,0.1c-1.3,0.4-2.5,1-3.5,2c-1,0.9-2,2.6-3.1,5.2c-0.8,1.9-1.6,3.3-2.3,4.3
				l-0.2,0.3l0.2,0.3c1.7,2.4,3,3.9,4,4.6c1,0.7,2.1,1,3.3,1c1.6,0,2.8-0.7,4-2.4l-0.4,0.2h1.5L415.6,262.1z"/>
			<path class="st1" d="M392.2,239.3c0-1,0.3-1.7,0.8-2.3c0.6-0.6,1.3-0.9,2.2-0.9c1,0,1.7,0.3,2.3,0.9c0.6,0.6,0.9,1.5,0.9,2.6
				c0,1.8-1.4,3.6-4.3,5.3l0.7,0.2C392.7,241.9,392.2,240.2,392.2,239.3z M394.7,245.8c3.2-1.9,4.8-4,4.8-6.2c0-1.4-0.4-2.5-1.2-3.4
				c-0.8-0.9-1.8-1.3-3.1-1.3c-1.2,0-2.2,0.4-3,1.3c-0.8,0.8-1.1,1.8-1.1,3.1c0,1.6,0.9,3.7,2.8,6.4l0.3,0.4L394.7,245.8z"/>
			<path class="st1" d="M388.7,252.7c0.8-1.1,1.9-2.2,3.5-3.2l-0.7-0.1c2.3,3.1,5.2,7.2,8.4,12.1l0-0.7c-1.7,1.9-3.6,2.9-5.5,2.9
				c-1.8,0-3.4-0.8-4.8-2.4c-1.5-1.6-2.2-3.3-2.2-5.1C387.4,255.2,387.9,254,388.7,252.7z M386.4,256.3c0,2.1,0.8,4,2.5,5.8
				c1.7,1.8,3.5,2.7,5.6,2.7c2.2,0,4.4-1.1,6.3-3.3l0.3-0.3l-0.2-0.3c-3.3-5-6.1-9.1-8.5-12.2l-0.3-0.4l-0.4,0.3
				c-1.7,1.1-3,2.3-3.8,3.5C386.8,253.5,386.4,254.9,386.4,256.3z"/>
		</g>
	</g>
	<g>
		<path class="st0" d="M519.4,329.8c2.3,0,4.1,1.9,4.1,4.2c0,2.4-1.8,4.3-4.2,4.3c-2.3,0-4.2-1.9-4.2-4.3
			C515.2,331.7,517.1,329.8,519.4,329.8L519.4,329.8z M519.4,330.5c-1.9,0-3.4,1.6-3.4,3.6c0,2,1.5,3.6,3.4,3.6
			c1.9,0,3.4-1.6,3.4-3.6C522.8,332.1,521.3,330.5,519.4,330.5L519.4,330.5L519.4,330.5z M518.6,336.5h-0.7v-4.7
			c0.4-0.1,0.8-0.1,1.3-0.1c0.7,0,1.2,0.2,1.5,0.3c0.3,0.2,0.4,0.5,0.4,1c0,0.6-0.4,1-0.9,1.1v0c0.4,0.1,0.7,0.4,0.8,1.1
			c0.1,0.7,0.2,1,0.3,1.2h-0.8c-0.1-0.1-0.2-0.6-0.3-1.2c-0.1-0.6-0.4-0.8-1-0.8h-0.5L518.6,336.5L518.6,336.5z M518.6,333.9h0.5
			c0.6,0,1.2-0.2,1.2-0.8c0-0.4-0.3-0.8-1.2-0.8c-0.2,0-0.4,0-0.5,0V333.9z"/>
	</g>
</g>
</svg>
