<?xml version="1.0" encoding="utf-8"?>
<!-- Generator: Adobe Illustrator 18.1.1, SVG Export Plug-In . SVG Version: 6.00 Build 0)  -->
<svg version="1.1"
	 id="svg2" xmlns:dc="http://purl.org/dc/elements/1.1/" xmlns:cc="http://creativecommons.org/ns#" xmlns:rdf="http://www.w3.org/1999/02/22-rdf-syntax-ns#" xmlns:svg="http://www.w3.org/2000/svg" xmlns:sodipodi="http://sodipodi.sourceforge.net/DTD/sodipodi-0.dtd" xmlns:inkscape="http://www.inkscape.org/namespaces/inkscape" sodipodi:docname="The Verge logo.svg" inkscape:version="0.48.2 r9819"
	 xmlns="http://www.w3.org/2000/svg" xmlns:xlink="http://www.w3.org/1999/xlink" x="0px" y="0px" viewBox="40 202.2 3037.7 512"
	 enable-background="new 40 202.2 3037.7 512" xml:space="preserve">
<sodipodi:namedview  inkscape:cy="12.707593" inkscape:cx="447.99484" inkscape:zoom="1.4142136" fit-margin-top="0" fit-margin-left="0" showgrid="false" guidetolerance="10" gridtolerance="10" objecttolerance="10" borderopacity="1" pagecolor="#ffffff" bordercolor="#666666" id="namedview4" inkscape:current-layer="svg2" inkscape:window-maximized="1" inkscape:window-y="-8" inkscape:window-x="-8" fit-margin-right="0" fit-margin-bottom="0" inkscape:window-height="837" inkscape:window-width="1600" inkscape:pageshadow="2" inkscape:pageopacity="0">
	</sodipodi:namedview>
<path id="path3109" inkscape:connector-curvature="0" d="M2536.3,711.5c-88.4-15.5-161.8-74.3-195-156.4
	c-17.1-42.3-22.9-114.8-12.7-158.3c14.6-62,53.9-118.6,105.1-151.5c45.4-29.1,81.3-37.3,176.3-40.3l85.1-2.7v89.1v89.1l-32.7-13.3
	c-21.5-8.8-46.2-14.1-72-15.5c-36.7-2-40.9-1.1-63.9,13.7c-32.9,21.2-48.1,50.4-48.4,93.2c-0.2,27.7,2,35.5,15.7,54.9
	c21.2,30.2,50.1,46.1,83.6,46.1c34.7,0,40.4-4.3,38.3-29.2l-1.7-20.4l-40.6,0.3l-40.6,0.3l0-57.9l0-57.9l110,1.5l110,1.5v106.4
	c0,64.6,2.3,112.9,5.8,123.1c7.3,21.1,0.5,29.6-42.1,52.3C2665.3,706.8,2588,720.5,2536.3,711.5z"/>
<path id="path3107" inkscape:connector-curvature="0" d="M127.4,691.9c2.4-5,5.2-85.4,6.1-178.6l1.6-169.4l-47.5,1.8L40,347.6
	l1.4-70.7l1.5-70.7l121.7-1.4l121.7-1.4v248.8v248.8h-81.7C128.6,701.1,123.3,700.4,127.4,691.9z"/>
<path id="path3105" inkscape:connector-curvature="0" d="M317.8,452.3V203.6h107.3h107.3V276v72.4l-28.8-2.4l-28.8-2.4v26.8v26.8
	h44.5h44.5v-96.9v-96.9h78.5H721v248.7v248.7h-83.7h-83.6l5.1-13.4c2.8-7.4,5.1-48.6,5.1-91.6v-78.2h-44.8h-44.8l1.6,82.5
	c0.9,45.4,3.6,86.6,6,91.6c4.1,8.5-1.4,9.2-79.9,9.2h-84.3V452.3z"/>
<path id="path3103" inkscape:connector-curvature="0" d="M742.6,692.4c10.9-13.2,13.4-436.2,2.8-467.2l-7.5-21.6h151.2h151.2v72.5
	v72.5l-27.5-7.2c-15.5-4.1-45.7-6.6-69.4-5.8l-41.9,1.4l-1.6,30.8l-1.6,30.8l44.8-2.3l44.8-2.4v61.3v61.3l-23.2-4.9
	c-12.7-2.7-32.2-4.2-43.2-3.3l-20,1.6l-1.6,28.1l-1.6,28.1l59.2-2.6c32.6-1.4,64.5-4.3,71-6.4l11.8-3.8v73.9v73.9H888
	C746.7,701.1,736,700.4,742.6,692.4z"/>
<path id="path3101" inkscape:connector-curvature="0" d="M1337.2,684c-72.5-173.4-197.1-454.3-206.6-465.6l-12.5-14.9H1294
	c96.7,0,175.9,1.8,175.9,3.9c0,2.2-10.3,31-22.8,64.1l-22.8,60.2l-40,1.5c-22,0.8-40,2.4-40,3.5c0,5,49.1,136.8,52.3,140.5
	c2,2.3,26.7-58.4,55-134.8l51.4-138.9h203.5h203.5v76.5c0,71-0.7,76.2-9.2,72.3c-5-2.3-36.8-5.1-70.7-6.2l-61.5-2v27.3v27.3
	l44.5-2.3l44.5-2.3v61.3v61.3l-23.2-4.9c-12.7-2.7-32.2-4.2-43.2-3.3l-20,1.6l-1.6,30.1l-1.6,30.1h46.7c28.2,0,55.6-3.1,69-7.9
	c12.2-4.3,23.1-7.9,24.2-7.9c1.1,0,2,33,2,73.3v73.3h-152.5c-124.9,0-151.5-1.2-146.8-6.8c6.2-7.5,11.4-370.2,5.2-370.2
	c-1.9,0-39.6,84.8-83.7,188.5l-80.2,188.5H1398h-53.7L1337.2,684L1337.2,684z"/>
<path id="path3099" inkscape:connector-curvature="0" d="M1929.9,203.5l4.3,11.8c5.7,15.7,5.6,464.8-0.2,476.5
	c-4.2,8.5,1.5,9.2,85.3,9.2c87.1,0,89.7-0.3,84.4-10.1c-3-5.6-5.4-38.7-5.4-73.6c0-63.4,0-63.5,11.8-60.1
	c22,6.5,50.8,28.7,64.8,49.7c15.7,23.8,22.1,65.4,12.8,83l-6.1,11.1h89.5c52.4,0,88.3-2,86.6-4.7c-1.6-2.6-7.2-30.6-12.6-62.2
	c-11.9-69.5-33.1-113.8-66.9-139.6l-22.4-17.2l12.8-17.2c42.7-57.9,35.9-154.8-14.4-205c-40.9-40.9-87.5-51.3-228.3-51.4
	L1929.9,203.5z M2109.7,334.6c5,0.3,12.3,3.2,22.7,7.5c31.2,13,37.5,47.1,13.3,71.3c-10.3,10.3-20.6,15.2-31.4,15.2h-16v-47.1
	C2098.3,345.6,2098.6,333.9,2109.7,334.6z"/>
<path id="path3095" inkscape:connector-curvature="0" d="M2777.1,691.9c5.7-11.7,5.9-460.8,0.2-476.6l-4.3-11.9l150.9,1.4l150.9,1.4
	l1.5,72.4l1.5,72.4l-11.9-3.8c-29-9.3-51.3-12.4-89.2-12.6l-40.6-0.1v32.1v32.1l44.5-2.3l44.5-2.3v62.5c0,57.3-0.8,62.2-9.2,58.9
	c-5-2-24.8-4.9-44-6.5l-34.8-2.9l-1.9,27.6c-1.3,19.3,0.2,28.4,5,30.2c8.9,3.4,110.1-2.1,125.4-6.8l11.8-3.6v73.9v73.9H2925
	C2781.6,701.1,2772.9,700.5,2777.1,691.9L2777.1,691.9z"/>
</svg>
