<?xml version="1.0" encoding="utf-8"?>
<!-- Generator: Adobe Illustrator 18.1.1, SVG Export Plug-In . SVG Version: 6.00 Build 0)  -->
<svg version="1.1" id="Layer_1" xmlns="http://www.w3.org/2000/svg" xmlns:xlink="http://www.w3.org/1999/xlink" x="0px" y="0px"
	 viewBox="-153 154.2 512 512" enable-background="new -153 154.2 512 512" xml:space="preserve">
<g>
	<polygon fill="#FFFFFF" points="-153,154.2 359,154.2 359,666.2 -153,666.2 	"/>
	<path d="M-136.1,401c1-2.7,2.3-4.7,4.1-6.3c0.2-0.1,0.5-0.2,0.7-0.2c0.2,0,0.8,0,1.8,0c0.5,0,1,0,1.4,0.1c0.4,0.1,0.8,0.2,1.3,0.4
		c0.4,0.2,0.9,0.5,1.5,0.9l-7.3,5.8l1.7,1.4v19.4c-1.9-0.9-3.4-2.3-4.4-4.2c-1.4-2.5-2.2-5.8-2.2-10
		C-137.6,406.1-137.1,403.6-136.1,401L-136.1,401z M-136.8,393.5c0.4,0,1,0.1,1.6,0.2c0.7,0.1,1.3,0.3,1.9,0.4
		c-4,1.8-7.1,4.7-9.3,8.8c-1.9,3.6-2.9,7.6-2.9,11.8c0,5.3,1.8,9.8,5.5,13.5c3.7,3.8,8.1,5.6,13.4,5.6c5.1,0,9.4-1.9,12.8-5.8
		c3.5-3.9,5.2-8.4,5.2-13.7c-0.5,1.1-1,2-1.6,2.8c-0.6,0.7-1.4,1.6-2.5,2.5c-0.7,0.6-1.4,1.1-1.9,1.4s-1.3,0.7-2.2,1v-25.8
		c1.2-0.5,2.1-1,2.8-1.5c0.7-0.5,1.4-1.2,2.3-2.2c2.1-2.3,3.3-5,3.5-7.8c-1.5,1-2.9,1.7-4.1,2.2c-1.2,0.5-2.6,0.8-4.1,0.9
		c-0.2,0-0.6,0-1,0.1c-1.7,0-4.2-0.7-7.5-2c-3.3-1.3-5.9-2-7.9-2c-3.8,0-6.8,1.8-9.1,5.3c-2.1,3.2-3.1,6.9-3.1,11.3
		c0.3-1.3,1-2.6,2.1-3.8c0.8-0.9,1.7-1.6,2.8-2.3C-139.2,393.9-138,393.5-136.8,393.5L-136.8,393.5z M-101.8,433.6l6.2-7l-3.2-3.3
		v-18.7l1.8-1.2l5,3.8v24.6c0,1.4-0.1,2.6-0.3,3.6s-0.5,1.8-1.1,2.5c-0.4,0.5-1,1.2-1.8,2.2s-1.8,1.8-3,2.3c2.4-0.2,4.4-0.8,5.9-1.6
		c1.5-0.8,3.1-2.2,4.7-4c1.2-1.3,2.1-2.7,2.7-4s1-2.8,1.2-4.3V401l-2.2,0.1l-6.7-4.5l-4.9,4l-1.6-0.9v-13.6l-1.4-3.1l-6.4,6.2v35.4
		l-1.9,2.3L-101.8,433.6L-101.8,433.6z M-80.5,425.7l11.6,7.3l11-11.5l-6,4.2l-7.3-5.2v-4.9l13.1-9.8l-8.3-11.2l-13.3,9.3v20.2
		L-80.5,425.7L-80.5,425.7z M-42.1,389.7v13.4c-1,0.1-1.7,0.3-2.3,0.5c-0.6,0.2-1.2,0.6-1.9,1.2c-1.9,1.5-2.9,3.4-2.9,5.7
		c0,0.4,0,0.8,0.1,1.1c0,0.3,0.1,0.7,0.2,1c0.7-0.6,1.3-1,2-1.1c0.6-0.2,1.4-0.3,2.4-0.3c0.5,0,0.9,0.1,1.1,0.1
		c0.3,0.1,0.7,0.3,1.3,0.6v13.2l9.9,10l9.1-9.3l11,9.3l16-15.5v-26.6l-9.9-7.6l-7.3,6.6l-10-6.6l-8.9,7.5v-4.4c0-1.4-1-3.1-3.1-4.9
		c-0.6-0.4-1.2-0.9-1.8-1.3c-0.5-0.5-0.9-1.1-1-1.9c-0.1-0.8-0.1-1.5-0.1-2c0-1.6,0.5-2.9,1.7-3.9c-0.6-0.1-1-0.1-1.2-0.1
		c-2.2,0-4.1,0.9-5.7,2.7c-1.7,1.8-2.5,3.8-2.5,6c0,0.3,0,0.8,0.1,1.4C-45.3,386.8-44.1,388.5-42.1,389.7L-42.1,389.7z M5.9,426.1
		l8.9,6.2l6.5-6.1l7.7,5.4l6.6-7.1h-2.3l-2.9-3v-21l-1.6,0.3l-7.5-6.2l-14.1,9.8v20.6L5.9,426.1L5.9,426.1z M48.6,395.9
		c-0.8-0.4-1.6-0.9-2.5-1.6l-11.7,8.3v13.9l1.1,0.9h7l-9,15.7c1.4-1.2,2.5-2,3.2-2.4c1.1-0.5,2.2-0.8,3.5-0.8c1.5,0,2.8,0.2,3.7,0.5
		c1,0.4,1.9,1,2.9,1.9l11.5-9v-14.1l-0.9-0.9h-7.7v-0.7l6.8-12c-0.7,0.4-1.3,0.7-1.7,0.8c-0.4,0.1-1.1,0.1-2.1,0.1h-1.5
		C50.3,396.5,49.4,396.3,48.6,395.9L48.6,395.9z M66.8,432.6l6.3-7l-3.2-3.3v-18.7l1.7-1.2l5.1,3.9v24.5c0,1.4-0.1,2.6-0.3,3.6
		c-0.2,0.9-0.6,1.8-1.2,2.5c-0.4,0.5-0.9,1.2-1.6,2.1c-0.9,1-1.9,1.8-3.1,2.4c2.2-0.2,4.1-0.7,5.8-1.6c1.7-0.9,3.3-2.2,4.8-3.9
		c1.1-1.3,2-2.6,2.6-4.1c0.6-1.4,1-2.9,1.2-4.3v-27.6l-2.1,0.2l-6.8-4.5l-4.9,3.9l-1.6-0.9v-13.6l-1.4-3.2l-6.5,6.2v35.4l-1.9,2.2
		L66.8,432.6L66.8,432.6z M101.4,390.2l-6.5-5.2l-5.2,5.7l5.5,4.9L101.4,390.2L101.4,390.2z M91.2,406.4v19.5l-1.4,2.1h2.4l5.6,4.7
		l5.9-5.4l7.5,6.1l6.6-7.3l-2.1-2.7v-18.3l1.7-0.9l3.8,4.2v17.9l6.7,5.8l6.5-7.3h-3l-1.7-2.8v-19.5l0.9-1.8l-1.7,0.4l-6.6-5.2
		l-6.5,6.7l-7.5-6l-6.2,7h2.4l2.1,2.4v17.9l-4.2,1.4l-2.7-2.1v-20.1l0.9-1.2l-7.5-5.5l-6.1,6.5l2.1,0.6L91.2,406.4L91.2,406.4z
		 M220.2,425.2l-2.1-2.7v-18.3l1.7-0.9l3.8,4.2v18l6.7,5.7l6.5-7.3h-3l-1.7-2.8v-19.5l0.9-1.7l-1.7,0.3l-6.6-5.2l-6.5,6.7l-7.5-6
		l-6.2,7h2.4l2.1,2.4v18l-2.6,3.4l8,5.2L220.2,425.2L220.2,425.2z M135.9,425.4c1,0,1.8,0.1,2.6,0.4c0.8,0.2,1.6,0.7,2.3,1.3
		c0.8,0.6,1.3,1.2,1.7,1.7s0.7,1.3,0.9,2.3l-3.7,4.8l-3.9,5.3c1-0.6,1.9-0.9,2.6-1c0.7-0.1,1.8-0.2,3.2-0.2c1.6,0.1,3,0.5,4.2,1.1
		c1.2,0.6,2.2,1.6,3.2,2.8c2.3-0.9,5-2.8,8-5.7c3-3,4.6-5.4,4.6-7.3c0-0.3-0.3-1.4-1-3.1c-0.7-1.7-1-3.5-1-5.5v-22.3l-10-6.2
		l-12.6,8.9v21.2L135.9,425.4L135.9,425.4z M160.6,400.8h4.2v24.9l-1,1.9h2.4l5.2,4l6.7-7.7h-2.9l-1.9-2.1v-20.6l4.2-5.2h-4.2v-13.7
		l-8.5,8v5.5L160.6,400.8L160.6,400.8z M178.8,425.4l8.9,6.3l15.5-10.8v-21.1l-1.6,0.4l-7.5-6.3l-14.1,9.8v20.6L178.8,425.4
		L178.8,425.4z M251.6,389.8v6.7c-1.2,0-2.3,0.1-3.2,0.4c-0.9,0.3-1.7,0.8-2.5,1.5c-0.8,0.8-1.3,1.6-1.4,2.7c-0.1,1-0.2,2.3-0.2,3.9
		c0,0.7,0,1.1-0.1,1.4c1.1-1.7,2.5-2.4,4.4-2.1c1.2,0.2,2.2,0.7,2.9,1.6V417c-2.2,1.1-4.1,2.7-5.7,4.5c-1.8,2.2-3,4.4-3.7,6.7
		c1-0.8,1.9-1.3,2.6-1.7c0.7-0.4,1.7-0.7,3-1.1c0.5-0.1,1-0.3,1.6-0.5c0.6-0.2,1.3-0.2,2.2-0.2v21.5l9.4-7.7l3.2,2.3v-12.2l4,1.4
		l13.6-9.4v-31.6l-8.7-7l-8.9,7.5v-3.9l-1.7-1.4v6.3l-1.4,1v-6.6l-7.3-5.6l-8.7,8.5c0.7-0.4,1.5-0.6,2.2-0.6c0.6,0,1.2,0.1,1.8,0.3
		C250.3,387.8,251.2,388.6,251.6,389.8L251.6,389.8z M283,426.1l8.9,6.2l15.6-10.8v-21l-1.6,0.3l-7.5-6.2l-14.1,9.8v20.6L283,426.1
		L283,426.1z M324.1,395.6c-0.7-0.3-1.6-0.9-2.7-1.6l-11.6,8.2v13.9l1,0.9h7l-9,15.7c1-0.9,1.8-1.5,2.5-1.9c1.2-0.8,2.7-1.2,4.3-1.2
		c1.5,0,2.7,0.2,3.7,0.5c1,0.4,1.9,1,2.9,1.9l11.5-9v-14.1l-0.9-0.9h-7.7v-0.7l6.8-12c-0.7,0.4-1.3,0.7-1.7,0.8
		c-0.4,0.1-1.1,0.1-2.1,0.1h-1.5C325.7,396.1,324.9,395.9,324.1,395.6L324.1,395.6z M333.9,401.2h4.2v24.9l-1,1.9h2.4l5.2,4l6.8-7.7
		h-2.9l-1.9-2.1v-20.6l4.2-5.2h-4.2v-13.7l-8.5,8v5.5L333.9,401.2L333.9,401.2z M15.6,401.9l5.6,4.2v16.7l-1.8,1.9l-3.8-3.3
		L15.6,401.9L15.6,401.9z M154.5,431.3c1.1,0.8,1.7,1.8,1.7,3.1c0,0.6-0.1,1-0.1,1.3c-0.3,0.4-0.5,0.7-0.6,0.9
		c-0.4,0.4-0.9,0.6-1.4,0.7c-0.6,0.1-1.4-0.2-2.4-0.9c-1-0.7-2.5-1-4.5-1c-1.3,0-2.5,0.1-3.5,0.4s-2.2,0.6-3.3,1.2l10.5-12.9v1.7
		c0,1,0.1,1.7,0.2,2.4c0.2,0.6,0.5,1.2,1.1,1.8C152.9,430.3,153.7,430.8,154.5,431.3L154.5,431.3z M145.3,401l5.5,4v16.2l-1.6,1.7
		l-3.9-3.9V401L145.3,401z M-71.2,413.5v-10.5l5.2,6.6L-71.2,413.5L-71.2,413.5z M51.7,401.7l-4.9,8.7h-3.7V401
		c1.4,0.9,3,1.4,4.7,1.4C49.2,402.4,50.5,402.1,51.7,401.7L51.7,401.7z M188.5,401.1l5.6,4.2v16.7l-1.8,1.9l-3.8-3.4L188.5,401.1
		L188.5,401.1z M44.5,415.6h5.2v9.3c-1-0.3-1.8-0.5-2.3-0.6c-0.5-0.1-1.5-0.1-3.1-0.1c-1.1,0-2,0.1-2.7,0.3
		c-0.8,0.2-1.7,0.5-2.7,0.9L44.5,415.6L44.5,415.6z M261,396.1l1.4-1.2v41L261,435V396.1L261,396.1z M264.1,393.8l4.4-2.8l3.2,2.3
		v27c-1.5-0.9-2.3-1.3-2.4-1.4c-0.1,0-0.7-0.2-1.6-0.5c-1.2-0.3-2.4-0.6-3.5-0.9L264.1,393.8L264.1,393.8z M-119.2,397
		c0.5,0,0.9,0,1.1-0.1v26.1c-1.9,0.9-3.8,1.4-5.8,1.4c-1.2,0-2.4-0.1-3.6-0.4c-1.2-0.3-2.1-0.7-2.8-1.2l8.2-8.2v-17.9
		c0.3,0.2,0.7,0.3,1.1,0.3c0.4,0,0.7,0,0.8,0C-120,397-119.7,397-119.2,397L-119.2,397z M292.7,401.9l5.6,4.2v16.7l-1.7,1.9
		l-3.9-3.3V401.9L292.7,401.9z M-32.2,395l2.7-2.1l5.5,5.6v25.8l-2.2,2.3l-6-5.7L-32.2,395L-32.2,395z M325.3,401.9
		c0.6-0.1,1.2-0.3,1.8-0.5l-4.9,8.7h-3.7v-9.4c1.5,0.9,3.1,1.4,4.7,1.4C324,402,324.7,401.9,325.3,401.9L325.3,401.9z M319.9,415.3
		h5.2v9.3c-1-0.3-1.8-0.5-2.3-0.6c-0.5-0.1-1.5-0.1-3.1-0.1c-1.1,0-2,0.1-2.7,0.3c-0.8,0.2-1.6,0.5-2.7,0.9L319.9,415.3L319.9,415.3
		z M-13.3,395l2.6-2.1l5.6,5.6v25.8l-2.3,2.3l-5.9-5.7L-13.3,395L-13.3,395z"/>
</g>
</svg>
