<?xml version="1.0" encoding="utf-8"?>
<!-- Generator: Adobe Illustrator 18.1.1, SVG Export Plug-In . SVG Version: 6.00 Build 0)  -->
<svg version="1.1" id="Layer_1" xmlns="http://www.w3.org/2000/svg" xmlns:xlink="http://www.w3.org/1999/xlink" x="0px" y="0px"
	 viewBox="-161 163.3 512 512" enable-background="new -161 163.3 512 512" xml:space="preserve">
<polygon fill="#EE7125" points="-161,163.3 351,163.3 351,675.3 -161,675.3 "/>
<path fill="#FFFFFF" d="M-47.4,568.6l-13.3,13.3l-8.7-8.8l13.3-13.3l-34.3-34.3c-5.6-5.6-6.3-6.6-13.3-3c-2.5,1.4-5.3,1.3-7.4-0.8
	c-4.4-4.4,0.3-9.6,0.9-10.3l42.7-42.7c0.6-0.6,5.9-5.3,10.3-0.9c2.1,2.1,2.1,4.8,0.8,7.4c-3.6,6.9-2.6,7.7,3,13.3l79.2,79.2
	c5.6,5.6,6.3,6.7,13.3,3c2.6-1.3,5.3-1.3,7.4,0.8c4.4,4.4-0.3,9.7-0.9,10.3L2.8,624.5c-0.6,0.6-5.9,5.3-10.3,0.9
	c-2.1-2.1-2.1-4.8-0.8-7.4c3.6-6.9,2.6-7.7-3-13.3L-47.4,568.6L-47.4,568.6z M-48,675.3h-17.4c0-0.1,0.1-0.2,0.1-0.3
	c3.6-6.9,2.6-7.7-3-13.3l-79.2-79.2c-5.6-5.6-6.3-6.7-13.3-3.1c-0.1,0-0.1,0.1-0.2,0.1v-17.4l36.4-36.4c0.6-0.6,5.9-5.3,10.2-0.9
	c2.1,2.1,2.1,4.8,0.8,7.4c-3.6,7-2.6,7.7,3,13.3l79.2,79.2c5.6,5.6,6.3,6.7,13.3,3c2.6-1.4,5.3-1.4,7.4,0.8
	c4.4,4.4-0.3,9.7-0.9,10.3L-48,675.3L-48,675.3z"/>
<path fill="#FFFFFF" d="M169.5,231.7l39.8-39.8l113.1,113l-39.8,39.8c-0.6,0.6-5.9,5.3-10.3,0.9c-2.1-2.1-2.1-4.9-0.8-7.4
	c3.6-6.9,2.6-7.7-3-13.3l-79.2-79.2c-5.6-5.6-6.3-6.6-13.3-3c-2.6,1.4-5.3,1.4-7.4-0.8C164.2,237.6,168.9,232.3,169.5,231.7
	L169.5,231.7z M237.9,163.3h23.7l18.8,18.8c0.8,0.8,3.5,3.8-1,8.3c-2.6,2.6-4.8,1.8-7.9,0.3c-16.2-8.4-31.3-8-46.7,3.1l-8.8-8.8
	L237.9,163.3L237.9,163.3z M351,250.6v25.7l-21.9,21.8l-8.7-8.8c10.7-13.7,11.7-31.4,3.7-47.6c-1.2-3.3-2.7-6.7,0-9.4
	c4.8-4.8,8.9,0.2,9.5,0.8L351,250.6L351,250.6z M266.6,235.5c4.7-8,1.6-16.8-2.8-23.9c-1.8-3.3-3.3-6.6-0.2-9.8
	c4.7-4.7,9.4,1.5,10.6,2.7l32.6,32.6c1.2,1.2,7.4,5.9,2.7,10.6c-3.2,3.2-6.5,1.6-9.8-0.2c-7.1-4.4-15.9-7.4-23.9-2.7L266.6,235.5
	L266.6,235.5z"/>
<path fill="#FFFFFF" d="M126.3,656.6l-18.7,18.7h-9.9c0.3-0.6,0.6-1.2,0.9-1.8c1.1-2.1-1.3-4.3-2.6-5.5l-44.5-44.5
	c-1.3-1.3-3.4-3.7-5.5-2.6c-2.3,1.1-4.2,2.5-6.3,0.3c-2.2-2.2-0.3-4.6,1.4-6.3L62.7,593L126.3,656.6L126.3,656.6z"/>
<path fill="#FFFFFF" d="M268.7,387l20.8-20.8l54,54c3.1,3.1,3.6,3.7,7.5,1.7v9.9l-20.4,20.4c-0.3,0.3-3.3,3-5.8,0.5
	c-1.2-1.2-1.2-2.7-0.4-4.2c2-3.9,1.4-4.3-1.7-7.5L268.7,387L268.7,387z M325.4,369.9c0.3,0.3,2.2,2.7-0.3,5.3c-2.4,2.4-5,0.6-7.1-1
	c-5.3-3.7-12.1-8.1-19.6-6.9l-4.9-4.9l12.2-12.3L325.4,369.9L325.4,369.9z M252.6,403.1l12.2-12.2l4.9,4.9
	c-1.3,7.6,3.1,14.4,6.9,19.6c1.6,2.1,3.4,4.8,1,7.1c-2.5,2.6-4.9,0.7-5.3,0.3L252.6,403.1L252.6,403.1z"/>
<path fill="#FFFFFF" d="M-6.8,420.9c-4.5,9.7-0.6,14.8,3.2,18.6l78.3,78.3c3.8,3.8,8.9,7.7,18.6,3.2l8.8,8.8
	C67.2,558.9,26.4,548-3.7,517.9c-30.1-30.1-41-70.9-11.9-105.7L-6.8,420.9L-6.8,420.9z M100.1,514.2c4.5-9.6,0.6-14.8-3.2-18.6
	l-78.3-78.3c-3.8-3.8-8.9-7.7-18.6-3.2l-8.8-8.8c34.8-29.1,75.6-18.2,105.7,11.9c30.1,30.1,41,70.9,11.9,105.7L100.1,514.2
	L100.1,514.2z"/>
<path fill="#FFFFFF" d="M266.7,351.2c-2.1-2.1-4.8-2.1-7.4-0.8c-6.9,3.6-7.7,2.6-13.3-3l-79.2-79.2c-5.6-5.6-6.7-6.3-3-13.3
	c1.3-2.6,1.3-5.3-0.8-7.4c-4.4-4.4-9.7,0.3-10.3,0.9l-39.8,39.8l32.5,60.3l-0.3,0.3l-62.5-30.2l-38.3,38.3c-1.8,1.8-6.4,6.3-1.7,11
	c3.6,3.6,8-0.1,10-1.8c2.7-2.4,5.2-1.2,8.8-0.3c3.2,0.8,6.2,2.3,9.2,3.8l125.1,62l4.4-4.4l-61.2-113.1l70.2,70.2
	c5.6,5.6,6.7,6.4,3,13.3c-1.4,2.6-1.3,5.3,0.8,7.4c4.4,4.4,9.6-0.3,10.3-0.9l42.7-42.7C266.4,360.8,271.1,355.5,266.7,351.2
	L266.7,351.2z"/>
<path fill="#FFFFFF" d="M148.6,430.9l-26-26l-33.4-16.5l-0.3,0.3l50.9,50.9c16.5,21.3,0.9,25.1,7.5,31.6c4.7,4.7,10.6-1.8,12.2-3.5
	l17.2-17.2c1.6-1.7,8.1-7.5,3.4-12.2C173.6,431.9,169.9,447.4,148.6,430.9L148.6,430.9z"/>
<path fill="#FFFFFF" d="M66.5,589.2c14.3-14.6,36.4-16.7,59.3,4.3c20.9,19,18.4,45.2,4.3,59.3l-4.9-4.9c4.5-5.9-0.1-11-3.3-14.2
	l-36.2-36.2c-3.2-3.2-8.3-7.8-14.2-3.3L66.5,589.2L66.5,589.2z"/>
<path fill="#FFFFFF" d="M98.2,557.5l22.4-22.4l63.6,63.6l-22.4,22.4c-0.3,0.3-3.3,3-5.8,0.5c-1.2-1.2-1.2-2.7-0.4-4.2
	c2-3.9,1.5-4.3-1.7-7.5l-44.5-44.5c-3.1-3.1-3.6-3.7-7.5-1.7c-1.5,0.8-3,0.8-4.2-0.4C95.2,560.8,97.9,557.8,98.2,557.5L98.2,557.5z
	 M124.4,531.2l18.9-18.9l17.3,17.2c0.4,0.4,2,2.1-0.6,4.7c-1.5,1.4-2.7,1-4.4,0.2c-9.1-4.7-17.6-4.5-26.3,1.8L124.4,531.2
	L124.4,531.2z M183.1,589.9c6-7.7,6.6-17.7,2.1-26.8c-0.7-1.9-1.5-3.7,0-5.3c2.7-2.7,5,0.1,5.4,0.4l17,17L188,594.8L183.1,589.9
	L183.1,589.9z M152.8,559.6c2.6-4.5,0.9-9.4-1.5-13.4c-1-1.9-1.9-3.8-0.1-5.5c2.6-2.6,5.3,0.9,6,1.5l18.4,18.4
	c0.7,0.7,4.2,3.3,1.5,5.9c-1.8,1.8-3.6,0.9-5.5-0.1c-4-2.5-8.9-4.2-13.4-1.5L152.8,559.6L152.8,559.6z"/>
<path fill="#FFFFFF" d="M176.2,479.5c8.1-8.1,13.7-12,20-13.7c10-2.6,18.1,0.6,25.3,7.7c7.1,7.1,10.3,15.2,7.7,25.2
	c-1.7,6.3-5.6,11.9-13.7,20l-4.9-4.9c4.1-6,0.9-9.7-3.3-13.9l-12.8-12.8c-3.8-3.8-8.1-6.5-13.3-2.7L176.2,479.5L176.2,479.5z
	 M161.1,513.7c-3.1-3.1-3.6-3.7-7.5-1.7c-1.4,0.8-3,0.8-4.2-0.4c-2.5-2.5,0.2-5.4,0.5-5.8l22.4-22.4l54.1,54.1
	c3.1,3.1,3.6,3.7,7.5,1.7c1.5-0.8,3-0.8,4.2,0.4c2.5,2.5-0.2,5.4-0.5,5.8l-24.1,24.1c-0.3,0.4-2.6,2.3-5.1-0.1
	c-1.2-1.2-1.4-2.5-0.6-4c2-3.9,1-3.9-2.2-7L161.1,513.7L161.1,513.7z"/>
<path fill="#FFFFFF" d="M230.1,433c-2.6,5.4-0.4,8.3,1.8,10.4l44,44c2.1,2.1,5,4.3,10.4,1.8l4.9,4.9c-19.6,16.4-42.6,10.3-59.5-6.6
	c-16.9-16.9-23-39.9-6.6-59.5L230.1,433L230.1,433z M290.1,485.4c2.5-5.4,0.3-8.3-1.8-10.5l-44-44c-2.1-2.1-5-4.3-10.5-1.8l-4.9-4.9
	c19.6-16.4,42.6-10.3,59.5,6.6c16.9,16.9,23,39.8,6.6,59.5L290.1,485.4L290.1,485.4z"/>
<path fill="#FFFFFF" d="M-99.6,357.1l19.6-19.6l50.8,50.8c3,3,3.4,3.5,7,1.6c1.4-0.7,2.8-0.7,3.9,0.4c2.3,2.3-0.2,5.1-0.5,5.4
	l-22.6,22.6c-0.3,0.3-3.1,2.8-5.4,0.5c-1.1-1.1-1.1-2.6-0.4-3.9c1.9-3.7,1.4-4.1-1.6-7L-99.6,357.1L-99.6,357.1z M-46.4,341.1
	c0.3,0.3,2.1,2.6-0.3,5c-2.2,2.2-4.7,0.6-6.7-1c-5-3.5-11.3-7.7-18.5-6.5l-4.6-4.6l11.5-11.5L-46.4,341.1L-46.4,341.1z
	 M-114.7,372.2l11.5-11.5l4.6,4.6c-1.2,7.1,3,13.5,6.5,18.5c1.5,2,3.2,4.5,1,6.7c-2.4,2.4-4.6,0.6-5,0.3L-114.7,372.2L-114.7,372.2z
	"/>
<path fill="#FFFFFF" d="M12.3,346.8c3,3,3.4,3.5,7,1.6c1.4-0.7,2.8-0.7,3.9,0.4c2.3,2.3-0.2,5.1-0.5,5.4L0.1,376.8
	c-0.3,0.3-3.1,2.8-5.4,0.5c-1.1-1.1-1.1-2.6-0.4-3.9c1.9-3.7,1.4-4.1-1.6-7l-41.9-41.9c-3-3-3.4-3.5-7-1.6c-1.4,0.7-2.8,0.7-3.9-0.4
	c-2.3-2.3,0.2-5.1,0.5-5.4l22.6-22.6c0.3-0.3,3.1-2.8,5.4-0.5c1.1,1.1,1.1,2.6,0.4,3.9c-1.9,3.7-1.4,4.1,1.6,7L12.3,346.8
	L12.3,346.8z M3.8,317.1l-7,7l-4.6-4.6l7-7L-19,294.3c-3-3-3.4-3.5-7-1.6c-1.4,0.7-2.8,0.7-3.9-0.4c-2.3-2.3,0.2-5.1,0.5-5.4
	l22.6-22.6c0.3-0.3,3.1-2.8,5.4-0.5c1.1,1.1,1.1,2.6,0.4,3.9c-1.9,3.7-1.4,4.1,1.6,7l41.9,41.9c3,3,3.4,3.5,7,1.6
	c1.4-0.7,2.8-0.7,3.9,0.4c2.3,2.3-0.2,5.1-0.5,5.4l-22.6,22.6c-0.3,0.3-3.1,2.8-5.4,0.5c-1.1-1.1-1.1-2.6-0.4-3.9
	c1.9-3.7,1.4-4.1-1.6-7L3.8,317.1L3.8,317.1z"/>
<path fill="#FFFFFF" d="M0.7,256.8l21.1-21.1l59.7,59.7l-21.1,21.1c-0.3,0.3-3.1,2.8-5.4,0.5c-1.1-1.1-1.1-2.6-0.4-3.9
	c1.9-3.7,1.4-4.1-1.6-7l-41.9-41.9c-3-3-3.4-3.5-7-1.6c-1.4,0.7-2.8,0.7-3.9-0.4C-2.1,259.9,0.4,257.1,0.7,256.8L0.7,256.8z
	 M25.4,232.1l17.8-17.8l16.2,16.2c0.4,0.4,1.8,2-0.6,4.4c-1.4,1.4-2.6,1-4.2,0.2c-8.6-4.4-16.5-4.2-24.7,1.7L25.4,232.1L25.4,232.1z
	 M80.5,287.2c5.7-7.3,6.2-16.6,2-25.2c-0.6-1.8-1.4-3.5,0-5c2.6-2.6,4.7,0.1,5,0.4l16,16l-18.4,18.4L80.5,287.2L80.5,287.2z
	 M52.1,258.8c2.5-4.2,0.9-8.9-1.4-12.6c-1-1.8-1.8-3.5-0.1-5.2c2.5-2.5,5,0.8,5.6,1.4l17.3,17.3c0.6,0.6,3.9,3.1,1.4,5.6
	c-1.7,1.7-3.4,0.9-5.2-0.1c-3.8-2.3-8.4-3.9-12.6-1.4L52.1,258.8L52.1,258.8z"/>
<path fill="#FFFFFF" d="M317.1,654.4c0-8.3,6.4-14.4,13.9-14.4c7.5,0,13.8,6.1,13.8,14.4c0,8.3-6.4,14.4-13.8,14.4
	C323.5,668.9,317.1,662.8,317.1,654.4L317.1,654.4z M331,666.5c6.2,0,11.1-5.1,11.1-12c0-6.8-4.9-11.9-11.1-11.9
	c-6.3,0-11.1,5.1-11.1,11.9C319.8,661.4,324.7,666.5,331,666.5L331,666.5z M328.1,662.8h-2.4l0-16.6h6c3.7,0,5.6,1.4,5.6,4.7
	c0,3-1.8,4.3-4.1,4.6l4.5,7.3H335l-4.2-7.2h-2.7L328.1,662.8L328.1,662.8z M330.9,653.4c2,0,3.8-0.2,3.8-2.7c0-2.1-1.8-2.4-3.4-2.4
	h-3.3l0,5.1L330.9,653.4L330.9,653.4z"/>
</svg>
