<?xml version="1.0" encoding="utf-8"?>
<!-- Generator: Adobe Illustrator 18.1.1, SVG Export Plug-In . SVG Version: 6.00 Build 0)  -->
<svg version="1.1" id="svg2" xmlns:svg="http://www.w3.org/2000/svg"
	 xmlns="http://www.w3.org/2000/svg" xmlns:xlink="http://www.w3.org/1999/xlink" x="0px" y="0px" viewBox="602 101 2908.3 512"
	 enable-background="new 602 101 2908.3 512" xml:space="preserve">
<path id="path2384" fill="#B2C9D9" d="M790.5,223.1h-59.9l0.3-64l-88.7,13.2v49.4l-40.3,6.1v39.3h41.6l-0.3,172.3
	c0.3,6.2,10.2,62.1,70.7,58.6c68.6-4,74.5-11.8,80.6-15.9c-0.5,0.5,0-33.5,0-33.5l-37.2,1c0,0-21-1.4-24.4-24.7
	c-0.1,0-0.7-157-0.7-157l58.2,0.3C790.5,268.1,790.5,223.1,790.5,223.1z"/>
<path id="path2396" fill="#B2C9D9" d="M919.4,101l-119.7,17.2l0.2,22.8l31.8,14.2l0.3,299l-30.1,11.8l0.3,24.5l146.9,0.2v-24.4
	l-29.6-12.9l0.2-176.8c0,0,16.8-7.4,39.9-7.4c23.2,0,33.8,14.9,33.8,24c0,9.1,0,160.8,0,160.8l-27.1,12v24.7h146.5v-23.7l-30.1-14.7
	V271.2c0,0,0.7-57.5-66-54.7c-40.6,0.2-69.3,13-97.6,35.4C919.2,251.8,919.2,101.2,919.4,101z"/>
<path fill="#B2C9D9" d="M1366,364.1c3.4-59-2.8-153.1-121.8-147.4c-116.7,5.5-131.4,94.8-130.7,152.4c6.7,93.2,54.8,127.8,145,129.2
	c71.3-2.4,97.2-40,97.2-40v-25.2c0,0-33.5,10.1-68.7,9.8c-83.3-0.6-82.3-78.9-82.3-78.9H1366z M1204.4,332.7c0,0-0.5-38,7.1-62.2
	c6.1-19.3,18.3-25.6,32.4-25.7c23.5,0,29.4,13.1,32,29.3c3.8,23.3,3.2,54.9,2.9,55.1L1204.4,332.7z"/>
<path fill="#00417B" d="M1592,432.9h-106.3c0,0-15.9-1.7-16.6-17.9c-0.7-16.2,10.8-20.3,10.8-20.3s22.7,6.8,46.4,6.8
	c23.7,0,116.8-9.8,116.8-90.4c0-36.6-28.8-57.5-28.8-57.5l51.5,13.8l-0.9-52.9l-74.3,13.7c0,0-38.6-14-66-14
	c-18.4,0-113.6,7.3-117,90.8c-2.4,59,47.3,81,47,81c-0.3,0-47.4,29.1-47.7,65.3c-0.3,34.9,39.5,45.6,42.5,46.3c0.1,0,0.2,0,0.2,0
	c0,0-0.1,0-0.2,0c-3.8-0.1-64.8,11.3-64.8,54.2c0,41,67.7,60.9,139.4,61.3c71.8,0.3,150.6-20,150.6-104.9S1592,432.9,1592,432.9z
	 M1523.9,246.3c33-0.2,33.2,34,33.3,48.4v25.6c0,0,4.4,46-30.5,46.2c-34.9,0.2-33.8-26.7-33.8-46.2s0-30.1,0-30.1
	S1491,246.5,1523.9,246.3z M1524.1,580.5c-49.1,0-66.7-20-66.7-39.3c0-19.3,12-27.2,12-27.2l106.4-0.2c0,0,21.2,2.4,21.2,21
	C1597.1,563.4,1573.2,580.5,1524.1,580.5z"/>
<path id="path3188" fill="#00417B" d="M1794,216l-119.8,18.6V258l30.8,14.9v150.6c0,0,1.6,74,74.1,74.8
	c58.9,0.7,88.3-40.3,88.3-40.3v39.6l116.1-13.9v-21.3l-29.7-17.1V216.7l-119.3,18.6v22.3l31.5,15.9v160.8c0,0-8.1,6.8-34.2,8.8
	c-26.1,2-37.9-22.7-37.9-22.7L1794,216L1794,216z"/>
<path id="path3190" fill="#00417B" d="M2008.1,235.3c0,0,57.2-20.8,104.3-20.8c47.1,0,115.4,16,115.4,74.7s0,162.5,0,162.5L2257,467
	v19.4c0,0-20.8,11.2-51.5,11.2c-30.6,0-57.2-15.6-57.2-39c-6.7,0.1-9.1,38.5-80.9,38.5c-83.8,0-77.3-74.2-77.3-75.6
	s-2.4-55.4,58.6-67c60.3-11.5,88.3-16,88.3-16l-0.3-54.6c0,0-5-33-33.5-32.8c-28.5,0.2-28.2,0.5-28.2,0.5l-20.1,54.8h-47.1
	L2008.1,235.3z M2139.3,439.8v-73.7c0,0-60.1-5.4-60.2,42.7c-0.1,36.2,22.7,40.4,33,40.4C2124,448.5,2131.9,444.3,2139.3,439.8z"/>
<path id="path3195" fill="#00417B" d="M2379.5,213.5l-117,18.4v24.4l30.2,14.4v181.2l-28,14.4v23h154.1v-22l-36.9-14.8l0.2-149.6
	c0,0,23.5-9.3,47.1-9.3c23.7,0,35.4,2.6,35.4,2.6v-78.3c0,0-50.2-15.7-85.7,54.3C2379,272.4,2379.5,213.5,2379.5,213.5z"/>
<path id="path3197" fill="#00417B" d="M2611.4,124.3v23.7l29.4,14.1v64.1c0,0-20.6-9.8-45.5-9.8c-24.9,0-126.6,3.8-129.5,143.6
	c-2.9,139.8,105.8,137.8,104.8,137.8c-1,0,49.8,1.4,72.8-28.2c-0.1,0-0.2,28.1-0.2,28.1l115-14V461l-27.6-14.1l-0.2-341.3
	L2611.4,124.3z M2640.7,262.8v181.6c0,0-9.5,4.8-27.2,4.8c-28.7,0-53.1-19.6-52.9-82.6c0.2-55,8.2-98.3,32.3-109.6
	C2617,245.8,2639.6,261.3,2640.7,262.8z"/>
<path id="path3220" fill="#00417B" d="M2889.3,150.2c0,27-21.9,48.9-48.9,48.9c-27,0-48.9-21.9-48.9-48.9c0-27,21.9-48.9,48.9-48.9
	C2867.4,101.3,2889.3,123.2,2889.3,150.2z M2887.2,214.6l-121.5,17.3v23.4l31.8,15.6v181.4l-29.1,13.2v24.7h146.2v-23.7l-27.8-13.5
	L2887.2,214.6z"/>
<path id="path3224" fill="#00417B" d="M2942.7,235c0,0,57.2-20.8,104.3-20.8c47.1,0,115.4,16,115.4,74.7s0,162.5,0,162.5l29.2,15.3
	V486c0,0-20.8,11.3-51.5,11.3c-30.6,0-57.2-15.6-57.2-39c-6.7,0.1-9.1,38.5-80.9,38.5c-83.8,0-77.3-74.2-77.3-75.6
	c0-1.4-2.4-55.4,58.6-67c60.3-11.5,88.3-16,88.3-16l-0.3-54.6c0,0-5-33-33.5-32.8c-28.5,0.2-28.2,0.5-28.2,0.5l-20.1,54.8h-47.1
	L2942.7,235z M3074,439.5v-73.7c0,0-60.1-5.4-60.2,42.7c-0.1,36.2,22.7,40.4,33,40.4C3058.7,448.2,3066.5,444,3074,439.5z"/>
<path id="path3228" fill="#00417B" d="M3315.4,214l-119.5,19v22.7l32.2,15.2v182.8l-29.4,11.8v25.4h146.2v-25l-27.1-12.9V276.2
	c0,0,14.6-6.8,35.9-6.8c21.3,0,37.9,9.5,37.9,30.5s0,153,0,153l-30,14.7l-0.1,22.5h148.9v-24l-29.1-12.2V284.4c0,0,2-67.7-66.7-67.7
	c-68.7,0-98.8,36.2-98.8,36.2L3315.4,214z"/>
</svg>
