<?xml version="1.0" encoding="utf-8"?><!-- Generator: Adobe Illustrator 16.0.0, SVG Export Plug-In . SVG Version: 6.00 Build 0) --><!DOCTYPE svg PUBLIC "-//W3C//DTD SVG 1.1//EN" "http://www.w3.org/Graphics/SVG/1.1/DTD/svg11.dtd"><svg version="1.1" id="svg2" xmlns:svg="http://www.w3.org/2000/svg" xmlns="http://www.w3.org/2000/svg" xmlns:xlink="http://www.w3.org/1999/xlink" x="0px" y="0px" width="1704.102px" height="300px" viewBox="0 0 1704.102 300" enable-background="new 0 0 1704.102 300" xml:space="preserve"><path id="path2384" fill="#B2C9D9" d="M110.461,71.542H75.359l0.198-37.48L23.6,41.795v28.954L0,74.318v23.005h24.392	l-0.198,100.942c0.171,3.631,6.002,36.387,41.447,34.307c40.206-2.357,43.63-6.939,47.198-9.321c-0.283,0.295,0-19.632,0-19.632	l-21.814,0.596c0,0-12.295-0.793-14.279-14.478c-0.077,0.01-0.396-92.018-0.396-92.018l34.111,0.198V71.542z"/><path id="path2396" fill="#B2C9D9" d="M185.968,0l-70.154,10.065l0.1,13.386l18.641,8.33l0.198,175.209l-17.65,6.941l0.199,14.377	l86.067,0.099v-14.278l-17.352-7.537l0.1-103.619c0,0,9.817-4.362,23.4-4.362c13.584,0,19.831,8.726,19.831,14.081	c0,5.355,0,94.199,0,94.199l-15.865,7.039v14.478h85.869v-13.881l-17.65-8.628V99.702c0,0,0.398-33.713-38.671-32.028	c-23.769,0.143-40.605,7.635-57.163,20.724C185.868,88.349,185.868,0.099,185.968,0z"/><path fill="#B2C9D9" d="M447.632,154.134c1.992-34.57-1.622-89.688-71.378-86.381c-68.355,3.24-76.985,55.529-76.564,89.325	c3.928,54.608,32.086,74.908,84.979,75.725c41.788-1.403,56.932-23.418,56.932-23.418v-14.794c0,0-19.633,5.889-40.245,5.748	c-48.798-0.333-48.239-46.205-48.239-46.205H447.632z M352.977,135.764c0,0-0.289-22.283,4.155-36.433	c3.545-11.291,10.715-15.019,18.983-15.031c13.772-0.021,17.215,7.702,18.763,17.19c2.228,13.653,1.861,32.16,1.71,32.311	L352.977,135.764z"/><path fill="#00417B" d="M580.064,194.494h-62.271c0,0-9.32-0.992-9.717-10.512s6.346-11.898,6.346-11.898s13.288,3.967,27.169,3.967	s68.418-5.752,68.418-52.95c0-21.441-16.855-33.713-16.855-33.713l30.156,8.08l-0.509-30.983l-43.53,8.031	c0,0-22.606-8.229-38.671-8.229c-10.808,0-66.537,4.284-68.569,53.21c-1.435,34.542,27.717,47.432,27.52,47.432	c-0.199,0-27.765,17.055-27.963,38.275c-0.191,20.43,23.139,26.703,24.874,27.141c0.074,0.003,0.114,0.012,0.112,0.028	c0,0-0.045-0.011-0.112-0.028c-2.239-0.067-37.967,6.646-37.963,31.759c0.003,23.996,39.663,35.696,81.705,35.894	c42.042,0.199,88.249-11.701,88.249-61.477S580.064,194.494,580.064,194.494z M540.204,85.126	c19.336-0.1,19.435,19.93,19.534,28.358v14.974c0,0,2.578,26.971-17.849,27.07c-20.425,0.099-19.83-15.667-19.83-27.07	c0-11.403,0-17.65,0-17.65S520.87,85.225,540.204,85.126z M540.304,280.96c-28.756,0-39.067-11.7-39.067-23.004	s7.04-15.964,7.04-15.964l62.369-0.099c0,0,12.396,1.386,12.396,12.295C583.041,270.95,569.059,280.96,540.304,280.96z"/><path id="path3188" fill="#00417B" d="M698.457,67.376l-70.203,10.908v13.684l18.046,8.726v88.249c0,0,0.938,43.338,43.432,43.828	c34.506,0.396,51.759-23.6,51.759-23.6v23.203l68.021-8.132V211.75l-17.382-10.035V67.776l-69.875,10.908v13.089l18.443,9.32v94.2	c0,0-4.759,3.966-20.029,5.155c-15.27,1.19-22.211-13.286-22.211-13.286L698.457,67.376L698.457,67.376z"/><path id="path3190" fill="#00417B" d="M823.864,78.691c0,0,33.515-12.2,61.14-12.2s67.59,9.395,67.59,43.751	c0,34.356,0,95.215,0,95.215l17.108,8.974v11.359c0,0-12.199,6.59-30.148,6.59c-17.95,0-33.515-9.115-33.515-22.857	c-3.901,0.07-5.321,22.578-47.397,22.578c-49.08,0-45.294-43.471-45.294-44.312s-1.412-32.451,34.356-39.265	c35.337-6.73,51.744-9.395,51.744-9.395l-0.172-31.972c0,0-2.913-19.352-19.601-19.212c-16.687,0.141-16.547,0.281-16.547,0.281	l-11.778,32.112h-27.625L823.864,78.691z M900.779,198.516v-43.189c0,0-35.199-3.155-35.268,25.03	c-0.051,21.22,13.284,23.698,19.352,23.698C891.806,203.611,896.413,201.168,900.779,198.516z"/><path id="path3195" fill="#00417B" d="M1041.498,65.93l-68.57,10.797V91.03l17.669,8.413v106.153l-16.407,8.414v13.461h90.309	v-12.901l-21.596-8.694l0.141-87.643c0,0,13.742-5.469,27.624-5.469c13.883,0,20.755,1.542,20.755,1.542V68.451	c0,0-29.388-9.205-50.202,31.832C1041.218,100.426,1041.498,65.93,1041.498,65.93z"/><path id="path3197" fill="#00417B" d="M1177.379,13.625v13.882l17.248,8.273v37.582c0,0-12.058-5.75-26.643-5.75	c-14.584,0-74.182,2.244-75.863,84.138c-1.685,81.893,61.98,80.771,61.42,80.771s29.167,0.842,42.629-16.547	c-0.07,0-0.141,16.477-0.141,16.477l67.382-8.203v-13.322l-16.198-8.273l-0.14-199.964L1177.379,13.625z M1194.558,94.818v106.433	c0,0-5.56,2.805-15.916,2.805c-16.843,0-31.093-11.461-30.992-48.379c0.091-32.251,4.797-57.59,18.903-64.225	C1180.654,84.819,1193.903,93.929,1194.558,94.818z"/><path id="path3220" fill="#00417B" d="M1340.198,28.805c0,15.819-12.838,28.656-28.656,28.656	c-15.819,0-28.656-12.837-28.656-28.656c0-15.818,12.837-28.656,28.656-28.656C1327.36,0.149,1340.198,12.986,1340.198,28.805z M1339.008,66.583l-71.195,10.114v13.684l18.642,9.123v106.295l-17.055,7.734v14.478h85.671v-13.882l-16.261-7.934L1339.008,66.583z	"/><path id="path3224" fill="#00417B" d="M1371.508,78.515c0,0,33.517-12.199,61.141-12.199c27.625,0,67.591,9.395,67.591,43.751	c0,34.356,0,95.215,0,95.215l17.108,8.975v11.357c0,0-12.2,6.592-30.149,6.592s-33.516-9.115-33.516-22.858	c-3.9,0.07-5.32,22.577-47.396,22.577c-49.08,0-45.293-43.47-45.293-44.312c0-0.841-1.411-32.45,34.356-39.263	c35.336-6.731,51.744-9.396,51.744-9.396l-0.173-31.972c0,0-2.912-19.352-19.6-19.211s-16.547,0.28-16.547,0.28l-11.779,32.112	h-27.624L1371.508,78.515z M1448.425,198.34v-43.19c0,0-35.199-3.154-35.269,25.031c-0.051,21.218,13.284,23.698,19.353,23.698	C1439.449,203.436,1444.059,200.99,1448.425,198.34z"/><path id="path3228" fill="#00417B" d="M1589.873,66.187l-70.004,11.106V90.58l18.839,8.924v107.088l-17.252,6.941v14.874h85.671	v-14.675l-15.866-7.537V102.677c0,0,8.527-3.967,21.021-3.967c12.495,0,22.211,5.553,22.211,17.848c0,12.295,0,89.637,0,89.637	l-17.578,8.638l-0.073,13.176h87.258V213.93l-17.054-7.139v-99.354c0,0,1.189-39.662-39.068-39.662	c-40.257,0-57.907,21.219-57.907,21.219L1589.873,66.187z"/></svg>