<?xml version="1.0" encoding="iso-8859-1"?><!-- Generator: Adobe Illustrator 16.0.0, SVG Export Plug-In . SVG Version: 6.00 Build 0) --><!DOCTYPE svg PUBLIC "-//W3C//DTD SVG 1.1//EN" "http://www.w3.org/Graphics/SVG/1.1/DTD/svg11.dtd"><svg version="1.1" id="Layer_1" xmlns="http://www.w3.org/2000/svg" xmlns:xlink="http://www.w3.org/1999/xlink" x="0px" y="0px" width="175.748px" height="175.748px" viewBox="0 0 175.748 175.748" style="enable-background:new 0 0 175.748 175.748;" xml:space="preserve"><polygon style="fill:#EE7125;" points="0,0 175.748,0 175.748,175.748 0,175.748 "/><path style="fill:#FFFFFF;" d="M38.988,139.122l-4.561,4.56l-3-3.008l4.551-4.558l-11.784-11.779	c-1.912-1.917-2.174-2.278-4.56-1.041c-0.874,0.47-1.817,0.463-2.536-0.264c-1.504-1.503,0.102-3.308,0.311-3.521l14.651-14.649	c0.207-0.207,2.014-1.811,3.519-0.313c0.728,0.731,0.734,1.663,0.266,2.541c-1.246,2.384-0.88,2.642,1.038,4.56L64.07,138.84	c1.916,1.924,2.177,2.289,4.563,1.038c0.882-0.461,1.81-0.457,2.54,0.267c1.5,1.506-0.099,3.318-0.304,3.527l-14.655,14.646	c-0.21,0.207-2.023,1.81-3.526,0.312c-0.722-0.73-0.724-1.663-0.264-2.544c1.249-2.382,0.883-2.642-1.035-4.562L38.988,139.122	L38.988,139.122z M38.79,175.748h-5.977c0.015-0.031,0.031-0.062,0.047-0.094c1.238-2.373,0.878-2.639-1.039-4.557L4.629,143.911	c-1.924-1.925-2.179-2.288-4.562-1.047c-0.022,0.012-0.045,0.021-0.067,0.034v-5.979l12.491-12.489	c0.207-0.201,2.018-1.812,3.518-0.312c0.726,0.73,0.733,1.66,0.267,2.541c-1.247,2.39-0.883,2.645,1.042,4.568l27.188,27.184	c1.92,1.926,2.176,2.288,4.562,1.044c0.88-0.468,1.814-0.468,2.54,0.262c1.501,1.507-0.103,3.315-0.308,3.522L38.79,175.748	L38.79,175.748z"/><path style="fill:#FFFFFF;" d="M113.439,23.482L127.1,9.817l38.817,38.799L152.25,62.29c-0.208,0.207-2.025,1.812-3.525,0.31	c-0.728-0.729-0.728-1.666-0.262-2.541c1.24-2.384,0.883-2.645-1.04-4.567l-27.194-27.188c-1.92-1.914-2.176-2.281-4.562-1.035	c-0.882,0.465-1.815,0.465-2.538-0.263C111.624,25.506,113.232,23.686,113.439,23.482L113.439,23.482z M136.919,0h8.129l6.464,6.468	c0.262,0.258,1.199,1.302-0.357,2.847c-0.883,0.884-1.66,0.625-2.695,0.11c-5.546-2.868-10.73-2.76-16.016,1.067l-3.012-3.006	L136.919,0L136.919,0z M175.748,29.98v8.81l-7.505,7.499l-3.003-3.005c3.678-4.716,4.025-10.778,1.275-16.323	c-0.416-1.143-0.938-2.287-0.006-3.213c1.659-1.659,3.057,0.055,3.264,0.266L175.748,29.98L175.748,29.98z M146.768,24.813	c1.604-2.744,0.562-5.75-0.945-8.191c-0.611-1.134-1.137-2.282-0.053-3.369c1.604-1.597,3.223,0.524,3.637,0.939l11.201,11.204	c0.416,0.414,2.541,2.028,0.94,3.631c-1.091,1.092-2.229,0.562-3.377-0.058c-2.438-1.501-5.442-2.536-8.187-0.942L146.768,24.813	L146.768,24.813z"/><path style="fill:#FFFFFF;" d="M98.602,169.34l-6.41,6.408h-3.408c0.09-0.203,0.199-0.412,0.306-0.634	c0.386-0.724-0.463-1.46-0.898-1.896L72.902,157.93c-0.44-0.436-1.166-1.281-1.895-0.899c-0.787,0.379-1.429,0.846-2.162,0.118	c-0.756-0.758-0.115-1.58,0.469-2.156l7.468-7.469L98.602,169.34L98.602,169.34z"/><path style="fill:#FFFFFF;" d="M147.486,76.814l7.148-7.147l18.553,18.552c1.076,1.08,1.228,1.284,2.561,0.588v3.39l-6.994,6.989	c-0.115,0.116-1.137,1.024-1.982,0.174c-0.408-0.404-0.41-0.93-0.146-1.426c0.702-1.341,0.495-1.484-0.58-2.563L147.486,76.814	L147.486,76.814z M166.947,70.948c0.115,0.12,0.758,0.934-0.12,1.808c-0.815,0.814-1.72,0.207-2.445-0.354	c-1.812-1.277-4.146-2.793-6.739-2.354l-1.693-1.691l4.199-4.205L166.947,70.948L166.947,70.948z M141.979,82.326l4.199-4.199	l1.693,1.689c-0.441,2.6,1.076,4.93,2.361,6.738c0.554,0.73,1.162,1.635,0.348,2.449c-0.873,0.876-1.688,0.238-1.809,0.117	L141.979,82.326L141.979,82.326z"/><path style="fill:#FFFFFF;" d="M52.929,88.452c-1.554,3.313-0.202,5.075,1.097,6.372L80.9,121.7	c1.297,1.299,3.063,2.647,6.375,1.095l3.009,3.014c-11.962,9.987-25.956,6.243-36.284-4.08C43.678,111.4,39.93,97.402,49.92,85.443	L52.929,88.452L52.929,88.452z M89.609,120.471c1.551-3.312,0.201-5.084-1.104-6.378L61.637,87.214	c-1.3-1.294-3.066-2.642-6.375-1.089l-3.011-3.007c11.958-9.992,25.959-6.249,36.282,4.075c10.324,10.327,14.072,24.32,4.08,36.286	L89.609,120.471L89.609,120.471z"/><path style="fill:#FFFFFF;" d="M146.818,64.504c-0.73-0.719-1.66-0.729-2.543-0.258c-2.385,1.24-2.639,0.879-4.562-1.043	l-27.189-27.186c-1.924-1.92-2.289-2.177-1.039-4.566c0.457-0.877,0.457-1.813-0.266-2.54c-1.504-1.503-3.314,0.104-3.52,0.31	l-13.67,13.666l11.164,20.692l-0.107,0.099L83.627,53.296L70.482,66.439c-0.619,0.619-2.18,2.172-0.574,3.783	c1.244,1.248,2.75-0.047,3.42-0.621c0.936-0.824,1.77-0.41,3.007-0.096c1.089,0.26,2.126,0.78,3.165,1.305l42.928,21.29l1.5-1.498	L102.93,51.791l24.096,24.095c1.92,1.923,2.283,2.186,1.039,4.563c-0.471,0.886-0.463,1.815,0.271,2.542	c1.497,1.501,3.311-0.098,3.52-0.309l14.66-14.654C146.723,67.818,148.318,66.006,146.818,64.504L146.818,64.504z"/><path style="fill:#FFFFFF;" d="M106.262,91.874l-8.923-8.922l-11.457-5.663l-0.104,0.105l17.48,17.485	c5.657,7.312,0.325,8.604,2.559,10.838c1.606,1.604,3.623-0.624,4.19-1.195l5.903-5.896c0.566-0.571,2.789-2.583,1.18-4.189	C114.859,92.202,113.574,97.534,106.262,91.874L106.262,91.874z"/><path style="fill:#FFFFFF;" d="M78.092,146.207c4.899-5.02,12.482-5.719,20.362,1.463c7.174,6.529,6.302,15.514,1.459,20.357	l-1.69-1.692c1.547-2.017-0.029-3.767-1.143-4.871l-12.423-12.43c-1.11-1.106-2.86-2.681-4.87-1.136L78.092,146.207L78.092,146.207z	"/><path style="fill:#FFFFFF;" d="M88.971,135.33l7.698-7.699l21.819,21.82l-7.698,7.699c-0.117,0.113-1.14,1.02-1.985,0.175	c-0.406-0.408-0.408-0.935-0.146-1.429c0.703-1.34,0.498-1.486-0.578-2.568l-15.285-15.285c-1.08-1.076-1.229-1.281-2.566-0.586	c-0.498,0.27-1.022,0.268-1.434-0.143C87.948,136.473,88.854,135.445,88.971,135.33L88.971,135.33z M97.982,126.316l6.504-6.502	l5.922,5.916c0.146,0.147,0.675,0.729-0.202,1.607c-0.498,0.496-0.931,0.352-1.517,0.059c-3.125-1.604-6.037-1.545-9.018,0.608	L97.982,126.316L97.982,126.316z M118.109,146.445c2.07-2.652,2.277-6.067,0.729-9.193c-0.229-0.641-0.527-1.279-0.003-1.805	c0.938-0.934,1.726,0.027,1.841,0.146l5.838,5.837l-6.709,6.709L118.109,146.445L118.109,146.445z M107.725,136.059	c0.904-1.543,0.322-3.231-0.522-4.604c-0.354-0.645-0.646-1.289-0.03-1.902c0.905-0.9,1.812,0.297,2.045,0.529l6.303,6.304	c0.229,0.229,1.428,1.136,0.52,2.04c-0.607,0.614-1.251,0.321-1.895-0.031c-1.369-0.842-3.06-1.428-4.606-0.521L107.725,136.059	L107.725,136.059z"/><path style="fill:#FFFFFF;" d="M115.745,108.557c2.772-2.773,4.696-4.119,6.858-4.697c3.443-0.879,6.215,0.203,8.668,2.648	c2.445,2.448,3.525,5.225,2.65,8.667c-0.586,2.161-1.926,4.089-4.699,6.857l-1.691-1.688c1.4-2.049,0.296-3.33-1.133-4.764	l-4.405-4.404c-1.313-1.309-2.774-2.244-4.556-0.93L115.745,108.557L115.745,108.557z M110.551,120.287	c-1.078-1.08-1.225-1.283-2.568-0.587c-0.494,0.267-1.019,0.261-1.428-0.149c-0.844-0.843,0.061-1.865,0.176-1.982l7.701-7.696	l18.557,18.556c1.074,1.074,1.223,1.284,2.564,0.58c0.498-0.261,1.021-0.264,1.432,0.145c0.85,0.847-0.057,1.869-0.174,1.982	l-8.256,8.258c-0.115,0.121-0.908,0.793-1.756-0.051c-0.406-0.41-0.479-0.867-0.217-1.363c0.701-1.34,0.334-1.326-0.744-2.408	L110.551,120.287L110.551,120.287z"/><path style="fill:#FFFFFF;" d="M134.236,92.579c-0.877,1.866-0.121,2.854,0.607,3.583l15.113,15.109	c0.729,0.729,1.723,1.488,3.587,0.611l1.692,1.691c-6.737,5.634-14.614,3.535-20.418-2.272c-5.809-5.805-7.907-13.681-2.278-20.421	L134.236,92.579L134.236,92.579z M154.857,110.573c0.875-1.866,0.117-2.855-0.613-3.589l-15.109-15.107	c-0.73-0.732-1.721-1.488-3.588-0.617l-1.689-1.688c6.74-5.633,14.615-3.529,20.416,2.275c5.808,5.805,7.912,13.676,2.279,20.42	L154.857,110.573L154.857,110.573z"/><path style="fill:#FFFFFF;" d="M21.061,66.547l6.717-6.717l17.438,17.438c1.015,1.015,1.152,1.207,2.413,0.549	c0.466-0.248,0.959-0.248,1.343,0.137c0.795,0.794-0.055,1.754-0.164,1.863l-7.759,7.762c-0.11,0.107-1.069,0.959-1.864,0.162	c-0.385-0.383-0.385-0.876-0.137-1.344c0.657-1.261,0.466-1.397-0.549-2.412L21.061,66.547L21.061,66.547z M39.349,61.036	c0.11,0.11,0.712,0.876-0.11,1.7c-0.769,0.768-1.619,0.19-2.303-0.329c-1.7-1.207-3.894-2.634-6.334-2.222l-1.59-1.59l3.949-3.947	L39.349,61.036L39.349,61.036z M15.878,71.729l3.949-3.949l1.589,1.591c-0.411,2.44,1.014,4.634,2.221,6.335	c0.521,0.686,1.097,1.535,0.33,2.302c-0.824,0.824-1.591,0.22-1.701,0.109L15.878,71.729L15.878,71.729z"/><path style="fill:#FFFFFF;" d="M59.473,63.011c1.016,1.015,1.152,1.205,2.414,0.548c0.465-0.246,0.959-0.246,1.344,0.137	c0.793,0.795-0.057,1.755-0.166,1.865l-7.758,7.758c-0.11,0.111-1.07,0.961-1.865,0.166c-0.382-0.385-0.384-0.879-0.136-1.346	c0.658-1.26,0.466-1.396-0.548-2.412L38.389,55.361c-1.014-1.016-1.152-1.207-2.413-0.549c-0.467,0.246-0.96,0.246-1.343-0.138	c-0.795-0.795,0.055-1.755,0.164-1.864l7.76-7.76c0.11-0.107,1.069-0.959,1.864-0.164c0.385,0.385,0.385,0.879,0.136,1.344	c-0.657,1.261-0.465,1.398,0.55,2.412L59.473,63.011L59.473,63.011z M56.567,52.811l-2.413,2.414l-1.59-1.592l2.413-2.412	l-6.224-6.225c-1.015-1.014-1.152-1.207-2.413-0.548c-0.466,0.247-0.959,0.247-1.344-0.138c-0.795-0.795,0.056-1.754,0.165-1.865	l7.759-7.758c0.11-0.109,1.07-0.959,1.865-0.164c0.383,0.384,0.383,0.877,0.137,1.343c-0.658,1.261-0.466,1.399,0.548,2.413	l14.367,14.367c1.015,1.015,1.151,1.205,2.413,0.549c0.466-0.247,0.959-0.247,1.343,0.137c0.796,0.795-0.055,1.755-0.163,1.863	l-7.76,7.761c-0.109,0.11-1.068,0.959-1.865,0.164c-0.383-0.382-0.383-0.876-0.137-1.343c0.658-1.262,0.466-1.398-0.548-2.413	L56.567,52.811L56.567,52.811z"/><path style="fill:#FFFFFF;" d="M55.504,32.104l7.239-7.238l20.509,20.508l-7.238,7.238c-0.109,0.108-1.068,0.959-1.865,0.164	c-0.383-0.383-0.383-0.877-0.137-1.342c0.658-1.263,0.467-1.399-0.548-2.414L59.096,34.652c-1.014-1.014-1.152-1.207-2.413-0.549	c-0.466,0.248-0.959,0.248-1.343-0.136C54.545,33.172,55.395,32.212,55.504,32.104L55.504,32.104z M63.979,23.631l6.113-6.113	l5.565,5.565c0.136,0.138,0.629,0.685-0.191,1.507c-0.467,0.467-0.877,0.329-1.425,0.055c-2.936-1.506-5.678-1.453-8.473,0.576	L63.979,23.631L63.979,23.631z M82.896,42.549c1.945-2.494,2.139-5.703,0.686-8.637c-0.221-0.604-0.495-1.207,0-1.7	c0.876-0.877,1.617,0.027,1.727,0.138l5.483,5.482l-6.306,6.307L82.896,42.549L82.896,42.549z M73.135,32.787	c0.85-1.452,0.301-3.042-0.494-4.331c-0.328-0.603-0.603-1.206-0.027-1.782c0.851-0.85,1.701,0.273,1.92,0.494l5.922,5.922	c0.22,0.219,1.343,1.07,0.495,1.919c-0.577,0.575-1.181,0.302-1.784-0.028c-1.289-0.793-2.879-1.342-4.332-0.491L73.135,32.787	L73.135,32.787z"/><path style="fill:#FFFFFF;" d="M164.109,168.604c0-2.836,2.184-4.926,4.766-4.926c2.559,0,4.744,2.09,4.744,4.926	c0,2.863-2.188,4.953-4.744,4.953C166.295,173.557,164.109,171.467,164.109,168.604L164.109,168.604z M168.875,172.732	c2.126,0,3.803-1.75,3.803-4.131c0-2.339-1.677-4.101-3.803-4.101c-2.146,0-3.822,1.762-3.82,4.101	C165.055,170.982,166.729,172.732,168.875,172.732L168.875,172.732z M167.885,171.467h-0.818l-0.002-5.699h2.062	c1.279,0,1.91,0.496,1.91,1.621c0,1.019-0.607,1.465-1.4,1.567l1.539,2.511h-0.92l-1.429-2.47h-0.942V171.467L167.885,171.467z M168.863,168.264c0.697,0,1.316-0.053,1.316-0.928c0-0.705-0.607-0.836-1.181-0.836h-1.117l0.001,1.764H168.863L168.863,168.264z"	/></svg>