<?xml version="1.0" encoding="iso-8859-1"?><!-- Generator: Adobe Illustrator 16.0.0, SVG Export Plug-In . SVG Version: 6.00 Build 0) --><!DOCTYPE svg PUBLIC "-//W3C//DTD SVG 1.1//EN" "http://www.w3.org/Graphics/SVG/1.1/DTD/svg11.dtd"><svg version="1.1" id="Layer_1" xmlns="http://www.w3.org/2000/svg" xmlns:xlink="http://www.w3.org/1999/xlink" x="0px" y="0px" width="192.756px" height="192.756px" viewBox="0 0 192.756 192.756" style="enable-background:new 0 0 192.756 192.756;" xml:space="preserve"><g><polygon style="fill-rule:evenodd;clip-rule:evenodd;fill:#FFFFFF;" points="0,0 192.756,0 192.756,192.756 0,192.756 0,0	"/><path style="fill-rule:evenodd;clip-rule:evenodd;fill:#2D78B1;" d="M8.821,103.918H184.15H8.821L8.821,103.918z M8.617,114.714	h175.328H8.617L8.617,114.714z M8.617,109.417h175.635H8.617L8.617,109.417z"/><path style="fill:none;stroke:#2D78B1;stroke-width:0.6146;stroke-miterlimit:2.6131;" d="M8.821,103.918H184.15 M8.617,114.714	h175.328 M8.617,109.417h175.635H8.617L8.617,109.417z"/><path style="fill-rule:evenodd;clip-rule:evenodd;fill:#2D78B1;" d="M52.125,84.976c1.94,1.751,0.485,4.4,0,6.313	c-1.209,3.097-2.142,7.741-6.381,7.904c-2.589,0.286-5.739,0.569-7.838-0.897c-1.98-1.711-0.605-4.604,0-6.517	c1.132-3.056,2.426-7.823,6.624-7.823C47.118,83.794,50.025,83.591,52.125,84.976L52.125,84.976z M109.693,89.498	c1.053,1.67,2.061,3.34,3.316,4.888c-1.418,1.344-3.316,2.037-5.377,1.669c-0.686-0.119-1.332-0.649-1.697-1.303	c-0.564-0.854-0.32-2.159,0.283-2.933c0.932-1.1,2.143-1.67,3.275-2.321H109.693L109.693,89.498z M88.808,85.954	c0.243,0.978,0,1.956-0.324,2.811l-3.555,9.898l-0.162,0.163c-1.452,0.041-3.031,0.083-4.444-0.042	c-0.161-0.162,0.162-0.569-0.081-0.691c-1.456,0.979-3.797,1.222-5.331,0.285c-0.647-0.487-1.132-1.099-1.132-1.874	c-0.081-1.915,0.647-3.627,1.737-5.091c1.941-2.162,4.968-1.67,7.718-1.915c0.319-0.774,0.805-1.631,0.562-2.526	c-0.324-0.408-0.89-0.367-1.332-0.245c-0.809,0.205-0.809,1.265-1.456,1.549l-4.321-0.042c-0.12-0.653,0.362-1.262,0.646-1.833	c1.251-2.323,3.755-2.483,6.101-2.689C85.372,84.04,87.96,83.754,88.808,85.954L88.808,85.954z M113.855,82.002	c0.402,0.284,0.605,0.773,0.648,1.261c-0.123,2.038-2.385,2.934-3.879,3.627c-0.408-0.041-0.408-0.612-0.568-0.937	c-0.445-1.142-0.363-2.771,0.568-3.668C111.393,81.432,112.967,81.269,113.855,82.002L113.855,82.002z M32.41,79.556	c-0.444,1.632-1.171,3.302-1.656,4.971l0.123,0.083c1.898-0.815,4.645-1.059,6.423,0.082c0.525,0.489,0.848,1.1,0.887,1.792	l-0.362,1.711l-4.03,10.521l-0.242,0.163c-1.618-0.043-3.273,0.039-4.85-0.082v-0.448l3.787-9.91c0.123-0.489,0-1.058-0.524-1.221	c-0.565-0.165-1.251-0.165-1.775,0.124c-0.729,0.406-0.89,1.22-1.214,1.873l-3.667,9.543l-0.162,0.122h-4.806l-0.081-0.122	l1.321-3.351l5.658-15.725l0.161-0.163C29.06,79.475,30.834,79.436,32.41,79.556L32.41,79.556z M101.701,84.726	c0.686,0.53,0.971,1.263,1.01,2.078c-0.039,0.652-0.082,1.344-0.363,1.912l-0.324,0.125l-4.119,0.041l-0.242-0.122	c0.041-0.53,0.404-1.223,0-1.712c-0.404-0.367-1.01-0.367-1.533-0.243c-0.689,0.285-1.051,1.02-1.051,1.792	c0.119,0.53,0.724,0.854,1.17,1.017c1.737,0.734,4.321,1.425,4.483,3.83c-0.08,1.876-0.879,3.553-2.574,4.653	c-1.858,1.101-4.243,0.979-6.465,0.938c-1.453-0.204-3.027-0.489-3.878-1.874c-0.566-0.896-0.292-2.127-0.006-3.106l0.2-0.204	l4.767,0.041c0.04,0.568-0.323,1.141,0,1.711c0.324,0.407,0.89,0.57,1.453,0.447c0.566,0,1.051-0.571,1.255-1.06	c0.158-0.449,0.158-0.976-0.123-1.341c-1.898-1.346-5.453-1.346-5.453-4.484c0.12-1.915,1.051-3.828,2.869-4.642	c2.385-0.979,5.654-0.815,8.119-0.164L101.701,84.726L101.701,84.726z M109.047,91.86c-0.566,0.163-1.129,0.53-1.414,1.099	c-0.242,0.49-0.041,1.06,0.404,1.386c0.443,0.245,0.857,0.011,1.344-0.111c0.322-0.122,1.041-0.05,0.959-0.46L109.047,91.86	L109.047,91.86z M80.284,92.349c-0.97,0.57-1.416,1.67-1.374,2.771c0.041,0.367,0.403,0.652,0.767,0.734	c0.565,0,1.132-0.124,1.456-0.653c0.403-0.979,0.928-1.957,1.051-3.055C81.536,92.065,80.852,92.146,80.284,92.349L80.284,92.349z M148.688,85.515c0.809,2.282-0.32,4.563-1.049,6.6c-2.707,0.123-5.453,0.123-8.242,0.162c-0.607,0.573-0.607,1.468-0.889,2.242	c-0.082,0.529,0.082,0.978,0.566,1.181c0.486,0.245,1.213,0.164,1.697-0.079c0.725-0.491,0.971-1.308,1.373-2.038	c1.535-0.081,3.273-0.042,4.887,0l0.08,0.162c-0.643,2.159-2.381,4.481-4.764,4.888c-2.547,0.285-5.576,0.694-7.637-0.814	c-1.172-0.977-1.371-2.483-1.129-3.951c0.848-2.85,1.656-5.742,3.393-8.27c1.977-2.486,5.373-2.119,8.361-1.995	C146.588,83.886,148.043,84.13,148.688,85.515L148.688,85.515z M142.023,86.575c-0.971,0.571-1.295,1.711-1.455,2.689	c0.928,0.039,1.941,0.082,2.869-0.043c0.281-0.691,0.889-1.546,0.484-2.362C143.438,86.371,142.629,86.249,142.023,86.575	L142.023,86.575z M117.26,80.545c0.887,1.548,0.805,3.912-0.203,5.377c-0.768,1.305-2.1,2.282-3.271,3.095l-0.08,0.204	c0.523,0.856,1.168,1.631,1.695,2.485c-0.281,0.448-0.686,0.897-1.09,1.221c-1.213-1.303-2.141-2.85-2.99-4.36l0.039-0.201	c1.898-0.978,4.445-2.445,4.768-4.847c0.121-1.142-0.242-2.2-1.131-2.934c-1.053-0.854-2.627-1.02-3.998-0.693	c-1.414,0.408-2.789,1.751-3.031,3.26c-0.361,1.545,0.162,3.136,0.689,4.522c-2.104,1.141-5.254,2.85-5.135,5.782	c0.043,1.427,0.768,2.649,1.98,3.422c2.508,1.549,5.9,0.57,8.123-0.895c2.664-1.792,4.121-4.644,4.967-7.455l3.432-9.412	l0.404-0.081l9.656,0.043c1.295,0.081,2.584,0.609,3.193,1.912c0.928,2.119,0.037,4.441-1.172,6.111	c-0.766,0.897-1.818,1.384-2.789,1.713c1.01,0.813,1.775,2.036,1.537,3.46c-0.404,2.161-1.213,4.522-3.434,5.541	c-1.172,0.611-2.547,0.775-3.959,0.775h-10.342l-0.123-0.124c0.08-0.61,0.564-1.14,0.484-1.791c-2.703,2.2-6.424,3.381-9.855,2.118	c-1.941-0.61-3.717-2.526-3.883-4.604c-0.199-2.404,0.852-4.397,2.713-5.906c0.643-0.572,1.451-0.896,2.018-1.468	c-0.689-1.995-0.607-4.523,0.605-6.273c1.617-2.078,4.082-2.85,6.666-2.363C115.156,78.386,116.451,79.283,117.26,80.545	L117.26,80.545z M129.057,83.235c-0.771-0.492-1.859-0.286-2.75-0.206c-0.32,1.182-0.967,2.281-1.129,3.503	c1.049,0,2.139,0.165,3.07-0.162c0.971-0.489,1.293-1.547,1.213-2.566L129.057,83.235L129.057,83.235z M126.146,90.159	c-0.768-0.04-1.697-0.121-2.424,0.08c-0.484,1.307-1.051,2.567-1.332,3.914c1.131,0.04,2.465,0.203,3.432-0.246	c1.012-0.611,1.494-1.751,1.293-2.89C126.953,90.649,126.592,90.282,126.146,90.159L126.146,90.159z M112.32,82.939	c-0.404,0.039-0.768,0.325-0.891,0.692c-0.119,0.366-0.199,0.979,0.043,1.304c0.605-0.284,1.412-0.856,1.412-1.628	C112.844,83.062,112.562,82.899,112.32,82.939L112.32,82.939z M46.147,87.013c-0.446,0.081-0.928,0.285-1.212,0.733	c-1.171,2.119-1.78,4.48-2.546,6.762l-0.038,0.897c0.081,0.325,0.404,0.53,0.646,0.609c0.686,0.164,1.533,0.081,2.019-0.528	c1.094-2.119,1.779-4.441,2.587-6.682c0.039-0.446,0.32-1.059-0.122-1.425C47.157,87.051,46.671,86.972,46.147,87.013	L46.147,87.013z M67.438,85.262c0.443,0.081,0.685-0.571,1.089-0.692c1.699-0.816,4.203-0.939,5.819,0.121	c0.646,0.449,0.887,1.1,0.928,1.833l-0.162,1.262c-1.214,3.668-2.736,7.139-4.071,10.764l-0.162,0.165l-4.888-0.041l0.039-0.529	l3.829-10.032c0.082-0.408-0.242-0.732-0.563-0.896c-0.526-0.122-1.174-0.083-1.578,0.284l-0.485,0.653l-3.987,10.479l-0.285,0.164	l-4.603-0.04l-0.082-0.245l3.868-10.398c0.12-0.366-0.081-0.693-0.403-0.855c-0.567-0.123-1.252-0.123-1.696,0.324l-0.568,0.897	l-3.825,10.114l-0.204,0.203h-4.684l-0.081-0.285l5.324-14.188l0.239-0.121h4.406c0.161,0.202-0.081,0.488-0.042,0.773	c0.485-0.163,0.929-0.53,1.455-0.69C63.71,83.82,65.911,83.159,67.438,85.262L67.438,85.262z M182.533,84.486	c0.688,0.529,0.969,1.263,1.008,2.079c-0.039,0.652-0.08,1.346-0.361,1.914l-0.324,0.123l-4.121,0.041l-0.242-0.124	c0.043-0.527,0.404-1.221,0-1.71c-0.404-0.366-1.008-0.366-1.537-0.244c-0.686,0.286-1.047,1.017-1.047,1.794	c0.119,0.528,0.727,0.854,1.172,1.017c1.736,0.732,4.32,1.425,4.484,3.829c-0.082,1.871-0.881,3.554-2.576,4.653	c-1.859,1.101-4.24,0.977-6.465,0.938c-1.453-0.203-3.027-0.488-3.879-1.873c-0.562-0.897-0.293-2.13-0.008-3.106l0.201-0.206	l4.768,0.043c0.039,0.569-0.324,1.139,0,1.709c0.322,0.409,0.885,0.573,1.455,0.448c0.562,0,1.049-0.57,1.252-1.059	c0.162-0.448,0.162-0.979-0.123-1.345c-1.898-1.342-5.455-1.342-5.455-4.48c0.125-1.914,1.053-3.831,2.871-4.642	c2.383-0.979,5.654-0.816,8.119-0.164L182.533,84.486L182.533,84.486z M159.867,80.087l-1.252,3.75l0.123,0.12h4.121	c0.725-0.813,0.443-2.483,1.777-2.605c1.654-0.408,3.273-1.06,4.967-1.346c-0.281,1.264-0.928,2.486-1.209,3.789l0.162,0.162	l2.664,0.041l0.082,0.206l-0.891,2.402l-0.199,0.122l-2.869,0.082c-1.133,2.526-1.98,5.132-2.908,7.741	c-0.08,0.367,0.201,0.732,0.523,0.813c0.852,0.163,1.699,0,2.545,0c-0.16,1.141-0.836,2.008-1.24,3.066	c-2.021,0.286-4.566,0.732-6.506-0.121c-0.766-0.49-1.1-1.15-1.061-2.087l0.404-1.671c0.932-2.527,1.939-5.051,2.746-7.659	c-1.414-0.164-2.949-0.123-4.359-0.041c-1.053,2.526-1.902,5.134-2.832,7.699c-0.119,0.408,0.121,0.692,0.406,0.856	c0.809,0.202,1.654,0.039,2.463,0.039l0.123,0.125l-1.283,2.9c-2.223,0.246-4.768,0.692-6.789-0.367	c-0.523-0.487-0.734-0.944-0.695-1.679l0.203-1.222l2.988-8.15l-0.043-0.161c-0.727-0.164-1.531,0-2.18-0.205l0.891-2.525	l0.281-0.164l2.1-0.041c0.445-0.732,0.607-1.588,0.971-2.362c1.859-0.651,3.797-1.1,5.695-1.628L159.867,80.087L159.867,80.087z M26.152,79.556c-0.327,1.468-0.933,2.978-1.495,4.4l-0.242,0.122l-4.729,0.043l-0.281,0.449l-5.366,14.186l-0.2,0.122l-5.25-0.043	l-0.084-0.242l5.323-14.308l-0.162-0.164l-5.01-0.081c0.285-1.506,0.971-2.893,1.456-4.36l0.324-0.163l15.188-0.043L26.152,79.556	L26.152,79.556z"/></g></svg>