<?xml version="1.0" encoding="utf-8"?><!-- Generator: Adobe Illustrator 16.0.0, SVG Export Plug-In . SVG Version: 6.00 Build 0) --><!DOCTYPE svg PUBLIC "-//W3C//DTD SVG 1.1//EN" "http://www.w3.org/Graphics/SVG/1.1/DTD/svg11.dtd"><svg version="1.1" id="Layer_1" xmlns="http://www.w3.org/2000/svg" xmlns:xlink="http://www.w3.org/1999/xlink" x="0px" y="0px" width="1453px" height="707px" viewBox="0 0 1453 707" enable-background="new 0 0 1453 707" xml:space="preserve"><path stroke="#000000" stroke-width="0.0938" d="M596.8,0h0.8c6.102,7,13,13.2,19.5,19.9c14.7,14.7,29.5,29.5,44.2,44.2v0.8	c-21.398,21.3-42.7,42.8-64.1,64.1c-21.5-21.4-42.9-42.9-64.4-64.3c1.102-2.1,3.2-3.5,4.8-5.2C557.3,39.6,577.3,20,596.8,0z"/><path stroke="#000000" stroke-width="0.0938" d="M725.8,0h0.8c0.602,0.9,1.2,1.7,2,2.5c20.7,20.5,41.102,41.3,62,61.7	c-0.5,1.2-1.6,2-2.5,2.9c-20.698,20.6-41.3,41.3-62,61.9c-21.6-21.3-42.8-43-64.5-64.2C682.6,42.9,704.7,21.8,725.8,0z"/><path stroke="#000000" stroke-width="0.0938" d="M854.8,0h0.8c4,4.8,8.7,8.9,13,13.4c16.2,16.2,32.302,32.3,48.5,48.5	c0.802,0.9,2.102,1.7,2.4,3c-21.7,21.1-42.7,43-64.5,64.1c-20.5-20.5-41-41-61.5-61.5c-1-1.1-2.3-1.9-2.8-3.3	C801.6,53.6,812.2,42.7,823,32C833.6,21.3,844.4,10.9,854.8,0z"/><path stroke="#000000" stroke-width="0.0938" d="M662.5,192.5c21.1-21.1,42.3-42.2,63.4-63.4l0.898,0.4	c21.2,21.3,42.4,42.6,63.8,63.7c-0.698,1.6-2.198,2.5-3.3,3.8c-15.398,15.3-30.8,30.8-46.2,46.1c-5,4.8-9.8,10.2-14.898,14.7	c-7.3-6.6-14-14-21.102-20.8C690.7,222.6,676.4,208.2,661.9,193.9C662.1,193.5,662.3,192.9,662.5,192.5z"/><path stroke="#000000" stroke-width="0.0938" d="M0,469.9c64.1,0,128.2,0,192.4,0c0.1,15.398,0.1,30.8,0,46.1c-23.1,0-46.2,0-69.3,0	c0,60.7,0,121.4,0,182c-0.1,3,0.2,6-0.4,9H69.2c0.2-63.7,0.1-127.3,0.1-191c-23.1,0-46.2,0-69.3,0V469.9z"/><path stroke="#000000" stroke-width="0.0938" d="M352.9,469.9c18,0,36,0,54,0.1c-0.1,79,0.2,158-0.2,237H353c-0.3-21-0.1-42-0.2-63	C352.9,586,352.8,528,352.9,469.9z"/><path stroke="#000000" stroke-width="0.0938" d="M1305,469.9c18,0,36,0,54,0.1c0,63.1,0,126.3,0,189.4c31.3,0.198,62.7,0.1,94,0.1	V707h-147.9C1304.8,628,1305.1,549,1305,469.9z"/><path stroke="#000000" stroke-width="0.0938" d="M797.4,549.4c-5.4-18.602-15.9-35.5-30.5-48.2C747.6,484.1,722.4,474.8,697.1,471.5	c-14.3-2.1-28.8-1.5-43.198-1.6c-21.302,0-42.602,0-63.9,0c-1.2,0-2.5,0.1-3.7,0.3c0.3,78.3,0,156.6,0.2,234.898	c-0.1,0.5-0.2,1.4-0.3,1.9H678.6c8.302-1.5,16.802-1.4,25-3.2c28-5.1,54.9-19,73.2-41.1c13.5-16,21.8-36.102,24.5-56.8	C803.7,587,802.7,567.6,797.4,549.4z M736.5,628.1c-6.7,10.7-16.6,19.2-28.1,24.4c-10.4,4.8-21.9,7-33.302,7.3	c-12,0.102-24,0-36,0.102c-0.6-13.302-0.1-26.602-0.3-39.9c0-34.7,0-69.3,0.102-104c12.3,0,24.698,0,37.1,0c18.6,0.4,37.5,6.8,51,20	c12.1,11.7,18.9,28.2,20,44.9C748.1,597.2,745.1,614.1,736.5,628.1z"/><path stroke="#000000" stroke-width="0.0938" d="M1138.6,651.2c-22.6-54.9-45.1-109.9-67.898-164.7	c-2.102-5.5-4.301-11.1-6.801-16.4c-18.601-0.3-37.199-0.3-55.801,0c-31.8,76.5-63.6,153-95.398,229.4c-1,2.5-2.2,4.9-2.7,7.5h57.5	c5.7-15.8,11.8-31.4,17.5-47.2c32.6-0.5,65.3-0.1,98-0.2c1.7-0.5,2.2,1.302,2.6,2.5c5.5,15,11.102,29.9,16.5,44.9h59.302	C1154.2,688.2,1146.2,669.8,1138.6,651.2z M1000.2,617.7c-0.3-2.102,1-3.9,1.6-5.8c10.9-28.5,22.102-57,32.9-85.5	c0.2-0.102,0.6-0.2,0.8-0.2c11.3,30,22.8,59.898,34.2,89.898c0,0.4,0.1,1.2,0.1,1.602C1046.6,617.5,1023.4,617.5,1000.2,617.7z"/></svg>