<?xml version="1.0" encoding="iso-8859-1"?><!-- Generator: Adobe Illustrator 16.0.0, SVG Export Plug-In . SVG Version: 6.00 Build 0) --><!DOCTYPE svg PUBLIC "-//W3C//DTD SVG 1.1//EN" "http://www.w3.org/Graphics/SVG/1.1/DTD/svg11.dtd"><svg version="1.1" id="svg2" inkscape:version="0.47 r22583" xmlns:rdf="http://www.w3.org/1999/02/22-rdf-syntax-ns#" xmlns:sodipodi="http://sodipodi.sourceforge.net/DTD/sodipodi-0.dtd" xmlns:dc="http://purl.org/dc/elements/1.1/" xmlns:inkscape="http://www.inkscape.org/namespaces/inkscape" xmlns:svg="http://www.w3.org/2000/svg" xmlns:cc="http://creativecommons.org/ns#" xmlns="http://www.w3.org/2000/svg" xmlns:xlink="http://www.w3.org/1999/xlink" x="0px" y="0px" width="644px" height="212px" viewBox="0 0 644 212" style="enable-background:new 0 0 644 212;" xml:space="preserve"><g id="layer1" transform="translate(-83.087003,-321.32645)" inkscape:groupmode="layer" inkscape:label="Layer 1"><path id="path7304" style="fill:#ED1D2D;" d="M151.654,336.194l-18.773-0.088h-29.067c-2.003,0-17.602,0.151-17.602,0.151	l-0.277,25.212l-2.848,0.088l0.177-28.336l-0.113-11.643c9.916,0.479,45.711,0.794,82.854,0.794	c43.317,0,71.225-0.428,82.174-0.756l-0.126,12.889l0.227,28.664l-2.948-0.038c0.013-2.331-0.479-11.844-0.453-12.776	c0.013-0.34-0.63-13.116-0.706-14.073l-12.436-0.177h-37.27l-14.275,0.051l0.013,176.797c0,0.252,0.265,11.604,0.328,13.96	c1.437,0.202,15.245,1.146,17.74,1.159l0.97-0.013l0.013,4.813c-0.756,0-1.676,0.088-2.444,0.075	c-7.85-0.088-20.512-1.033-29.508-1.033c-8.857,0-21.356,0.882-30.592,1.021c-0.252,0.013-2.142-0.037-2.848-0.075l-0.025-5.141	c0.101,0.013,0.655,0,1.524-0.038c3.906-0.151,13.52-0.794,16.015-1.008l0.403-0.062L151.654,336.194"/><path id="path7306" style="fill:#ED1D2D;" d="M390.276,321.339c0,0,13.998,43.494,16.278,49.869	c2.281,6.363,45.057,116.444,45.057,116.444s20.083-47.424,37.975-98.313c3.629-10.307,8.379-23.738,11.882-34.624	c5.128-15.914,10.76-33.389,10.76-33.389h11.012c0,0,2.734,19.441,3.691,28.11c2.822,25.187,21.218,127.558,27.682,161.236	c1.612,8.43,2.835,15.712,2.835,15.712c1.89,0.139,9.336,0.882,13.746,1.247c0.92,0.076,3.39,0.215,3.956,0.215l0.025,5.064	c0,0-2.004,0.113-3.1,0.113c-9.865-0.062-25.25-0.957-34.725-0.957c-8.441,0-16.556,0.73-24.997,0.907	c-1.437,0.038-2.886-0.038-4.347-0.038v-5.015c0.05-0.013,1.172-0.075,1.764-0.05c4.12-0.202,15.044-1.273,16.127-1.323	c0.013-1.84-0.592-8.215-1.474-14.729c-0.617-4.599-1.663-12.461-2.772-20.209c-2.406-15.057-13.531-77.45-16.832-94.774	c-0.542-2.848-0.883-4.435-0.883-4.435s-34.447,88.386-41.39,105.799c-0.68,1.7-1.171,2.91-1.322,3.312	c-6.641,16.771-12.222,31.714-12.222,31.714l-9.79-0.051l-53.687-137.99l-1.272-3.213c0,0-4.688,25.867-11.453,62.368	c-3.565,19.73-10.975,69.045-11.479,72.296c4.271,0.63,12.676,1.311,14.969,1.247c0.529,0,1.424,0.013,2.092,0.013v4.989	c-0.958,0.139-3.2,0.151-3.289,0.151c-8.102-0.177-13.947-0.794-22.691-0.794c-2.293,0-14.452,0.631-18.735,0.781	c-1.789,0.088-4.31-0.113-4.801-0.101l0.013-4.938c0.416,0,1.26-0.177,1.802-0.189c3.881-0.177,9.84-0.769,14.893-1.437	c0.416-2.432,4.788-26.736,6.174-35.342c5.367-28.513,21.18-123.727,23.171-136.566c1.738-13.872,3.754-31.121,3.931-33.023	C383.044,321.503,390.276,321.339,390.276,321.339"/><path id="path7308" style="fill:#ED1D2D;" d="M318.988,533.074c-7.282,0-19.63-1.209-28.891-1.209	c-9.16,0-21.583,1.196-30.528,1.196c-0.757,0.013-2.104-0.151-2.835-0.151v-5.027c1.764-0.037,9.663-0.756,11.868-0.92	c2.57-0.188,4.965-0.314,6.01-0.654c0,0,0.025-6.048,0.051-15.435c0.101-32.444,0.29-124.131-0.013-165.634	c-0.025-4.372-0.05-15.472-0.05-17.072c-1.676-0.164-4.02-0.391-5.695-0.617c-2.104-0.113-10.747-0.933-12.222-1.021l-0.038-5.015	c8.568,0,21.294,0.869,31.612,0.869c9.865,0,23.259-0.869,33.376-0.869l-0.012,5.229c-1.613,0.113-5.52,0.353-5.646,0.365	c-2.948,0.29-11.226,1.223-13.254,1.361c0,3.125,0,8.971,0,16.14c-0.013,37.156-0.038,134.349-0.051,167.083	c0,4.271,0,8.227,0,10.608c-0.013,2.495,0.013,3.994,0.038,4.095c0.05,0.176,5.229,0.668,6.426,0.743	c2.28,0.265,11.692,0.681,11.981,0.743h0.618v5.027C321.117,532.91,319.618,533.074,318.988,533.074"/><path id="path7310" style="fill:#ED1D2D;" d="M627.261,336.66l-0.037,83.207l53.422,0.177c0.252,0,14.137-0.429,14.477-0.429	c0.845,0,10.383-0.554,10.748-0.68c0,0,0.15-0.87,0.365-1.5c0.781-5.04,1.751-9.815,2.003-13.557c0,0,0.252-1.587,0.265-2.671	l3.037-0.063c0.012,0.378,0.163,1.335,0.15,2.696c-0.037,5.015-0.403,15.435-0.391,22.251c0.025,9.84,0.29,18.697,0.341,23.158	c0.037,1.26-0.038,3.288-0.038,3.288h-3.339c-0.051-0.466-0.113-0.958-0.188-1.474c-0.58-5.658-1.059-9.664-1.94-15.447	c-0.025-0.29-0.215-1.336-0.277-1.991c-1.701-0.113-6.199-0.277-8.593-0.353c-1.046-0.025-14.062-0.126-28.715-0.139	c-5.997-0.013-16.795,0.277-21.369,0.265c-5.354,0-14.199,0.34-19.97,0.554l0.05,75.434l0.228,9.727l32.431,0.567l46.19-0.05	c0.214,0,10.571-0.416,13.821-0.354c0.681,0.013,2.066-0.101,2.066-0.101c0.303-2.444,0.681-7.384,1.059-12.096	c0.038-0.554,1.197-13.065,1.197-16.43l2.834-0.038c0,3.188-0.604,42.713-0.604,42.713c-5.203,0-21.18-0.025-40.923-0.314	c-11.957-0.164-25.287-0.164-38.454-0.354c-10.659-0.164-21.218-0.542-30.806-0.529c-13.695,0.013-27.089,0.92-32.293,0.92	c-1.196,0.013-3.301-0.075-3.754-0.075v-4.978h0.957c3.213-0.025,12.65-0.579,17.563-1.486c0-0.995,0.328-13.305,0.328-13.557	c0,0-0.013-156.222-0.013-163.228c0-7.547-0.139-20.134-0.139-21.243c-2.784-0.328-3.779-0.504-4.359-0.63	c-2.961-0.416-8.795-0.92-11.906-1.147c-0.883,0.025-1.865-0.088-2.331-0.176c0,0-0.013-4.888-0.038-4.952	c0.705,0.038,2.167-0.062,4.775-0.05c5.506,0.013,15.636,0.832,28.021,0.844c7.786,0.013,20.336-0.365,29.332-0.491	c12.813,0,22.553-0.113,34.963-0.202c20.273-0.126,37.585-0.277,44.351-0.302c1.979-0.013,3.049-0.025,3.049-0.025	c0,0.391-0.013,0.832-0.013,1.348c0.013,1.562-0.05,4.322-0.025,7.698c0.051,10.521,0.315,27.064,0.315,32.469l-2.848,0.013	l-0.024-1.487c-0.29-3.691-0.908-14.111-1.688-22.88c-0.076-0.781-0.215-1.386-0.215-1.386c-1.688-0.063-8.618-0.29-8.744-0.391	c-0.113-0.101-5.632-0.189-5.745-0.252c-0.051-0.025-18.181-0.139-36.879-0.151c-12.75-0.012-25.3,0.076-32.998,0.076	C634.053,336.396,627.262,336.66,627.261,336.66"/></g></svg>