<?xml version="1.0" encoding="utf-8"?>
<!-- Generator: Adobe Illustrator 16.0.0, SVG Export Plug-In . SVG Version: 6.00 Build 0)  -->
<!DOCTYPE svg PUBLIC "-//W3C//DTD SVG 1.1//EN" "http://www.w3.org/Graphics/SVG/1.1/DTD/svg11.dtd">
<svg version="1.1" id="Layer_1" xmlns="http://www.w3.org/2000/svg" xmlns:xlink="http://www.w3.org/1999/xlink" x="0px" y="0px"
	 width="252px" height="106.56px" viewBox="0 0 252 106.56" enable-background="new 0 0 252 106.56" xml:space="preserve">
<g>
	<linearGradient id="SVGID_1_" gradientUnits="userSpaceOnUse" x1="73.6162" y1="88.79" x2="184.4471" y2="37.1088">
		<stop  offset="0.5337" style="stop-color:#010101"/>
		<stop  offset="0.7927" style="stop-color:#030303"/>
		<stop  offset="0.8859" style="stop-color:#0A0A0A"/>
		<stop  offset="0.9522" style="stop-color:#151515"/>
		<stop  offset="1" style="stop-color:#242424"/>
	</linearGradient>
	<path fill="url(#SVGID_1_)" d="M80.259,26.974v75.233c0,0-0.17,4.237,5.658,4.237c0,0,5.29,0.058,5.29-4.237
		c0-4.309,0-32.946,0-32.946s0.005-6.348,2.543-6.961c3.811-0.9,4.726,3.896,9.416,13.142c4.734,9.35,14.032,26.124,15.853,28.638
		c2.14,2.916,3.549,2.461,3.549,2.461s1.597,0.182,3.941-4.333c2.674-5.16,17.664-36.484,18.662-38.332
		c0.954-1.776,2.223-3.801,4.953-3.801c1.61,0,4.336,1.574,4.459,5.386c0,0,0,30.533,0,31.653c0,0.68,0.477,9.455,13.678,9.455
		c0,0,12.461-0.028,12.461-9.455c0-7.54,0-64.356,0-64.356s-0.14-15.133-14.233-15.133c0,0-4.393-0.766-8.317,2.054
		c-2.91,2.106-5.177,6.219-8.305,13.333c-7.491,17.086-14.986,34.938-18.574,34.938c-3.847,0-8.918-6.832-18.089-26.397
		c-8.948-19.097-10.444-23.573-19.375-23.573C85.015,17.979,80.259,21.98,80.259,26.974z"/>
	<linearGradient id="SVGID_2_" gradientUnits="userSpaceOnUse" x1="21.9229" y1="57.8047" x2="114.9039" y2="14.4469">
		<stop  offset="0.5337" style="stop-color:#010101"/>
		<stop  offset="0.7927" style="stop-color:#030303"/>
		<stop  offset="0.8859" style="stop-color:#0A0A0A"/>
		<stop  offset="0.9522" style="stop-color:#151515"/>
		<stop  offset="1" style="stop-color:#242424"/>
	</linearGradient>
	<path fill="url(#SVGID_2_)" d="M109.916,4.411h-0.018c-0.201-3.753-4.686-3.763-4.686-3.763H54.496l-0.512-0.01l0,0H53.8h-0.167
		l0,0l-0.507,0.01H5.38c0,0-4.494,0.01-4.69,3.763H0.677c0,0.048,0.004,0.086,0.004,0.124c0,0.048-0.004,0.087-0.004,0.125H0.69
		c0.197,3.763,4.69,3.772,4.69,3.772h31.014c1.138,0.187,2.534,0.378,3.36,1.283c0.849,0.766,1.387,1.857,1.387,3.743v41.329
		c0,0,0,39.242,0,42.79c0,4.96,5.78,8.866,11.354,8.866h2.621c5.579,0,11.354-3.868,11.354-8.866c0-3.548,0-42.79,0-42.79V13.459
		c0-1.886,0.542-2.978,1.387-3.743c0.827-0.905,2.223-1.097,3.365-1.283h33.989c0,0,4.484-0.01,4.686-3.772h0.018
		c0-0.038-0.009-0.077-0.009-0.125C109.907,4.497,109.916,4.459,109.916,4.411z"/>
	<linearGradient id="SVGID_3_" gradientUnits="userSpaceOnUse" x1="178.8203" y1="81.6289" x2="258.2519" y2="44.5893">
		<stop  offset="0.5337" style="stop-color:#010101"/>
		<stop  offset="0.7927" style="stop-color:#030303"/>
		<stop  offset="0.8859" style="stop-color:#0A0A0A"/>
		<stop  offset="0.9522" style="stop-color:#151515"/>
		<stop  offset="1" style="stop-color:#242424"/>
	</linearGradient>
	<path fill="url(#SVGID_3_)" d="M248.69,101.623c-1.921,0-3.601,0-4.454,0l0,0l-24.311-0.01c0,0-2.884,0-4.923,0
		c-4.576,0-5.315-2.024-4.555-3.839c1.002-2.38,33.972-70.623,35.478-73.965c1.92-4.261,0.043-6.822-3.602-6.822
		c0,0-43.208,0-48.043,0c-4.831,0-4.831,3.495-4.831,3.495s0,3.499,4.831,3.499h19.545c1.321,0,2.236,0.498,2.709,1.379
		c0.35,0.642,0.49,1.704-0.141,3.15c-2.235,5.18-28.428,62.858-28.428,62.858s-2.441,5.189,0.092,10.048
		c1.103,2.131,3.974,5.027,7.062,5.027c3.719,0,7.525,0,7.525,0h41.502c0.81,0,4.512,0,5.636,0c1.024,0,2.122-0.574,2.328-1.8
		C252.239,103.907,252.112,101.623,248.69,101.623z"/>
	<linearGradient id="SVGID_4_" gradientUnits="userSpaceOnUse" x1="73.0645" y1="87.9971" x2="183.8958" y2="36.3156">
		<stop  offset="0.5337" style="stop-color:#010101"/>
		<stop  offset="0.7927" style="stop-color:#030303"/>
		<stop  offset="0.8859" style="stop-color:#0A0A0A"/>
		<stop  offset="0.9522" style="stop-color:#151515"/>
		<stop  offset="1" style="stop-color:#242424"/>
	</linearGradient>
	<path fill="url(#SVGID_4_)" d="M79.708,26.188v75.229c0,0-0.166,4.237,5.653,4.237c0,0,5.29,0.058,5.29-4.237
		c0-4.304,0-32.937,0-32.937s0.004-6.362,2.551-6.956c3.811-0.914,4.729,3.878,9.42,13.132c4.73,9.345,14.023,26.119,15.857,28.628
		c2.122,2.916,3.535,2.466,3.535,2.466s1.602,0.187,3.946-4.333c2.674-5.16,17.669-36.479,18.653-38.317
		c0.958-1.791,2.236-3.82,4.953-3.82c1.614,0,4.336,1.584,4.463,5.396c0,0,0,30.533,0,31.648c0,0.681,0.477,9.46,13.678,9.46
		c0,0,12.462-0.043,12.462-9.469c0-7.531,0-64.353,0-64.353s-0.14-15.123-14.225-15.123c0,0-4.402-0.775-8.322,2.049
		c-2.914,2.102-5.177,6.224-8.301,13.338c-7.495,17.072-14.99,34.934-18.583,34.934c-3.837,0-8.922-6.822-18.093-26.393
		c-8.943-19.106-10.439-23.588-19.37-23.588C84.473,17.179,79.708,21.19,79.708,26.188z"/>
	<linearGradient id="SVGID_5_" gradientUnits="userSpaceOnUse" x1="21.373" y1="57.0186" x2="114.3601" y2="13.658">
		<stop  offset="0.5337" style="stop-color:#010101"/>
		<stop  offset="0.7927" style="stop-color:#030303"/>
		<stop  offset="0.8859" style="stop-color:#0A0A0A"/>
		<stop  offset="0.9522" style="stop-color:#151515"/>
		<stop  offset="1" style="stop-color:#242424"/>
	</linearGradient>
	<path fill="url(#SVGID_5_)" d="M109.365,3.621h-0.009c-0.206-3.748-4.687-3.758-4.687-3.758H53.949l-0.516-0.01l0,0h-0.171h-0.175
		l0,0l-0.508,0.01H4.833c0,0-4.485,0.01-4.686,3.758H0.125c0,0.048,0.009,0.091,0.013,0.129C0.134,3.798,0.125,3.837,0.125,3.875
		h0.022c0.201,3.763,4.686,3.772,4.686,3.772h31.014c1.142,0.182,2.538,0.378,3.36,1.273c0.845,0.775,1.383,1.862,1.383,3.739
		v41.343c0,0,0,39.232,0,42.78c0,4.974,5.78,8.871,11.363,8.871h2.617c5.574,0,11.363-3.868,11.363-8.871c0-3.548,0-42.78,0-42.78
		V12.66c0-1.877,0.534-2.964,1.382-3.739c0.823-0.896,2.214-1.092,3.356-1.273h33.998c0,0,4.48-0.01,4.687-3.772h0.009
		c0-0.038-0.005-0.077-0.009-0.125C109.36,3.712,109.365,3.669,109.365,3.621z"/>
	<linearGradient id="SVGID_6_" gradientUnits="userSpaceOnUse" x1="178.2754" y1="80.8389" x2="257.703" y2="43.8012">
		<stop  offset="0.5337" style="stop-color:#010101"/>
		<stop  offset="0.7927" style="stop-color:#030303"/>
		<stop  offset="0.8859" style="stop-color:#0A0A0A"/>
		<stop  offset="0.9522" style="stop-color:#151515"/>
		<stop  offset="1" style="stop-color:#242424"/>
	</linearGradient>
	<path fill="url(#SVGID_6_)" d="M248.144,100.833c-1.925,0-3.601,0-4.454,0v-0.009h-24.311c0,0-2.879,0-4.932,0
		c-4.567,0-5.312-2.021-4.546-3.85c1.002-2.37,33.972-70.623,35.473-73.955c1.921-4.256,0.048-6.822-3.602-6.822
		c0,0-43.208,0-48.038,0c-4.831,0-4.831,3.5-4.831,3.5s0,3.499,4.831,3.499h19.545c1.321,0,2.231,0.493,2.713,1.379
		c0.346,0.642,0.485,1.7-0.145,3.15c-2.235,5.18-28.423,62.849-28.423,62.849s-2.45,5.199,0.087,10.049
		c1.107,2.125,3.969,5.031,7.058,5.031c3.72,0,7.53,0,7.53,0h41.502c0.814,0,4.512,0,5.636,0c1.024,0,2.118-0.574,2.332-1.786
		C251.696,103.107,251.569,100.833,248.144,100.833z"/>
</g>
</svg>
