<?xml version="1.0" encoding="utf-8"?>
<!-- Generator: Adobe Illustrator 18.1.1, SVG Export Plug-In . SVG Version: 6.00 Build 0)  -->
<svg version="1.1" id="Layer_1" xmlns="http://www.w3.org/2000/svg" xmlns:xlink="http://www.w3.org/1999/xlink" x="0px" y="0px"
	 viewBox="-122.9 197.3 1209.1 512" enable-background="new -122.9 197.3 1209.1 512" xml:space="preserve">
<g>
	
		<linearGradient id="SVGID_1_" gradientUnits="userSpaceOnUse" x1="229.7239" y1="-121.1175" x2="761.4678" y2="126.8383" gradientTransform="matrix(1 0 0 -1 0 502.88)">
		<stop  offset="0.5337" style="stop-color:#010101"/>
		<stop  offset="0.7927" style="stop-color:#030303"/>
		<stop  offset="0.8859" style="stop-color:#0A0A0A"/>
		<stop  offset="0.9522" style="stop-color:#151515"/>
		<stop  offset="1" style="stop-color:#242424"/>
	</linearGradient>
	<path fill="url(#SVGID_1_)" d="M261.6,327.4v361c0,0-0.8,20.3,27.1,20.3c0,0,25.4,0.3,25.4-20.3c0-20.7,0-158.1,0-158.1
		s0-30.5,12.2-33.4c18.3-4.3,22.7,18.7,45.2,63.1c22.7,44.9,67.3,125.3,76.1,137.4c10.3,14,17,11.8,17,11.8s7.7,0.9,18.9-20.8
		c12.8-24.8,84.7-175,89.5-183.9c4.6-8.5,10.7-18.2,23.8-18.2c7.7,0,20.8,7.6,21.4,25.8c0,0,0,146.5,0,151.9
		c0,3.3,2.3,45.4,65.6,45.4c0,0,59.8-0.1,59.8-45.4c0-36.2,0-308.8,0-308.8s-0.7-72.6-68.3-72.6c0,0-21.1-3.7-39.9,9.9
		c-14,10.1-24.8,29.8-39.8,64c-35.9,82-71.9,167.6-89.1,167.6c-18.5,0-42.8-32.8-86.8-126.6c-42.9-91.6-50.1-113.1-93-113.1
		C284.4,284.3,261.6,303.5,261.6,327.4z"/>
	
		<linearGradient id="SVGID_2_" gradientUnits="userSpaceOnUse" x1="-18.2985" y1="27.5536" x2="427.8041" y2="235.5749" gradientTransform="matrix(1 0 0 -1 0 502.88)">
		<stop  offset="0.5337" style="stop-color:#010101"/>
		<stop  offset="0.7927" style="stop-color:#030303"/>
		<stop  offset="0.8859" style="stop-color:#0A0A0A"/>
		<stop  offset="0.9522" style="stop-color:#151515"/>
		<stop  offset="1" style="stop-color:#242424"/>
	</linearGradient>
	<path fill="url(#SVGID_2_)" d="M403.9,219.2L403.9,219.2c-1.1-18-22.6-18.1-22.6-18.1H138l-2.5,0l0,0h-0.9h-0.8l0,0l-2.4,0H-97.7
		c0,0-21.6,0-22.5,18.1h-0.1c0,0.2,0,0.4,0,0.6c0,0.2,0,0.4,0,0.6h0.1c0.9,18.1,22.5,18.1,22.5,18.1H51.1c5.5,0.9,12.2,1.8,16.1,6.2
		c4.1,3.7,6.7,8.9,6.7,18v198.3c0,0,0,188.3,0,205.3c0,23.8,27.7,42.5,54.5,42.5H141c26.8,0,54.5-18.6,54.5-42.5
		c0-17,0-205.3,0-205.3V262.6c0-9,2.6-14.3,6.7-18c4-4.3,10.7-5.3,16.1-6.2h163.1c0,0,21.5,0,22.5-18.1h0.1c0-0.2,0-0.4,0-0.6
		C403.8,219.6,403.9,219.4,403.9,219.2z"/>
	
		<linearGradient id="SVGID_3_" gradientUnits="userSpaceOnUse" x1="734.4592" y1="-86.75" x2="1115.5568" y2="90.9589" gradientTransform="matrix(1 0 0 -1 0 502.88)">
		<stop  offset="0.5337" style="stop-color:#010101"/>
		<stop  offset="0.7927" style="stop-color:#030303"/>
		<stop  offset="0.8859" style="stop-color:#0A0A0A"/>
		<stop  offset="0.9522" style="stop-color:#151515"/>
		<stop  offset="1" style="stop-color:#242424"/>
	</linearGradient>
	<path fill="url(#SVGID_3_)" d="M1069.7,685.6c-9.2,0-17.3,0-21.4,0l0,0l-116.6,0c0,0-13.8,0-23.6,0c-22,0-25.5-9.7-21.9-18.4
		c4.8-11.4,163-338.8,170.2-354.9c9.2-20.4,0.2-32.7-17.3-32.7c0,0-207.3,0-230.5,0c-23.2,0-23.2,16.8-23.2,16.8s0,16.8,23.2,16.8
		h93.8c6.3,0,10.7,2.4,13,6.6c1.7,3.1,2.4,8.2-0.7,15.1C904,359.6,778.3,636.4,778.3,636.4s-11.7,24.9,0.4,48.2
		c5.3,10.2,19.1,24.1,33.9,24.1c17.8,0,36.1,0,36.1,0h199.1c3.9,0,21.6,0,27,0c4.9,0,10.2-2.8,11.2-8.6
		C1086.7,696.5,1086.1,685.6,1069.7,685.6z"/>
	
		<linearGradient id="SVGID_4_" gradientUnits="userSpaceOnUse" x1="227.0747" y1="-117.3065" x2="758.813" y2="130.6472" gradientTransform="matrix(1 0 0 -1 0 502.88)">
		<stop  offset="0.5337" style="stop-color:#010101"/>
		<stop  offset="0.7927" style="stop-color:#030303"/>
		<stop  offset="0.8859" style="stop-color:#0A0A0A"/>
		<stop  offset="0.9522" style="stop-color:#151515"/>
		<stop  offset="1" style="stop-color:#242424"/>
	</linearGradient>
	<path fill="url(#SVGID_4_)" d="M258.9,323.6v360.9c0,0-0.8,20.3,27.1,20.3c0,0,25.4,0.3,25.4-20.3c0-20.6,0-158,0-158
		s0-30.5,12.2-33.4c18.3-4.4,22.7,18.6,45.2,63c22.7,44.8,67.3,125.3,76.1,137.4c10.2,14,17,11.8,17,11.8s7.7,0.9,18.9-20.8
		c12.8-24.8,84.8-175,89.5-183.8c4.6-8.6,10.7-18.3,23.8-18.3c7.7,0,20.8,7.6,21.4,25.9c0,0,0,146.5,0,151.8
		c0,3.3,2.3,45.4,65.6,45.4c0,0,59.8-0.2,59.8-45.4c0-36.1,0-308.8,0-308.8s-0.7-72.6-68.2-72.6c0,0-21.1-3.7-39.9,9.8
		c-14,10.1-24.8,29.9-39.8,64c-36,81.9-71.9,167.6-89.2,167.6c-18.4,0-42.8-32.7-86.8-126.6c-42.9-91.7-50.1-113.2-92.9-113.2
		C281.8,280.4,258.9,299.7,258.9,323.6z"/>
	
		<linearGradient id="SVGID_5_" gradientUnits="userSpaceOnUse" x1="-20.9339" y1="31.323" x2="425.1954" y2="239.3565" gradientTransform="matrix(1 0 0 -1 0 502.88)">
		<stop  offset="0.5337" style="stop-color:#010101"/>
		<stop  offset="0.7927" style="stop-color:#030303"/>
		<stop  offset="0.8859" style="stop-color:#0A0A0A"/>
		<stop  offset="0.9522" style="stop-color:#151515"/>
		<stop  offset="1" style="stop-color:#242424"/>
	</linearGradient>
	<path fill="url(#SVGID_5_)" d="M401.2,215.4L401.2,215.4c-1-18-22.5-18-22.5-18H135.4l-2.5,0l0,0h-0.8h-0.8l0,0l-2.4,0h-229.1
		c0,0-21.5,0-22.5,18h-0.1c0,0.2,0,0.4,0.1,0.6c0,0.2-0.1,0.4-0.1,0.6h0.1c1,18.1,22.5,18.1,22.5,18.1H48.5
		c5.5,0.9,12.2,1.8,16.1,6.1c4.1,3.7,6.6,8.9,6.6,17.9v198.4c0,0,0,188.2,0,205.2c0,23.9,27.7,42.6,54.5,42.6h12.6
		c26.7,0,54.5-18.6,54.5-42.6c0-17,0-205.2,0-205.2V258.7c0-9,2.6-14.2,6.6-17.9c3.9-4.3,10.6-5.2,16.1-6.1h163.1
		c0,0,21.5,0,22.5-18.1h0c0-0.2,0-0.4,0-0.6C401.2,215.8,401.2,215.6,401.2,215.4z"/>
	
		<linearGradient id="SVGID_6_" gradientUnits="userSpaceOnUse" x1="731.845" y1="-82.9632" x2="1112.9246" y2="94.7371" gradientTransform="matrix(1 0 0 -1 0 502.88)">
		<stop  offset="0.5337" style="stop-color:#010101"/>
		<stop  offset="0.7927" style="stop-color:#030303"/>
		<stop  offset="0.8859" style="stop-color:#0A0A0A"/>
		<stop  offset="0.9522" style="stop-color:#151515"/>
		<stop  offset="1" style="stop-color:#242424"/>
	</linearGradient>
	<path fill="url(#SVGID_6_)" d="M1067.1,681.8c-9.2,0-17.3,0-21.4,0v0H929.1c0,0-13.8,0-23.7,0c-21.9,0-25.5-9.7-21.8-18.5
		c4.8-11.4,163-338.8,170.2-354.8c9.2-20.4,0.2-32.7-17.3-32.7c0,0-207.3,0-230.5,0c-23.2,0-23.2,16.8-23.2,16.8s0,16.8,23.2,16.8
		h93.8c6.3,0,10.7,2.4,13,6.6c1.7,3.1,2.3,8.2-0.7,15.1c-10.7,24.9-136.4,301.5-136.4,301.5s-11.8,24.9,0.4,48.2
		c5.3,10.2,19,24.1,33.9,24.1c17.8,0,36.1,0,36.1,0h199.1c3.9,0,21.6,0,27,0c4.9,0,10.2-2.8,11.2-8.6
		C1084.1,692.7,1083.5,681.8,1067.1,681.8z"/>
</g>
</svg>
