<?xml version="1.0" encoding="iso-8859-1"?><!-- Generator: Adobe Illustrator 16.0.0, SVG Export Plug-In . SVG Version: 6.00 Build 0) --><!DOCTYPE svg PUBLIC "-//W3C//DTD SVG 1.1//EN" "http://www.w3.org/Graphics/SVG/1.1/DTD/svg11.dtd"><svg version="1.1" id="Layer_1" xmlns="http://www.w3.org/2000/svg" xmlns:xlink="http://www.w3.org/1999/xlink" x="0px" y="0px" width="192.756px" height="192.756px" viewBox="0 0 192.756 192.756" style="enable-background:new 0 0 192.756 192.756;" xml:space="preserve"><g><polygon style="fill-rule:evenodd;clip-rule:evenodd;fill:#FFFFFF;" points="0,0 192.756,0 192.756,192.756 0,192.756 0,0	"/><polygon style="fill-rule:evenodd;clip-rule:evenodd;fill:#463991;" points="16.425,139.029 13.213,139.029 13.213,126.286	8.504,126.286 8.504,123.537 21.099,123.537 21.099,126.286 16.425,126.286 16.425,139.029	"/><path style="fill-rule:evenodd;clip-rule:evenodd;fill:#463991;" d="M29.114,123.126c0.687,0,1.427,0.1,2.22,0.297	c0.792,0.199,1.591,0.582,2.394,1.146c0.802,0.565,1.471,1.401,2.008,2.51c0.535,1.108,0.803,2.51,0.803,4.207	c0,1.692-0.268,3.093-0.803,4.2c-0.537,1.108-1.209,1.946-2.016,2.513c-0.808,0.567-1.61,0.95-2.409,1.146	c-0.799,0.198-1.531,0.296-2.197,0.296c-0.663,0-1.395-0.1-2.197-0.297c-0.802-0.2-1.606-0.583-2.414-1.152	c-0.808-0.568-1.479-1.404-2.013-2.509c-0.534-1.105-0.801-2.504-0.801-4.196c0-1.697,0.267-3.098,0.801-4.202	c0.534-1.104,1.203-1.939,2.005-2.51c0.802-0.568,1.602-0.952,2.401-1.151C27.696,123.226,28.435,123.126,29.114,123.126	L29.114,123.126z M29.112,136.691c0.485,0,0.97-0.086,1.453-0.256c0.484-0.17,0.936-0.461,1.356-0.873	c0.42-0.411,0.76-0.972,1.019-1.68c0.258-0.708,0.388-1.574,0.388-2.597c0-1.027-0.129-1.896-0.388-2.606	c-0.259-0.71-0.598-1.268-1.016-1.679c-0.419-0.411-0.871-0.7-1.356-0.871c-0.485-0.17-0.971-0.255-1.456-0.255	c-0.482,0-0.967,0.085-1.454,0.259c-0.487,0.17-0.939,0.461-1.356,0.869c-0.417,0.409-0.754,0.967-1.013,1.677	s-0.388,1.579-0.388,2.606c0,1.022,0.129,1.889,0.388,2.597s0.597,1.269,1.016,1.678c0.419,0.409,0.871,0.702,1.357,0.872	C28.146,136.605,28.63,136.691,29.112,136.691L29.112,136.691z"/><path style="fill-rule:evenodd;clip-rule:evenodd;fill:#463991;" d="M49.552,128.606c-0.204-0.75-0.536-1.385-0.996-1.901	c-0.461-0.521-1.272-0.778-2.435-0.778c-0.999,0-1.888,0.412-2.67,1.239s-1.172,2.221-1.172,4.183c0,0.975,0.134,1.861,0.403,2.662	c0.269,0.8,0.69,1.438,1.265,1.914c0.575,0.478,1.299,0.715,2.174,0.715c0.6,0,1.135-0.11,1.604-0.332	c0.469-0.222,0.86-0.553,1.172-0.994c0.313-0.441,0.531-0.972,0.654-1.592h3.241c-0.221,1.146-0.617,2.146-1.187,3.005	c-0.571,0.859-1.322,1.525-2.253,2c-0.932,0.476-2.028,0.714-3.287,0.714c-1.387,0-2.614-0.311-3.683-0.93	c-1.068-0.62-1.901-1.544-2.497-2.771c-0.597-1.228-0.895-2.705-0.895-4.433c0-1.748,0.31-3.24,0.929-4.474	c0.619-1.231,1.468-2.158,2.547-2.777c1.079-0.62,2.293-0.93,3.64-0.93c1.099,0,2.068,0.168,2.909,0.506	c0.84,0.337,1.529,0.777,2.066,1.323c0.538,0.546,0.945,1.135,1.224,1.77c0.279,0.633,0.441,1.26,0.487,1.882H49.552	L49.552,128.606z"/><path style="fill-rule:evenodd;clip-rule:evenodd;fill:#463991;" d="M62.557,123.126c0.687,0,1.427,0.1,2.22,0.297	c0.793,0.199,1.591,0.582,2.393,1.146c0.802,0.565,1.472,1.401,2.008,2.51c0.536,1.108,0.804,2.51,0.804,4.207	c0,1.692-0.268,3.093-0.804,4.2c-0.537,1.108-1.208,1.946-2.015,2.513c-0.808,0.567-1.61,0.95-2.409,1.146	c-0.799,0.198-1.531,0.296-2.197,0.296c-0.663,0-1.395-0.1-2.197-0.297c-0.802-0.2-1.606-0.583-2.414-1.152	c-0.808-0.568-1.479-1.404-2.013-2.509c-0.534-1.105-0.801-2.504-0.801-4.196c0-1.697,0.267-3.098,0.801-4.202	c0.534-1.104,1.202-1.939,2.004-2.51c0.802-0.568,1.603-0.952,2.401-1.151C61.138,123.226,61.877,123.126,62.557,123.126	L62.557,123.126z M62.554,136.691c0.484,0,0.97-0.086,1.453-0.256c0.484-0.17,0.936-0.461,1.357-0.873	c0.42-0.411,0.759-0.972,1.018-1.68s0.388-1.574,0.388-2.597c0-1.027-0.129-1.896-0.388-2.606s-0.598-1.268-1.016-1.679	c-0.419-0.411-0.871-0.7-1.356-0.871c-0.486-0.17-0.972-0.255-1.457-0.255c-0.482,0-0.967,0.085-1.454,0.259	c-0.488,0.17-0.939,0.461-1.356,0.869c-0.417,0.409-0.755,0.967-1.013,1.677c-0.259,0.71-0.388,1.579-0.388,2.606	c0,1.022,0.129,1.889,0.388,2.597c0.258,0.708,0.597,1.269,1.016,1.678c0.419,0.409,0.871,0.702,1.356,0.872	C61.588,136.605,62.072,136.691,62.554,136.691L62.554,136.691z"/><path style="fill-rule:evenodd;clip-rule:evenodd;fill:#463991;" d="M76.285,126.286v7.849c0,1.741-0.42,3.059-1.258,3.958	c-0.84,0.897-2.098,1.348-3.775,1.348v-2.826c0.775,0,1.308-0.222,1.596-0.663c0.288-0.443,0.432-1.049,0.432-1.817v-10.597h10.662	v15.492H80.73v-12.743H76.285L76.285,126.286z"/><polygon style="fill-rule:evenodd;clip-rule:evenodd;fill:#463991;" points="92.604,131.578 92.604,134.379 86.618,134.379	86.618,131.578 92.604,131.578	"/><path style="fill-rule:evenodd;clip-rule:evenodd;fill:#463991;" d="M105.236,128.606c-0.203-0.75-0.535-1.385-0.994-1.901	c-0.461-0.521-1.273-0.778-2.436-0.778c-0.998,0-1.887,0.412-2.67,1.239c-0.781,0.827-1.172,2.221-1.172,4.183	c0,0.975,0.135,1.861,0.402,2.662c0.27,0.8,0.691,1.438,1.266,1.914c0.574,0.478,1.299,0.715,2.174,0.715	c0.6,0,1.135-0.11,1.605-0.332c0.469-0.222,0.859-0.553,1.172-0.994s0.531-0.972,0.652-1.592h3.242	c-0.221,1.146-0.617,2.146-1.188,3.005s-1.32,1.525-2.252,2c-0.932,0.476-2.027,0.714-3.287,0.714c-1.387,0-2.615-0.311-3.684-0.93	c-1.069-0.62-1.901-1.544-2.498-2.771s-0.894-2.705-0.894-4.433c0-1.748,0.309-3.24,0.929-4.474	c0.619-1.231,1.469-2.158,2.547-2.777c1.08-0.62,2.293-0.93,3.641-0.93c1.098,0,2.068,0.168,2.908,0.506	c0.842,0.337,1.529,0.777,2.066,1.323s0.945,1.135,1.225,1.77c0.277,0.633,0.441,1.26,0.486,1.882H105.236L105.236,128.606z"/><polygon style="fill-rule:evenodd;clip-rule:evenodd;fill:#463991;" points="114.311,134.326 114.354,134.326 120.529,123.537	123.92,123.537 123.92,139.029 120.914,139.029 120.914,127.983 120.873,127.983 114.527,139.029 111.305,139.029 111.305,123.537	114.311,123.537 114.311,134.326	"/><polygon style="fill-rule:evenodd;clip-rule:evenodd;fill:#463991;" points="130.709,132.092 130.709,139.029 127.498,139.029	127.498,123.537 130.709,123.537 130.709,129.395 136.773,129.395 136.773,123.537 139.984,123.537 139.984,139.029	136.773,139.029 136.773,132.092 130.709,132.092	"/><polygon style="fill-rule:evenodd;clip-rule:evenodd;fill:#463991;" points="150.301,139.029 147.09,139.029 147.09,126.286	142.381,126.286 142.381,123.537 154.975,123.537 154.975,126.286 150.301,126.286 150.301,139.029	"/><polygon style="fill-rule:evenodd;clip-rule:evenodd;fill:#463991;" points="168.828,126.286 160.6,126.286 160.6,129.523	168.158,129.523 168.158,132.272 160.6,132.272 160.6,136.28 169.197,136.28 169.197,139.029 157.439,139.029 157.439,123.537	168.828,123.537 168.828,126.286	"/><path style="fill-rule:evenodd;clip-rule:evenodd;fill:#463991;" d="M180.861,130.81c0.5,0.058,1.01,0.24,1.533,0.551	s0.963,0.736,1.32,1.276c0.357,0.541,0.537,1.162,0.537,1.864c0,0.857-0.203,1.66-0.609,2.41c-0.408,0.748-1.07,1.358-1.99,1.826	c-0.92,0.469-2.1,0.703-3.541,0.703c-1.322,0-2.428-0.169-3.318-0.503c-0.889-0.334-1.572-0.768-2.047-1.296	c-0.475-0.53-0.803-1.084-0.982-1.662c-0.182-0.579-0.271-1.149-0.271-1.71h3.111c0,0.347,0.102,0.71,0.305,1.089	c0.205,0.377,0.562,0.703,1.076,0.975c0.514,0.272,1.205,0.409,2.078,0.409c0.818,0,1.52-0.209,2.104-0.628s0.875-0.96,0.875-1.622	c0-0.495-0.141-0.911-0.422-1.25c-0.283-0.339-0.654-0.595-1.117-0.765c-0.463-0.172-0.967-0.257-1.512-0.257h-2.465v-2.62h2.422	c0.793,0,1.434-0.164,1.924-0.494c0.488-0.326,0.732-0.791,0.732-1.392c0-0.384-0.119-0.72-0.357-1.007	c-0.24-0.286-0.57-0.504-0.992-0.656s-0.893-0.228-1.412-0.228c-0.822,0-1.455,0.132-1.898,0.399	c-0.445,0.266-0.74,0.569-0.887,0.912c-0.146,0.344-0.219,0.678-0.219,1h-3.109c0-0.737,0.189-1.488,0.566-2.255	c0.377-0.766,1.018-1.416,1.924-1.95c0.906-0.537,2.088-0.805,3.549-0.805c1.488,0,2.682,0.244,3.58,0.732	c0.898,0.489,1.525,1.082,1.883,1.779c0.355,0.697,0.533,1.387,0.533,2.068c0,0.903-0.281,1.599-0.844,2.087	C182.355,130.281,181.67,130.62,180.861,130.81L180.861,130.81z"/><path style="fill-rule:evenodd;clip-rule:evenodd;fill:#463991;" d="M59.838,72.008h20.875v37.168h32.477v-2.727	c-0.018,0-0.037,0.002-0.055,0.002c-17.471,0-31.722-13.729-31.722-30.562c0-12.354,7.673-23.032,18.663-27.843H59.838V72.008	L59.838,72.008z M113.189,101.736v-3.791c-0.057,0-0.1,0.003-0.127,0.003c-12.625,0-22.919-9.922-22.919-22.083	c0-12.162,10.294-22.082,22.919-22.082l20.973-0.007v-3.738l-20.941-0.022c-14.783,0-26.84,11.617-26.84,25.858	c0,14.244,12.057,25.862,26.84,25.862H113.189L113.189,101.736z M113.189,94.777v-2.723c-0.084,0-0.148,0-0.18,0	c-9.264,0-16.821-7.279-16.821-16.207c0-8.925,7.557-16.205,16.821-16.205l21.025-0.011v-2.699l-21.002,0.003	c-10.816,0-19.638,8.5-19.638,18.922c0,10.421,8.822,18.92,19.638,18.92H113.189L113.189,94.777z M113.189,89.668v-2.126h-0.217	c-6.693,0-12.15-5.261-12.15-11.706c0-6.448,5.457-11.705,12.15-11.705l21.062,0.011v-2.119l-21.045-0.008	c-7.904,0-14.35,6.211-14.35,13.827c0,7.614,6.445,13.825,14.35,13.825H113.189L113.189,89.668z M113.189,85.627v-1.747	l-0.248,0.001c-4.607,0-8.365-3.62-8.365-8.058c0-4.44,3.758-8.059,8.365-8.059l21.094-0.006v-1.728h-21.08	c-5.6,0-10.168,4.403-10.168,9.798c0,5.396,4.568,9.798,10.168,9.798H113.189L113.189,85.627z M113.189,82.461V72.008h20.846v-2.83	l-20.217-0.013v0.185c-0.225-0.021-0.451-0.033-0.684-0.033c-3.756,0-6.82,2.952-6.82,6.572c0,3.62,3.064,6.571,6.82,6.571H113.189	L113.189,82.461z"/><path style="fill-rule:evenodd;clip-rule:evenodd;fill:#463991;" d="M125.162,95.92c3.57,0,6.482,2.911,6.482,6.481	s-2.912,6.483-6.482,6.483s-6.482-2.913-6.482-6.483S121.592,95.92,125.162,95.92L125.162,95.92z M125.162,96.697	c3.143,0,5.703,2.562,5.703,5.704s-2.561,5.705-5.703,5.705s-5.705-2.562-5.705-5.705S122.02,96.697,125.162,96.697L125.162,96.697	z M121.992,106.054v-7.782h3.307c0.779,0,1.363,0.063,1.754,0.191c0.391,0.125,0.705,0.368,0.943,0.737	c0.238,0.364,0.361,0.782,0.361,1.258c0,0.546-0.164,1.012-0.484,1.404c-0.322,0.391-0.848,0.644-1.57,0.754	c0.336,0.192,0.615,0.411,0.838,0.651c0.223,0.242,0.521,0.667,0.896,1.265l0.951,1.521h-1.881l-1.137-1.695	c-0.49-0.736-0.838-1.182-1.041-1.331c-0.205-0.147-0.551-0.223-1.047-0.223h-0.32v3.249H121.992L121.992,106.054z M123.562,101.561h1.162c0.648,0,1.076-0.014,1.287-0.056c0.213-0.04,0.385-0.14,0.521-0.299c0.137-0.16,0.203-0.378,0.203-0.65	c0-0.265-0.07-0.475-0.213-0.639c-0.143-0.163-0.309-0.255-0.506-0.286c-0.195-0.031-0.607-0.042-1.229-0.042h-1.227V101.561	L123.562,101.561z"/></g></svg>