<?xml version="1.0" encoding="UTF-8" standalone="no"?>
<svg width="200px" height="32px" viewBox="0 0 200 32" version="1.1" xmlns="http://www.w3.org/2000/svg" xmlns:xlink="http://www.w3.org/1999/xlink">
    <!-- Generator: Sketch 3.6.1 (26313) - http://www.bohemiancoding.com/sketch -->
    <title>TF Logo</title>
    <desc>Created with Sketch.</desc>
    <defs></defs>
    <g id="Desktop-Web" stroke="none" stroke-width="1" fill="none" fill-rule="evenodd">
        <g id="7.2.-FAQ-Section" transform="translate(-250.000000, -32.000000)" fill="#3189C8">
            <g id="Nav-Bar" transform="translate(250.000000, 31.000000)">
                <path d="M151.332212,29.0855582 L151.332212,14.3404645 L146.028741,14.3404645 L146.028741,10.940153 L160.499389,10.940153 L160.499389,14.3404645 L155.222855,14.3404645 L155.222855,29.0855582 L151.332212,29.0855582 L151.332212,29.0855582 Z M129.065051,26.5288831 L131.188001,23.5068611 C132.466924,24.8420007 134.454408,25.9842867 136.954867,25.9842867 C139.103973,25.9842867 140.111574,25.031731 140.111574,23.9694753 C140.111574,20.8147201 129.664302,23.0180908 129.664302,16.1909211 C129.664302,13.1716318 132.277194,10.66805 136.548079,10.66805 C139.432683,10.66805 141.825003,11.5390138 143.620805,13.1985688 L141.471308,16.0827826 C140.002655,14.720706 138.042888,14.0960793 136.192041,14.0960793 C134.562547,14.0960793 133.637318,14.8030786 133.637318,15.8903195 C133.637318,18.7472058 144.055701,16.8171093 144.055701,23.5896242 C144.055701,26.9087342 141.664552,29.4099737 136.791683,29.4099737 C133.284404,29.4099737 130.780822,28.2423122 129.065051,26.5288831 L129.065051,26.5288831 Z M123.056923,29.0855582 L121.915418,26.010443 L114.134521,26.010443 L112.989112,29.0855582 L108.61165,29.0855582 L115.600832,10.940153 L120.445593,10.940153 L127.437118,29.0855582 L123.056923,29.0855582 L123.056923,29.0855582 Z M118.025555,14.8030786 L115.194044,22.6097411 L120.853162,22.6097411 L118.025555,14.8030786 L118.025555,14.8030786 Z M95.4218768,29.0855582 L95.4218768,21.550218 L92.3049896,21.550218 L92.3198245,18.1495161 L95.4218768,18.1495161 L95.4218768,10.940153 L108.260298,10.940153 L108.260298,14.3404645 L99.2832409,14.3404645 L99.2832409,18.1495161 L108.069396,18.1495161 L108.069396,21.550218 L99.2832409,21.550218 L99.2832409,29.0855582 L95.4218768,29.0855582 L95.4218768,29.0855582 Z M74.6261024,26.5288831 L76.7478811,23.5068611 C78.0264139,24.8420007 80.011946,25.9842867 82.5155278,25.9842867 C84.664634,25.9842867 85.6706734,25.031731 85.6706734,23.9694753 C85.6706734,20.8147201 75.2241824,23.0180908 75.2241824,16.1909211 C75.2241824,13.1716318 77.8362932,10.66805 82.1067877,10.66805 C84.9910015,10.66805 87.3833217,11.5390138 89.1791234,13.1985688 L87.030798,16.0827826 C85.5613637,14.720706 83.6043302,14.0960793 81.7534833,14.0960793 C80.1200845,14.0960793 79.1952466,14.8030786 79.1952466,15.8903195 C79.1952466,18.7472058 89.6151909,16.8171093 89.6151909,23.5896242 C89.6151909,26.9087342 87.2220899,29.4099737 82.3523441,29.4099737 C78.8435037,29.4099737 76.3395315,28.2423122 74.6261024,26.5288831 L74.6261024,26.5288831 Z M67.7017251,29.0855582 L59.0514263,17.2512249 L59.0514263,29.0855582 L55.1896718,29.0855582 L55.1896718,10.940153 L59.1603456,10.940153 L67.56704,22.3372477 L67.56704,10.940153 L71.4295753,10.940153 L71.4295753,29.0855582 L67.7017251,29.0855582 L67.7017251,29.0855582 Z M48.1571561,29.0855582 L47.01487,26.010443 L39.235535,26.010443 L38.0909066,29.0855582 L33.7118831,29.0855582 L40.7034077,10.940153 L45.5454357,10.940153 L52.5365699,29.0855582 L48.1571561,29.0855582 L48.1571561,29.0855582 Z M43.1242265,14.8030786 L40.295058,22.6097411 L45.9541758,22.6097411 L43.1242265,14.8030786 L43.1242265,14.8030786 Z M27.5272981,29.0855582 L23.9638029,22.6374589 L21.1354152,22.6374589 L21.1354152,29.0855582 L17.2713183,29.0855582 L17.2713183,10.940153 L25.7592142,10.940153 C29.5401576,10.940153 31.8801654,13.4152362 31.8801654,16.7897819 C31.8801654,19.9718645 29.8391977,21.712621 27.8817738,22.1748447 L31.9883039,29.0855582 L27.5272981,29.0855582 L27.5272981,29.0855582 Z M27.9083204,16.7605025 C27.9083204,15.2656928 26.7375358,14.3404645 25.2150082,14.3404645 L21.1354152,14.3404645 L21.1354152,19.2379281 L25.2150082,19.2379281 C26.7375358,19.2379281 27.9083204,18.3111383 27.9083204,16.7605025 L27.9083204,16.7605025 Z M5.30386136,29.0855582 L5.30386136,14.3404645 L0,14.3404645 L0,10.940153 L14.4726004,10.940153 L14.4726004,14.3404645 L9.19450485,14.3404645 L9.19450485,29.0855582 L5.30386136,29.0855582 L5.30386136,29.0855582 Z M186.443649,8.74888446 L185.434877,13.4175786 L178.149778,13.4175786 L174.492588,30.081057 C176.645208,31.6449661 179.202274,32.6869215 181.975616,33.0234391 L184.118086,23.3038575 L179.539962,23.3038575 L180.548735,18.6866951 L185.135446,18.6866951 L187.325934,8.74888446 L197.679902,8.74888446 C194.862445,4.10361386 189.758855,1 183.927965,1 C178.097075,1 172.992313,4.10361386 170.176028,8.74888446 L186.443649,8.74888446 L186.443649,8.74888446 Z M190.463512,18.6472655 L199.922702,18.6472655 C199.973063,18.1292157 200,17.6037485 200,17.0720351 C200,15.8149739 199.851651,14.5930479 199.578767,13.4175786 L191.621023,13.4175786 L190.463512,18.6472655 L190.463512,18.6472655 Z M172.846697,13.4175786 L168.276382,13.4175786 C168.003108,14.5930479 167.854368,15.8149739 167.854368,17.0720351 C167.854368,20.1276308 168.707374,22.9856882 170.188911,25.4189996 L172.846697,13.4175786 L172.846697,13.4175786 Z M189.417653,23.3179116 L187.333742,32.7810059 C192.493549,31.666828 196.732812,28.0783477 198.742939,23.3179116 L189.417653,23.3179116 L189.417653,23.3179116 Z" id="TF-Logo"></path>
            </g>
        </g>
    </g>
</svg>