<?xml version="1.0" encoding="utf-8"?>
<!-- Generator: Adobe Illustrator 19.1.0, SVG Export Plug-In . SVG Version: 6.00 Build 0)  -->
<svg version="1.1" xmlns="http://www.w3.org/2000/svg" xmlns:xlink="http://www.w3.org/1999/xlink" x="0px" y="0px"
	 viewBox="0 0 391.4 196" style="enable-background:new 0 0 391.4 196;" xml:space="preserve">
<style type="text/css">
	.st0{fill:none;}
	.st1{fill:#00C6FF;}
	.st2{fill:#223049;}
</style>
<g id="Layer_1">
	<rect class="st0" width="391.4" height="196"/>
	<polygon class="st1" points="82,78.4 87.2,87 78.1,95.7 93.8,95.7 95.2,92.2 86.6,92.2 91.8,87 88.8,81.8 103,81.8 90.5,111.4 
		94.8,111.4 108.8,78.4 	"/>
</g>
<g id="Layer_2">
	<g>
		<rect x="271.9" y="98.7" class="st2" width="3.6" height="18.9"/>
		<rect x="271.8" y="92.3" class="st2" width="3.9" height="3.8"/>
		<polygon class="st2" points="265.8,92.3 261.4,111.9 261.2,111.9 256.6,98.7 253.4,98.7 248.2,111.9 248,111.9 244.5,92.3 
			240.7,92.3 245.5,117.6 249,117.6 254.7,103.6 254.9,103.6 259.8,117.6 263.4,117.6 269.5,92.3 		"/>
		<g>
			<path class="st2" d="M216.2,114.8c-3.5,0-5.8-2.7-5.8-6.7c0-3.7,2.1-6.8,5.4-6.8c3.8,0,4.9,3.2,5,5.2h-6.6l-1.2,2.9h11.5
				c0.1-0.7,0.1-1,0.1-1.3c0-5.4-2.8-9.8-8.7-9.8c-5.1,0-9.1,4.2-9.1,9.9c0,5.9,3.8,9.8,9.2,9.8c3.2,0,6.1-1.2,7.8-3.3l-2.2-2.1
				C220.1,114,218.2,114.8,216.2,114.8"/>
			<path class="st2" d="M202,98.3c0-2.3,1.1-3.7,3.3-3.7c0.8,0,2.1,0.2,3.1,0.6l1.1-2.6c-1.4-0.7-3.1-1-4.4-1
				c-3.6,0-6.8,1.8-6.8,6.7v0.6h-2.4v3h2.4v15.7h3.6v-15.7h3.6l1.2-3H202V98.3z"/>
			<path class="st2" d="M169.9,98.3c-2.4,0-4.5,0.9-5.6,2.8h-0.2v-2.4h-3.5v18.9h3.6v-10.2c0-3.7,1.9-6,4.9-6c2.8,0,4.5,1.5,4.5,5
				v11.3h3.6v-11.9C177.1,100.9,174.3,98.3,169.9,98.3"/>
			<path class="st2" d="M152.9,110.3c0,2.8-2.3,4.6-5.6,4.6c-1.9,0-3.6-0.9-3.6-3.1c0-2.1,1.7-3.5,4.4-3.5c2.4,0,3.9,0.4,4.8,1.1
				V110.3z M147.9,98.3c-2.1,0-4.1,0.3-5.6,0.9l0.6,2.9c1.7-0.5,3.1-0.7,4.5-0.7c3,0,5.5,1.4,5.5,4.5v0.5c-1-0.4-2.5-0.9-4.7-0.9
				c-4.9,0-8.1,2.5-8.1,6.5c0,4.2,3.1,6,6.7,6c2.9,0,4.9-1.2,6-2.6h0.2v2.2h3.5v-11.8C156.4,100.6,153,98.3,147.9,98.3"/>
		</g>
		<polygon class="st2" points="108.8,92.3 108.8,95.7 116.8,95.7 116.8,117.6 120.6,117.6 120.6,95.7 128.6,95.7 128.6,92.3 		"/>
		<g>
			<path class="st2" d="M140.3,99c-1.1-0.5-2.4-0.5-3.1-0.5c-2,0-3.9,0.8-5,2.2h-0.2v-2.1h-3.5v18.9h3.6v-10.3c0-4,1.9-5.6,4.8-5.6
				c1,0,1.6,0.1,2.5,0.3L140.3,99z"/>
			<path class="st2" d="M239.7,99.1c-1.1-0.5-2.4-0.6-3.1-0.6c-2,0-4.2,0.8-5.2,2.2h-0.2v-2.1h-3.5v18.9h3.6v-10.3
				c0-4,2.2-5.6,5-5.6c1,0,1.6,0.1,2.5,0.3L239.7,99.1z"/>
			<path class="st2" d="M304.7,114.8c-3.5,0-5.8-2.7-5.8-6.7c0-3.7,2.1-6.8,5.4-6.8c3.8,0,4.9,3.2,5,5.2h-6.6l-1.2,2.9h11.5
				c0.1-0.7,0.1-1,0.1-1.3c0-5.4-2.8-9.8-8.7-9.8c-5.1,0-9.1,4.2-9.1,9.9c0,5.9,3.8,9.8,9.2,9.8c3.2,0,6.1-1.2,7.8-3.3l-2.2-2.1
				C308.6,114,306.8,114.8,304.7,114.8"/>
			<path class="st2" d="M188,106.7c-2.8-0.4-4.4-0.9-4.4-2.7c0-1.7,1.6-2.7,3.6-2.7c1.6,0,3.7,0.6,5,1.6l1.7-2.6
				c-1.6-1.3-4.2-2-6.7-2c-4.2,0-7.2,2.5-7.2,5.8c0,3.8,2.4,5,6.5,5.7c2.3,0.4,4.3,0.6,4.3,2.6c0,1.7-1.6,2.6-3.8,2.6
				c-2.1,0-4-0.6-5.8-2l-1.6,2.8c1.4,1.2,4.2,2.2,7.3,2.2c4.3,0,7.5-2.5,7.5-5.9C194.5,108,191.3,107.1,188,106.7"/>
			<path class="st2" d="M286.8,106.7c-2.8-0.4-4.4-0.9-4.4-2.7c0-1.7,1.6-2.7,3.6-2.7c1.6,0,3.7,0.6,5,1.6l1.7-2.6
				c-1.6-1.3-4.2-2-6.7-2c-4.2,0-7.2,2.5-7.2,5.8c0,3.8,2.4,5,6.5,5.7c2.3,0.4,4.3,0.6,4.3,2.6c0,1.7-1.6,2.6-3.8,2.6
				c-2.1,0-4-0.6-5.8-2l-1.6,2.8c1.4,1.2,4.2,2.2,7.3,2.2c4.3,0,7.5-2.5,7.5-5.9C293.3,108,290.1,107.1,286.8,106.7"/>
		</g>
	</g>
</g>
</svg>
