<?xml version="1.0" encoding="utf-8"?><!-- Generator: Adobe Illustrator 16.0.0, SVG Export Plug-In . SVG Version: 6.00 Build 0) --><!DOCTYPE svg PUBLIC "-//W3C//DTD SVG 1.1//EN" "http://www.w3.org/Graphics/SVG/1.1/DTD/svg11.dtd"><svg version="1.1" id="Layer_1" xmlns="http://www.w3.org/2000/svg" xmlns:xlink="http://www.w3.org/1999/xlink" x="0px" y="0px" width="1398.345px" height="363.589px" viewBox="174.1 135.6 1398.345 363.589" enable-background="new 174.1 135.6 1398.345 363.589" xml:space="preserve"><path fill="#303282" d="M175.4,136.3c58.5-0.2,117.101,0,175.601-0.1c5.5,0.2,11.1-0.4,16.5,0.4c0,17.6-0.101,35.2,0.1,52.9	c-21.1,0.4-42.1,0-63.2,0.1c-0.3,42.2,0.101,84.4-0.2,126.5c-16.8-0.1-33.499,0-50.199-0.1c-4.8,0.6-9.7-0.6-14.5,0.3	c-0.601-1.1-0.9-2.1-0.8-3.3c0.1-39,0-78,0-117c0-2.2,0.199-4.4-0.301-6.5c-21,0.3-42,0.1-63,0.1	C175.3,171.8,175.4,154.1,175.4,136.3z"/><path fill="#303282" d="M877.5,136.5c21.399,0,42.699-0.1,64.1,0c0.2,34.8,0,69.7,0.1,104.5c-0.199,14.1-1.1,28.6-6.899,41.5	c-6.3,14.7-20.101,24.7-34.601,30.3C883,319.7,864.3,321.1,846,322.3c-15.9-1.2-32.101,0.5-47.9-2.399c-3-0.7-6.1-0.101-8.9-1.4	c-3.1-1.3-6.6-0.5-9.5-2.1c-12.1-3.101-23.699-8.8-33.199-17c-7.301-7.5-13.301-16.9-14.4-27.4c-0.3-0.2-1-0.6-1.3-0.8	c-0.3-4.4-0.5-8.8-1.4-13.1c0.101-40.6-0.3-81.1,0.2-121.6c21.3,0,42.6-0.1,63.9,0c0.199,36.2,0,72.3,0.1,108.5	c0.3,7.8,2.2,15.8,7.1,22.2c6,8.5,16.301,12.6,26.2,14.2c6.3,0.3,12.8,0.5,19.101-0.1c3.699-1.6,7.899-1.6,11.5-3.6	c8.899-3.8,15.699-12.2,17.899-21.7c1.5-4.2,1-8.7,2-13C877.5,207.5,877.3,172,877.5,136.5z"/><path fill="#303282" d="M1031.5,136.6c29.1-0.2,58.1-0.2,87.199,0c6.601,15.5,11.9,31.7,18.5,47.3c4.601,13.5,10.101,26.7,15,40	c2.801,7.7,6.4,15.1,8.5,22.9l1.4-0.3c5.9-14,10.8-28.4,16.5-42.5c0.9-1.6,1.1-3.4,1.3-5.1c1.7-0.4,1.5-2.4,2-3.7	c6.5-17,13.2-34,19.601-51.1c1-2.6,1.8-5.3,3.199-7.7c29,0.2,57.9,0,86.801,0.1c0.1,56.1,0,112.3,0,168.5	c-0.101,3.6,0.3,7.3-0.2,10.9c-17.7-0.2-35.5,0-53.3-0.101c-3.601-0.2-7.2,0.4-10.7-0.5c0.8-2.7,0.2-5.5,0.3-8.3	c0-28.3-0.1-56.6,0-85c0.4-4.5-0.7-9.2,0.9-13.6c-1.101,0.3-1.9,0.9-2.7,1.7c-0.2,1.2-0.4,2.4-0.7,3.6c-7.7,19.4-14.6,39-22.5,58.3	c-4.9,14.7-11.5,28.9-16.4,43.6c-16.8,0.4-33.6,0.2-50.399,0.101c-2.601-8.3-6.101-16.3-9.3-24.4c-7.801-21.5-16.2-42.8-24.4-64.2	c-2.3-6.5-5.4-12.8-6.4-19.7c-0.8,1.4-1.399,2.9-1.199,4.5c0.199,34.6-0.101,69.2,0.1,103.8c-21.1,0.1-42.1,0.2-63.2,0	C1031.6,256,1031.4,196.3,1031.5,136.6z"/><path fill="#303282" d="M648.1,306.6c-11.8-17.7-23.5-35.4-35.4-53.1c-0.899-1.6-2.5-3-2.399-4.9c6.3-2.1,13-3.6,18.5-7.5	c10.6-6.5,17.7-17.9,20-30.1c2.399-7.4,1.6-15.3,1.6-23c-2.2-15.4-8.899-31.1-21.6-40.8c-8.9-5.8-19.4-8.8-29.8-9.9	c-4.101,0.2-8.101-0.3-12-0.8c-46.5,0-92.9-0.1-139.4,0c-0.3,3.1-0.2,6.3-0.2,9.5c0,56.6,0.101,113.1-0.1,169.7	c21.8,0.1,43.5,0.2,65.2,0c-0.2-20.2,0-40.3-0.101-60.4c11.4,0.1,22.9-0.5,34.2,0.3c11.3,20.3,24.3,39.7,35.7,60	c23.899,0.4,47.8,0.2,71.7,0.101C652.5,312.4,649.9,309.8,648.1,306.6z M585.199,200.2c-2,6-8.699,8-14.199,9.1	c-19.5,0.6-39.101,0.2-58.601,0.3c0.101-10,0-20.1,0-30.1c18.9,0.3,37.8-0.3,56.7,0.3c5.3,1.1,11.4,2.5,14.7,7.3	C585.6,191.1,587.699,196,585.199,200.2z"/><path fill="#303282" d="M1557.4,151.5c-8.1-8.7-20-12.1-31.399-13.9c-6-0.3-11.9-1.4-18-1.1c-4.101,0.4-7.9-1.3-12-0.8	c-40.2-0.1-80.4,0.2-120.5-0.1c-0.801,2-0.801,4.2-0.7,6.4c0,33.7,0,67.4,0,101c0.1,24.3-0.3,48.6,0.2,72.8c18.699,0,37.3,0,56,0	c2.8-0.1,5.699,0.3,8.399-0.4c-0.3-19.4,0-38.8-0.1-58.2c4.1-0.9,8.399-0.2,12.7-0.4c20.699-0.2,41.399,0.4,62.1-0.4	c3.3-0.7,6.6-1.1,10-1.3c3.8-1.5,8.1-1.8,11.9-3.4c16.399-4.9,30-18.8,33.699-35.7c2.101-5.1,1.801-10.6,2.7-16	C1572.9,182.9,1569.3,164.5,1557.4,151.5z M1507.1,204.5c-1.4,4.8-5.8,8.2-10.7,8.6c-5.7,1.8-11.6,1.2-17.399,1.3	c-13.2,0-26.4,0-39.601,0c-0.2-11-0.1-21.9-0.1-32.9c13.899,0,27.8,0,41.7,0c5.1,0.2,10.399-0.7,15.3,1.4c3.5,0.4,6,3.1,8.2,5.6	C1507.9,193,1508.3,199.1,1507.1,204.5z"/><path fill="#303282" d="M778,444.1c5.899-8.899,17.399-13.5,27.8-11c3.5,1.2,7.399,2,10.1,4.801c-1.8,2-2.8,4.5-4.5,6.5	c-1.7,0.8-3.2-0.801-4.6-1.4c-5.2-2.1-11.8-2.4-16.101,1.9c-3.5,2.699-4.6,7-6,11c-0.6,6-0.5,12.1-0.199,18.1	c0.3,5.9,3.5,11.6,8.6,14.7c5.8,2.8,13.3,2.1,18.1-2.3c2.301,0.3,2.801,2.899,4.2,4.3c1.101,0.8,1,2.2,1.2,3.5	c-10.3,6.5-25.1,7.2-34.5-1.2c-7.9-6.6-10.3-17.2-10.6-27C772.4,458.4,773.3,450.4,778,444.1z"/><path fill="#303282" d="M1334,433.8c8.899-2.8,18.8-0.3,26.3,5.101c1.3,2.899-2.5,4.699-3.7,6.899c-2.3,0.3-4.1-1-5.8-2	c-5.4-2.5-12.4-3.1-17.3,0.8c-5.2,4.101-6.601,11.101-7.101,17.4c-0.3,8.1-0.5,17.2,4.8,24c4.4,4.2,11,5.3,16.801,3.6	c1.399,0,2.399-1.1,3.399-1.899c-0.2-5.3,0.101-10.601-0.2-15.9c-3.6-0.1-7.199-0.1-10.8-0.1c-0.8-2.7-1.2-5.4-1.7-8.2	c7.601-0.4,15.4,0,23-0.2c0,10.3,0.301,20.7-0.199,31c-4.4,1.601-8.801,3.7-13.601,4.101c-6.899,0.5-14.2,0.6-20.399-3	c-6.4-3.801-10.7-10.601-12.601-17.7c-1.899-11.101-1.6-23.4,4.7-33.2C1323.4,439.8,1328,435.4,1334,433.8z"/><path fill="#303282" d="M179.7,434.5c4.8-1.1,10-0.9,14.899-0.2c1.4,4.8,3,9.7,3.3,14.7c2.101,0.8,1.301,3.3,1.9,5	c2.7,8.3,4.2,16.8,7.2,25c2.2-15,8.5-29.2,10.8-44.2c3.6-1.5,7.5-0.7,11.2-0.899c1.6-0.2,3,0.3,4.5,0.699	c0.5,13.801,2.3,27.5,3.399,41.2c1,5.4,0.101,10.9,1.4,16.2c0.4,1.9,0.4,3.8,0.5,5.8c-3.8,0-7.5,0-11.2-0.2	c0.3-11.899-2.1-23.699-2.1-35.6c-0.101-2.8-0.9-5.4-1-8.1c-1,0.699-2,1.6-1.9,3c-0.8,5.199-3.6,9.899-3.399,15.199	c-2.2,0.2-1.4,2.601-1.9,4c-2.2,7.101-4.2,14.301-6.1,21.5c-3.2,0.301-6.5,0.2-9.7,0.101c-2.5-7.101-4.2-14.4-6.2-21.7	c-2-8.2-5-16.4-6.1-24.9c-0.601,0.801-1.5,1.7-1.301,2.801c-0.3,4.399,0.2,8.8-1,13.1c-0.699,5.7,0,11.6-0.899,17.3	c-0.7,4.4-0.101,9-1.101,13.5c-3.6-0.2-7.199,0.4-10.8-0.399c1.101-5,0.7-10.2,1.7-15.101c1.2-5.399,0.2-11,1.3-16.399	c0.4-1.601,0.3-3.2,0.2-4.801c0.4,0.5,0.9,1.101,1.3,1.601C177,453.3,180,443.9,179.7,434.5z"/><path fill="#303282" d="M325.699,434.2c3.601,0,7.4-0.9,10.9,0.399c-0.3,9.101-0.1,18.2-0.1,27.301c0.899-0.5,1.8-1,2.3-2	c5.6-8.601,12-16.801,17.5-25.5c4.5-1,9.2-0.301,13.8-0.2c-6.7,10.2-14.8,19.6-21.7,29.7C356.4,475,363.9,486.6,372,497.6	c-4.9,0.301-9.801,0.2-14.7,0.101c-6.3-10.4-12.9-20.4-19.2-30.7l-1.7,0.2c0.2,10.1-0.1,20.3,0.101,30.399	c-3.7,0.101-7.5,0.5-11.2-0.199C325.9,476.3,325.1,455.2,325.699,434.2z"/><path fill="#303282" d="M388.3,434.4c3.899-0.7,7.8-0.601,11.7-0.301c7.899-0.699,15.899,0,23.899-0.1c-0.1,3.2-0.5,6.4-1.7,9.4	c-7.6-0.2-15.199-0.101-22.8-0.101c-0.1,5.5-0.1,11,0,16.4c6.601,0,13.2,0,19.9,0c-0.101,3.2-0.2,6.3-0.101,9.5	c-6.6,0.399-13.1,0.1-19.699,0.2c0,6.3,0,12.699,0,19.1c8.6,0,17.199-0.2,25.8,0.1c-0.101,3-0.101,5.9,0.1,8.9	c-12.3,0.5-24.7,0.2-37,0.2C388.4,476.6,388.5,455.5,388.3,434.4z"/><path fill="#303282" d="M537.4,434c4.8,0.4,9.601-0.6,14.4,0.2c2.5,8.2,4.2,16.6,6.7,24.7c0.899,4.1,2.6,8.1,3.199,12.3	c0.301,2.6,2.101,4.899,2.2,7.7c1.3-2.9,1.2-6.2,2.2-9.2c3-11.8,6.9-23.4,9.5-35.3c5.1-0.9,10.5-0.7,15.6,0.3	c0.2,5.8-0.3,11.6,1.101,17.3c0.399,8.5,1.2,17.1,2.2,25.6c-0.301,6.801,1.5,13.4,1.3,20.101c-3.5,0.1-7.101,0.1-10.601,0	c-1.1-6.5-0.3-13.2-1.199-19.7c-1-4.6-0.601-9.4-1.4-14c-0.6-3.4,1-7.4-1.6-10.2c-2.4,3.8-2,8.601-3.7,12.601	c-2.9,10.3-6,20.6-8.7,31c-3.3,0.699-6.6,0.3-9.9,0.3c-3.3-10.4-5.8-21.101-8.8-31.601c-1.7-4.199-2-8.699-3.2-13	c-0.3,0.101-0.899,0.2-1.3,0.2c-0.1,10.601-1.899,21.101-2,31.7c0.2,4.5-1.2,8.8-1.1,13.3c-3.601-0.5-7.3-0.899-10.8-0.1	c0.8-13.101,2.6-26.101,3.3-39.3c1.1-4.601,0.7-9.301,1-13.9C536.6,441.4,536.9,437.7,537.4,434z"/><path fill="#303282" d="M738.4,434.4c4-0.9,8-0.801,12,0.1c-0.2,21-0.2,42,0,63.1c-4,0.301-8,0.2-12,0.101	C738.6,476.6,738.6,455.5,738.4,434.4z"/><path fill="#303282" d="M929.3,445.1c4.6-7.3,12.899-12.6,21.8-11.8c7.4-0.7,14.7,2,20.5,6.5c-1.9,2.2-3.8,4.4-5.4,6.8	c-3.8-1.3-7-4.399-11.3-4.3c-3.6-0.1-7.7-0.7-10.7,1.9c-5.8,3.899-7.3,11.3-7.699,17.8c-0.101,8.1-0.7,17.2,4.6,23.9	c5.1,4.8,13.6,6,19.7,2.399c-0.2-5.3,0-10.7-0.2-16c-3.4,0-6.7-0.1-10.1,0c-1.2-2.8-1.101-5.899-2-8.8c8-0.3,16-0.1,24-0.1	c-0.101,9.199,0,18.399,0,27.699c0.399,2.101-1.601,3.5-3.301,4.101c-4.6,1.7-9.3,3.6-14.199,3.399c-5.301-0.1-11,0.601-15.801-2.3	c-10.8-5.1-15.6-18-15-29.399C923.8,459.4,925.3,451.6,929.3,445.1z"/><path fill="#303282" d="M1058.699,434.6C1065,432.9,1071.5,434.4,1078,434.2c5.6,0.1,11.199-0.7,16.699,0.1	c-0.6,2.8,0.601,6.5-1.399,8.7c-7.5,0.8-15.3,0-22.9,0.4c0,5.399-0.1,10.8,0,16.3c6.601,0.1,13.2-0.2,19.8,0.1	c0.101,3.2,0,6.3,0,9.4c-6.6,0.399-13.1,0-19.699,0.2c-0.101,6.399-0.2,12.699,0,19c8.399,0,16.699,0.1,25.1,0	c0.1,3.1,0.1,6.199,0.1,9.3c-12.3,0-24.699,0.399-37-0.3C1058.9,476.5,1058.9,455.5,1058.699,434.6z"/><path fill="#303282" d="M1167.4,434.4c6.5-1.601,13.101,0.399,19.7-0.5c3.9-0.101,7.9,0.699,11.9,0.1c4.5-0.1,9.3-0.8,13.699,0.7	c-1.699,2.7-1,6.1-2.5,8.899c-3-1.399-6.1,0.2-9.199-0.3c-1.9-0.2-3.801-0.899-5.7-0.2c-0.101,18.101-0.2,36.301,0,54.4	c-3.9,0.4-7.8,0.3-11.7,0c0.2-18,0-36.1,0.1-54.2c-5.3,0-10.699,0.101-16-0.1C1167.5,440.3,1167.5,437.4,1167.4,434.4z"/><path fill="#303282" d="M1449.3,434.5c3.7-0.5,7.5-0.6,11.2-0.7c0.5,21.3,0,42.601,0.199,63.9c-3.699,0.1-7.5,0.1-11.3-0.101	C1449.4,476.6,1449.699,455.5,1449.3,434.5z"/><path fill="#303282" d="M1485.4,434.6c4.3-1,9.4-1.6,13.5,0.4c5.2,12.8,12.8,24.5,17.7,37.4c0.2,0.1,0.6,0.199,0.8,0.3	c-0.2,1.7,0,3.2,1.7,4c0.9-8.5-0.8-17.101-0.4-25.7c-0.1-5.5,0.101-11.1-0.1-16.6c3.6-0.2,7.4-0.7,11,0.199c-0.4,21-0.2,42-0.1,63	c-4,0.2-7.9,0.301-11.9,0c-6.9-14.6-14.4-28.899-20.6-43.899c-2.601,2.7-1,7-0.9,10.3c0.6,11.1-0.2,22.3,0.4,33.5	c-3.601,0.5-7.4,0.4-11.101,0C1485.6,476.5,1485.6,455.6,1485.4,434.6z"/><path fill="#303282" d="M1553.4,434.6c4-1.399,8.3-1.199,12.5-2c-0.5,10.4-0.399,20.9-1.3,31.4c-0.5,4.8,0.7,9.9-1.2,14.5	c-2.6,0-5.2,0-7.899,0C1555.6,463.8,1553.8,449.3,1553.4,434.6z"/><path fill="#303282" d="M619,434.2c12,0,24-0.2,35.899,0.1c-1.2,2.601-1.399,5.5-1.399,8.4c-7.601,0-15.2,0.1-22.9-0.101	c-1.4,2.9-0.9,6.2-1,9.4c0.1,2.8-0.5,5.8,1.1,8.3c6.301,0,12.601-0.3,18.9,0.101c-0.1,2.8-0.1,5.6,0,8.3c-6.2,1.6-12.9,0.1-19.2,0.8	c0.101,6.4-0.1,12.7,0.101,19c8.3-0.1,16.699-0.1,25-0.1c0,3.1,0,6.199,0.1,9.3c-12.1,0.2-24.3,0-36.4,0.1c-1-2.2,0.2-4.5,0-6.8	C619.1,472.1,619.5,453.1,619,434.2z"/><path fill="#303282" d="M714.8,490.4c-4.101-6.5-7.5-13.601-13.101-19c0-0.4-0.1-1.101-0.199-1.5c7.199-0.5,13.1-6.801,14.1-13.801	c0.2-4.3,0.7-9.1-1.8-13c-3.2-6-10.2-9-16.8-8.899c-7.2,0-14.4-0.101-21.7,0c0.1,21.2,0.1,42.3,0,63.5c3.5,0.1,7,0.1,10.5,0	c-0.101-9.101,0.1-18.101-0.101-27.2c0.801,0,1.7,0.1,2.5,0.2c8,7.6,12.4,17.8,18,27c4.301,0.1,8.601,0.1,12.9,0	C718.1,495,716.199,492.8,714.8,490.4z M685.9,463.1c-0.2-5.699-0.1-11.399-0.1-17.199c-0.2-1.101,0.3-2.2,0.7-3.2	c5.699-0.2,11.8-0.5,16.399,3.399c2.2,4.101,2.5,9.601-0.7,13.301c-1.5,2.5-4.699,2.5-7.3,3.199C692,463.7,688.9,463.1,685.9,463.1z	"/><path fill="#303282" d="M1031.4,483.6c-2.7-4.5-5.399-9.199-9.399-12.699l0.899-0.9c5.4-0.6,9.7-4.6,12.101-9.2	c1.1-2.1,0.1-4.8,1.699-6.6c0.2-3.2-1.3-6.101-1.199-9.3c-2.601-6.601-9.5-10.7-16.5-10.7c-7.601,0-15.2-0.101-22.801,0	c0.2,21.2,0.101,42.399,0.101,63.5c3.5,0.1,6.899,0.1,10.399,0c-0.1-6.2,0-12.5,0-18.7c0-2.8-0.6-6,1.2-8.5c1.3,0.9,2.7,1.6,3.8,2.9	c6.2,7.199,10.301,15.899,15,24.1c4.4,0.4,8.801,0.3,13.301,0.1C1037.3,492.9,1034.3,488.2,1031.4,483.6z M1007.4,462.6	c-0.3-6.399-0.1-12.899-0.1-19.3c5,0.4,10.7-1.2,15,2.101c2.3,1.399,2.399,4.3,3.3,6.6c-1,3.3-1.5,7.1-4.7,9	C1016.8,463.3,1011.8,462.3,1007.4,462.6z"/><path fill="#303282" d="M302.4,479.9C297.5,464.5,292.7,449,287.7,433.6c-4.301,0-8.5-0.1-12.7,0.101c-2.4,7.5-5.101,14.8-7,22.399	c-0.3,0.2-0.8,0.7-1.101,0.9c-0.199,3.6-2,6.8-2.899,10.3c-3.101,10.101-6.9,20.101-9.8,30.4c3.899-0.3,8.399,1.1,11.8-0.8	c1.2-5.2,3.399-10.2,4.5-15.5c6.899-0.101,13.7-0.101,20.6,0.1c1.5,5.3,3.5,10.4,4.5,15.9c4,0.8,8.2,0.199,12.3,0.3	C306.6,491.6,304,485.9,302.4,479.9z M274.1,471.7c0.9-8.4,5.3-16.2,5.8-24.8c0.301-0.101,0.9-0.301,1.2-0.5	c0.4,2.3,2.2,4.1,2.2,6.6c1.1,6.3,3.5,12.4,4.6,18.8C283.3,471.7,278.7,471.8,274.1,471.7z"/><path fill="#303282" d="M511.8,483.9c-5.2-15.801-10.101-31.801-15.101-47.601c-0.399-1-0.5-2.8-1.899-2.7c-3.7-0.1-7.5,0-11.2,0	c-2.5,5.101-3.8,10.801-5.5,16.2c-5.7,15.9-10.6,31.9-16,47.9c4,0,8.1,0.399,12.1-0.3c0.9-5.5,3.301-10.601,4.4-16	c6.9-0.101,13.8-0.101,20.8,0.1c0.8,5.4,3.2,10.5,4.4,15.9c4,0.699,8.1,0.3,12.1,0.3C515.1,493,513,488.5,511.8,483.9z M495.5,472.3	c-4.7,0-9.4-0.2-14.101,0.101C483.5,463.9,487,455.7,488,447c0.3-0.2,0.899-0.5,1.199-0.6c3,8,4.101,16.699,7.2,24.699	C496.199,471.4,495.699,472,495.5,472.3z"/><path fill="#303282" d="M863.3,433.6c-4.2,0-8.4,0-12.5,0c-5.601,15-10,30.301-15.2,45.4c-1.7,6.5-4.6,12.7-6,19.2	c3.8-0.7,7.7-0.5,11.5-0.101c1.2-5.6,3.9-10.8,4.7-16.5c6.8-0.5,13.8-0.1,20.7-0.199c1.5,5.6,3.199,11.3,5.3,16.8	c3.8-0.601,7.7-0.7,11.399,0c0.101-0.5,0.101-1.5,0.101-2C876.4,475.5,870,454.5,863.3,433.6z M848.8,472.2	c-0.4-2,1.399-3.4,1.6-5.2c1.4-7.1,4.7-13.7,5.3-20.9c3.2,3.301,2.601,8.101,4.4,12.101c0.6,4.8,3.4,9.2,3.4,14.1	C858.6,472.1,853.699,472.3,848.8,472.2z"/><path fill="#303282" d="M1142,433.8c-4.2-0.399-8.4-0.2-12.601-0.2c-3.1,6.5-4.7,13.7-7,20.5c-2.6,7.601-5,15.301-7.5,22.9	c-2,7.1-5.6,13.9-6.5,21.3c3.3-1,6.601-0.399,9.9-0.3c3-0.6,1.8-4.3,3.1-6.3c1.2-2.2,0.5-5.2,2.7-6.7c0.1-1.2,0.1-2.4,0.3-3.6	c6.9,0,13.9-0.101,20.9,0.1c0.5,5.3,3.399,10,3.8,15.4c3.8,1.899,8.6,0.399,12.8,0.8C1155.699,476.3,1148.1,455.2,1142,433.8z M1127.4,472.4c1.601-8.7,5.5-16.7,6.5-25.4c0.4-0.2,1-0.4,1.3-0.6c0.101,2.399,2,4.199,2.101,6.5	c0.7,6.699,4.399,12.699,4.399,19.5C1136.9,472.2,1132.199,472.2,1127.4,472.4z"/><path fill="#303282" d="M1429.5,488.1c-5.801-18.1-11.7-36.3-17.301-54.5c-4.3,0-8.5-0.1-12.8,0.101	c-7.2,21.2-13.8,42.7-21.2,63.899c4,0.2,8.101,0.4,12.101-0.1c1-5.5,3.6-10.5,4.399-16c6.9-0.3,13.801-0.1,20.7-0.1	c1.2,5.399,3.601,10.399,4.4,15.899c4.3,0.9,8.6,0.4,12.899,0.3C1431.5,494.5,1430.3,491.4,1429.5,488.1z M1398,471.6	c2.399-8.5,5.199-17,7-25.699c3.8,8.1,4.3,17.399,7.699,25.699C1407.8,471.8,1402.9,471.8,1398,471.6z"/><path fill="#303282" d="M1279.3,433.6c-4,0.101-7.9-0.199-11.9,0.101c-1.8,1-1.8,3.3-2.5,5c-6.6,19.5-12.5,39.3-19.5,58.7	c3.9,0.699,8,0.399,12,0.1c1.101-5.4,3.5-10.5,4.4-15.9c6.899-0.5,13.8-0.1,20.6-0.3c1.5,5.3,3.5,10.4,4.5,15.7	c4,1.6,8.601,0.4,12.8,0.7C1292.699,476.4,1286.1,455,1279.3,433.6z M1265.1,471.7c2.4-8.2,5-16.3,6.7-24.7l1.3,0.6	c2.2,8,4,16.101,6.7,24C1274.9,471.8,1270,471.8,1265.1,471.7z"/><path fill="#303282" d="M1556.199,486c4.2-2.6,11.601,0.3,10.5,6c1.2,7.1-10.1,9.3-13,3.4C1553.199,492.2,1552.6,487.8,1556.199,486	z"/></svg>