<?xml version="1.0" encoding="utf-8"?>
<!-- Generator: Adobe Illustrator 16.0.4, SVG Export Plug-In . SVG Version: 6.00 Build 0)  -->
<!DOCTYPE svg PUBLIC "-//W3C//DTD SVG 1.1//EN" "http://www.w3.org/Graphics/SVG/1.1/DTD/svg11.dtd">
<svg version="1.1" id="Layer_1" xmlns:sketch="http://www.bohemiancoding.com/sketch/ns"
	 xmlns="http://www.w3.org/2000/svg" xmlns:xlink="http://www.w3.org/1999/xlink" x="0px" y="0px" width="2000px" height="535.5px"
	 viewBox="0 0 2000 535.5" enable-background="new 0 0 2000 535.5" xml:space="preserve">
<title>vectorial</title>
<description>Created with Sketch (http://www.bohemiancoding.com/sketch)</description>
<g id="Page-1" sketch:type="MSPage">
	<g id="Group" sketch:type="MSLayerGroup">
		<path id="Fill-3" sketch:type="MSShapeGroup" fill="#0096E5" d="M602.392,203.902c1.691-9.764,2.742-19.754,2.742-29.998
			C605.134,77.855,527.513,0,431.742,0c-68.336,0-127.265,39.762-155.507,97.393c-18.23-8.337-38.417-13.103-59.755-13.103
			c-79.73,0-144.36,64.833-144.36,144.804c0,13.77,2.037,27.045,5.613,39.662C32.588,283.869,0,326.534,0,376.917
			c0,16.791,3.713,32.705,10.216,47.066l199.553-200.187l-33.542-32.414l125.412-19.308l-19.569,121.611l-31.871-30.806
			L45.602,468.093C64.606,482.406,88.149,491,113.745,491h36.212l311.277-312.241l-33.546-32.423l125.416-19.3l-19.562,121.615
			l-31.878-30.814L229.342,491h130.865l154.111-154.601l-33.538-32.406l125.408-19.308l-19.569,121.607l-31.871-30.806L439.592,491
			h136.526c79.742,0,144.36-64.833,144.36-144.796C720.479,275.242,669.548,216.305,602.392,203.902"/>
		<path id="Fill-28" sketch:type="MSShapeGroup" fill="#0096E5" d="M785.377,305.108h-28.572v-43.866h29.871v-60.378h53.684v60.378
			h50.213v43.866h-50.213v89.47c0,36.483,28.567,41.691,43.723,41.691c6.061,0,9.957-0.865,9.957-0.865v48.214
			c0,0-6.926,1.295-16.887,1.295c-30.732,0-91.775-9.12-91.775-83.39V305.108z"/>
		<path id="Fill-30" sketch:type="MSShapeGroup" fill="#0096E5" d="M938.945,318.318c0-6.525-3.455-9.573-9.492-9.573h-17.251
			v-47.014h52.184c20.269,0,28.895,9.142,28.895,29.158v102.304c0,26.993,6.896,45.277,34.069,45.277
			c39.681,0,61.675-35.261,61.675-74.879v-101.86h54.767v165.855c0,6.095,3.446,9.573,9.5,9.573h17.234v46.583h-50.446
			c-18.983,0-28.902-9.142-28.902-24.813v-6.094c0-5.229,0.436-10.013,0.436-10.013h-0.854
			c-10.358,23.072-37.968,46.147-75.919,46.147c-46.999,0-75.894-23.95-75.894-84.455V318.318z"/>
		<path id="Fill-32" sketch:type="MSShapeGroup" fill="#0096E5" d="M1209.19,305.108h-28.574v-43.866h29.873v-60.378h53.675v60.378
			h50.211v43.866h-50.211v89.47c0,36.483,28.574,41.691,43.729,41.691c6.061,0,9.956-0.865,9.956-0.865v48.214
			c0,0-6.934,1.295-16.891,1.295c-30.734,0-91.769-9.12-91.769-83.39V305.108z"/>
		<path id="Fill-34" sketch:type="MSShapeGroup" fill="#0096E5" d="M1368.803,318.318c0-6.525-3.446-9.573-9.484-9.573h-17.25
			v-47.014h52.175c20.277,0,28.886,9.142,28.886,29.158v102.304c0,26.993,6.913,45.277,34.086,45.277
			c39.665,0,61.659-35.261,61.659-74.879v-101.86h54.782v165.855c0,6.095,3.446,9.573,9.484,9.573h17.25v46.583h-50.462
			c-18.968,0-28.887-9.142-28.887-24.813v-6.094c0-5.229,0.42-10.013,0.42-10.013h-0.854
			c-10.358,23.072-37.951,46.147-75.902,46.147c-47.017,0-75.902-23.95-75.902-84.455V318.318z"/>
		<path id="Fill-36" sketch:type="MSShapeGroup" fill="#0096E5" d="M1637.221,319.489c0-6.526-3.446-9.573-9.485-9.573h-17.254
			v-47.014h50.468c19.41,0,28.896,9.142,28.896,24.813v6.526c0,4.789-0.424,9.573-0.424,9.573h0.858
			c10.345-21.758,36.665-46.139,71.173-46.139c33.218,0,54.777,15.675,64.263,45.708h0.874
			c11.639-23.942,40.111-45.708,75.059-45.708c45.711,0,72.031,26.123,72.031,84.455v86.629c0,6.094,3.447,9.572,9.485,9.572h16.819
			v46.583h-51.75c-20.717,0-29.348-8.706-29.348-29.602V352.577c0-25.249-4.741-44.41-30.187-44.41
			c-27.179,0-46.585,23.076-52.624,50.936c-2.588,8.706-3.447,17.848-3.447,28.304v97.507h-54.793V352.577
			c0-23.946-3.446-44.41-29.751-44.41c-27.614,0-46.166,23.076-53.06,51.372c-2.152,8.706-3.451,17.852-3.451,27.868v97.507h-54.354
			V319.489z"/>
	</g>
</g>
</svg>
