<?xml version="1.0" encoding="utf-8"?>
<!-- Generator: Adobe Illustrator 18.1.1, SVG Export Plug-In . SVG Version: 6.00 Build 0)  -->
<svg version="1.1" id="Layer_1" xmlns="http://www.w3.org/2000/svg" xmlns:xlink="http://www.w3.org/1999/xlink" x="0px" y="0px"
	 viewBox="485 224 791.9 326" enable-background="new 485 224 791.9 326" xml:space="preserve">
<g>
	<g>
		<path d="M1236.3,264.7h-49.8V224h-86l-40.7,40.7h-45.3l-22.6,22.6v-22.6h-40.7V224H797.3v40.7H611.7L571,224h-86v181l40.7,40.7
			l67.9,40.7h58.8v-9.1l22.6,9.1h109.7l19.4-22.6l2.5,22.6h71.8l1.5-22.6l25.9,22.6h63.4l4.5-22.6l22.6,22.6h72.4l22.6-22.6v22.6
			h40.7l31.7-22.6v22.6h45.3l67.9-45.3V305.5L1236.3,264.7z M593.6,332.6h-40.7v45.3h40.7v49.8h-58.8L503.1,396V242.1h49.8v40.7
			h40.7C593.6,282.8,593.6,332.6,593.6,332.6z M797.3,396l-31.7,31.7H611.7V282.8h49.8v95h18.1v-95h49.8v95h18.1v-95h49.8V396z
			 M865.2,427.7h-49.8V282.8h49.8V427.7z M865.2,264.7h-49.8v-22.6h49.8V264.7z M973.8,332.6H933v45.3h40.7v49.8h-58.8L883.3,396
			V242.1H933v40.7h40.7L973.8,332.6L973.8,332.6z M1100.5,332.6h-58.8v45.3h58.8v49.8h-76.9L991.9,396v-81.5l31.7-31.7h76.9V332.6z
			 M1258.9,427.7h-49.8v-95h-40.7v95h-49.8V242.1h49.8v40.7h58.8l31.7,31.7V427.7z"/>
	</g>
	<g>
		<path d="M882.2,522h6.6l4,17.3l4-17.3h5.6l4,17.3l4.1-17.3h6.5l-7.2,27.5h-6.4l-3.9-16.7l-3.9,16.7h-6.4L882.2,522z"/>
		<path d="M920,522h6.6l4,17.3l4-17.3h5.6l4,17.3l4.1-17.3h6.5l-7.2,27.5h-6.4l-3.9-16.7l-3.9,16.7H927L920,522z"/>
		<path d="M957.9,522h6.6l4,17.3l4-17.3h5.6l4,17.3l4.1-17.3h6.5l-7.2,27.5h-6.4l-3.9-16.7l-3.9,16.7H965L957.9,522z"/>
		<path d="M998.7,549.9c-2.2,0-3.9-1.7-3.9-3.9c0-2.2,1.7-3.9,3.9-3.9s3.9,1.8,3.9,3.9C1002.6,548.2,1000.8,549.9,998.7,549.9z"/>
		<path d="M1008.3,522.5c3.6,0,4.8-1.5,4.8-6.1h4.3v5.6h5v5.6h-5v11.8c0,3.1,0.5,4.7,3.6,4.7c0.4,0,1,0,1.6-0.1v5.7
			c-0.8,0.1-1.6,0.1-2.3,0.1c-7.4,0-9.2-3.9-9.2-10.6v-11.7h-2.6C1008.3,525.9,1008.3,524.2,1008.3,522.5z"/>
		<path d="M1027.1,522h6.6l4,17.3l4-17.3h5.6l4,17.3l4.1-17.3h6.5l-7.2,27.5h-6.4l-3.9-16.7l-3.9,16.7h-6.4L1027.1,522z"/>
		<path d="M1070.7,518.6c-2.2,0-3.9-1.7-3.9-3.9c0-2.2,1.7-3.9,3.9-3.9c2.2,0,3.9,1.8,3.9,3.9
			C1074.6,516.9,1072.9,518.6,1070.7,518.6z M1073.9,549.5h-6.4V522h6.4V549.5z"/>
		<path d="M1080.6,522.5c3.6,0,4.8-1.5,4.8-6.1h4.3v5.6h5v5.6h-5v11.8c0,3.1,0.5,4.7,3.6,4.7c0.4,0,1,0,1.6-0.1v5.7
			c-0.8,0.1-1.6,0.1-2.3,0.1c-7.4,0-9.2-3.9-9.2-10.6v-11.7h-2.6C1080.6,525.9,1080.6,524.2,1080.6,522.5z"/>
		<path d="M1120.9,538.8c0,7-3.5,11.2-10.3,11.2c-6.6,0-10.3-4.2-10.3-10.8v-6.7c0-6.7,3.8-10.9,10.3-10.9c6.8,0,10.3,4.2,10.3,11.3
			h-6.4c0-3.9-1.5-5.5-3.9-5.5s-4,1.3-4,4.8v6.5c0,3.6,1.3,5.5,4,5.5c2.3,0,3.9-1.7,3.9-5.4H1120.9z"/>
		<path d="M1134.2,549.5h-6.4v-37h6.4v12.1c0,0,2-3,6.3-3c4.5,0,8,2.5,8,9.9v18h-6.4V534c0-4.6-0.7-6.6-4-6.6
			c-2.7,0-3.9,1.4-3.9,4.9L1134.2,549.5L1134.2,549.5z"/>
		<path d="M1159,549.9c-2.2,0-3.9-1.7-3.9-3.9c0-2.2,1.7-3.9,3.9-3.9c2.2,0,3.9,1.8,3.9,3.9C1162.9,548.2,1161.2,549.9,1159,549.9z"
			/>
		<path d="M1168.6,522.5c3.6,0,4.8-1.5,4.8-6.1h4.3v5.6h5v5.6h-5v11.8c0,3.1,0.5,4.7,3.6,4.7c0.4,0,1,0,1.6-0.1v5.7
			c-0.8,0.1-1.6,0.1-2.3,0.1c-7.4,0-9.2-3.9-9.2-10.6v-11.7h-2.6C1168.7,525.9,1168.6,524.2,1168.6,522.5z"/>
		<path d="M1187.4,522h6.9l4.8,18.2l4.8-18.2h6.9l-8.2,27.5h-6.8L1187.4,522z"/>
	</g>
</g>
</svg>
