<?xml version="1.0" encoding="UTF-8" standalone="no"?>
<svg width="2410px" height="504px" viewBox="0 0 2410 504" version="1.1" xmlns="http://www.w3.org/2000/svg" xmlns:xlink="http://www.w3.org/1999/xlink" xmlns:sketch="http://www.bohemiancoding.com/sketch/ns">
    <!-- Generator: Sketch 3.5.1 (25234) - http://www.bohemiancoding.com/sketch -->
    <title>logo</title>
    <desc>Created with Sketch.</desc>
    <defs></defs>
    <g id="Page-1" stroke="none" stroke-width="1" fill="none" fill-rule="evenodd" sketch:type="MSPage">
        <g id="logo" sketch:type="MSLayerGroup" transform="translate(0.000000, -6.000000)">
            <g id="icomoon-ignore"></g>
            <path d="M378.88,18.432 L378.88,295.936 C378.88,388.608 337.92,427.008 241.664,427.008 C145.92,427.008 104.96,388.608 104.96,295.936 L104.96,6.656 L12.288,6.656 C4.096,6.656 1.0658141e-14,10.24 1.0658141e-14,18.432 L1.0658141e-14,300.544 C1.0658141e-14,455.168 98.816,509.44 241.664,509.44 C385.024,509.44 483.84,455.168 483.84,300.544 L483.84,6.656 L391.168,6.656 C382.976,6.656 378.88,10.24 378.88,18.432 L378.88,18.432 Z M1721.344,87.04 C1729.024,87.04 1732.608,84.48 1735.168,78.848 L1761.792,12.288 C1763.328,8.704 1761.792,6.656 1757.696,6.656 L1384.96,6.656 C1350.144,6.656 1336.832,16.896 1336.832,40.96 L1336.832,471.552 C1336.832,491.52 1347.072,500.736 1373.696,500.736 L1721.344,500.736 C1729.024,500.736 1732.608,498.176 1735.168,492.544 L1761.792,426.496 C1763.328,422.4 1761.792,420.352 1757.696,420.352 L1440.256,420.352 L1440.256,332.8 C1440.256,302.592 1456.64,288.768 1501.696,288.768 L1639.424,288.768 C1647.104,288.768 1650.688,286.208 1653.248,280.576 L1678.848,217.088 C1680.384,212.992 1678.848,210.944 1674.752,210.944 L1440.256,210.944 L1440.256,87.04 L1721.344,87.04 L1721.344,87.04 Z M1064.96,240.128 C1105.408,219.136 1122.304,179.2 1122.304,132.096 C1122.304,22.528 1033.216,6.656 941.056,6.656 L730.624,6.656 C695.296,6.656 682.496,16.896 682.496,40.96 L682.496,471.552 C682.496,491.52 692.224,500.736 719.36,500.736 L978.432,500.736 C1076.224,500.736 1145.856,462.848 1145.856,364.032 C1145.856,305.152 1120.768,254.976 1064.96,240.128 L1064.96,240.128 Z M784.384,84.992 L948.736,84.992 C1003.008,84.992 1018.368,105.472 1018.368,148.48 C1018.368,191.488 1003.008,212.48 948.736,212.48 L784.384,212.48 L784.384,84.992 L784.384,84.992 Z M967.68,422.4 L784.384,422.4 L784.384,330.752 C784.384,300.544 801.28,286.72 846.336,286.72 L967.68,286.72 C1026.048,286.72 1041.92,309.248 1041.92,354.816 C1041.92,399.872 1026.048,422.4 967.68,422.4 L967.68,422.4 Z M2408.448,492.032 L2297.344,302.08 C2352.64,287.744 2397.184,251.392 2397.184,158.72 C2397.184,38.912 2322.944,6.656 2199.552,6.656 L1988.096,6.656 C1953.28,6.656 1939.968,16.896 1939.968,40.96 L1939.968,488.96 C1939.968,496.64 1944.064,500.736 1952.256,500.736 L2042.368,500.736 L2042.368,356.352 C2042.368,326.144 2059.264,312.32 2104.32,312.32 L2195.968,312.32 L2295.808,492.544 C2298.88,497.664 2301.952,500.736 2309.632,500.736 L2403.84,500.736 C2410.496,500.736 2410.496,495.104 2408.448,492.032 L2408.448,492.032 Z M2214.912,235.52 L2042.368,235.52 L2042.368,86.016 L2214.912,86.016 C2279.424,86.016 2293.248,110.592 2293.248,160.768 C2293.248,211.456 2279.424,235.52 2214.912,235.52 L2214.912,235.52 Z" id="Shape" fill="#FFFFFF" sketch:type="MSShapeGroup"></path>
        </g>
    </g>
</svg>