<?xml version="1.0" encoding="iso-8859-1"?><!-- Generator: Adobe Illustrator 16.0.0, SVG Export Plug-In . SVG Version: 6.00 Build 0) --><!DOCTYPE svg PUBLIC "-//W3C//DTD SVG 1.1//EN" "http://www.w3.org/Graphics/SVG/1.1/DTD/svg11.dtd"><svg version="1.1" id="Layer_1" xmlns:svg="http://www.w3.org/2000/svg" xmlns="http://www.w3.org/2000/svg" xmlns:xlink="http://www.w3.org/1999/xlink" x="0px" y="0px" width="572.441px" height="150.913px" viewBox="10 4.544 572.441 150.913" style="enable-background:new 10 4.544 572.441 150.913;" xml:space="preserve"><g id="circle"><circle id="orange-circle" style="fill:#FF6309;" cx="24.681" cy="80.012" r="14.681"/><circle id="yellow-circle" style="fill:#FFB515;" cx="129.953" cy="140.775" r="14.682"/><circle id="red-circle" style="fill:#C90016;" cx="129.94" cy="19.225" r="14.681"/><path id="orange-arm" style="fill:#FF6309;" d="M94.86,43.684c18.281,0,33.448,13.574,35.96,31.172h25.152	c-1.144-13.828-6.875-26.717-16.461-36.881c-6.139,3.126-13.688,3.186-20.1-0.515c-6.417-3.706-10.14-10.277-10.497-17.164	c-4.556-1.062-9.262-1.612-14.056-1.612c-9.178,0-18.047,2.003-26.113,5.802l12.595,21.811	C85.521,44.614,90.085,43.684,94.86,43.684L94.86,43.684z"/><path id="yellow-arm" style="fill:#FFB515;" d="M58.534,80.012c0-11.574,5.44-21.899,13.896-28.556l-12.59-21.808	c-2.952,2.062-5.746,4.397-8.349,6.998c-7.286,7.286-12.511,16.083-15.386,25.684c5.793,3.752,9.629,10.266,9.629,17.682	c0,7.414-3.836,13.929-9.629,17.68c2.875,9.601,8.1,18.397,15.386,25.685c2.602,2.601,5.392,4.933,8.342,6.996l12.592-21.811	C63.971,101.906,58.534,91.582,58.534,80.012z"/><path id="red-arm" style="fill:#C90016;" d="M130.821,85.151c-2.505,17.604-17.675,31.187-35.961,31.187	c-4.778,0-9.344-0.93-13.525-2.615l-12.594,21.812c8.064,3.801,16.938,5.805,26.118,5.805c4.796,0,9.509-0.553,14.066-1.614	c0.351-6.896,4.074-13.479,10.496-17.187c6.414-3.703,13.966-3.645,20.105-0.512c9.577-10.166,15.304-23.053,16.443-36.876H130.821	L130.821,85.151z"/></g><path id="u" d="M247.489,79.772V51.515c0-4.281-3.426-7.707-7.707-7.707s-7.706,3.425-7.706,7.707v28.257	c0,10.274-4.282,13.701-11.988,13.701c-7.705,0-11.987-3.427-11.987-13.701V51.515c0-4.281-3.425-7.707-7.706-7.707	s-7.707,3.425-7.707,7.707v28.257c0,20.55,11.988,29.113,27.4,29.113C235.501,108.885,247.489,100.322,247.489,79.772"/><path id="b" d="M319.416,79.772c0-29.113-11.986-35.964-27.399-35.964c-7.707,0-11.988,3.425-11.988,3.425V27.539	c0-10.275-15.413-10.275-15.413,0v52.233c0,20.55,11.988,29.113,27.401,29.113S319.416,100.322,319.416,79.772 M280.027,78.059	c0-17.981,8.562-19.694,11.988-19.694c5.138,0,11.986,4.282,11.986,19.694c0,10.274-4.28,17.126-11.986,17.126	C284.308,95.186,280.027,88.333,280.027,78.059"/><path id="u_1_" d="M582.441,79.772V51.515c0-4.281-3.426-7.707-7.707-7.707s-7.706,3.425-7.706,7.707v28.257	c0,10.274-4.281,13.701-11.987,13.701c-7.707,0-11.987-3.427-11.987-13.701V51.515c0-4.281-3.427-7.707-7.707-7.707	c-4.281,0-7.706,3.425-7.706,7.707v28.257c0,20.55,11.986,29.113,27.4,29.113C570.453,108.885,582.441,100.322,582.441,79.772"/><path id="u_2_" d="M387.823,79.773V51.516c0-4.281-3.426-7.706-7.707-7.706s-7.706,3.425-7.706,7.706v28.257	c0,10.274-4.281,13.699-11.988,13.699c-7.705,0-11.987-3.425-11.987-13.699V51.516c0-4.281-3.425-7.706-7.706-7.706	s-7.706,3.425-7.706,7.706v28.257c0,20.55,11.987,29.112,27.399,29.112C375.835,108.885,387.823,100.323,387.823,79.773"/><path id="t" d="M478.268,43.808c-9.419,0-9.419,13.701,0,13.701h2.569v29.798c0,16.271,4.023,21.578,17.896,21.578	c6.679,0,16.439-1.198,16.439-8.05c0-4.28-3.938-5.395-5.052-5.395c-2.397,0-4.882,1.027-7.621,1.027	c-4.795,0-6.251-2.396-6.251-10.445V57.509h6.851c9.419,0,9.419-13.701,0-13.701h-6.851V27.539c0-10.275-15.412-10.275-15.412,0	v16.269H478.268"/><path id="u_3_" d="M403.766,72.921v28.257c0,4.281,3.425,7.707,7.706,7.707c4.28,0,7.706-3.425,7.706-7.707V72.921	c0-10.274,4.281-13.701,11.987-13.701c7.707,0,11.988,3.427,11.988,13.701v28.257c0,4.281,3.425,7.707,7.706,7.707	s7.706-3.425,7.706-7.707V72.921c0-20.55-11.987-29.113-27.4-29.113S403.766,52.372,403.766,72.921"/></svg>