<?xml version="1.0" encoding="iso-8859-1"?><!-- Generator: Adobe Illustrator 16.0.0, SVG Export Plug-In . SVG Version: 6.00 Build 0) --><!DOCTYPE svg PUBLIC "-//W3C//DTD SVG 1.1//EN" "http://www.w3.org/Graphics/SVG/1.1/DTD/svg11.dtd"><svg version="1.1" id="Layer_1" xmlns="http://www.w3.org/2000/svg" xmlns:xlink="http://www.w3.org/1999/xlink" x="0px" y="0px" width="192.756px" height="192.756px" viewBox="0 0 192.756 192.756" style="enable-background:new 0 0 192.756 192.756;" xml:space="preserve"><g><polygon style="fill-rule:evenodd;clip-rule:evenodd;fill:#FFFFFF;" points="0,0 192.756,0 192.756,192.756 0,192.756 0,0	"/><polygon style="fill-rule:evenodd;clip-rule:evenodd;fill:#929496;" points="8.504,109.533 8.504,110.92 90.64,110.92	90.328,109.533 8.504,109.533	"/><polygon style="fill-rule:evenodd;clip-rule:evenodd;fill:#929496;" points="181.186,109.533 98.395,109.533 98.693,110.92	181.186,110.92 181.186,109.533	"/><path style="fill-rule:evenodd;clip-rule:evenodd;" d="M136.844,101.717l-4.51-18.861c-0.584-2.803-2.225-3.316-4.201-3.287h-4.01	l-4.039,7.183v-7.183h-7.582v20.55h-7.881v-20.55h-7.733v23.445l-2.201-9.783c-0.613-2.803-2.195-3.287-4.143-3.287h-7.173	l-3.302,5.865v-8.858h12.081l4.141-7.382H76.15c-2.236,0-4.197,1.267-4.053,4.197v19.771c-0.019,2.658,1.903,4.023,3.966,3.965	h8.903l3.485-6.289l1.876,8.32l0.312,1.387l0.512,2.27h8.032l-0.49-2.27l-0.299-1.387l-0.76-3.525	c0.682,0.908,1.766,1.596,3.451,1.494h7.525l3.891-6.982v3.018c-0.045,2.596,1.932,4.066,3.965,3.965h16.586	C137.643,107.502,137.293,103.711,136.844,101.717L136.844,101.717z"/><path style="fill-rule:evenodd;clip-rule:evenodd;" d="M166.381,107.502c-3.133,0.102-4.211-1.961-4.197-4.197V83.766	c-0.174-2.583,1.527-4.255,4.197-4.197h14.359v7.382h-10.975v9.428l3.891-6.435h7.084v7.382h-10.975v2.793h12.221l-4.439,7.383	H166.381L166.381,107.502z"/><path style="fill-rule:evenodd;clip-rule:evenodd;" d="M44.862,86.951H49.6l4.739,20.551h7.881l-5.636-24.791	c-0.599-2.644-2.195-3.143-3.941-3.143h-4.24l-3.561,6.273l0.02-6.273H37.28v20.55h-7.183v-20.55h-7.981v23.968	c0.038,3.025,2.23,4.061,4.197,3.965h18.549V86.951L44.862,86.951z"/><polygon style="fill-rule:evenodd;clip-rule:evenodd;fill:#FFFFFF;" points="88.157,100.131 87.511,97.326 80.069,97.326	80.069,100.131 88.157,100.131	"/><path style="fill-rule:evenodd;clip-rule:evenodd;" d="M160.188,90.368c0.059,1.352-0.492,2.357-1.275,3.042	c0.971,0.814,1.32,1.832,1.275,2.895v7c0.102,2.121-1.15,4.27-4.195,4.197h-17.951V79.569h7.582v6.085l3.635-6.085h6.734	c3.145-0.058,4.254,2.192,4.195,4.197V90.368L160.188,90.368z"/><path style="fill-rule:evenodd;clip-rule:evenodd;" d="M182.424,103.734c1.012,0,1.828,0.816,1.828,1.828	c0,1.014-0.816,1.83-1.828,1.83s-1.83-0.816-1.83-1.83C180.594,104.551,181.412,103.734,182.424,103.734L182.424,103.734z"/><polygon style="fill-rule:evenodd;clip-rule:evenodd;" points="70.102,107.502 70.102,79.569 62.52,79.569 62.52,107.502	70.102,107.502	"/><polygon style="fill-rule:evenodd;clip-rule:evenodd;fill:#FFFFFF;" points="120.084,100.119 128.463,100.119 125.32,86.951	120.084,86.951 120.084,100.119	"/><polygon style="fill-rule:evenodd;clip-rule:evenodd;fill:#FFFFFF;" points="152.756,89.944 152.756,86.951 145.623,86.951	145.623,89.944 152.756,89.944	"/><polygon style="fill-rule:evenodd;clip-rule:evenodd;fill:#FFFFFF;" points="152.756,100.119 152.756,97.127 145.623,97.127	145.623,100.119 152.756,100.119	"/><path style="fill-rule:evenodd;clip-rule:evenodd;fill:#FFFFFF;" d="M182.428,103.896c-0.943,0-1.648,0.723-1.648,1.666	c0,0.926,0.715,1.668,1.648,1.668s1.639-0.748,1.639-1.672C184.066,104.625,183.367,103.896,182.428,103.896L182.428,103.896z"/><path style="fill-rule:evenodd;clip-rule:evenodd;" d="M181.943,105.646h0.562l0.65,0.998h0.205l-0.645-0.994	c0.309-0.049,0.557-0.219,0.557-0.572c0-0.391-0.215-0.596-0.703-0.596h-0.812v2.162h0.186V105.646L181.943,105.646z"/><path style="fill-rule:evenodd;clip-rule:evenodd;fill:#FFFFFF;" d="M181.943,104.645h0.598c0.258,0,0.547,0.098,0.547,0.43	c0,0.377-0.357,0.41-0.684,0.41h-0.461V104.645L181.943,104.645z"/></g></svg>