<?xml version="1.0" encoding="UTF-8"?>
<svg width="344pt" version="1.1" xmlns="http://www.w3.org/2000/svg" height="185.6pt" viewBox="0 0 344 185.6" xmlns:xlink="http://www.w3.org/1999/xlink">
 <defs>
  <clipPath id="Clip0">
   <path d="M0 0 L344 0 L344 185.547 L0 185.547 L0 0 Z" transform="translate(0, 0)"/>
  </clipPath>
  <clipPath id="Clip1">
   <path d="M0 0 L141.915 0 L141.915 109.635 L0 109.635 L0 0 Z" transform="translate(103.862, 26.3128)"/>
  </clipPath>
  <clipPath id="Clip2">
   <path d="M0 0 L279.013 0 L279.013 13.17 L0 13.17 L0 0 Z" transform="translate(29.796, 152.123)"/>
  </clipPath>
 </defs>
 <g id="Background">
  <g id="Layer_1" clip-path="url(#Clip0)">
   <path style="fill:#253481; fill-rule:evenodd;stroke:none;" d="M0 0 L344 0 L344 185.547 L0 185.547 L0 0 Z" transform="translate(0, 0)"/>
   <g id="Group177" clip-path="url(#Clip1)">
    <path style="fill:#ffffff; fill-rule:nonzero;stroke:none;" d="M45.5468 0 C20.3924 0 0 20.3929 0 45.5491 C0 70.7054 20.3919 91.0986 45.5468 91.0986 C70.7018 91.0986 91.0939 70.7059 91.0939 45.5485 C91.0934 20.3929 70.7018 0 45.5468 0 Z M45.5468 88.8737 C21.6209 88.8737 2.22466 69.4769 2.22466 45.5491 C2.22466 21.622 21.6214 2.22477 45.5468 2.22477 C69.4733 2.22477 88.8694 21.6225 88.8694 45.5491 C88.8694 69.4764 69.4733 88.8737 45.5468 88.8737 Z" transform="translate(129.272, 29.1445)"/>
    <path style="fill:none;stroke:#ffffff; stroke-width:1.17471; stroke-linecap:butt; stroke-linejoin:miter; stroke-dasharray:none;" d="M47.7912 95.5867 C21.3974 95.5867 0 74.1893 0 47.793 C0 21.3968 21.3974 0 47.7912 0 C74.1861 0 95.5823 21.3979 95.5823 47.793 C95.5823 74.1893 74.1855 95.5867 47.7912 95.5867 Z" transform="translate(127.029, 26.9)"/>
    <path style="fill:#ffffff; fill-rule:nonzero;stroke:none;" d="M30.066 11.0998 C34.3787 7.56234 39.2974 0.00054649 39.2974 0.00054649 C39.2974 0.00054649 37.7214 0.087439 35.6203 1.24272 C33.0049 2.68109 29.7506 5.25016 29.7506 5.25016 L30.0687 2.06848 C30.0687 2.06848 27.4779 4.1211 25.8238 6.83882 C24.1363 9.61007 23.3865 13.0469 23.3865 13.0469 C23.3865 13.0469 26.4932 14.029 30.066 11.0998 Z M21.887 21.405 C24.3347 19.1901 26.0915 16.0702 26.0915 16.0702 C26.0915 16.0702 24.597 16.8145 23.2045 17.0391 C22.192 17.2019 21.1597 16.8659 21.1597 16.8659 C21.1597 16.8659 20.6225 15.7461 20.7307 13.8367 C20.8586 11.5621 21.6367 8.43349 21.6367 8.43349 C21.6367 8.43349 18.7377 11.561 17.4842 15.322 C17.1317 16.3789 16.8688 17.4763 16.6694 18.5398 C15.9016 22.1182 16.0677 25.1381 16.0677 25.1381 C16.0677 25.1381 19.3252 23.7227 21.887 21.405 Z M17.3049 33.0628 C19.2913 30.8736 20.5225 27.5263 20.5225 27.5263 C20.5225 27.5263 18.8405 28.4652 17.1109 28.8647 C15.7951 29.168 14.3185 28.9586 14.3185 28.9586 C14.3185 28.9586 13.8556 27.5968 13.6709 25.648 C13.3425 22.175 13.5223 16.7068 13.5223 16.7068 C13.5223 16.7068 10.5293 22.1466 10.4058 27.0623 C10.2916 31.5982 12.7277 36.1171 12.7277 36.1171 C12.7277 36.1171 15.3956 35.1674 17.3049 33.0628 Z M11.6135 46.7782 C11.6135 46.7782 14.524 44.5829 16.0945 42.0209 C17.5415 39.6596 17.659 36.9129 17.659 36.9129 C17.659 36.9129 16.2562 37.6801 14.7628 38.2611 C13.3972 38.7917 11.9315 39.1403 11.9315 39.1403 C11.9315 39.1403 10.3069 37.3665 9.30902 35.0368 C7.79367 31.5004 6.68053 26.8891 6.68053 26.8891 C6.68053 26.8891 5.07229 33.0634 6.31551 38.0796 C7.53797 43.0074 11.6135 46.7782 11.6135 46.7782 Z M12.4091 58.8697 C12.4091 58.8697 14.4163 56.7539 15.4972 54.0886 C16.6415 51.2692 16.8634 47.8913 16.8634 47.8913 L12.2507 52.0278 C12.2507 52.0278 9.77189 50.3855 7.64231 47.5684 C4.72693 43.7096 1.90935 38.3447 1.90935 38.3447 C1.90935 38.3447 1.55415 46.7415 4.19958 51.9136 C6.8035 57.0038 12.4091 58.8697 12.4091 58.8697 Z M15.4316 70.0074 C15.4316 70.0074 17.2033 67.956 17.7601 65.3141 C18.4596 61.989 17.9776 57.9152 17.9776 57.9152 C17.9776 57.9152 17.1705 59.6031 16.1421 61.1464 C15.2759 62.4469 14.16 63.6431 14.16 63.6431 C14.16 63.6431 11.267 62.478 8.44181 59.8138 C4.46735 56.0641 0 49.9593 0 49.9593 C0 49.9593 0.412035 59.0639 4.19685 63.9138 C8.04725 68.8488 15.4316 70.0074 15.4316 70.0074 Z M21.6367 80.667 C21.6367 80.667 22.7144 77.7971 22.6767 74.6215 C22.6351 71.1288 21.4777 67.3017 21.4777 67.3017 L17.8181 74.3022 C17.8181 74.3022 14.3808 74.413 10.9484 72.6078 C6.74393 70.397 2.38642 66.1878 2.38642 66.1878 C2.38642 66.1878 5.23842 74.1456 10.1796 77.8615 C14.8562 81.3798 21.6367 80.667 21.6367 80.667 Z M29.114 89.8958 C29.114 89.8958 29.6212 86.6602 29.1419 83.7127 C28.5916 80.3276 27.0462 77.1673 27.0462 77.1673 C27.0462 77.1673 26.7533 79.479 26.0599 81.5588 C25.4932 83.2592 24.5002 84.8042 24.5002 84.8042 C24.5002 84.8042 22.539 85.0934 20.0394 84.873 C16.4535 84.5553 11.9315 83.6909 11.9315 83.6909 C11.9315 83.6909 14.3742 87.0706 18.7733 88.6592 C22.9603 90.1709 29.114 89.8958 29.114 89.8958 Z M32.6141 84.3267 L31.9781 92.4411 C31.9781 92.4411 30.1343 93.1669 27.6768 93.2679 C24.4368 93.401 20.3629 92.9186 20.3629 92.9186 C20.3629 92.9186 23.9265 95.9588 28.1735 96.9417 C32.5169 97.9475 37.546 96.8964 37.546 96.8964 C37.546 96.8964 38.0816 94.027 36.9476 91.2836 C35.6306 88.0944 32.6141 84.3267 32.6141 84.3267 Z M62.4486 101.043 C59.7299 99.5426 55.6832 98.646 55.6832 98.646 C55.6832 98.646 51.6071 97.9808 47.7409 96.8533 C43.9724 95.7531 40.41 94.1912 40.41 94.1912 C40.41 94.1912 41.2101 96.1826 40.78 97.5589 C40.421 98.7077 38.8193 99.2818 38.8193 99.2818 L42.3188 100.396 C42.3188 100.396 51.1557 100.653 56.3221 101.494 C60.906 102.239 61.8889 103.577 61.8889 103.577 C61.8889 103.577 61.3297 104.166 59.3607 104.483 C56.5498 104.937 52.3427 104.851 52.3427 104.851 L55.3643 107.715 C55.3643 107.715 58.6777 108.119 61.5389 107.29 C64.156 106.532 66.3429 104.532 66.3429 104.532 C66.3429 104.532 65.058 102.484 62.4486 101.043 Z M111.849 11.0998 C115.421 14.029 118.528 13.0469 118.528 13.0469 C118.528 13.0469 117.778 9.61007 116.091 6.83828 C114.437 4.1211 111.845 2.06793 111.845 2.06793 L112.163 5.24961 C112.163 5.24961 108.908 2.68 106.293 1.24218 C104.192 0.0863459 102.616 0 102.616 0 C102.616 0 107.535 7.56289 111.849 11.0998 Z M120.027 21.405 C122.589 23.7222 125.846 25.1392 125.846 25.1392 C125.846 25.1392 126.013 22.1226 125.246 18.5469 C125.047 17.4812 124.781 16.3806 124.43 15.3226 C123.175 11.561 120.277 8.43403 120.277 8.43403 C120.277 8.43403 121.054 11.5632 121.182 13.8378 C121.29 15.7477 120.754 16.867 120.754 16.867 C120.754 16.867 119.72 17.203 118.709 17.0402 C117.317 16.815 115.822 16.0713 115.822 16.0713 C115.822 16.0713 117.579 19.1906 120.027 21.405 Z M121.391 27.5263 C121.391 27.5263 122.622 30.8736 124.609 33.0628 C126.519 35.1684 129.187 36.1177 129.187 36.1177 C129.187 36.1177 131.623 31.5982 131.509 27.0629 C131.384 22.1471 128.392 16.7074 128.392 16.7074 C128.392 16.7074 128.571 22.1756 128.243 25.6485 C128.059 27.5968 127.596 28.9586 127.596 28.9586 C127.596 28.9586 126.119 29.1685 124.803 28.8647 C123.073 28.4652 121.391 27.5263 121.391 27.5263 Z M127.151 38.2611 C125.659 37.6801 124.254 36.9129 124.254 36.9129 C124.254 36.9129 124.372 39.6585 125.819 42.0209 C127.39 44.5829 130.3 46.7782 130.3 46.7782 C130.3 46.7782 134.375 43.0074 135.596 38.0796 C136.839 33.0634 135.231 26.8891 135.231 26.8891 C135.231 26.8891 134.119 31.5004 132.603 35.0362 C131.604 37.3665 129.981 39.1403 129.981 39.1403 C129.981 39.1403 128.517 38.7917 127.151 38.2611 Z M129.664 52.0289 L125.051 47.893 C125.051 47.893 125.272 51.2709 126.417 54.0897 C127.498 56.7555 129.505 58.8713 129.505 58.8713 C129.505 58.8713 135.111 57.0049 137.714 51.9152 C140.36 46.7432 140.005 38.3463 140.005 38.3463 C140.005 38.3463 137.187 43.7118 134.271 47.57 C132.142 50.3861 129.664 52.0289 129.664 52.0289 Z M133.473 59.8143 C130.647 62.4791 127.755 63.6442 127.755 63.6442 C127.755 63.6442 126.638 62.4474 125.772 61.1475 C124.743 59.6048 123.936 57.9163 123.936 57.9163 C123.936 57.9163 123.453 61.9896 124.154 65.3152 C124.71 67.9571 126.482 70.0085 126.482 70.0085 C126.482 70.0085 133.867 68.8494 137.718 63.9149 C141.504 59.0656 141.915 49.9609 141.915 49.9609 C141.915 49.9609 137.448 56.0646 133.473 59.8143 Z M124.095 74.3028 L120.436 67.3022 C120.436 67.3022 119.28 71.1288 119.238 74.622 C119.2 77.7971 120.277 80.6676 120.277 80.6676 C120.277 80.6676 127.058 81.3803 131.735 77.8626 C136.677 74.1462 139.529 66.1889 139.529 66.1889 C139.529 66.1889 135.17 70.3981 130.967 72.6089 C127.532 74.4136 124.095 74.3028 124.095 74.3028 Z M117.414 84.8037 C117.414 84.8037 116.422 83.2587 115.854 81.5582 C115.16 79.4785 114.868 77.1668 114.868 77.1668 C114.868 77.1668 113.322 80.3265 112.772 83.7122 C112.293 86.6608 112.799 89.8953 112.799 89.8953 C112.799 89.8953 118.954 90.1703 123.14 88.6581 C127.539 87.0695 129.982 83.6898 129.982 83.6898 C129.982 83.6898 125.459 84.5537 121.873 84.8713 C119.375 85.0934 117.414 84.8037 117.414 84.8037 Z M114.237 93.2679 C111.779 93.1664 109.936 92.4411 109.936 92.4411 L109.299 84.3267 C109.299 84.3267 106.282 88.0938 104.964 91.2831 C103.83 94.027 104.366 96.8959 104.366 96.8959 C104.366 96.8959 109.395 97.948 113.737 96.9411 C117.984 95.9577 121.548 92.9181 121.548 92.9181 C121.548 92.9181 117.477 93.401 114.237 93.2679 Z M101.134 97.5589 C100.704 96.181 101.504 94.1918 101.504 94.1918 C101.504 94.1918 97.9412 95.7536 94.173 96.8533 C90.306 97.9808 86.2304 98.646 86.2304 98.646 C86.2304 98.646 82.1838 99.5421 79.4667 101.043 C76.8572 102.484 75.5713 104.534 75.5713 104.534 C75.5713 104.534 77.7587 106.533 80.3748 107.291 C83.236 108.121 86.5493 107.716 86.5493 107.716 L89.5716 104.852 C89.5716 104.852 85.3644 104.938 82.5534 104.485 C80.5845 104.167 80.0259 103.579 80.0259 103.579 C80.0259 103.579 81.0087 102.24 85.5921 101.495 C90.7587 100.655 99.5951 100.397 99.5951 100.397 L103.095 99.2834 C103.095 99.2823 101.493 98.7077 101.134 97.5589 Z" transform="translate(103.862, 27.8263)"/>
    <path style="fill:#ffffff; fill-rule:nonzero;stroke:none;" d="M24.0182 12.0114 C24.0199 12.0114 24.0204 12.0114 24.0204 12.0114 L24.0166 12.0114 C23.8231 12.0081 15.0508 11.8682 13.601 10.4194 C12.1523 8.9707 12.0124 0.197284 12.0097 0.00382545 L12.0097 0 C12.0097 0 12.0097 0.00054649 12.0097 0.00218597 C12.0097 0.00054649 12.0097 0 12.0097 0 L12.0097 0.00382545 C12.0064 0.197284 11.867 8.97015 10.4178 10.4194 C8.97676 11.8611 0.287988 12.007 0.00710404 12.0114 L0 12.0114 C0 12.0114 0.00163939 12.0114 0.00382526 12.0114 C0.00163939 12.0114 0 12.0114 0 12.0114 L0.00710404 12.0114 C0.288534 12.0152 8.97676 12.1617 10.4178 13.6028 C11.867 15.0515 12.0064 23.8249 12.0097 24.0183 L12.0097 24.0222 C12.0097 24.0222 12.0097 24.0217 12.0097 24.02 C12.0097 24.0211 12.0097 24.0222 12.0097 24.0222 L12.0097 24.0183 C12.013 23.8249 12.1523 15.0526 13.6015 13.6028 C15.0502 12.154 23.8231 12.0141 24.0166 12.0114 L24.0204 12.0114 C24.0199 12.0114 24.0193 12.0114 24.0182 12.0114 Z" transform="translate(149.034, 63.9621)"/>
    <path style="fill:#ffffff; fill-rule:nonzero;stroke:none;" d="M18.5268 9.26305 C18.5279 9.26305 18.5284 9.26305 18.5284 9.26305 L18.5252 9.26305 C18.3765 9.26086 11.6091 9.15374 10.4916 8.03565 C9.37405 6.91751 9.26643 0.150285 9.2637 0.00218597 L9.2637 0 C9.2637 0 9.2637 0 9.2637 0.00109299 C9.2637 0.00054649 9.2637 0 9.2637 0 L9.2637 0.00218597 C9.26152 0.150285 9.15384 6.91751 8.03688 8.03565 C6.92538 9.14719 0.222958 9.25977 0.0060111 9.26305 L0 9.26305 C0 9.26305 0.00163939 9.26305 0.00382526 9.26305 C0.00163939 9.26305 0 9.26305 0 9.26305 L0.0060111 9.26305 C0.222958 9.26687 6.92538 9.3789 8.03688 10.491 C9.15439 11.6086 9.26206 18.3769 9.2637 18.525 L9.2637 18.5283 C9.2637 18.5283 9.2637 18.5277 9.2637 18.5266 C9.2637 18.5277 9.2637 18.5283 9.2637 18.5283 L9.2637 18.525 C9.26643 18.3769 9.37405 11.6086 10.4922 10.491 C11.6097 9.37345 18.3765 9.26523 18.5252 9.26305 L18.5284 9.26305 C18.5279 9.26305 18.5273 9.26305 18.5268 9.26305 Z" transform="translate(174.662, 52.5857)"/>
    <path style="fill:#ffffff; fill-rule:nonzero;stroke:none;" d="M17.2945 8.64878 C17.2951 8.64878 17.2962 8.64878 17.2962 8.64878 L17.2929 8.64878 C17.1546 8.64659 10.8375 8.54553 9.79428 7.50281 C8.75054 6.45954 8.65002 0.142088 8.64783 0.00273246 L8.64783 0 C8.64783 0 8.64783 0.00054649 8.64783 0.00163948 C8.64783 0.00109299 8.64783 0 8.64783 0 L8.64783 0.00273246 C8.6451 0.141542 8.54507 6.45845 7.50133 7.50226 C6.46414 8.53952 0.207657 8.6455 0.00546463 8.64878 L0 8.64878 C0 8.64878 0.00109293 8.64878 0.00273233 8.64878 C0.00109293 8.64878 0 8.64878 0 8.64878 L0.00546463 8.64878 C0.207657 8.6526 6.4636 8.75754 7.50133 9.7948 C8.54507 10.8386 8.64565 17.1555 8.64783 17.2943 L8.64783 17.2976 C8.64783 17.2976 8.64783 17.2976 8.64783 17.2965 C8.64783 17.2971 8.64783 17.2976 8.64783 17.2976 L8.64783 17.2943 C8.65056 17.156 8.75054 10.8386 9.79428 9.7948 C10.8375 8.75154 17.1546 8.65096 17.2929 8.64878 L17.2962 8.64878 C17.2962 8.64878 17.2951 8.64878 17.2945 8.64878 Z" transform="translate(180.135, 77.3927)"/>
    <path style="fill:#ffffff; fill-rule:evenodd;stroke:none;" d="M4.01761 2.00891 C4.01761 3.11844 3.11828 4.01782 2.00881 4.01782 C0.899374 4.01782 0 3.11844 0 2.00891 C0 0.899417 0.899374 0 2.00881 0 C3.11828 0 4.01761 0.899417 4.01761 2.00891 Z" transform="translate(188.117, 72.4218)"/>
    <path style="fill:#ffffff; fill-rule:evenodd;stroke:none;" d="M4.01761 2.00891 C4.01761 3.11844 3.11828 4.01782 2.00881 4.01782 C0.899374 4.01782 0 3.11844 0 2.00891 C0 0.899417 0.899374 0 2.00881 0 C3.11828 0 4.01761 0.899417 4.01761 2.00891 Z" transform="translate(176.16, 80.1344)"/>
    <path style="fill:#ffffff; fill-rule:evenodd;stroke:none;" d="M4.01761 2.00891 C4.01761 3.11844 3.11828 4.01782 2.00881 4.01782 C0.899374 4.01782 0 3.11844 0 2.00891 C0 0.899417 0.899374 0 2.00881 0 C3.11828 0 4.01761 0.899417 4.01761 2.00891 Z" transform="translate(162.939, 94.5815)"/>
    <path style="fill:#ffffff; fill-rule:evenodd;stroke:none;" d="M3.73236 1.86627 C3.73236 2.89703 2.89688 3.73255 1.86618 3.73255 C0.835516 3.73255 0 2.89703 0 1.86627 C0 0.835561 0.835516 0 1.86618 0 C2.89688 0 3.73236 0.835561 3.73236 1.86627 Z" transform="translate(172.956, 67.7618)"/>
    <path style="fill:#ffffff; fill-rule:evenodd;stroke:none;" d="M3.96406 1.98213 C3.96406 3.07687 3.07671 3.96426 1.98203 3.96426 C0.887383 3.96426 0 3.07687 0 1.98213 C0 0.887427 0.887383 0 1.98203 0 C3.07671 0 3.96406 0.887427 3.96406 1.98213 Z" transform="translate(172.952, 90.6107)"/>
    <path style="fill:#ffffff; fill-rule:evenodd;stroke:none;" d="M4.01761 2.00891 C4.01761 3.11844 3.11828 4.01782 2.00881 4.01782 C0.899374 4.01782 0 3.11844 0 2.00891 C0 0.899417 0.899374 0 2.00881 0 C3.11828 0 4.01761 0.899417 4.01761 2.00891 Z" transform="translate(146.534, 91.9693)"/>
    <path style="fill:#ffffff; fill-rule:evenodd;stroke:none;" d="M4.01761 2.00891 C4.01761 3.11844 3.11828 4.01782 2.00881 4.01782 C0.899374 4.01782 0 3.11844 0 2.00891 C0 0.899417 0.899374 0 2.00881 0 C3.11828 0 4.01761 0.899417 4.01761 2.00891 Z" transform="translate(210.07, 56.9079)"/>
    <path style="fill:#ffffff; fill-rule:evenodd;stroke:none;" d="M4.05368 2.02694 C4.05368 3.14643 3.14627 4.05388 2.02684 4.05388 C0.90745 4.05388 0 3.14643 0 2.02694 C0 0.907493 0.90745 0 2.02684 0 C3.14627 0 4.05368 0.907493 4.05368 2.02694 Z" transform="translate(199.077, 52.665)"/>
    <path style="fill:#ffffff; fill-rule:evenodd;stroke:none;" d="M2.94763 1.47389 C2.94763 2.28793 2.28781 2.94778 1.47382 2.94778 C0.659852 2.94778 0 2.28793 0 1.47389 C0 0.659881 0.659852 0 1.47382 0 C2.28781 0 2.94763 0.659881 2.94763 1.47389 Z" transform="translate(173.104, 73.7317)"/>
    <path style="fill:#ffffff; fill-rule:evenodd;stroke:none;" d="M2.94763 1.47389 C2.94763 2.28793 2.28781 2.94778 1.47382 2.94778 C0.659852 2.94778 0 2.28793 0 1.47389 C0 0.659881 0.659852 0 1.47382 0 C2.28781 0 2.94763 0.659881 2.94763 1.47389 Z" transform="translate(152.972, 91.6337)"/>
    <path style="fill:#ffffff; fill-rule:evenodd;stroke:none;" d="M2.94763 1.47389 C2.94763 2.28793 2.28781 2.94778 1.47382 2.94778 C0.659852 2.94778 0 2.28793 0 1.47389 C0 0.659881 0.659852 0 1.47382 0 C2.28781 0 2.94763 0.659881 2.94763 1.47389 Z" transform="translate(135.941, 84.5064)"/>
    <path style="fill:#ffffff; fill-rule:evenodd;stroke:none;" d="M2.94763 1.47389 C2.94763 2.28793 2.28781 2.94778 1.47382 2.94778 C0.659852 2.94778 0 2.28793 0 1.47389 C0 0.659881 0.659852 0 1.47382 0 C2.28781 0 2.94763 0.659881 2.94763 1.47389 Z" transform="translate(179.551, 35.7783)"/>
    <path style="fill:#ffffff; fill-rule:evenodd;stroke:none;" d="M2.94763 1.47389 C2.94763 2.28793 2.28781 2.94778 1.47382 2.94778 C0.659852 2.94778 0 2.28793 0 1.47389 C0 0.659881 0.659852 0 1.47382 0 C2.28781 0 2.94763 0.659881 2.94763 1.47389 Z" transform="translate(187.406, 34.5777)"/>
    <path style="fill:#ffffff; fill-rule:evenodd;stroke:none;" d="M3.25584 1.628 C3.25584 2.52715 2.52703 3.256 1.62792 3.256 C0.728843 3.256 0 2.52715 0 1.628 C0 0.728883 0.728843 0 1.62792 0 C2.52703 0 3.25584 0.728883 3.25584 1.628 Z" transform="translate(138.384, 68.0384)"/>
    <path style="fill:#ffffff; fill-rule:evenodd;stroke:none;" d="M3.25475 1.62745 C3.25475 2.52631 2.52618 3.25491 1.62738 3.25491 C0.728603 3.25491 0 2.52631 0 1.62745 C0 0.728637 0.728603 0 1.62738 0 C2.52618 0 3.25475 0.728637 3.25475 1.62745 Z" transform="translate(135.116, 79.601)"/>
    <path style="fill:#ffffff; fill-rule:evenodd;stroke:none;" d="M3.25584 1.628 C3.25584 2.52715 2.52703 3.256 1.62792 3.256 C0.728843 3.256 0 2.52715 0 1.628 C0 0.728883 0.728843 0 1.62792 0 C2.52703 0 3.25584 0.728883 3.25584 1.628 Z" transform="translate(164.562, 50.1527)"/>
    <path style="fill:#ffffff; fill-rule:evenodd;stroke:none;" d="M2.20554 1.10283 C2.20554 1.71192 1.71183 2.20564 1.10277 2.20564 C0.493726 2.20564 0 1.71192 0 1.10283 C0 0.493751 0.493726 0 1.10277 0 C1.71183 0 2.20554 0.493751 2.20554 1.10283 Z" transform="translate(158.048, 51.1577)"/>
    <path style="fill:#ffffff; fill-rule:evenodd;stroke:none;" d="M2.20554 1.10283 C2.20554 1.71192 1.71183 2.20564 1.10277 2.20564 C0.493726 2.20564 0 1.71192 0 1.10283 C0 0.493751 0.493726 0 1.10277 0 C1.71183 0 2.20554 0.493751 2.20554 1.10283 Z" transform="translate(171.098, 44.7873)"/>
    <path style="fill:#ffffff; fill-rule:evenodd;stroke:none;" d="M2.20554 1.10283 C2.20554 1.71192 1.71183 2.20564 1.10277 2.20564 C0.493726 2.20564 0 1.71192 0 1.10283 C0 0.493751 0.493726 0 1.10277 0 C1.71183 0 2.20554 0.493751 2.20554 1.10283 Z" transform="translate(173.928, 63.1784)"/>
    <path style="fill:#ffffff; fill-rule:evenodd;stroke:none;" d="M2.20554 1.10283 C2.20554 1.71192 1.71183 2.20564 1.10277 2.20564 C0.493726 2.20564 0 1.71192 0 1.10283 C0 0.493751 0.493726 0 1.10277 0 C1.71183 0 2.20554 0.493751 2.20554 1.10283 Z" transform="translate(163.055, 69.2876)"/>
    <path style="fill:#ffffff; fill-rule:evenodd;stroke:none;" d="M2.20663 1.10337 C2.20663 1.71277 1.71268 2.20674 1.10331 2.20674 C0.49397 2.20674 0 1.71277 0 1.10337 C0 0.493995 0.49397 0 1.10331 0 C1.71268 0 2.20663 0.493995 2.20663 1.10337 Z" transform="translate(167.762, 78.5376)"/>
    <path style="fill:#ffffff; fill-rule:evenodd;stroke:none;" d="M2.20554 1.10283 C2.20554 1.71192 1.71183 2.20564 1.10277 2.20564 C0.493726 2.20564 0 1.71192 0 1.10283 C0 0.493751 0.493726 0 1.10277 0 C1.71183 0 2.20554 0.493751 2.20554 1.10283 Z" transform="translate(169.639, 87.7881)"/>
    <path style="fill:#ffffff; fill-rule:evenodd;stroke:none;" d="M2.20663 1.10337 C2.20663 1.71277 1.71268 2.20674 1.10331 2.20674 C0.49397 2.20674 0 1.71277 0 1.10337 C0 0.493995 0.49397 0 1.10331 0 C1.71268 0 2.20663 0.493995 2.20663 1.10337 Z" transform="translate(169.802, 81.8023)"/>
    <path style="fill:#ffffff; fill-rule:evenodd;stroke:none;" d="M2.20554 1.10283 C2.20554 1.71192 1.71183 2.20564 1.10277 2.20564 C0.493726 2.20564 0 1.71192 0 1.10283 C0 0.493751 0.493726 0 1.10277 0 C1.71183 0 2.20554 0.493751 2.20554 1.10283 Z" transform="translate(173.828, 83.1084)"/>
    <path style="fill:#ffffff; fill-rule:evenodd;stroke:none;" d="M2.20554 1.10283 C2.20554 1.71192 1.71183 2.20564 1.10277 2.20564 C0.493726 2.20564 0 1.71192 0 1.10283 C0 0.493751 0.493726 0 1.10277 0 C1.71183 0 2.20554 0.493751 2.20554 1.10283 Z" transform="translate(189.636, 78.7551)"/>
    <path style="fill:#ffffff; fill-rule:nonzero;stroke:none;" d="M2.20663 1.10337 C2.20663 1.71216 1.71317 2.20674 1.10331 2.20674 C0.493458 2.20674 0 1.71325 0 1.10337 C0 0.494576 0.492912 0 1.10331 0 C1.71262 0 2.20663 0.494029 2.20663 1.10337 Z" transform="translate(183.2, 81.3531)"/>
    <path style="fill:#ffffff; fill-rule:evenodd;stroke:none;" d="M2.20554 1.10283 C2.20554 1.71192 1.71183 2.20564 1.10277 2.20564 C0.493726 2.20564 0 1.71192 0 1.10283 C0 0.493751 0.493726 0 1.10277 0 C1.71183 0 2.20554 0.493751 2.20554 1.10283 Z" transform="translate(196.899, 67.0022)"/>
    <path style="fill:#ffffff; fill-rule:evenodd;stroke:none;" d="M2.20663 1.10337 C2.20663 1.71277 1.71268 2.20674 1.10331 2.20674 C0.49397 2.20674 0 1.71277 0 1.10337 C0 0.493995 0.49397 0 1.10331 0 C1.71268 0 2.20663 0.493995 2.20663 1.10337 Z" transform="translate(174.263, 77.9386)"/>
    <path style="fill:#ffffff; fill-rule:evenodd;stroke:none;" d="M2.20554 1.10283 C2.20554 1.71192 1.71183 2.20564 1.10277 2.20564 C0.493726 2.20564 0 1.71192 0 1.10283 C0 0.493751 0.493726 0 1.10277 0 C1.71183 0 2.20554 0.493751 2.20554 1.10283 Z" transform="translate(179.596, 86.9175)"/>
    <path style="fill:#ffffff; fill-rule:evenodd;stroke:none;" d="M2.20663 1.10337 C2.20663 1.71277 1.71268 2.20674 1.10331 2.20674 C0.49397 2.20674 0 1.71277 0 1.10337 C0 0.493995 0.49397 0 1.10331 0 C1.71268 0 2.20663 0.493995 2.20663 1.10337 Z" transform="translate(199.837, 67.6542)"/>
    <path style="fill:#ffffff; fill-rule:evenodd;stroke:none;" d="M2.20554 1.10283 C2.20554 1.71192 1.71183 2.20564 1.10277 2.20564 C0.493726 2.20564 0 1.71192 0 1.10283 C0 0.493751 0.493726 0 1.10277 0 C1.71183 0 2.20554 0.493751 2.20554 1.10283 Z" transform="translate(208.543, 61.8597)"/>
    <path style="fill:#ffffff; fill-rule:nonzero;stroke:none;" d="M2.51811 1.26021 C2.51811 1.95481 1.95471 2.51879 1.2596 2.51879 C0.563953 2.51879 0 1.95535 0 1.26021 C0 0.564526 0.563406 0 1.2596 0 C1.95361 0.00109299 2.51811 0.565072 2.51811 1.26021 Z" transform="translate(208.231, 76.6467)"/>
    <path style="fill:#ffffff; fill-rule:evenodd;stroke:none;" d="M2.20554 1.10283 C2.20554 1.71192 1.71183 2.20564 1.10277 2.20564 C0.493726 2.20564 0 1.71192 0 1.10283 C0 0.493751 0.493726 0 1.10277 0 C1.71183 0 2.20554 0.493751 2.20554 1.10283 Z" transform="translate(195.158, 58.4048)"/>
    <path style="fill:#ffffff; fill-rule:evenodd;stroke:none;" d="M2.20554 1.10283 C2.20554 1.71192 1.71183 2.20564 1.10277 2.20564 C0.493726 2.20564 0 1.71192 0 1.10283 C0 0.493751 0.493726 0 1.10277 0 C1.71183 0 2.20554 0.493751 2.20554 1.10283 Z" transform="translate(202.122, 56.3915)"/>
    <path style="fill:#ffffff; fill-rule:evenodd;stroke:none;" d="M2.20554 1.10283 C2.20554 1.71192 1.71183 2.20564 1.10277 2.20564 C0.493726 2.20564 0 1.71192 0 1.10283 C0 0.493751 0.493726 0 1.10277 0 C1.71183 0 2.20554 0.493751 2.20554 1.10283 Z" transform="translate(203.021, 59.8196)"/>
    <path style="fill:#ffffff; fill-rule:evenodd;stroke:none;" d="M2.20663 1.10337 C2.20663 1.71277 1.71268 2.20674 1.10331 2.20674 C0.49397 2.20674 0 1.71277 0 1.10337 C0 0.493995 0.49397 0 1.10331 0 C1.71268 0 2.20663 0.493995 2.20663 1.10337 Z" transform="translate(197.007, 48.3919)"/>
    <path style="fill:#ffffff; fill-rule:evenodd;stroke:none;" d="M2.20554 1.10283 C2.20554 1.71192 1.71183 2.20564 1.10277 2.20564 C0.493726 2.20564 0 1.71192 0 1.10283 C0 0.493751 0.493726 0 1.10277 0 C1.71183 0 2.20554 0.493751 2.20554 1.10283 Z" transform="translate(204.408, 51.0047)"/>
    <path style="fill:#ffffff; fill-rule:evenodd;stroke:none;" d="M2.20554 1.10283 C2.20554 1.71192 1.71183 2.20564 1.10277 2.20564 C0.493726 2.20564 0 1.71192 0 1.10283 C0 0.493751 0.493726 0 1.10277 0 C1.71183 0 2.20554 0.493751 2.20554 1.10283 Z" transform="translate(200.001, 42.6248)"/>
    <path style="fill:#ffffff; fill-rule:evenodd;stroke:none;" d="M2.20663 1.10337 C2.20663 1.71277 1.71268 2.20674 1.10331 2.20674 C0.49397 2.20674 0 1.71277 0 1.10337 C0 0.493995 0.49397 0 1.10331 0 C1.71268 0 2.20663 0.493995 2.20663 1.10337 Z" transform="translate(162.62, 83.6522)"/>
    <path style="fill:#ffffff; fill-rule:evenodd;stroke:none;" d="M2.20663 1.10337 C2.20663 1.71277 1.71268 2.20674 1.10331 2.20674 C0.49397 2.20674 0 1.71277 0 1.10337 C0 0.493995 0.49397 0 1.10331 0 C1.71268 0 2.20663 0.493995 2.20663 1.10337 Z" transform="translate(161.695, 91.7053)"/>
    <path style="fill:#ffffff; fill-rule:evenodd;stroke:none;" d="M2.20663 1.10337 C2.20663 1.71277 1.71268 2.20674 1.10331 2.20674 C0.49397 2.20674 0 1.71277 0 1.10337 C0 0.493995 0.49397 0 1.10331 0 C1.71268 0 2.20663 0.493995 2.20663 1.10337 Z" transform="translate(156.526, 93.283)"/>
    <path style="fill:#ffffff; fill-rule:evenodd;stroke:none;" d="M2.20554 1.10283 C2.20554 1.71192 1.71183 2.20564 1.10277 2.20564 C0.493726 2.20564 0 1.71192 0 1.10283 C0 0.493751 0.493726 0 1.10277 0 C1.71183 0 2.20554 0.493751 2.20554 1.10283 Z" transform="translate(154.132, 86.7541)"/>
    <path style="fill:#ffffff; fill-rule:evenodd;stroke:none;" d="M2.20554 1.10283 C2.20554 1.71192 1.71183 2.20564 1.10277 2.20564 C0.493726 2.20564 0 1.71192 0 1.10283 C0 0.493751 0.493726 0 1.10277 0 C1.71183 0 2.20554 0.493751 2.20554 1.10283 Z" transform="translate(158.104, 86.7546)"/>
    <path style="fill:#ffffff; fill-rule:evenodd;stroke:none;" d="M2.20554 1.10283 C2.20554 1.71192 1.71183 2.20564 1.10277 2.20564 C0.493726 2.20564 0 1.71192 0 1.10283 C0 0.493751 0.493726 0 1.10277 0 C1.71183 0 2.20554 0.493751 2.20554 1.10283 Z" transform="translate(148.474, 82.8909)"/>
    <path style="fill:#ffffff; fill-rule:evenodd;stroke:none;" d="M2.20554 1.10283 C2.20554 1.71192 1.71183 2.20564 1.10277 2.20564 C0.493726 2.20564 0 1.71192 0 1.10283 C0 0.493751 0.493726 0 1.10277 0 C1.71183 0 2.20554 0.493751 2.20554 1.10283 Z" transform="translate(152.092, 76.8784)"/>
    <path style="fill:#ffffff; fill-rule:evenodd;stroke:none;" d="M2.20554 1.10283 C2.20554 1.71192 1.71183 2.20564 1.10277 2.20564 C0.493726 2.20564 0 1.71192 0 1.10283 C0 0.493751 0.493726 0 1.10277 0 C1.71183 0 2.20554 0.493751 2.20554 1.10283 Z" transform="translate(144.991, 73.3683)"/>
    <path style="fill:#ffffff; fill-rule:evenodd;stroke:none;" d="M2.20554 1.10283 C2.20554 1.71192 1.71183 2.20564 1.10277 2.20564 C0.493726 2.20564 0 1.71192 0 1.10283 C0 0.493751 0.493726 0 1.10277 0 C1.71183 0 2.20554 0.493751 2.20554 1.10283 Z" transform="translate(135.524, 61.5334)"/>
    <path style="fill:#ffffff; fill-rule:evenodd;stroke:none;" d="M2.20554 1.10283 C2.20554 1.71192 1.71183 2.20564 1.10277 2.20564 C0.493726 2.20564 0 1.71192 0 1.10283 C0 0.493751 0.493726 0 1.10277 0 C1.71183 0 2.20554 0.493751 2.20554 1.10283 Z" transform="translate(138.314, 94.1465)"/>
    <path style="fill:#ffffff; fill-rule:evenodd;stroke:none;" d="M2.20554 1.10283 C2.20554 1.71192 1.71183 2.20564 1.10277 2.20564 C0.493726 2.20564 0 1.71192 0 1.10283 C0 0.493751 0.493726 0 1.10277 0 C1.71183 0 2.20554 0.493751 2.20554 1.10283 Z" transform="translate(145.426, 100.548)"/>
    <path style="fill:#ffffff; fill-rule:evenodd;stroke:none;" d="M2.20554 1.10283 C2.20554 1.71192 1.71183 2.20564 1.10277 2.20564 C0.493726 2.20564 0 1.71192 0 1.10283 C0 0.493751 0.493726 0 1.10277 0 C1.71183 0 2.20554 0.493751 2.20554 1.10283 Z" transform="translate(151.847, 95.3242)"/>
    <path style="fill:#ffffff; fill-rule:evenodd;stroke:none;" d="M2.20554 1.10283 C2.20554 1.71192 1.71183 2.20564 1.10277 2.20564 C0.493726 2.20564 0 1.71192 0 1.10283 C0 0.493751 0.493726 0 1.10277 0 C1.71183 0 2.20554 0.493751 2.20554 1.10283 Z" transform="translate(179.922, 113.988)"/>
    <path style="fill:#ffffff; fill-rule:evenodd;stroke:none;" d="M2.20554 1.10283 C2.20554 1.71192 1.71183 2.20564 1.10277 2.20564 C0.493726 2.20564 0 1.71192 0 1.10283 C0 0.493751 0.493726 0 1.10277 0 C1.71183 0 2.20554 0.493751 2.20554 1.10283 Z" transform="translate(148.909, 101.174)"/>
    <path style="fill:#ffffff; fill-rule:evenodd;stroke:none;" d="M2.20554 1.10283 C2.20554 1.71192 1.71183 2.20564 1.10277 2.20564 C0.493726 2.20564 0 1.71192 0 1.10283 C0 0.493751 0.493726 0 1.10277 0 C1.71183 0 2.20554 0.493751 2.20554 1.10283 Z" transform="translate(150.106, 107.241)"/>
    <path style="fill:#ffffff; fill-rule:evenodd;stroke:none;" d="M2.20554 1.10283 C2.20554 1.71192 1.71183 2.20564 1.10277 2.20564 C0.493726 2.20564 0 1.71192 0 1.10283 C0 0.493751 0.493726 0 1.10277 0 C1.71183 0 2.20554 0.493751 2.20554 1.10283 Z" transform="translate(156.309, 102.479)"/>
    <path style="fill:#ffffff; fill-rule:evenodd;stroke:none;" d="M2.20554 1.10283 C2.20554 1.71192 1.71183 2.20564 1.10277 2.20564 C0.493726 2.20564 0 1.71192 0 1.10283 C0 0.493751 0.493726 0 1.10277 0 C1.71183 0 2.20554 0.493751 2.20554 1.10283 Z" transform="translate(178.073, 104.602)"/>
    <path style="fill:#ffffff; fill-rule:evenodd;stroke:none;" d="M2.20554 1.10283 C2.20554 1.71192 1.71183 2.20564 1.10277 2.20564 C0.493726 2.20564 0 1.71192 0 1.10283 C0 0.493751 0.493726 0 1.10277 0 C1.71183 0 2.20554 0.493751 2.20554 1.10283 Z" transform="translate(179.76, 97.4194)"/>
    <path style="fill:#ffffff; fill-rule:evenodd;stroke:none;" d="M2.20554 1.10283 C2.20554 1.71192 1.71183 2.20564 1.10277 2.20564 C0.493726 2.20564 0 1.71192 0 1.10283 C0 0.493751 0.493726 0 1.10277 0 C1.71183 0 2.20554 0.493751 2.20554 1.10283 Z" transform="translate(204.163, 98.3988)"/>
    <path style="fill:#ffffff; fill-rule:evenodd;stroke:none;" d="M2.20554 1.10283 C2.20554 1.71192 1.71183 2.20564 1.10277 2.20564 C0.493726 2.20564 0 1.71192 0 1.10283 C0 0.493751 0.493726 0 1.10277 0 C1.71183 0 2.20554 0.493751 2.20554 1.10283 Z" transform="translate(198.613, 81.2039)"/>
    <path style="fill:#ffffff; fill-rule:evenodd;stroke:none;" d="M2.411 1.20556 C2.411 1.8714 1.87131 2.41113 1.2055 2.41113 C0.539722 2.41113 0 1.8714 0 1.20556 C0 0.539749 0.539722 0 1.2055 0 C1.87131 0 2.411 0.539749 2.411 1.20556 Z" transform="translate(194.023, 75.3051)"/>
    <path style="fill:#ffffff; fill-rule:evenodd;stroke:none;" d="M2.35526 1.17769 C2.35526 1.82814 1.82804 2.35539 1.17763 2.35539 C0.527244 2.35539 0 1.82814 0 1.17769 C0 0.527271 0.527244 0 1.17763 0 C1.82804 0 2.35526 0.527271 2.35526 1.17769 Z" transform="translate(191.771, 71.2599)"/>
    <path style="fill:#ffffff; fill-rule:evenodd;stroke:none;" d="M2.49079 1.24546 C2.49079 1.93333 1.93323 2.49091 1.24539 2.49091 C0.55758 2.49091 0 1.93333 0 1.24546 C0 0.557612 0.55758 0 1.24539 0 C1.93323 0 2.49079 0.557612 2.49079 1.24546 Z" transform="translate(180.575, 72.3884)"/>
    <path style="fill:#ffffff; fill-rule:evenodd;stroke:none;" d="M2.49079 1.24546 C2.49079 1.93333 1.93323 2.49091 1.24539 2.49091 C0.55758 2.49091 0 1.93333 0 1.24546 C0 0.557612 0.55758 0 1.24539 0 C1.93323 0 2.49079 0.557612 2.49079 1.24546 Z" transform="translate(190.205, 58.0233)"/>
    <path style="fill:#ffffff; fill-rule:evenodd;stroke:none;" d="M2.57167 1.2859 C2.57167 1.9961 1.996 2.57179 1.28583 2.57179 C0.575687 2.57179 0 1.9961 0 1.2859 C0 0.575714 0.575687 0 1.28583 0 C1.996 0 2.57167 0.575714 2.57167 1.2859 Z" transform="translate(187.575, 64.044)"/>
    <path style="fill:#ffffff; fill-rule:evenodd;stroke:none;" d="M2.20554 1.10283 C2.20554 1.71192 1.71183 2.20564 1.10277 2.20564 C0.493726 2.20564 0 1.71192 0 1.10283 C0 0.493751 0.493726 0 1.10277 0 C1.71183 0 2.20554 0.493751 2.20554 1.10283 Z" transform="translate(175.679, 102.752)"/>
    <path style="fill:#ffffff; fill-rule:evenodd;stroke:none;" d="M2.20554 1.10283 C2.20554 1.71192 1.71183 2.20564 1.10277 2.20564 C0.493726 2.20564 0 1.71192 0 1.10283 C0 0.493751 0.493726 0 1.10277 0 C1.71183 0 2.20554 0.493751 2.20554 1.10283 Z" transform="translate(182.208, 95.7865)"/>
    <path style="fill:#ffffff; fill-rule:evenodd;stroke:none;" d="M2.20554 1.10283 C2.20554 1.71192 1.71183 2.20564 1.10277 2.20564 C0.493726 2.20564 0 1.71192 0 1.10283 C0 0.493751 0.493726 0 1.10277 0 C1.71183 0 2.20554 0.493751 2.20554 1.10283 Z" transform="translate(199.511, 60.9624)"/>
    <path style="fill:#ffffff; fill-rule:evenodd;stroke:none;" d="M2.39352 1.19682 C2.39352 1.85783 1.85774 2.39364 1.19676 2.39364 C0.535807 2.39364 0 1.85783 0 1.19682 C0 0.535834 0.535807 0 1.19676 0 C1.85774 0 2.39352 0.535834 2.39352 1.19682 Z" transform="translate(191.597, 63.2227)"/>
    <path style="fill:#ffffff; fill-rule:evenodd;stroke:none;" d="M2.94763 1.47389 C2.94763 2.28793 2.28781 2.94778 1.47382 2.94778 C0.659852 2.94778 0 2.28793 0 1.47389 C0 0.659881 0.659852 0 1.47382 0 C2.28781 0 2.94763 0.659881 2.94763 1.47389 Z" transform="translate(150.388, 49.5724)"/>
    <path style="fill:#ffffff; fill-rule:evenodd;stroke:none;" d="M2.94763 1.47389 C2.94763 2.28793 2.28781 2.94778 1.47382 2.94778 C0.659852 2.94778 0 2.28793 0 1.47389 C0 0.659881 0.659852 0 1.47382 0 C2.28781 0 2.94763 0.659881 2.94763 1.47389 Z" transform="translate(178.028, 94.3001)"/>
    <path style="fill:#ffffff; fill-rule:evenodd;stroke:none;" d="M2.94763 1.47389 C2.94763 2.28793 2.28781 2.94778 1.47382 2.94778 C0.659852 2.94778 0 2.28793 0 1.47389 C0 0.659881 0.659852 0 1.47382 0 C2.28781 0 2.94763 0.659881 2.94763 1.47389 Z" transform="translate(182.245, 101.565)"/>
    <path style="fill:#ffffff; fill-rule:evenodd;stroke:none;" d="M2.94763 1.47389 C2.94763 2.28793 2.28781 2.94778 1.47382 2.94778 C0.659852 2.94778 0 2.28793 0 1.47389 C0 0.659881 0.659852 0 1.47382 0 C2.28781 0 2.94763 0.659881 2.94763 1.47389 Z" transform="translate(158.577, 103.196)"/>
    <path style="fill:#ffffff; fill-rule:evenodd;stroke:none;" d="M3.16294 1.58155 C3.16294 2.45505 2.45493 3.1631 1.58147 3.1631 C0.70805 3.1631 0 2.45505 0 1.58155 C0 0.708085 0.70805 0 1.58147 0 C2.45493 0 3.16294 0.708085 3.16294 1.58155 Z" transform="translate(157.788, 98.8431)"/>
    <path style="fill:#ffffff; fill-rule:evenodd;stroke:none;" d="M3.25366 1.62691 C3.25366 2.52546 2.52533 3.25382 1.62683 3.25382 C0.728357 3.25382 0 2.52546 0 1.62691 C0 0.728392 0.728357 0 1.62683 0 C2.52533 0 3.25366 0.728392 3.25366 1.62691 Z" transform="translate(157.679, 35.6898)"/>
    <path style="fill:#ffffff; fill-rule:evenodd;stroke:none;" d="M3.25475 1.62745 C3.25475 2.52631 2.52618 3.25491 1.62738 3.25491 C0.728603 3.25491 0 2.52631 0 1.62745 C0 0.728637 0.728603 0 1.62738 0 C2.52618 0 3.25475 0.728637 3.25475 1.62745 Z" transform="translate(192.702, 65.9333)"/>
    <path style="fill:#ffffff; fill-rule:evenodd;stroke:none;" d="M3.25366 1.62691 C3.25366 2.52546 2.52533 3.25382 1.62683 3.25382 C0.728357 3.25382 0 2.52546 0 1.62691 C0 0.728392 0.728357 0 1.62683 0 C2.52533 0 3.25366 0.728392 3.25366 1.62691 Z" transform="translate(205.843, 64.4375)"/>
    <path style="fill:#ffffff; fill-rule:evenodd;stroke:none;" d="M3.25366 1.62691 C3.25366 2.52546 2.52533 3.25382 1.62683 3.25382 C0.728357 3.25382 0 2.52546 0 1.62691 C0 0.728392 0.728357 0 1.62683 0 C2.52533 0 3.25366 0.728392 3.25366 1.62691 Z" transform="translate(210.413, 86.8016)"/>
    <path style="fill:#ffffff; fill-rule:evenodd;stroke:none;" d="M3.25475 1.62745 C3.25475 2.52631 2.52618 3.25491 1.62738 3.25491 C0.728603 3.25491 0 2.52631 0 1.62745 C0 0.728637 0.728603 0 1.62738 0 C2.52618 0 3.25475 0.728637 3.25475 1.62745 Z" transform="translate(211.392, 67.4569)"/>
    <path style="fill:#ffffff; fill-rule:evenodd;stroke:none;" d="M2.94763 1.47389 C2.94763 2.28793 2.28781 2.94778 1.47382 2.94778 C0.659852 2.94778 0 2.28793 0 1.47389 C0 0.659881 0.659852 0 1.47382 0 C2.28781 0 2.94763 0.659881 2.94763 1.47389 Z" transform="translate(183.101, 74.5886)"/>
   </g>
   <g id="Group178" clip-path="url(#Clip2)">
    <path style="fill:#ffffff; fill-rule:nonzero;stroke:none;" d="M5.34061 0 L5.34061 0.58092 C4.03237 0.690769 3.88755 0.818098 3.88755 2.77946 L3.88755 6.52077 C3.88755 9.37181 4.81327 10.9168 6.79367 10.9168 C8.9369 10.9168 9.93581 9.29966 9.93581 6.17593 L9.93581 4.97691 C9.93581 3.06965 9.82655 2.07176 9.75387 1.50832 C9.66258 0.872747 9.20795 0.63612 8.01007 0.58092 L8.01007 0 L12.5141 0 L12.5141 0.58092 C11.6064 0.618084 11.1703 0.872747 11.0796 1.50832 C11.0069 2.07121 10.8976 3.0691 10.8976 4.97691 L10.8976 6.30325 C10.8976 8.04602 10.6249 9.66252 9.60797 10.7342 C8.80957 11.5889 7.50133 12.078 6.23028 12.078 C5.03131 12.078 3.7963 11.843 2.9061 11.0987 C1.94378 10.3161 1.52628 9.01005 1.52573 6.88363 L1.52573 2.77946 C1.52573 0.817552 1.37983 0.690769 0 0.58092 L0 0 L5.34061 0 Z" transform="translate(29.796, 153.214)"/>
    <path style="fill:#ffffff; fill-rule:nonzero;stroke:none;" d="M11.1703 11.9343 L10.0626 11.9343 L2.86949 3.0702 L2.83288 3.0702 L2.83288 6.83009 C2.83288 8.73735 2.94272 9.7363 3.01539 10.2998 C3.10556 10.9353 3.56022 11.1719 4.75808 11.2266 L4.75808 11.8075 L0.254653 11.8075 L0.254653 11.2266 C1.16233 11.19 1.59786 10.9353 1.68913 10.2998 C1.76126 9.73685 1.8711 8.73789 1.8711 6.83009 L1.8711 3.2336 C1.8711 2.0723 1.8711 1.63565 1.54322 1.19955 C1.19894 0.763449 0.744831 0.637212 0 0.581466 L0 0.00054649 L3.16075 0.00054649 L10.1714 8.17334 L10.2074 8.17334 L10.2074 4.97691 C10.2074 3.06965 10.0992 2.07176 10.0266 1.50832 C9.93527 0.872747 9.48119 0.63612 8.28221 0.58092 L8.28221 0 L12.7868 0 L12.7868 0.58092 C11.8785 0.618084 11.4424 0.872747 11.3523 1.50832 C11.2791 2.07121 11.1703 3.0691 11.1703 4.97691 L11.1703 11.9343 Z" transform="translate(42.6374, 153.213)"/>
    <path style="fill:#ffffff; fill-rule:nonzero;stroke:none;" d="M3.84985 9.02806 C3.84985 10.9888 3.99466 11.1157 5.33951 11.2255 L5.33951 11.8065 L0 11.8065 L0 11.2255 C1.34376 11.1157 1.48912 10.9883 1.48912 9.02806 L1.48912 2.77946 C1.48912 0.817552 1.34376 0.690769 0 0.58092 L0 0 L5.33951 0 L5.33951 0.58092 C3.99521 0.690769 3.8504 0.818098 3.8504 2.77946 L3.8504 9.02806 L3.84985 9.02806 Z" transform="translate(56.2783, 153.214)"/>
    <path style="fill:#ffffff; fill-rule:nonzero;stroke:none;" d="M6.37508 9.48112 C6.37508 11.4419 6.51989 11.5687 8.15493 11.6785 L8.15493 12.2595 L2.30663 12.2595 L2.30663 11.6785 C3.86788 11.5687 4.01379 11.4414 4.01379 9.48112 L4.01379 1.27114 L3.55967 1.27114 C2.08859 1.27114 1.59841 1.48865 1.32627 1.79687 C1.08965 2.05099 0.871614 2.55977 0.653573 3.46914 L0 3.46914 C0.0726801 2.17832 0.18088 0.925759 0.217493 0 L0.562314 0 C0.889644 0.416974 1.07162 0.453589 1.5618 0.453589 L8.86313 0.453589 C9.33583 0.453589 9.53475 0.344837 9.8615 0 L10.2063 0 C10.2255 0.762903 10.3162 2.17777 10.4069 3.41449 L9.75278 3.46914 C9.57079 2.48764 9.37132 1.97885 9.08116 1.68866 C8.78991 1.37935 8.19097 1.27114 7.11878 1.27114 L6.37454 1.27114 L6.37454 9.48112 L6.37508 9.48112 Z" transform="translate(62.5976, 152.761)"/>
    <path style="fill:#ffffff; fill-rule:nonzero;stroke:none;" d="M1.63448 2.77946 C1.63448 0.817552 1.48857 0.690769 0.18088 0.58092 L0.18088 0 L8.51722 0 C8.53579 0.308769 8.62648 1.63456 8.71778 2.83411 L8.06363 2.88876 C7.8817 2.03459 7.68223 1.52581 7.39092 1.23562 C7.10076 0.926305 6.50127 0.818098 5.42968 0.818098 L4.72201 0.818098 C4.03182 0.818098 3.99521 0.818098 3.99521 1.45313 L3.99521 5.17638 L5.32093 5.17638 C6.88273 5.17638 6.93739 5.08511 7.11933 3.65167 L7.77293 3.65167 L7.77293 7.62849 L7.11933 7.62849 C6.93739 6.19394 6.88273 6.10324 5.32093 6.10324 L3.99521 6.10324 L3.99521 8.95482 C3.99521 10.2812 4.06789 10.6626 4.44932 10.8446 C4.75808 10.9888 5.24826 10.9888 5.99308 10.9888 C6.82916 10.9888 7.6647 10.8796 8.06418 10.4429 C8.37296 10.1167 8.66367 9.49858 8.95437 8.62913 L9.60797 8.7559 C9.49811 9.4636 9.13582 11.3157 8.97239 11.8065 L0 11.8065 L0 11.2255 C1.48912 11.1157 1.63448 10.9883 1.63448 9.02806 L1.63448 2.77946 L1.63448 2.77946 Z" transform="translate(73.8045, 153.214)"/>
    <path style="fill:#ffffff; fill-rule:nonzero;stroke:none;" d="M5.57558 0 C7.6647 0 9.51722 0.453589 10.7342 1.61598 C11.5878 2.43244 12.296 3.77845 12.296 5.39334 C12.296 9.86203 8.86313 11.8059 4.59577 11.8059 L0 11.8059 L0 11.2255 C1.41699 11.1157 1.56234 10.9883 1.56234 9.02806 L1.56234 2.77946 C1.56234 0.817552 1.41644 0.690769 0.145906 0.58092 L0.145906 0 L5.57558 0 L5.57558 0 Z M3.92362 8.91766 C3.92362 10.5905 4.1056 10.9888 5.41274 10.9888 C8.02814 10.9888 9.64456 8.95482 9.64456 5.90268 C9.64456 1.99743 7.6647 0.779843 5.08595 0.779843 C4.55862 0.779843 4.15915 0.835589 4.0504 0.907177 C3.94056 0.979862 3.92307 1.36186 3.92307 1.85206 L3.92307 8.91766 L3.92362 8.91766 Z" transform="translate(84.0841, 153.214)"/>
    <path style="fill:#ffffff; fill-rule:nonzero;stroke:none;" d="M3.81433 5.35836 L5.43077 5.35836 C6.99314 5.35836 7.04719 5.26655 7.22919 3.92327 L7.88279 3.92327 L7.88279 7.73725 L7.22919 7.73725 C7.04719 6.37539 6.99314 6.28469 5.43077 6.28469 L3.81433 6.28469 L3.81433 9.0286 C3.81433 10.9895 3.95914 11.1162 5.55757 11.2261 L5.55757 11.807 L0 11.807 L0 11.2255 C1.30769 11.1157 1.4525 10.9883 1.4525 9.02806 L1.4525 2.77946 C1.4525 0.817552 1.30715 0.690769 0 0.58092 L0 0 L8.40954 0 C8.42702 0.308769 8.51831 1.63456 8.60901 2.83411 L7.95546 2.88876 C7.77347 2.03459 7.57401 1.52581 7.28385 1.23508 C6.99314 0.926305 6.3942 0.818098 5.32258 0.818098 L4.54113 0.818098 C3.85094 0.818098 3.81487 0.818098 3.81487 1.45313 L3.81487 5.35836 L3.81433 5.35836 Z" transform="translate(101.375, 153.214)"/>
    <path style="fill:#ffffff; fill-rule:nonzero;stroke:none;" d="M1.63393 2.77946 C1.63393 0.817552 1.48802 0.690769 0.18088 0.58092 L0.18088 0 L8.51722 0 C8.53579 0.308769 8.62703 1.63456 8.71778 2.83411 L8.06363 2.88876 C7.8817 2.03459 7.68223 1.52581 7.39092 1.23508 C7.10076 0.926305 6.50127 0.818098 5.42968 0.818098 L4.72201 0.818098 C4.03182 0.818098 3.99521 0.818098 3.99521 1.45313 L3.99521 5.17638 L5.32093 5.17638 C6.88218 5.17638 6.93739 5.08511 7.11933 3.65167 L7.77347 3.65167 L7.77347 7.62849 L7.11933 7.62849 C6.93793 6.19394 6.88273 6.10324 5.32093 6.10324 L3.99521 6.10324 L3.99521 8.95482 C3.99521 10.2812 4.06789 10.6626 4.44932 10.8446 C4.75862 10.9888 5.24826 10.9888 5.99308 10.9888 C6.82862 10.9888 7.66416 10.8796 8.06418 10.4429 C8.37296 10.1167 8.66367 9.49858 8.95383 8.62913 L9.60797 8.7559 C9.49866 9.4636 9.13582 11.3157 8.97239 11.8065 L0 11.8065 L0 11.2255 C1.48912 11.1157 1.63448 10.9883 1.63448 9.02806 L1.63448 2.77946 L1.63393 2.77946 Z" transform="translate(110.947, 153.214)"/>
    <path style="fill:#ffffff; fill-rule:nonzero;stroke:none;" d="M5.57613 0 C7.66525 0 9.51777 0.453589 10.7348 1.61598 C11.5889 2.43244 12.296 3.77845 12.296 5.39334 C12.296 9.86203 8.86368 11.8059 4.59523 11.8059 L0 11.8059 L0 11.2255 C1.41644 11.1157 1.56234 10.9883 1.56234 9.02806 L1.56234 2.77946 C1.56234 0.817552 1.41644 0.690769 0.14536 0.58092 L0.14536 0 L5.57613 0 L5.57613 0 Z M3.92362 8.91766 C3.92362 10.5905 4.10505 10.9888 5.41274 10.9888 C8.02814 10.9888 9.64456 8.95482 9.64456 5.90268 C9.64456 1.99743 7.6647 0.779843 5.0865 0.779843 C4.55916 0.779843 4.1597 0.835589 4.05095 0.907177 C3.94166 0.979862 3.92417 1.36186 3.92417 1.85206 L3.92417 8.91766 L3.92362 8.91766 Z" transform="translate(121.226, 153.214)"/>
    <path style="fill:#ffffff; fill-rule:nonzero;stroke:none;" d="M1.63448 2.77946 C1.63448 0.817552 1.48857 0.690769 0.18088 0.58092 L0.18088 0 L8.51722 0 C8.53579 0.308769 8.62648 1.63456 8.71778 2.83411 L8.06363 2.88876 C7.8817 2.03459 7.68168 1.52581 7.39092 1.23508 C7.10021 0.926305 6.50127 0.818098 5.42968 0.818098 L4.72201 0.818098 C4.03182 0.818098 3.99521 0.818098 3.99521 1.45313 L3.99521 5.17638 L5.32093 5.17638 C6.88273 5.17638 6.93739 5.08511 7.11933 3.65167 L7.77347 3.65167 L7.77347 7.62849 L7.11933 7.62849 C6.93739 6.19394 6.88273 6.10324 5.32093 6.10324 L3.99521 6.10324 L3.99521 8.95482 C3.99521 10.2812 4.06734 10.6626 4.44932 10.8446 C4.75753 10.9888 5.24826 10.9888 5.99308 10.9888 C6.82862 10.9888 7.66416 10.8796 8.06418 10.4429 C8.37296 10.1167 8.66312 9.49858 8.95383 8.62913 L9.60797 8.7559 C9.49866 9.4636 9.13527 11.3157 8.97239 11.8065 L0 11.8065 L0 11.2255 C1.48912 11.1157 1.63503 10.9883 1.63503 9.02806 L1.63503 2.77946 L1.63448 2.77946 Z" transform="translate(134.703, 153.214)"/>
    <path style="fill:#ffffff; fill-rule:nonzero;stroke:none;" d="M3.79575 9.02806 C3.79575 10.9888 3.94111 11.1157 5.28541 11.2255 L5.28541 11.8065 L0 11.8065 L0 11.2255 C1.38037 11.1157 1.52573 10.9883 1.52519 9.02806 L1.52519 2.77946 C1.52519 0.817552 1.38037 0.690769 0.0721335 0.58092 L0.0721335 0 L4.9936 0 C6.53791 0 7.51935 0.162855 8.24617 0.618084 C8.97294 1.07168 9.44455 1.92529 9.44455 2.9609 C9.44455 4.5419 8.50029 5.50316 7.10131 6.02945 C7.35598 6.53769 8.04616 7.77332 8.57297 8.62858 C9.18993 9.59043 9.68065 10.2987 10.0074 10.6796 C10.3714 11.0785 10.6255 11.2791 11.0796 11.4244 L11.0435 11.9698 L10.3899 11.9332 C8.17404 11.8065 7.55653 11.3331 6.84833 10.2812 C6.28488 9.44559 5.77669 8.39141 5.30454 7.41047 C5.0324 6.82954 4.77775 6.68416 4.21489 6.68416 L3.79684 6.68416 L3.79684 9.02806 L3.79575 9.02806 Z M3.79575 6.01199 L4.32254 6.01199 C5.06738 6.01199 5.55757 5.88516 5.99363 5.53977 C6.70183 4.97636 6.97397 4.12274 6.97397 3.2325 C6.97397 1.43509 5.72039 0.779843 4.70343 0.779843 C3.84985 0.779843 3.79575 0.835589 3.79575 1.56297 L3.79575 6.01199 Z" transform="translate(144.91, 153.214)"/>
    <path style="fill:#ffffff; fill-rule:nonzero;stroke:none;" d="M6.88382 11.4441 L7.35543 11.3703 C8.02869 11.2802 8.11884 11.0801 7.81011 10.2998 C7.57346 9.69914 7.22919 8.75427 6.9565 8.08264 L3.74165 8.08264 C3.52361 8.60943 3.28699 9.41006 3.05147 10.1899 C2.77878 11.0971 2.81484 11.2965 3.65094 11.3884 L4.10505 11.4435 L4.10505 12.0245 L0 12.0245 L0 11.4441 C1.0902 11.3173 1.32573 11.225 1.96126 9.58988 L5.63024 0.254119 L6.52044 0 L7.71936 3.37897 C8.48222 5.53977 9.28063 7.70063 9.97136 9.53738 C10.6074 11.2435 10.8981 11.3342 11.8605 11.4441 L11.8605 12.025 L6.88437 12.025 L6.88437 11.4441 L6.88382 11.4441 Z M3.9963 7.15687 L6.64832 7.15687 L5.34006 3.41449 L5.2865 3.41449 L3.9963 7.15687 Z" transform="translate(155.844, 152.996)"/>
    <path style="fill:#ffffff; fill-rule:nonzero;stroke:none;" d="M6.37508 9.48112 C6.37508 11.4419 6.51935 11.5687 8.15548 11.6785 L8.15548 12.2595 L2.30718 12.2595 L2.30718 11.6785 C3.86843 11.5687 4.01379 11.4414 4.01379 9.48112 L4.01379 1.27114 L3.55913 1.27114 C2.08914 1.27114 1.59841 1.4881 1.32627 1.79687 C1.08965 2.05099 0.871614 2.55977 0.654119 3.46914 L0 3.46914 C0.0726801 2.17832 0.181973 0.925759 0.217493 0 L0.562314 0 C0.89019 0.416974 1.07107 0.453589 1.56125 0.453589 L8.86259 0.453589 C9.33529 0.453589 9.53475 0.344837 9.8615 0 L10.2069 0 C10.2255 0.762903 10.3151 2.17777 10.4069 3.41449 L9.75333 3.46914 C9.57079 2.48764 9.37132 1.97885 9.08171 1.68812 C8.79046 1.37935 8.19151 1.27114 7.11878 1.27114 L6.37508 1.27114 L6.37508 9.48112 L6.37508 9.48112 Z" transform="translate(166.397, 152.761)"/>
    <path style="fill:#ffffff; fill-rule:nonzero;stroke:none;" d="M3.84985 9.02806 C3.84985 10.9888 3.99521 11.1157 5.33897 11.2255 L5.33897 11.8065 L0 11.8065 L0 11.2255 C1.34376 11.1157 1.48912 10.9883 1.48912 9.02806 L1.48912 2.77946 C1.48912 0.817552 1.34376 0.690769 0 0.58092 L0 0 L5.33897 0 L5.33897 0.58092 C3.99521 0.690769 3.84985 0.818098 3.84985 2.77946 L3.84985 9.02806 Z" transform="translate(177.748, 153.214)"/>
    <path style="fill:#ffffff; fill-rule:nonzero;stroke:none;" d="M6.37618 0 C9.62709 0 12.1878 2.47124 12.1878 5.99338 C12.1878 9.82705 9.53639 12.3513 5.93951 12.3513 C2.36182 12.3513 0 9.68167 0 6.35733 C0 3.43362 1.98094 0 6.37618 0 Z M6.35756 11.5343 C8.22761 11.5343 9.49975 9.93576 9.49975 6.57649 C9.49975 2.96035 8.22761 0.818098 5.90402 0.818098 C4.01488 0.818098 2.68807 2.68874 2.68807 5.84964 C2.68861 9.0095 3.94111 11.5343 6.35756 11.5343 Z" transform="translate(184.413, 152.941)"/>
    <path style="fill:#ffffff; fill-rule:nonzero;stroke:none;" d="M11.1714 11.9343 L10.0637 11.9343 L2.87004 3.06965 L2.83397 3.06965 L2.83397 6.83009 C2.83397 8.73735 2.94381 9.7363 3.01649 10.2992 C3.1072 10.9353 3.55967 11.1719 4.75917 11.2266 L4.75917 11.8075 L0.256293 11.8075 L0.256293 11.2266 C1.16342 11.19 1.59896 10.9353 1.68967 10.2992 C1.76344 9.73685 1.87219 8.73789 1.87219 6.83009 L1.87219 3.2336 C1.87219 2.0723 1.87219 1.63565 1.54322 1.19955 C1.19949 0.763449 0.744831 0.636666 0 0.581466 L0 0.00054649 L3.1613 0.00054649 L10.1714 8.17334 L10.2074 8.17334 L10.2074 4.97636 C10.2074 3.0691 10.0987 2.07176 10.0271 1.50832 C9.93527 0.872747 9.48173 0.635569 8.2833 0.58092 L8.2833 0 L12.7873 0 L12.7873 0.58092 C11.8791 0.618084 11.4424 0.872747 11.3528 1.50832 C11.2801 2.07121 11.1703 3.06856 11.1703 4.97636 L11.1714 11.9343 Z" transform="translate(197.544, 153.213)"/>
    <path style="fill:#ffffff; fill-rule:nonzero;stroke:none;" d="M8.3746 4.03203 C8.3746 6.99348 6.28597 8.42639 4.19685 8.42639 C1.3995 8.42639 0 6.35733 0 4.41348 C0 1.54275 2.25307 0 4.28757 0 C6.81224 0 8.3746 1.92475 8.3746 4.03203 Z M4.39686 7.66456 C5.05098 7.66456 5.86848 7.21095 5.86738 4.57688 C5.86738 2.16193 5.17776 0.763449 4.01543 0.763449 C3.27059 0.763449 2.50828 1.72528 2.50828 3.68719 C2.50882 5.97646 3.23453 7.66456 4.39686 7.66456 Z" transform="translate(214.78, 156.811)"/>
    <path style="fill:#ffffff; fill-rule:nonzero;stroke:none;" d="M3.54219 5.83217 L3.54219 11.1179 C3.54219 12.0977 3.6329 12.19 5.10453 12.3169 L5.10453 12.8978 L0.200007 12.8978 L0.200007 12.3169 C1.23556 12.19 1.32627 12.0977 1.32627 11.1179 L1.32627 5.83217 L0.127873 5.83217 L0 5.595 L0.581442 4.90477 L1.32627 4.90477 L1.32627 4.52332 C1.32627 3.9976 1.41699 3.54401 1.54376 3.12484 C1.65251 2.76143 1.92465 1.83676 2.88753 0.999536 C3.59629 0.382545 4.25041 0.108752 5.01273 0 C5.81327 0.036615 6.37563 0.308769 6.70238 0.672733 C6.93957 0.92685 6.92101 1.16239 6.81115 1.38099 C6.72154 1.54439 6.539 1.81654 6.35756 1.963 C6.13898 2.14225 5.9767 2.10782 5.81327 1.963 C5.44826 1.63456 4.6149 1.16239 4.12363 1.16239 C3.76078 1.16239 3.59629 1.34437 3.5247 1.65369 C3.45093 1.94278 3.45093 2.63355 3.5247 4.30473 L3.54164 4.90423 L5.61222 4.90423 C5.70292 5.1037 5.63133 5.6857 5.34006 5.83108 L3.54219 5.83108 L3.54219 5.83217 Z" transform="translate(224.006, 152.123)"/>
    <path style="fill:#ffffff; fill-rule:nonzero;stroke:none;" d="M3.79411 9.02806 C3.79411 10.9888 3.94056 11.1157 5.55647 11.2255 L5.55647 11.8065 L0 11.8065 L0 11.2255 C1.34266 11.1157 1.48802 10.9883 1.48802 9.02806 L1.48802 2.77946 C1.48802 0.817552 1.34266 0.690769 0.0907133 0.58092 L0.0907133 0 L4.97557 0 C6.3931 0 7.4636 0.19947 8.22761 0.725745 C9.04507 1.28917 9.49866 2.16084 9.49866 3.35929 C9.49866 5.6666 7.75381 6.77432 5.84827 7.0104 C5.55593 7.04756 5.24716 7.04756 5.0477 7.04756 L3.79356 6.77432 L3.79356 9.02806 L3.79411 9.02806 Z M3.79411 5.97646 C4.10341 6.08408 4.48593 6.17593 4.86682 6.17593 C5.37612 6.17593 6.97343 5.84909 6.97343 3.30519 C6.97343 1.36186 5.93788 0.779843 4.63075 0.779843 C3.83127 0.779843 3.79411 0.907177 3.79411 1.43509 L3.79411 5.97646 L3.79411 5.97646 Z" transform="translate(234.269, 153.214)"/>
    <path style="fill:#ffffff; fill-rule:nonzero;stroke:none;" d="M3.99576 8.95482 C3.99576 10.2812 4.06734 10.6796 4.44932 10.8441 C4.75862 10.9714 5.24771 10.9888 5.81109 10.9888 C6.51989 10.9888 7.35434 10.8796 7.77293 10.426 C8.06418 10.0817 8.35434 9.49913 8.6451 8.62913 L9.29919 8.7559 C9.19048 9.4636 8.82649 11.3157 8.66421 11.8065 L0 11.8065 L0 11.2255 C1.48912 11.1157 1.63393 10.9883 1.63393 9.02806 L1.63393 2.77946 C1.63393 0.817552 1.48857 0.690769 0.106561 0.58092 L0.106561 0 L5.55757 0 L5.55757 0.58092 C4.14112 0.690769 3.9963 0.818098 3.9963 2.77946 L3.9963 8.95482 L3.99576 8.95482 Z" transform="translate(244.767, 153.214)"/>
    <path style="fill:#ffffff; fill-rule:nonzero;stroke:none;" d="M6.88382 11.4441 L7.35543 11.3703 C8.02869 11.2802 8.11938 11.0801 7.81011 10.2998 C7.57401 9.69914 7.22864 8.75427 6.95595 8.08209 L3.7411 8.08209 C3.5247 8.60943 3.28754 9.41006 3.05147 10.1899 C2.77932 11.0971 2.8143 11.2965 3.65039 11.3884 L4.10396 11.4435 L4.10396 12.0245 L0 12.0245 L0 11.4441 C1.08965 11.3173 1.32573 11.225 1.96181 9.58988 L5.63133 0.254119 L6.52044 0 L7.71991 3.37897 C8.48222 5.53977 9.28117 7.70063 9.97081 9.53738 C10.6069 11.2435 10.8981 11.3342 11.8599 11.4441 L11.8599 12.025 L6.88328 12.025 L6.88328 11.4441 L6.88382 11.4441 Z M3.99685 7.15687 L6.64832 7.15687 L5.34061 3.41449 L5.28705 3.41449 L3.99685 7.15687 Z" transform="translate(254.065, 152.996)"/>
    <path style="fill:#ffffff; fill-rule:nonzero;stroke:none;" d="M11.1714 11.9343 L10.0626 11.9343 L2.87004 3.06965 L2.83288 3.06965 L2.83397 6.83009 C2.83397 8.73735 2.94272 9.7363 3.01539 10.2992 C3.1072 10.9353 3.56077 11.1719 4.75917 11.2266 L4.75917 11.8075 L0.255199 11.8075 L0.255199 11.2266 C1.16233 11.19 1.59896 10.9353 1.68967 10.2992 C1.76235 9.73685 1.8711 8.73789 1.8711 6.83009 L1.8711 3.2336 C1.8711 2.0723 1.8711 1.63565 1.54322 1.19955 C1.19949 0.763449 0.744831 0.636666 0 0.581466 L0 0.00054649 L3.1613 0.00054649 L10.1714 8.17334 L10.2074 8.17334 L10.2074 4.97636 C10.2074 3.0691 10.0987 2.07176 10.026 1.50832 C9.93527 0.872747 9.48064 0.635569 8.28221 0.58092 L8.28221 0 L12.7862 0 L12.7862 0.58092 C11.8791 0.618084 11.4424 0.872747 11.3517 1.50832 C11.2791 2.07121 11.1714 3.06856 11.1714 4.97636 L11.1714 11.9343 Z" transform="translate(266.162, 153.213)"/>
    <path style="fill:#ffffff; fill-rule:nonzero;stroke:none;" d="M1.63503 2.77946 C1.63503 0.817552 1.49076 0.690769 0.182519 0.58092 L0.182519 0 L8.51831 0 C8.53742 0.308769 8.62812 1.63456 8.71887 2.83411 L8.06473 2.88876 C7.88333 2.03459 7.68387 1.52581 7.39256 1.23508 C7.1024 0.926305 6.50351 0.818098 5.43187 0.818098 L4.7231 0.818098 C4.03346 0.818098 3.99739 0.818098 3.99739 1.45313 L3.99739 5.17638 L5.32312 5.17638 C6.88437 5.17638 6.94012 5.08511 7.12042 3.65167 L7.77456 3.65167 L7.77456 7.62849 L7.12042 7.62849 C6.94012 6.19394 6.88437 6.10324 5.32312 6.10324 L3.99739 6.10324 L3.99739 8.95482 C3.99739 10.2806 4.06898 10.6626 4.45096 10.8441 C4.75917 10.9888 5.24935 10.9888 5.99417 10.9888 C6.82971 10.9888 7.66579 10.8796 8.06473 10.4429 C8.37405 10.1167 8.66367 9.49858 8.95601 8.62913 L9.60907 8.7559 C9.5003 9.4636 9.13746 11.3157 8.97294 11.8065 L0 11.8065 L0 11.2255 C1.49131 11.1157 1.63612 10.9883 1.63612 9.02806 L1.63503 2.77946 Z" transform="translate(279.656, 153.214)"/>
    <path style="fill:#ffffff; fill-rule:nonzero;stroke:none;" d="M6.37345 9.48112 C6.37345 11.4419 6.51989 11.5687 8.15384 11.6785 L8.15384 12.2595 L2.30608 12.2595 L2.30608 11.6785 C3.86734 11.5687 4.01379 11.4414 4.01379 9.48112 L4.01379 1.27114 L3.55804 1.27114 C2.08859 1.27114 1.59732 1.48755 1.32518 1.79687 C1.08801 2.05099 0.870522 2.55977 0.653027 3.46914 L0 3.46914 C0.0715869 2.17832 0.180334 0.925759 0.217493 0 L0.562314 0 C0.89019 0.416974 1.07162 0.453589 1.56234 0.453589 L8.86259 0.453589 C9.33419 0.453589 9.53421 0.34429 9.86041 0 L10.2063 0 C10.2255 0.762903 10.3162 2.17777 10.4069 3.41449 L9.75278 3.46914 C9.57024 2.48764 9.37187 1.97885 9.08062 1.68812 C8.78936 1.37935 8.19042 1.27114 7.11878 1.27114 L6.37345 1.27114 L6.37345 9.48112 Z" transform="translate(289.756, 152.761)"/>
    <path style="fill:#ffffff; fill-rule:nonzero;stroke:none;" d="M0.652481 8.59197 C0.96178 9.59152 1.99624 11.5338 3.79575 11.5338 C4.99415 11.5338 5.66573 10.6435 5.66573 9.60953 C5.66573 8.37335 4.99415 7.77496 3.61323 7.17488 L3.24928 7.01203 C1.723 6.34041 0.434986 5.28568 0.434986 3.56094 C0.434986 1.61653 1.94323 0 4.46735 0 C5.01163 0 5.5936 0.0737767 6.13789 0.254119 C6.42914 0.345384 6.70128 0.418067 6.92046 0.491297 C6.99205 1.146 7.11987 1.963 7.30023 3.05326 L6.64613 3.18004 C6.28433 2.10837 5.73787 0.818098 4.19467 0.818098 C3.08699 0.818098 2.43232 1.61707 2.43232 2.63409 C2.43232 3.56094 3.10556 4.21455 4.41325 4.77744 L4.99469 5.03211 C6.44612 5.65018 7.78985 6.61202 7.79094 8.57336 C7.79094 10.7162 6.1024 12.3513 3.48645 12.3513 C2.8143 12.3513 2.1416 12.2239 1.65196 12.0616 C1.14266 11.8977 0.79784 11.7534 0.562314 11.6436 C0.416953 11.1714 0.19946 9.91884 0 8.82805 L0.652481 8.59197 Z" transform="translate(301.018, 152.941)"/>
   </g>
  </g>
 </g>
</svg>
