<?xml version="1.0" encoding="iso-8859-1"?><!-- Generator: Adobe Illustrator 16.0.0, SVG Export Plug-In . SVG Version: 6.00 Build 0) --><!DOCTYPE svg PUBLIC "-//W3C//DTD SVG 1.1//EN" "http://www.w3.org/Graphics/SVG/1.1/DTD/svg11.dtd"><svg version="1.1" id="Layer_1" xmlns="http://www.w3.org/2000/svg" xmlns:xlink="http://www.w3.org/1999/xlink" x="0px" y="0px" width="192.756px" height="192.756px" viewBox="0 0 192.756 192.756" style="enable-background:new 0 0 192.756 192.756;" xml:space="preserve"><g><polygon style="fill-rule:evenodd;clip-rule:evenodd;fill:#FFFFFF;" points="0,0 192.756,0 192.756,192.756 0,192.756 0,0	"/><path style="fill-rule:evenodd;clip-rule:evenodd;fill:#272727;" d="M38.748,87.844h5.147v9.753c0,1.354,0.542,2.438,2.438,2.438	c1.625,0,2.167-1.084,2.167-2.438v-9.753h5.147v9.21c0,5.42-2.709,7.586-7.586,7.586c-4.606,0-7.315-2.166-7.315-7.855V87.844	L38.748,87.844z"/><polygon style="fill-rule:evenodd;clip-rule:evenodd;fill:#272727;" points="96.996,104.912 96.996,87.844 102.143,87.844	102.143,104.912 96.996,104.912	"/><polygon style="fill-rule:evenodd;clip-rule:evenodd;fill:#272727;" points="146.574,104.912 146.574,87.844 159.578,87.844	159.578,91.908 151.451,91.908 151.451,94.346 159.578,94.346 159.578,98.41 151.451,98.41 151.451,100.848 159.578,100.848	159.578,104.912 146.574,104.912	"/><path style="fill-rule:evenodd;clip-rule:evenodd;fill:#272727;" d="M175.021,104.912V87.844h6.771	c5.148,0,8.129,2.438,8.129,8.127c0,6.503-3.252,8.94-8.129,8.94H175.021L175.021,104.912z M180.168,100.848h1.084	c2.438,0,3.521-1.354,3.521-4.605c0-3.521-0.812-4.334-3.521-4.334h-1.084V100.848L180.168,100.848z"/><polygon style="fill-rule:evenodd;clip-rule:evenodd;fill:#272727;" points="76.947,104.912 71.529,96.785 71.529,104.912	66.923,104.912 66.923,87.844 71.529,87.844 76.947,95.701 76.947,87.844 81.824,87.844 81.824,104.912 76.947,104.912	"/><polygon style="fill-rule:evenodd;clip-rule:evenodd;fill:#272727;" points="118.127,87.844 116.23,92.45 121.379,92.45	121.379,104.912 126.525,104.912 126.525,92.45 130.59,92.45 132.486,87.844 118.127,87.844	"/><path style="fill-rule:evenodd;clip-rule:evenodd;fill:#517CAF;" d="M7.05,102.475c-0.542-1.355,0-2.98,0-2.98l4.605-11.65H7.321	l-3.793,9.753c0,0-1.083,2.709-0.542,4.877c0.813,1.625,2.98,2.438,5.148,1.354C7.592,103.557,7.05,103.016,7.05,102.475	L7.05,102.475z"/><path style="fill-rule:evenodd;clip-rule:evenodd;fill:#517CAF;" d="M7.592,102.475c0.271,0.27,0.542,0.812,1.083,1.082	c0,0,1.896-0.812,2.98-3.791l4.876-11.921h-4.334l-3.793,9.753C7.592,99.494,7.05,101.119,7.592,102.475L7.592,102.475z"/><path style="fill-rule:evenodd;clip-rule:evenodd;fill:#AA4E44;" d="M21.951,87.844l-4.064,9.753c0,0-0.813,2.98-2.438,4.877	c-0.271,0.541-2.167,2.166-3.793,2.166c0,0,4.605,0.271,6.773-1.354c1.354-0.812,2.167-1.896,2.98-3.521l4.605-11.921H21.951	L21.951,87.844z"/><path style="fill-rule:evenodd;clip-rule:evenodd;fill:#AA4E44;" d="M16.532,99.766l4.605-11.921h-4.064l-3.792,9.753	c0,0-1.355,3.793-2.98,5.146c-0.271,0.543-1.896,1.896-3.25,1.896c0,0,4.334,0.271,6.502-1.354	C14.907,102.475,15.719,101.391,16.532,99.766L16.532,99.766z"/></g></svg>