<?xml version="1.0" encoding="UTF-8" standalone="no"?>
<svg
   xmlns:dc="http://purl.org/dc/elements/1.1/"
   xmlns:cc="http://creativecommons.org/ns#"
   xmlns:rdf="http://www.w3.org/1999/02/22-rdf-syntax-ns#"
   xmlns:svg="http://www.w3.org/2000/svg"
   xmlns="http://www.w3.org/2000/svg"
   viewBox="0 0 1587.4 1122.52"
   height="1122.52"
   width="1587.4"
   xml:space="preserve"
   id="svg2"
   version="1.1"><metadata
     id="metadata8"><rdf:RDF><cc:Work
         rdf:about=""><dc:format>image/svg+xml</dc:format><dc:type
           rdf:resource="http://purl.org/dc/dcmitype/StillImage" /></cc:Work></rdf:RDF></metadata><defs
     id="defs6"><clipPath
       id="clipPath18"
       clipPathUnits="userSpaceOnUse"><path
         id="path16"
         d="M 0,841.89 H 1190.551 V 0 H 0 Z" /></clipPath></defs><g
     transform="matrix(1.3333333,0,0,-1.3333333,0,1122.52)"
     id="g10"><g
       id="g12"><g
         clip-path="url(#clipPath18)"
         id="g14"><g
           transform="translate(434.8887,414.1514)"
           id="g20"><path
             id="path22"
             style="fill:#231f20;fill-opacity:1;fill-rule:nonzero;stroke:none"
             d="m 0,0 c 0,-4.008 -0.225,-6.208 -1.617,-9.063 -1.688,-3.347 -5.217,-6.244 -11.081,-6.244 -5.851,0 -9.394,2.897 -11.074,6.244 -1.4,2.855 -1.639,5.055 -1.639,9.063 v 25.573 h 5.112 V -0.752 c 0,-6.321 2.778,-10.385 7.601,-10.385 4.809,0 7.607,4.064 7.607,10.385 V 25.573 H 0 Z" /></g><g
           transform="translate(443.8115,439.7246)"
           id="g24"><path
             id="path26"
             style="fill:#231f20;fill-opacity:1;fill-rule:nonzero;stroke:none"
             d="m 0,0 h 6.335 l 15.258,-33.413 h 0.112 V 0 h 4.866 V -40.479 H 20.257 L 4.999,-7.313 H 4.887 V -40.479 H 0 Z" /></g><path
           id="path28"
           style="fill:#231f20;fill-opacity:1;fill-rule:nonzero;stroke:none"
           d="m 479.313,439.725 h 5.104 v -40.479 h -5.104 z" /><g
           transform="translate(489.3945,439.7246)"
           id="g30"><path
             id="path32"
             style="fill:#231f20;fill-opacity:1;fill-rule:nonzero;stroke:none"
             d="m 0,0 h 5.569 l 9.408,-32.991 h 0.105 L 25.004,0 h 5.104 L 17.41,-40.479 h -5.105 z" /></g><g
           transform="translate(524.4951,439.7246)"
           id="g34"><path
             id="path36"
             style="fill:#231f20;fill-opacity:1;fill-rule:nonzero;stroke:none"
             d="M 0,0 H 18.844 V -4.416 H 5.091 v -12.867 h 13.12 v -4.402 H 5.091 V -36.07 h 14.505 v -4.409 H 0 Z" /></g><g
           transform="translate(551.3398,399.2451)"
           id="g38"><path
             id="path40"
             style="fill:#231f20;fill-opacity:1;fill-rule:nonzero;stroke:none"
             d="m 0,0 h 5.105 v 18.331 h 2.321 c 3.839,0 5.273,-1.272 6.433,-4.641 L 18.507,0 h 5.513 l -5.71,16.235 c -0.788,2.314 -1.955,3.488 -4.388,3.938 v 0.112 c 5.976,1.28 8.009,5.414 8.009,9.703 0,2.953 -0.935,5.731 -3.017,7.7 -1.855,1.757 -4.239,2.791 -8.528,2.791 L 0,40.479 Z m 5.105,36.303 h 4.064 c 4.458,0 7.411,-2.152 7.411,-6.673 0,-3.529 -2.081,-7.122 -7.523,-7.122 H 5.105 v 13.795" /></g><g
           transform="translate(598.1406,433.8672)"
           id="g42"><path
             id="path44"
             style="fill:#231f20;fill-opacity:1;fill-rule:nonzero;stroke:none"
             d="m 0,0 c -1.913,1.16 -4.402,1.85 -6.891,1.85 -3.839,0 -6.342,-2.602 -6.342,-6.027 0,-2.608 1.069,-4.225 6.862,-7.6 6.258,-3.586 8.34,-7.122 8.34,-11.763 0,-6.441 -3.994,-11.482 -11.771,-11.482 -3.241,0 -6.314,0.689 -8.452,1.729 v 5.288 c 2.3,-1.406 5.316,-2.616 7.699,-2.616 4.585,0 7.194,3.065 7.194,6.385 0,3.135 -0.816,4.922 -6.258,8.24 -7.313,4.401 -8.93,6.891 -8.93,12.108 0,6.665 5.091,10.153 11.25,10.153 2.658,0 5.513,-0.583 7.299,-1.343 z" /></g><path
           id="path46"
           style="fill:#231f20;fill-opacity:1;fill-rule:nonzero;stroke:none"
           d="m 607.189,439.725 h 5.098 v -40.479 h -5.098 z" /><g
           transform="translate(620.6406,399.2451)"
           id="g48"><path
             id="path50"
             style="fill:#231f20;fill-opacity:1;fill-rule:nonzero;stroke:none"
             d="m 0,0 h 6.328 c 15.188,0 20.742,9.162 20.742,20.876 0,9.112 -3.882,14.21 -7.467,16.692 -2.321,1.631 -5.4,2.911 -10.793,2.911 H 0 Z m 5.09,36.063 h 3.087 c 9.964,0 13.563,-6.708 13.563,-15.187 C 21.74,10.498 17.1,4.409 8.177,4.409 H 5.09 v 31.654" /></g><g
           transform="translate(663.0391,439.7246)"
           id="g52"><path
             id="path54"
             style="fill:#231f20;fill-opacity:1;fill-rule:nonzero;stroke:none"
             d="m 0,0 -13.57,-40.479 h 5.076 l 3.276,10.554 h 15.42 l 3.248,-10.554 h 5.323 L 5.568,0 Z m -3.84,-25.51 6.385,20.18 h 0.119 l 6.209,-20.18 z" /></g><g
           transform="translate(686.1719,399.2451)"
           id="g56"><path
             id="path58"
             style="fill:#231f20;fill-opacity:1;fill-rule:nonzero;stroke:none"
             d="m 0,0 h 6.328 c 15.201,0 20.749,9.162 20.749,20.876 0,9.112 -3.874,14.21 -7.474,16.692 -2.306,1.631 -5.386,2.911 -10.793,2.911 H 0 Z m 5.104,36.063 h 3.073 c 9.977,0 13.563,-6.708 13.563,-15.187 C 21.74,10.498 17.113,4.409 8.177,4.409 H 5.104 v 31.654" /></g><g
           transform="translate(720.0547,439.7246)"
           id="g60"><path
             id="path62"
             style="fill:#231f20;fill-opacity:1;fill-rule:nonzero;stroke:none"
             d="M 0,0 H 18.837 V -4.416 H 5.091 v -12.867 h 13.113 v -4.402 H 5.091 V -36.07 h 14.477 v -4.409 H 0 Z" /></g><g
           transform="translate(760.2383,399.2451)"
           id="g64"><path
             id="path66"
             style="fill:#231f20;fill-opacity:1;fill-rule:nonzero;stroke:none"
             d="m 0,0 h 6.314 c 15.188,0 20.756,9.162 20.756,20.876 0,9.112 -3.887,14.21 -7.473,16.692 -2.327,1.631 -5.394,2.911 -10.793,2.911 H 0 Z m 5.105,36.063 h 3.066 c 9.97,0 13.57,-6.708 13.57,-15.187 0,-10.378 -4.64,-16.467 -13.57,-16.467 H 5.105 v 31.654" /></g><g
           transform="translate(802.6299,439.7246)"
           id="g68"><path
             id="path70"
             style="fill:#231f20;fill-opacity:1;fill-rule:nonzero;stroke:none"
             d="m 0,0 -13.563,-40.479 h 5.105 l 3.248,10.554 h 15.427 l 3.234,-10.554 h 5.358 L 5.562,0 Z m -3.825,-25.51 6.371,20.18 h 0.119 l 6.216,-20.18 z" /></g><g
           transform="translate(864.1533,400.0537)"
           id="g72"><path
             id="path74"
             style="fill:#231f20;fill-opacity:1;fill-rule:nonzero;stroke:none"
             d="m 0,0 c -2.433,-0.752 -4.978,-1.209 -7.361,-1.209 -12.804,0 -18.211,9.745 -18.211,20.686 0,12.656 7.376,20.601 17.923,20.601 2.896,0 5.786,-0.527 7.649,-1.441 v -5.006 c -2.208,1.399 -4.753,2.032 -7.607,2.032 -6.589,0 -12.636,-5.273 -12.636,-15.117 0,-10.456 4.17,-17.354 13.015,-17.354 2.594,0 5.14,0.704 7.228,1.913 z" /></g><g
           transform="translate(869.7363,419.0811)"
           id="g76"><path
             id="path78"
             style="fill:#231f20;fill-opacity:1;fill-rule:nonzero;stroke:none"
             d="m 0,0 c 0,-12.53 5.73,-20.236 14.724,-20.236 9.562,0 15.172,7.073 15.172,21.045 0,12.522 -5.737,20.242 -14.715,20.242 C 5.611,21.051 0,13.971 0,0 m 5.315,0 c 0,12.459 4.529,16.875 9.866,16.875 6.855,0 9.4,-7.89 9.4,-16.066 0,-12.467 -4.528,-16.875 -9.857,-16.875 -6.863,0 -9.409,7.895 -9.409,16.066" /></g><g
           transform="translate(906.9033,399.2451)"
           id="g80"><path
             id="path82"
             style="fill:#231f20;fill-opacity:1;fill-rule:nonzero;stroke:none"
             d="m 0,0 h 5.077 v 18.331 h 2.348 c 3.825,0 5.246,-1.272 6.427,-4.641 L 18.479,0 h 5.526 l -5.682,16.235 c -0.829,2.314 -1.969,3.488 -4.408,3.938 v 0.112 c 5.955,1.28 7.994,5.414 7.994,9.703 0,2.953 -0.928,5.731 -3.015,7.7 -1.843,1.757 -4.227,2.791 -8.53,2.791 L 0,40.479 Z m 5.077,36.303 h 4.078 c 4.472,0 7.425,-2.152 7.425,-6.673 0,-3.529 -2.096,-7.122 -7.552,-7.122 H 5.077 v 13.795" /></g><g
           transform="translate(962.3945,414.1514)"
           id="g84"><path
             id="path86"
             style="fill:#231f20;fill-opacity:1;fill-rule:nonzero;stroke:none"
             d="m 0,0 c 0,-4.008 -0.239,-6.208 -1.617,-9.063 -1.702,-3.347 -5.238,-6.244 -11.096,-6.244 -5.85,0 -9.393,2.897 -11.067,6.244 -1.407,2.855 -1.617,5.055 -1.617,9.063 v 25.573 h 5.09 V -0.752 c 0,-6.321 2.791,-10.385 7.594,-10.385 4.83,0 7.622,4.064 7.622,10.385 V 25.573 H 0 Z" /></g><g
           transform="translate(971.3164,439.7246)"
           id="g88"><path
             id="path90"
             style="fill:#231f20;fill-opacity:1;fill-rule:nonzero;stroke:none"
             d="m 0,0 h 6.336 l 15.243,-33.413 h 0.112 V 0 h 4.88 V -40.479 H 20.243 L 4.992,-7.313 H 4.887 V -40.479 H 0 Z M 21.748,9.513 C 21.102,5.681 19.625,3.305 16.826,3.305 15.898,3.305 14.97,3.48 12.832,4.507 11.019,5.399 10.674,5.498 10.104,5.498 9.057,5.498 8.009,4.865 7.84,3.009 H 4.816 c 0.402,3.952 2.272,6.216 5.506,6.216 1.062,0 2.096,-0.295 4.423,-1.449 1.153,-0.59 1.61,-0.752 2.018,-0.752 1.048,0 1.638,0.865 1.962,2.489 h 3.023" /></g><g
           transform="translate(1016.3799,439.7246)"
           id="g92"><path
             id="path94"
             style="fill:#231f20;fill-opacity:1;fill-rule:nonzero;stroke:none"
             d="m 0,0 -13.556,-40.479 h 5.105 l 3.241,10.554 h 15.434 l 3.234,-10.554 h 5.337 L 5.562,0 Z m -3.825,-25.51 6.371,20.18 h 0.112 l 6.223,-20.18 z" /></g><g
           transform="translate(274.1709,420.2197)"
           id="g96"><path
             id="path98"
             style="fill:#d7058d;fill-opacity:1;fill-rule:nonzero;stroke:none"
             d="M 0,0 80.823,36.473 C 60.482,46.774 31.805,53.205 0.001,53.205 c -31.811,0 -60.486,-6.431 -80.824,-16.731 z" /></g><g
           transform="translate(384.2939,428.4463)"
           id="g100"><path
             id="path102"
             style="fill:#d7058d;fill-opacity:1;fill-rule:nonzero;stroke:none"
             d="M 0,0 C -2.251,6.509 -6.919,12.621 -13.542,18.118 L -103.886,-7.788 Z" /></g><g
           transform="translate(371.2793,392.8779)"
           id="g104"><path
             id="path106"
             style="fill:#d7058d;fill-opacity:1;fill-rule:nonzero;stroke:none"
             d="m 0,0 c 6.559,5.566 11.146,11.742 13.253,18.318 l -104.23,7.278 z" /></g><g
           transform="translate(274.1768,418.8145)"
           id="g108"><path
             id="path110"
             style="fill:#d7058d;fill-opacity:1;fill-rule:nonzero;stroke:none"
             d="m 0,0 -81.386,-36.226 c 20.369,-10.468 49.28,-17.015 81.381,-17.015 32.096,0 61.008,6.547 81.379,17.015 z" /></g><g
           transform="translate(163.8115,411.1963)"
           id="g112"><path
             id="path114"
             style="fill:#d7058d;fill-opacity:1;fill-rule:nonzero;stroke:none"
             d="M 0,0 C 2.106,-6.576 6.692,-12.752 13.249,-18.318 L 104.226,7.277 Z" /></g><g
           transform="translate(267.9326,420.6582)"
           id="g116"><path
             id="path118"
             style="fill:#d7058d;fill-opacity:1;fill-rule:nonzero;stroke:none"
             d="M 0,0 -90.34,25.91 C -96.964,20.411 -101.633,14.299 -103.884,7.788 Z" /></g></g></g></g></svg>