<?xml version="1.0" encoding="utf-8"?>
<!-- Generator: Adobe Illustrator 19.1.0, SVG Export Plug-In . SVG Version: 6.00 Build 0)  -->
<svg version="1.1" id="Layer_1" xmlns="http://www.w3.org/2000/svg" xmlns:xlink="http://www.w3.org/1999/xlink" x="0px" y="0px"
	 viewBox="0 0 460.5 165" style="enable-background:new 0 0 460.5 165;" xml:space="preserve">
<style type="text/css">
	.st0{fill:none;}
	.st1{fill:#6D6E71;}
	.st2{fill:#41C1C8;}
	.st3{font-family:'CorporateRoundedRegularSWFTE';}
	.st4{font-size:70.8438px;}
	.st5{fill:#F7941E;}
	.st6{fill:#015880;}
</style>
<g>
	<rect class="st0" width="460.5" height="165"/>
	<g>
		<g>
			<g>
				<path class="st1" d="M166.7,102.2V82.1c0-2.2,1-3.3,3.1-3.3c1,0,1.8,0.3,2.3,0.8c0.5,0.7,0.8,1.5,0.8,2.5V102
					c0,6.5,2.9,9.8,8.8,9.8c2.8,0,5-0.8,6.5-2.5c1.5-1.6,2.2-4.1,2.2-7.3V82.1c0-2.2,1-3.3,3.1-3.3c1,0,1.8,0.3,2.3,0.8
					c0.5,0.7,0.8,1.5,0.8,2.5v20.1c0,5.1-1.4,8.9-4.3,11.3c-2.9,2.4-6.4,3.6-10.7,3.6c-4.3,0-7.9-1.2-10.8-3.6
					C168.1,111.1,166.7,107.4,166.7,102.2z"/>
				<path class="st1" d="M203.3,113.8V82.1c0-2.2,1-3.3,3.1-3.3c1,0,1.8,0.3,2.3,0.8c0.5,0.7,0.8,1.5,0.8,2.4v1.5v0.1
					c1.4-1.7,3-3,4.8-3.7c1.8-0.8,3.7-1.2,5.8-1.2c3.5,0,6.6,1.2,9.2,3.5c2.6,2.3,4,5.9,4,10.8v20.8c0,2.2-1,3.3-3.1,3.3
					c-1,0-1.8-0.3-2.3-0.9c-0.6-0.6-0.9-1.4-0.9-2.4V93.4c0-3.1-0.9-5.4-2.6-6.9c-1.7-1.6-3.8-2.3-6.1-2.3c-2.3,0-4.4,0.8-6.1,2.3
					c-1.8,1.6-2.7,3.9-2.7,6.9v20.5c0,2.2-1,3.3-3.1,3.3c-1,0-1.8-0.3-2.3-0.9C203.6,115.7,203.3,114.9,203.3,113.8z"/>
				<path class="st1" d="M239.9,113.8V82.1c0-2.2,1-3.3,3.1-3.3c1,0,1.8,0.3,2.3,0.8c0.5,0.7,0.8,1.5,0.8,2.5v3.2
					c0.9-1.6,2.1-3.1,3.8-4.5c1.7-1.4,3.3-2.1,5-2.1c1,0,1.9,0.3,2.5,0.9c0.6,0.6,1,1.4,1,2.3c0,1.8-1.2,2.9-3.6,3.3
					c-2.4,0.4-4.4,1.5-6.1,3.2c-1.7,1.7-2.5,4.2-2.5,7.5v17.9c0,2.2-1,3.3-3.1,3.3c-1,0-1.8-0.3-2.3-0.9
					C240.2,115.7,239.9,114.9,239.9,113.8z"/>
				<path class="st1" d="M274.9,78.7c5,0,9,1.9,12,5.6c3,3.8,4.5,8.3,4.5,13.6c0,5.3-1.5,9.8-4.4,13.6c-3,3.8-7,5.6-12.1,5.6
					c-5.1,0-9.2-1.9-12.1-5.6c-3-3.7-4.5-8.3-4.5-13.6c0-5.3,1.5-9.8,4.4-13.6C265.6,80.6,269.7,78.7,274.9,78.7z M274.9,111.8
					c3.5,0,6.1-1.4,7.8-4.2c1.7-2.8,2.6-6,2.6-9.7c0-3.7-0.8-6.9-2.5-9.7c-1.7-2.7-4.3-4.1-7.8-4.1c-3.5,0-6.2,1.4-7.9,4.2
					c-1.7,2.8-2.6,6-2.6,9.7c0,3.7,0.8,6.9,2.5,9.7C268.7,110.4,271.3,111.8,274.9,111.8z"/>
				<path class="st1" d="M302.8,65.4v48.4c0,2.2-1,3.3-3.1,3.3c-1,0-1.8-0.3-2.3-0.9c-0.6-0.6-0.9-1.4-0.9-2.4V65.4
					c0-2.2,1-3.3,3.1-3.3c1,0,1.8,0.3,2.3,0.8C302.5,63.6,302.8,64.4,302.8,65.4z"/>
				<path class="st1" d="M315.6,65.4v48.4c0,2.2-1,3.3-3.1,3.3c-1,0-1.8-0.3-2.3-0.9c-0.6-0.6-0.9-1.4-0.9-2.4V65.4
					c0-2.2,1-3.3,3.1-3.3c1,0,1.8,0.3,2.3,0.8C315.3,63.6,315.6,64.4,315.6,65.4z"/>
			</g>
			<text transform="matrix(1 0 0 1 317.7023 116.7912)" class="st2 st3 st4">.</text>
			<g>
				<path class="st1" d="M360.3,113.8v-21c0-2.7-0.7-4.8-2.1-6.3c-1.4-1.6-3.4-2.3-6-2.3c-2.5,0-4.5,0.8-6,2.3
					c-1.4,1.6-2.1,3.7-2.1,6.3v21c0,2.2-1,3.3-3.1,3.3c-1,0-1.8-0.3-2.3-0.9c-0.6-0.6-0.9-1.4-0.9-2.4V82.1c0-2.2,1-3.3,3.1-3.3
					c1,0,1.8,0.3,2.3,0.8c0.5,0.7,0.8,1.5,0.8,2.4v1.1v0.1c1-1.3,2.2-2.3,3.6-3.2c1.4-0.9,3.4-1.3,6-1.3c2,0,3.9,0.5,5.7,1.5
					c1.8,1,3.3,2.6,4.7,4.9c1.5-2.2,3.2-3.8,4.9-4.8c1.8-1,4-1.6,6.6-1.6c3.5,0,6.6,1.2,9.2,3.5c2.6,2.3,4,5.9,4,10.8v20.8
					c0,2.2-1.1,3.3-3.2,3.3c-1,0-1.8-0.3-2.2-0.9c-0.6-0.6-0.8-1.4-0.8-2.4v-21c0-2.7-0.7-4.8-2.1-6.3c-1.4-1.6-3.4-2.3-6-2.3
					c-2.5,0-4.5,0.8-5.9,2.3c-1.4,1.6-2.1,3.7-2.1,6.3v21c0,2.2-1,3.3-3.1,3.3c-1,0-1.8-0.3-2.3-0.9
					C360.6,115.7,360.3,114.9,360.3,113.8z"/>
				<path class="st1" d="M423.1,100.4h-23.5c0,3.2,1,5.9,3,8.1c2,2.2,4.7,3.3,8.2,3.3c2.7,0,5.1-0.5,7-1.5l5.7-3.5
					c0.6,0,1.1,0.2,1.6,0.7c0.4,0.5,0.7,1.2,0.7,2c0,1.5-1.7,3.2-5,5c-3.3,1.8-6.7,2.7-10.1,2.7c-5.7,0-10-1.8-13-5.5
					c-2.9-3.7-4.4-8.2-4.4-13.7c0-5.3,1.5-9.8,4.6-13.6c3.1-3.7,7.2-5.6,12.4-5.6c4.9,0,8.8,1.8,11.8,5.5c3,3.7,4.4,7.9,4.4,12.7
					c0,1.2-0.2,2-0.7,2.5C425.4,100.1,424.4,100.4,423.1,100.4z M399.6,95.7h20.8c0-3-0.9-5.6-2.6-8c-1.7-2.4-4.2-3.6-7.4-3.6
					c-3.6,0-6.3,1.1-8.1,3.4C400.5,89.8,399.6,92.5,399.6,95.7z"/>
			</g>
		</g>
		<g>
			<g>
				<path class="st5" d="M161.4,40.8c0-9.8-7.7-17.7-17.3-18.1v0h-8.9l-35.1,36.3l44,0C153.7,58.7,161.4,50.6,161.4,40.8"/>
			</g>
			<g>
				<path class="st2" d="M100.1,59.1v25c0,13-4.1,23.6-17.2,23.6c-13,0-17.2-10.6-17.2-23.6V36.3c0-0.6,0-1.1,0-1.7
					c0-0.3,0-0.6,0-0.9h0c0,0,0-0.1,0-0.1c0-0.3,0-0.5-0.1-0.7c0-0.1,0-0.1,0-0.2c-0.9-10-9.2-17.8-19.5-17.8c-0.7,0-1.3,0-2,0.1
					c-9.7,0.9-17.3,8.7-17.8,18.5c0,0.1,0,0.1,0,0.2v0.1v0.8v49.5c0,34.7,21.8,63,56.5,63c34.3,0,55.8-27.5,56.5-61.7V59.1H100.1z"
					/>
				<polygon class="st6" points="139.5,78.4 139.5,59.1 100.1,59.1 				"/>
			</g>
		</g>
	</g>
</g>
</svg>
