
<svg xmlns="http://www.w3.org/2000/svg" version="1.1" viewBox="0 0 900 200"><g transform="translate(-111.10555,-583.56809)"><path d="m89.3 657.6 107.9 0-53.9-70.7zM197.1 693l-107.9 0 53.9 70.7z" transform="matrix(0.6087,0,0,0.6782,60.6022,226.4219)" fill="#555"/></g><g transform="translate(-111.1,-583.568)"><g transform="matrix(1.04,0,0,1.04,-4.4,-22.89)" style="fill:#555;"><path d="m256.5 712.7c0-5.1 1.6-13.9 4.7-26.2 3.1-12.5 4.7-20.1 4.7-22.8 0-2.9-2.2-6.6-6.5-11.3l0.2-2.3c8.1-1.7 18.9-2.5 32.2-2.5 0.6 1.6 0.9 4.4 0.9 8.4 0 4.1-1.7 12.8-5 26-3.4 13.3-5 21.6-5 24.8 0 3.2 1.2 4.9 3.6 4.9 3.5 0 7.5-1.3 12-3.8 0.5-2.9 1.7-8.4 3.6-16.5 4.3-19.2 6.5-32.9 6.5-41.1 4.2-1.7 11.7-2.5 22.6-2.5h3.4c0 5.6-1.7 16.6-5 33.1-3.4 16.3-5 25.9-5 28.7 0 2.8 0.6 4.1 1.8 4.1 0.7 0 4.1-1.4 10.2-4.3l3.4 5.7c-10.7 8.9-20 13.3-28 13.3-3.8 0-7.1-1.1-9.9-3.2-2.6-2.2-4.1-5-4.5-8.4-9.7 7.9-18.5 11.9-26.4 11.9-4.2 0-7.7-1.4-10.4-4.1-2.6-2.8-4-6.6-4-11.7M339.3 766.4c-0.6-1.4-0.9-4.6-0.9-9.5s2.3-18.1 7-39.5c4.7-21.6 7-38.1 7-49.8 0-2.3-0.5-4.7-1.6-7.2-1.1-2.6-2.2-4.7-3.4-6.1l-1.6-2 0.2-2.3c5.6-1.8 15.6-2.7 29.8-2.7 1.3 2.5 2.2 6 2.5 10.6 9.2-7.5 16.9-11.3 23-11.3 6.2 0 11.2 2.6 14.9 7.7 3.8 5.1 5.7 12.7 5.7 22.6 0 17.4-3.2 30.3-9.5 38.8-6.3 8.4-14.4 12.6-24.1 12.6-5 0-9.2-0.7-12.6-2.2l-1.8-0.7 1.3-7c1.1 0.2 2.3 0.4 3.8 0.4 3.1 0 5.8-1.4 8.1-4.3 2.4-2.9 4.2-6.5 5.4-11 2.4-8.9 3.6-17.1 3.6-24.6 0-10.8-2.2-16.2-6.6-16.2-3.5 0-7.2 1.4-11.1 4.1-0.5 8.4-2.9 23.1-7.4 44s-6.6 37.8-6.6 50.7c-6.5 2.6-14.8 4.3-25 4.9M515.3 715.2c-10.2 8.7-19.2 13.1-26.9 13.1-7.7 0-12.1-3.8-13.3-11.5-3.6 3.6-7.6 6.4-12 8.4-4.4 2-8.3 3.1-11.7 3.1-5.7 0-10.7-2.5-14.7-7.5-4.1-5-6.1-12.8-6.1-23.4 0-15.8 3.4-28.2 10.1-37.2 6.7-9.1 14.3-13.7 22.6-13.7 8.5 0 15.6 1.9 21.4 5.7 3.7-19.4 5.6-34.7 5.6-45.8l-0.9-7.5c9-3.1 17.8-4.7 26.4-4.7 1 2 1.4 4.4 1.4 7 0 8.7-2.6 26.5-7.9 53.4-5.3 26.7-7.9 44.8-7.9 54.4 0 2.9 0.7 4.3 2 4.3 0.7 0 3-1.1 6.8-3.4l1.8-1.1 3.4 6.3m-43.3-58c-4.2 0-7.8 4.1-11 12.4-3 8.3-4.5 16.5-4.5 24.6 0 8 0.5 13.2 1.6 15.4 1.2 2.3 2.9 3.4 5.2 3.4 4 0 7.8-1.6 11.7-4.9 0.4-4.8 3.1-20.7 8.1-47.8-4.1-2.2-7.8-3.2-11.1-3.2M545.4 728.3c-8.3 0-14.7-2.9-19.4-8.6-4.7-5.9-7-14-7-24.4 0-13.3 3.5-24.7 10.6-34.3 7.2-9.6 17.1-14.4 29.6-14.4l6.5 0.4c2-1.1 4.3-1.6 6.8-1.6 9.5 0 14.2 8.9 14.2 26.8 4.9-0.2 9.9-0.9 14.9-2l2.9-0.7 1.1 7c-4 1.7-9.3 3.2-16 4.5l-3.6 0.7c-2.3 12.6-6.9 23.5-13.8 32.9-6.9 9.2-15.9 13.8-26.8 13.8m9.7-15.4c5 0 9.5-3.2 13.5-9.7 4.1-6.5 6.9-13.3 8.4-20.5-12.8 0-19.2-4.8-19.2-14.4 0-3.8 0.8-7.4 2.3-10.8l0.9-1.8c-0.5-0.2-1.1-0.4-1.8-0.4-0.7 0-1.3 0.1-1.6 0.4-3 1.9-5.8 6.4-8.4 13.5-2.6 7.1-4 15.1-4 24.3 0 12.9 3.3 19.4 9.9 19.4M597.6 711.4l2-46.9c0-4.1-2.2-8.3-6.5-12.6l0.4-2.2c0.8-0.2 1.6-0.4 2.3-0.5 0.8-0.2 1.7-0.5 2.7-0.7 1.1-0.2 2.3-0.5 3.6-0.7 1.3-0.2 2.7-0.5 4.1-0.7 3.4-0.4 6.5-0.5 9.3-0.5 3 0 5.5 1.2 7.5 3.6 2.2 2.4 3.2 6.2 3.2 11.5 0 5.1-0.8 12.6-2.5 22.3-1.6 9.6-2.3 16.8-2.3 21.6 0 4.7 1.1 7 3.4 7 3.7 0 7.8-2.3 12.2-7 0.1-1.9 0.9-8 2.3-18.3 1.4-10.3 2.2-17.8 2.2-22.5 0-4.7-0.4-8.7-1.1-12 9.2-3.5 17.5-5.2 24.8-5.2 1.6 1.1 2.3 4.6 2.3 10.6 0 5.9-1 14.1-3.1 24.6-2 10.4-3.1 18-3.1 22.8 0 4.7 1 7 2.9 7 4.6 0 9.5-3.4 14.9-10.1 5.4-6.8 8.3-12.5 8.6-17.1l-12.2-13.7c0.5-5.1 1.7-9.8 3.8-14 2-4.2 4-7.1 5.7-8.8l2.5-2.3c5.1 0 9 1.4 11.7 4.1 2.6 2.8 4 6 4 9.7 0 9.5-2.3 19.5-7 30-4.7 10.5-11 19.5-18.9 26.9-7.9 7.3-15.9 11-24.1 11-4.1 0-7.5-1.1-10.4-3.4-2.8-2.4-4.6-5.4-5.6-9.2-8.4 8.4-16.5 12.6-24.4 12.6-5.3 0-9.2-1.6-11.7-4.9-2.5-3.4-3.8-7.4-3.8-12M710.4 726.7l-3.4 0c0-5.6 1.7-16.4 5-32.3 3.5-15.9 5.2-25 5.2-27.1 0-4-1.7-8.1-5-12.6l-1.6-2.2 0.2-2.3c6.5-1.8 16.8-2.7 31.1-2.7 1.6 2 2.4 5.7 2.5 11.1 10.4-8 19.2-12 26.4-12 4.3 0 7.7 1.5 10.2 4.5 2.6 3 4 6.8 4 11.3 0 4.4-1.4 12.2-4.1 23.2-2.8 11-4.1 18.4-4.1 22.3 0 3.7 0.5 5.6 1.4 5.6 0.7 0 3.2-1.1 7.5-3.4l2.2-1.1 3.2 6.3c-1.1 1-2.5 2.2-4.3 3.6-1.8 1.4-5.1 3.4-10.1 5.9-4.8 2.4-9.1 3.6-12.9 3.6-8.7 0-13.1-5-13.1-14.9 0-4.2 1.3-11.9 4-23.2 2.8-11.3 4.1-18.5 4.1-21.7 0-3.2-1-4.8-3.1-4.9-3.5 0-7.7 1.5-12.8 4.5-0.4 2-1.6 7.4-3.6 16.2-4.2 18.8-6.3 32.1-6.3 39.9-4.2 1.7-11.7 2.5-22.6 2.5"/></g><g transform="matrix(1.0396758,0,0,1.0396758,-4.4069683,-22.88965)" style="fill:#5c4;"><path d="m812.2 728.3c-4.2 0-7.4-1.3-9.7-3.8s-3.4-5.9-3.4-10.1c0-4.2 1.6-7.8 4.7-10.8 3.1-3.1 6.8-4.7 11-4.7 4.3 0 7.6 1.3 9.9 3.8 2.3 2.4 3.4 5.7 3.4 9.9 0 4.1-1.6 7.7-4.9 11-3.1 3.1-6.8 4.7-11 4.7M878.5 657.7c0 5-1.6 13.7-4.9 26-3.2 12.2-4.9 20.2-4.9 24.1 0 3.7 0.5 5.6 1.6 5.6 0.7 0 3.5-1.1 8.3-3.4l2.2-1.1 3.1 6.3c-1.1 1-2.5 2.2-4.3 3.6-1.8 1.4-5.1 3.4-10.1 5.9-4.9 2.4-9.5 3.6-13.7 3.6-4.2 0-7.5-1.3-9.9-3.8-2.4-2.6-3.6-6.1-3.6-10.4 0-4.4 1.5-12.2 4.5-23.4 3-11.3 4.5-18.6 4.5-21.9 0-5-1.6-9.8-4.7-14.2l-1.6-2.2 0.2-2.3c6.3-1.8 16.6-2.7 30.9-2.7 1.6 1.8 2.3 5.2 2.3 10.2m-20.5-29.8c-2.4-2.4-3.6-5.6-3.6-9.5 0-4 1.6-7.4 4.9-10.4 3.4-3 7.2-4.5 11.5-4.5 4.3 0 7.7 1.2 10.1 3.6 2.4 2.4 3.6 5.6 3.6 9.5 0 3.8-1.7 7.2-5.2 10.2-3.4 3-7.1 4.5-11.3 4.5-4.2 0-7.5-1.1-9.9-3.4M915.3 728.3c-8.3 0-14.7-2.9-19.4-8.6-4.7-5.9-7-14-7-24.4 0-13.3 3.5-24.7 10.6-34.3 7.2-9.6 17.1-14.4 29.6-14.4l6.5 0.4c2-1.1 4.3-1.6 6.8-1.6 9.5 0 14.2 8.9 14.2 26.8 4.9-0.2 9.9-0.9 14.9-2l2.9-0.7 1.1 7c-4 1.7-9.3 3.2-16 4.5l-3.6 0.7c-2.3 12.6-6.9 23.5-13.8 32.9-6.9 9.2-15.9 13.8-26.8 13.8m9.7-15.4c5 0 9.5-3.2 13.5-9.7 4.1-6.5 6.9-13.3 8.4-20.5-12.8 0-19.2-4.8-19.2-14.4 0-3.8 0.8-7.4 2.3-10.8l0.9-1.8c-0.5-0.2-1.1-0.4-1.8-0.4-0.7 0-1.3 0.1-1.6 0.4-3 1.9-5.8 6.4-8.4 13.5-2.6 7.1-4 15.1-4 24.3 0 12.9 3.3 19.4 9.9 19.4"/></g></g></svg>