<?xml version="1.0" encoding="utf-8"?><!-- Generator: Adobe Illustrator 19.1.0, SVG Export Plug-In . SVG Version: 6.00 Build 0) --><svg version="1.1" id="Layer_1" xmlns="http://www.w3.org/2000/svg" xmlns:xlink="http://www.w3.org/1999/xlink" x="0px" y="0px" viewBox="0 0 39.4 48.3" style="enable-background:new 0 0 39.4 48.3;" xml:space="preserve"><style type="text/css">.st0{fill:#341B14;}	.st1{fill:#FFB406;}</style><g><path class="st0" d="M19.7,46.5c0.4-0.2,10.8-4.7,14.1-7.4c3.4-2.8,5.2-6.8,5.2-11.6V5l-0.3-0.1c-8.3-4.5-18.6-4.2-19.1-4.2	c-0.4,0-10.7-0.3-19,4.2L0.4,5v22.6c0,4.8,1.8,8.8,5.2,11.6C8.9,41.9,19.3,46.4,19.7,46.5"/><path class="st1" d="M19.7,47c0,0-11-4.8-14.4-7.5C1.7,36.5,0,32.4,0,27.7V4.3C8.7-0.4,19.7,0,19.7,0s11-0.4,19.7,4.3v23.3	c0,4.7-1.7,8.8-5.3,11.8C30.7,42.2,19.7,47,19.7,47 M1.6,27.7c0,4.4,1.6,8,4.7,10.5c2.8,2.3,11.1,6,13.4,7c2.3-1,10.7-4.8,13.4-7	c3.1-2.5,4.7-6.2,4.7-10.5v-23C26.2,3.6,12.4,4.2,1.6,14.2V27.7z"/><path class="st1" d="M30.8,24.4c1.5,0.9,2.1,1.5,2.2,2.6c0,1.2-0.8,1.9-2.1,1.9c-1.1,0-2.4-0.6-3.3-1.4v3.2	c1.1,0.6,2.4,1.1,3.8,1.1c3.4,0,5-2.4,5-4.6c0.1-2-0.5-3.6-3.4-5.3c-1.3-0.8-2.3-1.3-2.3-2.5c0-1.2,1.1-1.7,2-1.7	c1.2,0,2.4,0.7,3.1,1.4v-3c-0.6-0.5-1.9-1.2-3.8-1.1c-2.3,0.1-4.7,1.7-4.7,4.5C27.4,21.4,28,22.8,30.8,24.4"/><path class="st1" d="M19,31.6c0.3,0.1,0.8,0.2,1.6,0.2c3.9,0,6.1-3.5,6.1-8.5c0-5.1-2.3-8.2-6.4-8.2c-1.9,0-3.4,0.4-4.7,1.2v22.6	H19V31.6z M19,18c0.3-0.1,0.8-0.3,1.2-0.3c2,0,2.8,1.6,2.8,5.5c0,3.8-1,5.6-3,5.6c-0.5,0-0.9-0.1-1.1-0.2V18z"/><path class="st1" d="M8.5,31.8c2.1,0,3.9-0.5,5.2-1.4V15.3h-3.5v13.1c-0.4,0.3-0.9,0.4-1.6,0.4c-1.6,0-1.8-1.5-1.8-2.4V15.3H3.3	v10.9C3.3,29.9,5.1,31.8,8.5,31.8"/><path class="st1" d="M31.8,45.3v2.3h0.4v-0.9h0.1c0,0,0.6,0.9,0.6,0.9h0.5c0,0-0.6-0.9-0.7-1c0.3-0.1,0.5-0.3,0.5-0.6	c0-0.3-0.2-0.7-0.8-0.7H31.8z M32.4,45.6c0.3,0,0.4,0.2,0.4,0.3c0,0.2-0.1,0.4-0.5,0.4h-0.1v-0.7H32.4z"/><path class="st1" d="M34,46.4c0,0.8-0.7,1.5-1.5,1.5c-0.8,0-1.5-0.7-1.5-1.5c0-0.8,0.7-1.5,1.5-1.5C33.4,44.9,34,45.6,34,46.4 M32.5,44.5c-1,0-1.9,0.8-1.9,1.9c0,1,0.8,1.9,1.9,1.9c1,0,1.9-0.8,1.9-1.9C34.4,45.4,33.5,44.5,32.5,44.5"/></g></svg>