<?xml version="1.0" encoding="iso-8859-1"?><!-- Generator: Adobe Illustrator 16.0.0, SVG Export Plug-In . SVG Version: 6.00 Build 0) --><!DOCTYPE svg PUBLIC "-//W3C//DTD SVG 1.1//EN" "http://www.w3.org/Graphics/SVG/1.1/DTD/svg11.dtd"><svg version="1.1" id="Layer_1" xmlns="http://www.w3.org/2000/svg" xmlns:xlink="http://www.w3.org/1999/xlink" x="0px" y="0px" width="192.756px" height="192.756px" viewBox="0 0 192.756 192.756" style="enable-background:new 0 0 192.756 192.756;" xml:space="preserve"><g><polygon style="fill-rule:evenodd;clip-rule:evenodd;fill:#FFFFFF;" points="0,0 192.756,0 192.756,192.756 0,192.756 0,0	"/><polygon style="fill-rule:evenodd;clip-rule:evenodd;fill:#BF4956;" points="8.576,75.019 8.576,110.27 38.381,120.459	68.256,110.27 68.256,75.019 8.576,75.019	"/><path style="fill-rule:evenodd;clip-rule:evenodd;fill:#FFFFFF;" d="M38.311,109.152h-9.144v-3.141	c-1.815,2.512-4.397,3.838-8.097,3.838c-4.397,0-8.586-2.721-8.586-8.445V84.372h9.493v13.122c0,2.793,0.349,4.816,3.142,4.816	c1.536,0,3.699-0.768,3.699-4.816V84.372h9.493V109.152L38.311,109.152z"/><path style="fill-rule:evenodd;clip-rule:evenodd;fill:#FFFFFF;" d="M55.971,91.632c-0.14-0.838-0.419-1.396-1.117-1.815	c-0.559-0.559-1.327-0.838-2.165-0.838c-1.186,0-2.792,0.35-2.792,1.955c0,0.768,0.558,1.117,1.117,1.327	c1.605,0.697,5.165,0.837,8.376,1.954c3.001,0.978,5.793,2.792,5.793,6.841c0,6.91-6.492,8.795-12.565,8.795	c-5.863,0-12.215-2.373-12.424-8.795H49.2c0.14,0.908,0.489,1.605,1.256,2.234c0.419,0.348,1.327,0.697,2.513,0.697	c1.187,0,3.211-0.418,3.211-1.885c0-1.465-0.907-1.814-5.305-2.582c-7.189-1.256-10.122-3.63-10.122-7.818	c0-6.282,6.771-7.888,11.727-7.888c5.444,0,11.866,1.466,12.076,7.818H55.971L55.971,91.632z"/><path style="fill-rule:evenodd;clip-rule:evenodd;fill:#325390;" d="M71.537,75.158h9.423v11.936h0.14	c1.466-2.024,3.979-3.28,6.771-3.28c8.307,0,10.61,6.979,10.61,12.844c0,6.211-3.42,13.191-10.401,13.191	c-4.606,0-6.072-1.814-7.329-3.35h-0.07v2.652h-9.145V75.158L71.537,75.158z M84.799,90.724c-3.351,0-4.118,3.141-4.118,6.073	s0.768,6.213,4.118,6.213c3.42,0,4.188-3.281,4.188-6.213S88.22,90.724,84.799,90.724L84.799,90.724z"/><path style="fill-rule:evenodd;clip-rule:evenodd;fill:#325390;" d="M124.797,103.637c0,1.955,0.139,3.98,1.115,5.516h-9.562	c-0.209-0.629-0.418-1.676-0.35-2.373h-0.068c-2.025,2.373-4.957,3.07-8.027,3.07c-4.748,0-8.656-2.373-8.656-7.539	c0-7.747,9.145-7.538,13.961-8.445c1.256-0.209,2.582-0.558,2.582-2.164c0-1.675-1.535-2.373-3.141-2.373	c-2.932,0-3.49,1.465-3.49,2.583h-8.795c0.209-6.981,6.84-8.097,12.705-8.097c11.865,0,11.727,4.886,11.727,9.702V103.637	L124.797,103.637z M115.791,98.055c-1.256,0.627-2.443,0.977-3.699,1.186c-2.164,0.488-3.281,1.047-3.281,2.723	c0,1.117,1.258,2.232,2.932,2.232c2.164,0,3.84-1.186,4.049-3.838V98.055L115.791,98.055z"/><path style="fill-rule:evenodd;clip-rule:evenodd;fill:#325390;" d="M128.217,84.372h9.074v3.141h0.139	c1.814-2.443,4.258-3.699,8.098-3.699c4.398,0,8.445,2.722,8.445,8.376v16.962h-9.422V96.238c0-2.931-0.35-4.886-3.072-4.886	c-1.676,0-3.838,0.837-3.838,4.747v13.053h-9.424V84.372L128.217,84.372z"/><polygon style="fill-rule:evenodd;clip-rule:evenodd;fill:#325390;" points="157.395,75.158 166.816,75.158 166.816,91.632	172.82,84.372 183.5,84.372 174.705,93.726 184.826,109.152 173.447,109.152 168.492,100.287 166.816,102.102 166.816,109.152	157.395,109.152 157.395,75.158	"/><path style="fill-rule:evenodd;clip-rule:evenodd;fill:#325390;" d="M189.154,105.801c0.348,0.35,0.418,0.77,0.418,1.328	c0,0.488-0.07,0.906-0.418,1.256c-0.49,0.488-0.838,0.559-1.396,0.559c-0.42,0-0.908-0.07-1.188-0.559	c-0.488-0.35-0.559-0.768-0.559-1.256c0-0.559,0.07-0.979,0.559-1.328c0.35-0.348,0.768-0.557,1.188-0.557	C188.316,105.244,188.664,105.453,189.154,105.801L189.154,105.801z M189.363,105.592c-0.42-0.348-1.047-0.559-1.605-0.559	s-1.117,0.211-1.467,0.559c-0.418,0.42-0.627,0.979-0.627,1.537c0,0.557,0.209,1.115,0.627,1.465	c0.35,0.488,0.908,0.697,1.467,0.697s1.186-0.209,1.605-0.697c0.35-0.35,0.559-0.908,0.559-1.465	C189.922,106.57,189.713,106.012,189.363,105.592L189.363,105.592z M188.107,107.059c-0.07,0-0.211,0-0.42,0h-0.35v-0.838h0.35	c0.209,0,0.42,0,0.559,0.139c0.07,0,0.07,0.141,0.07,0.35C188.316,106.779,188.246,106.918,188.107,107.059L188.107,107.059z M186.92,108.244h0.418v-0.838h0.35c0.209,0,0.35,0,0.42,0.07c0.139,0,0.209,0.209,0.209,0.488v0.211v0.068l0,0l0,0h0.488	c-0.141,0-0.141-0.068-0.141-0.068c0-0.141,0-0.141,0-0.211v-0.139c0-0.141,0-0.209-0.068-0.35	c-0.141-0.209-0.279-0.209-0.35-0.209c0.07-0.139,0.209-0.139,0.35-0.209c0.068,0,0.209-0.279,0.209-0.488	c0-0.211-0.141-0.42-0.488-0.559c-0.07,0-0.279-0.07-0.559-0.07h-0.838V108.244L186.92,108.244z"/></g></svg>