<?xml version="1.0" encoding="utf-8"?>
<!-- Generator: Adobe Illustrator 18.1.1, SVG Export Plug-In . SVG Version: 6.00 Build 0)  -->
<svg version="1.1" id="Layer_1" xmlns="http://www.w3.org/2000/svg" xmlns:xlink="http://www.w3.org/1999/xlink" x="0px" y="0px"
	 viewBox="-153 154.2 512 512" enable-background="new -153 154.2 512 512" xml:space="preserve">
<g>
	<polygon fill="#FFFFFF" points="-153,154.2 359,154.2 359,666.2 -153,666.2 	"/>
	<polygon fill="#BF4956" points="-130.2,353.5 -130.2,447.1 -51.1,474.2 28.3,447.1 28.3,353.5 	"/>
	<path fill="#FFFFFF" d="M-51.2,444.2h-24.3v-8.3C-80.3,442.5-87.2,446-97,446c-11.7,0-22.8-7.2-22.8-22.4v-45.2h25.2v34.9
		c0,7.4,0.9,12.8,8.3,12.8c4.1,0,9.8-2,9.8-12.8v-34.9h25.2L-51.2,444.2L-51.2,444.2z"/>
	<path fill="#FFFFFF" d="M-4.3,397.6c-0.4-2.2-1.1-3.7-3-4.8c-1.5-1.5-3.5-2.2-5.8-2.2c-3.2,0-7.4,0.9-7.4,5.2c0,2,1.5,3,3,3.5
		c4.3,1.9,13.7,2.2,22.2,5.2c8,2.6,15.4,7.4,15.4,18.2C20.1,441,2.9,446-13.2,446c-15.6,0-32.4-6.3-33-23.4h23.9
		c0.4,2.4,1.3,4.3,3.3,5.9c1.1,0.9,3.5,1.9,6.7,1.9c3.2,0,8.5-1.1,8.5-5c0-3.9-2.4-4.8-14.1-6.9c-19.1-3.3-26.9-9.6-26.9-20.8
		c0-16.7,18-21,31.1-21c14.5,0,31.5,3.9,32.1,20.8H-4.3L-4.3,397.6z"/>
	<path fill="#325390" d="M37,353.9h25v31.7h0.4c3.9-5.4,10.6-8.7,18-8.7c22.1,0,28.2,18.5,28.2,34.1c0,16.5-9.1,35-27.6,35
		c-12.2,0-16.1-4.8-19.5-8.9h-0.2v7H37L37,353.9L37,353.9z M72.2,395.2c-8.9,0-10.9,8.3-10.9,16.1c0,7.8,2,16.5,10.9,16.5
		c9.1,0,11.1-8.7,11.1-16.5C83.4,403.6,81.3,395.2,72.2,395.2L72.2,395.2z"/>
	<path fill="#325390" d="M178.5,429.5c0,5.2,0.4,10.6,3,14.7H156c-0.6-1.7-1.1-4.5-0.9-6.3h-0.2c-5.4,6.3-13.2,8.2-21.3,8.2
		c-12.6,0-23-6.3-23-20c0-20.6,24.3-20,37.1-22.4c3.3-0.6,6.9-1.5,6.9-5.7c0-4.4-4.1-6.3-8.3-6.3c-7.8,0-9.3,3.9-9.3,6.9h-23.4
		c0.6-18.5,18.2-21.5,33.7-21.5c31.5,0,31.1,13,31.1,25.8L178.5,429.5L178.5,429.5z M154.6,414.7c-3.3,1.7-6.5,2.6-9.8,3.2
		c-5.7,1.3-8.7,2.8-8.7,7.2c0,3,3.3,5.9,7.8,5.9c5.7,0,10.2-3.2,10.8-10.2L154.6,414.7L154.6,414.7z"/>
	<path fill="#325390" d="M187.6,378.4h24.1v8.3h0.4c4.8-6.5,11.3-9.8,21.5-9.8c11.7,0,22.4,7.2,22.4,22.2v45.1h-25v-34.3
		c0-7.8-0.9-13-8.2-13c-4.5,0-10.2,2.2-10.2,12.6v34.7h-25L187.6,378.4L187.6,378.4z"/>
	<polygon fill="#325390" points="265.1,353.9 290.1,353.9 290.1,397.6 306,378.4 334.4,378.4 311.1,403.2 337.9,444.2 307.7,444.2 
		294.5,420.6 290.1,425.4 290.1,444.2 265.1,444.2 	"/>
	<path fill="#325390" d="M349.4,435.3c0.9,0.9,1.1,2,1.1,3.5c0,1.3-0.2,2.4-1.1,3.3c-1.3,1.3-2.2,1.5-3.7,1.5
		c-1.1,0-2.4-0.2-3.2-1.5c-1.3-0.9-1.5-2-1.5-3.3c0-1.5,0.2-2.6,1.5-3.5c0.9-0.9,2-1.5,3.2-1.5C347.2,433.8,348.1,434.3,349.4,435.3
		L349.4,435.3z M350,434.7c-1.1-0.9-2.8-1.5-4.3-1.5c-1.5,0-3,0.6-3.9,1.5c-1.1,1.1-1.7,2.6-1.7,4.1c0,1.5,0.6,3,1.7,3.9
		c0.9,1.3,2.4,1.9,3.9,1.9s3.2-0.6,4.3-1.9c0.9-0.9,1.5-2.4,1.5-3.9C351.5,437.3,350.9,435.8,350,434.7L350,434.7z M346.7,438.6
		c-0.2,0-0.6,0-1.1,0h-0.9v-2.2h0.9c0.6,0,1.1,0,1.5,0.4c0.2,0,0.2,0.4,0.2,0.9C347.2,437.9,347,438.2,346.7,438.6L346.7,438.6z
		 M343.5,441.8h1.1v-2.2h0.9c0.6,0,0.9,0,1.1,0.2c0.4,0,0.6,0.6,0.6,1.3v0.6v0.2l0,0l0,0h1.3c-0.4,0-0.4-0.2-0.4-0.2
		c0-0.4,0-0.4,0-0.6v-0.4c0-0.4,0-0.6-0.2-0.9c-0.4-0.6-0.7-0.6-0.9-0.6c0.2-0.4,0.6-0.4,0.9-0.6c0.2,0,0.6-0.7,0.6-1.3
		c0-0.6-0.4-1.1-1.3-1.5c-0.2,0-0.7-0.2-1.5-0.2h-2.2V441.8L343.5,441.8z"/>
</g>
</svg>
