<?xml version="1.0" encoding="iso-8859-1"?><!-- Generator: Adobe Illustrator 16.0.0, SVG Export Plug-In . SVG Version: 6.00 Build 0) --><!DOCTYPE svg PUBLIC "-//W3C//DTD SVG 1.1//EN" "http://www.w3.org/Graphics/SVG/1.1/DTD/svg11.dtd"><svg version="1.1" id="Layer_1" xmlns="http://www.w3.org/2000/svg" xmlns:xlink="http://www.w3.org/1999/xlink" x="0px" y="0px" width="192.756px" height="192.756px" viewBox="0 0 192.756 192.756" style="enable-background:new 0 0 192.756 192.756;" xml:space="preserve"><g><polygon style="fill-rule:evenodd;clip-rule:evenodd;fill:#FFFFFF;" points="0,0 192.756,0 192.756,192.756 0,192.756 0,0	"/><polygon style="fill-rule:evenodd;clip-rule:evenodd;fill:#97A2AB;" points="2.834,155.098 189.922,155.098 189.922,37.659	2.834,37.659 2.834,155.098	"/><polygon style="fill-rule:evenodd;clip-rule:evenodd;fill:#97A2AB;" points="2.834,38.084 189.922,38.084 189.922,37.659	2.834,37.659 2.834,38.084	"/><polygon style="fill-rule:evenodd;clip-rule:evenodd;fill:#97A2AB;" points="189.922,155.098 189.922,154.672 2.834,154.672	2.834,155.098 189.922,155.098	"/><polygon style="fill-rule:evenodd;clip-rule:evenodd;fill:#97A2AB;" points="2.834,155.098 3.056,155.098 3.056,37.659	2.834,37.659 2.834,155.098	"/><path style="fill-rule:evenodd;clip-rule:evenodd;fill:#FFFFFF;" d="M67.375,49.913h11.642v27.369	c0.205,1.226,1.838,6.536,7.557,6.536c5.719,0,6.945-5.515,6.945-6.74V49.913h12.049V79.12c0,0.613-1.43,14.91-18.994,15.114	c-17.361,0.204-19.199-14.706-19.199-14.706V49.913L67.375,49.913z"/><path style="fill-rule:evenodd;clip-rule:evenodd;fill:#FFFFFF;" d="M135.389,52.977l-4.494,8.374c0,0-3.881-3.063-8.373-3.063	c-2.043,0-3.473,0.817-4.086,2.655c-0.408,2.042,0.613,3.473,5.924,4.902c5.719,1.634,8.17,2.86,10.008,5.515	c2.246,3.268,2.451,6.332,2.451,6.332l10.621-27.777h12.049l15.932,43.708h-12.254l-2.859-7.761H145.6l-2.654,7.761h-12.051	l1.43-4.289c0,0-3.676,4.698-11.846,4.698c-8.986,0-16.34-5.718-16.34-5.718l4.902-9.191c0.205,0,3.473,3.677,7.965,4.493	c3.678,0.613,6.332-0.408,6.945-2.859c1.021-3.063-0.613-4.289-3.268-5.106c-2.859-0.817-7.557-1.429-10.826-4.084	c-3.062-2.451-3.676-6.332-3.676-10.008c0.408-3.472,1.838-7.557,5.311-10.212c3.676-2.655,7.965-2.655,10.621-2.655	C130.283,49.096,135.389,52.977,135.389,52.977L135.389,52.977z"/><polygon style="fill-rule:evenodd;clip-rule:evenodd;fill:#97A2AB;" points="149.277,76.669 157.242,76.669 153.361,65.64	149.277,76.669	"/><polygon style="fill-rule:evenodd;clip-rule:evenodd;fill:#FFFFFF;" points="9.166,97.297 37.76,97.297 37.76,107.102	29.182,107.102 29.182,140.801 17.336,140.801 17.336,107.305 9.166,107.305 9.166,97.297	"/><path style="fill-rule:evenodd;clip-rule:evenodd;fill:#FFFFFF;" d="M78.813,97.297h20.015c1.635,0.205,18.383,2.451,18.383,21.242	c0,20.832-17.973,22.262-19.199,22.262H78.813V97.297L78.813,97.297z"/><path style="fill-rule:evenodd;clip-rule:evenodd;fill:#97A2AB;" d="M90.864,106.896c0.204,0.205,14.705-2.859,14.501,11.643	c0.203,15.521-14.297,12.254-14.501,12.254V106.896L90.864,106.896z"/><polygon style="fill-rule:evenodd;clip-rule:evenodd;fill:#FFFFFF;" points="126.605,97.297 138.248,97.297 154.383,140.801	142.332,140.801 139.473,133.039 124.973,133.039 121.908,140.801 110.062,140.801 126.605,97.297	"/><polygon style="fill-rule:evenodd;clip-rule:evenodd;fill:#97A2AB;" points="128.24,124.461 136.818,124.461 132.529,112.207	128.24,124.461	"/><polygon style="fill-rule:evenodd;clip-rule:evenodd;fill:#FFFFFF;" points="140.291,97.297 153.77,97.297 161.531,108.939	168.885,97.297 181.957,97.297 167.047,119.561 167.047,140.801 155.199,140.801 155.199,119.764 140.291,97.297	"/><path style="fill-rule:evenodd;clip-rule:evenodd;fill:#FFFFFF;" d="M32.858,119.152c0-12.459,10.621-22.467,23.692-22.672	c13.071,0.205,23.692,10.213,23.488,22.672c0.204,12.457-10.417,22.465-23.488,22.465	C43.479,141.617,32.858,131.609,32.858,119.152L32.858,119.152z"/><path style="fill-rule:evenodd;clip-rule:evenodd;fill:#97A2AB;" d="M44.092,119.355c0.204-6.535,5.515-11.641,12.254-11.846	c6.944,0.205,12.255,5.311,12.255,11.846s-5.311,11.643-12.255,11.643C49.606,130.998,44.296,125.891,44.092,119.355	L44.092,119.355z"/><path style="fill:none;stroke:#FFFFFF;stroke-width:0.8508;stroke-miterlimit:2.6131;" d="M173.377,139.779v-3.268h1.227	c0,0,0.816,0.205,0.613,0.816c0.203,0.613-0.613,0.818-0.613,0.818h-1.227h1.227l0.816,1.633 M171.539,138.146	c0-1.43,1.227-2.656,2.656-2.859c1.633,0.203,2.859,1.43,2.654,2.859c0.205,1.43-1.021,2.654-2.654,2.654	C172.766,140.801,171.539,139.576,171.539,138.146L171.539,138.146z"/><path style="fill:none;stroke:#FFFFFF;stroke-width:1.2062;stroke-linecap:round;stroke-miterlimit:2.6131;" d="M21.421,59.512	h49.631 M19.583,63.597h49.427 M17.949,67.886h51.878 M17.745,71.971h52.286 M18.153,76.056h51.061 M19.378,80.549h50.244 M21.421,84.634h49.427 M26.527,88.515h49.427 M32.858,92.6h50.857 M32.654,51.139h36.559 M25.301,55.428h44.525"/><path style="fill:none;stroke:#FFFFFF;stroke-width:2.2515;stroke-linecap:round;stroke-miterlimit:2.6131;" d="M32.654,51.139	h13.48 M25.301,55.223h26.96 M21.421,59.512h34.925 M19.174,63.597H59.41 M17.949,67.886h42.482 M17.132,72.175h43.299 M17.541,76.26h43.095 M19.378,80.549h39.419 M21.421,84.634h35.334 M25.505,88.515h27.573 M32.654,92.396h14.297"/><path style="fill-rule:evenodd;clip-rule:evenodd;fill:#FFFFFF;" d="M33.267,50.526h-2.859c0.204,0-1.43,0.408-1.838,1.226	c0,0.612,0.613,1.225,0.613,1.225l-2.451,1.43l-1.634,0.409l-1.021,0.817v1.225l-1.838,2.451l-0.204,1.226l-0.817,2.655	l0.205,0.612l1.43,0.613l-1.021,2.246h0.408l1.226,1.226l-0.205,0.613l0.409,0.817l2.042,2.451l0.817,0.817l0.817,1.226	l3.676,1.225l-0.408,1.838l1.021,0.204l0.204,2.247l0.408,0.817l-1.021,1.225l0.409,2.655l1.43,1.226l1.634,2.859l0.817,1.021	l1.225,2.451l4.29-0.204l-0.409-1.838v-1.021l0.817-0.408l1.021-1.838V84.43l1.429-2.859l0.613-1.021l-3.064-2.042l-3.063-0.205	l-1.838-1.634h-1.021l0.409-0.817l-2.859-2.247l-0.613-1.021l0.613-0.409l-1.838-2.247l-0.409-1.021l0.409-0.817l1.43-0.408	l1.021,0.204l1.43,1.634l0.409,1.021l2.859,0.613l-0.204-1.634l0.817-1.838l3.472-1.838l0.204-1.838l1.838-2.451l1.021-1.838	l-2.247-1.226l-4.902-0.613v1.43l-1.021-0.204v-1.021l-0.409-1.226l0.817-1.021l1.021,0.204l0.816,2.042l1.634,0.205v-2.247	l-5.719-2.247l-0.205-1.634l1.021-0.204l0.204,1.838l2.859,0.408v-3.88L33.267,50.526L33.267,50.526z"/></g></svg>