<?xml version="1.0" encoding="utf-8"?>
<!-- Generator: Adobe Illustrator 18.1.1, SVG Export Plug-In . SVG Version: 6.00 Build 0)  -->
<svg version="1.1" id="Layer_1" xmlns="http://www.w3.org/2000/svg" xmlns:xlink="http://www.w3.org/1999/xlink" x="0px" y="0px"
	 viewBox="80 196 3066.6 512" enable-background="new 80 196 3066.6 512" xml:space="preserve">
<g>
	<polygon fill="#004C82" points="188.8,198.5 192.6,198.5 199.1,199.8 206.7,201.1 227.2,206.2 255.4,211.3 270.7,215.2 287.4,219 
		305.3,221.6 323.2,226.7 342.4,229.2 361.6,234.4 423.1,245.9 442.3,251 462.7,254.8 480.6,258.7 499.9,262.5 517.8,266.4 
		535.7,268.9 551,272.8 566.4,275.3 579.2,279.2 590.7,281.7 601,283 609.9,284.3 616.3,285.6 620.2,286.8 622.7,286.8 639.4,290.7 
		654.7,293.3 667.5,297.1 677.8,299.7 688,303.5 695.7,306.1 705.9,311.2 709.8,313.7 716.2,320.1 716.2,321.4 717.5,322.7 
		717.5,324 772.5,324 777.6,325.2 782.7,325.2 786.6,326.5 790.4,326.5 794.3,327.8 804.5,332.9 805.8,335.5 814.7,349.6 
		817.3,366.2 814.7,386.7 808.3,405.9 800.7,425.1 793,440.5 786.6,450.7 784,454.5 781.5,455.8 775.1,458.4 766.1,462.2 
		753.3,467.3 739.2,472.4 721.3,480.1 702.1,487.8 680.3,495.5 656,505.7 630.4,514.7 604.8,524.9 548.5,548 519,559.5 489.6,569.7 
		460.2,582.5 429.5,594.1 400,604.3 371.8,617.1 342.4,627.3 315.5,637.6 264.3,658.1 241.3,667 219.5,674.7 200.3,682.4 
		183.7,688.8 169.6,695.2 158.1,699 149.1,702.9 144,704.1 142.7,705.4 804.5,705.4 912,196 188.8,196 	"/>
	<polygon fill="#004C82" points="684.2,363.7 680.3,364.9 654.7,370 648.3,370 643.2,371.3 638.1,371.3 630.4,372.6 626.6,373.9 
		624,375.2 622.7,377.7 622.7,380.3 625.3,382.8 630.4,382.8 635.5,384.1 648.3,384.1 656,382.8 663.7,382.8 681.6,380.3 
		690.6,380.3 700.8,379 709.8,377.7 717.5,376.5 726.4,375.2 761,375.2 764.8,376.5 767.4,377.7 769.9,381.6 769.9,386.7 
		768.7,391.8 767.4,398.2 764.8,405.9 761,414.9 758.4,423.8 757.1,428.9 759.7,431.5 762.3,430.2 767.4,425.1 769.9,421.3 
		773.8,414.9 777.6,407.2 781.5,398.2 785.3,390.5 787.9,382.8 789.1,376.5 789.1,368.8 786.6,362.4 782.7,358.5 777.6,354.7 
		771.2,352.1 763.5,350.9 754.6,349.6 700.8,349.6 699.5,350.9 698.3,350.9 695.7,352.1 693.1,357.3 690.6,358.5 688,361.1 	"/>
	<polygon fill="#004C82" points="164.5,313.7 80,705.4 83.9,704.1 91.5,699 104.3,693.9 121,684.9 140.2,676 161.9,664.5 187.5,653 
		211.9,640.1 237.5,628.6 261.8,615.8 286.1,604.3 309.1,592.8 328.3,582.5 345,574.8 357.8,568.4 366.7,564.6 379.5,558.2 
		391.1,551.8 405.1,545.4 419.2,537.7 432,531.3 447.4,524.9 461.5,517.3 476.8,510.9 492.2,503.1 569,471.2 603.5,459.7 
		608.7,458.4 613.8,455.8 620.2,454.5 643.2,446.9 670.1,439.2 679.1,437.9 705.9,430.2 721.3,427.7 726.4,426.4 730.2,425.1 
		734.1,425.1 737.9,423.8 740.5,421.3 741.8,421.3 741.8,420 739.2,414.9 735.4,413.6 730.2,412.3 725.1,412.3 717.5,411 709.8,411 
		700.8,412.3 685.4,413.6 668.8,416.1 650.9,420 631.7,423.8 612.5,428.9 592,435.3 572.8,441.7 552.3,448.1 533.1,455.8 
		513.9,462.2 496,468.6 479.4,475 464,482.7 451.2,487.8 439.7,493 430.7,498.1 382.1,347 691.9,347 693.1,340.6 688,334.2 
		680.3,330.4 668.8,326.5 656,322.7 622.7,317.6 569,313.7 	"/>
	<polygon fill="#EA4156" points="3143.5,462.6 974.7,462.6 977.9,430 3146.6,430 	"/>
	<path d="M1073.3,390.5l-16.6-1.3l-16.6-3.8l-12.8-3.8l-11.5-7.7l-7.7-9l-5.1-11.5l-1.3-12.8l1.3-15.4l6.4-28.2l5.1-25.6l5.1-21.8
		l3.8-17.9l2.6-15.4l2.5-11.5l1.3-6.4l1.3-2.6h42.2l-1.3,5.1l-2.6,12.8l-5.1,19.2l-3.8,21.8l-5.1,21.8l-6.4,32l-1.3,3.8l-1.3,10.3
		v17.9l2.6,6.4l5.1,5.1l6.4,3.8l9,2.6l10.3,1.3l11.5-1.3l9-1.3l9-3.9l6.4-6.4l5.1-6.4l5.1-7.7l7.7-20.5l1.3-10.2l3.8-15.4l3.9-19.2
		l3.8-20.5l5.1-19.2l2.6-16.6l2.5-11.5l1.3-3.8h42.2l-7.7,37.1l-3.8,19.2l-2.6,6.4v2.5l-1.3,7.7l-3.8,19.2l-8.9,37.1l-1.3,7.7
		l-3.8,7.7l-2.6,6.4l-3.8,6.4l-5.1,6.4L1145,370l-6.4,3.9l-7.7,3.9l-6.4,3.8l-7.7,2.5l-7.7,1.3l-7.7,2.5l-17.9,2.6L1073.3,390.5
		L1073.3,390.5z M3042,226.7h-60.2l-10.2,2.5l-7.7,5.1l-1.3,2.5l-1.3,3.9v5.1l1.3,5.1l3.8,5.1l3.8,6.4l11.5,11.5l7.7,5.1l6.4,5.1
		l7.7,6.4l12.8,12.8l5.1,6.4l7.7,15.4l1.3,7.7l-1.3,9l-2.5,9l-3.9,9l-6.4,7.7l-9,6.4l-10.2,5.1l-12.8,3.9l-16.6,2.6l-17.9,1.3h-65.3
		l7.7-30.7h69.1l6.4-1.3l5.1-1.3l3.8-2.5l3.9-5.1l2.5-5.1l-1.3-10.3l-7.7-10.2l-12.8-10.2l-12.8-11.5l-14.1-12.8l-11.5-14.1
		l-7.7-14.1l-1.3-16.6l2.6-9l5.1-10.2l5.1-7.7l8.9-6.4l11.5-5.1l11.5-3.8l15.4-2.6h74.2L3042,226.7L3042,226.7z M2893.5,226.7h-96
		l-11.5,49.9h84.5l-6.4,26.9h-84.5l-10.3,52.5h96l-6.4,30.7h-138.2l41-190.7h138.2L2893.5,226.7L2893.5,226.7z M2727.1,226.7h-58.9
		l-34.6,160h-42.2l34.6-160h-60.2l7.7-30.7h160L2727.1,226.7L2727.1,226.7z M2432.7,386.7l16.6-30.7h60.2l-16.6-121.6l-84.5,152.3
		h-42.2L2476.2,196h49.9l29.5,190.7H2432.7L2432.7,386.7z M2425,226.7h-58.9l-34.6,160h-42.2l34.6-160h-60.2l7.7-30.7h160
		L2425,226.7L2425,226.7z M2242,226.7h-58.9l-6.4,1.3l-5.1,1.3l-3.8,2.6l-5.1,5.1v9l1.3,5.1l2.5,5.1l5.1,6.4l11.5,11.5l6.4,5.1
		l7.7,5.1l19.2,19.2l5.1,6.4l5.1,7.7l2.6,7.7l1.3,7.7v9l-2.6,9l-3.8,9l-7.7,7.7l-7.7,6.4l-11.5,5.1l-12.8,3.9l-15.4,2.6l-19.2,1.3
		h-64l6.4-30.7h70.4l6.4-1.3l5.1-1.3l3.8-2.5l3.8-5.1l1.3-5.1l-1.3-10.3l-7.7-10.2l-11.5-10.2l-12.8-11.5l-14.1-12.8l-11.5-14.1
		l-7.7-14.1l-1.3-16.6l2.6-9l3.8-10.2l6.4-7.7l9-6.4l10.2-5.1l12.8-3.8l15.4-2.6h74.2L2242,226.7L2242,226.7z M1855.4,290.7
		l-19.2,96h85.8l10.2-1.3h10.2l17.9-5.1l10.2-3.8l9-5.1l15.4-10.2l15.3-15.4l12.8-17.9l5.1-10.3l3.8-10.2l2.6-11.5l1.3-5.1l1.3-7.7
		l2.6-17.9l-1.3-16.6l-3.8-14.1l-6.4-12.8l-10.2-11.5l-12.8-7.7l-16.6-5.1l-19.2-1.3h-93.4L1855.4,290.7L1855.4,290.7z
		 M1994.9,290.7l-1.3,6.4l-3.8,7.7l-2.6,6.4l-2.5,7.7l-3.9,5.1l-5.1,6.4l-10.3,10.3l-12.8,7.7l-6.4,2.6l-7.7,2.5l-15.4,2.6h-38.4
		l12.8-65.3l14.1-64h55l10.2,3.8l7.7,5.1l6.4,7.7l3.8,7.7l2.5,10.2v20.5l-2.5,7.7L1994.9,290.7L1994.9,290.7z M1838.8,226.7H1744
		l-11.5,49.9h83.2l-5.1,26.9h-84.5l-10.2,52.5h94.7l-5.1,30.7h-138.2l41-190.7h137L1838.8,226.7L1838.8,226.7z M1673.6,226.7h-60.2
		l-34.6,160H1538l34.5-160h-60.2l6.4-30.7h160L1673.6,226.7L1673.6,226.7z M1449.6,386.7h-41l39.7-190.7h42.2L1449.6,386.7
		L1449.6,386.7z M1367.7,386.7h-52.5l-47.4-142.1h-1.3l-29.4,142.1H1200L1241,196h53.8l46.1,143.4l29.4-143.4h38.4L1367.7,386.7
		L1367.7,386.7z"/>
	<path d="M1017,632.4h-5.1l-2.6-1.3h-7.7l-2.6-1.3h-2.5l-2.6-26.9h10.2l1.3,1.3h7.7l10.2-1.3l15.4-5.1l5.1-5.1l7.7-10.3l2.6-5.1
		v-5.1l1.3-6.4v-6.4l-1.3-5.1l-2.6-3.8l-7.7-5.1h-5.1l-5.1-1.3h-34.6l-34.6,160h-42.2l41-190.7h90.9l14.1,1.3l10.3,5.1l9,6.4l5.1,9
		l2.6,9l1.3,10.2v10.3l-1.3,9l-3.8,12.8l-6.4,11.5l-7.7,10.2l-10.2,9l-10.3,6.4l-25.6,7.7L1017,632.4L1017,632.4z M3123.9,544.1
		h-97.3l-10.3,49.9h84.5l-6.4,28.2H3010l-10.2,52.5h96l-6.4,29.4h-138.2l41-190.7h138.2L3123.9,544.1L3123.9,544.1z M2953.7,546.7
		l-5.1-1.3h-3.9l-10.2-2.6l-6.4-1.3h-6.4l-5.1-1.3h-7.7l-14.1,1.3l-12.8,3.8l-12.8,5.1l-11.5,9l-9,8.9l-9,11.5l-5.1,14.1l-5.1,15.3
		l-2.6,15.4l1.3,14.1l3.8,11.5l5.1,9l7.7,7.7l10.2,6.4l11.5,3.8l12.8,1.3h7.7l7.7-1.3h6.4l12.8-2.6h5.1l6.4-1.3l5.1-1.3l-10.3,32
		l-5.1,1.3h-6.4l-5.1,1.3h-6.4l-5.1,1.3h-29.4l-20.5-2.6l-9-2.5l-9-3.8l-7.7-3.9l-7.7-5.1l-6.4-5.1l-6.4-6.4l-3.8-7.7l-3.8-9
		l-3.9-7.7l-1.3-10.2v-10.3l1.3-11.5l1.3-12.8l3.8-11.5l3.8-12.8l10.2-20.5l6.4-9l15.4-15.4l9-6.4l17.9-10.2l20.5-7.7l10.3-2.6
		l10.2-1.3l11.5-1.2h26.9l5.1,1.2h5.1l5.1,1.3h5.1l5.1,1.3L2953.7,546.7L2953.7,546.7z M2742.5,704.1h-42.2l41-190.7h42.2
		L2742.5,704.1L2742.5,704.1z M2606.8,704.1h-49.9l-28.2-190.7h42.2l19.2,153.6l84.5-153.6h41L2606.8,704.1L2606.8,704.1z
		 M2451.9,622.2l30.7,81.9h-46.1L2402,600.4h24.3l7.7-1.3l7.7-2.6l6.4-3.8l5.1-3.8l5.1-5.1l2.5-6.4l2.6-7.7l1.2-5.1v-5.1l-2.5-7.7
		l-2.6-2.6l-5.1-2.6l-12.8-2.6h-38.4l-34.6,160h-42.2l41-190.7h88.3l12.8,1.3l11.6,2.6l9,3.8l6.4,5.1l5.1,6.4l3.9,9l1.3,10.2V562
		l-1.3,12.8l-3.9,11.5l-5.1,10.3l-6.4,7.7l-7.7,7.7l-10.2,5.1l-9,3.8L2451.9,622.2L2451.9,622.2z M2330.3,544.1h-96l-10.2,49.9h83.2
		l-5.1,28.2h-84.5l-10.3,52.5h96l-6.4,29.4h-139.5l40.9-190.7h138.2L2330.3,544.1L2330.3,544.1z M2156.2,544.1h-53.8l-12.8,2.6
		l-5.1,1.3l-2.6,2.6l-3.8,2.6l-2.5,5.1v6.4l1.3,5.1l2.6,5.1l5.1,5.1l5.1,6.4l6.4,5.1l6.4,6.4l7.7,5.1l6.4,6.4l7.7,5.1l5.1,7.7
		l5.1,6.4l5.1,7.7l2.6,6.4l1.3,9v7.7l-2.6,10.3l-3.8,7.7l-15.4,15.4l-10.2,5.1l-14.1,3.8l-15.3,2.5h-83.2l6.4-29.4h70.4l6.4-1.3
		l5.1-2.6l3.8-2.6l3.8-3.8l2.5-5.1l-2.5-10.3l-7.7-10.2l-11.5-11.5l-12.8-11.5l-14.1-11.5l-11.5-14.1l-7.7-15.4l-1.3-15.3l2.6-10.3
		l3.8-9l6.4-7.7l9-6.4l10.2-5.1l12.8-3.8l15.4-2.6l17.9-1.3h56.3L2156.2,544.1L2156.2,544.1z M1928.3,704.1h-129.3l39.7-190.7h43.5
		l-34.6,161.3h87L1928.3,704.1L1928.3,704.1z M1654.4,704.1l16.6-29.4h60.2l-17.9-122.9l-83.2,152.3h-42.2l108.8-190.7h51.2
		l29.4,190.7H1654.4L1654.4,704.1z M1646.8,544.1h-60.2l-34.6,160h-42.2l34.6-160h-58.9l6.4-30.7h160L1646.8,544.1L1646.8,544.1z
		 M1463.7,544.1h-53.8l-12.8,2.6l-3.8,1.3l-3.8,2.6l-5.1,5.1l-1.3,2.6v6.4l1.3,5.1l7.7,10.3l5.1,6.4l6.4,5.1l6.4,6.4l7.7,5.1
		l7.7,6.4l6.4,5.1l5.1,7.7l6.4,6.4l3.8,7.7l2.6,6.4l2.5,9l-1.3,7.7l-2.6,10.3l-3.8,7.7l-6.4,7.7l-7.7,7.7l-11.5,5.1l-14.1,3.8
		l-15.4,2.5h-81.9l5.1-29.4h71.7l5.1-1.3l10.3-5.1l2.6-3.8l2.6-5.1l-1.3-10.3l-7.7-10.2l-11.5-11.5l-14.1-11.5l-12.8-11.5
		l-11.5-14.1l-7.7-15.4l-2.6-15.3l2.6-10.3l5.1-9l6.4-7.7l7.7-6.4l10.3-5.1l14.1-3.8l15.4-2.6l16.6-1.3h56.3L1463.7,544.1
		L1463.7,544.1z M1107.9,609.4l-2.6,20.5l3.9,26.9l7.7,15.4l5.1,7.7l11.5,11.5l7.7,5.1l7.7,3.8l9,3.8l10.2,2.6l10.2,1.3h21.8
		l20.5-2.6l10.2-2.5l10.3-3.8l9-3.9l7.7-5.1l9-5.1l7.7-6.4l6.4-7.7l7.7-7.7l5.1-9l10.3-20.5l3.8-11.5l2.6-12.8l2.6-10.2V580
		l-1.3-10.3l-1.3-9l-7.7-15.4l-10.2-12.8l-6.4-5.1l-7.7-5.1l-7.7-3.8l-10.2-3.9l-9-2.6l-10.2-1.2h-21.8l-20.5,2.5l-10.2,2.6
		l-10.3,3.9l-9,3.8l-7.7,5.1l-9,6.4l-7.7,5.1l-7.7,7.7l-6.4,9l-6.4,7.7l-5.1,10.2l-3.8,10.3l-3.8,12.8L1107.9,609.4L1107.9,609.4z
		 M1267.9,609.4l-3.8,15.4l-6.4,14.1l-6.4,11.5l-8.9,9L1232,667l-11.5,6.4l-11.5,3.8l-14.1,1.3l-14.1-1.3l-10.2-5.1l-9-6.4l-6.4-9
		l-3.9-9l-2.5-12.8v-12.8l2.5-12.8l3.9-15.3l6.4-14.1l6.4-11.5l9-8.9l10.2-9l11.5-5.1l11.5-3.8l14.1-1.3l12.8,2.6l11.5,2.6l9,7.7
		l6.4,7.7l3.8,10.3l2.6,11.5v12.8L1267.9,609.4L1267.9,609.4z"/>
</g>
</svg>
