<?xml version="1.0" encoding="UTF-8" standalone="no"?>
<!DOCTYPE svg PUBLIC "-//W3C//DTD SVG 1.1//EN" "http://www.w3.org/Graphics/SVG/1.1/DTD/svg11.dtd">
<!-- Passed misc2svg (http://www.network-science.de/tools/misc2svg/) -->
<svg xmlns:svg="http://www.w3.org/2000/svg" xmlns="http://www.w3.org/2000/svg" version="1.1" width="1265.19" height="345.825" viewBox="0 0 55.244 15.1" id="svg2" xml:space="preserve"><metadata id="metadata3474"/><defs id="defs28"/><path d="m 0.002,0.048863 53.107,0.042 0,15.009037 c 0,0 -35.408,0 -53.109,0 C 0,10.1239 0.002,0.048863 0.002,0.048863 z m 1.529,1.612997 0,11.90404 c 0,0 33.364,0 50.047,0 0,-3.97004 0,-7.93604 0,-11.90404 -16.683,0 -50.047,0 -50.047,0" id="path13" style="fill: rgb(0, 0, 0); fill-opacity: 1;"/><path d="m 16.668,3.19186 2.382,0 2.508,8.84604 -1.785,0 -0.596,-2.21104 -2.636,0 c 0,0 -0.457,1.77804 -0.554,2.16804 -0.53,0.042 -1.827,0 -1.827,0 l 2.508,-8.80304 z m 1.148,1.49 -0.936,3.74 1.956,0 -1.02,-3.74" id="path15" style="fill: rgb(0, 0, 0); fill-opacity: 1;"/><path d="m 44.05,3.19186 c 0,0 2.438,0 3.658,0 0,0.38 0,1.149 0,1.149 l -2.383,0 c 0,0 0,0.848 0,1.274 0.723,0 1.446,0 2.17,0 0,0.379 0,0.77 0,1.149 -0.724,0 -1.447,0 -2.17,0 0,0.437 0,0.877 0,1.316 0.795,0 2.383,0 2.383,0 l 0,1.15 -3.699,0 0.041,-6.038" id="path17" style="fill: rgb(0, 0, 0); fill-opacity: 1;"/><path d="m 33.421,3.19186 1.787,0 1.699,6.592 1.659,-6.592 1.786,0 -2.68,8.84604 -1.574,0 -2.677,-8.84604" id="path19" style="fill: rgb(0, 0, 0); fill-opacity: 1;"/><path d="m 25.896,3.19186 c 0.563,0 1.135,0 1.702,0 0,2.452 0,4.907 0,7.35604 1.229,0 2.465,0 3.696,0 0,0.501 0,0.986 0,1.489 -1.814,0 -3.628,0 -5.441,0 0,-2.92604 -0.074,-5.99404 0.043,-8.84504" id="path21" style="fill: rgb(0, 0, 0); fill-opacity: 1;"/><path d="m 4.634,3.19186 1.746,0 1.7,6.676 1.657,-6.676 1.83,0 -2.681,8.84604 -1.616,0 -2.636,-8.84604" id="path23" style="fill: rgb(0, 0, 0); fill-opacity: 1;"/><path d="m 54.378,-1.37203e-4 c 0.48,0 0.865,0.393000203 0.865,0.883000203 0,0.497997 -0.385,0.885997 -0.871,0.885997 -0.48,0 -0.873,-0.388 -0.873,-0.885997 10e-4,-0.49 0.393,-0.883000203 0.874,-0.883000203 l 0.01,0 z M 54.368,0.139863 c -0.387,0 -0.705,0.332 -0.705,0.743 0,0.421997 0.318,0.745997 0.711,0.745997 0.391,0.006 0.703,-0.324 0.703,-0.739997 0,-0.417 -0.313,-0.749 -0.703,-0.749 l -0.01,0 z m -0.165,1.254997 -0.154,0 0,-0.982997 c 0.082,-0.011 0.158,-0.023 0.277,-0.023 0.147,0 0.246,0.033 0.305,0.073 0.06,0.044 0.089,0.111 0.089,0.204 0,0.13 -0.085,0.208 -0.19,0.241 l 0,0.007 c 0.086,0.016 0.145,0.096 0.166,0.236997 0.022,0.153 0.045,0.213 0.061,0.243 l -0.164,0 c -0.019,-0.03 -0.044,-0.121 -0.063,-0.247 -0.021,-0.127 -0.086,-0.173997 -0.21,-0.173997 l -0.11,0 0,0.421997 0,0 z m 0,-0.542997 0.114,0 c 0.128,0 0.238,-0.048 0.238,-0.169 0,-0.086 -0.063,-0.172 -0.238,-0.172 -0.05,0 -0.086,0.003 -0.114,0.008 l 0,0.333" id="path25" style="fill: rgb(0, 0, 0); fill-opacity: 1;"/></svg>