<?xml version="1.0" standalone="no"?>
<!DOCTYPE svg PUBLIC "-//W3C//DTD SVG 20010904//EN"
 "http://www.w3.org/TR/2001/REC-SVG-20010904/DTD/svg10.dtd">
<svg version="1.0" xmlns="http://www.w3.org/2000/svg"
 width="4230.000000pt" height="1190.000000pt" viewBox="0 0 4230.000000 1190.000000"
 preserveAspectRatio="xMidYMid meet">
<metadata>
Created by potrace 1.13, written by Peter Selinger 2001-2015
</metadata>
<g transform="translate(0.000000,1190.000000) scale(0.100000,-0.100000)"
fill="#000000" stroke="none">
<path d="M0 5950 l0 -5950 21150 0 21150 0 0 5950 0 5950 -21150 0 -21150 0 0
-5950z m41076 4731 c21 -24 81 -84 105 -105 19 -16 19 -109 19 -4626 0 -4517
0 -4610 -19 -4626 -24 -21 -84 -81 -105 -105 -16 -19 -378 -19 -19923 -19
l-19907 0 -23 22 -23 21 0 4706 0 4705 22 23 21 23 19909 0 c19546 0 19908 0
19924 -19z"/>
<path d="M3722 9477 c-17 -18 -22 -36 -22 -74 0 -68 6 -80 50 -103 21 -11 40
-26 44 -35 3 -9 6 -61 6 -115 0 -54 3 -106 6 -115 4 -9 23 -24 44 -35 21 -11
40 -26 44 -35 3 -9 6 -83 6 -165 0 -82 3 -156 6 -165 4 -9 23 -24 44 -35 21
-11 40 -26 44 -35 3 -9 6 -61 6 -115 0 -54 3 -106 6 -115 4 -9 23 -24 44 -35
21 -11 40 -26 44 -35 3 -9 6 -61 6 -115 0 -54 3 -106 6 -115 4 -9 23 -24 44
-35 21 -11 40 -26 44 -35 3 -9 6 -83 6 -165 0 -82 3 -156 6 -165 4 -9 23 -24
44 -35 21 -11 40 -26 44 -35 3 -9 6 -61 6 -115 0 -54 3 -106 6 -115 4 -9 23
-24 44 -35 21 -11 40 -26 44 -35 3 -9 6 -61 6 -115 0 -54 3 -106 6 -115 4 -9
23 -24 44 -35 21 -11 40 -26 44 -35 3 -9 6 -83 6 -165 0 -82 3 -156 6 -165 4
-9 23 -24 44 -35 21 -11 40 -26 44 -35 3 -9 6 -61 6 -115 0 -54 3 -106 6 -115
4 -9 23 -24 44 -35 21 -11 40 -26 44 -35 3 -9 6 -61 6 -115 0 -54 3 -106 6
-115 4 -9 23 -24 44 -35 21 -11 40 -26 44 -35 3 -9 6 -83 6 -165 0 -82 3 -156
6 -165 4 -9 23 -24 44 -35 21 -11 40 -26 44 -35 3 -9 6 -61 6 -115 0 -54 3
-106 6 -115 4 -9 23 -24 44 -35 21 -11 40 -26 44 -35 3 -9 6 -61 6 -115 0 -54
3 -106 6 -115 4 -9 23 -24 44 -35 21 -11 40 -26 44 -35 3 -9 6 -83 6 -165 0
-82 3 -156 6 -165 4 -9 23 -24 44 -35 21 -11 40 -26 44 -35 3 -9 6 -61 6 -115
0 -54 3 -106 6 -115 4 -9 23 -24 44 -35 21 -11 40 -26 44 -35 3 -9 6 -61 6
-115 0 -54 3 -106 6 -115 4 -9 23 -24 44 -35 21 -11 40 -26 44 -35 3 -9 6 -83
6 -165 0 -82 3 -156 6 -165 4 -9 23 -24 44 -35 21 -11 40 -26 44 -35 3 -9 6
-61 6 -115 0 -54 3 -106 6 -115 4 -9 23 -24 44 -35 21 -11 40 -26 44 -35 3 -9
6 -61 6 -115 0 -54 3 -106 6 -115 4 -9 23 -24 44 -35 21 -11 40 -26 44 -35 3
-9 6 -61 6 -115 0 -54 3 -106 6 -115 4 -9 23 -24 44 -35 21 -11 40 -26 44 -35
3 -9 6 -63 6 -119 0 -94 2 -104 23 -124 l23 -22 605 0 606 0 21 23 c17 18 22
36 22 74 0 68 6 80 50 103 21 11 40 26 44 35 3 9 6 83 6 165 0 82 3 156 6 165
4 9 23 24 44 35 21 11 40 26 44 35 3 9 6 61 6 115 0 54 3 106 6 115 4 9 23 24
44 35 21 11 40 26 44 35 3 9 6 61 6 115 0 54 3 106 6 115 4 9 23 24 44 35 21
11 40 26 44 35 3 9 6 83 6 165 0 82 3 156 6 165 4 9 23 24 44 35 21 11 40 26
44 35 3 9 6 61 6 115 0 54 3 106 6 115 4 9 23 24 44 35 21 11 40 26 44 35 3 9
6 61 6 115 0 54 3 106 6 115 4 9 23 24 44 35 21 11 40 26 44 35 3 9 6 83 6
165 0 82 3 156 6 165 4 9 23 24 44 35 21 11 40 26 44 35 3 9 6 61 6 115 0 54
3 106 6 115 4 9 23 24 44 35 21 11 40 26 44 35 3 9 6 61 6 115 0 54 3 106 6
115 4 9 23 24 44 35 21 11 40 26 44 35 3 9 6 61 6 115 0 54 3 106 6 115 4 9
23 24 44 35 21 11 40 26 44 35 3 9 6 83 6 165 0 82 3 156 6 165 4 9 23 24 44
35 21 11 40 26 44 35 3 9 6 61 6 115 0 54 3 106 6 115 4 9 23 24 44 35 21 11
40 26 44 35 3 9 6 61 6 115 0 54 3 106 6 115 4 9 23 24 44 35 21 11 40 26 44
35 3 9 6 83 6 165 0 82 3 156 6 165 4 9 23 24 44 35 21 11 40 26 44 35 3 9 6
61 6 115 0 54 3 106 6 115 4 9 23 24 44 35 21 11 40 26 44 35 3 9 6 61 6 115
0 54 3 106 6 115 4 9 23 24 44 35 21 11 40 26 44 35 3 9 6 83 6 165 0 82 3
156 6 165 4 9 23 24 44 35 21 11 40 26 44 35 3 9 6 61 6 115 0 54 3 106 6 115
4 9 23 24 44 35 21 11 40 26 44 35 3 9 6 61 6 115 0 54 3 106 6 115 4 9 23 24
44 35 21 11 40 26 44 35 3 9 6 61 6 115 0 54 3 106 6 115 4 9 23 24 44 35 21
11 40 26 44 35 3 9 6 63 6 119 0 94 -2 104 -23 124 l-23 22 -655 0 -656 0 -21
-23 c-17 -18 -22 -36 -22 -74 0 -68 -6 -80 -50 -103 -21 -11 -40 -26 -44 -35
-3 -9 -6 -83 -6 -165 0 -82 -3 -156 -6 -165 -4 -9 -23 -24 -44 -35 -21 -11
-40 -26 -44 -35 -3 -9 -6 -61 -6 -115 0 -54 -3 -106 -6 -115 -4 -9 -23 -24
-44 -35 -21 -11 -40 -26 -44 -35 -3 -9 -6 -83 -6 -165 0 -82 -3 -156 -6 -165
-4 -9 -23 -24 -44 -35 -21 -11 -40 -26 -44 -35 -3 -9 -6 -106 -6 -215 0 -109
-3 -206 -6 -215 -4 -9 -23 -24 -44 -35 -21 -11 -40 -26 -44 -35 -3 -9 -6 -61
-6 -115 0 -54 -3 -106 -6 -115 -4 -9 -23 -24 -44 -35 -21 -11 -40 -26 -44 -35
-3 -9 -6 -106 -6 -215 0 -109 -3 -206 -6 -215 -4 -9 -23 -24 -44 -35 -21 -11
-40 -26 -44 -35 -3 -9 -6 -83 -6 -165 0 -82 -3 -156 -6 -165 -4 -9 -23 -24
-44 -35 -21 -11 -40 -26 -44 -35 -3 -9 -6 -83 -6 -165 0 -82 -3 -156 -6 -165
-4 -9 -23 -24 -44 -35 -21 -11 -40 -26 -44 -35 -3 -9 -6 -61 -6 -115 0 -54 -3
-106 -6 -115 -4 -9 -23 -24 -44 -35 -21 -11 -40 -26 -44 -35 -3 -9 -6 -106 -6
-215 0 -109 -3 -206 -6 -215 -4 -9 -23 -24 -44 -35 -21 -11 -40 -26 -44 -35
-3 -9 -6 -83 -6 -165 0 -82 -3 -156 -6 -165 -4 -9 -23 -24 -44 -35 -21 -11
-40 -26 -44 -35 -3 -9 -6 -86 -6 -171 0 -139 -2 -156 -19 -170 -78 -67 -81
-71 -81 -124 0 -67 -13 -90 -50 -90 -37 0 -50 23 -50 90 0 53 -3 57 -81 124
-17 14 -19 31 -19 170 0 85 -3 162 -6 171 -4 9 -23 24 -44 35 -21 11 -40 26
-44 35 -3 9 -6 83 -6 165 0 82 -3 156 -6 165 -4 9 -23 24 -44 35 -21 11 -40
26 -44 35 -3 9 -6 83 -6 165 0 82 -3 156 -6 165 -4 9 -23 24 -44 35 -21 11
-40 26 -44 35 -3 9 -6 83 -6 165 0 82 -3 156 -6 165 -4 9 -23 24 -44 35 -21
11 -40 26 -44 35 -3 9 -6 83 -6 165 0 82 -3 156 -6 165 -4 9 -23 24 -44 35
-21 11 -40 26 -44 35 -3 9 -6 83 -6 165 0 82 -3 156 -6 165 -4 9 -23 24 -44
35 -21 11 -40 26 -44 35 -3 9 -6 83 -6 165 0 82 -3 156 -6 165 -4 9 -23 24
-44 35 -21 11 -40 26 -44 35 -3 9 -6 61 -6 115 0 54 -3 106 -6 115 -4 9 -23
24 -44 35 -21 11 -40 26 -44 35 -3 9 -6 106 -6 215 0 109 -3 206 -6 215 -4 9
-23 24 -44 35 -21 11 -40 26 -44 35 -3 9 -6 61 -6 115 0 54 -3 106 -6 115 -4
9 -23 24 -44 35 -21 11 -40 26 -44 35 -3 9 -6 83 -6 165 0 82 -3 156 -6 165
-4 9 -23 24 -44 35 -21 11 -40 26 -44 35 -3 9 -6 83 -6 165 0 82 -3 156 -6
165 -4 9 -23 24 -44 35 -21 11 -40 26 -44 35 -3 9 -6 63 -6 119 0 94 -2 104
-23 124 l-23 22 -655 0 -656 0 -21 -23z"/>
<path d="M13322 9477 c-17 -18 -22 -36 -22 -74 0 -68 -6 -80 -50 -103 -21 -11
-40 -26 -44 -35 -3 -9 -6 -83 -6 -165 0 -82 -3 -156 -6 -165 -4 -9 -23 -24
-44 -35 -21 -11 -40 -26 -44 -35 -3 -9 -6 -61 -6 -115 0 -54 -3 -106 -6 -115
-4 -9 -23 -24 -44 -35 -21 -11 -40 -26 -44 -35 -3 -9 -6 -83 -6 -165 0 -82 -3
-156 -6 -165 -4 -9 -23 -24 -44 -35 -21 -11 -40 -26 -44 -35 -3 -9 -6 -61 -6
-115 0 -54 -3 -106 -6 -115 -4 -9 -23 -24 -44 -35 -21 -11 -40 -26 -44 -35 -3
-9 -6 -83 -6 -165 0 -82 -3 -156 -6 -165 -4 -9 -23 -24 -44 -35 -21 -11 -40
-26 -44 -35 -3 -9 -6 -61 -6 -115 0 -54 -3 -106 -6 -115 -4 -9 -23 -24 -44
-35 -21 -11 -40 -26 -44 -35 -3 -9 -6 -83 -6 -165 0 -82 -3 -156 -6 -165 -4
-9 -23 -24 -44 -35 -21 -11 -40 -26 -44 -35 -3 -9 -6 -61 -6 -115 0 -54 -3
-106 -6 -115 -4 -9 -23 -24 -44 -35 -21 -11 -40 -26 -44 -35 -3 -9 -6 -83 -6
-165 0 -82 -3 -156 -6 -165 -4 -9 -23 -24 -44 -35 -21 -11 -40 -26 -44 -35 -3
-9 -6 -61 -6 -115 0 -54 -3 -106 -6 -115 -4 -9 -23 -24 -44 -35 -21 -11 -40
-26 -44 -35 -3 -9 -6 -83 -6 -165 0 -82 -3 -156 -6 -165 -4 -9 -23 -24 -44
-35 -21 -11 -40 -26 -44 -35 -3 -9 -6 -61 -6 -115 0 -54 -3 -106 -6 -115 -4
-9 -23 -24 -44 -35 -21 -11 -40 -26 -44 -35 -3 -9 -6 -83 -6 -165 0 -82 -3
-156 -6 -165 -4 -9 -23 -24 -44 -35 -21 -11 -40 -26 -44 -35 -3 -9 -6 -61 -6
-115 0 -54 -3 -106 -6 -115 -4 -9 -23 -24 -44 -35 -21 -11 -40 -26 -44 -35 -3
-9 -6 -83 -6 -165 0 -82 -3 -156 -6 -165 -4 -9 -23 -24 -44 -35 -21 -11 -40
-26 -44 -35 -3 -9 -6 -83 -6 -165 0 -82 -3 -156 -6 -165 -4 -9 -23 -24 -44
-35 -21 -11 -40 -26 -44 -35 -3 -9 -6 -61 -6 -115 0 -54 -3 -106 -6 -115 -4
-9 -23 -24 -44 -35 -21 -11 -40 -26 -44 -35 -3 -9 -6 -61 -6 -115 0 -54 -3
-106 -6 -115 -4 -9 -23 -24 -44 -35 -21 -11 -40 -26 -44 -35 -3 -9 -6 -86 -6
-171 l0 -154 -45 -32 c-35 -25 -45 -38 -45 -60 0 -17 7 -31 19 -38 13 -7 257
-10 724 -10 l704 0 21 23 c21 22 22 33 22 174 0 83 3 159 6 168 4 9 23 24 44
35 21 11 40 26 44 35 3 9 6 83 6 165 0 82 3 156 6 165 4 9 23 24 44 35 21 11
40 26 44 35 3 9 6 61 6 115 0 54 3 106 6 115 4 9 23 24 44 35 21 11 40 26 44
35 3 9 6 109 6 221 0 188 1 205 19 220 24 21 84 81 105 105 16 18 46 19 1026
19 950 0 1011 -1 1024 -17 19 -23 79 -83 106 -105 19 -17 20 -29 20 -222 0
-112 3 -212 6 -221 4 -9 23 -24 44 -35 21 -11 40 -26 44 -35 3 -9 6 -61 6
-115 0 -54 3 -106 6 -115 4 -9 23 -24 44 -35 21 -11 40 -26 44 -35 3 -9 6 -61
6 -115 0 -54 3 -106 6 -115 4 -9 23 -24 44 -35 21 -11 40 -26 44 -35 3 -9 6
-83 6 -165 0 -82 3 -156 6 -165 4 -9 23 -24 44 -35 44 -23 50 -34 50 -104 0
-42 5 -57 23 -74 l23 -22 655 0 656 0 21 23 c17 18 22 36 22 74 0 68 -6 80
-50 103 -21 11 -40 26 -44 35 -3 9 -6 61 -6 115 0 54 -3 106 -6 115 -4 9 -23
24 -44 35 -21 11 -40 26 -44 35 -3 9 -6 83 -6 165 0 82 -3 156 -6 165 -4 9
-23 24 -44 35 -21 11 -40 26 -44 35 -3 9 -6 61 -6 115 0 54 -3 106 -6 115 -4
9 -23 24 -44 35 -21 11 -40 26 -44 35 -3 9 -6 83 -6 165 0 82 -3 156 -6 165
-4 9 -23 24 -44 35 -21 11 -40 26 -44 35 -3 9 -6 83 -6 165 0 82 -3 156 -6
165 -4 9 -23 24 -44 35 -21 11 -40 26 -44 35 -3 9 -6 61 -6 115 0 54 -3 106
-6 115 -4 9 -23 24 -44 35 -21 11 -40 26 -44 35 -3 9 -6 61 -6 115 0 54 -3
106 -6 115 -4 9 -23 24 -44 35 -21 11 -40 26 -44 35 -3 9 -6 83 -6 165 0 82
-3 156 -6 165 -4 9 -23 24 -44 35 -21 11 -40 26 -44 35 -3 9 -6 61 -6 115 0
54 -3 106 -6 115 -4 9 -23 24 -44 35 -21 11 -40 26 -44 35 -3 9 -6 83 -6 165
0 82 -3 156 -6 165 -4 9 -23 24 -44 35 -21 11 -40 26 -44 35 -3 9 -6 83 -6
165 0 82 -3 156 -6 165 -4 9 -23 24 -44 35 -21 11 -40 26 -44 35 -3 9 -6 61
-6 115 0 54 -3 106 -6 115 -4 9 -23 24 -44 35 -21 11 -40 26 -44 35 -3 9 -6
61 -6 115 0 54 -3 106 -6 115 -4 9 -23 24 -44 35 -21 11 -40 26 -44 35 -3 9
-6 83 -6 165 0 82 -3 156 -6 165 -4 9 -23 24 -44 35 -21 11 -40 26 -44 35 -3
9 -6 83 -6 165 0 82 -3 156 -6 165 -4 9 -23 24 -44 35 -21 11 -40 26 -44 35
-3 9 -6 61 -6 115 0 54 -3 106 -6 115 -4 9 -23 24 -44 35 -21 11 -40 26 -44
35 -3 9 -6 83 -6 165 0 82 -3 156 -6 165 -4 9 -23 24 -44 35 -21 11 -40 26
-44 35 -3 9 -6 61 -6 115 0 54 -3 106 -6 115 -4 9 -23 24 -44 35 -21 11 -40
26 -44 35 -3 9 -6 83 -6 165 0 82 -3 156 -6 165 -4 9 -23 24 -44 35 -44 23
-50 34 -50 104 0 42 -5 57 -23 74 l-23 22 -905 0 -906 0 -21 -23z m968 -1306
c5 -11 10 -65 10 -120 0 -54 3 -107 6 -116 4 -9 23 -24 44 -35 21 -11 40 -26
44 -35 3 -9 6 -106 6 -215 0 -109 3 -206 6 -215 4 -9 23 -24 44 -35 21 -11 40
-26 44 -35 3 -9 6 -61 6 -115 0 -54 3 -106 6 -115 4 -9 23 -24 44 -35 21 -11
40 -26 44 -35 3 -9 6 -83 6 -165 0 -82 3 -156 6 -165 4 -9 23 -24 44 -35 21
-11 40 -26 44 -35 3 -9 6 -61 6 -115 0 -54 3 -106 6 -115 4 -9 23 -24 44 -35
21 -11 40 -26 44 -35 3 -9 6 -83 6 -165 0 -82 3 -156 6 -165 4 -9 23 -24 44
-35 21 -11 40 -26 44 -35 3 -9 6 -61 6 -115 0 -54 3 -106 6 -115 4 -9 23 -24
44 -35 21 -11 40 -26 44 -35 3 -9 6 -85 6 -168 0 -141 -1 -152 -22 -174 l-21
-23 -706 0 -705 0 -23 22 c-22 21 -23 28 -23 174 0 84 3 160 6 169 4 9 23 24
44 35 21 11 40 26 44 35 3 9 6 61 6 115 0 54 3 106 6 115 4 9 23 24 44 35 21
11 40 26 44 35 3 9 6 106 6 215 0 109 3 206 6 215 4 9 23 24 44 35 21 11 40
26 44 35 3 9 6 83 6 165 0 82 3 156 6 165 4 9 23 24 44 35 21 11 40 26 44 35
3 9 6 83 6 165 0 82 3 156 6 165 4 9 23 24 44 35 21 11 40 26 44 35 3 9 6 61
6 115 0 54 3 106 6 115 4 9 23 24 44 35 21 11 40 26 44 35 3 9 6 106 6 215 0
109 3 206 6 215 4 8 19 22 35 31 16 8 41 32 55 54 21 31 33 40 55 40 18 0 32
-7 39 -19z"/>
<path d="M20722 9477 c-22 -23 -22 -29 -22 -324 0 -166 -3 -309 -6 -318 -4 -9
-23 -24 -44 -35 -21 -11 -40 -26 -44 -35 -3 -9 -6 -1414 -6 -3121 0 -3037 0
-3104 19 -3120 24 -21 84 -81 105 -105 16 -19 64 -19 2076 -19 1950 0 2061 1
2074 18 19 22 86 89 109 107 16 14 17 51 17 523 l0 509 -23 21 -23 22 -1455 0
-1456 0 -21 23 -22 23 0 2905 0 2906 -23 21 -23 22 -605 0 -606 0 -21 -23z"/>
<path d="M26722 9477 c-20 -21 -22 -34 -22 -124 0 -56 3 -109 6 -118 4 -9 23
-24 44 -35 21 -11 40 -26 44 -35 3 -9 6 -61 6 -115 0 -54 3 -106 6 -115 4 -9
23 -24 44 -35 21 -11 40 -26 44 -35 3 -9 6 -83 6 -165 0 -82 3 -156 6 -165 4
-9 23 -24 44 -35 21 -11 40 -26 44 -35 3 -9 6 -61 6 -115 0 -54 3 -106 6 -115
4 -9 23 -24 44 -35 21 -11 40 -26 44 -35 3 -9 6 -61 6 -115 0 -54 3 -106 6
-115 4 -9 23 -24 44 -35 21 -11 40 -26 44 -35 3 -9 6 -61 6 -115 0 -54 3 -106
6 -115 4 -9 23 -24 44 -35 21 -11 40 -26 44 -35 3 -9 6 -83 6 -165 0 -82 3
-156 6 -165 4 -9 23 -24 44 -35 21 -11 40 -26 44 -35 3 -9 6 -61 6 -115 0 -54
3 -106 6 -115 4 -9 23 -24 44 -35 21 -11 40 -26 44 -35 3 -9 6 -61 6 -115 0
-54 3 -106 6 -115 4 -9 23 -24 44 -35 21 -11 40 -26 44 -35 3 -9 6 -83 6 -165
0 -82 3 -156 6 -165 4 -9 23 -24 44 -35 21 -11 40 -26 44 -35 3 -9 6 -61 6
-115 0 -54 3 -106 6 -115 4 -9 23 -24 44 -35 21 -11 40 -26 44 -35 3 -9 6 -61
6 -115 0 -54 3 -106 6 -115 4 -9 23 -24 44 -35 21 -11 40 -26 44 -35 3 -9 6
-61 6 -115 0 -54 3 -106 6 -115 4 -9 23 -24 44 -35 21 -11 40 -26 44 -35 3 -9
6 -83 6 -165 0 -82 3 -156 6 -165 4 -9 23 -24 44 -35 21 -11 40 -26 44 -35 3
-9 6 -61 6 -115 0 -54 3 -106 6 -115 4 -9 23 -24 44 -35 21 -11 40 -26 44 -35
3 -9 6 -61 6 -115 0 -54 3 -106 6 -115 4 -9 23 -24 44 -35 21 -11 40 -26 44
-35 3 -9 6 -83 6 -165 0 -82 3 -156 6 -165 4 -9 23 -24 44 -35 21 -11 40 -26
44 -35 3 -9 6 -61 6 -115 0 -54 3 -106 6 -115 4 -9 23 -24 44 -35 21 -11 40
-26 44 -35 3 -9 6 -61 6 -115 0 -54 3 -106 6 -115 4 -9 23 -24 44 -35 21 -11
40 -26 44 -35 3 -9 6 -83 6 -165 0 -82 3 -156 6 -165 4 -9 23 -24 44 -35 21
-11 40 -26 44 -35 3 -9 6 -61 6 -115 0 -54 3 -106 6 -115 4 -9 23 -24 44 -35
44 -23 50 -34 50 -104 0 -42 5 -57 23 -74 l23 -22 557 0 c535 0 558 1 573 19
21 24 81 84 105 105 16 14 19 30 19 120 0 57 3 112 6 121 4 9 23 24 44 35 21
11 40 26 44 35 3 9 6 61 6 115 0 54 3 106 6 115 4 9 23 24 44 35 21 11 40 26
44 35 3 9 6 61 6 115 0 54 3 106 6 115 4 9 23 24 44 35 21 11 40 26 44 35 3 9
6 61 6 115 0 54 3 106 6 115 4 9 23 24 44 35 21 11 40 26 44 35 3 9 6 83 6
165 0 82 3 156 6 165 4 9 23 24 44 35 21 11 40 26 44 35 3 9 6 61 6 115 0 54
3 106 6 115 4 9 23 24 44 35 21 11 40 26 44 35 3 9 6 61 6 115 0 54 3 106 6
115 4 9 23 24 44 35 21 11 40 26 44 35 3 9 6 83 6 165 0 82 3 156 6 165 4 9
23 24 44 35 21 11 40 26 44 35 3 9 6 61 6 115 0 54 3 106 6 115 4 9 23 24 44
35 21 11 40 26 44 35 3 9 6 61 6 115 0 54 3 106 6 115 4 9 23 24 44 35 21 11
40 26 44 35 3 9 6 61 6 115 0 54 3 106 6 115 4 9 23 24 44 35 21 11 40 26 44
35 3 9 6 83 6 165 0 82 3 156 6 165 4 9 23 24 44 35 21 11 40 26 44 35 3 9 6
61 6 115 0 54 3 106 6 115 4 9 23 24 44 35 21 11 40 26 44 35 3 9 6 83 6 165
0 82 3 156 6 165 4 9 23 24 44 35 44 22 50 35 50 100 0 65 6 78 50 100 21 11
40 26 44 35 3 9 6 83 6 165 0 82 3 156 6 165 4 9 23 24 44 35 21 11 40 26 44
35 3 9 6 61 6 115 0 54 3 106 6 115 4 9 23 24 44 35 21 11 40 26 44 35 3 9 6
83 6 165 0 82 3 156 6 165 4 9 23 24 44 35 21 11 40 26 44 35 3 9 6 61 6 115
0 54 3 106 6 115 4 9 23 24 44 35 21 11 40 26 44 35 3 9 6 61 6 115 0 54 3
106 6 115 4 9 23 24 44 35 21 11 40 26 44 35 3 9 6 64 6 121 l0 104 45 32 c60
42 62 74 5 112 -22 14 -46 39 -54 55 -9 16 -23 31 -31 35 -9 3 -289 6 -621 6
-563 0 -605 -1 -618 -17 -19 -23 -79 -83 -106 -105 -19 -17 -20 -29 -20 -172
0 -85 -3 -162 -6 -171 -4 -9 -23 -24 -44 -35 -21 -11 -40 -26 -44 -35 -3 -9
-6 -83 -6 -165 0 -82 -3 -156 -6 -165 -4 -9 -23 -24 -44 -35 -21 -11 -40 -26
-44 -35 -3 -9 -6 -83 -6 -165 0 -82 -3 -156 -6 -165 -4 -9 -23 -24 -44 -35
-21 -11 -40 -26 -44 -35 -3 -9 -6 -83 -6 -165 0 -82 -3 -156 -6 -165 -4 -9
-23 -24 -44 -35 -21 -11 -40 -26 -44 -35 -3 -9 -6 -83 -6 -165 0 -82 -3 -156
-6 -165 -4 -9 -23 -24 -44 -35 -21 -11 -40 -26 -44 -35 -3 -9 -6 -106 -6 -215
0 -109 -3 -206 -6 -215 -4 -9 -23 -24 -44 -35 -21 -11 -40 -26 -44 -35 -3 -9
-6 -61 -6 -115 0 -54 -3 -106 -6 -115 -4 -9 -23 -24 -44 -35 -21 -11 -40 -26
-44 -35 -3 -9 -6 -83 -6 -165 0 -82 -3 -156 -6 -165 -4 -9 -23 -24 -44 -35
-21 -11 -40 -26 -44 -35 -3 -9 -6 -83 -6 -165 0 -82 -3 -156 -6 -165 -4 -9
-23 -24 -44 -35 -21 -11 -40 -26 -44 -35 -3 -9 -6 -83 -6 -165 0 -82 -3 -156
-6 -165 -4 -9 -23 -24 -44 -35 -21 -11 -40 -26 -44 -35 -3 -9 -6 -83 -6 -165
0 -82 -3 -156 -6 -165 -4 -9 -23 -24 -44 -35 -21 -11 -40 -26 -44 -35 -3 -9
-6 -83 -6 -165 0 -82 -3 -156 -6 -165 -4 -9 -23 -24 -44 -35 -21 -11 -40 -26
-44 -35 -3 -9 -6 -62 -6 -116 0 -116 -8 -139 -50 -139 -37 0 -50 23 -50 90 0
53 -3 57 -81 124 -18 15 -19 32 -19 220 0 112 -3 212 -6 221 -4 9 -23 24 -44
35 -21 11 -40 26 -44 35 -3 9 -6 61 -6 115 0 54 -3 106 -6 115 -4 9 -23 24
-44 35 -21 11 -40 26 -44 35 -3 9 -6 83 -6 165 0 82 -3 156 -6 165 -4 9 -23
24 -44 35 -21 11 -40 26 -44 35 -3 9 -6 83 -6 165 0 82 -3 156 -6 165 -4 9
-23 24 -44 35 -21 11 -40 26 -44 35 -3 9 -6 83 -6 165 0 82 -3 156 -6 165 -4
9 -23 24 -44 35 -21 11 -40 26 -44 35 -3 9 -6 83 -6 165 0 82 -3 156 -6 165
-4 9 -23 24 -44 35 -21 11 -40 26 -44 35 -3 9 -6 83 -6 165 0 82 -3 156 -6
165 -4 9 -23 24 -44 35 -21 11 -40 26 -44 35 -3 9 -6 83 -6 165 0 82 -3 156
-6 165 -4 9 -23 24 -44 35 -21 11 -40 26 -44 35 -3 9 -6 83 -6 165 0 82 -3
156 -6 165 -4 9 -23 24 -44 35 -21 11 -40 26 -44 35 -3 9 -6 61 -6 115 0 54
-3 106 -6 115 -4 9 -23 24 -44 35 -21 11 -40 26 -44 35 -3 9 -6 106 -6 215 0
109 -3 206 -6 215 -4 9 -23 24 -44 35 -21 11 -40 26 -44 35 -3 9 -6 61 -6 115
0 54 -3 106 -6 115 -4 9 -23 24 -44 35 -21 11 -40 26 -44 35 -3 9 -6 63 -6
119 0 94 -2 104 -23 124 l-23 22 -655 0 -656 0 -21 -23z"/>
<path d="M35222 9477 l-22 -23 0 -551 c0 -303 -3 -559 -6 -568 -4 -9 -23 -24
-44 -35 -21 -11 -40 -26 -44 -35 -3 -9 -6 -805 -6 -1769 l0 -1753 23 -21 23
-22 1455 0 1456 0 21 23 c22 23 22 26 22 428 l0 406 -23 21 -23 22 -905 0
-906 0 -21 23 c-22 23 -22 25 -22 478 l0 456 23 21 23 22 757 0 c731 0 758 1
773 19 21 24 81 84 105 105 18 15 19 35 19 374 l0 359 -23 21 -23 22 -805 0
-806 0 -21 23 c-22 23 -22 24 -22 528 l0 506 23 21 23 22 905 0 906 0 21 23
c22 23 22 28 22 380 0 348 -1 357 -20 375 -27 22 -80 75 -102 101 -18 21 -19
21 -1376 21 l-1359 0 -21 -23z"/>
</g>
</svg>
