<?xml version="1.0" encoding="utf-8"?><!-- Generator: Adobe Illustrator 19.1.0, SVG Export Plug-In . SVG Version: 6.00 Build 0) --><svg version="1.1" id="Layer_1" xmlns="http://www.w3.org/2000/svg" xmlns:xlink="http://www.w3.org/1999/xlink" x="0px" y="0px" viewBox="0 0 495.1 109.6" style="enable-background:new 0 0 495.1 109.6;" xml:space="preserve"><style type="text/css">.st0{fill:#FF0000;}</style><title>Layer 1 copy</title><g><g><path class="st0" d="M483.7,0.2c3.8-0.2,7.6-0.2,11.4-0.1c-11.4,23.8-22.4,47.8-33.5,71.7c-3.1,0-6.2,0-9.3,0	c-5.1-12-11.1-23.7-16.4-35.7c3.7-0.1,7.4-0.1,11.1,0c3.2,7.4,7,14.5,9.9,21.9C465.8,38.7,475,19.5,483.7,0.2z"/></g><g><path d="M197.4,10.4c7.3,0.1,14.7,0.1,22,0c-0.1,6.5-0.1,13.1,0,19.6c-7.3-0.1-14.7,0-22.1-0.1C197.5,23.4,197.3,16.9,197.4,10.4z	"/><g><path d="M86.7,38.4c15-8.5,36.8-5.6,46.9,9.1c6.2,8.7,8,19.7,7.9,30.1c-17.2,0.1-34.4,0-51.6,0.1c0.8,5.3,3.1,10.9,8,13.7	c7,4.1,18,2.9,21.5-5.2c7.1-0.2,14.1-0.2,21.2,0c-2.2,8.1-8.1,15-15.5,18.8c-8,4.4-17.6,5.2-26.5,3.7	c-9.4-1.5-18.1-6.8-23.4-14.7c-5.8-8.4-7.3-19.1-6-29C70.5,54.1,77,43.8,86.7,38.4z M98.4,50.9c-4.9,2.3-7.3,7.6-8.4,12.7	c9.8,0,19.6,0,29.4,0c-0.6-3.9-2-8-5-10.7C110.2,48.8,103.5,48.7,98.4,50.9z"/></g><g><path d="M317.3,34.6c11.8-2.1,24.9,0.4,34,8.6c15.5,13.8,16.2,40.5,1.8,55.3c-11.4,11.9-30.5,14.1-45.1,7.4	c-11.3-5.1-19-16.6-20.3-28.8c-0.5-7.1-0.2-14.4,2.7-21C294.8,44.8,305.5,36.6,317.3,34.6z M319.8,50.9c-6.2,2.2-9.1,8.9-10,15	c-0.7,7.6-0.6,16.2,4.3,22.5c5.3,6.9,17,6.7,22.3-0.1c4.4-5.5,5.1-13,4.6-19.8c-0.3-6-2.4-12.4-7.4-16.1	C329.6,49.7,324.3,49.3,319.8,50.9z"/></g><path d="M395.8,38.7c7.3-5.7,17.7-6.3,26.1-2.9c6,2.6,10.5,7.9,12.6,14c2.4,6.3,1.7,13.1,1.7,19.7c0,12.6-0.1,25.2,0.1,37.7	c-7.3,0.1-14.6,0-22,0.1c0-14.4,0-28.8,0-43.2c0-3.7-1.4-7.7-4.5-10c-4.7-3.2-11.5-2.6-15.5,1.4c-3.2,3.2-4.6,7.8-4.5,12.2	c0,13.2,0,26.4,0,39.6c-7.2-0.1-14.5,0-21.7-0.1c0-23.8,0.1-47.6,0-71.4c7.1,0.1,14.1-0.1,21.2,0.1c-0.1,3.3-0.1,6.6-0.2,9.9	C391.3,43.4,393.1,40.7,395.8,38.7z"/><path d="M0,36c7.6,0,15.2,0,22.8,0c4.6,15.3,9.5,30.6,13.8,46c5.3-15.1,9.3-30.7,14.3-46c7.3-0.1,14.7,0,22-0.1	C64.5,59.7,56.3,83.5,48,107.3c-7.6,0-15.2-0.1-22.8,0.1C16.5,83.7,8.8,59.6,0,36z"/><path d="M146.5,35.9c7,0,14,0,21,0c-0.1,4,0,8-0.2,12c1.8-2,3.1-4.5,5-6.4c4.7-5.2,12.4-7.3,19.2-5.5c-0.1,6.3-0.1,12.6,0,18.8	c-5.4-0.6-11.4-0.4-16,2.9c-4.9,3.4-7.1,9.7-7,15.5c-0.1,11.4,0,22.7,0,34.1c-7.3,0-14.7-0.1-22,0.1	C146.6,83.5,146.6,59.7,146.5,35.9z"/><path d="M197.4,36c7.4-0.1,14.7,0,22.1-0.1c-0.1,23.8,0,47.6,0,71.4c-7.3-0.1-14.7,0-22.1,0C197.4,83.5,197.4,59.8,197.4,36z"/><path d="M225.4,35.9c19.9,0.1,39.8,0,59.6,0.1c-0.2,5.5,0,10.9-0.1,16.4c-0.7,1.4-1.9,2.4-2.8,3.6c-10.2,11.3-20.2,22.9-30.6,34.1	c11.7,0.2,23.4,0,35.1,0.1c0,5.7,0,11.5,0,17.2c-20.4-0.1-40.8-0.1-61.2,0c0-5.5,0-11,0-16.6c10.7-12,21.3-23.9,32.1-35.8	c0.3-0.6,1.6-1.2,0.9-2c-11,0.3-22,0-33,0.2C225.4,47.4,225.4,41.7,225.4,35.9z"/></g></g></svg>