<?xml version="1.0" encoding="iso-8859-1"?><!-- Generator: Adobe Illustrator 16.0.0, SVG Export Plug-In . SVG Version: 6.00 Build 0) --><!DOCTYPE svg PUBLIC "-//W3C//DTD SVG 1.1//EN" "http://www.w3.org/Graphics/SVG/1.1/DTD/svg11.dtd"><svg version="1.1" id="Layer_1" xmlns="http://www.w3.org/2000/svg" xmlns:xlink="http://www.w3.org/1999/xlink" x="0px" y="0px" width="192.756px" height="192.756px" viewBox="0 0 192.756 192.756" style="enable-background:new 0 0 192.756 192.756;" xml:space="preserve"><g><polygon style="fill-rule:evenodd;clip-rule:evenodd;fill:#FFFFFF;" points="0,0 192.756,0 192.756,192.756 0,192.756 0,0	"/><path style="fill-rule:evenodd;clip-rule:evenodd;fill:#E7A83A;" d="M21.234,147.705c35.876-15.375,86.215-29.311,152.885-15.357	l0.699-16.91c-70.34-7.68-120.812,14.723-153.584,30.6V147.705L21.234,147.705z"/><polygon style="fill-rule:evenodd;clip-rule:evenodd;fill:#1D5B99;" points="58.75,103.115 74.299,51.846 88.173,51.846	72.623,103.115 58.75,103.115	"/><path style="fill-rule:evenodd;clip-rule:evenodd;fill:#1D5B99;" d="M52.548,51.86l-12.48,21.733	c-3.177,5.692-5.034,8.567-5.927,12.164h-0.19c0.221-4.56-0.415-10.158-0.475-13.322L32.098,51.86H8.744l-0.24,1.379	c6,0,9.558,3.014,10.537,9.179l4.552,40.697h14.373L67.028,51.86H52.548L52.548,51.86z"/><path style="fill-rule:evenodd;clip-rule:evenodd;fill:#1D5B99;" d="M160.439,103.115l-0.383-7.625l-17.324-0.014l-3.543,7.638	h-15.062l27.311-51.171h18.488l4.625,51.171H160.439L160.439,103.115z M158.848,72.873c-0.154-3.789-0.283-8.932-0.025-12.044	h-0.205c-0.844,2.545-4.471,10.188-6.066,13.947l-5.162,11.238h12.164L158.848,72.873L158.848,72.873z"/><path style="fill-rule:evenodd;clip-rule:evenodd;fill:#1D5B99;" d="M102.738,104.572c-9.795,0-16.295-3.107-20.936-5.877	l6.609-10.093c4.166,2.33,7.437,5.019,14.963,5.019c2.42,0,4.752-0.629,6.076-2.922c1.93-3.335-0.445-5.129-5.865-8.197	l-2.676-1.74c-8.034-5.49-11.509-10.704-7.727-19.806c2.42-5.822,8.803-10.235,19.333-10.235c7.262,0,14.07,3.141,18.037,6.21	l-7.598,8.911c-3.871-3.131-7.08-4.715-10.752-4.715c-2.928,0-5.152,1.129-5.92,2.652c-1.445,2.863,0.467,4.815,4.689,7.436	l3.182,2.024c9.754,6.152,12.078,12.603,9.633,18.634C119.582,102.254,111.35,104.572,102.738,104.572L102.738,104.572z"/><path style="fill-rule:evenodd;clip-rule:evenodd;fill:#1D5B99;" d="M178.346,59.776h-0.914v-5.558h2.109	c1.342,0,2.027,0.47,2.027,1.598c0,1.006-0.619,1.422-1.451,1.516l1.557,2.444h-1.033l-1.436-2.376h-0.859V59.776L178.346,59.776z M179.365,56.621c0.686,0,1.289-0.067,1.289-0.873c0-0.671-0.658-0.752-1.207-0.752h-1.102v1.625H179.365L179.365,56.621z M179.338,61.924c-2.885,0-4.939-2.161-4.939-5.021c0-3.021,2.281-5.021,4.939-5.021c2.633,0,4.914,2,4.914,5.021	C184.252,59.923,181.971,61.924,179.338,61.924L179.338,61.924z M179.338,52.755c-2.174,0-3.865,1.704-3.865,4.148	c0,2.282,1.477,4.148,3.865,4.148c2.148,0,3.84-1.691,3.84-4.148C183.178,54.459,181.486,52.755,179.338,52.755L179.338,52.755z"/></g></svg>