<svg xmlns="http://www.w3.org/2000/svg" width="114.406" height="64" viewBox="0 0 114.406 64">
  <defs>
    <style>
      .cls-1 {
        fill: #4e729a;
        fill-rule: evenodd;
      }
    </style>
  </defs>
  <path id="_64px" data-name="64px" class="cls-1" d="M203.064,106s0.606-6.406-3.211-10.918c-7.29-8.616-14.751-14.213-14.794-17.652-0.067-5.192,5.994-9.009,14.807-21.53,3.1-4.4,7.229-13.9,7.229-13.9H180.934s-3.768,8.481-4.9,10.966c-5.988,13.1-10.5,20.282-14.528,20.018-5.447-.357-2.3-22.1-4.179-28.189-0.815-2.637-8.256-2.774-13.473-2.774-7.376,0-12.163,1.214-13.218,4.445,2.427,1,4.489,1.388,5.707,3.64,1.727,3.193,2.25,22.372-1.557,23.138-2.49.5-9.183-8.3-14.787-20.278C118.806,50.424,116.278,42,116.278,42L92.681,42s15.46,60.819,52.737,63.628c4.737,0.357,11.617.873,13.231-1.965,2-3.512-.378-11.707,4.41-12.478,3.372-.544,6.2,4.159,8.042,6.239,3.265,3.681,7.091,7.655,12.711,8.579h19.252Z" transform="translate(-92.688 -42)"/>
</svg>
