<?xml version="1.0" encoding="utf-8"?>
<!-- Generator: Adobe Illustrator 19.0.0, SVG Export Plug-In . SVG Version: 6.00 Build 0)  -->
<!DOCTYPE svg PUBLIC "-//W3C//DTD SVG 1.1//EN" "http://www.w3.org/Graphics/SVG/1.1/DTD/svg11.dtd">
<svg version="1.1" id="Layer_1" xmlns="http://www.w3.org/2000/svg" xmlns:xlink="http://www.w3.org/1999/xlink" x="0px" y="0px"
	 viewBox="0 0 600 198" enable-background="new 0 0 600 198" xml:space="preserve">
<metadata><?xpacket begin="﻿" id="W5M0MpCehiHzreSzNTczkc9d"?>
<x:xmpmeta xmlns:x="adobe:ns:meta/" x:xmptk="Adobe XMP Core 5.6-c067 79.157747, 2015/03/30-23:40:42        ">
   <rdf:RDF xmlns:rdf="http://www.w3.org/1999/02/22-rdf-syntax-ns#">
      <rdf:Description rdf:about=""
            xmlns:dc="http://purl.org/dc/elements/1.1/"
            xmlns:xmp="http://ns.adobe.com/xap/1.0/"
            xmlns:xmpGImg="http://ns.adobe.com/xap/1.0/g/img/"
            xmlns:xmpMM="http://ns.adobe.com/xap/1.0/mm/"
            xmlns:stRef="http://ns.adobe.com/xap/1.0/sType/ResourceRef#"
            xmlns:stEvt="http://ns.adobe.com/xap/1.0/sType/ResourceEvent#"
            xmlns:illustrator="http://ns.adobe.com/illustrator/1.0/"
            xmlns:xmpTPg="http://ns.adobe.com/xap/1.0/t/pg/"
            xmlns:stDim="http://ns.adobe.com/xap/1.0/sType/Dimensions#"
            xmlns:xmpG="http://ns.adobe.com/xap/1.0/g/"
            xmlns:pdf="http://ns.adobe.com/pdf/1.3/">
         <dc:format>image/svg+xml</dc:format>
         <dc:title>
            <rdf:Alt>
               <rdf:li xml:lang="x-default">Web</rdf:li>
            </rdf:Alt>
         </dc:title>
         <xmp:CreatorTool>Adobe Illustrator CC 2015 (Macintosh)</xmp:CreatorTool>
         <xmp:CreateDate>2015-06-25T10:07:18-04:00</xmp:CreateDate>
         <xmp:ModifyDate>2015-06-25T10:07:18-04:00</xmp:ModifyDate>
         <xmp:MetadataDate>2015-06-25T10:07:18-04:00</xmp:MetadataDate>
         <xmp:Thumbnails>
            <rdf:Alt>
               <rdf:li rdf:parseType="Resource">
                  <xmpGImg:width>256</xmpGImg:width>
                  <xmpGImg:height>80</xmpGImg:height>
                  <xmpGImg:format>JPEG</xmpGImg:format>
                  <xmpGImg:image>/9j/4AAQSkZJRgABAgEASABIAAD/7QAsUGhvdG9zaG9wIDMuMAA4QklNA+0AAAAAABAASAAAAAEA&#xA;AQBIAAAAAQAB/+4ADkFkb2JlAGTAAAAAAf/bAIQABgQEBAUEBgUFBgkGBQYJCwgGBggLDAoKCwoK&#xA;DBAMDAwMDAwQDA4PEA8ODBMTFBQTExwbGxscHx8fHx8fHx8fHwEHBwcNDA0YEBAYGhURFRofHx8f&#xA;Hx8fHx8fHx8fHx8fHx8fHx8fHx8fHx8fHx8fHx8fHx8fHx8fHx8fHx8fHx8f/8AAEQgAUAEAAwER&#xA;AAIRAQMRAf/EAaIAAAAHAQEBAQEAAAAAAAAAAAQFAwIGAQAHCAkKCwEAAgIDAQEBAQEAAAAAAAAA&#xA;AQACAwQFBgcICQoLEAACAQMDAgQCBgcDBAIGAnMBAgMRBAAFIRIxQVEGE2EicYEUMpGhBxWxQiPB&#xA;UtHhMxZi8CRygvElQzRTkqKyY3PCNUQnk6OzNhdUZHTD0uIIJoMJChgZhJRFRqS0VtNVKBry4/PE&#xA;1OT0ZXWFlaW1xdXl9WZ2hpamtsbW5vY3R1dnd4eXp7fH1+f3OEhYaHiImKi4yNjo+Ck5SVlpeYmZ&#xA;qbnJ2en5KjpKWmp6ipqqusra6voRAAICAQIDBQUEBQYECAMDbQEAAhEDBCESMUEFURNhIgZxgZEy&#xA;obHwFMHR4SNCFVJicvEzJDRDghaSUyWiY7LCB3PSNeJEgxdUkwgJChgZJjZFGidkdFU38qOzwygp&#xA;0+PzhJSktMTU5PRldYWVpbXF1eX1RlZmdoaWprbG1ub2R1dnd4eXp7fH1+f3OEhYaHiImKi4yNjo&#xA;+DlJWWl5iZmpucnZ6fkqOkpaanqKmqq6ytrq+v/aAAwDAQACEQMRAD8A9U4q4MrCqkEeIxV4n518&#xA;z/mtb/mr5etrTR4xCDeLp1qlyTDexED1XmeiBDHGqsAy/CfGuKvVrHzJpktpcvc3lrHd6bGG1mCK&#xA;dZVtHCc5FdvhNF33Kjpirx3yVqnmD8y/zWfzLFNNaeU/LzFbOIEqsjUZUUjoXfkXfwWi+GKveMVd&#xA;irsVdirsVdirsVdirsVdirsVdirsVdirsVdirsVdirsVdirsVdirsVdirsVdirsVUb6zivbK4s5i&#xA;whuY3hkKMUbjIpU8WG6mh2IxV4hL/wA49+adCd7nyb5xmsiKt6NwZIV/2ckJZW+mLFWMaj+bf5oe&#xA;TNTgh12fR/MEsPNYplaCaVFNA4DWzRyR8tv7xN/emKvNtb85Xmpa1rl9aL+i7fzE4bULeNi4IZxI&#xA;45UUkNIOR29sVehaF5782wRJ5W8gX2k6fo1uxW31C4kgt7mdm3aaVbxuRkY9kj26CoFcVfRfk+31&#xA;238s6fFr19HqOrrHW7vIgAjszFhx4hQQqkLWgrSuKpxirsVdirsVdirsVdirsVdirsVdirsVdirs&#xA;VdirsVdirsVdirsVdirsVdirsVdirsVdirxzzH+RXmTzPrt5d655xuJNLmlMlvYpGxVEJqEVGk9N&#xA;OPTZTXriqQ+fPy5/Kr8tvKz301rJq2tXNYdKjvZSwaam8hji9JCkYNTUHsO+KsJtvLWoeQ9O8qav&#xA;qVtA58yXR/SVrdQxTqtijQlIHSVXoZVdnam4oo2IxV7jrn/OP/5Y6ryZdOfTZm6y2MrR/dG3qRD/&#xA;AIDFUBon5Na35S0PW7fyl5lnjv8AUERbP60iCCIq1Sxosh5lSy81XavTpir0Ty5b61b6FYwa5cR3&#xA;erxwqt7cwrxR5AN2A2++gr4DpiqY4q7FXYq7FXYq7FXYq7FXYq7FXYq7FXYq7FXYq7FXYq7FXYq7&#xA;FXYq7FXYq7FXYq7FXYqwbzt5f/LPVda07VPNF/bR3Ok19GG4uooYj8av+9RyOVCvT78Veb/85I+a&#xA;vKGt+V9Oh0nV7TUL63vwWitpUmIiaGQM1UJFOQUYq9P0z82vy9uNOtZ5vMVjHNLDG8sbzIjKzKCw&#xA;ZTxIIPamKptZ+e/JF4QLXzBp07EVCJdwFt/FeVcVTtHR1DIwZWFVYGoI+eKt4q7FXYq7FXYq7FXY&#xA;q7FXYq7FXYq7FXYq7FXYq7FXYq7FXYq7FXYq7FXYq7FXYqg9Z1ay0fSrvVL5/Ts7KJ552G54oKmg&#xA;7k9APHFXgOkaZ+ZH5yzXWq3WryaD5UWVorW1i5FXC9VEatH6hUfakc9eg6gKp1e/kB+UvlnTjqPm&#xA;TV7tbdSFaWeaOJGcg/CiJHzJPXiCTtiqp5K/Lz/nHvzW90NCgl1A2HAXCyS3sO0lQjfEYia8D0xV&#xA;N/Mv5N/kloWi3Gr6npbWdjaBWnnS5vHIDMEUcfUetWYDYYqxnQPyx/5x/wDOTPF5e1K5W5Ucmto5&#xA;mjmVe5Ed1GxYDuQCMVQ/mP8AKDzZ+Xun3HmPyP5iumhsR691p7ihMSbuxCn0pQo3ZWQbDFXrf5be&#xA;dYfOXlGz1pVWO5asN9CvSO4jpzArXY1DL7EYqk/5p/m3D5Am06ObSpb9dQWVllWVYlUxFQV3VyT8&#xA;ftiqcflx59s/PHlz9M2tu1pxme3mtmYOUdAG+0Ataq6npiqS/md+cGneRdS0mxltfrkl+3qXYD8D&#xA;BbBgnqAcW5EnlxH+ScVegRSxyxJLEweORQyOpqGUioII7HFXjGr/APOTGm2PmK70a20Ka9+rXT2i&#xA;TxzqPVZH9OqJwPUjbfFXtOKuxV2KuxV2KuxV2KuxV2KuxV2KuxV2KvOPzO/OzR/IupW+mPYy6jfz&#xA;RCeSNHESRxsWVauQ9WJU7U6Yqy/yh5q03zV5ds9d07kLa7U/u5BR0dGKOjU7qyke+KpxirsVdirs&#xA;VfOn5+fnHpmpWNz5O0Ii5hZ0/SOoq37usT8vRjFPi+JVJetO2+KvcfJegReX/Kek6NGoX6nbRpJT&#xA;vKRylb/ZSFjirBPzP8k29/5mh82ea7yN/I+g2ZkbTAX9R7jkduAHFhISo+0CaBaU3xVmH5faj5S1&#xA;by7Dq3lewTT9Pu9jEtuls3KIleLKg4tx6VBI98VTjW7jS7bR7251YI2mQQvLeCVQ6ekilm5IQeWw&#xA;6Yq8jt/KXljz7Jovnb8vkXy/eabfAXhaA2wkjjILjhFyjZqHqDQhiGOKvaJI0kjaORQyOCrqdwQd&#xA;iDir5g8m+f0/Kfzvr/lm+tmn0SW/4+orEPbxqzBZlTiefKJlLDbptirP/wDnIKysPMv5XQ+YNMlS&#xA;6gsJoruG4iPINBKfRcD/AGTqT4ccVYt/ziv5hjhl1/RbiQInpx6hFyNAojrHOxr7NHiryj8yfNz+&#xA;bPOepazU/VpJPTslP7NvF8Me3aoHI+5OKve/yg/MtH/KHUJrqTlf+VLaRGDdWiSNmtf1emP9XFXi&#xA;/wCTGiHXPzL0oXHxQWkrahdyNuALYeoC1exk4g18cVfSNz+e35UW8pjk19GYdTHBcyrtt9qOJl/H&#xA;FU78r/mJ5L80u8Wg6rFeTRgs0FHil4g0LenKqPx96UxVONT1XTdKspL7UrqKzs4hWSeZwiDw3bue&#xA;wxVh9t+eX5VXF0LWPzBEspbiGkiuIo61pvLJGsYHvypiqfv538ppr1voDapB+l7pFlt7UNUurqWW&#xA;jAcKsoqBWpGKorXfMehaBZG91m+hsLatA8zBeR/lRftMfZRirGdN/Oz8rdRu0tLbX4hM5ovrxz26&#xA;E9KepNHGn44qyjW9e0fQ9Ll1TVbpLTT4ePqXD1IHMhVoFBJqT2xVKNQ/MzyFp+j2usXetW6afeqW&#xA;tJFLO0oU8WKRIGkPFhRvh2OxxVR8u/mt+XvmK8FlpGtQzXbbJBIstu7nwQTpHzPstcVZZirENf8A&#xA;zc/LnQb1rHVNbhju4yVlhiSW4ZGHVX9BJOJ9jviqaeWfO3lTzPC0ug6nDfCMVkjQlZUB6FonCyKP&#xA;muKvMvzy8p/ltqetWN55h8xHQdVaDgAI2nEsCMeJKKPhIZiA1d/oxVlnl3Xfy18keRNGS31iJdCn&#xA;DLY3khZ2nkLM0rEKvKvOvLYcem2Kpj5g/NT8vvL8sUWq61DFLMiyJHEJLhuDjkrFYFkKhhuCeuKo&#xA;7yv568peaY5H0HU4r4xbyxLySVQe7RSBJAPfjTFXz1/zk35i0rVPM9hZWF4tzJpcUsN7EhJWKcuK&#xA;qT9nltQ06UocVZt+Qn5ieTrLyXpXl291WODWGuJo47SQOKtLMzRgOV4fFyFPi64q8EtvLmqad55s&#xA;tD1aBre9W/ghnikr+3Ko5V7qwNQR1GKvtjWte0bQ7MXur3kdlaGRIRNM3Fech4qP8+g3OwxViX54&#xA;aZe6n+VutQWCtLKEhn9NBUvHDOkr9PBFLfRiqTf8443XmW68iGbV5Xks0mFvo6SKq8baFFX4SACy&#xA;8qrv4Yqy78z9OvNR/L3X7OzQy3MtnIYolBLOUHPioHUnjQDFXnv/ADi/ceY5vLOopfyO2j20scGk&#xA;xOoUIwMklxxNAzAtIvUnfFXtOKvj7/nIOBI/zX1YoKGVLV2H+UbaNf4Yq99/L7ydfN+S1r5X1qI2&#xA;91d2d1FLFJ9qMXUsrx8h1DKsimnY7Yq+TbHU9W0K6vY7dzbXE0M9hdr39OUcJU/DFXo35NflMnnH&#xA;RPMN/drxVYGs9Jkb7IvCBJ6n/POig+zHFXnVvqer6PFqulqzQC+j+p6jAw3pFMsnE+BDxU+VR3xV&#xA;7b/zi75cge28w6/eKPq7INOR22XgR6twCT2p6eKsDuPKX5QWd7Paz+dbi54s6xzWmns0S70Uly/7&#xA;zbrwFD2xVj/lDUH0Pz/pdzp1z66WuoRpHcoGQTQmXgx4tRgssZOx3ocVZf8A85Decr/WfPNzo/qs&#xA;NL0ZhDBACeJm4gyyMP5uTFR7D3OKoyy/5xo84XXlhNWF3bpqMsQni0lg3IqRyCNL9lZCO1KV74qx&#xA;T8oTIfzR8u+oSXW7VTyrUcVIA38AKYqh/wAyfOt95w83XeoXEx+pJK0OnRE1SK3VqLQCu7AcmI6n&#xA;FUP5n07yLbWdq/lzWLrULqvG8iubb0F6V5xkM1BXbian3xVmmm+bdQ1b8hPMOjXsjTHRLmwFtI5J&#xA;YQTzfBHU9kaJqeA26AYqxn8tvy11rz7qU1pZTpbWtiitdXctWWMOx4KqDcsxDEDYbHfFXfmN+W+u&#xA;eQNXtoLudJ4blTLYX0PJOXpkcgQd1dCR3PUb4q9O1r85daf8jtOuIp3TzBfTvpdxeA0fjAvKSZW/&#xA;naNkBPixPXFWA/ln+TWu+fLe5vobqOw063f0Tcyq0jPLxDFUQU6BhyJPfviqV6jYea/yw88LGJhD&#xA;qmnsssU8RJimicV7heSOPhYEeIxVl/8AzkVq8Os6r5Y1aAcYtQ0aG5Ra14iWR34k+IrQ4qlnnH/y&#xA;Sn5ff8ZdV/6imxVD/lp+T2s+fbO/vre+isoLNhCrzKzmSUry40X7KgUqffYHFUo8j6lqflX8xdOk&#xA;BMdzZ362t5Gp+0hk9KaPwNRXFU8/PbyTN5a863N29ytxFr01xqEShSrR+rMWZG6g0LbHFU7/ACi/&#xA;JPU9eg0fzcNSht7OK8WX6sUdpCLWbcV2WrFMVZl/zk1YJZv5Y8zxwD1rO7ME0wFGYbTxIx67em5X&#xA;fucVZ5+bPllvOX5dXltptJ7lkjvtOp/uxo/jAX3eMlR88VUPyf8AzFsPNXly3tJpRH5g02NYNSs3&#xA;+GQtGOHqqp6q1N/5Tt4VVZ/irsVdirsVeCaVY6b5p/5yU1qea3ju7LR4QaSLyUT2yRQVIO3JZS1P&#xA;lir3vFXxx+dXlibTfzT1KztYiw1SVLuzjUbu13uwA/4zc1GKvqfyD5Vh8q+UdN0OOhktogbl16PO&#xA;/wAcrfIuTT2xV84/85H+Tf0L50GsW0fGx11TMadFuo6Ccf7Kqv7ljirNrrQ9Q0D/AJxheK0Vkur2&#xA;GK8vigo3pXc6M1f+eJVW9q4q8h/LK5/LmDVbtvPNvLPYtbsLQR+oQJqjqIirV4/Z7eOKpFopgPmi&#xA;wNuGFv8AXovRD0L8PWHHlTatOuKsw/Pry3d6N+Y+ozyRkWmqsL20lp8LBwPUFelVk5VHyPfFWY2P&#xA;/OUd9beV47J9HWTXIYRCl4ZaQMVXiJWj48q9yoND4jFXnn5QOz/mj5fdzV2vAzE9yQxOKoDzT5eu&#xA;PJ3nafTr+0E8VjdCSOCXkI7i2D8k3FCUkQUND498VZrqP5mflJ9RQ6b+X0BvmA9RbiSkSHvxKfE/&#xA;3LirNfO8Hk2X8grrW/K+mR6Zbau9pJPGi0b1IbkRsjE/a9Nw4Hbv3xV5d+Uv5pz+QdTu5WtPrun6&#xA;gqLdwhuEgMRYxujEEbc22PWuKtfmz+adz5+1O0l+qCx0/T0dLSAt6jkylTI7tRRVuC7AbUxVluqf&#xA;ljrX/KgtMvhA5v7S6l1Wa1I+NbS4UISAN/sRxyHwFfDFUn/KT87JvI1hdaVd2B1DTZ5DcRCNxHJH&#xA;KVCtuQwZW4Dbt1xVjnmzzFrv5k+eBdQ2Z+uXzR2thYRHnwRdlXlQV6lmY0HU7DFWV/8AOQejLol9&#xA;5V0dW5jT9Ehti4/aMTupb/ZEVxVAecf/ACSn5ff8ZdV/6imxV6n/AM4rf8ofq/8A20D/AMmI8VeG&#xA;aj/5NG6/7bb/APUWcVen/wDOV1rMNW8v3RH7l4J4lb/KR1Yj7nGKpf8AlP8AnvaeVtBsPLV5pbTR&#xA;rcsGvkmCBIp5ORYoVbkVLHuNsVe+/mB5OtPOHlW80O4YRPMA9rcEV9KdN43p4V2PsTirx3y7+Zvn&#xA;L8r0g8s+etHmn0q2/dWGpQUJ9IdFjc0jmVR0HJWUbHwCqtrx/I7zvqA1vTfMp8seY2YM92A9tV/5&#xA;pBJ6aFv8pJB7nFWb/lux0dbsap+YVt5nglCfVQ00JMYBNWLmWVzyqNuVMVZpL5p8swqGl1eyjUmg&#xA;Z7iJRXw3bFUh1T84fyy01C0/mG0lp+zaubonau3oCTFXnmv/APOQWpa9I+iflzo9zeajMCq30sdT&#xA;GDt6iRLy6V+1IQB3GKsw/Jr8tLnydpN1d6tKJ/MOrsst+9efpgVKx89+TVcl27n5VKr0TFWO6x5B&#xA;8uav5o0vzNfQs+p6QONqQ37s0JZC603KMxZd+uKsixVIPOvkfQPOWlR6ZrUbtBFMs8TxNwdXUFdm&#xA;odirEHFU5axs3sjYvCj2Zj9FrdlDRmPjx4FTsV47UxV5ndf842/lnPeNcJFd26M3L6tFP+6HsOau&#xA;9P8AZYqmrfkb+Wn1zT7uHSvq8mnFWiEUjqshRgymXclyCOp3PfFW/wA5NQ8g2PliJ/Odi1/ZS3Cx&#xA;W0MIH1hZGBJeJucZXiqmpDe3fFXjd/o//ONdtpE+o2up317c+k5ttNLSq5lK/Ch/dJxoT1LU+eKs&#xA;V/IvS7nUPzQ0UQqStq73U7dljijY1PzYqv04q+qfN/kHyp5utkh12xW4aKvoXCkxzR168JFoaex2&#xA;9sVYZZf841/lnb3CTSx3l2i9YJriiN8/SWNv+GxVf+fVhZaf+T97ZWMCW1pA9qkMEShERROmyqNs&#xA;VeL/AJFfl/5d86anq1nraSmO2t0kgeGQxsrM9CehB28Rir3Py9+QH5b6LfJfLZy388RDQi9k9VEY&#xA;dD6ahEb/AGQOKvRiK7HpirzjX/8AnH78ttZvnvTZy6fLIS0q2UnpRsx7+mwdF/2IGKp35L/K3yX5&#xA;PZpdHsqXrrwe+nYyzlT1AY7KD3CgVxVZ51/Kryh5yvLe81qGVrm2jMMbwytH8BblQgVGxJxVQ1P8&#xA;nfIuo+W9M8uz2sg07SC7WXCVxIplJaSrb15seR/DFU38meR/L3k/TZNO0SJ4oJpTPKZHMjs5AWpJ&#xA;9lA2xVjs/wCRP5dza+2uPazi8e5+uOgncRmXn6h+HwLb0rirJ/Nvk7y/5s0o6Zrdt9Yt+XOJwSsk&#xA;bgUDxuNwfwPfFWEad/zjf+WdncrPJBdXoQgiG4nrHUb7iNYyfkTir1HFVO5tba6geC5iSeCQUeKR&#xA;Q6MPAq1QcVYTqv5HfldqTM8uhRW8h/atHktwPkkTLH/wuKvO/wAx/wAhvJ2heWLvU9GsNW1C+BVI&#xA;La2mR+DPsJHUxO7IppyC7/IbhVI/yg/JfRvMun3jeZ9M1bT7u1kASZiIIJUYV4orx+pyX9rqOm+K&#xA;vWNN/IL8rLFg/wCiPrUg6NczTSDrX7HIJ/wuKs30zR9J0q2FtpllBY2439G3jSJK+PFABiqLxV2K&#xA;uxV2KuxV2KuxV2KsP/Mn8sdG8+WFtb6hPNaz2TO9pcQFTxMgAYOjAhgeI8D74q8o/wChTp/Xp/iZ&#xA;fq9ftfUzzp8vWp+OKvWfy9/LHy35Gs5ItMVpry4p9av5qGVwOiigAVAf2R9NcVZdirsVYv8AmX5O&#xA;m84eT7zQYLlbSa4aJ0mdS6gxSK9CAQd+NMVYr+Tv5O3/AJDv9RvLzUYr03sSQokKMvHixYkljir1&#xA;LFXYq7FXYq7FXYq7FXYq7FXYq//Z</xmpGImg:image>
               </rdf:li>
            </rdf:Alt>
         </xmp:Thumbnails>
         <xmpMM:RenditionClass>proof:pdf</xmpMM:RenditionClass>
         <xmpMM:OriginalDocumentID>uuid:65E6390686CF11DBA6E2D887CEACB407</xmpMM:OriginalDocumentID>
         <xmpMM:DocumentID>xmp.did:9c4c6746-8c4b-46fc-b565-74c0a855293b</xmpMM:DocumentID>
         <xmpMM:InstanceID>xmp.iid:9c4c6746-8c4b-46fc-b565-74c0a855293b</xmpMM:InstanceID>
         <xmpMM:DerivedFrom rdf:parseType="Resource">
            <stRef:instanceID>uuid:1abccb90-0c26-4942-b156-fd2eb962e3e1</stRef:instanceID>
            <stRef:documentID>xmp.did:58fdc1b8-1448-3a44-9e20-282d8ec1cf95</stRef:documentID>
            <stRef:originalDocumentID>uuid:65E6390686CF11DBA6E2D887CEACB407</stRef:originalDocumentID>
            <stRef:renditionClass>proof:pdf</stRef:renditionClass>
         </xmpMM:DerivedFrom>
         <xmpMM:History>
            <rdf:Seq>
               <rdf:li rdf:parseType="Resource">
                  <stEvt:action>saved</stEvt:action>
                  <stEvt:instanceID>xmp.iid:9c4c6746-8c4b-46fc-b565-74c0a855293b</stEvt:instanceID>
                  <stEvt:when>2015-06-25T10:07:18-04:00</stEvt:when>
                  <stEvt:softwareAgent>Adobe Illustrator CC 2015 (Macintosh)</stEvt:softwareAgent>
                  <stEvt:changed>/</stEvt:changed>
               </rdf:li>
            </rdf:Seq>
         </xmpMM:History>
         <illustrator:StartupProfile>Web</illustrator:StartupProfile>
         <xmpTPg:NPages>1</xmpTPg:NPages>
         <xmpTPg:HasVisibleTransparency>False</xmpTPg:HasVisibleTransparency>
         <xmpTPg:HasVisibleOverprint>False</xmpTPg:HasVisibleOverprint>
         <xmpTPg:MaxPageSize rdf:parseType="Resource">
            <stDim:w>600.000000</stDim:w>
            <stDim:h>198.000000</stDim:h>
            <stDim:unit>Pixels</stDim:unit>
         </xmpTPg:MaxPageSize>
         <xmpTPg:PlateNames>
            <rdf:Seq>
               <rdf:li>Cyan</rdf:li>
               <rdf:li>Magenta</rdf:li>
               <rdf:li>Yellow</rdf:li>
               <rdf:li>Black</rdf:li>
            </rdf:Seq>
         </xmpTPg:PlateNames>
         <xmpTPg:SwatchGroups>
            <rdf:Seq>
               <rdf:li rdf:parseType="Resource">
                  <xmpG:groupName>Default Swatch Group</xmpG:groupName>
                  <xmpG:groupType>0</xmpG:groupType>
                  <xmpG:Colorants>
                     <rdf:Seq>
                        <rdf:li rdf:parseType="Resource">
                           <xmpG:swatchName>White</xmpG:swatchName>
                           <xmpG:mode>RGB</xmpG:mode>
                           <xmpG:type>PROCESS</xmpG:type>
                           <xmpG:red>255</xmpG:red>
                           <xmpG:green>255</xmpG:green>
                           <xmpG:blue>255</xmpG:blue>
                        </rdf:li>
                        <rdf:li rdf:parseType="Resource">
                           <xmpG:swatchName>Black</xmpG:swatchName>
                           <xmpG:mode>RGB</xmpG:mode>
                           <xmpG:type>PROCESS</xmpG:type>
                           <xmpG:red>0</xmpG:red>
                           <xmpG:green>0</xmpG:green>
                           <xmpG:blue>0</xmpG:blue>
                        </rdf:li>
                        <rdf:li rdf:parseType="Resource">
                           <xmpG:swatchName>RGB Red</xmpG:swatchName>
                           <xmpG:mode>RGB</xmpG:mode>
                           <xmpG:type>PROCESS</xmpG:type>
                           <xmpG:red>255</xmpG:red>
                           <xmpG:green>0</xmpG:green>
                           <xmpG:blue>0</xmpG:blue>
                        </rdf:li>
                        <rdf:li rdf:parseType="Resource">
                           <xmpG:swatchName>RGB Yellow</xmpG:swatchName>
                           <xmpG:mode>RGB</xmpG:mode>
                           <xmpG:type>PROCESS</xmpG:type>
                           <xmpG:red>255</xmpG:red>
                           <xmpG:green>255</xmpG:green>
                           <xmpG:blue>0</xmpG:blue>
                        </rdf:li>
                        <rdf:li rdf:parseType="Resource">
                           <xmpG:swatchName>RGB Green</xmpG:swatchName>
                           <xmpG:mode>RGB</xmpG:mode>
                           <xmpG:type>PROCESS</xmpG:type>
                           <xmpG:red>0</xmpG:red>
                           <xmpG:green>255</xmpG:green>
                           <xmpG:blue>0</xmpG:blue>
                        </rdf:li>
                        <rdf:li rdf:parseType="Resource">
                           <xmpG:swatchName>RGB Cyan</xmpG:swatchName>
                           <xmpG:mode>RGB</xmpG:mode>
                           <xmpG:type>PROCESS</xmpG:type>
                           <xmpG:red>0</xmpG:red>
                           <xmpG:green>255</xmpG:green>
                           <xmpG:blue>255</xmpG:blue>
                        </rdf:li>
                        <rdf:li rdf:parseType="Resource">
                           <xmpG:swatchName>RGB Blue</xmpG:swatchName>
                           <xmpG:mode>RGB</xmpG:mode>
                           <xmpG:type>PROCESS</xmpG:type>
                           <xmpG:red>0</xmpG:red>
                           <xmpG:green>0</xmpG:green>
                           <xmpG:blue>255</xmpG:blue>
                        </rdf:li>
                        <rdf:li rdf:parseType="Resource">
                           <xmpG:swatchName>RGB Magenta</xmpG:swatchName>
                           <xmpG:mode>RGB</xmpG:mode>
                           <xmpG:type>PROCESS</xmpG:type>
                           <xmpG:red>255</xmpG:red>
                           <xmpG:green>0</xmpG:green>
                           <xmpG:blue>255</xmpG:blue>
                        </rdf:li>
                        <rdf:li rdf:parseType="Resource">
                           <xmpG:swatchName>R=193 G=39 B=45</xmpG:swatchName>
                           <xmpG:mode>RGB</xmpG:mode>
                           <xmpG:type>PROCESS</xmpG:type>
                           <xmpG:red>193</xmpG:red>
                           <xmpG:green>39</xmpG:green>
                           <xmpG:blue>45</xmpG:blue>
                        </rdf:li>
                        <rdf:li rdf:parseType="Resource">
                           <xmpG:swatchName>R=237 G=28 B=36</xmpG:swatchName>
                           <xmpG:mode>RGB</xmpG:mode>
                           <xmpG:type>PROCESS</xmpG:type>
                           <xmpG:red>237</xmpG:red>
                           <xmpG:green>28</xmpG:green>
                           <xmpG:blue>36</xmpG:blue>
                        </rdf:li>
                        <rdf:li rdf:parseType="Resource">
                           <xmpG:swatchName>R=241 G=90 B=36</xmpG:swatchName>
                           <xmpG:mode>RGB</xmpG:mode>
                           <xmpG:type>PROCESS</xmpG:type>
                           <xmpG:red>241</xmpG:red>
                           <xmpG:green>90</xmpG:green>
                           <xmpG:blue>36</xmpG:blue>
                        </rdf:li>
                        <rdf:li rdf:parseType="Resource">
                           <xmpG:swatchName>R=247 G=147 B=30</xmpG:swatchName>
                           <xmpG:mode>RGB</xmpG:mode>
                           <xmpG:type>PROCESS</xmpG:type>
                           <xmpG:red>247</xmpG:red>
                           <xmpG:green>147</xmpG:green>
                           <xmpG:blue>30</xmpG:blue>
                        </rdf:li>
                        <rdf:li rdf:parseType="Resource">
                           <xmpG:swatchName>R=251 G=176 B=59</xmpG:swatchName>
                           <xmpG:mode>RGB</xmpG:mode>
                           <xmpG:type>PROCESS</xmpG:type>
                           <xmpG:red>251</xmpG:red>
                           <xmpG:green>176</xmpG:green>
                           <xmpG:blue>59</xmpG:blue>
                        </rdf:li>
                        <rdf:li rdf:parseType="Resource">
                           <xmpG:swatchName>R=252 G=238 B=33</xmpG:swatchName>
                           <xmpG:mode>RGB</xmpG:mode>
                           <xmpG:type>PROCESS</xmpG:type>
                           <xmpG:red>252</xmpG:red>
                           <xmpG:green>238</xmpG:green>
                           <xmpG:blue>33</xmpG:blue>
                        </rdf:li>
                        <rdf:li rdf:parseType="Resource">
                           <xmpG:swatchName>R=217 G=224 B=33</xmpG:swatchName>
                           <xmpG:mode>RGB</xmpG:mode>
                           <xmpG:type>PROCESS</xmpG:type>
                           <xmpG:red>217</xmpG:red>
                           <xmpG:green>224</xmpG:green>
                           <xmpG:blue>33</xmpG:blue>
                        </rdf:li>
                        <rdf:li rdf:parseType="Resource">
                           <xmpG:swatchName>R=140 G=198 B=63</xmpG:swatchName>
                           <xmpG:mode>RGB</xmpG:mode>
                           <xmpG:type>PROCESS</xmpG:type>
                           <xmpG:red>140</xmpG:red>
                           <xmpG:green>198</xmpG:green>
                           <xmpG:blue>63</xmpG:blue>
                        </rdf:li>
                        <rdf:li rdf:parseType="Resource">
                           <xmpG:swatchName>R=57 G=181 B=74</xmpG:swatchName>
                           <xmpG:mode>RGB</xmpG:mode>
                           <xmpG:type>PROCESS</xmpG:type>
                           <xmpG:red>57</xmpG:red>
                           <xmpG:green>181</xmpG:green>
                           <xmpG:blue>74</xmpG:blue>
                        </rdf:li>
                        <rdf:li rdf:parseType="Resource">
                           <xmpG:swatchName>R=0 G=146 B=69</xmpG:swatchName>
                           <xmpG:mode>RGB</xmpG:mode>
                           <xmpG:type>PROCESS</xmpG:type>
                           <xmpG:red>0</xmpG:red>
                           <xmpG:green>146</xmpG:green>
                           <xmpG:blue>69</xmpG:blue>
                        </rdf:li>
                        <rdf:li rdf:parseType="Resource">
                           <xmpG:swatchName>R=0 G=104 B=55</xmpG:swatchName>
                           <xmpG:mode>RGB</xmpG:mode>
                           <xmpG:type>PROCESS</xmpG:type>
                           <xmpG:red>0</xmpG:red>
                           <xmpG:green>104</xmpG:green>
                           <xmpG:blue>55</xmpG:blue>
                        </rdf:li>
                        <rdf:li rdf:parseType="Resource">
                           <xmpG:swatchName>R=34 G=181 B=115</xmpG:swatchName>
                           <xmpG:mode>RGB</xmpG:mode>
                           <xmpG:type>PROCESS</xmpG:type>
                           <xmpG:red>34</xmpG:red>
                           <xmpG:green>181</xmpG:green>
                           <xmpG:blue>115</xmpG:blue>
                        </rdf:li>
                        <rdf:li rdf:parseType="Resource">
                           <xmpG:swatchName>R=0 G=169 B=157</xmpG:swatchName>
                           <xmpG:mode>RGB</xmpG:mode>
                           <xmpG:type>PROCESS</xmpG:type>
                           <xmpG:red>0</xmpG:red>
                           <xmpG:green>169</xmpG:green>
                           <xmpG:blue>157</xmpG:blue>
                        </rdf:li>
                        <rdf:li rdf:parseType="Resource">
                           <xmpG:swatchName>R=41 G=171 B=226</xmpG:swatchName>
                           <xmpG:mode>RGB</xmpG:mode>
                           <xmpG:type>PROCESS</xmpG:type>
                           <xmpG:red>41</xmpG:red>
                           <xmpG:green>171</xmpG:green>
                           <xmpG:blue>226</xmpG:blue>
                        </rdf:li>
                        <rdf:li rdf:parseType="Resource">
                           <xmpG:swatchName>R=0 G=113 B=188</xmpG:swatchName>
                           <xmpG:mode>RGB</xmpG:mode>
                           <xmpG:type>PROCESS</xmpG:type>
                           <xmpG:red>0</xmpG:red>
                           <xmpG:green>113</xmpG:green>
                           <xmpG:blue>188</xmpG:blue>
                        </rdf:li>
                        <rdf:li rdf:parseType="Resource">
                           <xmpG:swatchName>R=46 G=49 B=146</xmpG:swatchName>
                           <xmpG:mode>RGB</xmpG:mode>
                           <xmpG:type>PROCESS</xmpG:type>
                           <xmpG:red>46</xmpG:red>
                           <xmpG:green>49</xmpG:green>
                           <xmpG:blue>146</xmpG:blue>
                        </rdf:li>
                        <rdf:li rdf:parseType="Resource">
                           <xmpG:swatchName>R=27 G=20 B=100</xmpG:swatchName>
                           <xmpG:mode>RGB</xmpG:mode>
                           <xmpG:type>PROCESS</xmpG:type>
                           <xmpG:red>27</xmpG:red>
                           <xmpG:green>20</xmpG:green>
                           <xmpG:blue>100</xmpG:blue>
                        </rdf:li>
                        <rdf:li rdf:parseType="Resource">
                           <xmpG:swatchName>R=102 G=45 B=145</xmpG:swatchName>
                           <xmpG:mode>RGB</xmpG:mode>
                           <xmpG:type>PROCESS</xmpG:type>
                           <xmpG:red>102</xmpG:red>
                           <xmpG:green>45</xmpG:green>
                           <xmpG:blue>145</xmpG:blue>
                        </rdf:li>
                        <rdf:li rdf:parseType="Resource">
                           <xmpG:swatchName>R=147 G=39 B=143</xmpG:swatchName>
                           <xmpG:mode>RGB</xmpG:mode>
                           <xmpG:type>PROCESS</xmpG:type>
                           <xmpG:red>147</xmpG:red>
                           <xmpG:green>39</xmpG:green>
                           <xmpG:blue>143</xmpG:blue>
                        </rdf:li>
                        <rdf:li rdf:parseType="Resource">
                           <xmpG:swatchName>R=158 G=0 B=93</xmpG:swatchName>
                           <xmpG:mode>RGB</xmpG:mode>
                           <xmpG:type>PROCESS</xmpG:type>
                           <xmpG:red>158</xmpG:red>
                           <xmpG:green>0</xmpG:green>
                           <xmpG:blue>93</xmpG:blue>
                        </rdf:li>
                        <rdf:li rdf:parseType="Resource">
                           <xmpG:swatchName>R=212 G=20 B=90</xmpG:swatchName>
                           <xmpG:mode>RGB</xmpG:mode>
                           <xmpG:type>PROCESS</xmpG:type>
                           <xmpG:red>212</xmpG:red>
                           <xmpG:green>20</xmpG:green>
                           <xmpG:blue>90</xmpG:blue>
                        </rdf:li>
                        <rdf:li rdf:parseType="Resource">
                           <xmpG:swatchName>R=237 G=30 B=121</xmpG:swatchName>
                           <xmpG:mode>RGB</xmpG:mode>
                           <xmpG:type>PROCESS</xmpG:type>
                           <xmpG:red>237</xmpG:red>
                           <xmpG:green>30</xmpG:green>
                           <xmpG:blue>121</xmpG:blue>
                        </rdf:li>
                        <rdf:li rdf:parseType="Resource">
                           <xmpG:swatchName>R=199 G=178 B=153</xmpG:swatchName>
                           <xmpG:mode>RGB</xmpG:mode>
                           <xmpG:type>PROCESS</xmpG:type>
                           <xmpG:red>199</xmpG:red>
                           <xmpG:green>178</xmpG:green>
                           <xmpG:blue>153</xmpG:blue>
                        </rdf:li>
                        <rdf:li rdf:parseType="Resource">
                           <xmpG:swatchName>R=153 G=134 B=117</xmpG:swatchName>
                           <xmpG:mode>RGB</xmpG:mode>
                           <xmpG:type>PROCESS</xmpG:type>
                           <xmpG:red>153</xmpG:red>
                           <xmpG:green>134</xmpG:green>
                           <xmpG:blue>117</xmpG:blue>
                        </rdf:li>
                        <rdf:li rdf:parseType="Resource">
                           <xmpG:swatchName>R=115 G=99 B=87</xmpG:swatchName>
                           <xmpG:mode>RGB</xmpG:mode>
                           <xmpG:type>PROCESS</xmpG:type>
                           <xmpG:red>115</xmpG:red>
                           <xmpG:green>99</xmpG:green>
                           <xmpG:blue>87</xmpG:blue>
                        </rdf:li>
                        <rdf:li rdf:parseType="Resource">
                           <xmpG:swatchName>R=83 G=71 B=65</xmpG:swatchName>
                           <xmpG:mode>RGB</xmpG:mode>
                           <xmpG:type>PROCESS</xmpG:type>
                           <xmpG:red>83</xmpG:red>
                           <xmpG:green>71</xmpG:green>
                           <xmpG:blue>65</xmpG:blue>
                        </rdf:li>
                        <rdf:li rdf:parseType="Resource">
                           <xmpG:swatchName>R=198 G=156 B=109</xmpG:swatchName>
                           <xmpG:mode>RGB</xmpG:mode>
                           <xmpG:type>PROCESS</xmpG:type>
                           <xmpG:red>198</xmpG:red>
                           <xmpG:green>156</xmpG:green>
                           <xmpG:blue>109</xmpG:blue>
                        </rdf:li>
                        <rdf:li rdf:parseType="Resource">
                           <xmpG:swatchName>R=166 G=124 B=82</xmpG:swatchName>
                           <xmpG:mode>RGB</xmpG:mode>
                           <xmpG:type>PROCESS</xmpG:type>
                           <xmpG:red>166</xmpG:red>
                           <xmpG:green>124</xmpG:green>
                           <xmpG:blue>82</xmpG:blue>
                        </rdf:li>
                        <rdf:li rdf:parseType="Resource">
                           <xmpG:swatchName>R=140 G=98 B=57</xmpG:swatchName>
                           <xmpG:mode>RGB</xmpG:mode>
                           <xmpG:type>PROCESS</xmpG:type>
                           <xmpG:red>140</xmpG:red>
                           <xmpG:green>98</xmpG:green>
                           <xmpG:blue>57</xmpG:blue>
                        </rdf:li>
                        <rdf:li rdf:parseType="Resource">
                           <xmpG:swatchName>R=117 G=76 B=36</xmpG:swatchName>
                           <xmpG:mode>RGB</xmpG:mode>
                           <xmpG:type>PROCESS</xmpG:type>
                           <xmpG:red>117</xmpG:red>
                           <xmpG:green>76</xmpG:green>
                           <xmpG:blue>36</xmpG:blue>
                        </rdf:li>
                        <rdf:li rdf:parseType="Resource">
                           <xmpG:swatchName>R=96 G=56 B=19</xmpG:swatchName>
                           <xmpG:mode>RGB</xmpG:mode>
                           <xmpG:type>PROCESS</xmpG:type>
                           <xmpG:red>96</xmpG:red>
                           <xmpG:green>56</xmpG:green>
                           <xmpG:blue>19</xmpG:blue>
                        </rdf:li>
                        <rdf:li rdf:parseType="Resource">
                           <xmpG:swatchName>R=66 G=33 B=11</xmpG:swatchName>
                           <xmpG:mode>RGB</xmpG:mode>
                           <xmpG:type>PROCESS</xmpG:type>
                           <xmpG:red>66</xmpG:red>
                           <xmpG:green>33</xmpG:green>
                           <xmpG:blue>11</xmpG:blue>
                        </rdf:li>
                     </rdf:Seq>
                  </xmpG:Colorants>
               </rdf:li>
               <rdf:li rdf:parseType="Resource">
                  <xmpG:groupName>Grays</xmpG:groupName>
                  <xmpG:groupType>1</xmpG:groupType>
                  <xmpG:Colorants>
                     <rdf:Seq>
                        <rdf:li rdf:parseType="Resource">
                           <xmpG:swatchName>R=0 G=0 B=0</xmpG:swatchName>
                           <xmpG:mode>RGB</xmpG:mode>
                           <xmpG:type>PROCESS</xmpG:type>
                           <xmpG:red>0</xmpG:red>
                           <xmpG:green>0</xmpG:green>
                           <xmpG:blue>0</xmpG:blue>
                        </rdf:li>
                        <rdf:li rdf:parseType="Resource">
                           <xmpG:swatchName>R=26 G=26 B=26</xmpG:swatchName>
                           <xmpG:mode>RGB</xmpG:mode>
                           <xmpG:type>PROCESS</xmpG:type>
                           <xmpG:red>26</xmpG:red>
                           <xmpG:green>26</xmpG:green>
                           <xmpG:blue>26</xmpG:blue>
                        </rdf:li>
                        <rdf:li rdf:parseType="Resource">
                           <xmpG:swatchName>R=51 G=51 B=51</xmpG:swatchName>
                           <xmpG:mode>RGB</xmpG:mode>
                           <xmpG:type>PROCESS</xmpG:type>
                           <xmpG:red>51</xmpG:red>
                           <xmpG:green>51</xmpG:green>
                           <xmpG:blue>51</xmpG:blue>
                        </rdf:li>
                        <rdf:li rdf:parseType="Resource">
                           <xmpG:swatchName>R=77 G=77 B=77</xmpG:swatchName>
                           <xmpG:mode>RGB</xmpG:mode>
                           <xmpG:type>PROCESS</xmpG:type>
                           <xmpG:red>77</xmpG:red>
                           <xmpG:green>77</xmpG:green>
                           <xmpG:blue>77</xmpG:blue>
                        </rdf:li>
                        <rdf:li rdf:parseType="Resource">
                           <xmpG:swatchName>R=102 G=102 B=102</xmpG:swatchName>
                           <xmpG:mode>RGB</xmpG:mode>
                           <xmpG:type>PROCESS</xmpG:type>
                           <xmpG:red>102</xmpG:red>
                           <xmpG:green>102</xmpG:green>
                           <xmpG:blue>102</xmpG:blue>
                        </rdf:li>
                        <rdf:li rdf:parseType="Resource">
                           <xmpG:swatchName>R=128 G=128 B=128</xmpG:swatchName>
                           <xmpG:mode>RGB</xmpG:mode>
                           <xmpG:type>PROCESS</xmpG:type>
                           <xmpG:red>128</xmpG:red>
                           <xmpG:green>128</xmpG:green>
                           <xmpG:blue>128</xmpG:blue>
                        </rdf:li>
                        <rdf:li rdf:parseType="Resource">
                           <xmpG:swatchName>R=153 G=153 B=153</xmpG:swatchName>
                           <xmpG:mode>RGB</xmpG:mode>
                           <xmpG:type>PROCESS</xmpG:type>
                           <xmpG:red>153</xmpG:red>
                           <xmpG:green>153</xmpG:green>
                           <xmpG:blue>153</xmpG:blue>
                        </rdf:li>
                        <rdf:li rdf:parseType="Resource">
                           <xmpG:swatchName>R=179 G=179 B=179</xmpG:swatchName>
                           <xmpG:mode>RGB</xmpG:mode>
                           <xmpG:type>PROCESS</xmpG:type>
                           <xmpG:red>179</xmpG:red>
                           <xmpG:green>179</xmpG:green>
                           <xmpG:blue>179</xmpG:blue>
                        </rdf:li>
                        <rdf:li rdf:parseType="Resource">
                           <xmpG:swatchName>R=204 G=204 B=204</xmpG:swatchName>
                           <xmpG:mode>RGB</xmpG:mode>
                           <xmpG:type>PROCESS</xmpG:type>
                           <xmpG:red>204</xmpG:red>
                           <xmpG:green>204</xmpG:green>
                           <xmpG:blue>204</xmpG:blue>
                        </rdf:li>
                        <rdf:li rdf:parseType="Resource">
                           <xmpG:swatchName>R=230 G=230 B=230</xmpG:swatchName>
                           <xmpG:mode>RGB</xmpG:mode>
                           <xmpG:type>PROCESS</xmpG:type>
                           <xmpG:red>230</xmpG:red>
                           <xmpG:green>230</xmpG:green>
                           <xmpG:blue>230</xmpG:blue>
                        </rdf:li>
                        <rdf:li rdf:parseType="Resource">
                           <xmpG:swatchName>R=242 G=242 B=242</xmpG:swatchName>
                           <xmpG:mode>RGB</xmpG:mode>
                           <xmpG:type>PROCESS</xmpG:type>
                           <xmpG:red>242</xmpG:red>
                           <xmpG:green>242</xmpG:green>
                           <xmpG:blue>242</xmpG:blue>
                        </rdf:li>
                     </rdf:Seq>
                  </xmpG:Colorants>
               </rdf:li>
               <rdf:li rdf:parseType="Resource">
                  <xmpG:groupName>Web Color Group</xmpG:groupName>
                  <xmpG:groupType>1</xmpG:groupType>
                  <xmpG:Colorants>
                     <rdf:Seq>
                        <rdf:li rdf:parseType="Resource">
                           <xmpG:swatchName>R=63 G=169 B=245</xmpG:swatchName>
                           <xmpG:mode>RGB</xmpG:mode>
                           <xmpG:type>PROCESS</xmpG:type>
                           <xmpG:red>63</xmpG:red>
                           <xmpG:green>169</xmpG:green>
                           <xmpG:blue>245</xmpG:blue>
                        </rdf:li>
                        <rdf:li rdf:parseType="Resource">
                           <xmpG:swatchName>R=122 G=201 B=67</xmpG:swatchName>
                           <xmpG:mode>RGB</xmpG:mode>
                           <xmpG:type>PROCESS</xmpG:type>
                           <xmpG:red>122</xmpG:red>
                           <xmpG:green>201</xmpG:green>
                           <xmpG:blue>67</xmpG:blue>
                        </rdf:li>
                        <rdf:li rdf:parseType="Resource">
                           <xmpG:swatchName>R=255 G=147 B=30</xmpG:swatchName>
                           <xmpG:mode>RGB</xmpG:mode>
                           <xmpG:type>PROCESS</xmpG:type>
                           <xmpG:red>255</xmpG:red>
                           <xmpG:green>147</xmpG:green>
                           <xmpG:blue>30</xmpG:blue>
                        </rdf:li>
                        <rdf:li rdf:parseType="Resource">
                           <xmpG:swatchName>R=255 G=29 B=37</xmpG:swatchName>
                           <xmpG:mode>RGB</xmpG:mode>
                           <xmpG:type>PROCESS</xmpG:type>
                           <xmpG:red>255</xmpG:red>
                           <xmpG:green>29</xmpG:green>
                           <xmpG:blue>37</xmpG:blue>
                        </rdf:li>
                        <rdf:li rdf:parseType="Resource">
                           <xmpG:swatchName>R=255 G=123 B=172</xmpG:swatchName>
                           <xmpG:mode>RGB</xmpG:mode>
                           <xmpG:type>PROCESS</xmpG:type>
                           <xmpG:red>255</xmpG:red>
                           <xmpG:green>123</xmpG:green>
                           <xmpG:blue>172</xmpG:blue>
                        </rdf:li>
                        <rdf:li rdf:parseType="Resource">
                           <xmpG:swatchName>R=189 G=204 B=212</xmpG:swatchName>
                           <xmpG:mode>RGB</xmpG:mode>
                           <xmpG:type>PROCESS</xmpG:type>
                           <xmpG:red>189</xmpG:red>
                           <xmpG:green>204</xmpG:green>
                           <xmpG:blue>212</xmpG:blue>
                        </rdf:li>
                     </rdf:Seq>
                  </xmpG:Colorants>
               </rdf:li>
            </rdf:Seq>
         </xmpTPg:SwatchGroups>
         <pdf:Producer>Adobe PDF library 10.01</pdf:Producer>
      </rdf:Description>
   </rdf:RDF>
</x:xmpmeta>
                                                                                                    
                                                                                                    
                                                                                                    
                                                                                                    
                                                                                                    
                                                                                                    
                                                                                                    
                                                                                                    
                                                                                                    
                                                                                                    
                                                                                                    
                                                                                                    
                                                                                                    
                                                                                                    
                                                                                                    
                                                                                                    
                                                                                                    
                                                                                                    
                                                                                                    
                                                                                                    
                           
<?xpacket end="w"?>
	</metadata>
<g id="XMLID_2_">
	<g id="XMLID_29_">
		<path id="XMLID_39_" fill="#393939" d="M153,116.7c-0.8-1.6-2.2-2.4-3.9-2.8c-0.4-0.1-0.7-0.4-0.9-0.8c-1.1-2.3-2.8-3.8-6.3-4.2
			c-0.6-0.1-1-0.5-1.2-1c-2.1-7.8-5.1-14.7-8.8-19.5c-7.1-9.3-40.7-10.2-54.2-10.2c-0.9,0-1.7-0.7-1.8-1.7c-0.8-8.7-1.5-15.6-3.4-26
			c-0.4-2.5-3.5-3.5-5.3-1.7c-1.3,1.3-1.9,3.2-1.6,5c1.6,9.1,2.2,14.8,2.9,22.6c0.1,1-0.7,1.9-1.7,2c-17.2,0.7-35.3,3.1-42.3,8.1
			c-2.1,1.5-8.1,7-11.9,21.7c-0.1,0.5-0.6,0.9-1.1,1c-2.7,0.5-4.2,1.9-5.1,4c-0.2,0.4-0.5,0.7-0.9,0.8c-1.7,0.3-3.1,1.2-3.9,2.7
			C0,119.8-1,128.9,1.4,132.5c0.7,1,1.6,1.6,2.6,2c0.4,0.1,0.7,0.5,0.8,0.9c0.7,2.3,1.9,4,4.2,4.9c0.5,0.2,0.7,0.6,0.8,1.1
			c0.8,10.1,3.2,19.6,8.4,25c8.6,8.9,28.9,14.5,54.5,15.1c0.4,0,0.7,0.3,0.7,0.7v1.6c0,0.4-0.3,0.7-0.7,0.7h-0.5
			c-2,0-3.8,1.5-3.9,3.5c-0.1,2.1,1.6,3.9,3.7,3.9l9.4,0c2,0,3.8-1.5,3.9-3.5c0.1-2.1-1.6-3.9-3.7-3.9h-0.3c-0.4,0-0.6-0.4-0.6-0.7
			l0-1.7c0-0.4,0.3-0.7,0.7-0.7c20.5-0.6,43.7-4.7,54.2-15c5.1-5,7.8-14.2,8.6-24.8c0-0.5,0.4-1,0.9-1.2c2.6-0.8,4-2.6,4.7-5.1
			c0.1-0.4,0.4-0.7,0.8-0.9c1-0.4,1.9-1,2.6-2C155.6,128.9,154.5,119.8,153,116.7z M23.5,161.2c-11.3-11.7-7.1-59.7,5.4-68.6
			C42,83,119,83.7,126.1,93c12.4,16.3,15,57.6,4.3,68.1C112.7,178.4,39.8,178.2,23.5,161.2z"/>
		<path id="XMLID_38_" fill="#393939" d="M86,38.8l9.4-2.3c1.7-0.4,3-2,3-3.8c-0.1-2.4-2.4-4-4.6-3.4L78.7,33
			c-1.7,0.4-2.1,2.5-0.8,3.6c1,0.8,2.5,1.6,4.9,2.2C83.8,39.1,84.9,39.1,86,38.8z"/>
		<path id="XMLID_37_" fill="#393939" d="M109.8,54.7l2.2,0.6c0.3,0.1,0.6,0.1,0.9,0.1c1.7,0,3.2-1.1,3.6-2.8c0.5-2-0.7-4-2.7-4.5
			l-2.2-0.6c-2-0.5-4,0.7-4.5,2.7C106.7,52.2,107.9,54.2,109.8,54.7z"/>
		<path id="XMLID_36_" fill="#393939" d="M40.9,18.8c4.5,0,6.4,1.9,6.4,6.4c0,1,0.8,1.7,1.7,1.7c1,0,1.7-0.8,1.7-1.7
			c0-4.5,1.9-6.4,6.4-6.4c1,0,1.7-0.8,1.7-1.7c0-1-0.8-1.7-1.7-1.7c-4.5,0-6.4-1.9-6.4-6.4c0-1-0.8-1.7-1.7-1.7
			c-1,0-1.7,0.8-1.7,1.7c0,4.5-1.9,6.4-6.4,6.4c-1,0-1.7,0.8-1.7,1.7C39.1,18.1,39.9,18.8,40.9,18.8z"/>
		<path id="XMLID_35_" fill="#393939" d="M63.8,159.8c-14.2,0-25.6-10.2-26.3-23.6c-0.1-1.7-1.6-3-3.3-2.9c-1.7,0.1-3,1.6-2.9,3.3
			c1,16.8,14.9,29.5,32.5,29.5c1.7,0,3.1-1.4,3.1-3.1S65.5,159.8,63.8,159.8z"/>
		<path id="XMLID_34_" fill="#393939" d="M92.5,95c-4.1,0.1-3.9,6.3,0.1,6.2c10.4-0.2,12.3,6.6,12.5,7.4c0.9,4,6.9,2.7,6-1.3
			C110.3,102.9,105.2,94.7,92.5,95z"/>
		<path id="XMLID_33_" fill="#393939" d="M50,109c0.1-0.3,2.2-8,12.6-7.8c4,0.1,4.3-6.1,0.2-6.2c-12.4-0.3-17.7,8-18.8,12.5
			C43,111.5,49,112.9,50,109z"/>
		<path id="XMLID_32_" fill="#393939" d="M61.3,116.6c0.7,0.1,1.2-0.6,0.9-1.2c-1-2.2-2.5-3.6-4.5-3.6c-8.2,0-8.5,25.3,0,25.3
			c4.5,0,6.5-7.1,6.2-13.7c0-0.7-0.8-1-1.4-0.6c-1.7,1.3-4.5,0.1-4.5-2.8C58,117.8,59.7,116.4,61.3,116.6z"/>
		<path id="XMLID_31_" fill="#393939" d="M101.4,123c-1.8,0.9-4.1-0.5-4.1-3.1c0-1.9,1.3-3.3,2.8-3.3c0.7,0,1.1-0.7,0.8-1.3
			c-1-2.1-2.5-3.4-4.4-3.4c-8.2,0-8.5,25.3,0,25.3c4.4,0,6.4-6.8,6.2-13.3C102.8,123.1,102.1,122.7,101.4,123z"/>
		<path id="XMLID_30_" fill="#393939" d="M102.3,45.2c-21.7-5.5-17.5-4.4-28.2-7.1c-0.6-0.2-0.9-0.9-0.6-1.5
			c4.8-7.1,0.5-0.8,16.6-24.5c1.1-1.7,0.9-4-0.7-5.2c-1.7-1.3-4.1-0.9-5.3,0.9c-15,22-17.6,25.9-17.6,25.9c0.6-3.5,1-4.8,0.6-6
			c-0.4-1.2-0.5-1.6-0.9-2.8c-0.6-1.7-2.2-2.9-4-2.6c-2.4,0.3-3.8,2.7-3.1,4.8c0.7,2,1.3,4.1,1.9,6.2c0.2,0.7-0.4,1.3-1.1,1.2
			l-39-9.8c-2-0.5-4,0.7-4.5,2.7c-0.5,2,0.7,4,2.7,4.5L47.6,39c1,0.2,0.9,1.6,0,1.8l-24.5,6c-2,0.5-3.3,2.4-3,4.4
			c0.4,2.1,2.5,3.4,4.5,2.9l31.2-7.7c0.8-0.2,1.5,0.7,1,1.4L46.1,63.7c-1,1.5-0.9,3.5,0.3,4.8c1.7,1.7,4.4,1.4,5.7-0.5
			c12.5-18.5,8.5-12.5,15.7-23.2c0.2-0.3,0.6-0.5,1-0.4c11,2.8,20.5,5.2,31.5,7.9c2,0.5,4-0.7,4.5-2.7
			C105.5,47.7,104.3,45.7,102.3,45.2z"/>
	</g>
	<g id="XMLID_3_">
		<path id="XMLID_26_" fill="#393939" d="M158.5,93.5c-0.4-1.4,0.4-2.4,1.8-2.4H172c0.8,0,1.6,0.7,1.8,1.4l8.6,34.1h0.4l15.6-35.4
			c0.3-0.6,0.9-1.1,1.7-1.1h1.8c0.9,0,1.5,0.5,1.7,1.1l15.6,35.4h0.4l8.6-34.1c0.2-0.7,1-1.4,1.8-1.4h11.8c1.4,0,2.2,1,1.8,2.4
			l-19,67.5c-0.2,0.8-1,1.4-1.8,1.4h-1.6c-0.7,0-1.4-0.5-1.7-1.1l-18.4-41.1h-0.3l-18.3,41.1c-0.3,0.6-1,1.1-1.7,1.1h-1.6
			c-0.8,0-1.6-0.6-1.8-1.4L158.5,93.5z"/>
		<path id="XMLID_23_" fill="#393939" d="M255.8,131.8c5.2,0,9.1,2,9.1,2c0-4.5-1-7.1-6.4-7.1c-3.2,0-8.6,0.7-11.7,1.6
			c-1.8,0.6-2.6-0.7-2.8-2.4l-1.1-7.1c-0.3-2,0.8-2.9,1.8-3.2c1.1-0.4,9.2-1.5,15.5-1.5c14.4,0,19.4,5.8,19.4,19.6v25.6
			c0,1.2-1.1,2.2-2.2,2.2h-4.9c-0.7,0-1.5-0.2-2.1-1.5l-0.4-0.7c-0.6-1.2-2.1-1.5-3.1-0.7c-2.7,2-6.3,4.1-12.1,4.1
			c-9.1,0-16.1-6-16.1-15.3C238.8,138.3,245.3,131.8,255.8,131.8z M256.7,150.9c3.6,1.6,7.4-1.2,7.4-4.7c0-2.7-2.4-5.1-5.2-5.1
			c-4.1,0-7.2,5.2-3.4,8.9C255.8,150.3,256.2,150.6,256.7,150.9z"/>
		<path id="XMLID_20_" fill="#393939" d="M333.7,160c0,16.8-10.9,24.7-24.8,24.7c-6.9,0-15-3.1-17.3-5c-0.7-0.6-0.9-1.6-0.5-2.6
			l3.5-8.4c0.4-0.9,1.7-1.5,2.7-0.9c2.2,1.3,6,3.7,11.3,3.7c5.7,0,9.8-2.2,9.8-9.2c0-1-1-1.8-2-1.4c-2.2,0.9-5.7,1.7-8.8,1.7
			c-12.4,0-23-8-23-24.4c0-13.3,9.8-24.1,22.9-24.1c7.9,0,13,4.3,14.8,6.2c0.4,0.4,1.1,0.2,1.3-0.3l0.9-2.6c0.4-1.2,1.3-2.3,2.4-2.3
			h4.5c1.2,0,2.2,1.1,2.2,2.2V160z M309.9,148.2c5.7,0,9.8-4.3,9.8-9.9c0-5.5-4.1-9.9-9.8-9.9c-5.5,0-9.8,4.4-9.8,9.9
			C300.1,143.9,304.4,148.2,309.9,148.2z"/>
		<path id="XMLID_17_" fill="#393939" d="M362,114c11.8,0,22,8.9,22,21.7c0,0.7-0.1,2.3-0.2,3c-0.1,1.2-1.2,2-2.2,2h-27.1
			c-0.9,0-1.6,0.8-1.3,1.7c0.9,3.2,4.1,6.3,9.4,6.3c3,0,6.8-1.5,8.8-2.9c1-0.9,2.2-0.9,2.9,0l5.1,6.7c0.7,0.9,0.9,2.3-0.1,3.3
			c-4,4.1-9.8,6.6-17.2,6.6c-13.9,0-24.3-9.9-24.3-24.3C337.9,125.2,348.2,114,362,114z M368.3,131.9c-0.2-3.1-2.8-5.7-6.7-5.7
			c-3.8,0-6.3,2.6-6.9,5.7H368.3z"/>
		<path id="XMLID_14_" fill="#393939" d="M403.9,183.2c0,1.2-1,2.2-2.2,2.2h-10.9c-1.2,0-2.2-1-2.2-2.2v-65.9c0-1.1,1-2.2,2.2-2.2
			h4.5c1.1,0,2,1.1,2.4,2.3l0.8,2.2c0.2,0.7,1.1,0.9,1.6,0.4c2.1-2,7-5.9,14.6-5.9c13.1,0,22.8,10.9,22.8,24.1
			c0,16.4-10.6,24.4-22.9,24.4c-3.5,0-7-0.9-9.2-1.9c-0.7-0.3-1.6,0.2-1.6,1V183.2z M412.5,148.2c5.5,0,9.8-4.3,9.8-9.9
			c0-5.5-4.3-9.9-9.8-9.9c-5.7,0-9.8,4.4-9.8,9.9C402.6,143.9,406.8,148.2,412.5,148.2z"/>
		<path id="XMLID_11_" fill="#393939" d="M465.9,114c13.3,0,24.1,11.1,24.1,24.1c0,13.3-10.9,24.4-24.1,24.4
			c-13.3,0-24.2-11.2-24.2-24.4C441.7,125.1,452.7,114,465.9,114z M465.9,148.2c5.3,0,9.6-4.6,9.6-10.1c0-5.3-4.3-9.8-9.6-9.8
			c-5.4,0-9.7,4.5-9.7,9.8C456.2,143.6,460.5,148.2,465.9,148.2z"/>
		<path id="XMLID_8_" fill="#393939" d="M494,100c0-4.8,3.8-8.8,8.6-8.8c4.8,0,8.7,4,8.7,8.8c0,4.7-3.9,8.6-8.7,8.6
			C497.8,108.6,494,104.7,494,100z M495.1,117.2c0-1.3,1-2.2,2.2-2.2h10.9c1.2,0,2.2,0.9,2.2,2.2v42c0,1.2-1,2.2-2.2,2.2h-10.9
			c-1.2,0-2.2-1-2.2-2.2V117.2z"/>
		<path id="XMLID_6_" fill="#393939" d="M516.8,117.2c0-1.3,1-2.2,2.2-2.2h4.5c0.7,0,1.6,0.5,2.1,1.4l1.2,3.2
			c0.2,0.7,1.1,0.8,1.6,0.3c2.5-2.7,6.1-5.9,13.4-5.9c14.5,0,19.4,10.3,19.4,23v22.2c0,1.2-1,2.2-2.1,2.2h-11c-1.3,0-2.2-1-2.2-2.2
			v-22.4c0-4.4-1.5-8.5-6.7-8.5c-4.6,0-7,3.2-7,7.9v23c0,1-0.5,2.2-2.1,2.2H519c-1.2,0-2.2-1-2.2-2.2V117.2z"/>
		<path id="XMLID_4_" fill="#393939" d="M571.2,130.1c0-0.7-0.6-1.3-1.3-1.3h-2.5c-1.1,0-2-1-2-2.2v-9.3c0-1.3,0.9-2.2,2-2.2h2.5
			c0.7,0,1.3-0.6,1.3-1.3v-11.5c0-1.2,1-2.2,2.2-2.2h11.1c1.1,0,2,1,2,2.2v11.5c0,0.7,0.6,1.3,1.3,1.3h8c1.2,0,2.2,0.9,2.2,2.2v9.3
			c0,1.2-1,2.2-2.2,2.2h-8c-0.7,0-1.3,0.6-1.3,1.3V145c0,2.2,1.1,3.2,3.1,3.2c1.6,0,4.6-0.7,5.7-1c1.2-0.3,2.3,0.2,2.6,1.4l2,8.7
			c0.3,1.4-0.2,2-1.5,2.6c-3.1,1.3-8.3,2.6-13.3,2.6c-8.8,0-14-5.6-14-16.2V130.1z"/>
	</g>
</g>
</svg>
