<?xml version="1.0" encoding="utf-8"?>
<!-- Generator: Adobe Illustrator 18.1.1, SVG Export Plug-In . SVG Version: 6.00 Build 0)  -->
<svg version="1.1" id="Layer_1" xmlns="http://www.w3.org/2000/svg" xmlns:xlink="http://www.w3.org/1999/xlink" x="0px" y="0px"
	 viewBox="-153 154.2 512 512" enable-background="new -153 154.2 512 512" xml:space="preserve">
<g>
	<polygon fill="#FFFFFF" points="-153,154.2 359,154.2 359,666.2 -153,666.2 	"/>
	<path fill="#CF4044" d="M-74,368.4c0.2,0.9,0,1.6,0,2.4l2.1,0.9l0,0c-0.7,0.3-1.6,0.3-2.2,0.7c0,0.9,0,1.5-0.2,2.2
		c-0.3-0.5-0.9-1.2-1.2-1.9c-0.9,0.2-1.5,0.5-2.2,0.5l1.4-1.7l-1.2-2.1c0.7,0.2,1.6,0.3,2.2,0.7C-74.9,369.6-74.6,368.9-74,368.4
		L-74,368.4z"/>
	<path fill="#3B68AF" d="M-123.7,372.1c0.9,1.6,0.7,3.6,1.2,5l0.3,1.4c1.6,2.2,3.1,4.5,4.5,6.9h-6.2c-0.9-1.4-1.4-2.9-1.9-4.5
		c-1-1.9-2.9-3.5-4.3-5c-0.2-0.3-0.2-1,0-1.4c1.4-1.6,3.3-2.4,5.2-2.8C-124.6,371.8-124,371.8-123.7,372.1L-123.7,372.1z"/>
	<path fill="#CF4044" d="M-80.9,374.9c0.7-0.2,1.6-0.2,2.1-0.2l-1.4,1.5c0.2,0.9,0.9,1.4,0.9,2.2c-0.7-0.3-1.4-0.7-1.9-1
		c-0.7,0.5-1,1-1.7,1.6c0-0.7,0.2-1.4,0.3-2.2c-0.7-0.5-1.6-0.7-2.1-1.2l2.1-0.3c0.3-0.7,0.3-1.6,0.5-2.2
		C-81.8,373.5-81.5,374.4-80.9,374.9L-80.9,374.9z"/>
	<path fill="#CF4044" d="M-74.6,377c0.7,0.2,1.5,0,2.2,0.2l-1.7,1.4c0,0.9,0.5,1.6,0.5,2.2l-1.9-1.4c-0.5,0.5-1.2,0.9-1.7,1.4
		l-0.2-0.2l0.7-2.1l-1.7-1.6h2.2c0.3-0.7,0.5-1.4,0.9-2.1L-74.6,377L-74.6,377z"/>
	<path fill="#CF4044" d="M-79.7,381.8c0.7,0,1.6-0.2,2.2-0.2l-1.6,1.7l1,2.1c-0.7-0.3-1.4-0.7-2.1-1c-0.7,0.5-1.2,1-1.9,1.6l0.5-2.2
		c-0.7-0.5-1.4-0.9-2.1-1.2l2.1-0.3c0.5-0.7,0.3-1.6,0.7-2.2C-80.2,380.4-80.2,381.3-79.7,381.8L-79.7,381.8z"/>
	<path fill="#CF4044" d="M-86.1,380.6c0,0.9-0.2,1.6-0.2,2.2l2.1,0.9v0.2c-0.7,0.2-1.6,0.2-2.2,0.7c0,0.9,0,1.4-0.2,2.2l0,0
		c-0.5-0.7-0.7-1.4-1.4-1.9l-2.1,0.5v-0.2l1.4-1.7c-0.3-0.7-0.9-1.6-1-2.1l2.1,0.9l0.2-0.2C-87,381.6-86.6,381.1-86.1,380.6
		L-86.1,380.6z"/>
	<path fill="#3B68AF" d="M-121.3,436.6v-0.2c0.7-1.7,1-3.6,2.8-4.7c0.9-0.2,1.5-0.5,2.2-0.7c-1.4-0.5-2.9-1.4-4.1-2.6
		c-3.6-4.8-3.8-11-4.1-16.9c0-4.8,0.2-10.2,0.2-15.2c-0.3-3.8-2.1-7.9-6-9.3h61.7v0.2l-0.2,0.2c-3.8,1.7-5.7,5.9-5.9,9.8
		c-0.2,7.8,0.5,16.2-0.9,23.6c0.2,0-0.2,0.2-0.2,0.2c-0.9,4.3-2.8,8.8-7.4,10.2l0,0c2.1,0.3,4,1.7,4.3,4l0.5,1.4H-121.3
		L-121.3,436.6z"/>
	<path fill="#FFFFFF" d="M-80.9,390.4c0.7,0,1.2-0.3,1.9-0.2l-1.4,1.4c0.3,0.7,0.7,1.2,1,1.9c-0.7-0.2-1.2-0.7-1.9-0.9l-1.4,1.4
		l0.2-2.1c-0.7-0.2-1.2-0.5-1.7-0.9l0,0c0.7-0.3,2.1,0.2,2.1-1l0.2-1.4L-80.9,390.4L-80.9,390.4z"/>
	<path fill="#FFFFFF" d="M-87.3,395.6l-1.9,0.3c-0.3,0.5-0.3,1.2-0.5,1.9h-0.2c-0.2-0.5-0.3-1.4-0.9-1.7c-0.3,0.2-0.7,0-1,0.2
		c-0.3-0.2-0.7,0.2-0.9,0c0.5-0.7,1-0.9,1.5-1.4c-0.2-0.7-0.5-1.2-0.7-1.9l0,0l1.6,0.9l1.6-1.2l-0.2,1.9L-87.3,395.6L-87.3,395.6z"
		/>
	<path fill="#FFFFFF" d="M-83.7,401.3c0.5,0.3,1.4,0.3,1.9,0.9c-0.5,0.3-1.2,0.2-1.9,0.5c0,0.7-0.2,1.4-0.2,2.1
		c-0.3-0.5-0.7-1-1-1.6c-0.7-0.2-1.4,0.2-2.1,0.3c0.3-0.7,0.9-1,1.2-1.6l-1-1.7c0.7,0,1.4,0.3,2.1,0.5l1.2-1.4
		C-83.5,399.9-83.5,400.6-83.7,401.3L-83.7,401.3z"/>
	<path fill="#FFFFFF" d="M-90.6,402.8l1.6,0.2v0.2l-1.6,1c0,0.7,0.3,1.2,0.3,1.9l-1.6-1.2c-0.7,0.2-1,0.7-1.7,0.9
		c0.2-0.5,0.3-1.2,0.7-1.7c-0.3-0.5-1-1-1.4-1.4c0.5-0.2,1.2,0,1.9,0l0.9-1.7C-91.1,401.5-91.5,402.7-90.6,402.8L-90.6,402.8z"/>
	<path fill="#FFFFFF" d="M-95.1,407c0.7,0.2,1.4-0.2,2.1,0l-1.4,1.4l0.9,1.9c-0.7-0.2-1.2-0.7-1.7-0.9c-0.7,0.2-1,0.9-1.6,1.2l0,0
		l0.2-1.9c-0.3-0.5-1.2-0.7-1.7-1c0.7-0.2,1.4-0.2,1.9-0.3c0.3-0.7,0.3-1.4,0.5-1.9C-95.4,405.8-95.4,406.6-95.1,407L-95.1,407z"/>
	<path fill="#FFFFFF" d="M-87.1,409.9c0.7,0.4,1.4,0.2,2.1,0.5c-0.7,0.2-1.2,0.5-1.9,0.9c0,0.7,0.3,1.4,0.2,2.1l-1.4-1.4
		c-0.7,0.2-1.2,0.7-1.7,0.9l0.9-1.9c-0.5-0.3-0.9-1-1.4-1.4c0.5-0.2,1.6,0.3,2.1,0l0.9-1.5l0,0L-87.1,409.9L-87.1,409.9z"/>
	<path fill="#FFFFFF" d="M-97.3,412l1.9-0.7c-0.2,0.5-0.7,1-0.9,1.7l1.4,1.6l0,0c-0.9,0-1.9-0.9-2.2,0.3c-0.3,0.3-0.5,0.9-0.7,1
		c-0.2-0.5-0.2-1.2-0.3-1.7c-0.7-0.3-1.4-0.5-1.9-0.5v-0.2l1.6-0.9l-0.2-1.9C-98.2,411.1-97.7,411.6-97.3,412L-97.3,412z"/>
	<path fill="#FFFFFF" d="M-91.3,413.2c0.2,0.7,0.3,1.4,0.7,1.9h1.9c-0.3,0.5-1.2,0.9-1.6,1.4l0.5,1.9c-0.5-0.2-1-1-1.6-1.2
		c-0.7,0.3-1.2,0.7-1.7,1.2c0.2-0.7,0.3-1.4,0.5-2.1l-1.6-1.2c0.7-0.2,1.6,0.2,2.1-0.3l0.5-1.6L-91.3,413.2L-91.3,413.2z"/>
	<path fill="#FFFFFF" d="M-100.8,416.8c0.5,0.3,1.2,0.5,1.7,0.9v0.2l-1.7,0.3c-0.3,0.7-0.2,1.6-0.3,2.1c-0.5-0.5-0.7-1.2-1.2-1.7
		c-0.5,0.2-1.2,0.3-1.9,0.5l1.2-1.6c-0.2-0.7-0.5-1.2-0.9-1.7c0.7,0.2,1.2,0.3,1.9,0.5c0.5-0.3,0.7-0.9,1.4-1.4L-100.8,416.8
		L-100.8,416.8z"/>
	<path fill="#FFFFFF" d="M-106.4,418.9c0.9,0,1.4-0.5,2.1-0.3l-1.2,1.6l1,1.7h-0.2l-1.7-0.7c-0.5,0.3-0.9,1-1.4,1.4
		c0-0.5,0-1.4,0.2-1.9c-0.5-0.5-1.4-0.5-1.9-0.9c0.7-0.2,1.2-0.5,1.9-0.5c0.2-0.7,0.2-1.4,0.2-2.1L-106.4,418.9L-106.4,418.9z"/>
	<path fill="#FFFFFF" d="M-97.1,419.2c0.5,0.2,1.4,0.2,1.9,0.2c-0.3,0.3-0.9,0.7-1.4,1.2l0.5,1.9l-1.7-1c-0.5,0.2-1,0.9-1.6,1
		l0.2-0.7l0,0l0.3-1.2l-1.6-1.2c0.3-0.3,1,0,1.6-0.2h0.3c0.3-0.5,0.5-1.2,0.7-1.9L-97.1,419.2L-97.1,419.2z"/>
	<path fill="#FFFFFF" d="M-90.1,419.9l1.2-0.5l0,0l-0.9,1.7c0.7,0.5,0.9,1,1.4,1.6c-0.7,0-1.2-0.3-2.1-0.2l-0.9,1.5l0,0
		c-0.2-0.5,0-1.4-0.5-1.9c-0.7-0.2-1.2,0-1.9-0.3c0.7-0.3,1.4-0.5,1.9-1l-0.3-1.9C-91.3,419.2-90.9,420.6-90.1,419.9L-90.1,419.9z"
		/>
	<path fill="#FFFFFF" d="M-100.4,421.5c-0.2,0.7-0.9,1-1,1.7c0.3,0.5,0.9,1,1,1.5l-1.9-0.5c-0.3,0.5-0.9,1-1.2,1.6v-2.1l-1.9-0.5
		c0.5-0.3,1.2-0.5,1.9-0.7v-2.1l1.2,1.6L-100.4,421.5L-100.4,421.5z"/>
	<path fill="#FFFFFF" d="M-94.2,423.5l1.9,0.3v0.2c-0.5,0.3-1.2,0.5-1.7,1c0.2,0.5,0.2,1.4,0.3,1.9c-0.5-0.3-1-1-1.6-1.4
		c-0.5,0.2-1.2,0.5-1.7,0.9c0.2-0.7,0.5-1.2,0.7-1.9c-0.3-0.5-0.7-1-1.2-1.4c0.7-0.2,1.7,0.5,2.2-0.2l0.7-1.4
		C-94.4,422.3-94.4,423-94.2,423.5L-94.2,423.5z"/>
	<path fill="#FFFFFF" d="M-108,423.5c0.7,0.2,1.2,0,2.1,0c-0.5,0.5-1.2,0.9-1.7,1.4c0.3,0.5,0.5,1.2,0.5,1.9l-1.5-1.2
		c-0.5,0.3-1,0.9-1.6,1c0-0.5,0.3-1.2,0.5-1.7c-0.3-0.5-1.2-0.9-1.5-1.4c0.9-0.2,2.1,0.5,2.2-0.7l0.3-1.2
		C-108.3,422.1-108.2,422.8-108,423.5L-108,423.5z"/>
	<path fill="#CF4044" d="M100.7,386.4c-1.6,13.7-14.8,24.2-25.3,31.8c-0.7,1.7,1,2.9,2.2,3.6c14.8,1.2,18.1-15.2,30.2-20.4
		c8.1-3.2,18.5-4.8,26.1,0.5c-0.7,2.6-5.1,2.6-4,5.6v1.2c-9.3,17.4-21.1,43-44.9,43.4c-2-0.4-2.3-2.5-2.2-4.4
		c0.6-4.9,4.8-8.5,9.1-10.7c1-0.4,2.2-0.6,3.3-0.6c0.6,2.8-2.9,5.2-0.2,7.2c6.7-2.6,9.4-10.1,11.5-15.9c-4.9,1.5-11.9,6.7-17,1.5
		c-0.5-1.2-0.6-3.7-2.3-3.4c-4.9,3.9-10.5,7.7-17.3,6.1c-2.6-1-4.5-3.6-6.5-5.3c-6.4,4.1-15.1,8-22.7,4.1c-2.2-1.6-1.7-4.9-2.1-7.4
		h-0.6c-5.8,5-12.7,9.8-20.7,6.9c-3.7-4.7-0.1-10.7,1.6-15.2c10.4-12.4,27.6-20,42.7-14.1c-0.1,4.8-5.4,7.6-9.1,8.8
		c-2.1,2.8-4.3,6.3-3.1,10.1c3.6,4,9.1,1,12.9-0.6c0.9-1.8,1.3-4,2-6c5.2-12.4,16.2-26.4,30-29.2C96.7,383.9,99.3,384.2,100.7,386.4
		L100.7,386.4z M117.1,408.8c-0.4,1.8-2.2,3-3.1,4.5c-3.6,3.9-8.1,6.5-13.4,6.5c-1.2-1.2-1.2-3.1-0.9-4.4c1.8-4.5,7.1-7.1,11.7-8
		C113.3,407.4,115.5,407.5,117.1,408.8L117.1,408.8z M75.4,410.9c0.6-6.4,5.5-12.9,11.5-16.3C85.6,400.7,81.2,406.8,75.4,410.9
		L75.4,410.9z M-64.3,396.3c0,0.1,0,0.5-0.2,0.5h-0.2v-0.5H-64.3L-64.3,396.3z M230.9,406.5c-1,2.2-2.9,3.7-4.8,5.3
		c-2,1.6-4.4,2.4-6.7,3.2c0.1-4.4,5.8-7.5,9.4-9.3C229.6,405.7,230.2,406,230.9,406.5L230.9,406.5z M44.9,409.3
		c-3.8,4.7-9.1,7.9-14.4,9.6c-1.5,0.2-3.3,0.2-4.2-0.9c0-1.6-0.4-3.9,1-5.3C32,408.3,39.1,406.3,44.9,409.3L44.9,409.3z M25.4,383.9
		c6.3,14.1-5.6,26.7-15.2,36.8c-9.3,8.5-20.6,13.7-33.5,11.4c-2.6-0.7-4.4-2.8-6.6-4.3c-6.6,3.6-15.3,7.1-22.8,2.8
		c-3.1-2.3-4.2-5.9-4.7-9.6c-0.2-9.1,6-15.8,11-22.9c-8.2,0.5-17.1-3.1-24.3,1.5c0.1-4.4,0.6-9.4,5-12c11.4-6.4,23.8,2.5,35.7-2v0.6
		c-8,9.8-16.8,20.2-14,33.5c0.9,1.6,2.2,3.3,4.3,4c3.4,0.1,6.4-0.7,8.6-3.3c0-13.9,7.9-26.4,20.1-33.9c3.3-1.6,7.2-3.1,11.3-1.7
		c1.8,1.7,2.4,3.9,2.1,6.5C-1,401.8-8,410.9-16.7,419c0.7,2.2,2.8,4.4,5,4.9c13.1,1.6,20.7-12.5,25.3-22.3
		c2.1-4.4,0.4-10.1-3.2-13.5C13.8,384.1,20.3,378.7,25.4,383.9L25.4,383.9z M154.6,395.5c0.1,1.8-0.4,3.6-1.5,4.9
		c5.3,0.6,10.5-4.5,15.2-0.7l-0.4,2.2c-4.9,6.6-13.2,10.5-12.8,19c2.9,3.9,8,1.3,11.5,0.7c3.1-11.4,14.7-20.2,25.8-22.2
		c4.2-0.4,9.7-0.9,11.9,3.3c0.7,4.3-2,8.3-5.4,11.3c-4.9,3.8-10.7,5.9-15.9,9.1c2.8,2.6,7,1.4,10.5,1.1l9.9-3.1
		c6-13,19-22.3,33.1-22.8c1.8,0.4,3.7,1.3,4.8,3.3c0.6,6-3.4,10.8-8.2,13.9c-4.7,3.1-9.9,4.4-14.6,7.6c2.6,2.1,6.5-0.1,9.3-1
		c13.2-4.9,23.9-15,35.8-23.3c1.6,0.6,3.4,0.9,4.3,2.5c-0.5,4.4-5.3,7.5-6.1,11.5c7.5-4.4,13.6-10.7,21.3-14.1
		c1.7-0.5,3.4,0.9,4.7,1.8c0.9,2.9-2.9,4.3-4.2,6c-3.6,3.6-7.6,7.6-8,12.6c1.1,2.6,4.3,1.6,6.4,1.6c11.7-5.8,21.2-15.8,31.2-25.3
		c1.3-0.7,3.2-1.1,5.1-0.7c3.2,1.6-0.4,4-0.4,6.1c-1.2,6.1-0.2,13.1-1.6,19c5.6,3.6,14.3,2.8,19.9-0.1c-0.5,5-4.4,10.8-9.7,12.5
		c-10.7,1.3-21.8-2.7-32,0.5c-1.5,0-3.2,0-4-1.7c-0.2-1.4,0.1-3.1,1.3-4.1c2.7-3.7,7.6-3.4,11.4-5.4c0.2-3.1,2-6.1,0.1-8.8
		c-11,7.7-21.1,19.1-34.8,20.5c-2.7-0.4-5.4-1.3-6.6-4c-0.1-2.9,0.6-5.9,1.6-8.5c-0.5-1-1.2,0-1.7,0.1c-7,5.4-13.9,12.4-23.2,11.9
		c-1.2-0.9-0.2-2.3,0-3.4c1.6-2.8,4-5.8,5-8.6c-10.8,6.6-22.4,15.1-35.9,11.5L203,428c-10.1,3.6-21.5,8-32.4,3.9
		c-0.4-1.3-1.5-2.6-2.6-3.2c-3.8-0.5-6.6,2.2-10.1,3.2c-4.5,0.2-10.2,2.6-14.1-0.9c-2-2.3-2.2-6.1-1.4-9.1c1.6-3.8,4.3-6.6,7-10.1
		c-6.7-1-8.8,6.6-13.2,10.1c-3.9,2.2-7.1,5.8-11.5,6.3c4.4-9.3,17.2-14.8,18-25.6c2.7-3.8,6.4-7.6,11.2-8L154.6,395.5L154.6,395.5z
		 M-9.1,396.5c-1,5.6-4.3,10.7-9,14.5c0-5.8,2.3-11.8,7.7-15.5C-9.5,395.1-9.3,396-9.1,396.5L-9.1,396.5z M192.5,406.8
		c-1.5,5.1-6.9,6.9-11,8.8c0.4-4.5,5.3-7.6,9.2-9.1L192.5,406.8L192.5,406.8z"/>
</g>
</svg>
