<?xml version="1.0" encoding="iso-8859-1"?><!-- Generator: Adobe Illustrator 16.0.0, SVG Export Plug-In . SVG Version: 6.00 Build 0) --><!DOCTYPE svg PUBLIC "-//W3C//DTD SVG 1.1//EN" "http://www.w3.org/Graphics/SVG/1.1/DTD/svg11.dtd"><svg version="1.1" id="Layer_1" xmlns="http://www.w3.org/2000/svg" xmlns:xlink="http://www.w3.org/1999/xlink" x="0px" y="0px" width="192.756px" height="192.756px" viewBox="0 0 192.756 192.756" style="enable-background:new 0 0 192.756 192.756;" xml:space="preserve"><g><polygon style="fill-rule:evenodd;clip-rule:evenodd;fill:#FFFFFF;" points="0,0 192.756,0 192.756,192.756 0,192.756 0,0	"/><path style="fill-rule:evenodd;clip-rule:evenodd;fill:#CF4044;" d="M29.727,80.608c0.064,0.326,0,0.585,0,0.909l0.778,0.325l0,0	c-0.26,0.13-0.584,0.13-0.843,0.261c0,0.323,0,0.583-0.065,0.843c-0.131-0.195-0.325-0.455-0.455-0.714	c-0.324,0.065-0.583,0.194-0.843,0.194l0.519-0.648l-0.455-0.778c0.26,0.064,0.584,0.128,0.844,0.259	C29.403,81.063,29.533,80.803,29.727,80.608L29.727,80.608z"/><path style="fill-rule:evenodd;clip-rule:evenodd;fill:#3B68AF;" d="M11.035,82.035c0.325,0.585,0.259,1.365,0.455,1.883	l0.129,0.52c0.584,0.843,1.167,1.687,1.688,2.596H10.97c-0.325-0.519-0.519-1.104-0.714-1.687c-0.39-0.715-1.103-1.3-1.623-1.883	c-0.064-0.13-0.064-0.39,0-0.519c0.52-0.584,1.233-0.91,1.946-1.039C10.71,81.907,10.905,81.907,11.035,82.035L11.035,82.035z"/><path style="fill-rule:evenodd;clip-rule:evenodd;fill:#CF4044;" d="M27.13,83.075c0.26-0.064,0.585-0.064,0.778-0.064	l-0.519,0.583c0.065,0.325,0.325,0.52,0.325,0.845c-0.26-0.129-0.52-0.26-0.714-0.391c-0.26,0.195-0.39,0.391-0.649,0.585	c0-0.26,0.065-0.52,0.13-0.844c-0.26-0.195-0.585-0.259-0.779-0.454l0.779-0.13c0.129-0.259,0.129-0.584,0.194-0.844	C26.805,82.556,26.936,82.88,27.13,83.075L27.13,83.075z"/><path style="fill-rule:evenodd;clip-rule:evenodd;fill:#CF4044;" d="M29.533,83.854c0.259,0.065,0.583,0,0.843,0.065l-0.648,0.52	c0,0.325,0.194,0.584,0.194,0.843l-0.714-0.518c-0.194,0.194-0.454,0.324-0.649,0.518l-0.065-0.064l0.26-0.778l-0.649-0.584h0.844	c0.13-0.26,0.194-0.519,0.324-0.779L29.533,83.854L29.533,83.854z"/><path style="fill-rule:evenodd;clip-rule:evenodd;fill:#CF4044;" d="M27.585,85.671c0.259,0,0.585-0.065,0.844-0.065l-0.585,0.649	l0.39,0.779c-0.26-0.129-0.519-0.259-0.779-0.391c-0.26,0.196-0.454,0.391-0.714,0.584l0.195-0.843	c-0.259-0.194-0.519-0.324-0.779-0.455l0.779-0.129c0.194-0.26,0.129-0.584,0.259-0.844C27.39,85.151,27.39,85.476,27.585,85.671	L27.585,85.671z"/><path style="fill-rule:evenodd;clip-rule:evenodd;fill:#CF4044;" d="M25.183,85.216c0,0.325-0.064,0.584-0.064,0.844l0.779,0.324	v0.065c-0.26,0.065-0.584,0.065-0.844,0.259c0,0.325,0,0.519-0.064,0.845l0,0c-0.195-0.26-0.26-0.52-0.52-0.714l-0.779,0.194	v-0.065l0.52-0.648c-0.13-0.26-0.325-0.585-0.39-0.779l0.778,0.325l0.065-0.065C24.859,85.606,24.989,85.411,25.183,85.216	L25.183,85.216z"/><path style="fill-rule:evenodd;clip-rule:evenodd;fill:#3B68AF;" d="M11.944,106.311v-0.066c0.26-0.648,0.39-1.361,1.039-1.752	c0.324-0.064,0.583-0.193,0.842-0.258c-0.519-0.197-1.102-0.521-1.557-0.975c-1.363-1.818-1.429-4.154-1.559-6.361	c0-1.816,0.066-3.829,0.066-5.711c-0.131-1.428-0.778-2.986-2.272-3.504h23.235v0.064l-0.065,0.065	c-1.428,0.65-2.141,2.208-2.208,3.7c-0.063,2.921,0.196,6.101-0.324,8.892c0.065,0-0.064,0.064-0.064,0.064	c-0.325,1.621-1.04,3.311-2.791,3.83l0,0c0.778,0.129,1.493,0.648,1.622,1.492l0.195,0.52H11.944L11.944,106.311z"/><path style="fill-rule:evenodd;clip-rule:evenodd;fill:#FFFFFF;" d="M27.13,88.916c0.26,0,0.455-0.13,0.714-0.065l-0.519,0.52	c0.13,0.26,0.26,0.453,0.39,0.713c-0.26-0.064-0.456-0.26-0.714-0.324l-0.519,0.519l0.064-0.778	c-0.259-0.064-0.454-0.195-0.649-0.324l0,0c0.259-0.131,0.779,0.064,0.779-0.39l0.064-0.519L27.13,88.916L27.13,88.916z"/><path style="fill-rule:evenodd;clip-rule:evenodd;fill:#FFFFFF;" d="M24.729,90.862l-0.713,0.13	c-0.13,0.195-0.13,0.455-0.195,0.714h-0.064c-0.065-0.194-0.13-0.519-0.326-0.649c-0.129,0.064-0.259,0-0.389,0.064	c-0.129-0.064-0.259,0.066-0.324,0c0.194-0.259,0.389-0.324,0.583-0.519c-0.064-0.26-0.194-0.453-0.26-0.714l0,0l0.584,0.325	l0.584-0.455l-0.065,0.714L24.729,90.862L24.729,90.862z"/><path style="fill-rule:evenodd;clip-rule:evenodd;fill:#FFFFFF;" d="M26.092,93.004c0.195,0.13,0.52,0.13,0.713,0.325	c-0.193,0.131-0.453,0.065-0.713,0.195c0,0.26-0.065,0.519-0.065,0.779c-0.13-0.195-0.259-0.389-0.39-0.584	c-0.26-0.064-0.519,0.066-0.778,0.13c0.13-0.259,0.324-0.389,0.454-0.584l-0.389-0.649c0.259,0,0.519,0.129,0.779,0.196	l0.454-0.521C26.157,92.486,26.157,92.745,26.092,93.004L26.092,93.004z"/><path style="fill-rule:evenodd;clip-rule:evenodd;fill:#FFFFFF;" d="M23.496,93.589l0.585,0.065v0.064l-0.585,0.39	c0,0.26,0.13,0.455,0.13,0.714l-0.584-0.455c-0.259,0.065-0.389,0.259-0.649,0.324c0.064-0.194,0.131-0.455,0.261-0.649	c-0.13-0.194-0.39-0.388-0.52-0.519c0.195-0.064,0.455,0,0.715,0l0.324-0.649C23.301,93.069,23.171,93.524,23.496,93.589	L23.496,93.589z"/><path style="fill-rule:evenodd;clip-rule:evenodd;fill:#FFFFFF;" d="M21.809,95.146c0.26,0.065,0.519-0.064,0.778,0l-0.519,0.52	l0.323,0.715c-0.259-0.066-0.454-0.262-0.648-0.326c-0.259,0.064-0.39,0.326-0.584,0.455l0,0l0.065-0.714	c-0.13-0.195-0.454-0.26-0.649-0.39c0.259-0.063,0.52-0.063,0.714-0.129c0.13-0.26,0.13-0.52,0.195-0.714	C21.679,94.692,21.679,95.017,21.809,95.146L21.809,95.146z"/><path style="fill-rule:evenodd;clip-rule:evenodd;fill:#FFFFFF;" d="M24.794,96.249c0.26,0.132,0.519,0.065,0.779,0.196	c-0.26,0.064-0.455,0.193-0.714,0.322c0,0.26,0.13,0.521,0.065,0.781l-0.519-0.521c-0.26,0.066-0.454,0.262-0.648,0.326	l0.324-0.715c-0.195-0.129-0.324-0.39-0.52-0.52c0.195-0.064,0.584,0.13,0.778,0l0.325-0.583l0,0L24.794,96.249L24.794,96.249z"/><path style="fill-rule:evenodd;clip-rule:evenodd;fill:#FFFFFF;" d="M20.965,97.027l0.714-0.26c-0.065,0.195-0.26,0.391-0.325,0.65	l0.52,0.584l0,0c-0.325,0-0.714-0.324-0.845,0.131c-0.129,0.131-0.195,0.324-0.258,0.389c-0.065-0.193-0.065-0.455-0.131-0.648	c-0.26-0.131-0.519-0.195-0.714-0.195v-0.064l0.585-0.324l-0.065-0.715C20.64,96.705,20.834,96.898,20.965,97.027L20.965,97.027z"	/><path style="fill-rule:evenodd;clip-rule:evenodd;fill:#FFFFFF;" d="M23.237,97.482c0.064,0.26,0.129,0.52,0.259,0.715h0.715	c-0.13,0.195-0.454,0.324-0.584,0.52l0.195,0.713c-0.195-0.064-0.391-0.389-0.584-0.453c-0.259,0.129-0.454,0.258-0.649,0.453	c0.065-0.26,0.13-0.52,0.195-0.779l-0.584-0.453c0.258-0.064,0.584,0.066,0.779-0.131l0.194-0.584H23.237L23.237,97.482z"/><path style="fill-rule:evenodd;clip-rule:evenodd;fill:#FFFFFF;" d="M19.667,98.846c0.195,0.131,0.454,0.195,0.649,0.324v0.064	l-0.649,0.131c-0.131,0.26-0.065,0.584-0.131,0.779c-0.193-0.195-0.259-0.455-0.453-0.65c-0.195,0.066-0.455,0.131-0.715,0.195	l0.455-0.584c-0.065-0.26-0.194-0.455-0.324-0.648c0.259,0.064,0.455,0.129,0.713,0.193c0.196-0.129,0.259-0.322,0.52-0.518	L19.667,98.846L19.667,98.846z"/><path style="fill-rule:evenodd;clip-rule:evenodd;fill:#FFFFFF;" d="M17.525,99.625c0.326,0,0.521-0.195,0.779-0.131l-0.454,0.584	l0.389,0.65h-0.065l-0.649-0.26c-0.194,0.129-0.323,0.389-0.519,0.52c0-0.195,0-0.52,0.065-0.715	c-0.195-0.195-0.521-0.195-0.714-0.324c0.26-0.064,0.455-0.195,0.714-0.195c0.064-0.26,0.064-0.52,0.064-0.777L17.525,99.625	L17.525,99.625z"/><path style="fill-rule:evenodd;clip-rule:evenodd;fill:#FFFFFF;" d="M21.029,99.754c0.195,0.066,0.52,0.066,0.715,0.066	c-0.13,0.129-0.325,0.258-0.52,0.453l0.195,0.715l-0.648-0.391c-0.196,0.066-0.391,0.324-0.584,0.391l0.064-0.26l0,0l0.129-0.455	l-0.584-0.453c0.13-0.131,0.391,0,0.584-0.066h0.131c0.129-0.193,0.194-0.453,0.26-0.713L21.029,99.754L21.029,99.754z"/><path style="fill-rule:evenodd;clip-rule:evenodd;fill:#FFFFFF;" d="M23.691,100.014l0.454-0.193l0,0l-0.324,0.648	c0.26,0.195,0.324,0.389,0.519,0.584c-0.259,0-0.454-0.131-0.778-0.064l-0.324,0.582l0,0c-0.065-0.193,0-0.518-0.195-0.713	c-0.259-0.064-0.454,0-0.713-0.129c0.259-0.131,0.52-0.195,0.713-0.389l-0.129-0.715C23.237,99.754,23.366,100.273,23.691,100.014	L23.691,100.014z"/><path style="fill-rule:evenodd;clip-rule:evenodd;fill:#FFFFFF;" d="M19.796,100.598c-0.064,0.26-0.325,0.391-0.388,0.65	c0.128,0.193,0.324,0.389,0.388,0.582l-0.713-0.193c-0.13,0.193-0.325,0.391-0.455,0.584v-0.779l-0.714-0.193	c0.195-0.131,0.454-0.195,0.714-0.26v-0.779l0.455,0.584L19.796,100.598L19.796,100.598z"/><path style="fill-rule:evenodd;clip-rule:evenodd;fill:#FFFFFF;" d="M22.133,101.377l0.715,0.131v0.062	c-0.195,0.131-0.456,0.195-0.649,0.393c0.064,0.193,0.064,0.518,0.13,0.713c-0.195-0.131-0.39-0.389-0.584-0.52	c-0.195,0.064-0.455,0.195-0.649,0.324c0.065-0.26,0.195-0.453,0.259-0.715c-0.129-0.195-0.259-0.389-0.454-0.518	c0.26-0.066,0.649,0.193,0.844-0.066l0.259-0.518C22.069,100.922,22.069,101.182,22.133,101.377L22.133,101.377z"/><path style="fill-rule:evenodd;clip-rule:evenodd;fill:#FFFFFF;" d="M16.941,101.377c0.261,0.064,0.455,0,0.779,0	c-0.195,0.193-0.455,0.324-0.648,0.52c0.13,0.193,0.194,0.455,0.194,0.713l-0.583-0.453c-0.196,0.131-0.391,0.324-0.585,0.389	c0-0.193,0.129-0.455,0.194-0.648c-0.129-0.195-0.453-0.326-0.583-0.52c0.325-0.064,0.778,0.193,0.843-0.26l0.131-0.453	C16.812,100.857,16.876,101.117,16.941,101.377L16.941,101.377z"/><path style="fill-rule:evenodd;clip-rule:evenodd;fill:#CF4044;" d="M95.503,87.4c-0.602,5.17-5.587,9.096-9.513,11.958	c-0.278,0.646,0.37,1.109,0.832,1.338c5.586,0.463,6.833-5.725,11.359-7.664c3.049-1.2,6.973-1.801,9.834,0.186	c-0.277,0.968-1.938,0.968-1.523,2.122v0.464c-3.51,6.556-7.943,16.207-16.901,16.345c-0.737-0.139-0.876-0.924-0.831-1.664	c0.232-1.846,1.801-3.186,3.418-4.016c0.369-0.141,0.832-0.232,1.246-0.232c0.231,1.062-1.107,1.939-0.092,2.727	c2.54-0.971,3.557-3.787,4.339-6.004c-1.845,0.555-4.477,2.539-6.417,0.555c-0.184-0.461-0.231-1.385-0.877-1.293	c-1.848,1.477-3.97,2.91-6.512,2.309c-0.97-0.369-1.708-1.34-2.446-1.986c-2.402,1.525-5.679,3.004-8.542,1.525	c-0.831-0.602-0.646-1.848-0.784-2.77H71.86c-2.169,1.891-4.8,3.691-7.802,2.584c-1.386-1.754-0.047-4.018,0.6-5.727	c3.924-4.663,10.389-7.527,16.067-5.309c-0.045,1.802-2.03,2.861-3.416,3.325c-0.784,1.064-1.616,2.355-1.155,3.787	c1.34,1.521,3.418,0.367,4.85-0.232c0.322-0.691,0.507-1.523,0.738-2.262c1.941-4.663,6.095-9.929,11.313-10.991	C94.024,86.474,94.994,86.566,95.503,87.4L95.503,87.4z M101.689,95.848c-0.139,0.693-0.83,1.111-1.154,1.708	c-1.338,1.479-3.047,2.447-5.032,2.447c-0.462-0.463-0.462-1.156-0.325-1.662c0.693-1.709,2.679-2.68,4.388-3.003	C100.258,95.294,101.088,95.339,101.689,95.848L101.689,95.848z M85.991,96.633c0.23-2.402,2.078-4.849,4.34-6.142	C89.822,92.802,88.161,95.064,85.991,96.633L85.991,96.633z M33.396,91.139c0,0.046,0,0.184-0.093,0.184h-0.091v-0.184H33.396	L33.396,91.139z M144.541,94.971c-0.369,0.833-1.109,1.385-1.801,1.988c-0.738,0.598-1.662,0.92-2.539,1.197	c0.045-1.66,2.168-2.817,3.557-3.507C144.031,94.649,144.262,94.787,144.541,94.971L144.541,94.971z M74.494,96.033	c-1.432,1.756-3.418,2.957-5.404,3.602c-0.553,0.092-1.248,0.092-1.57-0.324c0-0.602-0.138-1.477,0.37-1.984	C69.645,95.662,72.321,94.879,74.494,96.033L74.494,96.033z M67.15,86.474c2.357,5.31-2.123,10.067-5.725,13.852	c-3.51,3.188-7.757,5.172-12.606,4.295c-0.97-0.275-1.663-1.062-2.495-1.615c-2.492,1.34-5.771,2.68-8.588,1.062	c-1.154-0.879-1.568-2.217-1.753-3.602c-0.093-3.418,2.261-5.958,4.155-8.635c-3.095,0.184-6.42-1.154-9.143,0.553	c0.046-1.662,0.232-3.555,1.893-4.525c4.294-2.401,8.957,0.924,13.437-0.739v0.229c-3,3.696-6.325,7.62-5.264,12.608	c0.324,0.6,0.832,1.244,1.616,1.521c1.293,0.047,2.401-0.277,3.232-1.244c0-5.219,2.956-9.929,7.572-12.746	c1.249-0.6,2.726-1.155,4.249-0.647c0.692,0.647,0.922,1.478,0.785,2.448c-1.292,3.925-3.924,7.341-7.203,10.39	c0.277,0.83,1.062,1.662,1.894,1.846c4.941,0.602,7.804-4.709,9.512-8.405c0.786-1.661,0.139-3.785-1.2-5.078	C62.811,86.52,65.257,84.491,67.15,86.474L67.15,86.474z M115.818,90.814c0.049,0.693-0.137,1.34-0.551,1.847	c1.982,0.233,3.971-1.708,5.725-0.276l-0.141,0.832c-1.846,2.492-4.984,3.971-4.801,7.156c1.109,1.479,3,0.508,4.34,0.277	c1.156-4.295,5.543-7.619,9.697-8.357c1.57-0.139,3.648-0.324,4.479,1.246c0.277,1.617-0.738,3.143-2.031,4.25	c-1.848,1.43-4.018,2.215-6.002,3.414c1.059,0.971,2.631,0.51,3.971,0.416l3.74-1.152c2.262-4.896,7.156-8.406,12.467-8.589	c0.693,0.138,1.385,0.507,1.803,1.245c0.229,2.264-1.295,4.065-3.096,5.219c-1.754,1.154-3.74,1.662-5.494,2.861	c0.969,0.787,2.445-0.045,3.508-0.367c4.988-1.846,9.004-5.633,13.484-8.775c0.6,0.232,1.293,0.324,1.615,0.925	c-0.184,1.663-1.984,2.817-2.307,4.34c2.816-1.665,5.123-4.017,8.033-5.311c0.646-0.184,1.295,0.323,1.754,0.693	c0.324,1.107-1.107,1.615-1.57,2.262c-1.338,1.34-2.861,2.863-3,4.756c0.416,0.969,1.615,0.6,2.4,0.6	c4.387-2.17,7.99-5.955,11.73-9.512c0.506-0.277,1.199-0.416,1.938-0.277c1.201,0.601-0.137,1.523-0.137,2.31	c-0.461,2.309-0.094,4.942-0.602,7.157c2.123,1.34,5.402,1.062,7.48-0.045c-0.186,1.893-1.662,4.062-3.648,4.709	c-4.018,0.508-8.219-1.016-12.051,0.184c-0.555,0-1.199,0-1.523-0.645c-0.094-0.51,0.045-1.154,0.506-1.525	c1.018-1.383,2.865-1.293,4.297-2.031c0.09-1.154,0.738-2.309,0.045-3.324c-4.156,2.91-7.941,7.203-13.113,7.711	c-1.018-0.139-2.033-0.508-2.494-1.523c-0.045-1.109,0.23-2.215,0.6-3.188c-0.184-0.367-0.461,0-0.645,0.047	c-2.633,2.031-5.219,4.664-8.729,4.479c-0.461-0.322-0.092-0.877,0-1.293c0.6-1.061,1.523-2.17,1.893-3.232	c-4.064,2.494-8.449,5.682-13.527,4.342l-1.848-1.615c-3.787,1.338-8.08,3-12.191,1.477c-0.137-0.508-0.555-0.971-0.971-1.201	c-1.43-0.184-2.492,0.832-3.785,1.201c-1.707,0.092-3.832,0.969-5.309-0.322c-0.74-0.879-0.834-2.311-0.51-3.418	c0.602-1.432,1.617-2.494,2.631-3.787c-2.537-0.369-3.322,2.494-4.984,3.787c-1.479,0.83-2.68,2.17-4.342,2.355	c1.662-3.51,6.465-5.588,6.789-9.651c1.014-1.433,2.398-2.864,4.201-3.002L115.818,90.814L115.818,90.814z M54.175,91.185	c-0.369,2.124-1.616,4.018-3.371,5.448c0-2.171,0.878-4.432,2.91-5.818C54.036,90.678,54.083,91,54.175,91.185L54.175,91.185z M130.088,95.064c-0.553,1.938-2.586,2.584-4.154,3.323c0.137-1.705,1.984-2.861,3.461-3.416L130.088,95.064L130.088,95.064z"/></g></svg>