<?xml version="1.0" encoding="iso-8859-1"?><!-- Generator: Adobe Illustrator 16.0.0, SVG Export Plug-In . SVG Version: 6.00 Build 0) --><!DOCTYPE svg PUBLIC "-//W3C//DTD SVG 1.1//EN" "http://www.w3.org/Graphics/SVG/1.1/DTD/svg11.dtd"><svg version="1.1" id="Layer_1" xmlns="http://www.w3.org/2000/svg" xmlns:xlink="http://www.w3.org/1999/xlink" x="0px" y="0px" width="192.756px" height="192.756px" viewBox="0 0 192.756 192.756" style="enable-background:new 0 0 192.756 192.756;" xml:space="preserve"><g><polygon style="fill-rule:evenodd;clip-rule:evenodd;fill:#FFFFFF;" points="0,0 192.756,0 192.756,192.756 0,192.756 0,0	"/><path style="fill-rule:evenodd;clip-rule:evenodd;" d="M188.588,86.636c-0.799-0.8-1.92-1.6-3.039-0.96	c-3.201,1.76-5.92,4.8-8.32,7.68l-0.961,0.8l-0.16-0.16c0.32-2.561,1.602-4.641,2.881-6.88c0.32-0.96,1.279-2.08,0.48-3.201	c-0.801-0.16-1.121,0.641-1.76,0.96c-3.201,4.16-6.4,8.48-3.682,13.761c-1.279,3.039-2.24,6.24-2.879,9.76	c-0.32,1.92-1.121,4.16,0.16,5.92c0.799,0.961,1.76,1.76,2.879,1.441c0.961-4.48,2.08-8.801,3.361-12.961l0.639-0.801	c1.441,0,2.881-0.16,4.16-0.799c2.24-0.961,4.48-2.4,5.92-4.48c0.16-0.48,0.641-1.28,0.801-1.76	C190.348,92.556,190.188,88.876,188.588,86.636L188.588,86.636z M186.348,93.997c-0.639,0.96-1.439,1.6-2.398,2.24	c-1.121,0.48-2.08,1.119-3.201,0.961c0-1.121,0.961-1.761,1.279-2.561c1.441-1.92,2.561-4,4.48-5.6c0.48-0.16,0.641,0.48,0.801,0.8	C187.469,91.276,186.988,92.876,186.348,93.997L186.348,93.997z M170.027,96.396c-2.4-0.48-4.32,0.48-6.561,0.641l-0.318-0.16	c0-1.121,0.318-2.081,0.959-2.88c1.92-0.32,4.16,0.319,5.92-0.64c0.32-0.64,0.32-1.44,0-2.08c-1.119-0.8-2.879-0.32-4.32-0.48	l-0.479-0.48c0-0.64,0.16-1.439,0.799-1.76c2.08-0.16,4.32,0,6.4-0.48c0.32-0.16,0.961-0.64,0.801-1.279	c-0.32-0.96-1.281-1.92-2.24-2.4c-4.16-0.64-7.68,0.48-10.721,0.96l-0.801,0.32c-0.318,0.319,0,0.64,0,0.96	c0.48,1.28,2.08,0.8,2.561,1.92c-0.32,0.96-0.48,2.4-1.76,2.72c-0.641,0.16-0.961,0.8-0.641,1.28c0.801,2.08-1.119,3.36-0.959,5.28	c0,1.441,0.799,2.881,1.92,3.84c2.08,1.441,4.641,0.16,6.561-0.639c1.279-0.961,3.68-1.441,3.84-3.361	C170.668,97.197,170.508,96.557,170.027,96.396L170.027,96.396z M163.787,113.996c-2.08-1.6-4.959-2.08-7.68-1.6	c-0.801,0.16-1.76,0.32-2.4,0.641c-2.879,0.959-4.801,3.84-4.959,6.721c-0.32,3.039,0.959,6.24,3.68,7.84	c2.879,1.6,6.879,1.76,9.76,0.32c2.24-0.961,3.84-3.201,4.32-5.441C167.148,119.277,166.348,116.076,163.787,113.996	L163.787,113.996z M162.188,122.477c-0.48,1.121-1.279,2.4-2.561,2.881c-1.92,0.961-4.16,0.32-5.6-1.279	c-1.119-1.762-1.439-4.32-0.48-6.24c0.641-1.281,1.92-2.08,3.201-2.4c0.16,0,0.32,0,0.479-0.16c1.602-0.16,2.721,0.32,3.842,1.279	C162.508,118.156,162.668,120.396,162.188,122.477L162.188,122.477z M153.547,100.076c0.961,0.48,1.76-0.16,2.561-0.641	c3.359-3.199,1.92-9.12,0.641-12.799c-0.961-1.76-1.92-4.16-4.16-4.96c-0.48,0.16-0.641,0.64-0.641,1.28	c0.801,3.68,2.4,7.2,2.24,11.36c0,0.16,0,0.32-0.32,0.32c-2.4-2.88-3.68-6.561-6.881-8.96c-0.799-0.32-1.6,0.64-1.6,0.64	c-1.6,3.36-2.08,7.36-2.4,11.04c0.32,1.281,0.32,3.201,1.762,3.842c0.639,0.16,1.279,0,1.6-0.48	c1.119-2.561,0.479-5.44,0.799-8.161c0.16-0.32,0.16-0.96,0.641-0.8C149.547,94.636,150.828,97.996,153.547,100.076	L153.547,100.076z M146.826,125.838l-8.799-0.16l-0.48-0.48c0-1.119-0.32-2.4,0.48-3.199c2.561-0.16,4.959-0.16,7.52-0.32	c0.641-0.32,0.801-0.961,0.961-1.6c-0.16-0.48-0.641-0.801-1.121-1.121l-7.199-0.16l-0.48-0.32c0-1.119-0.641-2.4,0.641-2.719	l8-0.32c0.479,0,1.119-0.48,1.279-0.961c0.32-0.48,0-1.119-0.48-1.439c-2.398-0.801-4.959-0.32-7.52-0.48	c-2.08,0.48-5.119-0.799-6.24,1.6c0.16,4.641-0.32,8.641,0.16,13.281c0.32,0.801,1.119,1.119,1.92,1.279	c3.84,0,7.52,0.16,11.201-0.318c0.639-0.16,1.279-0.801,0.959-1.602C147.627,126.477,147.307,125.998,146.826,125.838	L146.826,125.838z M122.666,112.557c-0.16,0-0.32,0-0.639,0c-2.08,0-5.121-0.641-6.24,1.439v7.041	c0.639,2.561-1.441,6.881,2.08,7.68c3.84-0.16,7.84,0.641,10.879-1.6c3.041-2.561,3.361-7.199,1.92-10.561	C129.227,113.518,126.027,112.236,122.666,112.557L122.666,112.557z M126.346,123.758c-0.318,0.959-1.279,1.439-2.08,1.76	c-1.119,0.32-2.719,0.16-4,0l-0.16-0.32c0-3.199-0.318-6.4,0-9.439c0.641-0.16,1.441-0.16,2.08-0.16c1.762,0,3.201,0.479,4.16,1.76	C127.307,119.277,127.467,121.998,126.346,123.758L126.346,123.758z M118.186,89.356c-2.08-8.16-10.24-15.2-17.6-18.561	c-7.36-3.2-15.521-5.92-24.161-4.96c-2.4,0.32-5.12,0.48-6.88,2.24c-0.479,0.8-1.279,1.92-0.8,2.88c1.12,0.48,2.88,0.8,3.84,0	c0.16-0.8-0.96-0.8-1.28-1.28c0.16-0.16,0.32-0.16,0.48-0.32c5.76-0.96,12.32-0.32,17.761,1.28c8.64,2.88,17.601,6.88,22.56,15.521	c1.602,2.721,1.76,6.881-0.32,9.44c-4.799,4.96-12.16,5.121-18.72,4.32c-0.32,0-0.8-0.32-0.96-0.799	c-0.16-3.201-0.32-6.561-0.16-9.921l0.16-0.32c2.24-0.48,4.48,0.16,6.561,0.479c1.439,0.64,3.199,0.48,4.48,1.601	c0,1.12-1.6,1.6-1.76,2.56c0.479,0.32,1.279,0.48,1.92,0.48c0.959,0.16,1.6-0.48,2.398-1.12c0.801-0.641,1.121-1.6,1.121-2.561	c-0.961-4.16-5.76-4.96-9.439-5.6c-1.761-0.32-3.841,0.16-5.281-0.64c-0.8-2.56,0.16-5.6-2.24-7.68c-0.16-0.16-0.641-0.16-0.96,0	c-1.28,2.56-0.8,5.92-1.6,8.48l-5.12,1.28c-2.24,0.96-4.96,1.76-6.24,4.16c-0.32,1.28,0.32,2.4,0.96,3.2	c0.64,0.96,1.44,1.76,2.24,2.4c2.08,2.08,4.64,3.679,7.04,4.96c1.92,0.639,0.8,3.039,2.08,4.32c0.8,0.799,1.76,0.32,2.561,0.32	c0.96-0.32,0.96-1.281,1.44-2.08c6.881,1.279,14.561,0.959,20.32-2.721C116.426,97.996,118.506,93.997,118.186,89.356	L118.186,89.356z M86.985,97.996c-1.6,0-2.88-0.959-4.32-1.6c-0.8-0.48-1.6-1.12-2.4-1.76c-1.12-0.8-2.08-1.6-2.88-2.72	c-0.32-0.64,0.32-1.28,0.8-1.44c2.88-0.8,5.92-1.6,8.96-1.44l0.32,0.32C86.985,92.076,87.625,95.276,86.985,97.996L86.985,97.996z M112.746,114.637c0.16-0.641-0.16-1.279-0.641-1.76c-0.639-0.48-2.08-0.32-2.24-0.32c-0.639,0.32-0.959,0.961-1.119,1.439v13.441	l0.48,0.801c0.639,0.479,1.439,0.639,2.24,0.479c0.639-0.16,1.119-0.639,1.279-1.279	C113.066,123.277,112.746,118.797,112.746,114.637L112.746,114.637z M105.227,112.717c-0.801-0.16-1.441,0.16-1.92,0.801	c-1.441,3.199-2.4,6.561-4.16,9.76c-0.16,0.16-0.32-0.16-0.48-0.32l-3.36-9.119l-0.96-0.961c-1.44-0.32-2.88,0.48-2.88,0.48	c-0.16,0.48-0.16,1.279,0,1.76l4.32,10.561c0.48,1.119,0.8,2.4,1.919,2.879c1.121,0.48,2.721,0.32,3.521-0.639l5.279-12.32	c0.16-0.641,0.641-1.121,0.32-1.76C106.506,113.037,105.865,112.717,105.227,112.717L105.227,112.717z M84.905,125.998	c-2.72-0.48-5.92,0-8.48-0.32c-1.12-0.641-0.64-2.24-0.64-3.201c0.16-0.16,0.32-0.479,0.48-0.479l7.2-0.32l0.96-0.641	c0.16-0.641,0.32-1.279-0.32-1.6c-2.4-0.801-5.28-0.32-7.84-0.48l-0.48-0.48c0-0.959-0.32-2.24,0.48-2.879	c2.88-0.16,5.92,0.16,8.64-0.16c0.64-0.32,0.96-0.961,0.8-1.6c0-0.32-0.32-0.801-0.8-0.961c-3.68-0.32-8.16-0.32-12,0	c-1.12,0.32-1.12,0.801-1.12,1.6c-0.16,4.48-0.32,8.961,0.16,13.121c0.32,0.641,0.96,0.959,1.6,0.959c3.68,0.16,7.68,0.32,11.36,0	c0.64-0.158,0.96-0.799,0.96-1.6C85.706,126.637,85.385,126.158,84.905,125.998L84.905,125.998z M73.545,88.076	c0.48-1.6-0.16-3.04-1.12-4.32c-0.801-0.64-2.24-0.8-3.36-0.48c-0.16,0.16-0.32,0.16-0.48,0.16c-1.12,0.64-2.24,1.92-3.36,2.72	c-1.76-0.479-3.52-0.96-4.8-2.24c-0.32-0.319-0.16-1.279-0.8-1.279c-0.8,0.8-1.28,1.92-1.12,3.04c0.96,2.08,3.36,2.88,4.96,4	l-1.28,5.6c-0.16,3.04-0.64,6.56,0.8,9.12c0.64,0.961,1.6,1.6,2.72,1.76c0.64,0,1.12-0.32,1.28-0.959	c-0.32-4.48-0.32-9.601,0.64-13.921l0.48-0.64c1.12-0.16,2.4-0.16,3.36-0.64C72.265,89.676,73.065,88.876,73.545,88.076	L73.545,88.076z M70.665,86.156c-0.479,0-0.8,0.32-1.28,0c0-0.32,0.32-0.8,0.64-0.96c0.16-0.16,0.16-0.16,0.32-0.16	c0.319-0.16,0.8-0.16,0.959,0.16C71.625,85.676,70.985,85.836,70.665,86.156L70.665,86.156z M68.105,113.357	c-0.48-0.48-1.12-0.801-1.92-0.801c-1.601,0.16-3.36-0.16-4.16,1.281l-2.08,7.039c-0.32,0.48-0.16,1.76-0.8,1.439	c-1.44-2.719-1.92-5.92-3.2-8.639c-1.28-1.281-3.84-1.121-5.12-0.801c-0.64,0.16-1.12,0.801-1.12,1.6	c-0.16,4.32-0.32,8.961,0.16,13.441c0.32,0.799,1.121,0.959,2.08,0.799c0.48,0,0.96-0.318,1.28-0.959l0.16-9.121l0.32-0.48	c1.12,2.881,2.08,5.922,2.88,8.961c0.32,0.801,0.8,1.281,1.6,1.6c0.8,0.16,1.761,0.16,2.561-0.318c1.6-2.721,2.08-5.762,3.04-8.801	c0.32-0.48,0.32-1.281,0.96-1.6c0.32,3.039,0,6.398,0.32,9.439l0.32,0.801c0.48,0.639,1.28,0.318,1.92,0.479	c1.6-0.318,1.44-1.92,1.44-3.359l-0.16-11.041L68.105,113.357L68.105,113.357z M50.665,101.037c0.8-3.84-0.32-7.841-0.801-11.361	c-0.479-2.72-1.12-5.28-2.24-7.68c-0.48-0.32-0.96-0.48-1.6-0.32c0,0-3.52,3.36-6.08,9.601c-0.32,0.48-0.48,1.28-1.28,1.28	c-0.32-0.16-0.8-0.16-0.96-0.64c1.76-5.12,2.08-11.521,0.32-16.801c-1.6-4.48-4.96-9.76-9.92-11.36c-0.32-0.16-0.32,0.16-0.48,0.32	c1.92,1.76,3.52,4,4.64,6.24c3.68,7.36,2.56,17.121-1.28,24c-2.08,3.2-5.44,6.081-9.281,5.44c-1.28-0.16-2.4-1.279-2.72-2.559	c0.64-0.641,1.44-1.281,2.24-2.081c0.64-0.801,1.28-1.44,1.76-2.24c2.56-3.04,3.84-7.36,2.88-11.201c-0.16-0.8-0.32-1.76-0.8-2.24	c-0.48-1.12-1.6-1.6-2.56-1.76c-2.88-0.16-5.12,1.28-7.041,3.68c-3.68,4-2.4,10.88-1.6,15.841c-1.121,0.959-2.72,1.119-4.16,0.479	c-2.24-1.439-2.24-4.16-2.4-6.56c0.32-8.64,3.359-16.321,9.92-22.401v-0.64c-0.16-0.64-0.8-0.32-1.12-0.32	c-2.56,0.96-5.28,3.36-6.72,5.44c-1.76,1.76-2.881,4-4,6.08c-2.24,5.44-4.32,13.44-0.16,18.72c1.76,1.92,4.32,2.881,7.04,2.4	c0.96,0,1.76-0.961,2.72-0.641c1.44,2.721,4.16,4.32,7.041,4.48c6.56,0.48,12.32-5.279,15.2-10.56c2.56,1.44-0.48,3.521-0.16,5.601	c0.16,1.119,0.32,2.398,1.44,2.879c0.64,0.16,1.44,0.32,1.92-0.32c0.96-0.799,2.24-5.279,2.24-5.279l2.24-0.16h1.601	c1.12,0.32,0.64,1.76,0.96,2.721c0.319,1.119,1.28,2.398,2.56,2.559L50.665,101.037L50.665,101.037z M18.023,92.716	c-0.32-3.68,0.32-7.36,1.28-10.72c0.32-0.8,0.64-1.6,1.28-2.08c0.8,0,0.96,0.64,1.12,1.28c0.16,0.32,0.16,0.96,0.16,1.44	c0.32,4-0.96,7.52-3.52,10.4C18.183,93.037,18.023,92.876,18.023,92.716L18.023,92.716z M46.184,92.236c-0.32,0-0.64,0-0.8,0	c-0.48,0-0.64,0-0.96-0.319c0.32-1.12,0.64-2.24,1.439-3.2c0.641,0.32,0.48,1.28,0.8,1.76	C46.504,90.957,47.144,92.236,46.184,92.236L46.184,92.236z M39.464,112.396c-1.44,0-2.88,0.16-4.16,0.48	c-2.88,0.641-4.96,2.4-5.6,4.961c-1.12,3.039-0.48,6.559,1.76,8.799c2.88,2.721,7.84,3.041,11.201,1.441	c2.4-0.801,4-3.361,4.64-5.602c0.32-2.559,0-5.279-1.76-7.359C43.944,113.357,41.704,112.557,39.464,112.396L39.464,112.396z M41.384,124.877c-0.96,0.961-2.24,1.121-3.68,1.121c-1.12-0.16-2.4-0.48-3.2-1.602c-1.12-1.76-1.28-4.479-0.479-6.398	c0.8-1.922,2.72-2.561,4.64-2.561c0.16,0,0.32,0,0.48,0c1.6,0.32,3.04,1.119,3.52,2.561	C43.464,120.236,43.144,123.277,41.384,124.877L41.384,124.877z M26.503,112.877c-0.48-0.48-1.44-0.32-2.08-0.16	c-2.08,0.961-0.8,3.52-1.28,5.439l-0.32,0.48c-2.08,0.16-4.48,0.32-6.88,0l-0.32-0.32c-0.32-1.6,0.16-3.52-0.48-4.959	c-0.48-0.641-1.28-0.801-2.08-0.641c-0.48,0.16-1.12,0.48-1.44,0.961c-0.16,4.959-0.16,9.279,0,14.08l0.48,0.641	c0.48,0.479,1.28,0.639,1.92,0.479c2.72-1.119,0.8-4.799,1.76-7.039c2.08-0.48,4.64,0,6.56-0.16c0.48,0.16,0.64,0.799,0.8,1.279	c0.32,1.92-0.64,4.32,0.96,5.76c0.8,0.48,1.92,0.16,2.561-0.318l0.48-0.641c0.32-4.48,0-9.441,0-14.08L26.503,112.877	L26.503,112.877z M55.304,101.037c1.76-0.32,3.36-0.961,4.641-2.24c0.959-1.121,2.24-2.4,1.6-3.84c-0.16-0.641-0.64-0.8-1.28-0.641	c-1.6,0.48-3.04,1.44-4.96,1.601c-0.64-0.64-0.16-1.601-0.16-2.4c0.32-3.68,2.24-6.72,1.76-10.4c-0.16-0.479-0.48-0.8-0.96-0.8	c-2.4,0.16-3.52,6.24-4.16,9.12c-0.64,2.72-1.44,5.919,0.48,8.16C53.064,100.557,54.184,101.037,55.304,101.037L55.304,101.037z M122.186,84.716c-0.318-0.32-1.119-0.16-1.279,0.32c-1.119,4-1.119,8.48-0.959,12.479c0.158,1.281-0.16,2.881,0.959,3.682	c0.801,0.318,1.92,0.639,2.561,0l0.48-0.641c0.318-4.64-0.16-9.28-0.48-13.76C123.307,85.996,122.986,85.196,122.186,84.716	L122.186,84.716z M117.066,81.676c0.32,0.64,0.641,1.28,1.439,1.12c0.48-0.32,0.801-0.8,1.121-1.12c1.76,0,3.68,0.48,5.439-0.16	c1.439-0.64,3.201-1.76,4.641-2.88c1.76-1.44,2.879-3.2,2.879-5.44c-0.158-0.8-0.799-1.76-1.6-2.08c-1.439,0-2.24-1.6-3.68-1.92	c-3.68-0.641-6.721,0.479-9.281,3.2c-0.479,0.32-0.959,0.8-1.279,1.28c-1.279,1.44-1.439,3.36-0.641,4.8	C116.906,79.436,116.586,80.556,117.066,81.676L117.066,81.676z M122.986,76.556c1.92-1.76,3.84-3.84,6.561-3.36	c0.32,0.16,0.48,0.48,0.48,0.8c0,1.28-0.961,2.4-1.92,3.04c-0.32,0.32-0.48,0.32-0.801,0.48c-1.6,0.64-3.52,1.44-5.439,0.96	C121.707,77.836,122.666,77.196,122.986,76.556L122.986,76.556z M119.146,74.476c0.48-0.48,0.959-0.8,1.439-1.12l0.961-0.32	c-0.641,1.28-1.92,2.24-2.881,3.36h-0.16C118.346,75.756,118.826,74.956,119.146,74.476L119.146,74.476z M125.227,89.516	c0,0.96,0.48,1.6,1.119,2.24c2.561,0.96,5.762,0.64,8.641,1.12c1.602,0.32,3.201,0.32,4.32,1.6c0.32,0.32,0,0.96-0.32,1.28	c-2.398,0.96-4.959,1.599-7.68,1.759c-1.119-0.16-2.4,0-3.199-0.959c-0.16-0.32-0.16-0.8,0.318-1.12c2.4-0.96,4.16,1.44,6.4,1.12	c1.121-0.16,2.561-0.32,3.041-1.6c-0.48-0.96-1.6-0.8-2.4-1.28c-2.561-0.64-6.08-1.28-8.32,0.48c-0.641,0.64-0.801,1.6-0.959,2.561	c0.799,2.24,3.039,3.359,5.119,4.16c3.359,0.959,7.201,0.32,9.76-1.76c1.602-1.121,1.602-3.201,1.441-4.961	c-1.92-5.12-8.48-3.2-12.801-4.48c-0.16-0.16-0.641-0.32-0.48-0.64c3.041-1.12,6.721-1.12,10.08-1.44c1.121,0,2.24-0.16,3.201-0.96	c0.32-0.48,0.479-1.12,0-1.44c-4.16-1.76-9.762-1.12-13.762,0.32C126.506,86.316,125.227,87.916,125.227,89.516L125.227,89.516z"/></g></svg>