<?xml version="1.0" encoding="iso-8859-1"?><!-- Generator: Adobe Illustrator 16.0.0, SVG Export Plug-In . SVG Version: 6.00 Build 0) --><!DOCTYPE svg PUBLIC "-//W3C//DTD SVG 1.1//EN" "http://www.w3.org/Graphics/SVG/1.1/DTD/svg11.dtd"><svg version="1.1" id="Layer_1" xmlns="http://www.w3.org/2000/svg" xmlns:xlink="http://www.w3.org/1999/xlink" x="0px" y="0px" width="192.756px" height="192.756px" viewBox="0 0 192.756 192.756" style="enable-background:new 0 0 192.756 192.756;" xml:space="preserve"><g><polygon style="fill-rule:evenodd;clip-rule:evenodd;fill:#FFFFFF;" points="0,0 192.756,0 192.756,192.756 0,192.756 0,0	"/><path style="fill-rule:evenodd;clip-rule:evenodd;fill:#0D6FAB;" d="M63.921,109.404c-3.827,4.27-7.949,7.654-13.101,7.654	c-5.299,0-7.065-3.973-7.065-7.947c0-9.127,8.243-19.431,16.633-19.431c2.649,0,5.593,0.884,5.593,4.122	c0,7.801-11.04,10.598-17.222,11.186c-0.294,1.473-0.441,2.945-0.441,4.416c0,2.945,2.061,4.416,4.71,4.416	c3.386,0,6.771-2.207,10.156-5.299l4.122-3.975L72.9,82.026l-0.147,0.294c0.589-2.65-0.294-5.152-3.091-5.152h-1.766v-1.472	l11.628,0.147l-6.477,22.08v0.146c3.238-3.68,7.949-8.39,13.101-8.39c4.71,0,6.624,2.944,6.624,7.361	c0,4.268-2.208,8.684-5.446,12.363c-1.767,1.914-3.68,3.682-5.888,5.006c-2.797,1.619-5.593,2.648-8.39,2.648	c-3.827,0-6.918-2.061-6.918-6.328c0-1.326,0.294-2.797,0.736-4.27v-0.146L63.921,109.404L63.921,109.404z M80.554,112.201	c1.767-1.914,3.533-4.416,4.857-6.918c1.619-3.238,2.65-6.623,2.65-9.126c0-2.208-0.736-4.122-3.385-4.122	c-7.213,0-14.278,12.07-14.278,18.546c0,2.355,0.883,4.857,3.532,4.857C76.139,115.439,78.494,114.115,80.554,112.201	L80.554,112.201z M49.054,103.518c1.031-3.828,5.594-11.923,10.009-11.923c1.472,0,2.355,0.883,2.355,2.355	C61.419,100.279,54.354,103.076,49.054,103.518L49.054,103.518z M16.376,75.697H2.834v1.472h0.736	c2.355,0.147,3.238,0.736,3.68,2.208l8.832,37.682h1.472L28.3,98.66l4.857,18.398h1.619l18.399-36.063	c1.178-2.208,1.914-3.68,3.974-3.827h0.442v-1.472H46.405v1.472h0.736c2.944,0.147,3.533,0.441,3.533,1.619	c0,1.177-0.441,2.208-0.883,3.238l-13.395,27.673h-0.147L31.833,92.33l6.624-11.187c1.324-2.208,2.061-3.974,4.857-3.974h0.883	v-1.472H33.452v1.472h0.589c1.913,0.147,2.649,0.294,2.649,1.472c0,0.441-0.294,1.324-0.736,2.354l-4.71,8.685h-0.147	l-2.502-10.598c-0.147-0.883,0.441-1.767,1.619-1.914h1.03v-1.472H18.732v1.472h0.736c2.208,0.147,3.238,0.736,3.68,2.208	l4.416,16.486l-7.949,13.836l-6.477-28.556c-0.294-0.736-0.294-1.472-0.441-2.208c0-1.472,1.619-1.766,3.238-1.766h0.441V75.697	L16.376,75.697z"/><path style="fill-rule:evenodd;clip-rule:evenodd;" d="M177.115,97.777c0,10.449-8.242,16.338-19.725,16.191	c-2.355,0-2.648-0.295-2.648-13.838V79.229c0-1.03,0.293-1.03,3.68-1.03C168.432,78.199,177.115,84.97,177.115,97.777	L177.115,97.777z M146.498,116.471V86.589c0-8.39-0.295-8.685-2.648-8.685h-1.914v-2.208h20.461	c15.896,0,23.551,9.421,23.551,19.43c0,8.537-5.447,21.344-24.287,21.344H146.498L146.498,116.471z M102.635,75.697l15.014,29.145	l13.689-29.145h7.801v29.881c0,8.537,0.441,8.684,2.65,8.684h1.619v2.209h-16.635v-2.209h3.092c0.883,0,1.031-0.293,1.031-1.029	V82.91h-0.148l-15.16,32.088c-0.148,0.295-0.295,1.031-0.885,1.031c-0.441,0-0.588-0.736-0.734-1.031L98.512,84.087h-0.146v16.929	c0,3.531,0,8.096,0.441,11.186c0.441,1.914,0.883,2.061,2.797,2.061h2.797v2.209H91.3v-2.209h1.914c1.767,0,2.208,0,2.208-0.736	V86.442c0-5.593-0.441-8.537-4.269-8.537h-1.914v-2.208H102.635L102.635,75.697z"/><path style="fill-rule:evenodd;clip-rule:evenodd;" d="M184.623,77.316c0-0.736-0.59-0.883-1.031-0.883	c-0.295,0-0.883,0.147-0.883,0.736c0,0.294,0.146,0.441,0.441,0.441l1.178,0.294c0.588,0.147,0.883,0.441,0.883,1.178	c0,0.883-0.883,1.178-1.619,1.178s-1.031-0.295-1.178-0.442c-0.295-0.294-0.441-0.589-0.441-1.03h0.588	c0,0.736,0.59,1.03,1.031,1.03s1.178-0.147,1.178-0.736c0-0.441-0.295-0.589-0.883-0.736l-0.883-0.147	c-0.295-0.147-0.885-0.294-0.885-1.03c0-0.589,0.441-1.178,1.473-1.178c1.324,0,1.473,0.883,1.619,1.325H184.623L184.623,77.316z"	/><path style="fill-rule:evenodd;clip-rule:evenodd;" d="M189.332,80.113v-2.355c0-0.147,0-0.736,0-1.03l0,0l-1.178,3.386h-0.588	l-1.031-3.386l0,0c0,0.294,0,0.883,0,1.03v2.355h-0.588v-4.122h0.736l1.178,3.533l0,0l1.178-3.533h0.883v4.122H189.332	L189.332,80.113z"/></g></svg>