<?xml version="1.0" encoding="utf-8"?><!-- Generator: Adobe Illustrator 16.0.0, SVG Export Plug-In . SVG Version: 6.00 Build 0) --><!DOCTYPE svg PUBLIC "-//W3C//DTD SVG 1.1//EN" "http://www.w3.org/Graphics/SVG/1.1/DTD/svg11.dtd"><svg version="1.1" id="圖層_1" xmlns="http://www.w3.org/2000/svg" xmlns:xlink="http://www.w3.org/1999/xlink" x="0px" y="0px" width="300px" height="300px" viewBox="0 0 300 300" enable-background="new 0 0 300 300" xml:space="preserve"><path fill="#2DC100" d="M300,255c0,24.854-20.147,45-45,45H45c-24.854,0-45-20.146-45-45V45C0,20.147,20.147,0,45,0h210	c24.853,0,45,20.147,45,45V255z"/><g><path fill="#FFFFFF" d="M200.803,111.88c-24.213,1.265-45.268,8.605-62.362,25.188c-17.271,16.754-25.155,37.284-23,62.734	c-9.464-1.172-18.084-2.462-26.753-3.192c-2.994-0.252-6.547,0.106-9.083,1.537c-8.418,4.75-16.488,10.113-26.053,16.092	c1.755-7.938,2.891-14.889,4.902-21.575c1.479-4.914,0.794-7.649-3.733-10.849c-29.066-20.521-41.318-51.232-32.149-82.85	c8.483-29.25,29.315-46.989,57.621-56.236c38.635-12.62,82.054,0.253,105.547,30.927C194.225,84.736,199.428,97.172,200.803,111.88	z M89.366,102.028c0.223-5.783-4.788-10.993-10.74-11.167c-6.094-0.179-11.106,4.478-11.284,10.483	c-0.18,6.086,4.475,10.963,10.613,11.119C84.04,112.617,89.141,107.954,89.366,102.028z M147.507,90.857	c-5.974,0.11-11.022,5.198-10.916,11.004c0.109,6.018,5.061,10.726,11.204,10.652c6.159-0.074,10.83-4.832,10.772-10.977	C158.516,95.504,153.586,90.746,147.507,90.857z"/><path fill="#FFFFFF" d="M255.201,262.83c-7.667-3.414-14.7-8.536-22.188-9.318c-7.459-0.779-15.3,3.524-23.104,4.322	c-23.771,2.432-45.067-4.193-62.627-20.432c-33.397-30.89-28.625-78.254,10.014-103.568	c34.341-22.498,84.704-14.998,108.916,16.219c21.129,27.24,18.646,63.4-7.148,86.284c-7.464,6.623-10.15,12.073-5.361,20.804	C254.587,258.753,254.688,260.794,255.201,262.83z M167.927,178.331c4.881,0.005,8.9-3.815,9.085-8.636	c0.195-5.104-3.91-9.385-9.021-9.406c-5.06-0.023-9.299,4.318-9.123,9.346C159.034,174.439,163.081,178.325,167.927,178.331z M224.188,160.309c-4.736-0.033-8.76,3.844-8.953,8.629c-0.205,5.117,3.772,9.319,8.836,9.332c4.898,0.016,8.768-3.688,8.946-8.562	C233.207,164.579,229.228,160.344,224.188,160.309z"/></g></svg>