<?xml version="1.0" encoding="UTF-8" standalone="no"?>
<!-- Created with Inkscape (http://www.inkscape.org/) -->
<svg
   xmlns:dc="http://purl.org/dc/elements/1.1/"
   xmlns:cc="http://creativecommons.org/ns#"
   xmlns:rdf="http://www.w3.org/1999/02/22-rdf-syntax-ns#"
   xmlns:svg="http://www.w3.org/2000/svg"
   xmlns="http://www.w3.org/2000/svg"
   xmlns:sodipodi="http://sodipodi.sourceforge.net/DTD/sodipodi-0.dtd"
   xmlns:inkscape="http://www.inkscape.org/namespaces/inkscape"
   version="1.0"
   width="831"
   height="297"
   id="svg2"
   sodipodi:version="0.32"
   inkscape:version="0.46"
   sodipodi:docname="wdclogoc.svg"
   inkscape:output_extension="org.inkscape.output.svg.inkscape">
  <metadata
     id="metadata14">
    <rdf:RDF>
      <cc:Work
         rdf:about="">
        <dc:format>image/svg+xml</dc:format>
        <dc:type
           rdf:resource="http://purl.org/dc/dcmitype/StillImage" />
      </cc:Work>
    </rdf:RDF>
  </metadata>
  <sodipodi:namedview
     inkscape:window-height="738"
     inkscape:window-width="1280"
     inkscape:pageshadow="2"
     inkscape:pageopacity="0.0"
     guidetolerance="10.0"
     gridtolerance="10.0"
     objecttolerance="10.0"
     borderopacity="1.0"
     bordercolor="#666666"
     pagecolor="#ffffff"
     id="base"
     showgrid="false"
     inkscape:zoom="1.3477738"
     inkscape:cx="714.20136"
     inkscape:cy="122.03886"
     inkscape:window-x="-8"
     inkscape:window-y="-8"
     inkscape:current-layer="svg2" />
  <defs
     id="defs4">
    <inkscape:perspective
       sodipodi:type="inkscape:persp3d"
       inkscape:vp_x="0 : 148.5 : 1"
       inkscape:vp_y="0 : 1000 : 0"
       inkscape:vp_z="831 : 148.5 : 1"
       inkscape:persp3d-origin="415.5 : 99 : 1"
       id="perspective16" />
  </defs>
  <g
     id="layer1">
    <path
       d="M 523.81819,253.77478 C 518.21688,252.32873 513.74494,248.85854 512.0609,244.62739 C 508.76372,236.3432 509.56222,237.4948 517.72287,237.66683 C 525.93545,237.83996 525.59958,237.10265 525.97287,239.9124 C 526.77897,245.97985 537.42095,245.87881 541.89972,240.5561 C 544.01903,238.03744 544.35984,236.19 544.29449,231.49385 C 544.25107,228.37355 544.25394,226.45261 543.98347,227.11928 C 542.76062,230.13345 536.12957,233.04186 530.03858,233.02748 C 520.85997,233.00581 516.09875,229.85357 511.3688,220.66683 C 509.49291,217.02339 509.04315,214.53601 509.00595,207.59918 C 508.96513,199.98878 509.29723,198.37178 511.97828,193.12669 C 513.76127,189.63853 516.38103,186.28886 518.37932,184.94222 C 526.15337,179.70329 536.53124,179.58423 541.62258,184.67556 L 544.46,187.51298 L 544.46,185.08991 C 544.28687,181.59986 544.65509,182.66683 552.56248,182.66683 L 559.8859,182.75339 L 559.97922,211.08996 C 560.12097,230.9098 560.19908,239.16503 558.31312,242.33996 C 556.22497,245.85526 552.85473,250.37689 548.96,252.41623 C 545.55703,254.19807 528.93663,255.09616 523.81819,253.77478 z M 540.21907,220.41683 C 543.23104,217.20151 544.46,213.33368 544.46,207.06961 C 544.46,201.10103 542.4305,195.12479 539.69939,193.05112 C 536.81164,190.85851 531.10611,191.35018 528.61043,194.0067 C 522.84034,200.14869 523.14774,215.91624 529.1293,220.62134 C 532.61675,223.36457 537.54286,223.27372 540.21907,220.41683 z M 602.96,234.72147 C 597.21493,232.37006 595.69953,225.59265 595.6656,204.91683 L 595.64549,192.75958 L 592.46,192.66683 C 589.52667,192.66683 589.46,193.33478 589.46,187.66683 C 589.46,181.58576 589.53712,182.66683 592.40774,182.66683 C 596.29494,182.66683 595.36566,182.49106 595.65774,177.44848 L 595.96,172.23013 L 603.46,169.4569 C 607.585,167.93162 611.0725,166.67988 611.21,166.67525 C 611.3475,166.67062 611.37344,170.26683 611.37344,174.66683 L 611.46,182.66683 L 617.46,182.66683 L 623.46,182.66683 L 623.46,187.66683 L 623.46,192.66683 L 617.46,192.66683 L 611.46,192.66683 L 611.46,207.16683 C 611.46,220.3335 611.47078,222.54324 613.28687,224.35933 C 614.52497,225.59743 616.79333,225.66683 618.96,225.66683 C 623.29331,225.66683 622.22663,225.71357 622.46,230.0502 C 622.71969,234.8759 622.45567,234.87377 620.21,235.03654 C 616.87894,235.27798 605.32159,235.68805 602.96,234.72147 z M 634.67818,234.00375 C 624.87844,229.17365 623.98421,214.68182 632.99758,206.76798 C 636.92863,203.31647 641.53522,201.28505 651.05625,201.36669 C 658.2228,201.42814 657.97938,200.8545 657.80625,197.80374 C 657.567,193.58779 655.89087,190.92037 652.52697,190.18154 C 648.68216,189.33708 644.27015,190.60007 644.6172,194.55916 C 644.96219,198.49473 644.51306,197.49371 636.38035,197.66683 L 629.19666,197.66683 L 629.74358,193.58921 C 630.8344,185.45661 637.74607,181.34049 650.48599,181.23645 C 661.61822,181.14555 667.71567,183.94126 671.13912,190.70602 C 673.21999,194.81782 673.41865,196.71216 673.67831,214.918 L 673.96,234.66917 L 667.185,234.668 C 660.42972,234.66683 659.02322,235.00418 659.53901,232.21626 L 659.1874,228.55382 L 656.5737,231.04671 C 655.13616,232.41779 652.69321,234.01822 651.1449,234.60321 C 647.00195,236.16853 638.43773,235.85675 634.67818,234.00375 z M 654.05791,223.33627 C 656.27187,221.4319 656.85568,219.94063 657.25033,215.18161 L 657.73331,209.35752 L 653.07942,209.99541 C 643.83602,211.26236 639.72766,215.56934 642.32496,221.26979 C 644.40679,225.83891 650.00262,226.82448 654.05791,223.33627 z M 416.46,197.059 L 416.46,159.45118 L 435.21,159.88133 C 451.16328,160.24732 454.73872,160.62032 459.18077,162.38198 C 467.21994,165.57021 471.95576,169.89714 475.6751,177.45219 C 478.87849,183.9592 479.93934,184.44789 479.93934,197.1458 C 479.93934,209.05871 478.74018,210.63541 476.37699,215.67292 C 471.68269,225.67955 463.31464,231.67343 451.3219,233.61942 C 447.82286,234.18718 438.5475,234.65512 430.71,234.65928 L 416.46,234.66683 L 416.46,197.059 z M 449.61154,220.64143 C 458.23267,218.24686 463.1267,207.95708 462.23714,194.09589 C 461.26212,178.90304 454.87884,172.66683 440.30272,172.66683 L 432.46,172.66683 L 432.46,197.16683 L 432.46,221.66683 L 439.21,221.66125 C 442.9225,221.65819 447.60319,221.19927 449.61154,220.64143 z M 486.46,208.66683 L 486.46,182.66683 L 494.46,182.66683 L 502.46,182.66683 L 502.46,208.66683 L 502.46,234.66683 L 494.46,234.66683 L 486.46,234.66683 L 486.46,208.66683 z M 569.46,208.66683 L 569.46,182.66683 L 576.96,182.66683 L 584.46,182.66683 L 584.46,208.66683 L 584.46,234.66683 L 576.96,234.66683 L 569.46,234.66683 L 569.46,208.66683 z M 683.46,197.16683 L 683.46,159.66683 L 690.96,159.66683 L 698.46,159.66683 L 698.46,197.16683 L 698.46,234.66683 L 690.96,234.66683 L 683.46,234.66683 L 683.46,197.16683 z M 709.53692,176.58991 C 706.94759,174.00057 706.46,172.74504 706.46,168.66683 C 706.46,164.58862 706.94759,163.33309 709.53692,160.74375 C 715.37986,154.90082 724.91305,156.72021 728.07222,164.28118 C 731.31693,172.04684 725.89888,179.66683 717.13255,179.66683 C 713.42,179.66683 712.06491,179.1179 709.53692,176.58991 z M 723.53692,174.74375 C 725.53192,172.74876 726.46,170.81933 726.46,168.66683 C 726.46,164.36492 721.76191,159.66683 717.46,159.66683 C 713.63291,159.66683 708.45281,164.37869 708.47474,167.83991 C 708.50849,173.16683 712.96,177.61834 718.28692,177.65209 C 719.56673,177.6602 721.92923,176.35145 723.53692,174.74375 z M 712.95354,175.00016 C 712.58687,174.6335 712.46,171.4835 712.46,168.00016 L 712.46,161.66683 L 718.50162,162.01308 C 720.63427,162.01308 722.63877,163.11347 722.09976,164.50587 C 720.03825,169.83129 722.68372,168.78088 721.90004,174.89664 C 721.81218,175.5823 719.75802,173.92928 719.44374,172.59794 C 719.12945,171.26661 718.10454,170.02947 717.16615,169.84876 C 715.85677,169.59659 715.28687,170.2349 715.28687,172.59351 C 715.28687,175.52532 714.39677,176.4434 712.95354,175.00016 z M 719.21047,165.41683 C 718.58044,163.52464 715.46,163.25563 715.46,165.09351 C 715.46,166.02114 716.05531,166.92652 717.28364,166.92652 C 718.50562,166.92652 719.45459,166.15001 719.21047,165.41683 z M 486.46,166.66683 L 486.46,159.66683 L 494.46,159.66683 L 502.46,159.66683 L 502.46,166.66683 L 502.46,173.66683 L 494.46,173.66683 L 486.46,173.66683 L 486.46,166.66683 z M 568.46,166.66683 L 568.46,159.66683 L 576.96,159.66683 L 585.46,159.66683 L 585.46,166.66683 L 585.46,173.66683 L 576.96,173.66683 L 568.46,173.66683 L 568.46,166.66683 z M 523.81819,145.77667 C 518.20062,144.32305 513.88992,140.87149 510.91101,135.44194 C 508.2716,130.63119 508.01433,129.28655 507.98842,120.16683 C 507.96427,111.66943 508.31129,109.4535 510.29791,105.4195 C 514.55015,96.784977 522.76933,91.666832 532.3832,91.666832 C 547.96538,91.666832 557.46,101.76902 557.46,118.34833 L 557.46,123.66683 L 540.46,123.66683 C 520.5746,122.97433 523.46,123.73581 523.46,125.69895 C 523.46,129.83171 526.17937,134.37335 529.30667,135.46353 C 533.56625,136.94843 539.55499,135.40695 540.66954,132.10629 C 541.77663,128.82772 541.39818,129.49482 548.62052,129.66683 C 556.44288,129.85092 555.37344,128.73998 555.46,132.01895 C 555.55167,135.58312 551.38528,140.88932 546.63065,143.51418 C 541.97852,146.08245 529.70431,147.29978 523.81819,145.77667 z M 541.07312,109.48245 C 539.30438,100.63872 528.29332,99.03484 524.91163,107.12835 C 524.11323,109.03918 523.20031,111.75955 523.20031,112.32721 C 523.20031,112.9613 526.97903,112.66683 532.585,112.66683 L 541.71,112.66683 L 541.07312,109.48245 z M 573.44256,145.13473 C 567.70641,143.36618 562.57829,138.1706 561.79309,133.33201 L 561.19832,129.66683 L 568.00633,129.66683 C 574.39637,129.66683 575.31949,128.64527 576.70984,132.85339 C 577.71828,135.9056 580.76462,135.86683 583.78593,135.86683 C 588.20979,135.86683 591.68572,133.23952 591.25402,130.222 C 590.89847,127.73675 586.53636,125.4748 576.6851,122.66736 C 567.98025,120.18662 563.70913,116.74963 562.46966,111.2281 C 561.21788,105.65175 562.24445,101.94905 566.11553,98.07797 C 570.54049,93.653008 578.67179,91.249471 586.96471,91.915147 C 597.24693,92.740505 602.2896,96.099086 604.42481,103.54414 L 605.32039,106.66683 L 598.13074,106.66683 C 592.18528,106.66683 590.73857,106.34253 589.77078,104.79287 C 587.08509,100.49239 578.46,101.50165 578.46,106.1164 C 578.46,108.96597 581.07313,110.59684 588.96,112.66951 C 601.31667,115.91684 607.44874,121.31978 607.45626,128.96649 C 607.46894,141.85354 589.89494,150.20725 573.44256,145.13473 z M 620.67257,145.22961 C 615.35592,142.80741 614.46,139.19772 614.46,120.19895 L 614.46,103.66683 L 611.46,103.66683 C 609.13799,103.58027 608.41645,105.62428 608.46,98.73325 C 608.50187,92.106841 608.22964,93.173777 611.21,93.483254 C 614.74135,93.849946 614.45116,94.074451 614.432,88.101141 L 614.55774,82.862325 L 621.56608,80.264578 C 625.42067,78.835818 629.36069,77.320582 629.58109,77.320582 C 629.80148,77.320582 629.42074,81.76027 629.58138,86.02277 L 629.61375,93.339957 L 635.71,93.380173 L 641.46,93.333827 L 641.46,98.71674 L 641.46,103.66683 L 635.38795,103.66683 L 629.31591,103.66683 L 629.63795,118.61965 C 629.85265,128.58792 629.93021,133.97455 630.73619,134.77865 C 631.40115,135.44205 634.42146,135.95395 636.919,135.91619 L 641.46,135.84754 L 641.46,140.19817 C 641.46,142.59101 641.81212,144.89922 641.2903,145.22172 C 640.76848,145.54423 636.05192,145.94784 631.76124,146.22443 C 626.07151,146.59121 623.07021,146.32195 620.67257,145.22961 z M 658.04542,145.4835 C 652.57824,143.95672 646.17505,137.29238 644.53001,131.41687 C 643.69942,128.45031 643.36976,123.27559 643.63094,117.30402 C 643.9952,108.97552 644.39163,107.31184 647.0281,103.04746 C 648.86328,100.07912 651.89824,97.054068 654.90802,95.193268 C 659.36082,92.440308 660.57833,92.166832 668.38158,92.166832 C 675.59061,92.166832 677.62426,92.547431 681.12117,94.551049 C 688.67778,98.88074 692.46,106.46647 692.46,117.29256 L 692.46,123.66683 L 675.96,123.66683 L 659.46,123.66683 L 659.46,127.11107 C 659.46,132.13568 663.00005,135.86683 667.7673,135.86683 C 671.9338,135.86683 676.46,132.54195 676.46,130.27815 C 676.46,129.1065 678.01428,129.66683 683.97905,129.66683 L 691.4981,129.66683 L 690.85059,132.41683 C 688.76705,141.26571 681.72969,145.84763 669.53129,146.29748 C 665.36708,146.45105 660.19844,146.08476 658.04542,145.4835 z M 676.46,110.22259 C 676.46,106.13946 672.32245,102.26683 667.96,102.26683 C 663.59755,102.26683 659.46,106.13946 659.46,110.22259 C 659.46,112.6232 659.61171,112.66683 667.96,112.66683 C 676.30829,112.66683 676.46,112.6232 676.46,110.22259 z M 419.83473,107.66683 L 410.78333,70.666832 L 419.10261,70.666832 C 426.90839,70.666832 427.45418,70.805712 427.94488,72.916832 C 428.23251,74.154332 430.72468,86.191832 433.48302,99.66683 C 436.24137,113.14183 438.62899,124.585 438.78885,125.0961 C 438.94872,125.6072 441.89039,115.0322 445.32591,101.5961 C 448.76142,88.160004 452.03733,75.687979 452.60569,73.880491 L 453.63909,70.59415 L 462.75561,70.880491 L 471.87212,71.166832 L 477.91606,97.345559 C 481.24023,111.74386 484.2145,123.77336 484.52556,124.07778 C 484.83661,124.38221 487.01954,115.52678 489.3765,104.39905 C 491.73347,93.271333 494.34029,81.129332 495.16945,77.416832 L 496.677,70.666832 L 504.0685,70.666832 C 509.08572,70.666832 511.46,71.046281 511.46,71.848118 C 511.46,72.497825 507.41,88.915082 502.46,108.33091 C 497.51,127.74674 493.46,143.86516 493.46,144.14962 C 493.46,144.43409 489.2975,144.66396 484.21,144.66045 L 474.96,144.65407 L 468.50803,117.02953 C 464.16285,98.42536 461.80587,90.01917 461.28987,91.285907 C 460.86846,92.320416 458.00345,103.06683 454.92318,115.16683 C 451.84291,127.26683 448.88623,138.85433 448.3528,140.91683 L 447.38291,144.66683 L 438.13452,144.66683 L 428.88613,144.66683 L 419.83473,107.66683 z M 699.24292,119.16611 L 698.96,93.665386 L 706.21,93.666109 L 713.46,93.666832 L 713.46374,97.916832 L 713.46748,102.16683 L 715.35705,99.0681 C 717.42068,95.683928 723.61193,92.666832 728.49281,92.666832 L 731.48514,92.666832 L 728.08159,99.41683 C 725.51358,104.50978 725.23934,106.35596 722.19465,106.94361 C 716.24782,108.0914 715.00064,112.27191 714.54286,129.31027 L 714.64963,144.58027 L 706.87133,144.66683 L 699.52585,144.66683 L 699.24292,119.16611 z M 735.46,119.16683 L 735.46,93.666832 L 742.96,93.666832 C 751.05451,93.666832 750.37344,93.09472 750.37344,95.649788 L 750.46,98.84462 L 753.4346,96.341662 C 759.58469,91.166696 768.75689,89.847027 776.09227,94.355734 C 783.76367,99.07098 783.92228,99.15831 784.26511,123.23718 L 784.57022,144.66683 L 777.09453,144.66683 L 769.44571,144.58027 L 769.28942,126.24519 C 768.97245,108.51989 768.87137,107.72929 766.61517,105.3298 C 761.60693,100.00348 754.93318,101.52772 752.08395,108.64865 C 750.82242,111.80151 750.46,116.27358 750.46,128.68707 L 750.46,144.66683 L 742.96,144.66683 L 735.46,144.66683 L 735.46,119.16683 z"
       id="path3389"
       style="opacity:1;fill:#000000"
       sodipodi:nodetypes="csssssssssssccccccssccsssscccccsscccscccccccccssssccssssscccssccccccscccccsccccsssssccccsccccccccccccccccccccccccccccccccccssssccsssscccccsssssccssccccccccccccccccccccsssscccssscssccsscccccccssssssscccsssscccccsscccscccccccccscccssccsssssscccccsscccsccsssccccsssscccccsscccssscccsscccccccccccccccscccccccccccscccccssccccc" />
    <g
       id="g3571">
      <path
         d="M 68.578128,246.56207 C 66.446748,245.80234 63.189808,243.71422 61.340498,241.92179 C 54.605708,235.39418 54.867368,239.36468 55.175308,148.36691 L 55.453358,66.202637 L 58.466738,61.866908 C 60.228278,59.332354 63.328138,56.59647 65.928628,55.281179 L 70.377138,53.031179 L 221.70509,53.031179 C 369.5286,53.031179 373.12115,53.07613 376.83788,54.972265 C 382.6201,57.922136 386.61548,63.086638 387.89922,69.270373 C 388.67582,73.01125 388.92752,98.474386 388.73261,153.58056 C 388.45481,232.1201 388.4422,232.55201 386.30977,236.53118 C 383.62525,241.54057 381.5897,243.38946 375.93538,245.95423 C 371.49243,247.96953 370.15015,247.98706 221.95336,247.96533 C 97.351398,247.94705 71.807968,247.71335 68.578128,246.56207 z M 154.62116,171.02623 C 162.68176,154.52351 169.38947,141.13601 169.5272,141.27623 C 169.66492,141.41645 170.94837,153.45618 172.37932,168.03118 C 173.81026,182.60618 175.2202,195.99368 175.51251,197.78118 L 176.04399,201.03118 L 193.99867,201.03118 C 203.87375,201.03118 211.95336,200.87964 211.95336,200.69442 C 211.95336,200.5092 217.36333,184.69417 223.97552,165.54991 C 230.5877,146.40565 235.72627,130.46969 235.39456,130.13667 C 235.06285,129.80365 228.44027,129.53118 220.67773,129.53118 L 206.56403,129.53118 L 201.45044,145.53118 C 195.12391,167.51002 196.64274,166.33681 193.87688,143.34335 C 193.00038,136.11155 192.36162,129.69175 192.0113,129.12493 C 191.63077,128.50922 183.08817,127.81894 170.79083,127.41024 L 150.20729,126.72614 L 141.97133,142.43633 C 137.44155,151.07693 133.37984,159.00287 133.15691,158.77994 C 132.93397,158.55701 133.83115,151.16762 134.93903,143.62867 C 136.04691,136.08972 136.95336,128.59609 136.95336,127.61096 C 136.95336,126.00567 136.87056,126.09599 122.80794,125.66394 C 115.02278,125.42475 108.55098,125.11074 108.41466,125.25993 C 108.18592,125.51025 99.93852,198.59553 99.94879,200.28118 C 99.95131,200.69368 108.9561,201.03118 119.95944,201.03118 L 139.96553,201.03118 L 154.62116,171.02623 z M 288.95336,199.60639 C 299.20628,197.41373 306.45811,194.27478 315.97065,187.91194 C 348.44321,166.19141 359.65328,126.35128 338.63529,107.36279 C 336.46724,105.40409 332.16438,102.61569 329.07337,101.16635 L 323.45336,98.531179 L 288.80175,98.233364 L 254.15015,97.935549 L 250.90491,107.73337 C 249.12003,113.12216 247.45261,118.09368 247.19953,118.78118 C 246.8388,119.76111 252.43388,120.03238 273.09637,120.03676 C 288.40209,120.04 301.03717,120.48216 303.23069,121.09131 C 308.23308,122.48048 313.54831,127.27383 315.01529,131.71883 C 316.61123,136.55458 315.57552,144.23924 312.47324,150.58007 C 309.27939,157.10807 300.57918,165.3975 293.53847,168.62085 C 287.85137,171.22449 272.3296,172.64336 269.7913,172.26912 C 269.15862,172.17584 271.93845,162.55127 275.56766,151.67881 C 279.19687,140.80635 282.00583,131.76287 281.80979,131.58218 C 281.61375,131.40148 272.90336,130.93389 262.45336,130.54307 L 243.45336,129.83249 L 232.05889,164.18183 C 225.79193,183.07397 219.41344,200.34879 220.11534,200.56024 C 223.22511,201.4971 280.02222,201.51637 288.95336,199.60639 z M 139.82696,110.71157 C 140.49757,105.58579 141.30598,100.39876 141.62342,99.184859 L 142.20059,96.977755 L 126.82698,97.254467 L 111.45336,97.531179 L 110.27874,106.03118 C 109.6327,110.70618 109.0702,115.76868 109.02874,117.28118 L 108.95336,120.03118 L 123.78051,120.03118 L 138.60766,120.03118 L 139.82696,110.71157 z M 190.49359,111.28118 C 189.34096,95.066132 190.9348,98.031047 177.09495,98.032009 L 165.45336,98.032838 L 159.63086,109.03201 L 153.80836,120.03118 L 172.49914,120.03118 L 191.18991,120.03118 L 190.49359,111.28118 z M 243.01774,110.28118 C 244.79386,104.91868 246.45411,99.968679 246.70719,99.281179 C 247.06283,98.315067 243.6796,98.034596 231.81035,98.046223 L 216.45336,98.061268 L 213.56753,107.29622 C 211.98033,112.37545 210.46534,117.31868 210.2009,118.28118 C 209.75846,119.89157 210.91951,120.03118 224.75426,120.03118 L 239.78843,120.03118 L 243.01774,110.28118 z"
         id="path3509"
         style="opacity:0.98000004;fill:#2c4592;fill-opacity:1" />
      <path
         d="M 103.43239,200.09546 C 101.95113,199.87106 100.73919,199.28692 100.73919,198.79737 C 100.73919,198.3078 102.50201,182.29478 104.65657,163.21287 C 106.81112,144.13097 108.57394,127.90797 108.57394,127.16179 C 108.57394,126.05493 110.96351,125.87498 121.55023,126.18457 C 128.68719,126.39327 134.92485,126.94003 135.4117,127.39959 C 135.93708,127.8955 135.57869,134.23123 134.53002,142.98652 C 133.55825,151.09981 133.00848,157.98324 133.30833,158.28309 C 133.60817,158.58292 136.38112,154.05849 139.47043,148.22877 C 142.55975,142.39905 146.37934,135.3156 147.9584,132.48774 L 150.82944,127.34619 L 157.85779,127.38074 C 165.41677,127.41793 190.89815,129.03583 191.36552,129.50829 C 191.52126,129.66573 192.36198,135.96441 193.23376,143.50535 C 195.07111,159.39855 195.48179,161.62319 196.57843,161.62319 C 197.02157,161.62319 197.91919,159.7502 198.5732,157.46099 C 199.22718,155.17177 201.35228,148.1205 203.2956,141.7915 L 206.82891,130.28422 L 220.81623,130.28422 L 234.80361,130.28422 L 233.39939,135.01268 C 232.62709,137.61334 227.47256,153.13085 221.9449,169.49604 C 212.80849,196.54534 211.67199,199.31234 209.44626,199.9263 C 208.09966,200.29777 200.05681,200.6456 191.57325,200.69929 C 179.83447,200.77357 176.14854,200.50438 176.14836,199.57273 C 176.14823,198.89943 174.82623,186.00883 173.21057,170.92695 C 171.59491,155.84507 170.2729,142.95447 170.27277,142.28117 C 170.27205,138.52815 167.23088,143.89532 154.04132,170.92695 L 139.46688,200.79691 L 122.79623,200.65017 C 113.62737,200.56947 104.91364,200.31984 103.43239,200.09546 z"
         id="path3561"
         style="opacity:0.98000004;fill:#ffffff;fill-opacity:1;fill-rule:evenodd" />
      <path
         d="M 109.55328,117.98523 C 109.55328,117.1458 110.06463,112.29805 110.68961,107.21245 L 111.82593,97.965907 L 126.35911,97.965907 C 139.56053,97.965907 140.88907,98.122954 140.85752,99.679757 C 140.8324,100.91873 138.60972,116.16588 138.00219,119.26661 C 137.97581,119.40127 131.56401,119.51145 123.75375,119.51145 C 111.54741,119.51145 109.55328,119.29713 109.55328,117.98522 L 109.55328,117.98523 z"
         id="path3563"
         style="opacity:0.98000004;fill:#ffffff;fill-opacity:1;fill-rule:evenodd" />
      <path
         d="M 159.32436,110.9422 C 161.84526,106.22911 164.34828,101.652 164.88664,100.77083 C 165.67333,99.483232 167.97515,99.098703 176.61089,98.812147 C 187.26826,98.458477 187.36558,98.475635 188.49285,100.90394 C 189.11796,102.25053 189.85985,106.9881 190.14148,111.43187 L 190.65353,119.51145 L 172.69723,119.51145 L 154.74093,119.51145 L 159.32436,110.9422 z"
         id="path3565"
         style="opacity:0.98000004;fill:#ffffff;fill-opacity:1;fill-rule:evenodd" />
      <path
         d="M 211.21982,118.99987 C 210.93842,118.71849 212.05543,114.09109 213.70204,108.71676 L 216.69587,98.94525 L 231.18887,98.94525 C 239.16008,98.94525 245.68194,99.253155 245.68194,99.629487 C 245.68194,100.00582 244.26612,104.63321 242.53566,109.91259 L 239.38938,119.51145 L 225.5604,119.51145 C 217.95443,119.51145 211.50117,119.28124 211.2198,118.99986 L 211.21982,118.99987 z"
         id="path3567"
         style="opacity:0.98000004;fill:#ffffff;fill-opacity:1;fill-rule:evenodd" />
      <path
         d="M 223.40189,200.10577 C 222.18995,199.87232 221.19837,199.38155 221.19837,199.01514 C 221.19837,198.64872 226.31414,183.00144 232.56676,164.24338 L 243.93516,130.13783 L 257.29514,130.73286 C 276.10715,131.57071 281.16932,132.18037 280.66047,133.54682 C 279.65785,136.2392 270.30884,167.26251 269.72209,169.8442 L 269.07786,172.67882 L 277.21159,172.1661 C 291.04772,171.29394 297.26924,168.66073 305.70094,160.10822 C 311.63668,154.08744 315.24299,146.71717 315.92307,139.21713 C 316.38356,134.13868 316.12115,132.77927 313.97257,129.11301 C 312.45924,126.53072 309.82744,123.93822 307.23174,122.47284 C 303.06107,120.11833 302.44975,120.06233 277.51059,119.75008 C 263.50598,119.57475 251.08816,119.22862 249.91543,118.98092 C 247.78422,118.53079 247.78477,118.52585 251.14366,108.49308 L 254.50416,98.455578 L 288.92109,98.759018 L 323.33803,99.062438 L 329.1506,101.99661 C 341.08893,108.02306 347.50271,117.5145 348.28767,130.31663 C 348.89502,140.22194 347.26688,147.26864 341.88742,158.01755 C 338.14723,165.49092 335.80437,168.59797 328.0151,176.41447 C 312.14759,192.33745 299.53703,198.26824 278.23312,199.82702 C 265.88708,200.73037 227.65388,200.92472 223.40189,200.10576 L 223.40189,200.10577 z"
         id="path3569"
         style="opacity:0.98000004;fill:#ffffff;fill-opacity:1;fill-rule:evenodd" />
    </g>
  </g>
</svg>
