<?xml version="1.0" encoding="utf-8"?>
<!-- Generator: Adobe Illustrator 19.2.1, SVG Export Plug-In . SVG Version: 6.00 Build 0)  -->
<svg version="1.1" xmlns="http://www.w3.org/2000/svg" xmlns:xlink="http://www.w3.org/1999/xlink" x="0px" y="0px"
	 viewBox="0 0 509.7 139.4" enable-background="new 0 0 509.7 139.4" xml:space="preserve">
<g id="Layer_1">
</g>
<g id="outer_shape">
</g>
<g id="Layer_2">
	<linearGradient id="SVGID_1_" gradientUnits="userSpaceOnUse" x1="436.9048" y1="318.8983" x2="436.9917" y2="318.8983">
		<stop  offset="0" style="stop-color:#FFFFFF"/>
		<stop  offset="1" style="stop-color:#BFB6AD"/>
	</linearGradient>
	<path fill="url(#SVGID_1_)" d="M436.9,319l0.1-0.1C437,318.9,436.9,319,436.9,319z"/>
	<g>
		<path fill="#ED1C24" d="M89.5,23.3l13.7,61.5l15.2-72.4h27.8l-27.5,124.4H92.6l-19.7-70l-19.4,70H27.5L0,12.5h29.4l14.5,71.6
			l17.9-71.6h16.1C86.8,12.5,89.5,23.3,89.5,23.3z"/>
		<rect x="239.8" y="42.9" fill="#ED1C24" width="29.4" height="93.8"/>
		<path fill="#ED1C24" d="M313.6,112.1c-9.1-7.3-9.7-16.3-9.7-21.8c0-5.5-0.3-25.8,20.4-25.6c12.3,0.1,20.2,1.4,24.4,2.4V46
			c-3-1.3-6.1-2.5-9.3-3.4c-4.8-1.4-10-2.1-15.7-2.1c-6.3,0-12.4,0.9-18.2,2.8c-5.9,1.8-11,4.7-15.5,8.7c-4.6,4.2-8.2,9.4-10.8,15.8
			c-2.6,6.3-3.9,13.9-3.9,22.6c0,8.3,1.2,15.5,3.6,21.7c2.4,6.2,5.8,11.3,10.2,15.4c4.4,4.1,9.6,7.1,15.6,9c6,1.9,12.6,2.9,19.8,2.9
			c5.5,0,10.6-0.7,15.1-2c3.1-0.9,6.1-2,9.1-3.3v-22C342.1,113.8,321.6,118.5,313.6,112.1z"/>
		<path fill="#ED1C24" d="M381.8,19.4v32c5.3-4.2,8.1-6,12.5-8.2c4.4-2.2,10-3,15.7-2.7c9,0.5,16,3,21,8.9c5,5.9,4.6,14.7,4.6,26.5
			v61H409V71.8c0.1-8.3-8.8-8.9-13.4-8.7c-4.6,0.2-13.7,4.2-13.7,4.2v69.5h-26.6V12h19.3C374.5,12,381.8,11.9,381.8,19.4z"/>
		<path fill="#ED1C24" d="M177.8,19.4v32c5.3-4.2,8.1-6,12.5-8.2c4.4-2.2,10-3,15.7-2.7c9,0.5,16,3,21,8.9c5,5.9,4.6,14.7,4.6,26.5
			v61H205V71.8c0.1-8.3-8.8-8.9-13.4-8.7c-4.6,0.2-13.7,4.2-13.7,4.2v69.5h-26.6V12h19.3C170.5,12,177.8,11.9,177.8,19.4z"/>
		<path d="M432.3,10.5c12.6-5.4,25.9-11,40-10.4c12.5,0.5,24.7,6.5,31.8,16.9c6.9,10.2,7.2,22.6,2,33.5
			c-5.2,10.9-14.2,19.1-21.7,28.4c-5.3,6.5-8.4,13.2-8.3,21.7c0,0.8,0,1.6,0.1,2.5c-8.3,0-16.7,0-25,0c-1.2,0-2.3,0-3.5,0
			c-0.1-2.4-0.1-13.5-0.1-13.5s-0.2-8.8,3.7-15c3.9-6.2,9-10.1,14.4-14.1c7.8-5.8,19.6-19.6,9.6-28.9c-1.9-1.8-5.1-3.6-7.7-4
			c-6.7-1.3-13.8-0.8-20.5,0.1c-3,0.4-6,1-9,1.5c-1.9,0.3-3.8,0.7-5.7,1.1c0-5.7,0-11.5,0-17.2C432.3,12.2,432.3,11.3,432.3,10.5z"
			/>
		<path fill="#ED1C24" d="M269,29.3c0,3.1-2.6,5.5-5.8,5.5h-17.8c-3.2,0-5.8-2.5-5.8-5.5V16.9c0-3.1,2.6-5.5,5.8-5.5h17.8
			c3.2,0,5.8,2.5,5.8,5.5V29.3z"/>
		<path d="M476.8,130.9c0,3.3-2.7,6-6,6h-18.3c-3.3,0-6-2.7-6-6v-13.4c0-3.3,2.7-6,6-6h18.3c3.3,0,6,2.7,6,6V130.9z"/>
	</g>
</g>
</svg>
