<?xml version="1.0" encoding="utf-8"?>
<!-- Generator: Adobe Illustrator 18.1.1, SVG Export Plug-In . SVG Version: 6.00 Build 0)  -->
<svg version="1.1" xmlns="http://www.w3.org/2000/svg" xmlns:xlink="http://www.w3.org/1999/xlink" x="0px" y="0px"
	 viewBox="0 0 841.9 595.3" enable-background="new 0 0 841.9 595.3" xml:space="preserve">
<g id="Ebene_3">
	<rect x="99.2" y="189.8" fill="#147355" width="652" height="182.2"/>
	<rect x="141.7" y="189.8" fill="#085B4F" width="26.1" height="182.2"/>
	<rect x="167.8" y="189.8" fill="#49985C" width="29.6" height="182.2"/>
	<rect x="197.4" y="189.8" fill="#5DA563" width="17.7" height="182.2"/>
	<rect x="215.1" y="189.8" fill="#147355" width="29.6" height="182.2"/>
	<rect x="244.7" y="189.8" fill="#147355" width="26.1" height="182.2"/>
	<rect x="270.8" y="189.8" fill="#5DA563" width="10.3" height="182.2"/>
	<rect x="281.1" y="189.8" fill="#085B4F" width="24.9" height="182.2"/>
	<rect x="306" y="189.8" fill="#49985C" width="20.5" height="182.2"/>
	<rect x="326.5" y="189.8" fill="#147355" width="24.9" height="182.2"/>
	<rect x="351.5" y="189.8" fill="#147355" width="42.6" height="182.2"/>
	<rect x="394.1" y="189.8" fill="#49985C" width="14.5" height="182.2"/>
	<rect x="408.6" y="189.8" fill="#085B4F" width="24.9" height="182.2"/>
	<rect x="433.5" y="189.8" fill="#147355" width="25.6" height="182.2"/>
	<rect x="459.2" y="189.8" fill="#147355" width="25" height="182.2"/>
	<rect x="484.2" y="189.8" fill="#5DA563" width="17.2" height="182.2"/>
	<rect x="501.4" y="189.8" fill="#147355" width="24.9" height="182.2"/>
	<rect x="526.3" y="189.8" fill="#085B4F" width="25.9" height="182.2"/>
	<rect x="552.2" y="189.8" fill="#49985C" width="24.9" height="182.2"/>
	<rect x="577.1" y="189.8" fill="#49985C" width="17.3" height="182.2"/>
	<rect x="594.4" y="189.8" fill="#147355" width="24.9" height="182.2"/>
	<rect x="619.3" y="189.8" fill="#5DA563" width="14.5" height="182.2"/>
	<rect x="633.9" y="189.8" fill="#085B4F" width="24.9" height="182.2"/>
	<rect x="658.8" y="189.8" fill="#147355" width="24.9" height="182.2"/>
	<rect x="683.7" y="189.8" fill="#49985C" width="24.9" height="182.2"/>
</g>
<g id="Type">
	<g>
		<path fill="#FFFFFF" d="M243,330.5h-20.4l-16.4-48.9l-16.4,48.9h-20.2l-27.9-99.2h26.1l13.3,52.4l16.4-52.4h17.7l16.4,52.4
			l13.3-52.4h26.1L243,330.5z"/>
		<path fill="#FFFFFF" d="M281.1,330.5v-99.2H306v99.2H281.1z"/>
		<path fill="#FFFFFF" d="M326.5,330.5v-99.2h24.9v77.5h42.6v21.7H326.5z"/>
		<path fill="#FFFFFF" d="M473.6,320.8c-7,6.8-16.8,9.8-27.4,9.8h-37.6v-99.2h37.6c10.5,0,20.4,2.9,27.4,9.8
			c11.8,11.6,10.5,24.2,10.5,39.9C484.1,296.5,485.4,309.2,473.6,320.8z M456.5,258.6c-2.3-3.3-5.7-5.6-12-5.6h-11v55.7h11
			c6.3,0,9.7-2.2,12-5.6c2-2.8,2.7-5.4,2.7-22.3C459.2,264.2,458.5,261.4,456.5,258.6z"/>
		<path fill="#FFFFFF" d="M594.4,330.5v-99.2h24.9v99.2H594.4z"/>
		<path fill="#FFFFFF" d="M683.7,253v77.5h-24.9V253h-24.9v-21.7h74.8V253H683.7z"/>
		<path fill="#FFFFFF" d="M564.8,280.9c4.1-2.5,12.4-6.4,12.4-20.3c0-19-13.5-29.3-31.6-29.3h-44.2v49.6v49.6h44.2
			c18.1,0,31.6-10.3,31.6-29.3C577.2,287.3,568.9,283.4,564.8,280.9z M526.3,253.2h16.8c6.8,0,9.1,4.6,9.1,8.8
			c0,4.2-2.3,8.6-9.1,8.6h-16.8V253.2z M543.1,308.6h-16.8v-17.4h16.8c6.8,0,9.1,4.5,9.1,8.6C552.2,304,549.9,308.6,543.1,308.6z"/>
	</g>
</g>
</svg>
