<?xml version="1.0" encoding="utf-8"?>
<!-- Generator: Adobe Illustrator 19.2.1, SVG Export Plug-In . SVG Version: 6.00 Build 0)  -->
<svg version="1.1" id="Layer_1" xmlns="http://www.w3.org/2000/svg" xmlns:xlink="http://www.w3.org/1999/xlink" x="0px" y="0px"
	 viewBox="0 0 338 399" style="enable-background:new 0 0 338 399;" xml:space="preserve">
<style type="text/css">
	.st0{clip-path:url(#SVGID_2_);}
	.st1{clip-path:url(#SVGID_4_);fill:#FF9999;}
	.st2{clip-path:url(#SVGID_6_);fill:none;stroke:#FF9999;stroke-miterlimit:10;}
	.st3{clip-path:url(#SVGID_8_);}
	.st4{clip-path:url(#SVGID_10_);fill:#FF9999;}
	.st5{clip-path:url(#SVGID_12_);fill:none;stroke:#FF9999;stroke-miterlimit:10;}
	.st6{clip-path:url(#SVGID_14_);}
	.st7{clip-path:url(#SVGID_16_);fill:#FF6666;}
	.st8{clip-path:url(#SVGID_18_);fill:none;stroke:#FF6666;stroke-miterlimit:10;}
	.st9{clip-path:url(#SVGID_20_);}
	.st10{clip-path:url(#SVGID_22_);fill:#FF6666;}
	.st11{clip-path:url(#SVGID_24_);fill:none;stroke:#FF6666;stroke-miterlimit:10;}
	.st12{clip-path:url(#SVGID_26_);}
	.st13{clip-path:url(#SVGID_28_);fill:#FF6666;}
	.st14{clip-path:url(#SVGID_30_);fill:none;stroke:#FF6666;stroke-width:3;stroke-miterlimit:10;}
</style>
<g>
	<defs>
		<rect id="SVGID_1_" x="-60" y="-38" width="458" height="474"/>
	</defs>
	<clipPath id="SVGID_2_">
		<use xlink:href="#SVGID_1_"  style="overflow:visible;"/>
	</clipPath>
	<g class="st0">
		<defs>
			<path id="SVGID_3_" d="M84.5,206.4c8.1,8.1,18.8,10.6,27.8,9c11.5-2.1,20.4-9.9,24.3-20.3l54.8-165c0,0,1.3-4.4,0.3-9.9
				c-1.1-6.4-6.4-15.5-16.3-17.9C154-3,147.3,17.5,147.3,17.5L84.5,206.4"/>
		</defs>
		<clipPath id="SVGID_4_">
			<use xlink:href="#SVGID_3_"  style="overflow:visible;"/>
		</clipPath>
		<rect x="79.5" y="-3.6" class="st1" width="117.6" height="224.5"/>
	</g>
</g>
<g>
	<defs>
		<rect id="SVGID_5_" x="-60" y="-38" width="458" height="474"/>
	</defs>
	<clipPath id="SVGID_6_">
		<use xlink:href="#SVGID_5_"  style="overflow:visible;"/>
	</clipPath>
	<path class="st2" d="M84.5,206.4c8.1,8.1,18.8,10.6,27.8,9c11.5-2.1,20.4-9.9,24.3-20.3L191.4,30c0,0,1.3-4.4,0.3-9.9
		c-1.1-6.4-6.4-15.5-16.3-17.9C154-3,147.3,17.5,147.3,17.5L84.5,206.4z"/>
</g>
<g>
	<defs>
		<rect id="SVGID_7_" x="-60" y="-38" width="458" height="474"/>
	</defs>
	<clipPath id="SVGID_8_">
		<use xlink:href="#SVGID_7_"  style="overflow:visible;"/>
	</clipPath>
	<g class="st3">
		<defs>
			<path id="SVGID_9_" d="M209.4,206.4c8.1,8.1,18.8,10.6,27.8,9c11.5-2.1,20.4-9.9,24.3-20.3l54.8-165c0,0,1.3-4.4,0.3-9.9
				c-1.1-6.4-6.4-15.5-16.3-17.9C279-3,272.2,17.5,272.2,17.5L209.4,206.4"/>
		</defs>
		<clipPath id="SVGID_10_">
			<use xlink:href="#SVGID_9_"  style="overflow:visible;"/>
		</clipPath>
		<rect x="204.4" y="-3.6" class="st4" width="117.6" height="224.5"/>
	</g>
</g>
<g>
	<defs>
		<rect id="SVGID_11_" x="-60" y="-38" width="458" height="474"/>
	</defs>
	<clipPath id="SVGID_12_">
		<use xlink:href="#SVGID_11_"  style="overflow:visible;"/>
	</clipPath>
	<path class="st5" d="M209.4,206.4c8.1,8.1,18.8,10.6,27.8,9c11.5-2.1,20.4-9.9,24.3-20.3L316.4,30c0,0,1.3-4.4,0.3-9.9
		c-1.1-6.4-6.4-15.5-16.3-17.9C279-3,272.2,17.5,272.2,17.5L209.4,206.4z"/>
</g>
<g>
	<defs>
		<rect id="SVGID_13_" x="-60" y="-38" width="458" height="474"/>
	</defs>
	<clipPath id="SVGID_14_">
		<use xlink:href="#SVGID_13_"  style="overflow:visible;"/>
	</clipPath>
	<g class="st6">
		<defs>
			<path id="SVGID_15_" d="M129.4,206.4c-8.1,8.1-18.8,10.6-27.8,9c-11.5-2.1-20.4-9.9-24.3-20.3L22.4,30c0,0-1.3-4.4-0.3-9.9
				c1.1-6.4,6.4-15.5,16.3-17.9C59.8-3,66.6,17.5,66.6,17.5L129.4,206.4"/>
		</defs>
		<clipPath id="SVGID_16_">
			<use xlink:href="#SVGID_15_"  style="overflow:visible;"/>
		</clipPath>
		<rect x="16.8" y="-3.6" class="st7" width="117.6" height="224.5"/>
	</g>
</g>
<g>
	<defs>
		<rect id="SVGID_17_" x="-60" y="-38" width="458" height="474"/>
	</defs>
	<clipPath id="SVGID_18_">
		<use xlink:href="#SVGID_17_"  style="overflow:visible;"/>
	</clipPath>
	<path class="st8" d="M129.4,206.4c-8.1,8.1-18.8,10.6-27.8,9c-11.5-2.1-20.4-9.9-24.3-20.3L22.4,30c0,0-1.3-4.4-0.3-9.9
		c1.1-6.4,6.4-15.5,16.3-17.9C59.8-3,66.6,17.5,66.6,17.5L129.4,206.4z"/>
</g>
<g>
	<defs>
		<rect id="SVGID_19_" x="-60" y="-38" width="458" height="474"/>
	</defs>
	<clipPath id="SVGID_20_">
		<use xlink:href="#SVGID_19_"  style="overflow:visible;"/>
	</clipPath>
	<g class="st9">
		<defs>
			<path id="SVGID_21_" d="M254.3,206.4c-8.1,8.1-18.8,10.6-27.8,9c-11.5-2.1-20.4-9.9-24.3-20.3L147.4,30c0,0-1.3-4.4-0.3-9.9
				c1.1-6.4,6.4-15.5,16.3-17.9c21.5-5.3,28.2,15.2,28.2,15.2L254.3,206.4"/>
		</defs>
		<clipPath id="SVGID_22_">
			<use xlink:href="#SVGID_21_"  style="overflow:visible;"/>
		</clipPath>
		<rect x="141.7" y="-3.6" class="st10" width="117.6" height="224.5"/>
	</g>
</g>
<g>
	<defs>
		<rect id="SVGID_23_" x="-60" y="-38" width="458" height="474"/>
	</defs>
	<clipPath id="SVGID_24_">
		<use xlink:href="#SVGID_23_"  style="overflow:visible;"/>
	</clipPath>
	<path class="st11" d="M254.3,206.4c-8.1,8.1-18.8,10.6-27.8,9c-11.5-2.1-20.4-9.9-24.3-20.3L147.4,30c0,0-1.3-4.4-0.3-9.9
		c1.1-6.4,6.4-15.5,16.3-17.9c21.5-5.3,28.2,15.2,28.2,15.2L254.3,206.4z"/>
</g>
<g>
	<defs>
		<rect id="SVGID_25_" x="-60" y="-38" width="458" height="474"/>
	</defs>
	<clipPath id="SVGID_26_">
		<use xlink:href="#SVGID_25_"  style="overflow:visible;"/>
	</clipPath>
	<g class="st12">
		<defs>
			<path id="SVGID_27_" d="M324,328.9c0,9.3-2.1,18.2-8.2,23.7c-2.9,2.6-6.6,4.9-12.1,4.9c-16.6,0-21-14.8-21-28.5
				c0-13.7,4.4-28.5,21-28.5c5.4,0,9.1,2.2,12.1,4.9C321.9,310.7,324,319.7,324,328.9z M335.8,366.1V260h-12.5v40.4
				c-4-6.8-13.5-10.6-21.6-10.6c-8.7,0-15.6,2.9-20.4,7.5c-7.5,7.2-11.3,19-11.3,31.8c0,12.3,3.7,23.7,10.7,30.9
				c4.9,5,11.9,8.1,21,8.1c8.4,0,17.9-4.1,22.2-11.6l0.9,9.7H335.8z M258.3,366.1v-49c0-17.2-8.8-27.3-25.7-27.3
				c-8.4,0-18.7,4.6-22.5,13.1l-1-11.2h-10.9v74.4h12.5v-34.5c0-5.7,0.1-13.5,2.6-19c3.2-6.8,9-11.5,16.2-11.5
				c11.8,0,16.3,6.6,16.3,17.8v47.2H258.3z M186,291.8h-13.1L152,350.4l-21.9-58.7H116l29.7,74.4l-4.7,12.5
				c-2.1,5.6-5.9,7.5-11.2,7.5c-4.9,0-8.8-1.2-8.8-1.2v10.9c1,0.3,5.1,1.5,11.3,1.5c11.2,0,16.6-6.3,20.1-15.9L186,291.8z
				 M103.6,291.8H91.4L77,347.9l-18.7-55.3H47.6l-19,55.3l-14.3-56.2H2l19.1,74.4H33l19.8-56.9l19.4,56.9h12.1L103.6,291.8z"/>
		</defs>
		<clipPath id="SVGID_28_">
			<use xlink:href="#SVGID_27_"  style="overflow:visible;"/>
		</clipPath>
		<rect x="-3" y="255" class="st13" width="343.8" height="147.3"/>
	</g>
</g>
<g>
	<defs>
		<rect id="SVGID_29_" x="-60" y="-38" width="458" height="474"/>
	</defs>
	<clipPath id="SVGID_30_">
		<use xlink:href="#SVGID_29_"  style="overflow:visible;"/>
	</clipPath>
	<path class="st14" d="M324,328.9c0,9.3-2.1,18.2-8.2,23.7c-2.9,2.6-6.6,4.9-12.1,4.9c-16.6,0-21-14.8-21-28.5
		c0-13.7,4.4-28.5,21-28.5c5.4,0,9.1,2.2,12.1,4.9C321.9,310.7,324,319.7,324,328.9z M335.8,366.1V260h-12.5v40.4
		c-4-6.8-13.5-10.6-21.6-10.6c-8.7,0-15.6,2.9-20.4,7.5c-7.5,7.2-11.3,19-11.3,31.8c0,12.3,3.7,23.7,10.7,30.9
		c4.9,5,11.9,8.1,21,8.1c8.4,0,17.9-4.1,22.2-11.6l0.9,9.7H335.8z M258.3,366.1v-49c0-17.2-8.8-27.3-25.7-27.3
		c-8.4,0-18.7,4.6-22.5,13.1l-1-11.2h-10.9v74.4h12.5v-34.5c0-5.7,0.1-13.5,2.6-19c3.2-6.8,9-11.5,16.2-11.5
		c11.8,0,16.3,6.6,16.3,17.8v47.2H258.3z M186,291.8h-13.1L152,350.4l-21.9-58.7H116l29.7,74.4l-4.7,12.5c-2.1,5.6-5.9,7.5-11.2,7.5
		c-4.9,0-8.8-1.2-8.8-1.2v10.9c1,0.3,5.1,1.5,11.3,1.5c11.2,0,16.6-6.3,20.1-15.9L186,291.8z M103.6,291.8H91.4L77,347.9l-18.7-55.3
		H47.6l-19,55.3l-14.3-56.2H2l19.1,74.4H33l19.8-56.9l19.4,56.9h12.1L103.6,291.8z"/>
</g>
</svg>
