<?xml version="1.0" encoding="utf-8"?>
<!-- Generator: Adobe Illustrator 18.1.1, SVG Export Plug-In . SVG Version: 6.00 Build 0)  -->
<svg version="1.1"
	 id="svg3009" xmlns:dc="http://purl.org/dc/elements/1.1/" xmlns:cc="http://creativecommons.org/ns#" xmlns:rdf="http://www.w3.org/1999/02/22-rdf-syntax-ns#" xmlns:svg="http://www.w3.org/2000/svg" xmlns:sodipodi="http://sodipodi.sourceforge.net/DTD/sodipodi-0.dtd" xmlns:inkscape="http://www.inkscape.org/namespaces/inkscape" sodipodi:docname="Xbox_One_logo.svg" inkscape:version="0.48.4 r9939"
	 xmlns="http://www.w3.org/2000/svg" xmlns:xlink="http://www.w3.org/1999/xlink" x="0px" y="0px" viewBox="-152.7 236.5 2612 512"
	 enable-background="new -152.7 236.5 2612 512" xml:space="preserve">
<sodipodi:namedview  inkscape:cy="13.184416" inkscape:cx="26.487741" inkscape:zoom="1.4142136" showgrid="false" guidetolerance="10" gridtolerance="10" objecttolerance="10" borderopacity="1" pagecolor="#ffffff" bordercolor="#666666" id="namedview3031" inkscape:current-layer="svg3009" inkscape:window-maximized="1" inkscape:window-y="-8" inkscape:window-x="-8" inkscape:window-height="838" inkscape:window-width="1600" inkscape:pageshadow="2" inkscape:pageopacity="0">
	</sodipodi:namedview>
<g id="g4201">
	<polygon id="polygon3015" fill="#6B6B6B" points="2159.2,328.8 2159.2,590 1966.8,328.6 1935.3,328.6 1935.3,646.6 1970.6,646.6 
		1970.6,391.2 2159.2,646.8 2194.6,646.9 2194.6,328.8 	"/>
	<path id="path3017" fill="#6B6B6B" d="M1751.3,321.5c-89.4,0-151.9,68.4-151.9,166.3c0,98.1,62.5,166.4,151.9,166.4
		c89.3,0,151.6-68.4,151.6-166.4C1902.9,389.9,1840.7,321.5,1751.3,321.5 M1751.3,620.5c-68.1,0-115.9-54.6-115.9-132.8
		c0-78.1,47.7-132.7,115.9-132.7c68,0,115.5,54.6,115.5,132.7C1866.8,565.9,1819.3,620.5,1751.3,620.5"/>
	<polygon id="polygon3019" fill="#6B6B6B" points="2270.1,615.7 2270.1,498.1 2445.1,498.1 2445.1,466.9 2270.1,466.9 2270.1,359.7 
		2457.1,359.7 2457.1,328.6 2234.4,328.6 2234.4,646.9 2459.2,646.9 2459.2,615.7 	"/>
	<polygon id="polygon3021" fill="#177D3E" points="1499.7,647.1 1398.1,509.1 1296.4,647.1 1254.6,647.1 1376.8,480.4 1265.2,328.8 
		1307,328.8 1398.1,452.5 1489,328.8 1530.8,328.8 1419.2,480.4 1541.5,647.1 	"/>
	<path id="path3023" fill="#177D3E" d="M940,492.4c-6.6-5.7-13.8-10-20.8-13.3c23.1-12.5,38.2-36.2,38.2-63.7
		c0-20.4-7.5-86.6-103.5-86.6H724.7v137.2h-43.1c-5.6,7.3-18.3,24.8-23.1,31.9h66.2v149.1l129.3,0c70,0,113.5-35.6,113.5-92.9
		C967.5,529.2,958,507.8,940,492.4 M760.4,362.1H854c25.3,0,67.7,6.3,67.7,50.6c0,33.5-24.7,53.4-67.7,53.4h-93.5V362.1z
		 M853.9,613.9h-93.5V498h93.5c35.5,0,77.9,9.8,77.9,55.5C931.8,606.1,883.1,613.9,853.9,613.9"/>
	<path id="path3025" fill="#177D3E" d="M1135.6,321.5c-89.4,0-151.9,68.4-151.9,166.3c0,98.1,62.5,166.4,151.9,166.4
		c89.3,0,151.6-68.3,151.6-166.4C1287.2,389.9,1224.9,321.5,1135.6,321.5 M1135.6,620.5c-68.1,0-115.8-54.6-115.8-132.7
		c0-78.1,47.7-132.7,115.8-132.7c68,0,115.5,54.6,115.5,132.7C1251.1,565.9,1203.6,620.5,1135.6,620.5"/>
	<polygon id="polygon3027" fill="#177D3E" points="707.3,647.1 585,480.4 696.6,328.8 654.8,328.8 563.8,452.5 472.8,328.8 
		431.1,328.8 542.7,480.4 420.3,647.1 462.3,647.1 563.8,509.1 665.5,647.1 	"/>
	<g id="g3055" transform="translate(-1.2833333,0.93333333)">
		<g id="g3923" transform="matrix(-1,0,0,1,61.715049,-34.927083)">
		</g>
		<g id="g4049">
			<g id="g4160" transform="translate(-2.125,35.625)">
				
					<path id="path3033" sodipodi:cy="17.391666" sodipodi:cx="23.333334" sodipodi:ry="14.758333" sodipodi:rx="14.35" sodipodi:type="arc" fill="#666666" d="
					M368.5,456c0,141.4-115.9,256-258.9,256s-258.9-114.6-258.9-256c0-141.4,115.9-256,258.9-256C252.6,200,368.5,314.6,368.5,456z"
					/>
				
					<radialGradient id="path3035_1_" cx="-1247.5548" cy="-1409.6522" r="220.2668" gradientTransform="matrix(0 1.6935 -1.5038 0 -2014.8826 2541.2734)" gradientUnits="userSpaceOnUse">
					<stop  offset="0" style="stop-color:#FFFFFF"/>
					<stop  offset="1" style="stop-color:#FFFFFF;stop-opacity:0"/>
				</radialGradient>
				
					<path id="path3035" sodipodi:cy="17.391666" sodipodi:cx="23.333334" sodipodi:ry="14.758333" sodipodi:rx="14.35" sodipodi:type="arc" fill="url(#path3035_1_)" d="
					M368.5,456c0,141.4-115.9,256-258.9,256s-258.9-114.6-258.9-256c0-141.4,115.9-256,258.9-256C252.6,200,368.5,314.6,368.5,456z"
					/>
				
					<radialGradient id="path3045_1_" cx="-1247.5548" cy="-1409.6522" r="220.2668" gradientTransform="matrix(0 1.6935 -1.5038 0 -2014.8826 2541.2734)" gradientUnits="userSpaceOnUse">
					<stop  offset="0" style="stop-color:#FFFFFF"/>
					<stop  offset="1" style="stop-color:#FFFFFF;stop-opacity:0"/>
				</radialGradient>
				
					<path id="path3045" sodipodi:cy="17.391666" sodipodi:cx="23.333334" sodipodi:ry="14.758333" sodipodi:rx="14.35" sodipodi:type="arc" fill="url(#path3045_1_)" d="
					M368.5,456c0,141.4-115.9,256-258.9,256s-258.9-114.6-258.9-256c0-141.4,115.9-256,258.9-256C252.6,200,368.5,314.6,368.5,456z"
					/>
				
					<radialGradient id="path3047_1_" cx="-1247.5548" cy="-1409.6522" r="220.2668" gradientTransform="matrix(0 1.6935 -1.5038 0 -2014.8826 2541.2734)" gradientUnits="userSpaceOnUse">
					<stop  offset="0" style="stop-color:#FFFFFF"/>
					<stop  offset="1" style="stop-color:#FFFFFF;stop-opacity:0"/>
				</radialGradient>
				
					<path id="path3047" sodipodi:cy="17.391666" sodipodi:cx="23.333334" sodipodi:ry="14.758333" sodipodi:rx="14.35" sodipodi:type="arc" fill="url(#path3047_1_)" d="
					M368.5,456c0,141.4-115.9,256-258.9,256s-258.9-114.6-258.9-256c0-141.4,115.9-256,258.9-256C252.6,200,368.5,314.6,368.5,456z"
					/>
				<g id="g4126" transform="translate(3.7995054e-7,0.05177686)">
					<g id="g4010" transform="matrix(1.0075011,0,0,1.0008426,-0.23709798,0.02715301)">
						<g id="g3951">
							<g id="g3917" transform="translate(1.334375,-34.927083)">
								<path id="path3900" inkscape:connector-curvature="0" sodipodi:nodetypes="ccccc" fill="#00A54D" d="M42.5,378.4
									C14.1,413-104.8,553.8-94.2,648.9c7.3,9.4,15.4,18.1,24,26.4c-1.2-72.8,83.7-150.8,149.9-209.6L42.5,378.4z"/>
							</g>
							<g id="g3988" transform="translate(1.334375,-34.927083)">
								
									<linearGradient id="path3990_1_" gradientUnits="userSpaceOnUse" x1="-1026.2222" y1="-93.0351" x2="-1086.9319" y2="-164.2586" gradientTransform="matrix(1.0151 0 0 1.0016 1056.91 654.934)">
									<stop  offset="0" style="stop-color:#97CA43"/>
									<stop  offset="1" style="stop-color:#97CA43;stop-opacity:0"/>
								</linearGradient>
								<path id="path3990" inkscape:connector-curvature="0" sodipodi:nodetypes="ccccc" fill="url(#path3990_1_)" d="M42.5,378.4
									C14.1,413-104.8,553.8-94.2,648.9c7.3,9.4,15.4,18.1,24,26.4c-1.2-72.8,83.7-150.8,149.9-209.6L42.5,378.4z"/>
							</g>
							<g id="g3888" transform="translate(1.196189,-34.89572)">
								<g id="g3876">
									<path id="path3089" inkscape:connector-curvature="0" sodipodi:nodetypes="cccccccc" fill="#02A74D" d="M-27.1,272.9
										c-14.8,9-28.6,19.5-41.2,31.2c40.8,7.8,81.7,43.9,104.1,73.9c19.5,30.7,30.1,58.9,43.9,88c9.3-8,18.8-16.1,29.1-24.4
										l-0.1-126.3c-30.4-19-80.6-44-135.3-42.4C-26.8,272.9-27,272.8-27.1,272.9z"/>
									
										<linearGradient id="path4000_1_" gradientUnits="userSpaceOnUse" x1="-1029.1715" y1="-263.6245" x2="-973.5505" y2="-387.0787" gradientTransform="matrix(1.0151 0 0 1.0016 1056.6304 654.9337)">
										<stop  offset="0" style="stop-color:#97CA43"/>
										<stop  offset="1" style="stop-color:#97CA43;stop-opacity:0"/>
									</linearGradient>
									<path id="path4000" inkscape:connector-curvature="0" sodipodi:nodetypes="cccccccc" fill="url(#path4000_1_)" d="
										M-27.1,272.9c-14.8,9-28.6,19.5-41.2,31.2c40.8,7.8,81.7,43.9,104.1,73.9c19.5,30.7,30.1,58.9,43.9,88
										c9.3-8,18.8-16.1,29.1-24.4l-0.1-126.3c-30.4-19-80.6-44-135.3-42.4C-26.8,272.9-27,272.8-27.1,272.9z"/>
								</g>
							</g>
						</g>
					</g>
					<g id="g4021" transform="matrix(-1.0041673,0,0,1.0016853,63.252358,0.05430602)">
						<g id="g4023">
							<g id="g4025" transform="translate(1.334375,-34.927083)">
								<path id="path4027" inkscape:connector-curvature="0" sodipodi:nodetypes="ccccc" fill="#00A54D" d="M-113,378.2
									c-28.4,34.6-147.2,175.4-136.7,270.5c7.3,9.3,15.4,18.1,24,26.4c-1.2-72.8,83.7-150.8,149.9-209.6L-113,378.2z"/>
							</g>
							<g id="g4029" transform="translate(1.334375,-34.927083)">
								
									<linearGradient id="path4031_1_" gradientUnits="userSpaceOnUse" x1="-1874.8945" y1="-121.4621" x2="-1935.6016" y2="-192.6819" gradientTransform="matrix(1.0084 0 0 1.0034 1715.9207 654.717)">
									<stop  offset="0" style="stop-color:#97CA43"/>
									<stop  offset="1" style="stop-color:#97CA43;stop-opacity:0"/>
								</linearGradient>
								<path id="path4031" inkscape:connector-curvature="0" sodipodi:nodetypes="ccccc" fill="url(#path4031_1_)" d="M-113,378.2
									c-28.4,34.6-147.2,175.4-136.7,270.5c7.3,9.3,15.4,18.1,24,26.4c-1.2-72.8,83.7-150.8,149.9-209.6L-113,378.2z"/>
							</g>
							<g id="g4033" transform="translate(1.196189,-34.89572)">
								<g id="g4035">
									<path id="path4037" inkscape:connector-curvature="0" sodipodi:nodetypes="cccccccc" fill="#02A74D" d="M-182.6,272.6
										c-14.8,9-28.6,19.5-41.3,31.2c40.8,7.8,81.7,43.9,104.1,73.9c19.5,30.7,30.1,58.9,43.9,88c9.3-8,18.8-16.1,29.1-24.4
										L-46.9,315c-30.4-19-80.6-44-135.3-42.4C-182.3,272.7-182.5,272.6-182.6,272.6z"/>
									
										<linearGradient id="path4039_1_" gradientUnits="userSpaceOnUse" x1="-1804.9103" y1="-293.5282" x2="-1757.3898" y2="-370.9421" gradientTransform="matrix(1.0084 0 0 1.0034 1715.9202 654.7167)">
										<stop  offset="0" style="stop-color:#97CA43"/>
										<stop  offset="1" style="stop-color:#97CA43;stop-opacity:0"/>
									</linearGradient>
									<path id="path4039" inkscape:connector-curvature="0" sodipodi:nodetypes="cccccccc" fill="url(#path4039_1_)" d="
										M-182.6,272.6c-14.8,9-28.6,19.5-41.3,31.2c40.8,7.8,81.7,43.9,104.1,73.9c19.5,30.7,30.1,58.9,43.9,88
										c9.3-8,18.8-16.1,29.1-24.4L-46.9,315c-30.4-19-80.6-44-135.3-42.4C-182.3,272.7-182.5,272.6-182.6,272.6z"/>
								</g>
							</g>
						</g>
					</g>
				</g>
			</g>
		</g>
	</g>
</g>
</svg>
