<?xml version="1.0" encoding="iso-8859-1"?><!-- Generator: Adobe Illustrator 16.0.0, SVG Export Plug-In . SVG Version: 6.00 Build 0) --><!DOCTYPE svg PUBLIC "-//W3C//DTD SVG 1.1//EN" "http://www.w3.org/Graphics/SVG/1.1/DTD/svg11.dtd"><svg version="1.1" id="svg3009" inkscape:version="0.48.4 r9939" sodipodi:docname="Xbox_One_logo.svg" xmlns:rdf="http://www.w3.org/1999/02/22-rdf-syntax-ns#" xmlns:sodipodi="http://sodipodi.sourceforge.net/DTD/sodipodi-0.dtd" xmlns:dc="http://purl.org/dc/elements/1.1/" xmlns:inkscape="http://www.inkscape.org/namespaces/inkscape" xmlns:svg="http://www.w3.org/2000/svg" xmlns:cc="http://creativecommons.org/ns#" xmlns="http://www.w3.org/2000/svg" xmlns:xlink="http://www.w3.org/1999/xlink" x="0px" y="0px" width="170.175px" height="33.357px" viewBox="11.272 1.898 170.175 33.357" style="enable-background:new 11.272 1.898 170.175 33.357;" xml:space="preserve"><sodipodi:namedview id="namedview3031" inkscape:window-y="-8" inkscape:window-width="1600" inkscape:pageshadow="2" inkscape:window-maximized="1" inkscape:window-x="-8" inkscape:window-height="838" inkscape:pageopacity="0" inkscape:current-layer="svg3009" objecttolerance="10" bordercolor="#666666" guidetolerance="10" inkscape:cx="26.487741" showgrid="false" borderopacity="1" pagecolor="#ffffff" inkscape:cy="13.184416" inkscape:zoom="1.4142136" gridtolerance="10"></sodipodi:namedview><g id="g4201"><polygon id="polygon3015" style="fill:#6B6B6B;" points="161.898,7.912 161.898,24.93 149.363,7.899 147.309,7.896 147.309,28.615	149.613,28.615 149.613,11.974 161.896,28.629 164.207,28.631 164.207,7.912	"/><path id="path3017" style="fill:#6B6B6B;" d="M135.324,7.431c-5.826,0-9.898,4.456-9.898,10.835c0,6.389,4.072,10.844,9.898,10.844	c5.82,0,9.879-4.455,9.879-10.844C145.203,11.887,141.145,7.431,135.324,7.431 M135.324,26.915c-4.438,0-7.549-3.557-7.549-8.649	c0-5.088,3.111-8.645,7.549-8.645c4.432,0,7.523,3.557,7.523,8.645C142.848,23.358,139.756,26.915,135.324,26.915"/><polygon id="polygon3019" style="fill:#6B6B6B;" points="169.123,26.604 169.123,18.938 180.529,18.938 180.529,16.909	169.123,16.909 169.123,9.925 181.305,9.925 181.305,7.898 166.799,7.898 166.799,28.633 181.447,28.633 181.447,26.604	"/><polygon id="polygon3021" style="fill:#177D3E;" points="118.932,28.65 112.309,19.658 105.688,28.65 102.96,28.65 110.926,17.786	103.652,7.912 106.379,7.912 112.309,15.966 118.232,7.912 120.957,7.912 113.688,17.786 121.656,28.65	"/><path id="path3023" style="fill:#177D3E;" d="M82.467,18.57c-0.433-0.369-0.902-0.654-1.358-0.865	c1.505-0.817,2.492-2.361,2.492-4.152c0-1.327-0.489-5.641-6.741-5.641h-8.421v8.94h-2.806c-0.365,0.474-1.19,1.613-1.506,2.081	h4.312v9.715l8.421,0.001c4.562,0,7.396-2.317,7.396-6.054C84.256,20.963,83.639,19.574,82.467,18.57 M70.767,10.076h6.093	c1.65,0,4.411,0.411,4.411,3.296c0,2.181-1.609,3.481-4.411,3.481h-6.093V10.076z M76.859,26.486h-6.093v-7.55h6.093	c2.311,0,5.074,0.638,5.074,3.614C81.934,25.973,78.756,26.486,76.859,26.486"/><path id="path3025" style="fill:#177D3E;" d="M95.209,7.433c-5.824,0-9.896,4.456-9.896,10.835c0,6.389,4.071,10.842,9.896,10.842	c5.82,0,9.879-4.453,9.879-10.842C105.088,11.889,101.029,7.433,95.209,7.433 M95.209,26.916c-4.438,0-7.546-3.557-7.546-8.648	c0-5.088,3.108-8.644,7.546-8.644c4.431,0,7.523,3.556,7.523,8.644C102.732,23.359,99.64,26.916,95.209,26.916"/><polygon id="polygon3027" style="fill:#177D3E;" points="67.306,28.648 59.334,17.785 66.608,7.912 63.883,7.912 57.953,15.968	52.028,7.912 49.311,7.912 56.58,17.785 48.609,28.648 51.34,28.648 57.957,19.658 64.578,28.648	"/><g id="g3055" transform="translate(-1.2833333,0.93333333)"><g id="g3923" transform="matrix(-1,0,0,1,61.715049,-34.927083)"></g><g id="g4049"><g id="g4160" transform="translate(-2.125,35.625)"><path id="path3033" sodipodi:rx="14.35" sodipodi:cy="17.391666" sodipodi:cx="23.333334" sodipodi:type="arc" sodipodi:ry="14.758333" style="fill:#666666;" d="	M48.42-17.981c0,9.212-7.553,16.679-16.87,16.679c-9.317,0-16.87-7.467-16.87-16.679c0-9.211,7.553-16.679,16.87-16.679	C40.867-34.66,48.42-27.193,48.42-17.981z"/><radialGradient id="path3035_1_" cx="-1186.1254" cy="1608.6096" r="14.3509" gradientTransform="matrix(0 1.6935 1.5038 0 -2387.7808 1988.9343)" gradientUnits="userSpaceOnUse"><stop offset="0" style="stop-color:#FFFFFF"/><stop offset="1" style="stop-color:#FFFFFF;stop-opacity:0"/></radialGradient><path id="path3035" sodipodi:rx="14.35" sodipodi:cy="17.391666" sodipodi:cx="23.333334" sodipodi:type="arc" sodipodi:ry="14.758333" style="fill:url(#path3035_1_);" d="	M48.42-17.981c0,9.212-7.553,16.679-16.87,16.679c-9.317,0-16.87-7.467-16.87-16.679c0-9.211,7.553-16.679,16.87-16.679	C40.867-34.66,48.42-27.193,48.42-17.981z"/><radialGradient id="path3045_1_" cx="-1186.1254" cy="1608.6096" r="14.3509" gradientTransform="matrix(0 1.6935 1.5038 0 -2387.7808 1988.9343)" gradientUnits="userSpaceOnUse"><stop offset="0" style="stop-color:#FFFFFF"/><stop offset="1" style="stop-color:#FFFFFF;stop-opacity:0"/></radialGradient><path id="path3045" sodipodi:rx="14.35" sodipodi:cy="17.391666" sodipodi:cx="23.333334" sodipodi:type="arc" sodipodi:ry="14.758333" style="fill:url(#path3045_1_);" d="	M48.42-17.981c0,9.212-7.553,16.679-16.87,16.679c-9.317,0-16.87-7.467-16.87-16.679c0-9.211,7.553-16.679,16.87-16.679	C40.867-34.66,48.42-27.193,48.42-17.981z"/><radialGradient id="path3047_1_" cx="-1186.1254" cy="1608.6096" r="14.3509" gradientTransform="matrix(0 1.6935 1.5038 0 -2387.7808 1988.9343)" gradientUnits="userSpaceOnUse"><stop offset="0" style="stop-color:#FFFFFF"/><stop offset="1" style="stop-color:#FFFFFF;stop-opacity:0"/></radialGradient><path id="path3047" sodipodi:rx="14.35" sodipodi:cy="17.391666" sodipodi:cx="23.333334" sodipodi:type="arc" sodipodi:ry="14.758333" style="fill:url(#path3047_1_);" d="	M48.42-17.981c0,9.212-7.553,16.679-16.87,16.679c-9.317,0-16.87-7.467-16.87-16.679c0-9.211,7.553-16.679,16.87-16.679	C40.867-34.66,48.42-27.193,48.42-17.981z"/><g id="g4126" transform="translate(3.7995054e-7,0.05177686)"><g id="g4010" transform="matrix(1.0075011,0,0,1.0008426,-0.23709798,0.02715301)"><g id="g3951"><g id="g3917" transform="translate(1.334375,-34.927083)"><path id="path3900" sodipodi:nodetypes="ccccc" inkscape:connector-curvature="0" style="fill:#00A54D;" d="M25.967,9.583	c-1.848,2.256-9.593,11.425-8.906,17.625c0.478,0.61,1.005,1.181,1.562,1.718c-0.081-4.745,5.451-9.825,9.769-13.658	L25.967,9.583z"/></g><g id="g3988" transform="translate(1.334375,-34.927083)"><linearGradient id="path3990_1_" gradientUnits="userSpaceOnUse" x1="-1022.4974" y1="1131.1968" x2="-1026.4528" y2="1135.8372" gradientTransform="matrix(1.0075 0 0 -1.0008 1054.3262 1153.6565)"><stop offset="0" style="stop-color:#97CA43"/><stop offset="1" style="stop-color:#97CA43;stop-opacity:0"/></linearGradient><path id="path3990" sodipodi:nodetypes="ccccc" inkscape:connector-curvature="0" style="fill:url(#path3990_1_);" d="	M25.967,9.583c-1.848,2.256-9.593,11.425-8.906,17.625c0.478,0.61,1.005,1.181,1.562,1.718	c-0.081-4.745,5.451-9.825,9.769-13.658L25.967,9.583z"/></g><g id="g3888" transform="translate(1.196189,-34.89572)"><g id="g3876"><path id="path3089" sodipodi:nodetypes="cccccccc" inkscape:connector-curvature="0" style="fill:#02A74D;" d="	M21.561,2.677c-0.966,0.584-1.863,1.272-2.687,2.031c2.656,0.508,5.32,2.862,6.781,4.812	c1.272,2.002,1.963,3.837,2.861,5.731c0.608-0.519,1.227-1.046,1.896-1.587l-0.004-8.226	c-1.979-1.238-5.25-2.867-8.816-2.761C21.584,2.682,21.568,2.672,21.561,2.677z"/><linearGradient id="path4000_1_" gradientUnits="userSpaceOnUse" x1="-1022.3898" y1="1142.3357" x2="-1018.7659" y2="1150.379" gradientTransform="matrix(1.0075 0 0 -1.0008 1054.1868 1153.6248)"><stop offset="0" style="stop-color:#97CA43"/><stop offset="1" style="stop-color:#97CA43;stop-opacity:0"/></linearGradient><path id="path4000" sodipodi:nodetypes="cccccccc" inkscape:connector-curvature="0" style="fill:url(#path4000_1_);" d="	M21.561,2.677c-0.966,0.584-1.863,1.272-2.687,2.031c2.656,0.508,5.32,2.862,6.781,4.812	c1.272,2.002,1.963,3.837,2.861,5.731c0.608-0.519,1.227-1.046,1.896-1.587l-0.004-8.226	c-1.979-1.238-5.25-2.867-8.816-2.761C21.584,2.682,21.568,2.672,21.561,2.677z"/></g></g></g></g><g id="g4021" transform="matrix(-1.0041673,0,0,1.0016853,63.252358,0.05430602)"><g id="g4023"><g id="g4025" transform="translate(1.334375,-34.927083)"><path id="path4027" sodipodi:nodetypes="ccccc" inkscape:connector-curvature="0" style="fill:#00A54D;" d="M25.967,9.583	c-1.848,2.256-9.593,11.426-8.906,17.625c0.478,0.609,1.005,1.181,1.562,1.719c-0.081-4.746,5.451-9.825,9.769-13.659	L25.967,9.583z"/></g><g id="g4029" transform="translate(1.334375,-34.927083)"><linearGradient id="path4031_1_" gradientUnits="userSpaceOnUse" x1="1745.9749" y1="1130.484" x2="1742.0197" y2="1135.1241" gradientTransform="matrix(-1.0042 0 0 -1.0017 1777.4087 1153.8944)"><stop offset="0" style="stop-color:#97CA43"/><stop offset="1" style="stop-color:#97CA43;stop-opacity:0"/></linearGradient><path id="path4031" sodipodi:nodetypes="ccccc" inkscape:connector-curvature="0" style="fill:url(#path4031_1_);" d="	M25.967,9.583c-1.848,2.256-9.593,11.426-8.906,17.625c0.478,0.609,1.005,1.181,1.562,1.719	c-0.081-4.746,5.451-9.825,9.769-13.659L25.967,9.583z"/></g><g id="g4033" transform="translate(1.196189,-34.89572)"><g id="g4035"><path id="path4037" sodipodi:nodetypes="cccccccc" inkscape:connector-curvature="0" style="fill:#02A74D;" d="	M21.561,2.677c-0.966,0.585-1.863,1.272-2.688,2.031c2.656,0.508,5.321,2.862,6.781,4.812	c1.272,2.002,1.964,3.837,2.862,5.732c0.608-0.519,1.226-1.047,1.896-1.587l-0.004-8.227	c-1.979-1.238-5.25-2.867-8.816-2.761C21.585,2.682,21.568,2.672,21.561,2.677z"/><linearGradient id="path4039_1_" gradientUnits="userSpaceOnUse" x1="1746.1101" y1="1141.9645" x2="1749.2062" y2="1147.0082" gradientTransform="matrix(-1.0042 0 0 -1.0017 1777.5476 1153.8627)"><stop offset="0" style="stop-color:#97CA43"/><stop offset="1" style="stop-color:#97CA43;stop-opacity:0"/></linearGradient><path id="path4039" sodipodi:nodetypes="cccccccc" inkscape:connector-curvature="0" style="fill:url(#path4039_1_);" d="	M21.561,2.677c-0.966,0.585-1.863,1.272-2.688,2.031c2.656,0.508,5.321,2.862,6.781,4.812	c1.272,2.002,1.964,3.837,2.862,5.732c0.608-0.519,1.226-1.047,1.896-1.587l-0.004-8.227	c-1.979-1.238-5.25-2.867-8.816-2.761C21.585,2.682,21.568,2.672,21.561,2.677z"/></g></g></g></g></g></g></g></g></g></svg>