<?xml version="1.0" encoding="utf-8"?><!-- Generator: Adobe Illustrator 16.0.0, SVG Export Plug-In . SVG Version: 6.00 Build 0) --><!DOCTYPE svg PUBLIC "-//W3C//DTD SVG 1.1//EN" "http://www.w3.org/Graphics/SVG/1.1/DTD/svg11.dtd"><svg version="1.1" id="Layer_1" xmlns="http://www.w3.org/2000/svg" xmlns:xlink="http://www.w3.org/1999/xlink" x="0px" y="0px" width="62.59px" height="19.022px" viewBox="0 0 62.59 19.022" enable-background="new 0 0 62.59 19.022" xml:space="preserve"><polygon fill="#0F7C10" points="61.091,15.366 57.446,10.419 53.805,15.366 52.305,15.366 56.687,9.389 52.685,3.956 54.185,3.956	57.446,8.387 60.707,3.956 62.206,3.956 58.207,9.388 62.59,15.366 "/><polygon fill="#0F7C10" points="32.688,15.364 28.301,9.388 32.303,3.956 30.803,3.956 27.541,8.388 24.282,3.956 22.786,3.956	26.786,9.388 22.4,15.364 23.902,15.364 27.543,10.419 31.187,15.364 "/><path fill="#0F7C10" d="M41.028,9.82c-0.237-0.204-0.496-0.36-0.748-0.476c0.829-0.45,1.372-1.299,1.372-2.285	c0-0.73-0.269-3.104-3.709-3.104H33.31v4.919h-1.543c-0.2,0.261-0.655,0.888-0.828,1.145h2.371v5.345l4.634,0.001	c2.51,0,4.069-1.274,4.069-3.331C42.013,11.136,41.674,10.373,41.028,9.82 M34.591,5.146h3.353c0.907,0,2.427,0.226,2.427,1.813	c0,1.2-0.885,1.915-2.427,1.915h-3.353V5.146z M37.943,14.175h-3.353v-4.153h3.353c1.271,0,2.792,0.351,2.792,1.987	C40.735,13.893,38.986,14.175,37.943,14.175"/><path fill="#0F7C10" d="M48.04,3.693c-3.205,0-5.445,2.451-5.445,5.961c0,3.515,2.24,5.964,5.445,5.964	c3.202,0,5.436-2.449,5.436-5.964C53.476,6.144,51.242,3.693,48.04,3.693 M48.04,14.411c-2.442,0-4.153-1.957-4.153-4.757	s1.711-4.756,4.153-4.756c2.438,0,4.139,1.956,4.139,4.756S50.478,14.411,48.04,14.411"/><path fill="#0F7C10" d="M2.838,2.735C2.831,2.74,2.828,2.744,2.829,2.743v0.001C1.083,4.468,0,6.862,0,9.511	c0,2.166,0.725,4.162,1.944,5.761c0.013,0.016,0.033,0.025,0.051,0.016c0.017-0.01,0.018-0.031,0.011-0.049	c-0.725-2.242,2.981-7.676,4.896-9.954c0.006-0.008,0.014-0.017,0.014-0.028c0-0.013-0.009-0.023-0.018-0.031	C3.677,2.02,2.817,2.753,2.829,2.743"/><path fill="#0F7C10" d="M16.184,2.735c0.007,0.005,0.009,0.009,0.009,0.008v0.001c1.746,1.724,2.828,4.118,2.828,6.767	c0,2.166-0.725,4.162-1.944,5.761c-0.012,0.016-0.033,0.025-0.051,0.016c-0.016-0.01-0.017-0.031-0.011-0.049	c0.725-2.242-2.978-7.68-4.892-9.959c-0.007-0.008-0.014-0.017-0.014-0.027c0-0.014,0.008-0.024,0.018-0.032	c3.222-3.206,4.076-2.468,4.065-2.478"/><path fill="#0F7C10" d="M9.511,0c1.919,0,3.498,0.526,4.954,1.392c0.018,0.009,0.023,0.029,0.016,0.047	c-0.007,0.017-0.027,0.021-0.046,0.016c-1.841-0.398-4.64,1.193-4.904,1.352c-0.006,0.004-0.012,0.008-0.02,0.008	c-0.009,0-0.015-0.004-0.021-0.008C8.788,2.404,6.201,1.048,4.572,1.465C4.554,1.469,4.534,1.466,4.526,1.448	C4.519,1.431,4.525,1.411,4.542,1.401C5.998,0.526,7.597,0,9.511,0"/><path fill="#0F7C10" d="M9.511,7.628c0.011,0,0.023,0.009,0.03,0.015c2.846,2.164,7.717,7.514,6.23,9.027l0.002-0.002	c-0.001,0.001-0.001,0.002-0.001,0.002h-0.002c-1.672,1.464-3.862,2.353-6.26,2.353c-2.398,0-4.588-0.889-6.261-2.353H3.249	c0,0-0.001-0.001-0.002-0.002l0.002,0.002c-1.484-1.513,3.386-6.863,6.229-9.027C9.486,7.637,9.499,7.628,9.511,7.628"/></svg>