<?xml version="1.0" encoding="utf-8"?>
<!-- Generator: Adobe Illustrator 19.2.1, SVG Export Plug-In . SVG Version: 6.00 Build 0)  -->
<svg version="1.1" id="Vrstva_1" xmlns="http://www.w3.org/2000/svg" xmlns:xlink="http://www.w3.org/1999/xlink" x="0px" y="0px"
	 viewBox="0 0 411 62.5" style="enable-background:new 0 0 411 62.5;" xml:space="preserve">
<style type="text/css">
	.st0{fill:#1B3D6F;}
	.st1{fill:#A31E22;}
</style>
<g>
	<path class="st0" d="M209.2,18.5h-49.5v7.4H208v10.8h-47.7c0.7,2.3,2,4.1,3.9,5.4c1.8,1.2,4.6,1.9,8.1,1.9h36.9v11.4h-37.1
		c-3.7,0-7.1-0.6-10.1-1.7c-3-1.1-5.5-2.7-7.6-4.8s-3.7-4.6-4.8-7.5c-1.1-3-1.7-6.3-1.7-9.9V7.3h61.2v11.2H209.2z"/>
	<path class="st0" d="M303.5,7.1c-3.8,0-7.2,0.6-10.2,1.7c-3,1.1-5.5,2.7-7.6,4.8s-3.6,4.6-4.7,7.6s-1.6,6.3-1.6,9.9v24.2h40
		c3.8,0,7.2-0.5,10.2-1.6s5.5-2.6,7.6-4.7c2-2.1,3.6-4.6,4.7-7.5c1.1-3,1.6-6.3,1.6-10.1V7.2L303.5,7.1L303.5,7.1z M331.7,31.1
		c0,2.5-0.2,4.5-0.7,6.2c-0.4,1.7-1.1,3-2.1,3.9c-1,1-2.3,1.6-3.9,2s-3.6,0.6-5.9,0.6h-28V31.3c0-2.5,0.2-4.5,0.6-6.2s1.1-3,2.1-4
		s2.3-1.7,3.9-2.1c1.6-0.4,3.6-0.6,6.1-0.6h28v12.7H331.7z"/>
	<path class="st0" d="M410.8,18.5h-39.5c-4.9,0-7.7,2.5-8.3,7.4h48v9.2c0,13.5-7.3,20.3-21.9,20.3h-37.2V44h39.7
		c2.4,0,4.3-0.6,5.6-1.9c1.4-1.2,2.2-3,2.6-5.4h-47.9v-9.2c0-13.5,7.3-20.3,22-20.3h37v11.3H410.8z"/>
	<path class="st0" d="M280,7.1c-3.8,0-7.1,0.6-10,1.7c-3,1.1-5.5,2.7-7.6,4.8S246.6,37,246.6,37s-13.7-21.3-15.8-23.4
		c-2.1-2.1-4.6-3.7-7.6-4.8c-2.9-1.1-6.3-1.7-10-1.7l0,0l0,0l30.5,46.6c0,0,1,1.6,2.9,1.6l0,0l0,0l0,0l0,0c1.9,0,2.9-1.6,2.9-1.6
		L280,7.1L280,7.1L280,7.1z"/>
	<path class="st0" d="M140.2,53.3l-26.7-22.1l26.6-22.1l2.5-2l0,0l0,0c-4,0-7.6,0.3-10.8,0.9c-3.2,0.6-5.9,1.5-8.1,2.7
		c-2.2,1.2-17,12.1-17,12.1S92,11.9,89.7,10.7c-2.2-1.2-4.9-2.1-8.1-2.7c-3.2-0.6-6.8-0.9-10.8-0.9l0,0l0,0l2.5,2l26.6,22.1
		L73.3,53.3l-2.5,2l0,0l0,0c4,0,7.6-0.3,10.8-0.9c3.2-0.6,5.9-1.5,8.1-2.7c2.2-1.2,17-12.1,17-12.1s14.7,10.9,17,12.1
		c2.2,1.2,4.9,2.1,8.1,2.7c3.2,0.6,6.8,0.9,10.8,0.9l0,0l0,0L140.2,53.3z"/>
</g>
<g>
	<path class="st0" d="M58.6,35h-0.3h-7H51l0,0h-0.3h-4.2h-0.3c-9.8,1-11.1,10.4-11.3,12.7v10.8c0,2.1,1.7,3.9,3.8,3.9H39h19.2h0.3
		c2.1,0,3.8-1.7,3.8-3.9V38.8C62.4,36.7,60.7,35,58.6,35z"/>
	<path class="st0" d="M3.9,27.4h7.3h0.3H16c9.8-1,11.1-10.4,11.3-12.7V3.9c0-2.1-1.7-3.9-3.8-3.9H3.9C1.8,0,0.1,1.7,0.1,3.9v19.7
		C0,25.7,1.7,27.4,3.9,27.4z"/>
	<path class="st1" d="M58.5,0.1H39c-2.1,0-3.8,1.7-3.8,3.9v3c-0.5,22.5-12.7,27.2-23.7,28H3.8C1.7,35,0,36.7,0,38.9v19.7
		c0,2.1,1.7,3.9,3.8,3.9h19.5c2.1,0,3.8-1.7,3.8-3.9v-3.5c0-0.3,0-0.7,0-1c0-20.8,14.5-26,27.5-26.5h3.8c2.1,0,3.8-1.7,3.8-3.9V4
		C62.4,1.8,60.6,0.1,58.5,0.1z M22.2,54.7c0,1.3-1,2.4-2.3,2.4H8c-1.3,0-2.3-1.1-2.3-2.4v-12c0-1.3,1.1-2.4,2.3-2.4h11.9
		c1.3,0,2.3,1.1,2.3,2.4V54.7z M57,19.7c0,1.3-1.1,2.4-2.4,2.4H42.7c-1.3,0-2.4-1.1-2.4-2.4v-12c0-1.3,1.1-2.4,2.4-2.4h11.9
		c1.3,0,2.4,1.1,2.4,2.4V19.7z"/>
</g>
</svg>
