<?xml version="1.0" encoding="utf-8"?><!-- Generator: Adobe Illustrator 16.0.0, SVG Export Plug-In . SVG Version: 6.00 Build 0) --><!DOCTYPE svg PUBLIC "-//W3C//DTD SVG 1.1//EN" "http://www.w3.org/Graphics/SVG/1.1/DTD/svg11.dtd"><svg version="1.1" id="svg2" xmlns:cc="http://creativecommons.org/ns#" xmlns:dc="http://purl.org/dc/elements/1.1/" xmlns:svg="http://www.w3.org/2000/svg" xmlns:sodipodi="http://sodipodi.sourceforge.net/DTD/sodipodi-0.dtd" xmlns:rdf="http://www.w3.org/1999/02/22-rdf-syntax-ns#" xmlns:inkscape="http://www.inkscape.org/namespaces/inkscape" sodipodi:version="0.32" sodipodi:docname="YamahaMotorCoRed.svg" inkscape:version="0.47 r22583" inkscape:output_extension="org.inkscape.output.svg.inkscape" xmlns="http://www.w3.org/2000/svg" xmlns:xlink="http://www.w3.org/1999/xlink" x="0px" y="0px" width="3684.109px" height="800.001px" viewBox="-1350.225 -293.2 3684.109 800.001" enable-background="new -1350.225 -293.2 3684.109 800.001" xml:space="preserve"><defs><inkscape:perspective inkscape:vp_x="0 : 33.5 : 1" id="perspective48" sodipodi:type="inkscape:persp3d" inkscape:persp3d-origin="150.625 : 22.333333 : 1" inkscape:vp_y="0 : 1000 : 0" inkscape:vp_z="301.25 : 33.5 : 1"></inkscape:perspective></defs><sodipodi:namedview id="namedview42" inkscape:window-x="-8" inkscape:window-y="-8" inkscape:current-layer="svg2" inkscape:pageopacity="0" inkscape:window-maximized="1" inkscape:window-height="738" inkscape:window-width="1280" inkscape:pageshadow="2" objecttolerance="10" inkscape:cy="-10.319112" gridtolerance="10" inkscape:cx="131.8153" pagecolor="#ffffff" bordercolor="#666666" inkscape:zoom="2.5350218" showgrid="false" guidetolerance="10" borderopacity="1"></sodipodi:namedview><radialGradient id="path9_1_" cx="-5080.8979" cy="2814.8381" r="400.0097" gradientTransform="matrix(1.3475 0 0 -1.3475 5755.3804 3711.2654)" gradientUnits="userSpaceOnUse"><stop offset="0" style="stop-color:#FD9196"/><stop offset="1" style="stop-color:#F30713"/></radialGradient><path id="path9" fill="url(#path9_1_)" d="M-950.231-293.2c-220.808,0-399.994,179.186-399.994,399.994	s179.198,400.007,399.994,400.007c220.82,0,399.994-179.198,399.994-400.007C-550.237-114.014-729.411-293.2-950.231-293.2z"/><path id="path11" opacity="0.66" enable-background="new " d="M-948.877-267.31c-211.4,0-382.956,171.543-382.956,382.968	c0,211.4,171.556,383.076,382.956,383.076c211.412,0,383.089-171.664,383.089-383.076	C-565.788-95.766-737.465-267.31-948.877-267.31z M-948.756-258.41c2.225,0,4.523,0.701,6.312,1.982	c1.983,1.403,3.422,3.374,4.22,5.611v0.121l0.109,0.121l12.771,46.338c166.078,12.056,297.281,150.744,297.281,319.894	c0,49.917-11.452,97.247-31.827,139.401l32.879,33.121l0.121,0.121l0.121,0.108c1.632,1.898,2.491,4.1,2.685,6.337	c0.206,2.249-0.218,4.618-1.415,6.65c-1.125,1.959-2.83,3.579-5.03,4.57c-2.165,0.992-4.521,1.232-6.796,0.811h-0.23h-0.109	l-45.177-11.813C-740.535,380.313-838.23,436.47-948.876,436.47c-110.634,0-208.256-56.157-265.913-141.506l-45.044,11.946h-0.133	h-0.23c-2.527,0.461-4.837-0.048-6.784-0.942c-2.165-0.991-3.894-2.601-5.031-4.57c-1.1-1.911-1.632-4.293-1.402-6.529	c0.218-2.249,1.052-4.427,2.696-6.338l0.109-0.119l0.121-0.109l32.771-33.121c-20.412-42.202-31.827-89.545-31.827-139.522	c0-169.197,131.215-307.945,297.389-319.894l12.54-46.218l0.109-0.242v-0.121c0.786-2.237,2.237-4.208,4.22-5.611	C-953.267-257.854-950.993-258.41-948.756-258.41z M-948.756-253.742c-1.354,0-2.757,0.387-3.87,1.185	c-1.1,0.774-2.007,1.983-2.442,3.277l-27.861,102.991c-0.714,2.007-1.017,4.426-0.363,6.444c0.665,2.008,1.886,3.604,3.64,4.802	c4.994,3.445,6.881,9.951,9.239,16.264c2.346,6.312,2.733,11.742,1.052,18.271c-1.693,6.519-5.429,12.455-10.544,16.846	c-9.189,7.872-17.438,17.376-22.577,28.55c-5.139,11.186-6.905,23.145-6.905,35.237V9.837l-143.96-83.087l-15.926,27.377	l159.886,92.229v33.472l-28.792,16.628l-159.875-92.351l-15.925,27.631l143.96,83.101l-25.757,14.873	c-10.472,6.021-19.819,13.593-26.917,23.629c-7.11,10.049-11.367,21.947-13.58,33.822c-1.246,6.627-4.426,12.843-9.251,17.559	c-4.801,4.716-9.747,6.953-16.397,8.064c-6.626,1.102-13.108,2.951-18.598,0.363c-1.898-0.895-4.002-1.161-6.07-0.714	c-2.068,0.424-4.124,1.561-5.514,3.156l-75.01,75.965c-0.895,1.016-1.522,2.395-1.645,3.749c-0.133,1.354,0.146,2.562,0.822,3.748	c0.677,1.173,1.681,2.236,2.927,2.806c1.233,0.558,2.636,0.726,3.966,0.472l103.233-27.39c2.08-0.362,4.208-1.354,5.611-2.926	c1.415-1.572,2.297-3.507,2.467-5.611c0.483-6.069,5.188-10.835,9.48-16.034c4.305-5.176,8.852-8.271,15.333-10.072	c6.494-1.803,13.423-1.402,19.795,0.834c11.403,4.015,23.798,6.288,36.036,5.15c12.262-1.137,23.483-5.55,33.943-11.597	l25.757-14.886V386.02h31.729V201.562l28.901-16.735l28.804,16.614V386.02h31.815V219.798l25.757,14.886	c10.472,6.034,21.694,10.46,33.943,11.597c12.262,1.125,24.645-1.28,36.048-5.296c6.36-2.226,13.411-2.491,19.892-0.701	c6.481,1.813,10.811,4.909,15.091,10.062c4.281,5.199,9.118,9.867,9.589,15.914c0.181,2.104,1.052,4.038,2.467,5.623	c1.415,1.584,3.422,2.89,5.502,3.275l103.342,27.052c1.318,0.254,2.745,0.097,3.979-0.459c1.245-0.568,2.237-1.524,2.914-2.697	c0.677-1.186,0.955-2.515,0.822-3.869c-0.133-1.354-0.641-2.721-1.536-3.761l-75.263-75.711c-1.367-1.597-3.326-2.95-5.381-3.387	c-2.08-0.436-4.185-0.218-6.083,0.701c-5.502,2.601-11.959,0.871-18.599-0.242c-6.65-1.111-11.597-3.458-16.396-8.174	c-4.813-4.739-8.005-10.956-9.25-17.559c-2.213-11.923-6.337-23.798-13.447-33.835c-7.122-10.062-16.675-17.485-27.159-23.508	l-25.624-14.873l143.96-83.101l-15.914-27.498l-159.874,92.338l-28.805-16.614V46.489l159.887-92.24L-744.2-73.25L-888.161,9.849	v-29.723c0-12.104-1.874-24.053-7.001-35.237c-5.151-11.174-13.422-20.678-22.601-28.55c-5.115-4.391-8.839-10.327-10.533-16.846	c-1.681-6.518-1.185-11.959,1.161-18.271c2.37-6.3,4.002-12.83,9.021-16.264c1.729-1.209,3.096-2.793,3.736-4.802	c0.665-2.007,0.713-4.438,0-6.444l-28.32-102.991c-0.448-1.294-1.232-2.491-2.334-3.277	C-946.108-253.355-947.39-253.742-948.756-253.742z M-948.756-54.652c7.546,0,15.019,3.096,20.364,8.44	c5.357,5.345,8.44,12.817,8.44,20.363v54.077l-28.804,16.615l-28.901-16.736v-53.957c0-7.546,3.083-15.007,8.417-20.363	C-963.896-51.568-956.314-54.652-948.756-54.652z M-948.635,81.473l28.683,16.627v33.46l-28.683,16.627l-29.022-16.748V98.196	L-948.635,81.473z M-1038.168,133.216l28.792,16.615v33.472l-46.689,26.918c-6.542,3.772-14.583,4.765-21.899,2.817	c-7.304-1.972-13.761-6.93-17.546-13.458c-3.773-6.53-4.764-14.584-2.805-21.889c1.959-7.328,6.796-13.677,13.35-17.438	L-1038.168,133.216z M-859.224,133.216l46.701,26.918c6.53,3.772,11.488,10.122,13.459,17.438	c1.971,7.305,0.858,15.454-2.927,21.996c-3.771,6.519-10.267,11.379-17.558,13.338c-7.304,1.936-15.225,0.943-21.767-2.806	l-46.822-27.038v-33.255L-859.224,133.216z"/><radialGradient id="path28_1_" cx="-4371.3462" cy="1683.9436" r="574.6805" gradientTransform="matrix(1.1559 1.1559 1.0476 -1.0476 1942.4453 6527.6787)" gradientUnits="userSpaceOnUse"><stop offset="0.0476" style="stop-color:#E4EBEE"/><stop offset="0.2722" style="stop-color:#F5F8F9"/><stop offset="0.4667" style="stop-color:#FFFFFF"/><stop offset="0.7524" style="stop-color:#BFC1C3"/><stop offset="0.8667" style="stop-color:#DCE0E6"/><stop offset="0.9048" style="stop-color:#E2E6ED"/><stop offset="1" style="stop-color:#BCBEC0"/></radialGradient><path id="path28" fill="url(#path28_1_)" d="M-950.268-276.198c-211.412,0-382.956,171.531-382.956,382.956	s171.544,383.089,382.956,383.089c211.424,0,383.064-171.664,383.064-383.089C-567.203-104.667-738.855-276.198-950.268-276.198z M-950.159-267.31c2.213,0,4.522,0.701,6.312,1.995c1.982,1.415,3.422,3.374,4.208,5.623v0.109l0.121,0.133l12.758,46.338	c166.078,12.044,297.292,150.744,297.292,319.869c0,49.918-11.452,97.224-31.827,139.401l32.891,33.134l0.109,0.108l0.121,0.12	c1.621,1.898,2.479,4.088,2.685,6.312c0.23,2.262-0.218,4.632-1.391,6.663c-1.137,1.959-2.842,3.578-5.03,4.57	c-2.165,1.003-4.535,1.257-6.784,0.822h-0.242h-0.121l-45.177-11.827c-57.681,85.349-155.388,141.506-266.021,141.506	c-110.658,0-208.269-56.157-265.938-141.506l-45.044,11.947h-0.121h-0.242c-2.527,0.46-4.837-0.048-6.784-0.942	c-2.152-0.992-3.895-2.588-5.03-4.57c-1.101-1.888-1.633-4.281-1.391-6.53c0.193-2.237,1.052-4.426,2.685-6.336l0.121-0.109	l0.121-0.12l32.771-33.122c-20.424-42.189-31.839-89.544-31.839-139.521c0-169.209,131.239-307.946,297.414-319.869l12.516-46.242	l0.109-0.242v-0.108c0.798-2.262,2.237-4.221,4.208-5.623C-954.682-266.766-952.384-267.31-950.159-267.31z M-950.159-262.63	c-1.367,0-2.757,0.387-3.87,1.173c-1.113,0.786-2.007,1.982-2.442,3.276l-27.861,102.992c-0.702,2.007-1.004,4.329-0.351,6.336	c0.665,2.007,1.898,3.712,3.627,4.897c5.006,3.458,6.881,9.952,9.251,16.275c2.358,6.301,2.733,11.742,1.052,18.261	c-1.668,6.529-5.538,12.467-10.653,16.845c-9.178,7.872-17.329,17.389-22.468,28.55c-5.151,11.187-6.893,23.146-6.893,35.25V0.948	l-143.973-83.1l-15.914,27.377l159.886,92.229v33.46l-28.804,16.627L-1199.46-4.808l-15.926,27.499l143.961,83.22l-25.745,14.874	c-10.472,6.034-19.928,13.593-27.039,23.63c-7.123,10.035-11.246,21.936-13.458,33.835c-1.246,6.602-4.438,12.816-9.251,17.558	c-4.813,4.704-9.734,6.941-16.385,8.054c-6.639,1.112-13.132,2.963-18.61,0.352c-1.911-0.907-4.027-1.148-6.095-0.689	c-2.068,0.411-4.124,1.523-5.502,3.146l-75.13,75.952c-0.896,1.039-1.403,2.405-1.536,3.761c-0.145,1.343,0.145,2.562,0.81,3.749	c0.689,1.173,1.705,2.128,2.927,2.709c1.245,0.556,2.648,0.798,3.99,0.567l103.221-27.39c2.08-0.387,4.208-1.343,5.623-2.927	c1.391-1.584,2.285-3.507,2.467-5.61c0.472-6.07,5.175-10.848,9.468-16.035c4.293-5.212,8.84-8.271,15.333-10.061	c6.494-1.813,13.423-1.402,19.771,0.822c11.415,4.003,23.798,6.287,36.06,5.127c12.237-1.124,23.472-5.515,33.932-11.562	l25.757-14.886v166.198h31.718V192.639l28.913-16.736l28.792,16.615v184.566h31.839V210.886l25.624,14.886	c10.484,6.022,21.803,10.438,34.052,11.562c12.262,1.16,24.646-1.245,36.061-5.261c6.348-2.226,13.397-2.624,19.892-0.811	c6.469,1.813,10.811,4.97,15.103,10.182c4.269,5.188,9.106,9.868,9.578,15.914c0.181,2.104,1.052,4.039,2.467,5.623	c1.403,1.584,3.434,2.866,5.502,3.277l103.342,27.051c1.342,0.241,2.757,0.097,3.99-0.46c1.246-0.593,2.249-1.536,2.926-2.721	c0.665-1.161,0.931-2.491,0.81-3.857c-0.133-1.366-0.641-2.721-1.523-3.749l-75.263-75.723c-1.367-1.608-3.326-2.963-5.381-3.374	c-2.068-0.437-4.184-0.229-6.095,0.688c-5.49,2.612-11.959,0.884-18.598-0.229c-6.651-1.137-11.572-3.482-16.385-8.199	c-4.812-4.716-7.993-10.932-9.25-17.534c-2.225-11.923-6.349-23.82-13.459-33.834c-7.11-10.062-16.675-17.485-27.147-23.531	l-25.745-14.874l144.07-83.208l-15.926-27.391l-159.875,92.351l-28.804-16.627V37.565l159.886-92.217l-15.914-27.51l-143.96,83.099	v-29.735c0-12.092-1.862-24.052-7.014-35.236c-5.151-11.173-13.411-20.678-22.589-28.55c-5.127-4.391-8.852-10.315-10.532-16.846	c-1.681-6.529-1.197-11.946,1.161-18.26c2.358-6.312,4.015-12.83,9.021-16.276c1.741-1.196,3.083-2.901,3.749-4.909	c0.665-1.995,0.702-4.329,0-6.312l-28.32-103.003c-0.459-1.282-1.354-2.491-2.455-3.29	C-947.631-262.243-948.792-262.63-950.159-262.63z M-950.159-63.54c7.558,0,15.006,3.083,20.364,8.429	c5.356,5.357,8.428,12.818,8.428,20.375V19.33l-28.792,16.627l-28.913-16.749v-53.957c0-7.559,3.083-15.006,8.428-20.363	C-965.287-60.469-957.717-63.54-950.159-63.54z M-950.159,72.585l28.792,16.614v33.483l-28.671,16.604l-29.021-16.726V89.32	L-950.159,72.585z M-1039.691,124.207l28.901,16.748v33.46l-46.701,26.93c-6.542,3.772-14.572,4.74-21.888,2.806	c-7.316-1.959-13.785-6.917-17.558-13.459c-3.785-6.528-4.776-14.596-2.817-21.875c1.959-7.328,6.796-13.785,13.35-17.559	L-1039.691,124.207z M-860.735,124.207l46.81,27.051c6.554,3.772,11.5,10.108,13.459,17.426c1.971,7.315,0.737,15.466-3.047,21.996	c-3.773,6.53-10.134,11.391-17.45,13.35c-7.292,1.937-15.333,0.943-21.875-2.829l-46.713-26.918v-33.472L-860.735,124.207z"/><path id="path30" sodipodi:nodetypes="cccccccccc" fill="#F30711" d="M-484.116-229.279L-336.588,221.2v220.034h145.557V221.2	l139.208-450.479h-131.578l-82.664,292.734l-80.294-292.734H-484.116z"/><path id="path32" sodipodi:nodetypes="cccccccccccccc" fill="#F30711" d="M424.485-229.279v670.514h121.07V6.391l69.387,434.845	h91.418L775.603,6.391v434.845h123.344v-670.514h-184.87L661.341,89.684l-50.812-318.962L424.485-229.279L424.485-229.279z"/><path id="path34" sodipodi:nodetypes="ccccccccccccc" fill="#F30711" d="M1460.543-229.279v670.514h134.951v-282.6h114.951v282.601	h131.735v-670.514h-131.735V37.469h-114.951v-266.748H1460.543z"/><path id="path36" sodipodi:nodetypes="ccccccccccccc" fill="#F30711" d="M2033.906-229.412l-116.607,670.623h131.615l25.949-163.816	h100.852l25.418,163.816h132.752L2217.24-229.412H2033.906z M2126.39-82.344l34.307,242.61h-70.064L2126.39-82.344z"/><path id="path38" sodipodi:nodetypes="ccccccccccccc" fill="#F30711" d="M1088.772-229.412L972.165,441.211h131.613l25.951-163.816	h100.862l25.406,163.816h132.763l-116.644-670.623H1088.772z M1181.256-82.344l34.318,242.61h-70.076L1181.256-82.344z"/><path id="path40" sodipodi:nodetypes="ccccccccccccc" fill="#F30711" d="M53.26-229.412L-63.36,441.211H68.255l25.938-163.816	h100.863l25.406,163.816h132.763L236.594-229.412H53.26z M145.731-82.344l34.33,242.61h-70.088L145.731-82.344z"/></svg>