<?xml version="1.0" encoding="UTF-8" standalone="no"?>
<svg width="150px" height="63px" viewBox="0 0 150 63" version="1.1" xmlns="http://www.w3.org/2000/svg" xmlns:xlink="http://www.w3.org/1999/xlink" xmlns:sketch="http://www.bohemiancoding.com/sketch/ns">
    <!-- Generator: Sketch 3.5.2 (25235) - http://www.bohemiancoding.com/sketch -->
    <title>Page 1</title>
    <desc>Created with Sketch.</desc>
    <defs></defs>
    <g id="Page-1" stroke="none" stroke-width="1" fill="none" fill-rule="evenodd" sketch:type="MSPage">
        <g sketch:type="MSLayerGroup">
            <path d="M149.1065,13.9092 C149.1065,13.9092 148.2335,7.7762 145.5525,5.0752 C142.1535,1.5312 138.3425,1.5132 136.5955,1.3052 C124.0855,0.4052 105.3195,0.4052 105.3195,0.4052 L105.2805,0.4052 C105.2805,0.4052 86.5145,0.4052 74.0045,1.3052 C72.2565,1.5132 68.4475,1.5312 65.0465,5.0752 C62.3665,7.7762 61.4945,13.9092 61.4945,13.9092 C61.4945,13.9092 60.5995,21.1102 60.5995,28.3122 L60.5995,35.0642 C60.5995,42.2662 61.4945,49.4682 61.4945,49.4682 C61.4945,49.4682 62.3665,55.6002 65.0465,58.3022 C68.4475,61.8472 72.9155,61.7342 74.9045,62.1052 C82.0565,62.7892 105.2995,63.0002 105.2995,63.0002 C105.2995,63.0002 124.0855,62.9732 136.5955,62.0722 C138.3425,61.8642 142.1535,61.8472 145.5525,58.3022 C148.2335,55.6002 149.1065,49.4682 149.1065,49.4682 C149.1065,49.4682 150.0005,42.2662 150.0005,35.0642 L150.0005,28.3122 C150.0005,21.1102 149.1065,13.9092 149.1065,13.9092" id="Fill-1" fill="#E62D27" sketch:type="MSShapeGroup"></path>
            <path d="M55.9854,51.0606 L50.2974,51.0606 L50.2974,47.7676 C48.1404,50.2396 46.3124,51.4876 44.3194,51.4876 C42.5714,51.4876 41.3564,50.6636 40.7494,49.1726 C40.3804,48.2666 40.1184,46.8516 40.1184,44.7736 L40.1184,20.8226 L45.8054,20.8226 L45.8054,43.2766 L45.8054,45.3726 C45.9384,46.2116 46.2964,46.5196 47.0184,46.5196 C48.1074,46.5196 49.0924,45.5736 50.2974,43.8746 L50.2974,20.8226 L55.9854,20.8226 L55.9854,51.0606 Z" id="Fill-4" fill="#000000" sketch:type="MSShapeGroup"></path>
            <path d="M30.2383,42.0791 C30.5373,45.0731 29.6083,46.5581 27.8423,46.5581 C26.0763,46.5581 25.1483,45.0731 25.4483,42.0791 L25.4483,30.1031 C25.1483,27.1091 26.0763,25.7061 27.8433,25.7061 C29.6093,25.7061 30.5403,27.1091 30.2413,30.1031 L30.2383,42.0791 Z M35.9273,30.7021 C35.9273,27.4711 35.2773,25.0441 34.1303,23.5171 C32.6143,21.4481 30.2383,20.6011 27.8433,20.6011 C25.1323,20.6011 23.0683,21.4481 21.5553,23.5171 C20.3893,25.0441 19.7643,27.4971 19.7643,30.7281 L19.7593,41.4801 C19.7593,44.6931 20.3153,46.9131 21.4803,48.4261 C22.9943,50.4881 25.4483,51.5801 27.8433,51.5801 C30.2383,51.5801 32.7343,50.4881 34.2503,48.4261 C35.3973,46.9131 35.9273,44.6931 35.9273,41.4801 L35.9273,30.7021 Z" id="Fill-6" fill="#000000" sketch:type="MSShapeGroup"></path>
            <path d="M13.4727,34.5938 L13.4727,51.0608 L7.4847,51.0608 L7.4847,34.5938 C7.4847,34.5938 1.2797,14.4068 -0.0003,10.6438 L6.2867,10.6438 L10.4887,26.4138 L14.6697,10.6438 L20.9567,10.6438 L13.4727,34.5938 Z" id="Fill-8" fill="#000000" sketch:type="MSShapeGroup"></path>
            <path d="M131.7305,29.1934 C131.7305,26.3944 132.4975,25.6314 134.3075,25.6314 C136.1045,25.6314 136.8195,26.4634 136.8195,29.2304 L136.8195,32.4984 L131.7305,32.5044 L131.7305,29.1934 Z M142.5185,36.9894 L142.5175,30.8694 C142.5175,27.6724 141.8875,25.3324 140.7535,23.8194 C139.2355,21.7724 137.0775,20.6884 134.3585,20.6884 C131.5905,20.6884 129.4325,21.7724 127.8655,23.8194 C126.7135,25.3324 126.0425,27.8034 126.0425,31.0024 L126.0425,41.4804 C126.0425,44.6594 126.7805,46.8844 127.9315,48.3814 C129.4995,50.4254 131.6575,51.4464 134.4925,51.4464 C137.3245,51.4464 139.5485,50.3764 141.0475,48.2034 C141.7075,47.2444 142.1325,46.1574 142.3155,44.9564 C142.3645,44.4134 142.5075,43.1764 142.5075,41.4304 L142.5075,40.5824 L136.8195,40.5824 C136.8195,42.7564 136.8305,44.0494 136.7795,44.3444 C136.4695,45.7944 135.6925,46.5194 134.3585,46.5194 C132.4975,46.5194 131.7105,45.1274 131.7305,42.3664 L131.7305,36.9894 L142.5185,36.9894 Z" id="Fill-11" fill="#FFFFFF" sketch:type="MSShapeGroup"></path>
            <path d="M116.7608,42.3779 C116.7608,45.3719 116.0548,46.5199 114.4918,46.5199 C113.5998,46.5199 112.5718,46.0609 111.6648,45.1539 L111.6708,26.9969 C112.5768,26.1029 113.5998,25.6319 114.4918,25.6319 C116.0548,25.6319 116.7608,26.5109 116.7608,29.5049 L116.7608,42.3779 Z M117.3918,20.6419 C115.3978,20.6419 113.4158,21.8679 111.6648,24.0229 L111.6708,10.9419 L106.2818,10.9419 L106.2818,51.0609 L111.6708,51.0609 L111.6788,48.0459 C113.4898,50.2869 115.4648,51.4459 117.3918,51.4459 C119.5498,51.4459 121.1268,50.2909 121.8508,48.0669 C122.2118,46.7979 122.4488,44.8459 122.4488,42.0789 L122.4488,30.1039 C122.4488,27.2699 122.0858,25.3319 121.7238,24.1289 C121.0008,21.8889 119.5498,20.6419 117.3918,20.6419 L117.3918,20.6419 Z" id="Fill-13" fill="#FFFFFF" sketch:type="MSShapeGroup"></path>
            <path d="M101.7911,51.0606 L96.1041,51.0606 L96.1041,47.7676 C93.9461,50.2396 92.1191,51.4876 90.1261,51.4876 C88.3781,51.4876 87.1631,50.6636 86.5561,49.1726 C86.1861,48.2666 85.9241,46.8516 85.9241,44.7736 L85.9241,21.1226 L91.6121,21.1226 L91.6121,43.2766 L91.6121,45.3726 C91.7451,46.2116 92.1021,46.5196 92.8251,46.5196 C93.9141,46.5196 94.8991,45.5736 96.1041,43.8746 L96.1041,21.1226 L101.7911,21.1226 L101.7911,51.0606 Z" id="Fill-15" fill="#FFFFFF" sketch:type="MSShapeGroup"></path>
            <path d="M80.2354,51.0606 L74.2484,51.0606 L74.2484,16.6306 L67.9614,16.6306 L67.9614,10.9496 L86.8224,10.9426 L86.8224,16.6306 L80.2354,16.6306 L80.2354,51.0606 Z" id="Fill-17" fill="#FFFFFF" sketch:type="MSShapeGroup"></path>
        </g>
    </g>
</svg>