<?xml version="1.0" encoding="utf-8"?><!-- Generator: Adobe Illustrator 16.0.0, SVG Export Plug-In . SVG Version: 6.00 Build 0) --><!DOCTYPE svg PUBLIC "-//W3C//DTD SVG 1.1//EN" "http://www.w3.org/Graphics/SVG/1.1/DTD/svg11.dtd"><svg version="1.1" id="Layer_1" xmlns="http://www.w3.org/2000/svg" xmlns:xlink="http://www.w3.org/1999/xlink" x="0px" y="0px" width="163.9px" height="34.1px" viewBox="15.6 11.1 163.9 34.1" enable-background="new 15.6 11.1 163.9 34.1" xml:space="preserve"><g><path fill="#F26924" d="M64.1,18.8c-2-1-4.1-1.4-6.4-1.4c-2.2,0-4.2,0.4-6.1,1.2c-1.9,0.8-3.5,1.8-5,3.2c-1.4,1.4-2.5,3-3.3,4.8	c-0.8,1.8-1.2,3.7-1.2,5.6c0,2.6,0.6,4.8,1.8,6.8c1.2,2,2.9,3.5,5,4.6C51,44.7,53.2,45.2,55.7,45.2c2.1,0,4-0.4,5.8-1.101	c1.8-0.699,3.4-1.8,4.8-3.1c1.4-1.3,2.4-2.9,3.2-4.8c0.8-1.9,1.2-3.8,1.2-6c0-2.8-0.6-5.2-1.8-7.1C67.7,21.2,66.1,19.8,64.1,18.8z M61.1,33.6c-0.5,1.2-1.2,2.1-2.1,2.9c-0.9,0.7-1.9,1.1-3.1,1.1c-1.4,0-2.6-0.5-3.4-1.5c-0.9-1-1.3-2.2-1.3-3.7	c0-1,0.2-2.1,0.6-3.3c0.4-1.2,1.1-2.2,2-3c0.9-0.8,2-1.2,3.4-1.2c1.4,0,2.5,0.5,3.3,1.4c0.9,0.9,1.3,2.2,1.3,3.8	C61.8,31.3,61.6,32.5,61.1,33.6z"/><path fill="#F26924" d="M177.8,18c-0.7-0.1-1.3-0.2-2-0.3c-0.7-0.1-1.399-0.1-2-0.2c-0.7-0.1-1.3-0.1-1.8-0.1	c-2.7,0-4.1,0.2-6.4,0.6c-2.3,0.4-4.3,0.9-6,1.3l-4,25.3h9.101l3.2-20.399c0.399-0.1,2.199-0.4,2.8-0.4c1.3,0,2.399,0.1,3.5,0.3	c1.1,0.2,2,0.4,2.8,0.5l2.5-6.2C179,18.2,178.5,18.1,177.8,18z"/><polygon fill="#F26924" points="124.9,11.1 110,44.6 118.3,44.6 134,11.1	"/><polygon fill="#F26924" points="43.8,17.8 43.3,17.8 19.6,17.8 18.7,24 30,24 15.6,44.6 15.9,44.6 39.9,44.6 40.8,38.2 29.6,38.2	"/><polygon fill="#F26924" points="111.9,21.2 102.8,21.2 108.6,44.6 113.8,32.6	"/><path fill="#F26924" d="M148.9,18.7c-1.7-0.9-3.601-1.3-5.7-1.3c-2.8,0-5.3,0.7-7.5,2.1s-4,3.2-5.2,5.6c-1.3,2.3-1.9,4.9-1.9,7.6	c0,1.8,0.4,3.7,1.101,5.6c0.8,1.9,2.2,3.5,4.3,4.8c2.1,1.4,5,2,8.6,2c1.7,0,3.101-0.1,4.301-0.399c1.1-0.3,2.6-0.8,4.5-1.5l1.3-6.6	c-2,0.8-3.7,1.4-5.101,1.8c-1.399,0.399-3,0.6-4.899,0.6c-3.601,0-5.5-1.9-5.5-5.6h17c0.2-1.4,0.399-2.7,0.399-3.9	c0-2.7-0.5-4.9-1.6-6.8C152.1,21,150.7,19.6,148.9,18.7z M146.2,28.4c0,0.1,0,0.2,0,0.4H138c0.6-1.6,1.3-2.9,2-3.9s1.7-1.5,3-1.5	c2.1,0,3.1,1.5,3.1,4.5C146.2,28.2,146.2,28.3,146.2,28.4z"/><path fill="#F26924" d="M95.2,18.8c-2-1-4.1-1.4-6.4-1.4c-2.2,0-4.2,0.4-6.1,1.2c-1.9,0.8-3.5,1.8-5,3.2c-1.4,1.4-2.5,3-3.3,4.8	c-0.8,1.8-1.2,3.7-1.2,5.6c0,2.6,0.6,4.8,1.8,6.8s2.9,3.5,5,4.6c2.1,1.101,4.3,1.601,6.8,1.601c2.1,0,4-0.4,5.8-1.101	c1.8-0.699,3.4-1.8,4.8-3.1c1.399-1.3,2.399-2.9,3.199-4.8c0.801-1.9,1.2-3.8,1.2-6c0-2.8-0.6-5.2-1.8-7.1S97.2,19.8,95.2,18.8z M92.2,33.6c-0.5,1.2-1.2,2.1-2.1,2.9c-0.9,0.7-1.9,1.1-3.1,1.1c-1.4,0-2.6-0.5-3.4-1.5c-0.9-1-1.3-2.2-1.3-3.7	c0-1,0.2-2.1,0.6-3.3c0.4-1.2,1.1-2.2,2-3c0.9-0.8,2-1.2,3.5-1.2c1.4,0,2.5,0.5,3.3,1.4c0.9,0.9,1.3,2.2,1.3,3.8	C92.9,31.3,92.7,32.5,92.2,33.6z"/></g></svg>