<?xml version="1.0" encoding="UTF-8" ?>
<!DOCTYPE svg PUBLIC "-//W3C//DTD SVG 1.1//EN" "http://www.w3.org/Graphics/SVG/1.1/DTD/svg11.dtd">
<svg width="298pt" height="85pt" viewBox="0 0 298 85" version="1.1" xmlns="http://www.w3.org/2000/svg">
<path fill="#ffffff" d=" M 0.00 0.00 L 298.00 0.00 L 298.00 85.00 L 0.00 85.00 L 0.00 0.00 Z" />
<path fill="#ffcb34" d=" M 48.55 13.23 C 49.89 12.15 50.89 10.08 52.91 10.35 C 69.29 10.49 85.68 10.57 102.07 10.67 C 102.63 11.61 103.20 12.54 103.77 13.48 C 85.37 13.73 66.96 13.24 48.55 13.23 Z" />
<path fill="#ffcb34" d=" M 112.18 9.96 C 113.77 10.70 116.25 10.98 116.61 13.09 C 117.86 17.97 117.30 23.18 118.96 27.98 C 120.23 31.59 122.77 34.57 125.59 37.09 C 128.42 34.04 131.40 30.78 132.32 26.59 C 133.43 21.66 133.51 16.58 134.58 11.64 C 136.16 11.06 137.77 10.55 139.42 10.19 C 138.26 15.44 138.68 20.87 137.52 26.11 C 136.40 31.77 133.09 36.89 128.61 40.48 C 125.88 42.67 123.10 44.80 120.70 47.37 C 126.87 47.55 133.05 47.39 139.21 47.64 C 137.94 48.76 137.07 50.94 135.14 50.99 C 129.73 51.04 124.32 50.42 118.92 50.97 C 118.71 51.61 118.27 52.89 118.06 53.53 C 123.03 53.85 128.01 53.69 132.99 53.85 C 131.55 55.14 130.44 57.57 128.15 57.30 C 125.29 57.40 122.43 57.26 119.58 57.18 C 120.48 58.63 118.74 60.47 117.34 59.76 C 115.30 58.68 113.47 56.86 110.99 57.03 C 97.21 56.63 83.41 56.82 69.62 56.54 C 69.26 55.76 68.55 54.20 68.19 53.42 C 83.07 53.00 97.96 53.74 112.84 53.66 C 112.86 52.93 112.90 51.46 112.92 50.72 C 97.61 50.59 82.30 50.35 66.98 50.24 C 66.65 49.08 66.32 47.92 65.98 46.77 C 82.03 46.67 98.07 47.53 114.12 47.34 C 116.31 44.55 118.72 41.89 121.80 40.05 C 118.36 37.00 115.46 33.26 114.12 28.81 C 112.32 22.70 112.38 16.27 112.18 9.96 Z" />
<path fill="#ffcb34" d=" M 146.33 10.42 C 151.06 12.84 156.08 9.67 161.03 10.37 C 165.90 10.20 172.06 13.48 171.83 18.97 C 171.79 28.31 172.35 37.66 171.64 46.98 C 171.47 52.42 171.10 58.84 175.82 62.62 C 173.85 63.01 171.85 63.06 169.85 63.16 C 168.68 61.62 166.90 60.18 167.03 58.04 C 166.82 52.67 167.21 47.29 166.79 41.93 C 166.26 34.30 166.95 26.65 166.54 19.02 C 166.46 16.90 164.62 15.11 162.66 14.57 C 158.87 13.95 154.95 14.22 151.27 15.28 C 151.28 24.88 151.28 34.48 151.34 44.07 C 149.81 43.78 148.27 43.49 146.74 43.21 C 145.49 39.92 146.20 36.40 146.19 32.99 C 146.26 25.47 146.33 17.94 146.33 10.42 Z" />
<path fill="#ffcb34" d=" M 179.26 30.02 C 177.98 20.24 186.43 9.85 196.54 10.00 C 196.57 11.46 196.60 12.92 196.63 14.38 C 190.30 15.02 184.60 20.44 184.53 26.94 C 184.24 34.45 191.67 41.25 199.18 39.60 C 205.18 38.66 209.04 32.94 209.57 27.18 C 211.28 27.21 212.99 27.25 214.70 27.30 C 213.96 33.08 211.30 38.97 206.27 42.21 C 202.36 44.67 197.41 46.19 192.88 44.60 C 185.94 42.90 181.18 36.59 179.26 30.02 Z" />
<path fill="#ffcb34" d=" M 45.43 16.44 C 60.93 16.76 76.46 16.28 91.94 17.26 C 96.45 17.31 100.96 17.18 105.46 17.42 C 105.52 18.40 105.58 19.37 105.63 20.34 C 84.46 19.46 63.25 19.63 42.06 19.39 C 43.18 18.41 44.31 17.43 45.43 16.44 Z" />
<path fill="#ffcb34" d=" M 35.91 25.60 C 36.93 24.60 37.96 23.61 38.98 22.61 C 61.79 22.70 84.57 23.67 107.38 23.43 C 107.75 24.21 108.47 25.76 108.83 26.54 C 95.88 26.38 82.93 26.29 69.98 26.25 C 58.64 25.49 47.27 25.80 35.91 25.60 Z" />
<path fill="#ffcb34" d=" M 83.03 30.02 C 84.36 28.31 86.53 28.80 88.41 28.80 C 83.45 34.11 78.15 39.09 73.02 44.24 C 72.02 44.21 70.03 44.15 69.03 44.12 C 73.39 39.13 78.37 34.71 83.03 30.02 Z" />
<path fill="#ffcb34" d=" M 91.49 30.51 C 92.83 28.65 95.17 29.25 97.11 29.43 C 91.87 34.23 87.02 39.42 81.87 44.30 C 80.88 44.28 78.90 44.24 77.91 44.22 C 82.19 39.41 86.99 35.10 91.49 30.51 Z" />
<path fill="#ffcb34" d=" M 100.53 30.45 C 101.88 28.62 104.26 29.45 106.17 29.42 C 100.88 34.19 96.03 39.41 90.91 44.35 C 89.87 44.36 87.80 44.37 86.76 44.37 C 91.03 39.44 96.00 35.15 100.53 30.45 Z" />
<path fill="#ffcb34" d=" M 70.75 59.52 C 83.86 59.54 96.96 59.74 110.06 59.80 C 113.39 59.77 116.59 61.31 119.93 60.70 C 122.21 60.35 124.49 60.03 126.78 59.80 C 125.63 61.09 124.45 62.36 123.26 63.61 C 106.21 62.95 89.14 63.61 72.09 62.81 C 71.65 61.71 71.20 60.61 70.75 59.52 Z" />
</svg>
