<?xml version="1.0" encoding="UTF-8" standalone="no"?>
<svg
   xmlns:dc="http://purl.org/dc/elements/1.1/"
   xmlns:cc="http://creativecommons.org/ns#"
   xmlns:rdf="http://www.w3.org/1999/02/22-rdf-syntax-ns#"
   xmlns:svg="http://www.w3.org/2000/svg"
   xmlns="http://www.w3.org/2000/svg"
   viewBox="0 0 426 169.26666"
   height="169.26666"
   width="426"
   xml:space="preserve"
   id="svg2"
   version="1.1"><metadata
     id="metadata8"><rdf:RDF><cc:Work
         rdf:about=""><dc:format>image/svg+xml</dc:format><dc:type
           rdf:resource="http://purl.org/dc/dcmitype/StillImage" /></cc:Work></rdf:RDF></metadata><defs
     id="defs6"><clipPath
       id="clipPath20"
       clipPathUnits="userSpaceOnUse"><path
         id="path18"
         d="M 0,0 H 3195 V 1269.52 H 0 Z" /></clipPath></defs><g
     transform="matrix(1.3333333,0,0,-1.3333333,0,169.26667)"
     id="g10"><g
       transform="scale(0.1)"
       id="g12"><g
         id="g14"><g
           clip-path="url(#clipPath20)"
           id="g16"><path
             id="path22"
             style="fill:#ff0000;fill-opacity:1;fill-rule:nonzero;stroke:none"
             d="m 421.059,658.422 h -62.743 c -98.539,0 -194.093,71.894 -194.093,251.633 0,187.245 89.578,263.625 180.652,263.625 h 76.184 z m 98.539,611.098 H 349.352 C 182.152,1269.52 40.2891,1142.21 40.2891,895.066 40.2891,746.797 109,637.465 231.395,583.543 L 2.98828,170.148 c -7.46484,-13.488 0,-23.937 11.90622,-23.937 H 120.906 c 8.957,0 14.938,2.98 17.922,10.449 l 207.535,405.922 h 74.696 V 156.66 c 0,-4.48 4.476,-10.449 10.402,-10.449 h 92.617 c 8.961,0 11.949,4.48 11.949,11.937 V 1254.54 c 0,10.5 -5.976,14.98 -16.429,14.98" /><path
             id="path24"
             style="fill:#000000;fill-opacity:1;fill-rule:nonzero;stroke:none"
             d="m 1080.82,897.137 h -92.566 c -7.473,0 -11.949,-5.977 -11.949,-10.453 V 600.598 H 804.566 v 286.086 c 0,7.464 -2.937,10.453 -10.406,10.453 h -92.613 c -7.418,0 -11.902,-4.481 -11.902,-10.453 V 158.73 c 0,-7.468 2.988,-11.949 10.406,-11.949 h 94.109 c 5.973,0 10.406,4.481 10.406,11.949 V 506.207 H 976.305 V 158.73 c 0,-7.468 4.476,-11.949 11.949,-11.949 h 92.566 c 7.47,0 10.46,5.981 10.46,11.949 v 727.954 c 0,5.972 -4.49,10.453 -10.46,10.453" /><path
             id="path26"
             style="fill:#000000;fill-opacity:1;fill-rule:nonzero;stroke:none"
             d="m 3194.5,194.68 -11.95,50.929 c -1.44,4.481 -2.95,5.981 -7.42,5.981 -7.46,0 -47.79,-16.442 -106.02,-16.442 -113.47,0 -168.75,109.293 -168.75,283.055 0,152.797 46.31,304.051 123.95,304.051 20.92,0 46.31,-5.973 86.58,-43.461 4.49,-4.484 7.48,-5.977 11.95,-5.977 4.5,0 8.97,3.036 13.46,10.508 l 40.33,65.867 c 2.97,4.528 4.48,9.059 4.48,13.543 0,5.977 -5.98,10.454 -14.95,14.938 -61.25,31.465 -103.02,37.437 -138.86,37.437 -140.37,0 -249.38,-167.73 -249.38,-429.816 0,-226.184 104.53,-356.484 253.85,-356.484 62.75,0 129.92,29.921 156.8,49.441 5.93,4.48 7.42,10.461 5.93,16.43" /><path
             id="path28"
             style="fill:#000000;fill-opacity:1;fill-rule:nonzero;stroke:none"
             d="m 2545.58,558.676 179.16,328.008 c 2.99,4.476 1.48,10.453 -4.49,10.453 h -88.09 c -25.39,0 -34.36,-8.965 -43.26,-28.426 L 2454.46,588.602 c -7.42,-16.477 -14.9,-26.938 -22.36,-31.465 v 329.547 c 0,5.972 -2.99,10.453 -8.96,10.453 h -97.05 c -4.48,0 -8.97,-4.481 -8.97,-10.453 V 157.238 c 0,-4.476 2.99,-10.457 8.97,-10.457 h 97.05 c 5.97,0 8.96,4.481 8.96,10.457 v 375.95 c 4.47,-2.989 7.46,-7.469 10.45,-13.493 l 170.2,-350.457 c 8.96,-17.976 22.4,-22.457 41.83,-22.457 h 95.55 c 5.98,0 7.46,5.981 4.47,10.457 l -209.02,401.438" /><path
             id="path30"
             style="fill:#000000;fill-opacity:1;fill-rule:nonzero;stroke:none"
             d="m 1528.76,241.129 h -216.5 c 76.18,130.297 106.01,277.074 116.46,456.805 2.99,38.933 4.48,79.414 4.48,104.851 h 95.56 z m 161.28,0 h -17.93 c -22.4,0 -28.38,8.961 -28.38,26.93 v 618.625 c 0,7.464 -2.99,10.453 -8.96,10.453 h -298.61 c -7.48,0 -11.95,-4.481 -11.95,-10.453 v -53.922 c 0,-181.231 -10.46,-414.883 -106.01,-591.633 h -32.87 c -8.96,0 -11.94,-4.527 -11.94,-11.988 0,0 0,-179.7426 0,-218.6801 C 1173.39,2.94922 1179.36,0 1183.84,0 h 71.7 c 16.39,0 22.36,11.9609 22.36,22.4688 V 146.781 h 319.57 V 10.4609 C 1597.47,4.5 1601.91,0 1607.88,0 h 76.18 c 8.92,0 17.88,7.46875 17.88,22.4688 V 229.141 c 0,7.461 -4.48,11.988 -11.9,11.988" /><path
             id="path32"
             style="fill:#000000;fill-opacity:1;fill-rule:nonzero;stroke:none"
             d="m 1978.19,590.098 c -34.36,0 -88.08,-5.977 -88.08,-5.977 0,0 0,22.453 2.99,46.449 13.39,127.309 44.76,191.684 97.04,191.684 47.8,0 77.63,-65.867 85.1,-181.227 1.49,-23.949 1.49,-50.929 1.49,-50.929 z m 16.43,325.011 c -161.23,0 -232.93,-203.679 -232.93,-425.339 0,-226.18 101.52,-360.961 250.86,-360.961 73.14,0 137.37,28.429 170.19,49.441 5.97,2.98 7.47,7.469 5.97,13.441 l -11.94,50.938 c -1.49,5.973 -4.48,8.961 -11.95,8.961 -5.93,0 -49.25,-16.442 -110.49,-16.442 -114.97,0 -168.7,100.329 -168.7,232.122 0,18.023 0,35.464 0,35.464 0,0 58.2,-6.988 92.56,-6.988 h 217.99 v 62.93 c 0,232.113 -82.15,356.433 -201.56,356.433" /></g></g></g></g></svg>